<svg width="286" height="370" viewBox="0 0 286 370" fill="none" xmlns="http://www.w3.org/2000/svg">
<g filter="url(#filter0_d_109_1301)">
<mask id="path-1-inside-1_109_1301" fill="white">
<path fill-rule="evenodd" clip-rule="evenodd" d="M10.5957 0.470703C5.07286 0.470703 0.595703 4.94786 0.595703 10.4707V350C0.595703 355.523 5.07285 360 10.5957 360H271.298C276.821 360 281.298 355.523 281.298 350V219.619C281.298 216.164 279.046 213.164 275.923 211.687C262.837 205.502 254 193.734 254 180.235C254 166.735 262.837 154.968 275.923 148.782C279.046 147.306 281.298 144.305 281.298 140.851V10.4707C281.298 4.94786 276.821 0.470703 271.298 0.470703H10.5957Z"/>
</mask>
<path fill-rule="evenodd" clip-rule="evenodd" d="M10.5957 0.470703C5.07286 0.470703 0.595703 4.94786 0.595703 10.4707V350C0.595703 355.523 5.07285 360 10.5957 360H271.298C276.821 360 281.298 355.523 281.298 350V219.619C281.298 216.164 279.046 213.164 275.923 211.687C262.837 205.502 254 193.734 254 180.235C254 166.735 262.837 154.968 275.923 148.782C279.046 147.306 281.298 144.305 281.298 140.851V10.4707C281.298 4.94786 276.821 0.470703 271.298 0.470703H10.5957Z" fill="white"/>
<path d="M275.923 148.782L275.068 146.974L275.923 148.782ZM275.923 211.687L275.068 213.496L275.923 211.687ZM2.5957 10.4707C2.5957 6.05243 6.17743 2.4707 10.5957 2.4707V-1.5293C3.96829 -1.5293 -1.4043 3.84329 -1.4043 10.4707H2.5957ZM2.5957 350V10.4707H-1.4043V350H2.5957ZM10.5957 358C6.17742 358 2.5957 354.418 2.5957 350H-1.4043C-1.4043 356.627 3.96828 362 10.5957 362V358ZM271.298 358H10.5957V362H271.298V358ZM279.298 350C279.298 354.418 275.716 358 271.298 358V362C277.925 362 283.298 356.627 283.298 350H279.298ZM279.298 219.619V350H283.298V219.619H279.298ZM276.778 209.879C264.231 203.948 256 192.798 256 180.235H252C252 194.67 261.444 207.055 275.068 213.496L276.778 209.879ZM256 180.235C256 167.672 264.231 156.521 276.778 150.59L275.068 146.974C261.444 153.414 252 165.799 252 180.235H256ZM279.298 10.4707V140.851H283.298V10.4707H279.298ZM271.298 2.4707C275.716 2.4707 279.298 6.05242 279.298 10.4707H283.298C283.298 3.84329 277.925 -1.5293 271.298 -1.5293V2.4707ZM10.5957 2.4707H271.298V-1.5293H10.5957V2.4707ZM276.778 150.59C280.469 148.846 283.298 145.214 283.298 140.851H279.298C279.298 143.396 277.624 145.766 275.068 146.974L276.778 150.59ZM283.298 219.619C283.298 215.255 280.469 211.624 276.778 209.879L275.068 213.496C277.624 214.703 279.298 217.073 279.298 219.619H283.298Z" fill="#020A13" mask="url(#path-1-inside-1_109_1301)"/>
</g>
<defs>
<filter id="filter0_d_109_1301" x="0.595703" y="0.470703" width="284.702" height="369.529" filterUnits="userSpaceOnUse" color-interpolation-filters="sRGB">
<feFlood flood-opacity="0" result="BackgroundImageFix"/>
<feColorMatrix in="SourceAlpha" type="matrix" values="0 0 0 0 0 0 0 0 0 0 0 0 0 0 0 0 0 0 127 0" result="hardAlpha"/>
<feOffset dx="4" dy="10"/>
<feComposite in2="hardAlpha" operator="out"/>
<feColorMatrix type="matrix" values="0 0 0 0 0.00784314 0 0 0 0 0.0392157 0 0 0 0 0.0745098 0 0 0 1 0"/>
<feBlend mode="normal" in2="BackgroundImageFix" result="effect1_dropShadow_109_1301"/>
<feBlend mode="normal" in="SourceGraphic" in2="effect1_dropShadow_109_1301" result="shape"/>
</filter>
</defs>
</svg>
