<svg width="286" height="370" viewBox="0 0 286 370" fill="none" xmlns="http://www.w3.org/2000/svg">
<g filter="url(#filter0_d_109_1302)">
<mask id="path-1-inside-1_109_1302" fill="white">
<path fill-rule="evenodd" clip-rule="evenodd" d="M275.298 0.470703C280.821 0.470703 285.298 4.94786 285.298 10.4707V350C285.298 355.523 280.821 360 275.298 360H14.5957C9.07285 360 4.5957 355.523 4.5957 350V219.619C4.5957 216.164 6.84753 213.164 9.97049 211.687C23.0562 205.502 31.8936 193.734 31.8936 180.235C31.8936 166.735 23.0562 154.968 9.97049 148.782C6.84753 147.306 4.5957 144.305 4.5957 140.851V10.4707C4.5957 4.94786 9.07285 0.470703 14.5957 0.470703H275.298Z"/>
</mask>
<path fill-rule="evenodd" clip-rule="evenodd" d="M275.298 0.470703C280.821 0.470703 285.298 4.94786 285.298 10.4707V350C285.298 355.523 280.821 360 275.298 360H14.5957C9.07285 360 4.5957 355.523 4.5957 350V219.619C4.5957 216.164 6.84753 213.164 9.97049 211.687C23.0562 205.502 31.8936 193.734 31.8936 180.235C31.8936 166.735 23.0562 154.968 9.97049 148.782C6.84753 147.306 4.5957 144.305 4.5957 140.851V10.4707C4.5957 4.94786 9.07285 0.470703 14.5957 0.470703H275.298Z" fill="white"/>
<path d="M9.97049 148.782L10.8252 146.974L9.97049 148.782ZM9.97049 211.687L10.8252 213.496L9.97049 211.687ZM283.298 10.4707C283.298 6.05243 279.716 2.4707 275.298 2.4707V-1.5293C281.925 -1.5293 287.298 3.84329 287.298 10.4707H283.298ZM283.298 350V10.4707H287.298V350H283.298ZM275.298 358C279.716 358 283.298 354.418 283.298 350H287.298C287.298 356.627 281.925 362 275.298 362V358ZM14.5957 358H275.298V362H14.5957V358ZM6.5957 350C6.5957 354.418 10.1774 358 14.5957 358V362C7.96826 362 2.5957 356.627 2.5957 350H6.5957ZM6.5957 219.619V350H2.5957V219.619H6.5957ZM9.11575 209.879C21.6625 203.948 29.8936 192.798 29.8936 180.235H33.8936C33.8936 194.67 24.4498 207.055 10.8252 213.496L9.11575 209.879ZM29.8936 180.235C29.8936 167.672 21.6625 156.521 9.11575 150.59L10.8252 146.974C24.4498 153.414 33.8936 165.799 33.8936 180.235H29.8936ZM6.5957 10.4707V140.851H2.5957V10.4707H6.5957ZM14.5957 2.4707C10.1774 2.4707 6.5957 6.05242 6.5957 10.4707H2.5957C2.5957 3.84329 7.96826 -1.5293 14.5957 -1.5293V2.4707ZM275.298 2.4707H14.5957V-1.5293H275.298V2.4707ZM9.11575 150.59C5.42505 148.846 2.5957 145.214 2.5957 140.851H6.5957C6.5957 143.396 8.27002 145.766 10.8252 146.974L9.11575 150.59ZM2.5957 219.619C2.5957 215.255 5.42505 211.624 9.11575 209.879L10.8252 213.496C8.27002 214.703 6.5957 217.073 6.5957 219.619H2.5957Z" fill="#020A13" mask="url(#path-1-inside-1_109_1302)"/>
</g>
<defs>
<filter id="filter0_d_109_1302" x="0.595703" y="0.470703" width="284.702" height="369.529" filterUnits="userSpaceOnUse" color-interpolation-filters="sRGB">
<feFlood flood-opacity="0" result="BackgroundImageFix"/>
<feColorMatrix in="SourceAlpha" type="matrix" values="0 0 0 0 0 0 0 0 0 0 0 0 0 0 0 0 0 0 127 0" result="hardAlpha"/>
<feOffset dx="-4" dy="10"/>
<feComposite in2="hardAlpha" operator="out"/>
<feColorMatrix type="matrix" values="0 0 0 0 0.00784314 0 0 0 0 0.0392157 0 0 0 0 0.0745098 0 0 0 1 0"/>
<feBlend mode="normal" in2="BackgroundImageFix" result="effect1_dropShadow_109_1302"/>
<feBlend mode="normal" in="SourceGraphic" in2="effect1_dropShadow_109_1302" result="shape"/>
</filter>
</defs>
</svg>
