<svg width="17" height="15" viewBox="0 0 17 15" fill="none" xmlns="http://www.w3.org/2000/svg">
<path d="M1.43555 8.67188H13.2955L9.66555 13.0319C9.5815 13.133 9.51819 13.2497 9.47924 13.3753C9.44029 13.5008 9.42645 13.6329 9.43853 13.7638C9.46291 14.0282 9.59133 14.2721 9.79555 14.4419C9.99976 14.6116 10.263 14.6933 10.5275 14.6689C10.7919 14.6445 11.0358 14.5161 11.2055 14.3119L16.2055 8.31188C16.2392 8.26415 16.2693 8.21402 16.2955 8.16188C16.2955 8.11188 16.3455 8.08188 16.3655 8.03188C16.4109 7.91722 16.4346 7.79517 16.4355 7.67188C16.4346 7.54859 16.4109 7.42654 16.3655 7.31188C16.3655 7.26188 16.3155 7.23188 16.2955 7.18188C16.2693 7.12974 16.2392 7.0796 16.2055 7.03188L11.2055 1.03188C11.1115 0.918994 10.9938 0.828214 10.8607 0.765993C10.7276 0.703772 10.5825 0.671638 10.4355 0.671877C10.2019 0.67142 9.97546 0.752796 9.79555 0.901877C9.69429 0.985826 9.61059 1.08893 9.54923 1.20527C9.48788 1.32162 9.45009 1.44893 9.43801 1.57991C9.42593 1.71088 9.43982 1.84295 9.47886 1.96856C9.51791 2.09416 9.58134 2.21083 9.66555 2.31188L13.2955 6.67188H1.43555C1.17033 6.67188 0.915977 6.77723 0.72844 6.96477C0.540904 7.15231 0.435547 7.40666 0.435547 7.67188C0.435547 7.93709 0.540904 8.19145 0.72844 8.37898C0.915977 8.56652 1.17033 8.67188 1.43555 8.67188Z" fill="#020A13"/>
</svg>
