<svg width="401" height="210" viewBox="0 0 401 210" fill="none" xmlns="http://www.w3.org/2000/svg">
<path d="M4.00002 90.9999C-0.399976 66.9999 2.16669 29.6666 4.00002 13.9999C5.4435 -2.00019 20.0002 1.00003 47.0002 3.00003C74.0002 5.00003 188 9.49992 232.5 9.49992C277 9.49992 401.5 -7.50008 398 9.49992C394.5 26.4999 398 129.5 398 140.5C398 151.5 402 198.5 398 204.5C394 210.5 224 210.5 180 204.5C136 198.5 22.5002 212 9.50024 204.5C-3.49976 197 8.00024 172 4.00002 160.5C-0.000196218 149 9.50002 121 4.00002 90.9999Z" stroke="#020A13" stroke-width="2"/>
</svg>
