<svg width="24" height="25" viewBox="0 0 24 25" fill="none" xmlns="http://www.w3.org/2000/svg">
<g clip-path="url(#clip0_464_50)">
<path d="M8 13.8896C8.55228 13.8896 9 13.4419 9 12.8896C9 12.3374 8.55228 11.8896 8 11.8896C7.44772 11.8896 7 12.3374 7 12.8896C7 13.4419 7.44772 13.8896 8 13.8896Z" fill="#FFFCEF"/>
<path d="M12 13.8896C12.5523 13.8896 13 13.4419 13 12.8896C13 12.3374 12.5523 11.8896 12 11.8896C11.4477 11.8896 11 12.3374 11 12.8896C11 13.4419 11.4477 13.8896 12 13.8896Z" fill="#FFFCEF"/>
<path d="M16 13.8896C16.5523 13.8896 17 13.4419 17 12.8896C17 12.3374 16.5523 11.8896 16 11.8896C15.4477 11.8896 15 12.3374 15 12.8896C15 13.4419 15.4477 13.8896 16 13.8896Z" fill="#FFFCEF"/>
<path d="M8 17.8896C8.55228 17.8896 9 17.4419 9 16.8896C9 16.3374 8.55228 15.8896 8 15.8896C7.44772 15.8896 7 16.3374 7 16.8896C7 17.4419 7.44772 17.8896 8 17.8896Z" fill="#FFFCEF"/>
<path d="M12 17.8896C12.5523 17.8896 13 17.4419 13 16.8896C13 16.3374 12.5523 15.8896 12 15.8896C11.4477 15.8896 11 16.3374 11 16.8896C11 17.4419 11.4477 17.8896 12 17.8896Z" fill="#FFFCEF"/>
<path d="M16 17.8896C16.5523 17.8896 17 17.4419 17 16.8896C17 16.3374 16.5523 15.8896 16 15.8896C15.4477 15.8896 15 16.3374 15 16.8896C15 17.4419 15.4477 17.8896 16 17.8896Z" fill="#FFFCEF"/>
<path d="M4 22.8896H20C21.1 22.8896 22 21.9896 22 20.8896V6.88965C22 5.78965 21.1 4.88965 20 4.88965H17V2.88965H15V4.88965H9V2.88965H7V4.88965H4C2.9 4.88965 2 5.78965 2 6.88965V20.8896C2 21.9896 2.9 22.8896 4 22.8896ZM4 6.88965H7V8.88965H9V6.88965H15V8.88965H17V6.88965H20V20.8896H4V6.88965Z" fill="#FFFCEF"/>
</g>
<defs>
<clipPath id="clip0_464_50">
<rect width="24" height="24" fill="white" transform="translate(0 0.889648)"/>
</clipPath>
</defs>
</svg>
