<svg width="23" height="21" viewBox="0 0 23 21" fill="none" xmlns="http://www.w3.org/2000/svg">
<g clip-path="url(#clip0)">
<path d="M20.9666 0.567568C20.4757 1.20608 20.1251 1.91554 19.494 2.41216C16.1281 4.96622 12.6922 7.37838 9.32631 9.86149C7.15253 11.4223 4.97875 12.9831 2.80497 14.5439C2.31412 14.8986 1.82326 15.2534 1.26229 15.3953C0.911677 15.4662 0.420823 15.2534 0.0702133 14.9696C-0.0700306 14.8986 0.140335 14.1892 0.420823 13.9764C1.68302 12.9122 2.94521 11.9189 4.27753 10.9257C9.25619 7.44932 14.2348 3.97297 19.2135 0.496622C19.5641 0.283784 20.055 0.141892 20.4056 0C20.6159 0.212838 20.7562 0.35473 20.9666 0.567568Z" fill="black"/>
<path d="M23 12.9831C23 13.1959 23 13.2669 22.9299 13.2669C21.247 15.8209 19.6341 18.375 17.8811 20.8581C17.7409 21.0709 16.8994 20.8581 16.4787 20.6453C16.3384 20.5743 16.2683 19.8649 16.4085 19.5811C17.9512 17.3108 19.4939 15.0405 21.1768 12.8412C21.3872 12.4865 22.0884 12.4865 22.5793 12.4155C22.7195 12.4155 22.9299 12.8412 23 12.9831Z" fill="black"/>
</g>
<defs>
<clipPath id="clip0">
<rect width="23" height="21" fill="white"/>
</clipPath>
</defs>
</svg>
