<svg width="33" height="28" viewBox="0 0 33 28" fill="none" xmlns="http://www.w3.org/2000/svg">
<g clip-path="url(#clip0)">
<path d="M19.0552 5.50043C17.3235 7.18903 15.8667 8.64427 14.3413 9.97585C10.8919 12.941 7.41507 16.0023 4.06186 18.9949C3.91067 19.1597 3.73197 19.4206 3.51217 19.4616C2.70158 19.7497 1.94605 19.8454 1.13547 20.1334C1.25952 19.3368 1.15021 18.2653 1.60376 17.7711C3.29433 15.8627 5.08103 13.9818 6.93634 12.2246C9.60262 9.45133 12.3375 6.80174 15.2372 4.30334C15.8144 3.74047 17.1192 3.90601 18.012 4.05758C18.4241 4.07154 18.6846 4.97826 19.0552 5.50043Z" fill="black"/>
<path d="M21.0778 24.5947C18.9628 23.9892 18.5926 22.739 20.118 21.4074C22.3443 19.4443 24.7353 17.6325 27.195 15.9443C27.6897 15.6698 28.6235 16.0412 29.3515 16.0416C29.255 16.7421 29.4604 17.841 29.0344 18.2392C27.7288 19.5297 26.2859 20.5728 24.8156 21.7121C24.2934 22.0827 23.5239 22.5905 23.4824 23.0987C23.4126 25.1591 22.3687 25.1723 21.0778 24.5947Z" fill="black"/>
</g>
<defs>
<clipPath id="clip0">
<rect width="26.8" height="20.1" fill="white" transform="translate(6.2832 0.699707) rotate(15.9762)"/>
</clipPath>
</defs>
</svg>
