<svg width="26" height="26" viewBox="0 0 26 26" fill="none" xmlns="http://www.w3.org/2000/svg">
<circle r="12" transform="matrix(1 0 0 -1 13 13)" stroke="#091929" stroke-width="2"/>
<path d="M12.5898 8.07812H13.4102C13.4831 8.07812 13.5195 8.11458 13.5195 8.1875V17.8125C13.5195 17.8854 13.4831 17.9219 13.4102 17.9219H12.5898C12.5169 17.9219 12.4805 17.8854 12.4805 17.8125V8.1875C12.4805 8.11458 12.5169 8.07812 12.5898 8.07812Z" fill="black"/>
<path d="M8.40625 12.4805H17.5938C17.6667 12.4805 17.7031 12.5169 17.7031 12.5898V13.4102C17.7031 13.4831 17.6667 13.5195 17.5938 13.5195H8.40625C8.33333 13.5195 8.29688 13.4831 8.29688 13.4102V12.5898C8.29688 12.5169 8.33333 12.4805 8.40625 12.4805Z" fill="black"/>
</svg>
