<svg width="19" height="19" viewBox="0 0 19 19" fill="none" xmlns="http://www.w3.org/2000/svg">
<g clip-path="url(#clip0)">
<path d="M17.9613 0.660292C17.8062 0.676963 17.6613 0.745512 17.5501 0.85483L14.3267 4.07891C12.8009 2.97675 10.6845 3.17475 9.26385 4.53306C9.26385 4.58568 8.67193 5.16306 8.13955 5.67952L7.46801 5.00868C7.38566 4.92352 7.28285 4.86092 7.16939 4.82686C7.05594 4.7928 6.93564 4.78842 6.82001 4.81414C6.69331 4.83707 6.57552 4.89487 6.47987 4.98106C6.38422 5.06724 6.3145 5.17839 6.27854 5.30202C6.24258 5.42565 6.24181 5.55686 6.27631 5.6809C6.31081 5.80495 6.37922 5.91691 6.47385 6.00422L13.3969 12.9273C13.4623 12.9927 13.5399 13.0445 13.6253 13.0799C13.7107 13.1153 13.8023 13.1335 13.8947 13.1335C13.9871 13.1335 14.0787 13.1153 14.1641 13.0799C14.2495 13.0445 14.3271 12.9927 14.3925 12.9273C14.4578 12.8619 14.5097 12.7843 14.5451 12.6989C14.5804 12.6135 14.5987 12.522 14.5987 12.4295C14.5987 12.3371 14.5804 12.2455 14.5451 12.1601C14.5097 12.0747 14.4578 11.9971 14.3925 11.9318L13.7216 11.2616L14.8681 10.1359C16.225 8.77899 16.3628 6.66952 15.3008 5.09591L18.5463 1.85037C18.6554 1.74905 18.7289 1.61529 18.7559 1.46892C18.7829 1.32255 18.7621 1.17136 18.6964 1.03778C18.6307 0.904197 18.5238 0.795336 18.3913 0.727339C18.2589 0.659342 18.1081 0.635831 17.9613 0.660292ZM5.52124 6.17729C5.49196 6.18258 5.46306 6.18975 5.4347 6.19875C5.30801 6.22168 5.19022 6.27949 5.09456 6.36567C4.99891 6.45186 4.92919 6.56301 4.89323 6.68664C4.85727 6.81027 4.8565 6.94147 4.891 7.06552C4.92551 7.18956 4.99392 7.30153 5.08855 7.38883L5.75939 8.05968L4.61293 9.18398C3.25601 10.5409 3.11824 12.6511 4.18024 14.2254L0.934009 17.4695C0.801808 17.6017 0.727539 17.781 0.727539 17.968C0.727539 18.1549 0.801808 18.3342 0.934009 18.4664C1.06621 18.5986 1.24551 18.6729 1.43247 18.6729C1.61943 18.6729 1.79873 18.5986 1.93093 18.4664L5.15432 15.2424C6.68016 16.3445 8.79655 16.1465 10.2172 14.7882C10.2172 14.7356 10.8091 14.1582 11.3415 13.6418L12.013 14.3126C12.0784 14.3779 12.156 14.4297 12.2414 14.4651C12.3268 14.5004 12.4183 14.5186 12.5107 14.5185C12.6031 14.5185 12.6946 14.5003 12.78 14.4649C12.8653 14.4295 12.9429 14.3776 13.0082 14.3123C13.0735 14.2469 13.1253 14.1693 13.1607 14.0839C13.196 13.9985 13.2142 13.907 13.2141 13.8146C13.2141 13.7222 13.1959 13.6307 13.1605 13.5453C13.1251 13.4599 13.0732 13.3824 13.0079 13.3171L6.08478 6.39398C6.01332 6.31787 5.92557 6.25891 5.8281 6.2215C5.73063 6.1841 5.62596 6.16922 5.52193 6.17798L5.52124 6.17729Z" fill="black"/>
</g>
<defs>
<clipPath id="clip0">
<rect width="18" height="18" fill="white" transform="translate(0.740234 0.660156)"/>
</clipPath>
</defs>
</svg>
