<svg width="19" height="19" viewBox="0 0 19 19" fill="none" xmlns="http://www.w3.org/2000/svg">
<path d="M14.6953 11.4168L14.6953 11.3868C14.6953 10.7793 14.0053 10.4193 13.5103 10.7793L9.44531 13.6743L5.38031 10.7718C4.88531 10.4193 4.19531 10.7718 4.19531 11.3793L4.19531 11.4093C4.19531 11.6493 4.31531 11.8818 4.51031 12.0168L9.01031 15.2343C9.1369 15.3258 9.28912 15.3751 9.44531 15.3751C9.60151 15.3751 9.75373 15.3258 9.88031 15.2343L14.3803 12.0168C14.4772 11.9496 14.5565 11.8599 14.6113 11.7554C14.6662 11.651 14.695 11.5348 14.6953 11.4168Z" fill="black"/>
<path d="M14.6953 6.91682L14.6953 6.87932C14.6953 6.27182 14.0053 5.91932 13.5103 6.27182L9.44531 9.17432L5.38031 6.27182C4.88531 5.91932 4.19531 6.27182 4.19531 6.87932L4.19531 6.90932C4.19531 7.14932 4.31531 7.38182 4.51031 7.51682L9.01031 10.7343C9.1369 10.8258 9.28912 10.8751 9.44531 10.8751C9.60151 10.8751 9.75373 10.8258 9.88031 10.7343L14.3803 7.51682C14.4772 7.44956 14.5565 7.35988 14.6113 7.25542C14.6662 7.15096 14.695 7.0348 14.6953 6.91682Z" fill="black"/>
</svg>
