<svg width="18" height="15" viewBox="0 0 18 15" fill="none" xmlns="http://www.w3.org/2000/svg">
<path d="M14.3333 9.91789L16 11.5846L12.831 14.7536C12.7213 14.6439 12.6593 14.4954 12.6585 14.3402C12.6578 14.1851 12.7183 14.0359 12.827 13.9252L12.8263 13.9242C12.5963 14.1496 12.2263 14.1486 11.998 13.9199C11.89 13.8118 11.8284 13.6659 11.8261 13.5132C11.8239 13.3604 11.8812 13.2128 11.986 13.1016L11.9833 13.0989C11.752 13.3156 11.39 13.3122 11.1647 13.0869L14.3333 9.91789ZM16.862 9.77989L16.138 9.05589C16.0129 8.93099 15.8434 8.86084 15.6667 8.86084C15.4899 8.86084 15.3204 8.93099 15.1953 9.05589L14.6667 9.58456L16.3333 11.2512L16.862 10.7226C17.122 10.4626 17.122 10.0402 16.862 9.77989ZM11 13.9179V14.9179H12C12 14.6527 11.8946 14.3983 11.7071 14.2108C11.5196 14.0233 11.2652 13.9179 11 13.9179Z" fill="#020A13"/>
<path fill-rule="evenodd" clip-rule="evenodd" d="M0 2C0 0.895426 0.89543 0 2 0H12C13.1046 0 14 0.895426 14 2V5C14 10.5228 9.52285 15 4 15H2C0.89543 15 0 14.1046 0 13V2ZM4.25 4.625C4.25 4.34886 4.47386 4.125 4.75 4.125H8.75C9.02614 4.125 9.25 4.34886 9.25 4.625C9.25 4.90115 9.02614 5.125 8.75 5.125H4.75C4.47386 5.125 4.25 4.90115 4.25 4.625ZM4.75 5.75C4.47386 5.75 4.25 5.97386 4.25 6.25C4.25 6.52615 4.47386 6.75 4.75 6.75H8.25C8.52614 6.75 8.75 6.52615 8.75 6.25C8.75 5.97386 8.52614 5.75 8.25 5.75H4.75Z" fill="#020A13"/>
</svg>
