<svg width="19" height="19" viewBox="0 0 19 19" fill="none" xmlns="http://www.w3.org/2000/svg">
<path d="M11.167 17.4243V10.6743L16.902 4.92432C16.9872 4.83908 17.0546 4.73768 17.1001 4.62606C17.1456 4.51444 17.1683 4.39485 17.167 4.27432V3.42432C17.167 3.29171 17.1143 3.16453 17.0205 3.07076C16.9268 2.97699 16.7996 2.92432 16.667 2.92432H1.66699C1.53438 2.92432 1.40721 2.97699 1.31344 3.07076C1.21967 3.16453 1.16699 3.29171 1.16699 3.42432V4.25932C1.16709 4.37741 1.19055 4.49432 1.23603 4.6033C1.28151 4.71228 1.34811 4.81119 1.43199 4.89432L7.16699 10.7143V15.8143L11.167 17.4243Z" fill="black"/>
<path d="M16.907 2.92432H1.40701C1.34157 2.92936 1.28047 2.95897 1.23596 3.00719C1.19144 3.05542 1.16681 3.11869 1.16701 3.18432V4.04432C1.16641 4.13246 1.18334 4.21985 1.21681 4.3014C1.25029 4.38294 1.29964 4.45702 1.36201 4.51932L7.36201 10.5193V15.5193L10.987 17.3243V10.5093L16.987 4.50932C17.1018 4.3855 17.166 4.22316 17.167 4.05432V3.18432C17.167 3.11536 17.1396 3.04923 17.0909 3.00047C17.0421 2.95171 16.976 2.92432 16.907 2.92432Z" fill="black"/>
</svg>
