<svg width="329" height="326" viewBox="0 0 329 326" fill="none" xmlns="http://www.w3.org/2000/svg">
<path d="M297.478 110.268C297.864 110.567 298.964 111.217 300.274 111.424C301.911 111.683 303.082 111.7 304.12 112.829C305.158 113.958 305.972 114.38 307.019 114.923C307.856 115.358 308.847 115.478 309.238 115.484" stroke="#020A13" stroke-width="2" stroke-linecap="round"/>
<path d="M293.38 113.899C294.256 114.108 296.299 114.705 297.46 115.425C298.911 116.326 300.707 117.701 301.638 118.183C302.568 118.666 303.275 118.442 304.554 119.106C305.578 119.637 308.051 120.428 309.159 120.757" stroke="#020A13" stroke-width="2" stroke-linecap="round"/>
<path d="M293.203 117.94C293.746 118.222 295.157 118.954 296.459 119.63C298.088 120.474 298.902 120.897 300.646 121.802C302.391 122.707 303.67 123.371 304.837 123.681" stroke="#020A13" stroke-width="2" stroke-linecap="round"/>
<path d="M291.866 105.721C291.748 105.797 291.624 105.881 291.495 105.971M291.495 105.971C290.657 106.56 289.645 107.442 289.07 108.551C288.406 109.83 287.884 113.397 287.22 114.676C286.556 115.956 286.81 118.596 287.551 120.014C288.291 121.432 289.097 122.44 289.725 123.504C290.354 124.568 290.155 126.089 292.016 127.054C293.877 128.02 294.174 127.731 294.924 128.563C295.673 129.395 298.925 131.377 301.863 130.835C304.802 130.293 309.356 127.489 310.928 128.158C312.5 128.826 316.188 129.115 316.946 129.361C317.704 129.607 318.523 129.736 318.006 129.025C317.489 128.314 314.802 123.82 314.996 122.593C315.19 121.365 318.212 115.257 316.27 111.887C314.328 108.518 314.229 107.286 311.795 105.433C309.362 103.58 308.617 102.455 306.924 102.02C305.231 101.584 303.723 100.507 302.607 100.666C301.492 100.825 297.683 100.768 295.43 102.551C293.176 104.334 292.244 105.769 291.495 105.971Z" stroke="#020A13" stroke-width="2"/>
<path d="M138.56 155.772C138.464 156.302 138.984 156.762 139.257 156.926C139.586 156.986 139.925 156.363 140.126 155.259L141.091 149.96C141.353 148.524 142.299 148.925 143.505 149.144C144.711 149.364 148.808 149.882 151.22 150.321L162.073 152.297C165.691 152.955 166.349 153.075 168.392 153.675C170.435 154.275 170.994 153.693 171.491 154.696C171.988 155.699 171.109 156.794 170.808 158.45C170.506 160.106 170.714 160.828 170.473 162.153C170.232 163.478 169.888 166.609 169.667 167.824C169.446 169.038 168.498 169.892 167.551 169.492C166.605 169.091 163.056 168.673 160.535 168.214C158.013 167.755 156.219 167.656 152.491 166.978C148.764 166.299 147.638 165.638 145.953 165.559C144.269 165.481 146.35 167.114 147.625 167.575C148.901 168.035 153.326 168.613 155.121 168.711C156.915 168.81 159.356 169.71 161.439 170.09C163.522 170.469 168.037 171.177 169.413 171.085C170.789 170.994 171.602 167.149 171.595 165.323C171.588 163.497 172.368 161.699 172.24 160.535C172.112 159.372 173.132 157.504 173.245 155.015C173.358 152.526 170.886 152.418 170.667 152.379C170.448 152.339 167.667 152.06 166.61 151.64C165.554 151.22 163.59 151.432 161.966 151.023C160.341 150.613 158.059 150.083 155.757 149.664C153.454 149.245 144.534 147.849 142.71 147.289C140.887 146.728 140.187 148.084 139.997 148.506C139.807 148.927 138.681 155.11 138.56 155.772Z" fill="#020A13"/>
<path d="M160.933 159.178C160.693 158.331 161.723 157.544 162.268 157.257C162.485 157.117 163.095 156.867 163.794 156.994C164.669 157.154 165.487 158.075 165.521 159.24C165.555 160.406 164.279 161.101 163.84 161.253C163.402 161.405 162.541 161.171 162.012 160.92C161.483 160.669 161.233 160.237 160.933 159.178Z" fill="#020A13"/>
<path d="M164.483 162.683C163.924 162.149 163.042 161.88 162.671 161.812C161.16 161.537 159.925 162.008 159.257 162.968C158.589 163.928 159.966 164.488 160.827 164.722C161.688 164.956 162.748 164.995 163.782 165.183C164.815 165.371 165.188 165.13 165.349 164.696C165.51 164.261 165.183 163.352 164.483 162.683Z" fill="#020A13"/>
<path fill-rule="evenodd" clip-rule="evenodd" d="M142.998 154.755C144.172 154.931 146.756 155.349 147.703 155.612C148.465 155.823 149.108 155.919 149.848 156.03C150.258 156.091 150.698 156.157 151.204 156.249L154.268 156.807C154.924 156.927 155.899 156.539 155.263 156.31C155.017 156.221 154.689 156.118 154.312 155.999C153.714 155.811 152.993 155.583 152.279 155.314C151.115 154.877 150.787 154.817 149.434 154.797C148.081 154.776 147.753 154.717 146.549 154.497C146.131 154.421 145.69 154.314 145.269 154.211L145.269 154.211C144.48 154.018 143.759 153.842 143.376 153.92C142.789 154.039 141.944 154.337 142.998 154.755ZM142.5 157.491C142.925 157.643 144.167 158.02 145.743 158.307L150.229 159.124L153.949 159.801C154.605 159.921 155.143 159.453 154.745 159.155C154.572 159.025 154.361 158.995 154.021 158.946C153.576 158.882 152.913 158.787 151.83 158.398C150.618 157.962 150.003 157.999 149.435 158.034C149.109 158.053 148.798 158.072 148.399 157.999C148.083 157.942 147.606 157.836 147.065 157.716C145.734 157.421 144.016 157.041 143.366 157.083C143.072 157.102 142.775 157.074 142.54 157.052C142.044 157.005 141.825 156.984 142.5 157.491ZM146.08 161.421C145.424 161.238 145.169 161.017 145.096 160.852C145.439 160.713 147.457 160.767 148.865 161.023C149.646 161.165 149.982 161.168 150.312 161.171C150.63 161.173 150.943 161.175 151.641 161.303C153.063 161.562 154.446 162.039 154.714 162.427C154.983 162.815 153.759 162.706 152.993 162.566C152.759 162.524 152.436 162.507 152.061 162.488C151.209 162.444 150.09 162.386 149.144 161.978C148.353 161.638 147.847 161.615 147.331 161.592C146.957 161.575 146.577 161.559 146.08 161.421ZM139.466 158.634C138.17 158.511 135.272 158.571 134.054 159.796C132.532 161.328 131.318 163.028 131.199 163.685C131.079 164.341 130.82 165.764 131.118 166.609C131.417 167.455 132.053 168.927 133.047 169.674C133.118 169.727 133.189 169.78 133.259 169.833L133.26 169.834L133.26 169.834L133.26 169.834C134.171 170.522 135.021 171.163 136.24 171.385C136.404 171.415 136.568 171.449 136.732 171.482C137.874 171.715 139.007 171.945 140.269 170.988C140.374 170.909 140.481 170.828 140.589 170.747C141.969 169.709 143.572 168.503 144.209 166.732C144.896 164.822 144.24 162.216 143.086 161.102C142.852 160.875 142.648 160.659 142.455 160.454L142.455 160.454C141.699 159.651 141.107 159.023 139.466 158.634ZM135.819 164.985C135.547 164.822 134.948 164.555 134.725 164.785C134.644 164.87 134.559 164.915 134.49 164.952C134.321 165.043 134.237 165.088 134.476 165.531C134.744 166.028 135.105 166.399 135.432 166.735C135.518 166.823 135.601 166.909 135.68 166.994C135.847 167.174 135.95 167.343 136.039 167.49C136.152 167.675 136.244 167.825 136.415 167.919C136.465 167.946 136.514 167.979 136.563 168.012C136.818 168.185 137.085 168.366 137.569 167.79C137.717 167.615 137.82 167.483 137.901 167.378C138.139 167.073 138.197 166.997 138.664 166.746C138.777 166.685 138.874 166.635 138.958 166.592C139.337 166.398 139.458 166.336 139.718 165.92C139.837 165.731 139.881 165.607 139.917 165.507C139.976 165.339 140.011 165.24 140.335 165.015C140.853 164.657 142.076 163.524 141.917 163.156C141.9 163.115 141.884 163.073 141.868 163.032C141.742 162.702 141.636 162.426 140.893 163.195C140.348 163.759 139.553 164.374 138.953 164.839C138.633 165.086 138.368 165.291 138.226 165.423C137.819 165.801 137.062 166.228 136.734 166.168C136.583 166.141 136.488 165.938 136.378 165.703C136.25 165.428 136.101 165.111 135.819 164.985Z" fill="#020A13"/>
<g opacity="0.8">
<path d="M85.1374 19.4913C87.2112 20.1383 90.7901 21.789 91.2071 21.9747C92.5751 22.5839 93.3955 23.048 94.0681 23.0694C94.7407 23.0908 95.6331 24.2688 97.2058 23.4978C97.8471 23.1834 99.0333 21.2477 99.3118 20.0888C99.5904 18.9299 100.588 18.6788 101.092 17.1986C101.596 15.7184 102.525 13.7681 102.427 13.4731" stroke="#020A13" stroke-width="2"/>
<path d="M84.8227 20.8978C84.3152 19.1783 84.9223 18.7845 85.2892 18.8026C85.7824 18.5334 86.4143 18.6799 87.8381 18.2046L92.0345 16.8035C93.5332 16.3032 92.7828 16.3007 94.1317 15.8504C95.4805 15.4001 95.7053 15.325 97.4299 15.0022C99.1545 14.6794 101.473 12.8933 102.375 13.0984C103.276 13.3034 103.856 14.5431 104.344 17.5004C104.832 20.4576 106.617 22.8128 106.896 23.6474C107.175 24.4819 104.901 25.1566 103.777 25.5319L97.6324 27.5834L91.6375 29.5848C90.5135 29.9601 90.1378 29.8326 89.6143 30.2603C89.0908 30.6881 88.6897 30.4847 87.9889 30.3814C87.2881 30.278 87.0264 27.4984 86.7446 25.9059C86.4628 24.3135 85.457 23.0471 84.8227 20.8978Z" stroke="#020A13" stroke-width="2"/>
<path d="M93.0249 23.0454C92.975 23.3112 92.7155 24.0622 92.0769 24.9399C91.2786 26.037 90.58 26.6854 90.131 27.3337C89.6819 27.9819 89.0333 28.7799 88.8587 29.5026C88.719 30.0808 88.418 30.4249 88.2849 30.5247" stroke="#020A13" stroke-width="2"/>
<path d="M98.813 21.1124C99.0046 21.2863 99.6371 21.7093 100.635 22.0105C101.882 22.3869 102.794 22.4788 103.513 22.7143C104.233 22.9498 105.192 23.1844 105.743 23.6347C106.184 23.995 106.614 24.0839 106.774 24.0834" stroke="#020A13" stroke-width="2"/>
</g>
<rect x="97.5325" y="10.3232" width="7.36567" height="7.36567" rx="3.68284" transform="rotate(-19.2391 97.5325 10.3232)" fill="#16DB93"/>
<rect x="46.8727" y="108" width="14.9734" height="14.9734" rx="7.48668" transform="rotate(27.3139 46.8727 108)" fill="#16DB93"/>
<path d="M24.2763 256.143C24.2366 256.381 24.1969 256.618 24.1176 256.856C24.1969 256.698 24.0779 256.935 24.0382 256.975C23.9986 257.093 23.9192 257.173 23.8399 257.291C23.9589 257.133 23.5622 257.569 23.6019 257.529C23.6812 257.45 23.4036 257.648 23.4036 257.648C23.3639 257.687 23.0069 257.806 23.2052 257.727C22.4912 258.004 22.0152 258.677 22.2135 259.469C22.4119 260.142 23.2449 260.736 23.9589 260.459C25.506 259.904 26.7753 258.598 27.0133 256.896C27.1323 256.143 26.815 255.391 26.0216 255.154C25.3473 254.956 24.3953 255.391 24.2763 256.143Z" fill="#020A13"/>
<path d="M34.4717 253.57C34.4717 253.016 36.0981 252.501 36.5344 252.303C37.4865 251.908 38.4385 251.551 39.3905 251.195C41.0963 250.601 40.3822 247.869 38.6368 248.463C37.0501 249.018 35.4634 249.611 33.956 250.364C32.647 250.997 31.6156 251.987 31.6553 253.531C31.6949 255.391 34.551 255.391 34.4717 253.57Z" fill="#020A13"/>
<path d="M47.6812 248.78C48.0382 247.157 47.9589 245.455 47.3242 243.911C47.0465 243.198 46.3722 242.723 45.5788 242.921C44.9045 243.119 44.3095 243.95 44.5871 244.663C45.0632 245.772 45.2218 246.88 44.9441 248.028C44.5475 249.81 47.2846 250.562 47.6812 248.78Z" fill="#020A13"/>
<path d="M52.8771 249.572C54.5828 248.938 56.3282 248.661 58.1529 248.82C59.9776 248.938 59.9776 246.127 58.1529 246.009C56.0902 245.85 54.0671 246.167 52.1234 246.88C50.4177 247.473 51.1317 250.205 52.8771 249.572Z" fill="#020A13"/>
<path d="M63.9454 252.62C65.8098 251.235 66.9205 249.057 66.6429 246.722C66.5635 245.969 66.0478 245.296 65.2148 245.296C64.5405 245.296 63.7074 245.93 63.7868 246.722C63.9454 248.028 63.5884 249.374 62.4777 250.166C61.843 250.641 61.5654 251.393 61.962 252.106C62.3587 252.739 63.3504 253.095 63.9454 252.62Z" fill="#020A13"/>
<path d="M67.8721 255.906C69.7762 256.54 71.6802 256.896 73.7033 256.975C75.528 257.055 75.528 254.244 73.7033 254.165C71.9579 254.085 70.2918 253.729 68.6258 253.175C66.8804 252.621 66.1664 255.352 67.8721 255.906Z" fill="#020A13"/>
<path d="M72.6316 250.958C72.9489 250.324 73.6233 248.582 74.615 248.741C75.3686 248.859 76.1223 248.543 76.3603 247.751C76.5587 247.078 76.1223 246.128 75.3686 246.009C72.7902 245.613 71.2432 247.434 70.2118 249.532C69.3788 251.195 71.8382 252.62 72.6316 250.958Z" fill="#020A13"/>
<path d="M70.45 244.98C70.8467 243.04 69.9344 240.902 68.07 240.071C67.3559 239.754 66.5626 239.873 66.1262 240.585C65.7692 241.179 65.9279 242.208 66.6419 242.525C67.3956 242.842 67.8716 243.515 67.7129 244.227C67.5543 244.98 67.9113 245.732 68.7046 245.969C69.379 246.167 70.2914 245.732 70.45 244.98Z" fill="#020A13"/>
<path d="M76.7587 242.723C76.7191 242.248 76.6397 241.654 76.8381 241.219C76.9571 240.981 77.0761 240.942 77.1554 240.942C78.9008 241.417 79.6545 238.725 77.9091 238.21C76.7191 237.893 75.4894 238.368 74.696 239.318C73.9423 240.269 73.7837 241.535 73.9027 242.723C73.982 243.475 74.4977 244.148 75.3307 244.148C76.0844 244.148 76.8381 243.515 76.7587 242.723Z" fill="#020A13"/>
<path d="M80.8434 241.971C81.0814 243.08 80.407 244.346 79.217 244.505C78.4633 244.623 77.7889 245.099 77.7889 245.93C77.7889 246.603 78.4236 247.434 79.217 247.355C82.2714 246.959 84.2548 244.346 83.5804 241.258C83.1838 239.437 80.4467 240.19 80.8434 241.971Z" fill="#020A13"/>
<path d="M84.5723 249.968C85.088 250.562 85.683 251.037 86.278 251.551C86.7144 251.947 87.3887 252.502 87.2697 253.175C86.8731 254.956 89.5705 255.708 90.0068 253.927C90.3242 252.62 89.9275 251.433 89.1341 250.403C88.4201 249.493 87.3887 248.899 86.635 247.988C85.4053 246.603 83.4219 248.582 84.5723 249.968Z" fill="#020A13"/>
<path d="M79.6927 251.472C79.7323 251.512 79.891 251.591 79.9307 251.591C79.9307 251.591 80.4067 251.076 80.4067 251.037C80.4067 251.076 80.0893 251.076 80.01 251.076C79.2166 251.156 78.463 251.235 77.6696 251.354C76.9159 251.433 76.2415 251.947 76.2415 252.779C76.2415 253.491 76.8762 254.283 77.6696 254.204C78.5026 254.125 79.296 254.006 80.129 253.927C80.962 253.848 81.7951 253.729 82.3107 253.016C83.3024 251.71 82.4694 249.691 81.081 249.057C80.367 248.741 79.5737 248.859 79.1373 249.572C78.82 250.166 78.9786 251.156 79.6927 251.472Z" fill="#020A13"/>
<path d="M83.6987 257.688C84.0557 258.163 84.3731 258.638 84.5714 259.192C84.6904 259.469 84.7698 259.707 84.8094 259.984C84.8491 260.063 84.8491 260.182 84.8888 260.261C84.8888 260.538 84.8888 260.578 84.8888 260.419C83.9764 262.003 86.4358 263.428 87.3482 261.845C88.3399 260.103 87.2689 257.688 86.1581 256.263C85.6821 255.669 84.9284 255.352 84.2144 255.748C83.6194 256.104 83.2227 257.054 83.6987 257.688Z" fill="#020A13"/>
<path d="M90.4822 257.371C91.0375 259.033 91.9499 260.538 93.2193 261.765C94.5283 263.032 96.5514 261.013 95.2027 259.786C94.2903 258.915 93.5763 257.885 93.1796 256.658C92.6242 254.877 89.8871 255.629 90.4822 257.371Z" fill="#020A13"/>
<path d="M94.529 266.872C94.648 267.743 94.6876 268.614 94.6876 269.485C94.6876 270 94.767 270.752 94.3703 271.148C93.1803 272.494 95.1637 274.513 96.3537 273.127C98.0197 271.267 97.5437 268.377 97.2264 266.08C97.1074 265.328 96.1554 264.932 95.481 265.091C94.6876 265.368 94.41 266.12 94.529 266.872Z" fill="#020A13"/>
<path d="M88.3412 263.745C88.6188 264.18 88.6585 264.576 88.5395 265.051C88.3412 265.804 88.7775 266.595 89.5312 266.793C90.2452 266.991 91.0783 266.556 91.2766 265.804C91.5543 264.616 91.3956 263.389 90.8006 262.32C89.8485 260.776 87.4288 262.201 88.3412 263.745Z" fill="#020A13"/>
<path d="M89.848 270.395C88.896 272.533 88.9753 274.948 90.3637 276.888C91.3951 278.353 93.8545 276.927 92.8231 275.463C92.0694 274.394 91.7521 273.087 92.3074 271.82C93.0215 270.197 90.6017 268.772 89.848 270.395Z" fill="#020A13"/>
<path d="M96.2342 275.898C96.0358 276.73 95.8375 277.561 95.5995 278.392C95.4805 278.788 95.3615 279.144 95.2425 279.54C95.2028 279.699 95.1235 279.857 95.0838 280.015C94.9251 280.213 94.9648 280.253 95.2425 280.134C93.4574 279.699 92.7037 282.43 94.4888 282.866C97.8209 283.697 98.4556 278.907 98.9713 276.65C99.3679 274.909 96.6308 274.117 96.2342 275.898Z" fill="#020A13"/>
<path d="M83.6194 266.634C83.6987 268.257 83.7384 269.841 83.6987 271.464C83.6194 273.285 86.4754 273.285 86.5151 271.464C86.5548 269.841 86.5548 268.257 86.4358 266.634C86.3564 264.813 83.54 264.813 83.6194 266.634Z" fill="#020A13"/>
<path d="M78.1855 258.717C77.9872 258.756 78.3839 258.717 78.4235 258.717C78.2252 258.717 78.5822 258.756 78.4632 258.717C78.3442 258.677 78.7012 258.796 78.4632 258.717C78.5425 258.835 78.5822 258.835 78.5029 258.756C78.4235 258.677 78.4632 258.717 78.5425 258.835C78.5425 258.796 78.5029 258.756 78.5029 258.717C78.5425 258.796 78.5425 258.835 78.5822 258.915C78.6219 259.033 78.6219 259.113 78.6615 259.231C78.7409 259.627 78.6615 258.994 78.7012 259.39C78.7012 259.508 78.7012 259.667 78.7409 259.786C78.7805 260.538 79.3756 261.211 80.1689 261.211C80.9226 261.211 81.6366 260.577 81.597 259.786C81.5573 258.756 81.3986 257.727 80.7243 256.896C79.9309 255.946 78.7012 255.787 77.5508 255.985C76.7971 256.143 76.3608 257.014 76.5591 257.727C76.6781 258.519 77.4318 258.835 78.1855 258.717Z" fill="#020A13"/>
<path d="M71.3224 261.409C72.1158 262.241 72.1951 263.468 72.3141 264.537C72.3935 265.289 72.9091 265.962 73.7422 265.962C74.4562 265.962 75.2099 265.328 75.1702 264.537C75.0115 262.676 74.6942 260.815 73.3455 259.39C72.0761 258.084 70.053 260.103 71.3224 261.409Z" fill="#020A13"/>
<path d="M78.8594 265.091C78.7404 265.13 78.5817 265.13 78.4627 265.091C78.6214 265.13 78.5818 265.13 78.3834 265.051C78.4627 265.012 78.6214 265.289 78.4231 265.051C78.6214 265.249 78.7801 265.408 78.9784 265.606C79.5338 266.081 80.1685 266.516 80.9222 266.437C81.6759 266.397 82.3502 265.843 82.3502 265.012C82.3502 264.299 81.7155 263.547 80.9222 263.586C80.7635 263.586 80.8032 263.586 81.0412 263.626C80.8825 263.586 80.9222 263.586 81.1205 263.666C80.8032 263.428 81.1998 263.784 81.0015 263.586C80.8032 263.389 80.6445 263.23 80.4461 263.032C79.7718 262.438 79.0181 262.122 78.1454 262.32C77.3917 262.478 76.9554 263.349 77.1537 264.062C77.3124 264.893 78.1057 265.249 78.8594 265.091Z" fill="#020A13"/>
<path d="M75.0921 269.445C75.2905 269.841 75.2905 270.356 75.1318 270.752C74.8145 271.464 74.9335 272.256 75.6475 272.692C76.2425 273.048 77.2739 272.89 77.5912 272.177C78.2259 270.791 78.2259 269.406 77.5515 268.02C77.1945 267.347 76.2425 267.149 75.6078 267.506C74.9335 267.901 74.7748 268.733 75.0921 269.445Z" fill="#020A13"/>
<path d="M79.1771 272.375C79.2168 273.365 79.0185 274.711 79.5342 275.542C80.0895 276.453 81.4382 276.73 82.3902 277.007C84.1356 277.522 84.8893 274.79 83.1439 274.275C82.8266 274.196 82.5489 274.077 82.2316 273.998C82.0729 273.959 81.9539 273.879 81.7952 273.84C81.3589 273.642 81.4382 273.8 82.0332 274.315C82.1126 274.236 81.9936 273.483 81.9936 273.365C81.9936 273.048 81.9936 272.731 81.9539 272.415C81.9539 270.593 79.1375 270.554 79.1771 272.375Z" fill="#020A13"/>
<path d="M85.5645 278.274C85.6438 279.026 85.9612 280.214 85.0091 280.372C84.2554 280.491 83.8191 281.401 84.0174 282.114C84.2158 282.906 85.0091 283.222 85.7628 283.104C88.1032 282.668 88.6586 280.293 88.4206 278.274C88.3412 277.522 87.8256 276.849 86.9925 276.849C86.2785 276.888 85.4455 277.522 85.5645 278.274Z" fill="#020A13"/>
<path d="M89.3714 282.153C89.0144 283.856 89.0144 285.558 89.4508 287.221C89.8871 288.962 92.6242 288.25 92.1879 286.468C91.8705 285.281 91.8309 284.093 92.1085 282.866C92.4655 281.124 89.7285 280.372 89.3714 282.153Z" fill="#020A13"/>
<path d="M93.8139 286.587C93.4569 288.131 93.1396 289.754 91.9099 290.863C90.5612 292.09 92.5842 294.109 93.8933 292.842C95.48 291.378 96.075 289.319 96.5114 287.3C96.9477 285.558 94.2106 284.806 93.8139 286.587Z" fill="#020A13"/>
<path d="M77.8686 281.48C78.6223 280.292 78.7809 278.946 78.5429 277.561C78.4239 276.809 77.4719 276.373 76.7975 276.571C76.0042 276.769 75.6868 277.561 75.8058 278.313C75.9248 278.907 75.7265 279.501 75.4091 280.055C74.4571 281.599 76.9165 283.024 77.8686 281.48Z" fill="#020A13"/>
<path d="M79.4556 283.975C79.4953 284.093 79.4556 284.133 79.4556 283.975C79.4556 284.014 79.4159 284.371 79.4556 284.212C79.4953 284.054 79.4159 284.331 79.4159 284.331C79.3366 284.529 79.5746 284.054 79.3763 284.41C79.3366 284.489 79.2573 284.568 79.3763 284.45C79.3366 284.529 79.2573 284.568 79.1779 284.648C79.3366 284.529 79.1779 284.648 79.0986 284.687C78.9002 284.806 79.3763 284.608 79.0192 284.727C78.3052 284.925 77.8292 285.717 78.0275 286.469C78.2259 287.181 79.0193 287.656 79.7729 287.458C81.5977 286.904 82.629 285.044 82.2324 283.222C82.0737 282.47 81.201 282.035 80.487 282.233C79.6936 282.431 79.2969 283.222 79.4556 283.975Z" fill="#020A13"/>
<path d="M72.7507 291.892C74.5754 291.061 75.3688 289.121 75.9638 287.34C76.5191 285.598 73.8217 284.885 73.2267 286.588C72.8697 287.696 72.473 288.963 71.3226 289.478C70.6086 289.794 70.4499 290.784 70.807 291.417C71.2433 292.13 72.0763 292.209 72.7507 291.892Z" fill="#020A13"/>
<path d="M83.3422 286.627C83.3422 288.487 84.2149 290.071 85.6826 291.179C86.2776 291.654 87.2693 291.298 87.6264 290.665C88.0627 289.952 87.7454 289.2 87.1107 288.725C86.476 288.25 86.1586 287.418 86.1586 286.627C86.1586 284.805 83.3422 284.805 83.3422 286.627Z" fill="#020A13"/>
<path d="M80.0899 289.715C78.7015 291.061 77.3528 292.447 75.9247 293.713C74.5364 294.901 76.5594 296.881 77.9081 295.693C79.3759 294.426 80.6849 293.04 82.0733 291.694C83.422 290.467 81.3989 288.448 80.0899 289.715Z" fill="#020A13"/>
<path d="M85.4848 296.881C87.3095 296.841 88.9756 295.891 89.8879 294.307C90.8003 292.724 88.3409 291.299 87.4285 292.882C86.9922 293.595 86.2781 294.03 85.4848 294.07C83.6601 294.07 83.6601 296.92 85.4848 296.881Z" fill="#020A13"/>
<path d="M89.7683 295.851C88.5386 297.395 87.5469 299.058 86.7535 300.879C86.4362 301.591 86.5552 302.383 87.2692 302.818C87.8642 303.175 88.8956 303.016 89.2129 302.304C89.8873 300.72 90.7203 299.216 91.7913 297.87C92.2673 297.276 92.3863 296.484 91.7913 295.89C91.2756 295.336 90.2443 295.257 89.7683 295.851Z" fill="#020A13"/>
<path d="M84.493 310.063C85.0881 308.717 85.4054 307.371 85.4847 305.946C85.6037 304.125 82.7476 304.125 82.6683 305.946C82.6286 306.856 82.4303 307.807 82.0336 308.638C81.7163 309.351 81.8353 310.142 82.5493 310.578C83.1443 310.894 84.1757 310.776 84.493 310.063Z" fill="#020A13"/>
<path d="M82.5492 303.571C82.6682 302.344 83.1839 301.195 83.8583 300.166C84.8896 298.662 82.4302 297.237 81.3988 298.741C80.4071 300.206 79.8915 301.829 79.6931 303.571C79.6138 304.323 80.4071 304.996 81.1212 304.996C81.9542 304.996 82.4699 304.323 82.5492 303.571Z" fill="#020A13"/>
<path d="M76.7966 297.158C76.1619 297.831 75.4082 298.266 74.4959 298.464C73.7422 298.623 73.3058 299.493 73.5042 300.206C73.7025 300.958 74.4959 301.354 75.2495 301.196C76.5983 300.879 77.8676 300.167 78.8197 299.137C80.0494 297.831 78.066 295.812 76.7966 297.158Z" fill="#020A13"/>
<path d="M69.3401 295.099C68.2294 296.366 67.6344 298.028 65.6907 297.83C63.866 297.672 63.9056 300.483 65.6907 300.641C66.8807 300.76 68.1104 300.404 69.1021 299.691C70.0542 298.978 70.5698 297.949 71.3632 297.078C72.5532 295.732 70.5302 293.753 69.3401 295.099Z" fill="#020A13"/>
<path d="M67.1974 304.561C68.7048 304.798 70.2519 304.561 71.4816 303.611C72.0766 303.136 72.3939 302.383 71.9973 301.671C71.6403 301.077 70.6882 300.681 70.0535 301.156C69.4585 301.631 68.7445 301.948 67.9511 301.829C67.1974 301.71 66.4437 302.027 66.2057 302.819C66.0074 303.492 66.4437 304.442 67.1974 304.561Z" fill="#020A13"/>
<path d="M73.4258 305.234C72.3944 306.698 71.125 308.044 69.6573 309.074C68.1896 310.103 69.6176 312.558 71.0854 311.528C72.9497 310.182 74.5365 308.599 75.8455 306.659C76.9165 305.154 74.4571 303.729 73.4258 305.234Z" fill="#020A13"/>
<path d="M76.6387 316.12C77.8288 316.041 79.0188 315.408 79.5345 314.259C79.8518 313.586 79.7328 312.715 79.0188 312.32C78.3841 312.003 77.4321 312.122 77.0751 312.834C77.0354 312.874 77.0354 312.953 76.9957 312.993C76.9561 313.032 76.9561 313.072 76.9164 313.111C76.8767 313.191 76.8767 313.151 76.9561 313.072C77.1147 312.953 76.9561 313.072 76.9164 313.111C76.8767 313.151 76.8767 313.151 76.8371 313.191C76.7577 313.27 76.7974 313.23 76.9164 313.111C76.8767 313.111 76.7577 313.191 76.7577 313.23C76.5594 313.349 76.8371 313.23 76.8371 313.191C76.8371 313.23 76.6387 313.23 76.5991 313.27C76.4404 313.349 76.9561 313.23 76.6387 313.27C75.885 313.309 75.171 313.864 75.2107 314.695C75.2504 315.447 75.8454 316.199 76.6387 316.12Z" fill="#020A13"/>
<path d="M77.2733 311.172C77.908 310.538 78.4633 309.786 78.8997 308.994C79.2567 308.361 79.098 307.411 78.384 307.054C77.7096 306.698 76.8369 306.857 76.4403 307.569C76.2419 307.886 76.0436 308.203 75.8452 308.519C75.7262 308.717 75.9643 308.361 75.8452 308.559C75.8056 308.638 75.7262 308.678 75.6866 308.757C75.5676 308.915 75.4089 309.034 75.2899 309.192C74.7742 309.707 74.7345 310.657 75.2899 311.172C75.8453 311.686 76.7179 311.726 77.2733 311.172Z" fill="#020A13"/>
<path d="M70.1734 317.308C69.5387 317.704 68.785 317.823 68.1503 318.258C67.7536 318.535 67.238 319.129 66.7619 319.169C64.9372 319.248 64.9372 322.098 66.7619 321.98C67.714 321.94 68.4677 321.544 69.2214 320.99C69.975 320.436 70.8477 320.277 71.6014 319.763C73.1088 318.733 71.6808 316.318 70.1734 317.308Z" fill="#020A13"/>
<path d="M61.6838 321.307C61.1682 321.188 60.7318 321.188 60.2161 321.227C60.1368 321.227 60.0178 321.227 59.9385 321.227C59.7798 321.267 60.0575 321.307 59.9385 321.227C59.7798 321.148 60.1765 321.386 60.2558 321.465C60.4938 321.782 60.4145 322.296 60.1368 322.573C60.6525 322.019 60.7318 321.109 60.1368 320.594C59.5814 320.079 58.6691 320 58.1534 320.594C57.3204 321.504 57.479 322.85 58.4311 323.603C58.8674 323.959 59.4228 324.078 59.9781 324.078C60.1765 324.078 60.3351 324.038 60.5335 324.038C60.6525 324.038 60.7318 324.038 60.8508 324.038C61.0888 324.038 60.6128 323.959 60.9698 324.038C61.6838 324.236 62.5565 323.801 62.7152 323.048C62.8342 322.296 62.4375 321.544 61.6838 321.307Z" fill="#020A13"/>
<path d="M52.8383 323.167C51.9656 323.128 51.2516 322.455 51.0533 321.544C50.8946 320.792 50.0219 320.357 49.3079 320.555C48.5145 320.752 48.1575 321.544 48.3162 322.296C48.7525 324.395 50.6963 325.899 52.8383 325.978C54.6234 326.018 54.6234 323.207 52.8383 323.167Z" fill="#020A13"/>
<path d="M40.064 323.841C42.3251 324.553 44.7051 322.772 44.5861 320.396C44.5465 319.644 43.9515 318.971 43.1581 318.971C42.4044 318.971 41.73 319.605 41.73 320.396C41.73 320.713 41.73 320.911 41.4524 321.069C41.4524 321.069 41.2937 321.149 41.1747 321.149C41.0954 321.149 40.9764 321.149 40.7383 321.069C40.0243 320.832 39.1913 321.347 38.993 322.059C38.874 322.851 39.35 323.603 40.064 323.841Z" fill="#020A13"/>
<path d="M35.027 319.367C33.9956 319.05 33.2816 318.219 33.0039 317.189C32.5676 315.408 29.8305 316.16 30.2668 317.941C30.7429 319.921 32.2899 321.504 34.2336 322.098C36.0187 322.613 36.7724 319.921 35.027 319.367Z" fill="#020A13"/>
<path d="M36.5341 316.556C37.7242 317.15 38.9935 317.506 40.3026 317.427C42.1273 317.348 42.1273 314.537 40.3026 314.616C39.4696 314.656 38.6762 314.497 37.9622 314.102C36.3755 313.27 34.9077 315.725 36.5341 316.556Z" fill="#020A13"/>
<path d="M47.958 317.625C49.2671 318.258 50.7348 318.456 52.1232 318.021C53.8685 317.506 53.1149 314.774 51.3695 315.289C50.6951 315.487 50.0208 315.487 49.3464 315.17C48.6721 314.853 47.7994 314.972 47.4027 315.685C47.0853 316.318 47.2837 317.308 47.958 317.625Z" fill="#020A13"/>
<path d="M57.6774 318.654C59.1451 318.456 60.5731 318.733 61.9615 318.139C63.1119 317.664 63.9846 316.793 64.3019 315.566C64.7383 313.785 62.0012 313.032 61.5648 314.814C61.4062 315.526 60.5732 315.685 59.9385 315.724C58.9071 315.804 57.9154 315.764 56.9237 315.883C56.17 316.001 55.7733 316.952 55.932 317.625C56.1303 318.456 56.9237 318.733 57.6774 318.654Z" fill="#020A13"/>
<path d="M63.9449 308.48C63.9449 308.678 63.4292 308.797 63.3102 308.836C62.7548 308.955 62.1598 308.876 61.6441 308.797C60.8904 308.717 60.2161 309.509 60.2161 310.222C60.2161 311.053 60.8507 311.568 61.6441 311.647C62.7945 311.766 64.0242 311.766 65.0556 311.172C66.0869 310.578 66.6819 309.628 66.8009 308.48C66.8803 307.728 66.0869 307.055 65.3729 307.055C64.5399 307.094 64.0242 307.728 63.9449 308.48Z" fill="#020A13"/>
<path d="M61.287 304.877C62.3581 305.313 63.5878 304.719 64.1828 303.808C64.5795 303.175 64.3415 302.225 63.6671 301.868C62.9531 301.512 62.1597 301.71 61.7234 302.383C61.6441 302.502 61.6837 302.462 61.8027 302.264C61.6837 302.343 61.7234 302.343 61.9217 302.185C61.8821 302.225 61.8424 302.225 61.8027 302.264C62.0407 302.185 62.0804 302.145 61.9614 302.185C61.8027 302.225 61.8821 302.225 62.1201 302.185C62.0804 302.185 62.0407 302.185 61.9614 302.185C62.1994 302.225 62.2787 302.225 62.1201 302.185C62.0804 302.185 62.0407 302.145 62.0011 302.145C61.6837 302.027 61.2077 302.106 60.93 302.304C60.6524 302.462 60.3747 302.818 60.2953 303.135C60.1367 303.967 60.573 304.6 61.287 304.877Z" fill="#020A13"/>
<path d="M57.2403 300.206C56.7643 300.76 56.209 301.077 55.6536 301.116C54.8999 301.196 54.2256 301.71 54.2256 302.542C54.2256 303.254 54.8602 304.006 55.6536 303.967C57.042 303.848 58.3114 303.294 59.2237 302.225C59.6997 301.631 59.7791 300.8 59.2237 300.245C58.7477 299.691 57.7163 299.612 57.2403 300.206Z" fill="#020A13"/>
<path d="M50.0605 308.321C52.4009 308.915 55.138 309.747 57.4387 308.717C59.1048 307.965 57.6768 305.55 56.0107 306.263C55.257 306.619 54.2653 306.302 53.472 306.184C52.5596 306.025 51.6869 305.827 50.8142 305.59C49.0688 305.154 48.3151 307.886 50.0605 308.321Z" fill="#020A13"/>
<path d="M52.3609 314.458C53.7097 314.458 55.0187 314.418 56.3674 314.418C58.1921 314.379 58.1921 311.568 56.3674 311.607C55.0187 311.607 53.7097 311.647 52.3609 311.647C50.5362 311.647 50.5362 314.497 52.3609 314.458Z" fill="#020A13"/>
<path d="M47.601 301.433C46.8473 301.631 46.054 301.789 45.3003 301.908C44.7846 301.987 44.0706 302.225 43.6342 301.908C42.9995 301.433 42.0475 301.829 41.6905 302.423C41.2541 303.135 41.5715 303.888 42.2062 304.363C43.8326 305.59 46.6093 304.6 48.3547 304.165C50.1001 303.729 49.3861 300.998 47.601 301.433Z" fill="#020A13"/>
<path d="M47.6415 309.113C47.0465 309.034 46.4911 308.916 45.9358 308.757C45.9754 308.757 45.4201 308.559 45.4597 308.559C45.3804 308.48 45.3804 308.52 45.4994 308.638C45.4597 308.916 45.4598 308.916 45.5391 308.678C45.8168 307.965 45.2217 307.134 44.5474 306.936C43.754 306.699 43.0797 307.213 42.802 307.926C42.326 309.074 43.0003 310.38 44.0317 310.974C45.1027 311.608 46.4514 311.806 47.6415 311.924C48.3952 312.003 49.0695 311.212 49.0695 310.499C49.0299 309.707 48.3952 309.193 47.6415 309.113Z" fill="#020A13"/>
<path d="M39.8667 309.628C38.9544 308.955 38.1213 308.163 37.4867 307.252C37.0503 306.659 36.257 306.342 35.5429 306.738C34.9479 307.094 34.5909 308.044 35.0272 308.678C36.0189 309.984 37.1296 311.092 38.4387 312.082C39.0734 312.518 40.0254 312.201 40.3824 311.568C40.7791 310.855 40.5014 310.063 39.8667 309.628Z" fill="#020A13"/>
<path d="M37.9616 299.097C37.1285 299.177 36.4939 298.979 35.8988 298.345C35.3832 297.791 34.4311 297.831 33.9154 298.345C33.3601 298.9 33.3998 299.77 33.9154 300.325C34.9071 301.433 36.4939 302.067 37.9616 301.908C38.7153 301.829 39.3896 301.314 39.3896 300.483C39.3896 299.81 38.7153 299.018 37.9616 299.097Z" fill="#020A13"/>
<path d="M33.1224 310.063C33.5984 310.103 33.0828 310.063 33.1224 310.063C33.1224 310.024 33.3604 310.143 33.1224 310.063C33.0431 309.984 32.8448 309.826 33.0828 310.024C33.0034 309.984 32.9638 309.905 32.8844 309.826C32.7654 309.747 33.0431 310.063 32.8844 309.826C32.8448 309.786 32.6861 309.549 32.8051 309.707C32.9241 309.866 32.8051 309.628 32.7654 309.588C32.6464 309.311 32.7654 309.866 32.7654 309.549C32.7257 308.797 32.1307 308.084 31.3374 308.124C30.5837 308.163 29.8697 308.757 29.9093 309.549C29.949 310.42 30.2663 311.172 30.8614 311.805C31.4564 312.439 32.2497 312.756 33.0828 312.835C33.8365 312.914 34.5108 312.122 34.5108 311.41C34.5108 310.618 33.9158 310.143 33.1224 310.063Z" fill="#020A13"/>
<path d="M28.3221 312.122C26.7354 312.082 26.5767 309.747 26.4577 308.599C26.299 306.817 23.4826 306.777 23.6413 308.599C23.8793 311.449 24.871 314.854 28.3221 314.933C30.1468 314.972 30.1468 312.162 28.3221 312.122Z" fill="#020A13"/>
<path d="M26.4185 316.081C25.4665 315.685 24.5938 315.131 23.8401 314.458C23.2847 313.943 22.4121 313.903 21.8567 314.458C21.341 314.972 21.3013 315.962 21.8567 316.437C22.8087 317.268 23.8401 317.981 24.9905 318.496C25.7045 318.812 26.4979 318.694 26.9342 317.981C27.2912 317.427 27.1325 316.397 26.4185 316.081Z" fill="#020A13"/>
<path d="M20.3891 310.855C20.0718 310.024 19.5164 309.549 18.8024 309.113C18.1677 308.757 17.6521 308.282 17.176 307.767C16.6604 307.213 15.7083 307.253 15.1926 307.767C14.6373 308.321 14.677 309.192 15.1926 309.747C15.6687 310.261 16.1843 310.736 16.7397 311.132C16.9777 311.291 17.2157 311.449 17.4537 311.568C17.5727 311.647 17.6521 311.726 17.7711 311.766L17.7314 311.726C17.8901 311.924 17.8901 311.845 17.6917 311.568C17.9694 312.28 18.6438 312.755 19.4371 312.557C20.0718 312.399 20.6272 311.568 20.3891 310.855Z" fill="#020A13"/>
<path d="M22.016 305.55C21.897 304.877 22.135 304.283 22.5317 303.689C22.968 303.056 22.6507 302.106 22.016 301.75C21.302 301.314 20.5483 301.631 20.0723 302.264C19.1996 303.452 19.0012 304.877 19.2789 306.302C19.4376 307.054 20.3103 307.49 21.0243 307.292C21.8177 307.054 22.1747 306.302 22.016 305.55Z" fill="#020A13"/>
<path d="M13.2092 304.244C12.8522 302.067 11.1068 300.285 9.0044 299.771C7.25901 299.335 6.50532 302.027 8.25071 302.502C9.48041 302.819 10.2738 303.769 10.4721 305.036C10.5911 305.788 11.5431 306.224 12.2175 306.026C13.0109 305.748 13.3282 304.996 13.2092 304.244Z" fill="#020A13"/>
<path d="M16.8986 302.739C16.7796 301.829 16.8192 300.958 16.9779 300.047C17.1366 299.295 16.7399 298.503 15.9862 298.305C15.2722 298.108 14.3995 298.543 14.2408 299.295C14.0028 300.443 13.9235 301.591 14.0425 302.739C14.1218 303.492 14.6375 304.165 15.4705 304.165C16.1845 304.165 16.9779 303.492 16.8986 302.739Z" fill="#020A13"/>
<path d="M25.9826 304.719C26.7759 305.154 27.5693 305.629 28.323 306.184C28.9577 306.619 29.9097 306.302 30.2667 305.669C30.6634 304.956 30.3857 304.165 29.751 303.729C28.9974 303.214 28.204 302.739 27.4106 302.264C26.7363 301.908 25.8636 302.106 25.4669 302.779C25.0702 303.452 25.3082 304.363 25.9826 304.719Z" fill="#020A13"/>
<path d="M33.2424 305.234C33.6391 305.234 34.0357 305.234 34.4324 305.234C35.1861 305.234 35.9001 304.6 35.8605 303.808C35.8208 303.056 35.2258 302.383 34.4324 302.383C34.0357 302.383 33.6391 302.383 33.2424 302.383C32.4887 302.383 31.7747 303.017 31.8143 303.808C31.854 304.561 32.449 305.234 33.2424 305.234Z" fill="#020A13"/>
<path d="M30.3061 296.841C29.9888 295.732 29.7111 294.663 29.3937 293.555C28.9177 291.813 26.1806 292.565 26.6566 294.307C26.974 295.416 27.2517 296.484 27.569 297.593C28.045 299.335 30.7821 298.583 30.3061 296.841Z" fill="#020A13"/>
<path d="M26.1015 296.366C24.5941 295.059 23.047 294.03 20.9843 294.307C20.2306 294.426 19.7943 295.376 19.9926 296.049C20.2306 296.88 20.9843 297.157 21.738 297.039C22.6107 296.92 23.523 297.87 24.1181 298.345C25.4668 299.572 27.4502 297.553 26.1015 296.366Z" fill="#020A13"/>
<path d="M24.2364 290.942C24.1174 290.269 24.4347 289.635 25.0297 289.16C25.6247 288.685 25.5057 287.656 25.0297 287.181C24.4347 286.587 23.6413 286.706 23.0463 287.181C21.6579 288.25 21.1819 290.071 21.4993 291.734C21.6579 292.486 22.5306 292.921 23.2447 292.723C24.038 292.446 24.395 291.694 24.2364 290.942Z" fill="#020A13"/>
<path d="M18.1283 292.724C18.049 292.684 17.7316 292.446 17.9696 292.684C17.8903 292.605 17.811 292.526 17.7316 292.446C17.692 292.407 17.6523 292.328 17.6126 292.288C17.7316 292.446 17.7316 292.446 17.6523 292.328C17.573 292.209 17.4936 292.13 17.4143 292.011C17.0176 291.457 16.5813 290.902 15.9466 290.586C15.2722 290.229 14.3599 290.388 14.0029 291.1C13.6458 291.734 13.8045 292.684 14.5185 293.04C14.5979 293.08 14.6375 293.119 14.7169 293.159C14.5582 293.04 14.5582 293.04 14.6772 293.119C14.7565 293.199 14.8359 293.278 14.9152 293.357C14.9945 293.476 14.9945 293.476 14.9152 293.317C14.9549 293.357 14.9946 293.436 15.0342 293.476C15.1136 293.594 15.1929 293.674 15.2722 293.792C15.6689 294.347 16.1053 294.901 16.7399 295.178C17.4143 295.495 18.287 295.376 18.6837 294.663C18.9613 294.07 18.8423 293.08 18.1283 292.724Z" fill="#020A13"/>
<path d="M12.6138 294.743C12.2171 294.307 11.8601 293.832 11.4634 293.397C11.3841 293.278 11.3047 293.199 11.1857 293.08C11.1461 293.001 11.1064 293.04 11.1857 293.199C10.9874 293.634 11.4634 293.119 11.4237 293.159C12.6931 291.853 10.7097 289.873 9.44035 291.18C8.64699 291.971 8.09164 293.001 8.56766 294.149C8.96434 295.138 9.95603 295.97 10.6304 296.762C11.1461 297.355 12.1378 297.276 12.6138 296.762C13.1691 296.168 13.0898 295.336 12.6138 294.743Z" fill="#020A13"/>
<path d="M6.82279 294.663C6.46578 294.069 4.91872 291.575 5.55341 290.981C6.86245 289.715 4.87906 287.735 3.57001 289.002C1.54695 290.942 3.213 294.148 4.40304 296.128C5.3154 297.672 7.77482 296.247 6.82279 294.663Z" fill="#020A13"/>
<path d="M24.2769 282.034C23.4835 281.48 22.6505 280.965 21.8571 280.411C21.2224 279.976 20.2704 280.292 19.9134 280.926C19.5167 281.638 19.7944 282.43 20.4291 282.866C21.2224 283.42 22.0555 283.935 22.8488 284.489C23.4835 284.924 24.4355 284.608 24.7926 283.974C25.1892 283.262 24.9116 282.47 24.2769 282.034Z" fill="#020A13"/>
<path d="M23.4436 276.927C23.2453 276.096 23.3246 275.304 23.642 274.512C23.9196 273.8 23.3246 272.969 22.6503 272.771C21.8569 272.533 21.1825 273.048 20.9049 273.76C20.4289 275.027 20.3892 276.373 20.7065 277.68C21.1825 279.461 23.88 278.709 23.4436 276.927Z" fill="#020A13"/>
<path d="M24.4359 268.377C24.4359 266.635 23.5633 265.17 22.1749 264.18C21.5402 263.745 20.5882 264.061 20.2311 264.695C19.7948 265.408 20.1121 266.16 20.7468 266.635C21.3022 267.031 21.5799 267.743 21.5799 268.377C21.6195 270.198 24.4756 270.198 24.4359 268.377Z" fill="#020A13"/>
<path d="M26.5379 263.388C27.1329 263.032 27.7279 262.715 28.3229 262.359C28.9576 262.003 29.2353 261.052 28.8386 260.419C28.4419 259.786 27.5692 259.509 26.8949 259.904C26.2998 260.261 25.7048 260.577 25.1098 260.934C24.4751 261.29 24.1974 262.24 24.5941 262.874C25.0305 263.507 25.8635 263.784 26.5379 263.388Z" fill="#020A13"/>
<path d="M18.7636 285.4C18.9223 285.439 18.843 285.439 18.7636 285.4C18.6446 285.321 18.5256 285.281 18.4463 285.241C18.2876 285.162 18.0893 285.043 17.9306 284.925C18.0496 285.004 17.9703 284.964 17.891 284.885C17.8116 284.846 17.7719 284.766 17.6926 284.687C17.5339 284.529 17.3753 284.37 17.2563 284.212C16.7803 283.618 15.7489 283.697 15.2729 284.212C14.7175 284.806 14.7572 285.598 15.2729 286.192C15.9869 287.062 16.9389 287.696 18.01 288.092C18.6843 288.369 19.5967 287.775 19.7553 287.102C19.9537 286.31 19.5173 285.677 18.7636 285.4Z" fill="#020A13"/>
<path d="M13.4075 285.796C13.3281 284.648 13.2885 283.539 13.3281 282.391C13.4075 280.57 10.591 280.57 10.5117 282.391C10.472 283.539 10.472 284.687 10.591 285.796C10.6704 286.548 11.1861 287.221 12.0191 287.221C12.6934 287.221 13.4471 286.588 13.4075 285.796Z" fill="#020A13"/>
<path d="M18.049 278.551C18.525 276.849 18.525 275.147 18.1283 273.405C17.692 271.623 14.9549 272.375 15.3912 274.157C15.7086 275.384 15.6689 276.572 15.3119 277.799C14.8359 279.541 17.573 280.293 18.049 278.551Z" fill="#020A13"/>
<path d="M6.7438 283.381C6.8628 283.143 7.18015 283.025 7.45782 282.985C7.25948 282.985 7.45782 282.985 7.53716 282.985C7.29915 282.945 7.69583 283.104 7.49749 282.945C7.57683 282.985 7.7355 283.222 7.65616 283.064C7.45782 282.629 7.25948 282.154 6.98181 281.758C6.54546 281.164 5.71243 280.808 5.03808 281.243C4.44306 281.639 4.08605 282.51 4.52239 283.183C5.07775 283.975 5.23642 284.964 6.18845 285.479C7.21982 286.033 8.52886 285.835 9.20321 284.806C9.59989 284.173 9.36188 283.222 8.68753 282.866C8.01317 282.51 7.14048 282.708 6.7438 283.381Z" fill="#020A13"/>
<path d="M3.37178 282.945C3.05443 282.549 2.85609 281.955 2.85609 281.48C2.81642 280.728 2.22141 280.055 1.42805 280.055C0.674355 280.055 0 280.689 0 281.48C0.039668 282.787 0.515683 283.935 1.34871 284.964C1.82473 285.558 2.85609 285.479 3.33211 284.964C3.92713 284.331 3.84779 283.539 3.37178 282.945Z" fill="#020A13"/>
<path d="M4.28325 276.73C4.20392 275.701 4.24359 274.711 4.44193 273.682C4.83861 271.9 2.10152 271.148 1.70484 272.93C1.42716 274.196 1.30816 275.424 1.42716 276.73C1.5065 277.482 2.02218 278.155 2.85521 278.155C3.56923 278.155 4.32292 277.522 4.28325 276.73Z" fill="#020A13"/>
<path d="M5.95052 278.749C6.94222 279.105 8.13226 278.986 9.00496 278.393C9.91732 277.759 10.3933 276.769 10.4727 275.701C10.552 274.948 9.75865 274.275 9.04462 274.275C8.2116 274.275 7.69591 274.909 7.61658 275.701C7.61658 275.582 7.57691 275.819 7.53724 275.899C7.4579 276.057 7.41824 276.096 7.4579 275.978C7.3389 276.096 7.29923 276.136 7.37857 276.057C7.06123 276.215 7.02156 276.176 6.66455 276.057C5.95052 275.78 5.1175 276.374 4.91916 277.047C4.76048 277.799 5.2365 278.472 5.95052 278.749Z" fill="#020A13"/>
<path d="M11.3056 270.396C11.3453 270.554 11.3849 270.673 11.4246 270.831C11.5436 271.227 11.4246 270.673 11.4643 271.069C11.4643 271.227 11.4643 271.385 11.4643 271.544C11.4643 271.583 11.4246 271.979 11.4643 271.781C11.3453 272.494 11.6626 273.325 12.456 273.523C13.1303 273.682 14.0427 273.325 14.2014 272.534C14.36 271.544 14.36 270.594 14.0427 269.644C13.8047 268.931 13.051 268.416 12.2973 268.654C11.5833 268.891 11.0676 269.644 11.3056 270.396Z" fill="#020A13"/>
<path d="M16.8588 269.327C16.8984 269.327 17.1761 269.366 16.9381 269.327C16.7001 269.287 16.9381 269.327 16.9778 269.366C17.2158 269.406 16.7794 269.247 16.8984 269.327C16.9381 269.327 16.9381 269.366 16.9778 269.366C17.0571 269.406 17.0174 269.406 16.8588 269.287C16.8984 269.327 16.9381 269.366 16.9778 269.406C17.1761 269.564 16.8984 269.247 16.9381 269.366C17.0571 269.643 16.8984 269.327 16.9381 269.287C16.9381 269.327 16.9778 269.485 17.0174 269.525C17.1364 270.237 18.0885 270.712 18.7628 270.514C19.5562 270.277 19.9132 269.564 19.7545 268.772C19.5165 267.466 18.2075 266.476 16.8984 266.516C16.1447 266.555 15.4307 267.149 15.4704 267.941C15.4704 268.654 16.0654 269.327 16.8588 269.327Z" fill="#020A13"/>
<path d="M9.40092 269.327C9.08358 268.258 9.08358 267.229 9.44059 266.16C9.99594 264.418 7.25885 263.666 6.7035 265.407C6.22748 266.912 6.18782 268.535 6.66383 270.079C7.17951 271.781 9.9166 271.069 9.40092 269.327Z" fill="#020A13"/>
<path d="M4.00608 268.377C3.92674 266.991 4.04574 265.645 4.44242 264.299C4.95811 262.557 2.22102 261.805 1.70534 263.547C1.26899 265.131 1.07065 266.754 1.18965 268.377C1.26899 270.198 4.12508 270.198 4.00608 268.377Z" fill="#020A13"/>
<path d="M5.19607 260.854C7.0208 260.419 8.36951 259.073 9.00419 257.331C9.28187 256.618 8.68685 255.787 8.0125 255.589C7.21914 255.391 6.54478 255.866 6.2671 256.579C5.98943 257.331 5.23574 257.925 4.40271 258.123C2.69699 258.558 3.41101 261.29 5.19607 260.854Z" fill="#020A13"/>
<path d="M10.0766 262.715C10.156 262.755 10.1956 262.795 10.275 262.834C10.4337 262.913 10.037 262.636 10.2353 262.795C10.3543 262.874 10.4337 262.993 10.5527 263.111C10.6717 263.23 10.513 263.072 10.4733 263.032C10.513 263.111 10.5527 263.151 10.5923 263.19C10.6717 263.309 10.751 263.468 10.7907 263.626C10.9097 263.943 11.346 264.18 11.6237 264.259C11.9807 264.339 12.417 264.299 12.6947 264.101C13.0121 263.903 13.2501 263.626 13.3294 263.27C13.4087 262.874 13.3294 262.557 13.1707 262.201C12.8137 261.409 12.179 260.736 11.4254 260.301C10.7907 259.905 9.83863 260.142 9.48162 260.815C9.20395 261.449 9.40229 262.28 10.0766 262.715Z" fill="#020A13"/>
<path d="M16.8993 262.557C17.891 262.24 18.843 261.805 19.7554 261.29C20.4298 260.894 20.6678 260.023 20.2711 259.35C19.8744 258.677 19.0017 258.44 18.3274 258.836C17.6133 259.232 16.939 259.588 16.1456 259.825C15.4316 260.063 14.9556 260.815 15.1539 261.567C15.3523 262.28 16.1853 262.755 16.8993 262.557Z" fill="#020A13"/>
<path d="M17.6132 254.639C17.0182 253.57 16.5422 252.462 16.1455 251.314C15.5901 249.572 12.853 250.324 13.4084 252.066C13.8447 253.451 14.4398 254.797 15.1538 256.064C16.0661 257.648 18.4859 256.223 17.6132 254.639Z" fill="#020A13"/>
<path d="M11.4645 251.552C11.4645 250.364 11.8215 249.256 12.6149 248.385C13.8049 247.039 11.8215 245.02 10.6315 246.405C9.36209 247.87 8.64807 249.612 8.64807 251.591C8.64807 253.373 11.5042 253.373 11.4645 251.552Z" fill="#020A13"/>
<path d="M22.0553 254.362C22.8486 254.125 23.642 253.808 24.3164 253.254C24.9907 252.66 25.3874 251.828 25.3477 250.958C25.3477 250.205 24.713 249.493 23.9197 249.532C23.166 249.572 22.4916 250.166 22.4916 250.958C22.4916 251.076 22.4916 251.116 22.4916 250.997C22.4123 251.314 22.5313 250.958 22.452 251.116C22.333 251.314 22.571 250.997 22.4123 251.155C22.3726 251.195 22.1743 251.353 22.333 251.235C22.2536 251.274 22.1743 251.353 22.0553 251.393C22.0156 251.433 21.8569 251.472 21.976 251.433C21.7379 251.512 21.4999 251.591 21.2619 251.67C20.5479 251.908 20.0322 252.66 20.2702 253.412C20.5479 254.085 21.3016 254.6 22.0553 254.362Z" fill="#020A13"/>
<path d="M28.4421 255.589C28.6008 256.619 29.1561 257.608 29.9098 258.321C30.4255 258.836 31.3775 258.875 31.8932 258.321C32.4089 257.767 32.4486 256.856 31.8932 256.341C31.8535 256.302 31.4965 255.906 31.6552 256.144C31.5362 255.985 31.4569 255.827 31.3775 255.668C31.3378 255.51 31.3378 255.471 31.3775 255.629C31.3378 255.55 31.2982 255.47 31.2982 255.391C31.2585 255.233 31.2188 255.035 31.1792 254.877C31.0602 254.164 30.1081 253.689 29.4338 253.887C28.6404 254.124 28.3231 254.797 28.4421 255.589Z" fill="#020A13"/>
<path d="M32.1315 248.068C32.3299 247.355 32.5282 246.642 32.7266 245.969C32.9249 245.257 32.4886 244.386 31.7349 244.227C30.9812 244.069 30.1878 244.465 29.9895 245.217C29.7911 245.93 29.5928 246.642 29.3945 247.315C29.1961 248.028 29.6325 248.899 30.3862 249.057C31.1398 249.216 31.9332 248.82 32.1315 248.068Z" fill="#020A13"/>
<path d="M24.7141 247.553C24.7141 246.642 24.9521 245.851 25.3885 245.059C26.3008 243.475 23.8414 242.05 22.9291 243.634C22.2547 244.821 21.8977 246.167 21.858 247.553C21.858 249.374 24.6745 249.374 24.7141 247.553Z" fill="#020A13"/>
<path d="M18.6843 246.84C18.486 245.93 18.0893 244.465 19.081 243.871C20.6677 242.961 19.2397 240.546 17.653 241.417C15.3919 242.723 15.4712 245.336 15.9473 247.553C16.3043 249.374 19.0414 248.622 18.6843 246.84Z" fill="#020A13"/>
<path d="M22.5309 238.645C25.1093 238.764 27.6084 237.299 28.6794 234.964C29.4331 233.34 27.0133 231.876 26.22 233.538C25.5456 235.043 24.1572 235.914 22.4912 235.834C20.7061 235.755 20.7061 238.566 22.5309 238.645Z" fill="#020A13"/>
<path d="M34.8279 232.707C34.3123 232.905 33.9949 232.826 33.7569 232.509C33.8362 232.668 33.8362 232.668 33.7569 232.549C33.7966 232.707 33.8759 232.865 33.9156 233.024C34.0346 233.42 34.1933 233.816 34.3123 234.172C34.5503 234.885 35.304 235.399 36.0576 235.162C36.7717 234.924 37.2874 234.172 37.0493 233.42C36.8113 232.668 36.613 231.797 36.2163 231.124C35.6213 230.134 34.4313 229.778 33.3999 230.292C32.7255 230.649 32.5272 231.599 32.8842 232.232C33.2809 232.865 34.1536 233.063 34.8279 232.707Z" fill="#020A13"/>
<path d="M30.6237 238.527C30.9014 238.962 31.1791 239.398 31.4171 239.833C31.8138 240.467 32.6865 240.744 33.3608 240.348C33.9955 239.952 34.2732 239.081 33.8765 238.408C33.5988 237.973 33.3211 237.537 33.0831 237.102C32.6865 236.468 31.8138 236.191 31.1394 236.587C30.5047 236.983 30.1874 237.854 30.6237 238.527Z" fill="#020A13"/>
<path d="M26.7755 242.723C27.1721 242.723 27.5688 242.723 27.9655 242.723C28.7192 242.723 29.4332 242.09 29.3935 241.298C29.3539 240.546 28.7588 239.873 27.9655 239.873C27.5688 239.873 27.1721 239.873 26.7755 239.873C26.0218 239.873 25.3077 240.506 25.3474 241.298C25.3871 242.09 25.9821 242.723 26.7755 242.723Z" fill="#020A13"/>
<path d="M34.9867 245.811C35.423 246.365 36.018 246.761 36.7717 246.563C37.4858 246.365 37.8824 245.811 38.0014 245.138C38.1998 244.029 38.0808 242.881 37.8824 241.773C37.7634 241.021 36.8114 240.585 36.137 240.783C35.3437 241.021 35.0263 241.773 35.1453 242.525C35.2247 242.921 35.2247 243.317 35.2247 243.713C35.2247 243.95 35.2247 244.148 35.2247 244.386C35.2247 244.465 35.2247 244.544 35.2247 244.623C35.185 244.979 35.2247 244.9 35.2644 244.465C35.423 244.306 35.6214 244.108 35.78 243.95C35.7404 243.95 35.7007 243.99 35.661 243.99C36.018 243.95 36.3751 243.911 36.7321 243.831C36.6924 243.831 36.6527 243.831 36.6131 243.792C36.8907 243.99 37.1684 244.227 37.4461 244.425C37.4064 244.386 37.4064 244.346 37.3668 244.346C36.8907 243.752 36.137 243.435 35.423 243.831C34.9073 244.227 34.5503 245.177 34.9867 245.811Z" fill="#020A13"/>
<path d="M38.6755 238.606C38.8342 238.606 38.7549 238.526 38.7152 238.566C38.8739 238.606 38.8739 238.606 38.7945 238.566C38.7152 238.526 38.7152 238.526 38.7945 238.566C38.9532 238.685 38.7152 238.447 38.8342 238.606C38.9929 238.804 38.7152 238.328 38.9135 238.724C38.9532 238.764 38.9929 238.922 38.9532 238.804C38.9929 238.883 39.0325 239.001 39.0325 239.081C39.1119 239.318 39.1515 239.556 39.1912 239.793C39.3102 240.506 40.2622 240.981 40.9366 240.783C41.73 240.545 42.087 239.833 41.9283 239.041C41.7696 238.21 41.5316 237.418 40.9763 236.785C40.4209 236.151 39.5482 235.676 38.6755 235.755C37.9615 235.834 37.2078 236.349 37.2475 237.18C37.2871 237.893 37.8822 238.685 38.6755 238.606Z" fill="#020A13"/>
<path d="M40.3816 243.555C39.9452 244.149 39.9056 244.901 40.0246 245.574C40.0642 245.89 40.3816 246.247 40.6592 246.405C40.9766 246.563 41.4129 246.643 41.7303 246.563C42.0873 246.445 42.4046 246.247 42.5633 245.93C42.7617 245.574 42.7616 245.217 42.722 244.861C42.722 244.822 42.722 244.822 42.722 244.782C42.722 244.901 42.7617 245.019 42.7617 245.138C42.7617 245.059 42.7617 244.94 42.7617 244.861C42.7617 244.98 42.722 245.099 42.722 245.217C42.722 245.099 42.7616 244.98 42.8013 244.861C42.7616 244.98 42.722 245.099 42.6426 245.217C42.6823 245.138 42.722 245.059 42.8013 244.98C42.9997 244.703 43.0393 244.188 42.96 243.911C42.8807 243.594 42.603 243.238 42.3253 243.08C42.008 242.921 41.6113 242.803 41.2543 242.921C40.8576 243.04 40.6196 243.238 40.3816 243.555Z" fill="#020A13"/>
<path d="M41.6902 230.926C42.4438 230.253 43.3562 230.055 44.3479 230.173C45.1016 230.253 45.776 229.461 45.776 228.748C45.776 227.917 45.1413 227.442 44.3479 227.323C42.6422 227.125 40.9365 227.759 39.7068 228.867C38.3184 230.134 40.3414 232.113 41.6902 230.926Z" fill="#020A13"/>
<path d="M56.2493 229.501C55.8923 228.392 55.0989 227.64 53.9882 227.284C52.7982 226.888 51.5685 227.125 50.3388 227.006C48.514 226.848 48.5537 229.659 50.3388 229.817C50.8941 229.857 53.2345 229.461 53.5122 230.253C54.0279 231.995 56.765 231.242 56.2493 229.501Z" fill="#020A13"/>
<path d="M61.6436 231.678C62.0006 231.678 61.485 231.599 61.842 231.717C61.9213 231.757 62.0403 231.757 62.1196 231.796C61.8816 231.717 62.2783 231.915 62.2783 231.915C62.1196 231.836 62.318 231.955 62.3577 231.994C62.3973 232.034 62.5957 232.232 62.4767 232.074C62.556 232.153 62.5957 232.272 62.675 232.351C62.7147 232.43 62.7147 232.43 62.675 232.311C62.675 232.351 62.7147 232.39 62.7147 232.43C62.7543 232.549 62.794 232.707 62.794 232.826C62.913 233.578 63.865 234.013 64.5394 233.815C65.3327 233.578 65.6501 232.826 65.5311 232.074C65.2534 230.213 63.508 228.867 61.6833 228.788C60.9296 228.748 60.2552 229.461 60.2552 230.213C60.2552 231.044 60.8899 231.638 61.6436 231.678Z" fill="#020A13"/>
<path d="M68.6253 233.816C68.6253 236.271 70.7277 238.329 73.2268 238.052C73.9805 237.973 74.6548 237.458 74.6548 236.627C74.6548 235.914 74.0202 235.123 73.2268 235.202C72.2748 235.32 71.4814 234.806 71.4814 233.777C71.4417 231.995 68.6253 231.995 68.6253 233.816Z" fill="#020A13"/>
<path d="M64.8577 235.716C64.3817 236.389 63.3503 237.418 62.5967 236.508C62.1206 235.914 61.0893 236.033 60.6133 236.508C60.0182 237.102 60.1372 237.893 60.6133 238.487C61.4066 239.517 62.8347 239.873 64.104 239.596C65.4924 239.279 66.5238 238.25 67.3171 237.141C68.3485 235.677 65.8891 234.251 64.8577 235.716Z" fill="#020A13"/>
<path d="M57.2016 233.341C57.2016 233.183 57.2413 233.341 57.1223 233.42C56.8843 233.578 56.6463 233.737 56.3686 233.856C56.1703 233.935 55.8926 233.974 55.7339 234.093C55.5356 234.212 55.5752 233.697 55.7736 234.291C55.1786 232.589 52.4415 233.341 53.0365 235.043C54.2662 238.487 59.9784 236.587 60.018 233.38C60.018 231.52 57.2016 231.52 57.2016 233.341Z" fill="#020A13"/>
<path d="M50.4583 234.291C50.4583 232.945 49.7839 231.797 48.5542 231.243C47.8799 230.926 46.9675 231.361 46.7295 232.074C46.4915 232.866 46.8485 233.578 47.5625 233.895C47.4039 233.816 47.3642 233.776 47.5229 233.856C47.6419 233.935 47.6419 233.935 47.4832 233.816C47.5625 233.856 47.7212 234.172 47.6419 233.974C47.5625 233.856 47.5625 233.895 47.6419 233.974C47.7212 234.133 47.6815 234.093 47.6419 233.895C47.7212 233.935 47.6815 234.449 47.6815 234.014C47.6815 234.766 48.1575 235.518 48.9509 235.558C49.6253 235.597 50.4186 235.083 50.4583 234.291Z" fill="#020A13"/>
<path d="M41.9286 233.34C41.9286 234.37 42.0476 235.399 42.2459 236.428C42.4046 237.181 43.2773 237.616 43.9913 237.418C44.7847 237.22 45.1417 236.428 44.983 235.676C44.8244 234.884 44.745 234.132 44.745 233.34C44.7847 231.519 41.9286 231.519 41.9286 233.34Z" fill="#020A13"/>
<path d="M48.0777 240.941C48.7521 240.308 49.5851 239.873 50.4578 239.635C52.2032 239.16 51.4892 236.468 49.7041 236.903C48.3158 237.26 47.086 237.972 46.0547 238.922C44.7456 240.189 46.729 242.169 48.0777 240.941Z" fill="#020A13"/>
<path d="M52.7583 240.744C52.2029 241.536 51.2905 242.169 50.3385 242.288C49.5848 242.367 48.9105 242.882 48.9105 243.713C48.9105 244.386 49.5451 245.217 50.3385 245.138C52.3616 244.861 54.0276 243.911 55.2177 242.209C56.249 240.665 53.7896 239.239 52.7583 240.744Z" fill="#020A13"/>
<path d="M58.2726 241.615C58.7089 242.208 59.1849 243 59.3833 243.554C59.661 244.267 60.3353 244.742 61.1287 244.544C61.803 244.346 62.3981 243.515 62.1204 242.802C61.7634 241.852 61.327 240.981 60.6923 240.15C60.2163 239.556 59.4626 239.239 58.7486 239.635C58.1536 240.031 57.7966 241.021 58.2726 241.615Z" fill="#020A13"/>
</svg>
