<?xml version="1.0" encoding="utf-8"?>
<!-- Generator: Adobe Illustrator 17.0.0, SVG Export Plug-In . SVG Version: 6.00 Build 0)  -->
<!DOCTYPE svg PUBLIC "-//W3C//DTD SVG 1.1//EN" "http://www.w3.org/Graphics/SVG/1.1/DTD/svg11.dtd">
<svg version="1.1" id="Layer_1" xmlns="http://www.w3.org/2000/svg" xmlns:xlink="http://www.w3.org/1999/xlink" x="0px" y="0px"
	 width="133px" height="159px" viewBox="0 0 133 159" enable-background="new 0 0 133 159" xml:space="preserve">
<g>
	<defs>
		
			<rect id="SVGID_1_" x="7.555" y="46.553" transform="matrix(-0.8536 -0.5209 0.5209 -0.8536 9.5141 133.7802)" width="32" height="38"/>
	</defs>
	<clipPath id="SVGID_2_">
		<use xlink:href="#SVGID_1_"  overflow="visible"/>
	</clipPath>
	<g clip-path="url(#SVGID_2_)">
		<path fill="#020A13" d="M8.993,78.925c-1.913-1.639-2.276-2.174-1.725-4.586c0.824-3.737,1.76-7.406,2.807-11.006
			c0.147-0.617,0.859-1.282,1.452-1.626c1.313-0.769,2.835-1.253,4.127-2.114c0.628-0.402,1.131-1.351,1.348-2.083
			c0.845-3.018,2.053-3.615,4.95-2.71c2.807,0.928,5.642,1.559,8.533,2.224c2.926,0.608,3.645,1.439,2.667,4.297
			c-0.929,2.652,1.124,4.062,1.767,6.024c0.258,0.707,0.649,1.574,0.468,2.248c-0.977,4.114-2.011,8.195-3.191,12.264
			c-0.398,1.406-1.487,2.311-3.009,2.168c-2.367-0.267-4.79-0.568-7.094-1.189C17.687,81.639,13.364,80.179,8.993,78.925z
			 M30.171,78.894c-0.195,0.195-0.335,0.424-0.566,0.675c-0.726-0.443-1.578-0.806-2.234-1.364c-1.801-1.57-3.568-3.198-5.3-4.883
			c-0.922-0.877-1.774-1.239-3.093-0.71c-2.116,0.829-4.294,1.384-6.508,1.996c-0.363,0.092-0.866-0.214-1.327-0.339
			c0.244-0.4,0.412-0.926,0.754-1.11c0.628-0.402,1.39-0.644,2.151-0.886c1.466-0.519,2.968-1.094,4.378-1.647
			c-2.165-2.106-4.252-4.087-6.438-6.284c-0.984,3.874-1.997,7.418-2.772,10.949c-0.112,0.56,0.447,1.529,0.984,1.778
			c1.669,0.783,3.373,1.509,5.16,1.971c4.001,1.107,8.016,2.065,12.031,3.024c1.215,0.27,2.402,0.21,2.884-1.459
			c0.963-3.338,2.018-6.699,3.016-10.093c0.133-0.469,0.119-0.948,0.223-1.748c-3.687,0.891-7.066,1.655-10.718,2.488
			C25.381,73.93,28.418,75.862,30.171,78.894z M15.822,61.58c-1.117,0.575-1.836,0.999-2.772,1.527
			c0.712,0.592,1.236,0.99,2.025,1.707C15.333,63.637,15.529,62.814,15.822,61.58z M19.592,56.658
			c0.147,1.267,0.251,2.352,0.433,3.562C21.569,57.314,21.457,56.618,19.592,56.658z M28.579,67.559
			c0.168,0.102,0.37,0.147,0.594,0.284c0.447-0.983,0.894-1.967,1.375-3.008c-0.056-0.034-0.112-0.068-0.258-0.079
			C29.731,65.671,29.172,66.586,28.579,67.559z"/>
		<path fill="#020A13" d="M28.23,51.8c-0.412,0.298-0.803,0.688-0.971,0.585c-0.279-0.17-0.712-0.592-0.74-0.923
			c0.119-1.576,0.363-3.233,0.663-4.856c0.084-0.263,0.621-0.641,0.824-0.596c0.314,0.113,0.803,0.569,0.775,0.865
			C28.628,48.51,28.383,50.167,28.23,51.8z"/>
		<path fill="#020A13" d="M17.177,51.572c-0.314-0.113-0.81-0.18-0.964-0.431c-0.391-0.867-0.712-1.848-0.887-2.818
			c-0.042-0.183,0.58-0.824,0.782-0.779C16.953,47.667,17.826,50.633,17.177,51.572z"/>
		<path fill="#FFFFFF" d="M15.822,61.58c-0.293,1.234-0.489,2.057-0.768,3.143c-0.768-0.626-1.313-1.115-2.025-1.707
			C13.93,62.545,14.705,62.154,15.822,61.58z"/>
		<path fill="#FFFFFF" d="M19.593,56.658c1.899-0.097,1.976,0.656,0.433,3.562C19.844,59.01,19.739,57.925,19.593,56.658z"/>
		<path fill="#FFFFFF" d="M28.579,67.559c0.559-0.915,1.152-1.888,1.711-2.803c0.056,0.034,0.112,0.068,0.258,0.079
			c-0.447,0.984-0.894,1.967-1.375,3.008C28.949,67.706,28.782,67.604,28.579,67.559z"/>
	</g>
</g>
<g>
	<defs>
		<rect id="SVGID_3_" x="111.5" y="135.379" width="11.7" height="14.1"/>
	</defs>
	<clipPath id="SVGID_4_">
		<use xlink:href="#SVGID_3_"  overflow="visible"/>
	</clipPath>
	<g clip-path="url(#SVGID_4_)">
		<path fill="#020A13" d="M115.8,140.379c0.7-1.5,1.1-2.9,1.9-4.1c0.3-0.5,1.3-0.6,2-0.9c0.2,0.7,0.4,1.3,0.5,2c0,0.3-0.1,0.7-0.2,1
			c-1,2.2-1.2,3.9,1.9,4.5c0.5,0.1,0.9,1.3,1.3,1.9c-0.8,0.2-1.8,0.9-2.4,0.6c-2.1-1-3.4-0.9-3.7,1.8c-0.1,0.6-0.3,1.2-0.7,1.6
			c-0.5,0.4-1.2,0.8-1.8,0.8c-0.3,0-0.8-1-0.7-1.6c0-1,0.6-2,0.6-2.9c-0.2-1-0.8-1.8-1.3-2.6c-0.5-0.7-1.1-1.4-1.7-2.1
			c0.9-0.1,1.8-0.3,2.7-0.4C114.7,140.079,115.2,140.279,115.8,140.379z"/>
	</g>
</g>
<g>
	<circle fill="#00C6FC" cx="31.055" cy="86.122" r="7.5"/>
</g>
<path fill="#FFFFFF" d="M34.214,82.963c-0.042-0.042-0.095-0.071-0.153-0.084c-0.058-0.013-0.119-0.009-0.175,0.012l-6.875,2.5
	c-0.059,0.022-0.11,0.062-0.146,0.115c-0.036,0.052-0.055,0.114-0.055,0.178s0.019,0.125,0.055,0.178s0.087,0.092,0.146,0.115
	l2.685,1.072l1.981-1.987l0.441,0.441l-1.991,1.991l1.075,2.684c0.023,0.058,0.063,0.108,0.115,0.143
	c0.052,0.035,0.113,0.054,0.176,0.054c0.063-0.001,0.124-0.022,0.175-0.059c0.052-0.037,0.091-0.088,0.112-0.148l2.5-6.875
	c0.021-0.055,0.026-0.115,0.015-0.174C34.283,83.059,34.255,83.005,34.214,82.963z"/>
</svg>
