<svg width="140" height="126" viewBox="0 0 140 126" fill="none" xmlns="http://www.w3.org/2000/svg">
<g clip-path="url(#clip0)">
<path d="M61.0206 50.6751C63.705 51.0276 66.4132 51.0066 69.1078 51.1894C72.9723 51.4513 76.8391 51.6932 80.6746 52.3028C83.0305 52.6772 85.4191 52.7821 87.7778 53.2273C93.2785 54.2656 98.8032 55.1536 104.253 56.473C108.627 57.532 113.014 58.5352 117.36 59.7113C121.212 60.7538 124.952 62.1268 128.715 63.4358C129.242 63.6192 129.755 63.8613 130.081 64.3365C129.824 64.803 129.422 64.144 129.187 64.5492C129.431 64.9183 130.446 64.7717 130.084 65.3937C129.788 65.9025 129.107 66.2781 128.278 66.1365C127.126 65.939 126.18 65.2707 125.078 64.9687C120.193 63.6292 115.348 62.1458 110.382 61.0924C107.327 60.4448 104.29 59.6671 101.194 59.3056C99.4779 59.1051 97.883 58.3892 96.1495 58.374C95.7236 58.3702 95.3216 58.1051 94.8717 58.484C94.7048 58.6245 94.0141 58.8437 94.0206 58.0581C94.0224 57.8927 93.7138 57.9252 93.5285 57.8982C91.5207 57.6166 89.5147 57.0908 87.5088 57.0956C85.5557 57.1003 83.6723 56.6904 81.7451 56.5918C80.3834 56.5222 79.1069 55.7878 77.6837 55.8096C77.096 55.8186 76.5067 55.6885 75.9219 55.8597L75.2699 55.7527C73.8014 55.411 72.3213 55.2246 70.8122 55.4233C69.2831 55.0564 67.7008 54.9643 66.1387 55.1512C64.481 54.932 62.8408 54.6529 61.1541 55.0971C60.4533 55.2814 59.6654 55.1141 58.9199 55.1456C56.3787 55.2539 53.8387 55.3895 51.2973 55.4902C50.8272 55.5087 50.3139 55.6876 49.8902 55.3009C48.5904 55.0674 47.3109 55.2225 46.0386 55.5098C44.7611 55.849 43.4439 55.6977 42.1501 55.7713C40.4819 55.8659 38.8657 55.952 37.253 56.5345C35.9261 57.0137 34.4394 56.8452 33.028 57.1149C29.9431 57.704 26.7724 58.1334 23.8865 59.2844C20.7482 60.5361 17.3605 60.9205 14.3218 62.4158C13.5468 62.7973 12.8818 63.3755 11.999 63.5784C11.1002 63.7851 9.73794 63.2639 9.29979 62.2392C8.94105 61.4014 9.10277 60.555 9.91336 59.9315C11.3018 58.8628 12.8264 58.0201 14.397 57.2748C21.1547 54.0678 28.3201 52.2084 35.6528 50.9519C42.8097 49.7448 50.0508 49.1125 57.3067 49.061C61.0043 49.0242 64.6884 49.2831 68.3782 49.4668C72.175 49.6558 75.9624 49.8965 79.728 50.3978C83.0806 50.8441 86.4149 51.421 89.7501 51.9828C93.6566 52.6406 97.5502 53.3505 101.405 54.2255C110.65 56.3244 119.855 58.5919 128.653 62.2221C129.246 62.467 130.047 62.3738 130.403 63.1931C129.687 63.4926 129.055 63.2439 128.435 62.9967C123.899 61.1863 119.246 59.754 114.546 58.4179C107.619 56.4478 100.549 55.1568 93.5219 53.6626C90.1236 52.94 86.645 52.6024 83.2139 52.0239C78.713 51.265 74.1696 50.8863 69.6286 50.531C66.9127 50.3183 64.1749 50.1934 61.4421 50.4098C61.2435 50.4256 61.0692 50.4674 61.027 50.7015C60.5847 50.2672 60.027 50.4543 59.5202 50.4489C55.5754 50.4068 51.6357 50.5601 47.6968 50.7906C45.2247 50.9353 42.7689 51.2534 40.3023 51.4528C37.7067 51.6628 35.1274 52.2088 32.5762 52.7695C31.8538 52.9283 30.8862 52.6759 30.3847 53.5491C29.2636 53.1272 28.378 53.7936 27.4352 54.1935C28.4382 54.0708 29.446 53.9653 30.3755 53.5164C30.6354 53.5258 30.8957 53.5139 31.1537 53.481C38.5894 51.9459 46.1067 51.1337 53.6879 50.887C56.1319 50.8062 58.5764 50.7448 61.0206 50.6751ZM17.9998 57.0698C17.3147 57.2091 16.6081 57.321 16.1052 57.8764C16.7733 57.6951 17.4915 57.6468 17.9998 57.0698Z" fill="#007BFF"/>
</g>
<defs>
<clipPath id="clip0">
<rect width="112.88" height="84.816" fill="white" transform="translate(37.4961 0.0297852) rotate(25.8507)"/>
</clipPath>
</defs>
</svg>
