<svg width="237" height="51" viewBox="0 0 237 51" fill="none" xmlns="http://www.w3.org/2000/svg">
<path d="M164.646 24.5078C163.898 26.3889 161.106 26.3177 155.703 25.9794C144.079 25.2531 132.159 24.9011 120.305 24.6607C104.161 24.3338 87.9609 24.2887 71.7959 24.0544C61.6032 23.9072 51.8127 24.9828 41.8198 25.0201C32.9366 25.0531 25.3948 26.1489 17.4773 27.0371C16.2226 27.1779 15.1873 27.5188 13.9287 27.6491C11.8414 27.8654 11.5475 29.5938 7.35517 28.2059C3.73479 27.0071 2.09885 26.0299 5.61299 24.6521C10.7577 22.6352 18.2411 21.9785 25.6493 21.3219C46.5022 19.4743 67.9711 19.2276 89.4038 19.0593C111.963 18.8967 134.518 19.4467 156.731 20.701C165.884 21.2117 175.321 21.573 183.947 22.96C178.135 23.4221 172.629 22.6646 167.029 22.4588C160.793 22.2292 154.619 21.821 148.435 21.4605C146.563 21.3515 144.845 21.2544 143.672 21.8698C142.989 21.6726 142.408 21.3687 141.646 21.3145C128.056 20.3362 114.258 20.0901 100.372 20.2474C99.182 20.2609 99.4006 20.6484 99.1729 20.8881C98.5349 20.4728 97.6906 20.1343 96.1359 20.135C86.0871 20.1415 75.9951 19.9194 66.0345 20.6444C77.062 21.0649 88.1776 20.1843 99.1714 20.8634C114.12 20.6374 128.895 21.179 143.64 21.8589C147.582 22.0077 151.531 22.1413 155.465 22.31C158.853 22.4554 158.447 22.5062 159.454 23.7148C159.888 24.2351 162.537 24.4638 164.635 24.5145L164.646 24.5078Z" fill="#090909"/>
<path d="M164.636 24.5149C165.537 24.9552 166.956 25.076 167.915 24.6916C168.753 24.3547 167.733 24.0616 166.485 23.9463C165.266 23.8342 163.687 23.8681 163.541 22.9974C169.467 22.8979 175.192 23.44 180.02 24.2223C183.794 24.8335 189.897 23.9996 191.78 26.0606C192.125 26.4373 195.599 25.05 198.893 25.5821C202.846 26.2201 207.49 26.4442 211.358 27.1195C217.836 28.2495 225.328 28.5476 231.666 29.7778C233.441 30.1225 235.479 30.2568 235.337 31.0662C235.255 31.5402 234.285 31.8278 232.916 31.9887C233.56 30.436 226.584 33.1614 227.896 31.0847C228.464 30.1889 226.053 30.7062 225.254 30.7824C221.434 31.1445 218.376 29.7342 214.252 30.3761C213.45 30.5011 211.697 29.619 212.922 29.0019C214.925 27.9931 212.095 27.8535 210.408 27.7751C207.345 27.6325 209.347 28.3448 209.013 28.7181C207.652 30.2419 203.63 29.4692 201.614 29.1804C197.312 28.5639 193.698 27.7274 188.351 28.1838C184.898 28.479 187.322 26.9761 184.602 26.5489C182.542 27.1623 179.602 27.4628 176.045 27.3892C175.724 26.734 179.441 26.6273 177.961 25.7418C173.747 25.4156 166.931 27.1806 164.643 24.5082C164.643 24.5078 164.636 24.5149 164.636 24.5149Z" fill="#090909"/>
</svg>
