<svg width="65" height="65" viewBox="0 0 65 65" fill="none" xmlns="http://www.w3.org/2000/svg">
<path d="M9.99721 17.0408C13.797 12.9214 19.5468 10.8333 27.0841 10.8333H29.7924V18.4681L27.6149 18.9042C23.9045 19.6462 21.3235 21.106 19.9422 23.2483C19.2215 24.4024 18.8128 25.7239 18.756 27.0833H27.0841C27.8024 27.0833 28.4913 27.3687 28.9992 27.8766C29.5071 28.3845 29.7924 29.0734 29.7924 29.7917V48.75C29.7924 51.7373 27.363 54.1667 24.3758 54.1667H8.12575C7.40746 54.1667 6.71858 53.8813 6.21067 53.3734C5.70276 52.8655 5.41742 52.1766 5.41742 51.4583V37.9167L5.42555 30.011C5.40117 29.7104 4.88659 22.5875 9.99721 17.0408ZM54.1674 54.1667H37.9174C37.1991 54.1667 36.5103 53.8813 36.0023 53.3734C35.4944 52.8655 35.2091 52.1766 35.2091 51.4583V37.9167L35.2172 30.011C35.1928 29.7104 34.6783 22.5875 39.7889 17.0408C43.5887 12.9214 49.3385 10.8333 56.8758 10.8333H59.5841V18.4681L57.4066 18.9042C53.6962 19.6462 51.1151 21.106 49.7339 23.2483C49.0132 24.4024 48.6044 25.7239 48.5476 27.0833H56.8758C57.594 27.0833 58.2829 27.3687 58.7908 27.8766C59.2987 28.3845 59.5841 29.0734 59.5841 29.7917V48.75C59.5841 51.7373 57.1547 54.1667 54.1674 54.1667Z" fill="#091929"/>
</svg>
