<svg width="24" height="24" viewBox="0 0 24 24" fill="none" xmlns="http://www.w3.org/2000/svg">
<path d="M19 1H5C4.46957 1 3.96086 1.21071 3.58579 1.58579C3.21071 1.96086 3 2.46957 3 3V17C3 17.5304 3.21071 18.0391 3.58579 18.4142C3.96086 18.7893 4.46957 19 5 19H9L12 22L15 19H19C20.1 19 21 18.1 21 17V3C21 1.9 20.1 1 19 1ZM13 17H11V15H13V17ZM15.07 9.25L14.17 10.17C13.45 10.9 13 11.5 13 13H11V12.5C11 11.4 11.45 10.4 12.17 9.67L13.41 8.41C13.78 8.05 14 7.55 14 7C14 5.9 13.1 5 12 5C10.9 5 10 5.9 10 7H8C8 4.79 9.79 3 12 3C14.21 3 16 4.79 16 7C16 7.88 15.64 8.68 15.07 9.25Z" fill="#00C6FC"/>
</svg>
