<svg width="65" height="65" viewBox="0 0 65 65" fill="none" xmlns="http://www.w3.org/2000/svg">
<g clip-path="url(#clip0_406:4521)">
<path d="M21.556 11.5957H10.8893C8.06035 11.5957 5.34724 12.7195 3.34685 14.7199C1.34646 16.7203 0.222656 19.4334 0.222656 22.2624L0.222656 32.929C0.222656 34.3435 0.784559 35.7001 1.78475 36.7003C2.78495 37.7005 4.1415 38.2624 5.55599 38.2624H21.316C20.6833 41.9865 18.7546 45.3671 15.8707 47.8069C12.9869 50.2467 9.33346 51.5887 5.55599 51.5957C4.84875 51.5957 4.17047 51.8767 3.67037 52.3768C3.17027 52.8768 2.88932 53.5551 2.88932 54.2624C2.88932 54.9696 3.17027 55.6479 3.67037 56.148C4.17047 56.6481 4.84875 56.929 5.55599 56.929C11.212 56.9227 16.6345 54.673 20.6339 50.6736C24.6333 46.6742 26.883 41.2517 26.8893 35.5957V16.929C26.8893 15.5145 26.3274 14.158 25.3272 13.1578C24.327 12.1576 22.9705 11.5957 21.556 11.5957Z" fill="black"/>
<path d="M58.8892 11.5957H48.2225C45.3935 11.5957 42.6804 12.7195 40.68 14.7199C38.6797 16.7203 37.5558 19.4334 37.5558 22.2624V32.929C37.5558 34.3435 38.1178 35.7001 39.1179 36.7003C40.1181 37.7005 41.4747 38.2624 42.8892 38.2624H58.6492C58.0164 41.9865 56.0878 45.3671 53.2039 47.8069C50.3201 50.2467 46.6666 51.5887 42.8892 51.5957C42.1819 51.5957 41.5037 51.8767 41.0036 52.3768C40.5035 52.8768 40.2225 53.5551 40.2225 54.2624C40.2225 54.9696 40.5035 55.6479 41.0036 56.148C41.5037 56.6481 42.1819 56.929 42.8892 56.929C48.5452 56.9227 53.9677 54.673 57.9671 50.6736C61.9665 46.6742 64.2161 41.2517 64.2225 35.5957V16.929C64.2225 15.5145 63.6606 14.158 62.6604 13.1578C61.6602 12.1576 60.3037 11.5957 58.8892 11.5957Z" fill="black"/>
</g>
<defs>
<clipPath id="clip0_406:4521">
<rect width="64" height="64" fill="white" transform="translate(0.222656 0.929688)"/>
</clipPath>
</defs>
</svg>
