<svg width="18" height="19" viewBox="0 0 18 19" fill="none" xmlns="http://www.w3.org/2000/svg">
<path d="M0.843735 11.8829C1.30978 12.2556 1.90477 12.4278 2.49782 12.3618C3.09087 12.2957 3.63339 11.9968 4.00605 11.5308L7.14363 7.60912L9.89983 9.67683C10.3677 10.0275 10.9537 10.1822 11.5336 10.1083C12.1136 10.0344 12.6421 9.73763 13.007 9.28084L17.5069 3.65594C17.8797 3.1899 18.0522 2.59484 17.9862 2.00169C17.9203 1.40853 17.6214 0.865862 17.1554 0.493057C16.6893 0.120252 16.0943 -0.0521489 15.5011 0.0137807C14.908 0.0797103 14.3653 0.37857 13.9925 0.844613L10.8549 4.76629L8.09986 2.70196C7.63228 2.35105 7.04647 2.19592 6.4665 2.26942C5.88653 2.34291 5.35794 2.63926 4.99266 3.0957L0.492742 8.7206C0.12026 9.18662 -0.0519954 9.78145 0.0138174 10.3744C0.0796303 10.9673 0.378129 11.5099 0.843735 11.8829ZM1.12498 18.0017H16.8747C17.1731 18.0017 17.4592 17.8832 17.6702 17.6722C17.8812 17.4612 17.9997 17.1751 17.9997 16.8767C17.9997 16.5783 17.8812 16.2922 17.6702 16.0812C17.4592 15.8702 17.1731 15.7517 16.8747 15.7517H1.12498C0.826617 15.7517 0.540474 15.8702 0.329499 16.0812C0.118525 16.2922 0 16.5783 0 16.8767C0 17.1751 0.118525 17.4612 0.329499 17.6722C0.540474 17.8832 0.826617 18.0017 1.12498 18.0017Z" fill="#020A13"/>
</svg>
