<svg width="120" height="98" viewBox="0 0 120 98" fill="none" xmlns="http://www.w3.org/2000/svg">
<g clip-path="url(#clip0)">
<path d="M95.6558 30.541H16.5247V80.8525H95.6558V30.541Z" stroke="#091929" stroke-width="2" stroke-miterlimit="10"/>
<path d="M27.3934 10.4753C29.3219 10.4753 30.8852 8.91197 30.8852 6.9835C30.8852 5.05503 29.3219 3.4917 27.3934 3.4917C25.4649 3.4917 23.9016 5.05503 23.9016 6.9835C23.9016 8.91197 25.4649 10.4753 27.3934 10.4753Z" fill="#091929"/>
<path d="M99.4912 10.2292C100.032 9.8358 100.376 9.29481 100.77 8.75383C100.967 8.95055 100.622 8.99973 100.721 9.14727C100.18 9.73744 99.7371 10.3768 99.0485 10.8194C98.8518 10.9669 98.6551 11.1145 98.4584 11.262C98.3108 11.4096 98.2125 11.3604 98.0649 11.2128C97.9174 11.262 98.0649 11.4096 97.9666 11.5079C97.819 11.6063 97.6223 11.6555 97.4748 11.803C97.3764 11.9014 97.1305 11.7538 97.0813 11.9506C96.8846 11.9506 96.7862 12.1473 96.6387 12.2456C96.4912 12.344 96.2944 12.2948 96.1469 12.4424C96.0485 12.5407 95.9993 12.4424 95.901 12.344C95.6059 12.6391 95.2616 12.8358 94.8682 12.5899C94.819 12.6883 94.7698 12.8358 94.7207 12.885C94.4748 12.9833 94.1797 12.7866 94.0321 13.0325C93.9338 12.9342 93.8354 12.8358 93.8354 12.6883C93.7371 12.7866 93.7862 12.9342 93.6387 12.9342C93.5895 12.9342 93.4912 12.9342 93.442 12.9833C93.1469 13.1801 93.0977 13.1801 92.8026 12.9342C92.7043 12.9833 92.7534 13.1309 92.7534 13.2292C92.2616 13.1801 91.9666 13.5243 91.7207 13.9178C91.6223 13.8686 91.6715 13.7702 91.6223 13.721C91.3272 13.721 91.1797 13.426 90.983 13.2784C90.8846 13.3768 90.9829 13.4751 90.9338 13.5735C90.8846 13.6227 90.7862 13.6227 90.7371 13.6719C90.5403 13.7702 90.3928 13.721 90.3436 13.5735C90.2944 13.426 90.1469 13.2784 90.0485 13.1801C89.8518 12.9833 89.7043 12.7374 89.7534 12.3932C89.5567 12.344 89.4092 12.1965 89.3108 12.0489V11.6555L89.6551 11.3604C89.36 10.6227 89.0649 9.98334 88.7207 9.29481C88.4748 8.80301 88.278 8.36039 88.0321 7.86858C87.6879 7.22924 87.3436 6.58989 86.9502 5.99973C86.8026 5.80301 86.7534 5.50793 86.8026 5.26203C87.0977 4.91776 87.4911 4.72104 87.9829 5.01612C88.1305 5.11448 88.1797 4.8194 88.278 4.96694C88.3764 5.0653 88.4748 5.01612 88.5731 5.01612C88.6715 5.01612 88.819 5.0653 88.9174 4.91776C88.9666 4.86858 89.1141 4.86858 89.1633 4.86858C89.5567 4.91776 89.9502 4.8194 90.3436 4.72104C90.6879 4.62268 91.0813 4.67186 91.3764 4.42596C91.4748 4.37678 91.5239 4.47514 91.6223 4.52432C91.7207 4.42596 91.819 4.3276 91.9666 4.27842C92.7534 3.98334 93.4912 3.73744 94.2289 3.39317C94.6223 3.19645 94.9666 2.99973 95.36 2.80301C95.7534 2.60629 96.0977 2.36039 96.442 2.16367C97.0321 1.86858 97.4748 1.37678 98.0157 1.03252C98.4092 0.786616 98.7043 0.343993 99.1469 0.0980916C99.3436 -0.0002691 99.5403 -0.14781 99.8354 -0.0986298C99.8846 0.294813 100.229 0.245633 100.475 0.245633C100.524 0.294813 100.573 0.393174 100.622 0.393174C101.065 0.589895 101.311 0.983338 101.557 1.3276C101.606 1.37678 101.655 1.37678 101.606 1.47514C101.557 1.8194 101.753 2.16367 101.704 2.55711C101.655 3.34399 101.704 4.0817 101.704 4.86858C101.704 5.50793 101.557 6.19645 101.36 6.78662C101.114 7.62268 100.671 8.36039 100.131 9.04891C99.8846 9.34399 99.6387 9.63908 99.3928 9.88498C99.442 10.0817 99.442 10.1309 99.4912 10.2292ZM94.6223 5.65547C94.3764 5.80301 94.0813 5.90137 93.8354 5.99973C93.6879 6.04891 93.5403 5.99973 93.3928 6.04891C93.1961 6.14727 92.9502 6.09809 92.8518 6.19645C92.7043 6.39317 92.5075 6.34399 92.3108 6.39317C92.2125 6.39317 92.1633 6.39317 92.0649 6.44235C91.7698 6.5899 91.6715 6.88498 91.6223 7.18006C91.5731 7.3276 91.6715 7.47514 91.5731 7.62268C91.4748 7.77022 91.7207 7.91776 91.6223 8.0653C91.3764 8.50793 91.6715 8.99973 91.3764 9.44236C91.6715 9.63908 91.278 9.98334 91.4748 10.2292C91.5239 10.3276 91.278 10.426 91.3764 10.5735C91.5239 10.8194 91.4748 11.1145 91.5239 11.4096C91.7698 11.3604 92.0649 11.262 92.3108 11.2128C92.4092 11.1637 92.5075 11.0653 92.6551 11.0653C92.7534 11.0653 92.8518 11.0653 92.9502 10.9669C93.0977 11.1637 93.1469 10.9669 93.2453 10.9178C93.3436 10.8686 93.442 10.8194 93.5895 10.7702C94.0813 10.5243 94.5731 10.3276 95.0157 10.0817C95.6551 9.68826 96.2944 9.34399 96.7862 8.80301C97.0321 8.50793 97.3272 8.26203 97.6223 7.96694C97.9666 7.62268 98.2125 7.22924 98.4584 6.78662C99.0485 5.85219 99.1469 4.77022 99.3436 3.73744C99.3436 3.63908 99.3928 3.54071 99.2453 3.49153C99.1961 3.49153 99.1961 3.49153 99.1469 3.49153C98.5567 3.88498 98.0157 4.27842 97.3764 4.62268C96.8846 4.86858 96.3436 5.01612 95.901 5.36039C95.7043 5.26203 95.7043 5.21285 95.6059 5.31121C95.6059 5.31121 95.6059 5.36039 95.6059 5.40957C95.36 5.40957 95.1633 5.70465 94.9174 5.50793C94.819 5.45875 94.7207 5.45875 94.6223 5.50793C94.5239 5.50793 94.6715 5.55711 94.6223 5.65547Z" fill="#091929"/>
<path d="M97.3771 86.7543L93.3443 89.1149C91.3279 90.2953 91.3279 93.2461 93.3443 94.3772L97.3771 96.7379C99.3935 97.9182 101.951 96.4428 101.951 94.0822V89.41C101.951 87.0494 99.3935 85.574 97.3771 86.7543Z" fill="#091929"/>
<path d="M43.8689 56.5082C42.9344 54.0492 41.4099 49.9673 44.7049 48.6394C47.5082 47.5574 51.4426 48.6394 53.1148 51.0984C53.6066 51.8361 54.7869 51.9836 55.2295 51.0984C56.9017 48 60.1476 45.6886 63.7869 46.7705C67.8197 48 68.459 52.3279 67.7213 55.9673C66.4918 62.1148 61.5738 66.9836 55.4754 68.2132C53.9508 68.5574 54.5902 70.9181 56.1148 70.5738C64.4754 68.8525 71.1639 60.6886 70.3279 52.0328C69.9344 47.9017 67.2295 44.705 63.0492 44.1148C58.7705 43.5246 54.9836 46.2295 53.0164 49.8197C53.7049 49.8197 54.4426 49.8197 55.1312 49.8197C52.8689 46.3771 47.7049 44.7541 43.7213 46.3279C39.0984 48.1968 39.9836 53.4099 41.459 57.1476C42.0492 58.623 44.4099 57.9836 43.8689 56.5082Z" fill="#091929"/>
<path d="M21.9836 36.4427C22.5811 36.4427 23.0655 35.9583 23.0655 35.3608C23.0655 34.7632 22.5811 34.2788 21.9836 34.2788C21.386 34.2788 20.9016 34.7632 20.9016 35.3608C20.9016 35.9583 21.386 36.4427 21.9836 36.4427Z" fill="#091929"/>
<path d="M25.2785 36.4427C25.8761 36.4427 26.3605 35.9583 26.3605 35.3608C26.3605 34.7632 25.8761 34.2788 25.2785 34.2788C24.6809 34.2788 24.1965 34.7632 24.1965 35.3608C24.1965 35.9583 24.6809 36.4427 25.2785 36.4427Z" fill="#091929"/>
<path d="M28.4753 36.4427C29.0728 36.4427 29.5572 35.9583 29.5572 35.3608C29.5572 34.7632 29.0728 34.2788 28.4753 34.2788C27.8777 34.2788 27.3933 34.7632 27.3933 35.3608C27.3933 35.9583 27.8777 36.4427 28.4753 36.4427Z" fill="#091929"/>
<path d="M16.967 40.2297C42.7375 40.2297 68.4588 40.2297 94.2293 40.2297C95.0162 40.2297 95.3604 39.2461 94.3768 39.2461C68.6063 39.2461 42.885 39.2461 17.1145 39.2461C16.3276 39.2461 16.0325 40.2297 16.967 40.2297Z" fill="#091929"/>
<path d="M20.5082 82.8198C21.3934 79.5247 22.7705 76.4264 24.8852 73.7215C26.4098 71.8034 25.082 68.3116 22.2295 69.1969C19.3279 70.1313 17.459 72.0001 16.3279 74.7542C18.0492 75.246 19.8197 75.6887 21.541 76.1805C22.8197 73.0821 26.3115 70.9674 28.918 69.0985C31.7213 67.1313 34.623 65.3116 37.8689 64.1313C40.6721 63.0985 45.1475 61.869 47.9016 63.6395C50.6066 65.3608 50.8033 69.0985 49.5246 71.7542C46.5738 78.0493 38.0164 80.8034 31.8197 82.5739C28.2787 83.6067 24.5902 84.246 20.9016 84.2952C20.7541 84.2952 18.2459 84.1477 18.1967 84.246C18.9836 85.869 19.3771 86.1149 19.3771 84.9837C19.4262 84.7378 19.4754 84.4428 19.5738 84.1969C20.0164 82.2296 20.9508 80.3608 22.1803 78.787C24.2951 76.0821 20.5574 72.246 18.3443 74.951C15.9836 77.9018 13.2295 81.8854 12.2459 85.6231C11.2131 89.5575 15.6393 91.5739 18.2459 88.7706C21 85.8198 23.9508 82.4264 26.1148 78.9838C27.8852 76.1313 28.6721 72.0001 31.4754 69.9346C30.2459 68.7051 29.0164 67.4756 27.7869 66.246C25.6721 69.8362 23.5082 73.4264 21.3934 77.0165C19.918 79.4756 17.2131 83.1149 20.2623 85.6231C23.1639 87.9838 26.0656 84.7378 28.8689 84.1477C32.8033 83.3116 36.8853 83.4592 40.8197 82.5739C44.1639 81.8362 46.7705 80.3608 48.5902 77.41C50.2131 74.8034 53.1148 70.2788 52.3279 67.1313C51.5902 64.0821 48.4918 62.8526 45.6885 62.4592C42.1475 61.9182 38.3607 61.869 34.9672 63.0985C27.7377 65.7051 24.4918 72.787 21.7869 79.4264C21.3443 80.4592 22.082 81.9837 23.0164 82.4755C27.1475 84.5903 29.6066 81.1477 30.8853 77.7051C32.2623 74.0165 35.1639 70.869 38.8525 69.4428C40.082 69.0001 42.6393 68.1149 43.8689 69.0001C45.541 70.1805 42.7377 72.1477 41.7049 72.7378C37.7705 75.1477 33.2459 76.0329 28.6721 75.6887C29.3115 77.2133 29.9508 78.787 30.5902 80.3116C32.3115 78.246 33.9836 76.0821 35.9508 74.2133C37.5738 72.6887 41.0164 70.1313 43.4262 71.4592C43.0328 70.9182 42.5902 70.3772 42.1967 69.8362C42.3934 69.1477 42.2459 69.1477 41.7541 69.787C41.3607 70.0329 40.918 70.2788 40.4754 70.4756C39.5902 70.9182 38.7049 71.3116 37.7705 71.7051C35.7541 72.6395 33.6885 73.5247 31.6721 74.4592C32.9016 75.6887 34.1312 76.9182 35.3607 78.1477C36.6885 75.6887 38.4098 73.6723 40.5738 71.9018C43.2787 69.7378 39.4426 65.9018 36.7377 68.0657C34.2295 70.0821 32.1639 72.5411 30.6393 75.3936C29.2623 77.9018 31.918 80.1641 34.3279 79.0821C37.7705 77.5575 41.9508 76.2788 44.9508 74.0165C47.459 72.0985 48.9836 67.9182 45.2459 66.3444C37.4754 63.0985 30.9344 71.41 26.6557 76.4756C25.082 78.3444 26.1639 80.9018 28.5738 81.0985C34.2787 81.5903 40.2295 80.2133 44.9508 77.0165C48.9344 74.3608 52.082 68.3608 47.1639 64.7706C43.3279 61.9182 37.4754 63.5411 33.7869 65.8526C31.5738 67.2296 29.6557 69.0493 28.1312 71.1641C27.4426 72.1477 26.8525 73.1805 26.3115 74.2624C26.0164 74.9018 25.7705 75.5903 25.5246 76.2297C25.4262 76.4756 25.3771 76.7215 25.2787 76.9182C24.7377 77.5575 24.8361 77.8034 25.5738 77.7542C25.9672 78.787 26.4098 79.7706 26.8033 80.8034C28.7705 75.9837 31.2295 69.9837 36.5902 68.0657C39.2951 67.1313 43.0328 67.0329 45.7869 67.9182C46.1312 68.0165 46.7705 68.1149 47.0164 68.4592C46.623 67.869 46.3279 69.5411 46.1312 70.0329C45.4426 71.6067 44.6557 73.1805 43.7705 74.6067C42 77.3608 38.1639 77.6067 35.1639 78.0001C31.8689 78.3936 28.4754 78.246 25.3279 79.4756C24.7377 79.7215 24.1475 79.9674 23.6066 80.3116C22.4754 80.951 21.8852 80.8034 23.2623 81.8362C24.6885 82.9182 24.4918 82.1313 25.1803 80.951C25.6721 80.1641 26.1148 79.3772 26.6066 78.5411C28.4754 75.3444 30.3934 72.1477 32.2623 68.951C33.541 66.787 30.8361 63.5903 28.5738 65.2624C25.2787 67.6723 24 71.0657 22.1803 74.6067C21.1967 76.5247 19.918 78.1969 18.541 79.869C16.9672 81.7378 15.4426 84.0493 13.5738 85.6231C14.459 85.3772 15.3443 85.1805 16.2295 84.9346C16.0328 84.8854 15.8852 84.8854 15.6885 84.8362C16.2295 85.2296 16.7705 85.6723 17.3115 86.0657C17.7541 86.8526 18.2459 85.0821 18.3934 84.787C18.6885 84.1477 19.0328 83.5083 19.3771 82.869C20.1639 81.4428 21 80.0165 22.0328 78.787C20.7541 77.5083 19.4754 76.2296 18.1967 74.951C15.9344 77.8034 13.8197 81.5411 13.7705 85.328C13.7213 89.8526 18.2951 89.8034 21.6885 89.6559C30 89.3116 38.7541 86.7051 45.9344 82.5247C52.082 78.9837 57.541 72.0001 54.9344 64.5739C52.1312 56.5575 43.1312 56.4592 36.2951 58.9182C32.0656 60.4428 28.2787 62.8034 24.6885 65.41C21.1475 68.0165 17.9016 70.5739 16.2295 74.7051C14.9016 77.951 20.1148 79.328 21.4426 76.1313C21.8361 75.1969 22.623 74.6559 23.5574 74.3608C22.6721 72.8362 21.7869 71.3608 20.9016 69.8362C18.1967 73.2788 16.2295 77.0657 15.0984 81.3444C14.459 84.787 19.6721 86.2133 20.5082 82.8198Z" fill="#FEFDE0"/>
<path d="M101.558 43.9178C93.0002 45.885 85.0822 50.3112 79.033 56.7047C75.8855 60.049 73.4756 63.3932 74.3609 68.2621C75.1478 72.6883 78.9838 73.9178 82.9183 74.4588C87.9838 75.1473 92.5084 74.8522 97.2789 72.9834C101.558 71.3112 105.541 69.1473 109.131 66.2948C116.066 60.7375 120.738 51.885 119.263 42.8358C118.426 37.8686 114.197 35.0162 109.574 37.967C107.607 39.1965 106.328 41.1145 104.853 42.8358C102.984 44.9998 100.672 45.9834 98.0658 46.9178C99.1969 47.803 100.328 48.6391 101.508 49.5244C101.705 48.0981 104.115 47.1145 105.197 46.6227C106.82 45.8358 108.443 45.0981 109.869 44.0653C112.476 42.1473 114.197 39.4916 114.197 36.1965C112.377 36.1965 110.607 36.1965 108.787 36.1965C108.836 39.0981 111.64 44.508 108.148 46.0326C105 47.4096 101.41 47.9998 98.2133 49.3276C91.8199 51.9834 85.7707 55.8194 81.5412 61.3768C79.8691 63.5899 77.115 67.2785 79.0822 70.0817C80.9019 72.6391 84.3937 71.9014 87.0494 71.4588C93.2461 70.426 99.1478 67.6719 104.066 63.8358C109.672 59.508 113.853 53.8522 116.508 47.2621C117.59 44.6063 113.804 42.9342 111.984 44.6063C107.607 48.7867 102.836 52.5735 97.7215 55.8686C95.3117 57.3932 92.8527 58.8686 90.2953 60.1965C87.7871 61.5244 85.1314 62.6063 83.3117 64.9178C81.9347 66.6883 82.6724 69.4916 85.2297 69.5407C88.8691 69.5899 91.0822 67.1309 92.9019 64.2785C94.9183 61.0817 97.4756 58.8194 100.918 57.1965C104.066 55.7211 101.312 51.049 98.1642 52.5244C95.4592 53.803 92.951 55.5244 90.9838 57.7867C90.0494 58.8686 89.2133 59.9998 88.4265 61.1801C87.6396 62.4096 86.8527 64.1309 85.2297 64.1309C85.8691 65.6555 86.5084 67.2293 87.1478 68.7539C88.8691 66.5407 91.7707 65.6063 94.1806 64.2785C96.8363 62.8522 99.3937 61.3276 101.902 59.6555C106.869 56.3604 111.492 52.5735 115.82 48.4916C114.295 47.6063 112.82 46.7211 111.295 45.8358C108.738 52.2293 104.017 57.7375 98.1642 61.426C95.3609 63.1965 92.3117 64.5735 89.0658 65.4588C87.492 65.9014 85.8199 66.2457 84.197 66.3932C83.7543 66.4424 83.3609 66.4916 82.9183 66.4916C83.3117 66.7867 83.7052 67.1309 84.0986 67.426C84.3937 67.3768 85.5248 65.0653 85.7707 64.7703C90.3937 58.5244 97.9183 54.8358 105.148 52.5735C108.295 51.5899 112.181 51.0489 114.099 48.0489C116.607 44.1637 114.295 40.2785 114.246 36.1965C114.197 32.7047 108.836 32.7047 108.836 36.1965C108.836 39.8358 104.017 41.1145 101.41 42.4916C98.5084 44.0653 96.5412 46.1801 96.1478 49.5244C95.951 51.1965 98.0658 52.6719 99.5904 52.1309C102.689 51.049 105.738 49.8194 108.099 47.4096C109.082 46.426 109.869 45.2949 110.754 44.2621C111.197 43.7703 111.64 43.2293 112.181 42.8358C113.017 42.2457 113.361 41.9998 113.853 42.8358C114.492 43.967 114.295 46.1801 114.246 47.4588C114.148 49.1801 113.705 50.8522 113.115 52.4752C111.935 55.6227 109.918 58.3768 107.508 60.6883C102.836 65.1637 95.5084 69.2948 88.9674 69.5407C86.951 69.6391 80.7052 69.885 79.8199 67.5244C78.6396 64.3768 82.0822 61.426 84.0494 59.508C89.3117 54.344 95.9019 50.8522 103.082 49.1801C106.377 48.344 104.951 43.1309 101.558 43.9178Z" fill="#FEFDE0"/>
<path d="M16.9179 79.9674C12.3933 77.0658 11.4589 71.2625 12.4425 66.3444C13.5736 60.7379 16.8196 55.9182 18.5409 50.5084C19.5245 47.5084 15.1966 45.9346 13.5737 48.4428C11.0655 52.2789 8.75398 56.2625 6.73758 60.3936C4.91791 64.1805 3.14742 68.0166 2.75398 72.2461C2.01627 79.7707 6.04906 87.0985 13.3769 89.41C13.6228 87.6395 13.8687 85.869 14.1146 84.0985C9.98349 83.6559 8.50808 75.9838 8.26217 72.7871C7.91791 68.0658 9.39332 63.5412 12.8851 60.2953C11.3605 59.9018 9.88512 59.5084 8.36053 59.1149C10.0327 66.6887 6.73759 75.1969 13.0818 81.3444C15.1966 83.3608 17.9507 81.2461 17.6064 78.6887C16.672 72.0494 16.131 65.3608 15.8851 58.6723C15.7376 55.1805 10.3277 55.1805 10.4753 58.6723C10.7212 65.8526 11.4097 73.033 12.3933 80.1149C13.9179 79.2297 15.3933 78.3444 16.9179 77.4592C14.5573 75.1969 14.1638 72.0002 14.1146 68.8526C14.0655 65.0658 14.3605 61.3772 13.5737 57.6395C13.131 55.5739 10.4753 55.1313 9.04906 56.4592C3.93431 61.328 2.11463 68.4592 3.1966 75.2953C4.13103 81.3936 7.18021 88.869 14.1638 89.5576C17.3114 89.8526 17.6556 85.1313 14.9015 84.2461C8.7048 82.2789 7.18021 75.2461 8.85234 69.5903C10.7704 63.0985 14.6556 56.8526 18.3441 51.1969C16.672 50.5084 15.0491 49.8198 13.3769 49.1313C11.213 55.9182 7.08185 61.7215 6.73758 69.0494C6.4425 75.1969 8.9507 81.2953 14.2622 84.6887C17.1638 86.5576 19.8687 81.8854 16.9179 79.9674Z" fill="#FEFDE0"/>
<path d="M102.344 45.9346C102.59 42.3937 102.836 38.9019 103.033 35.3609C103.181 32.8035 102.885 29.3117 99.6887 28.8691C96.2953 28.3773 95.5576 31.5248 95.1642 34.1805C94.6723 37.574 94.4756 40.9674 94.5248 44.3609C96.3445 44.3609 98.115 44.3609 99.9346 44.3609C99.6887 41.2133 100.23 38.2133 101.902 35.5084C102.099 35.1641 102.295 34.8691 102.541 34.5248C102.344 34.6232 102.099 34.7215 101.902 34.8691C101.754 35.5084 101.853 36.5904 101.803 37.2789C101.705 38.9019 101.508 40.5248 100.771 42.0002C102.443 42.4428 104.115 42.9346 105.787 43.3773C105.836 42.8855 107.263 42.0986 107.558 41.7543C108.049 41.2625 108.492 40.7215 108.836 40.0822C109.722 38.5084 109.918 36.7379 110.164 35.0166C108.64 35.656 107.066 36.2953 105.541 36.9346C106.623 37.9182 107.312 38.951 107.754 40.3281C108.787 43.6232 114.049 42.1969 112.967 38.9019C112.23 36.6396 111.099 34.7707 109.377 33.1478C107.508 31.4264 105.049 32.8035 104.754 35.0658C104.459 37.2297 103.672 37.8691 102.295 39.2953C101.115 40.4756 100.574 41.8035 100.377 43.4756C100.082 46.1314 104.312 47.1641 105.394 44.8527C107.312 40.7707 109.525 29.5084 102.246 29.2625C99.1969 29.1642 97.3773 32.2625 96.2461 34.6723C94.8199 37.7707 94.2297 41.115 94.4756 44.5084C94.7707 47.951 99.9346 48.0494 99.8855 44.5084C99.8363 42.5412 99.8855 40.574 100.033 38.656C100.082 37.7215 100.181 36.7871 100.328 35.8527C100.377 35.4101 100.722 33.3937 100.525 33.6396C99.8855 33.8855 99.2461 34.1805 98.6068 34.4264C97.8199 33.5904 97.4756 33.6396 97.6723 34.5248C97.6232 35.1641 97.574 35.8035 97.5248 36.4428C97.4756 37.4264 97.3773 38.3609 97.3281 39.3445C97.1805 41.6068 97.033 43.8199 96.8855 46.0822C96.7379 49.4264 102.148 49.3773 102.344 45.9346Z" fill="#FEFDE0"/>
<path d="M45.9344 57C45.9344 57 45.7869 58.7705 45 59.5574" stroke="#091929" stroke-miterlimit="10" stroke-linecap="round"/>
<path d="M50.0654 58.3276C50.0654 58.3276 49.1801 60.2949 47.7539 60.885" stroke="#091929" stroke-miterlimit="10" stroke-linecap="round"/>
<path d="M53.164 60.8853C53.164 60.8853 51.8853 62.6066 50.3115 62.8033" stroke="#091929" stroke-miterlimit="10" stroke-linecap="round"/>
<path d="M54.6398 64.377C54.6398 64.377 53.3611 65.6065 52.0332 65.5573" stroke="#091929" stroke-miterlimit="10" stroke-linecap="round"/>
<path d="M82.2461 74.0447C82.2461 74.0447 82.8854 72.3725 83.869 71.8315" stroke="#091929" stroke-miterlimit="10" stroke-linecap="round"/>
<path d="M78.6562 71.6348C78.6562 71.6348 80.0333 70.0118 81.6071 69.8643" stroke="#091929" stroke-miterlimit="10" stroke-linecap="round"/>
<path d="M76.4424 68.2908C76.4424 68.2908 78.1637 67.0121 79.7375 67.258" stroke="#091929" stroke-miterlimit="10" stroke-linecap="round"/>
<path d="M76 64.5036C76 64.5036 77.5738 63.7167 78.8033 64.1102" stroke="#091929" stroke-miterlimit="10" stroke-linecap="round"/>
<path d="M56.5263 16.8834C56.9127 16.497 57.3377 16.1106 57.7241 15.7242C57.7628 15.6856 57.7628 15.6856 57.7628 15.6469C58.1105 15.2992 58.1105 15.2992 57.9173 14.7969C57.5309 13.9468 57.0286 13.1354 56.4491 12.3626C55.174 10.7784 53.6284 9.58058 51.8896 8.61461C51.1169 8.15094 50.2668 7.95774 49.4167 7.76455C48.9917 7.64863 48.4894 7.76455 48.0257 7.80319C46.9825 7.88047 45.9006 7.95774 44.8573 8.03502C44.4323 8.07366 44.1232 8.3055 43.8141 8.53733C43.0413 9.07828 42.2299 9.54195 41.4571 10.1215C40.723 10.6625 40.2593 11.4353 39.8343 12.2467C39.6797 12.5172 39.6797 12.8649 39.5638 13.1354C39.2547 13.9468 38.791 14.6809 38.2887 15.3764C37.7091 16.1106 37.1682 16.8834 36.5886 17.6561C35.4294 19.1631 33.9611 20.2063 32.1065 20.6313C31.3337 20.8245 30.5609 20.7473 29.8267 20.5154C28.7835 20.2063 27.7402 19.8199 26.6583 19.5108C25.1128 19.0858 23.5286 18.854 21.9057 19.2403C20.6307 19.5108 19.5488 20.1677 18.6214 21.1337C17.7714 22.0224 17.1145 23.0656 16.419 24.0702C15.453 25.4226 14.2939 26.6204 12.7483 27.3545C11.6664 27.8568 10.5072 28.1273 9.34806 28.2432C8.18888 28.3592 7.18427 28.8228 6.25693 29.4797C4.71137 30.6389 3.66812 32.1844 3.04989 34.0005C2.47031 35.7006 2.43167 37.478 2.8567 39.2167C3.359 41.3032 4.32498 43.0806 5.71599 44.7035C6.56605 45.6694 7.57066 46.5195 8.65255 47.215C9.96628 48.1037 11.3573 48.7992 12.8256 49.3015C14.1007 49.7652 15.453 50.1516 16.8054 50.3061C17.8873 50.4607 18.9692 50.538 20.0897 50.6539C20.2056 50.6539 20.3602 50.6925 20.4375 50.7698C21.2875 51.8517 22.3308 51.929 23.4513 51.3494C23.915 51.1176 24.3786 50.8084 24.8423 50.4993C25.2287 50.2289 25.6924 50.2675 26.1174 50.1516C27.1993 49.8811 28.2812 49.6106 29.3244 49.3015C30.7154 48.8765 32.0292 48.3355 33.2656 47.6014C34.5407 46.8673 35.7772 46.0945 37.0136 45.2831C37.6705 44.858 38.2887 44.3171 38.9069 43.8148C40.0275 42.8488 41.1093 41.8828 42.0367 40.7623C42.8481 39.7963 43.6595 38.8303 44.355 37.7871C45.0505 36.7825 45.5915 35.7006 46.1711 34.6573C47.0598 33.0731 47.6007 31.373 48.0257 29.5956C48.2576 28.6296 48.2962 27.625 48.2962 26.6204C48.2962 25.9635 48.3735 25.268 48.3349 24.6112C48.3349 24.1475 48.1803 23.6838 48.1417 23.2202C48.103 22.6792 48.103 22.0996 48.1803 21.52C48.2962 20.2836 48.4508 19.0085 48.5667 17.7721C48.644 16.922 48.7212 16.1106 49.069 15.2992C49.6099 14.1014 50.4986 13.3672 51.7351 13.0967C52.276 12.9808 52.817 13.174 53.2807 13.4445C54.208 13.9468 54.9035 14.7196 55.5217 15.531C55.9081 15.9947 56.1786 16.4197 56.5263 16.8834Z" fill="#091929"/>
<path d="M51.0787 19.5879C51.0014 23.4132 52.3151 26.7748 55.1358 29.4795C55.6767 30.0205 56.3336 30.4841 56.9904 30.8319C60.0429 32.4547 63.134 31.3342 64.4091 28.1272C65.2592 25.9634 65.2205 23.7223 64.6796 21.4813C63.7909 17.9651 61.9749 15.1058 58.536 13.2125C58.5746 13.1352 58.6519 13.0579 58.6905 13.0193C57.9564 12.7875 57.2609 12.5556 56.5268 12.3624C56.1404 12.3238 55.7926 12.3238 55.4062 12.2852C55.2517 12.6329 55.0198 12.942 54.7494 13.0966C51.9287 14.4103 51.1173 16.8446 51.0787 19.5879ZM52.5856 22.8336C55.754 21.0949 58.7678 19.472 61.8976 17.7719C63.6363 20.8244 64.4864 23.761 63.5591 27.0066C62.5931 30.4841 59.6179 31.5274 56.72 29.4023C54.5562 27.8181 53.3197 25.6156 52.5856 22.8336Z" fill="#091929"/>
<path d="M70.1802 30.1965C70.1802 30.1965 118.77 22.4752 118.77 47.4588C118.77 67.5736 85.1802 80.8031 77.5572 71.7539C71.1638 64.1801 76.5244 51.2949 98.1638 44.6555" stroke="#091929" stroke-width="1.5" stroke-miterlimit="10" stroke-linecap="round"/>
<path d="M16.5245 45.1475C16.5245 45.1475 -9.44267 70.1311 6.29504 86.5573C14.6557 95.3114 51.8852 87.295 55.3278 70.8688C58.7704 54.4425 39.6393 53.7048 28.4754 61.7704C22.5245 66.0983 16.4754 73.3278 16.4754 73.3278" stroke="#091929" stroke-width="1.5" stroke-miterlimit="10" stroke-linecap="round"/>
<path d="M8.55027 47.312C8.85417 47.312 9.10053 47.0656 9.10053 46.7617C9.10053 46.4578 8.85417 46.2114 8.55027 46.2114C8.24636 46.2114 8 46.4578 8 46.7617C8 47.0656 8.24636 47.312 8.55027 47.312Z" fill="#091929"/>
<path d="M8 43.6718C8 43.9681 8.25397 44.2221 8.55027 44.2221C8.84657 44.2221 9.10053 43.9681 9.10053 43.6718C9.10053 43.3755 8.84657 43.1216 8.55027 43.1216C8.25397 43.1216 8 43.3755 8 43.6718Z" fill="#091929"/>
<path d="M8.55027 41.1323C8.85417 41.1323 9.10053 40.8859 9.10053 40.582C9.10053 40.2781 8.85417 40.0317 8.55027 40.0317C8.24636 40.0317 8 40.2781 8 40.582C8 40.8859 8.24636 41.1323 8.55027 41.1323Z" fill="#091929"/>
<path d="M8 37.4922C8 37.7885 8.25397 38.0424 8.55027 38.0424C8.84657 38.0424 9.10053 37.7885 9.10053 37.4922C9.10053 37.1959 8.84657 36.9419 8.55027 36.9419C8.25397 36.9419 8 37.1959 8 37.4922Z" fill="#091929"/>
<path d="M8 34.4023C8 34.6986 8.25397 34.9526 8.55027 34.9526C8.84657 34.9526 9.10053 34.6986 9.10053 34.4023C9.10053 34.106 8.84657 33.8521 8.55027 33.8521C8.25397 33.8521 8 34.106 8 34.4023Z" fill="#091929"/>
<path d="M8 31.312C8 31.6083 8.25397 31.8622 8.55027 31.8622C8.84657 31.8622 9.10053 31.6083 9.10053 31.312C9.10053 31.0157 8.84657 30.7617 8.55027 30.7617C8.25397 30.7617 8 31.0157 8 31.312Z" fill="#091929"/>
<path d="M8 28.2221C8 28.5184 8.25397 28.7724 8.55027 28.7724C8.84657 28.7724 9.10053 28.5184 9.10053 28.2221C9.10053 27.9258 8.84657 27.6719 8.55027 27.6719C8.25397 27.6719 8 27.9258 8 28.2221Z" fill="#091929"/>
<path d="M11.6403 47.312C11.9442 47.312 12.1906 47.0656 12.1906 46.7617C12.1906 46.4578 11.9442 46.2114 11.6403 46.2114C11.3364 46.2114 11.0901 46.4578 11.0901 46.7617C11.0901 47.0656 11.3364 47.312 11.6403 47.312Z" fill="#091929"/>
<path d="M11.0901 43.6718C11.0901 43.9681 11.344 44.2221 11.6403 44.2221C11.9366 44.2221 12.1906 43.9681 12.1906 43.6718C12.1906 43.3755 11.9366 43.1216 11.6403 43.1216C11.344 43.1216 11.0901 43.3755 11.0901 43.6718Z" fill="#091929"/>
<path d="M11.6403 41.1323C11.9442 41.1323 12.1906 40.8859 12.1906 40.582C12.1906 40.2781 11.9442 40.0317 11.6403 40.0317C11.3364 40.0317 11.0901 40.2781 11.0901 40.582C11.0901 40.8859 11.3364 41.1323 11.6403 41.1323Z" fill="#091929"/>
<path d="M11.0901 37.4922C11.0901 37.7885 11.344 38.0424 11.6403 38.0424C11.9366 38.0424 12.1906 37.7885 12.1906 37.4922C12.1906 37.1959 11.9366 36.9419 11.6403 36.9419C11.344 36.9419 11.0901 37.1959 11.0901 37.4922Z" fill="#091929"/>
<path d="M11.0901 34.4023C11.0901 34.6986 11.344 34.9526 11.6403 34.9526C11.9366 34.9526 12.1906 34.6986 12.1906 34.4023C12.1906 34.106 11.9366 33.8521 11.6403 33.8521C11.344 33.8521 11.0901 34.106 11.0901 34.4023Z" fill="#091929"/>
<path d="M11.0901 31.312C11.0901 31.6083 11.344 31.8622 11.6403 31.8622C11.9366 31.8622 12.1906 31.6083 12.1906 31.312C12.1906 31.0157 11.9366 30.7617 11.6403 30.7617C11.344 30.7617 11.0901 31.0157 11.0901 31.312Z" fill="#091929"/>
<path d="M11.0901 28.2221C11.0901 28.5184 11.344 28.7724 11.6403 28.7724C11.9366 28.7724 12.1906 28.5184 12.1906 28.2221C12.1906 27.9258 11.9366 27.6719 11.6403 27.6719C11.344 27.6719 11.0901 27.9258 11.0901 28.2221Z" fill="#091929"/>
<path d="M14.7304 47.312C15.0343 47.312 15.2807 47.0656 15.2807 46.7617C15.2807 46.4578 15.0343 46.2114 14.7304 46.2114C14.4265 46.2114 14.1802 46.4578 14.1802 46.7617C14.1802 47.0656 14.4265 47.312 14.7304 47.312Z" fill="#091929"/>
<path d="M14.1802 43.6718C14.1802 43.9681 14.4341 44.2221 14.7304 44.2221C15.0267 44.2221 15.2807 43.9681 15.2807 43.6718C15.2807 43.3755 15.0267 43.1216 14.7304 43.1216C14.4341 43.1216 14.1802 43.3755 14.1802 43.6718Z" fill="#091929"/>
<path d="M14.7304 41.1323C15.0343 41.1323 15.2807 40.8859 15.2807 40.582C15.2807 40.2781 15.0343 40.0317 14.7304 40.0317C14.4265 40.0317 14.1802 40.2781 14.1802 40.582C14.1802 40.8859 14.4265 41.1323 14.7304 41.1323Z" fill="#091929"/>
<path d="M14.1802 37.4922C14.1802 37.7885 14.4341 38.0424 14.7304 38.0424C15.0267 38.0424 15.2807 37.7885 15.2807 37.4922C15.2807 37.1959 15.0267 36.9419 14.7304 36.9419C14.4341 36.9419 14.1802 37.1959 14.1802 37.4922Z" fill="#091929"/>
<path d="M14.1802 34.4023C14.1802 34.6986 14.4341 34.9526 14.7304 34.9526C15.0267 34.9526 15.2807 34.6986 15.2807 34.4023C15.2807 34.106 15.0267 33.8521 14.7304 33.8521C14.4341 33.8521 14.1802 34.106 14.1802 34.4023Z" fill="#091929"/>
<path d="M14.1802 31.312C14.1802 31.6083 14.4341 31.8622 14.7304 31.8622C15.0267 31.8622 15.2807 31.6083 15.2807 31.312C15.2807 31.0157 15.0267 30.7617 14.7304 30.7617C14.4341 30.7617 14.1802 31.0157 14.1802 31.312Z" fill="#091929"/>
<path d="M14.1802 28.2221C14.1802 28.5184 14.4341 28.7724 14.7304 28.7724C15.0267 28.7724 15.2807 28.5184 15.2807 28.2221C15.2807 27.9258 15.0267 27.6719 14.7304 27.6719C14.4341 27.6719 14.1802 27.9258 14.1802 28.2221Z" fill="#091929"/>
<path d="M17.82 47.312C18.1239 47.312 18.3703 47.0656 18.3703 46.7617C18.3703 46.4578 18.1239 46.2114 17.82 46.2114C17.5161 46.2114 17.2698 46.4578 17.2698 46.7617C17.2698 47.0656 17.5161 47.312 17.82 47.312Z" fill="#091929"/>
<path d="M17.2698 43.6718C17.2698 43.9681 17.5237 44.2221 17.82 44.2221C18.1163 44.2221 18.3703 43.9681 18.3703 43.6718C18.3703 43.3755 18.1163 43.1216 17.82 43.1216C17.5237 43.1216 17.2698 43.3755 17.2698 43.6718Z" fill="#091929"/>
<path d="M17.82 41.1323C18.1239 41.1323 18.3703 40.8859 18.3703 40.582C18.3703 40.2781 18.1239 40.0317 17.82 40.0317C17.5161 40.0317 17.2698 40.2781 17.2698 40.582C17.2698 40.8859 17.5161 41.1323 17.82 41.1323Z" fill="#091929"/>
<path d="M17.2698 37.4922C17.2698 37.7885 17.5237 38.0424 17.82 38.0424C18.1163 38.0424 18.3703 37.7885 18.3703 37.4922C18.3703 37.1959 18.1163 36.9419 17.82 36.9419C17.5237 36.9419 17.2698 37.1959 17.2698 37.4922Z" fill="#091929"/>
<path d="M17.2698 34.4023C17.2698 34.6986 17.5237 34.9526 17.82 34.9526C18.1163 34.9526 18.3703 34.6986 18.3703 34.4023C18.3703 34.106 18.1163 33.8521 17.82 33.8521C17.5237 33.8521 17.2698 34.106 17.2698 34.4023Z" fill="#091929"/>
<path d="M17.2698 31.312C17.2698 31.6083 17.5237 31.8622 17.82 31.8622C18.1163 31.8622 18.3703 31.6083 18.3703 31.312C18.3703 31.0157 18.1163 30.7617 17.82 30.7617C17.5237 30.7617 17.2698 31.0157 17.2698 31.312Z" fill="#091929"/>
<path d="M17.2698 28.2221C17.2698 28.5184 17.5237 28.7724 17.82 28.7724C18.1163 28.7724 18.3703 28.5184 18.3703 28.2221C18.3703 27.9258 18.1163 27.6719 17.82 27.6719C17.5237 27.6719 17.2698 27.9258 17.2698 28.2221Z" fill="#091929"/>
<path d="M20.3596 46.7617C20.3596 47.058 20.6136 47.312 20.9099 47.312C21.2062 47.312 21.4601 47.058 21.4601 46.7617C21.4601 46.4654 21.2062 46.2114 20.9099 46.2114C20.6136 46.2114 20.3596 46.4654 20.3596 46.7617Z" fill="#091929"/>
<path d="M20.3596 43.6718C20.3596 43.9681 20.6136 44.2221 20.9099 44.2221C21.2062 44.2221 21.4601 43.9681 21.4601 43.6718C21.4601 43.3755 21.2062 43.1216 20.9099 43.1216C20.6136 43.1216 20.3596 43.3755 20.3596 43.6718Z" fill="#091929"/>
<path d="M20.3596 40.582C20.3596 40.8783 20.6136 41.1323 20.9099 41.1323C21.2062 41.1323 21.4601 40.8783 21.4601 40.582C21.4601 40.2857 21.2062 40.0317 20.9099 40.0317C20.6136 40.0317 20.3596 40.2857 20.3596 40.582Z" fill="#091929"/>
<path d="M20.3596 37.4922C20.3596 37.7885 20.6136 38.0424 20.9099 38.0424C21.2062 38.0424 21.4601 37.7885 21.4601 37.4922C21.4601 37.1959 21.2062 36.9419 20.9099 36.9419C20.6136 36.9419 20.3596 37.1959 20.3596 37.4922Z" fill="#091929"/>
<path d="M20.3596 34.4023C20.3596 34.6986 20.6136 34.9526 20.9099 34.9526C21.2062 34.9526 21.4601 34.6986 21.4601 34.4023C21.4601 34.106 21.2062 33.8521 20.9099 33.8521C20.6136 33.8521 20.3596 34.106 20.3596 34.4023Z" fill="#091929"/>
<path d="M20.3596 31.312C20.3596 31.6083 20.6136 31.8622 20.9099 31.8622C21.2062 31.8622 21.4601 31.6083 21.4601 31.312C21.4601 31.0157 21.2062 30.7617 20.9099 30.7617C20.6136 30.7617 20.3596 31.0157 20.3596 31.312Z" fill="#091929"/>
<path d="M20.3596 28.2221C20.3596 28.5184 20.6136 28.7724 20.9099 28.7724C21.2062 28.7724 21.4601 28.5184 21.4601 28.2221C21.4601 27.9258 21.2062 27.6719 20.9099 27.6719C20.6136 27.6719 20.3596 27.9258 20.3596 28.2221Z" fill="#091929"/>
<path d="M24 47.312C24.3039 47.312 24.5502 47.0656 24.5502 46.7617C24.5502 46.4578 24.3039 46.2114 24 46.2114C23.6961 46.2114 23.4497 46.4578 23.4497 46.7617C23.4497 47.0656 23.6961 47.312 24 47.312Z" fill="#091929"/>
<path d="M23.4497 43.6718C23.4497 43.9681 23.7037 44.2221 24 44.2221C24.2963 44.2221 24.5502 43.9681 24.5502 43.6718C24.5502 43.3755 24.2963 43.1216 24 43.1216C23.6614 43.1216 23.4497 43.3755 23.4497 43.6718Z" fill="#091929"/>
<path d="M24 41.1323C24.3039 41.1323 24.5502 40.8859 24.5502 40.582C24.5502 40.2781 24.3039 40.0317 24 40.0317C23.6961 40.0317 23.4497 40.2781 23.4497 40.582C23.4497 40.8859 23.6961 41.1323 24 41.1323Z" fill="#091929"/>
<path d="M23.4497 37.4922C23.4497 37.7885 23.7037 38.0424 24 38.0424C24.2963 38.0424 24.5502 37.7885 24.5502 37.4922C24.5502 37.1959 24.2963 36.9419 24 36.9419C23.6614 36.9419 23.4497 37.1959 23.4497 37.4922Z" fill="#091929"/>
<path d="M23.4497 34.4023C23.4497 34.6986 23.7037 34.9526 24 34.9526C24.2963 34.9526 24.5502 34.6986 24.5502 34.4023C24.5502 34.106 24.2963 33.8521 24 33.8521C23.6614 33.8521 23.4497 34.106 23.4497 34.4023Z" fill="#091929"/>
<path d="M23.4497 31.312C23.4497 31.6083 23.7037 31.8622 24 31.8622C24.2963 31.8622 24.5502 31.6083 24.5502 31.312C24.5502 31.0157 24.2963 30.7617 24 30.7617C23.6614 30.7617 23.4497 31.0157 23.4497 31.312Z" fill="#091929"/>
<path d="M23.4497 28.2221C23.4497 28.5184 23.7037 28.7724 24 28.7724C24.2963 28.7724 24.5502 28.5184 24.5502 28.2221C24.5502 27.9258 24.2963 27.6719 24 27.6719C23.6614 27.6719 23.4497 27.9258 23.4497 28.2221Z" fill="#091929"/>
<path d="M27.0901 47.312C27.394 47.312 27.6403 47.0656 27.6403 46.7617C27.6403 46.4578 27.394 46.2114 27.0901 46.2114C26.7862 46.2114 26.5398 46.4578 26.5398 46.7617C26.5398 47.0656 26.7862 47.312 27.0901 47.312Z" fill="#091929"/>
<path d="M26.5398 43.6718C26.5398 43.9681 26.7938 44.2221 27.0901 44.2221C27.3863 44.2221 27.6403 43.9681 27.6403 43.6718C27.6403 43.3755 27.3863 43.1216 27.0901 43.1216C26.7938 43.1216 26.5398 43.3755 26.5398 43.6718Z" fill="#091929"/>
<path d="M27.0901 41.1323C27.394 41.1323 27.6403 40.8859 27.6403 40.582C27.6403 40.2781 27.394 40.0317 27.0901 40.0317C26.7862 40.0317 26.5398 40.2781 26.5398 40.582C26.5398 40.8859 26.7862 41.1323 27.0901 41.1323Z" fill="#091929"/>
<path d="M26.5398 37.4922C26.5398 37.7885 26.7938 38.0424 27.0901 38.0424C27.3863 38.0424 27.6403 37.7885 27.6403 37.4922C27.6403 37.1959 27.3863 36.9419 27.0901 36.9419C26.7938 36.9419 26.5398 37.1959 26.5398 37.4922Z" fill="#091929"/>
<path d="M26.5398 34.4023C26.5398 34.6986 26.7938 34.9526 27.0901 34.9526C27.3863 34.9526 27.6403 34.6986 27.6403 34.4023C27.6403 34.106 27.3863 33.8521 27.0901 33.8521C26.7938 33.8521 26.5398 34.106 26.5398 34.4023Z" fill="#091929"/>
<path d="M26.5398 31.312C26.5398 31.6083 26.7938 31.8622 27.0901 31.8622C27.3863 31.8622 27.6403 31.6083 27.6403 31.312C27.6403 31.0157 27.3863 30.7617 27.0901 30.7617C26.7938 30.7617 26.5398 31.0157 26.5398 31.312Z" fill="#091929"/>
<path d="M26.5398 28.2221C26.5398 28.5184 26.7938 28.7724 27.0901 28.7724C27.3863 28.7724 27.6403 28.5184 27.6403 28.2221C27.6403 27.9258 27.3863 27.6719 27.0901 27.6719C26.7938 27.6719 26.5398 27.9258 26.5398 28.2221Z" fill="#091929"/>
<path d="M8 25.1323C8 25.4286 8.25397 25.6826 8.55027 25.6826C8.84657 25.6826 9.10053 25.4286 9.10053 25.1323C9.10053 24.836 8.84657 24.582 8.55027 24.582C8.25397 24.582 8 24.7937 8 25.1323Z" fill="#091929"/>
<path d="M8 22C8 22.2963 8.25397 22.5502 8.55027 22.5502C8.84657 22.5502 9.10053 22.2963 9.10053 22C9.10053 21.7037 8.84657 21.4497 8.55027 21.4497C8.25397 21.492 8 21.7037 8 22Z" fill="#091929"/>
<path d="M8 18.9101C8 19.2064 8.25397 19.4604 8.55027 19.4604C8.84657 19.4604 9.10053 19.2064 9.10053 18.9101C9.10053 18.6138 8.84657 18.3599 8.55027 18.3599C8.25397 18.4022 8 18.6138 8 18.9101Z" fill="#091929"/>
<path d="M8.55027 16.3705C8.85417 16.3705 9.10053 16.1242 9.10053 15.8203C9.10053 15.5164 8.85417 15.27 8.55027 15.27C8.24636 15.27 8 15.5164 8 15.8203C8 16.1242 8.24636 16.3705 8.55027 16.3705Z" fill="#091929"/>
<path d="M8 12.73C8 13.0262 8.25397 13.2802 8.55027 13.2802C8.84657 13.2802 9.10053 13.0262 9.10053 12.73C9.10053 12.4337 8.84657 12.1797 8.55027 12.1797C8.25397 12.1797 8 12.4337 8 12.73Z" fill="#091929"/>
<path d="M8 9.64011C8 9.9364 8.25397 10.1904 8.55027 10.1904C8.84657 10.1904 9.10053 9.9364 9.10053 9.64011C9.10053 9.34381 8.84657 9.08984 8.55027 9.08984C8.25397 9.08984 8 9.34381 8 9.64011Z" fill="#091929"/>
<path d="M9.10053 6.55026C9.10053 6.25397 8.84657 6 8.55027 6C8.25397 6 8 6.25397 8 6.55026C8 6.84656 8.25397 7.10053 8.55027 7.10053C8.84657 7.10053 9.10053 6.84656 9.10053 6.55026Z" fill="#091929"/>
<path d="M11.0901 25.1323C11.0901 25.4286 11.344 25.6826 11.6403 25.6826C11.9366 25.6826 12.1906 25.4286 12.1906 25.1323C12.1906 24.836 11.9366 24.582 11.6403 24.582C11.344 24.582 11.0901 24.7937 11.0901 25.1323Z" fill="#091929"/>
<path d="M11.0901 22C11.0901 22.2963 11.344 22.5502 11.6403 22.5502C11.9366 22.5502 12.1906 22.2963 12.1906 22C12.1906 21.7037 11.9366 21.4497 11.6403 21.4497C11.344 21.4497 11.0901 21.7037 11.0901 22Z" fill="#091929"/>
<path d="M11.0901 18.9101C11.0901 19.2064 11.344 19.4604 11.6403 19.4604C11.9366 19.4604 12.1906 19.2064 12.1906 18.9101C12.1906 18.6138 11.9366 18.3599 11.6403 18.3599C11.344 18.3599 11.0901 18.6138 11.0901 18.9101Z" fill="#091929"/>
<path d="M11.6403 16.3705C11.9442 16.3705 12.1906 16.1242 12.1906 15.8203C12.1906 15.5164 11.9442 15.27 11.6403 15.27C11.3364 15.27 11.0901 15.5164 11.0901 15.8203C11.0901 16.1242 11.3364 16.3705 11.6403 16.3705Z" fill="#091929"/>
<path d="M11.0901 12.73C11.0901 13.0262 11.344 13.2802 11.6403 13.2802C11.9366 13.2802 12.1906 13.0262 12.1906 12.73C12.1906 12.4337 11.9366 12.1797 11.6403 12.1797C11.344 12.1797 11.0901 12.4337 11.0901 12.73Z" fill="#091929"/>
<path d="M11.0901 9.64011C11.0901 9.9364 11.344 10.1904 11.6403 10.1904C11.9366 10.1904 12.1906 9.9364 12.1906 9.64011C12.1906 9.34381 11.9366 9.08984 11.6403 9.08984C11.344 9.08984 11.0901 9.34381 11.0901 9.64011Z" fill="#091929"/>
<path d="M11.0901 6.55026C11.0901 6.84656 11.344 7.10053 11.6403 7.10053C11.9366 7.10053 12.1906 6.84656 12.1906 6.55026C12.1906 6.25397 11.9366 6 11.6403 6C11.344 6 11.0901 6.25397 11.0901 6.55026Z" fill="#091929"/>
<path d="M14.1802 25.1323C14.1802 25.4286 14.4341 25.6826 14.7304 25.6826C15.0267 25.6826 15.2807 25.4286 15.2807 25.1323C15.2807 24.836 15.0267 24.582 14.7304 24.582C14.4341 24.582 14.1802 24.7937 14.1802 25.1323Z" fill="#091929"/>
<path d="M14.1802 22C14.1802 22.2963 14.4341 22.5502 14.7304 22.5502C15.0267 22.5502 15.2807 22.2963 15.2807 22C15.2807 21.7037 15.0267 21.4497 14.7304 21.4497C14.4341 21.492 14.1802 21.7037 14.1802 22Z" fill="#091929"/>
<path d="M14.1802 18.9101C14.1802 19.2064 14.4341 19.4604 14.7304 19.4604C15.0267 19.4604 15.2807 19.2064 15.2807 18.9101C15.2807 18.6138 15.0267 18.3599 14.7304 18.3599C14.4341 18.4022 14.1802 18.6138 14.1802 18.9101Z" fill="#091929"/>
<path d="M14.7304 16.3705C15.0343 16.3705 15.2807 16.1242 15.2807 15.8203C15.2807 15.5164 15.0343 15.27 14.7304 15.27C14.4265 15.27 14.1802 15.5164 14.1802 15.8203C14.1802 16.1242 14.4265 16.3705 14.7304 16.3705Z" fill="#091929"/>
<path d="M14.1802 12.73C14.1802 13.0262 14.4341 13.2802 14.7304 13.2802C15.0267 13.2802 15.2807 13.0262 15.2807 12.73C15.2807 12.4337 15.0267 12.1797 14.7304 12.1797C14.4341 12.1797 14.1802 12.4337 14.1802 12.73Z" fill="#091929"/>
<path d="M14.1802 9.64011C14.1802 9.9364 14.4341 10.1904 14.7304 10.1904C15.0267 10.1904 15.2807 9.9364 15.2807 9.64011C15.2807 9.34381 15.0267 9.08984 14.7304 9.08984C14.4341 9.08984 14.1802 9.34381 14.1802 9.64011Z" fill="#091929"/>
<path d="M14.1802 6.55026C14.1802 6.84656 14.4341 7.10053 14.7304 7.10053C15.0267 7.10053 15.2807 6.84656 15.2807 6.55026C15.2807 6.25397 15.0267 6 14.7304 6C14.4341 6 14.1802 6.25397 14.1802 6.55026Z" fill="#091929"/>
<path d="M17.2698 25.1323C17.2698 25.4286 17.5237 25.6826 17.82 25.6826C18.1163 25.6826 18.3703 25.4286 18.3703 25.1323C18.3703 24.836 18.1163 24.582 17.82 24.582C17.5237 24.582 17.2698 24.7937 17.2698 25.1323Z" fill="#091929"/>
<path d="M17.2698 22C17.2698 22.2963 17.5237 22.5502 17.82 22.5502C18.1163 22.5502 18.3703 22.2963 18.3703 22C18.3703 21.7037 18.1163 21.4497 17.82 21.4497C17.5237 21.492 17.2698 21.7037 17.2698 22Z" fill="#091929"/>
<path d="M17.2698 18.9101C17.2698 19.2064 17.5237 19.4604 17.82 19.4604C18.1163 19.4604 18.3703 19.2064 18.3703 18.9101C18.3703 18.6138 18.1163 18.3599 17.82 18.3599C17.5237 18.4022 17.2698 18.6138 17.2698 18.9101Z" fill="#091929"/>
<path d="M17.82 16.3705C18.1239 16.3705 18.3703 16.1242 18.3703 15.8203C18.3703 15.5164 18.1239 15.27 17.82 15.27C17.5161 15.27 17.2698 15.5164 17.2698 15.8203C17.2698 16.1242 17.5161 16.3705 17.82 16.3705Z" fill="#091929"/>
<path d="M17.2698 12.73C17.2698 13.0262 17.5237 13.2802 17.82 13.2802C18.1163 13.2802 18.3703 13.0262 18.3703 12.73C18.3703 12.4337 18.1163 12.1797 17.82 12.1797C17.5237 12.1797 17.2698 12.4337 17.2698 12.73Z" fill="#091929"/>
<path d="M17.2698 9.64011C17.2698 9.9364 17.5237 10.1904 17.82 10.1904C18.1163 10.1904 18.3703 9.9364 18.3703 9.64011C18.3703 9.34381 18.1163 9.08984 17.82 9.08984C17.5237 9.08984 17.2698 9.34381 17.2698 9.64011Z" fill="#091929"/>
<path d="M17.2698 6.55026C17.2698 6.84656 17.5237 7.10053 17.82 7.10053C18.1163 7.10053 18.3703 6.84656 18.3703 6.55026C18.3703 6.25397 18.1163 6 17.82 6C17.5237 6 17.2698 6.25397 17.2698 6.55026Z" fill="#091929"/>
<path d="M20.3596 25.1323C20.3596 25.4286 20.6136 25.6826 20.9099 25.6826C21.2062 25.6826 21.4601 25.4286 21.4601 25.1323C21.4601 24.836 21.2062 24.582 20.9099 24.582C20.6136 24.582 20.3596 24.7937 20.3596 25.1323Z" fill="#091929"/>
<path d="M20.3596 22C20.3596 22.2963 20.6136 22.5502 20.9099 22.5502C21.2062 22.5502 21.4601 22.2963 21.4601 22C21.4601 21.7037 21.2062 21.4497 20.9099 21.4497C20.6136 21.4497 20.3596 21.7037 20.3596 22Z" fill="#091929"/>
<path d="M20.3596 18.9101C20.3596 19.2064 20.6136 19.4604 20.9099 19.4604C21.2062 19.4604 21.4601 19.2064 21.4601 18.9101C21.4601 18.6138 21.2062 18.3599 20.9099 18.3599C20.6136 18.3599 20.3596 18.6138 20.3596 18.9101Z" fill="#091929"/>
<path d="M20.3596 15.8203C20.3596 16.1166 20.6136 16.3705 20.9099 16.3705C21.2062 16.3705 21.4601 16.1166 21.4601 15.8203C21.4601 15.524 21.2062 15.27 20.9099 15.27C20.6136 15.27 20.3596 15.524 20.3596 15.8203Z" fill="#091929"/>
<path d="M20.3596 12.73C20.3596 13.0262 20.6136 13.2802 20.9099 13.2802C21.2062 13.2802 21.4601 13.0262 21.4601 12.73C21.4601 12.4337 21.2062 12.1797 20.9099 12.1797C20.6136 12.1797 20.3596 12.4337 20.3596 12.73Z" fill="#091929"/>
<path d="M20.3596 9.64011C20.3596 9.9364 20.6136 10.1904 20.9099 10.1904C21.2062 10.1904 21.4601 9.9364 21.4601 9.64011C21.4601 9.34381 21.2062 9.08984 20.9099 9.08984C20.6136 9.08984 20.3596 9.34381 20.3596 9.64011Z" fill="#091929"/>
<path d="M20.3596 6.55026C20.3596 6.84656 20.6136 7.10053 20.9099 7.10053C21.2062 7.10053 21.4601 6.84656 21.4601 6.55026C21.4601 6.25397 21.2062 6 20.9099 6C20.6136 6 20.3596 6.25397 20.3596 6.55026Z" fill="#091929"/>
<path d="M23.4497 25.1323C23.4497 25.4286 23.7037 25.6826 24 25.6826C24.2963 25.6826 24.5502 25.4286 24.5502 25.1323C24.5502 24.836 24.2963 24.582 24 24.582C23.6614 24.582 23.4497 24.7937 23.4497 25.1323Z" fill="#091929"/>
<path d="M23.4497 22C23.4497 22.2963 23.7037 22.5502 24 22.5502C24.2963 22.5502 24.5502 22.2963 24.5502 22C24.5502 21.7037 24.2963 21.4497 24 21.4497C23.6614 21.492 23.4497 21.7037 23.4497 22Z" fill="#091929"/>
<path d="M23.4497 18.9101C23.4497 19.2064 23.7037 19.4604 24 19.4604C24.2963 19.4604 24.5502 19.2064 24.5502 18.9101C24.5502 18.6138 24.2963 18.3599 24 18.3599C23.6614 18.4022 23.4497 18.6138 23.4497 18.9101Z" fill="#091929"/>
<path d="M24 16.3705C24.3039 16.3705 24.5502 16.1242 24.5502 15.8203C24.5502 15.5164 24.3039 15.27 24 15.27C23.6961 15.27 23.4497 15.5164 23.4497 15.8203C23.4497 16.1242 23.6961 16.3705 24 16.3705Z" fill="#091929"/>
<path d="M23.4497 12.73C23.4497 13.0262 23.7037 13.2802 24 13.2802C24.2963 13.2802 24.5502 13.0262 24.5502 12.73C24.5502 12.4337 24.2963 12.1797 24 12.1797C23.6614 12.1797 23.4497 12.4337 23.4497 12.73Z" fill="#091929"/>
<path d="M23.4497 9.64011C23.4497 9.9364 23.7037 10.1904 24 10.1904C24.2963 10.1904 24.5502 9.9364 24.5502 9.64011C24.5502 9.34381 24.2963 9.08984 24 9.08984C23.6614 9.08984 23.4497 9.34381 23.4497 9.64011Z" fill="#091929"/>
<path d="M23.4497 6.55026C23.4497 6.84656 23.7037 7.10053 24 7.10053C24.2963 7.10053 24.5502 6.84656 24.5502 6.55026C24.5502 6.25397 24.2963 6 24 6C23.6614 6 23.4497 6.25397 23.4497 6.55026Z" fill="#091929"/>
<path d="M26.5398 25.1323C26.5398 25.4286 26.7938 25.6826 27.0901 25.6826C27.3863 25.6826 27.6403 25.4286 27.6403 25.1323C27.6403 24.836 27.3863 24.582 27.0901 24.582C26.7938 24.582 26.5398 24.7937 26.5398 25.1323Z" fill="#091929"/>
<path d="M26.5398 22C26.5398 22.2963 26.7938 22.5502 27.0901 22.5502C27.3863 22.5502 27.6403 22.2963 27.6403 22C27.6403 21.7037 27.3863 21.4497 27.0901 21.4497C26.7938 21.492 26.5398 21.7037 26.5398 22Z" fill="#091929"/>
<path d="M26.5398 18.9101C26.5398 19.2064 26.7938 19.4604 27.0901 19.4604C27.3863 19.4604 27.6403 19.2064 27.6403 18.9101C27.6403 18.6138 27.3863 18.3599 27.0901 18.3599C26.7938 18.4022 26.5398 18.6138 26.5398 18.9101Z" fill="#091929"/>
<path d="M27.0901 16.3705C27.394 16.3705 27.6403 16.1242 27.6403 15.8203C27.6403 15.5164 27.394 15.27 27.0901 15.27C26.7862 15.27 26.5398 15.5164 26.5398 15.8203C26.5398 16.1242 26.7862 16.3705 27.0901 16.3705Z" fill="#091929"/>
<path d="M26.5398 12.73C26.5398 13.0262 26.7938 13.2802 27.0901 13.2802C27.3863 13.2802 27.6403 13.0262 27.6403 12.73C27.6403 12.4337 27.3863 12.1797 27.0901 12.1797C26.7938 12.1797 26.5398 12.4337 26.5398 12.73Z" fill="#091929"/>
<path d="M26.5398 9.64011C26.5398 9.9364 26.7938 10.1904 27.0901 10.1904C27.3863 10.1904 27.6403 9.9364 27.6403 9.64011C27.6403 9.34381 27.3863 9.08984 27.0901 9.08984C26.7938 9.08984 26.5398 9.34381 26.5398 9.64011Z" fill="#091929"/>
<path d="M26.5398 6.55026C26.5398 6.84656 26.7938 7.10053 27.0901 7.10053C27.3863 7.10053 27.6403 6.84656 27.6403 6.55026C27.6403 6.25397 27.3863 6 27.0901 6C26.7938 6 26.5398 6.25397 26.5398 6.55026Z" fill="#091929"/>
</g>
<defs>
<clipPath id="clip0">
<rect width="120" height="97.1311" fill="white"/>
</clipPath>
</defs>
</svg>
