<svg width="110" height="102" viewBox="0 0 110 102" fill="none" xmlns="http://www.w3.org/2000/svg">
<g clip-path="url(#clip0)">
<path d="M85.6757 82.762C85.9831 82.762 86.2322 82.5129 86.2322 82.2055C86.2322 81.8981 85.9831 81.6489 85.6757 81.6489C85.3683 81.6489 85.1191 81.8981 85.1191 82.2055C85.1191 82.5129 85.3683 82.762 85.6757 82.762Z" fill="black"/>
<path d="M85.1191 79.0951C85.1191 79.3898 85.3811 79.6517 85.6757 79.6517C85.9703 79.6517 86.2322 79.3898 86.2322 79.0951C86.2322 78.8005 85.9703 78.5386 85.6757 78.5386C85.3811 78.5386 85.1191 78.8005 85.1191 79.0951Z" fill="black"/>
<path d="M85.6757 76.5418C85.9831 76.5418 86.2322 76.2926 86.2322 75.9853C86.2322 75.6779 85.9831 75.4287 85.6757 75.4287C85.3683 75.4287 85.1191 75.6779 85.1191 75.9853C85.1191 76.2926 85.3683 76.5418 85.6757 76.5418Z" fill="black"/>
<path d="M85.1191 72.8749C85.1191 73.1695 85.3811 73.4314 85.6757 73.4314C85.9703 73.4314 86.2322 73.1695 86.2322 72.8749C86.2322 72.5803 85.9703 72.3184 85.6757 72.3184C85.3811 72.3184 85.1191 72.5475 85.1191 72.8749Z" fill="black"/>
<path d="M85.1191 69.7323C85.1191 70.027 85.3811 70.2889 85.6757 70.2889C85.9703 70.2889 86.2322 70.027 86.2322 69.7323C86.2322 69.4377 85.9703 69.1758 85.6757 69.1758C85.3811 69.2085 85.1191 69.4377 85.1191 69.7323Z" fill="black"/>
<path d="M85.1191 66.622C85.1191 66.9166 85.3811 67.1785 85.6757 67.1785C85.9703 67.1785 86.2322 66.9166 86.2322 66.622C86.2322 66.3273 85.9703 66.0654 85.6757 66.0654C85.3811 66.0654 85.1191 66.3273 85.1191 66.622Z" fill="black"/>
<path d="M85.1191 63.5121C85.1191 63.8068 85.3811 64.0687 85.6757 64.0687C85.9703 64.0687 86.2322 63.8068 86.2322 63.5121C86.2322 63.2175 85.9703 62.9556 85.6757 62.9556C85.3811 62.9556 85.1191 63.1847 85.1191 63.5121Z" fill="black"/>
<path d="M88.7858 82.762C89.0932 82.762 89.3423 82.5129 89.3423 82.2055C89.3423 81.8981 89.0932 81.6489 88.7858 81.6489C88.4784 81.6489 88.2292 81.8981 88.2292 82.2055C88.2292 82.5129 88.4784 82.762 88.7858 82.762Z" fill="black"/>
<path d="M88.2292 79.0951C88.2292 79.3898 88.4912 79.6517 88.7858 79.6517C89.0804 79.6517 89.3423 79.3898 89.3423 79.0951C89.3423 78.8005 89.0804 78.5386 88.7858 78.5386C88.4912 78.5386 88.2292 78.8005 88.2292 79.0951Z" fill="black"/>
<path d="M88.7858 76.5418C89.0932 76.5418 89.3423 76.2926 89.3423 75.9853C89.3423 75.6779 89.0932 75.4287 88.7858 75.4287C88.4784 75.4287 88.2292 75.6779 88.2292 75.9853C88.2292 76.2926 88.4784 76.5418 88.7858 76.5418Z" fill="black"/>
<path d="M88.2292 72.8749C88.2292 73.1695 88.4912 73.4314 88.7858 73.4314C89.0804 73.4314 89.3423 73.1695 89.3423 72.8749C89.3423 72.5803 89.0804 72.3184 88.7858 72.3184C88.4912 72.3184 88.2292 72.5475 88.2292 72.8749Z" fill="black"/>
<path d="M88.2292 69.7323C88.2292 70.027 88.4912 70.2889 88.7858 70.2889C89.0804 70.2889 89.3423 70.027 89.3423 69.7323C89.3423 69.4377 89.0804 69.1758 88.7858 69.1758C88.4912 69.1758 88.2292 69.4377 88.2292 69.7323Z" fill="black"/>
<path d="M88.2292 66.622C88.2292 66.9166 88.4912 67.1785 88.7858 67.1785C89.0804 67.1785 89.3423 66.9166 89.3423 66.622C89.3423 66.3273 89.0804 66.0654 88.7858 66.0654C88.4912 66.0654 88.2292 66.3273 88.2292 66.622Z" fill="black"/>
<path d="M88.2292 63.5121C88.2292 63.8068 88.4912 64.0687 88.7858 64.0687C89.0804 64.0687 89.3423 63.8068 89.3423 63.5121C89.3423 63.2175 89.0804 62.9556 88.7858 62.9556C88.4912 62.9556 88.2292 63.1847 88.2292 63.5121Z" fill="black"/>
<path d="M91.8959 82.762C92.2033 82.762 92.4524 82.5129 92.4524 82.2055C92.4524 81.8981 92.2033 81.6489 91.8959 81.6489C91.5885 81.6489 91.3394 81.8981 91.3394 82.2055C91.3394 82.5129 91.5885 82.762 91.8959 82.762Z" fill="black"/>
<path d="M91.3394 79.0951C91.3394 79.3898 91.6013 79.6517 91.8959 79.6517C92.1905 79.6517 92.4524 79.3898 92.4524 79.0951C92.4524 78.8005 92.1905 78.5386 91.8959 78.5386C91.6013 78.5386 91.3394 78.8005 91.3394 79.0951Z" fill="black"/>
<path d="M91.8959 76.5418C92.2033 76.5418 92.4524 76.2926 92.4524 75.9853C92.4524 75.6779 92.2033 75.4287 91.8959 75.4287C91.5885 75.4287 91.3394 75.6779 91.3394 75.9853C91.3394 76.2926 91.5885 76.5418 91.8959 76.5418Z" fill="black"/>
<path d="M91.3394 72.8749C91.3394 73.1695 91.6013 73.4314 91.8959 73.4314C92.1905 73.4314 92.4524 73.1695 92.4524 72.8749C92.4524 72.5803 92.1905 72.3184 91.8959 72.3184C91.6013 72.3184 91.3394 72.5475 91.3394 72.8749Z" fill="black"/>
<path d="M91.3394 69.7323C91.3394 70.027 91.6013 70.2889 91.8959 70.2889C92.1905 70.2889 92.4524 70.027 92.4524 69.7323C92.4524 69.4377 92.1905 69.1758 91.8959 69.1758C91.6013 69.2085 91.3394 69.4377 91.3394 69.7323Z" fill="black"/>
<path d="M91.3394 66.622C91.3394 66.9166 91.6013 67.1785 91.8959 67.1785C92.1905 67.1785 92.4524 66.9166 92.4524 66.622C92.4524 66.3273 92.1905 66.0654 91.8959 66.0654C91.6013 66.0654 91.3394 66.3273 91.3394 66.622Z" fill="black"/>
<path d="M91.3394 63.5121C91.3394 63.8068 91.6013 64.0687 91.8959 64.0687C92.1905 64.0687 92.4524 63.8068 92.4524 63.5121C92.4524 63.2175 92.1905 62.9556 91.8959 62.9556C91.6013 62.9556 91.3394 63.1847 91.3394 63.5121Z" fill="black"/>
<path d="M95.006 82.762C95.3134 82.762 95.5626 82.5129 95.5626 82.2055C95.5626 81.8981 95.3134 81.6489 95.006 81.6489C94.6986 81.6489 94.4495 81.8981 94.4495 82.2055C94.4495 82.5129 94.6986 82.762 95.006 82.762Z" fill="black"/>
<path d="M94.4495 79.0951C94.4495 79.3898 94.7114 79.6517 95.006 79.6517C95.3007 79.6517 95.5626 79.3898 95.5626 79.0951C95.5626 78.8005 95.3007 78.5386 95.006 78.5386C94.7114 78.5386 94.4495 78.8005 94.4495 79.0951Z" fill="black"/>
<path d="M95.006 76.5418C95.3134 76.5418 95.5626 76.2926 95.5626 75.9853C95.5626 75.6779 95.3134 75.4287 95.006 75.4287C94.6986 75.4287 94.4495 75.6779 94.4495 75.9853C94.4495 76.2926 94.6986 76.5418 95.006 76.5418Z" fill="black"/>
<path d="M94.4495 72.8749C94.4495 73.1695 94.7114 73.4314 95.006 73.4314C95.3007 73.4314 95.5626 73.1695 95.5626 72.8749C95.5626 72.5803 95.3007 72.3184 95.006 72.3184C94.7114 72.3184 94.4495 72.5475 94.4495 72.8749Z" fill="black"/>
<path d="M94.4495 69.7323C94.4495 70.027 94.7114 70.2889 95.006 70.2889C95.3007 70.2889 95.5626 70.027 95.5626 69.7323C95.5626 69.4377 95.3007 69.1758 95.006 69.1758C94.7114 69.1758 94.4495 69.4377 94.4495 69.7323Z" fill="black"/>
<path d="M94.4495 66.622C94.4495 66.9166 94.7114 67.1785 95.006 67.1785C95.3007 67.1785 95.5626 66.9166 95.5626 66.622C95.5626 66.3273 95.3007 66.0654 95.006 66.0654C94.7114 66.0654 94.4495 66.3273 94.4495 66.622Z" fill="black"/>
<path d="M94.4495 63.5121C94.4495 63.8068 94.7114 64.0687 95.006 64.0687C95.3007 64.0687 95.5626 63.8068 95.5626 63.5121C95.5626 63.2175 95.3007 62.9556 95.006 62.9556C94.7114 62.9556 94.4495 63.1847 94.4495 63.5121Z" fill="black"/>
<path d="M97.5928 82.2055C97.5928 82.5001 97.8547 82.762 98.1493 82.762C98.444 82.762 98.7059 82.5001 98.7059 82.2055C98.7059 81.9108 98.444 81.6489 98.1493 81.6489C97.8219 81.6817 97.5928 81.9108 97.5928 82.2055Z" fill="black"/>
<path d="M97.5928 79.0951C97.5928 79.3898 97.8547 79.6517 98.1493 79.6517C98.444 79.6517 98.7059 79.3898 98.7059 79.0951C98.7059 78.8005 98.444 78.5386 98.1493 78.5386C97.8219 78.5386 97.5928 78.8005 97.5928 79.0951Z" fill="black"/>
<path d="M97.5928 75.9853C97.5928 76.2799 97.8547 76.5418 98.1493 76.5418C98.444 76.5418 98.7059 76.2799 98.7059 75.9853C98.7059 75.6906 98.444 75.4287 98.1493 75.4287C97.8219 75.4287 97.5928 75.6906 97.5928 75.9853Z" fill="black"/>
<path d="M97.5928 72.8749C97.5928 73.1695 97.8547 73.4314 98.1493 73.4314C98.444 73.4314 98.7059 73.1695 98.7059 72.8749C98.7059 72.5803 98.444 72.3184 98.1493 72.3184C97.8219 72.3184 97.5928 72.5475 97.5928 72.8749Z" fill="black"/>
<path d="M97.5928 69.7323C97.5928 70.027 97.8547 70.2889 98.1493 70.2889C98.444 70.2889 98.7059 70.027 98.7059 69.7323C98.7059 69.4377 98.444 69.1758 98.1493 69.1758C97.8219 69.2085 97.5928 69.4377 97.5928 69.7323Z" fill="black"/>
<path d="M97.5928 66.622C97.5928 66.9166 97.8547 67.1785 98.1493 67.1785C98.444 67.1785 98.7059 66.9166 98.7059 66.622C98.7059 66.3273 98.444 66.0654 98.1493 66.0654C97.8219 66.0654 97.5928 66.3273 97.5928 66.622Z" fill="black"/>
<path d="M97.5928 63.5121C97.5928 63.8068 97.8547 64.0687 98.1493 64.0687C98.444 64.0687 98.7059 63.8068 98.7059 63.5121C98.7059 63.2175 98.444 62.9556 98.1493 62.9556C97.8219 62.9556 97.5928 63.1847 97.5928 63.5121Z" fill="black"/>
<path d="M101.226 82.762C101.534 82.762 101.783 82.5129 101.783 82.2055C101.783 81.8981 101.534 81.6489 101.226 81.6489C100.919 81.6489 100.67 81.8981 100.67 82.2055C100.67 82.5129 100.919 82.762 101.226 82.762Z" fill="black"/>
<path d="M100.67 79.0951C100.67 79.3898 100.932 79.6517 101.226 79.6517C101.521 79.6517 101.783 79.3898 101.783 79.0951C101.783 78.8005 101.521 78.5386 101.226 78.5386C100.932 78.5386 100.67 78.8005 100.67 79.0951Z" fill="black"/>
<path d="M101.226 76.5418C101.534 76.5418 101.783 76.2926 101.783 75.9853C101.783 75.6779 101.534 75.4287 101.226 75.4287C100.919 75.4287 100.67 75.6779 100.67 75.9853C100.67 76.2926 100.919 76.5418 101.226 76.5418Z" fill="black"/>
<path d="M100.67 72.8749C100.67 73.1695 100.932 73.4314 101.226 73.4314C101.521 73.4314 101.783 73.1695 101.783 72.8749C101.783 72.5803 101.521 72.3184 101.226 72.3184C100.932 72.3184 100.67 72.5475 100.67 72.8749Z" fill="black"/>
<path d="M100.67 69.7323C100.67 70.027 100.932 70.2889 101.226 70.2889C101.521 70.2889 101.783 70.027 101.783 69.7323C101.783 69.4377 101.521 69.1758 101.226 69.1758C100.932 69.2085 100.67 69.4377 100.67 69.7323Z" fill="black"/>
<path d="M100.67 66.622C100.67 66.9166 100.932 67.1785 101.226 67.1785C101.521 67.1785 101.783 66.9166 101.783 66.622C101.783 66.3273 101.521 66.0654 101.226 66.0654C100.932 66.0654 100.67 66.3273 100.67 66.622Z" fill="black"/>
<path d="M100.67 63.5121C100.67 63.8068 100.932 64.0687 101.226 64.0687C101.521 64.0687 101.783 63.8068 101.783 63.5121C101.783 63.2175 101.521 62.9556 101.226 62.9556C100.932 62.9556 100.67 63.1847 100.67 63.5121Z" fill="black"/>
<path d="M104.37 82.762C104.677 82.762 104.926 82.5129 104.926 82.2055C104.926 81.8981 104.677 81.6489 104.37 81.6489C104.062 81.6489 103.813 81.8981 103.813 82.2055C103.813 82.5129 104.062 82.762 104.37 82.762Z" fill="black"/>
<path d="M103.813 79.0951C103.813 79.3898 104.075 79.6517 104.37 79.6517C104.664 79.6517 104.926 79.3898 104.926 79.0951C104.926 78.8005 104.664 78.5386 104.37 78.5386C104.075 78.5386 103.813 78.8005 103.813 79.0951Z" fill="black"/>
<path d="M104.37 76.5418C104.677 76.5418 104.926 76.2926 104.926 75.9853C104.926 75.6779 104.677 75.4287 104.37 75.4287C104.062 75.4287 103.813 75.6779 103.813 75.9853C103.813 76.2926 104.062 76.5418 104.37 76.5418Z" fill="black"/>
<path d="M103.813 72.8749C103.813 73.1695 104.075 73.4314 104.37 73.4314C104.664 73.4314 104.926 73.1695 104.926 72.8749C104.926 72.5803 104.664 72.3184 104.37 72.3184C104.075 72.3184 103.813 72.5475 103.813 72.8749Z" fill="black"/>
<path d="M103.813 69.7323C103.813 70.027 104.075 70.2889 104.37 70.2889C104.664 70.2889 104.926 70.027 104.926 69.7323C104.926 69.4377 104.664 69.1758 104.37 69.1758C104.075 69.1758 103.813 69.4377 103.813 69.7323Z" fill="black"/>
<path d="M103.813 66.622C103.813 66.9166 104.075 67.1785 104.37 67.1785C104.664 67.1785 104.926 66.9166 104.926 66.622C104.926 66.3273 104.664 66.0654 104.37 66.0654C104.075 66.0654 103.813 66.3273 103.813 66.622Z" fill="black"/>
<path d="M103.813 63.5121C103.813 63.8068 104.075 64.0687 104.37 64.0687C104.664 64.0687 104.926 63.8068 104.926 63.5121C104.926 63.2175 104.664 62.9556 104.37 62.9556C104.075 62.9556 103.813 63.1847 103.813 63.5121Z" fill="black"/>
<path d="M85.1191 60.369C85.1191 60.6637 85.3811 60.9256 85.6757 60.9256C85.9703 60.9256 86.2322 60.6637 86.2322 60.369C86.2322 60.0744 85.9703 59.8125 85.6757 59.8125C85.3811 59.8452 85.1191 60.0744 85.1191 60.369Z" fill="black"/>
<path d="M85.1191 57.2592C85.1191 57.5538 85.3811 57.8157 85.6757 57.8157C85.9703 57.8157 86.2322 57.5538 86.2322 57.2592C86.2322 56.9645 85.9703 56.7026 85.6757 56.7026C85.3811 56.7026 85.1191 56.9645 85.1191 57.2592Z" fill="black"/>
<path d="M85.1191 54.1488C85.1191 54.4435 85.3811 54.7054 85.6757 54.7054C85.9703 54.7054 86.2322 54.4435 86.2322 54.1488C86.2322 53.8542 85.9703 53.5923 85.6757 53.5923C85.3811 53.5923 85.1191 53.8542 85.1191 54.1488Z" fill="black"/>
<path d="M88.2292 60.369C88.2292 60.6637 88.4912 60.9256 88.7858 60.9256C89.0804 60.9256 89.3423 60.6637 89.3423 60.369C89.3423 60.0744 89.0804 59.8125 88.7858 59.8125C88.4912 59.8125 88.2292 60.0744 88.2292 60.369Z" fill="black"/>
<path d="M88.2292 57.2592C88.2292 57.5538 88.4912 57.8157 88.7858 57.8157C89.0804 57.8157 89.3423 57.5538 89.3423 57.2592C89.3423 56.9645 89.0804 56.7026 88.7858 56.7026C88.4912 56.7026 88.2292 56.9645 88.2292 57.2592Z" fill="black"/>
<path d="M88.2292 54.1488C88.2292 54.4435 88.4912 54.7054 88.7858 54.7054C89.0804 54.7054 89.3423 54.4435 89.3423 54.1488C89.3423 53.8542 89.0804 53.5923 88.7858 53.5923C88.4912 53.5923 88.2292 53.8542 88.2292 54.1488Z" fill="black"/>
<path d="M88.7858 51.5955C89.0932 51.5955 89.3423 51.3463 89.3423 51.039C89.3423 50.7316 89.0932 50.4824 88.7858 50.4824C88.4784 50.4824 88.2292 50.7316 88.2292 51.039C88.2292 51.3463 88.4784 51.5955 88.7858 51.5955Z" fill="black"/>
<path d="M91.3394 60.369C91.3394 60.6637 91.6013 60.9256 91.8959 60.9256C92.1905 60.9256 92.4524 60.6637 92.4524 60.369C92.4524 60.0744 92.1905 59.8125 91.8959 59.8125C91.6013 59.8452 91.3394 60.0744 91.3394 60.369Z" fill="black"/>
<path d="M91.3394 57.2592C91.3394 57.5538 91.6013 57.8157 91.8959 57.8157C92.1905 57.8157 92.4524 57.5538 92.4524 57.2592C92.4524 56.9645 92.1905 56.7026 91.8959 56.7026C91.6013 56.7026 91.3394 56.9645 91.3394 57.2592Z" fill="black"/>
<path d="M91.3394 54.1488C91.3394 54.4435 91.6013 54.7054 91.8959 54.7054C92.1905 54.7054 92.4524 54.4435 92.4524 54.1488C92.4524 53.8542 92.1905 53.5923 91.8959 53.5923C91.6013 53.5923 91.3394 53.8542 91.3394 54.1488Z" fill="black"/>
<path d="M91.8959 51.5955C92.2033 51.5955 92.4524 51.3463 92.4524 51.039C92.4524 50.7316 92.2033 50.4824 91.8959 50.4824C91.5885 50.4824 91.3394 50.7316 91.3394 51.039C91.3394 51.3463 91.5885 51.5955 91.8959 51.5955Z" fill="black"/>
<path d="M91.3394 47.8959C91.3394 48.1905 91.6013 48.4524 91.8959 48.4524C92.1905 48.4524 92.4524 48.1905 92.4524 47.8959C92.4524 47.6013 92.1905 47.3394 91.8959 47.3394C91.6013 47.3721 91.3394 47.6013 91.3394 47.8959Z" fill="black"/>
<path d="M91.3394 44.786C91.3394 45.0807 91.6013 45.3426 91.8959 45.3426C92.1905 45.3426 92.4524 45.0807 92.4524 44.786C92.4524 44.4914 92.1905 44.2295 91.8959 44.2295C91.6013 44.2295 91.3394 44.4914 91.3394 44.786Z" fill="black"/>
<path d="M91.3394 41.6757C91.3394 41.9703 91.6013 42.2322 91.8959 42.2322C92.1905 42.2322 92.4524 41.9703 92.4524 41.6757C92.4524 41.381 92.1905 41.1191 91.8959 41.1191C91.6013 41.1191 91.3394 41.381 91.3394 41.6757Z" fill="black"/>
<path d="M94.4495 60.369C94.4495 60.6637 94.7114 60.9256 95.006 60.9256C95.3007 60.9256 95.5626 60.6637 95.5626 60.369C95.5626 60.0744 95.3007 59.8125 95.006 59.8125C94.7114 59.8125 94.4495 60.0744 94.4495 60.369Z" fill="black"/>
<path d="M94.4495 57.2592C94.4495 57.5538 94.7114 57.8157 95.006 57.8157C95.3007 57.8157 95.5626 57.5538 95.5626 57.2592C95.5626 56.9645 95.3007 56.7026 95.006 56.7026C94.7114 56.7026 94.4495 56.9645 94.4495 57.2592Z" fill="black"/>
<path d="M94.4495 54.1488C94.4495 54.4435 94.7114 54.7054 95.006 54.7054C95.3007 54.7054 95.5626 54.4435 95.5626 54.1488C95.5626 53.8542 95.3007 53.5923 95.006 53.5923C94.7114 53.5923 94.4495 53.8542 94.4495 54.1488Z" fill="black"/>
<path d="M95.006 51.5955C95.3134 51.5955 95.5626 51.3463 95.5626 51.039C95.5626 50.7316 95.3134 50.4824 95.006 50.4824C94.6986 50.4824 94.4495 50.7316 94.4495 51.039C94.4495 51.3463 94.6986 51.5955 95.006 51.5955Z" fill="black"/>
<path d="M94.4495 47.8959C94.4495 48.1905 94.7114 48.4524 95.006 48.4524C95.3007 48.4524 95.5626 48.1905 95.5626 47.8959C95.5626 47.6013 95.3007 47.3394 95.006 47.3394C94.7114 47.3394 94.4495 47.6013 94.4495 47.8959Z" fill="black"/>
<path d="M94.4495 44.786C94.4495 45.0807 94.7114 45.3426 95.006 45.3426C95.3007 45.3426 95.5626 45.0807 95.5626 44.786C95.5626 44.4914 95.3007 44.2295 95.006 44.2295C94.7114 44.2295 94.4495 44.4914 94.4495 44.786Z" fill="black"/>
<path d="M94.4495 41.6757C94.4495 41.9703 94.7114 42.2322 95.006 42.2322C95.3007 42.2322 95.5626 41.9703 95.5626 41.6757C95.5626 41.381 95.3007 41.1191 95.006 41.1191C94.7114 41.1191 94.4495 41.381 94.4495 41.6757Z" fill="black"/>
<path d="M97.5928 60.369C97.5928 60.6637 97.8547 60.9256 98.1493 60.9256C98.444 60.9256 98.7059 60.6637 98.7059 60.369C98.7059 60.0744 98.444 59.8125 98.1493 59.8125C97.8219 59.8452 97.5928 60.0744 97.5928 60.369Z" fill="black"/>
<path d="M97.5928 57.2592C97.5928 57.5538 97.8547 57.8157 98.1493 57.8157C98.444 57.8157 98.7059 57.5538 98.7059 57.2592C98.7059 56.9645 98.444 56.7026 98.1493 56.7026C97.8219 56.7026 97.5928 56.9645 97.5928 57.2592Z" fill="black"/>
<path d="M97.5928 54.1488C97.5928 54.4435 97.8547 54.7054 98.1493 54.7054C98.444 54.7054 98.7059 54.4435 98.7059 54.1488C98.7059 53.8542 98.444 53.5923 98.1493 53.5923C97.8219 53.5923 97.5928 53.8542 97.5928 54.1488Z" fill="black"/>
<path d="M97.5928 51.039C97.5928 51.3336 97.8547 51.5955 98.1493 51.5955C98.444 51.5955 98.7059 51.3336 98.7059 51.039C98.7059 50.7443 98.444 50.4824 98.1493 50.4824C97.8219 50.4824 97.5928 50.7116 97.5928 51.039Z" fill="black"/>
<path d="M97.5928 47.8959C97.5928 48.1905 97.8547 48.4524 98.1493 48.4524C98.444 48.4524 98.7059 48.1905 98.7059 47.8959C98.7059 47.6013 98.444 47.3394 98.1493 47.3394C97.8219 47.3721 97.5928 47.6013 97.5928 47.8959Z" fill="black"/>
<path d="M97.5928 44.786C97.5928 45.0807 97.8547 45.3426 98.1493 45.3426C98.444 45.3426 98.7059 45.0807 98.7059 44.786C98.7059 44.4914 98.444 44.2295 98.1493 44.2295C97.8219 44.2295 97.5928 44.4914 97.5928 44.786Z" fill="black"/>
<path d="M97.5928 41.6757C97.5928 41.9703 97.8547 42.2322 98.1493 42.2322C98.444 42.2322 98.7059 41.9703 98.7059 41.6757C98.7059 41.381 98.444 41.1191 98.1493 41.1191C97.8219 41.1191 97.5928 41.381 97.5928 41.6757Z" fill="black"/>
<path d="M100.67 60.369C100.67 60.6637 100.932 60.9256 101.226 60.9256C101.521 60.9256 101.783 60.6637 101.783 60.369C101.783 60.0744 101.521 59.8125 101.226 59.8125C100.932 59.8452 100.67 60.0744 100.67 60.369Z" fill="black"/>
<path d="M100.67 57.2592C100.67 57.5538 100.932 57.8157 101.226 57.8157C101.521 57.8157 101.783 57.5538 101.783 57.2592C101.783 56.9645 101.521 56.7026 101.226 56.7026C100.932 56.7026 100.67 56.9645 100.67 57.2592Z" fill="black"/>
<path d="M100.67 54.1488C100.67 54.4435 100.932 54.7054 101.226 54.7054C101.521 54.7054 101.783 54.4435 101.783 54.1488C101.783 53.8542 101.521 53.5923 101.226 53.5923C100.932 53.5923 100.67 53.8542 100.67 54.1488Z" fill="black"/>
<path d="M101.226 51.5955C101.534 51.5955 101.783 51.3463 101.783 51.039C101.783 50.7316 101.534 50.4824 101.226 50.4824C100.919 50.4824 100.67 50.7316 100.67 51.039C100.67 51.3463 100.919 51.5955 101.226 51.5955Z" fill="black"/>
<path d="M100.67 47.8959C100.67 48.1905 100.932 48.4524 101.226 48.4524C101.521 48.4524 101.783 48.1905 101.783 47.8959C101.783 47.6013 101.521 47.3394 101.226 47.3394C100.932 47.3721 100.67 47.6013 100.67 47.8959Z" fill="black"/>
<path d="M100.67 44.786C100.67 45.0807 100.932 45.3426 101.226 45.3426C101.521 45.3426 101.783 45.0807 101.783 44.786C101.783 44.4914 101.521 44.2295 101.226 44.2295C100.932 44.2295 100.67 44.4914 100.67 44.786Z" fill="black"/>
<path d="M100.67 41.6757C100.67 41.9703 100.932 42.2322 101.226 42.2322C101.521 42.2322 101.783 41.9703 101.783 41.6757C101.783 41.381 101.521 41.1191 101.226 41.1191C100.932 41.1191 100.67 41.381 100.67 41.6757Z" fill="black"/>
<path d="M103.813 60.369C103.813 60.6637 104.075 60.9256 104.37 60.9256C104.664 60.9256 104.926 60.6637 104.926 60.369C104.926 60.0744 104.664 59.8125 104.37 59.8125C104.075 59.8125 103.813 60.0744 103.813 60.369Z" fill="black"/>
<path d="M103.813 57.2592C103.813 57.5538 104.075 57.8157 104.37 57.8157C104.664 57.8157 104.926 57.5538 104.926 57.2592C104.926 56.9645 104.664 56.7026 104.37 56.7026C104.075 56.7026 103.813 56.9645 103.813 57.2592Z" fill="black"/>
<path d="M103.813 54.1488C103.813 54.4435 104.075 54.7054 104.37 54.7054C104.664 54.7054 104.926 54.4435 104.926 54.1488C104.926 53.8542 104.664 53.5923 104.37 53.5923C104.075 53.5923 103.813 53.8542 103.813 54.1488Z" fill="black"/>
<path d="M104.37 51.5955C104.677 51.5955 104.926 51.3463 104.926 51.039C104.926 50.7316 104.677 50.4824 104.37 50.4824C104.062 50.4824 103.813 50.7316 103.813 51.039C103.813 51.3463 104.062 51.5955 104.37 51.5955Z" fill="black"/>
<path d="M103.813 47.8959C103.813 48.1905 104.075 48.4524 104.37 48.4524C104.664 48.4524 104.926 48.1905 104.926 47.8959C104.926 47.6013 104.664 47.3394 104.37 47.3394C104.075 47.3394 103.813 47.6013 103.813 47.8959Z" fill="black"/>
<path d="M103.813 44.786C103.813 45.0807 104.075 45.3426 104.37 45.3426C104.664 45.3426 104.926 45.0807 104.926 44.786C104.926 44.4914 104.664 44.2295 104.37 44.2295C104.075 44.2295 103.813 44.4914 103.813 44.786Z" fill="black"/>
<path d="M103.813 41.6757C103.813 41.9703 104.075 42.2322 104.37 42.2322C104.664 42.2322 104.926 41.9703 104.926 41.6757C104.926 41.381 104.664 41.1191 104.37 41.1191C104.075 41.1191 103.813 41.381 103.813 41.6757Z" fill="black"/>
<path d="M53.1015 17.6786C54.3852 17.6786 55.4259 16.6379 55.4259 15.3542C55.4259 14.0705 54.3852 13.0298 53.1015 13.0298C51.8178 13.0298 50.7771 14.0705 50.7771 15.3542C50.7771 16.6379 51.8178 17.6786 53.1015 17.6786Z" fill="black"/>
<path d="M32.0174 31.9195C32.0502 31.854 32.0174 31.7558 32.1484 31.7231V31.7886C32.2466 31.7558 32.3121 31.7886 32.3776 31.8213C32.5085 31.8213 32.6395 31.8213 32.7704 31.8213C32.9014 31.8213 33.0323 31.8541 33.196 31.8541V31.9195C33.327 31.7886 33.4579 31.7886 33.5889 31.7886L33.6216 31.6576L33.5889 31.6249C33.5561 31.6576 33.5234 31.6576 33.4579 31.6904C33.3924 31.5921 33.2942 31.5921 33.196 31.6249L33.1633 31.7231C33.0651 31.6576 32.9341 31.6249 32.8031 31.6576C32.5412 31.6904 32.2466 31.6249 31.9847 31.5921C31.952 31.5921 31.8865 31.5594 31.821 31.4939L31.8865 31.6904L32.0174 31.6576C31.9847 31.7558 31.952 31.8213 31.9192 31.8868L31.6573 31.7886V31.7231C31.4609 31.6904 31.2972 31.5267 31.1335 31.3957L31.1008 31.2975L31.1662 31.232L31.1008 31.1338C31.068 31.1993 31.068 31.232 31.0353 31.2648C31.0026 31.2648 31.0026 31.2648 30.9698 31.2648C30.8716 31.1665 30.9698 31.1011 30.9371 30.9701C30.9043 31.0029 30.8716 31.0356 30.8061 31.0683C30.6752 31.0029 30.6752 30.8392 30.6097 30.741C30.6424 30.7082 30.6752 30.6755 30.7079 30.61C30.6424 30.6427 30.577 30.6427 30.577 30.6427L30.4133 30.479C30.446 30.479 30.4787 30.479 30.5115 30.4463L30.3805 30.3808C30.3805 30.4136 30.3805 30.3808 30.3805 30.3808C30.3151 30.2171 30.2823 30.0207 30.2168 29.8243C30.1514 29.5624 30.1514 29.3332 30.1841 29.0713C30.2168 28.8749 30.2823 28.6457 30.2823 28.4493C30.2823 28.4166 30.3151 28.3511 30.3151 28.3183C30.3151 28.3183 30.3478 28.3183 30.3805 28.3183C30.3478 28.2529 30.3478 28.1546 30.4133 28.0892C30.577 27.86 30.577 27.86 30.6752 27.8273L30.7734 27.5654L30.9043 27.5981L30.9371 27.4999C31.1008 27.4017 31.2645 27.3035 31.3954 27.1725L31.4936 27.238C31.5918 27.107 31.7555 27.1398 31.9192 27.1398L31.8865 26.9761L32.0502 26.9433L32.0174 27.0415C32.0502 27.0743 32.1156 27.107 32.1484 27.107C32.2793 27.107 32.4103 27.0743 32.5412 27.0415C32.574 27.0415 32.6067 27.0088 32.6067 27.0088C32.7049 27.0088 32.8359 27.0415 32.9014 27.0088C33.1305 26.9433 33.327 27.0088 33.5234 27.0415C33.5889 27.0415 33.6543 27.0743 33.6871 27.0743C33.6871 27.107 33.6543 27.107 33.6543 27.1398H33.6871C33.7198 27.0743 33.7853 27.0416 33.8835 27.107L33.9817 27.2052L34.2436 27.1725L34.3091 27.3035C34.4728 27.238 34.6365 27.3362 34.8002 27.4017V27.4671H34.9966L35.1276 27.5981C35.2258 27.5654 35.2912 27.5654 35.3567 27.6636L35.6514 27.729L35.5204 27.2052H35.4549L35.3567 27.0415L35.3895 27.0088V26.9761C35.324 26.9761 35.2912 26.9433 35.2585 26.8779C35.2258 26.8124 35.193 26.7469 35.1603 26.7142C35.1276 26.6487 35.0621 26.616 35.0621 26.5832C35.0293 26.5177 34.9639 26.5177 34.8984 26.485C34.8329 26.4195 34.8329 26.3541 34.7674 26.3213C34.702 26.2886 34.6365 26.2231 34.6037 26.1576C34.4401 25.9939 34.2109 25.863 34.0145 25.732C33.8835 25.6665 33.7526 25.5683 33.6216 25.5029C33.4252 25.4046 33.196 25.3064 32.9668 25.2082C32.8686 25.1755 32.7704 25.0773 32.6395 25.11C32.6067 25.11 32.574 25.0445 32.5085 25.11C32.5085 25.11 32.443 25.0773 32.4103 25.0773C32.3776 25.0773 32.3121 25.0773 32.2793 25.0773C32.1811 25.0773 32.0829 25.0445 31.9847 25.0445L32.1156 24.9136C32.2139 24.9463 32.2139 24.9463 32.4103 24.8808L32.3121 24.7826C32.1811 24.8481 32.0174 24.7826 31.8865 24.8154V24.7171L32.0829 24.6517C32.0502 24.6189 32.0502 24.5862 32.0174 24.5862C31.952 24.5862 31.9192 24.5862 31.821 24.6189C31.8537 24.5535 31.8865 24.5207 31.8865 24.488L31.8537 24.2915L32.0502 24.3898C32.0829 24.357 32.0829 24.3243 32.1156 24.2588L32.3448 24.2915L32.4103 24.2261H32.574L32.6067 24.357C32.6395 24.2916 32.6722 24.2588 32.6722 24.2261L32.7704 24.2588C32.7704 24.2588 32.7704 24.2916 32.7377 24.3243L32.9996 24.3898C32.9996 24.357 32.9996 24.3243 32.9996 24.357L33.196 24.3243V24.4225C33.2615 24.4225 33.2942 24.3898 33.3597 24.3898L33.4579 24.488C33.6216 24.5207 33.7526 24.5535 33.8835 24.5862C34.0145 24.6189 34.0799 24.7499 34.2109 24.7499V24.8808L34.3091 24.9791L34.2436 24.8154C34.4073 24.8808 34.6037 24.8481 34.6692 25.0773H34.8002V25.1427C34.9311 25.1755 34.9966 25.241 35.0293 25.3719H35.193L35.2585 25.5029C35.2585 25.5029 35.324 25.5029 35.324 25.5356C35.3567 25.5683 35.324 25.6011 35.3567 25.6338C35.3895 25.6666 35.4222 25.6993 35.4549 25.732C35.4877 25.7648 35.4877 25.7648 35.5204 25.7975C35.5204 25.8302 35.5204 25.863 35.5531 25.8957C35.7496 25.8957 35.7168 26.0921 35.8805 26.1904L35.6514 26.2231C35.6514 26.2886 35.7496 26.3213 35.9133 26.2886L35.8805 26.3541C35.8805 26.4523 35.9787 26.4195 36.0442 26.485V26.616H36.1097C36.1097 26.6487 36.077 26.6487 36.077 26.6814C36.1424 26.8124 36.2406 26.9761 36.3061 27.1398C36.3389 27.2052 36.3389 27.2707 36.3061 27.3035C36.3389 27.3362 36.4371 27.4017 36.4371 27.4344C36.5026 27.6963 36.5353 27.991 36.568 28.2856C36.568 28.3183 36.6008 28.3838 36.6008 28.4166C36.6008 28.482 36.6335 28.5148 36.6335 28.5802C36.6662 28.5802 36.6662 28.5475 36.7317 28.5475C36.7972 28.6457 36.9281 28.7112 36.9609 28.8421L37.1246 28.9076C37.1573 29.0713 37.3865 29.1368 37.4192 29.3005L37.5502 29.366C37.5174 29.3987 37.5174 29.4314 37.5174 29.4642C37.6156 29.4969 37.6484 29.5624 37.7139 29.6606C37.7466 29.7588 37.8448 29.8243 37.8448 29.9225C37.8448 29.9225 37.8776 29.9225 37.9103 29.9225V29.988L37.9758 30.0207C38.0412 30.1189 38.1067 30.2171 38.1395 30.3154C38.2377 30.5118 38.4014 30.6755 38.4341 30.9046C38.4341 30.9701 38.4996 31.0683 38.5323 31.1338C38.7942 31.5594 38.8924 32.0177 38.9906 32.4761C39.0561 32.738 39.0561 32.9999 39.0561 33.2618C39.0561 33.36 39.0234 33.4582 39.0561 33.5237C39.0889 33.6219 39.0234 33.6874 39.0234 33.7529C39.0561 33.982 38.9906 34.2112 38.9579 34.4076C38.9252 34.6368 38.8924 34.8332 38.827 35.0624C38.7615 35.2915 38.696 35.5207 38.5978 35.7171C38.4996 35.9136 38.4341 36.11 38.3031 36.3064C38.2704 36.3392 38.3031 36.3719 38.2704 36.4046C38.1722 36.5029 38.1395 36.6665 38.0412 36.7648C37.9758 36.8302 37.8776 36.9285 37.8121 36.9939H37.6156L37.4847 36.7648C37.5174 36.732 37.5174 36.732 37.5174 36.6993L37.452 36.6338C37.452 36.5683 37.452 36.5029 37.4847 36.4374C37.5174 36.3719 37.5502 36.3064 37.5829 36.2737C37.7466 36.11 37.7793 35.8808 37.9103 35.6844C37.9758 35.5535 38.0412 35.3898 38.1067 35.2261C38.1395 35.1606 38.1395 35.0624 38.1722 34.9642C38.2049 34.7677 38.2704 34.5713 38.3031 34.3749C38.3031 34.2767 38.3686 34.1457 38.3686 34.0475C38.4014 33.8183 38.4014 33.5564 38.4014 33.3273C38.4014 32.8035 38.2704 32.3124 38.1067 31.8213C38.074 31.7231 38.0085 31.6249 37.943 31.5267C37.8776 31.3957 37.8448 31.232 37.7466 31.1338C37.6156 30.9701 37.5502 30.741 37.3865 30.5773C37.321 30.5118 37.2883 30.4463 37.2555 30.3808C37.2228 30.3154 37.1246 30.2826 37.1246 30.1844C37.1246 30.1517 37.0591 30.1189 36.9936 30.0862C36.8627 30.0207 36.7972 29.9225 36.7317 29.7915L36.6335 29.7588C36.6335 29.7261 36.6335 29.6933 36.6335 29.6606C36.6335 29.6279 36.6335 29.6279 36.6335 29.5951H36.4371C36.4043 29.6933 36.3716 29.7916 36.3061 29.9225C36.2734 30.0207 36.2079 30.1517 36.1424 30.2499C36.1097 30.3808 36.0442 30.479 35.9787 30.5773V30.6427C35.9133 30.7082 35.8478 30.7737 35.7823 30.8392C35.7496 30.9046 35.6514 30.9046 35.6514 31.0029C35.6514 31.0356 35.6186 31.0683 35.5859 31.1011C35.4222 31.1338 35.3567 31.2648 35.2585 31.363C35.1603 31.4285 35.0621 31.5267 34.9311 31.4939C34.8656 31.5594 34.7674 31.6249 34.6692 31.6576C34.6037 31.6904 34.5383 31.7558 34.4728 31.7558C34.3746 31.7558 34.3418 31.8213 34.2764 31.8541C34.1454 31.8868 34.0145 31.985 33.8508 31.8868L33.818 32.0177L33.6543 31.985C33.6216 31.985 33.5561 32.0177 33.4579 32.0832C33.327 32.0832 33.1633 32.1487 32.9996 32.116C32.8359 32.0832 32.6722 32.116 32.5412 32.0832C32.3448 31.985 32.1811 31.9523 32.0174 31.9195ZM31.1008 29.9552C31.068 30.0535 31.068 30.1189 31.068 30.1844L31.199 30.1517C31.1662 30.2171 31.1662 30.2499 31.1662 30.2826C31.199 30.2826 31.2317 30.2499 31.2645 30.2499L31.2972 30.2826C31.2645 30.3154 31.2317 30.3481 31.199 30.4136L31.3299 30.5445C31.2645 30.7082 31.2972 30.8064 31.3954 30.7737C31.3954 30.741 31.3954 30.7082 31.3954 30.7082C31.3954 30.6755 31.4281 30.6755 31.4609 30.6755C31.4609 30.741 31.4609 30.8064 31.4936 30.8719C31.4936 30.9046 31.5591 30.9374 31.5918 30.9701L31.6246 30.8719C31.7883 30.8719 31.7883 30.8719 31.821 30.9701C31.8537 30.9701 31.9192 31.0356 31.952 31.0029C31.9847 31.0029 32.0174 30.9374 32.0502 31.0029C32.0502 31.0356 32.0174 31.0683 32.0174 31.1338C32.1484 31.1011 32.2466 31.1011 32.3448 31.1011V31.1993L32.5085 31.1665L32.6722 31.232V31.1665L32.9341 31.2975V31.232C33.0323 31.1993 33.1305 31.1338 33.2615 31.1011C33.0978 31.0029 32.9341 31.1338 32.7704 31.1011C32.6067 31.0683 32.443 31.0683 32.2793 31.0356L32.3448 30.9701C32.4758 30.9701 32.574 30.9701 32.6395 31.0029C32.7377 31.0356 32.8031 30.9701 32.9014 31.0029C32.9996 31.0356 33.0651 30.9701 33.1633 30.9701C33.2942 30.9701 33.4579 30.8719 33.5889 30.9701C33.6871 30.8719 33.818 30.8392 33.949 30.8392L34.0799 30.7082L34.1781 30.741C34.1781 30.6755 34.2109 30.61 34.3091 30.61C34.4401 30.61 34.5383 30.5445 34.6365 30.4463C34.702 30.3808 34.8002 30.3481 34.8656 30.2826C34.9311 30.2499 34.9639 30.1844 35.0293 30.1844C35.0293 30.1844 35.0293 30.1517 35.0621 30.1517L35.0293 30.0862C35.0621 30.0862 35.0948 30.0862 35.1276 30.0535C35.1603 30.0207 35.193 30.0207 35.193 29.988C35.2258 29.9552 35.2258 29.9225 35.2258 29.8898C35.2585 29.857 35.2912 29.857 35.2912 29.857C35.3567 29.7261 35.4222 29.6279 35.4877 29.5296C35.5859 29.3987 35.6186 29.235 35.6514 29.1041C35.5204 29.0058 35.3567 28.9731 35.2258 28.8749C35.0948 28.7767 34.8984 28.7439 34.7347 28.6785C34.4401 28.5475 34.0799 28.5475 33.7853 28.3511C33.7526 28.3511 33.7198 28.3511 33.6871 28.3511C33.6543 28.3511 33.6216 28.3511 33.6216 28.3511C33.2942 28.2856 32.9668 28.2529 32.6395 28.2529C32.4758 28.2529 32.2793 28.2856 32.1156 28.3183C32.0174 28.3511 31.9192 28.3838 31.8537 28.4166C31.6901 28.4166 31.5591 28.5148 31.4609 28.613C31.3299 28.7112 31.2317 28.8094 31.1008 28.9404C31.0026 29.0713 30.9371 29.235 30.9043 29.3987C30.9043 29.4314 30.9371 29.4969 30.9371 29.5624C30.9371 29.6279 30.9043 29.6606 30.9043 29.7261H30.9698V29.857L31.1008 29.9552Z" fill="black"/>
<path d="M21.3125 49.6637C21.6726 49.4018 21.9017 49.0417 22.1637 48.6816C22.2946 48.8125 22.0654 48.8453 22.1309 48.9435C21.7708 49.3363 21.4762 49.7619 21.0178 50.0566C20.8869 50.1548 20.7559 50.253 20.625 50.3512C20.5267 50.4494 20.4613 50.4167 20.3631 50.3185C20.2648 50.3512 20.3631 50.4494 20.2976 50.5149C20.1994 50.5804 20.0684 50.6131 19.9702 50.7113C19.9047 50.7768 19.741 50.6786 19.7083 50.8096C19.5773 50.8096 19.5119 50.9405 19.4137 51.006C19.3154 51.0715 19.1845 51.0387 19.0863 51.1369C19.0208 51.2024 18.9881 51.1369 18.9226 51.0715C18.7262 51.2679 18.497 51.3989 18.2351 51.2352C18.2023 51.3006 18.1696 51.3989 18.1369 51.4316C17.9732 51.4971 17.7768 51.3661 17.6785 51.5298C17.6131 51.4643 17.5476 51.3988 17.5476 51.3006C17.4821 51.3661 17.5148 51.4643 17.4166 51.4643C17.3839 51.4643 17.3184 51.4643 17.2857 51.4971C17.0892 51.628 17.0565 51.628 16.8601 51.4643C16.7946 51.4971 16.8273 51.5953 16.8273 51.6608C16.5 51.628 16.3035 51.8572 16.1398 52.1191C16.0744 52.0863 16.1071 52.0209 16.0744 51.9881C15.8779 51.9881 15.7797 51.7917 15.6488 51.6935C15.5833 51.759 15.6488 51.8244 15.616 51.8899C15.5833 51.9227 15.5178 51.9227 15.4851 51.9554C15.3541 52.0209 15.2559 51.9881 15.2232 51.8899C15.1904 51.7917 15.0922 51.6935 15.0268 51.628C14.8958 51.4971 14.7976 51.3334 14.8303 51.1042C14.6994 51.0715 14.6012 50.9733 14.5357 50.875V50.6131L14.7648 50.4167C14.5684 49.9256 14.372 49.5 14.1428 49.0417C13.9791 48.7143 13.8482 48.4197 13.6845 48.0923C13.4553 47.6667 13.2262 47.2411 12.9643 46.8483C12.866 46.7173 12.8333 46.5209 12.866 46.3572C13.0625 46.128 13.3244 45.9971 13.6518 46.1935C13.75 46.259 13.7827 46.0625 13.8482 46.1608C13.9137 46.2262 13.9791 46.1935 14.0446 46.1935C14.1101 46.1935 14.2083 46.2262 14.2738 46.128C14.3065 46.0953 14.4047 46.0953 14.4375 46.0953C14.6994 46.128 14.9613 46.0625 15.2232 45.9971C15.4523 45.9316 15.7142 45.9643 15.9107 45.8006C15.9762 45.7679 16.0089 45.8334 16.0744 45.8661C16.1398 45.8006 16.2053 45.7352 16.3035 45.7024C16.8273 45.506 17.3184 45.3423 17.8095 45.1131C18.0714 44.9822 18.3006 44.8512 18.5625 44.7203C18.8244 44.5893 19.0535 44.4256 19.2827 44.2947C19.6756 44.0983 19.9702 43.7709 20.3303 43.5417C20.5922 43.378 20.7887 43.0834 21.0833 42.9197C21.2142 42.8542 21.3452 42.756 21.5416 42.7887C21.5744 43.0506 21.8035 43.0179 21.9672 43.0179C22 43.0506 22.0327 43.1161 22.0654 43.1161C22.3601 43.2471 22.5238 43.509 22.6875 43.7381C22.7202 43.7709 22.7529 43.7709 22.7202 43.8363C22.6875 44.0655 22.8184 44.2947 22.7857 44.5566C22.7529 45.0804 22.7857 45.5715 22.7857 46.0953C22.7857 46.5209 22.6875 46.9792 22.5565 47.3721C22.3928 47.9286 22.0982 48.4197 21.7381 48.878C21.5744 49.0744 21.4107 49.2709 21.247 49.4346C21.2797 49.5655 21.3125 49.5983 21.3125 49.6637ZM18.1041 46.6191C17.9404 46.7173 17.744 46.7828 17.5803 46.8483C17.4821 46.881 17.3839 46.8483 17.2857 46.881C17.1547 46.9465 16.991 46.9137 16.9256 46.9792C16.8273 47.1102 16.6964 47.0774 16.5654 47.1102C16.5 47.1102 16.4672 47.1102 16.4017 47.1429C16.2053 47.2411 16.1398 47.4375 16.1071 47.634C16.0744 47.7322 16.1398 47.8304 16.0744 47.9286C16.0089 48.0268 16.1726 48.125 16.1071 48.2233C15.9434 48.5179 16.1398 48.8453 15.9434 49.1399C16.1398 49.2709 15.8779 49.5 16.0089 49.6637C16.0416 49.7292 15.8779 49.7947 15.9434 49.8929C16.0416 50.0566 16.0089 50.253 16.0416 50.4494C16.2053 50.4167 16.4017 50.3512 16.5654 50.3185C16.6309 50.2858 16.6964 50.2203 16.7946 50.2203C16.8601 50.2203 16.9256 50.2203 16.991 50.1548C17.0893 50.2858 17.122 50.1548 17.1875 50.1221C17.2529 50.0893 17.3184 50.0566 17.4166 50.0239C17.744 49.8602 18.0714 49.7292 18.366 49.5655C18.7916 49.3036 19.2172 49.0744 19.5446 48.7143C19.7083 48.5179 19.9047 48.3542 20.1012 48.1578C20.3303 47.9286 20.494 47.6667 20.6577 47.3721C21.0506 46.75 21.116 46.0298 21.247 45.3423C21.247 45.2768 21.2797 45.2113 21.1815 45.1786C21.1488 45.1786 21.1488 45.1786 21.116 45.1786C20.7232 45.4405 20.3631 45.7024 19.9375 45.9316C19.6101 46.0953 19.25 46.1935 18.9553 46.4227C18.8244 46.3572 18.8244 46.3244 18.7589 46.3899C18.7589 46.3899 18.7589 46.4227 18.7589 46.4554C18.5952 46.4554 18.4643 46.6518 18.3006 46.5209C18.2351 46.4881 18.1696 46.4881 18.1041 46.5209C18.0387 46.5209 18.1041 46.5536 18.1041 46.6191Z" fill="black"/>
<path d="M104.14 50.2858L101.455 51.8572C100.113 52.6429 100.113 54.6072 101.455 55.3602L104.14 56.9316C105.482 57.7174 107.184 56.7352 107.184 55.1638V52.0537C107.184 50.4822 105.515 49.5001 104.14 50.2858Z" fill="black"/>
<path d="M80.8958 23.8334C80.6666 23.7024 80.4702 23.5715 80.241 23.4078L80.2083 23.3751C80.0118 23.2441 80.0118 23.2441 80.1428 23.0149C80.3392 22.5893 80.6011 22.1638 80.9285 21.7709C81.616 20.9197 82.4344 20.2322 83.3839 19.6102C83.8094 19.3483 84.2678 19.1518 84.6934 18.9882C84.9225 18.8899 85.1844 18.8899 85.4464 18.8899C86.0029 18.8245 86.5922 18.759 87.1487 18.6935C87.3779 18.6608 87.5416 18.759 87.7053 18.8245C88.1309 18.9882 88.5565 19.1518 88.9821 19.3155C89.3749 19.512 89.6368 19.8066 89.866 20.134C89.9315 20.2322 89.9642 20.3959 90.0297 20.5268C90.1934 20.887 90.4553 21.1489 90.7172 21.4435C91.0446 21.7382 91.3392 22.0328 91.6339 22.3274C92.2559 22.9167 93.0416 23.2441 94.0565 23.2768C94.4821 23.2768 94.8749 23.2114 95.2678 23.0149C95.8243 22.753 96.3809 22.4911 96.9702 22.262C97.7886 21.9346 98.6398 21.6727 99.5237 21.7054C100.211 21.7054 100.801 21.9346 101.292 22.262C101.75 22.5893 102.11 23.0149 102.47 23.4078C102.994 23.9643 103.616 24.3899 104.434 24.5864C105.024 24.7173 105.646 24.7501 106.268 24.6846C106.89 24.6191 107.414 24.7501 107.937 24.9792C108.789 25.3721 109.345 25.9614 109.673 26.7471C110 27.4673 110 28.2858 109.803 29.137C109.542 30.1191 109.018 31.0358 108.298 31.9197C107.839 32.4435 107.315 32.9018 106.726 33.3602C106.039 33.884 105.286 34.3423 104.467 34.7024C103.78 35.0298 103.059 35.3245 102.339 35.5209C101.75 35.6846 101.161 35.8155 100.571 35.9792C100.506 36.012 100.44 36.012 100.408 36.0774C99.9493 36.6667 99.3928 36.7977 98.8035 36.6013C98.5416 36.5358 98.2797 36.4376 98.0505 36.3393C97.8541 36.2411 97.5922 36.3066 97.363 36.3066C96.7737 36.2739 96.2172 36.2411 95.6279 36.2084C94.8749 36.1429 94.1547 36.012 93.4999 35.7828C92.8124 35.5536 92.1249 35.3245 91.4702 35.0626C91.11 34.9316 90.7827 34.7352 90.4553 34.5715C89.866 34.2441 89.2767 33.884 88.7529 33.4584C88.3273 33.0983 87.869 32.7054 87.4761 32.3126C87.116 31.9197 86.7886 31.4614 86.494 31.0358C86.0029 30.381 85.7083 29.6608 85.4791 28.9078C85.3481 28.4822 85.3481 28.0239 85.3154 27.5655C85.3154 27.2709 85.2827 26.9435 85.2827 26.6489C85.2827 26.4524 85.3809 26.2233 85.3809 25.9941C85.3809 25.7322 85.3809 25.4703 85.3481 25.2084C85.2827 24.6518 85.1844 24.0953 85.119 23.5388C85.0535 23.1786 85.0208 22.7858 84.8243 22.4584C84.5297 21.9673 84.0386 21.7054 83.3839 21.7054C83.0892 21.7054 82.7946 21.8364 82.5654 22.0001C82.0743 22.3274 81.7142 22.7203 81.3541 23.1459C81.1904 23.3751 81.0594 23.6042 80.8958 23.8334Z" fill="black"/>
<path d="M26.0267 3.04467C26.1249 2.91371 26.2886 2.84824 26.4523 2.8155C26.6487 2.75002 26.8452 2.68455 27.0416 2.65181C27.0743 2.65181 27.1071 2.61907 27.1398 2.61907C27.2053 2.58633 27.238 2.55359 27.3035 2.55359C27.4017 2.52086 27.5327 2.52086 27.6309 2.45538C27.7291 2.42264 27.7946 2.35717 27.8928 2.32443C28.0892 2.22621 28.3184 2.128 28.5475 2.09526C28.613 2.09526 28.7112 2.06252 28.7767 2.02978C28.9077 1.96431 29.0714 1.89883 29.2023 1.86609C29.366 1.80062 29.5297 1.76788 29.6934 1.7024C29.7261 1.63693 29.7916 1.57145 29.8898 1.53871C30.1845 1.4405 30.4791 1.30955 30.7737 1.21133C31.0029 1.14586 31.1993 1.08038 31.4285 0.982166C31.6249 0.91669 31.8214 0.851214 32.0505 0.752999C32.1815 0.687523 32.3124 0.654785 32.4434 0.589309C32.5743 0.523833 32.7053 0.491095 32.8362 0.425618C33.1964 0.294666 33.5565 0.163714 33.9166 0.0327613C33.9821 2.32458e-05 34.0148 -0.0327148 34.0803 -0.0327148C34.113 -0.0327148 34.1458 2.32458e-05 34.1785 2.32458e-05C34.4077 0.261928 34.6368 0.491095 34.8987 0.752999C34.997 0.883952 35.1279 0.982166 35.2589 1.08038C35.2916 1.11312 35.3243 1.14586 35.3571 1.17859C35.6845 1.50598 36.0446 1.76788 36.3065 2.128C36.3392 2.16074 36.372 2.19348 36.4047 2.22621C36.6011 2.35717 36.7975 2.55359 36.9285 2.75002C36.9612 2.8155 37.0267 2.88098 37.0922 2.91371C37.2231 3.01193 37.3541 3.11014 37.4523 3.24109C37.747 3.53574 38.0416 3.83038 38.369 4.15776C38.4345 4.22324 38.5327 4.28871 38.5981 4.38693C38.6964 4.48514 38.7946 4.61609 38.9255 4.71431C38.9583 4.74705 38.991 4.77978 39.0237 4.81252C39.1874 4.94347 39.3511 5.04169 39.4821 5.20538C39.5475 5.27086 39.613 5.30359 39.6785 5.36907C39.744 5.43455 39.8422 5.50002 39.9077 5.59824C40.0059 5.69645 40.1041 5.79466 40.2023 5.86014C40.2678 5.92562 40.366 6.02383 40.4315 6.08931C40.5624 6.18752 40.6606 6.31847 40.7916 6.41669C40.9225 6.48217 41.0208 6.58038 41.0535 6.67859C41.0535 6.71133 41.0862 6.74407 41.0862 6.74407C41.2172 6.84228 41.3154 7.00597 41.5118 7.07145C41.5446 7.07145 41.5446 7.10419 41.5773 7.10419C41.6428 7.16967 41.7083 7.23514 41.741 7.30062C41.8065 7.36609 41.8065 7.43157 41.8065 7.49705C41.7737 7.69347 41.7737 7.85716 41.741 8.05359C41.741 8.51193 41.741 9.003 41.7083 9.46133C41.7083 9.82145 41.6755 10.1816 41.6755 10.5417C41.6755 10.7709 41.6428 11 41.61 11.2292C41.5773 11.7203 41.5446 12.2113 41.5446 12.7024C41.5446 12.997 41.5446 13.2917 41.5118 13.5863C41.4791 13.9792 41.5118 14.4048 41.4791 14.7976C41.4464 14.9941 41.4464 15.2232 41.4464 15.4197C41.4464 15.8125 41.4136 16.2054 41.4136 16.5982C41.4136 16.6637 41.4136 16.7292 41.3809 16.7947C41.3481 16.8601 41.3481 16.9256 41.3809 17.0238C41.4136 17.2203 41.4464 17.4167 41.4136 17.6131C41.3809 17.8095 41.3809 18.0387 41.3809 18.2351C41.3809 18.2679 41.3481 18.3006 41.3481 18.3661C36.0773 16.8929 30.8392 15.3869 25.5684 13.9137C25.5684 13.881 25.5356 13.8482 25.5356 13.8155C25.5356 13.5863 25.5356 13.3572 25.5684 13.128C25.6011 12.7679 25.6011 12.375 25.6011 12.0149C25.6011 11.9167 25.6339 11.7857 25.6339 11.6875C25.6339 11.6548 25.6666 11.5893 25.6666 11.5566C25.6666 11.0328 25.6993 10.5417 25.6993 10.0179C25.6993 9.65776 25.7321 9.29764 25.7648 8.97026C25.7648 8.5774 25.7648 8.18455 25.7976 7.79169C25.7976 7.72621 25.7976 7.66074 25.7976 7.59526C25.8303 7.23514 25.8303 6.87502 25.863 6.54764C25.863 5.99109 25.863 5.40181 25.9285 4.84526C25.9285 4.74705 25.9285 4.64883 25.9285 4.55062C25.9285 4.48514 25.9285 4.41967 25.9285 4.35419C25.9285 4.25598 25.9612 4.15776 25.994 4.05955C25.994 3.79764 25.994 3.503 25.994 3.24109C26.0267 3.20836 26.0267 3.11014 26.0267 3.04467ZM25.9285 13.8155C30.9702 15.256 36.0118 16.6637 41.0535 18.0714C41.0208 18.006 40.988 17.9405 40.9225 17.875C40.8571 17.7768 40.7589 17.6786 40.6934 17.5476C40.5952 17.2857 40.4642 17.0238 40.2678 16.7947C40.235 16.7292 40.2023 16.6637 40.2023 16.631C40.2023 16.5328 40.1696 16.4673 40.1041 16.4018C40.0386 16.3363 39.9404 16.2709 39.9077 16.1726C39.8422 16.0744 39.7767 15.9762 39.7112 15.878C39.7112 15.8453 39.6785 15.8125 39.6785 15.7798C39.5803 15.6161 39.4821 15.4197 39.3511 15.256C39.3184 15.2232 39.2856 15.1578 39.2856 15.125C39.2529 14.9613 39.1547 14.8304 39.0565 14.7322C38.9583 14.6012 38.8273 14.503 38.7946 14.372C38.6964 14.1101 38.5654 13.8482 38.369 13.6191C38.369 13.6191 38.369 13.5863 38.3362 13.5863C38.1398 13.1607 37.8452 12.7679 37.5833 12.375C37.5178 12.2768 37.485 12.1786 37.4523 12.1131C37.4196 12.0149 37.3868 11.9167 37.3214 11.8512C37.1904 11.622 37.0595 11.3929 36.8958 11.1964C36.7321 10.9345 36.5684 10.6726 36.4047 10.378C36.3065 10.1488 36.1755 9.9524 36.0118 9.75597C36.0118 9.72324 35.9791 9.72324 35.9464 9.72324C35.7499 9.78871 35.5208 9.85419 35.3243 9.91966C35.1606 9.98514 35.0297 10.0506 34.866 10.0834C34.7678 10.1161 34.6696 10.1488 34.5714 10.1816C34.2767 10.2798 33.9821 10.4107 33.6874 10.5417C33.622 10.5744 33.5892 10.5744 33.5237 10.5089C33.3273 10.3125 33.1309 10.0834 32.9345 9.88693C32.7708 9.72324 32.5743 9.55955 32.4106 9.39585C32.2142 9.23217 32.0505 9.03574 31.8541 8.87205C31.8214 8.83931 31.8214 8.83931 31.8214 8.83931C31.6249 9.003 31.3958 9.16669 31.1993 9.33038C30.872 9.59228 30.5773 9.85419 30.2499 10.1161C29.988 10.3125 29.7589 10.5089 29.497 10.7381C29.4642 10.7709 29.4315 10.8363 29.3987 10.8691C29.366 10.9018 29.3333 10.9345 29.3005 10.9673C29.235 11 29.1696 11.0328 29.1368 11.0982C28.9731 11.2619 28.7767 11.4256 28.5803 11.5893C28.2856 11.7857 28.0565 12.0476 27.7946 12.2768C27.6309 12.4078 27.4999 12.5714 27.3035 12.6369C27.2708 12.6697 27.238 12.7024 27.2053 12.7351C27.1398 12.7679 27.1071 12.8334 27.0416 12.8661C26.8779 12.997 26.7142 13.0953 26.616 13.2589C26.5833 13.2917 26.5505 13.3572 26.485 13.3899C26.3541 13.4881 26.1904 13.5863 26.0595 13.6845C26.0595 13.6845 26.0267 13.75 25.9285 13.8155ZM31.7231 8.64288C31.6249 8.51193 31.5595 8.41371 31.4612 8.34824C31.4285 8.3155 31.3958 8.28276 31.363 8.25002C31.1993 8.11907 31.0684 7.95538 30.9047 7.82443C30.8065 7.72621 30.7083 7.628 30.61 7.52978C30.5446 7.46431 30.4791 7.43157 30.4464 7.39883C30.2172 7.16967 30.0208 6.9405 29.7916 6.74407C29.6606 6.61312 29.5624 6.5149 29.4315 6.38395C29.366 6.31847 29.2678 6.253 29.2023 6.18752C29.0714 6.08931 28.9731 5.95836 28.8749 5.8274C28.8422 5.79466 28.8095 5.76193 28.7767 5.72919C28.613 5.59824 28.4493 5.50002 28.3184 5.33633C28.2529 5.27086 28.1874 5.23812 28.1547 5.17264C28.0892 5.10717 27.991 5.00895 27.9255 4.94348C27.8273 4.84526 27.7618 4.77978 27.6636 4.68157C27.5981 4.61609 27.4999 4.51788 27.4345 4.4524C27.3362 4.35419 27.2053 4.22324 27.0743 4.12502C26.9434 4.05955 26.8452 3.96133 26.7797 3.83038C26.747 3.79764 26.7142 3.7649 26.6815 3.73217C26.616 3.66669 26.5178 3.56848 26.4523 3.503C26.3868 3.43752 26.3541 3.40478 26.2886 3.33931C26.2559 3.47026 26.2559 3.56848 26.2559 3.69943C26.2559 3.89586 26.2886 4.09228 26.2559 4.32145C26.1904 4.41967 26.1577 4.58336 26.1904 4.74705C26.1904 4.74705 26.1904 4.77978 26.1904 4.81252C26.1577 5.20538 26.1577 5.5655 26.1249 5.95836C26.0922 6.5149 26.0922 7.03871 26.0595 7.59526C26.0595 7.79169 26.0267 7.98812 26.0267 8.15181C26.0267 8.21728 25.994 8.3155 25.994 8.38097C26.0267 8.87205 25.9612 9.36312 25.9285 9.85419C25.8958 10.247 25.8958 10.6726 25.8958 11.0655C25.8958 11.2947 25.863 11.5566 25.863 11.7857C25.863 11.8512 25.8303 11.9494 25.8303 12.0149C25.8303 12.375 25.863 12.7679 25.7976 13.128C25.7648 13.2589 25.7976 13.4226 25.7976 13.5536C25.863 13.5209 25.863 13.4881 25.8958 13.4554C26.0267 13.3572 26.1577 13.2262 26.2886 13.1607C26.3868 13.0953 26.485 13.0298 26.5178 12.9316C26.5505 12.8988 26.5505 12.8661 26.5833 12.8661C26.747 12.7024 26.9434 12.5714 27.1071 12.4078C27.1398 12.375 27.1725 12.3423 27.238 12.3423C27.3035 12.3095 27.369 12.2768 27.4345 12.2113C27.6309 12.0476 27.7946 11.8839 27.991 11.7203C28.1547 11.5893 28.3184 11.4256 28.5148 11.2947C28.6785 11.1964 28.8095 11.0655 28.9404 10.9345C29.0059 10.8691 29.1368 10.8036 29.2023 10.7381C29.235 10.7054 29.235 10.7054 29.2678 10.6726C29.3333 10.6072 29.3987 10.5417 29.4642 10.4762C29.5297 10.4107 29.5952 10.378 29.6606 10.3453C30.0208 10.0506 30.3809 9.72324 30.741 9.42859C30.872 9.29764 31.0356 9.19943 31.1993 9.06847C31.3958 8.93752 31.5595 8.80657 31.7231 8.64288ZM40.366 6.38395C40.366 6.38395 40.366 6.35121 40.366 6.38395C40.366 6.35121 40.3333 6.31847 40.3333 6.31847C40.2678 6.28574 40.1696 6.253 40.1696 6.15478L40.1368 6.12205C40.0059 6.02383 39.9077 5.89288 39.7767 5.79467C39.7112 5.72919 39.6785 5.69645 39.613 5.63098C39.5148 5.5655 39.4493 5.46728 39.3511 5.40181C39.3184 5.36907 39.2856 5.30359 39.2202 5.27086C39.0237 5.10717 38.8273 4.94347 38.6636 4.74705C38.5654 4.61609 38.4017 4.51788 38.3035 4.41967C38.1725 4.28871 38.0089 4.15776 37.8779 3.99407C37.6487 3.7649 37.4523 3.56848 37.2231 3.33931C37.1904 3.30657 37.1577 3.30657 37.1249 3.27383C37.0267 3.17562 36.8958 3.0774 36.7975 2.97919C36.6339 2.8155 36.5029 2.65181 36.3065 2.52086C36.241 2.45538 36.1755 2.3899 36.11 2.32443C36.0446 2.25895 35.9791 2.16074 35.9136 2.09526C35.8154 1.99705 35.7499 1.93157 35.6517 1.83336C35.3571 1.57145 35.0624 1.27681 34.7678 1.0149C34.7023 0.949428 34.6368 0.883952 34.6041 0.818475C34.4731 0.654785 34.3095 0.523833 34.1785 0.360142C34.1458 0.327404 34.113 0.327404 34.0803 0.327404C33.8511 0.425618 33.622 0.491095 33.36 0.589309C33.1636 0.654785 32.9999 0.720261 32.8035 0.785737C32.6071 0.851214 32.4106 0.949428 32.1815 1.04764C32.0178 1.11312 31.8214 1.14586 31.6577 1.21133C31.5267 1.24407 31.4285 1.30955 31.2975 1.34228C31.1666 1.37502 31.0684 1.40776 30.9374 1.4405C30.6428 1.53871 30.3154 1.66967 30.0208 1.76788C29.9553 1.80062 29.8898 1.80062 29.8243 1.83336C29.6279 1.93157 29.3987 2.02978 29.1696 2.06252C29.0714 2.09526 28.9404 2.128 28.8422 2.19348C28.7112 2.22621 28.613 2.29169 28.4821 2.32443C28.3511 2.35717 28.1874 2.3899 28.0565 2.45538C27.86 2.52086 27.6964 2.71728 27.4345 2.68455L27.4017 2.71728C27.4017 2.75002 27.4017 2.75002 27.4345 2.75002C27.4999 2.78276 27.5327 2.78276 27.5981 2.8155C31.7559 3.99407 35.9464 5.17264 40.1041 6.35121C40.1368 6.35121 40.2023 6.38395 40.235 6.38395C40.3005 6.38395 40.3333 6.38395 40.366 6.38395ZM41.6428 7.628C41.3154 7.79169 40.9553 7.82443 40.6279 7.98812C40.497 8.05359 40.366 8.05359 40.235 8.11907C40.1368 8.15181 40.0714 8.21728 39.9731 8.25002C39.7767 8.34824 39.5475 8.44645 39.3184 8.47919C39.2529 8.47919 39.1874 8.51193 39.122 8.54467C38.9583 8.64288 38.7618 8.70836 38.5981 8.74109C38.4672 8.77383 38.3035 8.83931 38.1725 8.90478C37.9761 8.97026 37.8124 9.03574 37.616 9.10121C37.5178 9.13395 37.4196 9.16669 37.3214 9.19943C37.0595 9.29764 36.7975 9.39585 36.5684 9.49407C36.4702 9.52681 36.372 9.55955 36.2737 9.62502C36.3392 9.72324 36.372 9.78871 36.4374 9.85419C36.5029 9.98514 36.5684 10.0834 36.6339 10.2143C36.6993 10.3125 36.7321 10.4435 36.7975 10.5417C36.863 10.6726 36.9612 10.8036 37.0267 10.9345C37.1904 11.1965 37.3541 11.4911 37.5178 11.753C37.5505 11.8185 37.616 11.9167 37.6487 12.0149C37.6815 12.1459 37.747 12.2441 37.8124 12.3423C38.0416 12.7024 38.2708 13.0625 38.4999 13.4226C38.5327 13.4881 38.5981 13.5863 38.6309 13.6518C38.7618 13.8482 38.86 14.0447 38.9583 14.2411C38.991 14.3066 39.0237 14.372 39.0892 14.4375C39.2529 14.6012 39.3839 14.7649 39.4821 14.9941C39.5148 15.0923 39.5803 15.1905 39.6458 15.3214C39.744 15.5179 39.8749 15.747 39.9731 15.9435C40.0059 16.0089 40.0386 16.0417 40.0714 16.1072C40.1696 16.2054 40.2678 16.3036 40.366 16.4345C40.3987 16.5 40.4315 16.5655 40.4642 16.631C40.497 16.6964 40.497 16.7619 40.5297 16.8274C40.6606 17.0566 40.7916 17.253 40.8898 17.4822C40.9553 17.6786 41.0862 17.8095 41.2172 17.9732C41.2172 17.9405 41.2172 17.9078 41.2172 17.9078C41.2172 17.7768 41.2499 17.6459 41.2499 17.5149C41.2499 17.3839 41.2172 17.2857 41.2172 17.1548C41.2172 17.0893 41.1845 16.9911 41.2499 16.9256C41.2827 16.8929 41.2827 16.8601 41.2827 16.7947C41.2827 16.6637 41.2827 16.5 41.2827 16.3691C41.2827 16.0417 41.3154 15.747 41.3481 15.4197C41.3481 15.1578 41.3809 14.9286 41.3809 14.6667C41.3809 14.6339 41.3809 14.6012 41.3809 14.5685C41.3809 14.4375 41.3809 14.3066 41.3809 14.1756C41.4136 13.6845 41.4136 13.1935 41.4464 12.7024C41.4791 12.0804 41.5118 11.4911 41.5446 10.8691C41.5446 10.6726 41.5446 10.4762 41.5446 10.2798C41.5773 9.75597 41.5773 9.23216 41.61 8.70835C41.61 8.47919 41.61 8.21728 41.61 7.98812C41.61 7.82443 41.6428 7.72621 41.6428 7.628Z" fill="black"/>
<path d="M97.4286 75.2321C92.4524 75.2321 87.5089 75.2321 82.5327 75.2321C82.5 75.2321 82.4345 75.2321 82.1726 75.2976C86.6905 76.3452 90.9792 77.3274 95.4315 78.3423C95.2351 78.5714 95.1696 78.7351 95.0387 78.8661C92.6161 80.8303 90.6518 83.2857 88.3601 85.3809C88.0655 85.6428 87.8036 85.7411 87.4107 85.6756C84.9226 85.3809 82.4673 85.119 79.6518 84.8244C81.8125 85.9048 83.7113 86.8542 85.5446 87.8036C84.4315 88.9821 83.5476 90.3571 82.2708 91.1428C80.503 92.2232 79.6518 94.0565 78.1458 95.3333C75.8869 97.2976 73.7917 99.4911 71.631 101.554C71.4345 101.717 71.2054 101.946 71.0089 101.946C66.131 101.979 61.253 101.979 56.3423 101.979C55.9494 99.9821 55.9167 98.0833 57.1607 96.4137C58.3393 94.7768 60.1071 94.8095 61.875 95.0714C63.4464 95.2678 65.0506 95.5298 66.7202 95.1696C59.0268 87.0506 51.3661 78.997 43.6726 70.9107C36.9286 81.0268 30.0536 91.372 23.1458 101.75C21.0179 100.146 18.9554 98.5744 16.8274 96.9702C17.7768 94.8095 18.7262 92.6488 19.8065 90.2262C17.7113 91.8631 15.8452 93.3036 13.9792 94.744C9.29762 91.2738 4.68155 87.869 0 84.3661C2.3244 81.3542 5.04167 79.3244 9.06845 79.5208C12.0804 79.6845 15.1577 79.5536 17.9732 78.5714C23.0149 76.8363 27.4673 73.9881 31.2976 70.1577C33.4256 68.0298 34.9315 65.4107 37.2232 63.4464C37.4851 63.2173 37.7798 62.8899 37.878 62.5625C38.5 59.4851 41.4792 59.0595 43.4762 57.619C43.6399 57.5208 43.8363 57.4881 44.3601 57.2917C40.2679 57.2917 36.5357 57.2917 32.7381 57.2917C31.2976 51.4315 29.8571 45.6696 28.3839 39.744C35.3571 39.744 42.2649 39.744 49.2381 39.744C50.4821 44.7857 51.7262 49.7946 52.9702 54.8363C55.6548 54.8363 58.3065 54.8363 60.9583 54.8363C63.119 54.8363 63.119 54.8363 63.2827 57.2917C59.3542 57.2917 55.4256 57.2917 51.497 57.2917C51.497 57.3244 51.497 57.3899 51.497 57.4226C57.9792 58.2083 64.494 58.994 71.0089 59.8125C72.6786 55.1964 75.1012 51.3661 80.4375 50.3184C80.1101 50.1548 79.9137 50.0565 79.6845 49.9583C77 48.6488 76.378 46.2262 78.1458 43.8363C78.5714 43.247 79.128 42.6905 79.619 42.1667C81.5833 40.0387 81.6815 39.6458 81.2887 35.75C82.7292 36.6339 83.9405 37.6488 85.0208 38.7946C86.8542 40.7589 88.2946 42.8869 88.131 45.7351C88 48.0595 87.0833 49.7946 84.5298 50.6458C85.9375 51.0714 87.0179 51.7262 88.0327 52.5446C89.1458 53.4286 89.8333 54.5089 89.6369 56.0149C89.6369 56.1458 89.6042 56.3095 89.6696 56.4077C92.4851 60.1071 91.2411 63.9702 90.0952 67.8333C90.0952 67.8661 90.128 67.8988 90.128 67.9643C91.1429 68.0952 91.1756 68.128 91.5357 68.7827C91.0446 69.0119 90.4554 68.0952 90.0298 68.8482C90.619 69.1429 90.9792 69.7976 91.7321 69.9286C92.0595 69.4375 92.4851 70.3869 92.878 69.9286C92.878 69.6667 92.878 69.4048 92.878 69.1101C93.3363 69.2083 93.0417 69.9286 93.5982 69.7649C93.5327 70.4524 92.7798 70.4524 92.4851 71.1071C93.2708 71.1071 93.5 70.6488 93.7292 70.1577C94.1548 70.1905 94.6786 69.7321 95.006 70.4851C94.9732 70.125 94.7113 69.8304 95.006 69.6012C95.2024 69.4375 95.4643 69.503 95.7262 69.7321C95.8899 69.8958 95.4315 70.2559 95.8244 70.4524C96.3482 70.3214 96.6429 69.9286 96.8065 69.372C97.2976 69.994 96.7738 70.1905 96.4792 70.5178C96.6429 70.7143 96.7738 70.9107 96.9375 71.1399C97.0685 71.1071 97.2649 71.0417 97.4286 71.0089C97.4286 72.3184 97.4286 73.7589 97.4286 75.2321ZM52.6101 54.7381C51.3988 49.8929 50.2202 45.1458 49.0089 40.3988C48.9762 40.2679 48.7798 40.1042 48.6488 40.1042C47.2083 40.0387 45.7351 39.9077 44.3274 40.006C41.381 40.2351 38.4673 40.1042 35.5536 40.006C33.3274 39.9405 31.1012 40.006 28.7768 40.006C30.0208 45.0804 31.2321 49.9256 32.4107 54.7708C39.1875 54.7381 45.8333 54.7381 52.6101 54.7381ZM85.119 39.4821C84.3006 40.8244 83.1548 41.8393 81.6488 41.872C80.4702 41.9048 79.8155 42.4286 79.128 43.2143C76.4435 46.2262 77.2619 49.0089 81.125 50.0893C84.4315 51.006 87.0506 49.6637 87.6071 46.7173C88.1637 43.8363 86.9524 41.5774 85.119 39.4821ZM62.9881 56.8988C62.5952 56.2768 62.9881 55.2619 62.2351 55.2292C59.2232 55.1309 56.2113 55.1964 53.0685 55.1964C53.3631 55.8185 53.0357 56.8333 53.756 56.8661C56.7679 56.9643 59.7798 56.8988 62.9881 56.8988ZM80.7976 41.381C82.2708 41.5774 84.0714 40.5952 84.5952 39.3839C84.6607 39.253 84.6607 39.0238 84.5952 38.9583C83.7768 38.2054 82.9256 37.4524 81.8452 36.4702C82.369 38.5 81.8452 39.9732 80.7976 41.381ZM93.7946 71.9911C94.6131 72.0565 95.4315 72.0893 96.2173 72.1548C96.2173 72.0893 96.2173 72.0238 96.25 71.9583C95.4315 71.7292 94.6131 71.5327 93.7946 71.3036C93.7946 71.5 93.7946 71.7619 93.7946 71.9911Z" fill="black"/>
<path d="M81.649 22.8837C81.6163 22.7528 81.5835 22.5891 81.5508 22.4581C81.2889 22.4254 81.027 22.3599 80.7651 22.2944C80.6341 22.5891 80.4704 22.8182 80.2085 22.9492C79.3901 23.3748 78.9317 24.0623 78.6371 24.8807C77.8514 27.0087 78.0478 29.2022 78.4407 31.3629C78.6371 32.3778 79.5865 32.8688 80.5032 33.0653C81.4526 33.2617 81.9764 32.5087 82.3693 31.7885C83.1877 30.1843 83.2859 28.4492 83.1222 26.6486C83.024 25.2081 82.0091 24.1605 81.649 22.8837ZM81.2562 32.476C80.1758 33.0653 79.4883 32.2796 78.9645 31.5593C78.4407 30.8718 78.4079 27.4671 78.8008 26.5176C80.0448 26.9432 81.2562 27.3361 82.4347 27.7617C82.5657 27.7944 82.6966 27.9254 82.7621 28.0563C83.1222 29.0385 82.2056 31.9522 81.2562 32.476Z" fill="black"/>
<path d="M68.2258 36.3719C69.3717 34.8332 70.3211 33.2945 71.7615 32.1814C72.6127 31.5266 73.6276 31.5266 74.5115 32.2141C75.33 32.8362 75.6246 33.6546 75.33 34.6695C75.0026 35.7498 74.2169 36.3064 73.1365 36.3719C71.5651 36.4046 69.9609 36.3719 68.2258 36.3719ZM73.7586 35.8481C74.5115 35.4879 74.9371 35.0296 75.0026 34.2766C75.1008 33.4582 74.8062 32.8034 74.0859 32.4106C73.4967 32.0832 72.8746 32.0504 72.1544 32.4433C72.7109 33.5564 73.202 34.6695 73.7586 35.8481Z" fill="black"/>
<path d="M68.0626 55.72C66.3929 54.7051 64.756 53.9194 63.5447 52.5771C62.89 51.8569 62.8245 50.973 63.2501 50.1218C63.6757 49.2706 64.3959 48.845 65.3126 48.8777C66.2947 48.9105 67.0149 49.4015 67.3423 50.3182C67.8989 52.0206 67.8989 53.7884 68.0626 55.72ZM63.7739 52.2825C64.8542 51.6605 65.9019 51.0384 66.9822 50.3837C66.5894 49.5325 65.9673 49.2051 65.2144 49.2378C64.4941 49.2706 63.8721 49.6307 63.5447 50.3182C63.2501 50.9402 63.2173 51.595 63.7739 52.2825Z" fill="black"/>
<path d="M70.387 57.6516C70.3215 58.3064 69.9942 58.6993 69.3394 58.6993C68.6846 58.6993 68.259 58.3064 68.259 57.6189C68.259 56.9969 68.6519 56.5713 69.2739 56.5713C69.9287 56.5713 70.2888 56.9969 70.387 57.6516Z" fill="black"/>
<path d="M61.7444 46.3901C62.3991 46.4556 62.792 46.8485 62.792 47.5032C62.792 48.1253 62.4319 48.4854 61.8098 48.5181C61.1223 48.5508 60.7949 48.0925 60.7622 47.4378C60.7622 46.783 61.1551 46.4884 61.7444 46.3901Z" fill="black"/>
<path d="M78.0804 41.9704C77.9822 42.5924 77.6221 43.0508 76.9673 43.0508C76.378 43.0508 75.9524 42.6579 75.9852 42.0686C75.9852 41.4139 76.378 41.021 77.0655 40.9883C77.6876 40.9883 77.9822 41.3811 78.0804 41.9704Z" fill="black"/>
<path d="M62.2681 41.6104C62.8574 41.6758 63.2503 42.0032 63.2503 42.6252C63.2503 43.2473 62.8902 43.6728 62.2354 43.7056C61.6134 43.7056 61.1878 43.3455 61.2205 42.658C61.2533 42.0359 61.6134 41.6758 62.2681 41.6104Z" fill="black"/>
<path d="M70.3213 50.3837C69.6665 50.3182 69.3064 49.9581 69.3064 49.3688C69.3391 48.7141 69.7647 48.3212 70.4195 48.3539C71.0088 48.3539 71.3689 48.7468 71.3689 49.3361C71.3689 50.0236 70.9433 50.3182 70.3213 50.3837Z" fill="black"/>
<path d="M74.8394 45.8005C74.7412 46.4225 74.4138 46.8481 73.7918 46.8481C73.2025 46.8481 72.7769 46.488 72.8096 45.866C72.8096 45.2112 73.2025 44.7856 73.89 44.7856C74.512 44.7856 74.7739 45.1785 74.8394 45.8005Z" fill="black"/>
<path d="M66.3597 38.8601C66.2615 39.4821 65.9013 39.875 65.2793 39.8423C64.6573 39.8095 64.2972 39.4167 64.3299 38.8274C64.3627 38.2054 64.7555 37.8125 65.4103 37.8125C65.9996 37.8452 66.2942 38.2381 66.3597 38.8601Z" fill="black"/>
<path d="M77.1636 21.4435C78.2112 19.1518 81.9761 16.5 84.1695 16.4346C81.3213 17.4822 79.2261 19.0209 77.1636 21.4435Z" fill="black"/>
<path d="M81.9108 47.47C81.8126 48.1248 81.4525 48.6159 80.765 48.6159C80.0775 48.6159 79.6519 48.1575 79.6519 47.47C79.6519 46.8153 80.0775 46.3569 80.765 46.3569C81.4852 46.3569 81.8126 46.848 81.9108 47.47Z" fill="black"/>
<path d="M83.7767 43.607C83.6785 44.2618 83.3839 44.7201 82.6636 44.7201C82.0088 44.7201 81.5833 44.36 81.5833 43.6725C81.5833 42.985 81.9434 42.5594 82.6309 42.5267C83.3511 42.4939 83.7112 42.9195 83.7767 43.607Z" fill="black"/>
</g>
<defs>
<clipPath id="clip0">
<rect width="110" height="101.946" fill="white"/>
</clipPath>
</defs>
</svg>
