<svg width="120" height="96" viewBox="0 0 120 96" fill="none" xmlns="http://www.w3.org/2000/svg">
<g clip-path="url(#clip0)">
<path d="M105.524 21.5874H37.4177V64.889H105.524V21.5874Z" stroke="#091929" stroke-width="2" stroke-miterlimit="10"/>
<path d="M104.889 21.5874L71.2804 46.6456L37.9683 21.5874H104.889Z" stroke="#091929" stroke-width="2" stroke-miterlimit="10" stroke-linejoin="round"/>
<path d="M22.0197 1.45815L0.69165 3.42432L1.93896 16.9545L23.267 14.9884L22.0197 1.45815Z" stroke="#091929" stroke-miterlimit="10"/>
<path d="M21.7988 1.48145L12.021 10.2857L0.846436 3.38621L21.7988 1.48145Z" stroke="#091929" stroke-miterlimit="10" stroke-linejoin="round"/>
<path d="M72.762 52.6563C76.8764 52.6563 80.2117 49.3209 80.2117 45.2066C80.2117 41.0922 76.8764 37.7568 72.762 37.7568C68.6476 37.7568 65.3123 41.0922 65.3123 45.2066C65.3123 49.3209 68.6476 52.6563 72.762 52.6563Z" fill="#091929"/>
<path d="M70.3491 45.2912L72.2539 47.1536L76.2327 43.3018" stroke="white" stroke-width="2" stroke-miterlimit="10" stroke-linecap="round"/>
<path d="M37.4181 25.6934H34.0742V67.9791H103.492V64.8468" stroke="#091929" stroke-width="2" stroke-miterlimit="10"/>
<path d="M34.0741 29.2485H30.5186V71.6189H100.275V67.9787" stroke="#091929" stroke-width="2" stroke-miterlimit="10"/>
<path d="M30.5187 33.6509H27.0901V75.09H97.3123V71.1959" stroke="#091929" stroke-width="2" stroke-miterlimit="10"/>
<path d="M96.5503 44.3173C96.8542 44.3173 97.1005 44.071 97.1005 43.7671C97.1005 43.4632 96.8542 43.2168 96.5503 43.2168C96.2464 43.2168 96 43.4632 96 43.7671C96 44.071 96.2464 44.3173 96.5503 44.3173Z" fill="#091929"/>
<path d="M96 40.6772C96 40.9735 96.254 41.2275 96.5503 41.2275C96.8466 41.2275 97.1005 40.9735 97.1005 40.6772C97.1005 40.3809 96.8466 40.127 96.5503 40.127C96.254 40.127 96 40.3809 96 40.6772Z" fill="#091929"/>
<path d="M96.5503 38.1376C96.8542 38.1376 97.1005 37.8913 97.1005 37.5874C97.1005 37.2835 96.8542 37.0371 96.5503 37.0371C96.2464 37.0371 96 37.2835 96 37.5874C96 37.8913 96.2464 38.1376 96.5503 38.1376Z" fill="#091929"/>
<path d="M96 34.4975C96 34.7938 96.254 35.0478 96.5503 35.0478C96.8466 35.0478 97.1005 34.7938 97.1005 34.4975C97.1005 34.2012 96.8466 33.9473 96.5503 33.9473C96.254 33.9473 96 34.2012 96 34.4975Z" fill="#091929"/>
<path d="M96 31.4077C96 31.704 96.254 31.9579 96.5503 31.9579C96.8466 31.9579 97.1005 31.704 97.1005 31.4077C97.1005 31.1114 96.8466 30.8574 96.5503 30.8574C96.254 30.8574 96 31.1114 96 31.4077Z" fill="#091929"/>
<path d="M96 28.3174C96 28.6137 96.254 28.8676 96.5503 28.8676C96.8466 28.8676 97.1005 28.6137 97.1005 28.3174C97.1005 28.0211 96.8466 27.7671 96.5503 27.7671C96.254 27.7671 96 28.0211 96 28.3174Z" fill="#091929"/>
<path d="M96 25.2275C96 25.5238 96.254 25.7778 96.5503 25.7778C96.8466 25.7778 97.1005 25.5238 97.1005 25.2275C97.1005 24.9312 96.8466 24.6772 96.5503 24.6772C96.254 24.6772 96 24.9312 96 25.2275Z" fill="#091929"/>
<path d="M99.6403 44.3173C99.9442 44.3173 100.191 44.071 100.191 43.7671C100.191 43.4632 99.9442 43.2168 99.6403 43.2168C99.3364 43.2168 99.0901 43.4632 99.0901 43.7671C99.0901 44.071 99.3364 44.3173 99.6403 44.3173Z" fill="#091929"/>
<path d="M99.0901 40.6772C99.0901 40.9735 99.344 41.2275 99.6403 41.2275C99.9366 41.2275 100.191 40.9735 100.191 40.6772C100.191 40.3809 99.9366 40.127 99.6403 40.127C99.344 40.127 99.0901 40.3809 99.0901 40.6772Z" fill="#091929"/>
<path d="M99.6403 38.1376C99.9442 38.1376 100.191 37.8913 100.191 37.5874C100.191 37.2835 99.9442 37.0371 99.6403 37.0371C99.3364 37.0371 99.0901 37.2835 99.0901 37.5874C99.0901 37.8913 99.3364 38.1376 99.6403 38.1376Z" fill="#091929"/>
<path d="M99.0901 34.4975C99.0901 34.7938 99.344 35.0478 99.6403 35.0478C99.9366 35.0478 100.191 34.7938 100.191 34.4975C100.191 34.2012 99.9366 33.9473 99.6403 33.9473C99.344 33.9473 99.0901 34.2012 99.0901 34.4975Z" fill="#091929"/>
<path d="M99.0901 31.4077C99.0901 31.704 99.344 31.9579 99.6403 31.9579C99.9366 31.9579 100.191 31.704 100.191 31.4077C100.191 31.1114 99.9366 30.8574 99.6403 30.8574C99.344 30.8574 99.0901 31.1114 99.0901 31.4077Z" fill="#091929"/>
<path d="M99.0901 28.3174C99.0901 28.6137 99.344 28.8676 99.6403 28.8676C99.9366 28.8676 100.191 28.6137 100.191 28.3174C100.191 28.0211 99.9366 27.7671 99.6403 27.7671C99.344 27.7671 99.0901 28.0211 99.0901 28.3174Z" fill="#091929"/>
<path d="M99.0901 25.2275C99.0901 25.5238 99.344 25.7778 99.6403 25.7778C99.9366 25.7778 100.191 25.5238 100.191 25.2275C100.191 24.9312 99.9366 24.6772 99.6403 24.6772C99.344 24.6772 99.0901 24.9312 99.0901 25.2275Z" fill="#091929"/>
<path d="M102.73 44.3173C103.034 44.3173 103.281 44.071 103.281 43.7671C103.281 43.4632 103.034 43.2168 102.73 43.2168C102.427 43.2168 102.18 43.4632 102.18 43.7671C102.18 44.071 102.427 44.3173 102.73 44.3173Z" fill="#091929"/>
<path d="M102.18 40.6772C102.18 40.9735 102.434 41.2275 102.73 41.2275C103.027 41.2275 103.281 40.9735 103.281 40.6772C103.281 40.3809 103.027 40.127 102.73 40.127C102.434 40.127 102.18 40.3809 102.18 40.6772Z" fill="#091929"/>
<path d="M102.73 38.1376C103.034 38.1376 103.281 37.8913 103.281 37.5874C103.281 37.2835 103.034 37.0371 102.73 37.0371C102.427 37.0371 102.18 37.2835 102.18 37.5874C102.18 37.8913 102.427 38.1376 102.73 38.1376Z" fill="#091929"/>
<path d="M102.18 34.4975C102.18 34.7938 102.434 35.0478 102.73 35.0478C103.027 35.0478 103.281 34.7938 103.281 34.4975C103.281 34.2012 103.027 33.9473 102.73 33.9473C102.434 33.9473 102.18 34.2012 102.18 34.4975Z" fill="#091929"/>
<path d="M102.18 31.4077C102.18 31.704 102.434 31.9579 102.73 31.9579C103.027 31.9579 103.281 31.704 103.281 31.4077C103.281 31.1114 103.027 30.8574 102.73 30.8574C102.434 30.8574 102.18 31.1114 102.18 31.4077Z" fill="#091929"/>
<path d="M102.18 28.3174C102.18 28.6137 102.434 28.8676 102.73 28.8676C103.027 28.8676 103.281 28.6137 103.281 28.3174C103.281 28.0211 103.027 27.7671 102.73 27.7671C102.434 27.7671 102.18 28.0211 102.18 28.3174Z" fill="#091929"/>
<path d="M102.18 25.2275C102.18 25.5238 102.434 25.7778 102.73 25.7778C103.027 25.7778 103.281 25.5238 103.281 25.2275C103.281 24.9312 103.027 24.6772 102.73 24.6772C102.434 24.6772 102.18 24.9312 102.18 25.2275Z" fill="#091929"/>
<path d="M105.82 44.3173C106.124 44.3173 106.37 44.071 106.37 43.7671C106.37 43.4632 106.124 43.2168 105.82 43.2168C105.516 43.2168 105.27 43.4632 105.27 43.7671C105.27 44.071 105.516 44.3173 105.82 44.3173Z" fill="#091929"/>
<path d="M105.27 40.6772C105.27 40.9735 105.524 41.2275 105.82 41.2275C106.116 41.2275 106.37 40.9735 106.37 40.6772C106.37 40.3809 106.116 40.127 105.82 40.127C105.524 40.127 105.27 40.3809 105.27 40.6772Z" fill="#091929"/>
<path d="M105.82 38.1376C106.124 38.1376 106.37 37.8913 106.37 37.5874C106.37 37.2835 106.124 37.0371 105.82 37.0371C105.516 37.0371 105.27 37.2835 105.27 37.5874C105.27 37.8913 105.516 38.1376 105.82 38.1376Z" fill="#091929"/>
<path d="M105.27 34.4975C105.27 34.7938 105.524 35.0478 105.82 35.0478C106.116 35.0478 106.37 34.7938 106.37 34.4975C106.37 34.2012 106.116 33.9473 105.82 33.9473C105.524 33.9473 105.27 34.2012 105.27 34.4975Z" fill="#091929"/>
<path d="M105.27 31.4077C105.27 31.704 105.524 31.9579 105.82 31.9579C106.116 31.9579 106.37 31.704 106.37 31.4077C106.37 31.1114 106.116 30.8574 105.82 30.8574C105.524 30.8574 105.27 31.1114 105.27 31.4077Z" fill="#091929"/>
<path d="M105.27 28.3174C105.27 28.6137 105.524 28.8676 105.82 28.8676C106.116 28.8676 106.37 28.6137 106.37 28.3174C106.37 28.0211 106.116 27.7671 105.82 27.7671C105.524 27.7671 105.27 28.0211 105.27 28.3174Z" fill="#091929"/>
<path d="M105.27 25.2275C105.27 25.5238 105.524 25.7778 105.82 25.7778C106.116 25.7778 106.37 25.5238 106.37 25.2275C106.37 24.9312 106.116 24.6772 105.82 24.6772C105.524 24.6772 105.27 24.9312 105.27 25.2275Z" fill="#091929"/>
<path d="M108.36 43.7671C108.36 44.0634 108.614 44.3173 108.91 44.3173C109.206 44.3173 109.46 44.0634 109.46 43.7671C109.46 43.4708 109.206 43.2168 108.91 43.2168C108.614 43.2168 108.36 43.4708 108.36 43.7671Z" fill="#091929"/>
<path d="M108.36 40.6772C108.36 40.9735 108.614 41.2275 108.91 41.2275C109.206 41.2275 109.46 40.9735 109.46 40.6772C109.46 40.3809 109.206 40.127 108.91 40.127C108.614 40.127 108.36 40.3809 108.36 40.6772Z" fill="#091929"/>
<path d="M108.36 37.5874C108.36 37.8837 108.614 38.1376 108.91 38.1376C109.206 38.1376 109.46 37.8837 109.46 37.5874C109.46 37.2911 109.206 37.0371 108.91 37.0371C108.614 37.0371 108.36 37.2911 108.36 37.5874Z" fill="#091929"/>
<path d="M108.36 34.4975C108.36 34.7938 108.614 35.0478 108.91 35.0478C109.206 35.0478 109.46 34.7938 109.46 34.4975C109.46 34.2012 109.206 33.9473 108.91 33.9473C108.614 33.9473 108.36 34.2012 108.36 34.4975Z" fill="#091929"/>
<path d="M108.36 31.4077C108.36 31.704 108.614 31.9579 108.91 31.9579C109.206 31.9579 109.46 31.704 109.46 31.4077C109.46 31.1114 109.206 30.8574 108.91 30.8574C108.614 30.8574 108.36 31.1114 108.36 31.4077Z" fill="#091929"/>
<path d="M108.36 28.3174C108.36 28.6137 108.614 28.8676 108.91 28.8676C109.206 28.8676 109.46 28.6137 109.46 28.3174C109.46 28.0211 109.206 27.7671 108.91 27.7671C108.614 27.7671 108.36 28.0211 108.36 28.3174Z" fill="#091929"/>
<path d="M108.36 25.2275C108.36 25.5238 108.614 25.7778 108.91 25.7778C109.206 25.7778 109.46 25.5238 109.46 25.2275C109.46 24.9312 109.206 24.6772 108.91 24.6772C108.614 24.6772 108.36 24.9312 108.36 25.2275Z" fill="#091929"/>
<path d="M112 44.3173C112.304 44.3173 112.55 44.071 112.55 43.7671C112.55 43.4632 112.304 43.2168 112 43.2168C111.696 43.2168 111.45 43.4632 111.45 43.7671C111.45 44.071 111.696 44.3173 112 44.3173Z" fill="#091929"/>
<path d="M111.45 40.6772C111.45 40.9735 111.704 41.2275 112 41.2275C112.296 41.2275 112.55 40.9735 112.55 40.6772C112.55 40.3809 112.296 40.127 112 40.127C111.661 40.127 111.45 40.3809 111.45 40.6772Z" fill="#091929"/>
<path d="M112 38.1376C112.304 38.1376 112.55 37.8913 112.55 37.5874C112.55 37.2835 112.304 37.0371 112 37.0371C111.696 37.0371 111.45 37.2835 111.45 37.5874C111.45 37.8913 111.696 38.1376 112 38.1376Z" fill="#091929"/>
<path d="M111.45 34.4975C111.45 34.7938 111.704 35.0478 112 35.0478C112.296 35.0478 112.55 34.7938 112.55 34.4975C112.55 34.2012 112.296 33.9473 112 33.9473C111.661 33.9473 111.45 34.2012 111.45 34.4975Z" fill="#091929"/>
<path d="M111.45 31.4077C111.45 31.704 111.704 31.9579 112 31.9579C112.296 31.9579 112.55 31.704 112.55 31.4077C112.55 31.1114 112.296 30.8574 112 30.8574C111.661 30.8574 111.45 31.1114 111.45 31.4077Z" fill="#091929"/>
<path d="M111.45 28.3174C111.45 28.6137 111.704 28.8676 112 28.8676C112.296 28.8676 112.55 28.6137 112.55 28.3174C112.55 28.0211 112.296 27.7671 112 27.7671C111.661 27.7671 111.45 28.0211 111.45 28.3174Z" fill="#091929"/>
<path d="M111.45 25.2275C111.45 25.5238 111.704 25.7778 112 25.7778C112.296 25.7778 112.55 25.5238 112.55 25.2275C112.55 24.9312 112.296 24.6772 112 24.6772C111.661 24.6772 111.45 24.9312 111.45 25.2275Z" fill="#091929"/>
<path d="M115.09 44.3173C115.394 44.3173 115.64 44.071 115.64 43.7671C115.64 43.4632 115.394 43.2168 115.09 43.2168C114.786 43.2168 114.54 43.4632 114.54 43.7671C114.54 44.071 114.786 44.3173 115.09 44.3173Z" fill="#091929"/>
<path d="M114.54 40.6772C114.54 40.9735 114.794 41.2275 115.09 41.2275C115.386 41.2275 115.64 40.9735 115.64 40.6772C115.64 40.3809 115.386 40.127 115.09 40.127C114.794 40.127 114.54 40.3809 114.54 40.6772Z" fill="#091929"/>
<path d="M115.09 38.1376C115.394 38.1376 115.64 37.8913 115.64 37.5874C115.64 37.2835 115.394 37.0371 115.09 37.0371C114.786 37.0371 114.54 37.2835 114.54 37.5874C114.54 37.8913 114.786 38.1376 115.09 38.1376Z" fill="#091929"/>
<path d="M114.54 34.4975C114.54 34.7938 114.794 35.0478 115.09 35.0478C115.386 35.0478 115.64 34.7938 115.64 34.4975C115.64 34.2012 115.386 33.9473 115.09 33.9473C114.794 33.9473 114.54 34.2012 114.54 34.4975Z" fill="#091929"/>
<path d="M114.54 31.4077C114.54 31.704 114.794 31.9579 115.09 31.9579C115.386 31.9579 115.64 31.704 115.64 31.4077C115.64 31.1114 115.386 30.8574 115.09 30.8574C114.794 30.8574 114.54 31.1114 114.54 31.4077Z" fill="#091929"/>
<path d="M114.54 28.3174C114.54 28.6137 114.794 28.8676 115.09 28.8676C115.386 28.8676 115.64 28.6137 115.64 28.3174C115.64 28.0211 115.386 27.7671 115.09 27.7671C114.794 27.7671 114.54 28.0211 114.54 28.3174Z" fill="#091929"/>
<path d="M114.54 25.2275C114.54 25.5238 114.794 25.7778 115.09 25.7778C115.386 25.7778 115.64 25.5238 115.64 25.2275C115.64 24.9312 115.386 24.6772 115.09 24.6772C114.794 24.6772 114.54 24.9312 114.54 25.2275Z" fill="#091929"/>
<path d="M96 22.1377C96 22.434 96.254 22.6879 96.5503 22.6879C96.8466 22.6879 97.1005 22.434 97.1005 22.1377C97.1005 21.8414 96.8466 21.5874 96.5503 21.5874C96.254 21.5874 96 21.799 96 22.1377Z" fill="#091929"/>
<path d="M96 19.0053C96 19.3016 96.254 19.5556 96.5503 19.5556C96.8466 19.5556 97.1005 19.3016 97.1005 19.0053C97.1005 18.709 96.8466 18.4551 96.5503 18.4551C96.254 18.4974 96 18.709 96 19.0053Z" fill="#091929"/>
<path d="M96 15.9155C96 16.2118 96.254 16.4658 96.5503 16.4658C96.8466 16.4658 97.1005 16.2118 97.1005 15.9155C97.1005 15.6192 96.8466 15.3652 96.5503 15.3652C96.254 15.4076 96 15.6192 96 15.9155Z" fill="#091929"/>
<path d="M96.5503 13.3759C96.8542 13.3759 97.1005 13.1296 97.1005 12.8257C97.1005 12.5218 96.8542 12.2754 96.5503 12.2754C96.2464 12.2754 96 12.5218 96 12.8257C96 13.1296 96.2464 13.3759 96.5503 13.3759Z" fill="#091929"/>
<path d="M96 9.73532C96 10.0316 96.254 10.2856 96.5503 10.2856C96.8466 10.2856 97.1005 10.0316 97.1005 9.73532C97.1005 9.43903 96.8466 9.18506 96.5503 9.18506C96.254 9.18506 96 9.43903 96 9.73532Z" fill="#091929"/>
<path d="M96 6.64548C96 6.94178 96.254 7.19574 96.5503 7.19574C96.8466 7.19574 97.1005 6.94178 97.1005 6.64548C97.1005 6.34918 96.8466 6.09521 96.5503 6.09521C96.254 6.09521 96 6.34918 96 6.64548Z" fill="#091929"/>
<path d="M97.1005 3.55564C97.1005 3.25934 96.8466 3.00537 96.5503 3.00537C96.254 3.00537 96 3.25934 96 3.55564C96 3.85193 96.254 4.1059 96.5503 4.1059C96.8466 4.1059 97.1005 3.85193 97.1005 3.55564Z" fill="#091929"/>
<path d="M99.0901 22.1377C99.0901 22.434 99.344 22.6879 99.6403 22.6879C99.9366 22.6879 100.191 22.434 100.191 22.1377C100.191 21.8414 99.9366 21.5874 99.6403 21.5874C99.344 21.5874 99.0901 21.799 99.0901 22.1377Z" fill="#091929"/>
<path d="M99.0901 19.0053C99.0901 19.3016 99.344 19.5556 99.6403 19.5556C99.9366 19.5556 100.191 19.3016 100.191 19.0053C100.191 18.709 99.9366 18.4551 99.6403 18.4551C99.344 18.4551 99.0901 18.709 99.0901 19.0053Z" fill="#091929"/>
<path d="M99.0901 15.9155C99.0901 16.2118 99.344 16.4658 99.6403 16.4658C99.9366 16.4658 100.191 16.2118 100.191 15.9155C100.191 15.6192 99.9366 15.3652 99.6403 15.3652C99.344 15.3652 99.0901 15.6192 99.0901 15.9155Z" fill="#091929"/>
<path d="M99.6403 13.3759C99.9442 13.3759 100.191 13.1296 100.191 12.8257C100.191 12.5218 99.9442 12.2754 99.6403 12.2754C99.3364 12.2754 99.0901 12.5218 99.0901 12.8257C99.0901 13.1296 99.3364 13.3759 99.6403 13.3759Z" fill="#091929"/>
<path d="M99.0901 9.73532C99.0901 10.0316 99.344 10.2856 99.6403 10.2856C99.9366 10.2856 100.191 10.0316 100.191 9.73532C100.191 9.43903 99.9366 9.18506 99.6403 9.18506C99.344 9.18506 99.0901 9.43903 99.0901 9.73532Z" fill="#091929"/>
<path d="M99.0901 6.64548C99.0901 6.94178 99.344 7.19574 99.6403 7.19574C99.9366 7.19574 100.191 6.94178 100.191 6.64548C100.191 6.34918 99.9366 6.09521 99.6403 6.09521C99.344 6.09521 99.0901 6.34918 99.0901 6.64548Z" fill="#091929"/>
<path d="M99.0901 3.55564C99.0901 3.85193 99.344 4.1059 99.6403 4.1059C99.9366 4.1059 100.191 3.85193 100.191 3.55564C100.191 3.25934 99.9366 3.00537 99.6403 3.00537C99.344 3.00537 99.0901 3.25934 99.0901 3.55564Z" fill="#091929"/>
<path d="M102.18 22.1377C102.18 22.434 102.434 22.6879 102.73 22.6879C103.027 22.6879 103.281 22.434 103.281 22.1377C103.281 21.8414 103.027 21.5874 102.73 21.5874C102.434 21.5874 102.18 21.799 102.18 22.1377Z" fill="#091929"/>
<path d="M102.18 19.0053C102.18 19.3016 102.434 19.5556 102.73 19.5556C103.027 19.5556 103.281 19.3016 103.281 19.0053C103.281 18.709 103.027 18.4551 102.73 18.4551C102.434 18.4974 102.18 18.709 102.18 19.0053Z" fill="#091929"/>
<path d="M102.18 15.9155C102.18 16.2118 102.434 16.4658 102.73 16.4658C103.027 16.4658 103.281 16.2118 103.281 15.9155C103.281 15.6192 103.027 15.3652 102.73 15.3652C102.434 15.4076 102.18 15.6192 102.18 15.9155Z" fill="#091929"/>
<path d="M102.73 13.3759C103.034 13.3759 103.281 13.1296 103.281 12.8257C103.281 12.5218 103.034 12.2754 102.73 12.2754C102.427 12.2754 102.18 12.5218 102.18 12.8257C102.18 13.1296 102.427 13.3759 102.73 13.3759Z" fill="#091929"/>
<path d="M102.18 9.73532C102.18 10.0316 102.434 10.2856 102.73 10.2856C103.027 10.2856 103.281 10.0316 103.281 9.73532C103.281 9.43903 103.027 9.18506 102.73 9.18506C102.434 9.18506 102.18 9.43903 102.18 9.73532Z" fill="#091929"/>
<path d="M102.18 6.64548C102.18 6.94178 102.434 7.19574 102.73 7.19574C103.027 7.19574 103.281 6.94178 103.281 6.64548C103.281 6.34918 103.027 6.09521 102.73 6.09521C102.434 6.09521 102.18 6.34918 102.18 6.64548Z" fill="#091929"/>
<path d="M102.18 3.55564C102.18 3.85193 102.434 4.1059 102.73 4.1059C103.027 4.1059 103.281 3.85193 103.281 3.55564C103.281 3.25934 103.027 3.00537 102.73 3.00537C102.434 3.00537 102.18 3.25934 102.18 3.55564Z" fill="#091929"/>
<path d="M105.27 22.1377C105.27 22.434 105.524 22.6879 105.82 22.6879C106.116 22.6879 106.37 22.434 106.37 22.1377C106.37 21.8414 106.116 21.5874 105.82 21.5874C105.524 21.5874 105.27 21.799 105.27 22.1377Z" fill="#091929"/>
<path d="M105.27 19.0053C105.27 19.3016 105.524 19.5556 105.82 19.5556C106.116 19.5556 106.37 19.3016 106.37 19.0053C106.37 18.709 106.116 18.4551 105.82 18.4551C105.524 18.4974 105.27 18.709 105.27 19.0053Z" fill="#091929"/>
<path d="M105.27 15.9155C105.27 16.2118 105.524 16.4658 105.82 16.4658C106.116 16.4658 106.37 16.2118 106.37 15.9155C106.37 15.6192 106.116 15.3652 105.82 15.3652C105.524 15.4076 105.27 15.6192 105.27 15.9155Z" fill="#091929"/>
<path d="M105.82 13.3759C106.124 13.3759 106.37 13.1296 106.37 12.8257C106.37 12.5218 106.124 12.2754 105.82 12.2754C105.516 12.2754 105.27 12.5218 105.27 12.8257C105.27 13.1296 105.516 13.3759 105.82 13.3759Z" fill="#091929"/>
<path d="M105.27 9.73532C105.27 10.0316 105.524 10.2856 105.82 10.2856C106.116 10.2856 106.37 10.0316 106.37 9.73532C106.37 9.43903 106.116 9.18506 105.82 9.18506C105.524 9.18506 105.27 9.43903 105.27 9.73532Z" fill="#091929"/>
<path d="M105.27 6.64548C105.27 6.94178 105.524 7.19574 105.82 7.19574C106.116 7.19574 106.37 6.94178 106.37 6.64548C106.37 6.34918 106.116 6.09521 105.82 6.09521C105.524 6.09521 105.27 6.34918 105.27 6.64548Z" fill="#091929"/>
<path d="M105.27 3.55564C105.27 3.85193 105.524 4.1059 105.82 4.1059C106.116 4.1059 106.37 3.85193 106.37 3.55564C106.37 3.25934 106.116 3.00537 105.82 3.00537C105.524 3.00537 105.27 3.25934 105.27 3.55564Z" fill="#091929"/>
<path d="M108.36 22.1377C108.36 22.434 108.614 22.6879 108.91 22.6879C109.206 22.6879 109.46 22.434 109.46 22.1377C109.46 21.8414 109.206 21.5874 108.91 21.5874C108.614 21.5874 108.36 21.799 108.36 22.1377Z" fill="#091929"/>
<path d="M108.36 19.0053C108.36 19.3016 108.614 19.5556 108.91 19.5556C109.206 19.5556 109.46 19.3016 109.46 19.0053C109.46 18.709 109.206 18.4551 108.91 18.4551C108.614 18.4551 108.36 18.709 108.36 19.0053Z" fill="#091929"/>
<path d="M108.36 15.9155C108.36 16.2118 108.614 16.4658 108.91 16.4658C109.206 16.4658 109.46 16.2118 109.46 15.9155C109.46 15.6192 109.206 15.3652 108.91 15.3652C108.614 15.3652 108.36 15.6192 108.36 15.9155Z" fill="#091929"/>
<path d="M108.36 12.8257C108.36 13.122 108.614 13.3759 108.91 13.3759C109.206 13.3759 109.46 13.122 109.46 12.8257C109.46 12.5294 109.206 12.2754 108.91 12.2754C108.614 12.2754 108.36 12.5294 108.36 12.8257Z" fill="#091929"/>
<path d="M108.36 9.73532C108.36 10.0316 108.614 10.2856 108.91 10.2856C109.206 10.2856 109.46 10.0316 109.46 9.73532C109.46 9.43903 109.206 9.18506 108.91 9.18506C108.614 9.18506 108.36 9.43903 108.36 9.73532Z" fill="#091929"/>
<path d="M108.36 6.64548C108.36 6.94178 108.614 7.19574 108.91 7.19574C109.206 7.19574 109.46 6.94178 109.46 6.64548C109.46 6.34918 109.206 6.09521 108.91 6.09521C108.614 6.09521 108.36 6.34918 108.36 6.64548Z" fill="#091929"/>
<path d="M108.36 3.55564C108.36 3.85193 108.614 4.1059 108.91 4.1059C109.206 4.1059 109.46 3.85193 109.46 3.55564C109.46 3.25934 109.206 3.00537 108.91 3.00537C108.614 3.00537 108.36 3.25934 108.36 3.55564Z" fill="#091929"/>
<path d="M111.45 22.1377C111.45 22.434 111.704 22.6879 112 22.6879C112.296 22.6879 112.55 22.434 112.55 22.1377C112.55 21.8414 112.296 21.5874 112 21.5874C111.661 21.5874 111.45 21.799 111.45 22.1377Z" fill="#091929"/>
<path d="M111.45 19.0053C111.45 19.3016 111.704 19.5556 112 19.5556C112.296 19.5556 112.55 19.3016 112.55 19.0053C112.55 18.709 112.296 18.4551 112 18.4551C111.661 18.4974 111.45 18.709 111.45 19.0053Z" fill="#091929"/>
<path d="M111.45 15.9155C111.45 16.2118 111.704 16.4658 112 16.4658C112.296 16.4658 112.55 16.2118 112.55 15.9155C112.55 15.6192 112.296 15.3652 112 15.3652C111.661 15.4076 111.45 15.6192 111.45 15.9155Z" fill="#091929"/>
<path d="M112 13.3759C112.304 13.3759 112.55 13.1296 112.55 12.8257C112.55 12.5218 112.304 12.2754 112 12.2754C111.696 12.2754 111.45 12.5218 111.45 12.8257C111.45 13.1296 111.696 13.3759 112 13.3759Z" fill="#091929"/>
<path d="M111.45 9.73532C111.45 10.0316 111.704 10.2856 112 10.2856C112.296 10.2856 112.55 10.0316 112.55 9.73532C112.55 9.43903 112.296 9.18506 112 9.18506C111.661 9.18506 111.45 9.43903 111.45 9.73532Z" fill="#091929"/>
<path d="M111.45 6.64548C111.45 6.94178 111.704 7.19574 112 7.19574C112.296 7.19574 112.55 6.94178 112.55 6.64548C112.55 6.34918 112.296 6.09521 112 6.09521C111.661 6.09521 111.45 6.34918 111.45 6.64548Z" fill="#091929"/>
<path d="M111.45 3.55564C111.45 3.85193 111.704 4.1059 112 4.1059C112.296 4.1059 112.55 3.85193 112.55 3.55564C112.55 3.25934 112.296 3.00537 112 3.00537C111.661 3.00537 111.45 3.25934 111.45 3.55564Z" fill="#091929"/>
<path d="M114.54 22.1377C114.54 22.434 114.794 22.6879 115.09 22.6879C115.386 22.6879 115.64 22.434 115.64 22.1377C115.64 21.8414 115.386 21.5874 115.09 21.5874C114.794 21.5874 114.54 21.799 114.54 22.1377Z" fill="#091929"/>
<path d="M114.54 19.0053C114.54 19.3016 114.794 19.5556 115.09 19.5556C115.386 19.5556 115.64 19.3016 115.64 19.0053C115.64 18.709 115.386 18.4551 115.09 18.4551C114.794 18.4974 114.54 18.709 114.54 19.0053Z" fill="#091929"/>
<path d="M114.54 15.9155C114.54 16.2118 114.794 16.4658 115.09 16.4658C115.386 16.4658 115.64 16.2118 115.64 15.9155C115.64 15.6192 115.386 15.3652 115.09 15.3652C114.794 15.4076 114.54 15.6192 114.54 15.9155Z" fill="#091929"/>
<path d="M115.09 13.3759C115.394 13.3759 115.64 13.1296 115.64 12.8257C115.64 12.5218 115.394 12.2754 115.09 12.2754C114.786 12.2754 114.54 12.5218 114.54 12.8257C114.54 13.1296 114.786 13.3759 115.09 13.3759Z" fill="#091929"/>
<path d="M114.54 9.73532C114.54 10.0316 114.794 10.2856 115.09 10.2856C115.386 10.2856 115.64 10.0316 115.64 9.73532C115.64 9.43903 115.386 9.18506 115.09 9.18506C114.794 9.18506 114.54 9.43903 114.54 9.73532Z" fill="#091929"/>
<path d="M114.54 6.64548C114.54 6.94178 114.794 7.19574 115.09 7.19574C115.386 7.19574 115.64 6.94178 115.64 6.64548C115.64 6.34918 115.386 6.09521 115.09 6.09521C114.794 6.09521 114.54 6.34918 114.54 6.64548Z" fill="#091929"/>
<path d="M114.54 3.55564C114.54 3.85193 114.794 4.1059 115.09 4.1059C115.386 4.1059 115.64 3.85193 115.64 3.55564C115.64 3.25934 115.386 3.00537 115.09 3.00537C114.794 3.00537 114.54 3.25934 114.54 3.55564Z" fill="#091929"/>
<path d="M70.3493 6.01058C72.0091 6.01058 73.3546 4.66507 73.3546 3.00529C73.3546 1.34551 72.0091 0 70.3493 0C68.6895 0 67.344 1.34551 67.344 3.00529C67.344 4.66507 68.6895 6.01058 70.3493 6.01058Z" fill="#091929"/>
<path d="M19.7672 37.5025C19.6402 37.6718 19.7248 37.9681 19.4285 38.0528V37.8835C19.1746 37.9681 18.9629 37.8835 18.7936 37.7988C18.4127 37.7988 18.0317 37.8411 17.6931 37.8411C17.3121 37.8411 16.9312 37.7988 16.5079 37.7565V37.5449C16.1693 37.9258 15.7883 37.9258 15.4074 37.8835L15.2381 38.2644C15.2804 38.3068 15.3227 38.3068 15.3651 38.3914C15.4497 38.3068 15.5767 38.2644 15.7037 38.1798C15.9153 38.4337 16.1693 38.3914 16.4656 38.3491L16.5079 38.0951C16.8042 38.3068 17.1428 38.3491 17.4815 38.3068C18.2434 38.1798 19.0053 38.3491 19.7672 38.4761C19.8942 38.5184 20.0211 38.6031 20.2328 38.73L20.1058 38.1798L19.7248 38.2221C19.8518 37.9681 19.9365 37.7988 20.0211 37.5872L20.783 37.7988L20.8254 38.0105C21.418 38.0951 21.8412 38.5607 22.3492 38.857L22.4338 39.1533L22.2222 39.365L22.3915 39.6189C22.4762 39.4496 22.5185 39.365 22.5608 39.238C22.6031 39.238 22.6878 39.238 22.7301 39.238C22.9841 39.4496 22.7725 39.7459 22.8148 40.0422C22.9418 39.9576 23.0264 39.8729 23.1534 39.7882C23.492 39.9999 23.492 40.4232 23.7037 40.7195C23.619 40.8041 23.5344 40.8888 23.4074 41.1004C23.619 41.0158 23.746 40.9734 23.7883 40.9734L24.2116 41.3967C24.127 41.439 24.0423 41.439 23.9153 41.4814L24.2963 41.693C24.2539 41.6507 24.2963 41.6507 24.2963 41.693C24.4656 42.2009 24.6349 42.6665 24.7196 43.1745C24.8889 43.8517 24.9312 44.5713 24.8465 45.2486C24.8042 45.8411 24.5926 46.4337 24.5926 47.0263C24.5926 47.1533 24.5079 47.2803 24.4656 47.4073C24.4656 47.4073 24.3809 47.4073 24.2963 47.4073C24.3809 47.6189 24.3386 47.8729 24.2116 48.0422C23.7883 48.7195 23.7883 48.6771 23.492 48.8041L23.1957 49.5237L22.8148 49.3967L22.7725 49.6507C22.3069 49.947 21.9259 50.2433 21.5026 50.5396L21.2487 50.3279C20.9524 50.6665 20.5291 50.6665 20.0635 50.6242L20.1905 51.0475L19.7672 51.1322L19.8942 50.8782C19.7672 50.8359 19.6402 50.7512 19.5555 50.7512C19.1746 50.7935 18.7936 50.8782 18.4127 50.9628C18.328 50.9628 18.2434 51.0898 18.201 51.0898C17.8624 51.0898 17.6084 51.0052 17.3545 51.0475C16.7196 51.2591 16.1693 51.0475 15.5767 50.9628C15.4074 50.9205 15.2381 50.8782 15.1111 50.8359C15.1534 50.7935 15.1534 50.7089 15.1957 50.6242C15.1534 50.6242 15.1111 50.5819 15.1111 50.5819C14.9841 50.7089 14.8571 50.8359 14.6032 50.7089L14.3069 50.4549L13.5449 50.5396L13.3333 50.1586C12.8677 50.3279 12.4021 50.074 11.9788 49.9046L11.9365 49.693H11.3439L10.9629 49.312C10.709 49.3967 10.4973 49.439 10.3703 49.1427L9.56611 49.0158L9.98939 50.4549L10.1587 50.4972L10.4127 50.9628L10.328 51.0475C10.328 51.0898 10.3703 51.1322 10.3703 51.1322C10.582 51.0898 10.6666 51.2591 10.7513 51.3861C10.8783 51.5131 10.9629 51.7247 11.0476 51.8517C11.1323 51.9787 11.3016 52.1057 11.3862 52.275C11.4709 52.4866 11.6825 52.4443 11.8095 52.5713C11.9365 52.7406 11.9788 52.9523 12.2328 53.0369C12.4444 53.1216 12.5714 53.3332 12.7407 53.4602C13.2063 53.9681 13.8412 54.2644 14.4338 54.6031C14.8148 54.8147 15.1534 55.0687 15.5344 55.238C16.127 55.5343 16.7619 55.7882 17.3545 55.9999C17.6508 56.0845 17.9047 56.3808 18.2434 56.2962C18.3703 56.2538 18.455 56.5078 18.582 56.2962C18.6243 56.2538 18.7513 56.3385 18.8783 56.3808C19.0053 56.3808 19.1322 56.3808 19.3016 56.3808C19.5555 56.3808 19.8095 56.4232 20.1058 56.4655L19.7248 56.8464C19.4285 56.7618 19.4285 56.7618 18.8783 57.0157L19.1323 57.2697C19.5132 57.1004 19.9365 57.2274 20.3598 57.1851V57.439L19.8518 57.6083C19.8942 57.6507 19.9788 57.7353 20.0211 57.7353C20.1905 57.7353 20.3174 57.693 20.6137 57.6507C20.5291 57.82 20.4444 57.9046 20.4021 58.0316L20.5291 58.5819L19.9788 58.3279C19.9365 58.4126 19.8518 58.5396 19.7672 58.7089L19.1746 58.6242L19.3016 59.0052H18.836L18.709 58.6242C18.582 58.7935 18.5397 58.9205 18.4973 59.0052L18.2434 58.9628C18.2434 58.9628 18.2857 58.8782 18.328 58.7935L17.5661 58.6665C17.5661 58.7512 17.5661 58.7935 17.5661 58.7935L17.0158 58.8782L16.9735 58.5819C16.8465 58.6242 16.6772 58.6665 16.5502 58.7089L16.2963 58.4549C15.873 58.3703 15.492 58.3279 15.1534 58.2009C14.8148 58.1163 14.6455 57.7353 14.2222 57.7353V57.3544L13.9259 57.1004L14.0952 57.5237C13.6296 57.3544 13.0793 57.439 12.91 56.8464H12.5714V56.6348C12.2328 56.5925 12.0211 56.4232 11.9365 56.0422L11.4709 55.9999L11.3016 55.6613C11.2592 55.6613 11.1746 55.6612 11.1322 55.6189C11.0899 55.5766 11.0899 55.4496 11.0476 55.365C10.9629 55.2803 10.8783 55.1956 10.7936 55.111C10.709 55.0687 10.6666 54.984 10.6243 54.8993C10.582 54.8147 10.582 54.73 10.5397 54.6031C9.98939 54.6454 10.1164 54.0105 9.65077 53.7988L10.2857 53.6718C10.2857 53.5025 9.98939 53.4179 9.60844 53.5025L9.73542 53.3332C9.73542 53.0369 9.43913 53.1216 9.26982 52.9946V52.6136H9.05818C9.1005 52.529 9.14283 52.4867 9.18516 52.402C8.97352 51.9787 8.71955 51.5554 8.50791 51.1322C8.42326 50.9628 8.42326 50.7935 8.50791 50.6242C8.38093 50.4972 8.16929 50.3702 8.16929 50.2433C7.99997 49.4814 7.91532 48.6771 7.74601 47.9152C7.70368 47.7882 7.66135 47.6613 7.61902 47.5766C7.57669 47.4496 7.53437 47.2803 7.49204 47.111C7.44971 47.1533 7.36506 47.1533 7.2804 47.238C7.06876 46.984 6.68781 46.8147 6.64548 46.3914L6.13754 46.2221C6.05289 45.7565 5.41796 45.6295 5.33331 45.1639L4.95236 44.9523C4.99468 44.8676 5.03701 44.7829 5.07934 44.6983C4.78304 44.6136 4.69839 44.402 4.5714 44.148C4.44442 43.8941 4.23278 43.7247 4.23278 43.4284C4.19045 43.4284 4.14812 43.4284 4.06347 43.4284L4.02114 43.2168L3.8095 43.1322C3.64019 42.8782 3.47087 42.6242 3.34389 42.3702C3.04759 41.82 2.62431 41.3544 2.49733 40.7195C2.455 40.5078 2.28569 40.2962 2.20103 40.1269C1.48146 38.984 1.18516 37.7142 0.888864 36.4443C0.719552 35.7247 0.634896 34.9628 0.677224 34.2433C0.677224 33.9893 0.719552 33.7353 0.634896 33.5237C0.55024 33.2697 0.719552 33.1004 0.677224 32.8464C0.592568 32.2115 0.804208 31.6189 0.846536 30.984C0.931192 30.3914 1.05818 29.7988 1.22749 29.2062C1.3968 28.5713 1.52378 27.9364 1.82008 27.3861C2.07405 26.8359 2.24336 26.2433 2.62431 25.7777C2.66664 25.7353 2.62431 25.6083 2.66664 25.5237C2.96294 25.2274 3.04759 24.8041 3.30156 24.5078C3.47087 24.2962 3.72484 24.0845 3.93648 23.8306L4.44442 23.8729L4.78304 24.4655C4.74072 24.5501 4.69839 24.5925 4.65606 24.6348L4.82537 24.8041C4.78304 25.0158 4.82537 25.1851 4.74072 25.3967C4.69839 25.566 4.61373 25.7353 4.48675 25.9046C4.02114 26.3702 3.93648 27.0052 3.64019 27.5978C3.42855 28.021 3.30156 28.4443 3.13225 28.8676C3.04759 29.0792 3.00527 29.3332 2.96294 29.5872C2.83595 30.1374 2.70897 30.6877 2.62431 31.238C2.58199 31.5343 2.455 31.8729 2.455 32.1692C2.41267 32.8464 2.37035 33.5237 2.37035 34.2009C2.37035 35.6401 2.79363 36.9946 3.25923 38.3491C2.96294 38.4337 3.17458 38.6877 3.34389 38.9417C3.55553 39.2803 3.64019 39.7036 3.93648 40.0422C4.31744 40.5078 4.52908 41.1004 4.99468 41.566C5.164 41.7353 5.24865 41.947 5.37564 42.1163C5.50262 42.2856 5.75659 42.4126 5.79892 42.7089C5.79892 42.7935 6.01056 42.9205 6.13754 42.9628C6.51849 43.1745 6.73013 43.3861 6.89945 43.8094L7.19574 43.8517C7.19574 43.9364 7.23807 44.021 7.23807 44.1057C7.23807 44.1904 7.23807 44.2327 7.23807 44.275L7.74601 44.2327C7.83066 43.9787 7.91532 43.6824 8.0423 43.3438C8.16929 43.0475 8.3386 42.7512 8.42326 42.4549C8.55024 42.1163 8.67722 41.82 8.88886 41.566V41.3544C9.05818 41.1851 9.26982 40.9734 9.43913 40.8041C9.56611 40.6771 9.77775 40.5925 9.73542 40.3385C9.73542 40.2538 9.86241 40.1269 9.94707 40.0845C10.3703 39.9576 10.5397 39.6189 10.836 39.365C11.0899 39.1533 11.3862 38.9417 11.7672 38.984C11.9365 38.7724 12.1905 38.6031 12.4867 38.4761C12.6984 38.4337 12.8677 38.2221 13.037 38.2221C13.291 38.2221 13.3756 38.0105 13.5449 37.9681C13.8836 37.8411 14.2645 37.5449 14.6878 37.8411L14.7301 37.5025L15.1957 37.5872C15.2804 37.5449 15.4497 37.4602 15.746 37.3332C16.0846 37.2909 16.5926 37.1639 17.0582 37.2486C17.5238 37.3332 17.9471 37.2486 18.3703 37.2909C18.8783 37.3332 19.3016 37.4179 19.7672 37.5025ZM22.4762 42.9628C22.5185 42.7089 22.5608 42.4972 22.6032 42.3279L22.1799 42.3702C22.2222 42.2009 22.2645 42.1163 22.3069 41.9893C22.2222 42.0316 22.0952 42.074 22.0106 42.1163L21.8836 41.9893C21.9682 41.9046 22.0106 41.7777 22.0952 41.6507L21.6719 41.2697C21.7989 40.8464 21.7143 40.5501 21.5026 40.5925C21.5026 40.6771 21.5026 40.7195 21.4603 40.8041C21.418 40.8464 21.3756 40.8888 21.2487 40.9311C21.2063 40.7195 21.2063 40.5501 21.164 40.3808C21.1217 40.2962 21.037 40.2115 20.91 40.1269L20.8677 40.4232C20.4444 40.4655 20.4444 40.4655 20.3174 40.1269C20.1905 40.0845 20.0635 39.9999 19.9365 39.9999C19.8095 40.0422 19.7248 40.1692 19.6402 39.9999C19.6825 39.8729 19.6825 39.7882 19.7248 39.6189C19.3439 39.6613 19.0476 39.7036 18.7936 39.7459V39.4919L18.328 39.6189L17.8201 39.4496L17.7778 39.6613L17.0582 39.2803V39.4496C16.7619 39.5766 16.4656 39.7036 16.127 39.8729C16.6349 40.1269 17.0582 39.7882 17.4815 39.8729C17.9047 39.9576 18.328 39.9576 18.836 39.9999L18.6666 40.2115C18.328 40.2115 18.074 40.2115 17.8201 40.1692C17.5661 40.0845 17.3121 40.2538 17.1005 40.1692C16.8465 40.0845 16.6349 40.2115 16.3809 40.2538C16 40.2962 15.619 40.5501 15.2381 40.2962C14.9418 40.5501 14.6455 40.7195 14.2222 40.7195L13.8836 41.0581L13.6296 40.9311C13.5873 41.1427 13.5449 41.312 13.291 41.312C12.9524 41.312 12.6137 41.4814 12.4021 41.7777C12.2328 41.9893 11.9788 42.074 11.7672 42.2009C11.5979 42.3279 11.5132 42.4972 11.3016 42.4972L11.2592 42.5819L11.3862 42.7935C11.3016 42.7935 11.2169 42.8359 11.1322 42.8782C11.0476 42.9205 11.0053 43.0052 10.9629 43.0475C10.9206 43.1322 10.8783 43.2168 10.836 43.3015C10.7936 43.3438 10.6666 43.3861 10.6243 43.4284C10.4973 43.7671 10.2857 44.0634 10.074 44.3597C9.82008 44.7406 9.6931 45.1639 9.6931 45.5872C10.1164 45.8835 10.5397 45.9681 10.9206 46.2221C11.3016 46.4761 11.8518 46.5607 12.3174 46.73C13.164 47.111 14.1375 47.111 14.9841 47.5766C15.0264 47.6189 15.1534 47.5766 15.2381 47.5766C15.3227 47.5766 15.3651 47.5343 15.4497 47.5766C16.3386 47.7459 17.2698 47.8306 18.1587 47.7882C18.6666 47.7882 19.1322 47.6613 19.5979 47.5343C19.8518 47.4496 20.1058 47.3226 20.3598 47.2803C20.8254 47.238 21.1217 46.984 21.4603 46.73C21.7989 46.4761 22.1375 46.1374 22.3915 45.7988C22.6878 45.4179 22.8571 44.9946 22.8994 44.529C22.8994 44.402 22.8148 44.2327 22.8148 44.1057C22.8148 43.9787 22.8994 43.8094 22.9418 43.6824H22.7301V43.3015L22.4762 42.9628Z" fill="#091929"/>
<path d="M88.0425 92.0213C88.5081 91.6827 88.8044 91.2171 89.143 90.7515C89.3123 90.9208 89.016 90.9631 89.1007 91.0901C88.6351 91.598 88.2541 92.1483 87.6615 92.5293C87.4922 92.6562 87.3229 92.7832 87.1536 92.9102C87.0266 93.0372 86.9419 92.9949 86.815 92.8679C86.688 92.9102 86.8149 93.0372 86.7303 93.1219C86.6033 93.2065 86.434 93.2488 86.307 93.3758C86.2224 93.4605 86.0107 93.3335 85.9684 93.5028C85.7991 93.5028 85.7144 93.6721 85.5874 93.7568C85.4605 93.8414 85.2911 93.7991 85.1642 93.9261C85.0795 94.0107 85.0372 93.9261 84.9525 93.8414C84.6985 94.0954 84.4023 94.2647 84.0636 94.0531C84.0213 94.1377 83.979 94.2647 83.9366 94.307C83.725 94.3917 83.471 94.2224 83.344 94.434C83.2594 94.3494 83.1747 94.2647 83.1747 94.1377C83.0901 94.2224 83.1324 94.3494 83.0054 94.3494C82.9631 94.3494 82.8784 94.3494 82.8361 94.3917C82.5821 94.561 82.5398 94.561 82.2858 94.3494C82.2012 94.3917 82.2435 94.5187 82.2435 94.6033C81.8202 94.561 81.5663 94.8573 81.3546 95.1959C81.27 95.1536 81.3123 95.0689 81.27 95.0266C81.016 95.0266 80.889 94.7726 80.7197 94.6457C80.6351 94.7303 80.7197 94.815 80.6774 94.8996C80.6351 94.942 80.5504 94.942 80.5081 94.9843C80.3388 95.0689 80.2118 95.0266 80.1694 94.8996C80.1271 94.7726 80.0001 94.6457 79.9155 94.561C79.7462 94.3917 79.6192 94.1801 79.6615 93.8838C79.4922 93.8414 79.3652 93.7144 79.2806 93.5875V93.2488L79.5769 92.9949C79.3229 92.3599 79.0689 91.8097 78.7726 91.2171C78.561 90.7938 78.3917 90.4129 78.18 89.9896C77.8837 89.4393 77.5874 88.889 77.2488 88.3811C77.1218 88.2118 77.0795 87.9578 77.1218 87.7462C77.3758 87.4499 77.7144 87.2806 78.1377 87.5346C78.2647 87.6192 78.307 87.3652 78.3917 87.4922C78.4763 87.5769 78.561 87.5346 78.6456 87.5346C78.7303 87.5346 78.8573 87.5769 78.9419 87.4499C78.9843 87.4076 79.1112 87.4076 79.1536 87.4076C79.4922 87.4499 79.8308 87.3652 80.1694 87.2806C80.4657 87.1959 80.8044 87.2383 81.0583 87.0266C81.143 86.9843 81.1853 87.0689 81.27 87.1113C81.3546 87.0266 81.4393 86.942 81.5663 86.8996C82.2435 86.6457 82.8784 86.434 83.5134 86.1377C83.852 85.9684 84.1483 85.7991 84.4869 85.6298C84.8255 85.4605 85.1218 85.2488 85.4181 85.0795C85.9261 84.8256 86.307 84.4023 86.7726 84.106C87.1112 83.8943 87.3652 83.5134 87.7462 83.3017C87.9155 83.2171 88.0848 83.0901 88.3388 83.1324C88.3811 83.4711 88.6774 83.4287 88.889 83.4287C88.9314 83.4711 88.9737 83.5557 89.016 83.5557C89.397 83.725 89.6086 84.0637 89.8202 84.3599C89.8626 84.4023 89.9049 84.4023 89.8626 84.4869C89.8202 84.7832 89.9896 85.0795 89.9472 85.4181C89.9049 86.0954 89.9472 86.7303 89.9472 87.4076C89.9472 87.9578 89.8202 88.5504 89.6509 89.0584C89.4393 89.7779 89.0583 90.4129 88.5927 91.0054C88.3811 91.2594 88.1694 91.5134 87.9578 91.725C88.0001 91.8943 88.0001 91.9367 88.0425 92.0213ZM83.852 88.0848C83.6404 88.2118 83.3864 88.2965 83.1747 88.3811C83.0478 88.4234 82.9208 88.3811 82.7938 88.4234C82.6245 88.5081 82.4128 88.4658 82.3282 88.5504C82.2012 88.7197 82.0319 88.6774 81.8626 88.7197C81.7779 88.7197 81.7356 88.7197 81.6509 88.7621C81.397 88.889 81.3123 89.143 81.27 89.397C81.2277 89.524 81.3123 89.651 81.2276 89.7779C81.143 89.9049 81.3546 90.0319 81.27 90.1589C81.0583 90.5398 81.3123 90.9631 81.0583 91.3441C81.3123 91.5134 80.9737 91.8097 81.143 92.0213C81.1853 92.106 80.9737 92.1906 81.0583 92.3176C81.1853 92.5293 81.143 92.7832 81.1853 93.0372C81.397 92.9949 81.6509 92.9102 81.8626 92.8679C81.9472 92.8256 82.0319 92.7409 82.1589 92.7409C82.2435 92.7409 82.3282 92.7409 82.4128 92.6562C82.5398 92.8256 82.5821 92.6562 82.6668 92.6139C82.7515 92.5716 82.8361 92.5293 82.9631 92.4869C83.3864 92.2753 83.8097 92.106 84.1906 91.8943C84.7409 91.5557 85.2911 91.2594 85.7144 90.7938C85.9261 90.5398 86.18 90.3282 86.434 90.0742C86.7303 89.7779 86.9419 89.4393 87.1536 89.0584C87.6615 88.2541 87.7462 87.3229 87.9155 86.434C87.9155 86.3494 87.9578 86.2647 87.8308 86.2224C87.7885 86.2224 87.7885 86.2224 87.7462 86.2224C87.2382 86.561 86.7726 86.8996 86.2224 87.1959C85.7991 87.4076 85.3335 87.5345 84.9525 87.8308C84.7832 87.7462 84.7832 87.7039 84.6986 87.7885C84.6986 87.7885 84.6986 87.8308 84.6986 87.8732C84.4869 87.8732 84.3176 88.1271 84.106 87.9578C84.0213 87.9155 83.9366 87.9155 83.852 87.9578C83.8097 87.9578 83.8943 88.0002 83.852 88.0848Z" fill="#091929"/>
<path d="M27.8095 82.1165H24.6772C23.492 82.1165 22.5608 81.143 22.5608 80.0001V76.8679C22.5608 75.6827 23.5343 74.7515 24.6772 74.7515H27.8095C28.9947 74.7515 29.9259 75.725 29.9259 76.8679V80.0001C29.9259 81.143 28.9947 82.1165 27.8095 82.1165Z" fill="#091929"/>
<path d="M116.064 67.3018L112.593 69.3336C110.857 70.3495 110.857 72.8891 112.593 73.8627L116.064 75.8944C117.799 76.9103 120 75.6405 120 73.6087V69.5875C120 67.5558 117.799 66.3283 116.064 67.3018Z" fill="#091929"/>
</g>
<defs>
<clipPath id="clip0">
<rect width="120" height="95.2381" fill="white"/>
</clipPath>
</defs>
</svg>
