<svg width="120" height="106" viewBox="0 0 120 106" fill="none" xmlns="http://www.w3.org/2000/svg">
<g clip-path="url(#clip0)">
<path d="M91.0731 33.0503C90.9148 32.886 90.7406 32.7216 90.5823 32.5573C90.5665 32.5409 90.5665 32.5409 90.5665 32.5244C90.424 32.3765 90.424 32.3765 90.5031 32.1629C90.6615 31.8013 90.8673 31.4562 91.1048 31.1275C91.6273 30.4536 92.2606 29.9442 92.9731 29.5333C93.2898 29.3361 93.6381 29.2539 93.9864 29.1717C94.1606 29.1224 94.3664 29.1717 94.5564 29.1882C94.9839 29.221 95.4273 29.2539 95.8548 29.2868C96.0289 29.3032 96.1556 29.4018 96.2823 29.5004C96.5989 29.7305 96.9314 29.9277 97.2481 30.1743C97.5489 30.4043 97.7389 30.733 97.9131 31.0782C97.9764 31.1932 97.9764 31.3411 98.0239 31.4562C98.1506 31.8013 98.3406 32.1135 98.5464 32.4094C98.7839 32.7216 99.0056 33.0503 99.2431 33.379C99.7181 34.02 100.32 34.4637 101.08 34.6445C101.396 34.7267 101.713 34.6938 102.014 34.5952C102.441 34.4637 102.869 34.2994 103.312 34.1679C103.946 33.9871 104.595 33.8885 105.26 34.0528C105.782 34.1679 106.226 34.4473 106.606 34.8581C106.954 35.2361 107.223 35.6799 107.508 36.1072C107.904 36.6824 108.379 37.1919 109.012 37.5041C109.456 37.7178 109.931 37.8328 110.406 37.8821C110.88 37.9314 111.292 38.1286 111.672 38.408C112.305 38.9011 112.733 39.5585 112.986 40.3309C113.224 41.054 113.24 41.81 113.065 42.5496C112.86 43.4371 112.464 44.1931 111.894 44.8833C111.545 45.2942 111.134 45.6557 110.69 45.9516C110.152 46.3296 109.582 46.6254 108.981 46.839C108.458 47.0363 107.904 47.2006 107.35 47.2663C106.906 47.3321 106.463 47.3649 106.004 47.4143C105.956 47.4143 105.893 47.4307 105.861 47.4636C105.513 47.9237 105.086 47.9566 104.626 47.7101C104.436 47.6115 104.246 47.48 104.056 47.3485C103.898 47.2335 103.708 47.2499 103.534 47.2006C103.091 47.0856 102.647 46.9705 102.22 46.839C101.65 46.6583 101.111 46.4282 100.605 46.1159C100.082 45.8037 99.5756 45.475 99.0689 45.1298C98.7997 44.949 98.5464 44.719 98.2931 44.5053C97.8339 44.0944 97.3906 43.6836 97.0106 43.207C96.6781 42.7961 96.3456 42.3852 96.0606 41.9415C95.7756 41.5142 95.5539 41.054 95.3164 40.6103C94.9523 39.9365 94.7306 39.2133 94.5564 38.4573C94.4614 38.0465 94.4456 37.6192 94.4456 37.1919C94.4456 36.9125 94.4139 36.6167 94.4298 36.3373C94.4298 36.1401 94.4931 35.9428 94.5089 35.7456C94.5248 35.5155 94.5248 35.269 94.4931 35.0225C94.4456 34.4966 94.3823 33.9542 94.3348 33.4283C94.3031 33.0668 94.2714 32.7216 94.1289 32.3765C93.9073 31.867 93.5431 31.5548 93.0364 31.4397C92.8148 31.3904 92.5931 31.4726 92.4031 31.5876C92.0231 31.8013 91.7381 32.13 91.4848 32.4751C91.3265 32.6723 91.1998 32.8531 91.0731 33.0503Z" fill="#091929"/>
<path d="M119.873 101.139C119.525 98.8548 118.701 96.7183 117.72 94.6475C116.105 91.2127 114.189 87.9586 111.529 85.2798C110.785 84.5238 109.882 83.9321 108.98 83.3733C108.252 82.9132 107.523 83.0611 106.763 83.5705C104.721 84.9511 102.552 86.0851 100.097 86.4137C99.0366 86.5617 97.96 86.6274 96.9308 87.0218C96.4241 87.219 95.6325 87.2519 95.2525 86.9561C94.2867 86.1837 93.495 85.1976 92.5292 84.1786C93.5425 84.0143 94.3342 83.8171 95.1258 83.7678C95.9491 83.702 96.6933 83.4719 97.3425 82.9789C98.2133 82.3215 99.0366 81.5984 99.86 80.8753C100.002 80.7438 100.066 80.5137 100.161 80.3165C100.303 80.0371 100.398 79.7084 100.572 79.4619C102.71 76.5201 103.502 73.2167 102.868 69.6339C102.583 68.0069 101.966 66.4456 101.475 64.8679C101.38 64.572 101.174 64.2927 100.984 64.0297C99.7808 62.452 98.4508 60.9893 96.725 60.0525C95.4425 59.3622 94.1125 58.7377 92.735 58.2776C91.3733 57.8174 89.9325 57.6037 88.65 57.3079C89.695 57.3408 90.8667 57.2257 91.9908 56.7656C95.1258 55.4837 96.2816 52.3446 94.6508 49.2713C94.2075 48.4167 93.5583 47.6607 92.9567 46.9048C91.8008 45.4749 91.0092 43.9136 91.0567 41.9908C91.0567 41.8593 90.9775 41.7278 90.9142 41.5635C90.8034 41.6621 90.7084 41.695 90.6767 41.7607C89.79 43.4863 88.365 44.5546 86.6709 45.327C85.8476 45.705 85.0401 46.1159 84.2801 46.6089C83.2351 47.2828 82.5226 48.236 82.2059 49.5014C81.6043 51.868 82.3167 53.8073 83.9951 55.4344C84.8976 56.3054 86.0059 56.8149 87.2884 57.1764C87.1142 57.1929 87.0667 57.2093 87.0192 57.2093C82.7126 56.7656 78.4376 56.9464 74.1785 57.7188C69.8085 58.5241 65.6285 59.8882 61.8286 62.3205C60.9577 62.8793 60.2769 63.6188 59.6594 64.4406C59.3744 64.8186 59.0419 65.1801 58.7411 65.5417C58.3136 66.0512 57.7911 66.4949 57.4744 67.0701C56.4294 68.9765 56.4136 70.9651 57.2052 72.9866C57.6802 74.2028 58.1077 75.4354 58.5669 76.6844C58.4086 76.8323 58.2502 76.9802 58.0919 77.1117C56.9044 78.1964 55.7803 79.314 54.9094 80.7273C54.2919 81.7299 53.5161 82.6338 53.0094 83.7185C52.8669 84.0307 52.5661 84.2608 52.3286 84.5073C51.2361 85.6084 50.3811 86.8739 49.8428 88.3695C49.5736 89.1583 49.2095 89.9143 48.9086 90.7032C48.7661 91.0812 48.7503 91.5085 48.2595 91.6235C48.212 91.64 48.1803 91.9029 48.2278 92.0344C48.4178 92.5439 48.3386 92.9219 47.9112 93.3656C47.9112 93.7765 47.9112 94.2038 47.9112 94.6311C47.6103 94.6147 47.3887 94.6147 47.1828 94.5982C46.7078 95.913 45.4728 97.1127 44.602 96.9155C44.6337 96.8169 44.7445 96.8169 44.8553 96.7676C44.9345 96.7347 44.9978 96.6526 45.172 96.4882C44.9345 96.4882 44.8553 96.4882 44.7603 96.4882C44.6653 96.4882 44.5703 96.4882 44.4753 96.4882C44.5228 95.4364 44.6178 95.3542 45.4728 95.4693C45.6153 95.4857 45.7895 95.4364 45.9003 95.3542C46.7553 94.6968 46.8345 94.2695 46.3278 93.2177C46.027 93.1848 45.7103 93.152 45.362 93.1027C45.2512 93.3163 45.1087 93.5793 44.982 93.8258C44.9345 93.7272 44.887 93.6286 44.8395 93.53C44.602 93.3656 44.3645 93.0698 44.127 93.0862C43.3195 93.1355 42.5912 93.1027 42.1637 92.3138C41.657 92.5439 41.3245 92.7904 41.2929 93.3656C41.9579 93.1027 41.9579 93.1027 42.3854 93.3656C42.0054 93.5628 41.6729 93.7436 41.3245 93.9244C41.4829 94.0723 41.6095 94.1874 41.7679 94.3353C41.4037 94.5818 40.9604 94.7297 40.7704 95.042C40.4695 95.5514 41.0554 95.7322 41.3404 96.0773C40.9445 96.2417 40.5804 96.4225 41.0079 97.0306C40.5012 97.0306 40.1212 97.0306 39.5829 97.0306C39.947 96.7347 40.1529 96.554 40.4062 96.3403C40.0579 96.0445 39.7729 95.8144 39.4562 95.535C39.8204 95.3049 40.0737 95.1406 40.327 94.9762C40.3112 94.9105 40.2795 94.8612 40.2637 94.7954C39.852 94.779 39.4404 94.7297 39.0287 94.7461C38.8704 94.7461 38.617 94.8612 38.6012 94.9598C38.5537 95.157 38.6329 95.3871 38.6962 95.6007C38.7437 95.7487 38.8704 95.8801 38.9495 95.9952C38.5379 96.2253 38.2212 96.4389 37.8729 96.6033C37.5246 96.7512 37.1604 96.8498 36.7962 96.9648C36.7646 96.9155 36.7487 96.8498 36.7171 96.8005C36.9071 96.6197 37.1287 96.4718 37.2871 96.2581C37.3821 96.1267 37.3979 95.8966 37.3504 95.7486C37.3346 95.6665 37.1129 95.6172 36.9704 95.6007C36.5904 95.5843 36.2104 95.6007 35.7987 95.6007C35.7512 94.9105 35.3871 94.5161 34.6746 94.4503C34.4529 94.4339 34.2312 94.2367 33.9937 94.1216C33.7404 94.286 33.4712 94.4503 33.2179 94.6147C33.5346 94.9434 33.7879 95.2392 34.0729 95.535C33.6296 95.8637 32.9329 95.6993 33.0279 96.4389C33.2813 96.6361 33.5187 96.8169 33.7404 96.9977C33.0279 96.9977 32.7429 96.7676 32.3946 96.0609C31.9038 96.2746 31.5554 96.1595 31.3338 95.6007C31.2546 95.42 30.9696 95.3214 30.7796 95.1899C30.7954 94.9105 30.8113 94.5818 30.8429 94.2202C30.3996 94.2202 30.0671 94.2202 29.7346 94.2202C28.9429 94.2367 28.8479 94.3353 28.9113 95.1899C28.9113 95.2556 28.9746 95.3214 29.1013 95.5514C29.1804 95.3707 29.2121 95.272 29.2754 95.1734C29.3229 95.0913 29.4021 95.0091 29.4179 94.9927C29.7346 95.157 30.0038 95.3049 30.2888 95.4528C30.0671 96.1431 29.6554 96.6197 29.3071 96.5704C29.1488 96.4225 28.9746 96.2581 28.8321 96.1267C28.5471 96.2253 28.3254 96.3732 28.1038 96.3567C27.9138 96.3567 27.6605 96.2088 27.5813 96.0445C27.2646 95.4528 27.1063 95.4364 26.663 95.9623C26.5838 96.0609 26.473 96.1431 26.2355 96.3732C26.1721 95.8637 26.1405 95.5021 26.0771 95.042C25.8555 95.1899 25.6021 95.272 25.5071 95.4528C25.2538 95.9294 24.7788 96.1759 24.5571 96.7347C24.383 97.1785 23.7338 97.4414 23.2588 97.7208C23.1638 97.7865 22.863 97.6222 22.7363 97.4743C22.6097 97.3264 22.578 97.0799 22.4513 96.6854C22.0872 97.1949 21.7863 97.6058 21.4697 98.0659C21.343 97.8359 21.2638 97.6879 21.1847 97.54C20.963 97.6058 20.773 97.6715 20.4247 97.7866C20.5038 97.2771 20.6147 96.8662 20.5988 96.4882C20.5672 96.0609 20.4405 95.6172 19.6805 95.6665C19.823 96.1759 19.9338 96.6033 20.0288 96.9484C19.823 97.3921 19.6172 97.8194 19.3638 98.3618C19.1422 98.0659 18.9205 97.8687 18.873 97.6551C18.7938 97.2113 18.5247 97.1785 18.2397 97.2771C17.9547 97.3757 17.7172 97.5729 17.4322 97.7373C17.5589 98.0659 17.6064 98.3453 17.7647 98.4932C17.923 98.6412 18.1922 98.674 18.5563 98.8055C17.0839 99.0849 16.9255 99.1835 16.3555 100.038C16.9414 100.646 16.308 101.287 16.3397 101.928C16.3397 102.01 16.0547 102.191 15.9122 102.175C15.8014 102.158 15.643 101.928 15.6272 101.78C15.6114 101.583 15.7222 101.369 15.7855 101.172C15.8805 100.843 16.0389 100.531 16.0705 100.202C16.1339 99.4629 15.9597 99.3643 15.263 99.7094C14.9939 99.5122 14.9147 98.8055 14.2814 99.3972C14.5822 99.7587 14.8672 100.104 15.1364 100.449C14.978 100.646 14.8355 100.86 14.6614 101.09C14.2497 100.942 13.8064 100.728 13.6797 101.484C13.6639 101.583 13.4106 101.747 13.3156 101.714C12.8722 101.583 12.5081 101.78 12.1122 101.895C11.9539 101.945 11.6847 101.977 11.5739 101.879C11.1464 101.484 10.7664 101.501 10.3231 101.928C10.3547 101.139 10.5764 100.876 11.3997 100.498C11.5264 100.613 11.6531 100.728 11.8272 100.876C11.9856 100.58 12.0964 100.35 12.2389 100.087C12.0014 99.9724 11.8272 99.7916 11.6372 99.7916C11.1781 99.7752 10.6872 99.7423 10.2756 99.8902C9.92724 100.022 9.67391 100.4 9.37308 100.679C9.32558 101.123 9.45225 101.829 9.18308 102.158C8.92975 102.454 8.72392 103.457 7.85309 102.816C8.18559 102.487 8.54975 102.158 8.18559 101.698C8.40725 101.435 8.94558 101.501 8.72392 100.991C8.61308 100.745 7.88476 100.663 7.50476 100.86C7.61559 101.041 7.71059 101.205 7.82142 101.386C7.66309 101.764 7.58393 102.142 7.64726 102.503C7.74226 103.177 7.58393 103.457 6.91893 103.572C6.6656 103.621 6.41227 103.719 6.15894 103.802C6.31727 104.262 6.4281 104.607 6.58643 105.084C7.10893 104.689 7.58393 104.344 7.88476 104.114C8.67642 104.213 8.75558 104.87 9.05642 105.379C10.2281 105.379 11.3522 105.379 12.4922 105.379C12.9989 105.379 13.5531 105.478 13.9172 104.936C13.9964 104.821 14.2339 104.821 14.4872 104.738C14.408 105.001 14.3447 105.166 14.2972 105.297C15.3739 105.297 16.4189 105.281 17.4639 105.297C19.5222 105.314 21.5805 105.379 23.623 105.379C45.8687 105.347 68.0985 105.297 90.3442 105.264C92.735 105.264 95.1258 105.264 97.5166 105.264C102.9 105.264 108.283 105.264 113.667 105.264C115.123 105.264 116.564 105.281 118.021 105.264C119.271 105.248 119.873 104.689 119.952 103.391C120.016 102.668 119.984 101.879 119.873 101.139ZM45.4253 94.4996C45.6787 94.3846 45.6628 93.8094 46.1537 93.9573C45.7262 94.9105 44.982 95.2392 44.5228 94.6968C44.8395 94.6311 45.1562 94.6311 45.4253 94.4996ZM12.1439 104.065C12.0964 104.065 12.0489 104.081 12.0014 104.081C11.9064 103.719 11.9064 103.292 11.7006 103.013C11.5264 102.766 11.1306 102.684 10.8456 102.536C10.8931 102.454 10.9406 102.388 10.9722 102.306C11.5106 102.52 12.0489 102.717 12.5872 102.931C12.4131 103.407 12.2706 103.736 12.1439 104.065ZM17.4639 100.548C17.6697 100.17 17.828 99.8573 18.0022 99.5615C18.0497 99.5779 18.0972 99.5944 18.1605 99.6108C18.1764 99.7752 18.1922 99.9395 18.208 100.17C18.5247 100.137 18.7938 100.104 19.158 100.071C18.7147 100.86 18.1289 100.597 17.4639 100.548ZM21.4855 100.613C21.4063 100.712 21.3905 100.86 21.343 100.958C21.1213 100.794 20.8997 100.63 20.6938 100.465C20.678 100.465 20.678 100.465 20.6622 100.482C20.3138 100.926 19.9813 101.369 19.5697 101.879C19.3322 101.895 18.9997 101.928 18.6197 101.961C18.6038 102.175 18.588 102.372 18.5722 102.733C18.1764 102.207 17.8755 101.813 17.5272 101.369C17.8597 100.958 18.0022 101.484 18.3189 101.599C18.7305 100.449 19.7913 100.728 20.6463 100.465C20.6463 100.449 20.6622 100.449 20.6622 100.433C20.6622 100.433 20.678 100.433 20.678 100.449C20.7413 100.367 20.773 100.235 20.868 100.202C21.0422 100.104 21.2797 99.9559 21.438 100.022C21.7547 100.137 21.6438 100.383 21.4855 100.613ZM23.2747 102.602C23.243 102.701 22.8788 102.816 22.7522 102.733C22.2297 102.454 22.6572 102.043 22.5938 101.55C23.0688 101.912 23.433 102.125 23.2747 102.602ZM23.4805 101.156C23.5121 100.334 24.2563 99.7752 25.1113 99.9559C24.5255 100.383 24.0505 100.728 23.4805 101.156ZM25.1271 96.784C25.3646 96.3074 25.6655 96.3074 26.1563 96.5868C25.7921 96.9977 25.5071 97.1127 25.1271 96.784ZM26.8213 97.7866C26.6313 98.0495 26.1721 98.1152 25.7763 98.296C25.5388 97.047 26.6313 97.0634 26.948 96.4553C27.0113 96.4882 27.0905 96.5375 27.1538 96.5704C27.043 96.9812 27.043 97.4743 26.8213 97.7866ZM38.1737 98.674C38.1421 98.9863 38.0471 99.315 37.6037 99.1671C37.6512 98.8055 37.6829 98.4768 37.7304 98.1152C38.1579 98.0166 38.2054 98.3453 38.1737 98.674ZM39.4245 101.336C39.2187 101.205 39.0287 101.09 38.7754 100.942C38.9654 100.679 39.092 100.482 39.2504 100.268C39.757 100.58 39.757 100.909 39.4245 101.336ZM42.2112 95.8308C42.0529 95.8966 41.8629 95.8801 41.5937 95.8966C41.8312 95.3871 41.7679 94.8283 42.417 94.6475C42.5754 94.6147 42.6545 94.2202 42.7812 93.9573C43.1137 93.9573 43.4937 93.9573 43.9053 93.9573C43.9053 94.1052 43.9053 94.1874 43.8895 94.2531C43.8262 94.6147 43.8895 95.1077 43.6678 95.3214C43.462 95.535 42.987 95.4364 42.6387 95.5186C42.4804 95.5843 42.3695 95.7651 42.2112 95.8308ZM43.4303 98.1481C43.2562 98.4111 43.0504 98.674 42.7495 98.4439C42.6545 98.3618 42.7178 97.9509 42.797 97.7373C43.0503 97.1127 43.367 97.0141 44.1587 97.2113C43.9212 97.54 43.652 97.8359 43.4303 98.1481ZM45.0928 100.958C45.0295 100.416 44.9978 100.104 44.9662 99.7423C45.362 99.6601 45.7578 99.43 46.0587 99.8409C45.7578 100.219 45.4728 100.531 45.0928 100.958ZM46.692 99.8902C46.692 99.693 46.692 99.4958 46.692 99.2657C47.1195 99.2328 47.5153 99.2164 48.0061 99.1835C47.642 100.055 47.642 100.055 46.692 99.8902ZM48.3386 102.438C48.687 101.813 48.687 101.813 49.6686 101.797C49.4628 102.717 48.8295 102.191 48.3386 102.438ZM73.5451 99.1178C73.4501 99.1506 73.3551 99.1671 73.2601 99.1835C73.3551 99.1506 73.4501 99.1342 73.5451 99.1178C74.5585 98.8548 75.4926 97.9838 75.6351 97.54C76.4268 94.7461 72.9435 93.267 71.5185 90.9662C71.2968 90.621 71.3918 90.1773 71.4077 89.7829C71.1227 89.4706 70.8535 89.1583 70.5685 88.8296C70.8377 89.1583 71.1227 89.4706 71.4077 89.7829C71.4077 89.6185 71.4077 89.4706 71.3602 89.3227C71.2018 89.1583 71.0435 88.6653 70.7268 88.6653C71.0435 88.6653 71.2018 89.1583 71.3602 89.3227C71.4077 89.4706 71.4077 89.6185 71.4077 89.7829C73.4185 91.9851 75.6193 93.8915 77.6934 96.0609C78.4851 96.8826 79.4351 97.54 80.2268 98.5261C77.9626 98.3618 75.6826 98.6576 73.5451 99.1178ZM87.5259 54.4318C87.5259 53.8731 87.8584 53.5115 88.3967 53.4951C88.9667 53.4786 89.3467 53.8402 89.3625 54.4154C89.3784 54.9742 88.9825 55.4015 88.4442 55.4015C87.9059 55.4179 87.5259 55.0071 87.5259 54.4318Z" fill="#091929"/>
<path d="M47.927 93.4315C47.927 93.415 47.927 93.415 47.927 93.4315C47.9435 93.415 47.9435 93.415 47.9435 93.415L47.927 93.4315Z" fill="#091929"/>
<path d="M73.5452 99.1177C73.4503 99.1341 73.3553 99.1505 73.2603 99.1834C73.3553 99.1505 73.4503 99.1341 73.5452 99.1177Z" fill="#091929"/>
<path d="M20.6462 100.482C20.6621 100.482 20.6621 100.482 20.6779 100.465C20.6779 100.465 20.6621 100.465 20.6621 100.449C20.6621 100.465 20.6621 100.465 20.6462 100.482Z" fill="#091929"/>
<path d="M91.8007 31.4399C91.6899 31.3906 91.5949 31.2426 91.5316 31.0947C91.3732 31.0947 91.2307 31.1112 91.0724 31.1276C90.7716 31.2098 90.4707 31.2919 90.1857 31.407C90.2016 31.4399 90.2333 31.4727 90.2491 31.4892C88.8399 32.2945 88.0958 33.5106 87.7316 35.0062C87.5099 35.9594 87.4941 36.9126 87.8424 37.833C88.3649 39.2135 89.6316 39.6901 90.8824 38.9834C91.1516 38.8355 91.4207 38.6383 91.6424 38.4082C92.7824 37.2577 93.3207 35.8279 93.3049 34.2009C93.2732 33.0505 92.9407 31.9986 91.8007 31.4399ZM90.9932 38.3753C89.7899 39.2792 88.5866 38.8355 88.1908 37.3563C87.8266 35.9758 88.1749 34.7268 88.8716 33.4285C90.1541 34.1516 91.3891 34.8583 92.6874 35.5814C92.3866 36.7647 91.8641 37.7015 90.9932 38.3753Z" fill="#091929"/>
<path d="M72.5796 36.8301C72.0412 36.9287 71.6296 37.0108 71.1863 37.1095C71.3921 37.9641 71.6454 38.7694 71.7879 39.5911C72.0887 41.3332 72.3104 43.0917 72.5954 44.8338C72.8962 46.7073 73.0387 48.6137 73.6562 50.4216C74.1312 51.8021 74.7329 53.084 75.9679 54.0536C75.7779 54.0865 75.6671 54.1194 75.5721 54.1194C74.4479 54.1029 73.3079 54.0701 72.1837 54.0701C71.9146 54.0701 71.6613 54.0865 71.3921 54.1029C71.2179 54.1029 71.0279 54.1687 70.8696 54.1194C69.8246 53.8564 68.7638 54.1358 67.7188 54.1358C66.5471 54.1194 65.3913 54.1522 64.2196 54.1522C62.5096 54.1522 60.7838 54.2509 59.0897 54.1029C57.4747 53.9715 55.8914 54.1522 54.2922 54.1522C53.8647 54.1522 53.5164 54.0536 53.263 53.7085C52.8355 53.1333 52.4081 52.5416 52.0439 51.9171C51.8856 51.6377 51.7431 51.4898 51.4106 51.4898C49.6847 51.4898 47.9431 51.4734 46.2173 51.4734C45.0614 51.4734 43.8898 51.5063 42.7339 51.5227C42.5914 51.5227 42.4173 51.572 42.3223 51.5063C41.8473 51.194 41.3881 51.3748 40.8973 51.457C40.5015 51.5227 40.1056 51.4734 39.7256 51.4734C39.7731 48.6466 39.8206 45.8199 39.8681 42.9273C39.5515 42.9273 39.3298 42.9273 39.1081 42.9273C32.7907 42.9273 26.4732 42.9273 20.1399 42.9273C19.9974 42.9273 19.8549 42.9109 19.7124 42.9273C19.3799 42.9438 19.2058 42.7959 19.1266 42.4507C18.8733 41.2674 18.5883 40.1006 18.3191 38.9337C17.8916 37.093 17.48 35.2359 17.0366 33.3952C16.625 31.6203 16.1658 29.8453 15.77 28.0704C15.4533 26.7063 15.2 25.3258 14.8991 23.9453C14.6933 23.0249 14.4558 22.1046 14.2341 21.1678C14.06 20.4447 13.9175 19.7051 13.7433 18.982C13.68 18.6862 13.5692 18.3903 13.4742 18.0945C13.4425 17.9959 13.3633 17.8809 13.3633 17.7823C13.4108 16.5661 12.8092 15.4978 12.635 14.3145C12.5717 13.9037 12.635 13.6407 12.92 13.4106C13.1892 13.197 13.4583 12.9998 13.7433 12.8025C14.5508 12.2273 15.3741 11.6685 16.1816 11.0933C16.2608 11.0276 16.34 10.9619 16.4191 10.8797C16.6408 10.666 16.8308 10.4195 17.0841 10.2552C17.9866 9.59778 18.9049 8.95682 19.8233 8.31587C20.1399 8.08578 20.4566 7.8557 20.7574 7.60918C20.8524 7.527 20.9316 7.4284 21.0266 7.34622C22.1033 6.55736 23.1799 5.76849 24.2566 4.96319C25.2382 4.22363 26.2199 3.46763 27.2016 2.72807C28.0566 2.08712 28.9115 1.44617 29.7824 0.805214C30.0674 0.591563 30.3682 0.394346 30.6374 0.16426C30.8432 -0.0165213 31.0332 -0.0493907 31.2707 0.0985216C31.8407 0.44365 32.3949 0.788779 32.9648 1.10104C33.5982 1.4626 34.2473 1.7913 34.8807 2.15286C35.9573 2.77738 37.034 3.4019 38.1106 4.02641C38.2215 4.09215 38.3323 4.14146 38.4431 4.19076C38.8073 4.37154 39.1873 4.53589 39.5356 4.73311C40.2956 5.16041 41.0398 5.58771 41.7998 6.01501C42.7973 6.59023 43.7948 7.18188 44.8081 7.74066C45.7264 8.25013 46.6606 8.69387 47.5789 9.18691C48.3389 9.59778 49.0831 10.0415 49.8431 10.4688C50.6189 10.9126 51.3472 11.4713 52.1706 11.7343C52.9305 11.9808 53.4372 12.556 54.1339 12.8518C54.4664 12.9998 54.8147 13.1312 55.1472 13.2627C55.6697 13.4764 55.8914 13.9037 56.018 14.4624C56.2872 15.7608 56.6039 17.0591 56.9047 18.3575C57.063 19.0313 57.2055 19.7051 57.3638 20.3789C57.633 21.5129 57.8863 22.6469 58.1555 23.7809C58.1872 23.9124 58.2505 24.0603 58.3297 24.1754C59.0422 25.1779 59.5013 26.2954 59.8655 27.4623C59.9763 27.8074 59.9922 28.169 60.0397 28.5305C60.0555 28.6785 60.0238 28.8592 60.103 28.9578C60.6255 29.5495 60.5622 30.3219 60.768 31.0122C60.7997 31.1108 60.7997 31.2258 60.8313 31.3409C60.958 31.9818 61.2905 32.2448 61.9238 32.1462C63.7921 31.8668 65.6605 32.0804 67.5288 32.0311C67.7979 32.0311 68.0988 32.1462 68.3204 32.2941C68.6371 32.4913 68.9696 32.7214 69.1596 33.0172C69.9354 34.2827 71.1071 35.1702 72.0729 36.2713C72.2312 36.4356 72.3579 36.5835 72.5796 36.8301ZM48.3072 41.514C48.3072 41.514 48.3072 41.5304 48.3072 41.514C48.3706 41.3825 48.4497 41.2346 48.4972 41.1195C48.3389 40.9716 48.2122 40.8566 48.1172 40.7744C48.2756 40.5443 48.4181 40.3635 48.5922 40.117C48.3072 40.0677 48.1172 40.0513 47.8956 40.0184C47.8639 40.1499 47.8322 40.2814 47.8006 40.3964C47.5947 40.0677 47.3889 39.7719 47.1989 39.4596C47.4998 39.6897 47.7372 39.624 47.9431 39.4268C47.8006 39.1474 47.6739 38.9008 47.5314 38.6215C47.6739 38.5886 47.8006 38.5721 47.9589 38.5393C47.6423 38.3749 47.3731 38.2435 47.1039 38.0955C47.4998 37.6025 46.9139 37.0273 47.2939 36.5507C47.1039 36.1398 46.6764 35.7947 47.0406 35.2195C46.8031 35.1537 46.6131 35.1044 46.3914 35.0551C46.4389 34.9072 46.4864 34.7757 46.5339 34.6443C46.7239 34.1019 46.7239 34.0855 46.2014 33.8883C46.6606 33.6417 46.6606 33.6417 46.7714 33.2473C46.5814 33.1487 46.3914 33.0501 46.1698 32.935C46.1698 32.82 46.1698 32.6721 46.1698 32.5242C45.3464 32.2119 45.3464 32.2119 45.0456 33.1158C44.9981 32.8529 44.9664 32.6557 44.9348 32.4256C44.3489 32.6885 43.9689 33.1158 43.6681 33.6089C43.0189 34.6443 42.5439 35.7618 42.2431 36.9615C42.0848 37.6025 41.9265 38.2435 41.784 38.8844C41.499 40.2156 41.1665 41.5468 40.9448 42.8945C40.6598 44.6366 40.4381 46.3951 40.2165 48.1536C40.0898 49.1561 40.0265 50.175 39.9156 51.2926C40.3748 51.2433 40.7706 51.2104 41.1665 51.1776C41.404 51.1447 41.689 51.0132 41.879 51.1118C42.3065 51.3255 42.7181 51.3255 43.1614 51.3255C43.9531 51.309 44.7448 51.3255 45.5364 51.2926C45.9481 51.2762 46.4073 51.0461 46.7714 51.1776C47.3573 51.3912 47.6423 51.0461 48.0539 50.7667C47.8322 50.6188 47.6581 50.5037 47.4839 50.3887C47.4206 50.5202 47.3573 50.6516 47.2781 50.816C47.1989 50.1586 47.6106 49.2218 48.0381 49.0082C47.9431 48.9424 47.8639 48.8767 47.7847 48.811C47.4522 48.548 47.3731 48.3344 47.6106 47.9892C47.8639 47.6277 47.9114 47.2825 47.6898 46.921C47.8322 46.7402 47.9906 46.5923 48.0381 46.4115C48.0697 46.2965 47.9114 46.1321 47.8481 46.0006C47.9748 45.9185 48.1331 45.8198 48.3231 45.6884C48.1806 45.5076 48.0697 45.3761 47.9589 45.2282C48.5447 44.8995 48.7031 44.3736 48.6081 43.7326C48.7822 43.7162 48.9247 43.7162 49.0831 43.6998C48.8297 43.3546 48.6081 43.0424 48.3389 42.6644C48.6239 42.4179 48.9089 42.1878 49.1939 41.9577C49.1781 41.9248 49.1464 41.892 49.1306 41.8591C49.0197 41.892 48.9089 41.9248 48.9247 41.9248C48.6239 41.7112 48.4656 41.6126 48.3072 41.514ZM75.4454 53.9386C75.1446 53.5442 74.8754 53.2319 74.6379 52.8868C73.5137 51.2269 73.0862 49.2876 72.7696 47.3318C72.5004 45.7541 72.3262 44.1435 72.1362 42.5493C71.9146 40.6758 71.4871 38.8351 70.9488 37.0437C70.5529 35.7125 70.0463 34.4142 69.2071 33.313C68.6846 32.6392 68.0671 32.2119 67.1804 32.2448C66.1196 32.2941 65.0588 32.2941 63.998 32.2448C62.953 32.1955 61.908 32.3105 60.8472 32.2941C56.1764 32.2284 51.4897 32.2612 46.8189 32.2612C46.6923 32.2612 46.5656 32.2777 46.3281 32.2941C47.1198 32.8364 47.6106 33.5103 47.9747 34.2663C48.3072 34.9401 48.6081 35.6139 48.8456 36.3206C49.9222 39.4761 50.3814 42.7794 50.7456 46.0992C50.9356 47.7427 51.1889 49.3533 51.7747 50.9146C52.1231 51.8349 52.5664 52.706 53.2155 53.4455C53.5164 53.7907 53.8489 54.0043 54.3239 53.955C54.8622 53.9057 55.4164 53.9222 55.9705 53.9057C56.588 53.8893 57.2055 53.8235 57.823 53.8235C58.3138 53.8235 58.8047 53.9222 59.2955 53.9386C60.8947 53.955 62.5096 53.9715 64.1088 53.9715C64.8055 53.9715 65.5021 53.9057 66.1988 53.8728C66.183 53.1497 66.3888 52.7882 66.848 52.7882C67.0063 52.7882 67.2438 52.8539 67.3229 52.9689C67.4813 53.2483 67.5604 53.577 67.7029 53.9715C68.1304 53.9386 68.6529 53.9057 69.1754 53.8728C69.4446 53.8564 69.6979 53.84 69.9671 53.8564C70.3313 53.8729 70.6954 53.9386 71.0754 53.955C71.6929 53.9715 72.3104 53.955 72.9279 53.955C73.7354 53.9386 74.5587 53.9386 75.4454 53.9386ZM24.9691 17.3714C25.0007 17.0591 25.0482 16.7633 25.0482 16.4839C25.0641 15.7115 25.0166 14.9391 25.0641 14.1831C25.1432 12.934 26.0457 12.1452 27.2174 12.0794C28.4365 12.0137 29.6715 12.3752 30.8907 11.9972C30.954 11.9808 31.0332 11.9972 31.0965 11.9972C32.5057 12.063 33.9148 12.1452 35.324 12.1945C36.0998 12.2273 36.8598 12.2109 37.6357 12.1945C38.269 12.178 38.9023 12.1123 39.5356 12.1123C42.5914 12.1123 45.6473 12.1123 48.7031 12.1123C49.2889 12.1123 49.7639 12.3588 50.1439 12.8025C50.6664 13.4271 50.9831 14.1502 51.2206 14.9226C51.3631 15.3499 51.4739 15.7772 51.6322 16.2867C51.9964 16.0566 52.3289 15.8758 52.6297 15.6786C53.0097 15.4157 53.3739 15.1198 53.738 14.8404C54.1339 14.5446 54.5139 14.2652 54.973 13.9037C54.0705 13.6407 53.3422 13.2956 52.7405 12.7039C52.6931 12.6546 52.6139 12.6382 52.5505 12.6053C52.2022 12.4574 51.8222 12.3259 51.4897 12.1452C51.1414 11.9644 50.8406 11.7179 50.4922 11.5371C49.7006 11.1098 48.8931 10.6989 48.1014 10.2716C47.2464 9.81143 46.4073 9.31839 45.5523 8.84178C44.1273 8.03648 42.7023 7.24761 41.2773 6.45875C40.8973 6.2451 40.4698 6.09719 40.0898 5.88353C38.9656 5.24258 37.8731 4.55232 36.749 3.91137C35.1815 3.00746 33.5982 2.13642 32.0149 1.24895C31.7774 1.11747 31.5557 0.969561 31.3024 0.870952C31.1599 0.821648 30.954 0.821648 30.8432 0.903822C29.8299 1.62695 28.8165 2.36651 27.8191 3.10607C26.8691 3.8292 25.9349 4.56876 24.9691 5.29189C23.9241 6.06432 22.8633 6.82031 21.8024 7.59274C20.9949 8.18439 20.2033 8.79248 19.4116 9.40056C19.3166 9.48273 19.2374 9.58134 19.1266 9.64708C18.8574 9.8443 18.5883 10.0579 18.3033 10.2387C18.0183 10.4359 17.7016 10.6167 17.4166 10.8468C17.1158 11.0933 16.8625 11.4056 16.5458 11.6357C15.8491 12.1452 15.1208 12.6218 14.4083 13.1148C14.1075 13.3285 13.8225 13.5585 13.4425 13.8544C14.5033 14.2488 15.2633 15.0048 16.2291 15.3992C17.195 15.8101 18.0658 16.4675 18.9999 16.977C19.3166 17.1577 19.6808 17.3385 20.0291 17.3385C21.6441 17.4043 23.2432 17.3714 24.9691 17.3714ZM30.6215 31.0615C30.669 30.93 30.7007 30.8807 30.7007 30.8478C31.049 29.4016 31.2549 27.906 31.9832 26.5748C32.0307 26.4926 32.0465 26.4105 32.0624 26.3119C32.2682 25.4244 32.7274 24.6684 33.2973 23.9781C33.7407 23.4522 34.279 23.2057 34.9757 23.2057C38.3798 23.2221 41.784 23.2221 45.1881 23.2221C47.3414 23.2221 49.4947 23.2221 51.6481 23.2057C51.8064 23.2057 51.9489 23.1893 52.1389 23.1728C52.0756 22.4004 52.0281 21.6773 51.9647 20.9377C51.8064 19.1135 51.6006 17.3056 51.1256 15.5307C50.9039 14.6761 50.6031 13.8544 50.0964 13.1312C49.7639 12.6546 49.3522 12.3424 48.7189 12.3424C45.0931 12.3752 41.4831 12.3752 37.8573 12.4081C36.9707 12.4081 36.0998 12.441 35.2132 12.4574C35.1182 12.4574 35.039 12.4574 34.944 12.441C34.469 12.4081 33.994 12.3752 33.519 12.3588C32.759 12.3259 31.999 12.2931 31.239 12.2602C31.0174 12.2602 30.7957 12.2931 30.5582 12.3095C30.2415 12.3259 29.9407 12.3752 29.624 12.3752C28.9432 12.3917 28.2465 12.3752 27.5024 12.3752C28.2782 13.197 28.5949 13.6407 28.9432 14.6925C29.2124 15.5307 29.4657 16.3689 29.5765 17.2399C29.8457 19.1299 30.0515 21.0199 30.2099 22.9099C30.3524 24.652 30.384 26.4105 30.4474 28.1525C30.5582 29.1058 30.5899 30.0425 30.6215 31.0615ZM35.6248 23.4029C36.6382 24.389 37.1607 25.6216 37.6198 26.8871C38.269 28.662 38.6648 30.5027 38.9815 32.3434C39.1715 33.461 39.1873 34.6114 39.4406 35.6961C39.8365 37.4217 39.789 39.1802 39.8998 40.9223C40.0265 42.8945 39.979 44.8831 40.0265 46.8552C40.0265 46.9374 40.0423 47.036 40.0423 47.1182C40.3431 45.1625 40.5965 43.2067 40.9765 41.2839C41.3248 39.5089 41.784 37.7668 42.259 36.0248C42.5598 34.9401 43.0665 33.954 43.7314 33.0665C44.2223 32.4091 44.8556 32.0147 45.6789 32.0147C50.5397 32.0147 55.3847 32.0311 60.2455 32.0311C60.4038 32.0311 60.578 32.0147 60.7047 32.0147C60.7522 30.4698 59.913 29.2044 59.7547 27.7417C59.6755 26.9857 59.2638 26.2626 58.9313 25.5559C58.678 25.0135 58.3297 24.5205 57.9655 24.0603C57.6013 23.6001 57.1105 23.3865 56.5247 23.3865C52.1706 23.3865 47.8164 23.3536 43.4464 23.3536C41.6256 23.3536 39.8048 23.3865 37.9998 23.4029C37.2082 23.4029 36.4165 23.4029 35.6248 23.4029ZM13.4583 14.5611C13.4267 14.5939 13.395 14.6104 13.3633 14.6432C13.395 14.7911 13.4108 14.9226 13.4425 15.0705C13.6167 15.958 14.06 16.7962 13.9966 17.733C13.9966 17.7987 14.06 17.8644 14.0758 17.9302C14.155 18.226 14.25 18.5218 14.3291 18.8176C14.5033 19.5572 14.6616 20.3132 14.8358 21.0528C15.0575 21.9895 15.2791 22.9263 15.5008 23.8795C15.8016 25.2436 16.0708 26.6241 16.3875 28.0046C16.8783 30.1576 17.4166 32.2941 17.9233 34.447C18.1766 35.5646 18.3983 36.6986 18.6516 37.8162C18.8574 38.7694 19.0949 39.739 19.3324 40.6922C19.4116 41.0374 19.5224 41.3989 19.6491 41.8262C20.1241 41.1524 20.5674 40.5772 20.9633 39.9527C21.2799 39.4761 21.5174 38.9337 21.8341 38.4571C22.1508 37.9641 22.5466 37.5039 22.8791 37.0273C23.7182 35.7618 24.5574 34.4963 25.3807 33.2144C26.0141 32.2284 26.6157 31.2258 27.2649 30.2398C28.2307 28.7606 29.2124 27.2815 30.194 25.8024C30.2574 25.7038 30.3207 25.5723 30.3365 25.4573C30.3524 25.0628 30.3365 24.652 30.3365 24.2575C30.3365 23.9946 30.2257 23.8631 30.0199 23.7481C29.0224 23.2221 28.0091 22.6962 27.0116 22.1539C26.0616 21.628 25.1274 21.0856 24.1774 20.5597C23.5441 20.1982 22.9108 19.853 22.2774 19.4915C21.9449 19.2942 21.6283 19.0642 21.2799 18.8834C20.4883 18.4725 19.6808 18.1109 18.9049 17.6836C18.1133 17.2563 17.3533 16.7469 16.5775 16.3031C16.3083 16.1552 15.9916 16.073 15.7066 15.9416C15.5166 15.8594 15.3266 15.7608 15.1525 15.6457C14.535 15.3006 13.9966 14.9226 13.4583 14.5611ZM30.3524 26.7885C30.289 26.772 30.2257 26.772 30.1782 26.7556C26.8216 31.8997 23.4807 37.0437 20.0924 42.2371C26.6949 42.2371 33.2023 42.2371 39.7256 42.2371C39.7256 38.9666 39.3931 35.7618 38.8548 32.5899C38.6648 32.5735 38.5381 32.5735 38.4273 32.557C37.3507 32.4256 36.274 32.7378 35.1815 32.4584C34.5165 32.2941 33.7565 32.5077 33.044 32.5242C32.189 32.5406 31.334 32.5242 30.384 32.5242C30.3524 30.6013 30.3524 28.6949 30.3524 26.7885ZM35.8148 26.0325C35.134 25.8846 35.0707 25.2765 35.0548 24.8327C35.039 24.3068 34.7382 24.274 34.4532 24.126C34.469 24.011 34.469 23.8795 34.4848 23.7316C34.1207 23.6494 33.8673 23.748 33.6298 23.9781C33.0598 24.5698 32.6799 25.2929 32.3632 26.0489C32.1574 26.5584 31.9674 27.0679 31.7774 27.5773C31.7299 27.6924 31.6507 27.8074 31.619 27.9225C31.3657 29.0565 31.0965 30.1905 30.859 31.3409C30.7957 31.6531 30.7482 31.9654 30.7007 32.2941C30.8115 32.3105 30.859 32.3434 30.9065 32.3434C32.2365 32.3105 33.5823 32.2777 34.9123 32.2448C35.1657 32.2448 35.4348 32.327 35.6882 32.3434C35.9573 32.3598 36.2265 32.3434 36.5115 32.327C36.5273 32.327 36.5432 32.2777 36.5748 32.2448C36.5273 32.1955 36.4798 32.1626 36.4165 32.1133C36.5748 31.9818 36.7332 31.8504 36.8915 31.7024C36.7807 31.571 36.6857 31.4559 36.5432 31.2751C36.7015 31.1765 36.844 31.0944 36.9865 31.0286C36.8757 30.8643 36.8123 30.7657 36.7332 30.6506C37.034 30.5849 37.2082 30.4698 36.9865 30.174C37.0815 30.1247 37.1607 30.0918 37.2873 30.0425C37.0815 29.7796 36.7965 29.5824 36.7648 29.3358C36.7332 29.1386 37.0182 28.8921 37.1765 28.6292C36.8915 28.6127 36.6382 28.1197 36.3532 28.7771C36.3057 28.5141 36.2898 28.3662 36.2582 28.2347C36.4007 28.1854 36.5273 28.1525 36.7173 28.1032C36.5115 27.9718 36.4007 27.8896 36.3373 27.8403C36.4165 27.6266 36.4957 27.4294 36.559 27.2486C36.2265 27.1993 35.9732 27.15 35.6882 27.1007C35.8782 26.7063 35.8465 26.4105 35.5615 26.1639C35.6407 26.1311 35.704 26.0982 35.8148 26.0325ZM52.3922 23.2714C54.0864 23.2714 55.7805 23.2714 57.4905 23.2714C56.778 20.3789 56.0655 17.4536 55.353 14.5118C54.7197 14.9391 54.1022 15.3335 53.5164 15.7444C53.0255 16.0895 52.5347 16.451 52.0439 16.7962C51.7906 16.977 51.6639 17.1906 51.7431 17.5357C51.8381 17.8809 51.8539 18.2589 51.9014 18.6204C52.0756 20.1324 52.2181 21.6444 52.3922 23.2714ZM28.2149 20.0502C28.4365 19.5243 28.6107 19.1135 28.8007 18.6533C28.7057 18.5054 28.579 18.2917 28.4365 18.0452C28.6265 17.8644 28.7849 17.7001 29.0065 17.4864C28.6582 17.4371 28.6107 17.1742 28.4524 16.977C28.2307 16.6976 28.294 16.5168 28.484 16.1881C28.2307 16.1881 28.0566 16.1881 27.8666 16.1881C27.8191 16.1059 27.7557 16.0073 27.6766 15.8758C27.8507 15.8101 27.9774 15.7772 28.1516 15.7115C27.9299 15.4978 27.5816 15.3664 27.8032 14.9884C27.6607 14.9226 27.5182 14.8569 27.3441 14.7911C27.5182 13.8051 26.9482 13.1641 26.3624 12.5067C25.8082 12.9176 25.4282 13.4435 25.3807 14.1009C25.3174 14.9226 25.3649 15.7444 25.3491 16.5661C25.3491 16.7304 25.3332 16.8948 25.3174 17.0591C25.3016 17.3056 25.3016 17.5686 25.2857 17.8151C25.2382 18.3903 25.2382 18.982 25.1432 19.5408C25.0166 20.231 25.1432 20.4118 25.8241 20.3132C26.1724 20.2639 26.5207 20.2639 26.8691 20.2639C27.3441 20.2803 27.8032 20.3132 28.3415 20.3625C28.2624 20.1817 28.2149 20.0667 28.2149 20.0502ZM48.3547 48.811C48.2439 48.3672 48.3706 48.0057 48.0222 47.792C48.1489 48.1371 48.0381 48.3508 47.6106 48.5316C47.9114 48.6466 48.0856 48.7124 48.3547 48.811ZM48.1964 38.1613C47.9906 37.8162 48.0222 37.4053 47.4364 37.4382C47.8956 37.6682 47.6423 37.9148 47.5314 38.1613C47.7531 38.1613 47.9114 38.1613 48.1964 38.1613Z" fill="#091929"/>
<path d="M109.518 63.0273C109.186 69.141 107.587 74.811 103.945 79.7578C103.359 80.5631 102.868 81.4999 101.998 82.0258C101.934 81.9765 101.871 81.9272 101.808 81.8944C101.871 81.7136 101.918 81.5164 102.029 81.352C102.995 79.7578 103.961 78.1472 104.927 76.5531C105.829 75.0575 106.494 73.4633 107.001 71.787C107.808 69.0917 108.537 66.3964 108.933 63.5861C108.964 63.3396 109.107 63.1095 109.186 62.8794C109.297 62.9451 109.408 62.9944 109.518 63.0273Z" fill="#091929"/>
<path d="M51.3311 68.1051C52.3286 65.6071 54.0385 63.5856 55.7644 61.6135C57.3477 59.8056 61.1793 57.3733 62.2877 57.4226C60.2768 58.9839 58.0444 60.2494 56.2869 62.1558C54.5452 64.0458 52.9935 66.1001 51.6161 68.2859C51.5211 68.2202 51.4261 68.1709 51.3311 68.1051Z" fill="#091929"/>
<path d="M68.6209 57.2422C68.2409 57.2422 67.9084 56.8971 67.9084 56.5191C67.9084 56.1247 68.2568 55.7795 68.6209 55.796C69.0009 55.8124 69.3018 56.1575 69.3018 56.5684C69.3018 56.9628 69.0168 57.2587 68.6209 57.2422Z" fill="#091929"/>
<path d="M75.8096 36.3369C76.2371 36.2219 76.6963 36.5177 76.7913 36.9615C76.8863 37.3888 76.6329 37.8325 76.2213 37.9476C75.7938 38.0626 75.3346 37.7668 75.2396 37.3395C75.1446 36.8793 75.4138 36.4356 75.8096 36.3369Z" fill="#091929"/>
<path d="M84.3433 41.4976C84.4224 41.9414 84.1374 42.3358 83.7099 42.418C83.2666 42.5002 82.8391 42.1879 82.7758 41.7277C82.7124 41.3004 83.0133 40.8567 83.4091 40.7909C83.8366 40.7088 84.2641 41.0375 84.3433 41.4976Z" fill="#091929"/>
<path d="M82.2223 39.3446C82.3014 39.7883 82.0481 40.1992 81.6206 40.2978C81.1931 40.3964 80.734 40.0677 80.6548 39.6404C80.5756 39.2296 80.8765 38.7694 81.2723 38.6872C81.6998 38.5722 82.1431 38.9009 82.2223 39.3446Z" fill="#091929"/>
<path d="M85.3411 44.226C85.4519 44.6862 85.1986 45.1464 84.7711 45.245C84.3753 45.3436 83.932 45.0642 83.8211 44.6533C83.7103 44.2096 83.9794 43.733 84.4069 43.6344C84.8344 43.5358 85.2303 43.7823 85.3411 44.226Z" fill="#091929"/>
<path d="M78.6595 37.2572C79.1029 37.1586 79.5462 37.4545 79.6254 37.9146C79.7045 38.3584 79.4512 38.7692 79.0237 38.8678C78.5804 38.9664 78.137 38.6542 78.042 38.2269C77.9629 37.7832 78.2479 37.3394 78.6595 37.2572Z" fill="#091929"/>
<path d="M72.3577 36.7149C72.2785 36.2712 72.5635 35.8768 72.991 35.7946C73.4185 35.7124 73.8144 35.9918 73.8935 36.4355C73.9885 36.8957 73.6877 37.323 73.2285 37.3888C72.801 37.4545 72.4369 37.1751 72.3577 36.7149Z" fill="#091929"/>
<path d="M3.67309 104.755C3.40393 104.623 3.11893 104.525 2.88143 104.377C2.73893 104.294 2.61226 104.13 2.5806 103.966C2.56476 103.884 2.73893 103.719 2.8656 103.637C3.05559 103.506 3.27726 103.423 3.54642 103.292C3.59392 103.522 3.64142 103.719 3.73642 104.114C3.91059 103.818 3.98975 103.637 4.10059 103.473C4.19559 103.308 4.29059 103.161 4.38559 102.963C4.25892 102.717 4.11642 102.47 3.92642 102.109C4.43308 102.043 4.89225 101.994 5.28808 101.944C5.17725 102.421 5.08225 102.881 4.95558 103.325C4.92391 103.44 4.84475 103.571 4.76558 103.67C4.38559 104.032 4.02142 104.393 3.67309 104.755Z" fill="#091929"/>
<path d="M33.0759 91.9355C32.8543 92.0177 32.6168 92.1163 32.3318 92.2314C31.9676 91.7876 32.3476 91.5575 32.6009 91.3439C33.1551 90.9002 33.6301 91.0481 34.3426 91.8534C34.1684 92.0013 33.9151 92.0999 33.8676 92.2807C33.7726 92.6094 33.5667 92.6915 33.3609 92.5601C33.2184 92.4779 33.1868 92.1985 33.0759 91.9355Z" fill="#091929"/>
<path d="M5.70015 103.851C5.74765 104.163 5.74765 104.443 5.81098 104.689C5.96931 105.33 5.92181 105.396 5.32015 105.412C5.16182 105.412 5.00348 105.396 4.86099 105.379C4.49682 104.328 4.60765 104.114 5.70015 103.851Z" fill="#091929"/>
<path d="M14.4397 97.1124C13.8063 96.8495 13.1888 96.603 12.4922 96.3071C13.3472 95.699 13.7272 95.8305 14.5188 96.8988C14.4872 96.981 14.4713 97.0467 14.4397 97.1124Z" fill="#091929"/>
<path d="M22.9105 95.6333C22.5781 96.4222 21.9606 96.5043 21.3431 96.5536C21.2322 96.5701 21.0897 96.2414 20.9314 96.0277C21.6914 95.8798 22.2931 95.7648 22.9105 95.6333Z" fill="#091929"/>
<path d="M16.4506 98.8382C16.4031 98.9204 16.2923 99.1012 16.1973 99.2655C15.6273 98.8382 15.1365 98.4766 14.5981 98.0822C14.9623 97.8357 15.184 97.885 15.4373 98.0987C15.7065 98.3452 16.0073 98.526 16.4506 98.8382Z" fill="#091929"/>
<path d="M0.981445 105.379C1.86811 104.754 2.5806 104.787 3.0081 105.379C2.32727 105.379 1.64644 105.379 0.981445 105.379Z" fill="#091929"/>
<path d="M38.8545 91.9355C39.0129 92.3628 39.1712 92.7573 39.3454 93.2503C38.807 93.4968 38.5695 92.8394 38.1104 92.7737C38.3954 92.4614 38.6329 92.1985 38.8545 91.9355Z" fill="#091929"/>
<path d="M0.506879 103.769C0.332713 103.555 0.221881 103.424 0.0952148 103.243C0.522712 102.931 0.918543 102.651 1.29854 102.355C1.40937 103.144 0.76021 103.243 0.506879 103.769Z" fill="#091929"/>
<path d="M16.7993 96.2581C16.2293 96.6525 15.9759 96.5867 15.4851 95.9951C16.0868 95.5514 16.1343 95.5678 16.7993 96.2581Z" fill="#091929"/>
<path d="M33.0121 94.8282C32.5846 95.0583 32.2996 95.4692 31.8879 95.0583C31.8088 94.9761 31.793 94.6474 31.8721 94.5817C32.2521 94.253 32.5846 94.4502 33.0121 94.8282Z" fill="#091929"/>
<path d="M44.2378 90.6538C44.2378 90.9332 44.2378 91.1962 44.2378 91.5577C43.9211 91.5084 43.6519 91.4756 43.3669 91.4262C43.3986 90.8017 43.7153 90.6538 44.2378 90.6538Z" fill="#091929"/>
<path d="M35.4982 91.5081C35.4824 91.6889 35.4507 91.8697 35.4349 92.034C35.419 92.1984 35.4032 92.3627 35.3874 92.5271C35.2132 92.4613 35.0232 92.3956 34.8649 92.3134C34.7857 92.2641 34.7382 92.1491 34.5957 91.9847C34.8649 91.7711 35.1024 91.5574 35.3557 91.3438C35.4032 91.3931 35.4507 91.4424 35.4982 91.5081Z" fill="#091929"/>
<path d="M47.9434 93.3983C47.7059 93.5462 47.4843 93.7105 47.2468 93.8585C46.9143 93.2339 46.9143 93.2339 47.8959 92.8066C47.9118 93.0203 47.9276 93.2175 47.9276 93.4147L47.9434 93.3983Z" fill="#091929"/>
<path d="M27.5183 94.8281C27.8033 94.5651 28.1041 94.3186 28.5 93.957C28.3416 94.976 28.3416 94.976 27.645 94.9924C27.6133 94.9431 27.5658 94.8774 27.5183 94.8281Z" fill="#091929"/>
<path d="M18.6833 94.6146C18.1925 94.8118 17.9391 94.6639 17.8441 94.3188C17.8125 94.2038 17.9866 93.9244 18.0816 93.9244C18.4933 93.8915 18.5091 94.2695 18.6833 94.6146Z" fill="#091929"/>
<path d="M38.0157 93.842C37.6832 93.8913 37.3666 93.957 36.9866 94.0227C37.2082 93.3818 37.3982 93.3325 37.9999 93.6448C37.9999 93.7105 38.0157 93.7762 38.0157 93.842Z" fill="#091929"/>
<path d="M23.6232 92.1821C23.8607 92.4287 24.0824 92.6587 24.3832 92.9546C23.5599 93.1025 23.5599 93.1025 23.4807 92.33C23.5282 92.2807 23.5757 92.2314 23.6232 92.1821Z" fill="#091929"/>
<path d="M16.292 95.321C16.5453 94.6965 16.6562 94.6636 17.1945 95.0581C16.8778 95.4361 16.8778 95.4361 16.292 95.321Z" fill="#091929"/>
<path d="M1.07666 104.82C0.633329 104.968 0.348331 105.067 0 105.182C0.189999 104.344 0.316664 104.295 1.07666 104.82Z" fill="#091929"/>
<path d="M42.7812 93.9736C43.1137 93.9736 43.4937 93.9736 43.9054 93.9736C43.9054 94.1215 43.9054 94.2037 43.8896 94.2695C43.8262 94.631 43.8896 95.1241 43.6679 95.3377C43.4621 95.5514 42.9871 95.4528 42.6387 95.5349C42.4804 95.5678 42.3696 95.765 42.2112 95.8143C42.0529 95.8801 41.8629 95.8636 41.5938 95.8801C41.8312 95.3706 41.7679 94.8118 42.4171 94.631C42.5912 94.6146 42.6546 94.2366 42.7812 93.9736Z" fill="white"/>
<path d="M20.6782 100.449C20.3298 100.909 19.9815 101.353 19.5698 101.879C19.3323 101.895 18.9998 101.928 18.6198 101.961C18.604 102.174 18.5882 102.372 18.5723 102.733C18.1765 102.207 17.8757 101.813 17.5273 101.369C17.8598 100.958 18.0023 101.484 18.319 101.599C18.7307 100.449 19.8232 100.745 20.6782 100.465V100.449Z" fill="white"/>
<path d="M27.1537 96.5701C27.0428 96.981 27.0428 97.474 26.8212 97.7863C26.6312 98.0492 26.172 98.115 25.7762 98.2958C25.5387 97.0467 26.6312 97.0632 26.9478 96.4551C27.0112 96.4879 27.0745 96.5372 27.1537 96.5701Z" fill="white"/>
<path d="M44.1743 97.211C43.9052 97.5397 43.6518 97.8191 43.4302 98.1313C43.256 98.3943 43.0502 98.6573 42.7494 98.4272C42.6544 98.345 42.7177 97.9341 42.7968 97.7205C43.0818 97.1288 43.3827 97.0302 44.1743 97.211Z" fill="white"/>
<path d="M10.9882 102.306C11.5265 102.52 12.0649 102.717 12.6032 102.931C12.4132 103.407 12.2865 103.736 12.144 104.065C12.0965 104.065 12.049 104.081 12.0015 104.081C11.9065 103.72 11.9065 103.292 11.7007 103.013C11.5265 102.766 11.1307 102.684 10.8457 102.536C10.8932 102.454 10.9407 102.372 10.9882 102.306Z" fill="white"/>
<path d="M18.1924 100.169C18.5091 100.136 18.7783 100.104 19.1424 100.071C18.7149 100.86 18.1291 100.613 17.4641 100.564C17.6699 100.186 17.8283 99.8735 18.0024 99.5776C18.0499 99.5941 18.0974 99.6105 18.1608 99.6269C18.1608 99.7749 18.1766 99.9392 18.1924 100.169Z" fill="white"/>
<path d="M48.006 99.1836C47.6419 100.055 47.6419 100.055 46.6919 99.8903C46.6919 99.6931 46.6919 99.4958 46.6919 99.2658C47.1352 99.2329 47.5311 99.2 48.006 99.1836Z" fill="white"/>
<path d="M45.093 100.958C45.0296 100.416 44.998 100.104 44.9663 99.7422C45.3621 99.66 45.758 99.4299 46.0588 99.8408C45.758 100.219 45.473 100.531 45.093 100.958Z" fill="white"/>
<path d="M25.1115 99.9559C24.5257 100.383 24.0507 100.745 23.4807 101.156C23.5124 100.334 24.2565 99.7752 25.1115 99.9559Z" fill="white"/>
<path d="M22.6097 101.566C23.0689 101.912 23.433 102.125 23.2747 102.602C23.243 102.7 22.8789 102.815 22.7522 102.733C22.2297 102.47 22.673 102.059 22.6097 101.566Z" fill="white"/>
<path d="M46.1538 93.9573C45.7263 94.9105 44.9821 95.2392 44.5229 94.6968C44.8396 94.6311 45.1563 94.6311 45.4254 94.4996C45.6788 94.3846 45.6471 93.8093 46.1538 93.9573Z" fill="white"/>
<path d="M49.6689 101.796C49.4789 102.717 48.8297 102.191 48.3389 102.437C48.6872 101.813 48.6872 101.813 49.6689 101.796Z" fill="white"/>
<path d="M20.6785 100.465C20.7418 100.383 20.7893 100.251 20.8685 100.219C21.0426 100.12 21.2801 99.972 21.4385 100.038C21.7551 100.153 21.6443 100.399 21.486 100.613C21.4068 100.712 21.391 100.86 21.3435 100.958C21.1218 100.794 20.9001 100.613 20.6785 100.449V100.465Z" fill="white"/>
<path d="M39.4243 101.336C39.2185 101.205 39.0285 101.09 38.7751 100.942C38.9651 100.679 39.0918 100.482 39.2502 100.268C39.7568 100.58 39.7568 100.909 39.4243 101.336Z" fill="white"/>
<path d="M37.604 99.1671C37.6515 98.8056 37.6832 98.4769 37.7307 98.1153C38.1582 98.0331 38.2057 98.3618 38.174 98.6905C38.1423 98.9699 38.0473 99.3151 37.604 99.1671Z" fill="white"/>
<path d="M26.1564 96.5867C25.7922 96.9976 25.523 97.1127 25.1272 96.784C25.3647 96.3074 25.6655 96.3073 26.1564 96.5867Z" fill="white"/>
<path d="M48.3545 48.8109C48.0695 48.7123 47.9112 48.6466 47.6104 48.5316C48.0378 48.3508 48.1487 48.1371 48.022 47.792C48.3862 48.0056 48.2595 48.3672 48.3545 48.8109Z" fill="white"/>
<path d="M48.1965 38.1615C47.9115 38.1615 47.7532 38.1615 47.5315 38.1615C47.6424 37.8986 47.9115 37.652 47.4365 37.4384C48.0224 37.4055 47.9907 37.8164 48.1965 38.1615Z" fill="white"/>
<path d="M65.6764 50.9638C65.2964 50.9803 64.9639 50.6516 64.9481 50.2571C64.9322 49.8627 65.2647 49.5176 65.6447 49.5176C66.0247 49.5176 66.3097 49.8134 66.3256 50.2078C66.3572 50.6187 66.0564 50.9474 65.6764 50.9638Z" fill="#091929"/>
<path d="M48.3069 41.514C48.3227 41.6784 48.3386 41.8591 48.3544 42.0563C48.2277 42.007 48.0852 41.9577 47.9427 41.9084C47.9744 41.3661 47.9269 41.2839 47.5627 41.2675C47.9111 40.9059 47.9427 40.9224 48.1644 41.2839C48.2277 41.3661 48.2594 41.4483 48.3069 41.514Z" fill="#091929"/>
<path d="M36.2799 105.59C36.5926 105.59 36.846 105.337 36.846 105.024C36.846 104.711 36.5926 104.458 36.2799 104.458C35.9673 104.458 35.7139 104.711 35.7139 105.024C35.7139 105.337 35.9673 105.59 36.2799 105.59Z" fill="#091929"/>
<path d="M35.7139 101.769C35.7139 102.099 35.9497 102.335 36.2799 102.335C36.6101 102.335 36.846 102.099 36.846 101.769C36.846 101.439 36.6101 101.203 36.2799 101.203C35.9497 101.203 35.7139 101.439 35.7139 101.769Z" fill="#091929"/>
<path d="M36.2799 99.0799C36.5926 99.0799 36.846 98.8265 36.846 98.5138C36.846 98.2012 36.5926 97.9478 36.2799 97.9478C35.9673 97.9478 35.7139 98.2012 35.7139 98.5138C35.7139 98.8265 35.9673 99.0799 36.2799 99.0799Z" fill="#091929"/>
<path d="M35.7139 95.3066C35.7139 95.6368 35.9497 95.8726 36.2799 95.8726C36.6101 95.8726 36.846 95.6368 36.846 95.3066C36.846 94.9764 36.6101 94.7405 36.2799 94.7405C35.9497 94.6933 35.7139 94.9764 35.7139 95.3066Z" fill="#091929"/>
<path d="M35.7139 92.0514C35.7139 92.3816 35.9497 92.6175 36.2799 92.6175C36.6101 92.6175 36.846 92.3816 36.846 92.0514C36.846 91.7212 36.6101 91.4854 36.2799 91.4854C35.9497 91.4854 35.7139 91.7212 35.7139 92.0514Z" fill="#091929"/>
<path d="M35.7139 88.7965C35.7139 89.1267 35.9497 89.3626 36.2799 89.3626C36.6101 89.3626 36.846 89.1267 36.846 88.7965C36.846 88.4663 36.6101 88.2305 36.2799 88.2305C35.9497 88.2305 35.7139 88.4663 35.7139 88.7965Z" fill="#091929"/>
<path d="M35.7139 85.5417C35.7139 85.8719 35.9497 86.1077 36.2799 86.1077C36.6101 86.1077 36.846 85.8719 36.846 85.5417C36.846 85.2114 36.6101 84.9756 36.2799 84.9756C35.9497 84.9756 35.7139 85.2586 35.7139 85.5417Z" fill="#091929"/>
<path d="M39.4879 105.59C39.8006 105.59 40.054 105.337 40.054 105.024C40.054 104.711 39.8006 104.458 39.4879 104.458C39.1753 104.458 38.9219 104.711 38.9219 105.024C38.9219 105.337 39.1753 105.59 39.4879 105.59Z" fill="#091929"/>
<path d="M38.9219 101.769C38.9219 102.099 39.1577 102.335 39.4879 102.335C39.8181 102.335 40.054 102.099 40.054 101.769C40.054 101.439 39.8181 101.203 39.4879 101.203C39.2049 101.203 38.9219 101.439 38.9219 101.769Z" fill="#091929"/>
<path d="M39.4879 99.0799C39.8006 99.0799 40.054 98.8265 40.054 98.5138C40.054 98.2012 39.8006 97.9478 39.4879 97.9478C39.1753 97.9478 38.9219 98.2012 38.9219 98.5138C38.9219 98.8265 39.1753 99.0799 39.4879 99.0799Z" fill="#091929"/>
<path d="M38.9219 95.3066C38.9219 95.6368 39.1577 95.8726 39.4879 95.8726C39.8181 95.8726 40.054 95.6368 40.054 95.3066C40.054 94.9764 39.8181 94.7405 39.4879 94.7405C39.2049 94.6933 38.9219 94.9764 38.9219 95.3066Z" fill="#091929"/>
<path d="M38.9219 92.0514C38.9219 92.3816 39.1577 92.6175 39.4879 92.6175C39.8181 92.6175 40.054 92.3816 40.054 92.0514C40.054 91.7212 39.8181 91.4854 39.4879 91.4854C39.2049 91.4854 38.9219 91.7212 38.9219 92.0514Z" fill="#091929"/>
<path d="M38.9219 88.7965C38.9219 89.1267 39.1577 89.3626 39.4879 89.3626C39.8181 89.3626 40.054 89.1267 40.054 88.7965C40.054 88.4663 39.8181 88.2305 39.4879 88.2305C39.2049 88.2305 38.9219 88.4663 38.9219 88.7965Z" fill="#091929"/>
<path d="M38.9219 85.5417C38.9219 85.8719 39.1577 86.1077 39.4879 86.1077C39.8181 86.1077 40.054 85.8719 40.054 85.5417C40.054 85.2114 39.8181 84.9756 39.4879 84.9756C39.2049 84.9756 38.9219 85.2586 38.9219 85.5417Z" fill="#091929"/>
<path d="M42.7426 105.59C43.0552 105.59 43.3087 105.337 43.3087 105.024C43.3087 104.711 43.0552 104.458 42.7426 104.458C42.43 104.458 42.1765 104.711 42.1765 105.024C42.1765 105.337 42.43 105.59 42.7426 105.59Z" fill="#091929"/>
<path d="M42.1765 101.769C42.1765 102.099 42.4124 102.335 42.7426 102.335C43.0728 102.335 43.3087 102.099 43.3087 101.769C43.3087 101.439 43.0728 101.203 42.7426 101.203C42.4124 101.203 42.1765 101.439 42.1765 101.769Z" fill="#091929"/>
<path d="M42.7426 99.0799C43.0552 99.0799 43.3087 98.8265 43.3087 98.5138C43.3087 98.2012 43.0552 97.9478 42.7426 97.9478C42.43 97.9478 42.1765 98.2012 42.1765 98.5138C42.1765 98.8265 42.43 99.0799 42.7426 99.0799Z" fill="#091929"/>
<path d="M42.1765 95.3066C42.1765 95.6368 42.4124 95.8726 42.7426 95.8726C43.0728 95.8726 43.3087 95.6368 43.3087 95.3066C43.3087 94.9764 43.0728 94.7405 42.7426 94.7405C42.4124 94.6933 42.1765 94.9764 42.1765 95.3066Z" fill="#091929"/>
<path d="M42.1765 92.0514C42.1765 92.3816 42.4124 92.6175 42.7426 92.6175C43.0728 92.6175 43.3087 92.3816 43.3087 92.0514C43.3087 91.7212 43.0728 91.4854 42.7426 91.4854C42.4124 91.4854 42.1765 91.7212 42.1765 92.0514Z" fill="#091929"/>
<path d="M42.1765 88.7965C42.1765 89.1267 42.4124 89.3626 42.7426 89.3626C43.0728 89.3626 43.3087 89.1267 43.3087 88.7965C43.3087 88.4663 43.0728 88.2305 42.7426 88.2305C42.4124 88.2305 42.1765 88.4663 42.1765 88.7965Z" fill="#091929"/>
<path d="M42.1765 85.5417C42.1765 85.8719 42.4124 86.1077 42.7426 86.1077C43.0728 86.1077 43.3087 85.8719 43.3087 85.5417C43.3087 85.2114 43.0728 84.9756 42.7426 84.9756C42.4124 84.9756 42.1765 85.2586 42.1765 85.5417Z" fill="#091929"/>
<path d="M45.9972 105.59C46.3099 105.59 46.5633 105.337 46.5633 105.024C46.5633 104.711 46.3099 104.458 45.9972 104.458C45.6846 104.458 45.4312 104.711 45.4312 105.024C45.4312 105.337 45.6846 105.59 45.9972 105.59Z" fill="#091929"/>
<path d="M45.3843 101.769C45.3843 102.099 45.6201 102.335 45.9503 102.335C46.2806 102.335 46.5164 102.099 46.5164 101.769C46.5164 101.439 46.2806 101.203 45.9503 101.203C45.6673 101.203 45.3843 101.439 45.3843 101.769Z" fill="#091929"/>
<path d="M45.9972 99.0799C46.3099 99.0799 46.5633 98.8265 46.5633 98.5138C46.5633 98.2012 46.3099 97.9478 45.9972 97.9478C45.6846 97.9478 45.4312 98.2012 45.4312 98.5138C45.4312 98.8265 45.6846 99.0799 45.9972 99.0799Z" fill="#091929"/>
<path d="M45.3843 95.3066C45.3843 95.6368 45.6201 95.8726 45.9503 95.8726C46.2806 95.8726 46.5164 95.6368 46.5164 95.3066C46.5164 94.9764 46.2806 94.7405 45.9503 94.7405C45.6673 94.6933 45.3843 94.9764 45.3843 95.3066Z" fill="#091929"/>
<path d="M45.3843 92.0514C45.3843 92.3816 45.6201 92.6175 45.9503 92.6175C46.2806 92.6175 46.5164 92.3816 46.5164 92.0514C46.5164 91.7212 46.2806 91.4854 45.9503 91.4854C45.6673 91.4854 45.3843 91.7212 45.3843 92.0514Z" fill="#091929"/>
<path d="M45.3843 88.7965C45.3843 89.1267 45.6201 89.3626 45.9503 89.3626C46.2806 89.3626 46.5164 89.1267 46.5164 88.7965C46.5164 88.4663 46.2806 88.2305 45.9503 88.2305C45.6673 88.2305 45.3843 88.4663 45.3843 88.7965Z" fill="#091929"/>
<path d="M45.3843 85.5417C45.3843 85.8719 45.6201 86.1077 45.9503 86.1077C46.2806 86.1077 46.5164 85.8719 46.5164 85.5417C46.5164 85.2114 46.2806 84.9756 45.9503 84.9756C45.6673 84.9756 45.3843 85.2586 45.3843 85.5417Z" fill="#091929"/>
<path d="M48.6392 105.024C48.6392 105.354 48.875 105.59 49.2052 105.59C49.5354 105.59 49.7713 105.354 49.7713 105.024C49.7713 104.694 49.5354 104.458 49.2052 104.458C48.9222 104.458 48.6392 104.694 48.6392 105.024Z" fill="#091929"/>
<path d="M48.6392 101.769C48.6392 102.099 48.875 102.335 49.2052 102.335C49.5354 102.335 49.7713 102.099 49.7713 101.769C49.7713 101.439 49.5354 101.203 49.2052 101.203C48.9222 101.203 48.6392 101.439 48.6392 101.769Z" fill="#091929"/>
<path d="M48.6392 98.5138C48.6392 98.844 48.875 99.0799 49.2052 99.0799C49.5354 99.0799 49.7713 98.844 49.7713 98.5138C49.7713 98.1836 49.5354 97.9478 49.2052 97.9478C48.9222 97.9478 48.6392 98.2308 48.6392 98.5138Z" fill="#091929"/>
<path d="M48.6392 95.3066C48.6392 95.6368 48.875 95.8726 49.2052 95.8726C49.5354 95.8726 49.7713 95.6368 49.7713 95.3066C49.7713 94.9764 49.5354 94.7405 49.2052 94.7405C48.9222 94.6933 48.6392 94.9764 48.6392 95.3066Z" fill="#091929"/>
<path d="M48.6392 92.0514C48.6392 92.3816 48.875 92.6175 49.2052 92.6175C49.5354 92.6175 49.7713 92.3816 49.7713 92.0514C49.7713 91.7212 49.5354 91.4854 49.2052 91.4854C48.9222 91.4854 48.6392 91.7212 48.6392 92.0514Z" fill="#091929"/>
<path d="M48.6392 88.7965C48.6392 89.1267 48.875 89.3626 49.2052 89.3626C49.5354 89.3626 49.7713 89.1267 49.7713 88.7965C49.7713 88.4663 49.5354 88.2305 49.2052 88.2305C48.9222 88.2305 48.6392 88.4663 48.6392 88.7965Z" fill="#091929"/>
<path d="M48.6392 85.5417C48.6392 85.8719 48.875 86.1077 49.2052 86.1077C49.5354 86.1077 49.7713 85.8719 49.7713 85.5417C49.7713 85.2114 49.5354 84.9756 49.2052 84.9756C48.9222 84.9756 48.6392 85.2586 48.6392 85.5417Z" fill="#091929"/>
<path d="M52.4599 105.59C52.7725 105.59 53.0259 105.337 53.0259 105.024C53.0259 104.711 52.7725 104.458 52.4599 104.458C52.1472 104.458 51.8938 104.711 51.8938 105.024C51.8938 105.337 52.1472 105.59 52.4599 105.59Z" fill="#091929"/>
<path d="M51.8938 101.769C51.8938 102.099 52.1297 102.335 52.4599 102.335C52.7901 102.335 53.0259 102.099 53.0259 101.769C53.0259 101.439 52.7901 101.203 52.4599 101.203C52.1297 101.203 51.8938 101.439 51.8938 101.769Z" fill="#091929"/>
<path d="M52.4599 99.0799C52.7725 99.0799 53.0259 98.8265 53.0259 98.5138C53.0259 98.2012 52.7725 97.9478 52.4599 97.9478C52.1472 97.9478 51.8938 98.2012 51.8938 98.5138C51.8938 98.8265 52.1472 99.0799 52.4599 99.0799Z" fill="#091929"/>
<path d="M51.8938 95.3066C51.8938 95.6368 52.1297 95.8726 52.4599 95.8726C52.7901 95.8726 53.0259 95.6368 53.0259 95.3066C53.0259 94.9764 52.7901 94.7405 52.4599 94.7405C52.1297 94.6933 51.8938 94.9764 51.8938 95.3066Z" fill="#091929"/>
<path d="M51.8938 92.0514C51.8938 92.3816 52.1297 92.6175 52.4599 92.6175C52.7901 92.6175 53.0259 92.3816 53.0259 92.0514C53.0259 91.7212 52.7901 91.4854 52.4599 91.4854C52.1297 91.4854 51.8938 91.7212 51.8938 92.0514Z" fill="#091929"/>
<path d="M51.8938 88.7965C51.8938 89.1267 52.1297 89.3626 52.4599 89.3626C52.7901 89.3626 53.0259 89.1267 53.0259 88.7965C53.0259 88.4663 52.7901 88.2305 52.4599 88.2305C52.1297 88.2305 51.8938 88.4663 51.8938 88.7965Z" fill="#091929"/>
<path d="M51.8938 85.5417C51.8938 85.8719 52.1297 86.1077 52.4599 86.1077C52.7901 86.1077 53.0259 85.8719 53.0259 85.5417C53.0259 85.2114 52.7901 84.9756 52.4599 84.9756C52.1297 84.9756 51.8938 85.2586 51.8938 85.5417Z" fill="#091929"/>
<path d="M55.7145 105.59C56.0271 105.59 56.2806 105.337 56.2806 105.024C56.2806 104.711 56.0271 104.458 55.7145 104.458C55.4019 104.458 55.1484 104.711 55.1484 105.024C55.1484 105.337 55.4019 105.59 55.7145 105.59Z" fill="#091929"/>
<path d="M55.1484 101.769C55.1484 102.099 55.3843 102.335 55.7145 102.335C56.0447 102.335 56.2806 102.099 56.2806 101.769C56.2806 101.439 56.0447 101.203 55.7145 101.203C55.3843 101.203 55.1484 101.439 55.1484 101.769Z" fill="#091929"/>
<path d="M55.7145 99.0799C56.0271 99.0799 56.2806 98.8265 56.2806 98.5138C56.2806 98.2012 56.0271 97.9478 55.7145 97.9478C55.4019 97.9478 55.1484 98.2012 55.1484 98.5138C55.1484 98.8265 55.4019 99.0799 55.7145 99.0799Z" fill="#091929"/>
<path d="M55.1484 95.3066C55.1484 95.6368 55.3843 95.8726 55.7145 95.8726C56.0447 95.8726 56.2806 95.6368 56.2806 95.3066C56.2806 94.9764 56.0447 94.7405 55.7145 94.7405C55.3843 94.6933 55.1484 94.9764 55.1484 95.3066Z" fill="#091929"/>
<path d="M55.1484 92.0514C55.1484 92.3816 55.3843 92.6175 55.7145 92.6175C56.0447 92.6175 56.2806 92.3816 56.2806 92.0514C56.2806 91.7212 56.0447 91.4854 55.7145 91.4854C55.3843 91.4854 55.1484 91.7212 55.1484 92.0514Z" fill="#091929"/>
<path d="M55.1484 88.7965C55.1484 89.1267 55.3843 89.3626 55.7145 89.3626C56.0447 89.3626 56.2806 89.1267 56.2806 88.7965C56.2806 88.4663 56.0447 88.2305 55.7145 88.2305C55.3843 88.2305 55.1484 88.4663 55.1484 88.7965Z" fill="#091929"/>
<path d="M55.1484 85.5417C55.1484 85.8719 55.3843 86.1077 55.7145 86.1077C56.0447 86.1077 56.2806 85.8719 56.2806 85.5417C56.2806 85.2114 56.0447 84.9756 55.7145 84.9756C55.3843 84.9756 55.1484 85.2586 55.1484 85.5417Z" fill="#091929"/>
<path d="M35.7139 82.2868C35.7139 82.617 35.9497 82.8528 36.2799 82.8528C36.6101 82.8528 36.846 82.617 36.846 82.2868C36.846 81.9566 36.6101 81.7207 36.2799 81.7207C35.9497 81.7207 35.7139 82.0037 35.7139 82.2868Z" fill="#091929"/>
<path d="M35.7139 79.0788C35.7139 79.409 35.9497 79.6448 36.2799 79.6448C36.6101 79.6448 36.846 79.409 36.846 79.0788C36.846 78.7486 36.6101 78.5127 36.2799 78.5127C35.9497 78.5127 35.7139 78.7486 35.7139 79.0788Z" fill="#091929"/>
<path d="M35.7139 75.8239C35.7139 76.1541 35.9497 76.39 36.2799 76.39C36.6101 76.39 36.846 76.1541 36.846 75.8239C36.846 75.4937 36.6101 75.2578 36.2799 75.2578C35.9497 75.2578 35.7139 75.4937 35.7139 75.8239Z" fill="#091929"/>
<path d="M36.2799 73.1351C36.5926 73.1351 36.846 72.8816 36.846 72.569C36.846 72.2564 36.5926 72.0029 36.2799 72.0029C35.9673 72.0029 35.7139 72.2564 35.7139 72.569C35.7139 72.8816 35.9673 73.1351 36.2799 73.1351Z" fill="#091929"/>
<path d="M35.7139 69.3141C35.7139 69.6443 35.9497 69.8802 36.2799 69.8802C36.6101 69.8802 36.846 69.6443 36.846 69.3141C36.846 68.9839 36.6101 68.748 36.2799 68.748C35.9497 68.748 35.7139 69.0311 35.7139 69.3141Z" fill="#091929"/>
<path d="M35.7139 66.1064C35.7139 66.4366 35.9497 66.6725 36.2799 66.6725C36.6101 66.6725 36.846 66.4366 36.846 66.1064C36.846 65.7762 36.6101 65.5403 36.2799 65.5403C35.9497 65.4931 35.7139 65.7762 35.7139 66.1064Z" fill="#091929"/>
<path d="M36.846 62.8517C36.846 62.5215 36.6101 62.2856 36.2799 62.2856C35.9497 62.2856 35.7139 62.5215 35.7139 62.8517C35.7139 63.1819 35.9497 63.4178 36.2799 63.4178C36.563 63.4178 36.846 63.1347 36.846 62.8517Z" fill="#091929"/>
<path d="M38.9219 82.2868C38.9219 82.617 39.1577 82.8528 39.4879 82.8528C39.8181 82.8528 40.054 82.617 40.054 82.2868C40.054 81.9566 39.8181 81.7207 39.4879 81.7207C39.2049 81.7207 38.9219 82.0037 38.9219 82.2868Z" fill="#091929"/>
<path d="M38.9219 79.0788C38.9219 79.409 39.1577 79.6448 39.4879 79.6448C39.8181 79.6448 40.054 79.409 40.054 79.0788C40.054 78.7486 39.8181 78.5127 39.4879 78.5127C39.2049 78.5127 38.9219 78.7486 38.9219 79.0788Z" fill="#091929"/>
<path d="M38.9219 75.8239C38.9219 76.1541 39.1577 76.39 39.4879 76.39C39.8181 76.39 40.054 76.1541 40.054 75.8239C40.054 75.4937 39.8181 75.2578 39.4879 75.2578C39.2049 75.2578 38.9219 75.4937 38.9219 75.8239Z" fill="#091929"/>
<path d="M39.4879 73.1351C39.8006 73.1351 40.054 72.8816 40.054 72.569C40.054 72.2564 39.8006 72.0029 39.4879 72.0029C39.1753 72.0029 38.9219 72.2564 38.9219 72.569C38.9219 72.8816 39.1753 73.1351 39.4879 73.1351Z" fill="#091929"/>
<path d="M38.9219 69.3141C38.9219 69.6443 39.1577 69.8802 39.4879 69.8802C39.8181 69.8802 40.054 69.6443 40.054 69.3141C40.054 68.9839 39.8181 68.748 39.4879 68.748C39.2049 68.748 38.9219 69.0311 38.9219 69.3141Z" fill="#091929"/>
<path d="M38.9219 66.1064C38.9219 66.4366 39.1577 66.6725 39.4879 66.6725C39.8181 66.6725 40.054 66.4366 40.054 66.1064C40.054 65.7762 39.8181 65.5403 39.4879 65.5403C39.2049 65.4931 38.9219 65.7762 38.9219 66.1064Z" fill="#091929"/>
<path d="M38.9219 62.8517C38.9219 63.1819 39.1577 63.4178 39.4879 63.4178C39.8181 63.4178 40.054 63.1819 40.054 62.8517C40.1012 62.5215 39.8181 62.2856 39.4879 62.2856C39.2049 62.2856 38.9219 62.5215 38.9219 62.8517Z" fill="#091929"/>
<path d="M42.1765 82.2868C42.1765 82.617 42.4124 82.8528 42.7426 82.8528C43.0728 82.8528 43.3087 82.617 43.3087 82.2868C43.3087 81.9566 43.0728 81.7207 42.7426 81.7207C42.4124 81.7207 42.1765 82.0037 42.1765 82.2868Z" fill="#091929"/>
<path d="M42.1765 79.0788C42.1765 79.409 42.4124 79.6448 42.7426 79.6448C43.0728 79.6448 43.3087 79.409 43.3087 79.0788C43.3087 78.7486 43.0728 78.5127 42.7426 78.5127C42.4124 78.5127 42.1765 78.7486 42.1765 79.0788Z" fill="#091929"/>
<path d="M42.1765 75.8239C42.1765 76.1541 42.4124 76.39 42.7426 76.39C43.0728 76.39 43.3087 76.1541 43.3087 75.8239C43.3087 75.4937 43.0728 75.2578 42.7426 75.2578C42.4124 75.2578 42.1765 75.4937 42.1765 75.8239Z" fill="#091929"/>
<path d="M42.7426 73.1351C43.0552 73.1351 43.3087 72.8816 43.3087 72.569C43.3087 72.2564 43.0552 72.0029 42.7426 72.0029C42.43 72.0029 42.1765 72.2564 42.1765 72.569C42.1765 72.8816 42.43 73.1351 42.7426 73.1351Z" fill="#091929"/>
<path d="M42.1765 69.3141C42.1765 69.6443 42.4124 69.8802 42.7426 69.8802C43.0728 69.8802 43.3087 69.6443 43.3087 69.3141C43.3087 68.9839 43.0728 68.748 42.7426 68.748C42.4124 68.748 42.1765 69.0311 42.1765 69.3141Z" fill="#091929"/>
<path d="M42.1765 66.1064C42.1765 66.4366 42.4124 66.6725 42.7426 66.6725C43.0728 66.6725 43.3087 66.4366 43.3087 66.1064C43.3087 65.7762 43.0728 65.5403 42.7426 65.5403C42.4124 65.4931 42.1765 65.7762 42.1765 66.1064Z" fill="#091929"/>
<path d="M42.1765 62.8517C42.1765 63.1819 42.4124 63.4178 42.7426 63.4178C43.0728 63.4178 43.3087 63.1819 43.3087 62.8517C43.3087 62.5215 43.0728 62.2856 42.7426 62.2856C42.4124 62.2856 42.1765 62.5215 42.1765 62.8517Z" fill="#091929"/>
<path d="M45.3843 82.2868C45.3843 82.617 45.6201 82.8528 45.9503 82.8528C46.2806 82.8528 46.5164 82.617 46.5164 82.2868C46.5164 81.9566 46.2806 81.7207 45.9503 81.7207C45.6673 81.7207 45.3843 82.0037 45.3843 82.2868Z" fill="#091929"/>
<path d="M45.3843 79.0788C45.3843 79.409 45.6201 79.6448 45.9503 79.6448C46.2806 79.6448 46.5164 79.409 46.5164 79.0788C46.5164 78.7486 46.2806 78.5127 45.9503 78.5127C45.6673 78.5127 45.3843 78.7486 45.3843 79.0788Z" fill="#091929"/>
<path d="M45.3843 75.8239C45.3843 76.1541 45.6201 76.39 45.9503 76.39C46.2806 76.39 46.5164 76.1541 46.5164 75.8239C46.5164 75.4937 46.2806 75.2578 45.9503 75.2578C45.6673 75.2578 45.3843 75.4937 45.3843 75.8239Z" fill="#091929"/>
<path d="M45.9972 73.1351C46.3099 73.1351 46.5633 72.8816 46.5633 72.569C46.5633 72.2564 46.3099 72.0029 45.9972 72.0029C45.6846 72.0029 45.4312 72.2564 45.4312 72.569C45.4312 72.8816 45.6846 73.1351 45.9972 73.1351Z" fill="#091929"/>
<path d="M45.3843 69.3141C45.3843 69.6443 45.6201 69.8802 45.9503 69.8802C46.2806 69.8802 46.5164 69.6443 46.5164 69.3141C46.5164 68.9839 46.2806 68.748 45.9503 68.748C45.6673 68.748 45.3843 69.0311 45.3843 69.3141Z" fill="#091929"/>
<path d="M45.3843 66.1064C45.3843 66.4366 45.6201 66.6725 45.9503 66.6725C46.2806 66.6725 46.5164 66.4366 46.5164 66.1064C46.5164 65.7762 46.2806 65.5403 45.9503 65.5403C45.6673 65.4931 45.3843 65.7762 45.3843 66.1064Z" fill="#091929"/>
<path d="M45.3843 62.8517C45.3843 63.1819 45.6201 63.4178 45.9503 63.4178C46.2806 63.4178 46.5164 63.1819 46.5164 62.8517C46.5164 62.5215 46.2806 62.2856 45.9503 62.2856C45.6673 62.2856 45.3843 62.5215 45.3843 62.8517Z" fill="#091929"/>
<path d="M48.6392 82.2868C48.6392 82.617 48.875 82.8528 49.2052 82.8528C49.5354 82.8528 49.7713 82.617 49.7713 82.2868C49.7713 81.9566 49.5354 81.7207 49.2052 81.7207C48.9222 81.7207 48.6392 82.0037 48.6392 82.2868Z" fill="#091929"/>
<path d="M48.6392 79.0788C48.6392 79.409 48.875 79.6448 49.2052 79.6448C49.5354 79.6448 49.7713 79.409 49.7713 79.0788C49.7713 78.7486 49.5354 78.5127 49.2052 78.5127C48.9222 78.5127 48.6392 78.7486 48.6392 79.0788Z" fill="#091929"/>
<path d="M48.6392 75.8239C48.6392 76.1541 48.875 76.39 49.2052 76.39C49.5354 76.39 49.7713 76.1541 49.7713 75.8239C49.7713 75.4937 49.5354 75.2578 49.2052 75.2578C48.9222 75.2578 48.6392 75.4937 48.6392 75.8239Z" fill="#091929"/>
<path d="M48.6392 72.569C48.6392 72.8992 48.875 73.1351 49.2052 73.1351C49.5354 73.1351 49.7713 72.8992 49.7713 72.569C49.7713 72.2388 49.5354 72.0029 49.2052 72.0029C48.9222 72.0029 48.6392 72.2388 48.6392 72.569Z" fill="#091929"/>
<path d="M48.6392 69.3141C48.6392 69.6443 48.875 69.8802 49.2052 69.8802C49.5354 69.8802 49.7713 69.6443 49.7713 69.3141C49.7713 68.9839 49.5354 68.748 49.2052 68.748C48.9222 68.748 48.6392 69.0311 48.6392 69.3141Z" fill="#091929"/>
<path d="M48.6392 66.1064C48.6392 66.4366 48.875 66.6725 49.2052 66.6725C49.5354 66.6725 49.7713 66.4366 49.7713 66.1064C49.7713 65.7762 49.5354 65.5403 49.2052 65.5403C48.9222 65.4931 48.6392 65.7762 48.6392 66.1064Z" fill="#091929"/>
<path d="M48.6392 62.8517C48.6392 63.1819 48.875 63.4178 49.2052 63.4178C49.5354 63.4178 49.7713 63.1819 49.7713 62.8517C49.7713 62.5215 49.5354 62.2856 49.2052 62.2856C48.9222 62.2856 48.6392 62.5215 48.6392 62.8517Z" fill="#091929"/>
<path d="M51.8938 82.2868C51.8938 82.617 52.1297 82.8528 52.4599 82.8528C52.7901 82.8528 53.0259 82.617 53.0259 82.2868C53.0259 81.9566 52.7901 81.7207 52.4599 81.7207C52.1297 81.7207 51.8938 82.0037 51.8938 82.2868Z" fill="#091929"/>
<path d="M51.8938 79.0788C51.8938 79.409 52.1297 79.6448 52.4599 79.6448C52.7901 79.6448 53.0259 79.409 53.0259 79.0788C53.0259 78.7486 52.7901 78.5127 52.4599 78.5127C52.1297 78.5127 51.8938 78.7486 51.8938 79.0788Z" fill="#091929"/>
<path d="M51.8938 75.8239C51.8938 76.1541 52.1297 76.39 52.4599 76.39C52.7901 76.39 53.0259 76.1541 53.0259 75.8239C53.0259 75.4937 52.7901 75.2578 52.4599 75.2578C52.1297 75.2578 51.8938 75.4937 51.8938 75.8239Z" fill="#091929"/>
<path d="M52.4599 73.1351C52.7725 73.1351 53.0259 72.8816 53.0259 72.569C53.0259 72.2564 52.7725 72.0029 52.4599 72.0029C52.1472 72.0029 51.8938 72.2564 51.8938 72.569C51.8938 72.8816 52.1472 73.1351 52.4599 73.1351Z" fill="#091929"/>
<path d="M51.8938 69.3141C51.8938 69.6443 52.1297 69.8802 52.4599 69.8802C52.7901 69.8802 53.0259 69.6443 53.0259 69.3141C53.0259 68.9839 52.7901 68.748 52.4599 68.748C52.1297 68.748 51.8938 69.0311 51.8938 69.3141Z" fill="#091929"/>
<path d="M51.8938 66.1064C51.8938 66.4366 52.1297 66.6725 52.4599 66.6725C52.7901 66.6725 53.0259 66.4366 53.0259 66.1064C53.0259 65.7762 52.7901 65.5403 52.4599 65.5403C52.1297 65.4931 51.8938 65.7762 51.8938 66.1064Z" fill="#091929"/>
<path d="M51.8938 62.8517C51.8938 63.1819 52.1297 63.4178 52.4599 63.4178C52.7901 63.4178 53.0259 63.1819 53.0259 62.8517C53.0259 62.5215 52.7901 62.2856 52.4599 62.2856C52.1297 62.2856 51.8938 62.5215 51.8938 62.8517Z" fill="#091929"/>
<path d="M55.1484 82.2868C55.1484 82.617 55.3843 82.8528 55.7145 82.8528C56.0447 82.8528 56.2806 82.617 56.2806 82.2868C56.2806 81.9566 56.0447 81.7207 55.7145 81.7207C55.3843 81.7207 55.1484 82.0037 55.1484 82.2868Z" fill="#091929"/>
<path d="M55.1484 79.0788C55.1484 79.409 55.3843 79.6448 55.7145 79.6448C56.0447 79.6448 56.2806 79.409 56.2806 79.0788C56.2806 78.7486 56.0447 78.5127 55.7145 78.5127C55.3843 78.5127 55.1484 78.7486 55.1484 79.0788Z" fill="#091929"/>
<path d="M55.1484 75.8239C55.1484 76.1541 55.3843 76.39 55.7145 76.39C56.0447 76.39 56.2806 76.1541 56.2806 75.8239C56.2806 75.4937 56.0447 75.2578 55.7145 75.2578C55.3843 75.2578 55.1484 75.4937 55.1484 75.8239Z" fill="#091929"/>
<path d="M55.7145 73.1351C56.0271 73.1351 56.2806 72.8816 56.2806 72.569C56.2806 72.2564 56.0271 72.0029 55.7145 72.0029C55.4019 72.0029 55.1484 72.2564 55.1484 72.569C55.1484 72.8816 55.4019 73.1351 55.7145 73.1351Z" fill="#091929"/>
<path d="M55.1484 69.3141C55.1484 69.6443 55.3843 69.8802 55.7145 69.8802C56.0447 69.8802 56.2806 69.6443 56.2806 69.3141C56.2806 68.9839 56.0447 68.748 55.7145 68.748C55.3843 68.748 55.1484 69.0311 55.1484 69.3141Z" fill="#091929"/>
<path d="M55.1484 66.1064C55.1484 66.4366 55.3843 66.6725 55.7145 66.6725C56.0447 66.6725 56.2806 66.4366 56.2806 66.1064C56.2806 65.7762 56.0447 65.5403 55.7145 65.5403C55.3843 65.4931 55.1484 65.7762 55.1484 66.1064Z" fill="#091929"/>
<path d="M55.1484 62.8517C55.1484 63.1819 55.3843 63.4178 55.7145 63.4178C56.0447 63.4178 56.2806 63.1819 56.2806 62.8517C56.2806 62.5215 56.0447 62.2856 55.7145 62.2856C55.3843 62.2856 55.1484 62.5215 55.1484 62.8517Z" fill="#091929"/>
<path d="M24.1718 71.4867C25.687 71.4867 26.9152 70.2585 26.9152 68.7434C26.9152 67.2282 25.687 66 24.1718 66C22.6567 66 21.4285 67.2282 21.4285 68.7434C21.4285 70.2585 22.6567 71.4867 24.1718 71.4867Z" fill="#091929"/>
<path d="M16.8405 32.9402C17.2656 32.6311 17.536 32.206 17.8452 31.781C17.9997 31.9356 17.7292 31.9742 17.8065 32.0901C17.3815 32.5538 17.0337 33.0561 16.4928 33.4038C16.3382 33.5198 16.1837 33.6357 16.0291 33.7516C15.9132 33.8675 15.8359 33.8289 15.72 33.7129C15.6041 33.7516 15.72 33.8675 15.6427 33.9448C15.5268 34.0221 15.3723 34.0607 15.2563 34.1766C15.1791 34.2539 14.9859 34.138 14.9472 34.2925C14.7927 34.2925 14.7154 34.4471 14.5995 34.5244C14.4836 34.6016 14.329 34.563 14.2131 34.6789C14.1358 34.7562 14.0972 34.6789 14.0199 34.6016C13.7881 34.8335 13.5176 34.988 13.2085 34.7948C13.1698 34.8721 13.1312 34.988 13.0926 35.0267C12.8994 35.104 12.6675 34.9494 12.5516 35.1426C12.4743 35.0653 12.397 34.988 12.397 34.8721C12.3198 34.9494 12.3584 35.0653 12.2425 35.0653C12.2039 35.0653 12.1266 35.0653 12.0879 35.104C11.8561 35.2585 11.8175 35.2585 11.5856 35.0653C11.5084 35.104 11.547 35.2199 11.547 35.2972C11.1606 35.2585 10.9288 35.529 10.7356 35.8381C10.6583 35.7995 10.6969 35.7222 10.6583 35.6835C10.4265 35.6835 10.3105 35.4517 10.156 35.3358C10.0787 35.4131 10.156 35.4903 10.1173 35.5676C10.0787 35.6063 10.0014 35.6063 9.96279 35.6449C9.80823 35.7222 9.69232 35.6835 9.65368 35.5676C9.61504 35.4517 9.49912 35.3358 9.42184 35.2585C9.26729 35.104 9.15137 34.9108 9.19001 34.6403C9.03545 34.6016 8.91954 34.4857 8.84226 34.3698V34.0993L9.11273 33.8675C8.8809 33.2879 8.64906 32.7856 8.37859 32.2447C8.1854 31.8583 8.03084 31.5105 7.83764 31.1241C7.56717 30.6218 7.2967 30.1195 6.98758 29.6558C6.87167 29.5013 6.83303 29.2695 6.87167 29.0763C7.1035 28.8058 7.41261 28.6512 7.799 28.8831C7.91492 28.9603 7.95356 28.7285 8.03084 28.8444C8.10812 28.9217 8.1854 28.8831 8.26267 28.8831C8.33995 28.8831 8.45587 28.9217 8.53315 28.8058C8.57178 28.7672 8.6877 28.7671 8.72634 28.7671C9.03545 28.8058 9.34457 28.7285 9.65368 28.6512C9.92415 28.574 10.2333 28.6126 10.4651 28.4194C10.5424 28.3808 10.581 28.458 10.6583 28.4967C10.7356 28.4194 10.8128 28.3421 10.9288 28.3035C11.547 28.0716 12.1266 27.8785 12.7062 27.608C13.0153 27.4534 13.2857 27.2989 13.5949 27.1443C13.904 26.9898 14.1744 26.7966 14.4449 26.642C14.9086 26.4102 15.2563 26.0238 15.6814 25.7533C15.9905 25.5601 16.2223 25.2124 16.5701 25.0192C16.7246 24.9419 16.8792 24.826 17.111 24.8646C17.1497 25.1737 17.4201 25.1351 17.6133 25.1351C17.652 25.1737 17.6906 25.251 17.7292 25.251C18.077 25.4056 18.2702 25.7147 18.4634 25.9851C18.502 26.0238 18.5407 26.0238 18.502 26.1011C18.4634 26.3715 18.6179 26.642 18.5793 26.9511C18.5407 27.5693 18.5793 28.1489 18.5793 28.7671C18.5793 29.2695 18.4634 29.8104 18.3088 30.2741C18.1156 30.9309 17.7679 31.5105 17.3428 32.0515C17.1497 32.2833 16.9565 32.5151 16.7633 32.7083C16.8019 32.8242 16.8019 32.8629 16.8405 32.9402ZM13.0153 29.3467C12.8221 29.4627 12.5902 29.5399 12.397 29.6172C12.2811 29.6558 12.1652 29.6172 12.0493 29.6558C11.8947 29.7331 11.7015 29.6945 11.6243 29.7718C11.5084 29.9263 11.3538 29.8877 11.1992 29.9263C11.122 29.9263 11.0833 29.9263 11.006 29.965C10.7742 30.0809 10.6969 30.3127 10.6583 30.5445C10.6197 30.6605 10.6969 30.7764 10.6197 30.8923C10.5424 31.0082 10.7356 31.1241 10.6583 31.2401C10.4651 31.5878 10.6969 31.9742 10.4651 32.3219C10.6969 32.4765 10.3878 32.747 10.5424 32.9402C10.581 33.0174 10.3878 33.0947 10.4651 33.2106C10.581 33.4038 10.5424 33.6357 10.581 33.8675C10.7742 33.8289 11.006 33.7516 11.1992 33.7129C11.2765 33.6743 11.3538 33.597 11.4697 33.597C11.547 33.597 11.6243 33.597 11.7015 33.5198C11.8175 33.6743 11.8561 33.5198 11.9334 33.4811C12.0107 33.4425 12.0879 33.4038 12.2039 33.3652C12.5902 33.172 12.9766 33.0174 13.3244 32.8242C13.8267 32.5151 14.329 32.2447 14.7154 31.8196C14.9086 31.5878 15.1404 31.3946 15.3723 31.1628C15.6427 30.8923 15.8359 30.5832 16.0291 30.2354C16.4928 29.5013 16.5701 28.6512 16.7246 27.8398C16.7246 27.7625 16.7633 27.6853 16.6473 27.6466C16.6087 27.6466 16.6087 27.6466 16.5701 27.6466C16.1064 27.9557 15.6814 28.2648 15.1791 28.5353C14.7927 28.7285 14.3676 28.8444 14.0199 29.1149C13.8653 29.0376 13.8653 28.999 13.7881 29.0763C13.7881 29.0763 13.7881 29.1149 13.7881 29.1535C13.5949 29.1535 13.4403 29.3854 13.2471 29.2308C13.1698 29.1922 13.0926 29.1922 13.0153 29.2308C12.938 29.2695 13.0539 29.2695 13.0153 29.3467Z" fill="#091929"/>
<path d="M89.707 20.3376C90.248 19.9442 90.5922 19.4032 90.9857 18.8622C91.1824 19.0589 90.8381 19.1081 90.9365 19.2557C90.3955 19.8458 89.9529 20.4852 89.2643 20.9278C89.0676 21.0753 88.8709 21.2229 88.6742 21.3704C88.5266 21.518 88.4283 21.4688 88.2807 21.3212C88.1332 21.3704 88.2807 21.518 88.1824 21.6163C88.0348 21.7147 87.8381 21.7639 87.6906 21.9114C87.5922 22.0098 87.3463 21.8622 87.2971 22.0589C87.1004 22.0589 87.0021 22.2557 86.8545 22.354C86.707 22.4524 86.5103 22.4032 86.3627 22.5508C86.2643 22.6491 86.2152 22.5508 86.1168 22.4524C85.8217 22.7475 85.4775 22.9442 85.084 22.6983C85.0348 22.7967 84.9857 22.9442 84.9365 22.9934C84.6906 23.0917 84.3955 22.895 84.248 23.1409C84.1496 23.0426 84.0512 22.9442 84.0512 22.7967C83.9529 22.895 84.0021 23.0426 83.8545 23.0426C83.8053 23.0426 83.707 23.0426 83.6578 23.0917C83.3627 23.2885 83.3135 23.2885 83.0184 23.0426C82.9201 23.0917 82.9693 23.2393 82.9693 23.3376C82.4775 23.2885 82.1824 23.6327 81.9365 24.0262C81.8381 23.977 81.8873 23.8786 81.8381 23.8294C81.543 23.8294 81.3955 23.5344 81.1988 23.3868C81.1004 23.4852 81.1988 23.5835 81.1496 23.6819C81.1004 23.7311 81.0021 23.7311 80.9529 23.7803C80.7561 23.8786 80.6086 23.8294 80.5594 23.6819C80.5102 23.5344 80.3627 23.3868 80.2643 23.2885C80.0676 23.0917 79.9201 22.8458 79.9693 22.5016C79.7725 22.4524 79.625 22.3049 79.5266 22.1573V21.7639L79.8709 21.4688C79.5758 20.7311 79.2807 20.0917 78.9365 19.4032C78.6906 18.9114 78.4939 18.4688 78.248 17.977C77.9037 17.3376 77.5594 16.6983 77.166 16.1081C77.0184 15.9114 76.9693 15.6163 77.0184 15.3704C77.3135 15.0262 77.707 14.8294 78.1988 15.1245C78.3463 15.2229 78.3955 14.9278 78.4939 15.0753C78.5922 15.1737 78.6906 15.1245 78.7889 15.1245C78.8873 15.1245 79.0348 15.1737 79.1332 15.0262C79.1824 14.977 79.3299 14.977 79.3791 14.977C79.7725 15.0262 80.166 14.9278 80.5594 14.8294C80.9037 14.7311 81.2971 14.7803 81.5922 14.5344C81.6906 14.4852 81.7398 14.5835 81.8381 14.6327C81.9365 14.5344 82.0348 14.436 82.1824 14.3868C82.9693 14.0917 83.707 13.8458 84.4447 13.5016C84.8381 13.3049 85.1824 13.1081 85.5758 12.9114C85.9693 12.7147 86.3135 12.4688 86.6578 12.2721C87.248 11.977 87.6906 11.4852 88.2316 11.1409C88.625 10.895 88.9201 10.4524 89.3627 10.2065C89.5594 10.1081 89.7562 9.96059 90.0512 10.0098C90.1004 10.4032 90.4447 10.354 90.6906 10.354C90.7398 10.4032 90.7889 10.5016 90.8381 10.5016C91.2808 10.6983 91.5266 11.0917 91.7726 11.436C91.8217 11.4852 91.8709 11.4852 91.8217 11.5835C91.7726 11.9278 91.9693 12.2721 91.9201 12.6655C91.8709 13.4524 91.9201 14.1901 91.9201 14.977C91.9201 15.6163 91.7726 16.3049 91.5758 16.895C91.3299 17.7311 90.8873 18.4688 90.3463 19.1573C90.1004 19.4524 89.8545 19.7475 89.6086 19.9934C89.6578 20.1901 89.6578 20.2393 89.707 20.3376ZM84.8381 15.7639C84.5922 15.9114 84.2971 16.0098 84.0512 16.1081C83.9037 16.1573 83.7561 16.1081 83.6086 16.1573C83.4119 16.2557 83.166 16.2065 83.0676 16.3049C82.9201 16.5016 82.7234 16.4524 82.5266 16.5016C82.4283 16.5016 82.3791 16.5016 82.2807 16.5508C81.9857 16.6983 81.8873 16.9934 81.8381 17.2885C81.7889 17.436 81.8873 17.5835 81.7889 17.7311C81.6906 17.8786 81.9365 18.0262 81.8381 18.1737C81.5922 18.6163 81.8873 19.1081 81.5922 19.5508C81.8873 19.7475 81.4939 20.0917 81.6906 20.3376C81.7398 20.436 81.4939 20.5344 81.5922 20.6819C81.7398 20.9278 81.6906 21.2229 81.7398 21.518C81.9857 21.4688 82.2807 21.3704 82.5266 21.3212C82.625 21.2721 82.7234 21.1737 82.8709 21.1737C82.9693 21.1737 83.0676 21.1737 83.166 21.0753C83.3135 21.2721 83.3627 21.0753 83.4611 21.0262C83.5594 20.977 83.6578 20.9278 83.8053 20.8786C84.2971 20.6327 84.7889 20.436 85.2316 20.1901C85.8709 19.7967 86.5103 19.4524 87.0021 18.9114C87.248 18.6163 87.543 18.3704 87.8381 18.0753C88.1824 17.7311 88.4283 17.3376 88.6742 16.895C89.2644 15.9606 89.3627 14.8786 89.5594 13.8458C89.5594 13.7475 89.6086 13.6491 89.4611 13.5999C89.4119 13.5999 89.4119 13.5999 89.3627 13.5999C88.7726 13.9934 88.2316 14.3868 87.5922 14.7311C87.1004 14.977 86.5594 15.1245 86.1168 15.4688C85.9201 15.3704 85.9201 15.3212 85.8217 15.4196C85.8217 15.4196 85.8217 15.4688 85.8217 15.518C85.5758 15.518 85.3791 15.813 85.1332 15.6163C85.0348 15.5671 84.9365 15.5671 84.8381 15.6163C84.7398 15.6163 84.8873 15.6655 84.8381 15.7639Z" fill="#091929"/>
</g>
<defs>
<clipPath id="clip0">
<rect width="120" height="105.429" fill="white"/>
</clipPath>
</defs>
</svg>
