<svg id="ejzbsp8lar4n1" xmlns="http://www.w3.org/2000/svg" xmlns:xlink="http://www.w3.org/1999/xlink" viewBox="0 0 92 33" shape-rendering="geometricPrecision" text-rendering="geometricPrecision"><style><![CDATA[#ejzbsp8lar4n4_to {animation: ejzbsp8lar4n4_to__to 3000ms linear infinite normal forwards}@keyframes ejzbsp8lar4n4_to__to { 0% {transform: translate(13.496931px,19.995090px)} 10% {transform: translate(13.496931px,23.995090px)} 50% {transform: translate(13.496931px,19.995090px)} 100% {transform: translate(13.496931px,19.995090px)} }#ejzbsp8lar4n5_to {animation: ejzbsp8lar4n5_to__to 3000ms linear infinite normal forwards}@keyframes ejzbsp8lar4n5_to__to { 0% {transform: translate(13.418595px,19.597300px)} 10% {transform: translate(13.418595px,23.597300px)} 50% {transform: translate(13.418595px,19.597300px)} 100% {transform: translate(13.418595px,19.597300px)} }#ejzbsp8lar4n6_to {animation: ejzbsp8lar4n6_to__to 3000ms linear infinite normal forwards}@keyframes ejzbsp8lar4n6_to__to { 0% {transform: translate(12.496931px,17.987776px)} 10% {transform: translate(12.496931px,21.987776px)} 50% {transform: translate(12.496931px,17.987776px)} 100% {transform: translate(12.496931px,17.987776px)} }#ejzbsp8lar4n7_to {animation: ejzbsp8lar4n7_to__to 3000ms linear infinite normal forwards}@keyframes ejzbsp8lar4n7_to__to { 0% {transform: translate(12.418595px,17.590000px)} 10% {transform: translate(12.418595px,21.590000px)} 50% {transform: translate(12.418595px,17.590000px)} 100% {transform: translate(12.418595px,17.590000px)} }#ejzbsp8lar4n9_to {animation: ejzbsp8lar4n9_to__to 3000ms linear infinite normal forwards}@keyframes ejzbsp8lar4n9_to__to { 0% {transform: translate(42.533683px,19.967169px)} 33.333333% {transform: translate(42.533683px,19.967169px)} 50% {transform: translate(42.533683px,23.967169px)} 73.333333% {transform: translate(42.533683px,19.967169px)} 100% {transform: translate(42.533683px,19.967169px)} }#ejzbsp8lar4n10_to {animation: ejzbsp8lar4n10_to__to 3000ms linear infinite normal forwards}@keyframes ejzbsp8lar4n10_to__to { 0% {transform: translate(41.518200px,19.597300px)} 33.333333% {transform: translate(41.518200px,19.597300px)} 50% {transform: translate(41.518200px,23.597300px)} 73.333333% {transform: translate(41.518200px,19.597300px)} 100% {transform: translate(41.518200px,19.597300px)} }#ejzbsp8lar4n11_to {animation: ejzbsp8lar4n11_to__to 3000ms linear infinite normal forwards}@keyframes ejzbsp8lar4n11_to__to { 0% {transform: translate(41.533683px,17.959842px)} 33.333333% {transform: translate(41.533683px,17.959842px)} 50% {transform: translate(41.533683px,21.959842px)} 73.333333% {transform: translate(41.533683px,17.959842px)} 100% {transform: translate(41.533683px,17.959842px)} }#ejzbsp8lar4n12_to {animation: ejzbsp8lar4n12_to__to 3000ms linear infinite normal forwards}@keyframes ejzbsp8lar4n12_to__to { 0% {transform: translate(40.518200px,17.590000px)} 33.333333% {transform: translate(40.518200px,17.590000px)} 50% {transform: translate(40.518200px,21.590000px)} 73.333333% {transform: translate(40.518200px,17.590000px)} 100% {transform: translate(40.518200px,17.590000px)} }#ejzbsp8lar4n14_to {animation: ejzbsp8lar4n14_to__to 3000ms linear infinite normal forwards}@keyframes ejzbsp8lar4n14_to__to { 0% {transform: translate(72.651937px,20.001647px)} 63.333333% {transform: translate(72.651937px,20.001647px)} 76.666667% {transform: translate(72.651937px,25.001647px)} 100% {transform: translate(72.651937px,20.001647px)} }#ejzbsp8lar4n15_to {animation: ejzbsp8lar4n15_to__to 3000ms linear infinite normal forwards}@keyframes ejzbsp8lar4n15_to__to { 0% {transform: translate(71.307301px,19.631500px)} 63.333333% {transform: translate(71.307301px,19.631500px)} 76.666667% {transform: translate(71.307301px,24.631500px)} 100% {transform: translate(71.307301px,19.631500px)} }#ejzbsp8lar4n16_to {animation: ejzbsp8lar4n16_to__to 3000ms linear infinite normal forwards}@keyframes ejzbsp8lar4n16_to__to { 0% {transform: translate(71.651937px,17.994306px)} 63.333333% {transform: translate(71.651937px,17.994306px)} 76.666667% {transform: translate(71.651937px,22.994306px)} 100% {transform: translate(71.651937px,17.994306px)} }#ejzbsp8lar4n17_to {animation: ejzbsp8lar4n17_to__to 3000ms linear infinite normal forwards}@keyframes ejzbsp8lar4n17_to__to { 0% {transform: translate(70.307299px,17.624100px)} 63.333333% {transform: translate(70.307299px,17.624100px)} 76.666667% {transform: translate(70.307299px,22.624100px)} 100% {transform: translate(70.307299px,17.624100px)} }]]></style><g id="ejzbsp8lar4n2"><g id="ejzbsp8lar4n3"><g id="ejzbsp8lar4n4_to" transform="translate(13.496931,19.995090)"><path id="ejzbsp8lar4n4" d="M25.413800,32.150700C24.734600,32.475800,23.662300,32.367400,23.054600,32.331300C20.838500,32.222900,18.550800,32.331300,16.334600,32.331300C13.868200,32.331300,11.366100,32.331300,8.899730,32.331300C7.791650,32.331300,6.683560,32.367400,5.611220,32.331300C4.503140,32.295200,2.787390,32.403600,1.786540,31.970000C0.749947,31.500400,1.107390,30.488800,1.143140,29.441100C1.214630,27.273500,1.357610,25.069800,1.286120,22.902100C1.214630,19.759100,1.107390,16.688300,1.107390,13.581300C1.107390,12.642000,1.107390,11.702700,1.107390,10.763400C1.107390,10.004700,0.714203,8.198370,1.429100,7.692590C1.679310,7.511950,2.644420,7.692590,2.930370,7.692590C4.360160,7.692590,5.754200,7.692590,7.183990,7.692590C10.579700,7.692590,13.939700,7.692590,17.335500,7.692590C19.087000,7.692590,20.874200,7.692590,22.625700,7.692590C25.020600,7.692590,25.485300,8.631890,25.485300,10.907900C25.485300,12.822600,25.485300,14.701300,25.485300,16.616000C25.485300,20.301000,25.485300,23.985900,25.485300,27.634800C25.485300,28.465700,25.413800,29.296600,25.592500,30.127600C25.664000,30.525000,26.057200,31.066900,25.985700,31.464300C25.949900,31.789400,25.699700,32.006200,25.413800,32.150700Z" transform="translate(-13.496931,-19.995090)" fill="rgb(198,204,34)" stroke="none" stroke-width="1"/></g><g id="ejzbsp8lar4n5_to" transform="translate(13.418595,19.597300)"><path id="ejzbsp8lar4n5" d="M9.076090,14.227300L11.431100,14.227300L15.751100,21.427300L15.871100,21.427300L15.751100,19.357300L15.751100,14.227300L17.761100,14.227300L17.761100,24.967300L15.631100,24.967300L11.071100,17.362300L10.951100,17.362300L11.071100,19.432300L11.071100,24.967300L9.076090,24.967300L9.076090,14.227300Z" transform="translate(-13.418595,-19.597300)" fill="rgb(2,10,19)" stroke="none" stroke-width="1"/></g><g id="ejzbsp8lar4n6_to" transform="translate(12.496931,17.987776)"><path id="ejzbsp8lar4n6" d="M24.413800,30.143400C23.734600,30.468500,22.662300,30.360100,22.054600,30.324000C19.838500,30.215600,17.550800,30.324000,15.334600,30.324000C12.868200,30.324000,10.366100,30.324000,7.899730,30.324000C6.791650,30.324000,5.683560,30.360100,4.611220,30.324000C3.503140,30.287900,1.787390,30.396200,0.786543,29.962700C-0.250053,29.493100,0.107394,28.481500,0.143139,27.433800C0.214628,25.266200,0.357607,23.062400,0.286118,20.894800C0.214628,17.751700,0.107394,14.680900,0.107394,11.574000C0.107394,10.634700,0.107394,9.695380,0.107394,8.756070C0.107394,7.997400,-0.285797,6.191040,0.429096,5.685260C0.679309,5.504630,1.644420,5.685260,1.930370,5.685260C3.360160,5.685260,4.754200,5.685260,6.183990,5.685260C9.579730,5.685260,12.939700,5.685260,16.335500,5.685260C18.087000,5.685260,19.874200,5.685260,21.625700,5.685260C24.020600,5.685260,24.485300,6.624570,24.485300,8.900580C24.485300,10.815300,24.485300,12.693900,24.485300,14.608700C24.485300,18.293600,24.485300,21.978600,24.485300,25.627500C24.485300,26.458400,24.413800,27.289300,24.592500,28.120200C24.664000,28.517600,25.057200,29.059500,24.985700,29.456900C24.949900,29.782100,24.699700,29.998800,24.413800,30.143400Z" transform="translate(-12.496931,-17.987776)" fill="rgb(234,241,34)" stroke="none" stroke-width="1"/></g><g id="ejzbsp8lar4n7_to" transform="translate(12.418595,17.590000)"><path id="ejzbsp8lar4n7" d="M8.076090,12.220000L10.431100,12.220000L14.751100,19.420000L14.871100,19.420000L14.751100,17.350000L14.751100,12.220000L16.761100,12.220000L16.761100,22.960000L14.631100,22.960000L10.071100,15.355000L9.951090,15.355000L10.071100,17.425000L10.071100,22.960000L8.076090,22.960000L8.076090,12.220000Z" transform="translate(-12.418595,-17.590000)" fill="rgb(2,10,19)" stroke="none" stroke-width="1"/></g></g></g><g id="ejzbsp8lar4n8"><g id="ejzbsp8lar4n9_to" transform="translate(42.533683,19.967169)"><path id="ejzbsp8lar4n9" d="M54.295300,31.681100C53.258700,32.403600,51.614400,32.331400,50.434900,32.331400C47.289300,32.331400,44.108100,32.331400,40.962500,32.331400C38.889300,32.331400,36.780400,32.331400,34.707200,32.331400C33.027200,32.331400,30.346400,33.234600,30.310600,30.814000C30.274900,28.863200,30.310600,26.948400,30.310600,24.997600C30.310600,21.095800,30.310600,17.230200,30.310600,13.328500C30.310600,11.955700,29.452700,8.451320,31.097000,7.656520C32.062100,7.186870,34.171000,7.620390,35.243400,7.620390C39.282500,7.620390,43.321700,7.620390,47.360800,7.620390C49.076600,7.620390,50.756600,7.620390,52.472300,7.584270C55.868100,7.512010,54.831500,12.353100,54.831500,14.629100C54.831500,18.350200,54.760000,22.071300,54.724200,25.792400C54.724200,27.201300,54.724200,28.610300,54.903000,29.983100C55.010200,30.741800,55.010200,31.175300,54.331000,31.645000C54.331000,31.645000,54.331000,31.681100,54.295300,31.681100Z" transform="translate(-42.533683,-19.967169)" fill="rgb(198,204,34)" stroke="none" stroke-width="1"/></g><g id="ejzbsp8lar4n10_to" transform="translate(41.518200,19.597300)"><path id="ejzbsp8lar4n10" d="M40.138200,16.147300L40.138200,18.637300L44.443200,18.637300L44.443200,20.557300L40.138200,20.557300L40.138200,23.047300L44.923200,23.047300L44.923200,24.967300L38.113200,24.967300L38.113200,14.227300L44.923200,14.227300L44.923200,16.147300L40.138200,16.147300Z" transform="translate(-41.518200,-19.597300)" fill="rgb(2,10,19)" stroke="none" stroke-width="1"/></g><g id="ejzbsp8lar4n11_to" transform="translate(41.533683,17.959842)"><path id="ejzbsp8lar4n11" d="M53.295300,29.673800C52.258700,30.396300,50.614400,30.324100,49.434900,30.324100C46.289300,30.324100,43.108100,30.324100,39.962500,30.324100C37.889300,30.324100,35.780400,30.324100,33.707200,30.324100C32.027200,30.324100,29.346400,31.227200,29.310600,28.806700C29.274900,26.855800,29.310600,24.941100,29.310600,22.990200C29.310600,19.088500,29.310600,15.222900,29.310600,11.321200C29.310600,9.948330,28.452700,6.443990,30.097000,5.649200C31.062100,5.179540,33.171000,5.613070,34.243400,5.613070C38.282500,5.613070,42.321700,5.613070,46.360800,5.613070C48.076600,5.613070,49.756600,5.613070,51.472300,5.576940C54.868100,5.504690,53.831500,10.345700,53.831500,12.621700C53.831500,16.342800,53.760000,20.063900,53.724200,23.785000C53.724200,25.194000,53.724200,26.603000,53.903000,27.975800C54.010200,28.734500,54.010200,29.168000,53.331000,29.637600C53.331000,29.637600,53.331000,29.673800,53.295300,29.673800Z" transform="translate(-41.533683,-17.959842)" fill="rgb(234,241,34)" stroke="none" stroke-width="1"/></g><g id="ejzbsp8lar4n12_to" transform="translate(40.518200,17.590000)"><path id="ejzbsp8lar4n12" d="M39.138200,14.140000L39.138200,16.630000L43.443200,16.630000L43.443200,18.550000L39.138200,18.550000L39.138200,21.040000L43.923200,21.040000L43.923200,22.960000L37.113200,22.960000L37.113200,12.220000L43.923200,12.220000L43.923200,14.140000L39.138200,14.140000Z" transform="translate(-40.518200,-17.590000)" fill="rgb(2,10,19)" stroke="none" stroke-width="1"/></g></g><g id="ejzbsp8lar4n13"><g id="ejzbsp8lar4n14_to" transform="translate(72.651937,20.001647)"><path id="ejzbsp8lar4n14" d="M84.463800,31.862100C84.142100,32.115000,83.641700,32.295600,82.855300,32.331800C80.138700,32.440100,77.386300,32.331800,74.634000,32.331800C72.203400,32.331800,69.772700,32.331800,67.342100,32.331800C65.554800,32.331800,62.087600,32.801400,60.800800,31.356300C60.014400,30.489300,60.407600,28.791300,60.407600,27.671400C60.407600,24.456000,60.407600,21.204600,60.407600,17.989300C60.407600,15.857800,60.407600,13.762400,60.407600,11.630900C60.407600,9.463270,59.621200,7.656910,62.480800,7.656910C64.554000,7.656910,66.841700,7.729160,68.914800,8.054310C69.701200,8.162690,70.451900,8.162690,71.238200,8.162690C73.061200,8.162690,74.848500,7.873670,76.671400,7.873670C78.494400,7.873670,80.245900,7.801420,82.033100,7.620780C84.785500,7.367890,84.821200,9.318760,84.821200,11.522500C84.821200,13.581800,84.821200,15.641000,84.821200,17.700300C84.821200,21.132300,84.785500,24.528300,84.821200,27.960400C84.821200,29.513800,85.393100,31.103400,84.463800,31.862100Z" transform="translate(-72.651937,-20.001647)" fill="rgb(198,204,34)" stroke="none" stroke-width="1"/></g><g id="ejzbsp8lar4n15_to" transform="translate(71.307301,19.631500)"><path id="ejzbsp8lar4n15" d="M64.392300,14.261500L66.537300,14.261500L68.202300,20.531500L68.442300,21.686500L68.562300,21.686500L68.877300,20.531500L70.422300,15.701500L72.312300,15.701500L73.872300,20.531500L74.172300,21.671500L74.292300,21.671500L74.517300,20.531500L76.077300,14.261500L78.222300,14.261500L75.372300,25.001500L73.422300,25.001500L71.742300,19.826500L71.427300,18.641500L71.307300,18.641500L70.992300,19.826500L69.312300,25.001500L67.362300,25.001500L64.392300,14.261500Z" transform="translate(-71.307301,-19.631500)" fill="rgb(2,10,19)" stroke="none" stroke-width="1"/></g><g id="ejzbsp8lar4n16_to" transform="translate(71.651937,17.994306)"><path id="ejzbsp8lar4n16" d="M83.463800,29.854800C83.142100,30.107700,82.641700,30.288300,81.855300,30.324400C79.138700,30.432800,76.386300,30.324400,73.634000,30.324400C71.203400,30.324400,68.772700,30.324400,66.342100,30.324400C64.554800,30.324400,61.087600,30.794100,59.800800,29.349000C59.014400,28.482000,59.407600,26.784000,59.407600,25.664000C59.407600,22.448700,59.407600,19.197300,59.407600,15.982000C59.407600,13.850500,59.407600,11.755100,59.407600,9.623570C59.407600,7.455940,58.621200,5.649580,61.480800,5.649580C63.554000,5.649580,65.841700,5.721840,67.914800,6.046980C68.701200,6.155360,69.451900,6.155360,70.238200,6.155360C72.061200,6.155360,73.848500,5.866350,75.671400,5.866350C77.494400,5.866350,79.245900,5.794090,81.033100,5.613460C83.785500,5.360570,83.821200,7.311430,83.821200,9.515190C83.821200,11.574400,83.821200,13.633700,83.821200,15.692900C83.821200,19.125000,83.785500,22.521000,83.821200,25.953100C83.821200,27.506500,84.393100,29.096100,83.463800,29.854800Z" transform="translate(-71.651937,-17.994306)" fill="rgb(234,241,34)" stroke="none" stroke-width="1"/></g><g id="ejzbsp8lar4n17_to" transform="translate(70.307299,17.624100)"><path id="ejzbsp8lar4n17" d="M63.392300,12.254100L65.537300,12.254100L67.202300,18.524100L67.442300,19.679100L67.562300,19.679100L67.877300,18.524100L69.422300,13.694100L71.312300,13.694100L72.872300,18.524100L73.172300,19.664100L73.292300,19.664100L73.517300,18.524100L75.077300,12.254100L77.222300,12.254100L74.372300,22.994100L72.422300,22.994100L70.742300,17.819100L70.427300,16.634100L70.307300,16.634100L69.992300,17.819100L68.312300,22.994100L66.362300,22.994100L63.392300,12.254100Z" transform="translate(-70.307299,-17.624100)" fill="rgb(2,10,19)" stroke="none" stroke-width="1"/></g></g><path id="ejzbsp8lar4n18" d="M82.125000,3.351070C82.770900,2.411630,83.432000,1.497860,84.125000,0.601074" fill="none" stroke="rgb(0,0,0)" stroke-width="1" stroke-linecap="round" stroke-linejoin="round"/><path id="ejzbsp8lar4n19" d="M84.375000,3.976070C85.305300,3.378990,86.178800,2.407140,87.250000,2.101070" fill="none" stroke="rgb(0,0,0)" stroke-width="1" stroke-linecap="round" stroke-linejoin="round"/><path id="ejzbsp8lar4n20" d="M85.875000,6.476070C87.550500,6.165160,89.166100,5.851070,90.875000,5.851070" fill="none" stroke="rgb(0,0,0)" stroke-width="1" stroke-linecap="round" stroke-linejoin="round"/></svg>