<svg width="41" height="37" viewBox="0 0 41 37" fill="none" xmlns="http://www.w3.org/2000/svg">
<g clip-path="url(#clip0)">
<path d="M7.66623e-05 31.4945C0.318523 26.8796 3.66221 23.3982 7.48357 23.6411C9.87192 23.803 12.8972 27.8512 12.6583 30.6849C12.4195 34.4092 9.15542 37.2429 5.25445 36.919C2.2292 36.7571 -0.159147 34.2473 7.66623e-05 31.4945ZM2.62726 31.0087C2.54765 32.628 4.53794 34.4901 6.36901 34.4901C8.12047 34.4901 9.55348 32.7899 9.63309 30.6039C9.7127 28.4179 8.12046 26.5558 6.13017 26.4748C4.13988 26.3939 2.70687 28.256 2.62726 31.0087Z" fill="black"/>
<path d="M36.7806 0C39.567 0 41 1.37637 41 3.96718C41 6.23414 39.4078 7.85339 37.2583 7.77243C35.0291 7.77243 33.1185 5.82932 33.0389 3.72429C32.9592 1.45733 34.4719 0 36.7806 0Z" fill="black"/>
<path d="M2.62723 31.0088C2.70684 28.256 4.13985 26.4749 6.13014 26.4749C8.12043 26.5558 9.71267 28.418 9.63305 30.604C9.55344 32.79 8.12043 34.4902 6.36898 34.4902C4.61752 34.4902 2.62723 32.628 2.62723 31.0088Z" fill="white"/>
</g>
<defs>
<clipPath id="clip0">
<rect width="41" height="37" fill="white"/>
</clipPath>
</defs>
</svg>
