<svg width="117" height="128" viewBox="0 0 117 128" fill="none" xmlns="http://www.w3.org/2000/svg">
<g clip-path="url(#clip0)">
<path d="M61.7827 48.1517C59.0691 46.5554 56.2314 46.1643 53.3251 46.8092C47.7676 48.0421 43.58 51.1614 41.1556 56.3724C40.0154 58.7726 39.8744 61.5272 40.7634 64.0314C41.514 66.2118 43.1069 67.6337 45.251 68.4233C47.3833 69.2085 49.5786 69.2911 51.6651 68.4148C53.4534 67.6639 55.118 66.6089 56.4092 65.105C57.4413 63.9028 58.4671 62.6846 59.3824 61.3934C59.9341 60.6153 60.2984 59.6967 60.6961 58.8184C61.6304 56.7549 62.5351 54.6773 63.5981 52.5547C63.7054 53.0878 63.8696 53.6168 63.9097 54.155C64.0391 55.8923 63.6259 57.5503 63.0181 59.155C61.5534 63.0217 59.1666 66.3329 56.678 69.5822C54.5131 72.4086 52.3717 75.2524 50.736 78.4348C47.5314 84.668 46.7954 91.163 48.5897 97.9544C49.6887 102.114 51.7852 105.815 53.7552 109.582C54.4967 111 55.1174 112.481 55.7961 113.932C55.859 114.036 55.9291 114.137 56.0059 114.232L56.1363 113.771L56.9527 114.125C57.0709 113.84 57.2878 113.554 57.2844 113.27C57.2717 112.84 57.1797 112.415 57.0129 112.017C56.5727 110.94 56.0717 109.888 55.6138 108.817C55.0907 107.595 54.5955 106.36 54.0713 105.138C53.944 104.841 53.7156 104.587 53.5959 104.288C53.0231 102.857 52.4067 101.44 51.9331 99.9771C51.508 98.6632 51.3102 97.2765 50.8967 95.958C50.5815 94.9533 50.468 93.9396 50.3992 92.9082C50.2334 90.4261 50.2323 87.9796 50.8835 85.5234C51.7966 82.0788 53.3245 78.9219 55.1483 75.9171C56.2353 74.1264 57.7084 72.5738 58.9486 70.871C60.2295 69.1124 61.4524 67.3112 62.6721 65.5092C63.2867 64.6012 63.9344 63.6952 64.3936 62.7074C64.9796 61.4471 65.4275 60.1175 65.8627 58.7939C66.145 57.9355 66.4065 57.0443 66.4873 56.1506C66.6747 54.0766 66.0873 52.2028 64.6528 50.6608C64.2153 50.1907 64.0629 49.7719 64.2228 49.1243C65.3908 44.3569 65.829 39.4399 65.5223 34.541C65.3484 31.6061 65.1828 28.6568 64.7423 25.7551C64.1741 22.0129 63.0669 18.4001 61.1697 15.082C60.8553 14.5427 60.475 14.0446 60.0377 13.5992C59.8586 13.4146 59.4798 13.4236 59.1918 13.3445C59.162 13.6101 59.041 13.909 59.1229 14.1341C59.2627 14.5178 59.5256 14.8581 59.7451 15.2113C59.8932 15.4497 60.0992 15.6611 60.2054 15.9154C61.3371 18.6512 62.1389 21.5122 62.5937 24.4377C63.8084 32.062 63.7334 39.6625 62.0225 47.2176C61.959 47.4961 61.8804 47.7703 61.7827 48.1517ZM48.6131 94.7279L50.2636 101.174C49.7076 99.5547 49.2187 97.9104 48.7832 96.2521C48.6559 95.7664 48.6792 95.24 48.6315 94.7317C48.1512 93.8474 48.3201 92.9017 48.4189 91.963L48.6131 94.7279ZM50.533 66.5535C50.2984 66.6751 50.0719 66.8165 49.8279 66.9151C45.897 68.5042 43.3388 65.9359 42.6827 62.7991C42.4687 61.7763 42.5641 60.772 42.7208 59.7777C42.8603 58.8916 43.0516 57.9829 43.4106 57.1684C44.3071 55.1348 45.752 53.4913 47.4754 52.1185C49.8731 50.2084 52.4877 48.7185 55.6138 48.3827C57.4437 48.1858 59.2026 48.3801 60.826 49.3604C61.2932 49.6425 61.3585 49.946 61.2171 50.4238C60.1763 53.9326 58.8871 57.3315 56.8538 60.4053C55.1941 62.913 53.2393 65.1224 50.533 66.5535ZM60.9367 53.2666C60.3697 55.1006 59.9523 57.0022 58.6405 58.4983C59.406 56.7545 60.1714 55.0106 60.9367 53.2666ZM51.0182 103.157L51.098 103.139L52.9722 106.758C52.9478 106.768 52.9234 106.779 52.8991 106.789L51.0182 103.157Z" fill="black"/>
</g>
<defs>
<clipPath id="clip0">
<rect width="103.11" height="77.3325" fill="white" transform="matrix(0.459879 0.887981 0.887981 -0.459879 0.046875 35.7268)"/>
</clipPath>
</defs>
</svg>
