<svg width="31" height="44" viewBox="0 0 31 44" fill="none" xmlns="http://www.w3.org/2000/svg">
<g clip-path="url(#clip0)">
<path d="M18.4518 38.1593C17.5512 38.9033 18.2451 40.1228 18.141 41.2854C18.0784 41.7748 18.0157 42.2643 17.9531 42.7538C17.7713 42.7757 17.6335 42.8033 17.4518 42.8253C17.1851 42.1127 16.8687 41.4391 16.7341 40.7434C16.1702 37.4602 15.788 34.155 15.1744 30.9106C14.9109 29.4749 14.3775 28.0498 13.8384 26.6692C12.9944 24.526 10.646 23.9992 8.85111 24.0408C8.53729 24.0458 8.22762 24.368 7.84131 24.5899C7.26651 23.8379 6.48974 23.9646 5.65187 24.2191C5.00146 24.4072 4.35105 24.5953 3.6851 24.5553C3.32727 24.5547 3.02641 24.1091 2.69706 23.8861C2.95132 23.6473 3.13464 23.2637 3.41583 23.164C4.77207 22.7045 6.16093 22.3396 7.55548 21.9302C12.3512 20.4637 14.6945 15.7889 14.401 11.093C14.2358 8.53919 13.9826 5.97411 13.8671 3.38145C13.8361 2.92521 14.2452 2.52532 14.4782 2.10289C14.6967 2.49268 15.0147 2.80474 15.0955 3.22212C15.6412 5.59852 15.9498 8.08024 16.7328 10.3513C18.032 14.181 21.7185 17.1856 26.1984 17.4878C26.4625 17.5216 26.7437 17.4219 26.9524 17.5391C27.4138 17.7791 27.8197 18.1024 28.2314 18.3812C27.9104 18.7924 27.6659 19.3038 27.2739 19.5702C25.7499 20.6414 24.04 21.4175 22.6749 22.6447C19.1934 25.7266 17.7776 29.7966 17.8185 34.3697C17.8382 34.9149 17.8081 35.499 17.8718 36.0499C18.0121 36.701 18.2462 37.3189 18.4518 38.1593ZM10.0971 22.346C11.9442 22.9443 13.8965 23.4204 14.813 25.3467C15.5763 27.0726 16.1961 28.8706 16.7948 30.4849C17.1733 28.2268 17.9097 25.9693 19.4482 24.0859C20.9811 22.247 22.7112 20.6142 24.1601 19.0811C22.776 18.3612 21.0723 17.6908 19.7336 16.6149C18.351 15.5334 17.2895 14.0407 16.0617 12.7981C14.8612 17.9811 14.6396 18.3145 10.0971 22.346Z" fill="#020A13"/>
</g>
<defs>
<clipPath id="clip0">
<rect width="24.673" height="39.9702" fill="white" transform="translate(5.63086 0.970215) rotate(7.2956)"/>
</clipPath>
</defs>
</svg>
