<svg width="81" height="82" viewBox="0 0 81 82" fill="none" xmlns="http://www.w3.org/2000/svg">
<g clip-path="url(#clip0_406:4511)">
<path d="M68.2923 62.1049C68.5492 62.4036 68.848 62.6688 69.1699 62.9063C70.105 63.5861 71.3282 63.7305 72.4785 63.5625C73.4765 63.4089 74.4159 62.8866 75.2175 62.1135C75.6637 61.6871 76.0783 61.1554 76.3654 60.5471C76.7196 59.8143 76.8439 58.9416 76.7143 58.0931C76.485 56.5644 75.5344 55.1375 74.1434 54.2605C73.7459 54.0145 73.2535 53.9744 72.7976 53.986C72.3321 54.0005 71.9059 54.0763 71.4777 54.0065C70.4672 53.8402 69.5402 54.4735 68.8095 54.9957C68.0175 55.5573 67.4085 56.3457 67.1981 57.2443C67.0785 57.75 66.9656 58.2432 67.0271 58.726C67.1451 59.5363 67.4039 60.1895 67.5411 60.7852C67.7184 61.3062 67.9723 61.6999 68.2329 62.0809C68.2454 62.0877 68.2607 62.1039 68.2923 62.1049L70.0677 60.6111C70.0457 60.5029 69.9585 60.456 69.9106 60.366C69.8531 60.2788 69.7506 60.2157 69.7314 60.117C69.7065 59.9992 69.7419 59.8737 69.6882 59.7645C69.5857 59.5969 69.509 59.4112 69.3547 59.1756C69.2311 58.9725 69.231 58.7637 69.2377 58.5425C69.2395 58.2704 69.3975 58.0663 69.5095 57.8135C69.6157 57.5414 69.7526 57.1975 70.0294 57.0413C70.4191 56.8094 70.8567 56.3543 71.4056 56.4087C71.645 56.4412 71.9256 56.263 72.1613 56.422C72.4248 56.6039 72.8203 56.4955 73.0398 56.7742C73.2774 57.0787 73.6366 57.2319 73.7775 57.5968C73.8916 57.9071 74.1694 58.1369 74.0632 58.5133C74.024 58.6608 74.1351 58.7528 74.1246 58.8916C74.05 59.3735 74.1843 59.8552 73.875 60.2509C73.6778 60.4981 73.4441 60.6934 73.1808 60.8248C73.017 60.9053 72.9174 61.0605 72.7086 61.0606C72.4969 61.051 72.4041 61.1938 72.2393 61.2014C71.9414 61.2179 71.6781 61.3492 71.3993 61.2554C71.1493 61.153 70.8859 61.1799 70.6684 61.0468C70.4538 60.9233 70.2297 60.8026 70.0649 60.6016L68.2923 62.1049Z" fill="black"/>
<path fill-rule="evenodd" clip-rule="evenodd" d="M23.8813 24.6386L24.4556 24.5655L24.2287 24.6843L23.8781 24.873C23.8121 24.9137 23.7438 24.9551 23.6754 24.9964L23.6751 24.9967L23.6748 24.9968C23.6064 25.0382 23.538 25.0796 23.4721 25.1203C22.9492 25.4652 22.5259 25.8638 22.1889 26.2365C21.2491 27.3271 20.8849 28.1112 20.5386 28.8567L20.5385 28.8567L20.4905 28.9601C20.2134 29.6409 19.9614 30.3293 19.7519 31.3649C19.7264 31.3366 19.7003 31.3087 19.6735 31.2812C18.907 30.4673 17.9509 29.8565 16.949 29.5101C15.7098 29.0801 14.4638 28.9558 13.2546 28.9836C13.3513 28.9048 13.4326 28.8079 13.4971 28.6881C13.5238 28.6382 13.5727 28.5922 13.6148 28.5587C13.7909 28.423 13.9471 28.2711 14.1031 28.1194C14.3604 27.869 14.6172 27.6192 14.9613 27.4444C15.1413 27.3485 15.3653 27.156 15.348 26.8897C15.3221 26.5947 15.4916 26.4289 15.6927 26.2642C15.7066 26.2535 15.7214 26.244 15.7359 26.2346C15.7923 26.1981 15.8463 26.1631 15.844 26.0725C15.8431 26.0211 15.8401 25.9697 15.8372 25.9186C15.8213 25.6393 15.8061 25.373 16.1292 25.2142C16.1742 25.1903 16.1894 25.1022 16.1655 25.0572C16.1361 24.9825 16.1484 24.923 16.1608 24.8637C16.1669 24.8339 16.173 24.8042 16.174 24.7726C16.1791 24.6893 16.1907 24.6066 16.2024 24.5243C16.2352 24.2919 16.2678 24.0615 16.1489 23.8196C16.1038 23.7392 16.1459 23.7057 16.2139 23.6539C16.5156 23.4067 16.7119 23.0867 16.6916 22.7065C16.676 22.3985 16.7314 22.1067 16.8073 21.819C17.4639 22.4209 18.1854 22.9534 18.9606 23.4121C19.7816 23.886 20.6812 24.2736 21.6457 24.4956C22.1295 24.6113 22.6276 24.6706 23.1305 24.6762C23.2902 24.683 23.4573 24.6697 23.6232 24.6564C23.71 24.6495 23.7965 24.6426 23.8813 24.6386ZM17.211 18.6843C17.2416 18.7209 17.2719 18.7574 17.3022 18.7938L17.3023 18.7939L17.3076 18.8008C17.6102 19.1868 17.8804 19.5316 18.2653 19.9143C19.1017 20.7176 19.6679 21.1428 20.2321 21.5267L20.2561 21.542C20.8171 21.8994 21.4102 22.2773 22.3971 22.5471C22.7238 22.6265 23.0982 22.6916 23.4747 22.6933L23.7563 22.6923L24.1365 22.6721C24.3923 22.6578 24.6575 22.6405 24.9228 22.6232L24.9258 22.6231C25.9813 22.5567 27.0425 22.5094 27.8941 22.4939C28.7001 22.4831 28.611 22.7694 28.4893 23.1614C28.4586 23.2599 28.4259 23.3651 28.4049 23.4738C28.4193 23.5835 28.4389 23.6972 28.4754 23.8057C28.6499 24.3171 28.3492 24.5327 28.0954 24.6612C27.1627 25.171 26.2576 25.7037 25.3584 26.2557L24.8039 26.5998C24.745 26.6476 24.6836 26.6926 24.6219 26.7379C24.534 26.8023 24.4455 26.8671 24.3634 26.9409C24.0838 27.1919 23.8349 27.4754 23.6136 27.782C23.1646 28.4077 22.8362 29.1223 22.5798 29.8676C22.0822 31.3743 21.8623 33.0065 21.834 34.5812C21.8226 34.8561 21.7949 35.1463 21.7356 35.4356C21.7285 35.4704 21.7215 35.5053 21.7146 35.5404C21.6101 36.0666 21.502 36.6112 20.5646 36.7165L20.5271 36.7207C20.511 36.7274 20.4946 36.7341 20.4777 36.7406C19.7749 37.0053 19.7139 36.8181 19.5931 36.4477C19.5495 36.3139 19.498 36.1561 19.4057 35.9871C18.9678 35.1893 18.7387 34.6004 18.5527 34.0507L18.4434 33.6867C18.432 33.6484 18.4291 33.6387 18.384 33.5584C18.2898 33.3736 18.1545 33.2014 18.0139 33.0223L18.0138 33.0223L17.9806 32.98C17.2543 32.1956 16.669 31.8807 16.0473 31.6184C15.4189 31.3686 14.7454 31.1428 13.552 31.0626C12.7312 31.0063 11.7714 31.044 10.6201 31.1391C9.5043 31.2133 8.3827 31.2682 7.48042 31.2885C6.9032 31.2997 6.76051 31.1699 6.7693 30.9618C6.72572 30.9394 6.68212 30.9134 6.63868 30.8834C6.26987 30.6287 6.21425 30.374 6.46127 30.1536C6.54148 30.0897 6.63912 30.0417 6.73836 29.9929C6.7955 29.9648 6.85325 29.9363 6.90854 29.9044C6.97716 29.8774 7.03908 29.8377 7.09808 29.7929C7.15281 29.7192 7.22035 29.6673 7.29449 29.6304C7.35831 29.5783 7.42389 29.5307 7.4965 29.4981C7.71035 29.4011 7.89915 29.262 8.08837 29.1226C8.20005 29.0403 8.31199 28.9579 8.42928 28.8839C8.5081 28.8334 8.58522 28.7776 8.66246 28.7219C8.76543 28.6475 8.86839 28.5731 8.97512 28.5112C9.08295 28.4527 9.20215 28.4143 9.32248 28.3755C9.44255 28.3369 9.56373 28.2978 9.67619 28.238C9.90297 28.11 10.1375 28.0077 10.3771 27.9033C10.4299 27.8802 10.483 27.8571 10.5361 27.8335C10.6636 27.7773 10.7816 27.716 10.9046 27.6521C10.924 27.6421 10.9436 27.632 10.9633 27.6218C11.0668 27.5489 11.1606 27.479 11.2611 27.3966C11.3146 27.3463 11.363 27.2896 11.4119 27.2324C11.5414 27.0809 11.6736 26.9263 11.9094 26.8782C11.9812 26.8566 11.9992 26.7777 12.0161 26.7032C12.0173 26.6983 12.0184 26.6934 12.0195 26.6885C12.0453 26.5659 12.1047 26.4854 12.2101 26.4538C12.3825 26.402 12.4313 26.2516 12.4485 26.1003C12.4742 25.8733 12.5461 25.6951 12.7423 25.584C12.8981 25.5025 12.9251 25.3448 12.9514 25.1914C12.9648 25.1136 12.9779 25.0369 13.0075 24.9718C13.0535 24.8641 13.1073 24.7565 13.1611 24.649C13.215 24.5415 13.2689 24.4339 13.3148 24.3262C13.3837 24.1384 13.4152 23.9305 13.4305 23.738C13.4334 23.7105 13.4331 23.6836 13.4328 23.6576C13.4317 23.5613 13.4306 23.4792 13.5914 23.4391C13.6996 23.4171 13.7436 23.3203 13.7206 23.2437C13.6891 23.1032 13.7287 22.9798 13.7681 22.8569C13.8056 22.7402 13.8429 22.6238 13.819 22.4937C13.7792 22.2681 13.8437 22.0626 13.9087 21.8552C13.9409 21.7526 13.9732 21.6496 13.9931 21.5435C13.9949 21.5294 13.9969 21.5152 13.9989 21.5009C14.0108 21.4166 14.0229 21.33 13.9959 21.2398C13.9941 21.2338 13.9922 21.2276 13.9903 21.2216C13.9514 21.093 13.911 20.9602 14.0801 20.8596C14.106 20.8414 14.1223 20.826 14.1231 20.7944C14.0999 20.5591 14.14 20.3313 14.18 20.1047C14.2192 19.8821 14.2582 19.6606 14.2368 19.4343C14.2173 19.2875 14.2281 19.141 14.239 18.9928C14.2511 18.8266 14.2635 18.6582 14.2336 18.4851C14.1655 18.1192 14.1644 17.6288 14.2026 17.1997L14.2016 17.1269C14.2474 16.6537 14.5405 16.4822 15.2302 16.4839C15.6889 16.4819 16.0711 16.6072 16.4371 16.7479C16.5933 16.8159 16.7072 16.9174 16.7255 17.0476C16.7347 17.109 16.7543 17.1691 16.774 17.2293C16.8215 17.375 16.8694 17.5218 16.7726 17.6913C16.6721 17.8781 16.7324 18.0792 16.9777 18.2353C17.1844 18.3633 17.2534 18.5276 17.211 18.6843Z" fill="black"/>
</g>
<defs>
<clipPath id="clip0_406:4511">
<rect width="66" height="64" fill="white" transform="translate(61.541 0.392578) rotate(73.3064)"/>
</clipPath>
</defs>
</svg>
