<svg width="25" height="25" viewBox="0 0 25 25" fill="none" xmlns="http://www.w3.org/2000/svg">
<path d="M10.5 17L16.5 12.5L10.5 8V17ZM22.5 12.5C22.5 6.96 18.04 2.5 12.5 2.5C11.33 2.5 10.2 2.69 9.12 3.06L9.82 5C10.67 4.66 11.56 4.47 12.5 4.47C16.91 4.47 20.53 8.09 20.53 12.5C20.53 16.91 16.91 20.53 12.5 20.53C8.09 20.53 4.47 16.91 4.47 12.5C4.47 11.56 4.66 10.62 5 9.78L3.06 9.12C2.69 10.2 2.5 11.33 2.5 12.5C2.5 18.04 6.96 22.5 12.5 22.5C18.04 22.5 22.5 18.04 22.5 12.5ZM5.97 4.47C6.82 4.47 7.5 5.18 7.5 5.97C7.5 6.82 6.82 7.5 5.97 7.5C5.18 7.5 4.47 6.82 4.47 5.97C4.47 5.18 5.18 4.47 5.97 4.47Z" fill="#020A13"/>
</svg>
