<svg width="6" height="11" viewBox="0 0 6 11" fill="none" xmlns="http://www.w3.org/2000/svg">
<path d="M0.903929 0.54248C1.07536 0.54248 1.2125 0.593909 1.31536 0.696766L5.50679 4.86248C5.62679 4.99962 5.68679 5.14534 5.68679 5.29962C5.68679 5.45391 5.62679 5.59105 5.50679 5.71105L1.31536 9.87677C1.19536 9.99677 1.05821 10.0568 0.903929 10.0568C0.749643 10.0568 0.6125 9.99677 0.4925 9.87677C0.3725 9.75677 0.3125 9.61962 0.3125 9.46534C0.3125 9.31105 0.3725 9.17391 0.4925 9.05391L4.24679 5.29962L0.4925 1.54534C0.3725 1.42534 0.3125 1.27962 0.3125 1.10819C0.3125 0.936766 0.368214 0.799623 0.479643 0.696766C0.591071 0.593909 0.7325 0.54248 0.903929 0.54248Z" fill="#576E87"/>
</svg>
