<svg width="19" height="19" viewBox="0 0 19 19" fill="none" xmlns="http://www.w3.org/2000/svg">
<path d="M8.49023 13.6743C9.82147 13.674 11.1143 13.2284 12.163 12.4083L15.46 15.7053L16.5205 14.6448L13.2235 11.3478C14.044 10.2991 14.4899 9.00589 14.4902 7.67432C14.4902 4.36607 11.7985 1.67432 8.49023 1.67432C5.18198 1.67432 2.49023 4.36607 2.49023 7.67432C2.49023 10.9826 5.18198 13.6743 8.49023 13.6743ZM8.49023 3.17432C10.972 3.17432 12.9902 5.19257 12.9902 7.67432C12.9902 10.1561 10.972 12.1743 8.49023 12.1743C6.00848 12.1743 3.99023 10.1561 3.99023 7.67432C3.99023 5.19257 6.00848 3.17432 8.49023 3.17432Z" fill="#091929"/>
</svg>
