<svg width="133" height="134" viewBox="0 0 133 134" fill="none" xmlns="http://www.w3.org/2000/svg">
<path d="M86.3476 42.2257C85.9862 43.3014 85.3557 44.2667 84.5159 45.0298C83.6761 45.7929 82.655 46.3285 81.5498 46.5855V49.5172H78.5418V46.5855C77.1759 46.2652 75.9458 45.5225 75.0264 44.4629C74.1069 43.4033 73.545 42.0807 73.4204 40.6834L73.4603 39.2363C73.6434 37.8568 74.2542 36.5694 75.207 35.555C76.1598 34.5407 77.4065 33.8506 78.7719 33.5816L86.3476 42.2257Z" fill="white"/>
<path d="M130.497 37.6372H99.4268V68.7078H130.497V37.6372Z" fill="white"/>
<path d="M66.9876 37.6186L75.8786 39.8078C75.9111 39.815 75.9401 39.8331 75.9608 39.8591C75.9816 39.885 75.9929 39.9173 75.9929 39.9505C75.9929 39.9838 75.9816 40.016 75.9608 40.0419C75.9401 40.0679 75.9111 40.086 75.8786 40.0933L45.6433 47.4801V32.3828L53.3728 34.3246L61.0265 35.8098L63.5394 39.998V36.5714L66.9876 37.6186Z" fill="#FFC5FF"/>
<path d="M29.0991 32.3828L36.2957 34.1535V45.6908L29.0991 47.4801V32.3828Z" fill="#FFC5FF"/>
<path d="M43.6443 60.2933H9.4895V67.2803H43.6443V60.2933Z" fill="black"/>
<path d="M9.48913 60.2933H2.5022V67.2803H9.48913V60.2933Z" fill="#FF553E"/>
<path d="M39.0559 67.1468H2.5022V89.4216H39.0559V67.1468Z" fill="white"/>
<path d="M42.2164 48.1087C46.7272 48.1087 50.3839 44.452 50.3839 39.9412C50.3839 35.4304 46.7272 31.7737 42.2164 31.7737C37.7056 31.7737 34.0488 35.4304 34.0488 39.9412C34.0488 44.452 37.7056 48.1087 42.2164 48.1087Z" fill="white"/>
<path d="M42.2165 37.1234C41.2687 37.1235 40.3341 37.3457 39.4877 37.7722C38.6413 38.1987 37.9066 38.8177 37.3425 39.5794C37.9066 40.3411 38.6413 40.96 39.4877 41.3865C40.3341 41.8129 41.2687 42.0351 42.2165 42.0351C43.1643 42.0351 44.0989 41.8129 44.9454 41.3865C45.7918 40.96 46.5265 40.3411 47.0905 39.5794C46.5265 38.8177 45.7918 38.1987 44.9454 37.7722C44.099 37.3457 43.1644 37.1235 42.2165 37.1234Z" fill="white"/>
<path d="M25.6341 48.1087C30.1449 48.1087 33.8016 44.452 33.8016 39.9412C33.8016 35.4304 30.1449 31.7737 25.6341 31.7737C21.1233 31.7737 17.4666 35.4304 17.4666 39.9412C17.4666 44.452 21.1233 48.1087 25.6341 48.1087Z" fill="white"/>
<path d="M30.527 39.5794C29.9628 40.341 29.2281 40.9599 28.3817 41.3863C27.5353 41.8127 26.6007 42.0349 25.653 42.0351C25.0669 42.0317 24.484 41.9485 23.9204 41.7877V37.3898C24.482 37.22 25.0662 37.1366 25.653 37.1424C26.6001 37.1348 27.5356 37.3517 28.3828 37.7753C29.23 38.1989 29.9647 38.8172 30.527 39.5794Z" fill="white"/>
<path d="M43.644 67.2802H39.0559V80.3404H43.644V67.2802Z" fill="#FFC5FF"/>
<path d="M43.644 80.3409H39.0559V89.4221H43.644V80.3409Z" fill="#FFDB43"/>
<path d="M23.9015 37.3707V41.7686C22.6408 41.3962 21.5372 40.6205 20.76 39.5604C21.5517 38.5191 22.6506 37.7532 23.9015 37.3707Z" fill="black"/>
<path d="M40.484 37.3707V41.7686C39.2234 41.3962 38.1197 40.6205 37.3425 39.5604C38.1265 38.5112 39.2283 37.7432 40.484 37.3707Z" fill="black"/>
<path d="M94.0752 80.0549L70.1631 70.9546L70.4677 64.8242L66.9073 68.4799C65.8062 69.6001 64.325 70.2665 62.7564 70.3476C61.1877 70.4286 59.6458 69.9183 58.4352 68.9175L58.3589 68.8603C57.6551 68.2747 57.089 67.5413 56.7007 66.7121C56.3125 65.883 56.1117 64.9785 56.1126 64.063V51.764H66.9875V57.3057L75.4995 49.538H85.7614C85.7614 49.538 93.8336 77.601 93.9861 78.3245C94.0679 78.8975 94.0977 79.4766 94.0752 80.0549Z" fill="#FF553E"/>
<path d="M94.0961 80.0549L70.49 71.0676C69.2507 70.5899 67.9341 70.3446 66.6059 70.3441H66.492C63.8741 70.3431 61.3435 71.2857 59.3643 72.9992C57.3851 74.7127 56.0898 77.0821 55.7159 79.6732L53.2603 96.8457L69.8618 102.729L67.6149 82.9667L81.6655 88.3164C83.198 88.8972 84.8585 89.0552 86.473 88.7739C88.0876 88.4925 89.5968 87.7822 90.8425 86.7173L90.9374 86.6411C91.9136 85.8411 92.7024 84.8368 93.2482 83.6988C93.794 82.5608 94.0834 81.3169 94.0961 80.0549Z" fill="#FFDB43"/>
<path d="M77.3803 86.6996L81.6261 88.3178C82.8164 88.7735 84.0893 88.9735 85.362 88.9048C86.6347 88.8361 87.8787 88.5001 89.013 87.9188L85.9668 100.237L94.0772 97.2288L100.474 112.859H81.2453C79.9122 112.859 78.5974 112.549 77.4047 111.954C76.2119 111.359 75.1739 110.494 74.3726 109.429C73.5712 108.363 73.0285 107.126 72.7873 105.815C72.546 104.504 72.6128 103.155 72.9825 101.874L77.3803 86.6996Z" fill="#FFDB43"/>
<path d="M100.493 112.858H113.611L101.75 97.7226L95.5242 100.75L100.493 112.858Z" fill="#FFC5FF"/>
<path d="M86.2727 34.6101L78.1433 32.3048L82.7318 23.0711C82.9756 22.5807 83.3829 22.1908 83.8833 21.9684C84.3837 21.746 84.9461 21.7051 85.4734 21.8528L85.5111 21.8718C86.039 22.0201 86.498 22.3493 86.8077 22.8017C87.1175 23.2542 87.2583 23.8012 87.2055 24.347L86.2727 34.6101Z" fill="black"/>
<path d="M67.0045 51.745H56.1335V54.8293H67.0045V51.745Z" fill="#FFC5FF"/>
<path d="M66.9876 32.1355V51.7641H56.1144V46.319L50.86 37.541C50.7511 37.3628 50.679 37.1647 50.6479 36.9582C50.6168 36.7517 50.6272 36.5411 50.6786 36.3387C50.73 36.1363 50.8214 35.9462 50.9473 35.7797C51.0733 35.6131 51.2312 35.4734 51.4119 35.3687L51.431 35.3497C51.6093 35.2409 51.8074 35.1689 52.0139 35.1378C52.2204 35.1067 52.431 35.1172 52.6334 35.1687C52.8358 35.2201 53.0258 35.3115 53.1924 35.4375C53.359 35.5634 53.4987 35.7214 53.6033 35.902C53.4939 35.724 53.4213 35.5258 53.3898 35.3192C53.3583 35.1126 53.3686 34.9018 53.4201 34.6992C53.4716 34.4966 53.5632 34.3065 53.6894 34.14C53.8157 33.9734 53.9741 33.8339 54.1553 33.7297L54.1743 33.7106C54.3517 33.6028 54.5486 33.5309 54.7537 33.4993C54.9588 33.4676 55.1682 33.4767 55.3698 33.5262C55.5714 33.5756 55.7613 33.6643 55.9286 33.7873C56.0958 33.9102 56.2371 34.065 56.3445 34.2426C56.2365 34.0643 56.1652 33.8663 56.1346 33.6602C56.1039 33.454 56.1146 33.2438 56.166 33.0419C56.2174 32.8399 56.3085 32.6502 56.434 32.4837C56.5595 32.3173 56.7168 32.1775 56.8969 32.0725L56.9159 32.0535C57.0941 31.9446 57.2923 31.8724 57.4988 31.8412C57.7053 31.8101 57.9159 31.8205 58.1183 31.8719C58.3207 31.9234 58.5108 32.0147 58.6774 32.1407C58.8439 32.2667 58.9836 32.4247 59.0882 32.6054L63.5433 40.0494V32.1355C63.5442 31.6864 63.7231 31.2559 64.0406 30.9384C64.3582 30.6208 64.7886 30.442 65.2377 30.4411H65.2759C65.5004 30.4366 65.7236 30.4773 65.9321 30.5606C66.1407 30.644 66.3304 30.7683 66.49 30.9263C66.6496 31.0843 66.7759 31.2728 66.8614 31.4805C66.9468 31.6882 66.9897 31.9109 66.9876 32.1355Z" fill="white"/>
<path d="M70.9833 112.858L69.8413 102.73L58.7797 98.8079L46.8806 112.858H70.9833Z" fill="#FFC5FF"/>
<path d="M86.6902 40.1124C86.6941 40.831 86.5782 41.5452 86.3475 42.2257L78.77 33.6011C79.1904 33.5184 79.6175 33.4739 80.0459 33.4681C80.9187 33.4673 81.7831 33.6386 82.5895 33.9722C83.396 34.3059 84.1288 34.7952 84.7459 35.4124C85.3631 36.0295 85.8525 36.7623 86.1861 37.5688C86.5197 38.3753 86.691 39.2396 86.6902 40.1124Z" fill="#FFDB43"/>
<path d="M95.6762 100.35L94.2487 96.8479L86.3857 99.7797L89.2603 88.1094C89.8834 87.7872 90.4651 87.3908 90.9928 86.9288L91.0882 86.8525C92.082 85.9936 92.8863 84.9374 93.45 83.751C94.0137 82.5646 94.3245 81.2739 94.3626 79.9609L94.4008 79.8656L94.3626 79.8465C94.3774 78.9537 94.2684 78.0632 94.039 77.2003L85.9668 49.1936H81.8354V46.7761C83.16 46.4218 84.3498 45.6827 85.2542 44.6521C86.1587 43.6215 86.7372 42.3459 86.9165 40.9865C87.0959 39.6271 86.868 38.2451 86.2618 37.0152C85.6555 35.7853 84.6981 34.7629 83.5107 34.0772L92.0781 36.5156L92.2306 35.9632L86.5759 34.4022L87.4901 24.3691C87.5453 23.7564 87.3851 23.1436 87.0371 22.6362C86.6892 22.1288 86.1752 21.7587 85.5837 21.5894L85.5456 21.5704C85.3111 21.5001 85.0668 21.4679 84.8221 21.475C84.3305 21.4724 83.8481 21.6085 83.4305 21.8679C83.0128 22.1273 82.6769 22.4993 82.4613 22.9411L78.0089 31.9656L72.3542 30.3665L72.2022 30.9185L77.7438 32.499L80.2571 33.2034H80.066C79.677 33.2058 79.2887 33.2375 78.9045 33.2983C77.5084 33.5425 76.2203 34.2077 75.2131 35.2048C74.2058 36.2019 73.5276 37.4832 73.2693 38.8768L67.31 37.4107V32.1354C67.3102 31.8754 67.2592 31.6178 67.1597 31.3775C67.0603 31.1372 66.9145 30.9188 66.7306 30.7349C66.5467 30.551 66.3283 30.4052 66.088 30.3057C65.8477 30.2063 65.5901 30.1553 65.3301 30.1555H65.2538C64.9937 30.1553 64.7362 30.2063 64.4958 30.3057C64.2555 30.4052 64.0372 30.551 63.8533 30.7349C63.6694 30.9188 63.5235 31.1372 63.4241 31.3775C63.3247 31.6178 63.2736 31.8754 63.2739 32.1354V38.9889L59.3521 32.4209C59.0956 31.9957 58.6814 31.689 58.1998 31.5677C57.7182 31.4465 57.2081 31.5205 56.7808 31.7737L56.7618 31.7927C56.4895 31.9587 56.2631 32.1903 56.1035 32.4663C55.9439 32.7423 55.856 33.054 55.848 33.3728C55.7183 33.3137 55.5851 33.2628 55.449 33.2203C54.9699 33.1067 54.4654 33.1817 54.0401 33.43L54.0211 33.449C53.7871 33.5817 53.5906 33.7716 53.4501 34.001L44.5209 31.8118C43.7839 31.604 43.0212 31.5015 42.2554 31.5072C40.0658 31.5082 37.9625 32.3617 36.3915 33.887L27.9743 31.8118C27.232 31.5964 26.4628 31.4874 25.6899 31.4882C23.448 31.4882 21.2979 32.3788 19.7127 33.964C18.1274 35.5493 17.2368 37.6993 17.2368 39.9412C17.2368 42.1831 18.1274 44.3332 19.7127 45.9184C21.2979 47.5037 23.448 48.3942 25.6899 48.3942C26.5883 48.3928 27.4811 48.2514 28.3361 47.9753L36.3893 46.0144C37.9629 47.5476 40.0753 48.4021 42.2723 48.3942C43.1707 48.3913 44.0632 48.25 44.9185 47.9753L55.3324 45.4239L55.9039 46.3762V64.0439C55.9038 65.0037 56.1153 65.9517 56.5233 66.8204C56.9314 67.6891 57.5259 68.4572 58.2647 69.07L58.3409 69.1272C59.5184 70.1024 61.0002 70.6345 62.5291 70.631C62.7388 70.631 62.9671 70.6119 63.1763 70.5928C61.735 71.0513 60.4011 71.796 59.2546 72.7824C57.2202 74.5332 55.888 76.9609 55.504 79.6173L53.0098 97.0182L58.3786 98.9245L46.3643 113.127H71.3997L67.9187 83.387L77.019 86.8516L72.6974 101.778C72.3128 103.101 72.2415 104.495 72.4892 105.85C72.7369 107.205 73.2967 108.484 74.1243 109.585C74.9519 110.686 76.0246 111.58 77.2573 112.195C78.4901 112.809 79.8491 113.129 81.2267 113.127H114.182L101.826 97.3444L95.6762 100.35ZM82.9969 23.1876C83.1669 22.8435 83.4301 22.5539 83.7565 22.3519C84.0829 22.1499 84.4595 22.0437 84.8434 22.0452C85.0366 22.0423 85.2291 22.068 85.4148 22.1214L85.453 22.1405C85.916 22.2708 86.3184 22.5599 86.5898 22.957C86.8613 23.3541 86.9844 23.8341 86.9377 24.3128L86.024 34.2315L78.5609 32.1164L82.9969 23.1876ZM80.0461 33.754C81.7316 33.7569 83.3474 34.4276 84.5394 35.6194C85.7314 36.8111 86.4025 38.4268 86.4057 40.1123C86.4105 40.6326 86.3464 41.1512 86.215 41.6547L79.3225 33.7917C79.5699 33.7727 79.8 33.7536 80.0461 33.7536V33.754ZM78.6753 33.9061L86.043 42.3024C85.681 43.2957 85.0771 44.1832 84.2859 44.8846C83.4948 45.5859 82.5413 46.0791 81.5117 46.3194L81.2834 46.3766V49.2512H78.8451V46.3766L78.6168 46.3194C77.479 46.0592 76.437 45.4854 75.6087 44.6631C75.7411 44.679 75.8745 44.6854 76.0077 44.6822C76.6625 44.6852 77.31 44.5453 77.9052 44.2723C78.5004 43.9993 79.0288 43.5999 79.4538 43.1017L79.0162 42.7209C78.6402 43.1553 78.1755 43.5042 77.6533 43.7439C77.1311 43.9837 76.5637 44.1088 75.9891 44.1108C75.6482 44.1145 75.3084 44.0697 74.9801 43.9778C74.3025 43.0824 73.8703 42.0257 73.7263 40.9121L75.935 40.3801C75.9495 40.3781 75.9629 40.3714 75.9732 40.361L78.7334 41.4463L78.9431 40.9143L76.4307 39.9221L78.9821 38.2849L78.6775 37.8088L75.955 39.5413C75.9359 39.5413 75.9359 39.5413 75.9169 39.5223L73.7445 38.9903C73.9864 37.7565 74.5809 36.6195 75.4561 35.717C76.3313 34.8145 77.4496 34.1853 78.6753 33.9057V33.9061ZM56.4199 52.0309H66.7199V54.5442H56.4191L56.4199 52.0309ZM67.2719 42.4926L73.1944 41.0451C73.3706 42.4007 73.9463 43.6732 74.8481 44.7005C75.75 45.7278 76.9372 46.4635 78.2585 46.8138V49.2317H75.3835L67.2732 56.6354L67.2719 42.4926ZM75.2683 39.9416L67.2719 41.9025V37.9799L75.2683 39.9416ZM35.8958 34.3437C34.9068 35.462 34.2303 36.8215 33.9345 38.2849C33.5069 36.1543 32.2724 34.2713 30.4889 33.0296L35.8958 34.3437ZM17.771 39.9412C17.7709 38.3823 18.2331 36.8583 19.0992 35.5621C19.9652 34.2658 21.1962 33.2555 22.6364 32.6588C24.0767 32.0622 25.6615 31.9061 27.1905 32.2101C28.7195 32.5142 30.124 33.2649 31.2263 34.3672C32.3287 35.4695 33.0794 36.8739 33.3836 38.4029C33.6878 39.9319 33.5317 41.5167 32.9351 42.957C32.3386 44.3973 31.3283 45.6283 30.0321 46.4944C28.7359 47.3605 27.212 47.8228 25.6531 47.8228C23.5639 47.8187 21.5616 46.987 20.0843 45.5098C18.607 44.0326 17.7753 42.0303 17.771 39.9412ZM33.9345 41.6166C34.2318 43.0698 34.9011 44.421 35.8768 45.5383L30.508 46.8519C32.2677 45.5996 33.4911 43.7304 33.9345 41.6166ZM34.3335 39.9412C34.3334 38.3823 34.7956 36.8583 35.6617 35.5621C36.5277 34.2658 37.7587 33.2555 39.1989 32.6588C40.6392 32.0622 42.224 31.9061 43.753 32.2101C45.282 32.5142 46.6865 33.2649 47.7888 34.3672C48.8912 35.4695 49.6419 36.8739 49.9461 38.4029C50.2502 39.9319 50.0942 41.5167 49.4976 42.957C48.9011 44.3973 47.8908 45.6283 46.5946 46.4944C45.2984 47.3605 43.7745 47.8228 42.2155 47.8228C40.1266 47.8184 38.1244 46.9867 36.6474 45.5095C35.1703 44.0323 34.3386 42.0302 34.3344 39.9412H34.3335ZM47.0896 46.8328C48.1985 46.0519 49.1028 45.0151 49.7258 43.8103C50.3488 42.6055 50.6722 41.2683 50.6684 39.912C50.6647 38.5557 50.334 37.2202 49.7043 36.0189C49.0747 34.8176 48.1647 33.7858 47.0514 33.011L53.1818 34.5152C53.1818 34.5343 53.1628 34.572 53.1628 34.5911C53.1251 34.7275 53.1059 34.8684 53.1056 35.01C52.8242 34.8645 52.5103 34.7934 52.1937 34.8034C51.8772 34.8134 51.5684 34.9042 51.2968 35.0672L51.2777 35.0863C50.8525 35.3429 50.5459 35.7571 50.4247 36.2387C50.3035 36.7203 50.3774 37.2303 50.6305 37.6576L54.9733 44.911L47.0896 46.8328ZM51.1066 37.3708C50.9339 37.0714 50.8795 36.7182 50.9541 36.3808C50.9902 36.2135 51.0615 36.0558 51.1633 35.9182C51.2652 35.7806 51.3951 35.6662 51.5446 35.5828L51.5637 35.5637C51.8602 35.3894 52.213 35.3375 52.5471 35.4193C52.8813 35.501 53.1704 35.7098 53.353 36.0013L57.37 42.7032L57.8652 42.4172L53.8482 35.7158C53.6752 35.4165 53.6208 35.0633 53.6957 34.7258C53.7319 34.5585 53.8032 34.4009 53.9051 34.2633C54.0069 34.1257 54.1368 34.0114 54.2862 33.9278L54.3048 33.9088C54.6015 33.7345 54.9544 33.6828 55.2886 33.7646C55.6227 33.8464 55.9119 34.0552 56.0945 34.3468L60.1116 41.0482L60.6068 40.7627L56.5897 34.0803C56.4154 33.7838 56.3635 33.4309 56.4452 33.0966C56.5269 32.7624 56.7358 32.4733 57.0273 32.2906L57.0464 32.2715C57.343 32.0972 57.6959 32.0454 58.0302 32.1272C58.3644 32.209 58.6535 32.4179 58.8361 32.7095L64.1118 41.5053L64.6065 41.2198L63.8449 39.9443V32.1354C63.8445 31.9503 63.8806 31.7669 63.9513 31.5958C64.022 31.4247 64.1257 31.2692 64.2566 31.1383C64.3876 31.0074 64.543 30.9036 64.7142 30.8329C64.8853 30.7623 65.0687 30.7261 65.2538 30.7265H65.2919C65.4771 30.7261 65.6605 30.7623 65.8316 30.8329C66.0027 30.9036 66.1582 31.0074 66.2891 31.1383C66.42 31.2692 66.5238 31.4247 66.5944 31.5958C66.6651 31.7669 66.7013 31.9503 66.7008 32.1354V51.4785H56.4V46.241L51.1066 37.3708ZM58.6269 68.6891L58.5506 68.632C57.8769 68.0723 57.3348 67.371 56.963 66.578C56.5911 65.785 56.3986 64.9198 56.3991 64.0439V55.1147H66.6991V58.3511H67.2701V57.3992L75.5901 49.7841H85.5279L93.4671 77.3705C93.6722 78.1082 93.7747 78.8707 93.7717 79.6364L70.5836 70.8016C70.5459 70.7826 70.5077 70.7826 70.4696 70.7635L70.7742 64.9558L76.143 59.4536L75.744 59.0546L66.719 68.2702C65.6662 69.3377 64.252 69.9727 62.7547 70.0502C61.2574 70.1277 59.7852 69.6422 58.6277 68.6891H58.6269ZM67.118 68.6701L70.1642 65.5668L69.8982 70.5738C68.8307 70.2473 67.7209 70.0805 66.6046 70.079H66.4907C65.9169 70.0761 65.3437 70.1206 64.7772 70.212C65.661 69.8742 66.4607 69.3481 67.1207 68.6701H67.118ZM47.5081 112.573L58.8747 99.1506L69.5741 102.939L70.6594 112.573H47.5081ZM69.4974 102.311L53.5432 96.6564L55.9815 79.7122C56.3628 77.194 57.6314 74.895 59.5585 73.2298C61.4856 71.5647 63.9443 70.6429 66.4911 70.631H66.6051C67.9009 70.6267 69.1861 70.8657 70.3938 71.3354L93.7921 80.2646C93.7163 81.4448 93.4062 82.5981 92.8799 83.6572C92.3536 84.7163 91.6217 85.6599 90.7269 86.4331L90.6315 86.5089C89.4275 87.5457 87.9649 88.2367 86.3993 88.5083C84.8337 88.7799 83.2239 88.6219 81.7409 88.0513L67.2537 82.53L69.4974 102.311ZM74.5997 109.26C73.8205 108.231 73.294 107.033 73.0625 105.763C72.831 104.494 72.9011 103.187 73.2671 101.949L77.5696 87.0613L81.5295 88.5651C83.8147 89.4311 86.3468 89.3766 88.5926 88.4131L85.5656 100.674L93.9237 97.5705L100.054 112.555H81.2453C79.9559 112.572 78.6811 112.282 77.5258 111.709C76.3706 111.136 75.3681 110.296 74.601 109.26H74.5997ZM100.682 112.573L95.9037 100.883L101.672 98.0844L113.019 112.573H100.682Z" fill="black"/>
<path d="M25.634 36.8379C24.6405 36.8308 23.6596 37.0604 22.7724 37.5075C21.8852 37.9546 21.1171 38.6065 20.5317 39.4092L20.3987 39.5808L20.5317 39.7519C21.1222 40.5492 21.8913 41.197 22.7774 41.6434C23.6635 42.0897 24.6418 42.3222 25.634 42.3222C26.6262 42.3222 27.6045 42.0897 28.4906 41.6434C29.3767 41.197 30.1458 40.5492 30.7363 39.7519L30.8693 39.5808L30.7363 39.4092C30.1509 38.6065 29.3828 37.9547 28.4956 37.5075C27.6084 37.0604 26.6275 36.8309 25.634 36.8379ZM21.1218 39.5794C21.7718 38.7595 22.6346 38.1338 23.616 37.7706V41.3878C22.6374 41.0197 21.7759 40.3951 21.1218 39.5794ZM25.634 41.7496C25.1451 41.7543 24.658 41.6903 24.187 41.5594V37.5804C24.6598 37.4584 25.1457 37.3944 25.634 37.3898C26.5017 37.385 27.359 37.578 28.1409 37.9541C28.9229 38.3302 29.6088 38.8795 30.1467 39.5604C29.6125 40.2467 28.9278 40.801 28.1453 41.1806C27.3629 41.5602 26.5037 41.7548 25.634 41.7496Z" fill="black"/>
<path d="M42.2165 36.8379C41.223 36.8309 40.2422 37.0604 39.3549 37.5075C38.4677 37.9547 37.6996 38.6065 37.1142 39.4092L36.9812 39.5808L37.1142 39.7519C37.7047 40.5492 38.4739 41.197 39.3599 41.6434C40.246 42.0897 41.2244 42.3222 42.2165 42.3222C43.2087 42.3222 44.187 42.0897 45.0731 41.6434C45.9592 41.197 46.7283 40.5492 47.3189 39.7519L47.4519 39.5808L47.3189 39.4092C46.7319 38.608 45.9636 37.9573 45.0767 37.5104C44.1898 37.0634 43.2097 36.833 42.2165 36.8379ZM37.6834 39.5794C38.3335 38.7595 39.1963 38.1338 40.1776 37.7706V41.3878C39.2017 41.0148 38.3414 40.3911 37.6834 39.5794ZM42.2148 41.7496C41.7259 41.7543 41.2388 41.6903 40.7677 41.5594V37.5804C41.2405 37.4585 41.7265 37.3945 42.2148 37.3898C43.0825 37.3853 43.9398 37.5786 44.7217 37.955C45.5035 38.3314 46.1893 38.881 46.727 39.5621C46.1902 40.2448 45.5051 40.7964 44.7237 41.1754C43.9423 41.5543 43.085 41.7507 42.2165 41.7496H42.2148Z" fill="black"/>
<path d="M9.20349 60.0074H2.21655V89.7076H43.9298V60.0074H9.20349ZM6.40517 63.7757L9.20349 60.9774V66.5745L6.40517 63.7757ZM5.98622 63.3767L3.18745 60.5788H8.78498L5.98622 63.3767ZM5.58722 63.7757L2.78845 66.5745V60.9787L5.58722 63.7757ZM5.98622 64.1747L8.78498 66.9735H3.18745L5.98622 64.1747ZM2.78757 89.1344V67.5653H38.7916V89.1362L2.78757 89.1344ZM43.3588 89.1344H39.3417V80.6224H43.3579L43.3588 89.1344ZM43.3588 80.0527H39.3417V67.5653H43.3579L43.3588 80.0527ZM43.3588 60.5766V66.9925H9.77494V60.5788L43.3588 60.5766Z" fill="black"/>
<path d="M120.426 37.3517H99.1414V68.9938H130.783V37.3517H120.426ZM110.07 37.9232H119.855V47.7089H110.07V37.9232ZM119.855 58.0656H110.07V48.2804H119.855V58.0656ZM99.7128 37.9232H109.499V47.7089H99.7128V37.9232ZM99.7128 48.2799H109.499V58.0656H99.7128V48.2799ZM109.499 68.4418H99.7128V58.6371H109.499V68.4418ZM119.855 68.4418H110.07V58.6371H119.855V68.4418ZM130.212 68.4418H120.426V58.6371H130.212V68.4418ZM130.212 58.0678H120.426V48.2804H130.212V58.0678ZM120.426 47.7111V37.9232H130.212V47.7089L120.426 47.7111Z" fill="black"/>
<path d="M24.9296 72.8206C24.3091 72.1955 23.5704 71.7002 22.7565 71.3635C21.9426 71.0269 21.0698 70.8556 20.189 70.8598C18.4116 70.8602 16.7069 71.5653 15.4485 72.8206C14.8234 73.4412 14.3282 74.1799 13.9915 74.9938C13.6549 75.8077 13.4836 76.6804 13.4876 77.5612C13.4883 79.3386 14.1934 81.0432 15.4485 82.3017C16.6708 83.5237 18.3182 84.2258 20.0462 84.2612C21.7742 84.2967 23.449 83.6627 24.7204 82.4919L27.9948 85.7668L28.3938 85.3678L25.1189 82.0929C26.2938 80.8235 26.9305 79.1479 26.8952 77.4186C26.8599 75.6893 26.1553 74.041 24.9296 72.8206ZM15.8674 81.885C15.2967 81.3159 14.8446 80.6392 14.5374 79.8941C14.2302 79.149 14.0739 78.3503 14.0777 77.5443C14.0788 75.9181 14.722 74.3581 15.8674 73.2037C16.4365 72.6329 17.1132 72.1808 17.8583 71.8736C18.6035 71.5664 19.4021 71.4101 20.2081 71.4139C21.4223 71.4116 22.6098 71.7699 23.6201 72.4434C24.6304 73.1168 25.4179 74.0751 25.8829 75.1967C26.3478 76.3184 26.4693 77.5528 26.2317 78.7435C25.9942 79.9342 25.4085 81.0276 24.5488 81.885C23.395 83.0313 21.8346 83.6747 20.2081 83.6747C18.5817 83.6747 17.0213 83.0313 15.8674 81.885Z" fill="black"/>
</svg>
