<svg width="181" height="398" viewBox="0 0 181 398" fill="none" xmlns="http://www.w3.org/2000/svg">
<g opacity="0.25" clip-path="url(#clip0)">
<path d="M197.699 226.854C196.644 226.854 195.59 226.759 194.439 226.567C193.289 226.376 192.042 226.088 190.796 225.706C188.015 224.844 185.331 223.313 182.742 221.398C181.304 220.345 180.153 219.292 179.195 218.144L179.003 217.857C176.702 214.219 176.127 210.199 175.551 206.37C175.455 205.987 175.455 205.605 175.359 205.222C175.072 203.403 174.017 201.68 172.963 199.861C172.675 199.383 172.387 198.904 172.1 198.426C169.127 193.065 172.004 185.695 176.318 180.718C178.14 178.612 180.537 177.463 182.646 176.506C183.797 175.932 184.851 175.453 185.714 174.879C186.961 173.06 188.782 171.624 191.083 170.763C193.289 169.901 195.685 169.518 198.178 169.71L198.37 169.71L198.562 169.806C199.137 169.901 199.616 170.093 200.096 170.284L200.096 176.315C199.329 175.74 198.466 175.262 197.507 175.07C195.973 174.974 194.439 175.262 193.097 175.836C191.659 176.41 190.604 177.272 189.933 178.325L189.645 178.803L189.262 179.09C187.824 180.143 186.289 180.813 184.851 181.579C183.03 182.441 181.4 183.206 180.345 184.451C177.373 187.897 175.072 193.161 176.702 196.128C176.989 196.607 177.181 196.99 177.469 197.468C178.715 199.574 180.153 201.872 180.537 204.743C180.633 205.126 180.633 205.509 180.729 205.892C181.208 209.338 181.687 212.496 183.317 215.177C183.988 215.942 184.851 216.708 185.906 217.474C188.015 219.101 190.22 220.25 192.426 221.015C193.384 221.303 194.439 221.59 195.398 221.781C196.74 222.068 197.987 222.068 199.041 221.877L199.329 221.877C199.521 221.877 199.712 221.781 200 221.685L200 227.141C199.904 227.141 199.808 227.141 199.808 227.141C199.137 226.759 198.37 226.854 197.699 226.854Z" fill="#EAE9C6"/>
<path d="M191.946 241.977C190.029 241.595 188.111 241.212 186.194 240.637C182.071 239.297 177.852 237 173.73 233.841C171.524 232.214 169.799 230.491 168.361 228.864L168.265 228.672L168.169 228.481C165.197 223.312 164.717 217.473 164.238 211.922C164.142 210.677 164.046 209.529 163.95 208.38C163.567 204.934 161.266 202.063 158.869 199C158.581 198.617 158.198 198.234 157.91 197.755C152.253 190.481 156.855 178.994 163.471 171.337C166.059 168.369 169.415 166.934 172.675 165.689C174.784 164.828 176.798 164.062 178.332 162.818C179.77 159.755 182.359 157.362 185.714 155.83C188.878 154.394 192.617 153.724 196.261 154.012L196.548 154.012L196.836 154.107C197.987 154.49 199.041 154.873 200 155.447L200 161.956C198.658 160.808 197.315 159.85 195.59 159.276C192.905 159.085 190.221 159.563 188.015 160.616C185.523 161.765 183.797 163.392 182.934 165.594L182.646 166.168L182.167 166.551C179.866 168.465 177.181 169.518 174.593 170.571C171.812 171.72 169.223 172.773 167.402 174.783C162.895 180.047 158.198 189.523 162.033 194.405C162.32 194.788 162.608 195.171 162.991 195.554C165.676 198.904 168.648 202.637 169.223 207.614C169.319 208.859 169.415 210.103 169.511 211.252C169.895 216.42 170.374 221.302 172.579 225.418C173.73 226.758 175.072 228.002 176.894 229.438C180.537 232.214 184.18 234.224 187.824 235.373C189.358 235.851 191.083 236.234 192.905 236.521C195.302 237 197.315 237 199.233 236.617L199.616 236.521C199.712 236.521 199.904 236.521 200 236.426L200 241.786C198.849 241.977 197.699 242.073 196.548 242.073C195.014 242.456 193.576 242.265 191.946 241.977Z" fill="#EAE9C6"/>
<path d="M189.454 257.484L189.166 257.389C186.673 256.91 184.18 256.432 181.687 255.666C176.127 253.847 170.47 250.784 164.813 246.477C161.745 244.18 159.444 241.978 157.622 239.681L157.431 239.489L157.335 239.298C153.595 232.502 153.212 224.844 152.828 217.474C152.733 215.56 152.637 213.645 152.445 211.826C151.965 206.658 148.322 202.637 144.487 198.33C144.104 197.947 143.816 197.564 143.432 197.181C134.708 187.418 142.857 170.954 150.527 162.34C153.883 158.511 158.389 156.788 162.704 155.161C165.772 154.012 168.744 152.864 171.045 151.045C172.771 146.833 176.031 143.483 180.537 141.282C184.756 139.176 189.645 138.314 194.535 138.793L194.823 138.793L195.11 138.889C196.932 139.463 198.562 140.229 200 141.186L200 147.982C198.178 146.259 196.261 144.823 193.768 143.962C190.029 143.674 186.098 144.345 182.934 145.972C179.386 147.695 176.989 150.279 175.839 153.534L175.647 154.204L175.072 154.682C171.908 157.362 168.169 158.798 164.621 160.138C160.786 161.574 157.143 162.914 154.554 165.786C147.939 173.252 141.419 186.844 147.459 193.64C147.747 194.023 148.13 194.406 148.514 194.788C152.637 199.287 157.239 204.456 157.814 211.348C158.006 213.262 158.102 215.272 158.198 217.187C158.581 223.887 158.965 230.875 161.937 236.618C163.567 238.532 165.484 240.351 168.073 242.361C173.25 246.285 178.332 249.061 183.413 250.688C185.523 251.358 187.824 251.837 190.125 252.22L190.412 252.316C193.864 252.986 196.74 252.986 199.425 252.316L199.617 252.316L199.808 252.316L199.904 252.316L199.904 257.676C198.466 257.963 196.932 258.155 195.302 258.155C193.48 258.059 191.563 257.867 189.454 257.484Z" fill="#EAE9C6"/>
<path d="M187.057 272.991L186.481 272.895C183.413 272.321 180.345 271.746 177.277 270.693C170.278 268.396 163.087 264.472 156.088 259.111C152.253 256.24 149.377 253.464 147.076 250.592L146.884 250.401L146.788 250.21C142.282 241.691 141.994 232.214 141.611 222.93C141.515 220.249 141.419 217.761 141.227 215.272C140.748 208.38 135.475 202.924 130.297 197.564L129.243 196.415C117.929 184.642 128.188 164.062 137.872 153.15C142.09 148.46 147.651 146.45 153.02 144.536C157.143 143.1 160.978 141.664 164.046 139.175C165.964 133.815 169.99 129.412 175.551 126.636C180.729 124.052 186.865 122.903 192.905 123.477L193.193 123.477L193.384 123.477C195.877 124.339 197.987 125.488 200 126.923L200 133.911C197.699 131.614 195.206 129.699 192.042 128.646C187.057 128.168 182.071 129.125 177.852 131.231C173.25 133.624 170.182 136.974 168.744 141.473L168.552 142.143L167.977 142.621C164.046 146.067 159.252 147.79 154.65 149.417C149.664 151.236 144.966 152.863 141.707 156.596C133.078 166.36 124.64 184.068 132.982 192.682L134.036 193.735C139.501 199.383 145.733 205.892 146.405 214.698C146.596 217.282 146.692 219.962 146.788 222.642C147.076 231.161 147.459 240.063 151.198 247.434C153.212 249.922 155.801 252.315 159.156 254.9C165.772 259.973 172.387 263.515 178.811 265.716C181.496 266.578 184.276 267.152 187.344 267.726L187.919 267.822C192.426 268.683 196.165 268.683 199.712 267.822L199.904 267.822L199.904 273.182C198.082 273.565 196.165 273.756 194.152 273.756C192.042 273.756 189.645 273.469 187.057 272.991Z" fill="#EAE9C6"/>
<path d="M184.66 288.498L183.797 288.306C180.153 287.636 176.414 286.966 172.867 285.722C164.43 282.946 155.801 278.256 147.268 271.747C142.665 268.205 139.214 264.951 136.338 261.409L136.146 261.218L136.05 261.026C130.777 250.88 130.489 239.394 130.201 228.386C130.105 225.036 130.01 221.781 129.818 218.623C129.243 209.912 122.435 203.212 115.916 196.799L114.861 195.746C108.629 189.524 107.191 180.335 110.642 169.136C113.231 160.713 118.6 151.332 125.024 144.057C130.01 138.506 136.625 136.113 143.049 133.911C148.13 132.093 153.02 130.465 156.855 127.211C159.06 120.606 163.663 115.342 170.374 111.896C176.51 108.737 183.893 107.301 191.083 108.067L191.371 108.067L191.659 108.163C194.823 109.216 197.603 110.843 200 112.757L200 119.841C197.22 116.969 194.151 114.672 190.221 113.236C184.18 112.662 177.852 113.906 172.771 116.49C167.018 119.458 163.279 123.765 161.649 129.412L161.457 130.082L160.882 130.561C156.184 134.773 150.336 136.783 144.775 138.793C138.734 140.899 132.982 142.909 128.955 147.408C118.217 159.564 107.958 181.388 118.504 191.917L119.559 192.97C126.462 199.766 134.228 207.519 134.995 218.24C135.187 221.494 135.283 224.94 135.379 228.195C135.666 238.532 135.954 249.348 140.46 258.346C142.953 261.409 146.117 264.376 150.24 267.535C158.389 273.661 166.443 278.16 174.305 280.744C177.565 281.797 181.016 282.467 184.564 283.137L185.427 283.329C191.083 284.286 195.686 284.286 200 283.233L200 288.689C197.795 289.168 195.59 289.359 193.193 289.359C190.508 289.359 187.632 289.072 184.66 288.498Z" fill="#EAE9C6"/>
<path d="M182.167 303.908L181.016 303.716C176.798 302.951 172.483 302.089 168.265 300.749C158.389 297.495 148.322 291.943 138.255 284.285C132.79 280.17 128.763 276.341 125.503 272.225L125.312 272.033L125.216 271.842C119.175 259.973 118.984 246.668 118.696 233.746C118.6 229.63 118.6 225.801 118.313 221.972C117.641 211.443 109.396 203.594 101.438 195.937L100.288 194.884C83.9885 179.186 98.8494 149.704 111.985 134.868C117.737 128.455 125.503 125.775 132.982 123.19C139.118 121.084 144.966 119.17 149.473 115.246C151.87 107.492 157.239 101.271 165.005 97.1547C172.196 93.4216 180.729 91.7944 189.166 92.6559L189.453 92.6559L189.741 92.7516C193.576 94.0916 196.932 96.1017 199.808 98.4947L199.808 105.674C196.548 102.228 192.905 99.4519 188.303 97.8247C181.112 97.1546 173.538 98.5904 167.498 101.749C160.69 105.291 156.28 110.555 154.362 117.351L154.171 118.117L153.595 118.596C148.13 123.573 141.323 125.87 134.708 128.168C127.517 130.561 120.805 132.858 115.916 138.314C103.164 152.672 90.9875 178.612 103.931 191.055L104.986 192.108C113.231 200.053 122.627 209.146 123.49 221.685C123.778 225.61 123.778 229.726 123.873 233.65C124.065 245.902 124.353 258.537 129.626 269.162C132.598 272.799 136.242 276.341 141.227 280.074C150.815 287.348 160.403 292.613 169.703 295.676C173.538 296.92 177.565 297.686 181.783 298.452L182.934 298.643C189.358 299.888 194.727 299.888 199.808 298.643L199.808 304.099C197.22 304.674 194.631 304.865 191.85 304.865C188.974 304.961 185.714 304.578 182.167 303.908Z" fill="#EAE9C6"/>
<path d="M179.77 319.415L178.332 319.127C173.538 318.266 168.552 317.309 163.854 315.777C152.541 312.044 141.036 305.727 129.434 296.921C123.202 292.23 118.6 287.827 114.861 283.137L114.669 282.946L114.573 282.658C107.766 269.162 107.574 253.943 107.383 239.106C107.287 234.32 107.287 229.821 106.999 225.323C106.232 213.071 96.5485 203.882 87.1525 195.075L86.0019 194.022C67.21 176.314 84.1803 142.621 99.3289 125.583C105.849 118.213 114.669 115.341 123.298 112.47C130.489 110.077 137.296 107.78 142.57 103.185C145.158 94.2832 151.198 87.1042 160.115 82.3183C168.265 78.1066 177.948 76.288 187.536 77.2452L187.824 77.2452L188.111 77.3409C192.809 79.0638 196.644 81.4568 200 84.3284L200 91.603C196.261 87.6785 192.042 84.4241 186.673 82.414C178.332 81.6482 169.607 83.2755 162.512 87.0085C154.65 91.2202 149.473 97.3462 147.363 105.291L147.172 106.057L146.596 106.535C140.364 112.278 132.502 114.863 124.832 117.447C116.587 120.223 108.725 122.807 103.164 129.125C88.303 145.78 74.3049 175.836 89.5494 190.194L90.6999 191.247C100.384 200.34 111.409 210.678 112.272 225.035C112.56 229.63 112.56 234.416 112.656 239.01C112.848 253.081 113.039 267.63 119.175 279.978C122.627 284.19 126.846 288.306 132.598 292.613C143.72 301.228 154.746 307.258 165.484 310.8C169.895 312.236 174.497 313.097 179.291 313.959L180.729 314.246C188.111 315.586 194.247 315.586 200 314.246L200 319.702C197.124 320.276 194.152 320.659 190.988 320.659C187.44 320.563 183.797 320.18 179.77 319.415Z" fill="#EAE9C6"/>
<path d="M177.277 334.921L175.551 334.634C170.182 333.677 164.621 332.624 159.252 330.805C146.596 326.594 133.557 319.51 120.518 309.556C113.519 304.195 108.245 299.314 104.123 293.953L103.931 293.762L103.835 293.475C96.2608 278.351 96.0691 261.122 95.9732 244.562C95.9732 239.106 95.8773 233.938 95.5897 228.769C94.8227 214.698 83.5091 204.265 72.675 194.31L71.5245 193.257C50.1439 173.443 69.3193 135.634 86.3854 116.49C93.6721 108.258 103.643 105.004 113.327 101.845C121.572 99.165 129.243 96.5806 135.379 91.2203C138.255 81.0741 144.966 72.938 154.938 67.6734C164.046 62.7918 174.976 60.6859 185.81 61.8346L186.098 61.8346L186.385 61.9303C191.659 63.8447 196.069 66.7162 200 70.0664L200 77.5325C195.781 73.0337 190.988 69.3007 184.947 67.0991C175.455 66.1419 165.484 68.0563 157.526 72.3637C148.514 77.1496 142.761 84.2328 140.364 93.4219L140.173 94.1876L139.597 94.6662C132.598 101.175 123.682 104.047 115.053 106.918C105.657 109.981 96.8361 112.949 90.4123 120.032C73.442 139.08 57.5264 173.156 75.1678 189.428L76.3183 190.481C87.4401 200.723 100 212.305 100.863 228.577C101.151 233.842 101.246 239.298 101.246 244.562C101.342 260.452 101.534 276.915 108.437 290.986C112.272 295.868 117.162 300.462 123.682 305.44C136.242 315.012 148.802 321.903 160.882 325.924C165.868 327.551 171.045 328.508 176.414 329.561L178.14 329.848C186.481 331.38 193.384 331.38 199.904 329.848L199.904 335.304C196.644 335.974 193.289 336.357 189.741 336.357C185.906 336.165 181.783 335.783 177.277 334.921Z" fill="#EAE9C6"/>
<path d="M174.88 350.428L172.963 350.045C167.018 348.896 160.786 347.748 154.938 345.833C140.844 341.143 126.27 333.198 111.793 322.191C104.027 316.256 98.1784 310.704 93.5763 304.865L93.3845 304.674L93.2886 304.387C84.9473 287.54 84.8514 268.492 84.7555 250.018C84.7555 243.892 84.6597 238.053 84.372 232.31C83.5091 216.421 70.7575 204.839 58.4852 193.544L57.3346 192.491C33.4612 170.667 54.7459 128.742 73.8255 107.397C81.8792 98.3035 93.001 94.7619 103.643 91.2203C112.848 88.253 121.572 85.3815 128.38 79.3511C131.448 68.0563 138.926 58.963 149.952 53.0284C159.923 47.6681 172.387 45.2751 184.18 46.5195L184.468 46.5195L184.66 46.7109C190.7 48.8167 195.686 52.1669 200 56.0914L200 63.4618C195.302 58.3887 189.933 54.2727 183.221 51.784C172.579 50.7311 161.361 52.837 152.445 57.7186C142.378 63.1746 135.858 71.1193 133.269 81.457L133.078 82.2227L132.502 82.797C124.736 89.976 114.861 93.2304 105.177 96.3891C94.6309 99.835 84.7555 102.994 77.6606 111.034C58.6769 132.38 40.8437 170.571 60.7862 188.758L61.9367 189.811C74.4008 201.202 88.5906 214.124 89.5494 232.119C89.837 238.053 89.9329 244.179 89.9329 250.114C90.0288 267.918 90.1247 286.2 97.7949 301.898C102.109 307.354 107.574 312.523 114.957 318.075C129.051 328.795 143.049 336.453 156.568 340.951C162.129 342.77 167.881 343.823 173.921 344.972L175.839 345.355C185.043 347.077 192.809 347.077 200 345.355L200 350.811C196.357 351.576 192.713 351.959 188.782 351.959C184.468 351.863 179.866 351.385 174.88 350.428Z" fill="#EAE9C6"/>
<path d="M172.387 365.934L170.182 365.551C163.567 364.307 156.855 363.063 150.336 360.957C134.612 355.788 119.08 347.269 102.78 334.825C94.1515 328.317 87.8236 322.191 82.7421 315.777L82.5504 315.586L82.4545 315.299C73.3462 296.825 73.2503 275.767 73.2503 255.474C73.2503 248.582 73.2503 242.169 72.8668 235.756C71.908 218.048 57.7182 205.222 43.9118 192.778L42.7613 191.725C31.0643 181.101 28.0921 164.828 34.2282 144.44C38.9262 128.934 48.8974 111.704 60.8821 98.2078C69.7028 88.253 81.8792 84.3285 93.6721 80.5955C103.931 77.2453 113.615 74.1823 121.189 67.3862C124.545 54.9428 132.598 44.8922 144.775 38.2876C155.705 32.353 169.415 29.7686 182.359 31.2044L182.646 31.2044L182.934 31.3001C189.645 33.6931 195.206 37.4261 200 41.9249L200 49.391C194.823 43.7436 188.878 39.1491 181.4 36.3732C169.607 35.1289 157.143 37.5219 147.268 42.8821C136.05 48.9124 128.955 57.8143 126.079 69.3006L125.887 70.0664L125.312 70.6407C116.779 78.5854 105.849 82.127 95.2062 85.5729C83.605 89.3059 72.5791 92.8475 64.7172 101.654C43.6242 125.296 23.9694 167.604 46.2129 187.705L47.3634 188.758C61.9368 201.872 76.9895 215.464 78.0441 235.373C78.4276 241.882 78.4276 248.774 78.4276 255.379C78.4276 275.001 78.5235 295.293 86.9607 312.619C91.7546 318.649 97.7949 324.296 105.944 330.518C121.477 342.387 137.009 350.906 151.966 355.788C158.102 357.798 164.43 358.947 171.141 360.191L173.346 360.574C183.509 362.488 192.042 362.488 199.904 360.67L199.904 366.126C195.973 366.987 191.85 367.37 187.536 367.37C182.934 367.466 177.852 366.891 172.387 365.934Z" fill="#EAE9C6"/>
<path d="M169.99 381.345L167.498 380.866C160.307 379.526 152.924 378.186 145.925 375.889C128.763 370.241 111.793 360.957 93.9598 347.364C84.5638 340.186 77.5648 333.581 72.0039 326.498L71.8121 326.306L71.7162 326.019C61.745 305.822 61.8409 282.946 61.8409 260.739C61.8409 253.177 61.8409 246.094 61.4574 239.01C60.4027 219.484 44.6788 205.413 29.5302 191.821L28.3797 190.768C15.5321 179.282 12.2723 161.574 18.9837 139.367C24.0652 122.425 34.9952 103.568 48.0345 88.9229C57.6223 78.1067 70.9492 73.895 83.7968 69.7791C95.1103 66.1418 105.753 62.6959 114.094 55.2298C117.641 41.6377 126.462 30.63 139.693 23.4511C151.582 16.9422 166.539 14.1663 180.633 15.6978L180.92 15.6978L181.208 15.7935C188.686 18.6651 194.727 22.781 200 27.7584L200 35.3202C194.343 29.1942 187.824 24.1211 179.674 21.0581C166.731 19.718 153.116 22.3024 142.186 28.237C129.914 34.9374 122.052 44.7007 118.984 57.4314L118.792 58.1971L118.217 58.7714C109.012 67.4819 96.9319 71.3106 85.3308 75.0437C72.5791 79.1596 60.5945 82.9884 51.9655 92.656C39.3097 106.822 28.8591 124.913 23.9693 141.09C19.7507 155.065 17.7373 174.4 31.8313 187.035L32.9818 188.088C48.9933 202.446 65.5801 217.187 66.7306 238.915C67.1141 246.094 67.1141 253.656 67.1141 260.93C67.1141 282.371 67.1141 304.578 76.3183 323.626C81.5916 330.231 88.2071 336.453 97.1237 343.249C114.382 356.458 130.873 365.455 147.555 370.911C154.267 373.113 161.17 374.357 168.456 375.793L170.949 376.272C181.975 378.377 191.275 378.378 200 376.367L200 381.823C195.686 382.781 191.275 383.163 186.577 383.163C181.4 383.068 175.935 382.493 169.99 381.345Z" fill="#EAE9C6"/>
<path d="M141.515 390.917L141.419 390.917C121.668 383.834 102.78 373.4 85.1391 359.999C74.9761 352.246 67.4018 345.067 61.3615 337.41L61.1697 337.218L61.0739 336.931C50.1439 314.629 50.2397 289.263 50.3356 264.663C50.3356 257.006 50.4315 249.635 50.1438 242.456C48.8974 222.164 32.8859 207.423 17.4497 193.257C16.2992 192.204 15.1486 191.151 13.9981 190.098C-0.0958554 178.133 -3.54744 159.085 3.83511 135.06C9.3001 117.447 20.9972 96.772 35.187 79.9254L35.2828 79.8297C45.8294 68.7263 59.9233 64.1318 73.6338 59.633C86.0019 55.6128 97.7948 51.784 106.999 43.3607C110.738 28.62 120.23 16.6551 134.516 8.90184C147.363 1.81862 163.567 -1.24439 178.811 0.478551L179.099 0.478551L179.386 0.57427C187.536 3.54156 194.151 7.94464 200 13.3049L200 20.6753C193.768 14.2621 186.769 8.99755 177.852 5.64738C163.758 4.2116 148.897 7.08317 137.009 13.4964C123.586 20.771 115.149 31.5873 111.793 45.3708L111.601 46.1366L111.026 46.7109C100.863 56.2828 87.8236 60.4944 75.1678 64.6104C61.5532 69.0134 48.8016 73.2251 39.1179 83.3713C25.4075 99.7393 14.094 119.649 8.82074 136.591C1.91757 158.798 4.79388 175.357 17.3538 186.078L17.4497 186.174C18.6002 187.227 19.7507 188.279 20.9013 189.428C37.1045 204.36 53.8831 219.867 55.3212 242.265L55.3212 242.361C55.6089 249.731 55.6088 257.389 55.513 264.855C55.4171 288.689 55.3212 313.384 65.5801 334.538C71.2369 341.717 78.5235 348.513 88.2071 355.979C105.369 368.997 123.778 379.143 142.953 386.131C151.199 388.619 159.732 390.534 168.265 391.874L168.456 391.874C179.386 394.267 189.933 394.267 199.904 391.97L199.904 397.426C198.37 397.809 196.74 398.096 195.11 398.287L174.017 398.287C171.812 398 169.607 397.617 167.498 397.138C158.773 395.511 150.048 393.501 141.515 390.917Z" fill="#EAE9C6"/>
</g>
<defs>
<clipPath id="clip0">
<rect width="200" height="398" fill="white" transform="matrix(-1 8.74228e-08 8.74228e-08 1 200 0)"/>
</clipPath>
</defs>
</svg>
