<svg width="519" height="261" viewBox="0 0 519 261" fill="none" xmlns="http://www.w3.org/2000/svg">
<g opacity="0.15" clip-path="url(#clip0)">
<path d="M243.523 259.874C243.648 255.244 245.521 250.99 248.891 247.737C252.261 244.484 256.63 242.858 261.248 242.983C265.866 243.108 270.11 244.985 273.355 248.363C276.601 251.741 278.223 256.12 278.099 260.75C278.099 260.875 278.099 261 278.099 261.125L271.233 261.125C271.233 260.875 271.233 260.75 271.233 260.499C271.358 257.747 270.235 255.119 268.363 253.117C266.49 251.115 263.869 249.989 261.123 249.864C258.377 249.864 255.756 250.865 253.759 252.742C251.762 254.619 250.638 257.246 250.513 259.999C250.513 260.374 250.513 260.75 250.513 261L243.648 261C243.648 260.75 243.648 260.499 243.648 260.249C243.523 260.124 243.523 259.999 243.523 259.874Z" fill="white"/>
<path d="M223.178 257.997C223.178 256.621 223.303 255.244 223.552 253.743C223.802 252.241 224.176 250.615 224.676 248.988C225.799 245.36 227.796 241.857 230.292 238.478C231.665 236.602 233.038 235.1 234.536 233.849L234.911 233.599C239.654 230.596 244.896 229.845 249.889 229.094C250.388 228.969 250.888 228.969 251.387 228.844C253.759 228.469 256.005 227.092 258.377 225.716C259.001 225.341 259.625 224.965 260.249 224.59C267.239 220.711 276.85 224.465 283.341 230.095C286.087 232.473 287.585 235.601 288.833 238.353C289.582 239.855 290.206 241.231 290.955 242.357C293.326 243.984 295.199 246.361 296.322 249.364C297.445 252.241 297.945 255.369 297.695 258.623L297.695 258.873L297.57 259.123C297.445 259.874 297.196 260.499 296.946 261.125L289.083 261.125C289.831 260.124 290.456 258.998 290.705 257.747C290.83 255.745 290.456 253.743 289.707 251.991C288.958 250.114 287.834 248.738 286.461 247.862L285.837 247.487L285.463 246.986C284.09 245.11 283.216 243.108 282.217 241.231C281.094 238.854 280.095 236.727 278.473 235.35C273.979 231.472 267.114 228.469 263.245 230.596C262.621 230.971 262.121 231.221 261.497 231.597C258.751 233.223 255.756 235.1 252.011 235.601C251.512 235.726 251.013 235.726 250.513 235.851C246.02 236.476 241.901 237.102 238.406 239.229C237.407 240.105 236.409 241.231 235.41 242.607C233.288 245.36 231.79 248.238 230.792 251.115C230.417 252.367 230.043 253.743 229.793 254.994C229.419 256.746 229.419 258.372 229.668 259.749L229.668 260.124C229.668 260.374 229.793 260.625 229.918 261L222.803 261C222.803 260.875 222.803 260.75 222.803 260.75C223.303 259.874 223.178 258.873 223.178 257.997Z" fill="white"/>
<path d="M203.456 250.49C203.956 247.988 204.455 245.485 205.204 242.983C206.951 237.603 209.947 232.097 214.066 226.717C216.188 223.839 218.435 221.587 220.557 219.71L220.806 219.585L221.056 219.46C227.796 215.581 235.41 214.956 242.65 214.33C244.272 214.205 245.77 214.08 247.268 213.955C251.762 213.454 255.506 210.452 259.5 207.324C260 206.948 260.499 206.448 261.123 206.072C270.609 198.69 285.588 204.696 295.573 213.329C299.443 216.708 301.315 221.087 302.938 225.341C304.061 228.093 305.06 230.721 306.682 232.723C310.676 234.6 313.797 237.978 315.794 242.357C317.666 246.486 318.54 251.366 318.166 256.12L318.166 256.496L318.041 256.871C317.542 258.372 317.042 259.749 316.293 261L307.806 261C309.303 259.248 310.552 257.497 311.301 255.244C311.55 251.741 310.926 248.238 309.553 245.36C308.055 242.107 305.933 239.855 303.062 238.729L302.314 238.353L301.814 237.728C299.318 234.725 297.945 231.221 296.572 227.843C295.074 224.215 293.701 220.837 291.08 218.459C284.215 212.579 271.858 206.448 265.492 211.453C264.992 211.828 264.493 212.203 263.994 212.704C259.625 216.207 254.757 220.086 248.267 220.837C246.644 220.962 245.021 221.087 243.523 221.212C236.783 221.712 230.417 222.338 225.05 225.216C223.303 226.717 221.68 228.469 219.808 230.846C216.188 235.601 213.567 240.355 212.069 245.11C211.445 247.112 210.946 249.364 210.571 251.741C209.947 254.869 209.947 257.497 210.446 259.999L210.571 260.5C210.571 260.625 210.571 260.875 210.696 261L203.706 261C203.456 259.499 203.332 257.997 203.332 256.496C202.832 254.494 203.082 252.617 203.456 250.49Z" fill="white"/>
<path d="M183.235 247.237L183.36 246.861C183.984 243.608 184.608 240.355 185.607 237.102C187.978 229.845 191.973 222.463 197.589 215.081C200.585 211.077 203.456 208.074 206.452 205.697L206.701 205.447L206.951 205.322C215.813 200.442 225.799 199.942 235.41 199.441C237.906 199.316 240.403 199.191 242.774 198.941C249.514 198.315 254.757 193.56 260.374 188.556C260.873 188.055 261.372 187.68 261.872 187.179C274.603 175.793 296.072 186.429 307.306 196.438C312.299 200.817 314.545 206.698 316.667 212.328C318.165 216.332 319.663 220.211 322.035 223.214C327.527 225.466 331.895 229.72 334.766 235.601C337.512 241.106 338.636 247.487 338.012 253.868L338.012 254.244L337.887 254.619C337.138 256.996 336.139 259.123 334.891 261L326.029 261C328.276 258.623 330.148 256.12 331.271 252.867C331.646 247.988 330.772 242.858 328.65 238.729C326.403 234.099 323.033 230.971 318.789 229.47L317.916 229.22L317.291 228.469C313.797 224.34 311.924 219.46 310.177 214.831C308.304 209.826 306.557 205.071 302.812 201.693C293.076 193.06 275.352 184.552 266.49 192.434C265.991 192.81 265.491 193.31 264.992 193.811C259.126 199.191 252.385 205.197 243.398 205.947C240.902 206.198 238.281 206.323 235.784 206.448C227.047 206.948 217.935 207.449 210.446 211.327C207.95 213.454 205.578 215.957 202.957 219.335C197.839 226.092 194.219 232.723 192.097 239.354C191.224 242.107 190.6 245.11 190.1 248.113L189.975 248.488C189.102 252.992 189.102 256.746 189.975 260.249L189.975 260.5L189.975 260.75L189.975 260.875L182.986 260.875C182.611 258.998 182.361 256.996 182.361 254.869C182.486 252.492 182.736 249.989 183.235 247.237Z" fill="white"/>
<path d="M163.015 244.109L163.14 243.358C163.889 239.354 164.638 235.35 166.011 231.347C169.006 222.213 174.124 212.829 181.114 203.695C184.858 198.69 188.478 194.937 192.223 191.934L192.472 191.684L192.722 191.558C203.831 185.678 216.188 185.302 228.296 184.802C231.79 184.677 235.036 184.552 238.281 184.302C247.268 183.676 254.383 176.794 261.373 170.038L262.871 168.662C278.223 153.897 305.06 167.285 319.289 179.922C325.405 185.428 328.026 192.685 330.523 199.691C332.395 205.071 334.267 210.076 337.513 214.08C344.503 216.582 350.244 221.837 353.864 229.094C357.234 235.851 358.732 243.859 357.983 251.741L357.983 252.116L357.983 252.367C356.86 255.62 355.362 258.372 353.49 261L344.378 261C347.373 257.997 349.87 254.744 351.243 250.615C351.867 244.109 350.619 237.603 347.873 232.097C344.752 226.092 340.384 222.088 334.517 220.211L333.643 219.961L333.019 219.21C328.526 214.08 326.279 207.824 324.157 201.818C321.785 195.312 319.663 189.181 314.796 184.927C302.064 173.666 278.972 162.656 267.739 173.541L266.366 174.918C259.001 182.049 250.513 190.182 239.03 191.058C235.66 191.308 232.165 191.433 228.67 191.558C217.561 191.934 205.953 192.434 196.342 197.314C193.096 199.942 189.976 203.32 186.606 207.699C179.99 216.332 175.372 224.965 172.501 233.349C171.378 236.852 170.629 240.48 169.88 244.484L169.755 245.235C168.632 251.116 168.632 255.995 169.755 260.625L169.755 260.875L162.765 260.875C162.266 258.498 162.016 255.995 162.016 253.368C162.016 250.615 162.391 247.487 163.015 244.109Z" fill="white"/>
<path d="M142.794 240.981L143.043 239.855C143.917 235.1 144.791 230.221 146.413 225.591C150.033 214.581 156.149 203.32 164.637 192.184C169.255 186.178 173.499 181.674 178.118 177.92L178.367 177.67L178.617 177.545C191.848 170.663 206.826 170.288 221.18 169.913C225.549 169.788 229.793 169.663 233.912 169.412C245.271 168.662 254.008 159.778 262.371 151.27L263.744 149.894C271.857 141.761 283.84 139.884 298.444 144.388C309.428 147.767 321.66 154.773 331.146 163.156C338.386 169.663 341.507 178.296 344.377 186.679C346.749 193.31 348.871 199.691 353.115 204.696C361.727 207.574 368.592 213.58 373.086 222.338C377.205 230.346 379.077 239.98 378.079 249.364L378.079 249.739L377.954 250.115C376.581 254.244 374.459 257.872 371.962 261L362.726 261C366.47 257.372 369.466 253.368 371.338 248.238C372.087 240.355 370.465 232.097 367.095 225.466C363.225 217.959 357.608 213.079 350.244 210.952L349.37 210.702L348.746 209.951C343.254 203.82 340.633 196.188 338.012 188.931C335.266 181.048 332.644 173.541 326.778 168.286C310.926 154.273 282.467 140.885 268.737 154.648L267.364 156.024C258.501 165.033 248.391 175.168 234.411 176.169C230.167 176.419 225.674 176.544 221.43 176.669C207.95 177.045 193.845 177.42 182.112 183.301C178.118 186.554 174.248 190.683 170.129 196.063C162.141 206.698 156.274 217.208 152.904 227.468C151.531 231.722 150.657 236.226 149.784 240.856L149.534 241.982C148.286 249.364 148.286 255.37 149.659 261L142.544 261C141.92 258.122 141.67 255.244 141.67 252.116C141.67 248.613 142.045 244.86 142.794 240.981Z" fill="white"/>
<path d="M122.698 237.727L122.948 236.226C123.946 230.721 125.07 225.09 126.817 219.585C131.061 206.698 138.3 193.56 148.286 180.423C153.653 173.291 158.646 168.036 164.013 163.782L164.263 163.531L164.513 163.406C179.99 155.524 197.34 155.273 214.191 154.898C219.558 154.773 224.551 154.773 229.544 154.398C243.274 153.522 253.509 142.761 263.495 132.377L264.868 130.875C285.338 109.605 323.782 128.998 343.13 146.14C351.492 153.647 354.987 163.782 358.357 173.541C361.104 181.549 363.6 189.181 368.718 195.062C378.828 198.19 386.941 205.196 392.308 215.331C397.176 224.715 399.298 235.851 398.175 246.861L398.175 247.237L398.05 247.612C396.303 252.617 393.681 256.996 390.561 260.75L381.199 260.75C385.693 256.495 389.313 251.741 391.435 245.735C392.308 236.351 390.436 226.467 386.317 218.584C381.699 209.701 374.834 203.945 365.971 201.443L364.973 201.192L364.349 200.442C357.858 193.31 354.863 184.426 351.867 175.793C348.746 166.409 345.751 157.651 338.636 151.27C319.913 134.629 286.087 118.738 269.86 135.63L268.487 137.006C258.127 147.766 246.269 160.028 229.918 161.154C224.8 161.529 219.433 161.529 214.316 161.655C198.339 161.905 181.863 162.28 168.008 169.162C163.264 173.04 158.646 177.795 153.778 184.301C144.292 196.813 137.427 209.325 133.433 221.462C131.81 226.467 130.811 231.722 129.813 237.227L129.563 238.728C127.94 247.111 127.94 254.118 129.563 260.749L122.448 260.749C121.699 257.371 121.45 253.993 121.45 250.365C121.325 246.611 121.824 242.357 122.698 237.727Z" fill="white"/>
<path d="M102.477 234.6L102.852 232.723C103.975 226.467 105.223 219.961 107.22 213.83C112.088 199.066 120.327 184.051 131.81 168.912C137.926 160.779 143.668 154.773 149.784 149.894L150.034 149.643L150.408 149.518C168.008 140.635 187.854 140.384 207.201 140.134C213.442 140.009 219.309 140.009 225.175 139.634C241.152 138.633 253.135 125.996 264.618 113.734L265.991 112.233C289.083 87.709 333.019 109.855 355.237 129.624C364.848 138.132 368.593 149.643 372.337 160.904C375.458 170.288 378.454 179.172 384.445 186.053C396.053 189.431 405.415 197.314 411.656 208.95C417.148 219.585 419.519 232.222 418.271 244.734L418.271 245.11L418.146 245.485C415.899 251.616 412.779 256.621 409.034 261L399.548 261C404.666 256.12 408.91 250.615 411.531 243.608C412.529 232.723 410.407 221.337 405.539 212.078C400.047 201.818 392.059 195.062 381.699 192.309L380.7 192.059L380.076 191.308C372.587 183.175 369.217 172.916 365.847 162.906C362.227 152.146 358.857 141.886 350.619 134.629C328.9 115.235 289.707 96.9679 270.984 116.862L269.611 118.363C257.753 131 244.272 145.389 225.549 146.515C219.558 146.891 213.317 146.891 207.326 147.016C188.977 147.266 170.005 147.516 153.903 155.524C148.411 160.028 143.044 165.534 137.427 173.041C126.193 187.555 118.329 201.943 113.711 215.957C111.839 221.712 110.715 227.718 109.592 233.974L109.218 235.851C107.47 245.485 107.47 253.493 109.218 261L102.103 261C101.354 257.246 100.855 253.368 100.855 249.239C100.979 244.609 101.479 239.855 102.477 234.6Z" fill="white"/>
<path d="M82.2562 231.347L82.6306 229.094C83.8788 222.088 85.2519 214.831 87.6234 207.824C93.1155 191.308 102.352 174.292 115.333 157.276C122.323 148.142 128.689 141.26 135.679 135.88L135.929 135.63L136.303 135.505C156.025 125.62 178.492 125.37 200.086 125.245C207.201 125.245 213.941 125.12 220.681 124.744C239.03 123.744 252.635 108.979 265.616 94.8409L266.989 93.3394C292.827 65.4377 342.131 90.4617 367.095 112.733C377.829 122.242 382.073 135.255 386.192 147.892C389.687 158.652 393.057 168.662 400.047 176.669C413.278 180.423 423.888 189.181 430.753 202.194C437.118 214.08 439.864 228.344 438.367 242.482L438.367 242.858L438.242 243.233C435.745 250.115 432.001 255.87 427.632 261L417.896 261C423.763 255.495 428.631 249.239 431.502 241.356C432.75 228.969 430.253 215.957 424.636 205.572C418.395 193.811 409.159 186.303 397.176 183.175L396.178 182.925L395.553 182.175C387.066 173.041 383.321 161.405 379.577 150.144C375.582 137.882 371.713 126.371 362.476 117.988C337.637 95.8418 293.201 75.0719 271.982 98.094L270.609 99.5954C257.253 114.109 242.15 130.5 220.931 131.626C214.066 132.001 206.951 132.127 200.086 132.127C179.366 132.252 157.897 132.502 139.548 141.511C133.183 146.515 127.191 152.896 120.701 161.405C108.219 177.795 99.2317 194.186 93.9892 209.951C91.8673 216.457 90.6191 223.214 89.2461 230.221L88.8716 232.473C86.8745 243.358 86.8745 252.367 88.8716 260.875L81.7569 260.875C80.8832 256.621 80.3839 252.242 80.3839 247.612C80.6335 242.607 81.1328 237.227 82.2562 231.347Z" fill="white"/>
<path d="M62.0354 228.219L62.5346 225.716C64.0325 217.959 65.5303 209.826 68.0267 202.194C74.1429 183.801 84.5029 164.783 98.8572 145.89C106.596 135.755 113.836 128.123 121.45 122.117L121.699 121.867L122.074 121.742C144.042 110.856 168.881 110.731 192.971 110.606C200.96 110.606 208.574 110.481 216.063 110.105C236.783 108.979 251.886 92.3385 266.615 76.3231L267.988 74.8217C296.447 43.6669 351.118 71.4435 378.952 96.3423C390.81 106.852 395.429 121.366 400.047 135.255C403.916 147.266 407.661 158.652 415.525 167.535C430.253 171.539 442.111 181.299 449.85 195.687C456.84 208.7 459.96 224.965 458.338 240.355L458.338 240.731L458.088 240.981C455.342 248.863 450.973 255.37 445.856 261L436.245 261C442.86 254.869 448.227 247.862 451.473 239.104C452.846 225.216 450.1 210.577 443.734 198.941C436.619 185.803 426.259 177.295 412.779 173.917L411.78 173.666L411.031 172.916C401.67 162.781 397.426 149.894 393.307 137.256C388.813 123.493 384.694 110.606 374.209 101.347C346.375 76.5734 296.571 53.3011 272.856 79.326L271.483 80.8275C256.629 97.093 239.779 115.611 216.312 116.862C208.574 117.237 200.585 117.362 192.846 117.362C169.63 117.488 145.789 117.613 125.319 127.622C118.204 133.253 111.464 140.384 104.224 150.019C90.2446 168.411 80.259 186.679 74.3925 204.321C72.0209 211.578 70.6479 219.085 69.1501 226.967L68.6508 229.47C66.4041 241.481 66.4041 251.616 68.6508 261L61.5361 261C60.5375 256.245 60.0382 251.491 60.0382 246.361C60.1631 240.731 60.7872 234.725 62.0354 228.219Z" fill="white"/>
<path d="M41.8151 224.965L42.3143 222.088C43.937 213.454 45.5596 204.696 48.3056 196.188C55.0459 175.668 66.1549 155.399 82.3814 134.128C90.8692 122.868 98.8576 114.61 107.221 107.978L107.47 107.728L107.845 107.603C131.935 95.7167 159.395 95.5916 185.857 95.5916C194.844 95.5916 203.207 95.5916 211.57 95.0911C234.661 93.8399 251.387 75.3222 267.614 57.3049L268.987 55.8035C282.842 40.5389 304.061 36.6601 330.648 44.6678C350.868 50.7987 373.336 63.8111 390.936 79.4511C403.917 90.9621 409.034 106.852 413.902 122.242C418.271 135.63 422.265 148.267 431.127 158.152C447.354 162.531 460.46 173.041 469.073 188.931C476.811 203.195 480.182 221.087 478.309 237.978L478.309 238.353L478.184 238.729C475.064 247.487 470.196 254.744 464.33 261L454.594 261C461.958 254.244 467.949 246.486 471.569 236.727C473.192 221.337 470.071 205.071 463.081 192.184C455.218 177.545 443.609 168.286 428.631 164.533L427.633 164.282L426.884 163.532C416.524 152.396 411.905 138.132 407.412 124.244C402.544 109.105 397.925 94.7157 386.442 84.4559C355.612 56.9295 300.441 31.28 274.229 60.3078L272.856 61.8092C255.756 80.8274 238.032 100.471 212.069 101.848C203.581 102.348 194.594 102.348 185.982 102.348C160.394 102.348 133.932 102.473 111.34 113.484C103.476 119.74 96.1116 127.622 87.9983 138.257C72.5207 158.527 61.4117 178.796 55.0459 198.315C52.4247 206.323 50.9269 214.581 49.3042 223.339L48.8049 226.217C46.3085 239.479 46.3086 250.615 48.6801 260.875L41.5654 260.875C40.442 255.745 39.9427 250.365 39.9427 244.734C39.8179 238.729 40.5669 232.097 41.8151 224.965Z" fill="white"/>
<path d="M21.7188 221.837L22.3429 218.584C24.0904 209.2 25.8378 199.566 28.8335 190.432C36.1979 168.036 48.3054 145.89 66.0298 122.617C75.3913 110.356 84.0038 101.222 93.2405 93.965L93.4901 93.7148L93.8645 93.5896C120.201 80.5772 150.033 80.7023 178.992 80.7023C188.852 80.7023 198.089 80.7023 207.326 80.2018C232.789 78.8255 251.137 58.3058 268.862 38.5369L270.235 37.0355C285.213 20.2694 308.305 16.0153 337.263 24.7737C359.356 31.4051 383.945 45.6687 403.043 62.6851C417.147 75.197 422.639 92.5887 428.007 109.355C432.75 124.119 437.243 138.007 446.979 148.893C464.704 153.522 479.058 165.033 488.419 182.3C496.907 197.814 500.527 217.333 498.53 235.726L498.53 236.101L498.405 236.477C494.66 246.236 489.293 254.118 482.803 261L472.942 261C480.93 253.618 487.546 245.11 491.54 234.475C493.287 217.583 489.917 199.816 482.178 185.553C473.441 169.537 460.709 159.278 444.108 155.274L443.11 155.023L442.361 154.273C431.002 142.261 426.01 126.496 421.142 111.357C415.774 94.7157 410.782 79.0758 398.175 67.815C379.702 51.2991 356.111 37.6611 335.016 31.28C316.792 25.7747 291.579 23.1472 275.103 41.5398L273.73 43.0412C255.007 63.9362 235.784 85.582 207.45 87.0834C198.089 87.5839 188.228 87.5839 178.742 87.5839C150.782 87.5839 121.824 87.5839 96.9851 99.5954C88.3725 106.477 80.2592 115.11 71.397 126.746C54.1719 149.268 42.4389 170.789 35.3242 192.559C32.4533 201.318 30.8306 210.326 28.9583 219.836L28.3342 223.089C25.5882 237.477 25.5882 249.614 28.2094 261L21.0947 261C19.8465 255.37 19.3473 249.614 19.3473 243.483C19.4721 236.727 20.221 229.595 21.7188 221.837Z" fill="white"/>
<path d="M9.23694 184.677L9.23694 184.552C18.4736 158.777 32.0789 134.128 49.5537 111.106C59.6641 97.8437 69.0255 87.9593 79.0111 80.0767L79.2608 79.8265L79.6352 79.7014C108.718 65.4377 141.795 65.5628 173.874 65.6879C183.86 65.6879 193.471 65.8131 202.832 65.4377C229.294 63.8111 248.516 42.9161 266.989 22.7718C268.362 21.2704 269.735 19.769 271.109 18.2675C286.711 -0.125102 311.55 -4.6294 342.88 5.00481C365.847 12.1367 392.808 27.4013 414.776 45.919L414.901 46.0441C429.38 59.8073 435.371 78.1999 441.238 96.0921C446.48 112.233 451.473 127.622 462.457 139.634C481.679 144.513 497.282 156.9 507.392 175.543C516.629 192.309 520.623 213.454 518.376 233.349L518.376 233.724L518.251 234.099C514.382 244.734 508.64 253.368 501.65 261L492.039 261C500.402 252.867 507.267 243.733 511.636 232.097C513.508 213.705 509.764 194.311 501.401 178.796C491.914 161.28 477.81 150.269 459.836 145.89L458.837 145.64L458.088 144.889C445.606 131.626 440.114 114.61 434.747 98.094C429.005 80.327 423.513 63.686 410.282 51.0489C388.938 33.1568 362.976 18.3926 340.883 11.5111C311.925 2.50243 290.331 6.25602 276.351 22.6467L276.226 22.7718C274.853 24.2733 273.48 25.7747 271.982 27.2761C252.51 48.4214 232.29 70.3174 203.082 72.1942L202.957 72.1942C193.346 72.5695 183.36 72.5695 173.624 72.4444C142.544 72.3193 110.341 72.1942 82.7557 85.582C73.3942 92.9641 64.5321 102.473 54.7961 115.11C37.8206 137.507 24.5898 161.53 15.4779 186.554C12.2326 197.314 9.73621 208.45 7.98874 219.585L7.98874 219.836C4.86823 234.099 4.86823 247.862 7.86392 260.875L0.749207 260.875C0.249878 258.873 -0.124573 256.746 -0.374206 254.619L-0.374205 227.093C0.000245749 224.215 0.499574 221.337 1.12366 218.584C3.24561 207.198 5.86682 195.813 9.23694 184.677Z" fill="white"/>
</g>
<defs>
<clipPath id="clip0">
<rect width="261" height="519" fill="white" transform="matrix(4.37114e-08 -1 -1 -4.37114e-08 519 261)"/>
</clipPath>
</defs>
</svg>
