<svg width="175" height="347" viewBox="0 0 175 347" fill="none" xmlns="http://www.w3.org/2000/svg">
<g opacity="0.05" clip-path="url(#clip0_1_955)">
<path d="M0.755184 184.182C3.85921 184.098 6.71156 182.846 8.89277 180.593C11.074 178.34 12.1646 175.419 12.0807 172.331C11.9968 169.243 10.7384 166.406 8.47331 164.236C6.20821 162.066 3.27196 160.982 0.167938 161.065C0.084045 161.065 0.000152379 161.065 -0.0837402 161.065L-0.0837406 165.655C0.0840446 165.655 0.167937 165.655 0.335722 165.655C2.18136 165.572 3.9431 166.323 5.28539 167.574C6.62767 168.826 7.3827 170.579 7.46659 172.415C7.46659 174.251 6.79545 176.003 5.53706 177.338C4.27867 178.674 2.51693 179.425 0.671292 179.508C0.419614 179.508 0.167936 179.508 0.000150767 179.508L0.000150365 184.098C0.167936 184.098 0.335721 184.098 0.503506 184.098C0.587399 184.182 0.671291 184.182 0.755184 184.182Z" fill="#AFB15E"/>
<path d="M2.01357 197.785C2.93639 197.785 3.85921 197.702 4.86592 197.535C5.87263 197.368 6.96324 197.118 8.05384 196.784C10.4867 196.033 12.8357 194.698 15.1008 193.028C16.3592 192.11 17.3659 191.192 18.2049 190.191L18.3726 189.941C20.3861 186.769 20.8894 183.264 21.3928 179.926C21.4767 179.592 21.4767 179.259 21.5606 178.925C21.8122 177.339 22.7351 175.837 23.6579 174.251C23.9096 173.834 24.1612 173.417 24.4129 173C27.0136 168.326 24.4968 161.9 20.7216 157.561C19.1277 155.725 17.0304 154.723 15.1847 153.889C14.178 153.388 13.2552 152.971 12.5002 152.47C11.4096 150.884 9.81559 149.633 7.80217 148.881C5.87264 148.13 3.77532 147.797 1.59411 147.964L1.42633 147.964L1.25854 148.047C0.755186 148.13 0.335723 148.297 -0.0837403 148.464L-0.0837407 153.722C0.587401 153.221 1.34243 152.804 2.18136 152.637C3.52364 152.553 4.86593 152.804 6.04042 153.305C7.29881 153.805 8.22163 154.556 8.80888 155.474L9.06056 155.892L9.39613 156.142C10.6545 157.06 11.9968 157.644 13.2552 158.312C14.8492 159.063 16.2753 159.73 17.1981 160.815C19.7988 163.82 21.8122 168.41 20.3861 170.997C20.1344 171.414 19.9666 171.748 19.7149 172.165C18.6243 174.001 17.3659 176.004 17.0304 178.508C16.9465 178.841 16.9465 179.175 16.8626 179.509C16.4431 182.513 16.0236 185.267 14.5975 187.604C14.0102 188.272 13.2552 188.939 12.3324 189.607C10.4867 191.026 8.5572 192.027 6.62767 192.695C5.78874 192.945 4.86592 193.195 4.027 193.362C2.8525 193.613 1.76189 193.613 0.839075 193.446L0.587397 193.446C0.419612 193.446 0.251826 193.362 0.000148466 193.279L0.00014805 198.036C0.0840407 198.036 0.167933 198.036 0.167933 198.036C0.755182 197.702 1.42632 197.785 2.01357 197.785Z" fill="#AFB15E"/>
<path d="M7.04697 210.97C8.72483 210.637 10.4027 210.303 12.0805 209.802C15.6879 208.634 19.3792 206.631 22.9866 203.877C24.9161 202.458 26.4262 200.956 27.6846 199.537L27.7685 199.37L27.8524 199.204C30.453 194.697 30.8725 189.606 31.2919 184.766C31.3758 183.681 31.4597 182.68 31.5436 181.678C31.8792 178.674 33.8926 176.17 35.9899 173.5C36.2416 173.166 36.5772 172.832 36.8289 172.415C41.7785 166.072 37.7517 156.058 31.9631 149.382C29.698 146.795 26.7618 145.543 23.9094 144.458C22.0638 143.707 20.302 143.039 18.9597 141.954C17.7013 139.284 15.4362 137.198 12.5 135.862C9.73155 134.61 6.45973 134.026 3.27181 134.277L3.02013 134.277L2.76846 134.36C1.76175 134.694 0.838926 135.028 -1.14411e-07 135.528L-6.10522e-07 141.203C1.1745 140.202 2.34899 139.367 3.85906 138.867C6.20805 138.7 8.55705 139.117 10.4866 140.035C12.6678 141.036 14.1779 142.455 14.9329 144.375L15.1846 144.875L15.604 145.209C17.6175 146.878 19.9664 147.796 22.2315 148.714C24.6644 149.716 26.9295 150.634 28.5235 152.386C32.4664 156.976 36.5772 165.238 33.2215 169.494C32.9698 169.828 32.7181 170.162 32.3826 170.495C30.0336 173.416 27.4329 176.671 26.9295 181.011C26.8456 182.096 26.7617 183.18 26.6779 184.182C26.3423 188.688 25.9228 192.945 23.9933 196.533C22.9866 197.701 21.8121 198.786 20.2181 200.038C17.0302 202.458 13.8423 204.211 10.6544 205.212C9.31208 205.629 7.80201 205.963 6.20805 206.214C4.11073 206.631 2.34899 206.631 0.671135 206.297L0.335564 206.214C0.251672 206.214 0.0838863 206.214 -6.28661e-06 206.13L-6.69517e-06 210.804C1.00671 210.97 2.01342 211.054 3.02013 211.054C4.36241 211.388 5.6208 211.221 7.04697 210.97Z" fill="#AFB15E"/>
<path d="M9.22818 224.49L9.47986 224.407C11.6611 223.989 13.8423 223.572 16.0235 222.905C20.8893 221.319 25.8389 218.648 30.7886 214.893C33.4732 212.89 35.4866 210.971 37.0805 208.968L37.2483 208.801L37.3322 208.634C40.604 202.709 40.9396 196.033 41.2752 189.607C41.3591 187.938 41.443 186.268 41.6107 184.683C42.0302 180.176 45.2181 176.671 48.5738 172.916C48.9094 172.582 49.1611 172.248 49.4967 171.914C57.1309 163.402 50 149.048 43.2886 141.537C40.3524 138.199 36.4094 136.697 32.6342 135.278C29.9497 134.277 27.349 133.275 25.3356 131.69C23.8255 128.018 20.9732 125.097 17.0302 123.178C13.3389 121.342 9.0604 120.59 4.78188 121.008L4.5302 121.008L4.27852 121.091C2.68456 121.592 1.25839 122.26 -1.92207e-07 123.094L-7.10205e-07 129.019C1.59396 127.517 3.27181 126.265 5.45302 125.514C8.72483 125.264 12.1644 125.848 14.9329 127.267C18.0369 128.769 20.1342 131.022 21.1409 133.86L21.3087 134.444L21.8121 134.861C24.5805 137.198 27.8524 138.45 30.9564 139.618C34.3121 140.87 37.5 142.038 39.7651 144.542C45.5537 151.051 51.2584 162.901 45.9732 168.827C45.7215 169.16 45.3859 169.494 45.0503 169.828C41.443 173.75 37.4161 178.257 36.9128 184.266C36.745 185.935 36.6611 187.687 36.5772 189.356C36.2416 195.198 35.906 201.29 33.3054 206.297C31.8792 207.966 30.2013 209.552 27.9362 211.305C23.406 214.726 18.9597 217.146 14.5134 218.565C12.6678 219.149 10.6544 219.566 8.64093 219.9L8.38926 219.984C5.36912 220.568 2.85234 220.568 0.503347 219.984L0.335562 219.984L0.167777 219.984L0.083884 219.984L0.0838836 224.657C1.34227 224.907 2.68456 225.074 4.11073 225.074C5.70469 224.991 7.38254 224.824 9.22818 224.49Z" fill="#AFB15E"/>
<path d="M11.3255 238.01L11.8288 237.926C14.5134 237.425 17.198 236.925 19.8825 236.007C26.0067 234.004 32.2986 230.582 38.4228 225.909C41.7785 223.405 44.2953 220.985 46.3087 218.482L46.4765 218.315L46.5604 218.148C50.5033 210.72 50.755 202.458 51.0906 194.363C51.1745 192.027 51.2584 189.857 51.4262 187.687C51.8456 181.678 56.4597 176.922 60.9899 172.248L61.9127 171.247C71.8121 160.982 62.8356 143.039 54.3624 133.526C50.6711 129.437 45.8054 127.684 41.1074 126.015C37.5 124.763 34.1443 123.511 31.4597 121.342C29.7819 116.668 26.2584 112.829 21.3926 110.409C16.8624 108.156 11.4933 107.154 6.20805 107.655L5.95638 107.655L5.78859 107.655C3.60738 108.406 1.76174 109.408 -2.73694e-07 110.66L-8.06283e-07 116.752C2.01342 114.749 4.19463 113.08 6.96309 112.162C11.3255 111.744 15.6879 112.579 19.3792 114.415C23.406 116.501 26.0906 119.422 27.349 123.344L27.5168 123.929L28.0201 124.346C31.4597 127.35 35.6544 128.852 39.6812 130.271C44.0436 131.857 48.1544 133.275 51.0067 136.53C58.557 145.042 65.9396 160.481 58.6409 167.992L57.7181 168.91C52.9362 173.834 47.4832 179.509 46.896 187.186C46.7282 189.44 46.6443 191.776 46.5604 194.113C46.3087 201.54 45.9731 209.302 42.7013 215.728C40.9396 217.897 38.6745 219.984 35.7382 222.237C29.9497 226.66 24.1611 229.748 18.5403 231.667C16.1913 232.418 13.7584 232.919 11.0738 233.42L10.5705 233.503C6.62751 234.254 3.35569 234.254 0.251667 233.503L0.0838816 233.503L0.0838812 238.177C1.67784 238.51 3.35569 238.677 5.11744 238.677C6.96308 238.677 9.06039 238.427 11.3255 238.01Z" fill="#AFB15E"/>
<path d="M13.4228 251.529L14.1778 251.363C17.3658 250.778 20.6376 250.194 23.7416 249.109C31.1242 246.689 38.6745 242.6 46.1409 236.925C50.1678 233.837 53.1879 231 55.7047 227.912L55.8725 227.745L55.9564 227.578C60.5705 218.732 60.8222 208.718 61.0738 199.121C61.1577 196.2 61.2416 193.362 61.4094 190.608C61.9128 183.014 67.8691 177.172 73.5738 171.581L74.4967 170.663C79.9497 165.238 81.2081 157.227 78.1879 147.463C75.9228 140.119 71.2248 131.94 65.604 125.598C61.2416 120.758 55.453 118.671 49.8322 116.752C45.3859 115.166 41.1074 113.748 37.7517 110.91C35.8222 105.152 31.7953 100.562 25.9228 97.5575C20.5537 94.8036 14.094 93.5518 7.80202 94.2194L7.55034 94.2194L7.29866 94.3028C4.5302 95.2208 2.09732 96.6395 -3.72915e-07 98.3086L-9.128e-07 104.484C2.43289 101.981 5.11745 99.9777 8.55705 98.7259C13.8423 98.2252 19.3792 99.3101 23.8255 101.563C28.8591 104.15 32.1309 107.906 33.5571 112.83L33.7248 113.414L34.2282 113.831C38.3389 117.503 43.4564 119.255 48.3222 121.008C53.6074 122.844 58.641 124.597 62.1644 128.519C71.5604 139.117 80.5369 158.145 71.3087 167.325L70.3859 168.243C64.3457 174.168 57.5503 180.928 56.8792 190.274C56.7114 193.112 56.6275 196.116 56.5436 198.954C56.292 207.967 56.0403 217.397 52.0973 225.242C49.9161 227.912 47.1477 230.499 43.5403 233.253C36.4094 238.594 29.3624 242.516 22.4832 244.77C19.6309 245.688 16.6107 246.272 13.5067 246.856L12.7517 247.023C7.802 247.857 3.77516 247.857 -1.33666e-05 246.939L-1.37825e-05 251.696C1.92952 252.114 3.85905 252.28 5.95636 252.28C8.30536 252.28 10.8221 252.03 13.4228 251.529Z" fill="#AFB15E"/>
<path d="M15.6041 264.965L16.6108 264.798C20.3021 264.131 24.0772 263.38 27.7685 262.211C36.4094 259.374 45.2182 254.534 54.0269 247.857C58.8088 244.269 62.3323 240.931 65.1846 237.342L65.3524 237.175L65.4363 237.008C70.7215 226.66 70.8893 215.06 71.141 203.794C71.2249 200.205 71.2249 196.867 71.4766 193.529C72.0638 184.349 79.2786 177.506 86.2417 170.83L87.2484 169.912C101.51 156.225 88.5068 130.522 77.0135 117.586C71.9799 111.995 65.1846 109.658 58.641 107.405C53.2719 105.569 48.1544 103.9 44.2115 100.478C42.1142 93.7185 37.4162 88.294 30.6209 84.7055C24.3289 81.4508 16.8625 80.0321 9.47993 80.7832L9.22825 80.7832L8.97657 80.8666C5.62087 82.035 2.68463 83.7875 0.167846 85.8739L0.167846 92.1329C3.0202 89.1285 6.20812 86.7084 10.235 85.2897C16.5269 84.7055 23.1544 85.9573 28.4397 88.7113C34.396 91.7991 38.2551 96.389 39.933 102.314L40.1007 102.982L40.6041 103.399C45.386 107.739 51.3424 109.742 57.1309 111.744C63.4229 113.831 69.2954 115.834 73.5739 120.591C84.7316 133.109 95.386 155.725 84.0605 166.573L83.1376 167.491C75.9229 174.418 67.7014 182.346 66.9464 193.279C66.6947 196.7 66.6947 200.289 66.6108 203.71C66.443 214.392 66.1913 225.408 61.5772 234.672C58.9766 237.843 55.7886 240.931 51.4262 244.185C43.037 250.528 34.6477 255.118 26.5101 257.788C23.1544 258.873 19.6309 259.541 15.9396 260.208L14.9329 260.375C9.31213 261.46 4.61414 261.46 0.167831 260.375L0.167831 265.132C2.43293 265.633 4.69803 265.8 7.13092 265.8C9.6477 265.883 12.5 265.549 15.6041 264.965Z" fill="#AFB15E"/>
<path d="M17.7013 278.484L18.9597 278.234C23.1543 277.483 27.5168 276.648 31.6275 275.313C41.5268 272.058 51.5939 266.55 61.7449 258.873C67.198 254.783 71.2248 250.944 74.4966 246.855L74.6644 246.688L74.7483 246.438C80.7047 234.671 80.8725 221.402 81.0402 208.467C81.1241 204.294 81.1241 200.372 81.3758 196.449C82.047 185.767 90.5201 177.756 98.7416 170.078L99.7483 169.16C116.191 153.721 101.342 124.345 88.0872 109.491C82.3825 103.065 74.6644 100.561 67.1141 98.0574C60.8221 95.9711 54.8658 93.9682 50.2517 89.9624C47.9866 82.2012 42.7013 75.9422 34.8993 71.7695C27.7685 68.0976 19.2953 66.5119 10.906 67.3465L10.6544 67.3465L10.4027 67.4299C6.29195 68.9321 2.93624 71.0184 -5.58906e-07 73.522L-1.11338e-06 79.8645C3.27181 76.4429 6.96309 73.6055 11.6611 71.853C18.9597 71.1853 26.594 72.6041 32.802 75.8587C39.6812 79.5307 44.2114 84.8717 46.057 91.7984L46.2248 92.466L46.7282 92.8833C52.1812 97.8905 59.0604 100.144 65.7718 102.397C72.9866 104.817 79.8658 107.07 84.7315 112.578C97.7349 127.099 109.983 153.304 96.6443 165.822L95.6376 166.74C87.1644 174.668 77.5168 183.681 76.7617 196.199C76.5101 200.205 76.5101 204.377 76.4262 208.383C76.2584 220.651 76.0906 233.336 70.7215 244.101C67.7013 247.773 64.01 251.362 58.9765 255.117C49.2449 262.628 39.5973 267.885 30.2013 270.973C26.3423 272.225 22.3154 272.976 18.1208 273.727L16.8624 273.978C10.4027 275.146 5.03354 275.146 -1.80833e-05 273.978L-1.84991e-05 278.734C2.51676 279.235 5.11743 279.569 7.88589 279.569C10.9899 279.486 14.1778 279.152 17.7013 278.484Z" fill="#AFB15E"/>
<path d="M19.8825 292.004L21.3926 291.754C26.0906 290.919 30.9564 290.001 35.6543 288.416C46.7282 284.744 58.1376 278.568 69.547 269.889C75.6711 265.215 80.2852 260.959 83.8926 256.286L84.0604 256.119L84.1443 255.869C90.7718 242.683 90.9396 227.661 91.0235 213.224C91.0235 208.467 91.1074 203.961 91.359 199.454C92.0302 187.186 101.93 178.09 111.409 169.411L112.416 168.493C131.124 151.218 114.346 118.254 99.4128 101.563C93.0369 94.386 84.3121 91.5486 75.8389 88.7946C68.6242 86.4579 61.9128 84.2046 56.5436 79.5312C54.0268 70.6852 48.1544 63.5916 39.4295 59.0017C31.4597 54.7455 21.896 52.9095 12.4161 53.911L12.1644 53.911L11.9128 53.9944C7.29866 55.6635 3.4396 58.1671 -6.50813e-07 61.088L-1.21988e-06 67.5974C3.69127 63.6751 7.88591 60.4204 13.1711 58.5009C21.4765 57.6664 30.2013 59.3355 37.1644 63.0909C45.0503 67.2636 50.0839 73.4391 52.1812 81.4507L52.349 82.1183L52.8523 82.5356C58.9765 88.2104 66.7785 90.714 74.3289 93.2176C82.5503 95.8881 90.2685 98.4752 95.8893 104.651C110.738 121.258 124.664 150.968 109.228 165.155L108.221 166.073C98.4899 175.002 87.5 185.1 86.745 199.287C86.4933 203.877 86.4094 208.634 86.4094 213.224C86.3255 227.077 86.1577 241.431 80.1174 253.699C76.7617 257.955 72.4832 261.961 66.7785 266.3C55.7886 274.646 44.7986 280.654 34.2282 284.159C29.8658 285.578 25.3356 286.413 20.6376 287.331L19.1275 287.581C11.8288 288.916 5.78857 288.916 0.0838722 287.581L0.0838718 292.338C2.93622 292.922 5.87246 293.256 8.97649 293.256C12.3322 293.089 15.9396 292.755 19.8825 292.004Z" fill="#AFB15E"/>
<path d="M21.9798 305.524L23.6577 305.19C28.859 304.189 34.3121 303.187 39.4295 301.518C51.7617 297.429 64.5134 290.502 77.1812 280.905C83.9765 275.731 89.094 270.891 93.1208 265.8L93.2886 265.633L93.3725 265.383C100.671 250.695 100.755 234.088 100.839 217.981C100.839 212.64 100.923 207.549 101.175 202.542C101.93 188.689 113.087 178.591 123.826 168.743L124.832 167.825C145.722 148.798 127.097 112.245 110.403 93.6352C103.356 85.7071 93.6242 82.6193 84.3121 79.5315C76.2584 76.9445 68.6242 74.4409 62.6678 69.1833C59.9832 59.3358 53.4396 51.4077 43.792 46.2336C35.0671 41.5601 24.1611 39.4738 13.8423 40.5587L13.5906 40.5587L13.4228 40.7256C8.13759 42.5616 3.77517 45.4825 -7.54171e-07 48.9041L-1.31594e-06 55.33C4.11074 50.9069 8.80873 47.3184 14.6812 45.1486C23.9933 44.2307 33.8087 46.0666 41.6107 50.3228C50.4195 55.0796 56.1242 62.0063 58.3893 71.0193L58.5571 71.6869L59.0604 72.1876C65.8557 78.4466 74.4967 81.2841 82.9698 84.038C92.198 87.0424 100.839 89.7963 107.047 96.8064C123.658 115.417 139.262 148.715 121.812 164.571L120.805 165.489C109.899 175.42 97.4832 186.686 96.6443 202.375C96.3926 207.549 96.3087 212.89 96.3087 218.064C96.2248 233.587 96.1409 249.526 89.4295 263.213C85.6544 267.97 80.8725 272.476 74.4127 277.317C62.0805 286.663 49.8322 293.34 38.0033 297.262C33.1376 298.848 28.104 299.766 22.8188 300.767L21.1409 301.101C13.0872 302.603 6.29192 302.603 -2.28019e-05 301.101L-2.32178e-05 305.858C3.1879 306.525 6.37582 306.859 9.81541 306.859C13.5906 306.776 17.6174 306.358 21.9798 305.524Z" fill="#AFB15E"/>
<path d="M24.1611 319.043L26.0906 318.709C31.8792 317.624 37.7517 316.539 43.4564 314.704C57.2148 310.197 70.8054 302.77 85.0671 291.921C92.6174 286.246 98.1544 280.905 102.601 275.313L102.768 275.147L102.852 274.896C110.822 258.79 110.906 240.43 110.906 222.738C110.906 216.729 110.906 211.138 111.242 205.546C112.081 190.107 124.497 178.925 136.577 168.076L137.584 167.158C147.819 157.894 150.419 143.707 145.05 125.931C140.94 112.412 132.215 97.3904 121.728 85.6234C114.01 76.9442 103.356 73.5226 93.0369 70.268C84.0604 67.3471 75.5873 64.6766 68.9597 58.7514C66.0235 47.9024 58.9765 39.1398 48.3222 33.3815C38.7584 28.2073 26.7617 25.9541 15.4362 27.2059L15.1846 27.2059L14.9329 27.2894C9.0604 29.3757 4.19463 32.6304 -8.46734e-07 36.5527L-1.4158e-06 43.0621C4.5302 38.1383 9.73154 34.1325 16.2752 31.7124C26.594 30.6275 37.5 32.7138 46.1409 37.3872C55.9564 42.6448 62.1644 50.406 64.6812 60.4204L64.849 61.0881L65.3524 61.5888C72.8188 68.5154 82.3826 71.6032 91.6946 74.6075C101.846 77.8622 111.493 80.95 118.372 88.6277C136.829 109.241 154.027 146.127 134.564 163.653L133.557 164.571C120.805 176.004 107.634 187.854 106.711 205.212C106.376 210.887 106.376 216.896 106.376 222.654C106.376 239.762 106.292 257.454 98.9094 272.559C94.7148 277.817 89.4295 282.741 82.2986 288.165C68.708 298.513 55.1174 305.941 42.0302 310.197C36.6611 311.95 31.1241 312.951 25.2517 314.036L23.3221 314.37C14.4295 316.039 6.96306 316.039 0.0838675 314.453L0.0838671 319.21C3.52346 319.961 7.13085 320.295 10.906 320.295C14.9329 320.378 19.3792 319.878 24.1611 319.043Z" fill="#AFB15E"/>
<path d="M26.2584 332.479L28.4396 332.062C34.7315 330.894 41.1913 329.725 47.3154 327.722C62.3322 322.799 77.1812 314.704 92.7852 302.853C101.007 296.594 107.131 290.836 111.997 284.66L112.164 284.493L112.248 284.243C120.973 266.634 120.889 246.689 120.889 227.328C120.889 220.735 120.889 214.559 121.225 208.384C122.148 191.359 135.906 179.092 149.161 167.241L150.168 166.323C161.409 156.309 164.262 140.87 158.389 121.509C153.943 106.737 144.379 90.297 132.97 77.5286C124.581 68.0983 112.919 64.4264 101.678 60.8378C91.7785 57.6666 82.4665 54.6623 75.1678 48.1529C72.0638 36.3025 64.3457 26.7053 52.7685 20.4463C42.3658 14.7715 29.2785 12.3513 16.9463 13.6866L16.6946 13.6866L16.443 13.77C9.89933 16.2736 4.61409 19.8621 -9.50643e-07 24.2017L-1.52701e-06 30.7946C4.94966 25.4535 10.6544 21.0305 17.7852 18.36C29.1107 17.1916 41.0235 19.4449 50.5873 24.619C61.3255 30.4607 68.2047 38.973 70.8893 50.0723L71.0571 50.74L71.5604 51.2407C79.6141 58.835 90.1846 62.1731 100.336 65.4278C111.493 69.0163 121.98 72.3544 129.53 80.7833C140.604 93.1344 149.748 108.907 154.027 123.011C157.718 135.195 159.48 152.053 147.148 163.068L146.141 163.986C132.131 176.505 117.617 189.356 116.611 208.3C116.275 214.559 116.275 221.152 116.275 227.495C116.275 246.188 116.275 265.549 108.221 282.157C103.607 287.915 97.8188 293.339 90.0168 299.265C74.9161 310.781 60.4866 318.626 45.8892 323.383C40.0168 325.302 33.9765 326.387 27.6007 327.639L25.4194 328.056C15.7718 329.892 7.6342 329.892 -2.75217e-05 328.14L-2.79376e-05 332.896C3.77514 333.731 7.6342 334.065 11.7449 334.065C16.2751 333.981 21.057 333.481 26.2584 332.479Z" fill="#AFB15E"/>
<path d="M51.1745 340.824L51.2584 340.824C68.5402 334.649 85.0671 325.553 100.503 313.869C109.396 307.109 116.023 300.85 121.309 294.174L121.477 294.007L121.56 293.757C131.124 274.312 131.04 252.197 130.956 230.749C130.956 224.073 130.872 217.647 131.124 211.388C132.215 193.696 146.225 180.844 159.732 168.493C160.738 167.575 161.745 166.657 162.752 165.739C175.084 155.307 178.104 138.7 171.644 117.753C166.862 102.398 156.628 84.3717 144.211 69.6839L144.128 69.6004C134.899 59.9198 122.567 55.914 110.57 51.9917C99.7483 48.4866 89.4295 45.1485 81.3759 37.8046C78.104 24.9527 69.7987 14.521 57.2987 7.7613C46.0571 1.58573 31.8792 -1.08478 18.5403 0.417379L18.2886 0.417379L18.0369 0.500832C10.906 3.08789 5.11745 6.92676 -1.01343e-06 11.6002L-1.57521e-06 18.0261C5.45302 12.4347 11.5772 7.84475 19.3792 4.92387C31.7114 3.67207 44.7148 6.17568 55.1175 11.7671C66.8624 18.1095 74.245 27.5398 77.1812 39.5571L77.349 40.2247L77.8524 40.7255C86.745 49.0708 98.1544 52.7428 109.228 56.3313C121.141 60.1701 132.299 63.8421 140.772 72.6882C152.768 86.9587 162.668 104.317 167.282 119.088C173.322 138.45 170.805 152.887 159.815 162.234L159.732 162.317C158.725 163.235 157.718 164.153 156.711 165.155C142.534 178.173 127.852 191.693 126.594 211.221L126.594 211.305C126.342 217.73 126.342 224.407 126.426 230.916C126.51 251.696 126.594 273.227 117.617 291.67C112.668 297.929 106.292 303.855 97.8188 310.364C82.802 321.714 66.6946 330.56 49.9161 336.652C42.7013 338.822 35.2349 340.491 27.7684 341.659L27.6006 341.659C18.0369 343.745 8.8087 343.745 0.0838628 341.742L0.0838623 346.499C1.42614 346.833 2.85232 347.084 4.27849 347.25L22.7349 347.25C24.6644 347 26.5939 346.666 28.4396 346.249C36.0738 344.83 43.708 343.078 51.1745 340.824Z" fill="#AFB15E"/>
</g>
<defs>
<clipPath id="clip0_1_955">
<rect width="175" height="347" fill="white"/>
</clipPath>
</defs>
</svg>
