<svg width="310" height="156" viewBox="0 0 310 156" fill="none" xmlns="http://www.w3.org/2000/svg">
<g opacity="0.05" clip-path="url(#clip0)">
<path d="M145.458 155.327C145.532 152.56 146.65 150.017 148.663 148.073C150.676 146.128 153.286 145.156 156.044 145.231C158.803 145.306 161.338 146.428 163.276 148.447C165.215 150.466 166.184 153.083 166.109 155.85C166.109 155.925 166.109 156 166.109 156.075L162.009 156.075C162.009 155.925 162.009 155.85 162.009 155.701C162.083 154.056 161.412 152.485 160.294 151.289C159.176 150.092 157.61 149.419 155.97 149.344C154.33 149.344 152.764 149.942 151.571 151.064C150.378 152.186 149.707 153.756 149.633 155.402C149.633 155.626 149.633 155.85 149.633 156L145.532 156C145.532 155.85 145.532 155.701 145.532 155.551C145.457 155.476 145.458 155.402 145.458 155.327Z" fill="#091929"/>
<path d="M133.305 154.205C133.305 153.382 133.379 152.56 133.528 151.662C133.677 150.765 133.901 149.793 134.199 148.821C134.87 146.652 136.063 144.558 137.554 142.539C138.374 141.417 139.194 140.52 140.089 139.772L140.313 139.622C143.146 137.827 146.277 137.379 149.259 136.93C149.558 136.855 149.856 136.855 150.154 136.78C151.571 136.556 152.913 135.733 154.329 134.911C154.702 134.686 155.075 134.462 155.447 134.238C159.622 131.919 165.363 134.163 169.24 137.528C170.88 138.949 171.775 140.819 172.521 142.464C172.968 143.361 173.341 144.184 173.788 144.857C175.205 145.829 176.323 147.25 176.994 149.045C177.665 150.765 177.963 152.635 177.814 154.579L177.814 154.729L177.739 154.878C177.665 155.327 177.516 155.701 177.367 156.075L172.67 156.075C173.117 155.476 173.49 154.803 173.639 154.056C173.713 152.859 173.49 151.662 173.042 150.615C172.595 149.494 171.924 148.671 171.104 148.148L170.731 147.923L170.508 147.624C169.687 146.502 169.166 145.306 168.569 144.184C167.898 142.763 167.302 141.492 166.332 140.669C163.648 138.351 159.548 136.556 157.237 137.827C156.864 138.052 156.566 138.201 156.193 138.426C154.553 139.398 152.763 140.52 150.527 140.819C150.229 140.893 149.93 140.893 149.632 140.968C146.948 141.342 144.488 141.716 142.4 142.987C141.804 143.511 141.207 144.184 140.611 145.007C139.344 146.652 138.449 148.372 137.852 150.092C137.629 150.84 137.405 151.662 137.256 152.41C137.032 153.457 137.032 154.429 137.181 155.252L137.181 155.476C137.181 155.626 137.256 155.776 137.331 156L133.081 156C133.081 155.925 133.081 155.85 133.081 155.85C133.379 155.327 133.305 154.729 133.305 154.205Z" fill="#091929"/>
<path d="M121.525 149.718C121.823 148.222 122.122 146.727 122.569 145.231C123.613 142.015 125.402 138.725 127.862 135.509C129.13 133.789 130.472 132.443 131.739 131.321L131.888 131.246L132.037 131.172C136.063 128.853 140.611 128.479 144.935 128.105C145.905 128.031 146.799 127.956 147.694 127.881C150.378 127.582 152.615 125.787 155 123.918C155.299 123.693 155.597 123.394 155.97 123.17C161.636 118.757 170.582 122.347 176.547 127.507C178.858 129.526 179.976 132.144 180.945 134.686C181.616 136.332 182.213 137.902 183.182 139.099C185.568 140.221 187.432 142.24 188.625 144.857C189.743 147.325 190.265 150.242 190.041 153.083L190.041 153.308L189.967 153.532C189.668 154.43 189.37 155.252 188.923 156L183.853 156C184.748 154.953 185.493 153.906 185.941 152.56C186.09 150.466 185.717 148.372 184.897 146.652C184.002 144.708 182.735 143.361 181.02 142.688L180.573 142.464L180.274 142.09C178.783 140.295 177.963 138.201 177.143 136.182C176.249 134.013 175.428 131.994 173.863 130.573C169.762 127.058 162.381 123.394 158.579 126.385C158.281 126.61 157.983 126.834 157.684 127.133C155.075 129.227 152.167 131.546 148.29 131.994C147.321 132.069 146.352 132.144 145.457 132.219C141.431 132.518 137.629 132.892 134.423 134.612C133.379 135.509 132.41 136.556 131.292 137.977C129.13 140.819 127.564 143.661 126.669 146.502C126.297 147.699 125.998 149.045 125.775 150.466C125.402 152.336 125.402 153.906 125.7 155.402L125.775 155.701C125.775 155.776 125.775 155.925 125.849 156L121.674 156C121.525 155.103 121.451 154.205 121.451 153.308C121.152 152.111 121.301 150.989 121.525 149.718Z" fill="#091929"/>
<path d="M109.447 147.774L109.522 147.549C109.894 145.605 110.267 143.661 110.864 141.716C112.28 137.379 114.666 132.966 118.021 128.554C119.81 126.161 121.525 124.366 123.314 122.945L123.463 122.796L123.613 122.721C128.906 119.804 134.87 119.505 140.611 119.206C142.102 119.131 143.593 119.057 145.01 118.907C149.036 118.533 152.167 115.691 155.522 112.7C155.82 112.401 156.119 112.176 156.417 111.877C164.021 105.072 176.845 111.429 183.555 117.411C186.537 120.029 187.879 123.544 189.146 126.909C190.041 129.302 190.936 131.62 192.352 133.415C195.633 134.761 198.242 137.304 199.957 140.819C201.597 144.109 202.268 147.923 201.895 151.737L201.895 151.962L201.821 152.186C201.373 153.607 200.777 154.878 200.031 156L194.738 156C196.08 154.579 197.198 153.083 197.869 151.139C198.093 148.222 197.571 145.156 196.304 142.688C194.962 139.921 192.949 138.052 190.414 137.154L189.892 137.005L189.519 136.556C187.432 134.088 186.313 131.172 185.27 128.405C184.151 125.413 183.107 122.571 180.871 120.552C175.056 115.392 164.469 110.307 159.175 115.018C158.877 115.243 158.579 115.542 158.281 115.841C154.777 119.057 150.751 122.646 145.383 123.095C143.891 123.244 142.326 123.319 140.835 123.394C135.616 123.693 130.173 123.992 125.7 126.311C124.209 127.582 122.792 129.078 121.227 131.097C118.17 135.135 116.008 139.099 114.74 143.062C114.219 144.708 113.846 146.502 113.548 148.297L113.473 148.522C112.951 151.214 112.951 153.457 113.473 155.551L113.473 155.701L113.473 155.85L113.473 155.925L109.298 155.925C109.074 154.803 108.925 153.607 108.925 152.336C109 150.915 109.149 149.419 109.447 147.774Z" fill="#091929"/>
<path d="M97.3691 145.904L97.4436 145.455C97.891 143.062 98.3383 140.669 99.1584 138.276C100.948 132.817 104.004 127.208 108.18 121.749C110.416 118.757 112.578 116.514 114.815 114.719L114.964 114.57L115.113 114.495C121.749 110.98 129.13 110.756 136.361 110.456C138.449 110.382 140.387 110.307 142.326 110.157C147.694 109.783 151.943 105.67 156.118 101.632L157.013 100.809C166.183 91.9847 182.213 99.9866 190.712 107.54C194.365 110.83 195.931 115.168 197.422 119.356C198.54 122.571 199.659 125.563 201.597 127.956C205.772 129.452 209.202 132.593 211.364 136.93C213.377 140.968 214.271 145.755 213.824 150.466L213.824 150.69L213.824 150.84C213.153 152.784 212.258 154.43 211.14 156L205.698 156C207.487 154.205 208.978 152.261 209.798 149.793C210.171 145.904 209.425 142.015 207.785 138.725C205.921 135.135 203.312 132.742 199.808 131.62L199.286 131.471L198.913 131.022C196.229 127.956 194.887 124.217 193.62 120.627C192.203 116.738 190.936 113.074 188.028 110.531C180.423 103.801 166.631 97.2196 159.921 103.726L159.101 104.548C154.702 108.811 149.632 113.672 142.773 114.196C140.76 114.345 138.673 114.42 136.585 114.495C129.95 114.719 123.016 115.018 117.275 117.935C115.337 119.505 113.473 121.524 111.46 124.142C107.509 129.302 104.75 134.462 103.035 139.473C102.364 141.567 101.917 143.735 101.47 146.128L101.395 146.577C100.724 150.092 100.724 153.009 101.395 155.776L101.395 155.925L97.22 155.925C96.9218 154.504 96.7727 153.009 96.7727 151.438C96.7727 149.793 96.9963 147.923 97.3691 145.904Z" fill="#091929"/>
<path d="M85.2912 144.035L85.4403 143.361C85.9622 140.52 86.4841 137.603 87.4533 134.836C89.6154 128.255 93.2686 121.524 98.3383 114.869C101.097 111.279 103.632 108.587 106.39 106.343L106.539 106.194L106.688 106.119C114.591 102.006 123.538 101.781 132.112 101.557C134.721 101.482 137.256 101.407 139.716 101.258C146.501 100.809 151.72 95.4995 156.715 90.4142L157.535 89.5916C162.381 84.7306 169.538 83.6088 178.261 86.3011C184.822 88.3202 192.129 92.5082 197.795 97.5187C202.119 101.407 203.983 106.568 205.698 111.578C207.114 115.542 208.382 119.356 210.916 122.347C216.061 124.067 220.161 127.657 222.845 132.892C225.306 137.678 226.424 143.436 225.827 149.045L225.827 149.269L225.753 149.494C224.933 151.962 223.665 154.13 222.174 156L216.657 156C218.894 153.831 220.683 151.438 221.802 148.372C222.249 143.661 221.28 138.725 219.267 134.761C216.955 130.274 213.6 127.358 209.202 126.086L208.68 125.937L208.307 125.488C205.027 121.824 203.461 117.262 201.895 112.924C200.255 108.213 198.689 103.726 195.185 100.585C185.717 92.209 168.718 84.2071 160.517 92.4334L159.697 93.256C154.404 98.6405 148.365 104.698 140.015 105.296C137.48 105.446 134.796 105.521 132.261 105.595C124.209 105.82 115.784 106.044 108.776 109.559C106.39 111.503 104.079 113.971 101.619 117.187C96.8472 123.544 93.3431 129.826 91.3301 135.958C90.51 138.5 89.9881 141.193 89.4663 143.96L89.3171 144.633C88.5716 149.045 88.5716 152.635 89.3917 156L85.1421 156C84.7693 154.28 84.6202 152.56 84.6202 150.69C84.6202 148.596 84.8438 146.353 85.2912 144.035Z" fill="#091929"/>
<path d="M73.288 142.09L73.4371 141.193C74.0336 137.902 74.7046 134.537 75.7483 131.246C78.2832 123.544 82.6074 115.691 88.5718 107.839C91.7777 103.576 94.7599 100.435 97.9658 97.8926L98.1149 97.743L98.264 97.6682C107.509 92.9568 117.872 92.8073 127.937 92.5829C131.143 92.5081 134.125 92.5081 137.107 92.2838C145.308 91.7603 151.422 85.3288 157.386 79.1217L158.206 78.2243C170.433 65.511 193.396 77.1026 204.952 87.348C209.947 91.8351 212.035 97.8926 214.048 103.726C215.688 108.512 217.179 113.074 220.236 116.589C226.275 118.458 231.121 122.646 234.327 128.704C237.235 134.313 238.502 140.968 237.831 147.549L237.831 147.774L237.757 147.998C236.713 150.989 235.147 153.607 233.283 155.85L227.692 155.85C230.376 153.308 232.538 150.466 233.805 146.876C234.327 141.267 233.209 135.36 230.748 130.648C227.99 125.338 223.889 121.898 218.596 120.403L217.999 120.253L217.627 119.804C213.75 115.542 211.96 110.232 210.171 105.072C208.307 99.4631 206.518 94.2282 202.268 90.4142C191.085 80.4679 170.881 70.9703 161.188 81.0661L160.368 81.8888C154.18 88.3202 147.098 95.6491 137.331 96.3221C134.274 96.5465 131.068 96.5465 128.011 96.6213C118.468 96.7708 108.627 96.9952 100.352 101.108C97.5184 103.427 94.7599 106.268 91.8522 110.157C86.1861 117.636 82.0855 125.114 79.6998 132.368C78.7305 135.36 78.1341 138.5 77.5377 141.791L77.3886 142.688C76.4193 147.699 76.4193 151.887 77.3885 155.85L73.1389 155.85C72.6916 153.831 72.5425 151.812 72.5425 149.643C72.4679 147.4 72.7661 144.857 73.288 142.09Z" fill="#091929"/>
<path d="M61.2103 140.221L61.434 139.099C62.105 135.36 62.8505 131.471 64.0434 127.806C66.951 118.982 71.8717 110.008 78.7307 100.959C82.3839 96.0978 85.8135 92.5082 89.4667 89.5916L89.6158 89.442L89.8395 89.3672C100.352 84.0575 112.206 83.908 123.762 83.7584C127.49 83.6836 130.994 83.6836 134.498 83.4593C144.041 82.861 151.198 75.3078 158.057 67.9789L158.877 67.0815C172.67 52.4238 198.914 65.6606 212.184 77.4765C217.925 82.5619 220.162 89.442 222.398 96.1726C224.262 101.781 226.052 107.091 229.63 111.204C236.564 113.223 242.156 117.935 245.883 124.89C249.164 131.246 250.58 138.8 249.835 146.278L249.835 146.502L249.76 146.727C248.418 150.391 246.554 153.383 244.318 156L238.651 156C241.708 153.083 244.243 149.793 245.809 145.605C246.405 139.099 245.138 132.293 242.23 126.759C238.95 120.627 234.178 116.589 227.99 114.943L227.394 114.794L227.021 114.345C222.548 109.484 220.535 103.352 218.522 97.3691C216.359 90.9377 214.346 84.8054 209.426 80.4679C196.453 68.8763 173.043 57.9578 161.86 69.8485L161.04 70.7459C153.957 78.2992 145.905 86.8993 134.722 87.5724C131.143 87.7968 127.415 87.7968 123.837 87.8715C112.877 88.0211 101.545 88.1707 91.927 92.9569C88.6466 95.6491 85.4407 98.9396 82.0857 103.427C75.3757 112.102 70.6788 120.702 67.9202 129.078C66.8019 132.518 66.1309 136.107 65.4599 139.847L65.2363 140.968C64.1925 146.727 64.1925 151.513 65.2363 156L60.9866 156C60.5393 153.756 60.2411 151.438 60.2411 148.97C60.3156 146.203 60.6138 143.361 61.2103 140.221Z" fill="#091929"/>
<path d="M49.1319 138.276L49.3555 136.93C50.1011 132.742 50.9212 128.405 52.3377 124.217C55.6182 114.345 61.1352 104.175 68.889 94.0038C73.0641 88.5446 76.8664 84.4315 81.0414 81.2157L81.1906 81.0662L81.4142 80.9914C93.1939 75.0834 106.614 74.9339 119.512 74.8591C123.762 74.8591 127.787 74.7843 131.813 74.5599C142.773 73.9617 150.9 65.1371 158.653 56.6865L159.473 55.7891C174.906 39.1122 204.356 54.0691 219.267 67.3807C225.678 73.0643 228.213 80.8418 230.673 88.395C232.761 94.8265 234.774 100.809 238.949 105.595C246.852 107.839 253.189 113.074 257.29 120.851C261.092 127.956 262.732 136.481 261.838 144.932L261.838 145.156L261.763 145.381C260.272 149.494 258.035 152.934 255.426 156L249.61 156C253.115 152.709 256.022 148.97 257.737 144.259C258.483 136.855 256.991 129.078 253.636 122.871C249.909 115.841 244.392 111.354 237.234 109.484L236.638 109.335L236.265 108.886C231.195 103.427 228.959 96.4717 226.722 89.7411C224.336 82.4123 222.025 75.5321 216.508 70.5216C201.672 57.2848 175.13 44.8706 162.456 58.6309L161.635 59.5283C153.658 68.2033 144.637 78 131.963 78.6731C127.862 78.8974 123.612 78.9722 119.512 78.9722C107.136 79.047 94.3122 79.1966 83.3526 84.581C79.5503 87.5724 75.9717 91.3864 72.0948 96.4717C64.6393 106.268 59.2714 116.065 56.14 125.488C54.8726 129.377 54.1271 133.415 53.307 137.603L53.0833 138.949C51.8904 145.455 51.8904 150.84 53.0833 155.925L48.8337 155.925C48.3118 153.383 48.0136 150.765 48.0136 147.998C48.1627 145.007 48.4609 141.791 49.1319 138.276Z" fill="#091929"/>
<path d="M37.054 136.407L37.3523 134.911C38.2469 130.274 39.1416 125.413 40.6327 120.851C44.2859 109.858 50.474 98.4909 59.0478 87.1985C63.6702 81.1409 67.9944 76.5791 72.5423 72.9895L72.6914 72.8399L72.9151 72.7651C86.0367 66.2589 100.873 66.1841 115.262 66.1093C120.034 66.1093 124.582 66.0345 129.055 65.8102C141.431 65.1371 150.452 55.1908 159.25 45.6184L160.07 44.721C177.069 26.0997 209.724 42.7018 226.349 57.5839C233.432 63.8658 236.191 72.5408 238.949 80.8418C241.26 88.0211 243.497 94.8265 248.194 100.136C256.992 102.529 264.074 108.362 268.697 116.963C272.872 124.74 274.736 134.462 273.766 143.661L273.766 143.885L273.617 144.035C271.977 148.746 269.368 152.635 266.311 156L260.57 156C264.522 152.336 267.728 148.148 269.666 142.913C270.486 134.612 268.846 125.862 265.044 118.907C260.794 111.055 254.606 105.969 246.554 103.95L245.957 103.801L245.51 103.352C239.918 97.2943 237.384 89.5916 234.923 82.0384C232.239 73.8121 229.779 66.1093 223.516 60.5753C206.891 45.768 177.143 31.8581 162.978 47.4132L162.158 48.3106C153.285 58.0326 143.221 69.1007 129.204 69.8485C124.582 70.0729 119.81 70.1477 115.188 70.1477C101.321 70.2224 87.0805 70.2972 74.8535 76.28C70.6039 79.6453 66.5779 83.908 62.2537 89.6663C53.9035 100.66 47.9391 111.578 44.435 122.123C43.0184 126.46 42.1984 130.947 41.3037 135.659L41.0055 137.154C39.6635 144.334 39.6635 150.391 41.0055 156L36.7558 156C36.1594 153.158 35.8612 150.316 35.8612 147.25C35.9357 143.885 36.3085 140.295 37.054 136.407Z" fill="#091929"/>
<path d="M24.9763 134.462L25.2746 132.742C26.2438 127.582 27.213 122.347 28.8532 117.262C32.8792 104.997 39.5146 92.8821 49.2068 80.1687C54.2765 73.4382 59.048 68.5024 64.0432 64.5388L64.1923 64.3893L64.416 64.3145C78.8051 57.21 95.2072 57.1352 111.013 57.1352C116.381 57.1352 121.376 57.1352 126.371 56.8361C140.164 56.0882 150.154 45.0201 159.847 34.2512L160.667 33.3538C168.942 24.2301 181.617 21.9118 197.497 26.698C209.575 30.3624 222.995 38.14 233.507 47.488C241.261 54.3682 244.317 63.8658 247.225 73.0642C249.834 81.0662 252.22 88.6194 257.514 94.5273C267.206 97.1448 275.034 103.427 280.178 112.924C284.801 121.45 286.814 132.144 285.695 142.24L285.695 142.464L285.621 142.688C283.757 147.923 280.849 152.261 277.345 156L271.53 156C275.929 151.962 279.507 147.325 281.669 141.492C282.639 132.293 280.775 122.571 276.6 114.869C271.903 106.119 264.969 100.585 256.023 98.3413L255.426 98.1918L254.979 97.7431C248.791 91.0873 246.032 82.5618 243.348 74.2608C240.441 65.2119 237.682 56.6117 230.823 50.4794C212.408 34.0269 179.454 18.6961 163.798 36.046L162.978 36.9434C152.764 48.3107 142.177 60.0518 126.669 60.8744C121.6 61.1735 116.232 61.1735 111.087 61.1735C95.8037 61.1735 79.998 61.2483 66.5035 67.8293C61.8066 71.5685 57.4078 76.28 52.5617 82.6366C43.3169 94.7517 36.6815 106.867 32.8792 118.533C31.3135 123.319 30.4189 128.255 29.4496 133.49L29.1514 135.21C27.6603 143.137 27.6603 149.793 29.0769 155.925L24.8272 155.925C24.1563 152.859 23.858 149.643 23.858 146.278C23.7835 142.688 24.2308 138.725 24.9763 134.462Z" fill="#091929"/>
<path d="M12.9727 132.593L13.3455 130.648C14.3893 125.039 15.433 119.281 17.2223 113.822C21.6211 100.435 28.8529 87.1985 39.4398 73.2886C45.0314 65.9597 50.1757 60.5005 55.6928 56.163L55.8419 56.0134L56.0655 55.9386C71.7967 48.1611 89.6153 48.2358 106.912 48.2358C112.802 48.2358 118.319 48.2359 123.836 47.9367C139.045 47.1141 150.005 34.8495 160.592 23.0335L161.412 22.1361C170.358 12.1151 184.151 9.57238 201.448 14.8073C214.644 18.7709 229.332 27.2963 240.738 37.4669C249.163 44.9454 252.444 55.3404 255.649 65.3615C258.483 74.186 261.167 82.4871 266.982 88.9933C277.569 91.7603 286.142 98.6405 291.734 108.961C296.804 118.234 298.966 129.9 297.773 140.894L297.773 141.118L297.699 141.342C295.462 147.175 292.256 151.887 288.379 156L282.489 156C287.261 151.588 291.212 146.502 293.598 140.146C294.642 130.05 292.629 119.43 288.006 110.905C282.788 101.333 275.183 95.2004 265.267 92.8073L264.671 92.6577L264.223 92.209C257.439 85.0297 254.457 75.6069 251.549 66.558C248.343 56.6117 245.361 47.2637 237.831 40.5331C226.797 30.6616 212.706 22.5101 200.106 18.6961C189.221 15.4056 174.161 13.8351 164.319 24.8284L163.499 25.7258C152.316 38.2148 140.835 51.1524 123.911 52.0499C118.319 52.349 112.429 52.349 106.763 52.349C90.0626 52.349 72.7659 52.349 57.9294 59.5283C52.7851 63.6414 47.939 68.8015 42.6456 75.7565C32.357 89.2176 25.3488 102.081 21.0992 115.093C19.3844 120.328 18.4152 125.712 17.2969 131.396L16.9241 133.34C15.2839 141.941 15.2839 149.195 16.8495 156L12.5999 156C11.8544 152.635 11.5562 149.195 11.5562 145.53C11.6307 141.492 12.078 137.229 12.9727 132.593Z" fill="#091929"/>
<path d="M5.51715 110.382L5.51715 110.307C11.0342 94.9012 19.1607 80.1687 29.5984 66.4084C35.6374 58.4813 41.229 52.5733 47.1934 47.8619L47.3425 47.7124L47.5662 47.6376C64.9375 39.1122 84.6946 39.187 103.855 39.2617C109.82 39.2617 115.56 39.3365 121.152 39.1122C136.958 38.14 148.439 25.651 159.473 13.6108C160.293 12.7133 161.114 11.8159 161.934 10.9185C171.253 -0.0747741 186.09 -2.767 204.803 2.99137C218.521 7.25409 234.625 16.3778 247.747 27.4458L247.821 27.5206C256.47 35.7469 260.048 46.7402 263.552 57.4343C266.684 67.0815 269.666 76.28 276.227 83.4593C287.708 86.3758 297.027 93.7795 303.066 104.922C308.584 114.943 310.969 127.582 309.627 139.473L309.627 139.697L309.553 139.921C307.242 146.278 303.812 151.438 299.637 156L293.896 156C298.891 151.139 302.992 145.68 305.601 138.725C306.72 127.732 304.483 116.14 299.488 106.867C293.822 96.3969 285.397 89.8159 274.661 87.1985L274.065 87.0489L273.617 86.6002C266.162 78.6731 262.881 68.5024 259.675 58.6309C256.246 48.0115 252.965 38.0652 245.063 30.512C232.314 19.8178 216.806 10.9933 203.61 6.88017C186.313 1.49571 173.415 3.73922 165.065 13.536L164.99 13.6108C164.17 14.5082 163.35 15.4056 162.456 16.303C150.825 28.9415 138.747 42.0288 121.301 43.1505L121.227 43.1505C115.486 43.3749 109.521 43.3749 103.706 43.3001C85.1419 43.2253 65.9067 43.1505 49.4301 51.1524C43.8384 55.5647 38.545 61.2483 32.7297 68.8015C22.5902 82.1879 14.6874 96.5465 9.24491 111.503C7.30646 117.935 5.81537 124.591 4.77158 131.246L4.77158 131.396C2.90772 139.921 2.90772 148.148 4.69702 155.925L0.447388 155.925C0.14917 154.729 -0.0744933 153.457 -0.223602 152.186L-0.223601 135.733C6.19962e-05 134.013 0.29828 132.293 0.671052 130.648C1.93851 123.843 3.50415 117.037 5.51715 110.382Z" fill="#091929"/>
</g>
<defs>
<clipPath id="clip0">
<rect width="156" height="310" fill="white" transform="matrix(4.37114e-08 -1 -1 -4.37114e-08 310 156)"/>
</clipPath>
</defs>
</svg>
