<svg width="314" height="158" viewBox="0 0 314 158" fill="none" xmlns="http://www.w3.org/2000/svg">
<g opacity="0.15" clip-path="url(#clip0)">
<path d="M166.666 0.681655C166.59 3.48415 165.458 6.05941 163.419 8.02873C161.38 9.99805 158.737 10.9827 155.943 10.907C153.148 10.8312 150.581 9.69508 148.617 7.65002C146.654 5.60495 145.672 2.95395 145.748 0.151454C145.748 0.0757109 145.748 -3.21046e-05 145.748 -0.0757751L149.901 -0.0757752C149.901 0.0757109 149.901 0.151454 149.901 0.30294C149.826 1.96929 150.505 3.55989 151.638 4.77178C152.771 5.98367 154.357 6.66536 156.018 6.7411C157.679 6.7411 159.265 6.13515 160.474 4.99901C161.682 3.86286 162.361 2.27226 162.437 0.605912C162.437 0.378683 162.437 0.151454 162.437 -3.23036e-05L166.59 -3.23531e-05C166.59 0.151454 166.59 0.30294 166.59 0.454426C166.666 0.530169 166.666 0.605912 166.666 0.681655Z" fill="#DADFB9"/>
<path d="M178.976 1.8178C178.976 2.65097 178.9 3.48415 178.749 4.39306C178.598 5.30198 178.371 6.28664 178.069 7.2713C177.39 9.46785 176.181 11.5887 174.671 13.6337C173.84 14.7699 173.01 15.6788 172.104 16.4362L171.877 16.5877C169.007 18.4055 165.836 18.86 162.815 19.3144C162.513 19.3902 162.211 19.3902 161.909 19.4659C160.474 19.6932 159.115 20.5263 157.68 21.3595C157.302 21.5867 156.925 21.814 156.547 22.0412C152.318 24.3892 146.503 22.1169 142.576 18.7085C140.915 17.2694 140.009 15.3758 139.254 13.7095C138.8 12.8005 138.423 11.9674 137.97 11.2857C136.535 10.301 135.402 8.86191 134.723 7.04407C134.043 5.30198 133.741 3.40841 133.892 1.43909L133.892 1.2876L133.967 1.13611C134.043 0.681655 134.194 0.30294 134.345 -0.0757752L139.103 -0.0757752C138.649 0.530169 138.272 1.21186 138.121 1.96929C138.045 3.18118 138.272 4.39307 138.725 5.45347C139.178 6.58961 139.858 7.42279 140.688 7.95299L141.066 8.18022L141.293 8.48319C142.123 9.61934 142.652 10.8312 143.256 11.9674C143.936 13.4065 144.54 14.6941 145.522 15.5273C148.24 17.8753 152.394 19.6932 154.735 18.4055C155.112 18.1783 155.414 18.0268 155.792 17.7996C157.453 16.8149 159.266 15.6788 161.531 15.3758C161.833 15.3001 162.135 15.3001 162.437 15.2243C165.156 14.8456 167.648 14.4669 169.762 13.1793C170.367 12.6491 170.971 11.9674 171.575 11.1342C172.859 9.46785 173.765 7.72576 174.369 5.98367C174.596 5.22624 174.822 4.39306 174.973 3.63563C175.2 2.57523 175.2 1.59057 175.049 0.757398L175.049 0.530169C175.049 0.378683 174.973 0.227197 174.898 -3.25716e-05L179.202 -3.2623e-05C179.202 0.0757104 179.202 0.151454 179.202 0.151454C178.9 0.681655 178.976 1.2876 178.976 1.8178Z" fill="#DADFB9"/>
<path d="M190.907 6.36242C190.605 7.87728 190.303 9.39214 189.85 10.907C188.793 14.164 186.98 17.4966 184.488 20.7536C183.204 22.4957 181.845 23.8591 180.561 24.9952L180.41 25.0709L180.259 25.1467C176.181 27.4947 171.575 27.8734 167.195 28.2522C166.213 28.3279 165.307 28.4036 164.401 28.4794C161.682 28.7824 159.416 30.6002 157 32.4938C156.698 32.721 156.396 33.024 156.018 33.2512C150.279 37.72 141.217 34.0844 135.175 28.8581C132.834 26.813 131.702 24.162 130.72 21.5868C130.04 19.9204 129.436 18.3298 128.454 17.1179C126.038 15.9818 124.15 13.9367 122.942 11.2857C121.809 8.78619 121.28 5.83222 121.507 2.95398L121.507 2.72675L121.582 2.49952C121.884 1.5906 122.186 0.757431 122.64 -1.41221e-08L127.775 -7.53582e-08C126.869 1.0604 126.113 2.12081 125.66 3.48418C125.509 5.60499 125.887 7.72579 126.718 9.46788C127.624 11.4372 128.907 12.8006 130.644 13.4823L131.097 13.7095L131.4 14.0882C132.91 15.906 133.741 18.0268 134.571 20.0719C135.477 22.2685 136.308 24.3135 137.894 25.7526C142.047 29.3126 149.524 33.024 153.375 29.9942C153.677 29.767 153.979 29.5398 154.281 29.2368C156.924 27.116 159.869 24.768 163.796 24.3135C164.778 24.2378 165.76 24.162 166.666 24.0863C170.744 23.7833 174.595 23.4046 177.843 21.6625C178.9 20.7536 179.882 19.6932 181.014 18.2541C183.204 15.3758 184.79 12.4976 185.696 9.61937C186.074 8.40748 186.376 7.0441 186.603 5.60499C186.98 3.71141 186.98 2.1208 186.678 0.605944L186.603 0.302971C186.603 0.227228 186.603 0.0757423 186.527 -7.75972e-07L190.756 -8.26402e-07C190.907 0.908916 190.983 1.81783 190.983 2.72675C191.285 3.93864 191.134 5.07478 190.907 6.36242Z" fill="#DADFB9"/>
<path d="M203.141 8.33173L203.065 8.55896C202.688 10.5283 202.31 12.4976 201.706 14.4669C200.271 18.86 197.855 23.3289 194.456 27.7977C192.644 30.2215 190.907 32.0393 189.095 33.4784L188.944 33.6299L188.793 33.7057C183.431 36.6596 177.39 36.9626 171.575 37.2656C170.064 37.3413 168.554 37.4171 167.119 37.5685C163.041 37.9473 159.87 40.8255 156.471 43.8552C156.169 44.1582 155.867 44.3854 155.565 44.6884C147.862 51.581 134.874 45.1429 128.077 39.0834C125.056 36.4324 123.697 32.8725 122.413 29.464C121.507 27.0403 120.601 24.6922 119.166 22.8744C115.843 21.511 113.2 18.9358 111.463 15.3758C109.802 12.0431 109.122 8.18025 109.5 4.31735L109.5 4.09012L109.575 3.8629C110.028 2.42378 110.633 1.13615 111.388 -2.37245e-08L116.749 -8.76624e-08C115.39 1.43912 114.257 2.95398 113.578 4.9233C113.351 7.87728 113.88 10.9827 115.164 13.4823C116.523 16.2848 118.562 18.1783 121.129 19.0872L121.658 19.2387L122.036 19.6932C124.15 22.1927 125.283 25.1467 126.34 27.9492C127.473 30.9789 128.53 33.8571 130.796 35.9022C136.686 41.1285 147.409 46.279 152.771 41.5072C153.073 41.28 153.375 40.977 153.677 40.674C157.227 37.4171 161.304 33.7814 166.742 33.3269C168.252 33.1755 169.838 33.0997 171.348 33.024C176.634 32.721 182.147 32.418 186.678 30.07C188.189 28.7824 189.623 27.2675 191.209 25.2224C194.305 21.1323 196.495 17.1179 197.779 13.1035C198.308 11.4372 198.685 9.61937 198.987 7.80153L199.063 7.5743C199.592 4.84755 199.592 2.57526 199.063 0.454457L199.063 0.302971L199.063 0.151485L199.063 0.075742L203.292 0.0757419C203.519 1.21189 203.67 2.42378 203.67 3.71141C203.594 5.15053 203.443 6.66539 203.141 8.33173Z" fill="#DADFB9"/>
<path d="M215.375 10.2253L215.299 10.6798C214.846 13.1035 214.393 15.5273 213.562 17.9511C211.75 23.4803 208.654 29.1611 204.425 34.6903C202.159 37.72 199.969 39.9923 197.704 41.8102L197.553 41.9616L197.402 42.0374C190.681 45.5973 183.204 45.8245 175.879 46.1275C173.765 46.2033 171.801 46.279 169.838 46.4305C164.401 46.8092 160.096 50.9751 155.867 55.0652L154.961 55.8984C145.673 64.836 129.436 56.7315 120.827 49.0815C117.127 45.7488 115.541 41.3557 114.031 37.1141C112.898 33.8571 111.765 30.8274 109.802 28.4036C105.573 26.8888 102.099 23.7076 99.9091 19.3145C97.8702 15.2244 96.964 10.3768 97.4171 5.60499L97.4171 5.37776L97.4171 5.22627C98.0967 3.25695 99.0029 1.5906 100.136 -3.37828e-08L105.648 -9.95215e-08C103.836 1.81783 102.326 3.78715 101.495 6.28667C101.117 10.2253 101.873 14.1639 103.534 17.4966C105.422 21.1323 108.065 23.5561 111.614 24.6922L112.143 24.8437L112.52 25.2982C115.239 28.4036 116.598 32.1908 117.882 35.8265C119.317 39.7651 120.601 43.4765 123.546 46.0518C131.249 52.8686 145.219 59.534 152.016 52.9444L152.847 52.1112C157.302 47.7939 162.437 42.8706 169.385 42.3404C171.424 42.1889 173.538 42.1131 175.653 42.0374C182.374 41.8102 189.397 41.5072 195.212 38.5532C197.175 36.9626 199.063 34.9175 201.102 32.2665C205.104 27.0403 207.899 21.814 209.635 16.7392C210.315 14.6184 210.768 12.4219 211.221 9.99808L211.297 9.54362C211.976 5.9837 211.976 3.02972 211.297 0.227228L211.297 0.0757417L215.526 0.0757416C215.828 1.51486 215.979 3.02972 215.979 4.62032C215.979 6.28667 215.752 8.18025 215.375 10.2253Z" fill="#DADFB9"/>
<path d="M227.609 12.1189L227.458 12.8006C226.929 15.6788 226.4 18.6328 225.419 21.4353C223.229 28.1007 219.528 34.9175 214.393 41.6587C211.599 45.2943 209.032 48.0211 206.237 50.2934L206.086 50.4449L205.935 50.5206C197.93 54.6865 188.868 54.9137 180.184 55.1409C177.541 55.2167 174.973 55.2924 172.481 55.4439C165.609 55.8984 160.323 61.2761 155.263 66.4266L154.433 67.2598C149.524 72.1831 142.274 73.3193 133.439 70.5925C126.793 68.5475 119.393 64.3058 113.653 59.2311C109.273 55.2924 107.386 50.0662 105.649 44.9914C104.214 40.977 102.93 37.1141 100.362 34.0844C95.1517 32.3423 90.9983 28.7066 88.2797 23.4046C85.7876 18.557 84.6549 12.7248 85.259 7.0441L85.259 6.81687L85.3345 6.58964C86.1652 4.09012 87.449 1.89358 88.9593 -4.60298e-08L94.5476 -1.12669e-07C92.2821 2.19655 90.4697 4.62033 89.3369 7.72579C88.8838 12.4976 89.8655 17.4966 91.9045 21.511C94.2455 26.0556 97.6438 29.0096 102.099 30.2972L102.628 30.4487L103.006 30.9032C106.328 34.6146 107.914 39.2349 109.5 43.628C111.161 48.3998 112.747 52.9444 116.297 56.1256C125.887 64.6088 143.105 72.7133 151.412 64.3816L152.243 63.5484C157.604 58.0949 163.721 51.9597 172.179 51.3538C174.747 51.2023 177.465 51.1266 180.033 51.0508C188.189 50.8236 196.722 50.5964 203.821 47.0364C206.237 45.0671 208.578 42.5676 211.07 39.3106C215.904 32.8725 219.453 26.5101 221.492 20.2991C222.322 17.7239 222.851 14.9971 223.38 12.1946L223.531 11.5129C224.286 7.0441 224.286 3.40844 223.455 -1.64988e-06L227.76 -1.70121e-06C228.137 1.74209 228.288 3.48418 228.288 5.37775C228.288 7.49856 228.062 9.77085 227.609 12.1189Z" fill="#DADFB9"/>
<path d="M239.767 14.0881L239.616 14.9971C239.012 18.3298 238.332 21.7382 237.275 25.0709C234.707 32.8724 230.327 40.8255 224.286 48.7785C221.039 53.0958 218.018 56.277 214.771 58.8523L214.62 59.0038L214.469 59.0795C205.104 63.8513 194.608 64.0028 184.413 64.2301C181.166 64.3058 178.145 64.3058 175.124 64.533C166.817 65.0632 160.625 71.5771 154.584 77.8638L153.753 78.7727C141.368 91.649 118.109 79.9089 106.404 69.5321C101.344 64.9875 99.2296 58.8523 97.1906 52.9443C95.5292 48.0968 94.0189 43.4765 90.9227 39.9165C84.8058 38.023 79.8972 33.7813 76.65 27.6462C73.7048 21.9654 72.421 15.2243 73.1007 8.55891L73.1007 8.33168L73.1762 8.10445C74.2334 5.07473 75.8193 2.42372 77.7072 0.151428L83.371 0.151428C80.6524 2.72669 78.4624 5.60493 77.1786 9.2406C76.65 14.9213 77.7827 20.905 80.2748 25.6768C83.0689 31.0546 87.2223 34.5388 92.5841 36.0536L93.1882 36.2051L93.5658 36.6596C97.4927 40.9769 99.3051 46.3547 101.117 51.581C103.005 57.2617 104.818 62.5637 109.122 66.4266C120.45 76.5004 140.915 86.1198 150.732 75.8945L151.563 75.0613C157.831 68.5474 165.005 61.1246 174.898 60.4429C177.994 60.2157 181.241 60.2157 184.337 60.1399C194.003 59.9884 203.972 59.7612 212.354 55.5954C215.224 53.2473 218.018 50.3691 220.963 46.4304C226.702 38.8561 230.856 31.2818 233.272 23.9347C234.254 20.905 234.858 17.7238 235.462 14.3911L235.613 13.4822C236.595 8.40742 236.595 4.16581 235.613 0.151426L239.918 0.151426C240.371 2.19649 240.522 4.24155 240.522 6.4381C240.598 8.71039 240.295 11.2857 239.767 14.0881Z" fill="#DADFB9"/>
<path d="M252 15.9818L251.774 17.1179C251.094 20.9051 250.339 24.8437 249.131 28.5551C246.185 37.4928 241.201 46.582 234.254 55.7469C230.553 60.6702 227.08 64.3058 223.379 67.2598L223.228 67.4113L223.002 67.4871C212.354 72.8648 200.347 73.0163 188.641 73.1678C184.866 73.2435 181.316 73.2435 177.767 73.4707C168.101 74.0767 160.851 81.7267 153.904 89.1496L153.073 90.0585C139.102 104.904 112.52 91.4976 99.0781 79.5302C93.2633 74.3797 90.9978 67.4113 88.7323 60.5944C86.8444 54.9137 85.032 49.5359 81.4071 45.3701C74.384 43.325 68.7203 38.5532 64.9444 31.5091C61.6217 25.0709 60.1868 17.4209 60.942 9.8466L60.942 9.61937L61.0175 9.39214C62.3768 5.68073 64.2647 2.65101 66.5303 -6.89872e-08L72.2696 -1.37428e-07C69.1734 2.95398 66.6058 6.28667 65.0199 10.5283C64.4158 17.1179 65.6996 24.0105 68.6447 29.6155C71.9675 35.8265 76.8006 39.9166 83.0685 41.5829L83.6726 41.7344L84.0502 42.1889C88.5813 47.1122 90.6202 53.3231 92.6592 59.3825C94.8492 65.8964 96.8881 72.1074 101.872 76.5005C115.012 88.2406 138.725 99.2991 150.052 87.256L150.883 86.3471C158.057 78.697 166.213 69.9866 177.54 69.3049C181.165 69.0777 184.941 69.0777 188.566 69.0019C199.667 68.8504 211.145 68.6989 220.887 63.8514C224.21 61.1246 227.457 57.7919 230.855 53.2474C237.652 44.4612 242.41 35.7507 245.204 27.2675C246.336 23.7833 247.016 20.1476 247.696 16.3605L247.922 15.2243C248.98 9.39214 248.98 4.54458 247.922 -2.23207e-06L252.227 -2.2834e-06C252.68 2.27229 252.982 4.62032 252.982 7.11984C252.906 9.92234 252.604 12.8006 252 15.9818Z" fill="#DADFB9"/>
<path d="M264.234 17.9511L264.008 19.3145C263.252 23.5561 262.422 27.9492 260.987 32.1908C257.664 42.1889 252.076 52.4899 244.222 62.791C239.993 68.3202 236.142 72.4861 231.913 75.743L231.762 75.8945L231.535 75.9703C219.604 81.954 206.011 82.1055 192.946 82.1812C188.642 82.1812 184.564 82.2569 180.486 82.4842C169.385 83.0901 161.153 92.0278 153.3 100.587L152.469 101.496C136.837 118.386 107.008 103.238 91.9042 89.7555C85.4098 83.999 82.8422 76.1218 80.3501 68.4717C78.2356 61.9578 76.1967 55.8984 71.9677 51.0508C63.9629 48.7785 57.544 43.4765 53.3905 35.5992C49.5392 28.4036 47.8778 19.7689 48.784 11.21L48.784 10.9827L48.8595 10.7555C50.3698 6.58965 52.6354 3.10546 55.2785 -8.03315e-08L61.1688 -1.50573e-07C57.6195 3.33269 54.6743 7.11985 52.9374 11.8917C52.1823 19.3902 53.6926 27.2675 57.0909 33.5542C60.8667 40.674 66.455 45.2186 73.7046 47.1122L74.3088 47.2637L74.6863 47.7181C79.8215 53.2474 82.087 60.2915 84.3525 67.1083C86.7691 74.5312 89.1101 81.4995 94.6984 86.5743C109.726 99.9808 136.61 112.554 149.448 98.6174L150.279 97.7085C158.359 88.9223 167.497 79 180.335 78.3183C184.488 78.0911 188.793 78.0153 192.946 78.0153C205.482 77.9396 218.471 77.7881 229.572 72.3346C233.423 69.3049 237.048 65.442 240.975 60.2915C248.527 50.3691 253.964 40.4468 257.136 30.9032C258.419 26.9645 259.175 22.8744 260.005 18.6328L260.232 17.2694C261.44 10.6798 261.44 5.22627 260.232 0.0757405L264.536 0.0757405C265.065 2.651 265.367 5.30201 265.367 8.1045C265.216 11.1342 264.914 14.3912 264.234 17.9511Z" fill="#DADFB9"/>
<path d="M276.468 19.8447L276.166 21.3595C275.26 26.0556 274.353 30.9789 272.843 35.5992C269.143 46.7335 262.875 58.2464 254.19 69.6836C249.508 75.8188 245.128 80.4391 240.522 84.0748L240.371 84.2263L240.144 84.302C226.853 90.8917 211.825 90.9674 197.25 91.0431C192.417 91.0431 187.811 91.1189 183.28 91.3461C170.744 92.0278 161.606 102.102 152.695 111.797L151.865 112.706C134.647 131.566 101.57 114.751 84.73 99.6778C77.5559 93.3154 74.7617 84.5292 71.9676 76.1218C69.6266 68.8504 67.3611 61.9578 62.6035 56.5801C53.6925 54.1563 46.5184 48.2483 41.8363 39.5379C37.6073 31.6606 35.7194 21.814 36.7011 12.4976L36.7011 12.2704L36.8522 12.1189C38.5135 7.34707 41.1566 3.40844 44.2528 -9.30893e-08L50.0677 -1.6243e-07C46.0653 3.71141 42.818 7.95302 40.8546 13.255C40.0239 21.6625 41.6853 30.5244 45.5366 37.5686C49.8411 45.5216 56.109 50.6721 64.2649 52.7172L64.869 52.8686L65.3221 53.3231C70.9859 59.4583 73.5535 67.2598 76.0455 74.9099C78.7641 83.2416 81.2562 91.0431 87.5996 96.6481C104.44 111.645 134.571 125.733 148.92 109.979L149.75 109.07C158.737 99.2234 168.932 88.0134 183.129 87.256C187.811 87.0288 192.644 86.953 197.326 86.953C211.372 86.8773 225.796 86.8015 238.181 80.7421C242.485 77.3336 246.563 73.0163 250.943 67.1841C259.401 56.0498 265.442 44.9914 268.992 34.3116C270.426 29.9185 271.257 25.3739 272.163 20.6021L272.465 19.0872C273.825 11.8159 273.825 5.68073 272.465 -2.8145e-06L276.77 -2.86583e-06C277.374 2.87823 277.676 5.75647 277.676 8.86193C277.601 12.2704 277.223 15.906 276.468 19.8447Z" fill="#DADFB9"/>
<path d="M288.702 21.814L288.4 23.5561C287.418 28.7824 286.436 34.0844 284.775 39.2349C280.697 51.6568 273.976 63.9271 264.159 76.8034C259.024 83.6203 254.19 88.6194 249.131 92.6337L248.98 92.7852L248.753 92.861C234.178 100.057 217.565 100.132 201.555 100.132C196.118 100.132 191.058 100.132 185.999 100.435C172.028 101.193 161.909 112.403 152.091 123.31L151.261 124.219C142.878 133.459 130.04 135.807 113.955 130.96C101.721 127.248 88.1284 119.371 77.4805 109.903C69.6267 102.935 66.5305 93.3154 63.5853 83.999C60.9422 75.8945 58.5257 68.2445 53.164 62.2608C43.3467 59.6098 35.4175 53.2474 30.2068 43.628C25.5247 34.9933 23.4858 24.162 24.6185 13.9367L24.6185 13.7095L24.694 13.4823C26.582 8.18025 29.5271 3.78715 33.0764 -1.04515e-07L38.9668 -1.74756e-07C34.5112 4.09012 30.8864 8.78619 28.6964 14.6942C27.7147 24.0105 29.6026 33.8571 33.8316 41.6587C38.5892 50.5206 45.6123 56.1256 54.6743 58.3979L55.2784 58.5494L55.7316 59.0038C61.9995 65.745 64.7936 74.3797 67.5122 82.7872C70.4574 91.9521 73.2515 100.663 80.1991 106.873C98.8518 123.537 132.23 139.064 148.089 121.492L148.92 120.583C159.265 109.07 169.989 97.1783 185.696 96.3452C190.832 96.0422 196.269 96.0422 201.48 96.0422C216.961 96.0422 232.97 95.9664 246.639 89.3011C251.396 85.5139 255.852 80.7421 260.76 74.3039C270.125 62.0336 276.846 49.7632 280.697 37.9473C282.283 33.0997 283.189 28.1007 284.171 22.7987L284.473 21.0566C285.983 13.0278 285.983 6.28667 284.548 0.0757399L288.853 0.0757399C289.532 3.1812 289.835 6.43816 289.835 9.84659C289.91 13.4823 289.457 17.4966 288.702 21.814Z" fill="#DADFB9"/>
<path d="M300.86 23.7076L300.483 25.6769C299.425 31.3576 298.368 37.1898 296.556 42.7191C292.1 56.2771 284.775 69.6836 274.052 83.7718C268.388 91.1946 263.177 96.7239 257.589 101.117L257.438 101.268L257.211 101.344C241.277 109.221 223.229 109.146 205.709 109.146C199.743 109.146 194.154 109.146 188.566 109.449C173.161 110.282 162.06 122.704 151.336 134.671L150.506 135.58C141.444 145.73 127.473 148.305 109.953 143.003C96.5864 138.989 81.7095 130.354 70.1554 120.053C61.622 112.478 58.2992 101.95 55.052 91.8006C52.1824 82.8629 49.4637 74.4554 43.5734 67.8658C32.85 65.0633 24.1655 58.0949 18.5017 47.6424C13.3666 38.2502 11.1766 26.4343 12.3849 15.3001L12.3849 15.0729L12.4604 14.8456C14.7259 8.93768 17.9731 4.16587 21.9 -1.1734e-07L27.8659 -1.88482e-07C23.0328 4.46884 19.0304 9.61937 16.6138 16.0575C15.5566 26.2828 17.5955 37.0384 22.2776 45.6731C27.5638 55.3682 35.2665 61.5791 45.3103 64.0029L45.9144 64.1544L46.3675 64.6088C53.2396 71.8802 56.2603 81.4238 59.2054 90.5887C62.4527 100.663 65.4734 110.13 73.1006 116.947C84.2771 126.945 98.5499 135.201 111.312 139.064C122.338 142.397 137.592 143.988 147.56 132.853L148.391 131.944C159.719 119.295 171.348 106.192 188.491 105.283C194.154 104.98 200.12 104.98 205.86 104.98C222.775 104.98 240.295 104.98 255.323 97.7085C260.534 93.5427 265.443 88.3164 270.804 81.2723C281.226 67.6385 288.324 54.6107 292.629 41.4315C294.366 36.1294 295.347 30.6759 296.48 24.9195L296.858 22.9501C298.519 14.2397 298.519 6.89261 296.933 -3.39708e-06L301.238 -3.44841e-06C301.993 3.40843 302.295 6.89261 302.295 10.604C302.219 14.6941 301.766 19.0115 300.86 23.7076Z" fill="#DADFB9"/>
<path d="M308.412 46.2033L308.412 46.279C302.824 61.8821 294.592 76.8034 284.02 90.7402C277.903 98.7689 272.239 104.753 266.198 109.524L266.047 109.676L265.82 109.752C248.225 118.386 228.213 118.311 208.805 118.235C202.763 118.235 196.949 118.159 191.285 118.386C175.275 119.371 163.646 132.02 152.469 144.215C151.638 145.124 150.808 146.033 149.977 146.941C140.537 158.076 125.509 160.802 106.555 154.97C92.6596 150.653 76.3479 141.412 63.0569 130.202L62.9813 130.127C54.2214 121.795 50.5965 110.661 47.0472 99.8293C43.8755 90.0585 40.8548 80.7421 34.2093 73.4707C22.5797 70.5168 13.1401 63.0182 7.0232 51.7325C1.43493 41.5829 -0.981612 28.7824 0.377695 16.7392L0.377695 16.512L0.453212 16.2848C2.79424 9.8466 6.26803 4.62033 10.497 -1.25091e-07L16.3118 -1.94432e-07C11.2522 4.9233 7.09871 10.4525 4.45562 17.4966C3.32286 28.6309 5.58837 40.371 10.648 49.7632C16.3873 60.3672 24.9207 67.0326 35.7952 69.6836L36.3993 69.8351L36.8524 70.2895C44.4041 78.3183 47.7269 88.6194 50.9741 98.6174C54.4479 109.373 57.7707 119.447 65.7755 127.097C78.6889 137.928 94.3964 146.866 107.763 151.032C125.283 156.485 138.347 154.213 146.805 144.29L146.881 144.215C147.712 143.306 148.542 142.397 149.448 141.488C161.229 128.687 173.463 115.432 191.134 114.296L191.209 114.296C197.024 114.069 203.066 114.069 208.956 114.145C227.76 114.221 247.243 114.296 263.932 106.192C269.596 101.723 274.958 95.9664 280.848 88.3164C291.118 74.7584 299.123 60.2157 304.636 45.0671C306.599 38.5532 308.11 31.8121 309.167 25.0709L309.167 24.9195C311.055 16.2848 311.055 7.95302 309.243 0.0757394L313.547 0.0757393C313.849 1.28763 314.076 2.57526 314.227 3.86289L314.227 20.5264C314 22.2685 313.698 24.0105 313.32 25.6769C312.037 32.5695 310.451 39.4621 308.412 46.2033Z" fill="#DADFB9"/>
</g>
<defs>
<clipPath id="clip0">
<rect width="158" height="314" fill="white" transform="matrix(1.19249e-08 1 1 -1.19249e-08 0 0)"/>
</clipPath>
</defs>
</svg>
