<svg width="18" height="19" viewBox="0 0 18 19" fill="none" xmlns="http://www.w3.org/2000/svg">
<path d="M12.9375 15.7676C11.543 15.7676 10.3506 15.2725 9.36035 14.2822C8.37012 13.292 7.875 12.0996 7.875 10.7051C7.875 10.5293 7.88672 10.3418 7.91016 10.1426H13.2188C13.3359 10.0137 13.4209 9.63867 13.4736 9.01758C13.5264 8.39648 13.5 8.02148 13.3945 7.89258L12.1992 5.69531C12.4688 5.66016 12.7148 5.64258 12.9375 5.64258C14.332 5.64258 15.5244 6.1377 16.5146 7.12793C17.5049 8.11816 18 9.31055 18 10.7051C18 12.0996 17.5049 13.292 16.5146 14.2822C15.5244 15.2725 14.332 15.7676 12.9375 15.7676ZM12.1992 9.01758H2.9707C2.85352 8.90039 2.79492 8.75391 2.79492 8.57812C2.79492 8.40234 2.85352 8.25 2.9707 8.12109L7.18945 0.193359C7.29492 0.0644531 7.42676 0 7.58496 0C7.74316 0 7.875 0.0644531 7.98047 0.193359L12.1992 8.12109C12.3164 8.25 12.3721 8.40234 12.3662 8.57812C12.3604 8.75391 12.3047 8.90039 12.1992 9.01758ZM6.75 10.7051C6.75 11.6543 6.94922 12.542 7.34766 13.3682C7.74609 14.1943 8.29688 14.9004 9 15.4863V17.4551C9 17.6074 8.94434 17.7393 8.83301 17.8506C8.72168 17.9619 8.58984 18.0176 8.4375 18.0176H0.5625C0.410156 18.0176 0.27832 17.9619 0.166992 17.8506C0.0556641 17.7393 0 17.6074 0 17.4551V9.58008C0 9.42773 0.0556641 9.2959 0.166992 9.18457C0.27832 9.07324 0.410156 9.01758 0.5625 9.01758H1.70508C1.75195 9.63867 1.83398 10.0137 1.95117 10.1426H6.78516C6.76172 10.4238 6.75 10.6113 6.75 10.7051Z" fill="#020A13"/>
</svg>
