<svg width="98" height="99" viewBox="0 0 98 99" fill="none" xmlns="http://www.w3.org/2000/svg">
<g opacity="0.25" clip-path="url(#clip0)">
<path d="M24.0387 29.1456C23.9994 29.3832 23.9601 29.6208 23.8816 29.8584C23.9601 29.7 23.8423 29.9376 23.803 29.9772C23.7638 30.096 23.6852 30.1752 23.6066 30.294C23.7245 30.1356 23.3317 30.5712 23.371 30.5316C23.4495 30.4524 23.1746 30.6504 23.1746 30.6504C23.1353 30.69 22.7818 30.8088 22.9782 30.7296C22.2712 31.0068 21.7998 31.68 21.9962 32.472C22.1926 33.1453 23.0175 33.7393 23.7245 33.4621C25.2563 32.9076 26.5133 31.6008 26.7489 29.898C26.8668 29.1456 26.5525 28.3932 25.767 28.1556C25.0992 27.9576 24.1565 28.3932 24.0387 29.1456Z" fill="#091929"/>
<path d="M34.1334 26.5716C34.1334 26.0172 35.7438 25.5024 36.1759 25.3044C37.1185 24.9084 38.0612 24.552 39.0039 24.1956C40.6929 23.6016 39.9859 20.8692 38.2576 21.4632C36.6865 22.0176 35.1153 22.6116 33.6228 23.364C32.3266 23.9976 31.3053 24.9876 31.3446 26.532C31.3839 28.3932 34.2119 28.3932 34.1334 26.5716Z" fill="#091929"/>
<path d="M47.213 21.78C47.5665 20.1564 47.4879 18.4536 46.8595 16.9092C46.5845 16.1964 45.9168 15.7212 45.1312 15.9192C44.4635 16.1172 43.8743 16.9488 44.1493 17.6616C44.6206 18.7704 44.7777 19.8792 44.5028 21.0276C44.11 22.8096 46.8202 23.562 47.213 21.78Z" fill="#091929"/>
<path d="M52.358 22.5721C54.047 21.9385 55.7752 21.6613 57.582 21.8197C59.3888 21.9385 59.3888 19.1269 57.582 19.0081C55.5395 18.8497 53.5363 19.1665 51.6117 19.8793C49.9227 20.4733 50.6297 23.2057 52.358 22.5721Z" fill="#091929"/>
<path d="M63.3168 25.6212C65.1629 24.2352 66.2627 22.0572 65.9878 19.7208C65.9092 18.9684 65.3986 18.2952 64.5737 18.2952C63.906 18.2952 63.0812 18.9288 63.1597 19.7208C63.3168 21.0276 62.9633 22.374 61.8635 23.166C61.2351 23.6412 60.9601 24.3936 61.3529 25.1064C61.7457 25.74 62.7277 26.0964 63.3168 25.6212Z" fill="#091929"/>
<path d="M67.2059 28.908C69.0913 29.5416 70.9767 29.898 72.9799 29.9772C74.7867 30.0564 74.7867 27.2448 72.9799 27.1656C71.2516 27.0864 69.6019 26.73 67.9522 26.1756C66.224 25.6212 65.5169 28.3536 67.2059 28.908Z" fill="#091929"/>
<path d="M71.9192 23.958C72.2334 23.3244 72.9012 21.582 73.8831 21.7404C74.6294 21.8592 75.3757 21.5424 75.6114 20.7504C75.8078 20.0772 75.3757 19.1268 74.6294 19.008C72.0763 18.612 70.5445 20.4336 69.5232 22.5324C68.6984 24.1956 71.1336 25.6212 71.9192 23.958Z" fill="#091929"/>
<path d="M69.759 17.9785C70.1517 16.0381 69.2483 13.8997 67.4023 13.0681C66.6952 12.7513 65.9097 12.8701 65.4776 13.5829C65.1241 14.1769 65.2812 15.2065 65.9882 15.5233C66.7345 15.8401 67.2059 16.5133 67.0487 17.2261C66.8916 17.9785 67.2451 18.7309 68.0307 18.9685C68.6984 19.1665 69.6018 18.7309 69.759 17.9785Z" fill="#091929"/>
<path d="M76.0042 15.7212C75.9649 15.246 75.8863 14.652 76.0827 14.2164C76.2006 13.9788 76.3184 13.9392 76.3969 13.9392C78.1252 14.4144 78.8715 11.7216 77.1432 11.2068C75.9649 10.89 74.7473 11.3652 73.9617 12.3156C73.2154 13.266 73.0583 14.5332 73.1761 15.7212C73.2547 16.4736 73.7653 17.1468 74.5901 17.1468C75.3364 17.1468 76.0827 16.5132 76.0042 15.7212Z" fill="#091929"/>
<path d="M80.0498 14.9688C80.2855 16.0776 79.6178 17.3448 78.4394 17.5032C77.6931 17.622 77.0254 18.0972 77.0254 18.9288C77.0254 19.602 77.6538 20.4336 78.4394 20.3544C81.4639 19.9584 83.4278 17.3448 82.76 14.256C82.3673 12.4344 79.657 13.1868 80.0498 14.9688Z" fill="#091929"/>
<path d="M83.7419 22.968C84.2525 23.562 84.8417 24.0372 85.4309 24.552C85.863 24.948 86.5307 25.5024 86.4129 26.1756C86.0201 27.9576 88.691 28.71 89.1231 26.928C89.4373 25.6212 89.0445 24.4332 88.259 23.4036C87.5519 22.4928 86.5307 21.8988 85.7844 20.988C84.5668 19.602 82.6028 21.582 83.7419 22.968Z" fill="#091929"/>
<path d="M78.9104 24.4729C78.9497 24.5125 79.1068 24.5917 79.1461 24.5917C79.1461 24.5917 79.6174 24.0769 79.6174 24.0373C79.6174 24.0769 79.3032 24.0769 79.2246 24.0769C78.4391 24.1561 77.6928 24.2353 76.9072 24.3541C76.1609 24.4333 75.4932 24.9481 75.4932 25.7797C75.4932 26.4925 76.1216 27.2845 76.9072 27.2053C77.732 27.1261 78.5176 27.0073 79.3425 26.9281C80.1673 26.8489 80.9922 26.7301 81.5028 26.0173C82.4847 24.7105 81.6599 22.6909 80.2851 22.0573C79.5781 21.7405 78.7926 21.8593 78.3605 22.5721C78.0463 23.1661 78.2034 24.1561 78.9104 24.4729Z" fill="#091929"/>
<path d="M82.8776 30.6901C83.2311 31.1653 83.5453 31.6405 83.7417 32.1949C83.8595 32.4721 83.9381 32.7097 83.9774 32.9869C84.0166 33.0661 84.0166 33.1849 84.0559 33.2641C84.0559 33.5413 84.0559 33.5809 84.0559 33.4225C83.1525 35.0065 85.5878 36.4321 86.4912 34.8481C87.4732 33.1057 86.4126 30.6901 85.3128 29.2645C84.8415 28.6705 84.0952 28.3537 83.3882 28.7497C82.799 29.1061 82.4062 30.0565 82.8776 30.6901Z" fill="#091929"/>
<path d="M89.5945 30.3733C90.1444 32.0365 91.0478 33.5413 92.3048 34.7689C93.6009 36.0361 95.6041 34.0165 94.2687 32.7889C93.3653 31.9177 92.6583 30.8881 92.2655 29.6605C91.7156 27.8785 89.0054 28.6309 89.5945 30.3733Z" fill="#091929"/>
<path d="M93.601 39.8772C93.7189 40.7484 93.7581 41.6196 93.7581 42.4908C93.7581 43.0056 93.8367 43.758 93.4439 44.154C92.2656 45.5004 94.2295 47.52 95.4078 46.134C97.0575 44.2728 96.5862 41.382 96.272 39.0852C96.1541 38.3328 95.2115 37.9368 94.5437 38.0952C93.7581 38.3724 93.4832 39.1248 93.601 39.8772Z" fill="#091929"/>
<path d="M87.4737 36.749C87.7486 37.1846 87.7879 37.5806 87.6701 38.0558C87.4737 38.8082 87.9057 39.6002 88.652 39.7982C89.359 39.9962 90.1839 39.5606 90.3803 38.8082C90.6552 37.6202 90.4981 36.3926 89.9089 35.3234C88.9663 33.7789 86.5703 35.2046 87.4737 36.749Z" fill="#091929"/>
<path d="M88.966 43.4015C88.0233 45.5399 88.1018 47.9555 89.4766 49.8959C90.4978 51.3611 92.9331 49.9355 91.9119 48.4703C91.1656 47.4011 90.8513 46.0943 91.4012 44.8271C92.1083 43.2035 89.7123 41.7779 88.966 43.4015Z" fill="#091929"/>
<path d="M95.2897 48.9062C95.0933 49.7378 94.8969 50.5694 94.6613 51.401C94.5434 51.797 94.4256 52.1534 94.3077 52.5494C94.2685 52.7078 94.1899 52.8662 94.1506 53.0246C93.9935 53.2226 94.0328 53.2622 94.3077 53.1434C92.5402 52.7078 91.7939 55.4402 93.5615 55.8758C96.8608 56.7074 97.4893 51.9158 97.9999 49.6586C98.3927 47.9162 95.6825 47.1242 95.2897 48.9062Z" fill="#091929"/>
<path d="M82.7992 39.6397C82.8778 41.2633 82.9171 42.8473 82.8778 44.4709C82.7992 46.2925 85.6273 46.2925 85.6666 44.4709C85.7058 42.8473 85.7058 41.2633 85.588 39.6397C85.5094 37.8181 82.7207 37.8181 82.7992 39.6397Z" fill="#091929"/>
<path d="M77.4177 31.7196C77.2213 31.7592 77.6141 31.7196 77.6534 31.7196C77.457 31.7196 77.8105 31.7592 77.6927 31.7196C77.5748 31.68 77.9284 31.7988 77.6927 31.7196C77.7712 31.8384 77.8105 31.8384 77.732 31.7592C77.6534 31.68 77.6927 31.7196 77.7712 31.8384C77.7712 31.7988 77.732 31.7592 77.732 31.7196C77.7712 31.7988 77.7712 31.8384 77.8105 31.9176C77.8498 32.0364 77.8498 32.1156 77.8891 32.2344C77.9676 32.6304 77.8891 31.9968 77.9283 32.3928C77.9283 32.5116 77.9284 32.67 77.9676 32.7888C78.0069 33.5412 78.5961 34.2144 79.3817 34.2144C80.1279 34.2144 80.835 33.5808 80.7957 32.7888C80.7564 31.7592 80.5993 30.7296 79.9316 29.898C79.146 28.9476 77.9284 28.7892 76.7893 28.9872C76.043 29.1456 75.6109 30.0168 75.8073 30.7296C75.9251 31.5216 76.6714 31.8384 77.4177 31.7196Z" fill="#091929"/>
<path d="M70.6231 34.4124C71.4086 35.244 71.4872 36.4716 71.605 37.5408C71.6836 38.2932 72.1942 38.9664 73.019 38.9664C73.7261 38.9664 74.4723 38.3328 74.4331 37.5408C74.276 35.6796 73.9617 33.8184 72.6263 32.3928C71.3693 31.086 69.3661 33.1056 70.6231 34.4124Z" fill="#091929"/>
<path d="M78.0857 38.0952C77.9678 38.1348 77.8107 38.1348 77.6929 38.0952C77.85 38.1348 77.8107 38.1348 77.6143 38.0556C77.6929 38.016 77.85 38.2932 77.6536 38.0556C77.85 38.2536 78.0071 38.412 78.2035 38.61C78.7534 39.0852 79.3818 39.5208 80.1281 39.4416C80.8744 39.402 81.5422 38.8476 81.5422 38.016C81.5422 37.3032 80.9137 36.5508 80.1281 36.5904C79.971 36.5904 80.0103 36.5904 80.246 36.63C80.0889 36.5904 80.1281 36.5904 80.3245 36.6696C80.0103 36.432 80.4031 36.7884 80.2067 36.5904C80.0103 36.3924 79.8532 36.234 79.6568 36.036C78.9891 35.442 78.2428 35.1251 77.3786 35.3231C76.6323 35.4816 76.2003 36.3528 76.3967 37.0656C76.5538 37.8972 77.3394 38.2536 78.0857 38.0952Z" fill="#091929"/>
<path d="M74.3544 42.4514C74.5508 42.8474 74.5508 43.3622 74.3937 43.7582C74.0795 44.471 74.1973 45.263 74.9043 45.6986C75.4935 46.055 76.5147 45.8966 76.829 45.1838C77.4574 43.7978 77.4574 42.4118 76.7897 41.0258C76.4362 40.3526 75.4935 40.1546 74.865 40.511C74.1973 40.907 74.0402 41.7386 74.3544 42.4514Z" fill="#091929"/>
<path d="M78.3997 45.3815C78.439 46.3715 78.2426 47.7179 78.7532 48.5495C79.3031 49.4603 80.6386 49.7375 81.5813 50.0147C83.3095 50.5295 84.0558 47.7971 82.3276 47.2823C82.0133 47.2031 81.7384 47.0843 81.4242 47.0051C81.267 46.9655 81.1492 46.8863 80.9921 46.8467C80.56 46.6487 80.6386 46.8071 81.2278 47.3219C81.3063 47.2427 81.1885 46.4903 81.1885 46.3715C81.1885 46.0547 81.1885 45.7379 81.1492 45.4211C81.1492 43.5995 78.3604 43.5599 78.3997 45.3815Z" fill="#091929"/>
<path d="M84.7237 51.2821C84.8023 52.0345 85.1165 53.2225 84.1738 53.3809C83.4275 53.4997 82.9954 54.4105 83.1918 55.1233C83.3882 55.9153 84.1738 56.2321 84.9201 56.1133C87.2375 55.6777 87.7874 53.3017 87.5518 51.2821C87.4732 50.5297 86.9626 49.8565 86.1377 49.8565C85.4307 49.8961 84.6059 50.5297 84.7237 51.2821Z" fill="#091929"/>
<path d="M88.4943 55.1629C88.1408 56.8657 88.1408 58.5685 88.5729 60.2317C89.0049 61.9741 91.7152 61.2613 91.2831 59.4793C90.9689 58.2913 90.9296 57.1033 91.2045 55.8757C91.5581 54.1333 88.8478 53.3809 88.4943 55.1629Z" fill="#091929"/>
<path d="M92.8939 59.598C92.5404 61.1424 92.2262 62.766 91.0085 63.8748C89.6731 65.1024 91.6763 67.122 92.9725 65.8548C94.5436 64.3896 95.1328 62.3304 95.5649 60.3108C95.9969 58.5684 93.2867 57.816 92.8939 59.598Z" fill="#091929"/>
<path d="M77.1037 54.4896C77.85 53.3016 78.0071 51.9552 77.7714 50.5692C77.6536 49.8168 76.7109 49.3812 76.0431 49.5792C75.2576 49.7772 74.9433 50.5692 75.0612 51.3216C75.179 51.9156 74.9826 52.5096 74.6684 53.064C73.7257 54.6084 76.161 56.034 77.1037 54.4896Z" fill="#091929"/>
<path d="M78.6749 56.9845C78.7142 57.1033 78.6749 57.1429 78.6749 56.9845C78.6749 57.0241 78.6356 57.3805 78.6749 57.2221C78.7142 57.0637 78.6356 57.3409 78.6356 57.3409C78.5571 57.5389 78.7927 57.0637 78.5963 57.4201C78.5571 57.4993 78.4785 57.5785 78.5963 57.4597C78.5571 57.5389 78.4785 57.5785 78.3999 57.6577C78.5571 57.5389 78.3999 57.6577 78.3214 57.6973C78.125 57.8161 78.5963 57.6181 78.2428 57.7369C77.5358 57.9349 77.0645 58.7269 77.2609 59.4793C77.4573 60.1921 78.2428 60.6673 78.9891 60.4693C80.7959 59.9149 81.8172 58.0537 81.4244 56.2321C81.2673 55.4797 80.4031 55.0441 79.6961 55.2421C78.9106 55.4401 78.5178 56.2321 78.6749 56.9845Z" fill="#091929"/>
<path d="M72.0368 64.9044C73.8436 64.0728 74.6292 62.1324 75.2183 60.3504C75.7682 58.608 73.0973 57.8952 72.5081 59.598C72.1546 60.7068 71.7618 61.974 70.6228 62.4888C69.9157 62.8056 69.7586 63.7956 70.1121 64.4292C70.5442 65.142 71.369 65.2212 72.0368 64.9044Z" fill="#091929"/>
<path d="M82.5244 59.6377C82.5244 61.4989 83.3885 63.0829 84.8418 64.1917C85.431 64.6669 86.413 64.3105 86.7665 63.6769C87.1986 62.9641 86.8843 62.2117 86.2559 61.7365C85.6274 61.2613 85.3132 60.4297 85.3132 59.6377C85.3132 57.8161 82.5244 57.8161 82.5244 59.6377Z" fill="#091929"/>
<path d="M79.3034 62.7263C77.9286 64.0727 76.5932 65.4587 75.1791 66.7259C73.8044 67.9139 75.8076 69.8939 77.1431 68.7059C78.5964 67.4387 79.8926 66.0527 81.2673 64.7063C82.6028 63.4787 80.5996 61.4591 79.3034 62.7263Z" fill="#091929"/>
<path d="M84.6454 69.8942C86.4522 69.8546 88.1019 68.9042 89.0053 67.3202C89.9087 65.7362 87.4734 64.3106 86.57 65.8946C86.138 66.6074 85.431 67.043 84.6454 67.0826C82.8386 67.0826 82.8386 69.9338 84.6454 69.8942Z" fill="#091929"/>
<path d="M88.8872 68.8645C87.6696 70.4089 86.6876 72.0721 85.9021 73.8937C85.5878 74.6065 85.7057 75.3985 86.4127 75.8341C87.0019 76.1905 88.0231 76.0321 88.3373 75.3193C89.0051 73.7353 89.8299 72.2305 90.8904 70.8841C91.3618 70.2901 91.4796 69.4981 90.8904 68.9041C90.3798 68.3497 89.3586 68.2705 88.8872 68.8645Z" fill="#091929"/>
<path d="M83.6635 83.081C84.2527 81.7346 84.5669 80.3882 84.6455 78.9626C84.7633 77.141 81.9352 77.141 81.8567 78.9626C81.8174 79.8734 81.621 80.8238 81.2282 81.6554C80.914 82.3682 81.0318 83.1602 81.7388 83.5958C82.328 83.9126 83.3493 83.7938 83.6635 83.081Z" fill="#091929"/>
<path d="M81.739 76.5865C81.8569 75.3589 82.3675 74.2105 83.0352 73.1809C84.0565 71.6761 81.6212 70.2504 80.5999 71.7552C79.618 73.2204 79.1074 74.844 78.911 76.5865C78.8324 77.3389 79.618 78.0121 80.325 78.0121C81.1498 78.0121 81.6605 77.3389 81.739 76.5865Z" fill="#091929"/>
<path d="M76.0433 70.1711C75.4148 70.8443 74.6685 71.2799 73.7651 71.4779C73.0188 71.6363 72.5868 72.5075 72.7831 73.2203C72.9795 73.9727 73.7651 74.3687 74.5114 74.2103C75.8469 73.8935 77.1038 73.1807 78.0465 72.1511C79.2641 70.8443 77.3002 68.8247 76.0433 70.1711Z" fill="#091929"/>
<path d="M68.6589 68.1121C67.5591 69.3793 66.9699 71.0425 65.0453 70.8445C63.2384 70.6861 63.2777 73.4977 65.0453 73.6561C66.2236 73.7749 67.4412 73.4185 68.4232 72.7057C69.3659 71.9929 69.8765 70.9633 70.6621 70.0921C71.8404 68.7457 69.8372 66.7657 68.6589 68.1121Z" fill="#091929"/>
<path d="M66.5381 77.5764C68.0306 77.814 69.5625 77.5764 70.7801 76.626C71.3693 76.1508 71.6836 75.3984 71.2908 74.6856C70.9373 74.0916 69.9946 73.6956 69.3661 74.1708C68.7769 74.646 68.0699 74.9628 67.2844 74.844C66.5381 74.7252 65.7918 75.042 65.5561 75.834C65.3597 76.5072 65.7918 77.4576 66.5381 77.5764Z" fill="#091929"/>
<path d="M72.7045 78.2497C71.6832 79.7149 70.4263 81.0613 68.973 82.0909C67.5197 83.1205 68.9337 85.5757 70.387 84.5461C72.2331 83.1997 73.8043 81.6157 75.1005 79.6753C76.161 78.1705 73.7257 76.7449 72.7045 78.2497Z" fill="#091929"/>
<path d="M75.8863 89.1397C77.0646 89.0605 78.243 88.4269 78.7536 87.2785C79.0679 86.6053 78.95 85.7341 78.243 85.3381C77.6145 85.0213 76.6719 85.1401 76.3184 85.8529C76.2791 85.8925 76.2791 85.9717 76.2398 86.0113C76.2005 86.0509 76.2005 86.0905 76.1612 86.1301C76.122 86.2093 76.122 86.1697 76.2005 86.0905C76.3576 85.9717 76.2005 86.0905 76.1612 86.1301C76.122 86.1697 76.122 86.1697 76.0827 86.2093C76.0041 86.2885 76.0434 86.2489 76.1612 86.1301C76.122 86.1301 76.0041 86.2093 76.0041 86.2489C75.8077 86.3677 76.0827 86.2489 76.0827 86.2093C76.0827 86.2489 75.8863 86.2489 75.847 86.2885C75.6899 86.3677 76.2005 86.2489 75.8863 86.2885C75.14 86.3281 74.433 86.8825 74.4723 87.7141C74.5115 88.4665 75.1007 89.2189 75.8863 89.1397Z" fill="#091929"/>
<path d="M76.5146 84.1896C77.143 83.556 77.6929 82.8036 78.125 82.0116C78.4785 81.378 78.3214 80.4276 77.6144 80.0712C76.9467 79.7148 76.0825 79.8732 75.6897 80.586C75.4933 80.9028 75.297 81.2196 75.1006 81.5364C74.9827 81.7344 75.2184 81.378 75.1006 81.576C75.0613 81.6552 74.9827 81.6948 74.9434 81.774C74.8256 81.9324 74.6685 82.0512 74.5507 82.2096C74.04 82.7244 74.0008 83.6748 74.5507 84.1896C75.1006 84.7044 75.9647 84.744 76.5146 84.1896Z" fill="#091929"/>
<path d="M69.484 90.3278C68.8556 90.7238 68.1093 90.8426 67.4808 91.2782C67.088 91.5554 66.5774 92.1494 66.1061 92.189C64.2993 92.2682 64.2993 95.1194 66.1061 95.0006C67.0488 94.961 67.7951 94.565 68.5414 94.0106C69.2876 93.4562 70.1518 93.2978 70.8981 92.783C72.3906 91.7534 70.9766 89.3378 69.484 90.3278Z" fill="#091929"/>
<path d="M61.0781 94.3272C60.5675 94.2084 60.1354 94.2084 59.6248 94.248C59.5463 94.248 59.4284 94.248 59.3499 94.248C59.1927 94.2876 59.4677 94.3272 59.3499 94.248C59.1927 94.1688 59.5855 94.4064 59.6641 94.4856C59.8998 94.8024 59.8212 95.3172 59.5463 95.5944C60.0569 95.04 60.1354 94.1292 59.5463 93.6144C58.9964 93.0996 58.0929 93.0204 57.5823 93.6144C56.7575 94.5252 56.9146 95.8716 57.8573 96.624C58.2893 96.9804 58.8392 97.0992 59.3891 97.0992C59.5855 97.0992 59.7426 97.0596 59.939 97.0596C60.0569 97.0596 60.1354 97.0596 60.2533 97.0596C60.4889 97.0596 60.0176 96.9804 60.3711 97.0596C61.0781 97.2576 61.9422 96.822 62.0994 96.0696C62.2172 95.3172 61.8244 94.5648 61.0781 94.3272Z" fill="#091929"/>
<path d="M52.319 96.1883C51.4549 96.1487 50.7478 95.4755 50.5515 94.5647C50.3943 93.8123 49.5302 93.3767 48.8232 93.5747C48.0376 93.7727 47.6841 94.5647 47.8412 95.3171C48.2733 97.4159 50.1979 98.9207 52.319 98.9999C54.0865 99.0395 54.0865 96.2279 52.319 96.1883Z" fill="#091929"/>
<path d="M39.6713 96.8617C41.9102 97.5745 44.2669 95.7925 44.1491 93.4165C44.1098 92.6641 43.5206 91.9909 42.7351 91.9909C41.9888 91.9909 41.321 92.6245 41.321 93.4165C41.321 93.7333 41.321 93.9313 41.0461 94.0897C41.0461 94.0897 40.889 94.1689 40.7711 94.1689C40.6926 94.1689 40.5747 94.1689 40.3391 94.0897C39.6321 93.8521 38.8072 94.3669 38.6108 95.0797C38.493 95.8717 38.9643 96.6241 39.6713 96.8617Z" fill="#091929"/>
<path d="M34.683 92.387C33.6618 92.0702 32.9548 91.2386 32.6798 90.209C32.2477 88.427 29.5375 89.1794 29.9696 90.9614C30.4409 92.9414 31.9728 94.5254 33.8974 95.1194C35.665 95.6342 36.4113 92.9414 34.683 92.387Z" fill="#091929"/>
<path d="M36.1753 89.5753C37.3537 90.1693 38.6106 90.5257 39.9068 90.4465C41.7136 90.3673 41.7136 87.5557 39.9068 87.6349C39.0819 87.6745 38.2964 87.5161 37.5894 87.1201C36.0182 86.2885 34.5649 88.7437 36.1753 89.5753Z" fill="#091929"/>
<path d="M47.4876 90.6443C48.7838 91.2779 50.2371 91.4759 51.6118 91.0403C53.3401 90.5255 52.5938 87.7932 50.8655 88.308C50.1978 88.506 49.5301 88.506 48.8623 88.1892C48.1946 87.8724 47.3305 87.9912 46.9377 88.704C46.6235 89.3376 46.8199 90.3275 47.4876 90.6443Z" fill="#091929"/>
<path d="M57.1109 91.6742C58.5642 91.4762 59.9782 91.7534 61.353 91.1594C62.4921 90.6842 63.3562 89.813 63.6704 88.5854C64.1025 86.8034 61.3923 86.051 60.9602 87.833C60.8031 88.5458 59.9782 88.7042 59.3498 88.7438C58.3285 88.823 57.3466 88.7834 56.3646 88.9022C55.6183 89.021 55.2255 89.9714 55.3827 90.6446C55.579 91.4762 56.3646 91.7534 57.1109 91.6742Z" fill="#091929"/>
<path d="M63.3172 81.497C63.3172 81.695 62.8066 81.8138 62.6887 81.8534C62.1388 81.9722 61.5496 81.893 61.039 81.8138C60.2927 81.7346 59.625 82.5266 59.625 83.2394C59.625 84.071 60.2535 84.5858 61.039 84.665C62.1781 84.7838 63.3957 84.7838 64.417 84.1898C65.4382 83.5958 66.0274 82.6454 66.1452 81.497C66.2238 80.7446 65.4382 80.0714 64.7312 80.0714C63.9064 80.111 63.3957 80.7446 63.3172 81.497Z" fill="#091929"/>
<path d="M60.6853 77.8932C61.7458 78.3288 62.9635 77.7348 63.5527 76.824C63.9454 76.1904 63.7098 75.24 63.042 74.8836C62.335 74.5272 61.5495 74.7252 61.1174 75.3984C61.0388 75.5172 61.0781 75.4776 61.1959 75.2796C61.0781 75.3588 61.1174 75.3588 61.3138 75.2004C61.2745 75.24 61.2352 75.24 61.1959 75.2796C61.4316 75.2004 61.4709 75.1608 61.3531 75.2004C61.1959 75.24 61.2745 75.24 61.5102 75.2004C61.4709 75.2004 61.4316 75.2004 61.3531 75.2004C61.5887 75.24 61.6673 75.24 61.5102 75.2004C61.4709 75.2004 61.4316 75.1608 61.3923 75.1608C61.0781 75.042 60.6068 75.1212 60.3318 75.3192C60.0569 75.4776 59.7819 75.834 59.7034 76.1508C59.5462 76.9824 59.9783 77.616 60.6853 77.8932Z" fill="#091929"/>
<path d="M56.6788 73.2205C56.2074 73.7749 55.6575 74.0917 55.1076 74.1313C54.3613 74.2105 53.6936 74.7253 53.6936 75.5569C53.6936 76.2697 54.3221 77.0221 55.1076 76.9825C56.4824 76.8637 57.7393 76.3093 58.6427 75.2401C59.114 74.6461 59.1926 73.8145 58.6427 73.2601C58.1714 72.7057 57.1501 72.6265 56.6788 73.2205Z" fill="#091929"/>
<path d="M49.5698 81.3386C51.8873 81.9326 54.5975 82.7642 56.8757 81.7346C58.5254 80.9822 57.1113 78.5666 55.4616 79.2794C54.7153 79.6358 53.7334 79.319 52.9478 79.2002C52.0444 79.0418 51.1803 78.8438 50.3161 78.6062C48.5879 78.1706 47.8416 80.903 49.5698 81.3386Z" fill="#091929"/>
<path d="M51.8478 87.4765C53.1833 87.4765 54.4795 87.4369 55.8149 87.4369C57.6217 87.3973 57.6217 84.5857 55.8149 84.6253C54.4795 84.6253 53.1833 84.6649 51.8478 84.6649C50.041 84.6649 50.041 87.5161 51.8478 87.4765Z" fill="#091929"/>
<path d="M47.1342 74.4482C46.3879 74.6462 45.6024 74.8046 44.8561 74.9234C44.3454 75.0026 43.6384 75.2402 43.2064 74.9234C42.5779 74.4482 41.6352 74.8442 41.2817 75.4382C40.8496 76.151 41.1639 76.9034 41.7923 77.3786C43.4028 78.6062 46.1523 77.6162 47.8805 77.1806C49.6088 76.745 48.9018 74.0126 47.1342 74.4482Z" fill="#091929"/>
<path d="M47.1734 82.1303C46.5842 82.0511 46.0343 81.9323 45.4844 81.7739C45.5237 81.7739 44.9738 81.5759 45.0131 81.5759C44.9345 81.4967 44.9345 81.5363 45.0523 81.6551C45.0131 81.9323 45.0131 81.9323 45.0916 81.6947C45.3666 80.9819 44.7774 80.1503 44.1097 79.9523C43.3241 79.7147 42.6564 80.2295 42.3814 80.9423C41.9101 82.0907 42.5778 83.3975 43.599 83.9915C44.6596 84.6251 45.995 84.8231 47.1734 84.9419C47.9197 85.0211 48.5874 84.2291 48.5874 83.5163C48.5481 82.7243 47.9197 82.2095 47.1734 82.1303Z" fill="#091929"/>
<path d="M39.4752 82.6452C38.5718 81.972 37.7469 81.18 37.1185 80.2692C36.6864 79.6752 35.9008 79.3584 35.1938 79.7544C34.6046 80.1108 34.2511 81.0612 34.6832 81.6948C35.6651 83.0016 36.7649 84.1104 38.0611 85.1004C38.6896 85.536 39.6323 85.2192 39.9858 84.5856C40.3786 83.8728 40.1036 83.0808 39.4752 82.6452Z" fill="#091929"/>
<path d="M37.5895 72.1117C36.7647 72.1909 36.1362 71.9929 35.5471 71.3593C35.0364 70.8049 34.0938 70.8445 33.5831 71.3593C33.0332 71.9137 33.0725 72.7849 33.5831 73.3393C34.5651 74.4481 36.1362 75.0817 37.5895 74.9233C38.3358 74.8441 39.0036 74.3293 39.0036 73.4977C39.0036 72.8245 38.3358 72.0325 37.5895 72.1117Z" fill="#091929"/>
<path d="M32.7974 83.0808C33.2687 83.1204 32.7581 83.0808 32.7974 83.0808C32.7974 83.0412 33.0331 83.16 32.7974 83.0808C32.7188 83.0016 32.5224 82.8432 32.7581 83.0412C32.6796 83.0016 32.6403 82.9224 32.5617 82.8432C32.4439 82.764 32.7188 83.0808 32.5617 82.8432C32.5224 82.8036 32.3653 82.566 32.4832 82.7244C32.601 82.8828 32.4832 82.6452 32.4439 82.6056C32.326 82.3284 32.4439 82.8828 32.4439 82.566C32.4046 81.8136 31.8154 81.1008 31.0299 81.1404C30.2836 81.18 29.5765 81.774 29.6158 82.566C29.6551 83.4372 29.9693 84.1896 30.5585 84.8232C31.1477 85.4568 31.9333 85.7736 32.7581 85.8528C33.5044 85.932 34.1721 85.14 34.1721 84.4272C34.1721 83.6352 33.583 83.16 32.7974 83.0808Z" fill="#091929"/>
<path d="M28.0448 85.1399C26.4737 85.1003 26.3166 82.764 26.1987 81.6156C26.0416 79.8336 23.2528 79.794 23.41 81.6156C23.6456 84.4668 24.6276 87.8724 28.0448 87.9516C29.8516 87.9912 29.8516 85.1795 28.0448 85.1399Z" fill="#091929"/>
<path d="M26.1597 89.1C25.2171 88.704 24.3529 88.1496 23.6066 87.4764C23.0567 86.9616 22.1926 86.922 21.6427 87.4764C21.1321 87.9912 21.0928 88.9812 21.6427 89.4564C22.5854 90.288 23.6066 91.0008 24.7457 91.5156C25.4527 91.8324 26.2383 91.7136 26.6704 91.0008C27.0239 90.4464 26.8667 89.4168 26.1597 89.1Z" fill="#091929"/>
<path d="M20.1893 83.8727C19.8751 83.0411 19.3252 82.5659 18.6182 82.1303C17.9897 81.7739 17.4791 81.2987 17.0078 80.7839C16.4971 80.2295 15.5544 80.2691 15.0438 80.7839C14.4939 81.3383 14.5332 82.2095 15.0438 82.7639C15.5152 83.2787 16.0258 83.7539 16.5757 84.1499C16.8114 84.3083 17.047 84.4667 17.2827 84.5855C17.4005 84.6647 17.4791 84.7439 17.5969 84.7835L17.5577 84.7439C17.7148 84.9419 17.7148 84.8627 17.5184 84.5855C17.7933 85.2983 18.4611 85.7735 19.2466 85.5755C19.8751 85.4171 20.425 84.5855 20.1893 83.8727Z" fill="#091929"/>
<path d="M21.7999 78.5665C21.6821 77.8933 21.9177 77.2993 22.3105 76.7053C22.7426 76.0717 22.4284 75.1213 21.7999 74.7649C21.0929 74.3293 20.3466 74.6461 19.8753 75.2797C19.0111 76.4677 18.8147 77.8933 19.0897 79.3189C19.2468 80.0713 20.1109 80.5069 20.8179 80.3089C21.6035 80.0713 21.957 79.3189 21.7999 78.5665Z" fill="#091929"/>
<path d="M13.0798 77.2596C12.7263 75.0816 10.998 73.2996 8.91624 72.7848C7.18798 72.3492 6.44169 75.042 8.16994 75.5172C9.38758 75.834 10.1732 76.7844 10.3695 78.0516C10.4874 78.804 11.4301 79.2396 12.0978 79.0416C12.8834 78.7644 13.1976 78.012 13.0798 77.2596Z" fill="#091929"/>
<path d="M16.733 75.7548C16.6152 74.844 16.6545 73.9728 16.8116 73.062C16.9687 72.3096 16.5759 71.5176 15.8296 71.3196C15.1226 71.1216 14.2585 71.5572 14.1014 72.3096C13.8657 73.458 13.7871 74.6064 13.905 75.7548C13.9835 76.5072 14.4941 77.1804 15.319 77.1804C16.026 77.1804 16.8116 76.5072 16.733 75.7548Z" fill="#091929"/>
<path d="M25.7273 77.7348C26.5129 78.1704 27.2985 78.6456 28.0448 79.2C28.6732 79.6356 29.6159 79.3188 29.9694 78.6852C30.3622 77.9724 30.0873 77.1804 29.4588 76.7448C28.7125 76.23 27.9269 75.7548 27.1414 75.2796C26.4736 74.9232 25.6095 75.1212 25.2167 75.7944C24.8239 76.4676 25.0596 77.3784 25.7273 77.7348Z" fill="#091929"/>
<path d="M32.9154 78.2497C33.3081 78.2497 33.7009 78.2497 34.0937 78.2497C34.84 78.2497 35.547 77.6161 35.5077 76.8241C35.4685 76.0717 34.8793 75.3985 34.0937 75.3985C33.7009 75.3985 33.3081 75.3985 32.9154 75.3985C32.1691 75.3985 31.462 76.0321 31.5013 76.8241C31.5406 77.5765 32.1298 78.2497 32.9154 78.2497Z" fill="#091929"/>
<path d="M30.0088 69.8544C29.6945 68.7456 29.4196 67.6764 29.1054 66.5676C28.634 64.8252 25.9238 65.5776 26.3951 67.32C26.7094 68.4288 26.9843 69.498 27.2986 70.6068C27.7699 72.3492 30.4801 71.5968 30.0088 69.8544Z" fill="#091929"/>
<path d="M25.8455 69.3792C24.3529 68.0724 22.821 67.0428 20.7785 67.32C20.0322 67.4388 19.6002 68.3892 19.7966 69.0624C20.0322 69.894 20.7785 70.1712 21.5248 70.0524C22.389 69.9336 23.2924 70.884 23.8815 71.3592C25.217 72.5868 27.1809 70.5672 25.8455 69.3792Z" fill="#091929"/>
<path d="M23.9994 63.954C23.8815 63.2808 24.1958 62.6472 24.7849 62.172C25.3741 61.6968 25.2563 60.6672 24.7849 60.192C24.1958 59.598 23.4102 59.7168 22.821 60.192C21.4463 61.2612 20.9749 63.0828 21.2891 64.746C21.4463 65.4984 22.3104 65.934 23.0174 65.736C23.803 65.4588 24.1565 64.7064 23.9994 63.954Z" fill="#091929"/>
<path d="M17.9503 65.736C17.8717 65.6964 17.5575 65.4588 17.7932 65.6964C17.7146 65.6172 17.636 65.538 17.5575 65.4588C17.5182 65.4192 17.4789 65.34 17.4397 65.3004C17.5575 65.4588 17.5575 65.4588 17.4789 65.34C17.4004 65.2212 17.3218 65.142 17.2433 65.0232C16.8505 64.4688 16.4184 63.9144 15.79 63.5976C15.1222 63.2412 14.2188 63.3996 13.8653 64.1124C13.5118 64.746 13.6689 65.6964 14.3759 66.0528C14.4545 66.0924 14.4938 66.132 14.5723 66.1716C14.4152 66.0528 14.4152 66.0528 14.533 66.132C14.6116 66.2112 14.6902 66.2904 14.7687 66.3696C14.8473 66.4884 14.8473 66.4884 14.7687 66.33C14.808 66.3696 14.8473 66.4488 14.8865 66.4884C14.9651 66.6072 15.0437 66.6864 15.1222 66.8052C15.515 67.3596 15.9471 67.914 16.5755 68.1912C17.2433 68.508 18.1074 68.3892 18.5002 67.6764C18.7751 67.0824 18.6573 66.0924 17.9503 65.736Z" fill="#091929"/>
<path d="M12.4904 67.7556C12.0976 67.32 11.7441 66.8448 11.3513 66.4092C11.2727 66.2904 11.1942 66.2112 11.0763 66.0924C11.0371 66.0132 10.9978 66.0528 11.0763 66.2112C10.8799 66.6468 11.3513 66.132 11.312 66.1716C12.5689 64.8648 10.605 62.8848 9.34808 64.1916C8.56251 64.9836 8.01261 66.0132 8.48396 67.1616C8.87674 68.1516 9.85871 68.9832 10.5264 69.7752C11.0371 70.3692 12.019 70.29 12.4904 69.7752C13.0403 69.1812 12.9617 68.3496 12.4904 67.7556Z" fill="#091929"/>
<path d="M6.75607 67.6765C6.40256 67.0825 4.8707 64.5877 5.49915 63.9937C6.79535 62.7265 4.83142 60.7465 3.53523 62.0137C1.53202 63.9541 3.18172 67.1617 4.36008 69.1417C5.26348 70.6861 7.69875 69.2605 6.75607 67.6765Z" fill="#091929"/>
<path d="M24.0383 55.044C23.2527 54.4896 22.4279 53.9748 21.6423 53.4204C21.0138 52.9848 20.0712 53.3016 19.7177 53.9352C19.3249 54.648 19.5998 55.44 20.2283 55.8756C21.0138 56.43 21.8387 56.9448 22.6243 57.4992C23.2527 57.9348 24.1954 57.618 24.5489 56.9844C24.9417 56.2716 24.6668 55.4796 24.0383 55.044Z" fill="#091929"/>
<path d="M23.2138 49.9357C23.0174 49.1041 23.096 48.3121 23.4102 47.5201C23.6852 46.8073 23.096 45.9757 22.4282 45.7777C21.6427 45.5401 20.9749 46.0549 20.7 46.7677C20.2286 48.0349 20.1894 49.3813 20.5036 50.6881C20.9749 52.4701 23.6459 51.7177 23.2138 49.9357Z" fill="#091929"/>
<path d="M24.1957 41.382C24.1957 39.6396 23.3316 38.1744 21.9568 37.1844C21.3284 36.7488 20.3857 37.0656 20.0322 37.6992C19.6001 38.412 19.9144 39.1644 20.5428 39.6396C21.0927 40.0356 21.3677 40.7484 21.3677 41.382C21.4069 43.2036 24.235 43.2036 24.1957 41.382Z" fill="#091929"/>
<path d="M26.2773 36.3926C26.8665 36.0362 27.4557 35.7194 28.0448 35.363C28.6733 35.0066 28.9483 34.0562 28.5555 33.4226C28.1627 32.789 27.2986 32.5118 26.6308 32.9078C26.0416 33.2642 25.4525 33.581 24.8633 33.9374C24.2348 34.2938 23.9599 35.2442 24.3527 35.8778C24.7847 36.5114 25.6096 36.7886 26.2773 36.3926Z" fill="#091929"/>
<path d="M18.5787 58.41C18.7358 58.4496 18.6573 58.4496 18.5787 58.41C18.4609 58.3308 18.343 58.2912 18.2645 58.2516C18.1074 58.1724 17.911 58.0536 17.7539 57.9348C17.8717 58.014 17.7931 57.9744 17.7146 57.8952C17.636 57.8556 17.5967 57.7764 17.5182 57.6972C17.3611 57.5388 17.204 57.3804 17.0861 57.222C16.6148 56.628 15.5935 56.7072 15.1222 57.222C14.5723 57.816 14.6116 58.608 15.1222 59.202C15.8292 60.0732 16.7719 60.7068 17.8324 61.1028C18.5002 61.38 19.4036 60.786 19.5607 60.1128C19.7571 59.3208 19.325 58.6872 18.5787 58.41Z" fill="#091929"/>
<path d="M13.2761 58.8062C13.1975 57.6578 13.1582 56.549 13.1975 55.4006C13.2761 53.579 10.4873 53.579 10.4087 55.4006C10.3695 56.549 10.3695 57.6974 10.4873 58.8062C10.5659 59.5586 11.0765 60.2318 11.9013 60.2318C12.5691 60.2318 13.3154 59.5982 13.2761 58.8062Z" fill="#091929"/>
<path d="M17.872 51.5591C18.3433 49.8563 18.3433 48.1535 17.9505 46.4111C17.5185 44.6291 14.8082 45.3815 15.2403 47.1635C15.5545 48.3911 15.5153 49.5791 15.1617 50.8067C14.6904 52.5491 17.4006 53.3015 17.872 51.5591Z" fill="#091929"/>
<path d="M6.67721 56.3905C6.79505 56.1529 7.10928 56.0341 7.38423 55.9945C7.18784 55.9945 7.38423 55.9945 7.46279 55.9945C7.22711 55.9549 7.6199 56.1133 7.42351 55.9549C7.50206 55.9945 7.65918 56.2321 7.58062 56.0737C7.38423 55.6381 7.18784 55.1629 6.91289 54.7669C6.48082 54.1729 5.65597 53.8165 4.98824 54.2521C4.39906 54.6481 4.04555 55.5193 4.47762 56.1925C5.02752 56.9845 5.18463 57.9745 6.12732 58.4893C7.14856 59.0437 8.44475 58.8457 9.11249 57.8161C9.50527 57.1825 9.2696 56.2321 8.60186 55.8757C7.93413 55.5193 7.07 55.7173 6.67721 56.3905Z" fill="#091929"/>
<path d="M3.33868 55.9548C3.02445 55.5588 2.82806 54.9648 2.82806 54.4896C2.78878 53.7372 2.1996 53.064 1.41403 53.064C0.667735 53.064 0 53.6976 0 54.4896C0.0392786 55.7964 0.510621 56.9448 1.33547 57.9744C1.80681 58.5684 2.82806 58.4892 3.2994 57.9744C3.88858 57.3408 3.81002 56.5488 3.33868 55.9548Z" fill="#091929"/>
<path d="M4.24196 49.7376C4.16341 48.708 4.20269 47.718 4.39908 46.6884C4.79186 44.9064 2.08164 44.154 1.68886 45.936C1.41391 47.2032 1.29607 48.4308 1.41391 49.7376C1.49246 50.49 2.00309 51.1632 2.82794 51.1632C3.53495 51.1632 4.28124 50.5296 4.24196 49.7376Z" fill="#091929"/>
<path d="M5.89161 51.7573C6.87357 52.1136 8.05193 51.9949 8.91605 51.4009C9.81946 50.7673 10.2908 49.7773 10.3694 48.7081C10.4479 47.9557 9.66235 47.2825 8.95533 47.2825C8.13048 47.2825 7.61986 47.9161 7.5413 48.7081C7.5413 48.5893 7.50203 48.8269 7.46275 48.9061C7.38419 49.0645 7.34491 49.1041 7.38419 48.9853C7.26635 49.1041 7.22708 49.1437 7.30563 49.0645C6.9914 49.2229 6.95213 49.1833 6.59862 49.0645C5.89161 48.7873 5.06676 49.3813 4.87036 50.0545C4.71325 50.8069 5.18459 51.4801 5.89161 51.7573Z" fill="#091929"/>
<path d="M11.1947 43.4016C11.2339 43.56 11.2732 43.6788 11.3125 43.8372C11.4303 44.2332 11.3125 43.6788 11.3518 44.0748C11.3518 44.2332 11.3518 44.3916 11.3518 44.55C11.3518 44.5896 11.3125 44.9856 11.3518 44.7876C11.2339 45.5004 11.5482 46.332 12.3337 46.53C13.0015 46.6884 13.9049 46.332 14.062 45.54C14.2191 44.55 14.2191 43.5996 13.9049 42.6492C13.6692 41.9364 12.9229 41.4216 12.1766 41.6592C11.4696 41.8968 10.959 42.6492 11.1947 43.4016Z" fill="#091929"/>
<path d="M16.6935 42.3325C16.7327 42.3325 17.0077 42.3721 16.772 42.3325C16.5363 42.2929 16.772 42.3325 16.8113 42.3721C17.047 42.4117 16.6149 42.2533 16.7327 42.3325C16.772 42.3325 16.772 42.3721 16.8113 42.3721C16.8898 42.4117 16.8506 42.4117 16.6935 42.2929C16.7327 42.3325 16.772 42.3721 16.8113 42.4117C17.0077 42.5701 16.7327 42.2533 16.772 42.3721C16.8898 42.6493 16.7327 42.3325 16.772 42.2929C16.772 42.3325 16.8113 42.4909 16.8506 42.5305C16.9684 43.2433 17.9111 43.7185 18.5788 43.5205C19.3644 43.2829 19.7179 42.5701 19.5608 41.7781C19.3251 40.4713 18.0289 39.4813 16.7327 39.5209C15.9864 39.5605 15.2794 40.1545 15.3187 40.9465C15.3187 41.6593 15.9079 42.3325 16.6935 42.3325Z" fill="#091929"/>
<path d="M9.30911 42.3325C8.99488 41.2633 8.99488 40.2337 9.34838 39.1645C9.89828 37.4221 7.18806 36.6697 6.63816 38.4121C6.16682 39.9169 6.12754 41.5405 6.59889 43.0849C7.10951 44.7877 9.81973 44.0749 9.30911 42.3325Z" fill="#091929"/>
<path d="M3.96723 41.3819C3.88867 39.9959 4.00651 38.6495 4.3993 37.3031C4.90992 35.5607 2.1997 34.8083 1.68907 36.5507C1.25701 38.1347 1.06062 39.7583 1.17845 41.3819C1.25701 43.2035 4.08507 43.2035 3.96723 41.3819Z" fill="#091929"/>
<path d="M5.14528 33.858C6.95209 33.4224 8.28756 32.076 8.91602 30.3336C9.19097 29.6208 8.60179 28.7892 7.93406 28.5912C7.14849 28.3932 6.48075 28.8684 6.2058 29.5812C5.93085 30.3336 5.18456 30.9276 4.35971 31.1256C2.67073 31.5612 3.37774 34.2936 5.14528 33.858Z" fill="#091929"/>
<path d="M9.9768 35.7192C10.0554 35.7588 10.0946 35.7984 10.1732 35.838C10.3303 35.9172 9.93752 35.64 10.1339 35.7984C10.2518 35.8776 10.3303 35.9964 10.4481 36.1152C10.566 36.234 10.4089 36.0756 10.3696 36.036C10.4089 36.1152 10.4481 36.1548 10.4874 36.1944C10.566 36.3132 10.6445 36.4716 10.6838 36.63C10.8017 36.9468 11.2337 37.1844 11.5087 37.2636C11.8622 37.3428 12.2942 37.3032 12.5692 37.1052C12.8834 36.9072 13.1191 36.63 13.1976 36.2736C13.2762 35.8776 13.1976 35.5608 13.0405 35.2044C12.687 34.4124 12.0586 33.7392 11.3123 33.3036C10.6838 32.9076 9.74113 33.1452 9.38762 33.8184C9.11267 34.452 9.30907 35.2836 9.9768 35.7192Z" fill="#091929"/>
<path d="M16.7328 35.5609C17.7147 35.2441 18.6574 34.8085 19.5608 34.2937C20.2286 33.8977 20.4642 33.0265 20.0715 32.3533C19.6787 31.6801 18.8145 31.4425 18.1468 31.8385C17.4398 32.2345 16.7721 32.5909 15.9865 32.8285C15.2795 33.0661 14.8081 33.8185 15.0045 34.5709C15.2009 35.2837 16.0258 35.7589 16.7328 35.5609Z" fill="#091929"/>
<path d="M17.4399 27.6408C16.8507 26.5716 16.3793 25.4628 15.9866 24.3144C15.4367 22.572 12.7264 23.3244 13.2763 25.0668C13.7084 26.4528 14.2976 27.7992 15.0046 29.0664C15.908 30.6504 18.304 29.2248 17.4399 27.6408Z" fill="#091929"/>
<path d="M11.3515 24.552C11.3515 23.364 11.705 22.2552 12.4906 21.384C13.669 20.0376 11.705 18.018 10.5267 19.404C9.26976 20.8692 8.56274 22.6116 8.56274 24.5916C8.56274 26.3736 11.3908 26.3736 11.3515 24.552Z" fill="#091929"/>
<path d="M21.8387 27.3636C22.6242 27.126 23.4098 26.8092 24.0775 26.2548C24.7453 25.6608 25.1381 24.8292 25.0988 23.958C25.0988 23.2056 24.4703 22.4928 23.6848 22.5324C22.9385 22.572 22.2707 23.166 22.2707 23.958C22.2707 24.0768 22.2707 24.1164 22.2707 23.9976C22.1922 24.3144 22.31 23.958 22.2315 24.1164C22.1136 24.3144 22.3493 23.9976 22.1922 24.156C22.1529 24.1956 21.9565 24.354 22.1136 24.2352C22.0351 24.2748 21.9565 24.354 21.8387 24.3936C21.7994 24.4332 21.6423 24.4728 21.7601 24.4332C21.5244 24.5124 21.2888 24.5916 21.0531 24.6708C20.3461 24.9084 19.8355 25.6608 20.0711 26.4132C20.3461 27.0864 21.0924 27.6012 21.8387 27.3636Z" fill="#091929"/>
<path d="M28.1629 28.5912C28.32 29.6208 28.8699 30.6108 29.6162 31.3236C30.1268 31.8384 31.0695 31.878 31.5802 31.3236C32.0908 30.7692 32.1301 29.8584 31.5802 29.3436C31.5409 29.304 31.1874 28.908 31.3445 29.1456C31.2266 28.9872 31.1481 28.8288 31.0695 28.6704C31.0303 28.512 31.0303 28.4724 31.0695 28.6308C31.0303 28.5516 30.991 28.4724 30.991 28.3932C30.9517 28.2348 30.9124 28.0368 30.8731 27.8784C30.7553 27.1656 29.8126 26.6904 29.1449 26.8884C28.3593 27.126 28.0451 27.7992 28.1629 28.5912Z" fill="#091929"/>
<path d="M31.8156 21.0673C32.012 20.3545 32.2084 19.6417 32.4048 18.9685C32.6012 18.2557 32.1691 17.3845 31.4228 17.2261C30.6766 17.0677 29.891 17.4637 29.6946 18.2161C29.4982 18.9289 29.3018 19.6417 29.1054 20.3149C28.909 21.0277 29.3411 21.8989 30.0874 22.0573C30.8337 22.2157 31.6192 21.8197 31.8156 21.0673Z" fill="#091929"/>
<path d="M24.4709 20.5525C24.4709 19.6417 24.7066 18.8497 25.1386 18.0577C26.042 16.4737 23.6068 15.0481 22.7033 16.6321C22.0356 17.8201 21.6821 19.1665 21.6428 20.5525C21.6428 22.3741 24.4316 22.3741 24.4709 20.5525Z" fill="#091929"/>
<path d="M18.5004 19.8397C18.304 18.9289 17.9112 17.4637 18.8931 16.8697C20.4643 15.9589 19.0503 13.5433 17.4791 14.4145C15.2402 15.7213 15.3188 18.3349 15.7901 20.5525C16.1436 22.3741 18.8539 21.6217 18.5004 19.8397Z" fill="#091929"/>
<path d="M22.3105 11.6425C24.8636 11.7613 27.3382 10.2961 28.3987 7.95967C29.145 6.33607 26.749 4.87087 25.9634 6.53407C25.2957 8.03887 23.9209 8.91007 22.2712 8.83087C20.5037 8.75167 20.5037 11.5633 22.3105 11.6425Z" fill="#091929"/>
<path d="M34.4867 5.70245C33.9761 5.90045 33.6619 5.82125 33.4262 5.50445C33.5047 5.66285 33.5047 5.66285 33.4262 5.54405C33.4655 5.70245 33.544 5.86085 33.5833 6.01925C33.7011 6.41525 33.8583 6.81125 33.9761 7.16765C34.2118 7.88045 34.9581 8.39525 35.7043 8.15765C36.4114 7.92005 36.922 7.16765 36.6863 6.41525C36.4506 5.66285 36.2542 4.79165 35.8615 4.11845C35.2723 3.12845 34.0939 2.77206 33.0727 3.28685C32.4049 3.64325 32.2086 4.59365 32.5621 5.22725C32.9548 5.86085 33.819 6.05885 34.4867 5.70245Z" fill="#091929"/>
<path d="M30.3232 11.5237C30.5982 11.9593 30.8731 12.3949 31.1088 12.8305C31.5016 13.4641 32.3657 13.7413 33.0334 13.3453C33.6619 12.9493 33.9368 12.0781 33.5441 11.4049C33.2691 10.9693 32.9942 10.5337 32.7585 10.0981C32.3657 9.4645 31.5016 9.1873 30.8338 9.5833C30.2054 9.9793 29.8912 10.8505 30.3232 11.5237Z" fill="#091929"/>
<path d="M26.5128 15.7212C26.9055 15.7212 27.2983 15.7212 27.6911 15.7212C28.4374 15.7212 29.1444 15.0876 29.1051 14.2956C29.0659 13.5432 28.4767 12.87 27.6911 12.87C27.2983 12.87 26.9055 12.87 26.5128 12.87C25.7665 12.87 25.0595 13.5036 25.0987 14.2956C25.138 15.0876 25.7272 15.7212 26.5128 15.7212Z" fill="#091929"/>
<path d="M34.6436 18.8101C35.0756 19.3645 35.6648 19.7605 36.4111 19.5625C37.1181 19.3645 37.5109 18.8101 37.6287 18.1369C37.8251 17.0281 37.7073 15.8797 37.5109 14.7709C37.3931 14.0185 36.4504 13.5829 35.7826 13.7809C34.9971 14.0185 34.6828 14.7709 34.8007 15.5233C34.8792 15.9193 34.8792 16.3153 34.8792 16.7113C34.8792 16.9489 34.8792 17.1469 34.8792 17.3845C34.8792 17.4637 34.8792 17.5429 34.8792 17.6221C34.84 17.9785 34.8792 17.8993 34.9185 17.4637C35.0756 17.3053 35.272 17.1073 35.4291 16.9489C35.3899 16.9489 35.3506 16.9885 35.3113 16.9885C35.6648 16.9489 36.0183 16.9093 36.3718 16.8301C36.3325 16.8301 36.2933 16.8301 36.254 16.7905C36.5289 16.9885 36.8039 17.2261 37.0788 17.4241C37.0396 17.3845 37.0396 17.3449 37.0003 17.3449C36.5289 16.7509 35.7826 16.4341 35.0756 16.8301C34.565 17.2261 34.2115 18.1765 34.6436 18.8101Z" fill="#091929"/>
<path d="M38.2964 11.6028C38.4535 11.6028 38.3749 11.5236 38.3357 11.5632C38.4928 11.6028 38.4928 11.6028 38.4142 11.5632C38.3357 11.5236 38.3357 11.5236 38.4142 11.5632C38.5713 11.682 38.3357 11.4444 38.4535 11.6028C38.6106 11.8008 38.3357 11.3256 38.532 11.7216C38.5713 11.7612 38.6106 11.9196 38.5713 11.8008C38.6106 11.88 38.6499 11.9988 38.6499 12.078C38.7284 12.3156 38.7677 12.5532 38.807 12.7908C38.9248 13.5036 39.8675 13.9788 40.5353 13.7808C41.3208 13.5432 41.6743 12.8304 41.5172 12.0384C41.3601 11.2068 41.1244 10.4148 40.5745 9.78124C40.0246 9.14764 39.1605 8.67244 38.2964 8.75164C37.5894 8.83084 36.8431 9.34564 36.8823 10.1772C36.9216 10.89 37.5108 11.682 38.2964 11.6028Z" fill="#091929"/>
<path d="M39.9857 16.5528C39.5537 17.1468 39.5144 17.8992 39.6322 18.5724C39.6715 18.8892 39.9857 19.2456 40.2607 19.404C40.5749 19.5624 41.007 19.6416 41.3212 19.5624C41.6747 19.4436 41.989 19.2456 42.1461 18.9288C42.3425 18.5724 42.3425 18.216 42.3032 17.8596C42.3032 17.82 42.3032 17.82 42.3032 17.7804C42.3032 17.8992 42.3425 18.018 42.3425 18.1368C42.3425 18.0576 42.3425 17.9388 42.3425 17.8596C42.3425 17.9784 42.3032 18.0972 42.3032 18.216C42.3032 18.0972 42.3425 17.9784 42.3817 17.8596C42.3425 17.9784 42.3032 18.0972 42.2246 18.216C42.2639 18.1368 42.3032 18.0576 42.3817 17.9784C42.5781 17.7012 42.6174 17.1864 42.5388 16.9092C42.4603 16.5924 42.1853 16.236 41.9104 16.0776C41.5962 15.9192 41.2034 15.8004 40.8499 15.9192C40.4571 16.038 40.2214 16.236 39.9857 16.5528Z" fill="#091929"/>
<path d="M41.2815 3.92049C42.0278 3.24729 42.9312 3.04929 43.9132 3.16809C44.6595 3.24729 45.3272 2.45529 45.3272 1.74249C45.3272 0.910889 44.6987 0.435689 43.9132 0.316889C42.2242 0.118889 40.5352 0.752489 39.3176 1.86129C37.9428 3.12849 39.946 5.10849 41.2815 3.92049Z" fill="#091929"/>
<path d="M55.6971 2.49485C55.3436 1.38605 54.558 0.633646 53.4582 0.277246C52.2798 -0.118754 51.0622 0.118846 49.8446 4.58243e-05C48.0378 -0.158354 48.077 2.65325 49.8446 2.81165C50.3945 2.85125 52.7119 2.45525 52.9869 3.24725C53.4975 4.98965 56.2077 4.23725 55.6971 2.49485Z" fill="#091929"/>
<path d="M61.0386 4.6729C61.3921 4.6729 60.8815 4.5937 61.235 4.7125C61.3135 4.7521 61.4314 4.7521 61.5099 4.7917C61.2742 4.7125 61.667 4.9105 61.667 4.9105C61.5099 4.8313 61.7063 4.9501 61.7456 4.9897C61.7849 5.0293 61.9813 5.2273 61.8634 5.0689C61.942 5.1481 61.9813 5.2669 62.0598 5.3461C62.0991 5.4253 62.0991 5.4253 62.0598 5.3065C62.0598 5.3461 62.0991 5.3857 62.0991 5.4253C62.1384 5.5441 62.1776 5.7025 62.1776 5.8213C62.2955 6.5737 63.2382 7.0093 63.9059 6.8113C64.6915 6.5737 65.0057 5.8213 64.8879 5.0689C64.6129 3.2077 62.8847 1.8613 61.0778 1.7821C60.3316 1.7425 59.6638 2.4553 59.6638 3.2077C59.6638 4.0393 60.2923 4.6333 61.0386 4.6729Z" fill="#091929"/>
<path d="M67.9519 6.81125C67.9519 9.26645 70.0337 11.3257 72.5082 11.0485C73.2545 10.9693 73.9222 10.4545 73.9222 9.62285C73.9222 8.91005 73.2938 8.11805 72.5082 8.19725C71.5655 8.31605 70.78 7.80125 70.78 6.77165C70.7407 4.98965 67.9519 4.98965 67.9519 6.81125Z" fill="#091929"/>
<path d="M64.2206 8.7121C63.7493 9.3853 62.728 10.4149 61.9817 9.5041C61.5104 8.9101 60.4892 9.0289 60.0178 9.5041C59.4286 10.0981 59.5465 10.8901 60.0178 11.4841C60.8034 12.5137 62.2174 12.8701 63.4743 12.5929C64.8491 12.2761 65.8703 11.2465 66.6559 10.1377C67.6771 8.6725 65.2419 7.24689 64.2206 8.7121Z" fill="#091929"/>
<path d="M56.6394 6.33609C56.6394 6.17769 56.6787 6.33609 56.5608 6.41529C56.3252 6.57369 56.0895 6.73209 55.8146 6.85089C55.6182 6.93009 55.3432 6.96969 55.1861 7.08849C54.9897 7.20729 55.029 6.69249 55.2254 7.28649C54.6362 5.58369 51.926 6.33609 52.5152 8.03889C53.7328 11.4841 59.3889 9.58329 59.4282 6.37569C59.4282 4.51449 56.6394 4.51449 56.6394 6.33609Z" fill="#091929"/>
<path d="M49.9622 7.28644C49.9622 5.94004 49.2944 4.79164 48.0768 4.23724C47.4091 3.92044 46.5056 4.35604 46.27 5.06884C46.0343 5.86084 46.3878 6.57364 47.0948 6.89044C46.9377 6.81124 46.8984 6.77164 47.0555 6.85084C47.1734 6.93004 47.1734 6.93004 47.0163 6.81124C47.0948 6.85084 47.2519 7.16764 47.1734 6.96964C47.0948 6.85084 47.0948 6.89044 47.1734 6.96964C47.2519 7.12804 47.2127 7.08844 47.1734 6.89044C47.2519 6.93004 47.2127 7.44484 47.2127 7.00924C47.2127 7.76164 47.684 8.51404 48.4696 8.55364C49.1373 8.59324 49.9229 8.07844 49.9622 7.28644Z" fill="#091929"/>
<path d="M41.5173 6.33612C41.5173 7.36572 41.6352 8.39532 41.8316 9.42492C41.9887 10.1773 42.8528 10.6129 43.5598 10.4149C44.3454 10.2169 44.6989 9.42492 44.5418 8.67252C44.3847 7.88052 44.3061 7.12812 44.3061 6.33612C44.3454 4.51452 41.5173 4.51452 41.5173 6.33612Z" fill="#091929"/>
<path d="M47.6057 13.9392C48.2735 13.3056 49.0983 12.87 49.9624 12.6324C51.6907 12.1572 50.9837 9.46439 49.2162 9.89999C47.8414 10.2564 46.6238 10.9692 45.6025 11.9196C44.3063 13.1868 46.2703 15.1668 47.6057 13.9392Z" fill="#091929"/>
<path d="M52.2407 13.7413C51.6908 14.5333 50.7874 15.1669 49.8447 15.2857C49.0984 15.3649 48.4307 15.8797 48.4307 16.7113C48.4307 17.3845 49.0591 18.2161 49.8447 18.1369C51.8479 17.8597 53.4976 16.9093 54.6759 15.2065C55.6972 13.6621 53.2619 12.2365 52.2407 13.7413Z" fill="#091929"/>
<path d="M57.7004 14.6124C58.1324 15.2064 58.6038 15.9984 58.8002 16.5528C59.0751 17.2656 59.7428 17.7408 60.5284 17.5428C61.1962 17.3448 61.7853 16.5132 61.5104 15.8004C61.1569 14.85 60.7248 13.9788 60.0963 13.1472C59.625 12.5532 58.8787 12.2364 58.1717 12.6324C57.5825 13.0284 57.229 14.0184 57.7004 14.6124Z" fill="#091929"/>
</g>
<defs>
<clipPath id="clip0">
<rect width="98" height="99" fill="white"/>
</clipPath>
</defs>
</svg>
