<svg width="18" height="21" viewBox="0 0 18 21" fill="none" xmlns="http://www.w3.org/2000/svg">
<g clip-path="url(#clip0)">
<path d="M9.15669 20.5C8.38706 20.5 7.75879 19.8634 7.75879 19.0835V15.9958C7.75879 15.2159 8.38706 14.5792 9.15669 14.5792C9.92633 14.5792 10.5546 15.2159 10.5546 15.9958V19.0835C10.5546 19.8634 9.94203 20.5 9.15669 20.5Z" fill="#020A13"/>
<path d="M9.15669 5.92081C8.38706 5.92081 7.75879 5.28416 7.75879 4.50427V1.41654C7.75879 0.636646 8.38706 0 9.15669 0C9.92633 0 10.5546 0.636646 10.5546 1.41654V4.50427C10.5546 5.28416 9.94203 5.92081 9.15669 5.92081Z" fill="#020A13"/>
<path d="M13.9785 8.61051C13.4916 8.61051 13.0204 8.35586 12.7691 7.89429C12.3765 7.20989 12.6121 6.35042 13.2874 5.95252L15.9262 4.40865C16.6016 4.01075 17.4498 4.24949 17.8424 4.93388C18.2351 5.61828 17.9995 6.47775 17.3241 6.87565L14.6854 8.41952C14.4497 8.54685 14.2141 8.61051 13.9785 8.61051Z" fill="#020A13"/>
<path d="M1.5076 15.9002C1.02069 15.9002 0.549482 15.6455 0.298173 15.1839C-0.0944968 14.4995 0.141105 13.6401 0.816498 13.2422L3.45524 11.6983C4.13063 11.3004 4.9788 11.5391 5.37147 12.2235C5.76414 12.9079 5.52854 13.7674 4.85315 14.1653L2.2144 15.7092C1.99451 15.8365 1.7432 15.9002 1.5076 15.9002Z" fill="#020A13"/>
<path d="M4.03633 8.78561C3.80073 8.78561 3.56513 8.72195 3.34523 8.59462L0.706491 7.06667C0.0310982 6.66877 -0.188797 5.80929 0.188166 5.1249C0.580836 4.44051 1.429 4.21768 2.1044 4.59967L4.74314 6.14353C5.41853 6.54144 5.63843 7.40091 5.26147 8.0853C4.97874 8.53096 4.50754 8.78561 4.03633 8.78561Z" fill="#020A13"/>
<path d="M16.4919 16.0752C16.2563 16.0752 16.0207 16.0116 15.8008 15.8842L13.1621 14.3404C12.4867 13.9425 12.2668 13.083 12.6437 12.3986C13.0364 11.7142 13.8846 11.4914 14.56 11.8734L17.1987 13.4172C17.8741 13.8151 18.094 14.6746 17.717 15.359C17.45 15.8206 16.9788 16.0752 16.4919 16.0752Z" fill="#020A13"/>
</g>
<defs>
<clipPath id="clip0">
<rect width="18" height="20.5" fill="white"/>
</clipPath>
</defs>
</svg>
