<svg width="102" height="35" viewBox="0 0 102 35" fill="none" xmlns="http://www.w3.org/2000/svg">
<path d="M79.1727 10.381C80.3285 11.2602 81.404 12.192 82.5906 12.9499C83.8487 13.7549 85.191 14.4199 86.5936 14.9332C87.7612 15.3599 88.8863 15.8928 90.1567 15.9397C91.0334 16.5637 92.0882 16.4181 93.0661 16.5885C93.466 16.6577 93.9061 16.4751 94.3144 16.5231C94.7541 16.5747 95.1758 16.4107 95.5675 16.4374C97.0159 16.5366 98.406 16.0493 99.8416 16.0972C99.9471 16.1008 100.057 15.9819 100.206 15.8958L101.308 16.8579L100.072 17.5357L101.4 17.7164L100.921 18.5139L101.139 19.004C100.886 19.456 100.691 20.1012 100.264 20.4987C99.6701 21.0529 98.9253 21.4607 98.2008 21.8484C97.8601 22.0131 97.4763 22.067 97.1035 22.0024C96.325 21.8634 95.5558 22.2747 94.7797 21.9915C94.6661 21.9499 94.4823 22.1003 94.308 22.1711C94.276 22.0166 94.2427 21.8554 94.2086 21.6906L89.2428 21.015C89.6972 21.3489 90.225 21.3406 90.73 21.4221C91.3028 21.514 91.88 21.5786 92.4547 21.6612C92.9649 21.7351 93.4738 21.8188 93.9491 22.1338C92.9474 21.9975 91.945 21.8664 90.9443 21.7236C89.755 21.5537 88.5229 21.525 87.519 20.7205C86.3209 20.576 85.3048 19.9706 84.2284 19.4932C83.7204 19.2739 83.2806 18.9221 82.955 18.4746C82.8841 18.5286 82.8135 18.583 82.6829 18.6839C81.9477 18.1483 81.2399 17.5158 80.4266 17.0802C79.865 16.7794 79.7203 16.1018 79.1051 15.9002C78.8789 15.8261 78.6946 15.6266 78.3753 15.4031C78.0067 15.2243 77.3278 15.5559 76.9401 14.9568C76.8692 15.0106 76.798 15.0646 76.6845 15.1511L76.3685 14.9089L76.1145 15.3551L75.6745 15.2952L75.9724 14.9267C75.9029 14.8821 75.8159 14.7852 75.7665 14.8015C75.4124 14.9186 75.064 15.0542 74.7175 15.1929C74.4069 15.3172 74.101 15.4533 73.7212 15.6147L73.3682 15.3116L73.0618 15.7776L72.8852 15.5638C72.5824 15.7472 72.277 16.0881 71.9738 16.086C71.144 16.0799 70.4736 16.5643 69.6924 16.6943C69.2963 16.7601 68.9234 17.0474 68.572 17.2824C67.4264 18.068 66.1556 18.6531 64.8139 19.0127L64.5378 18.6755L63.9594 19.1198L62.8208 18.9649C62.6192 19.2135 62.4345 19.4411 62.2278 19.6964L61.7623 19.6331C61.5843 19.8045 61.4404 20.0655 61.2522 20.1028C60.3794 20.2755 59.5367 20.7612 58.6028 20.0701C58.2048 19.7756 57.5107 19.8814 56.9183 20.0229L58.5009 20.3373L58.4728 20.4906L56.6909 20.2481C56.6568 20.0831 56.6235 19.9219 56.5675 19.6501C55.8626 20.1636 55.2546 19.8455 54.6704 19.4903C53.8491 18.9909 53.0573 18.4827 52.375 17.7571C51.4929 16.819 50.5439 15.9121 49.4022 15.2595C49.2697 15.1614 49.1458 15.0523 49.0316 14.9334L47.4776 14.722C47.4375 14.6371 47.3995 14.5919 47.4096 14.5712C47.4279 14.5355 47.4793 14.5181 47.5107 14.4869C47.5641 14.434 47.6127 14.3761 47.707 14.2722L46.7571 14.143C46.7186 13.9428 46.6879 13.7831 46.6496 13.584L46.1165 13.4202L46.371 13.9135L46.0499 14.183L46.858 14.4609C45.0818 14.5028 43.3245 14.9674 41.599 14.4349C41.1558 15.2946 40.4524 15.4275 39.5931 15.2785C38.3238 16.1639 37.0507 17.0994 35.7292 17.9605C34.3519 18.8577 32.8304 19.5481 31.2076 19.6976C29.8403 19.8235 28.3696 20.134 27.0684 19.2613C26.9432 19.212 26.8085 19.1915 26.6744 19.2015C25.319 19.0836 24.2375 18.3358 23.1537 17.6251C22.7005 17.3271 22.385 16.8239 21.9386 16.5113C21.3264 16.0823 20.6237 15.8214 19.9222 15.5387C18.6677 15.0334 17.3574 15.0106 16.0708 14.7895C14.888 14.596 13.6804 14.6109 12.5026 14.8335C12.369 14.8552 12.2319 14.8351 12.1101 14.7758C11.9972 14.6875 11.8989 14.5819 11.8188 14.463C11.7446 14.6134 11.6736 14.7572 11.5505 15.0064L10.939 14.6735C10.9032 14.7594 10.8556 14.8742 10.7745 15.0693C9.65651 15.2311 8.63563 16.1441 7.34847 15.755L6.9021 16.0944L7.1422 16.4483C6.44731 16.8332 5.6791 17.1243 5.08633 17.6237C4.45652 18.1543 3.86609 18.7028 2.99346 19.1405C2.90647 19.2751 2.72737 19.5517 2.51495 19.88L1.79934 20.1709C1.6159 20.9612 1.6159 20.9612 1.15114 21.3869L0.156613 20.0789L0.472255 17.7592C0.535714 17.7269 0.939775 17.6431 0.976604 17.4777C1.12652 16.8024 1.85854 16.6916 2.12876 16.1577C2.41581 15.5913 2.97816 15.3058 3.43851 14.9146C4.0674 14.3798 4.68781 13.8358 5.28734 13.2704C6.63893 11.9965 9.23486 10.8393 11.4845 10.6342C12.0159 10.5857 12.5335 10.4011 13.0639 10.3241C13.5646 10.2515 14.0503 10.6416 14.6025 10.286C14.8307 10.139 15.2893 10.3499 15.3378 10.3565L16.1098 10.8942C15.9031 11.1117 15.7891 11.2322 15.6254 11.4042L17.2476 11.625L16.4493 11.2183C17.2806 10.5552 18.0562 10.0712 19.061 10.8113C19.1753 10.872 19.302 10.9059 19.4314 10.9107C21.0701 11.1571 22.4248 11.9115 23.6452 13.0355C24.1393 13.4908 24.8198 13.897 25.5615 13.8949C26.2891 13.8926 26.8661 14.3218 27.5389 14.4476C29.5828 14.8298 31.4743 14.3091 33.2733 13.3984C34.2347 12.9239 35.1592 12.3783 36.0392 11.766C37.5498 10.6909 39.2606 10.1517 41.0329 9.81779C42.307 9.57768 43.6288 9.60884 44.9171 9.47328C46.2664 9.332 47.525 9.73303 48.8293 9.76091C49.6752 9.77899 50.2806 10.2463 50.8534 10.7194C52.1178 11.7638 53.2984 12.9091 54.5522 13.967C55.1295 14.4539 55.8793 14.6715 56.5947 14.8749C57.9042 15.2473 59.2378 15.0646 60.5348 14.7969C61.5818 14.5808 62.5981 14.2121 63.6232 13.895C65.343 13.3627 66.9534 12.5777 68.5909 11.8376C70.24 11.0922 71.982 10.4897 73.8553 10.4624C74.4275 10.454 75.0012 10.2893 75.5671 10.1656C76.8042 9.89567 77.9924 10.2895 79.1727 10.381Z" fill="#FFD166"/>
</svg>
