<svg width="18" height="18" viewBox="0 0 18 18" fill="none" xmlns="http://www.w3.org/2000/svg">
<g clip-path="url(#clip0)">
<path d="M9.00149 17.5267C13.7485 17.5267 17.5967 13.7038 17.5967 8.98798C17.5967 4.27215 13.7485 0.449219 9.00149 0.449219C4.25447 0.449219 0.40625 4.27215 0.40625 8.98798C0.40625 13.7038 4.25447 17.5267 9.00149 17.5267Z" fill="#3AB57B"/>
<path d="M0.430578 8.98774H0.83534C0.81153 9.03504 0.81153 9.08235 0.954388 9.106C0.930578 9.12965 0.930578 9.15331 0.906769 9.17696C0.81153 9.22427 0.83534 9.24792 0.930578 9.29523C1.00201 9.31888 0.978197 9.38984 0.906769 9.41349C0.906769 9.41349 0.930578 9.4608 0.954388 9.4608C0.906769 9.48445 0.930578 9.48445 0.954388 9.48445C0.954388 9.55541 0.978197 9.60272 0.954388 9.62637C0.930578 9.67368 0.906769 9.60272 0.906769 9.62637C0.906769 9.67368 0.85915 9.72098 0.882959 9.76829C1.00201 9.91021 0.930578 10.0994 1.00201 10.265C0.978197 10.4306 1.12105 10.5488 1.04963 10.7381C1.00201 10.88 1.14486 11.0456 1.2401 11.1638C1.31153 11.2584 1.2401 11.3294 1.2401 11.4004C1.2401 11.424 1.26391 11.4477 1.28772 11.4713C1.31153 11.5896 1.35915 11.7078 1.38296 11.8261C1.38296 11.8971 1.33534 11.968 1.33534 12.039C1.33534 12.0626 1.40677 12.0863 1.45439 12.0863C1.62105 12.0626 1.4782 12.2282 1.57344 12.2282C1.54963 12.3228 1.59724 12.4174 1.43058 12.4647C1.4782 12.4647 1.52582 12.4411 1.57344 12.4411C1.71629 12.4647 1.64486 12.583 1.66867 12.654C1.66867 12.7249 1.71629 12.7959 1.81153 12.7959C1.81153 12.7722 1.81153 12.7722 1.81153 12.7486H1.83534C1.83534 12.7722 1.85915 12.8195 1.85915 12.8432C1.85915 12.8668 1.83534 12.8668 1.83534 12.8905C1.83534 12.8905 1.81153 12.8905 1.78772 12.8905C1.76391 12.8905 1.76391 12.8668 1.76391 12.8668C1.76391 12.8905 1.7401 12.8905 1.7401 12.8905C1.76391 12.9141 1.78772 12.9378 1.81153 12.9378C1.93058 12.8905 1.85915 13.0324 1.93058 13.0088C1.90677 13.1743 1.93058 13.1743 2.04963 13.2689C2.09724 13.2926 2.09724 13.3636 2.14486 13.3636C2.2401 13.3872 2.14486 13.4345 2.14486 13.4818C2.14486 13.5055 2.14486 13.5291 2.14486 13.5528C2.14486 13.5291 2.14486 13.5055 2.16867 13.4818L2.19248 13.4582C2.21629 13.5055 2.16867 13.6001 2.31153 13.6001C2.40677 13.6001 2.43058 13.7893 2.52582 13.8839C2.59724 13.9549 2.64486 14.0022 2.57344 14.1205C2.69248 14.0731 2.76391 14.1441 2.83534 14.1914C2.90677 14.2624 2.9782 14.357 3.07343 14.4279C3.14486 14.4753 2.95439 14.5462 3.02582 14.5226C3.14486 14.4989 3.16867 14.5462 3.21629 14.5935C3.26391 14.6645 3.38296 14.6881 3.33534 14.83C3.33534 14.83 3.28772 14.83 3.26391 14.83L3.33534 14.901V14.9247V14.901C3.4782 14.83 3.43058 14.9956 3.52582 15.0193C3.59724 15.0193 3.64486 15.0902 3.69248 15.1375C3.71629 15.1612 3.81153 15.1612 3.7401 15.2558C3.7401 15.2558 3.7401 15.3031 3.76391 15.3031C3.78772 15.3031 3.83534 15.3268 3.85915 15.3031C3.90677 15.2558 3.9782 15.2558 4.04963 15.3268C4.12105 15.3977 4.21629 15.4214 4.26391 15.516C4.33534 15.6579 4.4782 15.6816 4.57344 15.7998C4.62105 15.8708 4.66867 15.8944 4.69248 16.0127C4.69248 16.0837 4.71629 15.9181 4.78772 15.9654C4.93058 16.0364 4.64486 16.2019 4.78772 16.2729C4.83534 16.2965 4.85915 16.4621 4.95439 16.2965H4.93058C4.93058 16.2729 4.90677 16.2492 4.90677 16.2256C4.88296 16.1546 4.93058 16.1073 4.95439 16.06C4.9782 16.1073 5.04963 16.1546 5.02582 16.1783C5.00201 16.2729 5.07343 16.2256 5.07343 16.2729C5.07343 16.2492 5.07343 16.2256 5.09724 16.2256H5.12105L5.33534 16.3202L5.26391 16.3675C5.33534 16.3911 5.45439 16.3911 5.45439 16.4385C5.4782 16.5331 5.64486 16.4148 5.59724 16.5804C5.64486 16.5804 5.69248 16.5094 5.69248 16.604C5.76391 16.5331 5.78772 16.7459 5.88296 16.604C5.88296 16.604 5.95439 16.6277 5.9782 16.6513L6.31153 16.8406C6.19248 16.9115 6.35915 16.9588 6.28772 17.0298C6.28772 17.0298 6.28772 17.0534 6.28772 17.0771L6.31153 17.0298C6.35915 17.2427 6.4782 17.0534 6.54962 17.0298C6.54962 17.1007 6.57343 17.148 6.64486 17.148C6.64486 17.148 6.66867 17.1244 6.69248 17.1007C6.64486 17.0771 6.66867 16.9588 6.57343 17.0061C6.52582 16.9588 6.45439 16.9115 6.54962 16.7933C6.54962 16.7696 6.62105 16.7696 6.57343 16.7223H6.52582C6.50201 16.8406 6.40677 16.9115 6.33534 16.9825C6.33534 16.9352 6.33534 16.8406 6.35915 16.8169C6.4782 16.6986 6.59724 16.6277 6.7401 16.7459C6.85915 16.8406 7.04963 16.8169 7.19248 16.8406C7.2401 16.8406 7.31153 16.8169 7.28772 16.9352C7.31153 16.9115 7.33534 16.8879 7.33534 16.8879C7.4782 17.0298 7.71629 16.8879 7.83534 17.0771H7.85915L7.90677 17.0298C7.88296 17.0298 7.88296 17.0298 7.85915 17.0298V17.0061C7.88296 17.0061 7.93058 16.9825 7.95439 16.9825C8.07343 16.9825 8.21629 17.0061 8.33534 17.0298C8.35915 17.0298 8.38296 17.0534 8.40677 17.0771C8.38296 17.0771 8.33534 17.1007 8.31153 17.1007C8.28772 17.1007 8.26391 17.1244 8.2401 17.1007C8.16867 17.0534 8.04962 17.148 7.9782 17.0298C7.9782 17.0534 7.95439 17.0534 7.95439 17.0771C7.93058 17.1954 7.9782 17.1244 8.00201 17.1244C8.02582 17.1244 8.07343 17.1007 8.09724 17.1244C8.12105 17.1717 8.07343 17.219 8.14486 17.148C8.16867 17.1007 8.31153 17.1244 8.38296 17.148C8.50201 17.219 8.57343 17.0061 8.66867 17.0534C8.71629 17.0771 8.76391 17.0534 8.81153 17.0534L9.02582 17.0771H9.2401C9.26391 17.0771 9.28772 17.1007 9.28772 17.1244C9.28772 17.148 9.28772 17.1954 9.31153 17.219C9.31153 17.1954 9.31153 17.148 9.31153 17.1244C9.31153 17.1007 9.31153 17.1007 9.31153 17.0771C9.31153 17.0771 9.31153 17.1007 9.33534 17.1007C9.33534 17.148 9.35915 17.1954 9.35915 17.2427C9.40677 17.219 9.40677 17.1717 9.38296 17.1007C9.38296 17.1007 9.40677 17.0771 9.40677 17.0534C9.40677 17.0534 9.40677 17.0534 9.43058 17.0534C9.43058 17.0771 9.43058 17.0771 9.43058 17.1007C9.40677 17.1717 9.45439 17.219 9.50201 17.2427C9.52582 17.2663 9.54962 17.29 9.54962 17.29L9.52582 17.3136V17.3373C9.54962 17.3373 9.57343 17.3373 9.57343 17.3373C9.57343 17.3373 9.59724 17.3136 9.59724 17.29C9.59724 17.219 9.57343 17.1717 9.57343 17.1007C9.57343 17.0298 9.57343 17.0061 9.66867 17.0534C9.69248 17.0534 9.69248 17.0771 9.71629 17.1007C9.76391 16.9352 9.85915 17.0771 9.93058 17.0771C10.0496 17.0534 10.1925 17.1244 10.2877 16.9352H10.3115C10.3353 16.9588 10.383 16.9825 10.4068 16.9825C10.4782 16.9588 10.5258 16.9115 10.5972 16.8879C10.6925 16.8642 10.7877 16.8169 10.8591 16.7933C10.883 16.7933 10.9068 16.8406 10.9306 16.8642C10.9544 16.9588 10.9782 17.0298 11.0734 16.9588L11.1211 17.0061C11.1925 16.9825 11.2639 16.9825 11.3353 16.9588C11.4068 16.9352 11.4782 16.9115 11.5496 16.9115C11.6211 16.8879 11.6925 16.8879 11.7877 16.9115C11.883 16.9352 11.9782 16.8879 12.0972 16.9115C12.1211 16.9115 12.1449 16.8406 12.1687 16.7933C12.1211 16.8169 12.0972 16.6277 12.0496 16.7459C11.9782 16.675 11.9306 16.8169 11.8591 16.7223C11.8353 16.6986 11.8353 16.675 11.8115 16.6277C11.8591 16.6277 11.9068 16.6513 11.9544 16.6513C12.0258 16.6277 12.1211 16.5804 12.1925 16.5094C12.2401 16.4621 12.2639 16.4858 12.3115 16.5567V16.5804C12.2877 16.4858 12.3591 16.5331 12.383 16.5094C12.383 16.5331 12.383 16.5567 12.4068 16.5804C12.4306 16.604 12.4544 16.604 12.4782 16.604C12.5734 16.604 12.5258 16.5094 12.5496 16.4385L12.6925 16.3675V16.4385L12.7877 16.4621H12.8115H12.8591C12.9068 16.3202 12.9782 16.2965 13.0972 16.4148H13.1211C13.002 16.2965 13.1211 16.2729 13.1449 16.2019C13.0972 16.1783 13.0496 16.131 13.1211 16.1073C13.1925 16.06 13.2639 15.989 13.3353 15.9417H13.3591V15.9654C13.3591 15.989 13.3591 16.0127 13.3591 16.0364C13.3591 16.0364 13.383 16.0364 13.4068 16.0364C13.4068 16.0127 13.383 15.989 13.383 15.989C13.4306 15.9654 13.502 15.989 13.5258 15.9417C13.5972 15.8708 13.5972 16.0127 13.6211 15.989C13.6449 15.9654 13.6449 15.8944 13.6449 15.8708C13.6449 15.8471 13.6687 15.8471 13.6687 15.8235C13.6687 15.8235 13.6925 15.8235 13.7163 15.8471C13.6925 15.8471 13.6925 15.8471 13.6687 15.8708C13.6687 15.8944 13.6687 15.9181 13.6449 15.9417L13.6687 15.9654L13.7639 15.8944C13.8115 15.8708 13.883 15.8708 13.883 15.8471C13.9068 15.7525 13.8115 15.7762 13.7877 15.7762C13.7639 15.7762 13.7639 15.8471 13.7401 15.8708C13.6449 15.7762 13.7877 15.7525 13.7163 15.6816C13.7877 15.7289 13.7401 15.5396 13.8353 15.6343H13.8591C13.8591 15.6106 13.8591 15.5869 13.8591 15.5633C13.8591 15.5396 13.8353 15.516 13.8115 15.4923L13.7401 15.6106H13.8115L13.7877 15.6343V15.6579C13.8115 15.6816 13.8591 15.7052 13.883 15.7289L13.9068 15.6579C13.883 15.6579 13.883 15.6816 13.8591 15.6579C13.8353 15.6579 13.8353 15.6343 13.8353 15.6106C13.8353 15.5633 13.8591 15.516 13.883 15.4687C13.883 15.4923 13.883 15.516 13.9068 15.516C13.9306 15.5869 13.9782 15.6106 14.0258 15.5869C14.0734 15.5869 14.0972 15.5869 14.0734 15.6343C14.0734 15.6579 14.0496 15.6816 14.0258 15.7052C14.0496 15.7052 14.0734 15.7052 14.0972 15.7052C14.2401 15.7052 14.0972 15.6343 14.0972 15.6106C14.0972 15.4687 14.2639 15.5869 14.3115 15.4923C14.3591 15.4923 14.4306 15.5633 14.4068 15.445C14.383 15.3977 14.4306 15.3504 14.4782 15.3977L14.502 15.1139C14.502 15.1139 14.502 15.1139 14.5258 15.1139C14.5734 15.1612 14.6211 15.1848 14.6687 15.2321C14.6449 15.2558 14.6211 15.2795 14.5972 15.2795C14.502 15.2795 14.5972 15.3741 14.5496 15.3977C14.5734 15.3977 14.6211 15.3977 14.6449 15.3977C14.8353 15.4214 14.5972 15.3268 14.6449 15.3268C14.6687 15.3268 14.6449 15.3031 14.6687 15.2795C14.8115 15.2085 14.6687 15.0902 14.6687 14.9956C14.6687 14.972 14.6925 14.9247 14.7163 14.901C14.7401 14.901 14.7639 14.9247 14.7639 14.9247C14.8353 15.0666 14.9306 14.972 15.0258 14.9956C15.1211 15.0429 15.2401 15.0666 15.3115 14.972C15.3353 14.9483 15.3591 14.9483 15.383 14.9247C15.383 14.901 15.383 14.8774 15.383 14.8537C15.3353 14.972 15.1211 14.7827 15.0972 14.9247C15.0972 14.9483 15.0734 14.9483 15.0496 14.9483C15.0496 14.901 15.0496 14.83 15.0496 14.7827C15.0496 14.7827 15.0972 14.7827 15.1449 14.7827L15.1687 14.8064C15.1687 14.7827 15.1687 14.7591 15.1687 14.7354C15.1687 14.6881 15.1449 14.6645 15.1449 14.6172C15.1449 14.5935 15.1925 14.5935 15.2163 14.5935C15.2163 14.6172 15.1925 14.6408 15.1925 14.6645C15.1925 14.6645 15.1925 14.7591 15.2401 14.6881C15.2639 14.6408 15.2639 14.5935 15.2877 14.5226H15.3353C15.3115 14.4279 15.4068 14.4516 15.4306 14.4516C15.5258 14.4752 15.6211 14.5462 15.5496 14.6408C15.5496 14.6645 15.502 14.6408 15.4782 14.6408C15.502 14.6645 15.5258 14.6881 15.5258 14.6881C15.5734 14.6645 15.6449 14.6408 15.6449 14.6172C15.6211 14.5226 15.5972 14.4279 15.7401 14.4516L15.7163 14.4279C15.6687 14.4279 15.5972 14.4279 15.5734 14.4516C15.5258 14.4989 15.5258 14.4753 15.5258 14.4279C15.5258 14.4043 15.5258 14.4043 15.5258 14.3806C15.5258 14.3333 15.4544 14.4753 15.4782 14.357C15.4782 14.357 15.383 14.2624 15.502 14.3097C15.5258 14.3097 15.5734 14.2624 15.5496 14.2624C15.5258 14.2151 15.7401 14.2387 15.5734 14.1205V14.0731C15.5972 13.9785 15.5734 13.8603 15.6687 13.813L15.6925 13.7893H15.7163C15.8115 13.9785 15.8353 13.8366 15.883 13.813C15.8591 13.8366 15.8353 13.8603 15.8353 13.8839C15.8591 13.9549 15.9068 13.8839 15.9306 13.9076L16.002 13.7893L16.1211 13.9076C16.1449 13.8366 16.3115 13.9076 16.2877 13.7893C16.2639 13.7184 16.0734 13.7657 16.1211 13.6237C16.1211 13.6237 16.0972 13.6474 16.0734 13.6474C15.9306 13.6474 16.0972 13.7657 16.0258 13.7893V13.742L15.9068 13.813C15.9068 13.6947 15.8353 13.7657 15.7877 13.742H15.7639V13.7184C15.8115 13.6237 15.9306 13.5528 15.9068 13.4109L15.9306 13.3872C15.9544 13.3872 15.9782 13.4109 16.002 13.4109C16.0258 13.4109 16.0258 13.4345 16.0258 13.4582L16.1449 13.3636C16.1211 13.3636 16.0972 13.3399 16.0972 13.3162L16.0734 13.2926C16.0972 13.198 16.1449 13.127 16.1687 13.0324C16.1925 12.9378 16.3353 12.9141 16.2877 12.7959C16.3115 12.8195 16.3353 12.8195 16.3353 12.8432C16.3353 12.8668 16.3353 12.8905 16.3353 12.9378C16.3591 12.8668 16.4782 13.0324 16.4782 12.9141V12.8905H16.4544C16.4306 12.8905 16.4068 12.8905 16.383 12.8905C16.383 12.8905 16.383 12.8905 16.383 12.8668C16.4782 12.9141 16.383 12.7959 16.4306 12.7959C16.4544 12.7959 16.502 12.7959 16.5258 12.7959C16.5496 12.7959 16.5258 12.7486 16.5258 12.7249C16.502 12.7013 16.4544 12.6776 16.4068 12.6776H16.383V12.654C16.4068 12.6303 16.4306 12.583 16.4544 12.5594C16.4782 12.5357 16.5734 12.5357 16.5734 12.512C16.5734 12.4174 16.5258 12.5594 16.5258 12.4884C16.4782 12.3701 16.5734 12.2755 16.6211 12.2046C16.6925 12.1099 16.7877 12.0153 16.9068 11.9444C16.9782 11.8971 16.9068 11.8498 16.9306 11.8261L16.8353 11.8025C16.8353 11.8498 16.8353 11.8734 16.8353 11.9207C16.8353 11.9444 16.8591 11.968 16.8591 11.968C16.8353 11.968 16.8115 11.9444 16.7877 11.9444C16.7639 11.9207 16.6925 11.8498 16.7163 11.8498C16.8591 11.7315 16.8353 11.5423 16.9068 11.4004C16.9306 11.353 16.9782 11.3294 16.9782 11.2821C16.9782 11.2584 16.9544 11.2111 16.9544 11.1875L17.002 11.1638C17.0258 11.1875 17.0496 11.2111 17.0972 11.2584C17.0972 11.2348 17.0972 11.1875 17.0734 11.1638C17.0496 11.1402 17.0258 11.0929 17.0258 11.0692C17.0258 11.0456 17.002 11.0219 17.002 11.0219C17.1925 10.9273 17.0258 10.7381 17.1211 10.6198L17.1449 10.5961C17.1449 10.5961 17.1687 10.5961 17.1687 10.6198C17.1687 10.6671 17.1925 10.7617 17.2163 10.7381C17.2877 10.6671 17.3115 10.5725 17.3115 10.5015C17.3115 10.4779 17.2639 10.4306 17.2163 10.3833L17.1687 10.3596L17.2401 10.0994C17.2401 10.1231 17.2639 10.1467 17.2639 10.1704H17.2877L17.3115 10.0285H17.2877C17.2639 10.0285 17.2639 10.0521 17.2401 10.0521C17.2401 10.0285 17.2401 10.0285 17.2401 10.0048C17.2639 9.8629 17.2877 9.72098 17.3115 9.57906C17.3115 9.53176 17.383 9.5081 17.4306 9.4608C17.4306 9.4608 17.4544 9.43714 17.4306 9.43714L17.4068 9.41349C17.2163 9.38984 17.4306 9.34253 17.4068 9.29523C17.4068 9.29523 17.4544 9.27157 17.4782 9.24792L17.502 9.22427C17.4782 9.22427 17.4782 9.20061 17.4544 9.20061C17.4544 9.20061 17.4306 9.20061 17.4306 9.22427L17.4068 9.24792L17.383 9.22427C17.4306 9.15331 17.4306 9.08235 17.502 9.03504C17.5972 8.96408 17.5258 9.15331 17.6211 9.08235C17.6449 9.08235 17.6687 9.0587 17.6687 9.0587C17.6925 9.01139 17.6925 8.98774 17.7163 8.94043H18.0972C18.0972 8.98774 18.0972 9.03504 18.1211 9.08235C18.1211 9.106 18.1925 9.27157 18.0258 9.29523C18.1211 9.38984 17.9306 9.4608 18.002 9.55541C18.002 9.57906 18.002 9.60272 17.9782 9.62637L17.883 9.60272H17.8591V9.62637C17.8591 9.65002 17.9068 9.65002 17.9068 9.65002C17.9544 9.60272 17.9782 9.62637 17.9782 9.67368C17.9782 9.67368 18.0496 9.74463 17.9544 9.72098C17.9544 9.74463 17.9544 9.76829 17.9544 9.79194H18.002C18.1449 10.0285 18.0258 10.2177 17.9306 10.4306C17.883 10.5015 17.9782 10.6435 17.9306 10.6671C17.8591 10.7381 17.9544 10.809 17.9068 10.8563C17.8591 10.9036 17.8591 10.9746 17.8353 11.0219C17.7877 11.1402 17.8591 11.2821 17.7401 11.424C17.6925 11.4713 17.5972 11.6132 17.6925 11.7788C17.7163 11.8261 17.6211 11.9207 17.5734 11.9917C17.502 12.0863 17.4306 12.1809 17.3591 12.2755C17.5258 12.3701 17.383 12.4647 17.383 12.5594C17.3591 12.6776 17.1925 12.7249 17.2877 12.8668V12.8905C17.2163 12.8432 17.1687 12.8195 17.0972 12.7722C17.0972 12.7722 17.0972 12.7486 17.0734 12.7486L17.0496 12.7722C17.0972 12.8432 17.1449 12.9378 17.1687 13.0088C17.1687 13.0324 17.1925 13.0324 17.1925 13.0561C17.1925 13.0561 17.1925 13.0797 17.1687 13.0797C17.1687 13.0561 17.1687 13.0561 17.1449 13.0324C17.1211 13.0088 17.0972 13.0088 17.0972 13.0088C17.0734 13.0324 17.0496 13.0797 17.0496 13.127C17.0496 13.1743 17.0734 13.2216 17.0496 13.2689C16.9782 13.4109 16.9306 13.5764 16.7877 13.671C16.6925 13.742 16.7639 13.9076 16.6211 13.9549C16.5734 13.9549 16.5258 13.9312 16.502 13.9312C16.4544 13.8839 16.5258 13.8839 16.5258 13.8839C16.6687 13.9076 16.5258 13.8603 16.502 13.8366H16.5258V13.813L16.502 13.8366C16.4782 13.8366 16.4782 13.8366 16.502 13.8366C16.4782 13.8603 16.4306 13.9076 16.4068 13.9312C16.4068 13.9312 16.4306 13.9549 16.4306 13.9785L16.4782 13.9312C16.4782 13.9785 16.502 14.0258 16.502 14.0258C16.4306 14.0495 16.4068 14.1678 16.2877 14.1205C16.2639 14.0968 16.2163 14.1678 16.1687 14.1914L16.1925 14.2151C16.2401 14.2387 16.2877 14.286 16.2877 14.1914L16.3115 14.1678C16.3115 14.2151 16.3353 14.2624 16.3115 14.3097C16.2163 14.4516 16.1211 14.5935 16.0258 14.7118C16.002 14.7354 15.9782 14.7591 15.9544 14.7827L15.9782 14.7354C15.9544 14.7354 15.9544 14.7354 15.9306 14.7354C15.9068 14.7591 15.9068 14.8064 15.883 14.8537C15.7163 15.0193 15.5734 15.1848 15.383 15.3268C15.1925 15.4923 15.002 15.6343 14.8353 15.7998C14.7401 15.8708 14.6687 15.989 14.5734 16.06C14.4068 16.1783 14.2639 16.2965 14.0972 16.4148C14.0496 16.4385 13.9782 16.4385 14.0258 16.5567C13.8115 16.5331 13.7401 16.7933 13.5496 16.7696C13.4306 16.7696 13.4544 16.8879 13.3591 16.9115C13.1449 17.0061 12.9306 17.1717 12.6925 17.1954C12.5972 17.1954 12.5258 17.3373 12.383 17.2663C12.383 17.2663 12.3591 17.3846 12.2877 17.4082C12.1449 17.4319 12.0496 17.5501 11.883 17.5265C11.8115 17.5028 11.7163 17.5738 11.6449 17.6448C11.5496 17.7394 11.5972 17.4555 11.5258 17.5975H11.502C11.4782 17.6211 11.4782 17.6684 11.4782 17.6684C11.4782 17.6684 11.4306 17.6448 11.4068 17.6448C11.3353 17.6211 11.2401 17.5502 11.1925 17.5738C11.0734 17.6211 10.9544 17.6921 10.8591 17.7867C10.7877 17.8813 10.8115 17.763 10.7877 17.763C10.6925 17.7157 10.6211 17.9286 10.5496 17.763C10.5496 17.8576 10.4068 17.7157 10.4306 17.8813C10.4306 17.9049 10.4068 17.9049 10.383 17.9286L10.3591 17.8576C10.3115 17.9049 10.2163 18.0232 10.1925 17.8576C10.1449 17.6684 10.1449 17.9049 10.1211 17.8576C10.0972 17.834 10.0734 17.834 10.0496 17.8103L10.0258 17.834C10.002 17.8103 9.9782 17.7867 9.95439 17.763C9.9782 17.763 10.002 17.7394 10.0258 17.7394L10.0496 17.7157C10.0258 17.7157 10.0258 17.7157 10.002 17.6921L9.95439 17.6684C10.0734 17.7867 9.7401 17.5738 9.90677 17.763C9.93058 17.7867 9.93058 17.834 9.90677 17.834C9.88296 17.8576 9.83534 17.8576 9.81153 17.8576C9.78772 17.8576 9.78772 17.834 9.76391 17.834C9.78772 17.8576 9.81153 17.8813 9.81153 17.9049C9.81153 17.9286 9.83534 17.9286 9.85915 17.9523C9.83534 17.9523 9.83534 17.9523 9.81153 17.9523C9.76391 17.9286 9.7401 17.9049 9.71629 17.8813C9.71629 17.8813 9.71629 17.8576 9.71629 17.834C9.69248 17.834 9.64486 17.8576 9.62105 17.8576C9.57343 17.8103 9.52582 17.834 9.50201 17.8576L9.4782 17.834C9.45439 17.8576 9.43058 17.8813 9.40677 17.9049C9.40677 17.9286 9.38296 17.9523 9.38296 17.9523C9.35915 17.9523 9.33534 17.9523 9.33534 17.9286C9.33534 17.9049 9.33534 17.8813 9.33534 17.8576V17.834C9.31153 17.834 9.28772 17.8576 9.28772 17.8576C9.28772 17.9049 9.16867 17.8103 9.2401 17.9286C9.2401 17.9523 9.2401 17.9523 9.2401 17.9759C9.19248 17.9523 9.14486 17.9286 9.07343 17.9049C9.02582 18.0705 8.95439 17.7157 8.90677 17.9286H8.85915C8.93058 17.8813 8.7401 17.9049 8.85915 17.8576C8.85915 17.8576 8.85915 17.834 8.88296 17.834C8.88296 17.834 8.88296 17.834 8.85915 17.834C8.81153 17.834 8.76391 17.7867 8.7401 17.8103C8.69248 17.8576 8.54963 17.9523 8.50201 17.9049C8.4782 17.9049 8.52582 17.8103 8.50201 17.7867C8.33534 17.6921 8.33534 17.7394 8.33534 17.7867C8.33534 17.834 8.28772 17.9049 8.28772 17.9049C8.09724 17.8813 7.90677 17.9523 7.7401 17.8103C7.7401 17.8103 7.71629 17.8103 7.69248 17.8103V17.834C7.69248 17.8576 7.69248 17.8813 7.69248 17.9049H7.64486L7.66867 17.8813V17.8576C7.62105 17.8103 7.57343 17.7867 7.52582 17.7394C7.50201 17.7157 7.45439 17.7394 7.43058 17.7157V17.6684C7.45439 17.6448 7.4782 17.6448 7.50201 17.6448L7.4782 17.5738L7.62105 17.5028C7.57343 17.5028 7.54962 17.4792 7.50201 17.4792C7.4782 17.4792 7.43058 17.4792 7.43058 17.4792C7.40677 17.5502 7.45439 17.5738 7.4782 17.5738C7.40677 17.6448 7.35915 17.7157 7.28772 17.763C7.28772 17.763 7.2401 17.7157 7.21629 17.7157C7.09724 17.6448 7.04963 17.8813 6.93058 17.834C6.90677 17.834 6.85915 17.8576 6.83534 17.834C6.81153 17.8103 6.81153 17.763 6.78772 17.7394C6.83534 17.7394 6.85915 17.763 6.90677 17.763C6.90677 17.763 6.90677 17.7394 6.93058 17.7157C6.90677 17.7394 6.90677 17.6921 6.88296 17.6684C6.81153 17.6448 6.71629 17.6211 6.64486 17.5975L6.59724 17.5738C6.62105 17.5738 6.62105 17.5501 6.62105 17.5501V17.5265C6.59724 17.5028 6.57343 17.5028 6.52582 17.5028L6.54962 17.5265C6.54962 17.5501 6.54962 17.5975 6.54962 17.6211C6.50201 17.6211 6.4782 17.6211 6.43058 17.6211C6.28772 17.5975 6.16867 17.5738 6.04962 17.5265C5.93058 17.4792 5.81153 17.4082 5.66867 17.3609C5.59724 17.3373 5.50201 17.3373 5.43058 17.3136C5.35915 17.2663 5.26391 17.1954 5.21629 17.1244C5.14486 16.9588 4.9782 16.9588 4.85915 16.8879C4.83534 16.8642 4.76391 16.9352 4.71629 16.9588C4.76391 16.8642 4.66867 16.8169 4.64486 16.7459C4.62105 16.6986 4.64486 16.6513 4.64486 16.604L4.76391 16.5804L4.69248 16.4621L4.64486 16.604C4.50201 16.8642 4.50201 16.5567 4.43058 16.5804C4.40677 16.5804 4.35915 16.604 4.33534 16.6277C4.33534 16.604 4.35915 16.5331 4.28772 16.5804C4.26391 16.604 4.21629 16.5804 4.19248 16.5804C4.21629 16.5567 4.2401 16.5567 4.21629 16.4385C4.2401 16.4148 4.26391 16.3911 4.26391 16.3911L4.21629 16.3202C4.21629 16.2965 4.19248 16.2729 4.19248 16.2256C4.19248 16.2019 4.14486 16.1783 4.14486 16.1783C4.09724 16.2019 4.07343 16.2256 4.02582 16.2492C4.07343 16.2492 4.09724 16.2729 4.14486 16.2729L4.2401 16.2965C4.26391 16.3438 4.26391 16.3675 4.26391 16.3911C4.2401 16.4385 4.21629 16.4621 4.2401 16.5094C4.12105 16.4385 4.09724 16.2729 3.93058 16.2492C4.02582 16.2019 3.9782 16.131 3.9782 16.06C3.9782 16.06 3.9782 16.0364 3.95439 16.0364C3.78772 16.2965 3.81153 15.989 3.71629 15.989C3.57343 16.0127 3.64486 15.7525 3.4782 15.8235C3.54963 15.6816 3.43058 15.6816 3.38296 15.6343C3.33534 15.6106 3.31153 15.5633 3.28772 15.516C3.31153 15.4687 3.33534 15.3977 3.35915 15.3504C3.33534 15.3977 3.31153 15.4687 3.26391 15.4923C3.21629 15.5396 3.12105 15.5869 3.09724 15.5633C2.9782 15.4923 2.90677 15.3741 2.78772 15.3031C2.69248 15.2558 2.78772 15.1139 2.71629 15.1139C2.54963 15.1139 2.71629 14.9247 2.62105 14.8774C2.50201 14.8537 2.64486 14.972 2.54963 14.972C2.54963 14.972 2.52582 15.1139 2.4782 15.0666C2.40677 14.9956 2.28772 14.9483 2.31153 14.83C2.31153 14.7827 2.35915 14.7354 2.35915 14.6881C2.31153 14.7118 2.26391 14.6172 2.21629 14.7118C2.19248 14.6881 2.16867 14.6645 2.12105 14.6645C1.9782 14.6645 2.02582 14.5226 1.95439 14.4279C2.07344 14.3806 1.9782 14.3333 1.95439 14.357C1.81153 14.5462 1.81153 14.3333 1.81153 14.3097C1.76391 14.2387 1.71629 14.1441 1.71629 14.0495C1.71629 13.9549 1.76391 14.0968 1.81153 14.0258C1.83534 14.0495 1.85915 14.0968 1.88296 14.0258C1.88296 14.0022 1.83534 13.9312 1.78772 13.9312C1.62105 13.9076 1.57344 13.813 1.52582 13.6947C1.4782 13.6001 1.38296 13.5291 1.31153 13.4582C1.26391 13.4109 1.2401 13.3399 1.31153 13.2453C1.28772 13.2453 1.19248 13.198 1.19248 13.1743C1.21629 13.0324 0.930578 13.1034 1.04963 12.9378C0.811531 12.9378 1.14486 12.8195 1.02582 12.7959H1.00201C0.978197 12.8195 0.978197 12.9378 0.930578 12.8905C0.85915 12.8195 0.763911 12.7249 0.787721 12.583C0.787721 12.512 0.763911 12.4411 0.740102 12.3938C0.692483 12.3465 0.716292 12.2755 0.692483 12.2282C0.668673 12.1572 0.597245 12.0863 0.597245 11.968C0.597245 11.9444 0.549626 11.9444 0.525816 11.9207C0.621054 11.9207 0.573435 11.7551 0.716292 11.8025C0.740102 11.8025 0.787721 11.8971 0.83534 11.8025C0.787721 11.8025 0.763911 11.7788 0.716292 11.7788C0.621054 11.7788 0.525816 11.5896 0.597245 11.495C0.621054 11.4713 0.621054 11.424 0.621054 11.424C0.454388 11.4003 0.430578 11.353 0.597245 11.353V11.3294C0.549626 11.3057 0.478197 11.3057 0.478197 11.2348C0.382959 11.2821 0.406769 11.2111 0.406769 11.1875C0.454388 11.0692 0.240102 11.1638 0.263912 11.0692H0.216292L0.240102 11.0219C0.192483 10.9982 0.0972448 10.9746 0.144864 10.9273C0.311531 10.8327 0.192483 10.7617 0.168673 10.6908C0.144864 10.6435 0.0496258 10.5725 0.121054 10.5015C0.192483 10.4306 0.287721 10.4306 0.382959 10.4542C0.406769 10.4542 0.478197 10.4306 0.502007 10.4069C0.525816 10.3833 0.502007 10.3596 0.502007 10.336C0.525816 10.3596 0.502007 10.4069 0.478197 10.4069C0.430578 10.4069 0.35915 10.4306 0.311531 10.4069C0.263911 10.3833 0.263911 10.3596 0.33534 10.336C0.311531 10.336 0.263912 10.336 0.263912 10.3123C0.216292 10.2413 0.240102 10.1704 0.287721 10.0994C0.311531 10.0758 0.311531 10.0285 0.311531 10.0048C0.287721 10.0048 0.263911 10.0285 0.216292 10.0285C0.192483 10.0285 0.192483 10.0285 0.168673 10.0048C0.311531 9.98117 0.168673 9.88655 0.216292 9.83925C0.240102 9.81559 0.263912 9.81559 0.287721 9.79194C0.311531 9.76829 0.35915 9.76829 0.382959 9.74463C0.33534 9.69733 0.311531 9.76829 0.287721 9.76829C0.216292 9.76829 0.144864 9.76829 0.144864 9.67368C0.287721 9.69733 0.0258163 9.48445 0.263912 9.55541C0.240102 9.5081 0.240102 9.4608 0.216292 9.41349C0.192483 9.34253 0.0972448 9.24792 0.121054 9.22427C0.240102 9.12965 0.0258163 9.106 0.0734353 9.03504C0.0734353 9.03504 0.0972448 9.01139 0.121054 9.01139C0.0972448 9.08235 0.263912 8.96408 0.192483 9.0587C0.240102 9.0587 0.263911 9.0587 0.311531 9.0587C0.382959 9.03504 0.406769 9.03504 0.430578 8.98774ZM17.3353 11.424L17.4782 11.2821C17.4544 11.2584 17.383 11.2348 17.383 11.2348C17.3591 11.2821 17.3353 11.3057 17.3353 11.353C17.3115 11.3767 17.3353 11.4003 17.3353 11.424ZM16.9306 11.6605C16.9544 11.6369 16.9782 11.6369 16.9306 11.5659C16.9306 11.5896 16.9544 11.5896 16.9306 11.5659L16.9068 11.5423C16.883 11.5896 16.8115 11.6132 16.8353 11.6605C16.8591 11.7078 16.9068 11.7078 16.9306 11.6605ZM17.0258 11.8734L17.1687 11.8025C17.1449 11.7788 17.1211 11.7551 17.0734 11.7315C17.0496 11.7315 17.0258 11.7551 17.0258 11.7551C17.002 11.7788 17.0258 11.8261 17.0258 11.8734ZM17.0496 12.0863C17.0972 12.039 17.1449 12.0153 17.1449 11.9917C17.1449 11.9207 17.0258 12.039 17.0258 11.9444C17.0258 11.968 17.002 11.9917 17.002 12.0153C17.002 12.0153 17.0258 12.039 17.0496 12.0863ZM16.7163 12.4174C16.7639 12.3938 16.8353 12.3938 16.8591 12.3701C16.883 12.3465 16.7163 12.3465 16.8591 12.2519C16.7877 12.2282 16.7401 12.2046 16.7163 12.2046C16.7163 12.2755 16.7163 12.3465 16.7163 12.4174ZM16.2401 13.3399C16.3115 13.3162 16.4068 13.2453 16.4306 13.1743C16.4782 13.0088 16.3353 13.1743 16.3115 13.1507C16.383 13.2216 16.2639 13.198 16.2163 13.198C16.3115 13.2453 16.2163 13.3399 16.2401 13.3399ZM16.1687 13.6947C16.2639 13.742 16.3353 13.7184 16.383 13.6001C16.383 13.6001 16.383 13.5291 16.383 13.4818L16.2877 13.5764H16.2639H16.0734C16.0972 13.671 16.1687 13.5528 16.1925 13.6237L16.2163 13.6474C16.1925 13.6474 16.1687 13.6474 16.1449 13.671C16.1687 13.6474 16.1687 13.6947 16.1687 13.6947ZM15.502 14.9956C15.5258 14.9956 15.5258 14.9956 15.5496 14.9956C15.5734 14.972 15.6211 14.9247 15.6211 14.901C15.6211 14.8537 15.6211 14.7827 15.5972 14.7354L15.5734 14.7118H15.5496C15.5734 14.8064 15.5734 14.8774 15.4544 14.8774L15.4306 14.901C15.4544 14.901 15.4544 14.901 15.4782 14.901C15.502 14.9247 15.5258 14.9247 15.5496 14.9483C15.5496 14.9483 15.5496 14.9483 15.5258 14.9483C15.502 14.9483 15.502 14.9483 15.4782 14.9483C15.4782 14.972 15.4782 14.972 15.502 14.9956ZM13.883 15.9181C13.9544 15.9417 13.9544 15.7762 14.0496 15.8235C14.0496 15.7998 14.0496 15.7762 14.0258 15.7525C13.9068 15.6579 13.9306 15.7998 13.883 15.8235C13.8115 15.8708 13.8591 15.9181 13.883 15.9181ZM12.1925 16.9352V16.9115L12.2877 16.9825C12.3115 16.9352 12.3353 16.8406 12.3591 16.9825C12.3591 17.0298 12.383 17.0534 12.4068 17.1007H12.4306C12.4306 17.0061 12.4544 17.0061 12.502 17.0771L12.5258 17.0534C12.5258 17.0298 12.5258 17.0061 12.502 17.0061C12.4782 16.9588 12.4306 16.9352 12.4068 16.9115C12.383 16.8879 12.383 16.8642 12.383 16.8406C12.2163 16.7696 12.383 16.9352 12.3115 16.8879C12.2639 16.8642 12.2401 16.7933 12.2163 16.7459C12.2163 16.7459 12.1449 16.7696 12.1449 16.7933C12.1449 16.8406 12.1687 16.8879 12.1925 16.9352ZM11.4306 17.2663C11.4782 17.4082 11.4782 17.2663 11.502 17.2663C11.5258 17.2427 11.5496 17.219 11.5972 17.2663C11.5972 17.0061 11.502 17.148 11.4544 17.1717C11.4306 17.148 11.4068 17.219 11.4306 17.2663ZM11.0972 17.3373C11.1925 17.3373 11.2877 17.3136 11.383 17.29C11.4068 17.29 11.4068 17.2427 11.4068 17.219C11.2877 17.0298 11.2639 17.2663 11.2401 17.2663C11.0972 17.2427 11.0734 17.3373 11.0972 17.3373ZM8.81153 17.763C8.81153 17.6684 8.71629 17.6921 8.66867 17.6684C8.69248 17.6684 8.71629 17.6448 8.71629 17.6448C8.7401 17.6211 8.76391 17.6211 8.76391 17.5975C8.78772 17.5028 8.69248 17.4792 8.66867 17.4319C8.66867 17.4319 8.64486 17.4319 8.62105 17.4555C8.62105 17.4792 8.64486 17.5028 8.64486 17.5028C8.64486 17.5265 8.66867 17.5502 8.66867 17.5738H8.64486C8.62105 17.5738 8.59724 17.5738 8.59724 17.5738C8.59724 17.5738 8.57343 17.5975 8.59724 17.5975C8.62105 17.6211 8.64486 17.6211 8.66867 17.6448C8.66867 17.7157 8.69248 17.7867 8.76391 17.763C8.76391 17.8103 8.81153 17.7867 8.81153 17.763ZM8.57343 17.3373C8.64486 17.3846 8.71629 17.4319 8.76391 17.4792C8.78772 17.4792 8.78772 17.4792 8.81153 17.4555C8.76391 17.3136 8.64486 17.4082 8.57343 17.3136V17.3373ZM5.50201 16.7933C5.54963 16.8169 5.50201 16.8406 5.43058 16.8642C5.50201 16.8879 5.52582 16.9115 5.57343 16.9115C5.54963 16.8169 5.59724 16.6277 5.50201 16.6277C5.43058 16.604 5.40677 16.7459 5.50201 16.7933ZM3.85915 15.6579C3.90677 15.7289 3.93058 15.7998 3.9782 15.8471C4.00201 15.8708 4.04963 15.8235 4.07343 15.8235C4.02582 15.7762 3.9782 15.7052 3.93058 15.6579C3.90677 15.6343 3.88296 15.6579 3.85915 15.6579ZM3.57343 15.4923C3.57343 15.516 3.57343 15.5396 3.57343 15.5633C3.71629 15.4923 3.69248 15.6106 3.76391 15.6816C3.85915 15.6579 3.83534 15.5396 3.81153 15.5396C3.76391 15.4923 3.66867 15.4923 3.57343 15.4923ZM3.00201 14.6172C3.02582 14.6408 3.02582 14.6645 3.04963 14.6881L3.09724 14.7827C2.9782 14.8537 3.09724 14.8537 3.12105 14.8774L3.14486 14.901C3.16867 14.8774 3.19248 14.8537 3.19248 14.83C3.2401 14.7118 3.12105 14.6881 3.07343 14.6408C3.04963 14.6408 3.12105 14.5699 3.00201 14.6172ZM2.83534 14.7827C2.7401 14.972 2.90677 14.9956 2.9782 15.0666C2.9782 15.0666 2.9782 15.0666 3.00201 15.0666C2.95439 14.972 2.90677 14.8774 2.85915 14.7827H2.83534ZM2.64486 14.901C2.66867 14.972 2.66867 15.0193 2.69248 15.0666C2.69248 15.0902 2.7401 15.0666 2.76391 15.0666C2.76391 15.0193 2.7401 14.9483 2.71629 14.901C2.71629 14.8774 2.69248 14.901 2.64486 14.901ZM2.50201 14.2624C2.50201 14.286 2.52582 14.3097 2.52582 14.357C2.50201 14.4753 2.66867 14.4043 2.66867 14.4753C2.69248 14.4753 2.71629 14.4516 2.71629 14.4516C2.76391 14.3806 2.66867 14.4043 2.64486 14.3806C2.62105 14.3806 2.62105 14.357 2.59724 14.3333C2.62105 14.3097 2.71629 14.3333 2.66867 14.286C2.66867 14.2624 2.57343 14.286 2.50201 14.2624ZM2.33534 14.0968C2.33534 14.1441 2.33534 14.1678 2.35915 14.2151C2.43058 14.1914 2.38296 14.0968 2.4782 14.0968C2.50201 14.0968 2.50201 14.0731 2.52582 14.0495C2.4782 14.0495 2.40677 14.0731 2.33534 14.0968ZM1.07344 12.512C1.04963 12.5594 1.04963 12.6067 1.02582 12.654H1.04963C1.19248 12.6067 1.09724 12.5594 1.12105 12.5357L1.07344 12.512ZM0.621054 11.2111C0.525816 11.3057 0.787721 11.2821 0.668673 11.3767C0.740102 11.4003 0.740102 11.3767 0.740102 11.3057C0.763911 11.3057 0.787721 11.2821 0.811531 11.2821C0.716292 11.2584 0.644864 11.2821 0.621054 11.2111Z" fill="#3AB57B"/>
<path d="M17.5964 8.98796H17.1916C17.2155 8.94065 17.2155 8.89335 17.0726 8.86969C17.0964 8.84604 17.0964 8.82239 17.1202 8.79873C17.2155 8.75143 17.1916 8.72778 17.0964 8.68047C17.025 8.65682 17.0488 8.58586 17.1202 8.5622C17.1202 8.5622 17.0964 8.5149 17.0726 8.5149C17.1202 8.49124 17.0964 8.49125 17.0726 8.49125C17.0488 8.46759 17.025 8.42029 17.0488 8.37298C17.0726 8.32567 17.0964 8.39663 17.0964 8.37298C17.0964 8.32567 17.144 8.27837 17.1202 8.23106C17.0012 8.08914 17.0726 7.89992 17.0012 7.73435C17.025 7.56877 16.8821 7.45051 16.9536 7.26128C17.0012 7.11937 16.8583 6.95379 16.7631 6.83553C16.6916 6.74092 16.7631 6.66996 16.7631 6.599C16.7631 6.57534 16.7393 6.55169 16.7155 6.52804C16.6916 6.40977 16.644 6.29151 16.6202 6.17324C16.6202 6.10228 16.6678 6.03132 16.6678 5.96036C16.6678 5.93671 16.5964 5.91306 16.5488 5.91306C16.3821 5.93671 16.525 5.77114 16.4297 5.77114C16.4536 5.67653 16.4059 5.58191 16.5726 5.53461C16.525 5.53461 16.4774 5.55826 16.4297 5.55826C16.2869 5.53461 16.3583 5.41634 16.3345 5.34538C16.3345 5.27442 16.2869 5.20346 16.1916 5.20346C16.1916 5.22712 16.1916 5.22712 16.1916 5.25077H16.1678C16.1678 5.22712 16.144 5.17981 16.144 5.15616C16.144 5.1325 16.1678 5.13251 16.1678 5.10885C16.1678 5.10885 16.1916 5.10885 16.2155 5.10885C16.2393 5.10885 16.2393 5.13251 16.2393 5.13251C16.2393 5.10885 16.2631 5.10885 16.2631 5.10885C16.2393 5.0852 16.2155 5.06155 16.1916 5.06155C16.0726 5.10885 16.144 4.96693 16.0726 4.99059C16.0964 4.82502 16.0726 4.82502 15.9536 4.7304C15.9059 4.70675 15.9059 4.63579 15.8583 4.63579C15.7631 4.61214 15.8583 4.56483 15.8821 4.51752C15.8821 4.49387 15.8821 4.47022 15.8821 4.44657C15.8821 4.47022 15.8583 4.49387 15.8583 4.49387L15.8345 4.51752C15.8107 4.47022 15.8583 4.37561 15.7155 4.37561C15.6202 4.37561 15.5964 4.18638 15.5012 4.09177C15.4297 4.02081 15.3821 3.9735 15.4536 3.85524C15.3345 3.90254 15.2631 3.83159 15.1916 3.78428C15.1202 3.71332 15.0488 3.61871 14.9536 3.54775C14.8821 3.50044 15.0726 3.42948 15.0012 3.45314C14.8821 3.47679 14.8583 3.42948 14.8107 3.38218C14.7631 3.31122 14.644 3.28756 14.6916 3.14565C14.6916 3.14565 14.7393 3.14565 14.7631 3.14565L14.7155 3.05103V3.02738L14.6916 3.05103C14.5488 3.12199 14.5964 2.95642 14.5012 2.93277C14.4297 2.93277 14.3821 2.86181 14.3345 2.8145C14.3107 2.79085 14.2155 2.79085 14.2869 2.69624C14.2869 2.69624 14.2869 2.64893 14.2631 2.64893C14.2393 2.64893 14.1916 2.62528 14.1678 2.64893C14.1202 2.69624 14.0488 2.69624 13.9774 2.62528C13.9059 2.55432 13.8107 2.53067 13.7631 2.43605C13.6916 2.29413 13.5488 2.27048 13.4536 2.15222C13.4059 2.12856 13.3345 2.08126 13.3345 1.98664C13.3345 1.91568 13.3107 2.08126 13.2393 2.03395C13.0964 1.96299 13.3821 1.79742 13.2393 1.72646C13.1916 1.70281 13.1678 1.53724 13.0726 1.70281H13.0964C13.0964 1.72646 13.1202 1.75011 13.1202 1.77377C13.144 1.84473 13.0964 1.89203 13.0726 1.93934C13.0488 1.89203 12.9774 1.84473 13.0012 1.82107C13.025 1.72646 12.9536 1.77377 12.9536 1.72646C12.9536 1.75011 12.9536 1.77377 12.9297 1.77377H12.9059L12.7155 1.6555L12.7869 1.60819C12.7155 1.58454 12.5964 1.58454 12.5964 1.53724C12.5726 1.44262 12.4059 1.56089 12.4536 1.39532C12.4059 1.39532 12.3583 1.46628 12.3583 1.37166C12.2869 1.44262 12.2631 1.22975 12.1678 1.37166C12.1678 1.37166 12.0964 1.34801 12.0726 1.32436L11.7393 1.13513C11.8583 1.06417 11.6916 1.01687 11.7631 0.945908C11.7631 0.945908 11.7631 0.922255 11.7631 0.898602L11.7393 0.945908C11.6916 0.73303 11.5726 0.922255 11.5012 0.945908C11.5012 0.874949 11.4774 0.827643 11.4059 0.827643C11.4059 0.827643 11.3821 0.851296 11.3583 0.874949C11.4059 0.898602 11.3821 1.01687 11.4774 0.969561C11.525 1.01687 11.5964 1.06417 11.5012 1.18244C11.5012 1.20609 11.4297 1.20609 11.4774 1.2534H11.525C11.5488 1.13513 11.644 1.06417 11.7155 0.993214C11.7155 1.04052 11.7155 1.13513 11.6916 1.15879C11.5726 1.27705 11.4536 1.34801 11.3107 1.22975C11.1916 1.13513 11.0012 1.15879 10.8583 1.13513C10.8107 1.13513 10.7393 1.15879 10.7631 1.04052C10.7393 1.06417 10.7155 1.08783 10.7155 1.08783C10.5726 0.945908 10.3345 1.08783 10.2155 0.898602H10.1916L10.144 0.945908C10.1678 0.945908 10.1678 0.945908 10.1916 0.945908V0.969561C10.1678 0.969561 10.1202 0.993214 10.0964 0.993214C9.97736 0.993214 9.8345 0.969561 9.71546 0.945908C9.69165 0.945908 9.66784 0.922255 9.64403 0.898602C9.66784 0.898602 9.71546 0.874949 9.73927 0.874949C9.76308 0.874949 9.78689 0.851296 9.81069 0.874949C9.88212 0.922255 10.0012 0.827643 10.0726 0.945908C10.0726 0.922255 10.0964 0.922255 10.0964 0.898602C10.1202 0.780336 10.0726 0.851296 10.0488 0.851296C10.025 0.851296 9.97736 0.874949 9.95355 0.851296C9.92974 0.80399 9.97736 0.756683 9.90593 0.827643C9.88212 0.874949 9.73927 0.851296 9.66784 0.827643C9.54879 0.756683 9.47736 0.969561 9.38212 0.922255C9.33451 0.898602 9.28689 0.922255 9.23927 0.922255L9.02498 0.898602H8.81069C8.78689 0.898602 8.76308 0.874949 8.76308 0.851296C8.76308 0.827643 8.76308 0.780336 8.73927 0.756683C8.73927 0.780336 8.73927 0.827643 8.73927 0.851296C8.73927 0.874949 8.73927 0.874949 8.73927 0.898602C8.73927 0.898602 8.73927 0.874949 8.71546 0.874949C8.71546 0.827643 8.69165 0.780336 8.69165 0.73303C8.64403 0.756683 8.64403 0.80399 8.66784 0.874949C8.66784 0.874949 8.64403 0.898602 8.64403 0.922255C8.64403 0.922255 8.64403 0.922255 8.62022 0.922255C8.62022 0.898602 8.62022 0.898602 8.62022 0.874949C8.64403 0.80399 8.59641 0.756683 8.54879 0.73303C8.52498 0.709377 8.50117 0.685724 8.50117 0.685724L8.52498 0.662071V0.638418C8.50117 0.638418 8.47736 0.638418 8.47736 0.638418C8.47736 0.638418 8.45355 0.662071 8.45355 0.685724C8.45355 0.756683 8.47736 0.80399 8.47736 0.874949C8.47736 0.945908 8.47736 0.969561 8.38212 0.922255C8.35831 0.922255 8.35831 0.898602 8.3345 0.874949C8.28689 1.04052 8.19165 0.898602 8.12022 0.898602C8.00117 0.922255 7.85831 0.851296 7.76308 1.04052H7.73927C7.71546 1.01687 7.66784 0.993214 7.64403 0.993214C7.5726 1.01687 7.52498 1.06417 7.45355 1.08783C7.35831 1.11148 7.26308 1.15879 7.19165 1.18244C7.16784 1.18244 7.14403 1.13513 7.12022 1.11148C7.09641 1.01687 7.0726 0.945908 6.97736 1.01687L6.92974 0.969561C6.85831 0.993214 6.78689 0.993214 6.71546 1.01687C6.64403 1.04052 6.5726 1.06417 6.50117 1.06417C6.42974 1.08783 6.35831 1.08783 6.26308 1.06417C6.16784 1.04052 6.0726 1.08783 5.95355 1.06417C5.92974 1.06417 5.90593 1.13513 5.88212 1.18244C5.92974 1.15879 5.95355 1.34801 6.00117 1.22975C6.0726 1.18244 6.12022 1.04052 6.19165 1.15879C6.21546 1.18244 6.21546 1.20609 6.23927 1.2534C6.19165 1.2534 6.14403 1.22975 6.09641 1.22975C6.02498 1.2534 5.92974 1.3007 5.85831 1.37166C5.8107 1.41897 5.78689 1.39532 5.73927 1.32436V1.3007C5.76308 1.39532 5.69165 1.34801 5.66784 1.37166C5.66784 1.34801 5.66784 1.32436 5.64403 1.3007C5.62022 1.27705 5.59641 1.27705 5.5726 1.27705C5.47736 1.27705 5.52498 1.37166 5.50117 1.44262L5.35831 1.51358V1.44262L5.26308 1.41897H5.23927H5.19165C5.14403 1.56089 5.0726 1.58454 4.95355 1.46628H4.92974C5.04879 1.58454 4.92974 1.60819 4.90593 1.67915C4.95355 1.70281 5.00117 1.75011 4.92974 1.77377C4.85831 1.82107 4.78689 1.89203 4.71546 1.93934H4.69165V1.91568C4.69165 1.89203 4.69165 1.86838 4.69165 1.84473C4.69165 1.84473 4.66784 1.84473 4.64403 1.84473C4.64403 1.86838 4.66784 1.89203 4.66784 1.89203C4.62022 1.91568 4.54879 1.89203 4.52498 1.93934C4.45355 2.0103 4.45355 1.86838 4.42974 1.89203C4.40593 1.91568 4.40593 1.98664 4.40593 2.0103C4.40593 2.03395 4.38212 2.03395 4.38212 2.0576C4.38212 2.0576 4.35831 2.0576 4.33451 2.03395C4.35831 2.03395 4.35831 2.03395 4.38212 2.0103C4.38212 1.98664 4.38212 1.96299 4.40593 1.93934L4.38212 1.91568L4.28689 1.98664C4.23927 2.0103 4.16784 2.0103 4.16784 2.03395C4.14403 2.12856 4.23927 2.10491 4.26308 2.10491C4.28689 2.10491 4.28689 2.03395 4.3107 2.0103C4.40593 2.10491 4.26308 2.12856 4.33451 2.19952C4.26308 2.15222 4.3107 2.34144 4.21546 2.24683H4.19165C4.19165 2.27048 4.19165 2.29413 4.19165 2.31779C4.19165 2.34144 4.21546 2.36509 4.23927 2.38875L4.28689 2.45971H4.21546L4.23927 2.43605V2.4124C4.21546 2.38875 4.16784 2.36509 4.14403 2.34144L4.12022 2.4124C4.14403 2.4124 4.14403 2.38875 4.16784 2.4124C4.19165 2.4124 4.19165 2.43605 4.19165 2.45971C4.19165 2.50701 4.16784 2.55432 4.14403 2.60162C4.14403 2.57797 4.14403 2.55432 4.12022 2.55432C4.09641 2.48336 4.04879 2.45971 4.00117 2.48336C3.95355 2.48336 3.92974 2.48336 3.95355 2.43605C3.95355 2.4124 3.97736 2.38875 4.00117 2.36509C3.97736 2.36509 3.95355 2.36509 3.92974 2.36509C3.78689 2.36509 3.92974 2.43605 3.92974 2.45971C3.92974 2.60162 3.76308 2.48336 3.71546 2.57797C3.66784 2.57797 3.59641 2.50701 3.62022 2.62528C3.64403 2.67258 3.59641 2.71989 3.54879 2.67258L3.52498 2.95642C3.52498 2.95642 3.52498 2.95642 3.50117 2.95642C3.45355 2.90911 3.40593 2.88546 3.35831 2.83816C3.38212 2.8145 3.40593 2.79085 3.42974 2.79085C3.52498 2.79085 3.42974 2.69624 3.47736 2.67258C3.45355 2.67258 3.40593 2.67258 3.38212 2.67258C3.19165 2.64893 3.42974 2.74354 3.38212 2.74354C3.35831 2.74354 3.38212 2.7672 3.35831 2.79085C3.21546 2.86181 3.35831 2.98007 3.35831 3.07469C3.35831 3.09834 3.3345 3.14565 3.3107 3.1693C3.28689 3.1693 3.26308 3.14565 3.26308 3.14565C3.19165 3.00373 3.09641 3.09834 3.00117 3.07469C2.90593 3.02738 2.78689 3.00373 2.71546 3.09834C2.69165 3.12199 2.66784 3.12199 2.64403 3.14565C2.64403 3.1693 2.64403 3.19295 2.64403 3.2166C2.69165 3.09834 2.90593 3.28756 2.92974 3.14565C2.92974 3.12199 2.95355 3.12199 2.97736 3.12199C2.97736 3.1693 2.97736 3.24026 2.97736 3.28756C2.97736 3.28756 2.92974 3.28756 2.88212 3.28756L2.85831 3.26391C2.85831 3.28756 2.85831 3.31122 2.85831 3.33487C2.85831 3.38218 2.88212 3.40583 2.88212 3.45314C2.88212 3.47679 2.8345 3.47679 2.8107 3.47679C2.8107 3.45314 2.8345 3.42948 2.8345 3.40583C2.8345 3.40583 2.8345 3.31122 2.78689 3.38218C2.76308 3.42948 2.76308 3.47679 2.73927 3.54775H2.69165C2.71546 3.64236 2.62022 3.61871 2.59641 3.61871C2.50117 3.59505 2.40593 3.5241 2.47736 3.42948C2.47736 3.40583 2.52498 3.42948 2.54879 3.42948C2.52498 3.40583 2.50117 3.38218 2.50117 3.38218C2.45355 3.40583 2.38212 3.42948 2.38212 3.45314C2.40593 3.54775 2.42974 3.64236 2.28689 3.61871L2.3107 3.64236C2.35831 3.64236 2.42974 3.64236 2.45355 3.61871C2.50117 3.5714 2.50117 3.59505 2.50117 3.64236C2.50117 3.66601 2.50117 3.66601 2.50117 3.68967C2.50117 3.73697 2.5726 3.59505 2.54879 3.71332C2.54879 3.71332 2.64403 3.80793 2.52498 3.76063C2.50117 3.76063 2.45355 3.80793 2.47736 3.80793C2.50117 3.85524 2.28689 3.83159 2.45355 3.94985V3.99716C2.42974 4.09177 2.45355 4.21003 2.35831 4.25734L2.3345 4.28099H2.3107C2.21546 4.09177 2.19165 4.23369 2.14403 4.25734C2.16784 4.23369 2.19165 4.21003 2.19165 4.18638C2.16784 4.11542 2.12022 4.18638 2.09641 4.16273L2.02498 4.28099L1.97736 4.02081C1.95355 4.09177 1.78689 4.02081 1.8107 4.13908C1.8345 4.21003 2.02498 4.16273 1.97736 4.30465C1.97736 4.30465 2.00117 4.28099 2.02498 4.28099C2.16784 4.28099 2.00117 4.16273 2.0726 4.13908V4.18638L2.19165 4.11542C2.19165 4.23369 2.26308 4.16273 2.3107 4.18638H2.3345V4.21003C2.28689 4.30465 2.16784 4.37561 2.19165 4.51752L2.16784 4.54118C2.14403 4.54118 2.12022 4.51752 2.09641 4.51752C2.0726 4.51752 2.0726 4.49387 2.0726 4.47022L1.95355 4.56483C1.97736 4.56483 2.00117 4.58848 2.00117 4.61214L2.02498 4.63579C2.00117 4.7304 1.95355 4.80136 1.92974 4.89597C1.90593 4.99059 1.76308 5.01424 1.8107 5.13251C1.78689 5.10885 1.76308 5.10885 1.76308 5.0852C1.76308 5.06155 1.76308 5.03789 1.76308 4.99059C1.73927 5.06155 1.62022 4.89597 1.62022 5.01424V5.03789H1.64403C1.66784 5.03789 1.69165 5.03789 1.71546 5.03789C1.71546 5.03789 1.71546 5.03789 1.71546 5.06155C1.62022 5.01424 1.71546 5.13251 1.66784 5.13251C1.64403 5.13251 1.59641 5.13251 1.5726 5.13251C1.54879 5.13251 1.5726 5.17981 1.5726 5.20346C1.59641 5.22712 1.64403 5.25077 1.69165 5.25077H1.71546V5.27442C1.69165 5.29808 1.66784 5.34538 1.64403 5.36904C1.62022 5.39269 1.52498 5.39269 1.52498 5.41634C1.52498 5.51095 1.5726 5.36904 1.5726 5.44C1.62022 5.55826 1.52498 5.65287 1.47736 5.72383C1.40593 5.81845 1.3107 5.91306 1.19165 5.98402C1.12022 6.03132 1.19165 6.07863 1.16784 6.10228L1.26308 6.12594C1.26308 6.07863 1.26308 6.05498 1.26308 6.00767C1.26308 5.98402 1.23927 5.96036 1.23927 5.96036C1.26308 5.96036 1.28689 5.98402 1.3107 5.98402C1.3345 6.00767 1.40593 6.07863 1.38212 6.07863C1.23927 6.19689 1.26308 6.38612 1.19165 6.52804C1.19165 6.55169 1.14403 6.599 1.12022 6.62265C1.12022 6.6463 1.14403 6.69361 1.14403 6.71726L1.09641 6.74092C1.0726 6.71726 1.04879 6.69361 1.00117 6.6463C1.00117 6.66996 1.00117 6.71726 1.02498 6.74092C1.04879 6.76457 1.0726 6.81187 1.0726 6.83553C1.0726 6.85918 1.09641 6.88283 1.09641 6.88283C0.905933 6.97745 1.0726 7.16667 0.977362 7.28494L0.953553 7.30859C0.953553 7.30859 0.929743 7.30859 0.929743 7.28494C0.929743 7.23763 0.905933 7.14302 0.882124 7.16667C0.810695 7.23763 0.786886 7.33224 0.786886 7.4032C0.786886 7.42686 0.834505 7.47416 0.882124 7.52147C0.929743 7.54512 0.953553 7.56877 0.953553 7.56877L0.882124 7.80531C0.882124 7.78165 0.858314 7.758 0.858314 7.73435H0.834505L0.810695 7.87626H0.834505C0.858314 7.87626 0.858314 7.85261 0.882124 7.85261C0.882124 7.87626 0.882124 7.87626 0.882124 7.89992C0.858314 8.04184 0.834505 8.18375 0.810695 8.32567C0.810695 8.37298 0.739267 8.39663 0.691648 8.44394C0.691648 8.44394 0.667838 8.46759 0.691648 8.46759C0.691648 8.49124 0.715457 8.5149 0.715457 8.5149C0.905933 8.53855 0.691648 8.58586 0.715457 8.63316C0.715457 8.63316 0.667838 8.65682 0.644029 8.68047L0.620219 8.70412C0.644029 8.70412 0.644029 8.72778 0.667838 8.72778C0.667838 8.72778 0.691648 8.72778 0.691648 8.70412L0.715457 8.68047L0.739267 8.70412C0.691648 8.77508 0.691648 8.84604 0.620219 8.89335C0.524981 8.96431 0.59641 8.77508 0.501172 8.84604C0.477362 8.84604 0.453553 8.86969 0.453553 8.86969C0.429743 8.917 0.429743 8.94065 0.405934 8.98796H0.0487907C0.0487907 8.94065 0.0487907 8.89335 0.0249812 8.84604C0.0249812 8.82239 -0.0464474 8.65682 0.120219 8.63316C0.0249812 8.53855 0.215457 8.46759 0.144029 8.37298C0.144029 8.34933 0.144029 8.32567 0.167838 8.30202L0.263076 8.32567H0.286886V8.30202L0.239267 8.27837C0.191648 8.32567 0.167838 8.30202 0.167838 8.25471C0.167838 8.25471 0.0964097 8.18375 0.191648 8.20741C0.191648 8.18375 0.191648 8.1601 0.191648 8.13645H0.144029C0.00117166 7.89992 0.120219 7.71069 0.215457 7.49781C0.263076 7.42686 0.167838 7.28494 0.215457 7.26128C0.286886 7.19032 0.191648 7.11936 0.239267 7.07206C0.286886 7.02475 0.286886 6.95379 0.310695 6.90649C0.358314 6.78822 0.286886 6.6463 0.405934 6.50438C0.477362 6.43343 0.59641 6.29151 0.501172 6.14959C0.477362 6.10228 0.5726 6.00767 0.620219 5.93671C0.691648 5.8421 0.763076 5.74749 0.834505 5.65287C0.667838 5.55826 0.810695 5.46365 0.810695 5.36904C0.834505 5.25077 1.00117 5.20346 0.905933 5.06155V5.03789C0.977362 5.0852 1.02498 5.10885 1.09641 5.15616C1.09641 5.15616 1.09641 5.17981 1.12022 5.17981L1.14403 5.15616C1.09641 5.0852 1.04879 4.99059 1.02498 4.91963C1.02498 4.89597 1.00117 4.89597 1.00117 4.87232C1.00117 4.87232 1.00117 4.84867 1.02498 4.84867C1.02498 4.87232 1.02498 4.87232 1.04879 4.89597C1.0726 4.91963 1.09641 4.91963 1.09641 4.91963C1.12022 4.89597 1.14403 4.84867 1.14403 4.80136C1.14403 4.75406 1.12022 4.70675 1.14403 4.65944C1.21546 4.51753 1.26308 4.35195 1.40593 4.25734C1.50117 4.18638 1.42974 4.02081 1.5726 3.9735C1.62022 3.9735 1.66784 3.99716 1.69165 3.99716C1.73927 4.04446 1.66784 4.04446 1.66784 4.04446C1.52498 4.02081 1.66784 4.06812 1.69165 4.09177H1.66784V4.11542V4.13908C1.69165 4.13908 1.69165 4.13908 1.66784 4.13908C1.69165 4.11542 1.73927 4.06812 1.76308 4.04446C1.76308 4.04446 1.73927 4.02081 1.73927 3.99716L1.69165 4.02081C1.69165 3.9735 1.66784 3.9262 1.66784 3.9262C1.73927 3.90254 1.76308 3.78428 1.88212 3.83159C1.90593 3.85524 1.95355 3.78428 2.00117 3.76063L1.97736 3.73697C1.92974 3.71332 1.88212 3.66601 1.88212 3.76063L1.85831 3.78428C1.85831 3.73697 1.8345 3.68967 1.85831 3.64236C1.95355 3.50044 2.04879 3.35852 2.14403 3.24026C2.16784 3.2166 2.19165 3.19295 2.21546 3.1693L2.19165 3.2166C2.21546 3.2166 2.21546 3.2166 2.23927 3.2166C2.26308 3.19295 2.26308 3.14565 2.28689 3.09834C2.45355 2.93277 2.59641 2.7672 2.78689 2.62528C2.97736 2.45971 3.16784 2.31779 3.3345 2.15222C3.42974 2.08126 3.50117 1.96299 3.59641 1.89203C3.76308 1.77377 3.90593 1.6555 4.0726 1.53724C4.12022 1.51358 4.19165 1.51358 4.14403 1.39532C4.35831 1.41897 4.42974 1.15879 4.62022 1.18244C4.73927 1.18244 4.71546 1.06417 4.8107 1.04052C5.02498 0.945908 5.23927 0.780336 5.47736 0.756683C5.5726 0.756683 5.64403 0.614765 5.78689 0.685724C5.78689 0.685724 5.8107 0.567459 5.88212 0.543806C6.02498 0.520152 6.12022 0.401887 6.28689 0.42554C6.35831 0.449193 6.45355 0.378234 6.52498 0.307275C6.62022 0.212662 6.5726 0.496499 6.64403 0.354581H6.66784C6.66784 0.378234 6.66784 0.330928 6.69165 0.330928C6.69165 0.330928 6.73927 0.354581 6.76308 0.354581C6.8345 0.378234 6.92974 0.449193 6.97736 0.42554C7.09641 0.378234 7.21546 0.307275 7.3107 0.212662C7.35831 0.11805 7.3345 0.236315 7.35831 0.236315C7.45355 0.283621 7.52498 0.0707437 7.59641 0.236315C7.59641 0.141703 7.73927 0.283622 7.71546 0.11805C7.71546 0.0943968 7.73927 0.0943968 7.76308 0.0707437L7.78689 0.141703C7.8345 0.0943968 7.92974 -0.0238687 7.95355 0.141703C8.00117 0.330928 8.00117 0.0943968 8.02498 0.141703C8.04879 0.165356 8.0726 0.165356 8.09641 0.189009L8.12022 0.165356C8.14403 0.189009 8.16784 0.212662 8.19165 0.236315C8.16784 0.236315 8.14403 0.259968 8.12022 0.259968L8.09641 0.283622C8.12022 0.283622 8.12022 0.283621 8.14403 0.307275L8.19165 0.330928C8.09641 0.189009 8.42974 0.401887 8.26308 0.236315C8.23927 0.212662 8.23927 0.165356 8.26308 0.165356C8.28689 0.141703 8.3345 0.141703 8.35831 0.141703C8.38212 0.141703 8.38212 0.165356 8.40593 0.165356C8.38212 0.141703 8.35831 0.11805 8.35831 0.0943968C8.35831 0.0707437 8.33451 0.0707437 8.3107 0.0470906C8.33451 0.0470906 8.3345 0.0470906 8.35831 0.0470906C8.40593 0.0707437 8.42974 0.0943968 8.45355 0.11805C8.45355 0.11805 8.45355 0.141703 8.45355 0.165356C8.47736 0.165356 8.52498 0.141703 8.54879 0.141703C8.59641 0.189009 8.64403 0.165356 8.66784 0.141703L8.69165 0.165356C8.71546 0.141703 8.73927 0.11805 8.76308 0.0943968C8.76308 0.0707437 8.78689 0.0470906 8.78689 0.0470906C8.8107 0.0470906 8.8345 0.0470906 8.8345 0.0707437C8.8345 0.0943968 8.8345 0.11805 8.8345 0.141703V0.165356C8.85831 0.165356 8.88212 0.141703 8.88212 0.141703C8.88212 0.0943968 9.00117 0.189009 8.92974 0.0707437C8.92974 0.0470906 8.92974 0.0470906 8.92974 0.0234375C8.97736 0.0470906 9.02498 0.0707437 9.09641 0.0943968C9.14403 -0.0711749 9.21546 0.283622 9.26308 0.0707437H9.31069C9.23927 0.11805 9.42974 0.0943968 9.31069 0.141703C9.31069 0.141703 9.31069 0.165356 9.28689 0.165356C9.28689 0.165356 9.28689 0.165356 9.31069 0.165356C9.35831 0.165356 9.40593 0.212662 9.42974 0.189009C9.47736 0.141703 9.62022 0.0470906 9.66784 0.0943968C9.69165 0.0943968 9.64403 0.189009 9.66784 0.212662C9.69165 0.307275 9.69165 0.236315 9.69165 0.189009C9.69165 0.141703 9.73927 0.0707437 9.73927 0.0707437C9.92974 0.0943968 10.1202 0.0234375 10.2869 0.165356C10.2869 0.165356 10.3107 0.165356 10.3345 0.165356V0.141703C10.3345 0.11805 10.3345 0.0943968 10.3345 0.0707437H10.3821L10.3583 0.0943968V0.11805C10.4059 0.165356 10.4536 0.189009 10.5012 0.236315C10.525 0.259968 10.5726 0.236315 10.5964 0.259968V0.307275C10.5726 0.330928 10.5488 0.330928 10.525 0.330928L10.5488 0.401887L10.4059 0.472846C10.4536 0.472846 10.4774 0.496499 10.525 0.496499C10.5488 0.496499 10.5964 0.496499 10.5964 0.496499C10.6202 0.42554 10.5726 0.401887 10.5488 0.401887C10.6202 0.330928 10.6678 0.259968 10.7393 0.212662C10.7393 0.212662 10.7869 0.259968 10.8107 0.259968C10.9297 0.330928 10.9774 0.0943968 11.0964 0.141703C11.1202 0.141703 11.1678 0.11805 11.1916 0.141703C11.1678 0.189009 11.1916 0.236315 11.1916 0.259968C11.144 0.259968 11.1202 0.236315 11.0726 0.236315C11.0726 0.236315 11.0726 0.259968 11.0488 0.283622C11.0726 0.259968 11.0964 0.307275 11.1202 0.330928C11.1916 0.354581 11.2869 0.378234 11.3583 0.401887L11.4059 0.42554C11.3821 0.42554 11.3821 0.449193 11.3821 0.449193V0.472846C11.4059 0.472846 11.4297 0.496499 11.4536 0.496499L11.4297 0.472846C11.4297 0.449193 11.4297 0.401887 11.4297 0.378234C11.4774 0.378234 11.5012 0.378234 11.5488 0.378234C11.6916 0.401887 11.8107 0.42554 11.9297 0.472846C12.0488 0.520152 12.1678 0.591112 12.3107 0.638418C12.3821 0.662071 12.4774 0.662071 12.5488 0.685724C12.6202 0.73303 12.7155 0.80399 12.7631 0.874949C12.8345 1.04052 13.0012 1.04052 13.1202 1.11148C13.144 1.13513 13.2155 1.06417 13.2631 1.04052C13.2155 1.13513 13.3107 1.18244 13.3345 1.2534C13.3583 1.3007 13.3345 1.34801 13.3345 1.39532L13.2155 1.41897L13.2869 1.53724L13.3107 1.41897C13.4536 1.15879 13.4536 1.46628 13.525 1.44262C13.5488 1.44262 13.5964 1.41897 13.6202 1.39532C13.6202 1.41897 13.5964 1.48993 13.6678 1.44262C13.6916 1.41897 13.7393 1.44262 13.7631 1.44262C13.7393 1.46628 13.7155 1.46628 13.7393 1.58454C13.7155 1.60819 13.6916 1.63185 13.6916 1.63185L13.8107 1.67915C13.8107 1.70281 13.8345 1.72646 13.8345 1.77377C13.8345 1.79742 13.8821 1.82107 13.8821 1.82107C13.9297 1.79742 13.9536 1.77377 14.0012 1.75011C13.9536 1.75011 13.9297 1.72646 13.8821 1.72646L13.8107 1.67915C13.7869 1.63185 13.7869 1.60819 13.7869 1.58454C13.8107 1.53724 13.8107 1.51358 13.7869 1.44262C13.9059 1.51358 13.9297 1.67915 14.0964 1.70281C14.0012 1.75011 14.0488 1.82107 14.0488 1.89203C14.0488 1.89203 14.0488 1.91568 14.0726 1.91568C14.2393 1.6555 14.2155 1.96299 14.3107 1.96299C14.4536 1.93934 14.3821 2.19952 14.5488 2.12856C14.4774 2.27048 14.5964 2.27048 14.644 2.31779C14.6916 2.34144 14.7155 2.38875 14.7393 2.43605C14.7155 2.48336 14.6916 2.55432 14.6678 2.60162C14.6916 2.55432 14.7155 2.48336 14.7631 2.45971C14.8107 2.4124 14.9059 2.36509 14.9297 2.38875C15.0488 2.45971 15.1202 2.57797 15.2393 2.64893C15.3345 2.69624 15.2393 2.83816 15.3107 2.83816C15.4774 2.83816 15.3107 3.02738 15.4059 3.07469C15.525 3.09834 15.3821 2.98007 15.4774 2.98007C15.4774 2.98007 15.5012 2.83816 15.5488 2.88546C15.6202 2.95642 15.7393 3.00373 15.7155 3.12199C15.7155 3.1693 15.6678 3.2166 15.6678 3.26391C15.7155 3.24026 15.7631 3.33487 15.8107 3.24026C15.8345 3.26391 15.8583 3.28756 15.9059 3.28756C16.025 3.33487 15.9774 3.47679 16.0488 3.5714C15.9297 3.61871 16.025 3.66601 16.0488 3.64236C16.1916 3.45314 16.1916 3.66601 16.1916 3.68967C16.2393 3.76063 16.2869 3.85524 16.2869 3.94985C16.2869 4.04446 16.2393 3.90254 16.1916 3.9735C16.1678 3.94985 16.144 3.90254 16.1202 3.9735C16.1202 3.99716 16.1678 4.06812 16.2155 4.06812C16.3821 4.09177 16.4297 4.18638 16.4774 4.30465C16.525 4.39926 16.6202 4.47022 16.6916 4.54118C16.7393 4.58848 16.7631 4.65944 16.6916 4.75406C16.6678 4.77771 16.7869 4.82502 16.7869 4.84867C16.7631 4.99059 17.0488 4.91963 16.9297 5.0852C17.1678 5.0852 16.8345 5.20346 16.9536 5.22712H16.9774C17.0012 5.20346 17.0012 5.0852 17.0488 5.13251C17.1202 5.20346 17.2155 5.29808 17.1916 5.44C17.1916 5.51095 17.2155 5.58191 17.2393 5.62922C17.2869 5.67653 17.2631 5.74749 17.2869 5.79479C17.3107 5.86575 17.3821 5.93671 17.3821 6.05498C17.3821 6.07863 17.4297 6.07863 17.4536 6.10228C17.3583 6.10228 17.4059 6.26785 17.2631 6.22055C17.2393 6.22055 17.1916 6.12593 17.144 6.22055C17.1916 6.22055 17.2155 6.2442 17.2631 6.2442C17.3583 6.2442 17.4536 6.43343 17.3821 6.52804C17.3583 6.55169 17.3583 6.599 17.3583 6.599C17.4536 6.62265 17.5012 6.66996 17.3345 6.66996V6.69361C17.3821 6.71726 17.4536 6.71726 17.4536 6.78822C17.5488 6.74092 17.525 6.81187 17.525 6.83553C17.4774 6.95379 17.6916 6.85918 17.6678 6.95379H17.7155L17.6916 7.0011C17.7393 7.02475 17.8345 7.04841 17.7869 7.09571C17.6202 7.19032 17.7393 7.26128 17.7631 7.33224C17.7869 7.37955 17.8821 7.45051 17.8107 7.52147C17.7393 7.59243 17.644 7.59243 17.5488 7.56877C17.525 7.56877 17.4536 7.59243 17.4297 7.61608C17.4059 7.63973 17.4297 7.66339 17.4297 7.68704C17.4536 7.66339 17.4536 7.63973 17.4774 7.61608C17.525 7.61608 17.5964 7.59243 17.644 7.61608C17.6916 7.63973 17.6916 7.66339 17.6202 7.68704C17.644 7.68704 17.6916 7.68704 17.6916 7.71069C17.7393 7.78165 17.7155 7.85261 17.6678 7.92357C17.644 7.94722 17.644 7.99453 17.644 8.01818C17.6678 8.01818 17.6916 7.99453 17.7393 7.99453C17.7631 7.99453 17.7631 7.99453 17.7869 8.01818C17.644 8.04184 17.7869 8.13645 17.7393 8.18375C17.7155 8.20741 17.6916 8.20741 17.6678 8.23106C17.644 8.25471 17.5964 8.25471 17.5726 8.27837C17.6202 8.32567 17.644 8.25471 17.6678 8.25471C17.7393 8.25471 17.8107 8.25471 17.8107 8.34933C17.6678 8.32567 17.9297 8.53855 17.6916 8.46759C17.7155 8.5149 17.7155 8.58586 17.7393 8.63316C17.7631 8.70412 17.8583 8.79873 17.8345 8.82239C17.7155 8.917 17.9297 8.94065 17.8821 9.01161C17.8821 9.01161 17.8583 9.03527 17.8345 9.03527C17.8583 8.96431 17.6916 9.08257 17.7631 8.98796C17.7155 8.98796 17.6916 8.98796 17.644 8.98796C17.6202 8.96431 17.5964 8.96431 17.5964 8.98796ZM0.667838 6.57534L0.524981 6.71726C0.548791 6.74092 0.620219 6.76457 0.620219 6.76457C0.644029 6.71726 0.667838 6.69361 0.667838 6.6463C0.691648 6.62265 0.691648 6.599 0.667838 6.57534ZM1.0726 6.33881C1.04879 6.36247 1.02498 6.36247 1.0726 6.43343C1.0726 6.40977 1.04879 6.40977 1.0726 6.43343L1.09641 6.45708C1.12022 6.40977 1.19165 6.38612 1.16784 6.33881C1.14403 6.29151 1.09641 6.29151 1.0726 6.33881ZM1.00117 6.12594L0.858314 6.19689C0.882124 6.22055 0.905933 6.2442 0.953553 6.26785C0.977362 6.26785 1.00117 6.2442 1.00117 6.2442C1.00117 6.22055 1.00117 6.17324 1.00117 6.12594ZM0.953553 5.91306C0.905933 5.96036 0.858314 5.98402 0.858314 6.00767C0.858314 6.07863 0.977362 5.96036 0.977362 6.05498C0.977362 6.03132 1.00117 6.00767 1.00117 5.98402C1.00117 5.98402 1.00117 5.96036 0.953553 5.91306ZM1.28689 5.58191C1.23927 5.60557 1.16784 5.60557 1.14403 5.62922C1.12022 5.65287 1.28689 5.65287 1.14403 5.74749C1.21546 5.77114 1.26308 5.79479 1.28689 5.79479C1.28689 5.72383 1.28689 5.65287 1.28689 5.58191ZM1.78689 4.65944C1.71546 4.6831 1.62022 4.75406 1.59641 4.82502C1.54879 4.99059 1.69165 4.82502 1.71546 4.84867C1.64403 4.77771 1.76308 4.80136 1.8107 4.80136C1.71546 4.75406 1.8107 4.65944 1.78689 4.65944ZM1.8345 4.30465C1.73927 4.25734 1.66784 4.28099 1.62022 4.39926C1.62022 4.39926 1.62022 4.47022 1.62022 4.51752L1.71546 4.42291H1.73927H1.92974C1.90593 4.3283 1.8345 4.44657 1.8107 4.37561L1.78689 4.35195C1.8107 4.35195 1.8345 4.35195 1.85831 4.3283C1.8345 4.35195 1.8345 4.30465 1.8345 4.30465ZM2.50117 3.00373C2.47736 3.00373 2.47736 3.00373 2.45355 3.00373C2.42974 3.02738 2.38212 3.07469 2.38212 3.09834C2.38212 3.14565 2.38212 3.2166 2.40593 3.26391L2.42974 3.28756H2.45355C2.42974 3.19295 2.42974 3.12199 2.54879 3.12199L2.5726 3.09834C2.54879 3.09834 2.54879 3.09834 2.52498 3.09834C2.50117 3.07469 2.47736 3.07469 2.45355 3.05103C2.45355 3.05103 2.45355 3.05103 2.47736 3.05103C2.50117 3.05103 2.50117 3.05103 2.52498 3.05103C2.54879 3.02738 2.52498 3.02738 2.50117 3.00373ZM4.14403 2.08126C4.0726 2.0576 4.0726 2.22317 3.97736 2.17587C3.97736 2.19952 3.97736 2.22317 4.00117 2.24683C4.12022 2.34144 4.09641 2.19952 4.14403 2.17587C4.19165 2.12856 4.14403 2.08126 4.14403 2.08126ZM5.8345 1.06417V1.08783L5.71546 0.993214C5.69165 1.04052 5.66784 1.13513 5.64403 0.993214C5.64403 0.945908 5.62022 0.922255 5.59641 0.874949H5.5726C5.5726 0.969561 5.54879 0.969561 5.50117 0.898602L5.47736 0.922255C5.47736 0.945908 5.47736 0.969561 5.50117 0.969561C5.52498 1.01687 5.5726 1.04052 5.59641 1.06417C5.62022 1.08783 5.62022 1.11148 5.62022 1.11148C5.78689 1.18244 5.62022 1.01687 5.69165 1.06417C5.73927 1.08783 5.76308 1.15879 5.78689 1.20609C5.78689 1.20609 5.85831 1.18244 5.85831 1.15879C5.88212 1.15879 5.8345 1.11148 5.8345 1.06417ZM6.59641 0.73303C6.54879 0.591112 6.54879 0.73303 6.52498 0.73303C6.50117 0.756683 6.47736 0.780336 6.42974 0.73303C6.42974 0.993214 6.52498 0.851296 6.5726 0.827643C6.5726 0.851296 6.59641 0.780336 6.59641 0.73303ZM6.92974 0.662071C6.8345 0.662071 6.73927 0.685724 6.64403 0.709377C6.62022 0.709377 6.62022 0.756683 6.62022 0.780336C6.73927 0.969561 6.76308 0.73303 6.78689 0.73303C6.92974 0.756683 6.92974 0.662071 6.92974 0.662071ZM9.21546 0.236315C9.21546 0.330928 9.31069 0.307275 9.35831 0.330928C9.3345 0.330928 9.31069 0.354581 9.31069 0.354581C9.28689 0.378234 9.26308 0.378234 9.26308 0.401887C9.23927 0.496499 9.3345 0.520152 9.35831 0.567459C9.35831 0.567459 9.38212 0.567459 9.40593 0.543806C9.40593 0.520152 9.38212 0.496499 9.38212 0.496499C9.38212 0.472846 9.35831 0.449193 9.35831 0.42554H9.38212C9.40593 0.42554 9.42974 0.42554 9.42974 0.42554C9.42974 0.42554 9.45355 0.401887 9.42974 0.401887C9.40593 0.378234 9.38212 0.378234 9.35831 0.354581C9.35831 0.283621 9.33451 0.212662 9.26308 0.236315C9.23927 0.189009 9.21546 0.212662 9.21546 0.236315ZM9.42974 0.662071C9.35831 0.614765 9.28689 0.567459 9.23927 0.520152C9.21546 0.520152 9.21546 0.520152 9.19165 0.543806C9.23927 0.685724 9.35831 0.591112 9.42974 0.685724V0.662071ZM12.525 1.20609C12.4774 1.18244 12.525 1.15879 12.5964 1.13513C12.525 1.11148 12.5012 1.08783 12.4536 1.08783C12.4774 1.18244 12.4297 1.37166 12.525 1.37166C12.5964 1.39532 12.6202 1.2534 12.525 1.20609ZM14.1678 2.34144C14.1202 2.27048 14.0964 2.19952 14.0488 2.15222C14.025 2.12856 13.9774 2.17587 13.9536 2.17587C14.0012 2.22317 14.0488 2.29413 14.0964 2.34144C14.1202 2.36509 14.144 2.34144 14.1678 2.34144ZM14.4297 2.50701C14.4297 2.48336 14.4297 2.45971 14.4297 2.43605C14.2869 2.50701 14.3107 2.38875 14.2393 2.31779C14.144 2.34144 14.1678 2.45971 14.1916 2.45971C14.2631 2.50701 14.3583 2.50701 14.4297 2.50701ZM15.0012 3.38218C14.9774 3.35852 14.9774 3.33487 14.9536 3.31122L14.9059 3.2166C15.025 3.14565 14.9059 3.14565 14.8821 3.12199L14.8583 3.09834C14.8345 3.12199 14.8107 3.14565 14.8107 3.1693C14.7631 3.28756 14.8821 3.31122 14.9297 3.35852C14.9536 3.35852 14.9059 3.42948 15.0012 3.38218ZM15.1678 3.2166C15.2631 3.02738 15.0964 3.00373 15.025 2.93277C15.025 2.93277 15.025 2.93277 15.0012 2.93277C15.0488 3.02738 15.0964 3.12199 15.144 3.2166H15.1678ZM15.3583 3.09834C15.3345 3.02738 15.3345 2.98007 15.3107 2.93277C15.3107 2.90911 15.2631 2.93277 15.2393 2.93277C15.2393 2.98007 15.2631 3.05103 15.2869 3.09834C15.2869 3.12199 15.3345 3.09834 15.3583 3.09834ZM15.5012 3.73697C15.5012 3.71332 15.4774 3.68967 15.4774 3.64236C15.5012 3.52409 15.3345 3.59505 15.3345 3.52409C15.3107 3.52409 15.2869 3.54775 15.2869 3.54775C15.2393 3.61871 15.3345 3.59505 15.3583 3.61871C15.3821 3.61871 15.3821 3.64236 15.4059 3.66601C15.3821 3.68967 15.2869 3.66601 15.3345 3.71332C15.3345 3.73697 15.4297 3.71332 15.5012 3.73697ZM15.6678 3.90254C15.6678 3.85524 15.6678 3.83159 15.644 3.78428C15.5726 3.80793 15.6202 3.90254 15.525 3.90254C15.5012 3.90254 15.5012 3.9262 15.4774 3.94985C15.5488 3.94985 15.5964 3.9262 15.6678 3.90254ZM16.9297 5.4873C16.9536 5.44 16.9536 5.39269 16.9774 5.34538H16.9536C16.8107 5.39269 16.9059 5.44 16.8821 5.46365L16.9297 5.4873ZM17.4059 6.78822C17.5012 6.69361 17.2393 6.71726 17.3583 6.62265C17.2869 6.599 17.2869 6.62265 17.2869 6.69361C17.2631 6.69361 17.2393 6.71726 17.2155 6.71726C17.2869 6.74092 17.3821 6.71726 17.4059 6.78822Z" fill="#3AB57B"/>
<path d="M4.38024 11.0933C5.40405 11.4244 6.33262 12.0631 6.99929 12.8909C7.28501 13.2457 8.14215 13.1274 8.28501 12.678C9.18977 9.88697 11.1421 7.16687 13.7612 5.77133C14.5945 5.32192 13.8326 4.56503 13.1421 4.94348C10.2374 6.48093 7.97548 9.39026 6.97548 12.5125C7.40405 12.4415 7.83262 12.3705 8.2612 12.2996C7.45167 11.3298 6.35643 10.5729 5.16596 10.1708C4.57072 9.95793 3.54691 10.8094 4.38024 11.0933Z" fill="white"/>
</g>
<defs>
<clipPath id="clip0">
<rect width="18" height="18" fill="white"/>
</clipPath>
</defs>
</svg>
