<svg width="95" height="82" viewBox="0 0 95 82" fill="none" xmlns="http://www.w3.org/2000/svg">
<g opacity="0.5" clip-path="url(#clip0)">
<path d="M27.8437 11.8416C27.9946 11.8234 28.1455 11.8052 28.3148 11.9392C28.4657 11.921 28.4841 12.0733 28.6534 12.2073C28.8226 12.3414 28.841 12.4937 28.8594 12.6459C28.8778 12.7982 28.8962 12.9505 28.7637 13.121C28.7821 13.2732 28.6312 13.2915 28.4986 13.462C28.3661 13.6325 28.0643 13.6689 27.9134 13.6871C27.7625 13.7053 27.6116 13.7236 27.5932 13.5713C27.4239 13.4372 27.2547 13.3032 27.2363 13.1509C27.2179 12.9986 27.0486 12.8646 27.1811 12.6941C27.1627 12.5418 27.1444 12.3895 27.2953 12.3713C27.4278 12.2008 27.5603 12.0303 27.7112 12.0121C27.5419 11.8781 27.6928 11.8598 27.8437 11.8416Z" fill="black"/>
<path d="M15.0793 17.7076C14.9101 17.5735 14.9101 17.5736 14.7408 17.4395C14.5715 17.3054 14.5347 17.0009 14.4979 16.6964C14.763 16.3554 15.0464 16.1667 15.3114 15.8257C15.4623 15.8074 15.6132 15.7892 15.7825 15.9233L15.9518 16.0573C16.2904 16.3254 16.3455 16.7823 16.2314 17.105C16.154 17.7323 15.5688 17.9575 15.0793 17.7076Z" fill="black"/>
<path d="M18.0821 22.2883C18.5716 22.5382 18.796 23.1291 18.531 23.47C18.2843 23.9633 17.6991 24.1884 17.3606 23.9203C16.8711 23.6705 16.6467 23.0796 16.9117 22.7386C17.0074 22.2636 17.5926 22.0384 18.0821 22.2883Z" fill="black"/>
<path d="M22.1238 13.9221C22.6133 14.172 22.8378 14.7628 22.5727 15.1038C22.3261 15.5971 21.7409 15.8222 21.4023 15.5541C20.9128 15.3042 20.6884 14.7134 20.9534 14.3724C21.2001 13.8791 21.6344 13.6722 22.1238 13.9221Z" fill="black"/>
<path d="M19.5901 28.4402C19.741 28.4219 19.8919 28.4037 20.0612 28.5378C20.2121 28.5195 20.2305 28.6718 20.3997 28.8059C20.5874 29.0922 20.6426 29.549 20.5284 29.8718C20.4143 30.1946 19.98 30.4015 19.6782 30.4379C19.5273 30.4561 19.3764 30.4744 19.358 30.3221C19.1887 30.188 19.0194 30.054 19.0011 29.9017C18.8134 29.6154 18.7766 29.3108 19.0416 28.9699C19.0049 28.6653 19.2883 28.4766 19.5901 28.4402Z" fill="black"/>
<path d="M23.6323 20.0739C23.7832 20.0557 23.9341 20.0375 24.1034 20.1716C24.2543 20.1533 24.2727 20.3056 24.442 20.4397C24.6297 20.726 24.6848 21.1828 24.5707 21.5056C24.4566 21.8283 24.0222 22.0353 23.7204 22.0717C23.5695 22.0899 23.4186 22.1082 23.4002 21.9559C23.231 21.8218 23.0617 21.6878 23.0433 21.5355C22.8556 21.2492 22.8188 20.9446 23.0839 20.6036C23.3489 20.2627 23.3305 20.1104 23.6323 20.0739Z" fill="black"/>
<path d="M7.69831 32.6579C8.18778 32.9078 8.41222 33.4987 8.14719 33.8397C7.90055 34.3329 7.31534 34.5581 6.97676 34.29L6.80747 34.1559C6.4689 33.8878 6.41375 33.431 6.50949 32.956C6.64201 32.7855 6.77452 32.615 7.07632 32.5785C7.20884 32.408 7.52902 32.5239 7.69831 32.6579Z" fill="black"/>
<path d="M9.82868 38.8899C10.3181 39.1397 10.5426 39.7306 10.2776 40.0716C10.0309 40.5649 9.44571 40.79 9.10714 40.5219C8.61767 40.272 8.39323 39.6811 8.65826 39.3402C8.754 38.8651 9.33921 38.64 9.82868 38.8899Z" fill="black"/>
<path d="M13.8707 30.5217C14.3601 30.7716 14.5846 31.3625 14.3196 31.7034C14.0729 32.1967 13.4877 32.4218 13.1491 32.1537C12.6597 31.9038 12.4352 31.313 12.7003 30.972C12.9469 30.4787 13.3812 30.2718 13.8707 30.5217Z" fill="black"/>
<path d="M11.3369 45.0408C11.4878 45.0226 11.6387 45.0044 11.808 45.1385C11.9589 45.1202 11.9772 45.2725 12.1465 45.4066C12.3158 45.5406 12.3342 45.6929 12.3526 45.8452C12.371 45.9974 12.3894 46.1497 12.2568 46.3202C12.2752 46.4725 12.1243 46.4907 11.9918 46.6612C11.8593 46.8317 11.5575 46.8681 11.4066 46.8863C11.2557 46.9045 11.1048 46.9228 11.0864 46.7705C10.9171 46.6364 10.7478 46.5024 10.7295 46.3501C10.7111 46.1978 10.5418 46.0638 10.6743 45.8933C10.6559 45.741 10.6375 45.5888 10.7884 45.5705C10.9209 45.4 11.0535 45.2295 11.2044 45.2113C11.0351 45.0773 11.186 45.0591 11.3369 45.0408Z" fill="black"/>
<path d="M15.3787 36.6736C15.5296 36.6553 15.6805 36.6371 15.8498 36.7712C16.0007 36.7529 16.019 36.9052 16.1883 37.0393C16.376 37.3256 16.4311 37.7824 16.317 38.1052C16.2029 38.4279 15.7686 38.6349 15.4668 38.6713C15.3159 38.6895 15.165 38.7078 15.1466 38.5555C14.9773 38.4214 14.808 38.2874 14.7896 38.1351C14.602 37.8488 14.5652 37.5442 14.8302 37.2033C14.7935 36.8987 15.0769 36.71 15.3787 36.6736Z" fill="black"/>
<path d="M11.0188 25.9238C10.5293 25.6739 10.3049 25.083 10.5699 24.742C10.8165 24.2488 11.4017 24.0236 11.7403 24.2917C12.2298 24.5416 12.4542 25.1325 12.1892 25.4735C11.9425 25.9667 11.5082 26.1736 11.0188 25.9238Z" fill="black"/>
<path d="M36.6175 16.0344C36.9377 16.1503 37.1253 16.4366 37.1621 16.7411C37.1805 16.8934 37.1989 17.0457 37.0664 17.2162C37.0848 17.3684 36.9339 17.3867 36.8013 17.5572C36.5179 17.7459 36.0652 17.8005 35.745 17.6847C35.4249 17.5689 35.2188 17.1303 35.182 16.8257C35.1636 16.6734 35.1453 16.5212 35.2962 16.503C35.4287 16.3325 35.5612 16.162 35.7121 16.1437C35.9955 15.955 36.2973 15.9186 36.6175 16.0344Z" fill="black"/>
<path d="M39.8052 9.46981C39.6359 9.33575 39.4666 9.2017 39.4482 9.04942C39.2789 8.91537 39.2422 8.61082 39.3747 8.44032C39.9967 8.51972 40.6003 8.44684 41.2223 8.52624L41.2406 8.67851C41.259 8.83078 41.259 8.83078 41.1265 9.00128C41.1265 9.00128 41.1449 9.15355 40.994 9.17177C40.729 9.51276 40.2947 9.7197 39.8052 9.46981Z" fill="black"/>
<path d="M42.8079 14.051C43.2974 14.3009 43.5218 14.8917 43.2568 15.2327C43.0102 15.726 42.425 15.9511 42.0864 15.683C41.5969 15.4331 41.3725 14.8423 41.6375 14.5013C41.7332 14.0262 42.3185 13.8011 42.8079 14.051Z" fill="black"/>
<path d="M34.4869 9.80244C34.9764 10.0523 35.2008 10.6432 34.9358 10.9842C34.6891 11.4774 34.1039 11.7026 33.7653 11.4345C33.2759 11.1846 33.0514 10.5937 33.3165 10.2527C33.5631 9.75949 33.9974 9.55255 34.4869 9.80244Z" fill="black"/>
<path d="M44.3163 20.2029C44.4672 20.1847 44.6181 20.1665 44.7874 20.3005C45.1076 20.4164 45.2953 20.7027 45.332 21.0072C45.3504 21.1595 45.3688 21.3118 45.2363 21.4823C45.2547 21.6346 45.1038 21.6528 44.9713 21.8233C44.6878 22.012 44.2352 22.0666 43.915 21.9508C43.7457 21.8168 43.5764 21.6827 43.558 21.5304C43.5396 21.3782 43.3703 21.2441 43.5029 21.0736C43.4845 20.9213 43.4661 20.7691 43.617 20.7508C43.7495 20.5804 43.882 20.4099 44.0329 20.3916C44.0145 20.2394 44.1654 20.2211 44.3163 20.2029Z" fill="black"/>
<path d="M48.3583 11.8357C48.5092 11.8175 48.6601 11.7992 48.8294 11.9333C49.3189 12.1832 49.5433 12.7741 49.2783 13.115C49.0316 13.6083 48.4464 13.8335 48.1079 13.5654C47.9386 13.4313 47.7693 13.2973 47.7509 13.145C47.5632 12.8587 47.5265 12.5541 47.7915 12.2131C47.7731 12.0608 48.0565 11.8721 48.3583 11.8357Z" fill="black"/>
<path d="M28.3641 32.6345C28.8535 32.8844 29.078 33.4752 28.813 33.8162C28.5663 34.3095 27.9811 34.5346 27.6425 34.2665C27.1531 34.0166 26.9286 33.4258 27.1936 33.0848C27.2894 32.6098 27.8746 32.3846 28.3641 32.6345Z" fill="black"/>
<path d="M32.4244 24.4191C32.9139 24.669 33.1383 25.2599 32.8733 25.6009C32.6266 26.0942 32.0414 26.3193 31.7029 26.0512C31.2134 25.8013 30.9889 25.2104 31.254 24.8695C31.5006 24.3762 31.9349 24.1693 32.4244 24.4191Z" fill="black"/>
<path d="M34.5548 30.6511C35.0442 30.901 35.2687 31.4918 35.0036 31.8328C34.757 32.3261 34.1718 32.5512 33.8332 32.2831C33.3438 32.0332 33.1193 31.4424 33.3843 31.1014C33.4801 30.6263 34.0653 30.4012 34.5548 30.6511Z" fill="black"/>
<path d="M26.234 26.404C26.7234 26.6539 26.9479 27.2448 26.6828 27.5858C26.4362 28.079 25.851 28.3042 25.5124 28.0361C25.0229 27.7862 24.7985 27.1953 25.0635 26.8543C25.3102 26.3611 25.7445 26.1541 26.234 26.404Z" fill="black"/>
<path d="M38.5968 22.2844C39.0862 22.5343 39.3107 23.1251 39.0456 23.4661C38.799 23.9594 38.2138 24.1845 37.8752 23.9164C37.3857 23.6665 37.1613 23.0757 37.4263 22.7347C37.673 22.2414 38.1073 22.0345 38.5968 22.2844Z" fill="black"/>
<path d="M30.4449 18.1706C30.9344 18.4205 31.1588 19.0114 30.8938 19.3524C30.6471 19.8456 30.0619 20.0708 29.7234 19.8027C29.2339 19.5528 29.0095 18.9619 29.2745 18.6209C29.3702 18.1459 29.9554 17.9207 30.4449 18.1706Z" fill="black"/>
<path d="M36.0629 36.8035C36.2138 36.7853 36.3647 36.767 36.534 36.9011C37.0235 37.151 37.2479 37.7418 36.9829 38.0828C36.7362 38.5761 36.151 38.8012 35.8125 38.5331C35.6432 38.3991 35.4739 38.265 35.4555 38.1127C35.2678 37.8264 35.2311 37.5219 35.4961 37.1809C35.4777 37.0286 35.7611 36.8399 36.0629 36.8035Z" fill="black"/>
<path d="M40.1051 28.4368C40.256 28.4185 40.4069 28.4003 40.5762 28.5344C41.0657 28.7843 41.2902 29.3751 41.0251 29.7161C40.7785 30.2094 40.1933 30.4345 39.8547 30.1664C39.6854 30.0324 39.5161 29.8983 39.4977 29.746C39.3101 29.4597 39.2733 29.1552 39.5383 28.8142C39.5199 28.6619 39.8033 28.4732 40.1051 28.4368Z" fill="black"/>
<path d="M19.9598 49.2532C20.2799 49.369 20.4676 49.6553 20.5044 49.9599C20.5228 50.1122 20.5412 50.2644 20.4086 50.4349C20.427 50.5872 20.2761 50.6054 20.1436 50.7759C19.8602 50.9646 19.4075 51.0193 19.0873 50.9034C18.7671 50.7876 18.5611 50.349 18.5243 50.0445C18.5059 49.8922 18.4875 49.7399 18.6384 49.7217C18.771 49.5512 18.9035 49.3807 19.0544 49.3625C19.4887 49.1556 19.7905 49.1191 19.9598 49.2532Z" fill="black"/>
<path d="M24.1712 41.0198C24.6607 41.2697 24.8851 41.8606 24.6201 42.2015C24.3551 42.5425 23.7882 42.92 23.4497 42.6519C22.9602 42.402 22.7357 41.8111 23.0008 41.4701C23.0965 40.9951 23.6817 40.7699 24.1712 41.0198Z" fill="black"/>
<path d="M26.1505 47.2702C26.6399 47.5201 26.8644 48.111 26.5993 48.452C26.3527 48.9452 25.7675 49.1704 25.4289 48.9023C24.9394 48.6524 24.715 48.0615 24.98 47.7205C25.2267 47.2273 25.8119 47.0021 26.1505 47.2702Z" fill="black"/>
<path d="M17.9805 43.0036C18.47 43.2535 18.6944 43.8444 18.4294 44.1854C18.1828 44.6786 17.5976 44.9038 17.259 44.6357C16.7695 44.3858 16.5451 43.7949 16.8101 43.4539C16.9059 42.9789 17.4911 42.7537 17.9805 43.0036Z" fill="black"/>
<path d="M30.3433 38.884C30.8328 39.1339 31.0572 39.7248 30.7922 40.0657C30.5456 40.559 29.9604 40.7841 29.6218 40.516C29.1323 40.2662 28.9079 39.6753 29.1729 39.3343C29.2687 38.8593 29.8539 38.6341 30.3433 38.884Z" fill="black"/>
<path d="M22.1917 34.7702C22.6812 35.0201 22.9056 35.611 22.6406 35.952C22.394 36.4452 21.8087 36.6704 21.4702 36.4023C20.9807 36.1524 20.7563 35.5615 21.0213 35.2205C21.117 34.7455 21.7022 34.5203 22.1917 34.7702Z" fill="black"/>
<path d="M27.6588 53.4222C27.8097 53.4039 27.9606 53.3857 28.1299 53.5198C28.4501 53.6356 28.6378 53.9219 28.6746 54.2265C28.6929 54.3788 28.7113 54.531 28.5788 54.7015C28.5972 54.8538 28.4463 54.872 28.3138 55.0425C28.0304 55.2312 27.5777 55.2859 27.2575 55.17C27.0882 55.036 26.9189 54.9019 26.9005 54.7497C26.8821 54.5974 26.7129 54.4633 26.8454 54.2928C26.827 54.1406 26.8086 53.9883 26.9595 53.9701C27.092 53.7996 27.2245 53.6291 27.3754 53.6109C27.5079 53.4404 27.6588 53.4222 27.6588 53.4222Z" fill="black"/>
<path d="M31.8517 45.0364C32.0026 45.0182 32.1535 44.9999 32.3228 45.134C32.8123 45.3839 33.0367 45.9747 32.7717 46.3157C32.5251 46.809 31.9398 47.0341 31.6013 46.766C31.432 46.632 31.2627 46.4979 31.2443 46.3457C31.0566 46.0593 31.0199 45.7548 31.2849 45.4138C31.2665 45.2615 31.5499 45.0728 31.8517 45.0364Z" fill="black"/>
<path d="M15.9177 57.6201C16.3887 57.7177 16.4623 58.3268 16.3665 58.8018C16.1199 59.2951 15.5347 59.5202 15.1961 59.2521C14.7066 59.0022 14.4822 58.4114 14.7472 58.0704C14.843 57.5953 15.4282 57.3702 15.9177 57.6201Z" fill="black"/>
<path d="M17.8972 63.87C18.0665 64.0041 18.2174 63.9858 18.2357 64.1381C18.4234 64.4244 18.4602 64.729 18.3461 65.0518C17.8382 64.6496 17.4812 64.2292 16.9734 63.8271C17.2568 63.6383 17.7095 63.5837 17.8972 63.87Z" fill="black"/>
<path d="M22.0902 55.4851C22.5796 55.735 22.8041 56.3258 22.539 56.6668C22.2924 57.1601 21.7072 57.3852 21.3686 57.1171C20.8791 56.8672 20.6547 56.2764 20.9197 55.9354C21.0155 55.4603 21.6007 55.2352 22.0902 55.4851Z" fill="black"/>
<path d="M13.7872 51.3879C14.2766 51.6378 14.5011 52.2287 14.2361 52.5696C13.9894 53.0629 13.4042 53.2881 13.0656 53.0199C12.5762 52.7701 12.3517 52.1792 12.6168 51.8382C12.8634 51.3449 13.4486 51.1198 13.7872 51.3879Z" fill="black"/>
<path d="M23.5982 61.637C23.7491 61.6188 23.9 61.6006 24.0693 61.7347C24.5588 61.9845 24.7832 62.5754 24.5366 63.0687C24.29 63.5619 23.7047 63.7871 23.3662 63.519C23.1969 63.3849 23.0276 63.2509 23.0092 63.0986C22.8215 62.8123 22.7848 62.5077 23.0498 62.1667C23.013 61.8622 23.2964 61.6735 23.5982 61.637Z" fill="black"/>
<path d="M61.3619 7.94894C61.8514 8.19882 62.0758 8.78969 61.8108 9.13068C61.5641 9.62393 60.9789 9.84909 60.6403 9.58098C60.1509 9.3311 59.9264 8.74022 60.1915 8.39924C60.2688 7.77192 60.8724 7.69905 61.3619 7.94894Z" fill="black"/>
<path d="M67.5338 5.81223C68.0232 6.06211 68.2477 6.65298 67.9826 6.99396C67.736 7.48722 67.1508 7.71237 66.8122 7.44426C66.3228 7.19438 66.0983 6.60351 66.3633 6.26253C66.4591 5.7875 67.0443 5.56234 67.5338 5.81223Z" fill="black"/>
<path d="M69.3624 12.081C69.3624 12.081 69.5133 12.0628 69.5316 12.215C69.6825 12.1968 69.7009 12.3491 69.8702 12.4831C70.0579 12.7695 70.113 13.2263 69.9989 13.549C69.8848 13.8718 69.4505 14.0787 69.1487 14.1152C68.9978 14.1334 68.8469 14.1516 68.8285 13.9993C68.8285 13.9993 68.6776 14.0176 68.6592 13.8653C68.3206 13.5972 68.2655 13.1404 68.3612 12.6653C68.4386 12.038 68.8729 11.8311 69.3624 12.081Z" fill="black"/>
<path d="M73.5555 3.69521C73.5555 3.69521 73.7064 3.67699 73.7248 3.82927C73.8757 3.81105 73.894 3.96332 74.0633 4.09738C74.251 4.3837 74.3061 4.84052 74.192 5.16329C74.0779 5.48605 73.6436 5.69299 73.3418 5.72943C73.1909 5.74765 73.04 5.76586 73.0216 5.61359C73.0216 5.61359 72.8707 5.63181 72.8523 5.47954C72.5137 5.21143 72.4586 4.75461 72.5543 4.27957C72.6501 3.80453 73.0844 3.5976 73.5555 3.69521Z" fill="black"/>
<path d="M53.0901 24.3962C53.4103 24.5121 53.598 24.7984 53.6348 25.1029C53.6531 25.2552 53.6715 25.4075 53.539 25.578C53.5574 25.7303 53.4065 25.7485 53.274 25.919C52.9906 26.1077 52.5379 26.1623 52.2177 26.0465C51.8975 25.9307 51.6915 25.4921 51.6547 25.1875C51.6363 25.0353 51.6179 24.883 51.7688 24.8648C51.9013 24.6943 52.0338 24.5238 52.1847 24.5056C52.4682 24.3169 52.77 24.2804 53.0901 24.3962Z" fill="black"/>
<path d="M57.1505 16.1819C57.6399 16.4317 57.8644 17.0226 57.5993 17.3636C57.3527 17.8568 56.7675 18.082 56.4289 17.8139C55.9395 17.564 55.715 16.9731 55.98 16.6321C56.2267 16.1389 56.661 15.932 57.1505 16.1819Z" fill="black"/>
<path d="M59.2806 22.4138C59.7701 22.6637 59.9945 23.2545 59.7295 23.5955C59.4828 24.0888 58.8976 24.3139 58.559 24.0458C58.0696 23.7959 57.8451 23.2051 58.1102 22.8641C58.2059 22.3891 58.7911 22.1639 59.2806 22.4138Z" fill="black"/>
<path d="M50.9595 18.1652C51.449 18.4151 51.6735 19.006 51.4084 19.347C51.1618 19.8402 50.5766 20.0654 50.238 19.7973C49.7485 19.5474 49.5241 18.9565 49.7891 18.6155C50.0357 18.1223 50.4885 18.0676 50.9595 18.1652Z" fill="black"/>
<path d="M63.3411 14.1985C63.8306 14.4483 64.055 15.0392 63.79 15.3802C63.5434 15.8734 62.9582 16.0986 62.6196 15.8305C62.1301 15.5806 61.9057 14.9897 62.1707 14.6488C62.399 14.0032 62.8517 13.9486 63.3411 14.1985Z" fill="black"/>
<path d="M55.171 9.93186C55.6604 10.1817 55.8849 10.7726 55.6198 11.1136C55.3732 11.6068 54.788 11.832 54.4494 11.5639C53.96 11.314 53.7355 10.7231 54.0005 10.3822C54.0963 9.90713 54.6815 9.68197 55.171 9.93186Z" fill="black"/>
<path d="M61.0908 28.5283C61.0908 28.5283 61.2417 28.5101 61.2601 28.6624C61.411 28.6442 61.4294 28.7964 61.5987 28.9305C61.768 29.0645 61.7863 29.2168 61.8047 29.3691C61.8231 29.5214 61.8415 29.6736 61.709 29.8441C61.7274 29.9964 61.5765 30.0146 61.444 30.1851C61.3114 30.3556 61.0096 30.392 60.8587 30.4103C60.7078 30.4285 60.5569 30.4467 60.5386 30.2944C60.5386 30.2944 60.3877 30.3126 60.3693 30.1604C60.2 30.0263 60.0123 29.74 59.9755 29.4355C59.9572 29.2832 59.9388 29.1309 60.0897 29.1127C60.2222 28.9422 60.3547 28.7717 60.5056 28.7535C60.6381 28.583 60.789 28.5648 61.0908 28.5283Z" fill="black"/>
<path d="M65.3023 20.2963C65.3023 20.2963 65.4532 20.2781 65.4716 20.4304C65.6225 20.4121 65.6409 20.5644 65.8101 20.6985C65.9978 20.9848 66.053 21.4416 65.9388 21.7644C65.8247 22.0871 65.3904 22.2941 65.0886 22.3305C64.9377 22.3487 64.7868 22.3669 64.7684 22.2147C64.7684 22.2147 64.6175 22.2329 64.5991 22.0806C64.2606 21.8125 64.2054 21.3557 64.3012 20.8807C64.3969 20.4056 64.8312 20.1987 65.3023 20.2963Z" fill="black"/>
<path d="M44.6856 41.0149C45.1751 41.2647 45.3995 41.8556 45.1345 42.1966C44.8879 42.6899 44.3026 42.915 43.9641 42.6469C43.4746 42.397 43.2502 41.8061 43.5152 41.4652C43.7618 40.9719 44.3654 40.899 44.6856 41.0149Z" fill="black"/>
<path d="M48.897 32.7819C49.3865 33.0318 49.611 33.6227 49.3459 33.9637C49.0993 34.4569 48.5141 34.6821 48.1755 34.414C47.686 34.1641 47.4616 33.5732 47.7266 33.2323C47.8224 32.7572 48.4076 32.5321 48.897 32.7819Z" fill="black"/>
<path d="M50.8763 39.0315C51.3658 39.2813 51.5902 39.8722 51.3252 40.2132C51.0785 40.7065 50.4933 40.9316 50.1547 40.6635C49.6653 40.4136 49.4408 39.8227 49.7059 39.4818C49.9525 38.9885 50.5377 38.7633 50.8763 39.0315Z" fill="black"/>
<path d="M42.7062 34.7648C43.1957 35.0146 43.4201 35.6055 43.1551 35.9465C42.9269 36.592 42.3232 36.6649 41.8338 36.415C41.3443 36.1651 41.1199 35.5743 41.3849 35.2333C41.6315 34.74 42.2351 34.6671 42.7062 34.7648Z" fill="black"/>
<path d="M55.0694 30.6467C55.5589 30.8966 55.7833 31.4874 55.5183 31.8284C55.2716 32.3217 54.6864 32.5468 54.3479 32.2787C53.8584 32.0288 53.634 31.438 53.899 31.097C53.9947 30.622 54.5983 30.5491 55.0694 30.6467Z" fill="black"/>
<path d="M46.9175 26.5315C47.407 26.7813 47.6315 27.3722 47.3664 27.7132C47.1198 28.2065 46.5346 28.4316 46.196 28.1635C45.7065 27.9136 45.4821 27.3227 45.7471 26.9818C45.8429 26.5067 46.4281 26.2816 46.9175 26.5315Z" fill="black"/>
<path d="M52.8377 45.1293C52.8377 45.1293 52.9886 45.1111 53.007 45.2634C53.1579 45.2451 53.1763 45.3974 53.3455 45.5315C53.5332 45.8178 53.5884 46.2746 53.4742 46.5974C53.3601 46.9201 52.9258 47.1271 52.624 47.1635C52.4731 47.1817 52.3222 47.2 52.3038 47.0477C52.3038 47.0477 52.1529 47.0659 52.1345 46.9136C51.796 46.6455 51.7408 46.1887 51.8365 45.7137C51.9323 45.2386 52.3666 45.0317 52.8377 45.1293Z" fill="black"/>
<path d="M56.8975 36.914C56.8975 36.914 57.0484 36.8958 57.0668 37.048C57.2177 37.0298 57.2361 37.1821 57.4054 37.3161C57.593 37.6025 57.6482 38.0593 57.5341 38.382C57.4199 38.7048 56.9856 38.9117 56.6838 38.9482C56.5329 38.9664 56.382 38.9846 56.3636 38.8323C56.3636 38.8323 56.2127 38.8506 56.1943 38.6983C55.8558 38.4302 55.8006 37.9734 55.8964 37.4983C56.143 37.0051 56.5773 36.7981 56.8975 36.914Z" fill="black"/>
<path d="M36.4324 57.615C36.7526 57.7308 36.9403 58.0172 36.977 58.3217C36.9954 58.474 37.0138 58.6262 36.8813 58.7967C36.8997 58.949 36.7488 58.9672 36.6163 59.1377C36.3329 59.3264 35.8802 59.3811 35.56 59.2653C35.2398 59.1494 35.0337 58.7108 34.997 58.4063C34.9786 58.254 34.9602 58.1017 35.1111 58.0835C35.2436 57.913 35.3761 57.7425 35.527 57.7243C35.8104 57.5356 36.2631 57.4809 36.4324 57.615Z" fill="black"/>
<path d="M40.6439 49.383C41.1333 49.6329 41.3578 50.2238 41.0927 50.5648C40.8461 51.058 40.2609 51.2832 39.9223 51.0151C39.4328 50.7652 39.2084 50.1743 39.4734 49.8333C39.5692 49.3583 40.1544 49.1331 40.6439 49.383Z" fill="black"/>
<path d="M42.6231 55.6311C43.1126 55.881 43.337 56.4718 43.072 56.8128C42.8254 57.3061 42.2402 57.5312 41.9016 57.2631C41.4121 57.0132 41.1877 56.4224 41.4527 56.0814C41.6993 55.5881 42.2845 55.363 42.6231 55.6311Z" fill="black"/>
<path d="M34.4527 51.3654C34.9422 51.6153 35.1666 52.2062 34.9016 52.5472C34.6549 53.0404 34.0697 53.2656 33.7312 52.9975C33.2417 52.7476 33.0173 52.1567 33.2823 51.8157C33.378 51.3407 33.9632 51.1156 34.4527 51.3654Z" fill="black"/>
<path d="M46.816 47.2463C47.3055 47.4962 47.5299 48.0871 47.2649 48.428C47.0182 48.9213 46.433 49.1464 46.0944 48.8783C45.605 48.6285 45.3805 48.0376 45.6456 47.6966C45.7413 47.2216 46.3449 47.1487 46.816 47.2463Z" fill="black"/>
<path d="M38.5135 43.1506C39.003 43.4005 39.2274 43.9914 38.9624 44.3323C38.7157 44.8256 38.1305 45.0507 37.792 44.7826C37.3025 44.5328 37.078 43.9419 37.3431 43.6009C37.5897 43.1076 38.1749 42.8825 38.5135 43.1506Z" fill="black"/>
<path d="M44.584 61.729C44.584 61.729 44.7349 61.7108 44.7533 61.8631C44.9042 61.8448 44.9225 61.9971 45.0918 62.1312C45.2611 62.2652 45.2795 62.4175 45.2979 62.5698C45.3163 62.722 45.3347 62.8743 45.2021 63.0448C45.2205 63.1971 45.0696 63.2153 44.9371 63.3858C44.8046 63.5563 44.5028 63.5927 44.3519 63.6109C44.201 63.6292 44.0501 63.6474 44.0317 63.4951C44.0317 63.4951 43.8808 63.5133 43.8624 63.3611C43.6931 63.227 43.5055 62.9407 43.4687 62.6361C43.4503 62.4839 43.4319 62.3316 43.5828 62.3134C43.7153 62.1429 43.8479 61.9724 43.9988 61.9542C44.1313 61.7837 44.2822 61.7654 44.584 61.729Z" fill="black"/>
<path d="M48.6446 53.5141C48.6446 53.5141 48.7955 53.4959 48.8139 53.6481C48.9648 53.6299 48.9831 53.7822 49.1524 53.9162C49.3401 54.2026 49.3953 54.6594 49.2811 54.9821C49.167 55.3049 48.7327 55.5118 48.4309 55.5483C48.28 55.5665 48.1291 55.5847 48.1107 55.4324C48.1107 55.4324 47.9598 55.4507 47.9414 55.2984C47.6028 55.0303 47.5477 54.5735 47.6434 54.0984C47.8901 53.6052 48.3244 53.3982 48.6446 53.5141Z" fill="black"/>
<path d="M32.3902 65.9821C32.8797 66.232 33.1041 66.8229 32.8391 67.1639C32.5924 67.6571 32.0072 67.8823 31.6687 67.6142C31.1792 67.3643 30.9547 66.7734 31.2198 66.4324C31.3155 65.9574 31.9007 65.7322 32.3902 65.9821Z" fill="black"/>
<path d="M34.3698 72.2319C34.5207 72.2137 34.5391 72.366 34.7083 72.5C34.8776 72.6341 34.9144 72.9386 34.9512 73.2432C34.3292 73.1638 33.7072 73.0844 33.0852 73.005C33.0852 73.005 33.0668 72.8527 33.2177 72.8345C33.3502 72.664 33.4828 72.4935 33.6337 72.4753C33.7294 72.0003 34.0496 72.1161 34.3698 72.2319Z" fill="black"/>
<path d="M26.1997 67.9654C26.6891 68.2153 26.9136 68.8062 26.6486 69.1472C26.5344 69.4699 26.3835 69.4882 26.251 69.6587C25.9676 69.8474 25.6658 69.8838 25.3272 69.6157C25.007 69.4999 24.8194 69.2135 24.7642 68.7567C24.7458 68.6045 24.7274 68.4522 24.86 68.2817C25.125 67.9407 25.7102 67.7156 26.1997 67.9654Z" fill="black"/>
<path d="M38.5626 63.8459C39.052 64.0958 39.2765 64.6867 39.0115 65.0276C38.7648 65.5209 38.1796 65.7461 37.841 65.478C37.219 65.3986 37.1455 64.7895 37.2412 64.3144C37.4879 63.8212 38.0731 63.596 38.5626 63.8459Z" fill="black"/>
<path d="M30.2601 59.7507C30.7495 60.0006 30.974 60.5915 30.709 60.9324C30.4623 61.4257 29.8771 61.6508 29.5385 61.3827C29.0491 61.1329 28.8246 60.542 29.0897 60.201C29.3363 59.7077 29.9215 59.4826 30.2601 59.7507Z" fill="black"/>
<path d="M40.3914 70.1147C40.3914 70.1147 40.5423 70.0964 40.5607 70.2487C40.7116 70.2305 40.73 70.3828 40.8993 70.5168C41.0869 70.8031 41.1421 71.26 41.028 71.5827C40.9138 71.9055 40.4795 72.1124 40.1777 72.1489C40.0268 72.1671 39.8759 72.1853 39.8575 72.033C39.8575 72.033 39.7066 72.0512 39.6882 71.899C39.3497 71.6309 39.2945 71.1741 39.3903 70.699C39.486 70.224 40.0712 69.9988 40.3914 70.1147Z" fill="black"/>
<path d="M86.0874 -0.290281C86.4076 -0.174448 86.5953 0.111878 86.6321 0.416424C86.6505 0.568696 86.6688 0.720968 86.5363 0.891461C86.5547 1.04373 86.4038 1.06195 86.2713 1.23245C85.9879 1.42116 85.5352 1.47582 85.215 1.35999C84.8948 1.24415 84.6888 0.805556 84.652 0.50101C84.6336 0.348737 84.6152 0.196463 84.7661 0.178243C84.8986 0.00775088 85.0312 -0.162743 85.1821 -0.180963C85.4471 -0.521948 85.7673 -0.406114 86.0874 -0.290281Z" fill="black"/>
<path d="M77.5143 16.1941C77.6652 16.1759 77.6652 16.1759 77.6836 16.3281C77.8529 16.4622 78.0038 16.444 78.0221 16.5963L78.0405 16.7485C77.5878 16.8032 77.286 16.8396 76.8333 16.8943C76.6824 16.9125 76.3806 16.949 76.2297 16.9672C76.2113 16.8149 76.2113 16.8149 76.3439 16.6444C76.4764 16.4739 76.6089 16.3034 76.7598 16.2852C77.0616 16.2488 77.345 16.06 77.5143 16.1941Z" fill="black"/>
<path d="M81.8765 7.94308C82.366 8.19297 82.5904 8.78384 82.3254 9.12482C82.0788 9.61807 81.4936 9.84323 81.155 9.57512C80.6655 9.32524 80.4411 8.73437 80.7061 8.39339C80.9527 7.90013 81.3871 7.6932 81.8765 7.94308Z" fill="black"/>
<path d="M84.0067 14.1753C84.3269 14.2911 84.5329 14.7297 84.5697 15.0342L84.5881 15.1865C84.5881 15.1865 84.6065 15.3388 84.4556 15.357C84.2089 15.8502 83.6237 16.0754 83.2851 15.8073C83.1342 15.8255 83.1158 15.6732 82.9466 15.5392L82.9282 15.3869C82.7405 15.1006 82.7037 14.796 82.9688 14.4551C82.932 14.1505 83.5172 13.9254 84.0067 14.1753Z" fill="black"/>
<path d="M75.7039 10.0793C76.1934 10.3292 76.4178 10.9201 76.1528 11.261C75.9062 11.7543 75.321 11.9795 74.9824 11.7114C74.4929 11.4615 74.2685 10.8706 74.5335 10.5296C74.7801 10.0363 75.2145 9.82942 75.7039 10.0793Z" fill="black"/>
<path d="M88.0672 5.96016C88.5567 6.21005 88.7811 6.80092 88.5161 7.14191C88.2694 7.63516 87.6842 7.86032 87.3457 7.59221C86.8562 7.34232 86.6318 6.75145 86.8968 6.41047C87.1434 5.91721 87.5777 5.71028 88.0672 5.96016Z" fill="black"/>
<path d="M79.897 1.69307C80.3865 1.94296 80.6109 2.53383 80.3459 2.87481C80.0993 3.36807 79.5141 3.59323 79.1755 3.32512C78.686 3.07523 78.4616 2.48436 78.7266 2.14337C78.8224 1.66833 79.4076 1.44318 79.897 1.69307Z" fill="black"/>
<path d="M89.5755 12.112C89.7264 12.0938 89.8773 12.0755 90.0466 12.2096C90.1975 12.1914 90.3668 12.3254 90.5361 12.4595L90.5545 12.6118C90.2895 12.9527 89.8735 13.3119 89.4392 13.5189C89.2883 13.5371 89.3067 13.6894 89.1558 13.7076C89.1558 13.7076 88.9865 13.5735 88.9681 13.4213C88.9497 13.269 88.9497 13.269 88.9314 13.1167C88.913 12.9644 88.8762 12.6599 89.0087 12.4894C88.9903 12.3371 89.2737 12.1484 89.5755 12.112Z" fill="black"/>
<path d="M71.1726 18.1956C71.3235 18.1774 71.3235 18.1774 71.4928 18.3114C71.6621 18.4455 71.6621 18.4455 71.8313 18.5795C71.397 18.7865 70.9811 19.1457 70.4143 19.5231C70.4143 19.5231 70.2634 19.5413 70.2818 19.6936C70.0941 19.4073 70.0757 19.255 70.1898 18.9322C70.1898 18.9322 70.1898 18.9322 70.1714 18.78C70.5874 18.4208 70.8708 18.232 71.1726 18.1956Z" fill="black"/>
<path d="M61.1585 49.3772C61.648 49.627 61.8724 50.2179 61.6074 50.5589C61.3608 51.0522 60.7755 51.2773 60.437 51.0092C59.9475 50.7593 59.7231 50.1684 59.9881 49.8275C60.2347 49.3342 60.8383 49.2613 61.1585 49.3772Z" fill="black"/>
<path d="M59.179 43.1272C59.6685 43.377 59.8929 43.9679 59.6279 44.3089C59.3813 44.8022 58.796 45.0273 58.4575 44.7592C57.968 44.5093 57.7436 43.9184 58.0086 43.5775C58.1043 43.1024 58.7079 43.0295 59.179 43.1272Z" fill="black"/>
<path d="M63.2391 34.9116C63.39 34.8934 63.4084 35.0457 63.4084 35.0457C63.7469 35.3138 63.953 35.7524 63.7064 36.2457C63.5738 36.4162 63.5738 36.4162 63.4413 36.5866C63.2904 36.6049 63.3088 36.7571 63.1579 36.7754C62.8561 36.8118 62.7052 36.83 62.385 36.7142C61.8956 36.4643 61.6711 35.8734 61.9362 35.5324C62.3153 34.8687 62.7496 34.6618 63.2391 34.9116Z" fill="black"/>
<path d="M52.905 65.9769C53.2251 66.0927 53.4128 66.379 53.4496 66.6836C53.468 66.8358 53.4864 66.9881 53.3538 67.1586C53.3722 67.3109 53.2213 67.3291 53.0888 67.4996C52.8238 67.8406 52.522 67.877 52.1834 67.6089C51.8632 67.4931 51.6572 67.0545 51.6204 66.7499C51.602 66.5977 51.5836 66.4454 51.7345 66.4272C51.867 66.2567 51.9996 66.0862 52.1505 66.068C52.283 65.8975 52.7357 65.8428 52.905 65.9769Z" fill="black"/>
<path d="M57.1163 57.7434C57.6057 57.9933 57.8302 58.5841 57.5652 58.9251C57.3185 59.4184 56.7333 59.6435 56.3947 59.3754C55.9053 59.1255 55.6808 58.5347 55.9458 58.1937C56.0416 57.7186 56.6268 57.4935 57.1163 57.7434Z" fill="black"/>
<path d="M57.9255 64.4433C58.0396 64.1206 58.1905 64.1023 58.323 63.9319C58.1905 64.1023 58.058 64.2728 57.9255 64.4433Z" fill="black"/>
<path d="M50.9258 59.7277C51.4153 59.9776 51.6398 60.5685 51.3747 60.9095C51.1281 61.4027 50.5429 61.6279 50.2043 61.3598C49.7148 61.1099 49.4904 60.519 49.7554 60.178C49.8512 59.703 50.4548 59.6301 50.9258 59.7277Z" fill="black"/>
<path d="M63.1378 55.6277C62.8912 56.121 62.7955 56.596 62.5672 57.2416C62.5672 57.2416 62.5856 57.3938 62.4347 57.4121C62.2654 57.278 62.0961 57.1439 61.9085 56.8576C61.8717 56.5531 61.8533 56.4008 61.9858 56.2303C62.0999 55.9075 62.2325 55.7371 62.3834 55.7188C62.5159 55.5483 62.8177 55.5119 63.1378 55.6277Z" fill="black"/>
<path d="M54.9861 51.5134C55.4756 51.7633 55.7001 52.3541 55.435 52.6951C55.1884 53.1884 54.6032 53.4135 54.2646 53.1454C53.7751 52.8955 53.5507 52.3047 53.8157 51.9637C54.0624 51.4704 54.6476 51.2453 54.9861 51.5134Z" fill="black"/>
<path d="M46.7327 68.113C47.2222 68.3629 47.4466 68.9538 47.1816 69.2947C46.935 69.788 46.3498 70.0131 46.0112 69.745C45.5217 69.4952 45.2973 68.9043 45.5623 68.5633C45.8089 68.07 46.2433 67.8631 46.7327 68.113Z" fill="black"/>
</g>
<defs>
<clipPath id="clip0">
<rect width="72.0879" height="86.0294" fill="white" transform="matrix(-0.11987 -0.99279 -0.99279 0.11987 94.0508 71.5684)"/>
</clipPath>
</defs>
</svg>
