<svg width="1031" height="301" viewBox="0 0 1031 301" fill="none" xmlns="http://www.w3.org/2000/svg">
<path d="M0 8.49925C0 18.924 5.77759 31.0895 7.33049 41.476C5.99094 64.2041 18.5956 113.22 18.2992 124.006C17.5161 152.506 18.2992 181.14 18.2992 209.648C18.2992 231.705 15.9308 255.33 18.4108 277.284C21.6598 306.044 34.4675 289.803 52.4577 287.275C78.1145 283.67 106.063 286.013 131.045 278.821C144.85 274.847 159.04 274.932 173.241 273.331C186.918 271.789 200.05 267.402 213.65 265.865C231.11 263.891 249.416 265.426 267.009 265.426C315.736 265.426 362.067 265.657 410.006 275.088C480.645 288.984 549.854 301 622.325 301H918.031C935.021 301 952.632 300.065 969.604 298.914C984.185 297.925 998.166 293.095 1012.8 293.095C1026.38 293.095 1031 274.259 1031 261.912V216.017C1031 198.047 1026.17 180.637 1024.86 162.655C1021.57 117.322 1014.93 71.2899 1014.93 25.8473V4.54672C1014.93 -3.49732 998.901 1.582 991.729 1.582C973.336 5.53471 977.144 4.54653 962.93 4.54653H864.49H705.489L611.06 4.54682C588.74 4.54682 555.702 5.53488 534.612 3.55853C470.352 5.53522 438.79 3.55836 380.983 3.55836C308.934 4.54653 292.119 4.54653 245.052 4.54653C228.228 4.54653 200.312 3.2164 183.789 3.55853C173.158 3.77866 155.676 4.54653 145.042 4.54653C121.165 4.54653 106.853 6.68871 82.7314 4.54653H50.7908C39.4092 4.54653 46.0782 3.55836 17.2793 5.50233C2.61808 5.50233 0 3.46643 0 8.49925Z" fill="#CED1E6"/>
</svg>
