<svg width="104" height="110" viewBox="0 0 104 110" fill="none" xmlns="http://www.w3.org/2000/svg">
<g clip-path="url(#clip0)">
<path d="M73.2912 27.0249C73.3584 27.1613 73.4257 27.2976 73.3554 27.5017C73.4226 27.6381 73.285 27.7059 73.2147 27.9101C73.1444 28.1142 73.0068 28.1821 72.8693 28.2499C72.7317 28.3178 72.5942 28.3856 72.3894 28.3172C72.2518 28.385 72.1846 28.2487 71.9798 28.1802C71.775 28.1118 71.6405 27.8391 71.5733 27.7028C71.5061 27.5665 71.4388 27.4302 71.5764 27.3623C71.6467 27.1582 71.717 26.954 71.8546 26.8862C71.9921 26.8183 72.0624 26.6141 72.2672 26.6826C72.4048 26.6148 72.5424 26.5469 72.6096 26.6832C72.8144 26.7517 73.0192 26.8202 73.0864 26.9565C73.1567 26.7523 73.224 26.8886 73.2912 27.0249Z" fill="#414042"/>
<path d="M63.5233 16.9285C63.5936 16.7244 63.5936 16.7244 63.6639 16.5202C63.7342 16.316 64.0093 16.1803 64.2845 16.0446C64.694 16.1816 64.9661 16.3864 65.3757 16.5233C65.4429 16.6596 65.5101 16.7959 65.4398 17.0001L65.3695 17.2043C65.2289 17.6126 64.8162 17.8161 64.4738 17.8155C63.8564 17.9506 63.4499 17.4732 63.5233 16.9285Z" fill="#414042"/>
<path d="M60.198 21.2807C60.1246 21.8253 59.6417 22.233 59.2321 22.0961C58.6849 22.027 58.2784 21.5496 58.4191 21.1413C58.4925 20.5966 58.9755 20.1889 59.385 20.3258C59.8649 20.2586 60.2714 20.736 60.198 21.2807Z" fill="#414042"/>
<path d="M69.4314 22.3189C69.358 22.8635 68.8751 23.2712 68.4655 23.1343C67.9183 23.0652 67.5118 22.5878 67.6525 22.1795C67.7259 21.6348 68.2089 21.2271 68.6184 21.3641C69.1656 21.4331 69.5049 21.7742 69.4314 22.3189Z" fill="#414042"/>
<path d="M54.8948 24.7436C54.962 24.8799 55.0293 25.0163 54.9589 25.2204C55.0262 25.3567 54.8886 25.4246 54.8183 25.6287C54.6104 25.9008 54.1978 26.1043 53.8554 26.1037C53.5131 26.1031 53.1738 25.762 53.0393 25.4893C52.9721 25.353 52.9048 25.2167 53.0424 25.1489C53.1127 24.9447 53.183 24.7405 53.3206 24.6727C53.5285 24.4007 53.8036 24.265 54.2132 24.4019C54.4883 24.2662 54.7603 24.471 54.8948 24.7436Z" fill="#414042"/>
<path d="M64.1282 25.7824C64.1954 25.9187 64.2626 26.055 64.1923 26.2592C64.2596 26.3955 64.122 26.4634 64.0517 26.6675C63.8438 26.9395 63.4312 27.1431 63.0888 27.1425C62.7465 27.1418 62.4072 26.8007 62.2727 26.5281C62.2055 26.3918 62.1382 26.2555 62.2758 26.1876C62.3461 25.9835 62.4164 25.7793 62.554 25.7114C62.7619 25.4394 63.037 25.3037 63.4466 25.4407C63.8561 25.5776 63.9937 25.5098 64.1282 25.7824Z" fill="#414042"/>
<path d="M46.9715 14.9239C46.8981 15.4686 46.4151 15.8763 46.0055 15.7394C45.4584 15.6703 45.0519 15.1929 45.1925 14.7845L45.2628 14.5804C45.4035 14.172 45.8161 13.9685 46.296 13.9013C46.5008 13.9697 46.7056 14.0382 46.8401 14.3108C47.0449 14.3793 47.0418 14.7198 46.9715 14.9239Z" fill="#414042"/>
<path d="M41.7996 19.0005C41.7262 19.5451 41.2432 19.9529 40.8336 19.8159C40.2865 19.7468 39.88 19.2694 40.0206 18.8611C40.094 18.3164 40.577 17.9087 40.9866 18.0457C41.4665 17.9785 41.873 18.4559 41.7996 19.0005Z" fill="#414042"/>
<path d="M51.034 20.0383C50.9606 20.5829 50.4776 20.9906 50.068 20.8537C49.5209 20.7846 49.1144 20.3072 49.255 19.8989C49.3284 19.3542 49.8114 18.9465 50.221 19.0834C50.7681 19.1525 51.1074 19.4936 51.034 20.0383Z" fill="#414042"/>
<path d="M36.4963 22.4635C36.5635 22.5999 36.6307 22.7362 36.5604 22.9403C36.6277 23.0767 36.4901 23.1445 36.4198 23.3487C36.3495 23.5528 36.2119 23.6207 36.0744 23.6885C35.9368 23.7564 35.7992 23.8242 35.5945 23.7558C35.4569 23.8236 35.3897 23.6873 35.1849 23.6188C34.9801 23.5504 34.8456 23.2777 34.7784 23.1414C34.7111 23.0051 34.6439 22.8688 34.7815 22.8009C34.8518 22.5968 34.9221 22.3926 35.0597 22.3248C35.1972 22.2569 35.2675 22.0527 35.4723 22.1212C35.6099 22.0534 35.7474 21.9855 35.8147 22.1218C36.0195 22.1903 36.2242 22.2588 36.2915 22.3951C36.3618 22.1909 36.429 22.3272 36.4963 22.4635Z" fill="#414042"/>
<path d="M45.7307 23.5015C45.798 23.6378 45.8652 23.7741 45.7949 23.9783C45.8621 24.1146 45.7246 24.1824 45.6542 24.3866C45.4464 24.6586 45.0337 24.8621 44.6913 24.8615C44.349 24.8609 44.0097 24.5198 43.8753 24.2472C43.808 24.1109 43.7408 23.9745 43.8783 23.9067C43.9487 23.7025 44.019 23.4984 44.1565 23.4305C44.3644 23.1585 44.6395 23.0228 45.0491 23.1597C45.3242 23.024 45.5963 23.2288 45.7307 23.5015Z" fill="#414042"/>
<path d="M54.4259 15.8229C54.4993 15.2783 54.9823 14.8706 55.3919 15.0075C55.939 15.0766 56.3455 15.554 56.2049 15.9623C56.1315 16.507 55.6485 16.9147 55.2389 16.7777C54.6918 16.7087 54.3525 16.3676 54.4259 15.8229Z" fill="#414042"/>
<path d="M72.2458 36.6928C72.2427 37.0333 72.0348 37.3053 71.7597 37.441C71.6221 37.5088 71.4846 37.5767 71.2798 37.5082C71.1422 37.576 71.075 37.4397 70.8702 37.3713C70.5982 37.1665 70.3965 36.7575 70.3996 36.417C70.4026 36.0766 70.7481 35.7367 71.0232 35.601C71.1607 35.5332 71.2983 35.4653 71.3655 35.6016C71.5703 35.6701 71.7751 35.7386 71.8424 35.8749C72.1144 36.0797 72.2489 36.3523 72.2458 36.6928Z" fill="#414042"/>
<path d="M79.4961 37.5227C79.5665 37.3185 79.6368 37.1144 79.7743 37.0465C79.8447 36.8424 80.1198 36.7067 80.3246 36.7751C80.456 37.3882 80.7249 37.9335 80.8563 38.5466L80.7187 38.6145C80.5812 38.6823 80.5812 38.6823 80.3764 38.6138C80.3764 38.6138 80.2388 38.6817 80.1716 38.5454C79.762 38.4084 79.4227 38.0673 79.4961 37.5227Z" fill="#414042"/>
<path d="M76.1697 41.8751C76.0963 42.4197 75.6133 42.8275 75.2038 42.6905C74.6566 42.6214 74.2501 42.144 74.3907 41.7357C74.4642 41.191 74.9471 40.7833 75.3567 40.9203C75.8366 40.853 76.2431 41.3305 76.1697 41.8751Z" fill="#414042"/>
<path d="M77.4178 32.6159C77.3444 33.1605 76.8614 33.5682 76.4518 33.4313C75.9047 33.3622 75.4982 32.8848 75.6388 32.4765C75.7122 31.9319 76.1952 31.5241 76.6048 31.6611C77.1519 31.7302 77.4912 32.0713 77.4178 32.6159Z" fill="#414042"/>
<path d="M70.8662 45.3382C70.9334 45.4746 71.0007 45.6109 70.9303 45.815C70.9273 46.1555 70.7194 46.4275 70.4443 46.5632C70.3067 46.6311 70.1692 46.6989 69.9644 46.6304C69.8268 46.6983 69.7596 46.562 69.5548 46.4935C69.2828 46.2887 69.081 45.8798 69.0841 45.5393C69.1544 45.3351 69.2248 45.131 69.3623 45.0631C69.4999 44.9953 69.5702 44.7911 69.775 44.8596C69.9125 44.7917 70.0501 44.7239 70.1173 44.8602C70.3221 44.9287 70.5269 44.9971 70.5942 45.1335C70.7317 45.0656 70.799 45.2019 70.8662 45.3382Z" fill="#414042"/>
<path d="M80.1007 46.3764C80.1679 46.5127 80.2352 46.649 80.1648 46.8532C80.0914 47.3978 79.6085 47.8056 79.1989 47.6686C78.6517 47.5995 78.2452 47.1221 78.3859 46.7138C78.4562 46.5096 78.5265 46.3055 78.6641 46.2376C78.8719 45.9656 79.147 45.8299 79.5566 45.9668C79.6942 45.899 79.9662 46.1038 80.1007 46.3764Z" fill="#414042"/>
<path d="M53.8474 34.412C53.774 34.9567 53.2911 35.3644 52.8815 35.2275C52.3343 35.1584 51.9278 34.681 52.0685 34.2726C52.1419 33.728 52.6249 33.3203 53.0344 33.4572C53.5143 33.39 53.9208 33.8674 53.8474 34.412Z" fill="#414042"/>
<path d="M62.9441 35.5179C62.8707 36.0625 62.3877 36.4702 61.9782 36.3333C61.431 36.2642 61.0245 35.7868 61.1652 35.3785C61.2386 34.8338 61.7216 34.4261 62.1311 34.5631C62.6783 34.6321 63.0175 34.9732 62.9441 35.5179Z" fill="#414042"/>
<path d="M57.7723 39.5944C57.6989 40.1391 57.2159 40.5468 56.8063 40.4099C56.2592 40.3408 55.8527 39.8634 55.9933 39.455C56.0667 38.9104 56.5497 38.5027 56.9593 38.6396C57.4392 38.5724 57.8457 39.0498 57.7723 39.5944Z" fill="#414042"/>
<path d="M59.0193 30.3361C58.9459 30.8808 58.4629 31.2885 58.0534 31.1515C57.5062 31.0825 57.0997 30.605 57.2404 30.1967C57.3138 29.6521 57.7967 29.2444 58.2063 29.3813C58.7535 29.4504 59.0927 29.7915 59.0193 30.3361Z" fill="#414042"/>
<path d="M67.0057 40.6327C66.9322 41.1774 66.4493 41.5851 66.0397 41.4482C65.4925 41.3791 65.0861 40.9017 65.2267 40.4933C65.3001 39.9487 65.7831 39.541 66.1927 39.6779C66.7398 39.747 67.0791 40.0881 67.0057 40.6327Z" fill="#414042"/>
<path d="M68.1834 31.5781C68.11 32.1228 67.627 32.5305 67.2174 32.3936C66.6703 32.3245 66.2638 31.8471 66.4044 31.4387C66.4778 30.8941 66.9608 30.4864 67.3704 30.6233C67.8503 30.5561 68.2568 31.0335 68.1834 31.5781Z" fill="#414042"/>
<path d="M52.4679 43.0578C52.5351 43.1941 52.6023 43.3305 52.532 43.5346C52.4586 44.0793 51.9756 44.487 51.5661 44.35C51.0189 44.2809 50.6124 43.8035 50.7531 43.3952C50.8234 43.1911 50.8937 42.9869 51.0313 42.919C51.2391 42.647 51.5142 42.5113 51.9238 42.6483C52.0614 42.5804 52.3334 42.7852 52.4679 43.0578Z" fill="#414042"/>
<path d="M61.7023 44.0964C61.7695 44.2327 61.8367 44.369 61.7664 44.5732C61.693 45.1178 61.21 45.5255 60.8004 45.3886C60.2533 45.3195 59.8468 44.8421 59.9874 44.4337C60.0577 44.2296 60.1281 44.0254 60.2656 43.9576C60.4735 43.6856 60.7486 43.5499 61.1582 43.6868C61.2958 43.6189 61.5678 43.8237 61.7023 44.0964Z" fill="#414042"/>
<path d="M35.3825 31.9953C35.3794 32.3357 35.1715 32.6078 34.8964 32.7434C34.7589 32.8113 34.6213 32.8791 34.4165 32.8107C34.279 32.8785 34.2117 32.7422 34.0069 32.6737C33.7349 32.469 33.5332 32.06 33.5363 31.7195C33.5394 31.3791 33.8848 31.0392 34.1599 30.9035C34.2975 30.8357 34.435 30.7678 34.5023 30.9041C34.707 30.9726 34.9118 31.0411 34.9791 31.1774C35.3183 31.5185 35.4528 31.7911 35.3825 31.9953Z" fill="#414042"/>
<path d="M44.5468 33.2377C44.4734 33.7824 43.9904 34.1901 43.5808 34.0531C43.1712 33.9162 42.6272 33.5066 42.7678 33.0983C42.8412 32.5536 43.3242 32.1459 43.7338 32.2829C44.2137 32.2156 44.6202 32.6931 44.5468 33.2377Z" fill="#414042"/>
<path d="M39.3064 37.1779C39.233 37.7225 38.7501 38.1302 38.3405 37.9933C37.7933 37.9242 37.3868 37.4468 37.5275 37.0385C37.6009 36.4938 38.0839 36.0861 38.4934 36.223C39.0406 36.2921 39.4471 36.7695 39.3064 37.1779Z" fill="#414042"/>
<path d="M40.6219 28.0552C40.5485 28.5998 40.0655 29.0075 39.6559 28.8706C39.1088 28.8015 38.7023 28.3241 38.8429 27.9158C38.9163 27.3711 39.3993 26.9634 39.8089 27.1004C40.2888 27.0331 40.6953 27.5106 40.6219 28.0552Z" fill="#414042"/>
<path d="M48.6082 38.3521C48.5348 38.8967 48.0518 39.3044 47.6422 39.1675C47.0951 39.0984 46.6886 38.621 46.8292 38.2127C46.9026 37.6681 47.3856 37.2604 47.7952 37.3973C48.2751 37.3301 48.6816 37.8075 48.6082 38.3521Z" fill="#414042"/>
<path d="M49.7859 29.2974C49.7125 29.842 49.2296 30.2498 48.82 30.1128C48.2728 30.0437 47.8663 29.5663 48.007 29.158C48.0804 28.6134 48.5634 28.2056 48.9729 28.3426C49.4529 28.2753 49.8594 28.7528 49.7859 29.2974Z" fill="#414042"/>
<path d="M34.0029 40.6413C34.0701 40.7777 34.1374 40.914 34.0671 41.1181C34.064 41.4586 33.8561 41.7306 33.581 41.8663C33.4434 41.9342 33.3059 42.002 33.1011 41.9336C32.9635 42.0014 32.8963 41.8651 32.6915 41.7966C32.4195 41.5918 32.2178 41.1829 32.2208 40.8424C32.2912 40.6382 32.3615 40.4341 32.499 40.3662C32.6366 40.2984 32.7069 40.0942 32.9117 40.1627C33.0493 40.0948 33.1868 40.027 33.2541 40.1633C33.4588 40.2318 33.6636 40.3002 33.7309 40.4366C33.9357 40.505 34.0029 40.6413 34.0029 40.6413Z" fill="#414042"/>
<path d="M43.3048 41.8156C43.372 41.9519 43.4393 42.0883 43.3689 42.2924C43.2955 42.8371 42.8126 43.2448 42.403 43.1078C41.8558 43.0388 41.4493 42.5613 41.59 42.153C41.6603 41.9488 41.7306 41.7447 41.8682 41.6768C42.076 41.4048 42.3512 41.2691 42.7607 41.4061C42.8983 41.3382 43.1703 41.543 43.3048 41.8156Z" fill="#414042"/>
<path d="M26.1487 30.957C26.2128 31.4338 25.6626 31.7052 25.1827 31.7724C24.6356 31.7033 24.2291 31.2259 24.3697 30.8176C24.4431 30.2729 24.9261 29.8652 25.3357 30.0022C25.8156 29.9349 26.2221 30.4123 26.1487 30.957Z" fill="#414042"/>
<path d="M20.9087 34.8973C20.8384 35.1015 20.9056 35.2378 20.7681 35.3057C20.5602 35.5777 20.2851 35.7134 19.9427 35.7128C20.1537 35.1003 20.4319 34.6241 20.6428 34.0116C20.9149 34.2164 21.1166 34.6253 20.9087 34.8973Z" fill="#414042"/>
<path d="M30.2098 36.072C30.1364 36.6167 29.6534 37.0244 29.2438 36.8874C28.6966 36.8183 28.2901 36.3409 28.4308 35.9326C28.5042 35.388 28.9872 34.9802 29.3968 35.1172C29.8767 35.05 30.2832 35.5274 30.2098 36.072Z" fill="#414042"/>
<path d="M31.3211 26.8801C31.2477 27.4247 30.7647 27.8325 30.3551 27.6955C29.808 27.6264 29.4015 27.149 29.5421 26.7407C29.6155 26.1961 30.0985 25.7884 30.5081 25.9253C31.0552 25.9944 31.4617 26.4718 31.3211 26.8801Z" fill="#414042"/>
<path d="M24.9062 39.5353C24.9734 39.6716 25.0407 39.8079 24.9704 40.0121C24.897 40.5567 24.414 40.9644 23.8668 40.8953C23.3197 40.8262 22.9132 40.3488 23.0538 39.9405C23.1241 39.7363 23.1945 39.5322 23.332 39.4643C23.5399 39.1923 23.815 39.0566 24.2246 39.1936C24.4997 39.0579 24.7717 39.2626 24.9062 39.5353Z" fill="#414042"/>
<path d="M104.964 68.0083C105.169 68.0768 105.304 68.3494 105.301 68.6899C105.301 68.6899 105.368 68.8262 105.23 68.894L105.16 69.0982C105.16 69.0982 105.022 69.1661 105.09 69.3024C105.019 69.5065 104.882 69.5744 104.744 69.6422C104.607 69.7101 104.469 69.7779 104.264 69.7095C104.127 69.7773 104.06 69.641 103.855 69.5725C103.65 69.5041 103.516 69.2314 103.448 69.0951C103.381 68.9588 103.314 68.8225 103.451 68.7546C103.451 68.7546 103.384 68.6183 103.522 68.5505C103.592 68.3463 103.8 68.0743 104.075 67.9386C104.213 67.8707 104.35 67.8029 104.417 67.9392C104.417 67.9392 104.417 67.9392 104.555 67.8714C104.692 67.8035 104.897 67.872 104.964 68.0083Z" fill="#414042"/>
<path d="M88.0799 57.3549C88.0065 57.8995 87.5235 58.3072 87.1139 58.1703C86.5668 58.1012 86.1603 57.6238 86.3009 57.2154C86.3743 56.6708 86.8573 56.2631 87.2669 56.4C87.8843 56.2649 88.1533 56.8102 88.0799 57.3549Z" fill="#414042"/>
<path d="M92.1433 62.4689C92.0699 63.0136 91.587 63.4213 91.1774 63.2843C90.6302 63.2153 90.2237 62.7378 90.3644 62.3295C90.4378 61.7849 90.9208 61.3772 91.3303 61.5141C91.8102 61.4469 92.2167 61.9243 92.1433 62.4689Z" fill="#414042"/>
<path d="M101.239 63.5749C101.166 64.1196 100.683 64.5273 100.273 64.3903C99.7259 64.3213 99.3194 63.8438 99.4601 63.4355C99.4632 63.095 99.8086 62.7552 100.084 62.6195C100.221 62.5516 100.359 62.4838 100.426 62.6201C100.973 62.6892 101.312 63.0303 101.239 63.5749Z" fill="#414042"/>
<path d="M86.8359 66.273C86.8359 66.273 86.9031 66.4093 86.7656 66.4771C86.8328 66.6134 86.6952 66.6813 86.6249 66.8855C86.4171 67.1575 86.0044 67.361 85.662 67.3604C85.3197 67.3598 84.9804 67.0187 84.846 66.746C84.7787 66.6097 84.7115 66.4734 84.849 66.4056C84.849 66.4056 84.7818 66.2692 84.9194 66.2014C85.06 65.7931 85.4727 65.5895 85.9526 65.5223C86.57 65.3872 86.9093 65.7283 86.8359 66.273Z" fill="#414042"/>
<path d="M96.1377 67.4473C96.1377 67.4473 96.2049 67.5837 96.0673 67.6515C96.1346 67.7878 95.997 67.8557 95.9267 68.0598C95.7188 68.3319 95.3062 68.5354 94.9638 68.5348C94.6215 68.5342 94.2822 68.1931 94.1477 67.9204C94.0805 67.7841 94.0133 67.6478 94.1508 67.58C94.1508 67.58 94.0836 67.4436 94.2211 67.3758C94.3618 66.9675 94.7744 66.7639 95.2543 66.6967C95.7342 66.6295 96.0735 66.9706 96.1377 67.4473Z" fill="#414042"/>
<path d="M69.82 55.0064C69.8169 55.3469 69.609 55.6189 69.3339 55.7546C69.1964 55.8224 69.0588 55.8903 68.854 55.8218C68.7165 55.8896 68.6492 55.7533 68.4444 55.6849C68.1724 55.4801 67.9707 55.0711 67.9738 54.7307C67.9769 54.3902 68.3223 54.0503 68.5974 53.9146C68.735 53.8468 68.8725 53.7789 68.9397 53.9152C69.1445 53.9837 69.3493 54.0522 69.4166 54.1885C69.6886 54.3933 69.8231 54.6659 69.82 55.0064Z" fill="#414042"/>
<path d="M78.9168 56.1124C78.8434 56.657 78.3604 57.0647 77.9508 56.9278C77.4037 56.8587 76.9972 56.3813 77.1378 55.973C77.2112 55.4283 77.6942 55.0206 78.1038 55.1576C78.6509 55.2266 78.9902 55.5677 78.9168 56.1124Z" fill="#414042"/>
<path d="M73.7439 60.1889C73.6705 60.7335 73.1875 61.1412 72.778 61.0043C72.2308 60.9352 71.8243 60.4578 71.965 60.0494C72.0384 59.5048 72.5213 59.0971 72.9309 59.234C73.4108 59.1668 73.8173 59.6442 73.7439 60.1889Z" fill="#414042"/>
<path d="M74.992 50.9297C74.9186 51.4744 74.4356 51.8821 74.026 51.7452C73.4789 51.6761 73.0724 51.1987 73.213 50.7903C73.2864 50.2457 73.7694 49.838 74.179 49.9749C74.7261 50.044 74.9278 50.4529 74.992 50.9297Z" fill="#414042"/>
<path d="M82.8406 61.2949C82.7672 61.8396 82.2842 62.2473 81.8746 62.1104C81.3275 62.0413 80.921 61.5638 81.0616 61.1555C81.135 60.6109 81.618 60.2032 82.0276 60.3401C82.7123 60.3413 82.914 60.7503 82.8406 61.2949Z" fill="#414042"/>
<path d="M84.156 52.1721C84.0826 52.7167 83.5997 53.1244 83.1901 52.9875C82.6429 52.9184 82.2364 52.441 82.3771 52.0327C82.4505 51.488 82.9335 51.0803 83.343 51.2173C83.8229 51.15 84.2294 51.6274 84.156 52.1721Z" fill="#414042"/>
<path d="M68.576 63.9246C68.576 63.9246 68.6433 64.061 68.5057 64.1288C68.573 64.2651 68.4354 64.333 68.3651 64.5371C68.2948 64.7413 68.1572 64.8091 68.0197 64.877C67.8821 64.9448 67.7446 65.0127 67.5398 64.9442C67.4022 65.0121 67.335 64.8757 67.1302 64.8073C66.9254 64.7388 66.7909 64.4662 66.7237 64.3299C66.6564 64.1935 66.5892 64.0572 66.7268 63.9894C66.7268 63.9894 66.6595 63.8531 66.7971 63.7852C66.8674 63.5811 67.0753 63.309 67.3504 63.1734C67.4879 63.1055 67.6255 63.0377 67.6927 63.174C67.8975 63.2424 68.1023 63.3109 68.1695 63.4472C68.3743 63.5157 68.4416 63.652 68.576 63.9246Z" fill="#414042"/>
<path d="M77.7382 65.1675C77.7382 65.1675 77.8055 65.3038 77.6679 65.3717C77.7352 65.508 77.5976 65.5758 77.5273 65.78C77.3194 66.052 76.9067 66.2555 76.5644 66.2549C76.222 66.2543 75.8828 65.9132 75.7483 65.6406C75.6811 65.5043 75.6138 65.3679 75.7514 65.3001C75.7514 65.3001 75.6842 65.1638 75.8217 65.0959C75.9623 64.6876 76.375 64.4841 76.8549 64.4168C77.3348 64.3496 77.6741 64.6907 77.7382 65.1675Z" fill="#414042"/>
<path d="M51.3553 52.5893C51.2819 53.134 50.7989 53.5417 50.3893 53.4047C49.8422 53.3357 49.4357 52.8582 49.5763 52.4499C49.6497 51.9053 50.1327 51.4976 50.5423 51.6345C51.0894 51.7036 51.3584 52.2488 51.3553 52.5893Z" fill="#414042"/>
<path d="M60.5193 53.8318C60.4459 54.3764 59.9629 54.7841 59.5534 54.6472C59.0062 54.5781 58.5997 54.1007 58.7404 53.6924C58.8138 53.1477 59.2967 52.74 59.7063 52.877C60.1862 52.8097 60.5927 53.2871 60.5193 53.8318Z" fill="#414042"/>
<path d="M55.2791 57.7718C55.2057 58.3164 54.7227 58.7242 54.3131 58.5872C53.766 58.5181 53.3595 58.0407 53.5001 57.6324C53.5735 57.0877 54.0565 56.68 54.4661 56.817C55.0132 56.8861 55.4197 57.3635 55.2791 57.7718Z" fill="#414042"/>
<path d="M56.595 48.6491C56.5216 49.1937 56.0386 49.6014 55.629 49.4645C54.9443 49.4633 54.6754 48.918 54.7488 48.3734C54.8222 47.8287 55.3052 47.421 55.7148 47.5579C56.2619 47.627 56.5309 48.1723 56.595 48.6491Z" fill="#414042"/>
<path d="M64.5809 58.9465C64.5074 59.4912 64.0245 59.8989 63.6149 59.7619C63.0677 59.6928 62.6612 59.2154 62.8019 58.8071C62.8753 58.2625 63.3583 57.8548 63.7679 57.9917C64.2478 57.9245 64.5167 58.4697 64.5809 58.9465Z" fill="#414042"/>
<path d="M65.7586 49.8913C65.6852 50.4359 65.2022 50.8436 64.7926 50.7067C64.2455 50.6376 63.839 50.1602 63.9796 49.7519C64.053 49.2072 64.536 48.7995 64.9456 48.9365C65.4255 48.8692 65.832 49.3466 65.7586 49.8913Z" fill="#414042"/>
<path d="M50.1777 61.6444C50.1777 61.6444 50.2449 61.7807 50.1074 61.8485C50.1746 61.9849 50.0371 62.0527 49.9667 62.2569C49.7589 62.5289 49.3462 62.7324 49.0038 62.7318C48.6615 62.7312 48.3222 62.3901 48.1878 62.1174C48.1205 61.9811 48.0533 61.8448 48.1908 61.777C48.1908 61.777 48.1236 61.6407 48.2612 61.5728C48.4018 61.1645 48.8145 60.9609 49.2944 60.8937C49.7743 60.8265 50.1135 61.1676 50.1777 61.6444Z" fill="#414042"/>
<path d="M59.2744 62.75C59.2744 62.75 59.3416 62.8863 59.204 62.9541C59.2713 63.0905 59.1337 63.1583 59.0634 63.3625C58.8555 63.6345 58.4429 63.838 58.1005 63.8374C57.7582 63.8368 57.4189 63.4957 57.2844 63.2231C57.2172 63.0867 57.15 62.9504 57.2875 62.8826C57.2875 62.8826 57.2203 62.7463 57.3578 62.6784C57.4985 62.2701 57.9111 62.0665 58.391 61.9993C58.9382 62.0684 59.2775 62.4095 59.2744 62.75Z" fill="#414042"/>
<path d="M32.9567 50.3088C32.9536 50.6493 32.7457 50.9213 32.4706 51.057C32.3331 51.1249 32.1955 51.1927 31.9907 51.1243C31.8532 51.1921 31.7859 51.0558 31.5811 50.9873C31.3091 50.7825 31.1074 50.3736 31.1105 50.0331C31.1136 49.6926 31.459 49.3528 31.7341 49.2171C31.8717 49.1492 32.0092 49.0814 32.0765 49.2177C32.2813 49.2862 32.4861 49.3546 32.5533 49.491C32.8253 49.6957 33.027 50.1047 32.9567 50.3088Z" fill="#414042"/>
<path d="M42.1199 51.5517C42.0465 52.0963 41.5635 52.504 41.1539 52.3671C40.6068 52.298 40.2003 51.8206 40.3409 51.4123C40.4143 50.8676 40.8973 50.4599 41.3069 50.5968C41.7868 50.5296 42.1933 51.007 42.1199 51.5517Z" fill="#414042"/>
<path d="M36.8816 55.4911C36.8082 56.0358 36.3252 56.4435 35.9157 56.3065C35.3685 56.2375 34.962 55.7601 35.1027 55.3517C35.1761 54.8071 35.6591 54.3994 36.0686 54.5363C36.6158 54.6054 37.0223 55.0828 36.8816 55.4911Z" fill="#414042"/>
<path d="M38.1961 46.3686C38.1227 46.9132 37.6397 47.3209 37.2301 47.184C36.683 47.1149 36.2765 46.6375 36.4171 46.2291C36.4905 45.6845 36.9735 45.2768 37.3831 45.4137C37.863 45.3465 38.2695 45.8239 38.1961 46.3686Z" fill="#414042"/>
<path d="M46.1824 56.6658C46.109 57.2105 45.626 57.6182 45.2164 57.4813C44.6693 57.4122 44.2628 56.9348 44.4034 56.5264C44.4768 55.9818 44.9598 55.5741 45.3694 55.711C45.8493 55.6438 46.1183 56.1891 46.1824 56.6658Z" fill="#414042"/>
<path d="M47.2928 47.4749C47.2194 48.0195 46.7364 48.4272 46.3268 48.2903C45.7797 48.2212 45.3732 47.7438 45.5138 47.3355C45.5872 46.7908 46.0702 46.3831 46.4798 46.5201C47.0269 46.5891 47.4334 47.0666 47.2928 47.4749Z" fill="#414042"/>
<path d="M31.7792 59.3635C31.7792 59.3635 31.8464 59.4998 31.7089 59.5677C31.7761 59.704 31.6385 59.7718 31.5682 59.976C31.4979 60.1802 31.3604 60.248 31.2228 60.3159C31.0852 60.3837 30.9477 60.4516 30.7429 60.3831C30.6053 60.4509 30.5381 60.3146 30.3333 60.2462C30.1285 60.1777 29.994 59.905 29.9268 59.7687C29.8596 59.6324 29.7923 59.4961 29.9299 59.4282C29.9299 59.4282 29.8626 59.2919 30.0002 59.2241C30.0705 59.0199 30.2784 58.7479 30.5535 58.6122C30.6911 58.5444 30.8286 58.4765 30.8959 58.6128C31.1007 58.6813 31.3054 58.7498 31.3727 58.8861C31.5775 58.9546 31.6447 59.0909 31.7792 59.3635Z" fill="#414042"/>
<path d="M40.8759 60.4697C40.8759 60.4697 40.9432 60.6061 40.8056 60.6739C40.8729 60.8102 40.7353 60.8781 40.665 61.0822C40.4571 61.3542 40.0444 61.5578 39.7021 61.5572C39.3597 61.5565 39.0205 61.2154 38.886 60.9428C38.8188 60.8065 38.7515 60.6702 38.8891 60.6023C38.8891 60.6023 38.8218 60.466 38.9594 60.3982C39.1 59.9898 39.5127 59.7863 39.9926 59.7191C40.5398 59.7882 40.879 60.1293 40.8759 60.4697Z" fill="#414042"/>
<path d="M23.7225 49.2706C23.6491 49.8153 23.1661 50.223 22.7565 50.086C22.2093 50.017 21.8028 49.5395 21.9435 49.1312C22.0169 48.5866 22.4999 48.1789 22.9095 48.3158C23.3894 48.2486 23.7959 48.726 23.7225 49.2706Z" fill="#414042"/>
<path d="M18.4838 53.2109C18.5511 53.3472 18.4135 53.4151 18.3432 53.6192C18.2729 53.8234 17.9978 53.9591 17.7227 54.0948C17.5913 53.4817 17.4599 52.8686 17.3285 52.2555C17.3285 52.2555 17.466 52.1876 17.5333 52.3239C17.7381 52.3924 17.9429 52.4609 18.0101 52.5972C18.49 52.5299 18.4869 52.8704 18.4838 53.2109Z" fill="#414042"/>
<path d="M19.7984 44.0881C19.725 44.6327 19.2421 45.0405 18.8325 44.9035C18.4901 44.9029 18.4229 44.7666 18.2181 44.6981C17.9461 44.4933 17.8116 44.2207 17.9522 43.8124C17.9553 43.4719 18.1632 43.1999 18.5759 42.9963C18.7134 42.9285 18.851 42.8606 19.0558 42.9291C19.4654 43.066 19.8719 43.5435 19.7984 44.0881Z" fill="#414042"/>
<path d="M27.785 54.3851C27.7116 54.9298 27.2286 55.3375 26.819 55.2005C26.2718 55.1315 25.8653 54.654 26.006 54.2457C25.8746 53.6326 26.4248 53.3612 26.9047 53.294C27.4519 53.3631 27.8584 53.8405 27.785 54.3851Z" fill="#414042"/>
<path d="M28.8953 45.1943C28.8219 45.7389 28.3389 46.1466 27.9293 46.0097C27.3822 45.9406 26.9757 45.4632 27.1163 45.0548C27.1897 44.5102 27.6727 44.1025 28.0823 44.2394C28.6294 44.3085 29.0359 44.7859 28.8953 45.1943Z" fill="#414042"/>
<path d="M22.4785 58.1894C22.4785 58.1894 22.5457 58.3257 22.4082 58.3936C22.4754 58.5299 22.3378 58.5977 22.2675 58.8019C22.0596 59.0739 21.647 59.2774 21.3046 59.2768C20.9623 59.2762 20.623 58.9351 20.4885 58.6625C20.4213 58.5262 20.3541 58.3898 20.4916 58.322C20.4916 58.322 20.4244 58.1857 20.5619 58.1178C20.7026 57.7095 21.1152 57.506 21.5952 57.4387C22.0751 57.3715 22.4816 57.8489 22.4785 58.1894Z" fill="#414042"/>
<path d="M104.053 77.9484C104.05 78.2889 103.842 78.5609 103.567 78.6966C103.43 78.7645 103.292 78.8323 103.087 78.7638C102.95 78.8317 102.883 78.6954 102.678 78.6269C102.406 78.4221 102.204 78.0132 102.207 77.6727C102.21 77.3322 102.556 76.9924 102.831 76.8567C102.968 76.7888 103.106 76.721 103.173 76.8573C103.378 76.9258 103.583 76.9942 103.65 77.1305C104.06 77.2675 104.056 77.608 104.053 77.9484Z" fill="#414042"/>
<path d="M85.6591 75.3276C85.7263 75.464 85.7263 75.464 85.5887 75.5318C85.5184 75.736 85.5857 75.8723 85.4481 75.9401L85.3105 76.008C85.1088 75.599 84.9744 75.3264 84.7727 74.9175C84.7054 74.7811 84.5709 74.5085 84.5037 74.3722C84.6413 74.3043 84.6413 74.3043 84.8461 74.3728C85.0509 74.4413 85.2557 74.5097 85.3229 74.6461C85.4574 74.9187 85.7294 75.1235 85.6591 75.3276Z" fill="#414042"/>
<path d="M94.8894 76.7064C94.816 77.251 94.3331 77.6588 93.9235 77.5218C93.3763 77.4527 92.9698 76.9753 93.1105 76.567C93.1839 76.0223 93.6669 75.6146 94.0764 75.7516C94.6236 75.8207 94.9628 76.1618 94.8894 76.7064Z" fill="#414042"/>
<path d="M89.7164 80.783C89.7133 81.1235 89.3679 81.4634 89.0928 81.5991L88.9552 81.6669C88.9552 81.6669 88.8177 81.7348 88.7504 81.5985C88.2033 81.5294 87.7968 81.052 87.9374 80.6436C87.8702 80.5073 88.0077 80.4395 88.0781 80.2353L88.2156 80.1675C88.4235 79.8954 88.6986 79.7598 89.1082 79.8967C89.3833 79.761 89.7898 80.2384 89.7164 80.783Z" fill="#414042"/>
<path d="M90.827 71.5917C90.7536 72.1364 90.2706 72.5441 89.861 72.4071C89.3138 72.3381 88.9073 71.8606 89.048 71.4523C89.1214 70.9077 89.6044 70.5 90.014 70.6369C90.5611 70.706 90.9004 71.0471 90.827 71.5917Z" fill="#414042"/>
<path d="M98.8143 81.8891C98.7409 82.4338 98.2579 82.8415 97.8483 82.7045C97.3011 82.6355 96.8946 82.158 97.0353 81.7497C97.1087 81.2051 97.5917 80.7974 98.0013 80.9343C98.5484 81.0034 98.8877 81.3445 98.8143 81.8891Z" fill="#414042"/>
<path d="M100.13 72.766C100.056 73.3106 99.5733 73.7184 99.1637 73.5814C98.6166 73.5123 98.2101 73.0349 98.3507 72.6266C98.4241 72.0819 98.9071 71.6742 99.3167 71.8112C99.7966 71.7439 100.203 72.2214 100.13 72.766Z" fill="#414042"/>
<path d="M93.5102 85.3523C93.5775 85.4886 93.6447 85.625 93.5744 85.8291C93.6416 85.9654 93.5713 86.1696 93.501 86.3738L93.3634 86.4416C92.9538 86.3047 92.477 86.0314 92.1377 85.6903C92.0705 85.554 91.933 85.6219 91.8657 85.4855C91.8657 85.4855 91.936 85.2814 92.0736 85.2135C92.2112 85.1457 92.2112 85.1457 92.3487 85.0778C92.4863 85.01 92.7614 84.8743 92.9662 84.9428C93.1037 84.8749 93.3758 85.0797 93.5102 85.3523Z" fill="#414042"/>
<path d="M81.6673 70.0088C81.7345 70.1451 81.7345 70.1451 81.6642 70.3493C81.5939 70.5534 81.5939 70.5534 81.5236 70.7576C81.1843 70.4165 80.7075 70.1432 80.1634 69.7337C80.1634 69.7337 80.0962 69.5973 79.9586 69.6652C80.1665 69.3932 80.3041 69.3253 80.6464 69.326C80.6464 69.326 80.6464 69.326 80.784 69.2581C81.2608 69.5314 81.5328 69.7361 81.6673 70.0088Z" fill="#414042"/>
<path d="M48.9295 70.9033C48.8561 71.4479 48.3731 71.8556 47.9635 71.7187C47.4164 71.6496 47.0099 71.1722 47.1505 70.7639C47.2239 70.2192 47.7069 69.8115 48.1165 69.9485C48.6636 70.0175 48.9326 70.5628 48.9295 70.9033Z" fill="#414042"/>
<path d="M54.1697 66.9628C54.0963 67.5074 53.6133 67.9151 53.2037 67.7782C52.6566 67.7091 52.2501 67.2317 52.3907 66.8234C52.4641 66.2787 52.9471 65.871 53.3567 66.008C53.8366 65.9407 54.1056 66.486 54.1697 66.9628Z" fill="#414042"/>
<path d="M63.2661 68.0685C63.3334 68.2048 63.1958 68.2727 63.1958 68.2727C63.0552 68.681 62.7098 69.0209 62.1626 68.9518C61.9578 68.8833 61.9578 68.8833 61.753 68.8148C61.6858 68.6785 61.5482 68.7464 61.481 68.6101C61.3465 68.3374 61.2793 68.2011 61.2824 67.8606C61.3558 67.316 61.8388 66.9083 62.2484 67.0452C63.0003 67.1828 63.3396 67.5239 63.2661 68.0685Z" fill="#414042"/>
<path d="M30.5325 68.6224C30.5294 68.9629 30.3216 69.2349 30.0465 69.3706C29.9089 69.4384 29.7713 69.5063 29.5666 69.4378C29.429 69.5056 29.3618 69.3693 29.157 69.3009C28.7474 69.1639 28.6129 68.8913 28.7535 68.483C28.7566 68.1425 29.1021 67.8026 29.3772 67.6669C29.5147 67.5991 29.6523 67.5312 29.7195 67.6675C29.9243 67.736 30.1291 67.8045 30.1963 67.9408C30.4011 68.0093 30.6028 68.4182 30.5325 68.6224Z" fill="#414042"/>
<path d="M39.6961 69.8645C39.6227 70.4092 39.1397 70.8169 38.7301 70.68C38.183 70.6109 37.7765 70.1335 37.9171 69.7251C37.9905 69.1805 38.4735 68.7728 38.8831 68.9097C39.363 68.8425 39.7695 69.3199 39.6961 69.8645Z" fill="#414042"/>
<path d="M33.644 72.8501C33.9863 72.8508 34.0536 72.9871 34.2584 73.0555C34.0536 72.9871 33.8488 72.9186 33.644 72.8501Z" fill="#414042"/>
<path d="M35.7703 64.6826C35.6969 65.2273 35.2139 65.635 34.8043 65.4981C34.2572 65.429 33.8507 64.9516 33.9913 64.5432C34.0647 63.9986 34.5477 63.5909 34.9573 63.7278C35.4372 63.6606 35.7062 64.2059 35.7703 64.6826Z" fill="#414042"/>
<path d="M43.6889 74.8437C43.1418 74.7746 42.6619 74.8418 41.9772 74.8406C41.9772 74.8406 41.8396 74.9085 41.7724 74.7721C41.8427 74.568 41.913 74.3638 42.1209 74.0918C42.396 73.9561 42.5335 73.8883 42.7383 73.9567C43.0807 73.9573 43.2855 74.0258 43.3527 74.1621C43.5575 74.2306 43.692 74.5032 43.6889 74.8437Z" fill="#414042"/>
<path d="M44.867 65.7888C44.7936 66.3334 44.3106 66.7411 43.901 66.6042C43.3539 66.5351 42.9474 66.0577 43.088 65.6494C43.1614 65.1047 43.6444 64.697 44.054 64.8339C44.6011 64.903 45.0076 65.3804 44.867 65.7888Z" fill="#414042"/>
<path d="M26.4695 63.5079C26.3961 64.0526 25.9131 64.4603 25.5036 64.3234C24.9564 64.2543 24.5499 63.7769 24.6905 63.3685C24.7639 62.8239 25.2469 62.4162 25.6565 62.5531C26.2037 62.6222 26.5429 62.9633 26.4695 63.5079Z" fill="#414042"/>
</g>
<defs>
<clipPath id="clip0">
<rect width="72.0879" height="86.0294" fill="white" transform="matrix(0.896839 -0.442357 -0.442357 -0.896839 38.9033 109.294)"/>
</clipPath>
</defs>
</svg>
