<svg width="93" height="93" viewBox="0 0 93 93" fill="none" xmlns="http://www.w3.org/2000/svg">
<g filter="url(#filter0_d)">
<circle cx="46.5" cy="42.5" r="42.5" fill="#16DB93"/>
</g>
<path d="M60.7482 55.7258C60.7482 57.0205 59.6987 58.07 58.404 58.07H36.5249C35.2302 58.07 34.1807 57.0205 34.1807 55.7258C34.1807 55.2185 34.3451 54.725 34.6495 54.3193L36.5249 51.8188V41.8149C36.5249 41.7387 36.5258 41.6635 36.5268 41.5873C36.6339 37.0406 39.8791 33.1757 44.3389 32.2838H50.5901C52.794 32.7229 54.7771 33.9137 56.2005 35.6526C56.3499 35.8353 56.4935 36.0238 56.6293 36.2172C57.7857 37.8546 58.4057 39.8103 58.404 41.8149V51.8188L60.2794 54.3193C60.584 54.7249 60.7484 55.2185 60.7482 55.7258Z" fill="#2887EE"/>
<path d="M45.7615 33.7675L46.7813 36.9722L43.4964 37.6911L42.7776 40.9759L39.5728 39.9562L37.3078 42.442L36.5283 41.5873C36.6354 37.0406 39.8806 33.1757 44.3404 32.2838H47.3898L45.7615 33.7675Z" fill="#007BFF"/>
<path d="M60.7482 55.7258C60.7482 57.0205 59.6987 58.07 58.404 58.07H36.5249C35.2302 58.07 34.1807 57.0205 34.1807 55.7258C34.1807 55.2186 34.3451 54.725 34.6495 54.3193L36.5249 51.8188V51.683C43.9482 48.6639 51.1146 43.7489 56.6293 36.2172C57.7857 37.8546 58.4057 39.8103 58.404 41.8149V51.8188L60.2794 54.3193C60.584 54.7249 60.7484 55.2186 60.7482 55.7258V55.7258Z" fill="#007BFF"/>
<path d="M49.0275 42.442H45.9019C45.2546 42.442 44.7298 41.9172 44.7298 41.2699C44.7298 40.6226 45.2546 40.0978 45.9019 40.0978H50.981V38.535H48.2461V36.9722H46.6833V38.535H45.9019C44.3914 38.535 43.167 39.7594 43.167 41.2699C43.167 42.7803 44.3914 44.0048 45.9019 44.0048H49.0275C49.6748 44.0048 50.1996 44.5296 50.1996 45.1769C50.1996 45.8242 49.6748 46.349 49.0275 46.349H43.9484V47.9118H46.6833V49.4746H48.2461V47.9118H49.0275C50.5379 47.9118 51.7624 46.6873 51.7624 45.1769C51.7624 43.6664 50.5379 42.442 49.0275 42.442Z" fill="white"/>
<path d="M44.3401 32.2838L42.7773 26.814H52.1541L50.5913 32.2838H44.3401Z" fill="#2887EE"/>
<path d="M58.4043 53.3816H66.9997V64.3212H58.4043V53.3816Z" fill="#348FD9"/>
<path d="M34.5097 20.5694C35.277 19.7273 36.6022 19.7273 37.3695 20.5694V20.5694C37.8785 21.1281 38.6662 21.3392 39.3863 21.1098V21.1098C40.4719 20.7642 41.6196 21.4268 41.863 22.5397V22.5397C42.0245 23.278 42.6011 23.8547 43.3395 24.0162V24.0162C44.4524 24.2596 45.115 25.4073 44.7693 26.4929V26.4929C44.54 27.213 44.7511 28.0007 45.3098 28.5097V28.5097C46.1519 29.277 46.1519 30.6022 45.3098 31.3695V31.3695C44.7511 31.8785 44.54 32.6662 44.7693 33.3863V33.3863C45.115 34.4719 44.4524 35.6196 43.3395 35.863V35.863C42.6011 36.0245 42.0245 36.6011 41.863 37.3395V37.3395C41.6196 38.4524 40.4719 39.115 39.3863 38.7693V38.7693C38.6662 38.54 37.8785 38.7511 37.3695 39.3098V39.3098C36.6022 40.1519 35.277 40.1519 34.5097 39.3098V39.3098C34.0007 38.7511 33.213 38.54 32.4929 38.7693V38.7693C31.4073 39.115 30.2596 38.4524 30.0162 37.3395V37.3395C29.8547 36.6011 29.278 36.0245 28.5397 35.863V35.863C27.4268 35.6196 26.7642 34.4719 27.1098 33.3863V33.3863C27.3392 32.6662 27.1281 31.8785 26.5694 31.3695V31.3695C25.7273 30.6022 25.7273 29.277 26.5694 28.5097V28.5097C27.1281 28.0007 27.3392 27.213 27.1098 26.4929V26.4929C26.7642 25.4073 27.4268 24.2596 28.5397 24.0162V24.0162C29.278 23.8547 29.8547 23.278 30.0162 22.5397V22.5397C30.2596 21.4268 31.4073 20.7642 32.4929 21.1098V21.1098C33.213 21.3392 34.0007 21.1281 34.5097 20.5694V20.5694Z" fill="#FCD20E"/>
<path d="M32.7461 32.6741L38.2802 27.14L39.0628 27.9227L33.5287 33.4567L32.7461 32.6741Z" fill="#CBAA0E"/>
<path d="M33.6927 29.7442C32.7756 29.7442 32.0322 29.0008 32.0322 28.0838C32.0322 27.1667 32.7756 26.4233 33.6927 26.4233C34.6098 26.4233 35.3532 27.1667 35.3532 28.0838C35.3521 29.0004 34.6094 29.7432 33.6927 29.7442ZM33.6927 27.5303C33.387 27.5303 33.1392 27.7781 33.1392 28.0838C33.1392 28.3894 33.387 28.6373 33.6927 28.6373C33.9984 28.6373 34.2462 28.3894 34.2462 28.0838C34.2458 27.7782 33.9982 27.5306 33.6927 27.5303Z" fill="#CBAA0E"/>
<path d="M38.6741 33.6187C37.7571 33.6187 37.0137 32.8753 37.0137 31.9582C37.0137 31.0412 37.7571 30.2978 38.6741 30.2978C39.5912 30.2978 40.3346 31.0412 40.3346 31.9582C40.3336 32.8749 39.5908 33.6177 38.6741 33.6187ZM38.6741 31.4047C38.3685 31.4047 38.1207 31.6526 38.1207 31.9582C38.1207 32.2639 38.3685 32.5117 38.6741 32.5117C38.9798 32.5117 39.2276 32.2639 39.2276 31.9582C39.2273 31.6527 38.9797 31.4051 38.6741 31.4047Z" fill="#CBAA0E"/>
<path d="M58.4044 53.3816V64.3212H41.8641C40.4085 64.3213 38.9728 63.9821 37.671 63.3308L28.5598 58.7762C27.695 58.343 27.1487 57.4588 27.1484 56.4916V56.3216C27.1485 54.9113 28.2919 53.768 29.7022 53.768C30.0691 53.768 30.4317 53.8471 30.7653 53.9999L39.6508 58.07H41.2136C39.9189 58.07 38.8694 57.0205 38.8694 55.7258C38.8694 54.4311 39.9189 53.3816 41.2136 53.3816H47.204L47.2773 53.3376C50.4031 51.4628 54.2699 51.3144 57.5302 52.944L57.7256 53.0417L58.4044 53.3816Z" fill="#FEC9A3"/>
<path d="M58.405 53.3816V64.3212H41.8648C40.9602 64.3211 40.0604 64.1902 39.1934 63.9324C48.2468 61.1956 52.9352 58.07 57.7262 53.0417L58.405 53.3816Z" fill="#FEC093"/>
<path d="M41.214 57.2886H47.4652C47.8967 57.2886 48.2466 57.6384 48.2466 58.07C48.2466 58.5015 47.8967 58.8514 47.4652 58.8514H41.214C40.7825 58.8514 40.4326 58.5015 40.4326 58.07C40.4326 57.6384 40.7825 57.2886 41.214 57.2886Z" fill="#FEB784"/>
<path d="M58.4043 60.4142H66.9997V64.3212H58.4043V60.4142Z" fill="#3086CD"/>
<path d="M62.3118 61.977C63.1749 61.977 63.8746 61.2773 63.8746 60.4142C63.8746 59.5511 63.1749 58.8514 62.3118 58.8514C61.4487 58.8514 60.749 59.5511 60.749 60.4142C60.749 61.2773 61.4487 61.977 62.3118 61.977Z" fill="#2A71AD"/>
<defs>
<filter id="filter0_d" x="0" y="0" width="93" height="93" filterUnits="userSpaceOnUse" color-interpolation-filters="sRGB">
<feFlood flood-opacity="0" result="BackgroundImageFix"/>
<feColorMatrix in="SourceAlpha" type="matrix" values="0 0 0 0 0 0 0 0 0 0 0 0 0 0 0 0 0 0 127 0"/>
<feOffset dy="4"/>
<feGaussianBlur stdDeviation="2"/>
<feColorMatrix type="matrix" values="0 0 0 0 0.0862745 0 0 0 0 0.858824 0 0 0 0 0.576471 0 0 0 0.25 0"/>
<feBlend mode="normal" in2="BackgroundImageFix" result="effect1_dropShadow"/>
<feBlend mode="normal" in="SourceGraphic" in2="effect1_dropShadow" result="shape"/>
</filter>
</defs>
</svg>
