<svg width="50" height="25" viewBox="0 0 50 25" fill="none" xmlns="http://www.w3.org/2000/svg">
<path d="M2.18557e-06 -4.37114e-06C1.60592e-06 6.63041 2.63392 12.9893 7.32233 17.6777C12.0107 22.3661 18.3696 25 25 25C31.6304 25 37.9893 22.3661 42.6777 17.6777C47.3661 12.9893 50 6.63042 50 3.77489e-06L37.7758 8.60429e-07C37.7758 3.38837 36.4298 6.63795 34.0339 9.03389C31.638 11.4298 28.3884 12.7758 25 12.7758C21.6116 12.7758 18.362 11.4298 15.9661 9.03388C13.5702 6.63795 12.2242 3.38836 12.2242 -3.30247e-06L2.18557e-06 -4.37114e-06Z" fill="#16DB93"/>
</svg>
