<svg width="140" height="142" viewBox="0 0 140 142" fill="none" xmlns="http://www.w3.org/2000/svg">
<g clip-path="url(#clip0)">
<path d="M29.3273 68.941C29.4497 68.7929 29.5721 68.6447 29.8432 68.6194C29.9656 68.4713 30.1143 68.5941 30.3853 68.5689C30.6564 68.5436 30.8051 68.6664 30.9537 68.7892C31.1024 68.9121 31.2511 69.0349 31.2773 69.3059C31.426 69.4288 31.3036 69.5769 31.3298 69.8479C31.3561 70.1189 31.1112 70.4151 30.9888 70.5633C30.8664 70.7114 30.744 70.8595 30.5954 70.7367C30.3243 70.762 30.0532 70.7873 29.9045 70.6644C29.7559 70.5416 29.4848 70.5669 29.4586 70.2959C29.3099 70.1731 29.1612 70.0502 29.2837 69.9021C29.2574 69.6311 29.2312 69.3601 29.3536 69.212C29.0825 69.2373 29.2049 69.0891 29.3273 68.941Z" fill="#B6CADF"/>
<path d="M22.7174 85.4158C22.4464 85.4411 22.4464 85.4411 22.1753 85.4664C21.9042 85.4916 21.6069 85.246 21.3096 85.0003C21.2571 84.4583 21.3532 84.0392 21.3007 83.4972C21.4231 83.3491 21.5456 83.201 21.8166 83.1757L22.0877 83.1504C22.6298 83.0998 23.0758 83.4683 23.2507 83.8621C23.723 84.5017 23.382 85.217 22.7174 85.4158Z" fill="#B6CADF"/>
<path d="M29.4328 86.9764C30.0974 86.7777 30.8144 87.121 30.8669 87.6629C31.0681 88.3277 30.7271 89.0431 30.185 89.0937C29.5204 89.2924 28.8034 88.9492 28.7509 88.4072C28.4273 87.8906 28.7683 87.1752 29.4328 86.9764Z" fill="#B6CADF"/>
<path d="M25.8908 75.8235C26.5554 75.6247 27.2724 75.968 27.3249 76.5099C27.5261 77.1747 27.1851 77.8901 26.643 77.9407C25.9784 78.1394 25.2614 77.7962 25.2089 77.2542C25.0077 76.5894 25.2263 76.0222 25.8908 75.8235Z" fill="#B6CADF"/>
<path d="M36.1399 91.2723C36.2623 91.1242 36.3847 90.9761 36.6558 90.9508C36.7782 90.8026 36.9269 90.9255 37.1979 90.9002C37.6177 90.9977 38.0637 91.3663 38.2386 91.7601C38.4135 92.1539 38.1949 92.7212 37.9501 93.0175C37.8277 93.1656 37.7053 93.3137 37.5566 93.1909C37.2855 93.2162 37.0145 93.2415 36.8658 93.1186C36.4461 93.0211 36.1488 92.7754 36.0963 92.2334C35.7989 91.9877 35.8951 91.5686 36.1399 91.2723Z" fill="#B6CADF"/>
<path d="M32.5979 80.1192C32.7203 79.9711 32.8427 79.8229 33.1138 79.7977C33.2362 79.6495 33.3849 79.7724 33.656 79.7471C34.0757 79.8446 34.5217 80.2131 34.6966 80.607C34.8715 81.0008 34.6529 81.568 34.4081 81.8643C34.2857 82.0125 34.1633 82.1606 34.0146 82.0377C33.7436 82.063 33.4725 82.0883 33.3238 81.9655C32.9041 81.8679 32.6068 81.6222 32.5543 81.0803C32.5018 80.5383 32.3531 80.4155 32.5979 80.1192Z" fill="#B6CADF"/>
<path d="M28.9015 105.483C29.5661 105.284 30.2832 105.628 30.3357 106.17C30.5368 106.834 30.1958 107.55 29.6537 107.6L29.3826 107.626C28.8405 107.676 28.3945 107.308 28.0709 106.791C28.0447 106.52 28.0184 106.249 28.2633 105.953C28.237 105.682 28.6305 105.508 28.9015 105.483Z" fill="#B6CADF"/>
<path d="M36.2473 109.31C36.9118 109.111 37.6289 109.454 37.6814 109.996C37.8825 110.661 37.5416 111.376 36.9994 111.427C36.3349 111.625 35.6178 111.282 35.5653 110.74C35.2417 110.224 35.5827 109.508 36.2473 109.31Z" fill="#B6CADF"/>
<path d="M32.7043 98.1553C33.3688 97.9566 34.0859 98.2998 34.1384 98.8418C34.3396 99.5066 33.9986 100.222 33.4564 100.273C32.7919 100.471 32.0748 100.128 32.0223 99.5861C31.8212 98.9213 32.0397 98.354 32.7043 98.1553Z" fill="#B6CADF"/>
<path d="M42.9533 113.605C43.0757 113.456 43.1981 113.308 43.4692 113.283C43.5916 113.135 43.7403 113.258 44.0113 113.232C44.2824 113.207 44.4311 113.33 44.5797 113.453C44.7284 113.576 44.877 113.699 44.9033 113.97C45.0519 114.092 44.9295 114.241 44.9558 114.511C44.982 114.782 44.7372 115.079 44.6148 115.227C44.4924 115.375 44.37 115.523 44.2213 115.4C43.9503 115.426 43.6792 115.451 43.5305 115.328C43.3819 115.205 43.1108 115.23 43.0846 114.96C42.9359 114.837 42.7872 114.714 42.9096 114.566C42.8834 114.295 42.8571 114.024 42.9795 113.876C42.7085 113.901 42.8309 113.753 42.9533 113.605Z" fill="#B6CADF"/>
<path d="M39.4104 102.451C39.5328 102.303 39.6552 102.155 39.9263 102.13C40.0487 101.981 40.1974 102.104 40.4685 102.079C40.8882 102.177 41.3342 102.545 41.5091 102.939C41.684 103.333 41.4654 103.9 41.2206 104.196C41.0982 104.344 40.9758 104.493 40.8271 104.37C40.5561 104.395 40.285 104.42 40.1363 104.297C39.7166 104.2 39.4193 103.954 39.3668 103.412C39.0694 103.167 39.1656 102.747 39.4104 102.451Z" fill="#B6CADF"/>
<path d="M26.1117 96.4472C25.4472 96.646 24.7301 96.3027 24.6776 95.7608C24.4764 95.096 24.8174 94.3806 25.3596 94.33C26.0241 94.1313 26.7412 94.4745 26.7937 95.0165C26.9948 95.6813 26.7763 96.2485 26.1117 96.4472Z" fill="#B6CADF"/>
<path d="M40.9917 65.1177C41.3852 64.9442 41.8049 65.0418 42.1022 65.2875C42.2509 65.4103 42.3996 65.5332 42.4258 65.8041C42.5745 65.927 42.4521 66.0751 42.4783 66.3461C42.3822 66.7652 42.0149 67.2096 41.6214 67.3831C41.228 67.5565 40.6596 67.3361 40.3622 67.0904C40.2136 66.9676 40.0649 66.8447 40.1873 66.6966C40.1611 66.4256 40.1348 66.1546 40.2572 66.0065C40.3534 65.5874 40.5982 65.2911 40.9917 65.1177Z" fill="#B6CADF"/>
<path d="M38.2281 56.3526C37.957 56.3779 37.686 56.4032 37.5373 56.2803C37.2662 56.3056 36.9689 56.0599 36.9426 55.789C37.5809 55.3193 38.0706 54.7267 38.7089 54.257L38.8575 54.3799C39.0062 54.5027 39.0062 54.5027 39.0325 54.7737C39.0325 54.7737 39.1811 54.8965 39.0587 55.0447C39.1112 55.5866 38.8927 56.1539 38.2281 56.3526Z" fill="#B6CADF"/>
<path d="M44.9436 57.9138C45.6081 57.715 46.3252 58.0583 46.3777 58.6002C46.5788 59.265 46.2378 59.9804 45.6957 60.031C45.0312 60.2297 44.3141 59.8865 44.2616 59.3445C43.938 58.8279 44.279 58.1125 44.9436 57.9138Z" fill="#B6CADF"/>
<path d="M33.6457 61.2915C34.3102 61.0928 35.0273 61.436 35.0798 61.978C35.281 62.6428 34.94 63.3582 34.3978 63.4087C33.7333 63.6075 33.0162 63.2642 32.9637 62.7223C32.7626 62.0575 32.9811 61.4902 33.6457 61.2915Z" fill="#B6CADF"/>
<path d="M51.6506 62.2094C51.773 62.0613 51.8954 61.9132 52.1665 61.8879C52.56 61.7144 52.9797 61.812 53.277 62.0577C53.4257 62.1805 53.5744 62.3034 53.6006 62.5744C53.7493 62.6972 53.6269 62.8453 53.6531 63.1163C53.557 63.5354 53.1897 63.9798 52.7962 64.1533C52.5252 64.1786 52.2541 64.2038 52.1054 64.081C51.9568 63.9582 51.6857 63.9835 51.6595 63.7125C51.5108 63.5896 51.3621 63.4668 51.4845 63.3186C51.4583 63.0477 51.432 62.7767 51.5545 62.6286C51.4058 62.5057 51.5282 62.3576 51.6506 62.2094Z" fill="#B6CADF"/>
<path d="M48.1083 51.0557C48.2307 50.9076 48.3531 50.7595 48.6242 50.7342C49.2888 50.5355 50.0058 50.8787 50.0583 51.4207C50.2595 52.0855 49.9185 52.8009 49.3764 52.8514C49.1053 52.8767 48.8342 52.902 48.6856 52.7792C48.2658 52.6816 47.9685 52.4359 47.916 51.894C47.7673 51.7711 47.8635 51.352 48.1083 51.0557Z" fill="#B6CADF"/>
<path d="M47.8049 87.4499C48.4694 87.2512 49.1865 87.5944 49.239 88.1364C49.4402 88.8012 49.0992 89.5165 48.557 89.5671C47.8925 89.7658 47.1754 89.4226 47.1229 88.8807C46.7994 88.364 47.1403 87.6486 47.8049 87.4499Z" fill="#B6CADF"/>
<path d="M44.4113 76.4192C45.0759 76.2204 45.7929 76.5637 45.8454 77.1056C46.0466 77.7704 45.7056 78.4858 45.1635 78.5364C44.4989 78.7351 43.7819 78.3919 43.7294 77.8499C43.5282 77.1851 43.7468 76.6179 44.4113 76.4192Z" fill="#B6CADF"/>
<path d="M51.756 80.2455C52.4206 80.0468 53.1376 80.3901 53.1902 80.932C53.3913 81.5968 53.0503 82.3122 52.5082 82.3628C51.8437 82.5615 51.1266 82.2183 51.0741 81.6763C50.7505 81.1596 51.0915 80.4443 51.756 80.2455Z" fill="#B6CADF"/>
<path d="M40.4602 83.6244C41.1247 83.4257 41.8418 83.7689 41.8943 84.3109C42.0954 84.9757 41.7544 85.6911 41.2123 85.7417C40.5477 85.9404 39.8307 85.5971 39.7782 85.0552C39.577 84.3904 39.7956 83.8231 40.4602 83.6244Z" fill="#B6CADF"/>
<path d="M48.215 69.0926C48.8796 68.8939 49.5966 69.2371 49.6491 69.7791C49.8503 70.4439 49.5093 71.1593 48.9672 71.2098C48.3026 71.4086 47.5856 71.0653 47.5331 70.5234C47.3319 69.8586 47.5505 69.2913 48.215 69.0926Z" fill="#B6CADF"/>
<path d="M37.1887 72.4457C37.8532 72.247 38.5703 72.5903 38.6228 73.1322C38.8239 73.797 38.483 74.5124 37.9408 74.563C37.2763 74.7617 36.5592 74.4184 36.5067 73.8765C36.1831 73.3598 36.5241 72.6444 37.1887 72.4457Z" fill="#B6CADF"/>
<path d="M58.4638 84.5418C58.5862 84.3937 58.7086 84.2455 58.9797 84.2202C59.6442 84.0215 60.3613 84.3648 60.4138 84.9067C60.615 85.5715 60.274 86.2869 59.7318 86.3375C59.4608 86.3628 59.1897 86.3881 59.041 86.2652C58.6213 86.1677 58.324 85.922 58.2715 85.38C58.1228 85.2572 58.219 84.8381 58.4638 84.5418Z" fill="#B6CADF"/>
<path d="M54.9228 73.3887C55.0452 73.2405 55.1676 73.0924 55.4387 73.0671C56.1032 72.8684 56.8203 73.2116 56.8728 73.7536C57.0739 74.4184 56.733 75.1338 56.1908 75.1843C55.9198 75.2096 55.6487 75.2349 55.5 75.1121C55.0803 75.0145 54.783 74.7688 54.7305 74.2269C54.5818 74.104 54.678 73.6849 54.9228 73.3887Z" fill="#B6CADF"/>
<path d="M54.4956 109.931C54.8891 109.757 55.3088 109.855 55.6061 110.1C55.7548 110.223 55.9035 110.346 55.9297 110.617C56.0784 110.74 55.956 110.888 55.9822 111.159C55.8861 111.578 55.5188 112.023 55.1253 112.196C54.7319 112.369 54.1635 112.149 53.8661 111.903C53.7175 111.78 53.5688 111.658 53.6912 111.509C53.665 111.238 53.6387 110.967 53.7611 110.819C53.9797 110.252 54.2245 109.956 54.4956 109.931Z" fill="#B6CADF"/>
<path d="M51.2241 98.7517C51.8887 98.553 52.6057 98.8962 52.6582 99.4382C52.7107 99.9802 52.5184 100.818 51.9763 100.869C51.3117 101.068 50.5947 100.724 50.5421 100.182C50.2186 99.6658 50.5596 98.9504 51.2241 98.7517Z" fill="#B6CADF"/>
<path d="M58.4484 102.727C59.113 102.528 59.83 102.871 59.8825 103.413C60.0837 104.078 59.7427 104.793 59.2006 104.844C58.536 105.043 57.819 104.699 57.7665 104.157C57.5653 103.493 57.9063 102.777 58.4484 102.727Z" fill="#B6CADF"/>
<path d="M47.2727 105.956C47.9372 105.758 48.6543 106.101 48.7068 106.643C48.9079 107.308 48.5669 108.023 48.0248 108.074C47.3603 108.272 46.6432 107.929 46.5907 107.387C46.2671 106.87 46.6081 106.155 47.2727 105.956Z" fill="#B6CADF"/>
<path d="M55.0275 91.4243C55.6921 91.2256 56.4091 91.5688 56.4616 92.1108C56.6628 92.7756 56.3218 93.4909 55.7797 93.5415C55.1151 93.7402 54.3981 93.397 54.3456 92.855C54.022 92.3384 54.363 91.623 55.0275 91.4243Z" fill="#B6CADF"/>
<path d="M44.0021 94.7775C44.6667 94.5788 45.3837 94.922 45.4362 95.464C45.6374 96.1288 45.2964 96.8442 44.7543 96.8948C44.0897 97.0935 43.3727 96.7503 43.3202 96.2083C42.9966 95.6916 43.3376 94.9763 44.0021 94.7775Z" fill="#B6CADF"/>
<path d="M65.1555 107.022C65.2779 106.874 65.4003 106.726 65.6714 106.701C66.0649 106.527 66.4846 106.625 66.7819 106.871C66.9306 106.994 67.0792 107.116 67.1055 107.387C67.2542 107.51 67.1317 107.658 67.158 107.929C67.0618 108.348 66.6946 108.793 66.3011 108.966C66.0301 108.992 65.759 109.017 65.6103 108.894C65.4617 108.771 65.1906 108.796 65.1643 108.525C65.0157 108.403 64.867 108.28 64.9894 108.132C64.9632 107.861 64.9369 107.59 65.0593 107.442C65.0331 107.171 65.1555 107.022 65.1555 107.022Z" fill="#B6CADF"/>
<path d="M61.7353 95.7204C61.8577 95.5722 61.9801 95.4241 62.2512 95.3988C62.9157 95.2001 63.6328 95.5433 63.6853 96.0853C63.8864 96.7501 63.5455 97.4655 63.0033 97.5161C62.7322 97.5413 62.4612 97.5666 62.3125 97.4438C61.8928 97.3462 61.5955 97.1006 61.543 96.5586C61.3943 96.4357 61.4905 96.0166 61.7353 95.7204Z" fill="#B6CADF"/>
<path d="M58.0377 121.084C58.5536 120.762 59.1483 121.254 59.4719 121.77C59.673 122.435 59.332 123.15 58.7899 123.201C58.1253 123.4 57.4083 123.057 57.3558 122.515C57.0322 121.998 57.3732 121.283 58.0377 121.084Z" fill="#B6CADF"/>
<path d="M65.2612 125.059C65.5323 125.033 65.6547 124.885 65.8033 125.008C66.2231 125.106 66.5204 125.351 66.6953 125.745C65.8821 125.821 65.1913 125.749 64.3781 125.825C64.4742 125.406 64.8415 124.961 65.2612 125.059Z" fill="#B6CADF"/>
<path d="M61.842 113.757C62.5065 113.558 63.2236 113.902 63.2761 114.444C63.4773 115.108 63.1363 115.824 62.5941 115.874C61.9296 116.073 61.2125 115.73 61.16 115.188C60.8365 114.671 61.1774 113.956 61.842 113.757Z" fill="#B6CADF"/>
<path d="M50.6916 117.257C51.3561 117.059 52.0732 117.402 52.1257 117.944C52.3269 118.609 51.9859 119.324 51.4438 119.375C50.7792 119.573 50.0622 119.23 50.0097 118.688C49.8085 118.023 50.1495 117.308 50.6916 117.257Z" fill="#B6CADF"/>
<path d="M68.5485 118.053C68.6709 117.905 68.7933 117.757 69.0644 117.731C69.729 117.533 70.446 117.876 70.6472 118.541C70.8484 119.206 70.5074 119.921 69.9652 119.972C69.6942 119.997 69.4231 120.022 69.2744 119.899C68.8547 119.802 68.5574 119.556 68.5049 119.014C68.2075 118.768 68.3037 118.349 68.5485 118.053Z" fill="#B6CADF"/>
<path d="M60.2521 11.2329C60.2258 10.9619 60.4707 10.6657 60.8641 10.4922C60.8641 10.4922 60.9866 10.3441 61.1352 10.467L61.4063 10.4417C61.4063 10.4417 61.5549 10.5645 61.6774 10.4164C61.9484 10.3911 62.0971 10.5139 62.2457 10.6368C62.3944 10.7596 62.5431 10.8824 62.5693 11.1534C62.718 11.2763 62.5956 11.4244 62.6218 11.6954C62.6481 11.9664 62.4032 12.2626 62.2808 12.4108C62.1584 12.5589 62.036 12.707 61.8874 12.5842C61.8874 12.5842 61.7649 12.7323 61.6163 12.6095C61.3452 12.6348 60.9255 12.5372 60.6282 12.2915C60.4795 12.1687 60.3308 12.0459 60.4533 11.8977C60.4533 11.8977 60.4533 11.8977 60.3046 11.7749C60.1559 11.652 60.1297 11.3811 60.2521 11.2329Z" fill="#B6CADF"/>
<path d="M56.6506 36.1776C57.3151 35.9788 58.0322 36.3221 58.0847 36.864C58.2858 37.5288 57.9449 38.2442 57.4027 38.2948C56.7382 38.4935 56.0211 38.1503 55.9686 37.6083C55.4964 36.9688 55.986 36.3763 56.6506 36.1776Z" fill="#B6CADF"/>
<path d="M60.4533 28.8498C61.1179 28.651 61.8349 28.9943 61.8874 29.5362C62.0886 30.201 61.7476 30.9164 61.2055 30.967C60.5409 31.1657 59.8239 30.8225 59.7714 30.2805C59.4478 29.7639 59.7888 29.0485 60.4533 28.8498Z" fill="#B6CADF"/>
<path d="M57.0598 17.8192C57.7243 17.6204 58.4414 17.9637 58.4939 18.5056C58.695 19.1704 58.3541 19.8858 57.8119 19.9364C57.4184 20.1098 56.85 19.8894 56.5527 19.6438C56.4041 19.5209 56.2554 19.3981 56.3778 19.2499C56.1766 18.5851 56.3952 18.0179 57.0598 17.8192Z" fill="#B6CADF"/>
<path d="M67.5547 32.9728C67.5547 32.9728 67.6771 32.8247 67.8257 32.9476C67.9481 32.7994 68.0968 32.9223 68.3679 32.897C68.7876 32.9945 69.2336 33.363 69.4085 33.7569C69.5834 34.1507 69.3648 34.7179 69.12 35.0142C68.9976 35.1623 68.8752 35.3105 68.7265 35.1876C68.7265 35.1876 68.6041 35.3358 68.4555 35.2129C67.9133 35.2635 67.4674 34.895 67.1438 34.3783C66.6715 33.7388 66.8901 33.1716 67.5547 32.9728Z" fill="#B6CADF"/>
<path d="M64.1347 21.6706C64.1347 21.6706 64.2571 21.5225 64.4058 21.6453C64.5282 21.4972 64.6769 21.62 64.9479 21.5947C65.3677 21.6923 65.8137 22.0608 65.9886 22.4546C66.1635 22.8485 65.9449 23.4157 65.7001 23.712C65.5777 23.8601 65.4553 24.0083 65.3066 23.8854C65.3066 23.8854 65.1842 24.0336 65.0355 23.9107C64.4934 23.9613 64.0474 23.5928 63.7238 23.0761C63.4003 22.5594 63.6188 21.9922 64.1347 21.6706Z" fill="#B6CADF"/>
<path d="M63.3149 58.3867C63.7084 58.2132 64.1282 58.3108 64.4255 58.5565C64.5741 58.6793 64.7228 58.8022 64.749 59.0731C64.8977 59.196 64.7753 59.3441 64.8016 59.6151C64.7054 60.0342 64.3382 60.4786 63.9447 60.652C63.5512 60.8255 62.9828 60.6051 62.6855 60.3594C62.5368 60.2365 62.3882 60.1137 62.5106 59.9656C62.4843 59.6946 62.4581 59.4236 62.5805 59.2755C62.6767 58.8564 62.9215 58.5601 63.3149 58.3867Z" fill="#B6CADF"/>
<path d="M59.9221 47.3563C60.5866 47.1575 61.3037 47.5008 61.3562 48.0427C61.5573 48.7075 61.2164 49.4229 60.6742 49.4735C60.0097 49.6722 59.2926 49.329 59.2401 48.787C59.0389 48.1222 59.2575 47.555 59.9221 47.3563Z" fill="#B6CADF"/>
<path d="M67.2678 51.1828C67.9323 50.9841 68.6494 51.3273 68.7019 51.8693C68.903 52.5341 68.5621 53.2495 68.0199 53.3001C67.3554 53.4988 66.6383 53.1555 66.5858 52.6136C66.2622 52.0969 66.6032 51.3815 67.2678 51.1828Z" fill="#B6CADF"/>
<path d="M55.9699 54.5606C56.6345 54.3619 57.3515 54.7051 57.404 55.2471C57.6052 55.9119 57.2642 56.6272 56.7221 56.6778C56.0575 56.8765 55.3405 56.5333 55.288 55.9913C55.0868 55.3265 55.454 54.8821 55.9699 54.5606Z" fill="#B6CADF"/>
<path d="M63.8742 40.1521C64.5388 39.9534 65.2558 40.2966 65.3083 40.8386C65.5095 41.5034 65.1685 42.2188 64.6264 42.2693C63.9618 42.4681 63.2448 42.1248 63.1923 41.5829C62.8424 40.7952 63.2097 40.3508 63.8742 40.1521Z" fill="#B6CADF"/>
<path d="M52.6984 43.3817C53.363 43.183 54.08 43.5262 54.1325 44.0682C54.3337 44.733 53.9927 45.4484 53.4506 45.499C52.786 45.6977 52.069 45.3544 52.0165 44.8125C51.6929 44.2958 52.0339 43.5804 52.6984 43.3817Z" fill="#B6CADF"/>
<path d="M74.2186 55.1816C74.2186 55.1816 74.341 55.0335 74.4897 55.1563C74.6121 55.0082 74.7608 55.1311 75.0318 55.1058C75.3029 55.0805 75.4516 55.2033 75.6002 55.3262C75.7489 55.449 75.8975 55.5718 75.9238 55.8428C76.0725 55.9657 75.95 56.1138 75.9763 56.3848C76.0025 56.6558 75.7577 56.952 75.6353 57.1002C75.5129 57.2483 75.3905 57.3964 75.2418 57.2736C75.2418 57.2736 75.1194 57.4217 74.9708 57.2989C74.6997 57.3242 74.28 57.2266 73.9827 56.9809C73.834 56.8581 73.6853 56.7353 73.8077 56.5871C73.7815 56.3161 73.7552 56.0452 73.8776 55.897C73.8514 55.626 73.9738 55.4779 74.2186 55.1816Z" fill="#B6CADF"/>
<path d="M70.9482 44.0035C70.9482 44.0035 71.0706 43.8553 71.2193 43.9782C71.3417 43.83 71.4904 43.9529 71.7614 43.9276C72.1812 44.0251 72.6271 44.3937 72.8021 44.7875C72.977 45.1813 72.7584 45.7486 72.5136 46.0448C72.3912 46.193 72.2688 46.3411 72.1201 46.2183C72.1201 46.2183 71.9977 46.3664 71.849 46.2436C71.3069 46.2941 70.8609 45.9256 70.5373 45.4089C70.2138 44.8923 70.4323 44.325 70.9482 44.0035Z" fill="#B6CADF"/>
<path d="M70.0061 80.867C70.6706 80.6682 71.3877 81.0115 71.4402 81.5534C71.6413 82.2182 71.3003 82.9336 70.7582 82.9842C70.0937 83.1829 69.3766 82.8397 69.3241 82.2977C69.1229 81.6329 69.6126 81.0404 70.0061 80.867Z" fill="#B6CADF"/>
<path d="M66.7346 69.6882C67.3991 69.4895 68.1162 69.8327 68.1687 70.3747C68.3698 71.0395 68.0289 71.7549 67.4867 71.8055C66.8222 72.0042 66.1051 71.6609 66.0526 71.119C65.729 70.6023 66.07 69.8869 66.7346 69.6882Z" fill="#B6CADF"/>
<path d="M73.9582 73.6626C74.6227 73.4639 75.3398 73.8071 75.3923 74.3491C75.5935 75.0139 75.2525 75.7293 74.7103 75.7799C74.0458 75.9786 73.3287 75.6354 73.2762 75.0934C73.0751 74.4286 73.4161 73.7132 73.9582 73.6626Z" fill="#B6CADF"/>
<path d="M62.7828 76.8924C63.4474 76.6937 64.1644 77.0369 64.2169 77.5789C64.5668 78.3665 64.0771 78.959 63.4126 79.1578C62.748 79.3565 62.031 79.0132 61.9785 78.4713C61.7773 77.8065 62.2669 77.2139 62.7828 76.8924Z" fill="#B6CADF"/>
<path d="M70.5383 62.3614C71.2028 62.1627 71.9199 62.5059 71.9724 63.0479C72.1735 63.7127 71.8326 64.4281 71.2904 64.4787C70.6259 64.6774 69.9088 64.3341 69.8563 63.7922C69.5328 63.2755 70.0224 62.683 70.5383 62.3614Z" fill="#B6CADF"/>
<path d="M59.5109 65.7136C60.1755 65.5149 60.8925 65.8581 60.945 66.4C61.1462 67.0648 60.8052 67.7802 60.2631 67.8308C59.5985 68.0295 58.8815 67.6863 58.829 67.1443C58.5054 66.6277 58.8464 65.9123 59.5109 65.7136Z" fill="#B6CADF"/>
<path d="M81.0322 77.5141C81.0322 77.5141 81.1546 77.366 81.3033 77.4889C81.4257 77.3407 81.5743 77.4636 81.8454 77.4383C82.2651 77.5358 82.7111 77.9044 82.886 78.2982C83.061 78.692 82.8424 79.2592 82.5976 79.5555C82.4752 79.7037 82.3527 79.8518 82.2041 79.7289C82.2041 79.7289 82.0817 79.8771 81.933 79.7542C81.3909 79.8048 80.9449 79.4363 80.6213 78.9196C80.2977 78.403 80.5163 77.8357 81.0322 77.5141Z" fill="#B6CADF"/>
<path d="M77.6386 66.4836C77.6386 66.4836 77.7611 66.3354 77.9097 66.4583C78.0321 66.3101 78.1808 66.433 78.4519 66.4077C78.8716 66.5052 79.3176 66.8738 79.4925 67.2676C79.6674 67.6614 79.4488 68.2287 79.204 68.5249C79.0816 68.6731 78.9592 68.8212 78.8105 68.6984C78.8105 68.6984 78.6881 68.8465 78.5395 68.7237C77.9973 68.7742 77.5513 68.4057 77.2278 67.889C77.0266 67.2242 77.2452 66.657 77.6386 66.4836Z" fill="#B6CADF"/>
<path d="M76.8198 103.2C77.2133 103.026 77.633 103.124 77.9304 103.369C78.079 103.492 78.2277 103.615 78.2539 103.886C78.4026 104.009 78.2802 104.157 78.3064 104.428C78.2103 104.847 77.843 105.291 77.4496 105.465C77.0561 105.638 76.4877 105.418 76.1904 105.172C76.0417 105.049 75.8931 104.927 76.0155 104.778C75.9892 104.507 75.963 104.236 76.0854 104.088C76.1815 103.669 76.5488 103.225 76.8198 103.2Z" fill="#B6CADF"/>
<path d="M73.549 92.0211C74.2136 91.8223 74.9306 92.1656 74.9831 92.7075C75.1843 93.3723 74.8433 94.0877 74.3012 94.1383C73.6366 94.337 72.9196 93.9938 72.8671 93.4518C72.5435 92.9352 72.8845 92.2198 73.549 92.0211Z" fill="#B6CADF"/>
<path d="M80.7707 95.9946C81.4352 95.7959 82.1523 96.1391 82.2048 96.6811C82.406 97.3459 82.065 98.0613 81.5229 98.1119C80.8583 98.3106 80.1412 97.9673 80.0887 97.4254C79.8876 96.7606 80.2286 96.0452 80.7707 95.9946Z" fill="#B6CADF"/>
<path d="M69.5969 99.2254C70.2614 99.0267 70.9785 99.3699 71.031 99.9119C71.2321 100.577 70.8912 101.292 70.349 101.343C69.6845 101.541 68.9674 101.198 68.9149 100.656C68.5913 100.139 68.9323 99.4241 69.5969 99.2254Z" fill="#B6CADF"/>
<path d="M77.3518 84.6934C78.0163 84.4947 78.7334 84.8379 78.7859 85.3799C78.987 86.0447 78.6461 86.76 78.1039 86.8106C77.4394 87.0093 76.7223 86.6661 76.6698 86.1241C76.3462 85.6075 76.8359 85.0149 77.3518 84.6934Z" fill="#B6CADF"/>
<path d="M66.2033 88.1946C66.8679 87.9959 67.5849 88.3392 67.6374 88.8811C67.8386 89.5459 67.4976 90.2613 66.9555 90.3119C66.2909 90.5106 65.5739 90.1674 65.5214 89.6254C65.3202 88.9606 65.6612 88.2452 66.2033 88.1946Z" fill="#B6CADF"/>
<path d="M87.8456 99.8464C87.8456 99.8464 87.968 99.6983 88.1166 99.8211C88.2391 99.673 88.3877 99.7958 88.6588 99.7705C88.9299 99.7452 89.0785 99.8681 89.2272 99.9909C89.3758 100.114 89.5245 100.237 89.5508 100.508C89.6994 100.63 89.577 100.779 89.6033 101.05C89.6295 101.321 89.3847 101.617 89.2623 101.765C89.1399 101.913 89.0175 102.061 88.8688 101.938C88.8688 101.938 88.7464 102.087 88.5977 101.964C88.3267 101.989 87.9069 101.891 87.6096 101.646C87.4609 101.523 87.3123 101.4 87.4347 101.252C87.4084 100.981 87.3822 100.71 87.5046 100.562C87.4783 100.291 87.6007 100.143 87.8456 99.8464Z" fill="#B6CADF"/>
<path d="M84.4511 88.8153C84.4511 88.8153 84.5736 88.6672 84.7222 88.79C84.8446 88.6419 84.9933 88.7648 85.2644 88.7395C85.6841 88.837 86.1301 89.2055 86.305 89.5994C86.4799 89.9932 86.2613 90.5604 86.0165 90.8567C85.8941 91.0048 85.7717 91.153 85.623 91.0301C85.623 91.0301 85.5006 91.1783 85.352 91.0554C84.8098 91.106 84.3638 90.7375 84.0403 90.2208C83.8391 89.556 84.0577 88.9888 84.4511 88.8153Z" fill="#B6CADF"/>
<path d="M80.3615 114.353C81.0261 114.154 81.7431 114.498 81.7956 115.039C81.9968 115.704 81.6558 116.42 81.1137 116.47C80.4491 116.669 79.7321 116.326 79.6796 115.784C79.356 115.267 79.697 114.552 80.3615 114.353Z" fill="#B6CADF"/>
<path d="M87.5843 118.327C87.7067 118.179 87.8554 118.302 88.1265 118.277C88.3975 118.251 88.6949 118.497 88.9922 118.743C88.3539 119.212 87.7156 119.682 87.0773 120.152C87.0773 120.152 86.9286 120.029 87.051 119.881C87.0248 119.61 86.9985 119.339 87.1209 119.191C86.7974 118.674 87.1908 118.501 87.5843 118.327Z" fill="#B6CADF"/>
<path d="M76.4095 121.557C77.0741 121.358 77.7911 121.702 77.8436 122.244C78.0186 122.637 77.8962 122.786 77.9224 123.056C77.8262 123.476 77.5814 123.772 77.0393 123.822C76.6458 123.996 76.2261 123.898 75.7801 123.53C75.6314 123.407 75.4828 123.284 75.4565 123.013C75.404 122.471 75.745 121.756 76.4095 121.557Z" fill="#B6CADF"/>
<path d="M84.1643 107.025C84.8288 106.827 85.5459 107.17 85.5984 107.712C85.7995 108.376 85.4585 109.092 84.9164 109.142C84.2781 109.612 83.6835 109.121 83.3599 108.604C83.1587 107.939 83.4997 107.224 84.1643 107.025Z" fill="#B6CADF"/>
<path d="M73.0158 110.526C73.6804 110.328 74.3974 110.671 74.4499 111.213C74.6511 111.878 74.3101 112.593 73.768 112.644C73.1034 112.842 72.3864 112.499 72.3339 111.957C72.1327 111.292 72.4737 110.577 73.0158 110.526Z" fill="#B6CADF"/>
<path d="M91.2656 111.148C91.2656 111.148 91.388 111 91.5367 111.123C91.6591 110.975 91.8077 111.098 92.0788 111.072C92.4985 111.17 92.9445 111.538 93.1194 111.932C93.2943 112.326 93.0758 112.893 92.831 113.19C92.7085 113.338 92.5861 113.486 92.4375 113.363C92.4375 113.363 92.3151 113.511 92.1664 113.388C91.6243 113.439 91.1783 113.07 90.8547 112.554C90.5311 112.037 90.8721 111.322 91.2656 111.148Z" fill="#B6CADF"/>
<path d="M72.1607 7.11333C72.5541 6.93991 72.9739 7.03746 73.2712 7.28314C73.4198 7.40598 73.5685 7.52883 73.5948 7.7998C73.7434 7.92265 73.621 8.07078 73.6473 8.34176C73.5511 8.76088 73.1839 9.20528 72.7904 9.37871C72.3969 9.55214 71.8285 9.33175 71.5312 9.08606C71.3825 8.96322 71.2339 8.84038 71.3563 8.69224C71.33 8.42126 71.3038 8.15028 71.4262 8.00215C71.3737 7.46019 71.7672 7.28676 72.1607 7.11333Z" fill="#B6CADF"/>
<path d="M78.5801 29.6192C78.7025 29.4711 78.7025 29.4711 78.8512 29.5939C79.1223 29.5686 79.2447 29.4205 79.3933 29.5433L79.542 29.6662C79.1748 30.1106 78.9299 30.4069 78.5627 30.8513C78.4403 30.9994 78.1955 31.2957 78.0731 31.4438C77.9244 31.321 77.9244 31.321 77.8982 31.05C77.8719 30.779 77.8457 30.508 77.9681 30.3599C78.2129 30.0636 78.3091 29.6445 78.5801 29.6192Z" fill="#B6CADF"/>
<path d="M75.4318 18.2924C76.0964 18.0937 76.8134 18.4369 76.8659 18.9789C77.0671 19.6437 76.7261 20.3591 76.184 20.4097C75.5194 20.6084 74.8024 20.2652 74.7499 19.7232C74.5487 19.0584 74.7673 18.4912 75.4318 18.2924Z" fill="#B6CADF"/>
<path d="M82.7776 22.1188C83.1711 21.9454 83.7395 22.1658 84.0368 22.4115L84.1855 22.5343C84.1855 22.5343 84.3341 22.6571 84.2117 22.8053C84.4129 23.4701 84.0719 24.1855 83.5298 24.2361C83.4074 24.3842 83.2587 24.2613 82.9876 24.2866L82.839 24.1638C82.4192 24.0662 82.1219 23.8206 82.0694 23.2786C81.7721 23.0329 82.1131 22.3175 82.7776 22.1188Z" fill="#B6CADF"/>
<path d="M71.6291 25.6201C72.2936 25.4214 73.0107 25.7646 73.0632 26.3066C73.2644 26.9714 72.9234 27.6868 72.3813 27.7373C71.7167 27.9361 70.9996 27.5928 70.9471 27.0509C70.746 26.3861 70.9645 25.8188 71.6291 25.6201Z" fill="#B6CADF"/>
<path d="M79.384 11.0881C80.0485 10.8893 80.7656 11.2326 80.8181 11.7745C81.0192 12.4393 80.6783 13.1547 80.1361 13.2053C79.4716 13.404 78.7545 13.0608 78.702 12.5188C78.5009 11.854 78.7194 11.2868 79.384 11.0881Z" fill="#B6CADF"/>
<path d="M68.2082 14.3178C68.8727 14.119 69.5898 14.4623 69.6423 15.0042C69.8435 15.669 69.5025 16.3844 68.9604 16.435C68.2958 16.6337 67.5787 16.2905 67.5262 15.7485C67.2027 15.2319 67.5436 14.5165 68.2082 14.3178Z" fill="#B6CADF"/>
<path d="M86.0914 15.3843C86.2138 15.2361 86.3363 15.088 86.6073 15.0627C86.7297 14.9146 87.0008 14.8893 87.2719 14.864L87.4205 14.9868C87.473 15.5288 87.4031 16.2189 87.1846 16.7861C87.0622 16.9343 87.2108 17.0571 87.0884 17.2052C87.0884 17.2052 86.8173 17.2305 86.6687 17.1077C86.52 16.9849 86.52 16.9849 86.3714 16.862C86.2227 16.7392 85.9254 16.4935 85.8991 16.2225C85.7505 16.0997 85.8466 15.6805 86.0914 15.3843Z" fill="#B6CADF"/>
<path d="M74.5064 36.9716C74.6288 36.8235 74.6288 36.8235 74.8999 36.7982C75.1709 36.7729 75.1709 36.7729 75.442 36.7476C75.2234 37.3149 75.1535 38.005 74.9612 38.8432C74.9612 38.8432 74.8388 38.9913 74.9875 39.1142C74.5677 39.0166 74.4191 38.8938 74.2442 38.5C74.2442 38.5 74.2442 38.5 74.0955 38.3771C74.1654 37.687 74.2616 37.2679 74.5064 36.9716Z" fill="#B6CADF"/>
<path d="M92.3293 74.1359C92.9938 73.9372 93.7109 74.2804 93.7634 74.8224C93.9646 75.4872 93.6236 76.2026 93.0814 76.2531C92.4169 76.4519 91.6998 76.1086 91.6473 75.5667C91.4462 74.9019 91.9358 74.3093 92.3293 74.1359Z" fill="#B6CADF"/>
<path d="M85.1066 70.1614C85.7712 69.9627 86.4882 70.3059 86.5407 70.8479C86.7419 71.5127 86.4009 72.228 85.8588 72.2786C85.1942 72.4773 84.4772 72.1341 84.4247 71.5922C84.1011 71.0755 84.5908 70.4829 85.1066 70.1614Z" fill="#B6CADF"/>
<path d="M81.7128 59.1305C81.8352 58.9824 81.9839 59.1052 81.9839 59.1052C82.526 59.0547 83.0944 59.2751 83.2956 59.9399C83.3218 60.2108 83.3218 60.2108 83.3481 60.4818C83.2257 60.63 83.3743 60.7528 83.2519 60.9009C83.0071 61.1972 82.8847 61.3453 82.4912 61.5188C81.8267 61.7175 81.1096 61.3742 81.0571 60.8323C80.8297 59.8965 81.0483 59.3293 81.7128 59.1305Z" fill="#B6CADF"/>
<path d="M99.1429 96.4678C99.5364 96.2944 99.9561 96.3919 100.253 96.6376C100.402 96.7605 100.551 96.8833 100.577 97.1543C100.726 97.2771 100.603 97.4253 100.63 97.6963C100.682 98.2382 100.437 98.5345 99.895 98.5851C99.5016 98.7585 98.9332 98.5381 98.6358 98.2924C98.4872 98.1696 98.3385 98.0467 98.4609 97.8986C98.4347 97.6276 98.4084 97.3566 98.5308 97.2085C98.5046 96.9375 98.8718 96.4931 99.1429 96.4678Z" fill="#B6CADF"/>
<path d="M95.8713 85.289C96.5358 85.0903 97.2529 85.4336 97.3054 85.9755C97.5066 86.6403 97.1656 87.3557 96.6234 87.4063C95.9589 87.605 95.2418 87.2618 95.1893 86.7198C94.8658 86.2031 95.2067 85.4878 95.8713 85.289Z" fill="#B6CADF"/>
<path d="M102.413 90.6941C102.238 90.3003 102.361 90.1521 102.334 89.8811C102.361 90.1521 102.387 90.4231 102.413 90.6941Z" fill="#B6CADF"/>
<path d="M91.9211 92.4943C92.5856 92.2956 93.3027 92.6388 93.3552 93.1808C93.5564 93.8456 93.2154 94.561 92.6732 94.6116C92.0087 94.8103 91.2916 94.4671 91.2391 93.9251C90.9156 93.4084 91.4052 92.8159 91.9211 92.4943Z" fill="#B6CADF"/>
<path d="M99.5532 78.1107C99.7544 78.7755 100.078 79.2922 100.428 80.0799C100.428 80.0799 100.576 80.2027 100.454 80.3508C100.183 80.3761 99.9119 80.4014 99.4921 80.3039C99.1948 80.0582 99.0462 79.9353 99.0199 79.6644C98.845 79.2705 98.8188 78.9996 98.9412 78.8514C98.9149 78.5804 99.1597 78.2842 99.5532 78.1107Z" fill="#B6CADF"/>
<path d="M88.5275 81.4637C89.1921 81.265 89.9091 81.6082 89.9616 82.1502C90.1628 82.815 89.8218 83.5304 89.2797 83.581C88.6151 83.7797 87.8981 83.4364 87.8456 82.8945C87.6444 82.2297 87.9854 81.5143 88.5275 81.4637Z" fill="#B6CADF"/>
<path d="M95.34 103.796C96.0046 103.597 96.7216 103.94 96.7741 104.482C96.9753 105.147 96.6343 105.862 96.0922 105.913C95.4276 106.112 94.7106 105.768 94.6581 105.226C94.4569 104.562 94.6755 103.994 95.34 103.796Z" fill="#B6CADF"/>
</g>
<defs>
<clipPath id="clip0">
<rect width="90.6389" height="108.767" fill="white" transform="matrix(-0.770869 -0.636994 -0.636994 0.770869 139.154 57.7365)"/>
</clipPath>
</defs>
</svg>
