<svg width="25" height="50" viewBox="0 0 25 50" fill="none" xmlns="http://www.w3.org/2000/svg">
<path d="M5.96244e-07 50C6.63041 50 12.9893 47.3661 17.6777 42.6777C22.3661 37.9893 25 31.6304 25 25C25 18.3696 22.3661 12.0107 17.6777 7.32233C12.9893 2.63392 6.63042 1.22022e-06 3.77489e-06 2.98122e-07L2.07487e-06 12.2242C3.38837 12.2242 6.63795 13.5702 9.03389 15.9661C11.4298 18.3621 12.7758 21.6116 12.7758 25C12.7758 28.3884 11.4298 31.638 9.03389 34.0339C6.63795 36.4298 3.38837 37.7758 4.50472e-07 37.7758L5.96244e-07 50Z" fill="#72EFDD"/>
</svg>
