<svg width="64" height="64" viewBox="0 0 64 64" fill="none" xmlns="http://www.w3.org/2000/svg">
<rect width="64" height="64" rx="20" fill="#16DB93"/>
<path d="M44.6118 28.9L36.6775 27.7469L33.1306 20.5563C33.0337 20.3594 32.8743 20.2 32.6775 20.1031C32.1837 19.8594 31.5837 20.0625 31.3368 20.5563L27.79 27.7469L19.8556 28.9C19.6368 28.9313 19.4368 29.0344 19.2837 29.1906C19.0986 29.3809 18.9966 29.6369 19.0001 29.9023C19.0036 30.1678 19.1124 30.421 19.3025 30.6063L25.0431 36.2031L23.6868 44.1063C23.655 44.2901 23.6754 44.4792 23.7456 44.6521C23.8157 44.8249 23.933 44.9747 24.0839 45.0843C24.2349 45.194 24.4135 45.2591 24.5996 45.2724C24.7857 45.2856 24.9718 45.2465 25.1368 45.1594L32.2337 41.4281L39.3306 45.1594C39.5243 45.2625 39.7493 45.2969 39.965 45.2594C40.5087 45.1656 40.8743 44.65 40.7806 44.1063L39.4243 36.2031L45.165 30.6063C45.3212 30.4531 45.4243 30.2531 45.4556 30.0344C45.54 29.4875 45.1587 28.9813 44.6118 28.9Z" fill="white"/>
</svg>
