<svg width="64" height="64" viewBox="0 0 64 64" fill="none" xmlns="http://www.w3.org/2000/svg">
<rect width="64" height="64" rx="20" fill="#FCB601"/>
<path d="M39.4 46.0533C39.2766 46.1769 39.1301 46.275 38.9688 46.3419C38.8075 46.4088 38.6346 46.4433 38.46 46.4433C38.2854 46.4433 38.1125 46.4088 37.9512 46.3419C37.7899 46.275 37.6434 46.1769 37.52 46.0533L34.6933 43.2267C34.5699 43.1032 34.472 42.9567 34.4052 42.7954C34.3384 42.6341 34.304 42.4612 34.304 42.2867C34.304 42.1121 34.3384 41.9392 34.4052 41.7779C34.472 41.6167 34.5699 41.4701 34.6933 41.3467C34.9426 41.0974 35.2808 40.9573 35.6333 40.9573C35.8079 40.9573 35.9808 40.9917 36.1421 41.0585C36.3033 41.1253 36.4499 41.2232 36.5733 41.3467L38.4533 43.2267L43.1733 38.5067C43.2968 38.3832 43.4433 38.2853 43.6046 38.2185C43.7659 38.1517 43.9388 38.1173 44.1133 38.1173C44.2879 38.1173 44.4608 38.1517 44.6221 38.2185C44.7833 38.2853 44.9299 38.3832 45.0533 38.5067C45.1768 38.6301 45.2747 38.7767 45.3415 38.9379C45.4083 39.0992 45.4427 39.2721 45.4427 39.4467C45.4427 39.6212 45.4083 39.7941 45.3415 39.9554C45.2747 40.1167 45.1768 40.2632 45.0533 40.3867L39.4 46.0533V46.0533ZM31.44 44.3333H20.6667C19.2 44.3333 18 43.1333 18 41.6667V25.6667C18 24.2 19.2 23 20.6667 23H42C43.4667 23 44.6667 24.2 44.6667 25.6667V34.5733C43.2447 33.8969 41.6746 33.5914 40.1027 33.6855C38.5308 33.7796 37.0084 34.2702 35.6773 35.1114C34.3461 35.9527 33.2497 37.1173 32.4901 38.4967C31.7305 39.8761 31.3326 41.4253 31.3333 43C31.3333 43.4533 31.3733 43.8933 31.44 44.3333ZM30.6267 34.56C31.0533 34.8267 31.6133 34.8267 32.04 34.56L41.4667 28.6667C41.6004 28.5916 41.7174 28.4902 41.8108 28.3686C41.9042 28.247 41.9719 28.1077 42.0099 27.9592C42.0479 27.8106 42.0553 27.6559 42.0318 27.5044C42.0083 27.3529 41.9542 27.2078 41.873 27.0777C41.7917 26.9477 41.6849 26.8355 41.559 26.748C41.4332 26.6604 41.2908 26.5993 41.1407 26.5684C40.9905 26.5374 40.8356 26.5373 40.6854 26.5679C40.5352 26.5986 40.3927 26.6594 40.2667 26.7467L31.3333 32.3333L22.4 26.7467C22.274 26.6594 22.1315 26.5986 21.9813 26.5679C21.831 26.5373 21.6762 26.5374 21.526 26.5684C21.3758 26.5993 21.2335 26.6604 21.1076 26.748C20.9818 26.8355 20.875 26.9477 20.7937 27.0777C20.7124 27.2078 20.6584 27.3529 20.6349 27.5044C20.6113 27.6559 20.6188 27.8106 20.6568 27.9592C20.6947 28.1077 20.7625 28.247 20.8559 28.3686C20.9492 28.4902 21.0663 28.5916 21.2 28.6667L30.6267 34.56V34.56Z" fill="white"/>
</svg>
