<svg width="64" height="64" viewBox="0 0 64 64" fill="none" xmlns="http://www.w3.org/2000/svg">
<rect width="64" height="64" rx="20" fill="#C9272B"/>
<path fill-rule="evenodd" clip-rule="evenodd" d="M20.504 25.4864C20.0438 25.7741 19.6642 26.174 19.4011 26.6487C19.138 27.1234 19 27.6573 19 28.2V40.8272C19 41.6759 19.3371 42.4898 19.9373 43.0899C20.5374 43.6901 21.3513 44.0272 22.2 44.0272H41.4C42.2487 44.0272 43.0626 43.6901 43.6627 43.0899C44.2629 42.4898 44.6 41.6759 44.6 40.8272V28.2C44.6 27.6573 44.462 27.1234 44.1989 26.6487C43.9358 26.174 43.5562 25.7741 43.096 25.4864L33.496 19.4864C32.9874 19.1685 32.3997 19 31.8 19C31.2003 19 30.6126 19.1685 30.104 19.4864L20.504 25.4864ZM24.688 29.3632C24.5132 29.2466 24.3171 29.1656 24.111 29.1247C23.9048 29.0839 23.6927 29.084 23.4866 29.1252C23.2805 29.1664 23.0846 29.2477 22.91 29.3646C22.7353 29.4815 22.5854 29.6316 22.4688 29.8064C22.3522 29.9812 22.2711 30.1773 22.2303 30.3834C22.1895 30.5896 22.1896 30.8017 22.2308 31.0078C22.3139 31.424 22.5589 31.7901 22.912 32.0256L30.912 37.3584C31.1749 37.5338 31.4839 37.6274 31.8 37.6274C32.1161 37.6274 32.4251 37.5338 32.688 37.3584L40.688 32.0256C41.0411 31.7901 41.2861 31.424 41.3692 31.0078C41.4523 30.5916 41.3667 30.1595 41.1312 29.8064C40.8957 29.4534 40.5296 29.2083 40.1134 29.1252C39.6972 29.0421 39.2651 29.1277 38.912 29.3632L31.8 34.104L24.688 29.3632Z" fill="white"/>
</svg>
