<svg width="64" height="64" viewBox="0 0 64 64" fill="none" xmlns="http://www.w3.org/2000/svg">
<rect width="64" height="64" rx="20" fill="#007BFF"/>
<path d="M43.6953 22.2912C43.5604 22.1569 43.3899 22.0639 43.2039 22.0232C43.0179 21.9824 42.8241 21.9956 42.6453 22.0612L20.6454 30.0612C20.4556 30.1332 20.2923 30.2612 20.177 30.4282C20.0617 30.5952 20 30.7933 20 30.9962C20 31.1992 20.0617 31.3973 20.177 31.5643C20.2923 31.7313 20.4556 31.8593 20.6454 31.9312L29.2354 35.3612L35.5754 29.0012L36.9853 30.4112L30.6154 36.7812L34.0554 45.3712C34.1295 45.5573 34.2577 45.7168 34.4235 45.8292C34.5894 45.9415 34.7851 46.0014 34.9854 46.0012C35.1874 45.9971 35.3835 45.9318 35.5478 45.814C35.712 45.6962 35.8367 45.5313 35.9054 45.3412L43.9054 23.3412C43.9735 23.1643 43.9899 22.9717 43.9527 22.7858C43.9156 22.5999 43.8263 22.4283 43.6953 22.2912Z" fill="white"/>
</svg>
