<svg width="18" height="19" viewBox="0 0 18 19" fill="none" xmlns="http://www.w3.org/2000/svg">
<path d="M2.83725 2.6195L9 1.25L15.1627 2.6195C15.3293 2.65652 15.4782 2.74922 15.585 2.8823C15.6918 3.01538 15.75 3.18089 15.75 3.3515V10.8417C15.7499 11.5826 15.567 12.3119 15.2174 12.965C14.8678 13.6181 14.3624 14.1749 13.746 14.5858L9 17.75L4.254 14.5858C3.63771 14.1749 3.13235 13.6183 2.78276 12.9653C2.43318 12.3124 2.25018 11.5832 2.25 10.8425V3.3515C2.25003 3.18089 2.30823 3.01538 2.41499 2.8823C2.52176 2.74922 2.6707 2.65652 2.83725 2.6195ZM9 8.75C9.49728 8.75 9.97419 8.55246 10.3258 8.20083C10.6775 7.84919 10.875 7.37228 10.875 6.875C10.875 6.37772 10.6775 5.90081 10.3258 5.54917C9.97419 5.19754 9.49728 5 9 5C8.50272 5 8.02581 5.19754 7.67417 5.54917C7.32254 5.90081 7.125 6.37772 7.125 6.875C7.125 7.37228 7.32254 7.84919 7.67417 8.20083C8.02581 8.55246 8.50272 8.75 9 8.75ZM5.64525 12.5H12.3547C12.2638 11.6738 11.8712 10.9102 11.2522 10.3555C10.6331 9.80088 9.83119 9.49416 9 9.49416C8.16881 9.49416 7.36686 9.80088 6.74781 10.3555C6.12876 10.9102 5.73617 11.6738 5.64525 12.5Z" fill="#F16C6A"/>
</svg>
