<svg width="18" height="19" viewBox="0 0 18 19" fill="none" xmlns="http://www.w3.org/2000/svg">
<path d="M6.9375 10.25C6.9375 11.0788 6.26625 11.75 5.4375 11.75C4.60875 11.75 3.9375 11.0788 3.9375 10.25C3.9375 9.42125 4.60875 8.75 5.4375 8.75C6.26625 8.75 6.9375 9.42125 6.9375 10.25Z" fill="#0092FF"/>
<path fill-rule="evenodd" clip-rule="evenodd" d="M5.4375 11C5.63641 11 5.82718 10.921 5.96783 10.7803C6.10848 10.6397 6.1875 10.4489 6.1875 10.25C6.1875 10.0511 6.10848 9.86032 5.96783 9.71967C5.82718 9.57902 5.63641 9.5 5.4375 9.5C5.23859 9.5 5.04782 9.57902 4.90717 9.71967C4.76652 9.86032 4.6875 10.0511 4.6875 10.25C4.6875 10.4489 4.76652 10.6397 4.90717 10.7803C5.04782 10.921 5.23859 11 5.4375 11ZM5.4375 11.75C6.26625 11.75 6.9375 11.0788 6.9375 10.25C6.9375 9.42125 6.26625 8.75 5.4375 8.75C4.60875 8.75 3.9375 9.42125 3.9375 10.25C3.9375 11.0788 4.60875 11.75 5.4375 11.75Z" fill="#0092FF"/>
<path d="M2.25 14.2044C2.25 13.0711 4.37363 12.5 5.4375 12.5C6.50138 12.5 8.625 13.0711 8.625 14.2044V16.25H2.25V14.2044Z" fill="#0092FF"/>
<path fill-rule="evenodd" clip-rule="evenodd" d="M3.12525 13.9936C3.00675 14.1106 3 14.1778 3 14.2048V15.5H7.875V14.2044C7.875 14.1781 7.86825 14.1106 7.74975 13.9936C7.6245 13.8703 7.41787 13.7379 7.13475 13.6168C6.56475 13.3726 5.86875 13.25 5.4375 13.25C5.00625 13.25 4.30988 13.3726 3.74025 13.6168C3.45712 13.7379 3.2505 13.8703 3.12525 13.9936ZM5.4375 12.5C4.37363 12.5 2.25 13.0711 2.25 14.2044V16.25H8.625V14.2044C8.625 13.0711 6.50138 12.5 5.4375 12.5Z" fill="#0092FF"/>
<path d="M14.0625 10.25C14.0625 11.0788 13.3913 11.75 12.5625 11.75C11.7337 11.75 11.0625 11.0788 11.0625 10.25C11.0625 9.42125 11.7337 8.75 12.5625 8.75C13.3913 8.75 14.0625 9.42125 14.0625 10.25Z" fill="#0092FF"/>
<path fill-rule="evenodd" clip-rule="evenodd" d="M12.5625 11C12.7614 11 12.9522 10.921 13.0928 10.7803C13.2335 10.6397 13.3125 10.4489 13.3125 10.25C13.3125 10.0511 13.2335 9.86032 13.0928 9.71967C12.9522 9.57902 12.7614 9.5 12.5625 9.5C12.3636 9.5 12.1728 9.57902 12.0322 9.71967C11.8915 9.86032 11.8125 10.0511 11.8125 10.25C11.8125 10.4489 11.8915 10.6397 12.0322 10.7803C12.1728 10.921 12.3636 11 12.5625 11ZM12.5625 11.75C13.3913 11.75 14.0625 11.0788 14.0625 10.25C14.0625 9.42125 13.3913 8.75 12.5625 8.75C11.7337 8.75 11.0625 9.42125 11.0625 10.25C11.0625 11.0788 11.7337 11.75 12.5625 11.75Z" fill="#0092FF"/>
<path d="M10.5 9.5C10.5 10.3288 9.82875 11 9 11C8.17125 11 7.5 10.3288 7.5 9.5C7.5 8.67125 8.17125 8 9 8C9.82875 8 10.5 8.67125 10.5 9.5Z" fill="#0092FF"/>
<path fill-rule="evenodd" clip-rule="evenodd" d="M9 10.25C9.19891 10.25 9.38968 10.171 9.53033 10.0303C9.67098 9.88968 9.75 9.69891 9.75 9.5C9.75 9.30109 9.67098 9.11032 9.53033 8.96967C9.38968 8.82902 9.19891 8.75 9 8.75C8.80109 8.75 8.61032 8.82902 8.46967 8.96967C8.32902 9.11032 8.25 9.30109 8.25 9.5C8.25 9.69891 8.32902 9.88968 8.46967 10.0303C8.61032 10.171 8.80109 10.25 9 10.25ZM9 11C9.82875 11 10.5 10.3288 10.5 9.5C10.5 8.67125 9.82875 8 9 8C8.17125 8 7.5 8.67125 7.5 9.5C7.5 10.3288 8.17125 11 9 11Z" fill="#0092FF"/>
<path d="M8.62509 5.31238C8.62509 4.83171 8.43414 4.37072 8.09425 4.03083C7.75437 3.69095 7.29338 3.5 6.81271 3.5H5.62434C5.13261 3.49921 4.66027 3.6917 4.30916 4.03595C3.95804 4.38021 3.75628 4.84866 3.74738 5.34031C3.73847 5.83195 3.92314 6.3074 4.26155 6.66415C4.59997 7.0209 5.06503 7.23036 5.55646 7.24738L5.62509 7.25V8C5.62509 8 8.62509 7.56238 8.62509 5.31238Z" fill="#0092FF"/>
<path d="M9.75 4.7135C9.75 4.19275 9.95687 3.69332 10.3251 3.3251C10.6933 2.95687 11.1927 2.75 11.7135 2.75H13.875C14.3723 2.75 14.8492 2.94754 15.2008 3.29917C15.5525 3.65081 15.75 4.12772 15.75 4.625C15.75 5.12228 15.5525 5.59919 15.2008 5.95083C14.8492 6.30246 14.3723 6.5 13.875 6.5H13.125V7.625C13.125 7.625 9.75 7.151 9.75 4.7135Z" fill="#0092FF"/>
<path d="M9.375 14.2044C9.375 13.0711 11.4986 12.5 12.5625 12.5C13.6264 12.5 15.75 13.0711 15.75 14.2044V16.25H9.375V14.2044Z" fill="#0092FF"/>
<path fill-rule="evenodd" clip-rule="evenodd" d="M10.2502 13.9936C10.1317 14.1106 10.125 14.1778 10.125 14.2048V15.5H15V14.2044C15 14.1781 14.9933 14.1106 14.8748 13.9936C14.7495 13.8703 14.5429 13.7379 14.2598 13.6168C13.6898 13.3726 12.9938 13.25 12.5625 13.25C12.1312 13.25 11.4349 13.3726 10.8653 13.6168C10.5821 13.7379 10.3755 13.8703 10.2502 13.9936ZM12.5625 12.5C11.4986 12.5 9.375 13.0711 9.375 14.2044V16.25H15.75V14.2044C15.75 13.0711 13.6264 12.5 12.5625 12.5Z" fill="#0092FF"/>
<path fill-rule="evenodd" clip-rule="evenodd" d="M8.99992 13.625V13.4544C8.99992 12.8255 8.3073 12.3695 7.49805 12.0883C7.96768 11.8663 8.4805 11.7508 8.99992 11.75C9.51934 11.7508 10.0322 11.8663 10.5018 12.0883C9.69292 12.3695 8.99992 12.8255 8.99992 13.4544V13.625Z" fill="#0092FF"/>
<path fill-rule="evenodd" clip-rule="evenodd" d="M8.99992 13.625V13.4544C8.99992 13.1195 9.19642 12.8334 9.50242 12.5968C9.51997 12.5834 9.53772 12.5702 9.55567 12.5574C9.81667 12.3676 10.1482 12.2113 10.5018 12.0886C10.1506 11.923 9.77459 11.816 9.3888 11.7718C9.13048 11.7427 8.86974 11.7427 8.61142 11.7718C8.22552 11.8158 7.84943 11.9227 7.49805 12.0883C7.85167 12.2113 8.18317 12.3676 8.44455 12.557C8.46255 12.5701 8.4798 12.5833 8.49705 12.5968C8.80342 12.833 8.99992 13.1195 8.99992 13.4544V13.625Z" fill="#0092FF"/>
</svg>
