<svg width="18" height="19" viewBox="0 0 18 19" fill="none" xmlns="http://www.w3.org/2000/svg">
<path fill-rule="evenodd" clip-rule="evenodd" d="M4.125 7.25C3.92609 7.25 3.73532 7.32902 3.59467 7.46967C3.45402 7.61032 3.375 7.80109 3.375 8V15.5C3.375 15.6989 3.45402 15.8897 3.59467 16.0303C3.73532 16.171 3.92609 16.25 4.125 16.25H13.875C14.0739 16.25 14.2647 16.171 14.4053 16.0303C14.546 15.8897 14.625 15.6989 14.625 15.5V8C14.625 7.80109 14.546 7.61032 14.4053 7.46967C14.2647 7.32902 14.0739 7.25 13.875 7.25H4.125ZM5.625 10.25H12.375V9.5H5.625V10.25ZM12.375 12.125H5.625V11.375H12.375V12.125ZM5.625 14H12.375V13.25H5.625V14Z" fill="#ED1C24"/>
<path fill-rule="evenodd" clip-rule="evenodd" d="M11.25 7.25V6.5C11.25 5.90326 11.0129 5.33097 10.591 4.90901C10.169 4.48705 9.59674 4.25 9 4.25C8.40326 4.25 7.83097 4.48705 7.40901 4.90901C6.98705 5.33097 6.75 5.90326 6.75 6.5V7.25H11.25ZM9 2.75C6.92888 2.75 5.25 4.42888 5.25 6.5V8.75H12.75V6.5C12.75 4.42888 11.0711 2.75 9 2.75Z" fill="#ED1C24"/>
</svg>
