<svg width="18" height="19" viewBox="0 0 18 19" fill="none" xmlns="http://www.w3.org/2000/svg">
<path d="M9.75 6.15375C10.3875 5.92875 10.8975 5.41875 11.1225 4.78125H13.5L11.25 10.0312C11.25 11.2762 12.4275 12.2812 13.875 12.2812C15.3225 12.2812 16.5 11.2762 16.5 10.0312L14.25 4.78125H15.75V3.28125H11.1225C10.815 2.40375 9.9825 1.78125 9 1.78125C8.0175 1.78125 7.185 2.40375 6.8775 3.28125H2.25V4.78125H3.75L1.5 10.0312C1.5 11.2762 2.6775 12.2812 4.125 12.2812C5.5725 12.2812 6.75 11.2762 6.75 10.0312L4.5 4.78125H6.8775C7.1025 5.41875 7.6125 5.92875 8.25 6.15375V14.5312H1.5V16.0312H16.5V14.5312H9.75V6.15375ZM15.2775 10.0312H12.4725L13.875 6.76125L15.2775 10.0312ZM5.5275 10.0312H2.7225L4.125 6.76125L5.5275 10.0312ZM9 4.78125C8.5875 4.78125 8.25 4.44375 8.25 4.03125C8.25 3.61875 8.5875 3.28125 9 3.28125C9.4125 3.28125 9.75 3.61875 9.75 4.03125C9.75 4.44375 9.4125 4.78125 9 4.78125Z" fill="#16DB93"/>
</svg>
