<svg width="18" height="18" viewBox="0 0 18 18" fill="none" xmlns="http://www.w3.org/2000/svg">
<g clip-path="url(#clip0_332_10)">
<path d="M16.4412 2.53304C15.4018 1.50776 14.0393 0.995117 12.6831 0.995117C11.3523 0.995117 10.0278 1.48275 9.00112 2.46427C7.9808 1.48275 6.64996 0.995117 5.31911 0.995117C3.95658 0.995117 2.59405 1.50776 1.55472 2.53304C-0.492247 4.55859 -0.517597 7.82199 1.47867 9.87255C1.50402 9.90381 1.52937 9.92882 1.55472 9.95382L2.28352 10.6728L8.70326 16.9995L8.91873 17.2121C8.93141 17.2246 8.94408 17.2371 8.95676 17.2433C8.96943 17.2558 8.9821 17.2683 9.00112 17.2808C9.02647 17.2621 9.05182 17.2371 9.07716 17.2121L15.6934 10.6853L16.4412 9.95382C16.4665 9.92882 16.4919 9.90381 16.5172 9.87255C18.5198 7.82199 18.4945 4.55859 16.4412 2.53304ZM14.8758 11.4542L11.7769 14.4738V14.4801L9.1849 16.9995H9.17856C9.05182 16.987 8.92507 16.9745 8.79832 16.9432L3.22145 11.4417C3.18342 11.2354 3.15807 11.0416 3.15173 10.8416V5.80269C3.15173 5.80269 4.98323 5.15251 5.21771 8.5847L5.35714 8.44716L8.96309 4.9337C9.29897 4.60236 9.84398 4.60861 10.1799 4.93995C10.3446 5.10249 10.427 5.3213 10.427 5.53386C10.427 5.75267 10.3383 5.97148 10.1672 6.14028L7.34073 8.89728C7.52451 8.9723 7.7083 9.06608 7.89208 9.16611L12.1381 5.03372C12.474 4.70238 13.019 4.70238 13.3549 5.03998C13.5197 5.20252 13.602 5.42133 13.602 5.64014C13.602 5.85895 13.5197 6.07776 13.3485 6.24031L9.30531 10.1789C9.43206 10.2852 9.5588 10.4039 9.68555 10.529L9.71724 10.5602C9.75526 10.5978 9.78695 10.629 9.81864 10.6665L13.0951 7.47189C13.4309 7.1468 13.9823 7.1468 14.3182 7.4844C14.4829 7.64694 14.5653 7.86575 14.5653 8.07831C14.5653 8.29712 14.4829 8.51593 14.3118 8.68473L10.8896 12.0169C11.0164 12.2169 11.1241 12.417 11.2319 12.6171L13.6654 10.2414C14.0076 9.91631 14.5526 9.91631 14.8822 10.2539C15.047 10.4165 15.1293 10.6353 15.1293 10.8541C15.1293 11.0666 15.047 11.2854 14.8758 11.4542Z" fill="#FDBB30"/>
</g>
<defs>
<clipPath id="clip0_332_10">
<rect width="18" height="16.2857" fill="white" transform="translate(0 0.995117)"/>
</clipPath>
</defs>
</svg>
