<svg width="33" height="32" viewBox="0 0 33 32" fill="none" xmlns="http://www.w3.org/2000/svg">
<path d="M17.6564 21.3666L22.4564 16.5666C22.5309 16.4923 22.59 16.404 22.6303 16.3068C22.6707 16.2096 22.6914 16.1054 22.6914 16.0002C22.6914 15.895 22.6707 15.7908 22.6303 15.6936C22.59 15.5964 22.5309 15.5081 22.4564 15.4338L17.6564 10.6338C17.5062 10.4836 17.3024 10.3992 17.09 10.3992C16.8775 10.3992 16.6738 10.4836 16.5236 10.6338C16.3734 10.784 16.289 10.9878 16.289 11.2002C16.289 11.4126 16.3734 11.6164 16.5236 11.7666L19.9588 15.2002H10.69C10.4778 15.2002 10.2743 15.2845 10.1243 15.4345C9.97428 15.5845 9.88999 15.788 9.88999 16.0002C9.88999 16.2124 9.97428 16.4159 10.1243 16.5659C10.2743 16.7159 10.4778 16.8002 10.69 16.8002H19.9588L16.5236 20.2338C16.3734 20.384 16.289 20.5878 16.289 20.8002C16.289 21.0126 16.3734 21.2164 16.5236 21.3666C16.6738 21.5168 16.8775 21.6012 17.09 21.6012C17.3024 21.6012 17.5062 21.5168 17.6564 21.3666V21.3666ZM29.09 16.0002C29.09 19.395 27.7414 22.6507 25.341 25.0512C22.9405 27.4516 19.6848 28.8002 16.29 28.8002C12.8952 28.8002 9.63949 27.4516 7.23902 25.0512C4.83856 22.6507 3.48999 19.395 3.48999 16.0002C3.48999 12.6054 4.83856 9.34969 7.23902 6.94923C9.63949 4.54876 12.8952 3.2002 16.29 3.2002C19.6848 3.2002 22.9405 4.54876 25.341 6.94923C27.7414 9.34969 29.09 12.6054 29.09 16.0002V16.0002ZM16.29 27.2002C17.7608 27.2002 19.2172 26.9105 20.576 26.3476C21.9349 25.7848 23.1696 24.9598 24.2096 23.9198C25.2496 22.8798 26.0746 21.6451 26.6374 20.2862C27.2003 18.9274 27.49 17.471 27.49 16.0002C27.49 14.5294 27.2003 13.073 26.6374 11.7141C26.0746 10.3553 25.2496 9.12062 24.2096 8.0806C23.1696 7.04058 21.9349 6.2156 20.576 5.65274C19.2172 5.08989 17.7608 4.8002 16.29 4.8002C13.3196 4.8002 10.4708 5.98019 8.37039 8.0806C6.26999 10.181 5.08999 13.0298 5.08999 16.0002C5.08999 18.9706 6.26999 21.8194 8.37039 23.9198C10.4708 26.0202 13.3196 27.2002 16.29 27.2002V27.2002Z" fill="#C9D7EA"/>
</svg>
