<svg width="33" height="32" viewBox="0 0 33 32" fill="none" xmlns="http://www.w3.org/2000/svg">
<path d="M16.2901 2.66797C23.6555 2.66797 29.6235 8.6373 29.6235 16.0013C29.6235 23.3653 23.6555 29.3346 16.2901 29.3346C8.92745 29.3346 2.95679 23.3653 2.95679 16.0013C2.95679 8.6373 8.92745 2.66797 16.2901 2.66797ZM17.3315 9.95997L17.2195 9.86264C17.0494 9.73674 16.8439 9.66801 16.6323 9.66634C16.4208 9.66466 16.2141 9.73012 16.0421 9.8533L15.9168 9.95997L15.8208 10.072C15.6949 10.242 15.6262 10.4476 15.6245 10.6591C15.6228 10.8707 15.6883 11.0773 15.8115 11.2493L15.9181 11.3746L19.5435 15.0013H10.6235L10.4875 15.0093C10.2711 15.0391 10.0704 15.1388 9.91602 15.2934C9.76168 15.448 9.66221 15.6489 9.63279 15.8653L9.62345 16L9.63279 16.136C9.66247 16.3522 9.76207 16.5527 9.91638 16.707C10.0707 16.8614 10.2713 16.9609 10.4875 16.9906L10.6235 17H19.5435L15.9168 20.6266L15.8195 20.74C15.675 20.9325 15.6049 21.1707 15.622 21.4109C15.639 21.651 15.7421 21.8769 15.9123 22.0471C16.0826 22.2173 16.3085 22.3204 16.5486 22.3375C16.7887 22.3545 17.0269 22.2844 17.2195 22.14L17.3301 22.0426L22.6661 16.7093L22.7621 16.596C22.8879 16.4262 22.9567 16.221 22.9586 16.0097C22.9605 15.7984 22.8955 15.592 22.7728 15.42L22.6661 15.2946L17.3328 9.95997L17.2195 9.86264L17.3315 9.95997Z" fill="#020A13"/>
</svg>
