<svg width="12" height="16" viewBox="0 0 12 16" fill="none" xmlns="http://www.w3.org/2000/svg">
<path d="M5.74961 4.85078V0.800781H1.69961C1.34157 0.800781 0.998189 0.943013 0.745015 1.19619C0.491841 1.44936 0.349609 1.79274 0.349609 2.15078V13.8508C0.349609 14.2088 0.491841 14.5522 0.745015 14.8054C0.998189 15.0585 1.34157 15.2008 1.69961 15.2008H9.79961C10.1577 15.2008 10.501 15.0585 10.7542 14.8054C11.0074 14.5522 11.1496 14.2088 11.1496 13.8508V6.20078H7.09961C6.74157 6.20078 6.39819 6.05855 6.14501 5.80538C5.89184 5.5522 5.74961 5.20882 5.74961 4.85078ZM2.14961 8.45078C2.14961 8.33143 2.19702 8.21697 2.28141 8.13258C2.3658 8.04819 2.48026 8.00078 2.59961 8.00078C2.71896 8.00078 2.83342 8.04819 2.91781 8.13258C3.0022 8.21697 3.04961 8.33143 3.04961 8.45078C3.04961 8.57013 3.0022 8.68459 2.91781 8.76898C2.83342 8.85337 2.71896 8.90078 2.59961 8.90078C2.48026 8.90078 2.3658 8.85337 2.28141 8.76898C2.19702 8.68459 2.14961 8.57013 2.14961 8.45078ZM2.14961 10.2508C2.14961 10.1314 2.19702 10.017 2.28141 9.93258C2.3658 9.84819 2.48026 9.80078 2.59961 9.80078C2.71896 9.80078 2.83342 9.84819 2.91781 9.93258C3.0022 10.017 3.04961 10.1314 3.04961 10.2508C3.04961 10.3701 3.0022 10.4846 2.91781 10.569C2.83342 10.6534 2.71896 10.7008 2.59961 10.7008C2.48026 10.7008 2.3658 10.6534 2.28141 10.569C2.19702 10.4846 2.14961 10.3701 2.14961 10.2508ZM2.14961 12.0508C2.14961 11.9314 2.19702 11.817 2.28141 11.7326C2.3658 11.6482 2.48026 11.6008 2.59961 11.6008C2.71896 11.6008 2.83342 11.6482 2.91781 11.7326C3.0022 11.817 3.04961 11.9314 3.04961 12.0508C3.04961 12.1701 3.0022 12.2846 2.91781 12.369C2.83342 12.4534 2.71896 12.5008 2.59961 12.5008C2.48026 12.5008 2.3658 12.4534 2.28141 12.369C2.19702 12.2846 2.14961 12.1701 2.14961 12.0508ZM3.94961 8.45078C3.94961 8.33143 3.99702 8.21697 4.08141 8.13258C4.1658 8.04819 4.28026 8.00078 4.39961 8.00078H8.89961C9.01896 8.00078 9.13342 8.04819 9.21781 8.13258C9.3022 8.21697 9.34961 8.33143 9.34961 8.45078C9.34961 8.57013 9.3022 8.68459 9.21781 8.76898C9.13342 8.85337 9.01896 8.90078 8.89961 8.90078H4.39961C4.28026 8.90078 4.1658 8.85337 4.08141 8.76898C3.99702 8.68459 3.94961 8.57013 3.94961 8.45078ZM3.94961 10.2508C3.94961 10.1314 3.99702 10.017 4.08141 9.93258C4.1658 9.84819 4.28026 9.80078 4.39961 9.80078H8.89961C9.01896 9.80078 9.13342 9.84819 9.21781 9.93258C9.3022 10.017 9.34961 10.1314 9.34961 10.2508C9.34961 10.3701 9.3022 10.4846 9.21781 10.569C9.13342 10.6534 9.01896 10.7008 8.89961 10.7008H4.39961C4.28026 10.7008 4.1658 10.6534 4.08141 10.569C3.99702 10.4846 3.94961 10.3701 3.94961 10.2508ZM3.94961 12.0508C3.94961 11.9314 3.99702 11.817 4.08141 11.7326C4.1658 11.6482 4.28026 11.6008 4.39961 11.6008H8.89961C9.01896 11.6008 9.13342 11.6482 9.21781 11.7326C9.3022 11.817 9.34961 11.9314 9.34961 12.0508C9.34961 12.1701 9.3022 12.2846 9.21781 12.369C9.13342 12.4534 9.01896 12.5008 8.89961 12.5008H4.39961C4.28026 12.5008 4.1658 12.4534 4.08141 12.369C3.99702 12.2846 3.94961 12.1701 3.94961 12.0508ZM6.64961 4.85078V1.02578L10.9246 5.30078H7.09961C6.98026 5.30078 6.8658 5.25337 6.78141 5.16898C6.69702 5.08459 6.64961 4.97013 6.64961 4.85078Z" fill="#020A13"/>
</svg>
