<svg width="18" height="19" viewBox="0 0 18 19" fill="none" xmlns="http://www.w3.org/2000/svg">
<path d="M15 17.4414H3C2.80109 17.4414 2.61032 17.3624 2.46967 17.2217C2.32902 17.0811 2.25 16.8903 2.25 16.6914V3.19141C2.25 2.99249 2.32902 2.80173 2.46967 2.66108C2.61032 2.52042 2.80109 2.44141 3 2.44141H15C15.1989 2.44141 15.3897 2.52042 15.5303 2.66108C15.671 2.80173 15.75 2.99249 15.75 3.19141V16.6914C15.75 16.8903 15.671 17.0811 15.5303 17.2217C15.3897 17.3624 15.1989 17.4414 15 17.4414ZM5.25 5.44141V8.44141H8.25V5.44141H5.25ZM5.25 9.94141V11.4414H12.75V9.94141H5.25ZM5.25 12.9414V14.4414H12.75V12.9414H5.25ZM9.75 6.19141V7.69141H12.75V6.19141H9.75Z" fill="#020A13"/>
</svg>
