<svg width="19" height="19" viewBox="0 0 19 19" fill="none" xmlns="http://www.w3.org/2000/svg">
<path d="M14.8525 2.30078H4.35254C3.95471 2.30078 3.57318 2.45882 3.29188 2.74012C3.01057 3.02143 2.85254 3.40296 2.85254 3.80078V14.3008C2.85254 15.1258 3.52754 15.8008 4.35254 15.8008H7.35254L9.07004 17.5183C9.36254 17.8108 9.83504 17.8108 10.1275 17.5183L11.8525 15.8008H14.8525C15.6775 15.8008 16.3525 15.1258 16.3525 14.3008V3.80078C16.3525 2.97578 15.6775 2.30078 14.8525 2.30078ZM10.3525 14.3008H8.85254V12.8008H10.3525V14.3008ZM11.905 8.48828L11.23 9.17828C10.795 9.62078 10.4875 10.0033 10.39 10.7233C10.345 11.0458 10.0825 11.2933 9.75254 11.2933H9.52004C9.42783 11.2931 9.33673 11.2732 9.25289 11.2348C9.16904 11.1965 9.09439 11.1406 9.03397 11.0709C8.97356 11.0012 8.92878 10.9194 8.90266 10.831C8.87653 10.7426 8.86967 10.6496 8.88254 10.5583C8.96504 9.87578 9.28004 9.26828 9.73754 8.80328L10.6675 7.85828C10.9375 7.58828 11.1025 7.21328 11.1025 6.80078C11.1025 5.97578 10.4275 5.30078 9.60254 5.30078C8.95004 5.30078 8.38754 5.72828 8.18504 6.31328C8.08754 6.59078 7.85504 6.79328 7.56254 6.79328H7.33754C6.90254 6.79328 6.60254 6.37328 6.72254 5.95328C6.92692 5.26149 7.37362 4.66644 7.98086 4.27705C8.58809 3.88767 9.31525 3.73 10.0292 3.83291C10.7432 3.93582 11.3962 4.29242 11.8688 4.83743C12.3414 5.38245 12.6018 6.07942 12.6025 6.80078C12.6025 7.46078 12.3325 8.06078 11.905 8.48828Z" fill="#020A13"/>
</svg>
