<svg width="19" height="19" viewBox="0 0 19 19" fill="none" xmlns="http://www.w3.org/2000/svg">
<path fill-rule="evenodd" clip-rule="evenodd" d="M16.8023 9.44219C16.8023 11.3517 16.0438 13.1831 14.6935 14.5334C13.3433 15.8836 11.5119 16.6422 9.60234 16.6422C7.69278 16.6422 5.86144 15.8836 4.51117 14.5334C3.16091 13.1831 2.40234 11.3517 2.40234 9.44219C2.40234 7.53263 3.16091 5.70128 4.51117 4.35102C5.86144 3.00076 7.69278 2.24219 9.60234 2.24219C11.5119 2.24219 13.3433 3.00076 14.6935 4.35102C16.0438 5.70128 16.8023 7.53263 16.8023 9.44219ZM15.0023 9.44219C15.0023 10.3359 14.7854 11.1783 14.4011 11.9208L13.0295 10.5483C13.2349 9.91261 13.2592 9.2323 13.0997 8.58359L14.5055 7.17779C14.8241 7.86629 15.0023 8.63219 15.0023 9.44219ZM10.3538 12.9639L11.7758 14.3859C11.0909 14.6874 10.3507 14.8428 9.60234 14.8422C8.8204 14.8432 8.04766 14.6736 7.33794 14.3454L8.74374 12.9396C9.27175 13.069 9.82218 13.0773 10.3538 12.9639ZM6.14454 10.4475C5.96743 9.83765 5.9547 9.19183 6.10764 8.57549L6.03564 8.64749L4.65864 7.26779C4.35697 7.95296 4.20156 8.69354 4.20234 9.44219C4.20234 10.3008 4.40304 11.1126 4.75944 11.8335L6.14544 10.4475H6.14454ZM7.12374 4.64249C7.88984 4.2465 8.73996 4.04061 9.60234 4.04219C10.4609 4.04219 11.2727 4.24289 11.9936 4.59929L10.6076 5.98529C9.91668 5.78403 9.18127 5.79437 8.49624 6.01499L7.12374 4.64339V4.64249ZM11.4023 9.44219C11.4023 9.91958 11.2127 10.3774 10.8751 10.715C10.5376 11.0525 10.0797 11.2422 9.60234 11.2422C9.12495 11.2422 8.66712 11.0525 8.32955 10.715C7.99199 10.3774 7.80234 9.91958 7.80234 9.44219C7.80234 8.9648 7.99199 8.50696 8.32955 8.1694C8.66712 7.83183 9.12495 7.64219 9.60234 7.64219C10.0797 7.64219 10.5376 7.83183 10.8751 8.1694C11.2127 8.50696 11.4023 8.9648 11.4023 9.44219Z" fill="#020A13"/>
</svg>
