<svg width="19" height="19" viewBox="0 0 19 19" fill="none" xmlns="http://www.w3.org/2000/svg">
<path fill-rule="evenodd" clip-rule="evenodd" d="M6.2679 3.06445C6.07304 3.06445 5.88617 3.14186 5.74839 3.27964C5.61061 3.41742 5.5332 3.60429 5.5332 3.79915V15.5542C5.5332 15.7491 5.61061 15.936 5.74839 16.0738C5.88617 16.2115 6.07304 16.2889 6.2679 16.2889H12.8801C13.075 16.2889 13.2619 16.2115 13.3996 16.0738C13.5374 15.936 13.6148 15.7491 13.6148 15.5542V3.79915C13.6148 3.60429 13.5374 3.41742 13.3996 3.27964C13.2619 3.14186 13.075 3.06445 12.8801 3.06445H6.2679ZM9.20667 4.90119C9.20667 4.80376 9.24537 4.71033 9.31427 4.64143C9.38316 4.57254 9.47659 4.53384 9.57402 4.53384C9.67145 4.53384 9.76488 4.57254 9.83377 4.64143C9.90266 4.71033 9.94137 4.80376 9.94137 4.90119V6.37058C9.94137 6.468 9.90266 6.56144 9.83377 6.63033C9.76488 6.69922 9.67145 6.73792 9.57402 6.73792C9.47659 6.73792 9.38316 6.69922 9.31427 6.63033C9.24537 6.56144 9.20667 6.468 9.20667 6.37058V4.90119ZM9.20667 8.942C9.20667 8.84458 9.24537 8.75114 9.31427 8.68225C9.38316 8.61336 9.47659 8.57466 9.57402 8.57466C9.67145 8.57466 9.76488 8.61336 9.83377 8.68225C9.90266 8.75114 9.94137 8.84458 9.94137 8.942V10.4114C9.94137 10.5088 9.90266 10.6023 9.83377 10.6711C9.76488 10.74 9.67145 10.7787 9.57402 10.7787C9.47659 10.7787 9.38316 10.74 9.31427 10.6711C9.24537 10.6023 9.20667 10.5088 9.20667 10.4114V8.942ZM9.57402 12.6155C9.47659 12.6155 9.38316 12.6542 9.31427 12.7231C9.24537 12.792 9.20667 12.8854 9.20667 12.9828V14.4522C9.20667 14.5496 9.24537 14.6431 9.31427 14.712C9.38316 14.7809 9.47659 14.8196 9.57402 14.8196C9.67145 14.8196 9.76488 14.7809 9.83377 14.712C9.90266 14.6431 9.94137 14.5496 9.94137 14.4522V12.9828C9.94137 12.8854 9.90266 12.792 9.83377 12.7231C9.76488 12.6542 9.67145 12.6155 9.57402 12.6155Z" fill="#020A13"/>
</svg>
