<svg width="19" height="18" viewBox="0 0 19 18" fill="none" xmlns="http://www.w3.org/2000/svg">
<path d="M4.35352 2.69922C3.75678 2.69922 3.18448 2.93627 2.76253 3.35823C2.34057 3.78019 2.10352 4.35248 2.10352 4.94922V11.2492C2.10352 11.846 2.34057 12.4183 2.76253 12.8402C3.18448 13.2622 3.75678 13.4992 4.35352 13.4992H12.4535C13.0503 13.4992 13.6225 13.2622 14.0445 12.8402C14.4665 12.4183 14.7035 11.846 14.7035 11.2492V4.94922C14.7035 4.35248 14.4665 3.78019 14.0445 3.35823C13.6225 2.93627 13.0503 2.69922 12.4535 2.69922H4.35352ZM6.60352 6.07962C6.60363 5.95704 6.63712 5.8368 6.70039 5.73182C6.76367 5.62683 6.85434 5.54105 6.96267 5.4837C7.071 5.42634 7.19291 5.39956 7.3153 5.40624C7.4377 5.41293 7.55597 5.45281 7.65741 5.52162L10.9064 7.72752C10.9672 7.76871 11.0169 7.82413 11.0513 7.88895C11.0857 7.95378 11.1038 8.02604 11.1039 8.09943C11.104 8.17282 11.0861 8.24513 11.0518 8.31003C11.0176 8.37494 10.968 8.43048 10.9073 8.47182L7.65832 10.684C7.55686 10.7531 7.4385 10.7932 7.31597 10.8C7.19343 10.8068 7.07136 10.78 6.96288 10.7227C6.8544 10.6653 6.76362 10.5794 6.7003 10.4743C6.63698 10.3691 6.60352 10.2487 6.60352 10.126V6.07962ZM6.15352 15.2992C5.80416 15.2995 5.45956 15.2183 5.14709 15.0621C4.83463 14.9058 4.5629 14.6789 4.35352 14.3992H12.9035C13.6196 14.3992 14.3064 14.1148 14.8127 13.6084C15.3191 13.1021 15.6035 12.4153 15.6035 11.6992V4.94922C16.1498 5.35962 16.5035 6.01302 16.5035 6.74922V11.6992C16.5035 12.654 16.1242 13.5697 15.4491 14.2448C14.774 14.9199 13.8583 15.2992 12.9035 15.2992H6.15352Z" fill="#091929"/>
</svg>
