<svg width="13" height="16" viewBox="0 0 13 16" fill="none" xmlns="http://www.w3.org/2000/svg">
<path d="M5.74961 4.90937V0.859375H1.69961C1.34157 0.859375 0.998189 1.00161 0.745015 1.25478C0.491841 1.50795 0.349609 1.85133 0.349609 2.20937V13.9094C0.349609 14.2674 0.491841 14.6108 0.745015 14.864C0.998189 15.1171 1.34157 15.2594 1.69961 15.2594H4.14851C3.95951 14.9084 3.89201 14.4854 4.00091 14.0471L4.33841 12.6989C4.46441 12.1931 4.72541 11.7314 5.09441 11.3624L9.44141 7.01538C9.89662 6.55968 10.5061 6.29122 11.1496 6.26297V6.25937H7.09961C6.74157 6.25937 6.39819 6.11714 6.14501 5.86397C5.89184 5.6108 5.74961 5.26742 5.74961 4.90937ZM6.64961 4.90937V1.08437L10.9246 5.35938H7.09961C6.98026 5.35938 6.8658 5.31196 6.78141 5.22757C6.69702 5.14318 6.64961 5.02872 6.64961 4.90937ZM12.4582 7.65258C12.3019 7.49624 12.1164 7.37222 11.9121 7.28761C11.7079 7.203 11.489 7.15945 11.268 7.15945C11.0469 7.15945 10.828 7.203 10.6238 7.28761C10.4196 7.37222 10.234 7.49624 10.0777 7.65258L5.73071 11.9996C5.47769 12.2529 5.2982 12.5702 5.21141 12.9176L4.87391 14.2658C4.84063 14.3999 4.84259 14.5403 4.87961 14.6734C4.91663 14.8065 4.98745 14.9278 5.08519 15.0254C5.18292 15.123 5.30426 15.1938 5.4374 15.2307C5.57053 15.2675 5.71095 15.2694 5.84501 15.236L7.19321 14.8994C7.54061 14.8121 7.85831 14.633 8.11121 14.3792L12.4582 10.0322C12.7737 9.71657 12.9509 9.28861 12.9509 8.84237C12.9509 8.39614 12.7737 7.96818 12.4582 7.65258Z" fill="#020A13"/>
</svg>
