<svg width="202" height="187" viewBox="0 0 202 187" fill="none" xmlns="http://www.w3.org/2000/svg">
<g clip-path="url(#clip0)">
<path d="M27.5802 177.077C27.5802 177.559 27.5309 178.096 27.5802 178.525C27.679 178.954 27.9259 179.276 28.1235 179.705C28.5185 179.383 29.1111 179.169 29.2593 178.739C29.4568 178.042 29.358 177.238 29.4074 176.487C29.4568 175.736 29.6049 174.931 29.5062 174.18C29.4568 173.805 29.0617 173.375 28.8148 173C28.5185 173.268 27.9753 173.536 27.9259 173.858C27.679 174.931 27.6296 176.004 27.5802 177.077C27.5309 177.023 27.5309 177.023 27.5802 177.077Z" fill="black"/>
<path d="M27.037 185.284C27.037 185.552 26.8889 185.874 26.9877 186.088C27.1358 186.464 27.3827 186.947 27.6296 187C27.8766 187.054 28.4198 186.625 28.4691 186.357C28.6667 185.23 28.7654 184.05 28.7654 182.924C28.7654 182.602 28.2222 182.334 27.9259 182.012C27.7284 182.334 27.3827 182.602 27.284 182.977C27.1852 183.728 27.1358 184.533 27.037 185.284Z" fill="black"/>
<path d="M33.3584 182.333C33.4571 182.28 33.9016 182.119 34.0004 181.851C34.0497 181.582 33.8522 180.885 33.6547 180.831C32.4695 180.563 31.2843 180.402 30.0991 180.349C29.951 180.349 29.6053 180.939 29.6547 181.153C29.7534 181.475 30.0497 181.851 30.346 181.958C31.2349 182.119 32.1732 182.172 33.3584 182.333Z" fill="black"/>
<path d="M23.7284 179.49C23.1358 179.812 22 180.188 22 180.509C22.0494 181.689 23.1358 181.421 23.8271 181.529C24.5185 181.636 25.2592 181.475 25.9506 181.368C26.1481 181.314 26.3951 180.885 26.3951 180.67C26.3951 180.456 26.0494 180.188 25.8025 180.134C25.1605 179.973 24.5185 179.919 23.8765 179.812C23.8271 179.651 23.7778 179.598 23.7284 179.49Z" fill="black"/>
</g>
<g clip-path="url(#clip1)">
<path d="M172.5 144.5C173.3 148.1 185.833 163.667 192 171C192 181 149 186.5 129.5 189.5C110 192.5 89.5 182.5 86 179.5C82.5 176.5 69 158.5 75.5 156C82 153.5 100 171 103.5 171C107 171 116.5 156.5 121 139.5C125.5 122.5 145.5 119 152.5 119C159.5 119 171.5 140 172.5 144.5Z" fill="#007BFF"/>
<path d="M137.909 25.0001C136.124 25.8214 134.318 26.6428 132.532 27.4846C125.555 30.8521 119.316 35.3078 113.262 40.0716C109.671 42.9052 105.915 45.5745 101.585 47.2172C98.0345 48.5724 94.3816 49.5374 90.5439 49.7017C89.7846 49.7428 89.3331 49.599 89.1895 48.7572C89.1074 48.326 88.9022 47.9153 88.6559 47.5457C88.2865 46.9913 87.8145 46.5601 87.0346 46.8886C86.4395 47.135 86.1317 46.9092 85.9675 46.2521C85.8238 45.6566 85.5571 45.1022 85.2697 44.5478C85.0645 44.1577 84.8183 43.6854 84.2847 43.8292C83.6895 43.9934 83.7921 44.5889 83.9563 44.9585C84.4694 46.1289 83.2586 46.0673 82.8892 46.6012C82.2119 45.9852 81.6989 46.786 81.0832 46.827C80.5291 46.8476 80.0366 47.1966 79.4004 46.9092C78.9284 46.7038 78.5795 47.1761 78.4769 47.6484C78.3743 48.0796 78.2306 48.3465 77.7791 48.367C77.1635 48.4081 76.9788 48.8188 77.0198 49.3526C77.1224 51.3854 77.4097 53.3566 78.559 55.1225C78.9284 55.6974 79.2773 55.9644 80.0366 55.7796C81.5963 55.4305 81.5963 55.5126 82.0272 56.991C82.294 57.9356 82.6019 58.8801 82.9507 59.8246C83.1149 60.2764 83.1354 60.5638 82.6429 60.8102C82.3351 60.9745 82.1504 61.3646 81.863 61.611C81.4526 61.9601 81.391 62.227 81.9862 62.3502C82.294 62.4118 82.3556 62.6377 82.4377 62.843C83.9358 66.806 86.5216 70.194 88.3481 73.9721C89.0458 75.4094 89.7436 76.8263 90.5234 78.4279C88.9637 77.6681 87.8966 76.6004 86.8705 75.5326C85.4955 74.0953 84.0795 72.6785 82.4992 71.5081C81.0216 70.3788 79.4209 69.3521 77.697 68.6129C75.3165 67.5862 72.9154 66.5801 70.3706 65.9846C68.4826 65.5534 68.4826 65.5124 68.5852 63.6438C68.6878 61.6932 68.852 59.763 68.9546 57.8124C68.9751 57.3812 69.1803 57.2169 69.5087 57.0526C71.0684 56.3134 72.0534 55.0198 72.8538 53.562C73.059 53.1924 73.1411 52.9665 73.6542 53.1924C74.6598 53.6236 75.5012 53.295 76.1374 52.3916C76.7325 51.5292 76.6915 50.5846 75.9527 49.7633C75.5833 49.3526 75.1523 48.9625 74.5982 48.8804C74.0236 48.7777 73.8389 48.5518 73.7363 47.9769C73.6337 47.3404 74.0031 47.1761 74.4135 46.9092C75.0497 46.4985 75.6243 46.0057 76.1989 45.5334C76.9582 44.9174 76.9582 44.6094 76.1579 44.055C73.6542 42.2892 70.8837 41.2214 67.8053 40.5849C68.1747 39.5582 68.38 38.47 68.421 37.3612C68.5441 34.815 67.6412 32.659 66.0199 30.7905C64.3987 28.922 62.1207 28.2444 60.4584 29.0246C58.4267 29.9897 57.1338 32.4948 57.5443 34.8561C58.0573 37.7102 59.4528 40.0305 61.895 41.6526C62.0797 41.7758 62.2849 41.899 62.5517 42.0838C61.7513 42.6588 61.2177 43.3364 60.8278 44.1372C60.6226 44.5478 60.3968 44.6505 60.089 44.2604C60.0685 44.2398 60.048 44.2193 60.0069 44.1988C58.9808 43.4596 57.9137 43.3569 57.0517 43.9524C56.2719 44.4862 56.1077 45.287 56.2514 46.1289C56.4361 47.3198 57.3185 48.2438 58.4472 48.4286C58.9398 48.5108 59.3913 48.4492 59.3092 49.1884C59.0219 51.3444 59.9864 53.1102 61.1151 54.8145C61.464 55.3278 61.5461 55.759 61.3409 56.3134C60.5405 58.531 59.8427 60.7897 58.8987 62.9457C58.7345 63.3153 58.6525 63.6438 58.0368 63.5001C51.3466 61.878 44.7179 62.3092 38.0687 63.8697C32.384 65.2044 26.9457 67.2166 21.6715 69.6806C17.3823 71.7134 13.8115 74.7524 10.9999 78.5921C9.80963 80.2143 8.8656 82.0623 8.57829 84.0745C8.37308 85.4503 8.63986 86.8876 9.00926 88.2633C9.72754 91.0353 11.123 93.4377 13.0111 95.5527C15.9868 98.8585 19.1267 102 21.7946 105.573C22.205 106.107 22.7591 106.517 23.3132 106.928C23.8058 107.298 24.1341 107.749 24.3393 108.304C24.4625 108.632 24.483 109.043 23.9699 109.043C21.4662 109.125 19.2088 110.193 16.8487 110.829C14.8991 111.363 13.0521 112.185 11.3488 113.273C9.27606 114.608 9.31711 116.743 11.4309 117.975C13.9962 119.474 16.8693 119.905 19.7424 120.398C29.2442 122.061 38.828 122.636 48.4324 122.164C54.979 121.856 61.5461 121.548 68.0927 121.343C73.3463 121.178 78.5179 120.501 83.6485 119.556C85.6802 119.187 87.7734 118.879 89.5999 117.77C90.5234 117.215 91.2827 116.599 91.1391 115.347C91.0159 114.341 90.4824 113.807 89.5794 113.396C87.1578 112.287 84.5309 111.938 81.9657 111.404C79.3593 110.871 76.712 110.521 74.0441 110.542C73.8799 110.255 74.0646 110.049 74.1672 109.864C75.5627 106.6 76.712 103.253 77.8202 99.8852C78.0665 99.1665 78.3948 98.9817 79.1131 99.0023C86.6242 99.3103 93.3965 97.0105 99.5121 92.7807C101.934 91.0969 103.842 88.8998 105.299 86.251C107.208 82.8014 106.941 79.4751 105.628 76.0255C104.663 73.4999 103.227 71.2822 101.174 69.4753C100.579 68.9414 99.8815 68.4281 99.6558 67.5862C99.6147 67.4425 99.4506 67.2988 99.3274 67.2166C95.7155 64.7937 93.0476 61.4673 90.4208 58.0793C89.5999 57.0116 88.9022 55.9028 88.2044 54.7734C87.9581 54.3628 87.876 54.0753 88.5328 53.911C89.9488 53.562 90.1335 53.2745 89.9898 51.8372C89.9693 51.5292 89.9488 51.2006 89.8667 50.9337C89.6615 50.3382 89.8462 50.1945 90.4619 50.215C95.1409 50.3588 99.5532 49.1884 103.74 47.2582C107.249 45.6361 110.45 43.4185 113.447 40.975C121.491 34.3838 130.09 28.7782 139.859 25.0617C139.92 25.0412 139.941 24.959 139.982 24.918C139.284 25.0001 138.586 25.0001 137.909 25.0001Z" fill="#020A13"/>
<path d="M141.398 179C142.034 177.994 142.855 177.111 143.635 176.207C144.784 174.893 145.441 173.353 145.769 171.628C146.2 169.39 146.713 167.152 147.206 164.934C147.329 164.36 147.411 163.785 147.349 163.21C147.206 162.101 146.611 161.403 145.687 161.259C144.764 161.115 143.922 161.608 143.491 162.573C143.122 163.374 142.835 164.216 142.65 165.099C142.116 167.748 140.639 169.862 138.833 171.752C137.109 173.538 135.262 175.201 133.805 177.254C133.271 177.994 132.327 178.425 131.568 179C132.327 179 133.066 179 133.825 179C134.502 178.507 135.2 178.445 135.877 179C137.704 179 139.551 179 141.398 179Z" fill="#020A13"/>
<path d="M118.208 179C118.434 177.768 118.085 176.659 117.469 175.612C116.977 174.791 116.115 174.811 115.602 175.591C114.904 176.639 114.76 177.788 114.924 179C116.012 179 117.12 179 118.208 179Z" fill="#020A13"/>
<path d="M98.0961 179C98.2398 178.487 98.0961 177.994 97.9524 177.501C97.7677 176.885 97.3778 176.495 96.7006 176.515C95.9823 176.556 95.5924 177.029 95.4693 177.665C95.3872 178.096 95.4487 178.548 95.4487 178.979C96.3107 179 97.2137 179 98.0961 179Z" fill="#020A13"/>
<path d="M161.92 179C161.9 178.199 161.387 177.85 160.709 177.85C159.991 177.83 159.519 178.24 159.458 179C160.278 179 161.099 179 161.92 179Z" fill="#020A13"/>
<path d="M135.857 179C135.077 177.953 134.687 177.953 133.805 179C134.482 179 135.18 179 135.857 179Z" fill="#020A13"/>
<path d="M0 62.1655C0.636188 62.6994 0.84141 63.5618 1.43655 64.1368C1.1082 63.2538 0.882455 62.3093 0 61.7549C0 61.8986 0 62.0218 0 62.1655Z" fill="#020A13"/>
<path d="M150.551 50.7079C150.366 49.517 150.53 48.5519 150.53 47.6074C150.489 44.1783 149.278 41.201 146.139 39.5789C141.501 37.197 136.514 35.8829 131.281 36.7658C127.258 37.4434 124.344 39.9485 122.784 43.7472C121.717 46.3549 122.415 48.7778 124.077 50.9543C125.391 52.6791 127.094 53.9111 128.941 54.9789C133.353 57.525 138.053 59.3935 142.958 60.6666C144.374 61.0362 145.81 61.5085 147.288 61.6522C147.76 61.6933 147.965 61.6111 148.129 61.2005C149.237 58.3463 150.12 55.4511 150.53 52.4122C150.633 51.7757 150.551 51.1186 150.551 50.7079Z" fill="#D0F4DE"/>
<path d="M99.0196 115.162C102.447 111.938 105.34 108.242 108.234 104.567C112.236 99.4539 116.73 94.875 121.635 90.6656C122.292 90.0907 123.113 89.7006 123.667 88.9819C122.497 88.099 121.266 87.3392 120.342 86.2099C119.603 85.3064 119.152 84.2387 119.685 83.171C120.26 82.0211 121.143 81.0766 122.476 80.6043C125.555 79.5366 128.346 80.0499 130.85 82.0416C131.445 82.5139 131.814 82.4318 132.348 82.0622C133.497 81.2408 134.523 80.3168 135.529 79.3312C137.355 77.5654 138.874 75.5326 140.392 73.5203C142.835 70.2966 145.174 67.0318 147.103 63.459C147.473 62.7608 147.616 62.4528 146.57 62.268C145.092 62.0216 143.614 61.8163 142.157 61.344C138.792 60.2763 135.488 59.1059 132.286 57.6275C129.269 56.2107 126.355 54.6502 124.057 52.1656C121.143 49.024 120.568 45.328 122.518 42.0222C124.734 38.2646 127.997 36.1086 132.327 35.5952C134.708 35.3283 137.047 35.5952 139.346 36.1086C142.711 36.8888 146.056 37.7512 148.806 40.051C150.14 41.1598 151.187 42.515 151.351 44.2398C151.618 46.9296 151.782 49.64 151.474 52.3299C151.125 55.3278 150.202 58.2024 149.196 61.036C148.991 61.5904 148.95 61.8574 149.709 61.919C153.383 62.268 157.056 62.2475 160.648 61.5904C167.235 60.3995 172.776 57.1347 177.497 52.4326C179.446 50.5024 180.883 48.2438 181.827 45.6771C183.858 40.2152 183.161 35.2051 179.323 30.7288C177.353 28.4086 174.911 26.7864 172.14 25.5955C171.709 25.4107 171.217 25.3696 170.888 24.9795H172.941C173.474 25.2054 174.049 25.308 174.562 25.5955C176.86 26.8275 178.851 28.4086 180.472 30.4414C183.633 34.4248 184.864 38.86 183.551 43.8907C182.504 47.8742 180.493 51.2211 177.476 54.0342C173.228 57.9971 168.303 60.728 162.741 62.227C158.596 63.3358 154.286 63.2742 150.017 62.9867C149.094 62.9251 148.683 63.2331 148.293 64.0134C146.303 67.9558 143.902 71.6518 141.152 75.1219C138.853 78.0171 136.514 80.8712 133.476 83.0683C133.292 83.212 133.025 83.3352 133.128 83.6227C133.23 83.9307 133.538 83.9923 133.805 84.0128C134.872 84.1155 135.919 84.0744 136.986 84.0539C139.571 84.0128 141.89 84.752 143.963 86.3126C144.723 86.8875 145.461 87.5035 146.221 88.0784C147.247 88.8382 148.334 89.5568 149.668 89.4542C150.941 89.372 152.193 89.3926 153.465 89.3926C155.23 89.372 156.708 90.0496 158 91.2406C159.642 92.7806 160.812 94.6696 162.166 96.4355C163.398 98.0576 164.834 99.6182 167.112 99.3923C168.446 99.2691 169.78 99.3102 171.094 99.4539C174.172 99.7824 177.066 100.542 179.241 103.006C180.329 104.238 181.149 105.573 181.847 107.031C182.73 108.899 184.125 110.111 186.116 110.727C187.799 111.261 189.523 111.774 191.082 112.677C193.545 114.094 195.536 115.942 196.09 118.837C196.438 120.685 197.259 122.164 198.491 123.498C198.757 123.765 198.963 124.094 199.23 124.361C200.871 125.962 201.323 127.995 201.323 130.172C201.323 131.075 201.631 131.979 201.343 132.923C200.297 136.311 198.429 139.165 195.802 141.527C194.591 142.635 193.668 143.909 193.175 145.49C192.868 146.434 192.437 147.317 191.944 148.179C190.631 150.418 188.537 151.793 186.403 153.107C185.131 153.888 183.92 154.73 182.648 155.51C183.407 155.51 183.407 155.489 184.228 154.914C187.347 152.758 190.631 150.972 194.345 150.089C196.315 149.637 198.327 149.391 200.338 149.719C201.795 149.945 202.226 150.767 201.815 152.183C200.666 156.023 198.491 159.206 195.536 161.875C193.052 164.216 190.364 166.269 187.737 168.405C185.746 170.006 183.961 171.916 181.724 173.189C180.144 174.093 178.707 175.181 177.271 176.29C175.978 177.275 174.747 178.384 173.187 179H171.75C175.916 175.838 180.082 172.696 184.248 169.514C185.541 168.507 186.773 167.419 188.065 166.413C188.578 166.023 188.537 165.694 188.168 165.243C186.67 163.436 185.11 161.67 183.715 159.76C182.976 158.754 182.155 157.81 181.642 156.639C181.355 155.982 180.903 155.777 180.082 155.962C178.194 156.413 176.265 156.845 174.336 156.968C171.586 157.153 169.021 156.311 166.887 154.606C165.388 153.415 164.013 152.861 162.125 153.662C160.463 154.36 158.821 154.031 157.118 153.21C155.681 152.512 154.819 151.506 153.937 150.335C152.808 148.837 151.597 147.399 150.387 145.941C149.935 145.407 149.258 145.182 148.704 144.791C147.226 143.806 145.749 142.8 144.661 141.383C143.307 139.617 143.183 137.543 143.307 135.428C143.512 132.205 144.353 129.083 145.133 125.983C145.646 123.95 145.461 121.897 145.379 119.864C145.338 119.104 144.866 118.878 144.168 119.125C144.004 119.186 143.84 119.227 143.696 119.289C143.122 119.515 142.424 119.597 142.014 119.987C141.521 120.459 142.301 120.993 142.301 121.589C142.301 122.472 142.363 123.355 142.219 124.238C142.137 124.833 141.87 125.305 141.213 125.367C140.557 125.449 140.208 125.018 139.982 124.484C139.551 123.416 139.654 122.287 139.51 121.034C138.258 121.712 137.088 122.307 135.939 122.985C134.297 123.95 132.45 124.525 130.932 125.757C128.572 127.667 126.684 129.987 124.775 132.328C124.631 132.513 124.488 132.677 124.631 132.964C125.144 133.95 124.878 134.977 124.713 135.983C124.631 136.455 124.488 136.968 123.872 136.989C123.318 137.009 123.133 136.578 122.969 136.147C122.887 135.921 122.805 135.716 122.641 135.285C122.087 136.352 121.163 137.03 121.348 138.241C121.368 138.365 121.266 138.59 121.184 138.59C120.383 138.714 120.342 139.432 120.199 139.946C119.193 143.765 117.141 147.132 115.725 150.767C114.883 152.923 113.939 154.997 113.016 157.111C112.585 158.077 112.031 158.959 111.374 159.781C109.691 161.896 108.562 164.298 107.783 166.865C107.29 168.549 107.311 170.109 108.911 171.279C109.199 171.485 109.404 171.854 109.609 172.162C110.184 173.066 110.368 174.093 109.712 174.955C109.075 175.776 108.049 175.817 107.085 175.55C104.622 174.893 102.508 173.559 100.477 172.121C96.1465 169.082 91.8574 165.982 87.5272 162.922C85.8033 161.69 84.2436 160.274 82.6224 158.61C82.8071 160.027 82.725 161.239 82.4377 162.43C82.3556 162.799 82.2325 163.169 81.9657 163.436C81.5142 163.887 80.7343 163.785 80.6523 163.189C80.4676 161.875 79.8929 160.623 79.934 159.267C79.975 158.323 80.2418 157.584 81.35 157.399C80.7549 156.742 80.2213 156.126 79.6467 155.51C76.5068 158.118 73.6542 160.931 71.4378 164.339C71.2736 164.586 71.0684 164.709 71.3352 165.017C72.6281 166.495 73.7978 168.097 75.3781 169.555C75.2754 168.672 75.1113 167.933 75.2344 167.193C75.337 166.557 75.6654 166.105 76.3426 166.064C76.9788 166.023 77.3687 166.413 77.5329 166.988C77.6971 167.583 77.8407 168.179 77.8818 168.795C77.9639 169.719 77.615 170.438 76.5478 170.746C78.7027 172.963 80.8985 174.955 83.4022 176.782C83.6485 176.002 83.2175 175.283 83.4228 174.544C83.6075 173.887 83.8332 173.333 84.572 173.333C85.3313 173.333 85.6392 173.867 85.7212 174.544C85.8854 175.817 86.3164 177.111 85.6597 178.363C85.4955 178.692 85.947 178.754 85.9265 179C85.9265 179.021 85.9265 179.041 85.9059 179.062H84.4694C83.9153 178.774 83.4228 178.446 82.9302 178.055C81.4321 176.865 79.9955 175.591 78.5795 174.318C74.393 170.54 70.6579 166.413 67.6412 161.629C66.9845 160.582 66.4714 159.534 65.9378 158.446C65.3427 157.214 65.3632 156.187 66.0815 155.099C66.574 154.36 66.3688 153.765 65.8352 153.066C64.6039 151.485 62.9826 150.212 61.9976 148.405C61.9771 148.385 61.9565 148.344 61.9565 148.323C61.8334 147.974 61.7103 147.625 61.5871 147.255C61.5256 147.05 61.423 146.845 61.3203 146.66C61.2588 146.475 61.1972 146.29 61.1151 146.106C61.1357 146.044 61.1151 145.982 61.1151 145.9C61.0125 145.469 60.9099 145.038 60.7868 144.607C60.5405 143.662 60.7252 142.943 61.423 142.102C61.9565 141.445 62.8595 140.849 62.9006 139.802C62.9006 139.535 63.1673 139.268 63.4547 139.247C64.4603 139.227 64.5834 138.673 64.6244 137.81C64.6655 136.968 65.8147 136.414 66.7998 136.619C67.6822 136.783 68.3595 137.297 68.9546 137.933C69.0162 137.995 69.0572 138.036 69.1188 138.098C69.2624 138.385 69.4061 138.631 69.5908 138.878C69.796 139.145 70.1244 139.001 70.227 138.755L70.2475 138.734C71.1094 137.707 71.8072 136.619 73.1001 136.188C73.1411 136.209 73.1822 136.229 73.2437 136.25C74.0236 136.558 73.8799 137.297 73.6952 137.933C73.3669 139.186 73.018 140.438 72.6897 141.691C72.2587 143.313 72.4639 144.689 73.4695 146.188C77.5124 152.245 82.2735 157.625 87.9582 162.122C90.8107 164.38 94.1353 165.859 97.8293 165.941C101.934 166.023 105.587 164.873 108.152 161.341C109.712 159.206 111.477 157.214 112.482 154.771C113.18 153.087 113.775 151.362 114.699 149.781C114.801 149.596 114.883 149.411 114.965 149.227C115.684 147.666 116.771 146.373 117.038 144.483C117.284 142.718 118.413 141.095 119.131 139.391C119.234 139.145 119.501 138.981 119.131 138.631C117.346 136.989 115.889 135.038 114.37 133.149C113.016 131.465 113.016 131.178 114.411 129.433C114.842 128.899 114.76 128.529 114.493 127.995C113.672 126.353 112.728 124.771 112.297 122.965C112.297 122.965 112.318 122.965 112.318 122.985L112.297 122.965C112.297 122.965 112.297 122.965 112.297 122.985C111.949 122.78 111.579 122.677 111.169 122.841C110.922 122.944 110.635 122.985 110.389 123.067C107.885 123.847 107.495 123.704 106.1 121.466C105.977 121.26 105.854 121.055 105.73 120.85C104.848 119.269 104.827 119.207 103.083 119.761C99.6763 120.891 97.3163 123.067 96.5159 126.702C96.126 128.509 96.0029 130.357 95.9002 132.205C95.7976 134.011 95.3051 135.695 94.2995 137.215C91.8574 140.972 88.1839 141.219 84.8183 138.139C83.1765 136.64 91.7958 125.141 94.4226 120.254L99.0196 115.162ZM138.71 112.821C138.381 113.601 138.094 114.402 137.663 115.141C136.657 116.907 136.616 118.858 136.822 120.829C136.863 121.322 137.109 121.158 137.376 121.055C139.777 120.049 142.137 118.981 144.599 118.16C145.051 118.016 145.112 117.749 144.887 117.4C144.579 116.907 144.271 116.414 143.902 115.983C142.239 114.012 141.603 111.671 141.542 109.146C141.501 106.682 142.486 104.649 144.086 102.842C145.441 101.322 145.318 99.3923 143.779 98.0576C142.301 96.764 140.659 97.1952 139.982 99.0022C139.715 99.7208 139.387 100.583 138.586 100.583C137.807 100.583 137.232 99.8646 136.883 99.1048C136.473 98.2014 136.226 97.2363 136.042 96.2712C135.795 94.9366 135.159 94.4438 133.825 94.7518C132.922 94.9571 132.06 94.875 131.198 94.5875C129.967 94.1768 129.126 93.4376 129.003 92.0414C128.962 91.5691 128.838 91.1995 128.305 91.0352C127.71 90.871 127.587 91.3638 127.381 91.6512C125.863 93.9304 124.652 96.3534 123.81 98.9611C123.441 100.131 122.928 100.501 121.738 100.255C121.348 100.173 120.937 100.09 120.691 100.439C120.404 100.83 120.732 101.22 120.958 101.548C121.122 101.815 121.389 101.979 121.697 102.062C122.99 102.411 123.79 103.314 124.323 104.464C124.857 105.634 125.616 106.641 126.376 107.626C127.874 109.577 129.926 110.542 132.286 110.994C134.133 111.363 136.001 111.61 137.889 111.589C138.833 111.589 139.017 112.061 138.71 112.821ZM122.374 108.406C123.708 110.213 124.631 112.226 125.247 114.382C125.801 116.353 125.74 117.667 123.297 118.57C122.723 118.776 122.169 119.043 121.574 119.289C123.072 122.266 125.534 124.34 127.874 126.537C128.223 126.866 128.407 126.64 128.633 126.435C130.665 124.607 133.066 123.355 135.405 122.041C135.816 121.815 135.919 121.548 135.857 121.137C135.405 118.447 135.118 115.716 134.913 112.985C134.872 112.513 134.687 112.349 134.236 112.287C133.333 112.143 132.43 111.938 131.527 111.753C128.1 111.014 126.047 108.591 124.262 105.84C123.421 104.546 122.62 103.232 121.102 102.575C120.855 102.472 120.671 102.246 120.486 102.041C119.993 101.528 119.562 100.932 119.973 100.214C120.363 99.5155 121.102 99.495 121.799 99.7003C122.518 99.9056 122.764 99.7003 122.928 98.92C123.523 96.0659 124.529 93.3966 126.642 91.3022C127.115 90.8299 127.073 90.6656 126.478 90.3166C125.637 89.8648 125.103 89.9675 124.344 90.563C121.266 92.9654 118.29 95.4499 115.335 97.996C113.919 99.2075 112.687 100.563 111.538 102.021C108.275 106.148 105.012 110.295 101.503 114.217C99.7379 116.168 101.031 115.244 98.9581 116.763C97.0905 119.967 81.3911 136.373 87.5888 138.611C89.5178 139.309 91.2212 139.309 92.7193 137.933C94.3816 136.393 95.182 134.443 95.2435 132.184C95.3256 129.823 95.3667 127.42 96.2286 125.203C97.6446 121.527 100.333 119.31 104.294 118.817C104.971 118.735 104.992 118.509 104.848 117.995C104.643 117.256 104.15 116.373 104.396 115.778C104.643 115.162 105.566 114.813 106.243 114.402C107.146 113.848 107.885 113.252 107.947 112.061C107.967 111.507 108.234 110.973 108.952 110.788C109.404 110.665 109.199 109.803 109.65 109.762C110.594 109.7 110.656 108.797 111.189 108.386C111.846 107.852 112.503 107.4 112.975 106.641C113.365 106.025 114.473 106.23 115.212 107.051C115.766 107.667 116.094 107.544 116.566 107.072C116.853 106.784 117.223 106.558 117.469 106.25C118.249 105.306 118.865 105.183 119.911 105.84C120.917 106.497 121.656 107.441 122.374 108.406ZM61.4435 143.765C62.3054 147.666 64.9733 150.397 67.6001 153.19C69.2624 151.075 71.0684 149.227 73.3874 147.954C73.7568 147.748 73.8389 147.543 73.5105 147.194C73.2232 146.865 73.059 146.414 72.7717 146.085C71.5199 144.75 71.602 143.169 71.9508 141.568C72.2382 140.274 72.587 138.981 73.1411 137.749C73.2848 137.441 73.5311 137.03 73.1822 136.825C72.8333 136.619 72.6076 137.071 72.3818 137.317C71.5404 138.241 70.9863 139.33 70.3912 140.418C69.7139 141.65 69.4061 141.691 68.4621 140.685C67.9285 140.11 67.4565 139.514 67.1692 138.406C67.6207 138.755 67.8669 138.878 68.0311 139.104L68.0516 139.124C68.1953 139.555 68.5852 139.802 68.8109 140.192C69.0572 140.582 69.6318 140.315 69.5703 139.966C69.7139 139.905 69.8165 139.781 69.8165 139.617C69.8165 139.165 69.5292 138.898 69.2214 138.611C69.1598 138.57 69.1188 138.529 69.0572 138.508C68.9957 138.406 68.893 138.323 68.7904 138.221C68.38 137.872 67.9695 137.482 67.4565 137.276C66.2662 136.783 65.3017 137.338 65.2811 138.611C65.2606 139.33 65.0143 139.617 64.3166 139.555C63.742 139.514 63.4341 139.74 63.2494 140.377C63.0237 141.198 62.2644 141.753 61.7718 142.43C61.423 142.902 61.3203 143.21 61.4435 143.765Z" fill="#020A13"/>
<path d="M105.279 115.634C105.997 115.203 106.715 114.772 107.454 114.32C107.639 114.915 107.27 115.593 107.885 115.901C108.316 116.127 108.665 115.757 108.891 115.367C109.158 115.757 109.117 116.27 109.609 116.27C110.081 116.27 110.327 115.942 110.533 115.552C110.615 115.367 110.615 115.018 110.984 115.285C111.538 115.654 111.784 115.244 112.01 114.833C112.38 114.114 112.544 113.355 112.626 112.574C112.708 111.876 112.831 111.178 112.934 110.48C113.508 111.466 113.878 112.472 114.616 113.252C114.965 113.642 115.355 113.889 115.868 113.642C116.361 113.396 116.34 112.924 116.258 112.472C116.094 111.425 115.725 110.418 115.191 109.495C115.047 109.228 114.822 109.022 115.212 108.735C115.868 108.263 116.484 107.729 117.12 107.236C118.064 111.609 120.547 114.854 124.057 117.502C123.133 117.81 122.23 118.098 121.348 118.406C120.958 118.55 120.671 118.426 120.342 118.16C118.741 116.928 116.997 115.942 115.068 115.285C114.74 115.182 114.411 115.08 114.083 115.08C112.913 115.059 112.4 115.88 112.934 116.907C113.365 117.728 114.062 118.283 114.801 118.755C115.294 119.084 115.458 119.474 115.396 120.049C115.335 120.644 114.924 120.747 114.493 120.829C112.687 121.219 110.943 121.814 109.24 122.554C108.357 122.944 107.865 122.636 107.352 121.979C106.018 120.274 105.607 118.221 105.033 116.229C104.93 115.921 105.053 115.778 105.279 115.634Z" fill="#D0F4DE"/>
<path d="M112.913 122.287C113.406 122.164 113.898 121.979 114.35 121.774C114.842 121.548 115.006 121.692 114.986 122.226C114.986 122.883 114.863 123.581 115.376 124.197C115.499 124.032 115.643 123.909 115.622 123.807C115.458 122.39 115.889 121.096 116.381 119.823C116.525 119.412 116.361 119.166 116.094 118.92C115.499 118.365 114.883 117.831 114.288 117.256C113.939 116.907 113.344 116.497 113.59 116.004C113.939 115.347 114.575 115.84 115.047 116.004C118.495 117.277 121.163 119.515 123.113 122.636C123.379 123.047 123.154 123.273 122.969 123.54C121.327 126.024 119.275 128.098 117.018 130.008C116.628 130.336 116.422 130.295 116.176 129.843C115.437 128.406 114.781 126.948 113.919 125.593C113.385 124.731 113.18 123.683 112.421 122.944C112.462 122.616 112.503 122.39 112.913 122.287Z" fill="#D0F4DE"/>
<path d="M112.442 122.923L112.462 122.943C112.462 122.943 112.442 122.923 112.442 122.923Z" fill="#D0F4DE"/>
<path d="M117.982 107.605C118.023 107.831 118.023 108.139 118.105 108.427C119.152 111.733 121.019 114.505 123.769 116.64C124.057 116.866 124.385 117.194 124.775 116.948C125.124 116.722 125.042 116.27 125.021 115.901C124.96 114.751 124.508 113.704 124.077 112.677C123.297 110.829 122.189 109.207 120.855 107.708C120.527 107.318 120.137 106.969 119.747 106.661C119.378 106.373 118.947 106.024 118.454 106.25C117.9 106.497 118.044 107.071 117.982 107.605Z" fill="#D0F4DE"/>
<path d="M78.3332 153.765C77.7586 153.046 77.2455 152.328 76.6709 151.65C76.5478 151.506 76.4041 151.054 76.0758 151.486C74.8444 153.149 72.9974 154.155 71.7045 155.798C70.6579 157.153 69.7344 158.59 68.6878 159.925C68.5031 160.151 68.3594 160.336 68.5852 160.623C69.0161 161.239 69.4061 161.876 69.8165 162.553C72.1766 159.145 74.2904 155.613 78.3332 153.765Z" fill="#020A13"/>
<path d="M114.945 132.266C114.945 132.287 114.945 132.328 114.965 132.348C116.135 133.827 116.156 133.868 117.674 132.8C120.26 130.952 122.271 128.529 123.954 125.839C124.036 125.716 124.057 125.572 124.159 125.49C125.165 124.669 124.59 124.114 123.831 123.56C121.43 127.03 118.68 130.151 114.945 132.266Z" fill="#020A13"/>
<path d="M67.1281 158.035C69.6728 155.181 71.1299 151.362 75.0702 149.986C74.0851 148.611 74.0851 148.611 72.7717 149.411C71.2325 150.335 69.9191 151.526 68.8109 152.922C68.1747 153.723 67.3744 154.298 66.8408 155.243C66.2662 156.31 66.3688 157.111 67.1281 158.035Z" fill="#020A13"/>
<path d="M117.387 135.223C117.715 135.613 117.962 135.962 118.269 136.27C118.536 136.537 118.7 136.229 118.865 136.085C119.234 135.798 119.603 135.469 119.952 135.161C122.518 132.82 124.796 130.192 127.258 127.728C127.422 127.564 127.833 127.4 127.545 127.092C127.176 126.701 126.766 126.291 126.294 126.044C126.068 125.921 125.986 126.414 125.883 126.64C124.057 130.172 121.225 132.738 117.962 134.894C117.777 135.017 117.613 135.1 117.387 135.223Z" fill="#020A13"/>
<path d="M115.643 113.17C115.581 111.692 115.047 110.501 114.699 109.269C114.616 108.981 114.391 108.735 114.76 108.468C114.965 108.324 115.396 108.181 114.986 107.79C114.596 107.441 114.185 107.092 113.631 107.195C113.2 107.277 113.262 107.708 113.303 108.037C113.447 109.68 114.637 112.349 115.643 113.17Z" fill="#020A13"/>
<path d="M111.395 114.382C111.682 113.335 111.969 112.287 112.215 111.22C112.339 110.727 112.339 110.255 112.708 109.803C113.016 109.433 112.769 108.899 112.4 108.653C111.949 108.345 111.702 108.838 111.6 109.166C111.046 110.871 110.881 112.595 111.395 114.382Z" fill="#020A13"/>
<path d="M110.204 110.213C108.973 111.692 109.527 113.417 109.363 115.347C110.102 114.464 110.574 113.786 110.266 112.883C109.978 111.979 110.327 111.096 110.204 110.213Z" fill="#020A13"/>
<path d="M108.255 115.162C109.424 114.176 108.624 112.883 109.014 111.835C108.337 112.595 108.152 113.519 108.255 115.162Z" fill="#020A13"/>
<path d="M120.322 137.153C120.014 137.297 119.562 137.255 119.603 137.748C119.603 137.851 119.809 138.015 119.87 137.995C120.342 137.913 120.178 137.461 120.322 137.153Z" fill="#020A13"/>
<path d="M125.596 166.721C125.555 166.002 125.657 165.284 125.452 164.585C125.247 163.867 124.837 163.374 124.016 163.374C123.256 163.374 122.784 163.846 122.641 164.524C122.292 166.269 122.846 167.912 123.605 169.431C123.995 170.212 125.062 169.945 125.411 169.041C125.76 168.302 125.616 167.501 125.596 166.721Z" fill="#020A13"/>
<path d="M122.887 149.617C122.846 149.247 122.805 148.939 122.764 148.652C122.641 147.83 122.271 147.173 121.348 147.214C120.445 147.255 119.891 147.912 119.85 148.754C119.747 150.233 120.116 151.649 120.527 153.066C120.65 153.477 121.019 153.744 121.471 153.703C122.066 153.641 122.394 153.23 122.476 152.697C122.641 151.649 122.743 150.602 122.887 149.617Z" fill="#020A13"/>
<path d="M140.023 147.563C140.023 146.845 139.92 146.126 139.695 145.448C139.489 144.812 139.079 144.36 138.381 144.339C137.642 144.319 137.17 144.812 136.986 145.469C136.555 147.029 137.15 148.446 137.807 149.76C138.155 150.458 139.182 150.274 139.654 149.514C140.023 148.939 140.023 148.261 140.023 147.563Z" fill="#020A13"/>
<path d="M133.538 134.32C133.558 134.812 133.558 135.387 133.784 135.942C134.195 136.886 135.262 137.051 135.939 136.27C136.596 135.511 136.883 132.533 136.37 131.65C135.898 130.829 134.892 130.829 134.236 131.63C133.805 132.164 133.538 133.129 133.538 134.32Z" fill="#020A13"/>
<path d="M131.322 155.798C131.26 155.387 131.198 154.668 131.055 153.97C130.891 153.231 130.378 152.779 129.598 152.779C128.818 152.8 128.387 153.313 128.223 154.052C127.874 155.674 128.695 156.968 129.557 158.18C129.967 158.754 130.624 158.467 130.973 157.872C131.28 157.338 131.301 156.722 131.322 155.798Z" fill="#020A13"/>
<path d="M126.889 142.82C126.786 143.847 127.463 144.832 127.956 145.859C128.264 146.496 129.146 146.434 129.413 145.736C129.741 144.853 130.111 143.949 129.844 142.964C129.741 142.615 129.721 142.225 129.721 141.855C129.7 141.218 129.659 140.52 128.879 140.438C128.161 140.356 127.545 140.685 127.176 141.342C126.909 141.711 126.889 142.142 126.889 142.82Z" fill="#020A13"/>
<path d="M133.148 174.462C133.086 173.62 132.902 172.717 132.573 171.854C132.327 171.238 131.917 170.807 131.178 170.889C130.419 170.992 129.988 171.505 129.967 172.204C129.926 173.559 130.357 174.832 130.973 176.002C131.363 176.741 132.348 176.639 132.82 175.9C133.086 175.489 133.148 175.017 133.148 174.462Z" fill="#020A13"/>
<path d="M158.083 160.808C158.185 162.06 158.247 163.128 158.637 164.113C158.883 164.729 159.191 165.366 160.012 165.202C160.75 165.058 160.771 164.401 160.709 163.805C160.627 162.697 160.894 161.547 160.463 160.459C160.258 159.925 160.196 159.144 159.396 159.165C158.76 159.185 158.062 160.233 158.083 160.808Z" fill="#020A13"/>
<path d="M172.222 175.838C172.222 175.099 172.038 174.421 171.853 173.723C171.648 173.004 171.299 172.368 170.478 172.491C169.678 172.614 169.103 173.21 169.041 174.031C168.959 175.263 169.534 176.351 170.067 177.398C170.437 178.117 171.832 177.727 172.099 176.844C172.202 176.536 172.202 176.187 172.222 175.838Z" fill="#020A13"/>
<path d="M151.803 172.327C152.049 173.312 152.254 174.318 152.541 175.304C152.706 175.838 153.055 176.31 153.691 176.31C154.347 176.29 154.532 175.797 154.737 175.242C155.312 173.764 154.655 172.573 153.999 171.382C153.732 170.869 153.239 170.746 152.685 170.972C152.049 171.197 151.782 171.649 151.803 172.327Z" fill="#020A13"/>
<path d="M139.161 163.949C139.161 162.984 139.058 162.327 138.853 161.711C138.648 161.115 138.217 160.705 137.54 160.787C136.883 160.889 136.493 161.341 136.473 161.998C136.452 163.559 136.945 165.017 137.396 166.495C137.499 166.824 137.786 166.967 138.135 166.926C138.586 166.865 138.812 166.536 138.874 166.167C139.017 165.325 139.099 164.483 139.161 163.949Z" fill="#020A13"/>
<path d="M149.709 153.23C149.689 152.697 149.689 152.081 149.607 151.465C149.504 150.787 149.053 150.356 148.355 150.335C147.657 150.315 147.206 150.725 147.062 151.423C146.795 152.902 147.329 154.257 147.862 155.571C147.986 155.9 148.355 156.023 148.745 155.961C149.196 155.879 149.484 155.551 149.566 155.14C149.648 154.545 149.648 153.929 149.709 153.23Z" fill="#020A13"/>
<path d="M175.875 162.82C175.875 161.855 175.732 160.91 175.424 160.007C175.28 159.555 175.054 159.001 174.459 159.144C173.885 159.267 173.392 159.699 173.413 160.356C173.454 161.67 173.761 162.922 174.336 164.093C174.5 164.442 174.829 164.688 175.26 164.586C175.691 164.483 175.855 164.154 175.875 163.744C175.875 163.436 175.875 163.128 175.875 162.82Z" fill="#020A13"/>
<path d="M114.637 162.45C114.678 163.415 114.781 164.237 115.13 164.976C115.314 165.345 115.56 165.715 116.053 165.633C116.525 165.571 116.71 165.202 116.792 164.77C116.935 163.97 116.997 163.169 116.833 162.348C116.689 161.608 116.463 160.89 115.519 160.972C114.493 161.054 114.658 161.896 114.637 162.45Z" fill="#020A13"/>
<path d="M94.5458 94.5463C95.6129 93.8893 96.4338 93.3965 97.2547 92.9037C97.6241 92.6778 97.7678 92.4725 97.6241 92.0002C96.8853 89.7415 97.1316 87.5239 98.0961 85.409C99.1428 83.1298 98.7734 81.097 97.2547 79.1874C96.085 77.7295 95.223 76.1074 94.8126 74.2594C94.1559 71.3026 95.0794 69.1055 97.5831 67.3397C95.9823 65.6354 94.3406 63.9106 92.7398 62.1653C92.3704 61.7751 92.2063 62.1447 92.0216 62.3295C90.3798 64.0749 88.5533 65.5122 86.0906 65.9229C85.988 65.9434 85.9059 66.0255 85.8033 66.0255C84.7362 66.1282 84.6951 66.1693 85.2903 67.1138C87.363 70.317 88.9227 73.7461 90.3798 77.2573C91.057 78.8999 91.7958 80.481 92.2268 82.2058C92.3089 82.5138 92.4525 82.8629 92.0626 82.9861C91.6522 83.1093 91.5496 82.7191 91.529 82.4111C91.4469 80.481 90.5234 79.1258 88.779 78.2839C87.6914 77.7706 87.0347 76.785 86.2753 75.9226C86.0291 75.6557 85.7418 75.4298 85.2698 74.9986C85.7007 76.4565 86.0496 77.6474 85.9059 78.941C85.7007 80.9533 84.7157 82.5549 83.5048 84.0538C81.7399 86.2509 83.1149 90.2754 85.8649 90.9325C86.419 91.0557 86.9936 91.261 87.0347 91.8975C87.0757 92.6367 86.8705 93.3965 86.3369 93.9509C85.9265 94.3821 85.3724 94.2178 84.9004 93.9714C83.9563 93.4991 82.9302 93.109 82.1093 92.4725C79.7288 90.645 78.8053 88.0989 78.9489 85.1831C79.0105 84.0538 79.7493 83.1709 80.5086 82.3701C84.0179 78.5303 83.4843 75.2039 80.9601 71.549C80.4676 70.8303 79.4209 70.4813 78.6 69.9885C77.8612 69.5573 77.0814 68.7975 76.3631 68.8386C75.6038 68.9002 75.5422 70.1527 75.0087 70.8098C73.3258 72.9042 71.3352 74.5469 68.8931 75.6557C67.0255 76.4975 65.158 77.3599 63.0442 77.2983C61.4845 77.2573 59.9864 76.9287 58.5704 76.3127C55.923 75.1834 53.3372 73.9719 51.3671 71.7543C49.5201 69.701 48.3093 67.4013 48.0835 64.6293C48.0015 63.7258 47.8168 63.3151 46.7496 63.4999C45.6004 63.7053 44.3895 63.4383 43.1582 63.8079C44.2459 64.8551 45.3541 65.697 46.216 66.8879C47.3858 68.4895 47.8988 70.2143 47.9399 72.1445C47.9604 73.3149 47.9604 74.4647 47.9399 75.6351C47.8988 78.4277 48.9044 80.8506 50.6899 82.9655C51.3261 83.7458 52.2701 84.0743 53.1936 84.2386C54.6301 84.485 55.6768 82.7807 55.1021 81.1381C54.9174 80.6247 54.6301 80.1525 54.3633 79.6802C54.0965 79.2285 54.076 78.8178 54.3839 78.3455C55.3484 76.9493 55.7794 76.9287 56.9491 78.2223C57.8521 79.2285 58.4883 80.3783 58.673 81.7541C58.9193 83.7047 57.9958 85.2242 56.5182 86.2303C54.7738 87.3802 52.8036 87.1338 51.0593 86.1071C47.2216 83.869 45.4362 80.3578 45.1283 76.0458C45.0463 74.9575 45.1283 73.8487 45.2925 72.781C45.5593 70.933 45.0668 69.3314 43.9175 67.9146C42.994 66.7647 42.009 65.6765 41.106 64.5266C40.8597 64.1981 40.6135 64.2391 40.3056 64.3213C38.4176 64.7935 36.5295 65.2453 34.5389 65.7381C35.2572 66.7031 35.9344 67.5861 36.5501 68.5101C37.843 70.4402 38.9306 72.473 39.4437 74.8138C40.3056 78.7767 37.8635 81.1586 34.5389 81.8978C33.287 82.1647 32.0557 82.4933 31.1117 83.3967C29.8804 84.5877 29.9009 86.1482 30.0856 87.7087C30.1677 88.3863 30.7423 88.2221 31.1322 88.2631C33.8206 88.5506 36.509 88.6738 39.218 88.6327C40.7982 88.6122 42.1732 89.1461 43.3429 90.1933C43.5276 90.3575 43.8765 90.5834 43.6302 90.8503C43.3634 91.1378 43.1787 90.7271 42.953 90.6245C42.9325 90.6039 42.8914 90.5834 42.8709 90.5629C40.675 88.9818 40.2441 89.1871 39.7721 91.7743C39.3821 93.9509 38.8691 96.1274 38.3765 98.2834C38.2739 98.6941 38.2739 98.8789 38.787 99.0637C40.5314 99.6386 41.9679 100.604 42.7683 102.37C43.1787 103.273 43.6713 104.135 44.2048 104.957C45.3336 106.723 47.1806 107.031 49.0686 107.031C49.7869 107.031 50.2999 106.538 50.3205 105.675C50.3615 103.93 49.6227 102.739 47.9604 102.123C46.6675 101.651 45.4567 101.035 44.2459 100.419C42.6246 99.5975 42.0295 98.0986 42.7273 96.3738C43.8355 93.6018 47.0574 92.0413 49.9716 92.7394C53.3372 93.5197 55.3689 95.7167 56.4771 98.8378C58.0573 103.252 57.9547 107.606 55.8204 111.876C54.938 113.642 54.2607 115.511 52.4548 116.907C55.9641 117.195 59.1861 116.969 62.408 116.64C62.5312 116.62 62.7569 116.64 62.7364 116.476C62.5722 115.449 63.4957 114.915 63.742 114.074C64.1524 112.759 64.1935 111.568 63.311 110.378C62.5927 109.433 62.1412 108.263 61.3409 107.4C58.201 103.992 60.3558 99.2074 63.6394 97.7085C65.1991 96.9898 66.7998 96.7023 68.5236 96.9693C71.9509 97.5031 71.4583 96.7434 76.5478 100.85C76.6299 100.686 76.712 100.542 76.7736 100.378C77.2866 99.0431 77.2661 99.0431 75.9732 98.4682C75.6038 98.3039 75.2139 98.2013 74.8034 97.7085C76.0758 97.6263 77.2251 97.6058 78.3538 97.8727C78.559 97.9138 78.7437 97.9754 78.9489 97.9959C83.5254 98.6325 87.8556 97.7085 92.001 95.7578C92.2268 95.6551 92.4115 95.5319 92.3499 95.2239C92.0831 93.8482 92.5346 92.5957 92.9656 91.3226C93.4786 89.8442 92.1652 87.3597 90.6671 86.8874C89.9488 86.6615 89.5179 86.8053 89.5384 87.6471C89.5384 87.7498 89.5384 87.8525 89.5384 87.9551C89.4768 89.2077 88.8611 89.9469 87.8966 89.8853C86.9731 89.8237 86.419 88.9407 86.5011 87.7293C86.6858 85.3474 88.5533 84.0127 91.2007 84.4234C94.6689 84.9573 96.8648 88.5506 95.695 91.8359C95.3667 92.6573 94.9973 93.4581 94.5458 94.5463Z" fill="#FFEE93"/>
<path d="M23.7237 86.9695C22.4718 88.53 21.5483 90.2548 20.5838 91.918C19.886 93.1089 20.4196 94.2383 21.7535 94.6284C22.4513 94.8337 23.149 94.9569 23.8673 94.7516C24.6677 94.5257 25.3449 94.7927 25.6117 95.5935C25.899 96.4559 25.4475 97.1129 24.6677 97.4004C22.8002 98.0575 21.0763 97.6673 19.5782 96.4559C17.5259 94.7721 17.1565 92.0207 18.5931 89.5977C18.8188 89.2076 19.0446 88.7764 19.3935 88.53C21.1789 87.2569 21.6304 85.3679 21.9793 83.3761C22.0614 82.9449 21.9587 82.5753 21.7946 82.1852C21.5893 81.6719 21.3636 81.1791 21.1789 80.6657C21.0763 80.3988 21.1173 80.0908 21.4252 79.9676C21.7535 79.8444 21.9998 80.0292 22.0614 80.3167C22.3692 81.7745 23.4158 82.9244 23.8057 84.3412C24.0725 85.3473 24.7498 86.1481 24.955 87.1748C25.0166 87.4623 26.9867 88.222 27.1509 88.0372C27.3561 87.7908 27.3561 87.4212 27.2945 87.1132C27.0688 85.5116 27.4382 84.0948 28.2796 82.7191C28.9363 81.6513 29.7367 80.8505 30.8449 80.3167C32.2404 79.6596 33.6359 79.0231 34.9698 78.2633C36.2832 77.5036 36.5295 76.7233 36.2422 75.2449C35.6265 72.1033 33.9642 69.4956 32.1993 66.9084C31.9736 66.5799 31.7478 66.6825 31.5016 66.7647C30.1061 67.2575 28.7311 67.7503 27.3561 68.2431C26.843 68.4279 26.8841 68.5921 27.1509 69.0233C28.4027 70.974 28.218 74.4647 26.8225 76.3127C25.3244 78.3249 22.7796 79.1668 20.1323 78.4892C18.47 78.0785 17.0129 77.2572 15.6789 76.2305C15.1659 75.8404 14.7965 75.8404 14.4476 76.3743C14.4066 76.4359 14.345 76.4769 14.304 76.518C13.873 77.0519 13.2163 77.5036 13.0521 78.1196C12.8469 78.8588 13.8319 79.0641 14.2424 79.5569C15.8636 81.4871 16.3151 83.8279 16.6024 86.2303C16.8282 87.9961 16.7872 89.762 16.0484 91.4663C15.5763 92.5545 14.9196 93.4991 14.0372 94.2588C13.6883 94.5463 13.5446 94.6695 13.914 95.1007C15.4532 96.846 17.1976 98.386 18.5521 100.275C18.7573 100.583 18.983 100.645 19.3114 100.357C19.6808 100.029 20.1733 99.926 20.6658 99.9465C22.9643 100.09 25.2628 100.255 27.0072 102.061C27.315 102.39 27.4382 102.226 27.6434 101.979C28.3412 101.117 28.8952 100.193 29.4288 99.2279C29.6751 98.7761 29.3878 98.5092 29.2031 98.2012C27.8691 95.8193 26.5147 93.4375 25.4475 90.9119C25.0781 90.0289 24.8319 89.1049 24.5445 88.2015C24.3598 87.7703 24.2162 87.298 23.7237 86.9695Z" fill="#FFEE93"/>
<path d="M68.0927 57.7508C66.3278 58.2231 64.8297 57.7303 63.3521 57.0322C62.1207 56.4367 62.1207 56.4367 61.6487 57.7508C61.1972 58.9623 60.8073 60.2148 60.2942 61.4058C60.0069 62.0628 60.1916 62.3092 60.7868 62.5351C61.3204 62.7404 61.8334 63.0279 62.3465 63.2948C62.4901 63.377 62.6543 63.4796 62.5927 63.685C62.5312 63.8903 62.3259 63.8698 62.1618 63.8698C61.464 63.8492 60.8073 63.6028 60.2327 63.2332C59.8633 62.9868 59.576 62.8226 59.4118 63.418C59.0834 64.609 58.2215 64.5884 57.2364 64.4036C55.7999 64.1367 54.3428 63.9108 52.9063 63.6439C52.3111 63.5412 52.0443 63.5618 52.188 64.3215C52.7421 67.1346 54.0555 69.578 56.1488 71.4671C58.6935 73.7668 64.4808 75.1836 68.1748 72.4938C69.8576 71.2823 71.4583 70.0708 72.6076 68.305C72.9154 67.8327 73.1001 67.5247 72.3408 67.3194C71.3557 67.0524 70.3912 66.6623 69.4266 66.3543C68.8315 66.149 67.9695 66.2722 68.0722 65.225C68.0927 65.0196 67.8464 64.9991 67.6822 64.9991C66.8613 64.958 66.061 64.7322 65.3017 64.4242C64.9528 64.2804 64.8502 64.4652 64.6655 64.65C64.1524 65.1223 63.5778 65.2455 63.0647 64.65C62.6748 64.1983 62.6543 63.685 63.1468 63.2948C63.7625 62.802 64.3166 63.0074 64.7065 63.6234C64.8912 63.9314 65.0554 64.0956 65.4248 63.9519C65.5069 63.9108 65.63 63.9108 65.7326 63.9108C66.4714 63.8698 67.436 64.4242 67.8464 63.8698C68.1953 63.377 67.8874 62.4119 67.908 61.6727C67.949 60.3586 68.0311 59.106 68.0927 57.7508Z" fill="#D0F4DE"/>
<path d="M47.3857 120.85C53.3577 120.891 59.3502 121.035 65.3221 120.624C66.574 120.542 67.8874 120.706 69.1187 120.131C69.8575 119.782 70.781 118.222 70.5963 117.462C70.4527 116.907 70.0833 116.723 69.5087 116.805C63.5983 117.482 57.7084 118.078 51.757 117.688C47.5294 117.4 43.4044 116.599 39.3205 115.552C38.397 115.306 37.3298 115.47 36.55 114.751C36.4884 114.69 36.2832 114.649 36.2627 114.669C35.4007 115.84 34.8261 114.69 34.3131 114.341C32.856 113.355 32.9176 113.314 32.0351 114.793C31.0295 116.497 29.7571 118.016 28.8131 119.782C28.2385 120.85 28.218 120.87 29.4698 120.87C35.4213 120.85 41.4137 120.85 47.3857 120.85Z" fill="#D0F4DE"/>
<path d="M39.1974 107.544C40.0798 108.139 40.8597 108.858 41.4959 109.72C42.2142 110.665 41.9679 111.219 40.8392 111.486C40.8186 111.815 41.106 111.938 41.2496 112.164C41.5164 112.574 41.619 113.047 41.3317 113.396C41.0854 113.704 40.716 113.334 40.4082 113.231C38.6022 112.533 36.981 111.466 35.3187 110.439C36.2627 111.753 37.2273 113.067 38.1918 114.381C38.3765 114.648 38.7049 114.689 39.0127 114.771C42.091 115.613 45.2104 116.127 48.3708 116.578C48.966 116.661 49.3353 116.496 49.7868 116.045C54.4864 111.445 54.7532 105.798 53.5629 99.8437C53.2346 98.1805 52.3726 96.8048 50.854 95.9013C49.479 95.1005 47.3242 95.3469 46.1955 96.4557C45.4156 97.2155 45.4977 97.6056 46.5238 97.9136C47.591 98.2421 48.7197 98.3653 49.7663 98.8581C51.8185 99.8027 52.7626 101.466 53.0088 103.622C53.132 104.792 52.9883 105.942 52.6599 107.071C52.1058 108.981 50.5872 109.761 48.8428 110.049C45.4977 110.603 41.7421 108.201 40.7366 104.957C40.5313 104.299 40.3261 103.663 40.1004 103.006C39.7515 101.918 38.6843 101.712 37.8429 101.219C37.6993 101.137 37.5556 101.24 37.5556 101.384C37.5761 102.082 36.5295 102.718 37.4325 103.478C37.6993 103.704 37.5146 103.889 37.3093 104.053C36.1806 104.915 36.1806 104.915 37.412 105.429L38.4996 106.763C38.5817 107.133 38.8896 107.338 39.1974 107.544Z" fill="#FFEE93"/>
<path d="M65.9583 115.983C67.4359 115.983 68.9956 116.004 70.5348 115.983C71.0068 115.983 71.2736 115.634 71.3762 115.203C72.2586 111.897 73.4694 108.694 74.7623 105.552C75.2754 104.259 75.0291 103.355 74.2698 102.472C71.171 98.8173 67.0255 98.5299 63.4956 101.671C62.0796 102.945 62.0386 104.197 63.2699 105.593C64.3371 106.805 65.5068 107.873 66.1841 109.392C67.2307 111.692 67.1486 114.094 65.9583 115.983Z" fill="#FFEE93"/>
<path d="M25.5707 88.5303C25.7554 89.3516 26.0632 89.906 26.8841 90.1319C27.5203 90.3167 27.746 90.5836 27.4792 91.4665C27.2535 92.1852 27.8076 93.2324 28.218 94.0332C29.6135 96.8463 31.2758 99.5156 32.9997 102.144C33.5128 102.904 34.2926 103.437 34.9904 104.053C35.4829 104.485 35.606 104.259 35.8112 103.787C36.8374 101.507 37.1657 99.0228 37.9455 96.6615C38.5817 94.7108 38.7664 92.6575 39.3616 90.6863C39.6899 89.6391 39.3616 89.4132 38.1302 89.4543C34.662 89.5364 31.1937 89.5364 27.7665 89.0641C27.0483 88.9615 26.371 88.7356 25.5707 88.5303Z" fill="#D0F4DE"/>
<path d="M57.5032 46.7858C57.729 47.7303 58.6114 47.8124 59.2886 48.1204C59.7606 48.3258 59.8222 48.49 59.7812 49.0034C59.5759 52.0218 60.8483 54.3626 63.2494 56.1079C66.3278 58.3255 69.5292 56.7444 71.3557 54.301C72.6075 52.6172 73.0795 50.6871 73.059 48.6132C73.059 48.0178 72.9564 47.6687 72.1766 47.833C70.9658 48.0588 69.8781 47.6482 68.9956 46.7858C68.2568 46.0671 67.5386 45.3484 66.8203 44.6298C64.4602 46.601 62.2233 46.642 59.5965 44.7735C58.8987 44.2602 58.0778 44.0959 57.4416 44.7324C56.8465 45.3484 56.867 46.1287 57.5032 46.7858C57.8931 45.5743 58.1599 45.3895 59.4939 45.7386C58.7756 45.8207 58.7961 46.2108 58.9603 46.7242C58.3857 46.5188 57.811 45.5743 57.5032 46.7858Z" fill="#D0F4DE"/>
<path d="M99.6763 68.9209C98.8965 70.0913 97.8088 70.9332 97.3163 72.2268C96.557 74.239 97.1111 76.4361 98.8554 77.7092C99.7174 78.3457 100.415 79.126 100.969 80.05C102.036 81.898 101.995 83.746 101.01 85.6145C100.62 86.3742 100.292 87.1545 99.9842 87.9553C99.5737 89.0436 99.6558 89.5569 100.21 90.6657C102.139 88.8588 104.191 87.134 105.238 84.67C106.243 82.2676 106.202 79.6804 105.381 77.2369C104.294 73.9721 102.098 71.3849 99.6763 68.9209Z" fill="#D0F4DE"/>
<path d="M88.6764 53.5003C87.7119 51.7755 87.0962 50.0096 86.85 48.1206C86.8294 47.9974 86.7679 47.751 86.7473 47.751C85.9059 47.8331 85.0645 47.8742 84.2436 48.059C83.7716 48.1616 84.0384 48.6339 84.0179 48.9419C83.9358 50.1328 83.156 51.2006 81.9862 51.5496C81.7605 51.6112 81.5963 51.6112 81.4321 51.8371C80.9396 52.4942 80.4881 52.4531 80.2008 51.6318C80.1392 51.4675 80.0982 51.2416 79.8929 51.2622C78.4974 51.3443 78.559 50.2766 78.3743 49.3936C78.3332 49.1472 78.4359 48.7571 78.0049 48.8187C77.6765 48.8598 77.7997 49.2088 77.7997 49.4142C77.7586 51.3854 78.0049 53.295 79.1131 55.0198C79.3799 55.4304 79.5646 55.5331 80.0776 55.3894C82.8687 54.6502 85.6597 53.9315 88.6764 53.5003Z" fill="#D0F4DE"/>
<path d="M34.4773 110.829C34.3336 110.295 33.6769 109.741 34.231 109.248C34.7441 108.796 35.3187 109.351 35.7907 109.618C37.022 110.336 38.2123 111.137 39.4231 111.897C39.731 112.082 40.0799 112.225 40.6545 112.513C39.4437 111.055 38.1713 110.11 36.9605 109.084C36.7347 108.878 36.4679 108.714 36.2422 108.509C35.9549 108.242 35.4213 107.996 35.7497 107.544C36.0986 107.051 36.468 107.564 36.7963 107.729C37.4735 108.078 38.1097 108.447 38.7664 108.796C38.9717 108.837 39.0538 108.755 38.9922 108.55C38.2944 108.119 37.9661 107.154 36.981 107.072C36.7347 107.051 36.8579 106.784 36.7963 106.681C36.468 106.209 36.2012 105.532 35.4213 106.209C35.0109 106.558 34.6825 106.168 34.621 105.778C34.4157 104.669 33.5127 104.156 32.7534 103.314C32.0557 105.552 30.5576 107.051 28.9773 108.447C28.4438 108.92 28.5464 109.125 29.0594 109.494C30.065 110.193 31.009 110.993 32.2404 111.322C32.5482 111.404 32.8766 111.65 33.1639 111.096C33.4922 110.48 33.9027 111.034 34.2721 111.24C34.621 111.26 34.621 111.096 34.4773 110.829Z" fill="#D0F4DE"/>
<path d="M25.1602 69.1875C21.9177 70.4195 19.0857 72.1443 16.4383 74.3619C18.0596 75.3475 19.6398 76.0662 21.4868 76.1072C23.2311 76.1483 24.6061 75.1627 25.0781 73.4995C25.4886 72.0827 25.5501 70.6659 25.1602 69.1875Z" fill="#020A13"/>
<path d="M12.7648 93.6018C14.5913 88.9408 14.5502 84.6698 11.1846 80.8096C8.92713 83.561 9.68645 89.9674 12.7648 93.6018Z" fill="#D0F4DE"/>
<path d="M29.9214 99.5361C29.3057 101.22 28.2796 102.431 27.3356 103.663C26.5968 104.628 25.427 105.306 24.2778 105.819C23.7031 106.066 23.7442 106.251 24.1136 106.661C24.7908 107.421 25.468 108.201 26.0837 109.002C26.3505 109.351 26.5762 109.413 26.9046 109.146C28.9363 107.483 30.9475 105.778 31.9736 103.232C32.0967 102.945 32.1993 102.698 31.9736 102.37C31.3169 101.487 30.7012 100.604 29.9214 99.5361Z" fill="#D0F4DE"/>
<path d="M86.7268 54.4242C85.516 54.6911 84.2436 54.958 82.9918 55.2455C82.5197 55.3482 82.1914 55.574 82.4171 56.19C82.9097 57.5658 83.3612 58.962 83.8126 60.3583C83.9768 60.8306 84.1615 61.0975 84.7361 60.8306C86.1317 60.2146 87.5272 59.578 88.8406 58.7567C89.3742 58.4076 89.4152 58.1612 89.0458 57.6479C88.4096 56.765 87.835 55.8204 87.4861 54.7732C87.3425 54.4036 87.1373 54.2804 86.7268 54.4242Z" fill="#D0F4DE"/>
<path d="M85.085 65.122C87.4451 64.6497 89.8257 63.6436 91.7547 61.6929C91.9394 61.5081 92.001 61.3849 91.7958 61.1796C91.7547 61.1385 91.7137 61.0769 91.6727 61.0153C91.1391 60.3583 90.7081 59.3727 90.0104 59.1263C89.2921 58.8593 88.6149 59.8449 87.8761 60.2351C86.5626 60.9127 85.2287 61.5081 83.7921 61.8572C83.0739 62.042 82.725 62.35 83.2586 63.1097C83.5869 63.582 83.7716 64.1569 83.9974 64.6908C84.1615 65.0604 84.4078 65.2452 85.085 65.122Z" fill="#D0F4DE"/>
<path d="M20.4606 102.267C21.1379 103.437 21.9793 104.177 22.6975 105.039C23.0464 105.45 23.4363 105.327 23.8057 105.142C24.4624 104.772 25.5501 104.546 25.5501 103.828C25.5501 103.191 24.4214 103.15 23.7852 102.904C22.7796 102.513 21.7125 102.288 20.4606 102.267Z" fill="#020A13"/>
<path d="M87.5067 47.5664C87.5887 49.6403 88.2455 51.3856 89.21 53.2747C89.641 52.3507 89.5589 51.5909 89.3126 50.9133C88.9227 49.7635 89.0869 48.3261 87.5067 47.5664Z" fill="#020A13"/>
<path d="M73.6952 50.769C74.2904 50.8306 74.3109 50.461 74.3314 50.0709C75.296 50.7485 75.3575 51.4672 74.4751 52.0421C74.3314 51.7136 75.0497 51.2002 74.3519 51.077C73.6542 50.9538 73.49 51.5698 73.3669 52.1242C73.2232 52.7608 73.7363 52.6786 74.0441 52.7402C74.8239 52.8634 75.6653 52.1448 75.7474 51.3234C75.8295 50.5842 74.8855 49.4754 74.1672 49.4344C73.8799 49.4138 73.8183 49.5781 73.7978 49.7834C73.7568 50.112 73.7363 50.4405 73.6952 50.769Z" fill="#020A13"/>
<path d="M81.9451 50.7079C82.4582 50.133 82.7045 49.6197 82.5813 48.9421C82.5198 48.5725 82.5813 48.2029 82.5813 47.8127C82.5813 47.4637 83.0123 46.8887 82.3556 46.8271C81.8425 46.7861 81.9246 47.4021 81.863 47.7922C81.6373 49.5375 81.6373 49.6813 81.9451 50.7079Z" fill="#020A13"/>
<path d="M80.8164 51.3445C81.4116 50.8722 81.1858 50.3999 81.1653 49.9277C81.1242 49.2501 81.1242 48.5725 81.1242 47.8744C81.1242 47.6896 81.3705 47.4637 81.0627 47.361C80.7548 47.2584 80.6522 47.5253 80.5907 47.7512C80.2418 48.9421 80.3649 50.092 80.8164 51.3445Z" fill="#020A13"/>
<path d="M79.934 49.1267C79.6467 48.5928 80.3034 47.6483 79.5235 47.6278C78.7026 47.6072 79.0515 48.5723 79.0515 49.1062C79.0515 49.64 78.9694 50.6051 79.5646 50.5435C80.2418 50.5024 79.5646 49.5784 79.934 49.1267Z" fill="#020A13"/>
<path d="M39.1974 107.544C38.8485 107.133 38.3354 106.784 38.869 106.148C39.1974 105.737 38.8896 105.367 38.5817 105.1C38.2534 104.813 37.9455 104.977 37.7813 105.347C37.6582 105.593 37.5146 105.429 37.3709 105.408C37.8429 106.25 38.0481 107.298 39.1974 107.544Z" fill="#020A13"/>
<path d="M83.0739 49.763C83.5459 49.3113 83.5048 48.7569 83.5869 48.2435C83.628 47.915 83.5459 47.5249 83.9974 47.4017C84.1821 47.3606 84.4489 47.4222 84.4078 47.0937C84.3668 46.8678 84.2436 46.7241 84.0384 46.6419C83.7511 46.5187 83.5869 46.7446 83.4638 46.9499C82.9097 47.8123 83.0328 48.7979 83.0739 49.763Z" fill="#020A13"/>
<path d="M101.051 90.9326C101.749 90.4603 102.734 89.4336 103.555 88.2222C102.59 89.2694 101.626 90.3166 101.051 90.9326Z" fill="#020A13"/>
<path d="M42.5631 121.692C44.5742 121.692 46.5649 121.692 48.576 121.692C48.576 121.65 48.576 121.609 48.576 121.589C46.5649 121.589 44.5332 121.589 42.522 121.589C42.522 121.609 42.5425 121.65 42.5631 121.692Z" fill="#020A13"/>
<path d="M34.4773 110.83C34.4363 110.994 34.4568 111.179 34.2516 111.261C34.7236 111.938 35.3598 112.472 36.1191 112.883C35.5855 112.205 35.0314 111.507 34.4773 110.83Z" fill="#020A13"/>
<path d="M38.9922 108.571C38.9101 108.653 38.8485 108.735 38.7664 108.817C39.341 109.187 39.9157 109.577 40.4698 109.947C40.2851 109.105 39.5052 108.981 38.9922 108.571Z" fill="#020A13"/>
<path d="M85.0645 46.293C85.044 46.642 84.7362 47.0322 85.1466 47.2991C85.1877 47.3196 85.3723 47.258 85.3929 47.1964C85.516 46.8268 85.3518 46.5599 85.0645 46.293Z" fill="#020A13"/>
<path d="M96.8853 93.6226C96.4338 93.8895 95.9823 94.1359 95.5308 94.4028C96.1465 94.3823 96.639 94.1564 97.0905 93.8074C97.0495 93.7047 96.9879 93.6431 96.8853 93.6226Z" fill="#020A13"/>
<path d="M96.8853 93.6223C96.9468 93.6839 97.0084 93.7455 97.0905 93.8071C97.4394 93.6018 97.8293 93.4786 98.1782 93.0269C97.583 93.0474 97.2752 93.417 96.8853 93.6223Z" fill="#020A13"/>
<path d="M115.068 103.622C116.135 103.807 117.059 102.965 118.146 103.479C118.536 103.663 118.639 103.088 118.372 102.78C117.366 101.713 118.29 100.583 118.269 99.495C118.269 99.1665 118.659 98.9817 119.008 98.879C119.48 98.7353 119.46 98.3246 119.398 97.955C119.316 97.5238 118.967 97.4828 118.618 97.4828C117.325 97.4622 116.607 98.3247 116.874 99.5772C117.1 100.604 116.812 100.953 115.745 100.973C115.581 100.973 115.396 100.973 115.232 100.973C113.652 100.932 113.714 100.932 113.652 102.534C113.631 103.725 114.309 103.704 115.068 103.622Z" fill="#D0F4DE"/>
<path d="M122.723 95.4498C122.723 95.0802 122.702 94.6284 122.312 94.4847C121.799 94.2999 121.881 94.8954 121.738 95.1418C121.491 95.614 121.143 95.8399 120.629 95.9015C120.383 95.922 120.055 96.0452 120.096 96.3943C120.137 96.7639 120.404 96.9898 120.773 97.0514C121.697 97.2156 122.723 96.3738 122.723 95.4498Z" fill="#D0F4DE"/>
<path d="M91.1596 142.184C91.2417 142.553 91.488 142.677 91.8163 142.635C92.0626 142.594 92.4115 142.574 92.3909 142.245C92.3704 141.958 92.2062 141.609 91.8163 141.732C91.57 141.794 91.1801 141.753 91.1596 142.184Z" fill="#D0F4DE"/>
<path d="M130.583 109.043C131.568 108.94 132.758 108.53 133.866 107.914C134.769 107.4 135.098 106.559 134.749 105.758C134.359 104.834 133.538 104.69 132.697 104.752C131.855 104.813 131.096 105.183 130.521 105.778C130.008 106.312 129.475 106.476 128.777 106.209C128.469 106.086 128.059 105.799 127.751 106.23C127.504 106.6 127.402 107.031 127.545 107.503C127.874 108.468 128.859 109.043 130.583 109.043Z" fill="#020A13"/>
<path d="M127.484 100.378C128.777 100.378 129.782 100.152 130.747 99.8646C131.26 99.7003 131.67 99.3923 131.711 98.7969C131.753 98.1809 131.363 97.8729 130.85 97.647C129.187 96.9694 127.443 96.9489 125.719 97.339C124.713 97.5649 124.488 98.5915 125.144 99.4129C125.842 100.275 126.766 100.398 127.484 100.378Z" fill="#020A13"/>
<path d="M143.142 99.6184C143.265 99.7416 143.327 99.8237 143.409 99.8853C143.676 100.132 143.82 100.85 144.209 100.563C144.661 100.255 144.312 99.6594 144.004 99.2898C143.512 98.6738 142.876 98.181 142.055 98.0578C141.726 98.0168 141.418 98.1194 141.316 98.4685C141.213 98.7765 141.459 98.8997 141.706 98.9408C142.26 99.064 141.911 99.3925 141.87 99.6594C141.829 100.029 141.48 100.542 142.014 100.727C142.465 100.891 142.691 100.378 142.917 100.05C143.019 99.9469 143.04 99.8237 143.142 99.6184Z" fill="#020A13"/>
<path d="M130.295 96.2917C130.521 96.2917 130.767 96.3328 130.829 96.0658C130.87 95.8194 130.665 95.6962 130.46 95.6552C129.392 95.4293 128.489 94.9365 127.771 94.0946C127.648 93.9509 127.463 93.7661 127.258 93.992C127.094 94.1768 127.238 94.3821 127.34 94.5464C128.038 95.6552 129.126 96.0864 130.295 96.2917Z" fill="#020A13"/>
<path d="M68.2979 89.536C68.7699 89.4949 69.2624 89.5155 69.7345 89.4333C71.7251 89.1048 72.7717 87.5032 72.3202 85.532C72.1561 84.8339 71.8688 84.1563 71.4994 83.5608C70.9863 82.76 71.3147 82.3493 72.0945 82.1645C72.6486 82.0208 73.2232 81.9387 73.7978 81.8565C74.6187 81.7539 75.3986 81.5691 76.1169 81.1173C78.7437 79.4131 78.5385 78.2221 78.1896 75.7992C78.1075 75.2037 77.7176 74.7931 77.1019 74.7315C76.3836 74.6699 76.3221 75.2653 76.1784 75.7376C76.0348 76.1893 75.9322 76.6616 75.7885 77.1133C75.3575 78.5712 74.4751 79.4336 72.8333 79.4131C72.0124 79.3925 71.2121 79.6595 70.4733 80.0291C68.7904 80.912 68.1953 82.3288 68.5031 84.8544C68.5852 85.5936 68.6057 86.3739 67.8259 86.7229C67.0871 87.072 66.4509 86.6203 65.8968 86.1069C65.5069 85.7373 65.3017 85.2856 65.2196 84.7723C65.158 84.3411 65.1375 83.8893 65.0554 83.4581C64.9323 82.8011 64.3782 82.5957 63.8446 82.5547C63.27 82.5136 63.1058 82.9859 62.9827 83.4992C62.2849 86.5176 64.8912 89.9467 68.2979 89.536Z" fill="#020A13"/>
<path d="M42.481 82.0212C44.4716 85.245 46.9548 87.9554 50.4436 89.6802C54.3223 91.5898 58.3856 92.2879 62.6748 91.9594C65.1374 91.7746 67.6001 91.8772 70.0423 92.1442C71.9303 92.3495 73.6952 92.9039 75.378 94.1359C75.2549 93.1708 74.6597 92.8218 74.0646 92.4932C71.9919 91.3434 69.6934 91.2612 67.3949 91.1586C64.9733 91.0354 62.5517 91.3434 60.13 91.3639C54.0555 91.3844 49.1096 88.941 45.0667 84.4852C44.2664 83.6023 43.466 82.7194 42.6656 81.8364C42.6041 81.898 42.5425 81.9596 42.481 82.0212Z" fill="#020A13"/>
<path d="M40.0799 106.086C40.0183 106.661 40.5724 106.887 40.4493 107.339C40.3877 107.565 40.4493 107.75 40.7161 107.77C40.9418 107.791 41.106 107.668 41.2086 107.483C41.3112 107.298 41.3317 107.072 41.1676 106.928C40.8392 106.62 40.4698 106.374 40.0799 106.086Z" fill="#020A13"/>
<path d="M69.5703 49.1677C68.9957 49.1472 68.4826 49.3114 68.0927 49.7426C67.6617 50.2149 67.6207 50.7282 68.1132 51.18C68.893 51.8781 69.8165 52.2888 70.8837 52.2888C71.4378 52.2888 71.8687 52.0629 72.115 51.5496C72.3613 51.0157 72.1561 50.5434 71.8072 50.1328C71.2326 49.4346 70.4527 49.1677 69.5703 49.1677Z" fill="#020A13"/>
<path d="M63.0442 46.7242C61.7513 46.7653 61.1767 47.176 61.2382 48.0178C61.2998 48.9213 62.6543 49.8042 63.9266 49.7632C64.686 49.7426 65.3016 49.5168 65.3016 48.6133C65.3016 47.5456 64.2345 46.6626 63.0442 46.7242Z" fill="#020A13"/>
<path d="M66.2662 54.383C66.2867 53.3974 65.6505 52.535 65.0348 52.5761C64.5423 52.6172 64.3371 52.9457 64.296 53.3974C64.2345 54.1366 64.9117 54.999 65.5684 54.999C66.102 55.0196 66.2457 54.6705 66.2662 54.383Z" fill="#020A13"/>
<path d="M66.7177 51.9397C66.9434 51.8986 67.2718 52.0423 67.3333 51.7138C67.3744 51.4058 67.0255 51.4058 66.8408 51.3031C66.5535 51.1389 66.0815 51.0978 66.0815 50.7077C66.0815 50.297 66.574 50.4613 66.8203 50.3586C67.3949 50.1327 67.5796 49.7015 67.477 49.1471C67.4359 48.9212 67.3539 48.6338 67.046 48.6748C66.7587 48.6954 66.8818 48.9828 66.8613 49.1676C66.8408 49.5167 66.6766 49.7426 66.3072 49.7836C65.6505 49.8863 65.0554 50.1327 65.2196 50.9335C65.3837 51.7138 66.0815 51.837 66.7177 51.9397Z" fill="#020A13"/>
<path d="M57.5032 46.786C57.7905 46.4575 58.0368 46.1084 58.4267 46.7244C58.5909 46.9914 58.8987 47.2172 59.2886 47.1762C59.5144 46.6834 58.9603 46.4164 58.9603 46.0058C59.2886 45.821 59.3502 46.3959 59.7196 46.17C59.7812 45.3692 59.2476 45.205 58.5909 45.246C57.6879 45.3076 57.4006 45.7594 57.5032 46.786C57.5032 46.786 57.5237 46.8066 57.5032 46.786Z" fill="#020A13"/>
<path d="M126.991 99.6388C128.223 99.803 129.167 99.7414 130.09 99.495C130.439 99.4129 130.911 99.3308 130.932 98.879C130.952 98.4889 130.521 98.4068 130.213 98.263C129.659 97.9961 129.044 97.8934 128.448 97.8113C127.894 97.7292 127.176 97.4828 127.689 98.5505C127.874 98.9612 127.504 99.2897 126.991 99.6388Z" fill="#D0F4DE"/>
<path d="M69.0367 51.1594C69.3856 51.4879 69.8165 51.5495 70.2065 51.6111C70.6374 51.6932 71.2326 51.7754 71.3147 51.2415C71.4173 50.6255 70.8427 50.338 70.3296 50.1122C70.1449 50.03 70.0012 50.0711 70.0012 50.3175C69.9807 50.9335 69.4882 51.0156 69.0367 51.1594Z" fill="#D0F4DE"/>
<path d="M61.8949 48.0794C62.3259 48.9212 62.9005 49.1676 63.5778 49.2087C63.9882 49.2292 64.5834 49.3319 64.6449 48.7364C64.7065 48.182 64.255 47.833 63.8035 47.566C63.6393 47.4634 63.4957 47.4839 63.4341 47.7098C63.1673 48.4695 62.5927 48.3258 61.8949 48.0794Z" fill="#D0F4DE"/>
<path d="M179.289 85.011C178.53 85.0616 178.448 85.9701 177.96 86.545C177.744 86.7798 177.528 87.0147 177.313 87.2495C177.207 87.192 177.123 87.1541 177.018 87.0966C177.14 86.6186 177.221 86.1421 177.407 85.7233C178.327 83.7735 179.351 81.8812 180.229 79.933C180.622 79.0739 180.866 78.1178 181.091 77.1831C181.436 75.7292 180.374 74.5573 179.397 73.8965C179.227 73.7798 178.941 73.8322 178.652 73.8025C178.624 73.1864 178.16 72.9579 177.617 72.7736C177.199 72.6256 176.78 72.4776 176.438 72.203C176.247 72.0666 176.251 71.7167 176.158 71.4735C176.383 71.444 176.624 71.311 176.812 71.3653C177.709 71.6384 178.589 71.9739 179.488 72.2881C182.603 73.3375 185.597 71.7582 187.186 69.1647C188.047 67.7521 188.866 66.3001 189.768 64.8858C189.921 64.6329 190.289 64.5772 190.571 64.4426C190.543 64.7317 190.597 65.0176 190.485 65.2689C189.894 66.7326 189.136 68.1616 188.711 69.6598C187.983 72.1782 188.84 75.1687 191.127 77.0327C191.256 77.1511 191.444 77.2054 191.512 77.3467C191.67 77.649 191.767 77.9744 191.884 78.2784C191.559 78.3735 191.238 78.5508 190.929 78.5425C189.714 78.5289 188.509 78.2885 187.322 78.4178C184.31 78.7222 182.038 80.3346 180.359 82.7672C180.167 83.0628 179.933 83.3601 179.763 83.6755C179.596 84.073 179.491 84.4886 179.289 85.011ZM180.695 73.4748C181.462 74.4937 182.331 75.488 182.105 76.8549C181.872 78.0574 181.535 79.2435 181.256 80.3245C182.298 79.275 183.532 78.3621 185.057 77.9519C186.562 77.5632 188.096 77.3584 189.443 77.0994C188.969 76.1923 188.306 75.1898 187.989 74.1119C187.65 73.0143 187.637 71.8215 187.441 70.6976C184.871 72.9803 184.628 73.0722 180.695 73.4748Z" fill="#020A13"/>
</g>
<g clip-path="url(#clip2)">
<path d="M14.05 0.395622C16.5787 0.906873 18.2588 3.04334 17.8444 5.18168C17.5797 6.51741 15.1194 7.9332 13.5698 7.59485C11.5278 7.1925 10.2 5.14748 10.6651 2.97005C10.9764 1.27502 12.5394 0.108 14.05 0.395622ZM14.126 1.91263C13.2364 1.75137 12.0608 2.74037 11.9266 3.77335C11.7982 4.76142 12.6333 5.69201 13.8364 5.894C15.0394 6.09598 16.1859 5.33154 16.3765 4.21455C16.5672 3.09757 15.6425 2.15534 14.126 1.91263Z" fill="#020A13"/>
<path d="M28.7703 23.4085C28.566 24.9804 27.6999 25.6899 26.2672 25.5038C25.0135 25.3409 24.2348 24.3263 24.4371 23.1195C24.6005 21.8619 25.8151 20.9236 26.985 21.03C28.2445 21.148 28.9395 22.106 28.7703 23.4085Z" fill="#020A13"/>
</g>
<defs>
<clipPath id="clip0">
<rect width="12" height="14" fill="white" transform="matrix(-1 0 0 1 34 173)"/>
</clipPath>
<clipPath id="clip1">
<rect width="202" height="154" fill="white" transform="matrix(-1 0 0 1 202 25)"/>
</clipPath>
<clipPath id="clip2">
<rect width="23.3243" height="20.633" fill="white" transform="translate(31.4664 2.65869) rotate(97.4033)"/>
</clipPath>
</defs>
</svg>
