<svg width="165" height="189" viewBox="0 0 165 189" fill="none" xmlns="http://www.w3.org/2000/svg">
<g clip-path="url(#clip0)">
<path d="M6.04996 40.7213C8.57864 41.2326 10.2588 43.369 9.84432 45.5074C9.57971 46.8431 7.11933 48.2589 5.5698 47.9205C3.52778 47.5182 2.20001 45.4732 2.66505 43.2957C2.97635 41.6007 4.53937 40.4337 6.04996 40.7213ZM6.12602 42.2383C5.2364 42.0771 4.06074 43.0661 3.92652 44.099C3.79814 45.0871 4.63331 46.0177 5.83633 46.2197C7.03935 46.4217 8.18583 45.6572 8.3765 44.5402C8.56716 43.4232 7.64244 42.481 6.12602 42.2383Z" fill="#020A13"/>
<path d="M20.7703 63.7341C20.566 65.3061 19.6999 66.0156 18.2671 65.8294C17.0135 65.6665 16.2348 64.6519 16.4371 63.4451C16.6005 62.1876 17.8151 61.2493 18.985 61.3557C20.2445 61.4736 20.9395 62.4317 20.7703 63.7341Z" fill="#020A13"/>
</g>
<path d="M139.78 69.7751C138.78 69.8417 138.673 71.0374 138.03 71.7938C137.747 72.1029 137.463 72.412 137.179 72.7211C137.04 72.6453 136.93 72.5956 136.791 72.5198C136.951 71.8907 137.058 71.2637 137.304 70.7125C138.513 68.1465 139.862 65.6562 141.017 63.0924C141.534 61.9618 141.856 60.7036 142.151 59.4734C142.605 57.5601 141.208 56.0179 139.922 55.1482C139.698 54.9946 139.322 55.0636 138.941 55.0246C138.904 54.2137 138.295 53.913 137.579 53.6705C137.029 53.4757 136.478 53.2809 136.028 52.9196C135.776 52.74 135.782 52.2795 135.659 51.9595C135.955 51.9207 136.272 51.7457 136.519 51.8171C137.7 52.1765 138.858 52.6181 140.042 53.0315C144.14 54.4126 148.081 52.3342 150.172 48.9211C151.306 47.0621 152.383 45.1512 153.571 43.29C153.772 42.9571 154.256 42.8838 154.627 42.7067C154.591 43.0872 154.662 43.4634 154.515 43.7942C153.736 45.7204 152.739 47.601 152.179 49.5727C151.221 52.8869 152.349 56.8224 155.359 59.2756C155.529 59.4313 155.776 59.5027 155.866 59.6887C156.073 60.0866 156.201 60.5148 156.355 60.9149C155.927 61.0401 155.505 61.2734 155.098 61.2625C153.499 61.2445 151.914 60.9282 150.351 61.0984C146.388 61.4989 143.398 63.6209 141.188 66.8222C140.935 67.2113 140.628 67.6025 140.403 68.0175C140.183 68.5407 140.046 69.0876 139.78 69.7751ZM141.63 54.5932C142.639 55.9342 143.783 57.2427 143.486 59.0415C143.179 60.6241 142.736 62.185 142.368 63.6075C143.74 62.2265 145.364 61.025 147.371 60.4853C149.351 59.9736 151.37 59.7042 153.142 59.3633C152.519 58.1695 151.646 56.8503 151.229 55.4317C150.784 53.9872 150.766 52.4175 150.508 50.9385C147.125 53.9425 146.806 54.0634 141.63 54.5932Z" fill="#020A13"/>
<g clip-path="url(#clip1)">
<path d="M125.786 134.398L125.759 134.405H125.732C125.732 133.836 125.732 133.274 125.732 132.705C125.752 132.698 125.773 132.698 125.786 132.705C125.786 133.274 125.786 133.836 125.786 134.398Z" fill="#C6C6C6"/>
<path d="M24.2236 137.847C24.2304 138.009 24.2778 138.179 24.1694 138.328C24.1694 138.172 24.1694 138.009 24.1694 137.854C24.183 137.833 24.2033 137.826 24.2236 137.847Z" fill="#505050"/>
<path d="M24.2236 137.846C24.2033 137.846 24.183 137.846 24.1694 137.853C24.1694 137.718 24.1694 137.582 24.1694 137.447C24.3117 137.562 24.2033 137.718 24.2236 137.846Z" fill="#8D8D8D"/>
<path d="M47.9206 94.9508C47.6903 94.8899 47.4532 94.8492 47.2093 94.8424C46.979 94.8492 46.769 94.7612 46.5319 94.7544C46.2677 94.7476 46.2744 94.5105 46.2541 94.314C46.3151 94.1989 46.2541 94.0702 46.3015 93.955C46.4709 92.6611 46.7893 91.401 47.1416 90.1477C47.4329 89.1045 47.7445 88.0612 48.151 87.0518C48.7471 85.5682 49.5059 84.1862 50.522 82.9465C51.5585 81.6797 52.8728 80.8058 54.3564 80.1215C56.4565 79.1528 58.6514 78.4957 60.8869 77.974C62.3841 77.6218 63.9016 77.3711 65.4191 77.1408C65.5274 77.0866 65.6629 77.1543 65.7713 77.0866C65.8594 77.0798 65.9475 77.073 66.0288 77.073C66.1439 77.0188 66.2726 77.0866 66.381 77.0256C66.4894 77.0189 66.5978 77.0121 66.7062 77.0053C66.8485 76.9511 67.0043 77.0189 67.1398 76.9579C67.3362 76.9511 67.5259 76.9443 67.7224 76.9376C68.1356 76.8698 68.5556 76.9647 68.9621 76.8901C69.0163 76.8901 69.0773 76.8969 69.1315 76.8969C69.3144 78.1502 69.565 79.3831 70.0189 80.5687C70.317 81.3477 70.737 82.0455 71.367 82.6078C71.4686 82.6958 71.5499 82.7907 71.5906 82.9329C72.0716 84.5859 73.0335 85.9544 74.1581 87.2144C74.2868 87.3567 74.3478 87.5057 74.3613 87.6954C74.4901 89.5719 74.6188 91.4552 74.7746 93.3317C74.9643 95.5876 75.181 97.8435 75.4927 100.093C75.9059 103.067 76.4072 106.014 77.1931 108.913C77.376 109.584 77.5792 110.254 77.796 110.918C77.8841 111.189 77.8231 111.23 77.5589 111.23C76.3937 111.223 75.2352 111.23 74.07 111.237C69.1857 111.271 64.2945 111.304 59.4101 111.338C59.234 111.338 59.0782 111.298 58.9224 111.223C58.272 110.918 57.6149 110.607 56.9578 110.322C56.7748 110.241 56.741 110.166 56.7884 109.97C57.581 106.86 58.2856 103.724 58.8682 100.567C59.1188 99.212 59.322 97.8571 59.5592 96.5022C59.593 96.3193 59.5456 96.2448 59.3627 96.2583C59.1933 96.2719 59.0307 96.177 58.8614 96.2244C58.7598 96.2786 58.6446 96.2854 58.5294 96.2719C55.1016 95.8993 51.6669 95.5267 48.2458 95.0728C48.1374 95.0592 48.0155 95.0525 47.9206 94.9508Z" fill="#FE0E11"/>
<path d="M90.9994 9.68729C91.3584 9.71438 91.7175 9.71438 92.0765 9.68729C92.3136 9.7618 92.5575 9.67374 92.7946 9.74148C92.9233 9.74826 93.0452 9.75503 93.174 9.76181C93.2891 9.816 93.4246 9.7618 93.5398 9.80923C95.1047 10.026 96.5341 10.5815 97.8009 11.5232C98.0583 11.7128 98.3022 11.9229 98.5597 12.1193C98.6613 12.1735 98.7968 12.1938 98.8171 12.3429C100.057 13.6232 101.039 15.0865 101.757 16.7192C101.96 17.1866 102.157 17.654 102.306 18.1418C102.36 18.3247 102.414 18.3992 102.645 18.3044C103.451 17.9995 104.264 17.7015 105.117 17.5253C105.686 17.4034 106.255 17.3018 106.824 17.1866C106.94 17.1324 107.068 17.2002 107.177 17.1392C107.265 17.1324 107.346 17.1256 107.434 17.1189C107.576 17.0647 107.732 17.1324 107.875 17.0714C108.416 17.0714 108.958 17.0714 109.5 17.0714C109.643 17.1324 109.792 17.0714 109.934 17.1189C111.316 17.3018 112.644 17.6744 113.877 18.3586C115.733 19.3815 116.939 20.8922 117.366 22.9855C117.44 23.3581 117.481 23.7375 117.535 24.1101C117.596 24.4149 117.508 24.7266 117.589 25.0314C117.582 25.045 117.576 25.0585 117.569 25.0721C117.569 25.0721 117.582 25.0856 117.589 25.0856C117.508 25.4582 117.603 25.8376 117.535 26.2034C117.244 29.0351 116.404 31.7178 115.286 34.3192C114.832 35.3828 114.337 36.4261 113.802 37.4558C113.612 37.8284 113.233 37.8893 112.962 38.1061C112.183 38.7361 111.208 38.9529 110.259 39.2036C109.331 39.4475 108.389 39.6236 107.441 39.7726C106.689 39.8878 105.937 39.9894 105.185 40.0978C105.07 40.152 104.941 40.091 104.826 40.152C104.745 40.1588 104.657 40.1656 104.575 40.1723C104.46 40.2265 104.331 40.1588 104.223 40.2265C104.135 40.2333 104.054 40.2401 103.966 40.2468C103.851 40.2943 103.722 40.2333 103.607 40.2943C103.525 40.301 103.437 40.3078 103.356 40.3078C103.234 40.3552 103.099 40.3078 102.977 40.362C102.855 40.3688 102.733 40.3756 102.611 40.3823C102.489 40.4298 102.36 40.3756 102.238 40.4298C102.137 40.4365 102.035 40.4433 101.933 40.4501C101.791 40.5043 101.635 40.4433 101.493 40.5043C101.371 40.5111 101.249 40.5178 101.12 40.5178C100.958 40.5788 100.788 40.4975 100.626 40.572C100.497 40.5788 100.368 40.5856 100.24 40.5923C100.077 40.6465 99.901 40.5788 99.7384 40.6398C99.5894 40.6465 99.4403 40.6533 99.2913 40.6601C99.1219 40.7143 98.9458 40.6465 98.7832 40.7075C98.6138 40.7143 98.4445 40.7211 98.2751 40.7211C98.0854 40.782 97.889 40.7007 97.6993 40.7685C97.5096 40.7753 97.3132 40.782 97.1235 40.7888C96.9135 40.8498 96.6967 40.7685 96.4867 40.8362C96.2699 40.843 96.0531 40.8498 95.8363 40.8565C95.606 40.9175 95.3621 40.8362 95.1318 40.904C94.8947 40.9107 94.6576 40.9175 94.4137 40.9243C94.1359 40.9853 93.8446 40.8972 93.5669 40.9717C93.2824 40.9785 93.0046 40.9853 92.7201 40.9853C92.3949 41.053 92.0562 40.9582 91.731 41.0395C91.3584 41.0462 90.9858 41.053 90.62 41.053C90.1593 41.1208 89.6919 41.0259 89.2312 41.1072C89.1567 41.1004 89.0822 41.0937 89.0009 41.0869C88.7367 40.7346 88.8248 40.3078 88.7841 39.9149C88.6419 38.56 88.4928 37.2051 88.3641 35.8502C88.337 35.5725 88.1947 35.6741 88.0728 35.7486C87.4292 36.1212 86.7721 36.4667 86.115 36.8257C84.9701 37.4558 83.8252 38.0926 82.6803 38.7158C82.5584 38.7836 82.3552 38.8242 82.3552 38.9733C82.3552 39.1223 82.5652 39.1426 82.6939 39.2104C83.7033 39.7659 84.733 40.2739 85.7356 40.8362C85.8508 40.8972 85.993 40.9311 86.0201 41.1072C85.7695 41.1885 85.5053 41.0937 85.2546 41.1614C83.622 41.1614 81.9893 41.1682 80.3567 41.1682C79.4422 41.1682 78.5344 41.1749 77.6198 41.1817C77.315 41.2291 77.0101 41.202 76.712 41.202C75.4588 41.2088 74.2123 41.202 72.959 41.202C72.5119 41.202 72.058 41.1817 71.6109 41.263C71.3264 41.2766 71.0554 41.1817 70.7844 41.114C67.553 40.2739 64.3284 39.4339 61.0902 38.6074C60.7379 38.5194 60.6837 38.5532 60.7176 38.9123C60.7718 39.4746 60.826 40.0368 60.9411 40.5856C60.975 40.7482 61.0427 40.9107 60.9344 41.0733C60.8666 41.0801 60.7921 41.0869 60.7243 41.0937C60.3314 41.0124 59.9317 41.1072 59.5388 41.0395C59.234 41.0327 58.9291 41.0259 58.631 41.0259C58.3533 40.9514 58.062 41.0395 57.7775 40.9717C57.5607 40.9649 57.3439 40.9582 57.1271 40.9514C56.8968 40.8769 56.6529 40.9649 56.4226 40.904C56.2532 40.8972 56.0771 40.8904 55.9077 40.8836C55.7248 40.8159 55.5216 40.8904 55.3387 40.8362C55.1896 40.8295 55.0474 40.8227 54.8983 40.8159C54.7357 40.7482 54.5528 40.8227 54.3902 40.7617C54.2683 40.7549 54.1464 40.7482 54.0176 40.7482C53.8957 40.694 53.7602 40.7414 53.645 40.7007C53.5367 40.694 53.4283 40.6872 53.3199 40.6804C53.1844 40.6127 53.0353 40.6872 52.8931 40.6262C52.8118 40.6194 52.7305 40.6127 52.6492 40.6059C52.534 40.5449 52.3985 40.6059 52.2834 40.5585C51.694 40.4907 51.0911 40.4569 50.5085 40.3349C49.5465 40.1317 48.571 39.9555 47.6497 39.5762C47.1551 39.3729 46.647 39.1697 46.3422 38.7429C46.0577 38.3432 45.658 38.1942 45.2583 38.0248C44.364 37.6387 43.5782 37.09 42.9075 36.399C41.9523 35.4099 41.3088 34.2515 40.9971 32.9033C40.9226 32.5849 40.8752 32.2733 40.8278 31.9481C40.7804 31.833 40.8413 31.7043 40.7804 31.5959C40.7804 31.1149 40.7804 30.6271 40.7804 30.1461C40.8413 30.031 40.7804 29.9023 40.8346 29.7871C40.9497 28.6761 41.2749 27.6193 41.7965 26.637C42.7788 24.7808 44.1744 23.331 46.0306 22.3149C46.7487 21.9219 47.5074 21.7187 48.2932 21.5765C48.4287 21.5223 48.5845 21.59 48.72 21.529C49.2213 21.529 49.7226 21.529 50.2239 21.529C50.3662 21.59 50.522 21.5223 50.6643 21.5832C52.3308 21.8068 53.9567 22.1997 55.5283 22.7891C55.7722 22.8839 55.8467 22.762 55.8942 22.5858C56.1584 21.4613 56.5377 20.3638 56.9171 19.2799C57.2761 18.2637 57.6691 17.2476 58.0891 16.2517C58.6717 14.8562 59.2611 13.4674 59.9724 12.1329C60.5889 10.988 61.2392 9.86342 61.9505 8.76596C63.0141 7.13332 64.1861 5.59551 65.5681 4.2203C66.8484 2.9467 68.2711 1.84924 69.9173 1.0905C71.1367 0.528223 72.4306 0.1895 73.7652 0.0336878C74.0226 -0.0340567 74.2868 0.0607856 74.5442 -0.0205078C74.7678 0.00659001 74.9913 0.0201389 75.2149 -0.0205078C75.452 0.0540112 75.6959 -0.0272823 75.933 0.0336878C78.0195 0.284343 79.9909 0.900818 81.7861 2.00505C83.2087 2.87896 84.1639 4.18643 84.9295 5.63616C85.7153 7.11977 86.2437 8.69822 86.5824 10.3444C86.6027 10.446 86.5756 10.7238 86.8466 10.5815C87.7205 10.1412 88.669 9.95826 89.6242 9.7889C89.7393 9.73471 89.8748 9.79568 89.99 9.73471C90.0916 9.72793 90.2 9.72116 90.3016 9.71438C90.5252 9.68051 90.769 9.7618 90.9994 9.68729Z" fill="black"/>
<path d="M97.7603 89.8224C97.5367 89.7411 97.3064 89.7478 97.0761 89.7478C96.6696 89.8562 96.2699 89.7343 95.8702 89.6869C93.1469 89.3753 90.4303 89.0365 87.707 88.7046C86.5553 88.5623 85.4037 88.4133 84.252 88.271C84.0894 88.2507 83.9133 88.2371 83.771 88.1288C83.053 87.9391 83.053 87.9391 83.053 88.6639C83.053 89.0501 83.053 89.4294 83.0055 89.8224C82.8226 89.1246 82.6397 88.4336 82.4568 87.7358C82.2807 87.0516 82.1045 86.3606 81.9216 85.6764C81.8674 85.4664 81.8878 85.297 81.9894 85.1006C83.0055 83.197 83.3646 81.1646 83.2155 79.0239C83.1817 78.5836 83.1546 78.15 83.1275 77.7097C83.1207 77.5945 83.1275 77.4387 83.0259 77.4048C82.6668 77.2625 82.8226 76.9916 82.8429 76.7545C82.931 75.7315 83.0259 74.7154 83.1207 73.6924C83.412 73.645 83.7101 73.5976 84.0014 73.5501C84.1165 73.4959 84.252 73.5569 84.3672 73.5027C84.4959 73.4959 84.6179 73.4892 84.7466 73.4824C84.9092 73.4282 85.0853 73.4959 85.2479 73.435C85.634 73.435 86.0202 73.435 86.4063 73.435C86.5689 73.5027 86.745 73.4282 86.9076 73.4824C87.3276 73.584 87.768 73.5976 88.1812 73.7534C88.2761 73.7872 88.398 73.794 88.5132 73.7466C89.2651 73.4485 90.051 73.3198 90.8436 73.2046C91.0536 73.1437 91.2704 73.225 91.4804 73.1572C91.6159 73.1843 91.7581 73.1911 91.8936 73.1572C92.1036 73.225 92.3204 73.1437 92.5304 73.2046C93.5737 73.3537 94.5831 73.6043 95.5383 74.0515C97.3674 74.8983 98.5461 76.3141 99.2371 78.1839C99.7994 79.7149 100.206 81.2798 100.396 82.8989C100.429 83.197 100.49 83.495 100.538 83.7931C100.592 83.9286 100.524 84.0844 100.585 84.2199C100.592 84.3486 100.599 84.4773 100.606 84.606C100.667 84.7957 100.585 84.9922 100.653 85.1751C100.653 86.0355 100.653 86.8958 100.653 87.7494C100.585 87.912 100.66 88.0881 100.606 88.2575C100.599 88.3659 100.592 88.4742 100.592 88.5826C100.531 88.6978 100.592 88.8265 100.538 88.9349C100.477 89.2872 100.382 89.6327 100.382 89.9917C100.287 90.1137 100.165 90.0391 100.05 90.0324C99.9213 90.0256 99.7926 90.0188 99.6639 90.012C99.5487 89.9511 99.42 90.012 99.3048 89.9646C99.1965 89.9579 99.0881 89.9511 98.9797 89.9443C98.8713 89.8833 98.7426 89.9443 98.6274 89.8969C98.519 89.8901 98.4174 89.8833 98.309 89.8766C98.1938 89.8156 98.0651 89.8766 97.95 89.8291C97.9025 89.8291 97.8619 89.8359 97.8145 89.8359C97.7806 89.863 97.7671 89.8562 97.7603 89.8224Z" fill="#FE0E11"/>
<path d="M60.9344 41.0941C60.7853 40.3422 60.6634 39.5834 60.6227 38.8179C60.5956 38.3911 60.6024 38.3911 61.0089 38.4927C64.4097 39.3734 67.8037 40.2473 71.2044 41.128C71.3128 41.1551 71.4212 41.1754 71.5364 41.1957C71.6651 41.2364 71.8209 41.189 71.9293 41.3041C72.7897 41.5345 73.6433 41.7648 74.5036 41.9883C74.5714 42.0087 74.6323 42.0222 74.6797 42.0967C73.6162 43.4449 72.4374 44.671 71.0148 45.6669C70.107 46.2969 69.1382 46.7576 68.0746 47.0218C67.8037 47.0895 67.5259 47.1098 67.2482 47.1505C66.9772 47.1844 66.7062 47.1844 66.4352 47.1505C65.392 47.0963 64.4571 46.7372 63.6442 46.1004C63.0683 45.6466 62.5738 45.0978 62.1944 44.461C61.5847 43.411 61.1579 42.2932 60.9344 41.0941Z" fill="#FE0E11"/>
<path d="M80.4448 54.2497H80.4245C80.289 54.1887 80.1332 54.2497 79.9977 54.2022C78.5479 53.999 77.674 53.0777 77.4505 51.8244C77.0643 49.643 78.8799 48.0239 80.9122 48.3423C82.1655 48.5387 83.3646 49.6227 83.4256 51.1334C83.4797 52.5018 82.5923 53.8432 80.9732 54.1751C80.9393 54.1819 80.9055 54.1887 80.8716 54.1955C80.7293 54.2564 80.5803 54.1887 80.4448 54.2497Z" fill="#00B1B1"/>
<path d="M85.2547 41.175C85.4985 41.1547 85.7356 41.1411 86.0676 41.114C84.6856 40.3824 83.3849 39.6914 82.0435 38.9801C82.2603 38.8581 82.4432 38.7565 82.6329 38.6549C84.4553 37.6523 86.2776 36.6497 88.0999 35.647C88.4251 35.4709 88.4183 35.4709 88.4522 35.8503C88.6284 37.5981 88.818 39.3459 89.0009 41.0937C89.0077 41.5205 89.0619 41.9405 89.1229 42.3605C89.1364 42.4689 89.15 42.6247 89.089 42.6857C88.9874 42.7873 88.8993 42.6315 88.8113 42.5841C88.0254 42.1776 87.2328 41.7779 86.4673 41.3376C86.0744 41.1073 85.6611 41.2563 85.2547 41.175Z" fill="#FED1E0"/>
<path d="M83.2359 68.7065C83.1275 68.2052 83.1952 67.7039 83.1885 67.1958C83.3104 67.6971 83.2156 68.2052 83.2359 68.7065Z" fill="#FCFCFC"/>
<path d="M44.6824 107.985C44.6824 108.391 44.6824 108.798 44.6824 109.204C44.5944 108.791 44.5944 108.385 44.6824 107.985Z" fill="#FCFCFC"/>
<path d="M83.1207 73.2253C83.1139 72.9408 83.1004 72.663 83.1681 72.3853C83.1546 72.6698 83.2359 72.9543 83.1207 73.2253Z" fill="#FCFCFC"/>
<path d="M92.5237 73.2183C92.3069 73.225 92.0969 73.225 91.8869 73.1708C92.0969 73.1776 92.3137 73.1031 92.5237 73.2183Z" fill="#FCFCFC"/>
<path d="M91.4668 73.1639C91.2568 73.2181 91.04 73.2181 90.83 73.2113C91.04 73.1029 91.2568 73.1774 91.4668 73.1639Z" fill="#FCFCFC"/>
<path d="M97.6858 91.3806C97.679 91.1909 97.6722 90.9944 97.7332 90.8115C97.7196 91.008 97.7941 91.2045 97.6858 91.3806Z" fill="#FCFCFC"/>
<path d="M100.646 85.1818C100.585 84.9922 100.592 84.8025 100.599 84.6128C100.707 84.7957 100.633 84.9922 100.646 85.1818Z" fill="#FCFCFC"/>
<path d="M44.7028 109.854C44.7637 110.017 44.757 110.186 44.7502 110.356C44.6418 110.193 44.7095 110.017 44.7028 109.854Z" fill="#FCFCFC"/>
<path d="M85.2411 73.435C85.0785 73.496 84.9092 73.4892 84.7398 73.4824C84.8956 73.3808 85.0717 73.4486 85.2411 73.435Z" fill="#FCFCFC"/>
<path d="M97.618 92.3289C97.6112 92.1595 97.6045 91.9902 97.6655 91.8208C97.6519 91.9969 97.7265 92.1731 97.618 92.3289Z" fill="#FCFCFC"/>
<path d="M86.9008 73.4893C86.7315 73.496 86.5621 73.5096 86.3995 73.4418C86.5621 73.4486 86.7383 73.3741 86.9008 73.4893Z" fill="#FCFCFC"/>
<path d="M44.7502 106.766C44.757 106.935 44.757 107.104 44.7028 107.267C44.7095 107.098 44.6418 106.921 44.7502 106.766Z" fill="#FCFCFC"/>
<path d="M100.599 88.2644C100.592 88.0951 100.578 87.9189 100.646 87.7563C100.633 87.9257 100.707 88.1086 100.599 88.2644Z" fill="#FCFCFC"/>
<path d="M79.9909 54.2025C80.1332 54.2025 80.2822 54.1889 80.4177 54.2499C80.2754 54.2431 80.1264 54.3041 79.9909 54.2025Z" fill="#FCFCFC"/>
<path d="M97.5503 93.1421C97.5435 92.993 97.5367 92.844 97.5977 92.7085C97.5909 92.8575 97.6519 93.0066 97.5503 93.1421Z" fill="#FCFCFC"/>
<path d="M97.4825 93.955C97.4758 93.806 97.469 93.6637 97.53 93.5215C97.5232 93.6705 97.5842 93.8263 97.4825 93.955Z" fill="#FCFCFC"/>
<path d="M97.7603 89.8223C97.7806 89.829 97.7942 89.829 97.8077 89.8358C97.7874 89.9645 97.8551 90.1068 97.7535 90.222C97.7535 90.0932 97.7535 89.9578 97.7603 89.8223Z" fill="#FCFCFC"/>
<path d="M100.578 84.2266C100.518 84.0911 100.524 83.9421 100.531 83.7998C100.633 83.9285 100.572 84.0843 100.578 84.2266Z" fill="#FCFCFC"/>
<path d="M63.5696 63.1244C63.7119 63.0702 63.8609 63.0769 64.0032 63.0769C63.8677 63.1853 63.7119 63.1176 63.5696 63.1244Z" fill="#FCFCFC"/>
<path d="M62.5128 63.0769C62.6619 63.0769 62.8109 63.0701 62.9532 63.1311C62.8109 63.1175 62.6483 63.1853 62.5128 63.0769Z" fill="#FCFCFC"/>
<path d="M80.4448 54.2499C80.5803 54.1889 80.7293 54.2025 80.8716 54.2025C80.7361 54.3041 80.5871 54.2431 80.4448 54.2499Z" fill="#FCFCFC"/>
<path d="M100.531 88.9416C100.524 88.8197 100.524 88.6977 100.585 88.5894C100.572 88.7113 100.626 88.8332 100.531 88.9416Z" fill="#FCFCFC"/>
<path d="M65.7781 77.0934C65.6697 77.1544 65.5478 77.1544 65.4258 77.1476C65.5342 77.046 65.6562 77.1002 65.7781 77.0934Z" fill="#FCFCFC"/>
<path d="M66.3878 77.0253C66.2726 77.0863 66.1575 77.0863 66.0355 77.0728C66.1439 76.9847 66.2726 77.0321 66.3878 77.0253Z" fill="#FCFCFC"/>
<path d="M97.2725 95.9874C97.2658 95.8586 97.259 95.7299 97.3267 95.6147C97.3199 95.7435 97.3741 95.879 97.2725 95.9874Z" fill="#FCFCFC"/>
<path d="M97.1371 97.1388C97.1303 97.0169 97.1235 96.8949 97.1913 96.7798C97.1845 96.9017 97.2387 97.0304 97.1371 97.1388Z" fill="#FCFCFC"/>
<path d="M44.8179 106.021C44.8247 106.149 44.8315 106.271 44.7705 106.386C44.7773 106.258 44.7231 106.129 44.8179 106.021Z" fill="#FCFCFC"/>
<path d="M97.4148 94.6324C97.408 94.5037 97.4013 94.3818 97.4622 94.2666C97.4554 94.3885 97.5096 94.524 97.4148 94.6324Z" fill="#FCFCFC"/>
<path d="M97.3471 95.3097C97.3403 95.1878 97.3335 95.0659 97.3945 94.9507C97.3877 95.0726 97.4418 95.2014 97.3471 95.3097Z" fill="#FCFCFC"/>
<path d="M46.3083 93.9619C46.3151 94.0839 46.3151 94.2058 46.2609 94.321C46.2677 94.199 46.2135 94.0703 46.3083 93.9619Z" fill="#FCFCFC"/>
<path d="M24.4336 134.947C24.4404 135.069 24.4404 135.191 24.3794 135.3C24.3862 135.178 24.332 135.049 24.4336 134.947Z" fill="#FCFCFC"/>
<path d="M24.2913 136.234C24.2981 136.363 24.3117 136.492 24.2439 136.614C24.2507 136.478 24.1965 136.35 24.2913 136.234Z" fill="#FCFCFC"/>
<path d="M84.3536 73.5096C84.2385 73.5773 84.1098 73.5638 83.9878 73.557C84.103 73.4554 84.2317 73.5096 84.3536 73.5096Z" fill="#FCFCFC"/>
<path d="M100.043 90.0392C100.152 90.0256 100.26 90.0121 100.375 89.9985C100.28 90.1544 100.165 90.1137 100.043 90.0392Z" fill="#FCFCFC"/>
<path d="M97.9432 89.8363C98.0651 89.8295 98.1871 89.8228 98.3023 89.8838C98.1803 89.8838 98.0516 89.938 97.9432 89.8363Z" fill="#FCFCFC"/>
<path d="M99.2981 89.9716C99.42 89.9648 99.542 89.958 99.6571 90.019C99.5352 90.019 99.4065 90.0664 99.2981 89.9716Z" fill="#FCFCFC"/>
<path d="M98.6207 89.904C98.7426 89.8972 98.8645 89.8972 98.9729 89.9514C98.8578 89.9514 98.7291 89.9988 98.6207 89.904Z" fill="#FCFCFC"/>
<path d="M83.1884 71.1252C83.1884 71.0032 83.141 70.8745 83.2359 70.7661C83.2291 70.8881 83.2833 71.0168 83.1884 71.1252Z" fill="#FCFCFC"/>
<path d="M91.0333 181.244C90.9655 180.16 90.7894 179.096 90.6607 178.019C90.4371 176.115 90.1865 174.219 89.9494 172.315C89.6851 170.215 89.4209 168.108 89.1635 166.008C88.9061 163.928 88.6487 161.848 88.3912 159.762C88.1338 157.682 87.8696 155.602 87.6054 153.523C87.348 151.456 87.0905 149.383 86.8331 147.31C86.7789 146.884 86.7383 146.457 86.6773 146.037C86.6637 145.928 86.6908 145.739 86.5012 145.773C86.0134 145.861 85.6205 145.59 85.1869 145.468C81.8403 144.526 78.4396 143.95 74.9507 143.964C74.6255 143.964 74.2936 143.984 73.9684 143.998C74.0768 143.808 74.2055 143.639 74.3613 143.483C74.4426 143.442 74.5239 143.395 74.612 143.395C75.3436 143.395 76.0753 143.347 76.8069 143.429C77.4031 143.496 77.9992 143.469 78.5954 143.517C80.9461 143.706 83.2901 143.957 85.5731 144.587C86.8805 144.946 88.1948 145.258 89.5497 145.4C90.1729 145.461 90.7894 145.339 91.4059 145.325C91.6633 145.319 91.9207 145.278 92.1782 145.298C92.3272 145.305 92.4898 145.319 92.5507 145.143C92.6117 144.953 92.4627 144.885 92.334 144.817C92.2865 144.79 92.2323 144.763 92.1917 144.722C92.1781 144.553 92.3204 144.567 92.4153 144.553C92.544 144.54 92.6795 144.546 92.8082 144.499C93.5601 144.411 94.3121 144.33 95.037 144.099C95.6128 143.916 96.148 143.659 96.6222 143.28C96.6628 143.246 96.7103 143.205 96.7577 143.178C97.0354 142.995 97.137 143.042 97.1641 143.368C97.1845 143.639 97.1709 143.91 97.1709 144.181C97.1709 144.587 97.1777 144.993 97.1641 145.4C97.1506 145.773 97.049 145.881 96.6696 145.888C96.0464 145.901 95.4299 145.894 94.8066 145.894C93.7566 145.894 92.7066 145.894 91.6565 145.894C91.1755 145.894 91.1552 145.915 91.2229 146.396C91.4804 148.225 91.7175 150.061 91.9681 151.897C92.5169 155.975 93.0656 160.06 93.6143 164.138C93.6347 164.307 93.5805 164.47 93.6008 164.639C93.743 166.015 93.926 167.376 94.1495 168.738C94.2782 168.982 94.3528 169.226 94.2376 169.497C94.4002 170.736 94.5357 171.976 94.7524 173.209C94.9557 173.555 94.9354 173.948 94.9828 174.32C95.335 176.962 95.6941 179.597 96.0531 182.239C96.1006 182.578 96.1344 182.91 96.1886 183.249C96.2089 183.371 96.2157 183.5 96.1412 183.608C96.1819 183.852 96.1683 184.109 96.2564 184.346C96.3648 184.461 96.3783 184.611 96.3919 184.753C96.507 185.694 96.6493 186.629 96.7645 187.564C96.778 187.686 96.8119 187.808 96.7374 187.923C96.7577 188.147 96.778 188.364 96.8051 188.587C96.5138 188.689 96.2225 188.607 95.9244 188.635C95.6263 188.635 95.3283 188.635 95.0302 188.635C94.4476 188.635 93.8718 188.635 93.2892 188.635C92.8624 188.635 92.4424 188.635 92.0156 188.641C91.8259 188.465 91.8394 188.228 91.8259 188.005C91.6294 186.541 91.4397 185.078 91.2839 183.615C91.1688 182.822 90.9994 182.043 91.0333 181.244Z" fill="#FEBD00"/>
<path d="M63.197 146.078C63.0954 147.236 63.0006 148.388 62.8922 149.546C62.7228 151.328 62.5467 153.116 62.3773 154.898C62.1809 156.93 61.9844 158.963 61.7879 160.988C61.6186 162.736 61.456 164.491 61.2866 166.239C61.0902 168.257 60.8937 170.276 60.704 172.295C60.5347 174.043 60.3721 175.797 60.2027 177.545C60.1079 178.588 60.013 179.632 59.9182 180.675C59.8776 180.783 59.9521 180.892 59.9317 181C59.9792 181.596 59.8234 182.179 59.8098 182.768C59.6946 183.852 59.5998 184.936 59.4982 186.02C59.4711 186.345 59.4169 186.67 59.4101 186.995C59.3695 187.172 59.3559 187.354 59.3085 187.531C59.2611 187.673 59.1662 187.741 59.0036 187.741C58.7259 187.727 58.4414 187.741 58.1568 187.741C57.8384 187.741 57.52 187.741 57.2016 187.741C56.4971 187.741 55.7993 187.741 55.0948 187.741C54.9864 187.741 54.8712 187.781 54.7764 187.693C54.7832 187.476 54.7967 187.253 54.8035 187.036C54.7832 186.982 54.7561 186.928 54.7561 186.873C54.7899 186.047 54.9051 185.221 54.9864 184.394C54.9932 184.32 55.0541 184.252 55.088 184.184C55.1151 183.933 55.1354 183.676 55.1625 183.425C54.9932 183.087 55.1354 182.734 55.1693 182.402C55.3861 180.153 55.6232 177.897 55.8332 175.648C55.9145 174.754 56.0161 173.86 56.0974 172.959C56.1042 172.857 56.111 172.756 56.2126 172.688C56.3142 172.193 56.3277 171.685 56.3752 171.184C56.3413 170.974 56.2668 170.764 56.4361 170.574C56.5581 169.355 56.6732 168.135 56.7952 166.923C56.6868 166.381 56.8087 165.846 56.8629 165.31C57.0594 163.298 57.2558 161.293 57.4591 159.281C57.6488 157.364 57.852 155.447 58.0349 153.523C58.2246 151.579 58.4278 149.641 58.604 147.697C58.6514 147.216 58.7123 146.735 58.7462 146.247C58.7733 145.902 58.7598 145.881 58.4075 145.881C57.0187 145.875 55.63 145.881 54.2412 145.881C54.0922 145.881 53.9499 145.881 53.8009 145.881C53.0895 145.881 52.8863 145.604 53.0625 144.899C53.1099 144.723 53.2183 144.635 53.3876 144.594C53.6857 144.513 53.9906 144.513 54.2954 144.54C55.3996 144.628 56.5039 144.608 57.6081 144.547C61.6118 144.31 65.5207 143.463 69.4499 142.772C69.8699 142.697 70.2967 142.636 70.7235 142.569C70.8386 142.548 70.9673 142.501 71.0757 142.616C71.0554 142.738 71.0351 142.867 71.0148 142.989C70.8048 143.158 70.5405 143.124 70.3034 143.151C67.9595 143.449 65.6426 143.876 63.3596 144.486C62.628 144.682 61.937 144.994 61.2934 145.407C61.2189 145.455 61.1376 145.502 61.0766 145.563C60.9547 145.678 60.8463 145.814 60.975 145.976C61.1037 146.139 61.2731 146.051 61.4018 145.963C62.0047 145.549 62.6483 145.238 63.3461 145.028C64.789 144.601 66.2726 144.35 67.7427 144.066C68.6708 143.883 69.6124 143.747 70.5541 143.653C70.6693 143.639 70.798 143.571 70.8996 143.7C70.9064 143.944 70.8996 144.181 70.8318 144.418C70.6828 144.574 70.4728 144.601 70.2831 144.648C69.9308 144.736 69.5921 144.845 69.2602 144.98C68.9011 145.136 68.874 145.184 68.9892 145.563C69.0095 145.631 69.0366 145.692 68.9553 145.739C67.1601 145.753 65.3649 145.746 63.5696 145.739C63.319 145.739 63.1903 145.8 63.197 146.078Z" fill="#FEBD00"/>
<path d="M96.7306 187.917C96.5409 186.724 96.3715 185.532 96.2496 184.333C97.2387 184.482 98.2345 184.631 99.2236 184.787C99.4268 184.821 99.5962 184.76 99.7655 184.665C100.721 184.13 101.71 183.662 102.706 183.209C103.83 182.694 104.962 182.47 106.215 182.755C107.963 183.154 109.724 183.513 111.33 184.347C112.833 185.126 114.073 186.23 115.157 187.666C108.958 187.747 102.841 187.835 96.7306 187.917Z" fill="#00B1B1"/>
<path d="M55.1016 184.197C55.0067 185.146 54.9051 186.094 54.8103 187.043C48.5507 187.043 42.2843 187.043 35.9773 187.043C36.0518 186.792 36.1873 186.69 36.3025 186.575C37.068 185.776 37.9893 185.186 38.9648 184.678C41.153 183.533 43.4495 182.619 45.7528 181.731C45.9425 181.657 46.0441 181.731 46.1728 181.833C47.6226 182.944 49.0858 184.041 50.5288 185.166C50.8201 185.396 51.0775 185.43 51.423 185.322C52.6424 184.929 53.8754 184.563 55.1016 184.197Z" fill="#00B1B1"/>
<path d="M71.218 141.911C69.9918 142.033 68.7927 142.277 67.5869 142.501C64.6535 143.043 61.7134 143.591 58.7394 143.862C57.4387 143.984 56.1313 144.052 54.817 143.971C54.3564 143.944 53.8889 143.944 53.4283 143.971C53.2183 143.984 53.1708 143.917 53.1844 143.734C53.1979 143.578 53.1844 143.415 53.1844 143.259C53.1979 142.623 53.0557 142.69 53.767 142.745C55.508 142.887 57.2558 142.961 59.0036 142.88C59.8505 142.839 60.6363 142.568 61.3408 142.074C62.0454 141.579 62.3909 140.868 62.4315 140.028C62.4722 139.181 62.4518 138.334 62.4586 137.488C62.4586 137.379 62.4247 137.291 62.3773 137.203C64.5993 137.223 66.8214 137.244 69.0366 137.264C69.1044 137.372 69.0027 137.454 68.9756 137.542C68.5556 138.897 68.9282 139.865 70.2967 140.319C70.5744 140.414 70.8589 140.482 71.1502 140.536C71.2586 140.556 71.3738 140.563 71.4415 140.678C71.367 141.092 71.2925 141.498 71.218 141.911Z" fill="#FEBD00"/>
<path d="M83.832 137.406C83.5339 137.833 83.5272 138.144 83.8185 138.592C84.1436 139.086 84.5908 139.459 85.0988 139.73C87.3683 140.942 89.6851 142.053 92.212 142.636C93.3298 142.893 94.4611 143.009 95.5992 142.738C96.0057 142.643 96.3783 142.467 96.778 142.243C96.4664 142.717 95.8296 143.164 95.1047 143.429C93.804 143.903 92.4559 143.95 91.101 143.862C88.0796 143.672 85.1598 142.92 82.2197 142.304C80.8377 142.013 79.4625 141.728 78.0534 141.586C78.1144 141.389 78.1753 141.193 78.2363 140.99C78.426 140.902 78.6157 140.983 78.7986 141.01C79.3541 141.098 79.9096 141.193 80.4719 141.091C80.7225 141.044 80.9529 140.956 81.1629 140.82C81.5761 140.556 81.7387 140.123 81.6168 139.648C81.5287 139.296 81.3661 138.978 81.1764 138.666C81.0477 138.456 80.919 138.239 80.9325 137.975C80.9461 137.813 80.8716 137.677 80.6887 137.677C80.5125 137.677 80.3974 137.799 80.3635 137.968C80.3228 138.192 80.4109 138.388 80.5193 138.578C80.7022 138.91 80.9122 139.235 81.0409 139.601C81.1968 140.035 81.0545 140.353 80.6141 140.502C80.2009 140.644 79.7673 140.631 79.3406 140.556C79.0289 140.502 78.6767 140.549 78.4125 140.306C78.426 140.224 78.4395 140.143 78.4531 140.062C78.636 139.98 78.8325 140.014 79.0222 140.007C79.6386 139.967 79.8622 139.642 79.686 139.045C79.6454 138.917 79.598 138.788 79.5438 138.666C79.3473 138.205 79.4354 137.785 79.7064 137.386C81.0951 137.386 82.4636 137.399 83.832 137.406Z" fill="#FEBD00"/>
<path d="M61.876 137.203C61.788 137.325 61.7609 137.467 61.7609 137.616C61.7609 138.172 61.7609 138.72 61.7609 139.276C61.7609 139.56 61.7541 139.838 61.7202 140.123C61.6321 140.922 61.2053 141.451 60.494 141.776C59.8708 142.053 59.2137 142.223 58.5362 142.243C56.8561 142.297 55.1761 142.175 53.5028 142.02C53.225 141.993 53.1573 141.884 53.1912 141.64C53.2182 141.444 53.0963 141.18 53.2589 141.078C53.3605 141.017 53.5976 141.207 53.7805 141.234C55.7113 141.498 57.3778 140.997 58.6649 139.472C58.9901 139.093 59.234 138.659 59.4304 138.199C59.5321 137.955 59.6269 137.704 59.322 137.562C59.0036 137.42 58.8953 137.664 58.7869 137.908C58.2043 139.222 57.2558 140.116 55.8332 140.468C55.2438 140.611 54.6477 140.611 54.0515 140.556C53.6044 140.516 53.3876 140.258 53.3808 139.818C53.3741 139.533 53.4486 139.262 53.5502 138.998C53.6383 138.768 53.6044 138.565 53.347 138.477C53.1979 138.429 53.1979 138.334 53.1979 138.219C53.1979 137.86 53.1979 137.494 53.1979 137.135C54.0447 137.142 54.8848 137.149 55.7316 137.156C57.7707 137.169 59.8234 137.189 61.876 137.203Z" fill="#FEBD00"/>
<path d="M90.3016 137.467C89.9155 137.969 89.99 138.531 90.1119 139.086C90.2068 139.527 90.3761 139.947 90.5794 140.353C91.1552 141.478 91.7988 141.905 93.3637 141.749C94.7186 141.613 95.8228 140.916 96.7373 139.926C96.8186 139.838 96.8999 139.744 96.988 139.642C97.2929 140.692 96.9677 141.41 95.9786 141.85C95.0979 142.237 94.1834 142.23 93.2553 142.088C90.9858 141.749 88.9129 140.841 86.8738 139.852C86.237 139.54 85.5798 139.263 85.0176 138.822C84.8008 138.653 84.6111 138.47 84.4417 138.253C84.2791 138.05 84.2724 137.887 84.5569 137.799C84.7534 137.745 84.8685 137.623 84.8821 137.42C86.6908 137.433 88.4996 137.454 90.3016 137.467Z" fill="#FEBD00"/>
<path d="M125.752 134.324C125.739 133.789 125.779 133.247 125.732 132.705C125.705 131.993 125.63 131.289 125.515 130.584C125.027 127.59 123.747 124.982 121.681 122.76C120.353 121.337 118.802 120.219 117.095 119.291C115.164 118.241 113.118 117.462 111.011 116.846C107.231 115.741 103.39 114.854 99.5488 114.007C97.618 113.58 95.6805 113.188 93.7498 112.781C93.5195 112.734 93.4043 112.673 93.5331 112.381C93.7905 111.806 94.014 111.216 94.2173 110.62C94.8608 108.764 95.3689 106.874 95.7957 104.957C96.1344 103.426 96.4325 101.888 96.6628 100.343C96.8254 99.2728 96.988 98.2024 97.1438 97.132C97.198 97.0169 97.1371 96.8881 97.198 96.773C97.1845 96.502 97.2183 96.2378 97.2793 95.9804C97.3335 95.8584 97.2793 95.7229 97.3335 95.6078C97.3403 95.5062 97.3471 95.4045 97.3538 95.3029C97.4013 95.1878 97.3471 95.059 97.4013 94.9439C97.408 94.8355 97.4148 94.7339 97.4216 94.6255C97.469 94.5035 97.4148 94.3748 97.469 94.2597C97.4758 94.158 97.4826 94.0564 97.4893 93.948C97.5435 93.8058 97.4758 93.6567 97.5368 93.5145C97.5435 93.3858 97.5503 93.257 97.5571 93.1351C97.6113 92.9928 97.5435 92.837 97.6045 92.7015C97.6113 92.5728 97.618 92.4509 97.6248 92.3222C97.679 92.1596 97.6113 91.9834 97.6722 91.8141C97.679 91.665 97.6858 91.516 97.6926 91.3737C97.7535 91.1908 97.6722 90.9876 97.74 90.8047C97.7468 90.6082 97.7535 90.4118 97.7603 90.2221C97.7942 90.0798 97.7874 89.9376 97.7603 89.8021C97.5571 89.5921 97.32 89.6327 97.0761 89.714C96.8796 90.0663 96.9406 90.466 96.9203 90.8386C96.8525 92.0986 96.7441 93.3587 96.6154 94.6119C96.3309 97.4301 95.938 100.235 95.3825 103.019C94.6915 106.467 93.8243 109.868 92.3611 113.079C91.5956 114.766 90.6674 116.344 89.2516 117.584C87.8019 118.858 86.1557 119.298 84.2859 118.695C83.0936 118.309 82.2062 117.496 81.4474 116.527C80.228 114.969 79.4354 113.188 78.7918 111.338C77.8502 108.635 77.2405 105.844 76.773 103.026C76.4546 101.109 76.1837 99.1915 75.9804 97.2607C75.8382 95.9397 75.7162 94.6119 75.6146 93.2841C75.513 92.0173 75.4317 90.7437 75.3436 89.4701C75.2962 88.8198 75.2623 88.1626 75.181 87.5191C75.1336 87.1668 74.9778 86.889 74.7475 86.6248C74.0429 85.8051 73.3316 84.9786 72.8845 83.976C72.8303 83.8473 72.7355 83.7254 72.7626 83.5763C73.5349 83.7186 74.2597 84.0167 75.0523 84.0438C75.0862 84.2064 74.9914 84.3757 74.9846 84.5519C74.9846 84.7686 75.0659 84.9312 75.2759 84.9922C75.4995 85.0599 75.6756 84.9787 75.7975 84.7822C75.8449 84.7009 75.872 84.6196 75.8924 84.5315C75.9872 84.0912 76.2243 83.7389 76.5834 83.4815C77.5724 82.7702 78.6699 82.3705 79.8893 82.3298C80.2145 82.3163 80.5396 82.3366 80.8716 82.3773C81.2239 82.4179 81.5423 82.1198 81.4 81.8692C81.2035 81.5237 81.4135 81.3543 81.5694 81.1443C81.6777 80.9953 81.7726 80.8462 81.8674 80.6904C82.1587 80.2027 82.3416 79.6742 82.4704 79.1323C82.3755 79.532 82.4094 79.9385 82.4162 80.3381C82.4365 81.9369 81.9487 83.407 81.2306 84.8093C81.0613 85.1345 81.0206 85.4325 81.1087 85.778C81.5287 87.3633 81.9352 88.9485 82.3416 90.5269C82.5991 91.5296 82.8565 92.539 83.1275 93.5416C83.141 93.5822 83.1478 93.6296 83.1614 93.6703C83.263 93.9684 83.4594 94.0971 83.7169 94.0361C83.954 93.9819 84.0691 93.7854 84.042 93.4806C83.954 92.2409 83.8388 91.0079 83.8727 89.7682C83.8794 89.3482 83.8794 88.9349 83.8727 88.5149C83.8727 88.3727 83.8862 88.2168 83.7914 88.0949C83.7033 88.0136 83.5949 87.9865 83.4865 87.973C83.0123 87.9052 82.9446 87.9594 82.9446 88.4336C82.9446 88.7385 82.931 89.0365 82.9513 89.3008C82.9243 89.1653 82.8904 89.0162 82.8497 88.8672C82.5788 87.8578 82.3213 86.8416 82.0503 85.8255C81.9691 85.5206 81.9962 85.2632 82.1384 84.9854C82.4365 84.4231 82.66 83.8338 82.8565 83.2376C83.412 81.5372 83.3781 79.7962 83.2494 78.0484C83.2291 77.7503 83.2088 77.4387 82.9513 77.2083C82.8768 77.1474 82.8904 77.039 82.9039 76.9509C82.992 76.2667 83.053 75.5825 83.1072 74.8983C83.1343 74.4986 83.2088 74.0989 83.1072 73.6992C83.1072 73.5434 83.1139 73.3808 83.1139 73.225C83.1749 72.9472 83.0868 72.6627 83.1614 72.3849C83.1681 71.9649 83.1749 71.5449 83.1817 71.1249C83.2291 71.0097 83.1749 70.881 83.2291 70.7658C83.2765 70.5762 83.3239 70.3865 83.3714 70.1968C83.5136 69.6819 83.3443 69.1942 83.2291 68.7064C83.1546 68.2051 83.2426 67.697 83.1817 67.1957C83.1749 66.6673 83.1681 66.1389 83.1681 65.6105C83.1207 65.2785 83.1139 64.9466 83.1681 64.6146C83.4527 63.7543 83.7033 62.8871 83.7914 61.9794C83.832 61.6203 83.8252 61.2545 83.7914 60.8955C83.7101 60.2451 83.6152 59.5948 83.4459 58.9647C83.1478 57.8673 82.6059 56.9595 81.5355 56.4582C80.8309 56.133 80.079 56.0178 79.3135 55.9365C78.7512 55.9027 78.1821 55.9027 77.6199 55.9365C77.4708 55.9433 77.315 55.9501 77.166 55.9501C77.0305 56.0178 76.8814 55.9433 76.7392 55.9975C76.4072 56.0246 76.0821 56.1127 75.7433 56.0856C75.6078 56.1533 75.452 56.0788 75.3165 56.133C75.1675 56.1398 75.0185 56.1466 74.8694 56.1533C74.192 56.2008 73.5213 56.2008 72.8439 56.1533C72.6542 56.1466 72.4577 56.1398 72.268 56.1398C72.058 56.0788 71.8345 56.1601 71.6245 56.0856C71.2451 56.0856 70.8589 56.072 70.4796 56.0856C69.9918 56.1059 69.4837 56.1398 69.1044 56.465C68.8537 56.6817 68.8063 56.5733 68.6776 56.3837C68.2576 55.7807 67.7562 55.2388 67.1872 54.7849C65.5816 53.5045 63.8542 52.4071 61.998 51.5264C61.1376 51.1199 60.2569 50.7744 59.3085 50.6931C58.7598 50.6457 58.2246 50.7134 57.8046 51.1538C57.5742 51.3909 57.5336 51.7093 57.3981 51.987C56.8426 53.1251 56.3887 54.3039 56.0771 55.5301C55.928 56.1127 55.7858 56.7088 55.9077 57.305C56.1719 58.5515 56.7613 59.649 57.6488 60.5635C58.9901 61.9455 60.5956 62.8465 62.5331 63.0701C62.6754 63.1242 62.8312 63.0565 62.9735 63.1242C63.1767 63.1242 63.3799 63.1242 63.5832 63.1242C63.7254 63.0633 63.8745 63.1242 64.0167 63.0768C64.4097 63.0159 64.789 62.921 65.1549 62.7584C65.961 62.3994 66.6588 61.8913 67.2685 61.268C67.3904 61.1393 67.4785 60.9903 67.5937 61.3087C67.7291 61.6813 67.9663 62.0065 68.2982 62.2368C68.4811 62.3655 68.5624 62.5349 68.4879 62.7584C68.5624 63.1039 68.4743 63.463 68.5421 63.8085C68.5489 64.1133 68.5556 64.4182 68.5556 64.723C68.6301 65.0008 68.5421 65.2921 68.6098 65.5698C68.6166 65.8069 68.6234 66.044 68.6301 66.2811C68.7047 66.5115 68.6166 66.7554 68.6776 66.9925C68.6843 67.1347 68.7047 67.2838 68.7047 67.426C68.7047 67.5276 68.7792 67.6564 68.6572 67.7309C68.0882 68.0696 67.9392 68.6251 67.8714 69.228C67.8375 69.499 67.8375 69.77 67.8714 70.041C67.9188 70.8133 68.2643 71.4026 68.9689 71.7549C69.0502 71.8497 68.9689 71.9717 69.0231 72.0733C69.0298 72.202 69.0366 72.324 69.0434 72.4527C69.0976 72.5678 69.0434 72.7033 69.0908 72.8185C69.0976 72.9404 69.1044 73.0624 69.1111 73.1843C69.1518 73.3198 69.1586 73.4485 69.1111 73.584C69.1179 73.6043 69.1111 73.6179 69.0908 73.6314C69.0298 73.8414 69.1111 74.065 69.0366 74.275C69.0502 74.6341 69.0773 74.9931 69.0366 75.3521C69.1111 75.5622 69.0298 75.7857 69.0908 75.9957C69.0976 76.1448 69.1044 76.2938 69.1111 76.4428C69.1653 76.558 69.1111 76.6935 69.1586 76.8087C69.1586 76.8358 69.1586 76.8629 69.1653 76.8899C69.0773 77.0051 69.1179 77.1271 69.1315 77.249C69.2263 78.0348 69.3889 78.8071 69.6124 79.5659C69.9579 80.7378 70.3915 81.8556 71.3467 82.6889C71.4957 82.8176 71.5499 83.0073 71.6109 83.1902C71.8006 83.7593 72.0377 84.308 72.3222 84.8364C72.749 85.6358 73.3248 86.3403 73.9142 87.0178C74.2191 87.37 74.3275 87.7494 74.3546 88.183C74.4562 89.7479 74.5646 91.306 74.6865 92.8709C74.8356 94.8423 75.0117 96.8069 75.2556 98.7647C75.7636 102.809 76.4411 106.826 77.6605 110.728C77.7757 111.094 77.7553 111.108 77.376 111.115C74.8017 111.148 72.2342 111.101 69.6599 111.169C66.2523 111.25 62.8448 111.148 59.4372 111.216C59.3085 111.216 59.1933 111.182 59.0782 111.135C58.421 110.871 57.7978 110.525 57.1407 110.247C56.9781 110.18 56.9239 110.064 56.9645 109.895C56.9916 109.76 57.0255 109.631 57.0594 109.502C57.9604 105.898 58.7394 102.267 59.3695 98.6089C59.4846 97.9314 59.5998 97.254 59.6879 96.5698C59.7082 96.4207 59.7353 96.2446 59.5524 96.1972C59.3288 96.1362 59.0985 96.0346 58.8749 96.2107C58.7801 96.3462 58.7733 96.5088 58.7462 96.6646C58.6446 97.3895 58.5159 98.1143 58.394 98.8392C57.7504 102.592 56.9374 106.305 56.0026 109.997C55.8671 110.532 55.9619 110.742 56.4632 110.952C57.1881 111.264 57.9062 111.596 58.6175 111.941C60.9953 113.099 63.2987 114.387 65.5275 115.809C67.6614 117.178 69.6802 118.695 71.5228 120.436C73.0742 121.906 74.3342 123.607 75.4453 125.429C76.055 126.432 76.6376 127.448 77.0711 128.545C77.6808 130.09 78.0534 131.689 78.2905 133.321C78.4192 134.229 78.5209 135.144 78.4192 136.051C78.1889 138.023 77.7621 139.953 77.1389 141.871C77.1321 141.708 77.105 141.572 77.0982 141.437C77.0847 140.793 76.9492 140.15 77.0237 139.513C77.1321 138.666 77.1389 137.826 77.1321 136.979C77.1321 136.81 77.1118 136.641 77.0169 136.492C76.9153 136.329 76.7798 136.207 76.5766 136.248C76.3666 136.288 76.2446 136.431 76.2175 136.641C76.1972 136.79 76.2379 136.932 76.2446 137.081C76.3056 138.226 76.3192 139.364 75.5265 140.326C75.3911 140.489 75.2827 140.678 75.1675 140.861C74.6594 141.64 74.131 142.399 73.5891 143.151C73.9684 142.135 74.2733 141.098 74.3884 140.014C74.4426 139.486 74.5239 138.964 74.4833 138.429C74.463 138.185 74.3681 137.989 74.0904 137.948C73.8736 137.914 73.6568 138.097 73.5891 138.361C73.5552 138.483 73.562 138.605 73.562 138.734C73.5552 138.985 73.5687 139.229 73.5484 139.479C73.4129 140.983 72.9726 142.399 72.3696 143.767C72.1867 144.187 71.9971 144.614 71.7464 145.088C71.7058 144.919 71.7125 144.838 71.7125 144.763C71.6854 143.808 71.8887 142.88 72.0648 141.945C72.4035 140.17 72.7287 138.409 72.6813 136.58C72.6406 134.988 72.2274 133.565 71.3603 132.244C70.5134 130.957 69.4702 129.832 68.5082 128.633C67.5191 127.407 66.232 126.675 64.8094 126.113C62.9057 125.368 60.9411 124.792 59.0172 124.108C57.2829 123.491 55.569 122.828 53.9364 121.967C52.1411 121.019 50.4882 119.881 49.0858 118.384C47.5751 116.771 46.5658 114.895 46.017 112.767C45.5699 111.026 45.4276 109.265 45.5496 107.47C45.6309 106.23 45.7596 104.997 46.0238 103.785C46.6199 101.007 47.2703 98.2363 47.9139 95.4655C47.9545 95.2826 48.0426 95.0997 47.9477 94.9032C47.731 94.7542 47.5006 94.6797 47.25 94.8219C47.1416 94.9032 47.1958 95.0252 47.1755 95.1268C46.9451 96.0278 46.7148 96.922 46.5048 97.8298C46.3015 98.6969 46.1254 99.5641 45.929 100.431C45.746 101.231 45.536 102.023 45.3599 102.823C45.1363 103.866 44.9399 104.923 44.8586 105.993C44.8044 106.108 44.8654 106.244 44.8112 106.359C44.8044 106.488 44.7976 106.609 44.7908 106.738C44.7366 106.901 44.8044 107.077 44.7434 107.24C44.7367 107.477 44.7299 107.721 44.7231 107.958C44.6892 108.364 44.6892 108.771 44.7231 109.177C44.7299 109.394 44.7367 109.611 44.7434 109.827C44.8112 109.99 44.7366 110.166 44.7908 110.329C44.8179 110.667 44.8247 111.013 44.8857 111.345C45.0618 112.286 45.2718 113.228 45.5902 114.143C45.8138 114.779 46.1254 115.369 46.3761 115.992C46.4167 116.094 46.4506 116.128 46.3219 116.182C44.8044 116.812 43.2869 117.455 41.7694 118.085C39.8861 118.871 38.0435 119.732 36.2008 120.606C34.7376 121.297 33.3081 122.048 31.9194 122.882C30.8693 123.512 29.8125 124.142 28.9725 125.056C28.3357 125.747 27.8344 126.54 27.3195 127.319C26.4592 128.626 25.7479 130.008 25.2398 131.485C24.8604 132.603 24.5962 133.755 24.4675 134.927C24.4133 135.042 24.481 135.171 24.4133 135.279C24.3862 135.591 24.3591 135.902 24.3252 136.214C24.2778 136.336 24.332 136.471 24.2778 136.593C24.271 136.763 24.3455 136.946 24.2033 137.095C24.2033 137.21 24.2033 137.318 24.2033 137.433C24.2778 137.569 24.2236 137.711 24.2371 137.847C24.2168 138.002 24.2778 138.165 24.2033 138.314C24.2033 138.653 24.2033 138.991 24.2033 139.33C24.2981 139.94 24.4336 140.543 24.6301 141.132C25.6598 144.262 27.0621 147.229 28.4915 150.183C29.7109 152.703 30.9845 155.196 32.2852 157.675C33.281 159.559 34.2769 161.449 35.2931 163.318C36.7563 166.028 38.2535 168.725 39.7642 171.407C40.6517 172.979 41.5391 174.551 42.4469 176.115C42.6569 176.481 42.7043 176.488 43.0972 176.325C44.1066 175.905 45.116 175.472 46.1254 175.045C46.4912 174.889 46.5183 174.896 46.7148 175.235C47.8393 177.165 48.9436 179.11 50.0681 181.04C50.1901 181.257 50.1765 181.372 49.9259 181.467C49.3636 181.677 48.7945 181.853 48.2255 182.05C48.0223 182.118 47.8529 182.077 47.6903 181.955C47.338 181.684 46.979 181.433 46.647 181.149C46.288 180.844 45.9357 180.797 45.4954 180.973C43.2056 181.867 40.9159 182.768 38.7277 183.906C37.5693 184.509 36.4854 185.207 35.5979 186.182C35.3608 186.44 35.1508 186.724 35.0153 187.049C34.8459 187.469 35.0492 187.768 35.4963 187.795C35.6318 187.801 35.7673 187.801 35.9028 187.801C40.0758 187.808 44.2557 187.795 48.4287 187.808C50.3865 187.808 52.3376 187.808 54.2954 187.808C54.4648 187.808 54.6341 187.835 54.7967 187.754C54.9796 187.537 54.9254 187.287 54.9051 187.036C54.7628 186.907 54.5867 186.941 54.4241 186.941C48.5642 186.934 42.7111 186.975 36.8512 186.873C36.7496 186.873 36.648 186.88 36.5463 186.873C36.4515 186.867 36.3431 186.914 36.2618 186.833C36.2889 186.751 36.3566 186.704 36.4108 186.65C37.278 185.715 38.3619 185.078 39.4864 184.523C41.4307 183.554 43.436 182.741 45.4547 181.955C45.8002 181.82 46.0509 181.833 46.349 182.07C47.7039 183.12 49.0791 184.15 50.434 185.2C50.7253 185.424 51.0098 185.559 51.3959 185.437C52.5476 185.071 53.706 184.739 54.8577 184.374C54.9729 184.34 55.1016 184.306 55.1829 184.204C55.2642 183.974 55.2912 183.73 55.2574 183.486C55.1219 183.317 54.9661 183.425 54.8238 183.466C53.6857 183.791 52.5544 184.15 51.423 184.495C51.2063 184.563 51.0369 184.536 50.854 184.401C50.2375 183.94 49.6414 183.459 49.0181 183.005C48.8013 182.849 48.8691 182.782 49.0791 182.714C49.6481 182.531 50.2104 182.334 50.7727 182.131C51.3417 181.928 51.4298 181.698 51.125 181.169C49.9191 179.076 48.72 176.983 47.5074 174.889C47.3313 174.578 47.3313 174.564 47.6497 174.422C48.2797 174.144 48.9165 173.887 49.5533 173.616C51.4366 172.816 53.3131 172.024 55.1964 171.224C55.4335 171.123 55.5419 171.17 55.63 171.407C55.7587 171.759 55.901 172.105 56.0432 172.444C56.0906 172.559 56.111 172.721 56.3006 172.688C56.4768 172.227 56.4429 171.739 56.4903 171.265C56.3887 171.001 56.2532 170.737 56.5648 170.52C56.6461 170.134 56.6665 169.741 56.7003 169.355C56.7681 168.562 56.8832 167.776 56.9036 166.977C55.9416 163.908 54.9661 160.846 54.0041 157.777C53.3063 155.548 52.595 153.326 51.8905 151.097C50.8337 147.751 49.7768 144.404 48.72 141.058C48.3474 139.872 47.9681 138.693 47.6022 137.508C47.5074 137.203 47.5616 137.135 47.88 137.169C48.1848 137.203 48.4829 137.23 48.7878 137.23C50.2782 137.23 51.7685 137.217 53.2589 137.237C55.1964 137.244 57.1339 137.352 59.0714 137.311C59.9927 137.291 60.9208 137.332 61.8421 137.291C62.0454 137.244 62.2486 137.264 62.4451 137.298C62.6212 137.325 62.7973 137.372 62.9803 137.372C64.9923 137.379 67.0043 137.393 69.0095 137.366C69.1857 137.338 69.3686 137.352 69.5447 137.366C70.1409 137.427 70.7438 137.481 71.3467 137.42C71.7532 137.318 71.7735 137.325 71.7667 137.738C71.7667 138.016 71.8006 138.3 71.7261 138.578C71.6719 139.039 71.5906 139.499 71.5093 139.953C71.4551 140.204 71.428 140.461 71.367 140.712C71.2857 141.146 71.1977 141.572 71.1231 142.006C71.0893 142.203 71.0351 142.392 71.0215 142.595C71.008 142.738 70.9538 142.873 70.9538 143.022C70.8928 143.253 70.8928 143.496 70.8386 143.727C70.8183 143.971 70.8115 144.215 70.7641 144.458C70.7506 144.648 70.7438 144.838 70.7912 145.027C70.8657 145.292 70.8386 145.576 71.0012 145.813C71.4483 146.315 71.97 146.342 72.3629 145.881C72.688 145.508 73.0539 145.183 73.3994 144.824C73.5891 144.567 73.8126 144.33 74.0091 144.079C74.1446 143.896 74.28 143.713 74.4223 143.53C74.5781 143.3 74.7407 143.076 74.9033 142.853C75.0388 142.65 75.1675 142.44 75.3165 142.243C75.4927 142.02 75.6417 141.782 75.7907 141.539C75.8991 141.322 76.0956 141.146 76.143 140.915C76.1091 141.132 76.2108 141.356 76.1837 141.586C76.1701 141.796 76.2175 142.006 76.2514 142.216C76.265 142.44 76.3259 142.65 76.3869 142.853C76.4208 142.961 76.4614 143.063 76.5224 143.158C76.7324 143.517 77.1795 143.551 77.4505 143.232C77.525 143.144 77.5792 143.049 77.6266 142.948C77.735 142.731 77.8366 142.521 77.9044 142.291C77.9721 142.067 78.0534 141.85 78.1212 141.627C78.1957 141.423 78.2431 141.207 78.3108 141.003C78.3786 140.773 78.4328 140.55 78.5073 140.319C78.5276 140.218 78.5344 140.116 78.5683 140.021C78.6157 139.825 78.6631 139.621 78.7173 139.425C78.7918 139.14 78.8257 138.842 78.9002 138.558C78.9476 138.3 79.0018 138.05 79.0493 137.792C79.1509 137.217 79.2389 137.176 79.7335 137.447C79.7606 137.46 79.7944 137.474 79.8283 137.481C81.1426 137.515 82.4568 137.521 83.7643 137.487C83.8659 137.474 83.954 137.427 84.042 137.386C84.5027 137.162 84.5501 137.169 84.9227 137.501C85.0243 137.555 85.1327 137.569 85.2479 137.569C86.9009 137.569 88.5538 137.589 90.2068 137.555C90.5997 137.44 90.9926 137.264 91.3923 137.542C91.7243 137.582 92.063 137.637 92.3949 137.637C93.926 137.637 95.4502 137.643 96.9812 137.63C97.8958 137.609 98.8103 137.643 99.7181 137.677C100.856 137.725 102.001 137.684 103.139 137.691C103.586 137.691 103.6 137.718 103.451 138.124C103.437 138.165 103.417 138.206 103.403 138.253C102.489 140.692 101.574 143.137 100.66 145.576C98.9052 150.257 97.1438 154.938 95.4028 159.626C94.7795 161.306 94.1292 162.98 93.5263 164.673C93.5059 164.829 93.5127 164.985 93.5331 165.148C93.655 165.961 93.7498 166.78 93.8718 167.593C93.9327 167.986 93.8989 168.406 94.1021 168.779C94.1902 168.853 94.2986 168.88 94.407 168.914C95.457 169.212 96.5138 169.51 97.5639 169.808C100.822 170.73 104.074 171.658 107.333 172.586C107.529 172.64 107.868 172.654 107.78 172.965C107.698 173.25 107.407 173.135 107.19 173.074C104.636 172.362 102.089 171.631 99.5352 170.913C97.9432 170.459 96.3444 170.005 94.7457 169.558C94.5695 169.51 94.3663 169.368 94.1766 169.544C94.136 169.686 94.1631 169.836 94.1834 169.978C94.2918 170.791 94.3866 171.597 94.5153 172.41C94.556 172.694 94.5221 172.992 94.6915 173.25C94.9896 173.02 95.2944 173.114 95.606 173.223C95.7551 173.277 95.9109 173.304 96.0667 173.345C98.4852 173.948 100.897 174.571 103.315 175.194C103.634 175.275 103.647 175.296 103.485 175.567C102.685 176.928 101.906 178.304 101.12 179.672C100.612 180.553 100.084 181.413 99.6165 182.314C99.42 182.7 99.5149 182.924 99.9146 183.086C100.172 183.188 100.443 183.262 100.673 183.344C100.314 183.432 100.016 183.676 99.6842 183.845C99.4404 183.967 99.21 184.008 98.9391 183.967C98.1126 183.838 97.2929 183.696 96.4664 183.594C96.3377 183.581 96.1954 183.513 96.087 183.642C96.0667 183.913 96.0464 184.184 96.2564 184.407C96.3851 184.489 96.5274 184.509 96.6764 184.529C97.4216 184.638 98.1735 184.739 98.9187 184.875C99.3591 184.956 99.7249 184.855 100.111 184.638C101.29 183.994 102.489 183.398 103.762 182.944C104.359 182.734 104.962 182.673 105.592 182.788C106.283 182.917 106.967 183.032 107.651 183.195C109.372 183.608 111.038 184.143 112.495 185.2C113.335 185.803 114.087 186.494 114.737 187.3C114.791 187.368 114.886 187.429 114.832 187.53C114.791 187.605 114.69 187.585 114.615 187.578C114.209 187.551 113.809 187.639 113.403 187.646C111.777 187.673 110.158 187.618 108.532 187.7C106.865 187.788 105.199 187.72 103.525 187.761C101.405 187.815 99.2846 187.795 97.1642 187.849C97.0083 187.856 96.8458 187.828 96.717 187.944C96.6087 188.194 96.6696 188.425 96.8119 188.648C97.0829 188.777 97.3674 188.689 97.6451 188.716C99.0745 188.682 100.511 188.736 101.94 188.655C103.559 188.567 105.185 188.641 106.811 188.594C108.952 188.54 111.099 188.547 113.24 188.506C114.033 188.492 114.818 188.519 115.611 188.492C116.221 188.472 116.41 188.099 116.085 187.585C116.045 187.517 115.997 187.449 115.956 187.388C114.608 185.491 112.881 184.062 110.72 183.188C108.972 182.483 107.143 182.07 105.28 181.826C104.948 181.786 104.603 181.799 104.271 181.867C103.566 182.002 102.909 182.273 102.259 182.565C101.967 182.693 101.689 182.761 101.385 182.619C101.256 182.558 101.107 182.524 100.971 182.477C100.667 182.362 100.646 182.321 100.809 182.043C101.175 181.393 101.554 180.749 101.92 180.106C102.733 178.683 103.566 177.274 104.359 175.844C104.514 175.567 104.684 175.492 104.989 175.58C105.443 175.709 105.903 175.831 106.364 175.946C106.791 176.054 106.852 176.034 107.096 175.668C107.665 174.801 108.22 173.921 108.769 173.04C110.727 169.91 112.61 166.74 114.432 163.522C115.835 161.042 117.176 158.542 118.47 156.009C119.405 154.18 120.279 152.324 121.125 150.447C122.534 147.31 123.822 144.133 124.757 140.827C125.326 138.693 125.813 136.546 125.752 134.324ZM62.2757 62.3045C60.2163 61.9048 58.5701 60.8209 57.4049 59.0663C56.5919 57.8402 56.3548 56.5327 56.9103 55.1168C57.1474 54.5139 57.3304 53.8839 57.6284 53.22C58.0552 54.1684 58.6378 54.9542 59.3221 55.6588C60.9547 57.3389 62.7906 58.7005 65.0397 59.4389C65.4665 59.5812 65.9068 59.6693 66.3607 59.7235C66.7943 59.7777 67.2278 59.7506 67.6817 59.6625C66.6452 61.5864 64.3826 62.711 62.2757 62.3045ZM68.3727 58.0299C68.1356 58.1315 67.9595 58.355 68.0001 58.6531C68.0272 58.8225 67.9121 58.836 67.8104 58.8767C67.4446 59.0189 67.0653 59.0325 66.7333 59.0392C66.5233 59.0189 66.3675 59.0121 66.2117 58.9918C65.8255 58.9444 65.541 58.8563 65.3242 58.416C64.9178 57.5692 64.1522 57.0001 63.4206 56.4311C62.4789 55.6927 61.4899 55.0288 60.3789 54.5681C60.0198 54.4191 59.6472 54.2565 59.2408 54.3581C59.1459 54.3852 59.112 54.3378 59.0782 54.2904C58.6717 53.7213 58.272 53.1455 58.1636 52.4342C58.0688 51.7974 58.3669 51.4315 59.0104 51.418C59.7285 51.3977 60.3924 51.6212 61.0292 51.899C63.2309 52.8542 65.27 54.0939 67.0856 55.6723C67.675 56.1872 68.1695 56.7834 68.5218 57.4947C68.6234 57.7047 68.7047 57.8876 68.3727 58.0299ZM69.7683 58.5244C69.6599 58.2128 69.7954 58.1111 70.0189 57.9892C70.7235 57.6166 71.4957 57.4337 72.2748 57.3253C74.4562 57.0205 76.6376 57.0069 78.8122 57.3863C79.4557 57.5014 80.0925 57.6573 80.6684 57.9824C81.4406 58.4092 81.4813 58.9241 80.7767 59.4593C80.3229 59.8048 79.8012 60.008 79.2593 60.1774C79.1915 60.1977 79.1306 60.2383 79.0696 60.1774C78.6089 59.6964 77.9789 59.6625 77.3895 59.588C75.7636 59.378 74.1446 59.4254 72.5458 59.7912C72.0851 59.8996 71.577 59.9606 71.3196 60.4619C71.2857 60.5229 71.218 60.4958 71.1638 60.4822C70.5947 60.3264 70.0392 60.1503 69.5718 59.7709C69.3821 59.6151 69.2534 59.4254 69.2128 59.1409C69.7073 59.2086 69.9308 58.9851 69.7683 58.5244ZM70.0663 73.3469C69.8834 73.3808 69.8428 73.3266 69.8225 73.1437C69.6531 71.3213 69.5244 69.499 69.4228 67.6767C69.294 65.3192 69.2195 62.9617 69.1518 60.6041C69.1518 60.5364 69.1518 60.4754 69.1518 60.4145C71.4348 61.6745 73.9007 61.6339 76.3734 61.4645C77.6605 61.3764 78.9205 61.1258 80.1196 60.6312C80.5125 60.4687 80.8716 60.2519 81.2577 59.9944C81.3052 60.7667 81.3864 61.4916 81.4 62.2232C81.4339 63.9372 81.4339 65.6511 81.3932 67.3718C81.3864 67.5886 81.3323 67.7173 81.1358 67.8189C80.8309 67.9815 80.6277 68.2661 80.4651 68.5641C80.3635 68.7538 80.4042 68.9164 80.5803 69.0383C80.7632 69.1603 80.9258 69.0993 81.0545 68.9435C81.1697 68.8012 81.2645 68.6454 81.3864 68.5167C81.61 68.2932 81.8607 68.2796 82.1181 68.4557C82.9513 69.0045 82.8836 70.6371 82.0097 71.1113C81.671 71.2942 81.3593 71.2265 81.0613 71.0097C80.919 70.9081 80.7835 70.82 80.6006 70.9216C80.3432 71.0707 80.3296 71.3823 80.6209 71.5449C80.9326 71.721 80.9055 71.9175 80.8242 72.1952C80.6684 72.7372 80.499 73.2724 80.167 73.7398C79.7403 74.336 79.1509 74.5392 78.5141 74.1937C76.6308 73.164 74.5849 73.1166 72.5255 73.1437C71.7058 73.1437 70.8793 73.1979 70.0663 73.3469ZM79.4286 114.881C79.3202 114.901 79.2051 114.888 79.0899 114.895C78.0602 114.901 77.0373 114.922 76.0075 114.908C75.7433 114.908 75.6891 114.983 75.7095 115.233C75.8653 117.869 76.0075 120.504 76.1498 123.139C76.1498 123.193 76.1633 123.254 76.1633 123.309C76.1701 123.552 76.0753 123.749 75.8111 123.756C75.5672 123.762 75.4588 123.586 75.4453 123.349C75.4249 122.977 75.4046 122.604 75.3775 122.231C75.242 119.887 75.1065 117.543 74.9846 115.206C74.971 114.962 74.8897 114.922 74.6662 114.929C72.2545 114.956 69.836 114.969 67.4243 114.983C67.3362 114.983 67.2414 114.983 67.1533 114.976C66.9569 114.956 66.8417 114.84 66.8349 114.644C66.8281 114.434 66.9569 114.312 67.1601 114.285C67.2278 114.278 67.2956 114.278 67.3633 114.278C69.3347 114.278 71.3128 114.278 73.2842 114.278C73.2842 114.244 73.2842 114.21 73.2842 114.177C75.2352 114.177 77.1863 114.177 79.1373 114.177C79.2254 114.177 79.3202 114.177 79.4083 114.19C79.598 114.217 79.7132 114.332 79.7132 114.536C79.7335 114.732 79.6183 114.847 79.4286 114.881Z" fill="black"/>
<path d="M92.1917 144.689C92.273 144.695 92.3475 144.695 92.4288 144.716C92.6117 144.763 92.7336 144.885 92.7133 145.082C92.6998 145.292 92.5575 145.4 92.3475 145.413C90.4913 145.502 88.6419 145.535 86.8195 145.014C85.1869 144.546 83.5339 144.147 81.8403 143.937C79.4286 143.639 77.0169 143.462 74.5917 143.49C74.5104 143.49 74.4358 143.483 74.3546 143.483C74.5171 143.252 74.6865 143.015 74.8491 142.785C75.3775 142.663 75.9059 142.636 76.4343 142.792C76.4682 142.873 76.4953 142.961 76.5359 143.042C76.7392 143.456 77.1389 143.49 77.4166 143.124C77.4844 143.036 77.5385 142.934 77.5995 142.839C77.9044 142.717 78.2295 142.758 78.5344 142.778C81.0816 142.968 83.6017 143.3 86.0676 143.977C87.1041 144.262 88.1473 144.506 89.2109 144.634C89.9968 144.722 90.7894 144.641 91.5752 144.634C91.7852 144.655 91.9952 144.58 92.1917 144.689Z" fill="#FEFEFE"/>
<path d="M96.5951 138.944C95.7415 140.15 94.6101 140.916 93.113 141.065C92.1172 141.159 91.6023 140.855 91.1755 139.96C90.952 139.479 90.7555 138.985 90.7284 138.45C90.7149 138.226 90.6742 137.975 91.0604 137.975C91.3381 137.975 91.4059 137.732 91.3517 137.474C93.2485 137.494 95.1521 137.515 97.0489 137.542C97.0828 137.82 97.0422 138.003 96.6831 137.928C96.4867 137.887 96.3647 138.07 96.2292 138.185C95.6128 138.7 95.0098 139.222 94.2647 139.554C93.4991 139.893 92.7811 139.615 92.4423 138.849C92.361 138.666 92.3272 138.49 92.4694 138.314C92.6049 138.138 92.5981 137.955 92.4152 137.813C92.2256 137.664 92.0494 137.738 91.9072 137.894C91.6701 138.145 91.6023 138.443 91.6701 138.768C91.9343 140.021 93.2553 140.726 94.434 140.245C95.2198 139.926 95.8702 139.405 96.5138 138.87C96.5815 138.856 96.6154 138.876 96.5951 138.944Z" fill="#FEBD00"/>
<path d="M56.2939 166.909C56.4497 166.909 56.5581 166.977 56.6123 167.119C56.6665 167.268 56.6461 167.417 56.5174 167.519C56.4294 167.587 56.321 167.627 56.2194 167.675C52.0395 169.511 47.8665 171.346 43.6866 173.182C43.6121 173.216 43.5443 173.257 43.4698 173.277C43.2869 173.325 43.1311 173.27 43.043 173.094C42.955 172.911 43.0092 172.762 43.1718 172.654C43.2666 172.593 43.3682 172.546 43.4698 172.505C47.6293 170.676 51.7821 168.853 55.9416 167.024C56.0568 166.97 56.1652 166.902 56.2939 166.909Z" fill="#FEFEFE"/>
<path d="M94.2376 169.49C94.2037 169.24 94.1292 168.989 94.1495 168.731C96.2157 169.314 98.2819 169.897 100.348 170.479C102.699 171.143 105.043 171.807 107.394 172.478C107.658 172.552 107.996 172.573 107.922 172.986C107.875 173.243 107.671 173.291 107.217 173.162C103.038 171.983 98.8645 170.798 94.6847 169.619C94.5357 169.571 94.3866 169.531 94.2376 169.49Z" fill="#FEFEFE"/>
<path d="M73.3384 144.75C74.6662 144.655 75.994 144.662 77.3286 144.763C79.2796 144.906 81.1968 145.224 83.1004 145.657C83.1614 145.671 83.2223 145.705 83.351 145.759C79.6251 145.759 75.9737 145.759 72.3222 145.759C72.661 145.42 72.9997 145.088 73.3384 144.75Z" fill="#FEBE01"/>
<path d="M70.9131 143.7C68.4811 143.971 66.0762 144.431 63.7051 145.034C62.9057 145.237 62.147 145.556 61.4696 146.05C61.2731 146.193 61.0563 146.294 60.8802 146.05C60.6973 145.8 60.8531 145.617 61.0699 145.461C62.0996 144.716 63.2851 144.357 64.4977 144.093C66.5165 143.659 68.5353 143.246 70.588 143.015C70.7302 143.002 70.8793 142.995 71.0283 142.988C70.9877 143.232 70.9538 143.469 70.9131 143.7Z" fill="#FEFEFE"/>
<path d="M69.4837 137.277C70.1205 137.291 70.7506 137.298 71.3874 137.311C71.3332 137.792 71.6516 138.158 71.7938 138.571C71.787 139.052 71.6787 139.513 71.577 139.974C70.9131 140.184 69.626 139.567 69.4024 138.93C69.294 138.625 69.3008 138.307 69.3957 138.002C69.4702 137.765 69.504 137.521 69.4837 137.277Z" fill="#FEBD00"/>
<path d="M78.4328 140.299C78.9747 140.414 79.5167 140.53 80.0722 140.502C80.2483 140.489 80.4313 140.469 80.6006 140.414C81.0206 140.286 81.1358 140.049 80.9868 139.642C80.858 139.283 80.6413 138.958 80.4584 138.626C80.35 138.429 80.2416 138.233 80.2619 137.989C80.2822 137.725 80.5261 137.488 80.7564 137.542C81.0206 137.603 81.1426 137.772 81.0342 138.043C80.9868 138.158 81.0613 138.24 81.1087 138.321C81.2645 138.619 81.4474 138.904 81.5829 139.215C82.03 140.231 81.5897 141.011 80.4855 141.18C79.7199 141.295 78.9815 141.139 78.2431 140.99C78.2837 140.746 78.3312 140.516 78.4328 140.299Z" fill="#FEFEFE"/>
<path d="M91.5685 144.689C89.5632 144.994 87.6461 144.52 85.7424 143.991C83.561 143.388 81.3255 143.117 79.0831 142.934C78.5886 142.894 78.0941 142.867 77.5995 142.84C77.674 142.65 77.7553 142.46 77.8298 142.271C80.4041 142.528 82.8972 143.205 85.424 143.72C87.348 144.113 89.2719 144.472 91.2365 144.581C91.3314 144.655 91.5075 144.506 91.5685 144.689Z" fill="#FEBD01"/>
<path d="M42.3046 134.947C42.3656 134.974 42.4604 134.995 42.5282 135.042C43.5918 135.821 44.8112 136.302 45.9967 136.837C46.4235 137.034 46.5454 137.196 46.437 137.433C46.3286 137.664 46.1186 137.684 45.6986 137.488C44.6283 136.986 43.524 136.56 42.5349 135.902C42.3724 135.794 42.2166 135.692 42.0675 135.57C41.9523 135.469 41.8982 135.34 41.9659 135.178C42.0269 135.042 42.1353 134.988 42.3046 134.947Z" fill="#FDFDFD"/>
<path d="M104.284 137.453C104.088 137.453 103.986 137.365 103.925 137.216C103.857 137.04 103.945 136.912 104.074 136.803C104.379 136.559 104.697 136.322 105.002 136.071C105.747 135.455 106.459 134.791 107.285 134.276C107.353 134.236 107.414 134.188 107.488 134.154C107.665 134.08 107.827 134.1 107.936 134.27C108.051 134.446 108.024 134.622 107.854 134.744C107.637 134.906 107.4 135.035 107.19 135.204C106.33 135.895 105.476 136.593 104.616 137.284C104.514 137.372 104.413 137.467 104.284 137.453Z" fill="#FEFEFE"/>
<path d="M69.4837 137.278C69.626 137.44 69.6124 137.616 69.5515 137.813C69.2263 138.89 69.5176 139.432 70.5947 139.777C70.9131 139.879 71.2451 139.953 71.577 139.981C71.5296 140.218 71.489 140.455 71.4415 140.692C70.8657 140.597 70.2899 140.482 69.7683 140.204C68.6911 139.628 68.3592 138.287 69.0434 137.278C69.1924 137.203 69.3415 137.203 69.4837 137.278Z" fill="#FEFEFD"/>
<path d="M105.083 138.192C104.901 138.185 104.738 138.104 104.718 137.867C104.697 137.63 104.84 137.501 105.056 137.481C106.039 137.399 106.994 137.176 107.956 136.993C108.166 136.952 108.342 137.027 108.396 137.257C108.45 137.487 108.335 137.643 108.118 137.684C107.123 137.887 106.127 138.111 105.083 138.192Z" fill="#FDFDFD"/>
<path d="M79.7267 137.379C79.4625 138.002 79.6048 138.585 79.8419 139.195C80.0112 139.621 79.7877 139.94 79.3338 140.048C79.056 140.116 78.7647 140.177 78.4802 140.055C78.5344 139.838 78.5886 139.628 78.6496 139.411C79.0222 139.256 79.0222 139.256 78.9002 138.856C78.8664 138.741 78.846 138.619 78.846 138.497C78.8934 138.179 78.9409 137.86 78.9951 137.542C79.0289 137.359 79.0967 137.189 79.2999 137.142C79.5031 137.088 79.6251 137.223 79.7267 137.379Z" fill="#FEFEFD"/>
<path d="M69.0163 145.658C68.7047 145.353 68.7453 145.116 69.145 144.953C69.6937 144.723 70.2696 144.56 70.8522 144.425C70.859 144.662 70.8657 144.899 70.8793 145.129C70.8115 145.231 70.7167 145.278 70.6015 145.312C70.2289 145.414 69.8699 145.549 69.5041 145.658C69.3415 145.705 69.1789 145.766 69.0163 145.658Z" fill="#FEFEFD"/>
<path d="M69.0163 145.658C69.267 145.698 69.4702 145.57 69.6938 145.502C70.0867 145.38 70.4796 145.258 70.8725 145.129C70.9335 145.339 70.9944 145.549 71.0554 145.759C68.576 145.759 66.0965 145.766 63.6238 145.759C63.3664 145.759 63.2241 145.814 63.2038 146.078C63.1496 145.8 63.2512 145.705 63.5425 145.712C65.2429 145.726 66.9365 145.719 68.6369 145.719C68.7589 145.712 68.9011 145.759 69.0163 145.658Z" fill="#FEBD01"/>
<path d="M76.4411 142.792C75.9127 142.792 75.3843 142.785 74.8559 142.785C74.9846 142.595 75.1133 142.406 75.2488 142.216C75.6078 142.067 75.9669 142.013 76.3259 142.209C76.3598 142.399 76.4004 142.595 76.4411 142.792Z" fill="#FDBE08"/>
<path d="M54.7832 187.7C55.5961 187.706 56.409 187.713 57.222 187.72C57.2491 187.727 57.2558 187.74 57.2491 187.747C57.2423 187.761 57.2355 187.767 57.2287 187.767C54.6138 187.767 51.9921 187.761 49.3771 187.754C49.0181 187.754 48.6591 187.788 48.3 187.72C48.6591 187.713 49.0181 187.7 49.3771 187.7C51.1792 187.706 52.9812 187.706 54.7832 187.7Z" fill="#988344"/>
<path d="M76.3191 142.203C75.9601 142.203 75.6011 142.209 75.242 142.209C75.4046 141.972 75.5604 141.735 75.723 141.498C75.8991 141.396 76.0753 141.376 76.2514 141.505C76.2717 141.742 76.292 141.972 76.3191 142.203Z" fill="#FDFDFD"/>
<path d="M71.8006 138.571C71.5296 138.192 71.1638 137.847 71.3941 137.311C71.7938 137.101 71.8751 137.142 71.8616 137.569C71.848 137.901 71.9022 138.239 71.8006 138.571Z" fill="#FAFAF8"/>
<path d="M78.8392 138.497C78.8867 138.633 78.9409 138.768 78.9883 138.904C79.1712 139.412 79.1712 139.412 78.6428 139.412C78.6834 139.1 78.7309 138.795 78.8392 138.497Z" fill="#FABB05"/>
<path d="M76.2446 141.512C76.0685 141.512 75.8924 141.505 75.7162 141.505C75.8585 141.268 76.0008 141.038 76.1972 140.712C76.2175 141.051 76.2311 141.281 76.2446 141.512Z" fill="#F0B405"/>
<path d="M95.9109 188.608C96.2022 188.601 96.5002 188.594 96.7915 188.581C97.0828 188.587 97.3809 188.601 97.6722 188.608C97.0828 188.689 96.4935 188.662 95.9041 188.655C95.9109 188.642 95.9109 188.621 95.9109 188.608Z" fill="#928661"/>
<path d="M56.4497 170.581C56.4293 170.784 56.409 170.988 56.3887 171.191C56.3548 171.109 56.321 171.028 56.2735 170.954C56.1448 170.737 56.2397 170.635 56.4497 170.581Z" fill="#EAEAE8"/>
<path d="M91.0333 181.244C91.1959 182.016 91.2433 182.809 91.3449 183.588C91.1078 183.743 90.8571 183.615 90.6268 183.581C90.3423 183.54 90.2068 183.621 90.139 183.892C89.8342 185.132 89.4955 186.358 89.1771 187.598C89.1161 187.822 89.1703 187.903 89.4142 187.896C90.0916 187.876 90.7691 187.889 91.4465 187.889C91.6023 187.889 91.7649 187.856 91.9004 187.977C91.9343 188.181 91.9614 188.384 91.9952 188.587C91.9681 188.777 91.8191 188.682 91.7243 188.689C91.311 188.709 90.891 188.675 90.4778 188.709C89.8477 188.716 89.2177 188.729 88.5809 188.729C88.2422 188.729 88.0999 188.567 88.188 188.235C88.6351 186.48 89.0958 184.726 89.5564 182.978C89.631 182.707 89.8274 182.619 90.0781 182.7C90.4574 182.815 90.6065 182.66 90.6878 182.3C90.7691 181.941 90.9181 181.596 91.0333 181.244Z" fill="black"/>
<path d="M59.7353 182.768C59.7827 182.158 59.8369 181.549 59.8843 180.939C59.9182 180.898 59.9588 180.898 59.9927 180.932C60.0672 181.169 60.1485 181.4 60.2163 181.637C60.2637 181.793 60.3247 181.847 60.5008 181.799C61.1105 181.63 61.1511 181.657 61.307 182.267C61.7337 183.9 62.1605 185.525 62.5873 187.158C62.7025 187.605 62.5806 187.768 62.1199 187.768C61.1647 187.768 60.2027 187.761 59.2475 187.754C59.2001 187.673 59.2137 187.592 59.2408 187.504C59.2679 187.348 59.2882 187.192 59.3153 187.036C59.4304 186.914 59.5863 186.934 59.7285 186.934C60.2705 186.928 60.8124 186.934 61.3544 186.934C61.6592 186.928 61.6931 186.887 61.6118 186.596C61.2934 185.383 60.975 184.17 60.6566 182.965C60.5685 182.639 60.5347 182.626 60.2027 182.714C60.0605 182.761 59.9046 182.883 59.7353 182.768Z" fill="black"/>
<path d="M90.471 188.716C90.8707 188.641 91.2772 188.695 91.6768 188.668C91.7852 188.662 91.9072 188.716 91.9885 188.601C92.4153 188.607 92.842 188.607 93.2688 188.614C93.2892 188.628 93.2959 188.641 93.2824 188.655C93.2756 188.662 93.2688 188.668 93.2621 188.668C92.334 188.689 91.4059 188.743 90.471 188.716Z" fill="#997300"/>
<path d="M93.2688 188.662C93.2688 188.641 93.2756 188.628 93.2756 188.607C93.8582 188.607 94.4476 188.607 95.0302 188.607C95.0302 188.621 95.0302 188.641 95.0302 188.655C94.4408 188.655 93.8514 188.655 93.2688 188.662Z" fill="#785C09"/>
<path d="M59.2475 187.517C59.2475 187.598 59.2543 187.68 59.2543 187.768C58.8953 187.768 58.5362 187.774 58.1772 187.774C58.1568 187.768 58.1501 187.754 58.1501 187.741C58.1568 187.727 58.1636 187.72 58.1704 187.72C58.4143 187.72 58.6514 187.7 58.8953 187.72C59.0782 187.741 59.1866 187.673 59.2475 187.517Z" fill="#D1A113"/>
<path d="M58.1704 187.72C58.1704 187.734 58.1704 187.754 58.1772 187.768C57.8588 187.768 57.5471 187.768 57.2287 187.768C57.2287 187.754 57.2287 187.734 57.222 187.72C57.5404 187.727 57.8588 187.72 58.1704 187.72Z" fill="#B4912B"/>
<path d="M95.0302 188.655C95.0302 188.641 95.0302 188.621 95.0302 188.607C95.3215 188.607 95.6196 188.607 95.9109 188.607C95.9109 188.621 95.9109 188.641 95.9109 188.655C95.6128 188.655 95.3215 188.655 95.0302 188.655Z" fill="#7F6D35"/>
<path d="M59.9927 180.939C59.9589 180.939 59.9182 180.939 59.8843 180.945C59.864 180.857 59.8572 180.769 59.925 180.688C59.9453 180.769 59.9724 180.857 59.9927 180.939Z" fill="#574A21"/>
<path d="M86.7654 103.805C86.7722 104.042 86.6705 104.191 86.4673 104.218C86.2437 104.252 86.1083 104.123 86.0608 103.907C85.9186 103.283 85.7966 102.653 85.6408 102.03C85.126 99.9233 84.4688 97.8503 83.7711 95.7976C83.7372 95.7028 83.6965 95.608 83.6898 95.5063C83.6694 95.3302 83.744 95.1947 83.9133 95.1337C84.0827 95.066 84.2249 95.1337 84.3198 95.2828C84.3672 95.3573 84.3943 95.4454 84.4282 95.5267C85.336 98.189 86.176 100.872 86.7247 103.636C86.7383 103.703 86.7518 103.764 86.7654 103.805Z" fill="black"/>
<path d="M91.9004 187.984C91.0062 187.998 90.1187 187.998 89.2245 188.018C89.0077 188.025 88.9806 187.964 89.028 187.768C89.3871 186.406 89.7461 185.044 90.0916 183.683C90.1458 183.473 90.2407 183.412 90.4439 183.452C90.742 183.506 91.0468 183.54 91.3449 183.588C91.5346 185.051 91.7175 186.521 91.9004 187.984Z" fill="#00B1B1"/>
<path d="M91.5684 144.689C91.4804 144.587 91.3245 144.688 91.2365 144.58C91.7581 144.58 92.273 144.58 92.7946 144.58C92.6117 144.722 92.3746 144.56 92.1917 144.695C91.9817 144.688 91.7784 144.689 91.5684 144.689Z" fill="#FEC625"/>
<path d="M59.7353 182.768C59.7488 182.768 59.7556 182.768 59.7692 182.761C60.0605 182.7 60.4127 182.423 60.616 182.572C60.8057 182.707 60.8057 183.12 60.887 183.412C61.185 184.53 61.4696 185.654 61.7744 186.772C61.8354 186.995 61.8015 187.063 61.5576 187.056C60.8124 187.043 60.074 187.05 59.3288 187.05C59.4237 185.62 59.5592 184.191 59.7353 182.768Z" fill="#00B1B1"/>
<path d="M96.5951 138.944C96.568 138.917 96.5477 138.897 96.5206 138.87C96.5477 138.802 96.6222 138.727 96.6628 138.761C96.7306 138.829 96.6493 138.89 96.5951 138.944Z" fill="#FEE089"/>
<path d="M74.9507 69.0183C74.9304 69.5467 74.7136 70.0006 74.4291 70.4273C74.2733 70.6712 74.3207 70.7729 74.5917 70.8203C74.7136 70.8406 74.8288 70.8812 74.9507 70.9219C75.1607 70.9896 75.2827 71.1319 75.2285 71.3555C75.1675 71.579 74.9981 71.6468 74.7813 71.6061C74.6391 71.579 74.4968 71.5384 74.3613 71.4909C73.5552 71.22 73.4061 70.827 73.8261 70.0886C74.0362 69.716 74.2394 69.3434 74.2597 68.8963C74.2665 68.6795 74.4088 68.5373 74.6391 68.5576C74.9033 68.5847 74.9575 68.7879 74.9507 69.0183Z" fill="#010101"/>
<path d="M77.6131 67.7718C77.6063 68.0496 77.3895 68.2935 77.1389 68.2935C76.8814 68.2935 76.6714 68.0564 76.6782 67.7718C76.6782 67.4873 76.895 67.257 77.1524 67.257C77.4031 67.2502 77.6131 67.4873 77.6131 67.7718Z" fill="#030303"/>
<path d="M72.898 67.7578C72.9048 68.0559 72.7151 68.2862 72.4509 68.293C72.18 68.2998 71.9835 68.0898 71.9767 67.7917C71.97 67.5004 72.1664 67.2701 72.4238 67.2565C72.688 67.2497 72.8913 67.4597 72.898 67.7578Z" fill="#020202"/>
</g>
<defs>
<clipPath id="clip0">
<rect width="23.3243" height="20.633" fill="white" transform="translate(23.4664 42.9844) rotate(97.4033)"/>
</clipPath>
<clipPath id="clip1">
<rect width="101.617" height="188.73" fill="white" transform="translate(24.1694)"/>
</clipPath>
</defs>
</svg>
