<svg width="237" height="230" viewBox="0 0 237 230" fill="none" xmlns="http://www.w3.org/2000/svg">
<g clip-path="url(#clip0)">
<path d="M10.2304 131.398C10.2304 132.225 10.1399 133.145 10.2304 133.88C10.4115 134.616 10.8642 135.168 11.2263 135.903C11.9506 135.352 13.037 134.984 13.3086 134.248C13.6708 133.053 13.4897 131.674 13.5802 130.386C13.6708 129.099 13.9424 127.72 13.7613 126.432C13.6708 125.788 12.9465 125.053 12.4938 124.409C11.9506 124.869 10.9547 125.329 10.8642 125.88C10.4115 127.72 10.321 129.559 10.2304 131.398C10.1399 131.306 10.1399 131.306 10.2304 131.398Z" fill="black"/>
<path d="M9.2346 145.467C9.2346 145.926 8.96299 146.478 9.14406 146.846C9.41567 147.49 9.86834 148.317 10.321 148.409C10.7737 148.501 11.7696 147.765 11.8601 147.306C12.2223 145.375 12.4033 143.352 12.4033 141.421C12.4033 140.869 11.4074 140.409 10.8642 139.857C10.5021 140.409 9.86834 140.869 9.68727 141.513C9.5062 142.8 9.41566 144.179 9.2346 145.467Z" fill="black"/>
<path d="M20.8237 140.409C21.0048 140.317 21.8196 140.041 22.0006 139.582C22.0912 139.122 21.729 137.926 21.3669 137.834C19.1941 137.375 17.0212 137.099 14.8484 137.007C14.5768 137.007 13.943 138.018 14.0336 138.386C14.2146 138.938 14.7578 139.582 15.3011 139.765C16.9307 140.041 18.6508 140.133 20.8237 140.409Z" fill="black"/>
<path d="M3.16873 135.536C2.08231 136.087 4.76837e-06 136.731 4.76837e-06 137.283C0.0905399 139.306 2.08231 138.846 3.3498 139.03C4.61729 139.214 5.97531 138.938 7.2428 138.754C7.60494 138.662 8.05762 137.926 8.05762 137.559C8.05762 137.191 7.42387 136.731 6.9712 136.639C5.79424 136.363 4.61729 136.271 3.44033 136.087C3.3498 135.812 3.25926 135.72 3.16873 135.536Z" fill="black"/>
</g>
<path d="M142.398 28.3911C142.546 29.7408 142.62 31.1227 142.853 32.4619C142.944 32.9784 143.051 33.482 143.057 34.0088C143.064 34.6319 143.131 35.255 143.244 35.8692C143.551 37.5338 143.573 39.2245 143.826 40.8966C143.933 41.5976 144.019 42.3036 144.119 43.0053C144.178 43.4171 144.293 43.9007 144.303 44.3079C144.314 44.8024 144.22 45.3623 144.376 45.8304" stroke="black" stroke-width="1.5" stroke-linecap="round" stroke-linejoin="round"/>
<path d="M142.251 28.2446C141.746 28.8606 141.288 29.5141 140.785 30.1253C140.152 30.8956 139.312 31.4951 138.547 32.1363C137.324 33.1595 136.126 34.2001 134.924 35.2464C133.761 36.2586 132.663 37.3483 131.439 38.2832C130.444 39.0432 129.439 39.7723 128.435 40.5221C127.77 41.018 127.173 41.5252 126.387 41.8044C125.534 42.1076 124.71 42.5461 123.871 42.8913C122.969 43.2628 122.077 43.594 121.148 43.8928C120.894 43.9744 120.688 44.0508 120.452 44.1777C120.014 44.4136 121.235 47.1045 121.376 47.5158C121.893 49.0245 122.157 50.6085 122.394 52.1768C122.587 53.4594 122.799 54.7441 123.012 56.0237C123.112 56.6235 123.107 57.3988 123.362 57.9533C123.542 58.3412 123.786 58.8921 123.786 59.317C123.786 59.566 123.957 59.7045 124.022 59.9398C124.065 60.0933 124.051 60.3254 124.16 60.4487C124.386 60.7029 124.774 60.033 124.889 59.895C125.502 59.1598 126.454 58.4946 127.295 58.0428C128.138 57.5898 128.912 57.1072 129.721 56.6018" stroke="black" stroke-width="1.5" stroke-linecap="round" stroke-linejoin="round"/>
<path d="M144.376 46.0503C143.733 46.7081 143.12 47.3876 142.406 47.9717C141.761 48.4985 141.053 48.9356 140.403 49.4535C139.482 50.1871 138.546 50.986 137.529 51.5825C136.882 51.9618 136.15 52.6734 135.73 53.3044" stroke="black" stroke-width="1.5" stroke-linecap="round" stroke-linejoin="round"/>
<path d="M129.794 56.8948C130.665 56.9993 131.187 57.3713 131.781 57.998C132.259 58.5025 132.827 58.8312 133.348 59.2721C133.506 59.4059 133.856 59.8404 134.008 59.5693C134.246 59.1425 134.335 58.5518 134.476 58.0835C134.564 57.7901 134.663 57.4961 134.704 57.192C134.826 56.2748 135.286 55.409 135.583 54.55C135.703 54.2029 135.755 53.8877 135.917 53.5649C136.024 53.3499 135.983 53.0244 136.242 52.938" stroke="black" stroke-width="1.5" stroke-linecap="round" stroke-linejoin="round"/>
<path d="M142.031 28.3911C141.22 28.9114 140.138 29.2249 139.202 29.417C138.73 29.5137 138.229 29.6368 137.745 29.6368C136.886 29.6368 135.946 29.4807 135.379 30.223C134.737 31.0652 134.118 31.8442 133.307 32.5352C132.275 33.4155 131.162 34.1778 130.12 35.0428C129.643 35.4386 129.207 35.8824 128.724 36.2722C128.501 36.4516 128.233 36.5731 128.036 36.781C127.809 37.0208 127.686 37.31 127.486 37.5667C127.113 38.0463 126.394 38.2447 125.87 38.503C125.316 38.776 124.795 39.0471 124.209 39.252C123.471 39.5105 122.754 39.8799 122.031 40.1842C121.453 40.4276 120.818 40.5297 120.236 40.7704C119.302 41.1568 118.258 41.301 117.338 41.7433C116.857 41.9746 116.395 42.1741 115.917 42.3865C115.394 42.619 115.958 43.9816 116.059 44.2916C116.287 44.9861 116.476 45.6848 116.711 46.3759C117.162 47.7052 117.264 49.1106 117.623 50.467C117.767 51.0151 117.653 51.5803 117.777 52.132C117.916 52.7468 118.062 53.4642 118.07 54.0941C118.081 54.9635 118.329 55.8848 118.473 56.7523C118.543 57.1696 118.496 57.6691 118.616 58.0672C118.7 58.345 118.788 58.6537 118.803 58.9465C118.822 59.3024 120.006 59.5919 120.293 59.7077C120.795 59.91 121.375 60.2512 121.917 60.3346C122.49 60.4227 123.073 60.6628 123.639 60.8516" stroke="black" stroke-width="1.5" stroke-linecap="round" stroke-linejoin="round"/>
<path d="M126.717 58.3604C127.81 58.4771 128.731 58.6913 129.391 59.606C129.707 60.0426 130.325 60.2675 130.617 60.7051C131.057 61.3652 131.788 60.5142 132.286 60.2655C132.626 60.0953 132.986 59.9611 133.336 59.8096C133.693 59.6547 134.023 59.6793 134.411 59.6793" stroke="black" stroke-width="1.5" stroke-linecap="round" stroke-linejoin="round"/>
<path d="M127.083 46.4898C128.728 46.4898 130.412 46.3057 132.009 46.7259C132.493 46.8533 132.959 46.9294 133.458 46.9294C133.814 46.9294 134.069 47.1493 134.439 47.1493C135.025 47.1493 135.149 46.773 135.322 46.2293C135.716 44.9974 136.067 43.7207 136.389 42.4679C136.578 41.734 136.813 41.0196 137.228 40.3795C137.389 40.1299 137.615 39.925 137.781 39.6753" stroke="black" stroke-width="1.5" stroke-linecap="round" stroke-linejoin="round"/>
<path d="M82.571 69.3088C82.6252 69.0807 82.4308 68.7848 82.747 68.5855L82.8326 68.7629C83.0531 68.5672 83.313 68.567 83.5542 68.6016C83.958 68.4369 84.338 68.2617 84.7315 68.1269C85.1439 67.9856 85.5692 67.883 86 67.7603L86.1002 67.9943C86.3052 67.4853 86.7296 67.3172 87.1424 67.192L87.1266 66.74C87.081 66.7187 87.0354 66.6975 86.9634 66.664C86.8844 66.7739 86.8017 66.889 86.6957 67.0366C86.3902 66.8336 86.1128 66.9676 85.8209 67.146L85.873 67.4442C85.492 67.3513 85.0891 67.4076 84.7458 67.6018C83.9809 68.0162 83.1207 68.1634 82.2697 68.3005C82.1278 68.3232 81.9717 68.2543 81.6814 68.2027L82.0383 68.7172L82.4321 68.5009C82.4018 68.8153 82.3795 69.0455 82.3573 69.2755L81.4514 69.3268L81.354 69.1319C80.695 69.2477 80.0845 68.9486 79.4252 68.816L79.202 68.527L79.3466 68.2161L79.0579 68.0176C79.0428 68.2222 79.0335 68.3483 79.0239 68.4783C78.9692 68.4985 78.8979 68.5249 78.8291 68.5504C78.4844 68.4046 78.5913 68.0485 78.458 67.735C78.3662 67.8686 78.2935 67.9744 78.1923 68.1215C77.7583 68.0186 77.6008 67.5656 77.2708 67.3429C77.3202 67.1988 77.3594 67.0843 77.4479 66.8259C77.2485 66.9812 77.1368 67.0682 77.0904 67.1043L76.4892 66.8246C76.5808 66.7591 76.6436 66.7141 76.7791 66.6172L76.3146 66.5264C76.3683 66.5691 76.3336 66.5517 76.3131 66.5237C75.9665 66.0499 75.5948 65.5918 75.2828 65.096C74.8549 64.4277 74.5384 63.6931 74.3457 62.9209C74.1883 62.2682 74.1584 61.5845 73.9648 60.9344C73.9256 60.8035 73.9512 60.6524 73.9468 60.5019C73.9687 60.4938 74.0162 60.4763 74.1247 60.4365C74.0397 60.3421 73.9798 60.2276 73.9504 60.1035C73.9209 59.9794 73.923 59.8496 73.9563 59.726C74.1396 58.8677 74.1448 58.8687 74.4249 58.6292L74.4822 57.7586L74.9256 57.7446L74.8876 57.4401C75.2477 56.933 75.5801 56.4648 75.9183 55.9886L76.2882 56.113C76.4765 55.635 76.9254 55.4916 77.4341 55.3173L77.1513 54.9236L77.5647 54.6528L77.5276 54.9873C77.6637 54.9926 77.837 55.0518 77.9545 54.9944C78.3414 54.8008 78.7177 54.5861 79.0816 54.3514C79.1743 54.2928 79.218 54.155 79.2349 54.1292C79.5795 54.024 79.9137 54.01 80.1244 53.8408C80.7 53.3785 81.3863 53.3927 82.042 53.2659C82.2293 53.2389 82.4178 53.2216 82.6068 53.214C82.6 53.2852 82.5917 53.3787 82.5823 53.4786C82.6209 53.4788 82.6883 53.4898 82.6933 53.477C82.7712 53.2793 82.8596 53.0989 83.1953 53.1275L83.5945 53.3132L84.356 52.944L84.7242 53.2678C85.1704 52.8915 85.732 53.0207 86.2878 53.0315L86.3927 53.2453L87.0058 53.0358L87.5479 53.288C87.7814 53.0965 88.014 52.955 88.2647 53.2504L89.1523 53.1025L88.1676 51.7096L87.9537 51.7508L87.5226 51.3527L87.593 51.2014C87.5636 51.1742 87.5208 51.1215 87.5107 51.1276C87.3148 51.2399 87.1659 51.1003 87.0266 51.0188C86.8455 50.9131 86.6986 50.7502 86.525 50.6291C86.3657 50.5179 86.1505 50.4637 86.0316 50.3227C85.8683 50.1296 85.6513 50.2584 85.4623 50.1618C85.2521 50.0542 85.1299 49.814 84.8359 49.8029C84.603 49.7942 84.3741 49.6274 84.1492 49.5189C83.4488 49.1805 82.6925 49.0632 81.9342 48.9451C81.4689 48.8725 81.0115 48.7377 80.5443 48.6943C79.8024 48.6153 79.0562 48.5799 78.3096 48.5883C77.9604 48.597 77.6023 48.4013 77.2554 48.6149C77.1488 48.6806 76.965 48.4753 76.8853 48.7252C76.8721 48.7666 76.6706 48.735 76.5626 48.7633C76.4164 48.8018 76.2794 48.8749 76.1337 48.9159C75.8593 48.9932 75.5818 49.0581 75.2381 49.1453L75.4908 48.602C75.8263 48.5746 75.8264 48.5746 76.345 48.1109L76.0049 47.9527C75.6703 48.2852 75.1632 48.2957 74.7502 48.5339L74.6577 48.2498L75.123 47.8705C75.0435 47.839 74.9471 47.762 74.8882 47.7848C74.7209 47.8494 74.5689 47.9548 74.3061 48.1035C74.3424 47.8796 74.3626 47.755 74.3874 47.6029L74.074 47.0748L74.7644 47.1135C74.7837 46.9804 74.8059 46.826 74.8332 46.6373L75.5159 46.5022L75.2593 46.1442L75.7555 45.9738L76.0237 46.349C76.0691 46.1136 76.0927 45.9912 76.1147 45.8778L76.3926 45.8307C76.3887 45.8473 76.3722 45.9165 76.3424 46.0422L77.2231 45.9C77.1965 45.8125 77.1755 45.7441 77.1835 45.7703L77.7344 45.4584L77.8719 45.7522C78.0075 45.6555 78.1433 45.5589 78.2822 45.4601L78.6563 45.6342C79.128 45.5617 79.5506 45.4637 79.9768 45.4417C80.3572 45.4219 80.7068 45.7348 81.1511 45.575L81.2917 46.006L81.7181 46.1688L81.4004 45.7875C81.9473 45.7721 82.5081 45.4781 82.9321 46.0562L83.2826 45.9264L83.3873 46.155C83.7481 46.0847 84.0713 46.1853 84.2737 46.5722L84.7835 46.418L85.1192 46.7246C85.1597 46.7209 85.2677 46.6783 85.3338 46.7135C85.4066 46.7528 85.4247 46.8857 85.4957 46.9387C85.6028 47.0048 85.7163 47.06 85.8346 47.1033C85.9299 47.1361 86.0208 47.1804 86.1053 47.2354C86.1751 47.2931 86.2149 47.388 86.2944 47.5059C86.8673 47.2496 86.9617 47.9606 87.5416 48.0417L86.9251 48.394C86.9945 48.5673 87.3387 48.5388 87.7284 48.3179L87.6723 48.5606C87.7899 48.8665 88.0895 48.6713 88.3024 48.7516L88.4632 49.162L88.6891 49.0943C88.6741 49.1822 88.6622 49.252 88.642 49.3715C89.0325 49.7155 89.4544 50.0822 89.8564 50.4691C89.9302 50.532 89.9867 50.6128 90.0207 50.704C90.0547 50.7953 90.065 50.8938 90.0507 50.9905C90.2383 51.0821 90.4839 51.119 90.5664 51.2561C91.0239 52.0163 91.4392 52.8023 91.8758 53.5755C91.9443 53.6961 92.0516 53.7942 92.1325 53.9087C92.2291 54.0454 92.3165 54.1887 92.4193 54.3465C92.4593 54.3029 92.5185 54.2386 92.6182 54.1301C92.9485 54.3344 93.3932 54.364 93.6263 54.7728L94.2034 54.7449C94.4741 55.2197 95.1851 55.104 95.4544 55.569L95.9628 55.6478C95.9491 55.7746 95.9388 55.868 95.928 55.9676C96.2595 55.9354 96.4548 56.1139 96.6895 56.3359C96.9111 56.5455 97.2236 56.6565 97.3263 56.9894C97.3721 56.9765 97.4175 56.9635 97.5123 56.9361L97.6342 57.1629L97.8836 57.1561C98.1493 57.3684 98.433 57.5666 98.6825 57.8014C99.1926 58.2815 99.8282 58.623 100.208 59.2519C100.336 59.4637 100.57 59.6164 100.771 59.7761C101.95 60.7123 102.773 61.9407 103.56 63.2015C104.006 63.9089 104.358 64.6728 104.607 65.4738C104.688 65.7374 104.754 66.0266 104.914 66.2381C105.088 66.4682 105.008 66.733 105.129 66.9695C105.456 67.6088 105.484 68.3407 105.641 69.0313C105.783 69.7081 105.879 70.3942 105.928 71.0849C105.991 71.8113 106.081 72.552 106.001 73.2701C105.927 73.9471 105.984 74.6462 105.753 75.3078C105.725 75.3883 105.809 75.5115 105.776 75.5865C105.589 76.0126 105.632 76.4853 105.491 76.9149C105.389 77.2269 105.22 77.5172 105.056 77.8686L104.488 78.0335L103.903 77.519C103.926 77.4183 103.941 77.3491 103.957 77.2746L103.688 77.1493C103.638 76.924 103.561 76.7174 103.554 76.5085C103.54 76.2952 103.574 76.081 103.654 75.8822C103.97 75.203 103.843 74.4752 103.915 73.7735C103.968 73.2636 103.95 72.7432 103.999 72.2265C104.025 71.9486 103.946 71.6603 103.904 71.3776C103.808 70.7407 103.782 70.0946 103.644 69.4628C103.567 69.1142 103.572 68.745 103.478 68.4025C103.274 67.6585 103.062 66.9143 102.797 66.1909C102.24 64.6659 101.317 63.3582 100.302 62.1174C100.082 61.8489 99.7736 61.6508 99.493 61.4368C99.1186 61.1514 98.8797 60.7227 98.4667 60.4788C97.8704 60.1267 97.4284 59.5618 96.7869 59.2648C96.5545 59.1567 96.365 58.9584 96.1495 58.8108C95.934 58.6631 95.6355 58.6592 95.4993 58.3547C95.4529 58.251 95.1987 58.2238 95.0337 58.1966C94.5568 58.119 94.2534 57.9662 93.917 57.6019L93.598 57.657C93.5578 57.5732 93.5133 57.4905 93.4782 57.4042C93.4499 57.3351 93.4326 57.2614 93.4189 57.2169L92.8732 57.441C92.8751 57.7469 92.8903 58.1204 92.8763 58.4929C92.8621 58.868 92.8002 59.2424 92.793 59.617C92.7909 60.0048 92.7358 60.3909 92.6291 60.7644L92.714 61.0005C92.5937 61.2591 92.4545 61.5292 92.3421 61.8101C92.2625 62.0087 92.0761 62.178 92.19 62.4433C92.2238 62.5218 92.1334 62.7136 92.0458 62.7763C91.6503 63.0593 91.5834 63.5287 91.3594 63.9078C91.161 64.2438 90.9469 64.5696 90.4999 64.6769C90.3912 64.9931 90.1936 65.2713 89.9313 65.4776C89.7467 65.6173 89.6372 65.8962 89.441 65.9728C89.1867 66.0721 89.1547 66.3101 88.9997 66.4398C88.6716 66.715 88.4098 67.1472 87.8373 67.019L87.914 67.3789L87.3687 67.4853C87.3019 67.5501 87.135 67.7115 86.8758 67.9622C86.5082 68.1335 86.0357 68.4658 85.5215 68.5614C85.0157 68.6554 84.5918 68.9154 84.115 69.0355C83.6093 69.1634 83.0862 69.2207 82.571 69.3088ZM77.6694 64.5316C77.718 64.8171 77.7554 65.0372 77.7922 65.2505L78.2005 65.0305C78.2027 65.221 78.2041 65.3353 78.2057 65.4666C78.3036 65.3841 78.3905 65.3106 78.4719 65.2419L78.6454 65.3226C78.6094 65.4567 78.5722 65.5935 78.5284 65.7558L79.1129 66.0277C79.1354 66.5339 79.331 66.7992 79.5551 66.666C79.5371 66.5927 79.4961 66.5166 79.5089 66.4506C79.5206 66.3899 79.59 66.3401 79.6819 66.2261C79.7881 66.4377 79.8522 66.6204 79.9637 66.766C80.0269 66.8487 80.168 66.8706 80.3182 66.9405L80.2501 66.5953C80.6991 66.3774 80.6997 66.3768 80.939 66.7053C81.0923 66.7008 81.2673 66.7474 81.3618 66.6801C81.4794 66.596 81.534 66.4292 81.6923 66.5788C81.7079 66.7154 81.7219 66.8404 81.7432 67.0302C82.112 66.8337 82.4068 66.6767 82.7016 66.5199L82.8083 66.7648L83.2414 66.4764L83.8244 66.4741L83.7716 66.2504L84.7063 66.3865L84.6493 66.2002C84.9143 65.9469 85.1698 65.7029 85.4782 65.4081C84.856 65.3443 84.5367 65.8468 84.0544 65.937C83.5721 66.0272 83.104 66.1894 82.5792 66.3337L82.7237 66.023C83.0771 65.913 83.3507 65.7762 83.6324 65.7541C83.9284 65.7309 84.1242 65.4749 84.4014 65.4768C84.7134 65.4792 84.881 65.2268 85.1271 65.1192C85.5354 64.9409 85.844 64.5118 86.347 64.6196C86.5753 64.2529 86.841 63.9529 87.2571 63.7997L87.5046 63.2675L87.8012 63.2915C87.7556 63.0573 87.7356 62.8486 88.0085 62.742C88.1886 62.6698 88.3508 62.5586 88.4837 62.4163C88.6166 62.274 88.7167 62.1042 88.777 61.9189C88.8829 61.6299 89.1141 61.4482 89.2757 61.2095C89.3972 61.0302 89.4235 60.7811 89.6785 60.7056C89.6988 60.6997 89.6973 60.6178 89.7058 60.5713L89.5078 60.3759C89.5932 60.3297 89.6722 60.2724 89.7428 60.2053C89.8029 60.123 89.847 60.0299 89.8726 59.9312C89.9011 59.8347 89.8864 59.7233 89.9238 59.632C89.9562 59.5528 90.0818 59.4943 90.0853 59.4231C90.1045 59.0128 90.2152 58.6276 90.314 58.231C90.4293 57.7453 90.4172 57.2386 90.2789 56.7608C89.7313 56.5968 89.2379 56.6948 88.7415 56.5739C88.2144 56.4457 87.6271 56.5821 87.069 56.553C86.0116 56.4978 84.9731 56.8609 83.9119 56.7034C83.8316 56.6915 83.7355 56.7803 83.6474 56.8228C83.5783 56.8684 83.503 56.9036 83.424 56.9271C82.4018 57.0762 81.4011 57.3518 80.4444 57.7477C79.9232 57.9555 79.4583 58.2518 78.9946 58.561C78.7375 58.7324 78.5374 58.9991 78.2676 59.1155C77.7862 59.3231 77.5537 59.7561 77.2896 60.133C77.0023 60.5428 76.8074 61.0309 76.6396 61.5083C76.4759 62.0063 76.4474 62.5384 76.5568 63.0493C76.586 63.2015 76.7554 63.3216 76.8045 63.4752C76.8536 63.6288 76.8335 63.8043 76.8448 63.9934L77.0842 63.9311L77.2414 64.3332L77.6694 64.5316Z" fill="black"/>
<path d="M155.196 23.0011L154.918 23.0427L154.837 22.9822C154.66 23 154.489 23.0191 154.319 23.0338C154.174 23.0461 154.029 23.0452 153.886 23.0653C153.727 23.0876 153.566 23.0914 153.406 23.1217C153.262 23.1491 153.115 23.22 152.967 23.1931C152.794 23.1618 152.654 23.2702 152.489 23.2699C152.337 23.2765 152.185 23.291 152.034 23.3133L152.042 23.3679C151.597 23.4735 151.146 23.5687 150.721 23.8139L150.617 23.7844L150.621 23.8773C150.382 23.991 150.146 24.122 149.905 24.2282C149.608 24.3588 149.345 24.5573 149.025 24.644C148.86 24.695 148.708 24.7811 148.58 24.8963C148.502 24.9634 148.462 24.9086 148.397 24.9071L148.386 25.0376L147.801 25.3164L147.774 25.1781C147.67 25.1755 147.561 25.0907 147.404 25.2421L147.483 24.9881L147.231 25.0347L147.219 25.1703L147.034 25.2517C147.014 25.2312 146.983 25.2128 146.985 25.1999C147.001 25.1046 147.023 25.0103 147.042 24.9163C146.928 24.7935 146.844 24.932 146.746 24.9464L146.734 24.8683L146.59 24.843L146.6 24.5067C146.755 24.2627 146.955 23.9955 147.097 23.6999C147.17 23.5474 147.301 23.4156 147.331 23.2646C147.368 23.077 147.535 22.985 147.576 22.8281C147.623 22.6552 147.761 22.5415 147.813 22.3895C147.869 22.2228 148.001 22.1044 148.053 21.9527C148.176 21.5917 148.425 21.2854 148.494 20.9038C148.621 20.8048 148.604 20.5998 148.772 20.5312C148.786 20.3421 148.875 20.1798 148.953 20.0128C149.063 19.777 149.095 19.5094 149.253 19.2908C149.298 19.229 149.295 19.1328 149.326 19.0016L148.538 19.5987L148.3 19.607L148.21 19.8497C147.925 20.0287 147.69 20.3275 147.317 20.3923C147.358 20.5549 147.188 20.6171 147.149 20.7293C146.776 20.9139 146.523 21.2205 146.185 21.4957C146.179 21.4964 146.121 21.5019 146.066 21.5074C145.931 21.5937 145.898 21.7675 145.728 21.8322C145.605 21.8791 145.493 22.0054 145.422 22.1242C145.34 22.2579 145.221 22.3651 145.079 22.4327C144.925 22.5075 144.885 22.6503 144.76 22.7504C144.72 22.7544 144.663 22.7602 144.583 22.7684C144.403 23.0643 144.14 23.3041 143.902 23.5777L143.718 23.5794L143.505 23.8659L143.468 23.7044C143.376 23.8581 143.238 23.883 143.075 23.8798C143.06 23.8456 143.042 23.8062 143.027 23.7726L142.289 23.8703C142.231 23.7939 142.186 23.7358 142.129 23.6609L142.154 23.5306L142.088 23.482L141.969 23.5644C141.795 23.4538 141.758 23.2745 141.74 23.089C141.814 22.9428 141.814 22.9428 141.718 22.7339L141.696 22.902C141.666 22.8897 141.632 22.8758 141.584 22.8564L141.69 22.6588C141.646 22.66 141.617 22.6609 141.595 22.6614L141.39 22.0144L141.483 21.89L141.356 21.898L141.398 21.7679L141.28 21.6797C141.27 21.6165 141.263 21.5706 141.257 21.5246C141.352 21.5015 141.436 21.4103 141.548 21.4712C141.49 21.2892 141.351 21.3638 141.206 21.3701L141.301 21.2169C141.237 21.0621 141.207 20.8958 141.052 20.7736C140.923 20.6717 140.955 20.4927 140.999 20.3217L140.873 20.3215L140.956 20.1489C140.941 20.1408 140.92 20.129 140.855 20.0938C140.821 19.987 140.799 19.8223 140.718 19.6947C140.603 19.5131 140.68 19.2976 140.559 19.1135C140.453 18.9521 140.398 18.7562 140.358 18.5548C140.304 18.2801 140.185 18.0183 140.087 17.7316L139.973 17.8849C139.99 17.9172 140.015 17.9638 140.049 18.0274L139.883 18.0919C139.865 18.1965 139.855 18.3021 139.851 18.408C139.853 18.4976 139.784 18.6012 139.888 18.678C139.781 18.763 139.817 18.8783 139.832 18.9855L139.759 18.9962C139.811 19.3894 139.749 19.772 139.658 20.153L139.723 20.5282L139.654 20.6209L139.645 21.1614C139.564 21.1514 139.506 21.1443 139.432 21.1353L139.394 21.4555L139.628 21.5543L139.589 22.3243C139.499 22.2189 139.512 22.1414 139.492 22.0656C139.342 22.1254 139.444 22.2392 139.432 22.3241C139.392 22.3366 139.352 22.349 139.266 22.3754L139.388 22.526L139.314 22.5379L139.474 22.5556L139.426 22.8238L139.314 22.8478L139.325 22.954C139.411 22.9965 139.504 23.0416 139.588 23.0829C139.553 23.4058 139.52 23.7133 139.487 24.0208C139.474 24.0227 139.461 24.0246 139.447 24.0265L139.402 23.885L139.183 24.3312C139.052 24.2829 138.931 24.2382 138.755 24.1734L138.598 24.2159C138.624 23.7994 138.56 23.4085 138.523 23.0201C138.473 22.4826 138.525 21.9505 138.51 21.4162C138.493 20.8596 138.551 20.301 138.574 19.7431C138.587 19.4254 138.591 19.1072 138.611 18.7899C138.638 18.3446 138.659 17.8977 138.719 17.4562C138.745 17.2618 138.699 17.069 138.763 16.8705C138.818 16.7001 138.786 16.5007 138.79 16.314C138.8 15.8374 138.825 15.3615 138.781 14.884C138.753 14.5729 138.766 14.2581 138.759 13.8991L139.007 13.5658C139.09 13.6234 139.201 13.657 139.223 13.8119L139.4 13.6221C139.729 13.6592 139.993 13.8198 140.254 14.0695L140.25 14.3374L140.191 14.5594C140.303 14.5931 140.386 14.6185 140.465 14.6424C140.51 14.7913 140.566 14.9374 140.598 15.0885C140.625 15.2173 140.776 15.3229 140.627 15.4833L140.764 15.4632C140.718 15.6297 140.947 15.7496 140.817 15.9287C140.862 15.971 140.902 16.0089 140.95 16.0541L140.911 16.1436C141.149 16.5174 141.235 16.9514 141.352 17.3825C141.372 17.3978 141.414 17.4129 141.426 17.4404C141.472 17.5518 141.561 17.6809 141.536 17.7777C141.495 17.935 141.681 18.0632 141.55 18.214C141.615 18.2683 141.675 18.3186 141.739 18.3725L141.701 18.5032C141.732 18.5294 141.767 18.5579 141.82 18.6021L141.869 19.0025C141.784 18.9854 141.734 18.9751 141.664 18.961C141.7 19.0602 141.732 19.1497 141.764 19.2393C141.805 19.2426 141.846 19.246 141.91 19.2511C141.904 19.3152 141.885 19.376 141.896 19.4312C141.906 19.4794 141.948 19.5212 141.976 19.5651L142.128 19.5709L142.105 19.7907L141.962 19.9003L142.076 19.9847C142.056 20.1176 142.041 20.2105 142.145 20.3281C142.321 20.5282 142.407 20.7948 142.525 21.0364C142.543 21.0734 142.511 21.1346 142.502 21.184L142.567 21.1807C142.6 21.327 142.651 21.4595 142.656 21.5934C142.661 21.7297 142.621 21.8674 142.595 22.0391C142.638 22.1096 142.697 22.0626 142.779 21.8883L142.789 22.1603L142.615 22.2479L142.858 22.315L142.891 22.4252C142.935 22.4172 143.014 22.4245 143.03 22.3961C143.109 22.2573 143.241 22.2068 143.361 22.1508C143.459 21.9064 143.705 21.8113 143.868 21.6374C144.044 21.4425 144.239 21.2652 144.45 21.108C144.653 20.9621 144.864 20.8183 145.026 20.6377C145.198 20.4457 145.412 20.3127 145.594 20.1372C145.784 19.9604 145.989 19.8007 146.207 19.66C146.414 19.5211 146.581 19.3371 146.793 19.1998C147.01 19.0593 147.216 18.9007 147.407 18.7255C147.593 18.553 147.817 18.4446 148.009 18.2866C148.2 18.1291 148.399 17.9806 148.603 17.8382C148.813 17.6905 149.034 17.5569 149.248 17.4138C149.454 17.2762 149.657 17.1343 149.878 16.9826L150.19 16.9371L150.209 17.0292C150.323 17.1268 150.398 17.0233 150.471 16.991C150.608 17.0584 150.736 17.1214 150.874 17.1895L150.889 17.2716C151.133 17.2498 151.184 17.442 151.232 17.6062C151.28 17.7717 151.288 17.9494 151.315 18.1337C151.153 18.4308 151.198 18.827 150.887 19.0723L150.98 19.1763L150.669 19.7793C150.674 19.786 150.699 19.8192 150.717 19.8438C150.645 20.0309 150.579 20.2145 150.502 20.3932C150.472 20.4634 150.431 20.5552 150.37 20.5807C150.301 20.6044 150.241 20.6483 150.198 20.7067C150.154 20.7651 150.13 20.8352 150.127 20.908C150.118 20.9838 150.048 21.0525 150.045 21.1506L150.208 20.9315C150.23 20.9725 150.249 20.9978 150.245 21.0024C150.123 21.1386 150.078 21.3149 150.024 21.479C149.979 21.6172 149.906 21.7561 149.801 21.8028C149.665 21.8633 149.643 21.9861 149.494 22.0889L149.634 22.0914C149.618 22.3362 149.596 22.4275 149.435 22.5095C149.306 22.5754 149.282 22.6918 149.233 22.8062L149.469 22.5538L149.211 23.1172C149.739 22.8244 150.264 22.7003 150.768 22.5209C151.282 22.3381 151.562 22.2839 152.014 22.2723C152.097 22.2702 152.176 22.2157 152.259 22.2073C152.404 22.1929 152.551 22.2077 152.694 22.1874C152.825 22.1688 152.95 22.0997 153.081 22.0888C153.428 22.0597 153.778 22.0885 154.124 22.0363C154.158 22.0312 154.201 22.0807 154.244 22.1075C154.297 22.0861 154.357 22.0415 154.415 22.0434C154.699 22.0525 154.985 22.0548 155.265 22.0972C155.488 22.1308 155.713 22.1463 155.936 22.1984C156.158 22.2499 156.338 22.3662 156.539 22.4427C156.746 22.5217 156.896 22.7056 157.013 22.9218C156.696 22.9921 156.774 23.3381 156.614 23.5281L156.845 23.2635L156.888 23.2996L156.75 23.4845C156.708 23.5404 156.666 23.5955 156.626 23.6523C156.581 23.7158 156.51 23.7711 156.549 23.8652C156.441 23.8386 156.488 23.9778 156.425 23.9855C156.313 23.9994 156.43 24.1325 156.325 24.1567C156.264 24.1793 156.21 24.2181 156.169 24.2689C156.119 24.3271 156.073 24.3883 156.03 24.4521L155.866 24.4007L155.959 24.5357L155.879 24.665L155.575 24.7095L155.493 24.8322L155.578 24.9612C155.514 24.9486 155.465 24.939 155.416 24.9294L155.37 24.9907L155.446 25.1324C155.275 25.2542 155.088 25.348 154.962 25.5266C154.905 25.6075 154.786 25.6451 154.686 25.7086L154.687 25.7587L154.216 26.1317L154.206 25.909C154.132 25.9799 154.08 26.0708 154.057 26.1706C154.047 26.1744 154.036 26.1775 154.025 26.18C154.002 26.1841 153.979 26.1869 153.952 26.1909C153.957 26.2134 153.961 26.2358 153.965 26.2584C153.966 26.2698 153.967 26.2813 153.967 26.2927L153.704 26.478L153.458 26.2949L153.412 26.3192C153.43 26.3684 153.448 26.4175 153.474 26.4874L153.649 26.5116L153.314 26.7866L153.215 26.7416C153.206 26.9535 153.051 26.9995 152.891 27.0441C152.839 27.0593 152.791 27.0835 152.747 27.1154C152.651 27.1851 152.559 27.2616 152.447 27.3501C152.443 27.3486 152.413 27.3375 152.35 27.3143L152.206 27.5378C152.232 27.532 152.197 27.5311 152.174 27.5468C151.987 27.673 151.815 27.8211 151.617 27.932C151.599 27.9424 151.589 27.9673 151.572 27.9813C151.46 28.073 151.277 28.0155 151.19 28.1563C151.113 28.2805 150.966 28.2845 150.861 28.3598C150.748 28.4408 150.627 28.5113 150.508 28.5844C150.469 28.6012 150.431 28.6209 150.394 28.6434C150.358 28.6825 150.325 28.725 150.297 28.7704L150.123 28.7716L149.982 28.9611C149.781 28.9855 149.577 29.0069 149.453 29.2021C149.442 29.2214 149.425 29.2359 149.403 29.2424C149.104 29.267 148.917 29.518 148.647 29.6123C148.387 29.7033 148.158 29.8805 147.904 29.9945C147.567 30.1455 147.22 30.2725 146.876 30.408C146.844 30.4213 146.809 30.4264 146.774 30.4227C146.465 30.3776 146.156 30.3293 145.876 30.2864C145.758 30.1574 145.662 30.0514 145.537 29.915L145.561 29.6379C145.73 29.5317 145.889 29.4201 146.059 29.3284C146.228 29.234 146.405 29.1527 146.587 29.0851C146.986 28.9426 147.342 28.7145 147.726 28.5446C147.953 28.4441 148.151 28.2756 148.408 28.2435C148.739 27.98 149.129 27.8184 149.494 27.6138C149.651 27.5253 149.825 27.4597 149.97 27.3442C150.104 27.2378 150.255 27.1523 150.397 27.0572C150.844 26.7599 151.292 26.4645 151.737 26.1638C151.969 26.0072 152.197 25.8453 152.421 25.6782C152.646 25.5097 152.858 25.3145 153.086 25.1596C153.486 24.8881 153.794 24.5188 154.18 24.235C154.384 24.0854 154.537 23.8632 154.7 23.6635C154.86 23.4691 155.003 23.2614 155.196 23.0011Z" fill="black"/>
<g clip-path="url(#clip1)">
<rect x="122.27" y="189.676" width="36.3174" height="34.6667" rx="2" fill="white"/>
<path d="M63.6667 165.409C63.8633 165.247 64.083 165.259 64.3143 165.27C67.3327 165.294 70.3511 165.305 73.3696 165.328C73.7049 165.328 73.9131 165.294 74.0866 164.947C75.8444 161.454 77.7757 158.042 79.7533 154.666C79.9962 154.793 80.2275 154.955 80.3663 155.198C77.8336 159.557 75.3703 163.941 73.2192 168.497C71.6464 171.839 70.143 175.205 69.3797 178.848C68.9634 180.837 69.1253 182.641 70.7675 184.075C70.8716 184.167 70.9525 184.271 71.045 184.376C73.7975 187.313 76.92 189.823 80.1003 192.263C87.3514 197.837 94.9379 202.949 102.64 207.875C104.976 209.367 106.931 211.16 108.527 213.392C109.012 214.086 109.533 214.756 110.053 215.427C110.481 215.994 110.909 216.572 111.429 217.058C111.695 217.301 112.019 217.694 112.366 217.416C112.69 217.162 112.331 216.78 112.169 216.503C111.51 215.346 110.643 214.328 109.845 213.264C109.648 212.998 109.186 212.709 109.602 212.351C109.972 212.015 110.227 212.455 110.458 212.675C111.707 213.82 112.944 214.988 114.182 216.133C114.344 216.283 114.54 216.468 114.772 216.213C114.968 215.994 115.188 215.774 114.957 215.462C114.829 215.288 114.702 215.126 114.575 214.953C113.58 213.75 112.574 212.559 111.58 211.356C111.418 211.16 111.244 210.928 111.476 210.697C111.73 210.42 111.961 210.616 112.181 210.79C113.21 211.634 114.193 212.524 115.095 213.507C115.408 213.843 115.731 214.178 116.055 214.513C116.194 214.652 116.344 214.779 116.564 214.664C116.795 214.537 116.807 214.328 116.761 214.109C116.633 213.611 116.356 213.195 116.067 212.79C115.269 211.669 114.344 210.662 113.372 209.702C113.152 209.483 112.852 209.263 113.176 208.939C113.476 208.65 113.696 208.939 113.904 209.136C115.026 210.2 116.159 211.241 117.351 212.224C118.391 213.079 119.444 213.924 120.623 214.583C120.901 214.733 121.271 215.045 121.502 214.814C121.745 214.56 121.387 214.224 121.213 213.981C120.681 213.195 120.034 212.513 119.374 211.842C117.246 209.679 114.933 207.736 112.574 205.84C112.378 205.678 112.158 205.516 112.285 205.227C112.401 204.961 112.655 204.996 112.886 205.007C113.846 205.077 114.818 205.088 115.778 204.996C116.287 204.949 116.795 204.915 117.293 204.579C116.633 204.325 116.021 204.094 115.419 203.851C111.244 202.208 107.289 200.185 103.854 197.236C97.7482 192.008 92.4399 186.052 87.4208 179.807C87.0738 179.38 87.1085 179.079 87.3861 178.639C89.6528 175.066 91.8964 171.481 94.1399 167.896C94.3365 167.583 94.5331 167.283 94.7066 167.005C95.3196 167.236 95.308 167.537 94.9842 168.046C92.7175 171.596 90.497 175.182 88.2419 178.732C87.999 179.114 88.0337 179.322 88.2997 179.669C90.8902 182.884 93.5733 186.006 96.4066 189.013C99.3557 192.147 102.397 195.189 105.809 197.802C109.209 200.416 113.083 202.162 117.073 203.654C117.304 203.735 117.478 203.677 117.674 203.608C118.75 203.238 119.802 202.845 120.889 202.509C121.306 202.382 121.398 202.185 121.387 201.781C121.329 197.768 121.306 193.766 121.271 189.753C121.259 189.013 121.306 188.978 122.057 188.978C130.65 188.955 139.243 188.932 147.847 188.909C147.858 189.163 147.858 189.429 147.766 189.672C139.405 189.695 131.043 189.73 122.67 189.742C122.161 189.742 122.034 189.857 122.046 190.366C122.115 196.38 122.161 202.394 122.208 208.407C122.208 208.615 122.208 208.812 122.208 209.136C121.19 208.349 120.253 207.632 119.317 206.904C118.785 206.487 118.253 206.083 117.721 205.666C117.605 205.574 117.489 205.412 117.327 205.47C117.142 205.539 116.842 205.504 116.784 205.713C116.703 205.99 117.004 206.083 117.177 206.21C123.029 210.732 128.869 215.254 134.744 219.764C135.183 220.099 135.16 220.273 134.813 220.654C132.2 223.534 129.575 226.414 127.019 229.34C126.545 229.883 126.117 229.999 125.481 229.999C122.798 229.976 120.126 229.987 117.443 229.987C115.049 229.987 113.453 228.403 113.453 226.009C113.442 223.002 113.453 219.995 113.453 216.988C113.453 216.688 113.511 216.352 113.014 216.329C113.095 216.537 113.164 216.722 113.222 216.907C113.361 217.324 113.338 217.717 112.991 218.018C112.632 218.33 112.204 218.388 111.753 218.203C111.071 217.914 110.62 217.347 110.18 216.792C108.943 215.219 107.717 213.635 106.491 212.05C105.693 211.021 104.745 210.188 103.646 209.471C96.4066 204.753 89.2018 200 82.2629 194.83C78.354 191.927 74.5607 189.001 71.1722 185.59C70.6518 185.069 70.1892 184.503 69.6804 183.982C68.6396 182.918 68.362 181.635 68.4776 180.212C68.6742 177.784 69.4607 175.517 70.3049 173.262C71.1491 171.03 72.1437 168.867 73.1961 166.728C73.2886 166.543 73.3811 166.358 73.5083 166.092C73.0226 166.092 72.6063 166.092 72.2015 166.092C69.6341 166.068 67.0783 166.034 64.5109 166.011C64.2218 166.011 63.9558 165.953 63.6783 165.86C63.6667 165.71 63.6667 165.56 63.6667 165.409Z" fill="#040404"/>
<path d="M212.24 96.8994C213.454 100.427 214.657 103.942 215.883 107.47C215.964 107.701 215.941 108.083 216.426 107.898C216.658 107.805 216.646 108.152 216.692 108.302C217.698 111.413 218.762 114.501 219.861 117.566C221.272 121.509 222.775 125.418 223.851 129.466C225.088 134.138 225.366 138.88 224.915 143.679C224.614 146.848 224.082 149.97 223.018 152.989C220.462 160.263 215.397 164.681 207.88 166.311C207.602 166.369 207.325 166.427 207.059 166.554C207.302 166.554 207.544 166.554 207.787 166.554C217.236 166.635 226.673 166.728 236.121 166.82C236.456 166.82 237.023 166.635 237 167.237C236.977 167.815 236.445 167.584 236.133 167.584C222.741 167.479 209.349 167.352 195.957 167.237C195.748 167.237 195.54 167.237 195.286 167.237C195.691 168.092 196.095 168.902 196.246 169.792C196.338 170.359 196.303 170.903 196.118 171.435C195.216 174.233 193.852 176.812 192.406 179.356C188.289 186.596 183.524 193.408 178.69 200.173C177.048 202.475 175.429 204.799 173.683 207.031C172.353 208.731 171.451 210.593 170.861 212.652C170.433 214.167 169.947 215.67 169.485 217.173C169.346 217.613 169.172 218.041 168.93 218.434C168.525 219.082 167.97 219.371 167.391 219.163C166.755 218.943 166.721 218.388 166.721 217.833C166.721 217.705 166.721 217.578 166.721 217.382C166.397 217.705 166.385 218.041 166.385 218.388C166.385 220.897 166.385 223.395 166.385 225.905C166.385 228.391 164.836 229.929 162.338 229.929C159.412 229.929 156.474 229.918 153.548 229.941C153.051 229.941 152.762 229.825 152.427 229.409C150.276 226.691 148.078 224.008 145.892 221.314C145.569 220.92 144.967 220.527 145.048 220.099C145.118 219.718 145.742 219.44 146.135 219.128C150.195 215.843 154.265 212.571 158.325 209.298C158.452 209.194 158.625 209.113 158.683 208.928C158.44 208.858 158.186 208.835 158.001 208.673C157.735 208.43 157.48 208.118 157.793 207.783C158.059 207.505 158.059 207.216 158.059 206.881C158.059 204.776 158.059 202.683 158.059 200.578C158.325 200.578 158.579 200.589 158.845 200.589C158.845 201.075 158.868 201.549 158.845 202.035C158.833 202.313 158.914 202.44 159.192 202.532C160.082 202.821 160.973 203.134 161.852 203.469C162.129 203.573 162.291 203.527 162.5 203.319C164.512 201.179 166.339 198.901 167.773 196.322C171.647 189.36 174.504 181.97 177.013 174.43C177.141 174.06 177.002 173.921 176.759 173.736C173.937 171.596 171.115 169.445 168.305 167.294C168.051 167.098 167.796 167.005 167.461 166.994C164.049 166.971 160.638 166.924 157.226 166.89C141.498 166.739 125.77 166.589 110.053 166.439C105.624 166.392 101.183 166.346 96.7536 166.311C96.5686 166.138 96.2679 166.022 96.4067 165.675C96.5339 165.386 96.8114 165.421 97.0543 165.421C100.073 165.421 103.091 165.421 106.121 165.421C107.567 165.421 109.001 165.421 110.446 165.409C112.308 165.502 114.159 165.502 116.021 165.479C119.143 165.525 122.266 165.56 125.388 165.606C133.368 165.722 141.347 165.837 149.316 165.953C155.468 166.034 161.609 166.126 167.762 166.196C168.155 166.196 168.467 166.288 168.698 166.612C171.636 168.856 174.562 171.111 177.522 173.331C177.939 173.643 178.008 173.921 177.846 174.395C175.973 180.178 173.729 185.81 171.243 191.349C168.374 197.745 164.373 203.272 158.961 207.737C158.845 207.829 158.695 207.898 158.66 208.072C158.88 208.222 159.099 208.141 159.319 208.107C160.591 207.91 161.759 207.424 162.916 206.904C163.124 206.811 163.321 206.742 163.494 206.939C163.679 207.135 163.598 207.332 163.483 207.517C163.344 207.748 163.205 207.979 163.066 208.211C161.644 210.628 160.279 213.079 159.157 215.658C158.729 216.641 158.29 217.636 158.116 218.7C158.082 218.873 158.036 219.082 158.209 219.174C158.382 219.267 158.521 219.093 158.648 218.977C159.238 218.411 159.678 217.74 160.129 217.058C161.343 215.184 162.372 213.207 163.355 211.206C163.494 210.928 163.61 210.558 164.003 210.755C164.396 210.952 164.165 211.287 164.049 211.553C163.737 212.316 163.378 213.068 163.101 213.843C162.777 214.745 162.442 215.647 162.43 216.63C162.43 216.907 162.43 217.197 162.777 217.277C163.124 217.347 163.182 217.058 163.286 216.838C163.714 215.89 164.107 214.93 164.547 213.993C164.87 213.322 165.252 212.675 165.61 212.015C165.738 211.784 165.934 211.657 166.189 211.784C166.42 211.9 166.42 212.12 166.351 212.339C166.316 212.467 166.27 212.594 166.223 212.721C165.761 214.039 165.298 215.369 164.824 216.688C164.743 216.919 164.685 217.162 164.593 217.405C164.442 217.809 164.708 217.96 164.998 218.11C165.333 218.284 165.46 218.006 165.564 217.798C166.362 216.202 167.16 214.606 167.958 212.998C168.074 212.756 168.224 212.547 168.536 212.675C168.849 212.802 168.779 213.056 168.71 213.311C168.455 214.132 168.189 214.965 167.958 215.797C167.75 216.537 167.507 217.277 167.53 218.052C167.53 218.18 167.519 218.33 167.669 218.411C167.831 218.492 167.97 218.399 168.085 218.295C168.34 218.052 168.479 217.728 168.606 217.405C169.115 216.075 169.485 214.699 169.866 213.334C170.606 210.674 171.647 208.188 173.475 206.071C174.111 205.331 174.643 204.498 175.221 203.7C180.518 196.415 185.745 189.082 190.394 181.357C192.198 178.362 193.875 175.297 195.159 172.024C195.691 170.683 195.598 169.445 194.962 168.196C194.257 166.797 193.343 165.525 192.337 164.334C187.387 158.494 181.558 153.602 175.66 148.802C176.158 147.866 176.817 147.033 177.407 146.154C177.592 145.888 177.603 145.726 177.36 145.472C176.146 144.153 174.851 142.916 173.463 141.782C171.694 140.325 169.832 138.984 167.657 138.163C166.247 137.631 164.789 137.342 163.321 137.839C162.777 138.024 162.315 138.012 161.771 137.874C159.921 137.376 158.059 136.925 156.197 136.451C158.163 136.058 160.152 135.861 162.153 135.722C166.05 135.445 169.97 135.271 173.879 135.537C180.934 136.023 188.012 136.335 195.066 136.937C195.506 136.971 195.945 136.983 196.396 137.018C196.685 137.041 196.974 137.006 196.986 136.648C196.997 136.324 196.743 136.266 196.465 136.243C193.852 136.058 191.238 135.873 188.624 135.688C186.971 135.572 185.317 135.456 183.663 135.364C183.409 135.352 183.258 135.283 183.143 135.029C181.813 131.964 180.46 128.911 179.107 125.858C178.991 125.603 179.003 125.43 179.222 125.268C179.361 125.164 179.454 125.013 179.604 124.909C179.986 124.643 179.962 124.389 179.72 124.019C178.841 122.689 178.008 121.336 177.152 119.983C177.499 119.983 177.834 120.052 178.17 120.145C178.968 121.405 179.766 122.654 180.587 123.949C183.039 121.544 185.421 119.196 187.826 116.86C188.023 116.675 187.977 116.571 187.826 116.409C187.503 116.051 187.19 115.692 186.867 115.334C184.785 113.009 182.715 110.673 180.633 108.349C180.61 108.002 180.703 107.666 180.784 107.331C183.258 110.106 185.722 112.894 188.197 115.658C188.37 115.854 188.509 116.247 188.89 115.843C189.029 115.692 189.145 115.947 189.226 116.051C193.933 121.764 199.264 126.922 203.855 132.727C203.878 132.75 203.913 132.762 204.017 132.843C204.017 132.6 204.017 132.392 204.017 132.195C203.89 126.031 203.774 119.867 203.636 113.703C203.624 113.206 203.717 112.894 204.237 112.801C204.873 112.685 205.012 112.362 204.861 111.702C204.526 110.222 204.306 108.719 204.052 107.215C204.353 107.389 204.653 107.562 204.942 107.736C205.174 109.077 205.417 110.419 205.636 111.76C205.694 112.107 205.798 112.177 206.145 112.038C209.094 110.835 212.043 109.655 215.004 108.487C215.328 108.36 215.385 108.221 215.258 107.898C215.027 107.308 214.842 106.706 214.634 106.105C213.674 103.341 212.702 100.565 211.743 97.8015C211.823 97.4661 212.008 97.1654 212.24 96.8994ZM213.685 141.551C213.685 141.424 213.57 141.308 213.477 141.193C213.049 140.672 212.621 140.152 212.17 139.654C211.245 138.637 210.193 137.781 209.083 136.983C208.863 136.833 208.62 136.705 208.423 136.96C208.192 137.249 208.389 137.457 208.632 137.631C208.678 137.665 208.724 137.7 208.77 137.735C210.297 138.822 211.65 140.094 212.795 141.586C212.899 141.725 213.015 141.863 213.153 141.956C213.408 142.095 213.697 141.898 213.685 141.551ZM209.557 134.196C209.302 134.207 209.14 134.3 209.106 134.52C209.059 134.774 209.21 134.913 209.441 134.971C210.598 135.26 211.696 135.676 212.749 136.243C213.003 136.382 213.246 136.382 213.373 136.081C213.5 135.803 213.304 135.665 213.096 135.537C212.274 135.086 211.407 134.728 210.517 134.45C210.181 134.369 209.846 134.277 209.557 134.196Z" fill="#010101"/>
<path d="M168.687 166.6C168.455 166.277 168.155 166.196 167.75 166.184C161.597 166.115 155.457 166.034 149.304 165.941C141.324 165.826 133.345 165.71 125.376 165.594C122.254 165.548 119.132 165.513 116.009 165.467C116.691 163.628 117.906 162.414 119.941 162.183C120.785 162.09 121.629 162.102 122.474 162.206C124.197 162.414 125.885 162.796 127.62 162.888C130.8 163.05 133.518 162.194 135.415 159.442C135.97 158.632 136.583 157.857 137.173 157.083C138.503 155.336 140.295 154.585 142.458 154.631C144.146 154.677 145.314 155.579 145.939 157.14C146.343 158.147 146.586 159.187 146.875 160.217C147.176 161.281 147.731 161.616 148.818 161.408C150.137 161.153 151.154 160.425 151.837 159.268C152.253 158.563 152.392 157.788 152.057 157.002C150.912 154.4 149.385 152.064 147.234 150.167C142.215 145.749 136.386 148.212 134.131 152.017C133.842 152.515 133.541 153.012 133.252 153.509C132.685 154.469 132.165 155.464 131.379 156.285C130.627 157.071 129.783 157.765 128.638 157.869C127.759 157.95 126.868 157.892 125.989 157.811C124.116 157.626 122.266 157.187 120.369 157.256C117.27 157.36 114.679 158.47 112.771 160.98C111.753 162.322 111.025 163.825 110.423 165.398C108.978 165.398 107.544 165.409 106.098 165.409C103.08 165.409 100.061 165.409 97.0312 165.409C96.7767 165.409 96.4992 165.375 96.3835 165.664C96.2447 165.999 96.5454 166.126 96.7305 166.3C96.476 166.462 96.3951 166.809 96.0828 166.947C96.0019 166.323 95.9556 165.722 95.84 165.12C95.6318 164.022 95.3427 162.946 95.1808 161.847C95.0651 161.061 94.9495 160.286 94.6257 159.558C94.5794 159.442 94.4985 159.315 94.5679 159.176C94.7991 158.736 94.5794 158.401 94.325 158.066C94.1053 157.777 93.8624 157.499 93.6542 157.198C92.1739 155.047 90.1617 153.914 87.5249 153.925C86.0215 153.937 84.5412 154.11 83.0146 154.411C83.0724 154.284 83.084 154.203 83.1303 154.157C83.3153 153.914 83.4194 153.671 83.1071 153.474C82.818 153.301 82.6214 153.498 82.4942 153.717C82.2629 154.11 82.0547 154.527 81.8466 154.932C81.6962 155.244 81.6384 155.741 81.4071 155.834C81.1295 155.949 80.8867 155.475 80.6091 155.302C80.5282 155.255 80.4472 155.209 80.3547 155.163C80.2044 154.92 79.9846 154.77 79.7418 154.631C79.152 154.134 78.5737 153.625 77.9839 153.139C77.7758 152.966 77.6832 152.815 77.7989 152.549C79.3717 148.849 81.1527 145.275 84.0901 142.43C85.3507 141.204 86.8079 140.36 88.6351 140.314C88.8895 140.302 89.1555 140.314 89.3637 140.429C89.9304 140.753 90.4508 140.614 91.0175 140.441C91.9542 140.152 92.9141 139.932 93.8508 139.654C94.2209 139.55 94.3366 139.597 94.2672 140.001C93.9896 141.655 94.1515 143.251 94.8917 144.789C95.8515 146.778 97.4822 147.958 99.5754 148.478C103.045 149.346 106.271 147.507 107.567 143.98C108.249 142.106 108.48 140.175 108.284 138.186C108.226 137.584 108.029 137.041 107.532 136.555C109.567 136.162 111.533 135.803 113.499 135.514C113.974 136.162 114.471 136.775 115.385 136.775C115.535 136.775 115.627 136.867 115.708 136.983C116.009 137.446 116.379 137.874 116.645 138.371C117.651 140.279 118.831 142.095 120.612 143.344C121.629 144.049 122 144.766 121.699 145.923C121.572 146.408 121.815 146.617 122.312 146.651C124.336 146.813 126.348 146.813 128.36 146.536C131.807 146.05 134.131 144.188 135.392 140.961C135.519 140.638 135.577 140.348 135.288 140.059C134.675 139.423 134.073 138.764 133.46 138.128C133.333 137.989 133.183 137.793 132.975 137.897C132.685 138.035 132.616 137.885 132.524 137.665C132.408 137.399 132.269 137.145 132.13 136.902C131.483 135.769 130.546 134.867 129.644 133.953C133.564 133.837 137.485 133.93 141.405 134.3C141.001 135.537 140.665 136.752 141.001 138.012C141.243 138.949 141.579 139.874 141.937 140.788C142.33 141.817 143.244 141.991 144.204 142.037C144.678 142.06 145.152 141.956 145.592 142.257C145.8 142.395 146.124 142.338 146.263 142.106C146.748 141.297 147.546 140.765 148.009 139.92C148.761 138.533 149.339 137.145 148.865 135.526C148.714 135.005 149.131 135.214 149.304 135.248C150.912 135.514 152.531 135.803 154.138 136.093C154.797 136.208 155.457 136.335 156.127 136.463C157.989 136.937 159.851 137.388 161.702 137.885C162.245 138.035 162.708 138.035 163.251 137.85C164.732 137.353 166.177 137.642 167.588 138.174C169.762 138.995 171.613 140.337 173.394 141.794C174.781 142.927 176.065 144.165 177.291 145.483C177.522 145.738 177.511 145.888 177.337 146.165C176.747 147.044 176.088 147.877 175.591 148.814C175.475 148.964 175.336 149.103 175.232 149.253C173.035 152.48 170.838 155.718 168.652 158.956C168.467 159.222 168.34 159.43 168.004 159.106C166.455 157.615 165.425 155.868 165.599 153.648C165.784 151.3 166.836 149.265 168.143 147.357C168.698 146.547 169.334 145.795 169.889 144.986C170.248 144.465 170.155 144.234 169.577 144.038C168.779 143.76 168.062 143.182 167.125 143.401C166.987 143.436 166.825 143.355 166.686 143.297C165.506 142.789 164.523 143.02 163.737 144.049C163.702 144.095 163.656 144.13 163.621 144.176C160.753 147.553 159.863 151.404 160.811 155.706C161.227 157.591 162.222 159.257 163.517 160.587C164.674 161.778 166.166 162.692 167.819 163.2C168.051 163.27 168.236 163.351 168.293 163.628C168.467 164.519 168.64 165.398 168.825 166.288C168.883 166.45 168.93 166.589 168.687 166.6Z" fill="#007BFF"/>
<path d="M129.679 133.965C130.581 134.878 131.506 135.78 132.165 136.914C132.304 137.168 132.443 137.423 132.558 137.677C132.651 137.897 132.72 138.047 133.009 137.908C133.217 137.816 133.368 138.001 133.495 138.14C134.108 138.787 134.698 139.446 135.322 140.071C135.6 140.36 135.542 140.649 135.426 140.973C134.166 144.2 131.83 146.073 128.395 146.547C126.383 146.825 124.37 146.825 122.346 146.663C121.849 146.628 121.606 146.42 121.734 145.934C122.023 144.789 121.653 144.072 120.646 143.355C118.865 142.106 117.686 140.291 116.68 138.382C116.414 137.885 116.044 137.469 115.743 136.995C115.662 136.879 115.581 136.787 115.419 136.787C114.517 136.787 114.02 136.174 113.534 135.526C113.291 134.913 113.025 134.312 113.291 133.641C113.372 133.444 113.222 133.317 113.129 133.167C112.331 131.918 111.533 130.68 110.735 129.431C110.631 129.269 110.539 129.119 110.331 129.061C108.885 128.61 108.214 127.488 107.89 126.101C107.439 124.158 107.798 122.469 109.325 121.058C111.221 119.301 113.326 117.947 115.916 117.496C118.611 117.022 120.693 118.04 122.3 120.168C123.098 121.232 123.63 122.411 123.827 123.73C123.861 123.984 123.977 124.204 124.116 124.412C124.555 125.118 124.995 125.812 125.411 126.529C125.631 126.887 125.839 127.246 126.198 127.512C126.464 127.708 126.672 127.986 126.753 128.31C127.077 129.72 127.979 130.854 128.557 132.149C128.719 132.519 128.915 132.878 129.077 133.236C129.193 133.548 129.378 133.803 129.679 133.965ZM117.131 137.619C117.258 137.527 117.339 137.457 117.443 137.388C119.652 135.804 121.872 134.254 124.74 134.138C125.272 134.115 125.712 133.849 125.839 133.282C126.013 132.531 125.758 131.837 125.504 131.154C125.446 131.004 125.307 130.993 125.168 130.981C124.914 130.969 124.706 130.888 124.717 130.576C124.729 130.229 124.983 130.206 125.261 130.218C125.77 130.241 126.059 129.986 126.14 129.489C126.232 128.957 126.07 128.495 125.7 128.113C125.423 127.835 125.099 127.593 124.683 127.708C124.278 127.812 124.313 128.194 124.278 128.518C124.255 128.772 124.116 128.911 123.861 128.899C123.595 128.888 123.491 128.691 123.503 128.46C123.515 128.229 123.561 127.997 123.607 127.778C123.653 127.581 123.561 127.431 123.445 127.315C123.272 127.141 123.191 127.384 123.075 127.454C122.636 127.743 122.208 127.697 121.768 127.442C121.167 127.084 120.716 126.552 120.253 126.031C119.848 125.592 119.467 125.129 119.004 124.748C118.576 124.389 118.137 124.32 117.628 124.574C116.853 124.956 116.24 125.522 115.662 126.158C114.482 127.454 113.488 128.969 111.51 129.235C113.338 132.114 115.165 134.913 117.131 137.619ZM133.102 138.868C131.98 140.279 130.858 141.609 129.864 143.008C129.343 143.749 128.777 143.91 127.967 143.714C127.354 143.564 126.799 143.621 126.209 143.968C125.284 144.523 124.266 144.789 123.168 144.604C122.798 144.547 122.508 144.523 122.555 145.021C122.589 145.391 122.254 145.911 123.052 145.934C124.902 145.992 126.741 146.004 128.58 145.715C131.448 145.264 133.391 143.644 134.559 141.031C134.709 140.707 134.686 140.476 134.42 140.221C133.969 139.828 133.564 139.365 133.102 138.868ZM127.909 142.927C128.326 142.858 128.707 143.228 129.054 142.777C129.991 141.54 130.974 140.325 131.934 139.111C132.038 138.972 132.153 138.868 132.084 138.66C131.691 137.457 130.985 136.474 130.083 135.584C131.055 138.521 130.488 140.996 127.909 142.927ZM114.772 135.63C114.575 135.341 114.378 135.052 114.17 134.763C114.24 135.156 114.39 135.491 114.772 135.63Z" fill="#020202"/>
<path d="M127.458 229.894C128.314 228.946 129.123 228.033 129.945 227.119C131.783 225.072 133.634 223.037 135.461 220.978C135.739 220.666 135.9 220.631 136.236 220.909C137.358 221.822 138.526 222.666 139.647 223.568C140.018 223.858 140.284 223.869 140.654 223.568C141.741 222.655 142.874 221.776 143.973 220.874C144.204 220.677 144.331 220.643 144.551 220.909C146.956 223.892 149.362 226.864 151.825 229.894C143.695 229.894 135.611 229.894 127.458 229.894Z" fill="#010101"/>
<path d="M204.885 107.724C204.584 107.551 204.283 107.377 203.994 107.204C203.289 106.672 203.323 106.695 203.716 105.897C204.908 103.549 205.174 101.167 203.867 98.7728C203.693 98.4606 203.832 98.2756 203.959 98.0558C206.585 93.8 209.198 89.5326 211.823 85.2767C212.17 84.71 212.529 84.1318 212.887 83.542C213.072 83.7386 213.072 83.9468 213.072 84.1434C213.119 85.8203 213.038 87.4972 212.945 89.1625C212.934 89.3938 212.841 89.4632 212.633 89.5441C211.812 89.8564 211.002 90.2149 210.181 90.5618C209.927 90.6659 209.649 90.8047 209.811 91.1516C209.961 91.487 210.239 91.3829 210.505 91.2673C211.257 90.9435 212.02 90.6312 212.818 90.3074C212.864 90.8047 212.806 91.2442 212.772 91.6836C212.749 91.9265 212.587 91.9959 212.402 92.0653C211.962 92.2503 211.511 92.4353 211.072 92.6204C210.644 92.7938 210.251 93.0945 209.834 92.5163C209.626 92.2272 209.198 92.2966 208.874 92.4932C208.446 92.7591 208.238 93.1639 208.25 93.6612C208.261 94.1585 208.747 94.6905 209.21 94.7599C209.776 94.8524 210.077 94.5517 210.239 94.0544C210.297 93.8809 210.378 93.7653 210.563 93.6843C211.176 93.4415 211.766 93.1755 212.367 92.9211C212.564 92.8401 212.702 92.8517 212.679 93.1292C212.587 94.2279 212.506 95.315 212.402 96.4136C212.39 96.5755 212.298 96.7374 212.24 96.8993C212.008 97.1653 211.823 97.4545 211.685 97.7783C211.592 97.9055 211.5 98.0211 211.419 98.1483C209.464 101.271 207.51 104.393 205.578 107.516C205.382 107.851 205.208 107.967 204.885 107.724Z" fill="#FEBE03"/>
<path d="M178.124 120.144C177.788 120.052 177.453 119.971 177.106 119.982C176.828 119.913 176.493 119.971 176.551 119.462C176.828 116.976 176.077 114.755 174.585 112.824C173.821 111.829 173.602 110.927 173.821 109.678C174.677 104.867 175.394 100.033 176.158 95.2107C176.181 95.0603 176.192 94.91 176.215 94.7134C176.528 94.8637 176.632 95.1644 176.759 95.4188C177.418 96.876 177.904 98.4026 178.447 99.8944C178.528 100.126 178.447 100.218 178.285 100.369C177.661 100.97 177.06 101.594 176.447 102.207C176.25 102.404 176.03 102.624 176.285 102.901C176.574 103.214 176.805 102.959 177.013 102.751C177.603 102.173 178.181 101.594 178.771 101.016C178.806 101.051 178.817 101.062 178.817 101.074C179.384 102.427 179.384 102.427 178.366 103.456C178.147 103.676 177.915 103.884 177.719 104.116C177.487 104.382 177.256 104.497 176.875 104.428C176.343 104.335 175.926 104.786 175.857 105.434C175.787 106.058 176.134 106.556 176.678 106.637C177.499 106.764 178.112 106.128 177.939 105.353C177.904 105.203 177.869 105.064 177.996 104.925C178.505 104.405 179.014 103.884 179.592 103.294C179.997 104.543 180.367 105.665 180.714 106.799C180.76 106.961 180.726 107.134 180.726 107.307C180.645 107.643 180.552 107.978 180.575 108.325C180.541 108.429 180.494 108.545 180.471 108.649C179.858 112.327 179.234 116.004 178.644 119.682C178.598 120.075 178.471 120.191 178.124 120.144Z" fill="#FEBE03"/>
<path d="M175.822 94.3319C175.452 94.4822 175.441 94.7945 175.394 95.072C174.353 101.571 173.324 108.059 172.283 114.559C172.064 115.946 171.844 117.334 171.636 118.722C171.589 119.046 171.52 119.208 171.138 119.092C170.722 118.965 170.109 119.127 169.901 118.803C169.728 118.537 169.97 117.993 170.04 117.577C171.243 110.095 172.457 102.624 173.671 95.1414C173.821 94.1931 174.77 93.823 175.822 94.3319Z" fill="#FEBE04"/>
<path d="M212.725 83.0449C212.321 83.0102 212.182 83.23 212.043 83.4728C207.834 90.3192 203.624 97.1771 199.414 104.023C199.287 104.243 199.229 104.313 198.963 104.174C197.68 103.468 197.668 103.48 198.443 102.219C202.375 95.8703 206.295 89.5212 210.227 83.1837C210.852 82.1776 211.708 82.085 212.725 83.0449Z" fill="#FEBE04"/>
<path d="M103.912 137.827C103.739 139.249 103.704 140.626 103.311 141.956C102.825 143.633 101.796 144.465 100.211 144.465C99.1475 144.465 98.5577 143.991 98.338 142.962C98.0951 141.817 98.3842 140.707 98.4999 139.573C98.5924 138.671 98.9856 138.313 99.8761 138.186C101.056 138.024 102.212 137.7 103.369 137.422C103.866 137.283 104.132 137.283 103.912 137.827Z" fill="#007BFF"/>
<path d="M172.33 119.243C172.688 117.011 173.047 114.802 173.417 112.5C175.07 114.547 176.03 116.722 175.834 119.312C175.811 119.613 175.753 119.775 175.406 119.717C174.377 119.543 173.347 119.393 172.33 119.243Z" fill="#FEBE04"/>
<path d="M203.254 99.2471C204.006 100.681 204.087 102.069 203.797 103.491C203.624 104.359 203.289 105.18 202.826 105.943C202.653 106.221 202.537 106.325 202.213 106.117C201.542 105.677 200.837 105.284 200.143 104.856C200.039 104.787 199.819 104.775 199.981 104.532C201.045 102.809 202.121 101.074 203.254 99.2471Z" fill="#FEBE04"/>
<path d="M140.399 210.697C137.832 210.639 135.577 209.818 133.495 208.534C133.252 208.384 133.044 208.211 133.252 207.945C133.472 207.679 133.715 207.817 133.946 207.956C135.692 209.009 137.554 209.76 139.682 209.945C142.261 210.165 144.458 209.298 146.494 208.002C146.679 207.887 146.864 207.748 147.037 207.621C147.257 207.459 147.488 207.389 147.685 207.621C147.87 207.84 147.731 208.014 147.546 208.153C146.575 208.893 145.499 209.483 144.331 209.934C143.071 210.431 141.764 210.709 140.399 210.697Z" fill="#090909"/>
<path d="M145.465 135.283C144.054 136.081 144.412 137.4 144.458 138.649C144.1 137.758 143.776 136.856 143.822 135.896C143.845 135.04 144.539 134.809 145.465 135.283Z" fill="#007BFF"/>
<path d="M145.95 138.128C145.349 137.7 145.06 136.914 145.326 136.416C145.407 136.254 145.522 136.116 145.707 136.127C145.881 136.139 145.939 136.301 146.008 136.439C146.286 137.018 146.274 137.399 145.95 138.128Z" fill="#007BFF"/>
<path d="M94.9263 140.973C95.227 141.921 95.4005 142.881 95.7821 143.771C95.8284 143.887 95.8631 143.991 95.6896 144.037C95.5046 144.095 95.4121 144.014 95.3542 143.841C95.0651 143.066 94.961 142.256 94.9263 141.424C94.9148 141.273 94.9263 141.123 94.9263 140.973Z" fill="#0D8F8F"/>
<path d="M137.508 204.174C137.08 204.151 136.93 203.897 136.93 203.561C136.93 203.249 137.08 202.995 137.439 202.972C137.832 202.949 137.994 203.203 138.017 203.55C138.028 203.897 137.843 204.128 137.508 204.174Z" fill="#090909"/>
<path d="M99.321 145.159C100.154 145.206 100.871 145.24 101.611 144.998C100.986 146.05 100.304 146.108 99.321 145.159Z" fill="#0D8F8F"/>
<path d="M103.831 147.206C103.126 147.715 102.339 147.888 101.507 147.935C101.403 147.946 101.264 147.969 101.241 147.796C101.229 147.692 101.252 147.622 101.368 147.576C102.166 147.275 103.01 147.287 103.831 147.206Z" fill="#0D8F8F"/>
<path d="M143.568 203.457C143.499 203.781 143.371 204.059 142.978 204.036C142.596 204.013 142.458 203.723 142.469 203.388C142.481 203.076 142.654 202.833 143.013 202.833C143.406 202.845 143.533 203.122 143.568 203.457Z" fill="#090909"/>
<path d="M143.579 140.533C142.469 140.013 142.539 138.949 142.446 137.966C142.897 138.798 143.117 139.724 143.579 140.533Z" fill="#0D8F8F"/>
<path d="M147.673 136.821C147.697 136.127 147.442 135.503 146.956 134.924C147.673 134.994 147.939 135.792 147.673 136.821Z" fill="#0D8F8F"/>
<path d="M97.9448 144.882C97.806 144.35 97.2278 144.072 97.7135 143.459C97.725 143.98 98.3958 144.223 97.9448 144.882Z" fill="#0D8F8F"/>
<path d="M209.557 93.5454C209.476 93.6841 209.603 93.9848 209.314 93.9733C209.152 93.9617 209.036 93.7767 209.048 93.5801C209.059 93.3835 209.14 93.1753 209.36 93.1753C209.557 93.1753 209.522 93.395 209.557 93.5454Z" fill="#FEBE04"/>
<path d="M99.506 147.033C100.05 146.952 100.281 147.287 100.547 147.877C100.003 147.669 99.7604 147.345 99.506 147.033Z" fill="#0D8F8F"/>
<path d="M177.222 105.584C177.222 105.804 177.071 105.827 176.909 105.85C176.701 105.874 176.643 105.746 176.655 105.573C176.655 105.423 176.666 105.226 176.851 105.214C177.071 105.214 177.129 105.434 177.222 105.584Z" fill="#FEBE04"/>
<path d="M99.5065 147.022C99.4947 147.011 99.4947 146.999 99.4829 146.987C99.4829 146.975 99.4829 146.975 99.4829 146.963C99.4947 146.987 99.4947 147.011 99.5065 147.022C99.5065 147.034 99.5065 147.022 99.5065 147.022Z" fill="#0D8F8F"/>
<path d="M143.579 140.545C143.603 140.557 143.639 140.569 143.662 140.581C143.579 140.663 143.591 140.569 143.579 140.545C143.579 140.533 143.579 140.545 143.579 140.545Z" fill="#0D8F8F"/>
<path d="M110.446 165.41C111.048 163.837 111.776 162.333 112.794 160.992C114.702 158.471 117.293 157.372 120.392 157.268C122.3 157.199 124.139 157.638 126.013 157.823C126.903 157.916 127.782 157.962 128.661 157.881C129.806 157.777 130.638 157.083 131.402 156.296C132.188 155.487 132.709 154.492 133.275 153.521C133.564 153.024 133.853 152.526 134.154 152.029C136.409 148.224 142.25 145.761 147.257 150.179C149.408 152.075 150.946 154.4 152.08 157.013C152.427 157.8 152.288 158.575 151.86 159.28C151.178 160.437 150.171 161.165 148.841 161.42C147.743 161.628 147.199 161.304 146.899 160.228C146.598 159.199 146.367 158.158 145.962 157.152C145.337 155.591 144.169 154.689 142.481 154.643C140.318 154.585 138.526 155.348 137.196 157.094C136.594 157.881 135.993 158.644 135.438 159.454C133.541 162.206 130.823 163.062 127.643 162.9C125.908 162.807 124.208 162.414 122.497 162.218C121.653 162.114 120.808 162.102 119.964 162.195C117.929 162.414 116.714 163.629 116.032 165.479C114.159 165.514 112.297 165.514 110.446 165.41ZM146.852 150.919C146.818 150.896 146.783 150.884 146.748 150.861C146.725 150.93 146.76 150.942 146.818 150.965C147.13 151.324 147.246 151.902 147.882 151.867C147.893 151.89 147.893 151.913 147.905 151.937C147.905 151.925 147.905 151.913 147.905 151.913C147.893 151.902 147.882 151.89 147.87 151.879C147.558 151.509 147.257 151.162 146.852 150.919ZM149.212 155.498C149.142 155.406 149.061 155.198 148.969 155.267C148.841 155.383 149.003 155.498 149.119 155.591C149.397 156.03 149.674 156.482 149.952 156.921C149.929 156.308 149.558 155.915 149.212 155.498ZM115.142 159.87C115.789 159.511 116.448 159.141 117.096 158.783C116.333 158.968 115.65 159.28 115.095 159.812C115.072 159.847 115.049 159.882 115.026 159.928C115.095 159.963 115.118 159.928 115.142 159.87ZM123.769 158.32C125.423 159.141 127.285 159.269 128.302 158.702C127.528 158.702 126.787 158.69 126.047 158.586C125.284 158.494 124.521 158.413 123.769 158.32ZM142.296 148.802C142.18 148.768 142.088 148.71 142.007 148.71C140.549 148.652 139.428 149.462 138.271 150.179C138.179 150.237 138.19 150.341 138.26 150.433C138.329 150.549 138.433 150.514 138.503 150.468C138.63 150.387 138.745 150.283 138.861 150.179C139.497 149.658 140.203 149.288 140.989 149.057C141.394 148.941 141.868 149.219 142.296 148.802ZM142.157 149.739C140.931 150.051 139.994 150.63 139.035 151.139C139.763 151.104 141.128 150.491 142.157 149.739ZM129.343 159.315C129.91 159.604 130.326 159.465 130.766 158.968C130.211 159.003 129.794 159.13 129.343 159.315ZM124.717 161.767C125.955 161.986 125.955 161.986 126.279 161.686C125.758 161.558 125.261 161.616 124.717 161.767ZM138.271 152.26C137.67 152.376 137.577 152.839 137.392 153.22C137.739 152.977 138.121 152.781 138.271 152.26ZM140.989 153.995C141.417 153.903 141.741 153.972 142.088 153.798C141.625 153.625 141.452 153.648 140.989 153.995ZM117.281 158.69C117.316 158.679 117.339 158.667 117.374 158.656C117.362 158.644 117.351 158.621 117.339 158.621C117.304 158.621 117.281 158.633 117.246 158.633C117.258 158.644 117.27 158.667 117.281 158.69ZM146.528 150.688L146.552 150.653H146.505L146.528 150.688ZM114.887 160.032C114.876 160.02 114.864 159.997 114.853 159.997C114.841 159.997 114.829 160.02 114.818 160.02C114.829 160.032 114.853 160.043 114.864 160.055C114.876 160.055 114.876 160.043 114.887 160.032Z" fill="#FCFDFD"/>
<path d="M133.102 138.868C133.564 139.354 133.969 139.816 134.409 140.244C134.675 140.499 134.698 140.719 134.547 141.054C133.379 143.668 131.436 145.287 128.568 145.738C126.73 146.027 124.891 146.015 123.04 145.957C122.242 145.934 122.578 145.414 122.543 145.044C122.508 144.546 122.798 144.558 123.156 144.627C124.243 144.812 125.272 144.535 126.198 143.991C126.776 143.644 127.343 143.587 127.955 143.737C128.765 143.934 129.332 143.76 129.852 143.031C130.858 141.609 131.992 140.291 133.102 138.868Z" fill="#FCFCFC"/>
<path d="M127.909 142.927C130.5 141.008 131.066 138.521 130.083 135.572C130.985 136.451 131.702 137.446 132.084 138.649C132.153 138.857 132.038 138.972 131.934 139.1C130.974 140.325 129.991 141.528 129.054 142.766C128.696 143.228 128.326 142.858 127.909 142.927Z" fill="#FCF9F9"/>
<path d="M114.772 135.63C114.39 135.48 114.24 135.156 114.17 134.763C114.367 135.052 114.563 135.341 114.772 135.63Z" fill="#FCF9F9"/>
<path d="M90.7514 163.651C88.7854 162.032 86.935 160.506 84.9922 158.91C85.952 158.748 86.831 158.424 87.6752 158.505C88.5079 158.586 89.4099 158.863 89.8262 159.812C90.3582 160.98 90.5201 162.229 90.7514 163.651Z" fill="#007BFF"/>
<path d="M93.8971 163.038C93.6195 162.518 93.3767 162.067 93.1454 161.604C93.0991 161.512 93.0644 161.408 93.0066 161.257C93.9318 161.766 94.0127 161.928 93.8971 163.038Z" fill="#0D8F8F"/>
<path d="M91.7923 160.668C91.3413 160.587 90.763 159.928 90.7515 159.627C90.7515 159.546 90.7746 159.523 90.8324 159.511C90.9249 159.488 91.029 159.5 91.0868 159.592C91.3181 159.928 91.5263 160.263 91.7923 160.668Z" fill="#0D8F8F"/>
<path d="M85.7555 155.926C85.6283 156.308 85.4432 156.551 85.2466 156.794C85.1772 156.875 85.0731 157.013 84.9691 156.932C84.8765 156.863 84.8419 156.69 84.9344 156.562C85.131 156.296 85.3738 156.088 85.7555 155.926Z" fill="#0D8F8F"/>
<path d="M88.9705 154.851C88.2997 154.654 87.6058 154.955 86.8194 154.666C87.6289 154.677 88.3113 154.562 88.9705 154.851Z" fill="#0D8F8F"/>
<path d="M162.916 151.485C163.159 151.543 163.367 151.578 163.39 151.89C163.448 152.804 163.529 153.717 163.563 154.643C163.066 153.648 162.823 152.607 162.916 151.485Z" fill="#0D8F8F"/>
<path d="M162.569 157.684C161.771 156.504 161.424 155.198 161.32 153.798C161.748 155.094 162.164 156.389 162.569 157.684Z" fill="#0D8F8F"/>
<path d="M163.413 149.057C163.517 149.542 163.39 149.959 163.02 150.387C163.043 149.866 163.217 149.461 163.413 149.057Z" fill="#0D8F8F"/>
<path d="M168.629 145.402C168.351 145.715 168.166 145.934 167.935 146.177C167.866 145.518 167.866 145.518 168.629 145.402Z" fill="#0D8F8F"/>
<path d="M164.454 158.898C164.755 158.979 164.94 159.176 165.125 159.535C164.72 159.419 164.57 159.176 164.454 158.898Z" fill="#0D8F8F"/>
<path d="M123.769 158.32C124.532 158.412 125.284 158.493 126.047 158.597C126.787 158.701 127.539 158.713 128.302 158.713C127.285 159.268 125.423 159.141 123.769 158.32Z" fill="#0D8F8F"/>
<path d="M142.296 148.802C141.868 149.219 141.394 148.953 140.989 149.068C140.203 149.3 139.497 149.67 138.861 150.19C138.745 150.283 138.63 150.387 138.503 150.479C138.422 150.525 138.329 150.56 138.26 150.445C138.202 150.352 138.19 150.236 138.271 150.19C139.428 149.473 140.55 148.652 142.007 148.721C142.088 148.71 142.18 148.756 142.296 148.802Z" fill="#0D8F8F"/>
<path d="M142.157 149.739C141.128 150.49 139.763 151.103 139.035 151.138C140.006 150.629 140.931 150.051 142.157 149.739Z" fill="#0D8F8F"/>
<path d="M115.095 159.812C115.662 159.28 116.344 158.968 117.096 158.783C116.448 159.141 115.789 159.511 115.142 159.87C115.13 159.858 115.107 159.835 115.095 159.812Z" fill="#0D8F8F"/>
<path d="M129.343 159.315C129.794 159.13 130.211 158.991 130.766 158.968C130.326 159.477 129.91 159.604 129.343 159.315Z" fill="#0D8F8F"/>
<path d="M124.717 161.767C125.249 161.628 125.747 161.558 126.279 161.686C125.955 161.986 125.955 161.986 124.717 161.767Z" fill="#0D8F8F"/>
<path d="M138.271 152.26C138.121 152.781 137.739 152.977 137.392 153.22C137.577 152.838 137.67 152.376 138.271 152.26Z" fill="#0D8F8F"/>
<path d="M149.212 155.499C149.558 155.915 149.929 156.32 149.952 156.933C149.674 156.493 149.397 156.042 149.119 155.603C149.142 155.556 149.177 155.533 149.212 155.499Z" fill="#0D8F8F"/>
<path d="M147.87 151.867C147.234 151.902 147.118 151.323 146.806 150.965C146.818 150.953 146.829 150.942 146.852 150.93C147.257 151.161 147.558 151.508 147.87 151.867Z" fill="#0D8F8F"/>
<path d="M140.989 153.995C141.452 153.648 141.625 153.625 142.088 153.798C141.741 153.972 141.405 153.902 140.989 153.995Z" fill="#0D8F8F"/>
<path d="M149.107 155.591C149.003 155.51 148.83 155.382 148.957 155.267C149.05 155.186 149.131 155.394 149.2 155.498C149.177 155.533 149.142 155.556 149.107 155.591Z" fill="#0D8F8F"/>
<path d="M117.281 158.69C117.27 158.667 117.258 158.644 117.246 158.632C117.281 158.632 117.304 158.621 117.339 158.621C117.351 158.621 117.362 158.644 117.374 158.655C117.351 158.655 117.316 158.667 117.281 158.69Z" fill="#0D8F8F"/>
<path d="M146.806 150.953C146.76 150.942 146.714 150.919 146.737 150.849C146.771 150.872 146.806 150.884 146.841 150.907C146.841 150.93 146.829 150.942 146.806 150.953Z" fill="#0D8F8F"/>
<path d="M146.528 150.688L146.517 150.653H146.552L146.528 150.688Z" fill="#0D8F8F"/>
<path d="M114.889 160.032C114.877 160.044 114.877 160.056 114.865 160.068C114.853 160.056 114.83 160.044 114.818 160.032C114.83 160.02 114.841 160.009 114.853 160.009C114.865 159.997 114.877 160.02 114.889 160.032Z" fill="#0D8F8F"/>
<path d="M147.858 151.867C147.87 151.879 147.882 151.891 147.894 151.903C147.894 151.914 147.894 151.914 147.894 151.926C147.882 151.903 147.882 151.879 147.858 151.867C147.87 151.867 147.858 151.867 147.858 151.867Z" fill="#0D8F8F"/>
<path d="M115.142 159.87C115.119 159.928 115.084 159.962 115.026 159.928C115.049 159.893 115.072 159.858 115.095 159.812C115.107 159.835 115.13 159.858 115.142 159.87Z" fill="#0D8F8F"/>
<path d="M119.525 133.247C119.768 133.201 119.953 133.143 120.138 133.12C120.346 133.086 120.519 133.143 120.589 133.375C120.646 133.594 120.554 133.733 120.357 133.837C119.444 134.335 118.727 133.941 118.715 132.924C118.715 132.554 118.68 132.195 118.519 131.86C118.414 131.652 118.449 131.42 118.68 131.316C118.935 131.2 119.12 131.316 119.247 131.559C119.502 132.068 119.525 132.623 119.525 133.247Z" fill="#090909"/>
<path d="M120.45 129.975C120.138 129.917 119.964 129.744 119.976 129.42C119.976 129.165 120.126 129.003 120.357 129.003C120.681 129.003 120.843 129.235 120.866 129.524C120.878 129.778 120.716 129.952 120.45 129.975Z" fill="#090909"/>
<path d="M116.98 131.802C116.957 132.079 116.83 132.253 116.541 132.241C116.24 132.23 116.09 132.033 116.067 131.756C116.044 131.49 116.194 131.293 116.46 131.293C116.784 131.293 116.934 131.513 116.98 131.802Z" fill="#090909"/>
<path d="M68.9398 97.5809C72.9331 95.647 77.2496 94.6892 81.5069 93.5322C83.7611 92.9197 85.9004 91.9512 88.1599 91.3575C89.2188 91.0793 90.2776 90.8011 91.3365 90.5229C91.5354 90.4706 91.833 90.3074 91.9404 90.5657C92.1857 91.1558 92.2877 91.8426 92.4496 92.4588C92.8629 94.0317 93.2361 95.5552 93.8573 97.0494C94.1657 97.7912 94.4528 98.5236 94.7736 99.274C95.1312 100.11 95.6854 100.805 95.9412 101.688C96.1798 102.511 96.559 103.227 96.7831 104.08C96.9361 104.662 96.5368 104.768 95.9924 105.04C93.7862 106.142 91.4027 106.827 89.028 107.451C88.0096 107.719 87.0872 108.071 86.1075 108.426C85.8669 108.513 85.7051 108.644 85.4478 108.712C82.7395 109.423 79.9582 109.834 77.2586 110.543C76.4487 110.756 75.6183 110.761 74.8057 110.974C74.6505 111.015 74.535 111.181 74.3814 111.187C74.0367 111.2 73.4875 109.25 73.3545 108.902C72.8838 107.671 72.5126 106.432 72.1046 105.183C71.9075 104.579 71.5651 104.012 71.348 103.408C71.1402 102.83 70.7359 102.289 70.5603 101.718C70.0767 100.147 69.2537 98.7757 68.8349 97.1817" stroke="black" stroke-width="1.5" stroke-linecap="round" stroke-linejoin="round"/>
<path d="M72.3368 99.1417C74.239 99.0201 76.0227 99.3267 77.897 99.6425C78.6137 99.7633 79.3284 99.8277 80.0275 100.037C80.4989 100.178 80.9669 100.372 81.4534 100.456C82.6883 100.669 83.9115 100.883 85.1291 101.138C85.7661 101.272 85.907 100.088 86.042 99.6953C86.4447 98.5235 87.0642 97.5647 87.766 96.5576C88.4721 95.5442 89.3403 94.6168 89.9628 93.5506" stroke="black" stroke-width="1.5" stroke-linecap="round" stroke-linejoin="round"/>
<path d="M69.0395 97.5546C69.0721 98.5846 69.0329 99.7355 68.6964 100.715C68.4627 101.394 68.412 101.944 68.719 102.605C69.0599 103.34 69.5108 104.023 69.8431 104.763C70.0481 105.22 70.3032 105.645 70.4377 106.124C70.5715 106.601 70.8582 107.03 71.0187 107.501C71.2561 108.198 71.5878 108.969 71.9006 109.64C72.3556 110.614 72.6229 111.599 72.9002 112.654C72.9804 112.96 73.015 113.28 73.2123 113.526C73.5773 113.982 74.3641 113.535 74.8339 113.337C76.8369 112.493 78.9263 111.918 81.036 111.364C81.5817 111.221 82.4221 110.88 82.9663 111.177C84.0617 111.775 85.1006 112.06 86.0418 112.935C86.3223 113.196 86.633 113.554 86.9675 113.729C87.2678 113.886 87.5681 112.714 87.632 112.559C87.9094 111.886 87.9587 110.938 88.4526 110.382C88.683 110.122 88.6534 109.859 88.9961 109.676C89.6352 109.333 90.286 109.132 90.9281 108.818C91.7744 108.405 92.7692 108.386 93.6222 107.974C94.0499 107.768 94.4654 107.516 94.9277 107.394C95.1598 107.333 95.6677 107.305 95.8208 107.094C96.4564 106.219 96.3394 105.197 96.7225 104.256" stroke="black" stroke-width="1.5" stroke-linecap="round" stroke-linejoin="round"/>
<path d="M77.1825 151.501C75.8587 151.501 74.498 151.605 73.2046 151.318C72.6558 151.196 72.1015 149.709 72.0296 149.134C71.9491 148.49 71.7143 147.909 71.7143 147.248C71.7143 146.757 71.7143 146.266 71.7143 145.775C71.7143 145.296 71.8162 145.4 72.3333 145.185C72.7136 145.026 73.2075 145.104 73.6116 145.104C74.4633 145.104 75.3221 145.137 76.1737 145.104C76.6217 145.087 76.4603 144.272 76.4603 143.947C76.4603 143.263 76.457 142.493 76.8157 141.906C77.0443 141.532 77.0749 141.027 77.366 140.691C77.6554 140.357 77.9704 140.018 78.1914 139.636C78.3224 139.41 78.4959 139.056 78.6786 138.874C78.9369 138.616 78.9016 138.699 78.627 138.581C77.7803 138.219 76.9015 137.907 76.0419 137.573C75.6689 137.428 74.9856 137.227 74.7121 136.908C74.0695 136.158 73.311 136.165 74.2019 135.119C74.8425 134.368 75.5369 133.647 76.2368 132.947C76.7018 132.482 77.3265 132.2 77.7729 131.738C77.9816 131.521 78.1011 131.212 78.2716 130.964C78.4569 130.694 78.6585 130.134 78.9365 129.961C79.3314 129.714 79.8006 130.729 80.0485 131.027C80.4333 131.489 80.9377 131.863 81.4758 132.116C82.0437 132.383 82.4264 132.743 82.9603 133.033C83.2879 133.211 83.5575 133.539 83.8946 133.686C84.1842 133.813 84.9163 132.859 85.1728 132.683C85.6288 132.371 86.4082 132.076 86.9325 131.995C87.2871 131.941 87.6412 131.83 88.0159 131.772C88.397 131.713 89.0167 131.799 89.2081 131.382C89.373 131.023 89.1113 130.312 88.996 129.943C88.886 129.591 89.0388 129.198 88.933 128.854C88.7 128.097 88.7381 127.334 88.7381 126.51C88.7381 126.292 88.7381 126.074 88.7381 125.857C88.7381 125.315 90.6074 125.604 91.0194 125.604C91.8257 125.604 92.632 125.604 93.4383 125.604C94.7272 125.604 96.0822 125.964 97.3474 126.178C97.469 126.198 97.8914 126.169 97.9608 126.315C98.0876 126.583 98.0436 127.025 98.0181 127.318C97.9701 127.87 97.764 128.403 97.72 128.952C97.6514 129.81 97.3016 130.557 97.3016 131.439C97.3016 131.868 99.3123 132.372 99.8236 132.62C100.113 132.761 101.319 133.578 101.623 133.383C101.898 133.206 102.009 132.733 102.231 132.494C102.654 132.038 103.028 131.823 103.572 131.485C103.809 131.338 103.99 131.158 104.266 131.073C104.621 130.963 104.773 130.63 105.086 130.459C105.355 130.312 105.582 130.084 105.865 130.316C106.297 130.67 106.594 131.194 107 131.589C107.561 132.133 108.195 132.415 108.702 133.039C109.065 133.485 109.502 134.143 109.683 134.684" stroke="black" stroke-linecap="round" stroke-linejoin="round"/>
</g>
<defs>
<clipPath id="clip0">
<rect width="22" height="24" fill="white" transform="matrix(-1 0 0 1 22 124.409)"/>
</clipPath>
<clipPath id="clip1">
<rect width="173.333" height="147.578" fill="white" transform="translate(63.6667 82.374)"/>
</clipPath>
</defs>
</svg>
