<svg width="102" height="71" viewBox="0 0 102 71" fill="none" xmlns="http://www.w3.org/2000/svg">
<g clip-path="url(#clip0)">
<path d="M1.9913 0.768033C2.91548 0.586699 2.95949 2.83737 2.93749 3.3067C2.91548 3.79737 3.70764 3.79737 3.71864 3.3067C3.75165 2.20803 3.48759 -0.309301 1.77126 0.0320327C1.29817 0.128033 1.50721 0.864033 1.9913 0.768033Z" fill="#020A13"/>
<path d="M8.55982 1.67459C9.82506 1.63192 11.0793 1.47192 12.3116 1.21592C12.8066 1.10925 12.5976 0.383919 12.1025 0.479919C10.9363 0.725252 9.74805 0.863919 8.55982 0.906586C8.06472 0.938586 8.05372 1.69592 8.55982 1.67459Z" fill="#020A13"/>
<path d="M17.3613 1.06688C18.4285 1.26955 19.3197 1.78155 20.0238 2.58155C20.3539 2.95488 20.904 2.41088 20.5739 2.04821C19.7928 1.15221 18.7476 0.55488 17.5703 0.33088C17.0752 0.23488 16.8662 0.97088 17.3613 1.06688Z" fill="#020A13"/>
<path d="M25.2826 2.92281C25.4806 1.9628 26.2288 1.23747 27.219 1.05614C27.7141 0.960138 27.505 0.224138 27.0099 0.320138C25.7667 0.554805 24.7765 1.52547 24.5234 2.72014C24.4244 3.20014 25.1836 3.40281 25.2826 2.92281Z" fill="#020A13"/>
<path d="M33.3808 1.37606C34.8991 1.00272 36.4284 0.896056 37.9907 1.05606C38.4968 1.10939 38.4858 0.34139 37.9907 0.298723C36.3734 0.138723 34.756 0.256056 33.1717 0.650723C32.6876 0.75739 32.8857 1.49339 33.3808 1.37606Z" fill="#020A13"/>
<path d="M42.3581 0.970641C42.7872 2.28264 41.3789 3.07197 40.3887 3.59464C39.9486 3.82931 40.3447 4.49064 40.7848 4.25597C42.1051 3.56264 43.6674 2.44264 43.1173 0.778641C42.9632 0.309308 42.2041 0.501308 42.3581 0.970641Z" fill="#020A13"/>
<path d="M45.2295 4.09586C44.9104 5.06653 44.4264 5.9412 43.7442 6.71986C43.4142 7.0932 43.9753 7.62653 44.2943 7.2532C45.0645 6.37853 45.6256 5.39719 45.9887 4.29853C46.1317 3.83986 45.3725 3.63719 45.2295 4.09586Z" fill="#020A13"/>
<path d="M43.2934 12.6184C43.9535 12.9171 44.5257 13.3438 44.9658 13.8984C45.2738 14.2824 45.9449 13.8984 45.6479 13.5144C45.1198 12.8531 44.4817 12.3198 43.6895 11.9571C43.2384 11.7544 42.8313 12.4158 43.2934 12.6184Z" fill="#020A13"/>
<path d="M44.9984 17.8028C44.7454 18.8054 44.2173 19.6694 43.4361 20.3841C43.073 20.7254 43.6232 21.2588 43.9862 20.9174C44.8554 20.1174 45.4605 19.1254 45.7466 17.9948C45.8786 17.5254 45.1194 17.3228 44.9984 17.8028Z" fill="#020A13"/>
<path d="M43.1284 25.0666C43.6345 25.8559 43.9755 26.7093 44.1406 27.6266C44.2286 28.1066 44.9877 27.9039 44.8997 27.4239C44.7237 26.4426 44.3496 25.5253 43.8105 24.6826C43.5354 24.2666 42.8533 24.6506 43.1284 25.0666Z" fill="#020A13"/>
<path d="M45.6373 33.5465C44.6031 32.8958 43.5579 32.2558 42.5237 31.6051C42.0946 31.3385 41.6985 31.9998 42.1276 32.2665C43.1618 32.9171 44.207 33.5571 45.2412 34.2078C45.6703 34.4638 46.0664 33.8025 45.6373 33.5465Z" fill="#020A13"/>
<path d="M44.0085 36.2669C43.3593 37.0669 42.5342 37.6856 41.544 38.0376C41.0709 38.2082 41.2799 38.9442 41.753 38.7736C42.8642 38.3789 43.8324 37.7176 44.5696 36.8109C44.8666 36.4269 44.3165 35.8829 44.0085 36.2669Z" fill="#020A13"/>
<path d="M44.2286 42.1548C44.4377 42.5815 44.5697 43.0401 44.6027 43.5095C44.6467 43.9895 45.4279 44.0001 45.3839 43.5095C45.3399 42.9015 45.1748 42.3255 44.8998 41.7708C44.6907 41.3228 44.0086 41.7174 44.2286 42.1548Z" fill="#020A13"/>
<path d="M40.6966 42.6664C39.8164 41.4184 38.8592 40.2238 37.847 39.0718C37.5169 38.6984 36.9668 39.2424 37.2969 39.6051C38.2761 40.7038 39.1783 41.8451 40.0254 43.0398C40.3005 43.4558 40.9826 43.0718 40.6966 42.6664Z" fill="#020A13"/>
<path d="M35.2838 41.6427C34.3376 41.9627 33.3694 42.2507 32.3902 42.4961C31.9061 42.6134 32.1042 43.3494 32.5993 43.2321C33.5785 42.9867 34.5356 42.7094 35.4928 42.3787C35.9659 42.2187 35.7569 41.4827 35.2838 41.6427Z" fill="#020A13"/>
<path d="M26.8563 41.3443C26.9883 40.331 27.1203 39.3177 27.2634 38.3043C27.3294 37.8243 26.5372 37.8243 26.4822 38.3043C26.3502 39.3177 26.2182 40.331 26.0752 41.3443C26.0091 41.8243 26.7903 41.8243 26.8563 41.3443Z" fill="#020A13"/>
<path d="M21.8281 41.3013C22.4992 42.0266 23.0604 42.8266 23.5114 43.7013C23.7425 44.1386 24.4136 43.7546 24.1936 43.3173C23.7095 42.3893 23.1044 41.536 22.3892 40.7573C22.0372 40.3946 21.4871 40.9386 21.8281 41.3013Z" fill="#020A13"/>
<path d="M18.2193 43.2536C17.4712 43.1042 16.8881 42.5922 16.69 41.8776C16.558 41.4082 15.8098 41.6002 15.9309 42.0802C16.1949 43.0402 16.9981 43.7976 18.0103 43.9896C18.5054 44.0856 18.7144 43.3496 18.2193 43.2536Z" fill="#020A13"/>
<path d="M9.9784 43.1572C11.4967 42.9225 12.806 42.0585 13.6091 40.7785C13.8732 40.3625 13.191 39.9785 12.927 40.3945C12.2228 41.5145 11.0896 42.2185 9.75836 42.4212C9.27426 42.4958 9.4833 43.2318 9.9784 43.1572Z" fill="#020A13"/>
<path d="M5.02769 42.7415C5.02769 41.9842 5.02769 41.2162 5.02769 40.4588C5.02769 39.9682 4.24654 39.9682 4.24654 40.4588C4.24654 41.2162 4.24654 41.9842 4.24654 42.7415C4.24654 43.2322 5.02769 43.2322 5.02769 42.7415Z" fill="#020A13"/>
<path d="M0.737064 40.8747C1.49621 39.7227 2.33238 38.624 3.23455 37.5787C3.55361 37.2054 3.00351 36.6614 2.68444 37.0454C1.73826 38.144 0.858088 39.296 0.065933 40.5014C-0.209121 40.9067 0.473013 41.28 0.737064 40.8747Z" fill="#020A13"/>
<path d="M1.56222 32.6718C2.32137 33.1412 3.14653 33.4932 4.00469 33.7385C4.48879 33.8772 4.69783 33.1412 4.21374 33.0025C3.41058 32.7678 2.66243 32.4478 1.95829 32.0105C1.52921 31.7545 1.13313 32.4158 1.56222 32.6718Z" fill="#020A13"/>
<path d="M6.79913 37.8669C7.22822 38.1656 7.56929 38.5603 7.82234 39.0083C8.06438 39.4349 8.74652 39.0509 8.50447 38.6243C8.18541 38.0589 7.73432 37.5896 7.19521 37.2056C7.01918 37.0883 6.75513 37.1736 6.65611 37.3443C6.54608 37.5363 6.6341 37.7496 6.79913 37.8669Z" fill="#020A13"/>
<path d="M2.76135 28.7255C2.26625 27.8722 1.89218 26.9762 1.61712 26.0269C1.4851 25.5575 0.725949 25.7602 0.857975 26.2295C1.14403 27.2322 1.55111 28.1922 2.07921 29.1095C2.33226 29.5362 3.00339 29.1522 2.76135 28.7255Z" fill="#020A13"/>
<path d="M3.06939 22.8269C3.93856 22.8909 4.79673 22.8482 5.6659 22.7096C6.161 22.6349 5.95196 21.8989 5.45686 21.9736C4.66471 22.1016 3.87255 22.1229 3.06939 22.0589C2.56329 22.0269 2.56329 22.7842 3.06939 22.8269Z" fill="#020A13"/>
<path d="M4.32399 19.5948C3.72988 18.7841 3.12476 17.9734 2.53064 17.1628C2.24459 16.7681 1.56245 17.1521 1.84851 17.5468C2.44263 18.3574 3.04774 19.1681 3.64186 19.9788C3.93892 20.3841 4.62105 20.0001 4.32399 19.5948Z" fill="#020A13"/>
<path d="M1.2651 12.9386C1.69418 12.3839 2.23329 11.9252 2.8274 11.5519C3.25649 11.2852 2.86041 10.6346 2.43132 10.8906C1.70518 11.3386 1.10006 11.8932 0.582963 12.5439C0.274902 12.9492 0.957036 13.3226 1.2651 12.9386Z" fill="#020A13"/>
<path d="M1.68297 7.07213C2.38711 7.36013 3.02523 7.7548 3.58634 8.25613C3.96042 8.5868 4.51052 8.05347 4.13645 7.7228C3.52033 7.1788 2.8382 6.74147 2.07905 6.42147C1.62796 6.2188 1.22088 6.88013 1.68297 7.07213Z" fill="#020A13"/>
<path d="M7.75636 6.32522C8.02041 5.66389 8.80156 5.30122 9.4947 5.47189C9.9898 5.58922 10.1988 4.85322 9.70374 4.73589C8.55951 4.45855 7.41529 5.06655 6.99721 6.12255C6.82117 6.58122 7.58032 6.77322 7.75636 6.32522Z" fill="#020A13"/>
<path d="M15.9088 5.36508C15.7658 6.00508 15.5018 6.59175 15.0837 7.10375C14.7756 7.48775 15.3257 8.02108 15.6338 7.63708C16.1399 7.01842 16.492 6.33575 16.657 5.56775C16.778 5.08775 16.0189 4.88508 15.9088 5.36508Z" fill="#020A13"/>
<path d="M21.2562 8.40534C22.4444 8.27734 23.5667 7.91467 24.5899 7.31734C25.0189 7.06134 24.6229 6.40001 24.1938 6.65601C23.2916 7.18934 22.3124 7.53067 21.2562 7.64801C20.7611 7.70134 20.7501 8.45867 21.2562 8.40534Z" fill="#020A13"/>
<path d="M29.8819 5.73879C30.8391 5.63212 31.7963 5.53612 32.7535 5.42946C33.2486 5.37612 33.2596 4.61879 32.7535 4.67212C31.7963 4.77879 30.8391 4.87479 29.8819 4.98146C29.3868 5.02412 29.3868 5.79212 29.8819 5.73879Z" fill="#020A13"/>
<path d="M34.7885 5.89859C35.2396 6.84792 35.8667 7.69059 36.6478 8.40526C37.0109 8.74659 37.572 8.20259 37.198 7.87192C36.4608 7.19992 35.8777 6.41059 35.4596 5.51459C35.2506 5.07726 34.5794 5.46126 34.7885 5.89859Z" fill="#020A13"/>
<path d="M40.0807 9.77075C40.0037 10.6881 39.6517 11.5094 39.0905 12.2454C38.7935 12.6401 39.4646 13.0134 39.7727 12.6294C40.4218 11.7867 40.7739 10.8161 40.8729 9.77075C40.9059 9.28008 40.1247 9.29075 40.0807 9.77075Z" fill="#020A13"/>
<path d="M41.5991 15.4773C41.6211 16.0959 41.401 16.6506 40.9609 17.0879C40.6089 17.4399 41.159 17.9733 41.5111 17.6213C42.0942 17.0453 42.4132 16.2773 42.3802 15.4666C42.3692 14.9866 41.5771 14.9866 41.5991 15.4773Z" fill="#020A13"/>
<path d="M37.8479 21.5788C38.673 22.2615 39.3331 23.0935 39.7512 24.0641C39.9493 24.5121 40.7084 24.3095 40.5104 23.8615C40.0373 22.7628 39.3442 21.8135 38.409 21.0454C38.0239 20.7254 37.4628 21.2588 37.8479 21.5788Z" fill="#020A13"/>
<path d="M38.9034 27.6481C38.9804 28.3521 38.9034 29.0347 38.6723 29.7067C38.5073 30.1654 39.2664 30.3681 39.4315 29.9094C39.6955 29.1841 39.7835 28.4161 39.6955 27.6481C39.6295 27.1681 38.8484 27.1681 38.9034 27.6481Z" fill="#020A13"/>
<path d="M37.0005 35.424C38.2107 35.8294 39.564 35.4774 40.4001 34.5494C40.7302 34.176 40.1801 33.6427 39.85 34.016C39.1789 34.7627 38.1777 35.0294 37.2205 34.6987C36.7364 34.528 36.5274 35.264 37.0005 35.424Z" fill="#020A13"/>
<path d="M33.7105 36.2985C33.6115 36.6825 32.7093 36.8958 32.3792 37.0345C31.8621 37.2478 31.356 37.4718 30.8389 37.6852C30.3769 37.8772 30.7729 38.5385 31.235 38.3465C31.9612 38.0372 32.6983 37.7278 33.4245 37.4185C33.8865 37.2158 34.3156 37.0238 34.4587 36.5118C34.5907 36.0212 33.8425 35.8185 33.7105 36.2985Z" fill="#020A13"/>
<path d="M35.1405 31.9465C35.2615 31.2745 35.2945 30.6132 35.2285 29.9412C35.1845 29.4612 34.3923 29.4505 34.4473 29.9412C34.5023 30.5492 34.4913 31.1465 34.3813 31.7438C34.2933 32.2238 35.0524 32.4265 35.1405 31.9465Z" fill="#020A13"/>
<path d="M34.3047 23.0722C34.7007 24.0642 34.4037 25.2056 33.4905 25.8242C33.0834 26.1016 33.4685 26.7629 33.8866 26.4856C35.0638 25.6749 35.5919 24.2029 35.0638 22.8696C34.8878 22.4216 34.1286 22.6136 34.3047 23.0722Z" fill="#020A13"/>
<path d="M35.8781 14.5816C36.1862 15.4882 36.0871 16.3842 35.581 17.2056C35.317 17.6216 35.9991 18.0056 36.2632 17.5896C36.8683 16.6082 37.0113 15.4669 36.6373 14.3789C36.4722 13.9096 35.7131 14.1122 35.8781 14.5816Z" fill="#020A13"/>
<path d="M33.6777 11.5522C33.7107 10.7735 33.5567 10.0375 33.2266 9.33349C33.0176 8.88549 32.3464 9.26949 32.5445 9.71749C32.8085 10.3042 32.9185 10.9228 32.8855 11.5522C32.8635 12.0428 33.6557 12.0322 33.6777 11.5522Z" fill="#020A13"/>
<path d="M27.9015 8.72515C27.5164 9.32248 26.7793 9.63182 26.0752 9.48248C25.5801 9.38648 25.371 10.1225 25.8661 10.2185C26.9333 10.4318 28.0005 10.0051 28.5836 9.10915C28.8587 8.70382 28.1766 8.31982 27.9015 8.72515Z" fill="#020A13"/>
<path d="M15.7552 10.7838C16.3603 11.2638 17.0645 11.5198 17.8456 11.5518C18.3517 11.5625 18.3517 10.8052 17.8456 10.7945C17.2845 10.7732 16.7454 10.6025 16.3053 10.2505C15.9203 9.94117 15.3591 10.4745 15.7552 10.7838Z" fill="#020A13"/>
<path d="M11.0901 9.4613C10.1329 9.75996 9.16468 9.85596 8.16348 9.7493C7.65739 9.69596 7.66839 10.464 8.16348 10.5066C9.23069 10.6133 10.2759 10.5066 11.2991 10.1866C11.7832 10.048 11.5742 9.31196 11.0901 9.4613Z" fill="#020A13"/>
<path d="M6.01842 13.4081C6.10643 13.9414 5.88639 14.5067 5.4463 14.8374C5.05022 15.1361 5.4463 15.7974 5.84238 15.4987C6.59053 14.9441 6.93159 14.1121 6.77756 13.2054C6.70055 12.7254 5.9414 12.9281 6.01842 13.4081Z" fill="#020A13"/>
<path d="M9.21997 18.1439C9.21997 19.1145 9.21997 20.0852 9.21997 21.0559C9.21997 21.5465 10.0011 21.5465 10.0011 21.0559C10.0011 20.0852 10.0011 19.1145 10.0011 18.1439C10.0011 17.6532 9.21997 17.6532 9.21997 18.1439Z" fill="#020A13"/>
<path d="M6.77763 26.0376C6.65661 26.4429 6.54659 26.8483 6.42556 27.2536C6.37055 27.4563 6.24953 28.2349 5.95247 28.2776C5.45737 28.3416 5.45737 29.0989 5.95247 29.0349C6.46957 28.9709 6.75563 28.6829 6.94266 28.2243C7.20671 27.5949 7.34974 26.9016 7.53678 26.2403C7.6688 25.7709 6.90966 25.5683 6.77763 26.0376Z" fill="#020A13"/>
<path d="M8.05362 31.7118C8.05362 32.7358 8.17464 33.7384 8.40569 34.7411C8.51571 35.2211 9.27486 35.0184 9.16484 34.5384C8.94479 33.6104 8.83477 32.6718 8.83477 31.7118C8.83477 31.2211 8.05362 31.2211 8.05362 31.7118Z" fill="#020A13"/>
<path d="M12.8178 36.4051C13.83 36.7891 14.6551 37.5785 15.0622 38.5598C15.2492 39.0078 16.0084 38.8158 15.8213 38.3571C15.3042 37.1091 14.325 36.1705 13.0268 35.6691C12.5537 35.4878 12.3557 36.2238 12.8178 36.4051Z" fill="#020A13"/>
<path d="M18.6044 36.5227C19.6056 36.1281 20.5958 35.7334 21.597 35.3387C22.0591 35.1574 21.8611 34.4214 21.388 34.6027C20.3868 34.9974 19.3966 35.3921 18.3954 35.7867C17.9333 35.9681 18.1424 36.7041 18.6044 36.5227Z" fill="#020A13"/>
<path d="M27.4616 31.8934C26.8895 32.192 26.3284 32.48 25.7563 32.7787C25.3162 33.0133 25.7123 33.664 26.1524 33.44C26.7245 33.1413 27.2856 32.8534 27.8577 32.5547C28.3088 32.32 27.9127 31.6587 27.4616 31.8934Z" fill="#020A13"/>
<path d="M30.8172 33.2269C30.7732 32.3735 30.6192 31.5415 30.3661 30.7202C30.2231 30.2509 29.4639 30.4535 29.607 30.9229C29.838 31.6802 29.981 32.4375 30.025 33.2269C30.058 33.7175 30.8392 33.7175 30.8172 33.2269Z" fill="#020A13"/>
<path d="M28.6057 27.499C30.102 27.851 30.168 25.2164 30.157 24.3524C30.146 23.8617 29.3648 23.8617 29.3758 24.3524C29.3868 24.619 29.2988 26.8804 28.8257 26.763C28.3196 26.6564 28.1106 27.3924 28.6057 27.499Z" fill="#020A13"/>
<path d="M30.388 19.7972C30.8281 19.7012 31.2682 19.7546 31.6642 19.9572C32.1153 20.1812 32.5114 19.5306 32.0603 19.2959C31.4662 18.9972 30.8281 18.9119 30.1789 19.0612C29.6838 19.1786 29.8929 19.9039 30.388 19.7972Z" fill="#020A13"/>
<path d="M32.0164 15.936C31.0372 15.2 30.3001 14.2187 29.893 13.088C29.728 12.6294 28.9688 12.832 29.1339 13.2907C29.629 14.624 30.4651 15.7334 31.6203 16.5974C32.0274 16.8961 32.4125 16.2347 32.0164 15.936Z" fill="#020A13"/>
<path d="M25.2717 14.8804C24.2375 14.5177 23.3353 13.9417 22.5762 13.1844C22.2241 12.8324 21.663 13.3764 22.0261 13.7177C22.8842 14.571 23.9074 15.2004 25.0737 15.6164C25.5358 15.7764 25.7448 15.051 25.2717 14.8804Z" fill="#020A13"/>
<path d="M12.1023 14.3785C12.9054 14.5812 13.5215 15.1678 13.7306 15.9465C13.8626 16.4158 14.6107 16.2238 14.4897 15.7438C14.2147 14.7092 13.3785 13.9092 12.3113 13.6425C11.8272 13.5252 11.6182 14.2612 12.1023 14.3785Z" fill="#020A13"/>
<path d="M11.9591 24.3524C12.5863 24.363 12.8833 23.8724 13.1144 23.371C13.4444 22.6244 13.6755 21.8457 13.8075 21.035C13.8845 20.555 13.1364 20.3524 13.0483 20.8324C12.9713 21.3017 12.8613 21.7497 12.7183 22.2084C12.6303 22.4964 12.3552 23.595 11.9481 23.595C11.453 23.5844 11.453 24.3524 11.9591 24.3524Z" fill="#020A13"/>
<path d="M11.134 28.0747C11.7832 28.7681 12.1022 29.6321 12.0912 30.5707C12.0802 31.0614 12.8614 31.0614 12.8724 30.5707C12.8944 29.4294 12.4763 28.3734 11.6842 27.5307C11.3541 27.1681 10.804 27.7121 11.134 28.0747Z" fill="#020A13"/>
<path d="M15.2377 32.8215C16.0409 32.9068 16.756 33.2161 17.3831 33.6855C17.7792 33.9841 18.1753 33.3228 17.7792 33.0241C17.0311 32.4695 16.1729 32.1495 15.2377 32.0535C14.7316 32.0108 14.7426 32.7788 15.2377 32.8215Z" fill="#020A13"/>
<path d="M21.5418 29.6638C21.7288 28.7572 22.279 28.0105 23.1261 27.5625C23.5662 27.3278 23.1701 26.6665 22.73 26.9012C21.7288 27.4345 21.0137 28.3732 20.7937 29.4612C20.6836 29.9412 21.4428 30.1438 21.5418 29.6638Z" fill="#020A13"/>
<path d="M26.6363 21.9416C26.5483 20.8109 26.2403 19.7442 25.7232 18.7309C25.5031 18.2936 24.821 18.6776 25.041 19.1149C25.4921 20.0109 25.7672 20.9496 25.8442 21.9416C25.8992 22.4322 26.6803 22.4322 26.6363 21.9416Z" fill="#020A13"/>
<path d="M21.0579 17.1732C20.3428 16.7892 19.6717 16.3519 19.0445 15.8399C18.6595 15.5305 18.0984 16.0639 18.4944 16.3732C19.1766 16.9172 19.8917 17.4079 20.6619 17.8239C21.1019 18.0692 21.498 17.4079 21.0579 17.1732Z" fill="#020A13"/>
<path d="M16.6681 18.7521C16.8881 19.6481 17.4712 20.4161 18.2964 20.8854C18.7365 21.1308 19.1326 20.4801 18.6925 20.2241C18.0434 19.8508 17.6033 19.2641 17.4272 18.5494C17.3172 18.0801 16.5581 18.2721 16.6681 18.7521Z" fill="#020A13"/>
<path d="M22.554 20.9065C22.8401 21.8345 22.686 22.7519 22.1249 23.5519C21.8389 23.9572 22.521 24.3412 22.8071 23.9359C23.4892 22.9865 23.6652 21.8132 23.3242 20.7039C23.1701 20.2452 22.411 20.4372 22.554 20.9065Z" fill="#020A13"/>
<path d="M15.326 26.1336C16.2722 25.7283 17.0314 25.035 17.5265 24.1603C17.7685 23.7336 17.0974 23.3496 16.8443 23.7763C16.4042 24.5443 15.7441 25.1203 14.9189 25.4723C14.4679 25.675 14.8639 26.3363 15.326 26.1336Z" fill="#020A13"/>
<path d="M18.7256 26.8908C18.6926 27.4881 18.4285 28.0001 17.9664 28.3948C17.5924 28.7254 18.1425 29.2588 18.5165 28.9281C19.1217 28.3948 19.4627 27.6694 19.4957 26.8801C19.5287 26.4001 18.7476 26.4108 18.7256 26.8908Z" fill="#020A13"/>
</g>
<g clip-path="url(#clip1)">
<path d="M102 41.3314C100.443 44.125 98.5527 46.2482 96.6625 48.4272C89.7688 56.3052 82.1523 63.2333 72.59 67.7031C68.3648 69.6586 63.9173 70.9437 59.3029 70.9996C51.2973 71.1672 44.2367 68.5971 38.3993 63.0098C32.1727 56.9756 28.6702 49.377 26.2241 41.2196C24.5006 35.3531 23.6111 29.3188 22.9996 23.2288C22.8884 22.1113 23.222 21.7761 24.5006 22.1113C27.7807 22.8377 30.9496 23.6757 34.1741 24.458C52.0756 28.8719 70.0327 33.2858 87.9341 37.6997C91.937 38.7054 95.9954 39.5993 99.9982 40.6051C100.61 40.7168 101.221 41.052 102 41.3314Z" fill="#A4DDE7"/>
</g>
<defs>
<clipPath id="clip0">
<rect width="46" height="44" fill="white"/>
</clipPath>
<clipPath id="clip1">
<rect width="79" height="49" fill="white" transform="translate(23 22)"/>
</clipPath>
</defs>
</svg>
