<svg width="457" height="380" viewBox="0 0 457 380" fill="none" xmlns="http://www.w3.org/2000/svg">
<path d="M187.5 34H181.5L163 46.5L166.5 62.5L170.5 63.5L175 60.5L178.5 63.5L181.5 62.5V55L190 49.5L187.5 34Z" fill="#FF6392"/>
<path d="M189.398 31.3911C189.547 32.7408 189.62 34.1227 189.854 35.4619C189.944 35.9784 190.051 36.482 190.057 37.0088C190.064 37.6319 190.131 38.255 190.244 38.8692C190.551 40.5338 190.573 42.2245 190.826 43.8966C190.933 44.5976 191.019 45.3036 191.12 46.0053C191.178 46.4171 191.293 46.9007 191.303 47.3079C191.314 47.8024 191.22 48.3623 191.376 48.8304" stroke="black" stroke-width="1.5" stroke-linecap="round" stroke-linejoin="round"/>
<path d="M189.251 31.2446C188.746 31.8606 188.288 32.5141 187.786 33.1253C187.152 33.8956 186.313 34.4951 185.547 35.1363C184.324 36.1595 183.126 37.2001 181.924 38.2464C180.761 39.2586 179.663 40.3483 178.439 41.2832C177.444 42.0432 176.439 42.7723 175.435 43.5221C174.77 44.018 174.173 44.5252 173.387 44.8044C172.534 45.1076 171.71 45.5461 170.871 45.8913C169.969 46.2628 169.078 46.594 168.148 46.8928C167.894 46.9744 167.688 47.0508 167.452 47.1777C167.014 47.4136 168.235 50.1045 168.376 50.5158C168.893 52.0245 169.157 53.6085 169.394 55.1768C169.587 56.4594 169.799 57.7441 170.012 59.0237C170.112 59.6235 170.107 60.3988 170.363 60.9533C170.542 61.3412 170.786 61.8921 170.786 62.317C170.786 62.566 170.957 62.7045 171.022 62.9398C171.065 63.0933 171.051 63.3254 171.16 63.4487C171.386 63.7029 171.774 63.033 171.889 62.895C172.502 62.1598 173.454 61.4946 174.295 61.0428C175.138 60.5898 175.912 60.1072 176.721 59.6018" stroke="black" stroke-width="1.5" stroke-linecap="round" stroke-linejoin="round"/>
<path d="M191.376 49.0505C190.733 49.7084 190.12 50.3879 189.406 50.972C188.761 51.4988 188.053 51.9358 187.403 52.4537C186.482 53.1874 185.547 53.9862 184.529 54.5827C183.882 54.9621 183.15 55.6736 182.73 56.3047" stroke="black" stroke-width="1.5" stroke-linecap="round" stroke-linejoin="round"/>
<path d="M176.794 59.8948C177.665 59.9993 178.187 60.3713 178.781 60.998C179.259 61.5025 179.827 61.8312 180.348 62.2721C180.506 62.4059 180.856 62.8404 181.008 62.5693C181.246 62.1425 181.335 61.5518 181.476 61.0835C181.564 60.7901 181.663 60.4961 181.704 60.192C181.826 59.2748 182.286 58.409 182.583 57.55C182.703 57.2029 182.755 56.8877 182.917 56.5649C183.024 56.3499 182.983 56.0244 183.243 55.938" stroke="black" stroke-width="1.5" stroke-linecap="round" stroke-linejoin="round"/>
<path d="M189.031 31.3911C188.22 31.9114 187.138 32.2249 186.202 32.417C185.73 32.5137 185.229 32.6368 184.745 32.6368C183.886 32.6368 182.946 32.4807 182.38 33.223C181.737 34.0652 181.118 34.8442 180.307 35.5352C179.275 36.4155 178.162 37.1778 177.12 38.0428C176.643 38.4386 176.207 38.8824 175.724 39.2722C175.501 39.4516 175.233 39.5731 175.036 39.781C174.809 40.0208 174.686 40.31 174.486 40.5667C174.113 41.0463 173.394 41.2447 172.87 41.503C172.316 41.776 171.795 42.0471 171.209 42.252C170.471 42.5105 169.754 42.8799 169.031 43.1842C168.453 43.4276 167.818 43.5297 167.236 43.7704C166.302 44.1568 165.258 44.301 164.338 44.7433C163.857 44.9746 163.395 45.1741 162.917 45.3865C162.394 45.619 162.958 46.9816 163.06 47.2916C163.288 47.9861 163.476 48.6848 163.711 49.3759C164.162 50.7052 164.264 52.1106 164.623 53.467C164.767 54.0151 164.653 54.5803 164.777 55.132C164.916 55.7468 165.063 56.4642 165.07 57.0941C165.082 57.9635 165.329 58.8848 165.474 59.7523C165.543 60.1696 165.496 60.6691 165.616 61.0672C165.7 61.345 165.788 61.6537 165.803 61.9465C165.822 62.3024 167.006 62.5919 167.293 62.7077C167.795 62.91 168.375 63.2512 168.917 63.3346C169.49 63.4227 170.073 63.6628 170.639 63.8516" stroke="black" stroke-width="1.5" stroke-linecap="round" stroke-linejoin="round"/>
<path d="M173.717 61.3604C174.81 61.4771 175.731 61.6913 176.391 62.606C176.707 63.0426 177.325 63.2675 177.617 63.7051C178.057 64.3652 178.788 63.5142 179.286 63.2655C179.626 63.0953 179.986 62.9611 180.336 62.8096C180.693 62.6547 181.023 62.6793 181.411 62.6793" stroke="black" stroke-width="1.5" stroke-linecap="round" stroke-linejoin="round"/>
<path d="M174.083 49.4898C175.728 49.4898 177.412 49.3057 179.009 49.7259C179.493 49.8533 179.959 49.9294 180.458 49.9294C180.815 49.9294 181.069 50.1493 181.439 50.1493C182.025 50.1493 182.149 49.773 182.323 49.2293C182.716 47.9974 183.067 46.7207 183.389 45.4679C183.578 44.734 183.813 44.0196 184.228 43.3795C184.389 43.1299 184.615 42.925 184.781 42.6753" stroke="black" stroke-width="1.5" stroke-linecap="round" stroke-linejoin="round"/>
<path d="M129.571 72.3088C129.625 72.0807 129.431 71.7848 129.747 71.5855L129.833 71.7629C130.053 71.5672 130.313 71.567 130.554 71.6016C130.958 71.4369 131.338 71.2617 131.731 71.1269C132.144 70.9856 132.569 70.883 133 70.7603L133.1 70.9943C133.305 70.4853 133.73 70.3172 134.142 70.192L134.127 69.74C134.081 69.7187 134.035 69.6975 133.963 69.664C133.884 69.7739 133.802 69.889 133.696 70.0366C133.39 69.8336 133.113 69.9676 132.821 70.146L132.873 70.4442C132.492 70.3513 132.089 70.4076 131.746 70.6018C130.981 71.0162 130.121 71.1634 129.27 71.3005C129.128 71.3232 128.972 71.2543 128.681 71.2027L129.038 71.7172L129.432 71.5009C129.402 71.8153 129.379 72.0455 129.357 72.2755L128.451 72.3268L128.354 72.1319C127.695 72.2477 127.084 71.9486 126.425 71.816L126.202 71.527L126.347 71.2161L126.058 71.0176C126.043 71.2222 126.034 71.3483 126.024 71.4783C125.969 71.4985 125.898 71.5249 125.829 71.5504C125.484 71.4046 125.591 71.0485 125.458 70.735C125.366 70.8686 125.293 70.9744 125.192 71.1215C124.758 71.0186 124.601 70.5656 124.271 70.3429C124.32 70.1988 124.359 70.0843 124.448 69.8259C124.249 69.9812 124.137 70.0682 124.09 70.1043L123.489 69.8246C123.581 69.7591 123.644 69.7141 123.779 69.6172L123.315 69.5264C123.368 69.5691 123.334 69.5517 123.313 69.5237C122.966 69.0499 122.595 68.5918 122.283 68.096C121.855 67.4277 121.538 66.6931 121.346 65.9209C121.188 65.2682 121.158 64.5845 120.965 63.9344C120.926 63.8035 120.951 63.6524 120.947 63.5019C120.969 63.4938 121.016 63.4763 121.125 63.4365C121.04 63.3421 120.98 63.2276 120.95 63.1035C120.921 62.9794 120.923 62.8496 120.956 62.726C121.14 61.8677 121.145 61.8687 121.425 61.6292L121.482 60.7586L121.926 60.7446L121.888 60.4401C122.248 59.933 122.58 59.4648 122.918 58.9886L123.288 59.113C123.476 58.635 123.925 58.4916 124.434 58.3173L124.151 57.9236L124.565 57.6528L124.528 57.9873C124.664 57.9926 124.837 58.0518 124.955 57.9944C125.341 57.8008 125.718 57.5861 126.082 57.3514C126.174 57.2928 126.218 57.155 126.235 57.1292C126.58 57.024 126.914 57.01 127.124 56.8408C127.7 56.3785 128.386 56.3927 129.042 56.2659C129.229 56.2389 129.418 56.2216 129.607 56.214C129.6 56.2852 129.592 56.3787 129.582 56.4786C129.621 56.4788 129.688 56.4898 129.693 56.477C129.771 56.2793 129.86 56.0989 130.195 56.1275L130.595 56.3132L131.356 55.944L131.724 56.2678C132.17 55.8915 132.732 56.0207 133.288 56.0315L133.393 56.2453L134.006 56.0358L134.548 56.288C134.781 56.0965 135.014 55.955 135.265 56.2504L136.152 56.1025L135.168 54.7096L134.954 54.7508L134.523 54.3527L134.593 54.2014C134.564 54.1742 134.521 54.1215 134.511 54.1276C134.315 54.2399 134.166 54.1003 134.027 54.0188C133.846 53.9131 133.699 53.7502 133.525 53.6291C133.366 53.5179 133.151 53.4637 133.032 53.3227C132.868 53.1296 132.651 53.2584 132.462 53.1618C132.252 53.0542 132.13 52.814 131.836 52.8029C131.603 52.7942 131.374 52.6274 131.149 52.5189C130.449 52.1805 129.693 52.0632 128.934 51.9451C128.469 51.8725 128.012 51.7377 127.544 51.6943C126.802 51.6153 126.056 51.5799 125.31 51.5883C124.96 51.597 124.602 51.4013 124.255 51.6149C124.149 51.6806 123.965 51.4753 123.885 51.7252C123.872 51.7666 123.671 51.735 123.563 51.7633C123.416 51.8018 123.279 51.8749 123.134 51.9159C122.859 51.9932 122.582 52.0581 122.238 52.1453L122.491 51.602C122.826 51.5746 122.826 51.5746 123.345 51.1109L123.005 50.9527C122.67 51.2852 122.163 51.2957 121.75 51.5339L121.658 51.2498L122.123 50.8705C122.044 50.839 121.947 50.762 121.888 50.7848C121.721 50.8494 121.569 50.9548 121.306 51.1035C121.342 50.8796 121.363 50.755 121.387 50.6029L121.074 50.0748L121.764 50.1135C121.784 49.9804 121.806 49.826 121.833 49.6373L122.516 49.5022L122.259 49.1442L122.756 48.9738L123.024 49.349C123.069 49.1136 123.093 48.9912 123.115 48.8778L123.393 48.8307C123.389 48.8473 123.372 48.9165 123.342 49.0422L124.223 48.9C124.196 48.8125 124.176 48.7441 124.184 48.7703L124.734 48.4584L124.872 48.7522C125.008 48.6555 125.143 48.5589 125.282 48.4601L125.656 48.6342C126.128 48.5617 126.551 48.4637 126.977 48.4417C127.357 48.4219 127.707 48.7348 128.151 48.575L128.292 49.006L128.718 49.1688L128.4 48.7875C128.947 48.7721 129.508 48.4781 129.932 49.0562L130.283 48.9264L130.387 49.155C130.748 49.0847 131.071 49.1853 131.274 49.5722L131.784 49.418L132.119 49.7246C132.16 49.7209 132.268 49.6783 132.334 49.7135C132.407 49.7528 132.425 49.8857 132.496 49.9387C132.603 50.0048 132.716 50.06 132.835 50.1033C132.93 50.1361 133.021 50.1804 133.105 50.2354C133.175 50.2931 133.215 50.388 133.294 50.5059C133.867 50.2496 133.962 50.9606 134.542 51.0417L133.925 51.394C133.995 51.5673 134.339 51.5388 134.728 51.3179L134.672 51.5606C134.79 51.8665 135.089 51.6713 135.302 51.7516L135.463 52.162L135.689 52.0943C135.674 52.1822 135.662 52.252 135.642 52.3715C136.033 52.7155 136.454 53.0822 136.856 53.4691C136.93 53.532 136.987 53.6128 137.021 53.704C137.055 53.7953 137.065 53.8938 137.051 53.9905C137.238 54.0821 137.484 54.119 137.566 54.2561C138.024 55.0163 138.439 55.8023 138.876 56.5755C138.944 56.6961 139.052 56.7942 139.133 56.9087C139.229 57.0454 139.317 57.1887 139.419 57.3465C139.459 57.3029 139.518 57.2386 139.618 57.1301C139.948 57.3344 140.393 57.364 140.626 57.7728L141.203 57.7449C141.474 58.2197 142.185 58.104 142.454 58.569L142.963 58.6478C142.949 58.7746 142.939 58.868 142.928 58.9676C143.259 58.9354 143.455 59.1139 143.689 59.3359C143.911 59.5455 144.224 59.6565 144.326 59.9894C144.372 59.9765 144.417 59.9635 144.512 59.9361L144.634 60.1629L144.884 60.1561C145.149 60.3684 145.433 60.5666 145.682 60.8014C146.193 61.2815 146.828 61.623 147.208 62.2519C147.336 62.4637 147.57 62.6164 147.771 62.7761C148.95 63.7123 149.773 64.9407 150.56 66.2015C151.006 66.9089 151.358 67.6728 151.607 68.4738C151.688 68.7374 151.754 69.0266 151.914 69.2381C152.088 69.4682 152.008 69.733 152.129 69.9695C152.456 70.6088 152.484 71.3407 152.641 72.0313C152.783 72.7081 152.879 73.3942 152.928 74.0849C152.991 74.8113 153.081 75.552 153.001 76.2701C152.927 76.9471 152.984 77.6462 152.753 78.3078C152.725 78.3883 152.809 78.5115 152.776 78.5865C152.589 79.0126 152.632 79.4853 152.491 79.9149C152.389 80.2269 152.22 80.5172 152.056 80.8686L151.488 81.0335L150.903 80.519C150.926 80.4183 150.941 80.3491 150.957 80.2746L150.688 80.1493C150.638 79.924 150.561 79.7174 150.554 79.5085C150.54 79.2952 150.574 79.081 150.654 78.8822C150.97 78.203 150.843 77.4752 150.915 76.7735C150.968 76.2636 150.95 75.7432 150.999 75.2265C151.025 74.9486 150.946 74.6603 150.904 74.3776C150.808 73.7407 150.782 73.0946 150.644 72.4628C150.567 72.1142 150.572 71.745 150.478 71.4025C150.274 70.6585 150.062 69.9143 149.797 69.1909C149.24 67.6659 148.317 66.3582 147.302 65.1174C147.082 64.8489 146.774 64.6508 146.493 64.4368C146.119 64.1514 145.88 63.7227 145.467 63.4788C144.87 63.1267 144.428 62.5618 143.787 62.2648C143.555 62.1567 143.365 61.9584 143.15 61.8108C142.934 61.6631 142.635 61.6592 142.499 61.3547C142.453 61.251 142.199 61.2238 142.034 61.1966C141.557 61.119 141.253 60.9662 140.917 60.6019L140.598 60.657C140.558 60.5732 140.513 60.4905 140.478 60.4042C140.45 60.3351 140.433 60.2614 140.419 60.2169L139.873 60.441C139.875 60.7469 139.89 61.1204 139.876 61.4929C139.862 61.868 139.8 62.2424 139.793 62.617C139.791 63.0048 139.736 63.3909 139.629 63.7644L139.714 64.0005C139.594 64.2591 139.454 64.5292 139.342 64.8101C139.263 65.0087 139.076 65.178 139.19 65.4433C139.224 65.5218 139.133 65.7136 139.046 65.7763C138.65 66.0593 138.583 66.5287 138.359 66.9078C138.161 67.2438 137.947 67.5696 137.5 67.6769C137.391 67.9931 137.194 68.2713 136.931 68.4776C136.747 68.6173 136.637 68.8962 136.441 68.9728C136.187 69.0721 136.155 69.3101 136 69.4398C135.672 69.715 135.41 70.1472 134.837 70.019L134.914 70.3789L134.369 70.4853C134.302 70.5501 134.135 70.7115 133.876 70.9622C133.508 71.1335 133.036 71.4658 132.521 71.5614C132.016 71.6554 131.592 71.9154 131.115 72.0355C130.609 72.1634 130.086 72.2207 129.571 72.3088ZM124.669 67.5316C124.718 67.8171 124.755 68.0372 124.792 68.2505L125.2 68.0305C125.203 68.221 125.204 68.3353 125.206 68.4666C125.304 68.3841 125.39 68.3106 125.472 68.2419L125.645 68.3226C125.609 68.4567 125.572 68.5935 125.528 68.7558L126.113 69.0277C126.135 69.5339 126.331 69.7992 126.555 69.666C126.537 69.5927 126.496 69.5166 126.509 69.4506C126.521 69.3899 126.59 69.3401 126.682 69.2261C126.788 69.4377 126.852 69.6204 126.964 69.766C127.027 69.8487 127.168 69.8706 127.318 69.9405L127.25 69.5953C127.699 69.3774 127.7 69.3768 127.939 69.7053C128.092 69.7008 128.267 69.7474 128.362 69.6801C128.479 69.596 128.534 69.4292 128.692 69.5788C128.708 69.7154 128.722 69.8404 128.743 70.0302C129.112 69.8337 129.407 69.6767 129.702 69.5199L129.808 69.7648L130.241 69.4764L130.824 69.4741L130.772 69.2504L131.706 69.3865L131.649 69.2002C131.914 68.9469 132.17 68.7029 132.478 68.4081C131.856 68.3443 131.537 68.8468 131.054 68.937C130.572 69.0272 130.104 69.1894 129.579 69.3337L129.724 69.023C130.077 68.913 130.351 68.7762 130.632 68.7541C130.928 68.7309 131.124 68.4749 131.401 68.4768C131.713 68.4792 131.881 68.2268 132.127 68.1192C132.535 67.9409 132.844 67.5118 133.347 67.6196C133.575 67.2529 133.841 66.9529 134.257 66.7997L134.505 66.2675L134.801 66.2915C134.756 66.0573 134.736 65.8486 135.009 65.742C135.189 65.6698 135.351 65.5586 135.484 65.4163C135.617 65.274 135.717 65.1042 135.777 64.9189C135.883 64.6299 136.114 64.4482 136.276 64.2095C136.397 64.0302 136.423 63.7811 136.678 63.7056C136.699 63.6997 136.697 63.6178 136.706 63.5713L136.508 63.3759C136.593 63.3297 136.672 63.2724 136.743 63.2053C136.803 63.123 136.847 63.0299 136.873 62.9312C136.901 62.8347 136.886 62.7233 136.924 62.632C136.956 62.5528 137.082 62.4943 137.085 62.4231C137.104 62.0128 137.215 61.6276 137.314 61.231C137.429 60.7453 137.417 60.2386 137.279 59.7608C136.731 59.5968 136.238 59.6948 135.742 59.5739C135.214 59.4457 134.627 59.5821 134.069 59.553C133.012 59.4978 131.973 59.8609 130.912 59.7034C130.832 59.6915 130.735 59.7803 130.647 59.8228C130.578 59.8684 130.503 59.9036 130.424 59.9271C129.402 60.0762 128.401 60.3518 127.444 60.7477C126.923 60.9555 126.458 61.2518 125.995 61.561C125.738 61.7324 125.537 61.9991 125.268 62.1155C124.786 62.3231 124.554 62.7561 124.29 63.133C124.002 63.5428 123.807 64.0309 123.64 64.5083C123.476 65.0063 123.447 65.5384 123.557 66.0493C123.586 66.2015 123.755 66.3216 123.805 66.4752C123.854 66.6288 123.833 66.8043 123.845 66.9934L124.084 66.9311L124.241 67.3332L124.669 67.5316Z" fill="black"/>
<path d="M204.196 23.0014L203.918 23.0429L203.837 22.9824C203.66 23.0002 203.49 23.0194 203.319 23.0341C203.174 23.0464 203.029 23.0454 202.886 23.0656C202.727 23.0879 202.566 23.0917 202.406 23.1219C202.262 23.1493 202.115 23.2202 201.967 23.1933C201.794 23.162 201.654 23.2704 201.489 23.2701C201.337 23.2767 201.185 23.2912 201.034 23.3136L201.042 23.3681C200.597 23.4738 200.146 23.569 199.721 23.8141L199.617 23.7847L199.621 23.8775C199.382 23.9913 199.146 24.1223 198.905 24.2284C198.608 24.359 198.345 24.5575 198.025 24.6443C197.86 24.6953 197.709 24.7813 197.58 24.8966C197.502 24.9637 197.462 24.9088 197.397 24.9074L197.386 25.0378L196.801 25.3166L196.774 25.1783C196.67 25.1757 196.561 25.091 196.404 25.2423L196.483 24.9883L196.231 25.035L196.219 25.1705L196.034 25.252C196.014 25.2315 195.983 25.213 195.985 25.2001C196.001 25.1048 196.023 25.0105 196.042 24.9166C195.928 24.7937 195.844 24.9322 195.746 24.9466L195.734 24.8686L195.59 24.8433L195.6 24.507C195.755 24.2629 195.955 23.9957 196.097 23.7002C196.17 23.5476 196.301 23.4159 196.331 23.2648C196.369 23.0773 196.535 22.9852 196.576 22.8284C196.623 22.6555 196.761 22.5418 196.813 22.3898C196.869 22.223 197.001 22.1047 197.053 21.9529C197.176 21.5919 197.425 21.2857 197.495 20.904C197.621 20.8051 197.604 20.6 197.772 20.5314C197.786 20.3424 197.875 20.18 197.953 20.013C198.063 19.7773 198.095 19.5097 198.253 19.291C198.298 19.2293 198.295 19.133 198.326 19.0018L197.538 19.5989L197.301 19.6072L197.21 19.85C196.925 20.029 196.69 20.3277 196.317 20.3926C196.358 20.5552 196.188 20.6174 196.149 20.7295C195.776 20.9141 195.523 21.2207 195.186 21.4959C195.179 21.4966 195.121 21.5022 195.067 21.5077C194.931 21.594 194.898 21.7678 194.729 21.8325C194.605 21.8794 194.493 22.0056 194.423 22.1244C194.34 22.2582 194.221 22.3653 194.08 22.433C193.926 22.5078 193.885 22.6506 193.76 22.7506C193.72 22.7546 193.663 22.7605 193.583 22.7686C193.403 23.0645 193.141 23.3043 192.903 23.578L192.718 23.5797L192.505 23.8661L192.468 23.7046C192.376 23.8583 192.238 23.8833 192.075 23.88C192.06 23.8458 192.042 23.8064 192.028 23.7729L191.289 23.8706C191.231 23.7941 191.186 23.736 191.129 23.6611L191.154 23.5309L191.088 23.4822L190.969 23.5646C190.795 23.454 190.758 23.2748 190.74 23.0893C190.814 22.9431 190.814 22.9431 190.718 22.7341L190.696 22.9023C190.666 22.8899 190.632 22.8761 190.584 22.8567L190.69 22.6591C190.646 22.6602 190.617 22.6611 190.595 22.6617L190.391 22.0146L190.483 21.8902L190.356 21.8983L190.398 21.7681L190.28 21.68C190.27 21.6168 190.263 21.5709 190.257 21.5249C190.353 21.5017 190.436 21.4106 190.548 21.4715C190.49 21.2895 190.351 21.364 190.206 21.3704L190.301 21.2172C190.237 21.0623 190.207 20.8961 190.052 20.7738C189.923 20.6719 189.955 20.4929 189.999 20.322L189.873 20.3218L189.956 20.1491C189.941 20.1411 189.92 20.1292 189.855 20.094C189.821 19.9873 189.799 19.8226 189.718 19.695C189.603 19.5133 189.68 19.2978 189.559 19.1137C189.453 18.9523 189.398 18.7564 189.358 18.555C189.304 18.2804 189.185 18.0185 189.087 17.7319L188.973 17.8851C188.99 17.9175 189.015 17.964 189.049 18.0276L188.883 18.0922C188.865 18.1967 188.855 18.3023 188.851 18.4083C188.853 18.4978 188.784 18.6014 188.888 18.6783C188.781 18.7632 188.818 18.8785 188.832 18.9858L188.759 18.9965C188.811 19.3897 188.749 19.7723 188.658 20.1532L188.723 20.5285L188.654 20.6211L188.645 21.1616C188.564 21.1517 188.506 21.1446 188.432 21.1355L188.394 21.4557L188.628 21.5546L188.589 22.3245C188.499 22.2192 188.512 22.1417 188.492 22.0659C188.342 22.1256 188.444 22.2394 188.432 22.3244C188.392 22.3368 188.352 22.3492 188.266 22.3756L188.388 22.5263L188.314 22.5382L188.474 22.5558L188.426 22.8241L188.314 22.8481L188.325 22.9542C188.411 22.9967 188.504 23.0419 188.588 23.0831C188.553 23.4061 188.52 23.7136 188.487 24.021C188.474 24.0229 188.461 24.0249 188.448 24.0267L188.402 23.8852L188.183 24.3314C188.052 24.2832 187.931 24.2385 187.755 24.1736L187.598 24.2161C187.624 23.7996 187.56 23.4087 187.524 23.0203C187.473 22.4828 187.526 21.9507 187.51 21.4165C187.493 20.8598 187.551 20.3012 187.574 19.7434C187.587 19.4257 187.591 19.1074 187.611 18.7901C187.638 18.3449 187.659 17.8979 187.719 17.4565C187.745 17.2621 187.699 17.0692 187.763 16.8707C187.818 16.7004 187.786 16.5009 187.79 16.3143C187.8 15.8376 187.825 15.3617 187.781 14.8842C187.753 14.5732 187.766 14.2584 187.759 13.8994L188.007 13.566C188.09 13.6237 188.201 13.6572 188.223 13.8121L188.4 13.6224C188.729 13.6594 188.993 13.82 189.254 14.0698L189.25 14.3376L189.191 14.5597C189.303 14.5934 189.386 14.6187 189.465 14.6426C189.51 14.7915 189.566 14.9377 189.598 15.0888C189.625 15.2175 189.776 15.3231 189.627 15.4836L189.764 15.4635C189.718 15.63 189.947 15.7498 189.817 15.929C189.862 15.9712 189.902 16.0092 189.95 16.0543L189.911 16.1439C190.15 16.5176 190.235 16.9517 190.352 17.3828C190.372 17.398 190.414 17.4131 190.426 17.4407C190.472 17.552 190.561 17.6811 190.536 17.778C190.495 17.9353 190.681 18.0635 190.55 18.2143C190.615 18.2686 190.675 18.3188 190.74 18.3728L190.701 18.5035C190.732 18.5296 190.767 18.5582 190.82 18.6023L190.869 19.0027C190.784 18.9857 190.734 18.9754 190.665 18.9613C190.7 19.0605 190.732 19.1499 190.764 19.2395C190.805 19.2429 190.846 19.2462 190.911 19.2513C190.904 19.3155 190.885 19.3763 190.896 19.4314C190.906 19.4796 190.948 19.5215 190.976 19.5654L191.128 19.5711L191.105 19.7909L190.962 19.9005L191.076 19.9849C191.056 20.1179 191.041 20.2107 191.145 20.3284C191.321 20.5285 191.407 20.795 191.525 21.0366C191.543 21.0737 191.511 21.1348 191.502 21.1842L191.567 21.1809C191.6 21.3272 191.651 21.4597 191.656 21.5937C191.661 21.7299 191.621 21.8676 191.595 22.0393C191.638 22.1098 191.697 22.0628 191.779 21.8886L191.789 22.1605L191.615 22.2482L191.858 22.3152L191.891 22.4254C191.935 22.4174 192.014 22.4247 192.03 22.3963C192.109 22.2575 192.241 22.207 192.361 22.151C192.459 21.9067 192.706 21.8116 192.868 21.6376C193.044 21.4427 193.239 21.2654 193.45 21.1083C193.653 20.9624 193.864 20.8186 194.026 20.6379C194.198 20.446 194.412 20.313 194.594 20.1374C194.784 19.9606 194.989 19.801 195.207 19.6603C195.414 19.5214 195.581 19.3373 195.793 19.2001C196.01 19.0596 196.216 18.9009 196.407 18.7258C196.593 18.5533 196.817 18.4449 197.009 18.2868C197.2 18.1294 197.4 17.9808 197.603 17.8384C197.813 17.6907 198.034 17.5571 198.248 17.414C198.454 17.2764 198.657 17.1346 198.878 16.9828L199.19 16.9373L199.209 17.0294C199.323 17.1271 199.398 17.0235 199.471 16.9913C199.608 17.0586 199.736 17.1216 199.874 17.1897L199.889 17.2718C200.133 17.25 200.184 17.4423 200.232 17.6064C200.28 17.772 200.288 17.9497 200.315 18.1339C200.153 18.431 200.198 18.8272 199.887 19.0725L199.98 19.1765L199.669 19.7795C199.674 19.7863 199.699 19.8194 199.717 19.844C199.645 20.0312 199.579 20.2147 199.502 20.3934C199.472 20.4637 199.431 20.5554 199.37 20.581C199.301 20.6047 199.241 20.6486 199.198 20.707C199.155 20.7653 199.13 20.8355 199.127 20.9082C199.118 20.984 199.048 21.0527 199.045 21.1509L199.208 20.9318C199.23 20.9727 199.249 20.9981 199.245 21.0026C199.123 21.1388 199.078 21.3152 199.024 21.4793C198.979 21.6174 198.906 21.7563 198.801 21.803C198.665 21.8636 198.643 21.9863 198.494 22.0892L198.634 22.0916C198.618 22.3364 198.596 22.4277 198.435 22.5098C198.306 22.5756 198.282 22.692 198.233 22.8065L198.469 22.5541L198.211 23.1175C198.739 22.8246 199.264 22.7006 199.768 22.5211C200.282 22.3384 200.562 22.2842 201.015 22.2726C201.097 22.2704 201.176 22.2159 201.26 22.2076C201.404 22.1931 201.551 22.2079 201.694 22.1876C201.825 22.169 201.95 22.1 202.081 22.089C202.428 22.06 202.778 22.0888 203.125 22.0366C203.159 22.0314 203.201 22.0809 203.244 22.1078C203.298 22.0863 203.357 22.0418 203.415 22.0436C203.699 22.0527 203.985 22.055 204.265 22.0974C204.488 22.131 204.713 22.1466 204.937 22.1986C205.158 22.2502 205.338 22.3665 205.539 22.4429C205.746 22.5219 205.896 22.7059 206.013 22.922C205.696 22.9923 205.774 23.3383 205.614 23.5284L205.845 23.2638L205.888 23.2999L205.75 23.4848C205.709 23.5406 205.666 23.5958 205.626 23.6525C205.581 23.7161 205.51 23.7713 205.55 23.8655C205.441 23.8388 205.488 23.978 205.426 23.9858C205.313 23.9997 205.43 24.1328 205.325 24.1569C205.264 24.1795 205.21 24.2184 205.17 24.2692C205.12 24.3273 205.073 24.3885 205.031 24.4523L204.866 24.401L204.959 24.5359L204.879 24.6652L204.575 24.7098L204.493 24.8324L204.578 24.9614C204.514 24.9489 204.465 24.9392 204.416 24.9297L204.37 24.991L204.446 25.1326C204.275 25.2544 204.088 25.3482 203.962 25.5268C203.905 25.6077 203.786 25.6453 203.686 25.7089L203.687 25.7589L203.216 26.1319L203.206 25.9093C203.132 25.9801 203.08 26.071 203.057 26.1709C203.047 26.1746 203.036 26.1778 203.025 26.1803C203.002 26.1843 202.979 26.1872 202.952 26.1911C202.957 26.2136 202.962 26.236 202.965 26.2586C202.966 26.27 202.967 26.2815 202.967 26.293L202.705 26.4782L202.458 26.2951L202.412 26.3194C202.43 26.3686 202.448 26.4178 202.474 26.4877L202.649 26.5118L202.315 26.7869L202.215 26.7419C202.206 26.9538 202.051 26.9998 201.891 27.0444C201.839 27.0596 201.791 27.0837 201.747 27.1157C201.651 27.1854 201.559 27.2619 201.447 27.3504C201.443 27.3489 201.413 27.3377 201.35 27.3145L201.206 27.5381C201.232 27.5323 201.197 27.5313 201.174 27.547C200.987 27.6732 200.815 27.8214 200.617 27.9322C200.599 27.9426 200.589 27.9676 200.572 27.9816C200.46 28.0732 200.277 28.0157 200.19 28.1566C200.113 28.2807 199.966 28.2847 199.861 28.3601C199.748 28.4411 199.627 28.5116 199.508 28.5847C199.469 28.6014 199.431 28.6212 199.394 28.6437C199.358 28.6827 199.325 28.7253 199.297 28.7706L199.123 28.7719L198.982 28.9614C198.781 28.9858 198.577 29.0071 198.453 29.2023C198.442 29.2217 198.425 29.2361 198.404 29.2426C198.104 29.2672 197.917 29.5182 197.647 29.6125C197.387 29.7036 197.158 29.8808 196.904 29.9948C196.567 30.1458 196.22 30.2728 195.877 30.4082C195.844 30.4216 195.809 30.4267 195.774 30.4229C195.465 30.3778 195.156 30.3295 194.876 30.2866C194.758 30.1576 194.662 30.0516 194.537 29.9152L194.561 29.6381C194.73 29.5319 194.889 29.4203 195.059 29.3286C195.228 29.2343 195.405 29.1529 195.587 29.0854C195.986 28.9429 196.342 28.7148 196.726 28.5449C196.954 28.4443 197.151 28.2758 197.408 28.2437C197.74 27.9802 198.129 27.8187 198.494 27.614C198.652 27.5256 198.825 27.46 198.97 27.3444C199.104 27.238 199.255 27.1526 199.398 27.0575C199.844 26.7601 200.293 26.4648 200.737 26.1641C200.969 26.0075 201.197 25.8456 201.421 25.6784C201.647 25.51 201.858 25.3148 202.086 25.1599C202.486 24.8884 202.794 24.519 203.18 24.2353C203.384 24.0856 203.537 23.8635 203.7 23.6637C203.86 23.4694 204.003 23.2616 204.196 23.0014Z" fill="black"/>
<g clip-path="url(#clip0)">
<path d="M303.596 49.6712C304.767 49.4136 305.882 49.1462 306.998 48.8789C308.992 48.4183 310.929 47.948 312.923 47.4874C313.422 47.3723 314.001 47.3001 314.127 47.9854C314.158 48.2216 313.623 48.6765 313.268 48.7877C310.221 49.4688 307.18 50.0933 304.139 50.7177C303.878 50.7587 303.584 50.5634 303.279 50.4814C303.397 50.1846 303.509 49.9445 303.596 49.6712Z" fill="black"/>
<path d="M303.503 31.5985C304.145 31.4795 304.681 31.2843 305.254 31.2687C305.485 31.2512 305.766 31.5597 306.034 31.7217C305.866 31.9521 305.729 32.159 305.536 32.3562C305.443 32.4265 305.293 32.487 305.175 32.5241C304.24 32.7075 303.661 33.0393 304.248 34.2088C304.342 34.3982 304.068 34.8121 303.982 35.0854C303.719 34.8667 303.252 34.6988 303.195 34.4294C302.982 33.4981 302.626 33.09 301.711 33.6229C301.499 33.7303 301.262 33.8044 301.038 33.7654C300.789 33.6931 300.489 33.5545 300.339 33.3553C300.264 33.2557 300.451 32.8555 300.663 32.7482C300.974 32.5139 301.435 32.4788 301.715 32.268C301.977 31.9674 302.076 31.5808 302.2 31.2274C302.293 30.8975 302.361 30.5344 302.429 30.1712C302.685 30.4466 302.972 30.6984 303.228 30.9737C303.322 31.1631 303.385 31.3759 303.503 31.5985Z" fill="black"/>
<path d="M312.156 56.6417C311.895 56.6827 311.596 56.8037 311.34 56.7881C309.632 56.7215 307.98 56.6648 306.279 56.5416C305.998 56.4928 305.723 56.1277 305.461 55.909C305.767 55.7313 306.096 55.3272 306.408 55.3527C307.941 55.4465 309.437 55.6204 310.958 55.8275C311.382 55.8725 311.813 56.1204 312.224 56.2786C312.212 56.3919 312.169 56.5285 312.156 56.6417Z" fill="black"/>
</g>
<path d="M275.815 38.8542C279.761 40.8824 283.121 43.7556 286.606 46.462C288.45 47.8949 290.511 49.0221 292.343 50.4706C293.202 51.1495 294.061 51.8283 294.92 52.5071C295.082 52.6347 295.391 52.7742 295.249 53.0154C294.925 53.5663 294.438 54.0607 294.043 54.5605C293.034 55.8365 292.041 57.0507 291.221 58.4454C290.813 59.1378 290.401 59.8077 289.994 60.5152C289.541 61.3037 289.319 62.164 288.767 62.8992C288.253 63.5852 287.909 64.3186 287.362 65.0103C286.989 65.4828 286.664 65.2275 286.119 64.9559C283.912 63.8556 281.932 62.3627 280.006 60.8403C279.18 60.1874 278.343 59.6621 277.471 59.0927C277.256 58.9529 277.054 58.9024 276.846 58.7375C274.649 57.0012 272.648 55.0257 270.458 53.295C269.801 52.7758 269.298 52.1151 268.639 51.5942C268.513 51.4947 268.312 51.502 268.214 51.3828C267.997 51.1153 269.224 49.5041 269.423 49.1886C270.123 48.0725 270.89 47.0306 271.643 45.9537C272.007 45.4332 272.254 44.8188 272.606 44.282C272.943 43.7684 273.132 43.1202 273.483 42.6368C274.448 41.3056 275.049 39.8234 276.071 38.5304" stroke="black" stroke-width="1.5" stroke-linecap="round" stroke-linejoin="round"/>
<path d="M276.61 42.5071C277.851 43.9539 278.678 45.5636 279.553 47.2511C279.887 47.8965 280.265 48.5062 280.519 49.1907C280.689 49.6522 280.815 50.1431 281.041 50.5823C281.613 51.6971 282.178 52.8028 282.706 53.9294C282.982 54.5187 284.013 53.9196 284.408 53.7913C285.586 53.4086 286.725 53.3271 287.951 53.2824C289.186 53.2373 290.449 53.3735 291.675 53.2298" stroke="black" stroke-width="1.5" stroke-linecap="round" stroke-linejoin="round"/>
<path d="M275.896 38.918C275.092 39.5633 274.149 40.2239 273.164 40.5437C272.481 40.7657 272.011 41.0555 271.667 41.6984C271.285 42.4126 271.01 43.1839 270.619 43.8943C270.377 44.3325 270.191 44.7919 269.889 45.1877C269.588 45.581 269.418 46.068 269.138 46.4794C268.724 47.0884 268.307 47.8173 267.959 48.4702C267.454 49.4197 266.828 50.2254 266.151 51.0814C265.955 51.3292 265.72 51.5495 265.642 51.8552C265.497 52.421 266.327 52.781 266.768 53.0374C268.647 54.1304 270.362 55.4543 272.074 56.8069C272.516 57.1567 273.294 57.6232 273.384 58.2368C273.564 59.4717 273.962 60.4728 273.828 61.7513C273.788 62.1323 273.689 62.5961 273.75 62.9684C273.806 63.3025 274.923 62.8379 275.085 62.7957C275.79 62.6126 276.576 62.0823 277.318 62.1424C277.664 62.1704 277.856 61.9888 278.209 62.1524C278.867 62.4572 279.419 62.8562 280.055 63.1807C280.895 63.6084 281.508 64.3922 282.35 64.8259C282.772 65.0434 283.223 65.224 283.598 65.5203C283.787 65.6692 284.114 66.0581 284.375 66.0537C285.456 66.0354 286.203 65.3274 287.185 65.0675" stroke="black" stroke-width="1.5" stroke-linecap="round" stroke-linejoin="round"/>
<path d="M382.199 267.091C382.111 267.356 381.953 267.392 381.723 267.462C381.512 267.48 381.229 267.533 380.982 267.657C381.052 267.093 381.264 266.722 381.511 266.598C381.722 266.492 382.04 266.686 382.199 267.091Z" fill="#69DDCB"/>
<path d="M356.757 48.001C359.318 50.4686 361.703 53.6422 363.418 56.7989C361.739 53.801 359.406 50.7332 356.757 48.001Z" fill="#69DDCB"/>
<path d="M183.315 294.895C183.315 294.895 183.721 294.559 184.109 294.276C184.514 293.94 184.902 293.658 184.902 293.658C184.867 293.499 184.813 293.305 184.743 293.164C184.725 293.129 184.707 293.093 184.725 293.04C184.76 293.023 184.76 293.023 184.742 292.987C184.778 292.97 184.76 292.934 184.76 292.934C184.742 292.899 184.689 292.882 184.601 292.882C184.425 292.882 184.16 292.97 183.913 293.006C183.631 293.059 183.402 293.13 183.225 293.13C183.137 293.13 183.084 293.113 183.102 293.06C183.084 293.024 183.137 292.954 183.207 292.83C184.089 292.476 184.583 292.229 184.83 292.017C185.059 291.77 185.041 291.558 184.935 291.346C184.793 291.064 184.581 290.817 184.546 290.57C184.51 290.235 184.651 289.9 185.339 289.511C185.233 289.564 185.162 289.511 185.074 289.423C185.021 289.405 184.986 289.335 184.933 289.317C184.862 289.264 184.827 289.194 184.756 289.141C184.491 288.876 184.05 288.7 183.203 288.948C183.926 288.63 184.332 288.382 184.543 288.188C184.737 287.959 184.878 287.8 184.613 287.535C184.26 287.094 183.518 286.672 183.659 286.072C184.382 285.489 184.771 286.088 185.9 286.14C185.9 286.14 185.9 285.963 185.917 285.734C185.935 285.681 185.935 285.593 185.917 285.558C185.899 285.522 185.917 285.469 185.917 285.469C185.899 285.434 185.881 285.399 185.846 285.328C185.722 285.17 185.616 284.958 185.475 284.764C184.963 284.006 184.538 283.248 184.538 283.248C184.379 283.195 184.221 283.142 184.079 283.124C183.92 283.072 183.797 283.001 183.638 282.948C183.356 282.825 183.038 282.72 182.755 282.685C182.191 282.527 181.644 282.492 181.255 282.51C180.409 282.581 180.039 283.076 180.639 283.922C179.951 283.341 179.138 282.512 178.149 281.596C177.902 281.366 177.654 281.137 177.39 280.873L177.301 280.785C177.284 280.749 177.301 280.697 177.266 280.626C177.266 280.538 177.248 280.414 177.248 280.326C177.23 280.114 177.212 279.903 177.194 279.691C177.123 278.844 177.034 277.962 176.927 277.044C176.891 276.797 176.873 276.586 176.838 276.339L176.784 275.968L176.784 275.88L176.767 275.845C176.802 275.827 176.784 275.792 176.82 275.774L177.084 275.509C177.789 274.803 178.476 274.061 179.181 273.354C180.609 271.888 182.125 270.334 183.659 268.727C187.044 266.853 190.501 264.943 194.098 262.963C194.998 262.468 195.897 261.973 196.832 261.461C197.273 261.196 197.767 260.948 198.207 260.683L198.56 260.506L198.736 260.418L198.966 260.347L199.848 259.993C202.246 259.055 204.716 258.082 207.185 257.109C209.654 256.136 212.159 255.145 214.716 254.172C215.351 253.942 216.004 253.659 216.639 253.429L217.591 253.04L218.068 252.845C218.209 252.775 218.403 252.722 218.508 252.669C219.443 252.244 220.36 251.784 221.295 251.36C223.182 250.458 225.087 249.592 227.009 248.672C227.979 248.23 228.932 247.752 229.902 247.31C230.395 247.063 230.872 246.868 231.365 246.621L232.124 246.285L232.477 246.108C232.582 246.055 232.723 245.984 232.794 245.949C235.527 244.181 238.278 242.361 241.117 240.541C241.487 240.311 241.822 240.099 242.175 239.834L242.704 239.48C242.862 239.357 242.986 239.251 243.145 239.127C243.709 238.667 244.308 238.19 244.855 237.696L245.683 236.972L246.459 236.23C247.005 235.735 247.464 235.24 247.957 234.728C248.451 234.216 248.909 233.721 249.367 233.227C249.825 232.732 250.248 232.167 250.671 231.69L251.288 230.896C251.499 230.613 251.693 230.384 251.922 230.048L252.063 229.801C252.099 229.783 252.081 229.748 252.081 229.748L252.257 229.836L252.558 229.995L253.105 230.294C253.458 230.47 253.829 230.681 254.217 230.84C254.57 231.016 254.87 231.174 255.206 231.315C255.894 231.632 256.424 231.896 257.024 232.125L257.854 232.459C258.118 232.547 258.348 232.653 258.613 232.741C258.842 232.847 259.054 232.917 259.266 232.987L259.901 233.198C260.272 233.321 260.713 233.409 260.978 233.497C261.137 233.55 261.278 233.567 261.472 233.603C261.578 233.638 261.719 233.655 261.86 233.673L262.054 233.708L262.107 233.725C262.196 233.637 261.385 234.661 261.737 234.22L261.755 234.167L261.825 234.043L262.054 233.531L262.16 233.302L262.23 233.178C262.248 233.125 262.23 233.178 262.23 233.178L262.248 233.214C262.248 233.302 262.248 233.39 262.284 233.461C262.301 233.496 262.284 233.549 262.301 233.584L262.337 233.655C262.354 233.69 262.354 233.69 262.354 233.69L262.266 233.69L262.019 233.725L261.649 233.779C261.049 233.903 260.114 234.151 259.02 234.611C257.892 235.088 256.604 235.778 255.335 236.679C255 236.891 254.682 237.139 254.347 237.351C254.03 237.598 253.695 237.81 253.395 238.093C253.078 238.34 252.761 238.588 252.461 238.87L252.426 238.888C252.373 238.87 252.267 238.747 252.072 238.624C251.719 238.359 251.154 238.025 250.625 237.76C250.342 237.637 250.06 237.514 249.83 237.408C249.707 237.338 249.618 237.338 249.495 237.268C249.248 237.215 248.948 237.145 248.683 237.057C246.512 236.424 244.306 236.073 242.259 235.863C241.712 235.829 241.218 235.812 240.741 235.741C240.512 235.724 240.283 235.707 240.053 235.689C239.824 235.672 239.559 235.672 239.347 235.69C238.906 235.69 238.447 235.656 238.077 235.621C237.706 235.586 237.283 235.622 236.965 235.604C237.67 234.986 238.8 234.949 239.946 234.772C240.493 234.718 241.022 234.63 241.516 234.47C242.01 234.311 242.451 234.046 242.786 233.657C242.486 233.499 242.168 233.393 241.868 233.323C241.568 233.253 241.286 233.218 241.039 233.165C240.756 233.13 240.527 233.113 240.315 233.13C240.086 233.113 239.839 233.149 239.627 233.166C239.204 233.202 238.833 233.256 238.462 233.221C238.092 233.186 237.809 233.062 237.439 232.851C236.875 234.193 235.323 234.353 233.453 234.673C231.618 234.975 229.519 235.453 228.497 236.936L227.313 235.632L225.779 236.798C225.303 236.816 224.844 236.87 224.421 236.905C223.997 236.941 223.574 236.977 223.168 237.048C222.374 237.137 221.704 237.208 221.086 237.297C219.834 237.44 218.934 237.582 218.264 237.653C216.905 237.848 216.464 237.937 216.111 238.026C215.776 238.15 215.529 238.273 214.4 238.663C213.836 238.857 213.077 239.105 212.019 239.459C211.455 239.654 210.837 239.831 210.114 240.061C209.355 240.309 208.509 240.557 207.556 240.858C202.934 242.027 199.177 242.543 195.93 242.934C195.101 243.041 194.325 243.165 193.584 243.272C192.808 243.396 192.067 243.503 191.343 243.645C189.897 243.929 188.486 244.283 187.039 244.832C187.904 244.619 190.002 243.17 187.197 243.473C187.144 243.808 186.685 244.038 185.927 244.198C185.168 244.357 184.198 244.446 183.192 244.553C182.698 244.624 182.187 244.66 181.693 244.731C181.199 244.802 180.705 244.873 180.264 244.962C179.382 245.14 178.711 245.387 178.412 245.758C177.671 245.865 176.559 246.025 175.289 246.22C174.954 246.256 174.636 246.327 174.301 246.362C173.842 246.416 173.49 246.504 172.943 246.558C171.937 246.665 170.931 246.772 170.031 246.826C168.196 246.951 166.661 247.058 165.903 246.865C165.144 246.672 165.179 246.389 166.395 245.824C165.778 246.089 164.508 246.373 163.061 246.656C162.338 246.798 161.562 246.923 160.803 247.082C160.433 247.135 160.027 247.206 159.674 247.295C159.304 247.348 158.969 247.384 158.633 247.42C156.022 247.758 154.576 248.041 158.493 248.373C157.364 248.409 156.27 248.428 155.194 248.482C154.629 248.5 154.117 248.536 153.588 248.537C153.323 248.537 153.059 248.537 152.794 248.537C152.529 248.538 152.3 248.52 152.035 248.521C150.006 248.434 148.171 248.295 146.671 248.032L152.405 247.85C150.587 247.746 148.858 247.642 147.235 247.573C147.005 247.555 146.829 247.555 146.599 247.538C146.405 247.503 146.229 247.503 146 247.486C145.629 247.451 145.205 247.398 144.835 247.363C144.094 247.294 143.335 247.189 142.611 247.154C141.87 247.084 141.182 247.032 140.476 246.944C139.77 246.857 139.17 246.716 138.499 246.611C137.229 246.366 136.011 246.137 134.811 245.945C134.511 245.874 134.193 245.857 133.928 245.769C133.664 245.681 133.364 245.611 133.099 245.523C132.569 245.347 132.058 245.206 131.493 245.048C130.451 244.732 129.445 244.397 128.457 244.01C126.585 243.183 124.838 242.25 123.284 240.998C123.284 240.998 123.584 241.069 124.025 241.245C124.237 241.315 124.501 241.403 124.766 241.491C125.031 241.579 125.331 241.649 125.631 241.719C126.231 241.86 126.814 242.053 127.308 242.159C127.767 242.282 128.067 242.352 128.067 242.352C124.536 240.944 121.553 239.306 119.046 237.915C116.538 236.523 114.508 235.379 112.673 234.975C112.673 234.975 113.008 235.292 113.52 235.786C113.997 236.297 114.739 236.896 115.463 237.548C115.799 237.865 116.205 238.147 116.523 238.429C116.876 238.693 117.194 238.975 117.476 239.187C118.042 239.61 118.448 239.892 118.448 239.892C116.258 238.518 114.316 237.108 112.691 235.628C112.479 235.469 112.285 235.257 112.073 235.099C111.896 234.923 111.667 234.729 111.49 234.552C111.119 234.165 110.73 233.83 110.36 233.442C109.671 232.684 108.946 231.944 108.328 231.15C107.674 230.375 107.091 229.564 106.526 228.788C106.243 228.4 105.978 227.959 105.73 227.553C105.483 227.148 105.183 226.725 104.97 226.301C104.723 225.896 104.493 225.437 104.246 225.032C103.998 224.626 103.839 224.132 103.609 223.674C103.202 222.774 102.813 221.822 102.441 220.905C102.211 220.093 101.946 219.299 101.733 218.435C101.485 217.588 101.308 216.706 101.078 215.807C101.078 215.807 101.396 216.706 101.697 217.57C101.839 218.029 102.015 218.47 102.122 218.77C102.246 219.105 102.352 219.317 102.352 219.317C102.245 218.929 102.139 218.452 102.015 217.941C101.891 217.429 101.749 216.882 101.607 216.247C101.43 215.63 101.359 214.959 101.235 214.271C101.181 213.901 101.093 213.548 101.039 213.178C100.986 212.807 100.968 212.419 100.897 212.013C100.844 211.643 100.808 211.219 100.772 210.796C100.737 210.372 100.719 209.984 100.7 209.508C100.665 209.084 100.664 208.643 100.646 208.167C100.646 207.726 100.645 207.284 100.662 206.79C100.644 205.873 100.731 204.902 100.765 203.914C100.782 203.42 100.852 202.944 100.905 202.432C100.957 201.92 101.01 201.408 101.115 200.914C101.746 196.802 103.012 192.372 105.124 187.87C106.163 185.628 107.361 183.351 108.841 181.108C109.598 179.978 110.32 178.866 111.096 177.771C111.272 177.506 111.483 177.224 111.695 176.941L112.347 176.129L113.651 174.504C114.091 173.974 114.514 173.409 114.955 172.879C115.448 172.367 115.924 171.82 116.382 171.325C116.876 170.813 117.317 170.283 117.81 169.771L118.515 168.976C118.744 168.729 119.009 168.464 119.291 168.234C120.295 167.245 121.3 166.256 122.323 165.302C122.816 164.79 123.345 164.348 123.874 163.906C124.403 163.465 124.914 162.988 125.443 162.546C125.972 162.104 126.483 161.627 126.977 161.203C127.506 160.762 128.052 160.355 128.581 159.914C129.621 159.083 130.661 158.253 131.684 157.475C132.195 157.087 132.707 156.698 133.218 156.309C133.764 155.903 134.293 155.549 134.805 155.161C134.999 155.019 135.193 154.878 135.422 154.719C135.581 154.595 135.757 154.507 135.916 154.383C136.251 154.171 136.586 153.959 136.921 153.747C142.211 150.389 146.39 148.249 148.454 147.524C148.454 147.524 147.802 148.336 147.168 149.184C146.516 149.996 145.881 150.844 145.881 150.844C145.881 150.844 146.305 150.632 146.957 150.349C147.61 150.066 148.421 149.659 149.285 149.27C150.149 148.881 150.978 148.509 151.596 148.244C152.213 147.979 152.636 147.767 152.636 147.767C152.266 147.996 150.977 147.539 149.671 147.134C148.4 146.712 147.13 146.378 146.936 146.784C147.377 146.519 147.835 146.201 148.329 145.865C148.84 145.565 149.405 145.194 150.039 144.787C151.274 143.992 152.702 143.143 154.289 142.171C155.859 141.252 157.551 140.227 159.421 139.113C161.237 138.07 163.177 136.922 165.222 135.72C169.313 133.316 173.969 130.629 179.101 127.835C181.676 126.456 184.374 125.06 187.16 123.663C189.964 122.301 192.91 120.957 195.908 119.719C198.889 118.445 202.064 117.295 205.203 116.251C208.343 115.206 211.395 114.339 214.358 113.559C220.25 112.018 225.719 110.954 230.465 110.031C235.21 109.109 239.268 108.399 242.514 107.742C245.707 107.068 248.23 106.554 249.764 106.094C254.686 104.377 250.256 103.817 250.168 103.641C253.29 103.267 254.014 103.478 254.614 103.618C255.214 103.759 255.673 103.882 258.266 103.244C259.624 102.696 257.736 102.274 256.924 102.24C258.089 102.097 259.147 101.743 259.941 101.566C260.752 101.336 261.334 101.265 261.476 101.547C258.813 102.661 260.332 104.018 259.415 105.36C259.415 105.36 261.056 104.935 262.696 104.51C264.355 104.12 265.96 103.624 265.96 103.624L265.394 102.672C266.135 102.477 267.194 102.917 268.906 103.162C269.771 103.303 270.759 103.337 271.924 103.195C273.088 103.052 274.446 102.768 275.963 102.185C281.167 100.415 286.441 98.5212 291.538 96.4514C296.635 94.3817 301.467 91.9593 305.788 89.308C305.54 89.0789 304.958 89.15 304.147 89.3803C303.953 89.4334 303.723 89.5042 303.494 89.5751C303.265 89.6459 303.035 89.7167 302.771 89.8052C302.277 89.9645 301.783 90.1238 301.254 90.3008C301.836 89.965 302.629 89.6113 303.335 89.1694C304.04 88.7275 304.71 88.2151 305.133 87.7383C303.618 89.9102 309.137 86.2166 307.744 87.5767C308.697 87.364 309.579 87.0102 310.496 86.6387C310.972 86.4441 311.396 86.2319 311.854 86.0021C312.066 85.896 312.313 85.7722 312.524 85.6661C312.718 85.5247 312.965 85.401 313.159 85.2596C313.988 84.7117 314.852 84.1462 315.698 83.5454L316.315 83.1036C316.509 82.9623 316.721 82.768 316.915 82.6266C317.285 82.3086 317.69 81.9729 318.061 81.6549C318.431 81.3369 318.836 81.0012 319.207 80.6832C319.383 80.5066 319.577 80.3652 319.753 80.1886L320.035 79.9589L320.282 79.7469C320.881 79.1817 321.481 78.6164 322.045 78.0688C322.556 77.5919 323.014 77.1856 323.384 76.8676C323.79 76.5319 324.09 76.3375 324.46 76.1959C324.707 76.3369 325.466 76.7066 326.631 77.1818C327.196 77.4282 327.902 77.6922 328.679 77.9208C329.473 78.1846 330.303 78.4308 331.309 78.6768C333.215 79.1336 335.527 79.4311 337.997 79.3403C338.297 79.3224 338.632 79.2867 338.932 79.2688L338.968 79.2511C338.915 79.41 338.95 79.3041 338.968 79.3393L339.003 79.3216L339.126 79.3039L339.373 79.2683L339.867 79.1972C340.52 79.0907 341.173 78.9841 341.826 78.8776C343.113 78.6292 344.454 78.1338 345.724 77.5854C347.029 77.0194 348.263 76.3123 349.498 75.517C350.679 74.7041 351.843 73.7677 352.883 72.7609C355.016 70.7648 356.725 68.3633 358.028 66.0328C358.68 64.8675 359.19 63.6848 359.63 62.6256C360.053 61.5312 360.387 60.5251 360.686 59.6248C360.827 59.2012 360.967 58.7776 361.055 58.4246C361.178 58.0539 361.249 57.7539 361.336 57.4891C361.512 56.9596 361.688 56.6065 361.83 56.5358C359.815 53.1323 356.988 49.7827 354.021 47.3861C353.315 46.7692 352.573 46.2583 351.884 45.765C351.196 45.2716 350.542 44.8488 349.924 44.4966C348.688 43.792 347.7 43.3167 347.029 43.035C347.629 43.1756 349.112 43.7563 351.054 44.9012C352.007 45.4825 353.067 46.1872 354.091 46.9978C354.603 47.4031 355.133 47.8437 355.681 48.3196C356.228 48.7954 356.74 49.2889 357.217 49.8001C357.694 50.3113 358.224 50.8402 358.701 51.4396L359.054 51.8803L359.39 52.2859C359.62 52.5679 359.814 52.8677 360.044 53.1498C360.468 53.7316 360.892 54.3135 361.281 54.913C361.652 55.4772 362.006 56.0945 362.341 56.6764C362.501 56.9938 362.677 57.2583 362.836 57.5758C362.978 57.858 363.119 58.1401 363.261 58.4223C363.544 58.9867 363.774 59.5334 364.004 60.0802C364.463 61.1737 364.782 62.1615 365.065 63.0787C365.065 63.0787 364.836 63.5024 364.572 63.9439C364.326 64.3323 364.061 64.7737 364.061 64.7737C365.142 68.778 365.285 70.9129 365.498 72.2184C365.659 73.5063 365.8 73.965 365.959 74.3706C366.136 74.8116 366.296 75.2173 366.403 76.4876C366.456 77.1228 366.493 77.9873 366.423 79.1696C366.406 79.4872 366.371 79.7696 366.371 80.1225C366.371 80.299 366.319 80.4578 366.319 80.6343C366.301 80.8637 366.249 81.1108 366.214 81.3931C366.161 81.9049 366.038 82.452 365.933 83.0344C365.863 83.3344 365.828 83.6168 365.758 83.9168C365.74 84.058 365.687 84.2169 365.67 84.3581L365.617 84.5169C365.688 84.5698 365.776 84.5697 365.811 84.552C365.846 84.5343 365.899 84.5519 365.935 84.5342C365.935 84.5342 365.97 84.5165 366.005 84.4989L366.041 84.4812C366.041 84.4812 366.058 84.4282 366.093 84.4105C366.322 83.9868 366.586 83.2808 366.815 82.3277C366.938 81.8688 367.061 81.3216 367.183 80.6863C367.271 80.2451 367.341 79.7686 367.429 79.2392C367.517 78.7097 367.587 78.145 367.657 77.5803C367.709 76.9803 367.761 76.3803 367.778 75.7098C367.846 73.1159 367.684 70.0635 366.975 66.7998C366.266 63.5363 365.045 60.0438 363.224 56.6755C364.903 59.6734 366.159 62.707 366.974 65.5647C367.788 68.4224 368.285 71.1745 368.447 73.6975C368.643 76.2029 368.522 78.5146 368.207 80.5264C368.189 80.6676 368.154 80.7735 368.137 80.9147C368.084 81.0736 368.084 81.25 368.066 81.3912C368.014 81.7265 367.944 82.0265 367.873 82.3266C367.733 82.9267 367.575 83.4915 367.452 84.0386C367.434 84.1798 367.364 84.3034 367.346 84.4445L367.276 84.6563L367.241 84.7622L367.223 84.8152C367.17 84.8858 367.153 84.9388 367.082 84.9742C366.994 85.0625 366.871 85.1685 366.782 85.2568C366.765 85.398 366.765 85.4862 366.73 85.5921L366.73 85.6803L366.748 85.7156L366.502 86.7216C366.466 86.8275 366.449 86.9687 366.414 87.0746C366.326 87.5158 366.256 87.9041 366.168 88.2571C366.063 88.9277 365.975 89.3689 365.975 89.6336C365.941 90.1806 366.17 90.1981 366.329 90.2508C366.488 90.3036 366.664 90.3916 366.559 91.2387C366.507 91.6622 366.349 92.227 366.085 93.0213C365.979 93.4273 365.803 93.8686 365.592 94.4158C365.398 94.9101 365.17 95.5103 364.87 96.1458C364.606 96.5872 364.377 97.0109 364.113 97.4523C363.849 97.8937 363.567 98.2998 363.303 98.7412C363.021 99.1474 362.739 99.5535 362.422 99.9773C362.263 100.189 362.14 100.383 361.981 100.595C361.823 100.807 361.682 100.966 361.523 101.178C360.29 102.767 359.021 104.198 357.752 105.54C356.483 106.883 355.266 108.066 354.138 109.25C352.992 110.398 351.988 111.475 351.107 112.535L351.318 112.605C350.226 113.859 349.221 114.76 348.234 115.696C347.229 116.597 346.259 117.392 345.272 118.152C345.007 118.329 344.796 118.523 344.531 118.7C344.267 118.876 344.038 119.035 343.809 119.194C343.315 119.53 342.839 119.813 342.345 120.149C341.375 120.767 340.423 121.333 339.471 121.899C338.995 122.182 338.518 122.464 338.042 122.747C337.548 122.995 337.072 123.278 336.614 123.507C335.644 124.038 334.674 124.568 333.739 125.169C333.263 125.452 332.752 125.752 332.293 126.07C331.782 126.371 331.324 126.689 330.812 126.989C329.807 127.626 328.802 128.35 327.744 129.145L328.909 128.915C328.203 129.533 327.216 130.205 326.087 130.859C324.941 131.477 323.654 132.167 322.278 132.857C321.573 133.21 320.867 133.564 320.127 133.935C319.421 134.289 318.663 134.625 317.922 134.996C316.441 135.739 314.977 136.517 313.548 137.365C314.36 136.87 315.012 136.234 315.047 135.952C315.064 135.811 314.888 135.723 314.517 135.776C314.147 135.829 313.547 136.042 312.612 136.378C310.99 137.28 309.473 138.04 308.027 138.677C307.321 139.03 306.581 139.313 305.91 139.561C305.205 139.826 304.552 140.109 303.882 140.357C302.595 140.87 301.307 141.383 300.108 141.896C298.891 142.374 297.709 142.922 296.545 143.594C296.545 143.594 296.21 143.629 295.751 143.683C295.292 143.736 294.622 143.808 293.987 143.861C292.717 143.968 291.428 144.04 291.428 144.04C288.518 145.014 284.496 146.147 279.733 147.387C278.551 147.671 277.299 147.99 276.011 148.326C274.723 148.663 273.4 148.929 272.024 149.266C270.666 149.55 269.255 149.904 267.808 150.188C266.362 150.472 264.88 150.773 263.398 151.075C261.881 151.394 260.381 151.66 258.846 151.944C258.07 152.068 257.276 152.245 256.5 152.37C255.724 152.494 254.912 152.636 254.154 152.796C252.566 153.062 250.978 153.328 249.355 153.612C247.802 153.861 246.215 154.127 244.592 154.411C238.311 155.441 232.26 156.489 226.844 157.747C224.127 158.403 221.552 159.076 219.206 159.855C216.842 160.598 214.444 161.536 212.027 162.527C207.212 164.543 202.398 167.001 197.76 169.547C195.432 170.802 193.21 172.092 191.006 173.33C188.819 174.602 186.72 175.787 184.816 176.918C181.024 179.128 177.991 180.913 175.84 182.256L176.599 182.008C173.301 183.97 169.704 186.215 166.142 188.707C165.26 189.325 164.396 189.979 163.48 190.615C163.25 190.774 163.074 190.951 162.845 191.11C162.774 191.145 162.774 191.145 162.774 191.145C162.774 191.145 162.774 191.145 162.739 191.163L162.669 191.198L162.563 191.251C162.263 191.446 161.981 191.675 161.699 191.905C161.417 192.135 161.117 192.417 160.817 192.7C160.518 192.983 160.236 193.301 160.024 193.671C159.795 194.007 159.602 194.413 159.479 194.872C159.373 195.278 159.356 195.772 159.48 196.195C159.604 196.619 159.869 196.971 160.222 197.235C160.54 197.517 160.946 197.711 161.334 197.869C162.146 198.169 163.011 198.309 163.894 198.396C164.352 198.431 164.793 198.431 165.252 198.465C165.376 198.448 165.482 198.483 165.605 198.465L165.693 198.465C165.693 198.465 165.729 198.447 165.782 198.465L165.905 198.447L166.24 198.411L166.646 198.34C167.175 198.252 167.722 198.198 168.252 198.109C168.816 198.003 169.345 197.914 169.875 197.825C174.232 197.097 178.501 196.193 182.471 195.307C183.035 195.024 183.635 194.723 184.287 194.44C184.94 194.157 185.592 193.874 186.298 193.609C187.674 193.096 189.173 192.565 190.69 192.069C191.448 191.821 192.26 191.591 193.018 191.343C193.777 191.095 194.588 190.865 195.347 190.617C196.917 190.139 198.451 189.679 199.898 189.219C198.328 189.873 197.905 190.35 198.17 190.526C198.399 190.72 199.387 190.666 200.622 190.312C201.716 190.028 202.686 189.763 203.586 189.532C204.45 189.32 205.209 189.16 205.861 188.965C207.167 188.664 208.102 188.504 208.755 188.398C210.06 188.185 210.237 188.273 210.413 188.361C210.607 188.484 210.837 188.59 212.178 188.447C213.536 188.34 216.024 187.931 220.999 187.291C221.705 187.202 222.516 187.148 223.346 187.042C224.192 186.97 225.128 186.899 226.133 186.792C226.645 186.756 227.139 186.685 227.651 186.649C228.162 186.613 228.727 186.595 229.274 186.541C229.838 186.523 230.385 186.47 230.985 186.434C231.285 186.416 231.585 186.398 231.885 186.38C232.185 186.362 232.503 186.379 232.803 186.361C237.725 186.144 243.707 186.191 250.431 187.102C252.107 187.365 253.837 187.645 255.602 187.996C256.484 188.172 257.384 188.382 258.284 188.593C259.185 188.804 260.067 188.98 260.967 189.279C261.85 189.542 262.785 189.824 263.703 190.07L264.391 190.298C264.603 190.369 264.85 190.422 265.115 190.509C265.645 190.685 266.174 190.861 266.686 191.09C268.787 191.847 270.834 192.762 272.794 193.766C276.766 195.791 280.616 198.275 284.271 201.429C287.927 204.584 291.425 208.392 294.394 213.259C295.879 215.692 297.188 218.391 298.196 221.372C299.205 224.353 299.932 227.563 300.183 230.88C300.236 231.692 300.308 232.539 300.326 233.368L300.328 234.603C300.31 234.833 300.346 234.991 300.293 235.238L300.258 236.05C300.224 236.597 300.171 237.109 300.137 237.656L300.067 238.397L300.032 238.68L299.979 239.191L299.944 239.474L299.822 240.285L299.804 240.427L299.734 240.727C299.173 243.921 298.223 246.869 297.167 249.428L296.762 250.382C296.621 250.717 296.498 250.999 296.339 251.3C296.075 251.917 295.776 252.465 295.494 253.047C295.336 253.347 295.195 253.595 295.072 253.877L294.896 254.23C294.878 254.283 294.825 254.354 294.79 254.46C294.667 254.742 294.491 255.007 294.35 255.254C294.015 255.731 293.715 256.19 293.398 256.614C293.116 257.02 292.799 257.356 292.517 257.673C292.217 257.956 292.006 258.239 291.759 258.451C291.53 258.698 291.354 258.874 291.195 258.998C291.054 259.157 290.931 259.263 290.843 259.351C289.714 259.741 288.761 260.13 288.003 260.466C287.244 260.802 286.592 261.085 286.028 261.368C285.463 261.651 284.916 261.881 284.211 262.146C283.505 262.412 282.694 262.73 281.406 263.155L282.712 262.765C282.271 262.942 281.477 263.208 280.472 263.579C280.066 263.739 279.643 263.863 279.166 264.057C279.061 264.11 278.937 264.128 278.831 264.181C278.849 264.305 278.92 264.446 278.973 264.551C279.132 264.781 279.397 264.957 279.697 265.115C280.279 265.397 280.985 265.485 281.656 265.59C282.362 265.677 283.068 265.765 283.774 265.852C285.185 266.027 286.579 266.079 287.85 266.148C290.55 266.251 292.596 266.108 293.25 266.354L292.597 266.725C292.721 266.884 292.862 266.99 293.039 267.078C293.197 267.13 293.374 267.13 293.568 267.077C293.921 266.989 294.344 266.776 294.75 266.441C295.543 265.822 296.424 264.939 297.306 264.409C296.936 265.08 296.725 265.627 296.637 266.068C296.567 266.545 296.603 266.88 296.797 267.18C297.115 267.726 297.839 267.849 298.298 267.796L298.403 267.302C298.703 267.284 299.073 267.318 299.585 267.371C300.062 267.441 300.626 267.423 301.297 267.44C301.932 267.386 302.691 267.315 303.449 267.155C303.802 267.067 304.19 266.96 304.578 266.854C304.966 266.748 305.319 266.571 305.601 266.429L305.036 265.565C305.124 265.565 305.177 265.583 305.247 265.548L305.371 265.53L305.406 265.512L305.441 265.494C305.441 265.494 305.477 265.477 305.512 265.459C305.918 265.3 306.306 265.105 306.711 264.946C307.54 264.575 308.404 264.097 309.304 263.602C310.203 263.107 311.103 262.612 312.002 262.029C312.901 261.446 313.836 260.845 314.735 260.262C315.634 259.679 316.551 259.042 317.397 258.442C318.244 257.841 319.108 257.275 319.884 256.71C321.453 255.614 322.811 254.625 323.798 253.953C328.135 250.631 333.565 245.967 339.983 241.161C340.794 240.578 341.587 239.96 342.434 239.359C343.28 238.758 344.144 238.193 344.99 237.592C345.837 236.991 346.701 236.425 347.6 235.842C348.499 235.259 349.416 234.711 350.316 234.128L351.709 233.297C352.149 233.032 352.626 232.749 353.119 232.501C354.089 231.971 355.024 231.458 356.012 230.963C356.505 230.716 356.964 230.486 357.44 230.203C357.899 229.973 358.428 229.708 359.027 229.407C360.209 228.859 361.602 228.205 363.207 227.621C363.207 227.621 363.437 227.462 363.807 227.232C364.177 227.002 364.741 226.631 365.394 226.26C366.734 225.5 368.639 224.545 370.597 223.873C372.572 223.147 374.601 222.704 375.995 222.491C376.7 222.402 377.318 222.313 377.688 222.259C377.9 222.242 378.059 222.206 378.147 222.206C378.235 222.206 378.324 222.206 378.324 222.206C378.324 222.206 378.465 222.223 378.641 222.311C378.853 222.382 379.1 222.434 379.365 222.522C379.63 222.61 379.859 222.716 380.053 222.751C380.23 222.839 380.336 222.874 380.336 222.874C380.336 222.874 380.424 223.051 380.583 223.368C380.742 223.686 380.937 224.162 381.185 224.744C381.397 225.343 381.698 226.12 381.946 226.966C382.07 227.39 382.229 227.883 382.335 228.36C382.459 228.871 382.548 229.401 382.655 229.965C383.063 232.188 383.313 234.887 383.228 237.887C383.246 238.275 383.211 238.646 383.229 239.034C383.211 239.44 383.177 239.811 383.195 240.199C383.16 241.01 383.126 241.822 383.109 242.581C382.987 244.187 382.883 245.828 382.796 247.504C382.868 248.263 382.939 249.022 382.975 249.798C382.993 250.186 383.011 250.574 383.029 250.962L383.047 251.262L383.048 251.439C383.065 251.562 383.065 251.651 383.083 251.774C383.155 252.709 383.156 253.591 383.086 254.509C383.016 255.427 382.876 256.291 382.648 257.156C382.577 257.368 382.507 257.58 382.437 257.792C382.401 257.898 382.366 258.003 382.331 258.109C382.331 258.198 382.331 258.286 382.331 258.374C382.349 258.674 382.332 258.992 382.332 259.345C382.333 259.962 382.281 260.562 382.246 261.109C382.158 261.639 382.071 262.168 381.912 262.645C381.613 263.633 381.173 264.516 380.786 265.328L380.999 266.369C380.999 266.369 380.787 266.298 380.593 266.263C380.398 266.228 380.187 266.246 380.187 266.246C380.01 266.423 379.834 266.511 379.64 266.564L379.605 266.582C379.605 266.582 379.552 266.564 379.517 266.582L379.464 266.564C379.428 266.582 379.428 266.582 379.375 266.564C379.34 266.582 379.287 266.565 379.252 266.582C379.128 266.6 379.058 266.635 378.952 266.688C378.846 266.741 378.776 266.777 378.705 266.812C378.617 266.9 378.6 267.042 378.794 267.253C378.794 267.253 379.005 267.147 379.27 266.97C379.517 266.847 379.711 266.705 379.676 266.723C379.781 266.67 379.958 266.581 380.028 266.546C380.134 266.493 380.222 266.493 380.222 266.493C379.817 266.74 379.852 266.987 380.047 267.199C380.188 267.393 380.523 267.622 380.7 267.886C380.559 267.957 380.471 268.045 380.365 268.187C380.348 268.24 380.312 268.257 380.33 268.293C380.348 268.328 380.383 268.31 380.365 268.363C380.348 268.416 380.348 268.416 380.33 268.469C380.313 268.522 380.295 268.575 380.242 268.646C379.977 268.558 379.995 268.417 380.101 268.275C380.118 268.222 380.171 268.152 380.189 268.099C380.206 268.046 380.224 267.993 380.188 267.922C380.118 267.869 379.906 267.799 379.536 267.852C379.412 267.87 379.324 267.87 379.218 267.923C379.095 267.941 378.989 267.994 378.83 268.03C378.53 268.136 378.195 268.26 377.895 268.366C376.625 268.826 375.338 269.427 374.315 270.293C370.753 272.608 374.97 271.863 370.861 274.584C365.448 278.313 359.912 282.501 354.111 286.953C348.293 291.37 342.157 296.035 335.404 300.612L332.812 302.309L331.525 303.175C331.102 303.475 330.661 303.74 330.185 304.023L328.844 304.872L326.605 306.215L325.459 306.922L324.295 307.594C323.537 308.018 322.743 308.46 321.967 308.849C320.397 309.68 318.846 310.458 317.276 311.289L314.93 312.509L313.731 313.11C313.343 313.304 312.938 313.464 312.532 313.623C310.927 314.295 309.357 314.949 307.752 315.622L305.336 316.612L304.136 317.125L302.919 317.515C301.332 318.046 299.727 318.541 298.139 319.072L295.74 319.834C295.352 319.94 294.946 320.099 294.558 320.205L293.376 320.489C291.789 320.844 290.219 321.233 288.631 321.588L286.267 322.155C285.861 322.226 285.491 322.368 285.068 322.403L283.921 322.581C282.368 322.83 280.816 323.078 279.299 323.309L278.152 323.487C277.781 323.54 277.376 323.611 276.987 323.629L274.711 323.843C273.194 323.986 271.677 324.129 270.195 324.254C269.824 324.307 269.436 324.325 269.083 324.326L267.989 324.344L265.784 324.435C264.461 324.966 265.749 324.894 267.002 325.016C265.237 325.018 263.49 325.055 261.779 325.074C260.12 325.023 258.426 324.99 256.821 324.956C256.009 324.921 255.18 324.94 254.368 324.906C253.591 324.853 252.815 324.801 252.003 324.767C250.45 324.663 248.862 324.576 247.345 324.454C245.845 324.279 244.362 324.14 242.862 323.965C242.121 323.895 241.362 323.79 240.656 323.702C239.933 323.579 239.227 323.492 238.503 323.369C237.074 323.159 235.68 322.931 234.232 322.686C232.821 322.422 231.479 322.124 230.103 321.843C226.45 321.776 224.986 322.113 223.592 322.326C224.051 322.273 222.798 321.886 220.38 321.288C219.179 321.007 217.732 320.585 216.055 320.146C215.208 319.953 214.326 319.689 213.373 319.461C212.455 319.214 211.431 318.933 210.425 318.687C209.896 318.511 209.384 318.371 208.854 318.195C208.589 318.107 208.325 318.019 208.025 317.949C207.76 317.861 207.46 317.79 207.23 317.685C206.224 317.262 205.183 316.858 204.123 316.418C201.829 315.626 200.134 314.445 198.192 313.389L197.468 313.001C197.221 312.86 197.062 312.719 196.85 312.561L195.649 311.662C195.243 311.38 194.854 311.045 194.448 310.764L193.865 310.305C193.653 310.147 193.459 310.023 193.283 309.847C192.611 309.213 191.993 308.596 191.34 307.996C191.004 307.679 190.721 307.38 190.404 307.098C190.245 306.957 190.121 306.798 189.997 306.639C189.874 306.481 189.75 306.322 189.626 306.163C189.149 305.564 188.637 304.982 188.177 304.418C187.948 304.136 187.718 303.854 187.506 303.607C187.329 303.342 187.1 303.06 186.923 302.796C186.181 301.667 185.491 300.556 184.943 299.463C184.395 298.369 183.9 297.294 183.599 296.518C183.528 295.494 183.351 294.965 183.315 294.895Z" fill="#69DDCB"/>
<g clip-path="url(#clip1)">
<path d="M332.853 139.066C332.353 137.417 331.953 135.717 331.028 134.217C327.929 129.218 321.854 126.969 316.254 128.818C310.505 130.718 307.055 136.067 307.605 142.291C308.08 147.74 312.63 152.414 318.304 153.263C325.004 154.288 331.428 149.689 332.628 143.016C332.678 142.791 332.778 142.566 332.853 142.316C332.853 141.241 332.853 140.141 332.853 139.066Z" fill="#00B1B1"/>
<path d="M0 192.48C1.32491 194.68 2.19985 197.105 3.27478 199.429C7.97446 209.802 12.6492 220.175 17.2738 230.573C17.6988 231.523 18.0988 231.922 19.0237 231.223C19.2237 231.073 19.4737 230.973 19.6987 230.923C20.4736 230.698 20.6236 230.373 20.2487 229.548C14.474 216.876 8.72443 204.203 2.97481 191.531C2.74982 191.056 2.52483 190.581 2.74982 189.981C1.24992 190.131 0.674955 191.256 0 192.206C0 192.33 0 192.405 0 192.48Z" fill="#FEBD00"/>
<path d="M324.779 202.454C324.879 202.304 324.954 202.179 325.054 202.029C325.654 201.179 326.879 200.504 326.779 199.579C326.704 198.754 325.654 198.004 325.004 197.23C319.404 190.556 313.679 184.007 307.405 177.958C304.48 175.134 301.33 172.66 297.68 170.835C294.906 169.435 292.181 167.911 289.456 166.436C288.481 167.336 287.206 167.511 286.031 167.836C276.082 170.535 266.108 173.234 256.158 175.984C254.983 176.309 254.133 176.159 253.208 175.359C247.984 170.91 242.709 166.511 237.434 162.137C235.735 160.737 234.06 159.312 232.385 157.863C232.16 157.663 231.935 157.488 231.635 157.463C230.21 157.988 228.685 157.838 227.235 157.988C217.386 159.112 207.661 160.962 197.987 163.161C197.962 163.161 197.912 163.211 197.887 163.236C197.662 164.111 197.837 164.986 197.837 165.836C197.812 175.184 197.837 184.532 197.837 193.88C197.837 194.58 197.787 195.305 197.912 195.98C198.437 197.38 199.537 196.43 200.462 196.605C200.312 196.93 200.012 197.13 199.787 197.38C194.912 202.404 189.763 207.103 184.238 211.402C182.838 212.502 181.338 213.451 179.913 214.551C182.638 220.45 185.238 226.374 187.913 232.298C190.662 238.371 193.362 244.445 196.087 250.519C198.862 256.718 201.637 262.891 204.412 269.09C207.861 276.813 211.336 284.487 214.786 292.21C215.311 293.385 215.686 294.61 216.511 295.635C232.535 288.436 247.334 279.363 259.708 266.691C259.683 266.091 259.158 266.016 258.783 265.816C255.958 264.141 253.258 262.291 250.709 260.192C250.009 259.617 249.509 258.967 249.509 258.017C249.134 257.267 248.584 256.643 248.084 255.968C242.909 249.069 240.434 241.321 240.309 232.722C240.209 227.548 240.959 222.524 242.734 217.675C242.884 217.251 243.084 216.801 242.709 216.376C241.834 215.926 242.9 216.751 242 216.376C237.7 214.676 241.25 215.999 244 212.5C245.35 210.775 242.325 209.475 244.5 209.5C250.5 209.55 254.258 202.753 260.258 203.053C260.508 203.053 260.758 203.103 261.008 203.103C267.257 202.928 273.507 203.328 279.732 203.403C287.506 203.503 286.701 210.425 294.5 210.5C296.1 210.525 294.125 211.1 295.5 212C297.75 213.45 298.275 211.927 298 214.551C297.725 217.101 303.775 218.975 301.5 220C296.545 220.7 304.805 217.201 303.93 217.351C303.455 217.451 302.905 217.5 302.755 218.125C302.68 219.025 303.055 219.85 303.305 220.675C303.905 222.674 303.955 224.774 304.68 226.724C305.68 226.899 305.755 225.849 306.33 225.474C306.655 225.124 306.905 224.724 307.205 224.374C311.88 218.675 316.529 212.976 321.179 207.278C322.154 206.078 323.104 204.878 324.104 203.703C324.429 203.303 324.729 202.953 324.779 202.454Z" fill="#FE0E11"/>
<path d="M273.582 130.668C278.557 127.044 279.557 121.87 279.257 116.196C279.057 112.597 277.157 109.947 274.207 108.198C267.182 104.048 259.708 103.299 252.033 106.048C248.559 107.298 246.634 109.922 246.809 112.772C247.034 116.046 248.509 118.645 251.458 120.245C251.883 120.495 252.333 120.695 252.783 120.92C253.108 121.395 253.658 121.495 254.133 121.67C258.433 122.345 261.958 122.22 269.382 120.07C269.682 122.92 269.757 125.794 270.407 128.593C270.632 129.518 270.732 130.518 271.707 131.043C272.407 131.293 273.007 130.968 273.582 130.668Z" fill="#FEBD00"/>
<path d="M175.564 217.526C180.463 228.073 185.338 238.621 190.063 249.244C197.012 264.841 203.762 280.513 210.411 296.235C210.711 296.959 210.736 297.559 210.286 298.209C212.086 297.584 213.836 296.859 215.511 296.01C215.161 294.16 214.136 292.56 213.386 290.886C209.936 283.037 206.411 275.239 202.887 267.44C199.387 259.667 195.887 251.894 192.412 244.12C188.663 235.772 184.913 227.424 181.188 219.075C180.638 217.825 180.238 216.501 179.313 215.451C177.763 215.576 176.588 216.451 175.564 217.526Z" fill="#FE0E11"/>
<path d="M23.8984 207.052C23.6984 206.628 23.4984 206.203 23.2985 205.753C22.2985 202.703 19.3487 201.654 17.1489 199.504C16.8239 201.004 16.5739 202.278 16.2989 203.553C16.2239 203.928 16.4239 204.178 16.6239 204.453C17.0239 205.028 17.2239 205.653 16.7739 206.303C16.3239 206.952 15.649 207.152 14.899 207.102C13.8991 207.052 13.0491 206.178 12.9741 205.128C12.8742 204.028 13.3991 203.353 14.499 203.253C14.949 203.203 15.049 202.978 15.099 202.628C15.224 201.929 15.399 201.254 15.524 200.554C15.9489 198.279 15.9239 198.229 13.6491 196.98C13.3491 198.429 13.0491 199.829 12.7991 201.229C12.6992 201.729 12.5242 202.203 11.9742 202.128C11.3493 202.028 11.3493 201.504 11.4742 200.954C11.7992 199.479 12.0242 198.004 12.3492 196.555C12.4492 196.155 12.4992 195.88 12.1242 195.605C9.77435 193.88 7.52449 192.031 5.02465 190.506C4.77467 190.356 4.4747 190.081 3.99973 190.331C4.32471 191.031 4.62467 191.731 4.94965 192.43C10.4743 204.628 16.0239 216.8 21.5236 228.998C21.8486 229.723 22.0985 229.848 22.8235 229.498C25.5483 228.173 28.2981 226.898 31.073 225.649C31.8479 225.299 32.0479 225.024 31.3229 224.374C28.2231 221.5 24.7234 219.925 20.3987 220.9C19.8987 221 19.3237 221.15 19.1487 220.5C18.9737 219.8 19.5987 219.675 20.0737 219.575C23.0985 218.8 25.9233 219.4 28.6481 220.775C29.1731 221.025 29.673 221.35 30.423 221.774C28.1231 216.726 25.9983 211.876 23.8984 207.052Z" fill="#FEBD00"/>
<path d="M28.8981 326.478C28.4232 326.453 27.9482 326.453 27.4982 326.428C26.3483 326.578 25.1234 326.153 24.0235 326.578C22.2486 327.278 20.5737 328.153 18.7238 329.028C19.9987 329.953 21.1486 330.778 22.2986 331.602C22.5236 331.777 22.7486 331.877 23.0985 331.802C24.2985 331.527 24.8234 332.327 25.2734 333.227C25.5984 333.902 25.5484 334.552 24.9734 335.052C24.1485 335.727 23.1985 335.677 22.2736 335.227C21.6986 334.952 21.2986 334.427 21.4986 333.802C21.8236 332.827 21.1986 332.477 20.5737 332.052C19.9237 331.602 19.2738 331.152 18.6488 330.678C17.0989 329.578 17.0989 329.578 15.324 330.853C16.449 331.652 17.5489 332.452 18.6488 333.252C19.0488 333.552 19.5488 333.902 19.1488 334.452C18.7488 335.027 18.2739 334.652 17.8489 334.352C16.699 333.527 15.549 332.702 14.3991 331.877C14.0741 331.652 13.7991 331.352 13.2992 331.602C10.6743 332.927 7.97454 334.152 5.47471 335.727C5.14973 335.926 4.84974 336.151 4.64975 336.626C6.39963 336.726 8.12453 336.826 9.84941 336.901C17.9489 337.276 26.0483 337.626 34.1728 338.001C34.8977 338.026 35.4227 337.851 35.9227 337.326C39.2724 333.702 43.2222 331.327 48.3218 331.252C48.5218 331.252 48.7718 331.202 48.8968 331.077C49.2468 330.678 48.5468 327.803 48.0718 327.528C47.5969 327.503 47.1219 327.478 46.622 327.453C45.472 326.828 44.1721 327.003 42.9722 326.953C38.7975 326.803 34.6227 326.378 30.423 326.353C29.8731 326.328 29.3731 326.353 28.8981 326.478Z" fill="#FEBD00"/>
<path d="M290.181 284.587C290.131 285.037 290.056 285.512 290.006 285.962C291.256 285.962 292.431 285.462 293.856 285.162C293.481 285.787 293.181 286.261 292.881 286.736C290.756 290.061 288.656 293.41 287.056 297.034C286.606 298.059 286.231 299.109 286.081 300.234C285.981 300.958 286.006 301.708 286.731 302.108C287.381 302.458 288.031 302.158 288.581 301.733C289.956 300.684 290.931 299.284 291.931 297.884C292.056 297.734 292.181 297.584 292.331 297.359C292.781 299.509 293.106 299.759 295.156 299.584C295.406 299.559 295.481 299.609 295.631 299.784C297.406 301.858 298.056 301.833 299.905 299.484C299.905 300.584 299.955 301.658 301.23 301.808C302.455 301.958 303.155 301.158 303.655 300.209C304.83 297.959 305.555 295.51 306.38 293.135C307.58 289.636 309.405 286.561 311.78 283.712C321.179 272.414 330.403 260.967 338.678 248.819C341.653 244.445 344.427 239.971 346.702 235.197C347.902 232.672 347.727 230.323 346.577 227.898C344.952 224.499 342.728 221.475 340.328 218.6C335.528 212.826 330.253 207.502 324.729 202.428C324.454 202.778 324.179 203.128 323.904 203.478C323.804 204.028 324.254 204.278 324.579 204.578C330.803 210.427 336.853 216.451 341.953 223.349C343.353 225.249 344.702 227.223 345.502 229.498C346.027 230.973 346.002 232.422 345.402 233.872C343.853 237.621 341.753 241.071 339.553 244.47C334.003 253.043 327.779 261.142 321.454 269.14C316.979 274.789 312.38 280.338 307.855 285.937C306.58 287.511 306.055 289.411 305.33 291.21C304.38 293.56 303.58 295.984 302.705 298.359C302.505 298.909 302.28 299.409 301.68 299.984C301.78 298.534 302.155 297.384 302.605 296.234C302.93 295.385 303.255 294.51 303.555 293.66C303.78 293.01 303.93 292.26 303.155 291.91C302.405 291.535 302.005 292.185 301.68 292.735C300.68 294.41 299.755 296.134 298.805 297.859C298.655 298.159 298.505 298.459 298.33 298.734C298.155 298.984 298.006 299.459 297.606 299.234C297.231 299.034 297.456 298.634 297.581 298.334C298.28 296.634 299.055 294.985 299.705 293.26C299.83 292.91 300.005 292.56 300.105 292.21C300.305 291.56 300.58 290.861 299.78 290.436C298.955 290.011 298.555 290.686 298.205 291.235C297.356 292.61 296.481 293.985 295.756 295.46C295.381 296.209 295.081 296.984 294.506 297.784C294.156 297.159 294.331 296.609 294.481 296.084C295.006 294.36 295.781 292.76 296.556 291.135C296.656 290.911 296.806 290.711 296.906 290.486C297.181 289.861 297.506 289.186 296.681 288.736C295.881 288.311 295.456 288.936 295.106 289.536C293.331 292.71 291.531 295.835 289.281 298.684C288.881 299.209 288.506 299.759 287.781 300.134C287.856 299.034 288.356 298.184 288.756 297.334C290.706 293.26 293.131 289.486 295.581 285.712C296.056 284.987 297.081 284.262 296.356 283.312C295.581 282.262 294.606 283.187 293.731 283.412C292.806 283.662 291.906 283.987 290.956 284.187C290.706 284.212 290.306 284.162 290.181 284.587Z" fill="black"/>
<path d="M114.442 130.693C106.493 135.667 98.6436 140.566 90.6691 145.54C94.8438 148.389 99.0685 150.739 104.118 150.889C109.943 151.064 113.793 147.939 115.042 142.241C115.917 138.366 115.442 134.567 114.442 130.693Z" fill="#FE0E11"/>
<path d="M288.506 165.986C286.681 164.986 284.831 163.986 283.006 162.962C282.282 162.537 281.657 163.161 280.982 163.062C280.357 163.012 279.732 163.062 279.157 163.286C271.882 165.211 264.583 167.111 257.308 169.085C256.558 169.285 255.958 169.16 255.333 168.71C250.709 165.236 246.009 161.862 241.384 158.412C240.909 158.163 240.559 157.638 239.909 157.763C237.859 157.588 235.785 157.438 233.71 157.588C233.66 158.262 234.185 158.512 234.585 158.837C240.934 164.111 247.234 169.41 253.533 174.709C254.308 175.359 255.083 175.559 256.058 175.284C264.433 172.96 272.857 170.685 281.232 168.41C283.281 167.861 285.331 167.336 287.381 166.711C287.831 166.536 288.331 166.486 288.506 165.986Z" fill="#FE0E11"/>
<path d="M239.909 157.737C240.334 158.037 240.784 158.312 241.209 158.612C241.634 158.737 242.009 158.687 242.434 158.512C244.584 157.712 246.634 156.688 248.659 155.613C250.559 154.613 251.684 152.938 252.808 151.239C253.708 149.864 253.708 149.914 255.183 150.589C259.483 152.589 263.608 152.389 267.382 149.439C269.382 147.889 270.557 145.765 270.782 143.49C270.882 147.864 271.607 152.464 272.482 157.063C272.657 157.987 273.157 158.762 273.832 159.412C275.457 161.012 276.982 162.736 279.207 163.511C279.832 163.461 280.432 163.336 281.007 163.036C279.907 162.237 278.807 161.412 277.682 160.637C275.307 159.012 273.932 156.963 273.607 153.913C273.082 149.014 272.232 144.14 272.507 139.166C272.557 138.366 272.707 137.717 273.382 137.117C274.682 135.967 274.807 134.317 273.757 132.992C273.107 132.168 273.607 131.443 273.607 130.643C273.057 130.468 272.582 130.693 272.107 130.893C271.707 130.993 271.582 131.393 271.282 131.643C270.032 132.668 270.082 133.042 271.557 133.617C272.157 133.842 272.582 134.142 272.582 134.867C272.557 135.792 271.782 136.367 270.882 136.142C270.307 135.992 269.657 135.517 269.207 136.242C268.757 136.967 269.257 137.492 269.707 137.991C270.032 138.341 270.007 138.741 269.932 139.166C269.557 141.041 269.157 142.915 268.382 144.69C266.308 149.439 260.958 151.189 256.058 148.764C252.058 146.79 250.509 143.54 251.159 138.591C251.833 133.392 252.858 128.243 254.058 123.144C254.208 122.545 254.458 121.945 254.133 121.32C253.683 121.195 253.258 121.07 252.808 120.92C252.533 122.17 252.233 123.419 251.958 124.694C251.709 125.844 251.559 126.894 250.234 127.569C248.934 128.243 248.759 130.393 249.734 131.693C250.284 132.418 250.259 133.067 250.134 133.867C249.709 136.792 248.984 139.666 249.409 142.666C249.684 144.665 250.509 146.44 251.933 147.839C252.533 148.439 252.358 148.789 252.033 149.414C250.359 152.539 247.809 154.588 244.534 155.813C242.959 156.413 241.434 157.088 239.909 157.737Z" fill="black"/>
<path d="M192.462 194.255C192.462 194.73 192.462 195.205 192.462 195.68C191.912 197.079 192.237 197.554 193.687 197.404C194.912 197.279 196.162 197.354 197.287 196.73C197.512 195.955 197.362 195.155 197.362 194.38C197.387 187.881 197.312 181.408 197.387 174.909C197.437 171.285 196.912 167.685 197.137 164.061C197.162 163.811 197.112 163.561 196.962 163.361C196.062 163.561 195.187 163.861 194.287 163.961C193.087 164.086 192.487 164.586 192.662 165.836C192.662 166.311 192.662 166.786 192.662 167.261C192.212 167.835 192.312 168.535 192.312 169.185C192.312 173.634 192.262 178.083 192.312 182.532C192.362 185.832 191.887 189.081 192.037 192.38C192.112 193.005 192.012 193.68 192.462 194.255Z" fill="#FE0E11"/>
<path d="M4.07476 337.551C3.82478 339.951 4.64972 340.901 6.94957 341.026C19.6237 341.65 32.3229 342.3 44.9971 342.925C46.247 342.975 47.4969 342.975 48.7468 343.025C49.4218 343.05 49.7217 342.925 49.6467 342.125C49.4718 340.026 49.4968 340.051 47.3719 339.976C37.2976 339.526 27.2482 339.026 17.1739 338.576C13.2992 338.401 9.4494 338.226 5.57466 338.051C5.0247 337.976 4.49973 338.026 4.07476 337.551Z" fill="#FEBD00"/>
<path d="M179.188 215.426C187.388 233.672 195.562 251.918 203.762 270.14C207.461 278.363 211.136 286.611 214.836 294.835C215.011 295.235 215.286 295.61 215.536 296.009C215.936 296.059 216.286 295.959 216.536 295.61C216.386 295.185 216.286 294.735 216.111 294.31C204.387 268.14 192.637 241.97 180.913 215.826C180.713 215.376 180.613 214.851 180.088 214.626C179.288 214.351 179.113 214.526 179.188 215.426Z" fill="#010000"/>
<path d="M382 227.573C377.775 226.698 373.676 225.824 369.576 224.999C368.826 224.849 368.501 225.049 368.701 225.924C369.526 229.798 370.301 233.672 371.126 237.546C371.201 237.921 371.251 238.671 371.926 237.971C375.25 234.547 378.85 231.322 382 227.573Z" fill="#FED1E0"/>
<path d="M288.506 165.986C283.456 167.386 278.432 168.785 273.382 170.185C267.583 171.785 261.758 173.334 255.958 174.959C255.058 175.209 254.458 175.059 253.733 174.434C247.334 169.035 240.909 163.686 234.51 158.313C234.235 158.063 233.96 157.813 233.71 157.538C233.41 157.313 233.135 157.088 232.81 156.888C232.16 156.488 231.71 156.563 231.635 157.413C231.785 157.888 232.21 158.113 232.56 158.412C239.584 164.286 246.609 170.16 253.608 176.034C254.158 176.509 254.633 176.684 255.408 176.484C266.383 173.459 277.357 170.485 288.331 167.486C288.931 167.336 289.481 167.186 289.456 166.411C289.206 166.136 288.906 165.961 288.506 165.986Z" fill="#010000"/>
<path d="M37.0725 338.101C39.4224 338.226 41.5223 338.326 43.6221 338.426C45.272 338.501 46.9469 338.576 48.5968 338.676C49.1218 338.701 49.4468 338.701 49.3718 337.976C49.1968 336.401 49.1468 334.827 48.9968 333.252C48.9718 332.977 49.1218 332.577 48.5468 332.602C43.9721 332.627 40.2973 334.577 37.0725 338.101Z" fill="#FEBD00"/>
<path d="M196.987 163.361C196.612 165.136 196.837 166.911 196.837 168.685C196.862 177.484 196.912 186.282 196.987 195.08C196.987 195.605 196.862 196.155 197.237 196.63C197.662 197.105 197.987 196.905 198.262 196.455C198.287 194.83 198.312 193.205 198.312 191.581C198.287 182.682 198.262 173.784 198.237 164.861C198.237 164.286 198.337 163.686 197.912 163.186C197.562 163.161 197.262 163.186 196.987 163.361Z" fill="black"/>
<path d="M263.233 268.215C265.133 268.69 266.982 269.265 268.982 269.215C269.482 269.19 269.932 269.09 269.932 268.49C269.932 267.965 269.507 267.815 269.057 267.815C264.308 267.815 260.383 265.566 256.533 263.116C254.483 261.816 252.583 260.342 250.759 258.792C250.384 258.467 250.009 258.092 249.459 258.242C248.884 258.992 249.384 259.417 249.909 259.892C252.933 262.516 256.233 264.716 259.708 266.69C260.883 267.19 262.058 267.715 263.233 268.215Z" fill="#020100"/>
<path d="M161.289 100.724C160.915 100.699 160.69 100.974 160.465 101.199C159.115 102.599 157.74 103.998 156.39 105.398C156.015 105.773 155.665 106.198 156.165 106.673C156.615 107.073 156.99 106.723 157.34 106.373C158.74 104.948 160.115 103.523 161.514 102.074C161.764 101.799 162.064 101.524 161.864 101.099C161.764 100.874 161.589 100.724 161.289 100.724Z" fill="#030303"/>
<path d="M151.465 102.749C151.44 102.999 151.565 103.348 151.99 103.448C152.515 103.573 152.74 103.223 152.84 102.774C153.215 100.824 153.615 98.8744 153.965 96.9248C154.04 96.4998 153.965 96.0749 153.415 95.975C152.965 95.9 152.74 96.1749 152.64 96.5998C152.265 98.6244 151.89 100.599 151.465 102.749Z" fill="#030303"/>
<path d="M159.49 111.822C161.339 111.497 163.164 111.147 165.014 110.822C165.514 110.722 165.914 110.522 165.814 109.922C165.714 109.372 165.264 109.397 164.814 109.472C162.964 109.797 161.139 110.097 159.29 110.422C158.79 110.497 158.365 110.672 158.49 111.297C158.59 111.847 159.065 111.797 159.49 111.822Z" fill="#030303"/>
<path d="M22.8234 333.702C22.8484 334.077 23.1234 334.152 23.3984 334.177C23.6984 334.202 24.0234 334.177 23.9984 333.752C23.9734 333.452 23.8234 333.177 23.4734 333.177C23.1234 333.177 22.9484 333.402 22.8234 333.702Z" fill="#FEC51F"/>
<path d="M14.2991 205.078C14.449 205.428 14.599 205.753 15.074 205.728C15.324 205.703 15.6239 205.678 15.499 205.328C15.374 204.953 15.049 204.728 14.674 204.703C14.4241 204.703 14.2741 204.828 14.2991 205.078Z" fill="#FEC214"/>
<path d="M20.2987 309.207C26.7733 295.385 33.3728 281.588 40.3474 267.99C47.0719 254.868 53.8215 241.746 62.146 229.523C62.1709 229.473 62.146 229.373 62.146 229.248C56.8713 229.648 51.5966 230.023 46.322 230.448C45.522 230.523 45.1471 230.323 44.9721 229.498C44.5971 227.848 44.0471 226.224 43.6721 224.549C43.4472 223.599 43.0972 223.199 41.9973 223.249C39.1225 223.399 36.2477 223.299 33.3728 223.424C32.2229 223.474 31.573 222.924 30.773 221.925C34.9477 221.925 38.8725 221.925 42.8972 221.925C41.3473 216.276 39.8474 210.802 38.3725 205.303C38.1475 204.478 37.6725 204.678 37.1476 204.753C32.7229 205.503 28.2982 206.253 23.8485 207.003C23.3235 206.728 23.0485 206.328 23.2485 205.703C27.7982 204.953 32.3479 204.153 36.8976 203.428C37.6476 203.303 37.7225 203.078 37.5226 202.379C36.4226 198.504 35.4227 194.605 34.3228 190.731C34.0478 189.781 34.0978 189.431 35.1727 189.156C53.8215 184.232 72.5703 179.758 91.594 176.534C100.718 174.984 109.868 173.809 119.167 174.159C128.292 174.509 137.066 176.259 145.241 180.458C148.99 182.383 152.39 184.807 155.765 187.782C154.74 185.082 153.79 182.683 152.915 180.233C147.99 166.136 144.316 151.689 140.991 137.167C139.841 132.168 138.116 127.594 135.091 123.445C134.141 122.145 133.341 120.72 132.516 119.32C132.141 118.671 131.841 117.971 131.891 117.196C131.966 115.796 133.066 115.121 134.316 115.696C134.516 115.796 134.666 116.046 134.941 115.921C134.466 113.197 134.566 113.072 137.516 112.697C137.791 112.672 137.816 112.572 137.916 112.372C138.841 110.622 140.016 110.422 141.441 111.822C142.141 112.497 142.691 113.297 143.441 114.171C143.441 112.822 143.366 111.622 143.641 110.447C144.166 108.198 145.215 107.173 147.49 106.823C149.165 106.573 150.815 106.823 152.39 107.373C154.565 108.123 154.79 108.473 154.965 110.747C155.315 115.696 155.39 120.645 155.915 125.569C156.365 129.693 156.74 133.867 158.19 137.792C162.264 148.764 167.839 159.012 173.889 169.01C174.189 169.51 174.464 169.685 175.089 169.56C180.938 168.261 186.763 166.986 192.612 165.686C193.062 166.111 192.987 166.586 192.787 167.086C192.512 167.436 192.087 167.536 191.687 167.636C186.238 168.835 180.788 170.06 175.339 171.21C173.739 171.535 173.389 171.385 172.564 170.035C167.639 161.987 163.139 153.738 159.315 145.115C156.915 139.666 155.015 134.117 154.49 128.144C154.065 123.295 153.565 118.446 153.565 113.397C152.94 115.546 152.34 117.521 151.915 119.545C151.715 120.47 151.59 121.445 151.315 122.345C151.19 122.795 150.94 123.22 150.415 123.27C149.84 123.345 149.49 122.97 149.24 122.495C149.165 122.345 149.09 122.195 149.04 122.045C148.115 119.695 147.59 117.271 147.415 114.746C147.14 110.997 148.515 109.647 152.24 109.822C152.49 109.822 152.84 109.997 152.99 109.447C151.64 108.623 150.14 108.423 148.59 108.448C146.215 108.473 145.365 109.347 145.265 111.672C145.165 113.847 145.415 115.996 145.99 118.096C146.19 118.846 146.565 119.795 145.565 120.17C144.541 120.545 144.266 119.495 143.941 118.846C143.191 117.371 142.466 115.846 141.516 114.471C141.116 113.897 140.716 113.272 139.741 112.922C140.816 115.046 141.716 116.971 142.491 118.945C142.666 119.42 142.866 119.87 142.941 120.37C142.991 120.845 142.941 121.295 142.441 121.545C141.941 121.795 141.566 121.57 141.216 121.22C140.916 120.92 140.716 120.545 140.491 120.195C139.566 118.671 138.666 117.096 137.791 115.546C137.566 115.146 137.416 114.621 136.766 114.546C136.591 115.221 136.916 115.721 137.166 116.246C138.016 118.096 138.816 119.97 139.566 121.87C139.791 122.445 139.816 123.07 139.166 123.395C138.566 123.695 138.141 123.295 137.791 122.87C137.416 122.42 137.166 121.895 136.841 121.395C135.966 120.045 135.141 118.671 133.816 117.346C133.841 118.146 134.116 118.546 134.366 118.945C135.516 120.845 136.766 122.645 137.916 124.519C139.191 126.619 140.716 128.594 141.291 131.043C141.891 133.593 142.541 136.142 143.141 138.691C146.54 152.914 150.115 167.086 155.065 180.858C156.565 185.032 157.89 189.306 161.039 192.706C162.314 194.08 163.639 194.905 165.464 195.205C169.814 195.93 174.189 195.705 178.538 195.355C182.813 195.03 187.063 194.48 191.312 193.88C191.762 193.805 192.237 193.68 192.587 194.105C192.812 194.58 192.812 195.055 192.537 195.53C191.862 196.005 191.037 195.98 190.263 196.08C185.538 196.78 180.763 197.305 175.988 197.555C173.214 197.705 170.414 197.78 167.639 197.43C166.439 197.28 165.239 197.23 164.089 196.83C164.339 196.98 164.539 197.18 164.714 197.43C165.214 198.104 165.714 198.754 166.164 199.454C169.814 205.053 172.914 210.927 175.663 217.001C177.938 221.825 180.163 226.674 182.413 231.498C185.788 238.796 189.088 246.12 192.337 253.468C196.487 262.841 200.587 272.214 204.612 281.638C206.611 286.337 208.611 291.061 210.586 295.785C210.936 296.61 211.186 297.384 210.236 297.984C208.386 300.184 205.962 301.584 203.287 302.458C189.788 306.857 176.088 308.657 162.064 305.183C161.889 305.133 161.564 305.208 161.589 304.933C161.689 303.933 160.839 303.833 160.265 303.533C159.09 302.908 157.94 302.233 156.89 301.409C151.765 297.534 148.215 292.385 145.19 286.812C139.716 276.639 136.316 265.716 133.691 254.543C133.241 252.593 132.866 250.644 132.466 248.694C132.366 248.194 132.116 247.919 131.616 248.019C131.141 248.119 131.116 248.494 131.141 248.894C131.166 249.144 131.191 249.394 131.241 249.644C133.416 260.542 136.416 271.19 140.941 281.388C143.791 287.786 147.19 293.86 152.065 299.009C154.19 301.234 156.59 303.108 159.24 304.708C158.765 304.733 158.315 304.708 157.865 304.633C149.04 303.233 140.566 300.634 132.266 297.359C115.742 290.836 100.268 282.312 85.5694 272.364C84.7445 271.815 84.4445 271.915 83.9945 272.739C80.8447 278.488 77.6449 284.212 74.4702 289.961C69.8705 298.234 65.2957 306.508 60.696 314.806C60.371 315.381 60.1461 315.806 59.2961 315.631C57.5962 315.281 55.8214 315.181 54.1215 314.856C53.2715 314.681 52.8966 314.856 52.5966 315.706C51.0967 319.58 49.5218 323.404 47.9719 327.253C47.4719 327.603 46.9969 327.603 46.572 327.103C46.322 326.453 46.672 325.879 46.8969 325.304C48.0969 322.254 49.3218 319.205 50.5467 316.156C51.0217 314.956 50.9217 314.756 49.7218 314.581C44.3721 313.856 39.0225 313.081 33.6728 312.331C32.2729 312.131 32.1479 312.231 31.8479 313.656C31.098 317.33 30.298 320.98 29.5481 324.629C29.4231 325.229 29.4231 325.879 28.8981 326.329C28.3982 326.528 27.8982 326.603 27.4482 326.154C28.4231 321.604 29.3731 317.055 30.3481 312.506C30.498 311.831 30.498 311.507 29.6231 311.407C26.7233 311.057 23.8485 310.557 20.9737 310.232C19.9487 310.382 19.8987 310.107 20.2987 309.207ZM127.217 236.147C126.817 235.047 126.517 234.147 126.142 233.247C125.092 230.623 123.992 228.023 122.767 225.499C122.692 225.324 122.292 225.124 122.642 224.849C122.667 224.849 122.667 224.849 122.692 224.849H122.667C122.467 224.849 122.292 224.824 122.092 224.849C119.717 224.974 119.692 224.974 119.267 222.6C119.017 221.2 118.792 219.825 118.767 218.4C118.767 217.9 118.667 217.426 118.067 217.426C117.442 217.426 117.417 217.95 117.417 218.425C117.442 220.425 117.717 222.4 118.267 224.324C118.467 224.999 118.317 225.174 117.642 225.224C111.668 225.649 105.693 226.074 99.7185 226.524C96.9937 226.724 94.2688 226.924 91.519 227.274C103.543 229.473 115.317 232.498 127.217 236.147Z" fill="black"/>
<path d="M122.667 224.824C123.242 224.599 123.442 224.174 123.492 223.574C123.817 220.25 124.592 217.026 125.892 213.951C126.092 213.476 126.467 212.876 125.767 212.551C125.067 212.227 124.867 212.876 124.642 213.376C123.217 216.651 122.492 220.075 122.067 223.599C121.992 224.174 122.192 224.574 122.692 224.824H122.667Z" fill="#FBFBFB"/>
<path d="M150.09 119.895C150.84 117.021 151.34 114.321 152.565 111.847C149.515 111.272 149.24 111.522 149.19 114.521C149.165 115.571 149.29 116.596 149.49 117.621C149.64 118.321 149.865 118.97 150.09 119.895Z" fill="#FCFCFC"/>
<path d="M86.1444 270.59C86.1444 270.815 86.1944 271.24 86.7693 271.265C87.2943 271.29 87.4443 270.915 87.4943 270.465C87.8193 268.015 88.8692 265.866 90.2691 263.891C90.5691 263.466 91.094 262.991 90.4191 262.516C89.7691 262.091 89.4692 262.691 89.1442 263.116C87.5443 265.241 86.0944 268.715 86.1444 270.59Z" fill="#FBFBFB"/>
<path d="M81.4697 263.916C81.4947 263.966 81.5197 264.141 81.5947 264.291C82.4446 265.791 82.7696 267.465 83.2695 269.09C83.4195 269.565 83.5445 270.165 84.2195 269.965C84.8694 269.79 84.7694 269.29 84.5944 268.74C84.0695 267.04 83.7195 265.291 82.8446 263.716C82.6196 263.316 82.4196 262.991 81.8946 263.141C81.5696 263.216 81.4197 263.466 81.4697 263.916Z" fill="#F9F9F9"/>
<path d="M306.205 225.224C310.155 228.598 314.129 231.973 318.079 235.322C318.554 235.722 318.829 236.022 318.554 236.772C314.554 246.92 310.005 256.843 304.38 266.216C300.83 272.139 296.156 277.063 290.831 281.388C290.406 281.737 290.006 282.062 289.581 282.412C289.731 282.862 289.881 283.287 290.031 283.737C298.23 277.713 304.305 269.94 308.98 260.942C313.055 253.093 316.729 245.095 319.979 236.847C320.354 235.872 320.229 235.297 319.404 234.622C315.254 231.173 311.155 227.648 307.03 224.149C306.755 224.524 306.48 224.874 306.205 225.224Z" fill="#010101"/>
<path d="M302.68 217.925C302.98 216.751 302.23 216.726 301.405 216.726C289.881 216.626 278.382 216.526 266.858 216.401C265.408 216.376 263.958 216.351 262.483 216.326C261.908 216.301 261.383 216.351 261.158 217.001C261.333 217.675 261.833 217.725 262.433 217.75C275.482 217.85 288.531 217.975 301.555 218.1C301.955 218.075 302.305 217.975 302.68 217.925Z" fill="#010100"/>
<path d="M250.934 128.743C250.384 129.218 250.409 129.793 250.534 130.468C250.934 129.893 251.059 129.393 250.934 128.743Z" fill="#C5C5C5"/>
<path d="M254.583 132.718C254.608 133.467 254.858 134.042 255.483 134.317C256.258 134.642 257.058 134.942 257.883 134.542C258.408 134.292 258.383 133.792 257.883 133.467C257.658 133.317 257.333 133.342 257.058 133.292C255.808 133.167 255.708 132.942 256.383 131.843C256.833 131.093 257.458 130.468 258.058 129.843C258.408 129.493 258.683 129.118 258.258 128.668C257.883 128.293 257.483 128.468 257.158 128.793C256.008 129.943 254.883 131.093 254.583 132.718Z" fill="#040404"/>
<path d="M261.008 129.118C261.083 129.568 261.308 129.943 261.783 129.893C262.233 129.843 262.483 129.518 262.483 129.043C262.458 128.568 262.233 128.243 261.733 128.293C261.258 128.318 261.083 128.693 261.008 129.118Z" fill="#111111"/>
<path d="M254.508 128.168C254.958 128.043 255.233 127.768 255.233 127.294C255.233 126.819 254.983 126.494 254.483 126.519C254.008 126.544 253.758 126.919 253.758 127.369C253.733 127.843 254.033 128.093 254.508 128.168Z" fill="#101010"/>
<path d="M244.135 215.302C246.997 211.557 253.861 208.231 258.096 207.565C260.912 207.095 263.715 206 266.584 206H276.523C280.159 206 283.475 207.349 287.133 207.565C288.356 207.637 290.894 207.877 292.047 208.235C292.896 208.499 293.875 208.794 294.728 209.13C296.22 209.717 297.165 211.072 298.748 211.365C300.011 211.599 300.895 212.475 301.888 213.278C303.129 214.281 304.56 214.986 305.797 216.01C306.36 216.475 307.247 218.378 307.683 218.965C308.02 219.419 307.731 218.638 308.13 219.065C308.699 219.675 309.57 221.051 309.693 221.871C309.83 222.787 310.708 223.718 311.058 224.579C311.456 225.557 311.728 226.341 312.324 227.236C312.966 228.2 313.12 229.728 313.602 230.801C314.215 232.164 313.937 233.862 313.937 235.333V239.407C313.937 243.576 313.051 247.65 311.877 251.627C310.254 257.127 307.871 262.787 304.184 267.25C300.444 271.775 294.355 273.09 289.739 276.316C285.607 279.202 281.461 279.992 276.523 279.992C272.922 279.992 269.38 280.1 265.814 279.544C260.808 278.765 256.124 277.256 251.842 274.577C249.288 272.98 247.649 270.376 245.699 268.156C243.635 265.808 242.108 263.103 240.127 260.717C238.08 258.251 237.272 254.359 237.112 251.155C236.868 246.268 237.099 241.318 237.099 236.426C237.099 232.662 237.333 228.868 238.762 225.349C240.23 221.733 241.741 218.435 244.135 215.302Z" fill="#020A13"/>
<path d="M242.301 212.171C244.828 208.881 250.89 205.96 254.63 205.374C257.117 204.962 259.593 204 262.126 204H270.904C274.115 204 277.043 205.185 280.274 205.374C281.353 205.438 283.595 205.649 284.613 205.964C285.363 206.195 286.227 206.454 286.98 206.749C288.298 207.265 289.133 208.455 290.531 208.712C291.646 208.918 292.427 209.688 293.304 210.392C294.4 211.274 295.663 211.893 296.756 212.792C297.253 213.201 298.036 214.872 298.421 215.388C298.719 215.787 298.464 215.101 298.816 215.476C299.318 216.012 300.088 217.221 300.197 217.941C300.318 218.746 301.093 219.563 301.402 220.319C301.754 221.179 301.993 221.867 302.52 222.654C303.087 223.5 303.223 224.842 303.649 225.784C304.19 226.982 303.944 228.473 303.944 229.766V233.344C303.944 237.006 303.162 240.585 302.125 244.078C300.691 248.909 298.588 253.88 295.331 257.8C292.028 261.776 286.652 262.931 282.575 265.764C278.926 268.299 275.265 268.993 270.904 268.993C267.724 268.993 264.596 269.087 261.446 268.6C257.025 267.915 252.889 266.589 249.107 264.236C246.852 262.834 245.404 260.546 243.682 258.597C241.86 256.534 240.511 254.158 238.762 252.063C236.954 249.896 236.24 246.477 236.099 243.663C235.883 239.371 236.088 235.023 236.088 230.726C236.088 227.42 236.294 224.087 237.556 220.995C238.852 217.82 240.187 214.923 242.301 212.171Z" fill="#FDFFB6" stroke="#020A13" stroke-width="4" stroke-linecap="round" stroke-linejoin="round"/>
<path d="M267.375 232.688C266.749 232.907 265.5 233.196 265.5 234.076C265.5 234.582 265.454 235.077 265.729 235.528C265.841 235.711 266.002 236.108 266.198 236.215C266.515 236.39 266.967 236.452 267.319 236.486C267.873 236.539 268.199 236.4 268.674 236.111C269.522 235.595 269.437 234.642 269.437 233.75C269.437 233.239 269.333 233.118 269.014 232.75C268.678 232.362 268.299 232.212 267.875 232" stroke="#020A13" stroke-width="4" stroke-linecap="round" stroke-linejoin="round"/>
<path d="M268.188 229C268.463 224.969 268.5 220.911 268.5 216.872C268.5 215.336 268.938 213.861 268.938 212.312" stroke="#020A13" stroke-width="4" stroke-linecap="round" stroke-linejoin="round"/>
<path d="M273 234.437C274.663 234.437 276.275 234.132 277.931 234.076C278.846 234.046 279.764 234.062 280.681 234.062C281.043 234.062 281.408 234.052 281.771 234.066C282.363 234.089 282.956 234.115 283.549 234.139C283.682 234.144 284.172 234.093 284.25 234.25" stroke="#020A13" stroke-width="4" stroke-linecap="round" stroke-linejoin="round"/>
<path d="M257.125 212.438C257.393 212.809 257.687 213.187 257.938 213.562" stroke="#020A13" stroke-width="2" stroke-linecap="round" stroke-linejoin="round"/>
<path d="M249.125 216.625C249.187 216.885 249.327 217.028 249.438 217.25" stroke="#020A13" stroke-width="2" stroke-linecap="round" stroke-linejoin="round"/>
<path d="M243.688 225.812C244.264 225.866 244.842 225.913 245.417 225.986C245.515 225.999 245.549 226.012 245.625 226.062" stroke="#020A13" stroke-width="2" stroke-linecap="round" stroke-linejoin="round"/>
<path d="M242.875 236C244.146 236 245.417 236 246.688 236" stroke="#020A13" stroke-width="2" stroke-linecap="round" stroke-linejoin="round"/>
<path d="M244.938 245.688C245.503 245.549 245.93 245.273 246.42 244.976C246.536 244.905 246.61 244.812 246.75 244.812" stroke="#020A13" stroke-width="2" stroke-linecap="round" stroke-linejoin="round"/>
<path d="M249.75 254.812C250.44 254.321 251.133 253.833 251.812 253.326C251.878 253.278 251.898 253.247 251.938 253.188" stroke="#020A13" stroke-width="2" stroke-linecap="round" stroke-linejoin="round"/>
<path d="M258.375 259.062C258.795 258.739 259.059 258.453 259.375 258.062" stroke="#020A13" stroke-width="2" stroke-linecap="round" stroke-linejoin="round"/>
<path d="M270.75 262.75C270.75 261.854 270.938 260.98 270.938 260.094C270.938 259.879 270.795 259.214 271.062 259.125" stroke="#020A13" stroke-width="2" stroke-linecap="round" stroke-linejoin="round"/>
<path d="M282.75 258.312C282.291 257.819 281.822 257.338 281.354 256.854C281.013 256.501 281.85 256.625 282.062 256.625" stroke="#020A13" stroke-width="2" stroke-linecap="round" stroke-linejoin="round"/>
<path d="M290.312 249.812C289.952 249.616 289.571 249.444 289.25 249.188" stroke="#020A13" stroke-width="2" stroke-linecap="round" stroke-linejoin="round"/>
<path d="M296.875 239.5C296.191 239.329 295.382 239.316 294.75 239" stroke="#020A13" stroke-width="2" stroke-linecap="round" stroke-linejoin="round"/>
<path d="M298.75 231.312C297.535 231.495 296.351 231.688 295.125 231.688" stroke="#020A13" stroke-width="2" stroke-linecap="round" stroke-linejoin="round"/>
<path d="M294.062 223.812C292.993 224.007 291.875 224.144 290.833 224.472C290.714 224.51 290.621 224.542 290.5 224.562" stroke="#020A13" stroke-width="2" stroke-linecap="round" stroke-linejoin="round"/>
<path d="M286.125 216.188C285.91 216.397 285.686 216.584 285.438 216.75" stroke="#020A13" stroke-width="2" stroke-linecap="round" stroke-linejoin="round"/>
<path d="M276.688 213.688C276.688 214.167 276.688 214.646 276.688 215.125" stroke="#020A13" stroke-width="2" stroke-linecap="round" stroke-linejoin="round"/>
</g>
<defs>
<clipPath id="clip0">
<rect width="27" height="15" fill="white" transform="translate(303.986 29) rotate(53.0411)"/>
</clipPath>
<clipPath id="clip1">
<rect width="382" height="247" fill="white" transform="matrix(-1 0 0 1 382 96)"/>
</clipPath>
</defs>
</svg>
