<svg width="109" height="85" viewBox="0 0 109 85" fill="none" xmlns="http://www.w3.org/2000/svg">
<path d="M46.4252 31.4128C48.8039 31.726 51.2005 31.7116 53.5869 31.8759C57.0092 32.1113 60.4335 32.3292 63.833 32.8695C65.9212 33.2015 68.0361 33.297 70.1272 33.6911C75.0041 34.61 79.901 35.3971 84.7352 36.5625C88.6153 37.4981 92.5056 38.3846 96.3617 39.4227C99.7799 40.3429 103.101 41.5529 106.442 42.7067C106.911 42.8685 107.366 43.0815 107.659 43.499C107.435 43.9079 107.074 43.3291 106.869 43.6843C107.089 44.0084 107.986 43.8813 107.67 44.4264C107.412 44.8723 106.812 45.2009 106.078 45.0754C105.057 44.9005 104.214 44.3128 103.236 44.0462C98.9014 42.864 94.6016 41.5555 90.1979 40.624C87.4889 40.0514 84.794 39.3648 82.0513 39.0431C80.5308 38.8647 79.1133 38.2343 77.579 38.2184C77.2021 38.2145 76.8441 37.9813 76.449 38.313C76.3025 38.436 75.693 38.6273 75.6923 37.9382C75.6925 37.793 75.4196 37.8211 75.2554 37.7972C73.4761 37.5472 71.6964 37.0829 69.9211 37.0842C68.1927 37.0854 66.5224 36.7231 64.816 36.6338C63.6102 36.5707 62.4744 35.9246 61.215 35.9416C60.695 35.9487 60.1723 35.8336 59.6562 35.983L59.0782 35.8882C57.7757 35.5862 56.4643 35.4206 55.1303 35.5927C53.774 35.2685 52.3728 35.1854 50.9919 35.3471C49.523 35.1524 48.069 34.9051 46.5799 35.2924C45.9612 35.453 45.2625 35.3051 44.6029 35.3316C42.3548 35.4229 40.1079 35.5381 37.8595 35.6227C37.4436 35.6383 36.9908 35.7945 36.6127 35.4546C35.4603 35.2479 34.3293 35.3821 33.2056 35.6322C32.0778 35.9279 30.9108 35.7933 29.7663 35.8559C28.2907 35.9365 26.8611 36.0096 25.4386 36.5183C24.2682 36.9368 22.951 36.7867 21.7041 37.0213C18.9788 37.5336 16.1761 37.9056 13.6316 38.9111C10.8644 40.0047 7.86938 40.3368 5.19237 41.6442C4.50964 41.9778 3.92584 42.484 3.14625 42.6607C2.35249 42.8407 1.14253 42.3815 0.746284 41.4819C0.421853 40.7464 0.55798 40.0042 1.27022 39.4583C2.49018 38.5228 3.83259 37.7857 5.21642 37.1342C11.1707 34.3307 17.4969 32.71 23.9762 31.6185C30.3003 30.57 36.7036 30.0259 43.1249 29.9914C46.3971 29.9644 49.6597 30.197 52.9268 30.3636C56.2887 30.5349 59.6427 30.7517 62.9795 31.1969C65.9504 31.5934 68.9061 32.1044 71.8625 32.6021C75.3253 33.1849 78.7771 33.8135 82.1957 34.5867C90.3954 36.4416 98.561 38.4443 106.377 41.6419C106.905 41.8576 107.613 41.7771 107.935 42.4963C107.303 42.758 106.741 42.539 106.191 42.3211C102.161 40.7263 98.0315 39.4629 93.8611 38.2839C87.7144 36.5454 81.4458 35.4024 75.2146 34.0813C72.201 33.4424 69.1195 33.1412 66.0781 32.6286C62.0883 31.9563 58.0642 31.6173 54.0423 31.299C51.637 31.1084 49.2128 30.9949 46.796 31.1807C46.6204 31.1942 46.4665 31.2307 46.4311 31.4359C46.036 31.0544 45.544 31.2176 45.0954 31.2122C41.6037 31.1695 38.1183 31.2982 34.6342 31.4946C32.4475 31.6179 30.2767 31.8933 28.0953 32.0647C25.7998 32.2451 23.5216 32.7203 21.2683 33.2085C20.6302 33.3467 19.7718 33.1239 19.3352 33.8892C18.3395 33.5174 17.5613 34.1007 16.7301 34.4502C17.6168 34.344 18.5079 34.253 19.3268 33.8605C19.5569 33.8691 19.7871 33.8591 20.0152 33.8305C26.5834 32.4948 33.2297 31.7933 39.9373 31.588C42.0996 31.5207 44.2626 31.4704 46.4252 31.4128ZM8.40331 36.9597C7.79814 37.0809 7.17368 37.178 6.73322 37.6645C7.32302 37.5065 7.95822 37.4651 8.40331 36.9597Z" fill="black"/>
</svg>
