<svg width="95" height="111" viewBox="0 0 95 111" fill="none" xmlns="http://www.w3.org/2000/svg">
<g clip-path="url(#clip0)">
<path d="M78.4884 45.0087C79.8154 44.8272 81.0413 44.634 82.2742 44.5073C82.6177 44.472 83.2125 44.294 83.2812 44.7618C83.3568 45.2769 82.7438 45.395 82.3422 45.4789C80.179 45.9309 78.0044 46.3285 75.8396 46.7741C69.3045 48.1193 62.8731 49.8641 56.4724 51.7418C48.036 54.2167 39.8442 57.3857 31.584 60.3638C27.2193 61.9375 22.9286 63.7291 18.4306 64.9198C17.2135 65.2414 15.9583 65.3962 14.6996 65.3801C12.5639 65.3565 11.4771 64.0687 11.8803 61.9941C12.0939 60.8956 12.2209 59.7531 13.0552 58.878C13.5123 58.3983 13.9354 58.0362 14.566 58.6717C15.1008 59.2109 15.7638 59.0774 16.4829 59.0765C19.0667 59.0733 21.3923 57.9312 23.4972 56.8819C26.185 55.5417 28.9667 54.3811 31.6926 53.1762C34.8867 51.7643 38.1869 50.5118 41.4934 49.3155C45.5943 47.8312 49.823 46.7579 53.9045 45.2145C55.111 44.7584 56.471 44.2495 57.8787 44.5895C57.9004 44.5933 57.9226 44.5919 57.9437 44.5854C57.9648 44.579 57.984 44.5677 57.9999 44.5524C58.9284 43.1477 60.8934 44.5375 61.8361 43.1335C61.9348 42.9867 62.2482 42.8486 62.4061 42.8953C64.4113 43.4892 66.1696 42.1382 68.1131 42.1901C68.8117 42.2088 69.599 42.1199 70.1162 41.4484C70.2093 41.3275 70.438 41.2062 70.5702 41.236C72.3614 41.6377 74.0402 40.4166 75.8321 40.8802C75.8945 40.8997 75.9602 40.9064 76.0252 40.9C76.0903 40.8937 76.1534 40.8743 76.2109 40.843C77.5794 39.6576 79.3004 41.2341 80.7531 40.237C81.2197 39.9167 82.7399 41.5167 82.4883 42.1919C82.2275 42.8925 82.4391 42.8994 82.9573 42.9268C83.26 42.9428 83.6285 42.9517 83.6036 43.3823C83.5765 43.8478 83.1871 43.8338 82.8332 43.8839C81.5893 44.0604 80.3484 44.2588 79.1084 44.4611C78.8628 44.5008 78.5746 44.5204 78.4884 45.0087Z" fill="black"/>
<path d="M34.2906 76.4038C32.9744 76.0748 32.7481 75.3416 33.3416 73.6561C33.7164 72.5917 34.3876 71.9197 35.5807 71.5614C38.6029 70.6524 41.4782 69.3011 44.523 68.4346C45.5608 68.1391 45.6603 68.4274 45.9433 69.444C46.5048 71.4609 45.1641 72.1154 43.8651 72.8353C41.5528 74.1169 39.2343 75.3984 36.6434 76.0645C35.8023 76.2808 34.9584 76.4569 34.2906 76.4038Z" fill="black"/>
</g>
<defs>
<clipPath id="clip0">
<rect width="95.6062" height="71.7047" fill="white" transform="translate(0 92.3486) rotate(-75)"/>
</clipPath>
</defs>
</svg>
