<svg width="145" height="171" viewBox="0 0 145 171" fill="none" xmlns="http://www.w3.org/2000/svg">
<path d="M63.6661 75.9097L63.5401 76.2135C63.7129 76.2349 63.8883 76.2076 64.0464 76.1345C64.2045 76.0615 64.3391 75.9457 64.4348 75.8002L64.517 76.1067C64.5755 76.127 64.6509 76.1806 64.6868 76.1609C64.988 75.9947 65.3156 76.0639 65.5964 76.1409C65.926 76.2311 66.2135 76.4909 66.58 76.265C66.6056 76.2492 66.6557 76.2329 66.6699 76.2455C67.249 76.7278 68.0448 76.5645 68.6671 76.9174C68.8718 77.0338 68.6509 77.112 68.6547 77.2732C69.3668 77.1412 70.0841 76.8508 70.8685 77.3287L70.9846 77.6201C71.0554 77.6981 71.0861 77.6822 71.1257 77.5976C71.1443 77.5443 71.1745 77.4958 71.2143 77.4556C71.254 77.4155 71.3022 77.3848 71.3553 77.3657C71.4085 77.3466 71.4652 77.3396 71.5214 77.3452C71.5776 77.3508 71.6318 77.3689 71.6801 77.3982C72.3125 77.745 73.0263 77.7564 73.7014 77.9032C74.9465 78.1742 76.1493 78.5811 77.3748 78.9104C78.6089 79.2422 79.8238 79.6181 81.0303 80.0356C82.6212 80.5861 84.2225 81.1008 85.8017 81.6908C86.8237 82.0727 87.8568 82.4568 88.9083 82.7788C89.9101 83.0859 90.8567 83.5698 91.8398 83.9418C92.9941 84.3792 94.0952 84.9411 95.2767 85.3214C95.866 85.5112 96.384 85.9088 96.9824 86.1363C99.203 86.9803 101.205 88.2514 103.256 89.4269C103.626 89.6394 104.012 89.8362 104.154 90.3894C103.592 90.3472 103.098 90.2962 102.641 90.0267C101.971 89.6317 101.295 89.2475 100.621 88.8586C100.283 88.6637 99.9676 88.4033 99.6051 88.2935C99.2427 88.1838 98.9553 87.9493 98.5994 87.8353C98.2478 87.7229 97.9313 87.518 97.5758 87.385C96.9611 87.155 96.386 86.8046 95.7911 86.512C95.0313 86.1386 94.2098 85.9542 93.4535 85.5804C92.68 85.1978 91.8508 84.9309 91.0523 84.5985C90.7951 84.4912 90.5922 84.2841 90.2545 84.3911C90.123 84.4328 89.9064 84.2694 89.7517 84.1643C89.1998 83.7906 88.5585 83.6494 87.942 83.4431C87.3066 83.2305 86.6673 83.0286 86.0321 82.8148C84.2101 82.2015 82.3767 81.6188 80.5724 80.9566C79.4269 80.5364 78.2137 80.3555 77.0863 79.889C76.6412 79.9892 76.4035 79.5041 75.9545 79.5136C75.5859 79.5381 75.2177 79.4607 74.8901 79.29C74.6398 79.1131 74.3577 78.9862 74.0592 78.9162C73.7319 78.8762 73.4071 78.8181 73.0862 78.7421C72.7588 78.671 72.4395 78.5669 72.1332 78.4311C71.8199 78.2803 71.4698 78.3067 71.1727 78.18C71.0038 78.1081 70.7534 78.2665 70.6773 78.0306C70.6056 77.8091 70.4801 77.8061 70.3168 77.8798C70.0046 78.0216 69.7152 77.8655 69.4213 77.8295C69.3267 77.6973 69.3955 77.499 69.2032 77.3814C68.7423 77.8253 68.154 77.4073 67.6363 77.5894C67.3884 77.0507 66.8695 77.4423 66.5171 77.2632C66.1526 77.0783 65.7415 77.2345 65.3607 77.0831C64.743 76.8374 64.0699 76.8183 63.4205 76.7019C62.7981 76.5993 62.1815 76.4645 61.5731 76.2979C61.3196 76.2247 61.2212 76.2842 61.1005 76.5441C60.6503 75.956 59.7472 76.58 59.3366 75.806C59.26 75.8886 59.1805 76.0422 59.112 76.0375C58.4847 75.9938 57.8489 76.0524 57.2313 75.8754C56.7345 75.7324 56.2133 75.6271 55.713 75.7714C55.5016 75.8157 55.2816 75.7892 55.0867 75.6961C54.1057 75.3479 53.1057 75.5291 52.1165 75.5161C51.3335 75.5057 50.5571 75.4333 49.7776 75.3865C48.8168 75.3289 47.86 75.2075 46.8889 75.2841C46.2945 75.3308 45.6895 75.2113 45.0896 75.2217C44.6631 75.2291 44.2158 75.1082 43.8086 75.322C43.5043 75.4817 43.2141 75.2028 42.8825 75.3273C42.7615 75.3727 42.4307 75.1985 42.2777 75.3426C42.0859 75.524 41.8449 75.0295 41.7343 75.4262C41.2952 75.4082 40.8305 75.475 40.4222 75.3532C39.7408 75.1495 39.0907 75.3886 38.4258 75.373C37.3573 75.3484 36.3078 75.7439 35.222 75.6063C34.8233 75.9134 34.2374 75.4654 33.861 75.9562C33.7713 76.0733 33.5465 75.8692 33.3373 75.8933C32.2235 76.0258 31.09 76.0404 30.0186 76.412C29.7849 76.4936 29.4718 76.2112 29.321 76.5784C29.0046 76.329 28.7115 76.5763 28.4138 76.6312C28.1279 76.6834 27.8224 76.8901 27.5728 76.8304C26.9502 76.681 26.5846 77.2497 26.0332 77.2742C25.5725 77.2947 25.1476 77.6378 24.6488 77.4402C24.6011 77.4287 24.5513 77.4294 24.5039 77.4421C24.4565 77.4547 24.413 77.4791 24.3775 77.5129C24.1125 77.9197 23.6588 77.9222 23.2746 77.9857C22.602 78.0969 22.0984 78.5934 21.4358 78.711C21.3566 78.725 21.3102 78.9245 21.2105 79.1078C21.837 78.9559 22.4589 78.9803 22.9632 78.5369C23.1253 78.4371 23.3067 78.3727 23.4956 78.3479C24.5904 78.0511 25.6932 77.782 26.7788 77.4552C27.2697 77.3075 27.7722 77.5001 28.263 77.2858C28.7034 77.0934 29.2118 76.8794 29.6611 76.932C30.1582 76.9891 30.5882 76.6991 31.0353 76.8001C31.5199 76.9093 31.8975 76.5934 32.3336 76.5883C33.269 76.5772 34.1755 76.285 35.0962 76.2716C35.8589 76.2602 36.6141 76.1454 37.3716 76.1758C37.5476 76.1828 37.5516 75.8362 37.7879 76.0598C37.9293 76.1932 38.1486 76.0159 38.3313 75.977C38.4988 75.9415 38.6031 76.1638 38.7734 76.0645C38.9662 75.9525 39.1461 76.138 39.3071 76.1095C39.7665 76.0279 40.2194 75.9634 40.6881 75.9248C41.6015 75.8494 42.5123 75.876 43.423 75.839C43.8023 76.175 44.1818 75.6326 44.6063 75.8601C44.9198 76.0282 45.3292 75.8538 45.6908 75.8437C46.8936 75.8101 48.1016 75.8349 49.3026 75.9133C50.1455 75.9681 50.9733 76.1204 51.8311 76.0101C52.1961 75.9631 52.6132 76.0764 52.9831 76.149C54.0545 76.3591 55.1368 76.327 56.2114 76.4029C56.7274 76.4393 57.2162 76.5811 57.7204 76.6482C58.5511 76.7591 59.3971 76.6966 60.2215 76.9423C60.7605 77.1024 61.3873 76.9154 61.8931 77.2946C62.3611 76.9369 62.7732 77.4451 63.2468 77.3818C63.7097 77.3197 64.1722 77.5812 64.6633 77.5959C65.1118 77.6316 65.5558 77.7113 65.9887 77.8339C66.4279 77.9361 66.8593 78.0717 67.2949 78.193L67.4122 78.631C67.6122 78.4937 67.7557 78.2686 67.9984 78.2945C68.1676 78.3224 68.1459 78.49 68.2314 78.5733C68.2896 78.5883 68.35 78.593 68.4099 78.5873C69.034 78.4287 69.6927 78.4747 70.2887 78.7187C71.2947 79.0962 72.3514 79.1856 73.3731 79.4527C74.5717 79.7656 75.7588 80.1265 76.9605 80.4125C78.3783 80.7502 79.7283 81.2964 81.1435 81.6371C82.1198 81.8716 83.0569 82.2675 84.0074 82.6028C85.2207 83.0309 86.4164 83.5148 87.6448 83.8911C88.6459 84.1978 89.5925 84.6353 90.5744 84.9855C91.5743 85.319 92.5554 85.7064 93.5134 86.1459C94.3455 86.5485 95.2352 86.83 96.0948 87.178C97.0419 87.5617 97.96 88.0122 98.912 88.3883C99.5599 88.6406 100.189 88.9379 100.796 89.2782C101.838 89.8714 102.876 90.4709 103.911 91.0769C104.042 91.1532 104.223 91.1872 104.245 91.4145C104.081 91.7222 103.79 91.6548 103.511 91.516C103.509 91.9908 103.987 91.911 104.066 92.2236C104.092 92.3917 103.925 92.4897 103.877 92.6404C103.69 92.3618 103.546 92.7886 103.392 92.6729C103.228 92.549 102.996 92.737 102.865 92.5336C102.647 92.6156 102.91 92.8288 102.669 92.9835C102.22 92.7957 101.708 92.5961 101.209 92.3674C100.87 92.2111 100.57 91.9933 100.181 91.92C99.8599 91.8594 99.6235 91.4655 99.2116 91.667C99.1367 91.7036 99.0898 91.5519 99.0298 91.4999C98.6133 91.1386 97.8861 90.8956 97.1702 90.8095C96.7823 90.7434 96.4042 90.6289 96.0448 90.4687C95.4122 90.2205 94.7993 89.9183 94.1448 89.7155C94.0313 89.6661 93.932 89.5888 93.8562 89.4908C93.6718 89.2807 93.4414 89.1158 93.183 89.009C92.9245 88.9022 92.645 88.8563 92.366 88.8749C92.0558 88.8907 91.9384 88.7935 91.5174 88.5354C91.3007 88.4221 91.0742 88.3285 90.8408 88.2558C89.9241 87.9065 88.9711 87.6643 88.0656 87.301C87.5174 87.081 86.8716 87.2946 86.3976 86.8562C85.9958 87.0746 85.7519 86.7057 85.4324 86.6079C84.6519 86.3687 83.904 85.9618 83.0764 85.9602C82.7804 85.9594 82.8231 85.4411 82.4899 85.689C81.7544 85.4006 80.9534 85.3467 80.22 85.0732C79.9386 84.9684 79.6589 84.705 79.3749 84.7337C78.8349 84.788 78.4353 84.21 77.8812 84.4622C77.5126 84.0035 76.9854 84.1359 76.5019 84.0515C76.1285 83.9868 75.839 83.6807 75.372 83.7408C74.9793 83.791 74.5515 83.5977 74.1448 83.493C73.738 83.3883 73.3616 83.1481 72.917 83.1828C72.7076 82.7342 72.2446 82.8529 71.8973 82.7755C71.5234 82.6918 71.144 82.5003 70.7468 82.601C70.4374 82.6793 70.3516 82.1053 69.9625 82.3877C69.7222 82.5623 69.4385 82.3175 69.1715 82.2813C68.9147 82.2462 68.596 82.3097 68.4759 81.9295C68.4417 81.8217 68.2292 81.7482 68.0848 81.7013C67.5112 81.5161 66.825 81.687 66.3617 81.1527C66.0173 81.2878 65.6741 81.0247 65.3827 81.0778C64.4363 81.2501 63.5822 80.8762 62.7107 80.6935C62.0655 80.5581 61.35 80.725 60.7678 80.2957C60.2996 80.5199 59.8741 80.1378 59.4229 80.1982C58.8954 80.2686 58.427 79.9436 57.9085 79.9973C57.3901 80.051 56.9009 79.8447 56.39 79.8257C56.3043 79.8224 56.2214 79.7348 56.0976 79.6633C55.3275 80.1271 54.4593 79.4073 53.5134 79.8039C53.9258 79.8886 54.2069 79.9463 54.6408 80.0346C53.785 80.314 53.0811 79.9711 52.3704 80.0167C51.6694 80.062 50.9442 79.8893 50.2268 79.8354C49.5094 79.7816 48.7926 79.6332 48.0795 79.6559C47.3513 79.6797 46.6382 79.5435 45.9109 79.5734C45.1916 79.6028 44.4684 79.5323 43.7092 79.5041L43.5618 79.0917C42.993 78.8332 42.4156 79.2116 41.8423 79.0715C41.7595 79.0513 41.634 79.1641 41.5656 79.1331C40.9434 78.8515 40.2986 79.1567 39.6724 79.044C39.0256 78.9277 38.4049 79.2337 37.7549 79.1595C36.9997 79.0732 36.2454 79.2595 35.4852 79.2C35.0914 79.1691 34.7092 79.4747 34.2971 79.2755C33.7695 79.5387 33.1862 79.4489 32.6325 79.4989C32.135 79.5124 31.6408 79.5836 31.1597 79.7111C30.68 79.3555 30.1983 80.0397 29.7043 79.7104C29.6331 79.6628 29.4584 79.7572 29.3368 79.801C28.559 80.0745 27.7395 80.0387 26.9373 80.1305C26.7042 80.1574 26.5914 80.4356 26.3263 80.4069C25.2727 80.293 24.345 80.8248 23.3484 80.9967C22.9487 81.0669 22.5838 81.2683 22.3115 81.5693L22.4635 81.6776C22.4697 82.2277 22.0921 82.4513 21.6425 82.4446C21.269 82.4391 21.1909 82.0518 21.1424 81.7143C20.7799 81.6358 20.3693 81.6033 20.3642 81.0954C20.3613 80.8079 20.1474 80.6614 19.9866 80.4734C20.0528 80.2083 20.2149 79.9249 20.1644 79.6867C20.0518 79.1555 20.3499 78.8117 20.6518 78.5226C20.9932 78.2257 21.3729 77.9758 21.7807 77.7795C22.8982 77.1787 24.1362 76.9996 25.3253 76.6536C26.508 76.3091 27.7049 76.0177 28.8915 75.6877C29.3166 75.5696 29.7479 75.7411 30.1877 75.5688C30.5782 75.4151 31.0058 75.164 31.467 75.4051C32.114 75.0973 32.8398 75.3196 33.5096 75.0739C34.3605 74.7618 35.2774 74.7923 36.1731 74.7568C36.3635 74.7234 36.5568 74.7086 36.7501 74.7126C36.9698 74.7521 37.1964 74.7154 37.3924 74.6084C37.7627 74.4331 38.1303 74.6117 38.5023 74.5649C38.8826 74.5168 39.2905 74.5527 39.6046 74.4218C39.7875 74.541 39.7294 74.7368 39.9786 74.7423C40.2373 74.3377 40.6725 74.3769 41.1553 74.4038C42.1003 74.4553 43.048 74.4118 43.9842 74.2738C44.2844 74.25 44.5862 74.2594 44.8843 74.3019C45.6465 74.3625 46.4077 74.4278 47.2338 74.2129L47.578 74.4874C47.7755 74.4547 47.6902 74.2535 47.9074 74.285C48.2926 74.3391 48.6881 74.4387 49.0823 74.3108C49.1416 74.293 49.2037 74.2865 49.2654 74.2916C49.4571 74.3046 49.6318 74.7643 49.8416 74.3113C50.0638 74.6079 50.3731 74.2559 50.6467 74.4283C50.8282 74.5427 51.1393 74.477 51.3498 74.4631C51.6049 74.4465 51.8313 74.5556 52.077 74.5173C52.5579 74.4427 53.0383 74.8322 53.4867 74.5229C53.6774 74.5599 53.6504 74.7317 53.7434 74.8103C54.0354 74.6601 54.953 74.6891 55.4972 74.8679L55.4423 75.1602C55.5096 75.1643 55.5917 75.195 55.6257 75.1672C55.8588 74.9767 56.0503 74.6729 56.4173 74.9255C57.0854 74.7912 57.7603 74.9449 58.3873 75.0754C58.9214 75.1652 59.4625 75.2065 60.004 75.1989C60.5177 75.2134 60.982 75.552 61.513 75.4067C62.1662 75.7814 62.9596 75.5685 63.6661 75.9097ZM67.1767 80.6312C67.3195 80.4133 67.3872 80.8125 67.492 80.5741C67.5915 80.3476 67.8181 80.4062 67.9683 80.3058C68.0435 80.2556 68.0342 80.1965 67.969 80.1664C67.7176 80.0802 67.4948 80.3758 67.2567 80.2345L67.1237 79.9691C66.8331 80.1548 66.8464 80.5435 66.571 80.6985C66.0671 80.7003 66.0533 80.3086 65.9544 79.9819C65.9438 79.9467 65.8665 79.9322 65.8203 79.9076C65.6708 80.0939 65.9486 80.2729 65.8569 80.4077C65.5112 80.7987 65.5051 80.2243 65.1517 80.2866C65.203 80.2919 65.2738 80.4938 65.1143 80.4234C64.9561 80.3065 65.075 80.0307 64.8478 79.9515C64.3761 80.232 63.9425 80.2074 63.1529 79.8549L63.0559 80.0229C62.8696 79.998 62.9488 79.7212 62.7539 79.7041C62.5486 79.6794 62.5357 79.8939 62.4158 79.9754C61.4151 79.6811 61.4151 79.6811 60.8777 79.7975L60.012 79.1823C59.6835 79.1246 59.6448 79.4611 59.4643 79.5416C59.136 79.3379 58.7831 79.1533 58.4138 79.2731C58.1446 79.3613 57.9263 79.2683 57.6861 79.2487C57.1194 79.2021 56.5541 79.1433 55.9862 79.1078C55.9537 79.0994 55.9196 79.0992 55.887 79.1071C55.8543 79.1151 55.8242 79.131 55.7992 79.1535C55.7742 79.1759 55.7551 79.2042 55.7437 79.2358C55.7323 79.2674 55.7289 79.3013 55.7338 79.3345C56.0459 79.4397 56.3702 79.5043 56.6987 79.5268C57.4471 79.5356 58.1935 79.6067 58.93 79.7394C59.6646 79.8908 60.4375 79.791 61.1491 80.118C61.3502 80.175 61.5589 80.2009 61.7678 80.1948C62.901 80.2956 64.0261 80.4737 65.135 80.7278C65.7419 80.8523 66.3506 81.117 66.999 80.98C67.0556 80.9589 67.1088 80.9295 67.1568 80.8928L67.1767 80.6312Z" fill="black"/>
<path d="M93.0631 75.2066C92.6954 75.3443 92.2493 75.0037 91.9232 75.3939C91.8838 75.6668 92.1509 75.6621 92.2876 75.8235C92.8321 75.6249 93.3358 75.733 93.9017 75.8717C94.4607 76.0093 94.9546 76.3213 95.5511 76.3777C96.1132 76.4309 96.6568 76.6978 97.2036 76.8854C97.7544 77.0746 98.2986 77.2834 98.8465 77.4814C99.2859 77.6147 99.7177 77.7722 100.14 77.9531C101.117 78.4354 102.14 78.7999 103.144 79.2139C103.664 79.4289 104.145 79.7309 104.673 79.9513C105.581 80.3297 106.412 80.8887 107.316 81.2755C108.291 81.692 109.158 82.3044 110.115 82.7298C112.271 83.6887 114.207 85.0303 116.266 86.1562C116.6 86.3391 116.924 86.5463 117.262 86.7294C118.006 87.1314 118.804 87.4856 119.293 88.2205C119.481 88.5038 119.794 88.2553 120.032 88.5378C120.287 88.8175 120.605 89.0331 120.959 89.1669C121.323 89.3053 121.607 89.585 121.931 89.7817C122.322 90.0176 122.699 90.316 123.115 90.5762C123.254 90.9117 123.394 91.2673 123.554 91.6131C123.581 91.6717 123.699 91.6884 123.765 91.7197C123.924 91.5998 123.636 91.3652 124.01 91.2761C124.461 91.4416 124.854 91.7346 125.141 92.1195C125.13 92.2235 124.956 92.1917 124.883 92.2802C124.815 92.363 124.808 92.5227 124.627 92.4036C124.431 92.2737 124.485 92.5351 124.38 92.5752C124.126 92.4357 124.255 92.1032 124.081 91.9242C123.746 91.7238 123.788 92.2192 123.512 92.1963C123.284 92.0603 123.129 91.8058 122.933 91.5737L122.585 91.6669C121.994 91.3446 121.684 90.6245 120.931 90.5827C120.573 90.5629 120.531 90.0743 120.104 90.08C119.805 90.0839 119.641 89.7092 119.443 89.4989C119.357 89.3379 119.533 89.2655 119.522 89.1143C119.107 88.9989 119.15 89.4449 118.959 89.6022C118.765 89.4903 118.569 89.377 118.373 89.2637L118.497 89.0181C118.232 88.9033 118.168 88.5461 117.871 88.4989C117.663 88.4876 117.609 88.6527 117.529 88.7772L117.181 88.5761L117.308 88.3286C116.785 88.33 116.785 88.33 116.254 88.0404C116.201 87.809 116.646 87.9352 116.465 87.5094C116.28 87.2975 115.654 87.6722 115.501 87.1265C115.424 87.2176 115.349 87.3064 115.227 87.4525C114.864 87.179 114.428 87.0195 114.1 86.7612C113.729 86.4699 113.267 86.4024 112.896 86.0752L112.743 85.504C112.421 85.5813 112.185 85.2413 111.901 85.273C110.943 85.3793 110.303 84.7589 109.613 84.3011C109.36 84.1333 109.168 83.885 108.837 83.8663C108.732 83.8604 108.662 83.8418 108.631 83.7266C108.5 83.2391 108.174 83.0832 107.692 83.1598C107.638 83.1721 107.582 83.1735 107.527 83.164C107.472 83.1544 107.42 83.1341 107.373 83.1042C107.326 83.0744 107.285 83.0355 107.254 82.9898C107.222 82.9442 107.199 82.8927 107.188 82.8383C107.067 82.4368 106.708 82.4034 106.474 82.28C106.143 82.3858 106.415 82.6116 106.229 82.7502C106.122 82.5284 105.612 82.6706 105.773 82.1765C105.783 82.1457 105.566 81.9738 105.482 81.9922C105.329 82.0313 105.169 82.0332 105.015 81.9978C104.862 81.9623 104.719 81.8906 104.599 81.7885C104.165 81.9965 103.855 81.7002 103.556 81.4913C103.158 81.2133 102.686 81.1155 102.256 80.95C101.73 80.7755 101.249 80.4866 100.848 80.1041C100.739 80.0062 100.621 79.9182 100.496 79.8411C100.343 79.9117 100.176 79.9476 100.008 79.9463C99.8401 79.9449 99.6743 79.9063 99.5229 79.8332C98.4241 79.3679 97.3322 78.8675 96.1572 78.6092C95.9786 78.5637 95.8151 78.4722 95.6829 78.3438C95.5507 78.2154 95.4545 78.0546 95.4039 77.8774C95.318 77.6548 95.1307 77.6271 95.0252 77.5386C94.4985 77.9115 93.8916 77.346 93.4584 77.7565C93.2062 77.5386 93.2756 77.2785 93.1244 77.0688C92.5878 77.0634 92.0161 77.0573 91.4495 77.0515C91.3009 77.1692 91.5166 77.3729 91.2726 77.507C91.0377 77.5181 90.7515 77.2886 90.3458 77.6177L90.5644 77.182C90.4509 77.0369 90.2412 77.2703 90.1433 77.0613C90.0338 76.8067 90.2852 76.6676 90.3506 76.4708L89.7741 75.8277C89.9273 75.5271 90.0961 75.6282 90.268 75.7378C90.3712 75.5922 90.5398 75.4736 90.4554 75.241C90.3877 74.9969 90.1571 75.2793 90.0301 75.1076C90.4013 74.5358 91.1207 74.9826 91.5275 74.5231C91.7265 74.6825 91.8766 74.8031 92.0245 74.9218L92.1882 74.67C92.5039 74.7359 92.8402 74.8051 93.1752 74.8799C93.19 74.8833 93.1932 74.9392 93.2018 74.9706C93.2406 75.098 93.1944 75.1766 93.0631 75.2066Z" fill="black"/>
<path d="M93.0631 75.2065C93.1946 75.1763 93.2404 75.097 93.2006 74.9685C93.8586 74.7351 94.4682 75.0499 95.0698 75.1972C96.0693 75.4432 97.0383 75.8154 98.0212 76.1271C98.7467 76.3578 99.455 76.72 100.178 77.002C101.16 77.3849 102.089 77.8857 103.088 78.2332C103.678 78.4383 104.214 78.7977 104.779 79.0742C105.575 79.4641 106.429 79.7438 107.175 80.2454C107.562 80.5049 107.955 80.7682 108.448 80.854C108.573 80.8781 108.691 80.9313 108.792 81.0091C108.893 81.087 108.974 81.1874 109.03 81.3024C109.096 81.4345 109.416 81.3908 109.619 81.4982C111.629 82.5635 113.631 83.6429 115.596 84.7926C116.811 85.5037 117.958 86.3201 119.158 87.0557C120.119 87.6421 121.044 88.2836 121.93 88.977C122.269 89.2436 122.761 89.3997 122.965 89.832C122.826 90.0502 122.67 90.0404 122.54 89.9171C121.701 89.15 120.759 88.5031 119.742 87.9949C119.403 87.8167 119.213 87.4726 118.859 87.3049C118.556 87.1617 118.24 87.0275 118.028 86.7035C117.868 86.4944 117.632 86.3574 117.371 86.3226C116.98 86.2833 116.757 85.9923 116.446 85.8647C116.152 85.713 115.875 85.5323 115.618 85.3253C115.223 85.067 114.681 85.0385 114.386 84.5881C113.907 84.6818 113.738 84.1249 113.383 84.0757C112.963 84.0169 112.759 83.6819 112.423 83.5264C112.087 83.4038 111.765 83.2473 111.462 83.0592C111.138 82.8444 110.803 82.6473 110.458 82.4688C110.12 82.2738 109.787 82.076 109.448 81.8872C109.121 81.7053 108.755 81.5874 108.433 81.4237C107.728 81.0637 106.966 80.8272 106.289 80.3963C105.557 79.9304 104.732 79.6356 103.927 79.3021C103.122 78.9687 102.289 78.6623 101.55 78.2232C100.994 77.893 100.314 77.8971 99.8352 77.4469C99.3614 77.5345 99.0616 77.113 98.6279 77.0187C98.2411 76.9589 97.8826 76.78 97.6023 76.5069C97.4587 76.3488 96.9608 76.482 96.8557 76.3263C96.6543 76.028 96.4568 76.1748 96.2385 76.1345C96.0576 76.1199 95.8796 76.0804 95.7095 76.0173C94.9074 75.653 94.0504 75.4245 93.1734 75.3411C93.1313 75.3383 93.0996 75.254 93.0631 75.2065Z" fill="black"/>
</svg>
