<svg width="139" height="139" viewBox="0 0 139 139" fill="none" xmlns="http://www.w3.org/2000/svg">
<g clip-path="url(#clip0)">
<path d="M47.3789 76.6724C44.868 76.5678 42.357 76.4742 39.8466 76.3543C36.8701 76.2125 33.8943 76.0566 30.9191 75.8864C30.5007 75.8679 30.087 75.7895 29.6907 75.6537C28.1794 75.1089 27.3476 76.1312 26.5148 77.0453C26.0264 77.5813 26.5143 78.6863 27.3156 78.8188C29.5256 79.1844 31.7384 79.6032 33.967 79.7731C40.8816 80.3014 47.8043 80.7225 54.7235 81.1902C55.317 81.2305 55.9068 81.3372 56.5004 81.3614C57.1101 81.3862 57.9156 81.7047 57.7463 80.477C57.7007 80.1455 58.2504 79.7712 58.3806 79.3694C58.8327 77.9692 58.6576 77.396 57.3824 76.7082C55.6821 75.7907 53.9215 74.9841 52.1813 74.1412C50.9114 73.5261 49.645 72.9011 48.3545 72.3316C46.7228 71.6113 45.041 70.9998 43.4332 70.2309C42.4859 69.7779 41.6399 69.1096 40.7484 68.5382L40.7393 68.1768C40.9393 68.2701 41.132 68.4212 41.3404 68.4477C44.0401 68.7915 46.7435 69.1059 49.4429 69.4518C51.9111 69.7681 54.3668 70.248 56.8435 70.4187C62.2003 70.7891 67.5659 71.2019 72.9308 71.2475C83.2492 71.3354 93.5691 71.1603 103.888 71.134C109.302 71.1203 114.715 71.1917 120.129 71.2186C120.39 71.2199 120.652 71.1654 121.083 71.1182C120.751 70.8185 120.556 70.6428 120.361 70.4673C120.38 70.3946 120.388 70.2778 120.415 70.2735C121.007 70.1853 121.171 69.6581 120.987 69.3148C120.773 68.9124 120.291 68.4729 119.863 68.397C118.457 68.1676 117.04 68.0087 115.618 67.9211C114.375 67.8284 113.126 67.7823 111.879 67.787C108.71 67.7983 105.547 67.4906 102.372 67.6463C101.503 67.6889 100.62 67.4271 99.7429 67.3093C99.5014 67.2695 99.2575 67.2463 99.0128 67.2396C93.7041 67.2587 88.3954 67.2829 83.0867 67.3124C80.6832 67.3315 78.2807 67.4364 75.8774 67.4603C74.2089 67.4773 72.5386 67.3812 70.872 67.4255C70.3722 67.4385 69.5941 66.9325 69.3596 67.9179C69.1978 67.9355 69.0341 67.9195 68.8787 67.871C68.3646 67.7029 67.8599 67.5076 67.3665 67.2859C66.4179 66.8341 65.4851 67.1069 64.521 67.2122C63.7405 67.2978 62.933 67.0994 62.1364 67.0843C61.3294 67.069 60.3385 67.4261 59.7578 67.075C58.9654 66.5958 58.2369 66.9405 57.502 66.7522C56.1053 66.3934 54.6814 66.1248 53.2552 65.9063C51.3788 65.6191 49.4576 65.095 47.6152 65.2763C46.0685 65.4287 44.7271 64.8902 43.2794 64.7994C41.3677 64.6795 39.4672 64.2556 37.5837 63.8592C36.2069 63.5697 34.8598 62.8066 33.5093 62.8299C32.441 62.8483 31.6835 62.2416 30.7812 62.182C28.9266 62.0594 27.254 61.3419 25.5534 60.7703C24.2266 60.3242 23.2448 60.5419 22.4938 61.5964C22.2073 61.9985 21.209 62.0432 21.8703 63.1847C22.3421 63.999 21.9091 64.2595 22.8238 64.6967C30.8437 68.5267 38.8647 72.3541 46.887 76.1788C47.0681 76.2652 47.2412 76.3685 47.418 76.4639L47.3789 76.6724ZM70.3446 70.2379L76.5326 70.1241L76.5326 70.462C75.7695 70.4817 75.0064 70.5118 74.2432 70.5184C73.4412 70.5251 72.6365 70.5436 71.8372 70.492C71.3359 70.4595 70.8423 70.3076 70.345 70.2089L66.3277 70.0576C65.9647 70.1203 65.5984 70.2522 65.2393 70.2349C62.5477 70.1046 59.8536 69.9959 57.1684 69.78C54.5088 69.5663 51.854 69.2757 49.2065 68.9387C47.9011 68.7724 46.6187 68.4253 45.3259 68.16L45.3832 67.8689C47.5419 68.1792 49.6924 68.5731 51.8607 68.7816C55.9054 69.1703 59.9607 69.4454 64.0107 69.7827C64.7858 69.8477 65.5555 69.9827 66.3277 70.0855L70.3446 70.2379ZM108.087 70.4274C108.088 70.3122 108.089 70.1971 108.091 70.0818L114.095 70.0059L114.098 70.3999L108.087 70.4274ZM39.7587 66.9309L39.7215 67.2837L36.6592 66.622L36.7105 66.3836L39.7587 66.9309Z" fill="black"/>
<path d="M110.151 80.3691C110.052 80.0906 109.886 79.8672 109.924 79.6892C110.157 78.6306 109.939 78.3562 108.802 78.4801C106.369 78.7456 103.942 79.0938 101.504 79.3097C97.5119 79.6628 93.5153 79.9687 89.5147 80.2274C87.164 80.3719 84.7996 80.4506 82.4474 80.375C78.9986 80.2641 75.5535 80.0148 72.1103 79.7739C69.7747 79.6103 67.4442 79.3694 65.1132 79.1433C64.3146 79.0657 64.0505 79.719 64.074 80.1811C64.0947 80.5963 64.5722 81.2425 64.9601 81.3397C66.7553 81.7891 68.5811 82.1358 70.4111 82.4233C83.0106 84.404 95.4837 83.1484 107.914 80.9023C108.663 80.7664 109.399 80.5502 110.151 80.3691Z" fill="black"/>
</g>
<defs>
<clipPath id="clip0">
<rect width="111.579" height="83.6839" fill="white" transform="matrix(0.707107 -0.707107 -0.707107 -0.707107 59.1735 138.071)"/>
</clipPath>
</defs>
</svg>
