<svg width="439" height="221" viewBox="0 0 439 221" fill="none" xmlns="http://www.w3.org/2000/svg">
<g opacity="0.15" clip-path="url(#clip0)">
<path d="M205.986 220.047C206.092 216.127 207.675 212.524 210.526 209.77C213.377 207.015 217.072 205.638 220.978 205.744C224.885 205.85 228.475 207.439 231.22 210.3C233.965 213.16 235.337 216.868 235.232 220.788C235.232 220.894 235.232 221 235.232 221.106L229.425 221.106C229.425 220.894 229.425 220.788 229.425 220.576C229.53 218.245 228.58 216.021 226.996 214.326C225.413 212.63 223.196 211.677 220.873 211.571C218.55 211.571 216.333 212.419 214.644 214.008C212.954 215.597 212.004 217.822 211.899 220.152C211.899 220.47 211.899 220.788 211.899 221L206.092 221C206.092 220.788 206.092 220.576 206.092 220.364C205.986 220.258 205.986 220.152 205.986 220.047Z" fill="#78C3E9"/>
<path d="M188.777 218.457C188.777 217.292 188.882 216.127 189.093 214.855C189.304 213.584 189.621 212.207 190.044 210.829C190.994 207.757 192.683 204.791 194.795 201.93C195.956 200.341 197.117 199.07 198.384 198.01L198.701 197.798C202.713 195.256 207.147 194.62 211.371 193.984C211.793 193.878 212.215 193.878 212.638 193.772C214.644 193.454 216.544 192.289 218.55 191.124C219.078 190.806 219.606 190.488 220.134 190.17C226.046 186.886 234.176 190.064 239.666 194.832C241.989 196.845 243.256 199.493 244.311 201.824C244.945 203.095 245.473 204.261 246.106 205.214C248.112 206.592 249.696 208.605 250.646 211.147C251.596 213.584 252.019 216.233 251.808 218.987L251.808 219.199L251.702 219.411C251.596 220.047 251.385 220.576 251.174 221.106L244.523 221.106C245.156 220.258 245.684 219.305 245.895 218.245C246.001 216.55 245.684 214.855 245.051 213.372C244.417 211.783 243.467 210.617 242.305 209.876L241.778 209.558L241.461 209.134C240.299 207.545 239.56 205.85 238.716 204.261C237.766 202.248 236.921 200.447 235.548 199.281C231.748 195.997 225.941 193.454 222.668 195.256C222.14 195.573 221.717 195.785 221.19 196.103C218.867 197.48 216.333 199.07 213.166 199.493C212.743 199.599 212.321 199.599 211.899 199.705C208.098 200.235 204.614 200.765 201.657 202.566C200.813 203.307 199.968 204.261 199.123 205.426C197.329 207.757 196.062 210.194 195.217 212.63C194.9 213.69 194.583 214.855 194.372 215.915C194.056 217.398 194.056 218.775 194.267 219.941L194.267 220.258C194.267 220.47 194.372 220.682 194.478 221L188.46 221C188.46 220.894 188.46 220.788 188.46 220.788C188.882 220.047 188.777 219.199 188.777 218.457Z" fill="#78C3E9"/>
<path d="M172.095 212.101C172.518 209.982 172.94 207.863 173.573 205.744C175.051 201.188 177.585 196.527 181.069 191.971C182.864 189.535 184.765 187.628 186.56 186.038L186.771 185.932L186.982 185.826C192.683 182.542 199.124 182.012 205.247 181.483C206.62 181.377 207.887 181.271 209.154 181.165C212.955 180.741 216.122 178.198 219.5 175.55C219.923 175.232 220.345 174.808 220.873 174.49C228.897 168.24 241.567 173.325 250.013 180.635C253.286 183.496 254.87 187.204 256.242 190.806C257.192 193.137 258.037 195.361 259.41 197.057C262.788 198.646 265.428 201.506 267.117 205.214C268.701 208.71 269.44 212.842 269.123 216.868L269.123 217.186L269.017 217.504C268.595 218.775 268.173 219.941 267.539 221L260.36 221C261.627 219.517 262.683 218.034 263.316 216.127C263.527 213.16 262.999 210.194 261.838 207.757C260.571 205.002 258.776 203.095 256.348 202.142L255.714 201.824L255.292 201.294C253.18 198.752 252.019 195.785 250.858 192.925C249.591 189.852 248.429 186.992 246.212 184.979C240.405 180 229.953 174.808 224.568 179.046C224.146 179.364 223.724 179.682 223.301 180.105C219.606 183.072 215.488 186.356 209.998 186.992C208.626 187.098 207.253 187.204 205.986 187.31C200.285 187.733 194.9 188.263 190.36 190.7C188.882 191.971 187.51 193.454 185.926 195.467C182.864 199.493 180.647 203.519 179.38 207.545C178.852 209.24 178.43 211.147 178.113 213.16C177.585 215.809 177.585 218.034 178.008 220.152L178.113 220.576C178.113 220.682 178.113 220.894 178.219 221L172.306 221C172.095 219.729 171.99 218.457 171.99 217.186C171.567 215.491 171.778 213.902 172.095 212.101Z" fill="#78C3E9"/>
<path d="M154.991 209.346L155.097 209.028C155.625 206.274 156.152 203.519 156.997 200.765C159.003 194.62 162.382 188.369 167.133 182.118C169.667 178.728 172.095 176.186 174.629 174.173L174.84 173.961L175.051 173.855C182.547 169.723 190.994 169.299 199.123 168.875C201.235 168.769 203.347 168.663 205.353 168.452C211.054 167.922 215.488 163.896 220.239 159.658C220.662 159.234 221.084 158.917 221.506 158.493C232.275 148.852 250.435 157.857 259.937 166.333C264.16 170.041 266.061 175.02 267.856 179.788C269.123 183.178 270.39 186.462 272.396 189.005C277.041 190.912 280.736 194.514 283.165 199.493C285.487 204.155 286.438 209.558 285.91 214.961L285.91 215.279L285.804 215.597C285.171 217.61 284.326 219.411 283.27 221L275.774 221C277.675 218.987 279.258 216.868 280.208 214.114C280.525 209.982 279.786 205.638 277.991 202.142C276.091 198.222 273.24 195.573 269.651 194.302L268.911 194.09L268.384 193.454C265.427 189.958 263.844 185.826 262.366 181.907C260.782 177.669 259.304 173.643 256.136 170.782C247.901 163.472 232.909 156.268 225.413 162.942C224.99 163.26 224.568 163.684 224.146 164.108C219.183 168.663 213.482 173.749 205.88 174.384C203.769 174.596 201.552 174.702 199.44 174.808C192.05 175.232 184.342 175.656 178.007 178.94C175.896 180.741 173.89 182.86 171.673 185.721C167.344 191.442 164.282 197.057 162.487 202.672C161.748 205.002 161.22 207.545 160.798 210.088L160.692 210.406C159.953 214.22 159.953 217.398 160.692 220.364L160.692 220.576L160.692 220.788L160.692 220.894L154.78 220.894C154.463 219.305 154.252 217.61 154.252 215.809C154.358 213.796 154.569 211.677 154.991 209.346Z" fill="#78C3E9"/>
<path d="M137.887 206.698L137.993 206.062C138.626 202.672 139.26 199.281 140.421 195.891C142.955 188.157 147.284 180.211 153.196 172.477C156.364 168.24 159.426 165.061 162.593 162.519L162.804 162.307L163.015 162.201C172.412 157.221 182.864 156.904 193.106 156.48C196.062 156.374 198.807 156.268 201.552 156.056C209.154 155.526 215.172 149.699 221.084 143.978L222.351 142.813C235.337 130.312 258.037 141.648 270.073 152.348C275.246 157.01 277.464 163.154 279.575 169.087C281.159 173.643 282.743 177.881 285.488 181.271C291.4 183.39 296.257 187.839 299.319 193.984C302.169 199.705 303.436 206.486 302.803 213.16L302.803 213.478L302.803 213.69C301.853 216.444 300.586 218.775 299.002 221L291.295 221C293.828 218.457 295.94 215.703 297.101 212.207C297.629 206.698 296.574 201.188 294.251 196.527C291.611 191.442 287.916 188.051 282.954 186.462L282.215 186.25L281.687 185.615C277.886 181.271 275.986 175.974 274.191 170.888C272.185 165.379 270.39 160.188 266.272 156.586C255.503 147.051 235.971 137.728 226.469 146.945L225.307 148.11C219.078 154.149 211.899 161.035 202.185 161.777C199.335 161.989 196.378 162.095 193.422 162.201C184.026 162.519 174.207 162.942 166.077 167.074C163.332 169.299 160.693 172.16 157.842 175.868C152.246 183.178 148.34 190.488 145.911 197.586C144.961 200.553 144.328 203.625 143.694 207.015L143.589 207.651C142.638 212.63 142.638 216.762 143.589 220.682L143.589 220.894L137.676 220.894C137.254 218.881 137.043 216.762 137.043 214.537C137.043 212.207 137.359 209.558 137.887 206.698Z" fill="#78C3E9"/>
<path d="M120.783 204.049L120.994 203.095C121.733 199.07 122.472 194.938 123.845 191.018C126.907 181.695 132.08 172.16 139.26 162.731C143.166 157.645 146.756 153.831 150.662 150.653L150.873 150.441L151.084 150.335C162.276 144.508 174.945 144.19 187.087 143.872C190.782 143.767 194.372 143.661 197.856 143.449C207.464 142.813 214.854 135.291 221.928 128.087L223.09 126.921C229.952 120.035 240.088 118.446 252.441 122.26C261.732 125.12 272.079 131.053 280.103 138.151C286.226 143.661 288.866 150.971 291.294 158.069C293.3 163.684 295.095 169.087 298.685 173.325C305.97 175.762 311.777 180.847 315.577 188.263C319.062 195.044 320.645 203.201 319.801 211.147L319.801 211.465L319.695 211.783C318.534 215.279 316.739 218.351 314.627 221L306.814 221C309.982 217.928 312.516 214.537 314.099 210.194C314.733 203.519 313.36 196.527 310.51 190.912C307.237 184.555 302.486 180.423 296.256 178.622L295.517 178.41L294.989 177.775C290.344 172.583 288.127 166.121 285.91 159.976C283.587 153.302 281.37 146.945 276.407 142.495C262.999 130.629 238.927 119.293 227.313 130.947L226.152 132.113C218.655 139.741 210.103 148.322 198.278 149.17C194.689 149.382 190.888 149.488 187.298 149.593C175.896 149.911 163.965 150.229 154.041 155.209C150.662 157.963 147.389 161.459 143.905 166.015C137.148 175.02 132.186 183.919 129.335 192.607C128.174 196.209 127.435 200.023 126.696 203.943L126.484 204.896C125.429 211.147 125.429 216.232 126.59 221L120.572 221C120.044 218.563 119.833 216.127 119.833 213.478C119.833 210.511 120.15 207.333 120.783 204.049Z" fill="#78C3E9"/>
<path d="M103.785 201.294L103.996 200.023C104.841 195.361 105.791 190.594 107.269 185.932C110.859 175.02 116.983 163.896 125.429 152.772C129.969 146.733 134.192 142.283 138.732 138.681L138.943 138.469L139.154 138.363C152.246 131.689 166.922 131.477 181.175 131.159C185.715 131.053 189.938 131.053 194.161 130.735C205.775 129.994 214.432 120.883 222.879 112.089L224.04 110.818C241.355 92.8072 273.874 109.229 290.239 123.743C297.312 130.1 300.269 138.681 303.119 146.945C305.442 153.725 307.554 160.188 311.882 165.167C320.434 167.816 327.297 173.749 331.837 182.33C335.955 190.276 337.749 199.705 336.799 209.028L336.799 209.346L336.694 209.664C335.216 213.902 332.998 217.61 330.359 220.788L322.44 220.788C326.241 217.186 329.303 213.16 331.098 208.075C331.837 200.129 330.253 191.759 326.769 185.085C322.863 177.563 317.056 172.689 309.56 170.57L308.715 170.359L308.187 169.723C302.697 163.684 300.163 156.162 297.629 148.852C294.99 140.906 292.456 133.49 286.438 128.087C270.601 113.996 241.989 100.541 228.263 114.844L227.102 116.009C218.339 125.12 208.309 135.503 194.478 136.456C190.149 136.774 185.609 136.774 181.28 136.88C167.766 137.092 153.83 137.41 142.11 143.237C138.098 146.521 134.192 150.547 130.074 156.056C122.05 166.65 116.243 177.245 112.865 187.522C111.492 191.759 110.648 196.209 109.803 200.871L109.592 202.142C108.219 209.24 108.219 215.173 109.592 220.788L103.574 220.788C102.94 217.928 102.729 215.067 102.729 211.995C102.624 208.816 103.046 205.214 103.785 201.294Z" fill="#78C3E9"/>
<path d="M86.6813 198.646L86.998 197.057C87.9482 191.759 89.004 186.25 90.6933 181.059C94.8109 168.558 101.779 155.844 111.492 143.025C116.666 136.139 121.523 131.053 126.696 126.921L126.907 126.709L127.224 126.604C142.111 119.081 158.898 118.87 175.263 118.658C180.542 118.552 185.504 118.552 190.466 118.234C203.98 117.386 214.116 106.686 223.829 96.3035L224.991 95.0321C244.523 74.267 281.687 93.0192 300.48 109.758C308.61 116.963 311.777 126.709 314.944 136.244C317.584 144.19 320.118 151.712 325.186 157.539C335.005 160.4 342.923 167.074 348.202 176.927C352.847 185.932 354.853 196.633 353.798 207.227L353.798 207.545L353.692 207.863C351.792 213.054 349.152 217.292 345.985 221L337.961 221C342.29 216.868 345.879 212.207 348.096 206.274C348.941 197.057 347.146 187.416 343.029 179.576C338.383 170.888 331.626 165.167 322.863 162.837L322.018 162.625L321.49 161.989C315.156 155.103 312.305 146.415 309.454 137.94C306.392 128.828 303.542 120.141 296.574 113.996C278.203 97.5748 245.051 82.1069 229.214 98.9521L228.052 100.223C218.022 110.924 206.62 123.107 190.783 124.061C185.715 124.379 180.436 124.379 175.368 124.485C159.848 124.697 143.8 124.908 130.18 131.689C125.535 135.503 120.995 140.164 116.244 146.521C106.741 158.811 100.09 170.994 96.1834 182.86C94.5997 187.733 93.6495 192.819 92.6993 198.116L92.3826 199.705C90.9045 207.863 90.9045 214.643 92.3826 221L86.3645 221C85.7311 217.822 85.3087 214.537 85.3087 211.041C85.4143 207.121 85.8366 203.095 86.6813 198.646Z" fill="#78C3E9"/>
<path d="M69.577 195.891L69.8938 193.984C70.9495 188.051 72.1109 181.907 74.1169 175.974C78.7624 161.989 86.5753 147.581 97.5556 133.172C103.468 125.438 108.853 119.611 114.765 115.056L114.976 114.844L115.293 114.738C131.975 106.368 150.979 106.156 169.244 106.05C175.262 106.05 180.963 105.944 186.665 105.627C202.185 104.779 213.693 92.2776 224.673 80.3059L225.835 79.0345C247.69 55.4089 289.394 76.5978 310.51 95.4559C319.59 103.508 323.179 114.526 326.663 125.226C329.62 134.337 332.47 142.813 338.383 149.593C349.574 152.772 358.548 160.188 364.355 171.206C369.74 181.271 372.063 193.349 370.796 205.32L370.796 205.638L370.69 205.956C368.578 211.783 365.411 216.656 361.716 221L353.481 221C358.443 216.338 362.56 211.041 364.989 204.367C366.045 193.878 363.933 182.86 359.182 174.067C353.903 164.108 346.09 157.751 335.954 155.103L335.11 154.891L334.582 154.255C327.402 146.521 324.235 136.668 321.068 127.133C317.689 116.751 314.416 107.004 306.603 99.9056C285.593 81.1534 248.007 63.5667 230.058 83.0604L228.897 84.3318C217.6 96.6213 204.824 110.5 186.876 111.454C181.069 111.771 175.051 111.877 169.244 111.877C151.718 111.983 133.558 112.195 118.038 119.823C112.653 124.061 107.586 129.464 102.096 136.668C91.5376 150.547 83.9358 164.426 79.5015 177.775C77.7067 183.284 76.6509 189.005 75.4895 194.938L75.1727 196.845C73.4834 206.062 73.4834 213.69 75.1727 220.894L69.1547 220.894C68.4156 217.292 67.9933 213.584 67.9933 209.664C68.2045 205.426 68.6268 200.871 69.577 195.891Z" fill="#78C3E9"/>
<path d="M52.4733 193.243L52.8956 191.124C54.1626 184.555 55.4295 177.669 57.5411 171.206C62.7145 155.632 71.4776 139.529 83.6193 123.531C90.1652 114.95 96.2888 108.487 102.729 103.402L102.94 103.19L103.257 103.084C121.839 93.8667 142.849 93.7608 163.226 93.6549C169.983 93.6549 176.424 93.5489 182.759 93.2311C200.285 92.2776 213.06 78.187 225.518 64.6261L226.68 63.3548C250.752 36.9746 296.996 60.4943 320.54 81.5772C330.57 90.4765 334.476 102.766 338.383 114.526C341.656 124.697 344.823 134.338 351.475 141.86C363.933 145.25 373.963 153.513 380.509 165.697C386.422 176.715 389.061 190.488 387.689 203.519L387.689 203.837L387.477 204.049C385.155 210.723 381.459 216.233 377.131 221L369.001 221C374.597 215.809 379.137 209.876 381.882 202.46C383.043 190.7 380.72 178.304 375.336 168.452C369.318 157.327 360.555 150.123 349.152 147.263L348.307 147.051L347.674 146.415C339.755 137.834 336.166 126.921 332.682 116.221C328.881 104.567 325.397 93.6549 316.528 85.815C292.984 64.838 250.857 45.1323 230.797 67.1688L229.636 68.4401C217.072 82.2129 202.819 97.8926 182.97 98.9521C176.424 99.2699 169.667 99.3759 163.121 99.3759C143.483 99.4818 123.317 99.5877 106.002 108.063C99.9841 112.831 94.2828 118.87 88.1592 127.027C76.3343 142.601 67.8879 158.069 62.9256 173.007C60.9196 179.152 59.7583 185.509 58.4913 192.183L58.069 194.302C56.1686 204.473 56.1686 213.054 58.069 221L52.0509 221C51.2063 216.974 50.784 212.948 50.784 208.604C50.8896 203.837 51.4175 198.752 52.4733 193.243Z" fill="#78C3E9"/>
<path d="M35.5951 190.108L36.0174 187.671C37.3899 180.361 38.7625 172.945 41.0852 165.741C46.7865 148.366 56.1831 131.203 69.9085 113.192C77.0879 103.658 83.845 96.6652 90.9188 91.0501L91.1299 90.8382L91.4467 90.7323C111.824 80.6676 135.051 80.5616 157.434 80.5616C165.036 80.5616 172.11 80.5616 179.183 80.1379C198.716 79.0784 212.863 63.3986 226.589 48.1426L227.75 46.8713C239.469 33.9461 257.418 30.6618 279.906 37.4423C297.01 42.6336 316.015 53.6518 330.901 66.8948C341.882 76.6417 346.21 90.0966 350.328 103.128C354.023 114.464 357.402 125.164 364.898 133.534C378.623 137.242 389.709 146.141 396.994 159.596C403.54 171.674 406.391 186.824 404.807 201.126L404.807 201.444L404.701 201.762C402.062 209.178 397.944 215.323 392.982 220.62L384.747 220.62C390.976 214.899 396.044 208.331 399.106 200.067C400.478 187.036 397.839 173.263 391.926 162.351C385.275 149.955 375.456 142.115 362.786 138.937L361.942 138.725L361.308 138.089C352.545 128.66 348.639 116.583 344.838 104.823C340.72 92.0036 336.814 79.82 327.1 71.1326C301.022 47.8248 254.356 26.1062 232.184 50.6853L231.023 51.9567C216.559 68.0602 201.566 84.6935 179.606 85.8589C172.426 86.2826 164.825 86.2826 157.54 86.2826C135.896 86.2826 113.513 86.3886 94.4029 95.7117C87.7514 101.009 81.5222 107.683 74.6596 116.689C61.5677 133.852 52.1711 151.015 46.7865 167.542C44.5693 174.322 43.3024 181.315 41.9299 188.731L41.5075 191.168C39.3959 202.398 39.3959 211.827 41.4019 220.514L35.3839 220.514C34.4337 216.17 34.0114 211.615 34.0114 206.847C33.9058 201.762 34.5393 196.147 35.5951 190.108Z" fill="#78C3E9"/>
<path d="M18.371 187.839L18.8989 185.085C20.377 177.139 21.8552 168.981 24.3891 161.247C30.6183 142.283 40.8595 123.531 55.8518 103.825C63.7703 93.4429 71.0553 85.709 78.8682 79.5642L79.0793 79.3523L79.3961 79.2464C101.673 68.2282 126.907 68.3341 151.401 68.3341C159.742 68.3341 167.555 68.3341 175.368 67.9104C196.906 66.745 212.426 49.3701 227.419 32.6309L228.58 31.3595C241.25 17.163 260.782 13.5609 285.276 20.977C303.964 26.5921 324.763 38.6697 340.917 53.0782C352.847 63.6726 357.493 78.3989 362.033 92.5954C366.045 105.097 369.846 116.857 378.081 126.074C393.073 129.994 405.215 139.741 413.133 154.361C420.313 167.498 423.374 184.025 421.685 199.599L421.685 199.917L421.58 200.235C418.412 208.499 413.872 215.173 408.382 221L400.041 221C406.798 214.749 412.394 207.545 415.773 198.54C417.251 184.237 414.4 169.193 407.854 157.116C400.464 143.555 389.695 134.867 375.652 131.477L374.808 131.265L374.174 130.629C364.567 120.459 360.343 107.11 356.226 94.2905C351.686 80.1999 347.463 66.9569 336.799 57.4219C321.173 43.4372 301.219 31.8893 283.376 26.4861C267.961 21.8245 246.634 19.5997 232.698 35.1735L231.536 36.4449C215.699 54.1376 199.44 72.466 175.473 73.7373C167.555 74.1611 159.214 74.1611 151.19 74.1611C127.54 74.1611 103.046 74.1611 82.0355 84.3317C74.7506 90.1587 67.8879 97.4688 60.3917 107.322C45.8217 126.392 35.8972 144.614 29.8792 163.048C27.4509 170.465 26.0783 178.093 24.4947 186.144L23.9667 188.899C21.644 201.082 21.644 211.359 23.8612 221L17.8431 221C16.7874 216.232 16.365 211.359 16.3651 206.168C16.4706 200.447 17.1041 194.408 18.371 187.839Z" fill="#78C3E9"/>
<path d="M7.81321 156.374L7.81321 156.268C15.6261 134.443 27.1343 113.572 41.9154 94.0786C50.4674 82.8485 58.3858 74.4789 66.8322 67.8044L67.0434 67.5925L67.3601 67.4866C91.9602 55.4089 119.939 55.5148 147.073 55.6208C155.519 55.6208 163.649 55.7267 171.567 55.4089C193.95 54.0316 210.209 36.3389 225.835 19.2819C226.996 18.0106 228.158 16.7392 229.319 15.4679C242.517 -0.105935 263.527 -3.91994 290.028 4.23779C309.454 10.2766 332.259 23.2018 350.841 38.8816L350.947 38.9875C363.194 50.6414 368.262 66.2153 373.224 81.3653C377.659 95.0321 381.882 108.063 391.173 118.234C407.432 122.366 420.629 132.854 429.181 148.64C436.994 162.837 440.373 180.741 438.472 197.586L438.472 197.904L438.367 198.222C435.094 207.227 430.237 214.537 424.325 221L416.195 221C423.269 214.114 429.076 206.38 432.771 196.527C434.355 180.953 431.187 164.532 424.114 151.395C416.09 136.562 404.159 127.239 388.956 123.531L388.111 123.319L387.477 122.684C376.92 111.454 372.274 97.0451 367.734 83.0604C362.877 68.0163 358.232 53.9257 347.04 43.2253C328.986 28.0753 307.026 15.5738 288.338 9.7469C263.844 2.1189 245.579 5.29723 233.754 19.1759L233.648 19.2819C232.487 20.5532 231.325 21.8245 230.058 23.0959C213.588 41.0005 196.484 59.5408 171.778 61.1299L171.673 61.1299C163.543 61.4478 155.097 61.4478 146.862 61.3418C120.572 61.2359 93.3327 61.1299 69.9996 72.466C62.0811 78.7167 54.585 86.7684 46.3498 97.4688C31.9909 116.433 20.7995 136.774 13.0922 157.963C10.3471 167.074 8.23554 176.503 6.75742 185.932L6.75742 186.144C4.11792 198.222 4.11792 209.876 6.65183 220.894L0.633793 220.894C0.21146 219.199 -0.105282 217.398 -0.316433 215.597L-0.316432 192.289C0.000310352 189.852 0.422643 187.416 0.950536 185.085C2.7454 175.444 4.96256 165.803 7.81321 156.374Z" fill="#78C3E9"/>
<path d="M240.438 25.125C239.862 25.7081 239.188 26.139 239.188 26.9861C239.188 27.3239 239.282 27.5387 239.535 27.7847C240.01 28.2467 240.682 28.3125 241.312 28.3125" stroke="#020A13" stroke-width="4" stroke-linecap="round" stroke-linejoin="round"/>
<path d="M272.813 0.187399C273.87 0.187399 274.928 0.187399 275.986 0.187399C276.946 0.187399 277.989 0.0699056 278.938 0.215177C279.904 0.363222 280.821 0.374899 281.799 0.374899C282.223 0.374899 282.67 0.412708 283.09 0.347121C283.304 0.313761 283.985 0.293719 284.063 0.0623992" stroke="black" stroke-linecap="round" stroke-linejoin="round"/>
</g>
<defs>
<clipPath id="clip0">
<rect width="221" height="439" fill="white" transform="matrix(4.37114e-08 -1 -1 -4.37114e-08 439 221)"/>
</clipPath>
</defs>
</svg>
