<svg width="399" height="201" viewBox="0 0 399 201" fill="none" xmlns="http://www.w3.org/2000/svg">
<g opacity="0.15" clip-path="url(#clip0)">
<path d="M187.217 200.133C187.313 196.567 188.753 193.291 191.344 190.786C193.935 188.281 197.293 187.028 200.844 187.124C204.394 187.221 207.657 188.666 210.152 191.268C212.647 193.869 213.894 197.242 213.798 200.807C213.798 200.903 213.798 201 213.798 201.096L208.521 201.096C208.521 200.903 208.521 200.807 208.521 200.614C208.616 198.495 207.753 196.471 206.313 194.929C204.874 193.388 202.859 192.52 200.748 192.424C198.637 192.424 196.622 193.195 195.086 194.64C193.551 196.086 192.687 198.109 192.591 200.229C192.591 200.518 192.591 200.807 192.591 201L187.313 201C187.313 200.807 187.313 200.614 187.313 200.422C187.217 200.325 187.217 200.229 187.217 200.133Z" fill="#EDECC7"/>
<path d="M171.576 198.687C171.576 197.627 171.672 196.567 171.864 195.411C172.056 194.255 172.344 193.002 172.728 191.75C173.591 188.955 175.127 186.257 177.046 183.656C178.101 182.21 179.157 181.054 180.308 180.09L180.596 179.898C184.243 177.585 188.273 177.007 192.111 176.429C192.495 176.333 192.879 176.333 193.263 176.236C195.086 175.947 196.813 174.887 198.637 173.827C199.116 173.538 199.596 173.249 200.076 172.96C205.45 169.973 212.839 172.864 217.829 177.2C219.94 179.031 221.091 181.439 222.051 183.559C222.627 184.716 223.106 185.775 223.682 186.643C225.505 187.895 226.945 189.726 227.808 192.039C228.672 194.255 229.056 196.664 228.864 199.169L228.864 199.362L228.768 199.554C228.672 200.133 228.48 200.614 228.288 201.096L222.243 201.096C222.818 200.325 223.298 199.458 223.49 198.495C223.586 196.953 223.298 195.411 222.723 194.062C222.147 192.617 221.283 191.557 220.228 190.882L219.748 190.593L219.46 190.208C218.404 188.763 217.733 187.221 216.965 185.775C216.101 183.945 215.334 182.307 214.086 181.247C210.632 178.26 205.354 175.947 202.379 177.585C201.899 177.874 201.515 178.067 201.036 178.356C198.925 179.609 196.621 181.054 193.743 181.439C193.359 181.536 192.975 181.536 192.591 181.632C189.137 182.114 185.97 182.596 183.283 184.234C182.515 184.908 181.748 185.775 180.98 186.835C179.349 188.955 178.197 191.171 177.43 193.388C177.142 194.351 176.854 195.411 176.662 196.375C176.374 197.724 176.374 198.976 176.566 200.036L176.566 200.325C176.566 200.518 176.662 200.711 176.758 201L171.288 201C171.288 200.903 171.288 200.807 171.288 200.807C171.672 200.133 171.576 199.362 171.576 198.687Z" fill="#EDECC7"/>
<path d="M156.415 192.906C156.798 190.979 157.182 189.052 157.758 187.125C159.101 182.981 161.404 178.742 164.571 174.598C166.202 172.382 167.93 170.648 169.561 169.202L169.753 169.106L169.945 169.01C175.127 166.023 180.98 165.541 186.546 165.059C187.793 164.963 188.945 164.866 190.096 164.77C193.551 164.384 196.43 162.072 199.5 159.663C199.884 159.374 200.268 158.988 200.748 158.699C208.041 153.014 219.556 157.64 227.233 164.288C230.207 166.89 231.647 170.262 232.894 173.538C233.758 175.658 234.526 177.682 235.773 179.223C238.844 180.669 241.243 183.27 242.778 186.643C244.218 189.823 244.889 193.581 244.601 197.242L244.601 197.531L244.505 197.82C244.122 198.977 243.738 200.036 243.162 201L236.637 201C237.788 199.651 238.748 198.302 239.324 196.568C239.516 193.87 239.036 191.172 237.98 188.955C236.829 186.45 235.197 184.716 232.99 183.849L232.415 183.559L232.031 183.078C230.112 180.765 229.056 178.067 228 175.465C226.849 172.671 225.793 170.07 223.778 168.239C218.5 163.71 209 158.988 204.106 162.843C203.723 163.132 203.339 163.421 202.955 163.806C199.596 166.504 195.854 169.491 190.864 170.07C189.617 170.166 188.369 170.262 187.218 170.359C182.036 170.744 177.142 171.226 173.016 173.442C171.672 174.598 170.425 175.947 168.985 177.778C166.202 181.44 164.187 185.101 163.036 188.763C162.556 190.304 162.172 192.039 161.884 193.87C161.404 196.279 161.404 198.302 161.788 200.229L161.884 200.615C161.884 200.711 161.884 200.904 161.98 201L156.606 201C156.415 199.844 156.319 198.687 156.319 197.531C155.935 195.989 156.127 194.544 156.415 192.906Z" fill="#EDECC7"/>
<path d="M140.869 190.401L140.965 190.112C141.445 187.606 141.924 185.101 142.692 182.596C144.515 177.007 147.586 171.322 151.904 165.637C154.207 162.554 156.414 160.241 158.717 158.41L158.909 158.218L159.101 158.121C165.914 154.363 173.591 153.978 180.98 153.593C182.899 153.496 184.818 153.4 186.642 153.207C191.823 152.725 195.854 149.064 200.172 145.209C200.556 144.824 200.94 144.535 201.323 144.15C211.111 135.381 227.616 143.571 236.253 151.28C240.091 154.652 241.818 159.181 243.45 163.517C244.601 166.601 245.753 169.588 247.576 171.9C251.798 173.635 255.157 176.911 257.364 181.44C259.475 185.679 260.339 190.593 259.859 195.508L259.859 195.797L259.763 196.086C259.187 197.917 258.419 199.555 257.46 201L250.647 201C252.374 199.169 253.813 197.242 254.677 194.737C254.965 190.979 254.293 187.028 252.662 183.849C250.935 180.283 248.344 177.874 245.081 176.718L244.409 176.525L243.929 175.947C241.243 172.767 239.803 169.01 238.46 165.444C237.02 161.59 235.677 157.929 232.798 155.327C225.313 148.678 211.687 142.126 204.874 148.197C204.49 148.486 204.106 148.871 203.722 149.256C199.212 153.4 194.03 158.025 187.121 158.603C185.202 158.796 183.187 158.892 181.268 158.988C174.551 159.374 167.546 159.759 161.788 162.746C159.869 164.384 158.046 166.312 156.03 168.913C152.096 174.116 149.313 179.223 147.682 184.33C147.01 186.45 146.53 188.763 146.147 191.075L146.051 191.364C145.379 194.833 145.379 197.724 146.051 200.422L146.051 200.615L146.051 200.807L146.051 200.904L140.677 200.904C140.389 199.458 140.197 197.917 140.197 196.279C140.293 194.448 140.485 192.521 140.869 190.401Z" fill="#EDECC7"/>
<path d="M125.324 187.992L125.42 187.414C125.995 184.33 126.571 181.247 127.627 178.163C129.93 171.129 133.864 163.903 139.238 156.869C142.117 153.014 144.899 150.124 147.778 147.811L147.97 147.618L148.162 147.522C156.702 142.993 166.202 142.704 175.51 142.319C178.197 142.222 180.692 142.126 183.187 141.933C190.096 141.452 195.566 136.152 200.94 130.949L202.091 129.889C213.894 118.519 234.526 128.829 245.465 138.561C250.167 142.801 252.182 148.389 254.101 153.785C255.541 157.929 256.98 161.783 259.475 164.866C264.849 166.793 269.263 170.84 272.046 176.429C274.637 181.632 275.788 187.799 275.212 193.87L275.212 194.159L275.212 194.351C274.349 196.857 273.197 198.977 271.758 201L264.753 201C267.056 198.687 268.975 196.182 270.031 193.002C270.51 187.992 269.551 182.981 267.44 178.742C265.041 174.116 261.682 171.033 257.172 169.588L256.5 169.395L256.021 168.817C252.566 164.866 250.839 160.048 249.207 155.423C247.384 150.413 245.753 145.691 242.01 142.415C232.223 133.743 214.47 125.264 205.834 133.647L204.778 134.707C199.117 140.199 192.591 146.462 183.763 147.137C181.172 147.329 178.485 147.426 175.798 147.522C167.258 147.811 158.334 148.197 150.945 151.954C148.45 153.978 146.051 156.58 143.46 159.952C138.374 166.601 134.824 173.249 132.617 179.705C131.753 182.403 131.177 185.198 130.601 188.281L130.505 188.859C129.642 193.388 129.642 197.146 130.505 200.711L130.505 200.904L125.132 200.904C124.748 199.073 124.556 197.146 124.556 195.122C124.556 193.002 124.844 190.593 125.324 187.992Z" fill="#EDECC7"/>
<path d="M109.778 185.583L109.97 184.716C110.641 181.054 111.313 177.296 112.561 173.731C115.343 165.252 120.045 156.58 126.571 148.004C130.121 143.379 133.384 139.91 136.934 137.019L137.126 136.826L137.318 136.73C147.49 131.43 159.005 131.141 170.04 130.852C173.399 130.756 176.662 130.66 179.828 130.467C188.561 129.889 195.278 123.047 201.707 116.495L202.763 115.435C209 109.172 218.212 107.727 229.439 111.196C237.884 113.797 247.288 119.193 254.581 125.649C260.146 130.66 262.545 137.308 264.752 143.764C266.576 148.871 268.207 153.785 271.47 157.639C278.091 159.856 283.369 164.481 286.823 171.226C289.99 177.393 291.429 184.812 290.662 192.039L290.662 192.328L290.566 192.617C289.51 195.797 287.879 198.591 285.96 201L278.859 201C281.737 198.206 284.04 195.122 285.48 191.172C286.056 185.101 284.808 178.742 282.217 173.635C279.242 167.853 274.924 164.095 269.263 162.457L268.591 162.265L268.111 161.686C263.889 156.965 261.874 151.087 259.859 145.499C257.747 139.428 255.732 133.647 251.222 129.6C239.035 118.808 217.157 108.498 206.601 119.097L205.545 120.157C198.732 127.094 190.96 134.899 180.212 135.67C176.949 135.863 173.495 135.959 170.232 136.056C159.869 136.345 149.025 136.634 140.005 141.163C136.934 143.668 133.96 146.848 130.793 150.991C124.651 159.181 120.141 167.275 117.55 175.176C116.495 178.453 115.823 181.921 115.152 185.487L114.96 186.354C114 192.039 114 196.664 115.056 201L109.586 201C109.106 198.784 108.914 196.568 108.914 194.159C108.914 191.461 109.202 188.57 109.778 185.583Z" fill="#EDECC7"/>
<path d="M94.3286 183.077L94.5205 181.921C95.2882 177.682 96.1518 173.345 97.4953 169.106C100.758 159.181 106.324 149.064 114 138.946C118.127 133.454 121.965 129.407 126.091 126.131L126.283 125.938L126.475 125.842C138.374 119.771 151.712 119.578 164.667 119.289C168.793 119.193 172.632 119.193 176.47 118.904C187.026 118.229 194.894 109.943 202.571 101.945L203.627 100.789C219.364 84.4083 248.919 99.3435 263.793 112.544C270.223 118.326 272.909 126.131 275.5 133.647C277.611 139.813 279.531 145.691 283.465 150.22C291.238 152.629 297.475 158.025 301.601 165.83C305.344 173.056 306.975 181.632 306.111 190.112L306.111 190.401L306.015 190.69C304.672 194.544 302.657 197.916 300.258 200.807L293.061 200.807C296.515 197.531 299.298 193.869 300.93 189.244C301.601 182.018 300.162 174.405 296.995 168.335C293.445 161.494 288.167 157.061 281.354 155.134L280.586 154.941L280.106 154.363C275.116 148.871 272.813 142.03 270.51 135.381C268.111 128.154 265.808 121.409 260.339 116.495C245.945 103.68 219.94 91.4423 207.465 104.45L206.409 105.51C198.445 113.797 189.329 123.24 176.758 124.107C172.824 124.396 168.697 124.396 164.763 124.493C152.48 124.685 139.813 124.974 129.162 130.274C125.515 133.261 121.965 136.923 118.223 141.933C110.93 151.569 105.652 161.205 102.581 170.551C101.334 174.405 100.566 178.452 99.7983 182.692L99.6064 183.848C98.3589 190.304 98.3589 195.7 99.6064 200.807L94.1367 200.807C93.5609 198.205 93.369 195.604 93.369 192.81C93.273 189.919 93.6569 186.643 94.3286 183.077Z" fill="#EDECC7"/>
<path d="M78.8949 180.347L79.1828 178.902C80.0464 174.084 81.006 169.074 82.5414 164.352C86.2838 152.982 92.6171 141.419 101.445 129.76C106.147 123.497 110.562 118.872 115.264 115.114L115.455 114.921L115.743 114.825C129.274 107.984 144.531 107.791 159.405 107.598C164.203 107.502 168.713 107.502 173.223 107.213C185.506 106.442 194.718 96.7099 203.546 87.2669L204.602 86.1106C222.354 67.2247 256.132 84.2799 273.213 99.5042C280.602 106.056 283.481 114.921 286.36 123.593C288.759 130.82 291.062 137.661 295.668 142.961C304.592 145.563 311.789 151.633 316.587 160.594C320.809 168.785 322.632 178.517 321.673 188.152L321.673 188.441L321.577 188.73C319.849 193.452 317.45 197.306 314.572 200.679L307.279 200.679C311.213 196.921 314.476 192.681 316.491 187.285C317.259 178.902 315.627 170.134 311.885 163.003C307.663 155.102 301.521 149.899 293.557 147.779L292.789 147.586L292.309 147.008C286.551 140.745 283.961 132.844 281.37 125.135C278.587 116.848 275.996 108.947 269.663 103.358C252.966 88.4232 222.834 74.3551 208.44 89.6758L207.385 90.8321C198.269 100.564 187.905 111.645 173.511 112.512C168.905 112.801 164.107 112.801 159.501 112.898C145.395 113.091 130.809 113.283 118.43 119.45C114.208 122.919 110.082 127.159 105.764 132.94C97.1272 144.117 91.0817 155.198 87.5312 165.99C86.0918 170.423 85.2282 175.048 84.3646 179.866L84.0767 181.311C82.7333 188.73 82.7333 194.897 84.0767 200.679L78.607 200.679C78.0312 197.788 77.6474 194.801 77.6474 191.621C77.7434 188.056 78.1272 184.394 78.8949 180.347Z" fill="#EDECC7"/>
<path d="M63.2374 178.163L63.5253 176.429C64.4849 171.033 65.5404 165.444 67.3636 160.048C71.5859 147.329 78.6869 134.225 88.6667 121.12C94.0404 114.086 98.9344 108.787 104.308 104.643L104.5 104.451L104.788 104.354C119.95 96.7421 137.222 96.5494 153.823 96.453C159.293 96.453 164.475 96.3567 169.657 96.0676C183.763 95.2967 194.222 83.9267 204.202 73.0384L205.258 71.8821C225.121 50.3945 263.025 69.6659 282.217 86.8174C290.47 94.1405 293.732 104.162 296.899 113.894C299.586 122.18 302.177 129.889 307.551 136.056C317.722 138.946 325.879 145.691 331.157 155.712C336.051 164.866 338.162 175.851 337.01 186.739L337.01 187.028L336.914 187.317C334.995 192.617 332.116 197.049 328.758 201L321.273 201C325.783 196.76 329.525 191.942 331.732 185.872C332.692 176.333 330.773 166.312 326.455 158.314C321.657 149.256 314.556 143.475 305.343 141.066L304.576 140.873L304.096 140.295C297.571 133.261 294.692 124.3 291.813 115.628C288.742 106.185 285.768 97.3202 278.667 90.8643C259.571 73.8092 225.409 57.814 209.096 75.5436L208.04 76.6999C197.773 87.8773 186.162 100.5 169.849 101.367C164.571 101.656 159.101 101.753 153.823 101.753C137.894 101.849 121.389 102.042 107.283 108.979C102.389 112.834 97.7829 117.748 92.793 124.3C83.197 136.923 76.2879 149.546 72.2576 161.686C70.6263 166.697 69.6667 171.9 68.6111 177.296L68.3232 179.031C66.7879 187.414 66.7879 194.351 68.3232 200.904L62.8536 200.904C62.1819 197.628 61.798 194.255 61.798 190.69C61.9899 186.836 62.3738 182.692 63.2374 178.163Z" fill="#EDECC7"/>
<path d="M47.6921 175.755L48.0759 173.827C49.2274 167.853 50.379 161.59 52.2982 155.712C57.0002 141.548 64.9648 126.902 76.0002 112.352C81.9497 104.547 87.5154 98.6692 93.3689 94.0441L93.5608 93.8514L93.8487 93.755C110.738 85.372 129.834 85.2757 148.354 85.1793C154.495 85.1793 160.349 85.0829 166.106 84.7939C182.036 83.9267 193.647 71.1112 204.97 58.7776L206.025 57.6213C227.904 33.6285 269.935 55.0197 291.334 74.1946C300.45 82.2886 304 93.466 307.551 104.162C310.525 113.412 313.404 122.18 319.45 129.022C330.773 132.105 339.889 139.621 345.839 150.702C351.212 160.723 353.611 173.249 352.364 185.101L352.364 185.39L352.172 185.583C350.061 191.653 346.702 196.664 342.768 201L335.379 201C340.465 196.279 344.591 190.883 347.086 184.138C348.142 173.442 346.031 162.168 341.137 153.207C335.667 143.09 327.702 136.537 317.339 133.936L316.571 133.743L315.995 133.165C308.798 125.36 305.536 115.435 302.369 105.703C298.914 95.104 295.748 85.1793 287.687 78.0489C266.288 58.9703 228 41.048 209.768 61.0901L208.712 62.2464C197.293 74.7728 184.339 89.0336 166.298 89.9971C160.349 90.2862 154.207 90.3826 148.258 90.3826C130.409 90.4789 112.081 90.5753 96.3436 98.2838C90.8739 102.62 85.6921 108.112 80.1265 115.532C69.379 129.696 61.7022 143.764 57.1921 157.35C55.3689 162.939 54.3133 168.721 53.1618 174.791L52.778 176.718C51.0507 185.968 51.0507 193.773 52.778 201L47.3083 201C46.5406 197.338 46.1567 193.677 46.1567 189.726C46.2527 185.39 46.7325 180.765 47.6921 175.755Z" fill="#EDECC7"/>
<path d="M32.1469 173.249L32.5307 171.033C33.7782 164.384 35.0256 157.639 37.1367 151.087C42.3186 135.285 50.859 119.675 63.3337 103.294C69.859 94.6222 76.0004 88.2627 82.4297 83.1558L82.6216 82.9631L82.9095 82.8667C101.43 73.7128 122.541 73.6165 142.884 73.6165C149.793 73.6165 156.223 73.6165 162.652 73.2311C180.404 72.2675 193.263 58.0067 205.738 44.1313L206.793 42.9751C217.445 31.2196 233.758 28.2325 254.197 34.3993C269.743 39.1208 287.016 49.1419 300.546 61.1865C310.526 70.0513 314.46 82.2886 318.202 94.1405C321.561 104.451 324.632 114.183 331.445 121.795C343.92 125.167 353.995 133.261 360.617 145.499C366.566 156.483 369.157 170.262 367.718 183.27L367.718 183.559L367.622 183.849C365.223 190.593 361.48 196.182 356.97 201L349.485 201C355.147 195.797 359.753 189.823 362.536 182.307C363.783 170.455 361.384 157.929 356.011 148.004C349.965 136.73 341.041 129.6 329.526 126.709L328.758 126.516L328.182 125.938C320.218 117.362 316.667 106.378 313.213 95.6822C309.47 84.023 305.92 72.942 297.091 65.0407C273.389 43.8423 230.975 24.0892 210.824 46.4439L209.768 47.6002C196.622 62.2464 182.995 77.3744 163.036 78.4343C156.511 78.8198 149.601 78.8198 142.98 78.8198C123.309 78.8198 102.965 78.9161 85.5963 87.3955C79.5509 92.2133 73.8893 98.2838 67.6519 106.474C55.7529 122.084 47.2125 137.694 42.3186 152.725C40.3034 158.892 39.1519 165.252 37.9044 171.997L37.5206 174.213C35.6014 184.427 35.6014 193.002 37.4247 200.904L31.955 200.904C31.0913 196.953 30.7075 192.81 30.7075 188.474C30.6115 183.849 31.1873 178.742 32.1469 173.249Z" fill="#EDECC7"/>
<path d="M16.6972 170.84L17.177 168.335C18.5204 161.108 19.8638 153.689 22.1668 146.655C27.8285 129.407 37.1366 112.352 50.7628 94.4295C57.9598 84.9866 64.581 77.9525 71.682 72.3638L71.8739 72.1711L72.1618 72.0748C92.4093 62.0537 115.344 62.15 137.606 62.15C145.187 62.15 152.288 62.15 159.389 61.7646C178.965 60.7047 193.071 44.9022 206.697 29.6778L207.753 28.5216C219.268 15.6098 237.02 12.3336 259.283 19.0786C276.268 24.1855 295.172 35.1702 309.854 48.2747C320.697 57.9104 324.919 71.3039 329.046 84.2157C332.692 95.5858 336.147 106.281 343.632 114.664C357.258 118.23 368.293 127.094 375.49 140.392C382.015 152.34 384.798 167.372 383.263 181.536L383.263 181.825L383.167 182.114C380.288 189.63 376.162 195.7 371.172 201L363.591 201C369.733 195.315 374.818 188.763 377.889 180.572C379.233 167.564 376.642 153.882 370.692 142.897C363.975 130.563 354.187 122.662 341.424 119.579L340.657 119.386L340.081 118.808C331.349 109.558 327.51 97.4166 323.768 85.7574C319.642 72.942 315.803 60.8974 306.111 52.2253C291.909 39.5062 273.773 29.0033 257.556 24.0892C243.546 19.8495 224.162 17.826 211.495 31.9904L210.44 33.1467C196.046 49.2382 181.268 65.908 159.485 67.0642C152.288 67.4497 144.707 67.4497 137.414 67.4497C115.919 67.4497 93.6567 67.4497 74.5608 76.6999C67.9396 81.9995 61.7022 88.6481 54.8891 97.6093C41.6466 114.953 32.6265 131.527 27.1568 148.293C24.9497 155.038 23.7022 161.976 22.2628 169.299L21.783 171.804C19.6719 182.885 19.6719 192.232 21.687 201L16.2174 201C15.2578 196.664 14.8739 192.232 14.8739 187.51C14.9699 182.307 15.5457 176.814 16.6972 170.84Z" fill="#EDECC7"/>
<path d="M7.10132 142.222L7.10132 142.126C14.2023 122.277 24.6619 103.294 38.0963 85.5647C45.869 75.3509 53.066 67.7387 60.7427 61.6683L60.9347 61.4756L61.2225 61.3792C83.5811 50.3945 109.01 50.4909 133.672 50.5872C141.349 50.5872 148.738 50.6836 155.935 50.3945C176.278 49.1419 191.056 33.0504 205.258 17.5369C206.313 16.3806 207.369 15.2244 208.425 14.0681C220.42 -0.0963461 239.515 -3.5652 263.601 3.85426C281.258 9.3466 301.985 21.1021 318.874 35.3629L318.97 35.4593C330.101 46.0585 334.707 60.2229 339.217 74.0019C343.248 86.4319 347.086 98.2838 355.531 107.534C370.308 111.292 382.303 120.831 390.076 135.188C397.177 148.1 400.248 164.384 398.521 179.705L398.521 179.994L398.425 180.283C395.45 188.474 391.036 195.122 385.662 201L378.273 201C384.702 194.737 389.98 187.703 393.339 178.742C394.778 164.577 391.899 149.642 385.47 137.694C378.177 124.204 367.334 115.724 353.515 112.352L352.748 112.159L352.172 111.581C342.576 101.367 338.354 88.2627 334.228 75.5436C329.813 61.861 325.591 49.0455 315.42 39.3135C299.01 25.5345 279.051 14.1644 262.066 8.86482C239.803 1.92714 223.202 4.81784 212.455 17.4406L212.359 17.5369C211.303 18.6932 210.248 19.8495 209.096 21.0058C194.127 37.29 178.581 54.1524 156.127 55.5978L156.031 55.5978C148.642 55.8869 140.965 55.8869 133.48 55.7905C109.586 55.6941 84.8286 55.5978 63.6215 65.908C56.4246 71.593 49.6114 78.9161 42.1266 88.6481C29.0761 105.896 18.9044 124.396 11.8993 143.668C9.40436 151.954 7.48517 160.53 6.14172 169.106L6.14172 169.299C3.74274 180.283 3.74274 190.883 6.04578 200.904L0.57605 200.904C0.19223 199.362 -0.0956421 197.724 -0.287567 196.086L-0.287567 174.887C0.000305514 172.671 0.384156 170.455 0.863953 168.335C2.49527 159.567 4.51044 150.798 7.10132 142.222Z" fill="#EDECC7"/>
</g>
<defs>
<clipPath id="clip0">
<rect width="201" height="399" fill="white" transform="matrix(1.19249e-08 -1 -1 -1.19249e-08 399 201)"/>
</clipPath>
</defs>
</svg>
