<svg width="420" height="211" viewBox="0 0 420 211" fill="none" xmlns="http://www.w3.org/2000/svg">
<g opacity="0.15" clip-path="url(#clip0)">
<path d="M197.071 210.09C197.172 206.347 198.687 202.908 201.414 200.278C204.142 197.648 207.677 196.333 211.414 196.434C215.152 196.535 218.586 198.053 221.212 200.784C223.839 203.515 225.152 207.055 225.051 210.798C225.051 210.899 225.051 211 225.051 211.101L219.495 211.101C219.495 210.899 219.495 210.798 219.495 210.595C219.596 208.37 218.687 206.246 217.172 204.627C215.657 203.009 213.536 202.099 211.313 201.998C209.091 201.998 206.97 202.807 205.354 204.324C203.738 205.841 202.829 207.965 202.728 210.191C202.728 210.494 202.728 210.798 202.728 211L197.172 211C197.172 210.798 197.172 210.595 197.172 210.393C197.071 210.292 197.071 210.191 197.071 210.09Z" fill="#4FC9B6"/>
<path d="M180.606 208.572C180.606 207.46 180.707 206.347 180.909 205.133C181.111 203.919 181.414 202.604 181.818 201.289C182.728 198.356 184.344 195.524 186.364 192.793C187.475 191.276 188.586 190.062 189.798 189.05L190.101 188.848C193.94 186.42 198.182 185.813 202.222 185.207C202.627 185.105 203.031 185.105 203.435 185.004C205.354 184.701 207.172 183.588 209.091 182.475C209.596 182.172 210.101 181.869 210.606 181.565C216.263 178.429 224.041 181.464 229.293 186.016C231.515 187.938 232.728 190.466 233.738 192.692C234.344 193.905 234.849 195.018 235.455 195.928C237.374 197.243 238.889 199.165 239.798 201.593C240.707 203.919 241.111 206.448 240.909 209.078L240.909 209.28L240.808 209.483C240.707 210.09 240.505 210.595 240.303 211.101L233.94 211.101C234.546 210.292 235.051 209.382 235.253 208.37C235.354 206.752 235.051 205.133 234.445 203.717C233.839 202.2 232.93 201.087 231.818 200.379L231.313 200.076L231.01 199.671C229.899 198.154 229.192 196.535 228.384 195.018C227.475 193.096 226.667 191.377 225.354 190.264C221.717 187.128 216.162 184.701 213.031 186.42C212.526 186.724 212.121 186.926 211.616 187.23C209.394 188.545 206.97 190.062 203.94 190.466C203.536 190.568 203.132 190.568 202.728 190.669C199.091 191.174 195.758 191.68 192.93 193.4C192.121 194.108 191.313 195.018 190.505 196.131C188.788 198.356 187.576 200.683 186.768 203.009C186.465 204.021 186.162 205.133 185.96 206.145C185.657 207.561 185.657 208.876 185.859 209.988L185.859 210.292C185.859 210.494 185.96 210.696 186.061 211L180.303 211C180.303 210.899 180.303 210.798 180.303 210.798C180.707 210.09 180.606 209.28 180.606 208.572Z" fill="#4FC9B6"/>
<path d="M164.647 202.503C165.051 200.48 165.455 198.457 166.061 196.434C167.475 192.085 169.899 187.634 173.233 183.285C174.95 180.958 176.768 179.138 178.485 177.62L178.687 177.519L178.889 177.418C184.344 174.282 190.505 173.777 196.364 173.271C197.677 173.17 198.889 173.069 200.101 172.967C203.738 172.563 206.768 170.135 210 167.606C210.404 167.303 210.808 166.898 211.314 166.595C218.99 160.627 231.112 165.482 239.192 172.462C242.324 175.193 243.839 178.733 245.152 182.172C246.061 184.397 246.869 186.522 248.182 188.14C251.415 189.657 253.94 192.388 255.556 195.929C257.071 199.267 257.778 203.211 257.475 207.055L257.475 207.359L257.374 207.662C256.97 208.876 256.566 209.988 255.96 211L249.091 211C250.303 209.584 251.314 208.168 251.92 206.347C252.122 203.515 251.617 200.683 250.505 198.356C249.293 195.726 247.576 193.906 245.253 192.995L244.647 192.692L244.243 192.186C242.223 189.758 241.112 186.926 240 184.195C238.788 181.262 237.677 178.531 235.556 176.609C230 171.855 220 166.898 214.849 170.944C214.445 171.248 214.041 171.551 213.637 171.956C210.101 174.788 206.162 177.924 200.91 178.531C199.596 178.632 198.283 178.733 197.071 178.834C191.617 179.239 186.465 179.744 182.122 182.071C180.707 183.285 179.394 184.701 177.879 186.623C174.95 190.466 172.829 194.31 171.617 198.154C171.112 199.772 170.707 201.593 170.404 203.515C169.899 206.044 169.899 208.168 170.303 210.191L170.404 210.595C170.404 210.697 170.404 210.899 170.505 211L164.849 211C164.647 209.786 164.546 208.572 164.546 207.359C164.142 205.74 164.344 204.223 164.647 202.503Z" fill="#4FC9B6"/>
<path d="M148.283 199.873L148.384 199.57C148.889 196.94 149.394 194.31 150.202 191.68C152.121 185.814 155.354 179.846 159.899 173.878C162.323 170.641 164.647 168.213 167.071 166.291L167.273 166.089L167.475 165.988C174.647 162.043 182.727 161.639 190.505 161.234C192.525 161.133 194.546 161.032 196.465 160.829C201.919 160.324 206.162 156.48 210.707 152.434C211.111 152.029 211.515 151.726 211.919 151.321C222.222 142.116 239.596 150.714 248.687 158.806C252.727 162.347 254.546 167.101 256.263 171.652C257.475 174.889 258.687 178.025 260.606 180.453C265.051 182.273 268.586 185.712 270.909 190.466C273.131 194.917 274.041 200.076 273.536 205.234L273.536 205.538L273.435 205.841C272.828 207.763 272.02 209.483 271.01 211L263.839 211C265.657 209.078 267.172 207.055 268.081 204.425C268.384 200.48 267.677 196.333 265.96 192.995C264.142 189.253 261.414 186.724 257.98 185.51L257.273 185.308L256.768 184.701C253.94 181.363 252.424 177.418 251.01 173.675C249.495 169.629 248.081 165.786 245.051 163.055C237.172 156.075 222.828 149.197 215.657 155.57C215.253 155.873 214.849 156.278 214.445 156.682C209.697 161.032 204.243 165.887 196.97 166.494C194.95 166.696 192.828 166.797 190.808 166.898C183.738 167.303 176.364 167.708 170.303 170.843C168.283 172.563 166.364 174.586 164.243 177.317C160.101 182.779 157.172 188.14 155.455 193.501C154.748 195.726 154.243 198.154 153.839 200.581L153.738 200.885C153.03 204.526 153.03 207.561 153.738 210.393L153.738 210.595L153.738 210.798L153.738 210.899L148.081 210.899C147.778 209.382 147.576 207.763 147.576 206.044C147.677 204.122 147.879 202.099 148.283 199.873Z" fill="#4FC9B6"/>
<path d="M131.92 197.345L132.021 196.738C132.627 193.501 133.233 190.264 134.344 187.027C136.768 179.643 140.909 172.057 146.566 164.673C149.596 160.627 152.526 157.593 155.556 155.165L155.758 154.963L155.96 154.861C164.95 150.107 174.95 149.804 184.748 149.399C187.576 149.298 190.202 149.197 192.829 148.995C200.101 148.489 205.859 142.926 211.516 137.464L212.728 136.351C225.152 124.415 246.869 135.238 258.384 145.454C263.334 149.905 265.455 155.772 267.475 161.436C268.99 165.786 270.505 169.832 273.132 173.069C278.788 175.092 283.435 179.34 286.364 185.207C289.091 190.669 290.303 197.142 289.697 203.515L289.697 203.818L289.697 204.021C288.788 206.651 287.576 208.876 286.061 211L278.687 211C281.112 208.572 283.132 205.942 284.243 202.605C284.748 197.345 283.738 192.085 281.516 187.634C278.99 182.779 275.455 179.542 270.707 178.025L270 177.823L269.495 177.216C265.859 173.069 264.041 168.011 262.324 163.156C260.404 157.896 258.687 152.94 254.748 149.5C244.445 140.397 225.758 131.496 216.667 140.296L215.556 141.408C209.596 147.174 202.728 153.749 193.435 154.457C190.707 154.659 187.879 154.76 185.051 154.861C176.061 155.165 166.667 155.57 158.889 159.514C156.263 161.639 153.738 164.37 151.011 167.91C145.657 174.889 141.92 181.869 139.596 188.646C138.687 191.478 138.081 194.411 137.475 197.648L137.374 198.255C136.465 203.009 136.465 206.954 137.374 210.697L137.374 210.899L131.718 210.899C131.314 208.977 131.112 206.954 131.112 204.83C131.112 202.605 131.415 200.076 131.92 197.345Z" fill="#4FC9B6"/>
<path d="M115.555 194.816L115.757 193.906C116.465 190.062 117.172 186.117 118.485 182.374C121.414 173.473 126.364 164.37 133.232 155.367C136.97 150.512 140.404 146.871 144.141 143.836L144.343 143.634L144.545 143.533C155.252 137.969 167.374 137.666 178.99 137.362C182.525 137.261 185.96 137.16 189.293 136.958C198.485 136.351 205.555 129.169 212.323 122.291L213.434 121.178C220 114.604 229.697 113.086 241.515 116.728C250.404 119.459 260.303 125.123 267.98 131.9C273.838 137.16 276.364 144.14 278.687 150.917C280.606 156.278 282.323 161.436 285.758 165.482C292.727 167.809 298.283 172.664 301.919 179.744C305.253 186.218 306.768 194.007 305.96 201.593L305.96 201.896L305.859 202.2C304.747 205.538 303.03 208.471 301.01 211L293.535 211C296.566 208.067 298.99 204.83 300.505 200.683C301.111 194.31 299.798 187.634 297.071 182.273C293.939 176.204 289.394 172.259 283.434 170.54L282.727 170.337L282.222 169.731C277.778 164.774 275.657 158.604 273.535 152.737C271.313 146.365 269.192 140.296 264.444 136.047C251.616 124.719 228.586 113.895 217.475 125.022L216.364 126.135C209.192 133.418 201.01 141.611 189.697 142.42C186.263 142.622 182.626 142.723 179.192 142.825C168.283 143.128 156.869 143.431 147.374 148.186C144.141 150.815 141.01 154.153 137.677 158.503C131.212 167.101 126.465 175.597 123.737 183.892C122.626 187.331 121.919 190.972 121.212 194.715L121.01 195.625C120 201.593 120 206.448 121.111 211L115.353 211C114.848 208.674 114.646 206.347 114.646 203.818C114.646 200.986 114.949 197.952 115.555 194.816Z" fill="#4FC9B6"/>
<path d="M99.2932 192.186L99.4952 190.972C100.303 186.521 101.212 181.97 102.627 177.519C106.061 167.101 111.919 156.48 120 145.859C124.344 140.093 128.384 135.845 132.728 132.406L132.93 132.204L133.132 132.102C145.657 125.73 159.697 125.528 173.334 125.224C177.677 125.123 181.717 125.123 185.758 124.82C196.869 124.112 205.152 115.413 213.233 107.017L214.344 105.803C230.909 88.6078 262.02 104.286 277.677 118.144C284.445 124.213 287.273 132.406 290 140.296C292.222 146.769 294.243 152.939 298.384 157.694C306.566 160.222 313.132 165.887 317.475 174.08C321.414 181.666 323.132 190.669 322.222 199.57L322.222 199.873L322.121 200.177C320.707 204.223 318.586 207.763 316.061 210.798L308.485 210.798C312.121 207.358 315.051 203.515 316.768 198.66C317.475 191.073 315.96 183.082 312.627 176.71C308.889 169.528 303.334 164.875 296.162 162.852L295.354 162.65L294.849 162.043C289.596 156.277 287.172 149.096 284.748 142.116C282.222 134.53 279.798 127.45 274.041 122.291C258.889 108.838 231.515 95.9917 218.384 109.647L217.273 110.76C208.889 119.459 199.293 129.371 186.061 130.282C181.919 130.585 177.576 130.585 173.435 130.686C160.505 130.889 147.172 131.192 135.96 136.755C132.121 139.891 128.384 143.735 124.445 148.995C116.768 159.11 111.212 169.225 107.98 179.036C106.667 183.082 105.859 187.331 105.051 191.781L104.849 192.995C103.536 199.772 103.536 205.437 104.849 210.798L99.0912 210.798C98.4851 208.067 98.2831 205.335 98.2831 202.402C98.1821 199.368 98.5861 195.928 99.2932 192.186Z" fill="#4FC9B6"/>
<path d="M82.9297 189.657L83.2327 188.14C84.1418 183.082 85.1519 177.823 86.7681 172.866C90.7075 160.93 97.3741 148.792 106.667 136.553C111.617 129.978 116.263 125.123 121.213 121.178L121.415 120.976L121.718 120.875C135.96 113.693 152.021 113.491 167.677 113.289C172.728 113.187 177.475 113.187 182.223 112.884C195.152 112.075 204.849 101.859 214.142 91.9458L215.253 90.732C233.94 70.9065 269.495 88.8102 287.475 104.792C295.253 111.67 298.283 120.976 301.314 130.08C303.839 137.666 306.263 144.848 311.112 150.411C320.505 153.142 328.081 159.514 333.132 168.921C337.576 177.519 339.495 187.735 338.485 197.85L338.485 198.154L338.384 198.457C336.566 203.414 334.041 207.46 331.011 211L323.334 211C327.475 207.055 330.909 202.605 333.031 196.94C333.839 188.14 332.122 178.935 328.182 171.45C323.738 163.156 317.273 157.694 308.889 155.468L308.081 155.266L307.576 154.659C301.516 148.084 298.788 139.79 296.061 131.698C293.132 122.999 290.404 114.705 283.738 108.838C266.162 93.1596 234.445 78.3917 219.293 94.4746L218.182 95.6884C208.586 105.905 197.677 117.537 182.526 118.447C177.677 118.751 172.627 118.751 167.778 118.852C152.93 119.054 137.576 119.256 124.546 125.73C120.101 129.372 115.758 133.822 111.212 139.891C102.122 151.625 95.758 163.257 92.0206 174.586C90.5054 179.239 89.5963 184.094 88.6873 189.151L88.3842 190.669C86.9701 198.457 86.9701 204.931 88.3842 211L82.6266 211C82.0206 207.965 81.6165 204.83 81.6165 201.492C81.7176 197.749 82.1216 193.906 82.9297 189.657Z" fill="#4FC9B6"/>
<path d="M66.5657 187.027L66.8687 185.207C67.8788 179.542 68.9899 173.675 70.9091 168.011C75.3536 154.659 82.8283 140.903 93.3334 127.146C98.9899 119.762 104.141 114.199 109.798 109.849L110 109.647L110.303 109.546C126.263 101.555 144.444 101.353 161.919 101.252C167.677 101.252 173.131 101.151 178.586 100.847C193.434 100.038 204.444 88.1021 214.95 76.6721L216.061 75.4583C236.97 52.9017 276.869 73.1318 297.071 91.1366C305.758 98.8241 309.192 109.344 312.525 119.56C315.354 128.259 318.081 136.351 323.737 142.825C334.444 145.859 343.03 152.94 348.586 163.459C353.737 173.069 355.96 184.6 354.748 196.03L354.748 196.333L354.647 196.637C352.626 202.2 349.596 206.853 346.061 211L338.182 211C342.929 206.549 346.869 201.492 349.192 195.119C350.202 185.105 348.182 174.586 343.636 166.19C338.586 156.682 331.111 150.613 321.414 148.084L320.606 147.882L320.101 147.275C313.232 139.891 310.202 130.484 307.172 121.381C303.939 111.468 300.808 102.162 293.333 95.385C273.232 77.4813 237.273 60.6903 220.101 79.302L218.99 80.5158C208.182 92.2493 195.96 105.5 178.788 106.41C173.232 106.714 167.475 106.815 161.919 106.815C145.152 106.916 127.778 107.118 112.929 114.401C107.778 118.447 102.929 123.606 97.6768 130.484C87.5758 143.735 80.3031 156.986 76.0606 169.731C74.3435 174.99 73.3334 180.453 72.2223 186.117L71.9192 187.938C70.3031 196.738 70.3031 204.021 71.9192 210.899L66.1617 210.899C65.4546 207.46 65.0505 203.919 65.0505 200.177C65.2526 196.131 65.6566 191.781 66.5657 187.027Z" fill="#4FC9B6"/>
<path d="M50.2022 184.499L50.6062 182.476C51.8184 176.204 53.0305 169.629 55.0507 163.459C60.0002 148.59 68.384 133.215 80.0002 117.942C86.2628 109.748 92.1214 103.578 98.283 98.7229L98.4851 98.5206L98.7881 98.4195C116.566 89.6194 136.667 89.5182 156.162 89.4171C162.626 89.4171 168.788 89.3159 174.849 89.0125C191.616 88.1021 203.839 74.6491 215.758 61.7018L216.869 60.488C239.899 35.3016 284.142 57.757 306.667 77.8859C316.263 86.3826 320 98.116 323.738 109.344C326.869 119.054 329.899 128.259 336.263 135.441C348.182 138.677 357.778 146.567 364.041 158.199C369.697 168.719 372.222 181.869 370.909 194.31L370.909 194.614L370.707 194.816C368.485 201.188 364.95 206.448 360.808 211L353.031 211C358.384 206.044 362.727 200.379 365.354 193.299C366.465 182.071 364.243 170.236 359.091 160.829C353.334 150.209 344.95 143.33 334.041 140.599L333.233 140.397L332.626 139.79C325.051 131.597 321.616 121.178 318.283 110.962C314.647 99.8356 311.313 89.4171 302.828 81.9319C280.303 61.9041 240 43.0901 220.808 64.1294L219.697 65.3433C207.677 78.4928 194.041 93.4631 175.051 94.4746C168.788 94.7781 162.323 94.8792 156.061 94.8792C137.273 94.9804 117.98 95.0815 101.414 103.174C95.6567 107.725 90.2022 113.491 84.3436 121.279C73.0305 136.149 64.9496 150.917 60.2022 165.179C58.283 171.046 57.1719 177.115 55.9598 183.487L55.5558 185.51C53.7375 195.221 53.7375 203.414 55.5558 211L49.7982 211C48.9901 207.156 48.586 203.313 48.586 199.165C48.687 194.614 49.1921 189.758 50.2022 184.499Z" fill="#4FC9B6"/>
<path d="M33.8389 181.869L34.2429 179.542C35.556 172.563 36.8691 165.482 39.0914 158.604C44.5459 142.015 53.5358 125.629 66.6671 108.433C73.5358 99.3298 80.0005 92.6539 86.7682 87.2929L86.9702 87.0906L87.2732 86.9895C106.768 77.3802 128.99 77.279 150.405 77.279C157.677 77.279 164.445 77.279 171.213 76.8744C189.899 75.8629 203.435 60.8926 216.566 46.327L217.677 45.1132C228.889 32.7728 246.061 29.6371 267.576 36.1108C283.94 41.0671 302.122 51.5868 316.364 64.2306C326.869 73.5365 331.011 86.3826 334.95 98.8241C338.485 109.647 341.718 119.863 348.889 127.854C362.021 131.395 372.627 139.891 379.596 152.737C385.859 164.268 388.586 178.733 387.071 192.388L387.071 192.692L386.97 192.995C384.445 200.076 380.506 205.942 375.758 211L367.879 211C373.839 205.538 378.687 199.267 381.617 191.377C382.93 178.935 380.405 165.786 374.748 155.367C368.384 143.533 358.99 136.047 346.869 133.013L346.061 132.811L345.455 132.204C337.071 123.201 333.334 111.67 329.697 100.442C325.758 88.2033 322.021 76.571 312.728 68.2766C287.778 46.0235 243.132 25.2877 221.92 48.7546L220.809 49.9684C206.97 65.3433 192.627 81.2239 171.617 82.3365C164.748 82.7411 157.475 82.7411 150.506 82.7411C129.798 82.7411 108.384 82.8423 90.1015 91.7435C83.7378 96.8011 77.7783 103.174 71.2126 111.771C58.6874 128.158 49.6974 144.544 44.5459 160.324C42.4247 166.797 41.2126 173.473 39.8995 180.554L39.4954 182.88C37.4752 193.602 37.4752 202.604 39.3944 210.899L33.6368 210.899C32.7278 206.752 32.3237 202.402 32.3237 197.85C32.2227 192.995 32.8288 187.634 33.8389 181.869Z" fill="#4FC9B6"/>
<path d="M17.576 179.34L18.081 176.71C19.4951 169.124 20.9093 161.335 23.3335 153.951C29.2931 135.845 39.0911 117.942 53.4345 99.1275C61.0103 89.2148 67.98 81.8308 75.4547 75.964L75.6568 75.7617L75.9598 75.6606C97.2729 65.1409 121.414 65.2421 144.849 65.2421C152.828 65.2421 160.303 65.2421 167.778 64.8375C188.384 63.7248 203.233 47.1361 217.576 31.1543L218.687 29.9406C230.808 16.3864 249.495 12.9473 272.929 20.0278C290.808 25.3888 310.707 36.9199 326.162 50.6764C337.576 60.7915 342.02 74.8514 346.364 88.4056C350.202 100.341 353.839 111.569 361.717 120.369C376.061 124.112 387.677 133.418 395.253 147.376C402.121 159.919 405.051 175.698 403.435 190.568L403.435 190.871L403.334 191.174C400.303 199.064 395.96 205.437 390.707 211L382.727 211C389.192 205.032 394.546 198.154 397.778 189.556C399.192 175.901 396.465 161.537 390.202 150.006C383.132 137.059 372.828 128.765 359.394 125.528L358.586 125.326L357.98 124.719C348.788 115.008 344.748 102.263 340.808 90.024C336.465 76.571 332.424 63.9271 322.222 54.8236C307.273 41.4717 288.182 30.4463 271.111 25.2876C256.364 20.837 235.96 18.7129 222.626 33.582L221.515 34.7958C206.364 51.6879 190.808 69.187 167.879 70.4008C160.303 70.8054 152.323 70.8054 144.647 70.8054C122.02 70.8054 98.586 70.8054 78.485 80.5158C71.5153 86.0791 64.9497 93.0585 57.778 102.465C43.8386 120.673 34.3436 138.07 28.586 155.671C26.2628 162.751 24.9497 170.034 23.4345 177.721L22.9295 180.351C20.7072 191.984 20.7072 201.795 22.8285 211L17.0709 211C16.0608 206.448 15.6568 201.795 15.6568 196.839C15.7578 191.377 16.3638 185.611 17.576 179.34Z" fill="#4FC9B6"/>
<path d="M7.47443 149.298L7.47443 149.197C14.9492 128.36 25.9593 108.433 40.1007 89.8217C48.2825 79.0997 55.8583 71.1088 63.9391 64.7363L64.1411 64.534L64.4441 64.4329C87.9795 52.9017 114.747 53.0029 140.707 53.104C148.788 53.104 156.565 53.2052 164.141 52.9017C185.555 51.5868 201.111 34.6946 216.06 18.4094C217.171 17.1956 218.283 15.9818 219.394 14.768C232.02 -0.101128 252.121 -3.74255 277.474 4.04604C296.06 9.81162 317.879 22.152 335.656 37.1223L335.757 37.2234C347.474 48.35 352.323 63.2191 357.07 77.6836C361.313 90.732 365.353 103.174 374.242 112.884C389.798 116.829 402.424 126.843 410.606 141.914C418.081 155.468 421.313 172.563 419.495 188.646L419.495 188.949L419.394 189.253C416.262 197.85 411.616 204.83 405.959 211L398.182 211C404.949 204.425 410.505 197.041 414.04 187.634C415.555 172.765 412.525 157.087 405.757 144.544C398.081 130.383 386.666 121.482 372.121 117.942L371.313 117.739L370.707 117.132C360.606 106.41 356.161 92.6539 351.818 79.302C347.171 64.9387 342.727 51.4856 332.02 41.2694C314.747 26.8049 293.737 14.8692 275.858 9.30587C252.424 2.02303 234.949 5.05755 223.636 18.3083L223.535 18.4094C222.424 19.6232 221.313 20.837 220.101 22.0508C204.343 39.1453 187.979 56.8466 164.343 58.3639L164.242 58.3639C156.464 58.6673 148.384 58.6673 140.505 58.5662C115.353 58.465 89.2926 58.3639 66.9694 69.187C59.3936 75.1548 52.2219 82.8423 44.3431 93.0585C30.6057 111.164 19.8987 130.585 12.5249 150.815C9.89865 159.514 7.87845 168.517 6.46433 177.519L6.46433 177.721C3.93906 189.253 3.93906 200.379 6.36331 210.899L0.605713 210.899C0.20166 209.28 -0.101349 207.561 -0.303375 205.841L-0.303374 183.588C-0.000334393 181.262 0.403718 178.935 0.908754 176.71C2.62595 167.505 4.74716 158.301 7.47443 149.298Z" fill="#4FC9B6"/>
</g>
<defs>
<clipPath id="clip0">
<rect width="211" height="420" fill="white" transform="matrix(4.37114e-08 -1 -1 -4.37114e-08 420 211)"/>
</clipPath>
</defs>
</svg>
