<?xml version="1.0" encoding="utf-8"?>
<!-- Generator: Adobe Illustrator 17.0.0, SVG Export Plug-In . SVG Version: 6.00 Build 0)  -->
<!DOCTYPE svg PUBLIC "-//W3C//DTD SVG 1.1//EN" "http://www.w3.org/Graphics/SVG/1.1/DTD/svg11.dtd">
<svg version="1.1" id="Layer_1" xmlns="http://www.w3.org/2000/svg" xmlns:xlink="http://www.w3.org/1999/xlink" x="0px" y="0px"
	 width="200px" height="110px" viewBox="0 0 200 110" enable-background="new 0 0 200 110" xml:space="preserve">
<g>
	<path fill="none" d="M20.521,26.942c-0.431,0.484-0.851,0.97-1.278,1.463c0.531,0,1.061,0,1.592,0
		C20.731,27.914,20.627,27.43,20.521,26.942z"/>
	<path fill="none" d="M27.448,46.814c-0.925-1.261-2.261-2.184-3.773-2.604c-2.464-0.69-5.313-0.222-7.209,1.555
		c-1.675,1.462-2.494,3.819-2.608,5.789c5.028,0,10.055,0,15.08,0C28.773,50.075,28.424,48.216,27.448,46.814z"/>
	<path fill="none" d="M117.54,45.898c-1.633,1.459-2.435,3.646-2.546,5.795c5.028,0,10.056,0.002,15.084-0.002
		c-0.201-2.022-0.696-4.187-2.225-5.642C125.188,43.283,120.299,43.251,117.54,45.898z"/>
	<path fill="none" d="M127.213,27.116c-0.417,0.486-0.838,0.968-1.256,1.452c0.528,0.003,1.058,0.006,1.589,0.003
		C127.444,28.084,127.334,27.598,127.213,27.116z"/>
	<path fill="none" d="M100.653,27.316c-0.48,1.355-1.025,2.686-1.529,4.032c0.793-0.014,1.588,0.035,2.38-0.027
		c0.288-0.007,0.585-0.166,0.661-0.463c0.426-1.065,0.845-2.133,1.251-3.207C102.669,26.989,101.557,27.395,100.653,27.316z"/>
	<path fill="none" d="M47.239,28.523c0.447-0.048,0.522-0.534,0.654-0.873c-0.728-0.667-1.834-0.232-2.724-0.356
		c-0.166,0.426-0.33,0.851-0.493,1.278C45.53,28.549,46.39,28.63,47.239,28.523z"/>
	<path fill="none" d="M72.412,62.958c1.53,1.469,3.814,2.094,5.875,1.579c1.699-0.417,3.116-1.609,4.089-3.028
		c1.151-1.738,1.541-3.854,1.675-5.901c0.106-2.077,0.026-4.192-0.539-6.205c-0.421-1.547-1.253-2.997-2.482-4.042
		c-1.394-1.248-3.362-1.818-5.205-1.488c-1.98,0.391-3.565,1.872-4.621,3.529c-1.534,2.565-1.734,5.669-1.578,8.583
		C69.779,58.509,70.44,61.219,72.412,62.958z"/>
	<path fill="#D92B24" d="M17.92,30.055c1.09-0.015,2.183-0.019,3.275,0.003c0.168,0.915,0.36,1.825,0.539,2.738
		c1.702,0.002,3.404,0.057,5.106,0.056c-0.476-2.322-0.958-4.938-1.439-6.909h-7.869c-2.19,1.971-4.356,4.586-6.533,6.906
		c1.483,0.006,2.964-0.026,4.448-0.026C16.272,31.911,17.106,30.979,17.92,30.055z M20.521,26.942
		c0.106,0.488,0.21,0.97,0.314,1.463c-0.531,0-1.061,0-1.592,0C19.67,27.914,20.09,27.427,20.521,26.942z"/>
	<path fill="#D92B24" d="M36.836,25.943h-5.419c-0.884,1.971-1.728,4.587-2.594,6.909c1.802,0.002,3.605,0.029,5.409,0.028
		C35.106,30.56,35.949,27.914,36.836,25.943z"/>
	<path fill="#D92B24" d="M44.12,30.035c0.897,0.086,1.941-0.258,2.714,0.337c-0.288,0.813-0.605,1.615-0.908,2.424
		c1.795,0.004,3.591-0.002,5.386,0.002c0.261-0.747,0.595-1.469,0.803-2.232c0.022-0.528-0.583-0.705-0.944-0.939
		c0.53-0.174,1.181-0.245,1.547-0.714c0.285-0.569,0.504-1.117,0.654-1.736c-0.207-0.877-1.223-1.234-2.02-1.234h-11.02
		c-0.862,1.971-1.724,4.586-2.582,6.909c1.767,0.002,3.537-0.028,5.306-0.028C43.414,31.906,43.764,30.956,44.12,30.035z
		 M45.17,27.294c0.89,0.124,1.994-0.311,2.724,0.356c-0.132,0.34-0.207,0.825-0.654,0.873c-0.849,0.107-1.709,0.026-2.562,0.049
		C44.84,28.145,45.004,27.719,45.17,27.294z"/>
	<path fill="#D92B24" d="M76.106,25.943h-5.423c-0.88,1.971-1.724,4.587-2.586,6.909c1.801,0,3.6,0.029,5.4,0.028
		C74.373,30.56,75.218,27.914,76.106,25.943z"/>
	<path fill="#D92B24" d="M81.773,29.307c1.282,1.142,2.482,2.385,3.81,3.466c1.403,0.058,2.809,0.06,4.212,0.077
		c0.873-2.32,1.717-4.938,2.601-6.909h-3.685c-0.451,0.985-0.855,2.317-1.293,3.472c-1.258-1.152-2.497-2.487-3.763-3.472h-4.06
		c-0.862,1.971-1.724,4.586-2.582,6.909c1.164,0.002,2.325-0.028,3.488-0.028C80.925,31.662,81.346,30.47,81.773,29.307z"/>
	<path fill="#D92B24" d="M105.971,32.646c0.544-0.132,1.113-0.437,1.298-1.003c0.495-1.285,0.954-2.586,1.449-3.872
		c0.084-0.311,0.305-0.623,0.075-0.926c-0.409-0.63-1.18-0.904-1.885-0.904H95.852c-0.884,1.971-1.755,4.593-2.63,6.919
		c3.366,0.003,6.732-0.028,10.097-0.026C104.203,32.832,105.102,32.848,105.971,32.646z M101.504,31.321
		c-0.793,0.062-1.588,0.013-2.38,0.027c0.504-1.346,1.048-2.678,1.529-4.032c0.904,0.081,2.016-0.327,2.763,0.334
		c-0.405,1.074-0.825,2.142-1.251,3.207C102.088,31.154,101.793,31.313,101.504,31.321z"/>
	<path fill="#D92B24" d="M117.977,25.943h-5.419c-0.883,1.971-1.724,4.587-2.589,6.909c1.801,0.002,3.601,0.028,5.403,0.028
		C116.245,30.56,117.09,27.914,117.977,25.943z"/>
	<path fill="#D92B24" d="M122.146,32.798c0.841-0.913,1.666-1.839,2.504-2.754c1.08,0.003,2.161-0.002,3.24,0.003
		c0.179,0.912,0.369,1.821,0.541,2.734c1.708,0.033,3.416,0.063,5.123,0.07c-0.476-2.322-0.961-4.938-1.441-6.909h-7.871
		c-2.191,1.971-4.354,4.587-6.533,6.909C119.187,32.855,120.666,32.794,122.146,32.798z M127.213,27.116
		c0.123,0.482,0.232,0.968,0.333,1.456c-0.531,0.002-1.061,0-1.589-0.003C126.374,28.084,126.796,27.602,127.213,27.116z"/>
	<path fill="#D92B24" d="M63.023,28.695c-1.332-0.003-2.66,0.002-3.99-0.002c-0.161,0.417-0.318,0.837-0.469,1.255
		c1.333,0.002,2.666,0,3.999,0.002C62.719,29.53,62.872,29.115,63.023,28.695z"/>
	<path fill="#D92B24" d="M140.945,64.905c-4.248,1.281-8.515,2.502-12.818,3.582c-7.387,1.808-14.772,3.642-22.208,5.245
		c-8.855,1.934-17.758,3.646-26.713,5.038c-11.903,1.839-23.915,3.148-35.969,3.262c-5.706,0.029-11.424-0.207-17.077-1.009
		c-3.455-0.505-6.898-1.204-10.201-2.356c-1.763-0.619-3.492-1.375-5.031-2.443c2.283,3.167,6.093,4.582,9.757,5.496
		c6.108,1.428,12.359,2.338,18.622,2.338h11.492c7.174,0,14.336-0.766,21.487-1.394c16.529-1.511,32.693-5.432,48.734-9.538
		c7.464-1.919,14.882-3.994,22.256-6.229C142.399,66.358,141.606,65.694,140.945,64.905z"/>
	<path fill="#D92B24" d="M143.275,66.904c0.006,0.004,0.012,0.008,0.019,0.013c0.008-0.002,0.016-0.005,0.025-0.008
		c-0.007-0.004-0.014-0.007-0.021-0.011C143.29,66.901,143.283,66.902,143.275,66.904z"/>
	<path fill="#D92B24" d="M19.334,68.347c3.397,0.462,7.094,0.006,9.936-2.036c2.199-1.567,3.579-4.04,4.274-6.607
		c-1.562-0.211-3.122-0.431-4.685-0.637c-0.641,1.751-1.624,3.475-3.209,4.529c-1.585,1.078-3.617,1.313-5.472,0.979
		c-2.262-0.417-4.277-1.945-5.328-3.985c-0.829-1.567-1.145-3.342-1.272-5.093c6.71-0.006,13.418,0,20.128-0.002
		c0.13-3.167-0.2-6.469-1.715-9.304c-1.63-3.041-4.701-5.27-8.105-5.846c-2.656-0.442-5.475-0.184-7.929,0.967
		c-2.498,1.185-4.577,3.268-5.688,5.808c-0.915,2.025-1.251,4.25-1.381,6.452v1.927c0.145,2.873,0.773,5.837,2.504,8.195
		C13.248,66.258,16.207,67.933,19.334,68.347z M16.467,45.758c1.896-1.777,4.745-2.239,7.209-1.549
		c1.512,0.42,2.85,1.345,3.773,2.604c0.975,1.402,1.324,3.262,1.491,4.74c-5.027,0-10.052,0-15.08,0
		C13.973,49.583,14.791,47.219,16.467,45.758z"/>
	<path fill="#D92B24" d="M16.467,45.764c1.896-1.777,4.745-2.246,7.209-1.555c-2.464-0.69-5.313-0.229-7.209,1.549
		c-1.675,1.462-2.494,3.826-2.608,5.795C13.973,49.583,14.791,47.226,16.467,45.764z"/>
	<path fill="#D92B24" d="M69.954,65.074c1.772,2.212,4.584,3.585,7.435,3.436c3.682-0.049,7.079-2.255,9.078-5.271
		c1.857-2.833,2.378-6.319,2.313-9.647c-0.046-3.231-0.831-6.546-2.776-9.179c-1.576-2.225-4.093-3.724-6.784-4.128
		c-2.094-0.318-4.338-0.146-6.228,0.879c-1.382,0.719-2.464,1.892-3.361,3.147c0.002-1.2,0.002-2.398,0-3.598
		c-1.403,0-2.808-0.002-4.21,0.002c0,12.527-0.002,25.057,0,37.584c1.511,0.002,3.022,0.002,4.533,0
		C69.957,73.89,69.954,69.481,69.954,65.074z M71.203,47.402c1.055-1.657,2.641-3.138,4.621-3.529
		c1.843-0.329,3.812,0.242,5.205,1.488c1.229,1.045,2.06,2.495,2.482,4.042c0.564,2.013,0.644,4.128,0.539,6.205
		c-0.133,2.048-0.524,4.163-1.675,5.901c-0.974,1.42-2.391,2.611-4.089,3.028c-2.062,0.515-4.345-0.111-5.875-1.579
		c-1.971-1.738-2.631-4.449-2.785-6.973C69.471,53.071,69.669,49.967,71.203,47.402z"/>
	<path fill="#D92B24" d="M102.578,40.43c-2.015,0.712-3.089,2.707-4.108,4.438c-0.004-1.386-0.002-2.77-0.002-4.155
		c-1.378,0.003-2.754-0.019-4.129,0.011c0.011,9.046,0,18.092,0.006,27.138c1.507,0,3.013,0.002,4.52,0
		c0.003-4.694-0.004-9.386,0.003-14.078c0.006-2.044,0.279-4.103,0.997-6.025c0.57-1.52,2.044-2.615,3.646-2.804
		c1.369-0.187,2.741,0.252,3.915,0.933c0.528-1.43,1.028-2.869,1.541-4.303C107.083,40.462,104.74,39.696,102.578,40.43z"/>
	<path fill="#D92B24" d="M133.464,46.856c-1.219-2.701-3.555-4.859-6.312-5.925c-2.345-0.893-4.95-0.988-7.397-0.504
		c-3.18,0.635-6.047,2.672-7.707,5.455c-1.501,2.536-1.987,5.532-2.015,8.441c-0.027,2.97,0.437,6.054,2.003,8.629
		c1.76,2.909,4.893,4.875,8.243,5.364c3.432,0.51,7.185,0.081,10.075-1.971c2.226-1.567,3.639-4.051,4.329-6.646
		c-1.562-0.211-3.123-0.426-4.687-0.637c-0.627,1.708-1.569,3.388-3.09,4.451c-1.585,1.13-3.649,1.401-5.536,1.068
		c-2.274-0.398-4.296-1.925-5.364-3.961c-0.838-1.575-1.167-3.362-1.291-5.127c6.708-0.004,13.417-0.002,20.125,0
		C134.971,52.569,134.693,49.547,133.464,46.856z M114.993,51.695c0.111-2.149,0.913-4.336,2.546-5.795
		c2.76-2.649,7.649-2.615,10.314,0.152c1.529,1.453,2.023,3.62,2.225,5.642C125.049,51.696,120.021,51.695,114.993,51.695z"/>
	<path fill="#D92B24" d="M36.433,67.863c1.841,0.002,3.684,0,5.526,0c2.356-3.566,4.705-7.141,7.06-10.71
		c2.325,3.584,4.692,7.14,7.037,10.71c1.864,0.002,3.73,0,5.594,0c-3.322-4.796-6.652-9.589-9.974-14.385
		c3.054-4.255,6.105-8.509,9.156-12.767c-1.839-0.004-3.678,0.003-5.517-0.004c-2.159,3.081-4.294,6.18-6.448,9.266
		c-1.934-3.141-3.998-6.202-6.046-9.269c-1.86,0.014-3.717,0.002-5.575,0.006c3.003,4.343,6.009,8.681,9.011,13.025
		C42.983,58.443,39.706,63.151,36.433,67.863z"/>
	<path fill="#D92B24" d="M185.146,44.494c-0.981-1.906-2.906-3.106-4.904-3.72c-2.258-0.696-4.674-0.769-7.004-0.46
		c-2.223,0.301-4.438,1.223-5.936,2.941c-2.178,2.439-2.309,6.49-0.203,9.013c0.618,0.773,1.432,1.357,2.287,1.843
		c2-0.97,3.987-1.967,5.95-3.012c-1.156-0.346-2.327-0.65-3.446-1.103c-0.725-0.291-1.401-0.802-1.717-1.534
		c-0.459-1.051-0.161-2.362,0.696-3.123c1.074-1.013,2.61-1.278,4.032-1.365c1.679-0.093,3.516,0.027,4.911,1.074
		c0.818,0.593,1.302,1.516,1.62,2.455c0.006,0.002,0.012,0.002,0.016,0.005c1.206-0.801,2.434-1.574,3.586-2.455l0.244-0.21
		C185.28,44.843,185.22,44.659,185.146,44.494z"/>
	<path fill="#D92B24" d="M187.032,58.178c-0.314-1.76-1.436-3.333-2.963-4.255c-1.933-1.139-4.199-1.462-6.267-2.261
		c-0.895,0.552-3.371,2.19-4.639,2.937c-0.325,0.181-0.632,0.417-1,0.491c-0.037-0.006-0.075-0.016-0.111-0.025
		c0.005,0.014,0.012,0.027,0.016,0.04c0.013,0.047,0.02,0.092,0.022,0.138c0.029-0.012,0.057-0.023,0.088-0.032
		c0.307,0.029,0.606,0.128,0.904,0.216c2.349,0.744,4.789,1.181,7.102,2.042c0.862,0.308,1.699,0.87,2.067,1.741
		c0.502,1.242,0.168,2.75-0.753,3.711c-0.941,1.023-2.31,1.527-3.662,1.696c-2.562,0.325-5.622-0.061-7.29-2.259
		c-0.714-0.932-1.051-2.08-1.24-3.222c-1.507,0.214-3.015,0.424-4.52,0.64c0.455,2.665,1.715,5.335,4.025,6.865
		c2.791,1.864,6.331,2.08,9.576,1.728c2.78-0.314,5.593-1.521,7.286-3.828C187.018,62.744,187.424,60.36,187.032,58.178z"/>
	<path fill="#D92B24" d="M142.575,53.611c0.912,0.63,1.965,0.999,3.006,1.355c2.53,0.866,5.16,1.392,7.711,2.19
		c1.278,0.351,2.638,1.027,3.085,2.369c0.046,0.014,0.086,0.032,0.124,0.055c1.156-0.439,2.304-0.897,3.451-1.357
		c0.32-0.172,0.654-0.314,0.997-0.433c-0.367-1.36-1.157-2.604-2.287-3.453c-0.944-0.756-2.102-1.152-3.235-1.529
		c-2.845-0.944-5.794-1.54-8.639-2.481c-0.815-0.278-1.682-0.581-2.245-1.268c-0.87-1-0.753-2.639,0.166-3.571
		c1.038-1.106,2.617-1.414,4.07-1.508c1.73-0.106,3.631,0,5.066,1.087c1.051,0.782,1.558,2.064,1.757,3.32
		c1.507-0.216,3.013-0.431,4.519-0.65c-0.34-1.983-1.042-4.064-2.703-5.328c-2.566-1.994-5.982-2.446-9.137-2.213
		c-2.559,0.174-5.207,1.046-6.947,3.015c-1.578,1.711-2.067,4.234-1.543,6.467C140.18,51.28,141.212,52.697,142.575,53.611z"/>
	<path fill="#D92B24" d="M145.667,63.455c0.005-0.015,0.007-0.03,0.012-0.044c-0.025,0.008-0.048,0.016-0.072,0.025
		c-1.362-1.016-2.071-2.653-2.307-4.297c-1.507,0.211-3.013,0.424-4.519,0.637c0.329,1.843,1.006,3.643,2.162,5.128
		c1.562-0.489,3.119-0.997,4.685-1.472C145.64,63.44,145.654,63.446,145.667,63.455z"/>
	<path fill="#D92B24" d="M161.118,60.539c0,0.002,0,0.005-0.001,0.008c-1.758,0.735-3.531,1.437-5.305,2.133
		c-0.064,0.063-0.144,0.112-0.239,0.14c-1.319,1.501-3.454,1.953-5.374,1.861c0.069-0.023,0.137-0.048,0.205-0.071
		c-0.069-0.013-0.137-0.027-0.205-0.04l0,0c-0.053,0.057-0.117,0.104-0.193,0.138l0,0c0.037,0.001,0.076,0.006,0.113,0.007
		c-2.262,0.748-4.526,1.488-6.801,2.195c2.747,1.571,6.048,1.808,9.134,1.441c2.643-0.313,5.299-1.425,7.001-3.535
		c0.998-1.201,1.537-2.721,1.687-4.266C161.131,60.547,161.125,60.542,161.118,60.539z"/>
	<path fill="#D92B24" d="M191.112,40.067c-1.861,1.764-3.813,3.255-5.833,4.83c0.099,0.168,0.237,0.608,0.334,0.777
		C187.505,43.865,189.27,41.928,191.112,40.067z"/>
	<path fill="#D92B24" d="M182.678,48.237c1.149-0.166,2.296-0.33,3.445-0.497c-0.132-0.695-0.304-1.381-0.514-2.055
		C184.656,46.561,183.699,47.438,182.678,48.237z"/>
</g>
</svg>
