<?xml version="1.0" encoding="utf-8"?>
<!-- Generator: Adobe Illustrator 17.0.0, SVG Export Plug-In . SVG Version: 6.00 Build 0)  -->
<!DOCTYPE svg PUBLIC "-//W3C//DTD SVG 1.1//EN" "http://www.w3.org/Graphics/SVG/1.1/DTD/svg11.dtd">
<svg version="1.1" id="Layer_1" xmlns="http://www.w3.org/2000/svg" xmlns:xlink="http://www.w3.org/1999/xlink" x="0px" y="0px"
	 width="200px" height="110px" viewBox="0 0 200 110" enable-background="new 0 0 200 110" xml:space="preserve">
<g>
	<path fill="#A70B3A" d="M19.902,63.651c-2.967-0.27-2.685-1.294-2.014-2.838c0.576-1.361,1.134-2.631,1.747-3.967
		c2.345-5.122,4.707-10.771,7.018-15.948c0.451-1.012,3.253-7.566,3.544-7.917c0.339,0.395,7.429,15.11,7.86,15.992l5.842,11.939
		c0.329,0.656,0.899,1.435,0.306,2.085c-0.483,0.53-1.468,0.588-2.332,0.654l0.019,0.654l21.397-0.015l-0.026-0.635
		c-2.772-0.231-2.193-1.36-2.198-3.866c-0.006-2.014,0-4.023,0.003-6.034c0.001-6.624-1.506-16.003,6.715-17.238
		c4.371-0.655,6.437,0.917,6.518,5.24l0.678,0.03l-0.031-8.678l-0.612,0.022c-0.398,0.907-0.469,1.801-1.681,1.744
		c-1.097-0.057-2.063-0.251-3.297-0.217c-5.533,0.16-10.658,2.969-12.694,8.197c-1.688,4.328-0.278,18.712-0.915,19.939
		c-0.556,1.075-3.013,1.382-4.634-0.634c-0.644-0.805-1.841-3.465-2.398-4.585L41.71,43.728c-1.58-3.134-3.118-6.18-4.656-9.212
		c-0.763-1.497-4.14-8.354-4.673-9.188l-0.746,0.019c-0.803,1.453-1.562,3.455-2.276,5.018L15.823,60.331
		c-0.819,1.798-1.519,3.082-3.914,3.32l0.021,0.654l8.009-0.006L19.902,63.651L19.902,63.651z M164.16,62.46l-0.03-25.159
		c0.724-0.107,6.465-0.036,7.682-0.036c2.575,0.003,4.399,0.451,6.133,1.677c6.618,4.693,6.027,17.995,0.282,22.072
		c-1.88,1.334-3.611,1.468-6.31,1.468C169.565,62.481,166.412,62.66,164.16,62.46L164.16,62.46z M157.048,36.139
		c2.406,0.525,1.875,0.879,1.875,6.077c0.006,2.651,0,5.296,0,7.94c0,2.649,0.003,5.293,0,7.934c0,1.284,0.074,2.778,0,4.036
		c-0.04,0.63-0.318,0.973-0.818,1.208c-0.855,0.398-1.086-0.179-1.055,0.84c0.863,0.138,9.616,0.037,11.268,0.037
		c3.425,0,7.545,0.297,10.647-0.658c11.782-3.628,12.582-22.536-0.103-27.117c-3.239-1.17-6.781-0.905-10.437-0.905
		c-1.535,0-10.668-0.109-11.375,0.06L157.048,36.139L157.048,36.139z M129.303,64.127c0.046-0.769,0.079-0.498-0.653-0.66
		c-1.45-0.317-1.26-1.207-1.258-2.307l0.002-14.392c-0.002-3.525,0.028-5.49,1.87-7.726c2.723-3.319,10.751-3.719,14.264-0.293
		c1.933,1.88,2.175,4.051,2.175,7.488v14.393c0,1.909,0.194,2.749-1.891,2.931l-0.014,0.655l9.027-0.033l0.002-0.576
		c-2.46-0.551-1.938-1.101-1.938-3.716c0-3.954,0.27-13.939-0.307-16.669c-1.31-6.224-6.841-8.574-14.016-8.574
		c-7.3-0.008-12.759,2.366-14.07,8.643c-0.547,2.625-0.294,12.727-0.292,16.601c0,2.264,0.494,3.389-1.94,3.691l0.021,0.625
		C121.527,64.266,128.695,64.399,129.303,64.127L129.303,64.127z M90.951,65.966l0.502,0.019c0.344-0.45,1.167-2.544,1.475-3.26
		l7.247-16.57c0.963-2.172,1.993-4.498,2.932-6.702c0.491-1.178,0.89-2.313,1.933-2.836c1.079-0.543,3.095-0.439,3.478,0.616
		c0.159,0.454,0.066,20.698,0.07,23.716c0,2.737-0.343,2.079-2.175,2.65l-0.023,0.608l9.298,0.006l0.012-0.613
		c-1.396-0.484-1.926-0.188-1.914-2.006c0.007-1.312,0.002-2.614,0.002-3.92l0.001-19.584c-0.012-1.784,0.79-1.515,2.175-1.873
		V35.63l-16.154-0.033l-0.017,0.628c1.325,0.272,2.473,0.263,1.77,1.779c-1.229,2.658-2.545,5.987-3.743,8.746
		c-0.781,1.789-4.259,10.219-4.985,11.624c-0.281-0.309-6.602-14.299-7.371-15.955c-0.432-0.931-2.368-4.8-2.331-5.518
		c0.622-0.534,1.018-0.576,1.976-0.645l0.014-0.659h-8.6c0.153,0.771,11.345,23.977,12.58,26.575
		C89.433,62.869,90.566,65.507,90.951,65.966L90.951,65.966z"/>
	<polygon fill="#A70B3A" points="146.745,78.954 188.038,78.95 188.022,78.212 146.748,78.233 	"/>
	<path fill="#A70B3A" d="M59.729,84.204l0.618-1.467c0.314,0.218,0.712,0.4,1.18,0.545c0.472,0.144,0.893,0.221,1.267,0.221
		c0.655,0,1.186-0.172,1.585-0.515c0.403-0.338,0.603-0.771,0.603-1.296c0-0.396-0.11-0.76-0.333-1.098
		c-0.222-0.338-0.782-0.704-1.68-1.106l-1.001-0.44c-0.841-0.373-1.432-0.813-1.768-1.323c-0.337-0.515-0.504-1.125-0.504-1.842
		c0-0.872,0.329-1.596,0.98-2.169c0.658-0.575,1.496-0.863,2.523-0.863c1.37,0,2.325,0.209,2.861,0.632l-0.502,1.384
		c-0.224-0.153-0.569-0.301-1.032-0.443c-0.464-0.149-0.89-0.216-1.284-0.216c-0.574,0-1.03,0.152-1.36,0.464
		c-0.331,0.307-0.493,0.705-0.493,1.185c0,0.302,0.059,0.569,0.175,0.814c0.118,0.244,0.286,0.451,0.494,0.617
		c0.211,0.164,0.645,0.393,1.302,0.694l1.016,0.454c0.842,0.376,1.437,0.827,1.779,1.351c0.343,0.529,0.51,1.191,0.51,2
		c0,0.876-0.372,1.624-1.121,2.23c-0.748,0.612-1.747,0.919-2.999,0.919C61.449,84.936,60.511,84.69,59.729,84.204L59.729,84.204z
		 M81.891,74.484v10.252h-1.693V74.484h-3.944v-1.437h9.755v1.437H81.891L81.891,74.484z M94.627,78.794
		c0-1.693,0.452-3.106,1.355-4.244c0.9-1.14,2.115-1.709,3.642-1.709c1.722,0,3.04,0.524,3.957,1.571
		c0.915,1.047,1.374,2.51,1.374,4.383c0,1.92-0.464,3.426-1.382,4.511c-0.917,1.088-2.233,1.631-3.95,1.631
		c-1.562,0-2.785-0.576-3.667-1.726C95.072,82.064,94.627,80.592,94.627,78.794L94.627,78.794z M96.409,78.794
		c0,1.341,0.28,2.459,0.842,3.36c0.559,0.899,1.35,1.349,2.372,1.349c1.154,0,2.035-0.414,2.643-1.237
		c0.605-0.827,0.907-1.982,0.907-3.471c0-3.012-1.181-4.52-3.55-4.52c-1.049,0-1.848,0.407-2.397,1.214
		C96.681,76.296,96.409,77.401,96.409,78.794L96.409,78.794z M122.526,84.736l-3.31-5.017c-0.376,0-0.971-0.028-1.79-0.08v5.099
		h-1.69v-11.69c0.059,0,0.498-0.02,1.313-0.06c0.818-0.039,1.409-0.057,1.781-0.057c2.979,0,4.47,1.113,4.47,3.35
		c0,0.733-0.243,1.394-0.721,1.984c-0.479,0.584-1.048,0.953-1.711,1.095l3.599,5.375h-1.94V84.736z M117.426,74.484v3.8
		c0.405,0.051,0.8,0.079,1.185,0.079c1.015,0,1.754-0.151,2.214-0.464c0.466-0.308,0.698-0.858,0.698-1.652
		c0-0.652-0.246-1.126-0.745-1.41c-0.498-0.287-1.282-0.432-2.356-0.432C118.256,74.405,117.921,74.43,117.426,74.484
		L117.426,74.484z M136.176,74.484v3.247h4.094v1.358h-4.094v4.215h5.62v1.432h-7.314V73.047h7.406v1.437H136.176L136.176,74.484z"
		/>
	<path fill="#A70B3A" d="M42.622,25.966v6.455h-1.186v-6.455h-2.761v-0.901h6.834v0.901H42.622L42.622,25.966z M51.48,32.421v-3.555
		h-3.791v3.555h-1.186v-7.357h1.186v2.947h3.791v-2.947h1.19v7.357H51.48L51.48,32.421z M55.632,25.966v2.046H58.5v0.855h-2.868
		v2.65h3.938v0.904h-5.124v-7.357h5.192v0.901h-4.005V25.966z"/>
	<polygon fill="#A70B3A" points="146.703,78.121 188.056,78.121 188.056,78.977 146.703,78.977 	"/>
	<polygon fill="#A70B3A" points="11.913,78.121 54.903,78.121 54.903,78.977 11.913,78.977 	"/>
</g>
</svg>
