<?xml version="1.0" encoding="utf-8"?>
<!-- Generator: Adobe Illustrator 17.0.0, SVG Export Plug-In . SVG Version: 6.00 Build 0)  -->
<!DOCTYPE svg PUBLIC "-//W3C//DTD SVG 1.1//EN" "http://www.w3.org/Graphics/SVG/1.1/DTD/svg11.dtd">
<svg version="1.1" id="Layer_1" xmlns="http://www.w3.org/2000/svg" xmlns:xlink="http://www.w3.org/1999/xlink" x="0px" y="0px"
	 width="200px" height="110px" viewBox="0 0 200 110" enable-background="new 0 0 200 110" xml:space="preserve">
<g>
	<path fill="#252122" d="M173.584,29.436c1.404,0.345,2.807-0.255,3.454-1.475c0.7-1.32,0.445-2.732-0.642-3.755
		c-0.378-0.356-0.87-0.484-1.283-0.761c-0.445,0-0.89,0-1.333,0c-0.049,0.038-0.091,0.096-0.145,0.111
		c-1.386,0.375-2.357,1.602-2.323,2.94C171.348,27.889,172.301,29.12,173.584,29.436z M174.47,23.984
		c1.282,0.006,2.457,1.216,2.437,2.51c-0.022,1.351-1.215,2.554-2.508,2.528c-1.414-0.028-2.515-1.157-2.505-2.568
		C171.903,25.032,173.004,23.977,174.47,23.984z"/>
	<path fill="#1AA0A7" d="M23.681,45.251c0,6.001,0.007,12.002-0.012,18.003c-0.001,0.573,0.096,0.787,0.744,0.784
		c5.089-0.03,10.179-0.015,15.269-0.02c0.642-0.001,1.282-0.032,1.923-0.132c5.208-0.811,9.465-5.084,10.22-10.291
		c0.775-5.339-2.006-10.492-6.916-12.765c-0.402-0.186-0.457-0.28-0.221-0.679c1.747-2.955,1.851-6.008,0.165-8.978
		c-1.65-2.905-4.222-4.51-7.625-4.538c-4.289-0.037-8.579,0.002-12.869-0.022c-0.564-0.004-0.691,0.156-0.689,0.702
		C23.689,33.293,23.681,39.273,23.681,45.251z M47.128,50.516c0.629,3.242-1.193,6.71-4.287,8.184
		c-1.02,0.486-2.098,0.733-3.215,0.737c-3.556,0.018-7.112-0.001-10.668,0.017c-0.462,0.002-0.602-0.113-0.597-0.588
		c0.024-2.333,0.011-4.667,0.011-7c0-2.333,0.002-4.667-0.004-7c-0.001-0.318,0-0.541,0.439-0.539
		c3.755,0.023,7.513-0.055,11.265,0.06C43.656,44.494,46.449,47.016,47.128,50.516z M28.362,31.763
		c-0.004-0.423,0.094-0.573,0.546-0.569c2.71,0.021,5.42-0.012,8.13,0.018c2.362,0.027,4.3,2.011,4.272,4.311
		c-0.028,2.341-1.949,4.195-4.35,4.198c-1.288,0.001-2.577,0-3.865,0c-1.377,0-2.755-0.017-4.132,0.01
		c-0.444,0.009-0.611-0.079-0.605-0.57C28.385,36.695,28.38,34.229,28.362,31.763z"/>
	<path fill="#1AA0A7" d="M154.964,23.956L154.964,23.956c-0.928,0.051-0.928,0.051-0.928,0.989c0,0.644,0.039,1.29-0.012,1.93
		c-0.045,0.572,0.112,0.84,0.718,0.737c0.074-0.012,0.161,0.052,0.243,0.08l0,0l0,0c4.596,0.174,8.626,1.819,12.009,4.895
		c4.756,4.326,6.868,9.772,6.355,16.173c-0.692,8.644-7.539,15.925-16.121,17.251c-10.774,1.665-20.521-5.469-22.228-16.278
		c-0.145-0.92-0.201-1.854-0.195-2.789c-1.235-0.004-2.468-0.009-3.703-0.012c0.021,4.005,0.995,7.755,2.924,11.272
		c4.388,8.002,13.741,12.793,22.765,11.631c5.407-0.697,10.014-2.977,13.864-6.857c6.886-6.942,8.548-18.333,3.769-26.858
		C170.173,28.54,163.645,24.5,154.964,23.956z"/>
	<path fill="#1AA0A7" d="M106.699,48.478c0-2.644-0.012-5.289,0.011-7.933c0.004-0.474-0.134-0.602-0.597-0.589
		c-1.132,0.032-2.267,0.035-3.399-0.001c-0.483-0.016-0.606,0.144-0.58,0.601c0.038,0.669,0.01,1.342,0.01,2.089
		c-6.836-5.569-14.016-3.006-17.496,0.935c-4.297,4.865-4.255,12.129,0.129,16.944c3.658,4.016,10.827,6.203,17.368,0.779
		c0,0.798,0.022,1.48-0.009,2.16c-0.02,0.421,0.09,0.581,0.544,0.568c1.11-0.033,2.223-0.041,3.332,0.002
		c0.55,0.022,0.705-0.127,0.702-0.69C106.689,58.389,106.699,53.433,106.699,48.478z M94.076,60.111
		c-4.414-0.004-8.057-3.685-8.054-8.141c0.002-4.447,3.649-8.108,8.08-8.114c4.414-0.006,8.041,3.665,8.041,8.14
		C102.143,56.458,98.509,60.113,94.076,60.111z"/>
	<path fill="#1AA0A7" d="M75.933,59.726c-0.975-0.573-1.961-1.132-2.91-1.747c-0.392-0.255-0.602-0.199-0.957,0.088
		c-1.961,1.582-4.173,2.505-6.723,1.964c-3.035-0.644-5.079-3.438-5.628-6.432c-0.098-0.529,0.188-0.522,0.558-0.52
		c2.889,0.006,5.778,0.004,8.666,0.004s5.778-0.011,8.666,0.011c0.492,0.004,0.697-0.126,0.642-0.634
		c-0.055-0.507-0.065-1.018-0.098-1.527c-0.213-3.278-1.559-6.015-3.949-8.248c-4.428-4.137-11.634-3.787-15.644,0.756
		c-2.839,3.217-3.813,6.992-3.042,11.144c0.773,4.161,3.09,7.28,7.016,9.019c4.273,1.892,10.074,0.485,13.546-3.357
		C76.358,59.933,76.163,59.86,75.933,59.726z M60.203,48.904c1.097-2.537,2.836-4.367,5.665-4.788
		c2.917-0.433,5.038,0.95,6.631,3.278c0.285,0.417,0.467,0.903,0.705,1.353c0.219,0.413,0.152,0.573-0.363,0.567
		c-2.043-0.023-4.086-0.01-6.127-0.01c-2.043,0-4.086,0.001-6.129-0.001C60.326,49.303,59.997,49.38,60.203,48.904z"/>
	<path fill="#1AA0A7" d="M111.227,43.787c-0.007,0.375,0.106,0.509,0.489,0.496c0.711-0.026,1.422-0.007,2.134-0.007
		c0.965,0,0.965,0,0.965,0.932c0,1.823,0,3.646,0,5.469s-0.004,3.646,0.001,5.469c0.01,4.203,3.368,7.706,7.574,7.85
		c1.754,0.06,3.513,0.001,5.268,0.034c0.472,0.009,0.436-0.21,0.355-0.512c-0.305-1.135-0.625-2.265-0.913-3.403
		c-0.083-0.329-0.247-0.416-0.562-0.412c-1.067,0.013-2.134,0.009-3.201,0.005c-2.318-0.007-3.978-1.664-3.983-3.998
		c-0.007-3.602,0.012-7.204-0.017-10.805c-0.005-0.562,0.191-0.646,0.683-0.64c2.023,0.024,4.047-0.011,6.069,0.023
		c0.566,0.01,0.715-0.165,0.691-0.712c-0.044-0.998-0.041-2.001,0-3.001c0.022-0.518-0.158-0.629-0.644-0.623
		c-2.045,0.026-4.091-0.009-6.136,0.024c-0.53,0.009-0.666-0.141-0.659-0.663c0.027-2.645-0.012-5.291,0.029-7.936
		c0.01-0.639-0.194-0.768-0.775-0.742c-1.043,0.044-2.09,0.043-3.134,0c-0.528-0.022-0.662,0.135-0.656,0.658
		c0.027,2.645-0.011,5.291,0.029,7.936c0.01,0.639-0.194,0.784-0.78,0.747c-0.775-0.048-1.557,0.005-2.333-0.018
		c-0.378-0.011-0.5,0.112-0.492,0.492C111.249,41.564,111.249,42.676,111.227,43.787z"/>
	<path fill="#CED0D2" d="M131.578,46.736c1.032-0.009,2.067-0.093,3.096,0.052c0.055,0.023,0.098,0.051,0.135,0.082
		c0.101-2.895,0.683-5.684,1.947-8.301c0.673-1.394,1.527-2.688,2.513-3.889c1.812-2.206,4.026-3.905,6.592-5.133
		c1.922-0.92,3.949-1.479,6.08-1.726c0.82-0.095,1.637-0.056,2.452-0.09c-0.508-0.128-0.553-0.305-0.563-1.058
		c-0.007-0.572-0.006-1.143-0.001-1.716c0.01-1.07,0.061-1.113,1.137-1.002l0,0c-0.189-0.174-0.424-0.11-0.637-0.102
		c-1.036,0.037-2.067,0.132-3.1,0.244c-2.763,0.299-5.361,1.135-7.811,2.406c-3.074,1.594-5.678,3.79-7.731,6.575
		c-3.029,4.108-4.663,8.705-4.583,13.856l0,0l0,0C131.234,46.807,131.397,46.737,131.578,46.736z"/>
	<path fill="#CED0D2" d="M153.827,24.958c-0.005,0.572-0.007,1.143,0.001,1.716c0.01,0.752,0.055,0.929,0.563,1.058
		c0.197-0.009,0.396-0.017,0.594-0.038l0,0c-0.082-0.029-0.168-0.094-0.243-0.08c-0.606,0.101-0.763-0.166-0.718-0.737
		c0.05-0.64,0.011-1.286,0.012-1.93c0-0.939,0-0.939,0.928-0.989l0,0l0,0C153.888,23.845,153.837,23.888,153.827,24.958z"/>
	<path fill="#CED0D2" d="M134.809,46.87c-0.038-0.03-0.08-0.059-0.135-0.082c-1.029-0.145-2.064-0.061-3.096-0.052
		c-0.18,0.001-0.344,0.071-0.477,0.2l0,0c1.235,0.004,2.468,0.009,3.703,0.012C134.805,46.921,134.808,46.896,134.809,46.87z"/>
	<path fill="#050708" d="M114.912,79.734c-1.416-0.215-1.711-0.051-2.223,1.294c-0.032,0.083-0.061,0.166-0.094,0.249
		c-0.324,0.83-0.648,1.66-1.019,2.606c-0.399-1.032-0.741-1.921-1.084-2.81c-0.523-1.358-0.523-1.338-1.982-1.344
		c-0.418-0.001-0.513,0.11-0.508,0.517c0.023,1.888,0.04,3.779-0.006,5.667c-0.016,0.664,0.38,0.489,0.719,0.497
		c0.358,0.01,0.733,0.13,0.706-0.517c-0.056-1.318-0.017-2.64-0.017-3.964c0.207,0.016,0.188,0.151,0.224,0.246
		c0.489,1.259,0.973,2.519,1.47,3.775c0.08,0.202,0.08,0.468,0.445,0.477c0.378,0.009,0.424-0.229,0.519-0.477
		c0.524-1.357,1.053-2.711,1.581-4.066c0.034,0.009,0.069,0.017,0.104,0.027c0,1.355,0.011,2.711-0.007,4.065
		c-0.005,0.345,0.085,0.485,0.44,0.441c0.219-0.027,0.445-0.016,0.666-0.002c0.254,0.016,0.35-0.074,0.349-0.34
		c-0.009-2-0.006-4-0.002-6.001C115.194,79.869,115.154,79.77,114.912,79.734z"/>
	<path fill="#050708" d="M36.083,80.906c0-1.165-0.002-1.125-1.182-1.181c-0.631-0.029-0.934,0.165-1.134,0.772
		c-0.366,1.106-0.826,2.181-1.296,3.392c-0.395-1.023-0.735-1.904-1.075-2.786c-0.541-1.402-0.54-1.387-2.028-1.372
		c-0.383,0.004-0.475,0.113-0.472,0.483c0.018,1.911,0.033,3.822-0.005,5.732c-0.013,0.695,0.444,0.433,0.751,0.457
		c0.329,0.027,0.691,0.13,0.669-0.479c-0.049-1.327-0.015-2.657-0.015-3.986c0.041-0.009,0.083-0.018,0.126-0.027
		c0.502,1.294,0.996,2.593,1.516,3.88c0.101,0.25,0.059,0.63,0.535,0.631c0.477,0.001,0.444-0.384,0.544-0.631
		c0.525-1.301,1.019-2.615,1.524-3.924c0.101,1.287,0.119,2.547,0.093,3.808c-0.011,0.507,0.006,0.818,0.678,0.758
		c0.525-0.046,0.822-0.041,0.795-0.729C36.041,84.108,36.083,82.507,36.083,80.906z"/>
	<path fill="#050708" d="M157.232,80.439c0.017-0.612-0.172-0.795-0.736-0.701c-0.129,0.022-0.271,0.024-0.399,0
		c-0.686-0.132-1.015,0.158-1.226,0.822c-0.347,1.087-0.807,2.139-1.268,3.332c-0.396-1.025-0.736-1.906-1.076-2.789
		c-0.556-1.441-0.556-1.429-2.096-1.371c-0.325,0.012-0.403,0.105-0.402,0.417c0.013,1.955,0.006,3.911,0.009,5.867
		c0,0.126-0.054,0.343,0.079,0.357c0.392,0.044,0.806,0.085,1.185,0.006c0.251-0.051,0.118-0.385,0.119-0.588
		c0.011-1.288,0.006-2.576,0.006-3.864c0.628,1.281,1.121,2.579,1.641,3.866c0.101,0.25,0.06,0.629,0.535,0.63
		c0.477,0,0.444-0.384,0.544-0.633c0.525-1.301,1.019-2.615,1.524-3.924c0.034,0.009,0.067,0.017,0.101,0.027
		c0,1.26,0.018,2.522-0.009,3.782c-0.011,0.508,0.01,0.815,0.679,0.758c0.528-0.045,0.817-0.045,0.793-0.73
		C157.173,83.951,157.182,82.193,157.232,80.439z"/>
	<path fill="#050708" d="M79.883,82.972c0.853-0.702,1.084-1.307,0.818-2.083c-0.263-0.77-0.901-1.143-1.97-1.147
		c-0.932-0.002-1.866,0.017-2.797-0.009c-0.371-0.01-0.485,0.089-0.481,0.472c0.02,1.909,0.018,3.819,0.001,5.729
		c-0.004,0.361,0.071,0.499,0.464,0.488c1.02-0.029,2.043,0,3.064-0.012c1.014-0.012,1.641-0.45,1.876-1.277
		C81.101,84.28,80.778,83.542,79.883,82.972z M77.95,80.942c0.199,0,0.399-0.006,0.597,0.001c0.484,0.018,0.808,0.216,0.802,0.756
		c-0.006,0.511-0.327,0.694-0.778,0.708c-0.442,0.015-0.886-0.009-1.329,0.007c-0.269,0.01-0.38-0.057-0.401-0.361
		C76.768,80.94,76.753,80.942,77.95,80.942z M78.625,85.21c-0.244,0.004-0.488,0.001-0.731,0.001c-1.037,0-1.282-0.336-1.046-1.372
		c0.061-0.266,0.222-0.227,0.39-0.228c0.466-0.004,0.931-0.009,1.397,0.001c0.522,0.01,0.851,0.258,0.848,0.804
		C79.48,84.965,79.147,85.203,78.625,85.21z"/>
	<path fill="#050708" d="M129.296,80.338c0.011-0.513-0.143-0.598-0.623-0.618c-0.613-0.024-0.906,0.1-0.792,0.774
		c0.051,0.302,0.009,0.62,0.009,0.931c0,0.823,0,1.644,0,2.639c-0.931-1.304-1.782-2.415-2.539-3.586
		c-0.388-0.598-0.826-0.801-1.518-0.759c-0.44,0.027-0.491,0.167-0.488,0.541c0.017,1.887,0.038,3.774-0.009,5.659
		c-0.017,0.679,0.399,0.472,0.726,0.488c0.363,0.018,0.729,0.117,0.698-0.522c-0.057-1.238-0.017-2.48-0.017-3.925
		c0.236,0.316,0.369,0.483,0.492,0.656c0.824,1.154,1.663,2.299,2.462,3.47c0.388,0.568,0.931,0.319,1.387,0.291
		c0.41-0.026,0.179-0.473,0.183-0.714C129.292,83.889,129.259,82.113,129.296,80.338z"/>
	<path fill="#050708" d="M170.252,80.363c0.012-0.552-0.174-0.668-0.667-0.631c-0.416,0.03-0.8-0.087-0.759,0.603
		c0.068,1.179,0.018,2.365,0.018,3.722c-0.936-1.305-1.791-2.433-2.569-3.609c-0.374-0.566-0.789-0.791-1.463-0.726
		c-0.39,0.038-0.52,0.093-0.516,0.514c0.026,1.886,0.037,3.774-0.005,5.659c-0.012,0.557,0.255,0.564,0.634,0.513
		c0.329-0.044,0.819,0.243,0.789-0.496c-0.052-1.254-0.015-2.511-0.015-3.788c0.285,0.054,0.334,0.275,0.439,0.421
		c0.857,1.186,1.704,2.377,2.545,3.574c0.384,0.546,0.939,0.285,1.398,0.256c0.301-0.02,0.143-0.447,0.145-0.684
		C170.243,83.915,170.21,82.137,170.252,80.363z"/>
	<path fill="#050708" d="M61.772,79.772c-0.859-0.069-1.728-0.009-2.593-0.037c-0.332-0.011-0.406,0.106-0.4,0.416
		c0.018,0.953,0.006,1.906,0.006,2.86c0,0.997,0.002,1.995-0.002,2.992c-0.001,0.234-0.021,0.428,0.327,0.416
		c0.93-0.029,1.866,0.028,2.791-0.051c1.11-0.094,2.048-0.573,2.605-1.597C65.735,82.514,64.357,79.979,61.772,79.772z
		 M63.421,83.629c-0.174,0.795-0.698,1.302-1.516,1.489c-1.505,0.346-1.727,0.178-1.727-1.349c0-0.244,0-0.486,0-0.73
		c0-0.199-0.023-0.401,0.005-0.597c0.067-0.485-0.238-1.067,0.163-1.44c0.344-0.318,2.021,0.055,2.456,0.441
		C63.472,82.04,63.6,82.815,63.421,83.629z"/>
	<path fill="#050708" d="M142.862,82.909c-0.302-0.26-0.965-0.098-1.471-0.121c0,0.007,0,0.015-0.001,0.022
		c-0.422,0-0.843,0.01-1.265-0.004c-0.257-0.009-0.329,0.088-0.347,0.344c-0.062,0.856-0.071,0.859,0.761,0.861
		c0.155,0,0.316-0.026,0.464,0.006c0.2,0.043,0.527-0.186,0.567,0.239c0.032,0.327-0.011,0.588-0.355,0.772
		c-1.308,0.7-2.878-0.017-3.158-1.46c-0.176-0.903,0.233-1.903,0.974-2.388c0.662-0.433,1.649-0.496,2.162,0.074
		c0.519,0.577,0.847,0.307,1.32,0.045c0.407-0.227,0.275-0.388,0.054-0.636c-1.036-1.163-2.897-1.409-4.325-0.561
		c-1.587,0.943-2.138,3.136-1.199,4.784c0.893,1.571,3.152,2.143,4.863,1.231c0.7-0.373,1.258-0.807,1.069-1.749
		C142.878,83.877,143.181,83.182,142.862,82.909z"/>
	<path fill="#050708" d="M48.437,83.732c0.928-0.492,1.274-1.312,1.054-2.338c-0.204-0.952-0.882-1.569-1.921-1.625
		c-0.996-0.054-1.997-0.015-2.995-0.033c-0.266-0.005-0.336,0.089-0.335,0.343c0.009,1.997,0.004,3.994,0.006,5.991
		c0,0.141-0.043,0.284,0.19,0.346c0.835,0.222,1.199-0.033,1.199-0.879c0-0.289-0.034-0.583,0.011-0.864
		c0.035-0.223-0.215-0.606,0.208-0.647c0.382-0.038,0.853-0.185,1.053,0.39c0.093,0.268,0.311,0.494,0.399,0.763
		c0.35,1.079,1.034,1.526,2.222,1.14c-0.411-0.708-0.811-1.416-1.23-2.114C48.157,83.972,48.157,83.88,48.437,83.732z
		 M48.086,82.112c-0.101,0.373-0.362,0.618-0.742,0.676c-0.26,0.04-0.531,0.007-0.898,0.007c-0.19-0.054-0.679,0.179-0.747-0.105
		c-0.124-0.522-0.034-1.095-0.027-1.646c0-0.028,0.055-0.062,0.089-0.082c0.26-0.151,1.841,0.029,2.061,0.239
		C48.085,81.452,48.18,81.766,48.086,82.112z"/>
	<path fill="#050708" d="M132.709,79.737c-0.215,0.013-0.358,0.033-0.451,0.278c-0.801,2.11-1.62,4.212-2.465,6.397
		c0.5,0,0.878-0.011,1.254,0.005c0.207,0.009,0.369-0.048,0.39-0.257c0.095-0.936,0.719-1.001,1.459-0.93
		c0.352,0.034,0.715,0.043,1.065-0.002c0.579-0.073,0.932,0.096,1.015,0.715c0.046,0.347,0.235,0.53,0.635,0.478
		c0.335-0.044,0.681-0.01,1.08-0.01c-0.726-1.887-1.416-3.685-2.111-5.48C134.084,79.647,134.08,79.652,132.709,79.737z
		 M132.155,83.999c0.352-0.976,0.692-1.919,1.092-3.025c0.394,1.097,0.729,2.029,1.087,3.025
		C133.561,83.999,132.896,83.999,132.155,83.999z"/>
	<path fill="#050708" d="M118.988,79.73c-0.463-0.012-0.712,0.104-0.858,0.574c-0.232,0.739-0.547,1.45-0.826,2.174
		c-0.496,1.292-0.992,2.585-1.509,3.933c0.473,0,0.851-0.016,1.226,0.006c0.243,0.013,0.405-0.073,0.427-0.302
		c0.083-0.875,0.647-0.954,1.357-0.889c0.485,0.045,0.979,0.032,1.466,0.001c0.353-0.022,0.557,0.101,0.606,0.445
		c0.095,0.668,0.494,0.851,1.109,0.744c0.194-0.033,0.399-0.005,0.697-0.005c-0.734-1.911-1.438-3.751-2.144-5.587
		C120.12,79.739,120.117,79.762,118.988,79.73z M118.148,83.989c0.352-0.971,0.696-1.916,1.095-3.014
		c0.394,1.098,0.729,2.037,1.079,3.014C119.573,83.989,118.891,83.989,118.148,83.989z"/>
	<path fill="#050708" d="M40.69,79.734c-1.422-0.08-1.421-0.088-1.917,1.246c-0.108,0.291-0.229,0.577-0.34,0.867
		c-0.575,1.503-1.149,3.006-1.745,4.565c0.24,0,0.396-0.018,0.547,0.004c0.69,0.099,1.207-0.035,1.298-0.857
		c0.028-0.25,0.217-0.336,0.484-0.329c0.689,0.021,1.38,0.032,2.066-0.002c0.4-0.02,0.656,0.094,0.706,0.499
		c0.077,0.628,0.446,0.778,1.01,0.694c0.217-0.033,0.442-0.005,0.77-0.005c-0.83-2.172-1.639-4.28-2.438-6.389
		C41.047,79.798,40.919,79.747,40.69,79.734z M39.044,83.983c0.347-0.962,0.689-1.904,1.091-3.017
		c0.394,1.107,0.726,2.04,1.074,3.017C40.47,83.983,39.791,83.983,39.044,83.983z"/>
	<path fill="#050708" d="M71.596,79.726c-1.147,0.048-1.147,0.015-1.559,1.104c-0.133,0.352-0.272,0.703-0.406,1.056
		c-0.568,1.487-1.136,2.974-1.728,4.526c0.245,0,0.422-0.024,0.59,0.004c0.685,0.115,1.153-0.059,1.248-0.835
		c0.035-0.293,0.25-0.36,0.534-0.352c0.711,0.02,1.422,0.022,2.133,0c0.324-0.01,0.519,0.091,0.559,0.413
		c0.089,0.709,0.523,0.875,1.157,0.774c0.194-0.03,0.397-0.005,0.664-0.005c-0.786-2.049-1.571-4.044-2.31-6.058
		C72.309,79.89,72.115,79.704,71.596,79.726z M70.254,84c0.361-0.991,0.707-1.943,1.099-3.023c0.389,1.087,0.72,2.018,1.08,3.023
		C71.673,84,71.008,84,70.254,84z"/>
	<path fill="#050708" d="M26.441,82.586c-0.549-0.176-1.118-0.283-1.669-0.452c-0.336-0.104-0.73-0.228-0.659-0.696
		c0.063-0.421,0.427-0.552,0.792-0.588c0.666-0.065,1.264,0.149,1.822,0.506c0.622,0.397,0.549-0.353,0.824-0.529
		c0.284-0.182,0.166-0.395-0.09-0.557c-1.078-0.676-2.222-0.864-3.436-0.452c-0.57,0.194-1.008,0.566-1.232,1.138
		c-0.411,1.047,0.096,2.022,1.291,2.434c0.627,0.217,1.281,0.355,1.912,0.559c0.28,0.09,0.522,0.277,0.505,0.627
		c-0.015,0.3-0.21,0.486-0.463,0.6c-0.332,0.149-0.68,0.167-1.043,0.123c-0.686-0.082-1.247-0.412-1.775-0.865
		c-0.134,0.179-0.236,0.355-0.375,0.494c-0.469,0.468-0.293,0.774,0.215,1.051c1.019,0.556,2.087,0.715,3.214,0.442
		c1.032-0.25,1.642-0.969,1.674-1.96C27.973,83.585,27.446,82.908,26.441,82.586z"/>
	<path fill="#050708" d="M102.814,82.531c-0.489-0.145-0.991-0.245-1.476-0.4c-0.311-0.099-0.684-0.205-0.655-0.636
		c0.032-0.474,0.416-0.606,0.802-0.645c0.666-0.067,1.26,0.156,1.821,0.508c0.618,0.388,0.545-0.362,0.82-0.54
		c0.291-0.189,0.144-0.395-0.102-0.555c-0.921-0.597-1.923-0.789-2.994-0.579c-1.062,0.208-1.752,0.942-1.799,1.86
		c-0.046,0.908,0.511,1.582,1.615,1.919c0.551,0.168,1.119,0.282,1.666,0.46c0.296,0.096,0.586,0.277,0.555,0.659
		c-0.029,0.352-0.272,0.546-0.595,0.637c-0.859,0.245-1.628,0.016-2.31-0.508c-0.271-0.208-0.49-0.328-0.628,0.062
		c-0.112,0.318-0.808,0.547-0.173,1.014c0.729,0.535,1.553,0.731,2.541,0.767c0.158-0.017,0.425-0.029,0.686-0.079
		c1.198-0.23,1.851-0.901,1.925-1.959C104.582,83.562,104.007,82.885,102.814,82.531z"/>
	<path fill="#050708" d="M98.402,85.747c0.037-0.308,0.074-0.613-0.439-0.572c-0.618,0.049-1.243,0.012-1.865,0.012
		c-0.976,0-0.976,0-0.967-0.996c0-0.022,0.004-0.045,0-0.067c-0.067-0.402,0.08-0.544,0.503-0.524
		c0.753,0.035,1.513-0.023,2.265,0.021c0.592,0.035,0.412-0.358,0.431-0.651c0.021-0.313,0.063-0.605-0.444-0.573
		c-0.752,0.046-1.51-0.005-2.266,0.02c-0.358,0.011-0.55-0.066-0.495-0.467c0.024-0.174,0.022-0.357,0-0.533
		c-0.048-0.378,0.098-0.497,0.479-0.484c0.798,0.028,1.6-0.022,2.399,0.018c0.556,0.028,0.397-0.339,0.396-0.609
		c-0.001-0.269,0.162-0.627-0.394-0.612c-1.288,0.034-2.577,0.021-3.866,0.004c-0.318-0.004-0.417,0.084-0.41,0.407
		c0.021,0.978,0.007,1.955,0.007,2.933c0,0.978,0.012,1.955-0.007,2.933c-0.006,0.317,0.08,0.416,0.406,0.412
		c1.288-0.018,2.578-0.03,3.866,0.002C98.621,86.438,98.37,86.017,98.402,85.747z"/>
	<path fill="#050708" d="M148.092,85.187c-0.489,0-0.978,0-1.466,0c-1.101,0-1.085,0-1.077-1.093
		c0.002-0.364,0.083-0.507,0.477-0.492c0.776,0.03,1.557-0.022,2.332,0.02c0.564,0.03,0.39-0.346,0.396-0.614
		c0.006-0.277,0.15-0.64-0.403-0.607c-0.708,0.043-1.425-0.033-2.132,0.023c-0.584,0.046-0.753-0.172-0.663-0.705
		c0.015-0.087,0.015-0.179,0-0.266c-0.066-0.408,0.091-0.539,0.508-0.52c0.776,0.034,1.558-0.028,2.332,0.023
		c0.524,0.034,0.453-0.274,0.435-0.577c-0.017-0.289,0.173-0.67-0.428-0.65c-1.265,0.043-2.533,0.024-3.799,0.005
		c-0.343-0.005-0.456,0.082-0.447,0.439c0.026,0.954,0.009,1.911,0.009,2.866c0,0.978,0.013,1.955-0.007,2.933
		c-0.007,0.34,0.077,0.455,0.436,0.449c1.266-0.023,2.533-0.005,3.799-0.015c0.151-0.001,0.349,0.108,0.44-0.155
		C149.06,85.599,148.782,85.187,148.092,85.187z"/>
	<path fill="#050708" d="M162.493,85.193c-0.533-0.021-1.067-0.007-1.599-0.007c-1.096,0-1.079,0-1.073-1.099
		c0.002-0.373,0.098-0.5,0.483-0.485c0.776,0.029,1.557-0.02,2.332,0.018c0.562,0.027,0.382-0.353,0.39-0.619
		c0.009-0.28,0.135-0.63-0.41-0.601c-0.797,0.043-1.599,0.002-2.399,0.016c-0.275,0.005-0.418-0.065-0.39-0.368
		c0.018-0.199,0.026-0.402-0.001-0.598c-0.059-0.419,0.11-0.531,0.517-0.514c0.776,0.033,1.558-0.027,2.332,0.021
		c0.598,0.037,0.414-0.357,0.429-0.648c0.016-0.302,0.089-0.596-0.435-0.578c-1.265,0.043-2.533,0.027-3.799,0.006
		c-0.353-0.006-0.449,0.1-0.44,0.445c0.023,0.954,0.007,1.911,0.007,2.866c0,0.978,0.006,1.955-0.004,2.933
		c-0.002,0.274,0.001,0.45,0.373,0.442c1.31-0.023,2.622-0.007,3.932-0.011c0.126,0,0.329,0.055,0.347-0.1
		c0.039-0.328,0.076-0.681-0.006-0.993C163.013,85.051,162.696,85.202,162.493,85.193z"/>
	<path fill="#050708" d="M84.219,80.927c0.637,0.067,1.288-0.013,1.931,0.024c0.485,0.028,0.68-0.069,0.676-0.627
		c-0.002-0.533-0.179-0.607-0.644-0.594c-1.154,0.032-2.312,0.045-3.465-0.005c-0.535-0.023-0.616,0.166-0.596,0.633
		c0.037,0.887,0.011,1.777,0.011,2.666c0,0.978,0.01,1.955-0.005,2.933c-0.005,0.314,0.035,0.472,0.422,0.463
		c1.288-0.027,2.578-0.032,3.865,0c0.569,0.013,0.374-0.367,0.378-0.624c0.004-0.263,0.176-0.653-0.386-0.618
		c-0.597,0.037-1.199,0.009-1.799,0.009c-1.11,0-1.085,0-1.095-1.08c-0.004-0.43,0.138-0.52,0.533-0.505
		c0.754,0.029,1.513-0.023,2.266,0.02c0.545,0.032,0.418-0.321,0.41-0.601c-0.009-0.266,0.172-0.65-0.39-0.619
		c-0.686,0.038-1.381-0.035-2.065,0.022c-0.617,0.052-0.775-0.154-0.763-0.757C83.514,81.117,83.589,80.861,84.219,80.927z"/>
	<path fill="#050708" d="M54.871,79.728c-1.441,0.04-2.884,0.029-4.325,0.005c-0.399-0.007-0.442,0.138-0.47,0.49
		c-0.046,0.594,0.126,0.854,0.746,0.751c0.216-0.037,0.445,0.017,0.664-0.011c0.399-0.05,0.551,0.077,0.531,0.503
		c-0.035,0.73-0.01,1.464-0.01,2.195c0,0.598,0,1.198,0,1.797c0,0.982,0,0.959,0.991,0.965c0.399,0.002,0.467-0.138,0.461-0.492
		c-0.021-1.153-0.007-2.307-0.007-3.46c0-1.465,0-1.502,1.44-1.486c0.613,0.007,0.463-0.346,0.49-0.676
		C55.41,79.929,55.368,79.713,54.871,79.728z"/>
	<path fill="#050708" d="M175.877,79.726c-1.419,0.043-2.839,0.034-4.259,0.004c-0.444-0.01-0.533,0.127-0.549,0.55
		c-0.018,0.529,0.089,0.794,0.673,0.692c0.216-0.037,0.447,0.023,0.663-0.012c0.528-0.087,0.619,0.152,0.608,0.629
		c-0.03,1.419,0.011,2.84-0.023,4.259c-0.011,0.481,0.143,0.636,0.595,0.567c0.13-0.02,0.268-0.02,0.399,0
		c0.385,0.059,0.484-0.107,0.47-0.475c-0.028-0.731-0.009-1.464-0.009-2.195c0-0.444,0-0.887,0-1.331c0-1.41,0-1.448,1.431-1.429
		c0.601,0.009,0.48-0.329,0.499-0.668C176.396,79.952,176.393,79.711,175.877,79.726z"/>
	<path fill="#050708" d="M92.215,79.728c-1.419,0.037-2.84,0.037-4.259,0c-0.479-0.012-0.499,0.182-0.529,0.569
		c-0.044,0.562,0.137,0.759,0.69,0.676c0.261-0.039,0.534,0.013,0.797-0.012c0.35-0.034,0.463,0.095,0.453,0.446
		c-0.023,0.753-0.007,1.508-0.007,2.262c0,0.598,0,1.198,0,1.797c0,0.959,0,0.939,0.932,0.956c0.392,0.007,0.535-0.068,0.522-0.5
		c-0.034-1.153-0.012-2.306-0.012-3.46c0-1.453,0-1.488,1.448-1.479c0.617,0.004,0.449-0.36,0.481-0.684
		C92.772,79.903,92.694,79.715,92.215,79.728z"/>
	<path fill="#050708" d="M67.382,80.678c0-0.963,0-0.94-0.932-0.948c-0.389-0.004-0.477,0.122-0.467,0.486
		c0.024,0.953,0.009,1.908,0.009,2.862c0,0.954,0.04,1.91-0.015,2.861c-0.037,0.628,0.358,0.481,0.676,0.464
		c0.314-0.017,0.761,0.222,0.745-0.468C67.354,84.185,67.382,82.431,67.382,80.678z"/>
	<path fill="#FEFEFE" d="M134.809,46.87c-0.001,0.026-0.004,0.051-0.004,0.078c0.012-0.017,0.02-0.037,0.03-0.054
		C134.827,46.886,134.819,46.877,134.809,46.87z"/>
	<path fill="#FEFEFE" d="M154.806,27.818c0.006,0.001,0.012,0.001,0.018,0.002c0.056-0.03,0.111-0.069,0.161-0.126
		c-0.197,0.021-0.396,0.029-0.594,0.038C154.506,27.76,154.638,27.788,154.806,27.818z"/>
	<path fill="#2B2728" d="M173.442,26.274c-0.006,0.066-0.001,0.133-0.001,0.2c0,0.311-0.018,0.623,0.006,0.931
		c0.017,0.207-0.149,0.547,0.264,0.55c0.416,0.002,0.222-0.341,0.275-0.545c0.045-0.172-0.124-0.43,0.172-0.499
		c0.247-0.056,0.423,0.074,0.539,0.291c0.052,0.098,0.101,0.2,0.169,0.285c0.165,0.207,0.261,0.655,0.606,0.436
		c0.288-0.182-0.054-0.449-0.171-0.641c-0.166-0.271-0.275-0.43,0.119-0.63c0.306-0.155,0.394-0.518,0.303-0.879
		c-0.089-0.356-0.317-0.601-0.67-0.664c-0.502-0.09-1.082-0.193-1.499,0.032C173.253,25.304,173.481,25.883,173.442,26.274z
		 M174.445,25.497c0.344,0.03,0.741,0.033,0.725,0.475c-0.015,0.418-0.416,0.453-0.748,0.484c-0.375,0.061-0.456-0.124-0.462-0.458
		C173.954,25.633,174.049,25.463,174.445,25.497z"/>
	<path fill="#F9C914" d="M136.964,46.977c-0.015,9.348,7.675,17.132,16.902,17.136c9.704,0.004,17.395-7.551,17.4-17.091
		c0.004-9.455-7.585-17.091-16.884-17.219C145.122,29.675,136.978,37.116,136.964,46.977z M167.382,47.405
		c-0.228,6.868-5.808,12.824-13.354,12.832c-7.339,0.009-13.219-6.066-13.179-13.554c0.038-7.106,6.103-13.014,13.331-12.985
		C161.521,33.696,167.632,39.86,167.382,47.405z"/>
</g>
</svg>
