<?xml version="1.0" encoding="utf-8"?>
<!-- Generator: Adobe Illustrator 17.0.0, SVG Export Plug-In . SVG Version: 6.00 Build 0)  -->
<!DOCTYPE svg PUBLIC "-//W3C//DTD SVG 1.1//EN" "http://www.w3.org/Graphics/SVG/1.1/DTD/svg11.dtd">
<svg version="1.1" id="Layer_1" xmlns="http://www.w3.org/2000/svg" xmlns:xlink="http://www.w3.org/1999/xlink" x="0px" y="0px"
	 width="200px" height="110px" viewBox="0 0 200 110" enable-background="new 0 0 200 110" xml:space="preserve">
<g>
	<path fill="#0D0C22" d="M30.091,43.77l-0.029-0.017l-0.067-0.02C30.022,43.755,30.056,43.768,30.091,43.77L30.091,43.77z"/>
	<path fill="#0D0C22" d="M30.511,46.77l-0.032,0.009L30.511,46.77z"/>
	<path fill="#0D0C22" d="M30.103,43.765c-0.004-0.001-0.008-0.001-0.012-0.003c0,0.003,0,0.005,0,0.008
		C30.096,43.769,30.1,43.768,30.103,43.765L30.103,43.765z"/>
	<path fill="#0D0C22" d="M30.091,43.77h0.004v-0.003L30.091,43.77z"/>
	<path fill="#0D0C22" d="M30.485,46.765l0.049-0.028l0.018-0.01l0.016-0.018C30.537,46.723,30.509,46.741,30.485,46.765
		L30.485,46.765z"/>
	<path fill="#0D0C22" d="M30.175,43.835l-0.047-0.045l-0.032-0.018C30.113,43.803,30.141,43.825,30.175,43.835L30.175,43.835z"/>
	<path fill="#0D0C22" d="M18.233,72.953c-0.038,0.016-0.071,0.042-0.097,0.075l0.03-0.019
		C18.187,72.989,18.216,72.967,18.233,72.953z"/>
	<path fill="#0D0C22" d="M25.168,71.588c0-0.043-0.021-0.035-0.016,0.118c0-0.012,0.005-0.025,0.007-0.037
		C25.162,71.642,25.164,71.615,25.168,71.588z"/>
	<path fill="#0D0C22" d="M24.448,72.953c-0.038,0.016-0.071,0.042-0.097,0.075l0.03-0.019
		C24.402,72.989,24.431,72.967,24.448,72.953z"/>
	<path fill="#0D0C22" d="M13.349,73.277c-0.029-0.025-0.064-0.041-0.102-0.047c0.031,0.015,0.061,0.029,0.081,0.041L13.349,73.277z"
		/>
	<path fill="#0D0C22" d="M12.25,72.225c-0.004-0.045-0.018-0.088-0.04-0.127c0.016,0.041,0.029,0.082,0.039,0.124L12.25,72.225z"/>
	<path fill="#FFDD00" d="M19.632,53.402c-1.509,0.646-3.221,1.378-5.44,1.378c-0.928-0.002-1.852-0.129-2.746-0.379l1.535,15.756
		c0.054,0.659,0.354,1.273,0.84,1.72c0.486,0.448,1.123,0.696,1.784,0.696c0,0,2.176,0.113,2.902,0.113
		c0.781,0,3.125-0.113,3.125-0.113c0.661,0,1.297-0.249,1.783-0.696c0.486-0.448,0.786-1.062,0.84-1.72l1.644-17.411
		c-0.735-0.251-1.476-0.418-2.312-0.418C22.142,52.328,20.978,52.826,19.632,53.402z"/>
	<path fill="#0D0C22" d="M6.696,46.68l0.026,0.024l0.017,0.01C6.726,46.701,6.711,46.689,6.696,46.68L6.696,46.68z"/>
	<path fill="#0D0C22" d="M32.996,45.225l-0.231-1.166c-0.207-1.046-0.678-2.034-1.752-2.412c-0.344-0.121-0.735-0.173-0.998-0.423
		c-0.264-0.25-0.342-0.639-0.403-1c-0.113-0.662-0.219-1.324-0.335-1.984c-0.1-0.568-0.179-1.206-0.44-1.727
		c-0.339-0.7-1.042-1.109-1.742-1.379C26.737,35,26.371,34.887,26,34.795c-1.748-0.461-3.585-0.631-5.383-0.727
		c-2.158-0.119-4.322-0.083-6.475,0.107c-1.602,0.146-3.29,0.322-4.813,0.876c-0.557,0.203-1.13,0.446-1.553,0.876
		c-0.519,0.528-0.689,1.345-0.31,2.004c0.27,0.468,0.726,0.798,1.21,1.017c0.631,0.282,1.289,0.496,1.965,0.64
		c1.882,0.416,3.83,0.579,5.753,0.649c2.131,0.086,4.265,0.016,6.385-0.208c0.524-0.058,1.048-0.127,1.57-0.207
		c0.615-0.094,1.01-0.899,0.829-1.46c-0.217-0.67-0.8-0.93-1.46-0.829c-0.097,0.015-0.194,0.029-0.291,0.044l-0.07,0.01
		c-0.223,0.028-0.447,0.055-0.67,0.079c-0.461,0.05-0.924,0.09-1.388,0.122c-1.039,0.072-2.08,0.106-3.121,0.107
		c-1.023,0-2.046-0.029-3.067-0.096c-0.466-0.031-0.93-0.069-1.393-0.116c-0.211-0.022-0.421-0.045-0.631-0.071l-0.2-0.025
		l-0.043-0.006l-0.207-0.03c-0.424-0.064-0.848-0.137-1.267-0.226c-0.042-0.009-0.08-0.033-0.107-0.067
		c-0.027-0.034-0.042-0.076-0.042-0.119c0-0.043,0.015-0.085,0.042-0.119c0.027-0.034,0.065-0.057,0.107-0.067h0.008
		c0.363-0.077,0.729-0.144,1.097-0.201c0.122-0.019,0.245-0.038,0.368-0.057h0.003c0.23-0.015,0.461-0.057,0.69-0.084
		c1.991-0.207,3.994-0.278,5.995-0.211c0.971,0.028,1.942,0.085,2.909,0.184c0.208,0.021,0.415,0.044,0.622,0.07
		c0.079,0.01,0.159,0.021,0.238,0.031l0.161,0.023c0.468,0.07,0.933,0.154,1.396,0.254c0.686,0.149,1.567,0.198,1.872,0.949
		c0.097,0.238,0.141,0.503,0.195,0.754l0.068,0.319c0.002,0.006,0.003,0.012,0.004,0.017c0.162,0.753,0.323,1.507,0.485,2.26
		c0.012,0.056,0.012,0.113,0.001,0.169c-0.011,0.056-0.034,0.109-0.067,0.155c-0.033,0.047-0.075,0.086-0.123,0.116
		c-0.049,0.03-0.103,0.049-0.159,0.057h-0.005l-0.099,0.014l-0.098,0.013c-0.31,0.04-0.62,0.078-0.93,0.113
		c-0.611,0.07-1.224,0.13-1.837,0.181c-1.219,0.101-2.44,0.168-3.663,0.199c-0.623,0.017-1.247,0.024-1.87,0.023
		c-2.48-0.002-4.958-0.146-7.421-0.432c-0.267-0.032-0.533-0.066-0.8-0.1c0.207,0.027-0.15-0.02-0.223-0.031
		c-0.17-0.024-0.339-0.048-0.509-0.074c-0.569-0.085-1.135-0.19-1.703-0.283c-0.687-0.113-1.343-0.056-1.964,0.283
		C5.503,41.943,5.09,42.37,4.83,42.89c-0.268,0.554-0.348,1.157-0.467,1.752c-0.12,0.595-0.306,1.235-0.236,1.846
		c0.152,1.318,1.074,2.39,2.399,2.629c1.247,0.226,2.501,0.409,3.758,0.565c4.939,0.605,9.928,0.677,14.882,0.216
		c0.403-0.038,0.806-0.079,1.209-0.123c0.126-0.014,0.253,0.001,0.372,0.042c0.119,0.042,0.228,0.11,0.318,0.199
		c0.09,0.089,0.158,0.197,0.201,0.316c0.043,0.119,0.058,0.246,0.045,0.372l-0.125,1.219c-0.253,2.464-0.506,4.928-0.758,7.391
		c-0.264,2.587-0.529,5.174-0.796,7.761c-0.075,0.729-0.151,1.457-0.226,2.185c-0.072,0.717-0.082,1.457-0.219,2.165
		c-0.215,1.114-0.969,1.799-2.07,2.049c-1.008,0.229-2.039,0.35-3.073,0.359c-1.147,0.006-2.292-0.045-3.439-0.038
		c-1.224,0.007-2.723-0.106-3.668-1.017c-0.83-0.8-0.945-2.053-1.058-3.136c-0.151-1.434-0.3-2.868-0.448-4.302l-0.831-7.972
		l-0.537-5.158c-0.009-0.085-0.018-0.17-0.027-0.255c-0.064-0.615-0.5-1.218-1.187-1.187c-0.588,0.026-1.256,0.526-1.187,1.187
		l0.398,3.824l0.824,7.911c0.235,2.247,0.469,4.494,0.702,6.742c0.045,0.431,0.088,0.862,0.135,1.293
		c0.258,2.353,2.055,3.621,4.28,3.978c1.3,0.209,2.631,0.252,3.95,0.273c1.691,0.027,3.398,0.092,5.061-0.214
		c2.464-0.452,4.313-2.097,4.577-4.65c0.075-0.737,0.151-1.474,0.226-2.211c0.25-2.438,0.501-4.876,0.75-7.315l0.817-7.967
		l0.375-3.651c0.019-0.181,0.095-0.351,0.218-0.486c0.123-0.134,0.286-0.225,0.465-0.26c0.705-0.137,1.378-0.372,1.879-0.908
		C33.119,47.461,33.278,46.347,32.996,45.225z M6.49,46.013c0.011-0.005-0.009,0.087-0.018,0.13
		C6.471,46.078,6.474,46.02,6.49,46.013z M6.558,46.542c0.006-0.004,0.023,0.019,0.04,0.046C6.572,46.563,6.555,46.544,6.558,46.542
		L6.558,46.542z M6.626,46.631C6.65,46.672,6.663,46.698,6.626,46.631L6.626,46.631z M6.761,46.74h0.003
		c0,0.004,0.006,0.008,0.008,0.012C6.769,46.748,6.765,46.744,6.761,46.74L6.761,46.74z M30.409,46.576
		c-0.253,0.241-0.635,0.353-1.011,0.409c-4.227,0.627-8.515,0.945-12.788,0.805c-3.058-0.105-6.084-0.444-9.111-0.872
		c-0.297-0.042-0.618-0.096-0.822-0.315c-0.384-0.412-0.196-1.243-0.095-1.741c0.092-0.457,0.267-1.065,0.81-1.13
		c0.848-0.099,1.832,0.258,2.67,0.385c1.01,0.154,2.023,0.277,3.04,0.37c4.341,0.395,8.754,0.334,13.076-0.245
		c0.788-0.106,1.573-0.229,2.355-0.369c0.697-0.125,1.469-0.359,1.89,0.362c0.289,0.492,0.327,1.149,0.283,1.705
		C30.69,46.182,30.585,46.41,30.409,46.576L30.409,46.576z"/>
	<path fill="#0D0C23" d="M56.045,58.32c-0.247,0.471-0.586,0.881-1.018,1.229c-0.432,0.348-0.936,0.632-1.512,0.85
		c-0.576,0.219-1.155,0.366-1.738,0.441c-0.583,0.075-1.149,0.069-1.697-0.021c-0.548-0.089-1.015-0.27-1.398-0.543l0.432-4.487
		c0.397-0.136,0.897-0.277,1.501-0.42c0.603-0.143,1.223-0.246,1.861-0.307c0.638-0.062,1.241-0.054,1.81,0.021
		c0.568,0.075,1.018,0.256,1.347,0.543c0.178,0.164,0.329,0.341,0.453,0.533c0.123,0.191,0.199,0.389,0.226,0.594
		C56.381,57.326,56.292,57.848,56.045,58.32z M49.773,48.761c0.288-0.178,0.634-0.335,1.038-0.472
		c0.404-0.136,0.819-0.232,1.244-0.287c0.425-0.054,0.84-0.062,1.244-0.021c0.404,0.041,0.761,0.154,1.069,0.338
		c0.309,0.185,0.538,0.451,0.689,0.799c0.151,0.349,0.192,0.789,0.124,1.322c-0.055,0.423-0.223,0.782-0.504,1.076
		c-0.281,0.294-0.624,0.54-1.028,0.738c-0.405,0.198-0.833,0.355-1.285,0.471c-0.453,0.116-0.888,0.202-1.306,0.256
		c-0.418,0.055-0.782,0.089-1.09,0.102c-0.309,0.014-0.511,0.021-0.607,0.021L49.773,48.761z M58.266,55.42
		c-0.219-0.478-0.514-0.898-0.884-1.26c-0.37-0.362-0.809-0.625-1.316-0.789c0.219-0.178,0.435-0.458,0.648-0.84
		c0.213-0.382,0.394-0.799,0.545-1.25c0.15-0.451,0.253-0.905,0.308-1.363c0.055-0.458,0.034-0.85-0.061-1.178
		c-0.234-0.819-0.6-1.461-1.101-1.926c-0.501-0.464-1.083-0.785-1.748-0.963c-0.665-0.177-1.399-0.215-2.2-0.113
		c-0.802,0.102-1.622,0.304-2.458,0.604c0-0.068,0.007-0.14,0.021-0.215c0.013-0.075,0.02-0.154,0.02-0.236
		c0-0.205-0.103-0.382-0.308-0.533c-0.206-0.15-0.442-0.239-0.709-0.266c-0.267-0.027-0.528,0.031-0.782,0.174
		c-0.254,0.143-0.429,0.407-0.524,0.789c-0.11,1.23-0.219,2.507-0.329,3.832c-0.11,1.325-0.226,2.664-0.35,4.017
		c-0.123,1.352-0.247,2.694-0.37,4.026c-0.123,1.332-0.247,2.613-0.37,3.842c0.041,0.369,0.144,0.656,0.309,0.861
		c0.164,0.205,0.356,0.328,0.576,0.369c0.219,0.041,0.449,0.003,0.689-0.113c0.24-0.116,0.449-0.318,0.627-0.604
		c0.548,0.3,1.165,0.495,1.851,0.584c0.685,0.089,1.381,0.089,2.087,0c0.706-0.089,1.402-0.256,2.087-0.502
		c0.685-0.246,1.309-0.553,1.871-0.922c0.562-0.369,1.035-0.789,1.419-1.26c0.384-0.472,0.637-0.98,0.761-1.526
		c0.123-0.56,0.157-1.12,0.103-1.68C58.623,56.417,58.485,55.899,58.266,55.42z"/>
	<path fill="#0D0C23" d="M78.328,66.239c-0.075,0.451-0.182,0.925-0.319,1.424c-0.138,0.498-0.299,0.953-0.483,1.363
		c-0.185,0.41-0.391,0.741-0.616,0.994c-0.227,0.253-0.47,0.359-0.731,0.318c-0.206-0.028-0.336-0.158-0.391-0.389
		c-0.055-0.233-0.055-0.519,0-0.861c0.055-0.342,0.161-0.728,0.319-1.158c0.157-0.43,0.35-0.857,0.576-1.281
		c0.227-0.424,0.484-0.83,0.771-1.219c0.288-0.389,0.589-0.714,0.905-0.973c0.069,0.082,0.099,0.287,0.092,0.615
		C78.444,65.399,78.403,65.788,78.328,66.239z M85.3,57.346c-0.185-0.205-0.411-0.321-0.679-0.348
		c-0.267-0.027-0.538,0.123-0.812,0.451c-0.178,0.328-0.404,0.642-0.679,0.943c-0.275,0.301-0.559,0.574-0.854,0.82
		c-0.294,0.246-0.576,0.458-0.843,0.635c-0.267,0.178-0.477,0.308-0.627,0.389c-0.055-0.437-0.086-0.908-0.092-1.414
		c-0.007-0.505,0.003-1.017,0.031-1.537c0.041-0.738,0.127-1.482,0.257-2.234c0.13-0.751,0.319-1.489,0.565-2.213
		c0-0.382-0.089-0.693-0.267-0.932c-0.178-0.239-0.394-0.389-0.648-0.451c-0.254-0.061-0.514-0.027-0.782,0.102
		c-0.267,0.13-0.497,0.366-0.689,0.707c-0.165,0.451-0.353,0.956-0.565,1.516c-0.213,0.56-0.453,1.131-0.72,1.711
		c-0.267,0.581-0.566,1.144-0.895,1.691c-0.329,0.547-0.689,1.032-1.08,1.455c-0.391,0.423-0.816,0.755-1.275,0.994
		c-0.46,0.239-0.956,0.345-1.491,0.318c-0.247-0.068-0.425-0.253-0.535-0.553c-0.109-0.3-0.175-0.676-0.195-1.127
		c-0.021-0.451,0-0.946,0.062-1.486c0.062-0.539,0.144-1.076,0.247-1.608c0.103-0.533,0.216-1.038,0.34-1.516
		c0.123-0.478,0.24-0.881,0.35-1.209c0.165-0.396,0.165-0.728,0-0.994c-0.165-0.266-0.391-0.444-0.679-0.533
		c-0.288-0.089-0.59-0.085-0.905,0.01c-0.316,0.096-0.542,0.307-0.679,0.635c-0.233,0.56-0.446,1.189-0.638,1.885
		c-0.192,0.697-0.346,1.418-0.463,2.162c-0.117,0.745-0.182,1.483-0.196,2.213c-0.001,0.048,0.001,0.093,0.001,0.14
		c-0.299,0.794-0.584,1.394-0.855,1.796c-0.35,0.519-0.744,0.745-1.182,0.676c-0.192-0.082-0.319-0.273-0.38-0.574
		c-0.062-0.3-0.083-0.669-0.062-1.107c0.021-0.437,0.072-0.932,0.154-1.485c0.083-0.553,0.185-1.127,0.309-1.721
		c0.124-0.595,0.254-1.192,0.391-1.793c0.137-0.601,0.26-1.168,0.371-1.701c-0.014-0.478-0.155-0.843-0.422-1.096
		c-0.267-0.252-0.641-0.351-1.121-0.297c-0.329,0.137-0.573,0.315-0.731,0.533c-0.158,0.218-0.284,0.499-0.38,0.84
		c-0.055,0.178-0.138,0.533-0.247,1.066c-0.11,0.532-0.25,1.144-0.421,1.834c-0.172,0.69-0.374,1.411-0.607,2.162
		c-0.233,0.751-0.494,1.431-0.781,2.039c-0.288,0.608-0.604,1.096-0.946,1.465c-0.343,0.369-0.713,0.519-1.111,0.451
		c-0.219-0.041-0.36-0.266-0.421-0.676c-0.062-0.41-0.072-0.915-0.031-1.516c0.041-0.601,0.123-1.26,0.247-1.977
		c0.123-0.717,0.25-1.397,0.38-2.039c0.13-0.642,0.25-1.209,0.36-1.701c0.109-0.492,0.185-0.82,0.226-0.983
		c0-0.396-0.089-0.714-0.267-0.953c-0.178-0.239-0.394-0.389-0.648-0.451c-0.254-0.061-0.514-0.027-0.782,0.102
		c-0.267,0.13-0.497,0.366-0.689,0.707c-0.069,0.369-0.158,0.796-0.267,1.281c-0.11,0.485-0.216,0.983-0.318,1.496
		c-0.103,0.512-0.199,1.014-0.288,1.506c-0.089,0.492-0.155,0.922-0.196,1.291c-0.028,0.287-0.058,0.639-0.092,1.055
		c-0.035,0.417-0.052,0.857-0.052,1.322c0,0.465,0.034,0.926,0.103,1.383c0.068,0.458,0.192,0.878,0.37,1.26
		c0.178,0.383,0.428,0.697,0.751,0.943c0.322,0.246,0.73,0.382,1.224,0.41c0.507,0.027,0.949-0.01,1.326-0.113
		c0.377-0.102,0.719-0.263,1.028-0.482c0.309-0.218,0.589-0.478,0.843-0.779c0.253-0.3,0.504-0.628,0.751-0.983
		c0.233,0.519,0.535,0.922,0.905,1.209c0.37,0.287,0.761,0.458,1.172,0.512c0.411,0.054,0.829-0.003,1.255-0.174
		c0.425-0.171,0.808-0.461,1.151-0.871c0.226-0.251,0.439-0.537,0.639-0.853c0.085,0.148,0.175,0.291,0.276,0.422
		c0.336,0.438,0.792,0.738,1.368,0.902c0.616,0.164,1.22,0.192,1.809,0.082c0.589-0.109,1.151-0.308,1.686-0.594
		c0.535-0.287,1.032-0.632,1.491-1.035c0.459-0.403,0.86-0.823,1.203-1.26c-0.014,0.314-0.021,0.612-0.021,0.891
		c0,0.28-0.007,0.584-0.021,0.912c-0.685,0.478-1.333,1.052-1.943,1.721c-0.61,0.669-1.145,1.383-1.604,2.141
		c-0.459,0.758-0.819,1.527-1.079,2.305c-0.261,0.779-0.388,1.506-0.381,2.183c0.007,0.676,0.168,1.267,0.483,1.772
		c0.316,0.506,0.829,0.868,1.543,1.086c0.741,0.232,1.392,0.239,1.954,0.021c0.562-0.219,1.052-0.581,1.47-1.086
		c0.418-0.505,0.761-1.117,1.029-1.834c0.267-0.717,0.48-1.465,0.637-2.244c0.158-0.779,0.257-1.544,0.298-2.295
		c0.041-0.752,0.041-1.421,0-2.008c1.179-0.492,2.146-1.113,2.9-1.865c0.754-0.751,1.378-1.543,1.871-2.377
		c0.151-0.205,0.202-0.451,0.155-0.737C85.601,57.797,85.485,57.551,85.3,57.346z"/>
	<path fill="#0D0C23" d="M111.242,56.035c0.041-0.314,0.103-0.645,0.185-0.994c0.082-0.348,0.185-0.687,0.309-1.014
		c0.123-0.328,0.267-0.611,0.432-0.85c0.165-0.239,0.34-0.41,0.524-0.512c0.185-0.102,0.374-0.092,0.566,0.031
		c0.206,0.123,0.332,0.383,0.38,0.779c0.047,0.397,0,0.82-0.144,1.271c-0.144,0.451-0.401,0.874-0.771,1.27
		c-0.37,0.396-0.87,0.656-1.501,0.779C111.193,56.602,111.2,56.349,111.242,56.035z M118.367,56.875
		c-0.226-0.068-0.442-0.075-0.648-0.02c-0.206,0.055-0.336,0.198-0.391,0.431c-0.11,0.437-0.285,0.884-0.525,1.342
		c-0.24,0.458-0.535,0.891-0.884,1.301c-0.35,0.41-0.744,0.772-1.183,1.086c-0.439,0.314-0.898,0.54-1.378,0.676
		c-0.48,0.151-0.878,0.167-1.193,0.051c-0.315-0.116-0.565-0.314-0.75-0.594s-0.319-0.618-0.401-1.014
		c-0.082-0.396-0.131-0.806-0.144-1.23c0.781,0.055,1.477-0.085,2.088-0.42c0.61-0.334,1.127-0.779,1.552-1.332
		c0.425-0.553,0.747-1.175,0.967-1.865c0.219-0.69,0.343-1.376,0.37-2.059c0.013-0.642-0.082-1.185-0.288-1.629
		c-0.206-0.444-0.484-0.789-0.833-1.035c-0.349-0.246-0.75-0.389-1.203-0.43c-0.452-0.041-0.912,0.021-1.378,0.184
		c-0.562,0.191-1.038,0.502-1.429,0.932c-0.391,0.43-0.717,0.929-0.977,1.496c-0.26,0.567-0.466,1.178-0.617,1.834
		c-0.151,0.656-0.26,1.301-0.329,1.937c-0.062,0.57-0.095,1.115-0.106,1.641c-0.029,0.067-0.058,0.131-0.089,0.203
		c-0.213,0.485-0.46,0.96-0.74,1.424c-0.281,0.465-0.593,0.854-0.936,1.168c-0.343,0.314-0.699,0.423-1.07,0.328
		c-0.219-0.054-0.339-0.308-0.36-0.758c-0.02-0.451,0.003-1.011,0.072-1.68c0.069-0.669,0.148-1.394,0.237-2.172
		c0.089-0.779,0.133-1.523,0.133-2.233c0-0.615-0.116-1.205-0.35-1.773c-0.233-0.566-0.552-1.038-0.956-1.414
		c-0.405-0.376-0.874-0.625-1.409-0.748c-0.535-0.123-1.111-0.041-1.727,0.246c-0.617,0.287-1.107,0.69-1.47,1.209
		c-0.364,0.519-0.697,1.066-0.998,1.639c-0.11-0.437-0.27-0.843-0.483-1.219c-0.213-0.376-0.473-0.703-0.782-0.984
		c-0.309-0.28-0.655-0.498-1.038-0.656c-0.384-0.157-0.789-0.236-1.214-0.236c-0.411,0-0.792,0.079-1.141,0.236
		c-0.35,0.157-0.668,0.358-0.956,0.604c-0.288,0.246-0.548,0.523-0.782,0.83c-0.233,0.307-0.439,0.611-0.616,0.912
		c-0.028-0.355-0.059-0.666-0.093-0.932c-0.034-0.266-0.096-0.492-0.185-0.676c-0.089-0.185-0.216-0.324-0.38-0.42
		c-0.165-0.095-0.397-0.143-0.699-0.143c-0.151,0-0.302,0.031-0.453,0.092c-0.151,0.062-0.285,0.147-0.401,0.256
		c-0.117,0.11-0.206,0.243-0.267,0.4c-0.062,0.157-0.079,0.338-0.052,0.543c0.013,0.15,0.052,0.331,0.113,0.543
		c0.062,0.212,0.12,0.489,0.175,0.83c0.055,0.342,0.099,0.755,0.133,1.24c0.035,0.485,0.045,1.079,0.031,1.783
		c-0.014,0.704-0.065,1.527-0.154,2.469c-0.089,0.943-0.23,2.035-0.421,3.278c-0.028,0.287,0.082,0.519,0.329,0.697
		c0.247,0.177,0.528,0.28,0.843,0.307c0.315,0.027,0.614-0.028,0.894-0.164c0.281-0.137,0.443-0.376,0.484-0.717
		c0.041-0.642,0.12-1.325,0.236-2.049c0.116-0.724,0.26-1.441,0.432-2.151c0.171-0.71,0.366-1.386,0.586-2.029
		c0.219-0.642,0.463-1.209,0.73-1.701c0.267-0.492,0.545-0.884,0.833-1.178c0.288-0.294,0.589-0.441,0.905-0.441
		c0.384,0,0.682,0.174,0.895,0.522c0.212,0.349,0.363,0.796,0.452,1.342c0.089,0.547,0.13,1.145,0.124,1.793
		c-0.007,0.649-0.035,1.274-0.082,1.875c-0.048,0.601-0.103,1.137-0.165,1.609s-0.106,0.796-0.133,0.973
		c0,0.314,0.12,0.563,0.359,0.748c0.24,0.184,0.507,0.294,0.802,0.328c0.295,0.034,0.572-0.021,0.833-0.164
		c0.26-0.143,0.411-0.386,0.452-0.727c0.137-0.983,0.326-1.97,0.565-2.961c0.24-0.99,0.514-1.878,0.823-2.664
		c0.308-0.786,0.651-1.428,1.028-1.926c0.377-0.498,0.778-0.748,1.203-0.748c0.219,0,0.387,0.151,0.504,0.451
		c0.116,0.3,0.175,0.71,0.175,1.229c0,0.383-0.031,0.775-0.092,1.178c-0.062,0.403-0.133,0.82-0.216,1.25
		c-0.082,0.431-0.154,0.871-0.216,1.322c-0.062,0.451-0.092,0.922-0.092,1.414c0,0.342,0.034,0.738,0.103,1.189
		c0.069,0.451,0.199,0.878,0.391,1.281c0.192,0.403,0.456,0.745,0.792,1.024c0.336,0.28,0.764,0.42,1.285,0.42
		c0.782,0,1.474-0.167,2.078-0.502c0.603-0.335,1.121-0.772,1.553-1.311c0.022-0.028,0.043-0.059,0.064-0.087
		c0.033,0.08,0.063,0.164,0.1,0.24c0.295,0.601,0.696,1.065,1.203,1.393c0.507,0.328,1.103,0.509,1.789,0.543
		c0.685,0.034,1.432-0.093,2.242-0.379c0.603-0.219,1.127-0.492,1.573-0.82c0.445-0.328,0.846-0.727,1.203-1.199
		s0.682-1.014,0.977-1.629c0.295-0.615,0.593-1.318,0.894-2.111c0.055-0.218,0.003-0.413-0.154-0.584
		C118.786,57.063,118.594,56.943,118.367,56.875z"/>
	<path fill="#0D0C23" d="M129.544,54.589c-0.069,0.403-0.161,0.847-0.278,1.332c-0.117,0.485-0.264,0.987-0.442,1.506
		c-0.178,0.519-0.397,0.987-0.658,1.404c-0.261,0.417-0.559,0.748-0.895,0.994c-0.336,0.246-0.723,0.348-1.162,0.307
		c-0.219-0.027-0.387-0.177-0.504-0.451c-0.117-0.273-0.178-0.622-0.185-1.045c-0.007-0.423,0.031-0.888,0.113-1.393
		c0.082-0.505,0.209-1.001,0.381-1.486c0.171-0.485,0.38-0.932,0.627-1.342c0.247-0.41,0.531-0.727,0.854-0.953
		c0.322-0.225,0.675-0.331,1.059-0.318c0.384,0.014,0.795,0.205,1.234,0.574C129.66,53.896,129.613,54.187,129.544,54.589z
		 M136.855,56.157c-0.213-0.109-0.432-0.133-0.658-0.071c-0.226,0.061-0.388,0.27-0.484,0.625c-0.055,0.383-0.178,0.833-0.37,1.352
		c-0.192,0.519-0.429,1.011-0.709,1.475c-0.282,0.465-0.604,0.851-0.967,1.158c-0.363,0.308-0.75,0.448-1.162,0.42
		c-0.343-0.027-0.583-0.201-0.72-0.522c-0.138-0.321-0.209-0.724-0.216-1.209c-0.007-0.485,0.041-1.031,0.144-1.639
		c0.103-0.608,0.226-1.212,0.37-1.814c0.144-0.601,0.291-1.178,0.443-1.731c0.15-0.553,0.274-1.021,0.37-1.403
		c0.11-0.342,0.075-0.632-0.103-0.871c-0.178-0.239-0.401-0.41-0.668-0.512c-0.268-0.102-0.538-0.13-0.813-0.082
		c-0.274,0.048-0.452,0.195-0.535,0.44c-0.809-0.697-1.587-1.072-2.334-1.127c-0.748-0.055-1.437,0.109-2.067,0.492
		c-0.631,0.382-1.189,0.936-1.676,1.66s-0.881,1.513-1.183,2.367c-0.301,0.854-0.49,1.725-0.565,2.613
		c-0.075,0.888-0.017,1.698,0.175,2.428c0.192,0.731,0.531,1.329,1.018,1.793c0.486,0.465,1.148,0.697,1.985,0.697
		c0.37,0,0.726-0.075,1.069-0.225c0.343-0.15,0.658-0.328,0.946-0.533c0.288-0.205,0.541-0.42,0.761-0.645
		c0.219-0.225,0.391-0.413,0.514-0.564c0.096,0.492,0.254,0.909,0.473,1.25c0.219,0.341,0.47,0.622,0.751,0.84
		c0.281,0.218,0.576,0.379,0.884,0.482c0.309,0.102,0.607,0.154,0.895,0.154c0.645,0,1.247-0.219,1.81-0.656
		c0.562-0.437,1.066-0.973,1.512-1.608c0.445-0.635,0.812-1.304,1.1-2.008c0.288-0.703,0.48-1.328,0.576-1.875
		c0.096-0.205,0.079-0.42-0.051-0.645C137.239,56.434,137.067,56.267,136.855,56.157z"/>
	<path fill="#0D0C23" d="M173.872,67.469c-0.116,0.464-0.298,0.857-0.545,1.178c-0.247,0.321-0.555,0.488-0.926,0.502
		c-0.233,0.014-0.411-0.109-0.535-0.369c-0.123-0.26-0.209-0.594-0.257-1.004c-0.048-0.41-0.069-0.868-0.062-1.373
		c0.007-0.505,0.028-1.004,0.062-1.496c0.034-0.492,0.075-0.95,0.124-1.373c0.047-0.424,0.085-0.751,0.113-0.983
		c0.466,0.055,0.854,0.256,1.162,0.604c0.309,0.348,0.545,0.761,0.709,1.24c0.165,0.478,0.26,0.994,0.288,1.547
		C174.033,66.496,173.989,67.005,173.872,67.469z M166.428,67.469c-0.116,0.464-0.298,0.857-0.545,1.178
		c-0.247,0.321-0.555,0.488-0.925,0.502c-0.233,0.014-0.411-0.109-0.535-0.369c-0.124-0.26-0.209-0.594-0.257-1.004
		c-0.048-0.41-0.069-0.868-0.062-1.373c0.006-0.505,0.027-1.004,0.062-1.496c0.034-0.492,0.075-0.95,0.123-1.373
		c0.048-0.424,0.086-0.751,0.113-0.983c0.466,0.055,0.854,0.256,1.162,0.604c0.309,0.348,0.545,0.761,0.71,1.24
		c0.165,0.478,0.26,0.994,0.288,1.547C166.589,66.496,166.544,67.005,166.428,67.469z M158.789,55.831
		c-0.014,0.328-0.045,0.618-0.093,0.871c-0.048,0.253-0.113,0.413-0.196,0.482c-0.151-0.082-0.336-0.293-0.555-0.635
		c-0.219-0.341-0.391-0.728-0.514-1.158c-0.123-0.43-0.161-0.853-0.113-1.27c0.047-0.416,0.264-0.741,0.648-0.973
		c0.15-0.082,0.281-0.051,0.391,0.092c0.11,0.144,0.199,0.352,0.268,0.625c0.068,0.273,0.116,0.588,0.144,0.943
		C158.795,55.161,158.802,55.503,158.789,55.831z M156.968,59.918c-0.213,0.225-0.449,0.42-0.709,0.584
		c-0.261,0.164-0.528,0.287-0.802,0.369c-0.274,0.082-0.521,0.102-0.74,0.061c-0.617-0.123-1.09-0.389-1.419-0.799
		c-0.329-0.41-0.539-0.891-0.627-1.444c-0.089-0.553-0.079-1.144,0.031-1.773c0.109-0.628,0.294-1.212,0.555-1.752
		c0.26-0.54,0.576-1.004,0.946-1.393c0.37-0.389,0.774-0.632,1.214-0.728c-0.165,0.697-0.219,1.418-0.165,2.162
		c0.055,0.745,0.233,1.445,0.535,2.1c0.191,0.397,0.421,0.758,0.689,1.086c0.267,0.328,0.593,0.608,0.977,0.84
		C157.342,59.464,157.18,59.693,156.968,59.918z M179.724,56.035c0.041-0.314,0.103-0.646,0.185-0.994
		c0.082-0.348,0.185-0.686,0.308-1.014c0.123-0.328,0.267-0.611,0.432-0.85c0.165-0.239,0.34-0.41,0.524-0.512
		c0.185-0.102,0.374-0.092,0.565,0.031c0.206,0.123,0.333,0.383,0.38,0.779c0.048,0.396,0,0.82-0.144,1.271
		c-0.144,0.451-0.401,0.874-0.771,1.27c-0.37,0.397-0.87,0.656-1.501,0.779C179.675,56.602,179.682,56.35,179.724,56.035z
		 M188.011,56.035c0.041-0.314,0.103-0.646,0.185-0.994c0.082-0.348,0.185-0.686,0.309-1.014c0.123-0.328,0.267-0.611,0.432-0.85
		c0.165-0.239,0.34-0.41,0.524-0.512c0.185-0.102,0.374-0.092,0.566,0.031c0.206,0.123,0.332,0.383,0.38,0.779
		c0.048,0.396,0,0.82-0.144,1.271c-0.144,0.451-0.401,0.874-0.771,1.27c-0.37,0.397-0.87,0.656-1.501,0.779
		C187.963,56.602,187.97,56.35,188.011,56.035z M195.713,57.234c-0.158-0.171-0.35-0.29-0.576-0.359
		c-0.226-0.068-0.442-0.075-0.648-0.02c-0.206,0.055-0.336,0.198-0.391,0.43c-0.11,0.437-0.285,0.885-0.524,1.342
		c-0.24,0.458-0.535,0.892-0.884,1.301c-0.35,0.41-0.744,0.772-1.182,1.086c-0.439,0.314-0.898,0.54-1.378,0.676
		c-0.48,0.151-0.878,0.168-1.193,0.051c-0.315-0.116-0.565-0.314-0.75-0.594c-0.185-0.28-0.319-0.618-0.401-1.015
		c-0.082-0.396-0.13-0.806-0.144-1.229c0.782,0.055,1.478-0.085,2.088-0.42c0.61-0.335,1.128-0.779,1.553-1.332
		c0.425-0.553,0.747-1.174,0.967-1.864c0.219-0.69,0.342-1.376,0.37-2.059c0.013-0.642-0.083-1.185-0.288-1.629
		c-0.205-0.444-0.483-0.789-0.833-1.035c-0.35-0.246-0.75-0.389-1.203-0.43c-0.452-0.041-0.912,0.021-1.378,0.184
		c-0.562,0.192-1.038,0.502-1.429,0.932c-0.391,0.431-0.717,0.929-0.977,1.496c-0.261,0.567-0.466,1.178-0.617,1.834
		c-0.151,0.656-0.26,1.301-0.328,1.936c-0.067,0.616-0.103,1.206-0.111,1.771c-0.052,0.113-0.107,0.226-0.167,0.34
		c-0.24,0.458-0.535,0.892-0.884,1.301c-0.349,0.41-0.744,0.772-1.182,1.086c-0.439,0.314-0.898,0.54-1.378,0.676
		c-0.48,0.151-0.878,0.168-1.193,0.051c-0.315-0.116-0.565-0.314-0.75-0.594c-0.185-0.28-0.319-0.618-0.401-1.015
		c-0.082-0.396-0.131-0.806-0.144-1.229c0.781,0.055,1.477-0.085,2.087-0.42c0.61-0.335,1.128-0.779,1.553-1.332
		c0.425-0.553,0.747-1.174,0.967-1.864c0.219-0.69,0.343-1.376,0.37-2.059c0.013-0.642-0.082-1.185-0.288-1.629
		c-0.206-0.444-0.484-0.789-0.833-1.035c-0.35-0.246-0.75-0.389-1.203-0.43c-0.452-0.041-0.912,0.021-1.378,0.184
		c-0.562,0.192-1.038,0.502-1.429,0.932c-0.391,0.431-0.717,0.929-0.977,1.496c-0.26,0.567-0.466,1.178-0.617,1.834
		c-0.151,0.656-0.26,1.301-0.329,1.936c-0.039,0.358-0.065,0.706-0.084,1.047c-0.132,0.112-0.261,0.225-0.399,0.336
		c-0.472,0.383-0.97,0.727-1.491,1.035c-0.522,0.308-1.063,0.56-1.625,0.758c-0.563,0.198-1.138,0.318-1.727,0.359l1.275-13.606
		c0.082-0.287,0.041-0.539-0.123-0.758c-0.165-0.219-0.378-0.369-0.638-0.451c-0.26-0.082-0.538-0.075-0.833,0.02
		c-0.295,0.096-0.538,0.315-0.73,0.656c-0.096,0.519-0.196,1.23-0.298,2.131c-0.103,0.902-0.206,1.885-0.309,2.951
		c-0.103,1.066-0.206,2.165-0.308,3.299c-0.103,1.134-0.192,2.193-0.267,3.176c-0.004,0.044-0.006,0.083-0.01,0.126
		c-0.12,0.101-0.236,0.204-0.361,0.304c-0.473,0.383-0.97,0.727-1.491,1.035c-0.521,0.308-1.063,0.56-1.624,0.758
		c-0.563,0.198-1.139,0.318-1.728,0.359l1.275-13.606c0.082-0.287,0.041-0.539-0.123-0.758c-0.165-0.219-0.377-0.369-0.638-0.451
		c-0.26-0.082-0.538-0.075-0.833,0.02c-0.295,0.096-0.538,0.315-0.73,0.656c-0.096,0.519-0.196,1.23-0.298,2.131
		c-0.103,0.902-0.206,1.885-0.309,2.951c-0.103,1.066-0.206,2.165-0.309,3.299c-0.103,1.134-0.192,2.193-0.267,3.176
		c-0.001,0.02-0.003,0.038-0.004,0.057c-0.216,0.1-0.45,0.187-0.705,0.26c-0.261,0.075-0.555,0.12-0.884,0.133
		c0.055-0.246,0.099-0.519,0.133-0.82c0.034-0.3,0.062-0.615,0.082-0.943c0.021-0.328,0.027-0.656,0.021-0.983
		c-0.007-0.328-0.024-0.628-0.052-0.902c-0.069-0.587-0.195-1.144-0.38-1.67c-0.185-0.526-0.436-0.966-0.751-1.322
		c-0.316-0.355-0.71-0.594-1.183-0.717c-0.473-0.123-1.025-0.082-1.655,0.123c-0.933-0.123-1.773-0.037-2.52,0.256
		c-0.747,0.294-1.395,0.721-1.943,1.281c-0.548,0.56-0.997,1.219-1.347,1.978c-0.35,0.758-0.583,1.537-0.699,2.336
		c-0.05,0.339-0.074,0.676-0.081,1.012c-0.212,0.433-0.444,0.812-0.701,1.129c-0.363,0.451-0.74,0.82-1.131,1.106
		c-0.391,0.287-0.778,0.506-1.162,0.656c-0.384,0.151-0.727,0.253-1.028,0.307c-0.357,0.068-0.699,0.075-1.028,0.021
		c-0.329-0.054-0.631-0.212-0.905-0.471c-0.219-0.191-0.387-0.499-0.504-0.922c-0.117-0.423-0.185-0.905-0.206-1.445
		c-0.021-0.54,0-1.103,0.062-1.691c0.062-0.587,0.167-1.144,0.319-1.67c0.15-0.526,0.342-0.997,0.576-1.414
		c0.233-0.416,0.507-0.714,0.823-0.891c0.178,0.028,0.288,0.133,0.329,0.317c0.041,0.185,0.051,0.403,0.031,0.656
		c-0.021,0.253-0.052,0.512-0.092,0.779c-0.041,0.266-0.062,0.489-0.062,0.666c0.069,0.369,0.202,0.656,0.401,0.861
		c0.199,0.205,0.422,0.325,0.668,0.358c0.247,0.034,0.49-0.024,0.73-0.174c0.24-0.15,0.435-0.389,0.586-0.717
		c0.014,0.014,0.034,0.021,0.062,0.021l0.288-2.602c0.082-0.355,0.027-0.669-0.165-0.943s-0.445-0.431-0.761-0.471
		c-0.397-0.574-0.936-0.878-1.614-0.912c-0.679-0.034-1.375,0.188-2.087,0.666c-0.439,0.315-0.826,0.748-1.162,1.301
		c-0.336,0.553-0.61,1.168-0.823,1.844c-0.213,0.676-0.363,1.39-0.452,2.142c-0.089,0.751-0.107,1.482-0.052,2.192
		c0.055,0.711,0.182,1.38,0.381,2.008c0.198,0.629,0.476,1.154,0.833,1.578c0.301,0.369,0.644,0.639,1.028,0.81
		c0.384,0.171,0.785,0.276,1.203,0.317c0.418,0.041,0.833,0.024,1.244-0.051c0.411-0.075,0.802-0.181,1.172-0.318
		c0.48-0.177,0.973-0.403,1.481-0.676c0.507-0.273,0.994-0.601,1.46-0.984c0.245-0.201,0.481-0.421,0.709-0.656
		c0.104,0.257,0.22,0.505,0.36,0.738c0.37,0.615,0.87,1.113,1.501,1.496c0.63,0.382,1.405,0.566,2.324,0.553
		c0.987-0.014,1.899-0.263,2.735-0.748c0.836-0.485,1.522-1.199,2.057-2.141c0.801,0,1.589-0.132,2.363-0.393
		c-0.006,0.083-0.013,0.17-0.019,0.25c-0.055,0.724-0.083,1.216-0.083,1.475c-0.013,0.451-0.044,1.007-0.092,1.67
		c-0.048,0.663-0.079,1.359-0.092,2.09c-0.014,0.731,0.013,1.468,0.082,2.213c0.069,0.744,0.213,1.421,0.432,2.029
		c0.219,0.608,0.531,1.123,0.936,1.547c0.404,0.423,0.936,0.676,1.594,0.758c0.699,0.095,1.302-0.028,1.809-0.369
		c0.507-0.342,0.919-0.809,1.234-1.403c0.315-0.595,0.538-1.281,0.668-2.059c0.13-0.779,0.168-1.561,0.113-2.346
		c-0.055-0.786-0.199-1.526-0.432-2.223c-0.233-0.697-0.555-1.271-0.967-1.722c0.247-0.068,0.541-0.198,0.885-0.389
		c0.342-0.191,0.696-0.406,1.059-0.645c0.089-0.059,0.177-0.121,0.266-0.181c-0.034,0.484-0.051,0.829-0.051,1.031
		c-0.013,0.451-0.044,1.007-0.092,1.67c-0.048,0.663-0.079,1.359-0.092,2.09c-0.013,0.731,0.014,1.468,0.082,2.213
		c0.069,0.744,0.213,1.421,0.432,2.029c0.219,0.608,0.531,1.123,0.936,1.547c0.404,0.423,0.936,0.676,1.594,0.758
		c0.699,0.095,1.302-0.028,1.81-0.369c0.507-0.342,0.918-0.809,1.234-1.403c0.315-0.595,0.538-1.281,0.668-2.059
		c0.13-0.779,0.167-1.561,0.113-2.346c-0.055-0.786-0.199-1.526-0.432-2.223c-0.233-0.697-0.555-1.271-0.967-1.722
		c0.247-0.068,0.542-0.198,0.885-0.389c0.343-0.191,0.696-0.406,1.059-0.645c0.189-0.124,0.377-0.252,0.564-0.384
		c0.071,0.668,0.223,1.254,0.465,1.747c0.295,0.601,0.696,1.066,1.203,1.394c0.507,0.328,1.104,0.509,1.79,0.543
		c0.685,0.034,1.432-0.092,2.242-0.379c0.603-0.218,1.127-0.492,1.573-0.819c0.445-0.328,0.846-0.728,1.203-1.199
		c0.021-0.027,0.04-0.057,0.06-0.085c0.063,0.191,0.134,0.375,0.218,0.545c0.295,0.601,0.696,1.066,1.203,1.394
		c0.507,0.328,1.104,0.509,1.789,0.543c0.685,0.034,1.433-0.092,2.242-0.379c0.603-0.218,1.128-0.492,1.573-0.819
		c0.445-0.328,0.846-0.728,1.203-1.199c0.356-0.472,0.681-1.015,0.977-1.629c0.295-0.615,0.593-1.318,0.895-2.111
		C195.922,57.6,195.87,57.405,195.713,57.234z"/>
</g>
</svg>
