<?xml version="1.0" encoding="utf-8"?>
<!-- Generator: Adobe Illustrator 17.0.0, SVG Export Plug-In . SVG Version: 6.00 Build 0)  -->
<!DOCTYPE svg PUBLIC "-//W3C//DTD SVG 1.1//EN" "http://www.w3.org/Graphics/SVG/1.1/DTD/svg11.dtd">
<svg version="1.1" id="Layer_1" xmlns="http://www.w3.org/2000/svg" xmlns:xlink="http://www.w3.org/1999/xlink" x="0px" y="0px"
	 width="200px" height="110px" viewBox="0 0 200 110" enable-background="new 0 0 200 110" xml:space="preserve">
<g>
	<path fill="#404041" d="M16.402,42.885c6.484,0,11.329,3.602,12.902,9.496h-7.269c-1.114-2.358-3.208-3.471-5.697-3.471
		c-4.06,0-6.877,3.012-6.877,7.859s2.816,7.859,6.877,7.859c2.489,0,4.584-1.179,5.697-3.471h7.269
		c-1.571,5.895-6.418,9.496-12.902,9.496c-8.055-0.066-13.687-5.763-13.687-13.95S8.347,42.885,16.402,42.885z"/>
	<path fill="#404041" d="M42.533,70.717c-6.352,0-11.133-4.256-11.133-11.133s4.911-11.133,11.265-11.133
		s11.265,4.256,11.265,11.133S48.885,70.717,42.533,70.717z M42.533,64.954c2.358,0,4.584-1.769,4.584-5.37
		c0-3.667-2.162-5.37-4.519-5.37c-2.423,0-4.519,1.703-4.519,5.37C38.145,63.187,40.109,64.954,42.533,64.954z"/>
	<path fill="#404041" d="M67.091,70.717c-6.352,0-11.133-4.256-11.133-11.133s4.911-11.133,11.265-11.133
		s11.265,4.256,11.265,11.133S73.443,70.717,67.091,70.717z M67.091,64.954c2.358,0,4.584-1.769,4.584-5.37
		c0-3.667-2.162-5.37-4.519-5.37c-2.423,0-4.519,1.703-4.519,5.37C62.637,63.187,64.668,64.954,67.091,64.954z"/>
	<path fill="#404041" d="M80.843,42.885h6.614v14.669l6.549-8.776h8.187l-8.972,10.806l9.103,10.806h-8.187l-6.614-9.103v9.103
		H80.91V42.885H80.843z"/>
	<path fill="#404041" d="M103.765,42.95c0-2.03,1.571-3.602,3.929-3.602c2.358,0,3.929,1.571,3.929,3.602
		c0,1.964-1.571,3.536-3.929,3.536C105.336,46.486,103.765,44.915,103.765,42.95z M104.42,48.713h6.614v21.612h-6.614V48.713z"/>
	<path fill="#404041" d="M124.394,70.717c-6.352,0-10.937-4.256-10.937-11.133s4.519-11.133,10.937-11.133
		c6.287,0,10.806,4.192,10.806,10.806c0,0.589-0.066,1.31-0.131,1.964h-14.996c0.262,2.816,1.964,4.126,4.126,4.126
		c1.834,0,2.881-0.917,3.471-2.096h7.073C133.627,67.443,129.83,70.717,124.394,70.717z M120.137,57.489h8.317
		c0-2.358-1.834-3.733-4.06-3.733C122.167,53.756,120.53,55.066,120.137,57.489z"/>
	<path fill="#404041" d="M165.783,70.717c-6.352,0-10.937-4.256-10.937-11.133s4.519-11.133,10.937-11.133
		c6.287,0,10.806,4.192,10.806,10.806c0,0.589-0.066,1.31-0.131,1.964h-14.996c0.262,2.816,1.964,4.126,4.126,4.126
		c1.834,0,2.881-0.917,3.471-2.096h7.073C175.017,67.443,171.153,70.717,165.783,70.717z M161.461,57.489h8.317
		c0-2.358-1.834-3.733-4.06-3.733C163.556,53.756,161.853,55.066,161.461,57.489z"/>
	<path fill="#404041" d="M188.573,70.717c-5.763,0-9.626-3.208-9.954-7.4h6.549c0.131,1.507,1.507,2.489,3.34,2.489
		c1.703,0,2.619-0.786,2.619-1.769c0-3.471-11.788-0.982-11.788-8.907c0-3.667,3.144-6.68,8.776-6.68
		c5.566,0,8.71,3.078,9.103,7.335h-6.156c-0.196-1.441-1.31-2.423-3.208-2.423c-1.571,0-2.423,0.589-2.423,1.637
		c0,3.471,11.722,0.982,11.854,9.103C197.349,67.836,194.009,70.717,188.573,70.717z"/>
	<g>
		<g>
			<path fill="#0056A7" d="M142.076,49.107h-6.877l6.287,11.657h6.877L142.076,49.107z"/>
		</g>
		<g>
			<g>
				<path fill="#2E3191" d="M141.355,60.436l0.196,0.327h6.877l-4.519-8.187L141.355,60.436z"/>
			</g>
		</g>
		<g>
			<path fill="#0056A7" d="M153.929,39.283l-12.377,21.48h6.877l12.377-21.48C160.806,39.283,153.929,39.283,153.929,39.283z"/>
		</g>
		<g>
			<path fill="#0056A7" d="M141.552,63.972h6.68v6.745h-6.68V63.972z"/>
		</g>
	</g>
</g>
</svg>
