<?xml version="1.0" encoding="utf-8"?>
<!-- Generator: Adobe Illustrator 17.0.0, SVG Export Plug-In . SVG Version: 6.00 Build 0)  -->
<!DOCTYPE svg PUBLIC "-//W3C//DTD SVG 1.1//EN" "http://www.w3.org/Graphics/SVG/1.1/DTD/svg11.dtd">
<svg version="1.1" id="Layer_1" xmlns="http://www.w3.org/2000/svg" xmlns:xlink="http://www.w3.org/1999/xlink" x="0px" y="0px"
	 width="200px" height="110px" viewBox="0 0 200 110" enable-background="new 0 0 200 110" xml:space="preserve">
<g>
	<path fill="#98C93E" d="M130.081,53.599c-0.062-0.368-0.033-0.741-0.043-1.111c-0.026-1.017-0.136-2.021-0.324-3.019
		c-0.31-1.646-0.744-3.259-1.322-4.832c-0.601-1.637-1.328-3.215-2.205-4.723c-0.825-1.418-1.748-2.768-2.793-4.035
		c-0.989-1.201-2.048-2.333-3.21-3.367c-1.206-1.072-2.48-2.058-3.84-2.931c-1.274-0.817-2.594-1.548-3.976-2.164
		c-1.803-0.804-3.666-1.435-5.593-1.872c-1.413-0.32-2.834-0.561-4.289-0.584c-0.361-0.005-0.726,0.02-1.086-0.043
		c-0.934,0-1.868,0-2.802,0c-0.36,0.063-0.724,0.035-1.085,0.043c-1.014,0.02-2.017,0.133-3.013,0.317
		c-2.813,0.52-5.502,1.418-8.056,2.704c-1.953,0.983-3.78,2.166-5.476,3.551c-1.377,1.124-2.654,2.348-3.817,3.691
		c-0.989,1.144-1.895,2.35-2.701,3.63c-0.761,1.207-1.446,2.456-2.027,3.76c-0.799,1.795-1.432,3.646-1.868,5.565
		c-0.325,1.427-0.576,2.862-0.595,4.334c-0.004,0.36,0.02,0.725-0.043,1.085c0,0.934,0,1.868,0,2.802
		c0.066,0.351,0.035,0.708,0.042,1.059c0.021,1.118,0.168,2.216,0.376,3.313c0.508,2.687,1.389,5.246,2.6,7.69
		c0.717,1.446,1.552,2.824,2.497,4.135c1.4,1.942,3.003,3.698,4.81,5.266c1.129,0.979,2.327,1.87,3.591,2.669
		c1.214,0.767,2.47,1.457,3.781,2.041c1.794,0.799,3.646,1.432,5.565,1.868c1.427,0.325,2.862,0.576,4.334,0.595
		c0.36,0.004,0.725-0.02,1.085,0.043c0.934,0,1.868,0,2.802,0c0.36-0.063,0.724-0.035,1.085-0.043
		c1.014-0.02,2.017-0.133,3.013-0.317c2.839-0.524,5.549-1.438,8.124-2.738c1.387-0.701,2.713-1.506,3.975-2.417
		c1.781-1.285,3.411-2.739,4.879-4.372c1.114-1.238,2.12-2.56,3.014-3.966c0.784-1.233,1.488-2.511,2.082-3.846
		c0.8-1.794,1.432-3.646,1.868-5.565c0.325-1.427,0.576-2.862,0.593-4.333c0.004-0.36-0.02-0.726,0.043-1.085
		C130.081,55.468,130.081,54.533,130.081,53.599z M99.762,84.087c-15.904-0.11-28.783-13.116-28.732-29.052
		c0.05-16.016,13.242-29.153,29.523-28.843c15.744,0.3,28.424,13.257,28.366,28.971C128.96,70.959,116.023,84.2,99.762,84.087z"/>
	<path fill="#FEFEFE" d="M100.553,26.192c-16.28-0.311-29.473,12.827-29.523,28.843C70.98,70.97,83.858,83.976,99.763,84.086
		c16.26,0.112,29.198-13.129,29.156-28.923C128.976,39.45,116.297,26.493,100.553,26.192z M99.622,81.185
		C85.384,81,73.734,69.242,73.933,54.762c0.193-14.085,11.721-25.671,26.06-25.673c14.401,0.002,26.074,11.711,26.03,26.184
		C125.98,69.677,114.116,81.374,99.622,81.185z"/>
	<path fill="#98C93E" d="M99.993,29.089c-14.338,0.002-25.866,11.588-26.06,25.673c-0.198,14.481,11.451,26.237,25.689,26.424
		c14.493,0.189,26.357-11.507,26.4-25.913C126.065,40.799,114.395,29.091,99.993,29.089z M83.14,41.756
		c0.024-0.59,0.407-1.091,0.975-1.264c0.337-0.103,0.665-0.072,0.995,0.056c3.161,1.219,6.324,2.434,9.487,3.651
		c1.716,0.66,3.433,1.319,5.147,1.984c0.151,0.059,0.279,0.06,0.433,0.001c4.879-1.875,9.761-3.745,14.643-5.616
		c0.911-0.349,1.77,0.049,1.989,0.93c0.029,0.114,0.033,0.234,0.039,0.276c-0.013,0.662-0.342,1.137-0.918,1.358
		c-2.056,0.792-4.113,1.578-6.17,2.366c-3.062,1.173-6.124,2.343-9.184,3.521c-0.41,0.157-0.799,0.165-1.209,0.007
		c-4.041-1.559-8.082-3.112-12.124-4.666c-1.059-0.407-2.121-0.811-3.178-1.224C83.449,42.896,83.115,42.384,83.14,41.756z
		 M98.916,60.828c1.162,1.217,3.062,1.42,4.596,0.535c0.392-0.226,0.751-0.497,1.078-0.806c0.133-0.125,0.205-0.116,0.325,0.008
		c0.484,0.5,0.973,0.996,1.469,1.484c0.127,0.125,0.121,0.194,0,0.322c-1.352,1.437-3.012,2.126-4.855,2.089
		c-3.35,0-5.897-2.03-6.516-5.146c-0.621-3.128,0.863-6.301,3.892-7.409c2.654-0.971,5.174-0.663,7.365,1.289
		c0.145,0.129,0.161,0.201,0.022,0.355c-0.506,0.561-0.995,1.135-1.484,1.712c-0.107,0.126-0.171,0.133-0.299,0.019
		c-0.677-0.598-1.425-1.066-2.333-1.227c-2.041-0.36-3.868,0.864-4.278,2.902C97.606,58.402,97.872,59.734,98.916,60.828z
		 M83.114,57.921c0-2.012,0.003-4.022-0.004-6.034c-0.001-0.208,0.05-0.272,0.266-0.27c1.68,0.014,3.361-0.017,5.04,0.03
		c1.682,0.046,3.192,0.596,4.436,1.766c1.202,1.131,1.806,2.542,1.881,4.18c0.08,1.758-0.426,3.319-1.638,4.616
		c-1.009,1.081-2.276,1.686-3.722,1.935c-0.452,0.078-0.908,0.106-1.368,0.105c-1.536-0.005-3.072-0.007-4.608,0.004
		c-0.243,0.002-0.287-0.076-0.286-0.298C83.117,61.943,83.114,59.932,83.114,57.921z M115.86,69.447
		c-1.264,0.49-2.53,0.974-3.795,1.459c-3.812,1.462-7.627,2.919-11.437,4.388c-0.47,0.181-0.907,0.186-1.38,0.004
		c-5.035-1.945-10.071-3.889-15.113-5.812c-1.138-0.434-1.268-1.746-0.547-2.379c0.442-0.389,0.949-0.468,1.495-0.258
		c2.135,0.819,4.269,1.643,6.403,2.465c2.752,1.059,5.504,2.118,8.254,3.183c0.16,0.062,0.29,0.034,0.437-0.022
		c4.88-1.872,9.761-3.744,14.643-5.613c0.995-0.381,1.973,0.261,1.969,1.285C116.783,68.734,116.441,69.222,115.86,69.447z
		 M116.031,63.039c-0.602,0.65-1.387,0.952-2.24,1.103c-0.402,0.071-0.807,0.097-1.216,0.097c-1.867-0.003-3.734-0.005-5.6,0.004
		c-0.223,0.001-0.283-0.054-0.282-0.281c0.01-2.011,0.005-4.022,0.005-6.033s0.004-4.022-0.005-6.033
		c-0.001-0.227,0.059-0.281,0.282-0.28c1.884,0.01,3.767-0.001,5.652,0.009c0.863,0.004,1.706,0.132,2.492,0.524
		c2.408,1.202,2.099,4.415,0.332,5.614c-0.241,0.164-0.238,0.168,0.002,0.342C117.051,59.255,117.335,61.631,116.031,63.039z"/>
	<path fill="#FEFEFE" d="M84.062,43.136c1.057,0.413,2.119,0.816,3.178,1.224c4.042,1.554,8.085,3.108,12.124,4.666
		c0.41,0.159,0.8,0.151,1.209-0.007c3.059-1.178,6.122-2.348,9.184-3.521c2.057-0.788,4.115-1.575,6.17-2.366
		c0.575-0.222,0.905-0.696,0.918-1.358c-0.005-0.043-0.01-0.163-0.039-0.276c-0.22-0.881-1.079-1.279-1.989-0.93
		c-4.88,1.871-9.762,3.741-14.643,5.616c-0.154,0.059-0.282,0.058-0.433-0.001c-1.715-0.664-3.431-1.324-5.147-1.984
		c-3.162-1.217-6.326-2.432-9.487-3.651c-0.329-0.126-0.658-0.159-0.995-0.056c-0.568,0.174-0.951,0.674-0.975,1.264
		C83.115,42.384,83.449,42.896,84.062,43.136z"/>
	<path fill="#FEFEFE" d="M114.817,66.86c-4.882,1.869-9.762,3.741-14.643,5.613c-0.147,0.057-0.276,0.085-0.437,0.022
		c-2.75-1.065-5.502-2.122-8.254-3.183c-2.134-0.822-4.268-1.645-6.403-2.465c-0.546-0.21-1.053-0.131-1.495,0.258
		c-0.721,0.633-0.589,1.945,0.547,2.379c5.043,1.923,10.078,3.867,15.113,5.812c0.472,0.182,0.909,0.177,1.38-0.004
		c3.81-1.469,7.625-2.927,11.437-4.388c1.266-0.485,2.531-0.971,3.795-1.459c0.581-0.225,0.923-0.713,0.927-1.303
		C116.791,67.12,115.812,66.479,114.817,66.86z"/>
	<path fill="#FEFEFE" d="M115.453,58.104c-0.24-0.172-0.243-0.178-0.002-0.342c1.768-1.2,2.076-4.412-0.332-5.614
		c-0.785-0.392-1.628-0.52-2.492-0.524c-1.884-0.009-3.767,0.001-5.652-0.009c-0.223-0.001-0.283,0.054-0.282,0.28
		c0.01,2.011,0.005,4.022,0.005,6.033s0.004,4.022-0.005,6.033c-0.001,0.226,0.059,0.282,0.282,0.281
		c1.867-0.01,3.734-0.006,5.6-0.004c0.408,0.001,0.814-0.027,1.216-0.097c0.853-0.15,1.638-0.453,2.24-1.103
		C117.335,61.631,117.051,59.255,115.453,58.104z M114.046,60.508c-0.018,0.503-0.258,0.846-0.701,1.059
		c-0.367,0.178-0.765,0.214-1.163,0.223c-0.398,0.009-0.797,0.002-1.195,0.002c-0.457,0-0.916-0.005-1.373,0.003
		c-0.157,0.003-0.227-0.032-0.225-0.209c0.009-0.78,0.004-1.56,0.002-2.341c0-0.118,0.018-0.193,0.164-0.19
		c1.017,0.024,2.034-0.047,3.05,0.045c0.271,0.025,0.535,0.095,0.778,0.22C113.865,59.569,114.066,59.972,114.046,60.508z
		 M113.197,56.622c-0.331,0.12-0.674,0.172-1.022,0.176c-0.848,0.007-1.697-0.003-2.544,0.006c-0.191,0.002-0.245-0.052-0.243-0.243
		c0.011-0.747,0.011-1.493,0-2.239c-0.003-0.195,0.061-0.245,0.247-0.241c0.483,0.011,0.967,0.004,1.552,0.004
		c0.515,0.028,1.138-0.064,1.749,0.076c0.485,0.111,0.913,0.326,1.051,0.846C114.193,55.783,113.907,56.364,113.197,56.622z"/>
	<path fill="#FEFEFE" d="M83.394,64.253c1.536-0.013,3.072-0.01,4.608-0.004c0.46,0.001,0.916-0.027,1.368-0.105
		c1.446-0.249,2.713-0.854,3.722-1.935c1.212-1.297,1.718-2.858,1.638-4.616c-0.075-1.638-0.679-3.049-1.881-4.18
		c-1.244-1.171-2.754-1.72-4.436-1.766c-1.679-0.046-3.36-0.016-5.04-0.03c-0.214-0.002-0.267,0.062-0.266,0.27
		c0.007,2.012,0.004,4.022,0.004,6.034c0,2.012,0.003,4.022-0.004,6.034C83.107,64.177,83.151,64.255,83.394,64.253z M86.173,54.148
		c0.856,0.034,1.716-0.066,2.568,0.058c1.79,0.262,3.033,1.689,3.085,3.505c0.032,1.12-0.222,2.139-1.033,2.961
		c-0.754,0.765-1.704,1.048-2.748,1.068c-0.628,0.012-1.257-0.005-1.884,0.006c-0.199,0.004-0.26-0.051-0.258-0.255
		c0.009-1.188,0.004-2.377,0.004-3.565c0-1.171,0.005-2.343-0.005-3.514C85.9,54.197,85.963,54.139,86.173,54.148z"/>
	<path fill="#FEFEFE" d="M102.177,54.051c0.908,0.161,1.656,0.629,2.333,1.227c0.127,0.114,0.192,0.106,0.299-0.019
		c0.487-0.576,0.978-1.15,1.484-1.712c0.138-0.153,0.122-0.226-0.022-0.355c-2.19-1.951-4.71-2.259-7.365-1.289
		c-3.027,1.108-4.513,4.281-3.892,7.409c0.619,3.116,3.167,5.146,6.516,5.146c1.843,0.037,3.503-0.652,4.855-2.089
		c0.121-0.129,0.127-0.197,0-0.322c-0.497-0.487-0.986-0.983-1.469-1.484c-0.12-0.124-0.192-0.133-0.325-0.007
		c-0.328,0.309-0.687,0.581-1.078,0.806c-1.535,0.885-3.433,0.682-4.596-0.535c-1.044-1.093-1.31-2.426-1.019-3.874
		C98.309,54.917,100.137,53.692,102.177,54.051z"/>
	<path fill="#98C93E" d="M113.382,59.322c-0.244-0.125-0.507-0.195-0.778-0.22c-1.016-0.092-2.033-0.021-3.05-0.045
		c-0.146-0.003-0.164,0.072-0.164,0.19c0.002,0.78,0.005,1.561-0.002,2.341c-0.002,0.176,0.067,0.211,0.225,0.209
		c0.457-0.008,0.916-0.003,1.373-0.003c0.398,0,0.797,0.006,1.195-0.002c0.4-0.009,0.796-0.045,1.163-0.223
		c0.442-0.214,0.682-0.557,0.701-1.059C114.066,59.972,113.865,59.569,113.382,59.322z"/>
	<path fill="#98C93E" d="M112.936,54.161c-0.612-0.14-1.234-0.048-1.749-0.076c-0.585,0-1.069,0.008-1.552-0.004
		c-0.185-0.004-0.25,0.046-0.247,0.241c0.011,0.747,0.011,1.493,0,2.239c-0.002,0.191,0.052,0.245,0.243,0.243
		c0.848-0.01,1.697,0,2.544-0.006c0.348-0.003,0.691-0.056,1.022-0.176c0.71-0.258,0.996-0.84,0.789-1.614
		C113.847,54.486,113.42,54.272,112.936,54.161z"/>
	<path fill="#98C93E" d="M85.906,57.927c0,1.188,0.004,2.377-0.004,3.565c-0.001,0.202,0.06,0.258,0.258,0.255
		c0.628-0.012,1.257,0.005,1.884-0.006c1.044-0.02,1.994-0.303,2.748-1.068c0.811-0.822,1.065-1.84,1.033-2.961
		c-0.052-1.816-1.295-3.244-3.085-3.505c-0.852-0.124-1.712-0.024-2.568-0.058c-0.209-0.009-0.273,0.049-0.271,0.265
		C85.913,55.584,85.906,56.755,85.906,57.927z"/>
</g>
</svg>
