<?xml version="1.0" encoding="utf-8"?>
<!-- Generator: Adobe Illustrator 17.0.0, SVG Export Plug-In . SVG Version: 6.00 Build 0)  -->
<!DOCTYPE svg PUBLIC "-//W3C//DTD SVG 1.1//EN" "http://www.w3.org/Graphics/SVG/1.1/DTD/svg11.dtd">
<svg version="1.1" id="Layer_1" xmlns="http://www.w3.org/2000/svg" xmlns:xlink="http://www.w3.org/1999/xlink" x="0px" y="0px"
	 width="200px" height="110px" viewBox="0 0 200 110" enable-background="new 0 0 200 110" xml:space="preserve">
<g>
	<path fill="#FE5630" d="M12.48,49.244c-0.226,3.237-0.25,3.237,2.905,3.237c0.319,0,0.641-0.029,0.959,0.005
		c1.329,0.135,3.208-0.65,3.864,0.391c0.847,1.334,0.231,3.266,0.26,4.938c0.01,0.799-0.621,0.794-1.2,0.794
		c-1.763,0-3.531,0.058-5.295-0.019c-1.171-0.048-1.528,0.4-1.499,1.542c0.072,2.481,0.038,4.971,0.019,7.458
		c-0.019,1.643-0.043,1.71-1.749,1.667c-1.658-0.043-3.767,0.732-4.841-0.367c-0.12-0.12-0.212-0.26-0.284-0.415v-3.791
		c0.01-0.149,0.01-0.293,0.01-0.434c-0.005-0.376-0.01-0.746-0.01-1.123c-0.024-2.433,0-4.87,0-7.303c0-3.261,0.024-6.523,0-9.784
		c-0.005-0.746-0.01-1.499-0.024-2.245c-0.005-0.207,0.005-0.391,0.024-0.554c0.091-0.804,0.487-1.127,1.571-1.108
		c4.085,0.077,8.181,0.067,12.271,0.01c1.214-0.014,1.648,0.314,1.672,1.605c0.082,4.331,0.135,4.331-4.186,4.331
		c-1.123,0-2.245,0.024-3.368-0.005C12.73,48.049,12.533,48.454,12.48,49.244z"/>
	<path fill="#FE476E" d="M160.373,53.713c0.001,0.24,0.005,0.481,0,0.72c-0.028,1.768-0.026,1.762-1.728,1.379
		c-1.436-0.323-2.839-0.373-4.105,0.565c-1.85,1.37-2.404,3.417-1.495,5.525c0.849,1.971,2.896,2.978,5.162,2.502
		c0.463-0.097,0.912-0.299,1.339-0.511c0.69-0.343,0.821,0.019,0.823,0.591c0.002,0.641,0.004,1.28,0.002,1.921
		c-0.004,2.64-0.181,2.861-2.65,3.301c-3.97,0.708-8.328-1.091-10.26-4.236c-2.335-3.802-2.188-7.874,0.422-11.429
		c2.48-3.376,7.438-4.643,11.411-3.363c0.764,0.246,1.197,0.716,1.085,1.594C160.323,52.745,160.372,53.232,160.373,53.713z"/>
	<path fill="#FE4478" d="M194.06,69.177c-0.869-0.941-1.718-1.906-2.65-2.781c-0.849-0.796-0.899-1.369-0.171-2.405
		c2.733-3.888,3.32-8.155,1.962-12.746c-1.63-5.505-7.199-10.088-14.3-9.913c-8.202-0.343-16.162,6.049-14.868,16.361
		c0.667,5.322,3.617,8.973,8.432,11.065c3.81,1.655,7.796,1.513,11.732,0.374c0.968-0.28,1.869-0.719,2.573,0.299
		c1.118,1.615,2.691,1.535,4.296,1.212c0.863-0.173,1.715-0.359,2.596-0.416C194.533,70.173,194.602,69.764,194.06,69.177z
		 M185.892,58.535c-0.549,1.198-0.757,1.321-1.569,0.32c-0.746-0.922-1.523-0.831-2.507-0.762c-1.359,0.095-2.688,0.327-4.025,0.535
		c-0.728,0.113-0.758,0.48-0.346,0.936c0.749,0.831,1.553,1.612,2.316,2.43c0.207,0.221,0.525,0.542,0.481,0.751
		c-0.108,0.514-0.629,0.249-0.974,0.31c-0.232,0.041-0.478,0.008-0.719,0.008c-3.123-0.012-5.381-1.514-6.638-4.277
		c-1.249-2.744-0.948-5.531,0.971-7.881c1.844-2.256,4.405-3.2,7.285-2.668C185.417,49.206,187.767,54.443,185.892,58.535z"/>
	<path fill="#FE4A65" d="M142.379,60.186c0-2.646-0.032-5.292,0.017-7.938c0.019-1.022-0.317-1.453-1.373-1.405
		c-1.361,0.061-2.726,0.008-4.088,0.019c-0.465,0.004-1.04-0.078-1.13,0.579c-0.145,1.054-0.529,0.624-1.028,0.245
		c-4.134-3.143-10.099-0.975-12.208,2.448c-1.802,2.926-2.153,5.961-1.268,9.194c1.427,5.21,7.977,8.125,12.523,5.607
		c0.757-0.419,1.619-1.789,2.24,0.175c0.042,0.135,0.584,0.151,0.895,0.155c1.363,0.016,2.728-0.046,4.088,0.023
		c1.075,0.054,1.369-0.394,1.349-1.406C142.342,65.319,142.379,62.753,142.379,60.186z M131.93,64.299
		c-2.289,0.089-4.438-2.115-4.368-4.481c0.064-2.166,2.039-4.034,4.26-4.031c2.29,0.004,4.286,2.007,4.283,4.298
		C136.102,62.111,134.013,64.219,131.93,64.299z"/>
	<path fill="#FE5537" d="M32.098,61.094c3.607-0.023,7.215-0.025,10.824,0.001c0.855,0.006,1.322-0.165,1.316-1.173
		c-0.013-2.67-0.697-5.089-2.601-7.009c-2.948-2.974-6.559-3.38-10.446-2.462c-4.142,0.978-6.446,3.695-7.064,7.812
		c-0.588,3.916,0.422,7.328,3.739,9.767c1.94,1.427,4.19,1.929,6.482,1.844c2.21,0.063,4.228-0.268,6.094-1.353
		c1.528-0.888,2.504-2.212,3.171-3.795c0.251-0.595,0.209-1.207-0.631-1.137c-2.22,0.184-4.48-0.607-6.592,1.222
		c-1.841,1.595-4.966,0.234-5.622-2.048C30.393,61.458,30.647,61.102,32.098,61.094z M31.47,55.651
		c1.529-1.995,5.179-1.708,6.29,0.504c0.292,0.583,0.31,1.113-0.566,1.129c-0.956,0.017-1.911,0.004-2.867,0.004
		c0,0.004,0,0.007,0,0.011c-0.716,0-1.435,0.032-2.149-0.012c-0.424-0.026-1.047,0.251-1.212-0.345
		C30.843,56.49,31.178,56.032,31.47,55.651z"/>
	<path fill="#FE5241" d="M55.465,61.091c3.528-0.019,7.054-0.023,10.582,0.004c0.857,0.006,1.32-0.172,1.315-1.177
		c-0.013-2.67-0.7-5.088-2.605-7.006c-2.948-2.968-6.553-3.384-10.444-2.46c-4.143,0.983-6.444,3.697-7.062,7.813
		c-0.588,3.915,0.421,7.33,3.738,9.767c1.939,1.426,4.189,1.93,6.525,1.839c2.166,0.07,4.182-0.266,6.049-1.347
		c1.531-0.887,2.498-2.215,3.171-3.793c0.196-0.46,0.233-1.171-0.387-1.105c-2.136,0.227-4.379-0.841-6.412,0.952
		c-1.9,1.676-4.921,0.815-5.851-1.371C53.372,61.528,53.634,61.101,55.465,61.091z M54.978,55.238
		c1.612-1.542,4.716-1.132,5.83,0.782c0.382,0.657,0.452,1.243-0.577,1.266c-0.954,0.022-1.911,0.005-2.865,0.005
		c0,0.002,0,0.005,0,0.007c-0.558,0-1.115,0.016-1.672-0.005c-0.546-0.02-1.394,0.225-1.561-0.216
		C53.872,56.393,54.447,55.745,54.978,55.238z"/>
	<path fill="#FE504A" d="M91.442,39.658c-0.952-0.903-2.751-0.278-4.177-0.299c-2.076-0.031-2.085,0.01-2.095,2.07
		c-0.011,2.326-0.002,4.653-0.002,6.979c0,0.963-0.007,1.926,0.001,2.887c0.006,0.766-0.139,1.084-0.9,0.464
		c-0.868-0.708-1.786-1.379-3.013-1.272c-1.843-0.721-3.631-0.266-5.315,0.445c-4.531,1.912-6.641,6.76-5.289,11.961
		c1.2,4.613,5.73,7.684,10.121,6.785c0.922,0.065,1.697-0.369,2.477-0.758c0.79-0.394,1.623-1.764,2.245,0.196
		c0.05,0.157,0.736,0.148,1.127,0.155c1.123,0.019,2.246,0.019,3.369,0.004c1.773-0.026,1.796-0.034,1.798-1.877
		c0.01-7.861,0.02-15.722-0.012-23.582C91.772,42.394,92.412,40.578,91.442,39.658z M85.484,60.26
		c-0.267,1.811-1.133,3.278-3.109,3.76c-0.381,0.093-0.746,0.255-1.119,0.385c-0.936-0.41-2.006-0.48-2.821-1.208
		c-2.185-1.957-1.807-5.458,0.776-6.879c0.631-0.347,1.32-0.549,2.042-0.612c0.459,0.108,0.942,0.159,1.374,0.333
		C84.439,56.769,85.736,58.552,85.484,60.26z"/>
	<path fill="#FE4C5D" d="M116.904,55.222c-2.066-4.297-6.831-6.105-11.191-4.319c-0.751,0.053-1.362,0.425-1.902,0.905
		c-0.887,0.788-0.815,0.101-0.815-0.505c-0.001-3.522-0.026-7.043,0.013-10.565c0.011-0.999-0.266-1.48-1.347-1.407
		c-1.036,0.07-2.081,0.004-3.12,0.017c-1.904,0.023-1.924,0.029-1.927,1.992c-0.008,7.684-0.03,15.367,0.018,23.051
		c0.01,1.566-0.755,3.643,0.358,4.577c1.161,0.974,3.221,0.214,4.885,0.304c0.597,0.032,1.141-0.018,1.107-0.843
		c-0.041-1.02,0.385-0.829,0.885-0.315c0.399,0.411,0.828,0.752,1.407,0.855c1.908,1.2,3.953,1.058,5.977,0.483
		C117.082,67.801,119.634,60.9,116.904,55.222z M108.637,63.899c-0.728,0.288-1.549,0.345-2.328,0.507
		c-1.123-0.599-2.277-1.131-2.929-2.347c-1.365-2.545-0.249-4.994,2.927-6.328c1.995-0.012,3.612,0.691,4.53,2.548
		C111.838,60.31,110.774,63.053,108.637,63.899z"/>
	<path fill="#FE5537" d="M5.62,43.241v2.799c-0.005-0.746-0.01-1.499-0.024-2.245C5.591,43.588,5.6,43.405,5.62,43.241z"/>
	<path fill="#FE5537" d="M5.62,55.824v7.303C5.596,60.695,5.62,58.257,5.62,55.824z"/>
</g>
</svg>
