<?xml version="1.0" encoding="utf-8"?>
<!-- Generator: Adobe Illustrator 17.0.0, SVG Export Plug-In . SVG Version: 6.00 Build 0)  -->
<!DOCTYPE svg PUBLIC "-//W3C//DTD SVG 1.1//EN" "http://www.w3.org/Graphics/SVG/1.1/DTD/svg11.dtd">
<svg version="1.1" id="Layer_1" xmlns="http://www.w3.org/2000/svg" xmlns:xlink="http://www.w3.org/1999/xlink" x="0px" y="0px"
	 width="200px" height="110px" viewBox="0 0 200 110" enable-background="new 0 0 200 110" xml:space="preserve">
<g>
	
		<linearGradient id="SVGID_1_" gradientUnits="userSpaceOnUse" x1="348.3205" y1="-173.66" x2="401.6757" y2="-173.66" gradientTransform="matrix(1 0 0 -1 -340.96 -118.66)">
		<stop  offset="0" style="stop-color:#712056"/>
		<stop  offset="0.3005" style="stop-color:#721E4F"/>
		<stop  offset="0.5468" style="stop-color:#741B3E"/>
		<stop  offset="0.8227" style="stop-color:#77182C"/>
		<stop  offset="1" style="stop-color:#77172A"/>
	</linearGradient>
	<path fill="url(#SVGID_1_)" d="M60.138,63.642V63.27c0,0-0.926,0.408-1.58,4.764c-0.604,4.02-6.577,7.669-6.577,7.669
		c-0.418-7.39-5.058-7.613-6.833-12.688c-1.559-4.458,1.344-8.687,2.075-9.65l0,0c3.416-17.569-7.211-21.909-15.949-23.141
		c-9.432-1.329-9.191-7.618-9.191-7.618s-5.187,6.409-3.862,13.869c1.419,7.991,10.892,12.038,10.892,12.038l0.261,0.016
		c-4.637,1.585-8.38,4.942-10.928,8.351c-5.704,7.631-11.086,3.418-11.086,3.418s4.855,6.6,12.131,8.715
		c7.793,2.265,15.507-2.604,15.507-2.604l3.534-2.556c0,0-1.995,0.75-6.91,1.394c-4.164,0.546-8.152-2.618-8.152-2.618
		c6.434-2.011,5.506-6.771,10.384-10.35c3.912-2.871,10.132-1.051,12.441-0.217c-0.006,0.264-0.017,0.463-0.024,0.575
		c-10.876,10.655-6.541,17.927-1.75,23.905c5.294,6.607,0.15,10.855,0.15,10.855s9.965-1.944,13.654-7.579
		C62.276,73.782,60.138,63.642,60.138,63.642z M30.81,48.105c-1.066-0.591-2.739-1.827-4.404-4.317
		c-2.333-3.491,0.058-8.173,0.058-8.173c2.65,5.09,9.83,2.532,15.199,5.321c3.99,2.073,4.59,7.583,4.636,10.278
		C40.542,47.548,35.3,46.98,30.81,48.105z"/>
	<g>
		<path d="M62.65,52.689c0,0.555-0.14,1.048-0.422,1.478c-0.282,0.431-0.688,0.766-1.218,1.004c-0.53,0.24-1.153,0.359-1.867,0.359
			c-0.596,0-1.096-0.042-1.499-0.125s-0.824-0.23-1.261-0.437v-2.155c0.46,0.237,0.941,0.421,1.439,0.554
			c0.498,0.133,0.956,0.199,1.371,0.199c0.359,0,0.622-0.062,0.789-0.186s0.251-0.285,0.251-0.48c0-0.123-0.034-0.23-0.101-0.321
			c-0.067-0.092-0.175-0.185-0.324-0.278c-0.149-0.093-0.546-0.285-1.19-0.575c-0.583-0.266-1.021-0.523-1.313-0.772
			c-0.292-0.249-0.508-0.535-0.649-0.858c-0.14-0.323-0.211-0.704-0.211-1.144c0-0.824,0.3-1.467,0.9-1.929
			c0.599-0.46,1.424-0.691,2.474-0.691c0.926,0,1.87,0.215,2.835,0.643l-0.741,1.867c-0.837-0.384-1.559-0.576-2.167-0.576
			c-0.314,0-0.542,0.055-0.685,0.165c-0.143,0.11-0.215,0.247-0.215,0.41c0,0.175,0.091,0.333,0.272,0.472
			c0.181,0.139,0.674,0.392,1.478,0.76c0.771,0.346,1.307,0.719,1.607,1.117C62.5,51.584,62.65,52.085,62.65,52.689z"/>
		<path d="M63.844,46.745c0-0.359,0.101-0.627,0.3-0.802c0.2-0.175,0.523-0.263,0.967-0.263s0.77,0.089,0.973,0.269
			c0.205,0.18,0.307,0.446,0.307,0.796c0,0.702-0.427,1.053-1.28,1.053C64.266,47.798,63.844,47.446,63.844,46.745z M66.298,55.407
			h-2.394v-6.936h2.394V55.407z"/>
		<path d="M76.486,55.407v-3.771c0-0.469-0.065-0.822-0.192-1.056c-0.129-0.235-0.331-0.351-0.609-0.351
			c-0.367,0-0.637,0.158-0.808,0.472c-0.171,0.314-0.257,0.806-0.257,1.476v3.232h-2.4v-3.771c0-0.469-0.061-0.822-0.184-1.056
			c-0.123-0.235-0.32-0.351-0.593-0.351c-0.376,0-0.649,0.168-0.82,0.501c-0.171,0.335-0.257,0.881-0.257,1.641v3.036H67.97v-6.936
			h1.806l0.3,0.858h0.14c0.184-0.319,0.449-0.561,0.799-0.729c0.349-0.168,0.746-0.251,1.19-0.251c0.999,0,1.702,0.304,2.106,0.912
			h0.19c0.196-0.285,0.468-0.509,0.818-0.67c0.349-0.161,0.734-0.242,1.153-0.242c0.82,0,1.426,0.21,1.818,0.631
			c0.392,0.421,0.588,1.059,0.588,1.916v4.512h-2.394V55.407z"/>
		<path d="M85.031,55.407l-0.459-0.918h-0.048c-0.323,0.401-0.65,0.673-0.985,0.82c-0.335,0.146-0.767,0.221-1.298,0.221
			c-0.653,0-1.167-0.196-1.543-0.588c-0.376-0.392-0.563-0.943-0.563-1.653c0-0.738,0.257-1.288,0.771-1.65
			c0.514-0.361,1.259-0.563,2.234-0.609l1.157-0.037v-0.098c0-0.571-0.282-0.858-0.845-0.858c-0.506,0-1.149,0.171-1.929,0.514
			l-0.691-1.579c0.808-0.416,1.828-0.624,3.061-0.624c0.89,0,1.578,0.221,2.067,0.662c0.487,0.441,0.731,1.057,0.731,1.848v4.549
			h-1.657V55.407z M83.255,53.84c0.289,0,0.537-0.092,0.743-0.276c0.206-0.184,0.309-0.422,0.309-0.716v-0.539l-0.551,0.025
			c-0.788,0.029-1.182,0.319-1.182,0.869C82.576,53.627,82.802,53.84,83.255,53.84z"/>
		<path d="M92.695,55.407v-3.783c0-0.46-0.067-0.809-0.199-1.044c-0.133-0.235-0.346-0.351-0.64-0.351
			c-0.405,0-0.695,0.161-0.875,0.484c-0.18,0.323-0.269,0.875-0.269,1.659v3.036h-2.394v-6.936h1.806l0.299,0.858h0.141
			c0.204-0.326,0.487-0.571,0.848-0.735c0.361-0.163,0.777-0.245,1.246-0.245c0.767,0,1.364,0.222,1.79,0.668
			c0.427,0.446,0.639,1.071,0.639,1.879v4.512h-2.392V55.407z"/>
		<path d="M98.871,55.529c-0.494,0-0.926-0.141-1.295-0.423s-0.654-0.695-0.856-1.242c-0.202-0.547-0.303-1.185-0.303-1.916
			c0-1.127,0.226-2.008,0.679-2.645s1.075-0.956,1.867-0.956c0.387,0,0.727,0.078,1.019,0.233c0.292,0.155,0.559,0.416,0.799,0.783
			h0.048c-0.078-0.542-0.117-1.086-0.117-1.628V45.88h2.412v9.525h-1.806l-0.514-0.875h-0.092
			C100.301,55.196,99.688,55.529,98.871,55.529z M99.85,53.637c0.384,0,0.654-0.12,0.812-0.361c0.156-0.241,0.242-0.612,0.253-1.115
			v-0.189c0-0.612-0.088-1.048-0.263-1.307c-0.175-0.259-0.451-0.388-0.827-0.388c-0.315,0-0.559,0.148-0.732,0.443
			c-0.174,0.297-0.259,0.717-0.259,1.265c0,0.539,0.088,0.948,0.263,1.23C99.273,53.497,99.524,53.637,99.85,53.637z"/>
		<path d="M109.143,55.407v-3.783c0-0.931-0.276-1.396-0.827-1.396c-0.392,0-0.68,0.164-0.866,0.493
			c-0.186,0.329-0.278,0.875-0.278,1.637v3.048h-2.393v-9.525h2.394v1.353c0,0.612-0.032,1.311-0.098,2.094h0.11
			c0.228-0.359,0.5-0.612,0.814-0.76c0.314-0.146,0.679-0.221,1.096-0.221c0.774,0,1.378,0.223,1.808,0.67
			c0.431,0.447,0.645,1.072,0.645,1.877v4.512h-2.407V55.407z"/>
		<path d="M117.702,55.407l-0.459-0.918h-0.048c-0.323,0.401-0.65,0.673-0.985,0.82c-0.334,0.146-0.767,0.221-1.297,0.221
			c-0.653,0-1.167-0.196-1.543-0.588c-0.376-0.392-0.563-0.943-0.563-1.653c0-0.738,0.257-1.288,0.771-1.65
			c0.514-0.361,1.259-0.563,2.234-0.609l1.157-0.037v-0.098c0-0.571-0.282-0.858-0.845-0.858c-0.506,0-1.149,0.171-1.929,0.514
			l-0.691-1.579c0.808-0.416,1.828-0.624,3.061-0.624c0.89,0,1.579,0.221,2.067,0.662c0.488,0.441,0.731,1.057,0.731,1.848v4.549
			h-1.658V55.407z M115.926,53.84c0.289,0,0.539-0.092,0.743-0.276c0.206-0.184,0.309-0.422,0.309-0.716v-0.539l-0.551,0.025
			c-0.788,0.029-1.182,0.319-1.182,0.869C115.247,53.627,115.473,53.84,115.926,53.84z"/>
		<path d="M125.175,48.349c0.209,0,0.406,0.016,0.593,0.048l0.134,0.025l-0.213,2.259c-0.196-0.048-0.468-0.073-0.814-0.073
			c-0.523,0-0.902,0.119-1.139,0.359c-0.236,0.238-0.355,0.582-0.355,1.031v3.409h-2.392v-6.936h1.781l0.374,1.108h0.117
			c0.2-0.367,0.478-0.664,0.835-0.891C124.451,48.462,124.813,48.349,125.175,48.349z"/>
		<path d="M135.582,55.407h-5.313v-8.95h5.313v1.94h-2.896v1.407h2.681v1.94h-2.681v1.689h2.896V55.407z"/>
		<path d="M139.163,55.529c-0.494,0-0.926-0.141-1.295-0.423s-0.654-0.695-0.856-1.242c-0.202-0.547-0.303-1.185-0.303-1.916
			c0-1.127,0.226-2.008,0.679-2.645c0.453-0.637,1.075-0.956,1.867-0.956c0.387,0,0.727,0.078,1.019,0.233
			c0.292,0.155,0.559,0.416,0.799,0.783h0.048c-0.078-0.542-0.117-1.086-0.117-1.628V45.88h2.412v9.525h-1.806l-0.514-0.875h-0.092
			C140.594,55.196,139.98,55.529,139.163,55.529z M140.142,53.637c0.384,0,0.654-0.12,0.812-0.361
			c0.156-0.241,0.242-0.612,0.254-1.115v-0.189c0-0.612-0.088-1.048-0.263-1.307c-0.175-0.259-0.451-0.388-0.827-0.388
			c-0.315,0-0.559,0.148-0.732,0.443c-0.174,0.297-0.259,0.717-0.259,1.265c0,0.539,0.088,0.948,0.263,1.23
			C139.565,53.497,139.816,53.637,140.142,53.637z"/>
		<path d="M150.011,55.407l-0.3-0.863h-0.14c-0.2,0.319-0.479,0.562-0.835,0.731c-0.357,0.169-0.777,0.254-1.259,0.254
			c-0.763,0-1.357-0.222-1.781-0.664c-0.424-0.443-0.637-1.069-0.637-1.877v-4.518h2.393v3.789c0,0.453,0.065,0.796,0.192,1.029
			c0.129,0.232,0.34,0.349,0.633,0.349c0.412,0,0.706-0.163,0.881-0.487c0.175-0.324,0.263-0.873,0.263-1.643v-3.036h2.393v6.936
			h-1.803V55.407z"/>
		<path d="M156.627,55.529c-1.134,0-1.995-0.307-2.58-0.918c-0.586-0.612-0.878-1.492-0.878-2.639c0-1.151,0.316-2.043,0.948-2.675
			c0.632-0.633,1.532-0.948,2.7-0.948c0.804,0,1.561,0.176,2.271,0.526l-0.704,1.769c-0.289-0.127-0.557-0.227-0.802-0.303
			c-0.245-0.076-0.5-0.113-0.766-0.113c-0.387,0-0.688,0.151-0.9,0.453s-0.319,0.729-0.319,1.28c0,1.11,0.41,1.666,1.23,1.666
			c0.702,0,1.375-0.204,2.021-0.612v1.904C158.235,55.325,157.494,55.529,156.627,55.529z"/>
		<path d="M164.752,55.407l-0.459-0.918h-0.048c-0.323,0.401-0.65,0.673-0.985,0.82c-0.334,0.146-0.767,0.221-1.297,0.221
			c-0.653,0-1.167-0.196-1.543-0.588c-0.376-0.392-0.563-0.943-0.563-1.653c0-0.738,0.257-1.288,0.771-1.65
			c0.514-0.361,1.259-0.563,2.234-0.609l1.157-0.037v-0.098c0-0.571-0.282-0.858-0.845-0.858c-0.506,0-1.149,0.171-1.929,0.514
			l-0.691-1.579c0.808-0.416,1.828-0.624,3.061-0.624c0.89,0,1.579,0.221,2.067,0.662s0.731,1.057,0.731,1.848v4.549h-1.658V55.407z
			 M162.976,53.84c0.289,0,0.539-0.092,0.743-0.276c0.206-0.184,0.309-0.422,0.309-0.716v-0.539l-0.551,0.025
			c-0.788,0.029-1.182,0.319-1.182,0.869C162.297,53.627,162.523,53.84,162.976,53.84z"/>
		<path d="M171.436,53.637c0.323,0,0.709-0.079,1.157-0.238v1.745c-0.323,0.139-0.629,0.237-0.922,0.297
			c-0.292,0.058-0.633,0.089-1.025,0.089c-0.804,0-1.384-0.197-1.739-0.591c-0.355-0.393-0.532-0.999-0.532-1.815v-2.858h-0.838
			v-0.973l1.065-0.753l0.618-1.457h1.568v1.39h1.702v1.793h-1.702v2.7C170.786,53.413,171.002,53.637,171.436,53.637z"/>
		<path d="M173.755,46.745c0-0.359,0.101-0.627,0.3-0.802c0.2-0.175,0.523-0.263,0.967-0.263s0.77,0.089,0.973,0.269
			c0.204,0.18,0.307,0.446,0.307,0.796c0,0.702-0.427,1.053-1.28,1.053C174.178,47.798,173.755,47.446,173.755,46.745z
			 M176.21,55.407h-2.393v-6.936h2.393V55.407z"/>
		<path d="M184.505,51.923c0,1.134-0.305,2.019-0.916,2.654s-1.465,0.952-2.562,0.952c-1.053,0-1.89-0.325-2.513-0.973
			c-0.622-0.649-0.933-1.527-0.933-2.632c0-1.131,0.305-2.008,0.915-2.635c0.611-0.627,1.466-0.94,2.568-0.94
			c0.681,0,1.283,0.145,1.806,0.434c0.523,0.289,0.926,0.705,1.209,1.246C184.363,50.569,184.505,51.201,184.505,51.923z
			 M180.012,51.923c0,0.596,0.079,1.05,0.24,1.363c0.159,0.312,0.426,0.468,0.802,0.468c0.371,0,0.633-0.156,0.787-0.468
			c0.153-0.313,0.23-0.766,0.23-1.363c0-0.592-0.078-1.039-0.233-1.34c-0.155-0.302-0.42-0.453-0.796-0.453
			c-0.367,0-0.631,0.15-0.789,0.449C180.091,50.879,180.012,51.327,180.012,51.923z"/>
		<path d="M190.248,55.407v-3.783c0-0.46-0.067-0.809-0.199-1.044c-0.133-0.235-0.346-0.351-0.64-0.351
			c-0.405,0-0.695,0.161-0.875,0.484c-0.18,0.323-0.269,0.875-0.269,1.659v3.036h-2.394v-6.936h1.806l0.299,0.858h0.141
			c0.204-0.326,0.487-0.571,0.848-0.735c0.361-0.163,0.777-0.245,1.246-0.245c0.767,0,1.364,0.222,1.79,0.668
			c0.427,0.446,0.639,1.071,0.639,1.879v4.512h-2.392V55.407z"/>
	</g>
	<g>
		<path d="M74.888,70.733h-1.071l-2.855-3.798l-0.819,0.729v3.068h-0.911v-7.83h0.911v3.884l3.551-3.884h1.077l-3.149,3.401
			L74.888,70.733z"/>
		<path d="M79.848,70.733v-3.798c0-0.478-0.109-0.835-0.326-1.071c-0.218-0.236-0.559-0.354-1.023-0.354
			c-0.614,0-1.064,0.166-1.349,0.498c-0.285,0.333-0.428,0.88-0.428,1.645v3.079h-0.889v-5.869h0.724l0.144,0.803h0.043
			c0.182-0.289,0.437-0.513,0.766-0.673c0.329-0.159,0.695-0.238,1.098-0.238c0.707,0,1.239,0.17,1.596,0.511
			c0.357,0.341,0.535,0.886,0.535,1.636v3.83h-0.891V70.733z"/>
		<path d="M87.63,67.793c0,0.957-0.241,1.704-0.724,2.242c-0.482,0.537-1.148,0.806-1.997,0.806c-0.525,0-0.992-0.123-1.399-0.37
			c-0.407-0.246-0.721-0.599-0.943-1.06c-0.221-0.46-0.331-0.999-0.331-1.617c0-0.957,0.24-1.703,0.717-2.237
			c0.479-0.534,1.143-0.801,1.992-0.801c0.822,0,1.475,0.273,1.957,0.819C87.388,66.122,87.63,66.861,87.63,67.793z M83.157,67.793
			c0,0.75,0.15,1.321,0.449,1.714c0.299,0.392,0.741,0.59,1.323,0.59c0.582,0,1.024-0.196,1.326-0.587
			c0.302-0.391,0.453-0.963,0.453-1.717c0-0.746-0.151-1.313-0.453-1.7c-0.302-0.387-0.747-0.581-1.335-0.581
			c-0.582,0-1.021,0.191-1.318,0.573C83.306,66.466,83.157,67.036,83.157,67.793z"/>
		<path d="M93.981,70.733l-1.076-3.444c-0.068-0.21-0.195-0.689-0.38-1.435h-0.043c-0.143,0.624-0.268,1.107-0.375,1.446
			l-1.108,3.433H89.97l-1.601-5.869h0.932c0.379,1.475,0.667,2.598,0.865,3.368c0.199,0.771,0.312,1.291,0.34,1.559h0.042
			c0.04-0.204,0.103-0.467,0.19-0.789c0.088-0.323,0.164-0.58,0.227-0.768l1.077-3.368h0.964l1.05,3.368
			c0.2,0.614,0.335,1.131,0.407,1.548h0.043c0.014-0.129,0.053-0.326,0.115-0.595c0.062-0.267,0.434-1.709,1.117-4.322h0.921
			l-1.625,5.868H93.981z"/>
		<path d="M98.609,70.733h-0.889V62.4h0.889V70.733z"/>
		<path d="M102.974,70.84c-0.868,0-1.553-0.264-2.054-0.793c-0.501-0.529-0.752-1.262-0.752-2.201c0-0.946,0.233-1.698,0.699-2.255
			c0.467-0.557,1.091-0.835,1.878-0.835c0.735,0,1.317,0.242,1.746,0.726c0.428,0.484,0.643,1.122,0.643,1.915v0.562h-4.044
			c0.017,0.69,0.191,1.213,0.523,1.57c0.33,0.356,0.796,0.535,1.395,0.535c0.632,0,1.257-0.133,1.875-0.396v0.793
			c-0.314,0.135-0.612,0.232-0.891,0.292C103.709,70.811,103.37,70.84,102.974,70.84z M102.734,65.5
			c-0.472,0-0.846,0.154-1.127,0.46c-0.28,0.307-0.446,0.732-0.495,1.275h3.069c0-0.561-0.125-0.989-0.375-1.288
			C103.554,65.649,103.198,65.5,102.734,65.5z"/>
		<path d="M110.644,69.946h-0.048c-0.411,0.596-1.025,0.895-1.843,0.895c-0.767,0-1.365-0.263-1.791-0.788
			c-0.427-0.525-0.64-1.271-0.64-2.239c0-0.967,0.213-1.719,0.643-2.255c0.428-0.535,1.024-0.803,1.789-0.803
			c0.797,0,1.407,0.289,1.832,0.868h0.07l-0.037-0.423l-0.021-0.412V62.4h0.889v8.333h-0.722L110.644,69.946z M108.866,70.096
			c0.607,0,1.046-0.165,1.319-0.495s0.41-0.863,0.41-1.599v-0.187c0-0.832-0.139-1.425-0.415-1.781
			c-0.277-0.355-0.719-0.532-1.326-0.532c-0.521,0-0.921,0.202-1.198,0.608c-0.277,0.405-0.415,0.978-0.415,1.717
			c0,0.75,0.138,1.316,0.412,1.698C107.93,69.904,108.334,70.096,108.866,70.096z"/>
		<path d="M118.175,64.863v0.562l-1.087,0.129c0.099,0.125,0.189,0.289,0.267,0.49c0.079,0.202,0.118,0.429,0.118,0.683
			c0,0.575-0.196,1.034-0.59,1.376c-0.392,0.343-0.932,0.514-1.617,0.514c-0.175,0-0.339-0.014-0.493-0.043
			c-0.379,0.2-0.567,0.452-0.567,0.756c0,0.16,0.066,0.279,0.197,0.356c0.133,0.077,0.359,0.115,0.68,0.115h1.039
			c0.635,0,1.123,0.134,1.465,0.402c0.341,0.267,0.511,0.657,0.511,1.167c0,0.65-0.261,1.146-0.782,1.487
			c-0.521,0.341-1.282,0.511-2.281,0.511c-0.768,0-1.359-0.143-1.776-0.428c-0.416-0.285-0.624-0.689-0.624-1.21
			c0-0.357,0.114-0.667,0.343-0.926c0.228-0.261,0.55-0.437,0.964-0.53c-0.15-0.067-0.276-0.174-0.377-0.316
			s-0.153-0.309-0.153-0.498c0-0.215,0.057-0.402,0.171-0.562c0.114-0.16,0.294-0.316,0.541-0.465
			c-0.303-0.125-0.551-0.338-0.742-0.637c-0.191-0.3-0.287-0.643-0.287-1.029c0-0.643,0.192-1.138,0.578-1.487
			c0.386-0.348,0.932-0.523,1.638-0.523c0.308,0,0.583,0.036,0.83,0.107h2.033V64.863z M113.493,71.718
			c0,0.318,0.134,0.559,0.401,0.724c0.268,0.164,0.652,0.246,1.152,0.246c0.746,0,1.299-0.112,1.658-0.334
			c0.359-0.223,0.539-0.526,0.539-0.909c0-0.318-0.098-0.539-0.294-0.662s-0.566-0.185-1.108-0.185h-1.066
			c-0.403,0-0.717,0.097-0.943,0.289C113.605,71.08,113.493,71.357,113.493,71.718z M113.975,66.743
			c0,0.411,0.115,0.721,0.348,0.932c0.232,0.211,0.555,0.316,0.969,0.316c0.868,0,1.301-0.421,1.301-1.263
			c0-0.881-0.439-1.323-1.318-1.323c-0.418,0-0.74,0.113-0.964,0.338C114.085,65.967,113.975,66.301,113.975,66.743z"/>
		<path d="M121.859,70.84c-0.868,0-1.553-0.264-2.054-0.793c-0.501-0.529-0.752-1.262-0.752-2.201c0-0.946,0.233-1.698,0.699-2.255
			c0.467-0.557,1.091-0.835,1.878-0.835c0.735,0,1.317,0.242,1.746,0.726c0.428,0.484,0.643,1.122,0.643,1.915v0.562h-4.044
			c0.017,0.69,0.191,1.213,0.523,1.57c0.33,0.356,0.796,0.535,1.395,0.535c0.633,0,1.257-0.133,1.875-0.396v0.793
			c-0.314,0.135-0.612,0.232-0.891,0.292C122.593,70.811,122.256,70.84,121.859,70.84z M121.618,65.5
			c-0.472,0-0.846,0.154-1.127,0.46c-0.281,0.308-0.446,0.732-0.495,1.275h3.069c0-0.561-0.125-0.989-0.375-1.288
			C122.44,65.649,122.082,65.5,121.618,65.5z"/>
		<path d="M128.308,63.272c0-0.204,0.05-0.352,0.15-0.447c0.101-0.094,0.225-0.141,0.375-0.141c0.143,0,0.266,0.048,0.37,0.144
			c0.103,0.097,0.155,0.245,0.155,0.444c0,0.2-0.052,0.349-0.155,0.448c-0.103,0.098-0.227,0.146-0.37,0.146
			c-0.15,0-0.276-0.048-0.375-0.146C128.357,63.621,128.308,63.472,128.308,63.272z M129.272,70.733h-0.889v-5.869h0.889V70.733z"/>
		<path d="M134.944,69.132c0,0.546-0.204,0.967-0.611,1.265c-0.407,0.297-0.979,0.444-1.714,0.444c-0.778,0-1.385-0.123-1.821-0.37
			v-0.824c0.282,0.143,0.585,0.256,0.909,0.338c0.323,0.082,0.634,0.124,0.935,0.124c0.464,0,0.822-0.074,1.071-0.222
			c0.249-0.148,0.375-0.374,0.375-0.676c0-0.228-0.099-0.424-0.297-0.587c-0.199-0.163-0.585-0.355-1.159-0.576
			c-0.546-0.204-0.935-0.381-1.165-0.534c-0.231-0.151-0.401-0.324-0.514-0.516c-0.112-0.192-0.169-0.423-0.169-0.69
			c0-0.478,0.195-0.856,0.583-1.133c0.39-0.277,0.923-0.415,1.601-0.415c0.633,0,1.25,0.129,1.853,0.386l-0.316,0.724
			c-0.588-0.243-1.122-0.365-1.601-0.365c-0.421,0-0.74,0.066-0.953,0.199c-0.213,0.132-0.321,0.314-0.321,0.546
			c0,0.156,0.04,0.29,0.12,0.401c0.081,0.112,0.21,0.216,0.388,0.316c0.179,0.099,0.521,0.245,1.029,0.433
			c0.696,0.254,1.167,0.509,1.411,0.766C134.821,68.419,134.944,68.742,134.944,69.132z"/>
		<path d="M142.849,70.733l-0.176-0.835h-0.043c-0.293,0.367-0.585,0.617-0.876,0.747c-0.29,0.13-0.654,0.196-1.09,0.196
			c-0.582,0-1.038-0.15-1.368-0.449c-0.33-0.3-0.495-0.726-0.495-1.28c0-1.185,0.948-1.807,2.845-1.864l0.997-0.032v-0.365
			c0-0.46-0.099-0.801-0.298-1.02c-0.199-0.22-0.515-0.33-0.951-0.33c-0.49,0-1.043,0.15-1.661,0.449l-0.273-0.68
			c0.289-0.156,0.606-0.28,0.951-0.37s0.69-0.134,1.036-0.134c0.7,0,1.219,0.155,1.555,0.465c0.338,0.312,0.506,0.809,0.506,1.494
			v4.006h-0.659V70.733z M140.841,70.106c0.554,0,0.988-0.151,1.304-0.455c0.316-0.304,0.474-0.729,0.474-1.275v-0.53l-0.889,0.037
			c-0.707,0.025-1.216,0.134-1.529,0.33c-0.313,0.195-0.469,0.496-0.469,0.907c0,0.321,0.098,0.566,0.292,0.734
			C140.218,70.023,140.491,70.106,140.841,70.106z"/>
		<path d="M153.287,65.184c0,0.793-0.271,1.403-0.812,1.829c-0.541,0.427-1.314,0.64-2.322,0.64h-0.921v3.079h-0.911v-7.83h2.031
			C152.309,62.902,153.287,63.663,153.287,65.184z M149.234,66.872h0.819c0.807,0,1.39-0.13,1.751-0.391
			c0.361-0.261,0.541-0.679,0.541-1.254c0-0.518-0.169-0.904-0.509-1.157c-0.34-0.254-0.868-0.381-1.586-0.381h-1.018v3.182H149.234
			z"/>
		<path d="M159.859,67.793c0,0.957-0.241,1.704-0.724,2.242c-0.482,0.537-1.148,0.806-1.997,0.806c-0.525,0-0.992-0.123-1.399-0.37
			c-0.407-0.246-0.721-0.599-0.943-1.06c-0.221-0.46-0.331-0.999-0.331-1.617c0-0.957,0.24-1.703,0.717-2.237
			c0.479-0.534,1.143-0.801,1.992-0.801c0.822,0,1.475,0.273,1.957,0.819C159.617,66.122,159.859,66.861,159.859,67.793z
			 M155.387,67.793c0,0.75,0.15,1.321,0.449,1.714c0.3,0.392,0.741,0.59,1.323,0.59s1.024-0.196,1.326-0.587
			c0.302-0.391,0.452-0.963,0.452-1.717c0-0.746-0.151-1.313-0.452-1.7c-0.302-0.387-0.747-0.581-1.337-0.581
			c-0.582,0-1.021,0.191-1.318,0.573C155.535,66.466,155.387,67.036,155.387,67.793z"/>
		<path d="M166.21,70.733l-1.076-3.444c-0.068-0.21-0.195-0.689-0.38-1.435h-0.043c-0.143,0.624-0.268,1.107-0.375,1.446
			l-1.108,3.433h-1.029l-1.601-5.869h0.932c0.379,1.475,0.667,2.598,0.865,3.368c0.199,0.771,0.312,1.291,0.34,1.559h0.042
			c0.04-0.204,0.103-0.467,0.19-0.789c0.088-0.323,0.164-0.58,0.227-0.768l1.077-3.368h0.964l1.05,3.368
			c0.2,0.614,0.335,1.131,0.407,1.548h0.043c0.014-0.129,0.053-0.326,0.115-0.595c0.062-0.267,0.434-1.709,1.117-4.322h0.921
			l-1.623,5.869h-1.056V70.733z"/>
		<path d="M172.43,70.84c-0.868,0-1.553-0.264-2.054-0.793c-0.501-0.529-0.752-1.262-0.752-2.201c0-0.946,0.233-1.698,0.699-2.255
			c0.467-0.557,1.091-0.835,1.878-0.835c0.735,0,1.317,0.242,1.746,0.726c0.428,0.484,0.643,1.122,0.643,1.915v0.562h-4.044
			c0.017,0.69,0.191,1.213,0.523,1.57c0.33,0.356,0.796,0.535,1.395,0.535c0.633,0,1.257-0.133,1.875-0.396v0.793
			c-0.314,0.135-0.612,0.232-0.891,0.292C173.164,70.811,172.826,70.84,172.43,70.84z M172.189,65.5
			c-0.472,0-0.846,0.154-1.127,0.46c-0.281,0.307-0.446,0.732-0.495,1.275h3.069c0-0.561-0.125-0.989-0.375-1.288
			C173.011,65.649,172.653,65.5,172.189,65.5z"/>
		<path d="M178.782,64.756c0.261,0,0.494,0.022,0.701,0.065l-0.123,0.825c-0.243-0.053-0.457-0.081-0.643-0.081
			c-0.475,0-0.881,0.192-1.219,0.578c-0.338,0.386-0.506,0.866-0.506,1.441v3.149h-0.889v-5.869h0.734l0.102,1.087h0.042
			c0.218-0.382,0.48-0.676,0.788-0.884C178.076,64.859,178.413,64.756,178.782,64.756z"/>
	</g>
</g>
</svg>
