<svg width="32" height="32" viewBox="0 0 32 32" fill="none" xmlns="http://www.w3.org/2000/svg">
<g id="solar:close-square-outline">
<g id="Group">
<path id="Vector" d="M13.3733 11.9599C13.1838 11.7832 12.933 11.6871 12.674 11.6916C12.4149 11.6962 12.1677 11.8012 11.9845 11.9844C11.8013 12.1676 11.6963 12.4148 11.6918 12.6739C11.6872 12.9329 11.7834 13.1836 11.96 13.3732L14.5867 15.9999L11.96 18.6265C11.8618 18.7181 11.7829 18.8285 11.7283 18.9512C11.6736 19.0738 11.6442 19.2062 11.6419 19.3405C11.6395 19.4748 11.6642 19.6082 11.7145 19.7327C11.7648 19.8572 11.8397 19.9703 11.9346 20.0653C12.0296 20.1602 12.1427 20.2351 12.2672 20.2854C12.3917 20.3357 12.5251 20.3604 12.6594 20.358C12.7936 20.3556 12.9261 20.3262 13.0487 20.2716C13.1714 20.2169 13.2818 20.1381 13.3733 20.0399L16 17.4132L18.6267 20.0399C18.8162 20.2165 19.067 20.3127 19.326 20.3081C19.5851 20.3035 19.8323 20.1986 20.0155 20.0154C20.1987 19.8322 20.3037 19.585 20.3082 19.3259C20.3128 19.0668 20.2166 18.8161 20.04 18.6265L17.4133 15.9999L20.04 13.3732C20.1383 13.2817 20.2171 13.1713 20.2717 13.0486C20.3264 12.9259 20.3558 12.7935 20.3581 12.6592C20.3605 12.525 20.3358 12.3916 20.2855 12.2671C20.2352 12.1426 20.1603 12.0295 20.0654 11.9345C19.9704 11.8395 19.8573 11.7647 19.7328 11.7144C19.6083 11.6641 19.4749 11.6394 19.3406 11.6418C19.2064 11.6441 19.074 11.6735 18.9513 11.7282C18.8286 11.7828 18.7182 11.8616 18.6267 11.9599L16 14.5865L13.3733 11.9599Z" fill="#091929"/>
<path id="Vector_2" fill-rule="evenodd" clip-rule="evenodd" d="M16.076 1.6665H15.924C12.8453 1.6665 10.4333 1.6665 8.55063 1.91984C6.62529 2.1785 5.10529 2.71984 3.91196 3.91184C2.71863 5.10517 2.17863 6.62517 1.91996 8.55184C1.66663 10.4332 1.66663 12.8452 1.66663 15.9238V16.0758C1.66663 19.1545 1.66663 21.5665 1.91996 23.4492C2.17863 25.3745 2.71996 26.8945 3.91196 28.0878C5.10529 29.2812 6.62529 29.8212 8.55196 30.0798C10.4333 30.3332 12.8453 30.3332 15.924 30.3332H16.076C19.1546 30.3332 21.5666 30.3332 23.4493 30.0798C25.3746 29.8212 26.8946 29.2798 28.088 28.0878C29.2813 26.8945 29.8213 25.3745 30.08 23.4478C30.3333 21.5665 30.3333 19.1545 30.3333 16.0758V15.9238C30.3333 12.8452 30.3333 10.4332 30.08 8.5505C29.8213 6.62517 29.28 5.10517 28.088 3.91184C26.8946 2.7185 25.3746 2.1785 23.448 1.91984C21.5666 1.6665 19.1546 1.6665 16.076 1.6665ZM5.32663 5.3265C6.08663 4.5665 7.11329 4.1305 8.81863 3.90117C10.552 3.66917 12.8293 3.6665 16 3.6665C19.1706 3.6665 21.448 3.66917 23.1813 3.90117C24.8866 4.1305 25.9146 4.56784 26.6746 5.3265C27.4333 6.0865 27.8693 7.11317 28.0986 8.8185C28.3306 10.5518 28.3333 12.8292 28.3333 15.9998C28.3333 19.1705 28.3306 21.4478 28.0986 23.1812C27.8693 24.8865 27.432 25.9145 26.6733 26.6745C25.9133 27.4332 24.8866 27.8692 23.1813 28.0985C21.448 28.3305 19.1706 28.3332 16 28.3332C12.8293 28.3332 10.552 28.3305 8.81863 28.0985C7.11329 27.8692 6.08529 27.4318 5.32529 26.6732C4.56663 25.9132 4.13063 24.8865 3.90129 23.1812C3.66929 21.4478 3.66663 19.1705 3.66663 15.9998C3.66663 12.8292 3.66929 10.5518 3.90129 8.8185C4.13063 7.11317 4.56796 6.0865 5.32663 5.3265Z" fill="#091929"/>
</g>
</g>
</svg>
