<svg width="32" height="32" viewBox="0 0 32 32" fill="none" xmlns="http://www.w3.org/2000/svg">
<path d="M16.026 2.6665C23.5993 2.6665 29.3327 8.87582 29.3327 15.9798C29.3327 24.2188 22.6127 29.3332 15.9993 29.3332C13.8127 29.3332 11.386 28.7456 9.43935 27.5972C8.75935 27.1833 8.18602 26.8762 7.45268 27.1165L4.75935 27.9177C4.07935 28.1314 3.46602 27.5972 3.66602 26.8762L4.55935 23.885C4.70602 23.471 4.67935 23.0304 4.46602 22.6832C3.31935 20.5734 2.66602 18.2632 2.66602 16.0199C2.66602 8.996 8.27935 2.6665 16.026 2.6665ZM22.1193 14.324C21.1727 14.324 20.4127 15.0851 20.4127 16.0332C20.4127 16.968 21.1727 17.7424 22.1193 17.7424C23.066 17.7424 23.826 16.968 23.826 16.0332C23.826 15.0851 23.066 14.324 22.1193 14.324ZM15.9727 14.324C15.0393 14.3106 14.266 15.0851 14.266 16.0199C14.266 16.968 15.026 17.7291 15.9727 17.7424C16.9193 17.7424 17.6793 16.968 17.6793 16.0332C17.6793 15.0851 16.9193 14.324 15.9727 14.324ZM9.82601 14.324C8.87935 14.324 8.11935 15.0851 8.11935 16.0332C8.11935 16.968 8.89268 17.7424 9.82601 17.7424C10.7727 17.7291 11.5327 16.968 11.5327 16.0332C11.5327 15.0851 10.7727 14.324 9.82601 14.324Z" fill="#ACF5E1"/>
</svg>
