<svg xmlns="http://www.w3.org/2000/svg" xmlns:xlink="http://www.w3.org/1999/xlink" viewBox="0 0 758.62 148.12"><defs><linearGradient id="a" x1="224.88" y1="7.56" x2="91.77" y2="45.18" gradientUnits="userSpaceOnUse"><stop offset="0" stop-color="#00c6fc"/><stop offset="1" stop-color="#0060f9"/></linearGradient><linearGradient id="b" x1="233.78" y1="39.06" x2="100.67" y2="76.67" xlink:href="#a"/></defs><title>mailercloud-logo-white</title><path d="M48.09,145.92V107.21c0-9.53-5-18.18-14.81-18.18s-15.39,8.65-15.39,18.18v38.71H0V73.49H16.57l1.32,8.79c3.81-7.32,12.17-10,19.06-10,8.65,0,17.3,3.51,21.4,13.49,6.46-10.26,14.81-13.2,24.2-13.2,20.52,0,30.65,12.61,30.65,34.3v39H95.31v-39c0-9.52-4-17.58-13.64-17.58S66,97.68,66,107.21v38.71Z" fill="#fff"/><path d="M185.77,73.64h17.15v72.28H186.06l-.88-10.55c-4.1,8.5-15.4,12.6-23.46,12.75-21.41.15-37.24-13.05-37.24-38.42,0-24.92,16.57-38,37.68-37.82,9.68,0,18.92,4.54,23,11.72Zm-43.4,36.06c0,13.78,9.52,22,21.41,22,28.15,0,28.15-43.84,0-43.84C151.89,87.86,142.37,95.92,142.37,109.7Z" fill="#fff"/><rect x="215.09" y="73.34" width="17.89" height="72.58" fill="#fff"/><path d="M263.91,47.42v98.5H246.17V47.42Z" fill="#fff"/><path d="M291.93,116.16c1.16,8.94,8.94,15.39,21.55,15.39,6.6,0,15.24-2.49,19.35-6.75l11.44,11.3c-7.62,7.91-20.08,11.73-31.09,11.73-24.92,0-39.73-15.4-39.73-38.57,0-22,15-37.82,38.41-37.82,24.2,0,39.3,15,36.51,44.72Zm39.29-14.81C330,92,322.72,87.27,312.45,87.27c-9.68,0-17.6,4.69-20.23,14.08Z" fill="#fff"/><path d="M375.79,73.64,377.11,82c5.57-8.94,13.05-10.26,20.38-10.26,7.48,0,14.66,2.92,18.63,6.89l-8.07,15.54a17.93,17.93,0,0,0-12.91-4.69c-9.38,0-18,5-18,18.32v38.13H359.22V73.64Z" fill="#fff"/><path d="M482,136.69c-8.36,8.2-17.16,11.43-27.87,11.43-21,0-38.41-12.61-38.41-38.27s17.45-38.27,38.41-38.27c10.27,0,18.19,2.94,26.11,10.7l-11.3,11.88a21.91,21.91,0,0,0-14.51-5.71c-12,0-20.82,8.79-20.82,21.4,0,13.78,9.38,21.11,20.52,21.11,5.73,0,11.45-1.61,15.84-6Z" fill="#fff"/><path d="M504.67,47.42v98.5H486.93V47.42Z" fill="#fff"/><path d="M589.27,109.85c0,20.82-14.22,37.68-37.69,37.68S514,130.67,514,109.85c0-20.67,14.38-37.68,37.4-37.68S589.27,89.18,589.27,109.85Zm-57.34,0c0,11,6.61,21.26,19.65,21.26s19.65-10.26,19.65-21.26c0-10.85-7.62-21.4-19.65-21.4C538.68,88.45,531.93,99,531.93,109.85Z" fill="#fff"/><path d="M617,73.64v37.82c0,11,6,19.36,17.45,19.36,11,0,18.47-9.24,18.47-20.24V73.64h17.75v72.43h-16l-1.18-9.82c-7.48,7.32-14.37,10.84-24.49,10.84-17.3,0-29.91-13-29.91-35.48v-38Z" fill="#fff"/><path d="M758.62,47.42v98.5H741.9l-1.17-10c-5.58,8.65-14.52,11.58-23.31,11.58-21.26,0-37.25-14.07-37.25-37.83,0-24.92,15.69-37.82,36.81-37.82,7.62,0,19.49,4.1,23.75,11.58v-36ZM698.06,109.7c0,12.62,9.09,21.26,20.52,21.26s21-8.2,21-21.26a20.63,20.63,0,0,0-21-21.11C707.15,88.59,698.06,96.65,698.06,109.7Z" fill="#fff"/><rect x="215.09" y="73.34" width="17.89" height="72.58" fill="#fff"/><path d="M147.65,0a47.22,47.22,0,0,0-42.41,26.5,26.94,26.94,0,0,0-17.39-6.45A27.22,27.22,0,0,0,60.63,47.27H194.92A47.27,47.27,0,0,0,147.65,0Z" fill="url(#a)"/><path d="M209.48,47.27h29.14C238.62,28.06,209.48,28.06,209.48,47.27Z" fill="url(#b)"/></svg>