<svg width="142" height="133" viewBox="0 0 142 133" fill="none" xmlns="http://www.w3.org/2000/svg">
<path fill-rule="evenodd" clip-rule="evenodd" d="M77.2228 0.261927C90.6811 0.940224 104.609 2.8169 115.086 11.2922C125.289 19.5461 128.445 32.972 132.91 45.3122C137.551 58.1372 142.946 70.7296 141.502 84.2918C139.802 100.257 137.341 118.846 124.111 127.942C110.907 137.019 93.1978 129.714 77.2228 128.482C62.7231 127.365 47.8973 128.377 35.3079 121.097C21.8066 113.29 10.5903 101.442 5.17098 86.8173C-0.384599 71.8251 -0.594015 54.9019 5.26572 40.026C10.9267 25.6547 22.9623 14.8013 36.4814 7.33056C48.8479 0.496742 63.1116 -0.449272 77.2228 0.261927Z" fill="#95F1E8" fill-opacity="0.5"/>
<g clip-path="url(#clip0)">
<path d="M99.8972 105.424C99.2245 107.66 98.0344 109.345 95.9386 109.345C95.9128 109.345 87.6592 109.345 87.6592 109.345C85.5117 109.345 83.7782 107.581 83.7782 105.397C83.7782 96.6604 83.7782 100.318 83.7782 91.5815C83.7782 82.0025 83.6489 72.6341 84.1146 63.0815C84.2957 59.4236 82.4587 52.4762 86.3138 50.2394C88.4613 49.0025 93.5583 50.0815 95.9386 50.0815C101.605 50.0815 99.4833 59.3973 99.5091 62.8973C99.535 69.2657 99.5868 75.6341 99.6126 82.0025C99.6644 90.4762 100.492 92.4499 100.622 100.897C100.673 102.976 100.932 101.897 99.8972 105.424Z" fill="#2ECFCA"/>
<path d="M78.3972 104.897C78.3972 107.371 76.9741 109.371 75.2406 109.371H68.6171C64.5033 109.371 64.9949 105.186 64.9949 101.239C64.9949 94.6864 65.4606 94.6338 65.4606 88.1075C65.4606 80.6075 65.4606 73.1075 65.4606 65.6338C65.4606 63.1601 66.8836 61.1601 68.6171 61.1601C70.8681 61.1601 73.119 61.1075 75.3441 61.1601C79.5356 61.2654 78.3713 68.7654 78.3713 73.1075C78.3972 87.7917 78.3972 90.1338 78.3972 104.897Z" fill="#B5EAD7"/>
<path d="M60.155 106.923C60.155 108.687 58.732 110.134 56.9985 110.134H50.3749C46.2611 110.134 46.7527 108.844 46.7527 106.002C46.7527 101.318 47.2184 103.055 47.2184 98.3445C47.2184 92.9761 47.2184 87.5813 47.2184 82.2129C47.2184 80.4498 48.6414 79.0024 50.3749 79.0024C52.6259 79.0024 54.8769 78.9498 57.102 79.0024C61.2934 79.0813 60.1291 84.4498 60.1291 87.5813C60.155 98.134 60.155 96.3445 60.155 106.923Z" fill="#E2F0CB"/>
<path d="M54.8786 109.344H48.2551C46.1335 109.344 44.9433 109.028 44.1671 108.213C43.2616 107.265 43.2874 106.002 43.3133 104.66C43.3133 104.423 43.3133 104.16 43.3133 103.871C43.3133 101.423 43.4427 100.607 43.572 99.8442C43.6755 99.1337 43.8049 98.4758 43.8049 96.2389V80.1073C43.8049 77.6073 45.7971 75.581 48.2551 75.581C49.0313 75.581 49.8075 75.581 50.5837 75.581C52.0585 75.581 53.5332 75.5547 55.008 75.581C56.3017 75.6073 57.3625 76.0284 58.1128 76.8705C59.6652 78.581 59.5099 81.3442 59.3806 83.8179C59.3547 84.4231 59.303 85.0021 59.303 85.4758V104.818C59.3288 107.318 57.3366 109.344 54.8786 109.344ZM52.9123 78.2126C52.1361 78.2126 51.3599 78.2126 50.5837 78.2126C49.8075 78.2126 49.0313 78.2126 48.2551 78.2126C47.2202 78.2126 46.3922 79.0547 46.3922 80.1073V96.2389C46.3922 98.6863 46.2629 99.5021 46.1335 100.292C46.03 101.002 45.9006 101.66 45.9006 103.897C45.9006 104.186 45.9006 104.476 45.9006 104.713C45.9006 105.344 45.8748 106.213 46.03 106.371C46.0817 106.423 46.444 106.713 48.2551 106.713H54.8786C55.9136 106.713 56.7415 105.871 56.7415 104.818V85.4758C56.7415 84.9231 56.7674 84.2916 56.8191 83.66C56.9226 81.8179 57.052 79.5547 56.2499 78.66C56.0688 78.4758 55.7583 78.2389 54.9821 78.2126C54.2836 78.2126 53.6109 78.2126 52.9123 78.2126Z" fill="#231F20"/>
<path d="M72.9364 109.344H66.3128C64.8639 109.344 63.7255 108.923 62.8976 108.054C61.2934 106.423 61.3452 103.66 61.3711 100.975C61.3711 100.607 61.3711 100.239 61.3711 99.8702C61.3711 96.5544 61.5004 94.8702 61.6039 93.2123C61.7333 91.5281 61.8368 89.9492 61.8368 86.7386V64.265C61.8368 61.0281 63.7773 58.4755 66.287 58.4755C67.0632 58.4755 67.8394 58.4755 68.6156 58.4492C69.3917 58.4492 70.1679 58.4229 70.97 58.4229C71.7462 58.4229 72.4448 58.4229 73.0657 58.4492C74.1783 58.4755 75.1356 58.8965 75.86 59.686C77.7488 61.7123 77.5677 65.765 77.4383 69.3439C77.4124 70.2123 77.3607 71.0018 77.3607 71.7123V103.528C77.3607 106.818 75.4202 109.344 72.9364 109.344ZM70.97 61.0807C70.1938 61.0807 69.4176 61.0807 68.6414 61.1071C67.8652 61.1071 67.089 61.1334 66.287 61.1334C65.4073 61.1334 64.4241 62.4229 64.4241 64.2913V86.765C64.4241 90.0808 64.2947 91.7913 64.1912 93.4492C64.0619 95.1334 63.9584 96.686 63.9584 99.9229C63.9584 100.291 63.9584 100.686 63.9584 101.054C63.9325 103.186 63.9066 105.397 64.7346 106.239C64.8639 106.37 65.2262 106.739 66.287 106.739H72.9105C73.7902 106.739 74.7734 105.449 74.7734 103.581V71.7386C74.7734 70.9755 74.7992 70.1334 74.851 69.265C74.9545 66.5018 75.1097 62.7386 73.9713 61.5018C73.8161 61.3176 73.5573 61.1071 73.014 61.1071C72.393 61.1071 71.7203 61.0807 70.97 61.0807Z" fill="#231F20"/>
<path d="M93.3506 109.344H85.0711C82.2251 109.344 79.8965 106.976 79.8965 104.081V90.2652C79.8965 88.581 79.8965 86.8968 79.8965 85.2126C79.8706 77.5547 79.8706 69.6073 80.2328 61.7126C80.2587 60.8968 80.1811 59.8179 80.1035 58.6863C79.8189 54.7652 79.4566 49.8968 83.0789 47.8178C83.9845 47.2915 85.2264 47.0547 86.9599 47.0547C88.2535 47.0547 89.6507 47.1863 90.8667 47.3178C91.824 47.4231 92.7037 47.5021 93.3506 47.5021C94.8253 47.5021 96.0155 48.0021 96.8952 48.9757C99.0168 51.3442 98.6546 55.7126 98.37 59.2389C98.2923 60.1863 98.2147 61.0284 98.2147 61.6336C98.2406 68.2389 98.2923 74.9494 98.3182 80.7389C98.3441 85.0547 98.5769 87.6073 98.8098 90.3442C99.0427 92.8705 99.2755 95.5021 99.3273 99.6336C99.3273 100.028 99.3531 100.292 99.3531 100.528C99.4049 101.528 99.3531 101.686 98.7581 103.686L98.4993 104.528C97.3609 108.502 95.0582 109.344 93.3506 109.344ZM86.9599 49.66C85.4075 49.66 84.683 49.8968 84.3467 50.081C82.1475 51.3442 82.4321 55.1336 82.6649 58.4757C82.7425 59.6863 82.846 60.8442 82.7943 61.8442C82.4321 69.6863 82.4321 77.2126 82.4579 85.2126C82.4579 86.8968 82.4579 88.581 82.4579 90.2915V104.107C82.4579 105.555 83.6222 106.739 85.0453 106.739H93.3247C93.8163 106.739 95.1617 106.739 96.0414 103.765L96.3001 102.897C96.8176 101.186 96.8176 101.186 96.7917 100.634C96.7658 100.397 96.7658 100.081 96.7658 99.6336C96.6882 95.581 96.4812 93.0284 96.2484 90.5284C96.0155 87.8705 95.7826 85.1336 95.7309 80.7126C95.6791 74.9231 95.6274 68.2126 95.6274 61.6073C95.6274 60.8968 95.705 60.0021 95.7826 58.9757C96.0155 56.2915 96.3519 52.2389 94.9806 50.7126C94.7477 50.4494 94.3079 50.081 93.3247 50.081C92.5744 50.081 91.617 49.9757 90.608 49.8968C89.4696 49.7915 88.1242 49.66 86.9599 49.66Z" fill="#231F20"/>
<path d="M93.3506 109.344H85.0711C82.2251 109.344 79.8965 106.976 79.8965 104.081V90.2652C79.8965 88.581 79.8965 86.8968 79.8965 85.2126C79.8706 77.5547 79.8706 69.6073 80.2328 61.7126C80.2587 60.8968 80.1811 59.8179 80.1035 58.6863C79.8189 54.7652 79.4566 49.8968 83.0789 47.8178C83.9845 47.2915 85.2264 47.0547 86.9599 47.0547C88.2535 47.0547 89.6507 47.1863 90.8667 47.3178C91.824 47.4231 92.7037 47.5021 93.3506 47.5021C94.8253 47.5021 96.0155 48.0021 96.8952 48.9757C99.0168 51.3442 98.6546 55.7126 98.37 59.2389C98.2923 60.1863 98.2147 61.0284 98.2147 61.6336C98.2406 68.2389 98.2923 74.9494 98.3182 80.7389C98.3441 85.0547 98.5769 87.6073 98.8098 90.3442C99.0427 92.8705 99.2755 95.5021 99.3273 99.6336C99.3273 100.028 99.3531 100.292 99.3531 100.528C99.4049 101.528 99.3531 101.686 98.7581 103.686L98.4993 104.528C97.3609 108.502 95.0582 109.344 93.3506 109.344ZM86.9599 49.66C85.4075 49.66 84.683 49.8968 84.3467 50.081C82.1475 51.3442 82.4321 55.1336 82.6649 58.4757C82.7425 59.6863 82.846 60.8442 82.7943 61.8442C82.4321 69.6863 82.4321 77.2126 82.4579 85.2126C82.4579 86.8968 82.4579 88.581 82.4579 90.2915V104.107C82.4579 105.555 83.6222 106.739 85.0453 106.739H93.3247C93.8163 106.739 95.1617 106.739 96.0414 103.765L96.3001 102.897C96.8176 101.186 96.8176 101.186 96.7917 100.634C96.7658 100.397 96.7658 100.081 96.7658 99.6336C96.6882 95.581 96.4812 93.0284 96.2484 90.5284C96.0155 87.8705 95.7826 85.1336 95.7309 80.7126C95.6791 74.9231 95.6274 68.2126 95.6274 61.6073C95.6274 60.8968 95.705 60.0021 95.7826 58.9757C96.0155 56.2915 96.3519 52.2389 94.9806 50.7126C94.7477 50.4494 94.3079 50.081 93.3247 50.081C92.5744 50.081 91.617 49.9757 90.608 49.8968C89.4696 49.7915 88.1242 49.66 86.9599 49.66Z" fill="#231F20"/>
<path d="M42.5621 65.8446L40.6992 64.0288C56.249 47.3972 58.4741 45.213 60.5699 43.7656C65.2012 40.5288 69.1339 41.9762 72.2904 43.1604C75.3693 44.2919 77.5944 45.134 80.2853 42.5814C86.7277 36.4498 94.2568 28.3446 94.3344 28.2656L96.2232 30.0814C96.1455 30.1604 88.5647 38.3183 82.0446 44.5025C78.1895 48.1604 74.5931 46.8183 71.3849 45.634C68.3836 44.5288 65.5375 43.4761 62.0188 45.9235C60.13 47.2656 57.6203 49.7656 42.5621 65.8446Z" fill="#231F20"/>
<path d="M96.5843 36.2127H93.997V30.318L87.6322 31.5285L87.1406 28.9233L96.5843 27.1338V36.2127Z" fill="#231F20"/>
</g>
<defs>
<clipPath id="clip0">
<rect width="60" height="83" fill="white" transform="translate(40.6992 27.1338)"/>
</clipPath>
</defs>
</svg>
