<svg width="1832" height="1227" viewBox="0 0 1832 1227" fill="none" xmlns="http://www.w3.org/2000/svg">
<path d="M1692.5 737.999C1926 1147 1378.01 1223.31 1312 1033C1273.5 922.001 1646.71 1046.57 1612.5 1158C1553.56 1349.96 1601.01 510.565 948.499 607.999C506.499 673.999 238 550 65 289.998" stroke="#091929" stroke-opacity="0.5" stroke-dasharray="4 6"/>
<g clip-path="url(#clip0_533:42)">
<path d="M1656.35 757.873C1666.26 755.038 1676.17 752.203 1686.07 749.443C1695.75 746.584 1705.39 743.758 1715.07 740.899C1718.41 739.92 1721.71 738.975 1725.49 737.852C1719.89 733.638 1714.71 729.698 1709.45 725.749C1705.68 722.948 1701.82 720.215 1698.09 717.305C1696.61 716.158 1695.84 716.228 1694.63 717.623C1691.77 720.825 1688.67 723.735 1685.75 726.854C1683.51 729.208 1681.5 727.051 1679.39 726.752C1676.38 726.089 1673.32 725.46 1670.28 724.68C1668.95 724.31 1668.21 724.422 1667.6 725.881C1663.57 736.084 1659.54 746.286 1655.48 756.447C1655.12 757.285 1654.55 758.292 1656.35 757.873Z" fill="black"/>
<path d="M1702.85 699.559C1701.16 700.103 1699.46 700.647 1697.8 701.157C1696.83 700.635 1695.91 701.032 1694.97 701.313C1687.19 703.46 1679.51 705.807 1671.81 707.962C1670.91 708.209 1670.17 708.665 1669.5 709.204C1661.6 711.527 1653.68 713.926 1645.73 716.283C1645.22 716.419 1644.74 716.597 1643.48 716.997C1655.91 720.106 1667.64 723.027 1679.37 725.947C1683.31 727.927 1685.63 725.431 1688.08 722.909C1696.24 714.326 1704.5 705.868 1712.95 697.124C1709.33 697.427 1706.22 699.116 1702.85 699.559Z" fill="black"/>
<path d="M1646.97 734.132C1647.98 737.515 1648.99 740.899 1650 744.283C1651.2 748.335 1652.41 752.387 1653.64 756.48C1653.83 756.538 1654.02 756.52 1654.2 756.578C1654.98 754.641 1655.76 752.78 1656.54 750.843C1659.86 742.586 1663.11 734.32 1666.51 726.07C1667.19 724.351 1666.9 723.826 1665.12 723.408C1658.28 721.843 1651.44 720.204 1644.66 718.455C1642.84 717.996 1642.67 718.474 1643.11 720.044C1644.4 724.715 1645.65 729.419 1646.97 734.132Z" fill="black"/>
<path d="M1714.6 696.957C1708.95 702.758 1703.59 708.324 1698.23 713.889C1697.5 714.612 1696.91 715.159 1698.22 716.098C1707.19 722.688 1716.08 729.346 1724.97 736.004C1725.07 736.054 1725.31 736.003 1725.84 735.983C1722.09 723.05 1718.4 710.2 1714.6 696.957Z" fill="black"/>
</g>
<path d="M1692.5 737.999C1926 1147 1378.01 1223.31 1312 1033C1273.5 922.001 1646.71 1046.57 1612.5 1158C1553.56 1349.96 1601.01 510.565 948.499 607.999C506.499 673.999 238 550 65 289.998" stroke="#091929" stroke-opacity="0.5" stroke-dasharray="4 6"/>
<g clip-path="url(#clip1_533:42)">
<path d="M1656.35 757.873C1666.26 755.038 1676.17 752.203 1686.07 749.443C1695.75 746.584 1705.39 743.758 1715.07 740.899C1718.41 739.92 1721.71 738.975 1725.49 737.852C1719.89 733.638 1714.71 729.698 1709.45 725.749C1705.68 722.948 1701.82 720.215 1698.09 717.305C1696.61 716.158 1695.84 716.228 1694.63 717.623C1691.77 720.825 1688.67 723.735 1685.75 726.854C1683.51 729.208 1681.5 727.051 1679.39 726.752C1676.38 726.089 1673.32 725.46 1670.28 724.68C1668.95 724.31 1668.21 724.422 1667.6 725.881C1663.57 736.084 1659.54 746.286 1655.48 756.447C1655.12 757.285 1654.55 758.292 1656.35 757.873Z" fill="black"/>
<path d="M1702.85 699.559C1701.16 700.103 1699.46 700.647 1697.8 701.157C1696.83 700.635 1695.91 701.032 1694.97 701.313C1687.19 703.46 1679.51 705.807 1671.81 707.962C1670.91 708.209 1670.17 708.665 1669.5 709.204C1661.6 711.527 1653.68 713.926 1645.73 716.283C1645.22 716.419 1644.74 716.597 1643.48 716.997C1655.91 720.106 1667.64 723.027 1679.37 725.947C1683.31 727.927 1685.63 725.431 1688.08 722.909C1696.24 714.326 1704.5 705.868 1712.95 697.124C1709.33 697.427 1706.22 699.116 1702.85 699.559Z" fill="black"/>
<path d="M1646.97 734.132C1647.98 737.515 1648.99 740.899 1650 744.283C1651.2 748.335 1652.41 752.387 1653.64 756.48C1653.83 756.538 1654.02 756.52 1654.2 756.578C1654.98 754.641 1655.76 752.78 1656.54 750.843C1659.86 742.586 1663.11 734.32 1666.51 726.07C1667.19 724.351 1666.9 723.826 1665.12 723.408C1658.28 721.843 1651.44 720.204 1644.66 718.455C1642.84 717.996 1642.67 718.474 1643.11 720.044C1644.4 724.715 1645.65 729.419 1646.97 734.132Z" fill="black"/>
<path d="M1714.6 696.957C1708.95 702.758 1703.59 708.324 1698.23 713.889C1697.5 714.612 1696.91 715.159 1698.22 716.098C1707.19 722.688 1716.08 729.346 1724.97 736.004C1725.07 736.054 1725.31 736.003 1725.84 735.983C1722.09 723.05 1718.4 710.2 1714.6 696.957Z" fill="black"/>
</g>
<path d="M1692.5 737.999C1926 1147 1378.01 1223.31 1312 1033C1273.5 922.001 1646.71 1046.57 1612.5 1158C1553.56 1349.96 1601.01 510.565 948.499 607.999C506.499 673.999 238 550 65 289.998" stroke="#091929" stroke-opacity="0.5" stroke-dasharray="4 6"/>
<g clip-path="url(#clip2_533:42)">
<path d="M1656.35 757.873C1666.26 755.038 1676.17 752.203 1686.07 749.443C1695.75 746.584 1705.39 743.758 1715.07 740.899C1718.41 739.92 1721.71 738.975 1725.49 737.852C1719.89 733.638 1714.71 729.698 1709.45 725.749C1705.68 722.948 1701.82 720.215 1698.09 717.305C1696.61 716.158 1695.84 716.228 1694.63 717.623C1691.77 720.825 1688.67 723.735 1685.75 726.854C1683.51 729.208 1681.5 727.051 1679.39 726.752C1676.38 726.089 1673.32 725.46 1670.28 724.68C1668.95 724.31 1668.21 724.422 1667.6 725.881C1663.57 736.084 1659.54 746.286 1655.48 756.447C1655.12 757.285 1654.55 758.292 1656.35 757.873Z" fill="black"/>
<path d="M1702.85 699.559C1701.16 700.103 1699.46 700.647 1697.8 701.157C1696.83 700.635 1695.91 701.032 1694.97 701.313C1687.19 703.46 1679.51 705.807 1671.81 707.962C1670.91 708.209 1670.17 708.665 1669.5 709.204C1661.6 711.527 1653.68 713.926 1645.73 716.283C1645.22 716.419 1644.74 716.597 1643.48 716.997C1655.91 720.106 1667.64 723.027 1679.37 725.947C1683.31 727.927 1685.63 725.431 1688.08 722.909C1696.24 714.326 1704.5 705.868 1712.95 697.124C1709.33 697.427 1706.22 699.116 1702.85 699.559Z" fill="black"/>
<path d="M1646.97 734.132C1647.98 737.515 1648.99 740.899 1650 744.283C1651.2 748.335 1652.41 752.387 1653.64 756.48C1653.83 756.538 1654.02 756.52 1654.2 756.578C1654.98 754.641 1655.76 752.78 1656.54 750.843C1659.86 742.586 1663.11 734.32 1666.51 726.07C1667.19 724.351 1666.9 723.826 1665.12 723.408C1658.28 721.843 1651.44 720.204 1644.66 718.455C1642.84 717.996 1642.67 718.474 1643.11 720.044C1644.4 724.715 1645.65 729.419 1646.97 734.132Z" fill="black"/>
<path d="M1714.6 696.957C1708.95 702.758 1703.59 708.324 1698.23 713.889C1697.5 714.612 1696.91 715.159 1698.22 716.098C1707.19 722.688 1716.08 729.346 1724.97 736.004C1725.07 736.054 1725.31 736.003 1725.84 735.983C1722.09 723.05 1718.4 710.2 1714.6 696.957Z" fill="black"/>
</g>
<path d="M1692.5 737.999C1926 1147 1378.01 1223.31 1312 1033C1273.5 922.001 1646.71 1046.57 1612.5 1158C1553.56 1349.96 1601.01 510.565 948.499 607.999C506.499 673.999 238 550 65 289.998" stroke="#091929" stroke-opacity="0.5" stroke-dasharray="4 6"/>
<g clip-path="url(#clip3_533:42)">
<path d="M1656.35 757.873C1666.26 755.038 1676.17 752.203 1686.07 749.443C1695.75 746.584 1705.39 743.758 1715.07 740.899C1718.41 739.92 1721.71 738.975 1725.49 737.852C1719.89 733.638 1714.71 729.698 1709.45 725.749C1705.68 722.948 1701.82 720.215 1698.09 717.305C1696.61 716.158 1695.84 716.228 1694.63 717.623C1691.77 720.825 1688.67 723.735 1685.75 726.854C1683.51 729.208 1681.5 727.051 1679.39 726.752C1676.38 726.089 1673.32 725.46 1670.28 724.68C1668.95 724.31 1668.21 724.422 1667.6 725.881C1663.57 736.084 1659.54 746.286 1655.48 756.447C1655.12 757.285 1654.55 758.292 1656.35 757.873Z" fill="black"/>
<path d="M1702.85 699.559C1701.16 700.103 1699.46 700.647 1697.8 701.157C1696.83 700.635 1695.91 701.032 1694.97 701.313C1687.19 703.46 1679.51 705.807 1671.81 707.962C1670.91 708.209 1670.17 708.665 1669.5 709.204C1661.6 711.527 1653.68 713.926 1645.73 716.283C1645.22 716.419 1644.74 716.597 1643.48 716.997C1655.91 720.106 1667.64 723.027 1679.37 725.947C1683.31 727.927 1685.63 725.431 1688.08 722.909C1696.24 714.326 1704.5 705.868 1712.95 697.124C1709.33 697.427 1706.22 699.116 1702.85 699.559Z" fill="black"/>
<path d="M1646.97 734.132C1647.98 737.515 1648.99 740.899 1650 744.283C1651.2 748.335 1652.41 752.387 1653.64 756.48C1653.83 756.538 1654.02 756.52 1654.2 756.578C1654.98 754.641 1655.76 752.78 1656.54 750.843C1659.86 742.586 1663.11 734.32 1666.51 726.07C1667.19 724.351 1666.9 723.826 1665.12 723.408C1658.28 721.843 1651.44 720.204 1644.66 718.455C1642.84 717.996 1642.67 718.474 1643.11 720.044C1644.4 724.715 1645.65 729.419 1646.97 734.132Z" fill="black"/>
<path d="M1714.6 696.957C1708.95 702.758 1703.59 708.324 1698.23 713.889C1697.5 714.612 1696.91 715.159 1698.22 716.098C1707.19 722.688 1716.08 729.346 1724.97 736.004C1725.07 736.054 1725.31 736.003 1725.84 735.983C1722.09 723.05 1718.4 710.2 1714.6 696.957Z" fill="black"/>
</g>
<g clip-path="url(#clip4_533:42)">
<path d="M52.7677 301.455C57.4294 300.254 62.091 299.052 66.748 297.885C71.3043 296.67 75.8408 295.469 80.3972 294.253C81.971 293.838 83.5249 293.437 85.3034 292.959C82.7373 290.922 80.3676 289.018 77.9628 287.109C76.2337 285.754 74.4648 284.43 72.7604 283.025C72.0847 282.471 71.7243 282.494 71.1389 283.131C69.7643 284.591 68.2833 285.912 66.8784 287.332C65.8059 288.404 64.8908 287.371 63.9129 287.206C62.5129 286.859 61.093 286.527 59.6825 286.126C59.065 285.936 58.7198 285.98 58.4151 286.654C56.4073 291.368 54.3994 296.083 52.3764 300.778C52.1994 301.165 51.923 301.629 52.7677 301.455Z" fill="black"/>
<path d="M75.2044 274.798C74.4052 275.031 73.606 275.265 72.8267 275.482C72.3789 275.226 71.9447 275.401 71.5001 275.52C67.8424 276.427 64.2256 277.428 60.603 278.339C60.1783 278.444 59.8295 278.647 59.5111 278.891C55.789 279.878 52.0622 280.9 48.3202 281.903C48.0804 281.96 47.8557 282.038 47.2613 282.209C53.0284 283.814 58.4693 285.323 63.9102 286.832C65.7261 287.805 66.8431 286.668 68.015 285.52C71.9326 281.613 75.8957 277.765 79.9478 273.786C78.2561 273.883 76.7803 274.633 75.2044 274.798Z" fill="black"/>
<path d="M48.682 290.254C49.1112 291.846 49.5404 293.439 49.9695 295.031C50.4815 296.939 50.9935 298.846 51.5207 300.773C51.6061 300.802 51.6961 300.796 51.7815 300.825C52.1695 299.931 52.5527 299.071 52.9407 298.176C54.5957 294.361 56.2155 290.541 57.9056 286.73C58.2443 285.936 58.117 285.687 57.289 285.469C54.1123 284.654 50.9404 283.804 47.7931 282.904C46.9499 282.667 46.8666 282.888 47.0532 283.627C47.5977 285.824 48.1223 288.037 48.682 290.254Z" fill="black"/>
<path d="M80.7236 273.729C78.0121 276.368 75.4399 278.901 72.8676 281.434C72.5199 281.762 72.2366 282.01 72.8364 282.465C76.9446 285.654 81.0129 288.873 85.0813 292.092C85.1316 292.116 85.2416 292.095 85.492 292.093C83.8978 286.007 82.334 279.96 80.7236 273.729Z" fill="black"/>
</g>
<defs>
<clipPath id="clip0_533:42">
<rect width="84.8189" height="67.6838" fill="white" transform="matrix(-0.778154 0.628073 0.628073 0.778154 1696.34 674.332)"/>
</clipPath>
<clipPath id="clip1_533:42">
<rect width="84.8189" height="67.6838" fill="white" transform="matrix(-0.778154 0.628073 0.628073 0.778154 1696.34 674.332)"/>
</clipPath>
<clipPath id="clip2_533:42">
<rect width="84.8189" height="67.6838" fill="white" transform="matrix(-0.778154 0.628073 0.628073 0.778154 1696.34 674.332)"/>
</clipPath>
<clipPath id="clip3_533:42">
<rect width="84.8189" height="67.6838" fill="white" transform="matrix(-0.778154 0.628073 0.628073 0.778154 1696.34 674.332)"/>
</clipPath>
<clipPath id="clip4_533:42">
<rect width="39.625" height="31.6199" fill="white" transform="matrix(-0.794489 0.607278 0.607278 0.794489 72.4746 262.936)"/>
</clipPath>
</defs>
</svg>
