<svg width="146" height="146" viewBox="0 0 146 146" fill="none" xmlns="http://www.w3.org/2000/svg">
<rect opacity="0.5" x="0.914062" y="0.704102" width="145" height="145" rx="50" fill="#F2F2C5"/>
<path d="M98.477 68.4752C96.5836 82.7375 78.4593 94.526 72.4262 94.526C66.3931 94.526 46.3755 82.8626 46.3755 68.4752C45.2915 54.3467 56.781 45.4591 72.4262 57.599C90.5991 44.5921 99.9208 57.599 98.477 68.4752Z" fill="#E83F3C"/>
<g style="mix-blend-mode:hard-light">
<path d="M48.9795 83.5626C48.4823 83.5717 48.082 83.9775 48.082 84.4765V101.381C48.082 101.633 48.2868 101.838 48.539 101.838H52.8747C53.2842 101.838 53.6424 101.567 53.7539 101.174L57.799 86.9204C58.0604 85.9991 57.5669 85.0304 56.6657 84.7032C55.0097 84.1 52.4689 83.5041 48.9795 83.5626Z" fill="#090909"/>
<path d="M88.2947 93.6123C84.6389 93.6123 77.3274 98.2387 73.6717 98.2387C70.0159 98.2387 65.9032 95.4402 65.9032 95.4402C65.9032 95.4402 70.8275 96.3541 73.6717 96.3541C76.5158 96.3541 77.3274 95.3835 77.3274 94.0693C77.3274 90.8705 71.895 90.3733 69.1458 89.9547C66.4479 88.4522 65.0459 87.2641 60.5768 86.8857C60.5512 87.1471 60.5109 87.4067 60.4378 87.6644L56.7656 100.606C60.924 102.498 68.0857 105.494 71.8438 105.494C77.3274 105.494 91.9504 98.182 91.9504 96.3541C91.9504 94.5263 90.1226 93.6123 88.2947 93.6123Z" fill="#090909"/>
</g>
</svg>
