<svg width="154" height="144" viewBox="0 0 154 144" fill="none" xmlns="http://www.w3.org/2000/svg">
<path fill-rule="evenodd" clip-rule="evenodd" d="M74.4756 0.524526C90.3813 1.10449 98.0382 20.2191 111.146 29.2478C124.781 38.6396 148.642 38.2597 152.599 54.3365C156.631 70.7205 135.695 82.1277 127.834 97.0575C121.816 108.488 121.917 123.093 112.023 131.4C101.823 139.963 87.7437 140.706 74.4756 141.857C59.9247 143.12 43.3363 147.408 31.8749 138.355C20.4519 129.333 23.4734 111.595 18.7368 97.8309C13.8767 83.7082 0.31708 71.2796 3.79367 56.7543C7.29717 42.1166 24.0308 35.8711 35.8094 26.5008C48.2653 16.5917 58.5694 -0.0554519 74.4756 0.524526Z" fill="#9BF9EF"/>
<path d="M29.7795 54.6347C29.5979 54.6507 29.4267 54.8686 29.2026 54.6823L29.3128 54.5748C29.1146 54.4588 29.0513 54.2654 29.0182 54.0771C28.7983 53.8171 28.5765 53.5773 28.3813 53.3176C28.1766 53.0453 27.9974 52.7539 27.8021 52.4633L27.9505 52.3309C27.5248 52.304 27.2974 52.0294 27.1046 51.7529L26.7746 51.8763C26.77 51.9156 26.7654 51.9547 26.7582 52.0167C26.8585 52.0484 26.9636 52.0815 27.0984 52.124C27.0228 52.4017 27.1892 52.5752 27.3919 52.7485L27.5995 52.636C27.6235 52.9428 27.7631 53.2289 27.99 53.4367C28.4821 53.904 28.8 54.5083 29.1082 55.1083C29.1595 55.2083 29.1465 55.3416 29.1791 55.5706L29.4722 55.1777L29.2167 54.9378C29.4562 54.8827 29.6317 54.8424 29.8069 54.8021L30.0651 55.4642L29.9449 55.5849C30.1907 56.0471 30.1182 56.5757 30.1806 57.0995L30.0215 57.3371L29.7567 57.3062L29.6803 57.5703C29.8351 57.531 29.9305 57.5068 30.0288 57.4819C30.0571 57.5176 30.0939 57.5642 30.1295 57.6091C30.1056 57.9019 29.8166 57.9103 29.6175 58.087C29.7385 58.1224 29.8343 58.1504 29.9676 58.1894C29.9972 58.538 29.7009 58.7672 29.6167 59.0681C29.4982 59.0669 29.4042 59.066 29.1918 59.0639C29.355 59.1741 29.4464 59.2358 29.4844 59.2614L29.424 59.7783C29.3533 59.7262 29.3049 59.6906 29.2003 59.6136L29.2462 59.982C29.2647 59.9315 29.2603 59.9616 29.2446 59.9838C28.979 60.359 28.7311 60.7491 28.4408 61.104C28.0513 61.5878 27.5858 62.005 27.0624 62.3393C26.6186 62.6178 26.121 62.809 25.688 63.1138C25.6008 63.1754 25.483 63.1936 25.373 63.2341C25.3617 63.2198 25.3372 63.1887 25.2813 63.1177C25.2323 63.2043 25.1624 63.2773 25.0779 63.3299C24.9934 63.3824 24.897 63.413 24.7976 63.4187C24.1191 63.4942 24.1187 63.4902 23.8737 63.3407L23.2168 63.5131L23.0986 63.1863L22.883 63.2898C22.4209 63.147 21.9943 63.015 21.5604 62.8808L21.5623 62.5745C21.1635 62.5524 20.9484 62.2535 20.696 61.9176L20.474 62.2256L20.1735 61.9846L20.4296 61.9296C20.4004 61.8269 20.402 61.6832 20.331 61.6098C20.0939 61.3695 19.8438 61.1423 19.582 60.9292C19.5162 60.8747 19.4038 60.8762 19.3806 60.87C19.2191 60.6393 19.1275 60.3939 18.9513 60.2787C18.4699 59.9642 18.3135 59.4495 18.0604 58.9925C17.9949 58.8596 17.9363 58.7235 17.8847 58.5846C17.939 58.5721 18.01 58.5552 18.0861 58.5375C18.0769 58.5087 18.0686 58.4558 18.0579 58.4553C17.8929 58.4461 17.7383 58.4247 17.6777 58.1677L17.7177 57.8245L17.2599 57.3485L17.4096 56.9943C17.0231 56.7549 16.982 56.3047 16.8548 55.8881L16.9872 55.7571L16.6833 55.3522L16.7377 54.8861C16.5395 54.7595 16.3785 54.6213 16.5356 54.3616L16.2106 53.737L15.4214 54.8146L15.5038 54.9637L15.3146 55.3831L15.1858 55.3681C15.1728 55.3967 15.1444 55.4416 15.1513 55.4476C15.2819 55.5658 15.215 55.7112 15.1887 55.8351C15.1547 55.9961 15.0701 56.1458 15.0228 56.305C14.9795 56.4511 14.9918 56.6248 14.9166 56.7482C14.8137 56.9175 14.9616 57.0473 14.9362 57.212C14.9079 57.3951 14.7602 57.5454 14.8235 57.7671C14.8737 57.9428 14.8062 58.1545 14.7808 58.3488C14.7012 58.9541 14.7985 59.5463 14.8956 60.1403C14.9552 60.5048 14.9669 60.8788 15.0484 61.2375C15.1705 61.8096 15.3259 62.3741 15.5137 62.9281C15.605 63.1861 15.5476 63.5012 15.7896 63.7067C15.8641 63.7699 15.7572 63.9575 15.9611 63.9552C15.9949 63.9548 16.0206 64.1127 16.0677 64.1861C16.1317 64.2854 16.219 64.3695 16.2848 64.4679C16.4086 64.6531 16.524 64.8438 16.672 65.0782L16.2093 65.0242C16.1074 64.7811 16.1074 64.7811 15.6389 64.5094L15.6047 64.8018C15.9317 64.9688 16.0628 65.3439 16.3391 65.5927L16.1518 65.7318L15.7585 65.4789C15.7546 65.5459 15.7212 65.6367 15.7523 65.6749C15.8407 65.7836 15.9555 65.8708 16.1292 66.0298C15.9551 66.058 15.8581 66.0738 15.7398 66.0929L15.426 66.4568L15.2867 65.933C15.1837 65.9516 15.0643 65.9731 14.9183 65.9994L14.6525 65.5243L14.4505 65.8039L14.204 65.4764L14.4158 65.184C14.2309 65.2083 14.1348 65.221 14.0457 65.2326L13.9433 65.0372C13.9566 65.0361 14.0116 65.0312 14.1118 65.0224L13.7925 64.4016C13.7344 64.443 13.689 64.4755 13.7064 64.4631L13.3421 64.1299L13.5256 63.9548C13.4212 63.8777 13.3169 63.8005 13.2101 63.7214L13.2477 63.3998C13.0795 63.0663 12.9043 62.7758 12.7844 62.4638C12.6772 62.1854 12.8234 61.8477 12.5972 61.5562L12.8814 61.3451L12.8979 60.9872L12.6936 61.3181C12.5492 60.9145 12.1957 60.5695 12.5195 60.1109L12.3384 59.8818L12.4818 59.7474C12.3421 59.4961 12.3378 59.2304 12.5743 58.9841L12.3365 58.6425L12.4812 58.3167C12.4686 58.2875 12.4109 58.2175 12.4209 58.1596C12.4322 58.0957 12.5259 58.0494 12.5478 57.9834C12.5706 57.8873 12.5837 57.7891 12.587 57.6903C12.588 57.6112 12.5986 57.5326 12.6187 57.4561C12.6443 57.3898 12.7047 57.3367 12.7724 57.2484C12.4439 56.885 12.946 56.639 12.8648 56.1871L13.2749 56.5592C13.3861 56.4647 13.2813 56.2154 13.0234 55.9797L13.2162 55.9615C13.4136 55.7983 13.1966 55.6234 13.2041 55.445L13.468 55.2239L13.3631 55.0724C13.4317 55.0618 13.4861 55.0534 13.5793 55.0389C13.7383 54.6631 13.9065 54.2582 14.0945 53.8632C14.123 53.7927 14.169 53.7307 14.2281 53.6828C14.2872 53.635 14.3575 53.6029 14.4323 53.5897C14.4544 53.4273 14.4219 53.2353 14.5031 53.14C14.9532 52.6114 15.4327 52.1079 15.8975 51.5917C15.9699 51.5109 16.0163 51.4067 16.0811 51.3181C16.1586 51.2124 16.2432 51.1119 16.3347 50.9963C16.2928 50.9773 16.231 50.9491 16.1265 50.9017C16.1971 50.6052 16.1108 50.2666 16.356 49.992L16.1951 49.5691C16.4799 49.2502 16.2215 48.7492 16.4995 48.4337L16.434 48.0356C16.531 48.0145 16.6024 47.999 16.6786 47.9825C16.5743 47.7436 16.6586 47.554 16.7655 47.3243C16.8664 47.1075 16.8723 46.8473 17.0932 46.6885C17.0725 46.6577 17.0519 46.627 17.0086 46.5632L17.1464 46.4163L17.0808 46.2323C17.173 45.982 17.2503 45.7216 17.3631 45.4778C17.5936 44.9793 17.6912 44.4215 18.0632 43.9831C18.1886 43.8355 18.2444 43.6237 18.3134 43.4344C18.7181 42.3247 19.4251 41.4082 20.165 40.5111C20.5788 40.0036 21.0573 39.5526 21.5884 39.1695C21.7634 39.0444 21.9608 38.9232 22.0781 38.7519C22.2058 38.5656 22.4208 38.5598 22.5661 38.4112C22.9587 38.0098 23.4924 37.8083 23.9642 37.5205C24.4294 37.2473 24.9128 37.0064 25.411 36.7995C25.9321 36.5728 26.4573 36.3232 27.0069 36.2046C27.525 36.093 28.0273 35.8774 28.5722 35.8862C28.6385 35.8873 28.7089 35.7939 28.7723 35.8C29.1327 35.8345 29.4711 35.6852 29.8227 35.6841C30.078 35.6833 30.3336 35.7377 30.6329 35.7727L30.8928 36.1553L30.655 36.7175C30.5752 36.7259 30.5204 36.7316 30.4614 36.7378L30.4343 36.9695C30.2801 37.0623 30.1463 37.1707 29.9936 37.2271C29.8395 37.2904 29.673 37.3179 29.5067 37.3075C28.9283 37.24 28.4218 37.5147 27.8859 37.634C27.4966 37.7208 27.1167 37.8629 26.7232 37.954C26.5115 38.0029 26.3179 38.1334 26.1195 38.2348C25.6723 38.4631 25.2014 38.6421 24.7686 38.9015C24.5297 39.0447 24.256 39.1325 24.0259 39.2869C23.526 39.6225 23.028 39.9646 22.5581 40.3402C21.5673 41.1319 20.826 42.1425 20.1566 43.2054C20.0118 43.4353 19.9405 43.7141 19.8507 43.976C19.731 44.3253 19.4725 44.6092 19.3928 44.977C19.2778 45.5082 18.9681 45.977 18.9048 46.5281C18.8814 46.7279 18.7811 46.918 18.7245 47.115C18.6679 47.312 18.7375 47.5354 18.5458 47.712C18.4805 47.7722 18.5222 47.9683 18.5423 48.0978C18.601 48.4723 18.5619 48.736 18.3746 49.0765L18.4929 49.3005C18.4408 49.3511 18.3906 49.4047 18.3354 49.4522C18.2912 49.4903 18.241 49.5214 18.2114 49.5426L18.5097 49.8937C18.7351 49.8167 19.0072 49.7131 19.2858 49.6315C19.5663 49.5494 19.8578 49.503 20.1362 49.4158C20.4231 49.3215 20.7216 49.2672 21.0234 49.2544L21.1771 49.1328C21.3973 49.1585 21.6307 49.1955 21.8654 49.2098C22.0315 49.22 22.2018 49.317 22.3701 49.1667C22.4198 49.1221 22.5834 49.142 22.6511 49.1918C22.9562 49.4164 23.3192 49.3503 23.6536 49.4234C23.95 49.4882 24.2427 49.5672 24.4306 49.8736C24.6906 49.8764 24.9441 49.9549 25.1602 50.0993C25.3083 50.2023 25.5408 50.2149 25.6452 50.3421C25.7803 50.5069 25.9639 50.472 26.0974 50.5553C26.3804 50.7318 26.7633 50.82 26.8078 51.278L27.055 51.132L27.2661 51.5118C27.3302 51.5456 27.49 51.63 27.7382 51.7611C27.9541 51.9926 28.3144 52.2624 28.51 52.6218C28.7025 52.9753 28.9975 53.2268 29.2023 53.5523C29.4197 53.8973 29.5892 54.2728 29.7795 54.6347ZM27.4436 59.4658C27.6426 59.3591 27.7961 59.2768 27.9446 59.1968L27.6829 58.947C27.823 58.8983 27.9071 58.869 28.0037 58.8353C27.9189 58.7829 27.8435 58.7363 27.773 58.6926L27.7904 58.5434C27.8982 58.5371 28.0083 58.531 28.1387 58.5235L28.1974 58.021C28.5658 57.8792 28.7141 57.668 28.5613 57.5339C28.5115 57.5655 28.4653 57.6148 28.4135 57.6216C28.3658 57.6279 28.3121 57.5885 28.2055 57.5482C28.336 57.4168 28.4553 57.3239 28.5357 57.205C28.5814 57.1374 28.5633 57.0269 28.5784 56.8978L28.34 57.0338C28.0699 56.7532 28.0693 56.7529 28.2537 56.4935C28.2132 56.3804 28.205 56.2386 28.1323 56.1848C28.0416 56.118 27.9051 56.1185 27.9771 55.9637C28.0742 55.9183 28.1631 55.877 28.2981 55.8142C28.0633 55.5881 27.8757 55.4073 27.6882 55.2265L27.8431 55.0865L27.5248 54.8352L27.3813 54.4016L27.2289 54.4962L27.1021 53.7663L26.9784 53.8548C26.7269 53.72 26.4846 53.5901 26.1919 53.4332C26.2961 53.9124 26.7448 54.026 26.9287 54.3629C27.1126 54.6999 27.3462 55.0084 27.5804 55.3637L27.3158 55.3328C27.1486 55.0967 26.9811 54.9268 26.8963 54.7225C26.8071 54.5077 26.5705 54.4252 26.5045 54.2181C26.4304 53.9852 26.2032 53.9228 26.0639 53.766C25.8329 53.506 25.441 53.3821 25.3982 52.9809C25.0719 52.9014 24.7857 52.7776 24.5714 52.5056L24.1182 52.4527L24.0638 52.2259C23.9019 52.3177 23.7527 52.3842 23.6075 52.2073C23.5104 52.091 23.3889 51.9976 23.2515 51.9338C23.1141 51.87 22.9643 51.8374 22.8128 51.8382C22.5736 51.8308 22.3832 51.7035 22.1676 51.6421C22.0057 51.5959 21.8153 51.6379 21.6976 51.4666C21.6883 51.4529 21.6281 51.4743 21.5917 51.4794L21.4956 51.6751C21.4407 51.6229 21.3791 51.5783 21.3125 51.5423C21.237 51.5179 21.1576 51.508 21.0784 51.5134C21.0002 51.5159 20.9216 51.5544 20.845 51.5491C20.7787 51.5446 20.7049 51.4655 20.6515 51.4805C20.3438 51.5676 20.0324 51.5803 19.7155 51.6047C19.3287 51.6387 18.9575 51.773 18.6383 51.9941C18.6503 52.4424 18.8426 52.7857 18.8741 53.1853C18.9076 53.6096 19.1512 54.0133 19.2654 54.4362C19.4818 55.2374 20.0025 55.9212 20.1442 56.7504C20.155 56.8132 20.2439 56.8629 20.2968 56.918C20.3473 56.9581 20.3915 57.0055 20.4282 57.0586C20.7868 57.783 21.2338 58.4603 21.7588 59.075C22.039 59.412 22.3708 59.685 22.712 59.9539C22.9011 60.1031 23.1467 60.1862 23.2983 60.3585C23.5687 60.6657 23.945 60.7319 24.2876 60.8355C24.6601 60.9482 25.0679 60.9728 25.4613 60.9798C25.8689 60.9786 26.2688 60.8685 26.6194 60.6607C26.7248 60.6013 26.7723 60.4455 26.8737 60.371C26.9752 60.2965 27.1097 60.2681 27.2466 60.2129L27.1425 60.05L27.4012 59.8336L27.4436 59.4658Z" fill="black"/>
<g clip-path="url(#clip0)">
<path d="M137.219 58.8692C136.563 59.277 136.909 60.1378 136.738 60.8906C136.654 61.2058 136.569 61.5211 136.485 61.8363C136.364 61.8346 136.271 61.8405 136.15 61.8388C136.038 61.3481 135.891 60.8785 135.864 60.4106C135.786 58.2087 135.828 56.0085 135.714 53.8276C135.668 52.8632 135.445 51.8818 135.214 50.9292C134.851 49.4496 133.358 48.8961 132.178 48.7642C131.972 48.7396 131.741 48.9233 131.468 49.0345C131.158 48.4907 130.637 48.5048 130.066 48.5974C129.623 48.663 129.18 48.7286 128.747 48.6433C128.512 48.6112 128.355 48.2925 128.158 48.1171C128.346 47.9831 128.5 47.748 128.694 47.7076C129.623 47.5266 130.566 47.4106 131.516 47.2659C134.79 46.73 136.74 43.8737 136.964 40.7699C137.082 39.0814 137.144 37.3777 137.298 35.6681C137.318 35.3663 137.621 35.1405 137.812 34.8843C137.92 35.1592 138.101 35.3919 138.117 35.6726C138.264 37.2786 138.246 38.9325 138.558 40.4905C139.07 43.1158 141.22 45.412 144.129 46.0073C144.299 46.0529 144.493 46.0125 144.619 46.1078C144.9 46.306 145.138 46.5539 145.383 46.7732C145.136 47.0142 144.93 47.3277 144.65 47.4675C143.556 48.0345 142.366 48.3916 141.363 49.0749C138.808 50.7862 137.519 53.3283 137.14 56.3292C137.104 56.6883 137.033 57.0685 137.026 57.4352C137.06 57.8744 137.159 58.3002 137.219 58.8692ZM133.145 47.7638C134.303 48.3198 135.54 48.8049 135.97 50.1488C136.317 51.3477 136.564 52.581 136.813 53.6922C137.262 52.2458 137.945 50.8314 139.12 49.7334C140.288 48.664 141.566 47.7472 142.652 46.8709C141.809 46.2763 140.751 45.6858 139.97 44.862C139.159 44.0305 138.596 42.958 137.901 42.0347C136.655 45.3254 136.48 45.5242 133.145 47.7638Z" fill="#020A13"/>
</g>
<path d="M25.2897 120.785C25.8832 119.059 25.6204 117.299 25.3273 115.43C26.0787 115.688 26.7453 115.865 27.3987 115.49C28.1477 115.072 27.7834 114.267 28.0172 113.654C28.5479 113.917 29.024 114.21 29.5258 114.419C30.5986 114.848 31.1693 114.476 31.1833 113.33C31.195 112.668 31.0696 112.036 30.8889 111.405C29.8802 107.883 28.3116 104.609 26.2929 101.552C26.1504 101.362 26.0558 100.868 25.7031 101.125C25.405 101.352 25.7977 101.619 25.955 101.85C27.7324 104.622 29.1686 107.555 30.1957 110.69C30.4785 111.553 30.7067 112.445 30.7009 113.355C30.6954 113.701 30.6662 114.212 30.1523 114.072C29.1245 113.793 27.9709 113.448 27.5321 112.41C26.6243 110.224 25.4588 108.223 24.0752 106.338C23.1051 105.009 22.1747 103.61 20.7321 102.72C20.3817 102.494 20.0192 102.337 19.6524 102.58C19.2581 102.824 19.2821 103.251 19.3465 103.636C19.4618 104.42 19.8234 105.115 20.2395 105.781C21.9751 108.541 24.3724 110.692 26.8094 112.772C27.3729 113.256 27.7174 114.393 27.3142 114.844C26.736 115.479 26.1092 115.231 25.4655 114.86C25.1017 114.648 24.8751 114.405 24.7004 114.023C24.0599 112.631 23.1611 111.397 22.1404 110.262C21.9986 110.1 21.8137 109.87 21.5835 110.054C21.4213 110.196 21.5786 110.427 21.6653 110.591C22.1606 111.683 22.6982 112.815 23.5461 113.651C25.1431 115.227 25.2438 117.129 25.1264 119.146C25.0978 119.685 25 120.212 24.9574 120.737C25.0549 120.776 25.1652 120.774 25.2897 120.785ZM20.1425 104.611C20.1277 104.57 20.1136 104.556 20.0988 104.515C19.9773 104.049 19.4804 103.467 19.9959 103.096C20.4845 102.753 20.8582 103.379 21.183 103.689C23.626 106.018 25.3636 108.86 26.7069 111.947C24.1037 109.842 21.7179 107.595 20.1425 104.611Z" fill="#020A13"/>
<g clip-path="url(#clip1)">
<path d="M109.093 86.5274C108.763 86.2854 108.806 86.1289 109.108 85.8442C114.596 80.3789 116.493 73.8603 114.74 66.3882C112.498 56.7669 102.844 50.1487 93.1026 51.5435C86.7379 52.4544 81.9967 55.5713 78.8215 60.7093C78.8789 60.6382 78.9508 60.5528 79.0083 60.4816C79.7697 59.6134 80.7467 59.0441 81.853 58.8448C84.4535 55.9698 87.916 53.8634 91.7089 53.0806C102.197 50.9172 112.082 57.9909 113.748 68.0676C114.826 74.572 112.944 80.1796 108.26 84.8622C107.901 85.2322 107.728 85.1753 107.384 84.8337C102.542 79.9519 97.7001 75.0701 92.844 70.2025C92.7003 70.6295 92.4991 71.0422 92.2549 71.4408C96.1628 75.3974 100.085 79.3257 104.007 83.2681C105.329 84.606 106.651 85.9439 107.987 87.2817C108.203 87.4952 108.389 87.6376 108.059 87.9507C106.507 89.4736 104.999 91.0107 103.461 92.5478C103.361 92.6475 103.26 92.7328 103.131 92.8325C102.987 92.7044 102.887 92.619 102.786 92.5194C98.5334 88.2496 94.2807 83.9798 90.028 79.6957C89.1228 78.7848 88.2033 77.8597 87.2982 76.9488C86.9965 77.2192 86.6517 77.4612 86.2781 77.632C86.0195 77.7458 85.7609 77.8312 85.4879 77.8882C83.9937 79.3541 82.5426 80.8486 81.0771 82.343C80.8904 82.5423 80.6892 82.6703 80.4306 82.713C80.3875 82.77 80.3588 82.8269 80.3157 82.8838C80.1002 83.2254 79.8559 83.567 79.5973 83.8659C79.5111 83.9513 79.4249 84.0367 79.3387 84.1221L79.468 84.2786C78.8789 84.7768 78.2324 85.2465 77.6865 85.7873C74.3676 89.1035 71.0631 92.434 67.7443 95.7644C67.0403 96.476 67.0403 96.6611 67.7587 97.3869C70.9195 100.561 74.0659 103.735 77.2267 106.909C77.9451 107.634 78.175 107.62 78.8358 106.852C80.3444 105.087 80.8904 103.037 80.6461 100.774C80.6174 100.475 80.603 100.248 80.8473 100.006C82.0541 98.8102 83.2322 97.6147 84.4247 96.4049C84.6115 96.2199 84.7121 96.0348 85.0282 96.3479C88.5625 99.9204 92.0969 103.493 95.6599 107.037C96.0048 107.378 95.976 107.563 95.6456 107.862C94.8985 108.56 94.1657 109.271 93.4905 110.04C93.0738 110.524 92.844 110.41 92.4704 110.011C91.0193 108.503 89.5395 107.022 88.0596 105.528C87.801 105.272 87.5424 105.016 87.1258 105.258C86.666 105.528 86.6373 105.983 87.0827 106.439C88.2033 107.578 89.3096 108.716 90.459 109.841C90.7751 110.154 90.7751 110.339 90.4734 110.623C89.755 111.306 89.0223 112.004 88.347 112.744C88.0309 113.1 87.8872 112.972 87.6286 112.701C86.5223 111.563 85.3873 110.438 84.2523 109.3C83.9793 109.015 83.6633 108.844 83.3041 109.072C82.8443 109.371 82.8587 109.769 83.2466 110.139C84.1086 111.008 84.9419 111.876 85.8184 112.716C86.1488 113.043 86.1488 113.242 85.804 113.555C85.1862 114.11 84.5828 114.708 84.0512 115.334C83.6489 115.804 83.4046 115.676 83.0598 115.306C82.2984 114.48 81.5082 113.698 80.7323 112.886C80.4881 112.63 80.2151 112.431 79.8416 112.573C79.3531 112.744 79.2525 113.313 79.6548 113.74C80.0714 114.196 80.5168 114.637 80.9766 115.05C81.2496 115.292 81.2783 115.448 80.9909 115.719C80.0714 116.615 79.1663 117.526 78.2612 118.451C78.0313 118.679 77.8876 118.75 77.629 118.48C76.3216 117.099 76.379 117.597 77.5572 116.373C78.2468 115.662 78.2468 115.505 77.5572 114.808C73.0458 110.268 68.5201 105.727 64.0088 101.173C63.2042 100.376 63.1037 100.376 62.2991 101.187C61.5376 101.956 61.5376 101.956 60.7618 101.187C58.6929 99.1091 56.6384 97.0169 54.5551 94.9531C54.2103 94.6116 54.2247 94.4265 54.5695 94.1277C54.9287 93.8145 55.2447 93.4587 55.5752 93.1029C56.4372 92.1778 57.3136 91.5373 58.7073 91.3096C61.9974 90.7972 64.1668 88.1072 64.368 84.7341C64.3967 84.3783 64.4829 84.1078 64.7415 83.8659C65.934 82.6988 67.1121 81.5175 68.2759 80.322C68.2759 80.322 68.2759 80.322 68.2903 80.3077C67.9454 80.0231 67.5863 79.7526 67.2271 79.468C66.1208 80.5354 65.1294 81.5033 64.1237 82.4569C63.3623 80.0515 61.7244 78.4005 59.0521 77.5323C60.2158 76.408 61.3077 75.3832 62.3709 74.33C62.3709 74.33 62.3853 74.33 62.3853 74.3158C62.3135 74.2446 62.256 74.1877 62.1698 74.1165C62.2991 74.2019 62.2704 74.1734 62.0836 74.0596C61.825 73.8746 61.6095 73.6611 61.4514 73.4049C61.4227 73.4476 61.3796 73.4903 61.3365 73.533C60.1584 74.6431 59.0377 75.8244 57.9171 76.9773C57.6728 77.2335 57.4142 77.3473 57.055 77.3616C53.4776 77.4754 50.5035 80.4074 50.3455 83.9655C50.3311 84.421 50.1875 84.7625 49.8426 85.0757C49.0812 85.8015 48.3628 86.5559 47.6157 87.296C47.4433 87.4668 47.314 87.6376 47.0554 87.3671C45.0296 85.2038 42.7308 83.2966 41.1792 80.692C34.6421 69.6901 41.2079 55.2013 53.8224 52.8956C60.7618 51.6289 67.6006 54.5181 71.7097 59.713C72.3418 59.6419 73.0027 59.8838 73.4194 60.5955C73.4481 60.6524 73.4768 60.6809 73.4912 60.7093C73.563 60.7805 73.6205 60.8517 73.6924 60.9228C73.8504 61.0651 73.9941 61.2075 74.1521 61.3498C74.2958 61.4779 74.4395 61.606 74.5831 61.7341C70.4597 54.02 61.5233 49.7786 52.6443 51.8281C43.3917 54.0484 36.8402 62.83 37.4006 72.2663C37.6879 76.9773 39.3114 81.1332 42.4722 84.6487C44.2538 86.627 46.2077 88.4346 48.0036 90.3987C49.8714 92.4197 51.8541 94.3411 53.9086 96.1914C55.8913 97.9705 57.6872 99.963 59.5693 101.856C60.6612 102.952 60.6756 102.952 59.5693 104.048C58.7791 104.831 58.7791 104.944 59.598 105.77C62.3566 108.545 65.1007 111.321 67.8449 114.082C69.6408 115.889 71.4367 117.697 73.2326 119.505C73.7642 120.031 74.0372 120.017 74.5544 119.505C74.8274 119.234 75.1147 118.978 75.359 118.693C75.6176 118.38 75.79 118.451 76.0342 118.722C76.4509 119.177 76.9106 119.59 77.3273 120.045C77.787 120.558 78.1893 120.515 78.6491 120.031C79.626 119.021 80.6605 118.067 81.6087 117.028C82.0972 116.501 82.3989 116.402 82.9162 117C83.4765 117.654 83.692 117.626 84.3098 117C85.1575 116.16 86.0051 115.32 86.8241 114.466C87.0683 114.21 87.2263 114.153 87.4993 114.438C87.9016 114.879 88.3039 114.722 88.6631 114.352C89.5538 113.456 90.459 112.573 91.3067 111.648C91.6658 111.264 91.867 111.221 92.2262 111.662C92.7865 112.345 93.0882 112.317 93.6916 111.719C94.8697 110.538 96.0479 109.371 97.226 108.175C97.815 107.578 97.815 107.364 97.2116 106.766C96.091 105.628 94.9847 104.489 93.8353 103.379C93.4761 103.023 93.5192 102.824 93.864 102.496C95.3295 101.059 96.7662 99.593 98.203 98.1555C99.4529 96.903 100.688 95.6506 101.938 94.4265C102.096 94.27 102.226 93.8999 102.556 94.2273C103.045 94.7112 103.418 94.4977 103.821 94.085C105.688 92.192 107.585 90.2991 109.467 88.4203C110.042 87.851 110.042 87.5664 109.467 86.9971C109.366 86.7978 109.237 86.6413 109.093 86.5274ZM51.6529 84.3925C51.7679 81.1048 54.4114 78.5998 57.6585 78.7137C60.7043 78.8275 63.233 81.5602 63.1468 84.6345C63.0462 87.8653 60.3595 90.3845 57.17 90.2706C54.0666 90.1425 51.538 87.4525 51.6529 84.3925ZM53.377 93.5868C53.1615 93.8003 53.0466 93.6437 52.9172 93.5156C51.423 92.0212 49.9289 90.5126 48.4347 89.0181C48.3053 88.89 48.1186 88.7762 48.3484 88.5627C49.0812 87.8653 49.8139 87.1536 50.5754 86.4135C51.3656 88.89 52.9891 90.541 55.6901 91.4092C54.8425 92.192 54.0954 92.8752 53.377 93.5868ZM63.2042 107.464C63.1037 107.393 63.0175 107.321 62.9312 107.236C62.2273 106.524 61.5376 105.813 60.8193 105.115C60.6325 104.93 60.6038 104.802 60.8193 104.603C61.5376 103.906 62.2416 103.194 62.9312 102.482C63.1468 102.255 63.2904 102.269 63.5059 102.496C64.1956 103.222 64.8996 103.92 65.6179 104.617C65.7903 104.788 65.7903 104.902 65.6179 105.073C64.8852 105.784 64.1668 106.51 63.4485 107.236C63.3766 107.307 63.3048 107.378 63.2042 107.464ZM66.7242 111.036C66.6093 110.922 66.48 110.823 66.365 110.709C65.7329 110.068 65.1007 109.414 64.4542 108.787C64.1812 108.531 64.1668 108.375 64.4398 108.104C65.1438 107.435 65.8334 106.738 66.5087 106.04C66.7099 105.841 66.8248 105.841 67.0259 106.04C67.7156 106.752 68.4339 107.464 69.1379 108.161C69.2816 108.303 69.4109 108.417 69.2098 108.617C68.4483 109.371 67.7012 110.125 66.9397 110.88C66.8823 110.951 66.8248 110.979 66.7242 111.036ZM70.2873 114.608C70.2011 114.523 70.1149 114.452 70.0287 114.367C69.3391 113.683 68.6638 112.972 67.9742 112.303C67.7443 112.089 67.7587 111.933 67.9742 111.733C68.6925 111.036 69.3965 110.339 70.0862 109.613C70.3017 109.385 70.4166 109.442 70.6034 109.627C71.3074 110.339 71.997 111.05 72.7154 111.748C72.8734 111.904 72.9453 112.032 72.7585 112.217C71.997 112.972 71.2499 113.726 70.4884 114.48C70.431 114.537 70.3591 114.566 70.2873 114.608ZM76.2497 115.889C75.5457 116.601 74.8274 117.298 74.1377 118.024C73.9366 118.224 73.8217 118.209 73.6349 118.01C72.9453 117.298 72.2413 116.573 71.5085 115.889C71.2786 115.662 71.3074 115.534 71.5229 115.334C72.2413 114.637 72.9453 113.925 73.6349 113.214C73.7786 113.057 73.8935 112.972 74.0946 113.171C74.8417 113.94 75.6032 114.694 76.3503 115.462C76.3934 115.505 76.4365 115.576 76.4796 115.647C76.4078 115.719 76.3359 115.804 76.2497 115.889ZM101.048 93.4303C98.3179 96.1345 95.6168 98.8529 92.9302 101.571C92.6141 101.884 92.4417 101.941 92.1112 101.586C90.1142 99.5503 88.0884 97.5293 86.0482 95.5225C85.7465 95.2236 85.7896 95.067 86.0482 94.7966C86.9534 93.9142 87.8298 93.0033 88.7205 92.1066C89.0654 91.765 89.4964 91.395 89.0366 90.9111C88.5338 90.3845 88.1315 90.8257 87.7723 91.1815C85.3299 93.6437 82.8731 96.1202 80.4306 98.5967C80.3588 98.6679 80.2869 98.7106 80.1864 98.796C79.7841 97.9989 79.3387 97.2446 78.7496 96.5899C78.4048 96.2199 78.0456 95.9494 77.6003 96.3479C77.1549 96.7465 77.4566 97.1165 77.7583 97.4581C79.7554 99.8065 79.9996 102.838 78.4192 105.286C78.1606 105.699 78.0025 105.813 77.6003 105.4C74.8274 102.582 72.0401 99.778 69.2529 96.9884C68.9224 96.6611 68.9224 96.4903 69.2529 96.1629C71.7671 93.658 74.2527 91.1246 76.7526 88.6054C79.9709 85.3603 83.2035 82.1295 86.4218 78.8702C86.8097 78.4717 87.0108 78.4717 87.3988 78.8702C91.9245 83.4674 96.4789 88.0361 101.033 92.6048C101.321 92.9179 101.407 93.0744 101.048 93.4303Z" fill="#020A13"/>
<path d="M47.1413 54.2333C55.9413 49.6333 64.3079 53.4 67.3913 55.8583L72.0161 58.9834L63.1411 78.7334C61.8494 78.1084 58.3661 77.2334 54.7661 78.7334C51.1661 80.2334 50.5161 83.6917 50.6411 85.2334L47.1413 88.4834C44.9329 86.4001 40.1663 81.4084 38.7663 78.1084C37.0163 73.9834 36.1413 59.9833 47.1413 54.2333Z" fill="#020A13"/>
<path d="M104.964 54.2333C96.1642 49.6333 87.7975 53.4 84.7142 55.8583L80.0894 58.9834L88.9644 78.7334C90.256 78.1084 89.7579 68.6007 92.5156 71.3584C95.6406 74.4834 105.089 81.9417 104.964 83.4834L108.266 86.2334C110.474 84.1501 111.939 81.4084 113.339 78.1084C115.089 73.9834 115.964 59.9833 104.964 54.2333Z" fill="#020A13"/>
<path d="M102.672 84.4064C101.221 84.4064 100.086 85.5877 100.086 87.0537C100.086 88.4912 101.235 89.6298 102.658 89.6155C104.123 89.6013 105.287 88.42 105.273 86.9825C105.258 85.5735 104.066 84.3921 102.672 84.4064ZM102.658 88.3204C101.954 88.3061 101.379 87.6799 101.393 86.954C101.422 86.2566 101.997 85.6873 102.686 85.7016C103.39 85.7158 103.994 86.3563 103.965 87.0537C103.936 87.7368 103.319 88.3346 102.658 88.3204Z" fill="#98D7EA"/>
<path d="M59.7697 83.823C59.4106 83.7945 59.0514 83.7803 58.6922 83.823C58.0888 83.9084 57.9738 83.638 58.0026 83.1113C58.0457 82.3143 58.0026 81.5031 58.0169 80.706C58.0313 80.2648 57.8733 79.9517 57.3848 79.9375C56.8963 79.9232 56.7095 80.2506 56.7095 80.6776C56.6951 81.2896 56.7095 81.9016 56.7095 82.5278C56.7095 83.1256 56.7095 83.7091 56.7095 84.3069C56.7095 84.8477 56.925 85.1466 57.5284 85.1324C58.2612 85.1039 59.0083 85.1181 59.741 85.1324C60.1577 85.1466 60.445 84.9901 60.4737 84.5488C60.5168 84.0507 60.2008 83.8514 59.7697 83.823Z" fill="#FCB853"/>
<path d="M92.5987 66.6445C92.2539 58.1048 84.8547 57.6067 80.4727 59.8128C78.4756 60.8091 76.9671 62.702 76.1194 63.9545C75.2717 62.6878 73.7632 60.8091 71.7661 59.8128C67.3841 57.6067 59.9849 58.1048 59.6401 66.6445C59.1373 79.1692 75.7028 86.3567 75.7028 86.3567C75.7028 86.3567 93.1015 79.1692 92.5987 66.6445Z" fill="#FF6991" stroke="#FF6991" stroke-width="10" stroke-miterlimit="10"/>
</g>
<defs>
<clipPath id="clip0">
<rect width="16.3188" height="26.4365" fill="white" transform="translate(132.113 33.3574) rotate(15)"/>
</clipPath>
<clipPath id="clip1">
<rect width="78" height="69" fill="white" transform="translate(37.3711 51.3584)"/>
</clipPath>
</defs>
</svg>
