<svg width="146" height="146" viewBox="0 0 146 146" fill="none" xmlns="http://www.w3.org/2000/svg">
<rect opacity="0.5" x="0.914062" y="0.704102" width="145" height="145" rx="50" fill="#F2F2C5"/>
<path d="M61.2539 92.793H88.2539V110.793H61.2539V92.793Z" fill="#F5B953"/>
<path d="M61.2539 105.446C63.5725 106.692 66.2568 107.418 69.1289 107.418C77.8274 107.418 84.8789 100.87 84.8789 92.793H61.2539V105.446Z" fill="#F9D18B"/>
<path d="M91.2813 48.918C85.654 48.918 80.1674 47.1596 75.5875 43.8892L74.7539 43.293L73.9203 43.8892C69.3404 47.1596 63.8538 48.918 58.2265 48.918H57.8789V65.6872C57.8789 70.7047 60.2695 75.4207 64.315 78.3885L74.7539 86.043L85.1928 78.3873C89.2383 75.4207 91.6289 70.7036 91.6289 65.6872V48.918H91.2813ZM74.7539 78.168C72.8898 78.168 71.3789 76.6571 71.3789 74.793C71.3789 72.9288 72.8898 71.418 74.7539 71.418C76.618 71.418 78.1289 72.9288 78.1289 74.793C78.1289 76.6571 76.618 78.168 74.7539 78.168Z" fill="#E9E9C8"/>
<path d="M84.7383 48.1023C81.4702 47.2856 78.3618 45.8692 75.5875 43.8892L74.7539 43.293L73.9203 43.8892C69.3404 47.1596 63.8538 48.918 58.2265 48.918H57.8789V65.6872C57.8789 70.5708 60.157 75.1575 64.0102 78.1353C64.2172 78.141 64.4197 78.168 64.6289 78.168C67.231 78.168 69.7128 77.6538 72.019 76.7583C71.6208 76.2037 71.3789 75.5287 71.3789 74.793C71.3789 72.9288 72.8898 71.418 74.7539 71.418C76.105 71.418 77.2615 72.2167 77.8015 73.3642C82.7887 69.2445 86.0039 62.8578 86.0039 55.668C86.0039 53.0096 85.5427 50.4705 84.7383 48.1023Z" fill="#FBFBCC"/>
<path d="M88.2539 111.918H61.2539C60.6318 111.918 60.1289 111.414 60.1289 110.793V92.793C60.1289 92.172 60.6318 91.668 61.2539 91.668H88.2539C88.876 91.668 89.3789 92.172 89.3789 92.793V110.793C89.3789 111.414 88.876 111.918 88.2539 111.918ZM62.3789 109.668H87.1289V93.918H62.3789V109.668Z" fill="black"/>
<path d="M66.8789 92.7931H64.6289V83.7931C64.6289 82.478 64.8775 81.2 65.3658 79.9951L67.4515 80.8411C67.0713 81.7771 66.8789 82.7694 66.8789 83.7931V92.7931Z" fill="black"/>
<path d="M84.8789 92.793H82.6289V83.793C82.6289 79.4505 79.0953 75.918 74.7539 75.918C73.7324 75.918 72.739 76.1103 71.8008 76.4895L70.957 74.4037C72.1642 73.9155 73.4422 73.668 74.7539 73.668C80.3373 73.668 84.8789 78.2107 84.8789 83.793V92.793Z" fill="black"/>
<path d="M74.7539 102.918C72.8932 102.918 71.3789 101.404 71.3789 99.543C71.3789 97.6822 72.8932 96.168 74.7539 96.168C76.6147 96.168 78.1289 97.6822 78.1289 99.543C78.1289 101.404 76.6147 102.918 74.7539 102.918ZM74.7539 98.418C74.1329 98.418 73.6289 98.9231 73.6289 99.543C73.6289 100.163 74.1329 100.668 74.7539 100.668C75.3749 100.668 75.8789 100.163 75.8789 99.543C75.8789 98.9231 75.3749 98.418 74.7539 98.418Z" fill="black"/>
<path d="M73.6289 101.793H75.8789V107.418H73.6289V101.793Z" fill="black"/>
<path d="M88.2539 100.668H99.5039V102.918H88.2539V100.668Z" fill="black"/>
<path d="M93.8789 98.418H88.2539V96.168H93.4132L95.3335 94.2476C95.5439 94.0361 95.8297 93.918 96.1289 93.918H99.5039V96.168H96.5947L94.6743 98.0883C94.4639 98.2998 94.1782 98.418 93.8789 98.418Z" fill="black"/>
<path d="M99.5039 109.668H96.1289C95.8297 109.668 95.5439 109.55 95.3335 109.338L93.4132 107.418H88.2539V105.168H93.8789C94.1782 105.168 94.4639 105.286 94.6743 105.498L96.5947 107.418H99.5039V109.668Z" fill="black"/>
<path d="M50.0039 100.668H61.2539V102.918H50.0039V100.668Z" fill="black"/>
<path d="M61.2539 98.418H55.6289C55.3297 98.418 55.0439 98.2998 54.8335 98.0883L52.9132 96.168H50.0039V93.918H53.3789C53.6782 93.918 53.9639 94.0361 54.1743 94.2476L56.0947 96.168H61.2539V98.418Z" fill="black"/>
<path d="M53.3789 109.668H50.0039V107.418H52.9132L54.8335 105.498C55.0439 105.286 55.3297 105.168 55.6289 105.168H61.2539V107.418H56.0947L54.1743 109.338C53.9639 109.55 53.6782 109.668 53.3789 109.668Z" fill="black"/>
<path d="M74.7539 87.1682C74.5199 87.1682 74.287 87.0962 74.0879 86.951L63.649 79.2954C59.3313 76.1285 56.7539 71.0413 56.7539 65.6874V48.9182C56.7539 48.2972 57.2568 47.7932 57.8789 47.7932H58.2265C63.6513 47.7932 68.8522 46.1271 73.2667 42.9737L74.1003 42.3786C74.4918 42.0984 75.016 42.0984 75.4075 42.3786L76.2412 42.9748C80.6557 46.1271 85.8565 47.7932 91.2813 47.7932H91.6289C92.251 47.7932 92.7539 48.2972 92.7539 48.9182V65.6874C92.7539 71.0413 90.1765 76.1285 85.8588 79.2954L75.4199 86.951C75.2208 87.0962 74.9879 87.1682 74.7539 87.1682ZM59.0039 50.0331V65.6874C59.0039 70.3281 61.2382 74.7358 64.9799 77.4808L74.7539 84.6482L84.5279 77.4808C88.2697 74.7358 90.5039 70.3269 90.5039 65.6874V50.0331C84.889 49.8812 79.5205 48.0812 74.9339 44.8052L74.7539 44.6758L74.5739 44.8041C69.9873 48.0801 64.6188 49.8801 59.0039 50.0331Z" fill="black"/>
<path d="M74.7539 79.293C72.2722 79.293 70.2539 77.2747 70.2539 74.793C70.2539 72.3112 72.2722 70.293 74.7539 70.293C77.2357 70.293 79.2539 72.3112 79.2539 74.793C79.2539 77.2747 77.2357 79.293 74.7539 79.293ZM74.7539 72.543C73.513 72.543 72.5039 73.5521 72.5039 74.793C72.5039 76.0338 73.513 77.043 74.7539 77.043C75.9948 77.043 77.0039 76.0338 77.0039 74.793C77.0039 73.5521 75.9948 72.543 74.7539 72.543Z" fill="black"/>
<path d="M74.7539 60.168C71.6523 60.168 69.1289 57.6446 69.1289 54.543C69.1289 51.4413 71.6523 48.918 74.7539 48.918C77.8555 48.918 80.3789 51.4413 80.3789 54.543C80.3789 57.6446 77.8555 60.168 74.7539 60.168ZM74.7539 51.168C72.8932 51.168 71.3789 52.6822 71.3789 54.543C71.3789 56.4037 72.8932 57.918 74.7539 57.918C76.6147 57.918 78.1289 56.4037 78.1289 54.543C78.1289 52.6822 76.6147 51.168 74.7539 51.168Z" fill="black"/>
<path d="M73.6289 59.043H75.8789V68.043H73.6289V59.043Z" fill="black"/>
<path d="M74.7539 63.543H78.1289V65.793H74.7539V63.543Z" fill="black"/>
</svg>
