<svg width="146" height="146" viewBox="0 0 146 146" fill="none" xmlns="http://www.w3.org/2000/svg">
<rect opacity="0.5" x="0.914062" y="0.704102" width="145" height="145" rx="50" fill="#F2F2C5"/>
<g clip-path="url(#clip0)">
<path d="M80.2697 61.3439C80.2697 67.389 75.3694 72.2893 69.3243 72.2893C63.2792 72.2893 58.3789 67.389 58.3789 61.3439C58.3789 55.2987 63.2792 50.3984 69.3243 50.3984C75.3694 50.3984 80.2697 55.2987 80.2697 61.3439Z" fill="#020A13"/>
<path d="M80.8004 83.3215C77.5303 80.7672 73.5695 79.4219 69.3488 79.4219H69.3122C64.2403 79.4344 59.514 81.4088 56.0217 84.9874C52.6653 88.4426 50.7281 93.0946 50.543 98.1911L82.9845 98.1294C81.5528 95.7217 80.798 92.9717 80.8004 90.1701V83.3215Z" fill="#020A13"/>
<path d="M82.5273 83.284V90.1698C82.5331 95.7011 85.8119 100.705 90.8814 102.917L91.9674 103.398L93.2385 102.843C98.4058 100.679 101.768 95.6235 101.766 90.0218V83.284L92.0045 78.0767L82.5273 83.284ZM97.6809 87.603C97.9802 87.9713 97.9253 88.5121 97.5575 88.8124L91.0419 94.106C90.8901 94.2338 90.6977 94.3037 90.4991 94.3037C90.2451 94.3061 90.0041 94.1928 89.845 93.9952L87.044 90.7251C86.7335 90.3602 86.7779 89.8136 87.1428 89.5032C87.5072 89.1932 88.0543 89.2376 88.3642 89.602L90.61 92.2305L96.4715 87.4671C96.845 87.1778 97.3806 87.2381 97.6809 87.603Z" fill="#1AB3EF"/>
</g>
<defs>
<clipPath id="clip0">
<rect width="53" height="53" fill="white" transform="translate(49.6172 50.3984)"/>
</clipPath>
</defs>
</svg>
