<svg width="146" height="146" viewBox="0 0 146 146" fill="none" xmlns="http://www.w3.org/2000/svg">
<rect opacity="0.5" x="0.914062" y="0.704102" width="145" height="145" rx="50" fill="#F2F2C5"/>
<g clip-path="url(#clip0)">
<path d="M99.9002 76.6435C102.415 74.119 103.8 70.7674 103.8 67.203C103.8 63.6297 102.408 60.2705 99.8816 57.7439C97.3549 55.2173 93.9956 53.8257 90.4223 53.8257C86.8492 53.8257 83.4899 55.2172 80.9633 57.7438C80.9562 57.7508 80.9492 57.7577 80.9422 57.7645L69.4174 68.9459C68.812 69.5317 68.4758 70.3159 68.4689 71.1557C68.462 71.9955 68.7852 72.785 69.3789 73.3788C69.9658 73.9658 70.7464 74.2891 71.5766 74.2891C72.4067 74.2891 73.1872 73.9659 73.7743 73.3788L76.8901 70.263C77.2719 69.8813 77.7724 69.6903 78.2728 69.6903C78.7732 69.6903 79.2736 69.8813 79.6554 70.263L92.7745 83.382L99.9002 76.6435Z" fill="#020A13" fill-opacity="0.5"/>
<path d="M58.2777 78.0016C57.787 77.5109 57.1358 77.2412 56.443 77.2412C55.7504 77.2412 55.0992 77.5109 54.6093 78.0008L48.74 83.8699C48.2502 84.3598 47.9805 85.011 47.9805 85.7038C47.9805 86.3965 48.2502 87.0479 48.74 87.5376C48.7403 87.5378 48.7405 87.5382 48.7409 87.5384L48.7985 87.5962C49.809 88.6065 51.4542 88.6067 52.4655 87.5954L58.3346 81.7263C59.3457 80.7151 59.3457 79.0698 58.3346 78.0586L58.2777 78.0016Z" fill="#020A13" fill-opacity="0.5"/>
<path d="M71.319 91.0395L71.2619 90.9826C70.7713 90.4919 70.12 90.2222 69.4273 90.2222C68.7347 90.2222 68.0834 90.4919 67.5936 90.9817L61.7244 96.8509C61.2346 97.3407 60.9648 97.992 60.9648 98.6847C60.9648 99.3775 61.2346 100.029 61.7244 100.519C61.7247 100.519 61.7249 100.519 61.7252 100.519L61.7829 100.577C62.7934 101.587 64.4386 101.588 65.4499 100.576L71.319 94.7073C72.3301 93.6961 72.3301 92.0507 71.319 91.0395Z" fill="#020A13" fill-opacity="0.5"/>
<path d="M64.7698 84.4923C64.2791 84.0017 63.6279 83.7319 62.9351 83.7319C62.2425 83.7319 61.5912 84.0017 61.1014 84.4915L55.2322 90.3607C54.7424 90.8505 54.4727 91.5017 54.4727 92.1945C54.4727 92.8873 54.7424 93.5386 55.2322 94.0283C55.2325 94.0286 55.2327 94.0289 55.233 94.0291L55.2907 94.0869C56.3012 95.0973 57.9464 95.0974 58.9577 94.0861L64.8268 88.2171C65.8379 87.2058 65.8379 85.5605 64.8268 84.5494L64.7698 84.4923Z" fill="#020A13" fill-opacity="0.5"/>
<path d="M91.8205 87.9565L91.3623 87.4984C91.3584 87.4945 91.3545 87.4907 91.3507 87.4868L78.2748 74.4108L76.5416 76.1439C75.216 77.4696 73.4535 78.1996 71.5788 78.1996C69.7041 78.1996 67.9415 77.4696 66.6158 76.1439C65.2747 74.8028 64.5448 73.0198 64.5604 71.1233C64.576 69.2267 65.3352 67.4559 66.6981 66.1371L72.4099 60.5954L69.1088 57.2944C63.5826 51.7684 54.5913 51.7684 49.0652 57.2944C46.3882 59.9715 44.9141 63.5306 44.9141 67.3164C44.9141 71.1022 46.3882 74.6613 49.0653 77.3383L49.4088 77.672L51.8457 75.2352C53.0742 74.0067 54.7075 73.3301 56.4447 73.3301C58.1822 73.3301 59.8154 74.0068 61.0438 75.2352L61.1009 75.2921C62.3516 76.5428 62.9844 78.18 63.0019 79.8224C64.7144 79.8394 66.3219 80.5131 67.5346 81.7259L67.5917 81.7828C68.8425 83.0336 69.4752 84.6708 69.4927 86.3132C71.2052 86.3303 72.8128 87.0039 74.0256 88.2167L74.0826 88.2736C74.9722 89.1631 75.5485 90.2485 75.8142 91.3918C76.2207 91.4486 76.613 91.631 76.9255 91.9435L78.5003 93.5184C78.5069 93.5247 78.5139 93.5301 78.5205 93.5366L82.1633 97.1794C83.1433 98.1594 84.7379 98.1594 85.7178 97.1794C86.1925 96.7046 86.4541 96.0735 86.4541 95.4022C86.4541 94.7308 86.1926 94.0997 85.7178 93.6249L83.6018 91.5088L80.4084 88.3153C79.6447 87.5517 79.6447 86.3137 80.4084 85.5501C81.172 84.7864 82.41 84.7864 83.1736 85.5501L84.8206 87.197C84.8207 87.1971 84.8209 87.1973 84.821 87.1975L86.3671 88.7436L88.7004 91.0767C89.5606 91.9368 90.9602 91.937 91.8207 91.0767C92.2374 90.66 92.4669 90.1059 92.4669 89.5166C92.4669 88.9272 92.237 88.3732 91.8205 87.9565Z" fill="#020A13"/>
<path d="M75.2782 95.8267C74.9763 96.42 74.579 96.977 74.0834 97.4726L71.9492 99.6067L75.8426 103.5C76.8226 104.48 78.417 104.48 79.3971 103.5C80.377 102.52 80.377 100.926 79.3971 99.9456L75.2782 95.8267Z" fill="#020A13"/>
</g>
<defs>
<clipPath id="clip0">
<rect width="58.8877" height="58.8877" fill="white" transform="translate(44.9141 49.249)"/>
</clipPath>
</defs>
</svg>
