<?xml version="1.0" encoding="utf-8"?>
<!-- Generator: Adobe Illustrator 17.0.0, SVG Export Plug-In . SVG Version: 6.00 Build 0)  -->
<!DOCTYPE svg PUBLIC "-//W3C//DTD SVG 1.1//EN" "http://www.w3.org/Graphics/SVG/1.1/DTD/svg11.dtd">
<svg version="1.1" id="Layer_1" xmlns="http://www.w3.org/2000/svg" xmlns:xlink="http://www.w3.org/1999/xlink" x="0px" y="0px"
	 width="443px" height="538px" viewBox="0 0 443 538" enable-background="new 0 0 443 538" xml:space="preserve">
<g>
	<path fill="#212020" d="M290.667,118.833c-1,7,4,13,10,15c4,0,8,2,12-3c4,8,11,16,21,17c8,1,16-1,22-6c10,6,25,3,33-6
		c12,3,26,0,32-12c6,1,10-5,12-9c1-2,1-5,0-7c-2-4-5-8-10-7c-4-12-19-18-30-14c-5-10-18-13-29-10c0,0,0-2-1-3c-2-1-3-3-5-5
		c-10-6-23-4-28,7c-6-5-14-4-20-1c-4,3-8,8-8,14c-4-2-9-2-13,0c-9,4-13,15-8,24C282.667,115.833,286.667,117.833,290.667,118.833
		L290.667,118.833z M314.667,107.833c-1-3-5-1-5-4c1,2,2,3,5,2C314.667,106.833,314.667,106.833,314.667,107.833L314.667,107.833z"
		/>
</g>
<g opacity="0.7">
	<path fill="#212020" d="M87.333,62.5c0,4,2,8,6,9c3,0,5,1,8-2c1,3,2,6,5,8c6,3,14,5,20-1c7,4,16,2,21-4c7,3,13-2,19-5c4-3,9-8,6-12
		c-2-4-6-5-9-9c-3-3-9-5-14-3c-3-6-11-9-17-6c-2-4-6-7-10-7s-8,2-11,6c-5-3-11-2-15,2c-1,2-1,5-2,5c-6,1-13,3-14,10
		C80.333,57.5,82.333,61.5,87.333,62.5L87.333,62.5z M102.333,55.5c-1,0-3,0-3-2C100.333,54.5,101.333,54.5,102.333,55.5
		L102.333,55.5z"/>
</g>
<g>
	<defs>
		
			<rect id="SVGID_1_" x="33.95" y="14.725" transform="matrix(-0.9968 0.0795 -0.0795 -0.9968 426.04 522.7087)" width="337.324" height="510.224"/>
	</defs>
	<clipPath id="SVGID_2_">
		<use xlink:href="#SVGID_1_"  overflow="visible"/>
	</clipPath>
	<g clip-path="url(#SVGID_2_)">
		<path fill="#FAB29C" d="M314.669,41.23c12.444,10.063,23.022,21.669,30.996,35.575c5.895,10.287,9.754,21.234,12.16,32.694
			c3.202,15.183,3.52,30.397,1.358,45.708c-1.401,9.873-4.638,19.195-8.285,28.35c-1.049,3.072-1.891,6.226-3.138,9.314
			c-0.755,1.753-0.946,4.358-3.935,4.298c-1.107-1.406-0.633-2.938-0.035-4.181c2.623-5.786,3.418-12.025,4.831-18.014
			c0.744-3.147,0.147-6.884,0.761-10.419c1.152-6.765,1.999-13.606,2.138-20.589c-0.011-1.393-0.588-3.638,2.22-3.364
			c1.344,1.885,0.217,3.967,0.536,6.73c0.116-4.79,0.203-8.682-0.211-12.633c-0.502-2.549-0.518-5.237-0.229-7.85
			c2.335-5.664-0.01-11.353-1.789-16.191c-3.312-9.099-4.497-18.964-9.23-27.152c0.466,3.349,3.709,6.576,2.253,10.776
			c-2.828,0.723-3.124-1.743-3.852-3.378c-1.814-4.038-3.827-8.061-5.93-11.977c-2.938-5.642-6.223-10.659-12.151-13.871
			c-3.116-1.644-5.354-4.752-5.967-8.687c-0.458-3.25-3.957-5.959-5.662-6.122c-4.002-0.278-5.631-3.236-8.253-4.919
			c-6.706-4.246-14.026-7.447-21.33-10.45c-4.113-1.664-7.968-3.846-12.504-4.58c-3.326-0.531-3.796-2.685-1.067-5.891
			c-6.134,1.685-9.895-1.8-14.205-3.448c-3.488-1.315-6.778-2.646-10.496-1.852c-0.486,0.138-1.071,0.285-1.483,0.118
			c-7.054-3.62-12.283,0.681-17.69,4.001c-6.826,4.23-6.727,4.222-9.965-2.691c-0.246-0.578-0.688-1.14-1.123-1.604
			c-0.771-0.934-1.55-1.968-1.554-3.262c0.882-2.66,2.966-2.727,5.197-2.207c5.983,1.415,11.963,1.536,17.907-0.034
			c1.269-0.3,2.563-0.304,3.773-0.102c4.302,1.549,8.728,0.897,13.216,1.037C275.046,18.495,295.704,28.002,314.669,41.23z"/>
		<path fill="#FAB19A" d="M82.996,154.232c-2.978-27.352,4.67-52.463,16.779-76.536c7.39-14.633,18.919-26.011,30.892-36.826
			c4.857-3.973,9.477-8.425,15.939-9.738c0.305,0.075,0.617,0.25,0.83,0.432c4.849,3.398,4.643,3.315-0.147,6.884
			c-9.488,7.032-19.305,13.691-26.71,23.146c-10.916,12.823-19.235,27.032-23.493,43.507c-1.128,4.572-3.153,9.116,0.018,13.943
			c1.131,1.702,0.537,4.239,0.308,6.349c-0.95,8.044-1.802,16.08-0.66,24.156c0.249,1.873,0.521,4.042-1.559,5.403
			C91.146,155.375,87.018,156.003,82.996,154.232z"/>
		<path fill="#091929" d="M161.612,403.833c1.76-1.634,2.318-3.372,1.321-5.882c-13.14-32.517-22.413-66.438-32.552-99.991
			c-0.147-0.586-0.202-1.279-0.257-1.972c-0.704-1.338-1.241-3.088-0.118-3.974c1.313-1.002,2.61,0.289,3.685,1.299
			c1.206,1.398,1.653,3.255,2.092,5.013c8.06,27.444,16.606,54.75,25.729,81.81c2.202,6.398,4.89,12.658,7.092,19.056
			c1.657,4.549,1.657,4.549-2.112,5.945c-0.19,0.115-0.257,0.519-0.432,0.831c-0.454,0.535-1.016,0.978-1.684,1.33
			c-1.033,0.779-2.239,1.872-3.437,0.573C159.634,406.481,161.22,405.159,161.612,403.833z"/>
		<path fill="#091929" d="M305.557,511.97c-12.138,3.757-24.695,4.759-37.057,6.94c-17.556,3.193-35.353,4.613-53.129,5.035
			c-5.09-0.192-10.156-0.086-15.285-0.773c-7.308-1.807-14.814-1.109-22.241-1.911c-0.807-0.134-1.689,0.035-1.875-1.045
			c0.886-1.366,0.112-3.595,2.133-4.453c6.825,0.75,13.655,0.305,20.43,1.657c1.941,0.642,3.788,0.096,5.781,0.136
			c12.659,0.285,25.279,0.075,37.919-1.132c1.779-0.142,3.65-0.391,5.362-0.129c0.502,0.059,1.02,0.317,1.539,0.574
			c0.427,0.365,0.565,0.852,0.506,1.354c-0.159,0.511-0.851,0.566-1.108,1.085c1.111,0.21,2.053-0.463,3.148-0.451
			c5.272-0.022,10.164-2.304,15.444-2.228c2.404,0.207,4.698-0.972,7.071-1.161c-0.368-0.867-3.773,0.101-1.696-2.554
			c3.686-1.191,7.372-2.381,11.35-2.4c0.502,0.06,1.013,0.218,1.424,0.385c1.617,4.054,4.805,1.608,7.3,1.708
			c2.298,0.116,3.659-2.782,6.3-2.096c0.099-0.008-0.984-1.117-0.553-1.948c1.539-1.915,3.532-1.875,5.58-1.142
			C303.366,509.455,307.071,509.757,305.557,511.97z"/>
		<path fill="#091929" d="M131.233,496.992c-4.612,4.551-10.125,7.78-15.639,11.008c-17.505,10.062-35.492,19.066-54.33,26.147
			c-2.128,0.767-5.43,3.023-6.64,0.33c-0.965-2.114,2.852-2.916,4.873-3.775c15.08-6.78,30.26-13.569,44.743-21.597
			c8.195-4.538,16.275-9.266,23.691-14.838C130.644,493.354,131.894,494.051,131.233,496.992z"/>
		<path fill="#020A13" d="M115.471,248.254c-1.723-11.616-11.047-18.74-16.764-28.045c-8.92-14.527-12.868-30.347-15.085-46.904
			c-0.474-3.448-0.644-6.821-2.296-10.075c-1.415-2.776-0.632-5.428,0.753-8.028c2.345,3.199,1.087,7.383,3.036,10.614
			c2.434,18.033,6.615,35.528,16.694,50.859c5.67,8.711,11.719,17.192,18.892,24.787c6.769,7.528,15.35,12.819,23.295,18.859
			c1.692,1.259,3.839,1.984,4.614,4.213c0.391,1.164,0.395,2.459-0.21,3.603c-4.394,1.047-6.96-2.433-10.009-4.481
			c-1.898-1.342-0.917,0.97-1.625,0.827c-3.425-0.524-2.404-5.187-5.639-5.825c-3.887-2.578-6.781-6.431-11.123-8.475
			C118.472,249.707,117.939,246.762,115.471,248.254z"/>
		<path fill="#091929" d="M299.622,386.449c-1.689,5.016-0.519,9.703,2.118,14.074c0.62,1.544,1.166,3.393-0.665,4.137
			c-1.831,0.744-2.096-1.327-2.883-2.459c-0.344-0.57-0.771-0.935-1.396-1.283c-0.929-0.424-1.835-0.551-2.748-0.777
			c-4.058-0.971-7.886,0.928-11.872,0.847c-3.369-2.32-7.083-0.231-10.631-1.044c-2.443-0.701-4.5-1.533-3.064-4.736
			c1.484-2.608,1.44-4.397-2.241-4.402c-2.29-0.017-4.588-0.132-6.569-1.269c-1.068-0.911-1.649-1.96-0.245-3.068
			c3.473-1.373,7.265,0.018,10.722-1.553c0.652-0.55,1.87,2.241,2.151-0.47c0.186-1.409-0.81-3.92,2.334-3.174
			c1.621,2.858,0.984,6.096,1.624,9.133c0.285,1.073,0.494,2.45,1.977,2.332c1.186-0.094,1.183-1.389,1.301-2.394
			c0.895-6.247,1.6-12.379,2.7-18.542c0.329-2.118,0.353-4.311,2.22-5.854c1.534-0.72,2.562-0.304,2.796,1.37
			c0.225,1.576,0.936,3.013,1.162,4.589c0.046,5.574-1.307,11.06-1.854,16.681c-0.146,1.904-0.855,4.251,2.159,4.609
			c2.511,0.297,4.441-0.454,5.316-3.213c0.941-3.163,0.269-6.595,1.614-9.691c1.029-2.074,0.397-5.011,3.664-6.467
			C301.15,378.16,299.291,382.293,299.622,386.449z"/>
		<path fill="#091929" d="M297.454,399.172c1.965,0.939,2.23,3.009,2.692,5.064c2.12-0.866,1.294-2.494,1.594-3.713
			c3.74,11.953,5.039,24.498,6.323,36.846c1.627,15.408,2.463,30.879,2.904,46.381c0.291,8.642,0.796,17.466-2.108,25.965
			c-0.475,1.531-0.7,2.446-2.413,2.184c-1-1.315-1.02-2.807-0.126-4.074c3.189-4.935,1.248-10.557,2.122-15.806
			c0.194-1.31-0.858-2.023-1.522-2.867c-1.38-3.575-1.177-7.276-0.58-11.009c-1.149-13.155-1.408-26.381-4.032-39.319
			c-0.963-12.074-1.926-24.149-5.147-35.844C296.753,401.618,296.651,400.332,297.454,399.172z"/>
		<path fill="#091929" d="M177.715,515.893c-0.475,1.532,0.909,3.912-1.828,4.528c-3.214-6.616-3.988-13.825-5.248-20.895
			c-3.308-17.764-6.813-35.512-8.745-53.485c-0.976-3.508-0.971-7.193-1.058-10.772c0.356-0.527,0.843-0.665,1.345-0.605
			c2.171,1.022,1.933,3.033,2.19,5.004c0.367,3.357,0.735,6.714,1.497,10.04c0.392,1.164,0.305,2.565,0.886,3.614
			c0.704,1.339,0.47-0.336,0.858-0.466c0.166-0.412,0.332-0.824,0.605-1.144c0.744-0.657,1.594-1.223,2.563-0.304
			c0.68,1.041,0.973,2.213,0.557,3.242c-1.891,6.226-1.196,12.446-0.402,18.657c-0.116,7.28,3.213,14.086,3.782,21.212
			c0.683,2.336,0.675,4.727,0.971,7.194c-0.301,3.709,2.507,6.473,2.981,9.921C178.787,513.119,178.708,514.619,177.715,515.893z"/>
		<path fill="#091929" d="M83.719,488.831c0.926-3.361,2.725-4.501,5.067-5.086c13.653-3.479,25.751-10.221,37.17-18.005
			c1.321-0.902,2.511-2.192,3.619-0.786c1,1.314-0.167,2.902-1.389,3.796c-7.013,5.639-14.476,10.617-22.971,13.884
			C98.459,485.264,91.751,488.489,83.719,488.831z"/>
		<path fill="#091929" d="M115.47,248.253c0.523-0.938,0.183-2.703,1.46-2.905c1.467-0.316,1.594,1.267,2.076,2.325
			c0.467,0.859,0.933,1.718,1.301,2.585c3.748,4.581,4.222,10.52,5.941,15.86c2.265,7.19,3.945,14.526,6.4,21.601
			c0.652,1.94,1.716,4.046,0.086,6.069c-4.116-2.959-2.416,0.89-2.701,2.307c-4.507-11.593-7.273-23.822-10.708-35.699
			C118.202,256.302,116.593,252.347,115.47,248.253z"/>
		<path fill="#020A13" d="M308.516,310.84c-1.358,11.662-2.206,23.483-5.276,34.883c-1.547-0.673-2.638-1.881-3.16-3.433
			c-1.114-3.995,0.472-7.807,0.955-11.73c1.406-11.068,3.313-22.076,4.209-33.303c0.103-1.203,0.419-2.225,1.139-3.178
			c1.479-1.413,3.065-2.735,3.342,0.729c0.158,1.979,0.711,3.927,0.07,5.871l-0.008-0.099
			C308.458,303.873,308.94,307.42,308.516,310.84z"/>
		<path fill="#091929" d="M83.943,166.108c-2.254-3.306-2.249-6.992-1.956-10.8c0.372-0.328,0.637-0.748,1.009-1.076
			c3.923-0.712,7.917-0.532,11.753,0.158c5.212,2.97,5.417,8.034,0.655,13.194C89.926,170.013,87.316,169.724,83.943,166.108z"/>
		<path fill="#020A13" d="M309.688,300.588c-0.158-1.979-0.217-3.967-0.572-5.93c-0.51-2.649-1.377,0.209-2.092-0.033
			c-0.649-0.645-1.009-1.413-0.874-2.221c1.129-12.042,2.151-24.175,4.078-36.181c0.712-1.053,1.294-2.494,2.955-1.63
			c1.348,0.689,0.751,1.932,0.541,3.044c-0.344,1.92,0.704,3.828-0.135,5.788C313.093,275.914,310.991,288.233,309.688,300.588z"/>
		<path fill="#091929" d="M165.24,450.555c-1.776-3.543-1.49-7.45-1.988-11.195c-0.225-1.576-0.253-3.167-0.905-5.107
			c0.147-1.905-0.885-3.615-0.845-5.61c0.066,2.086,1.213,3.987,0.845,5.61c-2.049,4.247,0.145,8.056-0.354,11.781
			c-2.877-11.125-2.294-22.526-2.107-33.896c0.084-2.695-1.379-6.065,1.734-8.205c0.589,1.148-1.286,2.592,0.276,3.464
			c0.313,0.174,1.519-0.918,2.278-1.377c0.771,0.934,0.965,2.114,0.854,3.218c-0.931,12.027,0.716,23.947,1.474,35.938
			c0.102,1.287,0.114,2.68-0.187,3.899C166.066,449.693,165.71,450.219,165.24,450.555z"/>
		<path fill="#020A13" d="M325.319,234.601c-3.243,4.243-6.06,8.85-11.257,11.057c-0.379,0.23-0.874,0.269-1.368,0.309
			c-1.53-0.476-3.868-1.086-1.933-3.033c6.075-6.162,10.335-13.872,17.387-19.016c0.38-0.23,0.981-0.178,1.476-0.218
			c0.51,0.159,0.822,0.333,1.15,0.705C330.414,228.617,326.411,230.829,325.319,234.601z"/>
		<path fill="#020A13" d="M344.129,197.244c4.09-3.613,3.517-9.543,6.883-13.497c-1.006,9.841-6.002,18.308-9.879,27.083
			c-1.768,4.025-3.529,8.15-6.867,11.205c-2.582-1.189-1.324-2.883-0.553-4.438c1.195-2.486,2.496-4.88,3.386-7.441
			C339.338,205.794,340.427,200.727,344.129,197.244z"/>
		<path fill="#020A13" d="M299.622,386.449c-0.992-3.705,0.093-7.577-0.041-11.749c-2.84,1.82-0.61,4.829-2.568,6.479
			c-1.601-1.366-1.546-3.163-1.391-4.968c0.57-5.324,0.136-10.768,2.327-15.723c2.381-0.091,1.701-3.622,4.189-3.621
			C301.931,366.744,300.925,376.585,299.622,386.449z"/>
		<path fill="#020A13" d="M307.676,489.889c3.824-0.704,2.182,2.415,2.178,3.611c0.003,6.274-0.397,12.482-3.316,18.292
			c-0.297,0.024-0.692,0.055-0.981,0.178c0.277-1.516-2.547-1.988-1.297-3.781c0.914-4.754,1.532-9.485,1.541-14.366
			C305.781,492.331,305.433,490.466,307.676,489.889z"/>
		<path fill="#091929" d="M131.234,496.993c-0.158-1.98-1.415-2.776-3.309-2.824c2.709-2.208,5.41-4.515,8.12-6.723
			c2.432-0.692,4.227-0.636,3.598,2.701C137.294,493.123,134.806,495.612,131.234,496.993z"/>
		<path fill="#091929" d="M302.237,356.858c-1.321,0.902-0.815,2.256-0.918,3.46c-0.044,0.701-0.49,1.334-1.107,1.084
			c-0.412-0.166-0.673-0.942-0.918-1.52c-1.759-5.836-2.315-11.568,1.336-16.939c1.423,0.384,2.384,1.204,2.609,2.78
			C302.938,349.432,302.538,353.149,302.237,356.858z"/>
		<path fill="#091929" d="M313.034,245.242c0.304,0.075,0.716,0.241,1.02,0.317c1.174,5.982,1.145,11.86-0.366,17.857
			c-0.075-2.185,0.04-4.485-0.233-6.654c-0.414-3.951-1.688,0.035-2.503-0.199c-1.297-1.291-1.324-2.882-1.162-4.588
			c0.534-2.035-0.043-4.28,0.994-6.255C311.428,245.071,312.219,245.008,313.034,245.242z"/>
		<path fill="#F8B9A6" d="M338.226,210.564c-1.179,2.683-2.357,5.367-3.75,7.868c-0.696,1.251-1.309,2.296-0.218,3.504
			c-0.613,1.045-1.234,1.991-1.847,3.036c-1.04,0.68-1.499-0.08-2.057-0.832l-0.106-0.091
			C328.848,218.981,333.489,211.041,338.226,210.564z"/>
		<path fill="#091929" d="M139.201,484.604c1.38-1.405,2.863-4.014,4.841-1.681c2.526,2.985-1.555,4.207-2.584,6.281
			C139.014,488.503,138.196,486.975,139.201,484.604z"/>
		<path fill="#F8D0C4" d="M330.355,224.14c0.716,0.242,1.333,0.491,2.056,0.832c-1.274,3.986-4.339,6.721-7.092,9.629
			C324.857,230.057,329.37,228.003,330.355,224.14z"/>
		<path fill="#020A13" d="M308.516,310.84c-0.276-3.464-1.26-7.07,1.172-10.252C309.965,304.052,309.64,307.464,308.516,310.84z"/>
		<path fill="#091929" d="M139.2,484.604c0.051,1.888,0.672,3.432,2.257,4.6c-0.668,0.353-1.238,0.697-1.906,1.049
			c-0.273-2.169-1.704-2.653-3.599-2.701C137.068,486.567,138.183,485.581,139.2,484.604z"/>
		<path fill="#F9A48A" d="M338.226,210.563c-4.295,3.53-7.44,7.765-7.871,13.576c-3.718,0.795-5.945,4.06-7.832,6.601
			c-3.235,4.342-6.7,8.303-10.486,11.992c-2.578,2.596,0.926,1.619,0.997,2.51c-0.487,0.138-0.973,0.277-1.46,0.415
			c-3.342,4.251-7.562,7.476-12.494,9.264c-3.192,1.151-3.659,2.782-3.042,5.521c0.501,5.04,1.003,10.079,1.208,15.143
			c0.059,1.987,0.751,4.422-1.955,5.434c-3.384-5.009-1.758-10.815-2.785-16.211c-0.051-1.889,0.392-3.817-0.359-5.749
			c-0.194,1.311,0.632,2.938-1.306,3.59c-6.66,1.329-12.217,5.258-18.149,8.221c-2.227-1.715-1.443-4.367-2.103-6.406
			c-1.211,2.288,0.592,4.933-0.611,7.32c-0.371,0.328-0.751,0.558-1.253,0.498c-0.625-0.348-1.159-0.804-1.602-1.366
			c-5.924,0.572-12.208-2.114-17.741,2.112c-0.463,0.436-1.246,0.598-1.855,0.447c-5.062-1.09-9.697,0.674-14.502,1.555
			c-1.451-1.975,0.095-3.792,0.242-5.696c0.365-5.408-1.881-8.615-6.37-8.755c-3.994-0.179-7.194,3.363-7.499,8.268
			c-0.254,4.303,2.66,7.158,7.347,7.282c1.491-0.019,2.966-0.237,4.322,0.552c-0.681,3.938-3.868,3.894-6.72,4.32
			c-0.692,0.056-1.613-0.269-2.337-0.61c-4.021-1.771-7.186,0.972-10.82,1.56c-17.409-1.2-34.711-2.31-50.687-10.498
			c-2.178-1.121-4.448-2.135-6.18-3.889c-0.878-1.026-1.756-2.051-2.246-3.207c-0.613-1.445-0.731-2.93,0.36-4.212
			c1.183-1.389,2.741-1.813,4.493-1.056c2.582,1.189,5.149,2.179,7.822,3.261c1.254-2.989,0.479-5.218-2.059-7.107
			c-1.06-0.812-2.045-1.929-1.166-3.393c0.704-1.152,2.005-1.056,3.108-0.945c1.499,0.079,2.998,0.159,4.346,0.848
			c3.52,1.712,7.15,2.318,11.402,1.979c-4.516-4.221-9.934-7.275-14.79-10.772c-1.898-1.343-3.788-2.586-4.942-4.586
			c-1.515-2.767-5.224-4.364-4.057-8.441c0.159-0.511-0.87-0.927-1.396-1.283c-4.642-3.315-4.345-5.829,0.919-8.44
			c0.858-0.467,1.978-0.157,2.713-0.913c-0.031-0.396-0.154-0.685-0.375-0.966c-1.459-2.075-4.136-4.451-1.336-6.766
			c2.338-1.88,4.536,0.734,6.442,2.175c1.791,1.252,2.748,3.267,3.986,5.061c2.581,3.678,5.345,7.143,10.285,7.944
			c4.353,3.437,8.79,6.669,14.271,8.025c2.132,0.527,4.133,0.666,6.146-0.291c3.318,0.432,6.319,1.886,9.388,2.936
			c1.768,0.954,3.417,0.425,5.141-0.41c3.358-1.563,6.391-2.203,10.223-0.318c4.03,1.87,8.657,0.007,12.952-1.033
			c-1.926-0.444-3.943-0.781-6.066-1.209c-0.914-0.226-1.744-0.658-2.575-1.09c-10.941-6.198-22.572-11.047-32.279-19.237
			c-2.448-1.996-4.235-4.443-5.939-7.096c-2.384-3.694-4.397-7.717-8.193-10.402c-1.586-1.168-2.93-3.053-3.08-4.933
			c-0.897-7.498-6.397-12.837-8.927-19.607c-0.882-2.32-2.522-4.181-4.484-6.315c-2.702,4.797-1.69,9.995-3.32,14.507
			c-0.486,0.139-0.882,0.17-1.4-0.087c-1.664-2.158-1.269-4.68-1.26-7.071c0.148-16.844,2.832-33.094,9.763-48.487
			c0.257-0.519,0.605-1.144,0.435-2.027c-2.112,5.946-5.055,11.459-6.354,17.638c-0.352,1.821-0.566,4.129-3.128,4.433
			c-1.839-1.845-1.764-4.64-3.215-6.616c-0.612-1.445-1.217-2.791-1.344-4.375c0.682-11.408,2.582-22.516,7.108-33.136
			c0.53-0.839,1.274-1.496,2.017-2.153c2.307-7.256,8.003-13.188,8.36-21.184c0.043-0.701,0.498-1.235,1.174-1.488
			c4.469,3.628,4.622,9.293,6.393,14.032c7.294,20.334,13.903,40.823,21.386,61.042c0.238,0.479,0.368,0.867,0.605,1.346
			c0.854,3.219,2.08,6.109,4.757,8.485c9.007,8.146,17.932,16.498,26.667,24.964c2.159,2.119,4.484,3.826,6.734,5.838
			c0.229,0.38,0.458,0.76,0.597,1.247c0.122,2.779,2.072,3.52,4.211,4.146c5.378,2.559,8.193,7.912,12.76,11.531
			c4.247,3.347,8.229,7.113,12.013,10.895c1.878,2.34,3.931,4.367,6.971,6.316c-0.034-4.181-1.778-7.328-2.936-10.622
			c-2.522-6.671-6.2-12.852-8.524-19.539c-0.431-1.659-1.15-3.195-0.996-5c0.827-3.353,2.667-6.488,1.188-10.055
			c-0.368-0.867,0.04-1.995,0.463-2.925c0.823-2.158,2.073-3.951,4.707-3.364c2.329,0.512,2.883,2.459,2.851,4.554
			c-0.1,2.497-0.907,4.853-1.516,7.192c-0.309,1.12-0.503,2.431,0.739,3.029c1.341,0.59,2.045-0.562,2.871-1.425
			c1.009-1.076,2.109-2.259,2.287-3.768c1.219-9.658,5.543-19.067,3.749-29.083c-0.553-4.438,0.294-8.788,0.441-13.182
			c0.135-3.298-0.284-6.053-1.608-8.936c-3.475-7.392-7.619-14.432-13.744-20.118c-3.021-2.946-5.579-6.328-8.6-9.274
			c-3.069-3.54-5.773-7.508-9.221-10.818c-2.472-2.293-2.807-5.254-0.533-7.925c1.911-2.244,3.509-4.662,5.206-7.088
			c2.931-4.417,4.216-4.52,8.985-2.111c1.455,0.78,2.82,1.668,4.441,2.036c1.226,0.4,2.649,0.785,3.436,1.917
			c2.499,3.884,6.521,5.655,10.111,8.257c3.476,2.412,6.932,5.822,9.423,9.607c-2.313-5.294-5.187-10.144-10.937-12.374
			c-3.282-1.232-5.935-3.311-8.423-5.802c-7.066-7.504-15.662-12.993-24.35-18.376c-3.247-2.032-7.281-2.706-10.974-4.105
			c-3.389-1.323-7.091-0.331-9.919,2.883c2.143,1.921,4.52,3.026,6.722,4.444c5.671,3.731,5.663,3.632,3.179,9.906
			c3.009,1.553,6.631,2.061,9.217,4.544c0.918,1.52,1.25,3.187-0.443,4.418c-1.321,0.902-2.875,0.13-4.133-0.666
			c-1.249-0.697-2.159-2.119-3.883-1.284c-4.137,0.529-6.636-3.355-10.357-3.855c-4.243-2.052-8.293-2.924-12.406,0.392
			c-1.024,0.879-2.417,0.89-3.686,1.19c-8.234,1.553-9.879,3.378-10.419,11.588c-0.043,0.701-0.194,1.31-0.443,1.928
			c-1.708,1.033-2.899-0.167-3.875-1.185c-6.173-6.28-11.981-12.988-18.427-18.948c-0.747-0.638-1.122-1.604-1.012-2.708
			c1.994-2.45,1.516-4.703-0.453-6.936c-1.214-3.987,0.756-6.734,3.884-8.676c2.658-1.607,5.423-3.122,8.88-4.692
			c-3.801-1.49-4.544-3.323-0.937-5.503c-1.297-1.291-2.903-1.462-4.524-1.83c-2.626-0.488-4.963-1.098-3.369-4.811
			c0.93-2.066-0.608-2.641-2.388-2.499c-2.282,0.082-3.967,1.412-5.98,2.369c-2.302,1.08-4.513,2.053-7.012,0.659
			c-1.874-1.046-3.484-0.021-4.88,1.186c-2.322,2.078-4.422,4.436-6.629,6.704c-8.198,0.754-13.629,6.266-19.404,11.209
			c-2.329,1.979-4.323,4.429-6.973,6.134c-1.732,0.736-3.797,2.295-4.378-1.244c2.429-4.477,6.254-7.67,10.102-10.567
			c6.574-4.907,12.361-10.946,20.298-14.966c-1.858-0.848-3.875-1.185-3.851-3.378c8.792-5.781,18.802-8.771,28.836-11.463
			c8.831-2.796,17.887-4.017,27.098-4.552c1.463,0.879,0.652,1.94,0.237,2.969c-0.415,1.029-1.242,1.892-1.756,2.929
			c-1.52,3.408-0.484,6.413,1.624,9.133c1.451,1.976,3.657,2.198,5.769,1.233c3.077-1.341,4.774-3.767,4.894-7.263
			c0.031-2.094-0.637-4.232,0.4-6.207c1.934,0.543,2.388,2.499,2.499,3.884c0.355,4.454,3.06,3.441,4.82,1.807
			c3.066-2.735,7.056-3.85,10.228-6.493c0.562-0.443,1.511-1.017,2.219-0.874c6.363,1.186,12.94,0.063,19.2,2.452
			c4.919,1.799,9.146,6.143,15.067,4.276c0.973-0.277,2.115,0.329,2.392,1.303c0.7,2.534-2.575,1.401-3.085,3.732
			c4.37,1.145,8.854,2.481,12.991,4.442c9.506,4.421,19.982,7.27,27.665,15.024c0.755,0.737,1.411,1.481,2.42,0.405
			c0.273-0.321,0.842-0.665,1.246-0.597c1.696,0.064,6.647,7.239,6.987,9.004c0.995,5,4.807,7.883,9.043,9.836
			c1.965,0.939,3.246,2.032,4.179,3.75c3.717,6.675,8.011,13.106,10.58,20.371c0.514,1.453,1.02,2.807,2.384,3.694
			c1.669,0.963,2.503,2.689,3.033,4.34c2.024,7.906,5.226,15.619,5.881,23.833c-1.088,2.577-3.085,1.242-4.607,0.866
			c-3.464-1.019-6.383-0.188-8.238,2.749c-1.598,2.418-2.176,5.153-0.168,7.881c2.124,2.919,4.556,4.717,8.439,3.51
			c1.46-0.415,3.176-1.349,4.687,0.125c0.474,0.958,0.553,1.947-0.38,2.719c-1.614,2.22-0.891,5.051-0.618,7.221
			c0.572,5.93-1.366,11.563-1.905,17.283c-0.301,3.709,0.952,8.191-0.259,10.478c-3.101,6.025-2.647,12.96-5.871,18.696
			c-0.431,0.831-0.443,1.927-0.669,2.842C342.194,201.681,340.161,206.126,338.226,210.563z"/>
		<path fill="#091929" d="M353.191,137.459c-7.392,3.378-9.417,2.942-13.28-1.829c-2.978-3.647-2.083-7.404,0.061-10.463
			c2.151-2.961,5.493-4.721,9.448-2.547c1.143,0.606,2.452,0.801,3.678,1.201c1.241,0.598,1.913,1.54,1.636,3.056
			c0.799,2.526,0.304,5.056,0.304,7.546C355.042,135.717,354.428,136.762,353.191,137.459z"/>
		<path fill="#091929" d="M214.053,18.48c1.233,2.989,1.988,6.216,0.726,9.105c-1.254,2.988-3.216,5.834-7.072,6.142
			c-2.966,0.237-5.896-0.326-7.13-3.316c-1.463-3.369-2.759-7.15,0.144-10.669c0.902-1.168,1.804-2.335,2.706-3.503
			c2.974-2.628,5.94-2.864,8.862,0.09C212.945,17.074,213.495,17.728,214.053,18.48z"/>
		<path fill="#F8CFC3" d="M354.726,126.779c-0.581-1.049-1.055-2.008-1.636-3.057c-2.479-9.862-4.652-19.648-8.202-29.226
			c-0.707-5.123-2.874-9.83-3.878-14.929c3.808,4.079,6.386,8.953,7.314,14.356c0.728,4.125,2.23,7.99,3.617,11.664
			c2.392,6.283,3.103,12.7,4.308,19.078C356.451,125.944,356.652,127.223,354.726,126.779z"/>
		<path fill="#F8BEAD" d="M212.289,16.331c-2.903-1.462-5.94-2.116-8.863-0.09c-6.502,0.817-13.003,1.635-19.596,2.559
			c-2.753,0.419-5.39,1.028-8.135,1.545c3.916-3.3,8.922-2.903,13.431-3.761c12.43-2.585,25.022-4.386,37.851-3.219
			c2.44,1.897,5.636-0.45,8.067,1.348c-5.896,2.164-11.908,1.647-17.792,0.224C215.219,14.404,213.384,13.853,212.289,16.331z"/>
		<path fill="#F4DCD5" d="M353.19,137.459c0.301-1.22,0.708-2.348,1.847-3.036c2.242,4.403-0.499,8.705-0.935,13.222
			c-0.182-2.277-0.371-4.652-0.553-6.928C353.356,139.537,353.269,138.448,353.19,137.459z"/>
		<path fill="#F8BEAD" d="M238.991,14.3c4.382,0.049,8.74-0.199,13.011,0.954C247.66,15.7,243.167,16.755,238.991,14.3z"/>
		<path fill="#FAA991" d="M120.303,60.62c0.98,2.312,2.649,0.785,4.033,0.674c0.985,1.117,0.569,2.146-0.15,3.1
			c-7.441,10.255-12.611,21.524-17.05,33.232c-2.801,7.295-2.565,15.244-4.46,22.666c1.578-6.401,1.741-13.087,3.724-19.421
			c4.696-14.717,11.152-28.578,21.152-40.431c5.723-6.831,12.684-11.868,21.571-13.972c0.486-0.138,0.981-0.178,1.483-0.118
			c3.061,0.951,2.906,2.756,0.964,4.604c-2.405,2.283-5.383,3.617-8.598,4.471c-3.599,2.279-7.092,4.649-9.706,8.045
			c-0.265,0.42-0.538,0.74-0.91,1.069c-10.889,11.924-18.777,25.302-21.468,41.453c-0.412,2.324,2.384,3.695,1.067,5.891
			c-3.867,20.129-2.873,40.069,2.387,59.869c6.51,25.476,17.113,48.634,38.763,66.827c-0.32-2.764-0.889-4.909,1.535-5.7
			c2.575,1.089,4.785,2.606,6.647,4.748c2.622,4.173,7.502,5.477,11.124,8.475c3.31,2.824,7.256,4.899,10.21,8.249
			c-7.257,2.571-13.557-2.803-21.079-2.302c4.117,2.958,6.015,6.791,5.231,11.933c-2.82,0.823-5.264-2.369-8.392-2.916
			c-1.819-0.353-3.531-3.105-5.516-0.556c-1.903,2.343,0.703,3.828,1.636,5.547c-0.538,0.74-1.191,1.29-2.073,1.46
			c-1.834-0.551-2.783-2.467-4.701-2.812c-7.296-5.394-14.584-10.69-21.69-16.198c-2.226-1.715-4.08-3.758-6.125-5.687
			c-1.123-1.603-1.257-3.286-0.608-5.131c0.649-1.844-0.17-3.372-0.707-5.122c-0.854-3.219-1.296-6.271-4.171-8.632
			c-0.961-0.819-1.732-1.754-2.974-2.352c-3.215-1.636-3.377-2.42-0.79-4.917c1.115-0.985,0.17-1.607,0.115-2.3
			c-0.308-3.86-2.842-6.944-4.305-10.314c-4.764-8.584-7.294-17.844-9.543-27.326c-0.739-3.028-1.478-6.057-2.217-9.086
			c-0.024-0.296-0.039-0.494-0.063-0.791c3.782-4.983,3.865-7.679-0.014-12.648c1.57-1.52,0.918-3.46,0.685-5.135
			c-1.256-8.266-0.108-16.325,0.628-24.551c0.206-2.407,1.377-5.19-1.81-7.724c-1.799-1.351-0.153-5.665,0.523-8.409
			c3.482-13.723,8.305-26.857,17.363-38.037C114.959,67.221,116.834,63.287,120.303,60.62z"/>
		<path fill="#091929" d="M171.582,405.328c-1.986,0.059-3.864,0.209-5.849,0.268c0.051-0.602,0.095-1.303,0.047-1.896
			c6.707,1.755,0.807-2.356,1.618-3.416c3.132,1.841,6.399,0.386,9.563,0.133c1.681-0.134,0.953-1.769,1.072-2.775
			c0.811-1.06,1.867-1.543,3.152-1.645c1.531,0.475,1.716,1.556,1.325,2.882C180.057,403.059,174.837,402.479,171.582,405.328z"/>
		<path fill="#091929" d="M307.894,478.915c-2.412-2.795-0.331-6.646-2.363-9.671c-1.611,6.004-3.237,11.811-4.871,17.519
			c-1.935,6.927-4.487,13.605-8.067,19.867c-0.704,1.151-2.586,2.497-0.945,4.358c-1.828,2.038-3.904,2.204-6.115,0.687
			c-0.403-0.068-0.806-0.135-1.301-0.096c-0.518-0.257-1.143-0.606-1.107-1.405c0.309-1.121,1.258-1.694,2.101-2.359
			c1.293-2.494,3.951-4.1,5.023-6.875c7.766-18.647,12.305-37.833,11.378-58.177c-0.027-1.592-0.703-3.829,1.943-4.339
			C306.423,451.742,306.615,465.372,307.894,478.915z"/>
		<path fill="#020A13" d="M249.165,517.265c-0.632-2.938-1.363-5.867-3.348-8.299c-4.778-0.017-5.426-0.662-3.223-4.225
			c1.848-3.035,1.801-6.119,1.639-9.393c-0.324-4.058-0.944-8.092-0.675-12.197c0.27-1.615,0.638-3.238,2.338-4.37
			c3.504,4.004,1.146,9.371,3.372,13.576c1.384-0.111,1.578-1.421,2.314-2.177c0.166-0.412,0.332-0.823,0.498-1.235
			c0.847-1.86,1.48-3.903,3.485-4.959c3.539,0.714,2.969,3.548,3.266,6.014c-0.06,0.503-0.226,0.915-0.499,1.235
			c-3.544,2.972-5.114,6.982-5.961,11.332c1.45,4.466,0.987,9.881,6.274,12.547c0.419,0.266,0.649,0.646,0.779,1.034
			c-2.559,4.088-6.759,1.336-9.958,2.388C249.327,518.049,249.296,517.653,249.165,517.265z"/>
		<path fill="#091929" d="M218.951,510.213c-2.262,4.065-6.451,5.196-10.402,6.806c-1.641,0.629-3.535,0.581-4.809,2.077
			c-1.779,0.142-3.512,0.877-5.204-0.382c-1.234-2.989-3.705-5.282-4.658-8.493c-0.529-1.651-1.652-3.254-0.608-5.131
			c0.447-0.633,0.997,0.021,1.582-0.126c-1.68-4.846,3.121-7.022,4.526-10.62c0.755-1.753,2.508-3.486,5.027-3.09
			c1.36,2.083-0.234,3.306-1.211,4.778c-3.758,5.28-3.493,7.35,1.359,12.043c3.282,1.232,6.015-0.679,8.819-1.7
			c1.641-0.629,3.022-2.034,4.94-1.689C219.945,506.449,219.197,508.301,218.951,510.213z"/>
		<path fill="#020A13" d="M271.862,513.662c1.459,2.075,4.153-0.331,5.924,1.918c-3.322,0.763-6.545,1.518-9.662,2.364
			c-2.443-3.192-6.201-0.402-9.028-2.168l-0.214-0.182c-3.753-0.896-4.591-3.917-5.14-7.06c1.345-3.096,2.341-0.585,3.401,0.226
			c0.435,0.464,0.969,0.919,1.404,1.382c1.57,0.971,2.981,2.452,5.046,0.893c0.273-0.321,0.645-0.649,0.926-0.871
			c2.891-2.422,2.717-7.089,6.562-8.79c3.365,1.026,3.128,3.037,1.743,5.638c-1.044,1.876-3.52,3.268-1.816,5.921
			C271.32,513.107,271.633,513.282,271.862,513.662z"/>
		<path fill="#091929" d="M259.095,515.776c2.089-1.263,4.366-0.149,6.601-0.826c2.523-0.799,2.301,1.41,2.428,2.994
			c-5.81,0.762-11.711,1.631-17.52,2.393c-0.633-0.447-1.744-0.657-1.139-1.801c1.108-1.085,1.756-2.929,3.943-1.709
			C255.496,518.055,257.41,517.105,259.095,515.776z"/>
		<path fill="#020A13" d="M285.633,511.667c2.068-0.265,4.046-0.423,6.114-0.687c2.005-1.057,4.263-1.436,6.454-1.412
			c1.226,0.401,2.361,0.908,4.714,1.716c-6.545,1.518-12.153,3.559-17.813,3.712C282.219,515.027,285.324,512.787,285.633,511.667z"
			/>
		<path fill="#091929" d="M219.756,522.798c-0.89,0.071-1.613-0.269-1.791-1.251c-0.162-0.784,0.392-1.326,1.1-1.183
			c0.905,0.127,2.107,0.23,2.111,1.524C221.239,522.68,220.44,522.644,219.756,522.798z"/>
		<path fill="#020A13" d="M249.466,518.536c0.343,0.57,0.794,1.231,1.138,1.802c-1.688,0.035-3.512,0.877-5.212-0.481
			C246.223,517.799,248.105,518.943,249.466,518.536z"/>
		<path fill="#FAB39E" d="M107.864,204.041c2.744,4.462,4.622,9.292,5.46,14.803c-1.223,0.894-2.543-3.183-3.548-0.813
			c-0.838,1.96,1.665,2.158,3.021,2.947c3.338,1.925,5.781,5.116,7.616,8.157c1.261,2.091-1.507-0.179-2.179,1.369
			c6.01,3.007,0.837,8.001,1.679,12.316c-11.503-13.226-22.641-26.879-28.464-43.745c-3.736-10.658-6.985-21.454-7.497-32.867
			c3.452,2.115,7.083,2.722,10.919,0.922c0.115,0.19,0.122,0.289,0.237,0.479c1.327,11.647,3.141,23.155,9.818,33.28
			C105.713,202.021,105.582,204.123,107.864,204.041z"/>
		<path fill="#091929" d="M136.484,264.704c1.328,4.177,2.656,8.354,4.083,12.523c-0.719,0.954-1.538,1.916-2.887,1.226
			c-3.692-6.378-5.53-13.204-6.502-20.397C136.121,257.662,134.523,262.57,136.484,264.704z"/>
		<path fill="#091929" d="M150.138,272.48c-0.704-1.339-1.309-2.685-2.012-4.023c-0.103-1.287-0.198-2.474-0.3-3.761
			c3.635-3.079,3.306,1.529,4.777,2.507c1.455,0.781,1.573,2.265,2.071,3.52c0.155,0.685,0.21,1.378-0.13,2.102
			C152.965,274.246,151.538,272.567,150.138,272.48z"/>
		<path fill="#091929" d="M270.575,385.28c-0.188-9.845-0.369-19.592-0.557-29.437c-1.044-3.104-0.324-6.548-1.565-9.636
			c-0.154-0.685,0.016,0.198-0.138-0.487c-0.455-1.956-1.016-4.002,1.507-4.801c2.82-0.823,2.159,2.118,3.243,3.227
			c0.28,2.268,0.47,4.644,0.75,6.912c-1.725,3.325,0.833,6.706-0.191,10.075l-0.008-0.099c-1.266,4.085,0.845,8.1-0.026,12.153
			c0.206,2.574,0.312,5.155,0.517,7.728c-1.918,2.145,0.075,4.675-0.732,7.03C272.058,387.652,270.907,386.947,270.575,385.28z"/>
		<path fill="#091929" d="M249.583,384.067c3.465,1.018,6.929,2.036,10.385,2.956c-1.139,0.688-0.194,1.31,0.051,1.888
			c-0.613,1.045-1.503,1.116-2.499,1.096c-1.293,0.004-2.824-0.472-2.757,1.614c0.051,1.889,1.475,2.273,3.073,2.345
			c1.795,0.056,3.575-0.086,5.354-0.228c2.274-0.182,4.556-0.264,6.395,1.581c-1.764,2.83,1.111,2.701,2.277,3.603
			c-1.06,1.679-2.855,1.623-4.528,1.856c-5.628,0.548-11.303,0.503-16.911,0.054c-1.522-0.377-3.112-0.349-4.385-1.343
			c-0.352-0.67-0.293-1.172,0.261-1.714c5.866-5.05,5.858-5.149,3.098-12.299C249.16,384.997,249.318,384.486,249.583,384.067z"/>
		<path fill="#091929" d="M266.737,399.53c1.681-0.134,3.255-0.359,4.936-0.493c1.985-0.059,4.207,0.362,5.742-0.358
			c2.393-1.187,3.112,0.349,4.393,1.442c0.016,0.198,0.04,0.495,0.056,0.693c0.316,1.469,1.376,2.28,2.633,3.077
			c1.693,1.259,2.048,3.223,1.012,5.198c-2.674-1.082-2.409,3.479-4.976,2.488c-0.526-0.356-1.067-0.911-1.214-1.497
			c-1.438-5.562-3.87-9.85-10.842-8.696C267.785,401.439,266.65,400.932,266.737,399.53z"/>
		<path fill="#091929" d="M294.669,399.195c-1.969,0.257-3.923,0.712-5.817,0.663c-3.377,0.071-1.463,1.611-1.064,2.874
			c-2.789,1.219-4.928,0.592-6.062-2.405l0.265-0.419C286.135,399.478,290.268,397.654,294.669,399.195z"/>
		<path fill="#091929" d="M284.973,366.204c-0.399-1.263,0.016-2.292,0.523-3.428c1.332,0.491,1.859-1.642,3.215-0.854
			c0.383,3.555-0.543,6.915-1.164,10.351C285.922,370.61,287.662,367.483,284.973,366.204z"/>
		<path fill="#091929" d="M175.568,452.819c-1.037,6.955-2.691,13.661-5.563,20.065c-3.072-7.325-0.065-14.537,0.256-21.733
			c0.372-0.329,0.76-0.459,1.155-0.491C172.69,451.654,176.028,448.599,175.568,452.819z"/>
		<path fill="#091929" d="M187.99,507.504c-2.776,2.612-5.806,4.546-9.67,4.755c-1.166-3.393-4.254-5.935-3.581-9.973
			c4.769,2.408,7.612,1.883,11.366-2.201c1.653-1.726,2.864-4.014,5.755-3.946c1.55,1.968,0.07,3.381-1.128,4.572
			c-1.653,1.726-3.315,3.352-4.968,5.078C186.42,506.533,187.516,506.546,187.99,507.504z"/>
		<path fill="#091929" d="M171.143,450.98c-0.297,0.024-0.593,0.048-0.882,0.17c-0.569,0.345-1.23,0.796-1.799,1.14
			c1.092-8.752,1.576-17.655,3.78-26.198c0.621-0.945,1.242-1.891,2.515-0.897c1.803,2.645,0.838,5.51,0.343,8.04
			C173.984,439.2,175.099,445.685,171.143,450.98z"/>
		<path fill="#091929" d="M165.335,449.252c1.091,1.208,0.822,2.823,1.32,4.078c0.866,2.122,1.04-0.681,1.665-0.332
			c0.415,1.461,0.672,3.432-1.1,3.673c-2.258,0.38-1.451-1.975-1.751-3.246c-0.269-0.875-0.249-1.873-0.328-2.863
			C165.307,450.151,165.367,449.648,165.335,449.252z"/>
		<path fill="#F3AC97" d="M88.773,158.054c1.819,0.353,4.441-0.454,4.884,2.598c0.348,1.865-0.538,3.231-2.63,3.198
			c-2.488,0-4.734-0.718-5.243-3.366C85.321,158.429,87.1,158.287,88.773,158.054z"/>
		<path fill="#091929" d="M162.212,435.06c-0.7-2.534-2.159-4.609-1.095-7.483C163.095,429.91,163.383,432.277,162.212,435.06z"/>
		<path fill="#091929" d="M310.755,251.599c-1.198-1.299-2.246-0.717-3.369,0.169c-3.833,3.095-8.575,4.768-12.759,7.193
			c-0.854-3.218,0.206-4.896,3.667-5.172c3.254-0.36,5.43-3.023,8.08-4.729c1.7-1.131,3.5-2.271,5.3-3.41
			C311.033,247.593,312.302,249.783,310.755,251.599z"/>
		<path fill="#FAA88E" d="M161.287,237.626c-2.384-1.204-4.571-2.424-6.327-4.475c-2.028,0.759-2.954-0.86-4.136-1.961
			c-1.19-1.2-2.266-2.21-4.227-1.854c-3.84,0.505-6.229-1.993-6.481-5.16c-0.565-8.322-4.265-14.799-9.912-20.723
			c-6.295-6.57-7.788-15.315-9.662-23.831c-0.454-1.956-0.414-3.951-1.834-5.531c-0.767-2.13-1.557-4.557,1.163-5.371
			c2.721-0.815,3.718,1.695,4.378,3.734c1.19,3.69,1.3,7.566,2.3,11.37c-0.7-2.534-1.103-5.091-1.308-7.664
			c-0.15-1.881-0.11-3.876,2.247-4.263c2.547-0.502,3.571,1.109,3.752,3.386c0.04,0.495,0.178,0.982,0.392,1.164
			c-0.562-2.047-0.545-4.339-3.242-5.718c-1.661-0.863-4.097-3.956,0.167-5.391c1.839-0.645,0.581-1.441,0.534-2.035
			c-0.849-6.904-0.809-13.879-1.46-20.799c-0.135-1.683,0.15-3.1-2.361-3.398c-1.91-0.246-3.041-1.948-2.91-4.05
			c0.23-4.6,0.163-9.177,0.896-13.717c0.336-2.019,0.182-5.194,3.864-5.189c1.689-0.035,0.878-1.464,0.922-2.165
			c1.022-9.643,4.183-18.66,6.834-27.835c0.93-2.066,2.294-3.669,4.078-5.007c3.805-2.196,6.708-5.714,10.62-7.819
			c5.541-4.127,11.762-7.213,17.41-11.249c2.405-2.284,5.09-2.299,7.902-0.73c2.799,2.665,3.993,5.16-0.626,7.122
			c-4.161,0.232-1.009,3.566-2.085,5.047c-2.788,1.218-5.446,2.825-7.898,4.514c-4.656,2.762-8.737,6.474-12.835,9.988
			c-4.287,3.629-3.913,9.575-6.021,14.325c-1.27,2.791-1.512,5.997-2.766,8.985c2.156-4.156,1.105-9.848,6.262-12.551
			c0.871-1.563,1.527-3.309,3.03-4.425c1.594-1.223,2.86-2.818,4.035-4.306c2.638-3.099,5.177-6.19,8.907-8.081
			c1.724-0.835,2.982-2.529,3.73-4.381c0.582-1.441,1.278-2.691,3.081-2.536c0.206,0.083,0.411,0.166,0.625,0.349
			c1.913,6.521-2.517,10.858-5.203,15.853c-1.293,2.494-0.021,5.978-3.157,7.821c-1.487-1.176-1.538-3.064-2.068-4.715
			c-0.339-1.766,0.752-3.048,1.567-5.304c-11.131,15.131-26.274,49.805-23.706,67.03c0.609-2.34,0.123-4.691,0.839-6.94
			c0.392-1.326-0.185-3.57,2.302-3.57c2.345,3.2,1.747,6.933,1.628,10.428c-0.155,4.295-0.219,8.484,0.157,11.94
			c-0.898-2.518,1.369-5.289,2.022-8.329c1.14-5.668-0.228-10.34-4.234-14.403c-2.02-4.122-0.434-7.933,1.046-11.836
			c1.289-1.298,1.938-3.143,3.228-4.441c2.523-0.799,2.54-5.581,6.53-4.206c0.605,1.346,0.312,2.664,0.323,4.058
			c-1.282,3.887-2.267,7.75-2.026,12.014c1.159-1.686,2.44-3.083,4.517-3.249c2.424,1.699,2.332,4.296,2.53,6.77
			c0.992,3.706-1.03,7.054-1.24,10.657c-0.368,1.623-0.538,3.23-0.914,4.754c-0.594,2.537-1.416,4.695-5.367,3.814
			c2.06,2.127,5.869,1.226,5.552,4.737c0.055,0.693,0.011,1.393-0.23,2.11c-0.483,1.433-1.072,2.774-2.5,3.586
			c-0.775,0.261-1.376,0.209-2.017-0.338c-1.593-1.267-0.581-3.539-1.984-4.921c1.419,1.58,0.43,4.149,2.518,5.377
			c0.791,2.427-0.009,4.881,0.485,7.332c0.095,1.187,0.19,2.375,0.186,3.57c-0.729,8.325-0.429,12.086,1.935,16.778
			c0.096-3.792-1.079-7.284,1.698-9.896c1.242-1.892,0.772-4.046,0.804-6.14c0.032-2.094-0.142-4.272,1.832-5.724
			c0.296-0.023,0.593-0.047,0.89-0.071c1.49,4.961,2.577,9.854-0.529,14.584c-1.325,2.098-0.696,3.741,0.146,5.566
			c3.606,7.78,8.16,14.986,13.664,21.619c1.428,1.679,3.721,2.99,3.44,5.701c-5.979-0.12-8.723-4.583-11.451-8.847
			c-1.803-2.645-3.583-4.993-6.675-6.34c-0.724-0.341-1.38-1.085-2.207-0.222c-0.743,0.657-0.483,1.433-0.115,2.3
			c0.589,1.148,0.988,2.411,2.329,3.001c1.348,0.689,1.854,2.043,1.364,3.377c-0.756,1.754-1.894-0.048-2.883,0.031
			c-2.883,0.031-4.588,2.358-5.526,4.325c-0.672,1.548,2.037,1.83,3.476,2.412c0.823,0.333,2.219,1.616,2.128,1.723
			C155.387,233.515,160.944,234.566,161.287,237.626z"/>
		<path fill="#FAAA92" d="M235.225,79.34c1.38-1.405,1.471-1.512,3.31,0.333c1.076,1.01,2.456,2.095,3.808,1.589
			c1.543-0.621,0.511-2.332,0.713-3.543c-0.202-3.769,1.642-5.609,5.379-4.911c1.819,0.353,1.977-0.158,1.942-1.848
			c0.047-1.896,1.535-3.21,3.326-1.958c3.049,2.048,6.513,3.066,9.72,4.603c1.653,0.765,3.049,2.048,2.432,4.288
			c-2.176,0.174-3.587-1.308-5.165-2.377c-3.674-2.396-6.209-0.501-7.546,2.693c-0.914,2.264-2.164,4.057-3.94,5.494
			c-3.445,2.964-2.828,5.704,0.161,8.254c3.523,3.006,6.105,6.684,8.505,10.576c-1.518,0.918-2.693-0.084-3.935-0.682
			c-3.428-1.818-7.62-1.982-10.724-4.722c-0.826-1.627-2.329-3.001-2.562-4.676c-0.482-3.547-2.863-3.457-5.082-2.583
			c-3.084,1.242,0.526,2.847,0.15,4.37c-1.377,5.189,0.703,8.808,4.76,12.269c6.726,5.739,13.468,11.675,20.384,17.298
			c0.739,0.539,1.396,1.283,1.862,2.142c1.795,5.037,4.721,9.285,8.307,13.083c3.701,3.987,5.694,9.007,8.256,13.683
			c0.704,1.339,1.882,1.145,2.637,1.882c-0.048,6.876,1.509,13.923-2.656,20.331c-0.886,1.365-0.4,3.717-0.456,5.514
			c-0.103,3.694-1.8,6.12-3.893,8.577c-1,1.176-1.78,2.632-3.531,1.876c-1.859-0.848-2.488-2.491-1.854-4.534
			c0.534-2.034,1.167-4.077,1.594-6.202c0.36-1.722,1.009-3.567-0.798-5.016c-0.854-0.729-2.056-0.832-2.693-0.084
			c-1.365,1.603-2.903,3.518-1.832,5.724c1.989,3.725-0.195,6.29-1.761,9.104c-1.72-0.361-2.234-1.814-2.938-3.152
			c-5.618-11.803-11.707-23.269-16.747-35.317c-1.846-4.434-4.46-8.508-7.066-12.484c-0.68-1.041-1.36-2.083-0.869-3.416
			c2.286-1.278,3.243,0.737,4.425,1.838c3.563,3.5,6.473,7.551,9.375,11.503c1,1.314,1.811,2.744,4.741,3.307
			c-3.017-1.652-4.247-3.347-4.452-5.92c-0.276-3.464-2.672-6.062-5.361-7.341c-5.165-2.377-7.735-7.152-11.131-11.064
			c-5.153-5.964-9.842-12.362-15.338-18.896c-0.368,1.623-0.349,3.116-1.464,4.101c-3.812-0.393-4.622-4.313-7.153-6.103
			c-2.895-3.852-6.6-6.644-9.858-10.07c-1.305-1.39-2.997-2.649-2.775-4.858c-1.589-9.933,1.358-14.152,11.534-15.063
			c3.46-0.276,4.596-4.749,9.072-3.513c2.338,0.61,4.857,1.007,7.135,2.12c-1.002,3.665-3.955,0.315-5.261,1.416
			c-0.668,0.352-0.941,0.673-0.81,1.061c0.332,1.667,2.36,3.397,0.493,4.941c-1.495,1.215-3.468,0.177-5.204-0.382
			c-1.432-0.483-2.721-1.675-4.623-1.822c5.828,8.2,10,9.361,18.326,5.211c3.251-1.654,6.81,0.552,10.199-0.614
			C236.818,83.097,234.829,81.862,235.225,79.34z"/>
		<path fill="#FAB19B" d="M175.076,61.23c-2.104,1.064-5.208-1.676-6.842,1.542c-6.984,2.25-13.166,5.831-17.996,11.396
			c-3.476,2.568-6.953,5.136-10.429,7.704c-1.459-2.075,0.34-3.214,1.325-4.588c-1.934,1.947-3.54,4.266-5.047,6.578
			c-0.629,0.847-1.159,1.686,0.189,2.375c-2.647,10.47-6.603,20.746-7.119,31.743c-1.527,0.819-2.341-1.905-2.582-1.188
			c-0.74,1.951-2.294,3.669-2.303,6.06c-0.095,3.792,0.814,7.704-0.583,11.401c-0.89,2.561,1.056,4.497,2.804,3.959
			c3.298-1.06,2.819,1.668,2.791,2.566c-0.072,6.58,0.441,13.013,0.962,19.545c0.119,1.484,0.336,2.961,0.652,4.43
			c0.277,0.974,0.957,2.015,0.016,2.688c-1.412,1.009-1.515-0.278-1.792-1.252c-0.245-0.578-0.83-0.431-1.202-0.103
			c-1.115,0.985-0.451,1.829,0.395,2.458c2.737,1.874,4.425,4.329,4.792,7.686c0.103,1.286,0.182,2.276-0.842,3.155
			c-1.017-1.513-1.645-3.156-1.886-4.93c-0.087-1.088-0.743-1.833-1.93-1.738c-1.483,0.118-2.005,1.056-1.902,2.343
			c0.343,3.06,0.003,6.275,1.137,9.272c0.392,1.164,1.285,2.387-0.459,4.219c-1.17-4.687-2.308-8.979-3.348-13.278
			c-0.138-0.487,0.02-0.998-0.118-1.485c-0.835-1.726-0.775-4.719-3.223-4.225c-2.456,0.396-0.752,3.048-1.021,4.663
			c-0.296,0.024-0.486,0.139-0.783,0.163c-1.044-0.614-1.419-1.58-1.605-2.661c-2.755-10.836-4.925-21.818-5.718-33.01
			c-1.847-25.649,5.077-48.611,20.14-69.334c0.91-1.069,2.353-1.682,3.156-2.841c-2.373,0.189-3.326-0.531-2.024-2.926
			c2.602-2.299,6-3.367,8.167-6.13c0.637-0.748,1.381-1.405,1.088-2.577c2.955-1.63,6.376-2.401,8.978-4.7
			c1.958-1.65,1.788-2.533-0.739-3.029c0.57-2.834,3.156-2.841,5.185-3.601c1.839-0.645,3.785-1.198,5.747-1.554
			c1.961-0.356,3.67-1.388,4.536-1.756c-3.844,1.701-9.444,1.351-14,4.105c-0.206-0.083-0.412-0.166-0.617-0.25
			c1.448-4.299,5.146-6.586,8.433-9.039c0.652-0.55,2.325-0.783,2.752-0.419c3.472,3.607,6.162-0.093,9.179-0.931
			c0.487-0.138,0.736-0.756,1.222-0.894c2.342-0.585,5.122-1.903,6.969,0.042c1.731,1.754-0.187,3.899-1.421,5.89
			c3.397,1.422,7.593,0.39,9.779,4.1c-0.909,1.069-3.709,0.894-3.156,2.841c0.684,2.336,3.188,0.045,5.062,1.09
			c-2.872,3.914-7.594,4.59-11.078,7.059C175.729,55.7,173.902,57.738,175.076,61.23z"/>
		<path fill="#212020" d="M265.304,194.469c2.637,6.861,6.618,13.117,8.579,20.232c0.423,1.56,0.055,3.183,1.261,4.58
			c1.083,1.109,0.692,2.435-0.424,3.421c-1.305,1.1-2.373,0.189-3.424-0.524c-1.159-0.804-1.97-2.233-3.31-2.824
			c-7.956-7.433-15.904-14.767-23.86-22.199c-2.353-0.809-4.251-2.151-5.14-4.57c0.075-0.305,0.158-0.511,0.134-0.808
			c-10.344-12.422-23.622-21.721-34.785-33.181c-1.945-1.936-2.463-4.684-4.211-6.636c-0.568-7.126,1.414-13.459,5.734-19.182
			c5.569-5.026,11.802-6.718,18.833-3.395c0.411,0.167,0.953,0.721,1.241,0.598c6.391-2.203,8.246,2.331,10.289,6.749
			c0.483,1.057,1.717,1.557,2.199,2.614c4.507,9.102,8.338,18.458,13.422,27.315C257.034,175.607,261.268,185.03,265.304,194.469z"
			/>
		<path fill="#FAB19B" d="M177.386,227.379c-7.6-7.96-13.788-16.928-18.267-26.929c-1.088-2.404-2.456-4.585,0.443-6.908
			c1.685-1.33,1.769-4.026,1.354-5.486c-0.929-2.914,0.06-5.483-0.153-8.155c-0.988-4.902,0.642-9.414,1.457-14.16
			c0.127-0.907,0.428-2.126,1.499-2.411c1.171-0.292,1.562,0.872,2.029,1.731c3.807,6.569,9.478,12.789,10.936,19.844
			c1.79,8.722,8.793,12.944,12.616,19.711c5.698,10.302,14.828,16.247,25.913,19.247c2.337,0.61,1.546,3.163,4.203,4.047
			c2.559,0.892,6.023,1.91,8.206,4.325c-0.376,1.524-1.088,2.577-2.915,2.125c-14.011-4.758-27.061-11.187-33.119-17.278
			c5.944,5.901,18.107,13.695,32.708,17.112c2.056,0.832,3.626-0.688,5.374-1.226c0.799,0.036,1.689-0.035,2.496,0.1
			c2.329,0.512,4.567,1.13,6.837,2.144c-6.165,1.289-12.003,5.44-18.825,1.004c-2.522-1.691-5.536,0.441-7.708,1.909
			c-2.262,1.575-3.737,1.793-5.311-0.472c-7.26-3.704-14.346-7.72-19.511-12.587c2.31,1.509,4.844,4.593,8.463,6.297
			c1.135,0.507,2.293,1.311,1.933,3.033c-3.196,4.836-7.095,0.865-9.76-0.118C184.218,233.208,179.983,231.255,177.386,227.379z"/>
		<path fill="#FAB29C" d="M281.998,154.293c-0.905-0.127-2.606,1.004-2.669,0.213c-0.573-3.441-3.705-5.282-4.756-8.485
			c-0.799-2.526-2.958-4.645-4.713-6.696c-3.306-4.019-6.801-7.923-8.019-13.205c-0.177-3.472-3.036-5.634-4.831-8.18
			c-4.377-6.224-8.845-12.342-14.982-16.932c-1.274-0.994-2.646-1.98-2.606-3.975c1.274-1.496,2.595-2.398,4.153-0.331
			c3.792,1.391,7.478,2.69,11.27,4.08c4.318,4.238,8.181,9.009,11.285,14.239c2.072,3.52,4.234,6.933,6.405,10.445
			c-2.277-3.603-4.274-7.427-6.832-10.809c-1.016-1.513-0.32-2.763,0.787-3.848c5.845,5.909,9.988,12.948,14.041,20.095
			c3.02,5.436,1.461,10.84,1.69,16.2C282.402,149.38,281.908,151.91,281.998,154.293z"/>
		<path fill="#FAAC94" d="M265.953,77.885c-1.237-4.284-5.86-3.616-8.711-5.679c-0.534-0.455-1.582,0.126-2.238-0.618
			c-0.87-0.927-1.554-3.262-3.223-1.735c-1.942,1.848,0.632,2.938,1.755,4.541c-4.093-0.171-8.894-2.976-10.489,3.227
			c-1.977,0.158-3.214-1.636-4.935-1.997c-3.943-0.781-6.829-2.045-3.519-6.691c0.803-1.16,1.27-2.79-0.968-3.409
			c-4.37-1.145-7.074-5.113-11.551-6.349c6.653-6.407,8.365-6.145,17.223-2.37c3.496,1.414,7.051,2.326,10.413,4.548
			c8.185,5.323,16.173,10.662,22.539,18.122c2.962,3.449,7.846,3.557,11.254,6.373c3.302,2.725,4.243,7.032,7.438,9.665
			c1.067,0.911,0.106,2.581-1.025,3.368c-1.989,1.254-1.859-0.848-2.622-1.683c-3.412-4.11-6.279-8.862-11.518-10.934
			c-2.575-1.089-4.572-2.424-5.774-5.017C269.259,79.414,267.788,78.436,265.953,77.885z"/>
		<path fill="#091929" d="M206.703,133.407c-2.603,2.299-2.928,5.711-4.19,8.601c-1.345,3.095-1.662,6.606-2.39,9.951
			c-3.961-7.253-6.084-15.152-8.784-22.805c-6.076-17.542-12.053-35.093-18.129-52.636c-0.138-0.487-0.557-0.752-0.893-1.224
			l-0.099,0.008c-0.748-0.638-0.803-1.33-0.372-2.162c-0.245-0.578-0.49-1.156-0.644-1.841c-0.308-1.37-1.91-2.736-0.423-4.05
			c1.207-1.092,2.262,0.915,3.564,1.011c7.584,7.761,15.168,15.523,22.858,23.375c4.002,5.258,9.945,8.668,13.484,14.362
			c-0.309,1.12-1.06,1.678-2.14,1.864c-1.795-0.056-3.167-1.042-4.251-2.151c-6.164-6.181-12.974-11.714-18.304-18.659
			c-2-2.629-4.745-4.602-7.164-7.496c7.689,20.303,14.175,40.502,21.24,60.456c0.206-2.407,1.341-4.39,2.682-6.29
			c0.637-0.748,1.38-1.405,2.369-1.483C206.015,132.267,206.45,132.73,206.703,133.407z"/>
		<path fill="#FAAF98" d="M204.779,177.883c-9.126-7.14-16.939-15.282-21.96-25.837c-0.115-0.19-0.23-0.381-0.238-0.479
			c2.694-4.897-2.051-7.008-3.712-10.362c-2.601-5.17-0.457-10.72-0.183-16.021c0.063-1.698,1.669-1.527,2.875-0.129
			c2.289,2.506,4.246,5.836,3.981,8.746c-0.337,4.509,2.079,6.109,5.104,7.859c0.938,0.523,1.974,1.038,1.665,2.158
			c-1.733,5.716,2.356,9.573,3.929,14.328C198.481,165.039,202.827,170.867,204.779,177.883z"/>
		<path fill="#FAB7A2" d="M235.224,79.34c1.384,2.38,3.148,4.53,6.529,5.754c-3.481,1.274-6.027,1.776-8.966,1.114
			c-1.819-0.353-5.232-1.973-5.79,2.255c-0.126,0.907-0.72,0.954-1.451,0.514c-1.799-1.35-3.243-0.737-5.264,0.121
			c-3.465,1.472-12.263-5.297-12.464-9.065c-0.205-2.573,1.028-2.074,2.681-1.309c2.697,1.378,5.161,3.572,8.606,3.098
			c0.067-0.404,0.249-0.618,0.217-1.013c-0.059-1.987-3.871-2.38-2.372-4.791c1.507-2.311,3.923-0.711,5.94-0.374
			c0.914,0.226,1.614,0.27,2.136-0.668C229.012,75.054,231.254,79.457,235.224,79.34z"/>
		<path fill="#FAB19B" d="M149.095,47.367c-9.773,3.469-17.652,9.476-23.858,17.74c-8.192,10.813-13.687,23.004-17.627,35.967
			c-1.899,6.128-3.099,12.299-3.179,18.78c0.012,1.393-0.079,3.99-2.401,3.578c-2.519-0.397-1.202-2.594-0.917-4.011
			c2.763-12.77,4.414-25.75,11.455-37.268c4.133-6.804,7.223-14.221,11.776-20.76c5.253-6.495,12.155-11.029,18.507-16.217
			c2.337-1.88,5.299-0.921,7.992-0.837l0.107,0.091C151.472,45.983,149.083,45.974,149.095,47.367z"/>
		<path fill="#091929" d="M156.712,155.324c0.195-3.8,1.097-7.458,2.098-11.123c2.765-6.496,4-13.467,7.177-19.796
			c0.514-1.037,0.716-2.248,1.337-3.194s0.752-3.048,2.626-2.002c1.349,0.689,0.561,2.047,0.146,3.076
			c-2.121,5.846-4.439,11.708-6.354,17.638c-3.933,13.062-4.852,26.482-4.067,40.065c-0.677,2.743-0.464,5.415-0.243,8.186
			c0.15,1.881-0.119,3.496-1.606,4.81c-1.752-0.757-2.274-2.309-2.606-3.976c-0.596-6.227-0.698-12.494,0.707-18.582
			c-0.047-0.594,0.004-1.195-0.035-1.69C155.232,164.207,155.972,159.765,156.712,155.324z"/>
		<path fill="#091929" d="M216.734,284.099c-21.66-0.862-42.952-3.347-62.72-12.925c-1.372-0.986-0.905-2.617-1.403-3.872
			c0.431-0.831,1.206-1.092,2.096-1.163c8.134,5.925,17.423,8.869,27.144,10.982c9.819,2.105,19.801,2.504,29.723,3.406
			c2.887,1.263,5.588-1.044,8.534-0.283c1.424,0.385,2.808,0.274,3.907,1.581C222.658,286.017,219.297,283.795,216.734,284.099z"/>
		<path fill="#F9B19B" d="M223.497,281.567c-3.915-1.679-8.198,0.754-12.022-1.033c1.369-0.308,2.8,0.175,3.761-1.495
			c1.31-2.295,1.167-1.587,3.461-0.276c1.981,1.137,5.117,1.783,7.047,1.032c1.641-0.629,4.204-0.933,5.126-3.099
			c0.103-1.203,0.542-1.935,1.942-1.848c3.627-3.177,8.115-3.037,12.505-2.89c1.096,0.013,2.946,0.761,3.302,0.235
			c4.949-6.57,12.537-0.004,18.019-3.629c0.569-0.344,1.257,0.796,1.526,1.671c-4.363,3.934-10.366,3.517-15.349,5.906
			c-3.738,1.792-7.519,4.285-12.015,4.046c-5.074,0.006-9.722,2.867-14.835,2.379C225.059,282.439,224.229,282.007,223.497,281.567z
			"/>
		<path fill="#FAB19A" d="M317.897,91.67c4.844,4.594,7.18,10.184,7.314,16.846c0.063,0.792-0.064,1.699,1.138,1.802
			c3.006,0.258,2.144,1.921,0.953,3.211c-1.456,1.71-1.907,3.538-1.254,5.478c2.447,6.976,1.655,14.51,3.409,21.541
			c0.431,1.659-0.522,3.428-1.914,3.439c-1.985,0.059-0.941-1.817-1.135-2.997c-0.845-5.61-1.782-11.112-2.924-16.699
			c-0.818-4.018-1.149-8.175-3.047-12.007c-1.146-4.391-1.221-9.066-2.96-13.409C316.595,96.555,315.698,94.037,317.897,91.67z"/>
		<path fill="#091929" d="M289.873,314.12c0.208-14.857,2.606-29.689,1.224-44.519c-0.142-1.781-0.185-3.571-0.327-5.352
			c0.72-0.954,1.218-2.189,2.788-1.219c0.565,5.832,1.137,11.762,1.801,17.586c-0.5,8.705-0.695,17.485-1.392,26.206
			c-0.368,4.113-0.365,7.897,3.241,10.697C293.629,318.801,291.577,316.773,289.873,314.12z"/>
		<path fill="#091929" d="M232.804,274.749c-0.645,0.649-1.297,1.199-1.942,1.848c-2.935,0.632-5.944,1.57-8.74,0.199
			c-4.761-2.309-5.852-8.497-2.497-13.844c2.824-4.509,7.621-5.489,11.951-2.348c3.599,2.701,3.017,6.632,2.526,10.456
			C234.105,272.354,233.302,273.514,232.804,274.749z"/>
		<path fill="#FAB5A0" d="M255.36,44.866c-0.692,0.055-1.285,0.103-1.977,0.158c-1.052-3.203,0.981-2.668,2.808-2.216
			c5.501-2.132,9.764,1.412,14.371,3.037c10.966,4.006,19.614,11.383,27.633,19.608c0.541,0.554,0.802,1.33,1.613,2.76
			c-5.489-1.455-8.391-5.406-11.808-8.321c-2.882-2.459-6.121-4.392-8.822-7.065c-1.083-1.109-1.783-1.153-3.065,0.244
			c-1.926,2.046-4.611,2.061-7.201,0.774c1.068-1.579,2.333-3.174-0.811-3.919C263.732,48.78,260.485,44.258,255.36,44.866z"/>
		<path fill="#091929" d="M200.124,151.96c5.294,5.254,10.878,10.387,15.801,15.97c3.831,4.375,8.299,8.003,12.934,11.219
			c4.749,3.406,7.402,7.975,10.261,12.627c-6.897-4.131-11.883-10.506-17.968-15.697c-5.552-4.737-10.566-10.213-16.118-14.95
			C202.045,158.579,200.325,155.728,200.124,151.96z"/>
		<path fill="#091929" d="M272.751,270.368c0.248,9.342,1.781,18.582,0.035,27.885c-0.261,1.714,1.103,2.601,0.925,4.109
			c-0.937,1.967,1.356,5.768-1.626,5.807c-2.488-0.001-1.19-3.69-1.553-5.752c-0.348-1.865-0.902-3.813-0.063-5.772
			c-0.366-8.337-0.832-16.667-1.198-25.004c0.059-2.993-2.301-6.39,1.061-9.148C272.704,264.794,271.755,267.857,272.751,270.368z"
			/>
		<path fill="#FAB09A" d="M256.19,42.807c-1.483,0.118-2.867,0.229-2.808,2.216c-2.073,1.46-3.655,1.586-6.518,0.62
			c-4.903-1.601-9.906-3.194-14.885-4.49c-1.933-0.543-1.882-1.145-1.886-2.439c-0.019-1.493,1.12-2.181,2.338-1.88
			C240.273,39.097,248.791,38.617,256.19,42.807z"/>
		<path fill="#091929" d="M265.304,194.469c-5.302-7.844-8.789-16.629-12.655-25.185c-2.282-4.898-6.908-8.015-8.331-13.379
			c-1.561-5.852-5.44-10.821-6.416-16.819c-0.32-0.273-0.336-0.471-0.261-0.776c0.083-0.206,0.174-0.312,0.273-0.32
			c6.334,7.064,8.65,16.142,12.881,24.271c4.697,8.987,8.816,18.22,13.232,27.43C264.45,191.25,264.881,192.909,265.304,194.469z"/>
		<path fill="#FAB49E" d="M317.678,102.643c-5.062-1.09-6.841-5.928-7.323-9.475c-1.205-8.868-7.112-15.568-8.772-23.901
			c2.725,0.48,3.694,1.399,5.896,5.307c-0.337,2.019,0.976,3.508,2.075,4.814c4.848,5.888,6.132,13.256,8.662,20.026
			C318.706,100.569,318.595,101.673,317.678,102.643z"/>
		<path fill="#FAB19B" d="M153.276,124.722c-2.16,0.371-3.243,1.752-3.679,3.779c-0.293,1.318-0.87,1.563-1.938,0.653
			c-1.289-1.192-0.517-2.748-0.636-4.232c2.213-10.934,7.929-20.354,13.34-29.849c0.439-0.732,1.206-1.092,1.997-1.155
			c2.179,1.121,1.356,3.278,1.688,4.945c-0.569,0.344-1.23,0.795-1.799,1.139c-3.699,4.777-5.135,10.469-6.465,16.253
			C155.23,119.287,155.277,122.371,153.276,124.722z"/>
		<path fill="#F9C3B2" d="M153.276,124.722c0.768-7.83,2.458-15.335,6.18-22.306c0.514-1.037,0.645-3.139,2.907-2.223
			c-4.015,10.778-5.9,22.083-7.38,33.456c-3.409-0.325-0.688-3.63-2.372-4.79C152.393,127.382,152.686,126.064,153.276,124.722z"/>
		<path fill="#F9C7B7" d="M317.678,102.643c-1.897-8.812-4.948-17.134-10.219-24.582c-0.68-1.041-3.468-2.313-0.079-3.48
			c3.721,5.48,7.639,10.944,10.419,17.097c-0.365,5.407,2.122,10.388,2.738,15.618c0.134,1.682,1.364,3.377-0.1,4.988
			C317.547,109.726,318.145,105.993,317.678,102.643z"/>
		<path fill="#091929" d="M241.215,279.158c3.733-0.597,7.19-2.167,10.433-3.92c5.256-2.71,10.967-3.464,16.508-5.102
			c0.146,0.586,0.194,1.18,0.34,1.766c-6.514,1.914-12.751,4.802-18.921,7.286c-3.951,1.61-7.435,1.589-11.176,2.087
			C237.996,278.717,240.717,280.393,241.215,279.158z"/>
		<path fill="#F9C7B8" d="M255.359,44.866c1.44-1.908,3.291-1.159,4.845-0.386c4.35,2.143,8.609,4.393,13.386,6.9
			c-1.816,0.942-3.251,1.654-4.687,2.366C263.869,51.757,259.531,48.517,255.359,44.866z"/>
		<path fill="#F8CDC0" d="M197.87,234.708c-4.334-4.435-10.313-7.045-14.742-12.668c3.647,0.805,5.647,3.434,7.957,4.943
			c5.152,3.473,9.593,7.999,16.486,8.346c1.4,0.088-0.566,1.639-0.495,2.529C203.849,237.319,200.697,236.475,197.87,234.708z"/>
		<path fill="#FAB19B" d="M152.603,128.76c1.973,1.038,0.407,3.852,2.372,4.791c0.787,1.132,1.285,2.387,1.305,3.879
			c0.197,2.475-4.24,1.733-3.485,4.96c0.13,0.388-1.74,0.636-2.677,0.114c-1.242-0.598-1.017-1.513-0.289-2.368
			c1.357-1.702,2.128-3.257,0.282-5.201c-0.977-1.018,0.047-1.897,0.807-2.356C152.33,131.57,152.935,130.426,152.603,128.76z"/>
		<path fill="#F9C2B1" d="M266.581,110.703c-0.194,1.31-0.388,2.62-0.673,4.037c-3.618-1.703-5.188-5.163-6.84-8.418
			c-0.941-1.817-2.57-2.285-3.951-3.37c-0.632-0.447-3.282-1.232-0.28-2.268c1.036,0.515,2.08,1.129,3.116,1.643
			C261.694,104.32,263.129,108.588,266.581,110.703z"/>
		<path fill="#091929" d="M267.986,219.355c0.198-0.016,0.296-0.024,0.502,0.059c2.298,0.116,3.223,4.225,5.781,2.627
			c2.741-1.813-1.858-3.338-0.928-5.404c0.249-0.618,0.399-1.227,0.649-1.845c2.198,2.614,2.178,6.101,3.7,8.968
			c0.581,1.049,0.28,2.268-0.851,3.056c-1.601,1.123-1.842-0.65-2.59-1.288C272.098,223.509,269.31,222.237,267.986,219.355z"/>
		<path fill="#091929" d="M293.55,262.932c-0.965,0.375-1.922,0.85-2.788,1.218c0.036-0.8-0.027-1.591,0.008-2.391
			c0.831-2.058-2.146-5.705,1.117-5.965c2.471-0.198,1.601,3.856,1.774,6.033C293.693,262.223,293.626,262.627,293.55,262.932z"/>
		<path fill="#091929" d="M238.985,192.584c1.898,1.343,3.887,2.579,5.14,4.57C241.136,197.094,238.601,196.499,238.985,192.584z"/>
		<path fill="#FAB19B" d="M196.28,43.902c-1.507,2.311-3.136,1.844-5.13,1.804C192.559,43.402,194.188,43.87,196.28,43.902z"/>
		<path fill="#F9BEAD" d="M229.587,233.174c-1.12,2.181-2.646,3-4.865,1.384c0.934-0.772,1.875-1.444,2.809-2.216
			C228.254,232.683,228.97,232.924,229.587,233.174z"/>
		<path fill="#EFA088" d="M346.92,126.206c2.685-0.015,4.583,1.327,4.713,4.205c0.115,2.68-1.104,4.869-4.291,4.825
			c-2.99-0.061-5.117-1.783-5.346-4.653C341.652,127.522,343.954,126.442,346.92,126.206z"/>
		<path fill="#F3A58E" d="M202.776,25.555c-0.078-3.48,1.132-5.767,4.699-5.952c2.48-0.098,4.157,0.963,4.271,3.643
			c0.162,3.274-1.215,5.973-4.667,6.348C204.326,30.013,202.966,27.931,202.776,25.555z"/>
		<path fill="#FAB29C" d="M119.416,174.235c2.504,0.198,2.06,2.126,2.286,3.702c1.307,10.154,3.999,20.198,11.33,27.283
			c5.927,5.702,7.322,11.965,8.104,19.273c0.15,1.881,2.29,4.997,5.525,3.145c1.997-1.155,2.717,0.381,3.677,1.201
			c1.693,1.259,2.377,3.595,4.623,4.312c-0.119,1.006-2.369,1.484-0.973,2.767c1.396,1.283,1.795,2.546,0.193,3.67
			c-1.511,1.017-2.42-0.405-3.381-1.225c-8.506-8.086-16.624-16.303-22.147-26.918c-5.982-11.375-11.287-23.003-14.762-35.375
			c-0.284-1.073-0.379-2.261-0.573-3.441c0.855-1.761,2.156-1.665,3.611-0.885c0.419,0.265,0.649,0.645,0.787,1.132
			c0.17,0.883,0.34,1.766,0.905,2.617C118.993,175.165,118.946,174.571,119.416,174.235z"/>
		<path fill="#FAB5A0" d="M99.524,148.132c1.574-0.225,0.624,2.839,2.135,1.822c5.581-3.633,3.963,2.273,3.958,3.469
			c0.478,9.723,2.62,19.113,5.735,28.227c1.557,4.557,1.754,9.521,4.194,13.908c0.941,1.818-2.259,2.87-3.774,5.082
			C102.192,184.074,100.466,166.184,99.524,148.132z"/>
		<path fill="#FABDAB" d="M132.483,63.632c-0.194,3.8,2.08,1.129,3.373,1.125c0.091,2.383-1.199,3.681-2.899,4.813
			c-2.61-0.29-2.405,2.284-3.398,3.558c-8.192,10.813-13.702,22.806-16.326,36.063c-0.135,0.807-0.368,1.623-1.227,2.09
			c-0.205-0.084-0.403-0.068-0.708-0.143c-2.874-7.34-0.46-14.505,2.527-20.719c4.007-8.387,8.41-16.806,14.81-23.89
			C129.734,65.345,130.605,63.782,132.483,63.632z"/>
		<path fill="#FABDAB" d="M117.281,172.413c-1.285,0.103-2.748-0.777-3.955,0.316c-5.265-16.114-5.29-32.646-4.426-49.248
			c0.262-4.204,0.318-8.492,2.497-12.351l0.107,0.091c2.444,3.192,0.43,6.639,0.295,9.937c-0.282,10.182,0.021,20.217,1.329,30.372
			C114.092,158.624,117.207,165.248,117.281,172.413z"/>
		<path fill="#F8D3C9" d="M107.864,204.04c-0.044,0.701,0.225,1.576-0.048,1.896c-0.91,1.069-1.408-0.186-1.744-0.657
			c-3.862-7.262-8.781-14.04-9.749-22.429c-0.608-5.131-3.293-10.096-1.224-15.341c2.819,1.668,2.578,4.874,3.08,7.424
			C100.179,185.032,103.341,194.74,107.864,204.04z"/>
		<path fill="#F8D5CB" d="M149.095,47.367c-1.162-2.098,1.654-1.725,1.741-3.127c4.548-2.853,11.928-5.135,17.283-5.363
			c-3.884,3.696-3.884,3.696-12.368,5.867c-2.044,0.562-4.105,0.925-5.774,2.453C149.787,47.311,149.392,47.343,149.095,47.367z"/>
		<path fill="#FABDAB" d="M141.738,54.926c1.4,0.088,2.65,0.785,1.261,2.091c-3.065,2.735-5.648,6.526-10.516,6.616
			C134.006,59.029,138.475,57.676,141.738,54.926z"/>
		<path fill="#091929" d="M159.099,332.421c4.289,12.606,8.677,25.204,12.966,37.809c2.985,8.726,5.969,17.452,8.946,26.079
			c-0.597,1.243-1.891,1.247-2.97,1.432c-5.409-12.915-9.555-26.229-13.998-39.52c-2.74-8.148-5.38-16.303-8.021-24.459
			c-0.569-2.146-2.016-5.317,0.12-5.986C159.737,326.693,157.027,331.391,159.099,332.421z"/>
		<path fill="#091929" d="M137.574,278.363c0.965-0.376,1.922-0.851,2.887-1.227c5.728,13.189,9.906,26.899,14.282,40.593
			c0.85,1.925,0.925,4.11,1.874,6.026c0.482,1.057,0.099,2.482-1.064,2.874c-1.847,0.546-1.586-1.168-1.665-2.158
			c-0.11-1.386-1.087-2.403-1.668-3.453C147.31,306.868,142.491,292.612,137.574,278.363z"/>
		<path fill="#091929" d="M152.219,321.018c2.452,0.801,1.752,3.247,3.052,5.833c1.899-3.638-1.304-6.37-0.421-9.03
			c2.158,4.608,3.739,9.462,4.249,14.601c-2.14-0.627-0.482-3.548-2.827-4.257c-1.044,1.876,0.11,3.876-0.242,5.697
			C154.694,329.586,153.456,325.302,152.219,321.018z"/>
		<path fill="#091929" d="M174.232,424.838c-0.668,0.352-1.329,0.803-1.997,1.155c-0.328-5.352,0.037-10.76,0.607-16.084
			c1.388-1.306,1.733-5.716,4.948-1.59c1.688,4.945,0.394,9.929-0.002,14.94C177,424.617,175.869,425.404,174.232,424.838z"/>
		<path fill="#091929" d="M181.544,404.235c-0.182,0.213-0.471,0.336-0.768,0.36c-0.751,0.558-1.602,1.124-2.59,1.202
			c-0.487,0.139-0.981,0.178-1.475,0.218c-1.424-0.385-2.721,0.814-4.161,0.232c-0.32-0.273-0.64-0.547-0.961-0.82
			c0.249-0.617,0.376-1.524,0.756-1.753c3.259-1.555,6.534-2.912,9.808-4.269c0.107,0.091,0.222,0.281,0.23,0.38
			c0.818,1.529,4.421,0.544,3.463,3.509C185.146,405.74,182.687,402.351,181.544,404.235z"/>
		<path fill="#091929" d="M172.55,406.247c1.215-0.993,2.559-1.599,4.181-1.23c0.771,0.935,0.85,1.924-0.076,2.795
			c-2.491-1.295-2.1,2.359-3.904,2.204C172.748,408.721,172.645,407.435,172.55,406.247z"/>
		<path fill="#091929" d="M218.952,510.214c-1.519-1.572-0.573-3.441-0.517-5.238c-0.337-0.471-0.376-0.966-0.218-1.477
			c3.26-4.044,4.897-8.458,3.779-13.747c-0.308-1.37-0.237-2.969,0.962-4.16c2.198,0.123,2.135,1.821,2.55,3.282
			c0.209,3.868,1.019,7.787-0.306,12.375c3.524-1.974,4.382-4.931,4.853-7.757c0.665-4.137,2.038-8.131,2.901-12.283
			c3.362-2.759,3.635-5.569,0.966-10.336c-0.058-6.968,2.205-13.523,2.953-20.355c0.119-1.006,0.649-1.845,1.713-2.228
			c0.586-0.147,1.096,0.012,1.515,0.277c1.771,4.739,0.797,9.996,3.055,14.597c-0.733,9.52-3.91,18.339-7.795,27.016
			c-1.436,3.202-1.785,6.317-0.132,9.572c0.949,1.916,2.262,3.405,4.611,2.919c2.258-0.38,3.211-2.149,3.334-4.35
			c0.218-3.503-0.453-6.936-0.532-10.415c-0.067-2.087-0.842-4.316,1.314-5.982c0.205,0.084,0.51,0.159,0.716,0.242
			c0.24,4.264,0.275,8.444,0.911,12.676c0.676,4.727,0.126,9.054-3.454,12.825c1.431,0.484,2.566,0.991,3.792,1.391
			c-7.293,8.351-11.458,7.289-20.196-4.962C223.504,506.165,221.61,508.607,218.952,510.214z"/>
		<path fill="#091929" d="M283.667,510.728c-2.384-1.204-4.496-2.729-5.69-5.223c-0.589-1.148-1.352-1.984-2.657-0.884
			c-0.075-2.185,0.914-4.754,3.172-7.623c3.35,3.318,6.03,6.989,7.01,11.791C284.858,509.438,284.213,510.087,283.667,510.728z"/>
		<path fill="#091929" d="M285.403,508.796c-2.68-3.67-5.163-7.356-6.994-11.593c-0.229-0.38-0.261-0.776,0.103-1.203
			c1.978-0.158,2.013,1.532,2.8,2.665c1.451,1.976,2.198,5.103,5.658,4.827c1.361-0.407,2.622-0.807,3.983-1.214
			C289.027,504.324,288.71,507.835,285.403,508.796z"/>
		<path fill="#020A13" d="M261.433,482.721c-1.096,2.478-1.468,5.296-3.287,7.434c-1.337-1.786,0.016-4.782-2.566-5.971
			c3.003-10.996,5.999-22.092,7.38-33.457c0.629-0.847,0.048-1.896,0.373-2.818c0.332-0.823,0.878-1.465,1.783-1.338
			c0.7,0.044,1.159,0.804,1.108,1.406c0.086,3.579,2.589,6.268,3.245,9.502c0.257,1.972,0.209,3.868-0.638,5.728
			c-0.514,1.037-0.815,2.256-1.329,3.293c-4.461,3.942-4.355,4.033-4.98,6.174C261.687,475.928,261.256,479.249,261.433,482.721z"/>
		<path fill="#091929" d="M253.08,490.26c-1.784,1.338-2.164,4.057-4.96,5.177c-1.308-5.175-1.422-10.345-1.932-15.484
			c-1.392,0.012-0.664,1.647-1.629,2.023l-0.412-0.167c-3.178-4.925-1.109-10.17-1.124-15.348
			c0.783-5.142,0.966-10.336,1.445-15.553c0.23-2.11,0.262-4.204,1.611-6.005c1.542-0.621,1.941,0.642,2.416,1.6
			c1,3.805,0.007,7.569-0.089,11.361c-0.116,7.28-1.311,14.746,1.737,21.774c0.842,1.825,1.534,4.26,0.656,5.724
			C249.165,488.58,251.593,489.084,253.08,490.26z"/>
		<path fill="#091929" d="M253.08,490.26c-1.02-0.317-2.032-0.535-3.053-0.852c-1.736-0.559-2.511-2.788-1.447-3.172
			c4.331-1.839,1.737-4.421,0.697-6.231c-3.93-6.857-1.92-14.089-1.788-21.171c1.119,0.309,1.487,1.176,1.665,2.158
			c-0.02-1.493-1.349-3.18,1.416-4.695c0.561,4.537,1.197,8.769,0.852,13.179c0.225,6.556-0.836,13.214,1.465,19.604
			C253.025,489.567,253.057,489.963,253.08,490.26z"/>
		<path fill="#020A13" d="M258.003,490.863c-4.485,6.135-3.98,12.469-1.169,19.018c-1.377,0.209-0.585-2.344-2.227-1.715
			c-3.045-0.753-0.865-4.612-3.341-5.71C251.2,497.88,254.614,492.03,258.003,490.863z"/>
		<path fill="#091929" d="M251.168,502.464c3.995,0.18,2.104,3.916,3.341,5.71c0.162,3.274,2.131,5.507,4.48,7.511
			c-2.539,0.601-4.232-0.658-4.908-2.895C253.006,509.29,251.263,506.142,251.168,502.464z"/>
		<path fill="#091929" d="M219.969,473.081c-0.537,0.74-1.075,1.48-1.621,2.121c-3.801,3.491-6.428,7.983-9.909,11.747
			c-1.281,1.397-2.555,2.893-3.828,4.389l0.098-0.008c-7.158,5.053-9.844,10.048-8.208,15.595c-1.649,0.53-1.55-1.968-3.025-1.751
			c-2.804-1.47-3.441,1.769-5.379,2.421c-1.416-0.285-2.839-0.67-3.951-0.88c1.334-4.489,7.234-5.358,7.821-10.484
			c1.519-3.408,5.181-4.896,6.922-8.022c5.6-7.12,11.842-13.694,17.024-21.079c2.144-3.06,3.686-6.171,3.988-9.88
			c0.241-0.716,0.597-1.243,1.265-1.595c3.943-1.709,4.304-5.921,6.555-8.889c1.384-2.601,1.618-5.906,3.932-8.083
			c3.555-1.578,3.836,0.69,3.029,3.046c-0.958,2.964-1.915,5.929-3.589,8.652c-2.278,3.867-2.631,8.178-3.996,12.271
			c-0.273,2.811-2.298,4.865-3.501,7.251c-0.356,0.527-0.818,0.962-1.281,1.397C221.571,471.957,220.606,472.333,219.969,473.081z"
			/>
		<path fill="#091929" d="M203.75,509.235c4.833-1.78,9.773-3.469,14.606-5.249c0.023,0.297,0.047,0.594,0.079,0.99
			C213.847,507.334,209.567,511.061,203.75,509.235z"/>
		<path fill="#091929" d="M202.167,511.852c-3.262-2.23-5.089-5.172-4.594-10.191C199.289,505.707,200.249,509.017,202.167,511.852z
			"/>
		<path fill="#091929" d="M278.65,496.488c-0.083,0.205-0.158,0.51-0.143,0.708c0.032,2.886-1.27,5.281-3.188,7.426
			c-1.148,3.079-2.295,6.159-4.265,8.905c-1.827,2.039-1.977,0.158-2.171-1.022c-0.525-2.846,1.729-4.52,3.078-6.321
			c1.697-2.426,1.017-3.467-1.245-4.382c-0.993-1.216-0.791-2.427-0.3-3.761c1.313-3.491,1.433-6.987,0.943-10.633
			c-0.463-2.055,3.982-1.214,2.27-3.966c0.451-1.829,1.405-3.598,1.148-5.57c0.555-8.012,3.332-15.604,4.184-23.64
			c0.613-6.025,0.725-12.109,2.549-17.932c0.249-0.617,0.498-1.235,0.854-1.761c0.985-1.374,0.337-4.509,2.445-4.279
			c2.207,0.223,1.941,3.132,2.091,5.013c0.186,3.57,0.561,7.026-1.025,10.838c-2.501,6.076-4.495,13.506-2.546,19.227
			c2.103,6.406-0.986,11.333-0.841,16.899c-0.617,2.241-1.128,4.572-1.745,6.813C278.718,491.104,280.774,494.426,278.65,496.488z"
			/>
		<path fill="#091929" d="M201.077,369.709c1.249,0.697,2.499,1.395,3.741,1.993c1.953,2.035,3.625,4.292,5.389,6.442
			c0.779,1.034,1.558,2.067,1.57,3.461c0.604,1.346,0.493,2.45-1.148,3.079c-1.55,0.522-2.986,1.234-4.085,2.418
			c-0.653,0.55-1.405,1.108-2.279,1.377c-1.459,0.415-2.096,1.163-1.665,2.822c0.53,1.651,1.257,3.286,1.787,4.937
			c0.138,0.487,0.17,0.882,0.11,1.385c0.569,4.636-3.753,4.084-6.016,5.659c-0.676,0.254-1.269,0.301-1.977,0.158
			c-2.341-1.905-6.517,0.62-7.937-3.45c0.179-1.509-0.434-2.954,0.147-4.394c-0.533-5.436-0.579-11.01-2.291-16.252
			c-0.973-2.213-0.509-5.138-2.645-6.96l0.008,0.099c-0.668-2.138,0.598-3.733,2.025-2.054c2.756,3.366,4.354,0.948,6.328-0.505
			c2.021-0.858,4.18-1.23,6.249-1.494C199.582,368.434,200.064,369.491,201.077,369.709z"/>
		<path fill="#091929" d="M191.807,370.747c0.332,1.667-2.262,1.575-2.013,3.448c0.055,0.692-0.673,1.547-1.685,1.329
			c-1.013-0.218-0.696-1.239-0.85-1.924c-0.546-1.849-1.139-4.292-3.374-1.125c-3.269-4.819-4.032-10.635-5.949-15.96
			c-2.585-7.463-4.783-15.056-7.08-22.642c-0.375-0.966-0.858-2.023,0.388-2.62c1.914-0.95,1.89,1.243,2.744,1.972
			c4.539,9.498,6.57,19.993,10.045,29.875c0.905,2.617,1.712,5.242,3.242,8.208c2.401-3.578,1.31-7.276,2.145-10.53
			c0.609-2.339,1.907-3.538,4.481-2.449C193.738,362.525,192.875,366.678,191.807,370.747z"/>
		<path fill="#091929" d="M173.988,333.225c-1.234-0.5-2.839-3.16-3.132,0.648c-4.507-11.593-8.132-23.355-11.764-35.217
			c0.878-1.464,2.653,2.08,3.239-0.557C166.83,309.593,170.356,321.363,173.988,333.225z"/>
		<path fill="#091929" d="M162.323,298.001c-0.392,3.816-2.183,0.074-3.239,0.557c-2.984-8.726-5.969-17.452-8.953-26.178
			c1.705-2.327,2.626,0.488,3.927,0.583C157.406,281.262,160.252,289.501,162.323,298.001z"/>
		<path fill="#091929" d="M188.715,395.596c0.134,1.682,0.375,3.456,0.509,5.138c0.063,0.792,0.028,1.592-0.107,2.399
			c-0.067,0.404-0.241,0.717-0.613,1.045c-2.373,0.189-4.706,0.873-7.067-0.034c0.111-3.594,2.899,0.167,3.785-1.198
			c0.206-2.407-3.488-1.316-3.085-3.738C185.839,400.705,188.615,400.584,188.715,395.596z"/>
		<path fill="#091929" d="M183.778,372.384c3.587,1.307,2.341,4.395,2.645,6.96C185.352,377.139,183.893,375.064,183.778,372.384z"
			/>
		<path fill="#091929" d="M289.873,314.121c2.211,1.516,4.52,3.025,7.229,3.307c4.187,6.339,3.981,8.746-1.841,13.095
			c-2.254,1.674-3.908,3.399-3.671,6.369c-0.356,0.526-0.878,1.464-1.396,1.207c-6.295-4.08-9.978,0.895-14.214,3.922
			c-0.933,0.772-1.966,1.551-2.899,2.323c-0.601-0.052-1.293,0.004-1.895-0.048c-1.316-0.293,1.915-3.44-1.383-2.38
			c-2.136,0.669-0.503,2.431-0.499,3.725c-2.033,1.955-4.841,1.681-7.258,2.571c-0.941,0.673-1.973,1.453-2.993,1.136
			c-2.255-0.817-0.582,1.44-1.456,1.709c-3.619,0.787-7.245,1.475-10.987,1.972c-0.213-0.182-0.419-0.265-0.632-0.447
			c0.111-1.105-0.569-2.146,0.439-3.223c6.06-6.359,12.242-12.43,20.745-15.598c3.861-3.994,9.433-5.235,13.752-8.468
			c0.66-0.451,1.1-1.183,1.333-1.998C284.992,320.287,290.406,319.556,289.873,314.121z"/>
		<path fill="#091929" d="M276.071,341.914c-0.558-0.752-2.27-1.014-0.281-2.268c3.41-2.165,7.562-2.496,10.972-4.66
			c2.839-1.82,2.293,3.801,4.828,1.905c0.355,6.944-1.2,13.642-2.253,20.399c-0.937-0.523-1.404-1.382-1.285-2.388
			c0.198-2.505-1.408-0.186-1.851-0.748c0.029-5.879,2.264-11.535,1.47-17.747C283.301,337.752,280.283,341.08,276.071,341.914z"/>
		<path fill="#091929" d="M286.201,354.154c0.949-0.574,0.716-2.248,2.496-2.39c0.241,1.773,0.49,3.646,0.731,5.419
			c-1.084,1.382-0.653,3.04-0.626,4.632c-1.348-0.689-0.629,5.827-3.215,0.854C285.769,359.965,285.936,357.063,286.201,354.154z"/>
		<path fill="#091929" d="M282.489,482.237c-0.834-4.216,1.346-8.075,1.616-12.18c0.043-0.701,0.039-1.995-0.38-2.261
			c-1.044-0.614-1.091,1.282-2.27,1.476c0.227-8.384,0.568-16.579,3.238-24.262c1.797-4.924,0.544-9.406,0.505-14.88
			c-1.408,2.303-0.724,4.639-2.615,5.885c-0.328-0.372-0.846-0.629-0.886-1.124c-0.532-7.926-1.856-15.788-0.297-23.681
			c1.511-1.017-1.257-3.286,1.183-3.879c1.467-0.317,1.693,1.259,2.63,1.782c3.322,1.727,2.601,5.171,3.218,7.91
			c1.395,6.263,0.212,12.633-0.133,17.042c0.633-4.532,1.223-10.854,0.224-17.149c-0.218-1.476-0.724-2.83-0.043-4.279
			c0.439-0.732,0.993-1.274,2.005-1.056c2.913,10.325,1.148,20.625-0.519,30.917c-1.852,11.701-4.108,23.335-6.158,35.052
			C283.538,479.166,283.573,480.856,282.489,482.237z"/>
		<path fill="#091929" d="M289.582,412.747c0.019,6.473,0.837,12.981-0.24,19.442c-0.269,1.615-0.447,3.123-1.658,5.411
			c0.785-10.123,1.138-19.414-2.365-28.397c-0.636-1.742,1.476-5.197-2.858-4.652c-0.012-1.394-2.48-2.392-0.727-4.126
			c1.55,1.968,3.847,2.084,6.062,2.405c0.024,0.297,0.154,0.685,0.178,0.982C287.526,406.935,290.128,409.616,289.582,412.747z"/>
		<path fill="#091929" d="M278.651,496.487c1.103-2.378-0.541-5.534,2.093-7.437c-1.381,6.385,1.272,10.954,6.325,14.435
			c-2.448,0.494-4.01-0.377-5.722-3.129C280.545,499.026,280.485,497.038,278.651,496.487z"/>
		<path fill="#091929" d="M289.582,412.748c-0.633-2.937-3.82-5.472-1.502-8.844c1.194,2.494,2.677,4.866,2.609,7.76
			C290.218,412,289.847,412.329,289.582,412.748z"/>
		<path fill="#091929" d="M273.731,361.224c0.028-3.388-2.926-6.738,0.191-10.075C274.092,354.522,274.558,357.871,273.731,361.224z
			"/>
		<path fill="#091929" d="M273.705,373.377c-0.027-4.081-1.94-8.112,0.026-12.153C273.948,365.191,275.07,369.284,273.705,373.377z"
			/>
		<path fill="#091929" d="M257.838,350.341c-0.779-1.034-2.459-0.9-3.013-2.848c2.337,0.611,4.492,1.435,6.612,0.569
			c0.463-0.436,0.867-0.368,1.301,0.095c-2.08,1.361-1.206,3.582-1.468,5.296c-1.231,8.266-2.355,16.622-4.065,25.125
			c-1.624-4.153-3.93-6.858-8.553-6.19c-0.842-1.825,0.617-2.241,1.658-2.921c1.945-0.554,3.492,0.12,5.101,1.585
			C255.847,364.045,257.897,357.308,257.838,350.341z"/>
		<path fill="#091929" d="M262.837,348.149c-0.403-0.067-0.897-0.028-1.301-0.095c2.361-1.583,5.098-2.2,7.859-2.52
			c0.276,3.464,0.453,6.936,0.722,10.301c-0.407-1.362-0.723-2.83-1.229-4.184c-0.538-1.75,0.657-6.726-3.658-2.199
			C265.048,349.666,263.668,348.581,262.837,348.149z"/>
		<path fill="#091929" d="M250.621,369.641c-0.621,0.946-1.25,1.793-1.772,2.731c-0.787,1.358-1.665,2.822-2.453,4.18
			c-0.411-0.166-0.731-0.44-0.96-0.82c-0.921-2.815,0.341-5.704-0.078-8.46c0.553-0.542,1.238-0.696,1.93-0.751
			C249,366.783,250.356,367.571,250.621,369.641z"/>
		<path fill="#091929" d="M249.584,384.066c0.023,0.297,0.055,0.693,0.079,0.99c-3.477,0.078-5.446-2.155-6.466-4.962
			c-0.636-1.742,0.309-3.61,2.674-3.899c0.206,0.084,0.321,0.274,0.526,0.357C243.838,380.64,248.01,381.802,249.584,384.066z"/>
		<path fill="#091929" d="M245.772,376.203c-5.019,5.679,1.7,6.339,3.898,8.952c5.097,5.271,3.637,10.666-3.854,14.052
			c-0.495,2.53-2.511,2.193-4.307,2.137c-2.792-0.076-5.517-0.556-8.198-1.737c-3.816-1.687-3.475-4.902-3.036-8.124
			c-0.592-7.423-1.497-15.02,2.325-21.998c2.132-1.963,5.296-2.215,7.427-4.178c0.958-0.475,1.938-0.653,2.943-0.533
			c1.423,0.384,2.285,1.212,2.305,2.704C248.577,370.203,245.436,373.242,245.772,376.203z"/>
		<path fill="#091929" d="M233.873,399.165c3.963-0.217,7.874,2.658,11.837-0.048c1.4,0.087,2.942-0.534,4.14,0.765
			c-4.844,0.387-2.484,3.784-2.599,6.084c0.418,7.735-2.154,15.41-0.64,23.158c0.047,0.594-0.218,1.013-0.696,1.251
			c-1.91-0.246-1.764-2.15-2.649-3.275c-2.037-1.829-3.017-4.142-2.637-6.861c0.38-2.72-0.965-4.604-3.068-6.03
			c-0.577-2.245-0.166-4.569-0.347-6.845c-0.122-2.779-1.004-5.099-3.329-6.806C233.648,400.079,233.707,399.576,233.873,399.165z"
			/>
		<path fill="#091929" d="M196.481,403.143c0.593-0.047,1.277-0.201,1.87-0.249c6.605-2.021,13.32-2.656,20.13-2.104
			c1.578,1.07,0.645,1.841-0.403,2.423c-1.527,0.819-3.291,1.159-4.81,2.077c-4.445,1.649-6.625,5.508-8.599,9.451
			c-1.724,3.324-3.038,6.816-4.245,10.398c-0.708,4.837-2.437,9.357-3.146,14.195c-0.119,1.005-0.542,1.935-1.736,1.931
			c-1.151-0.705-1.056-2.007-1.34-3.08c1.109-11.045,5.393-20.948,11.429-30.095c0.886-1.365,2.306-2.275,2.437-4.377
			c-6.513-0.576-12.988,1.833-19.457,0.556c-0.115-0.19-0.238-0.479-0.155-0.685C190.976,401.491,193.764,402.762,196.481,403.143z"
			/>
		<path fill="#091929" d="M194.103,438.193c1.242,0.598,1.139,1.802,1.332,2.981c1.325,2.883,0.161,5.764-0.408,8.599
			c0.208,6.357-1.378,12.659-1.17,19.017c-0.475,4.022-0.654,8.02,0.461,12.015c0.684,2.336,0.387,4.849-0.527,7.113
			c-0.621,0.946-1.258,1.694-2.575,1.401c-1.908-10.206-0.934-20.443-0.248-30.557C191.609,451.838,191.848,444.847,194.103,438.193
			z"/>
		<path fill="#091929" d="M177.513,404.855c1.087-0.087,2.175-0.173,3.262-0.26c1.288,13.642-1.139,26.883-3.252,40.299
			c-0.21,1.112-0.214,2.308-1.353,2.996c-0.526-0.356-0.854-0.729-1.1-1.307c-0.711-6.417,1.584-12.576,1.474-18.942
			C178.934,420.18,178.425,412.551,177.513,404.855z"/>
		<path fill="#091929" d="M175.847,446.322c0.138,0.487,0.276,0.974,0.316,1.469c0.34,1.766,0.573,3.44-0.602,4.928
			c-0.36-0.768-0.463-2.054-1.768-0.954c-1.396,1.207-2.234,0.676-2.657-0.884c1.397-8.677,3.198-17.286,2.989-26.134
			c0.859-0.467,1.816-0.942,2.674-1.409c1.708,1.458,0.13,2.878,0.15,4.371c0.189,4.865-0.725,9.619-1.442,14.358
			C175.337,443.674,175.143,444.984,175.847,446.322z"/>
		<path fill="#091929" d="M191.308,489.211c0.569-0.344,1.23-0.795,1.799-1.139c1.661,0.863,1.555-1.718,2.864-1.523
			c1.234,0.499,2.368,1.006,3.147,2.039c-1.511,3.507-4.655,5.252-7.463,7.468c-0.475-0.958-0.85-1.924-1.325-2.882
			C190.524,491.864,190.414,490.478,191.308,489.211z"/>
		<path fill="#091929" d="M233.412,358.465c-0.802-3.821-2.894-6.343-6.603-7.939c-2.681-1.181-4.84-3.3-6.255-6.075
			c-1.056-2.007,1.396-3.697,0.341-5.704c-0.064-0.792-0.226-1.576-0.487-2.352c-0.383-1.065-2.285-1.212-1.719-2.851
			c0.886-1.365,2.416-0.89,3.67-1.388c1.831-0.744,2.187,1.22,3.23,1.834c0.214,0.182,0.428,0.364,0.649,0.645
			c0.443,0.562,0.878,1.026,0.941,1.817c0.455-0.534-0.02-1.492,0.74-1.951c0.676-0.253,1.277-0.202,1.902,0.147
			c2.559-1.598,4.137-0.529,4.737,2.013c0.609,2.64,1.234,5.479,1.257,8.266c-0.052,3.091,1.289,3.682,3.919,2.974
			c4.18,1.26,4.539,2.028,2.581,6.168c-1.76,1.635-3.093,3.634-5.082,4.888C235.813,359.867,234.595,359.566,233.412,358.465z"/>
		<path fill="#020A13" d="M219.336,401.519c-7.028,0.461-13.957,0.914-20.984,1.375c0.629-0.847,0.957-2.965,1.886-2.541
			c3.749,2.091,2.413-2.185,3.857-2.798c1.131-0.787,2.562-0.304,3.733-0.596c1.954-0.455,4.955,0.999,5.592-2.239
			c0.645-3.139-2.553-7.067-5.674-7.516c-0.707-0.142-1.309-0.194-1.751-0.756c0.645-3.139,5.366-1.325,5.79-4.745
			c2.527,2.986,4.203,6.537,4.594,10.191c0.679,6.022,4.547,4.617,8.36,5.01c4.504,0.338,4.999-2.191,5.438-5.413
			c-0.143,3.198,1.158,5.784,3.598,7.681c0.023,0.297,0.055,0.692,0.079,0.989C229.297,402.915,224.299,402.617,219.336,401.519z"/>
		<path fill="#091929" d="M193.62,358.551c-1.894-0.048-3.1,1.045-4.192,2.327c-1.692-3.75-1.68-7.336,1.049-10.542
			c1.82-2.137,4.754-2.769,6.736-1.633c2.499,1.394,4.437,0.742,6.762-0.041c0.648,3.135-2.828,3.213-3.156,5.331
			c-0.507,1.136-1.67,1.528-2.397,2.383C196.895,357.195,195.973,359.36,193.62,358.551z"/>
		<path fill="#091929" d="M282.346,323.287c0.632,2.937-1.8,3.629-3.615,4.571c-3.813,2.097-7.649,3.897-11.577,5.804
			c2.658-1.607,3.366-3.954,3.228-6.931c-0.228-5.36,0.037-10.76,0.113-16.044c0.728-0.855,1.31-2.296,2.887-1.227
			c1.676,6.042-0.405,12.383,1.097,18.737C277.588,327.252,279.565,324.604,282.346,323.287z"/>
		<path fill="#091929" d="M241.188,353.661c3.742-2.987,0.27-4.105-1.454-5.76c0.408-3.618,3.049-0.442,4.568-1.36
			c0.471-0.337,0.545,1.849,0.221,2.771c-0.657,1.745-0.174,2.803,1.744,3.148l-0.107-0.092c2.06,2.127,1.878,4.831,1.391,7.459
			c-0.396,2.522-0.207,4.897,0.082,7.264c-0.783,0.162-1.566,0.324-2.456,0.395c-0.854-0.728-1.602-1.366-2.456-2.094
			c-1.206-1.398-0.937-3.013-0.363-4.553C243.43,358.064,242.655,355.835,241.188,353.661z"/>
		<path fill="#020A13" d="M197.536,355.251c0.688-1.35,2.104-1.064,3.274-1.357c3.136,3.136,3.405,6.501,0.814,10.194
			c-1.25,1.793-1.397,3.697-0.547,5.621c-0.914-0.226-1.827-0.452-2.65-0.785c-1.557-2.066-0.719-4.026,0.12-5.985
			C199.817,360.148,199.513,357.583,197.536,355.251z"/>
		<path fill="#091929" d="M233.412,358.465c1.119,0.309,2.215,0.321,3.255-0.359c2.159,2.118-0.096,6.282,3.491,7.59
			c-1.404,3.598-4.845,2.876-7.566,3.691C234.704,365.931,234.808,362.238,233.412,358.465z"/>
		<path fill="#F7E1DA" d="M223.497,281.568c0.692-0.056,1.285-0.103,1.977-0.158c2.599,1.386,5.391-1.028,8.088,0.351
			c1.74,1.853,4.152-0.332,6.584,1.466c-8.269-0.137-15.724,2.45-23.42,0.773C218.945,283.126,222.405,285.34,223.497,281.568z"/>
		<path fill="#091929" d="M218.696,333.643c0.696,1.239,2.603,0.191,3.124,1.743c-0.522,0.938-2.527,1.994,0.123,2.779
			c0.683,2.336,0.659,4.529-1.397,6.187C217.912,341.275,214.67,338.048,218.696,333.643z"/>
		<path fill="#091929" d="M273.375,309.361c-0.965,0.376-1.922,0.851-2.887,1.226c0.024-4.683-1.336-9.256-0.018-13.942
			c0.292,3.662,0.584,7.324,0.9,11.282c2.962-1.531,0.756-4.243,2.342-5.565C273.901,304.737,274.89,307.149,273.375,309.361z"/>
		<path fill="#091929" d="M224.886,335.141c-0.87-0.927-1.649-1.96-2.519-2.887c1.049-3.072,2.86-2.818,4.797-0.98
			c1.076,1.009,1.78,2.348,2.665,3.472c-0.692,0.055-1.376,0.21-1.969,0.257C226.974,336.368,225.8,332.876,224.886,335.141z"/>
		<path fill="#091929" d="M233.562,281.76c-2.658-0.883-5.486,2.33-8.088-0.35c5.371-0.03,10.524-1.537,15.741-2.252
			c-0.942,0.673-1.875,1.444-2.816,2.117C236.817,281.401,235.144,281.634,233.562,281.76z"/>
		<path fill="#091929" d="M210.207,378.144c-2.606-1.485-4.278-3.742-5.389-6.442C207.894,372.851,209.096,375.444,210.207,378.144z
			"/>
		<path fill="#091929" d="M162.468,94.009c-5.685,9.816-11.369,19.632-14.266,30.719c-1.369,2.799-1.61,6.005-3.291,8.629
			c-1.686,3.82-2.161,7.842-2.027,12.014c-1.693,3.721-0.875,7.739-1.564,11.579c-0.202,1.212,0.237,2.969-1.879,2.64
			c-1.514-0.277-1.123-1.604-1.118-2.799c-0.445-16.797,5.003-32.072,11.875-46.963c3.56-7.754,7.737-15.258,12.547-22.315
			c0.356-0.526,0.598-1.243,1.61-1.025C167.004,89.763,162.962,91.48,162.468,94.009z"/>
		<path fill="#F9BAA7" d="M156.524,90.598c-0.755,1.754-2.029,3.25-3.639,4.274c-1.558-2.067-0.003-3.785,0.547-5.621
			c-0.827,3.353-3.292,6.139-3.197,9.817c-4.79,3.569-5.945,9.04-7.077,14.807c-2.933-11.817,8.005-30.618,21.139-36.845
			c-0.194,3.8-3.406,5.949-4.842,9.151C158.684,87.737,157.394,89.035,156.524,90.598z"/>
		<path fill="#FAB19B" d="M142.884,145.371c3.761,0.995,6.971,8.806,5.744,13.386c-0.985,3.863-3.88,7.481-1.935,11.907
			c0.36,0.768-0.301,1.219-0.985,1.374c-0.981,0.177-0.846-0.63-1.092-1.208c-1.731-4.244-1.6-8.836-1.247-13.147
			C143.63,153.479,143.208,149.429,142.884,145.371z"/>
		<path fill="#F7DCD4" d="M156.524,90.598c1.682-5.114,4.308-9.606,7.773-13.568c2.247-1.773,4.355-4.033,7.657-3.798
			c0.154,0.685,0.308,1.37,0.372,2.161c-1.072,0.285-2.448,0.494-2.33,1.979c0.106,2.581-1.851,4.231-3.386,4.951
			C162.271,84.064,159.886,87.84,156.524,90.598z"/>
		<path fill="#F9BEAC" d="M138.964,94.987c-1.067-5.891,2.505-9.761,6.437-12.864c2.155-1.666,4.829-3.074,7.289-4.665
			c-3.524,4.464-6.21,9.46-9.118,14.173C141.176,91.524,142.033,96.037,138.964,94.987z"/>
		<path fill="#F8D9D0" d="M140.454,188.493c-2.392-8.774-4.395-17.677-3.67-27.297c2.886,1.264,2.665,3.473,3.02,5.436
			c1.625,6.644,1.181,13.551,2.014,20.258C141.897,187.879,141.549,188.505,140.454,188.493z"/>
		<path fill="#FAB19B" d="M156.233,189.226c0.498,1.255,1.095,2.502,1.585,3.658c-3.081,2.537-0.934,5.752-1.101,8.654
			c-0.035,0.799,0.538,1.75-0.641,1.943c-0.692,0.055-2.024-0.436-2.056-0.832c-0.51-2.648-2.851-4.553-2.016-7.807
			c0.76-2.949-1.189-6.18,0.148-9.374c2.432-0.692,2.226,1.715,3.211,2.831C155.691,188.672,156.011,188.945,156.233,189.226z"/>
		<path fill="#F8D5CB" d="M138.964,94.988c2.167-0.272,1.547-4.307,4.608-3.356c-2.224,7.05-4.341,14.191-6.564,21.24
			c-0.511-0.158-1.112-0.21-1.622-0.368C136.609,106.629,137.84,100.854,138.964,94.988z"/>
		<path fill="#F9C7B8" d="M150.238,74.168c1.764-5.32,6.68-7.306,10.972-9.64c1.906-1.049,4.228-3.126,7.024-1.756
			C162.273,66.634,156.305,70.397,150.238,74.168z"/>
		<path fill="#F9D3C7" d="M136.277,86.237c-0.641-0.546-3.599,2.279-2.08-1.129c1.926-4.536,5.431-8.003,9.588-12.02
			c0.256,4.462-4.13,5.608-3.976,8.783C138.421,83.178,137.139,84.575,136.277,86.237z"/>
		<path fill="#F9A48A" d="M156.712,155.323c-0.04,4.486,0.216,8.947-0.828,13.313c-0.475-0.958,0.364-2.917-2.076-2.324
			c-2.539,0.601-3.974-1.177-3.745-3.287c0.321-2.217,1.721-2.129,3.445-0.474c0.969,0.919,1.23-0.795,1.562-1.619
			C156.024,159.163,155.356,157.025,156.712,155.323z"/>
		<path fill="#FAB19B" d="M140.454,188.492c1.804-4.825-0.271-9.639-0.156-14.429c0-2.49-0.288-4.858-0.485-7.332
			c2.032,3.025,1.6,6.346,1.77,9.719c0.236,5.459,0.465,10.82,1.698,16.299C141.415,191.802,140.885,190.151,140.454,188.492z"/>
		<path fill="#F9A48A" d="M156.232,189.226c-0.296,0.023-0.593,0.047-0.89,0.071c-0.897-2.518-1.893-5.028-2.015-7.807
			c-0.115-2.681-0.937-5.503,0.752-8.028c0.613-1.045,1.128-2.082,1.741-3.127C156.028,176.692,156.13,182.959,156.232,189.226z"/>
		<path fill="#F8D5CB" d="M150.234,99.068c-1.308-5.174,2.089-8.732,4.672-12.524c-0.676,2.743-1.345,5.585-2.022,8.328
			C151.267,95.799,151.013,97.612,150.234,99.068z"/>
		<path fill="#F9CBBE" d="M154.818,181.47c0.213,2.672,0.419,5.246,0.632,7.918c-2.958,0.335-0.696-3.729-3.183-3.73
			c-0.103-1.287-0.206-2.573-0.316-3.959c0.645-0.649,0.131-2.102,1.317-2.197C154.356,179.416,154.079,180.932,154.818,181.47z"/>
		<path fill="#FAB19B" d="M154.817,181.47c-1.107-1.405-2.095-1.326-2.966,0.237c-0.509-2.648-0.228-5.36,0.358-7.996
			c0.692-0.056,1.285-0.103,1.977-0.158C154.391,176.126,154.604,178.798,154.817,181.47z"/>
		<path fill="#FAB19B" d="M152.201,173.612c-3.433-0.623-1.942-3.132-2.214-5.302C152.874,169.574,151.77,171.953,152.201,173.612z"
			/>
		<path fill="#F9A48A" d="M144.911,133.356c0.965-2.865,1.001-6.155,3.291-8.629c-0.178,1.509-0.364,2.918-0.443,4.418
			C146.355,130.253,147.054,132.787,144.911,133.356z"/>
		<path fill="#F7B8A6" d="M217.08,112.56c0.04-1.995,0.17-4.097,0.27-6.595c5.429,4.447,8.671,10.165,12.839,15.011
			c3.404,4.012,6.907,8.015,9.849,12.461c2.155,3.315,7.039,3.423,9.127,7.141c0.573,0.95,2.036,1.829,2.008,2.728
			c-0.246,4.402,3.001,6.434,5.709,9.206c-2.626,2.002-4.302,0.941-5.852-1.027c-3.65-4.59-7.398-9.171-11.147-13.752
			c-0.992-1.216-1.878-2.341-3.476-2.412c-5.646-5.924-11.748-11.314-16.931-17.673C218.262,116.151,216.273,114.915,217.08,112.56z
			"/>
		<path fill="#091929" d="M217.08,112.56c3.965,6.058,9.418,10.802,14.226,16.196c1.855,2.043,3.429,4.308,5.093,6.466
			c0.573,0.95,1.04,1.809,1.613,2.76c0.032,0.395-0.043,0.7-0.012,1.096c-1.973-1.038-3.021-2.946-4.258-4.74
			c-1.352-1.984-2.194-6.299-6.063-2.405c-0.735,0.756-1.399-0.087-2.131-0.527c-6.782-3.941-12.896-3.254-18.746,1.994
			c-0.32-0.274-0.739-0.539-1.06-0.812c0.048-1.896,1.353-2.997,2.659-4.097c6.798-3.331,9.46-3.643,13.869-2.002
			c-4.187-6.34-11.048-11.27-14.052-18.999c0.858-0.467,1.716-0.933,2.567-1.499C213.596,107.559,214.549,110.77,217.08,112.56z"/>
		<path fill="#F8E6E1" d="M239.521,97.025c8.921,7.057,16.066,15.551,21.921,25.342c0.696,1.24,2.068,2.226,0.498,3.745
			c-0.451-0.661-0.894-1.223-1.246-1.892c-7.172-7.595-15.635-13.892-22.906-21.479c-1.954-2.036-4.342-4.534,0.507-6.116
			C238.69,96.593,239.102,96.759,239.521,97.025z"/>
		<path fill="#FAB29C" d="M238.623,96.998c-2.978,1.333-2.685,2.505-0.511,4.821c7.09,7.801,16.759,13.006,22.377,22.318
			c-0.502-0.059-1.194-0.004-1.416-0.285c-4.29-5.136-11.234-7.371-14.804-13.46c-1.032-1.711-3.31-2.824-5.275-3.763
			c-4.038-1.968-5.912-7.994-3.574-12.364C237.58,93.894,238.647,94.804,238.623,96.998z"/>
		<path fill="#F9A48A" d="M238.623,96.997c-0.795-1.231-1.862-2.142-3.203-2.732c-0.763-0.836-1.625-1.663-2.289-2.507
			c-1.428-1.679-1.273-3.484,1.131-3.278c2.709,0.282,8.053-3.829,7.458,3.688c-0.087,1.401,3.148,2.04,1.847,4.434
			c-1.463-0.879-2.769,0.221-4.145,0.43C239.224,97.049,238.928,97.073,238.623,96.997z"/>
		<path fill="#F8DCD4" d="M117.281,172.413c-6.649-18.493-7.571-37.543-5.825-56.806c0.08-1.5,0.06-2.992,0.049-4.386
			c2.006-8.526,4.004-17.152,8.569-24.787c3.422-5.751,7.156-11.328,10.89-16.904c0.53-0.839,1.507-2.312,2.092,0.032
			c-14.473,19.381-21.393,41.149-20.653,65.392c0.299,8.741,2.271,17.249,3.263,25.934c0.406,3.852,3.064,7.226,2.695,11.339
			C118.013,172.852,117.716,172.876,117.281,172.413z"/>
		<path fill="#FABDAB" d="M117.28,172.413c0.297-0.023,0.594-0.047,0.989-0.078c0.162,0.783,0.324,1.567,1.147,1.9
			c-0.088,1.401,0.723,2.831-0.345,4.41C116.853,177.029,117.743,174.468,117.28,172.413z"/>
		<path fill="#F9BEAD" d="M224.722,234.558c-0.775,0.261-1.709,1.033-2.227,0.775c-8.225-3.327-16.874-5.725-24.201-11.515
			c-5.093-3.976-9.89-7.976-13.875-13.036c1.396-1.207,2.084-0.067,2.626,0.487c7.346,7.283,15.836,12.681,25.426,16.896
			C216.6,230.027,221.547,230.927,224.722,234.558z"/>
		<path fill="#F8D1C6" d="M162.188,191.54c5.179,10.044,12.538,18.72,18.567,28.199C171.605,212.302,166.145,202.479,162.188,191.54
			z"/>
		<path fill="#F9C2B1" d="M265.909,114.741c3.95,3.37,6.563,7.445,7.567,12.544C270.012,123.776,267.49,119.595,265.909,114.741z"/>
		<path fill="#F9A890" d="M208.225,107.589c5.725,6.914,11.443,13.729,17.947,21.676c-6.69-4.048-12.124-2.32-17.602,0.109
			c-4.03-1.869-6.224-5.678-8.794-7.963c1.676,3.551,4.373,7.42,4.083,12.522c-1.558,2.913-3.224,5.735-3.537,10.541
			c-8.131-23.355-15.757-45.356-23.39-67.455C187.596,87.223,197.493,97.788,208.225,107.589z"/>
		<path fill="#F5D7CE" d="M203.852,133.834c-1.921-4.13-3.554-8.382-4.846-13.358c4.342,2.044,7.181,5.204,9.557,8.799
			c-1.008,1.076-1.91,2.244-2.919,3.32C205.083,133.038,204.521,133.482,203.852,133.834z"/>
		<path fill="#ED9D84" d="M226.456,273.761c-2.724-0.479-4.935-1.996-5.073-4.973c-0.106-2.581,1.089-5.067,4.169-5.114
			c2.982-0.038,5.648,0.944,5.643,4.63C231.234,271.289,229.589,273.113,226.456,273.761z"/>
		<path fill="#091929" d="M176.758,427.824c0.087-1.402,0.068-2.894,0.155-4.295c-0.221-5.261,1.058-10.443-0.16-15.724
			c0.028-0.899,0.048-1.897,0.076-2.795c0.289-0.123,0.486-0.139,0.791-0.063c2.791,7.546,2.007,15.178,0.02,22.707
			C177.367,427.974,177.079,428.097,176.758,427.824z"/>
		<path fill="#091929" d="M238.004,414.77c2.575-1.4,3.049-0.442,3.757,2.191c0.739,3.028-1.935,6.927,2.209,8.987
			c0.095,1.187,0.281,2.268,0.079,3.479c-0.709,4.838-1.92,9.615-1.822,14.588c0.044,1.789-0.407,3.618-2.322,4.567
			c-0.395,0.032-0.897-0.028-1.293,0.004c-1.846-1.944-0.217-3.967-0.403-5.048c-2.698,6.092-5.301,13.371-10.609,19.173
			c-0.479,0.237-0.973,0.277-1.4-0.087c0.04-4.486,1.611-8.495,3.486-12.43c1.444-3.103,2.888-6.206,4.225-9.4
			c0.831-2.059-0.28-2.269-1.922-1.64c-1.253-1.991-0.3-3.761,0.456-5.514c1.578-3.911,2.647-7.98,3.205-12.208
			c0.526-2.133,0.756-4.243,1.998-6.135C237.624,415,237.814,414.885,238.004,414.77z"/>
		<path fill="#091929" d="M239.897,448.484c2.394-6.167,0.548-13.091,3.345-19.191c2.135,1.822,0.118,3.975,0.952,5.701
			c0.079-1.5-0.589-3.638,1.302-4.885c0.197-0.015,0.395-0.031,0.593-0.047c1.036,0.515,0.893,1.223,0.462,2.055
			c-1.317,2.196-0.428,4.615-0.535,7.014c-0.373,7.799-0.639,15.689-3.021,23.249c-0.272,0.32-0.636,0.748-0.909,1.068
			C239.714,458.658,239.41,453.602,239.897,448.484z"/>
		<path fill="#091929" d="M230.662,484.877c-0.225-1.575,0.471-2.826,1.578-3.91c0.463-0.436,0.867-0.368,1.294-0.004
			c-0.357,5.506-2.228,10.735-3.301,16c-0.863,4.153-3.651,5.371-7.764,6.197c3.746-4.183,1.983-8.823,1.916-13.4
			C228.557,490.922,228.712,486.626,230.662,484.877z"/>
		<path fill="#020A13" d="M230.661,484.877c0.53,1.651-0.882,2.66-1.274,3.986c-1.068,4.069-2.911,3.419-5.102,0.905
			c-0.407-1.362,0.143-3.199-1.617-4.054c-0.047-0.594-0.086-1.089-0.134-1.683c-0.743-4.323-1.493-8.745-0.951-13.171
			c0.273-0.32,0.637-0.748,0.91-1.068c2.317-0.882,3.128,0.547,3.369,2.321c0.739,5.518,1.181,11.061,1.445,15.621
			c0.293-1.318-0.193-3.67-0.383-6.045c-0.094-1.188-0.486-2.352,1.393-2.501C229.266,481.104,228.565,483.55,230.661,484.877z"/>
		<path fill="#020A13" d="M233.525,480.864c-0.395,0.032-0.898-0.028-1.293,0.004c0.851-3.056,1.709-6.013,2.461-9.061
			c0.585-0.146,1.519-0.918,1.673-0.233c0.387,2.36,0.683,4.826,0.675,7.217C237.025,481.083,235.245,481.225,233.525,480.864z"/>
		<path fill="#091929" d="M251.529,469.567c-0.308-3.86-0.616-7.719-0.924-11.579c-0.197,0.015-0.494,0.039-0.7-0.044
			c-0.047,1.896-0.095,3.792-0.21,6.092c-0.858-2.023-1.479-3.567-2.107-5.21c0.079-3.99,0.159-7.981,0.14-11.963
			c-0.601-5.032,0.709-9.818,2.529-14.445c1.792-1.238,1.148-5.569,5.154-3.996c-4.831,10.544-3.84,21.72-3.557,32.753
			C251.886,464.061,252.807,466.876,251.529,469.567z"/>
		<path fill="#091929" d="M271.671,435.192c0.597,3.737-0.009,7.371-1.109,11.045c-1.028-0.416-1.51-1.473-2.348-2.004
			c-0.42-0.266-0.732-0.44-1.052-0.713c-0.641-0.547-1.479-1.077-1.246-1.893c0.827-3.352-1.681,0.134-1.866-0.946
			c-0.881-4.81,1.279-10.162-2.157-14.569c-0.787-1.132-0.562-2.047,0.783-2.652c4.56,1.031,6.758,3.644,6.947,8.509
			c0.115,2.68-0.273,5.301-0.151,8.08c0.107-2.399-0.387-4.85,1.037-6.955C272.182,432.861,272.071,433.965,271.671,435.192z"/>
		<path fill="#091929" d="M268.234,443.234c2.084-0.066,2.02,1.632,2.321,2.903c-0.507,3.626-0.923,7.145-1.429,10.771
			c-0.06,0.503-0.349,0.626-0.768,0.36c-1.447-3.171-4.262-6.034-2.798-10.135c-2.456,0.395-1.377,2.699-2.607,3.495
			c-0.573-3.441,0.254-6.793,0.99-10.039c1.238-0.697,0.732-2.051,1.239-3.187C267.764,438.591,265.758,442.137,268.234,443.234
			c-0.946,1.869-0.088,3.892-0.606,6.124C268.542,447.094,267.486,445.087,268.234,443.234z"/>
		<path fill="#091929" d="M255.32,428.528c-3.105-0.25-2.821,3.313-4.834,4.27c-0.534-0.455-0.672-0.942-0.324-1.568
			c1.167-4.077,3.402-7.243,7.231-9.142c1.147-0.589,1.894,0.048,2.27,1.014c0.474,0.958-0.277,1.516-0.938,1.967
			C257.724,426.245,256.518,427.337,255.32,428.528z"/>
		<path fill="#091929" d="M258.824,425.062c0.771-1.556,0.198-2.506-1.431-2.974c1.336-0.704,2.673-1.408,4.01-2.112
			c1.823-0.843,3.476-0.078,3.899,1.482c0.668,2.137-1.653,1.725-2.8,2.314c-0.752,0.558-0.787,1.358-0.815,2.257
			C260.864,425.696,259.844,425.379,258.824,425.062z"/>
		<path fill="#091929" d="M271.716,486.881c-0.297,0.024-0.602-0.052-0.898-0.028c-2.262-3.405-1.11-7.68-3.182-11.2
			c-0.803-1.33-0.458-3.25-2.127-4.213c-1.582-2.364,1.428-3.301,1.583-5.106c0.217-1.013-0.281-2.268,0.743-3.147
			c2.732,5.559,2.546,11.948,5.368,17.4c0.475,0.958,0.578,2.245,1.341,3.081c0.347,1.864,0.695,3.729-0.768,5.34
			C272.186,489.035,273.752,486.221,271.716,486.881z"/>
		<path fill="#091929" d="M267.083,466.235c0.767,2.13-1.633,3.218-1.582,5.107c-1.084,3.871-1.963,7.825-4.075,11.281
			c-2.997-2.65-1.051-5.693-0.375-8.436c0.819-3.452,1.745-6.813,2.596-9.869C266.17,463.519,262.555,470.581,267.083,466.235z"/>
		<path fill="#091929" d="M274.543,483.667c-4.271-1.153-3.309-5.314-4.527-8.105c-1.7-3.848-1.94-8.112-2.181-12.376
			c0.846-1.86,0.689-3.839,0.63-5.827c0.288-0.122,0.478-0.237,0.767-0.36c0.216,6.457,2.205,12.673,3.987,18.805
			c0.285,1.073,0.012,3.884,2.808,2.765C276.984,480.584,275.307,482.012,274.543,483.667z"/>
		<path fill="#091929" d="M242.987,462.281c0.974-7.747,2.047-15.502,3.021-23.249c0.253,0.677,0.597,1.247,0.85,1.924
			c1.016,1.513,0.526,2.847-0.261,4.204c-0.733,7.031-1.565,14.069-2.297,21.099C243.794,464.905,244.458,463.259,242.987,462.281z"
			/>
		<path fill="#091929" d="M246.696,445.153c0.087-1.402,0.174-2.803,0.262-4.204c1.139-3.179,0.428-7.106,3.303-9.726
			c0.139,0.487,0.285,1.073,0.324,1.568c-0.922,4.655-1.836,9.409-2.758,14.064C247.384,446.293,247.04,445.723,246.696,445.153z"/>
		<path fill="#091929" d="M204.504,491.247c2.345-4.271,5.217-8.185,8.943-11.371c1.776-1.436,0.744-5.637,4.802-4.666
			C214.348,481.199,210.547,487.179,204.504,491.247z"/>
		<path fill="#091929" d="M221.69,470.951c0.348,4.355,0.596,8.718,0.952,13.171c-1.768-3.444-0.213-7.652-2.664-10.943
			C219.662,471.711,220.405,471.054,221.69,470.951z"/>
		<path fill="#091929" d="M227.488,442.6c0.118,1.485-0.341,3.215,1.047,4.399c-1.468,2.806-2.836,5.605-4.312,8.312
			c-0.688,1.35-1.815,0.942-2.942,0.533c-0.822-7.802,1.264-15.339,2.443-23.003c1.064-0.384,1.697,0.064,2.361,0.907
			C227.014,436.662,227.844,439.584,227.488,442.6z"/>
		<path fill="#091929" d="M228.325,479.286c-1.93,3.242,0.438,6.738-1.187,10.055c-0.806-5.115-1.521-10.336-2.328-15.451
			c-0.233-1.675,0.104-3.694-2.316-4.098c1.202-2.387,2.298-4.865,3.501-7.252c0.296-0.023,0.593-0.047,0.889-0.071
			C226.148,468.205,228.674,473.681,228.325,479.286z"/>
		<path fill="#020A13" d="M196.481,403.143c-2.678,0.114-5.355,0.228-8.032,0.342c-1.001-1.315-0.372-2.162,0.874-2.759
			c2.1,0.131,3.899,1.482,6.217,0.6C196.884,400.72,196.607,402.236,196.481,403.143z"/>
		<path fill="#020A13" d="M204.301,387.679c-3.963,2.706-0.021,5.977-0.484,8.903c-1.502-1.374-1.668-3.453-2.404-5.187
			C199.745,387.943,201.501,387.504,204.301,387.679z"/>
		<path fill="#091929" d="M262.601,423.764c-0.241-1.773,1.29-1.298,2.255-1.673c-0.629-1.644-2.219-1.616-3.453-2.115
			c2.987-3.725,4.2,0.262,6.083,1.407c2.178,3.611,4.555,7.206,3.13,11.802c-0.19,2.604-1.294,4.983-1.575,7.695
			c-0.253-3.167-0.497-6.235-0.75-9.402C267.991,427.717,266.287,425.064,262.601,423.764z"/>
		<path fill="#091929" d="M246.544,432.017c-0.155-0.685-0.309-1.369-0.463-2.054c-0.845-8.1,0.418-15.97,1.269-24.006
			C248.349,414.742,246.45,423.36,246.544,432.017z"/>
		<path fill="#091929" d="M270.624,433.284c-0.431-4.149-1.925-7.914-3.131-11.802c4.567,3.62,5.441,8.331,4.178,13.71
			C271.319,434.523,270.968,433.854,270.624,433.284z"/>
		<path fill="#091929" d="M243.161,417.048c0.091-5.087,0.183-10.174,0.176-15.253C246.334,406.935,245.056,412.116,243.161,417.048
			z"/>
		<path fill="#091929" d="M245.488,430.01c-0.436,2.026-0.772,4.045-1.207,6.072c-0.198,0.016-0.297,0.024-0.495,0.039
			c-0.181-2.276-0.363-4.552-0.545-6.829c0.21-1.112-0.387-2.359,0.729-3.345C245.631,426.811,244.982,428.656,245.488,430.01z"/>
		<path fill="#091929" d="M201.349,426.758c-1.693,8.701-3.387,17.402-4.974,26.193c-1.076-1.009-2.638-1.881-2.294-3.801
			c0.479-2.727,0.966-5.356,1.346-8.075c1.255-5.479,2.517-10.858,3.771-16.336C201.326,423.971,201.892,424.822,201.349,426.758z"
			/>
		<path fill="#091929" d="M201.349,426.758c-0.194-1.179-0.949-1.916-2.151-2.019c2.401-6.068,4.186-12.386,8.766-17.333
			c1.29-1.298,2.365-2.778,4.473-2.548C206.979,411.27,204.316,419.052,201.349,426.758z"/>
		<path fill="#091929" d="M196.134,474.882c-1.472,4.002,0.442,8.033-0.132,12.062c-0.736,0.756-1.325,2.098-2.796,1.12
			c1.282-6.377-2.494-12.55-0.512-18.883c0.752-0.558,0.115-2.3,1.523-2.114c1.408,0.187,0.561,2.047,1.423,2.875
			C195.775,471.624,196,473.2,196.134,474.882z"/>
		<path fill="#091929" d="M195.64,469.942c-0.921-0.325-1.265-3.385-2.946-0.761c-0.438-6.738,0.928-13.321,1.387-20.03
			c1.175,1.002,2.539,1.889,2.294,3.801C196.132,458.648,195.882,464.246,195.64,469.942z"/>
		<path fill="#091929" d="M176.759,427.824c0.289-0.123,0.486-0.139,0.783-0.162c0.81,6.409-1.592,12.477-1.786,18.768
			c-2.373-4.791,0.839-9.43,0.46-14.181C176.098,430.765,176.573,429.233,176.759,427.824z"/>
		<path fill="#091929" d="M229.068,345.165c-2.171-1.022-3.69-2.594-3.752-5.875C227.839,340.981,228.499,343.02,229.068,345.165z"
			/>
		<path fill="#091929" d="M233.181,341.849c-0.917-1.52-2.617-2.879-1.225-5.38C233.68,338.124,234.012,339.791,233.181,341.849z"/>
		<path fill="#091929" d="M224.885,335.141c-0.055-0.693-0.743-1.833,0.131-2.102c1.551-0.522,1.716,1.556,2.843,1.964
			c-0.391,1.326,1.558,2.067,0.787,3.623C227.349,337.335,226.068,336.242,224.885,335.141z"/>
		<path fill="#091929" d="M221.95,338.263c-0.356,0.527-0.878,1.465-1.183,1.389c-1.415-0.285-1.229-1.694-1.308-2.684
			c-0.126-1.583,1.159-1.686,2.369-1.484C221.899,336.375,221.871,337.274,221.95,338.263z"/>
		<path fill="#F9C1AF" d="M216.635,124.448c-0.111,1.104-1.068,1.579-1.692,1.231c-2.705-1.478-5.228-3.169-6.173-6.281
			c-0.261-0.776,0.072-1.599,1.159-1.686C211.009,117.526,216.639,123.252,216.635,124.448z"/>
		<path fill="#091929" d="M225.682,433.682c-0.617-0.25-1.234-0.499-1.85-0.749c1.61-8.495,5.768-15.002,14.172-18.162
			c-0.534,2.035-0.962,4.16-1.496,6.195c-4.346-0.849-3.915,3.3-5.644,5.331c-0.301,1.219-1.918-2.835-2.037,0.66
			C228.811,429.249,227.731,431.925,225.682,433.682z"/>
		<path fill="#091929" d="M268.233,443.235c2.108,2.72,1.028,5.396,0.011,8.864C267.078,448.706,264.278,446.041,268.233,443.235
			C268.241,443.334,268.233,443.235,268.233,443.235z"/>
		<path fill="#091929" d="M225.682,433.681c0.317-3.511,2.386-6.266,3.41-9.634c0.763,0.835,1.313,1.488,1.863,2.142
			c-2.267,5.26-1.809,11.001-3.467,16.412C226.856,439.663,225.242,436.903,225.682,433.681z"/>
	</g>
</g>
<g>
	<path fill="#212020" d="M160.333,202.167c1-6-4-12-9-14c-4-1-8-1-12,1c-1-5-2-11-7-14c-6-3-14-5-19,0c-4-8-11-13-20-12
		c-5,1-10,4-13,9c-10-6-23-2-31,6c-12-3-28,2-32,15c-7,0-11,6-11,12c1,5,4,12,11,11c6,11,19,15,30,11c6,11,20,16,32,10
		c3,7,12,7,18,8c11,2,21-4,26-14c4,3,9,4,13,3c7-2,13-8,11-16C155.333,217.167,161.333,210.167,160.333,202.167L160.333,202.167z
		 M124.333,207.167c2,0,3,0,5-2c0,3-4,1-5,4C124.333,208.167,124.333,208.167,124.333,207.167L124.333,207.167z"/>
</g>
</svg>
