<svg width="146" height="146" viewBox="0 0 146 146" fill="none" xmlns="http://www.w3.org/2000/svg">
<rect opacity="0.5" x="0.914062" y="0.704102" width="145" height="145" rx="50" fill="#F2F2C5"/>
<g clip-path="url(#clip0)">
<path d="M73.457 84.3692C83.5708 84.3692 91.7696 92.3754 91.7696 102.251C91.7696 112.128 83.5708 120.134 73.457 120.134C63.3433 120.134 55.1445 112.128 55.1445 102.251C55.1445 92.3754 63.3433 84.3692 73.457 84.3692Z" fill="#F1BC3D"/>
<path d="M49.8281 43.1338C59.9419 43.1338 68.1407 51.14 68.1407 61.0161C68.1407 70.8923 59.9419 78.8984 49.8281 78.8984C39.7144 78.8984 31.5156 70.8923 31.5156 61.0161C31.5156 51.14 39.7144 43.1338 49.8281 43.1338Z" fill="#E83F3C"/>
<path d="M96.2188 43.1338C106.332 43.1338 114.531 51.14 114.531 61.0161C114.531 70.8923 106.332 78.8984 96.2188 78.8984C86.105 78.8984 77.9062 70.8923 77.9062 61.0161C77.9062 51.14 86.105 43.1338 96.2188 43.1338Z" fill="#1AB3EF"/>
<g style="mix-blend-mode:color-burn">
<path d="M50.6641 61.0162C50.1958 61.0162 50.0119 61.3265 50.246 61.7184L73.0405 100.259C73.2746 100.651 73.6426 100.651 73.8767 100.259L96.6712 61.7184C96.9053 61.3265 96.7214 61.0162 96.2531 61.0162H50.6641Z" stroke="#231F20" stroke-width="5" stroke-miterlimit="10"/>
</g>
</g>
<defs>
<clipPath id="clip0">
<rect width="83" height="77" fill="white" transform="matrix(1 0 0 -1 31.5156 120.134)"/>
</clipPath>
</defs>
</svg>
