<svg width="8" height="12" viewBox="0 0 8 12" fill="none" xmlns="http://www.w3.org/2000/svg">
<g clip-path="url(#clip0)">
<path d="M1.28264 0.520116C1.22961 0.520116 1.22961 0.520116 1.28264 0.520116C1.22961 0.520116 1.17658 0.464279 1.17658 0.464279C1.12355 0.408441 1.12355 0.464279 1.12355 0.464279C1.12355 0.464279 1.12355 0.464279 1.07052 0.464279L0.964459 0.240928L0.911429 0.185091V0.129253C0.858398 0.0734157 0.964459 0.129253 0.911429 0.0734157C0.911429 0.0734157 0.911429 0.0175781 0.858398 0.0175781C0.858398 0.0175781 0.858398 0.0175781 0.911429 0.0175781C0.911429 0.0734157 0.964459 0.0734157 0.964459 0.0734157C0.964459 0.0734157 1.01749 0.0734157 0.964459 0.0734157H1.01749H1.07052C1.07052 0.0734157 1.07052 0.0734157 1.12355 0.0734157C1.17658 0.0734157 1.17658 0.129253 1.17658 0.129253C1.17658 0.129253 1.17658 0.129253 1.22961 0.129253C1.28264 0.129253 1.22961 0.129253 1.22961 0.129253H1.28264H1.33567C1.33567 0.129253 1.3887 0.129253 1.33567 0.185091C1.33567 0.185091 1.33567 0.185091 1.33567 0.240928C1.33567 0.240928 1.33567 0.240928 1.28264 0.240928C1.28264 0.240928 1.28264 0.240928 1.28264 0.296766V0.520116C1.28264 0.520116 1.28264 0.464279 1.28264 0.520116ZM1.01749 0.240928C0.964459 0.185091 0.964459 0.185091 1.01749 0.240928C0.964459 0.185091 0.964459 0.185091 1.01749 0.240928ZM1.12355 0.296766L1.07052 0.240928C1.07052 0.240928 1.01749 0.240928 1.12355 0.296766C1.07052 0.296766 1.07052 0.296766 1.12355 0.296766ZM1.22961 0.464279C1.22961 0.408441 1.22961 0.464279 1.22961 0.464279V0.464279Z" fill="#231F20"/>
<path d="M1.22923 0.519934C1.1762 0.464096 1.1762 0.519934 1.22923 0.519934V0.519934Z" fill="#231F20"/>
<path d="M6.26737 6.15947C6.21434 6.15947 6.21434 6.15947 6.26737 6.15947C6.21434 6.15947 6.21434 6.15947 6.21434 6.15947C6.26737 6.15947 6.21434 6.15947 6.21434 6.15947C6.21434 6.15947 6.21434 6.15947 6.21434 6.10363C6.21434 6.10363 6.21434 6.10363 6.16131 6.0478C6.16131 6.0478 6.10828 6.0478 6.10828 5.99196V5.93612C6.10828 5.93612 6.10828 5.93612 6.05525 5.93612C6.05525 5.93612 6.00222 5.93612 6.00222 5.88028L5.94919 5.82445V5.76861C5.94919 5.71277 5.94919 5.76861 5.94919 5.76861C5.94919 5.82445 5.89616 5.71277 5.89616 5.76861C5.89616 5.76861 5.89616 5.82445 5.84313 5.76861V5.71277V5.65693H5.7901C5.63101 5.54526 5.63101 5.48942 5.63101 5.48942V5.43358C5.57798 5.43358 5.57798 5.43358 5.57798 5.37775C5.57798 5.37775 5.57798 5.32191 5.52495 5.32191V5.26607C5.52495 5.26607 5.47192 5.26607 5.52495 5.26607C5.52495 5.26607 5.52495 5.21023 5.47192 5.21023L5.41889 5.1544V5.09856L5.36586 5.04272C5.36586 4.98688 5.31283 4.98688 5.31283 4.98688C5.31283 4.98688 5.31283 4.98688 5.2598 4.93105C5.1007 4.93105 5.1007 4.93105 5.1007 4.87521C5.1007 4.87521 5.1007 4.87521 5.04767 4.81937C5.04767 4.81937 5.04767 4.81937 4.99464 4.76353H4.94161C4.88858 4.76353 4.88858 4.7077 4.88858 4.7077C4.83555 4.7077 4.83555 4.65186 4.78252 4.59602L4.72949 4.54018C4.72949 4.54018 4.72949 4.54018 4.72949 4.48435C4.72949 4.48435 4.72949 4.48435 4.78252 4.48435C4.83555 4.48435 4.83555 4.54018 4.83555 4.54018C4.83555 4.54018 4.83555 4.54018 4.88858 4.54018L4.83555 4.48435L4.78252 4.42851C4.78252 4.37267 4.78252 4.42851 4.72949 4.42851C4.72949 4.42851 4.72949 4.42851 4.72949 4.37267C4.67646 4.37267 4.67646 4.31683 4.67646 4.31683C4.67646 4.31683 4.67646 4.261 4.62343 4.261H4.5704V4.20516C4.5704 4.20516 4.5704 4.20516 4.51737 4.20516C4.51737 4.20516 4.46434 4.20516 4.51737 4.14932C4.51737 4.14932 4.51737 4.14932 4.46434 4.14932V4.09348C4.46434 4.03765 4.41131 4.09348 4.41131 4.03764C4.35828 4.03764 4.41131 3.98181 4.35828 3.98181H4.25222C4.25222 3.98181 4.25222 3.98181 4.25222 3.92597C4.25222 3.92597 4.19919 3.92597 4.19919 3.87013C4.19919 3.87013 4.19919 3.87013 4.19919 3.81429C4.19919 3.81429 4.19919 3.81429 4.19919 3.75846C3.93404 3.70262 3.88101 3.59094 3.88101 3.59094L3.82798 3.53511H3.77495C3.77495 3.53511 3.77495 3.53511 3.77495 3.47927V3.53511C3.77495 3.53511 3.77495 3.53511 3.77495 3.47927H3.72192C3.72192 3.47927 3.66889 3.47927 3.72192 3.53511C3.72192 3.47927 3.66889 3.53511 3.66889 3.53511V3.47927C3.72192 3.36759 3.66889 3.36759 3.72192 3.36759C3.66889 3.36759 3.72192 3.36759 3.72192 3.36759C3.72192 3.42343 3.72192 3.36759 3.72192 3.36759C3.72192 3.36759 3.72192 3.36759 3.72192 3.31176L3.66889 3.25592C3.61586 3.25592 3.66889 3.20008 3.61586 3.20008C3.61586 3.20008 3.61586 3.20008 3.61586 3.14424L3.56283 3.08841C3.56283 3.08841 3.56283 3.08841 3.5098 3.03257C3.5098 3.03257 3.5098 2.97673 3.45676 2.97673V2.92089C3.45676 2.92089 3.45676 2.92089 3.40373 2.92089L3.3507 2.86506L3.29767 2.80922C3.29767 2.75338 3.24464 2.75338 3.19161 2.69754L3.13858 2.64171H3.08555C3.08555 2.64171 3.08555 2.64171 3.08555 2.58587L2.92646 2.47419L2.87343 2.41836C2.87343 2.41836 2.87343 2.41836 2.8204 2.41836C2.8204 2.41836 2.8204 2.36252 2.76737 2.36252C2.76737 2.36252 2.76737 2.36252 2.76737 2.30668L2.66131 2.19501C2.66131 2.19501 2.60828 2.19501 2.60828 2.13917C2.60828 2.13917 2.60828 2.13917 2.66131 2.13917C2.66131 2.13917 2.66131 2.13917 2.66131 2.08333C2.66131 2.08333 2.66131 2.02749 2.66131 2.08333C2.66131 2.02749 2.60828 1.97165 2.55525 1.97165L2.50222 1.91582C2.50222 1.91582 2.55525 1.91582 2.50222 1.91582C2.50222 1.91582 2.44919 1.91582 2.50222 1.91582V1.85998C2.50222 1.85998 2.50222 1.85998 2.50222 1.80414L2.44919 1.7483C2.44919 1.69247 2.39616 1.69247 2.39616 1.69247C2.39616 1.69247 2.39616 1.69247 2.39616 1.63663C2.39616 1.63663 2.39616 1.63663 2.34313 1.63663C2.2901 1.63663 2.34313 1.63663 2.34313 1.63663L2.2901 1.58079C2.2901 1.52495 2.2901 1.52495 2.23707 1.52495C2.23707 1.52495 2.18404 1.52495 2.18404 1.46912L2.13101 1.41328L1.91889 1.35744L1.81283 1.24577L1.70676 1.13409L1.65373 1.07825L1.6007 1.02242C1.6007 1.02242 1.54767 0.966579 1.54767 0.910741L1.49464 0.854904C1.49464 0.854904 1.44161 0.854904 1.44161 0.799066C1.44161 0.799066 1.38858 0.799066 1.38858 0.743228C1.38858 0.743228 1.38858 0.743229 1.38858 0.687391C1.38858 0.687391 1.38858 0.687391 1.33555 0.631553C1.33555 0.631553 1.33555 0.631553 1.28252 0.575716V0.519878C1.28252 0.519878 1.22949 0.519878 1.22949 0.464041C1.33555 0.575716 1.33555 0.575716 1.33555 0.631553L1.38858 0.575716C1.38858 0.575716 1.38858 0.519878 1.33555 0.519878C1.28252 0.575716 1.28252 0.519878 1.33555 0.519878L1.38858 0.408203H1.44161C1.38858 0.408203 1.49464 0.408203 1.44161 0.408203C1.44161 0.408203 1.38858 0.408203 1.38858 0.464041C1.38858 0.464041 1.38858 0.464041 1.44161 0.464041C1.44161 0.464041 1.44161 0.464041 1.49464 0.464041H1.54767C1.54767 0.464041 1.6007 0.464041 1.54767 0.519878C1.54767 0.519878 1.6007 0.464041 1.54767 0.519878C1.54767 0.519878 1.54767 0.519878 1.6007 0.519878C1.65373 0.519878 1.54767 0.575716 1.6007 0.575716C1.6007 0.575716 1.54767 0.631553 1.6007 0.575716V0.631553C1.6007 0.687391 1.65373 0.687391 1.65373 0.743228C1.65373 0.743228 1.6007 0.743229 1.65373 0.687391H1.70676C1.7598 0.631553 1.70676 0.799066 1.81283 0.687391C1.86586 0.575716 1.86586 0.575716 1.91889 0.519878C1.91889 0.575716 1.91889 0.575716 1.97192 0.575716L1.91889 0.631553H1.97192C1.97192 0.631553 1.97192 0.631553 2.02495 0.631553H1.97192H2.02495C2.02495 0.687391 2.07798 0.631553 2.13101 0.631553C2.18404 0.631553 2.2901 0.743229 2.23707 0.799066C2.18404 0.854904 2.2901 0.799066 2.23707 0.799066C2.18404 0.854904 2.2901 0.799066 2.2901 0.799066C2.39616 0.743229 2.34313 0.799066 2.34313 0.799066C2.39616 0.799066 2.39616 0.799066 2.39616 0.799066C2.2901 0.966579 2.50222 0.799066 2.39616 0.910741C2.50222 0.854904 2.34313 1.02242 2.44919 0.910741C2.39616 0.966579 2.50222 0.966579 2.44919 1.02242C2.44919 1.02242 2.39616 1.02242 2.39616 1.07825V1.13409L2.44919 1.07825C2.44919 1.07825 2.50222 1.07825 2.50222 1.13409C2.44919 1.13409 2.39616 1.18993 2.34313 1.18993H2.39616L2.44919 1.13409C2.44919 1.13409 2.50222 1.13409 2.50222 1.07825C2.55525 1.07825 2.60828 1.02242 2.55525 1.07825H2.60828L2.55525 1.13409L2.50222 1.18993V1.24577L2.55525 1.18993C2.50222 1.24577 2.55525 1.24577 2.60828 1.24577H2.66131C2.66131 1.18993 2.71434 1.13409 2.76737 1.13409C2.76737 1.13409 2.76737 1.13409 2.8204 1.13409C2.71434 1.18993 2.8204 1.13409 2.76737 1.18993L2.71434 1.24577L2.76737 1.18993H2.8204C2.8204 1.18993 2.87343 1.18993 2.87343 1.24577H2.8204L2.76737 1.3016L2.8204 1.24577C2.8204 1.24577 2.76737 1.3016 2.8204 1.3016C2.87343 1.3016 2.92646 1.24577 2.97949 1.18993C2.97949 1.18993 2.97949 1.18993 3.03252 1.18993H3.08555C2.97949 1.3016 3.08555 1.24577 3.03252 1.3016L2.97949 1.35744L3.03252 1.3016H2.97949C2.97949 1.3016 2.97949 1.3016 2.97949 1.24577L2.87343 1.41328C2.87343 1.41328 2.87343 1.41328 2.87343 1.46912C2.8204 1.52495 2.87343 1.46912 2.87343 1.46912V1.52495C2.92646 1.52495 2.92646 1.52495 2.97949 1.58079V1.52495C2.97949 1.46912 3.08555 1.46912 3.08555 1.41328V1.46912L2.97949 1.41328C2.97949 1.41328 2.97949 1.41328 3.03252 1.41328L3.08555 1.35744L3.13858 1.3016L3.03252 1.52495C3.24464 1.35744 3.08555 1.52495 3.08555 1.52495C3.08555 1.58079 3.13858 1.46912 3.13858 1.46912C3.24464 1.41328 3.19161 1.46912 3.24464 1.46912C3.29767 1.46912 3.3507 1.46912 3.3507 1.46912V1.52495H3.29767C3.29767 1.52495 3.29767 1.52495 3.29767 1.46912V1.63663C3.3507 1.63663 3.3507 1.63663 3.40373 1.58079V1.63663C3.3507 1.69247 3.5098 1.58079 3.45676 1.63663C3.45676 1.63663 3.45676 1.63663 3.40373 1.63663H3.3507C3.3507 1.63663 3.3507 1.63663 3.3507 1.69247C3.3507 1.69247 3.40373 1.69247 3.40373 1.63663C3.40373 1.69247 3.45676 1.69247 3.45676 1.69247C3.45676 1.69247 3.45676 1.69247 3.45676 1.7483C3.40373 1.80414 3.45676 1.7483 3.40373 1.7483L3.3507 1.80414H3.40373L3.3507 1.85998L3.29767 1.91582H3.3507H3.29767C3.29767 1.97166 3.5098 1.85998 3.40373 1.85998C3.40373 1.85998 3.40373 1.85998 3.45676 1.80414C3.56283 1.7483 3.5098 1.69247 3.61586 1.63663C3.66889 1.63663 3.56283 1.69247 3.5098 1.7483L3.56283 1.69247L3.61586 1.63663L3.56283 1.69247C3.56283 1.69247 3.5098 1.69247 3.5098 1.7483L3.56283 1.69247L3.61586 1.63663C3.61586 1.63663 3.61586 1.63663 3.61586 1.69247C3.61586 1.7483 3.61586 1.80414 3.72192 1.69247H3.77495L3.72192 1.7483C3.72192 1.7483 3.72192 1.7483 3.66889 1.7483C3.61586 1.85998 3.56283 1.85998 3.5098 1.97165C3.5098 2.02749 3.5098 1.97165 3.5098 1.97165L3.56283 1.91582C3.66889 1.80414 3.61586 1.91582 3.66889 1.85998C3.72192 1.85998 3.72192 1.85998 3.72192 1.80414H3.77495C3.77495 1.80414 3.77495 1.85998 3.72192 1.85998C3.82798 1.80414 3.82798 1.80414 3.77495 1.91582L3.72192 1.97165C3.72192 1.97165 3.72192 2.02749 3.66889 2.02749L3.72192 1.97165H3.77495C3.77495 1.97165 3.72192 1.97165 3.72192 2.02749L3.61586 2.08333V2.13917C3.66889 2.08333 3.66889 2.02749 3.72192 2.02749C3.77495 1.97165 3.88101 1.91582 3.93404 1.91582C3.98707 1.91582 3.88101 1.97165 3.88101 1.97165C3.98707 1.85998 3.88101 2.02749 4.0401 1.91582C3.93404 2.02749 4.09313 1.91582 3.98707 1.97165C3.98707 1.97165 3.98707 1.97165 3.98707 2.02749L4.09313 2.08333L4.14616 2.13917C4.25222 2.13917 4.30525 2.13917 4.25222 2.30668C4.25222 2.36252 4.35828 2.30668 4.35828 2.30668C4.35828 2.30668 4.46434 2.25084 4.35828 2.36252C4.19919 2.58587 4.46434 2.36252 4.46434 2.41836C4.46434 2.47419 4.51737 2.41836 4.5704 2.47419C4.5704 2.53003 4.5704 2.58587 4.46434 2.69754L4.51737 2.64171L4.5704 2.58587C4.5704 2.58587 4.5704 2.58587 4.5704 2.64171L4.51737 2.69754C4.5704 2.69754 4.5704 2.64171 4.62343 2.64171C4.78252 2.47419 4.62343 2.69754 4.72949 2.58587L4.78252 2.64171L4.72949 2.69754C4.72949 2.75338 4.78252 2.69754 4.83555 2.69754C4.83555 2.69754 4.94161 2.64171 4.83555 2.75338C4.99464 2.64171 4.72949 2.86506 4.78252 2.80922C4.78252 2.80922 4.83555 2.80922 4.83555 2.75338C4.88858 2.75338 4.88858 2.69754 4.88858 2.69754C4.94161 2.69754 4.94161 2.75338 4.88858 2.86506L4.83555 2.92089L4.88858 2.86506L4.94161 2.80922L4.88858 2.92089C4.88858 2.97673 4.78252 3.03257 4.83555 2.97673L4.94161 2.92089L4.88858 3.03257C4.88858 3.03257 4.88858 3.03257 4.83555 3.03257H4.78252V3.08841C4.78252 3.08841 4.78252 3.08841 4.83555 3.08841L4.88858 3.03257C4.78252 3.14424 4.83555 3.03257 4.88858 3.03257C4.94161 2.97673 5.04767 2.92089 4.99464 2.97673C4.88858 3.03257 4.94161 3.03257 4.94161 3.03257C4.94161 3.08841 4.99464 2.97673 5.04767 2.92089C5.15373 2.86506 4.99464 3.03257 4.99464 3.03257C4.99464 3.03257 4.88858 3.14424 4.94161 3.08841C4.99464 3.03257 4.99464 3.03257 4.99464 3.03257C5.1007 2.97673 5.15373 2.92089 5.04767 3.03257C4.99464 3.08841 5.1007 3.03257 5.15373 3.03257C5.20676 3.03257 5.2598 3.03257 5.1007 3.20008C5.2598 3.08841 5.15373 3.14424 5.15373 3.20008C5.15373 3.25592 5.2598 3.14424 5.2598 3.20008C5.2598 3.25592 5.31283 3.31176 5.36586 3.31176C5.41889 3.31176 5.31283 3.42343 5.41889 3.36759C5.41889 3.42343 5.41889 3.42343 5.41889 3.47927C5.41889 3.47927 5.47192 3.42343 5.52495 3.42343C5.52495 3.47927 5.57798 3.47927 5.63101 3.53511L5.68404 3.59094L5.73707 3.64678C5.73707 3.75846 5.73707 3.75846 5.7901 3.75846C5.94919 3.64678 5.73707 3.92597 5.89616 3.81429C5.89616 3.81429 5.89616 3.87013 5.84313 3.87013C5.7901 3.92597 5.84313 3.87013 5.84313 3.87013C5.94919 3.87013 5.94919 3.92597 6.00222 3.98181C6.00222 4.03764 6.05525 4.03764 6.05525 4.03764C6.05525 4.03764 6.05525 4.03765 6.05525 4.09348L5.89616 4.20516C5.94919 4.20516 6.00222 4.09348 6.05525 4.09348L5.94919 4.14932L6.00222 4.09348C6.05525 4.09348 6.05525 4.09348 6.05525 4.09348C6.05525 4.14932 6.10828 4.14932 6.10828 4.14932C6.10828 4.20516 6.16131 4.261 6.21434 4.261C6.26737 4.31683 6.3204 4.31683 6.26737 4.37267C6.26737 4.42851 6.37343 4.37267 6.3204 4.42851C6.3204 4.48435 6.26737 4.54018 6.26737 4.54018C6.3204 4.48435 6.26737 4.59602 6.21434 4.65186C6.21434 4.7077 6.37343 4.59602 6.3204 4.7077C6.3204 4.76353 6.37343 4.7077 6.42646 4.7077C6.47949 4.7077 6.3204 4.81937 6.37343 4.76353C6.47949 4.7077 6.53252 4.76353 6.47949 4.87521C6.42646 4.93105 6.47949 4.93105 6.53252 4.87521L6.47949 4.93105C6.53252 4.93105 6.58555 4.93105 6.58555 4.93105C6.63858 4.93105 6.69161 4.98688 6.69161 4.98688C6.74464 5.09856 6.69161 5.21023 6.79767 5.21023C6.63858 5.37775 6.90373 5.1544 6.74464 5.26607L6.79767 5.21023V5.26607C6.79767 5.32191 6.8507 5.37775 6.8507 5.43358C6.8507 5.43358 6.8507 5.48942 6.90373 5.48942C7.11586 5.6011 7.27495 5.76861 7.48707 5.88028H7.59313C7.64616 5.93612 7.69919 6.0478 7.69919 6.0478C7.75222 6.15947 7.75222 6.15947 7.80525 6.21531L6.26737 6.15947ZM2.2901 0.966579C2.2901 1.02242 2.2901 1.02242 2.2901 0.966579C2.2901 1.02242 2.2901 1.02242 2.2901 0.966579C2.34313 0.966579 2.39616 0.910741 2.39616 0.910741C2.34313 0.910741 2.2901 1.02242 2.2901 0.966579ZM1.7598 0.910741C1.7598 0.966579 1.81283 0.966579 1.7598 0.966579C1.81283 0.910741 1.81283 0.910741 1.7598 0.910741ZM1.49464 0.743228C1.49464 0.743228 1.49464 0.799066 1.49464 0.743228C1.49464 0.799066 1.49464 0.799066 1.49464 0.743228C1.49464 0.799066 1.49464 0.799066 1.49464 0.743228ZM1.44161 0.687391C1.44161 0.687391 1.49464 0.687391 1.44161 0.687391C1.49464 0.631553 1.44161 0.631553 1.44161 0.575716C1.38858 0.631553 1.49464 0.631553 1.44161 0.687391ZM1.44161 0.743228C1.44161 0.743228 1.44161 0.687391 1.44161 0.743228C1.44161 0.687391 1.38858 0.687391 1.44161 0.743228ZM1.54767 0.910741C1.49464 0.854904 1.49464 0.799066 1.44161 0.799066C1.44161 0.799066 1.44161 0.743228 1.38858 0.743228L1.54767 0.910741ZM1.65373 1.07825C1.65373 1.02242 1.65373 1.02242 1.65373 1.07825C1.65373 1.02242 1.65373 1.02242 1.65373 1.07825ZM1.70676 1.02242C1.7598 1.02242 1.7598 1.07825 1.70676 1.02242C1.70676 1.02242 1.7598 1.07825 1.70676 1.02242C1.7598 1.07825 1.7598 1.07825 1.70676 1.02242C1.7598 1.02242 1.7598 1.02242 1.70676 1.02242C1.7598 1.02242 1.7598 0.966579 1.70676 1.02242C1.7598 0.966579 1.70676 0.966579 1.70676 1.02242C1.70676 0.910741 1.6007 0.910741 1.6007 0.854904C1.6007 0.854904 1.6007 0.854904 1.54767 0.854904V0.799066C1.6007 0.799066 1.54767 0.799066 1.54767 0.743228C1.54767 0.799066 1.6007 0.743229 1.6007 0.799066C1.65373 0.966579 1.65373 0.966579 1.70676 1.02242C1.70676 0.966579 1.70676 0.966579 1.70676 1.02242C1.70676 0.966579 1.65373 0.966579 1.70676 1.02242C1.65373 0.966579 1.65373 0.966579 1.6007 0.910741V0.854904C1.65373 0.966579 1.65373 1.02242 1.70676 1.02242C1.70676 0.966579 1.70676 1.02242 1.70676 1.02242ZM1.7598 1.13409C1.70676 1.07825 1.7598 1.13409 1.7598 1.07825C1.70676 1.07825 1.70676 1.07825 1.7598 1.13409C1.70676 1.07825 1.70676 1.07825 1.7598 1.13409C1.70676 1.07825 1.70676 1.07825 1.7598 1.13409ZM1.81283 1.18993C1.7598 1.13409 1.7598 1.13409 1.7598 1.13409C1.7598 1.13409 1.7598 1.13409 1.81283 1.18993C1.7598 1.18993 1.7598 1.18993 1.7598 1.18993C1.7598 1.18993 1.7598 1.13409 1.81283 1.18993C1.7598 1.13409 1.7598 1.13409 1.81283 1.18993ZM1.86586 1.24577C1.86586 1.24577 1.81283 1.24577 1.86586 1.24577C1.81283 1.24577 1.81283 1.24577 1.86586 1.24577ZM1.97192 1.3016C1.97192 1.3016 1.97192 1.35744 1.97192 1.3016C1.97192 1.35744 1.97192 1.35744 1.97192 1.3016C2.02495 1.35744 2.02495 1.35744 2.02495 1.35744L1.97192 1.3016C2.02495 1.3016 1.97192 1.3016 1.97192 1.3016C2.02495 1.3016 2.07798 1.24577 2.07798 1.24577C2.07798 1.24577 2.07798 1.18993 2.02495 1.18993C1.97192 1.24577 2.02495 1.13409 1.91889 1.18993C1.97192 1.13409 1.91889 1.13409 1.91889 1.13409H1.97192C1.97192 1.13409 1.97192 1.13409 1.91889 1.13409C1.91889 1.07825 1.91889 1.13409 1.91889 1.13409C1.86586 1.18993 1.91889 1.13409 1.86586 1.13409H1.91889C1.86586 1.07825 1.7598 1.13409 1.81283 1.07825C1.81283 1.07825 1.81283 1.07825 1.81283 1.02242L1.7598 1.07825C1.7598 1.07825 1.7598 1.07825 1.7598 1.13409L1.81283 1.18993L1.97192 1.3016C1.91889 1.3016 1.91889 1.3016 1.97192 1.3016ZM2.07798 1.52495C2.07798 1.46912 2.07798 1.46912 2.07798 1.52495C2.07798 1.46912 2.02495 1.46912 2.02495 1.41328C2.02495 1.41328 1.97192 1.35744 2.02495 1.35744V1.41328V1.46912C2.02495 1.41328 2.02495 1.46912 2.07798 1.52495C2.07798 1.46912 2.07798 1.52495 2.07798 1.52495C2.02495 1.46912 2.02495 1.46912 2.07798 1.52495ZM2.13101 1.46912C2.13101 1.46912 2.13101 1.41328 2.13101 1.46912C2.13101 1.41328 2.07798 1.46912 2.13101 1.46912C2.13101 1.46912 2.07798 1.46912 2.13101 1.46912ZM2.2901 1.52495C2.23707 1.52495 2.23707 1.52495 2.23707 1.52495H2.18404C2.18404 1.52495 2.18404 1.52495 2.18404 1.58079C2.18404 1.58079 2.18404 1.52495 2.13101 1.58079C2.13101 1.58079 2.13101 1.52495 2.13101 1.46912V1.52495C2.13101 1.52495 2.13101 1.52495 2.13101 1.58079C2.13101 1.58079 2.13101 1.58079 2.13101 1.52495V1.58079L2.18404 1.63663C2.18404 1.63663 2.18404 1.69247 2.18404 1.63663C2.18404 1.63663 2.18404 1.58079 2.23707 1.63663L2.2901 1.52495ZM2.2901 1.69247C2.34313 1.7483 2.39616 1.7483 2.39616 1.80414C2.39616 1.80414 2.39616 1.7483 2.34313 1.7483C2.34313 1.69247 2.34313 1.69247 2.2901 1.69247C2.34313 1.69247 2.34313 1.69247 2.34313 1.69247C2.34313 1.69247 2.34313 1.69247 2.2901 1.69247C2.2901 1.69247 2.2901 1.63663 2.2901 1.69247C2.34313 1.63663 2.39616 1.63663 2.39616 1.63663C2.34313 1.58079 2.2901 1.63663 2.2901 1.69247C2.2901 1.63663 2.2901 1.63663 2.2901 1.69247C2.2901 1.63663 2.2901 1.69247 2.2901 1.69247ZM2.34313 1.80414C2.34313 1.7483 2.34313 1.7483 2.34313 1.7483V1.69247C2.34313 1.69247 2.34313 1.69247 2.2901 1.69247C2.2901 1.69247 2.2901 1.7483 2.34313 1.7483C2.2901 1.7483 2.2901 1.80414 2.34313 1.80414C2.2901 1.80414 2.2901 1.80414 2.34313 1.80414C2.2901 1.80414 2.2901 1.80414 2.34313 1.80414C2.2901 1.80414 2.2901 1.80414 2.34313 1.80414C2.2901 1.80414 2.34313 1.80414 2.34313 1.80414ZM2.44919 1.91582C2.39616 1.85998 2.39616 1.85998 2.39616 1.85998C2.39616 1.85998 2.39616 1.85998 2.34313 1.80414V1.85998C2.34313 1.85998 2.34313 1.91582 2.44919 1.91582C2.39616 1.91582 2.34313 1.85998 2.44919 1.91582C2.39616 1.91582 2.39616 1.91582 2.44919 1.91582ZM2.60828 2.02749C2.60828 1.97165 2.60828 1.97165 2.60828 2.02749C2.60828 1.97165 2.60828 2.02749 2.60828 2.02749C2.60828 2.02749 2.60828 1.97165 2.60828 2.02749C2.66131 1.97165 2.66131 1.97165 2.66131 1.97165C2.60828 1.97165 2.66131 1.91582 2.60828 1.97165C2.60828 1.97165 2.60828 1.91582 2.66131 1.91582L2.71434 1.85998H2.66131C2.66131 1.91582 2.55525 1.91582 2.60828 1.91582C2.55525 1.91582 2.60828 1.97165 2.60828 1.97165C2.60828 1.97165 2.60828 1.91582 2.55525 1.91582C2.55525 1.91582 2.55525 1.91582 2.50222 1.91582C2.55525 1.97166 2.55525 1.97165 2.55525 1.97165C2.55525 1.97165 2.55525 1.97165 2.60828 2.02749ZM3.19161 1.63663C3.19161 1.58079 3.24464 1.58079 3.24464 1.52495L3.19161 1.63663C3.13858 1.58079 3.13858 1.58079 3.19161 1.63663C3.19161 1.58079 3.19161 1.52495 3.19161 1.52495C3.19161 1.52495 3.19161 1.52495 3.13858 1.52495C3.19161 1.52495 3.13858 1.58079 3.08555 1.63663C3.03252 1.69247 3.08555 1.69247 3.08555 1.69247C3.08555 1.69247 3.13858 1.69247 3.19161 1.63663ZM2.71434 2.13917C2.71434 2.13917 2.66131 2.13917 2.71434 2.13917V2.13917ZM2.92646 2.36252C2.92646 2.36252 2.97949 2.30668 2.97949 2.25084L2.92646 2.36252C2.87343 2.30668 2.92646 2.25084 2.92646 2.25084L2.87343 2.30668C2.87343 2.30668 2.87343 2.36252 2.92646 2.36252C2.87343 2.36252 2.87343 2.36252 2.92646 2.36252C2.87343 2.41836 2.92646 2.41836 2.92646 2.36252C2.92646 2.41836 2.92646 2.36252 2.92646 2.36252ZM2.97949 2.47419C2.97949 2.47419 2.97949 2.41836 2.97949 2.47419C2.97949 2.41836 2.92646 2.41836 2.97949 2.47419C2.97949 2.41836 2.97949 2.47419 2.97949 2.47419C2.97949 2.41836 2.97949 2.41836 2.97949 2.47419C2.97949 2.41836 2.97949 2.41836 2.97949 2.47419C2.92646 2.41836 2.97949 2.41836 2.97949 2.47419ZM3.56283 2.13917C3.56283 2.13917 3.5098 2.08333 3.56283 2.13917C3.5098 2.08333 3.45676 2.13917 3.45676 2.13917L3.40373 2.19501C3.45676 2.19501 3.5098 2.19501 3.56283 2.13917ZM3.13858 2.64171C3.13858 2.64171 3.13858 2.58587 3.08555 2.58587C3.08555 2.58587 3.08555 2.58587 3.03252 2.58587L3.13858 2.64171C3.13858 2.58587 3.13858 2.64171 3.13858 2.64171C3.08555 2.64171 3.13858 2.64171 3.13858 2.64171ZM3.19161 2.69754C3.13858 2.69754 3.13858 2.69754 3.13858 2.69754H3.19161ZM3.29767 2.75338C3.24464 2.75338 3.24464 2.69754 3.29767 2.75338C3.24464 2.75338 3.24464 2.75338 3.29767 2.75338C3.24464 2.75338 3.29767 2.75338 3.29767 2.75338ZM3.45676 2.97673C3.5098 2.92089 3.45676 2.92089 3.40373 2.86506L3.45676 2.97673C3.40373 2.92089 3.45676 2.97673 3.45676 2.97673ZM4.0401 2.53003C4.0401 2.53003 4.0401 2.58587 4.0401 2.53003C4.0401 2.58587 4.09313 2.58587 4.0401 2.53003C4.19919 2.47419 4.0401 2.58587 4.09313 2.47419C4.09313 2.47419 4.09313 2.47419 4.0401 2.53003ZM3.61586 2.92089C3.61586 2.92089 3.72192 2.86506 3.66889 2.86506L3.61586 2.92089C3.56283 2.92089 3.45676 2.97673 3.45676 2.97673V3.03257L3.61586 2.92089C3.5098 3.03257 3.61586 2.97673 3.61586 2.92089C3.66889 2.92089 3.61586 2.92089 3.61586 2.92089ZM3.77495 2.92089C3.88101 2.80922 3.72192 2.92089 3.72192 2.92089C3.72192 2.92089 3.66889 2.97673 3.61586 2.97673C3.61586 3.03257 3.66889 3.03257 3.77495 2.92089ZM3.61586 3.25592V3.20008C3.61586 3.20008 3.61586 3.20008 3.61586 3.25592C3.61586 3.20008 3.61586 3.20008 3.61586 3.25592ZM3.66889 3.25592C3.66889 3.25592 3.72192 3.25592 3.66889 3.25592C3.66889 3.20008 3.66889 3.20008 3.66889 3.20008C3.66889 3.20008 3.66889 3.20008 3.61586 3.20008C3.66889 3.25592 3.66889 3.25592 3.66889 3.25592ZM3.88101 3.42343C3.82798 3.42343 3.82798 3.42343 3.88101 3.42343C3.82798 3.36759 3.82798 3.36759 3.88101 3.42343C3.88101 3.36759 3.88101 3.36759 3.88101 3.31176L3.93404 3.25592C3.93404 3.25592 3.77495 3.42343 3.82798 3.36759C3.82798 3.42343 3.82798 3.42343 3.88101 3.42343ZM4.46434 2.97673C4.51737 2.97673 4.5704 2.92089 4.5704 2.86506H4.51737C4.62343 2.80922 4.62343 2.80922 4.62343 2.75338V2.69754C4.46434 2.80922 4.51737 2.86506 4.46434 2.97673C4.41131 2.97673 4.46434 2.92089 4.46434 2.97673ZM3.93404 3.53511C3.93404 3.53511 3.93404 3.47927 3.93404 3.53511C3.93404 3.47927 3.93404 3.47927 3.93404 3.53511ZM4.5704 2.97673C4.5704 2.97673 4.62343 2.97673 4.62343 2.92089C4.62343 2.86506 4.62343 2.86506 4.62343 2.86506C4.5704 2.92089 4.67646 2.86506 4.5704 2.97673C4.5704 2.92089 4.5704 2.97673 4.5704 2.97673ZM3.98707 3.59094C3.93404 3.59094 3.98707 3.59094 3.98707 3.59094V3.59094ZM3.93404 3.64678C3.93404 3.64678 3.93404 3.59094 3.93404 3.64678C3.93404 3.59094 3.93404 3.59094 3.93404 3.64678ZM4.78252 2.92089C4.78252 2.86506 4.67646 2.97673 4.67646 3.03257C4.62343 3.08841 4.5704 3.08841 4.5704 3.08841V3.03257C4.62343 2.97673 4.62343 2.97673 4.5704 3.03257C4.67646 3.03257 4.72949 2.97673 4.78252 2.92089ZM5.1007 3.14424C5.04767 3.14424 4.99464 3.14424 4.94161 3.20008C4.88858 3.25592 4.99464 3.20008 4.94161 3.20008C4.94161 3.20008 4.94161 3.25592 4.88858 3.25592C4.78252 3.36759 4.94161 3.25592 4.94161 3.25592C4.99464 3.25592 5.04767 3.20008 5.1007 3.14424ZM4.67646 3.75846C4.72949 3.75846 4.72949 3.70262 4.67646 3.75846C4.67646 3.70262 4.62343 3.75846 4.62343 3.75846L4.5704 3.81429C4.62343 3.81429 4.67646 3.75846 4.67646 3.75846ZM4.41131 4.03764L4.46434 3.92597L4.41131 3.98181C4.35828 4.03764 4.41131 4.03764 4.41131 4.03764ZM4.62343 4.261C4.5704 4.261 4.62343 4.261 4.62343 4.261C4.5704 4.20516 4.5704 4.261 4.62343 4.261C4.5704 4.261 4.62343 4.261 4.62343 4.261ZM4.67646 4.261H4.62343C4.5704 4.261 4.62343 4.31683 4.62343 4.31683C4.62343 4.261 4.62343 4.261 4.67646 4.261C4.62343 4.261 4.67646 4.261 4.67646 4.261ZM5.2598 3.75846V3.70262C5.2598 3.70262 5.20676 3.75846 5.2598 3.75846L5.1007 3.92597C5.15373 3.81429 5.20676 3.75846 5.2598 3.75846ZM5.2598 3.92597C5.2598 3.92597 5.20676 3.92597 5.2598 3.92597L5.1007 4.03764C5.1007 4.03764 5.04767 4.14932 5.1007 4.03764C5.15373 4.03764 5.20676 3.92597 5.2598 3.92597ZM5.04767 4.31683L4.83555 4.42851V4.48435C4.88858 4.48435 4.94161 4.42851 4.99464 4.37267C4.99464 4.31683 5.04767 4.31683 5.04767 4.31683ZM5.20676 4.59602C5.20676 4.54018 5.2598 4.54018 5.2598 4.54018C5.2598 4.54018 5.20676 4.54018 5.20676 4.59602C5.15373 4.65186 5.1007 4.65186 5.20676 4.59602C5.20676 4.65186 5.20676 4.65186 5.20676 4.59602ZM5.31283 4.54018C5.20676 4.65186 5.20676 4.65186 5.20676 4.7077C5.20676 4.7077 5.20676 4.7077 5.2598 4.7077L5.31283 4.54018C5.36586 4.48435 5.31283 4.54018 5.31283 4.54018ZM5.04767 4.76353C5.04767 4.76353 5.04767 4.81937 5.04767 4.76353C5.04767 4.81937 5.1007 4.81937 5.04767 4.76353C5.1007 4.81937 5.1007 4.76353 5.04767 4.76353ZM5.1007 4.87521L5.04767 4.81937L5.1007 4.87521ZM5.41889 4.98688C5.47192 4.93105 5.52495 4.87521 5.52495 4.87521H5.47192C5.41889 4.93105 5.2598 5.04272 5.36586 5.04272L5.41889 4.98688ZM6.05525 5.99196C6.05525 5.99196 6.05525 5.93612 6.05525 5.99196C6.05525 5.93612 6.05525 5.93612 6.05525 5.99196C6.05525 5.93612 6.05525 5.93612 6.05525 5.99196Z" fill="#231F20"/>
<path d="M1.28252 0.63201L1.22949 0.576172L1.28252 0.63201C1.28252 0.576172 1.28252 0.576172 1.28252 0.63201Z" fill="#231F20"/>
<path d="M2.50293 2.08341C2.55596 2.08341 2.55596 2.08341 2.50293 2.08341C2.50293 2.02757 2.55596 2.08341 2.50293 2.08341C2.50293 2.08341 2.55596 2.08341 2.50293 2.08341C2.55596 2.08341 2.55596 2.08341 2.50293 2.08341Z" fill="#231F20"/>
<path d="M1.75977 0.520193C1.75977 0.520193 1.8128 0.520193 1.8128 0.576031C1.8128 0.520193 1.8128 0.520193 1.75977 0.464355V0.520193Z" fill="#231F20"/>
<path d="M2.60813 2.13956C2.60813 2.13956 2.5551 2.08372 2.60813 2.13956C2.5551 2.13956 2.5551 2.08372 2.60813 2.13956C2.5551 2.13956 2.5551 2.13956 2.60813 2.13956Z" fill="#231F20"/>
<path d="M2.66143 1.07879C2.76749 0.967112 2.6084 1.07879 2.66143 1.07879C2.6084 1.02295 2.6084 1.02295 2.6084 1.02295V1.07879H2.66143Z" fill="#231F20"/>
<path d="M3.40345 3.08875C3.40345 3.03292 3.40345 3.03292 3.40345 3.08875C3.35042 3.03292 3.40345 3.03292 3.40345 3.08875Z" fill="#231F20"/>
<path d="M2.66172 1.13419C2.71475 1.13419 2.71475 1.13419 2.66172 1.13419C2.71475 1.13419 2.71475 1.07835 2.66172 1.13419C2.71475 1.13419 2.66172 1.13419 2.66172 1.13419C2.60869 1.13419 2.60869 1.19003 2.60869 1.19003C2.55566 1.19003 2.55566 1.24587 2.55566 1.24587H2.60869C2.66172 1.19003 2.66172 1.13419 2.66172 1.13419Z" fill="#231F20"/>
<path d="M6.05482 5.99219C6.05482 5.99219 6.00179 5.99219 6.05482 5.99219V6.04803C6.05482 5.99219 6.00179 5.99219 6.05482 5.99219Z" fill="#231F20"/>
<path d="M5.36634 5.21036C5.36634 5.21036 5.31331 5.15453 5.36634 5.21036C5.31331 5.21036 5.36634 5.21036 5.36634 5.21036Z" fill="#231F20"/>
<path d="M1.81348 0.519934H1.86651C1.86651 0.519934 1.86651 0.464096 1.81348 0.519934Z" fill="#231F20"/>
<path d="M4.25195 4.0376C4.25195 4.0376 4.30498 4.09344 4.25195 4.0376V4.0376Z" fill="#231F20"/>
<path d="M1.97266 1.3578C2.02569 1.3578 1.97266 1.3578 1.97266 1.3578C1.97266 1.30196 1.97266 1.30196 1.97266 1.3578Z" fill="#231F20"/>
<path d="M1.91908 1.18994C1.86605 1.18994 1.91908 1.18994 1.91908 1.18994C1.91908 1.24578 1.91908 1.18994 1.91908 1.18994Z" fill="#231F20"/>
<path d="M1.49485 10.4035C1.44182 10.4035 1.44182 10.3476 1.49485 10.4035C1.54788 10.3476 1.49485 10.3476 1.49485 10.3476C1.49485 10.3476 1.49485 10.2918 1.54788 10.2918C1.54788 10.2918 1.54788 10.2918 1.60091 10.2918C1.60091 10.2918 1.60091 10.2918 1.60091 10.2359C1.60091 10.2359 1.60091 10.1801 1.65394 10.1801H1.70697C1.70697 10.1801 1.70697 10.1243 1.76 10.1243L1.81303 10.0684H1.86606C1.91909 10.0684 1.86606 10.0684 1.86606 10.0684C1.86606 10.0684 1.91909 10.0126 1.86606 10.0126H1.91909H1.97212L2.02515 9.95676H2.07818C2.07818 9.90092 2.07818 9.90093 2.13121 9.90093C2.13121 9.90093 2.18424 9.90093 2.18424 9.84509C2.18424 9.84509 2.18424 9.84509 2.23728 9.84509C2.23728 9.84509 2.29031 9.84509 2.29031 9.78925L2.34334 9.73341C2.34334 9.73341 2.39637 9.73341 2.34334 9.73341L2.39637 9.67757C2.4494 9.67757 2.4494 9.62174 2.4494 9.62174C2.4494 9.62174 2.4494 9.62174 2.50243 9.62174C2.50243 9.62174 2.55546 9.62174 2.55546 9.5659C2.55546 9.5659 2.55546 9.5659 2.60849 9.5659C2.60849 9.5659 2.60849 9.5659 2.60849 9.51006V9.45422L2.66152 9.39839L2.71455 9.34255L2.76758 9.28671C2.76758 9.28671 2.76758 9.28671 2.82061 9.28671C2.82061 9.28671 2.76758 9.28671 2.76758 9.34255C2.76758 9.34255 2.76758 9.34255 2.76758 9.39839L2.82061 9.34255L2.87364 9.28671C2.87364 9.28671 2.87364 9.28671 2.92667 9.28671C2.92667 8.95169 2.9797 8.95169 2.9797 8.95169C2.9797 8.95169 2.9797 8.95169 3.03273 8.95169V8.89585C3.03273 8.89585 3.03273 8.89585 3.03273 8.84001C3.03273 8.84001 3.03273 8.84001 3.08576 8.84001C3.08576 8.84001 3.08576 8.84001 3.08576 8.78417H3.13879C3.13879 8.78417 3.13879 8.78417 3.19182 8.72834C3.19182 8.72834 3.24485 8.72834 3.24485 8.6725C3.24485 8.6725 3.24485 8.61666 3.29788 8.61666C3.29788 8.61666 3.29788 8.61666 3.35091 8.61666C3.29788 8.56082 3.40394 8.56082 3.40394 8.56082C3.40394 8.56082 3.45697 8.56082 3.45697 8.50499H3.51H3.45697C3.45697 8.50499 3.45697 8.50499 3.45697 8.44915C3.45697 8.44915 3.45697 8.39331 3.40394 8.44915C3.45697 8.44915 3.40394 8.44915 3.40394 8.39331C3.40394 8.39331 3.40394 8.39331 3.45697 8.39331C3.45697 8.39331 3.51 8.33747 3.51 8.39331C3.51 8.33747 3.51 8.39331 3.51 8.39331C3.51 8.39331 3.51 8.39331 3.56303 8.39331C3.56303 8.39331 3.61606 8.39331 3.61606 8.33747C3.61606 8.28164 3.66909 8.33747 3.66909 8.33747C3.66909 8.33747 3.66909 8.33747 3.72212 8.33747C3.72212 8.33747 3.77515 8.33747 3.77515 8.28164C3.77515 8.28164 3.77515 8.28164 3.82818 8.28164H3.88121H3.93425C3.93425 8.28164 3.93425 8.28164 3.93425 8.2258H3.98728C3.98728 8.2258 4.04031 8.2258 4.04031 8.16996C4.09334 8.16996 4.09334 8.11412 4.14637 8.11412C4.14637 8.11412 4.1994 8.11412 4.1994 8.05829C4.1994 8.05829 4.1994 8.05829 4.1994 8.00245L4.25243 7.94661L4.30546 7.89077C4.30546 7.89077 4.30546 7.89077 4.30546 7.83494H4.35849C4.35849 7.83494 4.35849 7.83494 4.41152 7.83494L4.46455 7.7791C4.46455 7.7791 4.46455 7.7791 4.51758 7.72326C4.51758 7.72326 4.51758 7.72326 4.51758 7.7791C4.51758 7.7791 4.57061 7.7791 4.51758 7.7791C5.04788 7.3324 5.04788 7.27656 5.10091 7.27656C5.10091 7.27656 5.10091 7.22072 5.15394 7.22072C5.15394 7.22072 5.15394 7.27656 5.15394 7.22072V7.16489H5.20697C5.20697 7.16489 5.20697 7.16489 5.26 7.16489L5.31303 7.10905C5.36606 7.10905 5.36606 7.05321 5.36606 7.05321C5.36606 7.05321 5.36606 7.05321 5.41909 7.05321C5.41909 7.05321 5.41909 7.05321 5.41909 6.99737C5.41909 6.94154 5.41909 6.99737 5.41909 6.99737L5.47212 6.94153C5.52515 6.94153 5.52515 6.94154 5.52515 6.8857C5.52515 6.8857 5.52515 6.82986 5.57818 6.82986L5.63121 6.77402C5.63121 6.77402 5.63122 6.77402 5.68425 6.77402L5.73728 6.71818L5.79031 6.66235L5.84334 6.60651C5.84334 6.60651 5.89637 6.60651 5.89637 6.55067C5.89637 6.49483 5.9494 6.49483 6.00243 6.439L6.05546 6.38316V6.32732C6.10849 6.32732 6.10849 6.27148 6.10849 6.27148H6.16152C6.16152 6.27148 6.16152 6.27148 6.21455 6.27148H6.26758C6.21455 6.27148 6.26758 6.27148 6.26758 6.27148H6.32061L6.26758 6.32732C6.26758 6.32732 6.26758 6.32732 6.32061 6.32732C6.37364 6.32732 6.37364 6.38316 6.42667 6.439C6.42667 6.38316 6.63879 6.38316 6.4797 6.32732C6.53273 6.32732 6.53273 6.32732 6.58576 6.32732C6.63879 6.32732 6.69182 6.32732 6.69182 6.32732C6.42667 6.27148 6.53273 6.32732 6.63879 6.32732L7.38122 6.38316C7.38122 6.38316 7.54031 6.38316 7.48728 6.38316C7.54031 6.38316 7.54031 6.38316 7.59334 6.38316H7.6994C7.6994 6.38316 7.75243 6.38316 7.75243 6.439C7.75243 6.49483 7.59334 6.60651 7.85849 6.60651C7.91152 6.60651 7.91152 6.60651 7.96455 6.66235L7.91152 6.71818C7.91152 6.71818 7.91152 6.71818 7.85849 6.71818C7.64637 6.66235 7.80546 6.82986 7.6994 6.82986C7.64637 6.82986 7.54031 6.77402 7.48728 6.77402C7.38121 6.82986 7.38121 6.8857 7.48728 6.94153C7.59334 6.99737 7.59334 6.99737 7.38122 7.16489C7.32818 7.16489 7.38122 7.27656 7.38122 7.3324C7.38122 7.38824 7.32818 7.44407 7.27515 7.44407C7.27515 7.44407 7.22212 7.44407 7.16909 7.38824C7.11606 7.3324 7.32818 7.55575 7.16909 7.44407C7.16909 7.44407 7.16909 7.49991 7.22212 7.49991C7.32818 7.66742 7.11606 7.38824 7.11606 7.44407C7.06303 7.38824 7.01 7.3324 7.06303 7.44407C7.06303 7.44407 7.06303 7.44407 7.01 7.44407L6.95697 7.38824C6.95697 7.38824 6.95697 7.38824 7.01 7.38824C6.95697 7.3324 6.90394 7.3324 6.90394 7.27656C6.85091 7.27656 6.79788 7.27656 6.74485 7.27656C6.74485 7.27656 6.74485 7.3324 6.79788 7.3324C6.79788 7.3324 6.79788 7.27656 6.90394 7.38824C6.95697 7.44407 6.90394 7.44407 6.95697 7.49991C7.11606 7.66742 6.79788 7.38824 6.95697 7.61159L7.01 7.66742C7.01 7.61159 7.01 7.61159 7.11606 7.72326H7.06303C7.06303 7.7791 6.95697 7.61159 6.95697 7.66742L7.01 7.7791C7.01 7.7791 7.01 7.7791 7.01 7.83494L6.90394 7.72326C6.90394 7.72326 6.90394 7.72326 6.85091 7.72326L6.90394 7.7791C6.79788 7.72326 6.90394 7.89077 6.95697 7.94661C7.01 8.05829 6.85091 8.05829 6.69182 7.89077C6.53273 7.7791 6.74485 7.94661 6.69182 7.89077C6.58576 7.7791 6.69182 7.94661 6.69182 7.94661C6.85091 8.16996 6.69182 7.94661 6.69182 8.00245C6.74485 8.11412 6.69182 8.05829 6.69182 8.05829C6.4797 7.83494 6.79788 8.2258 6.63879 8.05829C6.74485 8.2258 6.42667 7.89077 6.63879 8.16996C6.4797 8.00245 6.53273 8.11412 6.4797 8.00245L6.42667 7.94661C6.37364 7.94661 6.37364 7.89077 6.32061 7.89077L6.37364 7.94661C6.37364 7.94661 6.37364 8.00245 6.32061 7.94661C6.26758 7.89077 6.21455 7.83494 6.16152 7.7791C6.16152 7.7791 6.10849 7.7791 6.10849 7.72326C6.10849 7.72326 6.10849 7.72326 6.10849 7.7791L6.21455 7.89077C6.26758 7.94661 6.32061 8.00245 6.32061 8.00245C6.37364 8.05829 6.42667 8.2258 6.32061 8.05829V8.11412L6.26758 8.05829C6.26758 8.00245 6.21455 7.94661 6.21455 7.94661C6.16152 7.89077 6.16152 7.89077 6.10849 7.89077L6.21455 7.94661H6.26758C6.16152 7.89077 6.16152 7.89077 6.16152 7.94661L6.21455 8.00245C6.26758 8.05829 6.32061 8.16996 6.32061 8.2258V8.28164C6.26758 8.16996 6.32061 8.33747 6.21455 8.16996L6.16152 8.11412L6.21455 8.2258L6.26758 8.28164L6.21455 8.33747L6.16152 8.2258L6.05546 8.11412L6.10849 8.16996C6.10849 8.16996 6.00243 8.05829 6.05546 8.11412C6.05546 8.16996 6.16152 8.28164 6.21455 8.33747L6.26758 8.39331C6.26758 8.44915 6.26758 8.50499 6.26758 8.44915C6.16152 8.39331 6.26758 8.50499 6.21455 8.44915C6.21455 8.44915 6.21455 8.44915 6.16152 8.44915L6.10849 8.33747L6.16152 8.39331L6.10849 8.33747V8.28164C6.10849 8.28164 6.10849 8.28164 6.16152 8.28164L6.05546 8.16996H6.00243H5.9494C5.89637 8.05829 5.9494 8.16996 5.9494 8.16996V8.11412C5.9494 8.11412 5.89637 8.05829 5.89637 8.11412C5.89637 8.11412 5.89637 8.16996 5.84334 8.2258C5.84334 8.2258 5.84334 8.2258 5.84334 8.28164L5.89637 8.33747C5.9494 8.33747 6.00243 8.50499 6.05546 8.50499L6.00243 8.44915L5.9494 8.39331C5.9494 8.39331 5.9494 8.39331 5.9494 8.44915C5.9494 8.50499 6.00243 8.50499 6.00243 8.56082L6.05546 8.61666C6.05546 8.61666 6.05546 8.61666 6.00243 8.61666L5.79031 8.44915C6.00243 8.78417 5.79031 8.50499 5.79031 8.50499C5.73728 8.50499 5.84334 8.61666 5.84334 8.61666C5.89637 8.72834 5.84334 8.6725 5.84334 8.72834C5.84334 8.78417 5.89637 8.84001 5.84334 8.84001C5.84334 8.84001 5.79031 8.84001 5.79031 8.78417C5.63121 8.44915 5.63121 8.39331 5.63121 8.39331C5.63121 8.39331 5.68425 8.39331 5.68425 8.44915L5.63121 8.33747C5.63121 8.33747 5.63121 8.39331 5.63121 8.44915L5.57818 8.39331C5.52515 8.33747 5.63121 8.50499 5.57818 8.44915V8.39331C5.57818 8.39331 5.57818 8.33747 5.52515 8.33747C5.52515 8.33747 5.52515 8.28164 5.47212 8.28164C5.47212 8.28164 5.47212 8.33747 5.52515 8.33747C5.52515 8.39331 5.57818 8.39331 5.57818 8.44915C5.57818 8.44915 5.52515 8.44915 5.52515 8.39331C5.47212 8.33747 5.52515 8.39331 5.47212 8.33747L5.41909 8.28164C5.41909 8.28164 5.41909 8.33747 5.41909 8.28164C5.41909 8.28164 5.36606 8.2258 5.31303 8.16996L5.26 8.11412V8.16996L5.20697 8.11412C5.20697 8.05829 5.36606 8.33747 5.31303 8.2258C5.31303 8.2258 5.31303 8.2258 5.36606 8.28164C5.41909 8.39331 5.47212 8.33747 5.52515 8.50499C5.52515 8.56082 5.47212 8.44915 5.41909 8.33747L5.47212 8.39331L5.52515 8.44915C5.47212 8.39331 5.47212 8.39331 5.41909 8.33747C5.41909 8.33747 5.41909 8.28164 5.36606 8.28164L5.41909 8.33747L5.47212 8.39331H5.41909C5.36606 8.39331 5.31303 8.33747 5.41909 8.50499V8.56082L5.36606 8.50499C5.36606 8.50499 5.36606 8.50499 5.41909 8.50499C5.41909 8.50499 5.41909 8.50499 5.41909 8.44915C5.36606 8.39331 5.36606 8.33747 5.26 8.2258C5.20697 8.16996 5.26 8.2258 5.26 8.2258L5.31303 8.28164C5.41909 8.39331 5.31303 8.33747 5.36606 8.39331C5.36606 8.44915 5.36606 8.44915 5.41909 8.50499V8.56082L5.36606 8.50499C5.36606 8.50499 5.36606 8.50499 5.36606 8.44915C5.41909 8.56082 5.41909 8.56082 5.31303 8.44915C5.31303 8.44915 5.31303 8.44915 5.26 8.39331L5.20697 8.33747L5.15394 8.28164L5.20697 8.33747V8.39331C5.20697 8.39331 5.20697 8.39331 5.20697 8.33747C5.20697 8.33747 5.20697 8.28164 5.15394 8.28164L5.10091 8.50499H5.04788C5.10091 8.56082 5.15394 8.61666 5.15394 8.6725C5.20697 8.78417 5.26 8.89585 5.26 8.89585C5.26 8.95169 5.20697 8.84001 5.15394 8.78417C5.26 8.95169 5.10091 8.78417 5.20697 8.95169C5.15394 8.84001 5.20697 9.06336 5.15394 8.89585H5.10091C5.10091 8.89585 5.10091 8.89585 5.10091 8.95169C5.10091 8.95169 5.04788 8.95169 5.04788 9.00752C5.04788 9.06336 4.99485 9.1192 4.88879 9.06336C4.83576 9.00752 4.88879 9.17504 4.83576 9.17504C4.83576 9.17504 4.83576 9.28671 4.78273 9.17504C4.62364 8.95169 4.78273 9.23087 4.7297 9.23087C4.67667 9.23087 4.7297 9.28671 4.67667 9.28671C4.62364 9.28671 4.57061 9.23087 4.51758 9.1192V9.17504L4.57061 9.23087C4.57061 9.23087 4.57061 9.23087 4.51758 9.23087L4.46455 9.17504C4.46455 9.23087 4.51758 9.23087 4.51758 9.28671C4.62364 9.45422 4.46455 9.28671 4.51758 9.34255H4.46455C4.46455 9.34255 4.46455 9.28671 4.41152 9.28671C4.35849 9.23087 4.41152 9.34255 4.35849 9.34255C4.35849 9.34255 4.35849 9.45423 4.30546 9.34255C4.35849 9.45423 4.25243 9.23087 4.25243 9.28671V9.34255C4.25243 9.39839 4.30546 9.39839 4.30546 9.39839C4.30546 9.45422 4.25243 9.45423 4.14637 9.34255L4.09334 9.28671L4.14637 9.34255L4.1994 9.39839L4.14637 9.34255C4.14637 9.34255 4.09334 9.23087 4.09334 9.28671C4.09334 9.28671 4.14637 9.34255 4.14637 9.39839L4.09334 9.28671C4.09334 9.28671 4.09334 9.28671 4.09334 9.23087H4.04031C4.04031 9.23087 4.04031 9.23087 4.04031 9.28671C3.98728 9.17504 4.04031 9.23087 4.04031 9.28671C4.09334 9.34255 4.09334 9.39839 4.04031 9.34255C4.04031 9.28671 4.04031 9.34255 4.04031 9.28671C3.98728 9.23087 4.09334 9.34255 4.09334 9.39839C4.14637 9.51006 4.04031 9.34255 4.04031 9.39839L3.98728 9.34255C4.04031 9.39839 3.98728 9.39839 4.04031 9.39839C4.09334 9.51006 4.09334 9.5659 4.04031 9.45422C3.98728 9.45422 4.04031 9.51006 4.04031 9.51006C4.04031 9.51006 4.04031 9.5659 3.88121 9.45422C3.98728 9.5659 3.88121 9.51006 3.88121 9.51006C3.88121 9.51006 3.93424 9.5659 3.88121 9.5659C3.82818 9.5659 3.77515 9.5659 3.77515 9.62174C3.77515 9.62174 3.66909 9.5659 3.72212 9.62174C3.72212 9.62174 3.66909 9.62174 3.61606 9.62174C3.61606 9.62174 3.66909 9.67757 3.61606 9.67757C3.56303 9.67757 3.51 9.73341 3.51 9.73341L3.45697 9.78925L3.40394 9.84509C3.35091 9.78925 3.35091 9.78925 3.35091 9.78925C3.40394 9.90093 3.24485 9.73341 3.29788 9.84509H3.24485C3.19182 9.78925 3.19182 9.84509 3.19182 9.84509C3.19182 9.90093 3.13879 9.90093 3.08576 9.90093H3.03273L2.9797 9.84509C2.9797 9.90093 3.03273 9.90092 3.03273 9.95676L2.9797 9.90093L3.03273 9.95676V10.0126C2.9797 10.0126 2.9797 10.0126 2.9797 10.0126C2.92667 10.0126 2.87364 10.0684 2.87364 10.0684C2.82061 10.0684 2.82061 10.1243 2.76758 10.1243C2.71455 10.1243 2.76758 10.1801 2.71455 10.1801C2.71455 10.1801 2.66152 10.1243 2.66152 10.1801C2.66152 10.236 2.60849 10.1801 2.60849 10.1801C2.55546 10.1801 2.60849 10.2918 2.55546 10.2359V10.2918C2.55546 10.2918 2.50243 10.236 2.50243 10.2918C2.50243 10.3476 2.4494 10.3476 2.39637 10.3476C2.34334 10.3476 2.34334 10.3476 2.39637 10.4035H2.34334C2.34334 10.4035 2.34334 10.4593 2.29031 10.4593C2.29031 10.4593 2.23728 10.5151 2.18424 10.5151C2.13121 10.5151 2.02515 10.571 1.97212 10.6268C1.91909 10.571 1.97212 10.6827 1.91909 10.6268H1.86606H1.76C1.76 10.6268 1.76 10.6268 1.70697 10.6268L1.49485 10.4035ZM6.32061 7.49991H6.26758C6.26758 7.49991 6.26758 7.49991 6.32061 7.49991C6.37364 7.61159 6.42667 7.66742 6.4797 7.66742C6.4797 7.66742 6.32061 7.55575 6.32061 7.49991ZM6.16152 6.77402C6.05546 6.71819 6.10849 6.77402 6.05546 6.77402V6.82986C6.16152 6.82986 6.21455 6.8857 6.16152 6.77402C6.21455 6.82986 6.21455 6.82986 6.16152 6.77402C6.21455 6.82986 6.21455 6.77402 6.16152 6.77402ZM6.21455 6.32732C6.26758 6.38316 6.32061 6.439 6.32061 6.439C6.42667 6.55067 6.26758 6.32732 6.42667 6.439C6.42667 6.439 6.42667 6.439 6.42667 6.38316C6.21455 6.27148 6.37364 6.49483 6.21455 6.32732ZM6.16152 6.32732C6.16152 6.32732 6.16152 6.38316 6.16152 6.32732C6.21455 6.32732 6.21455 6.32732 6.16152 6.32732ZM6.00243 6.38316C6.05546 6.32732 6.05546 6.32732 6.10849 6.32732C6.10849 6.32732 6.10849 6.32732 6.10849 6.27148L6.00243 6.38316ZM5.89637 6.55067C5.89637 6.49483 5.89637 6.49483 5.89637 6.55067C5.89637 6.49483 5.89637 6.49483 5.89637 6.55067ZM5.9494 6.60651C5.89637 6.60651 5.9494 6.60651 5.9494 6.60651C5.89637 6.60651 5.89637 6.66235 5.9494 6.60651C5.89637 6.60651 5.89637 6.60651 5.9494 6.60651C5.89637 6.60651 5.89637 6.60651 5.9494 6.60651C5.9494 6.66235 6.00243 6.71818 6.00243 6.66235H6.05546C6.05546 6.66235 6.05546 6.66235 5.9494 6.60651C6.16152 6.71818 6.00243 6.49483 6.10849 6.55067C6.10849 6.55067 6.10849 6.55067 6.10849 6.49483C6.10849 6.55067 6.10849 6.49483 6.16152 6.49483C6.10849 6.49483 6.16152 6.55067 6.16152 6.55067C6.00243 6.55067 6.00243 6.55067 5.9494 6.60651C6.00243 6.55067 6.00243 6.55067 6.00243 6.49483H6.05546C5.9494 6.55067 5.9494 6.55067 5.9494 6.60651C5.9494 6.55067 5.9494 6.55067 5.9494 6.60651C5.9494 6.55067 5.89637 6.60651 5.9494 6.60651ZM5.84334 6.60651C5.89637 6.60651 5.89637 6.60651 5.89637 6.60651C5.89637 6.60651 5.89637 6.60651 5.84334 6.60651C5.89637 6.55067 5.89637 6.55067 5.84334 6.60651C5.89637 6.55067 5.89637 6.60651 5.84334 6.60651C5.84334 6.55067 5.84334 6.55067 5.84334 6.60651ZM5.79031 6.66235C5.84334 6.60651 5.84334 6.60651 5.79031 6.66235C5.84334 6.60651 5.79031 6.60651 5.79031 6.66235C5.79031 6.60651 5.79031 6.60651 5.79031 6.60651C5.79031 6.60651 5.79031 6.60651 5.79031 6.66235C5.79031 6.60651 5.79031 6.60651 5.79031 6.66235ZM5.73728 6.71818C5.73728 6.71818 5.73728 6.66235 5.73728 6.71818C5.73728 6.66235 5.73728 6.66235 5.73728 6.71818ZM5.68425 6.82986C5.68425 6.82986 5.63122 6.82986 5.68425 6.82986C5.63122 6.8857 5.63121 6.8857 5.63121 6.8857L5.68425 6.82986C5.73728 6.94153 5.79031 6.99737 5.79031 6.99737H5.84334C5.79031 6.94154 5.9494 7.05321 5.84334 6.8857C5.9494 6.99737 5.89637 6.8857 5.9494 6.94153L6.00243 6.99737C6.00243 6.99737 6.00243 6.99737 6.00243 6.94153C6.00243 6.94153 5.9494 6.8857 5.89637 6.82986C5.79031 6.71818 5.89637 6.77402 5.84334 6.71818L5.89637 6.77402V6.82986C5.89637 6.77402 5.73728 6.60651 5.84334 6.66235L5.89637 6.71818L5.79031 6.60651C5.79031 6.60651 5.79031 6.60651 5.73728 6.60651L5.79031 6.71818L5.68425 6.82986C5.73728 6.77402 5.73728 6.77402 5.68425 6.82986ZM5.52515 6.8857C5.57818 6.8857 5.57818 6.82986 5.63121 6.82986H5.68425H5.63121C5.57818 6.82986 5.57818 6.8857 5.52515 6.8857ZM5.57818 6.99737C5.57818 6.99737 5.63121 6.99737 5.57818 6.99737C5.63121 6.99737 5.57818 6.94154 5.57818 6.99737C5.57818 6.94154 5.57818 6.94154 5.57818 6.99737C5.57818 6.94154 5.57818 6.94154 5.57818 6.99737ZM5.57818 7.16489C5.52515 7.10905 5.52515 7.10905 5.52515 7.05321L5.47212 6.99737C5.47212 6.99737 5.47212 6.99737 5.41909 6.99737C5.41909 6.99737 5.47212 6.99737 5.41909 6.94153C5.47212 6.99737 5.47212 6.94153 5.52515 6.94153V6.8857H5.47212C5.47212 6.8857 5.47212 6.8857 5.41909 6.8857H5.36606C5.36606 6.8857 5.31303 6.8857 5.36606 6.8857C5.36606 6.8857 5.41909 6.8857 5.36606 6.94153L5.57818 7.16489ZM5.36606 7.05321C5.31303 7.10905 5.31303 7.16489 5.26 7.16489C5.26 7.16489 5.31303 7.16489 5.31303 7.10905C5.36606 7.10905 5.36606 7.10905 5.36606 7.05321C5.36606 7.10905 5.36606 7.10905 5.36606 7.10905C5.36606 7.10905 5.36606 7.10905 5.36606 7.05321C5.36606 7.10905 5.36606 7.10905 5.36606 7.05321C5.36606 7.10905 5.41909 7.10905 5.36606 7.05321C5.41909 7.10905 5.36606 7.10905 5.36606 7.05321C5.36606 7.10905 5.41909 7.10905 5.36606 7.05321C5.41909 7.16489 5.47212 7.16489 5.47212 7.22072C5.47212 7.22072 5.52515 7.22072 5.47212 7.22072C5.41909 7.16489 5.41909 7.10905 5.36606 7.10905C5.41909 7.05321 5.41909 7.10905 5.36606 7.05321C5.41909 7.10905 5.36606 7.05321 5.36606 7.05321ZM5.26 7.10905C5.31303 7.10905 5.31303 7.10905 5.31303 7.10905C5.31303 7.10905 5.31303 7.10905 5.31303 7.05321C5.31303 7.05321 5.26 7.05321 5.26 7.10905C5.31303 7.05321 5.26 7.05321 5.26 7.10905C5.26 7.10905 5.26 7.05321 5.26 7.10905C5.26 7.05321 5.31303 7.05321 5.26 7.10905C5.26 7.05321 5.26 7.05321 5.26 7.10905C5.26 7.05321 5.26 7.10905 5.26 7.10905ZM5.20697 7.16489L5.26 7.10905C5.26 7.10905 5.26 7.10905 5.26 7.05321C5.20697 7.16489 5.20697 7.16489 5.20697 7.16489C5.20697 7.10905 5.20697 7.10905 5.20697 7.10905C5.20697 7.10905 5.20697 7.10905 5.20697 7.16489C5.20697 7.16489 5.20697 7.10905 5.20697 7.16489C5.20697 7.16489 5.15394 7.16489 5.20697 7.16489ZM5.10091 7.38824C5.15394 7.3324 5.15394 7.3324 5.10091 7.38824C5.15394 7.3324 5.10091 7.38824 5.10091 7.38824C5.15394 7.38824 5.10091 7.38824 5.10091 7.38824C5.10091 7.38824 5.15394 7.38824 5.10091 7.38824C5.15394 7.44407 5.15394 7.44407 5.15394 7.44407C5.15394 7.38824 5.26 7.49991 5.15394 7.38824C5.15394 7.38824 5.20697 7.44407 5.26 7.44407L5.31303 7.49991V7.44407C5.26 7.44407 5.26 7.3324 5.20697 7.3324C5.20697 7.27656 5.20697 7.27656 5.20697 7.27656C5.20697 7.27656 5.26 7.27656 5.26 7.22072C5.26 7.22072 5.26 7.22072 5.26 7.16489C5.20697 7.16489 5.20697 7.16489 5.20697 7.22072C5.15394 7.3324 5.15394 7.3324 5.10091 7.38824C5.10091 7.3324 5.10091 7.3324 5.10091 7.38824ZM5.63121 8.2258C5.68425 8.28164 5.68425 8.28164 5.73728 8.33747L5.63121 8.2258C5.63121 8.16996 5.63121 8.2258 5.63121 8.2258C5.73728 8.28164 5.73728 8.28164 5.79031 8.28164C5.79031 8.28164 5.79031 8.28164 5.79031 8.2258C5.79031 8.28164 5.73728 8.2258 5.68425 8.11412C5.63122 8.05829 5.63121 8.05829 5.63121 8.05829C5.52515 8.05829 5.57818 8.16996 5.63121 8.2258ZM4.99485 7.49991C4.99485 7.44407 4.99485 7.44407 4.99485 7.49991C4.99485 7.44407 4.99485 7.44407 4.99485 7.49991C4.99485 7.44407 4.99485 7.44407 4.99485 7.49991C4.99485 7.44407 4.99485 7.44407 4.99485 7.49991C4.99485 7.44407 4.99485 7.44407 4.99485 7.49991ZM4.78273 7.61159C4.78273 7.61159 4.83576 7.66742 4.88879 7.72326L4.78273 7.61159C4.78273 7.61159 4.83576 7.61159 4.78273 7.61159C4.83576 7.61159 4.83576 7.61159 4.78273 7.61159C4.83576 7.61159 4.88879 7.61159 4.88879 7.61159C4.88879 7.61159 4.83576 7.49991 4.83576 7.55575C4.83576 7.55575 4.83576 7.55575 4.78273 7.61159C4.83576 7.61159 4.78273 7.61159 4.78273 7.61159C4.78273 7.55575 4.78273 7.61159 4.78273 7.61159C4.83576 7.61159 4.83576 7.61159 4.78273 7.61159C4.83576 7.61159 4.78273 7.61159 4.78273 7.61159ZM4.7297 7.66742C4.7297 7.66742 4.7297 7.61159 4.7297 7.66742C4.78273 7.66742 4.7297 7.66742 4.7297 7.66742C4.7297 7.61159 4.7297 7.61159 4.7297 7.66742ZM5.04788 8.39331C5.10091 8.39331 5.10091 8.39331 5.10091 8.33747C5.10091 8.33747 5.10091 8.28164 5.04788 8.28164L4.99485 8.2258C4.99485 8.2258 4.99485 8.28164 5.04788 8.39331ZM4.57061 7.7791H4.62364C4.62364 7.7791 4.62364 7.7791 4.62364 7.72326L4.57061 7.7791ZM4.46455 7.83494C4.51758 7.83494 4.51758 7.83494 4.46455 7.83494C4.51758 7.7791 4.51758 7.7791 4.51758 7.7791C4.51758 7.7791 4.51758 7.7791 4.46455 7.83494C4.51758 7.83494 4.46455 7.83494 4.46455 7.83494ZM4.46455 7.89077C4.41152 7.89077 4.41152 7.89077 4.46455 7.89077V7.89077ZM4.25243 8.00245C4.25243 8.00245 4.25243 8.05829 4.25243 8.00245C4.30546 8.05829 4.30546 8.00245 4.30546 8.00245C4.30546 8.00245 4.30546 8.00245 4.25243 8.00245C4.30546 8.00245 4.25243 8.00245 4.25243 8.00245ZM4.62364 8.72834C4.62364 8.72834 4.62364 8.6725 4.62364 8.72834C4.62364 8.72834 4.57061 8.72834 4.62364 8.72834C4.67667 8.89585 4.57061 8.72834 4.67667 8.78417C4.67667 8.78417 4.67667 8.78417 4.62364 8.72834ZM4.30546 8.2258C4.30546 8.2258 4.35849 8.33747 4.35849 8.28164L4.30546 8.2258C4.30546 8.16996 4.25243 8.05829 4.25243 8.05829C4.25243 8.05829 4.25243 8.05829 4.1994 8.05829L4.30546 8.2258C4.30546 8.16996 4.25243 8.16996 4.30546 8.2258C4.1994 8.05829 4.25243 8.16996 4.30546 8.2258C4.30546 8.2258 4.25243 8.2258 4.30546 8.2258ZM4.25243 8.33747C4.35849 8.44915 4.25243 8.28164 4.25243 8.28164C4.25243 8.28164 4.1994 8.2258 4.1994 8.16996C4.1994 8.16996 4.1994 8.2258 4.25243 8.33747C4.30546 8.33747 4.25243 8.33747 4.25243 8.33747ZM4.04031 8.16996C4.04031 8.16996 4.04031 8.11412 4.04031 8.16996C4.04031 8.11412 4.04031 8.16996 4.04031 8.16996ZM3.98728 8.2258H4.04031C4.04031 8.16996 3.98728 8.16996 3.98728 8.2258C3.98728 8.16996 3.98728 8.2258 3.98728 8.2258ZM3.82818 8.33747C3.88121 8.33747 3.88121 8.33747 3.82818 8.33747C3.88121 8.33747 3.88121 8.33747 3.82818 8.33747C3.88121 8.33747 3.88121 8.33747 3.88121 8.39331L3.93425 8.44915C3.93425 8.44915 3.82818 8.28164 3.88121 8.28164C3.88121 8.33747 3.88121 8.33747 3.82818 8.33747ZM4.1994 8.95169C4.1994 9.00752 4.25243 9.00752 4.25243 9.06336C4.25243 9.06336 4.25243 9.06336 4.25243 9.00752C4.30546 9.1192 4.30546 9.1192 4.35849 9.1192H4.41152C4.30546 9.00752 4.25243 9.00752 4.1994 8.95169ZM3.77515 8.44915C3.77515 8.39331 3.77515 8.39331 3.77515 8.44915C3.82818 8.44915 3.77515 8.39331 3.77515 8.44915ZM4.1994 9.06336V9.1192C4.1994 9.1192 4.25243 9.1192 4.25243 9.17504C4.25243 9.06336 4.25243 9.17504 4.1994 9.06336ZM3.66909 8.39331C3.72212 8.39331 3.72212 8.44915 3.66909 8.39331V8.39331ZM4.1994 9.23087C4.25243 9.23087 4.14637 9.17504 4.14637 9.1192C4.09334 9.06336 4.04031 9.06336 4.04031 9.06336C4.09334 9.1192 4.09334 9.1192 4.04031 9.06336C4.09334 9.17504 4.14637 9.17504 4.1994 9.23087ZM3.93425 9.39839C3.93425 9.45422 3.93425 9.45422 3.93425 9.39839C3.93425 9.39839 3.93425 9.34255 3.93425 9.28671C3.88121 9.23087 3.93425 9.28671 3.93425 9.28671C3.93425 9.28671 3.88121 9.28671 3.88121 9.23087C3.77515 9.1192 3.88121 9.28671 3.88121 9.28671C3.82818 9.34255 3.88121 9.39839 3.93425 9.39839ZM3.45697 9.06336C3.51 9.06336 3.51 9.06336 3.45697 9.06336C3.51 9.06336 3.51 9.00752 3.45697 9.06336C3.51 8.95169 3.45697 8.95169 3.45697 8.95169C3.45697 8.95169 3.45697 9.00752 3.45697 9.06336ZM3.29788 8.78417C3.29788 8.78417 3.35091 8.84001 3.40394 8.84001V8.78417C3.29788 8.72834 3.29788 8.78417 3.29788 8.78417ZM3.08576 8.89585C3.08576 8.89585 3.08576 8.95169 3.08576 8.89585C3.13879 8.89585 3.08576 8.89585 3.08576 8.89585C3.08576 8.95169 3.08576 8.95169 3.08576 8.89585ZM3.08576 9.00752C3.08576 9.00752 3.08576 8.95169 3.13879 8.95169L3.08576 9.00752C3.13879 8.95169 3.13879 8.95169 3.08576 9.00752C3.13879 8.95169 3.13879 8.95169 3.13879 8.95169C3.08576 8.95169 3.08576 8.95169 3.08576 9.00752C3.08576 8.95169 3.08576 9.00752 3.08576 9.00752ZM3.35091 9.45422C3.40394 9.45422 3.40394 9.45422 3.35091 9.45422C3.40394 9.45422 3.40394 9.39839 3.35091 9.45422L3.29788 9.34255C3.35091 9.39839 3.40394 9.39839 3.35091 9.45422ZM3.29788 9.45422C3.29788 9.45422 3.29788 9.39839 3.29788 9.45422L3.19182 9.34255C3.19182 9.34255 3.13879 9.28671 3.19182 9.34255C3.19182 9.34255 3.24485 9.39839 3.29788 9.45422ZM3.03273 9.23087L2.9797 9.1192C2.92667 9.1192 2.92667 9.17504 3.03273 9.23087C2.9797 9.23087 2.9797 9.23087 3.03273 9.23087ZM2.71455 9.39839C2.76758 9.39839 2.76758 9.45422 2.71455 9.39839C2.76758 9.39839 2.76758 9.39839 2.71455 9.39839C2.71455 9.34255 2.71455 9.34255 2.71455 9.39839ZM2.76758 9.45422C2.71455 9.34255 2.71455 9.39839 2.66152 9.39839L2.76758 9.45422C2.82061 9.51006 2.76758 9.51006 2.76758 9.45422ZM2.66152 9.28671C2.66152 9.28671 2.60849 9.28671 2.66152 9.28671C2.60849 9.28671 2.60849 9.34255 2.66152 9.28671C2.60849 9.34255 2.60849 9.28671 2.66152 9.28671ZM2.55546 9.34255H2.60849H2.55546ZM2.4494 9.5659L2.50243 9.62174C2.50243 9.62174 2.50243 9.62174 2.50243 9.5659C2.4494 9.5659 2.39637 9.45422 2.4494 9.5659ZM2.29031 9.62174C2.29031 9.5659 2.29031 9.5659 2.29031 9.62174C2.29031 9.5659 2.29031 9.5659 2.29031 9.62174C2.23728 9.5659 2.23728 9.62174 2.29031 9.62174ZM1.65394 10.1801C1.70697 10.1801 1.70697 10.1801 1.65394 10.1801C1.70697 10.1801 1.65394 10.1801 1.65394 10.1801Z" fill="#231F20"/>
<path d="M5.1013 7.22062C5.04827 7.16478 5.04827 7.22062 5.1013 7.22062V7.22062Z" fill="#231F20"/>
<path d="M6.21484 6.21573C6.26787 6.21573 6.26787 6.1599 6.21484 6.21573V6.21573Z" fill="#231F20"/>
<path d="M5.04798 7.27628C5.04798 7.22044 5.04798 7.27628 5.04798 7.27628C5.04798 7.22044 5.04798 7.27628 5.04798 7.27628C4.99495 7.27628 5.04798 7.27628 5.04798 7.27628Z" fill="#231F20"/>
<path d="M6.90332 7.16504V7.22088C7.00938 7.27671 7.06241 7.27671 7.11544 7.27671L7.06241 7.22088C6.95635 7.22088 6.90332 7.16504 6.90332 7.16504Z" fill="#231F20"/>
<path d="M4.99512 7.33241C4.99512 7.27657 5.04815 7.27657 4.99512 7.33241C4.99512 7.27657 4.99512 7.27657 4.99512 7.33241Z" fill="#231F20"/>
<path d="M6.32061 7.94664C6.4797 8.11415 6.26758 7.83496 6.37364 7.94664V7.8908C6.32061 7.8908 6.26758 7.83496 6.26758 7.83496C6.26758 7.83496 6.26758 7.8908 6.32061 7.94664Z" fill="#231F20"/>
<path d="M4.78223 7.44385C4.78223 7.44385 4.78223 7.49968 4.78223 7.44385C4.83526 7.44385 4.78223 7.44385 4.78223 7.44385Z" fill="#231F20"/>
<path d="M4.19993 7.94629C4.19993 7.94629 4.19993 8.00213 4.19993 7.94629C4.1469 7.94629 4.1469 8.00213 4.19993 7.94629Z" fill="#231F20"/>
<path d="M6.21476 7.9465C6.26779 8.00233 6.26779 8.00233 6.26779 8.00233C6.26779 7.9465 6.21476 7.89066 6.21476 7.9465C6.21476 7.89066 6.21476 7.89066 6.21476 7.9465C6.21476 7.89066 6.21475 7.89066 6.16172 7.89066L6.10869 7.83482C6.10869 7.77898 6.05566 7.77898 6.05566 7.72314L6.10869 7.77898C6.10869 7.83482 6.21476 7.89066 6.21476 7.9465Z" fill="#231F20"/>
<path d="M6.95703 7.33203L7.01006 7.44371H7.06309C7.01006 7.38787 7.06309 7.44371 6.95703 7.33203Z" fill="#231F20"/>
<path d="M3.3513 8.6167C3.29827 8.6167 3.29827 8.6167 3.3513 8.6167C3.29827 8.67254 3.29827 8.67254 3.3513 8.6167C3.29827 8.6167 3.29827 8.6167 3.3513 8.6167Z" fill="#231F20"/>
<path d="M5.79017 6.77393C5.73714 6.77393 5.79017 6.82976 5.79017 6.77393C5.8432 6.82976 5.79017 6.77393 5.79017 6.77393Z" fill="#231F20"/>
<path d="M1.07031 10.9615C1.07031 11.0174 1.07031 10.9615 1.07031 10.9615C1.12334 10.9057 1.12334 10.9057 1.12334 10.9057C1.07031 10.9057 1.17637 10.8498 1.12334 10.8498C1.12334 10.8498 1.12334 10.794 1.17637 10.794L1.2294 10.7382C1.2294 10.7382 1.2294 10.6823 1.28243 10.6823L1.33546 10.6265C1.38849 10.5707 1.38849 10.5707 1.38849 10.5148V10.5707C1.38849 10.5707 1.38849 10.5707 1.38849 10.5148C1.38849 10.5148 1.38849 10.5148 1.38849 10.459L1.33546 10.5148V10.5707L1.38849 10.5148L1.70668 10.6265C1.65365 10.5707 1.65365 10.6265 1.65365 10.6265H1.60062C1.54759 10.6823 1.54759 10.6823 1.49455 10.6823H1.44152C1.38849 10.7382 1.38849 10.7382 1.33546 10.7382C1.33546 10.7382 1.28243 10.7382 1.28243 10.794H1.2294C1.2294 10.794 1.2294 10.794 1.17637 10.794L1.07031 10.9615ZM1.44152 10.5148C1.44152 10.459 1.44152 10.459 1.44152 10.5148C1.44152 10.459 1.44152 10.459 1.44152 10.5148ZM1.38849 10.5148C1.38849 10.459 1.38849 10.459 1.38849 10.5148C1.38849 10.459 1.38849 10.459 1.38849 10.5148C1.38849 10.459 1.38849 10.5148 1.38849 10.5148ZM1.33546 10.5707C1.38849 10.5707 1.38849 10.5707 1.33546 10.5707L1.38849 10.5148C1.38849 10.5148 1.38849 10.5148 1.33546 10.5707C1.38849 10.5148 1.38849 10.5148 1.33546 10.5707C1.38849 10.5148 1.38849 10.5148 1.38849 10.5148L1.33546 10.5707L1.38849 10.5148L1.33546 10.5707ZM1.33546 10.6265C1.33546 10.6265 1.33546 10.5707 1.33546 10.6265C1.38849 10.5707 1.38849 10.5707 1.33546 10.6265C1.33546 10.5707 1.33546 10.5707 1.33546 10.6265Z" fill="#231F20"/>
</g>
<defs>
<clipPath id="clip0">
<rect width="7" height="11" fill="white" transform="translate(0.858398 0.0175781)"/>
</clipPath>
</defs>
</svg>
