<svg width="141" height="130" viewBox="0 0 141 130" fill="none" xmlns="http://www.w3.org/2000/svg">
<g clip-path="url(#clip0)">
<path fill-rule="evenodd" clip-rule="evenodd" d="M56.2132 37.5055C53.8025 36.3808 51.3469 39.295 48.8748 40.2774C46.9512 41.0418 44.8872 41.3849 43.2533 42.6557C41.5994 43.9419 39.8505 45.4997 39.5034 47.5659C39.1611 49.6033 41.5512 51.2719 41.459 53.3359C41.3299 56.2257 37.9106 58.7433 38.8826 61.4679C39.7584 63.9229 43.0857 64.6685 45.6562 65.1008C48.028 65.4997 50.2699 64.2701 52.6244 63.7791C54.8573 63.3134 57.2741 63.5307 59.1816 62.2801C61.1641 60.9803 62.5875 58.9351 63.406 56.7103C64.2194 54.4996 64.5975 51.9844 63.7827 49.7743C63.0032 47.66 60.2911 46.9696 59.1079 45.0518C57.6687 42.7192 58.697 38.6644 56.2132 37.5055Z" fill="#43FFE4"/>
<path d="M136.471 89.3527C139.158 89.3527 140.719 87.879 140.719 85.4517C140.719 82.8511 139.245 81.204 136.298 81.2907C135.171 81.3774 133.264 82.7644 133.264 79.9904C133.264 78.17 131.27 75.9161 135.084 75.1359C137.598 74.7025 138.292 72.1886 137.165 69.9347C136.124 67.7675 134.217 66.7273 131.79 67.9409C130.49 68.5477 129.536 69.7613 128.322 67.7675C127.456 66.2938 127.282 65.5136 128.756 64.3C130.836 62.4796 130.75 60.139 128.756 58.3186C126.762 56.4982 124.508 56.8449 123.121 58.8387C121.561 61.0926 120.607 59.5322 119.307 58.752C117.92 57.9718 116.966 57.365 118.353 55.5446C120 53.204 119.22 50.8635 116.793 49.7366C114.106 48.4362 111.939 49.6499 111.158 52.5105C110.725 54.0709 110.292 54.7644 108.558 54.4177C107.084 54.1576 106.217 53.6375 106.391 51.9037C106.651 49.1297 105.35 47.396 102.49 47.396C99.629 47.396 98.3287 49.2164 98.5887 51.9904C98.8488 54.1576 97.4618 54.2443 95.9881 54.5044C94.6011 54.7644 93.7342 54.7644 93.3008 52.8573C92.694 50.17 90.6135 49.1297 88.0129 50.17C85.4989 51.1235 84.8921 53.204 85.8457 55.4579C86.4525 56.8449 87.0593 57.7118 85.3256 58.8387C83.5051 60.0523 82.7249 59.4455 81.5113 58.0585C79.7776 56.2381 77.6104 56.2381 75.79 58.0585C73.9695 59.9657 74.0562 62.2195 76.05 63.7799C77.8704 65.1669 77.3503 66.0338 76.3968 67.5074C75.3565 69.2412 74.4896 68.9811 73.016 68.0276C71.1088 66.8139 69.2884 67.5074 68.0748 69.2412C66.8612 70.9749 67.3813 74.3557 68.2482 74.0957C71.0222 73.4022 71.629 81.9842 75.0965 75.4827C75.4432 74.7892 76.6568 75.7427 77.437 75.7427C79.3441 75.8294 78.9107 78.43 80.7311 78.6901C81.0779 77.9966 81.4246 77.3031 81.6847 76.6963C85.8457 66.9873 93.3875 62.1328 103.79 62.653C113.932 63.1731 122.948 71.0616 124.595 80.944C126.415 91.7799 121.041 102.269 111.505 106.257C110.552 106.603 108.558 108.25 108.298 106.43C107.604 100.189 103.27 94.3805 106.391 87.7923C107.257 85.9718 106.911 84.0647 105.177 82.7644C103.703 81.6375 101.97 81.5508 100.322 82.591C98.6754 83.6313 97.6352 85.7118 98.5887 87.0121C101.709 91.3465 99.5423 95.5075 98.6754 99.7551C97.2017 107.21 97.115 107.21 89.8333 105.476C91.8271 107.384 91.567 109.291 90.3534 111.285C88.7931 113.885 89.92 114.925 92.4339 115.359C94.8612 115.792 95.2079 117.006 94.6011 119.346C94.081 121.6 92.7807 124.028 93.9076 127.235C96.5949 123.854 95.2946 119.52 98.7621 115.966C98.1553 119.953 98.1553 122.987 101.623 123.594C106.737 124.461 105.87 119.607 107.084 116.486C109.685 119.867 108.211 124.201 111.245 127.235C112.199 123.854 110.552 121.167 110.465 118.393C110.465 117.613 109.685 116.572 110.898 116.139C112.719 115.446 112.112 117.093 112.372 117.873C113.412 120.473 115.146 121.6 117.833 120.473C120.521 119.346 121.127 116.919 119.74 114.839C118.353 112.845 119.22 112.325 120.521 111.198C122.168 109.811 122.948 110.244 124.248 111.718C125.895 113.625 128.149 113.625 129.97 111.805C131.79 109.984 131.53 107.99 129.883 105.997C129.189 105.13 126.935 105.216 128.322 102.876C129.623 100.622 130.75 101.576 132.483 102.096C134.651 102.789 136.558 101.836 137.338 99.5817C138.031 97.4146 137.425 95.074 135.171 94.5539C132.31 93.9471 133.004 92.3867 133.177 90.5663C133.524 87.7923 135.257 89.3527 136.471 89.3527ZM137.078 83.3712C138.205 83.5446 138.725 84.4982 138.638 85.6251C138.465 86.8387 137.771 87.3588 136.644 87.3588C135.431 87.1855 134.737 86.4053 134.824 85.2783C134.911 83.978 135.691 83.1112 137.078 83.3712ZM71.3689 73.6622C69.9819 73.5756 69.2017 72.7954 69.2884 71.4951C69.3751 70.2814 70.242 69.6746 71.3689 69.6746C72.6692 69.6746 73.5361 70.4548 73.4494 71.9285C73.3627 73.0554 72.4091 73.4889 71.3689 73.6622ZM89.3999 51.7304C90.5268 51.9037 91.4804 52.3372 91.567 53.5508C91.6537 55.0245 90.7002 55.8047 89.4865 55.8047C88.1862 55.8047 87.3194 55.0245 87.4061 53.5508C87.4927 52.4239 88.3596 51.9037 89.3999 51.7304ZM76.7435 60.8325C76.7435 59.4455 77.5237 58.6653 78.9974 58.8387C80.211 59.0121 80.7311 59.879 80.5578 61.0059C80.4711 62.1328 79.6909 62.7396 78.6506 62.913C77.437 62.7396 76.7435 61.9595 76.7435 60.8325ZM79.4308 74.2691C78.2172 73.8356 76.3968 73.9223 76.1367 72.0152C75.9633 70.8883 80.1243 64.9935 80.9912 65.1669C82.5516 65.427 83.2451 66.8139 84.0252 67.8542C84.1986 68.8944 80.1243 74.5291 79.4308 74.2691ZM85.9324 66.2938C85.3256 66.6406 82.985 64.5601 83.2451 63.5198C84.0252 60.9192 86.7992 59.879 89.1398 59.0121C91.3937 58.2319 90.5268 61.0059 91.9138 61.526C90.6135 64.3 88.0129 65.0802 85.9324 66.2938ZM96.2482 61.266C93.3875 62.1328 92.6073 60.139 92.7807 58.8387C93.3008 55.4579 96.5082 56.7582 98.5887 56.1514C100.149 55.718 101.449 55.8913 101.449 58.0585C101.449 62.3929 97.4618 60.0523 96.2482 61.266ZM100.409 51.6437C100.236 50.2567 100.929 49.5632 102.143 49.3031C103.617 49.3031 104.483 49.9099 104.483 51.2969C104.483 52.5972 103.617 53.4641 102.403 53.4641C101.363 53.4641 100.583 52.6839 100.409 51.6437ZM108.818 61.3527C106.911 60.5725 103.443 62.1328 103.617 57.9718C103.703 55.718 105.177 55.978 106.911 56.1514C108.298 57.1917 111.679 55.2845 111.765 58.8387C111.852 60.2257 111.072 62.3062 108.818 61.3527ZM96.4215 110.678C95.9881 111.805 96.7683 113.712 94.6878 113.972C93.7342 113.452 91.9138 113.885 92.3472 112.151C92.6073 110.851 92.6073 108.857 94.8612 108.944C95.728 108.944 96.9417 109.291 96.4215 110.678ZM99.4556 105.563C100.409 101.229 101.363 96.8944 102.23 92.4734C102.49 92.4734 102.836 92.4734 103.096 92.3867C104.05 96.9811 105.264 101.576 105.87 106.17C106.304 109.117 103.53 107.817 102.143 108.077C100.409 108.424 99.0222 107.904 99.4556 105.563ZM99.629 114.925C98.3287 114.752 97.4618 114.145 97.8952 112.672C98.242 111.545 98.0686 109.984 99.889 109.898C101.796 109.811 101.623 111.285 101.709 112.585C101.709 113.972 101.449 115.185 99.629 114.925ZM102.663 121.427C101.363 121.514 100.409 120.733 100.496 119.346C100.583 118.133 101.449 117.613 102.576 117.613C103.703 117.699 104.483 118.306 104.57 119.52C104.483 120.733 103.79 121.34 102.663 121.427ZM105.524 114.839C103.53 115.099 103.617 113.712 103.617 112.411C103.617 111.285 103.443 109.984 105.177 110.071C106.997 109.984 107.084 111.285 107.257 112.585C107.431 113.885 106.911 114.665 105.524 114.839ZM110.725 113.798C108.905 113.712 109.165 112.238 108.905 111.024C108.558 109.551 109.425 108.771 110.725 108.771C112.719 108.771 112.719 110.678 112.979 111.891C113.499 113.538 111.765 113.365 110.725 113.798ZM124.248 61.1793C124.422 59.879 125.288 59.0988 126.675 59.3588C127.802 59.5322 128.322 60.3991 128.236 61.8728C128.149 62.7396 127.542 63.3465 126.329 63.3465C124.942 63.2598 124.075 62.4796 124.248 61.1793ZM115.319 51.2969C116.446 51.4703 116.966 52.3372 116.966 53.4641C116.793 54.591 116.186 55.2845 114.973 55.2845C113.759 55.2845 113.152 54.5044 113.152 53.3774C113.152 51.9904 113.932 51.1236 115.319 51.2969ZM119.134 66.7273C116.966 65.427 114.019 64.5601 113.066 61.9595C112.719 61.1793 113.326 59.0988 114.799 58.8387C116.706 58.752 122.341 62.9997 121.994 64.04C121.474 65.427 120 67.2474 119.134 66.7273ZM121.214 68.8078C120.781 67.7675 122.774 65.687 123.901 66.0338C126.502 66.814 127.196 69.6746 128.583 71.8418C127.976 73.4889 126.155 74.1824 125.202 73.9223C122.861 73.2288 121.908 70.7149 121.214 68.8078ZM116.446 118.74C115.146 118.74 114.192 118.133 114.279 116.746C114.279 115.446 115.233 114.752 116.446 114.579C117.66 114.925 118.527 115.619 118.44 116.919C118.353 118.046 117.573 118.653 116.446 118.74ZM115.839 111.545C114.366 111.111 114.279 109.637 113.932 108.424C113.759 107.817 119.307 103.049 119.827 103.396C120.954 104.176 121.908 105.216 122.688 105.997C122.514 107.47 116.88 111.805 115.839 111.545ZM129.103 108.771C129.103 109.984 128.583 110.764 127.369 110.851C126.242 110.938 125.375 110.418 125.288 109.204C125.202 107.904 125.809 106.863 127.196 106.863C128.409 106.863 129.016 107.644 129.103 108.771ZM128.669 98.2814C127.976 100.709 126.589 102.963 124.422 104.523C123.121 103.656 121.214 102.442 121.648 101.489C122.601 99.4951 123.035 96.5477 125.895 96.2876C126.762 96.2876 129.016 96.7211 128.669 98.2814ZM131.357 89.526C130.75 90.9997 132.05 94.2938 128.756 95.1607C127.889 95.4208 125.375 94.814 126.069 92.8201C126.849 90.653 125.375 87.2722 129.016 86.5787C130.576 86.1452 131.963 86.5787 131.357 89.526ZM129.103 84.4115C125.028 83.6313 126.762 79.7304 125.809 77.3898C124.942 75.2226 128.149 74.5291 128.843 74.8759C131.703 76.2629 130.75 79.4703 131.443 81.204C131.877 83.8913 130.923 84.7582 129.103 84.4115ZM131.53 71.4084C131.617 70.1948 132.483 69.5013 133.524 69.5879C134.824 69.6746 135.518 70.5415 135.604 71.9285C135.344 73.0554 134.651 73.7489 133.524 73.6622C132.31 73.5756 131.443 72.8821 131.53 71.4084ZM133.524 96.1143C134.997 96.3743 135.778 97.1545 135.604 98.4548C135.431 99.6684 134.564 100.535 133.264 100.362C132.223 100.189 131.53 99.4084 131.53 98.2814C131.53 96.8078 132.397 96.2876 133.524 96.1143Z" fill="#020A13"/>
<path d="M89.5728 122.294C85.4985 122.208 86.5387 119.347 86.5387 117.18C86.452 112.152 86.452 107.037 86.5387 102.009C86.5387 99.7555 85.5852 96.8081 89.6595 96.8948C90.4397 96.8948 90.5264 95.9413 90.6997 95.2478C92.0867 88.8329 89.9195 84.6719 83.9381 82.158C62.6997 82.158 41.548 82.0713 20.3096 82.0713C11.4675 82.0713 9.99384 83.1982 7.47991 91.6069C5.83285 97.1549 5.83285 97.1549 11.4675 97.1549C34.2663 97.1549 57.0651 97.2416 79.8638 97.0682C83.418 97.0682 85.0651 97.5883 84.805 101.663C84.4582 107.124 84.6316 112.585 84.7183 118.133C84.7183 120.56 84.6316 122.208 81.4242 122.208C78.3034 122.208 77.87 120.821 78.0434 118.22C78.2168 115.793 78.1301 113.279 78.1301 110.851C77.5233 109.725 76.3963 109.985 75.4428 109.985C53.7709 109.985 32.1858 109.985 10.514 109.985C8.78022 109.985 7.30654 110.331 6.26629 111.632C4.1858 114.406 4.96598 118.567 1.32511 120.734C0.544929 121.167 0.371554 124.808 3.66567 124.981C4.09911 124.981 4.44586 125.675 4.87929 126.022C7.91335 128.536 10.6007 127.582 11.1208 123.768C11.6409 119.694 13.8081 117.44 17.7957 117.093C21.3499 116.746 24.4706 119.52 24.8174 123.768C25.0774 126.802 26.4644 127.235 28.9784 127.235C36.9536 127.149 44.8421 127.062 52.8174 127.235C55.8514 127.322 57.1517 126.542 57.5852 123.334C58.1053 119.52 60.6192 116.92 64.6068 117.093C68.5078 117.266 70.935 119.694 71.1084 123.855C71.1951 125.848 71.8886 127.235 74.1424 127.235C78.9103 127.235 83.6781 127.235 88.4459 127.235C89.8329 127.235 90.613 126.542 90.6997 125.155C90.613 124.115 90.9598 122.294 89.5728 122.294ZM84.6316 95.1611C71.1951 95.2478 57.8452 95.2478 44.4087 95.2478C32.6192 95.2478 20.7431 95.2478 8.43347 95.2478C9.12697 92.8205 9.73378 91.0868 10.1672 89.2663C11.1208 85.7122 13.6347 84.0651 17.1889 84.0651C38.6873 84.0651 60.1858 83.9784 81.6842 84.0651C87.2322 84.0651 89.8329 88.2261 88.5325 93.6874C87.8391 96.1146 86.0186 95.1611 84.6316 95.1611ZM87.6657 125.242C83.5047 125.242 79.4304 125.242 75.2694 125.242C73.5356 125.242 73.2756 124.201 72.9288 122.814C71.5418 117.613 68.7678 115.186 64.4335 115.099C60.0991 115.012 56.805 117.526 55.418 122.814C54.8979 124.895 54.031 125.242 52.2106 125.242C44.6688 125.155 37.2137 125.155 29.6719 125.242C27.6781 125.242 26.7245 124.895 26.3777 122.554C25.6842 117.786 22.1301 115.099 17.709 115.099C13.4613 115.099 10.1672 117.786 9.12697 122.121C8.86691 123.161 9.12697 125.155 7.82666 124.895C6.1796 124.548 4.1858 123.421 3.31892 122.034C2.45205 120.56 4.53254 120.734 5.4861 120.3C7.21985 119.434 6.52635 117.786 6.52635 116.486C6.43967 113.192 7.82666 111.805 11.1208 111.805C31.7524 111.805 52.3839 111.892 73.0155 111.805C75.2694 111.805 75.9629 112.585 75.9629 114.752C76.0496 117.7 74.4892 121.601 76.8298 123.334C78.7369 124.721 82.3777 123.768 85.2384 123.855C86.0186 123.855 86.7988 124.028 87.579 124.028C87.7524 124.461 87.7524 124.895 87.6657 125.242Z" fill="#020A13"/>
<path d="M33.9201 40.8949C37.6477 42.7153 36.2607 45.7493 36.3474 48.35C36.5207 53.1178 36.3474 57.8856 36.434 62.6534C36.434 63.6069 36.434 65.3407 36.8675 65.5141C41.722 67.5079 39.0347 71.5822 39.7282 74.7029C40.0749 76.1766 38.6879 78.3438 41.3752 78.9506C42.5888 75.1363 40.1616 70.1952 42.4155 67.6812C44.9294 64.8205 49.9573 67.1611 53.8582 66.641C57.3257 66.1209 57.9325 67.6812 57.8458 70.7153C57.7591 73.3159 56.8922 76.1766 58.8861 79.2106C60.0997 75.5698 59.3195 72.449 59.5796 69.3283C59.6662 68.288 59.0594 66.7277 60.7065 66.4676C63.6539 66.1209 62.6136 63.7803 63.047 62.2199C63.1337 56.4119 63.1337 50.4305 63.047 44.5357C63.047 43.2354 62.8737 41.9351 64.7808 41.5884C66.8613 41.2416 66.2545 39.4212 66.2545 38.1209C66.2545 36.6472 65.3009 36.1271 64.0006 36.2137C62.2669 36.3004 61.5734 35.2602 61.8334 33.7865C62.5269 30.0589 60.7065 27.9784 57.7591 26.158C54.8984 24.4243 52.9913 22.2571 55.5919 18.8763C56.3721 17.9227 55.6786 17.2292 55.1585 16.6224C51.3443 12.3747 50.2173 7.34687 50.8241 1.88557C50.9108 1.19207 50.7374 0.411883 49.7839 0.325195C49.0037 0.49857 48.917 1.10538 49.0037 1.6255C49.5238 7.17349 48.3102 12.2014 44.5827 16.449C43.8892 17.2292 43.6291 18.0094 44.2359 19.223C45.7963 22.3438 44.8427 24.771 41.8087 26.4181C38.948 27.9784 37.1275 30.0589 37.821 33.6998C38.0811 35.2602 37.7344 36.3871 35.6539 36.4738C31.9263 36.5605 33.1399 40.5481 33.9201 40.8949ZM50.7374 64.127C50.4774 64.127 50.1306 64.127 49.1771 64.127C46.143 63.6069 41.2885 65.8608 39.1214 63.2602C37.3009 61.0063 38.5145 56.4119 38.4279 52.771C38.4279 42.1085 38.4279 42.0218 49.2638 42.1085C52.9913 42.1085 57.7591 40.5481 60.1864 42.802C62.7003 45.0558 60.9665 49.9103 61.0532 53.5512C61.3133 64.1271 61.2266 64.127 50.7374 64.127ZM49.9573 12.9815C51.3443 13.0682 51.9511 15.062 52.4712 16.5357C51.691 17.576 50.6508 17.0558 49.6972 17.1425C48.8303 17.2292 48.0501 17.0558 46.5765 17.0558C47.8768 15.2354 48.1368 12.8949 49.9573 12.9815ZM52.7313 21.5636C52.6446 23.9041 50.9108 23.2973 49.6105 23.384C48.0501 23.4707 46.6631 23.2973 46.8365 21.1301C47.0099 18.963 48.657 19.3097 50.044 19.223C51.691 19.1363 52.8179 19.5698 52.7313 21.5636ZM56.1121 28.4986C51.9511 28.4986 47.7901 28.4986 43.369 28.4986C47.27 23.9041 52.9913 23.9908 56.1121 28.4986ZM42.3288 30.8391C47.27 30.9258 52.1244 30.9258 57.0656 30.8391C58.7994 30.8391 59.7529 31.2726 59.7529 33.2664C59.7529 35.1735 59.3195 36.3004 57.1523 36.2137C54.5517 36.1271 51.9511 36.2137 49.3505 36.2137C47.0099 36.2137 44.756 36.1271 42.4155 36.2137C40.6817 36.3004 39.7282 35.7803 39.7282 33.7865C39.6415 31.7927 40.1616 30.7524 42.3288 30.8391ZM63.7405 38.4676C63.7405 38.7277 63.7405 39.0744 63.7405 39.3345C54.3783 39.3345 45.0161 39.3345 35.6539 39.3345C35.6539 39.0744 35.6539 38.7277 35.6539 38.4676C45.0161 38.4676 54.3783 38.4676 63.7405 38.4676Z" fill="#020A13"/>
<path d="M21.3505 102.963C21.6972 97.7613 17.9697 99.1483 15.369 98.7148C8.95418 99.7551 8.26068 100.882 8.34736 108.25C10.7746 108.337 13.2019 108.511 15.6291 108.511C21.3505 108.511 21.0037 108.511 21.3505 102.963ZM14.5022 106.603C13.2885 105.737 10.4279 108.077 10.4279 104.87C10.3412 101.749 12.7684 101.055 15.4557 101.142C17.3628 101.229 19.0966 100.882 19.0966 103.829C19.0966 107.557 16.496 106.17 14.5022 106.603Z" fill="#020A13"/>
<path d="M41.8954 108.597C45.2762 108.424 48.7437 109.464 48.3969 103.656C48.1369 99.4085 46.7499 98.2816 43.5424 98.8884C36.6941 98.8884 37.0409 98.8884 36.6075 103.83C36.174 108.251 38.2545 108.771 41.8954 108.597ZM38.6879 103.743C38.6879 100.795 40.5084 101.142 42.4155 101.056C44.4093 101.056 46.0564 100.969 46.0564 103.83C46.0564 106.864 44.1492 106.43 42.1554 106.43C40.335 106.604 38.6013 106.69 38.6879 103.743Z" fill="#020A13"/>
<path d="M68.6819 108.511C75.1834 108.511 74.8367 108.424 75.2701 103.656C75.8769 97.7613 71.976 99.1483 68.6819 98.8015C64.6943 98.3681 63.7407 99.8418 63.5673 103.829C63.394 108.684 65.8212 108.944 68.6819 108.511ZM65.5612 103.916C65.4745 100.622 67.4683 100.969 69.4621 101.055C71.2825 101.055 73.1896 100.622 73.2763 103.656C73.363 106.95 71.2825 106.43 68.8553 106.43C67.555 106.43 65.6478 107.037 65.5612 103.916Z" fill="#020A13"/>
<path d="M55.9386 108.424C59.9262 109.291 61.7467 108.251 61.7467 103.483C61.8333 98.3682 59.0593 98.8883 55.8519 98.8016C52.4711 98.7149 49.8705 98.4549 49.9572 103.483C49.9572 108.424 51.951 109.204 55.9386 108.424ZM52.1244 103.829C52.1244 100.969 53.8581 100.969 55.8519 101.142C57.5857 101.229 59.5795 100.449 59.6662 103.656C59.7528 106.43 58.3658 106.69 56.2854 106.517C54.3782 106.343 52.0377 107.297 52.1244 103.829Z" fill="#020A13"/>
<path d="M28.8925 108.337C32.4467 109.117 34.6138 108.684 34.6138 103.656C34.6138 98.8882 32.5333 98.7149 28.8925 98.8015C25.3383 98.8882 22.7377 98.6282 22.8244 103.829C22.9977 108.597 25.0782 109.031 28.8925 108.337ZM24.9049 103.829C24.9049 100.449 27.1587 101.229 28.9792 101.142C30.973 101.055 32.5333 101.055 32.62 103.916C32.62 107.384 30.3662 106.43 29.6727 106.517C26.6386 106.603 24.9049 106.777 24.9049 103.829Z" fill="#020A13"/>
<path d="M64.0005 118.653C60.7064 118.913 58.6259 120.907 58.7126 124.288C58.7126 127.669 60.6197 129.662 64.0005 129.836C67.2946 130.009 69.8952 127.495 69.8952 124.288C69.8952 121.254 67.1212 118.393 64.0005 118.653ZM64.2606 128.102C62.0934 127.669 60.7064 126.542 60.6197 124.461C60.6197 122.381 61.92 120.907 64.0872 120.82C66.4277 120.734 67.9014 122.207 67.8147 124.548C67.728 126.628 66.2544 127.755 64.2606 128.102Z" fill="#020A13"/>
<path d="M18.1428 118.653C15.1087 118.48 12.248 121.167 12.248 124.288C12.248 127.495 14.762 130.096 18.0561 129.922C21.5236 129.749 23.1706 127.755 23.4307 125.068C23.344 121.254 21.0902 118.826 18.1428 118.653ZM18.1428 127.929C15.8022 128.102 14.4152 126.715 14.4152 124.288C14.4152 121.947 15.8889 121.08 17.8827 120.647C19.8765 120.994 21.3502 121.947 21.4369 124.201C21.4369 126.455 20.2233 127.842 18.1428 127.929Z" fill="#020A13"/>
<path d="M46.4897 71.7555C46.4897 70.8886 46.3164 69.7617 45.3628 69.675C44.0625 69.5883 44.0625 70.8886 44.0625 71.8422C44.0625 73.4026 44.0625 74.9629 44.0625 76.61C44.0625 77.4769 44.0625 78.5171 45.1027 78.6905C46.2297 78.8639 46.3164 77.7369 46.4031 76.8701C46.4897 76.1766 46.4031 75.3964 46.4031 74.7029C46.4031 74.7029 46.4031 74.7029 46.4897 74.7029C46.4897 73.7493 46.4897 72.7091 46.4897 71.7555Z" fill="#020A13"/>
<path d="M54.6384 79.5571C55.5053 75.6562 55.6787 72.7088 54.1183 69.8481C53.5982 72.7955 52.4712 75.7429 54.6384 79.5571Z" fill="#020A13"/>
<path d="M49.9574 78.5171C51.0844 75.5698 51.4311 72.6224 49.784 69.7617C48.7438 72.7958 48.4837 75.6565 49.9574 78.5171Z" fill="#020A13"/>
<path d="M73.1027 33.5261C74.9231 33.4394 78.3039 34.9997 78.3906 32.2258C78.4773 30.3186 74.9231 31.7056 73.016 31.0988C71.0222 32.0524 67.2946 29.6251 67.0346 32.6592C66.8612 34.4796 71.0222 33.6128 73.1027 33.5261Z" fill="#020A13"/>
<path d="M89.8329 37.0802C86.5388 35.7799 75.1828 35.7799 71.8887 37.0802C75.1828 38.3805 86.5388 38.3805 89.8329 37.0802Z" fill="#020A13"/>
<path d="M74.3163 46.8761C77.0036 46.2693 79.9509 47.5696 82.3782 45.4024C77.5237 44.8823 72.7559 44.8823 67.9014 44.8823C67.2079 44.8823 66.4277 45.2291 66.8612 46.0959C67.0345 46.4427 67.728 46.6161 68.2482 46.8761C70.242 46.8761 72.2358 46.8761 74.3163 46.8761Z" fill="#020A13"/>
<path d="M66.6876 50.1703C66.861 51.0371 67.7279 51.0371 68.4214 51.0371C69.9818 51.0371 71.6288 51.1238 73.1892 51.0371C74.1428 50.9505 75.5298 51.4706 75.7898 50.257C76.1366 48.5232 74.3161 48.9566 73.4493 48.4365C71.7155 48.4365 69.9818 48.4365 68.248 48.4365C67.5545 48.87 66.4276 48.9566 66.6876 50.1703Z" fill="#020A13"/>
<path d="M76.4834 42.3682C81.4246 42.3682 85.6723 42.3682 89.9199 42.3682C88.3596 39.9409 80.1243 39.5942 76.4834 42.3682Z" fill="#020A13"/>
<path d="M90.0937 33.7861C90.9606 33.3526 92.9544 34.3929 93.1278 32.6591C93.3011 30.752 91.3073 31.3588 90.1804 31.3588C88.8801 31.3588 86.7996 30.752 86.7129 32.5724C86.7129 34.2195 88.7934 33.4393 90.0937 33.7861Z" fill="#020A13"/>
<path d="M82.638 33.613C83.5048 33.613 84.1117 33.1795 84.025 32.3993C83.9383 31.5325 83.1581 31.3591 82.3779 31.4458C81.7711 31.4458 81.251 31.8792 81.251 32.486C81.251 33.2662 81.7711 33.613 82.638 33.613Z" fill="#020A13"/>
<path d="M43.1957 85.5385C42.5022 85.6252 41.7221 85.6252 41.0286 85.5385C37.6477 85.0184 36.6942 86.492 36.6075 89.8728C36.4341 94.6406 39.5549 93.427 42.0688 93.5137C42.5022 93.5137 42.9357 93.5137 43.3691 93.5137C46.1431 93.6871 48.2236 93.6871 48.3103 89.6128C48.397 85.3651 46.2298 85.2784 43.1957 85.5385ZM41.8954 91.6066C40.3351 91.6933 38.6013 91.9533 38.688 89.4394C38.7747 86.3187 41.2019 88.0524 42.2422 87.3589C43.8025 87.7057 45.883 86.6654 45.9697 89.3527C45.9697 92.4735 43.5425 91.4332 41.8954 91.6066Z" fill="#020A13"/>
<path d="M56.5451 85.5385C55.8516 85.6252 55.0714 85.6252 54.3779 85.5385C50.9104 85.0184 50.0435 86.492 49.9568 89.8728C49.8702 94.6406 52.9909 93.3403 55.5048 93.5137C55.7649 93.5137 56.1116 93.5137 56.3717 93.5137C59.059 93.5137 61.6596 94.2072 61.6596 89.6128C61.6596 85.3651 59.5791 85.2784 56.5451 85.5385ZM55.8516 91.6066C54.2912 91.6066 52.124 92.3868 52.124 89.5261C52.0373 86.232 54.638 87.7923 56.025 87.3589C57.5853 87.619 59.7525 86.6654 59.5791 89.6128C59.4924 92.4735 57.3253 91.6066 55.8516 91.6066Z" fill="#020A13"/>
<path d="M70.0688 85.5388C68.9419 85.5388 67.815 85.6254 66.6013 85.5388C64.2608 85.2787 63.914 86.4923 63.654 88.5728C63.2205 92.8205 64.8676 94.3808 68.3351 93.514C69.2886 93.514 69.5487 93.514 69.8955 93.514C72.8428 93.6007 75.2701 94.0341 75.2701 89.4397C75.3567 84.7586 72.7561 85.6254 70.0688 85.5388ZM68.8552 91.6069C67.2948 91.7802 65.5611 91.9536 65.6478 89.4397C65.7345 85.8855 68.5951 88.3127 69.462 87.2725C71.1958 87.6192 73.2763 86.6657 73.2763 89.353C73.2763 92.9072 70.5023 91.4335 68.8552 91.6069Z" fill="#020A13"/>
<path d="M29.6727 85.5386C28.1991 85.5386 26.8121 85.5386 25.3384 85.5386C23.6913 85.5386 23.2579 86.3188 23.0845 87.8791C22.5644 93.1671 22.8244 93.5138 28.8925 93.5138C30.4529 92.8203 33.1402 94.9008 34.2672 92.2135C36.0876 88.1392 34.0938 85.5386 29.6727 85.5386ZM28.9792 91.6067C27.3322 91.52 24.9049 92.5602 24.9916 89.3528C25.0783 86.3188 27.4189 87.7924 28.8059 87.359C30.2795 87.7924 32.5334 86.4054 32.6201 89.4395C32.7068 92.3002 30.6263 91.6934 28.9792 91.6067Z" fill="#020A13"/>
<path d="M18.5765 85.4521C15.1957 85.5388 12.8551 87.6193 12.6818 90.8268C12.4217 94.2942 14.9356 93.254 16.6694 93.4274C19.7034 93.8608 21.7839 93.254 21.3505 89.5264C21.0904 87.706 21.8706 85.4521 18.5765 85.4521ZM16.1492 91.5203C15.8025 91.4336 14.5022 91.7803 14.7623 90.2199C15.0223 88.7463 16.0626 87.706 17.6229 87.5326C19.0966 87.3593 19.0099 88.4862 19.0966 89.5264C19.0966 91.1735 18.2297 91.7803 16.1492 91.5203Z" fill="#020A13"/>
<path d="M80.1244 85.5387C76.8303 85.3653 77.4371 87.6192 77.2638 89.5263C76.917 92.6471 78.0439 94.2074 80.9913 93.5139C85.4991 93.5139 85.6724 93.5139 85.7591 91.2601C85.9325 87.966 83.5052 85.7121 80.1244 85.5387ZM81.5981 91.6068C79.9511 91.7802 79.2576 91 79.3443 89.353C79.4309 88.3127 79.4309 87.1858 80.9046 87.5325C82.3783 87.7926 83.4186 88.7461 83.7653 90.2198C83.7653 91.8669 82.5517 91.5201 81.5981 91.6068Z" fill="#020A13"/>
<path d="M49.61 44.102C44.8422 44.1887 40.7679 48.1763 40.7679 52.9441C40.6812 57.972 44.8422 62.2197 49.6967 62.2197C54.6379 62.2197 58.7122 58.1454 58.7122 53.1175C58.7122 47.9162 54.7246 44.0153 49.61 44.102ZM49.8701 59.9658C45.7091 59.9658 42.8484 57.0184 42.9351 52.7707C43.0218 48.9565 46.1425 45.9224 49.9568 46.0091C53.5977 46.0958 56.8051 49.3899 56.8051 53.0308C56.8051 56.9317 53.771 59.9658 49.8701 59.9658Z" fill="#020A13"/>
<path d="M49.7838 46.7026C48.8303 49.1299 48.7436 50.6903 47.79 51.9906C47.0099 52.9441 47.4433 54.2444 48.5702 54.9379C49.3504 55.4581 50.2173 55.4581 50.9975 55.0246C52.1244 54.3311 52.2978 53.2042 51.8643 51.9906C51.2575 50.6036 50.7374 49.2166 49.7838 46.7026Z" fill="#020A13"/>
</g>
<defs>
<clipPath id="clip0">
<rect width="140" height="129.684" fill="white" transform="translate(0.71875 0.238281)"/>
</clipPath>
</defs>
</svg>
