<svg width="119" height="110" viewBox="0 0 119 110" fill="none" xmlns="http://www.w3.org/2000/svg">
<g clip-path="url(#clip0)">
<path d="M0.818359 32.4075C1.29641 26.4832 3.80621 21.3594 7.55097 16.9562C16.9527 5.9481 29.1431 1.98519 43.2059 3.66643C46.6718 4.06672 49.7792 4.82728 52.8069 1.94516C54.7988 0.0637838 57.8663 -0.0963339 60.9338 0.384019C59.7387 2.74575 58.5834 4.86731 58.3842 7.38916C58.3045 8.22978 58.3842 8.79019 59.1013 9.23051C64.4794 12.5529 68.5827 17.0763 71.7299 22.4802C71.8892 22.6404 72.0884 22.7604 72.2478 22.9206C74.9966 27.604 75.7934 32.7278 75.5145 38.0917C75.5145 39.4127 75.5543 40.6936 75.156 41.9745C72.5665 54.4237 64.9574 62.5496 53.5638 67.4733C52.767 67.6334 51.9703 68.3939 51.1735 67.5133C50.6556 66.1523 50.9743 64.7513 50.8946 63.3502C51.5719 60.7483 50.8946 57.9863 51.6914 55.3844C52.1296 54.2636 51.9304 52.9826 52.4085 51.8618C52.9264 51.1813 53.6833 51.3014 54.4004 51.2213C58.2647 50.9011 61.5314 48.099 62.607 44.1762C63.6428 40.4935 62.2485 36.1703 58.9818 34.1688C56.95 32.9279 56.1931 31.4868 56.472 29.1651C57.1094 23.8412 53.9223 20.5188 50.2174 17.4766C46.871 14.7145 45.4767 14.5144 41.6124 16.5959C40.2579 17.3565 38.8636 17.7968 37.2302 17.4365C34.7204 16.8761 33.5253 18.037 33.605 20.6389C33.6448 21.9999 34.4416 23.0006 34.8798 24.1615C34.9595 25.3223 34.4814 26.3631 34.4017 27.5239C34.1627 32.4075 36.0749 36.0102 40.3376 38.4119C42.5287 39.6528 42.8076 40.6536 41.7718 42.9753C38.6644 44.3763 36.6725 47.1784 34.2424 49.42C33.844 49.7803 33.605 50.2606 33.4855 50.781C32.8082 52.4222 31.6529 53.7032 30.418 54.864C28.5057 56.7054 26.9122 56.6253 24.9203 54.7839C24.8008 54.5838 24.7211 54.4237 24.6813 54.1835C24.3227 52.102 24.8406 49.9404 24.3227 47.8589C23.9642 47.0182 23.1674 46.618 22.4504 46.1376C15.8373 42.0946 9.18433 38.0116 2.49155 33.9286C1.85415 33.5283 1.01755 33.2882 0.818359 32.4075Z" fill="#FEBF3A"/>
<path d="M53.4844 67.073C57.5877 65.1516 61.452 62.8699 64.7585 59.7476C69.8976 54.9041 73.2042 49.0598 74.6383 42.1347C75.3953 41.5743 76.1522 41.9746 76.8693 42.1747C81.7693 43.6959 86.5897 43.4557 91.2906 41.4942C92.6451 41.2541 93.5614 39.6929 95.1549 40.1733C100.055 42.2948 104.676 44.8167 108.501 48.6195C123.201 63.1101 121.169 85.7267 104.118 97.5354C103.043 98.2959 101.888 98.9364 100.732 99.6169C99.2184 98.2559 98.6606 96.4946 99.2582 94.8934C100.334 95.2937 101.37 96.4546 102.565 95.1336C102.724 95.0135 102.883 94.9335 103.043 94.8134C105.114 94.0528 105.991 92.5717 105.831 90.3301C105.712 88.4087 105.871 86.4873 105.792 84.5659C105.712 82.8046 104.915 82.4043 103.282 83.1248C101.37 84.0054 99.8956 85.2063 99.8558 87.528C98.9395 88.0484 97.9037 88.2085 96.8679 88.4087C95.9118 86.167 94.8362 83.9654 93.9597 81.6837C92.6849 78.2812 91.0117 77.0403 87.3068 76.9202C86.2312 75.3991 87.1873 74.5985 88.3824 73.9581C91.4898 72.3169 93.5215 69.835 94.398 66.3925C94.9955 64.1108 94.5972 61.9092 94.1988 59.6676C94.2785 58.827 94.9159 58.2666 95.2346 57.546C96.2305 55.4245 95.7923 53.0627 94.0793 51.5416C92.4061 50.0605 90.0158 49.7403 88.2231 51.1413C86.6296 52.3822 84.9564 52.7425 83.0441 52.6224C80.8531 52.5023 78.8612 53.7432 76.5904 53.2629C75.714 53.0627 73.6026 55.8248 73.6822 56.8255C73.7619 57.7862 73.5627 58.6668 73.2042 59.5475C71.5708 63.7906 72.3277 67.6334 75.1961 71.116C76.3912 72.5971 78.0246 73.4777 79.6978 74.2783C81.5701 75.159 81.849 76.5199 80.7336 78.4414C77.2676 79.6823 75.714 81.8439 75.6741 85.4465C75.6343 91.0906 75.5546 96.7748 75.6343 102.419C75.6741 104.06 75.0367 104.541 73.6822 104.02C71.531 103.18 70.1367 103.86 68.6228 105.541C66.2724 108.183 63.0455 109.144 59.3406 109.064C60.3365 106.862 61.0138 104.741 61.1731 102.499C61.2528 100.778 61.0536 99.3767 59.2609 98.376C56.0739 96.6147 53.4446 94.0128 50.9746 91.2908C50.6957 90.3701 51.4128 89.9298 51.8909 89.4895C54.321 87.1678 55.7552 84.2857 56.5917 81.0833C57.269 76.8002 56.5519 72.7972 54.2015 69.1145C53.8828 68.5941 53.2852 67.9937 53.4844 67.073Z" fill="#4E67F6"/>
<path d="M15.2797 63.4297C8.14875 58.5061 3.16901 52.0214 1.13727 43.4551C0.499866 40.7731 0.300677 38.0911 0.499866 35.3291C1.21695 35.0889 1.77468 35.4892 2.37225 35.8095C8.22843 39.3321 14.0448 42.9747 19.9009 46.5373C21.2156 47.3379 22.1319 48.4187 22.1319 50.0599C22.1717 55.0636 22.1717 60.0673 22.1319 65.0709C22.1319 65.5513 22.0522 65.9916 21.853 66.4319C21.2156 67.1525 20.5384 66.8322 19.8611 66.512C18.5066 65.8315 17.1123 65.151 15.7976 64.4705C15.3196 64.2704 15.3594 63.83 15.2797 63.4297Z" fill="#ADBACD"/>
<path d="M80.8125 78.5612C81.171 76.3596 80.6133 74.8385 78.1832 74.198C76.8685 73.8378 75.6734 72.877 74.9165 71.516C75.0758 70.8355 74.7571 70.1951 74.5978 69.5546C74.2791 67.9935 74.3986 66.5524 75.9124 65.7118C77.2669 64.9112 78.5816 65.2715 79.7767 66.2722C79.9759 66.4323 80.0556 66.7526 80.3743 66.6725C79.2588 62.3894 80.1352 61.2685 84.7564 61.2285C87.7044 61.2285 90.5728 61.0284 93.3216 59.7874C93.6801 59.6273 94.0785 59.5072 94.4769 59.7074C96.7477 65.1514 94.3175 71.5161 88.8597 74.2781C87.6248 74.8785 86.9077 75.519 87.3459 76.96C87.3459 77.4804 87.3061 78.0008 87.3061 78.5212C87.3061 81.6435 85.5134 82.9244 82.4857 82.0838C80.4539 81.5634 81.0515 79.8822 80.8125 78.5612Z" fill="#F5A892"/>
<path d="M99.6563 95.1735C98.6604 96.0942 99.7758 96.7747 99.9352 97.5352C100.095 98.2958 100.533 98.9763 100.812 99.6568C99.9352 100.097 99.0588 100.617 98.1823 101.018C95.9912 101.978 95.7124 101.898 95.7522 99.4566C95.792 97.175 95.0351 97.4552 93.5611 98.3758C92.0074 99.3365 90.3343 100.177 88.7009 101.058C84.8366 103.139 81.0122 101.538 79.7772 97.3751C79.4187 96.0942 78.5024 94.6931 78.8211 93.6123C79.1796 92.3314 81.052 93.4122 82.1276 92.8117C82.9244 92.3714 83.8008 92.0912 84.6773 91.6909C84.7171 91.731 84.8366 91.811 84.8765 91.9311C85.9919 95.0934 85.9919 95.0934 88.9798 93.4923C91.2107 92.2914 93.3619 91.0505 95.5929 89.8496C96.1904 89.5293 96.7083 89.129 96.9075 88.4485C97.6246 87.5279 98.4213 86.9675 99.5766 87.728C100.174 88.0082 100.772 88.2484 101.489 88.0483C102.525 87.728 103.64 87.7681 104.078 88.8488C104.636 90.1298 105.592 91.4508 104.835 93.0119C104.357 93.9726 103.799 94.8933 102.804 95.4137L102.843 95.3736C101.728 96.0942 100.692 95.6138 99.6563 95.1735Z" fill="#F5A893"/>
<path d="M21.4936 66.6323C21.4936 61.1083 21.4936 55.5842 21.5732 50.0201C21.6131 48.5791 20.8163 47.7785 19.7805 47.138C13.3666 43.1751 6.91287 39.2522 0.45912 35.3294C0.45912 34.3286 0.220093 33.2879 0.777824 32.3672C8.42671 37.0106 16.0358 41.614 23.6846 46.2574C24.1229 46.5376 24.5611 46.8578 24.8001 47.3782C25.2383 49.7399 24.6009 52.1817 25.1188 54.5835C25.7562 55.4641 25.7961 56.4649 25.6367 57.4656C25.2383 59.5071 25.3578 61.5886 25.557 63.6301C25.1586 65.0312 25.7562 66.6724 24.6009 67.9533C23.2863 68.1935 22.131 68.0734 21.4936 66.6323Z" fill="#6E7F98"/>
<path d="M57.03 81.4433C56.3926 84.7257 54.7991 87.4477 52.4885 89.8094C51.9706 90.3298 51.5324 90.8902 51.0543 91.4106C50.0982 92.0911 49.1421 92.8116 48.1461 93.4521C45.6364 95.0533 45.3177 95.9739 46.4331 98.736C46.5925 99.1763 46.8315 99.5766 47.1104 100.137C44.4412 100.657 42.29 99.8568 40.4973 98.2556C39.5411 97.415 38.7046 97.2148 37.5094 97.415C29.1036 98.6959 21.375 97.0948 14.4831 91.8509C14.1644 91.6107 13.9254 91.2905 13.6465 91.0103C13.8058 90.8502 14.005 90.7701 14.2042 90.7301C14.9213 90.69 15.4392 91.1304 15.9969 91.5307C22.371 96.2141 29.6215 97.0948 37.1907 96.2942C38.8241 96.134 40.1786 96.2541 41.3737 97.455C42.6087 98.6959 44.2819 98.9761 45.9152 99.4165C46.0746 99.5766 46.1543 99.0962 46.0347 99.3364C45.9949 99.4165 45.9152 99.4165 45.8355 99.3364C44.0827 97.1748 44.4412 94.5329 46.7518 93.0518C47.9868 92.2512 49.2218 91.4906 50.2974 90.4899C52.9267 88.2883 54.8389 85.5663 55.9544 82.3239C56.1536 81.8035 56.2332 81.123 56.9902 81.043C57.03 81.043 57.1097 81.123 57.1495 81.1631C57.1495 81.2031 57.1097 81.3232 57.03 81.4433Z" fill="#37D4C4"/>
<path d="M95.2339 40.2131C94.0786 40.7735 92.9233 41.2939 91.768 41.8543C90.8119 41.7742 91.3696 41.2939 91.6086 41.0537C92.2062 40.4933 93.0428 40.133 93.6404 39.5726C95.6721 38.6119 97.1859 37.0908 98.3811 35.1694C101.488 30.2858 99.1778 24.9619 95.6323 22.5201C94.8753 21.9997 94.0786 21.5194 93.242 21.1191C92.0867 20.5987 91.2103 19.8782 91.1704 18.4371C91.1306 17.7566 90.7322 16.9961 90.0948 17.5965C88.1029 19.598 85.5931 19.0376 83.2427 19.2777C79.6971 19.638 76.3507 20.5987 73.4027 22.6802C72.9645 23.0005 72.4864 23.2406 71.9287 23.0805C71.849 22.8804 71.8092 22.6802 71.7295 22.4801C75.7531 19.3578 80.3743 17.9167 85.4337 18.0769C86.6687 18.1169 87.7444 18.0769 88.6606 17.0361C89.0988 16.5157 89.8956 16.3156 90.5728 15.9953C91.1704 15.7151 91.9273 15.3148 92.4452 15.8352C92.8834 16.2755 92.3656 16.916 92.2062 17.4764C91.8078 18.7574 92.4054 19.3578 93.5209 19.9182C98.8591 22.5601 101.409 26.6031 100.811 31.5267C100.413 35.3695 98.0225 37.9314 95.2339 40.2131Z" fill="#30D5C1"/>
<path d="M14.2038 90.9302C14.0046 90.9702 13.8054 91.0103 13.6062 91.0103C5.99717 84.6456 5.20041 73.5975 11.8534 66.8726C12.0525 66.9526 12.1721 67.1127 12.2119 67.3129C12.2517 67.9533 11.8135 68.4337 11.4948 68.9141C7.19231 75.3988 7.43134 81.6434 12.0525 87.848C12.8095 88.8487 13.9249 89.5692 14.2038 90.9302Z" fill="#34D6C2"/>
<path d="M15.2796 63.4302C15.3991 63.6704 15.5186 63.8705 15.5983 64.1107C14.921 65.6718 13.5665 66.4324 12.1324 67.1129C12.0527 67.0328 11.9332 66.9528 11.8535 66.8727C12.6104 65.3516 14.2438 64.6711 15.2796 63.4302Z" fill="#2FD5C0"/>
<path d="M34.6808 24.2411C33.6052 23.1603 32.9678 21.9194 32.9678 20.3582C32.9678 17.7963 34.5613 16.3553 37.0711 16.9157C38.8638 17.356 40.298 16.7956 41.772 15.955C45.3972 13.9535 47.5086 14.2337 50.4965 17.1158C51.0542 17.6762 51.6119 18.2767 52.2493 18.717C56.3527 21.7592 57.8267 25.8422 57.0299 30.8059C56.8705 31.7266 56.8307 32.2469 57.8665 32.8073C62.3682 35.1691 64.3601 39.6924 63.1649 44.3358C61.8901 49.1794 58.0657 51.9414 52.8071 51.8213C52.1298 51.5011 52.09 50.8606 52.1697 50.3002C52.5282 47.338 50.9347 45.4566 48.8233 43.8154C48.5444 43.6153 48.3054 43.3751 48.146 43.1349C47.668 40.7332 48.0265 39.5723 50.1379 38.8518C53.0063 37.851 53.4046 35.5293 53.6835 33.0475C53.7632 32.1669 53.2453 31.5264 52.4884 31.1261C51.6518 30.6858 50.9745 30.966 50.3371 31.5264C50.0583 31.8066 49.8192 32.1268 49.5802 32.4471C49.2217 32.9675 48.7834 33.4078 48.1062 33.0875C47.5485 32.8474 47.3891 32.2069 47.5485 31.7266C48.0265 30.2054 47.2298 29.7251 45.9549 29.4449C43.6443 28.9245 42.2102 27.2833 41.015 25.4019C39.7402 23.3604 39.5809 23.3604 37.3499 24.201C36.4337 24.5213 35.5572 24.9216 34.6808 24.2411Z" fill="#111111"/>
<path d="M71.9287 23.1204C76.3109 19.758 81.2906 18.2769 86.7883 18.8373C87.9436 18.9574 88.3419 17.9967 89.0989 17.5163C89.816 17.076 90.5729 16.2754 91.4095 16.6757C92.0469 16.9959 91.5688 17.8766 91.529 18.5171C91.4891 19.7179 92.2859 20.0782 93.1623 20.4785C96.8274 22.1998 99.4966 24.8017 100.253 28.9647C101.01 33.1278 97.5844 38.812 93.6802 39.8527C92.9632 40.213 92.2461 40.0128 91.5688 39.8127C86.7484 38.6518 81.8882 37.9713 76.9483 38.6118C76.3109 38.6919 75.6336 38.6919 75.0759 38.1715C75.1954 32.9677 74.2792 27.8839 71.9287 23.1204Z" fill="#FEFEFE"/>
<path d="M48.3847 43.0952C51.0538 44.5763 52.9661 46.4977 52.6474 49.9002C52.6075 50.5406 52.727 51.2211 52.7669 51.8616C52.488 53.0625 53.0856 54.4235 52.01 55.4643C51.3327 56.1047 50.4563 56.3049 49.6197 56.2648C48.2652 56.1848 47.9465 56.7452 47.9465 57.9861C47.9465 62.2693 45.0781 64.9913 40.7756 64.9512C38.7041 63.8304 36.4731 63.0298 35.1187 60.9083C35.0788 59.147 35.7162 57.5058 35.8756 55.7445C36.3138 54.6236 35.9154 53.743 35.039 52.9424C34.2821 52.2619 33.4056 51.6214 33.2064 50.5006C33.2064 50.2204 33.0869 49.8601 33.2064 49.7401C35.9154 47.4184 37.748 44.0159 41.4529 42.9351C42.2895 43.0151 42.2497 43.6956 42.3293 44.256C42.5285 45.9773 43.7237 46.3776 45.1578 46.4176C46.592 46.4576 47.5481 45.7771 47.7074 44.256C47.827 43.8157 47.8668 43.2953 48.3847 43.0952Z" fill="#4E67F6"/>
<path d="M48.3848 43.0952C48.1457 46.3776 46.5522 47.6185 43.7636 46.7779C42.4887 46.3776 41.6521 45.6971 41.8513 44.216C41.8912 43.7757 41.9708 43.2553 41.5326 42.935C42.3692 40.4532 42.2099 40.0129 40.0188 38.852C34.7602 36.05 32.5293 30.0056 34.6805 24.2413C35.8358 24.2413 36.9114 24.0412 37.9074 23.4407C39.3017 22.5601 40.4172 23.0404 41.0147 24.3214C42.2895 27.1234 44.3611 28.8447 47.3888 29.4451C48.2254 29.6053 48.9026 30.0456 48.066 31.0863C47.6677 31.6067 47.5083 32.4473 48.2254 32.8476C49.1018 33.288 49.062 32.2872 49.3409 31.8469C50.1775 30.4058 51.4124 30.0056 52.8864 30.606C54.2808 31.2064 54.719 32.7676 54.0417 34.3287C53.9222 34.5689 53.6035 34.8491 53.6434 35.0092C54.7987 37.9314 52.1295 38.3717 50.6555 38.9321C48.4644 39.8128 48.1457 41.1737 48.3848 43.0952Z" fill="#C37C5F"/>
<path d="M57.0291 81.4433C56.9893 81.4033 56.9096 81.3632 56.8698 81.3232C56.6706 81.7635 56.4316 82.2439 56.2722 82.6842C55.0771 85.8465 53.4039 88.6486 50.6152 90.6501C50.0973 90.7301 49.699 90.4499 49.4599 90.0496C45.1973 83.9652 42.5281 77.4003 43.6038 69.7547C44.4802 68.4338 46.0339 69.0342 47.1493 68.4738C48.5835 68.3137 49.8583 67.2329 51.412 67.7933C52.0892 67.5531 52.8063 67.353 53.4836 67.1128C56.2722 70.7955 57.9852 74.8385 57.4673 79.602C57.3877 80.2024 57.5869 80.9229 57.0291 81.4433Z" fill="#2799D4"/>
<path d="M47.4685 68.9542C46.2336 69.2345 44.9588 69.5547 43.7238 69.8349C42.8872 70.5154 41.9311 70.3553 40.975 70.3553C38.744 70.3152 36.4733 70.3553 34.2424 70.3152C33.8041 70.3152 33.3659 70.2352 32.9277 70.035C31.8919 67.7534 32.2903 66.7927 34.5611 66.0321C34.8798 65.912 35.1985 65.872 35.3977 65.5918C36.1546 64.471 37.0708 63.9105 38.3855 64.7111C39.1823 65.1915 39.8993 64.6711 40.6563 64.551C43.0864 64.3108 45.0783 63.0699 46.9507 61.5888C48.0661 60.7082 47.5482 59.2271 47.4685 58.0262C47.3889 56.385 47.349 55.064 49.6995 55.5844C50.4165 55.7445 51.2531 55.4643 52.0101 55.3843C51.4523 57.9862 52.1694 60.6682 51.3328 63.2701C51.0938 65.1114 49.7393 65.9921 48.3051 66.7126C47.3092 67.313 46.9108 67.8735 47.4685 68.9542Z" fill="#8D4E3F"/>
<path d="M75.116 38.2514C81.4502 37.4908 87.6649 37.8511 93.7203 39.8926C93.6008 41.0934 91.8081 40.6131 91.7682 41.854C87.1072 44.2157 82.2469 44.2157 77.307 42.9348C76.4306 42.6946 75.5542 42.4144 74.6777 42.1342C74.7972 40.8533 74.9566 39.5323 75.116 38.2514Z" fill="#269BD3"/>
<path d="M33.2463 50.5005C34.043 51.261 34.8398 52.0616 35.6366 52.8222C36.4333 53.5427 36.9114 54.3033 36.3935 55.3841C34.6805 56.3048 34.043 58.3062 32.4097 59.2669C31.095 59.9875 29.5414 60.4278 29.4218 62.3092C29.143 62.9496 28.6251 63.47 27.9478 63.3499C26.9121 63.1898 26.1153 63.8703 25.1592 63.8303C24.2827 60.748 25.3185 57.6658 25.1592 54.5835C27.9877 56.2647 29.143 56.1446 31.1349 53.5027C31.852 52.542 32.9276 51.7814 33.2463 50.5005Z" fill="#C27C5E"/>
<path d="M20.6174 23.0405C21.4142 23.5209 21.9719 24.0813 22.689 23.0005C22.0118 24.5616 22.6492 25.7225 23.4459 26.8433C24.0833 27.764 24.6012 28.7647 25.1988 29.7254C26.5931 32.0471 26.0752 33.3281 23.4061 33.7284C21.9719 33.9685 20.4979 34.0086 19.1036 33.4081C17.4304 32.6876 17.1117 31.887 17.9881 30.3259C18.7849 28.9248 19.5816 27.5638 20.4581 26.2429C21.0955 25.2421 21.6931 24.3215 20.6174 23.0405Z" fill="#FEF3DC"/>
<path d="M47.4689 68.9537C46.9909 68.5134 46.5526 68.0731 45.9551 67.5527C48.0665 66.4319 50.2177 65.4712 51.4129 63.3096C51.4129 64.7907 51.4129 66.2717 51.4527 67.7929C50.0982 68.1531 48.7836 68.5534 47.4689 68.9537Z" fill="#5168F2"/>
<path d="M25.1195 54.5837C24.3626 52.222 24.9203 49.7802 24.8008 47.3784C25.5577 49.7802 24.9601 52.1819 25.1195 54.5837Z" fill="#C27C5E"/>
<path d="M94.4771 59.7472C92.2462 61.2283 89.6966 61.5486 87.1071 61.7487C86.0315 61.8288 84.9957 61.7887 83.9201 61.7887C80.3346 61.9088 79.6574 62.9096 80.972 66.192C81.2509 66.8725 81.7688 67.6731 80.8924 68.1134C80.0558 68.5537 80.0558 67.5129 79.7769 67.0726C78.9005 65.7516 77.6655 65.3914 76.311 65.9918C74.7573 66.6723 74.5183 68.1134 75.076 69.5544C75.3947 70.355 75.8728 70.9555 74.8768 71.5159C71.5304 67.9132 71.1321 63.7902 72.7256 59.3069C73.0443 58.4263 73.6817 57.6657 73.0045 56.705C72.9646 56.665 73.0045 56.5849 72.9646 56.5048C72.8053 54.8236 76.1915 52.2217 77.7452 52.8221C78.1037 52.9823 78.3826 53.2224 78.8208 52.9823C80.9322 51.9415 83.1631 51.9815 85.4339 52.1016C86.0315 52.1416 86.4298 51.9015 86.8282 51.5412C89.6567 49.1795 92.6047 49.1795 94.7958 51.4611C96.9869 53.7028 96.8674 56.665 94.517 59.5071C94.5568 59.6271 94.517 59.7072 94.4771 59.7472Z" fill="#8D4A38"/>
<path d="M102.803 95.4135C103.64 94.6129 104.078 93.4521 104.556 92.4914C105.153 91.2504 103.998 89.9695 103.52 88.7686C103.122 87.8079 101.966 88.3683 101.21 88.6886C100.174 89.1289 99.4566 89.2089 99.5363 87.7279C99.6957 84.8858 101.727 82.5641 104.476 82.0837C105.592 81.8836 106.149 82.444 106.189 83.4447C106.229 86.4869 106.309 89.5692 106.149 92.6114C106.07 94.5729 104.317 94.9331 102.803 95.4135Z" fill="#121214"/>
<path d="M104.118 75.8793C103.481 74.5984 103.72 73.5176 104.716 72.6369C104.955 72.3968 105.234 72.2366 105.473 71.9965C107.026 70.5954 107.305 68.9142 106.19 67.8734C104.955 66.7126 103.839 66.9528 102.246 68.7941C102.166 68.8742 102.007 68.8742 101.608 68.9943C102.007 67.6733 102.724 66.9127 103.839 66.6325C105.034 66.3523 106.07 66.7526 106.867 67.7133C107.624 68.674 107.863 69.7548 107.226 70.8756C106.947 71.316 106.708 71.8364 106.269 72.1566C105.074 73.0773 104.118 74.1581 104.118 75.8793Z" fill="#D2A969"/>
<path d="M99.6562 95.1733C100.732 95.2534 101.768 95.3335 102.843 95.3735C101.688 96.8146 100.612 96.7345 99.6562 95.1733Z" fill="#121214"/>
<path d="M32.7685 69.6744C33.127 69.7145 33.5254 69.7545 33.8839 69.7945C36.2742 70.1148 38.6645 70.1148 41.0946 69.7945C41.971 69.7945 42.8475 69.8346 43.7239 69.8346C43.4849 77.6003 45.676 84.6054 50.6159 90.6498C49.8589 91.8107 48.6638 92.4111 47.5483 93.0916C45.1581 94.6127 44.7597 95.5334 45.5963 98.2954C45.7158 98.7358 45.915 99.1761 46.154 99.7765C43.9629 99.6965 42.0507 99.096 40.5767 97.5349C39.8596 96.8144 39.1824 96.4541 38.1466 96.6142C29.3822 98.0953 21.2951 96.4941 14.204 90.89C10.2999 87.0872 7.7104 82.724 7.98927 77.0398C8.18846 73.197 9.98116 70.1148 12.1324 67.1126C13.2877 66.1118 14.443 65.1111 15.5983 64.1104C17.7894 64.4306 19.3431 66.2319 21.4943 66.6322C22.3309 67.3127 23.3269 67.5129 24.3228 67.8331C27.231 67.9932 30.0595 68.5536 32.7685 69.6744Z" fill="#FDFCFB"/>
<path d="M88.0635 67.8733C88.0236 68.2736 87.6253 68.5138 87.1074 68.4738C86.709 68.3937 86.3903 68.1135 86.4301 67.6331C86.47 67.0327 86.8683 66.8326 87.3862 66.8726C87.8245 66.8726 88.1432 67.1928 88.0635 67.8733Z" fill="#221C1B"/>
<path d="M93.3621 65.4317C93.8003 65.5118 94.0393 65.872 93.9597 66.3924C93.88 66.7927 93.5613 67.0329 93.0832 66.9928C92.4458 66.9528 92.3661 66.5125 92.406 66.0321C92.4857 65.5518 92.8044 65.3516 93.3621 65.4317Z" fill="#201B1A"/>
<path d="M32.7679 69.6744C29.8597 69.5143 27.0711 68.7938 24.3223 67.8331C25.3581 66.6722 24.3223 65.0711 25.119 63.8302C25.8759 63.3098 26.3938 62.3891 27.589 62.9895C28.3061 63.3498 28.6646 62.5092 29.1427 62.1089C31.8516 62.4692 33.8037 64.2304 35.8753 65.7516C35.9549 66.4721 35.5566 66.6322 34.9192 66.6322C33.2858 66.5922 32.3695 67.0725 33.0069 68.9539C33.1265 69.1541 32.8874 69.4343 32.7679 69.6744Z" fill="#ADBACD"/>
<path d="M80.8524 26.2027C81.9281 26.8432 82.6451 26.4429 83.163 25.3221C83.6809 24.2413 84.5175 24.2013 85.0354 25.2821C85.5932 26.4029 86.1907 26.6431 87.3859 26.2428C88.4615 25.8825 89.0989 26.523 88.7005 27.6838C88.3818 28.6445 88.3818 29.325 89.4574 29.7654C90.8916 30.3658 90.7322 31.2064 89.5769 31.8869C88.5013 32.5274 88.3021 33.1679 88.7005 34.3287C89.0192 35.3294 88.4615 35.9299 87.3859 35.5696C86.2306 35.1293 85.5533 35.4495 84.9956 36.5303C84.3183 37.8113 83.5614 37.5311 83.0037 36.4102C82.5256 35.4495 81.8882 35.1693 80.9321 35.4896C79.4183 36.0099 79.0597 35.2094 79.4183 33.9684C79.6971 33.0077 79.5378 32.4874 78.7012 32.007C77.4264 31.2464 77.0678 30.4058 78.7809 29.6853C79.737 29.285 79.6971 28.5645 79.4183 27.6838C79.0996 26.563 79.6971 26.1227 80.8524 26.2027Z" fill="#AEBBCE"/>
<path d="M35.9154 65.7918C33.4852 64.9512 31.4535 63.27 29.1827 62.1491C28.7445 59.6273 30.8559 59.6273 32.2901 59.0269C33.6446 59.227 34.6804 59.9075 35.4771 61.0283C36.991 62.5494 39.0626 63.2299 40.6959 64.631C39.9788 65.6317 39.2219 66.072 38.1065 65.1514C37.1105 64.3107 36.3934 64.8311 35.9154 65.7918Z" fill="#8E4A38"/>
<path d="M35.4771 60.9882C34.4015 60.3077 33.3258 59.6672 32.29 58.9867C33.3258 57.7458 34.3616 56.5049 35.3974 55.304C35.7161 54.9438 36.1145 54.3834 36.3933 55.3841C36.0746 57.2655 35.7958 59.1469 35.4771 60.9882Z" fill="#FBBD3C"/>
<path d="M36.0348 31.6867C35.4771 31.5666 35.1982 31.2864 35.1982 30.846C35.1982 30.2456 35.6365 30.0455 36.1544 30.0855C36.6324 30.1255 36.7918 30.4858 36.7519 30.9261C36.6722 31.4465 36.2739 31.5666 36.0348 31.6867Z" fill="#201A17"/>
<path d="M41.9304 33.0077C41.4922 33.0077 41.1337 32.8476 41.0938 32.3672C41.054 31.9269 41.2532 31.5266 41.6914 31.4866C42.2093 31.4065 42.5678 31.6867 42.6475 32.2472C42.6874 32.7275 42.3687 32.9277 41.9304 33.0077Z" fill="#1D1816"/>
<path d="M41.0945 69.7949C38.7042 70.5154 36.3139 70.4354 33.8838 69.7949C36.3139 69.7949 38.7042 69.7949 41.0945 69.7949Z" fill="#DAB09D"/>
<path d="M21.7731 30.7658C21.0959 31.086 20.9764 31.8065 20.6178 32.3269C20.0999 33.2076 19.4625 33.0074 18.7853 32.6071C18.0682 32.2068 17.869 31.7265 18.3072 31.0059C19.4227 29.2046 20.4983 27.3633 21.7333 25.2817C23.0081 27.3633 24.1634 29.2447 25.2789 31.126C25.7569 31.9266 25.1992 32.3269 24.5618 32.6872C23.8845 33.0474 23.3667 33.1275 22.9284 32.3269C22.6496 31.7665 22.4105 31.086 21.7731 30.7658Z" fill="#FEC03B"/>
<path d="M22.7695 33.1676C22.0126 33.3678 21.3751 33.608 21.0166 33.0876C20.8174 32.8074 21.2158 32.0868 21.654 32.0068C22.4906 31.8467 22.2516 32.7673 22.7695 33.1676Z" fill="#FEC13F"/>
<path d="M29.5811 73.0772C31.3738 74.5583 33.7242 73.5576 36.1145 73.0372C37.9869 72.6369 39.0625 74.0379 39.8194 75.439C40.656 76.9601 40.417 78.5612 39.2218 79.8422C37.2698 81.9237 35.1982 83.8852 33.2063 85.9267C32.5291 86.6072 32.051 86.5671 31.4136 85.8866C29.6607 84.0853 27.8282 82.364 26.1152 80.5227C24.7208 79.0016 24.2428 77.1602 25.1192 75.1988C25.8363 73.5576 27.1908 72.837 29.5811 73.0772Z" fill="#FED3CB"/>
<path d="M84.1594 33.0479C82.8049 33.0079 81.8488 32.2874 81.8089 30.9264C81.7691 29.6054 82.6455 28.6847 84.0398 28.6047C85.4342 28.5246 86.3903 29.4052 86.4301 30.7262C86.4301 32.0072 85.6732 32.9679 84.1594 33.0479Z" fill="#FDFDFD"/>
</g>
<defs>
<clipPath id="clip0">
<rect width="118" height="109" fill="white" transform="translate(0.419922 0.183594)"/>
</clipPath>
</defs>
</svg>
