<svg width="813" height="191" viewBox="0 0 813 191" fill="none" xmlns="http://www.w3.org/2000/svg">
<path d="M2.73926 169.451C2.73926 180.112 11.0352 188.906 21.6887 189.292C167.384 194.575 401.823 183.107 791.915 188.226C802.438 188.364 811.435 180.342 811.955 169.831C813.597 136.605 812.893 97.9982 811.273 37.9556C810.981 27.1299 802.116 18.4842 791.286 18.4842L22.7393 18.4837C11.6936 18.4837 2.73926 27.438 2.73926 38.4837V169.451Z" fill="#020A13"/>
<path d="M1 21.3506C1 11.2387 8.84781 2.90866 18.9263 2.5195C85.4768 -0.0502689 170.564 1.10184 280.615 2.59198C290.958 2.73204 301.522 2.87508 312.312 3.0183C437.89 4.68513 594.026 6.37496 789.081 3.65377C799.137 3.51347 807.686 11.1984 808.166 21.1889C809.882 56.9565 809.162 98.4639 807.504 163.687C807.242 173.985 798.814 182.218 788.515 182.218L20 182.219C9.5066 182.219 1 173.712 1 163.219V21.3506Z" fill="white" stroke="#020A13" stroke-width="2"/>
</svg>
