<svg width="182" height="186" viewBox="0 0 182 186" fill="none" xmlns="http://www.w3.org/2000/svg">
<path d="M1 173.057V90.8108C1 85.5459 5.08227 81.1827 10.3356 80.8329L147.336 71.7101C153.107 71.3258 158 75.9037 158 81.688V137.327C158 141.877 154.927 145.854 150.524 147.003L13.5237 182.734C7.18797 184.386 1 179.605 1 173.057Z" fill="#020A13" stroke="black"/>
<g clip-path="url(#clip0)">
<path d="M161.54 50.3516C161.54 80.1963 161.54 110.015 161.54 139.86C161.54 142.841 160.347 144.202 157.469 144.751C151.453 145.902 145.436 147.105 139.42 148.282C132.134 149.721 124.873 151.133 117.586 152.546C117.223 152.624 116.808 152.572 116.419 152.572C115.797 152.31 115.745 151.682 115.667 151.159C115.174 147.864 114.604 144.568 114.76 141.22C114.76 140.854 114.734 140.487 114.76 140.121C114.371 136.956 114.033 133.791 112.737 130.862C111.544 128.141 109.833 126.023 106.954 124.872C102.364 123.015 97.7485 121.393 92.8734 120.478C91.4731 120.216 91.2397 119.928 91.2138 118.463C91.2138 118.202 91.1879 117.94 91.2138 117.679C91.3435 116.423 90.9286 115.455 89.6839 114.985C89.4764 114.723 89.3986 114.435 89.4246 114.121C89.5023 111.95 89.0874 109.779 89.1393 107.582C89.1652 105.621 89.1912 105.568 91.0842 105.176C96.7891 103.973 100.99 100.834 103.505 95.4979C104.776 92.8038 105.165 89.9004 104.906 86.9447C104.802 85.6892 104.698 84.4337 104.646 83.1782C104.854 82.4981 104.724 81.818 104.491 81.1641C104.283 79.2285 104.18 77.2929 104.076 75.3312C104.05 74.8342 103.998 74.3634 104.413 73.9972C105.528 73.3433 106.876 73.1863 107.966 72.4278C108.743 71.8785 109.003 71.3554 108.406 70.4922C105.269 66.0456 101.638 62.1221 96.8409 59.4279C90.9804 56.106 84.9643 55.7398 78.8445 58.6694C78.0925 59.0356 77.3405 59.3233 76.5107 59.4541C73.2433 60.0295 70.5465 61.6512 68.2386 64.0053C66.6049 65.6532 66.6049 65.6532 65.412 63.7438C64.1673 61.8082 62.9226 59.8726 61.0296 58.4601C57.8141 56.0537 54.832 56.0799 51.6424 58.5386C49.1012 60.4742 47.2341 62.9852 45.9116 65.8625C43.3444 71.4338 42.8257 77.3191 43.3444 83.3613C43.7333 88.0433 44.7965 92.5684 46.5858 96.9104C47.649 99.4999 48.8678 102.011 50.9941 103.92C51.409 104.287 51.824 104.679 52.3685 104.888C53.6392 105.411 54.5727 105.071 55.1691 103.842C55.9211 102.299 56.2064 100.625 56.2323 98.8983C56.2582 97.3289 56.2064 95.7595 56.2582 94.1901C56.2842 92.8823 56.4657 92.7776 57.7104 92.9084C59.4997 93.1177 60.3295 92.5161 60.8481 90.7636C61.4705 88.6449 60.9518 86.5262 60.7962 84.4075C60.4851 80.0917 60.3813 75.7758 61.9113 71.6169C62.2225 70.8061 62.5596 69.9952 63.1819 69.3675C63.3375 69.2105 63.519 69.0536 63.7524 69.132C64.0636 69.2367 64.0377 69.5244 64.0117 69.786C63.9858 69.9952 63.908 70.2045 63.8302 70.4137C62.767 72.6894 62.3521 75.1481 62.1706 77.6329C62.015 79.9086 62.5336 82.1319 63.1041 84.329C63.2079 84.826 63.3375 85.323 63.545 85.7938C64.9453 89.3773 66.8642 92.673 69.3018 95.6549C69.95 96.4657 71.0132 96.8842 71.4022 97.9305C71.5578 98.349 71.6874 98.7675 71.6615 99.186C71.5837 102.037 72.1023 104.862 71.9468 107.687C71.9468 109.309 72.3098 110.878 72.2061 112.5C72.1801 113.023 72.232 113.546 71.9727 114.043C70.3649 114.906 70.1056 116.397 70.1056 118.019C70.1056 120.242 70.0797 120.242 67.8755 120.713C63.1819 121.733 58.6699 123.381 54.2874 125.395C50.1125 127.304 47.8305 130.757 46.3783 134.942C45.2114 138.316 44.7706 141.795 44.6928 145.352C44.6409 148.413 44.6928 151.447 44.6669 154.507C44.6409 157.855 44.2779 161.203 43.9927 164.525C43.9149 165.284 43.9667 165.99 44.0705 166.722C39.1435 167.69 34.2424 168.684 29.3155 169.574C25.2183 170.306 21.1471 171.195 17.0758 172.032C15.5718 172.346 14.0418 172.66 12.5378 172.922C10.3336 173.314 8.05167 171.352 7.99981 169.129C7.97387 168.083 7.99981 167.036 7.99981 165.99C7.99981 131.123 7.99981 96.2565 7.99981 61.4158C7.99981 58.8786 9.32231 57.1 11.8117 56.603C18.502 55.2429 25.1924 53.9874 31.8827 52.6795C36.4207 51.7902 40.9846 50.8747 45.5226 49.9854C52.8353 48.5468 60.1739 47.082 67.4865 45.6695C74.9807 44.2048 82.4749 42.7662 89.9691 41.3275C96.0371 40.1505 102.105 38.9473 108.173 37.8487C109.003 37.6918 109.132 37.404 109.132 36.6978C109.107 34.6838 109.107 32.6958 109.132 30.6818C109.132 30.2633 109.003 29.7925 109.34 29.4263C109.833 29.8186 109.729 30.3679 109.729 30.8649C109.755 34.6053 109.625 38.3457 109.988 42.0861C110.273 44.7541 110.325 47.4743 110.922 50.1162C111.829 54.2751 114.5 56.6292 118.494 57.597C121.891 58.434 125.262 58.1724 128.607 57.3354C130.863 56.7861 133.119 56.1584 135.427 55.7137C137.553 55.3213 137.916 55.6875 137.398 57.7278C136.594 60.9712 135.453 64.1361 134.675 67.4057C136.205 65.287 137.942 63.273 139.706 61.3112C142.921 57.7016 146.681 54.8244 151.271 53.2027C154.175 52.1825 157.106 51.2671 160.036 50.4039C160.529 50.2208 161.021 49.9331 161.54 50.3516Z" fill="#9CDEF6"/>
<path d="M161.54 50.3516C157.599 51.4502 153.657 52.6011 149.871 54.1443C144.97 56.1584 141.366 59.8203 138.02 63.8223C136.802 65.2609 135.661 66.7779 134.312 68.4258C134.234 67.0134 134.701 65.9409 134.986 64.8424C135.687 62.2528 136.568 59.6895 137.217 57.0738C137.502 55.9491 137.32 55.7137 136.153 55.9229C132.601 56.5769 129.152 57.8324 125.573 58.277C121.398 58.774 117.379 58.4601 113.878 55.766C111.259 53.7519 110.533 50.8224 110.17 47.7359C109.47 41.6414 109.237 35.5208 109.366 29.374C109.6 25.5028 110.274 21.7101 111.752 18.1005C113.126 14.7263 115.46 12.3983 118.831 11.0905C126.559 8.05631 134.546 5.91147 142.636 4.02819C149.793 2.35417 157.054 1.09865 164.367 0.157009C173.054 -0.967726 179.718 4.21129 181.482 13.4707C182.182 17.1065 182.078 20.7423 181.767 24.378C181.456 27.883 181.274 31.4142 180.989 34.9192C180.522 40.7783 177.436 44.5971 172.042 46.7158C168.568 48.0498 165.015 49.0961 161.54 50.3516Z" fill="#00C6FC"/>
<path d="M115.07 141.063C115.07 144.646 115.563 148.177 116.133 151.708C116.185 151.996 116.289 152.284 116.393 152.572C113.566 153.356 110.662 153.801 107.784 154.324C107.576 153.696 107.939 153.147 108.043 152.572C108.821 147.759 108.38 143.155 105.891 138.865C105.813 138.735 105.761 138.552 105.657 138.578C107.291 141.193 108.198 144.071 108.354 147.183C108.484 149.616 108.276 152.022 107.602 154.376C98.0852 156.233 88.5683 158.091 79.0774 159.948C72.2834 161.282 65.4634 162.616 58.6694 163.95C53.8202 164.891 48.9451 165.833 44.07 166.775C43.0068 166.33 43.5514 165.388 43.6032 164.734C43.9144 161.072 44.3034 157.384 44.3034 153.696C44.3034 150.688 44.1997 147.68 44.3293 144.698C44.5108 140.383 45.211 136.197 47.078 132.222C48.7895 128.612 51.4864 126.232 55.0649 124.662C59.5251 122.701 64.115 121.131 68.9123 120.19C69.6125 120.059 69.7162 119.745 69.7162 119.143C69.6903 118.149 69.7421 117.155 69.8718 116.161C70.0274 114.932 70.5719 114.252 71.7907 114.147C72.1797 113.86 72.6205 113.912 73.0354 113.99C77.8587 114.697 82.7078 114.514 87.557 114.54C88.2831 114.54 89.0351 114.409 89.6575 114.932C90.954 114.854 91.3689 115.665 91.4727 116.789C91.5764 117.809 91.0059 119.091 91.732 119.771C92.3803 120.347 93.599 120.268 94.5585 120.477C99.2521 121.497 103.738 123.119 108.121 125.055C110.558 126.127 111.881 128.298 112.944 130.6C114.318 133.582 114.681 136.825 115.044 140.069C114.811 140.147 114.629 139.99 114.474 139.833C114.344 139.729 114.24 139.572 113.929 139.389C114.526 140.043 114.759 140.67 114.292 141.298C113.696 142.057 113.255 142.894 112.788 143.731C112.425 144.385 111.984 144.489 111.31 144.018C109.365 142.632 109.469 141.115 111.57 139.493C111.103 139.781 110.61 140.147 110.273 140.749C109.339 142.37 109.806 143.861 111.57 144.541C112.399 144.855 112.762 144.201 113.022 143.626C113.385 142.841 113.748 142.057 114.396 141.429C114.604 141.22 114.759 140.984 115.07 141.063Z" fill="#16DB93"/>
<path d="M107.602 154.376C107.395 153.095 107.991 151.918 108.095 150.662C108.406 146.399 107.784 142.344 105.554 138.63C105.45 138.447 105.372 138.238 105.32 138.028C105.32 138.002 105.372 137.95 105.372 137.924C107.836 140.618 109.936 148.125 107.81 154.35C107.732 154.376 107.68 154.376 107.602 154.376Z" fill="black"/>
<path d="M62.7416 84.5908C61.2894 79.5164 61.4969 74.5466 63.701 69.7076C63.7529 69.603 63.727 69.4722 63.727 69.1322C62.3267 70.6493 61.834 72.4018 61.4709 74.1543C60.5893 78.2085 60.7708 82.289 61.2635 86.3694C61.3931 87.3634 61.445 88.3835 61.3931 89.3513C61.1598 92.7516 59.8891 93.7194 56.518 93.0394C56.518 94.7395 56.544 96.4136 56.518 98.1137C56.4921 100.075 56.3365 102.037 55.5326 103.868C54.7288 105.699 53.4841 106.065 51.7726 105.045C50.2686 104.156 49.1535 102.848 48.3756 101.357C42.7225 90.7899 41.0629 79.7256 44.6155 68.1121C45.7305 64.4763 47.8051 61.3637 50.7094 58.8788C54.8843 55.2953 59.0593 55.5831 62.7934 59.6896C64.2715 61.3114 65.4385 63.1162 66.5016 65.1302C67.6686 64.1363 68.628 62.9854 69.8468 62.0961C71.9213 60.6051 74.1514 59.5327 76.6668 59.1142C77.0817 59.0357 77.5225 58.9573 77.8855 58.7742C85.8206 54.7199 93.1592 56.0539 100.083 61.2329C103.558 63.8224 106.332 67.0658 108.822 70.6231C109.392 71.434 109.34 71.9571 108.511 72.5064C107.266 73.3173 105.917 73.8927 104.491 74.2066C103.169 75.1482 101.639 74.6251 100.238 74.8343C99.2531 74.7036 98.3195 74.1281 97.2823 74.2327C93.8074 73.945 90.6438 72.5326 87.4283 71.277C84.7055 70.1785 82.1902 68.6614 79.5452 67.432C79.0525 67.3535 78.845 67.6674 78.6376 68.0336C77.0557 70.8585 74.9294 73.2649 73.0104 75.8544C71.7657 77.5285 70.5729 79.2287 69.6912 81.1381C69.5356 81.5043 69.38 81.8705 68.9392 81.9489C68.1872 81.9489 67.5389 81.5827 66.8387 81.4781C64.9458 81.1904 63.8307 81.9228 63.3899 83.8061C63.2343 84.0938 63.2861 84.5908 62.7416 84.5908Z" fill="#9F3232"/>
<path d="M100.03 74.5728C101.508 74.442 102.986 74.3113 104.438 74.1805C104.257 75.6714 104.49 77.1623 104.542 78.6271C104.594 79.5687 104.75 80.5104 104.724 81.452C104.101 81.609 103.79 81.0858 103.401 80.7981C101.197 79.2549 98.2668 79.3333 96.1922 81.0597C95.8811 81.3212 95.6217 81.609 95.5699 82.0013C95.6995 83.2568 96.7627 82.9168 97.4888 83.0737C97.8 83.1522 98.1371 82.786 98.4742 83.0476C99.9264 83.7538 101.379 83.4138 102.831 83.0999C103.427 82.9691 104.024 82.5506 104.672 82.9429C105.32 84.4077 105.113 86.0033 105.19 87.5204C105.579 95.4981 101.301 101.959 93.8843 104.784C92.7174 105.228 91.4986 105.516 90.2799 105.699C89.5019 105.83 89.3982 106.17 89.4241 106.824C89.5279 109.518 89.6056 112.186 89.7094 114.88C84.7565 114.906 79.8036 115.063 74.8766 114.619C73.8653 114.54 72.8539 114.279 71.8426 114.122C71.7648 112.003 71.687 109.884 71.6352 107.766C72.1019 107.399 72.6206 107.583 73.1392 107.661C76.8474 108.263 80.5296 108.158 84.0822 106.798C84.3934 106.667 84.7305 106.562 85.0417 106.405C85.1195 106.353 85.1714 106.301 85.1973 106.196C78.9997 105.202 74.2024 102.194 71.2462 96.4659C70.3904 94.635 70.5201 92.6471 70.2089 90.7376C70.0533 89.8483 69.9496 88.959 69.82 87.9389C68.1863 88.7236 66.6563 88.8282 65.0486 87.9912C64.115 87.4942 63.8817 86.5264 63.2334 85.8725C62.9222 85.5063 62.8444 85.0616 62.7666 84.5908C62.8444 84.4862 62.9741 84.4077 63 84.3031C63.389 81.4782 65.0226 80.4319 67.7714 81.2689C68.1863 81.3997 68.5752 81.5566 68.9901 81.6874C69.3013 81.8705 69.431 81.6613 69.5866 81.4259C71.2721 78.1301 73.4504 75.1744 75.7323 72.2972C76.8474 70.8847 77.8846 69.3677 78.7404 67.7721C78.896 67.4844 79.0515 67.1443 79.4146 67.0136C79.9851 66.9089 80.3741 67.3274 80.8149 67.5628C85.6122 70.2047 90.591 72.4541 95.9329 73.7096C96.3478 73.8143 96.7887 73.8143 97.2036 73.8666C98.6817 74.3897 100.263 74.7559 101.534 75.7237C101.093 75.2529 100.315 75.2006 100.03 74.5728Z" fill="#FEC0AA"/>
<path d="M12.9013 155.815C12.227 154.167 12.1752 152.571 11.9418 151.054C11.5269 148.439 11.6306 145.771 11.6825 143.103C11.7084 141.716 11.9159 140.33 12.7457 139.153C12.8753 138.97 12.979 138.735 13.1606 138.656C15.1054 138.002 15.2351 136.25 15.8056 134.654C17.1281 130.861 19.8768 128.246 23.2738 126.336C24.7519 125.499 26.2819 124.793 27.8118 124.113C28.4342 123.825 28.7972 123.302 29.2899 122.884C29.5233 122.701 29.7308 122.413 30.0679 122.701C30.3791 122.988 30.1457 123.224 30.016 123.485C29.1603 125.133 28.7972 126.859 28.7454 128.743C28.6676 132.143 29.1603 135.517 29.0565 138.918C28.9788 141.769 27.9415 143.861 25.2446 145.117C23.6109 145.875 21.7439 146.555 21.3549 148.753C21.2512 149.38 21.0437 150.034 21.0178 150.662C20.9141 152.755 19.5916 153.722 17.8801 154.35C16.9206 154.69 15.9612 155.004 15.261 156.05C14.872 155.239 15.3907 154.926 15.7537 154.664C16.3501 154.245 16.9984 153.853 17.6726 153.618C19.4878 152.99 20.3954 151.708 20.4992 149.825C20.6029 147.628 21.6142 146.085 23.6109 145.117C24.6223 144.646 25.7114 144.28 26.5412 143.495C28.6935 141.481 28.6935 138.813 28.4861 136.224C28.1749 132.509 27.6562 128.821 28.5379 125.107C28.5639 125.029 28.512 124.95 28.4342 124.662C26.9042 126.049 25.6595 127.592 24.5185 129.161C21.5105 133.242 19.5138 137.819 17.8542 142.606C16.6354 146.085 15.5722 149.616 14.6905 153.173C13.4199 158.274 12.5901 163.426 12.7197 168.736C12.7197 169.05 12.8753 169.416 12.3826 169.783C12.0974 168.893 12.2011 168.056 12.253 167.219C12.5641 161.936 13.2902 156.704 14.5868 151.578C16.039 145.875 17.7245 140.226 20.3176 134.89C21.9254 131.594 23.8962 128.56 26.5671 125.552C23.222 126.938 20.6029 128.717 18.5284 131.254C17.2837 132.797 16.4798 134.576 16.1427 136.537C15.9612 137.531 15.5463 138.159 14.6127 138.578C12.5382 139.519 12.3308 141.533 12.253 143.443C12.0974 147.445 12.1233 151.447 13.1346 155.344C13.1087 155.423 13.0309 155.501 12.9013 155.815Z" fill="#FCFCFC"/>
<path d="M71.4802 96.335C74.566 102.273 79.5967 105.281 86.3908 106.013C83.668 107.713 80.9452 108.21 78.1446 108.341C75.9404 108.472 73.7621 108.158 71.6098 107.792C71.4283 104.417 71.2468 101.043 71.0653 97.6689C70.9875 97.1458 70.806 96.5965 71.4802 96.335Z" fill="#2D2522"/>
<path d="M148.729 141.062C147.433 140.095 146.784 138.63 145.955 137.27C145.773 136.982 145.695 136.642 145.54 136.328C144.917 135.099 144.58 133.974 142.506 134.419C139.835 134.994 138.071 132.535 138.746 129.763C139.005 128.743 138.253 128.01 138.097 127.069C137.605 123.904 137.864 120.817 139.057 117.861C139.99 115.56 141.157 113.336 142.22 111.087C142.635 111.165 142.739 111.505 142.765 111.767C143.076 115.377 145.151 118.018 147.485 120.503C148.781 121.89 149.948 123.302 149.844 125.368C149.792 126.467 149.533 127.409 148.47 127.984C147.899 128.298 147.796 128.586 148.263 129.187C148.885 129.998 148.626 131.803 147.925 132.588C147.536 133.032 147.147 133.608 146.629 133.843C145.099 134.523 145.488 135.413 146.136 136.485C147.07 138.028 147.874 139.545 148.729 141.062Z" fill="#FCFCFB"/>
<path d="M125.21 124.898C130.085 132.719 135.92 139.493 142.091 145.98C141.988 146.059 141.91 146.163 141.806 146.242C140.484 144.882 139.135 143.574 137.891 142.187C137.061 141.272 136.127 140.775 134.934 140.513C130.993 139.65 127.725 137.636 125.392 134.314C123.291 131.332 122.487 127.984 123.162 124.322C123.369 123.172 123.602 123.119 124.562 123.747C125.21 124.166 125.962 124.375 126.688 124.663C130.915 126.52 133.508 129.868 135.064 134.105C135.453 135.151 136.438 136.014 136.257 137.532C135.22 136.642 134.986 135.491 134.545 134.524C133.067 131.254 131.434 128.115 128.218 126.153C127.337 125.656 126.455 125.133 125.21 124.898Z" fill="#FCFCFC"/>
<path d="M24.0769 166.356C25.2957 165.833 26.1255 164.996 26.5404 163.688C26.6959 163.139 27.2405 162.747 27.7851 162.642C30.1967 162.223 31.234 160.34 32.1675 158.431C33.2825 156.181 33.9568 153.801 34.2679 150.924C32.9714 152.467 32.0119 153.775 30.8968 154.952C29.1854 156.731 27.3442 158.378 25.5809 160.105C23.2471 162.354 21.7171 165.179 20.3687 168.109C20.239 168.423 20.1872 168.789 19.7463 168.946C19.8241 167.716 20.4724 166.722 21.0429 165.755C21.5097 164.944 21.4059 164.316 20.8354 163.636C20.265 162.956 19.5907 162.25 19.4092 161.334C19.1758 160.157 19.6426 159.137 20.5502 158.326C20.8873 158.038 21.4059 157.881 21.4319 157.28C21.6912 153.853 24.2584 152.781 26.9293 151.865C29.0298 151.133 31.2858 150.845 33.2047 149.616C33.7234 149.276 34.1383 148.308 34.7088 148.7C35.2274 149.04 34.9421 150.008 34.8903 150.688C34.4754 155.004 33.3085 159.032 30.1967 162.25C29.8337 162.642 29.4187 163.034 28.9001 163.06C27.5258 163.113 26.7737 163.871 26.281 165.048C25.9699 166.016 25.0623 166.252 24.0769 166.356Z" fill="#FCFCFC"/>
<path d="M71.4801 96.3348C71.0393 96.6748 71.5061 97.3287 71.0652 97.6688C69.6649 96.8841 68.7314 95.6286 67.7979 94.3992C65.853 91.7835 64.3231 88.9586 63.208 85.8721C63.6229 85.689 63.597 86.1076 63.7007 86.2645C65.4122 88.4878 67.5126 88.8802 69.9761 87.2846C70.4429 89.0633 70.4947 90.8681 70.78 92.6467C70.9615 93.8761 70.9096 95.1577 71.4801 96.3348Z" fill="#9F3232"/>
<path d="M104.673 82.9687C102.858 83.5442 101.016 83.9627 99.0975 83.8057C98.6048 83.7796 98.1121 83.8057 98.2158 83.0734C98.1899 81.7655 98.9938 80.7977 100.524 80.2746C99.668 80.5362 98.7863 80.5623 97.9306 80.8239C96.997 81.0855 96.3228 81.844 95.3634 82.0009C94.9225 81.6348 95.3893 81.504 95.5449 81.3209C97.5675 79.0714 101.198 78.7314 103.661 80.5623C104.05 80.8501 104.388 81.1639 104.751 81.4778C105.036 81.9748 105.529 82.4979 104.673 82.9687Z" fill="#2E2623"/>
<path d="M115.07 141.063C114.37 141.926 113.722 142.789 113.281 143.862C112.711 145.274 111.984 145.196 110.662 144.15C109.806 143.469 109.054 142.816 109.443 141.717C109.858 140.514 110.506 139.441 111.855 139.049C112.114 138.97 112.348 138.944 112.737 139.154C111.725 139.755 110.818 140.357 110.403 141.482C110.091 142.319 110.117 142.816 110.947 143.286C112.296 144.071 112.27 144.097 113.048 142.606C113.229 142.266 113.411 141.926 113.644 141.612C114.63 140.409 114.578 140.121 113.229 139.284C114.215 138.814 114.215 138.814 115.096 139.991C115.07 140.383 115.07 140.723 115.07 141.063Z" fill="white"/>
<path d="M148.574 29.112C148.6 30.4721 147.978 31.2045 146.941 31.2568C145.955 31.3091 145.515 30.786 145.489 29.8705C145.463 28.9812 146.759 27.5164 147.537 27.5687C148.523 27.6472 148.471 28.5104 148.574 29.112Z" fill="white"/>
<path d="M161.773 25.8954C161.799 27.2817 161.228 28.0664 160.269 28.0925C159.361 28.1187 158.739 27.7525 158.687 26.7585C158.635 25.7908 159.828 24.3783 160.71 24.4306C161.747 24.4568 161.695 25.3461 161.773 25.8954Z" fill="white"/>
<path d="M135.35 32.3033C135.35 33.6896 134.727 34.3697 133.638 34.3958C132.705 34.422 132.29 33.8988 132.238 33.0618C132.186 32.1725 133.534 30.6554 134.312 30.7339C135.324 30.8124 135.246 31.6755 135.35 32.3033Z" fill="white"/>
<path d="M93.0803 149.877C92.8469 150.427 92.9506 151.002 93.0284 151.604C93.1581 152.519 92.7172 153.252 91.9911 153.696C91.3169 154.115 90.539 154.193 89.8388 153.644C89.6314 153.487 89.398 153.382 89.1387 153.356C88.5163 153.278 88.0496 152.833 87.8681 152.362C87.3494 151.107 87.7384 149.773 87.7903 148.465C87.8162 147.549 88.7756 146.869 89.6314 146.451C90.6168 145.98 91.2651 146.32 91.291 147.366C91.3169 147.889 91.3947 148.073 91.8874 148.099C92.9765 148.229 93.0025 149.066 93.0803 149.877Z" fill="#FEFDE0"/>
<path d="M107.058 130.548C107.032 132.614 106.228 133.399 104.206 133.294C104.128 133.294 104.024 133.268 103.946 133.294C102.338 134.341 101.509 133.399 100.653 132.117C100.108 131.306 100.031 130.6 100.653 129.894C101.457 129.005 102.183 127.932 103.635 128.246C103.739 128.272 103.894 128.22 103.998 128.168C106.124 127.461 107.084 128.194 107.058 130.548Z" fill="#FEFDE0"/>
<path d="M54.7802 135.753C54.3653 136.224 54.0023 136.616 53.6393 137.061C53.3021 137.505 53.3021 137.95 53.6911 138.342C54.0542 138.735 54.5469 138.892 54.9358 138.499C55.636 137.793 55.8175 138.133 55.999 138.866C56.1805 139.519 56.777 139.833 57.3475 139.938C57.9179 140.069 58.2291 139.467 58.5144 139.049C58.8255 138.552 58.9811 138.159 59.785 138.055C60.6148 137.95 60.5111 136.904 60.2777 136.198C59.9925 135.308 59.3442 134.707 58.4106 135.23C57.8142 135.544 57.4252 135.674 56.9585 135.125C56.5954 134.707 56.2843 134.916 55.9731 135.204C55.7916 135.361 55.5841 135.674 55.3507 135.361C55.1433 135.099 55.1951 134.759 55.4285 134.524C55.8434 134.105 56.3102 133.896 56.9585 134.157C57.4512 134.367 57.9439 134.497 58.5662 134.34C59.6554 134.027 60.8223 134.864 61.1334 135.988C61.4965 137.218 60.926 138.578 59.8109 138.944C59.3701 139.101 59.2404 139.415 58.9811 139.703C57.9439 141.01 57.0363 141.115 55.8694 139.938C55.4026 139.441 54.9099 139.363 54.2875 139.31C53.3021 139.232 52.5761 138.342 52.6798 137.453C52.7576 136.302 53.5874 135.622 54.7802 135.753Z" fill="white"/>
<path d="M70.5469 147.079C70.132 147.131 69.7949 146.974 69.4578 146.739C68.3427 145.928 67.9797 144.646 67.4351 143.495C67.0202 142.606 68.3687 141.063 69.5356 140.801C70.3135 140.644 71.0396 140.566 71.7916 140.095C72.9067 139.415 75.8888 141.586 75.5776 142.867C75.3442 143.887 74.3588 144.568 73.555 145.038C72.8807 145.431 72.2843 145.797 71.7916 146.398C71.5064 146.791 71.1433 147.183 70.5469 147.079Z" fill="white"/>
<path d="M77.341 156.364C76.3556 154.455 76.7705 153.069 78.3783 152.415C78.8969 152.206 79.2599 151.944 79.4933 151.421C79.8823 150.584 80.6084 150.322 81.4382 150.532C82.268 150.741 82.7866 151.264 82.7088 152.232C82.657 152.886 82.631 153.54 83.2275 154.037C83.2793 154.089 83.3312 154.167 83.383 154.246C83.8239 155.266 83.1756 156.914 81.9568 157.882C80.0897 159.346 78.8191 159.634 77.704 158.797C77.4447 158.614 77.1854 158.379 77.341 158.065C77.5485 157.646 77.8856 157.96 78.1189 158.091C79.3637 158.928 80.3231 158.509 81.1011 157.385C81.3345 157.045 81.6975 156.914 82.0087 156.704C83.02 155.972 83.0459 154.69 82.0346 154.089C81.4382 153.723 81.4641 153.487 81.8531 153.016C82.2421 152.546 82.1902 152.049 81.8272 151.604C81.5678 151.29 81.1789 151.002 80.8158 151.159C80.2972 151.369 79.9342 151.787 79.8564 152.441C79.7526 153.33 79.7267 153.304 78.9228 153.016C78.4561 152.859 78.1189 153.2 77.8596 153.54C77.3669 154.141 77.2373 154.9 77.341 156.364Z" fill="white"/>
<path d="M92.7173 130.495C91.5504 130.966 90.7206 131.332 90.202 132.091C89.6056 132.954 89.7611 133.425 90.8243 133.582C91.317 133.66 91.2392 133.922 91.2652 134.183C91.2911 134.916 91.7579 135.36 92.3802 135.413C92.9766 135.465 93.4175 135.047 93.5731 134.419C93.7287 133.791 93.8842 133.634 94.6103 133.922C95.4142 134.236 95.7513 133.346 96.1143 132.797C96.4774 132.222 96.6589 131.594 96.1403 130.992C95.6476 130.417 95.1549 129.92 94.2732 130.181C93.8583 130.286 93.2619 131.097 93.0285 130.234C92.8988 129.737 93.7287 129.449 94.2732 129.344C95.4142 129.135 96.1403 129.815 96.7886 130.626C97.3331 131.306 97.3331 132.039 96.9441 132.823C96.4255 133.87 95.9328 134.863 94.5585 134.863C94.1436 134.863 94.0398 135.282 93.8324 135.544C93.4434 136.014 92.9507 136.197 92.3543 136.171C91.3948 136.119 89.1647 134.026 89.1907 133.111C89.2166 131.855 90.2279 130.155 92.7173 130.495Z" fill="white"/>
<path d="M66.2419 130.077C65.801 130.757 65.3343 131.385 65.1268 132.143C64.8156 133.294 65.2305 133.843 66.3975 133.713C66.9939 133.634 67.4347 133.713 67.9274 134.105C68.8091 134.837 69.5611 134.523 69.7167 133.373C69.7685 132.928 69.6907 132.379 70.2612 132.352C71.117 132.274 71.1429 131.751 70.9873 131.175C70.8058 130.469 70.2612 130.234 69.587 130.365C69.2499 130.417 68.9387 130.574 68.5757 130.705C68.2645 130.077 68.8091 128.429 67.1495 129.475C67.0976 129.501 66.8902 129.397 66.8383 129.318C66.6827 129.109 66.8124 128.848 66.942 128.743C67.6162 128.141 68.3164 128.194 68.835 128.874C69.198 129.344 69.5092 129.606 70.1056 129.554C70.9873 129.501 71.48 130.077 71.7393 130.809C72.0246 131.62 71.8431 132.509 71.2207 133.085C70.8317 133.451 70.5465 133.817 70.2612 134.262C69.613 135.334 68.472 135.544 67.5644 134.707C67.2013 134.367 66.9161 134.314 66.4493 134.34C64.7897 134.523 64.0636 133.53 64.6082 131.934C64.8675 131.149 65.2305 130.312 66.2419 130.077Z" fill="white"/>
<path d="M99.6414 142.266C99.5895 142.606 99.3043 142.763 99.045 142.92C98.4226 143.26 98.3967 143.809 98.6301 144.385C98.8894 144.96 99.3562 145.091 99.9007 144.725C100.419 144.385 100.549 144.725 100.705 145.143C100.886 145.64 101.12 146.163 101.794 146.032C102.364 145.928 102.649 145.509 102.701 144.908C102.727 144.568 102.857 144.123 103.194 144.044C104.153 143.783 104.128 143.051 103.92 142.397C103.661 141.533 102.857 141.507 102.105 141.507C101.897 141.507 101.69 141.612 101.508 141.69C101.249 141.821 100.99 141.9 100.834 141.612C100.679 141.298 100.886 141.036 101.171 140.88C101.923 140.435 103.92 140.801 104.439 141.455C105.035 142.213 104.931 143.992 104.153 144.725C103.79 145.091 103.453 145.457 103.168 145.902C102.416 147.105 101.301 147.157 100.367 146.059C100.108 145.745 99.9007 145.692 99.5117 145.666C98.4486 145.64 97.8521 144.986 97.8003 143.94C97.7225 142.972 98.5004 142.344 99.6414 142.266Z" fill="white"/>
<path d="M73.684 125.107C73.658 124.061 74.4619 122.753 73.2431 122.335C71.9466 121.89 71.5576 123.329 70.9352 124.166C70.5981 123.067 71.2464 122.021 72.4911 121.655C73.4506 121.367 74.1248 121.786 74.4619 122.91C74.6175 123.407 74.7472 123.826 75.188 124.244C76.5624 125.526 76.0697 127.279 74.2545 127.775C71.765 128.456 70.624 127.462 70.8834 124.794C71.4798 124.977 71.4279 125.552 71.5317 125.945C71.9206 127.252 73.5284 127.671 74.825 126.677C75.3177 126.311 75.188 125.814 75.0065 125.264C74.6694 124.401 74.1507 125.029 73.684 125.107Z" fill="white"/>
<path d="M59.7855 146.739C59.578 146.425 59.6818 146.242 59.7336 146.033C59.9411 145.405 59.9929 144.699 59.2928 144.463C58.7223 144.28 58.1777 144.751 57.7888 145.248C57.2961 145.902 57.3479 146.765 57.0368 147.628C56.4922 146.033 57.2961 144.228 58.6186 143.809C59.3447 143.574 60.0448 143.809 60.1745 144.516C60.356 145.405 60.9005 145.588 61.5748 145.745C62.249 145.902 62.5861 146.268 62.7158 146.974C62.8713 147.811 62.7935 148.648 63.0788 149.485C63.3381 150.27 60.7968 151.84 59.9929 151.5C59.8892 151.447 59.7596 151.343 59.7336 151.238C59.6818 151.055 59.8374 150.924 59.9929 150.846C60.3819 150.689 60.7709 150.506 61.1858 150.349C62.0156 150.087 62.7158 149.773 61.9378 148.753C61.8859 148.675 61.9119 148.492 61.9119 148.387C62.1453 146.268 61.6785 145.928 59.7855 146.739Z" fill="white"/>
<path d="M54.755 157.123C53.8214 156.992 53.225 156.547 53.4065 155.475C53.588 154.481 54.5475 153.775 55.6107 153.801C55.507 154.35 54.9105 154.35 54.6253 154.743C53.9252 155.71 53.977 156.05 55.0921 156.443C56.0256 156.757 56.1553 157.254 55.4292 157.908C54.6772 158.588 54.6512 159.111 55.6107 159.582C55.7144 159.634 55.9737 159.66 55.9737 159.712C55.9737 160.994 56.5442 161.439 57.8149 161.203C58.0223 161.177 57.9964 161.622 57.7111 161.779C57.1407 162.093 56.5442 162.171 55.9997 161.831C54.6253 161.02 54.0029 158.64 54.755 157.123Z" fill="white"/>
<path d="M45.8601 139.624C47.416 139.781 48.1162 140.644 47.805 141.847C47.6494 142.475 47.442 142.946 48.1162 143.417C48.4274 143.626 48.5829 144.097 48.3236 144.489C47.4679 145.64 48.7645 147.785 46.6122 148.308C46.2232 148.413 45.6786 148.674 45.4971 148.151C45.3415 147.733 45.8861 147.706 46.1973 147.576C47.1567 147.183 47.5716 146.634 46.7159 145.745C46.275 145.274 46.4825 145.012 46.9493 144.751C47.8569 144.228 47.6753 143.783 46.7937 143.469C46.4566 143.338 46.1454 143.286 46.4306 142.763C47.3901 141.036 47.3901 141.01 45.8601 139.624Z" fill="white"/>
<path d="M88.154 119.248C87.4539 119.928 86.7537 120.504 86.7019 121.498C86.6759 121.759 86.5722 122.021 86.8056 122.23C87.0908 122.491 87.2464 122.178 87.4798 122.073C87.8429 121.89 88.2059 121.524 88.543 122.178C89.0616 123.172 89.8396 122.805 90.5397 122.465C91.0065 122.256 91.3436 121.838 91.9141 121.785C92.1734 121.759 92.3809 121.314 92.6661 121.707C92.9513 122.073 92.6661 122.387 92.4587 122.622C91.6548 123.459 89.3469 123.773 88.2059 123.224C88.0244 123.119 87.791 123.015 87.6095 123.041C86.65 123.224 85.9499 123.119 86.0017 121.89C86.0277 120.111 86.65 119.3 88.154 119.248Z" fill="#FEFDE0"/>
<path d="M80.7119 118.62C80.7897 119.013 80.5823 119.065 80.4786 119.196C80.1933 119.51 79.7525 119.85 80.0377 120.268C80.297 120.634 80.6342 120.19 80.9194 120.007C81.2306 119.824 81.4899 119.902 81.7492 120.111C82.0863 120.373 82.4234 121.001 82.8902 120.399C83.331 119.824 83.6941 119.143 83.2014 118.359C83.0458 118.097 82.5531 117.966 82.7605 117.496C82.8643 117.26 83.0976 117.26 83.331 117.286C83.7978 117.391 83.8497 117.809 83.9793 118.176C84.2386 118.96 84.109 119.719 83.8237 120.451C83.5385 121.184 82.9161 121.628 82.19 121.367C81.5158 121.158 80.9194 121.053 80.2193 121.158C79.5969 121.262 79.182 120.791 79.2339 120.242C79.2857 119.431 79.6747 118.725 80.7119 118.62Z" fill="#FEFDE0"/>
<path d="M58.0998 149.642C58.9296 153.696 59.7853 157.777 60.6152 161.831C60.5114 161.857 60.4077 161.883 60.304 161.91C59.1371 157.908 58.4888 153.801 57.7627 149.721C57.8664 149.668 57.9701 149.668 58.0998 149.642Z" fill="black"/>
<path d="M83.5644 143.286C82.942 143.155 82.6827 142.763 82.7605 142.24C82.8383 141.717 82.9161 141.037 83.694 141.115C84.1867 141.167 84.5498 141.534 84.472 142.109C84.4201 142.711 84.1608 143.155 83.5644 143.286Z" fill="black"/>
<path d="M82.5006 125.787C83.2527 125.892 83.6416 126.127 83.5638 126.729C83.512 127.356 83.3045 127.984 82.5266 127.958C81.9301 127.932 81.8524 127.383 81.8783 126.886C81.9561 126.336 82.1376 125.918 82.5006 125.787Z" fill="black"/>
<path d="M83.1233 133.477C83.8235 133.556 84.0828 133.896 84.005 134.445C83.9272 135.047 83.7457 135.596 83.0196 135.57C82.4231 135.544 82.2935 135.021 82.3454 134.524C82.4232 134.027 82.5009 133.451 83.1233 133.477Z" fill="black"/>
<path d="M53.0951 90.2665C46.69 88.6971 44.8748 72.2446 50.476 66.1763C46.7419 74.8341 45.5231 83.0211 53.0951 90.2665Z" fill="#6C2323"/>
<path d="M79.3375 67.0395C78.0928 69.9429 76.0702 72.3231 74.1512 74.7818C72.5176 76.9267 71.0913 79.1762 69.7948 81.5303C69.4058 82.2365 69.4058 82.2365 68.9131 81.6872C70.7024 77.7637 73.5289 74.5203 76.0961 71.1461C76.9 70.0736 77.5223 68.8704 78.3003 67.798C78.5596 67.5103 78.5077 66.6471 79.3375 67.0395Z" fill="#6C2424"/>
<path d="M100.031 74.5726C100.861 74.9388 101.716 75.2788 102.287 76.5605C100.653 75.4358 99.175 74.8342 97.6191 74.4418C97.3079 74.3633 97.1783 74.2064 97.1523 73.9187C98.1896 73.7356 99.1231 74.1018 100.031 74.5726Z" fill="#372D2A"/>
<path d="M91.4735 91.9926C90.2547 92.045 90.3843 92.9866 90.2547 93.7975C90.0472 95.2622 89.5545 96.5962 88.3358 97.5117C86.6761 98.7672 84.5757 98.1918 83.4347 96.1777C82.6568 94.8176 82.579 93.2743 82.6308 91.7572C82.6308 91.4172 82.7346 91.1295 83.1235 91.1295C85.8723 91.051 88.621 90.9464 91.3179 91.7049C91.3697 91.6788 91.3957 91.8095 91.4735 91.9926Z" fill="#A03232"/>
<path d="M88.6463 83.8059C88.6463 82.4719 88.5426 81.3472 88.9316 80.2486C89.139 79.6732 89.3983 79.0193 90.0466 78.9408C90.7468 78.8623 91.1358 79.4378 91.3432 80.0132C92.0952 82.0534 92.7954 84.0937 92.8732 86.2647C92.925 87.3894 92.4842 88.331 91.2395 88.5403C90.1244 88.7234 89.3206 88.1218 88.8797 86.8139C88.5167 85.7677 88.6982 84.6691 88.6463 83.8059Z" fill="#9F3232"/>
<path d="M74.0735 81.9748C73.7104 81.7132 74.0216 81.5563 74.1513 81.3732C76.5369 78.5744 81.3602 78.7314 83.5903 81.6609C84.1608 82.3933 83.9015 82.6549 83.2273 82.9688C81.2305 83.8319 79.1301 83.9104 77.0037 83.7796C76.4592 82.9164 77.1334 82.3148 77.5223 81.7132C77.8595 81.1901 78.3262 80.7716 78.8449 80.51C77.0815 80.3008 75.6293 81.3209 74.0735 81.9748Z" fill="#2E2623"/>
<path d="M74.074 81.9747C75.6558 80.4838 77.4969 79.8822 79.9086 80.1961C78.2489 81.0069 77.2117 82.0532 77.0302 83.7534C76.1485 83.4918 75.2409 83.2041 74.3592 82.9687C73.6072 82.7856 73.7628 82.4194 74.074 81.9747Z" fill="#FCFCFB"/>
<path d="M95.3376 81.975C97.1787 80.3794 98.7605 79.8824 100.939 80.2486C99.5644 80.7979 98.6568 81.7134 98.19 83.0474C97.5677 83.5182 95.3635 83.2567 95.0523 82.6289C95.0005 82.4981 95.2339 82.1842 95.3376 81.975Z" fill="#FCFCFC"/>
<path d="M69.1202 83.3613C68.6275 83.7275 68.2644 83.9367 67.7977 83.8321C67.1234 83.649 66.5529 83.649 66.3196 84.5383C66.2158 84.9307 65.775 85.0876 65.3601 84.9568C64.9971 84.8522 64.634 84.6953 64.5044 84.2506C64.4006 83.8059 64.634 83.4921 64.9711 83.2567C66.3196 82.3935 67.668 82.7335 69.1202 83.3613Z" fill="#342B28"/>
<path d="M78.6113 75.802C80.0635 74.5726 81.775 74.1018 83.642 74.128C83.9014 74.128 84.0829 74.2849 84.1088 74.4942C84.1088 74.7034 83.9013 74.8604 83.668 74.8604C81.9046 74.7557 80.2969 75.3573 78.6113 75.802Z" fill="#3B312D"/>
<path d="M142.48 113.964C143.466 117.155 145.592 119.457 147.666 121.733C148.73 122.91 149.43 124.139 149.093 125.813C148.937 126.546 148.652 127.173 148.029 127.54C147.018 128.141 147.096 128.795 147.641 129.684C148.418 130.914 146.733 133.817 145.281 133.896C144.866 133.922 144.814 133.556 144.71 133.294C142.532 127.54 141.702 121.576 142.039 115.429C142.039 115.22 142.065 114.984 142.117 114.775C142.221 114.566 142.325 114.357 142.48 113.964Z" fill="#9CDEF6"/>
<path d="M141.236 114.566C141.521 115.664 141.573 116.685 141.391 117.731C141.106 119.51 141.495 121.288 141.651 123.041C141.962 126.31 142.74 129.528 143.855 132.614C144.011 133.085 143.985 133.294 143.492 133.503C142.351 133.974 141.158 133.739 140.173 132.797C139.213 131.855 138.954 130.809 139.602 129.632C139.887 129.135 140.225 128.769 139.421 128.429C139.11 128.298 139.032 127.88 138.954 127.54C138.124 124.27 138.565 121.105 139.758 118.019C140.225 116.842 140.743 115.717 141.236 114.566Z" fill="#9CDEF6"/>
<path d="M124.043 124.767C124.302 124.793 124.354 125.029 124.484 125.186C127.647 129.972 130.993 134.628 134.856 138.892C135.012 139.075 135.323 139.232 135.193 139.519C135.064 139.859 134.779 139.676 134.545 139.624C129.177 138.316 124.847 134.34 123.732 128.351C123.55 127.383 123.68 126.363 123.706 125.369C123.68 125.107 123.732 124.846 124.043 124.767Z" fill="#9CDEF6"/>
<path d="M21.9256 164.054C21.4847 163.401 21.1217 162.93 20.7846 162.407C19.7214 160.785 19.9548 159.477 21.5885 158.457C22.0552 158.169 22.3145 157.934 22.2627 157.384C22.1071 155.135 23.5333 153.932 25.2966 153.173C27.8639 152.075 30.6904 151.813 33.4391 150.375C32.8686 152.101 31.8314 153.147 30.8719 154.167C29.4197 155.71 27.8379 157.123 26.282 158.562C24.6224 160.157 23.1962 161.936 21.9256 164.054Z" fill="#9CDEF6"/>
<path d="M72.7511 144.306C72.2065 144.097 72.1287 144.489 71.9731 144.855C71.636 145.562 71.273 146.477 70.3654 146.216C69.5356 145.98 68.6798 145.405 69.1725 144.202C69.2503 143.992 69.1466 143.757 68.8873 143.757C67.3314 143.731 68.2131 142.789 68.4464 142.318C68.7836 141.638 69.4578 141.246 70.2098 141.115C70.9618 140.984 71.7138 140.827 72.4658 140.697C73.5031 140.487 74.0476 141.56 74.644 142.266C75.1886 142.946 74.3588 143.077 74.0736 143.417C73.6846 143.861 73.6587 144.777 72.7511 144.306Z" fill="#16DB93"/>
<path d="M85.8199 91.6792C86.8572 91.7577 87.8685 91.8623 88.9057 91.8884C89.5022 91.9146 89.7874 92.0977 89.6837 92.7516C89.6059 93.3009 89.7615 93.7979 88.828 94.0071C87.0905 94.3733 85.5606 93.7456 83.9269 93.5102C83.2008 93.4055 83.4083 92.8562 83.3305 92.4116C83.2268 91.8361 83.6157 91.7315 84.0047 91.7054C84.6011 91.6792 85.1975 91.7054 85.8199 91.7054C85.8199 91.7054 85.8199 91.7054 85.8199 91.6792Z" fill="#020A13"/>
</g>
<defs>
<clipPath id="clip0">
<rect width="174" height="173" fill="white" transform="translate(8)"/>
</clipPath>
</defs>
</svg>
