<svg width="232" height="563" viewBox="0 0 232 563" fill="none" xmlns="http://www.w3.org/2000/svg">
<path d="M36.4198 84.1338C24.4198 105.134 9.01984 154.734 43.4198 185.134C86.4197 223.134 110.42 167.134 105.42 154.134C100.42 141.134 41.4199 176.134 60.4199 223.134C79.4199 270.134 198.42 260.134 225.42 303.134C252.42 346.134 173.42 534.134 0.419922 562.134" stroke="black" stroke-dasharray="2 2"/>
<path d="M37.54 55.1268C37.1562 51.053 34.8436 48.8955 30.9741 47.471C22.2073 44.1687 13.6664 40.3133 5.04972 36.6162C4.02184 36.163 1.89974 35.964 3.7488 33.9705C4.82821 32.8534 6.15508 32.4383 7.55904 31.9434C24.2511 26.0856 85.2572 5.26431 95.5543 1.71341C96.8798 1.21984 98.5057 -0.0635736 99.6201 0.858942C100.813 1.78011 99.6659 3.52613 99.3763 4.94356C95.3239 24.866 91.1132 44.7126 87.1392 64.6337C86.7075 66.9167 85.9284 67.244 83.8754 66.4945C79.6908 64.9969 75.4318 63.736 71.2485 62.3169C67.6103 60.653 63.8247 59.5409 59.9593 58.3517C55.6339 57.7982 51.6116 56.6117 47.96 54.1633C45.984 53.334 46.4058 55.0531 46.3409 55.8389C45.8008 60.9488 45.3392 66.0572 44.7977 71.0886C44.7327 71.8744 45.0681 73.1242 43.9725 73.2999C42.5645 73.5595 42.6958 72.0663 42.447 71.2859C41.0367 66.8373 37.7117 55.987 37.54 55.1268Z" fill="#020A13"/>
<path d="M47.9608 54.2418C51.9872 55.6637 55.9351 57.0869 59.9601 58.4303C55.4246 63.9225 50.8892 69.4147 45.9695 75.3844C46.6261 67.9185 47.2935 61.0802 47.9608 54.2418Z" fill="#020A13"/>
<path d="M85.2642 65.1369C72.7131 60.801 60.4014 56.6964 48.2425 52.3538C45.7945 51.4542 44.8572 51.7057 44.7501 54.6109C44.5861 58.7726 43.9501 62.8639 43.08 67.0378C41.4169 61.5734 39.6753 56.1104 38.169 50.6434C37.6687 48.9256 36.791 48.0775 35.2099 47.3984C25.6479 43.4821 16.2414 39.4846 6.20323 35.2625C37.012 24.3758 67.2744 13.6554 98.0831 2.76875C93.7358 23.7948 89.5358 44.269 85.2642 65.1369Z" fill="#FEFEFE"/>
<path d="M42.5779 60.6117C41.242 55.9264 39.906 51.2411 38.5701 46.5559C38.32 45.697 38.8637 45.3738 39.4846 44.9708C55.6157 33.8651 71.6684 22.7608 87.801 11.7336C87.801 11.7336 87.9592 11.8094 88.3555 12.038C84.5654 15.2418 80.7754 18.4456 77.0624 21.5697C66.6959 30.2223 56.251 38.8763 45.8845 47.5289C44.4913 48.6514 43.8893 50.1527 43.7607 51.8027C43.4967 54.7106 43.3112 57.6172 43.1243 60.4453C42.8903 60.5278 42.7348 60.609 42.5779 60.6117Z" fill="#020A13"/>
</svg>
