<svg width="191" height="227" viewBox="0 0 191 227" fill="none" xmlns="http://www.w3.org/2000/svg">
<path d="M1 189.845V77.0015C1 73.8899 3.81163 71.534 6.87516 72.0787L176.875 102.301C179.262 102.725 181 104.8 181 107.224V220.067C181 223.178 178.188 225.534 175.125 224.99L5.12483 194.767C2.73844 194.343 1 192.268 1 189.845Z" fill="#020A13" stroke="black"/>
<g clip-path="url(#clip0)">
<path d="M110.556 68.7674C110.586 69.1031 110.77 69.2863 111.137 69.3473C116.762 70.3851 122.357 71.5755 127.953 72.5827C135.718 74.0173 143.454 75.5739 151.189 77.0085C157.793 78.2294 164.397 79.6029 170.971 80.8849C175.924 81.8311 180.907 82.7773 185.86 83.693C188.398 84.1508 190.018 86.0127 190.018 88.5155C190.018 130.362 190.018 172.209 190.018 214.055C190.018 217.413 187.42 219.519 183.965 218.847C176.321 217.382 168.678 215.887 161.034 214.36C160.392 214.238 159.689 214.544 159.108 214.055C159.383 212.041 159.322 210.026 159.138 207.981C158.894 205.356 158.924 202.701 158.71 200.076C158.16 193.269 157.671 186.493 154.889 180.114C150.914 170.988 144.34 164.822 134.679 162.014C130.154 160.702 125.598 159.755 120.92 159.175C119.422 158.992 118.23 158.443 117.19 157.344C115.234 155.269 113.093 153.376 111.014 151.423C110.311 150.751 109.516 150.171 109.241 149.164C108.691 144.097 108.844 139.031 108.844 133.964C108.844 133.445 108.874 132.957 109.211 132.529C110.739 132.834 111.565 131.98 112.299 130.789C114.102 127.92 115.173 124.807 116.181 121.602C116.304 121.175 116.426 120.717 116.61 120.32C116.732 120.045 116.824 119.771 116.854 119.465C117.68 115.467 118.169 111.469 117.802 107.348C117.068 99.1374 111.748 93.7959 103.493 93.1855C102.606 93.1244 101.812 92.8497 101.078 92.3614C93.9234 87.5083 85.9435 85.8906 77.3827 86.4095C73.3469 86.6536 69.4333 87.4778 65.5504 88.6681C63.7159 89.2175 63.4408 89.9501 64.4497 91.5678C64.6637 91.9035 64.9083 92.2393 65.1529 92.575C66.4676 94.3453 66.4371 94.6506 64.6026 95.9936C62.7376 97.3671 61.1783 99.0458 60.0776 101.06C59.619 101.854 59.2827 102.709 59.3132 103.655C59.3438 104.906 60.1693 105.608 61.6675 105.761C62.5235 105.852 63.4102 105.73 64.2663 105.852C65.0306 105.974 65.2141 106.28 64.6637 106.951C62.4624 109.729 62.493 110.156 65.2141 112.476C65.6421 112.995 65.7033 113.636 65.6727 114.277C65.6115 114.826 65.5198 115.345 65.5504 115.894C65.3364 119.74 64.6637 123.586 65.367 127.432C66.5288 134.116 70.1671 139.061 76.1597 142.266C76.9546 142.693 77.9024 142.937 78.2082 143.945C78.3916 146.295 78.3916 148.615 78.2082 150.934C78.0247 151.606 77.5355 152.064 77.0769 152.522C75.3342 154.231 73.622 155.971 72.0322 157.832C71.2678 158.718 70.3506 159.206 69.1582 159.42C65.0612 160.183 60.9948 161.129 57.0813 162.625C53.0455 164.151 49.8352 166.867 47.0529 170.133C42.4974 175.536 39.7762 181.823 37.8501 188.538C37.6666 189.21 37.6666 189.973 36.9634 190.4C31.7046 189.393 26.4458 188.386 21.1871 187.378C18.4659 186.859 15.7142 186.371 12.9931 185.822C10.7612 185.516 9.04905 183.441 9.01847 181.121C8.9879 178.679 9.01847 176.238 9.01847 173.796C9.01847 134.544 9.01847 95.2916 9.01847 56.0394C9.01847 52.1631 11.6173 50.1486 15.4697 50.8811C24.7948 52.7125 34.12 54.4828 43.4757 56.192C44.9127 56.4667 46.2886 57.1993 47.8479 56.833C48.7957 56.5278 49.4989 57.1993 50.2938 57.4435C58.3349 59.8242 66.3759 62.3271 74.4781 64.5858C80.379 66.234 85.4543 69.0421 89.8876 73.2237C93.0979 76.2454 96.5222 79.084 99.9771 82.0752C98.9681 78.6262 98.0815 75.2382 97.1031 71.9112C96.3387 69.2863 96.5528 69.1031 99.2433 69.4083C102.515 69.7746 105.756 69.4694 108.966 68.7674C109.486 68.6758 110.005 68.3401 110.556 68.7674Z" fill="#FFD166"/>
<path d="M36.9336 190.492C38.3706 184.601 40.5719 179.015 43.8128 173.857C48.4295 166.501 55.003 161.984 63.5333 160.305C65.5817 159.908 67.5996 159.45 69.6481 159.054C70.4736 158.901 70.9934 158.382 71.5131 157.833C73.5922 155.696 75.7018 153.56 77.7809 151.423C79.0344 151.484 79.8905 152.339 80.93 152.919C81.7861 153.376 82.6116 153.865 83.4677 154.323C85.2716 155.483 87.1366 156.49 88.9405 157.65C89.8272 158.199 90.561 158.168 91.4782 157.68C96.8287 154.842 102.363 152.4 107.774 149.683C108.325 149.408 108.875 148.89 109.609 149.317C112.574 152.217 115.51 155.208 118.567 158.016C119.821 159.145 121.655 158.779 123.245 159.054C128.809 160 134.405 160.977 139.541 163.327C148.408 167.386 153.758 174.559 156.693 183.655C158.314 188.661 158.711 193.88 159.109 199.099C159.445 203.647 159.751 208.226 159.751 212.774C159.751 213.262 160.056 213.964 159.139 214.055C145.962 211.492 132.815 208.958 119.637 206.394C106.215 203.8 92.7929 201.236 79.4013 198.672C65.7958 196.047 52.1596 193.422 38.554 190.797C38.0037 190.736 37.4534 190.614 36.9336 190.492Z" fill="#506C98"/>
<path d="M110.556 68.7675C106.122 70.1105 101.628 70.2631 96.889 69.5916C98.1731 74.2005 99.3961 78.5653 100.711 83.3268C99.2126 82.0143 98.0202 80.946 96.7972 79.9083C92.9449 76.5508 89.1231 73.1322 85.179 69.8968C81.2655 66.7225 76.3736 65.6542 71.6651 64.2196C65.2751 62.2662 58.8545 60.4043 52.4339 58.5119C50.8746 58.0541 49.2847 57.6878 47.8783 56.8637C45.0349 55.2155 44.8209 52.1937 44.3011 49.4772C43.1699 43.8 42.9558 37.9702 43.1393 32.2319C43.3533 24.6012 43.1393 17.0011 43.3533 9.37043C43.4145 7.08124 43.8731 4.85308 45.1878 2.86911C47.0222 0.0610268 49.7739 -0.274722 52.7396 0.152595C63.777 1.70925 74.6308 4.21211 85.4236 6.98967C92.0582 8.69894 98.6929 10.3166 105.358 11.9343C112.084 13.552 115.814 17.6726 116.487 24.6318C116.823 28.2029 117.129 31.7741 117.465 35.3452C117.832 39.3742 117.465 43.3727 117.313 47.3406C117.129 52.4074 116.609 57.4436 116.09 62.4798C115.631 65.7458 113.674 67.8213 110.556 68.7675Z" fill="#16DB93"/>
<path d="M109.608 149.317C104.136 151.942 98.6016 154.475 93.2206 157.283C91.0192 158.443 89.2153 158.748 87.1974 157.1C86.005 156.093 84.4152 155.635 83.2839 154.567C83.9871 153.926 84.9043 153.987 85.7298 153.834C92.4562 152.4 96.706 148.004 99.8858 142.236C99.9469 142.144 99.9163 142.052 99.7329 141.869C98.143 142.754 96.5837 143.731 94.8104 144.403C89.7045 146.295 84.5375 146.265 79.3704 144.708C78.8201 144.555 78.3003 144.342 77.9028 143.945C76.0684 142.602 73.9587 141.747 72.1854 140.252C68.4859 137.169 66.1623 133.292 65.1533 128.683C64.2055 124.441 64.7864 120.137 65.3368 115.864C65.9177 115.498 66.4069 115.894 66.8961 116.047C68.0579 116.413 69.1891 116.719 70.4121 116.535C72.1243 116.81 73.8059 116.627 75.4569 116.047C76.0989 115.833 76.5881 115.559 76.1601 114.765C74.2645 111.865 69.9535 111.408 66.8961 113.758C66.4375 114.124 66.0706 114.704 65.3674 114.643C65.3062 114.002 65.4285 113.331 65.031 112.751C65.0922 107.806 65.4591 102.892 67.9356 98.4355C69.0057 96.5126 69.2809 96.4516 71.2376 97.3367C75.7932 99.3817 80.5934 99.9922 85.5464 99.6259C89.307 99.3512 93.0065 98.7713 96.706 97.9777C98.5711 97.5809 98.8157 97.7335 99.3966 99.4733C100.742 103.502 102.546 107.257 105.297 110.584C107.101 112.781 107.896 115.315 107.866 117.604C109.303 115.162 113.186 114.063 115.601 115.467C116.855 116.2 117.558 117.237 117.252 118.733C117.191 119.069 117.069 119.435 117.313 119.771C117.344 120.015 117.283 120.229 117.069 120.412C116.335 121.358 115.998 122.518 114.898 123.22C113.43 124.136 111.901 124.532 110.281 123.83C109.15 123.342 109.15 123.83 109.15 124.685C109.119 126.974 109.18 129.233 109.67 131.461C109.761 131.858 109.914 132.255 109.608 132.621C109.272 132.957 109.364 133.384 109.364 133.781C109.364 137.871 109.333 141.961 109.456 146.051C109.425 147.089 109.608 148.218 109.608 149.317Z" fill="#FEC0AA"/>
<path d="M117.251 119.71C117.16 119.588 117.007 119.496 117.007 119.374C116.487 115.589 114.102 114.216 110.647 115.742C109.455 116.291 108.262 116.902 107.62 118.275C107.59 114.338 105.511 111.469 103.248 108.569C101.139 105.883 99.9156 102.678 98.9067 99.4122C98.6009 98.405 98.3258 97.9471 97.0416 98.2829C92.7307 99.3512 88.328 100.023 83.8641 100.145C79.1251 100.267 74.4472 99.6259 70.1974 97.2451C69.3719 96.7873 69.1884 97.0925 68.8215 97.6724C66.8036 100.816 65.917 104.326 65.6112 107.989C65.4889 109.576 65.703 111.194 64.9692 112.69C61.8506 110.919 61.7589 109.332 64.7246 106.28C63.7462 106.28 62.829 106.31 61.9423 106.28C59.3129 106.188 58.2734 104.662 59.1906 102.19C60.2607 99.2596 62.2786 97.062 64.8775 95.4137C65.9476 94.7422 65.9781 94.1928 65.2138 93.3077C64.6329 92.6057 64.0825 91.8731 63.6545 91.049C63.043 89.9196 63.471 88.9124 64.694 88.5461C74.6918 85.3718 84.6896 84.7918 94.6874 88.5461C96.3079 89.1566 97.9589 89.8281 99.3041 90.8353C101.169 92.2089 103.187 92.7583 105.45 93.1245C112.849 94.3454 117.526 99.6869 118.199 107.195C118.566 111.438 118.077 115.589 117.251 119.71Z" fill="#020A13"/>
<path d="M77.8417 143.914C80.2571 144.403 82.5807 145.288 85.0878 145.41C90.2855 145.685 95.0245 144.464 99.3355 141.534C99.7024 141.289 100.008 140.862 100.558 141.137C99.2743 147.363 91.0193 153.743 83.2534 154.536C81.266 153.773 79.5845 152.491 77.75 151.423C77.7806 148.951 77.8111 146.417 77.8417 143.914Z" fill="#2D2522"/>
<path d="M184.331 216.772C182.711 216.07 182.283 214.513 181.763 213.14C180.234 208.989 180.051 204.685 180.418 200.29C180.815 195.62 181.213 190.919 179.378 186.371C178.308 183.746 176.627 181.518 174.915 179.351C170.512 173.827 168.861 167.508 169.228 160.58C169.319 159.084 169.625 157.589 169.9 155.696C167.73 158.657 166.659 161.618 166.201 164.761C165.284 170.988 166.079 177.123 167.454 183.258C168.739 188.935 170.451 194.49 172.316 199.985C173.141 202.365 174.211 204.685 175.129 207.035C175.281 207.432 175.679 207.768 175.495 208.348C175.037 208.317 174.853 207.951 174.701 207.615C171.368 199.924 168.8 191.988 166.873 183.838C165.528 178.222 164.825 172.484 165.284 166.654C165.62 162.136 166.965 157.924 169.717 154.262C169.961 153.926 170.237 153.315 170.756 153.56C171.307 153.804 170.909 154.323 170.848 154.781C169.961 160.519 169.533 166.227 171.612 171.873C172.744 174.986 174.731 177.55 176.688 180.145C178.247 182.22 179.715 184.326 180.571 186.799C181.947 190.736 181.641 194.826 181.366 198.855C180.907 204.96 180.968 210.912 184.24 216.375C184.301 216.467 184.301 216.619 184.331 216.772Z" fill="#020A13"/>
<path d="M10.089 175.597C9.72214 172.941 10.2113 170.347 10.7005 167.783C12.2292 159.755 15.5007 152.461 20.2703 145.837C22.9608 142.113 26.11 138.817 29.6566 135.917C29.9012 135.734 30.0846 135.215 30.5127 135.643C30.8796 135.978 30.5433 136.314 30.3904 136.619C29.2591 138.481 28.2502 140.404 27.4247 142.419C25.7737 146.417 25.0399 150.538 24.9176 154.841C24.7953 158.992 24.7341 163.143 23.1443 167.081C22.013 169.858 19.9645 171.995 17.9772 174.162C15.9287 176.39 13.7885 178.588 12.6879 181.488C12.3821 182.312 12.1681 183.166 11.74 183.96C11.6789 182.8 11.7095 181.671 12.1987 180.572C13.4828 177.733 15.5618 175.505 17.6409 173.308C20.6066 170.194 23.022 166.806 23.5723 162.411C23.8169 160.519 24.0615 158.596 24.0309 156.673C23.9392 150.66 25.0705 144.921 27.7304 139.488C27.8221 139.305 27.8527 139.122 27.9444 138.909C26.324 139.366 22.4716 143.731 18.8944 149.256C16.3262 153.224 14.3083 157.497 12.8102 161.984C11.3426 166.409 10.5782 170.988 10.089 175.597Z" fill="#020A13"/>
<path d="M21.3096 183.899C21.6765 183.106 22.4102 182.739 23.0523 182.343C25.8346 180.633 28.3417 178.619 30.7265 176.391C34.1814 173.155 35.5878 168.943 36.4744 164.548C37.3917 160.03 38.0949 155.483 39.9905 151.27C40.6631 149.744 41.4275 148.249 42.1001 146.723C42.2224 146.448 42.7422 146.204 42.3753 145.807C42.0695 145.471 41.6721 145.776 41.3969 145.959C39.6542 147.089 37.8809 148.157 36.2298 149.439C33.1724 151.82 30.7876 154.872 28.7391 158.138C28.0359 159.237 27.8525 160.61 26.7518 161.831C26.9964 159.725 28.0359 158.199 28.9837 156.765C32.4692 151.423 36.9942 147.241 42.8645 144.586C43.2925 144.403 43.7817 143.823 44.2097 144.311C44.5155 144.678 43.9957 145.135 43.7817 145.502C40.2962 151.148 38.37 157.375 37.4222 163.876C36.3827 170.927 33.0501 176.391 27.2716 180.42C25.6817 181.518 24.0613 182.526 22.4102 183.563C22.1962 183.838 21.8599 184.174 21.3096 183.899Z" fill="#020A13"/>
<path d="M109.547 132.56C108.385 129.385 108.721 126.058 108.691 122.701C109.639 122.884 110.311 123.586 111.228 123.677C113.46 123.891 114.989 122.823 116.243 121.144C116.457 120.869 116.273 120.137 117.007 120.351C115.845 124.471 114.469 128.5 111.993 132.041C111.014 133.414 110.464 133.506 109.547 132.56Z" fill="#020A13"/>
<path d="M65.3055 114.612C68.577 111.377 72.6128 110.919 75.7314 113.514C76.0371 113.758 76.8932 113.91 76.3123 114.643C74.7224 113.727 73.6523 114.307 72.6434 115.711C72.1848 116.383 71.4204 116.932 70.442 116.749C68.5464 117.359 66.926 116.383 65.2444 115.833C64.6023 115.375 65.275 115.009 65.3055 114.612Z" fill="#2E2623"/>
<path d="M74.5391 166.623C75.9761 167.051 77.0462 168.058 78.1774 168.943C78.9418 169.523 79.3087 169.37 79.9507 168.79C82.4272 166.44 84.9343 164.181 87.472 161.862C89.0313 160.427 89.5511 160.458 91.2938 161.74C94.4735 164.059 97.3781 166.654 100.007 169.584C100.741 170.408 101.292 170.439 102.178 169.859C106.061 167.356 110.036 165.006 113.766 162.228C114.072 161.984 114.347 161.648 114.805 161.77C115.111 162.32 114.622 162.503 114.316 162.686C110.342 165.433 106.459 168.271 102.362 170.835C101.2 171.568 100.405 171.476 99.4877 170.408C96.8277 167.325 93.7397 164.67 90.4071 162.289C89.5816 161.709 89.0007 161.77 88.2669 162.442C85.6375 164.883 82.9164 167.264 80.287 169.737C79.4004 170.561 78.7583 170.652 77.8717 169.737C76.8321 168.668 75.4563 167.905 74.5391 166.623Z" fill="#2E2725"/>
<path d="M129.023 190.95C121.471 190.553 114.072 189.271 106.765 187.378C114.164 188.569 121.593 189.759 129.023 190.95Z" fill="#312B2B"/>
<path d="M52.9541 189.729C52.9541 185.456 54.1465 181.457 55.9198 177.611C54.8191 181.61 53.8102 185.639 52.9541 189.729Z" fill="#312B2C"/>
<path d="M134.71 203.708C134.648 199.13 134.526 194.521 135.107 189.942C135.107 194.521 135.107 199.13 135.107 203.708C134.985 203.708 134.832 203.708 134.71 203.708Z" fill="#343237"/>
<path d="M89.7348 179.016C89.8266 178.649 89.5208 177.917 90.1323 177.947C90.9578 177.978 91.1718 178.771 91.2635 179.504C91.3247 179.992 91.1718 180.481 90.5909 180.481C89.582 180.481 89.7348 179.687 89.7348 179.016Z" fill="#E29A3E"/>
<path d="M89.3986 187.928C89.5514 187.623 89.0928 186.86 89.8572 186.982C90.5604 187.104 90.805 187.837 90.8967 188.508C90.9578 189.027 90.6521 189.515 90.1629 189.485C89.2457 189.424 89.368 188.63 89.3986 187.928Z" fill="#E29A3C"/>
<path d="M77.9943 36.444C76.863 36.4135 76.2821 35.9557 76.3432 35.0705C76.4044 34.0938 77.0159 33.056 77.7802 32.9339C78.514 32.8118 79.2784 33.8191 79.2172 34.7348C79.1561 35.5284 79.0644 36.5661 77.9943 36.444Z" fill="#FDFDFC"/>
<path d="M64.3578 31.5912C64.2966 32.629 63.8991 33.4531 62.8902 33.5142C62.0341 33.5752 61.5449 32.9953 61.5449 32.0491C61.5449 31.0418 62.0953 29.9125 62.7373 29.8209C63.5323 29.7294 64.2355 30.7061 64.3578 31.5912Z" fill="#FCFCFC"/>
<path d="M94.0461 37.6346C93.9849 38.9165 93.5569 39.4354 92.5479 39.4659C91.5695 39.4964 91.1721 39.0081 91.2638 38.0619C91.3555 37.1462 91.9976 36.0169 92.5785 35.9863C93.3123 35.9863 94.1072 36.8715 94.0461 37.6346Z" fill="#FDFDFD"/>
<path d="M79.9199 127.768C81.7544 126.852 83.6806 126.882 85.515 126.516C87.3495 126.15 89.2145 125.936 91.0796 125.631C91.8745 125.478 92.486 125.6 92.7306 126.486C93.8007 130.392 89.0616 135.368 85.0564 134.574C83.0997 134.177 81.5709 132.254 81.4486 129.69C81.4486 128.531 81.2958 127.829 79.9199 127.768Z" fill="#A03232"/>
<path d="M94.9326 116.749C92.9453 117.359 91.2637 116.444 89.5209 115.742C89.0929 115.589 89.2152 115.314 89.3986 115.009C90.805 112.873 92.8535 111.804 95.3301 111.865C97.7149 111.896 99.9774 112.537 101.139 114.979C99.3659 113.849 98.0206 114.399 96.8282 115.986C96.4002 116.627 95.6969 116.902 94.9326 116.749Z" fill="#2E2623"/>
<path d="M83.7119 119.71C83.6814 122.549 82.703 123.708 80.7156 123.464C80.6545 123.464 80.6239 123.434 80.5628 123.434C79.5844 123.281 79.0646 122.701 78.8812 121.755C78.606 120.503 79.2481 118.001 80.043 117.543C80.8991 117.085 81.8163 117.024 82.6724 117.512C83.5896 118.001 83.7731 118.916 83.7119 119.71Z" fill="#A03232"/>
<path d="M93.2198 105.425C95.0237 105.608 96.7664 105.853 98.4175 106.616C98.9066 106.829 99.6099 106.951 99.3347 107.745C99.1207 108.386 98.4786 108.233 98.02 108.111C96.0021 107.592 93.923 107.348 91.844 107.257C91.3242 107.226 90.7739 107.257 90.6822 106.555C90.5599 105.761 91.2019 105.639 91.7217 105.517C92.2414 105.425 92.7306 105.456 93.2198 105.425Z" fill="#312825"/>
<path d="M73.9885 105.669C74.386 105.7 74.7223 105.7 75.0892 105.73C75.5784 105.792 75.9759 105.975 75.9759 106.555C76.0064 107.165 75.5478 107.379 75.0892 107.409C73.2548 107.47 71.4509 107.562 69.6776 108.111C69.2189 108.233 68.852 107.959 68.7298 107.531C68.5769 106.982 68.9132 106.677 69.3718 106.494C70.87 106.005 72.4292 105.761 73.9885 105.669Z" fill="#322926"/>
<path d="M70.4727 116.749C71.6345 116.23 72.7963 115.589 73.3772 114.46C74.0499 113.086 74.7836 113.483 75.6397 114.094C75.8843 114.277 76.0983 114.46 76.3429 114.674C77.0461 115.345 77.2907 115.833 76.0372 116.23C74.2027 116.78 72.3988 117.39 70.4727 116.749Z" fill="#FDFCFC"/>
<path d="M94.9326 116.749C96.0944 116.322 97.1951 115.681 97.7455 114.613C98.5098 113.147 99.2436 113.544 100.161 114.246C100.467 114.49 100.803 114.735 101.109 114.979C101.262 115.315 101.445 115.681 100.956 115.864C99.0296 116.658 97.1034 117.482 94.9326 116.749Z" fill="#FCFCFB"/>
<path d="M110.494 117.818C111.839 116.993 113.001 116.688 114.285 117.207C114.836 117.421 115.294 117.757 115.264 118.398C115.233 118.916 114.897 119.344 114.377 119.496C113.704 119.71 113.276 119.374 113.062 118.825C112.573 117.726 111.534 118.001 110.494 117.818Z" fill="#312825"/>
<path d="M84.4763 129.843C84.1705 129.843 83.7425 129.843 83.345 129.843C82.7335 129.874 82.2749 129.813 82.2443 128.989C82.2138 128.164 82.3972 127.798 83.2533 127.676C85.6992 127.34 88.1758 126.913 90.6217 126.577C91.0803 126.516 91.8447 125.997 91.8753 127.005C91.9058 127.737 92.3033 128.653 91.0192 128.928C88.879 129.385 86.7693 129.752 84.4763 129.843Z" fill="#FDFDFC"/>
</g>
<defs>
<clipPath id="clip0">
<rect width="181" height="219" fill="white" transform="translate(9.01855)"/>
</clipPath>
</defs>
</svg>
