<svg width="58" height="50" viewBox="0 0 58 50" fill="none" xmlns="http://www.w3.org/2000/svg">
<g clip-path="url(#clip0)">
<path d="M24.6233 20.8669C25.7682 20.8624 26.9021 20.6997 28.0417 20.6233C29.6761 20.5137 31.3104 20.3956 32.9521 20.4336C33.9605 20.457 34.9675 20.3653 35.981 20.4182C38.3447 20.5417 40.71 20.6007 43.0681 20.845C44.9608 21.0412 46.8555 21.2133 48.7429 21.4602C50.416 21.6791 52.0605 22.0432 53.7109 22.379C53.9422 22.4261 54.1707 22.4986 54.3342 22.6797C54.2524 22.8902 54.047 22.6363 53.9711 22.8198C54.0942 22.9609 54.5115 22.8417 54.3944 23.1235C54.2987 23.354 54.0343 23.5505 53.679 23.5381C53.1854 23.5206 52.7513 23.2937 52.2726 23.2295C50.1498 22.9446 48.0362 22.5969 45.8958 22.4367C44.5792 22.3383 43.2624 22.1844 41.9447 22.2085C41.2142 22.2218 40.5056 22.0118 39.7782 22.1039C39.5995 22.1265 39.4162 22.038 39.2488 22.2227C39.1867 22.2912 38.9095 22.4225 38.8682 22.0922C38.8597 22.0226 38.7322 22.0538 38.653 22.053C37.7957 22.0488 36.9255 21.942 36.085 22.058C35.2667 22.171 34.4543 22.1059 33.6411 22.174C33.0664 22.2221 32.4903 21.9862 31.895 22.0763C31.6492 22.1135 31.3949 22.0923 31.1594 22.1974L30.8801 22.1895C30.2455 22.1295 29.6147 22.1353 28.9933 22.3045C28.3319 22.2373 27.6635 22.2886 27.0193 22.4558C26.3122 22.458 25.6091 22.434 24.927 22.7164C24.6436 22.8336 24.304 22.8081 23.9933 22.8637C22.9343 23.0536 21.8773 23.2549 20.8178 23.4416C20.6218 23.4761 20.4167 23.5804 20.2174 23.442C19.6595 23.4178 19.132 23.5557 18.6148 23.7486C18.0984 23.9637 17.5378 23.975 16.9997 24.0794C16.3058 24.2139 15.6332 24.3419 14.9899 24.6782C14.4606 24.9549 13.828 24.9686 13.2516 25.162C11.9917 25.5847 10.6868 25.9452 9.54171 26.5926C8.29648 27.2966 6.89813 27.6505 5.70829 28.4512C5.40484 28.6554 5.1585 28.936 4.79988 29.0714C4.43474 29.2093 3.83458 29.0678 3.59353 28.6624C3.39623 28.3309 3.41659 27.9663 3.7214 27.6584C4.24346 27.1307 4.83527 26.6901 5.45179 26.2879C8.10445 24.5571 11.0035 23.3691 14.0065 22.4247C16.9385 21.5111 19.938 20.834 22.9763 20.4001C24.524 20.1745 26.0826 20.0739 27.6394 19.9414C29.2413 19.805 30.8422 19.6909 32.4486 19.6874C33.8788 19.6843 35.3086 19.7371 36.738 19.7835C38.4121 19.8378 40.0838 19.9146 41.7484 20.0631C45.7409 20.4192 49.7261 20.8483 53.617 21.8729C53.8794 21.942 54.2098 21.8574 54.405 22.1812C54.1214 22.3477 53.8425 22.2792 53.569 22.2106C51.5662 21.7081 49.5359 21.3709 47.4913 21.0769C44.4777 20.6432 41.4418 20.5028 38.4129 20.2746C36.9481 20.1643 35.4712 20.2202 34.0007 20.1722C32.0718 20.1093 30.1463 20.2084 28.2231 20.3172C27.0729 20.3822 25.9184 20.4854 24.7851 20.7315C24.7028 20.7495 24.6321 20.7769 24.6275 20.8776C24.4178 20.7204 24.1945 20.8306 23.9818 20.8572C22.326 21.0637 20.6834 21.3519 19.0454 21.6726C18.0174 21.8738 17.0059 22.1469 15.9833 22.3708C14.9071 22.6065 13.8567 22.9824 12.8188 23.3628C12.5249 23.4706 12.1052 23.4196 11.944 23.8148C11.4504 23.7013 11.1166 24.0315 10.7438 24.253C11.1573 24.1445 11.5738 24.0429 11.9383 23.8016C12.0477 23.7907 12.1561 23.771 12.2624 23.7425C15.293 22.6753 18.3981 21.907 21.5619 21.3726C22.5817 21.1998 23.6028 21.0351 24.6233 20.8669ZM6.95033 25.9971C6.671 26.0945 6.3811 26.1817 6.20145 26.4435C6.47132 26.3294 6.76961 26.2683 6.95033 25.9971Z" fill="#23A256"/>
</g>
<defs>
<clipPath id="clip0">
<rect width="47.7195" height="35.953" fill="white" transform="translate(11.9268 0.935059) rotate(18.1907)"/>
</clipPath>
</defs>
</svg>
