<svg width="53" height="6" viewBox="0 0 53 6" fill="none" xmlns="http://www.w3.org/2000/svg">
<path d="M51.7905 3.29666C50.7665 3.24664 49.7712 2.99377 48.7585 2.86492C46.6052 2.59111 44.4551 2.73218 42.2982 2.83148C39.2801 2.97042 36.4857 4.02806 33.6271 4.82013C30.886 5.57969 28.1165 6.03885 25.2627 5.92519C23.8867 5.86011 22.5314 5.56553 21.2525 5.05365C19.866 4.51501 18.4922 3.9433 17.1526 3.29685C15.4624 2.48125 13.6615 2.15075 11.8128 2.06247C10.2938 1.98187 8.77131 1.99561 7.25401 2.1036C6.07262 2.1941 4.96737 2.56952 3.91075 3.10306C3.21486 3.45255 2.47142 3.69795 1.70422 3.83141C1.53117 3.86487 1.35281 3.85914 1.18226 3.81464C1.03016 3.77351 0.770801 3.7699 1.0485 3.52166C1.09426 3.48071 1.01571 3.43292 1.01395 3.39133C1.00469 3.17198 1.10658 3.02276 1.33343 3.01729C2.1255 2.99812 2.82309 2.66882 3.50901 2.33322C4.34138 1.92566 5.14308 1.44862 6.03269 1.17416C6.9324 0.896271 7.83405 0.636911 8.79934 0.651731C9.46281 0.647902 10.1252 0.597542 10.7816 0.501023C11.1992 0.448503 11.6091 0.533444 12.0136 0.556601C12.2834 0.572255 12.5138 0.464621 12.7679 0.487223C13.0921 0.516123 13.4192 0.517325 13.7449 0.534091C14.6501 0.580406 15.5318 0.765665 16.4157 0.956296C17.9896 1.29523 19.3755 2.12416 20.885 2.63177C22.0182 3.01294 23.128 3.47969 24.2938 3.74063C24.9743 3.89301 25.6966 3.90097 26.4002 3.90199C29.3846 3.90644 32.2551 3.25072 35.0764 2.33915C36.0212 2.03348 36.9702 1.72836 37.9267 1.47669C38.7055 1.26422 39.4959 1.09665 40.294 0.974824C41.2908 0.831805 42.2872 0.699066 43.2886 0.640525C45.9064 0.487502 48.5081 0.589392 51.0547 1.30152C51.208 1.35935 51.365 1.4068 51.5246 1.44353C52.2194 1.53829 52.5014 2.06099 52.7559 2.61158C52.8542 2.82462 52.5614 3.2798 52.3205 3.29481C52.1443 3.30592 51.9671 3.29722 51.7905 3.29666ZM47.4441 2.26246C48.9481 2.36009 50.4146 2.73755 51.9139 2.87131C50.3141 2.45374 48.0285 2.14806 47.4441 2.26246ZM46.7664 0.752605L46.768 0.710831L44.0198 0.710831L44.0198 0.752605L46.7664 0.752605Z" fill="#23A256"/>
</svg>
