<svg width="39" height="26" viewBox="0 0 39 26" fill="none" xmlns="http://www.w3.org/2000/svg">
<path d="M27.0663 12.6056C26.9444 13.5768 26.4895 13.54 25.609 13.3654C23.7146 12.9904 21.7722 12.8087 19.8406 12.6845C17.2098 12.5158 14.5699 12.4925 11.9357 12.3716C10.2747 12.2956 8.6793 12.8509 7.05089 12.8701C5.60331 12.8872 4.37434 13.4528 3.08412 13.9114C2.87965 13.9841 2.71095 14.1601 2.50585 14.2274C2.16571 14.339 2.11782 15.2313 1.43465 14.5148C0.844682 13.8959 0.578094 13.3915 1.15075 12.6801C1.98912 11.6389 3.20859 11.2999 4.4158 10.9609C7.81392 10.007 11.3124 9.87967 14.805 9.79279C18.4813 9.70887 22.1567 9.9928 25.7764 10.6403C27.2681 10.904 28.8058 11.0905 30.2115 11.8066C29.2644 12.0451 28.3671 11.6541 27.4546 11.5478C26.4384 11.4293 25.4322 11.2186 24.4246 11.0325C24.1195 10.9762 23.8395 10.9261 23.6484 11.2438C23.5371 11.1419 23.4425 10.985 23.3183 10.9571C21.1037 10.452 18.8552 10.325 16.5924 10.4062C16.3984 10.4132 16.4341 10.6132 16.397 10.7369C16.293 10.5225 16.1554 10.3478 15.9021 10.3481C14.2645 10.3515 12.62 10.2368 10.9968 10.6111C12.7938 10.8282 14.6052 10.3736 16.3967 10.7242C18.8327 10.6075 21.2404 10.8871 23.6431 11.2381C24.2855 11.3149 24.929 11.3839 25.5701 11.471C26.1222 11.546 26.0561 11.5723 26.2202 12.1962C26.2909 12.4649 26.7225 12.5829 27.0644 12.6091L27.0663 12.6056Z" fill="#23A256"/>
<path d="M27.0649 12.6092C27.2117 12.8365 27.4429 12.8989 27.5992 12.7004C27.7357 12.5265 27.5696 12.3752 27.3661 12.3157C27.1676 12.2578 26.9102 12.2753 26.8864 11.8258C27.8522 11.7744 28.785 12.0543 29.5718 12.4581C30.1868 12.7737 31.1813 12.3432 31.4882 13.4072C31.5443 13.6017 32.1105 12.8855 32.6473 13.1601C33.2915 13.4895 34.0482 13.6052 34.6786 13.9538C35.7342 14.5372 36.955 14.6911 37.9879 15.3262C38.2772 15.5042 38.6092 15.5735 38.5861 15.9914C38.5727 16.2361 38.4146 16.3845 38.1916 16.4676C38.2964 15.666 37.1597 17.073 37.3735 16.0009C37.4661 15.5385 37.0731 15.8055 36.9429 15.8448C36.3205 16.0318 35.8222 15.3037 35.1502 15.6351C35.0194 15.6996 34.7337 15.2442 34.9335 14.9257C35.2598 14.4049 34.7987 14.3328 34.5238 14.2923C34.0246 14.2187 34.3508 14.5864 34.2965 14.7792C34.0747 15.5658 33.4192 15.1669 33.0907 15.0178C32.3896 14.6995 31.8006 14.2677 30.9295 14.5033C30.3666 14.6557 30.7617 13.8798 30.3185 13.6593C29.9828 13.976 29.5036 14.1311 28.924 14.0931C28.8718 13.7548 29.4774 13.6998 29.2362 13.2426C28.5496 13.0742 27.4388 13.9854 27.066 12.6058C27.066 12.6055 27.0649 12.6092 27.0649 12.6092Z" fill="#23A256"/>
</svg>
