<svg width="40" height="33" viewBox="0 0 40 33" fill="none" xmlns="http://www.w3.org/2000/svg">
<path d="M19.8173 12.4194L19.798 12.5667C19.8758 12.5558 19.9491 12.5234 20.0094 12.4731C20.0698 12.4228 20.1149 12.3566 20.1396 12.282L20.2113 12.4061C20.2392 12.4081 20.2783 12.4227 20.2917 12.41C20.4035 12.3023 20.5544 12.2943 20.6858 12.2952C20.84 12.2961 20.9958 12.3759 21.1291 12.2346C21.1384 12.2247 21.1583 12.2118 21.166 12.2156C21.4749 12.3586 21.8026 12.1945 22.1152 12.2759C22.2181 12.3028 22.1309 12.3627 22.1514 12.4326C22.4464 12.292 22.725 12.0816 23.1229 12.1987L23.2076 12.3123C23.2476 12.3381 23.2591 12.3275 23.2665 12.286C23.2683 12.2606 23.2758 12.2359 23.2885 12.2137C23.3011 12.1916 23.3185 12.1726 23.3394 12.158C23.3603 12.1435 23.3843 12.1338 23.4094 12.1297C23.4345 12.1256 23.4603 12.1272 23.4848 12.1344C23.8011 12.212 24.1135 12.1337 24.425 12.119C24.9994 12.0921 25.5713 12.1294 26.1441 12.1301C26.7208 12.131 27.2944 12.1533 27.8692 12.1949C28.6271 12.2496 29.3853 12.2874 30.1428 12.3607C30.633 12.4081 31.1283 12.4553 31.6243 12.4732C32.0969 12.4904 32.5662 12.5911 33.0382 12.6388C33.5926 12.6951 34.1383 12.8119 34.6979 12.84C34.977 12.8541 35.2493 12.9672 35.5368 12.9967C36.6035 13.1061 37.6252 13.4272 38.6565 13.7011C38.8428 13.7506 39.0342 13.7914 39.161 14.0162C38.911 14.0634 38.6895 14.0988 38.4587 14.0345C38.1205 13.9402 37.7807 13.8515 37.4416 13.7603C37.2716 13.7146 37.1034 13.6378 36.9326 13.6322C36.7618 13.6266 36.609 13.5578 36.4406 13.5495C36.2741 13.5415 36.1122 13.489 35.9416 13.4724C35.6468 13.4437 35.3551 13.3579 35.0615 13.2996C34.6866 13.2253 34.307 13.2406 33.9335 13.1657C33.5516 13.0889 33.1588 13.0691 32.7719 13.0172C32.6472 13.0004 32.5345 12.9337 32.3999 13.0198C32.3474 13.0533 32.2339 13.0072 32.1541 12.9794C31.8698 12.8807 31.5738 12.8939 31.2809 12.8757C30.979 12.8571 30.6767 12.8435 30.3748 12.8243C29.5088 12.7692 28.6414 12.7287 27.7774 12.6501C27.2289 12.6004 26.679 12.6629 26.1329 12.5908C25.9506 12.6864 25.7902 12.5025 25.5956 12.559C25.4378 12.6127 25.2683 12.6218 25.1055 12.5855C24.9757 12.5375 24.8378 12.5151 24.6996 12.5193C24.5522 12.54 24.4038 12.5525 24.2551 12.5568C24.104 12.564 23.9527 12.5557 23.8033 12.5322C23.649 12.5029 23.4995 12.5553 23.3552 12.5347C23.2731 12.523 23.1826 12.6213 23.1217 12.5272C23.0645 12.4389 23.0095 12.4523 22.9469 12.5035C22.8275 12.6018 22.6831 12.5674 22.5507 12.586C22.494 12.5393 22.5008 12.4448 22.4032 12.4159C22.2543 12.6633 21.9489 12.5495 21.7446 12.6894C21.5734 12.4832 21.3931 12.7146 21.2185 12.6775C21.038 12.6394 20.8771 12.7555 20.6934 12.7338C20.3954 12.6986 20.0998 12.7688 19.8031 12.7937C19.5198 12.8215 19.2352 12.8346 18.9505 12.8329C18.8314 12.8305 18.7955 12.8679 18.7734 12.9954C18.5082 12.7913 18.1877 13.1689 17.9181 12.879C17.8943 12.924 17.8777 13.0003 17.8473 13.0062C17.5687 13.0603 17.2984 13.16 17.0085 13.1548C16.7753 13.1503 16.5357 13.1652 16.3346 13.2865C16.2476 13.3304 16.1486 13.3446 16.0528 13.3266C15.5844 13.2891 15.1697 13.4848 14.737 13.5945C14.3945 13.6813 14.0476 13.7402 13.7024 13.8107C13.2768 13.8976 12.8456 13.9562 12.4312 14.1029C12.1777 14.1926 11.9 14.211 11.6397 14.2855C11.4546 14.3384 11.2455 14.3378 11.093 14.4786C10.9791 14.5838 10.82 14.4959 10.69 14.5889C10.6426 14.6228 10.478 14.5854 10.4282 14.6662C10.3658 14.7677 10.2029 14.58 10.2011 14.766C10.0076 14.8093 9.81289 14.8927 9.62067 14.8871C9.29979 14.8777 9.04441 15.0579 8.75278 15.1286C8.28417 15.2424 7.87304 15.5374 7.38365 15.604C7.24578 15.7845 6.93795 15.6574 6.83136 15.9154C6.80599 15.9769 6.6841 15.9141 6.59575 15.949C6.12575 16.1367 5.6334 16.2753 5.20994 16.5624C5.11764 16.6253 4.94806 16.5385 4.92535 16.7163C4.7582 16.6444 4.65945 16.7865 4.53608 16.8452C4.41757 16.9013 4.30865 17.0271 4.19284 17.0302C3.90398 17.0376 3.81123 17.3284 3.57374 17.4034C3.37532 17.466 3.2303 17.6653 2.98972 17.6373C2.96759 17.6378 2.94596 17.6439 2.92679 17.655C2.90762 17.666 2.89153 17.6817 2.87998 17.7006C2.81216 17.909 2.61465 17.963 2.45466 18.0356C2.1745 18.1625 2.0131 18.4379 1.7381 18.5665C1.7052 18.5818 1.70832 18.6743 1.68633 18.7659C1.94162 18.6266 2.21558 18.5647 2.38344 18.3124C2.44243 18.2499 2.51397 18.2007 2.59336 18.1678C3.03581 17.9106 3.485 17.6646 3.91992 17.3954C4.11662 17.2737 4.35819 17.2992 4.54703 17.1484C4.71645 17.0131 4.91298 16.8604 5.11498 16.831C5.33836 16.7979 5.49185 16.6213 5.69853 16.6132C5.92255 16.6043 6.05015 16.4224 6.23965 16.3693C6.64607 16.2554 7.00698 16.0222 7.40672 15.909C7.73783 15.8151 8.05355 15.6769 8.38728 15.6018C8.46484 15.5844 8.42598 15.4326 8.55518 15.5027C8.63241 15.5444 8.70723 15.4415 8.78233 15.4032C8.85116 15.3681 8.92264 15.453 8.98527 15.3898C9.0562 15.3184 9.15632 15.3784 9.22315 15.3472C9.41384 15.258 9.60372 15.1771 9.80347 15.1056C10.1928 14.9662 10.5929 14.8715 10.9855 14.7492C11.1902 14.8516 11.2921 14.5706 11.5038 14.6204C11.6601 14.6572 11.8181 14.5334 11.9745 14.4868C12.4949 14.3319 13.0243 14.2018 13.557 14.0959C13.9308 14.0216 14.3095 13.9915 14.6705 13.8433C14.8241 13.7802 15.0191 13.7811 15.1889 13.7696C15.6805 13.7364 16.1485 13.5961 16.6258 13.5039C16.8549 13.4597 17.0846 13.4645 17.3122 13.435C17.6873 13.3865 18.0487 13.2606 18.4368 13.2717C18.6905 13.2787 18.9418 13.124 19.2067 13.2305C19.3688 13.0198 19.6079 13.1935 19.807 13.1106C20.0015 13.0296 20.2337 13.0897 20.4495 13.0389C20.6492 13.0022 20.852 12.9852 21.0551 12.9882C21.2585 12.9815 21.4624 12.9904 21.6664 12.9926L21.7689 13.17C21.84 13.0868 21.8761 12.9718 21.985 12.9548C22.062 12.9473 22.0722 13.0229 22.1192 13.0493C22.1463 13.049 22.1732 13.0441 22.1986 13.0346C22.4521 12.8926 22.7446 12.8359 23.0329 12.8728C23.5156 12.9202 23.9867 12.836 24.4633 12.8334C25.0224 12.8302 25.5821 12.8492 26.1394 12.8339C26.7969 12.8159 27.4493 12.8968 28.1061 12.8805C28.5591 12.869 29.0139 12.9325 29.4675 12.9679C30.0465 13.0132 30.6243 13.085 31.2038 13.1059C31.6761 13.123 32.1399 13.2035 32.6089 13.2418C33.0838 13.2707 33.5568 13.3254 34.0258 13.4055C34.4357 13.4841 34.8564 13.5032 35.2719 13.5548C35.7296 13.6118 36.1826 13.7013 36.6416 13.7544C36.9535 13.7889 37.2627 13.8453 37.5669 13.9231C38.0905 14.0604 38.6133 14.2009 39.1353 14.3447C39.2014 14.3627 39.2842 14.3564 39.3203 14.453C39.2851 14.6064 39.1504 14.6109 39.0123 14.5829C39.0672 14.7903 39.2661 14.6998 39.3371 14.827C39.3681 14.8973 39.3068 14.9595 39.3038 15.0308C39.1894 14.9311 39.1767 15.1341 39.0962 15.1016C39.01 15.0667 38.931 15.1757 38.85 15.1023C38.7648 15.1635 38.9042 15.2258 38.8171 15.3215C38.5997 15.2918 38.3532 15.2644 38.1089 15.2228C37.9425 15.1942 37.7865 15.1341 37.6081 15.1475C37.4612 15.1585 37.312 15.0142 37.1561 15.1501C37.1277 15.1749 37.0895 15.1141 37.0573 15.0984C36.8334 14.9894 36.488 14.9681 36.1659 15.0141C35.9891 15.0304 35.8109 15.0245 35.6354 14.9965C35.3306 14.962 35.0281 14.9016 34.7191 14.8895C34.6638 14.8811 34.6115 14.859 34.567 14.8251C34.462 14.7549 34.3422 14.7098 34.2171 14.6933C34.0919 14.6769 33.9647 14.6895 33.8453 14.7301C33.7119 14.7731 33.6494 14.7444 33.4356 14.6809C33.3279 14.6567 33.2183 14.6423 33.108 14.6378C32.6675 14.5923 32.2238 14.5977 31.7865 14.5448C31.5218 14.5127 31.2653 14.6812 31.0074 14.5452C30.8578 14.6874 30.7083 14.5548 30.5576 14.5494C30.1894 14.536 29.8158 14.4457 29.4548 14.5415C29.3257 14.5757 29.2836 14.3446 29.1674 14.4916C28.8131 14.4515 28.4576 14.5214 28.1059 14.4876C27.971 14.4746 27.8182 14.3923 27.6978 14.438C27.4688 14.5246 27.2269 14.319 27.0149 14.4937C26.8006 14.3365 26.5862 14.4558 26.3656 14.4753C26.1953 14.4906 26.0333 14.3908 25.8367 14.4715C25.6715 14.5392 25.4624 14.5048 25.2728 14.5065C25.0832 14.5082 24.891 14.4473 24.7013 14.5143C24.5575 14.343 24.3696 14.4488 24.2091 14.4555C24.0364 14.4626 23.8486 14.4232 23.6872 14.5135C23.5616 14.5838 23.4569 14.3433 23.3204 14.5119C23.2361 14.6161 23.0838 14.5424 22.9632 14.5577C22.8471 14.5723 22.7157 14.6372 22.6188 14.4853C22.5912 14.4422 22.49 14.435 22.4216 14.4313C22.1499 14.4174 21.8708 14.572 21.6063 14.3929C21.472 14.492 21.2916 14.4172 21.1708 14.4744C20.7784 14.6599 20.3623 14.5964 19.9611 14.6183C19.664 14.6344 19.3717 14.7907 19.0676 14.6713C18.8898 14.8237 18.6596 14.7066 18.47 14.7856C18.2483 14.8778 18.0061 14.7906 17.7864 14.8745C17.5667 14.9584 17.3293 14.9254 17.1044 14.9767C17.0667 14.9852 17.0203 14.9567 16.958 14.9399C16.6766 15.2321 16.2139 15.0193 15.848 15.3026C16.0377 15.2915 16.167 15.2839 16.3665 15.2718C16.0261 15.4936 15.6792 15.426 15.3747 15.5288C15.0745 15.6303 14.7381 15.6395 14.4191 15.6997C14.1001 15.7598 13.7703 15.7787 13.4622 15.8717C13.1476 15.967 12.8207 15.9908 12.5072 16.0886C12.1972 16.1853 11.8737 16.2389 11.5395 16.3151L11.4269 16.1524C11.1487 16.1059 10.9413 16.3383 10.6751 16.3441C10.6366 16.3449 10.5951 16.4087 10.5617 16.4032C10.2575 16.3529 10.0122 16.5613 9.72604 16.5851C9.4305 16.6098 9.19575 16.8157 8.90376 16.8591C8.56447 16.9095 8.25752 17.0788 7.9192 17.1415C7.74392 17.1739 7.6131 17.3519 7.41016 17.313C7.21101 17.4893 6.94623 17.5182 6.71074 17.6046C6.49547 17.6685 6.28838 17.7572 6.09363 17.8689C5.84291 17.7697 5.71304 18.1244 5.45917 18.0383C5.42259 18.0259 5.35749 18.0874 5.3096 18.1207C5.00262 18.3308 4.64123 18.4107 4.3023 18.5443C4.20383 18.5833 4.18727 18.7178 4.06833 18.7362C3.59577 18.8094 3.25366 19.1496 2.83939 19.3408C2.67339 19.4181 2.53794 19.5485 2.45449 19.7116L2.5334 19.7411C2.60054 19.9805 2.46213 20.1221 2.2654 20.1716C2.10195 20.2127 2.02256 20.0528 1.96187 19.9112C1.7947 19.9192 1.61191 19.9529 1.55019 19.7319C1.51529 19.6068 1.40488 19.5678 1.3128 19.5045C1.3106 19.3811 1.34808 19.2386 1.29817 19.1405C1.18686 18.9218 1.27656 18.737 1.37427 18.5757C1.48834 18.4063 1.62458 18.253 1.77936 18.1198C2.19606 17.7273 2.71473 17.5048 3.19252 17.2151C3.66769 16.9268 4.15527 16.6601 4.63384 16.3778C4.8053 16.2767 5.01336 16.3012 5.18491 16.1747C5.33708 16.0621 5.4941 15.9027 5.72334 15.9541C5.96931 15.7444 6.3117 15.7567 6.5749 15.5714C6.90925 15.336 7.31244 15.2423 7.69873 15.1224C7.77782 15.0856 7.86031 15.0566 7.94502 15.0358C8.04543 15.0275 8.13991 14.985 8.2128 14.9155C8.35369 14.7958 8.53481 14.8308 8.6915 14.767C8.85163 14.7017 9.03363 14.6698 9.15521 14.576C9.24887 14.6067 9.24647 14.6989 9.35576 14.6723C9.42113 14.4656 9.61544 14.4319 9.82901 14.3874C10.2469 14.2996 10.6549 14.1701 11.0469 14.0007C11.1749 13.9554 11.3076 13.9243 11.4425 13.908C11.7818 13.8456 12.1212 13.7853 12.4562 13.5952L12.6383 13.6749C12.7206 13.6375 12.6598 13.5597 12.7582 13.5481C12.9324 13.5268 13.1165 13.5241 13.2734 13.4224C13.2971 13.4077 13.3234 13.3976 13.3509 13.3926C13.436 13.3759 13.566 13.5562 13.6044 13.3341C13.7359 13.4375 13.8295 13.2479 13.969 13.2912C14.0615 13.32 14.1894 13.255 14.2795 13.2244C14.3888 13.1874 14.5002 13.2086 14.6029 13.1633C14.8037 13.0746 15.0587 13.1885 15.218 13.0013C15.3054 12.9952 15.3138 13.0733 15.3635 13.0968C15.4732 12.9972 15.8765 12.9028 16.1347 12.9174L16.145 13.0514C16.1748 13.0453 16.2142 13.0491 16.2258 13.033C16.305 12.9227 16.3529 12.7678 16.5425 12.8352C16.818 12.6987 17.1301 12.6871 17.4187 12.6709C17.662 12.6478 17.9027 12.6027 18.1379 12.5362C18.3635 12.4827 18.6055 12.5763 18.82 12.451C19.1486 12.5383 19.4694 12.3529 19.8173 12.4194ZM21.9004 14.0703C21.9372 13.9585 22.0134 14.1248 22.0312 14.0086C22.048 13.8982 22.1537 13.8973 22.2074 13.836C22.2343 13.8053 22.2233 13.7806 22.1914 13.775C22.0717 13.7668 22.0092 13.9218 21.8889 13.8878L21.7998 13.7875C21.6949 13.9025 21.7462 14.0705 21.6443 14.1703C21.4249 14.2298 21.373 14.0605 21.2916 13.9295C21.2829 13.9154 21.2475 13.9181 21.2245 13.9127C21.1811 14.0114 21.3232 14.0571 21.299 14.1267C21.1941 14.3376 21.1242 14.0876 20.9774 14.1561C21.0004 14.1524 21.0549 14.2323 20.9772 14.2201C20.8945 14.1875 20.914 14.0533 20.8057 14.0453C20.633 14.2227 20.4411 14.2625 20.0556 14.2008L20.033 14.2854C19.9489 14.2963 19.951 14.1662 19.8641 14.1815C19.7717 14.1947 19.7912 14.2898 19.7484 14.3393C19.2778 14.3276 19.2778 14.3276 19.0572 14.4411L18.6078 14.2736C18.4579 14.2867 18.4804 14.438 18.4112 14.4942C18.2442 14.4436 18.0688 14.4042 17.9219 14.4996C17.8148 14.5694 17.7088 14.5543 17.6018 14.5738C17.3493 14.6195 17.096 14.6598 16.8444 14.7105C16.8292 14.7106 16.8143 14.7145 16.801 14.7218C16.7877 14.7291 16.7764 14.7395 16.7682 14.7522C16.7599 14.7649 16.7549 14.7795 16.7536 14.7946C16.7524 14.8097 16.7548 14.825 16.7609 14.8389C16.9092 14.8484 17.0581 14.8387 17.204 14.8103C17.5312 14.7268 17.8649 14.6708 18.2015 14.6428C18.5394 14.6232 18.8646 14.4896 19.213 14.5492C19.3074 14.5507 19.4013 14.5376 19.4917 14.5106C19.9975 14.4224 20.5087 14.369 21.0218 14.3505C21.301 14.3341 21.5973 14.3786 21.8638 14.2432C21.886 14.2274 21.9058 14.2084 21.9224 14.1868L21.9004 14.0703Z" fill="#23A256"/>
</svg>
