<svg width="53" height="6" viewBox="0 0 53 6" fill="none" xmlns="http://www.w3.org/2000/svg">
<path d="M1.53812 3.18771C2.56213 3.23773 3.55743 3.49061 4.57015 3.61946C6.72341 3.89327 8.87351 3.7522 11.0304 3.6529C14.0485 3.51395 16.843 2.45632 19.7015 1.66425C22.4426 0.904688 25.2121 0.445524 28.0659 0.55918C29.4419 0.624268 30.7973 0.91884 32.0761 1.43073C33.4626 1.96936 34.8365 2.54107 36.1761 3.18753C37.8662 4.00313 39.6672 4.33363 41.5158 4.42191C43.0348 4.5025 44.5573 4.48877 46.0746 4.38078C47.256 4.29028 48.3612 3.91485 49.4179 3.38131C50.1138 3.03182 50.8572 2.78642 51.6244 2.65297C51.7974 2.61951 51.9758 2.62523 52.1464 2.66973C52.2985 2.71086 52.5578 2.71447 52.2801 2.96272C52.2344 3.00366 52.3129 3.05146 52.3147 3.09305C52.3239 3.31239 52.222 3.46162 51.9952 3.46708C51.2031 3.48626 50.5055 3.81556 49.8196 4.15115C48.9872 4.55872 48.1855 5.03576 47.2959 5.31022C46.3962 5.5881 45.4946 5.84746 44.5293 5.83264C43.8658 5.83647 43.2034 5.88683 42.547 5.98335C42.1294 6.03587 41.7195 5.95093 41.315 5.92777C41.0452 5.91212 40.8148 6.01975 40.5608 5.99715C40.2366 5.96825 39.9094 5.96705 39.5837 5.95028C38.6785 5.90397 37.7968 5.71871 36.9129 5.52808C35.339 5.18915 33.9531 4.36021 32.4436 3.85261C31.3104 3.47144 30.2006 3.00468 29.0348 2.74374C28.3543 2.59137 27.632 2.5834 26.9284 2.58238C23.944 2.57794 21.0735 3.23366 18.2522 4.14522C17.3074 4.4509 16.3584 4.75601 15.4019 5.00769C14.6231 5.22016 13.8327 5.38772 13.0346 5.50955C12.0378 5.65257 11.0414 5.78531 10.04 5.84385C7.4222 5.99687 4.82053 5.89498 2.27387 5.18285C2.1206 5.12502 1.96361 5.07758 1.80397 5.04085C1.10925 4.94609 0.82719 4.42338 0.572739 3.8728C0.474365 3.65975 0.767261 3.20457 1.0081 3.18957C1.18428 3.17845 1.36148 3.18716 1.53812 3.18771ZM5.88456 4.22192C4.38053 4.12429 2.91403 3.74682 1.41473 3.61306C3.01453 4.03064 5.30016 4.33631 5.88456 4.22192ZM6.56223 5.73177L6.56066 5.77354L9.30878 5.77354L9.30878 5.73177L6.56223 5.73177Z" fill="#16DB93"/>
</svg>
