<svg width="79" height="49" viewBox="0 0 79 49" fill="none" xmlns="http://www.w3.org/2000/svg">
<path d="M76.2513 12.0669C76.6821 11.8043 77.1195 11.5519 77.5412 11.2754C77.7949 11.0897 77.9814 10.8265 78.0725 10.5256C78.1134 10.4358 78.1258 10.3357 78.1083 10.2387C78.0907 10.1417 78.044 10.0523 77.9743 9.98252C77.7647 9.77849 77.7274 10.0313 77.5957 10.1053C75.0511 11.541 72.3574 12.6622 69.6887 13.8374C69.073 14.122 68.477 14.4471 67.9043 14.8105C67.7235 14.9208 67.4151 15.0567 67.6024 15.3995C67.7617 15.6909 68.0107 15.6519 68.2629 15.5787C69.5717 15.1986 70.8019 14.615 72.0545 14.0926C73.4888 13.4948 74.867 12.7761 76.2513 12.0669Z" fill="#091929"/>
<path d="M59.9487 14.3938C60.1786 14.1657 60.3863 13.8442 60.3769 13.4671C60.3369 11.6424 60.1999 9.82104 59.9664 8.01083C59.9034 7.53337 59.8112 7.68562 59.3644 7.76716C58.2729 7.96732 58.4951 8.79419 58.4108 9.46489C58.2717 10.6448 58.3338 11.8398 58.5943 12.9991C58.6595 13.3028 58.7129 13.6095 58.765 13.9159C58.9094 14.765 59.1132 14.857 59.9487 14.3938Z" fill="#091929"/>
<path d="M62.8857 14.554C63.8477 14.5432 64.1868 13.8389 64.6182 13.2012C65.428 12.0041 65.986 10.6807 66.6144 9.3921C66.7286 9.15795 66.952 8.83249 66.7257 8.65278C66.5038 8.47668 66.1958 8.72881 65.9569 8.86782C65.6033 9.07332 65.4497 9.45688 65.2666 9.78832C64.4971 11.1767 63.7609 12.583 63.0178 13.9856C62.9302 14.1511 62.824 14.3218 62.8857 14.554Z" fill="#091929"/>
<g clip-path="url(#clip0)">
<path d="M64.4694 43.5887C63.9767 44.2435 63.3197 44.8982 62.5805 45.3893C59.624 47.599 52.5612 46.7806 48.7013 46.7806C41.967 46.7806 35.1506 46.7806 28.4163 46.7806C23.4066 46.7806 0.986328 49.4813 0.986328 43.4251C0.986328 38.6783 0.986328 33.9315 0.986328 29.1028C0.986328 22.7192 5.66749 19.5274 13.3052 18.6271C18.4791 18.0542 23.4066 17.645 28.909 17.645C40.7351 17.645 52.7255 17.3176 64.5515 17.645C65.0443 24.7652 69.9718 36.7141 64.4694 43.5887Z" fill="#16DB93"/>
<path d="M4.10629 46.2896L4.43479 45.3893C4.59904 45.4712 4.76329 45.553 4.84542 45.2256C4.84542 45.3893 4.92754 45.3893 4.92754 45.4712C5.00967 45.7167 5.09179 45.7167 5.33817 45.553C5.50242 45.4712 5.66667 45.553 5.7488 45.7167C5.7488 45.7167 5.91305 45.7167 5.91305 45.6348C5.91305 45.7985 5.91305 45.7167 5.99517 45.6348C6.0773 45.6348 6.24155 45.553 6.4058 45.6348C6.57005 45.7167 6.32368 45.7167 6.32368 45.7167C6.48793 45.7985 6.65218 45.8804 6.7343 45.8804C7.30918 45.7167 7.88406 46.0441 8.37682 45.9622C8.86957 46.1259 9.36232 45.8804 9.9372 46.1259C10.3478 46.2896 11.0048 46.1259 11.4976 46.0441C11.9082 45.9622 11.9903 46.1259 12.2367 46.2077C12.3188 46.2077 12.4831 46.2077 12.5652 46.2077C12.9759 46.2077 13.3865 46.2077 13.7971 46.2896C14.0435 46.2896 14.2077 46.5351 14.372 46.5351C14.4541 46.5351 14.6184 46.3714 14.7005 46.2896C14.7826 45.8804 15.1932 46.3714 15.2754 46.1259C15.5217 46.2896 15.8502 46.2896 15.8502 46.6169C15.9324 46.5351 15.9324 46.3714 16.0145 46.2896C16.2609 46.0441 16.5894 46.2077 16.8358 46.2896C17.0821 46.2896 17.3285 46.3714 17.4928 46.1259C17.4106 46.1259 17.4106 46.1259 17.3285 46.1259V46.0441C17.4106 46.0441 17.5749 46.0441 17.657 46.1259C17.7391 46.1259 17.7391 46.2077 17.7391 46.2077C17.7391 46.2077 17.7391 46.2896 17.657 46.2896C17.5749 46.2896 17.5749 46.2896 17.4928 46.2896L17.5749 46.3714C17.657 46.3714 17.8213 46.2896 17.8213 46.2896C17.8213 46.0441 18.1498 46.2896 18.2319 46.1259C18.7246 46.3714 18.7246 46.2896 19.2174 46.1259C19.3816 46.0441 19.5459 46.1259 19.7101 46.0441C19.9565 45.8804 19.9565 46.1259 20.0387 46.2077C20.1208 46.2077 20.1208 46.2896 20.2029 46.2896C20.2029 46.2077 20.1208 46.2077 20.1208 46.1259V46.0441C20.3672 46.0441 20.4493 46.2077 20.7778 45.9622C21.0242 45.7985 21.599 45.9622 22.0097 45.8804C22.3382 45.7985 22.5845 45.7985 22.8309 46.0441C22.9952 45.7167 23.2416 45.7167 23.5701 45.6348C23.9807 45.6348 24.3092 45.553 24.7198 45.553C25.0483 45.4712 24.7198 45.9622 24.8841 45.7985C25.0483 45.553 25.2947 45.553 25.4589 45.553C25.7053 45.553 26.1159 45.3893 26.3623 45.7167C26.3623 45.7167 26.2802 45.7985 26.1981 45.7985L26.5266 45.8804H26.6087V45.7985C26.773 45.4712 27.1015 45.7985 27.3478 45.6348C27.5942 45.553 27.8406 45.553 28.087 45.553C28.2512 45.553 28.4976 45.3893 28.4976 45.7167C28.4976 45.7167 28.5797 45.7985 28.6618 45.7985C28.744 45.7985 28.9082 45.7167 28.9082 45.7167C28.9903 45.553 29.1546 45.4712 29.4831 45.4712C29.8116 45.4712 30.1401 45.3893 30.4686 45.553C30.9614 45.7167 31.372 45.553 31.8647 45.7167C32.1111 45.7985 32.3575 45.7985 32.6039 45.9622C32.7681 46.0441 32.5217 45.7985 32.7681 45.7985C33.343 45.7985 32.8502 46.4533 33.2609 46.3714C33.4251 46.3714 33.7536 46.6988 33.8358 46.2077H33.7536C33.6715 46.2077 33.6715 46.1259 33.5894 46.1259C33.343 46.0441 33.4251 45.8804 33.5072 45.7167C33.6715 45.7985 33.9179 45.7985 33.9179 45.8804C33.9179 46.1259 34.1643 45.9622 34.1643 46.0441C34.1643 45.9622 34.0821 45.9622 34.0821 45.8804C34.0821 45.8804 34.0821 45.8804 34.1643 45.8804H34.9855L34.8213 46.0441C35.0676 46.0441 35.3961 45.8804 35.4783 46.0441C35.7246 46.2077 36.0531 45.7985 36.1353 46.2077C36.2174 46.2077 36.3816 45.9622 36.4638 46.2077C36.5459 45.9622 36.9565 46.4533 37.0387 46.0441C37.0387 46.0441 37.285 46.0441 37.4493 46.0441L38.6812 46.2077C38.4348 46.4533 38.9275 46.4533 38.8454 46.6169C38.8454 46.6169 38.8454 46.6988 38.9275 46.6988V46.6169C39.3382 47.0262 39.4203 46.5351 39.6667 46.4533C39.7488 46.6169 39.8309 46.6988 40.0773 46.6988L40.1594 46.6169C39.9952 46.6169 39.913 46.2896 39.6667 46.4533C39.4203 46.3714 39.1739 46.2896 39.3382 46.0441C39.3382 45.9622 39.5845 45.9622 39.3382 45.8804H39.1739C39.256 46.2077 39.0097 46.3714 38.8454 46.6169C38.8454 46.4533 38.6812 46.2896 38.7633 46.2896C39.0097 45.8804 39.3382 45.7167 39.913 45.7985C40.4058 45.8804 40.9807 45.7985 41.5556 45.7985C41.7198 45.7985 41.8841 45.7167 41.8841 45.9622C41.8841 45.8804 41.9662 45.7985 41.9662 45.7985C42.5411 46.0441 43.1981 45.6348 43.7729 46.0441H43.8551L44.0193 45.9622C43.9372 45.9622 43.9372 45.9622 43.8551 45.9622C43.8551 45.9622 43.8551 45.9622 43.8551 45.8804C43.9372 45.8804 44.1015 45.7985 44.1836 45.7985C44.5942 45.7985 45.087 45.7985 45.4976 45.7985C45.5797 45.7985 45.6618 45.8804 45.744 45.8804C45.6618 45.8804 45.4976 45.9622 45.4155 45.9622C45.3333 45.9622 45.2512 45.9622 45.1691 45.9622C44.8406 45.8804 44.5942 46.1259 44.2657 45.8804C44.2657 45.9622 44.1836 45.9622 44.1836 46.0441C44.1015 46.2896 44.2657 46.1259 44.3478 46.1259C44.43 46.1259 44.5942 46.0441 44.6763 46.1259C44.7585 46.2077 44.6763 46.3714 44.8406 46.1259C44.9227 46.0441 45.3333 46.0441 45.5797 46.1259C45.9903 46.2896 46.1546 45.7985 46.5652 45.8804C46.7295 45.8804 46.8937 45.8804 47.058 45.8804C47.5507 45.8804 48.0435 45.8804 48.6184 45.8804C48.7005 45.8804 48.7826 45.9622 48.7826 45.9622C48.7826 46.0441 48.7826 46.1259 48.8647 46.2077C48.8647 46.1259 48.8647 46.0441 48.8647 45.9622C48.8647 45.9622 48.8647 45.8804 48.9469 45.8804C48.9469 45.8804 48.9469 45.8804 49.029 45.9622C49.029 46.0441 49.029 46.1259 49.1111 46.2896C49.2754 46.2077 49.2754 46.1259 49.2754 45.9622L49.3575 45.8804C49.3575 45.8804 49.3575 45.8804 49.4396 45.8804V45.9622C49.3575 46.1259 49.4396 46.2077 49.6039 46.2896C49.686 46.2896 49.7681 46.3714 49.7681 46.4533C49.7681 46.4533 49.686 46.4533 49.686 46.5351C49.686 46.5351 49.686 46.5351 49.686 46.6169C49.7681 46.6169 49.8502 46.6169 49.8502 46.6169L49.9324 46.5351C49.9324 46.3714 49.9324 46.2896 49.8502 46.1259C49.8502 45.9622 49.9324 45.9622 50.1787 46.0441C50.2609 46.0441 50.2609 46.1259 50.343 46.1259C50.5894 45.7167 50.8358 46.1259 51.0821 46.1259C51.4928 46.1259 51.9855 46.3714 52.314 45.9622H52.3961C52.4783 46.0441 52.5604 46.1259 52.6425 46.1259C52.8889 46.1259 53.1353 46.0441 53.3816 45.9622C53.7101 45.9622 54.0386 45.8804 54.3671 45.8804C54.4493 45.8804 54.5314 45.9622 54.5314 46.0441C54.5314 46.2896 54.6135 46.4533 54.942 46.3714L55.0242 46.5351C55.2705 46.5351 55.5169 46.5351 55.7633 46.5351C56.256 46.5351 56.7488 46.4533 57.3237 46.6988C57.5701 46.7806 57.9807 46.7806 58.3092 46.8625C58.3913 46.8625 58.5556 46.6988 58.6377 46.6169C58.4734 46.6169 58.5556 46.2077 58.3092 46.4533C58.1449 46.2896 57.8164 46.6169 57.7343 46.2896C57.7343 46.2077 57.7343 46.1259 57.6522 46.0441C57.8164 46.1259 57.9807 46.2077 58.0628 46.1259C58.3092 46.0441 58.6377 46.0441 58.8841 45.8804C59.1304 45.7985 59.1304 45.8804 59.2126 46.0441V46.1259C59.2126 45.8804 59.3768 46.0441 59.5411 46.0441C59.5411 46.1259 59.5411 46.2077 59.5411 46.2077C59.5411 46.2896 59.6232 46.2896 59.7053 46.2896C59.9517 46.2896 59.9517 46.0441 60.0338 45.9622C60.1981 45.9622 60.3623 45.8804 60.5266 45.8804C60.5266 45.9622 60.4444 46.0441 60.4444 46.0441C60.5266 46.0441 60.6087 46.1259 60.6908 46.1259H60.7729C61.0193 45.7985 61.2657 45.7167 61.5121 45.9622H61.5942C61.3478 45.7167 61.6763 45.553 61.7585 45.3893C61.5942 45.3075 61.5121 45.2256 61.6763 45.1438C61.8406 44.9801 62.087 44.8164 62.2512 44.6528H62.3333V44.7346C62.3333 44.8164 62.3333 44.8983 62.3333 44.9801C62.3333 44.9801 62.4155 44.9801 62.4976 44.9801C62.4976 44.8983 62.4155 44.8164 62.4155 44.8164C62.5797 44.7346 62.744 44.6528 62.8261 44.5709C62.9903 44.3254 63.0725 44.6528 63.0725 44.5709C63.1546 44.4891 63.0725 44.3254 63.1546 44.2435C63.1546 44.1617 63.1546 44.1617 63.2367 44.0799H63.3188L63.2367 44.1617C63.2367 44.2435 63.2367 44.2435 63.2367 44.3254H63.3188C63.401 44.2435 63.4831 44.1617 63.5652 44.0799C63.6473 43.998 63.8937 43.9162 63.8937 43.7525C63.8937 43.507 63.6473 43.6707 63.6473 43.6707C63.5652 43.6707 63.5652 43.8343 63.5652 43.998C63.3188 43.9162 63.7295 43.5888 63.4831 43.507C63.6473 43.507 63.5652 43.0978 63.8116 43.2614C63.8116 43.2614 63.8116 43.2614 63.8937 43.2614C63.8937 43.1796 63.8937 43.0978 63.8937 43.0159C63.8937 42.9341 63.8116 42.9341 63.8116 42.8522L63.7295 42.6886C63.8116 42.6886 63.8116 42.6067 63.8937 42.6067C63.8937 42.6067 63.8937 42.6886 63.8116 42.6886V42.7704C63.8937 42.7704 63.9758 42.8522 64.058 42.8522V42.6886L63.9758 42.7704L63.8937 42.6886C63.8937 42.5249 63.8937 42.443 63.8937 42.2793C63.8937 42.3612 63.9758 42.3612 63.9758 42.443C64.058 42.6067 64.2222 42.6067 64.3044 42.443C64.3865 42.3612 64.4686 42.3612 64.4686 42.5249C64.4686 42.6067 64.3865 42.6886 64.3865 42.7704C64.4686 42.7704 64.4686 42.6886 64.5507 42.6886C64.8792 42.5249 64.5507 42.5249 64.5507 42.443C64.4686 42.0338 64.9614 42.1157 65.0435 41.8701C65.1256 41.7883 65.372 41.8701 65.2077 41.5428C65.1256 41.4609 65.2077 41.2973 65.372 41.2973L65.2899 40.5607V40.4788C65.4541 40.4788 65.5362 40.4788 65.7005 40.5607C65.6184 40.6425 65.6184 40.7244 65.5362 40.7244C65.2899 40.888 65.6184 40.9699 65.4541 41.1336C65.5362 41.0517 65.6184 41.0517 65.7005 40.9699C66.1932 40.7244 65.5362 40.888 65.6184 40.7244C65.6184 40.7244 65.6184 40.6425 65.6184 40.5607C65.8647 40.1515 65.4541 40.0696 65.372 39.8241C65.372 39.7423 65.372 39.5786 65.372 39.4967C65.4541 39.4967 65.4541 39.4967 65.5362 39.4967C65.8647 39.7423 65.9469 39.3331 66.1932 39.2512C66.4396 39.2512 66.7681 39.0875 66.7681 38.6783C66.7681 38.5965 66.8502 38.5146 66.8502 38.4328C66.8502 38.351 66.7681 38.351 66.7681 38.2691C66.7681 38.6783 66.1932 38.5965 66.1932 39.0057C66.1932 39.0875 66.1111 39.0875 66.1111 39.1694C66.029 39.0057 66.029 38.9238 65.9469 38.7602C65.9469 38.7602 66.029 38.6783 66.1111 38.5965C66.1111 38.5965 66.1111 38.5965 66.1932 38.5965C66.1932 38.5146 66.1932 38.4328 66.1111 38.4328C66.029 38.351 65.9469 38.2691 65.9469 38.1873C65.9469 38.1054 66.029 38.0236 66.1111 37.9418C66.1111 38.0236 66.1111 38.1054 66.1111 38.1873C66.1111 38.1873 66.1932 38.351 66.2754 38.1873C66.2754 38.0236 66.1932 37.8599 66.1932 37.6962L66.2754 37.6144C66.1111 37.4507 66.3575 37.287 66.4396 37.287C66.686 37.1233 66.9324 37.2052 66.9324 37.5325C66.9324 37.6144 66.8502 37.6144 66.7681 37.6962C66.8502 37.6962 66.9324 37.6962 66.9324 37.6962C67.0145 37.5325 67.0966 37.3689 67.0966 37.287C66.9324 37.0415 66.7681 36.8778 67.0966 36.6323H67.0145C66.9324 36.7141 66.7681 36.8778 66.7681 36.9597C66.7681 37.1233 66.7681 37.1233 66.686 37.0415C66.686 37.0415 66.686 36.9597 66.6039 36.8778C66.5217 36.796 66.6039 37.2052 66.5217 36.8778C66.5217 36.8778 66.1932 36.796 66.5217 36.7141C66.5217 36.7141 66.6039 36.4686 66.5217 36.4686C66.4396 36.3049 66.8502 36.0594 66.4396 36.0594C66.4396 36.0594 66.3575 35.9776 66.3575 35.8957C66.2754 35.5683 66.1111 35.3228 66.1932 34.9955V34.9136H66.2754C66.686 35.241 66.5217 34.8318 66.6039 34.6681C66.6039 34.7499 66.6039 34.8318 66.6039 34.9136C66.7681 35.0773 66.686 34.7499 66.8502 34.8318L66.7681 34.3407L67.1787 34.5044C67.0966 34.2589 67.5072 34.0952 67.2609 33.8497C67.0966 33.686 66.8502 34.177 66.686 33.7678C66.686 33.7678 66.686 33.8497 66.6039 33.8497C66.3575 34.0952 66.8502 34.177 66.686 34.3407L66.6039 34.177L66.5217 34.9955C66.3575 34.6681 66.2754 34.9955 66.1932 35.0773C66.1932 35.0773 66.1932 35.0773 66.1111 35.0773V34.9955C66.029 34.6681 66.1932 34.2589 65.9469 33.9315V33.8497C66.029 33.8497 66.029 33.7678 66.1111 33.7678C66.1111 33.7678 66.1932 33.7678 66.2754 33.8497L66.3575 33.3586C66.2754 33.3586 66.2754 33.3586 66.1932 33.3586H66.1111C66.029 33.0313 66.029 32.7857 65.9469 32.4584C65.8647 32.131 66.029 31.8036 65.7826 31.5581C65.8647 31.5581 65.9469 31.5581 65.9469 31.5581C66.029 31.64 66.029 31.7218 66.1111 31.8036C66.029 31.5581 66.5217 31.8036 66.3575 31.4763C66.3575 31.4763 66.3575 31.3944 66.2754 31.3944C66.2754 31.3944 66.2754 31.4763 66.1932 31.4763C66.1111 31.5581 66.1111 31.5581 66.029 31.64C66.029 31.64 66.029 31.64 65.9469 31.64C66.1932 31.5581 65.8647 31.4763 65.9469 31.3944C66.029 31.3126 66.1111 31.3126 66.1111 31.2308C66.1111 31.1489 66.029 31.0671 66.029 31.0671C65.9469 31.0671 65.8647 31.0671 65.7826 31.0671C65.7826 31.0671 65.7826 31.0671 65.7005 31.1489L65.6184 31.0671C65.6184 30.9034 65.6184 30.8215 65.6184 30.6579C65.6184 30.576 65.7826 30.4123 65.7826 30.3305C65.6184 30.085 65.7826 30.4942 65.7005 30.4123C65.6184 29.9213 65.7005 29.5121 65.7005 29.2666C65.7005 28.8574 65.7826 28.4481 65.8647 28.1208C65.9469 27.8753 65.7005 27.8753 65.7826 27.7116L65.5362 27.7934C65.6184 27.8753 65.6184 28.0389 65.7005 28.1208C65.7005 28.2026 65.7826 28.2026 65.7826 28.2845C65.7005 28.2845 65.7005 28.2845 65.6184 28.2845C65.5362 28.2026 65.372 28.1208 65.372 28.1208C65.4541 27.5479 65.2077 26.975 65.1256 26.4839C65.1256 26.3203 65.1256 26.1566 65.1256 26.0747C65.1256 25.9929 65.0435 25.9111 64.9614 25.7474L65.0435 25.5837C65.1256 25.6655 65.2077 25.6655 65.2899 25.7474C65.2077 25.6655 65.2077 25.5837 65.1256 25.5019C65.0435 25.42 64.9614 25.3382 64.8792 25.3382L64.7971 25.2563C65.0435 24.7653 64.4686 24.3561 64.5507 23.865V23.7832C64.5507 23.7832 64.5507 23.7832 64.6329 23.7832C64.715 23.7013 64.8792 24.0287 64.8792 23.9469C64.9614 23.7013 64.8792 23.374 64.7971 23.0466C64.7971 22.9648 64.6329 22.8829 64.4686 22.8011H64.3044C64.3044 22.4737 64.2222 22.2282 64.2222 21.9008L64.3044 22.0645C64.3044 22.0645 64.3044 22.0645 64.3865 22.0645L64.3044 21.6553H64.2222C64.2222 21.6553 64.1401 21.7371 64.1401 21.819C64.1401 21.7371 64.058 21.7371 64.058 21.6553C63.9758 21.1643 63.8937 20.6732 63.8937 20.1003C63.8937 19.9366 64.058 19.773 64.058 19.6093V19.5274L63.9758 19.4456C63.5652 19.4456 63.9758 19.1182 63.8937 19.1182C63.8937 19.1182 63.9758 19.0364 64.058 18.9545L64.2222 18.8727H64.1401C64.1401 18.8727 64.1401 18.8727 64.058 18.9545L63.9758 19.0364H63.8937C64.058 18.7909 64.058 18.6272 64.1401 18.3816C64.3043 18.0543 64.2222 18.6272 64.3865 18.2998C64.3865 18.218 64.4686 18.218 64.4686 18.1361C64.4686 17.9724 64.4686 17.8088 64.5507 17.6451L65.372 16.8267C65.372 17.0722 65.4541 17.3177 65.5362 17.4814C65.5362 17.5632 65.8647 18.3816 65.4541 18.6272C65.5362 18.709 65.5362 18.7909 65.5362 18.8727C65.5362 18.9545 65.5362 19.0364 65.5362 19.0364C65.5362 19.2001 65.4541 19.2819 65.5362 19.4456C65.5362 19.5274 65.5362 19.6093 65.5362 19.6911H65.2899H65.2077V19.773L65.2899 19.8548C65.372 19.6911 65.4541 19.773 65.4541 19.9366C65.4541 19.9366 65.6184 20.1003 65.372 20.1003C65.372 20.1822 65.372 20.264 65.4541 20.3458H65.5362C66.029 20.9187 65.9469 21.5735 65.9469 22.31C65.9469 22.5556 66.1932 22.8829 66.1932 23.0466C66.1111 23.2921 66.3575 23.374 66.3575 23.6195C66.3575 23.7832 66.4396 24.0287 66.4396 24.1924C66.5217 24.6016 66.7681 24.929 66.686 25.42C66.6039 25.6655 66.6039 26.1566 67.0145 26.4839C67.0966 26.5658 67.0966 26.975 67.0966 27.2205C67.0966 27.6297 67.0966 27.9571 67.0145 28.3663C67.5072 28.3663 67.343 28.7755 67.4251 29.1029C67.5894 29.4302 67.343 29.8394 67.6715 30.085V30.1668H67.1787C67.1787 30.1668 67.0966 30.1668 67.0966 30.085V30.1668C67.2609 30.3305 67.5072 30.4123 67.6715 30.576L67.7536 30.6579V30.7397L67.6715 30.6579C67.5894 30.6579 67.5072 30.6579 67.5072 30.6579C67.5072 30.8215 67.5073 30.9034 67.5894 31.0671C67.6715 31.2308 67.7536 31.3126 67.8358 31.4763C67.9179 31.9673 68.0821 32.4584 67.9179 33.0313C67.8357 33.3586 68.1643 33.686 68 34.0952C67.9179 34.177 67.8358 34.177 67.7536 34.2589C67.5894 34.177 67.7536 34.0952 67.7536 34.0952C68.0821 33.9315 67.6715 34.0134 67.6715 34.0134C67.6715 34.0134 67.6715 34.0134 67.7536 33.9315H67.6715V34.0134C67.6715 34.177 67.6715 34.3407 67.5894 34.4226L67.6715 34.5044L67.7536 34.2589C67.8358 34.3407 67.9179 34.4226 67.9179 34.5044C67.8357 34.7499 67.9179 35.0773 67.6715 35.1591C67.5894 35.1591 67.5894 35.4047 67.5894 35.5683L67.6715 35.6502C67.7536 35.6502 67.9179 35.6502 67.8358 35.4047V35.3228C67.9179 35.4047 68 35.5683 68 35.6502C68.0821 36.1412 67.9179 36.7141 67.9179 37.287C67.9179 37.3689 67.9179 37.4507 67.8358 37.6144V37.4507L67.7536 37.5325C67.7536 37.6962 67.8358 37.7781 67.7536 37.9418L67.5072 39.0875L67.343 39.4149C67.2609 39.5786 67.1787 39.7423 67.1787 39.9878L66.7681 41.1336L66.1932 42.1975C66.029 42.6067 65.8647 43.0159 65.6184 43.3433C65.4541 43.5888 65.2899 43.9162 65.0435 44.1617L64.3865 44.8983C64.3044 45.062 64.058 45.1438 64.1401 45.3893C63.4831 45.553 63.3188 46.2896 62.6618 46.4533C62.2512 46.5351 62.2512 46.8625 62.0048 46.9443C61.1836 47.2717 60.4444 47.599 59.6232 47.599C59.2947 47.599 58.9662 47.9264 58.5556 47.6809C58.5556 47.6809 58.3913 47.9264 58.1449 47.9264C57.7343 47.9264 57.2415 48.1719 56.8309 47.9264C56.6667 47.8446 56.256 47.9264 56.0097 48.0901C55.6812 48.2538 56.0097 47.6809 55.6812 47.9264H55.599C55.5169 48.0082 55.5169 48.0901 55.4348 48.0901C55.3527 48.0901 55.3527 48.0082 55.2705 48.0082C55.1063 47.9264 54.8599 47.6809 54.6957 47.7627C54.285 47.8446 53.8744 47.9264 53.5459 48.0901C53.2995 48.2538 53.3816 48.0082 53.3816 48.0082C53.1353 47.8446 52.8068 48.2538 52.6425 47.9264C52.5604 48.1719 52.2319 47.7627 52.2319 48.0901C52.2319 48.0901 52.1498 48.1719 52.0676 48.1719V48.0082C51.8213 48.0901 51.5749 48.3356 51.4928 47.9264C51.4106 47.5172 51.3285 48.0082 51.3285 47.9264C51.3285 47.8446 51.2464 47.8446 51.1643 47.8446L51.0821 47.9264C51 47.8446 51 47.8446 50.9179 47.7627C51 47.7627 51.0821 47.7627 51.0821 47.7627C51.0821 47.7627 51.1643 47.7627 51.1643 47.6809L51.0821 47.599L50.9179 47.5172C51.2464 47.8446 50.2609 47.2717 50.7536 47.7627V47.9264C50.6715 47.9264 50.5073 47.9264 50.4251 47.9264C50.343 47.9264 50.343 47.9264 50.2609 47.8446C50.343 47.9264 50.343 48.0082 50.4251 48.0082L50.5072 48.0901H50.4251C50.343 48.0082 50.1787 48.0082 50.0966 47.9264V47.8446C50.0145 47.8446 49.8502 47.9264 49.8502 47.8446C49.686 47.6809 49.6039 47.7627 49.4396 47.8446L49.3575 47.7627C49.2754 47.8446 49.1932 47.8446 49.1111 47.9264L49.029 48.0082C48.9469 48.0082 48.9469 48.0082 48.8647 47.9264C48.8647 47.9264 48.8647 47.8446 48.8647 47.7627V47.6809C48.7826 47.6809 48.7005 47.7627 48.7005 47.7627C48.7005 47.8446 48.372 47.6809 48.5362 47.9264V48.0082L48.0435 47.8446C47.9614 48.2538 47.6329 47.4354 47.5507 47.9264C47.5507 47.9264 47.4686 47.9264 47.3865 47.9264C47.6329 47.8446 46.9758 47.8446 47.3865 47.7627C47.3865 47.7627 47.3865 47.7627 47.4686 47.6809C47.4686 47.6809 47.4686 47.6809 47.3865 47.6809C47.2222 47.6809 47.058 47.599 46.9758 47.599C46.8116 47.6809 46.401 47.9264 46.2367 47.8446C46.1546 47.8446 46.2367 47.599 46.2367 47.599C45.9903 47.2717 45.9903 47.3535 45.9903 47.5172C45.9903 47.599 45.9082 47.7627 45.9082 47.7627C45.3333 47.6809 44.7585 47.9264 44.1836 47.6809H44.1015V47.7627C44.1015 47.8446 44.1015 47.8446 44.1836 47.9264H44.0193C44.0193 47.9264 44.1015 47.9264 44.1015 47.8446V47.7627C43.9372 47.6809 43.7729 47.599 43.6087 47.5172C43.5266 47.5172 43.4444 47.5172 43.3623 47.5172C43.3623 47.5172 43.2802 47.4354 43.3623 47.3535C43.4444 47.2717 43.5266 47.2717 43.6087 47.2717L43.5266 47.108L43.9372 46.9443H43.5266C43.4444 46.9443 43.2802 46.9443 43.2802 46.9443C43.2802 47.108 43.3623 47.108 43.5266 47.108C43.3623 47.2717 43.1981 47.4354 43.0338 47.599C43.0338 47.599 42.8696 47.5172 42.7874 47.5172C42.3768 47.4354 42.3768 47.9264 41.9662 47.9264C41.8841 47.9264 41.8019 48.0082 41.7198 48.0082C41.6377 48.0082 41.5556 47.9264 41.5556 47.8446C41.6377 47.8446 41.8019 47.8446 41.8841 47.8446V47.7627C41.8019 47.8446 41.7198 47.6809 41.6377 47.6809C41.3913 47.6809 41.1449 47.6809 40.8986 47.6809H40.7343L40.8164 47.599V47.5172H40.2416L40.3237 47.599C40.3237 47.6809 40.3237 47.7627 40.4058 47.7627C40.3237 47.7627 40.1594 47.7627 40.0773 47.8446C39.6667 47.8446 39.256 47.9264 38.8454 47.9264C38.4348 47.9264 38.0242 47.8446 37.6135 47.8446C37.3672 47.8446 37.1208 47.9264 36.8744 47.9264C36.628 47.9264 36.2995 47.8446 36.0531 47.6809C35.6425 47.4354 35.1498 47.599 34.7391 47.5172C34.657 47.5172 34.4928 47.6809 34.4106 47.7627C34.3285 47.5172 34.0821 47.5172 33.9179 47.4354C33.8358 47.3535 33.7536 47.2717 33.6715 47.1898L33.9179 47.0262L33.5072 46.8625L33.5894 47.1898C33.5894 47.8446 33.1787 47.2717 32.9324 47.3535C32.8502 47.4354 32.7681 47.5172 32.686 47.5172C32.6039 47.4354 32.6039 47.2717 32.5217 47.5172C32.5217 47.599 32.3575 47.599 32.1932 47.599C32.2754 47.5172 32.2754 47.5172 32.029 47.3535C32.029 47.2717 32.029 47.1898 32.1111 47.1898H31.7826C31.7005 47.108 31.6184 47.108 31.5362 47.0262C31.4541 47.0262 31.372 47.0262 31.2899 47.0262C31.2077 47.108 31.2077 47.1898 31.1256 47.2717C31.2077 47.2717 31.372 47.1898 31.4541 47.1898L31.7826 47.108C31.8647 47.1898 31.9469 47.1898 32.029 47.2717C32.029 47.3535 32.029 47.4354 32.1932 47.5172C31.7826 47.5172 31.372 47.1898 30.9614 47.4354C31.1256 47.1898 30.8792 47.108 30.715 47.0262H30.6329C30.715 47.7627 30.1401 47.108 29.8937 47.2717C29.6473 47.5172 29.3188 46.9443 28.9903 47.2717C28.9082 46.9443 28.5797 47.0262 28.3333 47.0262C28.1691 47.0262 28.0048 47.0261 27.8406 46.9443L27.6763 46.5351C27.6763 46.6988 27.7585 46.7806 27.7585 46.9443C27.7585 47.108 27.5942 47.3535 27.5121 47.3535C27.1015 47.4354 26.6087 47.3535 26.2802 47.4354C25.9517 47.5172 25.8696 47.108 25.7053 47.2717C25.2947 47.599 25.2126 46.9443 24.9662 47.108C24.6377 47.2717 25.2126 47.1898 25.0483 47.3535C25.0483 47.3535 25.2947 47.599 25.1304 47.599C24.8019 47.6809 24.4734 47.8446 24.1449 47.599C24.0628 47.5172 23.9807 47.4354 23.8986 47.2717C23.8986 47.4354 23.5701 47.3535 23.7343 47.599C23.6522 47.599 23.4879 47.599 23.4058 47.6809C23.0773 47.8446 22.7488 47.599 22.4203 47.599C22.5024 47.3535 22.256 47.4354 22.256 47.5172C22.5024 48.0901 21.9275 47.7627 21.8454 47.7627C21.599 47.7627 21.2705 47.7627 21.0242 47.599C20.7778 47.5172 21.2705 47.599 21.1063 47.4354C21.1884 47.4354 21.3527 47.4354 21.1884 47.2717C21.1063 47.1898 20.8599 47.2717 20.7778 47.3535C20.4493 47.599 20.0387 47.599 19.628 47.599C19.2995 47.599 18.971 47.6809 18.6425 47.7627C18.4783 47.8446 18.2319 47.7627 18.0676 47.599C18.0676 47.5172 17.7391 47.6809 17.657 47.6809C17.3285 47.5172 17.0821 48.1719 16.7536 47.7627C16.4251 48.2538 16.5073 47.4354 16.343 47.6809H16.2609C16.343 47.7627 16.6715 47.8446 16.4251 47.9264C16.0966 48.0082 15.7681 48.0901 15.3575 47.9264C15.1932 47.8446 14.9469 47.8446 14.7826 47.8446C14.5362 47.9264 14.372 47.8446 14.2077 47.7627C13.9614 47.7627 13.6329 47.8446 13.3044 47.7627C13.2222 47.7627 13.1401 47.8446 13.1401 47.8446C13.2222 47.6809 12.7295 47.599 12.9759 47.3535C12.9759 47.3535 13.3044 47.2717 13.058 47.108C12.9759 47.1898 12.8937 47.2717 12.8116 47.3535C12.7295 47.599 12.0725 47.599 11.8261 47.4354C11.744 47.3535 11.6618 47.3535 11.6618 47.3535C11.4976 47.599 11.3333 47.599 11.4155 47.2717H11.3333C11.2512 47.3535 11.1691 47.5172 10.9227 47.4354C11.0048 47.6809 10.7585 47.599 10.6763 47.5172C10.3478 47.3535 10.43 47.8446 10.1836 47.7627V47.8446L10.1015 47.7627C10.0193 47.8446 9.85508 48.0901 9.77295 47.9264C9.6087 47.5172 9.2802 47.6809 9.11595 47.6809C8.9517 47.6809 8.70532 47.8446 8.54107 47.6809C8.37682 47.5172 8.45894 47.2717 8.54107 47.108C8.54107 47.0262 8.54107 46.9443 8.45894 46.8625C8.45894 46.7806 8.29469 46.8625 8.21257 46.8625C8.29469 46.9443 8.37682 46.9443 8.37682 47.0262C8.37682 47.1898 8.37682 47.2717 8.29469 47.3535C8.21257 47.4354 8.13044 47.4354 8.04831 47.2717C8.04831 47.3535 7.96619 47.4354 7.96619 47.4354C7.71981 47.5172 7.47343 47.3535 7.30918 47.2717C7.47343 47.5172 7.39131 47.4354 7.30918 47.4354C7.30918 47.5172 7.30918 47.599 7.30918 47.6809L7.22706 47.7627C7.22706 47.4354 6.89856 47.6809 6.7343 47.5172C6.7343 47.4354 6.65218 47.4354 6.65218 47.3535C6.57005 47.2717 6.57005 47.1898 6.57005 47.0262C6.4058 47.108 6.57005 47.1898 6.57005 47.2717C6.48793 47.4354 6.4058 47.599 6.15943 47.5172C6.32368 47.2717 5.50242 47.599 5.83092 47.1898C5.66667 47.1898 5.42029 47.1898 5.25604 47.1898C5.00967 47.1898 4.59904 47.2717 4.59904 47.1898C4.35266 46.8625 4.18841 47.2717 4.02416 47.108C4.02416 47.108 4.02416 47.0261 4.02416 46.9443C4.10629 47.108 3.77778 46.6988 4.10629 46.8625C4.10629 46.7806 4.18841 46.6988 4.18841 46.6169C4.18841 46.4533 4.18841 46.3714 4.10629 46.2896ZM66.1111 25.5019L66.1932 24.929C66.1111 24.929 65.9469 24.929 65.9469 24.929C65.9469 25.0926 65.9469 25.1745 65.9469 25.3382C66.029 25.42 66.029 25.42 66.1111 25.5019ZM65.6184 26.7295C65.6184 26.5658 65.7005 26.5658 65.5362 26.4021C65.5362 26.4021 65.6184 26.4021 65.5362 26.4021C65.5362 26.4021 65.4541 26.4021 65.4541 26.3203C65.4541 26.484 65.372 26.6476 65.4541 26.7295C65.5362 27.0568 65.6184 26.8932 65.6184 26.7295ZM66.029 27.2205L66.1932 26.8113C66.1111 26.8113 66.029 26.8113 65.9469 26.7295C65.9469 26.8113 65.8647 26.8113 65.8647 26.8932C65.9469 26.975 66.029 27.1387 66.029 27.2205ZM66.3575 27.7934C66.3575 27.6297 66.4396 27.466 66.3575 27.3842C66.2754 27.2205 66.1932 27.6297 66.1111 27.3842C66.1111 27.466 66.1111 27.5479 66.1932 27.6297C66.1932 27.7116 66.2754 27.7116 66.3575 27.7934ZM66.2754 29.3484C66.3575 29.1847 66.4396 29.1029 66.4396 28.9392C66.4396 28.8574 66.1111 29.1029 66.2754 28.6118C66.1111 28.6118 66.029 28.6937 65.9469 28.6937C66.029 28.8574 66.1111 29.1029 66.2754 29.3484ZM66.6039 32.7039C66.686 32.4584 66.7681 32.131 66.686 31.9673C66.5217 31.3944 66.5217 32.131 66.4396 32.131C66.686 32.2129 66.4396 32.2947 66.3575 32.4584C66.6039 32.2947 66.6039 32.7857 66.6039 32.7039ZM67.0145 33.7678C67.2609 33.686 67.343 33.5223 67.2609 33.1131C67.2609 33.1131 67.1787 32.9494 67.0966 32.7857L67.0145 33.1949C67.0145 33.1949 67.0145 33.1949 67.0145 33.2768L66.686 33.6042C66.8502 33.7678 66.8502 33.3586 66.9324 33.4405H67.0145C67.0145 33.5223 66.9324 33.5223 66.9324 33.6042C66.9324 33.686 67.0145 33.7678 67.0145 33.7678ZM67.343 38.5146L67.4251 38.4328C67.4251 38.2691 67.5072 38.1054 67.5072 38.0236C67.5072 37.8599 67.4251 37.6962 67.2609 37.6144H67.1787L67.0966 37.6962C67.2609 37.9418 67.343 38.1054 67.0966 38.351V38.4328L67.1787 38.351C67.2609 38.351 67.2609 38.351 67.343 38.351V38.4328C67.343 38.4328 67.2609 38.4328 67.2609 38.5146H67.343ZM64.1401 43.6707C64.3865 43.6707 64.3043 43.2614 64.5507 43.2614C64.5507 43.1796 64.4686 43.0978 64.4686 43.0978C64.1401 43.0159 64.3043 43.4251 64.1401 43.507C63.9758 43.507 64.1401 43.6707 64.1401 43.6707ZM58.7198 46.7806L58.9662 46.9443C59.0483 46.8625 59.2126 46.6169 59.2126 47.0262C59.2126 47.108 59.2126 47.1898 59.2947 47.2717H59.3768C59.4589 47.0262 59.5411 47.0262 59.6232 47.2717C59.6232 47.2717 59.7053 47.2717 59.7053 47.1898V47.108C59.6232 47.0262 59.5411 46.9443 59.4589 46.8625C59.4589 46.7806 59.4589 46.7806 59.4589 46.7806C58.9662 46.5351 59.3768 47.0262 59.1304 46.8625C59.0483 46.7806 59.0483 46.6169 58.9662 46.4533L58.7198 46.5351C58.7198 46.5351 58.7198 46.6169 58.7198 46.7806ZM56.0918 47.108C56.1739 47.4354 56.256 47.108 56.3382 47.108C56.4203 47.108 56.5024 47.0261 56.5845 47.1898C56.7488 46.6169 56.3382 46.8625 56.256 46.8625C56.1739 46.8625 56.0918 47.0262 56.0918 47.108ZM54.942 47.108C55.2705 47.1898 55.599 47.108 55.8454 47.108C55.9275 47.108 56.0097 47.0261 56.0097 46.9443C55.7633 46.4533 55.5169 46.9443 55.4348 46.9443C55.0242 46.8625 54.8599 47.108 54.942 47.108ZM47.4686 47.3535C47.3865 47.108 47.2222 47.1898 47.058 47.1898C47.1401 47.1898 47.2222 47.1898 47.2222 47.108C47.3044 47.108 47.3044 47.0262 47.3865 47.0262C47.4686 46.7806 47.1401 46.7806 47.058 46.6169C47.058 46.6169 46.9758 46.6169 46.8937 46.6169C46.8937 46.6988 46.9758 46.6988 46.9758 46.7806C46.9758 46.8625 47.058 46.8625 47.058 46.9443H46.9758C46.8937 46.9443 46.8937 46.9443 46.8116 46.9443V47.0262C46.8937 47.108 46.9758 47.108 47.058 47.108C47.058 47.2717 47.1401 47.4354 47.3865 47.3535C47.3865 47.4354 47.4686 47.4354 47.4686 47.3535ZM46.6473 46.4533C46.8937 46.5351 47.1401 46.6169 47.3043 46.7806C47.3865 46.7806 47.3865 46.7806 47.4686 46.6988C47.3044 46.3714 46.8937 46.6169 46.6473 46.4533ZM36.2995 46.7806C36.4638 46.7806 36.2995 46.8625 36.1353 46.9443C36.3816 46.9443 36.4638 46.9443 36.628 46.9443C36.3816 46.7806 36.2995 46.3714 36.0531 46.4533C35.8068 46.5351 35.8889 46.7806 36.2995 46.7806ZM29.6473 46.5351C29.8937 46.6169 30.058 46.6988 30.3044 46.6988C30.3865 46.6988 30.4686 46.5351 30.5507 46.5351C30.3044 46.5351 30.058 46.4533 29.8116 46.4533C29.8116 46.4533 29.7295 46.4533 29.6473 46.5351ZM28.6618 46.6169L28.8261 46.7806C28.9903 46.4533 29.2367 46.6988 29.4831 46.6988C29.7295 46.5351 29.401 46.3714 29.3188 46.3714C29.0725 46.3714 28.9082 46.4533 28.6618 46.6169ZM25.2126 46.2077C25.2947 46.2077 25.3768 46.2077 25.5411 46.2896H25.8696C25.7874 46.6169 26.0338 46.3714 26.1159 46.3714H26.1981C26.1981 46.2896 26.1981 46.2077 26.1159 46.2077C25.8696 45.8804 25.6232 46.1259 25.3768 46.1259C25.3768 46.1259 25.2947 45.8804 25.2126 46.2077ZM25.2126 46.6988C25.4589 47.1898 25.8696 46.8625 26.2802 46.8625L25.2126 46.6988C25.2126 46.6169 25.2126 46.6988 25.2126 46.6988ZM25.1304 47.1898C25.2947 47.2717 25.4589 47.2717 25.6232 47.3535C25.6232 47.3535 25.7053 47.2717 25.7874 47.2717C25.6232 47.1898 25.4589 47.108 25.2947 47.108C25.2126 47.108 25.2126 47.1898 25.1304 47.1898ZM23.1594 46.6169C23.2416 46.6169 23.4058 46.6169 23.4058 46.6988C23.6522 46.8625 23.8164 46.4533 24.0628 46.6169V46.5351C23.8986 46.3714 23.8164 46.5351 23.7343 46.6169C23.6522 46.6169 23.5701 46.6169 23.5701 46.6169C23.5701 46.5351 23.8164 46.4533 23.5701 46.3714C23.4879 46.2896 23.3237 46.4533 23.1594 46.6169ZM22.4203 46.6988C22.5845 46.7806 22.6667 46.7806 22.7488 46.7806C22.8309 46.6169 22.5024 46.5351 22.6667 46.3714C22.6667 46.3714 22.6667 46.2896 22.6667 46.2077C22.5024 46.4533 22.5024 46.5351 22.4203 46.6988ZM15.7681 47.599C15.8502 47.6809 16.0145 47.7627 16.0966 47.8446L16.1787 47.7627C16.2609 47.4354 16.0145 47.599 15.9324 47.5172L15.7681 47.599ZM11.2512 47.599C11.4155 47.8446 11.6618 47.2717 11.8261 47.599C11.9082 47.5172 11.8261 47.4354 11.6618 47.4354C11.6618 47.4354 11.6618 47.3535 11.6618 47.2717C11.5797 47.3535 11.4976 47.599 11.2512 47.599Z" fill="#16DB93"/>
<path d="M64.5507 17.7269L63.7295 18.6272C63.7295 18.5454 63.6473 18.5454 63.4831 18.8727V18.7909C63.5652 18.5454 63.4831 18.6272 63.401 18.7909C63.4831 18.9546 63.1546 18.8727 63.0725 18.709L62.9082 18.7909C62.9082 18.6272 62.8261 18.709 62.8261 18.7909C62.744 18.8727 62.4976 18.8727 62.4155 18.8727C62.1691 18.7909 62.4155 18.709 62.4155 18.709C62.2512 18.709 62.087 18.6272 62.0048 18.6272C61.4299 18.8727 60.8551 18.6272 60.2802 18.709C59.7874 18.5454 59.2126 18.8727 58.6377 18.6272C58.2271 18.4635 57.57 18.6272 56.9952 18.7909C56.5845 18.8727 56.5024 18.709 56.1739 18.6272C56.0918 18.6272 55.9275 18.6272 55.8454 18.6272C55.4348 18.6272 55.0242 18.6272 54.6135 18.5454C54.3671 18.5454 54.2029 18.2998 54.0386 18.2998C53.9565 18.2998 53.7923 18.4635 53.7101 18.5454C53.5459 18.9546 53.2174 18.4635 53.1353 18.709C52.8889 18.5454 52.5604 18.5454 52.5604 18.218C52.4783 18.2998 52.4783 18.4635 52.3961 18.5454C52.1498 18.7909 51.8213 18.5454 51.5749 18.5454C51.3285 18.4635 51.0821 18.4635 50.9179 18.709H51.0821V18.7909C51 18.7909 50.8357 18.7909 50.7536 18.709C50.6715 18.709 50.6715 18.6272 50.6715 18.6272C50.6715 18.6272 50.6715 18.5454 50.7536 18.5454C50.8357 18.5454 50.8357 18.5454 50.9179 18.5454L50.8357 18.4635C50.7536 18.4635 50.5894 18.5454 50.5894 18.5454C50.5072 18.7909 50.2609 18.5454 50.1787 18.709C49.686 18.4635 49.686 18.4635 49.1932 18.6272C49.029 18.709 48.8647 18.6272 48.7005 18.6272C48.372 18.7909 48.4541 18.5454 48.372 18.4635C48.372 18.4635 48.2899 18.3817 48.2077 18.3817C48.2077 18.4635 48.2899 18.4635 48.2899 18.5454V18.6272C48.0435 18.6272 47.9613 18.4635 47.6328 18.6272C47.3865 18.7909 46.8116 18.5454 46.401 18.6272C46.0725 18.709 45.8261 18.709 45.6618 18.3817C45.4976 18.709 45.1691 18.709 44.9227 18.709C44.5121 18.709 44.1836 18.709 43.7729 18.7909C43.4444 18.7909 43.7729 18.3817 43.6087 18.5454C43.4444 18.7909 43.1981 18.7909 43.0338 18.7909C42.7874 18.7909 42.3768 18.9546 42.2126 18.6272C42.2126 18.6272 42.2947 18.5454 42.3768 18.5454L41.8841 18.3817H41.8019V18.4635C41.6377 18.7909 41.3092 18.4635 41.0628 18.5454C40.8985 18.6272 40.57 18.6272 40.3237 18.6272C40.1594 18.6272 39.913 18.7909 39.913 18.4635C39.913 18.4635 39.8309 18.3817 39.7488 18.3817C39.6667 18.3817 39.5024 18.4635 39.5024 18.4635C39.4203 18.6272 39.256 18.709 38.9275 18.709C38.599 18.709 38.2705 18.7909 37.942 18.6272C37.4493 18.4635 37.0386 18.6272 36.5459 18.4635C36.2995 18.3817 36.0531 18.3817 35.8068 18.218C35.6425 18.1362 35.8889 18.3817 35.6425 18.3817C35.0676 18.3817 35.5604 17.7269 35.1498 17.8088C34.9855 17.8088 34.657 17.5633 34.5749 17.9725H34.657C34.7391 17.9725 34.7391 18.0543 34.8213 18.0543C35.0676 18.1362 34.9855 18.2998 34.9034 18.4635C34.7391 18.3817 34.4928 18.3817 34.4928 18.2998C34.4928 18.0543 34.2464 18.218 34.1642 18.1362C34.1642 18.218 34.2464 18.218 34.2464 18.2998C34.2464 18.2998 34.2464 18.2998 34.1642 18.2998H33.343L33.6715 18.1362C33.4251 18.1362 33.0966 18.2998 33.0145 18.218C32.7681 18.0543 32.4396 18.3817 32.3575 18.0543C32.2754 18.0543 32.1932 18.2998 32.029 18.0543C31.9469 18.2998 31.5362 17.8088 31.4541 18.218C31.4541 18.218 31.2077 18.218 31.0435 18.218L29.8116 18.0543C30.058 17.8088 29.5652 17.8088 29.6473 17.6451C29.6473 17.6451 29.6473 17.5633 29.5652 17.5633V17.6451C29.1546 17.2359 29.0725 17.7269 28.8261 17.8088C28.744 17.6451 28.6618 17.5633 28.4155 17.5633L28.3333 17.6451C28.4976 17.6451 28.5797 17.9725 28.8261 17.7269C29.0725 17.8088 29.3188 17.8088 29.1546 18.1362C29.1546 18.218 28.9082 18.218 29.1546 18.2998H29.3188C29.2367 18.0543 29.4831 17.8906 29.5652 17.6451C29.5652 17.8088 29.7295 17.9725 29.6473 17.9725C29.401 18.3817 29.0725 18.5454 28.4976 18.4635C28.0048 18.3817 27.4299 18.5454 26.9372 18.5454C26.7729 18.5454 26.6087 18.709 26.6087 18.3817C26.6087 18.4635 26.5266 18.5454 26.5266 18.5454C25.9517 18.2998 25.2947 18.709 24.7198 18.3817H24.6377L24.4734 18.4635C24.5556 18.4635 24.5556 18.4635 24.6377 18.4635C24.6377 18.4635 24.6377 18.4635 24.7198 18.5454C24.6377 18.6272 24.4734 18.6272 24.3913 18.6272C23.9807 18.6272 23.4879 18.709 23.0773 18.709C22.9952 18.709 22.913 18.6272 22.8309 18.6272C22.913 18.6272 23.0773 18.5454 23.1594 18.5454C23.2415 18.5454 23.3237 18.4635 23.4058 18.5454C23.7343 18.6272 23.9807 18.3817 24.3092 18.6272C24.3092 18.5454 24.3913 18.5454 24.3913 18.4635C24.3913 18.218 24.3092 18.3817 24.2271 18.3817C24.1449 18.3817 23.9807 18.4635 23.8986 18.3817C23.8164 18.2998 23.8985 18.1362 23.7343 18.3817C23.6522 18.4635 23.2415 18.4635 22.9952 18.4635C22.5845 18.3817 22.4203 18.7909 22.0918 18.709C21.9275 18.709 21.7633 18.7909 21.599 18.7909C21.1063 18.7909 20.6135 18.8727 20.1208 18.8727C20.0386 18.8727 19.9565 18.7909 19.9565 18.7909C19.8744 18.709 19.8744 18.6272 19.8744 18.5454C19.8744 18.6272 19.8744 18.709 19.8744 18.7909V18.8727C19.8744 18.8727 19.8744 18.8727 19.7923 18.7909L19.7101 18.4635C19.5459 18.5454 19.5459 18.6272 19.628 18.7909L19.5459 18.8727C19.5459 18.8727 19.5459 18.8727 19.4638 18.8727V18.7909C19.5459 18.6272 19.3816 18.5454 19.2174 18.4635C19.1353 18.4635 19.0531 18.3817 19.0531 18.3817L19.1353 18.2998C19.1353 18.2998 19.1353 18.2998 19.1353 18.218C19.0531 18.218 18.971 18.218 18.971 18.218L18.8889 18.2998C18.8889 18.4635 18.971 18.5454 18.971 18.709C18.971 18.8727 18.971 18.9546 18.7246 18.8727C18.6425 18.8727 18.6425 18.7909 18.5604 18.7909C18.3961 19.2001 18.0676 18.8727 17.8213 18.8727C17.4106 18.8727 16.9179 18.709 16.5894 19.2001H16.5072C16.4251 19.2001 16.343 19.0364 16.2609 19.1182C16.0145 19.2001 15.7681 19.2819 15.6039 19.3638C15.2754 19.4456 14.9469 19.5275 14.6184 19.5275C14.5362 19.5275 14.4541 19.4456 14.372 19.3638C14.372 19.1182 14.2899 18.9546 13.9614 19.1182L13.7971 18.9546C13.5507 18.9546 13.3043 18.9546 13.058 19.0364C12.5652 19.1182 12.0725 19.2001 11.4976 19.0364C11.2512 18.9546 10.8406 19.0364 10.5121 18.9546C10.43 18.9546 10.3478 19.1182 10.1836 19.2001C10.3478 19.1182 10.3478 19.6093 10.5942 19.2819C10.7585 19.4456 11.0048 19.1182 11.1691 19.3638C11.1691 19.4456 11.2512 19.5275 11.2512 19.6093C11.087 19.6093 10.9227 19.5275 10.8406 19.5275C10.5942 19.6093 10.2657 19.6911 10.0193 19.8548C9.85507 19.9367 9.77295 19.9367 9.69082 19.773V19.6911C9.69082 19.9367 9.52657 19.8548 9.44444 19.8548C9.44444 19.773 9.44444 19.6911 9.44444 19.6911C9.44444 19.6093 9.36232 19.6093 9.28019 19.6093C9.03382 19.6093 9.03382 19.8548 8.95169 20.0185C8.78744 20.1003 8.62319 20.1003 8.45894 20.1822L8.54106 20.0185C8.45894 20.0185 8.37681 20.0185 8.29469 19.9367H8.21256C7.63768 20.264 7.3913 20.3459 7.0628 20.0185H6.98068C7.22705 20.264 6.89855 20.4277 6.7343 20.5914C6.89855 20.6732 6.98068 20.7551 6.81642 20.8369C6.65217 21.0006 6.32367 21.0824 6.15942 21.2461H6.07729V21.1643C6.07729 21.0824 6.07729 21.0006 6.07729 21.0006C6.07729 21.0006 5.99517 21.0006 5.91304 21.0006C5.91304 21.0824 5.91304 21.1643 5.91304 21.1643C5.83092 21.1643 5.66667 21.1643 5.50241 21.328C5.25604 21.4916 5.33816 21.1643 5.25604 21.2461C5.25604 21.328 5.25604 21.4916 5.17391 21.5735C5.17391 21.6553 5.09179 21.6553 5.09179 21.6553C5.09179 21.6553 5.00966 21.6553 4.92754 21.6553L5.00966 21.5735C5.00966 21.4916 5.09179 21.4916 5.09179 21.4098C5.09179 21.4098 5.09179 21.328 5.09179 21.4098L4.76328 21.6553C4.68116 21.6553 4.43478 21.7372 4.43478 21.819C4.35266 22.0645 4.59903 21.9827 4.68116 21.9827C4.76328 21.9827 4.76328 21.819 4.84541 21.7372C5.09179 21.9009 4.68116 22.0645 4.84541 22.2282C4.59903 22.1464 4.68116 22.5556 4.43478 22.3919C4.43478 22.3919 4.43478 22.3919 4.35266 22.3919C4.35266 22.4737 4.35266 22.5556 4.35266 22.6374C4.35266 22.7193 4.43478 22.7193 4.43478 22.8011L4.51691 22.9648L4.35266 22.883L4.43478 22.8011V22.7193C4.35266 22.7193 4.27053 22.6374 4.18841 22.5556L4.10628 22.8011L4.18841 22.7193L4.27053 22.8011C4.27053 22.9648 4.18841 23.0466 4.18841 23.2103C4.18841 23.1285 4.18841 23.1285 4.10628 23.0466C4.10628 22.9648 3.94203 22.9648 3.8599 23.0466C3.69565 23.1285 3.69565 23.0466 3.69565 22.9648C3.69565 22.883 3.77778 22.8011 3.8599 22.7193C3.77778 22.7193 3.77778 22.8011 3.69565 22.8011C3.28502 22.883 3.61353 22.9648 3.61353 23.1285C3.61353 23.5377 3.12077 23.374 3.03865 23.6195C2.95652 23.6195 2.71014 23.6195 2.79227 23.8651C2.8744 23.9469 2.79227 24.1106 2.62802 24.1106C2.62802 24.3561 2.62802 24.6835 2.71014 24.929V25.0108C2.54589 25.0108 2.46377 24.929 2.29952 24.929C2.38164 24.8471 2.38164 24.7653 2.46377 24.7653C2.71014 24.6835 2.46377 24.5198 2.54589 24.3561C2.46377 24.2743 2.38164 24.3561 2.29952 24.3561C1.80676 24.5198 2.46377 24.5198 2.29952 24.6016C2.29952 24.6016 2.29952 24.6835 2.29952 24.7653C1.97101 25.0927 2.46377 25.2564 2.46377 25.5019C2.46377 25.5837 2.46377 25.6656 2.46377 25.8292C2.38164 25.8292 2.38164 25.8292 2.29952 25.8292C1.97101 25.5837 1.88889 25.9929 1.64251 26.0748C1.39614 26.0748 1.14976 26.2385 1.06763 26.6477C1.06763 26.7295 0.985507 26.8113 0.985507 26.8932C0.985507 26.975 1.06763 26.975 1.06763 27.0569C1.06763 26.6477 1.72464 26.8113 1.64251 26.3203C1.64251 26.2385 1.64251 26.2385 1.72464 26.1566C1.80676 26.3203 1.80676 26.4021 1.88889 26.5658L1.72464 26.6477C1.72464 26.6477 1.72464 26.6477 1.64251 26.6477C1.64251 26.7295 1.64251 26.8113 1.72464 26.8113C1.80676 26.8932 1.88889 26.975 1.88889 27.0569C1.88889 27.1387 1.80676 27.2206 1.72464 27.2206C1.72464 27.1387 1.72464 27.0569 1.72464 26.975C1.72464 26.975 1.64251 26.8113 1.56039 26.975C1.56039 27.1387 1.64251 27.3024 1.64251 27.4661L1.56039 27.5479C1.72464 27.7116 1.56039 27.8753 1.47826 27.8753C1.23188 28.039 0.985507 27.9571 0.985507 27.6298C0.985507 27.5479 1.06763 27.5479 1.14976 27.4661C1.06763 27.4661 0.985507 27.4661 0.985507 27.4661C0.985507 27.5479 0.821256 27.7934 0.903382 27.8753C1.06763 28.1208 1.23188 28.2845 0.903382 28.53H0.985507C1.06763 28.4482 1.23188 28.2845 1.23188 28.2026C1.23188 28.039 1.23188 28.039 1.31401 28.1208C1.31401 28.1208 1.31401 28.2026 1.39614 28.2845C1.47826 28.3663 1.39614 27.9571 1.47826 28.2026C1.47826 28.2026 1.80676 28.2845 1.47826 28.3663C1.47826 28.3663 1.39614 28.6119 1.47826 28.6119C1.64251 28.6937 1.23188 29.0211 1.64251 29.0211C1.64251 29.0211 1.72464 29.1029 1.72464 29.1847C1.80676 29.5121 1.97101 29.7576 1.88889 30.085C1.88889 30.1668 1.88889 30.1668 1.88889 30.2487H1.80676C1.39614 29.9213 1.56039 30.3305 1.47826 30.576C1.47826 30.4942 1.47826 30.4124 1.47826 30.3305C1.31401 30.0032 1.39614 30.3305 1.23188 30.3305L1.31401 30.8216L0.903382 30.6579C0.985507 30.9034 0.574879 31.0671 0.821256 31.3126C0.985507 31.4763 1.23188 30.9853 1.39614 31.3945C1.39614 31.3945 1.39614 31.3126 1.47826 31.3126C1.72464 31.0671 1.23188 30.9853 1.39614 30.8216L1.47826 30.9853L1.56039 30.576C1.72464 30.9034 1.80676 30.576 1.88889 30.4942C1.88889 30.4942 1.88889 30.4942 1.97101 30.4942V30.576C2.05314 30.9853 1.88889 31.3945 2.13527 31.7218V31.8037C2.05314 31.8037 2.05314 31.8855 1.97101 31.8855C1.97101 31.8855 1.88889 31.8855 1.88889 31.8037L1.80676 32.2947C1.88889 32.2947 1.88889 32.2947 1.97101 32.2947H2.05314C2.05314 32.6221 2.13527 32.8676 2.13527 33.195C2.21739 33.5223 1.97101 33.8497 2.13527 34.0952C2.05314 34.0952 1.97101 34.0952 1.97101 34.0134C1.72464 34.0134 1.64251 33.9315 1.64251 33.7679C1.72464 34.0134 1.23188 33.686 1.39614 34.0952C1.39614 34.0952 1.39614 34.1771 1.47826 34.1771C1.47826 34.1771 1.47826 34.1771 1.56039 34.0952C1.64251 34.0134 1.64251 34.0134 1.72464 34.0134C1.47826 34.0134 1.80676 34.1771 1.64251 34.2589C1.56039 34.2589 1.47826 34.3408 1.47826 34.4226C1.47826 34.5044 1.56039 34.5863 1.56039 34.5863C1.64251 34.5863 1.72464 34.5863 1.80676 34.5863C1.80676 34.5863 1.80676 34.5863 1.88889 34.5044V34.5863C1.88889 34.75 1.88889 34.8318 1.80676 34.9955C1.80676 35.241 1.64251 35.3229 1.64251 35.4047C1.72464 35.6502 1.64251 35.241 1.80676 35.3229C2.05314 35.6502 1.97101 35.9776 1.88889 36.3049C1.88889 36.7142 1.72464 37.1234 1.47826 37.4507C1.39614 37.6963 1.56039 37.7781 1.56039 37.8599L1.80676 37.7781C1.80676 37.6963 1.72464 37.5326 1.72464 37.4507C1.72464 37.3689 1.64251 37.3689 1.64251 37.287C1.72464 37.287 1.72464 37.287 1.80676 37.287C1.88889 37.3689 2.05314 37.4507 2.05314 37.5326C1.88889 38.1055 2.05314 38.6784 1.97101 39.2512C1.97101 39.4149 1.88889 39.5786 1.88889 39.6604C1.88889 39.7423 1.97101 39.906 1.97101 39.9878L1.88889 40.0697C1.80676 39.9878 1.72464 39.906 1.64251 39.906C1.64251 40.0697 1.64251 40.1515 1.72464 40.2333C1.80676 40.3152 1.80676 40.397 1.88889 40.4789L1.97101 40.5607C1.64251 41.0518 2.13527 41.5428 1.88889 42.0338V42.1157C1.80676 41.952 1.72464 41.7065 1.72464 41.7883C1.64251 42.0339 1.64251 42.3612 1.64251 42.6886C1.64251 42.7704 1.80676 42.9341 1.88889 43.0159H1.97101V43.4252C1.97101 43.507 1.97101 43.5888 1.97101 43.6707L1.88889 43.507C1.88889 43.507 1.88889 43.507 1.80676 43.507C1.80676 43.5888 1.80676 43.7525 1.88889 43.8344H1.97101C1.97101 43.8344 1.97101 43.7525 2.05314 43.7525L2.13527 43.8344C2.21739 44.1617 2.46377 44.3254 2.71014 44.6528C2.79227 44.7346 2.79227 44.8983 2.8744 45.062C2.8744 45.062 2.8744 45.1438 2.95652 45.1438H3.03865C3.28502 44.8165 3.2029 45.3075 3.36715 45.3075L3.44928 45.4712V45.553L3.5314 45.4712V45.3894V45.3075H3.61353C3.77778 45.4712 3.94203 45.553 4.10628 45.7986C4.27053 46.0441 3.77778 45.7167 3.8599 45.9622C3.8599 46.0441 3.8599 46.0441 3.8599 46.1259C3.94203 46.2078 4.10628 46.2896 4.18841 46.3714L3.94203 47.1899C3.77778 47.108 3.61353 47.108 3.44928 47.108C3.36715 47.108 2.71014 47.0262 2.79227 46.617C2.38164 46.6988 2.38164 46.2078 2.05314 46.1259C1.97101 46.1259 1.88889 46.0441 1.88889 45.9622L2.05314 45.7986H2.13527L2.05314 45.7167C1.97101 45.7167 1.88889 45.7167 1.88889 45.7167C1.97101 45.8804 1.88889 45.8804 1.72464 45.7986C1.72464 45.7986 1.47826 45.7167 1.64251 45.6349C1.56039 45.553 1.47826 45.553 1.39614 45.4712L1.31401 45.553C1.06763 45.4712 0.903382 45.3075 0.73913 45.1438C0.574879 44.9801 0.492754 44.7346 0.410628 44.5709C0.328502 44.3254 0.328502 44.0799 0.328502 43.8344V43.507L0.410628 43.2615C0.492754 43.0159 0.246377 42.6886 0.328502 42.5249C0.492754 42.2794 0.246377 42.1157 0.328502 41.952C0.410628 41.7883 0.328502 41.5428 0.410628 41.3791C0.410628 40.9699 0.246377 40.5607 0.410628 40.0697C0.492754 39.8241 0.574879 39.3331 0.246377 39.0057C0.164251 38.9239 0.246377 38.5147 0.328502 38.2691C0.410628 37.9418 0.492754 37.5326 0.574879 37.2052C0.0821256 37.1234 0.328502 36.7142 0.246377 36.4686C0.0821256 35.8957 0.328502 35.5684 0 35.241V35.1592L0.492754 35.241C0.492754 35.241 0.492754 35.241 0.574879 35.3229V35.241C0.410628 35.0773 0.246377 34.9136 0.0821256 34.75L0 34.6681V34.5863L0.0821256 34.6681C0.164251 34.6681 0.246377 34.6681 0.246377 34.6681C0.246377 34.5044 0.246377 34.4226 0.246377 34.2589C0.246377 34.0952 0.0821256 34.0134 0.0821256 33.8497C0 33.3587 0 32.8676 0.164251 32.3766C0.246377 32.0492 -0.0821256 31.7218 0.164251 31.3945C0.246377 31.3126 0.328502 31.3126 0.410628 31.2308C0.574879 31.3126 0.410628 31.3945 0.410628 31.3945C0.0821256 31.5581 0.410628 31.4763 0.492754 31.4763C0.492754 31.4763 0.492754 31.4763 0.410628 31.4763H0.492754V31.3945C0.492754 31.2308 0.574879 31.0671 0.574879 30.9853C0.574879 30.9853 0.492754 30.9034 0.410628 30.9034V31.1489C0.328502 31.0671 0.246377 30.9853 0.246377 30.9034C0.328502 30.6579 0.246377 30.4124 0.492754 30.2487C0.574879 30.2487 0.574879 30.0032 0.574879 29.8395C0.574879 29.8395 0.492754 29.7576 0.492754 29.8395C0.410628 29.8395 0.246377 29.8395 0.328502 30.085V30.1668C0.246377 30.085 0.164251 29.9213 0.164251 29.8395V29.1029V28.2845C0.164251 28.2026 0.164251 28.1208 0.164251 27.9571V28.2026L0.246377 28.1208C0.246377 27.9571 0.164251 27.8753 0.164251 27.7116C0.246377 27.3024 0.246377 26.975 0.410628 26.5658C0.574879 26.2385 0.657005 25.8292 0.73913 25.42C1.06763 24.6835 1.39614 23.9469 1.88889 23.2103C1.97101 23.0466 2.13527 22.8011 2.21739 22.6374C2.38164 22.5556 2.46377 22.3919 2.62802 22.1464C2.8744 21.9009 3.12077 21.6553 3.36715 21.4098C3.61353 21.1643 3.8599 21.0006 4.18841 20.7551C4.27053 20.6732 4.59903 20.5914 4.51691 20.3459C5.17391 20.264 5.50242 19.6093 6.07729 19.6093C6.4058 19.6093 6.48792 19.2819 6.7343 19.2001C7.0628 19.1182 7.3913 18.9546 7.80193 18.7909C8.21256 18.6272 8.54106 18.5454 8.95169 18.5454C9.28019 18.5454 9.6087 18.218 10.0193 18.3817C10.0193 18.3817 10.1836 18.1362 10.43 18.0543C10.8406 18.0543 11.2512 17.8088 11.744 17.8906C11.9903 17.9725 12.3188 17.8088 12.5652 17.6451C12.8937 17.3996 12.5652 18.0543 12.8937 17.8088H12.9758C13.058 17.7269 13.058 17.6451 13.1401 17.6451C13.2222 17.6451 13.3043 17.7269 13.3043 17.7269C13.4686 17.8088 13.715 17.9725 13.8792 17.9725C14.2899 17.8906 14.7005 17.7269 15.029 17.5633C15.2754 17.3996 15.1932 17.6451 15.1932 17.6451C15.4396 17.8088 15.7681 17.3177 15.9324 17.6451C15.9324 17.3996 16.4251 17.7269 16.343 17.3996C16.343 17.3996 16.4251 17.3177 16.5072 17.3177L16.5894 17.4814C16.7536 17.3996 17 17.0722 17.1642 17.4814C17.2464 17.8906 17.2464 17.3996 17.3285 17.4814C17.4106 17.5633 17.4928 17.5633 17.5749 17.5633L17.657 17.4814C17.7391 17.5633 17.8213 17.5633 17.8213 17.6451C17.7391 17.6451 17.657 17.6451 17.657 17.7269C17.657 17.7269 17.657 17.8088 17.5749 17.8088H17.657L17.8213 17.8906C17.4928 17.6451 18.5604 18.0543 17.9855 17.6451C17.9855 17.6451 17.9034 17.4814 17.9855 17.4814C18.0676 17.4814 18.2319 17.3996 18.314 17.3996C18.3961 17.3996 18.3961 17.3996 18.4783 17.3996C18.3961 17.3177 18.3961 17.3177 18.314 17.2359L18.2319 17.1541H18.314C18.3961 17.2359 18.5604 17.2359 18.6425 17.3177V17.3996C18.7246 17.3177 18.8889 17.2359 18.8889 17.3177C19.0531 17.3996 19.1353 17.3177 19.2995 17.3177L19.3816 17.3996C19.4638 17.2359 19.5459 17.2359 19.628 17.1541C19.628 17.1541 19.628 17.0722 19.7101 16.9904C19.7923 16.9904 19.8744 16.9904 19.8744 17.0722C19.8744 17.0722 19.8744 17.1541 19.8744 17.2359V17.3177C19.8744 17.2359 19.9565 17.2359 19.9565 17.2359C19.9565 17.1541 20.285 17.3177 20.1208 17.0722V16.9904L20.5314 17.0722C20.6135 16.663 20.942 17.4814 21.0242 16.9904C21.0242 16.9904 21.1063 16.9904 21.1884 16.9904C20.942 17.0722 21.599 16.9904 21.2705 17.1541C21.2705 17.1541 21.2705 17.1541 21.1884 17.2359C21.1884 17.2359 21.1884 17.2359 21.2705 17.2359C21.4348 17.2359 21.599 17.3177 21.6812 17.2359C21.8454 17.1541 22.256 16.9085 22.4203 16.9904C22.5024 16.9904 22.4203 17.2359 22.4203 17.2359C22.5845 17.3996 22.5024 17.3177 22.5024 17.1541C22.5024 17.0722 22.5845 16.9085 22.5845 16.9085C23.1594 16.9085 23.7343 16.663 24.3092 16.9085H24.3913V16.8267C24.3913 16.7448 24.3913 16.7448 24.3092 16.663H24.4734L24.3913 16.7448V16.8267C24.5556 16.9085 24.7198 16.9904 24.8841 16.9904C24.9662 16.9904 25.0483 16.9904 25.1304 16.9904C25.1304 16.9904 25.2126 17.0722 25.2126 17.1541C25.2947 17.1541 25.2126 17.2359 25.1304 17.2359L25.2126 17.3996L24.8019 17.6451H25.2126C25.2947 17.6451 25.4589 17.6451 25.4589 17.6451C25.4589 17.4814 25.3768 17.4814 25.2126 17.4814C25.4589 17.2359 25.5411 16.9904 25.7874 16.8267C25.7874 16.8267 25.9517 16.9085 26.0338 16.9085C26.4444 16.9904 26.4444 16.4175 26.8551 16.4175C26.9372 16.4993 27.0193 16.4175 27.1014 16.4175C27.1836 16.4175 27.2657 16.4993 27.2657 16.5812C27.1836 16.5812 27.0193 16.5812 26.9372 16.5812V16.663C27.0193 16.5812 27.1014 16.663 27.1836 16.7448C27.4299 16.7448 27.6763 16.7448 27.9227 16.7448H28.087L28.0048 16.8267V16.9085H28.3333C28.3333 16.9085 28.2512 16.9085 28.2512 16.8267C28.2512 16.7448 28.1691 16.663 28.1691 16.663C28.2512 16.663 28.4155 16.5812 28.4976 16.5812C28.9082 16.4993 29.3188 16.4993 29.7295 16.4993C30.1401 16.4993 30.5507 16.5812 30.9614 16.5812C31.2077 16.5812 31.4541 16.4993 31.7005 16.4993C31.9469 16.4993 32.2754 16.5812 32.5217 16.7448C32.9324 16.9904 33.4251 16.8267 33.8357 16.9085C33.9179 16.9085 34.0821 16.7448 34.1642 16.663C34.2464 16.9085 34.4928 16.9085 34.657 16.9904C34.7391 17.0722 34.8213 17.1541 34.9034 17.2359L34.657 17.3996L35.0676 17.5633L34.9855 17.2359C34.9855 16.5812 35.3961 17.1541 35.6425 17.0722C35.7246 16.9904 35.8068 16.9085 35.8889 16.9085C35.971 16.9904 35.971 17.1541 36.0531 16.9085C36.0531 16.8267 36.2174 16.8267 36.2995 16.8267C36.2174 16.9085 36.2174 16.9085 36.4638 17.0722C36.4638 17.1541 36.4638 17.2359 36.3816 17.2359L36.7101 17.1541C36.7923 17.2359 36.8744 17.2359 36.9565 17.3177C37.0386 17.3177 37.1208 17.3177 37.2029 17.3177C37.285 17.2359 37.285 17.1541 37.3671 17.0722C37.285 17.0722 37.1208 17.1541 37.0386 17.1541L36.7101 17.2359C36.628 17.1541 36.5459 17.1541 36.4638 17.0722C36.4638 16.9904 36.4638 16.9085 36.2995 16.8267C36.7101 16.8267 37.1208 17.1541 37.5314 16.9085C37.3671 17.1541 37.6135 17.2359 37.7778 17.3177H37.8599C37.7778 16.5812 38.3527 17.2359 38.599 17.0722C38.8454 16.8267 39.1739 17.3996 39.5024 17.0722C39.5845 17.3996 39.913 17.3177 40.1594 17.3177C40.3237 17.3177 40.4879 17.3177 40.6522 17.3996L40.8164 17.8088C40.8164 17.6451 40.7343 17.5633 40.7343 17.3996C40.7343 17.2359 40.8985 17.0722 40.9807 16.9904C41.3913 16.9085 41.8841 16.9904 42.2947 16.9085C42.6232 16.8267 42.7053 17.2359 42.8696 17.0722C43.1981 16.663 43.1981 17.2359 43.5266 17.1541C43.8551 16.9904 43.2802 17.0722 43.4444 16.9085C43.4444 16.9085 43.1981 16.663 43.3623 16.663C43.6908 16.663 44.0193 16.4993 44.3478 16.7448C44.4299 16.8267 44.5121 16.9085 44.5942 17.0722C44.5942 16.9085 44.9227 16.9904 44.8406 16.8267C44.9227 16.8267 45.087 16.8267 45.1691 16.7448C45.4976 16.5812 45.8261 16.9085 46.1546 16.8267C46.0725 17.0722 46.3188 16.9904 46.3188 16.9904C46.0725 16.4175 46.6473 16.7448 46.7295 16.7448C46.9758 16.7448 47.3043 16.8267 47.5507 16.9085C47.7971 17.0722 47.3043 16.9085 47.3865 17.0722C47.3043 17.0722 47.1401 17.0722 47.2222 17.2359C47.3043 17.3177 47.5507 17.2359 47.6328 17.1541C47.9613 16.9085 48.372 16.9085 48.7826 16.9085C49.1111 16.9085 49.4396 16.8267 49.7681 16.7448C50.0145 16.663 50.1787 16.7448 50.343 16.9904C50.343 17.0722 50.6715 16.9085 50.7536 16.9085C51.0821 17.0722 51.3285 16.4175 51.657 16.8267C51.9855 16.3356 51.9034 17.1541 52.0676 16.9085H52.1498C52.0676 16.8267 51.8213 16.663 51.9855 16.663C52.314 16.5812 52.6425 16.4993 53.0531 16.663C53.2174 16.7448 53.4638 16.7448 53.628 16.7448C53.8744 16.7448 54.0386 16.7448 54.2029 16.8267C54.4493 16.8267 54.7778 16.7448 55.0242 16.8267C55.1063 16.8267 55.1884 16.7448 55.1884 16.7448C55.1063 16.9085 55.599 16.9904 55.3527 17.2359C55.3527 17.2359 55.0242 17.3177 55.2705 17.4814C55.3527 17.3996 55.4348 17.3177 55.5169 17.2359C55.599 16.9904 56.256 16.9904 56.5024 17.1541H56.6667C56.8309 16.9085 56.9952 16.9085 56.913 17.2359H56.9952C57.0773 17.1541 57.1594 16.9904 57.4058 17.0722C57.3237 16.8267 57.57 16.9085 57.6522 16.9904C57.9807 17.1541 57.8985 16.663 58.1449 16.7448V16.663L58.2271 16.7448C58.3092 16.5812 58.4734 16.4175 58.5556 16.5812C58.7198 16.9904 59.0483 16.7448 59.2126 16.7448C59.3768 16.7448 59.6232 16.4993 59.7874 16.7448C59.9517 16.9085 59.9517 17.1541 59.7874 17.3177C59.7874 17.3996 59.7874 17.4814 59.8696 17.5633C59.8696 17.5633 60.0338 17.5633 60.1159 17.5633C60.0338 17.5633 59.9517 17.5633 59.9517 17.4814C59.9517 17.3177 59.9517 17.2359 60.0338 17.0722C60.1159 16.9904 60.1981 16.9904 60.2802 17.1541C60.2802 17.0722 60.2802 16.9904 60.3623 16.9904C60.6087 16.9085 60.7729 16.9904 61.0193 17.0722C61.1014 17.2359 61.1836 17.2359 61.2657 17.2359C61.2657 17.1541 61.2657 17.0722 61.2657 16.9904L61.3478 16.9085C61.4299 17.2359 61.6763 16.9085 61.8406 17.0722C61.8406 17.1541 61.9227 17.2359 61.9227 17.2359C62.0048 17.3177 62.0048 17.3996 62.0048 17.4814C62.1691 17.3996 62.0048 17.3177 62.0048 17.2359C62.0048 17.0722 62.087 16.9085 62.3333 16.9085C62.3333 17.2359 62.9903 16.7448 62.744 17.2359C62.9082 17.2359 63.1546 17.2359 63.3188 17.1541C63.4831 17.0722 64.1401 16.9085 64.2222 16.9904C64.5507 17.2359 64.8792 16.7448 65.2077 16.9085C65.2898 16.9085 65.2077 16.9904 65.2077 16.9904C64.9613 16.9085 65.1256 17.3177 64.7971 17.1541C64.715 17.2359 64.6328 17.3177 64.5507 17.3996C64.5507 17.5633 64.5507 17.6451 64.5507 17.7269ZM0.821256 39.9878L0.574879 40.4789C0.657005 40.4789 0.821256 40.5607 0.821256 40.4789C0.821256 40.3152 0.903382 40.2333 0.903382 40.0697C0.821256 40.0697 0.821256 40.0697 0.821256 39.9878ZM1.47826 38.842C1.47826 38.9239 1.39614 39.0057 1.56039 39.1694C1.56039 39.1694 1.47826 39.0876 1.56039 39.1694L1.64251 39.2512C1.64251 39.0876 1.80676 38.9239 1.72464 38.842C1.64251 38.5965 1.56039 38.6784 1.47826 38.842ZM1.14976 38.2691L0.903382 38.6784C0.985507 38.6784 1.06763 38.7602 1.14976 38.7602C1.14976 38.6784 1.23188 38.6784 1.23188 38.5965C1.23188 38.5147 1.23188 38.4328 1.14976 38.2691ZM0.903382 37.6963C0.903382 37.8599 0.821256 38.0236 0.821256 38.1055C0.903382 38.2691 0.985507 37.8599 1.06763 38.1055C1.06763 38.0236 1.06763 37.9418 1.06763 37.8599C1.06763 37.8599 1.06763 37.7781 0.903382 37.6963ZM1.31401 36.2231C1.23188 36.3868 1.06763 36.4686 1.06763 36.6323C1.06763 36.7142 1.39614 36.5505 1.14976 36.9597C1.31401 36.9597 1.39614 36.9597 1.56039 36.9597L1.31401 36.2231ZM1.31401 32.7858C1.23188 33.0313 1.06763 33.3587 1.14976 33.5223C1.31401 34.0952 1.39614 33.3587 1.39614 33.3587C1.14976 33.2768 1.39614 33.1131 1.56039 33.0313C1.31401 33.1131 1.39614 32.7039 1.31401 32.7858ZM0.985507 31.64C0.73913 31.7218 0.657005 31.8855 0.657005 32.2947C0.657005 32.2947 0.73913 32.4584 0.821256 32.6221L0.903382 32.2129C0.903382 32.2129 0.903382 32.2129 0.903382 32.131L1.31401 31.8037C1.14976 31.64 1.14976 32.0492 0.985507 31.9674H0.903382C0.903382 31.8855 0.985507 31.8855 0.985507 31.8037C1.06763 31.7218 0.985507 31.64 0.985507 31.64ZM0.574879 26.8932L0.492754 26.975C0.492754 27.1387 0.410628 27.3024 0.492754 27.3842C0.492754 27.5479 0.657005 27.7116 0.73913 27.7934H0.821256C0.821256 27.8753 0.821256 27.7934 0.821256 27.7934C0.657005 27.5479 0.574879 27.3842 0.821256 27.1387C0.821256 27.0569 0.821256 27.0569 0.821256 27.0569C0.821256 27.0569 0.821256 27.0569 0.73913 27.0569C0.657005 27.0569 0.657005 27.0569 0.574879 27.0569V26.975L0.657005 26.8932H0.574879ZM4.27053 22.1464C4.02415 22.1464 4.02415 22.5556 3.69565 22.4737C3.69565 22.5556 3.69565 22.6374 3.77778 22.6374C4.10628 22.8011 4.02415 22.3919 4.18841 22.3101C4.35266 22.2282 4.27053 22.1464 4.27053 22.1464ZM9.9372 19.2001L9.69082 19.1182C9.6087 19.2001 9.44444 19.4456 9.44444 19.1182C9.44444 19.0364 9.36232 18.9546 9.36232 18.8727H9.28019C9.19807 19.0364 9.11594 19.0364 9.03382 18.8727L8.95169 18.9546V19.0364C9.03382 19.1182 9.11594 19.2001 9.19807 19.2819C9.19807 19.3638 9.19807 19.3638 9.19807 19.3638C9.69082 19.5275 9.19807 19.1182 9.52657 19.2819C9.6087 19.3638 9.69082 19.5275 9.77295 19.6093L10.0193 19.5275C10.0193 19.4456 9.9372 19.3638 9.9372 19.2001ZM12.5652 18.6272C12.4831 18.2998 12.401 18.6272 12.3188 18.6272C12.2367 18.6272 12.1546 18.709 12.0725 18.6272C11.8261 19.2001 12.2367 18.8727 12.401 18.8727L12.5652 18.6272ZM13.6328 18.4635C13.3043 18.4635 12.9758 18.4635 12.7295 18.5454C12.6473 18.5454 12.5652 18.709 12.5652 18.709C12.8937 19.1182 13.1401 18.5454 13.1401 18.6272C13.6328 18.709 13.715 18.4635 13.6328 18.4635ZM21.1063 17.3177C21.1884 17.5633 21.4348 17.3996 21.599 17.4814C21.5169 17.4814 21.5169 17.4814 21.4348 17.5633C21.3527 17.5633 21.3527 17.6451 21.3527 17.7269C21.2705 17.9725 21.599 17.9725 21.6812 18.0543C21.6812 18.0543 21.7633 18.0543 21.8454 17.9725C21.7633 17.9725 21.7633 17.8906 21.6812 17.8906C21.599 17.8088 21.599 17.8088 21.599 17.7269H21.6812C21.7633 17.7269 21.7633 17.7269 21.8454 17.7269V17.6451C21.7633 17.6451 21.6812 17.5633 21.599 17.5633C21.5169 17.3996 21.4348 17.2359 21.1884 17.2359C21.1884 17.2359 21.0242 17.3177 21.1063 17.3177ZM21.9275 18.2998C21.6812 18.218 21.4348 18.1362 21.1884 18.0543C21.1063 18.0543 21.1063 18.0543 21.0242 18.1362C21.2705 18.3817 21.6812 18.1362 21.9275 18.2998ZM32.2754 17.6451C32.1111 17.6451 32.2754 17.5633 32.4396 17.4814C32.1932 17.4814 32.1111 17.4814 31.9469 17.5633C32.1932 17.7269 32.2754 18.1362 32.5217 18.0543C32.7681 17.8906 32.686 17.6451 32.2754 17.6451ZM38.9275 17.8906C38.6812 17.8088 38.4348 17.7269 38.2705 17.7269C38.1884 17.7269 38.1063 17.8906 38.0242 17.8906C38.2705 17.8906 38.5169 17.9725 38.7633 17.9725C38.7633 17.9725 38.8454 17.8906 38.9275 17.8906ZM39.913 17.8088L39.7488 17.6451C39.5845 17.9725 39.3382 17.7269 39.0918 17.7269C38.8454 17.8906 39.1739 18.0543 39.256 18.0543C39.5024 18.0543 39.6667 17.8906 39.913 17.8088ZM43.3623 18.2998C43.2802 18.2998 43.1981 18.2998 43.1159 18.218H42.7053C42.7874 17.8906 42.5411 18.1362 42.4589 18.0543H42.3768C42.3768 18.1362 42.3768 18.218 42.4589 18.218C42.6232 18.5454 42.9517 18.2998 43.1981 18.2998C43.1981 18.3817 43.1981 18.5454 43.3623 18.2998ZM43.3623 17.8088C43.1159 17.3177 42.7053 17.6451 42.3768 17.5633L43.3623 17.8088C43.2802 17.8088 43.3623 17.8088 43.3623 17.8088ZM43.5266 17.2359C43.3623 17.1541 43.1981 17.0722 43.0338 17.0722C43.0338 17.0722 42.9517 17.1541 42.8696 17.1541C43.0338 17.2359 43.1981 17.3177 43.3623 17.3996C43.3623 17.3996 43.4444 17.3177 43.5266 17.2359ZM45.4155 17.9725C45.3333 17.9725 45.1691 17.9725 45.1691 17.8906C44.9227 17.7269 44.7585 18.0543 44.5121 17.9725V18.0543C44.5942 18.218 44.7584 18.0543 44.8406 18.0543C44.9227 18.0543 45.0048 18.0543 45.0048 18.0543C45.0048 18.1362 44.7584 18.218 45.0048 18.2998C45.087 18.2998 45.2512 18.1362 45.4155 17.9725ZM46.1546 17.8906C45.9903 17.8088 45.9082 17.8088 45.8261 17.7269C45.744 17.8906 46.0725 17.9725 45.9082 18.1362C45.9082 18.1362 45.9082 18.218 45.9082 18.2998C45.9903 18.218 46.0725 18.0543 46.1546 17.8906ZM52.8068 17.3177C52.7246 17.3177 52.5604 17.2359 52.4783 17.1541L52.3961 17.2359C52.314 17.5633 52.5604 17.3996 52.6425 17.4814L52.8068 17.3177ZM57.3237 17.3996C57.1594 17.1541 56.913 17.7269 56.7488 17.3996C56.6667 17.5633 56.7488 17.5633 56.913 17.5633C56.913 17.5633 56.913 17.6451 56.913 17.7269C56.9952 17.5633 57.0773 17.3996 57.3237 17.3996Z" fill="#16DB93"/>
<path d="M21.9243 27.6095H27.8263V29.2735H23.6793V31.5355H27.4103V33.1995H23.6793V36.9175H21.9243V27.6095ZM28.7114 30.5475H30.3104V31.4315H30.4144C30.4924 31.2755 30.5964 31.1325 30.7264 31.0025C30.8564 30.8725 30.9994 30.7598 31.1554 30.6645C31.3201 30.5691 31.4934 30.4955 31.6754 30.4435C31.8661 30.3915 32.0524 30.3655 32.2344 30.3655C32.4597 30.3655 32.6504 30.3871 32.8064 30.4305C32.9711 30.4738 33.1097 30.5301 33.2224 30.5995L32.7674 32.1465C32.6634 32.0945 32.5464 32.0555 32.4164 32.0295C32.2951 31.9948 32.1434 31.9775 31.9614 31.9775C31.7274 31.9775 31.5151 32.0251 31.3244 32.1205C31.1337 32.2071 30.9691 32.3328 30.8304 32.4975C30.7004 32.6621 30.5964 32.8571 30.5184 33.0825C30.4491 33.2991 30.4144 33.5375 30.4144 33.7975V36.9175H28.7114V30.5475ZM39.6438 35.3835C39.3491 35.9035 38.9505 36.3238 38.4478 36.6445C37.9538 36.9651 37.3471 37.1255 36.6278 37.1255C36.1425 37.1255 35.6918 37.0431 35.2758 36.8785C34.8685 36.7051 34.5131 36.4668 34.2098 36.1635C33.9065 35.8601 33.6681 35.5048 33.4948 35.0975C33.3301 34.6815 33.2478 34.2265 33.2478 33.7325C33.2478 33.2731 33.3301 32.8398 33.4948 32.4325C33.6595 32.0165 33.8891 31.6568 34.1838 31.3535C34.4785 31.0415 34.8251 30.7945 35.2238 30.6125C35.6311 30.4305 36.0775 30.3395 36.5628 30.3395C37.0741 30.3395 37.5291 30.4261 37.9278 30.5995C38.3265 30.7641 38.6601 30.9981 38.9288 31.3015C39.1975 31.5961 39.4011 31.9471 39.5398 32.3545C39.6785 32.7618 39.7478 33.2038 39.7478 33.6805C39.7478 33.7411 39.7478 33.7931 39.7478 33.8365C39.7391 33.8885 39.7348 33.9361 39.7348 33.9795C39.7261 34.0228 39.7218 34.0705 39.7218 34.1225H34.9248C34.9595 34.3825 35.0288 34.6078 35.1328 34.7985C35.2455 34.9805 35.3798 35.1365 35.5358 35.2665C35.7005 35.3878 35.8781 35.4788 36.0688 35.5395C36.2595 35.5915 36.4545 35.6175 36.6538 35.6175C37.0438 35.6175 37.3645 35.5308 37.6158 35.3575C37.8758 35.1755 38.0795 34.9501 38.2268 34.6815L39.6438 35.3835ZM38.0968 32.9135C38.0881 32.8008 38.0491 32.6751 37.9798 32.5365C37.9191 32.3978 37.8238 32.2678 37.6938 32.1465C37.5725 32.0251 37.4165 31.9255 37.2258 31.8475C37.0438 31.7695 36.8228 31.7305 36.5628 31.7305C36.1988 31.7305 35.8781 31.8345 35.6008 32.0425C35.3235 32.2505 35.1285 32.5408 35.0158 32.9135H38.0968ZM46.9309 35.3835C46.6362 35.9035 46.2376 36.3238 45.7349 36.6445C45.2409 36.9651 44.6342 37.1255 43.9149 37.1255C43.4296 37.1255 42.9789 37.0431 42.5629 36.8785C42.1556 36.7051 41.8002 36.4668 41.4969 36.1635C41.1936 35.8601 40.9552 35.5048 40.7819 35.0975C40.6172 34.6815 40.5349 34.2265 40.5349 33.7325C40.5349 33.2731 40.6172 32.8398 40.7819 32.4325C40.9466 32.0165 41.1762 31.6568 41.4709 31.3535C41.7656 31.0415 42.1122 30.7945 42.5109 30.6125C42.9182 30.4305 43.3646 30.3395 43.8499 30.3395C44.3612 30.3395 44.8162 30.4261 45.2149 30.5995C45.6136 30.7641 45.9472 30.9981 46.2159 31.3015C46.4846 31.5961 46.6882 31.9471 46.8269 32.3545C46.9656 32.7618 47.0349 33.2038 47.0349 33.6805C47.0349 33.7411 47.0349 33.7931 47.0349 33.8365C47.0262 33.8885 47.0219 33.9361 47.0219 33.9795C47.0132 34.0228 47.0089 34.0705 47.0089 34.1225H42.2119C42.2466 34.3825 42.3159 34.6078 42.4199 34.7985C42.5326 34.9805 42.6669 35.1365 42.8229 35.2665C42.9876 35.3878 43.1652 35.4788 43.3559 35.5395C43.5466 35.5915 43.7416 35.6175 43.9409 35.6175C44.3309 35.6175 44.6516 35.5308 44.9029 35.3575C45.1629 35.1755 45.3666 34.9501 45.5139 34.6815L46.9309 35.3835ZM45.3839 32.9135C45.3752 32.8008 45.3362 32.6751 45.2669 32.5365C45.2062 32.3978 45.1109 32.2678 44.9809 32.1465C44.8596 32.0251 44.7036 31.9255 44.5129 31.8475C44.3309 31.7695 44.1099 31.7305 43.8499 31.7305C43.4859 31.7305 43.1652 31.8345 42.8879 32.0425C42.6106 32.2505 42.4156 32.5408 42.3029 32.9135H45.3839Z" fill="#091929"/>
</g>
<defs>
<clipPath id="clip0">
<rect width="68" height="32" fill="white" transform="translate(0 16.4175)"/>
</clipPath>
</defs>
</svg>
