<svg width="182" height="203" viewBox="0 0 182 203" fill="none" xmlns="http://www.w3.org/2000/svg">
<g clip-path="url(#clip0)">
<path d="M98.587 126.563C94.3873 129.402 89.8667 130.317 85.1314 129.573C76.0766 128.152 69.0329 123.562 64.6118 115.432C62.5376 111.69 62.0333 107.278 63.2096 103.164C64.1959 99.5848 66.6123 97.1393 69.9782 95.6544C73.3255 94.1777 76.845 93.8237 80.2863 95.0215C83.2356 96.048 86.0168 97.5755 88.2433 99.862C90.0229 101.69 91.7941 103.544 93.3952 105.527C94.3602 106.721 95.0381 108.161 95.7657 109.532C97.4752 112.754 99.1383 116.001 101.06 119.305C101.179 118.438 101.39 117.571 101.4 116.702C101.433 113.897 100.602 111.275 99.4632 108.757C96.7198 102.691 92.5504 97.6109 88.2239 92.6403C84.4602 88.3167 80.7325 83.9627 77.7833 79.0137C72.0054 69.3202 70.1679 58.9572 72.3668 47.863C73.7137 41.0678 76.7096 34.9098 79.4955 28.6574C80.5442 26.3043 81.3924 23.8617 82.3367 21.4619C82.4272 21.2873 82.5298 21.1192 82.6436 20.9588L82.8996 21.6867L84.1758 21.0349C84.3946 21.481 84.7719 21.919 84.795 22.3749C84.818 23.0684 84.713 23.7601 84.4851 24.4155C83.8862 26.191 83.1872 27.9326 82.5592 29.6987C81.8418 31.7159 81.1705 33.7496 80.4513 35.7662C80.2768 36.2563 79.9354 36.6885 79.7732 37.181C78.9969 39.5376 78.1492 41.8768 77.5357 44.2757C76.9849 46.4298 76.8068 48.6782 76.2753 50.8386C75.8701 52.4847 75.7898 54.1252 75.7832 55.7896C75.7669 59.7949 76.0118 63.7263 77.3057 67.6077C79.1203 73.051 81.8937 77.9699 85.1274 82.6146C87.0545 85.3827 89.5782 87.7292 91.7428 90.3404C93.9784 93.0374 96.1251 95.8085 98.2667 98.5813C99.3458 99.9785 100.478 101.369 101.315 102.91C102.384 104.876 103.238 106.968 104.071 109.051C104.611 110.402 105.121 111.808 105.341 113.236C105.851 116.549 105.096 119.62 102.946 122.242C102.29 123.042 102.088 123.73 102.41 124.755C104.768 132.298 105.967 140.155 105.968 148.058C105.985 152.792 106.016 157.548 105.6 162.255C105.064 168.326 103.649 174.243 100.935 179.767C100.484 180.665 99.9233 181.504 99.2654 182.263C98.9962 182.578 98.3866 182.602 97.9318 182.758C97.8571 182.334 97.6326 181.866 97.7415 181.496C97.9275 180.865 98.3156 180.292 98.6327 179.702C98.8467 179.304 99.1564 178.944 99.3014 178.524C100.844 174.014 101.844 169.336 102.28 164.589C103.464 152.215 102.577 140.008 99.0665 128.04C98.9364 127.599 98.7825 127.166 98.587 126.563ZM72.7297 53.0455L74.7322 42.5206C74.0019 45.1787 73.3821 47.8703 72.8493 50.579C72.6937 51.3722 72.7842 52.2159 72.7588 53.0375C72.0761 54.5069 72.4428 56.0096 72.6962 57.5081L72.7297 53.0455ZM78.6545 98.1266C78.2653 97.955 77.887 97.7506 77.485 97.6167C71.0082 95.4592 67.1561 99.8443 66.418 104.951C66.1772 106.616 66.4318 108.22 66.7837 109.802C67.0973 111.212 67.4962 112.653 68.1553 113.926C69.8007 117.103 72.2883 119.599 75.1961 121.631C79.2415 124.459 83.5933 126.589 88.6507 126.814C91.6109 126.946 94.4178 126.457 96.9278 124.718C97.6501 124.217 97.7244 123.723 97.449 122.969C95.4229 117.436 93.0086 112.104 89.4314 107.369C86.5116 103.507 83.1477 100.154 78.6545 98.1266ZM96.712 118.429C95.616 115.539 94.7536 112.526 92.4948 110.254C93.9006 112.979 95.3064 115.704 96.712 118.429ZM75.7448 39.2574L75.875 39.2789L78.522 33.2748C78.4817 33.2603 78.4415 33.246 78.4014 33.2314L75.7448 39.2574Z" fill="black"/>
</g>
<defs>
<clipPath id="clip0">
<rect width="166.018" height="124.513" fill="white" transform="translate(0.633789 152.752) rotate(-66.2097)"/>
</clipPath>
</defs>
</svg>
