<svg width="656" height="544" viewBox="0 0 656 544" fill="none" xmlns="http://www.w3.org/2000/svg">
<path d="M56.7021 65C84.7021 109 184.502 224.4 355.702 242C569.702 264 570.702 212 564.702 179C553.939 119.804 450.23 138.045 492.702 206C532.702 270 610.702 263 646.702 339C675.502 399.8 618.702 487 596.702 543" stroke="#091929" stroke-opacity="0.5" stroke-dasharray="4 4"/>
<g clip-path="url(#clip0)">
<path d="M25.3915 69.7771C31.974 65.6589 38.5566 61.5408 45.149 57.4788C51.5628 53.3905 57.9535 49.3351 64.3673 45.2468C66.5847 43.841 68.7789 42.4682 71.2809 40.8673C66.3429 38.9844 61.7719 37.2108 57.1446 35.447C53.8261 34.2061 50.4613 33.0314 47.1562 31.7012C45.8473 31.1783 45.3047 31.39 44.7145 32.6537C43.312 35.5681 41.6782 38.3205 40.2096 41.1886C39.0825 43.3587 37.1726 42.2171 35.5884 42.4386C33.2668 42.5873 30.922 42.769 28.5576 42.8383C27.5159 42.8481 27.0063 43.0829 26.8659 44.2673C26.075 52.4948 25.284 60.7224 24.46 68.9267C24.3765 69.6082 24.177 70.4551 25.3915 69.7771Z" fill="black"/>
<path d="M46.9059 17.8594C45.7906 18.6069 44.6752 19.3545 43.583 20.069C42.7698 19.8935 42.1872 20.3732 41.5617 20.7734C36.3791 23.9489 31.3055 27.25 26.1792 30.4155C25.5769 30.7827 25.1398 31.2656 24.7687 31.7949C19.5265 35.1258 14.294 38.513 9.02858 41.877C8.68772 42.0821 8.37989 42.3103 7.54917 42.8627C17.1989 42.5229 26.2997 42.1929 35.4005 41.8629C38.6668 42.4753 39.8305 40.1828 41.0735 37.8473C45.1941 29.931 49.4137 22.0842 53.7064 13.9927C51.1523 14.9651 49.2485 16.8373 46.9059 17.8594Z" fill="black"/>
<path d="M13.6525 54.5412C15.0881 56.781 16.5236 59.0208 17.9592 61.2606C19.6754 63.9438 21.3915 66.6269 23.1406 69.3332C23.2861 69.3366 23.4218 69.2836 23.5672 69.287C23.728 67.7222 23.8986 66.2136 24.0593 64.6488C24.7457 57.9762 25.376 51.3134 26.1186 44.6308C26.2527 43.2447 25.9356 42.9238 24.5566 42.9931C19.2752 43.287 13.984 43.5247 8.70615 43.6731C7.29408 43.7193 7.27375 44.0997 7.92055 45.1452C9.8279 48.2584 11.7121 51.4048 13.6525 54.5412Z" fill="black"/>
<path d="M54.8711 13.5259C51.9873 18.9048 49.2658 24.0522 46.5443 29.1996C46.1697 29.8744 45.8549 30.3938 46.9986 30.8008C54.8684 33.7029 62.6918 36.6711 70.5153 39.6394C70.6045 39.6526 70.7634 39.5666 71.1471 39.4409C65.7316 30.8588 60.3822 22.323 54.8711 13.5259Z" fill="black"/>
</g>
<defs>
<clipPath id="clip0">
<rect width="63.9114" height="51" fill="white" transform="matrix(-0.574026 0.818837 0.818837 0.574026 36.9316 0.949707)"/>
</clipPath>
</defs>
</svg>
