<svg width="155" height="188" viewBox="0 0 155 188" fill="none" xmlns="http://www.w3.org/2000/svg">
<g clip-path="url(#clip0)">
<path d="M97.4074 109.918C95.574 114.644 92.3805 117.972 88.0658 120.06C79.8153 124.052 71.4113 124.294 63.1456 120.134C59.3086 118.241 56.3797 114.902 55.002 110.852C53.7726 107.348 54.3646 103.962 56.2843 100.823C58.1933 97.7023 60.8836 95.4057 64.394 94.4288C67.4025 93.5915 70.5583 93.2618 73.691 93.8718C76.195 94.3596 78.7071 94.8739 81.1527 95.5907C82.6265 96.0225 84.0038 96.819 85.3832 97.5311C88.6239 99.2044 91.8413 100.925 95.3034 102.544C94.9066 101.764 94.5858 100.932 94.099 100.212C92.5276 97.8886 90.35 96.2071 87.9799 94.7872C82.2687 91.3661 75.9475 89.5675 69.5596 87.9486C64.0028 86.5407 58.4584 85.0872 53.2146 82.7012C42.9427 78.0285 35.5271 70.5601 31.0115 60.1906C28.2458 53.8393 27.1984 47.0717 25.9244 40.3464C25.4452 37.8151 24.7502 35.3246 24.1586 32.8145C24.1334 32.6194 24.1219 32.4228 24.124 32.2261L24.7492 32.6784L25.4264 31.4155C25.8605 31.6574 26.4201 31.8023 26.6989 32.1637C27.113 32.7205 27.4209 33.3488 27.6071 34.0172C28.1269 35.8175 28.545 37.6469 29.0354 39.4561C29.5955 41.5225 30.2028 43.5762 30.7611 45.6432C30.8969 46.1453 30.8627 46.695 31.0101 47.1921C31.7152 49.571 32.3516 51.9763 33.2146 54.2971C33.9897 56.3812 35.1246 58.3302 35.919 60.4084C36.5241 61.992 37.393 63.3857 38.3361 64.7572C40.6053 68.0577 43.047 71.1487 46.3222 73.6007C50.9153 77.0396 55.9974 79.5011 61.3016 81.4749C64.4626 82.6512 67.8737 83.1412 71.1404 84.0534C74.5145 84.9955 77.8577 86.0493 81.1977 87.1073C82.8806 87.6404 84.6034 88.1379 86.1697 88.927C88.1684 89.9336 90.0618 91.1656 91.9332 92.4027C93.147 93.205 94.3674 94.0695 95.3618 95.1176C97.6695 97.55 98.7988 100.503 98.5268 103.883C98.4436 104.914 98.6695 105.595 99.5181 106.253C105.754 111.108 111.218 116.881 115.722 123.375C118.433 127.255 121.169 131.146 123.511 135.25C126.53 140.544 128.739 146.213 129.656 152.299C129.798 153.294 129.815 154.303 129.707 155.302C129.665 155.714 129.178 156.081 128.893 156.468C128.59 156.162 128.139 155.906 128.018 155.54C127.811 154.915 127.803 154.223 127.728 153.558C127.677 153.109 127.726 152.636 127.606 152.209C126.304 147.623 124.459 143.209 122.112 139.06C116.033 128.217 108.348 118.693 98.643 110.859C98.2847 110.57 97.9116 110.303 97.4074 109.918ZM34.2631 64.2424L29.9107 54.4526C30.8254 57.0531 31.85 59.6181 32.9558 62.1475C33.28 62.8879 33.8352 63.5296 34.2825 64.2192C34.5589 65.8157 35.7166 66.8415 36.7788 67.9285L34.2631 64.2424ZM64.8227 97.9103C64.405 97.9911 63.9777 98.0387 63.571 98.1577C57.0194 100.076 56.353 105.874 58.6567 110.491C59.4078 111.997 60.5312 113.17 61.722 114.27C62.783 115.249 63.932 116.206 65.1989 116.876C68.3619 118.55 71.828 119.182 75.3756 119.195C80.3113 119.214 85.1015 118.484 89.3853 115.787C91.8929 114.208 93.9205 112.207 94.992 109.347C95.3004 108.524 95.0798 108.076 94.4241 107.614C89.6057 104.221 84.5832 101.216 78.9456 99.3638C74.3453 97.8539 69.67 97.0154 64.8227 97.9103ZM91.2311 104.303C88.6836 102.553 86.2574 100.568 83.1066 99.9881C85.8148 101.426 88.523 102.864 91.2311 104.303ZM28.8832 51.1941L29.0025 51.1376L27.7559 44.6954C27.7145 44.7064 27.6733 44.7175 27.6321 44.7285L28.8832 51.1941Z" fill="black"/>
</g>
<defs>
<clipPath id="clip0">
<rect width="166.018" height="124.513" fill="white" transform="translate(31.8408 187.26) rotate(-100.952)"/>
</clipPath>
</defs>
</svg>
