<svg width="31" height="43" viewBox="0 0 31 43" fill="none" xmlns="http://www.w3.org/2000/svg">
<g clip-path="url(#clip0)">
<path d="M18.5992 37.1979C17.6987 37.9419 18.3926 39.1614 18.2885 40.3239C18.2258 40.8134 18.1632 41.3029 18.1005 41.7923C17.9188 41.8143 17.781 41.8419 17.5992 41.8638C17.3326 41.1513 17.0162 40.4776 16.8815 39.782C16.3176 36.4988 15.9355 33.1936 15.3219 29.9492C15.0583 28.5134 14.5249 27.0884 13.9859 25.7078C13.1418 23.5646 10.7934 23.0378 8.99857 23.0793C8.68475 23.0844 8.37508 23.4066 7.98877 23.6284C7.41397 22.8765 6.6372 23.0032 5.79933 23.2577C5.14892 23.4458 4.49851 23.6339 3.83256 23.5938C3.47473 23.5933 3.17387 23.1477 2.84452 22.9246C3.09879 22.6858 3.28211 22.3023 3.5633 22.2026C4.91953 21.7431 6.30839 21.3781 7.70294 20.9687C12.4987 19.5023 14.842 14.8274 14.5484 10.1316C14.3832 7.57777 14.13 5.01269 14.0146 2.42002C13.9835 1.96378 14.3926 1.56389 14.6257 1.14147C14.8442 1.53125 15.1621 1.84332 15.2429 2.26069C15.7887 4.6371 16.0973 7.11882 16.8803 9.38991C18.1795 13.2196 21.866 16.2242 26.3458 16.5264C26.61 16.5602 26.8911 16.4605 27.0998 16.5777C27.5612 16.8176 27.9672 17.141 28.3789 17.4198C28.0578 17.831 27.8134 18.3424 27.4214 18.6088C25.8974 19.68 24.1874 20.4561 22.8224 21.6833C19.3409 24.7652 17.9251 28.8352 17.966 33.4083C17.9856 33.9535 17.9556 34.5376 18.0193 35.0885C18.1596 35.7396 18.3937 36.3575 18.5992 37.1979ZM10.2445 21.3846C12.0917 21.9829 14.0439 22.4589 14.9605 24.3853C15.7238 26.1112 16.3436 27.9091 16.9422 29.5235C17.3208 27.2654 18.0572 25.0079 19.5957 23.1245C21.1285 21.2855 22.8587 19.6528 24.3076 18.1197C22.9234 17.3998 21.2197 16.7294 19.8811 15.6535C18.4985 14.572 17.4369 13.0793 16.2091 11.8366C15.0087 17.0196 14.7871 17.3531 10.2445 21.3846Z" fill="#020A13"/>
</g>
<defs>
<clipPath id="clip0">
<rect width="24.673" height="39.9702" fill="white" transform="translate(5.77832 0.00878906) rotate(7.2956)"/>
</clipPath>
</defs>
</svg>
