<?xml version="1.0" encoding="utf-8"?>
<!-- Generator: Adobe Illustrator 17.0.0, SVG Export Plug-In . SVG Version: 6.00 Build 0)  -->
<!DOCTYPE svg PUBLIC "-//W3C//DTD SVG 1.1 Tiny//EN" "http://www.w3.org/Graphics/SVG/1.1/DTD/svg11-tiny.dtd">
<svg version="1.1" baseProfile="tiny" id="Layer_1" xmlns="http://www.w3.org/2000/svg" xmlns:xlink="http://www.w3.org/1999/xlink"
	 x="0px" y="0px" width="540px" height="417px" viewBox="0 0 540 417" xml:space="preserve">
<path d="M0.698,317.101c0-0.68,0.553-1.199,1.203-1.199c0.683,0,1.203,0.551,1.203,1.199c0,0.68-0.553,1.199-1.203,1.199
	C1.251,318.3,0.698,317.781,0.698,317.101z"/>
<path d="M0.698,324.001c0-0.68,0.553-1.198,1.203-1.198c0.683,0,1.203,0.551,1.203,1.198c0,0.681-0.553,1.199-1.203,1.199
	S0.698,324.682,0.698,324.001z"/>
<path d="M0.698,330.902c0-0.681,0.553-1.199,1.203-1.199c0.683,0,1.203,0.551,1.203,1.199c0,0.68-0.553,1.198-1.203,1.198
	S0.698,331.582,0.698,330.902z"/>
<path d="M0.698,337.802c0-0.68,0.553-1.198,1.203-1.198c0.683,0,1.203,0.55,1.203,1.198c0,0.681-0.553,1.199-1.203,1.199
	S0.698,338.483,0.698,337.802z"/>
<path d="M0.698,344.703c0-0.681,0.553-1.199,1.203-1.199c0.683,0,1.203,0.551,1.203,1.199s-0.553,1.198-1.203,1.198
	S0.698,345.383,0.698,344.703z"/>
<path d="M0.698,351.603c0-0.68,0.553-1.199,1.203-1.199c0.683,0,1.203,0.551,1.203,1.199s-0.553,1.199-1.203,1.199
	S0.698,352.283,0.698,351.603z"/>
<path d="M0.698,358.503c0-0.68,0.553-1.198,1.203-1.198c0.683,0,1.203,0.551,1.203,1.198c0,0.648-0.553,1.199-1.203,1.199
	S0.698,359.184,0.698,358.503z"/>
<path d="M7.625,317.101c0-0.68,0.553-1.199,1.203-1.199c0.65,0,1.203,0.551,1.203,1.199c0,0.68-0.553,1.199-1.203,1.199
	C8.178,318.3,7.625,317.781,7.625,317.101z"/>
<path d="M7.625,324.001c0-0.68,0.553-1.198,1.203-1.198c0.65,0,1.203,0.551,1.203,1.198c0,0.681-0.553,1.199-1.203,1.199
	C8.178,325.2,7.625,324.682,7.625,324.001z"/>
<path d="M7.625,330.902c0-0.681,0.553-1.199,1.203-1.199c0.65,0,1.203,0.551,1.203,1.199c0,0.68-0.553,1.198-1.203,1.198
	C8.178,332.1,7.625,331.582,7.625,330.902z"/>
<path d="M7.625,337.802c0-0.68,0.553-1.198,1.203-1.198c0.65,0,1.203,0.55,1.203,1.198c0,0.681-0.553,1.199-1.203,1.199
	C8.178,339.001,7.625,338.483,7.625,337.802z"/>
<path d="M7.625,344.703c0-0.681,0.553-1.199,1.203-1.199c0.65,0,1.203,0.551,1.203,1.199s-0.553,1.198-1.203,1.198
	C8.178,345.901,7.625,345.383,7.625,344.703z"/>
<path d="M7.625,351.603c0-0.68,0.553-1.199,1.203-1.199c0.65,0,1.203,0.551,1.203,1.199s-0.553,1.199-1.203,1.199
	C8.178,352.802,7.625,352.283,7.625,351.603z"/>
<path d="M7.625,358.503c0-0.68,0.553-1.198,1.203-1.198c0.65,0,1.203,0.551,1.203,1.198c0,0.648-0.553,1.199-1.203,1.199
	C8.178,359.702,7.625,359.184,7.625,358.503z"/>
<path d="M14.519,317.101c0-0.68,0.553-1.199,1.203-1.199c0.683,0,1.203,0.551,1.203,1.199c0,0.68-0.553,1.199-1.203,1.199
	C15.04,318.3,14.519,317.781,14.519,317.101z"/>
<path d="M14.519,324.001c0-0.68,0.553-1.198,1.203-1.198c0.683,0,1.203,0.551,1.203,1.198c0,0.681-0.553,1.199-1.203,1.199
	C15.04,325.2,14.519,324.682,14.519,324.001z"/>
<path d="M14.519,330.902c0-0.681,0.553-1.199,1.203-1.199c0.683,0,1.203,0.551,1.203,1.199c0,0.68-0.553,1.198-1.203,1.198
	C15.04,332.1,14.519,331.582,14.519,330.902z"/>
<path d="M14.519,337.802c0-0.68,0.553-1.198,1.203-1.198c0.683,0,1.203,0.55,1.203,1.198c0,0.681-0.553,1.199-1.203,1.199
	C15.04,339.001,14.519,338.483,14.519,337.802z"/>
<path d="M14.519,344.703c0-0.681,0.553-1.199,1.203-1.199c0.683,0,1.203,0.551,1.203,1.199s-0.553,1.198-1.203,1.198
	C15.04,345.901,14.519,345.383,14.519,344.703z"/>
<path d="M14.519,351.603c0-0.68,0.553-1.199,1.203-1.199c0.683,0,1.203,0.551,1.203,1.199s-0.553,1.199-1.203,1.199
	C15.04,352.802,14.519,352.283,14.519,351.603z"/>
<path d="M14.519,358.503c0-0.68,0.553-1.198,1.203-1.198c0.683,0,1.203,0.551,1.203,1.198c0,0.648-0.553,1.199-1.203,1.199
	C15.04,359.702,14.519,359.184,14.519,358.503z"/>
<path d="M21.446,317.101c0-0.68,0.553-1.199,1.203-1.199s1.203,0.551,1.203,1.199c0,0.68-0.553,1.199-1.203,1.199
	S21.446,317.781,21.446,317.101z"/>
<path d="M21.446,324.001c0-0.68,0.553-1.198,1.203-1.198s1.203,0.551,1.203,1.198c0,0.681-0.553,1.199-1.203,1.199
	S21.446,324.682,21.446,324.001z"/>
<path d="M21.446,330.902c0-0.681,0.553-1.199,1.203-1.199s1.203,0.551,1.203,1.199c0,0.68-0.553,1.198-1.203,1.198
	S21.446,331.582,21.446,330.902z"/>
<path d="M21.446,337.802c0-0.68,0.553-1.198,1.203-1.198s1.203,0.55,1.203,1.198c0,0.681-0.553,1.199-1.203,1.199
	S21.446,338.483,21.446,337.802z"/>
<path d="M21.446,344.703c0-0.681,0.553-1.199,1.203-1.199s1.203,0.551,1.203,1.199s-0.553,1.198-1.203,1.198
	S21.446,345.383,21.446,344.703z"/>
<path d="M21.446,351.603c0-0.68,0.553-1.199,1.203-1.199s1.203,0.551,1.203,1.199s-0.553,1.199-1.203,1.199
	S21.446,352.283,21.446,351.603z"/>
<path d="M21.446,358.503c0-0.68,0.553-1.198,1.203-1.198s1.203,0.551,1.203,1.198c0,0.648-0.553,1.199-1.203,1.199
	S21.446,359.184,21.446,358.503z"/>
<path d="M28.373,317.101c0-0.68,0.553-1.199,1.203-1.199c0.683,0,1.203,0.551,1.203,1.199c0,0.68-0.553,1.199-1.203,1.199
	C28.893,318.3,28.373,317.781,28.373,317.101z"/>
<path d="M28.373,324.001c0-0.68,0.553-1.198,1.203-1.198c0.683,0,1.203,0.551,1.203,1.198c0,0.681-0.553,1.199-1.203,1.199
	C28.893,325.2,28.373,324.682,28.373,324.001z"/>
<path d="M28.373,330.902c0-0.681,0.553-1.199,1.203-1.199c0.683,0,1.203,0.551,1.203,1.199c0,0.68-0.553,1.198-1.203,1.198
	C28.893,332.1,28.373,331.582,28.373,330.902z"/>
<path d="M28.373,337.802c0-0.68,0.553-1.198,1.203-1.198c0.683,0,1.203,0.55,1.203,1.198c0,0.681-0.553,1.199-1.203,1.199
	C28.893,339.001,28.373,338.483,28.373,337.802z"/>
<path d="M28.373,344.703c0-0.681,0.553-1.199,1.203-1.199c0.683,0,1.203,0.551,1.203,1.199s-0.553,1.198-1.203,1.198
	C28.893,345.901,28.373,345.383,28.373,344.703z"/>
<path d="M28.373,351.603c0-0.68,0.553-1.199,1.203-1.199c0.683,0,1.203,0.551,1.203,1.199s-0.553,1.199-1.203,1.199
	C28.893,352.802,28.373,352.283,28.373,351.603z"/>
<path d="M28.373,358.503c0-0.68,0.553-1.198,1.203-1.198c0.683,0,1.203,0.551,1.203,1.198c0,0.648-0.553,1.199-1.203,1.199
	C28.893,359.702,28.373,359.184,28.373,358.503z"/>
<path d="M35.234,317.101c0-0.68,0.553-1.199,1.203-1.199c0.683,0,1.203,0.551,1.203,1.199c0,0.68-0.553,1.199-1.203,1.199
	C35.787,318.3,35.234,317.781,35.234,317.101z"/>
<path d="M35.234,324.001c0-0.68,0.553-1.198,1.203-1.198c0.683,0,1.203,0.551,1.203,1.198c0,0.681-0.553,1.199-1.203,1.199
	C35.787,325.2,35.234,324.682,35.234,324.001z"/>
<path d="M35.234,330.902c0-0.681,0.553-1.199,1.203-1.199c0.683,0,1.203,0.551,1.203,1.199c0,0.68-0.553,1.198-1.203,1.198
	C35.787,332.1,35.234,331.582,35.234,330.902z"/>
<path d="M35.234,337.802c0-0.68,0.553-1.198,1.203-1.198c0.683,0,1.203,0.55,1.203,1.198c0,0.681-0.553,1.199-1.203,1.199
	C35.787,339.001,35.234,338.483,35.234,337.802z"/>
<path d="M35.234,344.703c0-0.681,0.553-1.199,1.203-1.199c0.683,0,1.203,0.551,1.203,1.199s-0.553,1.198-1.203,1.198
	C35.787,345.901,35.234,345.383,35.234,344.703z"/>
<path d="M35.234,351.603c0-0.68,0.553-1.199,1.203-1.199c0.683,0,1.203,0.551,1.203,1.199s-0.553,1.199-1.203,1.199
	C35.787,352.802,35.234,352.283,35.234,351.603z"/>
<path d="M35.234,358.503c0-0.68,0.553-1.198,1.203-1.198c0.683,0,1.203,0.551,1.203,1.198c0,0.648-0.553,1.199-1.203,1.199
	C35.787,359.702,35.234,359.184,35.234,358.503z"/>
<path d="M42.194,317.101c0-0.68,0.553-1.199,1.203-1.199c0.65,0,1.203,0.551,1.203,1.199c0,0.68-0.553,1.199-1.203,1.199
	C42.747,318.3,42.194,317.781,42.194,317.101z"/>
<path d="M42.194,324.001c0-0.68,0.553-1.198,1.203-1.198c0.65,0,1.203,0.551,1.203,1.198c0,0.681-0.553,1.199-1.203,1.199
	S42.194,324.682,42.194,324.001z"/>
<path d="M42.194,330.902c0-0.681,0.553-1.199,1.203-1.199c0.65,0,1.203,0.551,1.203,1.199c0,0.68-0.553,1.198-1.203,1.198
	S42.194,331.582,42.194,330.902z"/>
<path d="M42.194,337.802c0-0.68,0.553-1.198,1.203-1.198c0.65,0,1.203,0.55,1.203,1.198c0,0.681-0.553,1.199-1.203,1.199
	S42.194,338.483,42.194,337.802z"/>
<path d="M42.194,344.703c0-0.681,0.553-1.199,1.203-1.199c0.65,0,1.203,0.551,1.203,1.199s-0.553,1.198-1.203,1.198
	S42.194,345.383,42.194,344.703z"/>
<path d="M42.194,351.603c0-0.68,0.553-1.199,1.203-1.199c0.65,0,1.203,0.551,1.203,1.199s-0.553,1.199-1.203,1.199
	S42.194,352.283,42.194,351.603z"/>
<path d="M42.194,358.503c0-0.68,0.553-1.198,1.203-1.198c0.65,0,1.203,0.551,1.203,1.198c0,0.648-0.553,1.199-1.203,1.199
	S42.194,359.184,42.194,358.503z"/>
<path d="M0.698,365.404c0-0.681,0.553-1.199,1.203-1.199c0.683,0,1.203,0.551,1.203,1.199s-0.553,1.198-1.203,1.198
	S0.698,366.084,0.698,365.404z"/>
<path d="M0.698,372.304c0-0.68,0.553-1.198,1.203-1.198c0.683,0,1.203,0.55,1.203,1.198c0,0.681-0.553,1.199-1.203,1.199
	S0.698,372.985,0.698,372.304z"/>
<path d="M0.698,379.205c0-0.681,0.553-1.199,1.203-1.199c0.683,0,1.203,0.551,1.203,1.199c0,0.68-0.553,1.198-1.203,1.198
	C1.251,380.403,0.698,379.885,0.698,379.205z"/>
<path d="M0.698,386.105c0-0.68,0.553-1.199,1.203-1.199c0.683,0,1.203,0.551,1.203,1.199c0,0.68-0.553,1.199-1.203,1.199
	C1.251,387.304,0.698,386.785,0.698,386.105z"/>
<path d="M0.698,393.005c0-0.68,0.553-1.198,1.203-1.198c0.683,0,1.203,0.551,1.203,1.198c0,0.648-0.553,1.199-1.203,1.199
	S0.698,393.686,0.698,393.005z"/>
<path d="M0.698,399.906c0-0.681,0.553-1.199,1.203-1.199c0.683,0,1.203,0.551,1.203,1.199s-0.553,1.198-1.203,1.198
	S0.698,400.586,0.698,399.906z"/>
<path d="M3.139,406.806c0,0.681-0.553,1.199-1.203,1.199c-0.683,0-1.203-0.551-1.203-1.199c0-0.68,0.553-1.198,1.203-1.198
	S3.139,406.126,3.139,406.806z"/>
<path d="M7.625,365.404c0-0.681,0.553-1.199,1.203-1.199c0.65,0,1.203,0.551,1.203,1.199s-0.553,1.198-1.203,1.198
	C8.178,366.602,7.625,366.084,7.625,365.404z"/>
<path d="M7.625,372.304c0-0.68,0.553-1.198,1.203-1.198c0.65,0,1.203,0.55,1.203,1.198c0,0.681-0.553,1.199-1.203,1.199
	C8.178,373.503,7.625,372.985,7.625,372.304z"/>
<path d="M7.625,379.205c0-0.681,0.553-1.199,1.203-1.199c0.65,0,1.203,0.551,1.203,1.199c0,0.68-0.553,1.198-1.203,1.198
	C8.178,380.403,7.625,379.885,7.625,379.205z"/>
<path d="M7.625,386.105c0-0.68,0.553-1.199,1.203-1.199c0.65,0,1.203,0.551,1.203,1.199c0,0.68-0.553,1.199-1.203,1.199
	C8.178,387.304,7.625,386.785,7.625,386.105z"/>
<path d="M7.625,393.005c0-0.68,0.553-1.198,1.203-1.198c0.65,0,1.203,0.551,1.203,1.198c0,0.648-0.553,1.199-1.203,1.199
	C8.178,394.204,7.625,393.686,7.625,393.005z"/>
<path d="M7.625,399.906c0-0.681,0.553-1.199,1.203-1.199c0.65,0,1.203,0.551,1.203,1.199s-0.553,1.198-1.203,1.198
	C8.178,401.104,7.625,400.586,7.625,399.906z"/>
<path d="M7.625,406.806c0-0.68,0.553-1.198,1.203-1.198c0.65,0,1.203,0.55,1.203,1.198c0,0.681-0.553,1.199-1.203,1.199
	C8.178,408.005,7.625,407.487,7.625,406.806z"/>
<path d="M14.519,365.404c0-0.681,0.553-1.199,1.203-1.199c0.683,0,1.203,0.551,1.203,1.199s-0.553,1.198-1.203,1.198
	C15.04,366.602,14.519,366.084,14.519,365.404z"/>
<path d="M14.519,372.304c0-0.68,0.553-1.198,1.203-1.198c0.683,0,1.203,0.55,1.203,1.198c0,0.681-0.553,1.199-1.203,1.199
	C15.04,373.503,14.519,372.985,14.519,372.304z"/>
<path d="M14.519,379.205c0-0.681,0.553-1.199,1.203-1.199c0.683,0,1.203,0.551,1.203,1.199c0,0.68-0.553,1.198-1.203,1.198
	C15.04,380.403,14.519,379.885,14.519,379.205z"/>
<path d="M14.519,386.105c0-0.68,0.553-1.199,1.203-1.199c0.683,0,1.203,0.551,1.203,1.199c0,0.68-0.553,1.199-1.203,1.199
	C15.04,387.304,14.519,386.785,14.519,386.105z"/>
<path d="M14.519,393.005c0-0.68,0.553-1.198,1.203-1.198c0.683,0,1.203,0.551,1.203,1.198c0,0.648-0.553,1.199-1.203,1.199
	C15.04,394.204,14.519,393.686,14.519,393.005z"/>
<path d="M14.519,399.906c0-0.681,0.553-1.199,1.203-1.199c0.683,0,1.203,0.551,1.203,1.199s-0.553,1.198-1.203,1.198
	C15.04,401.104,14.519,400.586,14.519,399.906z"/>
<path d="M14.519,406.806c0-0.68,0.553-1.198,1.203-1.198c0.683,0,1.203,0.55,1.203,1.198c0,0.681-0.553,1.199-1.203,1.199
	C15.04,408.005,14.519,407.487,14.519,406.806z"/>
<path d="M21.446,365.404c0-0.681,0.553-1.199,1.203-1.199s1.203,0.551,1.203,1.199s-0.553,1.198-1.203,1.198
	S21.446,366.084,21.446,365.404z"/>
<path d="M21.446,372.304c0-0.68,0.553-1.198,1.203-1.198s1.203,0.55,1.203,1.198c0,0.681-0.553,1.199-1.203,1.199
	S21.446,372.985,21.446,372.304z"/>
<path d="M21.446,379.205c0-0.681,0.553-1.199,1.203-1.199s1.203,0.551,1.203,1.199c0,0.68-0.553,1.198-1.203,1.198
	S21.446,379.885,21.446,379.205z"/>
<path d="M21.446,386.105c0-0.68,0.553-1.199,1.203-1.199s1.203,0.551,1.203,1.199c0,0.68-0.553,1.199-1.203,1.199
	S21.446,386.785,21.446,386.105z"/>
<path d="M21.446,393.005c0-0.68,0.553-1.198,1.203-1.198s1.203,0.551,1.203,1.198c0,0.648-0.553,1.199-1.203,1.199
	S21.446,393.686,21.446,393.005z"/>
<path d="M21.446,399.906c0-0.681,0.553-1.199,1.203-1.199s1.203,0.551,1.203,1.199s-0.553,1.198-1.203,1.198
	S21.446,400.586,21.446,399.906z"/>
<path d="M21.446,406.806c0-0.68,0.553-1.198,1.203-1.198s1.203,0.55,1.203,1.198c0,0.681-0.553,1.199-1.203,1.199
	S21.446,407.487,21.446,406.806z"/>
<path d="M28.373,365.404c0-0.681,0.553-1.199,1.203-1.199c0.683,0,1.203,0.551,1.203,1.199s-0.553,1.198-1.203,1.198
	C28.893,366.602,28.373,366.084,28.373,365.404z"/>
<path d="M28.373,372.304c0-0.68,0.553-1.198,1.203-1.198c0.683,0,1.203,0.55,1.203,1.198c0,0.681-0.553,1.199-1.203,1.199
	C28.893,373.503,28.373,372.985,28.373,372.304z"/>
<path d="M28.373,379.205c0-0.681,0.553-1.199,1.203-1.199c0.683,0,1.203,0.551,1.203,1.199c0,0.68-0.553,1.198-1.203,1.198
	C28.893,380.403,28.373,379.885,28.373,379.205z"/>
<path d="M28.373,386.105c0-0.68,0.553-1.199,1.203-1.199c0.683,0,1.203,0.551,1.203,1.199c0,0.68-0.553,1.199-1.203,1.199
	C28.893,387.304,28.373,386.785,28.373,386.105z"/>
<path d="M28.373,393.005c0-0.68,0.553-1.198,1.203-1.198c0.683,0,1.203,0.551,1.203,1.198c0,0.648-0.553,1.199-1.203,1.199
	C28.893,394.204,28.373,393.686,28.373,393.005z"/>
<path d="M28.373,399.906c0-0.681,0.553-1.199,1.203-1.199c0.683,0,1.203,0.551,1.203,1.199s-0.553,1.198-1.203,1.198
	C28.893,401.104,28.373,400.586,28.373,399.906z"/>
<path d="M28.373,406.806c0-0.68,0.553-1.198,1.203-1.198c0.683,0,1.203,0.55,1.203,1.198c0,0.681-0.553,1.199-1.203,1.199
	C28.893,408.005,28.373,407.487,28.373,406.806z"/>
<path d="M35.234,365.404c0-0.681,0.553-1.199,1.203-1.199c0.683,0,1.203,0.551,1.203,1.199s-0.553,1.198-1.203,1.198
	C35.787,366.602,35.234,366.084,35.234,365.404z"/>
<path d="M35.234,372.304c0-0.68,0.553-1.198,1.203-1.198c0.683,0,1.203,0.55,1.203,1.198c0,0.681-0.553,1.199-1.203,1.199
	C35.787,373.503,35.234,372.985,35.234,372.304z"/>
<path d="M35.234,379.205c0-0.681,0.553-1.199,1.203-1.199c0.683,0,1.203,0.551,1.203,1.199c0,0.68-0.553,1.198-1.203,1.198
	C35.787,380.403,35.234,379.885,35.234,379.205z"/>
<path d="M35.234,386.105c0-0.68,0.553-1.199,1.203-1.199c0.683,0,1.203,0.551,1.203,1.199c0,0.68-0.553,1.199-1.203,1.199
	C35.787,387.304,35.234,386.785,35.234,386.105z"/>
<path d="M35.234,393.005c0-0.68,0.553-1.198,1.203-1.198c0.683,0,1.203,0.551,1.203,1.198c0,0.648-0.553,1.199-1.203,1.199
	C35.787,394.204,35.234,393.686,35.234,393.005z"/>
<path d="M35.234,399.906c0-0.681,0.553-1.199,1.203-1.199c0.683,0,1.203,0.551,1.203,1.199s-0.553,1.198-1.203,1.198
	C35.787,401.104,35.234,400.586,35.234,399.906z"/>
<path d="M35.234,406.806c0-0.68,0.553-1.198,1.203-1.198c0.683,0,1.203,0.55,1.203,1.198c0,0.681-0.553,1.199-1.203,1.199
	C35.787,408.005,35.234,407.487,35.234,406.806z"/>
<path d="M42.194,365.404c0-0.681,0.553-1.199,1.203-1.199c0.65,0,1.203,0.551,1.203,1.199s-0.553,1.198-1.203,1.198
	S42.194,366.084,42.194,365.404z"/>
<path d="M42.194,372.304c0-0.68,0.553-1.198,1.203-1.198c0.65,0,1.203,0.55,1.203,1.198c0,0.681-0.553,1.199-1.203,1.199
	S42.194,372.985,42.194,372.304z"/>
<path d="M42.194,379.205c0-0.681,0.553-1.199,1.203-1.199c0.65,0,1.203,0.551,1.203,1.199c0,0.68-0.553,1.198-1.203,1.198
	C42.747,380.403,42.194,379.885,42.194,379.205z"/>
<path d="M42.194,386.105c0-0.68,0.553-1.199,1.203-1.199c0.65,0,1.203,0.551,1.203,1.199c0,0.68-0.553,1.199-1.203,1.199
	C42.747,387.304,42.194,386.785,42.194,386.105z"/>
<path d="M42.194,393.005c0-0.68,0.553-1.198,1.203-1.198c0.65,0,1.203,0.551,1.203,1.198c0,0.648-0.553,1.199-1.203,1.199
	S42.194,393.686,42.194,393.005z"/>
<path d="M42.194,399.906c0-0.681,0.553-1.199,1.203-1.199c0.65,0,1.203,0.551,1.203,1.199s-0.553,1.198-1.203,1.198
	S42.194,400.586,42.194,399.906z"/>
<path d="M42.194,406.806c0-0.68,0.553-1.198,1.203-1.198c0.65,0,1.203,0.55,1.203,1.198c0,0.681-0.553,1.199-1.203,1.199
	S42.194,407.487,42.194,406.806z"/>
<path fill="#8CECB8" d="M245.282,91.549c-0.277-0.035-0.378,0.093-0.541,0.269c-0.107,0.183-0.277,0.415-0.496,0.584
	c0.54,0.181,0.966,0.151,1.184-0.019C245.616,92.238,245.579,91.868,245.282,91.549z"/>
<path fill="#8CECB8" d="M431.856,209.182c-1.118-3.376-2.949-6.899-5.054-9.809C428.779,202.183,430.538,205.612,431.856,209.182z"
	/>
<path fill="#8CECB8" d="M134.253,258.882c0,0,0.478-0.22,0.9-0.448c0.478-0.221,0.901-0.448,0.901-0.448
	c0.128,0.1,0.28,0.232,0.376,0.357c0.024,0.031,0.049,0.062,0.104,0.069c0.031-0.024,0.031-0.024,0.055,0.007
	c0.032-0.024,0.056,0.007,0.056,0.007c0.024,0.032,0.017,0.087-0.021,0.167c-0.077,0.159-0.271,0.359-0.41,0.566
	c-0.17,0.232-0.333,0.408-0.409,0.567c-0.038,0.08-0.045,0.135,0.01,0.142c0.024,0.031,0.111,0.014,0.253,0.004
	c0.7-0.642,1.136-0.981,1.434-1.112c0.322-0.1,0.506,0.008,0.65,0.195c0.194,0.25,0.325,0.548,0.532,0.686
	c0.287,0.177,0.65,0.195,1.298-0.257c-0.093,0.073-0.076,0.159-0.035,0.277c-0.007,0.055,0.041,0.118,0.034,0.173
	c0.018,0.087,0.066,0.149,0.083,0.236c0.124,0.353,0.092,0.827-0.498,1.483c0.6-0.514,0.999-0.773,1.265-0.88
	c0.291-0.075,0.495-0.134,0.619,0.219c0.245,0.509,0.306,1.361,0.908,1.493c0.838-0.399,0.465-1.009,0.907-2.05
	c0,0,0.159,0.077,0.373,0.16c0.055,0.007,0.135,0.045,0.159,0.076c0.024,0.032,0.08,0.039,0.08,0.039
	c0.024,0.031,0.048,0.062,0.096,0.124c0.09,0.18,0.235,0.368,0.349,0.579c0.462,0.79,0.962,1.5,0.962,1.5
	c-0.021,0.166-0.042,0.332-0.087,0.467c-0.021,0.166-0.011,0.308-0.032,0.474c-0.011,0.308-0.053,0.64-0.144,0.91
	c-0.101,0.578-0.306,1.086-0.49,1.428c-0.431,0.733-1.037,0.853-1.54-0.055c0.227,0.873,0.623,1.964,1.022,3.252
	c0.099,0.322,0.199,0.644,0.323,0.997l0.041,0.118c0.025,0.031,0.08,0.038,0.128,0.1c0.08,0.039,0.183,0.108,0.263,0.146
	c0.183,0.108,0.366,0.215,0.55,0.323c0.732,0.43,1.489,0.892,2.271,1.385c0.207,0.139,0.39,0.246,0.598,0.385l0.311,0.208
	l0.079,0.039l0.024,0.031c0.031-0.024,0.056,0.007,0.087-0.017l0.353-0.124c0.942-0.331,1.908-0.63,2.85-0.96
	c1.939-0.654,3.996-1.35,6.108-2.038c3.153-2.243,6.369-4.535,9.709-6.923c0.835-0.598,1.67-1.195,2.536-1.816
	c0.43-0.283,0.867-0.621,1.296-0.904l0.312-0.242l0.156-0.121l0.163-0.176l0.7-0.642c1.883-1.758,3.827-3.564,5.772-5.371
	c1.945-1.806,3.921-3.636,5.904-5.522c0.481-0.473,1.019-0.939,1.501-1.412l0.762-0.691l0.381-0.345
	c0.125-0.097,0.257-0.249,0.351-0.322c0.786-0.659,1.597-1.287,2.384-1.947c1.629-1.312,3.234-2.655,4.894-3.991
	c0.818-0.684,1.66-1.336,2.478-2.02c0.436-0.338,0.818-0.684,1.254-1.022l0.631-0.539l0.312-0.241
	c0.093-0.073,0.218-0.169,0.281-0.218c2.775-1.701,5.605-3.394,8.474-5.168c0.367-0.234,0.703-0.445,1.094-0.648l0.548-0.325
	c0.18-0.089,0.329-0.155,0.509-0.244c0.658-0.311,1.347-0.645,2.029-0.924l1.012-0.434l1.004-0.379
	c0.682-0.279,1.326-0.478,2.001-0.702c0.676-0.224,1.32-0.423,1.964-0.623c0.644-0.199,1.336-0.336,1.949-0.512l0.983-0.212
	c0.346-0.069,0.637-0.145,1.039-0.206l0.283-0.02c0.031-0.025,0.056,0.007,0.056,0.007l-0.003-0.198l-0.014-0.339l-0.033-0.623
	c-0.006-0.394-0.037-0.82-0.012-1.239c-0.006-0.394-0.019-0.733-0.001-1.097c0.012-0.757,0.002-1.349,0.056-1.989l0.057-0.893
	c0.035-0.277,0.039-0.529,0.074-0.806c0.004-0.253,0.032-0.474,0.06-0.696l0.084-0.664c0.049-0.387,0.161-0.823,0.196-1.1
	c0.021-0.166,0.066-0.301,0.119-0.491c0.014-0.111,0.059-0.246,0.104-0.381l0.052-0.19l0.007-0.055
	c0.118-0.041-1.156,0.247-0.605,0.12l0.055,0.007l0.142-0.01l0.56,0.015l0.253,0.004l0.142-0.011c0.055,0.008,0,0,0,0l-0.024-0.031
	c-0.08-0.038-0.159-0.076-0.208-0.139c-0.024-0.031-0.079-0.038-0.103-0.069l-0.049-0.062c-0.024-0.031-0.024-0.031-0.024-0.031
	l-0.038,0.079l-0.139,0.207l-0.208,0.311c-0.371,0.488-0.999,1.224-1.886,2.011c-0.919,0.811-2.097,1.674-3.458,2.43
	c-0.336,0.21-0.697,0.389-1.033,0.6c-0.36,0.179-0.696,0.39-1.08,0.538c-0.361,0.179-0.721,0.358-1.105,0.506l-0.031,0.025
	c-0.007,0.055,0.058,0.204,0.085,0.432c0.086,0.433,0.144,1.087,0.153,1.679c-0.011,0.308-0.022,0.616-0.026,0.868
	c0.01,0.142-0.028,0.222-0.018,0.364c-0.059,0.245-0.126,0.546-0.161,0.823c-0.367,2.231-1.004,4.372-1.7,6.309
	c-0.205,0.508-0.403,0.961-0.546,1.421c-0.083,0.214-0.167,0.429-0.25,0.643c-0.084,0.215-0.198,0.453-0.306,0.636
	c-0.191,0.398-0.358,0.827-0.487,1.176c-0.128,0.349-0.344,0.716-0.465,1.01c0.862-0.369,1.383-1.372,2.039-2.329
	c0.284-0.47,0.593-0.909,0.95-1.285c0.357-0.377,0.787-0.66,1.282-0.794c0.013,0.339-0.029,0.671-0.095,0.972
	s-0.157,0.571-0.216,0.817c-0.091,0.269-0.174,0.484-0.282,0.667c-0.083,0.214-0.222,0.422-0.33,0.605
	c-0.215,0.366-0.423,0.677-0.552,1.027c-0.128,0.349-0.139,0.657-0.109,1.083c-1.453-0.072-2.269,1.258-3.365,2.807
	c-1.065,1.524-2.404,3.21-4.184,3.49l0.665,1.632l-1.714,0.879c-0.223,0.422-0.469,0.812-0.684,1.179
	c-0.215,0.366-0.431,0.732-0.67,1.068c-0.424,0.677-0.778,1.251-1.125,1.769c-0.669,1.068-1.186,1.818-1.54,2.392
	c-0.764,1.141-1.034,1.5-1.267,1.78c-0.256,0.249-0.475,0.418-1.314,1.267c-0.419,0.425-0.971,1.002-1.747,1.804
	c-0.42,0.424-0.846,0.905-1.366,1.457c-0.552,0.577-1.141,1.234-1.824,1.962c-3.052,3.663-5.141,6.829-6.897,9.587
	c-0.455,0.702-0.903,1.348-1.319,1.97c-0.448,0.646-0.864,1.268-1.305,1.859c-0.881,1.182-1.81,2.302-2.93,3.369
	c0.565-0.688,2.779-1.954,1.293,0.445c-0.325-0.097-0.73,0.217-1.202,0.832s-0.972,1.452-1.503,2.312
	c-0.277,0.415-0.531,0.861-0.808,1.276c-0.278,0.414-0.556,0.829-0.826,1.189c-0.541,0.718-1.054,1.216-1.518,1.326
	c-0.417,0.622-1.041,1.555-1.767,2.616c-0.177,0.287-0.378,0.542-0.555,0.829c-0.246,0.391-0.479,0.671-0.763,1.141
	c-0.531,0.861-1.062,1.721-1.5,2.509c-0.906,1.601-1.666,2.939-1.82,3.707s0.116,0.858,1.152,0.005
	c-0.506,0.442-1.31,1.465-2.192,2.647c-0.44,0.591-0.888,1.237-1.36,1.852c-0.208,0.311-0.447,0.647-0.68,0.926
	c-0.208,0.311-0.385,0.598-0.562,0.885c-1.433,2.209-2.314,3.391-0.92-0.285c-0.521,1.002-1.01,1.981-1.524,2.928
	c-0.261,0.501-0.514,0.947-0.744,1.424c-0.114,0.239-0.229,0.477-0.343,0.716c-0.115,0.239-0.199,0.453-0.313,0.692
	c-0.8,1.867-1.467,3.582-1.878,5.048l2.643-5.092c-0.692,1.684-1.346,3.288-1.985,4.782c-0.084,0.215-0.16,0.374-0.243,0.588
	c-0.053,0.19-0.129,0.349-0.213,0.564c-0.128,0.349-0.264,0.753-0.393,1.103c-0.257,0.698-0.49,1.428-0.772,2.095
	c-0.257,0.699-0.508,1.342-0.734,2.016c-0.226,0.675-0.359,1.277-0.554,1.927c-0.327,1.252-0.648,2.449-0.992,3.614
	c-0.067,0.301-0.188,0.595-0.224,0.872c-0.035,0.277-0.101,0.578-0.136,0.854c-0.07,0.554-0.165,1.076-0.266,1.654
	c-0.165,1.076-0.298,2.128-0.376,3.186c-0.063,2.045,0.023,4.025,0.48,5.967c0,0,0.066-0.301,0.098-0.775
	c0.028-0.221,0.063-0.498,0.099-0.775c0.035-0.276,0.101-0.577,0.167-0.878c0.133-0.602,0.21-1.211,0.329-1.702
	c0.087-0.467,0.153-0.768,0.153-0.768c-0.256,3.792-0.068,7.191,0.103,10.053c0.171,2.862,0.326,5.188-0.103,7.017
	c0,0-0.141-0.439-0.365-1.115c-0.255-0.651-0.474-1.578-0.75-2.513c-0.141-0.44-0.219-0.928-0.336-1.337
	c-0.086-0.432-0.203-0.841-0.271-1.187c-0.138-0.693-0.216-1.181-0.216-1.181c0.293,2.569,0.724,4.93,1.357,7.035
	c0.051,0.259,0.158,0.526,0.21,0.786c0.082,0.235,0.158,0.526,0.241,0.761c0.189,0.502,0.323,0.998,0.512,1.5
	c0.386,0.949,0.741,1.922,1.189,2.822c0.417,0.925,0.896,1.801,1.352,2.647c0.227,0.422,0.51,0.852,0.769,1.25
	c0.259,0.399,0.51,0.852,0.8,1.227c0.259,0.398,0.573,0.804,0.832,1.202s0.636,0.756,0.95,1.161c0.635,0.756,1.326,1.518,1.992,2.25
	c0.632,0.558,1.233,1.14,1.921,1.706c0.656,0.589,1.375,1.13,2.087,1.727c0,0-0.674-0.676-1.323-1.321
	c-0.352-0.326-0.673-0.676-0.898-0.901c-0.249-0.257-0.394-0.444-0.394-0.444c0.304,0.264,0.688,0.565,1.096,0.898
	c0.407,0.333,0.839,0.697,1.351,1.1c0.48,0.426,1.054,0.78,1.62,1.19c0.311,0.208,0.591,0.44,0.902,0.648
	c0.311,0.209,0.654,0.393,0.989,0.632c0.311,0.208,0.677,0.424,1.044,0.639c0.366,0.215,0.708,0.399,1.13,0.621
	c0.367,0.216,0.764,0.407,1.186,0.629c0.398,0.191,0.795,0.382,1.248,0.58c0.82,0.413,1.732,0.754,2.638,1.15
	c0.453,0.199,0.913,0.341,1.397,0.515c0.485,0.174,0.969,0.348,1.46,0.467c3.981,1.208,8.523,1.981,13.496,2.021
	c2.47,0.033,5.042-0.063,7.703-0.428c1.347-0.195,2.662-0.366,3.984-0.592c0.315-0.044,0.662-0.112,1.008-0.181l1.014-0.237
	l2.029-0.474c0.668-0.168,1.36-0.305,2.029-0.473c0.675-0.224,1.374-0.417,2.018-0.616c0.675-0.224,1.344-0.392,2.019-0.616
	l1.021-0.292c0.322-0.1,0.675-0.224,1.004-0.379c1.327-0.478,2.653-0.957,3.955-1.467c0.675-0.223,1.302-0.509,1.929-0.795
	c0.627-0.287,1.278-0.541,1.905-0.827c0.627-0.287,1.278-0.541,1.873-0.803c0.627-0.286,1.23-0.604,1.857-0.89
	c1.198-0.579,2.397-1.158,3.54-1.744c0.571-0.293,1.143-0.586,1.714-0.879c0.603-0.318,1.15-0.642,1.722-0.935
	c0.211-0.114,0.423-0.227,0.665-0.365c0.18-0.09,0.336-0.211,0.516-0.301c0.336-0.21,0.672-0.42,1.008-0.631
	c5.315-3.319,9.051-6.164,10.597-7.711c0,0-1.014,0.237-2.053,0.443c-1.014,0.236-2.053,0.442-2.053,0.442s0.374-0.29,0.912-0.756
	c0.537-0.466,1.254-1.022,1.979-1.633c0.724-0.611,1.417-1.198,1.923-1.64c0.506-0.442,0.881-0.732,0.881-0.732
	c-0.368,0.234-0.512,1.594-0.712,2.947c-0.168,1.328-0.417,2.619-0.866,2.618c0.429-0.283,0.914-0.559,1.43-0.859
	c0.492-0.332,1.071-0.68,1.712-1.077c1.251-0.769,2.633-1.69,4.196-2.701c1.507-1.019,3.163-2.102,4.975-3.306
	c1.726-1.188,3.6-2.44,5.568-3.765c3.936-2.651,8.371-5.688,13.108-9.108c2.356-1.726,4.782-3.556,7.246-5.465
	c2.44-1.94,4.925-4.015,7.337-6.184c2.437-2.137,4.846-4.503,7.145-6.883s4.4-4.757,6.384-7.093
	c3.936-4.647,7.26-9.119,10.143-12.999c2.883-3.881,5.277-7.233,7.271-9.877c1.988-2.588,3.542-4.641,4.62-5.826
	c3.675-3.696,2.266,0.541,2.387,0.697c1.687-2.655,1.809-3.398,1.942-4c0.132-0.602,0.22-1.069,1.916-3.132
	c1.081-0.988,0.645,0.897,0.325,1.644c0.632-0.988,1.409-1.79,1.912-2.429c0.558-0.632,0.874-1.126,0.681-1.376
	c-2.156,1.92-2.724-0.036-4.33,0.21c0,0,1.092-1.296,2.185-2.591c1.068-1.327,2.209-2.56,2.209-2.56l0.614,0.921
	c0.496-0.584,0.557-1.729,1.076-3.379c0.247-0.84,0.643-1.746,1.275-2.734c0.632-0.989,1.475-2.091,2.657-3.207
	c3.845-3.927,7.831-7.865,11.901-11.567c4.069-3.702,8.342-7.013,12.6-9.763c0.1,0.322-0.216,0.817-0.774,1.449
	c-0.132,0.152-0.295,0.328-0.458,0.504s-0.326,0.353-0.52,0.553c-0.357,0.376-0.714,0.753-1.102,1.154
	c0.554-0.38,1.216-0.943,1.919-1.388c0.704-0.445,1.455-0.828,2.068-1.003c-2.613,0.428,3.103-2.953,1.274-2.285
	c0.604-0.767,1.304-1.41,2.036-2.076c0.381-0.345,0.755-0.635,1.161-0.95c0.187-0.145,0.405-0.314,0.592-0.459
	c0.212-0.114,0.43-0.283,0.641-0.396c0.852-0.511,1.736-1.046,2.643-1.549l0.665-0.366c0.212-0.114,0.478-0.22,0.69-0.334
	c0.446-0.197,0.924-0.417,1.371-0.614c0.447-0.196,0.925-0.417,1.372-0.613c0.235-0.083,0.446-0.197,0.682-0.279l0.329-0.155
	l0.298-0.131c0.769-0.296,1.537-0.593,2.275-0.865c0.651-0.254,1.216-0.492,1.662-0.689c0.478-0.22,0.783-0.406,1.071-0.679
	c-0.02-0.284-0.026-1.128,0.049-2.384c0.022-0.616,0.089-1.367,0.219-2.166c0.105-0.831,0.242-1.685,0.455-2.699
	c0.412-1.916,1.142-4.129,2.292-6.318c0.146-0.262,0.323-0.549,0.469-0.812l0.031-0.024c-0.166-0.021-0.056-0.007-0.08-0.038
	l0.031-0.025l0.07-0.103l0.139-0.208l0.277-0.414c0.378-0.543,0.757-1.086,1.135-1.628c0.78-1.054,1.807-2.049,2.85-2.957
	c1.074-0.932,2.246-1.74,3.496-2.509c1.244-0.714,2.591-1.359,3.949-1.862c2.721-1.06,5.626-1.564,8.291-1.732
	c1.332-0.084,2.619-0.033,3.765,0.028c1.169,0.092,2.221,0.226,3.162,0.345c0.443,0.056,0.886,0.112,1.242,0.186
	c0.387,0.049,0.688,0.115,0.965,0.15c0.554,0.07,0.948,0.064,1.073-0.032c2.198,3.288,3.997,7.284,4.876,10.996
	c0.251,0.903,0.391,1.793,0.538,2.627c0.148,0.835,0.247,1.606,0.297,2.316c0.101,1.419,0.103,2.516,0.067,3.242
	c0.132-0.601,0.25-2.19,0.056-4.436c-0.112-1.111-0.289-2.371-0.578-3.645c-0.144-0.637-0.312-1.305-0.505-2.004
	c-0.192-0.7-0.416-1.375-0.671-2.026c-0.254-0.651-0.502-1.357-0.837-2.047l-0.244-0.509l-0.221-0.478
	c-0.155-0.329-0.341-0.634-0.496-0.963c-0.342-0.634-0.683-1.267-1.056-1.877c-0.348-0.579-0.752-1.164-1.132-1.719
	c-0.217-0.28-0.379-0.554-0.597-0.835c-0.193-0.249-0.387-0.499-0.58-0.748c-0.386-0.499-0.78-0.943-1.174-1.387
	c-0.787-0.887-1.54-1.601-2.245-2.253c0,0-0.481,0.023-0.993,0.071c-0.457,0.054-0.969,0.102-0.969,0.102
	c-3.144-2.705-5.008-3.757-6.093-4.514c-1.092-0.701-1.444-1.027-1.741-1.346c-0.322-0.35-0.619-0.669-1.718-1.314
	c-0.549-0.323-1.313-0.73-2.41-1.178c-0.293-0.122-0.563-0.212-0.881-0.365c-0.159-0.076-0.325-0.097-0.484-0.174
	c-0.215-0.083-0.46-0.143-0.73-0.233c-0.484-0.174-1.031-0.3-1.602-0.456c-0.3-0.067-0.57-0.157-0.871-0.223
	c-0.135-0.046-0.301-0.067-0.436-0.112l-0.166-0.021c-0.017-0.087,0.021-0.166,0.052-0.19c0.031-0.025,0.038-0.08,0.07-0.104
	c0,0,0.031-0.024,0.062-0.048l0.031-0.025c0,0,0.056,0.008,0.087-0.017c0.481-0.023,1.232,0.044,2.19,0.25
	c0.467,0.087,1.013,0.213,1.639,0.377c0.436,0.111,0.896,0.254,1.411,0.404c0.516,0.15,1.055,0.331,1.595,0.512
	c0.563,0.212,1.127,0.424,1.739,0.698c2.369,1.06,5.051,2.526,7.688,4.576c2.636,2.05,5.258,4.66,7.508,7.758
	c-1.977-2.81-4.17-5.254-6.395-7.223c-2.225-1.97-4.492-3.608-6.697-4.844c-2.175-1.26-4.312-2.15-6.262-2.735
	c-0.135-0.045-0.246-0.059-0.381-0.104c-0.166-0.021-0.325-0.098-0.46-0.143c-0.325-0.098-0.626-0.164-0.927-0.23
	c-0.602-0.133-1.179-0.234-1.726-0.36c-0.135-0.045-0.277-0.035-0.411-0.08l-0.222-0.028l-0.111-0.014l-0.055-0.007
	c-0.087,0.017-0.142,0.01-0.204,0.058c-0.118,0.041-0.267,0.107-0.385,0.148c-0.135-0.045-0.214-0.083-0.325-0.097l-0.079-0.038
	l-0.024-0.032l-1.014-0.213c-0.111-0.014-0.246-0.059-0.356-0.073c-0.436-0.112-0.817-0.216-1.173-0.289
	c-0.65-0.195-1.086-0.307-1.324-0.422c-0.509-0.205-0.425-0.419-0.404-0.585s0.018-0.363-0.791-0.635
	c-0.405-0.136-0.983-0.237-1.813-0.342c-0.412-0.081-0.886-0.113-1.471-0.159c-0.529-0.039-1.169-0.092-1.871-0.097
	c-0.513,0.048-0.994,0.071-1.506,0.119c-0.512,0.047-1,0.126-1.513,0.173c-0.488,0.079-0.976,0.158-1.495,0.26
	c-0.26,0.052-0.488,0.079-0.748,0.131c-0.259,0.051-0.464,0.109-0.723,0.161c-1.967,0.425-3.805,0.951-5.564,1.516
	c-1.759,0.564-3.352,1.149-4.907,1.655c-1.53,0.537-2.936,0.977-4.272,1.314l0.028-0.221c-1.603,0.443-2.85,0.96-4.121,1.445
	c-1.247,0.517-2.383,1.048-3.495,1.61c-0.273,0.162-0.54,0.269-0.814,0.431c-0.273,0.162-0.516,0.3-0.758,0.438
	c-0.516,0.3-0.977,0.607-1.493,0.907c-0.977,0.608-1.899,1.222-2.821,1.836c-0.46,0.307-0.921,0.614-1.382,0.921
	c-0.437,0.339-0.898,0.646-1.303,0.96c-0.897,0.645-1.795,1.291-2.741,1.874c-0.461,0.307-0.953,0.638-1.437,0.914
	c-0.492,0.332-0.977,0.608-1.469,0.939c-1.009,0.631-2.096,1.224-3.271,1.835l0.712-0.951c-0.863,0.369-1.895,0.969-2.973,1.704
	c-1.053,0.767-2.231,1.63-3.448,2.572c-0.623,0.483-1.247,0.967-1.902,1.474c-0.624,0.483-1.255,1.022-1.91,1.53
	c-1.31,1.015-2.644,1.998-4.026,2.92c0.797-0.518,1.652-0.831,1.922-0.741c0.135,0.045,0.138,0.243-0.071,0.554
	c-0.208,0.311-0.658,0.76-1.366,1.458c-1.514,1.073-2.855,2.112-4.054,3.141c-0.624,0.483-1.2,1.029-1.713,1.526
	c-0.544,0.522-1.081,0.988-1.594,1.485c-1.019,0.94-2.038,1.879-3.019,2.739c-0.957,0.891-1.962,1.72-3.071,2.479
	c0,0-0.177,0.287-0.423,0.677c-0.247,0.391-0.601,0.965-0.924,1.514c-0.645,1.1-1.267,2.23-1.267,2.23
	c-2.136,2.204-4.896,5.341-8.073,9.1c-0.766,0.943-1.595,1.935-2.455,2.951c-0.86,1.015-1.672,2.094-2.571,3.189
	c-0.842,1.102-1.772,2.222-2.653,3.404c-0.881,1.181-1.794,2.387-2.706,3.593c-0.944,1.231-1.832,2.468-2.751,3.729
	c-0.448,0.646-0.951,1.286-1.398,1.932c-0.448,0.646-0.927,1.317-1.398,1.932c-0.927,1.317-1.853,2.633-2.811,3.974
	c-0.895,1.293-1.821,2.609-2.779,3.95c-3.643,5.219-7.203,10.223-10.678,14.563c-1.766,2.166-3.486,4.198-5.202,5.977
	c-1.692,1.81-3.575,3.568-5.512,5.319c-3.9,3.47-8.197,6.75-12.497,9.832c-2.138,1.557-4.262,3.003-6.331,4.456
	c-2.093,1.422-4.068,2.802-5.911,4.031c-3.631,2.464-6.552,4.427-8.693,5.787l0.551-0.577c-3.194,2.126-6.773,4.399-10.559,6.534
	c-0.939,0.528-1.902,1.025-2.872,1.577c-0.243,0.138-0.478,0.22-0.72,0.358c-0.063,0.048-0.063,0.048-0.063,0.048s0,0-0.031,0.025
	l-0.062,0.048l-0.094,0.072c-0.305,0.187-0.634,0.342-0.963,0.497s-0.713,0.303-1.098,0.451c-0.384,0.148-0.793,0.265-1.218,0.296
	c-0.402,0.061-0.852,0.06-1.319-0.027c-0.411-0.08-0.864-0.279-1.193-0.573c-0.328-0.295-0.531-0.686-0.617-1.119
	c-0.117-0.409-0.116-0.859-0.091-1.277c0.081-0.862,0.328-1.702,0.631-2.536c0.167-0.428,0.358-0.826,0.525-1.255
	c0.069-0.104,0.083-0.214,0.153-0.318l0.038-0.079c0,0,0.031-0.025,0.038-0.08l0.07-0.104l0.177-0.287l0.239-0.335
	c0.309-0.439,0.593-0.909,0.902-1.348c0.34-0.463,0.649-0.902,0.958-1.341c2.54-3.615,5.2-7.074,7.715-10.27
	c0.499-0.386,1.029-0.797,1.567-1.263c0.537-0.467,1.074-0.933,1.618-1.454c1.058-1.019,2.184-2.142,3.287-3.295
	c0.551-0.577,1.11-1.21,1.661-1.786c0.551-0.577,1.109-1.21,1.661-1.786c1.109-1.21,2.188-2.394,3.228-3.5
	c-1.269,1.133-1.882,1.308-1.926,0.993c-0.075-0.291,0.4-1.158,1.253-2.119c0.729-0.864,1.387-1.624,1.984-2.335
	c0.565-0.688,1.037-1.303,1.495-1.807c0.836-1.047,1.384-1.822,1.762-2.364c0.757-1.085,0.753-1.283,0.75-1.48
	c-0.027-0.228-0.023-0.481,0.685-1.628c0.684-1.179,2.127-3.246,4.855-7.456c0.385-0.598,0.785-1.306,1.239-2.008
	c0.431-0.733,0.899-1.545,1.43-2.406c0.254-0.446,0.532-0.86,0.785-1.306s0.514-0.948,0.799-1.418
	c0.26-0.501,0.545-0.971,0.836-1.497c0.146-0.262,0.292-0.525,0.438-0.788c0.146-0.262,0.267-0.556,0.413-0.819
	c2.323-4.346,4.866-9.76,6.951-16.217c0.488-1.625,0.982-3.306,1.428-5.05c0.224-0.871,0.422-1.774,0.621-2.677
	s0.422-1.774,0.542-2.715c0.143-0.91,0.294-1.875,0.469-2.809l0.091-0.72c0.028-0.221,0.087-0.467,0.123-0.744
	c0.07-0.553,0.14-1.107,0.155-1.667c0.225-2.222,0.285-4.464,0.227-6.665c-0.11-4.457-0.686-9.002-1.951-13.662
	c-1.265-4.66-3.187-9.46-6.292-14.241c-1.553-2.391-3.421-4.737-5.673-6.935s-4.833-4.241-7.716-5.901
	c-0.709-0.399-1.442-0.83-2.181-1.205l-1.114-0.535c-0.214-0.083-0.342-0.184-0.588-0.243l-0.746-0.32
	c-0.509-0.205-0.993-0.379-1.501-0.584l-0.699-0.257l-0.269-0.091l-0.485-0.174l-0.269-0.09l-0.785-0.24l-0.135-0.046l-0.301-0.066
	c-3.123-0.874-6.192-1.292-8.957-1.446l-1.034-0.047c-0.364-0.018-0.672-0.029-1.011-0.015c-0.671-0.029-1.294,0.004-1.941,0.006
	c-0.339,0.014-0.623,0.034-0.931,0.023l-0.395,0.006c-0.055-0.007-0.141,0.01-0.252-0.004c-0.308-0.011-0.623,0.034-0.907,0.054
	c-0.575,0.096-1.118,0.167-1.637,0.27c-0.488,0.079-0.928,0.22-1.337,0.337c-0.384,0.148-0.73,0.216-1.028,0.347
	c-0.322,0.1-0.558,0.183-0.738,0.272c-0.204,0.059-0.353,0.124-0.471,0.166c-0.839,0.849-1.601,1.54-2.232,2.079
	c-0.631,0.538-1.168,1.005-1.667,1.391c-0.499,0.387-0.943,0.78-1.487,1.302s-1.182,1.116-2.122,2.093l0.916-1.009
	c-0.35,0.322-0.933,0.923-1.702,1.669c-0.319,0.297-0.614,0.625-0.995,0.97c-0.094,0.073-0.163,0.176-0.257,0.249
	c-0.104-0.07-0.2-0.194-0.273-0.288c-0.138-0.242-0.182-0.557-0.195-0.897c-0.003-0.647,0.224-1.321,0.419-1.971
	c0.226-0.675,0.452-1.349,0.678-2.023c0.452-1.349,1.008-2.628,1.495-3.804c1.074-2.479,2.088-4.263,2.148-4.958l-0.617,0.428
	c-0.089-0.181-0.124-0.354-0.127-0.551c0.021-0.166,0.098-0.325,0.229-0.477c0.233-0.28,0.607-0.57,1.085-0.79
	c0.901-0.449,2.078-0.862,2.937-1.428c-0.765,0.044-1.349-0.002-1.785-0.114c-0.46-0.142-0.747-0.319-0.933-0.624
	c-0.356-0.524-0.154-1.229,0.093-1.62l0.491,0.119c0.146-0.263,0.274-0.612,0.448-1.096c0.143-0.46,0.403-0.962,0.678-1.574
	c0.323-0.549,0.715-1.202,1.187-1.818c0.232-0.279,0.496-0.583,0.759-0.887c0.264-0.305,0.576-0.546,0.825-0.739l0.535,0.883
	c0.038-0.08,0.045-0.135,0.108-0.183l0.069-0.104l0.031-0.024l0.031-0.024c0,0,0.032-0.024,0.063-0.049
	c0.319-0.297,0.662-0.562,0.981-0.859c0.693-0.587,1.497-1.16,2.332-1.758c0.835-0.597,1.67-1.194,2.585-1.753
	c0.914-0.559,1.86-1.142,2.775-1.7c0.914-0.559,1.884-1.111,2.792-1.615c0.907-0.503,1.791-1.038,2.636-1.493
	c1.666-0.942,3.145-1.739,4.178-2.339c4.87-2.475,11.422-5.356,18.53-9.066c0.877-0.48,1.777-0.928,2.685-1.432
	c0.907-0.503,1.791-1.038,2.698-1.541c0.908-0.504,1.791-1.039,2.706-1.598c0.914-0.558,1.805-1.149,2.72-1.707l1.351-0.898
	c0.429-0.283,0.89-0.59,1.327-0.928c0.897-0.645,1.764-1.267,2.637-1.943c0.437-0.339,0.842-0.653,1.303-0.96
	c0.405-0.314,0.873-0.677,1.403-1.087c1.005-0.829,2.198-1.803,3.418-2.998c0,0,0.242-0.138,0.61-0.372
	c0.367-0.235,0.946-0.583,1.562-1.011c1.265-0.88,2.949-2.185,4.402-3.66c1.508-1.468,2.784-3.106,3.579-4.271
	c0.385-0.598,0.732-1.116,0.941-1.427c0.107-0.183,0.208-0.311,0.246-0.391c0.038-0.079,0.076-0.159,0.076-0.159
	s0.046-0.135,0.043-0.332c0.028-0.221,0.087-0.467,0.122-0.744s0.039-0.529,0.091-0.719c-0.003-0.198,0.011-0.308,0.011-0.308
	s-0.121-0.156-0.338-0.437c-0.218-0.281-0.563-0.662-0.981-1.137c-0.449-0.451-1.019-1.057-1.675-1.647
	c-0.328-0.294-0.705-0.652-1.088-0.953c-0.408-0.333-0.847-0.642-1.31-0.982c-1.828-1.329-4.154-2.721-6.896-3.941
	c-0.343-0.184-0.692-0.312-1.034-0.496c-0.374-0.16-0.723-0.289-1.065-0.473c-0.747-0.32-1.494-0.639-2.185-0.952
	c-1.501-0.584-3.026-1.2-4.575-1.846c-0.653-0.392-1.307-0.785-1.991-1.153c-0.342-0.184-0.685-0.368-1.027-0.552l-0.263-0.146
	l-0.159-0.076c-0.103-0.069-0.183-0.108-0.287-0.177c-0.812-0.469-1.607-0.851-2.465-1.185c-0.857-0.334-1.698-0.581-2.576-0.749
	c-0.222-0.028-0.443-0.056-0.665-0.084c-0.11-0.014-0.221-0.028-0.332-0.042c-0.079-0.038-0.159-0.076-0.238-0.115
	c-0.263-0.146-0.557-0.268-0.875-0.42c-0.557-0.268-1.12-0.48-1.629-0.685c-0.515-0.15-1.03-0.3-1.529-0.363
	c-1.02-0.158-2.006-0.142-2.906-0.144l-0.847-0.642c0,0-0.028,0.221-0.08,0.412c-0.052,0.19-0.16,0.373-0.16,0.373
	c-0.235,0.083-0.391,0.204-0.523,0.356l-0.031,0.024c0,0-0.007,0.055-0.039,0.08l-0.007,0.055c-0.031,0.024-0.031,0.024-0.038,0.079
	c-0.031,0.024-0.038,0.08-0.069,0.104c-0.07,0.104-0.132,0.152-0.226,0.225c-0.093,0.073-0.155,0.121-0.218,0.169
	c-0.118,0.041-0.252-0.004-0.359-0.271c0,0,0.187-0.145,0.461-0.307c0.218-0.169,0.429-0.283,0.398-0.259
	c0.094-0.073,0.25-0.193,0.312-0.242c0.094-0.073,0.132-0.152,0.132-0.152c-0.399,0.259-0.606,0.12-0.713-0.147
	c-0.114-0.211-0.175-0.613-0.337-0.886c-0.125,0.097-0.243,0.138-0.416,0.172c-0.055-0.007-0.086,0.017-0.111-0.014
	c-0.024-0.031,0.007-0.055-0.048-0.062c-0.055-0.007-0.055-0.007-0.111-0.014c-0.055-0.007-0.11-0.014-0.197,0.003
	c-0.035,0.277,0.1,0.322,0.273,0.288c0.055,0.007,0.142-0.01,0.197-0.003c0.056,0.007,0.111,0.014,0.159,0.076
	c0.017,0.087-0.011,0.308-0.219,0.619c-0.069,0.104-0.108,0.183-0.201,0.256c-0.07,0.104-0.163,0.176-0.264,0.304
	c-0.225,0.224-0.482,0.473-0.707,0.698c-0.964,0.946-2.062,1.847-3.285,2.396c-3.627,2.211-1.133-1.269-5.363,1.26
	c-5.702,3.27-11.871,6.452-18.393,9.759c-6.498,3.338-13.356,6.855-20.403,10.966l-2.65,1.605l-1.337,0.786
	c-0.454,0.252-0.883,0.535-1.344,0.842l-1.344,0.842l-2.18,1.439l-1.133,0.728l-1.109,0.759c-0.71,0.501-1.451,1.025-2.138,1.557
	c-1.427,1.056-2.8,2.119-4.227,3.176l-2.114,1.587l-1.061,0.822c-0.343,0.266-0.662,0.563-0.98,0.86
	c-1.3,1.157-2.569,2.289-3.869,3.446l-1.937,1.751l-0.981,0.86l-0.878,0.929c-1.165,1.202-2.305,2.436-3.47,3.638l-1.724,1.834
	c-0.263,0.304-0.582,0.601-0.846,0.905l-0.766,0.943c-1.006,1.279-2.036,2.526-3.042,3.805l-1.533,1.886
	c-0.239,0.335-0.527,0.608-0.742,0.975l-0.656,0.957c-0.895,1.293-1.791,2.585-2.655,3.854l-0.655,0.957
	c-0.209,0.311-0.448,0.646-0.632,0.988l-1.177,1.96c-0.784,1.307-1.569,2.614-2.322,3.896c-0.208,0.311-0.392,0.653-0.545,0.971
	l-0.49,0.979l-1.035,1.95c-1.05,0.963-0.429-0.167,0.003-1.35c-0.765,1.59-1.553,3.15-2.31,4.685
	c-0.671,1.518-1.373,3.06-2.037,4.522c-0.319,0.747-0.694,1.487-1.014,2.234c-0.289,0.723-0.577,1.445-0.897,2.192
	c-0.577,1.445-1.185,2.915-1.731,4.336c-0.491,1.429-1.006,2.826-1.496,4.254c-0.258,0.698-0.491,1.428-0.717,2.103
	c-0.202,0.705-0.428,1.38-0.63,2.085c-0.429,1.38-0.826,2.736-1.23,4.147c-0.372,1.387-0.683,2.726-1.025,4.088
	c-1.518,3.323-2.454,4.498-3.249,5.663c0.246-0.391,0.054,0.906-0.453,3.345c-0.265,1.204-0.51,2.691-0.838,4.393
	c-0.192,0.848-0.336,1.758-0.542,2.716c-0.175,0.934-0.363,1.978-0.576,2.992c-0.071,0.554-0.165,1.076-0.235,1.629
	c-0.035,0.277-0.07,0.554-0.137,0.855c-0.035,0.277-0.101,0.578-0.105,0.83c-0.054,1.09-0.139,2.204-0.2,3.35
	c-0.278,2.411,0.054,4.45,0.167,6.658l0.037,0.82c0.02,0.284,0.079,0.488,0.13,0.748l0.291,1.471
	c0.079,0.488,0.213,0.983,0.292,1.471l0.161,0.724c0.052,0.26,0.079,0.488,0.161,0.723c0.283,0.88,0.572,1.704,0.83,2.552
	c0.141,0.44,0.289,0.824,0.406,1.233c0.058,0.204,0.148,0.384,0.237,0.565c0.09,0.18,0.18,0.36,0.269,0.54
	c0.335,0.689,0.638,1.403,0.948,2.061c0.155,0.329,0.31,0.658,0.441,0.956c0.163,0.273,0.318,0.602,0.48,0.876
	c0.697,1.157,1.401,2.259,2.15,3.226s1.505,1.878,2.075,2.485C133.804,258.432,134.204,258.82,134.253,258.882z"/>
<path fill="#091929" stroke="#091929" d="M16.788,383.973l15-238l176,19l19,198L16.788,383.973z"/>
<path fill="#FFFFFF" stroke="#091929" d="M9.806,375.973l15-238l176,19l19,198L9.806,375.973z"/>
<path fill="#091929" stroke="#091929" d="M16.788,383.973l15-238l176,19l19,198L16.788,383.973z"/>
<path fill="#091929" stroke="#091929" d="M534.477,371.417l-64.45-204.529l-149.543,54.564l26.139,176.947L534.477,371.417z"/>
<path fill="#FFFFFF" stroke="#091929" d="M9.806,375.973l15-238l176,19l19,198L9.806,375.973z"/>
<path fill="#FFFFFF" stroke="#091929" d="M538.846,362.927l-64.45-204.53l-149.543,54.565l26.139,176.947L538.846,362.927z"/>
<path fill="#FF6B6B" d="M59.016,189.701c0-5.007-0.086-9.928-0.086-14.936c0-45.068,0-90.222-0.086-135.29
	c0-3.626,0.777-4.921,4.663-4.835c16.666,0.259,33.418,0.173,50.084,0.173c0.259,1.468-0.95,2.159-1.814,3.022
	C99.17,50.181,94.421,64.944,97.616,82.298c0.777,4.058,2.936,7.684,3.799,11.656c0.259,2.504-1.036,4.835-0.691,7.339
	c0.864,7.252,5.786,10.533,12.09,12.605c3.195,1.036,6.562,1.123,9.93,1.641c2.418,0.345,3.109-0.777,3.109-2.849
	c0-1.9-0.087-3.713,0.086-5.612c0.086-1.295-0.086-2.763,1.295-3.713c1.037,0.259,1.296,1.036,1.555,1.9
	c0.345,4.316,0.431,8.633,0.172,12.95c0.087,2.849,0.432,5.698-0.345,8.461c-0.173,0.432-0.432,1.036-0.864,1.123
	c-5.181,1.726-7.08,5.871-8.03,10.705c-0.173,0.518-0.518,1.036-0.605,1.555c-2.504,6.129-7.685,8.806-13.643,10.446
	c-1.641,0.259-3.195,0.777-4.663,1.554c-8.376,2.85-16.839,5.181-25.215,8.202c-5.44,1.9-10.189,4.576-12.866,10.016
	c-0.345,0.69-0.604,1.467-0.777,2.244c-1.468,4.058-0.863,8.289-1.123,12.433C60.743,186.68,61.262,188.838,59.016,189.701z"/>
<path fill="#FF6B6B" d="M118.081,139.626c0.259-0.346,0.432-0.605,0.691-0.95c1.641-1.468,3.713-1.209,5.699-1.209
	c11.744,0,23.401,0,35.145-0.086c1.641,0,4.059,0.949,4.577-1.209c0.691-2.417-0.777-4.576-2.85-6.044
	c-1.727-1.208-4.145-1.122-5.613-2.849c-1.209-7.425-1.727-14.85,0.346-22.188c2.504-0.173,1.9,1.813,1.986,3.021
	c0.259,3.454,0.086,6.994,0.173,10.447c0,1.641,0.431,2.849,2.417,3.108c8.29,1.382,19.257-5.007,22.193-12.605
	c1.554-3.971-0.259-7.598-0.691-11.31c3.368-6.389,6.304-12.951,6.994-20.289c1.382-13.9-2.59-26.074-11.916-36.434
	c-1.727-1.899-4.318-3.194-4.577-6.13c17.184-0.086,34.368-0.086,51.552-0.173c1.727,0,2.591,0.604,2.504,2.417
	c-0.086,1.036,0,1.986,0,3.022c0,50.421,0,100.928,0,151.349c0,1.123-0.086,2.245-0.172,3.367c-1.727-0.345-1.468-1.813-1.641-3.021
	c0-0.432,0-0.864-0.086-1.296c-0.432-6.561,0.777-13.209-1.727-19.598c-2.85-5.871-7.858-9.152-13.989-10.879
	c-8.29-2.331-16.321-5.352-24.524-7.856c-1.641-0.691-3.368-1.123-5.095-1.727c-5.008-1.468-9.585-3.626-12.694-8.029
	c-1.468-2.072-3.713-1.727-5.785-1.727c-12.435,0-24.956,0-37.39,0C121.621,140.662,119.635,140.921,118.081,139.626z"/>
<path fill="#5A74C5" d="M223.429,170.103c2.85,4.835,1.986,10.274,2.245,15.454c0.087,1.813,0,3.713,0,5.526
	c-1.295,1.208-3.022,1.036-4.576,1.036c-52.416,0-104.831,0-157.247,0c-1.554,0-3.281,0.345-4.577-1.123
	c-0.086-0.431-0.173-0.863-0.259-1.295c1.036-3.799,0.432-7.684,0.691-11.483c0.173-2.417,0.345-4.748,1.641-6.82
	c1.9-1.295,4.059-0.864,6.217-0.864c49.653,0,99.305,0,148.957,0c2.073,0,4.231,0.173,6.304-0.259
	C222.998,170.189,223.257,170.103,223.429,170.103z"/>
<path fill="#B8532D" d="M172.396,34.985c11.658,10.015,18.048,22.62,17.962,38.161c0,7.425-1.987,14.505-5.441,21.066
	c-0.69,1.295-1.036,2.849-2.677,3.454c-6.303-5.353-11.916-11.224-13.729-19.685c-0.95-4.489-1.641-9.065-3.368-13.382
	c-3.454-8.634-9.326-14.332-18.911-15.282c-10.362-1.036-18.479,2.849-24.092,11.656c-1.986,3.022-3.368,6.389-4.404,9.843
	c-1.209,3.885-3.023,7.339-5.699,10.36c-3.195,3.626-6.65,6.993-9.154,11.224c-0.431,0.777-1.122,1.295-2.159,1.295
	C90.708,74.7,95.543,50.094,111.95,36.28c0.605-0.518,1.123-1.036,1.641-1.468c15.111-10.706,31.259-12.95,48.616-5.871
	C165.834,30.495,169.029,32.826,172.396,34.985z"/>
<path fill="#5A73C5" d="M225.761,191.946c0.173,0.95,0.346,1.9,0.605,2.849c0,8.03,0,8.03-8.204,8.03
	c-51.638,0-103.363,0-155.001,0.086c-3.368,0-4.836-0.777-4.231-4.317c0.345-2.158,0.259-4.489,0.345-6.734
	c0.95-0.259,1.986-0.173,2.936-0.173c53.452-0.518,106.99-0.345,160.441-0.345C223.602,191.428,224.811,190.996,225.761,191.946z"/>
<path fill="#372024" d="M225.761,191.946c-37.217,0-74.435,0-111.739,0.086c-16.838,0-33.591,0.173-50.429,0.259
	c-1.468,0-2.936-0.172-4.49-0.345c0-0.345,0.086-0.691,0.086-0.95c55.438,0,110.962,0.087,166.4,0.087
	C225.675,191.428,225.675,191.687,225.761,191.946z"/>
<path fill="#5A74C5" d="M184.485,151.368c9.931,2.762,19.602,5.957,29.273,9.497c4.404,1.64,7.686,4.921,9.672,9.238l-0.087,0.086
	c-1.295,1.036-2.849,0.691-4.317,0.691c-51.034,0-101.982,0-153.016,0c-1.468,0-3.022,0.431-4.231-0.864
	c1.813-4.489,5.354-7.511,9.671-9.238c9.499-3.626,19.17-6.734,29.014-9.41c3.022-0.864,6.131-1.036,9.239-1.036
	c21.847,0,43.608,0,65.455,0C178.354,150.332,181.463,150.677,184.485,151.368z"/>
<path fill="#F6F2EF" d="M100.637,93.694c3.109-5.094,7.081-9.583,11.139-13.987c2.332-2.504,3.886-5.439,4.75-8.72
	c0.863-3.281,2.159-6.389,3.799-9.324c6.218-11.051,17.098-15.8,29.446-12.864c7.254,1.727,11.917,6.389,15.112,12.778
	c1.899,3.799,3.281,7.857,3.713,12.087c0.777,7.598,4.404,13.641,9.498,18.994c1.468,1.554,2.677,3.281,3.973,4.921
	c4.145,8.288,2.072,16.059-5.786,20.979c-5.095,3.195-10.708,4.404-16.752,4.404c-2.245,0-3.109-0.691-3.022-3.022
	c0.086-5.008-0.087-9.929-0.087-14.937c0.087-4.144,2.418-7.597,6.045-8.633c3.972-1.122,6.563-3.367,7.167-7.598
	c0.173-1.295,0.086-2.504-0.691-3.626c-0.432-0.604-0.863-1.295-1.727-1.122c-0.777,0.086-0.777,0.863-0.95,1.468
	c-0.431,1.122-0.345,2.763-1.813,3.022c-1.554,0.259-2.245-1.295-3.022-2.417c-4.577-6.648-9.067-13.382-12.867-20.98
	c-2.763,2.763-4.922,5.439-7.426,7.77c-6.39,5.612-13.212,10.102-22.192,10.188c-4.836,0.086-6.65,3.885-4.318,8.116
	c1.554,2.763,3.972,4.317,6.994,5.18c3.627,1.036,4.836,2.935,5.182,7.166c0,3.626-0.087,7.166-0.087,10.792
	c0,1.64-0.432,2.763-2.245,2.504c-6.131-0.777-12.348-1.036-17.875-4.317c-5.872-3.54-8.376-9.066-6.908-15.714
	C100.205,95.853,100.464,94.73,100.637,93.694z"/>
<path fill="#F89082" d="M127.061,103.623c-1.641-3.195-2.936-6.303-7.427-6.734c-2.677-0.259-4.576-2.763-5.872-5.353
	c-2.676-5.267,0-9.583,5.959-9.411c7.858,0.173,13.989-3.885,19.602-8.72c3.54-2.936,6.476-6.389,9.498-10.361
	c4.663,9.065,9.844,17.267,15.889,25.556c0.345-1.468,0.518-2.504,0.863-3.454c0.26-0.863-0.431-2.245,0.778-2.59
	c1.209-0.345,2.417,0.432,3.281,1.295c2.072,2.072,1.813,4.576,0.95,6.993c-0.95,2.676-2.677,5.353-5.354,5.785
	c-5.095,0.863-6.822,4.662-8.635,8.547c-1.123,6.13-0.259,12.26-0.432,18.303c-0.086,1.382,0,2.677,0,4.058
	c-1.122,1.209-2.677,1.295-4.145,1.295c-6.735,0.087-13.471,0.087-20.206,0c-1.468,0-3.022-0.086-4.145-1.295
	c0-2.935,0-5.871,0-8.806c0.432-0.691,1.123-1.036,1.9-1.036c5.267-0.259,10.189-1.813,14.852-2.936
	c-3.195,0.95-6.562,0.173-9.671-1.726c-3.109-1.9-5.872-4.145-6.995-7.857C127.579,104.573,127.32,104.141,127.061,103.623z"/>
<path fill="#5A75C6" d="M118.081,139.625c9.844-0.69,19.688-0.172,29.532-0.259c5.354-0.086,10.708,0,16.061,0
	c1.209,0,2.677-0.431,3.368,0.95c2.677,5.612,7.944,7.512,13.212,9.584c-1.209,1.036-2.591,0.69-3.972,0.69
	c-22.452,0-44.817,0-67.268,0c-1.296,0-2.763,0.346-3.886-0.777c3.454-1.726,7.513-2.417,10.189-5.612
	C116.354,142.82,117.649,141.525,118.081,139.625z"/>
<path fill="#F6F2EF" d="M127.666,127.452c9.498,0,18.997,0,28.496,0c6.476,0.518,8.894,2.763,9.758,8.634
	c0.345,2.158-0.26,2.676-2.418,2.676c-14.939-0.086-29.878-0.086-44.731-0.172c0.26-1.468,0.519-2.936,0.864-4.317
	C120.671,130.215,123.434,127.884,127.666,127.452z"/>
<path fill="#40374C" d="M61.866,169.93c52.329,0,104.745,0.086,157.074,0.086c1.468,0,3.022,0.087,4.49,0.087
	c-0.086,1.813-1.554,1.295-2.504,1.295c-53.106,0-106.213,0-159.319,0c-0.086,0-0.259,0-0.345,0
	C61.434,170.966,61.694,170.448,61.866,169.93z"/>
<path fill="#41374D" d="M105.042,149.9c25.042,0,50.084,0,75.126,0.086c1.554,0.173,3.109,0.259,4.318,1.382
	c-27.978,0-55.956,0-83.934,0C101.847,150.159,103.488,150.073,105.042,149.9z"/>
<path fill="#351911" d="M127.838,105.091c1.382,1.467,2.677,2.935,4.059,4.316c4.317,4.231,9.412,5.785,15.457,4.145
	c-6.045,3.712-12.608,5.094-19.602,5.094C127.752,114.156,127.752,109.58,127.838,105.091z"/>
<path fill="#F89689" d="M171.014,103.623c-2.677-0.259-4.232-1.813-4.145-4.317c0.086-2.504,1.727-4.144,4.404-3.971
	c2.59,0.173,4.231,1.727,4.144,4.317C175.331,102.155,173.604,103.537,171.014,103.623z"/>
<path fill="#3B201A" d="M150.03,82.643c0.432-0.259,0.777-0.604,1.209-0.777c2.504-1.122,4.836-0.432,7.081,0.777
	c0.691,0.345,0.691,1.036,0.172,1.554c-1.899,1.986-3.713,4.144-6.908,3.194C149.166,86.442,149.08,84.715,150.03,82.643z"/>
<path fill="#3B1E16" d="M131.465,81.262c0.95,0.173,1.986,0.173,2.849,0.604c1.814,0.863,4.663,2.072,3.886,4.058
	c-0.604,1.64-3.54,2.504-5.872,1.209C129.306,84.801,129.133,83.766,131.465,81.262z"/>
<path fill="#F9F0EA" d="M131.465,81.262c-2.072,2.331-0.086,4.058,0.864,5.871c-2.504,0.518-3.627-1.468-5.008-2.935
	c-0.864-0.863-0.259-1.64,0.604-1.986C129.134,81.78,130.343,81.607,131.465,81.262z"/>
<path fill="#573027" d="M139.15,91.363c1.123,1.468,2.85,0.604,4.059,1.727c-1.9,0.691-4.75,0.777-5.268-1.036
	c-0.777-2.936,2.504-3.713,4.49-5.094C142,88.946,139.668,89.464,139.15,91.363z"/>
<path fill="#F4E8E3" d="M150.031,82.643c-0.087,1.727,0.431,3.367,1.64,4.662c-0.086,0.086-0.172,0.173-0.345,0.173
	c-1.641,0.086-3.8-0.259-4.145-1.554C146.663,84.37,148.735,83.506,150.031,82.643z"/>
<path fill="#4F2B24" d="M149.512,95.335c-1.468,3.367-3.885,4.576-7.253,3.281C144.936,98.27,147.613,97.839,149.512,95.335z"/>
<path fill="#63362D" d="M120.412,93.522c-1.296-1.64-2.504-3.367-3.8-5.007c2.677,0.518,3.282,2.763,4.663,4.23
	C121.016,93.004,120.757,93.263,120.412,93.522z"/>
<path fill="#5D362F" d="M168.251,88.601c-1.295,1.64-2.504,3.281-3.799,4.921c-0.087-2.59,1.554-3.971,3.022-5.526
	C167.733,88.169,167.992,88.428,168.251,88.601z"/>
<path fill="none" stroke="#020A13" stroke-width="4" stroke-linecap="round" stroke-linejoin="round" d="M89.202,229.685
	c2.409,0,4.807,0.018,7.153,0.018c2.579,0,5.157,0,7.736,0c5.963,0,11.926,0,17.889,0c4.073,0,8.194,0.009,12.222-0.014
	c3.954-0.023,8.447-0.058,12.25-0.001c1.634,0.025,4.304,0.006,6.056,0.006c2.308,0,4.431-0.028,6.694-0.028"/>
<path fill="none" stroke="#020A13" stroke-width="4" stroke-linecap="round" stroke-linejoin="round" d="M89.202,258.25
	c1.429,0,2.85,0.229,4.242,0.229c1.529,0,3.058,0,4.588,0c3.536,0,7.072,0,10.608,0c2.415,0,4.859,0.11,7.248-0.178
	c2.344-0.283,5.009-0.72,7.264-0.006c0.969,0.306,2.553,0.07,3.591,0.07c1.369,0,2.628-0.344,3.97-0.344"/>
<path fill="none" stroke="#020A13" stroke-width="4" stroke-linecap="round" stroke-linejoin="round" d="M89.11,285.952
	c2.017,0,4.023-0.23,5.987-0.23c2.158,0,4.317,0,6.475,0c4.991,0,9.981,0,14.972,0c3.409,0,6.859-0.11,10.23,0.179
	c3.309,0.283,7.07,0.72,10.253,0.006c1.367-0.307,3.602-0.07,5.068-0.07c1.932,0,3.709,0.344,5.603,0.344"/>
<path fill="none" stroke="#020A13" stroke-width="4" stroke-linecap="round" stroke-linejoin="round" d="M89.586,317.746
	c2.017,0,4.023-0.229,5.987-0.229c2.158,0,4.316,0,6.474,0c4.991,0,9.982,0,14.973,0c3.409,0,6.858-0.11,10.229,0.178
	c3.309,0.283,7.07,0.72,10.253,0.006c1.368-0.306,3.603-0.07,5.069-0.07c1.931,0,3.708,0.344,5.603,0.344"/>
<path fill="none" stroke="#091929" stroke-width="2" stroke-linecap="round" d="M88.702,235.75h31.5"/>
<path fill="none" stroke="#091929" stroke-width="2" stroke-linecap="round" d="M89.023,263.755h20.935"/>
<path fill="none" stroke="#091929" stroke-width="2" stroke-linecap="round" d="M88.023,293.755h24.079"/>
<path fill="none" stroke="#091929" stroke-width="2" stroke-linecap="round" d="M88.023,323.755h34.68"/>
<path fill="#007BFF" d="M335.258,194.53c0-35.86,0-71.72-0.06-107.58c0-2.134,0.534-2.904,2.787-2.904
	c42.505,0.059,84.952,0.059,127.457,0c2.075,0,2.727,0.593,2.727,2.667c-0.059,36.038-0.059,72.075-0.118,108.173
	c-1.126,0.237-1.304-0.712-1.66-1.364c-2.608-4.86-6.818-7.764-11.975-9.424c-8.122-2.667-16.362-5.216-24.484-7.883
	c-5.869-1.956-9.722-5.631-10.789-11.736c-0.652-3.497-3.379-4.624-5.751-6.224c-0.83-5.631-2.193-11.321,2.016-16.3
	c0.948-1.126,1.6-2.489,2.193-3.853c0.712-1.719,1.838-3.023,3.498-3.852c1.423-0.712,2.608-1.779,3.498-3.142
	c1.778-2.845,1.007-5.097-2.135-6.283c-0.533-0.237-1.126-0.296-1.6-0.711c-0.83-1.186,0-2.253,0.296-3.379
	c0.652-2.311,0.771-4.445-1.008-6.342c-1.126-1.245-1.007-2.667-0.355-4.149c0.652-1.363,1.185-2.727,1.245-4.208
	c0.059-3.497-1.542-5.572-4.98-6.165c-1.541-0.296-2.964-0.296-2.253-2.667c1.067-3.556-0.415-5.394-4.09-5.572
	c-0.771-0.059-1.601,0.059-2.312,0.296c-2.846,1.008-5.336,1.304-7.648-1.482c-1.482-1.778-3.557-1.304-5.276,0.237
	c-0.889,0.83-1.66,1.778-1.956,2.904c-0.712,2.371-1.838,3.201-4.328,2.015c-1.956-0.948-3.675,0.237-4.861,1.778
	c-1.423,1.838-2.075,4.03-1.719,6.401c0.415,2.371,0.77,4.742,1.956,6.817c1.601,2.785,1.719,5.571,0.534,8.476
	c-0.238,2.904-0.949,5.334-3.913,6.935c-1.956,1.066-1.719,4.978,0.711,6.342c4.506,2.489,6.284,6.757,8.774,10.669
	c0.771,1.245,1.956,2.193,2.253,3.734c0.296,2.193,0.237,4.386,0.178,6.579c-0.119,1.482,0.237,3.023-0.415,4.505
	c-0.593,1.067-1.779,1.126-2.787,1.482c-2.489,0.77-4.031,2.43-4.446,5.038c-1.126,6.164-4.861,9.839-10.73,11.795
	c-7.944,2.668-15.947,5.157-23.95,7.706c-5.276,1.719-9.663,4.386-12.509,9.306C336.68,193.878,336.206,194.649,335.258,194.53z"/>
<path fill="#BEC6D1" d="M335.257,194.53c3.32-6.816,9.13-10.136,16.125-12.151c7.648-2.193,15.177-4.92,22.706-7.35
	c5.276-1.719,8.359-5.216,9.188-10.728c0.593-3.971,3.142-5.868,7.47-5.927c0.711,0.592,0.652,1.304,0.297,2.074
	c-1.838,1.719-1.364,4.031-1.423,6.164c-0.06,15.471,0,31-0.06,46.47c0,1.719,0.297,3.616-1.126,5.039
	c-16.54,0-33.139-0.06-49.679,0.059c-2.786,0-3.794-0.593-3.675-3.557C335.376,207.926,335.257,201.228,335.257,194.53z"/>
<path fill="#BEC7D2" d="M413.51,158.255c4.15,0.77,5.751,2.193,6.462,6.164c1.008,5.513,4.15,8.95,9.426,10.669
	c8.181,2.608,16.244,5.453,24.484,7.943c6.521,1.956,11.442,5.572,14.169,11.854c0,6.876,0,13.811,0.059,20.687
	c0,1.896-0.593,2.667-2.549,2.548c-3.024-0.118-6.106-0.118-9.13,0c-1.897,0.06-2.727-0.533-2.549-2.489
	c0.119-2.134-0.059-4.327,0.059-6.52c0.06-1.6-0.474-2.312-2.193-2.312c-8.478,0.06-16.955,0.06-25.432,0
	c-1.779,0-2.194,0.83-2.135,2.371c0.06,2.253,0,4.505,0.06,6.817c0.059,1.481-0.415,2.311-2.016,2.133
	c-2.134-0.237-4.328,0.652-6.343-0.592c-1.304-1.364-1.008-3.142-1.008-4.742c-0.059-15.174,0-30.289-0.059-45.462
	c0-2.253,0.355-4.564-1.364-6.461c-0.474-0.652-0.593-1.363-0.296-2.134C413.273,158.551,413.392,158.433,413.51,158.255z"/>
<path fill="#F6F2EF" d="M413.57,160.152c1.956,1.007,2.312,2.726,2.312,4.742c0,17.544,0,35.089-0.059,52.693
	c-1.068,0.652-2.253,0.593-3.439,0.593c-7.944,0-15.888,0-23.891,0c0-17.841,0-35.682,0.059-53.464c0-1.897-0.118-3.853,2.253-4.564
	c1.067,0.711,0.949,1.837,1.127,2.904c0.355,2.43,1.719,3.734,4.149,3.794c3.913,0.118,7.885,0.059,11.798,0
	c2.015,0,3.319-1.126,4.149-2.786C412.977,162.878,412.266,161.1,413.57,160.152z"/>
<path fill="#BFC7D2" d="M439.299,218.121c-3.735,0-7.47-0.06-11.205,0.059c-1.956,0.059-2.786-0.474-2.786-2.608
	c-0.059-7.528-0.178-7.528,7.351-7.528c5.987,0,12.034,0.059,18.022-0.059c1.838,0,2.608,0.474,2.608,2.489
	c0.178,7.647,0.237,7.647-7.469,7.647C443.626,218.121,441.492,218.121,439.299,218.121z"/>
<path fill="#B7532E" d="M413.036,164.182c-0.83,2.668-2.668,3.734-5.335,3.675c-3.439-0.059-6.877,0-10.316,0
	c-4.801,0-6.284-1.541-6.402-6.342c0-0.474-0.059-1.008-0.119-1.482c0-0.593,0-1.126,0-1.719c0.06-1.6,0.119-3.201,0.178-4.801
	c4.506-0.533,9.07-0.593,12.627-2.252c-4.564,0.415-9.188-0.712-12.627-4.92c-2.43-2.786-4.505-5.749-5.691-9.246
	c-0.415-1.127-1.304-1.364-2.134-1.779c-2.194-1.067-4.031-2.489-4.861-4.919c-0.83-2.371-0.652-4.801,1.897-5.809
	c2.134-0.83,2.905-1.956,2.608-4.09c-0.059-0.415,0.237-0.948,0.415-1.363c1.482,0.889,0.593,2.786,1.779,4.208
	c1.126-1.778,1.304-3.675,1.66-5.453c1.6-7.587,4.209-9.661,12.034-9.721c3.083,0,6.106-0.059,9.189,0
	c5.632,0.119,8.714,2.608,10.019,8.18c0.296,1.363,0.533,2.727,0.829,4.09c0.297,1.363,0.712,2.667,2.016,3.497
	c2.609-0.119,4.861,0.533,5.573,3.319c0.77,2.964-0.83,5.513-3.202,6.757c-3.082,1.601-3.972,4.624-6.046,6.757
	c-4.328,4.505-3.557,9.721-3.617,14.937c0,0.889,0.06,1.778,0.06,2.667C412.74,160.211,413.57,162.226,413.036,164.182z"/>
<path fill="#331810" d="M420.683,123.877c-1.422,0.711-2.193,0.178-2.489-1.363c-0.415-2.134-0.83-4.268-1.305-6.343
	c-1.067-4.86-3.794-7.053-8.714-7.053c-4.031,0-8.063-0.059-12.094,0c-4.328,0.059-6.995,2.193-8.062,6.401
	c-0.652,2.549-1.186,5.157-1.779,7.765c-0.237,0.948-0.652,1.719-1.719,1.66c-1.126-0.119-1.304-1.008-1.304-1.956
	c0-1.304-0.06-2.549-0.119-3.853c1.245-3.141,0.593-5.927-0.83-8.891c-1.482-3.023-2.253-6.342-1.541-9.78
	c1.067-5.394,5.039-7.231,9.782-4.445c0.592-1.423,1.007-2.964,1.778-4.268c2.253-3.971,6.462-4.327,9.13-0.652
	c0.889,1.245,1.482,1.363,2.845,0.889c1.541-0.593,3.261-0.948,4.861-1.067c2.372-0.178,4.565,0.474,5.869,2.667
	c1.186,2.015,0,3.497-1.6,5.275c3.735-0.178,6.521,0.593,7.944,3.852c1.304,3.023,0.652,5.809-1.068,8.417
	c-0.533,0.83-0.829,1.66,0.06,2.371c3.557,2.845,2.312,6.046,0.83,9.365C420.98,123.166,420.861,123.521,420.683,123.877z"/>
<path fill="#341911" d="M390.983,146.401c2.371,1.126,4.387,2.904,6.995,3.615c2.787,0.771,5.573,0.534,8.419,0.297
	c-4.684,3.2-9.782,4.623-15.473,3.319C390.983,151.202,390.983,148.772,390.983,146.401z"/>
<path fill="#F89183" d="M413.036,164.182c0.059-2.015-0.593-4.03,0.474-5.927c0,0.652,0.06,1.245,0.06,1.897
	C413.273,161.515,413.925,162.937,413.036,164.182z"/>
<path fill="#607BC9" d="M402.129,205.022c-1.127,0.059-1.364-0.652-1.482-1.423c-0.119-1.067,0.355-1.719,1.363-1.837
	c0.949-0.119,1.364,0.592,1.482,1.422C403.552,204.192,403.018,204.784,402.129,205.022z"/>
<path fill="#6781CA" d="M403.492,189.907c0,0.83-0.237,1.6-1.245,1.66c-1.067,0.059-1.601-0.652-1.601-1.601
	c0-0.83,0.475-1.482,1.423-1.541C403.018,188.366,403.433,189.018,403.492,189.907z"/>
<path fill="#627DC9" d="M403.492,176.63c-0.119,0.829-0.415,1.6-1.363,1.6c-1.008-0.059-1.542-0.83-1.423-1.838
	c0.118-0.77,0.533-1.541,1.482-1.422C403.196,175.088,403.433,175.8,403.492,176.63z"/>
<path fill="#FBF4EF" d="M399.757,129.211c-3.201,0.06-6.462,0.06-9.663,0.237c-2.134,0.119-2.016-1.244-2.016-2.726
	c-0.059-1.482,0.178-2.549,2.016-2.371c1.245,0.119,2.549,0.059,3.794,0.119c1.008,1.066,2.016,0.77,3.023-0.06
	c3.913-0.83,2.846,2.134,3.083,4.09C400.172,128.856,400.053,129.093,399.757,129.211z"/>
<path fill="#FAF3EE" d="M410.132,125.536c1.363-2.252,3.557-1.244,5.216-0.889c1.305,0.237,0.593,2.016,0.712,3.142
	c0.118,1.304-0.652,1.719-1.838,1.659c-2.371,0-4.743-0.118-7.055,0.06c-2.371,0.177-3.082-0.712-3.023-3.023
	c0.059-2.608,1.719-2.075,3.261-1.956C408.294,124.884,409.005,125.773,410.132,125.536z"/>
<path fill="#401F15" d="M409.005,120.913c-1.067-0.415-3.201,0.889-3.201-0.77c0-1.541,2.252-1.423,3.675-1.482
	c0.356,0,0.771,0.059,1.127,0.178c0.77,0.296,2.134,0.237,2.015,1.304c-0.118,1.304-1.363,0.711-2.134,0.77
	C410.013,120.913,409.479,120.913,409.005,120.913z"/>
<path fill="#3C1C12" d="M394.243,120.913c-0.948-0.356-2.845,0.889-2.964-0.652c-0.118-1.66,1.957-1.482,3.261-1.6
	c0.415-0.06,0.83-0.06,1.185,0.059c0.83,0.296,2.372,0.178,2.194,1.423c-0.178,1.422-1.601,0.592-2.431,0.711
	C395.133,120.913,394.718,120.913,394.243,120.913z"/>
<path fill="#502517" d="M399.757,129.211c0.119-0.237,0.178-0.474,0.296-0.711c0.415,0,0.475-1.067,1.068-0.415
	c0.118,0.119,0,0.593-0.119,0.83c-0.356,1.008-1.008,2.193,0.059,2.964c1.127,0.829,1.719-0.89,3.557-1.304
	c-1.363,1.778-2.312,2.963-3.853,2.37C398.809,132.353,399.223,130.693,399.757,129.211z"/>
<path fill="#41261E" d="M396.911,124.41c-0.178,1.067-0.356,2.312-1.66,2.252c-1.185-0.059-1.304-1.185-1.363-2.193
	C394.896,122.928,395.844,122.928,396.911,124.41z"/>
<path fill="#3C2119" d="M410.131,125.536c-0.237,0.83-0.77,1.423-1.66,1.126c-0.948-0.296-1.067-1.244-1.067-2.133
	c0.415-0.652,0.83-1.304,1.719-1.067C410.25,123.699,409.835,124.825,410.131,125.536z"/>
<path fill="none" stroke="#020A13" stroke-width="4" stroke-linecap="round" stroke-linejoin="round" d="M401.02,273.306
	c1.428,0,2.85,0.229,4.241,0.229c1.529,0,3.059,0,4.588,0c3.536,0,7.072,0,10.608,0c2.416,0,4.86,0.11,7.248-0.178
	c2.345-0.283,5.01-0.721,7.265-0.007c0.969,0.307,2.552,0.07,3.591,0.07c1.369,0,2.628-0.344,3.97-0.344"/>
<path fill="none" stroke="#020A13" stroke-width="4" stroke-linecap="round" stroke-linejoin="round" d="M401.02,243.306
	c1.428,0,2.85,0.229,4.241,0.229c1.529,0,3.059,0,4.588,0c3.536,0,7.072,0,10.608,0c2.416,0,4.86,0.11,7.248-0.178
	c2.345-0.283,5.01-0.721,7.265-0.007c0.969,0.307,2.552,0.07,3.591,0.07c1.369,0,2.628-0.344,3.97-0.344"/>
<path fill="none" stroke="#020A13" stroke-width="4" stroke-linecap="round" stroke-linejoin="round" d="M400.928,301.007
	c2.016,0,4.023-0.229,5.986-0.229c2.159,0,4.317,0,6.475,0c4.991,0,9.982,0,14.973,0c3.409,0,6.858-0.11,10.229,0.178
	c3.309,0.283,7.07,0.721,10.253,0.007c1.368-0.307,3.602-0.07,5.068-0.07c1.932,0,3.709,0.344,5.603,0.344"/>
<path fill="none" stroke="#020A13" stroke-width="4" stroke-linecap="round" stroke-linejoin="round" d="M401.403,332.802
	c2.017,0,4.023-0.23,5.987-0.23c2.158,0,4.317,0,6.475,0c4.991,0,9.981,0,14.972,0c3.409,0,6.859-0.11,10.23,0.179
	c3.309,0.283,7.07,0.72,10.253,0.006c1.367-0.307,3.602-0.07,5.068-0.07c1.932,0,3.709,0.344,5.603,0.344"/>
<path fill="none" stroke="#091929" stroke-width="2" stroke-linecap="round" d="M400.52,250.806h31.5"/>
<path fill="none" stroke="#091929" stroke-width="2" stroke-linecap="round" d="M400.841,278.811h20.935"/>
<path fill="none" stroke="#091929" stroke-width="2" stroke-linecap="round" d="M399.841,308.811h24.078"/>
<path fill="none" stroke="#091929" stroke-width="2" stroke-linecap="round" d="M399.841,338.811h34.679"/>
<path fill="#020A13" d="M340.037,74.33c0.451-0.227,0.471,0.207,0.602,0.414c1.013,1.657,2.218,3.157,3.673,4.469
	c0.271,0.237,0.562,0.444,0.853,0.671c1.565,1.44,3.422,2.397,5.369,3.196c2.489,1.026,5.098,1.559,7.777,1.697
	c0.883,0.049,0.793,0.257,0.783,0.898c-0.11,6.826-1.616,13.277-5.349,19.107c-2.91,4.548-6.784,8.079-11.631,10.585
	c-0.181,0.088-0.371,0.157-0.542,0.266c-0.873,0.533-1.676,0.473-2.619,0.02c-4.646-2.279-8.42-5.524-11.41-9.687
	c-0.191-0.266-0.402-0.523-0.602-0.779c-0.944-0.622-1.295-1.667-1.777-2.575c-1.987-3.807-3.161-7.862-3.713-12.103
	c-0.17-1.302-0.18-2.614-0.351-3.916c-0.221-1.687,0.11-2.081,1.827-2.15c2.368-0.108,4.616-0.7,6.803-1.539
	c4.015-1.539,7.186-4.123,9.524-7.674C339.475,74.882,339.615,74.487,340.037,74.33z"/>
<path fill="#FFD166" d="M338.109,72.444c0.451-0.227,0.471,0.207,0.602,0.414c1.013,1.657,2.218,3.157,3.673,4.469
	c0.271,0.237,0.562,0.444,0.853,0.671c1.565,1.44,3.422,2.397,5.369,3.196c2.489,1.026,5.098,1.559,7.777,1.697
	c0.883,0.049,0.793,0.257,0.783,0.898c-0.11,6.826-1.616,13.277-5.349,19.107c-2.91,4.548-6.784,8.079-11.631,10.585
	c-0.181,0.088-0.371,0.157-0.542,0.266c-0.873,0.533-1.676,0.473-2.619,0.02c-4.646-2.279-8.42-5.524-11.41-9.687
	c-0.191-0.266-0.402-0.523-0.602-0.779c-0.944-0.622-1.295-1.667-1.777-2.575c-1.987-3.807-3.161-7.862-3.713-12.103
	c-0.17-1.302-0.18-2.614-0.351-3.916c-0.221-1.687,0.11-2.081,1.827-2.15c2.368-0.108,4.616-0.7,6.803-1.539
	c4.015-1.539,7.186-4.123,9.524-7.674C337.547,72.996,337.687,72.601,338.109,72.444z"/>
<path fill="#351C15" d="M228.848,178.108c0.652-0.434,1.593-0.724,1.956-1.376c2.1-3.331,5.795-4.418,8.692-6.663
	c5.65-4.273,12.459-4.635,18.616-7.097c0.362-0.145,0.724-0.362,1.014-0.29c6.447,1.014,13.184-1.593,19.486,1.304
	c1.666,0.724,3.404,1.014,5.215,1.231c1.159,0.145,2.608,0.072,3.477,0.724c5.505,4.128,13.111,5.215,16.805,11.805
	c0.145,0.29,0.58,0.362,0.869,0.58c3.695,1.086,5.868,3.693,7.172,7.097c0.724,1.956,1.738,3.694,2.897,5.36
	c1.666,2.462,2.68,5.069,2.608,8.111c0,0.507-0.145-0.072,0,0.362c2.752,7.025,0.941,13.978-0.073,20.931
	c-0.072,0.579,0,1.303-0.289,1.81c-3.332,5.794-5.071,12.602-10.576,16.948c-1.232,1.014-2.391,2.028-3.332,3.331
	c-1.884,2.463-4.129,4.346-7.099,5.36c-2.173,0.796-4.056,2.172-5.94,3.403c-2.173,1.377-4.491,2.318-7.171,2.101
	c-1.231-0.145-2.245-0.58-2.825-1.883c-1.811-4.346,1.666-12.53,6.157-13.906c3.187-1.014,5.578-2.752,6.954-5.794
	c1.449-3.331,0.362-6.228-3.187-7.025c-2.753-0.652-3.694-2.1-3.984-4.707c-0.435-3.984-1.449-7.822-3.984-11.081
	c-2.608-3.404-5.94-5.215-10.359-4.418c-2.897,0.507-5.794,0.797-8.619,0.072c-5.94-1.448-10.069,1.738-13.039,6.736
	c-1.594,2.679-2.028,5.649-2.463,8.618c-0.362,2.245-1.231,3.911-3.767,4.708c-4.346,1.303-5.215,4.056-3.114,8.039
	c1.304,2.39,3.259,3.983,5.795,4.563c2.825,0.724,4.636,2.39,5.795,4.997c1.521,3.404,4.128,5.939,6.953,8.184
	c3.26,2.68,7.027,3.693,11.156,2.173c0.579-0.218,1.159-0.435,1.738-0.507c0.724-0.145,1.594-0.363,1.956,0.362
	c0.507,0.941-0.29,1.593-0.942,2.1c-5.505,3.694-11.662,5.07-18.181,5.215c-1.522,0-2.391-1.014-2.608-2.535
	c-0.145-1.087-0.073-2.173-1.014-2.97c-6.012-0.941-10.938-4.49-15.719-7.604c-5.795-3.694-11.155-8.329-14.197-14.847
	c-0.797-1.666-1.522-3.259-2.536-4.78c-1.955-2.752-3.042-5.722-2.897-9.126c0.072-2.462-1.449-4.707-1.232-7.097
	c0.725-7.098,0.218-14.485,4.564-20.786c0.724-1.086,1.449-2.245,1.811-3.476C222.691,182.526,225.226,179.847,228.848,178.108z"/>
<path fill="#FFD046" d="M283.247,252.343c3.043-0.072,5.578-1.159,7.968-2.969c1.449-1.087,3.043-2.028,4.709-2.68
	c2.97-1.086,5.215-2.825,7.026-5.359c1.087-1.449,2.463-2.68,3.839-3.767c2.246-1.665,3.695-3.693,4.636-6.3
	c0.58-1.449,1.159-2.97,2.028-4.201c2.173-2.897,3.405-6.011,3.332-9.705c-0.072-1.738,0.58-3.549,1.087-5.287
	c0.652-2.245,0.797-4.49,0-6.735c-0.869-2.535-1.304-5.142-1.304-7.822c0-0.942-0.072-2.1-0.579-2.825
	c-3.839-5.431-4.926-12.674-11.083-16.512c13.618-1.014,27.164-0.507,40.782-0.652c2.028,0,2.897,0.652,2.68,2.752
	c-0.073,0.869,0,1.666,0,2.535c0,49.031,0,98.062,0,147.093c0,1.594-0.073,3.115-0.073,4.708c-2.897-1.666-1.521-4.418-1.738-6.808
	c0-4.418-0.073-8.908-0.725-13.326c-0.724-5.215-2.825-9.415-7.243-12.312c-2.173-1.666-4.636-2.535-7.171-3.332
	c-9.634-3.186-19.196-6.59-28.903-9.415c-7.75-2.245-12.893-6.88-14.342-15.064c-0.507-2.897-2.101-4.78-4.926-5.722
	c-1.159-0.362-2.318-0.651-2.969-1.883c-1.015-3.766-0.508-7.677-0.435-11.443C280.06,253.357,281.292,252.415,283.247,252.343z"/>
<path fill="#FFD046" d="M228.848,178.108c-4.853,3.694-6.302,9.633-9.562,14.413c-0.362,0.507-0.869,1.014-0.869,1.593
	c-0.507,6.591-3.912,12.964-1.594,19.772c0.507,1.448,0.435,3.042,0.652,4.635c0.145,1.086-0.072,2.39,0.435,3.187
	c3.549,5.576,5.505,11.877,10.431,16.947c4.853,4.997,10.793,7.822,16.153,11.733c2.608,1.955,5.795,1.303,8.475,2.607
	c0.145,4.635,1.666,9.125,1.087,13.833c-0.145,0.362-0.218,0.797-0.58,0.869c-5.505,1.304-7.388,5.36-8.547,10.357
	c-1.304,5.504-5.433,8.691-10.576,10.429c-6.012,2.1-12.025,4.2-18.182,6.011c-5.287,1.521-10.503,3.404-15.791,5.215
	c-1.593,0.579-3.114,1.231-4.418,2.39c-5.578,3.838-8.186,9.053-7.968,15.86c0.072,1.811,0.941,4.129-1.594,5.287
	c-0.072-36.212-0.072-72.424-0.145-108.636c0-11.226,0-22.451,0-33.677c0-1.521-0.362-3.259,2.173-3.259
	c12.894,0.072,25.788,0.072,38.681,0.145C227.689,177.891,228.268,178.036,228.848,178.108z"/>
<path fill="#5B76C7" d="M186.327,323.247c0.869-2.68,0.29-5.505,0.58-8.184c0.652-5.867,3.114-10.719,8.475-13.761
	c2.535-0.942,5.143-1.231,7.823-1.231c42.52,0,85.04,0,127.56,0c2.825,0,5.505,0.434,8.186,1.231
	c5.07,3.114,7.75,7.677,8.185,13.543c0.29,4.201,0.362,8.329,0.507,12.53c-1.739,1.883-3.984,1.448-6.085,1.448
	c-16.298,0.073-32.596,0-48.822,0c-33.176,0-66.352,0-99.455-0.072c-2.39,0-5.215,0.796-6.881-2.028
	C186.327,325.564,186.327,324.405,186.327,323.247z"/>
<path fill="#00C6FC" d="M186.4,326.795c0.942,0.652,2.028,0.652,3.115,0.652c52.733,0,105.467-0.072,158.201-0.072
	c0.507,2.462-0.507,5.069,0.724,7.387c0,0.362,0,0.724,0.072,1.086c0.58,3.549-0.579,4.708-4.418,4.708
	c-40.42-0.145-80.839-0.073-121.331-0.073c-10.721,0-21.514-0.217-32.234,0.073c-3.839,0.072-4.853-1.159-4.419-4.708
	C186.4,332.806,186.327,329.765,186.4,326.795z"/>
<path fill="#B6522E" d="M253.549,267.335c-1.159-4.708-0.58-9.56-0.652-14.34c1.666,1.521-1.014,4.708,1.811,5.577
	c2.1,0.652,4.273-0.29,6.446-0.652c4.636-0.724,9.055-2.245,13.256-5.359c-10.72,3.186-17.24,0.362-22.527-9.56
	c-1.304-2.463-2.536-4.418-5.795-5.07c-3.84-0.724-6.302-3.839-7.172-7.822c-0.724-3.114,0.942-6.301,3.984-6.446
	c3.622-0.217,3.84-2.317,4.129-4.852c0.507-4.708,2.101-8.836,5.433-12.312c2.825-2.97,6.157-4.128,10.141-3.187
	c2.898,0.652,5.723,0.652,8.62,0.217c6.302-0.941,9.706,0.58,13.039,6.012c2.173,3.476,3.042,7.314,3.332,11.298
	c0.072,1.738,0.579,2.39,2.462,2.607c4.636,0.507,6.592,3.983,4.781,8.329c-1.231,2.897-3.259,5.069-6.229,6.228
	c-5.65,2.245-8.041,6.301-7.606,12.312c0.145,1.666,0.869,2.028,2.173,2.173c-1.738,0.507-2.246,1.666-2.173,3.476
	c0.145,3.839,0,7.677,0,11.443c-1.014,1.304-2.535,1.377-3.984,1.377c-6.519,0.072-13.039,0.072-19.558,0
	C256.084,268.639,254.635,268.566,253.549,267.335z"/>
<path fill="#F6F2EF" d="M253.548,267.335c9.127,0,18.327-0.073,27.454-0.073c5.505,0.652,7.388,2.173,8.402,7.677
	c1.304,6.881,5.361,11.009,11.88,13.037c10.648,3.404,21.224,6.953,31.872,10.356c2.028,0.652,4.056,1.449,5.722,2.897
	c-0.869,0.073-1.666,0.145-2.535,0.145c-46.142,0-92.356,0-138.498,0c-0.869,0-1.666-0.072-2.535-0.145
	c1.448-1.593,3.404-2.245,5.36-2.897c10.865-3.548,21.731-7.17,32.669-10.646c6.374-2.028,10.068-6.301,11.372-12.819
	C245.87,269.508,247.971,267.697,253.548,267.335z"/>
<path fill="#5A2413" d="M267.094,242.783c-2.173,0.217-3.984-0.362-5.432-1.811c-1.159-1.158-3.26-2.39-2.318-3.983
	c1.014-1.666,3.332-2.607,5.432-1.81c1.666,0.579,2.898,0.724,4.636,0c1.956-0.797,4.419,0.072,5.433,1.738
	c0.869,1.376-1.014,2.679-2.101,3.766C271.151,242.276,269.195,243.073,267.094,242.783z"/>
<path fill="#351A12" d="M259.126,226.995c-3.187,1.665-5.143-0.507-7.099-2.318c-0.941-0.869-0.652-1.666,0.58-2.173
	c2.318-0.941,4.563-1.303,6.809,0C260.502,224.025,260.792,225.546,259.126,226.995z"/>
<path fill="#351C15" d="M278.104,226.922c-0.29,0.145-0.58,0.435-0.942,0.507c-2.1,0.435-4.056,0.217-5.722-1.231
	c-0.725-0.579-0.218-1.376,0.362-1.811c1.811-1.448,3.332-3.693,6.157-2.1C280.205,223.808,279.77,225.329,278.104,226.922z"/>
<path fill="#ECDFD8" d="M278.104,226.922c0.579-1.521,0.724-3.114-0.145-4.635c1.956-1.304,4.346-0.072,4.346,1.159
	C282.305,225.256,280.494,226.922,278.104,226.922z"/>
<path fill="#E6D8D2" d="M259.126,226.995c0.724-1.449,0.507-2.97,0.29-4.491c0.652,0.363,1.376,0.58,1.811,1.087
	c0.724,0.724,2.173,1.521,1.521,2.462C262.096,227.067,260.72,228.081,259.126,226.995z"/>
<circle fill="#020A13" cx="58.14" cy="69.5" r="21.5"/>
<circle fill="#16DB93" cx="56.734" cy="66.496" r="21.5"/>
<polyline fill="none" stroke="#FFFFFF" stroke-width="2" stroke-miterlimit="10" points="47.353,66.666 52.265,72.566 65.5,59.331 
	"/>
<g>
	<circle fill="#16DB93" cx="74.395" cy="230.829" r="5.245"/>
	<polyline fill="none" stroke="#FFFFFF" stroke-width="0.75" stroke-miterlimit="10" points="72.107,230.87 73.305,232.309 
		76.534,229.081 	"/>
</g>
<g>
	<circle fill="#16DB93" cx="74.395" cy="258.5" r="5.245"/>
	<polyline fill="none" stroke="#FFFFFF" stroke-width="0.75" stroke-miterlimit="10" points="72.107,258.541 73.305,259.98 
		76.534,256.752 	"/>
</g>
<g>
	<circle fill="#16DB93" cx="74.32" cy="286.295" r="5.245"/>
	<polyline fill="none" stroke="#FFFFFF" stroke-width="0.75" stroke-miterlimit="10" points="72.032,286.336 73.23,287.775 
		76.459,284.547 	"/>
</g>
<g>
	<circle fill="#16DB93" cx="74.395" cy="318.3" r="5.245"/>
	<polyline fill="none" stroke="#FFFFFF" stroke-width="0.75" stroke-miterlimit="10" points="72.107,318.341 73.305,319.781 
		76.534,316.552 	"/>
</g>
<g>
	<circle fill="#16DB93" cx="385.704" cy="243.556" r="5.245"/>
	<polyline fill="none" stroke="#FFFFFF" stroke-width="0.75" stroke-miterlimit="10" points="383.415,243.597 384.613,245.036 
		387.842,241.808 	"/>
</g>
<g>
	<circle fill="#FF6B6B" cx="383.415" cy="272.962" r="5.245"/>
	<line fill="#091929" stroke="#FFFFFF" stroke-linecap="round" x1="381.247" y1="271.427" x2="385.586" y2="274.74"/>
	<line fill="#091929" stroke="#FFFFFF" stroke-linecap="round" x1="385.073" y1="270.913" x2="381.76" y2="275.253"/>
</g>
<g>
	<circle fill="#16DB93" cx="383.415" cy="300.784" r="5.245"/>
	<polyline fill="none" stroke="#FFFFFF" stroke-width="0.75" stroke-miterlimit="10" points="381.127,300.826 382.325,302.265 
		385.554,299.036 	"/>
</g>
<g>
	<circle fill="#16DB93" cx="383.34" cy="330.902" r="5.245"/>
	<polyline fill="none" stroke="#FFFFFF" stroke-width="0.75" stroke-miterlimit="10" points="381.052,330.943 382.25,332.382 
		385.479,329.154 	"/>
</g>
<g>
	<g>
		<g>
			<path d="M338.039,94.755c-0.435,0-0.788,0.353-0.788,0.788c0,0.292,0.159,0.546,0.395,0.682v0.876h0.786v-0.876
				c0.236-0.136,0.395-0.391,0.395-0.682C338.827,95.108,338.474,94.755,338.039,94.755z"/>
			<path d="M338.039,90.933c-0.663,0-1.201,0.539-1.201,1.201v1.279h2.403v-1.279C339.24,91.472,338.701,90.933,338.039,90.933z"/>
			<path d="M338.039,86.595c-4.186,0-7.58,3.394-7.58,7.58c0,4.186,3.394,7.58,7.58,7.58s7.58-3.394,7.58-7.58
				C345.618,89.988,342.225,86.595,338.039,86.595z M340.368,98.071h-4.658c-0.492,0-0.891-0.399-0.891-0.891v-2.876
				c0-0.429,0.304-0.787,0.708-0.872v-1.299c0-1.385,1.127-2.512,2.512-2.512c1.385,0,2.512,1.127,2.512,2.512v1.299
				c0.404,0.085,0.707,0.443,0.707,0.872v2.876h0C341.258,97.673,340.859,98.071,340.368,98.071z"/>
		</g>
	</g>
</g>
<path fill="#020A13" d="M221.35,26.502c0,0-0.223-0.188-0.508-0.517c-0.292-0.33-0.645-0.801-0.973-1.368
	c-0.327-0.562-0.591-1.236-0.756-1.971c-0.082-0.366-0.156-0.745-0.184-1.13c-0.048-0.383-0.041-0.783-0.048-1.163
	c0.019-0.371,0.032-0.741,0.093-1.106c0.047-0.365,0.129-0.724,0.229-1.072c0.095-0.348,0.222-0.687,0.354-1.006
	c0.119-0.304,0.257-0.597,0.402-0.872c0.303-0.55,0.632-1.033,0.907-1.384c0.268-0.35,0.48-0.563,0.48-0.563l0.1-0.101
	c0.045-0.046,0.119-0.046,0.165-0.001c0.02,0.02,0.031,0.045,0.034,0.07c0,0,0.081,0.759,0.165,1.906
	c0.046,0.575,0.071,1.244,0.061,1.958c0.003,0.715,0.006,1.478,0.008,2.241c-0.05,1.518-0.146,3.03-0.151,4.173
	c-0.031,1.141-0.077,1.903-0.077,1.903c-0.004,0.068-0.062,0.119-0.13,0.115c-0.027-0.002-0.052-0.012-0.072-0.029L221.35,26.502z"
	/>
<path fill="#020A13" d="M230.45,26.359c0,0,0.184-0.111,0.506-0.306c0.139-0.106,0.308-0.236,0.501-0.384
	c0.189-0.164,0.402-0.348,0.635-0.55c0.451-0.429,0.957-0.941,1.49-1.508c0.527-0.569,1.093-1.176,1.643-1.796
	c0.556-0.617,0.99-1.36,1.531-1.912c0.554-0.539,1.187-0.926,1.763-1.232c0.587-0.295,1.113-0.509,1.528-0.62
	c0.404-0.12,0.676-0.154,0.676-0.154c0.107-0.014,0.204,0.061,0.219,0.167c0.002,0.012,0.002,0.025,0.001,0.036
	c0,0-0.015,0.273-0.116,0.69c-0.093,0.424-0.295,0.968-0.596,1.573c-0.315,0.59-0.725,1.244-1.314,1.795
	c-0.594,0.545-1.403,0.941-2.1,1.449c-0.717,0.49-1.426,0.986-2.145,1.386c-0.699,0.422-1.402,0.755-2.004,1.023
	c-0.604,0.256-1.149,0.448-1.536,0.535c-0.371,0.056-0.583,0.088-0.583,0.088c-0.083,0.013-0.161-0.045-0.174-0.128
	C230.367,26.45,230.399,26.39,230.45,26.359z"/>
<path fill="#020A13" d="M232.551,36.83c0,0,0.319-0.044,0.877-0.121c0.279-0.036,0.618-0.079,1.007-0.128
	c0.388-0.052,0.797-0.191,1.251-0.297c0.453-0.124,0.928-0.221,1.442-0.386c0.516-0.165,1.06-0.339,1.623-0.519
	c1.121-0.347,2.311-0.801,3.499-1.205c1.187-0.449,2.323-1.022,3.445-1.412c1.129-0.354,2.233-0.54,3.201-0.655
	c0.97-0.097,1.803-0.129,2.404-0.09c0.597,0.027,0.954,0.094,0.954,0.094c0.093,0.017,0.154,0.107,0.136,0.199
	c-0.006,0.033-0.023,0.063-0.044,0.086c0,0-0.249,0.267-0.711,0.643c-0.459,0.388-1.139,0.856-1.986,1.357
	c-0.846,0.491-1.867,0.987-3.019,1.349c-1.15,0.356-2.476,0.453-3.731,0.74c-1.286,0.216-2.54,0.503-3.766,0.616
	c-0.607,0.066-1.193,0.13-1.75,0.191c-0.561,0.048-1.121,0.039-1.613,0.057c-0.496,0.001-0.95,0.041-1.339,0.006
	c-0.388-0.044-0.727-0.083-1.005-0.115c-0.557-0.07-0.876-0.11-0.876-0.11c-0.083-0.01-0.141-0.086-0.131-0.169
	C232.426,36.892,232.485,36.839,232.551,36.83z"/>
<path fill="#020A13" d="M231.188,42.678c0,0,0.023,0.079,0.065,0.226c0.013,0.084,0.061,0.15,0.112,0.217
	c0.038,0.071,0.106,0.15,0.202,0.237c0.349,0.348,1.038,0.691,1.944,0.922c1.808,0.477,4.369,0.69,6.923,0.844
	c1.28,0.082,2.582-0.036,3.782,0.057c1.199,0.113,2.311,0.364,3.265,0.636c0.953,0.285,1.749,0.577,2.301,0.851
	c0.554,0.261,0.86,0.473,0.86,0.473c0.077,0.053,0.097,0.159,0.043,0.237c-0.02,0.028-0.047,0.049-0.077,0.061
	c0,0-1.337,0.54-3.314,0.78c-0.989,0.121-2.144,0.189-3.371,0.073c-1.225-0.136-2.509-0.528-3.805-0.789
	c-1.295-0.278-2.591-0.575-3.788-0.955c-1.2-0.361-2.305-0.797-3.216-1.276c-0.906-0.471-1.642-1.014-1.971-1.594
	c-0.171-0.251-0.253-0.596-0.248-0.721c-0.004-0.154-0.005-0.235-0.005-0.235c-0.002-0.083,0.064-0.153,0.148-0.155
	C231.11,42.567,231.17,42.614,231.188,42.678z"/>
<path fill="none" stroke="#000000" stroke-width="2" stroke-miterlimit="10" d="M505.167,75.373c0,0,7.216,10.639-1.155,18.837
	c0,0,7.329-4.622,14.658,15.53c0,0-5.716-17.777,0-22.336C518.67,87.404,510.494,88.814,505.167,75.373z"/>
</svg>
