<svg width="15" height="16" viewBox="0 0 15 16" fill="none" xmlns="http://www.w3.org/2000/svg">
<g clip-path="url(#clip0)">
<path d="M7.56962 4.11837C7.10901 4.11837 6.74609 3.74271 6.74609 3.29748V0.820892C6.74609 0.361749 7.12296 0 7.56962 0C8.03024 0 8.39315 0.375663 8.39315 0.820892V3.28357C8.40711 3.74271 8.03024 4.11837 7.56962 4.11837Z" fill="#020A13"/>
<path d="M7.56962 15.75C7.10901 15.75 6.74609 15.3743 6.74609 14.9291V12.4664C6.74609 12.0073 7.12296 11.6455 7.56962 11.6455C8.03024 11.6455 8.39315 12.0212 8.39315 12.4664V14.9291C8.40711 15.3882 8.03024 15.75 7.56962 15.75Z" fill="#020A13"/>
<path d="M1.53953 12.3829C1.24641 12.3829 0.967244 12.2299 0.813704 11.9655C0.590374 11.5759 0.715997 11.0611 1.12078 10.8385L3.25638 9.61413C3.6472 9.39152 4.16365 9.51674 4.38698 9.92023C4.61031 10.3098 4.48469 10.8246 4.0799 11.0472L1.94431 12.2716C1.81869 12.3412 1.67911 12.3829 1.53953 12.3829Z" fill="#020A13"/>
<path d="M11.645 6.56699C11.3519 6.56699 11.0727 6.41394 10.9192 6.14959C10.6958 5.76001 10.8215 5.24521 11.2263 5.0226L13.3618 3.79822C13.7527 3.5756 14.2691 3.70082 14.4925 4.10431C14.7158 4.49389 14.5902 5.00868 14.1854 5.2313L12.0498 6.45568C11.9242 6.52525 11.7846 6.56699 11.645 6.56699Z" fill="#020A13"/>
<path d="M13.8791 12.2295C13.7396 12.2295 13.6 12.1878 13.4604 12.1182L11.3248 10.8938C10.934 10.6712 10.7944 10.1564 11.0177 9.76683C11.241 9.37725 11.7575 9.23812 12.1483 9.46073L14.2839 10.6851C14.6747 10.9077 14.8143 11.4225 14.591 11.8121C14.4375 12.0904 14.1583 12.2295 13.8791 12.2295Z" fill="#020A13"/>
<path d="M3.75902 6.41383C3.61943 6.41383 3.47985 6.37209 3.34027 6.30252L1.20468 5.06423C0.813851 4.84161 0.674269 4.32682 0.897599 3.93724C1.12093 3.54766 1.63738 3.40853 2.02821 3.63114L4.17776 4.86944C4.56859 5.09206 4.70817 5.60685 4.48484 5.99643C4.31734 6.26078 4.03818 6.41383 3.75902 6.41383Z" fill="#020A13"/>
</g>
<defs>
<clipPath id="clip0">
<rect width="14" height="15.75" fill="white" transform="translate(0.702148)"/>
</clipPath>
</defs>
</svg>
