<svg width="63" height="53" viewBox="0 0 63 53" fill="none" xmlns="http://www.w3.org/2000/svg">
<g clip-path="url(#clip0)">
<path d="M62.0249 30.609C62.1075 30.4375 62.1008 30.2337 61.894 30.1078C55.8304 25.9947 49.6978 21.9948 43.4962 18.1082C37.3265 14.241 31.1135 10.4805 24.8157 6.82367C21.271 4.73213 17.6869 2.70532 14.093 0.694695C13.9021 0.578491 13.7021 0.656353 13.5877 0.8085C13.4786 0.808631 13.3718 0.876678 13.293 1.00614C10.8342 5.65348 9.8993 10.9846 10.4296 16.1653C10.4855 16.7538 10.577 17.3197 10.6586 17.9018C10.6942 17.8791 10.7359 17.8823 10.7715 17.8596C11.2154 17.775 11.7562 18.1042 11.8849 18.5375C12.0113 18.9028 11.7983 19.2168 11.4157 19.2722C11.2453 19.3015 11.0627 19.2791 10.8938 19.1984C11.791 23.3825 13.6511 27.3099 16.3576 30.5991C20.0107 35.0192 25.0473 38.2409 30.5397 39.8547C35.7701 41.3976 41.3652 41.4103 46.6692 40.0035C51.7829 38.6584 56.5903 36.062 60.5668 32.5384C61.0768 32.0947 61.5549 31.6316 62.0331 31.1685C62.2346 30.9807 62.1802 30.7479 62.0249 30.609ZM16.7301 5.49439C16.6922 5.44916 16.6839 5.35538 16.662 5.31983C16.7408 5.19036 16.8537 5.14818 16.9393 5.22247C16.9771 5.2677 16.9953 5.3453 16.9657 5.39385C16.9324 5.48445 16.7839 5.54931 16.7301 5.49439ZM11.9834 15.8691C11.9137 15.8045 11.8993 15.6848 11.9744 15.5974C12.0433 15.4841 12.1979 15.4452 12.2933 15.5033C12.3887 15.5614 12.4251 15.7166 12.3659 15.8137C12.2712 15.9334 12.0849 15.9531 11.9834 15.8691ZM19.417 5.8437C19.0859 5.88615 18.8511 5.69884 18.83 5.37544C18.8354 5.22343 18.8665 5.06491 18.8877 4.92258C19.2377 5.13562 19.5717 5.33897 19.9216 5.55202C19.7973 5.72035 19.6291 5.81758 19.417 5.8437ZM19.8124 11.031C19.8162 10.9889 19.82 10.9469 19.8238 10.9048C19.8556 10.9242 19.9071 10.9112 19.9132 10.9371C19.9192 10.9629 19.8995 10.9953 19.9056 11.0212C19.8639 11.018 19.8382 11.0245 19.8124 11.031ZM18.2478 19.6165C18.0948 19.5456 18.0426 19.3807 18.1313 19.235C18.2435 19.015 18.4594 18.9468 18.6442 19.0371C18.7874 19.1243 18.8456 19.315 18.7729 19.4704C18.6546 19.6646 18.4387 19.7327 18.2478 19.6165ZM18.9187 23.2413C18.7823 23.3579 18.6316 23.3549 18.4983 23.2515C18.3392 23.1547 18.2453 22.9866 18.3022 22.8216C18.3454 22.7148 18.3985 22.5919 18.4735 22.5045C18.6076 22.3199 18.794 22.3003 18.9788 22.3907C19.1636 22.481 19.2318 22.6556 19.1711 22.8626C19.1574 22.9209 19.1339 22.9953 19.0945 23.06C19.0453 23.1409 18.9899 23.196 18.9187 23.2413ZM25.717 12.5407C25.6117 12.4988 25.5716 12.3857 25.6049 12.2951C25.6542 12.2142 25.7671 12.172 25.8564 12.2042C25.9458 12.2365 25.9761 12.3658 25.917 12.4629C25.8579 12.56 25.7965 12.5892 25.717 12.5407ZM27.9824 11.1473C27.8756 11.2153 27.7029 11.1767 27.6468 11.0539C27.6249 11.0184 27.6188 10.9925 27.6128 10.9666C27.6 10.737 27.8591 10.5621 28.0598 10.6621C28.0916 10.6814 28.1234 10.7008 28.1295 10.7267C28.2113 10.843 28.1347 11.0404 27.9824 11.1473ZM25.5713 15.8237C25.5455 15.8302 25.4781 15.8335 25.488 15.8173C25.4441 15.7462 25.4259 15.6686 25.4176 15.5748C25.4176 15.5748 25.479 15.5457 25.5146 15.523C25.5585 15.5941 25.6024 15.6652 25.6206 15.7428C25.6266 15.7686 25.5971 15.8172 25.5713 15.8237ZM27.2193 14.7641C27.1299 14.7319 27.1057 14.6284 27.1292 14.554C27.1724 14.4472 27.2853 14.405 27.3746 14.4373C27.4799 14.4792 27.52 14.5923 27.4708 14.6732C27.4276 14.78 27.3147 14.8222 27.2193 14.7641Z" fill="#007BFF"/>
</g>
<defs>
<clipPath id="clip0">
<rect width="57.3352" height="26.3924" fill="white" transform="translate(13.9043 0.00195312) rotate(31.3342)"/>
</clipPath>
</defs>
</svg>
