<svg width="326" height="175" viewBox="0 0 326 175" fill="none" xmlns="http://www.w3.org/2000/svg">
<path d="M110.22 0.350002C95.4716 2.33291 80.4561 24.3396 92.7428 36.3641C87.8622 49.0582 87.8144 68.2488 97.7837 77.174C104.344 83.296 114.604 82.8346 121.644 73.2595C126.874 66.0036 130.188 52.3745 130.995 43.2467C132.067 29.7335 128.225 37.7852 138.677 28.4333C139.989 27.304 136.638 24.9772 135.625 25.9084C134.015 27.2358 132.564 28.5434 130.935 29.712C129.025 6.41046 119.589 -0.807232 110.22 0.350002ZM111.567 2.11823C119.844 1.25708 127.633 8.19454 129.008 31.0785C120.665 36.6231 107.639 42.1013 98.5556 37.7419C100.706 32.9623 103.85 27.0926 108.139 25.273C111.217 24.0868 111.235 25.5355 113.59 30.2424C116.36 35.7039 118.742 35.4097 118.128 34.357C116.466 31.3381 117.365 26.8741 113.719 23.4554C108.447 18.6252 100.031 19.6647 93.719 33.8253C85.9354 23.018 99.0024 3.50894 111.567 2.11823ZM129.081 35.5835C128.984 47.848 125.106 67.3505 116.502 74.7007C113.302 77.5141 108.696 79.3729 104.41 78.6125C93.1805 76.4528 91.8226 55.0176 97.699 39.9435C107.833 44.9792 119.328 41.4635 129.081 35.5835ZM157.288 32.9055C155.383 33.1409 154.424 37.1284 154.164 38.934C152.313 42.2257 145.294 51.9596 141.541 52.9067C140.457 48.043 143.566 39.2758 143.646 38.621C144.046 36.637 138.552 33.93 137.835 35.9532C136.522 38.3725 132.674 50.2941 138.066 54.787C140.94 57.1727 143.798 56.8196 146.144 53.6279C147.536 51.8438 152.468 44.786 154.099 42.3275C155.103 47.846 160.932 51.9626 165.005 48.3963C167.33 46.3358 168.165 45.2653 172.139 42.195C174.186 40.4913 175.436 40.1756 175.993 39.462C176.271 39.1051 175.24 38.5877 175.101 38.7661C174.148 38.8838 174.009 39.0622 168.724 43.2617C166.538 45.1439 161.871 47.8162 160.185 47.2184C159.571 46.1657 160.055 40.947 160.653 39.261C161.111 37.7534 161.509 37.0594 161.609 36.5634C161.889 34.9166 159.848 32.7505 157.288 32.9055ZM174.852 25.5771C174.693 25.5967 174.535 25.6163 174.237 25.8143C170.187 26.9595 168.278 42.8332 175.093 51.0195C175.826 51.735 178.8 53.6246 179.577 52.0778C180.651 50.333 180.039 47.9903 180.441 44.7164C181.183 38.9821 186.101 27.8956 191.716 28.9754C192.053 29.095 192.39 29.2145 192.549 29.1949C192.906 29.4733 194.414 29.9319 194.316 29.138C194.241 25.9229 189.559 24.5665 186.919 25.3764C182.571 26.7195 178.27 36.2788 177.033 40.6232C176.794 41.2976 176.773 42.4288 176.737 39.5313C176.602 37.1298 176.966 32.2483 178.06 30.6622C178.458 29.9682 178.954 30.0682 179.252 29.8701C181.396 28.9604 178.048 25.3436 174.852 25.5771ZM44.1948 79.8838C43.7184 79.9426 43.4401 80.2994 43.3401 80.7954C41.9053 84.8418 44.6497 80.9561 38.2184 95.4538C31.2885 98.0832 24.1998 100.732 16.8346 102.448C15.1271 102.981 9.46934 104.164 7.34619 103.942C7.16778 103.803 7.00898 103.823 6.85019 103.842C6.65217 103.545 6.45415 103.247 6.41492 102.929C6.05999 101.361 7.31072 101.045 7.6498 99.8745C8.0496 97.8906 2.83468 94.8267 0.964629 97.9596C-0.607449 100.894 1.50818 106.276 7.69736 108.091C14.0649 110.045 28.5992 105.025 34.9332 102.792C31.1305 111.161 27.5277 118.539 23.1683 127.621C21.4253 125.257 17.0417 123.703 14.458 126.279C10.6217 130.461 13.5276 138.324 15.4256 143.248C7.40452 159.232 3.96615 162.72 7.69121 166.774C11.0595 170.55 15.0312 168.769 18.6087 165.103C27.0557 156.483 21.8305 146.81 19.756 140.457C19.2815 139.225 36.7976 103.529 37.6934 101.645C38.309 101.408 39.0833 101.151 39.6989 100.914C35.0619 123.412 32.1352 157.145 35.8648 171.677C36.6942 174.477 42.3286 175.715 41.6579 172.896C40.1382 167.119 40.1869 160.987 40.2551 155.013C40.089 132.786 42.7308 117.628 46.768 98.1058C80.8629 84.3826 77.8598 88.784 79.9203 91.1089C80.2968 91.546 80.2968 91.546 80.3752 92.1812C80.6125 92.7968 82.7337 94.3081 83.0924 93.2965C83.4315 92.1261 84.1862 91.7105 83.7118 90.4794C82.5255 87.4016 78.0653 83.9221 71.694 84.5479C65.8186 85.2736 53.6074 89.5226 48.0478 91.4991C48.5083 88.7015 49.0688 85.4079 48.3785 82.4301C48.102 81.497 45.6239 79.7072 44.1948 79.8838ZM20.2082 129.76C20.5846 130.198 21.1198 130.615 21.6354 130.874C20.5809 132.778 19.6851 134.662 18.7893 136.546C18.3755 134.501 18.4203 130.949 20.2082 129.76ZM16.8099 146.624C18.6079 152.045 18.62 157.363 14.4054 162.398C13.5703 163.468 11.5434 165.331 10.1338 165.666C9.06527 163.541 9.90034 162.471 16.8099 146.624ZM60.5384 118.491C57.6605 118.686 54.8396 120.646 54.2203 123.463C51.0071 122.248 48.5607 125.936 47.365 129.308C44.3348 138.71 50.9713 146.757 56.531 144.781C59.6088 143.595 63.6469 137.131 65.2404 133.065C70.3807 132.914 75.9011 130.62 79.2787 127.945C80.1726 127.351 78.2494 126.138 77.4946 126.554C74.1777 128.414 70.0864 130.532 66.1362 131.181C69.584 121.243 64.9846 117.942 60.5384 118.491ZM61.7069 120.12C64.5652 119.767 65.1182 121.634 64.7165 124.908C64.3363 127.05 63.6581 129.391 62.782 131.434C54.4874 130.846 53.885 122.054 61.0914 120.358C61.2306 120.179 61.5481 120.14 61.7069 120.12ZM54.493 126.977C54.6518 126.957 54.6499 128.247 56.2948 129.817C57.8005 131.566 59.8433 132.442 62.1645 132.961C60.7316 135.718 57.6286 140.615 54.69 141.623C54.2332 141.84 53.6176 142.078 53.1216 141.978C50.8827 139.514 51.7057 133.125 53.4972 129.357C54.2539 127.651 54.493 126.977 54.493 126.977ZM78.8304 113.008C78.6716 113.027 78.5128 113.047 78.2148 113.245C74.1647 114.39 72.2562 130.264 79.0711 138.45C79.8044 139.166 82.7785 141.055 83.5547 139.508C84.6289 137.764 84.0171 135.421 84.4188 132.147C85.1614 126.413 90.0795 115.326 95.6942 116.406C96.0314 116.526 96.3686 116.645 96.5274 116.626C96.8842 116.904 98.3918 117.363 98.2937 116.569C98.219 113.353 93.5374 111.997 90.8968 112.807C86.5487 114.15 82.2481 123.709 81.0113 128.054C80.7722 128.728 80.7507 129.859 80.7152 126.962C80.5798 124.56 80.9441 119.679 82.038 118.093C82.4359 117.399 82.9319 117.499 83.2299 117.301C85.3745 116.391 82.0259 112.774 78.8304 113.008ZM105.03 115.898C104.553 115.957 104.255 116.155 103.977 116.511C100.937 119.305 98.7415 127.637 100.5 132.74C101.706 135.977 104.898 138.323 108.291 138.388C115.257 138.656 123.155 125.589 127.785 121.309C128.199 123.354 128.236 124.961 128.352 127.204C119.332 133.799 108.043 145.512 105.091 155.549C101.322 168.106 113.122 173.581 123.106 159.128C128.714 151.019 132.583 137.966 132.202 127.051C136.056 124.318 140.128 122.041 144.397 120.063C145.152 119.647 143.546 118.395 142.772 118.652C139.118 120.393 135.483 122.293 132.047 124.491C131.813 121.295 131.7 117.762 128.506 116.706C125.65 115.769 123.501 119.259 121.792 121.082C118.373 124.729 111.455 132.677 106.254 133.641C104.989 129.929 106.726 123.104 109.092 120.071C109.251 120.052 109.568 120.012 109.549 119.854C111.595 118.15 107.57 115.584 105.03 115.898ZM128.368 129.943C128.169 157.052 111.283 169.133 108.034 165.02C107.262 163.987 106.926 162.577 106.948 161.446C106.626 151.007 120.142 136.44 128.368 129.943ZM181.792 105.126C181.474 105.166 181.157 105.205 180.998 105.224C173.97 107.06 177.188 118.754 178.329 125.384C173.419 131.31 167.15 143.209 174.031 146.711C177.125 148.264 179.648 146.501 181.457 144.182C186.368 138.255 184.911 130.374 183.532 123.129C187.845 118.888 192.195 116.255 197.319 113.365C198.074 112.949 196.468 111.697 195.713 112.112C191.185 114.606 187.272 116.863 183.199 120.429C182.569 116.638 181.804 110.445 185.556 109.498C185.715 109.478 185.894 109.617 186.052 109.598C186.925 110.135 188.73 110.396 188.534 108.808C188.042 106.128 184.333 104.813 181.792 105.126ZM178.78 129.036C179.153 132.053 179.047 136.419 177.813 139.473C176.856 142.171 175.823 142.943 174.531 144.231C174.333 143.933 174.115 143.477 174.076 143.159C173.506 139.844 176.354 132.882 178.78 129.036ZM206.771 100.429C203.893 100.623 201.072 102.584 200.453 105.401C197.239 104.186 194.793 107.873 193.597 111.245C190.567 120.648 197.204 128.695 202.763 126.718C205.841 125.532 209.879 119.068 211.473 115.002C216.613 114.851 222.133 112.557 225.511 109.883C226.405 109.289 224.482 108.075 223.727 108.491C220.41 110.352 216.319 112.469 212.369 113.118C215.816 103.181 211.217 99.8796 206.771 100.429ZM207.939 102.058C210.798 101.705 211.351 103.571 210.949 106.845C210.569 108.988 209.891 111.329 209.014 113.371C200.72 112.784 200.117 103.991 207.324 102.295C207.463 102.117 207.781 102.077 207.939 102.058ZM200.725 108.914C200.884 108.894 200.882 110.184 202.527 111.754C204.033 113.503 206.076 114.379 208.397 114.899C206.964 117.655 203.861 122.552 200.922 123.56C200.466 123.778 199.85 124.015 199.354 123.915C197.115 121.451 197.938 115.062 199.73 111.294C200.486 109.588 200.725 108.914 200.725 108.914ZM264.529 87.4907C264.212 87.5299 263.755 87.7476 263.635 88.0848C257.461 103.357 251.309 130.556 254.505 143.381C255.433 146.974 257.629 151.701 262.014 151.965C265.745 152.149 265.931 147.129 266.411 144.49C268.035 132.843 265.235 120.614 262.225 115.827C262.484 115.311 262.565 114.656 262.664 114.16C271.179 113.915 277.238 109.458 282.884 102.957C283.44 102.244 281.339 100.891 280.623 101.624C275.952 106.877 270.032 111.155 263.084 112.335C267.758 91.4447 271.728 90.9543 267.366 88.2688C266.85 88.0101 265.482 87.373 264.529 87.4907ZM261.704 119.438C265.377 132.204 263.909 145.121 261.267 147.221C258.261 139.854 260.044 128.187 261.704 119.438ZM289.271 92.173C287.524 92.3887 286.015 93.22 284.703 94.3493C277.55 100.392 277.498 109.104 280.233 111.668C284.038 115.067 287.978 107.809 291.26 103.051C292.069 105.692 294.647 106.986 296.871 106.711C300.84 106.221 304.12 102.752 306.862 100.157C307.578 99.4234 305.655 98.21 305.078 98.7649C303.051 100.627 300.826 102.192 298.225 103.319C294.532 104.743 293.459 105.198 292.89 100.593C292.812 99.9576 291.365 98.6854 290.828 99.5578C288.342 102.928 284.324 109.55 281.703 110.519C281.011 108.831 283.085 102.126 290.375 97.1955C291.13 96.7798 292.322 95.9878 293.016 96.3857C296.645 98.3557 296.176 93.2547 291.057 92.2748C290.383 92.0357 289.747 92.1141 289.271 92.173ZM306.475 84.889C306.317 84.9086 306.158 84.9282 305.86 85.1262C301.81 86.2714 299.901 102.145 306.716 110.331C307.449 111.047 310.423 112.937 311.2 111.39C312.274 109.645 311.662 107.302 312.064 104.028C312.806 98.294 317.724 87.2074 323.339 88.2873C323.676 88.4069 324.014 88.5264 324.172 88.5068C324.529 88.7852 326.037 89.2438 325.939 88.4499C325.864 85.2348 321.182 83.8784 318.542 84.6883C314.194 86.0314 309.893 95.5907 308.656 99.9351C308.417 100.609 308.396 101.741 308.36 98.8432C308.225 96.4416 308.589 91.5602 309.683 89.9741C310.081 89.2801 310.577 89.38 310.875 89.182C313.019 88.2723 309.671 84.6555 306.475 84.889Z" fill="#020A13"/>
</svg>
