<?xml version="1.0" encoding="utf-8"?>
<!-- Generator: Adobe Illustrator 17.0.0, SVG Export Plug-In . SVG Version: 6.00 Build 0)  -->
<!DOCTYPE svg PUBLIC "-//W3C//DTD SVG 1.1//EN" "http://www.w3.org/Graphics/SVG/1.1/DTD/svg11.dtd">
<svg version="1.1" id="Layer_1" xmlns="http://www.w3.org/2000/svg" xmlns:xlink="http://www.w3.org/1999/xlink" x="0px" y="0px"
	 width="320px" height="61px" viewBox="0 0 320 61" enable-background="new 0 0 320 61" xml:space="preserve">
<path fill="#020A13" stroke="#020A13" stroke-width="2" stroke-miterlimit="10" d="M315.158,56.804
	c-1.571,1.852-3.959,2.958-6.758,2.893c-10.586-0.247-20.924-1.4-31.502-1.239c-11.465,0.175-22.941,0.435-34.4-0.117
	c-0.273-0.013-0.546-0.026-0.819-0.039c-54.161-2.53-108.527,0.504-162.689,0.504c-20.213,0-40.686-1.445-60.839-0.473
	c-5.235,0.252-12.362,4.025-15.326-2.39C0.68,51.301,1.5,44.196,1.5,39.008c0-6.954,1.35-13.52,1.333-20.341
	C2.823,14.43,1.266,8.572,3.65,4.715c2.641-4.271,13.937-2.309,18.522-2.309c40.474,0,80.942,1.26,121.419,1.26
	c31.554,0,62.249-1.333,93.648-1.333c10.331,0,20.662,0,30.992,0c5.389,0,10.779,0,16.168,0c9.203,0,18.253,0.295,27.431-0.103
	c3.552-0.154,4.905-0.39,6.174,3.428c0.988,2.979,0.341,7.059,0.287,10.124c-0.108,6.079-0.356,12.157-0.582,18.232
	c-0.214,5.779-0.429,11.557-0.56,17.338C317.103,53.485,316.376,55.368,315.158,56.804z"/>
</svg>
