<svg width="271" height="5" viewBox="0 0 271 5" fill="none" xmlns="http://www.w3.org/2000/svg">
<g opacity="0.8" clip-path="url(#clip0)">
<path d="M7.46902 3.6108V4.35154H7.33683C7.33683 4.39784 7.33683 4.44413 7.40293 4.44413C7.60122 4.58302 7.40293 4.62932 7.33683 4.67562C7.27073 4.72191 7.20463 4.72191 7.13854 4.76821C7.07244 4.76821 6.94024 4.76821 6.87415 4.76821C6.94024 4.72191 7.07244 4.72191 7.13854 4.67562C7.20463 4.67562 7.20463 4.62932 7.27073 4.62932C7.27073 4.62932 7.27073 4.62932 7.20463 4.62932C7.07244 4.62932 6.87415 4.67562 6.74195 4.72191C6.74195 4.72191 6.74195 4.8608 6.74195 4.9071C6.74195 4.95339 6.74195 4.99969 6.74195 5.04599H6.67585C6.60976 4.99969 6.54366 4.95339 6.41146 4.9071C6.80805 4.72191 6.34537 4.76821 6.34537 4.72191C6.27927 4.44413 6.14707 4.67562 5.94878 4.67562C5.61829 4.67562 6.21317 4.8145 5.94878 4.8608C5.61829 4.95339 5.3539 4.72191 5.22171 4.67562C4.82512 4.53673 4.49463 4.62932 4.16415 4.72191C3.83366 4.76821 3.56927 4.95339 3.23878 4.99969C3.04049 4.99969 2.8422 4.8608 2.6439 4.76821C2.51171 4.72191 2.37951 4.8145 2.37951 4.8145C1.98293 4.76821 1.65244 4.9071 1.25585 4.76821C1.05756 4.72191 0.727073 4.8608 0.528781 4.95339L0.396585 4.99969C0.660976 4.8608 -0.132195 4.58302 0.528781 4.49043V4.39784C0.330488 4.35154 0.26439 4.30525 0.132195 4.25895C0.132195 4.30525 0.132195 4.35154 0.132195 4.39784V4.44413C0.132195 4.44413 0 4.44413 0 4.39784C0 4.30525 0 4.21265 0 4.07376C0 4.07376 0.132195 4.02747 0.198293 4.02747C0.198293 4.02747 0.26439 4.02747 0.330488 4.02747V3.98117C0.198293 3.93487 0.132195 3.79599 0.0660976 3.70339C0.198293 3.70339 0.26439 3.79599 0.396585 3.74969C0.793171 3.6108 1.25585 3.5645 1.71854 3.70339C1.85073 3.74969 2.04902 3.6108 2.24732 3.6108C2.44561 3.6108 2.6439 3.70339 2.7761 3.74969C3.10659 3.74969 3.43707 3.6108 3.76756 3.6571C3.96585 3.6571 4.16415 3.70339 4.29634 3.79599C4.29634 3.79599 4.29634 3.84228 4.36244 3.84228C4.95732 3.37932 5.68439 3.84228 6.34537 3.6571C6.67585 3.51821 7.07244 3.6108 7.46902 3.6108ZM1.91683 4.53673C1.91683 4.53673 1.85073 4.44413 1.78463 4.49043C1.58634 4.53673 1.38805 4.62932 1.18976 4.67562C1.32195 4.67562 1.38805 4.72191 1.58634 4.72191C1.71854 4.67562 1.78463 4.62932 1.91683 4.53673ZM3.17268 3.79599L2.7761 4.02747C2.8422 4.02747 2.90829 4.07376 2.97439 4.07376C3.04049 4.02747 3.17268 3.98117 3.23878 3.93487C3.30488 3.93487 3.23878 3.84228 3.17268 3.79599Z" fill="#020A13"/>
<path d="M93.2634 3.05564V3.84268C93.1312 3.79638 92.9329 3.79638 92.8668 4.07416C92.8007 4.02786 92.6685 4.02786 92.6685 3.98156C92.4702 3.79638 92.4041 3.84267 92.2719 4.02786C92.1397 4.16675 91.9414 4.12045 91.8753 3.98156C91.8753 3.98156 91.7431 4.02786 91.677 4.07416C91.6109 3.98156 91.6109 4.02786 91.5448 4.07416C91.4126 4.12045 91.2804 4.16675 91.1483 4.12045C90.95 4.07416 91.2144 4.02786 91.2144 4.02786C91.0822 3.98156 90.8839 3.93527 90.7517 3.98156C90.2229 4.21305 89.628 3.98156 89.0331 4.12045C88.5043 4.02786 88.0417 4.25934 87.4468 4.07416C87.0502 3.93527 86.3892 4.12045 85.8605 4.25934C85.53 4.35193 85.3317 4.16675 85.0673 4.12045C85.0012 4.12045 84.869 4.16675 84.7368 4.16675C84.3402 4.16675 83.9436 4.16675 83.547 4.12045C83.3487 4.12045 83.1505 3.93527 82.9522 3.93527C82.8861 3.93527 82.6878 4.02786 82.6878 4.12045C82.5556 4.44453 82.2251 4.07416 82.0929 4.25934C81.8285 4.16675 81.498 4.12045 81.498 3.84268C81.4319 3.93527 81.4319 4.02786 81.3658 4.12045C81.1014 4.35193 80.837 4.16675 80.5726 4.12045C80.3744 4.07416 80.11 4.07416 79.9117 4.25934C79.9778 4.25934 80.0439 4.25934 80.0439 4.30564V4.35193C79.9117 4.35193 79.8456 4.35193 79.7134 4.30564C79.6473 4.30564 79.6473 4.25934 79.6473 4.21305L79.7134 4.16675C79.7795 4.16675 79.7795 4.16675 79.8456 4.12045L79.7795 4.07416C79.7134 4.07416 79.5151 4.12045 79.5151 4.16675C79.5151 4.39823 79.1846 4.16675 79.1185 4.30564C78.6558 4.12045 78.5897 4.12045 78.127 4.25934C77.9948 4.30564 77.7965 4.25934 77.6644 4.30564C77.4 4.44453 77.4 4.21305 77.3339 4.16675C77.2678 4.12045 77.2017 4.12045 77.1356 4.12045C77.2017 4.16675 77.2017 4.21305 77.2017 4.21305C77.2017 4.21305 77.2017 4.25934 77.2017 4.30564C77.0034 4.30564 76.8712 4.16675 76.6068 4.35193C76.4085 4.49082 75.8136 4.30564 75.417 4.39823C75.0865 4.44453 74.8883 4.44453 74.69 4.21305C74.5578 4.49082 74.2273 4.49082 73.9629 4.53712C73.5663 4.53712 73.2358 4.53712 72.8392 4.58342C72.5748 4.62971 72.8392 4.25934 72.707 4.39823C72.5087 4.58342 72.3104 4.58342 72.1122 4.58342C71.8478 4.58342 71.5173 4.7223 71.2529 4.44453C71.2529 4.44453 71.319 4.39823 71.3851 4.35193L71.0546 4.25934H70.9885V4.30564C70.8563 4.58342 70.5258 4.30564 70.2614 4.39823C70.0631 4.49082 69.7987 4.44453 69.5344 4.49082C69.4022 4.49082 69.1378 4.62971 69.1378 4.35193C69.1378 4.35193 69.0717 4.30564 69.0056 4.30564C68.9395 4.30564 68.8073 4.35193 68.7412 4.39823C68.6751 4.53712 68.4768 4.62971 68.2124 4.62971C67.8819 4.62971 67.5514 4.67601 67.287 4.58342C66.8244 4.44453 66.3617 4.62971 65.899 4.49082C65.7007 4.44453 65.4363 4.44453 65.1719 4.25934C65.0397 4.16675 65.3041 4.39823 65.0397 4.44453C64.5109 4.44453 64.9736 3.88897 64.5109 3.93527C64.3126 3.93527 64.0483 3.70379 63.9822 4.07416C63.9822 4.07416 64.0483 4.02786 64.0483 4.07416C64.1144 4.07416 64.1805 4.12045 64.2465 4.16675C64.4448 4.25934 64.3787 4.35193 64.3787 4.49082C64.3787 4.25934 64.1144 4.21305 64.1144 4.16675C64.0483 3.98156 63.9161 4.12045 63.85 4.02786C63.85 4.07416 63.9161 4.12045 63.9161 4.12045C63.9161 4.12045 63.9161 4.16675 63.85 4.16675H63.0568L63.189 4.02786C62.9246 4.02786 62.6602 4.16675 62.528 4.07416C62.3297 3.93527 61.9992 4.25934 61.9331 3.98156C61.8009 4.02786 61.7348 4.21305 61.6026 4.02786C61.4705 4.25934 61.14 3.84267 61.0739 4.16675C61.0739 4.16675 60.8095 4.16675 60.7434 4.12045L59.4875 4.02786C59.7519 3.84267 59.2231 3.84267 59.3553 3.65749C59.3553 3.65749 59.3553 3.61119 59.2892 3.5649V3.65749C58.8265 3.24082 58.6944 3.70379 58.4961 3.79638C58.43 3.65749 58.2978 3.5649 58.0995 3.61119C58.0995 3.61119 58.0334 3.65749 58.0334 3.70379C58.1656 3.70379 58.2978 3.93527 58.4961 3.79638C58.6944 3.84267 58.9587 3.88897 58.8265 4.16675C58.8265 4.21305 58.5622 4.25934 58.8265 4.30564C58.8926 4.30564 58.9587 4.25934 58.9587 4.25934C58.8926 4.02786 59.0909 3.84268 59.2231 3.61119C59.2892 3.70379 59.3553 3.84267 59.2892 3.93527C59.0248 4.25934 58.7605 4.44453 58.1656 4.35193C57.7029 4.25934 57.108 4.39823 56.5792 4.39823C56.447 4.39823 56.2487 4.49082 56.2487 4.25934C56.2487 4.30564 56.1826 4.39823 56.1826 4.39823C55.6539 4.21305 54.9929 4.53712 54.4641 4.21305H54.398L54.1997 4.30564C54.2658 4.30564 54.2658 4.30564 54.3319 4.30564C54.3319 4.30564 54.3319 4.35193 54.398 4.35193C54.2658 4.39823 54.1997 4.44453 54.0675 4.44453C53.6709 4.44453 53.2083 4.49082 52.8117 4.49082C52.7456 4.49082 52.6134 4.44453 52.5473 4.39823C52.6795 4.35193 52.7456 4.35193 52.8778 4.30564C52.9439 4.30564 53.0761 4.25934 53.1422 4.30564C53.4066 4.35193 53.737 4.16675 54.0014 4.35193C54.0014 4.30564 54.0675 4.25934 54.0675 4.25934C54.1336 4.02786 54.0014 4.16675 53.8692 4.21305C53.8031 4.25934 53.6048 4.25934 53.6048 4.25934C53.5387 4.21305 53.6048 4.07416 53.4066 4.25934C53.3405 4.35193 52.8778 4.35193 52.6795 4.30564C52.2829 4.21305 52.1507 4.62971 51.7541 4.53712C51.6219 4.49082 51.4236 4.58342 51.2914 4.58342C50.7626 4.58342 50.3 4.58342 49.7712 4.58342C49.7051 4.58342 49.639 4.53712 49.5729 4.49082C49.5068 4.44453 49.5068 4.35193 49.5068 4.30564C49.5068 4.35193 49.5068 4.44453 49.5068 4.49082C49.5068 4.53712 49.5068 4.53712 49.4407 4.58342L49.3746 4.53712C49.3746 4.44453 49.3085 4.35193 49.3085 4.25934C49.1102 4.30564 49.1102 4.39823 49.1763 4.53712C49.1763 4.53712 49.1102 4.58342 49.1102 4.62971H49.0441C49.0441 4.58342 49.0441 4.58342 49.0441 4.53712C49.1763 4.30564 49.0441 4.21305 48.9119 4.16675C48.8458 4.12045 48.7797 4.07416 48.7136 4.07416C48.7797 4.07416 48.7797 4.02786 48.8458 4.02786V3.98156C48.7797 3.98156 48.7136 3.98156 48.6475 3.98156C48.6475 3.98156 48.5814 4.02786 48.5814 4.07416C48.5814 4.21305 48.6475 4.30564 48.6475 4.44453C48.6475 4.58342 48.6475 4.62971 48.3831 4.53712C48.317 4.53712 48.2509 4.49082 48.2509 4.44453C48.0527 4.7686 47.7883 4.49082 47.5239 4.49082C47.1273 4.49082 46.6646 4.30564 46.3341 4.67601C46.3341 4.67601 46.268 4.67601 46.268 4.62971C46.2019 4.58342 46.0697 4.49082 46.0036 4.53712C45.7392 4.58342 45.5409 4.62971 45.3427 4.67601C45.0122 4.7223 44.7478 4.7223 44.4173 4.7686C44.3512 4.7686 44.2851 4.67601 44.219 4.62971C44.219 4.39823 44.1529 4.25934 43.8224 4.39823L43.6241 4.21305C43.3597 4.21305 43.1614 4.21305 42.897 4.21305C42.3683 4.21305 41.9056 4.25934 41.3768 4.02786C41.1124 3.93527 40.7158 3.93527 40.4514 3.84268C40.3853 3.84268 40.2531 3.98156 40.1209 4.02786C40.2531 4.02786 40.187 4.35193 40.4514 4.16675C40.5836 4.30564 40.9141 4.12045 41.0463 4.30564C41.0463 4.35193 41.0463 4.44453 41.1124 4.49082C40.9802 4.44453 40.848 4.35193 40.7158 4.35193C40.4514 4.35193 40.1209 4.39823 39.8566 4.44453C39.6583 4.49082 39.5922 4.44453 39.5922 4.30564V4.25934C39.5261 4.44453 39.3939 4.30564 39.2617 4.30564C39.2617 4.25934 39.3278 4.21305 39.2617 4.16675C39.2617 4.12045 39.1956 4.07416 39.1295 4.07416C38.8651 3.98156 38.799 4.21305 38.7329 4.30564H38.2702L38.3363 4.21305L38.138 4.12045V4.07416L38.0058 4.02786H37.9397C37.6092 4.25934 37.3448 4.21305 37.2127 3.88897C37.2127 3.88897 37.1466 3.88897 37.1466 3.84268C37.2787 4.16675 36.9483 4.12045 36.75 4.21305C36.8822 4.30564 36.8822 4.39823 36.6839 4.39823C36.4195 4.44453 36.089 4.44453 35.8246 4.44453H35.7585L35.8246 4.39823C35.8907 4.35193 35.8907 4.30564 35.9568 4.25934C35.9568 4.25934 35.8907 4.21305 35.8246 4.21305C35.8246 4.25934 35.7585 4.30564 35.7585 4.30564C35.5602 4.25934 35.428 4.21305 35.2958 4.21305C34.9653 4.25934 35.1636 4.02786 35.1636 4.07416C35.0314 4.12045 34.9653 4.21305 34.8992 4.25934C34.8331 4.30564 34.8331 4.30564 34.767 4.30564C34.7009 4.30564 34.7009 4.25934 34.7009 4.25934C34.767 4.25934 34.8331 4.25934 34.8331 4.25934C34.8992 4.25934 34.8992 4.21305 34.9653 4.16675V4.12045H34.5687C34.4366 4.12045 34.2383 4.02786 34.1061 4.07416C33.9078 4.21305 34.1722 4.25934 34.2383 4.30564C34.3044 4.30564 34.4366 4.25934 34.5027 4.21305C34.6348 4.44453 34.1722 4.35193 34.1722 4.53712C34.04 4.39823 33.7756 4.7223 33.7756 4.44453C33.7756 4.44453 33.7756 4.44453 33.7095 4.39823C33.6434 4.44453 33.5773 4.49082 33.5773 4.53712C33.5773 4.58342 33.5773 4.62971 33.5773 4.67601C33.5773 4.7223 33.5773 4.7686 33.5773 4.8149L33.379 4.7686C33.4451 4.7686 33.4451 4.7686 33.5112 4.7686V4.7223C33.4451 4.62971 33.4451 4.58342 33.379 4.49082L33.2468 4.58342C33.3129 4.58342 33.379 4.58342 33.379 4.62971C33.379 4.67601 33.379 4.7223 33.379 4.7223C33.2468 4.7686 33.1146 4.86119 32.9824 4.90749C32.9824 4.86119 33.0485 4.86119 33.0485 4.8149C33.1146 4.67601 33.0485 4.58342 32.8502 4.58342C32.718 4.53712 32.718 4.49082 32.7841 4.44453C32.8502 4.39823 32.9824 4.39823 33.0485 4.39823C32.9824 4.35193 32.9163 4.35193 32.8502 4.30564C32.5197 4.12045 32.718 4.39823 32.6519 4.44453C32.3875 4.67601 32.1231 4.30564 31.8587 4.39823C31.7266 4.35193 31.6605 4.16675 31.5283 4.39823C31.4622 4.49082 31.33 4.49082 31.2639 4.35193L30.6029 4.7223H30.5368C30.4046 4.62971 30.4046 4.49082 30.3385 4.39823C30.4046 4.39823 30.5368 4.39823 30.6029 4.44453C30.8012 4.58342 30.8012 4.30564 30.9995 4.35193C30.9334 4.30564 30.8673 4.25934 30.8012 4.21305C30.4046 3.93527 30.8012 4.35193 30.6029 4.30564C30.5368 4.30564 30.4707 4.35193 30.4707 4.35193C30.008 4.25934 30.0741 4.67601 29.8758 4.7686C29.8097 4.8149 29.6775 4.8149 29.5453 4.86119C29.5453 4.8149 29.4792 4.7686 29.4792 4.7686C29.6114 4.44453 29.1488 4.49082 29.0166 4.30564C28.8844 4.12045 28.6861 3.93527 28.3556 3.93527C28.2895 3.93527 28.2234 3.88897 28.0912 3.88897C28.0251 3.88897 28.0251 3.93527 27.959 3.98156C28.3556 3.88897 28.3556 4.44453 28.8183 4.30564C28.8844 4.30564 28.9505 4.30564 28.9505 4.30564C28.8183 4.39823 28.6861 4.44453 28.5539 4.53712C28.5539 4.53712 28.4217 4.44453 28.3556 4.39823V4.35193C28.2895 4.39823 28.2234 4.39823 28.2234 4.44453C28.1573 4.49082 28.0912 4.58342 28.0251 4.62971C27.959 4.62971 27.8929 4.58342 27.7607 4.53712C27.8268 4.53712 27.959 4.49082 28.0251 4.49082C28.0251 4.49082 28.2234 4.35193 28.0251 4.39823C27.8929 4.39823 27.6946 4.49082 27.5624 4.53712L27.4302 4.49082C27.2319 4.67601 27.0997 4.49082 27.0336 4.44453C26.9014 4.25934 26.8353 4.07416 27.2319 3.98156C27.298 3.98156 27.3641 4.07416 27.4302 4.12045C27.4302 4.07416 27.4302 3.98156 27.4302 3.98156C27.3641 3.98156 27.0997 3.88897 27.0997 3.93527C26.9014 4.12045 26.7692 4.25934 26.5048 3.98156V4.02786C26.637 4.07416 26.7692 4.21305 26.9014 4.21305C27.0997 4.21305 27.0336 4.21305 26.9675 4.30564C26.9014 4.35193 26.9014 4.35193 26.8353 4.35193C26.7692 4.39823 27.1658 4.30564 26.9014 4.44453C26.9014 4.44453 26.9014 4.67601 26.7692 4.49082C26.7692 4.44453 26.5709 4.44453 26.5048 4.49082C26.3727 4.58342 26.0422 4.25934 26.1083 4.62971C26.1083 4.62971 26.0422 4.67601 25.9761 4.67601C25.7117 4.7223 25.4473 4.90749 25.1168 4.8149C25.0507 4.8149 25.0507 4.8149 24.9846 4.7686C24.9846 4.7686 24.9185 4.7223 24.9846 4.7223C25.3151 4.35193 24.8524 4.49082 24.7202 4.44453C24.7863 4.44453 24.9185 4.44453 24.9846 4.44453C25.1829 4.35193 24.8524 4.35193 24.9185 4.25934L24.4558 4.30564L24.588 3.98156C24.3236 4.02786 24.1914 3.70379 23.9931 3.88897C23.8609 4.02786 24.2575 4.25934 23.8609 4.35193C23.927 4.35193 23.927 4.35193 23.9931 4.39823C24.2575 4.62971 24.3236 4.21305 24.5219 4.30564L24.3897 4.39823L24.7863 4.49082C24.4558 4.62971 24.7863 4.67601 24.8524 4.7223V4.7686C24.7863 4.7686 24.7863 4.7686 24.7202 4.7686C24.3236 4.8149 23.927 4.67601 23.5966 4.90749C23.5966 4.90749 23.5305 4.90749 23.4644 4.86119C23.4644 4.8149 23.3983 4.7686 23.3983 4.7223C23.3983 4.67601 23.3983 4.67601 23.4644 4.62971L23.0017 4.53712C23.0017 4.58342 23.0017 4.62971 23.0017 4.67601C23.0017 4.7223 23.0017 4.7686 22.9356 4.7686C22.6712 4.8149 22.3407 4.8149 22.0763 4.86119C21.8119 4.90749 21.4814 4.7223 21.217 4.90749H21.1509C21.1509 4.86119 21.1509 4.8149 21.217 4.7686C21.2831 4.7223 21.3492 4.7223 21.4814 4.67601C21.217 4.7223 21.5475 4.35193 21.217 4.44453L21.1509 4.49082L21.217 4.53712C21.2831 4.58342 21.2831 4.62971 21.3492 4.67601C21.3492 4.67601 21.3492 4.67601 21.2831 4.7223C21.217 4.53712 21.0848 4.7686 21.0187 4.67601C20.9527 4.62971 20.9527 4.53712 20.8205 4.53712C20.7544 4.53712 20.6222 4.58342 20.6222 4.62971C20.6222 4.7223 20.6222 4.7686 20.6222 4.86119C20.6222 4.86119 20.6222 4.90749 20.6883 4.90749L20.6222 4.95379C20.49 4.95379 20.3578 4.90749 20.2256 4.90749C20.0934 4.86119 20.0273 4.7223 19.9612 4.7686C19.6968 4.86119 20.0934 4.8149 20.0273 4.86119C19.6968 5.04638 19.3663 4.95379 19.0358 4.95379C18.6392 4.90749 18.2427 4.8149 17.9122 4.62971C17.7139 4.53712 17.6478 4.7223 17.5156 4.67601L17.5817 4.86119C17.7139 4.8149 17.8461 4.8149 17.9122 4.7686C17.9783 4.7686 17.9783 4.7223 18.0444 4.67601C18.0444 4.7223 18.0444 4.7686 18.0444 4.8149C17.9783 4.90749 17.8461 5.04638 17.8461 5.00008C17.3173 4.86119 16.7224 5.00008 16.1936 4.95379C16.0614 4.95379 15.9292 4.86119 15.797 4.86119C15.6648 4.86119 15.5987 4.95379 15.4666 4.95379C15.4666 4.95379 15.3344 4.90749 15.3344 4.86119C15.4005 4.7686 15.4666 4.7223 15.5327 4.67601C15.4666 4.7223 15.3344 4.7223 15.2683 4.7686C15.2022 4.8149 15.1361 4.86119 15.0039 4.90749C14.9378 4.95379 14.9378 5.00008 14.9378 5.00008C14.4751 4.67601 14.0124 5.13897 13.5497 4.95379L13.4175 4.90749V4.86119C13.5497 4.8149 13.8141 4.7686 13.748 4.7223C13.4836 4.62971 13.1531 4.62971 12.8887 4.62971C12.7566 4.62971 12.6905 4.7686 12.6244 4.86119C12.6244 4.90749 12.6244 4.95379 12.6244 4.95379L11.7651 4.90749C11.8312 4.90749 11.8973 4.86119 11.9634 4.86119V4.8149H11.5007V4.86119C11.5668 4.90749 11.5668 4.90749 11.6329 4.95379C11.5668 4.95379 11.5007 4.95379 11.4346 4.95379C10.9719 4.95379 10.4431 4.95379 9.98046 4.90749C9.84826 4.90749 9.71607 4.7686 9.51777 4.67601C9.51777 4.67601 9.45168 4.62971 9.45168 4.67601L9.38558 4.7223C9.31948 5.09267 9.12119 4.67601 8.98899 4.7686C8.98899 4.7686 8.8568 4.67601 8.7907 4.62971H8.46021C8.46021 4.67601 8.39412 4.67601 8.39412 4.7223L8.46021 4.7686L8.52631 4.8149L8.46021 4.86119C8.26192 4.8149 7.99753 4.7686 7.79924 4.67601C7.53485 4.49082 8.12973 4.62971 7.93143 4.44453C7.93143 4.39823 7.86533 4.35193 7.86533 4.35193C7.73314 4.30564 7.60095 4.30564 7.46875 4.25934V3.5186C7.60095 3.5186 7.79924 3.5186 7.93143 3.4723C7.99753 3.4723 8.52631 3.28712 8.59241 3.65749C8.8568 3.4723 9.12119 3.79638 9.38558 3.65749C9.45168 3.61119 9.51777 3.65749 9.58387 3.70379L9.51777 3.88897V3.93527H9.58387C9.64997 3.88897 9.64997 3.84268 9.64997 3.84268C9.58387 3.75008 9.64997 3.70379 9.78216 3.70379C9.84826 3.70379 9.98046 3.5649 9.91436 3.75008C9.98046 3.75008 10.0466 3.75008 10.1127 3.70379V3.61119C10.7736 3.24082 11.4346 3.42601 12.0956 3.5649C12.2939 3.61119 12.6905 3.42601 12.8227 3.5186C13.087 3.65749 13.2192 3.42601 13.4175 3.4723C13.6158 3.5186 13.8141 3.5186 13.9463 3.5186C14.3429 3.5186 14.7395 3.33342 15.2022 3.5186C15.4005 3.61119 15.9292 3.70379 16.2597 3.37971C16.3919 3.28712 16.7224 3.37971 16.9868 3.42601C17.3173 3.4723 17.7139 3.5649 18.0444 3.61119C18.1105 3.24082 18.507 3.42601 18.7714 3.33342C19.1019 3.24082 19.4985 3.5186 19.7629 3.24082H19.829C19.829 3.37971 19.7629 3.5186 19.7629 3.70379L19.6968 3.75008C19.6968 3.75008 19.7629 3.79638 19.7629 3.75008C19.8951 3.61119 20.0934 3.4723 20.2256 3.33342C20.2256 3.28712 20.2917 3.28712 20.2917 3.24082H20.3578L20.2917 3.28712C20.2917 3.33342 20.2917 3.42601 20.2917 3.42601C20.4239 3.42601 20.5561 3.42601 20.6222 3.42601C20.7544 3.37971 20.8866 3.28712 21.0187 3.28712C21.4814 3.24082 22.0102 3.19453 22.4729 3.33342C22.8034 3.42601 23.1339 3.14823 23.4644 3.33342C23.5305 3.37971 23.5966 3.4723 23.6627 3.5649C23.5966 3.70379 23.5305 3.5649 23.5305 3.5649C23.3983 3.33342 23.4644 3.61119 23.4644 3.65749H23.3983C23.3983 3.65749 23.3983 3.61119 23.3322 3.61119L23.2661 3.65749H23.3322C23.3322 3.65749 23.3322 3.65749 23.3983 3.65749C23.5305 3.65749 23.6627 3.70379 23.7948 3.70379C23.7948 3.70379 23.8609 3.65749 23.8609 3.61119L23.6627 3.5649C23.7287 3.5186 23.8609 3.42601 23.8609 3.42601C24.0592 3.4723 24.3897 3.37971 24.4558 3.65749C24.4558 3.70379 24.7202 3.70379 24.8524 3.75008C24.8524 3.75008 24.9185 3.70379 24.9185 3.65749C24.8524 3.5649 24.9185 3.42601 24.6541 3.5186C24.6541 3.5186 24.588 3.5186 24.5219 3.4723C24.6541 3.42601 24.7202 3.33342 24.8524 3.33342C25.3812 3.28712 25.8439 3.28712 26.3727 3.28712C26.4388 3.28712 26.5709 3.28712 26.637 3.28712L26.4387 3.33342L26.5048 3.37971C26.637 3.37971 26.7692 3.33342 26.8353 3.33342L28.9505 3.37971C29.6775 3.37971 30.4046 3.42601 31.1978 3.42601C31.5944 3.42601 31.9909 3.33342 32.3214 3.33342C32.9163 3.28712 33.5112 3.33342 34.1722 3.28712C34.3044 3.28712 34.5687 3.33342 34.5687 3.14823C35.0975 3.37971 35.6263 3.00934 36.1551 3.24082C36.4856 3.37971 36.6178 3.14823 36.8822 3.14823C37.6092 3.14823 38.3363 3.05564 39.0634 3.19453C39.5922 3.24082 39.9888 3.05564 40.3192 3.24082C40.3192 3.24082 40.5175 3.05564 40.7158 3.05564C41.1124 3.10193 41.509 2.91675 41.9717 3.10193C42.17 3.19453 42.5005 3.10193 42.7648 3.00934C43.0953 2.87045 42.7648 3.37971 43.0292 3.14823C43.0292 3.14823 43.0953 3.19453 43.0953 3.14823C43.1614 3.10193 43.1614 3.05564 43.2275 3.00934C43.2936 3.00934 43.3597 3.05564 43.4258 3.10193C43.6241 3.19453 43.8224 3.33342 44.0207 3.33342C44.4173 3.28712 44.8139 3.19453 45.1444 3.05564C45.4088 2.91675 45.2766 3.10193 45.2766 3.14823C45.5409 3.28712 45.8053 2.87045 46.0036 3.19453C46.0697 3.00934 46.4663 3.33342 46.4002 3.00934C46.4002 2.96305 46.5324 2.96305 46.5985 2.91675L46.6646 3.05564C46.8629 2.96305 47.1273 2.73156 47.1934 3.10193C47.2595 3.4723 47.3256 3.05564 47.3917 3.10193C47.4578 3.14823 47.5239 3.14823 47.59 3.19453L47.6561 3.14823C47.7222 3.19453 47.7883 3.24082 47.8544 3.28712C47.7883 3.28712 47.7222 3.33342 47.6561 3.33342L47.59 3.37971C47.6561 3.37971 47.6561 3.37971 47.7222 3.42601L47.8544 3.4723C47.5239 3.19453 48.5153 3.65749 48.0527 3.28712C47.9865 3.24082 47.9865 3.14823 48.0527 3.14823C48.1848 3.10193 48.2509 3.10193 48.3831 3.10193C48.4492 3.10193 48.5153 3.14823 48.5153 3.14823C48.4492 3.10193 48.3831 3.05564 48.3831 3.00934C48.3831 2.96305 48.317 2.96305 48.2509 2.91675C48.317 2.91675 48.317 2.91675 48.3831 2.91675C48.5153 2.96305 48.5814 3.00934 48.7136 3.05564C48.7136 3.05564 48.7136 3.10193 48.7136 3.14823C48.7797 3.14823 48.9119 3.10193 48.978 3.10193C49.1102 3.19453 49.2424 3.14823 49.3746 3.10193L49.4407 3.14823C49.5068 3.10193 49.5729 3.05564 49.639 3.00934C49.5729 3.00934 49.5729 2.91675 49.639 2.91675C49.7051 2.91675 49.7712 2.91675 49.7712 2.96305C49.7712 3.00934 49.7712 3.05564 49.7712 3.10193V3.14823C49.8373 3.14823 49.9034 3.10193 49.9034 3.10193C49.9034 3.00934 50.2339 3.19453 50.1017 2.96305C50.1017 2.91675 50.1017 2.91675 50.0356 2.87045L50.4983 3.00934C50.6305 2.68527 50.8948 3.37971 50.9609 2.96305C50.9609 2.96305 51.0931 2.96305 51.1592 2.96305C50.8948 3.05564 51.5558 3.00934 51.2253 3.10193C51.2253 3.10193 51.2253 3.14823 51.1592 3.14823C51.1592 3.14823 51.1592 3.14823 51.2253 3.14823C51.3575 3.14823 51.5558 3.24082 51.5558 3.19453C51.688 3.10193 52.0846 2.91675 52.2829 2.96305C52.349 2.96305 52.2829 3.14823 52.2829 3.19453C52.4151 3.37971 52.349 3.24082 52.349 3.14823C52.349 3.05564 52.4151 2.91675 52.4812 2.91675C53.0761 3.00934 53.6048 2.77786 54.1997 3.00934C54.1997 3.00934 54.2658 3.00934 54.3319 2.96305V2.91675C54.3319 2.87045 54.2658 2.82416 54.2658 2.77786H54.4641L54.398 2.82416C54.398 2.82416 54.398 2.87045 54.4641 2.87045C54.5963 2.91675 54.7946 3.00934 54.9268 3.05564C54.9929 3.05564 55.1251 3.05564 55.1912 3.05564L55.2573 3.14823C55.059 3.19453 54.9929 3.24082 54.9268 3.24082L55.059 3.37971L54.6624 3.5649C54.7946 3.5649 54.9268 3.5649 55.059 3.5649C55.1251 3.5649 55.3234 3.5649 55.3234 3.5649C55.3234 3.42601 55.1912 3.42601 55.059 3.42601C55.1912 3.28712 55.3895 3.10193 55.5217 2.96305C55.5217 2.96305 55.72 3.00934 55.7861 3.05564C56.1826 3.10193 56.1826 2.63897 56.5131 2.63897C56.5792 2.63897 56.7114 2.59268 56.7775 2.59268C56.8436 2.59268 56.9097 2.68527 56.9758 2.73156C56.8436 2.73156 56.7114 2.73156 56.6453 2.73156C56.6453 2.73156 56.6453 2.77786 56.6453 2.82416C56.7114 2.77786 56.7775 2.87045 56.8436 2.87045C57.108 2.91675 57.3063 2.87045 57.5707 2.87045H57.7029C57.7029 2.91675 57.6368 2.91675 57.6368 2.96305V3.00934C57.7029 3.00934 57.8351 3.00934 57.9012 3.00934L57.8351 2.96305C57.8351 2.91675 57.769 2.87045 57.769 2.77786C57.9673 2.82416 58.0334 2.77786 58.1656 2.77786C58.5622 2.73156 58.9587 2.73156 59.3553 2.68527C59.7519 2.68527 60.1485 2.73156 60.5451 2.73156C60.7434 2.73156 61.0078 2.63897 61.2061 2.63897C61.4705 2.63897 61.8009 2.68527 61.9992 2.82416C62.3958 3.05564 62.8585 2.87045 63.3212 2.91675C63.3873 2.91675 63.5195 2.77786 63.5856 2.68527C63.6517 2.91675 63.9161 2.91675 64.0483 2.96305C64.1805 3.00934 64.2466 3.10193 64.3126 3.19453L64.1144 3.37971L64.5109 3.4723L64.3787 3.19453C64.3126 2.63897 64.7753 3.10193 64.9736 3.00934C65.0397 2.96305 65.1058 2.91675 65.1719 2.82416C65.238 2.87045 65.238 3.00934 65.3702 2.82416C65.4363 2.82416 65.5685 2.77786 65.6346 2.77786C65.5685 2.87045 65.5685 2.87045 65.8329 3.00934C65.8329 3.05564 65.8329 3.10193 65.7668 3.14823L66.0312 3.10193C66.0973 3.14823 66.1634 3.19453 66.2956 3.24082C66.3617 3.28712 66.4939 3.28712 66.4939 3.24082C66.56 3.19453 66.6261 3.10193 66.6922 3.00934C66.56 3.05564 66.4939 3.05564 66.3617 3.10193H66.0973C65.9651 3.05564 65.899 3.00934 65.8329 2.96305C65.8329 2.87045 65.8329 2.77786 65.6346 2.73156C66.0312 2.73156 66.4278 2.96305 66.8244 2.77786C66.6922 3.00934 66.9566 3.00934 67.0887 3.10193H67.1548C67.0887 2.50008 67.6175 3.00934 67.8158 2.87045C68.0802 2.68527 68.4107 3.14823 68.6751 2.82416C68.8073 3.10193 69.0717 3.00934 69.3361 3.00934C69.4683 3.00934 69.6665 3.05564 69.7987 3.05564H69.8648C69.9309 3.14823 69.997 3.28712 70.0631 3.37971C69.997 3.28712 69.9309 3.14823 69.997 3.05564C69.997 2.91675 70.1292 2.73156 70.1953 2.73156C70.5919 2.68527 71.0546 2.73156 71.4512 2.68527C71.7817 2.59268 71.8478 2.96305 71.98 2.87045C72.3765 2.63897 72.4426 3.14823 72.707 3.00934C73.0375 2.87045 72.4426 2.91675 72.6409 2.77786C72.6409 2.77786 72.3765 2.54638 72.5748 2.54638C72.8392 2.50008 73.2358 2.40749 73.5002 2.59268C73.5663 2.63897 73.6324 2.77786 73.6985 2.87045C73.6985 2.77786 74.029 2.82416 73.8968 2.63897C74.029 2.63897 74.0951 2.59268 74.2273 2.59268C74.5578 2.45379 74.8883 2.68527 75.1526 2.68527C75.0865 2.91675 75.3509 2.82416 75.3509 2.77786C75.1526 2.3149 75.6814 2.59268 75.7475 2.59268C76.0119 2.59268 76.3424 2.63897 76.5407 2.73156C76.739 2.82416 76.2763 2.77786 76.4085 2.87045C76.3424 2.87045 76.1441 2.87045 76.2763 2.96305C76.3424 3.00934 76.6068 2.96305 76.6729 2.91675C77.0034 2.68527 77.3339 2.68527 77.7305 2.73156C78.0609 2.73156 78.3914 2.68527 78.7219 2.59268C78.9202 2.54638 79.1185 2.59268 79.3168 2.77786C79.3829 2.82416 79.6473 2.68527 79.7134 2.73156C80.0439 2.91675 80.2422 2.3149 80.5726 2.68527C80.837 2.2686 80.7709 2.96305 80.9692 2.77786L81.0353 2.73156C80.9692 2.63897 80.7048 2.54638 80.9031 2.50008C81.2336 2.40749 81.5641 2.3149 81.8946 2.45379C82.0929 2.50008 82.2912 2.50008 82.4895 2.50008C82.6878 2.45379 82.8861 2.54638 83.0183 2.54638C83.2826 2.54638 83.547 2.45379 83.8775 2.50008C83.9436 2.50008 84.0097 2.45379 84.0758 2.40749C84.0097 2.59268 84.4724 2.59268 84.2741 2.82416C84.208 2.87045 83.9436 2.91675 84.208 3.00934C84.2741 2.91675 84.3402 2.87045 84.4063 2.77786C84.4724 2.59268 85.1334 2.54638 85.3978 2.68527C85.4639 2.73156 85.5961 2.77786 85.5961 2.73156C85.7944 2.54638 85.8605 2.50008 85.7944 2.82416L85.8605 2.87045C85.9265 2.77786 85.9926 2.63897 86.257 2.68527C86.1909 2.50008 86.3892 2.54638 86.4553 2.59268C86.7858 2.73156 86.6536 2.3149 86.918 2.36119V2.2686L87.0502 2.36119C87.1163 2.2686 87.3146 2.08342 87.3807 2.22231C87.5129 2.54638 87.8434 2.40749 88.0417 2.36119C88.24 2.36119 88.4383 2.17601 88.5704 2.3149C88.7026 2.45379 88.7027 2.63897 88.6366 2.82416C88.6366 2.87045 88.6365 3.00934 88.7026 3.05564C88.7687 3.10193 88.9009 3.05564 88.967 3.05564C88.9009 3.00934 88.8348 2.96305 88.7687 2.96305C88.7687 2.87045 88.7687 2.73156 88.8348 2.63897C88.9009 2.54638 89.0331 2.54638 89.0331 2.68527C89.0331 2.63897 89.0331 2.54638 89.0992 2.54638C89.3636 2.45379 89.5619 2.54638 89.7602 2.63897C89.8263 2.68527 89.9585 2.68527 90.0907 2.73156C90.0907 2.68527 90.0907 2.59268 90.0907 2.54638C90.0907 2.50008 90.1568 2.50008 90.1568 2.45379C90.2229 2.73156 90.4873 2.50008 90.6195 2.59268C90.6856 2.63897 90.6856 2.68527 90.7517 2.73156C90.8178 2.77786 90.8178 2.87045 90.8839 2.96305C91.0161 2.87045 90.8839 2.82416 90.8839 2.77786C90.8839 2.63897 90.95 2.50008 91.2144 2.50008C91.1483 2.77786 91.8092 2.2686 91.5448 2.73156C91.7431 2.68527 91.9414 2.68527 92.0736 2.63897C92.2719 2.59268 92.6024 2.40749 92.6685 2.45379C92.9329 2.68527 92.999 2.2686 93.1973 2.36119C93.2634 2.36119 93.2634 2.40749 93.2634 2.45379C93.0651 2.40749 93.3956 2.73156 93.1312 2.59268C93.1312 2.68527 93.1312 2.73156 93.1312 2.82416C93.1312 3.00934 93.1973 3.05564 93.2634 3.05564ZM15.2022 4.02786L14.6734 3.84268C14.6734 3.93527 14.6073 4.02786 14.6734 4.02786C14.8056 4.07416 14.9378 4.07416 15.07 4.07416C15.1361 4.07416 15.2022 4.02786 15.2022 4.02786ZM16.3919 4.58342C16.2597 4.53712 16.2597 4.49082 16.0614 4.62971C16.0614 4.58342 16.1275 4.58342 16.0614 4.62971L15.9953 4.67601C16.1275 4.7223 16.3258 4.7686 16.3919 4.7686C16.6563 4.7223 16.5241 4.62971 16.3919 4.58342ZM16.9207 4.30564L16.5241 4.12045C16.5241 4.16675 16.458 4.25934 16.3919 4.35193C16.458 4.35193 16.5241 4.39823 16.5241 4.39823C16.6563 4.39823 16.7885 4.35193 16.9207 4.30564ZM17.5156 4.12045C17.3173 4.07416 17.1851 4.02786 17.119 4.02786C16.9207 4.07416 17.3173 4.21305 17.119 4.25934C17.1851 4.25934 17.2512 4.25934 17.3834 4.25934C17.3834 4.25934 17.3834 4.21305 17.5156 4.12045ZM18.9697 4.44453C18.8375 4.35193 18.7714 4.25934 18.5731 4.21305C18.507 4.21305 18.7053 4.49082 18.2427 4.30564C18.2427 4.44453 18.2427 4.53712 18.3088 4.62971L18.9697 4.44453ZM22.2746 4.44453C22.0763 4.35193 21.7458 4.25934 21.5475 4.30564C21.0187 4.44453 21.6797 4.49082 21.6797 4.49082C21.7458 4.30564 21.878 4.49082 22.0102 4.62971C21.9441 4.39823 22.3407 4.44453 22.2746 4.44453ZM23.3983 4.12045C23.3322 3.93527 23.2 3.84267 22.8034 3.88897C22.8034 3.88897 22.6712 3.93527 22.4729 3.98156L22.8695 4.02786C22.8695 4.02786 22.9356 4.02786 22.9356 4.07416L23.2661 4.39823C23.4644 4.25934 23.0678 4.25934 23.1339 4.16675V4.12045C23.1339 4.12045 23.2 4.16675 23.2661 4.16675L23.3983 4.12045ZM27.8929 3.5649C27.8929 3.5186 27.8268 3.5186 27.7607 3.5186C27.6285 3.5186 27.4963 3.5186 27.3641 3.5649C27.2319 3.61119 27.0997 3.70379 27.0336 3.79638C27.0336 3.79638 27.0336 3.84267 27.0336 3.88897L27.0997 3.93527C27.298 3.79638 27.4963 3.70379 27.6946 3.84268H27.7607L27.6946 3.79638C27.6946 3.75008 27.6946 3.70379 27.6946 3.65749H27.7607C27.7607 3.65749 27.8268 3.70379 27.8268 3.75008C27.8929 3.61119 27.8929 3.5649 27.8929 3.5649ZM33.7095 4.21305C33.5112 4.07416 33.2468 4.35193 33.1146 4.16675C33.1146 4.21305 33.0485 4.25934 33.0485 4.30564C33.1807 4.62971 33.379 4.30564 33.5773 4.35193C33.7756 4.39823 33.7756 4.21305 33.7095 4.21305ZM40.0548 3.93527L39.9888 3.98156L39.7905 3.79638C39.6583 3.84267 39.5261 3.98156 39.5922 3.70379C39.5922 3.61119 39.5922 3.5649 39.5922 3.4723H39.5261C39.46 3.65749 39.3278 3.65749 39.2617 3.4723C39.2617 3.4723 39.1956 3.4723 39.1956 3.5186C39.1956 3.5649 39.1956 3.61119 39.1956 3.61119C39.2617 3.70379 39.3278 3.79638 39.3939 3.88897C39.3939 3.93527 39.3939 3.98156 39.3939 3.98156C39.7905 4.21305 39.46 3.79638 39.6583 3.93527C39.7244 3.98156 39.7244 4.16675 39.7905 4.25934C39.7905 4.25934 40.0548 4.25934 40.0548 4.21305C40.0548 4.16675 40.0548 4.02786 40.0548 3.93527ZM42.6327 3.79638C42.5666 3.5186 42.4344 3.75008 42.3683 3.79638C42.3022 3.79638 42.17 3.84268 42.1039 3.75008C41.9056 4.25934 42.3022 4.02786 42.4344 4.02786C42.5005 3.98156 42.6327 3.84267 42.6327 3.79638ZM43.7563 3.75008C43.4919 3.70379 43.1614 3.70379 42.8309 3.75008C42.7648 3.75008 42.6987 3.84267 42.6987 3.88897C42.897 4.30564 43.2275 3.84267 43.2275 3.88897C43.6241 3.98156 43.7563 3.75008 43.7563 3.75008ZM50.9609 3.28712C51.027 3.4723 51.2253 3.37971 51.4236 3.42601C51.3575 3.42601 51.2914 3.4723 51.2253 3.4723C51.1592 3.5186 51.0931 3.5186 51.0931 3.5649C51.027 3.75008 51.2914 3.75008 51.4236 3.88897C51.4236 3.88897 51.4897 3.84268 51.5558 3.84268C51.4897 3.79638 51.4897 3.79638 51.4236 3.75008C51.3575 3.70379 51.3575 3.65749 51.2914 3.61119H51.3575C51.4236 3.61119 51.4897 3.61119 51.5558 3.5649C51.5558 3.5649 51.6219 3.5186 51.5558 3.5186C51.4897 3.4723 51.4236 3.4723 51.3575 3.42601C51.2914 3.28712 51.2914 3.14823 51.0931 3.19453C51.027 3.19453 50.9609 3.28712 50.9609 3.28712ZM51.8202 4.07416C51.5558 3.98156 51.3575 3.93527 51.1592 3.84268C51.0931 3.84268 51.027 3.88897 51.027 3.88897C51.1592 4.16675 51.5558 3.98156 51.7541 4.16675L51.8202 4.07416ZM61.867 3.61119C61.6687 3.61119 61.8009 3.5649 61.9992 3.42601C61.7348 3.42601 61.6687 3.4723 61.5365 3.4723C61.7348 3.61119 61.867 3.98156 62.1314 3.88897C62.3297 3.84267 62.1975 3.5649 61.867 3.61119ZM68.2785 3.75008C68.0802 3.70379 67.8158 3.61119 67.6175 3.61119C67.5514 3.61119 67.4853 3.70379 67.4192 3.79638C67.6836 3.84267 67.8819 3.84267 68.1463 3.88897C68.2124 3.79638 68.2124 3.75008 68.2785 3.75008ZM69.27 3.65749L69.0717 3.5649C68.8734 3.84267 68.6751 3.61119 68.4107 3.61119C68.2124 3.75008 68.4768 3.93527 68.5429 3.88897C68.8734 3.88897 69.0717 3.75008 69.27 3.65749ZM72.5748 4.07416C72.5087 4.07416 72.3765 4.02786 72.3105 4.02786L71.98 3.98156C72.0461 3.70379 71.7817 3.88897 71.7156 3.88897C71.7156 3.88897 71.6495 3.88897 71.5834 3.88897C71.5834 3.93527 71.5834 4.02786 71.6495 4.07416C71.8478 4.30564 72.1122 4.16675 72.3765 4.12045C72.4426 4.07416 72.5087 4.25934 72.5748 4.07416ZM72.5748 3.61119C72.3105 3.19453 71.9139 3.4723 71.5834 3.42601C71.5834 3.42601 71.5834 3.42601 71.5173 3.4723L72.5748 3.61119C72.5748 3.65749 72.5748 3.61119 72.5748 3.61119ZM72.707 3.19453C72.5087 3.14823 72.3765 3.10193 72.1783 3.05564C72.1122 3.05564 72.0461 3.10193 72.0461 3.14823C72.1783 3.19453 72.3765 3.28712 72.5087 3.33342C72.5748 3.28712 72.6409 3.24082 72.707 3.19453ZM74.5578 3.75008C74.4256 3.75008 74.3595 3.75008 74.2934 3.70379C74.029 3.5649 73.8968 3.84268 73.6985 3.75008C73.6985 3.79638 73.6324 3.84268 73.6985 3.84268C73.8307 4.02786 73.8968 3.84267 74.029 3.79638C74.0951 3.79638 74.1612 3.79638 74.2273 3.79638C74.2273 3.84267 73.9629 3.98156 74.2273 3.98156C74.2934 4.02786 74.4256 3.84268 74.5578 3.75008ZM75.3509 3.65749C75.2187 3.61119 75.0865 3.5649 75.0205 3.5649C74.9544 3.70379 75.2848 3.75008 75.0865 3.88897C75.0865 3.88897 75.0865 3.98156 75.0865 4.02786C75.2187 3.93527 75.2848 3.84267 75.3509 3.65749ZM81.7624 3.05564C81.6302 3.00934 81.5641 2.91675 81.4319 2.87045L81.3658 2.91675C81.2997 3.19453 81.5641 3.05564 81.6302 3.14823L81.7624 3.05564ZM86.1909 2.96305C85.9926 2.73156 85.8605 3.24082 85.6622 2.96305C85.53 3.05564 85.6622 3.10193 85.7944 3.10193C85.7944 3.14823 85.7943 3.19453 85.8605 3.24082C85.9265 3.14823 85.9265 3.00934 86.1909 2.96305Z" fill="#020A13"/>
<path d="M179.058 2.22227V3.00931C178.926 2.96301 178.727 2.96301 178.661 3.19449C178.595 3.14819 178.463 3.14819 178.463 3.1019C178.265 2.91671 178.199 2.96301 178.067 3.14819C177.934 3.28708 177.736 3.24079 177.67 3.1019C177.67 3.1019 177.538 3.14819 177.472 3.19449C177.406 3.1019 177.406 3.14819 177.339 3.19449C177.207 3.24079 177.009 3.24079 176.943 3.24079C176.745 3.19449 177.009 3.14819 177.009 3.14819C176.877 3.1019 176.678 3.0556 176.546 3.1019C176.018 3.28708 175.423 3.1019 174.828 3.19449C174.299 3.1019 173.836 3.33338 173.241 3.14819C172.845 3.00931 172.184 3.19449 171.655 3.33338C171.258 3.42597 171.126 3.24079 170.862 3.19449C170.796 3.19449 170.664 3.24079 170.531 3.24079C170.135 3.24079 169.738 3.24079 169.342 3.19449C169.143 3.14819 168.945 3.00931 168.747 2.96301C168.681 2.96301 168.482 3.0556 168.416 3.14819C168.284 3.47227 167.954 3.1019 167.821 3.28708C167.557 3.19449 167.227 3.14819 167.227 2.82412C167.16 2.91671 167.16 3.00931 167.094 3.1019C166.83 3.33338 166.566 3.14819 166.301 3.1019C166.103 3.0556 165.838 3.0556 165.64 3.24079C165.706 3.24079 165.772 3.24079 165.772 3.28708V3.33338C165.64 3.33338 165.574 3.33338 165.442 3.28708C165.376 3.28708 165.376 3.24079 165.376 3.19449L165.442 3.14819C165.508 3.14819 165.508 3.14819 165.574 3.1019L165.508 3.0556C165.442 3.0556 165.244 3.1019 165.244 3.14819C165.178 3.37968 164.913 3.14819 164.847 3.28708C164.384 3.1019 164.318 3.1019 163.856 3.24079C163.723 3.28708 163.525 3.24079 163.393 3.28708C163.128 3.42597 163.128 3.19449 163.062 3.14819C162.996 3.1019 162.93 3.1019 162.864 3.1019C162.864 3.14819 162.93 3.19449 162.93 3.19449C162.93 3.19449 162.93 3.24079 162.93 3.28708C162.732 3.28708 162.6 3.14819 162.335 3.33338C162.137 3.47227 161.542 3.28708 161.146 3.33338C160.815 3.37968 160.551 3.37968 160.418 3.14819C160.286 3.42597 159.956 3.42597 159.691 3.42597C159.295 3.42597 158.964 3.42597 158.568 3.47227C158.303 3.51856 158.568 3.14819 158.436 3.28708C158.237 3.47227 158.039 3.47227 157.841 3.47227C157.576 3.47227 157.246 3.61116 156.981 3.33338C156.981 3.33338 157.048 3.28708 157.114 3.24079L156.783 3.14819H156.717V3.19449C156.519 3.47227 156.254 3.19449 155.99 3.28708C155.792 3.37968 155.527 3.33338 155.263 3.33338C155.131 3.33338 154.866 3.47227 154.866 3.19449C154.866 3.19449 154.8 3.14819 154.734 3.14819C154.668 3.14819 154.536 3.19449 154.47 3.24079C154.404 3.37968 154.205 3.47227 153.941 3.47227C153.61 3.47227 153.28 3.51856 153.016 3.42597C152.553 3.28708 152.09 3.42597 151.628 3.33338C151.429 3.28708 151.165 3.28708 150.9 3.1019C150.768 3.00931 151.033 3.28708 150.768 3.28708C150.239 3.28708 150.702 2.73153 150.239 2.77782C150.041 2.77782 149.777 2.54634 149.711 2.91671C149.711 2.91671 149.777 2.87042 149.777 2.91671C149.843 2.91671 149.909 2.96301 149.975 3.00931C150.173 3.1019 150.107 3.19449 150.041 3.33338C149.909 3.28708 149.645 3.24079 149.645 3.19449C149.578 3.00931 149.446 3.14819 149.38 3.0556C149.38 3.1019 149.446 3.14819 149.446 3.14819C149.446 3.14819 149.446 3.19449 149.38 3.19449H148.587L148.785 3.0556C148.521 3.0556 148.257 3.19449 148.124 3.1019C147.926 2.96301 147.596 3.28708 147.529 2.96301C147.397 3.00931 147.331 3.14819 147.199 3.00931C147.067 3.24079 146.736 2.82412 146.604 3.14819C146.604 3.14819 146.34 3.14819 146.274 3.1019L145.018 2.96301C145.282 2.77782 144.753 2.77782 144.886 2.59264C144.886 2.59264 144.886 2.54634 144.819 2.50005L144.753 2.59264C144.357 2.22227 144.291 2.63894 144.026 2.73153C143.96 2.59264 143.894 2.50005 143.63 2.54634C143.63 2.54634 143.564 2.59264 143.564 2.63894C143.696 2.68523 143.762 2.91671 144.026 2.73153C144.225 2.77782 144.489 2.82412 144.357 3.1019C144.357 3.14819 144.092 3.19449 144.357 3.24079C144.423 3.24079 144.489 3.19449 144.489 3.19449C144.423 2.96301 144.621 2.77782 144.753 2.59264C144.753 2.68523 144.886 2.82412 144.819 2.91671C144.555 3.24079 144.291 3.42597 143.696 3.28708C143.233 3.19449 142.638 3.28708 142.109 3.33338C141.977 3.33338 141.779 3.42597 141.779 3.19449C141.713 3.24079 141.713 3.33338 141.647 3.33338C141.118 3.14819 140.457 3.47227 139.928 3.14819H139.862L139.664 3.24079C139.73 3.24079 139.73 3.24079 139.796 3.24079C139.796 3.24079 139.796 3.28708 139.862 3.28708C139.73 3.33338 139.664 3.37968 139.532 3.37968C139.135 3.37968 138.672 3.42597 138.276 3.42597C138.21 3.42597 138.078 3.37968 138.011 3.33338C138.144 3.28708 138.21 3.28708 138.342 3.24079C138.408 3.24079 138.54 3.19449 138.606 3.24079C138.871 3.28708 139.201 3.1019 139.466 3.33338C139.466 3.28708 139.532 3.24079 139.532 3.24079C139.598 3.00931 139.466 3.14819 139.333 3.19449C139.267 3.24079 139.069 3.24079 139.069 3.19449C139.003 3.14819 139.069 3.00931 138.871 3.19449C138.805 3.28708 138.342 3.28708 138.144 3.24079C137.747 3.14819 137.615 3.51856 137.218 3.47227C137.086 3.42597 136.888 3.51856 136.756 3.51856C136.227 3.51856 135.764 3.51856 135.235 3.51856C135.169 3.51856 135.103 3.47227 135.037 3.42597C134.971 3.37968 135.037 3.28708 134.971 3.24079C134.971 3.28708 134.971 3.37968 134.971 3.42597C134.971 3.47227 134.971 3.47227 134.905 3.51856L134.839 3.47227C134.839 3.37968 134.773 3.28708 134.773 3.19449C134.574 3.24079 134.574 3.33338 134.64 3.47227C134.64 3.47227 134.574 3.51856 134.574 3.56486H134.508C134.508 3.51856 134.508 3.51856 134.508 3.47227C134.574 3.33338 134.442 3.24079 134.31 3.19449C134.244 3.14819 134.178 3.1019 134.112 3.1019C134.178 3.1019 134.178 3.0556 134.244 3.0556V3.00931C134.178 3.00931 134.112 3.00931 134.046 3.00931C134.046 3.00931 133.979 3.0556 133.979 3.1019C133.979 3.24079 134.046 3.33338 134.046 3.47227C134.046 3.61116 133.979 3.65745 133.781 3.56486C133.715 3.56486 133.649 3.51856 133.649 3.47227C133.451 3.79634 133.186 3.51856 132.922 3.51856C132.525 3.51856 132.063 3.33338 131.732 3.70375C131.732 3.70375 131.666 3.70375 131.666 3.65745C131.6 3.61116 131.468 3.51856 131.402 3.51856C131.137 3.56486 130.939 3.61116 130.741 3.65745C130.41 3.70375 130.146 3.70375 129.815 3.70375C129.749 3.70375 129.683 3.61116 129.617 3.56486C129.617 3.33338 129.551 3.19449 129.22 3.33338L129.088 3.24079C128.824 3.24079 128.626 3.24079 128.361 3.24079C127.832 3.24079 127.37 3.28708 126.841 3.0556C126.577 2.96301 126.18 2.96301 125.916 2.87042C125.849 2.82412 125.717 2.96301 125.585 3.0556C125.717 3.0556 125.651 3.37968 125.916 3.19449C126.048 3.33338 126.378 3.14819 126.51 3.37968C126.51 3.42597 126.51 3.51856 126.577 3.56486C126.444 3.51856 126.312 3.42597 126.18 3.42597C125.916 3.42597 125.585 3.47227 125.321 3.51856C125.122 3.56486 125.056 3.51856 125.056 3.37968V3.33338C124.99 3.51856 124.858 3.37968 124.726 3.37968C124.726 3.33338 124.792 3.28708 124.726 3.24079C124.726 3.19449 124.66 3.14819 124.594 3.14819C124.329 3.0556 124.263 3.28708 124.197 3.37968H123.734L123.867 3.24079L123.668 3.1019V3.0556L123.536 3.00931H123.47C123.139 3.24079 122.875 3.19449 122.743 2.87042C122.743 2.87042 122.677 2.87042 122.677 2.82412C122.809 3.14819 122.478 3.1019 122.28 3.19449C122.412 3.28708 122.412 3.37968 122.214 3.37968C121.95 3.42597 121.619 3.42597 121.355 3.42597H121.289L121.355 3.37968C121.421 3.33338 121.421 3.28708 121.487 3.24079C121.487 3.24079 121.421 3.19449 121.355 3.19449C121.355 3.24079 121.289 3.28708 121.289 3.28708C121.09 3.24079 120.958 3.19449 120.826 3.19449C120.496 3.24079 120.694 3.00931 120.694 3.0556C120.562 3.1019 120.496 3.19449 120.429 3.24079C120.363 3.28708 120.363 3.28708 120.297 3.28708C120.231 3.28708 120.231 3.24079 120.231 3.24079C120.297 3.24079 120.363 3.24079 120.363 3.24079C120.429 3.24079 120.429 3.19449 120.496 3.14819V3.1019H120.099C119.967 3.1019 119.768 3.00931 119.636 3.0556C119.438 3.19449 119.702 3.24079 119.768 3.28708C119.835 3.28708 119.967 3.24079 120.033 3.19449C120.165 3.42597 119.702 3.33338 119.702 3.51856C119.57 3.37968 119.306 3.70375 119.306 3.42597C119.306 3.42597 119.306 3.42597 119.24 3.37968C119.174 3.42597 119.108 3.47227 119.108 3.51856C119.108 3.56486 119.108 3.61116 119.108 3.65745C119.108 3.70375 119.108 3.75005 119.108 3.79634L118.909 3.75005C118.975 3.75005 118.975 3.75005 119.041 3.75005V3.70375C118.975 3.61116 118.975 3.56486 118.909 3.47227V3.24079C118.975 3.24079 119.041 3.24079 119.041 3.28708C119.041 3.33338 119.041 3.37968 119.041 3.37968C118.909 3.42597 118.777 3.51856 118.645 3.56486C118.645 3.51856 118.711 3.51856 118.711 3.47227C118.777 3.33338 118.711 3.24079 118.513 3.24079C118.38 3.19449 118.38 3.14819 118.447 3.1019C118.513 3.0556 118.645 3.0556 118.711 3.0556C118.645 3.00931 118.579 3.00931 118.513 2.96301C118.182 2.77782 118.38 3.0556 118.314 3.1019C118.05 3.33338 117.786 2.96301 117.521 3.0556C117.389 3.00931 117.323 2.82412 117.191 3.0556C117.125 3.14819 116.992 3.14819 116.926 3.00931L116.265 3.37968H116.199C116.133 3.24079 116.133 3.14819 116.067 3.0556C116.133 3.0556 116.265 3.0556 116.331 3.1019C116.53 3.24079 116.53 2.96301 116.728 3.00931C116.662 2.96301 116.596 2.91671 116.53 2.87042C116.133 2.59264 116.53 3.00931 116.331 2.96301C116.265 2.96301 116.199 3.00931 116.199 3.00931C115.737 2.91671 115.803 3.33338 115.604 3.42597C115.538 3.47227 115.406 3.47227 115.274 3.51856C115.274 3.47227 115.208 3.42597 115.208 3.42597C115.34 3.1019 114.877 3.14819 114.745 2.96301C114.613 2.77782 114.415 2.59264 114.084 2.59264C114.018 2.59264 113.952 2.54634 113.82 2.54634C113.754 2.54634 113.754 2.59264 113.688 2.63894C114.084 2.54634 114.084 3.1019 114.547 2.96301C114.613 2.96301 114.679 2.96301 114.679 2.96301C114.547 3.0556 114.415 3.1019 114.282 3.19449C114.282 3.19449 114.15 3.1019 114.084 3.0556V3.00931C114.018 3.0556 113.952 3.0556 113.952 3.1019C113.886 3.14819 113.82 3.24079 113.754 3.28708C113.688 3.28708 113.621 3.24079 113.489 3.19449C113.555 3.19449 113.688 3.14819 113.754 3.14819C113.754 3.14819 113.952 3.00931 113.754 3.0556C113.621 3.0556 113.423 3.14819 113.291 3.19449L113.159 3.14819C112.96 3.33338 112.828 3.14819 112.762 3.1019C112.63 2.91671 112.564 2.73153 112.96 2.63894C113.027 2.63894 113.093 2.73153 113.159 2.77782C113.159 2.73153 113.159 2.63894 113.159 2.63894C113.027 2.59264 112.828 2.54634 112.762 2.54634C112.564 2.73153 112.432 2.87042 112.167 2.59264V2.63894C112.299 2.68523 112.432 2.82412 112.564 2.82412C112.762 2.82412 112.696 2.82412 112.63 2.91671C112.63 2.96301 112.564 2.96301 112.498 2.96301C112.432 3.00931 112.828 2.91671 112.564 3.0556C112.564 3.0556 112.564 3.28708 112.432 3.1019C112.432 3.0556 112.233 3.0556 112.167 3.1019C112.035 3.19449 111.705 2.87042 111.771 3.24079C111.771 3.24079 111.705 3.28708 111.638 3.28708C111.374 3.33338 111.11 3.51856 110.779 3.42597C110.713 3.42597 110.713 3.42597 110.647 3.37968C110.647 3.37968 110.581 3.33338 110.647 3.33338C110.978 2.96301 110.515 3.1019 110.383 3.0556C110.449 3.0556 110.581 3.0556 110.647 3.0556C110.845 2.91671 110.515 2.96301 110.581 2.87042L110.118 2.91671L110.25 2.59264C109.986 2.63894 109.854 2.31486 109.656 2.50005C109.523 2.63894 109.92 2.87042 109.523 2.96301C109.589 2.96301 109.589 2.96301 109.656 3.00931C109.92 3.24079 109.986 2.82412 110.184 2.91671L110.052 3.00931L110.449 3.1019C110.118 3.24079 110.449 3.28708 110.515 3.33338V3.37968C110.449 3.37968 110.449 3.37968 110.383 3.37968C109.986 3.42597 109.589 3.33338 109.259 3.51856C109.259 3.51856 109.193 3.51856 109.127 3.47227C109.127 3.42597 109.061 3.37968 109.061 3.33338C109.061 3.28708 109.061 3.28708 109.127 3.24079H108.598C108.598 3.28708 108.598 3.33338 108.598 3.37968C108.598 3.42597 108.598 3.47227 108.532 3.47227C108.268 3.51856 107.937 3.51856 107.673 3.56486C107.408 3.61116 107.078 3.42597 106.813 3.61116H106.747C106.747 3.56486 106.747 3.51856 106.813 3.47227C106.879 3.42597 106.946 3.42597 107.078 3.37968C106.813 3.42597 107.144 3.0556 106.813 3.14819L106.747 3.19449L106.813 3.24079C106.879 3.28708 106.879 3.33338 106.946 3.37968C106.946 3.37968 106.946 3.37968 106.879 3.42597C106.813 3.24079 106.681 3.47227 106.615 3.37968C106.549 3.33338 106.549 3.24079 106.417 3.24079C106.351 3.24079 106.218 3.28708 106.218 3.33338C106.218 3.42597 106.218 3.47227 106.218 3.56486C106.218 3.56486 106.218 3.61116 106.285 3.61116L106.218 3.65745C106.086 3.65745 105.954 3.65745 105.822 3.61116C105.69 3.56486 105.624 3.42597 105.558 3.47227C105.293 3.56486 105.69 3.51856 105.624 3.56486C105.359 3.75005 104.963 3.70375 104.632 3.65745C104.236 3.65745 103.839 3.51856 103.508 3.37968C103.31 3.28708 103.244 3.47227 103.112 3.42597L103.178 3.61116C103.31 3.56486 103.442 3.56486 103.508 3.51856C103.575 3.51856 103.575 3.47227 103.641 3.42597C103.641 3.47227 103.641 3.51856 103.641 3.56486C103.575 3.65745 103.508 3.79634 103.442 3.75005C102.914 3.61116 102.319 3.75005 101.79 3.75005C101.658 3.75005 101.526 3.65745 101.393 3.65745C101.261 3.65745 101.195 3.75005 101.063 3.75005L100.931 3.70375C100.997 3.61116 101.063 3.56486 101.129 3.51856C101.063 3.56486 100.931 3.56486 100.865 3.61116C100.798 3.65745 100.732 3.70375 100.666 3.75005C100.534 3.70375 100.468 3.75005 100.468 3.75005C100.005 3.42597 99.5426 3.88894 99.0799 3.75005L98.9478 3.70375V3.65745C99.0799 3.61116 99.3443 3.56486 99.2782 3.51856C99.0138 3.42597 98.6834 3.42597 98.419 3.42597C98.2868 3.42597 98.2207 3.56486 98.1546 3.65745C98.1546 3.70375 98.1546 3.75005 98.1546 3.75005L97.2292 3.70375C97.2953 3.70375 97.3614 3.65745 97.4275 3.65745V3.61116H96.9648V3.65745C97.0309 3.70375 97.0309 3.70375 97.097 3.75005C97.0309 3.75005 96.9648 3.79634 96.8987 3.79634C96.436 3.79634 95.9073 3.79634 95.4446 3.79634C95.3124 3.79634 95.1802 3.65745 94.9819 3.56486C94.9819 3.56486 94.9158 3.51856 94.9158 3.56486L94.8497 3.61116C94.7836 3.98153 94.5853 3.56486 94.4531 3.65745C94.4531 3.65745 94.3209 3.56486 94.2548 3.51856L94.1887 3.47227C94.1887 3.51856 94.1226 3.51856 94.1226 3.56486L94.1887 3.61116L94.2548 3.65745L94.1887 3.70375C93.9904 3.65745 93.726 3.61116 93.5278 3.51856C93.2634 3.33338 93.8582 3.47227 93.6599 3.28708C93.6599 3.24079 93.5939 3.19449 93.5939 3.19449C93.4617 3.14819 93.3295 3.14819 93.1973 3.1019V2.36116C93.3295 2.36116 93.5278 2.36116 93.6599 2.31486C93.726 2.31486 94.2548 2.12968 94.3209 2.50005C94.5853 2.31486 94.8497 2.63894 95.1141 2.50005C95.1802 2.45375 95.2463 2.50005 95.3124 2.54634L95.2463 2.73153V2.77782H95.3124C95.3785 2.73153 95.3785 2.68523 95.3785 2.68523C95.2463 2.59264 95.3124 2.54634 95.4446 2.54634C95.5107 2.54634 95.6429 2.40745 95.5768 2.59264C95.6429 2.59264 95.709 2.59264 95.7751 2.54634V2.45375C96.436 2.08338 97.097 2.26856 97.758 2.40745C98.0224 2.45375 98.3529 2.26857 98.4851 2.31486C98.7495 2.45375 98.8817 2.22227 99.0799 2.26857C99.2782 2.31486 99.4765 2.26857 99.6748 2.31486C100.071 2.31486 100.468 2.12968 100.931 2.26857C101.129 2.31486 101.658 2.40745 101.988 2.12968C102.12 2.03708 102.451 2.12968 102.715 2.17597C103.046 2.22227 103.442 2.31486 103.773 2.36116C103.839 1.99079 104.236 2.17597 104.5 2.08338C104.83 1.99079 105.227 2.26856 105.491 1.94449H105.558C105.558 2.08338 105.558 2.22227 105.491 2.40745L105.425 2.45375C105.425 2.45375 105.491 2.50005 105.491 2.45375C105.624 2.31486 105.822 2.17597 105.954 2.03708C105.954 1.99079 106.02 1.99079 106.02 1.94449H106.086L106.02 1.99079C106.02 2.03708 106.02 2.12968 106.02 2.12968C106.152 2.12968 106.285 2.12968 106.351 2.12968C106.483 2.08338 106.615 1.99079 106.747 1.99079C107.21 1.94449 107.739 1.89819 108.201 1.99079C108.532 2.08338 108.862 1.75931 109.193 1.99079C109.259 2.03708 109.325 2.12968 109.391 2.22227C109.325 2.36116 109.259 2.22227 109.259 2.22227C109.061 1.99079 109.193 2.26857 109.193 2.31486H109.127C109.127 2.31486 109.127 2.26857 109.061 2.26857L109.259 2.31486H109.325C109.325 2.31486 109.325 2.31486 109.391 2.31486C109.523 2.31486 109.656 2.36116 109.788 2.36116C109.788 2.36116 109.854 2.31486 109.854 2.26857L109.656 2.22227C109.722 2.17597 109.854 2.03708 109.854 2.08338C110.052 2.12968 110.383 2.03708 110.449 2.31486C110.449 2.36116 110.713 2.36116 110.845 2.40745C110.845 2.40745 110.911 2.36116 110.911 2.31486C110.845 2.22227 110.911 2.08338 110.647 2.17597C110.647 2.17597 110.581 2.17597 110.515 2.12968C110.647 2.08338 110.713 1.99079 110.845 1.99079C111.374 1.94449 111.837 1.94449 112.366 1.94449C112.432 1.94449 112.564 1.94449 112.63 1.94449L112.432 1.99079L112.498 2.03708C112.63 2.03708 112.762 1.99079 112.828 1.99079L114.943 2.03708C115.67 2.03708 116.398 2.08338 117.191 2.08338C117.587 2.08338 117.984 1.99079 118.314 1.99079C118.909 1.94449 119.504 1.99079 120.165 1.94449C120.297 1.94449 120.562 1.99079 120.562 1.8056C121.09 2.03708 121.619 1.66671 122.148 1.89819C122.478 2.03708 122.611 1.8056 122.875 1.8056C123.602 1.8519 124.329 1.71301 125.056 1.8519C125.387 1.89819 125.717 1.71301 126.048 1.89819C126.048 1.89819 126.246 1.71301 126.444 1.71301C126.841 1.75931 127.304 1.62042 127.7 1.75931C127.898 1.8519 128.229 1.75931 128.493 1.66671C128.824 1.52782 128.493 2.03708 128.758 1.8519C128.758 1.8519 128.824 1.89819 128.824 1.8519C128.89 1.8056 128.89 1.75931 128.956 1.71301C129.022 1.71301 129.088 1.75931 129.154 1.8056C129.353 1.89819 129.551 2.03708 129.749 2.03708C130.146 1.99079 130.542 1.94449 130.873 1.75931C131.137 1.62042 131.005 1.8056 131.005 1.8519C131.269 1.99079 131.534 1.57412 131.732 1.89819C131.798 1.71301 132.195 2.03708 132.129 1.71301C132.129 1.66671 132.261 1.66671 132.327 1.62042L132.393 1.75931C132.591 1.66671 132.856 1.43523 132.922 1.8056C132.988 2.17597 133.054 1.75931 133.12 1.8056C133.186 1.8519 133.252 1.89819 133.318 1.89819L133.385 1.8519C133.451 1.89819 133.517 1.94449 133.583 1.99079C133.517 1.99079 133.451 2.03708 133.385 2.03708L133.318 2.08338C133.385 2.08338 133.385 2.08338 133.451 2.12968L133.583 2.17597C133.252 1.89819 134.244 2.36116 133.781 1.99079C133.715 1.94449 133.781 1.8519 133.781 1.8519C133.913 1.8056 133.979 1.8056 134.112 1.8056C134.178 1.8056 134.244 1.8519 134.244 1.8519C134.178 1.8056 134.112 1.75931 134.112 1.71301C134.112 1.66671 134.046 1.66671 133.979 1.62042C134.046 1.62042 134.046 1.62042 134.112 1.62042C134.244 1.66671 134.31 1.71301 134.442 1.75931C134.442 1.75931 134.442 1.8056 134.442 1.8519C134.508 1.8519 134.64 1.8056 134.707 1.8056C134.839 1.89819 134.971 1.8519 135.103 1.8056L135.169 1.8519C135.235 1.8056 135.301 1.75931 135.368 1.71301C135.434 1.66671 135.434 1.62042 135.434 1.62042C135.5 1.62042 135.566 1.66671 135.566 1.66671C135.566 1.71301 135.566 1.75931 135.566 1.8056V1.8519C135.632 1.8519 135.698 1.8056 135.698 1.8056C135.698 1.71301 136.028 1.89819 135.896 1.66671C135.896 1.62042 135.896 1.62042 135.896 1.57412L136.359 1.71301C136.491 1.38894 136.756 2.08338 136.822 1.66671C136.822 1.66671 136.954 1.66671 137.02 1.66671C136.756 1.75931 137.417 1.71301 137.086 1.8056C137.086 1.8056 137.086 1.8519 137.02 1.8519C137.02 1.8519 137.02 1.8519 137.086 1.8519C137.218 1.8519 137.417 1.94449 137.417 1.89819C137.549 1.8056 137.945 1.62042 138.144 1.66671C138.21 1.66671 138.144 1.8519 138.144 1.89819C138.276 2.08338 138.21 1.94449 138.21 1.8519C138.21 1.75931 138.276 1.62042 138.342 1.62042C138.871 1.66671 139.466 1.43523 139.994 1.66671C139.994 1.66671 140.06 1.66671 140.127 1.62042V1.57412C140.127 1.52782 140.06 1.48153 140.06 1.43523H140.259L140.193 1.48153V1.52782C140.325 1.57412 140.523 1.66671 140.655 1.71301C140.721 1.71301 140.854 1.71301 140.92 1.71301L140.986 1.8056C140.92 1.8519 140.854 1.8519 140.788 1.89819L140.92 2.03708L140.523 2.22227C140.655 2.22227 140.788 2.22227 140.92 2.22227C140.986 2.22227 141.184 2.22227 141.184 2.22227C141.184 2.08338 141.118 2.08338 140.92 2.03708C141.052 1.89819 141.25 1.71301 141.382 1.57412C141.382 1.57412 141.581 1.62042 141.647 1.66671C142.043 1.71301 142.043 1.29634 142.44 1.29634C142.506 1.29634 142.638 1.25005 142.704 1.25005C142.77 1.25005 142.837 1.34264 142.903 1.38894C142.77 1.38894 142.638 1.38894 142.572 1.38894C142.572 1.38894 142.572 1.43523 142.572 1.48153C142.638 1.43523 142.704 1.52782 142.77 1.52782C143.035 1.57412 143.299 1.52782 143.498 1.52782H143.63C143.63 1.57412 143.564 1.57412 143.564 1.62042V1.66671C143.63 1.66671 143.762 1.66671 143.828 1.66671L143.762 1.62042C143.762 1.57412 143.696 1.52782 143.696 1.43523C143.828 1.43523 143.894 1.38894 144.026 1.38894C144.423 1.34264 144.819 1.34264 145.216 1.34264C145.613 1.34264 146.009 1.38894 146.406 1.38894C146.604 1.38894 146.868 1.29634 147.067 1.34264C147.331 1.34264 147.662 1.38894 147.86 1.52782C148.257 1.75931 148.719 1.62042 149.182 1.66671C149.248 1.66671 149.38 1.52782 149.512 1.43523C149.578 1.66671 149.777 1.66671 149.975 1.71301C150.107 1.75931 150.173 1.8519 150.239 1.94449L149.975 2.12968L150.372 2.22227L150.306 1.94449C150.239 1.38894 150.702 1.8519 150.9 1.75931C150.967 1.71301 151.033 1.66671 151.099 1.57412C151.165 1.62042 151.165 1.75931 151.297 1.57412C151.363 1.52782 151.495 1.52782 151.561 1.48153C151.495 1.57412 151.495 1.57412 151.76 1.71301C151.76 1.75931 151.76 1.8056 151.694 1.8519L151.958 1.8056C152.024 1.8519 152.09 1.89819 152.156 1.94449C152.222 1.99079 152.355 1.99079 152.355 1.94449C152.421 1.89819 152.487 1.8056 152.553 1.71301C152.421 1.75931 152.355 1.75931 152.222 1.8056L151.958 1.8519C151.892 1.8056 151.76 1.75931 151.694 1.71301C151.694 1.62042 151.694 1.52782 151.561 1.48153C151.958 1.48153 152.355 1.71301 152.751 1.57412C152.619 1.8056 152.883 1.8056 152.949 1.89819H153.016C152.949 1.29634 153.478 1.8056 153.677 1.66671C153.941 1.48153 154.271 1.94449 154.536 1.66671C154.602 1.94449 154.932 1.8519 155.131 1.8519C155.263 1.8519 155.461 1.89819 155.593 1.89819H155.659C155.726 1.99079 155.792 2.12968 155.858 2.22227C155.858 2.12968 155.726 1.99079 155.792 1.89819C155.792 1.75931 155.924 1.57412 155.99 1.57412C156.387 1.52782 156.849 1.62042 157.246 1.52782C157.576 1.43523 157.642 1.8056 157.775 1.71301C158.171 1.48153 158.237 1.99079 158.502 1.89819C158.832 1.75931 158.237 1.8056 158.436 1.66671C158.436 1.66671 158.171 1.43523 158.369 1.43523C158.634 1.38894 159.03 1.29634 159.295 1.48153C159.361 1.52782 159.427 1.66671 159.493 1.75931C159.493 1.66671 159.824 1.71301 159.691 1.52782C159.824 1.52782 159.89 1.52782 160.022 1.48153C160.352 1.34264 160.683 1.57412 160.947 1.57412C160.815 1.8056 161.146 1.71301 161.146 1.66671C160.947 1.20375 161.476 1.48153 161.542 1.48153C161.807 1.48153 162.137 1.52782 162.335 1.62042C162.534 1.71301 162.071 1.62042 162.203 1.75931C162.137 1.75931 161.939 1.75931 162.071 1.8519C162.137 1.89819 162.401 1.8519 162.468 1.8056C162.798 1.57412 163.128 1.57412 163.591 1.62042C163.922 1.62042 164.252 1.57412 164.583 1.48153C164.781 1.43523 164.979 1.48153 165.111 1.66671C165.178 1.71301 165.442 1.57412 165.508 1.62042C165.838 1.8056 166.037 1.20375 166.367 1.57412C166.632 1.15745 166.566 1.8519 166.764 1.66671L166.83 1.62042C166.764 1.52782 166.499 1.43523 166.698 1.38894C167.028 1.29634 167.359 1.20375 167.689 1.38894C167.888 1.43523 168.086 1.48153 168.284 1.43523C168.482 1.38894 168.681 1.48153 168.813 1.48153C169.077 1.48153 169.342 1.38894 169.672 1.43523C169.738 1.43523 169.804 1.38894 169.87 1.34264C169.804 1.52782 170.267 1.52782 170.003 1.75931C169.937 1.8056 169.672 1.8519 169.937 1.94449C170.003 1.8519 170.069 1.8056 170.135 1.71301C170.201 1.52782 170.862 1.48153 171.126 1.66671C171.192 1.71301 171.325 1.75931 171.325 1.71301C171.523 1.52782 171.589 1.48153 171.523 1.8056L171.589 1.8519C171.655 1.75931 171.721 1.62042 171.986 1.66671C171.919 1.48153 172.118 1.52782 172.184 1.57412C172.514 1.71301 172.382 1.29634 172.647 1.34264V1.25005L172.779 1.34264C172.845 1.25005 173.043 1.06486 173.109 1.20375C173.241 1.52782 173.572 1.38894 173.77 1.34264C173.968 1.34264 174.167 1.15745 174.299 1.29634C174.431 1.43523 174.431 1.62042 174.365 1.8056C174.365 1.8519 174.365 1.99079 174.431 2.03708C174.497 2.08338 174.629 2.03708 174.696 2.03708C174.629 1.99079 174.563 1.94449 174.497 1.94449C174.497 1.8519 174.497 1.71301 174.563 1.62042C174.629 1.52782 174.762 1.52782 174.762 1.66671C174.762 1.62042 174.762 1.52782 174.828 1.52782C175.092 1.43523 175.29 1.52782 175.489 1.62042C175.555 1.66671 175.687 1.66671 175.819 1.71301C175.819 1.66671 175.819 1.57412 175.819 1.52782C175.819 1.48153 175.885 1.48153 175.885 1.43523C175.951 1.71301 176.216 1.48153 176.348 1.57412C176.414 1.62042 176.414 1.66671 176.48 1.71301C176.546 1.75931 176.546 1.8519 176.612 1.94449C176.745 1.8519 176.612 1.8056 176.612 1.75931C176.612 1.62042 176.678 1.48153 176.943 1.48153C176.877 1.75931 177.538 1.25005 177.273 1.71301C177.472 1.66671 177.67 1.66671 177.802 1.62042C178 1.57412 178.331 1.38894 178.397 1.48153C178.661 1.71301 178.728 1.29634 178.926 1.38894C178.992 1.38894 178.992 1.43523 178.992 1.48153C178.794 1.43523 179.124 1.75931 178.86 1.62042C178.86 1.71301 178.86 1.75931 178.86 1.8519C178.86 2.12968 178.926 2.22227 179.058 2.22227ZM100.997 2.73153L100.468 2.54634C100.468 2.63894 100.402 2.73153 100.468 2.73153C100.6 2.77782 100.732 2.77782 100.865 2.77782C100.931 2.77782 100.931 2.77782 100.997 2.73153ZM102.187 3.33338C102.054 3.28708 102.054 3.28708 101.856 3.37968C101.856 3.33338 101.922 3.33338 101.856 3.37968L101.79 3.42597C101.922 3.47227 102.12 3.51856 102.187 3.47227C102.385 3.42597 102.319 3.33338 102.187 3.33338ZM102.715 3.00931L102.319 2.82412C102.319 2.87042 102.253 2.96301 102.187 3.0556C102.253 3.1019 102.253 3.14819 102.319 3.14819C102.451 3.1019 102.583 3.0556 102.715 3.00931ZM103.31 2.82412C103.112 2.77782 102.98 2.73153 102.914 2.73153C102.715 2.77782 103.178 2.91671 102.914 2.96301C102.98 2.96301 103.046 2.96301 103.178 2.96301C103.112 2.96301 103.178 2.91671 103.31 2.82412ZM104.698 3.1019C104.566 3.00931 104.434 2.91671 104.302 2.87042C104.236 2.87042 104.434 3.14819 103.971 2.96301C103.971 3.1019 103.971 3.19449 104.037 3.28708L104.698 3.1019ZM108.069 3.0556C107.871 2.96301 107.54 2.87042 107.342 2.91671C106.813 3.0556 107.474 3.1019 107.474 3.1019C107.54 2.91671 107.673 3.1019 107.805 3.24079C107.739 3.0556 108.135 3.1019 108.069 3.0556ZM109.127 2.77782C109.061 2.59264 108.928 2.50005 108.532 2.54634C108.532 2.54634 108.4 2.59264 108.201 2.68523L108.598 2.73153C108.598 2.73153 108.664 2.73153 108.664 2.77782L108.995 3.1019C109.193 2.96301 108.796 2.96301 108.862 2.87042V2.82412C108.928 2.87042 108.995 2.91671 108.995 2.91671C109.061 2.82412 109.193 2.77782 109.127 2.77782ZM113.688 2.17597C113.688 2.12968 113.621 2.12968 113.555 2.12968C113.423 2.12968 113.291 2.12968 113.159 2.17597C113.027 2.22227 112.894 2.31486 112.828 2.40745C112.828 2.40745 112.828 2.45375 112.828 2.50005L112.894 2.54634C113.093 2.40745 113.225 2.31486 113.489 2.45375H113.555L113.489 2.40745C113.489 2.36116 113.489 2.31486 113.489 2.26857H113.555C113.555 2.26857 113.621 2.31486 113.621 2.36116C113.688 2.26857 113.688 2.22227 113.688 2.17597ZM119.504 2.82412C119.306 2.68523 119.041 2.96301 118.909 2.77782C118.909 2.82412 118.843 2.87042 118.843 2.91671C118.975 3.24079 119.174 2.91671 119.372 2.96301C119.504 3.00931 119.504 2.87042 119.504 2.82412ZM125.783 2.59264L125.717 2.63894L125.585 2.45375C125.453 2.50005 125.321 2.68523 125.387 2.40745C125.387 2.31486 125.387 2.26856 125.387 2.17597H125.321C125.255 2.36116 125.122 2.36116 125.056 2.17597C125.056 2.17597 124.99 2.17597 124.99 2.22227C124.99 2.26857 124.99 2.31486 124.99 2.31486C125.056 2.40745 125.122 2.50005 125.122 2.59264C125.122 2.63894 125.122 2.68523 125.122 2.68523C125.519 2.91671 125.188 2.50005 125.453 2.68523C125.519 2.73153 125.519 2.91671 125.585 3.00931C125.585 3.00931 125.849 3.00931 125.849 2.96301C125.849 2.82412 125.783 2.68523 125.783 2.59264ZM128.427 2.45375C128.361 2.17597 128.229 2.40745 128.163 2.45375C128.097 2.45375 127.965 2.50005 127.898 2.40745C127.7 2.91671 128.097 2.68523 128.229 2.68523C128.295 2.68523 128.427 2.54634 128.427 2.45375ZM129.485 2.45375C129.22 2.40745 128.89 2.40745 128.559 2.40745C128.493 2.40745 128.427 2.50005 128.427 2.50005C128.626 2.91671 128.956 2.45375 128.956 2.50005C129.419 2.63894 129.551 2.45375 129.485 2.45375ZM136.756 2.08338C136.822 2.26857 137.02 2.17597 137.152 2.22227C137.086 2.22227 137.02 2.26857 136.954 2.26857C136.888 2.31486 136.822 2.31486 136.822 2.36116C136.756 2.54634 137.02 2.59264 137.152 2.68523C137.152 2.68523 137.218 2.68523 137.284 2.63894C137.218 2.59264 137.218 2.59264 137.152 2.54634C137.086 2.50005 137.086 2.45375 137.02 2.40745H137.086C137.152 2.40745 137.218 2.40745 137.284 2.36116C137.284 2.36116 137.35 2.31486 137.284 2.31486C137.218 2.26857 137.152 2.26857 137.086 2.22227C137.02 2.08338 137.02 1.94449 136.822 1.99079C136.822 1.99079 136.756 2.03708 136.756 2.08338ZM137.549 2.87042C137.35 2.77782 137.086 2.68523 136.888 2.63894C136.822 2.63894 136.756 2.68523 136.756 2.68523C136.888 2.96301 137.284 2.73153 137.483 2.96301L137.549 2.87042ZM147.662 2.45375C147.463 2.45375 147.662 2.40745 147.794 2.26857C147.529 2.31486 147.397 2.31486 147.331 2.31486C147.529 2.45375 147.662 2.82412 147.926 2.73153C148.124 2.68523 147.992 2.45375 147.662 2.45375ZM154.073 2.63894C153.875 2.59264 153.61 2.50005 153.412 2.50005C153.346 2.50005 153.28 2.59264 153.214 2.68523C153.478 2.73153 153.677 2.73153 153.941 2.77782C153.941 2.73153 154.007 2.68523 154.073 2.63894ZM155.065 2.59264L154.932 2.50005C154.734 2.77782 154.536 2.54634 154.271 2.54634C154.073 2.68523 154.338 2.87042 154.404 2.82412C154.602 2.77782 154.866 2.68523 155.065 2.59264ZM158.369 3.0556C158.303 3.0556 158.171 3.00931 158.105 3.00931L157.775 2.96301C157.841 2.68523 157.576 2.87042 157.51 2.87042C157.51 2.87042 157.444 2.87042 157.378 2.87042C157.378 2.91671 157.378 3.00931 157.444 3.0556C157.642 3.33338 157.907 3.14819 158.171 3.1019C158.171 3.0556 158.237 3.24079 158.369 3.0556ZM158.369 2.59264C158.105 2.17597 157.708 2.45375 157.378 2.40745C157.378 2.40745 157.378 2.40745 157.312 2.45375L158.369 2.59264C158.369 2.63894 158.369 2.59264 158.369 2.59264ZM158.502 2.12968C158.303 2.08338 158.171 2.03708 157.973 1.99079C157.907 1.99079 157.841 2.03708 157.841 2.08338C157.973 2.12968 158.171 2.22227 158.303 2.26857C158.369 2.26857 158.436 2.22227 158.502 2.12968ZM160.352 2.73153C160.22 2.73153 160.154 2.68523 160.088 2.68523C159.824 2.54634 159.691 2.82412 159.493 2.73153C159.493 2.77782 159.427 2.82412 159.493 2.82412C159.625 3.00931 159.691 2.82412 159.824 2.77782C159.89 2.77782 159.956 2.77782 160.022 2.77782C160.022 2.82412 159.758 2.91671 160.022 2.96301C160.022 3.00931 160.22 2.82412 160.352 2.73153ZM161.146 2.68523C161.013 2.63894 160.947 2.59264 160.815 2.59264C160.749 2.73153 161.079 2.77782 160.881 2.91671C160.881 2.91671 160.881 3.00931 160.881 3.0556C160.947 2.91671 161.013 2.82412 161.146 2.68523ZM167.557 2.12968C167.425 2.08338 167.359 1.99079 167.227 1.94449L167.16 1.99079C167.094 2.26857 167.359 2.12968 167.425 2.22227L167.557 2.12968ZM171.919 2.08338C171.721 1.8519 171.523 2.36116 171.391 2.08338C171.258 2.17597 171.391 2.22227 171.523 2.22227C171.523 2.26857 171.523 2.31486 171.589 2.36116C171.655 2.26857 171.721 2.08338 171.919 2.08338Z" fill="#020A13"/>
<path d="M264.72 1.94448L264.522 2.73152C264.39 2.68522 264.192 2.63892 264.125 2.87041C264.059 2.82411 263.927 2.82411 263.927 2.77781C263.795 2.59263 263.729 2.59263 263.531 2.73152C263.398 2.82411 263.2 2.77781 263.134 2.63892C263.134 2.63892 263.002 2.68522 262.936 2.68522C262.936 2.59263 262.87 2.63892 262.804 2.63892C262.671 2.68522 262.539 2.68522 262.407 2.63892C262.209 2.54633 262.473 2.54633 262.473 2.54633C262.341 2.50004 262.143 2.40744 262.076 2.45374C261.482 2.59263 260.953 2.31485 260.424 2.36115C259.961 2.22226 259.433 2.40744 258.904 2.17596C258.507 1.99078 257.846 2.08337 257.317 2.22226C256.921 2.31485 256.789 2.08337 256.59 2.03707C256.524 1.99078 256.392 2.03707 256.26 2.03707C255.863 1.99078 255.467 1.99078 255.07 1.89818C254.872 1.85189 254.74 1.713 254.475 1.6667C254.409 1.6667 254.211 1.75929 254.145 1.85189C254.013 2.17596 253.682 1.75929 253.55 1.94448C253.352 1.80559 252.955 1.80559 253.021 1.48152C252.955 1.57411 252.955 1.6667 252.823 1.75929C252.558 1.94448 252.294 1.75929 252.03 1.713C251.831 1.6667 251.567 1.62041 251.369 1.80559C251.435 1.80559 251.501 1.80559 251.501 1.85189V1.89818C251.369 1.89818 251.303 1.85189 251.236 1.85189C251.17 1.85189 251.17 1.80559 251.17 1.75929L251.236 1.713C251.303 1.713 251.369 1.713 251.369 1.6667L251.303 1.62041C251.236 1.62041 251.038 1.6667 251.038 1.713C250.972 1.94448 250.708 1.6667 250.642 1.85189C250.179 1.6667 250.179 1.6667 249.65 1.75929C249.518 1.80559 249.32 1.713 249.187 1.75929C248.923 1.89818 248.989 1.6667 248.857 1.62041C248.791 1.57411 248.725 1.57411 248.659 1.57411C248.659 1.62041 248.725 1.6667 248.725 1.713C248.725 1.713 248.725 1.75929 248.725 1.80559C248.526 1.80559 248.394 1.62041 248.13 1.80559C247.932 1.94448 247.337 1.75929 246.94 1.80559C246.61 1.85189 246.411 1.85189 246.213 1.62041C246.147 1.80559 245.883 1.85189 245.552 1.85189C245.155 1.85189 244.825 1.85189 244.428 1.89818C244.164 1.94448 244.428 1.57411 244.296 1.713C244.098 1.89818 243.9 1.89818 243.701 1.89818C243.437 1.89818 243.106 2.03707 242.908 1.75929C242.908 1.75929 242.974 1.713 243.04 1.6667L242.71 1.57411H242.644V1.62041C242.445 1.89818 242.181 1.62041 241.917 1.713C241.718 1.80559 241.454 1.75929 241.19 1.75929C241.057 1.75929 240.793 1.89818 240.793 1.62041C240.793 1.62041 240.727 1.57411 240.661 1.57411C240.595 1.57411 240.463 1.62041 240.396 1.6667C240.33 1.80559 240.132 1.89818 239.868 1.89818C239.537 1.89818 239.207 1.94448 238.942 1.85189C238.48 1.713 238.017 1.89818 237.554 1.75929C237.356 1.713 237.092 1.713 236.827 1.52781C236.695 1.43522 236.959 1.6667 236.695 1.713C236.166 1.713 236.629 1.15744 236.166 1.20374C235.968 1.20374 235.637 0.972258 235.637 1.34263L235.704 1.29633C235.77 1.29633 235.836 1.34263 235.902 1.38892C236.1 1.48152 236.034 1.57411 236.034 1.713C235.902 1.6667 235.637 1.62041 235.637 1.57411C235.571 1.38892 235.439 1.52781 235.373 1.48152C235.373 1.52781 235.439 1.57411 235.439 1.57411C235.439 1.57411 235.439 1.62041 235.373 1.62041H234.58L234.712 1.48152C234.514 1.48152 234.183 1.62041 234.051 1.52781C233.853 1.38892 233.522 1.713 233.456 1.43522C233.324 1.48152 233.258 1.6667 233.126 1.48152C232.994 1.713 232.663 1.29633 232.597 1.62041C232.597 1.62041 232.333 1.62041 232.266 1.57411L231.011 1.48152C231.275 1.29633 230.746 1.29633 230.812 1.11115C230.812 1.11115 230.812 1.06485 230.746 1.01855V1.11115C230.35 0.740776 230.284 1.20374 230.019 1.29633C229.953 1.15744 229.821 1.06485 229.623 1.11115C229.623 1.11115 229.556 1.15744 229.556 1.20374C229.689 1.25004 229.821 1.43522 230.019 1.29633C230.217 1.34263 230.482 1.38892 230.35 1.6667C230.35 1.713 230.085 1.75929 230.35 1.80559C230.416 1.80559 230.482 1.75929 230.482 1.75929C230.416 1.52781 230.614 1.34263 230.746 1.11115C230.812 1.20374 230.878 1.34263 230.812 1.43522C230.548 1.75929 230.284 1.94448 229.689 1.85189C229.226 1.75929 228.631 1.89818 228.102 1.94448C227.97 1.94448 227.772 2.03707 227.772 1.80559C227.706 1.85189 227.706 1.94448 227.706 1.94448C227.111 1.75929 226.516 2.08337 225.921 1.80559C225.921 1.80559 225.855 1.80559 225.855 1.85189L225.657 1.94448C225.723 1.94448 225.723 1.94448 225.789 1.94448C225.789 1.94448 225.789 1.99078 225.855 1.99078C225.723 2.03707 225.657 2.08337 225.525 2.08337C225.128 2.12967 224.665 2.12966 224.269 2.12966C224.203 2.12966 224.07 2.08337 224.004 2.03707C224.136 1.99078 224.203 1.99078 224.335 1.94448C224.401 1.94448 224.533 1.89818 224.599 1.94448C224.864 1.99078 225.194 1.80559 225.458 1.99078C225.458 1.94448 225.525 1.89818 225.525 1.89818C225.525 1.6667 225.458 1.80559 225.326 1.85189C225.26 1.89818 225.062 1.89818 225.062 1.89818C224.996 1.85189 225.062 1.713 224.864 1.89818C224.797 1.99078 224.335 1.99078 224.136 1.94448C223.74 1.85189 223.608 2.26855 223.211 2.17596C223.079 2.12966 222.881 2.22226 222.748 2.22226C222.22 2.22226 221.757 2.26855 221.228 2.26855C221.162 2.26855 221.096 2.22226 221.03 2.17596C220.964 2.12966 220.964 2.03707 220.964 1.99078C220.964 2.03707 220.964 2.12966 220.964 2.17596C220.964 2.22226 220.964 2.22226 220.898 2.26855L220.832 2.22226C220.832 2.12967 220.765 2.03707 220.765 1.94448C220.567 1.99078 220.633 2.08337 220.633 2.22226C220.633 2.22226 220.567 2.26855 220.567 2.31485H220.501C220.501 2.26855 220.501 2.26855 220.501 2.22226C220.567 2.08337 220.435 1.99078 220.303 1.94448C220.237 1.89818 220.171 1.85189 220.105 1.85189C220.171 1.85189 220.171 1.80559 220.237 1.80559V1.75929C220.171 1.75929 220.105 1.75929 220.038 1.75929C220.038 1.75929 219.972 1.80559 219.972 1.85189C219.972 1.99078 220.038 2.08337 220.038 2.22226C220.038 2.36115 220.038 2.40744 219.774 2.31485C219.708 2.31485 219.642 2.26855 219.642 2.22226C219.444 2.54633 219.179 2.26855 218.915 2.26855C218.452 2.26855 218.055 2.12967 217.725 2.45374C217.725 2.45374 217.659 2.45374 217.659 2.40744C217.593 2.36115 217.461 2.26855 217.395 2.31485C217.13 2.36115 216.932 2.40744 216.734 2.45374C216.403 2.50004 216.139 2.50004 215.808 2.54633C215.742 2.54633 215.676 2.45374 215.61 2.40744C215.61 2.17596 215.544 2.03707 215.213 2.17596L215.081 2.08337C214.817 2.08337 214.618 2.08337 214.354 2.08337C213.825 2.08337 213.363 2.12966 212.834 1.89818C212.569 1.80559 212.173 1.80559 211.908 1.713C211.842 1.713 211.71 1.85189 211.578 1.89818C211.71 1.89818 211.644 2.22226 211.908 2.03707C212.041 2.17596 212.371 1.94448 212.503 2.17596C212.503 2.22226 212.503 2.31485 212.569 2.36115C212.437 2.31485 212.305 2.22226 212.107 2.22226C211.842 2.22226 211.512 2.26855 211.247 2.31485C211.049 2.36115 210.983 2.31485 210.983 2.17596V2.12966C210.917 2.31485 210.785 2.17596 210.653 2.17596C210.653 2.12966 210.719 2.08337 210.653 2.03707C210.653 1.99078 210.586 1.94448 210.52 1.94448C210.256 1.85189 210.256 2.08337 210.124 2.17596H209.661L209.793 2.03707L209.595 1.94448V1.89818L209.529 1.713H209.463C209.132 1.94448 208.868 1.89818 208.736 1.57411C208.736 1.57411 208.67 1.57411 208.67 1.52781C208.802 1.85189 208.471 1.80559 208.273 1.89818C208.405 1.99078 208.405 2.08337 208.207 2.08337C207.943 2.12967 207.612 2.12966 207.348 2.17596H207.282L207.348 2.12966C207.414 2.08337 207.414 2.03707 207.48 1.99078C207.48 1.99078 207.414 1.94448 207.348 1.94448C207.348 1.99078 207.348 2.03707 207.282 2.03707C207.083 2.03707 206.951 1.94448 206.819 1.99078C206.488 2.03707 206.687 1.80559 206.687 1.85189C206.555 1.89818 206.488 1.99078 206.422 2.03707C206.356 2.08337 206.356 2.08337 206.29 2.08337C206.224 2.08337 206.224 2.03707 206.158 2.03707C206.224 2.03707 206.29 2.03707 206.29 2.03707C206.356 2.03707 206.356 1.99078 206.422 1.94448V1.89818H206.026C205.894 1.89818 205.629 1.80559 205.563 1.85189C205.365 1.99078 205.629 2.03707 205.695 2.08337C205.761 2.08337 205.894 1.99078 205.96 1.99078C206.092 2.22226 205.629 2.12967 205.695 2.31485C205.563 2.17596 205.299 2.54633 205.299 2.22226C205.299 2.22226 205.299 2.22226 205.233 2.17596C205.166 2.22226 205.1 2.26855 205.1 2.31485C205.1 2.36115 205.1 2.40744 205.1 2.45374C205.1 2.50004 205.1 2.54633 205.1 2.59263L204.902 2.54633C204.968 2.54633 204.968 2.54633 205.034 2.54633V2.50004C204.968 2.40744 204.902 2.31485 204.902 2.26855L204.704 2.31485C204.77 2.31485 204.836 2.31485 204.836 2.36115C204.836 2.40744 204.836 2.45374 204.836 2.45374C204.704 2.50004 204.572 2.59263 204.439 2.63892C204.439 2.59263 204.505 2.54633 204.505 2.54633C204.572 2.40744 204.505 2.31485 204.307 2.31485C204.175 2.26855 204.175 2.22226 204.241 2.17596C204.307 2.12966 204.439 2.12966 204.505 2.12966C204.439 2.12966 204.373 2.08337 204.307 2.08337C203.977 1.89818 204.175 2.17596 204.109 2.22226C203.845 2.45374 203.58 2.08337 203.316 2.17596C203.184 2.12966 203.117 1.94448 202.985 2.17596C202.919 2.26855 202.787 2.26855 202.655 2.12966L201.994 2.50004H201.928C201.862 2.36115 201.862 2.26855 201.795 2.17596C201.862 2.17596 201.994 2.17596 202.06 2.22226C202.258 2.36115 202.258 2.08337 202.456 2.12966C202.39 2.08337 202.324 2.08337 202.192 1.99078C201.795 1.713 202.192 2.12967 201.994 2.08337C201.928 2.08337 201.862 2.12966 201.862 2.12966C201.399 2.08337 201.465 2.45374 201.267 2.59263C201.201 2.63892 201.068 2.63892 200.936 2.68522C200.936 2.63892 200.87 2.59263 200.87 2.59263C201.002 2.26855 200.54 2.31485 200.407 2.12966C200.275 1.94448 200.077 1.75929 199.746 1.75929C199.68 1.75929 199.614 1.713 199.482 1.75929C199.416 1.75929 199.416 1.80559 199.35 1.85189C199.746 1.75929 199.746 2.31485 200.209 2.17596C200.275 2.17596 200.341 2.17596 200.341 2.17596C200.209 2.26855 200.077 2.36115 199.945 2.40744C199.945 2.40744 199.813 2.31485 199.746 2.26855V2.22226C199.68 2.26855 199.614 2.26855 199.614 2.31485C199.548 2.36115 199.482 2.45374 199.416 2.50004C199.35 2.50004 199.284 2.45374 199.152 2.40744C199.218 2.40744 199.35 2.36115 199.416 2.36115C199.416 2.36115 199.614 2.22226 199.416 2.26855C199.284 2.26855 199.085 2.36115 198.953 2.40744L198.821 2.36115C198.623 2.54633 198.491 2.36115 198.425 2.31485C198.292 2.12967 198.226 1.94448 198.623 1.85189C198.689 1.85189 198.755 1.94448 198.821 1.99078C198.821 1.94448 198.821 1.85189 198.821 1.85189C198.689 1.80559 198.491 1.75929 198.425 1.80559C198.226 1.99078 198.094 2.12966 197.83 1.89818V1.94448C197.962 1.99078 198.094 2.12966 198.226 2.12966C198.425 2.12966 198.358 2.12967 198.292 2.22226C198.292 2.26855 198.226 2.26855 198.16 2.26855C198.094 2.31485 198.491 2.22226 198.226 2.36115C198.226 2.36115 198.226 2.59263 198.094 2.40744C198.094 2.36115 197.896 2.36115 197.83 2.40744C197.697 2.50004 197.367 2.17596 197.433 2.54633C197.433 2.54633 197.367 2.59263 197.301 2.59263C197.036 2.68522 196.772 2.82411 196.442 2.73152C196.375 2.73152 196.375 2.73152 196.309 2.68522C196.309 2.68522 196.243 2.63892 196.309 2.63892C196.574 2.26855 196.177 2.40744 196.045 2.36115C196.111 2.36115 196.243 2.36115 196.309 2.36115C196.508 2.22226 196.177 2.26855 196.243 2.17596L195.781 2.22226L195.913 1.89818C195.648 1.94448 195.516 1.62041 195.318 1.80559C195.186 1.94448 195.648 2.17596 195.186 2.26855C195.252 2.26855 195.252 2.26855 195.318 2.31485C195.582 2.54633 195.648 2.12967 195.847 2.22226L195.715 2.31485L196.111 2.40744C195.781 2.54633 196.111 2.59263 196.177 2.63892V2.68522C196.111 2.68522 196.111 2.68522 196.045 2.68522C195.648 2.73152 195.252 2.63892 194.921 2.82411C194.921 2.82411 194.855 2.82411 194.789 2.77781C194.789 2.73152 194.723 2.68522 194.723 2.63892C194.723 2.59263 194.723 2.59263 194.789 2.54633L194.326 2.45374C194.326 2.50004 194.326 2.54633 194.326 2.59263C194.326 2.63892 194.326 2.68522 194.26 2.68522C193.996 2.73152 193.665 2.73152 193.401 2.77781C193.137 2.82411 192.806 2.63892 192.542 2.82411H192.476C192.476 2.77781 192.476 2.73152 192.542 2.68522C192.608 2.63892 192.674 2.63892 192.806 2.59263C192.542 2.63892 192.872 2.26855 192.542 2.36115L192.476 2.40744L192.542 2.45374C192.608 2.50004 192.608 2.54633 192.674 2.59263C192.674 2.59263 192.674 2.59263 192.608 2.63892C192.542 2.45374 192.41 2.68522 192.344 2.59263C192.277 2.54633 192.277 2.45374 192.145 2.45374C192.079 2.45374 191.947 2.50004 191.947 2.54633C191.947 2.63892 191.947 2.68522 191.947 2.77781C191.947 2.77781 191.947 2.82411 192.013 2.82411L191.947 2.87041C191.815 2.87041 191.683 2.87041 191.55 2.82411C191.418 2.77781 191.286 2.63892 191.286 2.68522C191.022 2.77781 191.418 2.73152 191.352 2.77781C191.088 2.963 190.691 2.9167 190.361 2.87041C189.964 2.87041 189.567 2.73152 189.237 2.59263C189.039 2.50004 188.973 2.68522 188.84 2.63892L188.906 2.82411C189.039 2.77781 189.171 2.77781 189.237 2.73152C189.303 2.73152 189.303 2.68522 189.369 2.63892C189.369 2.68522 189.369 2.73152 189.369 2.77781C189.303 2.87041 189.237 3.00929 189.171 2.963C188.642 2.82411 188.047 2.963 187.518 2.963C187.386 2.963 187.254 2.87041 187.122 2.87041C186.99 2.87041 186.924 2.963 186.791 2.963L186.659 2.9167C186.725 2.82411 186.791 2.77781 186.857 2.73152C186.791 2.77781 186.659 2.77781 186.593 2.82411C186.527 2.87041 186.461 2.9167 186.395 2.963C186.329 3.00929 186.329 3.05559 186.329 3.05559C185.866 2.73152 185.403 3.19448 184.941 3.05559L184.808 3.00929V2.963C184.941 2.9167 185.205 2.87041 185.139 2.82411C184.875 2.73152 184.544 2.73152 184.28 2.73152C184.147 2.73152 184.081 2.87041 184.015 2.963C184.015 3.00929 184.015 3.05559 184.015 3.05559L183.156 3.00929C183.222 3.00929 183.288 2.963 183.354 2.963V2.9167H182.892V2.963C182.958 3.00929 182.958 3.00929 183.024 3.05559C182.958 3.05559 182.892 3.10189 182.825 3.10189C182.363 3.10189 181.834 3.10189 181.371 3.05559C181.239 3.05559 181.107 2.9167 180.909 2.82411C180.909 2.82411 180.843 2.77781 180.843 2.82411L180.776 2.87041C180.71 3.24078 180.512 2.82411 180.38 2.9167C180.38 2.9167 180.248 2.82411 180.182 2.77781L180.115 2.73152C180.115 2.77781 180.049 2.77781 180.049 2.82411L180.115 2.87041L180.182 2.9167L180.115 2.963C179.917 2.9167 179.653 2.87041 179.455 2.77781C179.19 2.59263 179.785 2.73152 179.587 2.54633C179.587 2.50004 179.521 2.45374 179.521 2.45374C179.388 2.40744 179.256 2.40744 179.124 2.36115V1.62041C179.256 1.62041 179.455 1.62041 179.587 1.57411C179.653 1.57411 180.182 1.38892 180.248 1.75929C180.512 1.57411 180.776 1.89818 181.041 1.75929C181.107 1.713 181.173 1.75929 181.239 1.80559L181.107 1.85189V1.89818H181.173C181.239 1.85189 181.239 1.80559 181.239 1.80559C181.107 1.713 181.173 1.6667 181.305 1.6667C181.371 1.6667 181.504 1.52781 181.437 1.713C181.504 1.713 181.57 1.713 181.636 1.6667V1.57411C182.297 1.20374 182.958 1.38892 183.619 1.52781C183.883 1.57411 184.214 1.38892 184.346 1.43522C184.61 1.57411 184.742 1.34263 184.941 1.38892C185.139 1.43522 185.337 1.38892 185.535 1.43522C185.932 1.43522 186.329 1.25004 186.791 1.38892C186.99 1.43522 187.518 1.52781 187.849 1.25004C187.981 1.15744 188.312 1.25004 188.576 1.29633C188.906 1.34263 189.303 1.43522 189.634 1.48152C189.7 1.11115 190.096 1.29633 190.361 1.20374C190.691 1.11115 191.088 1.38892 191.352 1.06485H191.418C191.418 1.20374 191.418 1.34263 191.352 1.52781L191.286 1.57411C191.286 1.57411 191.352 1.62041 191.352 1.57411C191.484 1.43522 191.683 1.29633 191.815 1.15744C191.815 1.11115 191.881 1.11115 191.881 1.06485H191.947L191.881 1.11115C191.881 1.15744 191.881 1.25004 191.881 1.25004C192.013 1.25004 192.145 1.25004 192.211 1.25004C192.344 1.20374 192.476 1.11115 192.608 1.11115C193.071 1.06485 193.599 1.01855 194.062 1.11115C194.393 1.20374 194.723 0.879665 195.054 1.06485C195.12 1.11115 195.186 1.20374 195.252 1.29633C195.186 1.43522 195.12 1.29633 195.12 1.29633C194.921 1.06485 195.054 1.34263 195.054 1.38892H194.987C194.987 1.38892 194.987 1.34263 194.921 1.34263L194.987 1.48152H195.054C195.054 1.48152 195.054 1.48152 195.12 1.48152C195.252 1.48152 195.384 1.52781 195.516 1.52781C195.516 1.52781 195.582 1.48152 195.582 1.43522L195.384 1.38892C195.45 1.34263 195.582 1.20374 195.582 1.25004C195.781 1.29633 196.111 1.20374 196.177 1.48152C196.177 1.52781 196.442 1.52781 196.574 1.57411C196.574 1.57411 196.64 1.52781 196.64 1.48152C196.574 1.38892 196.64 1.25004 196.375 1.34263C196.375 1.34263 196.309 1.34263 196.243 1.29633C196.375 1.25004 196.442 1.15744 196.574 1.15744C197.103 1.11115 197.565 1.11115 198.094 1.11115C198.16 1.11115 198.292 1.11115 198.358 1.11115L198.16 1.15744L198.226 1.20374C198.358 1.20374 198.491 1.11115 198.557 1.11115L200.672 1.15744C201.399 1.15744 202.126 1.20374 202.919 1.15744C203.316 1.15744 203.712 1.06485 204.043 1.01855C204.638 0.972258 205.233 1.01855 205.894 0.972258C206.026 0.972258 206.29 1.01855 206.29 0.833369C206.819 1.06485 207.348 0.69448 207.876 0.925961C208.207 1.06485 208.339 0.833369 208.604 0.833369C209.331 0.833369 210.058 0.740776 210.785 0.879665C211.115 0.925961 211.446 0.740776 211.776 0.925961C211.776 0.925961 211.975 0.740776 212.173 0.740776C212.569 0.787073 212.966 0.601887 213.429 0.787073C213.627 0.879665 213.957 0.787073 214.222 0.69448C214.552 0.555591 214.222 1.06485 214.552 0.833369C214.552 0.833369 214.618 0.879665 214.618 0.833369C214.685 0.787073 214.685 0.740776 214.751 0.69448C214.817 0.69448 214.883 0.740776 214.949 0.787073C215.147 0.879665 215.345 1.01855 215.544 1.01855C215.94 0.972258 216.337 0.879665 216.667 0.740776C216.932 0.601887 216.8 0.787073 216.8 0.833369C217.064 0.972258 217.328 0.555591 217.527 0.879665C217.593 0.69448 217.989 1.01855 217.923 0.69448C217.923 0.648184 218.055 0.648184 218.122 0.601887L218.188 0.740776C218.386 0.648184 218.65 0.416702 218.716 0.787073C218.783 1.15744 218.849 0.69448 218.915 0.787073C218.981 0.833369 219.047 0.833369 219.113 0.879665L219.179 0.833369C219.245 0.879665 219.311 0.925961 219.377 0.972258C219.311 0.972258 219.245 1.01855 219.179 1.01855L219.113 1.06485C219.179 1.06485 219.179 1.06485 219.245 1.11115L219.377 1.15744C219.047 0.879665 220.038 1.34263 219.51 0.972258C219.444 0.925961 219.444 0.833369 219.51 0.833369C219.642 0.787073 219.708 0.787073 219.84 0.787073C219.906 0.787073 219.972 0.833369 219.972 0.833369C219.906 0.787073 219.84 0.740776 219.774 0.69448C219.708 0.648184 219.708 0.648184 219.642 0.601887C219.708 0.601887 219.708 0.601887 219.774 0.601887C219.906 0.648184 219.972 0.69448 220.105 0.740776C220.105 0.740776 220.105 0.787073 220.105 0.833369C220.171 0.833369 220.303 0.787073 220.369 0.787073C220.501 0.879665 220.633 0.833369 220.765 0.787073L220.832 0.833369C220.898 0.787073 220.964 0.740776 221.03 0.69448C221.096 0.648184 221.096 0.601887 221.096 0.601887C221.162 0.601887 221.228 0.601887 221.228 0.648184C221.228 0.69448 221.228 0.740776 221.228 0.787073V0.833369C221.294 0.833369 221.36 0.787073 221.36 0.787073C221.36 0.69448 221.691 0.879665 221.559 0.648184C221.559 0.601887 221.559 0.601887 221.493 0.555591L221.955 0.69448C222.021 0.370406 222.352 1.06485 222.418 0.648184C222.418 0.648184 222.55 0.648184 222.616 0.648184C222.352 0.740776 223.013 0.69448 222.682 0.787073C222.682 0.787073 222.682 0.833369 222.616 0.833369C222.616 0.833369 222.616 0.833369 222.682 0.833369C222.815 0.833369 223.013 0.925961 223.013 0.879665C223.145 0.787073 223.542 0.601887 223.74 0.648184C223.806 0.648184 223.74 0.833369 223.806 0.879665C223.938 1.06485 223.872 0.925961 223.872 0.833369C223.872 0.740776 223.938 0.601887 223.938 0.601887C224.467 0.648184 225.062 0.416702 225.591 0.601887C225.591 0.601887 225.657 0.601887 225.723 0.555591V0.509295C225.723 0.462999 225.657 0.416702 225.657 0.370406H225.855L225.789 0.416702C225.789 0.416702 225.789 0.462999 225.855 0.462999C225.987 0.509295 226.185 0.601887 226.318 0.601887C226.384 0.601887 226.516 0.601887 226.582 0.601887L226.648 0.69448C226.582 0.740776 226.516 0.740776 226.45 0.787073L226.582 0.925961L226.185 1.11115C226.318 1.11115 226.45 1.11115 226.582 1.11115C226.648 1.11115 226.846 1.11115 226.846 1.06485C226.846 0.925961 226.714 0.925961 226.582 0.925961C226.714 0.787073 226.846 0.601887 227.045 0.462999C227.045 0.462999 227.243 0.509295 227.309 0.555591C227.706 0.601887 227.706 0.185221 228.102 0.185221C228.168 0.185221 228.301 0.0926282 228.367 0.138924C228.433 0.138924 228.499 0.231517 228.565 0.277813C228.433 0.277813 228.301 0.277813 228.235 0.32411C228.235 0.32411 228.235 0.370406 228.235 0.416702C228.301 0.370406 228.367 0.462999 228.433 0.462999C228.697 0.509295 228.962 0.462999 229.16 0.462999H229.292C229.292 0.509295 229.226 0.509295 229.226 0.555591V0.601887C229.292 0.601887 229.424 0.601887 229.49 0.601887L229.424 0.555591C229.424 0.509295 229.358 0.462999 229.358 0.370406C229.49 0.370406 229.556 0.32411 229.689 0.32411C230.085 0.277813 230.482 0.231517 230.878 0.231517C231.275 0.231517 231.672 0.231517 232.068 0.231517C232.266 0.231517 232.531 0.138924 232.729 0.138924C232.994 0.138924 233.324 0.185221 233.522 0.277813C233.985 0.462999 234.382 0.32411 234.844 0.370406C234.91 0.370406 235.043 0.231517 235.109 0.138924C235.175 0.370406 235.439 0.32411 235.571 0.416702C235.704 0.462998 235.77 0.555591 235.836 0.648184L235.571 0.833369L235.968 0.925961L235.836 0.648184C235.77 0.0926281 236.232 0.555591 236.431 0.462999C236.497 0.416702 236.563 0.370406 236.629 0.277813C236.695 0.32411 236.695 0.462999 236.827 0.277813C236.827 0.231517 237.025 0.185221 237.092 0.185221C237.025 0.277813 237.025 0.277813 237.29 0.416702C237.29 0.462998 237.29 0.509295 237.224 0.555591L237.488 0.509295C237.554 0.555591 237.62 0.601887 237.753 0.601887C237.819 0.648184 237.951 0.648184 237.951 0.601887C238.017 0.555591 238.083 0.462999 238.149 0.370406C238.017 0.416702 237.951 0.416702 237.819 0.462999L237.554 0.509295C237.422 0.462999 237.356 0.416702 237.29 0.370406C237.29 0.277813 237.29 0.185221 237.092 0.138924C237.488 0.138924 237.885 0.370406 238.281 0.185221C238.149 0.416702 238.414 0.416702 238.546 0.509295H238.612C238.546 -0.092557 239.075 0.416702 239.273 0.277813C239.537 0.0926282 239.868 0.555591 240.132 0.231517C240.264 0.509295 240.529 0.416702 240.793 0.416702C240.925 0.416702 241.124 0.462999 241.256 0.462999H241.322C241.388 0.555591 241.454 0.69448 241.52 0.787073C241.454 0.69448 241.388 0.555591 241.454 0.462999C241.454 0.32411 241.586 0.138924 241.652 0.138924C242.049 0.0926282 242.512 0.185221 242.908 0.0926282C243.239 3.55691e-05 243.305 0.370406 243.437 0.277813C243.834 0.0463319 243.9 0.555591 244.164 0.462999C244.495 0.32411 243.9 0.370406 244.098 0.231517C244.098 0.231517 243.834 3.55616e-05 244.032 3.55616e-05C244.296 -0.0462607 244.693 -0.138853 244.957 0.0463319C245.023 0.138924 245.089 0.231517 245.155 0.32411C245.155 0.231517 245.486 0.277813 245.354 0.0926282C245.486 0.0926282 245.552 0.0926282 245.684 0.0463319C246.015 -0.092557 246.345 0.185221 246.676 0.138924C246.544 0.370406 246.874 0.277813 246.874 0.231517C246.676 -0.231446 247.205 0.0463319 247.271 0.0463319C247.535 0.0463319 247.865 0.0926282 248.064 0.185221C248.262 0.277813 247.799 0.185221 247.932 0.32411C247.865 0.32411 247.667 0.32411 247.799 0.416702C247.865 0.462998 248.13 0.416702 248.196 0.370406C248.526 0.138924 248.923 0.185221 249.32 0.231517C249.65 0.277813 249.981 0.185221 250.311 0.138924C250.509 0.0926282 250.708 0.138924 250.84 0.32411C250.84 0.370406 251.17 0.231517 251.236 0.277813C251.567 0.462999 251.831 -0.092557 252.096 0.277813C252.426 -0.138853 252.294 0.555591 252.492 0.370406L252.558 0.32411C252.492 0.231517 252.228 0.138924 252.426 0.0926282C252.757 0.0463319 253.087 -0.0462607 253.484 0.138924C253.616 0.231517 253.88 0.231517 254.079 0.185221C254.277 0.138924 254.475 0.231517 254.607 0.231517C254.872 0.231517 255.136 0.185221 255.467 0.277813C255.533 0.277813 255.599 0.231517 255.665 0.185221C255.533 0.370406 256.062 0.416702 255.797 0.601887C255.731 0.648184 255.467 0.648184 255.665 0.787073C255.731 0.740776 255.863 0.648184 255.863 0.601887C255.995 0.416702 256.59 0.416702 256.855 0.601887C256.921 0.648184 257.053 0.69448 257.053 0.69448C257.251 0.509295 257.384 0.462999 257.251 0.787073L257.317 0.833369C257.45 0.740776 257.516 0.601887 257.714 0.69448C257.714 0.509295 257.846 0.601887 257.912 0.601887C258.177 0.740776 258.177 0.32411 258.441 0.416702V0.32411L258.507 0.416702C258.573 0.32411 258.772 0.185221 258.838 0.32411C258.904 0.69448 259.234 0.509295 259.499 0.555591C259.697 0.555591 259.895 0.416702 260.094 0.601887C260.226 0.740776 260.16 0.925961 260.027 1.11115C259.961 1.15744 260.027 1.29633 260.027 1.34263C260.027 1.38892 260.16 1.34263 260.292 1.38892C260.226 1.34263 260.16 1.29633 260.16 1.25004C260.16 1.15744 260.16 1.01855 260.292 0.925961C260.358 0.833369 260.49 0.879665 260.49 0.972258C260.49 0.925961 260.556 0.833369 260.556 0.833369C260.821 0.787073 261.019 0.879665 261.151 0.972258C261.217 1.01855 261.349 1.06485 261.415 1.11115C261.415 1.06485 261.415 0.972258 261.415 0.925961C261.415 0.879665 261.482 0.879665 261.482 0.833369C261.482 1.11115 261.812 0.879665 261.878 1.01855C261.944 1.06485 261.944 1.11115 261.944 1.15744C261.944 1.25004 262.01 1.29633 262.01 1.38892C262.209 1.34263 262.01 1.25004 262.01 1.20374C262.076 1.06485 262.143 0.925961 262.407 0.972258C262.275 1.20374 263.068 0.833369 262.737 1.25004C262.936 1.25004 263.134 1.25004 263.332 1.25004C263.531 1.25004 263.927 1.11115 263.993 1.15744C264.192 1.38892 264.39 1.01855 264.588 1.15744C264.588 1.15744 264.588 1.20374 264.654 1.25004C264.456 1.20374 264.72 1.52781 264.456 1.38892C264.456 1.48152 264.39 1.52781 264.39 1.62041C264.588 1.85189 264.654 1.89818 264.72 1.94448ZM186.791 1.94448L186.263 1.75929C186.263 1.85189 186.196 1.94448 186.263 1.94448C186.395 1.99078 186.527 1.99078 186.659 1.99078C186.659 1.99078 186.725 1.94448 186.791 1.94448ZM187.981 2.50004C187.849 2.45374 187.849 2.45374 187.651 2.54633C187.651 2.50004 187.717 2.50004 187.651 2.54633L187.585 2.59263C187.717 2.63892 187.915 2.68522 187.981 2.63892C188.179 2.59263 188.113 2.54633 187.981 2.50004ZM188.51 2.17596L188.113 1.99078C188.113 2.03707 188.047 2.12967 187.981 2.22226C188.047 2.26855 188.047 2.31485 188.113 2.31485C188.245 2.26855 188.378 2.22226 188.51 2.17596ZM189.039 1.99078C188.84 1.94448 188.708 1.89818 188.642 1.89818C188.444 1.94448 188.906 2.08337 188.642 2.12966C188.708 2.12966 188.774 2.12966 188.906 2.12966C188.906 2.12966 188.973 2.08337 189.039 1.99078ZM190.493 2.31485C190.361 2.22226 190.228 2.12967 190.096 2.08337C190.03 2.08337 190.228 2.36115 189.766 2.17596C189.766 2.31485 189.766 2.40744 189.832 2.50004L190.493 2.31485ZM193.864 2.26855C193.665 2.17596 193.335 2.08337 193.137 2.12966C192.608 2.26855 193.269 2.31485 193.269 2.31485C193.335 2.12967 193.467 2.31485 193.599 2.45374C193.467 2.22226 193.93 2.26855 193.864 2.26855ZM194.921 1.94448C194.855 1.75929 194.723 1.6667 194.326 1.713C194.326 1.713 194.194 1.75929 193.996 1.85189L194.393 1.89818C194.393 1.89818 194.459 1.89818 194.459 1.94448L194.789 2.26855C194.987 2.12967 194.591 2.12967 194.657 2.03707V1.99078C194.723 2.03707 194.789 2.08337 194.789 2.08337C194.855 1.99078 194.921 1.94448 194.921 1.94448ZM199.416 1.34263C199.416 1.29633 199.35 1.29633 199.284 1.29633C199.152 1.29633 199.019 1.29633 198.887 1.34263C198.755 1.38892 198.623 1.48152 198.557 1.57411C198.557 1.57411 198.557 1.62041 198.557 1.6667L198.623 1.713C198.821 1.57411 198.953 1.48152 199.218 1.62041H199.284L199.218 1.57411C199.218 1.52781 199.218 1.48152 199.218 1.43522H199.284C199.284 1.43522 199.35 1.48152 199.35 1.52781C199.416 1.38892 199.482 1.34263 199.416 1.34263ZM205.299 1.94448C205.1 1.80559 204.902 2.08337 204.704 1.89818C204.704 1.94448 204.638 1.99078 204.638 2.03707C204.77 2.36115 204.968 2.03707 205.166 2.08337C205.299 2.08337 205.299 1.94448 205.299 1.94448ZM211.578 1.62041L211.512 1.6667L211.314 1.48152C211.181 1.52781 211.049 1.713 211.115 1.43522C211.115 1.34263 211.115 1.29633 211.115 1.20374H211.049C210.983 1.38892 210.851 1.38892 210.785 1.20374C210.785 1.20374 210.719 1.20374 210.719 1.25004C210.719 1.29633 210.719 1.34263 210.719 1.34263C210.785 1.43522 210.851 1.52781 210.917 1.62041C210.917 1.6667 210.917 1.713 210.917 1.713C211.314 1.94448 210.983 1.52781 211.181 1.6667C211.247 1.713 211.247 1.89818 211.314 1.99078C211.314 1.99078 211.578 1.99078 211.578 1.94448C211.578 1.85189 211.578 1.713 211.578 1.62041ZM214.156 1.48152C214.09 1.20374 213.957 1.43522 213.891 1.48152C213.825 1.48152 213.693 1.52781 213.627 1.43522C213.429 1.94448 213.825 1.713 213.957 1.713C214.024 1.6667 214.156 1.52781 214.156 1.48152ZM215.279 1.43522C215.015 1.38892 214.685 1.38892 214.354 1.43522C214.288 1.43522 214.222 1.52781 214.222 1.57411C214.42 1.99078 214.751 1.52781 214.751 1.57411C215.213 1.62041 215.279 1.43522 215.279 1.43522ZM222.484 0.925961C222.55 1.11115 222.748 1.01855 222.947 1.06485C222.881 1.06485 222.815 1.11115 222.748 1.11115C222.682 1.15744 222.616 1.15744 222.616 1.20374C222.55 1.38892 222.815 1.38892 222.947 1.52781C222.947 1.52781 223.013 1.48152 223.079 1.48152C223.013 1.43522 223.013 1.43522 222.947 1.38892C222.881 1.34263 222.881 1.29633 222.815 1.25004H222.881C222.947 1.25004 223.013 1.25004 223.079 1.20374C223.079 1.20374 223.145 1.15744 223.079 1.15744C223.013 1.11115 222.947 1.11115 222.881 1.06485C222.815 0.925961 222.815 0.787073 222.55 0.833369C222.616 0.833369 222.484 0.879665 222.484 0.925961ZM223.343 1.713C223.079 1.62041 222.881 1.57411 222.682 1.48152C222.616 1.48152 222.55 1.52781 222.55 1.52781C222.748 1.80559 223.145 1.57411 223.343 1.75929V1.713ZM233.39 1.01855C233.192 1.01855 233.324 0.972258 233.522 0.833369C233.258 0.879665 233.192 0.879665 233.06 0.879665C233.258 1.01855 233.39 1.38892 233.655 1.29633C233.853 1.25004 233.721 1.01855 233.39 1.01855ZM239.802 1.15744C239.603 1.11115 239.339 1.01855 239.141 1.01855C239.075 1.01855 239.008 1.11115 238.942 1.20374C239.207 1.25004 239.405 1.25004 239.669 1.29633C239.735 1.20374 239.802 1.15744 239.802 1.15744ZM240.793 1.06485L240.595 0.972258C240.396 1.25004 240.198 1.01855 239.934 1.01855C239.735 1.15744 240 1.34263 240.066 1.29633C240.396 1.29633 240.595 1.15744 240.793 1.06485ZM244.098 1.52781C244.032 1.52781 243.9 1.48152 243.834 1.48152L243.503 1.38892C243.569 1.11115 243.305 1.29633 243.239 1.29633C243.239 1.29633 243.173 1.29633 243.106 1.29633C243.106 1.34263 243.106 1.43522 243.173 1.48152C243.371 1.75929 243.635 1.57411 243.9 1.57411C243.966 1.52781 244.032 1.713 244.098 1.52781ZM244.164 1.06485C243.9 0.648184 243.503 0.925961 243.173 0.879665C243.173 0.879665 243.173 0.879665 243.106 0.925961L244.164 1.06485C244.098 1.11115 244.098 1.06485 244.164 1.06485ZM244.296 0.601887C244.098 0.555591 243.966 0.509295 243.767 0.462999C243.701 0.462999 243.635 0.509295 243.635 0.555591C243.767 0.601887 243.966 0.69448 244.098 0.740776C244.164 0.740776 244.23 0.69448 244.296 0.601887ZM246.081 1.25004C245.949 1.20374 245.883 1.20374 245.816 1.20374C245.552 1.01855 245.42 1.34263 245.222 1.25004C245.222 1.29633 245.155 1.34263 245.222 1.34263C245.354 1.52781 245.42 1.34263 245.552 1.34263C245.618 1.34263 245.684 1.34263 245.75 1.34263C245.75 1.38892 245.486 1.48152 245.75 1.52781C245.816 1.48152 245.949 1.34263 246.081 1.25004ZM246.874 1.15744C246.742 1.11115 246.676 1.06485 246.544 1.06485C246.477 1.20374 246.808 1.25004 246.61 1.38892C246.61 1.38892 246.61 1.48152 246.61 1.52781C246.742 1.43522 246.808 1.34263 246.874 1.15744ZM253.352 0.833369C253.219 0.787073 253.153 0.69448 253.021 0.648184L252.955 0.69448C252.889 0.925961 253.153 0.833369 253.219 0.925961L253.352 0.833369ZM257.714 1.06485C257.582 0.833369 257.317 1.29633 257.185 1.01855C257.053 1.11115 257.119 1.15744 257.317 1.20374C257.317 1.25004 257.317 1.29633 257.317 1.34263C257.45 1.20374 257.45 1.06485 257.714 1.06485Z" fill="#020A13"/>
<path d="M270.471 3.28704L270.273 3.24074C270.405 3.19444 270.537 3.10185 270.67 3.05556C270.802 2.96296 270.934 2.87037 270.934 2.77778C270.934 2.68518 270.802 2.59259 270.67 2.5H270.603C270.471 2.77778 270.339 2.36111 270.207 2.5C270.339 2.22222 269.876 2.40741 269.876 2.26852C269.81 2.12963 270.207 2.31481 270.075 2.17593C269.942 2.03704 269.744 2.12963 269.612 2.22222L269.48 2.17593C269.414 1.89815 269.678 2.17593 269.678 2.08333C269.678 2.03704 269.612 1.99074 269.612 1.94444C269.678 1.99074 269.678 2.03704 269.744 1.99074C269.81 1.99074 269.942 1.94444 270.009 1.94444C269.81 1.89815 269.678 1.75926 269.48 1.80556C269.215 1.80556 269.017 2.03704 268.753 1.89815C268.488 1.75926 269.017 1.80556 268.819 1.71296C268.687 1.89815 268.356 1.57407 268.29 1.85185C268.29 1.85185 268.224 1.85185 268.158 1.85185C268.026 1.66667 267.96 1.2963 267.563 1.71296C267.629 1.75926 267.827 1.66667 267.761 1.85185C267.695 1.99074 267.563 2.08333 267.365 2.03704C267.365 1.99074 267.365 1.94444 267.365 1.94444C267.365 1.94444 267.497 1.94444 267.497 1.89815C267.563 1.85185 267.563 1.75926 267.563 1.71296C267.299 1.89815 267.034 1.57407 266.77 1.66667C266.704 1.71296 266.571 1.75926 266.505 1.80556C266.571 1.71296 266.638 1.62037 266.704 1.52778C266.77 1.43519 266.77 1.34259 266.836 1.25C266.77 1.25 266.638 1.25 266.571 1.25C266.505 1.25 266.505 1.2963 266.505 1.34259C267.034 1.57407 266.373 1.57407 266.373 1.66667C266.241 1.66667 266.043 1.85185 265.91 1.66667C265.778 1.75926 265.712 1.85185 265.646 1.85185C265.514 1.85185 265.382 1.85185 265.316 1.80556C265.117 1.75926 264.919 1.85185 264.721 1.75926L264.522 2.5463C264.589 2.59259 264.655 2.63889 264.721 2.63889C265.051 2.77778 265.316 2.91667 265.778 2.96296C266.439 3.00926 267.166 3.10185 267.827 3.19444L269.876 3.56481C270.405 3.65741 270.67 3.7037 270.67 3.61111C270.67 3.61111 270.67 3.61111 270.736 3.61111C270.868 3.42593 270.736 3.33333 270.471 3.28704Z" fill="#020A13"/>
</g>
<defs>
<clipPath id="clip0">
<rect width="271" height="5" fill="white"/>
</clipPath>
</defs>
</svg>
