<svg width="29" height="38" viewBox="0 0 29 38" fill="none" xmlns="http://www.w3.org/2000/svg">
<path d="M14.4844 0.730469C10.6567 0.734984 6.9871 2.25752 4.28052 4.9641C1.57395 7.67068 0.051406 11.3403 0.0468904 15.168C0.0423059 18.2959 1.06405 21.3391 2.95539 23.8305C2.95539 23.8305 3.34914 24.3489 3.41345 24.4237L14.4844 37.4805L25.5606 24.4172C25.6183 24.3476 26.0134 23.8305 26.0134 23.8305L26.0147 23.8265C27.9051 21.3362 28.9264 18.2945 28.9219 15.168C28.9174 11.3403 27.3948 7.67068 24.6883 4.9641C21.9817 2.25752 18.3121 0.734984 14.4844 0.730469ZM15.7969 21.7305H13.1719V19.1055H15.7969V21.7305ZM15.7969 16.4805H13.1719V13.8555H15.7969V16.4805ZM21.0469 21.7305H18.4219V11.2305H10.5469V21.7305H7.92189V11.2305C7.92259 10.5345 8.19937 9.86721 8.6915 9.37508C9.18364 8.88295 9.85091 8.60616 10.5469 8.60547H18.4219C19.1179 8.60616 19.7851 8.88295 20.2773 9.37508C20.7694 9.86721 21.0462 10.5345 21.0469 11.2305V21.7305Z" fill="#091929"/>
</svg>
