<svg width="1441" height="325" viewBox="0 0 1441 325" fill="none" xmlns="http://www.w3.org/2000/svg">
<g clip-path="url(#clip0)">
<path d="M1331.01 100.53C1338.34 103.094 1345.67 105.658 1352.96 108.264C1360.16 110.715 1367.32 113.168 1374.52 115.618C1377 116.47 1379.45 117.325 1382.26 118.277C1380.64 113.246 1379.17 108.569 1377.65 103.855C1376.55 100.489 1375.36 97.128 1374.33 93.7167C1373.92 92.3683 1373.42 92.0771 1372.06 92.4064C1368.91 93.1335 1365.74 93.5788 1362.59 94.2254C1360.19 94.7022 1359.88 92.4979 1358.72 91.3998C1357.15 89.6806 1355.55 87.9641 1354.01 86.1618C1353.36 85.3549 1352.85 85.104 1351.84 85.7347C1344.93 90.2605 1338.01 94.7863 1331.09 99.2718C1330.51 99.6326 1329.72 100.006 1331.01 100.53Z" fill="black"/>
<path d="M1384.98 84.8685C1383.7 84.4653 1382.42 84.062 1381.18 83.6562C1380.81 82.9117 1380.07 82.7568 1379.37 82.5188C1373.65 80.4586 1367.9 78.5621 1362.22 76.5396C1361.56 76.299 1360.91 76.2598 1360.27 76.301C1354.39 74.2914 1348.47 72.3247 1342.56 70.3177C1342.18 70.1798 1341.81 70.0822 1340.86 69.7791C1347.16 77.0987 1353.11 83.9959 1359.05 90.8931C1360.62 93.8254 1363.13 93.3006 1365.73 92.8108C1374.49 91.0785 1383.25 89.467 1392.25 87.7594C1389.9 86.3737 1387.24 86.0581 1384.98 84.8685Z" fill="black"/>
<path d="M1335.56 81.8429C1334.71 84.3636 1333.86 86.8843 1333.01 89.405C1331.99 92.4217 1330.97 95.4385 1329.95 98.4955C1330.04 98.6111 1330.16 98.6839 1330.25 98.7996C1331.57 97.9468 1332.86 97.137 1334.18 96.2843C1339.82 92.6489 1345.41 88.9758 1351.09 85.3782C1352.26 84.6163 1352.31 84.1682 1351.39 83.1352C1347.86 79.1966 1344.37 75.2152 1340.95 71.1884C1340.04 70.1151 1339.73 70.3371 1339.31 71.4955C1338.08 74.9303 1336.8 78.3678 1335.56 81.8429Z" fill="black"/>
<path d="M1393.34 88.377C1387.34 89.4885 1381.62 90.5819 1375.9 91.6754C1375.14 91.8049 1374.54 91.8839 1374.94 93.0309C1377.59 100.988 1380.17 108.95 1382.74 116.912C1382.79 116.99 1382.95 117.06 1383.29 117.281C1386.6 107.689 1389.92 98.1778 1393.34 88.377Z" fill="black"/>
</g>
<path d="M-17.9941 323.989C33.3392 266.989 169.606 157.789 304.006 176.989C472.006 200.989 508.006 262.989 618.006 257.989C728.006 252.989 779.006 213.989 900.006 235.989C1021.01 257.989 1235.01 309.989 1330.01 257.989C1425.01 205.989 1231.01 95.9893 1176.01 119.989C1121.01 143.989 1238.01 238.989 1304.01 163.989C1370.01 88.9893 1403.01 15.9893 1446.01 0.989258" stroke="#020A13" stroke-dasharray="3 3"/>
<g clip-path="url(#clip1)">
<path d="M153.195 215.318C153.253 215.208 153.253 215.075 153.121 214.988C149.254 212.168 145.339 209.42 141.376 206.745C137.435 204.084 133.462 201.491 129.432 198.963C127.164 197.519 124.869 196.116 122.568 194.724C122.446 194.644 122.313 194.69 122.235 194.787C122.164 194.785 122.093 194.827 122.038 194.91C120.33 197.889 119.601 201.349 119.832 204.742C119.856 205.128 119.903 205.499 119.943 205.881C119.967 205.867 119.994 205.87 120.018 205.856C120.31 205.811 120.655 206.038 120.73 206.323C120.804 206.565 120.658 206.765 120.407 206.793C120.295 206.808 120.177 206.789 120.068 206.733C120.561 209.484 121.688 212.09 123.382 214.297C125.669 217.264 128.885 219.479 132.435 220.655C135.815 221.778 139.468 221.911 142.962 221.11C146.33 220.345 149.526 218.757 152.2 216.545C152.543 216.267 152.866 215.975 153.188 215.683C153.324 215.565 153.293 215.412 153.195 215.318ZM124.183 197.916C124.159 197.886 124.156 197.824 124.142 197.801C124.196 197.718 124.271 197.693 124.325 197.743C124.349 197.773 124.359 197.825 124.339 197.856C124.315 197.914 124.217 197.953 124.183 197.916ZM120.853 204.584C120.809 204.54 120.803 204.461 120.853 204.406C120.901 204.334 121.003 204.312 121.064 204.352C121.125 204.392 121.145 204.494 121.104 204.556C121.04 204.632 120.918 204.641 120.853 204.584ZM125.929 198.204C125.712 198.224 125.563 198.097 125.556 197.885C125.563 197.786 125.587 197.683 125.604 197.591C125.828 197.737 126.041 197.878 126.265 198.025C126.18 198.132 126.068 198.191 125.929 198.204ZM126.072 201.599C126.075 201.572 126.079 201.544 126.082 201.517C126.103 201.53 126.136 201.523 126.14 201.54C126.143 201.557 126.13 201.578 126.133 201.595C126.106 201.592 126.089 201.595 126.072 201.599ZM124.86 207.169C124.761 207.12 124.731 207.011 124.792 206.918C124.87 206.776 125.013 206.737 125.131 206.8C125.223 206.86 125.257 206.986 125.206 207.085C125.124 207.21 124.982 207.249 124.86 207.169ZM125.217 209.551C125.126 209.624 125.027 209.618 124.943 209.548C124.841 209.481 124.783 209.369 124.824 209.263C124.855 209.194 124.892 209.115 124.943 209.06C125.035 208.942 125.157 208.933 125.275 208.997C125.394 209.06 125.435 209.175 125.39 209.309C125.38 209.347 125.363 209.395 125.336 209.436C125.302 209.488 125.265 209.523 125.217 209.551ZM129.893 202.716C129.825 202.686 129.802 202.611 129.825 202.553C129.859 202.501 129.934 202.476 129.992 202.499C130.049 202.522 130.066 202.607 130.025 202.669C129.985 202.731 129.944 202.749 129.893 202.716ZM131.403 201.856C131.332 201.898 131.22 201.869 131.186 201.788C131.173 201.764 131.169 201.747 131.166 201.73C131.163 201.58 131.336 201.472 131.464 201.541C131.485 201.555 131.505 201.568 131.508 201.585C131.559 201.663 131.505 201.79 131.403 201.856ZM129.725 204.856C129.708 204.859 129.664 204.86 129.671 204.85C129.644 204.802 129.634 204.751 129.63 204.69C129.63 204.69 129.671 204.672 129.695 204.658C129.722 204.706 129.749 204.753 129.759 204.804C129.762 204.821 129.742 204.852 129.725 204.856ZM130.825 204.201C130.767 204.178 130.753 204.11 130.77 204.061C130.801 203.993 130.876 203.968 130.933 203.991C131.001 204.02 131.025 204.095 130.991 204.147C130.96 204.216 130.886 204.241 130.825 204.201Z" fill="#EF5022"/>
</g>
<defs>
<clipPath id="clip0">
<rect width="63.9114" height="51" fill="white" transform="matrix(-0.997962 0.0638184 0.0638184 0.997962 1391.95 66.5127)"/>
</clipPath>
<clipPath id="clip1">
<rect width="37.4525" height="17.24" fill="white" transform="translate(122.459 194.268) rotate(33.283)"/>
</clipPath>
</defs>
</svg>
