<svg width="88" height="87" viewBox="0 0 88 87" fill="none" xmlns="http://www.w3.org/2000/svg">
<rect x="0.563477" y="0.198486" width="86.5441" height="86.5441" rx="35" fill="#EDEDC0"/>
<circle cx="43.3911" cy="43.908" r="14" fill="white"/>
<path d="M43.8354 60.9705C53.5007 60.9705 61.3354 53.1358 61.3354 43.4705C61.3354 33.8053 53.5007 25.9705 43.8354 25.9705C34.1702 25.9705 26.3354 33.8053 26.3354 43.4705C26.3354 53.1358 34.1702 60.9705 43.8354 60.9705ZM38.1129 41.283H40.3354C40.6835 41.283 41.0174 41.4213 41.2635 41.6674C41.5097 41.9136 41.6479 42.2474 41.6479 42.5955C41.6479 42.9436 41.5097 43.2775 41.2635 43.5236C41.0174 43.7697 40.6835 43.908 40.3354 43.908H35.5229C35.1749 43.908 34.841 43.7697 34.5949 43.5236C34.3487 43.2775 34.2104 42.9436 34.2104 42.5955V36.908C34.2104 36.5599 34.3487 36.2261 34.5949 35.9799C34.841 35.7338 35.1749 35.5955 35.5229 35.5955C35.871 35.5955 36.2049 35.7338 36.451 35.9799C36.6972 36.2261 36.8354 36.5599 36.8354 36.908V38.2205C37.6496 37.1329 38.7063 36.2502 39.9215 35.6426C41.1367 35.035 42.4768 34.7193 43.8354 34.7205C46.5252 34.7205 48.9174 35.8755 50.5327 37.818C50.7555 38.0858 50.8628 38.4312 50.8309 38.7781C50.7991 39.1249 50.6308 39.445 50.3629 39.6678C50.0951 39.8906 49.7498 39.9978 49.4029 39.966C49.056 39.9342 48.736 39.7658 48.5132 39.498C47.4002 38.1558 45.7482 37.3455 43.8354 37.3455C42.5952 37.3457 41.3842 37.7222 40.3625 38.4252C39.3407 39.1283 38.5563 40.1247 38.1129 41.283ZM50.8354 50.033V48.7205C50.045 49.7709 49.0285 50.6302 47.8612 51.2349C46.6939 51.8396 45.4057 52.1742 44.0917 52.214C42.7776 52.2539 41.4715 51.9978 40.2697 51.4649C39.068 50.932 38.0013 50.1359 37.1487 49.1353C37.0326 49.0047 36.9437 48.8522 36.8873 48.6868C36.8309 48.5214 36.8081 48.3464 36.8202 48.1721C36.8323 47.9978 36.8792 47.8276 36.9579 47.6716C37.0367 47.5156 37.1458 47.3769 37.2789 47.2637C37.4119 47.1504 37.5663 47.0649 37.7329 47.012C37.8994 46.9592 38.0749 46.9402 38.2489 46.9561C38.4229 46.972 38.592 47.0225 38.7463 47.1046C38.9005 47.1867 39.0368 47.2988 39.1472 47.4343C39.8121 48.2136 40.6613 48.8145 41.6174 49.1822C42.5736 49.5499 43.6065 49.6728 44.6223 49.5398C45.6381 49.4068 46.6045 49.022 47.4338 48.4205C48.2631 47.819 48.9289 47.0198 49.3707 46.0955H47.3354C46.9874 46.0955 46.6535 45.9572 46.4074 45.7111C46.1612 45.465 46.0229 45.1311 46.0229 44.783C46.0229 44.4349 46.1612 44.1011 46.4074 43.8549C46.6535 43.6088 46.9874 43.4705 47.3354 43.4705H52.1479C52.496 43.4705 52.8299 43.6088 53.076 43.8549C53.3222 44.1011 53.4604 44.4349 53.4604 44.783V50.033C53.4604 50.3811 53.3222 50.715 53.076 50.9611C52.8299 51.2072 52.496 51.3455 52.1479 51.3455C51.7999 51.3455 51.466 51.2072 51.2199 50.9611C50.9737 50.715 50.8354 50.3811 50.8354 50.033Z" fill="#091929"/>
</svg>
