<svg width="88" height="87" viewBox="0 0 88 87" fill="none" xmlns="http://www.w3.org/2000/svg">
<rect x="0.555176" y="0.198486" width="86.5441" height="86.5441" rx="35" fill="#EDEDC0"/>
<path d="M59.1959 28.1015C59.0187 27.9252 58.7949 27.8031 58.5508 27.7496C58.3067 27.6962 58.0523 27.7135 57.8177 27.7996L28.9427 38.2996C28.6937 38.3941 28.4793 38.562 28.328 38.7812C28.1767 39.0004 28.0957 39.2605 28.0957 39.5268C28.0957 39.7931 28.1767 40.0532 28.328 40.2724C28.4793 40.4915 28.6937 40.6595 28.9427 40.754L40.2171 45.2559L48.5384 36.9084L50.389 38.759L42.0284 47.1196L46.5434 58.394C46.6406 58.6382 46.809 58.8476 47.0266 58.995C47.2442 59.1424 47.5011 59.2211 47.764 59.2209C48.0292 59.2154 48.2866 59.1297 48.5021 58.9751C48.7177 58.8205 48.8813 58.6041 48.9715 58.3546L59.4715 29.4796C59.5609 29.2474 59.5825 28.9945 59.5337 28.7505C59.4849 28.5065 59.3677 28.2814 59.1959 28.1015Z" fill="black"/>
</svg>
