<svg width="88" height="87" viewBox="0 0 88 87" fill="none" xmlns="http://www.w3.org/2000/svg">
<rect x="0.668457" y="0.198486" width="86.5441" height="86.5441" rx="35" fill="#EDEDC0"/>
<path d="M58.6388 37.1708V42.6308C56.4648 41.5203 53.9949 41.1271 51.5836 41.5077C49.1722 41.8883 46.9435 43.0232 45.2173 44.7494C43.4911 46.4755 42.3563 48.7043 41.9756 51.1156C41.595 53.5269 41.9882 55.9969 43.0988 58.1708H34.4888C33.0964 58.1708 31.761 57.6177 30.7765 56.6331C29.7919 55.6486 29.2388 54.3132 29.2388 52.9208V37.1708H58.6388ZM53.3888 28.7708C54.7812 28.7708 56.1165 29.3239 57.1011 30.3085C58.0856 31.2931 58.6388 32.6284 58.6388 34.0208V35.0708H29.2388V34.0208C29.2388 32.6284 29.7919 31.2931 30.7765 30.3085C31.761 29.3239 33.0964 28.7708 34.4888 28.7708H53.3888ZM48.2774 46.499C48.4286 47.0379 48.4706 47.6017 48.4009 48.157C48.3311 48.7124 48.1511 49.2483 47.8713 49.7331C47.5915 50.2179 47.2177 50.6419 46.7717 50.9801C46.3257 51.3184 45.8167 51.5641 45.2744 51.7028L44.3042 51.9506C44.2341 52.6605 44.2411 53.3759 44.3252 54.0842L45.0602 54.2585C45.6169 54.3902 46.1409 54.6342 46.6 54.9756C47.0591 55.317 47.4436 55.7487 47.7299 56.244C48.0162 56.7393 48.1983 57.2879 48.265 57.8562C48.3317 58.4244 48.2816 59.0002 48.1178 59.5484L47.8511 60.4346C48.3929 60.863 48.9788 61.2284 49.6046 61.5224L50.2871 60.8C50.68 60.384 51.1538 60.0526 51.6793 59.8263C52.2049 59.5999 52.7712 59.4834 53.3435 59.4838C53.9157 59.4842 54.4819 59.6015 55.0071 59.8286C55.5324 60.0556 56.0057 60.3876 56.3981 60.8042L57.1058 61.556C57.719 61.2725 58.2986 60.9218 58.832 60.5102L58.5044 59.3426C58.3528 58.8036 58.3106 58.2396 58.3802 57.684C58.4497 57.1284 58.6297 56.5923 58.9095 56.1072C59.1893 55.6222 59.5633 55.198 60.0094 54.8596C60.4555 54.5212 60.9649 54.2754 61.5074 54.1367L62.4734 53.891C62.5431 53.1804 62.5361 52.4644 62.4524 51.7553L61.7216 51.5831C61.1646 51.4515 60.6403 51.2074 60.1811 50.8658C59.7218 50.5243 59.3372 50.0924 59.0509 49.5969C58.7646 49.1013 58.5825 48.5524 58.516 47.984C58.4495 47.4155 58.4998 46.8394 58.664 46.2911L58.9286 45.407C58.3875 44.9781 57.7992 44.6125 57.1751 44.3171L56.4926 45.0395C56.0998 45.4557 55.6261 45.7872 55.1006 46.0137C54.5751 46.2403 54.0089 46.357 53.4366 46.3568C52.8644 46.3566 52.2982 46.2395 51.7728 46.0126C51.2475 45.7857 50.7741 45.4539 50.3816 45.0374L49.6739 44.2856C49.0614 44.5682 48.4824 44.9183 47.9477 45.3293L48.2774 46.499ZM53.3888 55.0208C52.8318 55.0208 52.2977 54.7996 51.9038 54.4057C51.51 54.0119 51.2888 53.4778 51.2888 52.9208C51.2888 52.3639 51.51 51.8297 51.9038 51.4359C52.2977 51.0421 52.8318 50.8208 53.3888 50.8208C53.9457 50.8208 54.4799 51.0421 54.8737 51.4359C55.2675 51.8297 55.4888 52.3639 55.4888 52.9208C55.4888 53.4778 55.2675 54.0119 54.8737 54.4057C54.4799 54.7996 53.9457 55.0208 53.3888 55.0208Z" fill="black"/>
</svg>
