<svg width="105" height="110" viewBox="0 0 105 110" fill="none" xmlns="http://www.w3.org/2000/svg">
<g clip-path="url(#clip0)">
<path d="M17.7175 55.0071C17.7865 55.1426 17.8554 55.278 18.0611 55.3439C18.13 55.4794 18.2667 55.4098 18.4723 55.4756C18.678 55.5415 18.8147 55.4719 18.9514 55.4024C19.088 55.3328 19.2247 55.2632 19.2925 55.0581C19.4292 54.9886 19.3602 54.8531 19.4279 54.6481C19.4957 54.443 19.3578 54.1721 19.2888 54.0367C19.2198 53.9012 19.1509 53.7658 19.0142 53.8353C18.8086 53.7695 18.6029 53.7036 18.4662 53.7732C18.3295 53.8428 18.1239 53.7769 18.0562 53.9819C17.9195 54.0515 17.7828 54.1211 17.8517 54.2565C17.784 54.4616 17.7163 54.6666 17.7852 54.8021C17.5796 54.7362 17.6485 54.8717 17.7175 55.0071Z" fill="black"/>
<path d="M15.4754 41.1392C15.2697 41.0733 15.2697 41.0733 15.0641 41.0074C14.8584 40.9415 14.5851 41.0807 14.3117 41.2199C14.1762 41.6299 14.1775 41.9704 14.042 42.3805C14.1109 42.5159 14.1799 42.6514 14.3855 42.7173L14.5912 42.7832C15.0025 42.9149 15.4125 42.7062 15.6169 42.4315C16.0947 42.0178 15.9556 41.4064 15.4754 41.1392Z" fill="black"/>
<path d="M20.9531 41.08C21.4334 41.3472 22.0491 41.2043 22.1845 40.7943C22.4567 40.3146 22.3176 39.7032 21.9063 39.5715C21.426 39.3043 20.8103 39.4471 20.6749 39.8572C20.3338 40.2014 20.4729 40.8128 20.9531 41.08Z" fill="black"/>
<path d="M16.2578 49.0985C16.738 49.3658 17.3537 49.2229 17.4892 48.8128C17.7614 48.3332 17.6222 47.7217 17.211 47.59C16.7307 47.3228 16.115 47.4657 15.9795 47.8757C15.7074 48.3554 15.7776 48.8313 16.2578 49.0985Z" fill="black"/>
<path d="M26.9008 38.9045C26.9697 39.04 27.0387 39.1754 27.2443 39.2413C27.3133 39.3767 27.45 39.3072 27.6556 39.373C27.998 39.3693 28.408 39.1606 28.6124 38.886C28.8169 38.6113 28.7467 38.1354 28.6088 37.8645C28.5398 37.729 28.4709 37.5936 28.3342 37.6632C28.1285 37.5973 27.9229 37.5314 27.7862 37.601C27.4439 37.6047 27.1705 37.7439 27.035 38.1539C26.7617 38.2931 26.7629 38.6336 26.9008 38.9045Z" fill="black"/>
<path d="M22.2074 46.923C22.2764 47.0585 22.3453 47.194 22.551 47.2598C22.6199 47.3953 22.7566 47.3257 22.9623 47.3916C23.3046 47.3879 23.7147 47.1791 23.9191 46.9045C24.1235 46.6299 24.0533 46.1539 23.9154 45.883C23.8465 45.7476 23.7775 45.6121 23.6408 45.6817C23.4352 45.6158 23.2295 45.55 23.0929 45.6195C22.7505 45.6232 22.4771 45.7624 22.3417 46.1725C22.2062 46.5826 22.0695 46.6521 22.2074 46.923Z" fill="black"/>
<path d="M23.7773 26.6796C24.2576 26.9468 24.8733 26.8039 25.0087 26.3939C25.2809 25.9142 25.1418 25.3028 24.7305 25.1711L24.5248 25.1052C24.1136 24.9734 23.7035 25.1822 23.3624 25.5264C23.2947 25.7314 23.2269 25.9365 23.3648 26.2074C23.2971 26.4124 23.5717 26.6137 23.7773 26.6796Z" fill="black"/>
<path d="M30.1387 24.9765C30.6189 25.2437 31.2346 25.1008 31.3701 24.6907C31.6422 24.2111 31.5031 23.5997 31.0918 23.4679C30.6116 23.2007 29.9959 23.3436 29.8604 23.7537C29.5193 24.0979 29.6584 24.7093 30.1387 24.9765Z" fill="black"/>
<path d="M25.4434 32.9955C25.9236 33.2627 26.5393 33.1198 26.6748 32.7098C26.9469 32.2301 26.8078 31.6187 26.3965 31.487C25.9163 31.2198 25.3006 31.3627 25.1651 31.7727C24.893 32.2524 24.9631 32.7283 25.4434 32.9955Z" fill="black"/>
<path d="M36.0867 22.8011C36.1556 22.9365 36.2246 23.072 36.4302 23.1378C36.4992 23.2733 36.6358 23.2037 36.8415 23.2696C37.0471 23.3355 37.1838 23.2659 37.3205 23.1963C37.4572 23.1267 37.5939 23.0571 37.6616 22.8521C37.7983 22.7825 37.7293 22.6471 37.7971 22.442C37.8648 22.237 37.7269 21.9661 37.6579 21.8306C37.589 21.6952 37.52 21.5597 37.3834 21.6293C37.1777 21.5634 36.9721 21.4976 36.8354 21.5671C36.6987 21.6367 36.4931 21.5708 36.4253 21.7759C36.2886 21.8455 36.1519 21.915 36.2209 22.0505C36.1532 22.2555 36.0854 22.4606 36.1544 22.596C35.9487 22.5301 36.0177 22.6656 36.0867 22.8011Z" fill="black"/>
<path d="M31.391 30.8195C31.46 30.955 31.5289 31.0905 31.7346 31.1563C31.8035 31.2918 31.9402 31.2222 32.1459 31.2881C32.4882 31.2844 32.8983 31.0756 33.1027 30.801C33.3071 30.5264 33.2369 30.0504 33.099 29.7795C33.0301 29.6441 32.9611 29.5086 32.8244 29.5782C32.6188 29.5123 32.4131 29.4465 32.2765 29.516C31.9341 29.5198 31.6607 29.6589 31.5253 30.069C31.2519 30.2081 31.2531 30.5486 31.391 30.8195Z" fill="black"/>
<path d="M20.0352 33.1896C19.5549 32.9224 18.9392 33.0653 18.8038 33.4754C18.5316 33.955 18.6708 34.5664 19.082 34.6982C19.5623 34.9654 20.178 34.8225 20.3134 34.4124C20.5856 33.9328 20.5154 33.4568 20.0352 33.1896Z" fill="black"/>
<path d="M26.0874 59.9564C26.362 60.1577 26.7043 60.154 26.9777 60.0148C27.1144 59.9453 27.2511 59.8757 27.3188 59.6706C27.4555 59.6011 27.3866 59.4656 27.4543 59.2606C27.4531 58.9201 27.2462 58.5137 26.9716 58.3124C26.697 58.1111 26.218 58.1844 25.9446 58.3235C25.8079 58.3931 25.6713 58.4627 25.7402 58.5981C25.6725 58.8032 25.6047 59.0082 25.6737 59.1437C25.6749 59.4841 25.8128 59.7551 26.0874 59.9564Z" fill="black"/>
<path d="M22.4134 66.2608C22.2078 66.195 22.0021 66.1291 21.8654 66.1987C21.6598 66.1328 21.3864 66.272 21.3187 66.477C21.7312 66.9493 22.007 67.4911 22.4195 67.9633L22.5562 67.8937C22.6929 67.8242 22.6929 67.8242 22.7606 67.6191C22.7606 67.6191 22.8973 67.5495 22.8283 67.4141C22.9638 67.004 22.8936 66.5281 22.4134 66.2608Z" fill="black"/>
<path d="M27.8906 66.2016C28.3709 66.4688 28.9866 66.3259 29.122 65.9158C29.3942 65.4362 29.2551 64.8248 28.8438 64.693C28.3635 64.4258 27.7478 64.5687 27.6124 64.9788C27.2712 65.323 27.4104 65.9344 27.8906 66.2016Z" fill="black"/>
<path d="M19.7266 61.6596C20.2068 61.9268 20.8225 61.7839 20.958 61.3738C21.2301 60.8942 21.091 60.2828 20.6797 60.151C20.1995 59.8838 19.5838 60.0267 19.4483 60.4368C19.1761 60.9164 19.2463 61.3924 19.7266 61.6596Z" fill="black"/>
<path d="M33.8396 64.0263C33.9085 64.1618 33.9775 64.2972 34.1831 64.3631C34.4577 64.5644 34.8 64.5607 35.0734 64.4216C35.2101 64.352 35.3468 64.2824 35.4145 64.0774C35.5512 64.0078 35.4823 63.8723 35.55 63.6673C35.5488 63.3268 35.3419 62.9205 35.0673 62.7191C34.8617 62.6533 34.656 62.5874 34.5194 62.657C34.3827 62.7265 34.177 62.6607 34.1093 62.8657C33.9726 62.9353 33.8359 63.0049 33.9049 63.1403C33.8371 63.3454 33.7694 63.5504 33.8384 63.6859C33.7017 63.7554 33.7706 63.8909 33.8396 64.0263Z" fill="black"/>
<path d="M29.1428 72.045C29.2117 72.1804 29.2807 72.3159 29.4863 72.3818C29.9666 72.649 30.5823 72.5061 30.7177 72.096C30.9899 71.6164 30.8508 71.0049 30.4395 70.8732C30.2338 70.8073 30.0282 70.7415 29.8915 70.811C29.5492 70.8147 29.2758 70.9539 29.1403 71.364C29.0036 71.4336 29.0049 71.7741 29.1428 72.045Z" fill="black"/>
<path d="M35.2734 43.8529C35.7537 44.1201 36.3694 43.9773 36.5048 43.5672C36.777 43.0875 36.6379 42.4761 36.2266 42.3444C35.7463 42.0772 35.1306 42.2201 34.9952 42.6301C34.6541 42.9743 34.7932 43.5857 35.2734 43.8529Z" fill="black"/>
<path d="M30.7148 51.8022C31.1951 52.0694 31.8108 51.9265 31.9462 51.5164C32.2184 51.0368 32.0793 50.4254 31.668 50.2936C31.1878 50.0264 30.5721 50.1693 30.4366 50.5794C30.1644 51.059 30.2346 51.535 30.7148 51.8022Z" fill="black"/>
<path d="M37.0762 50.099C37.5564 50.3662 38.1721 50.2234 38.3076 49.8133C38.5797 49.3336 38.4406 48.7222 38.0293 48.5905C37.5491 48.3233 36.9334 48.4662 36.7979 48.8762C36.4568 49.2204 36.5959 49.8318 37.0762 50.099Z" fill="black"/>
<path d="M28.9121 45.5561C29.3923 45.8233 30.008 45.6804 30.1435 45.2703C30.4157 44.7907 30.2765 44.1793 29.8653 44.0475C29.385 43.7803 28.7693 43.9232 28.6338 44.3333C28.3617 44.8129 28.4319 45.2889 28.9121 45.5561Z" fill="black"/>
<path d="M32.3809 58.1171C32.8611 58.3843 33.4768 58.2414 33.6123 57.8314C33.8844 57.3517 33.7453 56.7403 33.334 56.6086C32.8538 56.3414 32.2381 56.4842 32.1026 56.8943C31.8305 57.374 31.9006 57.8499 32.3809 58.1171Z" fill="black"/>
<path d="M24.4219 53.6405C24.9021 53.9077 25.5178 53.7649 25.6533 53.3548C25.9254 52.8751 25.7863 52.2638 25.375 52.132C24.8948 51.8648 24.2791 52.0077 24.1436 52.4178C23.8025 52.762 23.9416 53.3734 24.4219 53.6405Z" fill="black"/>
<path d="M43.0256 47.9229C43.0945 48.0584 43.1635 48.1938 43.3691 48.2597C43.8494 48.5269 44.4651 48.384 44.6005 47.9739C44.8727 47.4943 44.7336 46.8829 44.3223 46.7511C44.1167 46.6853 43.911 46.6194 43.7743 46.689C43.432 46.6927 43.1586 46.8319 43.0232 47.2419C42.8865 47.3115 42.8877 47.652 43.0256 47.9229Z" fill="black"/>
<path d="M38.3303 55.9415C38.3992 56.0769 38.4682 56.2124 38.6738 56.2782C39.1541 56.5454 39.7698 56.4026 39.9052 55.9925C40.1774 55.5128 40.0383 54.9014 39.627 54.7697C39.4213 54.7038 39.2157 54.6379 39.079 54.7075C38.7367 54.7112 38.4633 54.8504 38.3278 55.2605C38.1911 55.3301 38.1924 55.6705 38.3303 55.9415Z" fill="black"/>
<path d="M44.3901 27.6141C44.6647 27.8154 45.0071 27.8117 45.2804 27.6726C45.4171 27.603 45.5538 27.5334 45.6216 27.3284C45.7582 27.2588 45.6893 27.1233 45.757 26.9183C45.7558 26.5778 45.5489 26.1714 45.2744 25.9701C44.9998 25.7688 44.5207 25.8421 44.2474 25.9812C44.1107 26.0508 43.974 26.1204 44.0429 26.2558C43.9752 26.4609 43.9075 26.6659 43.9764 26.8014C44.0466 27.2773 44.1845 27.5482 44.3901 27.6141Z" fill="black"/>
<path d="M39.9001 35.699C40.3803 35.9662 40.996 35.8234 41.1315 35.4133C41.267 35.0032 41.2645 34.3222 40.8532 34.1905C40.373 33.9233 39.7573 34.0661 39.6218 34.4762C39.2807 34.8204 39.4198 35.4318 39.9001 35.699Z" fill="black"/>
<path d="M46.1933 33.8598C46.6736 34.127 47.2893 33.9841 47.4248 33.574C47.6969 33.0944 47.5578 32.483 47.1465 32.3512C46.6663 32.084 46.0506 32.2269 45.9151 32.637C45.6429 33.1166 45.7821 33.728 46.1933 33.8598Z" fill="black"/>
<path d="M38.0977 29.453C38.5779 29.7202 39.1936 29.5774 39.3291 29.1673C39.6012 28.6877 39.4621 28.0762 39.0508 27.9445C38.5706 27.6773 37.9549 27.8202 37.8194 28.2303C37.4783 28.5744 37.6174 29.1858 38.0977 29.453Z" fill="black"/>
<path d="M41.5645 42.0146C42.0447 42.2818 42.6604 42.1389 42.7959 41.7288C43.068 41.2492 42.9289 40.6378 42.5176 40.506C42.0374 40.2388 41.4217 40.3817 41.2862 40.7918C40.9451 41.136 41.0842 41.7474 41.5645 42.0146Z" fill="black"/>
<path d="M33.6074 37.5375C34.0876 37.8047 34.7034 37.6618 34.8388 37.2518C35.111 36.7721 34.9719 36.1607 34.5606 36.029C34.0803 35.7618 33.4646 35.9046 33.3292 36.3147C32.988 36.6589 33.1272 37.2703 33.6074 37.5375Z" fill="black"/>
<path d="M52.1423 31.6845C52.2113 31.82 52.2802 31.9554 52.4859 32.0213C52.7605 32.2227 53.1028 32.2189 53.3762 32.0798C53.5128 32.0102 53.6495 31.9406 53.7173 31.7356C53.854 31.666 53.785 31.5305 53.8527 31.3255C53.8515 30.985 53.6446 30.5787 53.3701 30.3773C53.1644 30.3115 52.9588 30.2456 52.8221 30.3152C52.6854 30.3847 52.4798 30.3189 52.412 30.5239C52.2753 30.5935 52.1387 30.6631 52.2076 30.7985C52.1399 31.0036 52.0721 31.2086 52.1411 31.344C52.0734 31.5491 52.1423 31.6845 52.1423 31.6845Z" fill="black"/>
<path d="M47.5139 39.8384C47.5828 39.9739 47.6518 40.1093 47.8574 40.1752C48.3377 40.4424 48.9534 40.2995 49.0888 39.8895C49.361 39.4098 49.2218 38.7984 48.8106 38.6667C48.6049 38.6008 48.3993 38.5349 48.2626 38.6045C47.9203 38.6082 47.6469 38.7474 47.5114 39.1574C47.3747 39.227 47.376 39.5675 47.5139 39.8384Z" fill="black"/>
<path d="M49.0852 19.5955C49.4287 19.9323 49.9755 19.6539 50.3166 19.3097C50.5888 18.8301 50.4496 18.2187 50.0383 18.0869C49.5581 17.8197 48.9424 17.9626 48.8069 18.3727C48.4658 18.7169 48.605 19.3283 49.0852 19.5955Z" fill="black"/>
<path d="M55.377 17.7569C55.5827 17.8228 55.6516 17.9582 55.7883 17.8887C56.1306 17.8849 56.404 17.7458 56.6084 17.4712C55.9915 17.2735 55.4435 17.2114 54.8266 17.0138C54.8278 17.3542 55.0347 17.7606 55.377 17.7569Z" fill="black"/>
<path d="M50.752 25.911C51.2322 26.1783 51.8479 26.0354 51.9834 25.6253C52.2555 25.1457 52.1164 24.5342 51.7051 24.4025C51.2249 24.1353 50.6092 24.2782 50.4737 24.6882C50.1326 25.0324 50.2717 25.6438 50.752 25.911Z" fill="black"/>
<path d="M42.7227 21.2992C43.2029 21.5664 43.8186 21.4236 43.9541 21.0135C44.2262 20.5338 44.0871 19.9224 43.6758 19.7907C43.1956 19.5235 42.5799 19.6664 42.4444 20.0764C42.1722 20.5561 42.3114 21.1675 42.7227 21.2992Z" fill="black"/>
<path d="M56.7014 23.7352C56.7704 23.8706 56.8393 24.0061 57.045 24.0719C57.5252 24.3391 58.1409 24.1963 58.413 23.7166C58.6852 23.237 58.5461 22.6256 58.1348 22.4938C57.9291 22.4279 57.7235 22.3621 57.5868 22.4316C57.2445 22.4354 56.9711 22.5745 56.8356 22.9846C56.5623 23.1237 56.5635 23.4642 56.7014 23.7352Z" fill="black"/>
<path d="M31.5888 104.911C31.521 105.116 31.6589 105.387 31.9335 105.588C31.9335 105.588 32.0025 105.724 32.1392 105.654L32.3448 105.72C32.3448 105.72 32.4815 105.65 32.5505 105.786C32.7561 105.852 32.8928 105.782 33.0295 105.712C33.1662 105.643 33.3029 105.573 33.3706 105.368C33.5073 105.299 33.4383 105.163 33.5061 104.958C33.5738 104.753 33.4359 104.482 33.3669 104.347C33.298 104.211 33.229 104.076 33.0923 104.145C33.0923 104.145 33.0234 104.01 32.8867 104.08C32.6811 104.014 32.3387 104.017 32.0653 104.157C31.9287 104.226 31.792 104.296 31.8609 104.431C31.8609 104.431 31.8609 104.431 31.7242 104.501C31.5876 104.57 31.5198 104.775 31.5888 104.911Z" fill="black"/>
<path d="M33.1621 85.0087C33.6423 85.2759 34.258 85.133 34.3935 84.723C34.6657 84.2433 34.5265 83.6319 34.1153 83.5002C33.635 83.233 33.0193 83.3758 32.8838 83.7859C32.406 84.1997 32.6819 84.7415 33.1621 85.0087Z" fill="black"/>
<path d="M34.8262 91.3241C35.3064 91.5913 35.9221 91.4485 36.0576 91.0384C36.3297 90.5587 36.1906 89.9473 35.7793 89.8156C35.2991 89.5484 34.6834 89.6913 34.5479 90.1013C34.2068 90.4455 34.3459 91.0569 34.8262 91.3241Z" fill="black"/>
<path d="M30.2676 99.2734C30.7478 99.5406 31.3635 99.3977 31.499 98.9876C31.7711 98.508 31.632 97.8966 31.2207 97.7648C30.9461 97.5635 30.4671 97.6368 30.1937 97.7759C30.057 97.8455 29.9204 97.9151 29.9893 98.0506C29.7172 98.5302 29.7873 99.0062 30.2676 99.2734Z" fill="black"/>
<path d="M41.0504 89.3497C41.0504 89.3497 41.1194 89.4852 41.2561 89.4156C41.325 89.5511 41.4617 89.4815 41.6674 89.5473C42.0097 89.5436 42.4197 89.3349 42.6242 89.0603C42.8286 88.7857 42.7584 88.3097 42.6205 88.0388C42.5515 87.9034 42.4826 87.7679 42.3459 87.8375C42.3459 87.8375 42.277 87.702 42.1403 87.7716C41.729 87.6399 41.3189 87.8486 40.9778 88.1928C40.5 88.6066 40.5702 89.0825 41.0504 89.3497Z" fill="black"/>
<path d="M36.4235 97.504C36.4235 97.504 36.4924 97.6395 36.6291 97.5699C36.6981 97.7054 36.8347 97.6358 37.0404 97.7016C37.3827 97.6979 37.7928 97.4892 37.9972 97.2146C38.2016 96.94 38.1315 96.464 37.9935 96.1931C37.9246 96.0577 37.8556 95.9222 37.7189 95.9918C37.7189 95.9918 37.65 95.8563 37.5133 95.9259C37.102 95.7942 36.692 96.0029 36.3509 96.3471C36.0097 96.6913 36.0799 97.1673 36.4235 97.504Z" fill="black"/>
<path d="M42.2105 68.9754C42.4851 69.1768 42.8274 69.173 43.1008 69.0339C43.2375 68.9643 43.3741 68.8947 43.4419 68.6897C43.5786 68.6201 43.5096 68.4846 43.5773 68.2796C43.5761 67.9391 43.3693 67.5328 43.0947 67.3314C42.8201 67.1301 42.3411 67.2034 42.0677 67.3425C41.931 67.4121 41.7943 67.4817 41.8633 67.6172C41.7955 67.8222 41.7278 68.0272 41.7967 68.1627C41.798 68.5032 41.9359 68.7741 42.2105 68.9754Z" fill="black"/>
<path d="M37.6523 76.9242C38.1326 77.1914 38.7483 77.0486 38.8837 76.6385C39.1559 76.1588 39.0168 75.5474 38.6055 75.4157C38.1253 75.1485 37.5096 75.2914 37.3741 75.7014C37.1019 76.1811 37.1721 76.657 37.6523 76.9242Z" fill="black"/>
<path d="M44.0137 75.2206C44.4939 75.4878 45.1096 75.3449 45.2451 74.9349C45.5172 74.4552 45.3781 73.8438 44.9668 73.7121C44.4866 73.4449 43.8709 73.5877 43.7354 73.9978C43.3943 74.342 43.5334 74.9534 44.0137 75.2206Z" fill="black"/>
<path d="M35.8496 70.6781C36.3298 70.9453 36.9455 70.8025 37.081 70.3924C37.3532 69.9127 37.214 69.3013 36.8028 69.1696C36.3225 68.9024 35.7068 69.0453 35.5713 69.4553C35.2992 69.935 35.5061 70.3414 35.8496 70.6781Z" fill="black"/>
<path d="M39.4551 83.1698C39.9353 83.437 40.551 83.2942 40.6865 82.8841C40.9586 82.4044 40.8195 81.793 40.4082 81.6613C39.928 81.3941 39.3123 81.537 39.1768 81.947C38.768 82.4963 38.9748 82.9026 39.4551 83.1698Z" fill="black"/>
<path d="M31.3594 78.7631C31.8396 79.0303 32.4553 78.8874 32.5908 78.4774C32.8629 77.9977 32.7238 77.3863 32.3125 77.2546C31.8323 76.9874 31.2166 77.1302 31.0811 77.5403C30.74 77.8845 30.8791 78.4959 31.3594 78.7631Z" fill="black"/>
<path d="M50.0996 73.3166C50.0996 73.3166 50.1685 73.452 50.3052 73.3825C50.3742 73.5179 50.5109 73.4483 50.7165 73.5142C50.9221 73.5801 51.0588 73.5105 51.1955 73.4409C51.3322 73.3713 51.4689 73.3018 51.5366 73.0967C51.6733 73.0271 51.6043 72.8917 51.6721 72.6867C51.7398 72.4816 51.6019 72.2107 51.5329 72.0753C51.464 71.9398 51.395 71.8043 51.2584 71.8739C51.2584 71.8739 51.1894 71.7385 51.0527 71.808C50.8471 71.7422 50.5047 71.7459 50.2314 71.885C50.0947 71.9546 49.958 72.0242 50.027 72.1597C49.9592 72.3647 49.8915 72.5697 49.9604 72.7052C49.8927 72.9102 49.9617 73.0457 50.0996 73.3166Z" fill="black"/>
<path d="M45.611 81.4005C45.611 81.4005 45.6799 81.536 45.8166 81.4664C45.8856 81.6018 46.0223 81.5323 46.2279 81.5981C46.5702 81.5944 46.9803 81.3857 47.1847 81.1111C47.3891 80.8364 47.319 80.3605 47.181 80.0896C47.1121 79.9541 47.0431 79.8187 46.9064 79.8883C46.9064 79.8883 46.8375 79.7528 46.7008 79.8224C46.2895 79.6906 45.8795 79.8994 45.5384 80.2436C45.1972 80.5878 45.2674 81.0637 45.611 81.4005Z" fill="black"/>
<path d="M51.3262 52.7367C51.8064 53.0039 52.4221 52.8611 52.5576 52.451C52.8297 51.9713 52.6906 51.3599 52.2793 51.2282C51.7991 50.961 51.1834 51.1039 51.0479 51.5139C50.7758 51.9936 51.0516 52.5354 51.3262 52.7367Z" fill="black"/>
<path d="M46.8359 60.8212C47.3162 61.0884 47.9319 60.9455 48.0673 60.5355C48.3395 60.0558 48.2004 59.4444 47.7891 59.3127C47.3088 59.0455 46.6931 59.1883 46.5577 59.5984C46.2166 59.9426 46.3557 60.554 46.8359 60.8212Z" fill="black"/>
<path d="M53.1289 58.9823C53.6091 59.2495 54.2248 59.1067 54.3603 58.6966C54.6325 58.2169 54.4933 57.6055 54.0821 57.4738C53.6018 57.2066 52.9861 57.3495 52.8506 57.7595C52.5785 58.2392 52.7176 58.8506 53.1289 58.9823Z" fill="black"/>
<path d="M45.033 54.5756C45.5132 54.8428 46.1289 54.6999 46.2644 54.2898C46.6732 53.7406 46.3974 53.1988 45.9172 52.9316C45.4369 52.6644 44.8212 52.8072 44.6857 53.2173C44.4136 53.697 44.6894 54.2388 45.033 54.5756Z" fill="black"/>
<path d="M48.502 67.1361C48.9822 67.4033 49.5979 67.2605 49.7334 66.8504C50.0055 66.3708 49.8664 65.7594 49.4551 65.6276C48.9749 65.3604 48.3592 65.5033 48.2237 65.9133C47.8826 66.2575 48.1584 66.7994 48.502 67.1361Z" fill="black"/>
<path d="M40.543 62.6601C41.0232 62.9273 41.6389 62.7844 41.7744 62.3743C42.0465 61.8947 41.9074 61.2833 41.4961 61.1515C41.0159 60.8843 40.4002 61.0272 40.2647 61.4373C39.9236 61.7815 40.0627 62.3929 40.543 62.6601Z" fill="black"/>
<path d="M59.2848 57.213C59.2848 57.213 59.3538 57.3485 59.4904 57.2789C59.5594 57.4143 59.6961 57.3448 59.9017 57.4106C60.2441 57.4069 60.6541 57.1982 60.8585 56.9236C61.063 56.6489 60.9928 56.173 60.8549 55.9021C60.7859 55.7666 60.717 55.6312 60.5803 55.7008C60.5803 55.7008 60.5113 55.5653 60.3746 55.6349C59.9634 55.5031 59.5533 55.7119 59.2122 56.0561C58.8711 56.4003 58.9412 56.8762 59.2848 57.213Z" fill="black"/>
<path d="M54.7262 65.1617C54.7262 65.1617 54.7952 65.2972 54.9319 65.2276C55.0008 65.3631 55.1375 65.2935 55.3431 65.3594C55.6855 65.3556 56.0955 65.1469 56.2999 64.8723C56.5044 64.5977 56.4342 64.1217 56.2963 63.8508C56.2273 63.7154 56.1584 63.5799 56.0217 63.6495C56.0217 63.6495 55.9527 63.514 55.816 63.5836C55.4048 63.4519 54.9947 63.6606 54.6536 64.0048C54.3814 64.4845 54.4516 64.9604 54.7262 65.1617Z" fill="black"/>
<path d="M60.5112 36.6331C60.7858 36.8345 61.1282 36.8308 61.4015 36.6916C61.5382 36.622 61.6749 36.5524 61.7427 36.3474C61.8793 36.2778 61.8104 36.1424 61.8781 35.9373C61.8769 35.5968 61.67 35.1905 61.3954 34.9891C61.1209 34.7878 60.6418 34.8611 60.3685 35.0003C60.2318 35.0699 60.0951 35.1394 60.164 35.2749C60.0963 35.4799 60.0286 35.685 60.0975 35.8204C60.0987 36.1609 60.3056 36.5673 60.5112 36.6331Z" fill="black"/>
<path d="M56.0234 44.7177C56.5037 44.9849 57.1194 44.842 57.2548 44.4319C57.527 43.9523 57.3879 43.3409 56.9766 43.2091C56.4963 42.9419 55.8806 43.0848 55.7452 43.4949C55.4041 43.8391 55.5432 44.4505 56.0234 44.7177Z" fill="black"/>
<path d="M62.3144 42.8793C62.7947 43.1465 63.4104 43.0036 63.5459 42.5936C63.818 42.1139 63.6789 41.5025 63.2676 41.3708C62.7874 41.1036 62.1717 41.2464 62.0362 41.6565C61.764 42.1362 61.9032 42.7476 62.3144 42.8793Z" fill="black"/>
<path d="M54.2187 38.4721C54.699 38.7393 55.3147 38.5964 55.4502 38.1863C55.7223 37.7067 55.5832 37.0953 55.1719 36.9635C54.6917 36.6963 54.076 36.8392 53.9405 37.2493C53.5994 37.5935 53.7385 38.2049 54.2187 38.4721Z" fill="black"/>
<path d="M57.6875 51.0331C58.1677 51.3003 58.7834 51.1574 58.9189 50.7474C59.1911 50.2677 59.0519 49.6563 58.6406 49.5246C58.1604 49.2574 57.5447 49.4003 57.4092 49.8103C57.0681 50.1545 57.344 50.6963 57.6875 51.0331Z" fill="black"/>
<path d="M49.6602 46.4213C50.1404 46.6885 50.7561 46.5456 50.8916 46.1356C51.1637 45.6559 51.0246 45.0445 50.6133 44.9128C50.1331 44.6456 49.5174 44.7884 49.3819 45.1985C49.1097 45.6782 49.2489 46.2896 49.6602 46.4213Z" fill="black"/>
<path d="M68.4707 41.11C68.4707 41.11 68.5396 41.2455 68.6763 41.1759C68.7453 41.3114 68.8819 41.2418 69.0876 41.3077C69.2932 41.3735 69.4299 41.304 69.5666 41.2344C69.7033 41.1648 69.84 41.0952 69.9077 40.8902C70.0444 40.8206 69.9754 40.6851 70.0432 40.4801C70.1109 40.2751 69.973 40.0042 69.904 39.8687C69.8351 39.7332 69.7661 39.5978 69.6294 39.6674C69.6294 39.6674 69.5605 39.5319 69.4238 39.6015C69.2182 39.5356 68.8758 39.5393 68.6025 39.6785C68.4658 39.7481 68.3291 39.8177 68.398 39.9531C68.3303 40.1582 68.2626 40.3632 68.3315 40.4986C68.2638 40.7037 68.3327 40.8391 68.4707 41.11Z" fill="black"/>
<path d="M63.9117 49.0592C63.9117 49.0592 63.9807 49.1947 64.1174 49.1251C64.1863 49.2605 64.323 49.1909 64.5287 49.2568C64.871 49.2531 65.2811 49.0444 65.4855 48.7698C65.6899 48.4951 65.6197 48.0192 65.4818 47.7483C65.4129 47.6128 65.3439 47.4774 65.2072 47.5469C65.2072 47.5469 65.1383 47.4115 65.0016 47.4811C64.5903 47.3493 64.1802 47.5581 63.8391 47.9023C63.567 48.3819 63.6372 48.8579 63.9117 49.0592Z" fill="black"/>
<path d="M65.207 28.6147C65.6873 28.8819 66.303 28.739 66.4384 28.3289C66.7106 27.8493 66.5715 27.2379 66.1602 27.1061C65.6799 26.8389 65.0642 26.9818 64.9288 27.3919C64.5877 27.7361 64.7268 28.3475 65.207 28.6147Z" fill="black"/>
<path d="M71.5004 26.776C71.5693 26.9115 71.706 26.8419 71.9117 26.9078C72.1173 26.9736 72.3907 26.8345 72.6641 26.6953C72.2516 26.2231 71.8391 25.7508 71.4266 25.2786C71.4266 25.2786 71.2899 25.3482 71.3588 25.4836C71.2911 25.6887 71.2234 25.8937 71.2923 26.0292C70.9512 26.3734 71.2258 26.5747 71.5004 26.776Z" fill="black"/>
<path d="M63.404 22.369C63.8843 22.6362 64.5 22.4933 64.6354 22.0832C64.8399 21.8086 64.7709 21.6732 64.8386 21.4681C64.8374 21.1276 64.6995 20.8567 64.2882 20.725C64.0136 20.5236 63.6713 20.5273 63.2612 20.7361C63.1246 20.8057 62.9879 20.8753 62.9201 21.0803C62.7847 21.4904 62.9238 22.1018 63.404 22.369Z" fill="black"/>
<path d="M66.873 34.9301C67.3533 35.1973 67.969 35.0544 68.1044 34.6444C68.3766 34.1647 68.2375 33.5533 67.8262 33.4215C67.4137 32.9493 66.8669 33.2276 66.5258 33.5718C66.2537 34.0515 66.3928 34.6629 66.873 34.9301Z" fill="black"/>
<path d="M58.8457 30.3183C59.3259 30.5855 59.9416 30.4426 60.0771 30.0325C60.3493 29.5529 60.2101 28.9415 59.7989 28.8097C59.3186 28.5425 58.7029 28.6854 58.5674 29.0955C58.2953 29.5751 58.4344 30.1865 58.8457 30.3183Z" fill="black"/>
<path d="M73.0973 32.9557C73.0973 32.9557 73.1663 33.0911 73.3029 33.0216C73.3719 33.157 73.5086 33.0874 73.7142 33.1533C74.0566 33.1496 74.4666 32.9409 74.671 32.6662C74.8755 32.3916 74.8053 31.9157 74.6674 31.6448C74.5984 31.5093 74.5295 31.3739 74.3928 31.4434C74.3928 31.4434 74.3238 31.308 74.1871 31.3776C73.7759 31.2458 73.3658 31.4546 73.0247 31.7988C72.6836 32.143 72.8227 32.7544 73.0973 32.9557Z" fill="black"/>
<path d="M40.0972 110.131C40.3718 110.333 40.7141 110.329 40.9875 110.19C41.1242 110.12 41.2609 110.05 41.3286 109.845C41.4653 109.776 41.3963 109.64 41.4641 109.435C41.4628 109.095 41.256 108.689 40.9814 108.487C40.7068 108.286 40.2278 108.359 39.9544 108.498C39.8177 108.568 39.681 108.637 39.75 108.773C39.6822 108.978 39.6145 109.183 39.6835 109.318C39.548 109.729 39.8226 109.93 40.0972 110.131Z" fill="black"/>
<path d="M49.0081 93.8266C49.0771 93.962 49.0771 93.962 49.2137 93.8924C49.4194 93.9583 49.4883 94.0938 49.625 94.0242L49.7617 93.9546C49.5549 93.5482 49.4169 93.2773 49.2101 92.871C49.1411 92.7355 49.0032 92.4646 48.9343 92.3291C48.7976 92.3987 48.7976 92.3987 48.7298 92.6038C48.6621 92.8088 48.5944 93.0138 48.6633 93.1493C48.8012 93.4202 48.8025 93.7607 49.0081 93.8266Z" fill="black"/>
<path d="M44.5879 102.046C45.0681 102.314 45.6838 102.171 45.8193 101.761C46.0914 101.281 45.9523 100.67 45.541 100.538C45.0608 100.271 44.4451 100.413 44.3096 100.823C44.0375 101.303 44.1077 101.779 44.5879 102.046Z" fill="black"/>
<path d="M50.9501 100.343C51.2247 100.544 51.7037 100.471 51.977 100.332L52.1137 100.262C52.1137 100.262 52.2504 100.193 52.1815 100.057C52.4536 99.5774 52.3145 98.966 51.9032 98.8343C51.8343 98.6988 51.6976 98.7684 51.4919 98.7025L51.3552 98.7721C51.0129 98.7758 50.7395 98.915 50.6041 99.325C50.3307 99.4642 50.4698 100.076 50.9501 100.343Z" fill="black"/>
<path d="M42.9219 95.7309C43.4021 95.9981 44.0178 95.8552 44.1533 95.4451C44.4254 94.9655 44.2863 94.3541 43.875 94.2223C43.3948 93.9551 42.7791 94.098 42.6436 94.5081C42.3715 94.9877 42.4416 95.4637 42.9219 95.7309Z" fill="black"/>
<path d="M46.3906 108.292C46.8709 108.56 47.4866 108.417 47.622 108.007C47.8942 107.527 47.7551 106.916 47.3438 106.784C46.8635 106.517 46.2478 106.66 46.1124 107.07C45.8402 107.549 45.9104 108.025 46.3906 108.292Z" fill="black"/>
<path d="M38.2949 103.886C38.7751 104.153 39.3909 104.01 39.5263 103.6C39.7985 103.12 39.6594 102.509 39.2481 102.377C38.7678 102.11 38.1521 102.253 38.0167 102.663C37.6755 103.007 37.8147 103.618 38.2949 103.886Z" fill="black"/>
<path d="M52.3405 106.116C52.4095 106.252 52.4784 106.387 52.684 106.453C52.753 106.589 52.9586 106.655 53.1643 106.72L53.301 106.651C53.4364 106.241 53.503 105.695 53.4328 105.219C53.3638 105.084 53.5005 105.014 53.4316 104.879C53.4316 104.879 53.2259 104.813 53.0892 104.883C52.9525 104.952 52.9525 104.952 52.8159 105.022C52.6792 105.091 52.4058 105.23 52.3381 105.436C52.2014 105.505 52.2026 105.846 52.3405 106.116Z" fill="black"/>
<path d="M47.1366 87.4457C47.2055 87.5812 47.2055 87.5812 47.4112 87.6471C47.6168 87.7129 47.6168 87.7129 47.8225 87.7788C47.7523 87.3029 47.8188 86.7573 47.8164 86.0764C47.8164 86.0764 47.7474 85.9409 47.8841 85.8713C47.5418 85.875 47.4051 85.9446 47.2007 86.2192C47.2007 86.2192 47.2007 86.2192 47.064 86.2888C46.9975 86.8343 46.9987 87.1748 47.1366 87.4457Z" fill="black"/>
<path d="M67.4492 61.7558C67.9294 62.023 68.5452 61.8801 68.6806 61.47C68.9528 60.9904 68.8136 60.379 68.4024 60.2472C67.9221 59.98 67.3064 60.1229 67.171 60.533C66.8988 61.0126 67.1746 61.5544 67.4492 61.7558Z" fill="black"/>
<path d="M61.1562 63.5942C61.6365 63.8614 62.2522 63.7185 62.3877 63.3084C62.6598 62.8288 62.5207 62.2174 62.1094 62.0856C61.6292 61.8184 61.0135 61.9613 60.878 62.3714C60.5369 62.7155 60.8127 63.2574 61.1562 63.5942Z" fill="black"/>
<path d="M56.5978 71.5434C56.6668 71.6788 56.8035 71.6092 56.8035 71.6092C57.2148 71.741 57.6938 71.6677 57.9659 71.188C58.0337 70.983 58.0337 70.983 58.1014 70.778C58.0325 70.6425 58.1691 70.5729 58.1002 70.4375C57.9623 70.1666 57.8933 70.0311 57.6187 69.8298C57.1385 69.5626 56.5228 69.7054 56.3873 70.1155C56.0474 70.8002 56.1176 71.2762 56.5978 71.5434Z" fill="black"/>
<path d="M76.6333 45.6526C76.9079 45.8539 77.2503 45.8502 77.5236 45.7111C77.6603 45.6415 77.797 45.5719 77.8647 45.3669C78.0014 45.2973 77.9325 45.1618 78.0002 44.9568C78.1357 44.5467 77.9978 44.2758 77.5865 44.1441C77.3119 43.9427 76.8329 44.016 76.5595 44.1552C76.4228 44.2248 76.2861 44.2943 76.3551 44.4298C76.2873 44.6348 76.2196 44.8399 76.2886 44.9753C76.2208 45.1804 76.4277 45.5867 76.6333 45.6526Z" fill="black"/>
<path d="M72.1445 53.7372C72.6248 54.0044 73.2405 53.8616 73.3759 53.4515C73.6481 52.9718 73.509 52.3604 73.0977 52.2287C72.6174 51.9615 72.0017 52.1043 71.8663 52.5144C71.5252 52.8586 71.6643 53.47 72.1445 53.7372Z" fill="black"/>
<path d="M78.1584 50.6757C77.954 50.9503 78.0229 51.0857 77.9552 51.2908C78.0229 51.0857 78.0906 50.8807 78.1584 50.6757Z" fill="black"/>
<path d="M70.3418 47.4906C70.822 47.7578 71.4377 47.615 71.5732 47.2049C71.8454 46.7252 71.7062 46.1138 71.2949 45.9821C70.8147 45.7149 70.199 45.8578 70.0635 46.2678C69.7224 46.612 69.9982 47.1539 70.3418 47.4906Z" fill="black"/>
<path d="M73.7425 59.9163C74.0147 59.4366 74.3558 59.0924 74.7646 58.5432C74.7646 58.5432 74.9013 58.4736 74.8324 58.3382C74.6267 58.2723 74.4211 58.2064 74.0788 58.2101C73.8054 58.3493 73.6687 58.4189 73.601 58.6239C73.3965 58.8985 73.3288 59.1035 73.3978 59.239C73.33 59.444 73.4679 59.7149 73.7425 59.9163Z" fill="black"/>
<path d="M65.7832 55.4399C66.2634 55.7071 66.8791 55.5642 67.0146 55.1541C67.2868 54.6745 67.1476 54.0631 66.7363 53.9313C66.2561 53.6641 65.6404 53.807 65.5049 54.217C65.2328 54.6967 65.3719 55.3081 65.7832 55.4399Z" fill="black"/>
<path d="M74.9687 39.3368C75.449 39.604 76.0647 39.4612 76.2002 39.0511C76.4723 38.5714 76.3332 37.96 75.9219 37.8283C75.4417 37.5611 74.8259 37.7039 74.6905 38.114C74.4183 38.5937 74.4885 39.0696 74.9687 39.3368Z" fill="black"/>
</g>
<defs>
<clipPath id="clip0">
<rect width="72.0879" height="86.0294" fill="white" transform="translate(104.205 76.7031) rotate(153.021)"/>
</clipPath>
</defs>
</svg>
