<svg width="90" height="100" viewBox="0 0 90 100" fill="none" xmlns="http://www.w3.org/2000/svg">
<path d="M36.5297 76.7798C36.7278 75.8812 37.0042 74.9997 37.4994 74.2096C37.5417 73.6004 37.759 72.9997 37.6559 72.3772C37.6195 72.1575 37.7359 71.995 37.8609 71.8387C38.5445 70.957 38.7464 69.9449 38.7381 68.8474C38.7327 68.314 39.0391 67.7962 38.9861 67.2481C38.8858 66.2789 38.9812 65.3523 39.2809 64.4292C39.3718 64.1582 39.3844 63.8249 39.3237 63.549C39.134 62.7227 39.2402 61.9523 39.5164 61.1611C39.6957 60.6495 39.579 60.0819 39.581 59.5472C39.5767 59.0663 39.6434 58.6036 39.869 58.1896C40.493 57.0394 40.2597 55.9042 39.6741 54.8729C39.3959 54.3774 39.3292 53.9746 39.5083 53.5082C39.7587 52.8342 39.7523 52.1579 39.5857 51.4707C38.9537 51.2073 38.4481 51.6153 37.8975 51.7975C37.7962 52.5519 37.9225 53.2685 38.1893 53.9691C38.3246 54.3303 38.3242 54.6013 38.0131 54.9543C37.4362 55.615 37.3605 56.4781 37.4339 57.3314C37.4556 57.5987 37.4809 57.888 37.5955 58.1248C37.9101 58.7949 37.8249 59.4639 37.72 60.1512C37.6423 60.6383 37.6257 61.1303 37.707 61.621C37.7895 62.1191 37.7253 62.5964 37.54 63.0714C37.2675 63.7942 37.1356 64.5462 37.2337 65.3202C37.2808 65.6961 37.2425 66.0563 37.0329 66.3848C36.9667 66.4861 36.9262 66.6058 36.893 66.7242C36.6054 67.7657 36.3973 68.8315 36.0621 69.8583C35.9061 70.3284 35.9837 70.8423 36.027 71.3318C36.0681 71.7615 36.0345 72.1509 35.8518 72.5502C35.6015 73.0887 35.5188 73.682 35.4116 74.2644C35.084 75.1093 35.0265 76.0371 34.6756 76.8784C34.3834 77.7099 34.2024 78.5755 33.7269 79.3472C33.4107 79.8515 33.1922 80.3998 33.1266 81.0053C32.9905 82.1871 32.6184 83.3104 32.151 84.4044C32.0529 84.6315 31.9376 84.8464 31.7979 85.0503C31.4879 85.501 31.2427 85.9784 31.0646 86.4973C30.8412 87.1518 30.5211 87.7696 30.0142 88.2606C29.6443 88.6234 29.6264 89.1983 29.2652 89.522C28.9236 89.8274 28.4684 89.9936 28.1341 90.3429C27.5805 90.917 27.2506 91.6117 27.0723 92.3565C26.9702 92.7875 26.7815 93.0598 26.4351 93.2907C26.1217 93.4935 25.8755 93.7829 25.7222 94.1321C25.4093 94.8391 24.8535 95.3082 24.2487 95.7552C23.4273 96.3514 22.75 97.0891 22.334 98.1294C22.9395 98.0509 23.3947 97.8395 23.8684 97.5573C24.6089 97.1101 25.1283 96.4665 25.6893 95.8461C26.0016 95.5005 26.3372 95.1585 26.7826 94.9788C27.0934 94.8517 27.3151 94.5965 27.4561 94.3095C27.7689 93.6477 28.2929 93.2141 28.9195 92.8988C29.7835 92.4687 30.2443 91.7445 30.4718 90.8411C30.5898 90.3698 30.7262 89.9181 31.0765 89.5285C31.401 89.1657 31.4323 88.6261 31.7166 88.2024C32.5548 86.9788 33.3013 85.7027 33.7667 84.2779C33.8367 84.063 33.9483 83.8713 34.0928 83.6966C34.3623 83.3657 34.5573 82.9945 34.6789 82.5903C34.7416 82.3767 34.836 82.1727 34.9964 82.003C35.6602 81.3202 35.8754 80.479 35.9426 79.5647C35.9489 79.4658 35.9466 79.3608 35.9846 79.2716C36.3305 78.4914 36.4466 77.6441 36.5297 76.7798Z" fill="#020A13"/>
<path d="M3.61891 27.0475C3.75044 26.5663 3.73273 26.095 3.58905 25.592C3.43076 25.0462 3.44871 24.4259 3.75153 23.9313C4.14382 23.2937 4.38207 22.5914 4.73403 21.938C5.02343 21.4079 5.17954 20.8474 5.33322 20.2722C5.62954 19.1462 5.9014 18.0093 6.87986 17.2212C6.99373 17.1345 7.07588 16.9928 7.13722 16.8621C7.38749 16.3235 7.75868 15.9228 8.28629 15.6466C8.46011 15.5574 8.62665 15.4242 8.74429 15.2691C9.24065 14.5765 10.0729 14.2268 10.5595 13.5208C10.6698 13.3669 10.8547 13.2533 11.0285 13.164C12.2734 12.5724 13.3938 11.7306 14.7375 11.3258C15.6713 11.042 16.6511 11.0367 17.5992 11.0216C18.261 11.009 18.9383 11.3176 19.601 11.5383C20.5499 11.8468 21.5171 12.1296 22.5459 12.101C23.1772 12.0861 23.7886 12.225 24.3019 12.591C24.6869 12.8656 25.0939 13.0913 25.5034 13.3316C25.9703 13.6 26.343 13.9369 26.5687 14.4337C26.9138 15.1967 27.466 15.752 28.1247 16.267C28.8175 16.8064 29.4724 17.4349 30.0097 18.1282C30.613 18.9009 31.1575 19.7285 31.7619 20.5084C31.9256 20.722 32.0573 20.9711 32.0814 21.2531C32.1115 21.617 32.2873 21.9039 32.4998 22.1846C33.1348 23.0122 33.5066 23.9815 33.9482 24.9166C34.2873 25.643 34.5346 26.4073 35.1417 27.0212C35.6414 27.5326 35.9341 28.2064 35.8217 28.9855C35.7686 29.3482 35.8354 29.7059 35.9193 30.0759C36.1309 31.0343 36.5982 31.9426 36.592 32.9524C36.5931 33.0501 36.6113 33.16 36.6625 33.2417C37.1679 34.0157 37.1495 34.9974 37.6488 35.7799C37.8441 36.0936 37.9414 36.4989 37.898 36.9202C37.8559 37.3488 37.9935 37.77 38.239 38.113C38.543 38.5366 38.6879 39.0017 38.746 39.4889C38.8368 40.2191 38.8015 40.9627 39.055 41.6732C39.1355 41.8857 39.0532 42.1177 38.9979 42.3302C38.9536 42.5183 38.8701 42.6978 38.9629 42.8931C39.254 42.9199 39.4426 42.7378 39.6507 42.6278C40.1355 42.3663 40.6434 42.1536 41.2012 42.196C41.7675 42.2446 42.2827 42.0759 42.7979 41.9071C43.777 41.5782 44.6988 41.0856 45.7449 40.9789C46.0189 40.9482 46.2944 40.7893 46.5234 40.578C46.8639 40.2652 47.2166 39.9354 47.6817 39.7825C48.4331 39.5367 49.1711 39.2555 49.936 39.0451C50.3043 38.946 50.6372 38.8152 50.9091 38.544C51.3158 38.1299 51.7848 37.8183 52.3708 37.713C52.5544 37.6824 52.6915 37.5993 52.8018 37.4454C53.3606 36.6746 54.2505 36.2627 54.8619 35.5358C55.1082 35.2463 55.4974 35.0459 55.8939 34.9797C56.2389 34.9222 56.4814 34.7462 56.686 34.4787C57.0071 34.0488 57.4417 33.7579 57.9545 33.6197C58.2151 33.5536 58.4061 33.4314 58.552 33.2189C58.818 32.8207 59.2024 32.5458 59.5503 32.2318C60.1345 31.7052 60.643 31.0859 61.3469 30.6899C61.4093 30.6569 61.4412 30.5763 61.4841 30.5165C62.1768 29.4147 63.1895 28.6059 64.0971 27.7092C64.8737 26.9322 65.5428 26.0979 66.1813 25.216C66.5624 24.6932 66.6649 23.991 67.1511 23.5561C67.7231 23.0466 68.1227 22.4078 68.5944 21.8398C69.2365 21.0702 69.9335 20.3592 70.3934 19.4469C70.5246 19.1916 70.6803 18.9473 70.8018 18.6786C71.1478 17.8982 71.3398 17.0531 71.9181 16.3544C72.3151 15.8817 72.6754 15.3247 72.6641 14.6189C72.6598 14.183 72.9074 13.8104 73.2039 13.505C73.8176 12.8832 74.0889 12.1529 74.0668 11.2908C74.0575 10.916 74.1229 10.5362 74.3349 10.2223C74.7762 9.56146 74.9496 8.8324 75.0326 8.05821C75.0797 7.61372 75.2919 7.20944 75.482 6.80884C75.5556 6.66106 75.6696 6.48395 75.875 6.54001C76.0878 6.59486 76.057 6.81833 76.0678 6.97462C76.0965 7.42151 76.0274 7.86968 75.8862 8.29224C75.6897 8.8821 75.569 9.47438 75.6061 10.1081C75.6372 10.6148 75.535 11.0911 75.236 11.5174C74.7028 12.2613 74.4253 13.0905 74.3568 13.9978C74.3231 14.4777 74.1843 14.9149 73.7863 15.2448C73.5144 15.4708 73.3905 15.77 73.2652 16.1071C73.0479 16.708 72.9284 17.3527 72.5656 17.8951C72.0324 18.6841 71.2609 19.3097 70.966 20.2623C70.9353 20.3502 70.8594 20.4382 70.7859 20.4956C70.3524 20.8389 70.167 21.314 70.0489 21.8306C69.9418 22.3227 69.7076 22.7758 69.2888 23.0715C69.0194 23.267 68.9005 23.5052 68.845 23.808C68.7502 24.2831 68.527 24.7118 68.1449 25.0014C67.5608 25.4376 67.1258 25.9995 66.681 26.5479C65.5072 27.9784 64.3517 29.4283 63.0545 30.7514C62.9198 30.8943 62.7532 31.0275 62.577 31.1021C62.2587 31.2304 62.0615 31.4515 61.8642 31.7178C61.222 32.5778 60.3808 33.2375 59.5273 33.8693C59.2175 34.0941 58.9249 34.2859 58.7544 34.623C58.5213 35.0835 58.1723 35.4353 57.7071 35.6334C57.3901 35.769 57.1758 35.978 57.0127 36.2686C56.7098 36.8085 56.2677 37.1909 55.6925 37.4073C55.4587 37.499 55.2347 37.6041 55.0498 37.763C54.6995 38.0623 54.309 38.2554 53.8514 38.3167C53.5187 38.3571 53.2567 38.5062 53.0459 38.7823C52.7236 39.2049 52.2902 39.5031 51.7433 39.5717C51.4337 39.6158 51.1363 39.7332 50.9537 39.9519C50.411 40.592 49.5898 40.8268 48.9799 41.3803C48.6198 41.7113 48.1583 41.9314 47.6335 41.9511C46.913 41.9735 46.2058 42.0764 45.6033 42.5382C45.4894 42.625 45.3303 42.6666 45.1921 42.6972C44.3674 42.8649 43.5999 43.2413 42.7679 43.3651C42.4069 43.4177 42.0715 43.5791 41.7422 43.7771C41.2476 44.0704 40.703 44.244 40.1063 44.0575C39.9241 44.0051 39.7149 44.0174 39.5216 44.0346C38.9576 44.091 38.9588 44.0983 38.9702 44.7137C38.5699 44.9386 38.1872 44.8142 37.8057 44.652C37.1438 44.7549 36.4735 44.7162 35.8104 44.7666C35.1914 44.8096 34.582 44.9564 33.9655 44.9238C33.5459 44.8959 33.1825 44.9791 32.8202 45.16C32.0955 45.5218 31.3578 45.5771 30.5936 45.2905C30.1755 45.1344 29.767 45.0369 29.296 45.108C28.891 45.168 28.4641 45.1413 28.0385 45.0768C27.1408 44.9405 26.2346 44.7529 25.3367 44.7521C24.3935 44.7513 23.4752 44.4905 22.5319 44.5801C22.2126 44.6108 21.8873 44.5145 21.6025 44.3436C21.176 44.0911 20.7124 44.0706 20.234 44.0977C19.3899 44.1481 18.6158 43.9837 17.967 43.3918C17.62 43.0732 17.2485 42.7889 16.8096 42.5986C15.6494 42.1071 14.4903 41.6681 13.2404 41.4098C12.0285 41.1528 10.948 40.4597 10.0427 39.6396C9.45743 39.1124 8.91259 38.5559 8.2526 38.1239C7.65982 37.7335 7.22255 37.2343 6.99963 36.5262C6.70974 35.5959 6.24723 34.7621 5.57048 34.0469C5.13194 33.5855 4.92474 33.0178 4.77021 32.4037C4.55966 31.5882 4.343 30.7811 4.2279 29.9496C4.18548 29.6481 4.02313 29.3966 3.89627 29.1317C3.59745 28.4664 3.4173 27.7888 3.61891 27.0475ZM6.10324 31.7522C6.33877 32.1722 6.49968 32.597 6.60671 33.061C6.8195 34.0267 7.32004 34.7713 8.23935 35.2203C8.89582 35.5399 9.42732 36.0158 9.80446 36.653C10.1072 37.1596 10.5287 37.5184 11.0887 37.7111C11.1132 37.722 11.1376 37.733 11.1535 37.7379C11.623 37.9306 13.9083 39.5669 14.2908 39.9172C15.3501 40.8923 16.554 41.6024 18.0502 41.5711C19.0802 41.5499 20.0084 41.7338 20.8382 42.3708C21.14 42.599 21.5093 42.6879 21.8861 42.6853C22.4207 42.6789 22.8975 42.8704 23.4013 42.9972C24.4652 43.2714 25.5094 43.6543 26.6544 43.644C27.611 43.635 28.5789 43.466 29.5339 43.7207C29.7553 43.7817 29.9646 43.679 30.1763 43.591C31.0844 43.2437 32.0057 43.1578 32.93 43.5457C33.2381 43.675 33.5317 43.6712 33.8645 43.5855C34.3858 43.4534 34.9412 43.4812 35.4771 43.3918C35.9469 43.3134 36.3911 43.1716 36.839 43.0517C37.2 42.9538 37.1672 42.8012 37.0905 42.5204C36.8093 41.5058 36.4669 40.4864 36.4292 39.4388C36.3987 38.4351 36.2973 37.4583 36.1396 36.4607C35.9952 35.5438 35.7395 34.6379 35.6686 33.7087C35.6566 33.5451 35.5895 33.368 35.5114 33.2154C35.2418 32.6807 35.0383 32.135 34.9326 31.5429C34.8465 31.0227 34.6037 30.5588 34.2653 30.1561C33.5704 29.331 33.1801 28.4324 33.244 27.3151C33.2766 26.7376 32.8589 26.22 32.6125 25.689C32.2003 24.7942 31.7402 23.9299 31.301 23.0546C31.2119 22.8812 31.1731 22.6468 31.0338 22.5345C30.2078 21.8743 29.858 20.9013 29.3172 20.0505C29.0523 19.6355 28.6001 19.3646 28.4013 18.8934C28.0062 17.9656 27.349 17.232 26.6784 16.5083C26.5416 16.3655 26.4292 16.2336 26.1981 16.2045C25.3884 16.0986 24.6953 15.74 24.1052 15.1834C23.9977 15.0809 23.8926 14.9479 23.7642 14.9015C22.9401 14.6174 22.3782 14.0487 21.7968 13.4079C21.4083 12.9758 20.7016 12.7173 20.057 12.6969C19.3671 12.6765 18.6759 12.6939 18.003 12.776C16.5494 13.0185 15.0836 13.2329 13.6373 13.5193C13.1405 13.6173 12.6619 13.8702 12.2663 14.2148C12.0153 14.4298 11.7398 14.5887 11.4436 14.7134C10.7031 15.0251 10.0774 15.4833 9.54445 16.0917C9.36068 16.303 9.21724 16.5302 9.12272 16.7793C9.01836 17.0602 8.85533 17.3057 8.6593 17.5342C8.54536 17.6661 8.39964 17.7883 8.34194 17.9409C7.92944 19.0486 7.12214 19.9135 6.50796 20.8968C6.00657 21.6956 5.82675 22.6139 5.90994 23.526C6.00769 24.526 5.94896 25.4468 5.30809 26.2688C5.10223 26.529 5.16793 26.7891 5.27647 27.0345C5.55575 27.6729 5.55122 28.3287 5.42065 28.9979C5.37509 29.2238 5.35768 29.4375 5.40143 29.656C5.55948 30.3825 5.73956 31.1053 6.10324 31.7522Z" fill="#020A13"/>
</svg>
