<svg width="260" height="260" viewBox="0 0 260 260" fill="none" xmlns="http://www.w3.org/2000/svg">
<path d="M137.473 54.5151H84.9998C84.2171 54.5138 83.4419 54.6669 82.7186 54.9658C81.9953 55.2647 81.3381 55.7034 80.7846 56.2568C80.2312 56.8102 79.7925 57.4674 79.4936 58.1908C79.1948 58.9141 79.0416 59.6893 79.043 60.472V92.6294C79.0416 93.412 79.1948 94.1873 79.4936 94.9106C79.7925 95.6339 80.2312 96.2911 80.7846 96.8445C81.3381 97.398 81.9953 97.8367 82.7186 98.1356C83.4419 98.4344 84.2171 98.5876 84.9998 98.5862H99.7134C100.832 98.5891 101.927 98.9065 102.873 99.502C103.82 100.098 104.58 100.947 105.067 101.954L108.79 109.826C109.013 110.295 109.364 110.692 109.804 110.97C110.243 111.248 110.752 111.395 111.272 111.395C111.792 111.395 112.301 111.248 112.74 110.97C113.18 110.692 113.531 110.295 113.754 109.826L117.441 101.99C117.918 100.973 118.675 100.113 119.623 99.5102C120.571 98.9073 121.671 98.5869 122.794 98.5862H137.509C138.291 98.5875 139.066 98.4342 139.79 98.1353C140.513 97.8364 141.17 97.3976 141.723 96.8442C142.277 96.2908 142.715 95.6337 143.014 94.9104C143.313 94.1871 143.466 93.412 143.465 92.6294V60.472C143.453 58.8897 142.817 57.3759 141.695 56.2602C140.573 55.1446 139.056 54.5174 137.473 54.5151Z" fill="#98F5C3"/>
<path d="M97.2683 86.1064C104.455 86.1064 110.281 80.2805 110.281 73.094C110.281 65.9074 104.455 60.0815 97.2683 60.0815C90.0817 60.0815 84.2559 65.9074 84.2559 73.094C84.2559 80.2805 90.0817 86.1064 97.2683 86.1064Z" fill="white"/>
<path d="M107.02 81.6739C105.799 83.0553 104.298 84.1614 102.617 84.9191C100.936 85.6767 99.1133 86.0685 97.2696 86.0685C95.4258 86.0685 93.6031 85.6767 91.9223 84.9191C90.2414 84.1614 88.7406 83.0553 87.5195 81.6739C87.6609 81.5679 91.171 79.3694 94.0072 77.632L92.4473 68.2719C92.2971 67.3133 92.5289 66.334 93.0929 65.5444C93.6569 64.7548 94.5081 64.2179 95.4637 64.0491H95.5343C96.493 63.8989 97.4723 64.1307 98.2619 64.6947C99.0515 65.2587 99.5884 66.1099 99.7572 67.0654L100.111 69.1217L102.345 68.7675C102.773 68.6986 103.21 68.8016 103.562 69.0539C103.914 69.3062 104.153 69.6874 104.225 70.1145V70.1498C104.293 70.5775 104.19 71.015 103.938 71.367C103.685 71.7191 103.304 71.9571 102.877 72.0294L100.644 72.3836L101.637 78.2689L107.02 81.6739Z" fill="#FFDB43"/>
<path d="M247.138 51.9272H173.852V95.4304H247.138V51.9272Z" fill="#FFDB43"/>
<path d="M215.191 75.7173C219.362 75.7173 222.743 72.3361 222.743 68.1653C222.743 63.9944 219.362 60.6133 215.191 60.6133C211.02 60.6133 207.639 63.9944 207.639 68.1653C207.639 72.3361 211.02 75.7173 215.191 75.7173Z" fill="white"/>
<path d="M201.755 62.4927L181.545 66.7121V74.1219L201.755 78.3766V62.4927Z" fill="#16DB93"/>
<path d="M215.191 75.7524L198.846 95.4309H231.536L215.191 75.7524Z" fill="white"/>
<path d="M197.428 95.431V77.4873L192.926 70.7514C192.926 70.7514 191.116 68.9787 189.379 70.5739C188.876 71.0267 188.556 71.6473 188.477 72.3194C188.399 72.9916 188.569 73.6693 188.954 74.2254L190.231 75.9275L186.969 75.2544V95.3922H197.428V95.431Z" fill="white"/>
<path d="M195.088 66.7821C196.654 66.7821 197.924 65.5124 197.924 63.9462C197.924 62.38 196.654 61.1104 195.088 61.1104C193.522 61.1104 192.252 62.38 192.252 63.9462C192.252 65.5124 193.522 66.7821 195.088 66.7821Z" fill="white"/>
<path d="M189.06 67.9515C190.627 67.9515 191.896 66.6818 191.896 65.1156C191.896 63.5494 190.627 62.2798 189.06 62.2798C187.494 62.2798 186.225 63.5494 186.225 65.1156C186.225 66.6818 187.494 67.9515 189.06 67.9515Z" fill="white"/>
<path d="M208.03 99.6499L184.311 104.614V113.336L208.03 118.299V99.6499Z" fill="#FF553E"/>
<path d="M204.024 131.134L212.642 117.732H232.32L253.487 156.094C253.487 156.094 255.011 160.739 252.529 164.639C250.047 168.54 246.148 169.248 242.956 169.248H219.305L211.612 188.926H183.775L204.803 149.926H208.49L215.511 138.828L204.024 131.134Z" fill="#16DB93"/>
<path d="M189.274 188.891L166.583 201.513C165.88 201.905 165.327 202.519 165.011 203.259C164.695 203.999 164.633 204.824 164.836 205.602C165.039 206.381 165.494 207.071 166.131 207.563C166.768 208.055 167.551 208.322 168.356 208.321H189.31L191.895 202.471C192.143 201.918 192.546 201.448 193.056 201.121C193.567 200.794 194.161 200.622 194.767 200.628H194.838C195.355 200.629 195.864 200.759 196.319 201.005C196.773 201.251 197.16 201.605 197.445 202.037C197.729 202.469 197.902 202.964 197.949 203.479C197.995 203.994 197.913 204.513 197.711 204.988L196.292 208.321H204.092L211.609 189.034L189.274 188.891Z" fill="black"/>
<path d="M234.09 103.585L231.608 112.132C231.339 113.059 230.889 113.923 230.285 114.676C229.681 115.429 228.934 116.055 228.088 116.519C227.242 116.983 226.313 117.276 225.353 117.381C224.394 117.486 223.423 117.401 222.496 117.13L222.354 117.094C221.257 116.776 220.249 116.206 219.412 115.428C218.556 114.616 217.911 113.606 217.534 112.488C217.157 111.369 217.059 110.175 217.249 109.01L223.454 108.443C223.927 108.397 224.363 108.166 224.668 107.801C224.973 107.437 225.122 106.967 225.085 106.493V106.458C225.064 106.222 224.998 105.993 224.889 105.783C224.78 105.574 224.63 105.388 224.449 105.236C224.268 105.085 224.058 104.97 223.833 104.9C223.607 104.83 223.37 104.805 223.134 104.827L218.206 105.252L218.738 103.409L216.823 102.877C216.412 102.762 216.062 102.49 215.849 102.119C215.637 101.748 215.58 101.308 215.689 100.895V100.859C215.808 100.449 216.08 100.099 216.448 99.881C216.816 99.6635 217.254 99.5949 217.671 99.6891L219.621 100.185L220.507 97.1011C220.787 96.1305 221.265 95.2288 221.912 94.4535C222.559 93.6782 223.361 93.0463 224.266 92.5981L234.09 103.59V103.585Z" fill="white"/>
<path d="M234.763 101.281L234.09 103.621L224.266 92.6293C225.923 91.7905 227.836 91.613 229.619 92.1329L229.761 92.1691C230.689 92.4383 231.553 92.8876 232.307 93.4914C233.06 94.0953 233.687 94.8417 234.152 95.688C234.616 96.5343 234.909 97.4638 235.014 98.4236C235.119 99.3833 235.034 100.354 234.763 101.281Z" fill="black"/>
<path d="M119 112.13L109.924 143.473H80.4613L78.6523 149.89H114.179L125.099 112.13H119Z" fill="#090909"/>
<path d="M60.0744 149.89L88.4736 184.707L59.684 203.782L60.5708 196.407C61.1369 191.553 59.969 186.656 57.2736 182.58L46.1046 165.81H20.7528C19.054 165.81 17.384 165.37 15.9055 164.534C14.427 163.697 13.1903 162.492 12.3158 161.035C11.4413 159.579 10.9589 157.921 10.9153 156.222C10.8718 154.524 11.2688 152.844 12.0675 151.344L29.5122 118.478H55.6422L46.4208 139.574H72.4474L75.1776 134.61C75.6176 133.811 76.2313 133.121 76.9736 132.591C77.7159 132.061 78.5677 131.705 79.4662 131.548C80.3647 131.391 81.2869 131.439 82.1646 131.686C83.0424 131.934 83.8534 132.375 84.5377 132.978L89.6784 137.517C90 137.797 90.2628 138.138 90.4514 138.52C90.64 138.903 90.7507 139.319 90.7771 139.744C90.8035 140.17 90.745 140.597 90.6051 141C90.4651 141.402 90.2465 141.773 89.9619 142.091L89.9266 142.126C89.643 142.448 89.2986 142.711 88.9133 142.9C88.5279 143.088 88.1092 143.199 87.681 143.225C87.2528 143.251 86.8236 143.193 86.418 143.053C86.0125 142.913 85.6385 142.695 85.3176 142.41L81.6653 139.254L78.6162 149.854" fill="#FFDB43"/>
<path d="M53.0197 176.233C49.7336 178.087 47 180.781 45.0995 184.041C43.1991 187.3 42.2003 191.006 42.2057 194.779C42.2046 195.764 42.2757 196.748 42.4186 197.722L26.6406 173.471L38.593 165.845H46.1088L53.0197 176.233Z" fill="#FFDB43"/>
<path d="M58.8702 91.7072L36.7106 103.621C36.0449 101.994 35.7775 100.231 35.9306 98.4801L36.5692 91.6719H58.8702V91.7072Z" fill="black"/>
<path d="M227.281 149.89H37.2763C36.2541 149.89 35.2481 149.636 34.349 149.149C33.4499 148.663 32.686 147.961 32.1265 147.105C31.567 146.25 31.2295 145.269 31.1444 144.25C31.0593 143.232 31.2294 142.208 31.6392 141.272L35.0786 133.436L49.1537 133.401L46.4597 139.606H72.4862L75.2164 134.642C75.6564 133.843 76.2703 133.153 77.0126 132.623C77.7549 132.093 78.6068 131.737 79.5052 131.581C80.4037 131.424 81.3259 131.471 82.2036 131.719C83.0814 131.967 83.8923 132.408 84.5765 133.011L89.7172 137.549C90.0389 137.829 90.3017 138.17 90.4904 138.553C90.6791 138.935 90.7898 139.351 90.8162 139.777C90.8426 140.203 90.7841 140.629 90.6441 141.032C90.5041 141.435 90.2854 141.806 90.0007 142.123L89.9654 142.158C89.6818 142.48 89.3375 142.743 88.9521 142.932C88.5668 143.12 88.148 143.231 87.7198 143.257C87.2916 143.283 86.8624 143.225 86.4568 143.085C86.0513 142.945 85.6773 142.727 85.3564 142.442L81.705 139.286L78.655 149.886" fill="white"/>
<path d="M60.3227 102.45V102.486C60.3197 103.068 60.0871 103.625 59.6755 104.037C59.2638 104.449 58.7064 104.681 58.1242 104.684H54.7209C53.7885 106.284 52.547 107.682 51.0686 108.798L50.9979 108.868C48.2367 110.967 46.3439 114.009 45.6797 117.413L45.4668 118.547H38.8008L39.5454 113.371C39.9347 110.686 39.3021 107.953 37.7726 105.712L37.7373 105.642C37.3215 105.016 36.9654 104.352 36.6738 103.659L58.8335 91.707L56.4575 100.287H58.1242C58.4122 100.279 58.699 100.329 58.9673 100.434C59.2355 100.539 59.4797 100.697 59.6851 100.9C59.8905 101.102 60.0529 101.343 60.1624 101.61C60.272 101.876 60.3265 102.162 60.3227 102.45Z" fill="white"/>
<path d="M48.4813 100.146C48.3028 101.26 47.7411 102.277 46.8931 103.021C46.0451 103.766 44.964 104.191 43.8362 104.223C43.321 104.238 42.8091 104.137 42.3376 103.929C41.8662 103.721 41.4471 103.41 41.1109 103.02C40.7746 102.629 40.5297 102.169 40.3939 101.672C40.2582 101.174 40.235 100.653 40.326 100.146C40.5047 99.032 41.0664 98.0152 41.9144 97.2709C42.7623 96.5267 43.8434 96.1015 44.9712 96.0688C45.4863 96.054 45.9984 96.1543 46.4699 96.3624C46.9414 96.5705 47.3606 96.8812 47.6968 97.2718C48.0331 97.6624 48.278 98.1231 48.4137 98.6203C48.5494 99.1175 48.5725 99.6388 48.4813 100.146Z" fill="#16DB93"/>
<path d="M57.3096 112.132C57.1905 112.864 56.8218 113.532 56.2661 114.023C55.7104 114.514 55.0019 114.797 54.2609 114.825C53.921 114.835 53.5833 114.769 53.2725 114.631C52.9616 114.494 52.6856 114.288 52.4646 114.03C52.2436 113.771 52.0832 113.467 51.9954 113.138C51.9075 112.81 51.8943 112.466 51.9567 112.132C52.0754 111.4 52.444 110.731 52.9997 110.24C53.5555 109.749 54.2642 109.465 55.0054 109.437C55.3435 109.433 55.6784 109.504 55.9864 109.643C56.2944 109.783 56.5679 109.988 56.7877 110.245C57.0075 110.503 57.1682 110.805 57.2583 111.131C57.3485 111.457 57.366 111.798 57.3096 112.132Z" fill="#FF553E"/>
<path d="M68.6543 197.861L77.1638 208.32L108.506 187.472L88.4733 184.743L68.6543 197.861Z" fill="#FF553E"/>
<path d="M33.7673 208.32L15.6504 180.488L26.641 173.468L36.1786 188.146L33.7673 208.32Z" fill="#FF553E"/>
<path d="M184.668 149.889L189.666 113.158C189.747 112.656 190 112.198 190.381 111.861C190.763 111.525 191.25 111.332 191.758 111.315H191.793C192.027 111.306 192.26 111.35 192.474 111.444C192.689 111.537 192.88 111.677 193.033 111.854C193.186 112.031 193.297 112.24 193.359 112.466C193.421 112.692 193.431 112.928 193.389 113.158C193.469 112.656 193.722 112.198 194.104 111.861C194.486 111.525 194.973 111.332 195.481 111.315H195.516C195.75 111.306 195.983 111.35 196.197 111.444C196.412 111.537 196.603 111.677 196.756 111.854C196.909 112.031 197.02 112.24 197.082 112.466C197.144 112.692 197.154 112.928 197.112 113.158C197.192 112.656 197.445 112.198 197.827 111.861C198.208 111.525 198.695 111.332 199.203 111.315H199.239C199.473 111.307 199.706 111.351 199.92 111.444C200.135 111.537 200.325 111.678 200.479 111.855C200.632 112.032 200.743 112.24 200.805 112.466C200.866 112.692 200.877 112.928 200.835 113.158C200.915 112.656 201.168 112.198 201.549 111.861C201.931 111.525 202.418 111.332 202.926 111.315H202.962C203.195 111.307 203.428 111.351 203.642 111.444C203.857 111.538 204.048 111.678 204.201 111.855C204.354 112.031 204.466 112.24 204.527 112.466C204.589 112.692 204.599 112.928 204.558 113.158L201.579 134.892L204.026 131.1L215.513 138.794L208.493 149.891L184.668 149.889Z" fill="white"/>
<path d="M248.803 168.681C250.621 167.774 252.136 166.357 253.163 164.604C254.091 163.048 254.592 161.276 254.617 159.464C254.642 157.653 254.19 155.867 253.305 154.287L232.671 117.165H227.992C228.998 116.687 229.892 116 230.613 115.15C231.334 114.301 231.867 113.307 232.175 112.236L235.331 101.387C235.855 99.5756 235.704 97.6352 234.905 95.9268H247.705V51.3955H173.319V74.5479C173.158 74.6165 173.003 74.6995 172.858 74.7961C171.865 75.2572 170.766 75.7527 169.631 76.175C169.454 74.2248 169.241 72.24 168.958 70.2544C168.673 68.0913 168.249 65.8592 166.83 64.1916C165.758 63.0544 164.304 62.3531 162.747 62.2222C161.19 62.0913 159.639 62.5401 158.392 63.4823C157.191 64.4948 156.313 65.8366 155.866 67.3423C155.418 68.848 155.421 70.4517 155.875 71.9556C156.374 73.7102 157.434 75.2536 158.891 76.3508C161.023 77.8491 163.648 78.4719 166.226 78.0908C167.052 77.9834 167.869 77.8175 168.672 77.5944C169.443 86.7436 169.037 95.9539 167.465 105C167.181 106.631 166.827 108.226 166.437 109.826C159.745 111.348 153.412 114.153 147.788 118.086C144.545 120.267 141.703 122.99 139.384 126.135C136.99 129.396 135.688 133.329 135.661 137.374C135.639 139.009 136.042 140.622 136.831 142.054C137.565 143.178 138.579 144.093 139.772 144.708C140.965 145.324 142.298 145.618 143.64 145.564C144.853 145.56 146.055 145.332 147.185 144.891C150.838 143.437 153.426 140.246 155.446 137.339C160.989 129.275 165.003 120.262 167.289 110.747C172.707 109.57 178.23 108.94 183.775 108.869V113.832L188.881 114.896L184.203 149.362H114.888L125.807 111.563H118.575L109.498 142.906H89.9268C90.0773 142.785 90.2196 142.655 90.3525 142.515L90.3878 142.48C91.0471 141.721 91.3799 140.733 91.3135 139.73C91.2472 138.727 90.7871 137.791 90.0336 137.126L84.8921 132.588C84.1439 131.933 83.2593 131.454 82.3026 131.184C81.3458 130.914 80.3409 130.861 79.361 131.028C78.3853 131.196 77.4605 131.584 76.6561 132.161C75.8517 132.738 75.1886 133.49 74.7167 134.361L72.1313 139.04H47.2398L56.1388 118.69L55.6424 117.945H46.1409L46.247 117.449C46.3197 117.016 46.4263 116.589 46.5658 116.172C47.0738 116.105 47.5659 115.949 48.0197 115.711L51.8487 114.009L52.0616 114.328C52.338 114.636 52.6774 114.881 53.0567 115.046C53.436 115.211 53.8464 115.293 54.26 115.286C55.1303 115.258 55.9638 114.928 56.6172 114.352C57.2706 113.777 57.7033 112.992 57.8408 112.132C57.9029 111.719 57.8781 111.298 57.7682 110.895C57.6582 110.492 57.4655 110.116 57.2022 109.792C56.9257 109.484 56.5865 109.24 56.2073 109.075C55.8282 108.91 55.4181 108.828 55.0046 108.835C54.134 108.863 53.3002 109.193 52.6466 109.769C51.993 110.344 51.5603 111.13 51.423 111.99C51.3809 112.332 51.3931 112.679 51.4592 113.018L47.5552 114.718C47.3664 114.82 47.1629 114.891 46.9519 114.93C47.8658 112.651 49.3857 110.665 51.3471 109.187L51.4178 109.116C52.8649 108.019 54.0928 106.66 55.0374 105.109H58.1218C58.8458 105.109 59.5401 104.821 60.0521 104.309C60.564 103.797 60.8518 103.103 60.852 102.379V102.344C60.8518 101.62 60.564 100.925 60.0521 100.413C59.5401 99.9015 58.8458 99.6138 58.1218 99.6136H57.1669L59.5429 91.0334H53.799L54.5789 85.361C54.676 84.8182 54.6508 84.2605 54.5052 83.7286C54.3596 83.1967 54.0973 82.7039 53.7373 82.2861C53.3773 81.8684 52.9288 81.5361 52.4242 81.3135C51.9196 81.0909 51.3718 80.9836 50.8206 80.9994H50.7499C49.5792 81.0282 48.4556 81.4665 47.5746 82.238C46.6936 83.0096 46.111 84.0656 45.9281 85.2223L45.112 91.0369H36.0716L35.3977 98.3407C35.1504 100.981 35.8272 103.625 37.3126 105.822L37.3479 105.893C38.8056 108.03 39.4007 110.639 39.0138 113.197L38.3407 117.912H29.4762L29.016 118.196L11.5713 151.131C10.7175 152.708 10.2942 154.482 10.3441 156.275C10.3941 158.067 10.9154 159.815 11.8557 161.342C12.8804 163.046 14.3683 164.423 16.1458 165.313H5.1543V166.377H20.9676V176.446L15.3296 180.027L15.1573 180.772L20.9366 189.671V208.852H22V191.302L33.2742 208.604L34.2316 208.391L36.4655 189.671L41.8948 198.003L42.8514 197.648C42.7106 196.697 42.6397 195.737 42.6394 194.776C42.6463 191.195 43.5757 187.676 45.3379 184.559C47.1001 181.441 49.6356 178.831 52.7002 176.978L48.1619 208.779L49.2254 208.921L53.6206 178.252L56.7412 182.931C59.3799 186.899 60.5225 191.675 59.9652 196.407L59.0793 203.782L59.8945 204.278L68.4393 198.606L76.9488 209.065L109.851 187.189L88.6504 184.282L61.2088 150.422H204.059L182.892 189.422H187.218L166.299 201.052C165.487 201.493 164.846 202.194 164.479 203.042C164.113 203.891 164.042 204.838 164.278 205.732C164.488 206.632 165 207.433 165.729 208.001C166.459 208.569 167.361 208.869 168.285 208.852H189.558L192.288 202.683C192.495 202.224 192.828 201.834 193.249 201.558C193.669 201.282 194.16 201.131 194.663 201.123H194.734C195.164 201.121 195.588 201.226 195.965 201.431C196.343 201.635 196.664 201.932 196.897 202.293C197.139 202.648 197.285 203.06 197.322 203.488C197.36 203.917 197.286 204.347 197.11 204.739L195.372 208.817H204.449L214.625 182.618L218.382 208.89L219.447 208.748L215.405 180.632L219.628 169.747H240.656V208.854H241.719V169.745H255.078V168.681H248.803ZM166.085 76.9937C163.785 77.3406 161.438 76.7952 159.526 75.4692C158.255 74.5 157.335 73.1436 156.903 71.6049C156.51 70.3039 156.505 68.9164 156.889 67.6127C157.273 66.309 158.029 65.1457 159.065 64.2657C159.985 63.5754 161.104 63.2022 162.254 63.2023C162.96 63.1925 163.66 63.3328 164.308 63.6139C164.956 63.895 165.537 64.3104 166.012 64.8328C167.253 66.2513 167.607 68.3429 167.891 70.3285C168.174 72.3848 168.387 74.4411 168.565 76.462C167.755 76.7105 166.926 76.8884 166.085 76.9937ZM154.562 136.665C152.613 139.466 150.131 142.48 146.763 143.863C143.747 145.07 139.53 144.501 137.722 141.45C137.032 140.177 136.679 138.75 136.694 137.302C136.72 133.488 137.948 129.778 140.203 126.702C142.476 123.673 145.231 121.038 148.358 118.902C153.696 115.121 159.716 112.412 166.085 110.924C163.87 120.143 159.963 128.872 154.562 136.665ZM52.4873 112.201C52.5849 111.589 52.8937 111.031 53.3599 110.623C53.8262 110.215 54.4206 109.983 55.04 109.967C55.2998 109.962 55.5576 110.013 55.7957 110.117C56.0338 110.222 56.2464 110.376 56.4189 110.571C56.5965 110.77 56.7244 111.009 56.7922 111.268C56.8601 111.527 56.8659 111.798 56.8093 112.059C56.7115 112.671 56.4027 113.229 55.9365 113.637C55.4702 114.045 54.8759 114.277 54.2566 114.293C53.9928 114.302 53.7302 114.252 53.4887 114.145C53.2472 114.039 53.033 113.879 52.8623 113.677C52.6916 113.476 52.5689 113.239 52.5033 112.983C52.4378 112.727 52.4311 112.46 52.4838 112.201H52.4873ZM231.11 111.988C230.693 113.406 229.829 114.651 228.647 115.539C227.466 116.427 226.029 116.91 224.551 116.917C223.903 116.909 223.259 116.814 222.636 116.633L222.495 116.597C220.989 116.182 219.68 115.243 218.803 113.951C217.926 112.658 217.538 111.095 217.709 109.542L223.488 109.01C224.1 108.937 224.666 108.648 225.083 108.195C225.283 107.962 225.434 107.692 225.525 107.399C225.617 107.106 225.647 106.798 225.615 106.493V106.457C225.591 106.152 225.506 105.854 225.367 105.581C225.227 105.308 225.034 105.066 224.8 104.868C224.566 104.67 224.295 104.521 224.003 104.429C223.71 104.336 223.403 104.303 223.097 104.33L218.95 104.684L219.411 103.054L216.964 102.38C216.685 102.29 216.45 102.098 216.305 101.842C216.161 101.587 216.118 101.287 216.184 101.001C216.266 100.723 216.451 100.487 216.702 100.342C216.952 100.197 217.249 100.153 217.531 100.22L219.978 100.859L221.006 97.2781C221.514 95.6025 222.626 94.1749 224.126 93.2715L233.45 103.699L231.11 111.988ZM215.191 75.221C213.803 75.221 212.445 74.8093 211.291 74.0378C210.136 73.2664 209.237 72.1699 208.705 70.8871C208.174 69.6042 208.035 68.1927 208.306 66.8308C208.577 65.469 209.246 64.2181 210.227 63.2363C211.209 62.2546 212.46 61.586 213.822 61.3152C215.184 61.0445 216.596 61.1836 217.878 61.7151C219.161 62.2466 220.257 63.1465 221.029 64.3011C221.8 65.4557 222.212 66.8131 222.211 68.2016C222.207 70.0621 221.466 71.8451 220.15 73.1606C218.835 74.4761 217.052 75.2169 215.191 75.221ZM220.97 94.8961H199.942L215.189 76.5663L227.456 91.3153C226.165 91.3405 224.9 91.6797 223.77 92.3037C222.64 92.9276 221.679 93.8173 220.97 94.8961ZM234.266 101.136L233.876 102.555L225.189 92.8398C225.959 92.5406 226.776 92.3843 227.602 92.3787C228.25 92.3862 228.895 92.4819 229.517 92.6631L229.658 92.6984C231.381 93.218 232.83 94.3947 233.692 95.9742C234.555 97.5536 234.76 99.4089 234.266 101.139V101.136ZM174.382 52.459H246.601V94.8961H234.302C233.283 93.3313 231.735 92.1861 229.94 91.6703L229.799 91.6341C229.544 91.5601 229.285 91.5025 229.023 91.4618L216.325 76.2138C218.359 75.9439 220.214 74.9107 221.515 73.3237C222.815 71.7367 223.463 69.7147 223.328 67.6674C223.193 65.6202 222.284 63.701 220.786 62.2989C219.288 60.8967 217.314 60.1166 215.262 60.1166C213.21 60.1166 211.235 60.8967 209.737 62.2989C208.24 63.701 207.331 65.6202 207.196 67.6674C207.06 69.7147 207.709 71.7367 209.009 73.3237C210.309 74.9107 212.165 75.9439 214.198 76.2138L198.63 94.8961H198.027V78.1287L202.317 79.0147V61.8191L198.275 62.6705C198.006 62.0111 197.534 61.4543 196.928 61.0803C196.322 60.7063 195.612 60.5346 194.902 60.5898C194.192 60.645 193.518 60.9244 192.977 61.3876C192.436 61.8508 192.056 62.4738 191.892 63.1669C191.585 62.7177 191.172 62.3505 190.69 62.0971C190.208 61.8437 189.671 61.7119 189.127 61.7131C188.237 61.7198 187.385 62.0765 186.755 62.706C186.126 63.3356 185.77 64.1874 185.763 65.0776V65.2904L181.049 66.2841V70.1484C178.913 71.5594 176.699 72.8498 174.419 74.0136V52.459H174.382ZM174.382 75.221C176.657 74.0747 178.87 72.809 181.012 71.4291V74.5497L186.402 75.6838V94.865H174.382V75.221ZM189.064 68.4851C189.82 68.486 190.553 68.2309 191.146 67.7615C191.738 67.292 192.154 66.6358 192.326 65.8997C192.634 66.3487 193.046 66.7159 193.528 66.9692C194.01 67.2226 194.547 67.3545 195.091 67.3536C195.983 67.3479 196.836 66.9913 197.467 66.3609C198.097 65.7305 198.454 64.8771 198.459 63.9856V63.7374L201.189 63.1704V77.7384L197.751 77.0299L193.709 70.8249C193.265 70.132 192.568 69.6402 191.766 69.4547C190.964 69.2692 190.122 69.4046 189.419 69.8321L189.383 69.8675C189.01 70.0976 188.688 70.402 188.438 70.7619C188.188 71.1218 188.015 71.5293 187.93 71.9591C187.847 72.3873 187.852 72.8278 187.943 73.2542C188.034 73.6806 188.211 74.0843 188.461 74.4411L188.993 75.1857L182.08 73.7318V67.1726L185.944 66.3573C186.192 66.9832 186.621 67.5205 187.178 67.8998C187.734 68.279 188.391 68.4829 189.064 68.4851ZM186.759 65.1163C186.759 64.6605 186.894 64.215 187.148 63.836C187.401 63.4571 187.761 63.1617 188.182 62.9873C188.603 62.8129 189.066 62.7672 189.513 62.8561C189.96 62.9451 190.371 63.1645 190.693 63.4868C191.016 63.8091 191.235 64.2197 191.324 64.6668C191.413 65.1138 191.367 65.5771 191.193 65.9982C191.018 66.4193 190.723 66.7792 190.344 67.0324C189.965 67.2856 189.52 67.4208 189.064 67.4208C188.761 67.4218 188.46 67.3629 188.18 67.2475C187.9 67.1321 187.645 66.9625 187.431 66.7483C187.216 66.5342 187.046 66.2798 186.93 65.9997C186.815 65.7196 186.755 65.4194 186.756 65.1163H186.759ZM192.787 63.9469C192.787 63.4911 192.922 63.0455 193.175 62.6666C193.428 62.2876 193.788 61.9922 194.209 61.8178C194.63 61.6434 195.094 61.5977 195.541 61.6867C195.988 61.7756 196.398 61.9951 196.721 62.3174C197.043 62.6396 197.263 63.0503 197.351 63.4973C197.44 63.9443 197.395 64.4077 197.22 64.8287C197.046 65.2498 196.751 65.6097 196.372 65.863C195.993 66.1162 195.547 66.2513 195.091 66.2513C194.788 66.2524 194.488 66.1935 194.208 66.0781C193.927 65.9627 193.673 65.793 193.458 65.5789C193.244 65.3647 193.074 65.1103 192.958 64.8302C192.842 64.5501 192.783 64.2499 192.783 63.9469H192.787ZM187.469 75.9303L191.44 76.7817L189.312 73.8033C189.142 73.5648 189.022 73.2936 188.961 73.0069C188.9 72.7201 188.899 72.4239 188.958 72.1366C189.011 71.8521 189.123 71.582 189.288 71.3443C189.454 71.1066 189.667 70.9067 189.915 70.7577L189.951 70.7224C190.418 70.4319 190.98 70.336 191.517 70.4553C192.053 70.5745 192.522 70.8993 192.822 71.3601L196.899 77.6005V94.8668H187.465L187.469 75.9303ZM167.578 109.541C167.932 108.088 168.217 106.634 168.5 105.146C170.125 95.9376 170.531 86.5558 169.707 77.2419C170.926 76.8079 172.121 76.3108 173.288 75.7527V95.963H220.409C220.257 96.297 220.126 96.6405 220.018 96.9911L219.274 99.5765L217.82 99.1861C217.634 99.143 217.444 99.1193 217.253 99.1155C216.726 99.1208 216.22 99.3158 215.826 99.6646C215.432 100.013 215.177 100.493 215.108 101.014C215.039 101.536 215.161 102.065 215.45 102.505C215.74 102.944 216.179 103.264 216.686 103.406L218.103 103.796L217.536 105.888L223.209 105.391C223.542 105.361 223.874 105.464 224.132 105.676C224.39 105.888 224.554 106.194 224.588 106.526V106.561C224.604 106.726 224.588 106.892 224.539 107.051C224.49 107.209 224.411 107.356 224.305 107.483C224.088 107.736 223.785 107.9 223.454 107.944L216.823 108.547L216.753 108.972C216.548 110.22 216.65 111.498 217.052 112.697C217.454 113.896 218.142 114.979 219.057 115.851C219.659 116.416 220.355 116.872 221.114 117.198H212.355L202.427 132.624L204.409 118.087L208.522 118.939V99.012L183.774 104.188V107.737C178.329 107.825 172.905 108.429 167.575 109.542L167.578 109.541ZM184.845 112.874V105.04L207.465 100.288V117.59L204.558 116.987L205.09 113.195C205.145 112.887 205.129 112.57 205.043 112.268C204.957 111.967 204.803 111.69 204.594 111.457C204.389 111.228 204.138 111.046 203.856 110.923C203.574 110.801 203.269 110.741 202.962 110.748H202.927C202.559 110.756 202.196 110.839 201.861 110.991C201.525 111.144 201.225 111.363 200.977 111.635C200.95 111.581 200.914 111.533 200.871 111.493C200.666 111.263 200.415 111.081 200.133 110.959C199.852 110.836 199.547 110.776 199.24 110.783H199.204C198.836 110.792 198.473 110.874 198.138 111.027C197.803 111.179 197.502 111.398 197.254 111.67C197.228 111.617 197.191 111.569 197.148 111.528C196.943 111.299 196.692 111.117 196.41 110.995C196.129 110.872 195.824 110.813 195.517 110.82H195.482C195.114 110.827 194.751 110.91 194.416 111.062C194.08 111.215 193.779 111.433 193.531 111.706C193.505 111.652 193.469 111.605 193.425 111.564C193.221 111.335 192.969 111.153 192.688 111.03C192.406 110.908 192.101 110.848 191.794 110.855H191.759C191.121 110.872 190.509 111.112 190.03 111.533C189.551 111.954 189.234 112.529 189.135 113.159L189.028 113.833L184.845 112.874ZM190.199 113.228C190.262 112.855 190.452 112.515 190.736 112.264C191.019 112.013 191.38 111.867 191.759 111.85H191.794C191.947 111.848 192.099 111.879 192.239 111.94C192.38 112.001 192.506 112.091 192.609 112.204C192.712 112.325 192.787 112.467 192.83 112.62C192.873 112.773 192.882 112.934 192.857 113.091L191.794 120.606L192.856 120.75L193.919 113.234C193.983 112.86 194.173 112.52 194.457 112.269C194.741 112.018 195.102 111.872 195.48 111.855H195.515C195.668 111.853 195.82 111.884 195.961 111.945C196.101 112.006 196.227 112.096 196.331 112.209C196.433 112.33 196.509 112.472 196.551 112.625C196.594 112.778 196.604 112.939 196.579 113.096L195.515 120.612L196.579 120.754L197.642 113.237C197.706 112.864 197.896 112.524 198.179 112.273C198.463 112.022 198.824 111.876 199.202 111.858H199.238C199.391 111.857 199.543 111.888 199.684 111.949C199.824 112.01 199.95 112.099 200.054 112.212C200.156 112.334 200.232 112.476 200.274 112.629C200.317 112.782 200.327 112.942 200.302 113.099L199.233 120.604L200.297 120.746L201.36 113.229C201.424 112.856 201.613 112.516 201.897 112.265C202.181 112.014 202.542 111.868 202.92 111.85H202.955C203.109 111.849 203.26 111.88 203.401 111.941C203.542 112.002 203.668 112.092 203.771 112.205C203.874 112.326 203.949 112.468 203.992 112.621C204.035 112.774 204.044 112.934 204.02 113.091L200.473 138.76L201.538 138.902L202.069 135.144L204.161 131.882L214.761 138.973L208.065 149.362H185.267L190.199 113.228ZM110.318 144.004L119.395 112.661H124.393L113.757 149.392H79.3265L80.8864 144.004H110.318ZM81.2096 142.94L81.9895 140.281L85.0058 142.905L85.0765 142.975H81.2061L81.2096 142.94ZM46.4598 140.141H72.4864L72.9474 139.857L75.6777 134.893C76.0726 134.161 76.629 133.529 77.3046 133.043C77.9802 132.558 78.7574 132.233 79.5773 132.092C80.4004 131.948 81.2455 131.991 82.0497 132.218C82.854 132.445 83.5966 132.85 84.2225 133.404L89.3631 137.942C89.6319 138.177 89.8516 138.462 90.0096 138.782C90.1676 139.102 90.2609 139.449 90.2839 139.805C90.307 140.161 90.2594 140.518 90.144 140.856C90.0286 141.193 89.8475 141.504 89.6113 141.771L89.576 141.807C89.3387 142.076 89.0505 142.297 88.728 142.455C88.4055 142.613 88.0549 142.706 87.6964 142.729C86.9745 142.761 86.2671 142.52 85.7142 142.055L82.0628 138.9L81.2122 139.148L78.2277 149.362H37.2764C36.3445 149.365 35.4269 149.133 34.6088 148.687C33.7907 148.241 33.0986 147.595 32.5968 146.81C32.0896 146.029 31.7823 145.135 31.7019 144.208C31.6215 143.281 31.7705 142.348 32.1357 141.491L35.433 133.939H48.3386L45.9634 139.4L46.4598 140.141ZM58.1244 100.786C58.3433 100.785 58.5601 100.828 58.7624 100.912C58.9647 100.995 59.1486 101.118 59.3034 101.273C59.4582 101.428 59.581 101.611 59.6647 101.814C59.7484 102.016 59.7913 102.233 59.7911 102.452V102.487C59.7913 102.706 59.7484 102.923 59.6647 103.125C59.581 103.327 59.4583 103.511 59.3034 103.666C59.1486 103.821 58.9648 103.943 58.7625 104.027C58.5602 104.111 58.3433 104.154 58.1244 104.154H54.4367L54.2954 104.402C53.5363 105.7 52.5655 106.863 51.423 107.841H51.3876C50.4956 107.838 49.6202 107.6 48.8489 107.152C48.0775 106.704 47.4374 106.062 46.9924 105.289L46.0703 105.82C46.5164 106.585 47.1202 107.247 47.8416 107.76C48.563 108.274 49.3855 108.628 50.2544 108.799C48.2165 110.484 46.6728 112.689 45.7868 115.18C45.1876 115.16 44.6079 114.963 44.1209 114.613C43.6922 114.289 43.3623 113.852 43.1681 113.351C42.9739 112.85 42.923 112.305 43.0212 111.776L44.1209 104.685C45.3381 104.597 46.4901 104.102 47.3907 103.278C48.2913 102.455 48.8879 101.352 49.084 100.147C49.205 99.3254 49.0819 98.4862 48.7298 97.734L58.0546 92.6993L55.8208 100.748H58.1252L58.1244 100.786ZM48.0904 96.8851C47.4498 96.1609 46.5676 95.6947 45.6084 95.5734L46.0694 92.2408H56.742L48.0904 96.8851ZM45.006 96.6016C45.4456 96.5852 45.8832 96.6683 46.2863 96.8446C46.6894 97.0209 47.0474 97.2859 47.3339 97.6198C47.6203 97.9537 47.8277 98.3479 47.9407 98.7731C48.0536 99.1983 48.0691 99.6435 47.9861 100.076C47.8259 101.062 47.3283 101.962 46.5783 102.622C45.8282 103.282 44.8722 103.661 43.8735 103.695C43.4339 103.712 42.9962 103.628 42.5931 103.452C42.19 103.276 41.8319 103.011 41.5456 102.677C41.2593 102.343 41.0521 101.948 40.9394 101.523C40.8268 101.098 40.8117 100.652 40.8951 100.22C41.0384 99.2269 41.5308 98.3169 42.2841 97.6536C43.0374 96.9903 44.0024 96.6171 45.006 96.6007V96.6016ZM47.0269 85.5024C47.1745 84.6025 47.63 83.7819 48.3154 83.1805C49.0009 82.5791 49.8738 82.2344 50.7852 82.2051H50.8559C51.2537 82.1939 51.6491 82.2719 52.0128 82.4335C52.3766 82.595 52.6995 82.836 52.958 83.1387C53.2164 83.4413 53.4038 83.798 53.5064 84.1826C53.609 84.5672 53.6241 84.9698 53.5508 85.361L52.7355 91.1756H46.2116L47.0269 85.5024ZM36.4611 98.5501L37.0644 92.2391H45.006L44.5449 95.5717C43.3788 95.7144 42.2899 96.2298 41.4402 97.0411C40.5905 97.8524 40.0255 98.9164 39.8291 100.075C39.7584 100.509 39.7584 100.952 39.8291 101.386L36.9929 102.911C36.5187 101.509 36.3377 100.025 36.4611 98.551V98.5501ZM38.2709 105.393L38.2356 105.322C37.9298 104.857 37.6573 104.372 37.4203 103.868L40.1505 102.379C40.3037 102.737 40.5068 103.071 40.7538 103.372C41.344 104.042 42.144 104.492 43.0229 104.648L41.9534 111.634C41.8301 112.351 41.9072 113.088 42.1763 113.763C42.4453 114.439 42.8958 115.027 43.478 115.463C44.0625 115.88 44.7458 116.136 45.4601 116.208C45.3533 116.562 45.2826 116.917 45.2119 117.236L45.0697 117.945H39.4395L40.1135 113.407C40.5092 110.6 39.8522 107.745 38.2692 105.394L38.2709 105.393ZM12.7787 160.807C11.9476 159.428 11.4879 157.857 11.4444 156.248C11.4009 154.639 11.7751 153.045 12.5305 151.624L29.8313 119.044H54.8237L48.7962 132.872H35.8941L38.1985 127.624L37.2411 127.198L31.1809 141.061C30.7341 142.079 30.5485 143.192 30.6409 144.3C30.7334 145.408 31.1009 146.475 31.7102 147.405C32.3194 148.335 33.1512 149.098 34.13 149.624C35.1088 150.151 36.2036 150.426 37.3152 150.422H56.6024L53.0569 175.311L46.5331 165.525L46.1073 165.277H20.7901C19.1787 165.308 17.5881 164.91 16.1804 164.126C14.7728 163.341 13.5983 162.197 12.777 160.81L12.7787 160.807ZM22.0328 166.373H36.8162L22.0311 175.767L22.0328 166.373ZM16.3578 180.629L20.9676 177.687V187.684L16.3578 180.629ZM33.4121 206.796L22.0311 189.35V177.049L26.4987 174.212L35.6459 188.253L33.4121 206.796ZM41.6733 194.741V195.627L27.3889 173.645L38.8053 166.377H45.8255L52.2787 176.056C49.0517 177.993 46.3797 180.732 44.5217 184.005C42.6636 187.279 41.6825 190.977 41.6733 194.741ZM77.2703 207.611L69.4347 198.003L88.616 185.31L107.053 187.827L77.2703 207.611ZM87.6981 184.601L60.3582 202.683L61.1028 196.443C61.7022 191.46 60.4943 186.428 57.6986 182.261L53.9403 176.588L57.6986 150.351H59.8618L87.6981 184.601ZM203.703 207.793H197.038L198.172 205.207C198.411 204.647 198.507 204.036 198.452 203.43C198.396 202.823 198.19 202.24 197.853 201.732C197.522 201.228 197.069 200.814 196.536 200.529C196.004 200.244 195.408 200.097 194.804 200.102H194.734C194.028 200.098 193.336 200.301 192.744 200.685C192.152 201.069 191.685 201.618 191.401 202.264L188.954 207.793H168.357C167.671 207.812 166.999 207.592 166.456 207.172C165.914 206.752 165.533 206.157 165.379 205.488C165.197 204.826 165.246 204.122 165.516 203.491C165.787 202.859 166.263 202.339 166.868 202.013L189.453 189.462H210.904L203.703 207.793ZM211.255 188.402H184.669L205.266 150.465H210.052L214.342 180.531L211.255 188.402ZM227.285 168.689H218.953L215.124 178.475L211.117 150.43H227.285V149.362H209.341L218.24 135.573L217.353 135.005L215.371 138.091L204.771 131L212.958 118.271H232.033L252.349 154.825C253.151 156.239 253.564 157.841 253.546 159.467C253.527 161.092 253.077 162.684 252.243 164.079C251.422 165.484 250.246 166.65 248.834 167.458C247.422 168.267 245.822 168.691 244.194 168.688L227.285 168.689Z" fill="black"/>
<path d="M224.268 101.494C224.777 101.494 225.19 101.081 225.19 100.572C225.19 100.063 224.777 99.6499 224.268 99.6499C223.759 99.6499 223.346 100.063 223.346 100.572C223.346 101.081 223.759 101.494 224.268 101.494Z" fill="black"/>
<path d="M225.545 97.1677C225.032 96.9735 224.478 96.9171 223.937 97.0042C223.396 97.0913 222.887 97.3188 222.461 97.6641L223.134 98.5154C223.421 98.2902 223.762 98.1427 224.122 98.087C224.483 98.0314 224.852 98.0695 225.194 98.1976C225.536 98.3258 225.839 98.5397 226.074 98.8189C226.31 99.098 226.469 99.433 226.538 99.7916L227.566 99.5788C227.465 99.0368 227.226 98.53 226.872 98.1075C226.518 97.6851 226.061 97.3613 225.545 97.1677Z" fill="black"/>
<path d="M85.0001 99.1188H99.7137C100.732 99.1229 101.728 99.4146 102.587 99.9604C103.447 100.506 104.134 101.284 104.571 102.203L108.294 110.075C108.553 110.645 108.973 111.126 109.502 111.46C110.031 111.794 110.647 111.965 111.272 111.954C111.896 111.956 112.507 111.781 113.035 111.448C113.562 111.115 113.984 110.639 114.251 110.075L117.937 102.239C118.374 101.32 119.062 100.542 119.921 99.9961C120.78 99.4502 121.777 99.1583 122.795 99.1541H137.509C139.23 99.1534 140.879 98.4697 142.096 97.2532C143.313 96.0367 143.997 94.387 143.998 92.6665V60.4719C143.997 58.7514 143.313 57.1015 142.096 55.8849C140.88 54.6682 139.23 53.9843 137.509 53.9834H85.0354C83.3148 53.9843 81.665 54.6682 80.4483 55.8849C79.2317 57.1015 78.5478 58.7514 78.5469 60.4719V92.6294C78.5455 94.3447 79.2238 95.9906 80.4333 97.2068C81.6427 98.4231 83.2848 99.1106 85.0001 99.1188ZM79.6147 60.4719C79.6158 59.0327 80.1883 57.6528 81.2064 56.6356C82.2245 55.6183 83.6048 55.0469 85.044 55.0469H137.518C138.23 55.0469 138.936 55.1872 139.594 55.4598C140.252 55.7325 140.85 56.1321 141.354 56.6359C141.857 57.1397 142.257 57.7377 142.529 58.3959C142.802 59.0541 142.942 59.7596 142.942 60.4719V92.6294C142.943 93.3421 142.803 94.048 142.531 94.7067C142.258 95.3654 141.859 95.964 141.355 96.4682C140.851 96.9725 140.253 97.3725 139.595 97.6454C138.936 97.9183 138.23 98.0588 137.518 98.0588H122.791C121.572 98.059 120.378 98.4058 119.349 99.0587C118.319 99.7116 117.496 100.644 116.977 101.746L113.29 109.582C113.112 109.959 112.832 110.279 112.482 110.505C112.131 110.73 111.724 110.853 111.308 110.858C110.887 110.87 110.473 110.754 110.119 110.526C109.766 110.299 109.489 109.969 109.325 109.582L105.602 101.71C105.079 100.611 104.255 99.6812 103.226 99.029C102.198 98.3768 101.006 98.0282 99.7878 98.0234H85.0708C83.6315 98.0223 82.2517 97.4498 81.2344 96.4317C80.2171 95.4136 79.6457 94.0333 79.6457 92.5941V60.4719H79.6147Z" fill="black"/>
<path d="M97.2679 86.6025C99.9467 86.6026 102.565 85.8084 104.793 84.3203C107.02 82.8321 108.756 80.7169 109.782 78.242C110.807 75.7672 111.075 73.0439 110.553 70.4165C110.03 67.7891 108.74 65.3757 106.846 63.4815C104.952 61.5872 102.539 60.2972 99.9114 59.7745C97.2841 59.2518 94.5608 59.52 92.0858 60.5451C89.6109 61.5702 87.4956 63.3062 86.0073 65.5335C84.519 67.7608 83.7246 70.3795 83.7246 73.0583C83.7303 76.6486 85.159 80.0901 87.6976 82.6289C90.2362 85.1676 93.6777 86.5965 97.2679 86.6025ZM97.2679 85.5381C95.6001 85.54 93.9492 85.205 92.4139 84.5535C90.8787 83.9019 89.4909 82.947 88.3336 81.7462L94.5739 77.8465L92.9778 68.1314C92.8461 67.3186 93.0403 66.4868 93.5183 65.8164C93.9962 65.146 94.7193 64.6911 95.5305 64.5506H95.602C96.4148 64.4189 97.2466 64.6131 97.917 65.091C98.5874 65.5689 99.0423 66.292 99.1828 67.1032L99.6086 69.6887L102.374 69.2285C102.657 69.1961 102.943 69.2566 103.189 69.4008C103.433 69.5807 103.598 69.8472 103.65 70.1454C103.681 70.4295 103.619 70.7158 103.473 70.9615C103.3 71.1962 103.048 71.3598 102.764 71.4217L99.9981 71.8828L101.097 78.5489L106.203 81.7376C105.046 82.94 103.659 83.8965 102.123 84.5495C100.588 85.2026 98.9364 85.5389 97.2679 85.5381ZM97.2679 60.613C100.576 60.6171 103.748 61.9331 106.088 64.2724C108.428 66.6117 109.744 69.7834 109.749 73.0919C109.753 75.9667 108.749 78.7519 106.912 80.9628L102.054 77.9465L101.204 72.8058L102.906 72.5223C103.477 72.4262 103.987 72.1072 104.324 71.6355C104.496 71.3979 104.616 71.127 104.677 70.8401C104.738 70.5532 104.739 70.2567 104.679 69.9696C104.58 69.398 104.261 68.888 103.79 68.5494C103.319 68.2108 102.734 68.0709 102.161 68.1598L100.459 68.4442L100.211 66.9188C100.024 65.8251 99.4123 64.8497 98.509 64.2054C97.6056 63.5612 96.4841 63.3005 95.3892 63.4802H95.3185C94.2246 63.6668 93.249 64.2785 92.6046 65.1819C91.9602 66.0853 91.6993 67.207 91.879 68.302L93.3682 77.3079L87.589 80.9275C85.7575 78.7132 84.7547 75.9301 84.7527 73.0566C84.7793 69.7522 86.1086 66.5917 88.452 64.2617C90.7953 61.9318 93.9634 60.6206 97.2679 60.613Z" fill="black"/>
<path d="M137.934 66.9243H114.889V67.9878H137.934V66.9243Z" fill="black"/>
<path d="M137.934 78.1641H114.889V79.2275H137.934V78.1641Z" fill="black"/>
<path d="M51.9201 101.068C52.4293 101.068 52.8421 100.655 52.8421 100.146C52.8421 99.6369 52.4293 99.2241 51.9201 99.2241C51.4108 99.2241 50.998 99.6369 50.998 100.146C50.998 100.655 51.4108 101.068 51.9201 101.068Z" fill="black"/>
</svg>
