<svg width="150" height="74" viewBox="0 0 150 74" fill="none" xmlns="http://www.w3.org/2000/svg">
<path d="M18.6453 0.192181C17.4933 0.336187 16.3413 1.63219 14.0373 5.66419C9.42934 14.0162 3.52534 34.3202 3.23734 55.3442C2.51734 55.3442 1.65334 55.4882 0.789336 55.4882C-0.794664 55.6322 0.357336 58.3682 2.51734 58.6562C1.79734 59.0882 2.51734 60.2402 3.38134 60.9602C3.52534 64.1282 3.52534 67.7282 4.38934 70.7522C5.10934 73.2002 8.13334 73.9202 8.42134 72.6242C8.56534 72.6242 8.56534 70.7522 8.56534 69.7442C8.85334 67.5842 9.57334 63.8402 10.0053 61.6802C21.0933 62.2562 36.3573 72.6242 46.2933 66.2882C47.0133 65.7122 45.5733 64.5602 44.9973 64.7042C31.3173 67.7282 24.6933 60.5282 11.3013 58.0802C35.9253 54.7682 54.0693 36.0482 56.3733 20.2082C58.2453 7.82419 50.6133 0.0481825 44.2773 0.336187C39.0933 0.624184 33.7653 6.38419 30.7413 9.84019C19.6533 22.5122 13.1733 38.2082 8.70934 54.4802C7.70134 54.6242 10.2933 23.3762 20.0853 6.67218C20.0853 7.39218 20.0853 7.96818 19.9413 8.40019C19.7973 8.97619 21.2373 10.1282 21.5253 9.55218C23.6853 6.24018 22.5333 2.06418 20.0853 0.624184C19.5093 0.336187 19.0773 0.192181 18.6453 0.192181ZM44.8533 3.21618C55.2213 3.21618 55.6533 26.5442 34.3413 42.8162C27.7173 47.8562 19.9413 51.6002 11.7333 53.7602C15.9093 38.0642 22.5333 22.6562 33.0453 10.5602C37.6533 5.37618 41.8293 3.21618 44.8533 3.21618ZM61.3098 34.1762C56.9898 34.1762 50.7978 42.8162 52.8138 51.7442C54.2538 58.0802 60.0138 61.9682 65.1978 58.3682C68.6538 56.0642 72.6858 50.1602 77.0058 44.1122C77.4378 43.3922 75.4218 41.6642 74.8458 42.5282C70.9578 47.7122 64.3338 57.5042 58.7178 55.6322C57.2778 54.0482 57.2778 50.1602 57.7098 48.1442C61.0218 46.7042 63.0378 44.4002 64.7658 41.8082C65.3418 40.9442 66.0618 39.9362 66.3498 38.7842C66.9258 36.1922 63.9018 34.3202 61.5978 34.1762C61.5978 34.1762 61.4538 34.1762 61.3098 34.1762ZM63.6138 38.3522C63.1818 40.9442 60.5898 43.5362 58.5738 45.1202C59.8698 41.8082 62.4618 39.0722 63.6138 38.3522ZM83.442 35.6162C81.858 35.6162 80.418 36.1922 79.122 37.0562C72.066 41.6642 71.058 49.4402 73.218 52.0322C76.242 55.4882 80.562 49.4402 84.018 45.5522C84.45 48.0002 86.61 49.4402 88.626 49.4402C92.226 49.4402 95.538 46.7042 98.274 44.6882C98.994 44.1122 97.41 42.8162 96.834 43.2482C94.818 44.6882 92.658 45.8402 90.21 46.5602C86.754 47.4242 85.746 47.7122 85.746 43.5362C85.746 42.9602 84.594 41.6642 84.018 42.3842C81.426 45.1202 77.106 50.5922 74.658 51.1682C74.226 49.5842 76.818 43.8242 83.874 40.2242C84.594 39.9362 85.746 39.3602 86.322 39.7922C89.346 41.9522 89.49 37.3442 85.026 35.9042C84.45 35.6162 83.874 35.6162 83.442 35.6162ZM105.373 35.4722C104.941 35.4722 104.365 35.6162 103.789 35.7602C101.773 36.3362 99.9007 37.9202 98.4607 39.2162C89.2447 47.8562 94.4287 58.8002 102.205 57.5042C104.365 57.2162 106.237 55.7762 108.109 54.6242C112.573 51.4562 117.037 48.1442 121.357 44.6882C122.077 44.1122 120.205 42.5282 119.485 43.1042C115.885 45.9842 106.669 53.0402 102.349 54.4802C92.7007 57.7922 100.477 41.8082 108.253 39.6482C108.397 39.9362 108.397 40.3682 108.397 40.3682C108.253 41.5202 110.125 43.1042 111.133 42.2402C113.437 40.2242 109.981 35.4722 105.373 35.4722ZM132.323 8.54418C131.891 8.54418 131.603 8.68818 131.315 9.12019C123.971 22.3682 119.075 36.9122 116.627 51.8882C115.187 61.1042 115.187 63.1202 116.339 64.8482C117.059 65.7122 118.067 66.5762 119.219 66.1442C120.371 65.8562 120.371 64.4162 120.515 63.4082C120.947 60.2402 120.515 61.2482 122.387 56.9282C125.267 50.5922 129.443 42.2402 134.915 38.7842C133.043 44.6882 129.155 52.3202 133.619 56.4962C134.915 57.6482 136.931 58.6562 138.659 57.7922C140.243 57.0722 141.251 55.6322 142.259 54.1922C144.707 50.7362 147.155 47.2802 149.603 43.6802C149.891 43.2482 148.595 42.0962 148.163 42.6722C144.419 48.0002 142.979 49.4402 140.243 52.3202C139.379 53.1842 138.083 54.7682 136.787 54.7682C135.635 50.0162 142.259 40.3682 140.387 36.0482C139.379 33.4562 135.491 31.5842 133.475 34.1762C129.155 39.9362 124.979 46.8482 122.099 52.6082C122.819 48.1442 123.971 43.5362 125.267 39.0722C132.611 13.2962 139.235 13.1522 134.771 9.69619C134.339 9.26418 133.187 8.68818 132.323 8.54418Z" fill="#020A13"/>
</svg>
