<?xml version="1.0" encoding="utf-8"?>
<!-- Generator: Adobe Illustrator 17.0.0, SVG Export Plug-In . SVG Version: 6.00 Build 0)  -->
<!DOCTYPE svg PUBLIC "-//W3C//DTD SVG 1.1//EN" "http://www.w3.org/Graphics/SVG/1.1/DTD/svg11.dtd">
<svg version="1.1" id="Layer_1" xmlns="http://www.w3.org/2000/svg" xmlns:xlink="http://www.w3.org/1999/xlink" x="0px" y="0px"
	 width="564px" height="490px" viewBox="0 0 564 490" enable-background="new 0 0 564 490" xml:space="preserve">
<g>
	<defs>
		
			<rect id="SVGID_1_" x="88.736" y="127.317" transform="matrix(0.601 -0.7993 0.7993 0.601 -83.1892 160.4507)" width="60.724" height="72.446"/>
	</defs>
	<clipPath id="SVGID_2_">
		<use xlink:href="#SVGID_1_"  overflow="visible"/>
	</clipPath>
	<g clip-path="url(#SVGID_2_)">
		<path d="M92.839,176.666c0.102,0.077,0.205,0.154,0.384,0.128c0.102,0.077,0.18-0.027,0.36-0.053
			c0.18-0.026,0.258-0.13,0.335-0.233c0.078-0.103,0.155-0.207,0.131-0.387c0.078-0.103-0.025-0.18-0.049-0.36
			c-0.025-0.18-0.229-0.334-0.332-0.411c-0.102-0.077-0.205-0.154-0.282-0.051c-0.18,0.027-0.36,0.053-0.438,0.156
			c-0.078,0.104-0.258,0.13-0.233,0.31c-0.078,0.103-0.155,0.207-0.053,0.284c0.025,0.18,0.049,0.36,0.152,0.437
			C92.635,176.512,92.737,176.589,92.839,176.666z"/>
		<path d="M86.01,167.006c-0.18,0.027-0.18,0.027-0.36,0.053c-0.18,0.026-0.335,0.233-0.491,0.439
			c0.049,0.361,0.176,0.618,0.226,0.978c0.102,0.077,0.205,0.154,0.385,0.128l0.18-0.027c0.36-0.052,0.593-0.362,0.646-0.646
			C86.804,167.441,86.473,167.03,86.01,167.006z"/>
		<path d="M90.132,164.933c0.462,0.024,0.875-0.312,0.826-0.673c0.028-0.463-0.303-0.874-0.663-0.822
			c-0.462-0.024-0.875,0.312-0.826,0.673C89.338,164.497,89.669,164.908,90.132,164.933z"/>
		<path d="M89.548,172.737c0.462,0.024,0.875-0.312,0.826-0.672c0.028-0.464-0.303-0.875-0.663-0.822
			c-0.462-0.024-0.875,0.312-0.826,0.672C88.857,172.379,89.086,172.713,89.548,172.737z"/>
		<path d="M93.826,161.084c0.102,0.076,0.205,0.153,0.384,0.127c0.102,0.077,0.18-0.026,0.36-0.053
			c0.258-0.129,0.491-0.439,0.544-0.723c0.053-0.283-0.176-0.617-0.381-0.771c-0.102-0.077-0.205-0.154-0.282-0.05
			c-0.18,0.026-0.36,0.052-0.438,0.156c-0.258,0.129-0.413,0.336-0.364,0.696C93.495,160.673,93.622,160.93,93.826,161.084z"/>
		<path d="M93.243,168.888c0.102,0.077,0.205,0.154,0.384,0.127c0.102,0.077,0.18-0.026,0.36-0.052
			c0.258-0.13,0.491-0.44,0.544-0.723c0.053-0.284-0.176-0.618-0.381-0.771c-0.102-0.077-0.205-0.154-0.282-0.051
			c-0.18,0.026-0.36,0.053-0.438,0.156c-0.258,0.13-0.413,0.336-0.364,0.696C93.116,168.631,93.039,168.734,93.243,168.888z"/>
		<path d="M86.938,152.993c0.462,0.024,0.875-0.312,0.826-0.672c0.028-0.464-0.303-0.875-0.663-0.822l-0.18,0.026
			c-0.36,0.053-0.593,0.363-0.723,0.75c0.025,0.18,0.049,0.36,0.254,0.514C86.476,152.969,86.758,153.019,86.938,152.993z"/>
		<path d="M91.12,149.348c0.462,0.024,0.875-0.312,0.826-0.672c0.028-0.464-0.303-0.875-0.663-0.822
			c-0.462-0.024-0.875,0.312-0.826,0.672C90.326,148.913,90.658,149.324,91.12,149.348z"/>
		<path d="M90.536,157.154c0.462,0.024,0.875-0.312,0.826-0.672c0.028-0.464-0.303-0.875-0.663-0.822
			c-0.462-0.025-0.875,0.312-0.826,0.672C89.844,156.796,90.074,157.13,90.536,157.154z"/>
		<path d="M94.815,145.5c0.102,0.077,0.205,0.153,0.385,0.127c0.102,0.077,0.18-0.026,0.36-0.053
			c0.18-0.026,0.258-0.129,0.335-0.232c0.078-0.104,0.155-0.207,0.131-0.387c0.078-0.103-0.025-0.18-0.049-0.361
			c-0.025-0.18-0.229-0.334-0.332-0.411c-0.102-0.076-0.205-0.153-0.282-0.05c-0.18,0.026-0.36,0.053-0.438,0.156
			c-0.078,0.103-0.258,0.129-0.233,0.31c-0.078,0.103-0.155,0.206-0.053,0.283c0.025,0.18,0.049,0.36,0.152,0.437
			C94.61,145.346,94.713,145.423,94.815,145.5z"/>
		<path d="M94.231,153.304c0.102,0.077,0.205,0.154,0.384,0.128c0.102,0.077,0.18-0.026,0.36-0.053
			c0.258-0.129,0.491-0.439,0.544-0.723c0.053-0.283-0.176-0.617-0.381-0.771c-0.102-0.077-0.205-0.154-0.282-0.05
			c-0.18,0.026-0.36,0.052-0.438,0.155c-0.258,0.13-0.413,0.337-0.364,0.697C93.899,152.894,94.026,153.151,94.231,153.304z"/>
		<path d="M86.517,159.304c-0.462-0.025-0.875,0.312-0.826,0.672c-0.028,0.464,0.303,0.875,0.663,0.822
			c0.462,0.024,0.875-0.312,0.826-0.672C87.208,159.662,86.979,159.328,86.517,159.304z"/>
		<path d="M101.003,177.309c0.283,0.051,0.54-0.079,0.696-0.285c0.077-0.104,0.155-0.207,0.13-0.387
			c0.078-0.103-0.024-0.18-0.049-0.36c-0.127-0.257-0.434-0.488-0.716-0.539c-0.283-0.05-0.618,0.182-0.773,0.389
			c-0.078,0.103-0.155,0.207-0.053,0.283c0.025,0.181,0.049,0.361,0.152,0.438C100.517,177.105,100.721,177.259,101.003,177.309z"/>
		<path d="M100.557,183.44c-0.18,0.026-0.36,0.052-0.437,0.156c-0.18,0.026-0.335,0.233-0.311,0.413
			c0.487,0.204,0.896,0.512,1.383,0.716l0.078-0.103c0.077-0.103,0.077-0.103,0.053-0.283c0,0,0.077-0.104-0.025-0.181
			C101.249,183.798,101.02,183.464,100.557,183.44z"/>
		<path d="M104.679,181.366c0.463,0.024,0.875-0.312,0.826-0.672c0.028-0.464-0.303-0.875-0.663-0.822
			c-0.462-0.024-0.875,0.312-0.826,0.672C103.886,180.931,104.217,181.342,104.679,181.366z"/>
		<path d="M96.821,180.954c0.462,0.025,0.875-0.312,0.826-0.672c0.028-0.464-0.303-0.875-0.663-0.822
			c-0.462-0.024-0.875,0.312-0.826,0.672C96.13,180.596,96.359,180.93,96.821,180.954z"/>
		<path d="M108.374,177.517c0.102,0.077,0.204,0.154,0.384,0.127c0.283,0.051,0.54-0.079,0.695-0.285
			c0.078-0.103,0.156-0.207,0.131-0.387c0.078-0.103-0.025-0.18-0.049-0.36c-0.127-0.257-0.434-0.488-0.716-0.539
			c-0.18,0.027-0.36,0.053-0.438,0.156c-0.078,0.104-0.258,0.13-0.233,0.31c-0.077,0.103-0.155,0.207-0.053,0.284
			c0.025,0.18,0.049,0.36,0.152,0.437C108.169,177.363,108.271,177.44,108.374,177.517z"/>
		<path d="M107.79,185.322c0.102,0.077,0.205,0.154,0.384,0.127c0.463,0.024,0.876-0.312,0.826-0.672
			c0.029-0.464-0.303-0.875-0.663-0.822c-0.18,0.026-0.36,0.053-0.437,0.156c-0.258,0.13-0.413,0.336-0.364,0.696
			C107.458,184.911,107.585,185.168,107.79,185.322z"/>
		<path d="M101.991,161.726c0.463,0.024,0.875-0.312,0.826-0.672c0.028-0.464-0.303-0.875-0.663-0.822
			c-0.462-0.025-0.875,0.312-0.826,0.672C101.198,161.291,101.529,161.702,101.991,161.726z"/>
		<path d="M101.485,169.427c0.462,0.025,0.875-0.311,0.826-0.672c0.028-0.463-0.303-0.874-0.663-0.822
			c-0.463-0.024-0.875,0.312-0.826,0.673C100.794,169.069,101.023,169.403,101.485,169.427z"/>
		<path d="M105.667,165.783c0.462,0.024,0.875-0.312,0.825-0.673c0.029-0.463-0.303-0.874-0.663-0.821
			c-0.462-0.025-0.875,0.311-0.825,0.672C104.873,165.348,105.204,165.758,105.667,165.783z"/>
		<path d="M97.81,165.37c0.462,0.024,0.875-0.312,0.826-0.672c0.028-0.464-0.303-0.875-0.663-0.822
			c-0.462-0.024-0.875,0.312-0.826,0.672C97.119,165.012,97.348,165.346,97.81,165.37z"/>
		<path d="M105.083,173.587c0.462,0.025,0.875-0.312,0.826-0.672c0.028-0.464-0.303-0.874-0.663-0.822
			c-0.462-0.024-0.875,0.312-0.826,0.672C104.392,173.229,104.621,173.563,105.083,173.587z"/>
		<path d="M97.406,173.149c0.462,0.024,0.875-0.312,0.826-0.672c0.028-0.464-0.303-0.875-0.663-0.822
			c-0.462-0.025-0.875,0.312-0.826,0.672C96.612,172.714,96.944,173.125,97.406,173.149z"/>
		<path d="M109.362,161.933c0.102,0.077,0.205,0.154,0.385,0.127c0.462,0.025,0.875-0.312,0.826-0.672
			c0.028-0.464-0.304-0.875-0.664-0.822c-0.18,0.026-0.36,0.053-0.437,0.156c-0.258,0.13-0.413,0.336-0.364,0.697
			C109.031,161.522,109.158,161.779,109.362,161.933z"/>
		<path d="M108.778,169.737c0.102,0.077,0.205,0.154,0.385,0.128c0.462,0.024,0.875-0.312,0.826-0.672
			c0.028-0.464-0.304-0.875-0.664-0.822c-0.18,0.026-0.36,0.052-0.437,0.156c-0.258,0.129-0.413,0.336-0.364,0.696
			C108.447,169.327,108.574,169.584,108.778,169.737z"/>
		<path d="M102.877,146.065c0.282,0.05,0.54-0.079,0.695-0.286c0.078-0.103,0.155-0.206,0.131-0.386
			c0.077-0.104-0.025-0.181-0.05-0.361c-0.127-0.257-0.433-0.488-0.716-0.538c-0.282-0.051-0.617,0.182-0.773,0.389
			c-0.077,0.103-0.155,0.206-0.052,0.283c0.024,0.18,0.049,0.36,0.151,0.437C102.492,145.937,102.697,146.091,102.877,146.065z"/>
		<path d="M102.473,153.844c0.462,0.024,0.875-0.312,0.826-0.673c-0.049-0.36-0.303-0.874-0.663-0.822
			c-0.462-0.024-0.875,0.312-0.826,0.673C101.679,153.408,102.011,153.819,102.473,153.844z"/>
		<path d="M106.552,150.122c0.463,0.024,0.875-0.312,0.826-0.673c0.028-0.463-0.303-0.874-0.663-0.822
			c-0.462-0.024-0.875,0.312-0.826,0.673C105.861,149.763,106.192,150.174,106.552,150.122z"/>
		<path d="M98.798,149.787c0.462,0.024,0.875-0.312,0.826-0.673c0.028-0.463-0.303-0.874-0.663-0.822
			c-0.462-0.024-0.875,0.312-0.826,0.673C98.004,149.351,98.335,149.762,98.798,149.787z"/>
		<path d="M106.071,158.004c0.462,0.024,0.875-0.312,0.826-0.672c0.028-0.464-0.304-0.875-0.663-0.822
			c-0.463-0.025-0.875,0.312-0.826,0.672C105.277,157.569,105.609,157.98,106.071,158.004z"/>
		<path d="M98.393,157.565c0.462,0.025,0.875-0.311,0.826-0.672c0.028-0.464-0.303-0.874-0.663-0.822
			c-0.462-0.024-0.875,0.312-0.826,0.673C97.599,157.13,97.931,157.541,98.393,157.565z"/>
		<path d="M110.248,146.272c0.102,0.077,0.204,0.154,0.384,0.128c0.283,0.05,0.54-0.079,0.695-0.286
			c0.078-0.103,0.156-0.206,0.131-0.387c0.078-0.103-0.025-0.18-0.049-0.36c-0.127-0.257-0.434-0.488-0.716-0.539
			c-0.18,0.027-0.36,0.053-0.438,0.156c-0.078,0.104-0.257,0.13-0.233,0.31c-0.077,0.104-0.155,0.207-0.053,0.284
			c0.025,0.18,0.049,0.36,0.152,0.437C110.145,146.195,110.248,146.272,110.248,146.272z"/>
		<path d="M109.766,154.154c0.102,0.077,0.205,0.154,0.385,0.128c0.462,0.024,0.875-0.312,0.825-0.672
			c0.029-0.464-0.303-0.875-0.663-0.822c-0.18,0.026-0.36,0.052-0.437,0.156c-0.258,0.129-0.413,0.336-0.364,0.696
			C109.434,153.744,109.561,154.001,109.766,154.154z"/>
		<path d="M103.46,138.26c0.385,0.128,0.696-0.285,0.826-0.672c0.029-0.464-0.303-0.875-0.663-0.822
			c-0.462-0.024-0.875,0.312-0.826,0.672C102.667,137.825,102.998,138.236,103.46,138.26z"/>
		<path d="M107.54,134.538c0.18-0.026,0.283,0.051,0.36-0.053c0.258-0.129,0.413-0.336,0.466-0.619
			c-0.54,0.079-0.977,0.235-1.517,0.314C106.976,134.437,107.283,134.668,107.54,134.538z"/>
		<path d="M107.059,142.42c0.462,0.024,0.875-0.312,0.826-0.673c0.028-0.463-0.303-0.874-0.663-0.822
			c-0.462-0.024-0.875,0.312-0.826,0.673C106.265,141.984,106.597,142.395,107.059,142.42z"/>
		<path d="M99.279,141.905c0.462,0.024,0.875-0.312,0.825-0.672c0.029-0.464-0.303-0.875-0.663-0.822
			c-0.462-0.024-0.875,0.312-0.826,0.672C98.587,141.547,98.919,141.958,99.279,141.905z"/>
		<path d="M110.754,138.57c0.103,0.077,0.205,0.154,0.385,0.128c0.462,0.024,0.875-0.312,0.903-0.776
			c0.029-0.463-0.303-0.874-0.663-0.822c-0.18,0.027-0.36,0.053-0.437,0.156c-0.258,0.13-0.413,0.336-0.364,0.697
			C110.423,138.159,110.55,138.416,110.754,138.57z"/>
		<path d="M121.806,209.277c0.025,0.18,0.229,0.334,0.512,0.385c0,0,0.102,0.077,0.18-0.027l0.18-0.026c0,0,0.077-0.103,0.18-0.026
			c0.18-0.027,0.257-0.13,0.335-0.233c0.077-0.103,0.155-0.207,0.13-0.387c0.078-0.103-0.024-0.18-0.049-0.36
			c-0.025-0.18-0.229-0.334-0.331-0.411c-0.103-0.077-0.205-0.154-0.283-0.051c0,0-0.102-0.077-0.18,0.027
			c-0.18,0.026-0.437,0.155-0.592,0.362c-0.078,0.103-0.156,0.207-0.053,0.283c0,0,0,0-0.078,0.104
			C121.679,209.02,121.704,209.2,121.806,209.277z"/>
		<path d="M115.629,193.64c0.462,0.024,0.875-0.312,0.825-0.673c0.029-0.463-0.303-0.874-0.663-0.822
			c-0.462-0.024-0.875,0.312-0.826,0.673C114.757,193.308,115.166,193.615,115.629,193.64z"/>
		<path d="M119.226,197.8c0.462,0.025,0.875-0.312,0.826-0.672c0.028-0.464-0.304-0.875-0.664-0.822
			c-0.462-0.024-0.875,0.312-0.825,0.672C118.432,197.365,118.764,197.776,119.226,197.8z"/>
		<path d="M118.719,205.502c0.463,0.024,0.875-0.312,0.826-0.672c0.028-0.464-0.303-0.875-0.663-0.822
			c-0.282-0.051-0.617,0.182-0.773,0.389c-0.077,0.103-0.155,0.206-0.053,0.283C118.028,205.144,118.257,205.478,118.719,205.502z"
			/>
		<path d="M123.204,194.001c0,0,0.102,0.077,0.18-0.026c0.102,0.077,0.18-0.027,0.359-0.053c0.258-0.13,0.491-0.439,0.544-0.723
			c0.053-0.283-0.176-0.617-0.381-0.771c-0.102-0.077-0.204-0.154-0.282-0.051c0,0-0.102-0.077-0.18,0.027
			c-0.36,0.052-0.593,0.362-0.724,0.749C122.512,193.643,122.741,193.977,123.204,194.001z"/>
		<path d="M122.722,201.883c0,0,0.102,0.077,0.18-0.026c0.102,0.077,0.18-0.026,0.36-0.053c0.257-0.129,0.49-0.439,0.543-0.723
			c0.053-0.283-0.176-0.617-0.381-0.771c-0.102-0.077-0.204-0.154-0.282-0.05c0,0-0.102-0.077-0.18,0.026
			c-0.36,0.053-0.593,0.362-0.723,0.749C122.108,201.422,122.337,201.756,122.722,201.883z"/>
		<path d="M116.539,178.16c0.282,0.05,0.539-0.079,0.695-0.286c0.077-0.103,0.155-0.206,0.13-0.387
			c0.078-0.103-0.024-0.18-0.049-0.36c-0.127-0.257-0.434-0.488-0.716-0.538c-0.282-0.051-0.618,0.182-0.773,0.388
			c-0.078,0.104-0.155,0.207-0.053,0.284c0.025,0.18,0.049,0.36,0.152,0.437C116.052,177.955,116.256,178.109,116.539,178.16z"/>
		<path d="M116.032,185.861c0.463,0.024,0.875-0.312,0.826-0.672c0.028-0.464-0.303-0.875-0.663-0.822
			c-0.462-0.024-0.875,0.312-0.826,0.672C115.341,185.503,115.57,185.837,116.032,185.861z"/>
		<path d="M120.214,182.216c0.462,0.024,0.875-0.312,0.826-0.672c0.028-0.464-0.303-0.875-0.663-0.822
			c-0.463-0.025-0.875,0.312-0.826,0.672C119.42,181.781,119.752,182.192,120.214,182.216z"/>
		<path d="M112.357,181.804c0.462,0.024,0.875-0.312,0.825-0.672c0.029-0.464-0.303-0.875-0.663-0.822
			c-0.462-0.024-0.875,0.312-0.826,0.672C111.665,181.446,111.972,181.677,112.357,181.804z"/>
		<path d="M119.708,189.918c0.462,0.024,0.875-0.312,0.825-0.672c0.029-0.464-0.303-0.875-0.663-0.822
			c-0.462-0.024-0.875,0.312-0.825,0.672C118.939,189.663,119.245,189.894,119.708,189.918z"/>
		<path d="M111.952,189.583c0.463,0.024,0.875-0.312,0.826-0.672c0.028-0.464-0.303-0.875-0.663-0.822
			c-0.462-0.024-0.875,0.312-0.826,0.672C111.159,189.148,111.49,189.559,111.952,189.583z"/>
		<path d="M124.114,178.521c0,0,0.102,0.077,0.18-0.026c0.102,0.077,0.18-0.027,0.359-0.053c0.18-0.026,0.258-0.13,0.336-0.233
			c0.077-0.103,0.155-0.206,0.13-0.387c0.078-0.103-0.024-0.18-0.049-0.36c-0.025-0.18-0.229-0.334-0.332-0.411
			c-0.102-0.077-0.204-0.154-0.282-0.05c0,0-0.102-0.077-0.18,0.026c-0.18,0.026-0.437,0.156-0.593,0.362
			c-0.077,0.104-0.155,0.207-0.053,0.284c0.025,0.18,0.05,0.36,0.152,0.437C123.807,178.29,123.909,178.367,124.114,178.521z"/>
		<path d="M123.71,186.299c0,0,0.102,0.077,0.18-0.026c0.102,0.077,0.18-0.027,0.36-0.053c0.257-0.13,0.49-0.439,0.543-0.723
			c0.053-0.283-0.176-0.617-0.381-0.771c-0.102-0.077-0.204-0.154-0.282-0.051c0,0-0.102-0.077-0.18,0.027
			c-0.36,0.052-0.593,0.362-0.723,0.749C123.096,185.838,123.325,186.172,123.71,186.299z"/>
		<path d="M117.424,162.499c0.462,0.024,0.875-0.312,0.826-0.673c0.028-0.463-0.303-0.874-0.663-0.821
			c-0.463-0.025-0.875,0.311-0.826,0.672C116.733,162.14,117.142,162.448,117.424,162.499z"/>
		<path d="M117.02,170.278c0.462,0.024,0.875-0.312,0.826-0.673c0.028-0.463-0.303-0.874-0.663-0.822
			c-0.462-0.024-0.875,0.312-0.826,0.673C116.226,169.842,116.558,170.253,117.02,170.278z"/>
		<path d="M121.099,166.556c0.462,0.024,0.875-0.312,0.826-0.673c0.028-0.463-0.303-0.874-0.663-0.822
			c-0.462-0.024-0.875,0.312-0.826,0.673C120.408,166.197,120.739,166.608,121.099,166.556z"/>
		<path d="M113.344,166.221c0.462,0.024,0.875-0.312,0.826-0.672c0.106-0.567-0.303-0.875-0.765-0.899
			c-0.463-0.024-0.876,0.312-0.826,0.672C112.55,165.786,112.96,166.094,113.344,166.221z"/>
		<path d="M120.618,174.437c0.463,0.024,0.875-0.312,0.826-0.672c0.028-0.464-0.303-0.875-0.663-0.822
			c-0.462-0.024-0.875,0.312-0.826,0.672C119.825,174.002,120.234,174.31,120.618,174.437z"/>
		<path d="M112.94,174c0.462,0.024,0.875-0.312,0.826-0.673c0.028-0.463-0.303-0.874-0.663-0.821
			c-0.462-0.025-0.875,0.311-0.826,0.672C112.146,173.565,112.478,173.976,112.94,174z"/>
		<path d="M125.102,162.937c0,0,0.102,0.077,0.18-0.026c0.102,0.077,0.179-0.027,0.359-0.053c0.258-0.13,0.491-0.439,0.544-0.723
			c0.053-0.283-0.176-0.617-0.381-0.771c-0.102-0.077-0.205-0.154-0.282-0.051c0,0-0.102-0.077-0.18,0.027
			c-0.36,0.052-0.593,0.362-0.724,0.749C124.488,162.476,124.717,162.81,125.102,162.937z"/>
		<path d="M124.595,170.639c0,0,0.103,0.077,0.18-0.027c0.102,0.077,0.18-0.026,0.36-0.052c0.258-0.13,0.491-0.44,0.544-0.723
			c0.053-0.284-0.177-0.618-0.381-0.772c-0.103-0.076-0.205-0.153-0.283-0.05c0,0-0.102-0.077-0.179,0.026
			c-0.36,0.053-0.593,0.363-0.724,0.749C124.084,170.254,124.313,170.588,124.595,170.639z"/>
		<path d="M118.412,146.915c0.282,0.051,0.539-0.079,0.695-0.285c0.077-0.104,0.155-0.207,0.13-0.387
			c0.078-0.103-0.024-0.18-0.049-0.36c-0.127-0.258-0.434-0.488-0.716-0.539c-0.282-0.05-0.618,0.182-0.773,0.389
			c-0.077,0.103-0.155,0.206-0.053,0.283c0.025,0.181,0.049,0.361,0.152,0.438C117.925,146.711,118.232,146.942,118.412,146.915z"/>
		<path d="M118.008,154.693c0.463,0.025,0.876-0.312,0.826-0.672c0.029-0.464-0.303-0.875-0.663-0.822
			c-0.462-0.024-0.875,0.312-0.826,0.672C117.215,154.258,117.546,154.669,118.008,154.693z"/>
		<path d="M122.087,150.973c0.462,0.024,0.875-0.312,0.826-0.673c0.028-0.463-0.303-0.874-0.663-0.822
			c-0.462-0.024-0.875,0.312-0.826,0.673C121.396,150.614,121.727,151.025,122.087,150.973z"/>
		<path d="M114.332,150.637c0.462,0.024,0.875-0.312,0.826-0.672c0.028-0.464-0.303-0.875-0.663-0.822
			c-0.462-0.024-0.875,0.312-0.826,0.672C113.538,150.202,113.87,150.613,114.332,150.637z"/>
		<path d="M121.606,158.854c0.462,0.024,0.875-0.312,0.825-0.672c0.029-0.464-0.303-0.875-0.663-0.822
			c-0.462-0.024-0.875,0.312-0.826,0.672C120.812,158.419,121.221,158.726,121.606,158.854z"/>
		<path d="M113.826,158.339c0.463,0.024,0.875-0.312,0.826-0.673c0.028-0.463-0.303-0.874-0.663-0.822
			c-0.462-0.024-0.875,0.312-0.826,0.673C113.135,157.98,113.466,158.391,113.826,158.339z"/>
		<path d="M126.089,147.354c0,0,0.103,0.077,0.18-0.027c0.102,0.077,0.18-0.026,0.36-0.052c0.18-0.027,0.258-0.13,0.335-0.233
			c0.078-0.104,0.156-0.207,0.131-0.387c0.078-0.103-0.025-0.18-0.049-0.36c-0.025-0.181-0.23-0.334-0.332-0.411
			c-0.102-0.077-0.205-0.154-0.282-0.051c0,0-0.103-0.077-0.18,0.026c-0.18,0.027-0.438,0.156-0.593,0.363
			c-0.078,0.103-0.155,0.206-0.053,0.283c0.025,0.181,0.049,0.361,0.152,0.438C125.782,147.123,125.885,147.2,126.089,147.354z"/>
		<path d="M125.583,155.055c0,0,0.102,0.077,0.18-0.026c0.102,0.077,0.18-0.026,0.36-0.053c0.257-0.129,0.49-0.439,0.543-0.722
			c0.053-0.284-0.176-0.618-0.38-0.772c-0.103-0.077-0.205-0.154-0.283-0.05c0,0-0.102-0.077-0.18,0.026
			c-0.36,0.053-0.593,0.362-0.723,0.749C125.072,154.671,125.301,155.005,125.583,155.055z"/>
		<path d="M118.996,139.11c0.462,0.024,0.875-0.312,0.826-0.672c0.028-0.464-0.304-0.875-0.664-0.822
			c-0.462-0.024-0.875,0.312-0.825,0.672C118.202,138.675,118.534,139.086,118.996,139.11z"/>
		<path d="M123.075,135.388c0.103,0.077,0.18-0.026,0.36-0.052c0.18-0.027,0.335-0.233,0.491-0.44
			c-0.487-0.204-0.974-0.409-1.461-0.613c0,0-0.077,0.103,0.025,0.18c0.025,0.18,0.049,0.361,0.151,0.437
			C122.511,135.287,122.793,135.338,123.075,135.388z"/>
		<path d="M115.32,135.053c0.462,0.025,0.875-0.312,0.826-0.672c0.053-0.283-0.05-0.36-0.074-0.54
			c-0.127-0.258-0.332-0.411-0.692-0.359c-0.282-0.05-0.54,0.079-0.772,0.389c-0.078,0.103-0.156,0.207-0.131,0.387
			C114.526,134.618,114.858,135.029,115.32,135.053z"/>
		<path d="M122.593,143.271c0.463,0.024,0.876-0.312,0.826-0.673c0.029-0.463-0.303-0.874-0.663-0.821
			c-0.487-0.205-0.797,0.208-0.928,0.595C121.8,142.836,122.131,143.247,122.593,143.271z"/>
		<path d="M114.814,142.755c0.462,0.025,0.875-0.312,0.825-0.672c0.029-0.464-0.303-0.875-0.663-0.822
			c-0.462-0.024-0.875,0.312-0.826,0.672C114.122,142.397,114.454,142.808,114.814,142.755z"/>
		<path d="M126.571,139.471c0,0,0.103,0.077,0.18-0.026c0.103,0.077,0.18-0.026,0.36-0.053c0.258-0.129,0.491-0.439,0.544-0.722
			c0.053-0.284-0.177-0.618-0.381-0.772c-0.102-0.077-0.205-0.154-0.282-0.05c0,0-0.103-0.077-0.18,0.026
			c-0.36,0.053-0.593,0.363-0.724,0.749C125.957,139.01,126.289,139.421,126.571,139.471z"/>
		<path d="M130.175,210.074c0.282,0.051,0.54-0.079,0.695-0.285c0.078-0.104,0.155-0.207,0.131-0.387
			c0.077-0.103-0.025-0.18-0.05-0.36c-0.127-0.258-0.434-0.488-0.716-0.539c-0.282-0.051-0.617,0.182-0.773,0.389
			c-0.077,0.103-0.155,0.206-0.053,0.283c0.025,0.181,0.05,0.361,0.152,0.438C129.61,209.973,129.893,210.024,130.175,210.074z"/>
		<path d="M130.881,194.44c0.102,0.077,0.102,0.077,0.179-0.026c0.18-0.027,0.283,0.05,0.36-0.053l0.078-0.103
			c-0.307-0.231-0.511-0.385-0.818-0.616c-0.103-0.077-0.307-0.231-0.41-0.307c-0.077,0.103-0.077,0.103-0.053,0.283
			c0.025,0.18,0.05,0.36,0.152,0.437C130.574,194.209,130.701,194.466,130.881,194.44z"/>
		<path d="M130.579,202.295c0.462,0.025,0.875-0.312,0.826-0.672c0.028-0.464-0.303-0.874-0.663-0.822
			c-0.462-0.024-0.875,0.312-0.826,0.672C129.888,201.937,130.117,202.271,130.579,202.295z"/>
		<path d="M134.761,198.65c0.282,0.051,0.618-0.182,0.773-0.389l0.078-0.103c0,0,0.077-0.103-0.025-0.18
			c0.028-0.464-0.303-0.875-0.663-0.822c-0.103-0.077-0.18,0.026-0.36,0.053l-0.078,0.103c-0.257,0.129-0.413,0.336-0.363,0.696
			C133.967,198.215,134.299,198.626,134.761,198.65z"/>
		<path d="M126.981,198.135c0.462,0.024,0.875-0.312,0.826-0.672c0.028-0.464-0.303-0.875-0.663-0.822
			c-0.462-0.024-0.875,0.312-0.826,0.672C126.29,197.777,126.519,198.111,126.981,198.135z"/>
		<path d="M134.255,206.352c0.462,0.024,0.875-0.312,0.826-0.672c0.028-0.464-0.303-0.875-0.663-0.822
			c-0.463-0.024-0.875,0.312-0.826,0.672C133.564,205.994,133.793,206.328,134.255,206.352z"/>
		<path d="M126.499,206.018c0.462,0.024,0.875-0.312,0.826-0.673c0.028-0.463-0.303-0.874-0.663-0.822
			c-0.462-0.024-0.875,0.312-0.826,0.673C125.705,205.582,126.037,205.993,126.499,206.018z"/>
		<path d="M137.95,202.503c0.102,0.076,0.205,0.153,0.385,0.127c0.102,0.077,0.282,0.051,0.462,0.024l0.077-0.103
			c-0.049-0.36-0.2-0.798-0.43-1.132c-0.102-0.077-0.024-0.18-0.127-0.257c0,0-0.18,0.027-0.257,0.13
			c-0.078,0.103-0.078,0.103-0.156,0.206c-0.077,0.104-0.233,0.31-0.208,0.49C137.618,202.092,137.745,202.349,137.95,202.503z"/>
		<path d="M127.102,190.306c0.103,0.077,0.103,0.077,0.283,0.051s0.18-0.026,0.36-0.053c-0.23-0.334-0.381-0.771-0.635-1.285
			c0,0-0.103-0.077-0.025-0.181c-0.257,0.13-0.335,0.233-0.388,0.517c0,0,0,0-0.078,0.103
			C126.771,189.895,126.898,190.152,127.102,190.306z"/>
		<path d="M132.959,163.349c0.462,0.024,0.875-0.312,0.826-0.672c0.028-0.464-0.303-0.875-0.663-0.822
			c-0.462-0.024-0.875,0.312-0.826,0.672C132.268,162.991,132.677,163.299,132.959,163.349z"/>
		<path d="M128.879,167.071c0.462,0.025,0.875-0.312,0.826-0.672c0.028-0.464-0.303-0.875-0.663-0.822
			c-0.463-0.024-0.875,0.312-0.826,0.672C128.085,166.636,128.494,166.944,128.879,167.071z"/>
		<path d="M128.373,174.773c0.102,0.077,0.18-0.026,0.18-0.026c0.36-0.053,0.695-0.286,0.723-0.75
			c-0.025-0.18-0.025-0.18-0.049-0.36c-0.102-0.077-0.025-0.18-0.127-0.257c-0.205-0.154-0.307-0.231-0.589-0.281
			c-0.463-0.025-0.875,0.312-0.826,0.672C127.681,174.415,127.911,174.749,128.373,174.773z"/>
		<path d="M133.947,147.766c0.282,0.05,0.539-0.079,0.695-0.286c0.077-0.103,0.155-0.206,0.13-0.387
			c0.078-0.103-0.024-0.18-0.049-0.36c-0.049-0.36-0.254-0.514-0.614-0.462c-0.282-0.05-0.617,0.183-0.773,0.389
			c-0.077,0.104-0.155,0.207-0.053,0.284c0.025,0.18,0.05,0.36,0.152,0.437C133.46,147.561,133.767,147.792,133.947,147.766z"/>
		<path d="M133.543,155.544c0.462,0.025,0.875-0.311,0.825-0.672c0.029-0.464-0.303-0.874-0.663-0.822
			c-0.462-0.024-0.875,0.312-0.826,0.673C132.749,155.109,133.08,155.52,133.543,155.544z"/>
		<path d="M136.959,151.001c-0.053,0.283,0.05,0.36,0.074,0.54C137.009,151.361,136.984,151.181,136.959,151.001z"/>
		<path d="M129.867,151.487c0.463,0.024,0.875-0.312,0.826-0.672c0.028-0.464-0.303-0.875-0.663-0.822
			c-0.462-0.024-0.875,0.312-0.826,0.672C129.074,151.052,129.483,151.36,129.867,151.487z"/>
		<path d="M137.039,159.627c0.028-0.464,0.159-0.85,0.265-1.417c0,0,0.078-0.104-0.025-0.181c-0.18,0.027-0.36,0.053-0.617,0.183
			c-0.156,0.206-0.233,0.31-0.209,0.49c-0.053,0.283-0.028,0.463,0.074,0.54C136.552,159.422,136.757,159.576,137.039,159.627z"/>
		<path d="M129.361,159.189c0.463,0.024,0.876-0.312,0.826-0.673c0.029-0.463-0.303-0.874-0.663-0.821
			c-0.462-0.025-0.875,0.311-0.826,0.672C128.67,158.83,129.002,159.241,129.361,159.189z"/>
		<path d="M130.349,143.605c0.462,0.024,0.875-0.312,0.826-0.672c0.028-0.464-0.304-0.875-0.664-0.822
			c-0.462-0.024-0.875,0.312-0.825,0.672C129.657,143.247,129.887,143.581,130.349,143.605z"/>
	</g>
</g>
<circle fill="#FFFFFF" fill-opacity="0.15" cx="290.5" cy="245" r="244.5"/>
<circle fill="#FFFFFF" fill-opacity="0.35" cx="290.5" cy="245" r="136.297"/>
<g>
	<path fill="#FFFFFF" d="M274.734,265.923h122.077c8.284,0,15,6.716,15,15V403c0,8.284-6.716,15-15,15H274.734
		c-8.284,0-15-6.716-15-15V280.923C259.734,272.639,266.45,265.923,274.734,265.923z"/>
	<path fill="none" stroke="#DFE3EB" d="M274.734,266.423h122.077c8.008,0,14.5,6.492,14.5,14.5V403c0,8.008-6.492,14.5-14.5,14.5
		H274.734c-8.008,0-14.5-6.492-14.5-14.5V280.923C260.234,272.915,266.726,266.423,274.734,266.423z"/>
</g>
<linearGradient id="SVGID_3_" gradientUnits="userSpaceOnUse" x1="58.3954" y1="304.2053" x2="130.4525" y2="223.7253" gradientTransform="matrix(1 0 0 -1 242.34 610.04)">
	<stop  offset="0" style="stop-color:#00C6FC"/>
	<stop  offset="1" style="stop-color:#0060F9"/>
</linearGradient>
<path fill="url(#SVGID_3_)" d="M335.772,307.527c-20.682,0-37.434,16.752-37.434,37.434c0,20.683,16.752,37.435,37.434,37.435
	c20.683,0,37.435-16.752,37.435-37.435C373.207,324.279,356.424,307.527,335.772,307.527z M348.438,351.98h-37.622
	c-0.125-4.336,3.307-7.923,7.643-8.048c1.809,0,3.525,0.686,4.866,1.903c2.09-4.711,6.738-7.768,11.886-7.83
	C342.729,338.192,348.656,344.462,348.438,351.98z M360.697,351.98h-8.173c0-0.156,0-0.312,0-0.468
	c0.125-2.246,2.059-3.993,4.336-3.868C359.106,347.769,360.822,349.703,360.697,351.98z"/>
<g>
	<path fill="#FFFFFF" d="M139.797,85.845h164.171c11.046,0,20,8.954,20,20v164.171c0,11.046-8.954,20-20,20H139.797
		c-11.046,0-20-8.954-20-20V105.845C119.797,94.799,128.751,85.845,139.797,85.845z"/>
	<path fill="none" stroke="#DFE3EB" d="M139.797,86.345h164.171c10.77,0,19.5,8.73,19.5,19.5v164.171c0,10.77-8.73,19.5-19.5,19.5
		H139.797c-10.77,0-19.5-8.73-19.5-19.5V105.845C120.297,95.075,129.027,86.345,139.797,86.345z"/>
</g>
<g>
	<defs>
		<rect id="SVGID_4_" x="461.333" y="389" width="14" height="15.75"/>
	</defs>
	<clipPath id="SVGID_5_">
		<use xlink:href="#SVGID_4_"  overflow="visible"/>
	</clipPath>
	<g clip-path="url(#SVGID_5_)">
		<path fill="#020A13" d="M468.2,393.118c-0.461,0-0.824-0.375-0.824-0.821v-2.476c0-0.459,0.377-0.821,0.824-0.821
			c0.461,0,0.824,0.376,0.824,0.821v2.463C469.037,392.743,468.661,393.118,468.2,393.118z"/>
		<path fill="#020A13" d="M468.2,404.75c-0.461,0-0.824-0.376-0.824-0.821v-2.463c0-0.459,0.377-0.82,0.824-0.82
			c0.461,0,0.824,0.375,0.824,0.82v2.463C469.037,404.388,468.661,404.75,468.2,404.75z"/>
		<path fill="#020A13" d="M462.17,401.383c-0.293,0-0.572-0.153-0.726-0.418c-0.223-0.389-0.098-0.904,0.307-1.127l2.136-1.224
			c0.391-0.223,0.907-0.098,1.13,0.306c0.224,0.39,0.098,0.904-0.307,1.127l-2.135,1.224
			C462.449,401.341,462.309,401.383,462.17,401.383z"/>
		<path fill="#020A13" d="M472.275,395.567c-0.293,0-0.572-0.153-0.725-0.417c-0.224-0.39-0.098-0.905,0.307-1.127l2.135-1.225
			c0.391-0.222,0.907-0.097,1.131,0.306c0.223,0.39,0.098,0.905-0.307,1.127l-2.136,1.225
			C472.555,395.525,472.415,395.567,472.275,395.567z"/>
		<path fill="#020A13" d="M474.509,401.23c-0.14,0-0.279-0.042-0.419-0.111l-2.135-1.225c-0.391-0.222-0.531-0.737-0.307-1.127
			c0.223-0.389,0.739-0.528,1.13-0.306l2.136,1.225c0.391,0.222,0.53,0.737,0.307,1.127
			C475.067,401.091,474.788,401.23,474.509,401.23z"/>
		<path fill="#020A13" d="M464.389,395.414c-0.14,0-0.279-0.042-0.419-0.111l-2.135-1.239c-0.391-0.222-0.531-0.737-0.308-1.127
			c0.224-0.389,0.74-0.528,1.131-0.306l2.15,1.239c0.39,0.222,0.53,0.737,0.307,1.127
			C464.947,395.261,464.668,395.414,464.389,395.414z"/>
	</g>
</g>
<path fill="#020A13" d="M517.966,95.207c-0.846-0.398-1.658-0.87-2.33-1.538c-0.594-0.179-1.141-0.529-1.782-0.567
	c-0.226-0.013-0.36-0.165-0.487-0.324c-0.72-0.876-1.678-1.303-2.769-1.542c-0.53-0.115-0.974-0.535-1.53-0.605
	c-0.984-0.118-1.881-0.421-2.729-0.925c-0.248-0.151-0.576-0.238-0.863-0.24c-0.862,0.003-1.602-0.276-2.324-0.727
	c-0.467-0.293-1.057-0.304-1.586-0.426c-0.478-0.104-0.922-0.274-1.282-0.59c-1-0.877-2.178-0.901-3.333-0.551
	c-0.554,0.165-0.969,0.14-1.391-0.142c-0.612-0.4-1.284-0.545-2.003-0.534c-0.404,0.567-0.113,1.16-0.057,1.747
	c0.726,0.27,1.465,0.306,2.22,0.198c0.388-0.053,0.657,0.008,0.937,0.396c0.525,0.72,1.364,0.989,2.227,1.108
	c0.27,0.039,0.562,0.078,0.823,0.018c0.735-0.161,1.38,0.073,2.037,0.332c0.466,0.187,0.95,0.313,1.455,0.343
	c0.513,0.03,0.972,0.201,1.401,0.491c0.655,0.432,1.371,0.732,2.161,0.809c0.383,0.038,0.732,0.157,1.01,0.438
	c0.086,0.088,0.195,0.155,0.305,0.215c0.968,0.519,1.978,0.965,2.921,1.528c0.431,0.26,0.958,0.299,1.453,0.366
	c0.435,0.056,0.814,0.176,1.169,0.447c0.477,0.369,1.047,0.584,1.6,0.821c0.764,0.515,1.671,0.78,2.426,1.317
	c0.759,0.476,1.577,0.85,2.235,1.495c0.428,0.427,0.923,0.767,1.508,0.967c1.142,0.4,2.172,1.021,3.151,1.731
	c0.203,0.148,0.39,0.31,0.561,0.495c0.377,0.408,0.795,0.759,1.269,1.052c0.599,0.368,1.139,0.824,1.512,1.437
	c0.276,0.448,0.842,0.595,1.082,1.026c0.225,0.407,0.288,0.896,0.559,1.306c0.444,0.678,1.058,1.161,1.757,1.505
	c0.404,0.198,0.631,0.446,0.782,0.841c0.131,0.357,0.362,0.666,0.674,0.896c0.63,0.469,0.97,1.126,1.277,1.826
	c0.406,0.948,0.984,1.785,1.922,2.431c0.059-0.618-0.048-1.117-0.221-1.65c-0.276-0.834-0.797-1.494-1.286-2.189
	c-0.272-0.388-0.536-0.797-0.613-1.279c-0.056-0.337-0.259-0.614-0.512-0.818c-0.586-0.459-0.897-1.076-1.069-1.768
	c-0.231-0.953-0.845-1.573-1.69-2.001c-0.44-0.223-0.858-0.46-1.165-0.894c-0.286-0.404-0.814-0.556-1.17-0.933
	c-1.025-1.106-2.122-2.132-3.43-2.914c-0.197-0.118-0.362-0.271-0.502-0.454c-0.268-0.341-0.592-0.618-0.965-0.829
	c-0.198-0.11-0.379-0.25-0.511-0.447c-0.527-0.811-1.313-1.214-2.205-1.486c-0.096-0.028-0.201-0.05-0.281-0.107
	C519.619,95.789,518.805,95.483,517.966,95.207z"/>
<path fill="#020A13" d="M461.206,116.664c-0.447-0.239-0.918-0.327-1.45-0.298c-0.576,0.035-1.187-0.122-1.609-0.533
	c-0.544-0.533-1.186-0.926-1.755-1.422c-0.46-0.406-0.981-0.686-1.516-0.968c-1.05-0.546-2.116-1.071-2.676-2.218
	c-0.06-0.132-0.182-0.246-0.298-0.336c-0.478-0.369-0.791-0.827-0.946-1.412c-0.049-0.192-0.143-0.387-0.271-0.538
	c-0.574-0.648-0.733-1.551-1.323-2.192c-0.128-0.144-0.199-0.353-0.248-0.545c-0.306-1.367-0.888-2.667-0.986-4.09
	c-0.07-0.989,0.146-1.961,0.345-2.904c0.136-0.659,0.595-1.261,0.964-1.868c0.52-0.871,1.018-1.767,1.222-2.793
	c0.128-0.629,0.404-1.204,0.882-1.631c0.359-0.32,0.675-0.673,1.006-1.025c0.371-0.403,0.789-0.696,1.333-0.808
	c0.834-0.171,1.509-0.594,2.169-1.131c0.691-0.566,1.462-1.074,2.27-1.451c0.903-0.424,1.846-0.778,2.756-1.202
	c0.248-0.114,0.525-0.189,0.81-0.149c0.368,0.052,0.692-0.058,1.018-0.206c0.964-0.444,2.009-0.595,3.036-0.822
	c0.796-0.173,1.61-0.247,2.355-0.711c0.62-0.381,1.354-0.519,2.102-0.233c0.347,0.134,0.717,0.148,1.103,0.148
	c0.998,0.006,2.004-0.254,3.003-0.021c0.097,0.021,0.21,0.028,0.303-0.005c0.881-0.327,1.851-0.089,2.739-0.408
	c0.355-0.123,0.779-0.129,1.187,0.009c0.415,0.138,0.864,0.096,1.26-0.07c0.488-0.206,0.982-0.246,1.478-0.194
	c0.744,0.074,1.474,0.276,2.235,0.184c0.229-0.032,0.441,0.102,0.639,0.204c0.176,0.086,0.336,0.209,0.55,0.161
	c0.092-0.283-0.046-0.51-0.108-0.741c-0.15-0.539-0.246-1.09-0.078-1.634c0.176-0.55,0.125-1.099,0.074-1.648
	c-0.105-1.044-0.385-2.069-0.255-3.13c0.031-0.279-0.064-0.587-0.222-0.862c-0.233-0.408-0.481-0.831-0.527-1.327
	c-0.074-0.8-0.187-1.595-0.222-2.4c-0.016-0.387-0.07-0.747-0.278-1.077c-0.319-0.496-0.522-1.031-0.494-1.635
	c0.011-0.189-0.04-0.343-0.168-0.487c-0.638-0.727-0.845-1.702-1.428-2.471c-0.232-0.309-0.342-0.74-0.318-1.148
	c0.02-0.355-0.099-0.635-0.318-0.898c-0.354-0.415-0.545-0.911-0.566-1.45c-0.007-0.273-0.085-0.49-0.262-0.682
	c-0.335-0.353-0.521-0.796-0.754-1.211c-0.39-0.697-0.889-1.34-1.123-2.127c-0.019-0.069-0.091-0.119-0.141-0.175
	c-0.936-0.934-1.509-2.119-2.193-3.22c-0.596-0.944-1.272-1.795-2.002-2.626c-0.432-0.495-1.105-0.754-1.427-1.334
	c-0.376-0.681-0.919-1.221-1.376-1.816c-0.618-0.809-1.165-1.66-1.966-2.32c-0.224-0.187-0.431-0.397-0.67-0.577
	c-0.695-0.518-1.49-0.898-2.052-1.628c-0.379-0.5-0.85-0.982-1.552-1.129c-0.434-0.094-0.747-0.423-0.983-0.785
	c-0.478-0.748-1.141-1.181-2-1.353c-0.374-0.075-0.736-0.225-0.999-0.506c-0.556-0.586-1.24-0.921-1.988-1.177
	c-0.431-0.146-0.783-0.448-1.138-0.726c-0.13-0.106-0.279-0.259-0.178-0.45c0.103-0.199,0.317-0.118,0.475-0.094
	c0.449,0.072,0.878,0.241,1.265,0.476c0.541,0.327,1.101,0.58,1.737,0.685c0.51,0.083,0.959,0.291,1.314,0.683
	c0.617,0.695,1.377,1.157,2.261,1.428c0.468,0.141,0.87,0.377,1.107,0.845c0.163,0.32,0.432,0.51,0.738,0.71
	c0.546,0.35,1.159,0.614,1.615,1.095c0.662,0.706,1.108,1.611,1.985,2.117c0.081,0.05,0.151,0.145,0.191,0.231
	c0.243,0.507,0.672,0.797,1.157,1.03c0.464,0.217,0.861,0.551,1.059,1.032c0.133,0.311,0.343,0.482,0.63,0.605
	c0.45,0.201,0.824,0.518,1.025,0.962c0.301,0.677,0.76,1.234,1.203,1.798c1.154,1.485,2.33,2.956,3.349,4.539
	c0.112,0.166,0.206,0.361,0.24,0.552c0.056,0.344,0.23,0.589,0.45,0.845c0.708,0.83,1.172,1.812,1.606,2.799
	c0.153,0.358,0.277,0.691,0.572,0.935c0.404,0.334,0.674,0.759,0.766,1.265c0.063,0.345,0.221,0.604,0.473,0.831
	c0.467,0.421,0.746,0.945,0.831,1.564c0.038,0.252,0.092,0.498,0.207,0.717c0.218,0.414,0.321,0.845,0.279,1.312
	c-0.035,0.339,0.054,0.632,0.28,0.903c0.346,0.414,0.544,0.911,0.489,1.468c-0.027,0.317,0.023,0.638,0.198,0.868
	c0.512,0.682,0.56,1.549,0.971,2.277c0.247,0.431,0.361,0.938,0.262,1.463c-0.14,0.719-0.198,1.443,0.124,2.144
	c0.06,0.132,0.066,0.299,0.065,0.443c-0.02,0.855,0.18,1.7,0.115,2.553c-0.029,0.37,0.055,0.738,0.177,1.109
	c0.179,0.556,0.228,1.135-0.091,1.685c-0.094,0.169-0.129,0.379-0.155,0.574c-0.071,0.572-0.064,0.572,0.549,0.699
	c0.132,0.447-0.077,0.799-0.324,1.14c-0.048,0.679-0.237,1.335-0.337,2.004c-0.097,0.623-0.089,1.26-0.26,1.864
	c-0.123,0.41-0.122,0.789-0.025,1.188c0.195,0.8,0.084,1.543-0.373,2.236c-0.249,0.379-0.438,0.762-0.474,1.245
	c-0.032,0.415-0.154,0.832-0.314,1.24c-0.338,0.859-0.729,1.715-0.932,2.605c-0.214,0.935-0.68,1.787-0.804,2.742
	c-0.041,0.324-0.21,0.624-0.444,0.868c-0.346,0.366-0.471,0.821-0.553,1.302c-0.14,0.848-0.478,1.578-1.211,2.088
	c-0.394,0.273-0.76,0.577-1.048,0.97c-0.749,1.039-1.446,2.09-1.984,3.271c-0.528,1.143-1.459,2.059-2.476,2.772
	c-0.655,0.462-1.33,0.877-1.907,1.434c-0.521,0.5-1.115,0.821-1.867,0.883c-0.988,0.079-1.919,0.35-2.781,0.86
	c-0.556,0.332-1.166,0.41-1.809,0.425c-0.857,0.025-1.706,0.059-2.556-0.014c-0.309-0.025-0.594,0.079-0.886,0.146
	C462.608,117.003,461.896,117.03,461.206,116.664z M466.431,115.257c0.47-0.139,0.928-0.203,1.412-0.205
	c1.005,0.006,1.856-0.323,2.509-1.134c0.465-0.579,1.057-0.999,1.774-1.229c0.57-0.187,1.021-0.524,1.339-1.036
	c0.016-0.022,0.032-0.043,0.041-0.058c0.297-0.422,2.435-2.32,2.868-2.621c1.206-0.831,2.182-1.865,2.489-3.355
	c0.211-1.026,0.603-1.904,1.422-2.584c0.294-0.248,0.466-0.594,0.548-0.968c0.114-0.531,0.412-0.961,0.651-1.432
	c0.512-0.993,1.127-1.942,1.376-3.08c0.207-0.95,0.258-1.948,0.726-2.837c0.11-0.206,0.055-0.436,0.016-0.666
	c-0.139-0.978-0.017-1.911,0.577-2.74c0.197-0.276,0.26-0.568,0.25-0.917c-0.013-0.546,0.14-1.091,0.172-1.642
	c0.028-0.483-0.012-0.956-0.03-1.426c-0.016-0.38-0.174-0.382-0.47-0.368c-1.069,0.051-2.157,0.162-3.205-0.036
	c-1.002-0.195-1.993-0.314-3.017-0.382c-0.942-0.063-1.898-0.013-2.835-0.151c-0.165-0.025-0.356,0.002-0.525,0.045
	c-0.591,0.147-1.178,0.227-1.789,0.198c-0.535-0.031-1.05,0.105-1.525,0.35c-0.975,0.504-1.954,0.689-3.047,0.375
	c-0.566-0.162-1.173,0.136-1.755,0.261c-0.98,0.208-1.941,0.47-2.908,0.709c-0.192,0.049-0.433,0.035-0.576,0.148
	c-0.841,0.671-1.884,0.799-2.85,1.144c-0.471,0.169-0.842,0.557-1.354,0.648c-1.009,0.183-1.885,0.67-2.754,1.172
	c-0.172,0.104-0.328,0.185-0.409,0.408c-0.288,0.779-0.8,1.385-1.485,1.845c-0.126,0.084-0.281,0.158-0.356,0.275
	c-0.468,0.753-1.159,1.182-1.925,1.615c-0.516,0.288-0.932,0.931-1.098,1.565c-0.176,0.679-0.314,1.368-0.385,2.054
	c-0.088,1.496-0.206,2.997-0.248,4.495c-0.015,0.514,0.128,1.045,0.38,1.515c0.156,0.297,0.252,0.606,0.309,0.927
	c0.142,0.804,0.455,1.527,0.937,2.192c0.168,0.23,0.361,0.423,0.587,0.573c0.255,0.166,0.462,0.383,0.644,0.628
	c0.105,0.143,0.193,0.315,0.332,0.406c1.005,0.658,1.68,1.652,2.516,2.482c0.679,0.676,1.549,1.061,2.472,1.183
	c1.014,0.128,1.913,0.393,2.584,1.212c0.211,0.263,0.484,0.256,0.751,0.204c0.697-0.134,1.346,0.018,1.98,0.297
	c0.213,0.096,0.421,0.162,0.648,0.167C464.951,115.489,465.708,115.472,466.431,115.257z"/>
<path fill="#95BF47" d="M253.474,152.145c-0.081-0.571-0.57-0.897-0.978-0.897c-0.407,0-8.476-0.163-8.476-0.163
	s-6.764-6.519-7.416-7.253c-0.652-0.652-1.956-0.489-2.445-0.326c0,0-1.304,0.408-3.423,1.06c-0.326-1.141-0.896-2.527-1.63-3.994
	c-2.363-4.564-5.949-7.009-10.187-7.009c-0.326,0-0.571,0-0.897,0.082c-0.163-0.163-0.244-0.326-0.407-0.408
	c-1.875-1.956-4.238-2.934-7.091-2.852c-5.46,0.163-10.921,4.156-15.403,11.165c-3.097,4.972-5.461,11.165-6.194,15.974
	c-6.276,1.956-10.677,3.341-10.84,3.341c-3.178,0.978-3.26,1.06-3.667,4.075c-0.163,2.282-8.476,66.586-8.476,66.586l69.763,12.062
	l30.237-7.498C265.862,236.09,253.556,152.715,253.474,152.145z M227.232,145.707c-1.63,0.489-3.423,1.059-5.379,1.711
	c0-2.771-0.408-6.683-1.63-9.943C224.379,138.127,226.417,142.854,227.232,145.707z M218.185,148.478
	c-3.667,1.14-7.661,2.363-11.654,3.585c1.141-4.319,3.26-8.557,5.868-11.409c0.978-1.06,2.363-2.201,3.912-2.853
	C217.941,140.98,218.267,145.462,218.185,148.478z M210.687,134.052c1.304,0,2.364,0.245,3.26,0.897
	c-1.467,0.733-2.934,1.874-4.238,3.341c-3.504,3.749-6.194,9.536-7.253,15.159c-3.342,1.059-6.602,2.037-9.536,2.934
	C194.876,147.5,202.293,134.297,210.687,134.052z"/>
<path fill="#5E8E3E" d="M252.496,151.249c-0.407,0-8.476-0.163-8.476-0.163s-6.764-6.52-7.416-7.254
	c-0.244-0.244-0.57-0.407-0.896-0.407v100.163l30.236-7.498c0,0-12.307-83.374-12.388-83.945
	C253.393,151.575,252.904,151.249,252.496,151.249z"/>
<path fill="#FFFFFF" d="M218.919,166.815l-3.505,13.121c0,0-3.912-1.793-8.557-1.467c-6.846,0.408-6.846,4.727-6.846,5.787
	c0.407,5.868,15.811,7.172,16.707,20.945c0.652,10.84-5.705,18.256-14.996,18.826c-11.084,0.571-17.196-5.949-17.196-5.949
	l2.363-10.024c0,0,6.194,4.645,11.084,4.319c3.179-0.163,4.401-2.852,4.238-4.645c-0.489-7.661-13.04-7.172-13.855-19.805
	c-0.652-10.595,6.276-21.271,21.598-22.249C215.903,165.266,218.919,166.815,218.919,166.815z"/>
<g>
	<defs>
		<rect id="SVGID_6_" x="98.2" y="66.757" width="46.875" height="46.875"/>
	</defs>
	<clipPath id="SVGID_7_">
		<use xlink:href="#SVGID_6_"  overflow="visible"/>
	</clipPath>
	<g clip-path="url(#SVGID_7_)">
		<path fill="#FF4E62" d="M107.37,108.791c2.354-2.02,5.71-3.601,7.218-4.433c-0.921-2.621-2.132-6.98-1.938-9.126
			c0.163-1.864,0.356-4.151,0.356-6.593c-0.193-0.275-0.319-0.668-0.312-1.233c0.008-0.505,0.104-0.876,0.245-1.136
			c-0.022-0.416-0.052-0.839-0.089-1.255c-0.349-3.75,0.215-6.408,2.911-8.695c2.569-2.176,5.68-1.188,5.68-1.188
			s1.284-0.394,2.569-0.201c1.285,0.201,4.002,1.188,5.034,4.448c0.899,2.829,0.461,4.99,0.171,6.861
			c0.267,0.26,0.468,0.705,0.483,1.455c0.007,0.661-0.171,1.091-0.424,1.366c0.387,1.634,1.211,3.579,1.448,6.267
			c0.312,3.467,0.141,7.848-0.542,10.343c1.701,0.728,3.839,1.723,5.428,3.334c5.74-4.269,9.46-11.108,9.46-18.815
			c0.007-12.942-10.485-23.434-23.427-23.434S98.2,77.249,98.2,90.198C98.2,97.772,101.794,104.507,107.37,108.791z"/>
		<path fill="#1B4E61" d="M114.372,85.617l0.112,1.448c0.111-5.806,4.967-7.537,6.771-8.576c0.973,0.705,6.468,2.651,6.616,7.752
			c0.067,2.294-0.141,5.702-1.708,8.012c0.357,0.215,0.58,0.505,0.617,0.876c0.148,1.336,0.445,7.581,0.594,8.91
			c0.059,0.505,1.255,0.958,2.814,1.626c0.683-2.502,0.854-6.883,0.542-10.343c-0.238-2.688-1.062-4.633-1.448-6.267
			c-0.572,0.624-1.522,0.46-1.522,0.46l0.267-3.616c0,0,0.698-0.156,1.188,0.327c0.29-1.879,0.735-4.032-0.171-6.861
			c-1.039-3.26-3.749-4.247-5.034-4.448c-1.284-0.201-2.569,0.201-2.569,0.201s-3.111-0.987-5.68,1.188
			c-2.696,2.279-3.26,4.938-2.911,8.695c0.037,0.423,0.067,0.839,0.089,1.255C113.407,85.401,114.372,85.617,114.372,85.617z"/>
		<path fill="#1B4E61" d="M115.367,98.789c0.052-2.183,0.059-4.203,0.817-4.581c-1.032-1.515-1.433-3.438-1.597-4.967
			c-0.215,0.022-1.099,0.074-1.581-0.602c0,2.443-0.186,4.73-0.357,6.594c-0.193,2.146,1.018,6.505,1.938,9.126
			c0.283-0.156,0.498-0.282,0.632-0.386C115.412,103.831,115.3,101.618,115.367,98.789z"/>
		<path fill="#FAF8DC" d="M129.935,106.445c-0.891,2.272-13.877,1.336-14.665-0.349c-0.178-0.372-0.415-0.988-0.683-1.738
			c-1.507,0.832-4.863,2.413-7.217,4.433c3.95,3.037,8.895,4.841,14.264,4.841c5.235,0,10.076-1.715,13.974-4.626
			c-1.589-1.611-3.727-2.606-5.428-3.334C130.106,105.955,130.024,106.214,129.935,106.445z"/>
		<path fill="#FAF8DC" d="M129.935,106.444c0.089-0.23,0.171-0.482,0.245-0.764c-1.566-0.669-2.762-1.122-2.814-1.626
			c-0.148-1.337-0.445-7.581-0.594-8.911c-0.044-0.379-0.26-0.661-0.616-0.876c-0.995,1.47-2.547,2.495-4.931,2.495
			c-2.487,0-4.054-1.084-5.041-2.539c-0.758,0.379-0.765,2.398-0.817,4.581c-0.067,2.829,0.045,5.042-0.148,5.183
			c-0.134,0.104-0.349,0.23-0.632,0.386c0.268,0.75,0.505,1.366,0.684,1.737C116.058,107.774,129.052,108.717,129.935,106.444z"/>
		<path fill="#E87950" d="M127.864,86.241c-0.149-5.101-5.643-7.046-6.616-7.752c-1.804,1.039-6.653,2.77-6.772,8.576l0.163,2.168
			c0,0-0.014,0-0.052,0.007c0.164,1.53,0.565,3.453,1.597,4.967c0.007-0.007,0.015-0.007,0.022-0.015
			c2.243-0.995,5.034-0.639,5.034-0.639c2.161,0.037,3.995,0.149,4.916,0.705C127.723,91.951,127.93,88.535,127.864,86.241z
			 M125.072,86.59c0.193,0,0.349,0.156,0.349,0.349c0,0.193-0.156,0.349-0.349,0.349s-0.349-0.156-0.349-0.349
			C124.73,86.745,124.879,86.59,125.072,86.59z M116.971,86.389c0.193,0,0.349,0.156,0.349,0.349s-0.156,0.349-0.349,0.349
			s-0.349-0.156-0.349-0.349C116.629,86.545,116.785,86.389,116.971,86.389z M117.075,91.602c-0.624,0-1.136-0.505-1.136-1.136
			c0-0.631,0.505-1.136,1.136-1.136c0.631,0,1.136,0.505,1.136,1.136C118.211,91.097,117.699,91.602,117.075,91.602z
			 M121.411,90.473c-0.215,0.067-0.438,0.074-0.653,0.007l-1.017-0.297l1.366-3.208l1.351,3.163L121.411,90.473z M125.272,91.624
			c-0.623,0-1.136-0.505-1.136-1.136c0-0.631,0.505-1.136,1.136-1.136c0.631,0,1.136,0.505,1.136,1.136
			C126.408,91.119,125.896,91.624,125.272,91.624z"/>
		<path fill="#E87950" d="M116.206,94.193c-0.008,0-0.015,0.007-0.022,0.015c0.987,1.455,2.554,2.539,5.041,2.539
			c2.384,0,3.928-1.025,4.931-2.495c-0.914-0.557-2.748-0.668-4.916-0.705C121.248,93.554,118.448,93.198,116.206,94.193z"/>
		<path fill="#011E41" d="M116.971,87.087c0.193,0,0.349-0.156,0.349-0.349c0-0.193-0.156-0.349-0.349-0.349
			s-0.349,0.156-0.349,0.349C116.622,86.931,116.778,87.087,116.971,87.087z"/>
		<path fill="#011E41" d="M125.072,87.288c0.192,0,0.349-0.156,0.349-0.349c0-0.193-0.157-0.349-0.349-0.349
			c-0.193,0-0.349,0.156-0.349,0.349C124.723,87.131,124.879,87.288,125.072,87.288z"/>
		<path fill="#DE4E31" d="M117.075,91.602c0.627,0,1.136-0.509,1.136-1.136c0-0.627-0.509-1.136-1.136-1.136
			c-0.627,0-1.136,0.509-1.136,1.136C115.939,91.093,116.448,91.602,117.075,91.602z"/>
		<path fill="#DE4E31" d="M125.272,91.624c0.628,0,1.136-0.509,1.136-1.136c0-0.628-0.508-1.136-1.136-1.136
			c-0.627,0-1.136,0.509-1.136,1.136C124.136,91.115,124.645,91.624,125.272,91.624z"/>
		<path fill="#DE4E31" d="M119.733,90.183l1.018,0.297c0.215,0.059,0.445,0.059,0.653-0.007l1.04-0.341l-1.352-3.163L119.733,90.183
			z"/>
		<path fill="#DE4E31" d="M112.947,86.263c-0.142,0.267-0.238,0.631-0.246,1.136c-0.007,0.564,0.119,0.958,0.312,1.233
			C113.006,87.859,112.991,87.065,112.947,86.263z"/>
		<path fill="#DE4E31" d="M114.587,89.24c-0.066-0.616-0.096-1.173-0.111-1.611c-0.007-0.193-0.007-0.379,0-0.557l-0.111-1.448
			c0,0-0.958-0.215-1.426,0.646c0.045,0.802,0.067,1.589,0.067,2.369C113.488,89.315,114.372,89.263,114.587,89.24z"/>
		<path fill="#DE4E31" d="M114.476,87.072c0,0.186,0,0.371,0,0.557c0.015,0.438,0.045,0.995,0.111,1.611
			c0.03,0,0.052-0.007,0.052-0.007L114.476,87.072z"/>
		<path fill="#DE4E31" d="M129.282,89.062c0.253-0.275,0.431-0.705,0.423-1.366c-0.015-0.75-0.215-1.195-0.482-1.455
			c-0.045,0.29-0.089,0.564-0.119,0.839C129.022,87.711,129.111,88.357,129.282,89.062z"/>
		<path fill="#DE4E31" d="M128.027,85.914l-0.267,3.616c0,0,0.95,0.163,1.522-0.46c-0.171-0.705-0.26-1.359-0.178-1.983
			c0.029-0.275,0.074-0.557,0.119-0.839C128.725,85.758,128.027,85.914,128.027,85.914z"/>
	</g>
</g>
<g>
	<defs>
		<rect id="SVGID_8_" x="424.452" y="78.524" width="35.553" height="35.553"/>
	</defs>
	<clipPath id="SVGID_9_">
		<use xlink:href="#SVGID_8_"  overflow="visible"/>
	</clipPath>
	<g clip-path="url(#SVGID_9_)">
		<path fill="#2ECFCA" d="M442.231,78.524c-9.822,0-17.779,7.958-17.779,17.779c0,4.646,1.785,8.881,4.702,12.046
			c0.124-0.377,0.254-0.721,0.383-1.014c1.267-2.889,3.238-4.184,5.125-4.55c0.101-1.25,1.672-2.647,1.453-4.731
			c-0.237-2.185-1.065-6.161-0.209-8.915c0.856-2.754,3.171-4.939,6.269-5.097c3.091-0.158,3.767,1.639,3.767,1.639
			s3.638,1.042,3.694,5.277c0.051,4.235-2.263,8.059-2.652,10.582c-0.203,1.301-0.006,2.625,0.225,3.599
			c0.254,0.225,0.513,0.445,0.783,0.67c1.537,1.29,3.21,2.709,3.649,5.575c5.024-3.142,8.363-8.717,8.363-15.081
			C460.004,86.481,452.047,78.524,442.231,78.524z"/>
		<path fill="#FAF8DC" d="M445.036,87.225c1.368,0.957,1.976,2.726,2.117,4.787c0.304-0.034,1.2-0.022,1.256,1.397
			c0.062,1.532-1.194,1.504-1.453,1.487c-0.31,1.228-0.907,2.286-1.656,3.058c-0.163,1.797-0.377,4.764,1.127,6.42
			c0.242,0.265,0.507,0.518,0.782,0.766c-0.236-0.974-0.428-2.298-0.225-3.599c0.389-2.523,2.703-6.341,2.653-10.582
			c-0.051-4.235-3.695-5.277-3.695-5.277S445.486,86.881,445.036,87.225z"/>
		<path fill="#1B4E61" d="M435.653,104.66c-0.591-0.248-0.957-0.884-0.991-1.695c0-0.062,0-0.124,0.005-0.186
			c-1.892,0.366-3.857,1.667-5.124,4.551c-0.13,0.293-0.259,0.636-0.383,1.013c2.1,2.281,4.798,4.01,7.833,4.945
			c-0.225-0.625-0.456-1.369-0.664-2.253C435.63,108.169,435.569,106.254,435.653,104.66z"/>
		<path fill="#1B4E61" d="M447.992,105.803c-0.163,0.079-0.332,0.169-0.518,0.276c0.118,0.366,0.209,0.575,0.209,0.575l-0.434-0.439
			c-1.245,0.782-2.9,2.213-4.691,4.235c-1.065,1.199-2,2.449-2.715,3.463c0.777,0.101,1.571,0.158,2.377,0.158
			c3.458,0,6.685-0.986,9.416-2.698C451.208,108.512,449.53,107.093,447.992,105.803z"/>
		<path fill="#1B4E61" d="M447.688,106.66c0,0-0.09-0.214-0.208-0.575c-0.074,0.045-0.147,0.09-0.226,0.135L447.688,106.66z"/>
		
			<linearGradient id="SVGID_10_" gradientUnits="userSpaceOnUse" x1="204.8455" y1="511.0456" x2="205.0405" y2="508.0039" gradientTransform="matrix(1 0 0 -1 242.34 610.04)">
			<stop  offset="0" style="stop-color:#E0653D"/>
			<stop  offset="1" style="stop-color:#E87950"/>
		</linearGradient>
		<path fill="url(#SVGID_10_)" d="M447.992,105.803c-0.271-0.225-0.53-0.444-0.783-0.67c0.09,0.372,0.186,0.699,0.265,0.946
			C447.66,105.972,447.834,105.882,447.992,105.803z"/>
		
			<linearGradient id="SVGID_11_" gradientUnits="userSpaceOnUse" x1="198.6576" y1="510.6488" x2="198.8526" y2="507.6069" gradientTransform="matrix(1 0 0 -1 242.34 610.04)">
			<stop  offset="0" style="stop-color:#E0653D"/>
			<stop  offset="1" style="stop-color:#E87950"/>
		</linearGradient>
		<path fill="url(#SVGID_11_)" d="M447.254,106.22l-5.209-5.305l0.293-1.622c-0.98-0.056-2.005-0.597-2.856-1.464
			c0.164,0.518,0.288,1.042,0.327,1.605c0.18,2.416-1.532,4.708-2.861,5.198c-0.501,0.186-0.94,0.18-1.295,0.034
			c-0.085,1.594-0.023,3.503,0.67,6.375c0.214,0.884,0.445,1.633,0.665,2.253c0.923,0.281,1.881,0.495,2.86,0.625
			c0.716-1.014,1.651-2.264,2.715-3.464C444.354,108.428,446.015,107.003,447.254,106.22z"/>
		<path fill="#FAF8DC" d="M446.426,104.368c-1.503-1.65-1.289-4.618-1.126-6.42c-0.839,0.867-1.864,1.374-2.872,1.346
			c-0.028,0-0.062,0-0.09-0.006l-0.293,1.622l5.209,5.305c0.079-0.051,0.152-0.096,0.225-0.135c-0.084-0.254-0.18-0.575-0.264-0.946
			C446.933,104.886,446.669,104.632,446.426,104.368z"/>
		
			<linearGradient id="SVGID_12_" gradientUnits="userSpaceOnUse" x1="202.1447" y1="510.8722" x2="202.3397" y2="507.83" gradientTransform="matrix(1 0 0 -1 242.34 610.04)">
			<stop  offset="0" style="stop-color:#E0653D"/>
			<stop  offset="1" style="stop-color:#E87950"/>
		</linearGradient>
		<path fill="url(#SVGID_12_)" d="M446.426,104.368c-1.503-1.65-1.289-4.618-1.126-6.42c-0.839,0.867-1.864,1.374-2.872,1.346
			c-0.028,0-0.062,0-0.09-0.006l-0.293,1.622l5.209,5.305c0.079-0.051,0.152-0.096,0.225-0.135c-0.084-0.254-0.18-0.575-0.264-0.946
			C446.933,104.886,446.669,104.632,446.426,104.368z"/>
		<path fill="#E87950" d="M442.298,96.404c-0.777-0.006-1.402-0.428-1.396-0.946c0.005-0.518,0.675,0.006,1.453,0.006
			c0.259,0,0.495-0.056,0.692-0.113l1.425-7.896c-0.58,0.152-1.43,0.237-2.27,0.298c-1.481,0.101-2.027-0.236-2.911,0.366
			c-0.755,0.512-1.222,1.999-1.273,3.976c-0.017,0.614,0.04,1.177,0.135,1.706c0.158-0.265,0.445-0.445,0.772-0.445
			c0.495,0,0.895,0.4,0.895,0.895s-0.4,0.895-0.895,0.895c-0.169,0-0.332-0.051-0.468-0.13c0.265,0.839,0.603,1.599,0.873,2.365
			c0-0.327-0.005-0.501-0.005-0.501l3.412,0.152l0.13-0.71C442.698,96.376,442.507,96.404,442.298,96.404z M441.279,93.966
			l1.216-2.224l0.147,2.624l-1.183-0.073C441.296,94.281,441.2,94.107,441.279,93.966z M439.758,92.513
			c-0.152,0-0.27-0.124-0.27-0.27c0-0.152,0.124-0.27,0.27-0.27c0.147,0,0.271,0.124,0.271,0.27
			C440.029,92.395,439.91,92.513,439.758,92.513z"/>
		<path fill="#E87950" d="M444.473,87.461l-1.425,7.896c0.405-0.113,0.664-0.225,0.664,0.118c0,0.383-0.343,0.71-0.839,0.85
			l-0.129,0.71l2.63,0.118c-0.017,0.225-0.045,0.496-0.074,0.8c0.749-0.772,1.346-1.83,1.656-3.058
			c-0.028,0-0.045-0.006-0.045-0.006l0.141-2.861c0,0,0.039-0.011,0.101-0.017c-0.141-2.061-0.754-3.824-2.117-4.787
			c-0.017,0.011-0.034,0.022-0.051,0.034C444.861,87.337,444.681,87.405,444.473,87.461z M446.218,94.152
			c0,0.496-0.399,0.895-0.895,0.895c-0.496,0-0.895-0.4-0.895-0.895c0-0.496,0.399-0.896,0.895-0.896
			C445.819,93.256,446.218,93.656,446.218,94.152z M445.334,92.164c0,0.152-0.124,0.27-0.27,0.27c-0.147,0-0.27-0.124-0.27-0.27
			c0-0.152,0.123-0.27,0.27-0.27C445.21,91.893,445.334,92.011,445.334,92.164z"/>
		<path fill="#E87950" d="M439.331,96.883c0,0,0.005,0.175,0.005,0.501c0.051,0.146,0.102,0.293,0.147,0.439
			c0.856,0.867,1.875,1.408,2.855,1.464l0.405-2.258L439.331,96.883z"/>
		<path fill="#E87950" d="M445.3,97.953c0.028-0.304,0.056-0.575,0.073-0.8l-2.63-0.118l-0.405,2.258
			c0.028,0,0.062,0.006,0.09,0.006C443.436,99.327,444.461,98.82,445.3,97.953z"/>
		<path fill="#011E41" d="M439.759,92.513c0.149,0,0.27-0.121,0.27-0.27s-0.121-0.27-0.27-0.27c-0.15,0-0.271,0.121-0.271,0.27
			S439.609,92.513,439.759,92.513z"/>
		<path fill="#011E41" d="M445.063,92.434c0.15,0,0.271-0.121,0.271-0.27s-0.121-0.27-0.271-0.27c-0.149,0-0.27,0.121-0.27,0.27
			S444.914,92.434,445.063,92.434z"/>
		<path fill="#DE4E31" d="M441.459,94.292l1.177,0.068l-0.146-2.624l-1.217,2.224C441.2,94.106,441.296,94.281,441.459,94.292z"/>
		<path fill="#FFFFFF" d="M440.902,95.458c0,0.518,0.625,0.94,1.397,0.946c0.202,0,0.399-0.028,0.574-0.079l0.175-0.969
			c-0.203,0.056-0.44,0.113-0.693,0.113C441.578,95.464,440.902,94.94,440.902,95.458z"/>
		<path fill="#FFFFFF" d="M443.712,95.475c0-0.344-0.259-0.231-0.665-0.118l-0.174,0.969
			C443.363,96.179,443.706,95.852,443.712,95.475z"/>
		<path fill="#DE4E31" d="M439.821,94.258c0-0.496-0.4-0.896-0.896-0.896c-0.332,0-0.619,0.18-0.771,0.445
			c0.079,0.428,0.186,0.828,0.31,1.216c0.135,0.085,0.292,0.13,0.467,0.13C439.421,95.154,439.821,94.754,439.821,94.258z"/>
		<path fill="#DE4E31" d="M445.323,95.047c0.494,0,0.895-0.401,0.895-0.896c0-0.494-0.401-0.895-0.895-0.895
			c-0.495,0-0.896,0.401-0.896,0.895C444.427,94.646,444.828,95.047,445.323,95.047z"/>
		<path fill="#DE4E31" d="M446.956,94.895c0.259,0.023,1.514,0.045,1.453-1.487c-0.057-1.419-0.958-1.43-1.256-1.397
			c0.022,0.332,0.033,0.676,0.033,1.025C447.186,93.684,447.108,94.309,446.956,94.895z"/>
		<path fill="#DE4E31" d="M446.911,94.889c0,0,0.017,0,0.045,0.006c0.146-0.586,0.231-1.205,0.231-1.858
			c0-0.349-0.012-0.693-0.034-1.025c-0.062,0.006-0.102,0.017-0.102,0.017L446.911,94.889z"/>
		<path fill="#FAF8DC" d="M435.816,102.627c1.819-0.259,3.255-0.963,3.396-2.703c0.079-0.969,0.107-1.735,0.119-2.258
			c-1.082-1.177-1.853-2.895-1.853-4.821c0-3.548,1.599-6.454,4.95-6.386c0.907,0.017,1.656,0.214,2.269,0.557l1.251-1.34
			c0,0-0.676-1.797-3.768-1.639c-3.092,0.158-5.406,2.337-6.268,5.097c-0.856,2.754-0.028,6.736,0.208,8.915
			c0.226,2.078-1.346,3.474-1.453,4.73c0.203-0.039,0.406-0.067,0.609-0.09C435.456,102.678,435.636,102.655,435.816,102.627z"/>
		<path fill="#FAF8DC" d="M445.036,87.225c0.45-0.344,0.912-1.549,0.912-1.549l-1.25,1.34
			C444.816,87.078,444.929,87.151,445.036,87.225z"/>
		<path fill="#FAF8DC" d="M435.653,104.66c0.039-0.721,0.107-1.38,0.163-2.033c-0.18,0.023-0.36,0.045-0.546,0.062
			c-0.203,0.017-0.4,0.051-0.608,0.09c-0.006,0.062-0.006,0.124-0.006,0.186C434.696,103.776,435.062,104.418,435.653,104.66z"/>
		<path fill="#FAF8DC" d="M439.213,99.924c-0.141,1.74-1.577,2.444-3.396,2.703c-0.057,0.654-0.124,1.307-0.164,2.033
			c0.355,0.147,0.8,0.152,1.296-0.033c1.323-0.496,3.041-2.783,2.86-5.199c-0.039-0.557-0.163-1.087-0.326-1.605
			c-0.051-0.051-0.102-0.107-0.152-0.158C439.32,98.189,439.291,98.955,439.213,99.924z"/>
		<path fill="#FAF8DC" d="M438.458,95.024c-0.259-0.158-0.434-0.439-0.434-0.766c0-0.163,0.045-0.321,0.124-0.451
			c-0.096-0.529-0.152-1.092-0.135-1.706c0.05-1.977,0.518-3.469,1.273-3.976c0.884-0.597,1.43-0.265,2.911-0.366
			c0.839-0.056,1.69-0.141,2.27-0.299l0.045-0.248l0.18-0.197c-0.614-0.343-1.369-0.541-2.27-0.557
			c-3.356-0.062-4.95,2.844-4.95,6.386c0,1.926,0.772,3.644,1.853,4.821c0-0.101,0.006-0.197,0.006-0.282
			C439.06,96.618,438.722,95.858,438.458,95.024z"/>
		<path fill="#FAF8DC" d="M444.472,87.461c0.214-0.056,0.389-0.124,0.513-0.197c0.017-0.011,0.033-0.022,0.05-0.034
			c-0.107-0.073-0.219-0.146-0.338-0.214l-0.18,0.197L444.472,87.461z"/>
		<path fill="#FAF8DC" d="M439.331,97.666c0.05,0.056,0.101,0.107,0.152,0.158c-0.045-0.146-0.096-0.293-0.147-0.439
			C439.331,97.469,439.331,97.564,439.331,97.666z"/>
		<path fill="#FAF8DC" d="M438.03,94.259c0,0.327,0.174,0.608,0.433,0.766c-0.123-0.388-0.23-0.788-0.309-1.216
			C438.075,93.938,438.03,94.09,438.03,94.259z"/>
	</g>
</g>
<g>
	<defs>
		<rect id="SVGID_13_" x="529.937" y="111.98" width="22.26" height="22.26"/>
	</defs>
	<clipPath id="SVGID_14_">
		<use xlink:href="#SVGID_13_"  overflow="visible"/>
	</clipPath>
	<g clip-path="url(#SVGID_14_)">
		<path fill="#F8DF77" d="M537.479,127.505c0.271-0.222,0.476-0.511,0.627-0.839c0.342-0.726,0.43-1.632,0.43-2.373
			c-0.289-0.705-0.43-1.484-0.514-2.108l0.031,0.264c0,0-0.931,0.198-0.955-0.828c-0.014-0.529,0.187-0.744,0.388-0.833
			c-0.007-0.017-0.007-0.038-0.004-0.06c0.039-0.243,0.191-0.349,0.374-0.387c0-0.875,0.162-1.689,0.515-2.289
			c0.035-0.063,0.074-0.12,0.113-0.18c-0.244-0.331-0.025-1.167,0.677-1.636c0.842-0.564,1.502-0.751,1.283-1.689
			c0,0,1.703,0.547,2.25,1.407c0.493,0.776,0.338,1.389,0.303,1.499c0.285,0.289,0.529,0.649,0.698,1.089
			c0.106,0.275,0.197,0.956,0.215,1.802c0.088,0.021,0.169,0.053,0.236,0.106c0.103,0.077,0.152,0.187,0.148,0.317
			c0,0.011-0.003,0.025-0.007,0.035c0.191,0.089,0.381,0.3,0.392,0.797c0.021,0.931-0.751,0.892-0.892,0.878
			c-0.099,0.681-0.258,1.354-0.501,1.94c0.053,0.574,0.187,1.463,0.522,2.094c0.007,0.014,0.017,0.032,0.024,0.046
			c0.096,0.162,0.23,0.331,0.311,0.416c0.042,0.039,0.084,0.074,0.127,0.106c0.871,0.62,3.801,1.442,5.468,3.004
			c1.538-1.908,2.458-4.337,2.458-6.978c0-6.142-4.982-11.125-11.128-11.125s-11.131,4.983-11.131,11.132
			c0,2.962,1.156,5.649,3.039,7.644C534.482,128.993,536.675,128.165,537.479,127.505z"/>
		<path fill="#FAF8DC" d="M543.804,126.511c0.007,0.014,0.018,0.032,0.025,0.046C543.822,126.543,543.811,126.529,543.804,126.511z"
			/>
		<path fill="#FAF8DC" d="M544.143,126.977c0.031,0.031,0.053,0.052,0.06,0.059c-0.505,0.811-1.432,1.823-2.853,1.993
			c-2.013,0.243-3.032-0.624-3.66-1.689c0.233-0.212,0.279-0.381,0.42-0.674c-0.152,0.325-0.356,0.614-0.628,0.839
			c-0.804,0.663-3,1.488-4.503,3.251c2.028,2.148,4.902,3.488,8.089,3.488c3.505,0,6.629-1.622,8.671-4.154
			c-1.668-1.562-4.598-2.384-5.469-3.004C544.224,127.051,544.182,127.015,544.143,126.977z"/>
		
			<linearGradient id="SVGID_15_" gradientUnits="userSpaceOnUse" x1="298.624" y1="484.189" x2="298.6241" y2="482.535" gradientTransform="matrix(1 0 0 -1 242.34 610.04)">
			<stop  offset="0" style="stop-color:#E0653D"/>
			<stop  offset="1" style="stop-color:#E87950"/>
		</linearGradient>
		<path fill="url(#SVGID_15_)" d="M541.174,128.454c1.593-0.155,2.344-1.326,2.63-1.943c-0.335-0.631-0.469-1.52-0.522-2.094
			c-0.053,0.13-0.113,0.253-0.176,0.377c-0.064,0.123-0.134,0.243-0.208,0.352c-0.014,0.022-0.028,0.043-0.043,0.064
			c0,0.003-0.003,0.003-0.003,0.007c-0.014,0.021-0.028,0.039-0.042,0.056c0,0.004-0.004,0.004-0.004,0.007
			c-0.014,0.018-0.028,0.039-0.042,0.057l-0.004,0.003c-0.063,0.081-0.13,0.159-0.201,0.23c-0.003,0.003-0.003,0.003-0.007,0.007
			c-0.014,0.014-0.032,0.031-0.046,0.045c-0.003,0.004-0.007,0.008-0.01,0.011c-0.014,0.014-0.028,0.025-0.043,0.039
			c-0.003,0.003-0.007,0.007-0.014,0.01c-0.014,0.015-0.028,0.025-0.042,0.036c-0.003,0.003-0.007,0.007-0.014,0.01
			c-0.014,0.014-0.032,0.025-0.046,0.039c-0.003,0.004-0.007,0.004-0.01,0.007c-0.039,0.028-0.078,0.06-0.117,0.085
			c-0.017,0.014-0.039,0.024-0.06,0.038c-0.003,0.004-0.01,0.008-0.014,0.011c-0.014,0.011-0.032,0.018-0.046,0.028
			c-0.007,0.004-0.014,0.007-0.017,0.011c-0.014,0.007-0.029,0.014-0.043,0.025c-0.007,0.003-0.014,0.007-0.021,0.01
			c-0.014,0.007-0.028,0.014-0.042,0.021c-0.007,0.004-0.014,0.007-0.021,0.011c-0.014,0.007-0.029,0.014-0.043,0.021
			c-0.007,0.004-0.014,0.007-0.021,0.011c-0.017,0.007-0.035,0.014-0.049,0.021c-0.004,0.003-0.011,0.003-0.014,0.007
			c-0.021,0.007-0.046,0.017-0.067,0.024c-0.004,0-0.004,0-0.007,0.004c-0.021,0.007-0.043,0.014-0.06,0.021
			c-0.007,0.004-0.014,0.004-0.021,0.007c-0.014,0.004-0.032,0.007-0.046,0.014c-0.011,0.004-0.018,0.004-0.028,0.007
			c-0.015,0.004-0.029,0.007-0.046,0.011c-0.011,0.003-0.018,0.003-0.028,0.007c-0.015,0.004-0.029,0.007-0.043,0.007
			c-0.01,0-0.021,0.004-0.028,0.004c-0.014,0.003-0.032,0.003-0.046,0.007c-0.01,0-0.017,0.003-0.028,0.003
			c-0.018,0.004-0.035,0.004-0.049,0.007c-0.007,0-0.018,0.004-0.025,0.004c-0.025,0.003-0.049,0.003-0.078,0.007
			c-0.042,0.003-0.081,0.003-0.123,0.003c-0.014,0-0.025,0-0.039,0c-0.028,0-0.056,0-0.081,0c-0.014,0-0.028,0-0.042,0
			c-0.028,0-0.053-0.003-0.078-0.003c-0.014,0-0.025,0-0.039-0.004c-0.035-0.003-0.067-0.007-0.098-0.01c-0.004,0-0.007,0-0.011,0
			c-0.035-0.004-0.07-0.011-0.106-0.014c-0.01-0.004-0.024-0.004-0.035-0.007c-0.025-0.004-0.049-0.008-0.07-0.015
			c-0.015-0.003-0.025-0.007-0.039-0.007c-0.021-0.003-0.046-0.01-0.067-0.014c-0.011-0.003-0.025-0.007-0.036-0.01
			c-0.024-0.007-0.049-0.014-0.074-0.021c-0.007-0.004-0.014-0.004-0.024-0.008c-0.032-0.01-0.064-0.021-0.092-0.031
			c-0.01-0.004-0.025-0.011-0.035-0.014c-0.018-0.007-0.039-0.014-0.057-0.022c-0.014-0.007-0.024-0.01-0.038-0.017
			c-0.018-0.007-0.036-0.014-0.053-0.025c-0.014-0.007-0.025-0.01-0.039-0.017c-0.018-0.011-0.035-0.018-0.053-0.029
			c-0.011-0.007-0.021-0.01-0.032-0.017c-0.024-0.014-0.053-0.029-0.077-0.046c-0.014-0.007-0.025-0.014-0.039-0.025
			c-0.014-0.007-0.028-0.017-0.042-0.028c-0.014-0.011-0.029-0.018-0.039-0.028c-0.014-0.007-0.025-0.018-0.039-0.025
			c-0.014-0.011-0.028-0.018-0.039-0.028c-0.01-0.007-0.021-0.018-0.035-0.025c-0.032-0.024-0.063-0.049-0.092-0.074
			c-0.003-0.003-0.007-0.007-0.01-0.01c-0.014-0.015-0.028-0.025-0.043-0.039c-0.007-0.007-0.017-0.014-0.024-0.025
			c-0.014-0.014-0.028-0.025-0.043-0.039c-0.007-0.007-0.017-0.014-0.024-0.024c-0.014-0.014-0.028-0.029-0.043-0.043
			c-0.007-0.007-0.014-0.014-0.017-0.021c-0.05-0.053-0.095-0.106-0.141-0.162c-0.004-0.004-0.007-0.011-0.011-0.014
			c-0.014-0.018-0.028-0.035-0.042-0.053c-0.004-0.007-0.011-0.011-0.014-0.018c-0.014-0.017-0.028-0.038-0.042-0.056
			c-0.004-0.004-0.004-0.007-0.008-0.011c-0.045-0.067-0.091-0.134-0.134-0.204c-0.116-0.194-0.218-0.402-0.306-0.617
			c-0.004,0.74-0.088,1.646-0.43,2.373C538.504,127.639,539.315,128.634,541.174,128.454z"/>
		<path fill="#1B4E61" d="M544.143,126.977c-0.081-0.089-0.219-0.254-0.31-0.416C543.921,126.719,544.023,126.86,544.143,126.977z"
			/>
		<path fill="#1B4E61" d="M537.69,127.34c0.625,1.065,1.647,1.932,3.66,1.689c1.421-0.173,2.352-1.185,2.853-1.993
			c-0.011-0.007-0.032-0.028-0.06-0.059c-0.12-0.113-0.222-0.258-0.31-0.417c-0.011-0.014-0.018-0.031-0.025-0.045
			c-0.286,0.617-1.037,1.787-2.63,1.942c-1.859,0.18-2.67-0.814-3.064-1.787C537.973,126.959,537.923,127.128,537.69,127.34z"/>
		<path fill="#E87950" d="M538.448,120.365c0.113-0.035,0.491-0.148,0.974-0.134c0.504,0.014,0.881,0.159,1.005,0.215
			c0.292-0.067,0.782-0.088,1.015-0.007c0.138-0.06,0.504-0.194,0.991-0.208c0.472-0.014,0.843,0.092,0.962,0.131
			c0.156-0.039,0.346-0.05,0.512-0.014c-0.014-0.847-0.11-1.527-0.215-1.802c-0.17-0.437-0.413-0.801-0.699-1.09
			c-0.003,0.011-0.007,0.018-0.007,0.018s-1.079,0.36-2.203,0.374c-1.125,0.014-2.299,0.031-2.299,0.031
			c0-0.003-0.004-0.003-0.004-0.007c-0.039,0.057-0.077,0.117-0.113,0.18c-0.352,0.6-0.514,1.414-0.514,2.289
			C538.043,120.305,538.265,120.337,538.448,120.365z"/>
		<path fill="#E87950" d="M539.414,120.489c-0.391-0.011-0.712,0.067-0.842,0.105c-0.036,0.177-0.106,0.663,0.119,0.97
			c0.131,0.176,0.349,0.271,0.649,0.278c0.342,0.008,0.586-0.063,0.734-0.218c0.197-0.201,0.229-0.529,0.211-0.956
			C540.155,120.612,539.83,120.499,539.414,120.489z M539.425,121.3c-0.092,0-0.166-0.075-0.166-0.166
			c0-0.092,0.074-0.166,0.166-0.166c0.091,0,0.166,0.074,0.166,0.166C539.591,121.225,539.516,121.3,539.425,121.3z"/>
		<path fill="#E87950" d="M542.443,120.489c-0.416,0.01-0.74,0.123-0.874,0.179c-0.018,0.427,0.018,0.755,0.212,0.956
			c0.151,0.155,0.391,0.226,0.733,0.218c0.3-0.007,0.518-0.098,0.649-0.278c0.229-0.307,0.158-0.793,0.12-0.97
			C543.156,120.556,542.835,120.478,542.443,120.489z M542.429,121.268c-0.091,0-0.165-0.074-0.165-0.166
			c0-0.092,0.074-0.166,0.165-0.166c0.092,0,0.166,0.074,0.166,0.166C542.591,121.194,542.517,121.268,542.429,121.268z"/>
		<path fill="#E87950" d="M538.537,123.916l0.701-0.011c0.441-0.613,1.026-0.842,1.566-0.863c0.589-0.025,1.424,0.13,1.876,0.814
			l0.571-0.007c0,0,0.003,0.229,0.035,0.571c0.243-0.581,0.402-1.258,0.501-1.939c-0.014,0-0.021-0.004-0.021-0.004l0.112-1.717
			c0,0,0.015-0.003,0.036-0.007c0-0.046,0-0.091,0-0.137c-0.096-0.036-0.23-0.043-0.364-0.021c0.043,0.239,0.096,0.758-0.176,1.124
			c-0.18,0.244-0.469,0.374-0.85,0.381c-0.021,0-0.038,0-0.056,0c-0.388,0-0.673-0.099-0.867-0.296
			c-0.282-0.289-0.304-0.73-0.286-1.135c-0.145-0.032-0.483-0.039-0.765,0.014c0.014,0.402-0.011,0.832-0.286,1.117
			c-0.194,0.198-0.476,0.297-0.867,0.297c-0.018,0-0.039,0-0.057,0c-0.384-0.011-0.669-0.138-0.849-0.381
			c-0.268-0.36-0.222-0.868-0.177-1.114c-0.218-0.029-0.359-0.029-0.444,0.007c0.004,0.084,0.007,0.169,0.014,0.257l0.152,1.322
			c0.084,0.624,0.226,1.404,0.515,2.109C538.54,124.163,538.54,124.036,538.537,123.916z M542.443,122.266
			c0.297,0,0.54,0.24,0.54,0.539c0,0.297-0.24,0.54-0.54,0.54c-0.299,0-0.539-0.24-0.539-0.54
			C541.904,122.509,542.147,122.266,542.443,122.266z M540.821,120.947l0.642,1.795l-0.494,0.19
			c-0.102,0.039-0.208,0.043-0.31,0.007l-0.483-0.169L540.821,120.947z M539.256,122.252c0.296,0,0.539,0.24,0.539,0.539
			c0,0.3-0.239,0.54-0.539,0.54c-0.3,0-0.54-0.244-0.54-0.54S538.956,122.252,539.256,122.252z"/>
		<path fill="#E87950" d="M540.589,126.162c-0.01-0.003-0.025-0.003-0.036-0.007C540.568,126.159,540.579,126.159,540.589,126.162z"
			/>
		<path fill="#E87950" d="M540.483,126.141c-0.014-0.004-0.025-0.007-0.039-0.007C540.458,126.137,540.472,126.137,540.483,126.141z
			"/>
		<path fill="#E87950" d="M540.846,126.19c-0.014,0-0.025,0-0.039-0.003C540.821,126.187,540.835,126.19,540.846,126.19z"/>
		<path fill="#E87950" d="M540.381,126.116c-0.01-0.003-0.025-0.007-0.036-0.011C540.356,126.113,540.367,126.113,540.381,126.116z"
			/>
		<path fill="#E87950" d="M541.361,126.176c-0.018,0.004-0.035,0.004-0.049,0.007C541.326,126.183,541.343,126.18,541.361,126.176z"
			/>
		<path fill="#E87950" d="M541.435,126.166c-0.014,0.003-0.032,0.003-0.046,0.007C541.403,126.173,541.421,126.169,541.435,126.166z
			"/>
		<path fill="#E87950" d="M541.287,126.187c-0.025,0.003-0.05,0.003-0.078,0.007C541.234,126.19,541.258,126.187,541.287,126.187z"
			/>
		<path fill="#E87950" d="M540.269,126.085c-0.008-0.004-0.015-0.004-0.026-0.008C540.25,126.081,540.258,126.085,540.269,126.085z"
			/>
		<path fill="#E87950" d="M539.608,125.76c-0.014-0.011-0.028-0.018-0.039-0.028C539.583,125.742,539.598,125.753,539.608,125.76z"
			/>
		<path fill="#E87950" d="M539.686,125.813c-0.014-0.011-0.028-0.018-0.039-0.028C539.662,125.795,539.672,125.806,539.686,125.813z
			"/>
		<path fill="#E87950" d="M539.534,125.707c-0.032-0.025-0.063-0.049-0.092-0.074C539.474,125.658,539.502,125.682,539.534,125.707z
			"/>
		<path fill="#E87950" d="M539.432,125.623c-0.014-0.015-0.028-0.025-0.042-0.039C539.404,125.594,539.418,125.608,539.432,125.623z
			"/>
		<path fill="#E87950" d="M540.06,126.01c-0.014-0.007-0.025-0.01-0.039-0.017C540.032,126,540.046,126.007,540.06,126.01z"/>
		<path fill="#E87950" d="M539.365,125.559c-0.014-0.014-0.028-0.025-0.042-0.039C539.337,125.534,539.351,125.545,539.365,125.559z
			"/>
		<path fill="#E87950" d="M539.968,125.971c-0.014-0.007-0.025-0.01-0.039-0.017C539.943,125.961,539.954,125.964,539.968,125.971z"
			/>
		<path fill="#E87950" d="M539.767,125.866c-0.014-0.007-0.025-0.014-0.039-0.025C539.742,125.848,539.753,125.855,539.767,125.866z
			"/>
		<path fill="#E87950" d="M539.877,125.926c-0.011-0.007-0.021-0.011-0.032-0.018C539.856,125.915,539.866,125.919,539.877,125.926z
			"/>
		<path fill="#E87950" d="M542.493,125.633c-0.015,0.014-0.029,0.025-0.043,0.039C542.464,125.658,542.478,125.644,542.493,125.633z
			"/>
		<path fill="#E87950" d="M542.327,125.774c-0.039,0.028-0.078,0.06-0.117,0.085C542.249,125.834,542.288,125.806,542.327,125.774z"
			/>
		<path fill="#E87950" d="M542.383,125.728c-0.014,0.014-0.031,0.025-0.046,0.039C542.352,125.753,542.369,125.742,542.383,125.728z
			"/>
		<path fill="#E87950" d="M542.21,125.859c-0.017,0.014-0.038,0.024-0.06,0.038C542.172,125.887,542.189,125.873,542.21,125.859z"/>
		<path fill="#E87950" d="M542.073,125.943c-0.014,0.007-0.028,0.014-0.042,0.025C542.045,125.961,542.059,125.954,542.073,125.943z
			"/>
		<path fill="#E87950" d="M542.136,125.908c-0.014,0.011-0.032,0.018-0.046,0.028C542.104,125.926,542.122,125.915,542.136,125.908z
			"/>
		<path fill="#E87950" d="M542.44,125.682c-0.014,0.014-0.028,0.025-0.043,0.036C542.412,125.707,542.426,125.693,542.44,125.682z"
			/>
		<path fill="#E87950" d="M542.852,125.217c-0.014,0.021-0.028,0.039-0.042,0.056C542.824,125.256,542.838,125.235,542.852,125.217z
			"/>
		<path fill="#E87950" d="M542.757,125.341c-0.063,0.081-0.13,0.158-0.201,0.229C542.627,125.499,542.694,125.422,542.757,125.341z"
			/>
		<path fill="#E87950" d="M542.549,125.577c-0.014,0.014-0.032,0.031-0.046,0.045C542.521,125.608,542.535,125.591,542.549,125.577z
			"/>
		<path fill="#E87950" d="M542.803,125.281c-0.014,0.017-0.028,0.038-0.042,0.056C542.775,125.319,542.789,125.298,542.803,125.281z
			"/>
		<path fill="#E87950" d="M541.657,126.12c-0.014,0.003-0.032,0.007-0.046,0.014C541.625,126.127,541.64,126.123,541.657,126.12z"/>
		<path fill="#E87950" d="M541.583,126.137c-0.014,0.004-0.028,0.007-0.046,0.011C541.551,126.144,541.565,126.141,541.583,126.137z
			"/>
		<path fill="#E87950" d="M541.738,126.092c-0.021,0.007-0.042,0.014-0.06,0.021C541.699,126.106,541.721,126.099,541.738,126.092z"
			/>
		<path fill="#E87950" d="M541.509,126.155c-0.014,0.004-0.028,0.007-0.042,0.007C541.481,126.159,541.495,126.155,541.509,126.155z
			"/>
		<path fill="#E87950" d="M543.109,124.794c-0.063,0.123-0.134,0.243-0.208,0.353C542.972,125.034,543.042,124.917,543.109,124.794z
			"/>
		<path fill="#E87950" d="M541.812,126.067c-0.021,0.007-0.046,0.017-0.067,0.024C541.77,126.081,541.791,126.074,541.812,126.067z"
			/>
		<path fill="#E87950" d="M541.943,126.01c-0.014,0.008-0.029,0.015-0.043,0.022C541.914,126.025,541.929,126.018,541.943,126.01z"
			/>
		<path fill="#E87950" d="M542.898,125.146c-0.014,0.022-0.028,0.043-0.042,0.064C542.87,125.189,542.884,125.168,542.898,125.146z"
			/>
		<path fill="#E87950" d="M541.879,126.039c-0.018,0.007-0.035,0.014-0.049,0.021C541.847,126.053,541.861,126.046,541.879,126.039z
			"/>
		<path fill="#E87950" d="M542.01,125.979c-0.014,0.007-0.029,0.014-0.043,0.021C541.981,125.993,541.996,125.986,542.01,125.979z"
			/>
		<path fill="#E87950" d="M540.152,126.05c-0.011-0.004-0.025-0.011-0.036-0.015C540.127,126.039,540.141,126.042,540.152,126.05z"
			/>
		<path fill="#E87950" d="M538.981,125.118c-0.046-0.067-0.092-0.134-0.134-0.204C538.889,124.981,538.935,125.051,538.981,125.118z
			"/>
		<path fill="#E87950" d="M539.238,125.432c-0.049-0.053-0.095-0.106-0.141-0.162C539.143,125.326,539.189,125.383,539.238,125.432z
			"/>
		<path fill="#E87950" d="M539.03,125.185c-0.014-0.017-0.028-0.038-0.042-0.056C539.002,125.147,539.016,125.164,539.03,125.185z"
			/>
		<path fill="#E87950" d="M539.298,125.495c-0.014-0.014-0.028-0.028-0.042-0.042C539.27,125.467,539.284,125.481,539.298,125.495z"
			/>
		<path fill="#E87950" d="M542.676,123.856c0.018,0.025,0.032,0.049,0.05,0.078c0.183,0.313,0.317,0.634,0.384,0.86
			c0.063-0.12,0.12-0.247,0.176-0.377c-0.031-0.339-0.035-0.572-0.035-0.572L542.676,123.856z"/>
		<path fill="#E87950" d="M539.086,125.256c-0.014-0.018-0.028-0.035-0.042-0.053C539.058,125.221,539.072,125.238,539.086,125.256z
			"/>
		<path fill="#E87950" d="M539.178,123.993c0.022-0.031,0.039-0.06,0.06-0.088l-0.701,0.011c0.003,0.12,0.007,0.247,0.007,0.377
			c0.088,0.215,0.19,0.423,0.306,0.617C538.886,124.663,538.991,124.279,539.178,123.993z"/>
		<path fill="#1B4E61" d="M540.715,116.578c0.737-0.067,1.622,0.212,2.282,0.882c0.035-0.109,0.19-0.723-0.304-1.499
			c-0.546-0.86-2.249-1.41-2.249-1.41c0.218,0.938-0.437,1.125-1.284,1.689c-0.701,0.465-0.92,1.301-0.677,1.636
			C539.012,117.079,539.732,116.663,540.715,116.578z"/>
		<path fill="#1B4E61" d="M540.786,117.851c1.125-0.014,2.204-0.373,2.204-0.373s0.003-0.007,0.007-0.018
			c-0.66-0.67-1.545-0.945-2.282-0.882c-0.983,0.089-1.703,0.501-2.232,1.298c0,0.004,0.004,0.004,0.004,0.007
			C538.487,117.883,539.661,117.865,540.786,117.851z"/>
		<path fill="#011E41" d="M539.425,121.3c0.092,0,0.166-0.074,0.166-0.166c0-0.092-0.074-0.166-0.166-0.166
			c-0.092,0-0.166,0.074-0.166,0.166C539.259,121.226,539.333,121.3,539.425,121.3z"/>
		<path fill="#011E41" d="M542.429,121.268c0.091,0,0.166-0.074,0.166-0.166c0-0.091-0.075-0.165-0.166-0.165
			c-0.092,0-0.166,0.074-0.166,0.165C542.263,121.194,542.337,121.268,542.429,121.268z"/>
		<path fill="#DE4E31" d="M540.969,122.932l0.494-0.19l-0.642-1.795l-0.649,1.823l0.483,0.169
			C540.758,122.974,540.867,122.971,540.969,122.932z"/>
		<path fill="#DE4E31" d="M539.256,123.331c0.298,0,0.539-0.242,0.539-0.54c0-0.298-0.241-0.539-0.539-0.539
			c-0.298,0-0.54,0.241-0.54,0.539C538.716,123.089,538.958,123.331,539.256,123.331z"/>
		<path fill="#DE4E31" d="M542.443,123.345c0.298,0,0.54-0.242,0.54-0.54s-0.242-0.539-0.54-0.539c-0.298,0-0.539,0.241-0.539,0.539
			S542.145,123.345,542.443,123.345z"/>
		<path fill="#1B4E61" d="M541.901,126.031c-0.008,0.004-0.015,0.008-0.022,0.011C541.886,126.035,541.893,126.035,541.901,126.031z
			"/>
		<path fill="#1B4E61" d="M541.968,126c-0.008,0.003-0.015,0.007-0.022,0.011C541.953,126.007,541.96,126.003,541.968,126z"/>
		<path fill="#1B4E61" d="M541.745,126.092c-0.004,0-0.004,0-0.007,0.003C541.741,126.092,541.745,126.092,541.745,126.092z"/>
		<path fill="#1B4E61" d="M542.032,125.968c-0.008,0.004-0.015,0.007-0.022,0.011C542.017,125.975,542.024,125.972,542.032,125.968z
			"/>
		<path fill="#1B4E61" d="M539.391,125.584c-0.008-0.007-0.019-0.014-0.026-0.025C539.372,125.566,539.383,125.577,539.391,125.584z
			"/>
		<path fill="#1B4E61" d="M541.831,126.06c-0.004,0.003-0.012,0.003-0.016,0.007C541.819,126.063,541.823,126.063,541.831,126.06z"
			/>
		<path fill="#1B4E61" d="M541.464,126.162c-0.011,0-0.022,0.004-0.029,0.004C541.445,126.166,541.456,126.162,541.464,126.162z"/>
		<path fill="#1B4E61" d="M541.679,126.113c-0.007,0.003-0.015,0.003-0.022,0.007C541.664,126.116,541.672,126.113,541.679,126.113z
			"/>
		<path fill="#1B4E61" d="M541.608,126.13c-0.011,0.004-0.018,0.004-0.029,0.008C541.59,126.134,541.601,126.134,541.608,126.13z"/>
		<path fill="#1B4E61" d="M541.538,126.148c-0.011,0.003-0.018,0.003-0.029,0.007C541.52,126.151,541.527,126.151,541.538,126.148z"
			/>
		<path fill="#1B4E61" d="M542.451,125.672c-0.004,0.004-0.007,0.007-0.015,0.011C542.444,125.679,542.447,125.676,542.451,125.672z
			"/>
		<path fill="#1B4E61" d="M542.091,125.933c-0.007,0.003-0.015,0.007-0.018,0.011C542.076,125.94,542.084,125.936,542.091,125.933z"
			/>
		<path fill="#1B4E61" d="M542.856,125.21c0,0.004-0.003,0.004-0.003,0.007C542.853,125.214,542.853,125.214,542.856,125.21z"/>
		<path fill="#1B4E61" d="M542.761,125.337l-0.004,0.005L542.761,125.337z"/>
		<path fill="#1B4E61" d="M542.556,125.57c-0.003,0.003-0.003,0.003-0.007,0.007C542.553,125.573,542.556,125.573,542.556,125.57z"
			/>
		<path fill="#1B4E61" d="M542.503,125.623c-0.004,0.003-0.007,0.007-0.011,0.01C542.496,125.63,542.499,125.626,542.503,125.623z"
			/>
		<path fill="#1B4E61" d="M542.151,125.897c-0.003,0.004-0.011,0.008-0.015,0.012C542.14,125.905,542.148,125.901,542.151,125.897z"
			/>
		<path fill="#1B4E61" d="M542.81,125.273c0,0.004-0.003,0.004-0.003,0.008C542.807,125.277,542.807,125.277,542.81,125.273z"/>
		<path fill="#1B4E61" d="M542.398,125.718c-0.003,0.004-0.007,0.007-0.015,0.011C542.387,125.725,542.395,125.722,542.398,125.718z
			"/>
		<path fill="#1B4E61" d="M542.338,125.767c-0.004,0.004-0.008,0.004-0.011,0.007C542.33,125.771,542.334,125.771,542.338,125.767z"
			/>
		<path fill="#1B4E61" d="M541.39,126.173c-0.011,0-0.018,0.003-0.029,0.003C541.372,126.176,541.379,126.176,541.39,126.173z"/>
		<path fill="#1B4E61" d="M540.021,125.996c-0.018-0.007-0.036-0.014-0.053-0.024C539.985,125.979,540.003,125.986,540.021,125.996z
			"/>
		<path fill="#1B4E61" d="M540.116,126.035c-0.018-0.007-0.039-0.014-0.056-0.021C540.077,126.017,540.098,126.028,540.116,126.035z
			"/>
		<path fill="#1B4E61" d="M538.988,125.129c-0.004-0.004-0.004-0.007-0.008-0.011C538.984,125.122,538.988,125.125,538.988,125.129z
			"/>
		<path fill="#1B4E61" d="M539.929,125.954c-0.017-0.011-0.035-0.018-0.053-0.028C539.894,125.936,539.912,125.943,539.929,125.954z
			"/>
		<path fill="#1B4E61" d="M539.045,125.203c-0.004-0.007-0.011-0.01-0.015-0.018C539.034,125.189,539.041,125.196,539.045,125.203z"
			/>
		<path fill="#1B4E61" d="M540.444,126.134c-0.021-0.004-0.046-0.011-0.067-0.014C540.402,126.123,540.423,126.127,540.444,126.134z
			"/>
		<path fill="#1B4E61" d="M540.553,126.155c-0.024-0.004-0.049-0.007-0.07-0.014C540.508,126.148,540.532,126.151,540.553,126.155z"
			/>
		<path fill="#1B4E61" d="M540.243,126.077c-0.032-0.01-0.063-0.021-0.092-0.031C540.183,126.06,540.211,126.07,540.243,126.077z"/>
		<path fill="#1B4E61" d="M539.845,125.908c-0.025-0.014-0.053-0.028-0.078-0.046C539.792,125.88,539.816,125.894,539.845,125.908z"
			/>
		<path fill="#1B4E61" d="M539.57,125.732c-0.01-0.007-0.021-0.018-0.036-0.025C539.549,125.714,539.56,125.725,539.57,125.732z"/>
		<path fill="#1B4E61" d="M539.443,125.63c-0.004-0.004-0.007-0.007-0.011-0.011C539.436,125.626,539.439,125.626,539.443,125.63z"
			/>
		<path fill="#1B4E61" d="M539.323,125.521c-0.007-0.007-0.018-0.015-0.025-0.025C539.305,125.503,539.316,125.514,539.323,125.521z
			"/>
		<path fill="#1B4E61" d="M539.256,125.454c-0.007-0.007-0.014-0.015-0.018-0.022C539.246,125.439,539.253,125.447,539.256,125.454z
			"/>
		<path fill="#1B4E61" d="M539.098,125.271c-0.004-0.004-0.008-0.011-0.012-0.015C539.09,125.26,539.094,125.267,539.098,125.271z"
			/>
		<path fill="#1B4E61" d="M539.647,125.788c-0.014-0.007-0.024-0.017-0.039-0.024C539.623,125.771,539.633,125.778,539.647,125.788z
			"/>
		<path fill="#1B4E61" d="M539.728,125.841c-0.014-0.007-0.028-0.017-0.042-0.028C539.7,125.824,539.714,125.831,539.728,125.841z"
			/>
		<path fill="#1B4E61" d="M540.342,126.109c-0.025-0.007-0.05-0.014-0.074-0.021C540.292,126.095,540.317,126.102,540.342,126.109z"
			/>
		<path fill="#1B4E61" d="M540.807,126.187c-0.035-0.004-0.067-0.007-0.099-0.011C540.744,126.183,540.775,126.183,540.807,126.187z
			"/>
		<path fill="#1B4E61" d="M540.924,126.194c-0.028,0-0.053-0.004-0.078-0.004C540.871,126.19,540.899,126.194,540.924,126.194z"/>
		<path fill="#1B4E61" d="M540.698,126.176c-0.036-0.003-0.071-0.01-0.106-0.014C540.624,126.166,540.659,126.173,540.698,126.176z"
			/>
		<path fill="#1B4E61" d="M541.209,126.19c-0.042,0.004-0.081,0.004-0.124,0.004C541.128,126.194,541.167,126.194,541.209,126.19z"
			/>
		<path fill="#1B4E61" d="M541.312,126.183c-0.007,0-0.018,0.004-0.025,0.004C541.294,126.187,541.301,126.183,541.312,126.183z"/>
		<path fill="#1B4E61" d="M539.866,123.87c0.092-0.314,0.504-0.356,0.963-0.395c0.454-0.039,1.093,0.032,1.163,0.286
			c0.007,0.032,0.011,0.067,0.011,0.106l0.677-0.011c-0.452-0.684-1.287-0.839-1.876-0.814c-0.536,0.021-1.125,0.25-1.566,0.863
			l0.621-0.01C539.859,123.888,539.862,123.877,539.866,123.87z"/>
		<path fill="#1B4E61" d="M542.676,123.856l-0.677,0.011c-0.014,0.285-0.321,0.74-0.995,0.754c-0.652,0.014-1.205-0.402-1.145-0.723
			l-0.621,0.011c-0.021,0.028-0.042,0.056-0.06,0.088c-0.187,0.286-0.293,0.666-0.328,0.917c0.042,0.07,0.088,0.137,0.134,0.204
			c0.004,0.004,0.004,0.007,0.007,0.011c0.014,0.017,0.028,0.039,0.042,0.056c0.004,0.007,0.008,0.011,0.015,0.018
			c0.014,0.018,0.028,0.035,0.042,0.053c0.003,0.003,0.007,0.01,0.01,0.014c0.046,0.056,0.092,0.109,0.141,0.162
			c0.008,0.007,0.011,0.014,0.018,0.021c0.014,0.014,0.028,0.028,0.042,0.043c0.007,0.007,0.018,0.014,0.025,0.024
			c0.014,0.014,0.028,0.028,0.042,0.039c0.007,0.007,0.018,0.014,0.025,0.025c0.014,0.014,0.028,0.024,0.042,0.038
			c0.004,0.004,0.007,0.008,0.011,0.011c0.032,0.025,0.06,0.049,0.092,0.074c0.01,0.007,0.021,0.018,0.035,0.025
			c0.014,0.01,0.028,0.021,0.039,0.028c0.01,0.007,0.024,0.018,0.038,0.025c0.015,0.01,0.029,0.017,0.039,0.028
			c0.014,0.01,0.028,0.018,0.043,0.028c0.014,0.007,0.024,0.018,0.038,0.025c0.025,0.014,0.05,0.032,0.078,0.046
			c0.011,0.007,0.021,0.01,0.032,0.017c0.017,0.011,0.035,0.018,0.053,0.028c0.014,0.008,0.024,0.011,0.038,0.018
			c0.018,0.007,0.036,0.014,0.053,0.025c0.014,0.007,0.025,0.01,0.039,0.017c0.018,0.007,0.039,0.015,0.056,0.022
			c0.011,0.003,0.025,0.01,0.036,0.014c0.031,0.01,0.06,0.021,0.091,0.031c0.007,0.004,0.014,0.004,0.025,0.007
			c0.025,0.007,0.049,0.015,0.074,0.022c0.011,0.003,0.025,0.007,0.035,0.01c0.022,0.007,0.043,0.011,0.067,0.014
			c0.014,0.004,0.025,0.007,0.039,0.007c0.025,0.004,0.046,0.011,0.071,0.014c0.01,0.004,0.024,0.004,0.035,0.007
			c0.035,0.008,0.07,0.011,0.106,0.015c0.003,0,0.007,0,0.01,0c0.032,0.003,0.067,0.007,0.099,0.01c0.014,0,0.025,0,0.039,0.004
			c0.024,0,0.053,0.003,0.077,0.003c0.014,0,0.029,0,0.043,0c0.028,0,0.056,0,0.081,0c0.014,0,0.024,0,0.039,0
			c0.038,0,0.081-0.003,0.123-0.003c0.025,0,0.053-0.004,0.078-0.007c0.007,0,0.017,0,0.024-0.004c0.018,0,0.035-0.003,0.05-0.007
			c0.01,0,0.017-0.003,0.028-0.003c0.014-0.004,0.032-0.004,0.046-0.008c0.01,0,0.021-0.003,0.028-0.003
			c0.014-0.004,0.028-0.007,0.042-0.007c0.011-0.004,0.018-0.004,0.028-0.007c0.014-0.004,0.029-0.007,0.046-0.011
			c0.011-0.003,0.018-0.003,0.028-0.007c0.015-0.003,0.032-0.007,0.046-0.014c0.007-0.003,0.014-0.003,0.021-0.007
			c0.022-0.007,0.043-0.014,0.06-0.021c0.004,0,0.004,0,0.007-0.004c0.022-0.007,0.046-0.014,0.067-0.024
			c0.004-0.004,0.011-0.004,0.014-0.007c0.018-0.007,0.036-0.014,0.05-0.021c0.007-0.004,0.014-0.008,0.021-0.011
			c0.014-0.007,0.028-0.014,0.042-0.021c0.007-0.004,0.014-0.007,0.021-0.011c0.015-0.007,0.029-0.014,0.043-0.021
			c0.007-0.003,0.014-0.007,0.021-0.011c0.014-0.007,0.028-0.014,0.042-0.024c0.007-0.004,0.014-0.007,0.018-0.011
			c0.014-0.007,0.032-0.017,0.046-0.028c0.003-0.004,0.01-0.007,0.014-0.011c0.021-0.01,0.039-0.024,0.06-0.038
			c0.039-0.029,0.081-0.057,0.116-0.085c0.004-0.004,0.007-0.004,0.011-0.007c0.014-0.011,0.031-0.025,0.046-0.039
			c0.003-0.003,0.007-0.007,0.014-0.01c0.014-0.011,0.028-0.025,0.042-0.036c0.003-0.003,0.007-0.007,0.014-0.01
			c0.014-0.014,0.028-0.025,0.042-0.039c0.004-0.004,0.007-0.007,0.011-0.011c0.014-0.014,0.032-0.028,0.046-0.045
			c0.003-0.004,0.003-0.004,0.007-0.008c0.07-0.07,0.137-0.148,0.201-0.229l0.003-0.003c0.014-0.018,0.029-0.039,0.043-0.057
			c0-0.003,0.003-0.003,0.003-0.007c0.014-0.017,0.028-0.038,0.043-0.056c0-0.004,0.003-0.004,0.003-0.007
			c0.014-0.021,0.028-0.042,0.042-0.064c0.074-0.112,0.145-0.229,0.208-0.352c-0.063-0.226-0.201-0.547-0.384-0.861
			C542.711,123.905,542.693,123.881,542.676,123.856z"/>
		<path fill="#E87950" d="M541.992,123.761c-0.07-0.251-0.709-0.321-1.163-0.286c-0.459,0.039-0.868,0.078-0.963,0.395
			c-0.004,0.011-0.004,0.018-0.007,0.028l0.229-0.003c-0.003-0.018-0.003-0.036-0.003-0.053c0-0.311,0.405,0.003,0.87,0.003
			c0.466,0.004,0.818-0.306,0.815,0.004c0,0.007,0,0.01,0,0.017l0.229-0.003C542.003,123.828,541.999,123.792,541.992,123.761z"/>
		<path fill="#E87950" d="M540.923,124.409c-0.44-0.003-0.8-0.229-0.839-0.514l-0.229,0.003c-0.056,0.321,0.494,0.737,1.146,0.723
			c0.673-0.014,0.98-0.469,0.994-0.755l-0.229,0.004C541.756,124.17,541.382,124.413,540.923,124.409z"/>
		<path fill="#011E41" d="M543.272,120.531c-0.022-0.067,0.017-0.141,0.088-0.159c0.014-0.003,0.028-0.007,0.042-0.01
			c-0.12-0.039-0.494-0.145-0.963-0.131c-0.486,0.014-0.853,0.152-0.99,0.208c0.028,0.011,0.053,0.021,0.07,0.036
			c0.06,0.038,0.074,0.119,0.035,0.179c-0.038,0.06-0.119,0.074-0.179,0.036c-0.011-0.007-0.032-0.014-0.06-0.022
			c-0.018,0.406,0.003,0.847,0.285,1.136c0.194,0.197,0.476,0.296,0.868,0.296c0.017,0,0.038,0,0.056,0
			c0.384-0.011,0.67-0.137,0.85-0.381c0.271-0.366,0.218-0.881,0.176-1.125c-0.039,0.007-0.077,0.015-0.116,0.025
			C543.363,120.64,543.293,120.601,543.272,120.531z M543.166,121.564c-0.131,0.176-0.349,0.272-0.649,0.279
			c-0.342,0.007-0.585-0.064-0.733-0.219c-0.198-0.201-0.23-0.529-0.212-0.956c0.134-0.052,0.458-0.165,0.874-0.179
			c0.392-0.011,0.713,0.067,0.843,0.105C543.321,120.771,543.391,121.257,543.166,121.564z"/>
		<path fill="#011E41" d="M540.412,120.711c-0.056,0-0.109-0.039-0.123-0.095c-0.018-0.067,0.024-0.138,0.091-0.159
			c0.014-0.004,0.032-0.007,0.046-0.011c-0.123-0.056-0.501-0.201-1.005-0.215c-0.483-0.014-0.86,0.095-0.973,0.134
			c0.011,0,0.021,0.004,0.032,0.004c0.07,0.01,0.12,0.077,0.106,0.148c-0.011,0.07-0.078,0.12-0.148,0.106
			c-0.05-0.007-0.092-0.014-0.134-0.018c-0.043,0.247-0.089,0.755,0.176,1.114c0.18,0.243,0.469,0.374,0.85,0.381
			c0.021,0,0.038,0,0.056,0c0.388,0,0.673-0.099,0.867-0.296c0.279-0.286,0.304-0.719,0.286-1.118
			c-0.035,0.007-0.067,0.014-0.102,0.021C540.433,120.707,540.423,120.711,540.412,120.711z M540.074,121.624
			c-0.152,0.155-0.392,0.226-0.734,0.219c-0.3-0.007-0.518-0.099-0.649-0.279c-0.229-0.307-0.158-0.793-0.119-0.97
			c0.13-0.038,0.454-0.119,0.842-0.105c0.416,0.01,0.741,0.123,0.875,0.179C540.306,121.095,540.271,121.423,540.074,121.624z"/>
		<path fill="#011E41" d="M541.385,120.468c0.004-0.004,0.025-0.011,0.057-0.025c-0.233-0.085-0.727-0.06-1.016,0.007
			c0.025,0.01,0.043,0.018,0.046,0.021c0.042,0.021,0.067,0.064,0.071,0.109c0.003,0.036,0.003,0.071,0.003,0.11
			c0.282-0.053,0.621-0.046,0.765-0.014c0-0.032,0.004-0.064,0.004-0.092C541.318,120.527,541.343,120.489,541.385,120.468z"/>
		<path fill="#011E41" d="M541.551,120.655c0.039-0.06,0.025-0.138-0.035-0.18c-0.021-0.014-0.042-0.025-0.071-0.036
			c-0.035,0.015-0.052,0.025-0.056,0.025c-0.042,0.021-0.067,0.064-0.071,0.109c0,0.032-0.003,0.064-0.003,0.092
			c0.028,0.007,0.049,0.014,0.06,0.021C541.431,120.729,541.509,120.711,541.551,120.655z"/>
		<path fill="#011E41" d="M540.472,120.467c-0.004,0-0.018-0.01-0.046-0.021c-0.014,0.004-0.032,0.007-0.046,0.011
			c-0.067,0.017-0.109,0.088-0.091,0.159c0.014,0.056,0.067,0.095,0.123,0.095c0.011,0,0.021,0,0.032-0.004
			c0.032-0.007,0.067-0.017,0.102-0.021c0-0.035-0.003-0.074-0.003-0.109C540.539,120.527,540.511,120.489,540.472,120.467z"/>
		<path fill="#011E41" d="M543.91,120.616c0.028,0.01,0.053,0.024,0.074,0.039c0.032,0.024,0.046,0.052,0.049,0.091
			c0.074,0.004,0.162,0.018,0.251,0.057c0.003-0.011,0.007-0.022,0.007-0.036c0.003-0.127-0.046-0.236-0.149-0.317
			c-0.066-0.049-0.148-0.085-0.236-0.106C543.91,120.436,543.91,120.524,543.91,120.616z"/>
		<path fill="#011E41" d="M543.399,120.362c0.025,0.007,0.039,0.014,0.042,0.014c0.039,0.014,0.067,0.046,0.081,0.085
			c0.004,0.007,0.014,0.056,0.029,0.13c0.134-0.021,0.268-0.014,0.363,0.021c0-0.092,0-0.18-0.004-0.268
			C543.744,120.309,543.554,120.323,543.399,120.362z"/>
		<path fill="#011E41" d="M543.441,120.376c-0.003,0-0.017-0.007-0.042-0.014c-0.014,0.003-0.028,0.007-0.042,0.01
			c-0.067,0.022-0.106,0.092-0.089,0.159c0.022,0.067,0.092,0.106,0.159,0.088c0.039-0.01,0.078-0.021,0.116-0.024
			c-0.014-0.075-0.028-0.124-0.028-0.131C543.508,120.422,543.48,120.39,543.441,120.376z"/>
		<path fill="#011E41" d="M537.86,120.609c-0.004-0.089-0.004-0.177-0.004-0.268c-0.187,0.038-0.335,0.144-0.374,0.387
			c-0.003,0.022,0,0.039,0.004,0.06c0.095-0.042,0.187-0.053,0.257-0.056C537.761,120.676,537.8,120.633,537.86,120.609z"/>
		<path fill="#011E41" d="M538.307,120.605c0.014-0.081,0.028-0.134,0.032-0.141c0.01-0.039,0.042-0.071,0.081-0.085
			c0.004,0,0.014-0.003,0.032-0.01c-0.184-0.028-0.406-0.06-0.593-0.021c0,0.088,0,0.176,0.004,0.268
			C537.948,120.577,538.089,120.577,538.307,120.605z"/>
		<path fill="#011E41" d="M538.589,120.517c0.011-0.071-0.039-0.138-0.106-0.148c-0.01,0-0.021-0.004-0.031-0.004
			c-0.018,0.007-0.032,0.011-0.032,0.011c-0.039,0.014-0.067,0.046-0.081,0.084c-0.004,0.007-0.018,0.06-0.032,0.141
			c0.042,0.008,0.088,0.011,0.134,0.018C538.512,120.633,538.579,120.584,538.589,120.517z"/>
		<path fill="#DE4E31" d="M544.164,120.891h-0.004c-0.07-0.004-0.127-0.064-0.123-0.134c0-0.004,0-0.008,0-0.015
			c-0.053,0-0.095,0.004-0.123,0.007c-0.007,0.547-0.043,1.139-0.127,1.728c0.141,0.014,0.913,0.057,0.892-0.878
			c-0.011-0.497-0.201-0.708-0.392-0.797C544.27,120.855,544.22,120.891,544.164,120.891z"/>
		<path fill="#DE4E31" d="M543.875,120.757l-0.113,1.717c0,0,0.007,0,0.021,0.003c0.084-0.588,0.123-1.181,0.127-1.727
			C543.889,120.753,543.875,120.757,543.875,120.757z"/>
		<path fill="#DE4E31" d="M544.033,120.757c-0.003,0.07,0.053,0.13,0.124,0.134h0.003c0.057,0,0.106-0.039,0.124-0.088
			c-0.088-0.043-0.18-0.057-0.251-0.057C544.033,120.75,544.033,120.753,544.033,120.757z"/>
		<path fill="#DE4E31" d="M537.874,120.866l-0.015-0.123c0,0-0.045-0.007-0.116-0.007c-0.003,0.01-0.007,0.024-0.007,0.035
			c-0.011,0.063-0.063,0.109-0.127,0.109c-0.007,0-0.014,0-0.021,0c-0.049-0.007-0.088-0.042-0.102-0.088
			c-0.198,0.088-0.402,0.303-0.388,0.832c0.025,1.026,0.955,0.829,0.955,0.829l-0.031-0.265c-0.043-0.317-0.074-0.596-0.103-0.804
			C537.902,121.212,537.884,121.039,537.874,120.866z"/>
		<path fill="#DE4E31" d="M537.926,121.384c0.029,0.208,0.057,0.487,0.103,0.804l-0.152-1.322
			C537.884,121.039,537.902,121.212,537.926,121.384z"/>
		<path fill="#DE4E31" d="M537.588,120.877c0.007,0,0.014,0,0.021,0c0.064,0,0.117-0.046,0.127-0.11
			c0.004-0.014,0.004-0.024,0.007-0.035c-0.07,0-0.162,0.014-0.257,0.056C537.5,120.834,537.539,120.869,537.588,120.877z"/>
		<path fill="#FFFFFF" d="M541.773,123.852c0-0.31-0.349-0.003-0.814-0.003c-0.466-0.004-0.871-0.314-0.871-0.004
			c0,0.018,0,0.036,0.003,0.053l1.686-0.024C541.77,123.863,541.773,123.856,541.773,123.852z"/>
		<path fill="#FFFFFF" d="M540.924,124.409c0.458,0.004,0.832-0.239,0.846-0.543l-1.686,0.025
			C540.123,124.18,540.483,124.406,540.924,124.409z"/>
	</g>
</g>
<g>
	<defs>
		<rect id="SVGID_16_" x="539.861" y="200.063" width="24" height="24"/>
	</defs>
	<clipPath id="SVGID_17_">
		<use xlink:href="#SVGID_16_"  overflow="visible"/>
	</clipPath>
	<g clip-path="url(#SVGID_17_)">
		<path fill="#50CEA8" d="M560.72,215.394l-3.772,6.155c-0.414,0.68-0.978,1.256-1.649,1.686c-0.671,0.429-1.43,0.7-2.221,0.791
			c-0.209,0.025-0.418,0.037-0.628,0.037c-1.075-0.002-2.123-0.335-3-0.955c-0.907,0.679-2.027,1.012-3.158,0.936
			c-1.131-0.075-2.197-0.553-3.006-1.347c-0.809-0.794-1.306-1.851-1.403-2.98c-0.096-1.129,0.215-2.256,0.878-3.175l-1.315-1.313
			c-0.562-0.562-0.989-1.243-1.25-1.993s-0.348-1.549-0.257-2.338c0.092-0.789,0.361-1.547,0.788-2.217
			c0.426-0.67,0.998-1.235,1.674-1.652l5.767-3.566c1.562-1.001,3.399-1.487,5.252-1.388c1.853,0.099,3.628,0.777,5.075,1.939
			l1.659-1.659c0.092-0.096,0.202-0.172,0.324-0.224c0.122-0.053,0.254-0.08,0.386-0.081c0.133-0.001,0.265,0.024,0.388,0.074
			c0.123,0.05,0.234,0.125,0.328,0.219c0.094,0.093,0.168,0.205,0.219,0.328c0.05,0.123,0.075,0.255,0.074,0.387
			c-0.001,0.133-0.029,0.264-0.081,0.386c-0.053,0.122-0.129,0.233-0.224,0.325l-1.657,1.658c1.111,1.392,1.782,3.084,1.926,4.86
			C561.981,212.063,561.592,213.841,560.72,215.394L560.72,215.394z M547.926,221.71l-3.719-3.72c-0.291,0.52-0.403,1.12-0.319,1.71
			c0.083,0.59,0.358,1.136,0.782,1.554c0.427,0.406,0.971,0.668,1.555,0.75C546.808,222.086,547.403,221.983,547.926,221.71
			L547.926,221.71z M557.847,206.11c-1.111-1.121-2.572-1.827-4.141-1.999c-1.569-0.173-3.149,0.199-4.476,1.052l-5.777,3.566
			c-0.419,0.259-0.774,0.609-1.038,1.025c-0.265,0.415-0.432,0.885-0.489,1.375c-0.057,0.489-0.002,0.985,0.16,1.45
			c0.162,0.465,0.426,0.888,0.775,1.236l7.29,7.291c0.349,0.349,0.772,0.615,1.238,0.777c0.467,0.162,0.964,0.216,1.454,0.158
			s0.961-0.226,1.377-0.492c0.415-0.266,0.766-0.622,1.024-1.043l3.755-6.125c0.733-1.317,1.017-2.838,0.81-4.331
			c-0.208-1.493-0.897-2.878-1.962-3.945V206.11z M559.126,224.063c-0.211,0-0.417-0.066-0.588-0.19
			c-0.171-0.124-0.299-0.299-0.365-0.499c-0.065-0.201-0.066-0.417-0.001-0.618s0.192-0.377,0.363-0.501
			c1.751-1.317,2.936-3.249,3.315-5.407c0.026-0.13,0.078-0.253,0.153-0.363c0.075-0.109,0.171-0.203,0.282-0.275
			c0.111-0.072,0.235-0.122,0.366-0.146c0.13-0.023,0.264-0.021,0.394,0.008c0.129,0.028,0.252,0.082,0.36,0.159
			c0.108,0.076,0.201,0.173,0.271,0.285c0.071,0.112,0.118,0.238,0.14,0.368c0.022,0.131,0.017,0.265-0.013,0.394
			c-0.49,2.632-1.949,4.984-4.088,6.593C559.544,223.996,559.337,224.063,559.126,224.063z M540.861,205.802
			c-0.185-0.001-0.366-0.053-0.523-0.15c-0.157-0.098-0.284-0.236-0.367-0.401c-0.082-0.166-0.118-0.35-0.102-0.534
			c0.016-0.184,0.082-0.36,0.192-0.509c1.631-2.179,4.032-3.655,6.713-4.125c0.26-0.053,0.53-0.001,0.751,0.146
			c0.222,0.146,0.376,0.374,0.429,0.634c0.053,0.26,0,0.53-0.146,0.751c-0.146,0.222-0.374,0.376-0.634,0.429
			c-2.202,0.364-4.178,1.566-5.513,3.354c-0.093,0.125-0.213,0.227-0.352,0.297C541.17,205.764,541.016,205.801,540.861,205.802
			L540.861,205.802z"/>
	</g>
</g>
<g>
	<defs>
		<rect id="SVGID_18_" x="0.772" y="367.368" width="24" height="24"/>
	</defs>
	<clipPath id="SVGID_19_">
		<use xlink:href="#SVGID_18_"  overflow="visible"/>
	</clipPath>
	<g clip-path="url(#SVGID_19_)">
		<path fill="#020A13" fill-opacity="0.25" d="M24.773,378.615c-0.145-2.339-0.971-4.586-2.377-6.462
			c-1.406-1.876-3.33-3.3-5.535-4.096c-2.205-0.795-4.595-0.928-6.875-0.382c-2.28,0.546-4.35,1.748-5.956,3.456
			c-1.605,1.709-2.676,3.85-3.079,6.159c-0.403,2.31-0.122,4.687,0.809,6.838c0.931,2.152,2.472,3.984,4.432,5.27
			c1.96,1.287,4.253,1.972,6.598,1.97h6.983c1.326-0.001,2.597-0.528,3.534-1.465c0.937-0.938,1.465-2.209,1.466-3.535V378.615z
			 M22.773,386.368c0,0.796-0.316,1.559-0.879,2.122c-0.563,0.562-1.326,0.878-2.121,0.878H12.79c-1.411,0-2.806-0.298-4.094-0.874
			c-1.288-0.576-2.44-1.417-3.382-2.469c-0.946-1.05-1.656-2.291-2.083-3.639c-0.427-1.347-0.561-2.771-0.393-4.175
			c0.265-2.214,1.26-4.276,2.827-5.863c1.567-1.586,3.618-2.605,5.829-2.898c0.431-0.054,0.865-0.081,1.3-0.082
			c2.33-0.006,4.589,0.808,6.379,2.3c1.045,0.869,1.904,1.942,2.523,3.152c0.619,1.211,0.985,2.534,1.077,3.89V386.368z"/>
		<path fill="#020A13" fill-opacity="0.25" d="M8.772,376.368h4c0.265,0,0.519-0.105,0.707-0.292
			c0.188-0.188,0.293-0.442,0.293-0.708c0-0.265-0.105-0.519-0.293-0.707c-0.188-0.187-0.442-0.293-0.707-0.293h-4
			c-0.265,0-0.52,0.106-0.707,0.293c-0.188,0.188-0.293,0.442-0.293,0.707c0,0.266,0.105,0.52,0.293,0.708
			C8.253,376.263,8.507,376.368,8.772,376.368z"/>
		<path fill="#020A13" fill-opacity="0.25" d="M16.773,378.368h-8c-0.265,0-0.52,0.106-0.707,0.293
			c-0.188,0.188-0.293,0.442-0.293,0.707c0,0.266,0.105,0.52,0.293,0.708c0.188,0.187,0.442,0.292,0.707,0.292h8
			c0.265,0,0.52-0.105,0.707-0.292c0.188-0.188,0.293-0.442,0.293-0.708c0-0.265-0.105-0.519-0.293-0.707
			C17.292,378.474,17.038,378.368,16.773,378.368z"/>
		<path fill="#020A13" fill-opacity="0.25" d="M16.773,382.368h-8c-0.265,0-0.52,0.106-0.707,0.293
			c-0.188,0.188-0.293,0.442-0.293,0.707c0,0.266,0.105,0.52,0.293,0.708c0.188,0.187,0.442,0.292,0.707,0.292h8
			c0.265,0,0.52-0.105,0.707-0.292c0.188-0.188,0.293-0.442,0.293-0.708c0-0.265-0.105-0.519-0.293-0.707
			C17.292,382.474,17.038,382.368,16.773,382.368z"/>
	</g>
</g>
<g>
	<g>
		<line fill="none" stroke="#091929" stroke-width="3" stroke-miterlimit="10" x1="246.5" y1="382.396" x2="244.5" y2="382.396"/>
		<path fill="none" stroke="#091929" stroke-width="3" stroke-miterlimit="10" stroke-dasharray="4.0356,4.0356" d="
			M240.465,382.396H112.5c-13.807,0-25-11.193-25-25v-166.79c0-12.445,9.093-22.765,20.997-24.681"/>
		<path fill="none" stroke="#091929" stroke-width="3" stroke-miterlimit="10" d="M110.501,165.684
			c0.66-0.052,1.326-0.079,1.999-0.079"/>
	</g>
</g>
<g>
	<g>
		
			<line fill="none" stroke="#091929" stroke-width="3" stroke-miterlimit="10" x1="345.833" y1="143.425" x2="347.833" y2="143.425"/>
		<path fill="none" stroke="#091929" stroke-width="3" stroke-miterlimit="10" stroke-dasharray="4.0377,4.0377" d="
			M351.871,143.425h71.634c13.807,0,25,11.193,25,25v166.79c0,12.444-9.092,22.765-20.996,24.681"/>
		<path fill="none" stroke="#091929" stroke-width="3" stroke-miterlimit="10" d="M425.504,360.137
			c-0.66,0.052-1.326,0.079-1.999,0.079"/>
	</g>
</g>
<g>
	<circle fill="#FFFFFF" cx="87.024" cy="274.469" r="15"/>
	<circle fill="#FFFFFF" cx="86.442" cy="276.804" r="13.99"/>
	<path fill="#50CEA8" d="M87.5,292.751c10.356,0,18.75-8.395,18.75-18.75c0-10.356-8.394-18.75-18.75-18.75
		c-10.356,0-18.75,8.394-18.75,18.75C68.75,284.356,77.144,292.751,87.5,292.751z M81.369,271.657h2.381
		c0.373,0,0.731,0.148,0.994,0.412c0.264,0.264,0.412,0.621,0.412,0.994c0,0.373-0.148,0.731-0.412,0.995
		c-0.264,0.263-0.621,0.411-0.994,0.411h-5.156c-0.373,0-0.731-0.148-0.994-0.411c-0.264-0.264-0.412-0.622-0.412-0.995v-6.094
		c0-0.372,0.148-0.73,0.412-0.994c0.264-0.264,0.621-0.412,0.994-0.412c0.373,0,0.731,0.148,0.994,0.412
		c0.264,0.264,0.412,0.622,0.412,0.994v1.407c0.872-1.166,2.005-2.111,3.306-2.762c1.302-0.651,2.738-0.99,4.194-0.988
		c2.882,0,5.445,1.237,7.176,3.318c0.239,0.287,0.354,0.657,0.32,1.029c-0.034,0.372-0.215,0.715-0.501,0.953
		c-0.287,0.239-0.657,0.354-1.029,0.32c-0.372-0.034-0.715-0.215-0.953-0.502c-1.192-1.438-2.962-2.306-5.012-2.306
		c-1.329,0-2.626,0.404-3.721,1.157C82.684,269.348,81.844,270.416,81.369,271.657L81.369,271.657z M95,281.032v-1.406
		c-0.847,1.125-1.936,2.046-3.187,2.694c-1.251,0.648-2.631,1.006-4.039,1.049c-1.408,0.042-2.807-0.232-4.095-0.803
		c-1.288-0.571-2.43-1.424-3.344-2.496c-0.124-0.14-0.22-0.303-0.28-0.48c-0.06-0.178-0.085-0.365-0.072-0.552
		c0.013-0.187,0.063-0.369,0.148-0.536c0.084-0.167,0.201-0.316,0.344-0.437c0.143-0.122,0.308-0.213,0.487-0.27
		c0.178-0.056,0.366-0.077,0.553-0.06c0.186,0.017,0.368,0.071,0.533,0.159s0.311,0.208,0.429,0.354
		c0.712,0.835,1.622,1.478,2.647,1.872c1.024,0.394,2.131,0.526,3.22,0.384c1.088-0.143,2.124-0.555,3.012-1.2
		c0.888-0.644,1.602-1.5,2.075-2.491H91.25c-0.373,0-0.731-0.148-0.994-0.412c-0.264-0.263-0.412-0.621-0.412-0.994
		c0-0.373,0.148-0.731,0.412-0.994c0.264-0.264,0.621-0.412,0.994-0.412h5.156c0.373,0,0.731,0.148,0.994,0.412
		c0.264,0.263,0.412,0.621,0.412,0.994v5.625c0,0.373-0.148,0.731-0.412,0.994c-0.264,0.264-0.621,0.412-0.994,0.412
		c-0.373,0-0.731-0.148-0.994-0.412C95.148,281.763,95,281.405,95,281.032L95,281.032z"/>
</g>
<g>
	<circle fill="#FFFFFF" cx="448.029" cy="244.056" r="15"/>
	<circle fill="#FFFFFF" cx="447.446" cy="246.391" r="13.99"/>
	<path fill="#50CEA8" d="M448.505,262.338c10.356,0,18.75-8.395,18.75-18.75c0-10.356-8.394-18.75-18.75-18.75
		c-10.356,0-18.75,8.394-18.75,18.75C429.755,253.943,438.149,262.338,448.505,262.338z M442.373,241.244h2.381
		c0.373,0,0.731,0.148,0.994,0.412c0.264,0.264,0.412,0.621,0.412,0.994c0,0.373-0.148,0.731-0.412,0.995
		c-0.264,0.263-0.621,0.411-0.994,0.411h-5.156c-0.373,0-0.731-0.148-0.994-0.411c-0.264-0.264-0.412-0.622-0.412-0.995v-6.094
		c0-0.372,0.148-0.73,0.412-0.994c0.264-0.264,0.621-0.412,0.994-0.412c0.373,0,0.731,0.148,0.994,0.412
		c0.264,0.264,0.412,0.622,0.412,0.994v1.407c0.872-1.166,2.004-2.111,3.306-2.762c1.302-0.651,2.738-0.99,4.194-0.988
		c2.882,0,5.445,1.237,7.176,3.318c0.239,0.287,0.354,0.657,0.319,1.029c-0.034,0.372-0.214,0.715-0.501,0.953
		c-0.287,0.239-0.657,0.354-1.029,0.32c-0.372-0.034-0.715-0.215-0.953-0.502c-1.193-1.438-2.963-2.306-5.012-2.306
		c-1.329,0-2.626,0.404-3.721,1.157C443.689,238.935,442.849,240.003,442.373,241.244L442.373,241.244z M456.005,250.619v-1.406
		c-0.847,1.125-1.936,2.046-3.187,2.694c-1.251,0.648-2.631,1.006-4.039,1.049c-1.408,0.042-2.807-0.232-4.095-0.803
		c-1.288-0.571-2.43-1.424-3.344-2.496c-0.124-0.14-0.22-0.303-0.28-0.48c-0.06-0.178-0.085-0.365-0.072-0.552
		c0.013-0.187,0.063-0.369,0.148-0.536s0.201-0.316,0.344-0.437c0.143-0.122,0.308-0.213,0.486-0.27
		c0.178-0.056,0.366-0.077,0.553-0.06c0.186,0.017,0.368,0.071,0.533,0.159c0.165,0.088,0.311,0.208,0.43,0.354
		c0.712,0.835,1.622,1.478,2.647,1.872c1.024,0.394,2.131,0.526,3.219,0.384c1.088-0.143,2.124-0.555,3.012-1.2
		c0.888-0.644,1.602-1.5,2.075-2.491h-2.181c-0.373,0-0.731-0.148-0.994-0.412c-0.264-0.263-0.412-0.621-0.412-0.994
		c0-0.373,0.148-0.731,0.412-0.994c0.264-0.264,0.621-0.412,0.994-0.412h5.156c0.373,0,0.731,0.148,0.994,0.412
		c0.264,0.263,0.412,0.621,0.412,0.994v5.625c0,0.373-0.148,0.731-0.412,0.994c-0.264,0.264-0.621,0.412-0.994,0.412
		c-0.373,0-0.731-0.148-0.994-0.412C456.153,251.35,456.005,250.992,456.005,250.619L456.005,250.619z"/>
</g>
<polyline fill="none" stroke="#091929" stroke-width="3" stroke-miterlimit="10" points="351.5,134.24 342.407,143.332 
	350.788,151.713 "/>
<polyline fill="none" stroke="#091929" stroke-width="3" stroke-miterlimit="10" points="431.343,351.479 422.251,360.572 
	430.631,368.952 "/>
<polyline fill="none" stroke="#091929" stroke-width="3" stroke-miterlimit="10" points="244.28,373.66 253.372,382.752 
	244.992,391.132 "/>
<polyline fill="none" stroke="#091929" stroke-width="3" stroke-miterlimit="10" points="106.25,156.869 115.343,165.962 
	106.963,174.342 "/>
</svg>
