<?xml version="1.0" encoding="utf-8"?>
<!-- Generator: Adobe Illustrator 17.0.0, SVG Export Plug-In . SVG Version: 6.00 Build 0)  -->
<!DOCTYPE svg PUBLIC "-//W3C//DTD SVG 1.1 Tiny//EN" "http://www.w3.org/Graphics/SVG/1.1/DTD/svg11-tiny.dtd">
<svg version="1.1" baseProfile="tiny" id="Layer_1" xmlns="http://www.w3.org/2000/svg" xmlns:xlink="http://www.w3.org/1999/xlink"
	 x="0px" y="0px" width="486px" height="6px" viewBox="0 0 486 6" xml:space="preserve">
<path fill="none" stroke="#06D6A0" stroke-width="2" stroke-miterlimit="10" d="M3,2.5c15.822,0,31.488,1.484,47.37,1.414
	c40.257-0.177,80.109-0.352,120.354-0.529c27.559,0,55.121-0.242,82.679-0.363c12.981-0.057,25.961-0.303,38.942-0.345
	c12.558-0.04,25.135,0.656,37.726,0.656c6.713,0,13.818,0.676,20.492-0.008c2.592-0.265,4.928-0.714,7.605-0.725
	c3.57-0.015,7.139-0.032,10.709-0.05c6.654-0.033,13.308-0.074,19.961-0.108c5.787-0.029,11.845-0.767,17.582,0.219
	c4.012,0.689,8.003,0.645,12.132,0.829c4.39,0.196,8.775-0.352,13.09-0.325c4.099,0.026,8.145-0.966,12.251-0.982
	c2.807-0.011,5.411,0.464,8.174,0.49c2.418,0.023,4.821-0.335,7.235-0.342c1.696-0.005,3.287,0.265,4.977,0.333
	c3.361,0.136,6.572-0.154,9.859-0.584C477.965,1.582,482.139,2.017,486,2"/>
</svg>
