<svg width="67" height="108" viewBox="0 0 67 108" fill="none" xmlns="http://www.w3.org/2000/svg">
<g clip-path="url(#clip0)">
<path d="M63.1716 107.345C59.8758 105.512 56.9026 103.859 53.9287 102.205C54.1285 101.799 54.3288 101.391 54.5286 100.985C56.1207 101.672 57.7129 102.359 60.0359 103.361C53.3306 91.2758 48.8114 79.0296 46.8494 65.7173C39.4316 68.6623 33.9907 65.1859 29.085 60.528C21.8528 53.6624 16.7142 45.1814 12.9662 36.0774C8.52051 25.2785 5.02027 14.0832 1.14601 3.04639C0.878083 2.28175 0.906535 1.41128 0.796875 0.589843C1.05117 0.508536 1.30546 0.426631 1.55975 0.344727C2.00491 1.44297 2.53128 2.5155 2.8822 3.64424C6.71793 15.9802 10.495 28.3317 16.662 39.7691C20.4474 46.7902 24.4686 53.6743 30.3097 59.1494C32.6309 61.3256 35.5307 63.1819 38.498 64.2484C40.7677 65.0645 43.5566 64.4105 46.4576 64.4105C46.3574 62.4465 46.2881 61.1946 46.2306 59.9428C45.8411 51.5042 44.9455 43.0142 47.6573 34.7866C48.3544 32.6708 49.4664 30.5419 50.8932 28.8536C54.5878 24.4815 59.5872 25.3502 60.9132 30.8887C61.8023 34.6025 61.7543 38.7999 61.0738 42.5885C59.5848 50.8758 54.8089 58.8092 48.6395 64.7357C50.5488 78.4174 54.9636 91.2896 62.5379 103.654C63.2747 102.028 63.7311 100.958 64.2415 99.9135C64.6902 98.9958 65.1988 98.1074 65.6813 97.2065C66.0536 97.3661 66.4258 97.5263 66.7981 97.6859C65.6499 100.742 64.5029 103.798 63.1716 107.345ZM48.2524 62.3646C49.4054 61.3429 49.8908 61.0135 50.2506 60.5783C54.8712 54.992 58.2457 48.7122 59.4473 41.5267C59.9885 38.2912 60.0092 34.7633 59.3246 31.5732C58.4295 27.4026 54.8166 26.7898 52.1415 30.17C50.8268 31.8315 49.5488 33.8815 49.2269 35.9129C48.3929 41.1752 47.9193 46.5157 47.655 51.8431C47.4949 55.0524 47.9952 58.2951 48.2524 62.3646Z" fill="black"/>
</g>
<defs>
<clipPath id="clip0">
<rect width="66" height="107" fill="white" transform="translate(0.796875 0.344727)"/>
</clipPath>
</defs>
</svg>
