<svg width="67" height="64" viewBox="0 0 67 64" fill="none" xmlns="http://www.w3.org/2000/svg">
<path d="M61.1756 11.2604C61.5355 11.1002 61.8754 10.8901 62.1953 10.65C63.1151 9.9496 63.6047 8.81943 63.7742 7.66936C63.9138 6.66931 63.6834 5.61939 63.1731 4.62958C62.8929 4.07969 62.5027 3.52985 62.0025 3.08004C61.4023 2.53027 60.6021 2.16057 59.7521 2.04089C58.222 1.82148 56.5822 2.32209 55.3426 3.40256C54.9927 3.71269 54.8129 4.17278 54.693 4.61283C54.5732 5.06287 54.5234 5.49288 54.3335 5.88295C53.8839 6.80313 54.2243 7.87299 54.5146 8.72288C54.825 9.64276 55.4053 10.4526 56.2055 10.9123C56.6556 11.1721 57.0956 11.4219 57.5757 11.5017C58.3857 11.6214 59.0857 11.5612 59.6957 11.6009C60.2457 11.5807 60.6957 11.4506 61.1356 11.3104C61.1456 11.3004 61.1656 11.2904 61.1756 11.2604L60.2548 9.1307C60.1448 9.12074 60.0748 9.19075 59.9748 9.21079C59.8748 9.24083 59.7849 9.32087 59.6849 9.31091C59.5649 9.30095 59.4548 9.231 59.3348 9.25104C59.1448 9.30112 58.9449 9.32119 58.6749 9.40129C58.4449 9.46138 58.2449 9.40148 58.0349 9.33156C57.7748 9.25165 57.6247 9.04171 57.4147 8.86179C57.1846 8.68188 56.8945 8.45199 56.8244 8.14201C56.7142 7.70206 56.404 7.15218 56.6138 6.64209C56.7137 6.42206 56.6236 6.10209 56.8436 5.92201C57.0935 5.72191 57.1033 5.31189 57.4333 5.18176C57.7932 5.04162 58.0431 4.74153 58.4331 4.71138C58.7631 4.69125 59.063 4.49116 59.3931 4.70103C59.5231 4.78098 59.6431 4.70093 59.7731 4.75088C60.2132 4.96071 60.7132 4.97052 61.0034 5.38041C61.1835 5.64034 61.3035 5.92028 61.3537 6.21026C61.3837 6.39025 61.5038 6.53023 61.4439 6.73025C61.3739 6.93028 61.484 7.06022 61.444 7.22024C61.3742 7.51027 61.4243 7.80025 61.2544 8.04032C61.0845 8.25038 61.0346 8.51039 60.8446 8.68046C60.6647 8.85053 60.4847 9.03061 60.2448 9.1307L61.1756 11.2604Z" fill="black"/>
<path fill-rule="evenodd" clip-rule="evenodd" d="M12.5315 43.0372L12.6264 42.4661L12.675 42.7176L12.7551 43.1076C12.7751 43.1825 12.7951 43.2598 12.8151 43.3372L12.8152 43.3376L12.8153 43.3379C12.8353 43.4153 12.8553 43.4927 12.8753 43.5675C13.0555 44.1675 13.3157 44.6874 13.5759 45.1173C14.3505 46.3308 14.997 46.9049 15.6116 47.4507V47.4508L15.6968 47.5265C16.2693 47.9875 16.8563 48.4266 17.7881 48.9247C17.7537 48.9411 17.7195 48.958 17.6854 48.9758C16.6856 49.4762 15.8259 50.2165 15.2063 51.0767C14.4385 52.1402 13.9615 53.298 13.6408 54.4642C13.5931 54.3489 13.5236 54.2432 13.4274 54.147C13.3873 54.1071 13.3573 54.0471 13.3373 53.9971C13.2579 53.7895 13.1572 53.5962 13.0567 53.4032C12.8908 53.0848 12.7253 52.7671 12.6567 52.3873C12.6166 52.1873 12.4965 51.9174 12.2365 51.8575C11.9465 51.7976 11.8364 51.5876 11.7363 51.3477C11.7301 51.3313 11.7252 51.3144 11.7204 51.2978C11.7016 51.2333 11.6836 51.1715 11.5962 51.1477C11.5467 51.1338 11.4966 51.1219 11.4468 51.11C11.1747 51.045 10.9153 50.9831 10.856 50.628C10.846 50.578 10.766 50.5381 10.716 50.5481C10.636 50.5548 10.5826 50.5259 10.5293 50.497C10.5026 50.4826 10.4759 50.4682 10.4459 50.4582C10.3675 50.4294 10.2917 50.3945 10.2162 50.3597C10.003 50.2615 9.79164 50.1641 9.52583 50.2085C9.43584 50.2286 9.41583 50.1786 9.3858 50.0986C9.23567 49.7386 8.98554 49.4587 8.6155 49.3689C8.31607 49.2954 8.05247 49.1585 7.79865 49.0031C8.56385 48.5471 9.2811 48.009 9.94317 47.3982C10.6329 46.7479 11.2626 45.9976 11.7523 45.1375C12.0021 44.7074 12.202 44.2473 12.3518 43.7672C12.4042 43.6162 12.4395 43.4523 12.4744 43.2896C12.4927 43.2044 12.5109 43.1196 12.5315 43.0372ZM4.91205 47.716C4.9559 47.6972 4.99953 47.6787 5.04315 47.6601L5.04327 47.66L5.05135 47.6569C5.50801 47.478 5.91593 47.3182 6.39302 47.0595C7.4028 46.4891 7.97266 46.0689 8.5025 45.6387L8.52407 45.6201C9.02754 45.1855 9.5599 44.7259 10.1018 43.8581C10.2717 43.568 10.4416 43.228 10.5514 42.8679L10.6313 42.5979L10.7212 42.2279C10.7809 41.9788 10.8405 41.7198 10.9002 41.4607L10.9009 41.4578C11.1405 40.4277 11.4001 39.3976 11.6298 38.5775C11.851 37.8023 12.0997 37.9699 12.4402 38.1991C12.5257 38.2568 12.6171 38.3183 12.7152 38.3697C12.8244 38.3874 12.9389 38.4013 13.0533 38.3975C13.5933 38.3773 13.7135 38.7272 13.7636 39.0072C13.984 40.0471 14.2343 41.067 14.5047 42.0869L14.675 42.7169C14.7039 42.787 14.7294 42.8588 14.755 42.9309C14.7915 43.0336 14.8281 43.1369 14.8752 43.2368C15.0353 43.5767 15.2354 43.8966 15.4655 44.1966C15.9358 44.8064 16.526 45.3262 17.1662 45.7859C18.4665 46.6954 19.9667 47.3748 21.4669 47.8543C21.727 47.9442 21.997 48.0541 22.2571 48.194C22.2883 48.2108 22.3198 48.2275 22.3514 48.2442C22.8254 48.4954 23.316 48.7554 23.1476 49.6836L23.1409 49.7207C23.1427 49.738 23.1443 49.7557 23.1457 49.7737C23.1974 50.5229 23.0006 50.5276 22.6111 50.5369C22.4704 50.5402 22.3045 50.5442 22.116 50.5841C21.2261 50.7744 20.5962 50.8247 20.0162 50.8449L19.6362 50.845C19.5962 50.845 19.5861 50.845 19.4962 50.8651C19.2922 50.9022 19.0883 50.9824 18.8764 51.0656V51.0657L18.8263 51.0853C17.8664 51.5557 17.3966 52.0259 16.9668 52.546C16.547 53.0762 16.1372 53.6564 15.7176 54.7765C15.4279 55.5466 15.1883 56.4767 14.9487 57.6068C14.6992 58.6969 14.4296 59.787 14.1899 60.6571C14.0348 61.2132 13.8695 61.3126 13.6727 61.2444C13.6387 61.2797 13.6013 61.314 13.5601 61.347C13.2102 61.6271 12.9502 61.6072 12.8101 61.3073C12.7719 61.2121 12.754 61.1048 12.7357 60.9957C12.7252 60.9329 12.7145 60.8694 12.6999 60.8073C12.6937 60.7338 12.6735 60.6631 12.6475 60.5937C12.5926 60.5201 12.5623 60.4405 12.5483 60.3589C12.5167 60.2828 12.4899 60.2063 12.4796 60.1274C12.4481 59.8947 12.3691 59.6739 12.2899 59.4526C12.2432 59.322 12.1964 59.1911 12.1592 59.0575C12.1335 58.9675 12.1022 58.8776 12.071 58.7876C12.0293 58.6676 11.9876 58.5476 11.959 58.4276C11.9339 58.3075 11.9314 58.1823 11.9288 58.0559C11.9263 57.9298 11.9237 57.8025 11.8987 57.6776C11.8412 57.4236 11.8106 57.1696 11.7794 56.9101C11.7725 56.8529 11.7656 56.7954 11.7583 56.7377C11.741 56.5995 11.7162 56.4688 11.6904 56.3327C11.6864 56.3112 11.6823 56.2895 11.6782 56.2677C11.6381 56.1477 11.5981 56.0377 11.548 55.9178C11.5152 55.8521 11.4748 55.7894 11.4341 55.7262C11.3262 55.5586 11.216 55.3876 11.2377 55.1479C11.2377 55.0729 11.1673 55.033 11.1008 54.9954C11.0964 54.9929 11.092 54.9904 11.0876 54.9879C10.9776 54.928 10.9176 54.848 10.9176 54.738C10.9175 54.558 10.7874 54.468 10.6474 54.4081C10.4374 54.3182 10.2874 54.1982 10.2373 53.9783C10.204 53.8057 10.0607 53.7345 9.92132 53.6653C9.85064 53.6301 9.78096 53.5955 9.72711 53.5485C9.63709 53.4735 9.54955 53.391 9.46202 53.3086C9.37449 53.2261 9.28696 53.1436 9.19693 53.0687C9.03689 52.9487 8.84685 52.8588 8.66683 52.7889C8.64134 52.7782 8.6154 52.7708 8.59045 52.7636C8.49791 52.737 8.41893 52.7144 8.42675 52.5489C8.4367 52.4389 8.35665 52.369 8.27665 52.369C8.13305 52.3588 8.02624 52.2855 7.91983 52.2124C7.81877 52.143 7.71806 52.0738 7.58653 52.0593C7.359 52.0326 7.18069 51.9118 7.0007 51.79C6.91173 51.7297 6.82233 51.6692 6.72638 51.6196C6.71338 51.6138 6.70037 51.6078 6.68731 51.6018C6.60994 51.5662 6.53045 51.5297 6.43634 51.5297C6.42998 51.5297 6.42361 51.5297 6.41723 51.5298C6.28293 51.5302 6.14407 51.5307 6.09627 51.3398C6.08626 51.3098 6.07626 51.2898 6.04626 51.2799C5.81416 51.2345 5.60748 51.1307 5.40187 51.0273C5.19994 50.9258 4.99903 50.8248 4.77605 50.7803C4.62991 50.7568 4.49265 50.7044 4.35381 50.6514C4.1981 50.592 4.04039 50.5318 3.86594 50.5107C3.49592 50.4708 3.02588 50.331 2.62582 50.1712L2.55581 50.1512C2.11574 49.9714 2.03563 49.6414 2.23538 48.9813C2.36521 48.5413 2.59506 48.2112 2.83495 47.9011C2.9449 47.771 3.07489 47.691 3.2049 47.7109C3.26634 47.7197 3.32948 47.7182 3.39283 47.7166C3.54603 47.713 3.70046 47.7093 3.83493 47.8507C3.98498 48.0006 4.195 48.0006 4.41493 47.8105C4.59694 47.6493 4.7741 47.6304 4.91205 47.716Z" fill="black"/>
</svg>
