<?xml version="1.0" encoding="utf-8"?>
<!-- Generator: Adobe Illustrator 17.0.0, SVG Export Plug-In . SVG Version: 6.00 Build 0)  -->
<!DOCTYPE svg PUBLIC "-//W3C//DTD SVG 1.1//EN" "http://www.w3.org/Graphics/SVG/1.1/DTD/svg11.dtd">
<svg version="1.1" id="Layer_1" xmlns="http://www.w3.org/2000/svg" xmlns:xlink="http://www.w3.org/1999/xlink" x="0px" y="0px"
	 width="1611.695px" height="362px" viewBox="-67.175 470 1611.695 362" enable-background="new -67.175 470 1611.695 362"
	 xml:space="preserve">
<path fill="#FBFBCC" d="M-9.841,792.052l0.003,0.047c0.012-0.012,0.02-0.021,0.032-0.033
	C-9.819,792.063-9.829,792.056-9.841,792.052z"/>
<path fill="#FBFBCC" d="M86.769,796.155c-1.036,0.037-2.758-0.33-2.826,1.199c-0.068,1.528-2.146-1.999-1.387,0.476l0.159,0.127
	c-0.763,0.599-2.595-1.834-2.388,0.684l-0.105,0.492c-0.298,0.194-0.79,0.089-1.036,0.037l0.052-0.246
	c1.052-1.319,1.403-1.758-0.44-0.351c-1.245,1.021,0.225-2.266-1.125-0.753l-0.277,2.512c2.34,2.297,3.758-0.743,5.83-0.817
	l0.013-1.068c1.735,1.831,3.147,0.878,4.253-0.853C87.35,797.05,87.015,796.207,86.769,796.155z"/>
<path fill="#FBFBCC" d="M105.101,793.37l-1.648,1.706c1.177,0.508,2.056,1.209,3.04,1.418c0.492,0.105,1.193-0.774,1.544-1.214
	l-2.407-0.769C105.436,794.213,105.295,793.668,105.101,793.37z"/>
<path fill="#FBFBCC" d="M172.471,789.704c-0.439-0.351-0.879-0.701-1.266-1.298c-0.403,0.686-1.633,0.424-1.649,1.706
	c0.461,2.669,2.58-1.251,2.9,0.874C172.806,790.547,174.491,789.877,172.471,789.704z"/>
<path fill="#FBFBCC" d="M121.68,792.784l-0.014,1.23c-1.025-0.429-1.597-0.64-0.671-1.634c-0.246-0.052-0.686-0.403-0.932-0.455
	c-0.246-0.052-0.403,0.685-0.403,0.685c0.581,0.895,1.162,1.79,1.743,2.685l0.421-0.975c0.373,0.605,0.88,1.375,1.704,0.656
	c0.649-0.633,0.366-1.721,0.329-2.758C123.261,792.606,122.947,794.081,121.68,792.784z"/>
<path fill="#FBFBCC" d="M446.943,766.075c-0.104,0.492-0.157,0.738-0.157,0.738c1.424,0.56,2.795,1.365,4.219,1.925
	c0,0,0.649-0.633,0.403-0.685C450.246,766.263,448.001,768.357,446.943,766.075z"/>
<path fill="#FBFBCC" d="M310.105,779.645c0.738,0.157,1.476,0.314,2.267,0.225c0.246,0.052,0.455-0.931,0.805-1.371
	c-0.544,0.141-1.282-0.016-1.826,0.126C310.807,778.766,310.65,779.504,310.105,779.645z"/>
<path fill="#FBFBCC" d="M374.728,770.767c-0.843,0.335-2.826,1.199-2.633,1.497c0.864,1.983,2.141-1.602,3.057,0.136
	c0.052-0.246,0.35-0.44,0.403-0.686C375.167,771.118,374.78,770.521,374.728,770.767z"/>
<path fill="#FBFBCC" d="M158.456,790.322c-0.508,1.177-0.084,2.81-1.717,3.234c1.23,0.261,1.827-0.126,1.842-1.408
	c0.121-1.774,0.895-0.581,1.335-0.23C161.02,790.353,158.492,791.358,158.456,790.322z"/>
<path fill="#FBFBCC" d="M261.319,784.179c1.036-0.037,2.318-0.021,3.846,0.047c0,0,0.545-0.141,1.141-0.529
	c-1.528-0.068-2.81-0.083-4.338-0.151C261.722,783.493,261.617,783.985,261.319,784.179z"/>
<path fill="#FBFBCC" d="M16.278,792.73c1.104-1.565-1.424-0.56-1.408-1.842c-0.126-1.827-1.497-2.632-2.81-0.084l2.198,1.753
	C15.048,792.468,16.225,792.976,16.278,792.73z"/>
<path fill="#FBFBCC" d="M528.403,763.862c0.035-0.014,0.06-0.028,0.092-0.042c-0.112-0.002-0.223-0.009-0.335-0.01
	C528.295,763.839,528.403,763.862,528.403,763.862z"/>
<path fill="#FBFBCC" d="M472.933,762.347c-0.193-0.299-0.387-0.597-0.387-0.597l0.215,2.617c1.282,0.015,2.512,0.277,3.794,0.293
	c0.246,0.052,0.895-0.581,1.193-0.775c-0.246-0.052-0.738-0.157-0.932-0.455C475.743,762.43,473.692,764.822,472.933,762.347z"/>
<path fill="#FBFBCC" d="M619.585,757.034c-1.036,0.037-2.758-0.33-2.826,1.199c-0.068,1.528-2.146-1.999-1.387,0.476
	c0.108,0.023,0.166,0.039,0.217,0.071c-0.676,0.543-2.658-1.841-2.447,0.741l-0.104,0.492c-0.299,0.193-0.79,0.089-1.036,0.037
	l0.052-0.246c1.052-1.319,1.402-1.759-0.44-0.351c-1.245,1.02,0.225-2.266-1.125-0.754c-0.157,0.738-0.12,1.774-0.277,2.512
	c2.339,2.298,3.757-0.743,5.83-0.816c0.089-0.421-0.03-0.707-0.003-1.088c1.742,1.855,3.16,0.902,4.268-0.834
	C620.166,757.929,619.831,757.086,619.585,757.034z"/>
<path fill="#FBFBCC" d="M637.917,754.25c-0.649,0.633-0.999,1.073-1.648,1.706c1.178,0.508,2.057,1.209,3.041,1.418
	c0.492,0.105,1.193-0.774,1.544-1.214c-0.738-0.157-1.67-0.612-2.408-0.769C638.252,755.092,638.111,754.548,637.917,754.25z"/>
<path fill="#FBFBCC" d="M705.289,750.583c-0.44-0.35-0.88-0.701-1.267-1.297c-0.403,0.685-1.633,0.424-1.648,1.706
	c0.46,2.669,2.58-1.251,2.899,0.874C705.623,751.426,707.309,750.756,705.289,750.583z"/>
<path fill="#FBFBCC" d="M654.55,753.417c-0.104,0.489,0.085,0.787-0.015,1.274c-1.066-0.264-1.599-0.681-0.671-1.678
	c-0.246-0.052-0.686-0.402-0.931-0.455c-0.246-0.052-0.403,0.686-0.403,0.686c0.581,0.895,1.161,1.79,1.742,2.684
	c0.091-0.426,0.154-0.674,0.394-1.017c0.375,0.611,0.886,1.436,1.731,0.699c0.649-0.634,0.366-1.722,0.33-2.758
	C656.078,753.485,655.764,754.961,654.55,753.417z"/>
<path fill="#FBFBCC" d="M979.761,726.954c-0.105,0.492-0.157,0.738-0.157,0.738c1.423,0.559,2.794,1.365,4.218,1.925
	c0,0,0.649-0.633,0.403-0.685C983.115,726.896,980.87,728.989,979.761,726.954z"/>
<path fill="#FBFBCC" d="M844.219,739.259c-0.544,0.141-0.701,0.879-1.245,1.02c0.738,0.157,1.475,0.314,2.266,0.225
	c0.246,0.053,0.455-0.931,0.806-1.371C845.449,739.52,844.763,739.117,844.219,739.259z"/>
<path fill="#FBFBCC" d="M907.597,731.4c-0.843,0.335-2.826,1.199-2.632,1.497c0.863,1.983,2.14-1.601,3.056,0.136
	c0.052-0.246,0.351-0.44,0.403-0.686C907.984,731.997,907.597,731.4,907.597,731.4z"/>
<path fill="#FBFBCC" d="M691.272,751.201c-0.508,1.178-0.084,2.811-1.716,3.235c1.229,0.261,1.826-0.126,1.842-1.408
	c0.12-1.774,0.895-0.581,1.334-0.23C693.836,751.233,691.361,751.992,691.272,751.201z"/>
<path fill="#FBFBCC" d="M794.188,744.813c1.036-0.037,2.318-0.021,3.847,0.047c0,0,0.544-0.142,1.141-0.529
	c-1.529-0.068-2.811-0.084-4.339-0.152C794.539,744.373,794.486,744.619,794.188,744.813z"/>
<path fill="#FBFBCC" d="M1061.22,724.742c0.035-0.014,0.059-0.028,0.091-0.042c-0.112-0.002-0.223-0.009-0.335-0.01
	C1061.112,724.719,1061.22,724.742,1061.22,724.742z"/>
<path fill="#FBFBCC" d="M1186.09,705.798l-0.3,0.194C1185.79,705.992,1185.74,706.238,1186.09,705.798z"/>
<path fill="#FBFBCC" d="M1005.8,722.981c-0.19-0.298-0.38-0.597-0.38-0.597l0.21,2.617c1.28,0.016,2.51,0.277,3.79,0.293
	c0.25,0.052,0.85-0.335,1.2-0.775c-0.25-0.052-0.74-0.157-0.93-0.455C1008.61,723.064,1006.56,725.456,1005.8,722.981z"/>
<path fill="#FBFBCC" d="M1152.45,717.668c-1.03,0.037-2.75-0.329-2.82,1.199s-2.15-1.999-1.39,0.476l0.161,0.129
	c-0.763,0.594-2.593-1.834-2.391,0.683l-0.1,0.491c-0.3,0.194-0.79,0.089-1.04,0.037l0.05-0.246c1.06-1.319,1.41-1.758-0.44-0.35
	c-1.24,1.02,0.23-2.266-1.12-0.754l-0.28,2.512c2.34,2.297,3.76-0.743,5.83-0.817l0.017-1.064c1.736,1.827,3.146,0.873,4.253-0.857
	C1153.04,718.563,1152.7,717.721,1152.45,717.668z"/>
<path fill="#FBFBCC" d="M1170.73,715.129l-1.64,1.706c1.17,0.508,2.05,1.209,3.04,1.419c0.49,0.104,1.19-0.775,1.54-1.215
	l-2.41-0.769C1171.07,715.972,1170.93,715.428,1170.73,715.129z"/>
<path fill="#FBFBCC" d="M1238.16,711.218c-0.44-0.351-0.88-0.702-1.27-1.298c-0.4,0.685-1.63,0.424-1.65,1.706
	c0.46,2.669,2.58-1.251,2.9,0.874C1238.44,712.306,1240.13,711.636,1238.16,711.218z"/>
<path fill="#FBFBCC" d="M1187.37,714.296l-0.02,1.274c-1.064-0.264-1.598-0.68-0.67-1.676c-0.25-0.052-0.69-0.403-0.93-0.455
	c-0.25-0.053-0.4,0.685-0.4,0.685c0.58,0.895,1.16,1.79,1.74,2.685l0.421-0.973c0.375,0.605,0.882,1.372,1.699,0.653
	c0.65-0.633,0.37-1.722,0.33-2.758C1188.9,714.364,1188.63,715.594,1187.37,714.296z"/>
<path fill="#FBFBCC" d="M1375.79,701.158c0.74,0.157,1.48,0.314,2.27,0.225c0.24,0.052,0.45-0.932,0.8-1.371
	c-0.54,0.141-1.28-0.016-1.82,0.125C1376.49,700.279,1376.34,701.016,1375.79,701.158z"/>
<path fill="#FBFBCC" d="M1440.41,692.28c-0.84,0.335-2.82,1.199-2.63,1.497c0.86,1.983,2.14-1.601,3.06,0.136
	c0.05-0.246,0.35-0.44,0.4-0.686C1440.85,692.631,1440.41,692.28,1440.41,692.28z"/>
<path fill="#FBFBCC" d="M1224.14,711.836c-0.51,1.178-0.08,2.811-1.71,3.235c1.23,0.261,1.82-0.126,1.84-1.408
	c0.12-1.774,0.89-0.581,1.33-0.231C1226.65,712.114,1224.18,712.872,1224.14,711.836z"/>
<path fill="#FBFBCC" d="M1327.01,705.693c1.03-0.037,2.31-0.021,3.84,0.047c0,0,0.55-0.142,1.14-0.529
	c-1.53-0.068-2.81-0.084-4.34-0.152C1327.41,705.007,1327.3,705.499,1327.01,705.693z"/>
<path fill="#FBFBCC" d="M1081.97,714.244c1.1-1.565-1.43-0.56-1.41-1.842c-0.13-1.826-1.5-2.632-2.81-0.084l2.2,1.753
	C1080.68,714.228,1081.91,714.49,1081.97,714.244z"/>
<path fill="#FBFBCC" d="M-16.271,569.844c0.137-0.089,0.244-0.176,0.336-0.262C-16.106,569.645-16.236,569.676-16.271,569.844z"/>
<path fill="#FBFBCC" d="M-2.23,469.99V470h-0.2C-2.37,470-2.3,470-2.23,469.99z"/>
<path fill="#FBFBCC" d="M5.27,470H4.59c0.06-0.1,0.12-0.21,0.19-0.32l0.3-0.19C5.12,469.65,5.18,469.82,5.27,470z"/>
<path fill="#FBFBCC" d="M1539.76,683.33c1.67,0.61,3.09,1.17,4.76,1.79l-2.48-2.84l-4.55-6.41L1581.28,470H5.27
	c0.19,0.43,0.49,0.97,0.86,1.77c1.43,0.56,0.18,1.58-0.08,2.81c-0.11,0.49,0.34-0.51,0.92-0.7l-1.08,5.05
	c-0.04-0.18-0.08-0.36-0.13-0.55c0.05-0.25-0.74-0.16-0.99-0.22l-0.22,2.27l-0.11,0.49C4.2,480.87,4,480.57,4,480.57
	c0.32-1.47-2.65-0.82-1.75-1.4c1.94-1.9,2.11-3.92,1.6-6.34c-0.13-0.53-0.59-0.64,0.74-2.83h-6.82c0.49,1.39,1.59,3.41,0.88,4.29
	c-2.35,2.59,0.07,6.96-4.14,8.63c-0.25-0.05,0.08,0.79,0.03,1.04c2.32-0.02,0.04,1.03,0.48,1.39c-0.84,0.33,0.91,1.73-0.67,1.91
	c-0.29,0.19-0.79,0.09-1.03,0.04c0.05-0.25,0.35-0.44,0.15-0.74c-0.33-0.84-0.32-2.13-1-2.53c-0.69-0.4-1.18-0.51-0.78-1.19
	c-0.99,1.07-1.45,2-0.68,3.2c0,0,0.2,0.29,0.44,0.35l0.95-0.83c-0.05,0.25,0.44,0.35,0.39,0.6c0.07,2.07,0.15,4.14,0.22,6.21
	c0.09,0.79-0.56,1.43-0.42,1.97c0.72,1.44,0.97,1.49-0.72,2.16c-0.29,0.2-0.29,0.2-0.35,0.44l2.16,0.72l-2.61,0.22
	c-0.55,0.14-1.04,0.03-1.34,0.22l0.62,1.94c0.05-0.25,0.16-0.74,0.21-0.99c0.05-0.24,0.3-0.19,0.54-0.14
	c0.25,0.05,0.69,0.4,0.64,0.65c-0.51,1.18,0.74,3.76-2.7,3.02l-0.06,0.25c1.13,0.75-2.05,2.39,1.01,2.53l-0.8,4.97
	c-0.42,1.97-0.84,3.94-1.01,5.96c-0.11,0.49-1.93,0.61-0.26,1.23c-0.7,0.88-1.55,1.21-1.48-0.32c-0.03-1.04-0.58-0.89-1.07-1
	c-0.25-0.05-0.84,0.34-1.14,0.53c0.49,0.11,0.74,0.16,1.23,0.26c0.24,0.05,0.19,0.3,0.44,0.35c-0.3,0.2-0.65,0.64-0.9,0.58
	c-1.61-0.85-1.19,0.78-1.79,1.17c0.2,0.29,0.74,0.15,0.93,0.45c0.59,0.9,1.66,1.89,1.7,2.93c0.23,1.34-0.28,2.51-0.79,3.69
	c-1.37,2.8,0.52,6.02-1.83,8.61l0.25,0.05c0.72,1.44-2.11,2.64,0.25,3.65c-1.74,0.92-2.93,1.7-2.32,3.63
	c-0.05,0.24-0.15,0.73-0.45,0.93c-0.25-0.05-0.74-0.16-0.99-0.21c1.13,0.75,0.73,1.44,0.32,2.12l0.25,0.06
	c1.48,0.31,3.06,0.13,3.94,0.83c1.07,1-1.29-0.01-1.25,1.02c-0.16,0.74-2.04,1.11-3.18,1.64c-0.05,0.25-0.49-0.1-0.49-0.1
	c-0.24-0.05-0.19-0.3-0.14-0.55c-0.3,0.2-0.6,0.39-0.65,0.64c0,0,0.14,0.54,0.39,0.59c1.56,1.11,1.35,2.09-0.63,2.95
	c-1.14,0.53,0.32,2.13-1.31,2.55c0.24,0.05,0.49,0.11,0.68,0.41c0.34,0.84,1.55-1.22,1.48,0.31c0.18,1.58-0.88,2.9-0.65,4.23
	c0.24,1.34-1.68,0.67-1.4,1.76c0.2,0.3,0.64,0.65,0.88,0.7c-0.98-0.21,0.43,1.64-1,1.08c0.18,1.58-3.84-0.05-2.4,2.83
	c0.92,1.73,2.42-0.51,2.41,0.77c-0.07,1.52-0.38,3-1.38,4.07c-0.6,0.39-1.25,1.02-1.41,1.76c1.25-1.02,1.11,2.04,2.46,0.53
	c0,0,0.69,0.4,0.94,0.45l-0.06,0.25c0.83,0.94-4.28-0.4-0.56,1.42c-3.63-1.03-2.35,2.58-3.84,3.55c-0.3,0.2-0.07,1.53-1.21,2.06
	c-0.05,0.25,0.2,0.3,0.2,0.3c0.82,0.95,4.04,0.34,1.99,2.74c-0.3,0.19-1.2,0.77-0.32,1.47c0.91-1.86,2.18-0.56,3.41-0.3
	c0.49,0.1,1.33-0.23,1.93-0.62c0,0-0.14-0.54-0.09-0.79c-0.6,0.39-0.89,0.58-1.44,0.72c-0.05,0.25-0.54,0.14-0.54,0.14
	c-0.2-0.3-0.39-0.59-0.58-0.89c0.59-0.39,1.38-0.48,1.93-0.62c1.82-0.12,2.51,0.28,2.09,2.25c-0.56,1.42-1.24,1.02-2.03,1.11
	c-1.59,0.17,1.47,0.31,0.33,0.84c-0.89,0.58-1.76-1.4-2.32,0.02c0,0,1.18,0.51,1.57,1.1c0.19,0.3,0.03,1.04-0.27,1.23
	c-0.29,0.2-0.79,0.09-1.33,0.23c0.3-0.19,0.6-0.38,0.9-0.58c0.05-0.24,0.05-0.24,0.1-0.49c-0.74-0.16-1.72-0.37-2.46-0.52
	c-0.25-0.06-0.79,0.09-1.04,0.03l-0.1-0.4c0.09,0.15,0.4,0.21,0.4,0.21c0.35-0.44,1-1.07,1.4-1.76l-2.1-0.96
	c-0.99-0.21-2.22-0.47-1.2,0.77c1.22,1.55,0.18,1.58-1.1,1.57c-0.25-0.05-0.3,0.19-0.3,0.19l0.25,0.05c0.73,0.16,1.67,0.62,2.4,0.77
	c-0.79,0.09-1.33,0.23-2.07,0.08c-0.98-0.21-1.72-0.37-2-1.46c-0.15-0.54-0.83-0.95-1.22-1.54c-0.15,0.74-0.31,1.47-0.22,2.26
	c-0.06,0.25,0.63,0.65,0.88,0.71c4.23,0.64-0.19,3.3,1.92,4.26l-0.06,0.25c-0.68-0.41-1.07-1-1.75-1.41c-0.2-0.29-0.69-0.4-1.18-0.5
	l-0.3,0.19c2.25,1.51-3.36,4.94,2.15,5.6c0.25,0.05,0.83,0.95-0.07,1.53c-0.54,0.14-0.7,0.88-1.05,1.32c0.25,0.05,0.49,0.1,0.49,0.1
	c0.51-1.18,1.29,0.02,1.48,0.32c0.14,0.54-0.21,0.98-0.56,1.42c-0.65,0.63-1.6,1.46-1.75,2.2c-0.21,0.98,0.82,0.94,1.61,0.85
	l0.3-0.19c0.25,0.05,0.44,0.35,0.69,0.4c-0.3,0.2-0.9,0.58-1.14,0.53c-1.72-0.36-0.37,1.73-1.6,1.46c0.39,0.6,0.53,1.14,0.97,1.49
	c0.19,0.3,0.44,0.35,0.68,0.41c-0.79,0.09-1.33,0.23-2.12,0.32c0,0-0.39-0.6-0.33-0.85c-0.2-0.29-0.09-0.79-0.04-1.03
	c-0.35,0.44-0.7,0.88-0.95,0.82c-1.23-0.26-1.14,0.53-0.45,0.94c0.51,0.3,1.05,0.46,1.61,0.59c-0.98-0.2-1.83-0.34-2.7-0.31
	c-0.49-0.1-1.09,0.28-1.14,0.53c-0.06,0.24,0.03,1.03,0.28,1.09c0.49,0.1,1.07,1,1.53,0.06c0.05-0.24,1.09-0.28,1.38-0.47
	c-0.59,0.38,1.43,0.56,0.23,1.33c-1.79,1.16,0.47,2.67-0.09,4.1c-0.06,0.24,0.68,0.4,1.17,0.5c-0.49-0.1-1.28-0.01-1.82,0.13
	c-0.25-0.05-0.5-0.11-0.5-0.11c-0.19-0.3-0.19-0.3-0.38-0.59l-1,1.07c0.44,0.35,1.42,0.56,1.42,0.56c0.51-1.18,1.09-0.28,1.83-0.13
	c-0.25-0.05-0.55,0.15-0.55,0.15c-0.1,0.49-0.4,0.68-0.5,1.17c-1.57-1.1-2.02-0.17-2.23,0.81c-0.33,0.41-0.18,0.7-0.25,1.14
	c0.06-0.21,0.13-0.42,0.39-0.59l0.74,0.16c0.19,0.29,0.14,0.54,0.08,0.79l0.17,2.86c0.24,0.05,0.54-0.14,0.54-0.14
	c0.05-0.25,0.35-0.44,0.65-0.64c0.14,0.55,0.34,0.85,0.28,1.09c-0.31,1.48-2.98,1.94-2.12,3.92c0.14,0.55-0.06,1.53-1.29,1.27
	c0.1-0.49,0.2-0.98,0.31-1.48c0.05-0.24-0.39-0.59-0.39-0.59c-0.49-0.11-0.79,0.09-1.09,0.28c0.2,0.3,0.39,0.6,0.39,0.6
	c-1.19,0.77,2.73,2.89-0.38,3c-0.79,0.09-1.23-0.26-1.39,0.48c0,0,0.99,0.21,1.18,0.5c0.44,0.35,0.58,0.9,0.72,1.44l0.3-0.19
	c0.14,0.54,0.28,1.09,0.28,1.09c-0.65,0.63-1.79,1.16-2.68,1.74l0.1-0.49l0.16-0.74c-0.54,0.14-1.04,0.04-1.09,0.28
	c-1.05,1.32,1.81,1.16,1.3,2.34l0.25,0.05c0.25,0.05,0.3-0.19,0.35-0.44s0.16-0.74,0.21-0.98c0.14,0.54,0.04,1.03,0.48,1.38
	c0.19,0.3,0.98,0.21,1.47,0.32c-2.02-0.18-2.03,1.11-2,2.14c-0.1,0.49-1.35,1.51,0.43,1.63c1.23,0.27,0.51,2.43,2.44,1.81
	c0.25,0.05,0.69,0.4,0.93,0.46c-0.54,0.14-1.33,0.23-1.82,0.12c-0.74-0.16-1.78-0.12-2.52-0.28c-0.05,0.25,0.34,0.85,0.04,1.04
	c-0.59,0.39-1.03,0.04-1.18-0.51c-0.84,0.34-1.63,0.43-2.47,0.76c0,0-0.16,0.74,0.09,0.79c1.42,0.56,2.74,1.61,2.43,3.09
	c-0.21,0.98,0.4,2.91-1.12,2.85c-1.53-0.07-0.41,0.68-0.7,0.88c2.05,1.21-1.53,3.53,1.32,4.65c0.25,0.05,0.33,0.84,0.04,1.03
	c-0.65,0.64-1.44,0.73-1.21,2.06c0.23,1.34,2.81,0.09,1.7,1.65c3.75,0.54,2.68,3.14,2.56,4.91c-0.12,1.78-0.98,3.4-1.59,5.06
	c0.17-2.02-2.9-0.87-3.08-2.45l0.74,0.16c0.05-0.25-0.2-0.3-0.14-0.55c0.15-0.74,0.31-1.47,0.47-2.21c0.24,0.05,0.44,0.35,0.44,0.35
	c-0.06,0.25-0.11,0.49-0.16,0.74l0.19,0.3c0.25,0.05,0.55-0.15,0.79-0.09c-1.51-1.35,1.62-2.75-0.39-4.2
	c-0.39-0.31-0.03-1.29,0.17-2.02c0.02-0.09,0.04-0.17,0.06-0.25c-0.44-0.35-0.94-0.45-1.09,0.29c-0.16,0.73-1.25,1.02-1.9,1.65
	c-0.19-0.3-0.09-0.79-0.28-1.09s-0.69-0.4-0.93-0.45l-0.25-0.06c0.25,0.06,0.44,0.35,0.44,0.35c0.13,1.83,0.5,3.71,0.33,5.73
	c-0.02,1.28-0.87-1.98-1.29-0.02c-0.47,2.22-1.24,4.62-0.67,6.8c0.57,2.18-0.84,3.94,0.32,5.73c-0.05,0.24-1.43,0.72-0.61,1.67
	c-0.54,0.14-1.63,0.42-1.63,0.42c0.09,0.79,0.42,1.63,0.71,2.72c0.33,0.84,0.81,2.23,0.21,2.62c-1.19,0.77-1.65,1.71-1.36,2.79
	c0.75,2.48-3.39,2.62-2.53,4.61c0.73,1.44-0.42,1.97-0.82,2.65c-0.3,0.2-0.54,0.14-0.84,0.34c-0.25-0.05-0.11,0.49-0.11,0.49
	c1.32,1.05,1.34-0.23,1.94-0.62c0.29-0.19,0.79-0.09,1.08-0.28c0.25,0.05,0.2,0.3,0.2,0.3c-1.55,1.21-0.54,3.74-2.82,4.8
	c-0.85,0.33-0.77,2.4-1.03,3.63c-0.11,0.5-0.32,1.48,0.67,1.69c1.33-0.23-0.15-0.55-0.09-0.79c0.1-0.49,0.45-0.93,0.56-1.43
	c0.44,0.35,0.88,0.71,1.32,1.06c2.05,1.21-2.04,1.11-0.47,2.21c0.43,0.35,0.63,0.65,0.82,0.95c-0.49-0.11-0.98-0.21-1.42-0.56
	c-0.69-0.41-1.13-0.76-1.57-1.11c-0.05,0.25-0.1,0.49-0.15,0.74c0.37,1.88,1.04,3.56,0.92,5.34c-0.21,0.98-1.26,2.3-2.02,3.43
	c-1.56-1.11-0.59,0.39-0.65,0.63c1.39-0.48-0.06,1.53,1.52,1.35c0.79-0.09,0.19,0.3-0.3,0.19c0,0,0.19,0.3,0.39,0.6
	c0.72,1.44-1.99,0.86-1.32,2.55c0.58,0.89-0.27,2.51-0.98,3.39c-1.1,1.57-5.3,1.96-0.39,4.29c0,0,0.03,1.03-0.32,1.47
	c-0.7,0.88-1.35,1.51-2.05,2.39c-0.3,0.2,1.67,0.62,0.04,1.04c-0.84,0.34-0.93,3.15-0.54,3.74c0.58,0.9,1.07,1,1.28,0.02l2.25,1.51
	c-0.54,0.14-1.03,0.03-1.58,0.17c-1.63,0.43-1.42,3.04-3.88,2.52c-0.24-0.05-0.44-0.35-0.63-0.65l-1.31,2.55
	c-0.97,2.11,2.16,0.72,2.14,2c-0.15,0.74-0.26,1.23-0.42,1.97c-0.05,0.24-0.29,0.19-0.35,0.44l-0.14-0.55l-0.14-0.54
	c-0.25-0.05-0.3,0.19-0.35,0.44c-0.05,0.24-0.4,0.68-0.16,0.74c0.69,0.4,0.58,0.89-0.26,1.23c-0.3,0.19-0.35,0.43-0.4,0.68
	c3.05,0.14-1.28,3.59,2.32,3.58c0.79-0.09,3.16-0.35,1.22,1.54l0.24,0.06c0.25,0.05,0.49,0.1,0.74,0.15
	c-0.54,0.15-1.09,0.29-1.09,0.29c-1.7-1.65-2.46-0.53-3.7,0.49c-0.6,0.39-1.39,0.48-2.18,0.57c1.6,2.14,1.13,4.35-0.85,5.22
	c-2.23,0.81-0.77,2.4-1.77,3.48c0.93,0.45,0.91,1.73,2.49,1.56c0.3-0.2,0.83,0.94,1.22,1.54c-0.25-0.05-0.55,0.14-0.55,0.14
	c-0.8,1.37-2.4,2.83-2.76,4.56c-0.67,1.91-1.89,5.25,0.27,5.97c-0.25-0.06-0.74-0.16-1.04,0.03c-0.35,0.44-0.45,0.93-0.56,1.43
	c-0.01,1.28,2.01,1.45-0.04,3.84c-0.41,0.69,1.47,0.32-0.27,1.23c-0.54,0.14-0.84,0.34-1.38,0.48c1.16,1.79-1.33,3.83-2.68,5.34
	c-1.35,1.51-1.67,2.99-1.93,4.22c-0.26,1.23-0.47,2.21-1.33,3.83c-1.85,2.69,5.93-4.91,0.13,1.83c0.24,0.05,0.68,0.4,0.98,0.21
	c1.25-1.02,2.95-2.98,4.6-4.68c0.35-0.44,0.94-0.83,1.3-1.27c-0.36,0.44-0.16,0.74-0.51,1.18c-1.11,1.56-1.96,3.18-3.07,4.75
	l3.79-3.31l7.48-7.37l-0.2,0.95l10.66-0.79c-0.5,0.61,0.07,0.7,0.69,0.63c0.49,0.1,2.28-1.06,1.72,0.37
	c-0.11,0.49-1.99,0.86-3.13,1.39c-0.24-0.06-0.38-0.6-0.38-0.6c-1.99,0.86-2.97,0.66-3.9,0.2c-0.93-0.46-1.62-0.86-3.55-0.24
	c-1.69,0.67-1.88,0.37-1.72-0.37l-6.33,5.6c0.28,1.09,0.46,2.67,5.44-1.41c0.3-0.2,0.54-0.15,0.54-0.15
	c0.29,1.09,0.76,2.48,2.13,3.28c0.69,0.41,3.41-0.3,4.64-0.04c1.48,0.32,2.11,0.97,4.83,0.26c1.69-0.67,2,1.45,3.18,1.96
	c1.87,0.91,4.29,0.4,6.22-0.22c1.09-0.28,1.93-0.62,2.97-0.65c1.03-0.04,1.28,0.01,1.91,0.66c1.08,1,1.7-1.95,3.51-0.79
	c1.62,0.85,4.1,0.09,6.06,0.51c3.5,0.49,7.29,0.78,11.16-0.45c1.63-0.43,3.4-0.31,4.93-0.24c1.58-0.18,3.41-0.3,4.94-0.23
	c2.56,0.03,5.07,0.3,7.69,0.09c2.86-0.16,5.78-0.57,8.69-0.98c0.74,0.16,1.53,0.07,2.27,0.23c1.04-0.04,2.27,0.22,3.49,0.48
	c-0.19-0.29-0.33-0.84-0.28-1.09c0.35-0.44,1.2-0.77,1.79-1.16c0.3-0.19,0.74,0.16,0.99,0.21c-0.3,0.2-0.41,0.69-0.65,0.63
	c-2.21-0.47,0.7,1.43-0.55,1.43c0.24,0.05,0.48,0.1,0.73,0.16c2.12-0.32,5.3-1.96,6.12-1.02c1.9,1.95,3.23-1.88,4.34,0.16
	c0.96-2.11,2.25-2.1,4.25-0.64c1.37,0.8,4.04,0.34,6.06,0.52c-0.14-0.55-0.77-1.2-0.91-1.74c0.05-0.25,0.4-0.69,0.75-1.13
	c0.44,0.35,0.83,0.95,1.32,1.06c0.44,0.35,0.74,0.15,1.28,0.01c0.79-0.09-2.63,1.5,0.14,0.55c1.14-0.53-1.45,2,1.02,1.24
	c1.39-0.48,1.23-3.34,2.49-2.04c0.83,0.95,1.76,1.4,2.75,1.61c1.91,0.67,3.86-1.23,6.27-0.47c1.42,0.56,4.35-1.13,5.23-0.42
	c1.32,1.05,3.28-2.13,3.44,0.73l0.85-0.34c-0.25-0.05-0.25-0.05-0.5-0.1c-1.37-0.81,1.88-0.37,0.51-1.18
	c0.25,0.05,0.55-0.14,0.79-0.09c0.93,0.46-0.67-1.68,0.65-0.63c0.63,0.65,1.56,1.1,2.2,1.75c-0.14-0.54-0.04-1.03-0.18-1.58
	c0.05-0.24,0.05-0.24,0.1-0.49l0.2,0.3c0,0,0.19,0.3,0.39,0.6c0.29-0.2,0.59-0.39,0.59-0.39c0.05-0.22-0.1-0.48-0.27-0.75
	c0.08,0.04,0.16,0.05,0.18-0.04c2.23-0.81,2.9,0.87,3.73,1.82c0.97,1.49,2.32-0.02,3.44,0.73l0.51-1.18l0.28-2.51l-3.71,0.5
	c0,0-0.1,0.49-0.35,0.44c-0.49-0.11-1.03,0.03-1.28-0.02c0.3-0.19,0.6-0.39,0.9-0.58c0.29-0.19,0.35-0.44,0.35-0.44
	c-0.2-0.3-0.64-0.65-0.83-0.95c-0.05,0.25-0.05,0.25-0.11,0.5c-0.05,0.24-0.15,0.73-0.15,0.73c-0.79,0.09-1.78-0.12-2.81-0.08
	c-0.25-0.05-0.25-0.05-0.44-0.35c-0.05,0.25-0.16,0.74,0.03,1.04c-0.01,0.04,0.01,0.1,0.03,0.15c-2.02-1.71-2.1-3.45,0.02-4
	c2.18-0.56-1.05,1.32,0.48,1.39c0.49,0.1,1.72,0.36,1-1.08c1.44-0.72,3.63-2.57,4.81-2.06c4.02,1.63,8.41-2.07,11.77,1.48
	c-0.06,0.24,0.54-0.14,1.08-0.28c-0.81-2.24,1.15-0.53,1.5-0.97c0.88,0.7,1.84-1.41,2.56,0.03c0.19,0.3,0.14,0.54,0.34,0.84
	c-0.5-0.1-0.74-0.16-1.04,0.04c-1.14,0.53-2.28,1.05-2.69,1.74c-0.45,0.93-0.26,1.23-1.24,1.02c1.37,0.81,2.65,0.82,3.9-0.2
	c0.3-0.19,0.35-0.44,0.4-0.68l-1.42-0.56c0.05-0.25,0.15-0.74,0.4-0.69c2.48-0.76,4.95-1.52,7.37-2.03
	c0.85-0.34,1.78,0.12,2.38-0.27c1.54-1.21,1.54-1.21,2.81,0.09c0,0,0.24,0.05,0.49,0.1l-0.02-2.32l1.25,2.58
	c0.19,0.3,0.33,0.84,0.53,1.14l2.03-1.11c-0.24-0.05-0.79,0.09-1.28-0.01c-0.25-0.06-0.44-0.35-0.39-0.6
	c0.11-0.49,0.46-0.93,0.7-0.88c1.48,0.32,4.27-1.92,4.27,1.68l0.25,0.05c0.51-1.17,3.34,1.23,2.69-1.74l6.07-0.76
	c2.62-0.22,4.99-0.49,7.36-0.75c0.3-0.19,1.21,1.54,1.33-0.23c1.48,0.31,2.11,0.96,0.23,1.33c-1.08,0.28-0.94,0.83-0.8,1.37
	c0.19,0.3,0.63,0.65,1.07,1c0.11-0.49-0.09-0.79,0.02-1.28c0.05-0.25,0.05-0.25,0.1-0.49c0.44,0.35,0.93,0.45,0.88,0.7
	c-0.17,2.02,1.37,0.81,2.01,1.46c0.05-0.25-0.09-0.79,0.2-0.99c0.71-0.88,1.76-2.2,2.85-2.48c1.63-0.42,3.16-0.36,4.69-0.29
	c3.74,0.54,6.93-2.38,10.71-0.8l0.05-0.25c1.54-1.21,3.88,1.08,4.9-1.27c1.51,1.35,2.88,2.15,4.92,1.04
	c0.24,0.06,0.98,0.21,1.23,0.27c0,0,0.14,0.54,0.09,0.79c0.5-1.18,1.49-0.97,2.47-0.76c0.06-0.25,0.06-0.25,0.06-0.25
	c-0.24-1.33-0.91-3.02-0.45-3.95c0.56-1.42,0.04,1.04,1.37,0.81c0.55-0.15,1.95,1.7,2.78,2.64l-0.1,0.5
	c-0.3,0.19-0.55,0.14-0.85,0.33c0.2,0.3,0.69,0.4,0.93,0.46c0.3-0.2,0.6-0.39,0.65-0.64c0.91-1.86,1.95-1.9,3.66-0.25
	c0.58,0.9,2.28-1.06,3.25,0.44c0.05-0.25-0.14-0.55,0.15-0.74c0.65-0.64-1.81-1.16-0.17-1.58c1.63-0.43,3.54,0.24,5.23-0.43
	c1.63-0.43,1.46,1.59,2.6,1.07c0.3-0.2,0.4-0.69,0.46-0.94c0.03,1.04,1.68-0.67,1.37,0.81c1.93-0.62,1.53,3.67,4.32,1.43
	c1.6-1.46-1.6-2.14,0.03-2.56c1.63-0.42,3.71-0.5,5.13,0.06c0.93,0.46,1.56,1.11,2.65,0.82c-1.67-0.61,2.14-1.6-0.02-2.32
	c0,0,0.16-0.73,0.21-0.98l0.49,0.11c0.76-1.13,0.94,4.05,1.78,0.12c-0.05,3.84,3.78,1.57,5.34,2.68c0.25,0.05,1.93-0.62,2.76,0.32
	c0,0,0,0,0.05-0.24c0.7-0.88-0.74-3.76,2.6-2.53c0.24,0.05,1.07,1,1.58-0.18c-2.51-0.28-1.11-2.04-1.4-3.13
	c-0.14-0.54-1.07-1-1.46-1.59c0,0-0.54,0.14-0.84,0.33c0.44,0.35,0.88,0.7,1.32,1.06c0.19,0.29,0.39,0.59,0.39,0.59
	c-0.3,0.19-0.65,0.63-0.95,0.83c-0.44-0.35-0.83-0.95-1.21-1.55c-0.92-1.73-0.46-2.66,1.85-2.69c1.53,0.07,1.13,0.76,1.71,1.65
	c1.22,1.55,0.02-1.28,1.14-0.53c0.88,0.71-0.96,2.11,0.81,2.23c0.25,0.06,0.56-1.42,0.91-1.86c0.3-0.19,1.04-0.04,1.53,0.07
	c0.44,0.35,0.58,0.89,0.78,1.19c-0.2-0.3-0.69-0.4-0.88-0.7c0.05-0.25-0.25-0.05-0.49-0.1c0.03,1.03,0.12,1.82,0.21,2.61
	c0.14,0.55,0.33,0.84,0.53,1.14l-0.79,0.09l0.1-0.49c-0.98-0.21-1.67-0.61-2.65-0.82l-0.47,2.21c0.09,0.79,0.32,2.13,1.37,0.81
	c1.4-1.76,1.74-0.92,2.21,0.47l0.25,0.05l0.05-0.24c-0.09-0.8,0.12-1.78,0.03-2.57c0.39,0.6,0.73,1.44,0.87,1.99
	c0.28,1.08,0.12,1.82-1.02,2.35c-0.54,0.14-1,1.07-1.35,1.51c1.09-0.28,2.13-0.32,3.21-0.6c0.3-0.19,0.71-0.88,0.51-1.18
	c-0.93-4.05,3.76-0.74,4.23-2.95l0.25,0.05c-0.41,0.68-0.81,1.37-1.21,2.06c-0.02,0.07-0.02,0.18-0.01,0.3
	c-0.02-0.02-0.03-0.04-0.04-0.06c-0.69-0.4-1.48-0.31-1.97-0.42l0.02,2.32c0.54-0.14,1.09-0.28,1.93-0.62c0,0,0.44,0.35,0.88,0.7
	c-0.15-0.37-0.25-0.73-0.35-1.04c1.51-1.4,6.44,1.96,5.63-3.23c-0.19-0.3,0.75-1.13,1.63-0.43c0.44,0.36,1.23,0.27,1.97,0.42
	c0.05-0.24,0.1-0.49,0.1-0.49c-1.47-0.31-0.47-1.39-0.17-1.58s1.28,0.02,1.77,0.12c0.98,0.21,2.11,0.96,3.15,0.93
	c1.28,0.01,1-1.08,0.61-1.67c-0.2-0.3-0.44-0.35-0.44-0.35c0.05-0.25,0.1-0.5,0.16-0.74c0.44,0.35,1.12,0.75,1.07,1
	c-0.12,1.77,1.83-0.13,2.06,1.21c0.35-0.44,0.94-0.83,1.29-1.27c0,0,0.11-0.49,0.16-0.74c0.39,0.6,0.78,1.2,1.16,1.79
	c0.25,0.06-0.35,0.44-0.65,0.64c-0.54,0.14-0.79,0.09-1.33,0.23c0.49,0.1,1.23,0.26,1.18,0.5c0.23,1.34,0.82,0.95,1.23,0.26
	c0.4-0.68,0.06-1.52,0.22-2.26c0.28,1.09,0.32,2.12,0.6,3.21c0.14,0.55,0.58,0.9,1.08,1c0.24,0.05,1.08-0.28,1.14-0.53
	c0.1-0.49,1.05-1.31-0.43-1.63c-0.49-0.1-0.58-0.89-0.97-1.49c0.88,0.7,0.51-1.18,1.64-0.43c1.76,1.41,3.07-1.14,4.84-1.02
	c0.25,0.05,0.35-0.44,0.46-0.93c0.39,0.59,0.77,1.19,0.91,1.74c-0.05,0.24-0.1,0.49-0.1,0.49c-0.3,0.19-0.3,0.19-0.6,0.38l1.67,0.62
	c0.11-0.49,0.07-1.53,0.07-1.53c-1.53-0.07-0.53-1.14-0.67-1.69c0.19,0.3,0.14,0.55,0.39,0.6c0.49,0.1,0.98,0.21,1.47,0.31
	c-0.61,1.67,0.38,1.88,1.66,1.9c0.49,0.1,0.79-0.09,1.33-0.23c-0.24-0.05-0.74-0.16-0.98-0.21c-0.25-0.05-0.09-0.79-0.09-0.79
	c0.05-0.25,0.54-0.14,0.84-0.34l2.97-0.65c-0.25-0.05-0.19-0.3-0.44-0.35c-0.25-0.05-0.69-0.4-0.93-0.46
	c0.3-0.19,0.89-0.58,1.14-0.53c1.83-0.12,3.08,2.46,5.22,0.86c0.65-0.64,1.93-0.62,2.16,0.71c-0.49-0.1-1.28-0.01-1.83,0.13
	c-0.24-0.05-0.59,0.39-0.59,0.39c0.19,0.3,0.38,0.59,0.58,0.89c0.24,0.06,0.59-0.39,0.59-0.39c1.37,0.81,2.56-3.56,3.71-0.49
	c0.33,0.84,0.23,1.33,1.02,1.24c0,0-0.04-1.03,0.31-1.47s0.95-0.83,1.55-1.22l-0.44-0.35c0.54-0.14,0.89-0.58,1.14-0.53
	c0.88,0.71,2,1.46,2.88,2.16l-0.49-0.11l-1.04,0.04c0.15,0.23,0.27,0.6,0.43,0.79c-0.82,0.53-1.64,1.09-2.28,1.9
	c0.49,0.11,0.73,0.16,1.47,0.32c0.6-0.39,1.44-0.73,2.34-1.31c-0.23-0.18-0.5-0.51-0.74-0.75c0.78-0.28,0.33-2.16,1.56-1.9
	l0.05-0.25c-0.25-0.05-0.49-0.1-0.74-0.15c-0.24-0.06-0.79,0.08-1.03,0.03c0.35-0.44,1.14-0.53,1.49-0.97
	c0.08-0.37,0.01-0.77-0.08-1.19c0.51,1.43,1.98,1.05,2.99,0.79c0.55-0.15,2.16,0.71,1.74-0.92c-0.28-1.09,2.33-1.3,1.12-2.85
	c-0.25-0.05,0.1-0.49,0.21-0.98c0.14,0.54,0.53,1.14,0.67,1.69c0.33,0.84,0.42,1.63,0.76,2.47c0.13-0.03,0.27-0.07,0.4-0.1
	c0.09,0.62,0.23,1.12,0.51,1.84c0,0,0.43,0.08,0.93-0.02c0.35,0.5,0.65,1.03,1.08,1.47c0.24,0.05,1.03-0.03,1.09-0.28
	c0.36-1.72,0.92-3.14,2.75-3.27c1.04-0.04,3.07-1.15,3.55,0.24c0.72,1.44,1.03-0.04,1.47,0.31c0.72-2.16,4.48,0.7,4.92-2.55
	c0,0,1.14-0.53,1.33-0.23c0.93,0.45,1.02,1.24,2.71,0.57c1.38-0.47-1.01-2.52,1.45-2c-0.44-3.95,2.81-3.52,4.98-4.08
	c2.13-0.32,4.34,0.15,6.66,0.13c-2.18,0.56-0.13,3.06-1.82,3.72l-0.09-0.79c-0.05,0.25-0.1,0.5-0.35,0.44
	c-0.79,0.09-1.83,0.13-2.62,0.22c0.06-0.25,0.11-0.49,0.11-0.49c0.3-0.2,0.79-0.09,1.03-0.04c0.25,0.05,0.3-0.19,0.3-0.19
	c0.06-0.25-0.14-0.55-0.33-0.85c-1.16,1.81-3.94-0.83-4.95,1.52c-0.11,0.49-1.64,0.43-2.67,0.46c-0.11,0.49-0.21,0.99,0.83,0.95
	c0.79-0.09,1.61,0.86,2.54,1.31c-0.54,0.14-1.08,0.29-1.38,0.48s-0.16,0.74-0.21,0.98c-0.05,0.25,0.19,0.3,0.19,0.3
	c0.05-0.24,0.35-0.44,0.35-0.44c2.48-0.76,4.46-1.62,6.88-2.13c1.34-0.23-2.14,1.6,0.23,1.33c2.62-0.21,5.92-0.02,8.26-1.33
	c2.28-1.06,4.69-0.29,6.58-1.94c0.3-0.19,1.32,1.05,2.07-0.07c0.39,0.59,0.97,1.49,0.97,1.49c1.14-0.53,2.04-1.11,3.18-1.64
	c0.84-0.34,2.58-1.25,3.02-0.9c1.12,0.75,2.35,1.01,3.49,0.49c2.64-1.5,4.36,2.47,6.21,1.06c1.54-1.22,2.37-0.27,3.35-0.06
	c0.25,0.05,0.39,0.6,0.63,0.65c0,0,0.5,0.1,0.55-0.14c0.86-1.62-1.02-1.25-1.46-1.6c-0.44-0.35-0.64-0.65-0.83-0.95l0.3-0.19
	c2.06,1.21,4.55-0.83,6.69,1.17c0.88,0.7,3.11-0.11,4.69-0.29c0.74,0.16,1.83-0.13,1.25-1.02c-0.53-1.14-0.6,0.39-0.84,0.33
	c-0.55,0.14-1.29-0.01-1.78-0.12c0.35-0.44,0.7-0.88,0.81-1.37c1.01-2.35,1.95,1.7,2.86-0.16c0.1-0.49,0.4-0.68,0.75-1.12
	c-0.1,0.49-0.21,0.98-0.31,1.47c-0.11,0.49-0.51,1.18-0.61,1.67c0.24,0.05,0.73,0.16,1.03-0.04c1.99-0.86,3.78-2.02,5.9-2.34
	c1.63-0.43,3.25,0.43,4.97,0.8c-0.91,1.86,0.44,0.35,0.93,0.45c-1.07-1,1.88-0.37,1.16-1.81c-0.33-0.84,0.35-0.44,0.49,0.11
	c0.06-0.25,0.35-0.44,0.65-0.63c1.25-1.03,1.71,1.64,3.25,0.43c0.95-0.83,3.22-0.6,4.39-0.1c1.87,0.92,3.89,4.69,5.04-0.72
	c0,0,1.34-0.23,1.83-0.13c1.18,0.51,2.35,1.02,3.58,1.28c0.5,0.1,0.12-1.78,1.39-0.48c0.83,0.95,4.34,0.15,4.74-0.53
	c0.7-0.88,0.81-1.37-0.47-1.39l1.06-2.6c0.39,0.6,0.53,1.14,0.73,1.44c0.96,1.49,4.04,0.34,4.25,2.96c-0.05,0.25-0.4,0.69-0.7,0.88
	l3.5,0.49c2.7,0.57-0.03-2.32,1.55-2.5c0.8-0.09,1.59-0.18,2.38-0.27c0.29-0.19,0.24,0.06,0.49,0.11l-0.35,0.44l-0.6,0.39
	c0.25,0.05,0.49,0.1,0.74,0.15c0.24,0.05,0.74,0.16,0.79-0.09c0.35-0.44,0.89-0.58,1.53,0.07c0,0,0.49,0.11,0.73,0.16
	c-0.7-2.72,4.54,0.45,3.5-3.12c-0.34-0.84-1.4-3.12,1.4-1.75l0.05-0.25c0.05-0.25-0.14-0.54-0.09-0.79
	c0.44,0.35,0.83,0.95,0.83,0.95c-1.26,2.3,0.46,2.67,1.83,3.47c0.69,0.4,1.02,1.25,1.41,1.84c2-2.14,4.61-2.36,6.32-0.71
	c1.65,1.9,3.3,0.19,4.73,0.75c0.45-0.93,1.84-1.41,1.12-2.85c0.05-0.24,0.99-1.07,1.59-1.46c0,0-0.05,0.25,0.2,0.3
	c1.42,0.56,2.74,1.61,4.02,1.63c1.83-0.13,4.29,0.4,5.06-2.01c-0.11,0.49-0.21,0.98,0.03,1.03c0.44,0.36,0.93,0.46,1.23,0.27
	c1.09-0.29,1.56-2.5,3.32-1.1c0.44,0.35,0.86-1.61,1.04-0.03c-0.11,0.49,0.08,0.79-0.02,1.28c1.89-1.66,3,0.38,3.59,1.27
	c1.4,1.85,3.6,0,5.16,1.1c1.32,1.06-0.78-4.79,1.69-0.67c0.1-0.49,0.7-0.88,0.75-1.12c-0.28-1.09-0.81-2.23-1.34-3.37
	c-0.14-0.55-0.09-0.79-0.28-1.09c0.49,0.1,0.73,0.16,0.98,0.21c0.88,0.7,1.76,1.4,2.39,2.05l-0.11-3.11l0.06-5.83l1.34-0.1
	l0.39,4.77c1.08,1,2.29,2.54,3.07-1.15l0.25,0.05c1.32,1.06,2.59,2.36,3.96,3.16c0.93,0.46,2.32-0.02,3.3,0.19
	c1.23,0.26,2.06,1.21,3.5,0.49c1.08-0.29,1.75,1.4,2.63,2.1c2.69,1.86,5.06-2.01,7.15,0.24c1.08,0.99,1.7-1.96,3.51-0.8
	c1.62,0.86,4.1,0.1,6.06,0.52c3.5,0.48,7.29,0.78,11.16-0.46c1.63-0.42,3.4-0.3,4.93-0.24c1.58-0.17,3.41-0.3,4.94-0.23
	c-0.16-0.03-0.36-0.08-0.49-0.1l-0.2-0.3c0.25,0.05,0.74,0.15,0.79-0.09c0.38-0.37,0.47-0.65,0.42-0.87
	c0.3,0.46,0.86,0.91-0.19,1.37c2.45,0.05,4.86,0.29,7.36,0.08c2.86-0.16,5.78-0.57,8.69-0.98c0.74,0.16,1.53,0.07,2.27,0.23
	c1.04-0.04,2.27,0.23,3.5,0.49c-0.2-0.3-0.34-0.85-0.29-1.09c0.35-0.44,1.2-0.78,1.79-1.16c0.3-0.2,0.74,0.15,0.99,0.2
	c-0.3,0.2-0.41,0.69-0.65,0.64c-2.21-0.47,0.69,1.42-0.54,1.42c0.23,0.05,0.48,0.11,0.72,0.16c2.12-0.32,5.3-1.96,6.12-1.01
	c1.9,1.94,3.23-1.89,4.34,0.15c0.97-2.11,2.25-2.09,4.25-0.64c1.37,0.81,4.04,0.35,6.06,0.52c-0.14-0.55-0.77-1.19-0.91-1.74
	c0.05-0.24,0.4-0.68,0.75-1.12c0.44,0.35,0.83,0.94,1.32,1.05c0.44,0.35,0.74,0.15,1.28,0.01c0.79-0.08-2.63,1.5,0.14,0.55
	c1.14-0.53-1.45,2,1.02,1.24c1.39-0.47,1.23-3.34,2.49-2.04c0.83,0.95,1.76,1.4,2.75,1.62c1.91,0.66,3.86-1.24,6.27-0.47
	c1.42,0.56,4.35-1.13,5.23-0.43c1.32,1.05,3.28-2.13,3.44,0.73c0.25,0.05,0.55-0.14,0.85-0.33c-0.25-0.06-0.25-0.06-0.5-0.11
	c-1.37-0.8,1.88-0.37,0.51-1.18c0.25,0.06,0.55-0.14,0.79-0.08c0.93,0.45-0.67-1.69,0.65-0.64c0.63,0.65,1.57,1.11,2.2,1.76
	c-0.14-0.55-0.04-1.04-0.18-1.58c0.05-0.25,0.05-0.25,0.11-0.5l0.19,0.3c0,0,0.19,0.3,0.39,0.6c0.29-0.2,0.59-0.39,0.59-0.39
	c0.04-0.16-0.04-0.34-0.15-0.54h0.01c2.23-0.81,2.9,0.87,3.73,1.82c0.97,1.49,2.32-0.02,3.44,0.73c0.11-0.49,0.4-0.68,0.51-1.18
	c0.16-0.74,0.12-1.77,0.28-2.51c-1.29-0.01-2.62,0.22-3.71,0.5c0,0-0.1,0.49-0.35,0.44c-0.49-0.11-1.04,0.04-1.28-0.02
	c0.3-0.19,0.59-0.39,0.89-0.58s0.35-0.44,0.35-0.44c-0.19-0.3-0.63-0.65-0.82-0.95c-0.06,0.25-0.06,0.25-0.11,0.5
	c-0.05,0.24-0.15,0.73-0.15,0.73c-0.79,0.09-1.78-0.12-2.82-0.08c-0.24-0.05-0.24-0.05-0.43-0.35c-0.04,0.18-0.11,0.5-0.06,0.78
	c-1.84-1.65-1.86-3.3,0.19-3.84c2.18-0.56-1.05,1.32,0.48,1.39c0.49,0.11,1.72,0.37,1-1.07c1.44-0.73,3.63-2.57,4.81-2.07
	c4.02,1.63,8.41-2.06,11.77,1.48c-0.06,0.25,0.54-0.14,1.08-0.28c-0.81-2.23,1.15-0.53,1.5-0.97c0.88,0.7,1.84-1.41,2.56,0.03
	c0.19,0.3,0.14,0.55,0.34,0.84c-0.5-0.1-0.74-0.15-1.04,0.04c-1.14,0.53-2.28,1.06-2.69,1.74c-0.45,0.93-0.26,1.23-1.24,1.02
	c1.37,0.81,2.65,0.83,3.9-0.2c0.3-0.19,0.35-0.44,0.4-0.68c-0.49-0.11-0.93-0.46-1.42-0.56c0.05-0.25,0.15-0.74,0.4-0.69
	c2.48-0.76,4.95-1.52,7.37-2.03c0.85-0.33,1.78,0.12,2.38-0.26c1.54-1.22,1.54-1.22,2.81,0.08c0,0,0.24,0.05,0.49,0.1
	c-0.09-0.79,0.07-1.52-0.02-2.32c0.58,0.9,0.91,1.74,1.25,2.59c0.19,0.29,0.33,0.84,0.53,1.14c0.59-0.39,1.44-0.73,2.03-1.11
	c-0.24-0.06-0.79,0.09-1.28-0.02c-0.25-0.05-0.44-0.35-0.39-0.6c0.11-0.49,0.46-0.93,0.7-0.88c1.48,0.32,4.27-1.92,4.27,1.68
	l0.25,0.06c0.51-1.18,3.34,1.22,2.68-1.75c1.88-0.37,3.96-0.44,6.08-0.76c2.62-0.21,4.99-0.48,7.36-0.75
	c0.3-0.19,1.21,1.55,1.33-0.23c1.48,0.31,2.11,0.96,0.23,1.34c-1.08,0.28-0.94,0.82-0.8,1.37c0.19,0.29,0.63,0.65,1.07,1
	c0.11-0.5-0.09-0.79,0.02-1.29c0.05-0.24,0.05-0.24,0.1-0.49c0.44,0.35,0.93,0.46,0.88,0.7c-0.17,2.02,1.37,0.81,2,1.46
	c0.06-0.25-0.08-0.79,0.21-0.99c0.71-0.87,1.76-2.19,2.85-2.48c1.63-0.42,3.16-0.35,4.69-0.28c3.74,0.53,6.93-2.39,10.71-0.81
	l0.05-0.25c1.54-1.21,3.88,1.09,4.9-1.27c1.51,1.35,2.88,2.16,4.92,1.05c0.24,0.05,0.98,0.21,1.23,0.26c0,0,0.14,0.54,0.09,0.79
	c0.5-1.18,1.49-0.97,2.47-0.76c0.05-0.24,0.05-0.24,0.05-0.24c-0.23-1.34-0.9-3.02-0.44-3.96c0.56-1.42,0.04,1.04,1.37,0.81
	c0.55-0.14,1.95,1.7,2.78,2.65l-0.1,0.49c-0.3,0.19-0.55,0.14-0.85,0.33c0.2,0.3,0.69,0.41,0.93,0.46c0.3-0.19,0.6-0.39,0.65-0.63
	c0.91-1.87,1.95-1.9,3.66-0.26c0.58,0.9,2.28-1.05,3.25,0.44c0.05-0.25-0.15-0.54,0.15-0.74c0.65-0.63-1.81-1.16-0.17-1.58
	c1.63-0.42,3.54,0.24,5.23-0.43c1.63-0.42,1.46,1.6,2.6,1.07c0.3-0.2,0.4-0.69,0.45-0.93c0.04,1.03,1.69-0.67,1.38,0.8
	c1.93-0.61,1.53,3.67,4.32,1.44c1.6-1.46-1.6-2.14,0.03-2.57c1.63-0.42,3.71-0.5,5.13,0.06c0.93,0.46,1.56,1.11,2.65,0.83
	c-1.67-0.61,2.14-1.6-0.02-2.32c0,0,0.16-0.74,0.21-0.98l0.49,0.1c0.76-1.13,0.94,4.05,1.78,0.12c-0.05,3.85,3.78,1.57,5.34,2.68
	c0.25,0.05,1.93-0.62,2.76,0.33l0.05-0.25c0.7-0.88-0.74-3.76,2.6-2.53c0.24,0.05,1.07,1,1.58-0.18c-2.52-0.28-1.11-2.03-1.4-3.12
	c-0.14-0.55-1.07-1-1.46-1.6c0,0-0.54,0.14-0.84,0.34c0.44,0.35,0.88,0.7,1.32,1.05c0.19,0.3,0.39,0.59,0.39,0.59
	c-0.3,0.2-0.65,0.64-0.95,0.83c-0.44-0.35-0.83-0.95-1.21-1.54c-0.92-1.74-0.46-2.67,1.85-2.69c1.53,0.07,1.13,0.75,1.71,1.65
	c1.21,1.54,0.02-1.29,1.14-0.53c0.88,0.7-0.96,2.11,0.81,2.23c0.25,0.05,0.56-1.43,0.91-1.87c0.3-0.19,1.04-0.03,1.53,0.07
	c0.44,0.35,0.58,0.9,0.78,1.2c-0.2-0.3-0.69-0.41-0.88-0.71c0.05-0.24-0.25-0.05-0.5-0.1c0.04,1.03,0.13,1.82,0.22,2.62
	c0.14,0.54,0.33,0.84,0.53,1.14c-0.25-0.06-0.55,0.14-0.79,0.08l0.1-0.49c-0.98-0.21-1.67-0.61-2.65-0.82
	c-0.16,0.74-0.31,1.48-0.47,2.22c0.09,0.79,0.32,2.12,1.37,0.8c1.4-1.76,1.74-0.91,2.21,0.47l0.25,0.05l0.05-0.24
	c-0.09-0.79,0.12-1.77,0.03-2.57c0.39,0.6,0.73,1.44,0.87,1.99c0.28,1.09,0.12,1.82-1.02,2.35c-0.54,0.14-1,1.08-1.35,1.52
	c1.09-0.29,2.13-0.32,3.21-0.61c0.3-0.19,0.71-0.88,0.51-1.17c-0.93-4.06,3.76-0.75,4.23-2.96l0.25,0.05
	c-0.41,0.69-0.81,1.37-1.21,2.06c-0.03,0.14,0,0.37,0.01,0.64c-0.04-0.05-0.07-0.11-0.12-0.15c-0.68-0.4-1.47-0.31-1.96-0.42
	c0.08,0.79-0.07,1.53,0.02,2.32c0.54-0.14,1.09-0.28,1.93-0.62c0,0,0.44,0.35,0.88,0.7c-0.17-0.42-0.28-0.84-0.4-1.19
	c1.38-1.66,6.56,1.98,5.73-3.33c-0.19-0.3,0.75-1.12,1.63-0.42c0.44,0.35,1.23,0.26,1.97,0.42c0.05-0.25,0.1-0.5,0.1-0.5
	c-1.47-0.31-0.47-1.38-0.17-1.58c0.29-0.19,1.28,0.02,1.77,0.12c0.98,0.21,2.11,0.97,3.15,0.93c1.28,0.02,1-1.07,0.61-1.67
	c-0.2-0.3-0.44-0.35-0.44-0.35c0.05-0.25,0.1-0.49,0.16-0.74c0.44,0.35,1.12,0.76,1.07,1c-0.12,1.78,1.83-0.12,2.06,1.21
	c0.35-0.44,0.94-0.83,1.29-1.27c0,0,0.11-0.49,0.16-0.73c0.39,0.59,0.77,1.19,1.16,1.79c0.25,0.05-0.35,0.43-0.65,0.63
	c-0.54,0.14-0.79,0.09-1.33,0.23c0.49,0.1,1.23,0.26,1.18,0.51c0.23,1.33,0.82,0.94,1.23,0.26c0.4-0.69,0.06-1.53,0.22-2.27
	c0.28,1.09,0.32,2.13,0.6,3.22c0.14,0.54,0.58,0.89,1.08,0.99c0.24,0.06,1.08-0.28,1.14-0.52c0.1-0.5,1.05-1.32-0.43-1.64
	c-0.49-0.1-0.58-0.89-0.97-1.49c0.88,0.7,0.51-1.18,1.64-0.42c1.76,1.4,3.07-1.15,4.84-1.03c0.25,0.06,0.35-0.44,0.46-0.93
	c0.39,0.6,0.53,1.14,0.91,1.74c-0.05,0.24-0.1,0.49-0.1,0.49c-0.3,0.19-0.3,0.19-0.6,0.39c0.5,0.1,1.18,0.51,1.67,0.61
	c0.11-0.49,0.07-1.53,0.07-1.53c-1.53-0.07-0.53-1.14-0.67-1.68c0.19,0.3,0.14,0.54,0.39,0.59c0.49,0.11,0.98,0.21,1.47,0.32
	c-0.61,1.67,0.38,1.88,1.66,1.89c0.49,0.11,0.79-0.09,1.33-0.23c-0.24-0.05-0.74-0.16-0.98-0.21c-0.25-0.05-0.09-0.79-0.09-0.79
	c0.05-0.24,0.54-0.14,0.84-0.33c1.09-0.29,1.88-0.38,2.97-0.66c-0.25-0.05-0.19-0.3-0.44-0.35c-0.25-0.05-0.69-0.4-0.93-0.45
	c0.3-0.2,0.89-0.58,1.14-0.53c1.83-0.13,3.08,2.45,5.22,0.85c0.65-0.63,1.93-0.62,2.16,0.72c-0.49-0.11-1.28-0.02-1.83,0.12
	c-0.24-0.05-0.59,0.39-0.59,0.39c0.19,0.3,0.38,0.6,0.58,0.9c0.24,0.05,0.59-0.39,0.59-0.39c1.37,0.8,2.56-3.57,3.71-0.5
	c0.33,0.84,0.23,1.33,1.02,1.25c0,0-0.04-1.04,0.31-1.48c0.35-0.44,0.95-0.83,1.55-1.21c-0.25-0.06-0.2-0.3-0.44-0.35
	c0.54-0.15,0.89-0.58,1.14-0.53c0.88,0.7,2,1.45,2.88,2.15c-0.24-0.05-0.24-0.05-0.49-0.1s-0.79,0.09-1.04,0.04
	c0.15,0.22,0.27,0.6,0.43,0.78c-0.82,0.54-1.64,1.09-2.28,1.91c0.49,0.1,0.73,0.15,1.47,0.31c0.6-0.39,1.44-0.72,2.34-1.3
	c-0.26-0.21-0.57-0.5-0.85-0.73c0.93-0.14,0.38-2.2,1.67-1.93l0.05-0.24c-0.25-0.06-0.49-0.11-0.74-0.16
	c-0.24-0.05-0.79,0.09-1.03,0.04c0.35-0.44,1.14-0.53,1.49-0.97c0.08-0.38,0.01-0.79-0.08-1.2c0.51,1.44,1.98,1.05,2.99,0.79
	c0.55-0.14,2.16,0.72,1.74-0.92c-0.28-1.08,2.33-1.3,1.12-2.84c-0.25-0.05,0.1-0.49,0.21-0.99c0.14,0.55,0.53,1.14,0.67,1.69
	c0.33,0.84,0.42,1.63,0.76,2.47c0.13-0.03,0.27-0.07,0.4-0.1c0.09,0.62,0.23,1.13,0.51,1.84c0,0,0.44,0.09,0.94-0.02
	c0.34,0.5,0.64,1.03,1.07,1.48c0.24,0.05,1.03-0.04,1.09-0.29c0.36-1.72,0.92-3.14,2.75-3.27c1.04-0.04,3.07-1.14,3.55,0.24
	c0.72,1.44,1.03-0.03,1.47,0.32c0.72-2.16,4.48,0.69,4.92-2.56c0,0,1.14-0.53,1.33-0.23c0.93,0.46,1.02,1.25,2.71,0.58
	c1.38-0.48-1.01-2.53,1.45-2.01c-0.44-3.95,2.81-3.51,4.98-4.08c2.13-0.32,4.34,0.15,6.66,0.13c-2.18,0.57-0.13,3.06-1.82,3.73
	c0.05-0.25-0.14-0.55-0.09-0.79c-0.05,0.24-0.1,0.49-0.35,0.44c-0.79,0.09-1.83,0.12-2.62,0.21c0.06-0.24,0.11-0.49,0.11-0.49
	c0.3-0.19,0.79-0.09,1.03-0.04c0.25,0.06,0.3-0.19,0.3-0.19c0.06-0.25-0.14-0.55-0.33-0.84c-1.16,1.81-3.94-0.84-4.95,1.52
	c-0.11,0.49-1.64,0.42-2.67,0.46c-0.11,0.49-0.21,0.98,0.83,0.94c0.79-0.09,1.61,0.86,2.54,1.32c-0.54,0.14-1.08,0.28-1.38,0.47
	c-0.3,0.2-0.16,0.74-0.21,0.99c-0.05,0.24,0.19,0.29,0.19,0.29c0.05-0.24,0.35-0.44,0.35-0.44c2.48-0.75,4.46-1.62,6.88-2.13
	c1.34-0.23-2.14,1.6,0.23,1.33c2.62-0.21,5.92-0.02,8.26-1.33c2.28-1.05,4.69-0.28,6.58-1.94c0.3-0.19,1.32,1.06,2.07-0.07
	c0.39,0.6,0.97,1.49,0.97,1.49c1.14-0.53,2.04-1.11,3.18-1.64c0.84-0.33,2.58-1.25,3.02-0.9c1.12,0.76,2.35,1.02,3.49,0.49
	c2.64-1.5,4.36,2.47,6.21,1.06c1.54-1.21,2.37-0.27,3.35-0.06c0.25,0.06,0.39,0.6,0.63,0.65c0,0,0.5,0.11,0.55-0.14
	c0.86-1.62-1.02-1.25-1.46-1.59c-0.44-0.36-0.64-0.65-0.83-0.95l0.3-0.2c2.06,1.21,4.55-0.83,6.69,1.17
	c0.88,0.7,3.11-0.11,4.69-0.29c0.74,0.16,1.83-0.12,1.25-1.02c-0.53-1.14-0.6,0.39-0.85,0.34c-0.54,0.14-1.28-0.02-1.77-0.12
	c0.35-0.44,0.7-0.88,0.81-1.37c1.01-2.36,1.95,1.7,2.86-0.17c0.1-0.49,0.4-0.68,0.75-1.12c-0.1,0.49-0.21,0.98-0.31,1.47
	c-0.11,0.5-0.51,1.18-0.61,1.67c0.24,0.06,0.73,0.16,1.03-0.03c1.99-0.87,3.78-2.03,5.9-2.35c1.63-0.42,3.25,0.44,4.97,0.8
	c-0.91,1.87,0.44,0.35,0.93,0.46c-1.07-1,1.88-0.37,1.16-1.81c-0.33-0.85,0.35-0.44,0.49,0.1c0.05-0.24,0.35-0.44,0.65-0.63
	c1.25-1.02,1.71,1.65,3.25,0.43c0.95-0.82,3.21-0.6,4.39-0.09c1.87,0.91,3.89,4.68,5.04-0.73c0,0,1.34-0.23,1.83-0.12
	c1.18,0.5,2.35,1.01,3.58,1.27c0.5,0.11,0.12-1.77,1.39-0.48c0.83,0.95,4.34,0.16,4.74-0.53c0.7-0.88,0.81-1.37-0.47-1.38
	c0.2-0.99,0.61-1.67,1.06-2.61c0.39,0.6,0.53,1.14,0.73,1.44c0.96,1.49,4.04,0.35,4.25,2.96c-0.05,0.25-0.4,0.69-0.7,0.88
	c1.28,0.02,2.27,0.23,3.5,0.49c2.7,0.58-0.03-2.32,1.55-2.5c0.79-0.08,1.59-0.17,2.38-0.26c0.29-0.2,0.24,0.05,0.49,0.1
	c-0.05,0.25-0.06,0.25-0.35,0.44c-0.3,0.2-0.3,0.2-0.6,0.39c0.25,0.05,0.49,0.1,0.74,0.16c0.24,0.05,0.74,0.15,0.79-0.09
	c0.35-0.44,0.89-0.58,1.53,0.06c0,0,0.49,0.11,0.73,0.16c-0.7-2.72,4.54,0.45,3.49-3.11c-0.33-0.85-1.39-3.13,1.41-1.76l0.05-0.25
	c0.05-0.24-0.14-0.54-0.09-0.79c0.44,0.35,0.83,0.95,0.83,0.95c-1.26,2.3,0.46,2.67,1.83,3.48c0.69,0.4,1.02,1.24,1.41,1.84
	c2-2.15,4.61-2.36,6.32-0.71c1.65,1.89,3.3,0.18,4.73,0.74c0.45-0.93,1.84-1.41,1.12-2.84c0.05-0.25,0.99-1.08,1.59-1.46
	c0,0-0.05,0.24,0.19,0.29c1.43,0.56,2.75,1.62,4.03,1.63c1.83-0.12,4.29,0.4,5.05-2.01c-0.1,0.49-0.2,0.99,0.04,1.04
	c0.44,0.35,0.93,0.45,1.23,0.26c1.09-0.28,1.56-2.5,3.32-1.09c0.44,0.35,0.86-1.62,1.04-0.04c-0.11,0.49,0.08,0.79-0.02,1.28
	c1.89-1.65,3,0.38,3.59,1.28c1.4,1.84,3.6-0.01,5.16,1.1c1.32,1.05-0.78-4.8,1.69-0.67c0.1-0.5,0.7-0.88,0.75-1.13
	c-0.28-1.09-0.81-2.23-1.34-3.37c-0.14-0.54-0.09-0.79-0.28-1.09c0.49,0.11,0.73,0.16,0.98,0.21c0.88,0.7,1.76,1.41,2.39,2.05
	l-0.11-3.11l0.3-5.68l1.04-0.08l0.4,4.85c1.07,1,2.29,2.54,3.07-1.15l0.25,0.06c1.32,1.05,2.58,2.35,3.95,3.15
	c0.94,0.46,2.32-0.02,3.31,0.19c1.23,0.26,2.05,1.21,3.49,0.49c1.09-0.29,1.76,1.4,2.64,2.1c2.69,1.86,5.06-2.01,7.15,0.24
	c1.07,0.99,1.7-1.96,3.51-0.8c1.62,0.86,4.09,0.1,6.06,0.52c3.5,0.48,7.29,0.78,11.15-0.46c1.64-0.42,3.41-0.3,4.94-0.23
	c1.58-0.18,3.41-0.31,4.93-0.24c-0.16-0.03-0.35-0.08-0.49-0.1l-0.19-0.3c0.24,0.05,0.74,0.15,0.79-0.09
	c0.37-0.37,0.47-0.64,0.42-0.86c0.31,0.45,0.85,0.91-0.19,1.36c2.45,0.05,4.86,0.29,7.36,0.08c2.86-0.16,5.77-0.57,8.69-0.98
	c0.74,0.16,1.53,0.07,2.27,0.23c1.03-0.04,2.26,0.23,3.49,0.49c-0.19-0.3-0.33-0.85-0.28-1.09c0.35-0.44,1.19-0.78,1.79-1.16
	c0.3-0.2,0.74,0.15,0.98,0.2c-0.3,0.2-0.4,0.69-0.65,0.64c-2.2-0.47,0.7,1.42-0.54,1.42c0.24,0.05,0.49,0.11,0.72,0.16
	c2.13-0.32,5.3-1.96,6.13-1.01c1.9,1.94,3.23-1.89,4.34,0.15c0.96-2.11,2.24-2.09,4.25-0.64c1.37,0.81,4.04,0.35,6.06,0.52
	c-0.14-0.55-0.78-1.19-0.92-1.74c0.05-0.24,0.41-0.68,0.76-1.12c0.44,0.35,0.82,0.94,1.31,1.05c0.44,0.35,0.74,0.16,1.29,0.01
	c0.79-0.08-2.64,1.5,0.14,0.55c1.14-0.53-1.46,2,1.02,1.24c1.39-0.47,1.22-3.34,2.49-2.04c0.83,0.95,1.76,1.41,2.74,1.62
	c1.92,0.66,3.86-1.24,6.27-0.47c1.43,0.56,4.36-1.13,5.24-0.43c1.31,1.05,3.28-2.13,3.44,0.73l0.84-0.33
	c-0.24-0.06-0.24-0.06-0.49-0.11c-1.37-0.8,1.88-0.37,0.51-1.18c0.24,0.06,0.54-0.14,0.79-0.08c0.93,0.45-0.67-1.69,0.65-0.64
	c0.63,0.65,1.56,1.11,2.19,1.76c-0.14-0.55-0.03-1.04-0.17-1.58c0.05-0.25,0.05-0.25,0.1-0.5l0.19,0.3c0,0,0.2,0.3,0.39,0.6
	c0.3-0.2,0.6-0.39,0.6-0.39c0.03-0.16-0.04-0.34-0.15-0.54h0.01c2.23-0.82,2.9,0.87,3.72,1.82c0.97,1.49,2.32-0.02,3.45,0.73
	l0.51-1.18l0.27-2.51l-3.7,0.5c0,0-0.11,0.49-0.35,0.44c-0.49-0.11-1.04,0.03-1.28-0.02c0.29-0.19,0.59-0.39,0.89-0.58
	c0.3-0.19,0.35-0.44,0.35-0.44c-0.19-0.3-0.63-0.65-0.83-0.95c-0.05,0.25-0.05,0.25-0.1,0.5c-0.05,0.24-0.16,0.73-0.16,0.73
	c-0.79,0.09-1.77-0.12-2.81-0.08c-0.24-0.05-0.24-0.05-0.44-0.35c-0.04,0.18-0.1,0.51-0.05,0.79c-1.84-1.66-1.86-3.31,0.19-3.85
	c2.17-0.56-1.05,1.32,0.47,1.39c0.5,0.11,1.73,0.37,1-1.07c1.44-0.72,3.63-2.57,4.81-2.07c4.03,1.63,8.41-2.06,11.77,1.48
	c-0.05,0.25,0.55-0.14,1.09-0.28c-0.81-2.23,1.14-0.53,1.49-0.97c0.88,0.7,1.84-1.41,2.57,0.03c0.19,0.3,0.14,0.55,0.33,0.84
	c-0.49-0.1-0.74-0.15-1.03,0.04c-1.15,0.53-2.29,1.06-2.69,1.74c-0.45,0.93-0.26,1.23-1.24,1.02c1.37,0.81,2.65,0.83,3.89-0.2
	c0.3-0.19,0.36-0.44,0.41-0.68l-1.43-0.56c0.06-0.25,0.16-0.74,0.41-0.69c2.47-0.76,4.95-1.51,7.37-2.03
	c0.84-0.33,1.77,0.12,2.37-0.26c1.55-1.22,1.55-1.22,2.81,0.08c0,0,0.25,0.05,0.49,0.1l-0.02-2.31l1.25,2.58
	c0.2,0.29,0.34,0.84,0.53,1.14l2.04-1.11c-0.25-0.06-0.79,0.09-1.28-0.02c-0.25-0.05-0.44-0.35-0.39-0.59
	c0.1-0.5,0.45-0.94,0.7-0.89c1.48,0.32,4.26-1.91,4.27,1.68l0.25,0.06c0.5-1.18,3.34,1.22,2.68-1.75l6.08-0.76
	c2.61-0.21,4.98-0.48,7.36-0.75c0.29-0.19,1.21,1.55,1.33-0.23c1.48,0.31,2.11,0.96,0.23,1.34c-1.09,0.28-0.95,0.82-0.81,1.37
	c0.2,0.29,0.64,0.65,1.08,1c0.1-0.49-0.09-0.79,0.01-1.29c0.06-0.24,0.06-0.24,0.11-0.49c0.44,0.35,0.93,0.46,0.88,0.7
	c-0.18,2.02,1.37,0.81,2,1.46c0.05-0.25-0.09-0.79,0.21-0.99c0.7-0.87,1.75-2.19,2.84-2.48c1.63-0.42,3.16-0.35,4.69-0.28
	c3.74,0.53,6.94-2.39,10.71-0.81l0.06-0.25c1.54-1.21,3.88,1.09,4.89-1.27c1.52,1.35,2.89,2.16,4.92,1.05
	c0.25,0.05,0.99,0.21,1.23,0.26c0,0,0.15,0.54,0.09,0.79c0.51-1.18,1.49-0.97,2.48-0.76c0.05-0.25,0.05-0.25,0.05-0.25
	c-0.23-1.33-0.9-3.01-0.44-3.95c0.56-1.42,0.03,1.04,1.37,0.81c0.54-0.14,1.95,1.7,2.78,2.65l-0.11,0.49
	c-0.3,0.19-0.54,0.14-0.84,0.33c0.19,0.3,0.68,0.41,0.93,0.46c0.3-0.19,0.6-0.39,0.65-0.63c0.91-1.87,1.95-1.9,3.65-0.26
	c0.58,0.9,2.28-1.05,3.25,0.44c0.05-0.25-0.14-0.54,0.16-0.74c0.65-0.63-1.81-1.16-0.18-1.58s3.55,0.24,5.23-0.43
	c1.64-0.42,1.47,1.6,2.61,1.07c0.29-0.2,0.4-0.69,0.45-0.93c0.04,1.03,1.69-0.67,1.37,0.8c1.93-0.61,1.54,3.67,4.33,1.44
	c1.59-1.46-1.61-2.14,0.03-2.57c1.63-0.42,3.7-0.49,5.13,0.06c0.93,0.46,1.56,1.11,2.65,0.83c-1.67-0.61,2.14-1.6-0.02-2.32
	c0,0,0.15-0.74,0.21-0.98l0.49,0.1c0.75-1.13,0.94,4.05,1.77,0.12c-0.04,3.85,3.78,1.58,5.35,2.68c0.24,0.05,1.93-0.62,2.75,0.33
	c0,0,0,0,0.06-0.25c0.7-0.88-0.75-3.76,2.59-2.53c0.25,0.05,1.08,1,1.58-0.18c-2.51-0.28-1.11-2.03-1.39-3.12
	c-0.14-0.55-1.07-1-1.46-1.6c0,0-0.54,0.14-0.84,0.34c0.44,0.35,0.88,0.7,1.32,1.05c0.19,0.3,0.38,0.59,0.38,0.59
	c-0.29,0.2-0.64,0.64-0.94,0.83c-0.44-0.35-0.83-0.95-1.22-1.54c-0.91-1.74-0.46-2.67,1.86-2.69c1.53,0.07,1.13,0.75,1.71,1.65
	c1.21,1.54,0.01-1.29,1.14-0.53c0.88,0.7-0.97,2.11,0.81,2.23c0.25,0.05,0.56-1.43,0.91-1.87c0.3-0.19,1.04-0.03,1.53,0.07
	c0.44,0.35,0.58,0.9,0.77,1.2c-0.19-0.3-0.68-0.41-0.88-0.71c0.06-0.24-0.24-0.05-0.49-0.1c0.04,1.03,0.13,1.82,0.22,2.62
	c0.14,0.54,0.33,0.84,0.52,1.14l-0.79,0.09l0.11-0.5c-0.98-0.21-1.67-0.61-2.65-0.82l-0.48,2.22c0.09,0.79,0.32,2.12,1.38,0.8
	c1.4-1.76,1.73-0.91,2.21,0.47l0.25,0.05l0.05-0.24c-0.09-0.79,0.12-1.77,0.03-2.57c0.39,0.6,0.72,1.44,0.86,1.99
	c0.29,1.09,0.13,1.82-1.01,2.35c-0.55,0.14-1,1.08-1.35,1.52c1.09-0.29,2.12-0.32,3.21-0.61c0.3-0.19,0.7-0.88,0.51-1.17
	c-0.94-4.06,3.76-0.75,4.23-2.96l0.24,0.05c-0.4,0.69-0.8,1.37-1.21,2.06c-0.03,0.14,0,0.37,0.02,0.63
	c-0.04-0.04-0.07-0.1-0.12-0.14c-0.63-0.65-1.48-0.31-1.97-0.42l0.02,2.32c0.55-0.14,1.09-0.28,1.93-0.62c0,0,0.44,0.35,0.88,0.7
	c-0.17-0.42-0.27-0.84-0.39-1.19c1.38-1.65,6.55,1.98,5.73-3.33c-0.2-0.3,0.75-1.12,1.63-0.42c0.44,0.35,1.23,0.26,1.97,0.42
	c0.05-0.25,0.1-0.5,0.1-0.5c-1.47-0.31-0.48-1.38-0.18-1.58c0.3-0.19,1.29,0.02,1.78,0.12c0.98,0.21,2.11,0.97,3.14,0.93
	c1.28,0.02,1-1.07,0.61-1.67c-0.19-0.3-0.43-0.35-0.43-0.35c0.05-0.25,0.1-0.49,0.15-0.74c0.44,0.35,1.13,0.76,1.07,1
	c-0.12,1.78,1.83-0.12,2.06,1.21c0.35-0.44,0.95-0.83,1.3-1.27c0,0,0.1-0.49,0.16-0.73c0.38,0.59,0.77,1.19,1.16,1.79
	c0.24,0.05-0.35,0.44-0.65,0.63c-0.54,0.14-0.79,0.09-1.34,0.23c0.5,0.1,1.23,0.26,1.18,0.51c0.23,1.33,0.83,0.94,1.23,0.26
	c0.41-0.69,0.07-1.53,0.23-2.27c0.28,1.09,0.32,2.13,0.6,3.22c0.14,0.54,0.58,0.89,1.07,1c0.25,0.05,1.09-0.29,1.14-0.53
	c0.11-0.5,1.05-1.32-0.42-1.64c-0.49-0.1-0.58-0.89-0.97-1.49c0.88,0.7,0.51-1.18,1.63-0.42c1.76,1.4,3.08-1.15,4.85-1.03
	c0.25,0.06,0.35-0.44,0.46-0.93c0.38,0.6,0.77,1.19,0.91,1.74c-0.05,0.25-0.1,0.49-0.1,0.49c-0.3,0.19-0.3,0.19-0.6,0.39l1.67,0.61
	c0.1-0.49,0.07-1.53,0.07-1.53c-1.53-0.07-0.53-1.14-0.67-1.68c0.19,0.29,0.14,0.54,0.38,0.59c0.5,0.11,0.99,0.21,1.48,0.32
	c-0.61,1.67,0.37,1.88,1.65,1.89c0.5,0.11,0.79-0.09,1.34-0.23c-0.25-0.05-0.74-0.16-0.99-0.21c-0.24-0.05-0.08-0.79-0.08-0.79
	c0.05-0.24,0.54-0.14,0.84-0.33l2.97-0.66c-0.25-0.05-0.2-0.3-0.44-0.35c-0.25-0.05-0.69-0.4-0.94-0.45c0.3-0.2,0.9-0.58,1.15-0.53
	c1.82-0.13,3.07,2.45,5.21,0.85c0.65-0.63,1.93-0.62,2.16,0.72c-0.49-0.11-1.28-0.02-1.82,0.12c-0.25-0.05-0.6,0.39-0.6,0.39
	c0.2,0.3,0.39,0.6,0.58,0.9c0.25,0.05,0.6-0.39,0.6-0.39c1.37,0.8,2.56-3.57,3.7-0.5c0.34,0.84,0.23,1.34,1.03,1.25
	c0,0-0.04-1.04,0.31-1.48s0.95-0.83,1.54-1.21l-0.44-0.35c0.55-0.14,0.9-0.58,1.14-0.53c0.88,0.7,2.01,1.45,2.89,2.15l-0.49-0.1
	l-1.04,0.04c0.15,0.23,0.26,0.6,0.42,0.78c-0.82,0.54-1.63,1.09-2.28,1.9c0.49,0.11,0.74,0.16,1.48,0.32
	c0.59-0.39,1.44-0.72,2.33-1.3c-0.26-0.21-0.57-0.5-0.84-0.73c0.93-0.14,0.38-2.2,1.66-1.93l0.06-0.24
	c-0.25-0.05-0.5-0.11-0.74-0.16c-0.25-0.05-0.79,0.09-1.04,0.04c0.35-0.44,1.14-0.53,1.49-0.97c0.11-0.49-0.03-1.04-0.17-1.58
	c0.37,1.88,2,1.45,3.09,1.17c0.54-0.14,2.16,0.72,1.74-0.92c-0.29-1.08,2.33-1.3,1.12-2.84c-0.25-0.05,0.1-0.49,0.2-0.99
	c0.15,0.55,0.53,1.14,0.67,1.69c0.34,0.84,0.43,1.63,0.76,2.47c0.14-0.03,0.27-0.07,0.4-0.1c0.09,0.62,0.24,1.13,0.52,1.84
	c0,0,0.43,0.08,0.93-0.02c0.35,0.5,0.64,1.03,1.07,1.48c0.25,0.05,1.04-0.04,1.09-0.29c0.37-1.72,0.93-3.14,2.76-3.27
	c1.03-0.03,3.07-1.14,3.54,0.24c0.73,1.44,1.04-0.03,1.48,0.32c0.72-2.16,4.48,0.69,4.91-2.56c0,0,1.14-0.53,1.34-0.23
	c0.93,0.46,1.02,1.25,2.7,0.58c1.39-0.48-1-2.53,1.46-2.01c-0.45-3.95,2.8-3.51,4.98-4.08c2.13-0.32,4.34,0.15,6.66,0.13
	c-2.18,0.57-0.14,3.06-1.82,3.73l-0.09-0.79c-0.05,0.24-0.11,0.49-0.35,0.44c-0.79,0.09-1.83,0.12-2.62,0.21
	c0.05-0.24,0.1-0.49,0.1-0.49c0.3-0.19,0.79-0.09,1.04-0.04c0.25,0.06,0.3-0.19,0.3-0.19c0.05-0.25-0.14-0.54-0.34-0.84
	c-1.15,1.81-3.93-0.84-4.95,1.52c-0.1,0.49-1.63,0.42-2.67,0.46c-0.1,0.49-0.2,0.98,0.83,0.94c0.79-0.09,1.62,0.86,2.55,1.32
	c-0.54,0.14-1.09,0.28-1.39,0.47c-0.3,0.2-0.15,0.74-0.21,0.99c-0.05,0.24,0.2,0.29,0.2,0.29c0.05-0.24,0.35-0.44,0.35-0.44
	c2.47-0.75,4.46-1.62,6.88-2.13c1.33-0.23-2.14,1.6,0.23,1.33c2.62-0.21,5.92-0.02,8.25-1.33c2.29-1.05,4.69-0.28,6.59-1.94
	c0.3-0.19,1.32,1.06,2.07-0.07c0.39,0.6,0.97,1.49,0.97,1.49c1.14-0.53,2.03-1.11,3.17-1.64c0.85-0.33,2.58-1.25,3.02-0.9
	c1.13,0.76,2.36,1.02,3.5,0.49c2.63-1.5,4.36,2.47,6.2,1.06c1.55-1.21,2.37-0.27,3.36-0.06c0.24,0.06,0.38,0.6,0.63,0.65
	c0,0,0.49,0.11,0.54-0.14c0.86-1.62-1.02-1.24-1.46-1.59c-0.44-0.36-0.63-0.65-0.82-0.95l0.3-0.2c2.05,1.21,4.54-0.83,6.69,1.17
	c0.88,0.7,3.11-0.11,4.69-0.29c0.74,0.16,1.82-0.12,1.24-1.02c-0.53-1.14-0.59,0.39-0.84,0.34c-0.54,0.14-1.28-0.02-1.77-0.12
	c0.35-0.44,0.7-0.88,0.8-1.37c1.02-2.36,1.95,1.7,2.87-0.17c0.1-0.49,0.4-0.68,0.75-1.12c-0.11,0.49-0.21,0.98-0.31,1.47
	c-0.11,0.5-0.51,1.18-0.62,1.67c0.25,0.06,0.74,0.16,1.04-0.03c1.98-0.87,3.77-2.03,5.9-2.35c1.63-0.42,3.25,0.44,4.97,0.8
	c-0.91,1.87,0.44,0.35,0.93,0.46c-1.07-1,1.88-0.37,1.16-1.81c-0.34-0.84,0.35-0.44,0.49,0.1c0.05-0.24,0.35-0.44,0.65-0.63
	c1.24-1.02,1.7,1.65,3.25,0.43c0.94-0.82,3.21-0.6,4.39-0.09c1.86,0.91,3.89,4.68,5.04-0.73c0,0,1.33-0.23,1.83-0.12
	c1.17,0.5,2.35,1.01,3.58,1.27c0.49,0.11,0.12-1.77,1.39-0.47c0.82,0.94,4.34,0.15,4.74-0.54c0.7-0.88,0.8-1.37-0.48-1.38l1.07-2.61
	c0.39,0.6,0.53,1.14,0.72,1.44c0.97,1.49,4.04,0.35,4.26,2.97c-0.06,0.24-0.41,0.68-0.7,0.87l3.49,0.49
	c2.71,0.58-0.02-2.32,1.56-2.5c0.79-0.09,1.58-0.17,2.37-0.26c0.3-0.2,0.25,0.05,0.49,0.1l-0.35,0.44l-0.59,0.39
	c0.24,0.05,0.49,0.1,0.73,0.16c0.25,0.05,0.74,0.15,0.79-0.09c0.36-0.44,0.9-0.58,1.53,0.06c0,0,0.49,0.11,0.74,0.16
	c-0.71-2.72,4.53,0.45,3.49-3.11c-0.33-0.85-1.39-3.13,1.4-1.76l0.06-0.25c0.05-0.24-0.15-0.54-0.09-0.79
	c0.44,0.35,0.82,0.95,0.82,0.95c-1.26,2.3,0.46,2.67,1.84,3.48c0.68,0.4,1.02,1.24,1.4,1.84c2-2.15,4.62-2.36,6.33-0.72
	c1.65,1.9,3.3,0.19,4.72,0.75c0.46-0.93,1.84-1.4,1.12-2.84c0.05-0.25,1-1.08,1.6-1.46c0,0-0.05,0.24,0.19,0.3
	c1.42,0.55,2.74,1.61,4.03,1.62c1.82-0.12,4.28,0.4,5.05-2.01c-0.1,0.49-0.21,0.99,0.04,1.04c0.44,0.35,0.93,0.45,1.23,0.26
	c1.09-0.28,1.56-2.5,3.32-1.09c0.44,0.35,0.85-1.62,1.03-0.04c-0.1,0.49,0.09,0.79-0.01,1.28c2.63-1.5,4.53,0.45,5.65,1.2
	c1.38,0.81,3.15,0.93,4.73,0.75s3.21-0.6,4.64-0.04c2.9,0.87-3.4-4.58,2.72-0.71c0.35-0.44,1.19-0.77,1-1.07
	c-1.32-1.05-2.89-2.15-4.21-3.21c-0.19-0.29-0.63-0.65-0.82-0.94C1538.72,683.37,1539.27,683.23,1539.76,683.33z M-62.39,772.14
	c-0.51,1.18-1.01,2.35-1.47,3.29c-0.39-0.6-1.46-1.6-1.11-2.04c0.35-0.44,0.76-1.12,1.11-1.56l0.64-0.64l0.6-0.39
	C-62.48,771.35-62.34,771.89-62.39,772.14z M-49.56,719.08c-0.74-0.16-1.62-0.86-3.04-1.42l1.54-1.21c0.2,0.29,0.34,0.84,0.53,1.14
	c0.2,0.3,0.74,0.15,2.02,0.17C-49.95,718.48-48.33,719.34-49.56,719.08z M3.32,480.17c0.33,0.84,0.67,1.68,1,2.53
	c-0.24-0.06-0.24-0.06-0.49-0.11c-0.68-0.4-1.62-0.86-2.65-0.82L3.32,480.17z M1.75,487.55c0.24,0.05,0.44,0.35,0.39,0.59
	c-0.06,0.25-0.71,0.88-0.46,0.94c0.63,0.65,2.06,1.21,0.27,2.37c-0.39-0.6-0.58-0.9-0.58-0.9C1.08,489.46,0.06,488.22,1.75,487.55z
	 M-3,505.05c0.24,0.05,0.7-0.88,0.5-1.18c-0.67-1.68,1.02-2.35,1.53-3.53c0.05-0.25,1.33-0.23,1.88-0.37
	c-0.3,0.19-0.6,0.38-0.9,0.58c-0.35,0.44-2.88,1.44,0.43,1.63c0.15-0.04,0.32,0.01,0.49,0.1l-0.55,2.58
	c-0.11,0.11-0.22,0.22-0.33,0.32c-0.29,0.2-0.29,0.2-0.59,0.39l-0.29-1.09c-0.29,0.2-0.54,0.14-0.59,0.39
	c-0.21,0.98-0.61,1.67-1.79,1.16c0.19,0.3,0.39,0.6,0.39,0.6c-0.36,0.44-1.69,0.67-0.32,1.48c0.25,0.05,0.49,0.1,0.74,0.15
	c-0.3,0.2-0.84,0.34-1.14,0.53c-0.25-0.05-0.49-0.1-0.74-0.16C-3.77,507.46-7.39,505.14-3,505.05z M-4.33,512.48
	c-0.1-0.16-0.18-0.25-0.23-0.31c0.01,0,0.02,0.01,0.04,0.01c-0.23-1.33,0.22-2.26,1.51-2.25c0.49,0.11,1.42,0.56,1.61,0.86
	c0.22,0.33,0.25,0.79,0.25,1.27l-0.23,1.09c-0.89-0.07-1.43-0.67-1.51-1.39c-0.51-2.43-0.54,0.14-0.79,0.09
	c-0.24-0.06-0.54,0.14-0.84,0.33C-4.27,512.23-4.33,512.48-4.33,512.48z M-1.48,510l-0.67-1.68l0.94-0.83c0.2,0.3,0.2,0.3,0.44,0.35
	c0.17,0.03,0.33,0.06,0.51,0.02l-0.19,0.91L-1.48,510z M-0.49,505.76c0.07,0.09,0.23,0.13,0.39,0.16c0.07,0.06,0.15,0.11,0.22,0.15
	l-0.24,1.14L-0.49,505.76z M-7.86,523.04l0.04,1.04c0.24,0.05,0.49,0.1,0.79-0.09c0.3-0.2,0.84-0.34,0.89-0.58
	c0.21-0.99,0.23-2.27,0.19-3.3l0.25,0.05c0.8,0.64,1.65,1.08,2.47,1.69l-0.11,0.49c-1.14,1.13-2.08,2.13-3.27,3.28
	c-1.32-1.05-2.25-1.51-3.13-2.21L-7.86,523.04z M-5.87,534.26c-0.27,1.23-0.72,2.16-0.93,3.15c-0.44-0.35-1.62-0.86-1.57-1.11
	c0.21-0.98,0.92-1.86,1.67-2.98C-6.07,533.96-5.82,534.02-5.87,534.26z M-10.77,527.05c1.28,0.02,2.11,0.96,3.29,1.47
	c-1.74,0.92,2.97,2.95-0.49,3.5c0,0-0.53-1.14-0.91-1.74l-0.3,0.19l-1.6-2.14C-9.15,527.91-11.51,526.89-10.77,527.05z
	 M-10.7,549.69c-0.14-0.54-0.53-1.14-0.67-1.68c-0.19-0.3-0.09-0.8-0.09-0.8c1.88-0.37-0.21,0.99,0.58,0.9
	c0.5,0.1,0.85-0.34,1.74-0.92c-0.45,0.93-0.16,1.96-0.08,2.81l-0.26,1.22c-0.21,0.25-0.56,0.44-1.15,0.54
	c-0.79,0.09-1.77-0.12-2.81-0.08c0,0,0.11-0.49-0.08-0.79C-12.05,551.2-12.51,548.53-10.7,549.69z M-10.17,554.44l-0.15,0.73
	c-0.35,0.44-0.4,0.68-0.76,1.12c-0.35,0.44-0.64,0.64-1.05,1.32c-0.38-0.59-0.77-1.19-0.67-1.68c0.41-0.69,1.35-1.51,2-2.15
	C-10.59,554-10.38,554.22-10.17,554.44z M-20.88,567.32c1.83-0.12,0.42-1.97,1.51-2.25c0.49,0.11,1.02,1.25,2.16,0.72l-3.19,2.92
	L-20.88,567.32z M-19.46,572.76c-0.19-0.03-0.37-0.07-0.59,0.09c0.53-0.74,0.27-2.18,2.18-1.55c0.49,0.11,0.95-0.82,1.55-1.21
	c-0.39-0.6-0.78-1.19-1.02-1.25c-0.5-0.1-1.04,0.04-0.88-0.7c0.26-1.23,1.68-0.67,1.88-0.37c0.56,0.58,1.11,1.15,0.4,1.81
	c0.08-0.03,0.17-0.06,0.27-0.12l0.19,0.3c-1.74,0.91-0.19,3.3-2.61,3.81C-18.34,573.52-19.02,573.11-19.46,572.76z M-16.3,583.25
	l-0.19,0.89c-0.8-0.49-1.35,0.01-1.42,3.09c-0.36-3.16-1.13-4.35,0.74-4.72C-17.11,583.03-16.74,583.19-16.3,583.25z M-18.93,589.59
	l0.44,0.35c0.3,0.33,0.48,0.63,0.58,0.91l-0.35,1.64c-0.28,0.39-0.66,0.76-1.01,1.14c0,0-1.38-0.81-1.62-0.86
	C-20.44,591.84-19.68,590.71-18.93,589.59z M-24.3,593.08c-0.05,0.24,0.39,0.59,0.39,0.59c-0.75,1.13-1.26,2.3-2.02,3.43
	c0.06-0.25-0.14-0.55-0.14-0.55C-23.89,595.99-28.44,593.22-24.3,593.08z M-30.05,595.96c0.84-0.33,1.68-0.67,2.77-0.95
	c0,0,0.19,0.3,0.39,0.6c-0.35,0.44-0.81,1.37-1.06,1.32C-28.68,596.77-29.32,596.12-30.05,595.96z M-26.54,631.42l-0.52,2.46
	c-0.1,0.06-0.2,0.13-0.3,0.19c-0.25-0.05-0.88-0.7-1.27-1.29C-27.83,632.25-27.16,631.82-26.54,631.42z M-30.59,648.04
	c0,0,0.28-0.07,0.53-0.09l-0.72,3.39C-30.76,650.06-30.8,649.02-30.59,648.04z M-34.39,647.75c1.18,0.51,3.32-1.1,3.05,1.42
	c0.14,0.54-0.92-1.74-1.73-0.37c-0.1,0.49-0.21,0.98-0.89,0.58c-0.49-0.1-0.58-0.89-0.97-1.49
	C-34.63,647.7-34.63,647.7-34.39,647.75z M-37.66,794.88c0.74,0.16,1.67,0.61,2.11,0.97c-0.65,0.63-1.05,1.31-1.7,1.95
	c-0.58-0.9-1.02-1.25-1.36-2.09C-38.55,795.46-37.8,794.34-37.66,794.88z M-40.49,687.33c0.25,0.05,0.83,0.95,0.83,0.95
	c-0.35,0.43-1,1.07-1.55,1.21c-0.24-0.05-0.88-0.7-1.81-1.16C-41.93,688.05-41.33,687.66-40.49,687.33z M-44.48,686.74
	c0.44,0.35,1.13,0.75,1.81,1.15c-1,1.08-2.05,2.39-3.05,3.47c0.05-0.25-0.19-0.3-0.19-0.3L-44.48,686.74z M-47.47,798.71
	c0.25,0.05,0.68,0.4,0.93,0.45l-1.19,0.78c-0.39-0.6-0.97-1.49-1.36-2.09c0.84-0.33,1.39-0.47,2.23-0.81c0,0,0.14,0.54,0.34,0.84
	C-45.5,799.13-48.05,797.81-47.47,798.71z M-46.3,795.62c0.3-0.2,0.65-0.64,0.7-0.88c2.08-0.08,3.66-0.25,5.48-0.38
	c-0.59,0.39-1.24,1.02-1.79,1.16C-43.49,795.7-45.02,795.63-46.3,795.62z M-38.37,800.65c-0.3,0.19-0.6,0.38-1.14,0.52
	c-0.84,0.34-1.58,0.18-2.37,0.27c0.7-0.88,1.3-1.27,2.09-1.35c0.63-0.08,1.41-0.1,1.92,0.06L-38.37,800.65z M-28.08,801.81
	c-0.05,0.24-0.35,0.44-0.64,0.63c-0.53-1.14-0.6,0.39-1.09,0.28c-2.46-0.52-4.68-0.99-7.14-1.51c0.77-0.97,0.08-0.87-0.4-0.96
	c2.44-0.87,4.4,0.53,6.46,1.47c0.25,0.06,0.5,0.11,0.74,0.16c0.25,0.05,0.79-0.09,1.09-0.28l-0.44-0.35l-0.68-0.41
	c0.73,0.16,1.47,0.32,2.21,0.47C-27.72,801.37-27.88,802.1-28.08,801.81z M-13.76,800.99c-0.84,0.34-3.64-1.03-1.4,1.76
	c0,0-0.3,0.2-0.35,0.44c-0.44-0.35-0.88-0.7-1.32-1.05c-0.2-0.3-0.39-0.6-0.34-0.84c0.05-0.25,0.16-0.74,0.4-0.69
	c1.29,0.02,2.52,0.28,3.8,0.3L-13.76,800.99z M-12.84,797.85c0.11-0.49,0.12-1.77,0.37-1.72c1.77,0.12,0.7-0.88,0.81-1.37
	c2.49,0.77,0.13,1.88,0.29,2.96C-11.78,796.41-12.31,797.72-12.84,797.85z M-10.79,800.34c0.05-0.25,0.35-0.44,0.4-0.68
	c-0.39-0.6-0.53-1.15-0.92-1.74c0.55-0.14,1.28,0.01,2.08-0.08c0.54-0.14,1.03-0.03,1.52,0.07c0,0-0.05,0.25,0.14,0.55
	C-8.76,799.23-9.65,799.81-10.79,800.34z M-4.41,802.98c0,0-0.5-0.1-0.74-0.15l-0.2-0.3c0.25,0.05,0.74,0.15,0.79-0.09
	c0.38-0.37,0.47-0.65,0.42-0.87C-3.82,802.04-3.23,802.51-4.41,802.98z M-0.01,798.01c-0.16,0.73-1.51,2.25-3.23,1.88
	c-0.99-0.21-1.04,0.04-1,1.07c-0.07,0.12-0.07,0.24-0.03,0.36c-0.32-0.39-1.04-0.64-1.1-1.11c-0.14-0.55-1.07-1-1.46-1.6
	c0.64,0.65,1.46-2,2.02,0.18c0.6-0.39,0.95-0.83,1.55-1.22c0.29-0.19,0.89-0.58,1.19-0.77C-2,798.87,0.79,796.64-0.01,798.01z
	 M4.66,799c-1.1,1.57-1.81,2.44-2.51,3.32l-0.3-3.4c2.29,2.54,1.21-2.06,2.53-1.01C4.82,798.26,4.91,799.05,4.66,799z M11.04,793.16
	c-2.02-0.17-0.58-0.9-0.47-1.39l-7.36,0.75c-0.49-0.1-0.6,0.39-0.89,0.58c0.24,0.05,0.49,0.11,0.68,0.41
	c0.78,1.19-2.23,0.81-1.01,2.35c0.24,0.05-0.11,0.49-0.36,0.44c-2.02-0.17-3.74-0.54-5.51-0.66c0.54-0.14,1.03-0.04,1.33-0.23
	c0,0,0.11-0.49-0.09-0.79c-0.03-1.04-2.05-1.21-1.44-2.88l-0.98-0.21c-0.06,0.25-0.16,0.74-0.21,0.99c0.19,0.3,0.14,0.54,0.33,0.84
	l-1.93,0.62c0.1-0.5,0.4-0.69,0.46-0.94c0.1-0.49,0.5-1.17,0.61-1.66l-1.63,0.42c0.24,0.05,0.73,0.16,0.68,0.4
	c-0.05,0.25-0.1,0.49-0.4,0.69c-0.9,0.58-1.95-1.7-2.62,0.21l-0.07-1c-0.62,0.61-0.97,1.05-1.37,1.73
	c-0.05,0.24-0.49-0.11-0.74-0.16c-0.24-0.05-0.14-0.55-0.14-0.55c2.05-2.39,0.77-2.4-1.41-1.84c-0.29,0.19-0.79,0.09-1.03,0.04
	c-0.05,0.24,0.14,0.54,0.14,0.54c0.25,0.05,0.79-0.09,1.04-0.03c0.29-0.2,0.73,0.15,0.73,0.15c-0.1,0.49-0.26,1.23-0.36,1.73
	c0.05-0.25-0.14-0.55-0.39-0.6s-0.44-0.35-0.49-0.11c0.86,1.99-2.27-0.22-1.6,1.46c0.2,0.3,0.04,1.04,0.04,1.04
	c-1.04,0.04-2.23,0.81-3.16,0.36c-1.62-0.86-0.32,1.47-1.49,0.96c0.28,1.09,0.76,2.48,1.28,3.62c0,0-0.59,0.39-0.89,0.58
	c-0.19-0.3-0.63-0.65-0.53-1.14c-0.09-0.79,0.12-1.77,0.12-1.77c-1.72-0.37-1.12-0.76,0.02-1.29c-0.09-0.79,0.06-1.52-1.13-0.75
	c-0.05,0.25-0.49-0.1-0.74-0.16c-0.24-0.05-0.19-0.3-0.14-0.54c2.11,0.96,2.4-2.83,4.71-1.57c0.24,0.05,0.49,0.1,0.79-0.09
	c0.05-0.25,0.15-0.74,0.15-0.74c-0.19-0.3-0.44-0.35-0.68-0.4c-1.69,0.67-3.36,0.06-5.29,0.67c-1.98,0.87-1.13,4.13-4.03,3.26
	c-0.02,1.28,3.44,0.73,1.69,2.93c-0.35,0.44-1.25,1.02-2.04,1.11c-0.54,0.14-1.23-0.26-1.97-0.42c0.85-0.33,1.64-0.42,2.23-0.81
	c0.3-0.19,0.41-0.69,0.71-0.88c-0.6,0.39-1.39,0.48-2.18,0.57c-0.3,0.19-0.79,0.09-0.99-0.21c-0.58-0.9-0.42-1.64,0.91-1.87
	c-1.56-1.1,0.85-0.33,0.46-0.93c0,0,0.35-0.44,0.65-0.63l-0.25-0.05c-0.49-0.11-1.03,0.03-1.53-0.07c-0.73-0.16-1.17-0.51-1.91-0.67
	c-0.25-0.05-0.19-0.29-0.14-0.54c0.79-0.09,1.33-0.23,2.07-0.07c0.79-0.09,1.77,0.12,2.51,0.27c-0.44-0.35-0.88-0.7-1.02-1.24
	c-0.19-0.3-0.09-0.79,0.21-0.99c0.02-0.01,0.03-0.01,0.04-0.02l10.12-0.75c0.09,0.06,0.17,0.1,0.26,0.16
	c-0.03-0.06-0.03-0.11-0.04-0.17l6.19-0.46c0.16,0.51,0.14,1.16,0.61,1.29l-0.09-1.33l14.26-1.05c-0.02,0.11-0.03,0.21-0.03,0.29
	c0,0.68,0.69,0.63,1.35,0.77c0.59-0.39,1.39-0.48,2.23-0.82c-0.47-0.09-0.92-0.25-1.34-0.4l8.16-0.6c0.32,0.34,0.49,0.76,0.92,0.85
	c0.69,0.41,1.43,0.56,2.16,0.72c-0.1,0.49-0.5,1.18-0.61,1.67c0.15,4.14-1.97-0.42-2.72,0.71c0.18,1.58-1.23-0.27-1.44,0.72
	C12.57,793.23,11.94,792.58,11.04,793.16z M28.3,797.86c-0.84,0.33-1.44,0.72-2.23,0.81c-0.54,0.14-0.79,0.09-1.28-0.02l0.05-0.24
	c0.25,0.05,0.79-0.09,1.04-0.04c1.67,0.61,0.45-0.93,1-1.07c-2.67,0.46-4.9,1.27-5.97,3.87c-0.05,0.25-1.16-1.79-2.46-0.52
	c-0.05,0.24-1.37-0.81-2.3-1.26c-0.69-0.41-1.43-0.56-2.16-0.72c-1.73-0.37-0.59-0.89-0.18-1.58c0.35-0.44,1.74-0.92,0.36-1.72
	c0,0,0.06-0.25,0.11-0.49c0.3-0.2,0.3-0.2,0.6-0.39c-0.23,2.26,2.7,0.57,2.88,2.15c0.19,0.3,0.58,0.9,0.58,0.9
	c0.6-0.39,1.14-0.53,1.74-0.92c0.05-0.24,0.3-0.19,0.35-0.44c2.09,2.25,4.86-2.3,6.74,0.92c0.5,0.11,0.62-1.67,1.34-0.23
	c0.14,0.55,0.23,1.34,0.32,2.13C28.69,798.46,28.3,797.86,28.3,797.86z M28.45,789.92c-1.88,0.37-0.18-1.58-0.97-1.49
	c-0.5,0.02-0.84-0.17-0.99-0.39l2.6-0.19C28.57,788.5,29.17,789.63,28.45,789.92z M40.45,796.33c-0.4,0.69,1.16,1.79-0.47,2.21
	c1.4-1.76-1.51-1.35-1.25-2.58c-1.04,0.04-1.83,0.13-2.86,0.17c-0.99-0.21-1.97-0.42-2.95-0.63c0.75-1.13,1.58-0.18,2.61-0.22
	c0.25,0.06,0.9-0.58,0.95-0.82c-0.53-1.14-1.01-2.53-1.83-3.48c-1.02-1.24-2.94-1.91-4.31-2.71l-0.19-0.3
	c0.01-0.06,0.02-0.13,0.04-0.2l2.45-0.18c1.76,0.39,3.26,1.24,3.48,3.7c0,0,0.5,0.11,0.74,0.16c-0.81-2.23,2.81,0.09,2.19-1.85
	c-1.44,0.73-3.05-0.13-3.19-0.68c-0.32-2.12,1.58-0.17,1.38-0.47c-0.13-0.51-0.14-0.9-0.07-1.19l3.62-0.27
	c-0.05,0.68-0.07,1.4-0.1,2.19c0,0-0.74-0.16-0.99-0.21c-0.24-0.05-0.68-0.4-0.93-0.45l0.53,1.14c0.49,0.1,1.72,0.36,1.67,0.61
	c-0.02,1.28-1.14,0.53-1.69,0.67c-3.51,0.79-1.17,3.09-1.48,4.57c1.19-0.78,1.12,0.75,1.86,0.91c0,0,0.46-0.93,0.7-0.88
	C41.64,795.55,40.8,795.89,40.45,796.33z M45.02,786.68l2.58-0.19c0.03,0.39,0,0.76-0.14,1.05c-0.7,0.88-0.63-0.65-1.12-0.76
	c0.05-0.24-0.49-0.1-0.49-0.1l-0.11,0.49c0.14,0.55,1.02,1.25,1.02,1.25c0.6-0.39,1.2-0.78,1.84-1.41c0.21-0.13,0.33-0.41,0.47-0.63
	l1.06-0.08c0.06,0.02,0.11,0.03,0.16,0.04c-0.3,0.19-0.84,0.33-0.9,0.58c-0.05,0.25-0.15,0.74-0.2,0.98
	c-0.06,0.25,0.44,0.35,0.44,0.35c0.59-0.38,0.94-0.82,2.19-1.84c-0.55,0.14,0.3-0.2,0.49,0.1c0.44,0.35,0.53,1.14,1.62,0.86
	c1.58-0.18,3.05,0.14,4.58,0.2l0.99,0.21c-0.06,0.25-0.11,0.5-0.41,0.69c-0.35,0.44-1.3,1.26-1.54,1.21
	c-2.36-1.01-4.55,0.84-6.67,1.15c-1.34,0.23-2.97,0.66-4.36,1.14C46.54,790.19,45.29,788.64,45.02,786.68z M54.61,799.86
	c-0.79,0.09-1.77-0.12-2.51-0.28c0.55-0.14,1.34-0.23,1.39-0.48c0.45-0.93,3,0.38,2.44-1.79c0.05-0.25-0.69-0.4-0.69-0.4
	c-1.54,1.21-2.67,0.45-3.44-0.74c-1.4,1.76-2.83,1.2-4.45,0.34c-0.19-0.3-0.19-0.3-0.14-0.54c2.52,0.27,0.53-2.46,2.16-2.89
	c0.14,0.55,0.04,1.04,0.23,1.34c0.63,0.65,1.37,0.8,2.06,1.21c0.94-0.83-1.71-1.65-0.08-2.08c0.85-0.33,2.01,1.46,3.24,1.72
	c1.97,0.42,1.65,1.9,1.88,3.23C56.9,798.8,55.21,799.47,54.61,799.86z M63.04,796.51c-1.88,0.37,1.02,1.24,0.12,1.82
	c-0.54,0.14-1.03,0.04-1.58,0.18c0.3-0.19,0.71-0.88,0.71-0.88c-0.78-1.19-1.61-2.14-3.43-2.01c-0.55,0.14-1.34,0.23-2.13,0.32
	l0.56-1.43c0.93,0.46,1.21-2.05,2.97-0.65c0.88,0.7,3.09,1.17,4.64-0.04l0.49,0.1c0.19,0.3,0.39,0.6,0.58,0.9
	C65.9,796.34,63.97,796.96,63.04,796.51z M78.48,787.97c-2.79-1.37-5.46-0.91-8.04,0.34c-0.84,0.34-0.7,0.88-4.15,0.15l-0.24-0.05
	c0.59-0.39,1.24-1.02,2.44-1.8c0.36-1.72,1.93-0.62,3.51-0.8c0.64-0.07-1.44-0.21-1.22-1.03l7.43-0.54
	c-0.27,0.1-0.54,0.22-0.82,0.41c-0.3,0.19-0.16,0.74,0.04,1.03l2.66-0.46l0.55-0.14c-0.3,0.2-0.35,0.44-0.35,0.44
	C78.22,785.59,79.96,788.28,78.48,787.97z M82.14,787.71l-2.5-1.56c0.89-0.58,1.79-1.16,2.68-1.74c-0.05,0.25,0.2,0.3,0.15,0.55
	C82.26,785.94,82.29,786.98,82.14,787.71z M92.42,785.28c-1.14,0.52-2.24,2.09-3.7,0.49c0.05-0.24,0.4-0.68,0.65-0.63
	c0.49,0.1,1.42,0.56,1.47,0.31c0.65-0.63,0.77-2.41,2.78-0.95C93.02,784.89,92.72,785.08,92.42,785.28z M116.1,785.17
	c-1.47-0.32-3.15,3.95-4.58-0.2c-0.25-0.06-1.48-0.32-1.78-0.13c-1.79,1.17-3.25-0.43-4.78-0.5c-0.24-0.05-0.52-1.14-0.91-1.74
	c0.44,0.36,0.63,0.65,1.12,0.76c0.74,0.16,2.59,2.35,1.74-0.92c-0.04-0.07-0.03-0.18,0-0.31l3.42-0.26
	c0.01,0.01,0.03,0.02,0.04,0.02c0.25,0.06,0.44,0.35,0.69,0.41c0,0,0.05-0.24,0.1-0.49l1.97-0.14l-2.72,1.26
	c0.24,0.05,0.44,0.35,0.68,0.4c1.04-0.03,1.78,0.12,1.76,1.4c0.3-0.19,0.35-0.44,0.6-0.38c0.74,0.15,1.21,1.54,1.82-0.13
	c0.06-0.24-0.14-0.54-0.08-0.79c0.19,0.3,0.63,0.65,0.82,0.95C116.21,784.68,116.15,784.92,116.1,785.17z M114.94,783.38l-1.13-0.75
	c0.06-0.25,0.11-0.5,0.11-0.5c0.03-0.16-0.04-0.34-0.07-0.51l0.97-0.08l1.66,0.62L114.94,783.38z M120.05,784.72
	c-1.68,0.67-2.67,0.46-3.14-0.92c-0.39-0.6,0.12-1.78,0.42-1.97c0.45-0.3,0.94-0.45,1.43-0.58l1.39-0.1
	c0.15,0.93-0.25,1.53-1.01,1.84c-2.83,1.19,0.14,0.54,0.33,0.84c-0.05,0.25,0.44,0.35,0.63,0.65c0,0,0,0,0.01,0
	c0,0-0.03,0.13,0.1,0.02c-0.12,0.13-0.06,0.05,0.09,0.28C120.05,784.72,120.05,784.72,120.05,784.72z M135.12,786.39l-0.72-1.44
	l1.09-0.28c-0.19-0.3-0.14-0.55-0.33-0.85c-0.2-0.29-0.64-0.65-0.88-0.7c-1.34,0.23-2.67,0.46-4.01,0.69l-0.19-0.29
	c0.49-1.15,0.94-2.07,1.43-3.2l0.19-0.02c1.57,0.82,3.19,1.43,5,2.31C136.14,784.03,135.63,785.21,135.12,786.39z M143.01,783.18
	l0.44,0.35l-2.25,2.09c-1.02-1.24-1.54,1.22-1.63,0.43c-0.28-1.09,0.47-2.22,0.73-3.45c1.81,1.16,2.37-3.86,4.25-0.63
	C144.8,782.02,143.6,782.79,143.01,783.18z M150.08,781.34c-1.28-0.01-2.21-0.47-3.93-0.83c0.4-0.69,0.5-1.18,0.75-1.13
	c1.33-0.23,2.62-0.22,3.9-0.2C150.4,779.87,150.13,781.1,150.08,781.34z M169.3,781.37c-0.23-1.18-3.01-0.04-2.32-2.09
	c-0.6,0.39-1.2,0.77-1.79,1.16c-0.3,0.2-1.09,0.28-1.09,0.28c-0.92-1.73,1.33-0.23,0.94-0.82c-0.14-0.55-0.88-0.7-1.75-1.41
	c0.83,0,1.6-0.36,2.32-0.68l2.7-0.2c0.22,0.18,0.44,0.44,0.65,0.81c0.33,0.84,0.37,1.87,0.71,2.72
	C169.67,781.14,169.38,781.21,169.3,781.37z M174.72,779.13c-1.23-0.26-2.16-0.72-3.34-1.23c0.09-0.18,0.2-0.36,0.3-0.54l2.38-0.17
	c0.18,0.03,0.36,0.07,0.54,0.11c0.49,0.11,1.17,0.51,1.91,0.67C175.86,778.6,175.21,779.23,174.72,779.13z M190.8,783.32
	c-0.72-1.44-2.37,0.27-3.2-0.68c-0.49-0.11,1-1.07-0.07-2.07l4.41,2.22L190.8,783.32z M196.59,781.47c-0.88-0.71-2.91,0.4-2.93-1.91
	c0.05-0.25-1.18-0.51-1.87-0.91c-0.35,0.44-1.24,1.02-1.05,1.31c0.14,0.55,0.28,1.09-0.51,1.18c-1.28-0.01-1.21-1.54-0.91-1.74
	c0.45-0.93,1.35-1.51,2.47-0.75c-0.19-0.3-0.44-0.36-0.63-0.65l0.3-0.2c1.51,1.35,4-0.69,5.36,1.4c0.19,0.3-0.27,1.23-0.37,1.72
	C196.4,781.17,196.64,781.22,196.59,781.47z M207.31,775.78c0.55-0.22,0.62-0.63,0.55-1.08l1.15-0.09c-0.4,0.97,0.3,1.4,4.08,0.6
	C209.48,776.49,208.23,777.51,207.31,775.78z M220.63,776.04c-1.48-0.32-2.95-0.63-4.43-0.94l0.35-0.44
	c0.19-0.27,0.39-0.48,0.59-0.64l2.72-0.2c0.45,0.17,0.91,0.38,1.38,0.55L220.63,776.04z M222.21,779.46
	c0.06-0.25,0.16-0.74,0.41-0.68c1.72,0.36,3.2,0.68,4.67,0.99c-0.3,0.19-0.6,0.39-0.6,0.39
	C225.29,778.31,223.45,783.32,222.21,779.46z M227.09,784.35c-0.58-0.89-1.46-1.59-2.04-2.49c0,0,0.35-0.44,0.64-0.63
	c0.74,0.16,1.97,0.42,1.92,0.66C227.7,782.68,227.3,783.37,227.09,784.35z M270.59,772.01c-1.05-0.62-1.81-1.17-2.61-1.73l3.02-0.23
	c0.15,0.12,0.31,0.23,0.45,0.34C271.45,770.39,271,771.33,270.59,772.01z M286.47,778.41l-0.17-0.49c-0.15-0.23-0.29-0.45-0.35-0.55
	c0.08,0,0.16,0,0.21,0.01C286.9,777.74,286.83,778.09,286.47,778.41z M288.77,768.75l2.5-0.19c-0.73,0.15-1.51,0.28-2.29,0.42
	C288.94,769.14,288.87,768.97,288.77,768.75z M290.35,773.39c-0.19-0.3-0.44-0.35-0.38-0.6c-0.29-1.09-2.73-2.89,0.43-3.25
	c0.79-0.09-1.84,1.41,0.13,1.83c0.49,0.1,1.28,0.01,1.42,0.56C291.85,772.42,291,772.75,290.35,773.39z M339.22,766.04
	c0.69,0.41,1.67,0.62,2.06,1.21c0.25,0.05-0.45,0.93-0.66,1.92c-0.88-0.7-1.52-1.35-2.15-2
	C338.52,766.92,339.22,766.04,339.22,766.04z M344.54,771.29l-5.62-0.17c0.15-0.74,0.5-1.18,0.71-2.16
	c1.92,0.66,3.59,1.27,5.26,1.89C344.59,771.04,344.54,771.29,344.54,771.29z M378.34,769.48l-2.05-1.21
	c0.54-0.14,1.09-0.28,1.44-0.72c0.05-0.25-0.34-0.84-0.62-1.93c1.27,1.29,1.68-0.67,1.91,0.66
	C379.06,767.32,378.61,768.25,378.34,769.48z M447.15,765.09c-0.93-0.45-2.05-1.21-2.99-1.66c0.55-0.15,0.85-0.34,1.15-0.53
	c1.23,0.26,2.21,0.47,3.19,0.68C447.85,764.21,447.35,765.39,447.15,765.09z M473.77,755.14l1.55-0.12
	C474.66,755.29,474.15,755.31,473.77,755.14z M495.21,755.52c0.74,0.15,1.67,0.61,2.11,0.96c-0.65,0.63-1.05,1.32-1.7,1.95
	c-0.58-0.89-1.02-1.24-1.36-2.09C494.32,756.1,495.02,755.22,495.21,755.52z M485.71,754.27c0.19,0.29-1.25,1.02-2.09,1.35
	l-0.63-0.65c-1.6,1.18-3.19,0.27-4.82-0.16l7.54-0.55C485.71,754.26,485.71,754.26,485.71,754.27z M487.65,760.85
	c-0.63-0.65-1.27-1.3-1.9-1.95c0.35-0.44,0.95-0.82,1.49-0.97c0.05-0.24,0.44,0.35,0.63,0.65c1.32,1.06-1.03,0.04-0.5,1.18
	c0.24,0.05,0.68,0.4,0.93,0.46C488,760.41,487.95,760.66,487.65,760.85z M491.45,756.26c-1.33,0.23-2.86,0.16-4.14,0.15
	c0.1-0.5,0.4-0.69,0.45-0.94c2.08-0.07,3.66-0.25,5.24-0.43C492.4,755.43,492,756.12,491.45,756.26z M504.99,762.74
	c-0.05,0.24-0.35,0.44-0.65,0.63c-0.53-1.14-0.6,0.39-1.09,0.28c-2.46-0.52-4.67-0.99-7.13-1.51c1.05-1.32-0.64-0.65-0.78-1.2
	c-0.59,0.39-0.94,0.83-1.49,0.97c-0.54,0.14-1.03,0.04-1.58,0.18c0.61-1.67,1.65-1.71,3.07-1.15c2.53-1,4.54,0.45,6.64,1.42
	c0.25,0.05,0.5,0.1,0.74,0.15c0.25,0.06,0.79-0.09,1.09-0.28c-0.25-0.05-0.19-0.3-0.44-0.35c-0.24-0.05-0.44-0.35-0.68-0.4
	c0.73,0.15,1.47,0.31,2.21,0.47C505.09,762.25,504.99,762.74,504.99,762.74z M519.06,761.87c-0.85,0.34-3.64-1.03-1.41,1.76
	c0,0-0.29,0.2-0.35,0.44c-0.44-0.35-0.88-0.7-1.32-1.05c-0.19-0.3-0.38-0.6-0.33-0.84c0.05-0.25,0.16-0.74,0.4-0.69
	c1.17,0.02,2.3,0.23,3.46,0.28C519.41,761.78,519.29,761.81,519.06,761.87z M519.45,753.99c-0.2-0.3-0.44-0.35-0.49-0.11
	c0.86,1.99-2.27-0.22-1.6,1.46c0.19,0.3,0.04,1.04,0.04,1.04c-1.04,0.04-2.23,0.81-3.16,0.35c-1.62-0.85-0.32,1.48-1.5,0.97
	c0.29,1.09,0.76,2.48,1.29,3.62c0,0-0.59,0.39-0.89,0.58c-0.2-0.3-0.64-0.65-0.53-1.14c-0.09-0.79,0.12-1.78,0.12-1.78
	c-1.72-0.36-1.13-0.75,0.01-1.28c-0.08-0.79,0.07-1.53-1.12-0.75c-0.05,0.25-0.49-0.11-0.74-0.16c-0.24-0.05-0.19-0.3-0.14-0.54
	c2.11,0.96,2.4-2.83,4.7-1.57c0.25,0.05,0.5,0.1,0.79-0.09c0.06-0.25,0.16-0.74,0.16-0.74c-0.19-0.3-0.44-0.35-0.68-0.4
	c-1.69,0.67-3.36,0.06-5.29,0.67c-1.98,0.87-1.14,4.13-4.03,3.26c-0.02,1.28,3.44,0.73,1.69,2.93c-0.35,0.44-1.25,1.02-2.04,1.11
	c-0.54,0.14-1.23-0.26-1.97-0.42c0.85-0.34,1.64-0.42,2.23-0.81c0.3-0.19,0.4-0.69,0.7-0.88c-0.59,0.39-1.38,0.48-2.17,0.57
	c-0.3,0.19-0.79,0.08-0.99-0.21c-0.58-0.9-0.42-1.64,0.91-1.87c-1.56-1.1,0.85-0.33,0.46-0.93c0,0,0.35-0.44,0.65-0.63l-0.25-0.05
	c-0.49-0.11-1.04,0.03-1.53-0.07c-0.74-0.16-1.17-0.51-1.91-0.67c-0.25-0.05-0.2-0.29-0.14-0.54c0.79-0.09,1.33-0.23,2.07-0.07
	c0.79-0.09,1.77,0.12,2.51,0.27c-0.44-0.35-0.88-0.7-1.02-1.24c-0.19-0.3-0.09-0.79,0.21-0.99c0.06-0.04,0.12-0.07,0.19-0.11
	l9.86-0.73c0.12,0.07,0.24,0.14,0.36,0.23c-0.03-0.1-0.04-0.17-0.05-0.25l6.18-0.46c0.19,0.53,0.14,1.27,0.67,1.39
	c-0.65,0.63-1,1.07-1.4,1.75c-0.05,0.25-0.49-0.1-0.74-0.15c-0.24-0.06-0.14-0.55-0.14-0.55c2.05-2.39,0.77-2.41-1.41-1.84
	c-0.3,0.19-0.79,0.09-1.03,0.04c-0.06,0.24,0.14,0.54,0.14,0.54c0.24,0.05,0.79-0.09,1.03-0.03c0.3-0.2,0.74,0.15,0.74,0.15
	c-0.1,0.49-0.26,1.23-0.36,1.72C519.89,754.34,519.69,754.04,519.45,753.99z M520.03,758.48c0.11-0.49,0.12-1.77,0.37-1.72
	c1.77,0.12,0.7-0.88,0.81-1.37c2.49,0.77,0.13,1.88,0.29,2.96C521.09,757.04,520.56,758.35,520.03,758.48z M522.08,760.97
	c0.05-0.24,0.35-0.44,0.4-0.68c-0.39-0.6-0.53-1.14-0.92-1.74c0.55-0.14,1.28,0.02,2.08-0.07c0.54-0.14,1.03-0.04,1.52,0.06
	c-0.05,0.25-0.1,0.5,0.14,0.55C524.11,759.86,523.22,760.45,522.08,760.97z M532.8,758.89c-0.15,0.73-1.5,2.25-3.22,1.88
	c-0.99-0.21-1.04,0.04-1,1.07c-0.08,0.12-0.07,0.24-0.03,0.36c-0.32-0.39-1.05-0.64-1.1-1.11c-0.14-0.55-1.07-1-1.46-1.6
	c0.63,0.65,1.46-2,2.02,0.17c0.6-0.38,0.95-0.82,1.54-1.21c0.3-0.19,0.9-0.58,1.2-0.77C530.82,759.75,533.66,757.27,532.8,758.89z
	 M537.53,759.63c-1.1,1.57-1.81,2.45-2.51,3.33c-0.03-1.04-0.26-2.37-0.3-3.41c2.29,2.54,1.21-2.06,2.53-1.01
	C537.69,758.9,537.72,759.93,537.53,759.63z M543.91,753.79c-2.02-0.17-0.58-0.89-0.47-1.38c-2.37,0.26-4.99,0.48-7.36,0.74
	c-0.49-0.1-0.6,0.39-0.89,0.58c0.24,0.06,0.49,0.11,0.68,0.41c0.78,1.19-2.23,0.81-1.01,2.35c0.24,0.06-0.11,0.49-0.36,0.44
	c-2.02-0.17-3.74-0.54-5.51-0.66c0.54-0.14,1.04-0.03,1.33-0.23c0,0,0.11-0.49-0.09-0.79c-0.03-1.03-2.05-1.21-1.44-2.87
	c-0.49-0.11-0.74-0.16-0.98-0.21c-0.06,0.24-0.16,0.73-0.21,0.98c0.19,0.3,0.14,0.54,0.33,0.84c-0.6,0.39-1.39,0.48-1.93,0.62
	c0.11-0.49,0.4-0.69,0.46-0.93c0.1-0.49,0.5-1.18,0.61-1.67c-0.55,0.14-1.09,0.28-1.63,0.42c0.24,0.05,0.73,0.16,0.68,0.41
	c-0.05,0.24-0.1,0.49-0.4,0.68c-0.9,0.58-1.95-1.7-2.62,0.22c0.01-0.79-0.09-1.5-0.16-2.22l14.26-1.05
	c-0.02,0.03-0.05,0.06-0.05,0.08c-0.21,0.99,0.58,0.9,1.32,1.05c0.59-0.38,1.38-0.47,2.23-0.81c-0.54-0.11-1.05-0.29-1.54-0.47
	l8.55-0.62c0.25,0.3,0.42,0.62,0.78,0.7c0.69,0.4,1.43,0.56,2.17,0.71c-0.11,0.49-0.51,1.18-0.62,1.67
	c0.11,3.03-0.99,1.41-1.89,0.76c0.5,0.1,0.91,0.21,0.95,0.07c1.1-1.57-1.43-0.56-1.41-1.84c-0.13-1.83-1.5-2.63-2.81-0.09
	c0.63,0.65,1.56,1.11,2.2,1.76c0.09-0.01,0.2-0.02,0.3-0.01c-0.02,0.02-0.04,0.03-0.06,0.06c0.18,1.58-1.23-0.26-1.44,0.72
	C545.39,754.11,544.76,753.46,543.91,753.79z M561.17,758.49c-0.84,0.34-1.44,0.72-2.23,0.81c-0.54,0.14-0.79,0.09-1.28-0.01
	l0.05-0.25c0.25,0.05,0.79-0.09,1.04-0.04c1.67,0.62,0.45-0.93,1-1.07c-2.67,0.46-4.9,1.27-5.97,3.87
	c-0.05,0.25-1.16-1.78-2.46-0.52c-0.05,0.25-1.37-0.81-2.3-1.26c-0.69-0.4-1.43-0.56-2.16-0.72c-1.73-0.36-0.58-0.89-0.18-1.58
	c0.35-0.44,1.74-0.91,0.36-1.72c0,0,0.06-0.24,0.11-0.49c0.3-0.19,0.3-0.19,0.6-0.39c-0.23,2.27,2.7,0.58,2.88,2.16
	c0.19,0.3,0.58,0.89,0.58,0.89c0.6-0.39,1.14-0.53,1.74-0.91c0.05-0.25,0.3-0.2,0.35-0.44c2.09,2.24,4.86-2.31,6.74,0.92
	c0.5,0.1,0.62-1.67,1.34-0.23c0.14,0.54,0.23,1.33,0.32,2.12C561.5,759.33,561.17,758.49,561.17,758.49z M561.32,750.55
	c-1.88,0.37-0.18-1.58-0.97-1.49c-0.38,0.01-0.66-0.09-0.84-0.23l2.39-0.18C561.46,749.39,562.01,750.28,561.32,750.55z
	 M573.32,756.96c-0.4,0.69,1.16,1.79-0.47,2.22c1.4-1.76-1.51-1.35-1.25-2.58c-1.04,0.03-1.83,0.12-2.86,0.16
	c-0.99-0.21-1.97-0.42-2.95-0.63c0.75-1.12,1.58-0.18,2.61-0.21c0.25,0.05,0.9-0.58,0.95-0.83c-0.53-1.14-1.01-2.53-1.83-3.48
	c-1.02-1.24-2.94-1.91-4.31-2.71l-0.19-0.3v-0.03l2.98-0.22c1.54,0.44,2.79,1.35,2.99,3.58c0,0,0.5,0.1,0.74,0.16
	c-0.81-2.23,2.81,0.08,2.19-1.85c-1.44,0.72-3.05-0.14-3.19-0.68c-0.32-2.13,1.58-0.18,1.38-0.48c-0.11-0.42-0.13-0.75-0.09-1.03
	l3.6-0.26c-0.05,0.69-0.06,1.36-0.06,2.02c0,0-0.74-0.15-0.99-0.21c-0.24-0.05-0.68-0.4-0.93-0.45c0.19,0.3,0.34,0.84,0.53,1.14
	c0.49,0.11,1.72,0.37,1.67,0.61c-0.02,1.28-1.14,0.53-1.69,0.67c-3.51,0.8-1.17,3.09-1.48,4.57c1.19-0.77,1.12,0.76,1.86,0.91
	c0,0,0.46-0.93,0.7-0.88C574.51,756.19,573.67,756.52,573.32,756.96z M577.86,747.48l2.55-0.19c0.04,0.42,0.02,0.82-0.13,1.13
	c-0.7,0.88-0.63-0.65-1.12-0.76c0.05-0.24-0.5-0.1-0.5-0.1l-0.1,0.49c0.14,0.54,1.02,1.25,1.02,1.25c0.6-0.39,1.19-0.78,1.84-1.41
	c0.24-0.15,0.35-0.48,0.53-0.71l0.71-0.06c0.17,0.04,0.33,0.07,0.45,0.1c-0.3,0.19-0.84,0.33-0.9,0.58
	c-0.05,0.24-0.15,0.74-0.21,0.98c-0.05,0.25,0.44,0.35,0.44,0.35c0.6-0.38,0.95-0.82,2.2-1.84c-0.55,0.14,0.29-0.2,0.49,0.1
	c0.44,0.35,0.53,1.14,1.61,0.86c1.59-0.18,3.06,0.14,4.59,0.2c0.49,0.11,0.74,0.16,0.98,0.21c-0.05,0.25-0.1,0.49-0.4,0.69
	c-0.35,0.44-1.3,1.26-1.54,1.21c-2.36-1.01-4.55,0.83-6.68,1.15c-1.33,0.23-2.96,0.66-4.35,1.13
	C579.36,751.08,578.14,749.41,577.86,747.48z M587.43,760.73c-0.79,0.09-1.77-0.12-2.51-0.27c0.54-0.14,1.33-0.23,1.39-0.48
	c0.45-0.93,3,0.38,2.43-1.79c0.06-0.25-0.68-0.41-0.68-0.41c-1.54,1.22-2.67,0.46-3.44-0.73c-1.41,1.76-2.83,1.2-4.45,0.34
	c-0.19-0.3-0.19-0.3-0.14-0.54c2.51,0.27,0.52-2.46,2.16-2.89c0.14,0.55,0.03,1.04,0.23,1.34c0.63,0.65,1.37,0.8,2.05,1.21
	c0.95-0.83-1.7-1.65-0.07-2.08c0.84-0.33,2.01,1.46,3.24,1.72c1.96,0.42,1.65,1.89,1.88,3.23
	C589.71,759.68,588.03,760.35,587.43,760.73z M595.86,757.39c-1.88,0.37,1.02,1.24,0.12,1.82c-0.54,0.14-1.03,0.04-1.58,0.18
	c0.3-0.19,0.7-0.88,0.7-0.88c-0.77-1.19-1.6-2.14-3.42-2.01c-0.55,0.14-1.34,0.23-2.13,0.32c0.11-0.5,0.46-0.94,0.56-1.43
	c0.93,0.46,1.21-2.05,2.97-0.65c0.88,0.7,3.09,1.17,4.63-0.04l0.5,0.1c0.19,0.3,0.38,0.6,0.58,0.9
	C598.72,757.22,596.84,757.59,595.86,757.39z M612.91,744.9c-0.01,0.05-0.02,0.11-0.03,0.17c-0.25-0.06-0.43-0.09-0.58-0.13
	L612.91,744.9z M611.84,748.7c-2.79-1.36-5.46-0.9-8.04,0.35c-0.84,0.33-0.7,0.88-4.14,0.15l-0.25-0.06
	c0.6-0.38,1.25-1.02,2.44-1.79c0.36-1.72,1.93-0.62,3.51-0.8c0.64-0.07-1.41-0.21-1.22-1.01l7.19-0.53
	c-0.36,0.12-0.73,0.26-1.12,0.52c-0.3,0.19-0.16,0.73,0.03,1.03c0.79-0.09,1.88-0.37,2.67-0.46c0.25,0.05,0.3-0.19,0.55-0.14
	c-0.3,0.19-0.35,0.44-0.35,0.44C611.03,746.47,612.78,749.16,611.84,748.7z M614.95,748.59c-0.93-0.45-1.56-1.1-2.49-1.56
	c0.89-0.58,1.79-1.16,2.68-1.74c-0.05,0.25,0.2,0.3,0.14,0.55C615.07,746.82,615.11,747.85,614.95,748.59z M625.29,745.91
	c-1.14,0.53-2.24,2.09-3.7,0.5c0.05-0.25,0.4-0.69,0.65-0.64c0.49,0.11,1.42,0.56,1.47,0.32c0.65-0.64,0.77-2.41,2.78-0.96
	C625.89,745.52,625.54,745.96,625.29,745.91z M648.92,746.05c-1.48-0.32-3.16,3.96-4.59-0.21c-0.24-0.05-1.47-0.31-1.77-0.12
	c-1.79,1.17-3.25-0.43-4.78-0.5c-0.24-0.05-0.53-1.14-0.91-1.74c0.44,0.36,0.63,0.65,1.12,0.76c0.74,0.16,2.59,2.35,1.74-0.92
	c-0.06-0.08-0.03-0.23,0.03-0.4l3.24-0.24c0.06,0.03,0.13,0.06,0.19,0.09c0.24,0.06,0.44,0.35,0.68,0.4c0,0,0.06-0.24,0.11-0.49
	c0.02-0.02,0.03-0.05,0.05-0.07l2.12-0.16c-0.97,0.45-1.95,0.91-2.93,1.36c0.25,0.05,0.44,0.35,0.69,0.4
	c1.04-0.04,1.77,0.12,1.76,1.4c0.3-0.19,0.35-0.44,0.59-0.38c0.74,0.15,1.22,1.54,1.83-0.13c0.05-0.25-0.14-0.54-0.09-0.79
	c0.2,0.3,0.64,0.65,0.83,0.95C649.02,745.56,648.97,745.8,648.92,746.05z M647.76,744.26c-0.44-0.35-0.69-0.41-1.13-0.75
	c0.05-0.25,0.11-0.5,0.11-0.5c0.03-0.18-0.06-0.39-0.09-0.59l0.81-0.06c0.6,0.22,1.2,0.45,1.84,0.68
	C648.95,743.48,648.35,743.87,647.76,744.26z M653.07,745.18c-0.06,0.02-0.12,0.07-0.15,0.18c-0.6,0.24-1.12,0.37-1.55,0.37
	c-0.77,0-1.29-0.41-1.59-1.3c-0.39-0.6,0.12-1.77,0.42-1.97c0.23-0.15,0.49-0.27,0.74-0.36l2.1-0.15c0.09,0.83-0.31,1.38-1.03,1.67
	c-2.83,1.2,0.14,0.54,0.33,0.84c-0.05,0.25,0.44,0.35,0.63,0.65c0,0,0.06-0.25,0.3-0.19C653.18,745.03,653.11,745.12,653.07,745.18z
	 M667.99,747.02c-0.14-0.54-0.58-0.89-0.72-1.44c0.3-0.19,0.79-0.09,1.09-0.28c-0.19-0.3-0.14-0.54-0.33-0.84
	c-0.2-0.3-0.64-0.65-0.88-0.7c-1.34,0.22-2.67,0.46-4.01,0.69l-0.19-0.3c0.46-1.08,0.92-2.14,1.35-3.03l0.55-0.04
	c1.49,0.74,3.02,1.33,4.72,2.16C668.96,744.91,668.5,745.84,667.99,747.02z M675.88,743.81c0.24,0.05,0.19,0.3,0.44,0.35
	c-0.9,0.58-1.6,1.46-2.25,2.1c-1.02-1.25-1.54,1.21-1.63,0.42c-0.29-1.09,0.47-2.21,0.73-3.44c1.81,1.15,2.37-3.87,4.25-0.64
	C677.61,742.9,676.47,743.42,675.88,743.81z M682.95,741.97c-1.28-0.01-2.21-0.47-3.93-0.83c0.4-0.69,0.5-1.18,0.75-1.13
	c0.19-0.03,0.39-0.05,0.58-0.07l1.62-0.12c0.57-0.02,1.13-0.01,1.7-0.01C683.27,740.5,683,741.73,682.95,741.97z M702.11,742.25
	c-0.22-1.18-3-0.04-2.32-2.09c-0.59,0.39-1.19,0.77-1.79,1.16c-0.3,0.19-1.09,0.28-1.09,0.28c-0.91-1.73,1.34-0.23,0.95-0.82
	c-0.14-0.55-0.88-0.7-1.76-1.41c0.92,0,1.77-0.43,2.55-0.78l2.37-0.17c0.26,0.18,0.51,0.45,0.76,0.87c0.33,0.85,0.37,1.88,0.7,2.73
	C702.48,742.02,702.19,742.09,702.11,742.25z M707.54,740.01c-1.23-0.27-2.16-0.72-3.34-1.23c0.1-0.21,0.22-0.42,0.35-0.62
	l2.04-0.15c0.28,0.05,0.55,0.11,0.82,0.17c0.49,0.1,1.18,0.51,1.92,0.66C708.68,739.48,708.03,740.11,707.54,740.01z M723.62,744.2
	c-0.73-1.44-2.38,0.27-3.2-0.68c-0.49-0.11,1-1.07-0.08-2.07c1.62,0.85,3.05,1.41,4.42,2.22C724.46,743.86,723.91,744,723.62,744.2z
	 M729.41,742.34c-0.88-0.7-2.92,0.41-2.94-1.91c0.06-0.24-1.17-0.5-1.86-0.91c-0.35,0.44-1.25,1.02-1.05,1.32
	c0.14,0.55,0.28,1.09-0.51,1.18c-1.28-0.01-1.21-1.54-0.92-1.74c0.46-0.93,1.35-1.51,2.48-0.76c-0.19-0.29-0.44-0.35-0.63-0.64
	l0.29-0.2c1.52,1.35,4.01-0.69,5.36,1.4c0.2,0.3-0.26,1.23-0.36,1.72C729.27,741.8,729.46,742.1,729.41,742.34z M740.18,736.41
	c0.49-0.19,0.59-0.53,0.56-0.92l1.08-0.08c-0.24,0.85,0.59,1.18,4.14,0.43C742.35,737.13,741.1,738.15,740.18,736.41z
	 M753.45,736.92c-1.48-0.32-2.96-0.63-4.43-0.95c0.05-0.24,0.3-0.19,0.35-0.44c0.23-0.31,0.46-0.55,0.7-0.72l2.42-0.18
	c0.51,0.18,1.04,0.42,1.57,0.62L753.45,736.92z M755.08,740.09c0.06-0.24,0.16-0.73,0.41-0.68c1.72,0.36,3.19,0.68,4.67,0.99
	c-0.3,0.2-0.6,0.39-0.6,0.39C758.1,739.19,756.27,744.2,755.08,740.09z M759.96,744.99c-0.58-0.9-1.46-1.6-2.04-2.5
	c0,0,0.35-0.43,0.64-0.63c0.74,0.16,1.97,0.42,1.92,0.67C760.52,743.56,760.11,744.25,759.96,744.99z M803.46,732.64
	c-0.96-0.56-1.67-1.07-2.4-1.58l3.01-0.23c0.08,0.07,0.17,0.13,0.25,0.2C804.27,731.27,803.81,732.21,803.46,732.64z M819.38,739.02
	c-0.06-0.18-0.13-0.35-0.21-0.46c-0.23-0.05-0.4-0.32-0.38-0.55c0.09-0.01,0.18-0.01,0.24,0
	C819.75,738.36,819.7,738.7,819.38,739.02z M824.71,729.32c-0.9,0.19-1.91,0.37-2.92,0.54c-0.03,0.18-0.12-0.06-0.23-0.31
	L824.71,729.32z M823.17,734.27c-0.19-0.3-0.44-0.36-0.39-0.6c-0.28-1.09-2.72-2.89,0.44-3.25c0.79-0.09-1.84,1.41,0.12,1.83
	c0.55-0.15,1.34-0.23,1.43,0.56C824.66,733.3,823.82,733.63,823.17,734.27z M872.09,726.68c0.69,0.4,1.67,0.61,2.06,1.2
	c0.25,0.06-0.46,0.94-0.66,1.92c-0.88-0.7-1.52-1.35-2.15-2C871.34,727.8,872.04,726.92,872.09,726.68z M877.35,732.16
	c-1.77-0.12-3.84-0.04-5.62-0.16c0.16-0.74,0.51-1.18,0.72-2.16c1.91,0.66,3.58,1.27,5.25,1.89
	C877.41,731.92,877.41,731.92,877.35,732.16z M911.16,730.36c-0.68-0.4-1.37-0.81-2.06-1.21c0.55-0.14,1.09-0.28,1.44-0.72
	c0.06-0.25-0.33-0.84-0.61-1.93c1.26,1.29,1.68-0.67,1.91,0.66C911.93,727.95,911.42,729.13,911.16,730.36z M979.97,725.97
	c-0.93-0.45-2.06-1.21-2.99-1.66c0.55-0.15,0.84-0.34,1.14-0.53c1.23,0.26,2.22,0.47,3.2,0.68
	C980.67,725.09,980.22,726.02,979.97,725.97z M1008.36,715.81c-0.86,0.4-1.49,0.41-1.92,0.13l1.94-0.14
	C1008.38,715.81,1008.37,715.81,1008.36,715.81z M1028.03,716.4c0.74,0.15,1.67,0.61,2.11,0.96c-0.65,0.63-1.05,1.32-1.7,1.95
	c-0.58-0.89-1.02-1.24-1.36-2.09C1027.13,716.98,1027.83,716.1,1028.03,716.4z M1016.44,716.5l-0.64-0.65
	c-1.68,1.24-3.34,0.16-5.06-0.22l7.75-0.57c0.01,0.03,0.02,0.05,0.03,0.09C1018.72,715.44,1017.28,716.17,1016.44,716.5z
	 M1020.52,721.48l-1.9-1.94c0.35-0.44,0.95-0.83,1.49-0.97c0.05-0.25,0.44,0.35,0.63,0.65c1.27,1.3-1.03,0.03-0.5,1.18
	c0.24,0.05,0.68,0.4,0.93,0.45L1020.52,721.48z M1024.27,717.14c-1.33,0.23-2.86,0.16-4.14,0.15c0.1-0.5,0.4-0.69,0.45-0.94
	c2.07-0.07,3.65-0.25,5.23-0.42C1025.22,716.31,1024.81,717,1024.27,717.14z M1037.8,723.62c-0.05,0.24-0.35,0.44-0.64,0.63
	c-0.53-1.14-0.6,0.39-1.09,0.28c-2.46-0.52-4.68-0.99-7.14-1.51c1.06-1.32-0.63-0.65-0.77-1.2c-0.6,0.39-0.95,0.83-1.49,0.97
	c-0.55,0.14-1.04,0.04-1.58,0.18c0.61-1.67,1.65-1.71,3.07-1.15c2.53-1,4.53,0.45,6.64,1.42c0.25,0.05,0.49,0.1,0.74,0.15
	c0.24,0.06,0.79-0.09,1.09-0.28l-0.44-0.35l-0.69-0.4c0.74,0.15,1.48,0.31,2.22,0.47C1037.96,722.88,1037.8,723.62,1037.8,723.62z
	 M1047.05,717.61c-1.62-0.85-0.31,1.48-1.49,0.97c0.28,1.09,0.76,2.48,1.29,3.62c0,0-0.6,0.39-0.9,0.58
	c-0.19-0.3-0.63-0.65-0.53-1.14c-0.08-0.79,0.12-1.77,0.12-1.77c-1.72-0.37-1.12-0.76,0.02-1.29c-0.09-0.79,0.07-1.53-1.12-0.75
	c-0.06,0.25-0.5-0.11-0.74-0.16c-0.25-0.05-0.2-0.29-0.14-0.54c2.11,0.96,2.4-2.83,4.7-1.57c0.25,0.05,0.49,0.1,0.79-0.09
	c0.05-0.25,0.16-0.74,0.16-0.74c-0.2-0.3-0.44-0.35-0.69-0.4c-1.68,0.67-3.35,0.06-5.28,0.67c-1.99,0.87-1.14,4.13-4.04,3.26
	c-0.01,1.28,3.45,0.73,1.69,2.93c-0.35,0.44-1.24,1.02-2.03,1.11c-0.55,0.14-1.23-0.26-1.97-0.42c0.84-0.33,1.63-0.42,2.23-0.81
	c0.3-0.19,0.4-0.69,0.7-0.88c-0.6,0.39-1.39,0.48-2.18,0.57c-0.3,0.19-0.79,0.08-0.98-0.21c-0.58-0.9-0.43-1.64,0.91-1.87
	c-1.57-1.1,0.84-0.33,0.45-0.93c0,0,0.35-0.44,0.65-0.63l-0.24-0.05c-0.49-0.11-1.04,0.03-1.53-0.07c-0.74-0.16-1.18-0.51-1.92-0.67
	c-0.24-0.05-0.19-0.3-0.14-0.54c0.79-0.09,1.34-0.23,2.07-0.07c0.79-0.09,1.78,0.12,2.52,0.27c-0.44-0.35-0.88-0.7-1.02-1.24
	c-0.2-0.3-0.09-0.79,0.21-0.99c0.11-0.07,0.22-0.14,0.33-0.21l9.6-0.7c0.16,0.08,0.32,0.18,0.48,0.3c-0.04-0.13-0.06-0.23-0.07-0.33
	l6.16-0.46c0.23,0.53,0.15,1.35,0.71,1.47c-0.65,0.63-1,1.07-1.4,1.75c-0.06,0.25-0.5-0.1-0.74-0.15c-0.25-0.05-0.14-0.55-0.14-0.55
	c2.05-2.39,0.77-2.4-1.41-1.84c-0.3,0.19-0.79,0.09-1.04,0.04c-0.05,0.24,0.14,0.54,0.14,0.54c0.25,0.05,0.79-0.09,1.04-0.03
	c0.3-0.2,0.74,0.15,0.74,0.15c-0.11,0.49-0.26,1.23-0.37,1.72c0.05-0.24-0.14-0.54-0.39-0.59c-0.19-0.3-0.44-0.35-0.49-0.11
	c0.87,1.99-2.26-0.22-1.59,1.46c0.19,0.3,0.03,1.04,0.03,1.04C1049.18,717.3,1047.98,718.07,1047.05,717.61z M1051.92,722.51
	c-0.84,0.33-3.63-1.03-1.4,1.76c0,0-0.3,0.19-0.35,0.44c-0.44-0.35-0.88-0.7-1.32-1.06c-0.19-0.29-0.38-0.59-0.33-0.84
	c0.05-0.24,0.15-0.74,0.4-0.68c1.28,0.01,2.51,0.27,3.79,0.29L1051.92,722.51z M1052.85,719.36c0.11-0.49,0.12-1.77,0.37-1.72
	c1.77,0.12,0.7-0.88,0.8-1.37c2.5,0.77,0.14,1.88,0.3,2.96C1053.9,717.92,1053.38,719.23,1052.85,719.36z M1054.89,721.85
	c0.05-0.24,0.35-0.44,0.4-0.68c-0.38-0.6-0.52-1.14-0.91-1.74c0.54-0.14,1.28,0.02,2.07-0.07c0.55-0.14,1.04-0.04,1.53,0.06
	c-0.05,0.25-0.11,0.5,0.14,0.55C1056.93,720.74,1056.03,721.33,1054.89,721.85z M1065.62,719.77c-0.16,0.73-1.51,2.25-3.23,1.88
	c-0.98-0.21-1.03,0.04-1,1.07c-0.07,0.12-0.07,0.24-0.03,0.35c-0.32-0.38-1.04-0.64-1.09-1.1c-0.14-0.55-1.08-1-1.46-1.6
	c0.63,0.65,1.45-2,2.02,0.17c0.59-0.38,0.94-0.82,1.54-1.21c0.3-0.19,0.9-0.58,1.19-0.77
	C1063.69,720.38,1066.48,718.15,1065.62,719.77z M1070.35,720.51c-1.11,1.57-1.81,2.45-2.51,3.33l-0.3-3.41
	c2.28,2.54,1.2-2.06,2.52-1.01C1070.5,719.78,1070.54,720.81,1070.35,720.51z M1076.73,714.67c-2.02-0.17-0.58-0.89-0.48-1.38
	l-7.35,0.74c-0.5-0.1-0.6,0.39-0.9,0.59c0.25,0.05,0.49,0.1,0.69,0.4c0.77,1.19-2.23,0.81-1.02,2.35c0.25,0.06-0.1,0.49-0.35,0.44
	c-2.02-0.17-3.74-0.54-5.51-0.66c0.54-0.14,1.03-0.03,1.33-0.23c0,0,0.1-0.49-0.09-0.79c-0.04-1.03-2.06-1.21-1.44-2.87l-0.99-0.21
	c-0.05,0.24-0.15,0.73-0.21,0.98c0.2,0.3,0.14,0.54,0.34,0.84l-1.93,0.62c0.1-0.49,0.4-0.69,0.45-0.93
	c0.11-0.49,0.51-1.18,0.61-1.67l-1.63,0.42c0.25,0.05,0.74,0.16,0.69,0.41c-0.06,0.24-0.11,0.49-0.41,0.68
	c-0.89,0.58-1.95-1.7-2.61,0.22l-0.16-2.3l14.26-1.05c-0.03,0.05-0.05,0.11-0.06,0.16c-0.21,0.99,0.58,0.9,1.32,1.06
	c0.6-0.39,1.39-0.48,2.23-0.82c-0.61-0.12-1.19-0.34-1.72-0.53l8.67-0.64c0.28,0.32,0.45,0.69,0.85,0.78
	c0.69,0.4,1.42,0.56,2.16,0.71c-0.1,0.49-0.51,1.18-0.61,1.67c0.13,3.47-1.34,0.84-2.26,0.54c-0.03,0-0.05-0.01-0.08-0.01
	c-0.15-0.02-0.28,0.02-0.38,0.18c0.18,1.58-1.23-0.26-1.44,0.72C1078.26,714.74,1077.57,714.34,1076.73,714.67z M1093.99,719.37
	c-0.85,0.34-1.44,0.72-2.23,0.81c-0.55,0.14-0.79,0.09-1.29-0.01l0.06-0.25c0.24,0.05,0.79-0.09,1.03-0.03
	c1.67,0.61,0.46-0.94,1-1.08c-2.67,0.46-4.9,1.27-5.96,3.87c-0.06,0.25-1.17-1.78-2.46-0.52c-0.06,0.25-1.37-0.81-2.31-1.26
	c-0.68-0.4-1.42-0.56-2.16-0.72c-1.72-0.36-0.58-0.89-0.18-1.58c0.35-0.44,1.74-0.91,0.37-1.72c0,0,0.05-0.24,0.11-0.49
	c0.29-0.19,0.29-0.19,0.59-0.39c-0.22,2.27,2.71,0.58,2.89,2.16c0.19,0.3,0.58,0.89,0.58,0.89c0.59-0.39,1.14-0.53,1.73-0.91
	c0.06-0.25,0.3-0.2,0.35-0.44c2.1,2.24,4.87-2.31,6.75,0.92c0.49,0.1,0.61-1.67,1.34-0.23c0.14,0.54,0.23,1.33,0.31,2.12
	C1094.32,720.21,1093.99,719.37,1093.99,719.37z M1094.13,711.43c-1.88,0.37-0.18-1.58-0.97-1.49c-0.44,0.02-0.74-0.13-0.91-0.31
	l2.48-0.18C1094.31,710.11,1094.82,711.16,1094.13,711.43z M1106.14,717.84c-0.41,0.69,1.16,1.79-0.47,2.22
	c1.4-1.76-1.52-1.35-1.25-2.58c-1.04,0.03-1.83,0.12-2.87,0.16c-0.98-0.21-1.96-0.42-2.95-0.63c0.76-1.12,1.58-0.18,2.62-0.21
	c0.24,0.05,0.89-0.58,0.95-0.83c-0.53-1.14-1.01-2.53-1.84-3.48c-1.02-1.24-2.93-1.9-4.3-2.71l-0.2-0.3
	c0.01-0.03,0.02-0.07,0.03-0.11l2.73-0.21c1.65,0.42,3.01,1.31,3.22,3.65c0,0,0.49,0.1,0.74,0.16c-0.81-2.23,2.81,0.08,2.19-1.85
	c-1.44,0.72-3.06-0.14-3.2-0.68c-0.32-2.13,1.58-0.18,1.39-0.48c-0.12-0.47-0.14-0.82-0.09-1.11l3.63-0.26
	c-0.04,0.65-0.07,1.35-0.1,2.1c0,0-0.73-0.15-0.98-0.21c-0.25-0.05-0.69-0.4-0.93-0.45l0.53,1.14c0.49,0.11,1.72,0.37,1.67,0.61
	c-0.02,1.29-1.15,0.53-1.69,0.67c-3.51,0.8-1.17,3.1-1.49,4.57c1.2-0.77,1.13,0.76,1.87,0.91c0,0,0.45-0.93,0.7-0.88
	C1107.33,717.07,1106.49,717.4,1106.14,717.84z M1113.3,708.08c0.01,0.37-0.02,0.7-0.15,0.97c-0.7,0.88-0.63-0.65-1.13-0.75
	c0.01-0.06-0.01-0.1-0.05-0.12L1113.3,708.08z M1110.71,708.27l0.82-0.06l-0.1,0.47c0.14,0.55,1.02,1.25,1.02,1.25
	c0.6-0.39,1.19-0.77,1.84-1.41c0.18-0.12,0.29-0.34,0.41-0.54l1.21-0.09c-0.31,0.18-0.78,0.31-0.83,0.54
	c-0.05,0.25-0.16,0.74-0.21,0.99c-0.05,0.24,0.44,0.35,0.44,0.35c0.6-0.39,0.95-0.83,2.19-1.85c-0.1,0.03-0.16,0.04-0.17,0.04
	c0.03-0.02,0.09-0.04,0.17-0.04c0.16-0.03,0.4-0.03,0.5,0.11c0.44,0.35,0.52,1.14,1.61,0.85c1.58-0.17,3.06,0.14,4.59,0.21
	l0.98,0.21c-0.05,0.24-0.1,0.49-0.4,0.68c-0.35,0.44-1.3,1.27-1.54,1.22c-2.36-1.02-4.55,0.83-6.68,1.15
	c-1.33,0.23-2.96,0.65-4.35,1.13C1112.23,711.73,1111.01,710.19,1110.71,708.27z M1120.25,721.62c-0.79,0.09-1.78-0.13-2.51-0.28
	c0.54-0.14,1.33-0.23,1.38-0.48c0.46-0.93,3.01,0.38,2.44-1.79c0.05-0.25-0.68-0.41-0.68-0.41c-1.55,1.22-2.67,0.46-3.45-0.73
	c-1.4,1.76-2.82,1.2-4.44,0.34c-0.2-0.3-0.2-0.3-0.14-0.54c2.51,0.28,0.52-2.46,2.15-2.89c0.14,0.55,0.04,1.04,0.23,1.34
	c0.64,0.65,1.37,0.8,2.06,1.21c0.95-0.83-1.71-1.65-0.07-2.07c0.84-0.34,2,1.45,3.23,1.71c1.97,0.42,1.66,1.9,1.89,3.23
	C1122.53,720.56,1120.9,720.98,1120.25,721.62z M1128.67,718.27c-1.88,0.37,1.02,1.24,0.13,1.82c-0.55,0.14-1.04,0.04-1.58,0.18
	c0.3-0.19,0.7-0.88,0.7-0.88c-0.78-1.19-1.6-2.14-3.43-2.01c-0.54,0.14-1.33,0.23-2.12,0.32l0.56-1.43
	c0.93,0.46,1.21-2.05,2.96-0.65c0.88,0.7,3.1,1.17,4.64-0.04l0.49,0.1c0.2,0.3,0.39,0.6,0.58,0.9
	C1131.59,717.86,1129.66,718.47,1128.67,718.27z M1144.71,709.34c-2.79-1.37-5.46-0.91-8.04,0.34c-0.84,0.34-0.7,0.88-4.15,0.15
	l-0.24-0.05c0.6-0.39,1.24-1.02,2.44-1.8c0.36-1.72,1.93-0.62,3.51-0.79c0.59-0.07-1.13-0.19-1.23-0.85l6.67-0.49
	c-0.2,0.08-0.39,0.18-0.59,0.31c-0.3,0.19-0.16,0.74,0.03,1.04l2.67-0.46l0.55-0.15c-0.3,0.2-0.36,0.44-0.36,0.44
	C1143.85,707.35,1145.59,710.04,1144.71,709.34z M1147.77,709.47l-2.5-1.56c0.9-0.58,1.79-1.16,2.69-1.74
	c-0.05,0.25,0.19,0.3,0.14,0.55C1147.94,707.45,1147.98,708.49,1147.77,709.47z M1158.11,706.79c-1.14,0.53-2.24,2.09-3.7,0.49
	c0.05-0.24,0.4-0.68,0.64-0.63c0.5,0.11,1.43,0.56,1.48,0.32c0.65-0.64,0.77-2.41,2.77-0.96
	C1158.71,706.4,1158.36,706.84,1158.11,706.79z M1181.79,706.68c-1.48-0.31-3.16,3.96-4.59-0.2c-0.24-0.05-1.47-0.32-1.77-0.12
	c-1.79,1.16-3.25-0.44-4.78-0.5c-0.25-0.06-0.53-1.14-0.92-1.74c0.44,0.35,0.64,0.65,1.13,0.75c0.74,0.16,2.58,2.35,1.74-0.91
	c-0.04-0.06-0.03-0.14-0.02-0.24l3.59-0.26c0.19,0.1,0.37,0.31,0.57,0.35c0,0,0.04-0.19,0.09-0.4l1.78-0.13l-2.52,1.16
	c0.25,0.05,0.44,0.35,0.69,0.41c1.03-0.04,1.77,0.12,1.76,1.4c0.3-0.2,0.35-0.44,0.59-0.39c0.74,0.16,1.22,1.55,1.83-0.13
	c0.05-0.24-0.14-0.54-0.09-0.78c0.19,0.29,0.63,0.64,0.83,0.94C1181.89,706.19,1181.84,706.44,1181.79,706.68z M1180.63,704.89
	l-1.13-0.75c0.05-0.25,0.1-0.49,0.1-0.49c0.03-0.14-0.01-0.29-0.05-0.44l1.14-0.09l1.48,0.56L1180.63,704.89z M1185.84,706.26
	c-0.1-0.02-0.1-0.02-0.1-0.02c-1.69,0.67-2.67,0.46-3.15-0.93c-0.38-0.59,0.12-1.77,0.42-1.97c0.35-0.22,0.72-0.36,1.09-0.47
	l1.76-0.13c0.11,0.89-0.3,1.46-1.04,1.76c-2.82,1.2,0.14,0.54,0.34,0.84c-0.06,0.25,0.44,0.35,0.63,0.65c0,0,0.05-0.25,0.3-0.19
	C1185.83,706.12,1185.76,706.21,1185.84,706.26z M1200.86,707.66l-0.72-1.44l1.04-0.04c-0.2-0.3-0.14-0.54-0.34-0.84
	c-0.19-0.3-0.63-0.65-0.88-0.7c-1.33,0.23-2.67,0.46-4,0.69l-0.19-0.3c0.47-1.12,0.91-2.02,1.39-3.12l0.37-0.02
	c1.52,0.78,3.1,1.38,4.86,2.23C1201.77,705.79,1201.32,706.72,1200.86,707.66z M1208.69,704.69l0.44,0.35l-2.24,2.1
	c-1.02-1.25-1.55,1.21-1.64,0.42c-0.28-1.09,0.47-2.21,0.74-3.44c1.81,1.15,2.36-3.87,4.25-0.64
	C1210.48,703.53,1209.29,704.3,1208.69,704.69z M1215.77,702.85c-1.28-0.01-2.22-0.47-3.94-0.83c0.41-0.69,0.51-1.18,0.76-1.13
	c1.33-0.23,2.61-0.21,3.89-0.2C1216.08,701.38,1215.82,702.61,1215.77,702.85z M1234.93,703.13c-0.23-1.18-3-0.04-2.32-2.09
	c-0.6,0.39-1.19,0.77-1.79,1.16c-0.3,0.19-1.09,0.28-1.09,0.28c-0.92-1.73,1.34-0.23,0.95-0.82c-0.14-0.55-0.88-0.7-1.76-1.41
	c1.01-0.01,1.93-0.52,2.77-0.88l2.05-0.15c0.29,0.18,0.58,0.48,0.85,0.95c0.34,0.85,0.37,1.88,0.71,2.73
	C1235.3,702.9,1235.01,702.97,1234.93,703.13z M1240.41,700.64c-1.23-0.26-2.16-0.72-3.34-1.22c0.08-0.16,0.17-0.31,0.25-0.46
	l2.7-0.2c0.09,0.02,0.17,0.04,0.26,0.05c0.49,0.11,1.18,0.51,1.92,0.67C1241.55,700.11,1240.9,700.74,1240.41,700.64z
	 M1256.48,704.83c-0.72-1.44-2.37,0.27-3.19-0.68c-0.5-0.1,1-1.07-0.08-2.07l4.42,2.22L1256.48,704.83z M1262.27,702.97
	c-0.88-0.68-2.91,0.41-2.93-1.9c0.05-0.25-1.18-0.51-1.86-0.91c-0.35,0.44-1.25,1.02-1.05,1.32c0.14,0.54,0.28,1.09-0.51,1.18
	c-1.28-0.02-1.22-1.55-0.92-1.74c0.46-0.93,1.35-1.51,2.48-0.76c-0.2-0.3-0.44-0.35-0.64-0.65l0.3-0.19
	c1.52,1.35,4.01-0.7,5.36,1.39c0.2,0.3-0.26,1.23-0.36,1.72C1262.09,702.65,1262.24,702.92,1262.27,702.97z M1273,697.29
	c0.52-0.21,0.61-0.58,0.56-1l1.1-0.08c-0.32,0.91,0.45,1.29,4.12,0.51C1275.16,698.01,1273.92,699.03,1273,697.29z M1286.26,697.8
	c-1.47-0.32-2.95-0.63-4.43-0.95l0.36-0.43c0.27-0.38,0.54-0.64,0.82-0.82l2.09-0.16c0.58,0.18,1.17,0.47,1.77,0.69
	C1286.87,696.13,1286.31,697.55,1286.26,697.8z M1287.9,700.97c0.05-0.24,0.16-0.73,0.4-0.68c1.73,0.36,3.2,0.68,4.68,0.99
	c-0.3,0.2-0.6,0.39-0.6,0.39C1290.97,699.83,1289.14,704.84,1287.9,700.97z M1292.77,705.87c-0.58-0.9-1.46-1.6-2.04-2.49
	c0,0,0.35-0.44,0.65-0.64c0.74,0.16,1.97,0.42,1.92,0.67C1293.39,704.2,1292.93,705.13,1292.77,705.87z M1336.28,693.53
	c-1-0.59-1.74-1.13-2.51-1.67l3.02-0.22c0.12,0.09,0.24,0.18,0.35,0.27C1337.14,691.91,1336.63,693.09,1336.28,693.53z
	 M1352.16,699.93l-0.17-0.49c-0.23-0.05-0.41-0.32-0.39-0.55c0.1-0.01,0.19-0.01,0.25,0
	C1352.59,699.25,1352.52,699.6,1352.16,699.93z M1356.04,694.9c-0.19-0.3-0.44-0.35-0.39-0.6c-0.28-1.08-2.72-2.89,0.44-3.25
	c0.79-0.08-1.85,1.41,0.12,1.83c0.49,0.1,1.28,0.02,1.43,0.56C1357.53,693.93,1356.69,694.27,1356.04,694.9z M1354.61,690.74
	c-0.04,0.2-0.14-0.11-0.28-0.39l3.69-0.27C1357,690.32,1355.82,690.53,1354.61,690.74z M1404.91,687.56
	c0.69,0.4,1.67,0.61,2.06,1.21c0.24,0.05-0.46,0.93-0.67,1.91c-0.88-0.7-1.51-1.35-2.14-2L1404.91,687.56z M1410.17,693.04
	l-5.62-0.16c0.16-0.74,0.51-1.18,0.72-2.16c1.91,0.66,3.58,1.27,5.25,1.89C1410.27,692.55,1410.22,692.8,1410.17,693.04z
	 M1444.03,690.99l-2.06-1.21c0.55-0.14,1.09-0.28,1.44-0.72c0.05-0.24-0.33-0.84-0.62-1.93c1.27,1.3,1.69-0.67,1.92,0.66
	C1444.75,688.83,1444.24,690.01,1444.03,690.99z M1512.79,686.85c-0.93-0.45-2.06-1.21-2.99-1.66c0.54-0.15,0.84-0.34,1.14-0.53
	c1.23,0.26,2.21,0.47,3.2,0.68C1513.54,685.72,1513.03,686.9,1512.79,686.85z"/>
<path fill="#FBFBCC" d="M80.07,784.1c0,0.03-0.01,0.06-0.01,0.09c-0.11-0.03-0.21-0.05-0.3-0.07L80.07,784.1z"/>
<path fill="#FBFBCC" d="M653.03,745.38v-0.01c0.03,0.02,0.08,0.03,0.14,0.04C653.11,745.4,653.06,745.39,653.03,745.38z"/>
</svg>
