<svg width="94" height="135" viewBox="0 0 94 135" fill="none" xmlns="http://www.w3.org/2000/svg">
<g clip-path="url(#clip0)">
<path d="M72.5847 76.1747C72.8833 75.7356 38.6183 43.407 38.1673 43.687C37.7164 43.9669 -15.0638 94.6081 -15.0764 94.9906C-15.0889 95.3731 20.184 127.83 20.5449 127.606C20.9054 127.382 71.9969 77.0398 72.5847 76.1747Z" fill="#D59512"/>
<path d="M46.6042 66.8533C47.6316 67.7275 48.6866 68.5325 49.8594 69.2071C51.7892 70.3181 53.763 70.5408 55.0007 72.6653C55.5074 73.5357 55.5894 74.4212 56.288 75.2216C57.6547 76.7886 60.0109 77.2197 60.3601 79.6612C60.4752 80.4653 61.7497 80.4381 61.634 79.627C61.4586 78.3998 61.1115 77.6305 60.2261 76.7136C59.5505 76.0141 58.6125 75.6395 57.9104 74.9835C56.3444 73.522 56.7403 72.9278 55.884 71.4459C55.257 70.3605 54.569 69.967 53.4413 69.4676C51.2199 68.4848 49.3537 67.5199 47.47 65.9176C46.8473 65.3883 45.9775 66.32 46.6042 66.8533Z" fill="#471F1E"/>
<path d="M36.214 70.6967C39.0724 73.401 41.2218 76.7127 44.0101 79.4378C44.9477 80.3538 45.9907 80.9257 47.1711 81.4805C49.485 82.5686 50.7171 84.1538 51.9967 86.3293C52.4123 87.0363 53.4946 86.3643 53.0791 85.6572C52.3102 84.3504 51.5331 83.0268 50.4129 81.9844C49.2284 80.8822 47.7344 80.5287 46.386 79.7094C44.5685 78.6057 43.4039 76.6947 42.0827 75.0841C40.5328 73.1938 38.8539 71.4394 37.0795 69.7604C36.484 69.1981 35.6169 70.1317 36.214 70.6967Z" fill="#471F1E"/>
<path d="M26.0516 80.7594C28.5428 83.3177 30.992 85.9277 33.5332 88.4367C36.1289 90.9991 39.7422 91.6844 41.4062 95.1369C41.7616 95.8746 42.8412 95.197 42.4886 94.4648C41.8709 93.183 41.2259 91.8961 40.0619 91.0231C38.4946 89.8477 36.6806 89.5763 35.1388 88.22C32.2221 85.6531 29.6276 82.6082 26.916 79.8238C26.3445 79.2363 25.4795 80.1723 26.0516 80.7594Z" fill="#471F1E"/>
<path d="M-1.87205 93.5419C-0.397595 93.6868 2.43877 93.624 3.78815 94.3965C5.57238 95.4182 4.44124 95.8405 4.281 97.015C4.09756 98.3565 6.29391 100.303 7.09015 101.17C9.06033 103.315 11.4844 104.876 13.8047 106.604C16.1756 108.369 19.4785 108.704 20.9787 111.441C21.3727 112.161 22.4538 111.487 22.061 110.769C20.5487 108.009 18.5652 107.973 16.0117 106.628C14.6457 105.909 13.4153 104.671 12.137 103.774C10.1165 102.356 7.7715 100.639 6.46671 98.4731C5.45803 96.799 6.26853 97.3744 6.51089 95.8952C6.64875 95.0542 6.52232 94.618 5.93544 93.9704C4.40866 92.285 0.208301 92.4753 -1.90568 92.2677C-2.72167 92.1877 -2.67788 93.4629 -1.87205 93.5419Z" fill="#471F1E"/>
<path d="M63.2029 32.8905C62.957 32.2937 24.6242 12.4177 24.2637 12.6415C23.9033 12.8653 -17.767 72.544 -17.6675 73.107C-17.568 73.67 22.5118 94.145 22.8722 93.9212C23.2331 93.697 63.2029 32.8905 63.2029 32.8905Z" fill="#FFF6E4"/>
<path d="M25.0147 25.099C26.6831 25.0069 29.6824 24.733 30.7987 26.2853C31.4436 27.1821 31.0661 28.8076 31.6844 29.6711C32.8457 31.2922 35.9185 31.2535 37.5894 32.0171C42.4831 34.2533 45.1648 38.7341 50.9214 38.9042C51.7431 38.9285 51.704 37.6549 50.8872 37.6303C46.7512 37.5086 44.4533 34.9923 41.3309 32.7401C39.9125 31.7171 38.3822 30.8905 36.7374 30.2919C35.826 29.9602 33.8204 29.8327 33.2332 29.1597C32.7229 28.5753 33.0221 27.7816 32.751 26.9848C32.4972 26.2382 31.9306 25.5773 31.3395 25.0871C29.564 23.6141 27.1539 23.7055 24.9809 23.8257C24.1619 23.8708 24.1949 25.1439 25.0147 25.099Z" fill="#471F1E"/>
<path d="M18.7336 36.5996C20.2957 37.4631 21.8687 38.3218 23.6169 38.7375C26.0113 39.307 28.0735 39.4712 30.2281 40.8049C33.6928 42.9493 36.6933 45.8082 40.1387 48.0219C40.8281 48.465 41.421 47.3364 40.7342 46.8953C37.288 44.6814 34.2952 41.8208 30.8236 39.6783C29.4533 38.833 28.0147 38.2251 26.4372 37.8942C23.8174 37.3443 21.7282 36.7987 19.33 35.4733C18.6113 35.0762 18.0145 36.2021 18.7336 36.5996Z" fill="#D59512"/>
<path d="M17.3842 50.7199C20.3148 52.2214 22.7267 54.1961 25.4399 56.0137C27.8285 57.6143 30.5522 57.0004 32.4307 59.6208C32.906 60.2834 33.9916 59.6167 33.5131 58.9487C32.8606 58.0383 32.1878 57.2512 31.1879 56.698C29.836 55.9498 28.2735 56.1544 26.9135 55.4852C25.5986 54.8379 24.4508 53.581 23.2444 52.7329C21.5629 51.5506 19.8082 50.5304 17.9797 49.5933C17.2508 49.2202 16.652 50.3451 17.3842 50.7199Z" fill="#D59512"/>
<path d="M1.14068 71.5809C5.67752 72.3022 8.92902 76.9602 13.4608 77.8423C14.2648 77.9986 14.5575 76.7587 13.751 76.6017C9.22205 75.7208 6.00375 71.0679 1.43081 70.3404C0.624668 70.2125 0.329392 71.4518 1.14068 71.5809Z" fill="#471F1E"/>
</g>
<defs>
<clipPath id="clip0">
<rect width="99.2637" height="95.707" fill="white" transform="translate(93.7793 82.1338) rotate(148.164)"/>
</clipPath>
</defs>
</svg>
