<svg width="187" height="309" viewBox="0 0 187 309" fill="none" xmlns="http://www.w3.org/2000/svg">
<g clip-path="url(#clip0)">
<path d="M1.00339 294.403C1.91353 296.424 122.612 309.479 125.481 308.617C128.351 307.755 189.254 132.213 186.923 130.025C184.591 127.839 62.0674 113.606 60.3457 114.112C58.6248 114.618 -0.0911247 291.972 1.00339 294.403Z" fill="#F0CB98"/>
<path d="M166.638 151.358C163.847 151.726 161.952 150.702 159.363 150.089C156.589 149.432 154.09 149.632 151.37 148.471C147.431 146.79 144.381 146.788 140.189 147.683C139.106 147.914 139.564 149.577 140.647 149.346C144.299 148.566 146.984 148.449 150.501 149.96C151.905 150.563 153.157 151.117 154.688 151.343C156.894 151.667 158.949 151.809 161.096 152.495C163.092 153.134 164.546 153.359 166.638 153.082C167.721 152.939 167.735 151.213 166.638 151.358Z" fill="#471F1E"/>
<path d="M139.219 200.551C137.36 200.411 135.713 199.252 133.897 198.887C132.911 198.689 131.931 198.762 130.946 198.647C127.495 198.244 124.48 196.699 121.048 196.241C118.507 195.902 116.346 195.576 113.936 194.61C112.855 194.177 112.475 193.884 111.318 193.641C108.509 193.049 105.434 193.674 102.638 194.095C101.546 194.26 102.01 195.922 103.096 195.758C105.235 195.436 107.809 194.928 110.015 195.198C111.578 195.39 112.961 196.259 114.409 196.753C117.59 197.838 120.97 197.661 124.137 198.745C126.652 199.605 128.309 200.078 130.946 200.373C133.819 200.693 136.392 202.064 139.219 202.277C140.324 202.358 140.319 200.633 139.219 200.551Z" fill="#FFF6E4"/>
<path d="M132.8 223.846C129.577 223.026 126.778 220.976 123.468 220.47C120.54 220.023 117.55 219.362 114.622 219.024C111.805 218.699 109.816 219.605 107.1 217.661C106.476 217.214 106.082 216.465 105.427 216.014C102.81 214.211 98.9689 214.862 96.0667 215.244C94.984 215.387 94.9696 217.114 96.0667 216.969C99.1642 216.56 102.358 216.062 105.166 218.089C105.787 218.538 106.18 219.3 106.843 219.731C108.894 221.067 111.047 220.566 113.354 220.682C116.245 220.828 119.222 221.751 122.125 222.076C125.793 222.486 128.811 224.611 132.342 225.508C133.417 225.782 133.875 224.119 132.8 223.846Z" fill="#D59512"/>
<path d="M126.276 242.866C119.356 240.704 112.225 240.554 105.428 238.235C101.665 236.952 98.0082 236.68 94.3853 234.848C91.9083 233.595 89.8372 232.589 87.0268 232.177C80.4757 231.216 74.2731 230.646 68.0125 228.277C61.3115 225.741 56.2649 225.733 49.2945 227.364C48.216 227.616 48.6723 229.279 49.7525 229.027C54.022 228.028 58.3689 227.046 62.7234 228.172C65.7965 228.967 68.6709 230.466 71.7204 231.374C77.4632 233.084 83.5614 232.738 89.2352 234.37C92.2788 235.246 94.7053 237.383 97.7581 238.243C100.585 239.04 103.382 239.342 106.159 240.364C108.547 241.243 110.857 241.708 113.39 241.937C117.754 242.332 121.642 243.223 125.818 244.529C126.879 244.86 127.332 243.196 126.276 242.866Z" fill="#FFF6E4"/>
<path d="M85.2166 261.475C80.948 260.832 78.3456 258.852 74.8044 256.671C71.8669 254.861 68.3956 255.452 65.0724 254.966C56.7785 253.753 47.9912 252.786 40.1932 249.622C39.1669 249.206 38.7206 250.873 39.736 251.285C47.4187 254.403 55.7926 255.206 63.908 256.542C65.6222 256.824 67.3415 257.003 69.0767 257.086C71.5191 257.202 73.4825 258.134 75.5487 259.441C78.535 261.33 81.2183 262.604 84.7595 263.138C85.8422 263.302 86.3103 261.64 85.2166 261.475Z" fill="#7882BE"/>
<path d="M115.816 266.207C114.843 266.008 113.543 266.083 112.652 265.664C112.094 265.401 111.817 265.035 111.153 264.891C109.252 264.479 106.953 263.977 105 264.251C103.907 264.405 104.372 266.066 105.458 265.914C106.714 265.738 107.78 266.207 108.976 266.407C109.845 266.553 110.621 266.458 111.435 266.884C112.773 267.585 113.822 267.556 115.359 267.871C116.44 268.091 116.903 266.429 115.816 266.207Z" fill="#471F1E"/>
<path d="M107.646 285.087C103.481 284.603 99.24 284.287 95.1035 283.598C92.1113 283.1 89.4625 281.894 86.6286 280.901C80.2374 278.663 73.3319 279.426 66.9373 277.128C60.7659 274.911 54.3167 274.645 48.0653 272.752C42.4673 271.058 37.488 270.185 31.6618 271.283C30.5741 271.488 31.0346 273.15 32.119 272.946C39.539 271.548 45.4317 274.318 52.5023 275.716C55.8827 276.385 59.3616 276.503 62.6881 277.451C65.3537 278.211 67.8374 279.447 70.5585 280.037C73.2333 280.617 75.9764 280.734 78.6899 281.02C82.4147 281.413 85.5458 282.401 89.0382 283.692C94.9587 285.88 101.422 286.09 107.647 286.814C108.745 286.939 108.735 285.214 107.646 285.087Z" fill="#471F1E"/>
<path d="M16.8749 18.9842C15.3788 19.3974 20.3184 51.5331 25.0526 109.517C29.7868 167.501 31.9388 191.428 32.4768 191.428C33.0148 191.428 68.4158 189.744 96.0701 185.089C123.724 180.435 148.042 178.711 148.365 177.74C148.688 176.77 143.308 117.169 140.94 91.8421C138.573 66.5143 133.839 0.9864 132.117 0.662572C130.396 0.338744 19.9951 18.1215 16.8749 18.9842Z" fill="#FFF6E4"/>
<path d="M105.443 23.0085C105.223 23.1425 105.047 23.3559 105.01 23.6704C104.735 25.9743 103.015 28.6611 101.794 30.5931C101.2 31.5334 102.689 32.3995 103.281 31.4634C103.817 30.6167 104.387 29.695 104.909 28.7319C104.736 31.4406 104.544 34.1485 104.344 36.8563C104.263 37.9636 105.985 37.9585 106.066 36.8563C106.393 32.4281 106.736 28.0025 106.923 23.5659C106.959 22.6981 105.923 22.5202 105.443 23.0085Z" fill="#471F1E"/>
<path d="M111.502 53.5031C107.833 55.3938 104.191 53.5386 100.395 54.0909C97.8733 54.4578 96.293 55.9605 94.0543 56.9472C90.721 58.4162 87.1799 57.2988 83.7262 58.3117C81.3595 59.0057 79.5763 59.8262 77.0278 59.9443C75.3607 60.0219 73.6962 59.8414 72.0292 59.9755C69.5438 60.1745 67.2579 60.9579 65.0074 62.0045C63.5282 62.6926 62.1154 63.5056 60.6563 64.2316C57.3635 65.8693 56.2286 66.1754 52.3439 65.0724C46.926 63.5342 42.8156 66.3551 37.9594 68.7416C36.965 69.2299 37.8364 70.7183 38.8282 70.2309C43.0783 68.142 47.0127 65.3785 51.9364 66.7936C53.9696 67.378 55.1222 68.2567 57.3963 67.5888C60.1739 66.7725 62.6559 65.0294 65.2491 63.7889C69.495 61.7574 73.1936 61.9277 77.7375 61.6317C80.9251 61.4243 83.6774 59.7537 86.8178 59.472C89.4809 59.2334 91.8156 59.8524 94.338 58.7122C96.0564 57.9364 97.5214 56.6023 99.3517 56.0558C101.236 55.4933 103.16 55.7877 105.062 55.9588C107.758 56.2009 109.951 56.2397 112.372 54.9924C113.356 54.4847 112.486 52.9963 111.502 53.5031Z" fill="#D59512"/>
<path d="M66.4549 83.8729C64.1859 83.4521 61.8242 82.9908 59.5106 83.3265C57.6415 83.5972 56.4527 84.6007 54.7899 85.2484C51.769 86.4248 48.2337 85.116 45.0646 85.6084C42.9118 85.9432 40.9863 86.687 39.0498 87.6602C38.0597 88.1577 38.9303 89.6462 39.9187 89.1495C42.7114 87.7454 45.6153 86.9931 48.7607 87.1669C50.2762 87.2504 51.8363 87.6737 53.356 87.4696C54.5996 87.3026 55.4356 86.7655 56.5394 86.2173C59.743 84.6268 62.5946 84.9051 65.9969 85.5359C67.0796 85.7358 67.5444 84.0745 66.4549 83.8729Z" fill="#471F1E"/>
<path d="M116.614 74.3085C111.576 74.7411 105.924 74.5286 101.113 76.254C98.0074 77.368 95.4715 78.3766 92.1576 78.8016C89.6149 79.128 87.255 79.4071 84.8218 80.2791C83.7862 80.6501 84.2324 82.3165 85.279 81.9421C89.9509 80.2681 94.9486 80.597 99.5961 78.762C105.059 76.6056 110.803 76.5314 116.614 76.033C117.71 75.9386 117.72 74.2132 116.614 74.3085Z" fill="#7882BE"/>
<path d="M125.009 109.139C122.12 108.238 119.856 109.11 117.016 109.786C113.066 110.725 109.106 110.219 105.139 110.874C101.862 111.414 98.8845 112.898 95.7096 113.79C91.9158 114.856 87.9814 114.734 84.1371 115.462C77.2442 116.768 71.4272 121.913 64.3162 122.179C60.4214 122.325 56.5788 121.125 52.6546 121.227C48.8785 121.326 45.2337 122.112 41.6749 123.354C40.6351 123.716 41.0821 125.384 42.1329 125.017C46.3064 123.56 50.5758 122.779 55.0111 122.984C58.5591 123.146 62.0556 124.182 65.6238 123.811C71.498 123.199 76.34 119.439 81.8841 117.778C85.1635 116.795 88.5455 116.769 91.9065 116.305C95.2937 115.838 98.2943 114.659 101.516 113.611C105.353 112.363 109.016 112.453 112.968 112.188C116.798 111.93 120.778 109.623 124.553 110.801C125.612 111.133 126.066 109.469 125.009 109.139Z" fill="#9B2E08"/>
<path d="M126.044 131.728C117.209 133.68 108.2 132.108 99.4799 134.957C95.3738 136.299 91.3881 138.044 87.1354 138.899C82.6589 139.799 78.168 139.83 73.8379 141.417C72.8057 141.795 73.2519 143.462 74.2959 143.08C78.3692 141.586 82.6235 141.453 86.85 140.692C91.3788 139.877 95.5851 138.042 99.9379 136.62C108.636 133.777 117.681 135.339 126.502 133.391C127.583 133.152 127.126 131.489 126.044 131.728Z" fill="#471F1E"/>
<path d="M86.8043 158.671C83.6437 159.015 80.4738 159.353 77.3485 159.948C73.8326 160.618 70.7679 162.069 67.3657 163.009C63.4717 164.084 59.6678 162.449 55.7368 163.031C53.1782 163.411 50.9883 164.426 48.8675 165.858C47.954 166.475 48.8144 167.97 49.7363 167.347C52.9795 165.157 56.2344 164.372 60.0997 164.726C62.7619 164.97 65.1968 165.412 67.8228 164.672C70.6989 163.86 73.3434 162.575 76.2902 161.921C79.7506 161.151 83.2859 160.779 86.8052 160.396C87.8938 160.277 87.9064 158.552 86.8043 158.671Z" fill="#471F1E"/>
<path d="M156.176 85.5118C154.921 87.9987 153.574 90.4333 152.094 92.7928C150.905 94.6894 149.41 96.4629 148.604 98.5644C148.205 99.6008 149.869 100.049 150.264 99.0231C151.111 96.8179 152.842 94.8808 154.07 92.8746C155.363 90.763 156.548 88.5923 157.663 86.382C158.161 85.3937 156.676 84.5192 156.176 85.5118Z" fill="#471F1E"/>
<path d="M168.769 92.1567C163.347 97.7621 157.649 103.068 151.673 108.077C150.823 108.79 152.046 110.003 152.891 109.296C158.867 104.288 164.564 98.9815 169.986 93.3761C170.757 92.5783 169.541 91.3572 168.769 92.1567Z" fill="#471F1E"/>
<path d="M172.344 110.004C167.061 112.022 161.686 113.707 156.198 115.067C155.123 115.333 155.578 116.996 156.655 116.73C162.143 115.37 167.519 113.684 172.802 111.667C173.827 111.276 173.382 109.608 172.344 110.004Z" fill="#471F1E"/>
</g>
<defs>
<clipPath id="clip0">
<rect width="186" height="308" fill="white" transform="translate(0.988281 0.657715)"/>
</clipPath>
</defs>
</svg>
