<svg width="663" height="609" viewBox="0 0 663 609" fill="none" xmlns="http://www.w3.org/2000/svg">
<g clip-path="url(#clip0_868_1072)">
<path d="M248.908 66.3713C237.503 77.3664 226.099 88.3617 214.695 99.3569C215.15 97.4003 215.499 95.4026 215.887 93.5473C216.819 89.0899 217.136 84.5273 217.304 79.9864C217.678 69.8126 217.55 59.6055 217.266 49.4319C217.239 48.4452 215.905 48.0522 215.388 48.9248C210.769 56.69 208.994 66.7938 207.614 75.6202C206.1 85.3115 207.092 95.0204 210.221 104.293C210.387 104.783 210.797 104.978 211.203 104.971C211.339 105.452 211.778 105.835 212.397 105.642C222.021 102.633 229.233 96.9699 236.307 89.9821C242.822 83.5456 248.897 76.6059 250.593 67.351C250.768 66.3939 249.672 65.6333 248.908 66.3713Z" fill="#2B7663"/>
<path d="M222.791 356.054C185.734 353.715 63.4673 379.837 31.7039 424.296C-0.0594368 468.756 -2.40181 516.981 75.6574 557.924C153.716 598.866 262.37 601.629 354.132 578.771C445.894 555.914 484.858 498.896 478.106 465.239C471.355 431.58 433.037 398.675 379.845 375.566C326.653 352.459 222.791 356.054 222.791 356.054Z" fill="#ABD2C8"/>
<path d="M422.03 483.655C421.261 483.996 440.348 555.828 441.189 555.828C442.029 555.828 555.304 531.882 555.64 531.379C555.976 530.878 535.641 458.035 534.968 458.035C534.296 458.035 423.543 482.985 422.03 483.655Z" fill="#D59512"/>
<path d="M44.7298 449.663C44.1488 449.836 0.024736 509.778 1.36999 510.784C2.71426 511.788 109.266 545.447 109.266 545.447L136.157 477.125C136.156 477.125 46.4103 449.16 44.7298 449.663Z" fill="#471F1E"/>
<path d="M44.3936 469.757C43.7625 470.043 9.4851 534.394 10.9734 535.733C12.4616 537.073 117.837 555.325 118.51 554.32C119.182 553.317 135.316 520.16 135.316 520.16L139.013 488.344C139.013 488.345 46.2429 468.92 44.3936 469.757Z" fill="#E87046"/>
<path d="M137.668 429.738C137.164 429.906 115.415 455.451 115.415 455.451C115.415 455.451 208.59 508.106 209.347 507.603C210.103 507.101 237.665 476.793 237.497 476.122C237.33 475.453 137.668 429.738 137.668 429.738Z" fill="#C34A22"/>
<path d="M45.6152 487.775C44.0065 491.309 45.1939 495.108 43.8161 498.725C42.4522 502.304 38.9954 504.142 38.1639 507.984C37.7922 509.703 37.9441 511.48 37.8651 513.22C37.6866 517.128 35.5198 518.87 33.6301 521.885C32.1675 524.218 32.563 526.874 33.0374 529.453C33.2712 530.724 35.215 530.185 34.9823 528.919C34.2239 524.797 35.9794 522.985 38.1008 520.016C38.4717 519.495 38.81 518.953 39.0673 518.368C40.5506 515 39.3356 511.206 40.5004 507.775C41.5794 504.599 44.4642 502.704 45.7345 499.529C47.124 496.053 45.8321 492.139 47.3568 488.79C47.8894 487.622 46.1516 486.598 45.6152 487.775Z" fill="#471F1E"/>
<path d="M56.5437 501.632C53.4854 507.138 53.3443 512.012 52.4577 518.039C51.7091 523.136 47.2009 526.591 47.1792 531.877C47.1743 533.17 49.1912 533.171 49.1961 531.877C49.2149 527.095 53.5446 523.846 54.3848 519.251C55.4845 513.242 55.1611 508.27 58.2845 502.646C58.9148 501.513 57.173 500.499 56.5437 501.632Z" fill="#FFF6E4"/>
<path d="M83.5331 511.291C82.3298 513.562 81.5517 515.844 81.024 518.365C80.5111 520.819 80.665 525.108 79.2645 527.225C78.5623 528.287 77.0662 528.602 76.3265 529.627C74.9802 531.491 74.8865 534.491 74.4536 536.636C74.1991 537.9 76.142 538.44 76.3985 537.171C77.0613 533.884 77.5869 532.626 79.6699 529.963C80.1906 529.297 80.6571 528.992 81.0398 528.202C83.4374 523.247 82.6059 517.338 85.2747 512.306C85.8803 511.163 84.1396 510.146 83.5331 511.291Z" fill="#471F1E"/>
<path d="M98.5064 521.557C97.0645 525.714 94.1314 529.043 92.6589 533.081C91.6371 535.884 91.5228 539.347 91.7643 542.266C91.8699 543.546 93.8878 543.557 93.7813 542.266C93.4459 538.202 93.9815 534.369 96.1759 530.881C97.9463 528.067 99.3635 525.231 100.452 522.092C100.876 520.866 98.9285 520.341 98.5064 521.557Z" fill="#471F1E"/>
<path d="M87.1652 487.217C87.1652 487.217 68.3623 505.05 68.6888 505.93C69.0142 506.81 163.928 558.301 164.684 558.05C165.44 557.798 218.128 508.818 218.128 508.065C218.128 507.311 128.13 458.457 128.13 458.457L87.1652 487.217Z" fill="#D59512"/>
<path d="M68.6908 490.357C68.1415 491.566 166.323 538.834 167.078 538.332C167.835 537.83 216.742 486.529 216.742 484.549C216.742 482.57 119.433 435.599 118.173 436.102C116.912 436.603 69.3752 488.849 68.6908 490.357Z" fill="#FFF6E4"/>
<path d="M81.8956 405.877C81.0908 405.761 80.293 405.574 79.5474 405.244C78.9941 404.997 77.8293 404.53 77.6133 403.939C77.2918 403.057 76.1674 403.104 75.7592 403.668C75.4179 403.634 75.0619 403.747 74.8242 404.112C72.972 406.959 64.6401 419.111 71.1199 421.004C76.5393 422.588 80.0523 411.842 81.3325 408.32C81.4016 408.131 81.3976 407.966 81.366 407.815C82.6305 407.991 83.1748 406.062 81.8956 405.877Z" fill="#C34A22"/>
<path d="M95.224 409.559C95.2092 408.974 94.7871 408.668 94.3334 408.611C94.1292 408.297 93.7663 408.113 93.2958 408.284C91.0009 409.124 88.6762 409.437 86.2402 409.234C85.1218 409.141 84.9808 410.627 85.7934 411.1C85.4049 414.449 84.7184 424.172 90.415 423.134C95.4913 422.21 95.3137 413.213 95.224 409.559Z" fill="#C34A22"/>
<path d="M111.961 412.936C110.837 409.139 109.176 405.516 107.236 402.067C107.208 401.85 107.101 401.664 106.937 401.518C106.907 401.466 106.881 401.413 106.852 401.362C106.261 400.34 104.778 401.094 105.013 402.089C103.526 403.903 101.069 404.794 99.7458 406.714C99.2192 406.907 98.7891 407.507 99.1009 408.168C100.672 411.507 105.45 422.226 110.899 418.994C113.096 417.692 112.568 414.992 111.961 412.936Z" fill="#C34A22"/>
<path d="M143.023 225.996C135.414 221.199 130.282 213.313 123.075 207.913C115.645 202.347 107.366 198.076 99.5241 193.139C82.6997 182.547 68.0271 168.876 56.1032 153.016C55.337 151.997 53.7639 152.851 54.3616 154.031C72.2335 189.32 100.306 223.908 142.385 228.548C143.128 228.63 143.426 227.996 143.308 227.417C143.587 226.98 143.586 226.351 143.023 225.996Z" fill="#40957E"/>
<path d="M140.231 192.616C130.502 179.424 114.21 172.989 101.276 163.401C86.1473 152.187 72.7599 138.695 63.6213 122.14C63.069 121.14 61.4692 121.818 61.778 122.915C64.4251 132.319 67.8445 141.471 71.8712 150.375C75.4001 158.179 79.5138 165.144 86.5053 170.311C94.1517 175.962 101.798 182.327 110.456 186.375C119.156 190.443 128.91 193.886 138.352 195.659C139.369 195.851 139.902 194.653 139.421 194.044C140.119 193.993 140.751 193.322 140.231 192.616Z" fill="#40957E"/>
<path d="M135.968 168.132C136.184 167.783 136.21 167.332 135.826 166.96C124.445 155.943 112.008 145.936 99.6087 136.085C94.1202 131.724 88.4128 127.704 82.7901 123.526C79.5345 121.106 76.7858 118.32 73.9158 115.48C71.9887 113.575 70.2223 111.018 67.4459 110.543C66.6323 110.403 65.8069 111.213 66.3068 112.019C70.9935 119.564 75.4642 127.311 80.4478 134.668C84.6453 140.863 90.049 145.633 95.9428 150.196C107.661 159.268 120.417 167.239 135.206 169.979C136.383 170.195 136.916 168.558 135.968 168.132Z" fill="#40957E"/>
<path d="M110.88 58.8579C105.027 48.9142 99.972 38.5341 94.7172 28.2651C94.2705 27.3915 92.7743 27.7855 92.8384 28.7722C93.1934 34.2535 93.2131 39.8892 94.443 45.2674C95.6147 50.394 97.8535 55.2318 99.9276 60.042C102.125 65.1381 104.143 70.4299 106.942 75.2361C109.554 79.7221 112.969 83.6745 116.35 87.5914C116.527 87.7958 116.729 87.8764 116.929 87.898C117.076 89.0586 118.937 89.03 118.92 87.7801C118.771 77.5209 116.096 67.7177 110.88 58.8579Z" fill="#40957E"/>
<path d="M159.522 70.6937C152.476 80.0291 146.562 90.1114 142.006 100.881C139.692 106.352 138.043 112.149 135.244 117.404C132.707 122.163 129.641 126.405 128.468 131.747C128.357 132.25 128.605 132.629 128.955 132.833C128.923 133.54 129.647 134.275 130.436 133.8C152.09 120.786 156.345 94.2288 161.364 71.468C161.623 70.3035 160.195 69.8024 159.522 70.6937Z" fill="#40957E"/>
<path d="M137.732 40.4807C137.557 39.3869 136.107 39.6788 135.787 40.4807C131.853 50.3507 129.606 60.6727 127.706 71.093C125.783 81.6421 123.553 92.0447 121.259 102.514C121.102 103.229 121.659 103.695 122.222 103.749C122.231 104.436 122.238 105.123 122.247 105.81C122.257 106.648 123.363 107.178 123.969 106.521C140.565 88.5002 141.4 63.4223 137.732 40.4807Z" fill="#40957E"/>
<path d="M130.051 136.559C121.478 128.919 112.543 121.313 102.972 114.938C97.876 111.544 94.0385 107.176 89.6192 103.027C85.39 99.0574 80.7596 95.618 75.8303 92.5628C75.1133 92.1176 74.056 92.8635 74.3489 93.6978C75.4625 96.8699 76.5749 100.074 78.2398 103.011C79.9065 105.95 82.3179 108.301 84.0754 111.172C87.7275 117.142 90.6932 121.428 96.3365 125.802C104.947 132.472 117.211 143.228 129.016 139.13C129.498 138.962 129.699 138.556 129.698 138.153C130.3 137.895 130.677 137.117 130.051 136.559Z" fill="#40957E"/>
<path d="M123.779 109.405C117.522 103.828 114.883 96.086 107.705 91.2543C99.158 85.4997 91.7432 78.9982 84.0831 72.1117C83.3542 71.4571 82.1213 72.0861 82.3975 73.0894C83.8394 78.3231 86.097 83.156 88.7648 87.8778C90.8626 91.5913 92.8715 95.6036 96.1854 98.3954C103.247 104.345 112.995 110.882 122.421 111.561C122.884 111.595 123.174 111.355 123.304 111.034C123.973 110.836 124.443 109.999 123.779 109.405Z" fill="#40957E"/>
<path d="M249.221 93.3799C243.814 97.7331 239.708 103.211 235.059 108.304C229.808 114.057 223.723 118.885 217.396 123.407C212.197 127.119 206.571 130.443 201.732 134.623C198.308 137.582 195.687 141.222 193.32 145.03C195.923 133.368 196.578 121.15 197.932 109.347C199.597 94.8273 201.262 80.3073 202.927 65.7872C203.028 64.9058 201.766 64.4831 201.205 65.0767C196.946 69.5882 195.498 77.366 193.506 83.0745C190.956 90.3866 190.075 97.4893 189.506 105.168C188.894 113.44 188.275 121.71 187.669 129.983C187.385 133.838 187.227 137.728 187.657 141.58C188.095 145.506 188.303 149.776 191.46 152.621C193.765 154.699 196.194 152.807 198.365 151.514C202.041 149.324 206.114 147.614 209.585 145.124C213.373 142.403 216.54 138.942 220.33 136.209C227.025 131.381 232.377 126.821 237.146 120.005C242.738 112.011 247.264 103.389 250.907 94.3566C251.326 93.3179 249.902 92.8324 249.221 93.3799Z" fill="#2B7663"/>
<path d="M250.047 121.249C244.085 127.819 237.745 134.022 230.964 139.754C227.467 142.711 223.734 145.387 220.271 148.379C216.878 151.31 214.159 154.84 211.019 158.018C199.756 169.417 184.823 177.33 177.345 191.943C181.176 174.329 178.432 157.226 177.536 139.351C176.57 120.078 182.03 101.735 184.561 82.8058C184.702 81.7504 183.163 81.536 182.682 82.2987C171.715 99.6734 169.38 119.157 168.859 139.251C168.57 150.434 168.133 161.625 168.009 172.813C167.952 178.121 168.126 183.933 170.259 188.942C173.01 195.41 180.183 196.781 186.298 194.37C190.677 192.643 195.014 190.731 199.202 188.587C207.815 184.176 214.086 176.943 220.116 169.544C226.084 162.219 231.424 154.398 236.048 146.165C238.586 141.648 240.938 137.091 244.142 132.988C246.823 129.558 249.616 126.351 251.633 122.468C252.134 121.497 250.851 120.364 250.047 121.249Z" fill="#2B7663"/>
<path d="M240.647 164.668C233.48 171.719 225.626 177.711 217.489 183.595C210.836 188.405 205.163 193.678 199.579 199.687C193.641 206.077 185.915 209.213 179.125 214.425C172.775 219.299 169.061 226.143 165.689 233.201C163.804 222.627 165.196 211.883 163.877 201.257C162.64 191.302 160.096 181.738 159.946 171.637C159.636 150.672 161.508 129.511 164.084 108.723C164.236 107.499 162.492 107.512 162.103 108.456C157.834 118.82 151.623 129.826 149.892 140.968C148.043 152.871 148.981 165.829 149.314 177.835C149.862 197.54 150.897 220.424 164.878 235.834C165.051 236.277 165.471 236.631 166.059 236.506C174.802 234.641 182.863 228.913 190.41 224.349C197.908 219.814 205.22 214.847 211.621 208.84C218.217 202.648 223.024 195.298 228.05 187.857C232.824 180.787 240.523 174.275 242.333 165.645C242.533 164.689 241.394 163.933 240.647 164.668Z" fill="#2B7663"/>
<path d="M221.173 80.6739C217.453 95.8318 206.999 108.172 201.252 122.54C194.866 138.508 189.619 155.003 183.884 171.213C178.226 187.205 172.069 203.124 167.799 219.556C163.694 235.359 161.284 251.532 160.409 267.826C160.34 269.118 162.357 269.115 162.426 267.826C163.36 250.46 166.074 233.246 170.714 216.476C175.08 200.695 181.02 185.338 186.478 169.911C191.997 154.31 197.061 138.446 203.196 123.074C208.941 108.684 219.387 96.4047 223.117 81.2085C223.426 79.9526 221.482 79.4161 221.173 80.6739Z" fill="#471F1E"/>
<path d="M144.024 223.773C141.965 208.648 141.401 193.416 138.932 178.326C133.873 147.405 126.846 116.787 118.308 86.6422C117.955 85.3991 116.009 85.9279 116.362 87.1758C124.733 116.731 131.613 146.726 136.682 177.022C139.288 192.594 139.898 208.293 142.016 223.907C144.058 238.974 147.864 253.77 148.11 269.045C148.131 270.337 150.148 270.34 150.127 269.045C149.88 253.725 146.083 238.885 144.024 223.773Z" fill="#471F1E"/>
<path d="M97.2487 276.668C96.4922 279.113 100.273 387.623 102.039 388.628C103.803 389.632 190.02 389.131 191.027 388.628C192.036 388.126 200.103 276.668 200.103 276.668H97.2487Z" fill="#D59512"/>
<path d="M130 317.382C122.97 321.607 118.233 330.271 114.832 338.483C116.819 331.172 118.089 323.366 116.922 316.364C116.772 315.455 115.505 315.46 115.079 316.124C111.249 322.099 106.93 327.766 103.821 334.101C104.165 331.674 104.218 329.206 104.466 326.448C105.051 319.933 106.696 313.668 106.377 307.086C106.338 306.293 105.253 305.664 104.655 306.376C100.555 311.253 97.9548 316.934 95.4911 322.761C93.286 327.975 90.766 333.418 88.9523 338.922C88.6979 335.472 88.1959 332.048 87.4433 328.462C85.9373 321.287 86.2716 313.587 86.2786 306.284C86.2796 305.286 84.9057 304.919 84.3998 305.778C81.0041 311.528 79.791 318.489 78.6282 324.975C77.7001 330.151 77.1074 335.362 76.774 340.599C74.4721 332.559 70.2825 325.022 69.1602 316.613C69.0477 315.769 67.7409 315.067 67.2813 316.105C65.6944 319.692 65.8453 324.378 65.4854 328.268C65.0938 332.507 65.5061 336.748 66.1293 340.954C64.1944 338.216 61.9644 335.746 59.3094 333.52C58.6822 332.994 57.8794 333.374 57.6298 333.935C57.4583 334.096 57.3418 334.326 57.3448 334.634C57.4207 341.239 60.2868 347.76 62.2001 354.014C63.0109 356.663 64.2959 359.008 65.7132 361.385C67.2754 364.003 68.7923 367.613 71.1731 369.583C71.7924 370.096 72.5834 369.737 72.8478 369.194C76.7276 369.109 80.148 370.179 83.9371 370.982C86.6178 371.55 89.3567 371.471 92.0886 371.486C98.2833 371.52 104.412 371.268 110.51 370.131C111.076 370.024 111.269 369.582 111.213 369.146C113.587 365.545 115.526 362.016 116.899 357.963C118.494 353.249 121.64 349.506 123.757 345.021C127.668 336.737 129.245 327.345 131.482 318.519C131.691 317.682 130.769 316.919 130 317.382Z" fill="#40957E"/>
<path d="M115.769 368.651C115.932 368.053 115.631 367.357 114.839 367.44C110.951 367.845 107.192 366.677 103.297 366.988C99.3255 367.306 95.4988 367.604 91.4906 367.537C82.6962 367.394 73.9067 367.032 65.1191 366.673C64.3331 366.641 64.0274 367.337 64.1763 367.919C62.2916 376.952 63.2511 386.233 67.2218 394.611C70.8187 402.199 77.4128 410.326 86.1846 411.788C95.1931 413.289 103.572 407.874 108.844 401.004C115.275 392.621 117.044 378.896 115.769 368.651Z" fill="#471F1E"/>
<path d="M505.326 96.0675C505.213 95.5398 506.185 95.8464 505.771 95.868C505.251 94.7733 504.977 93.5342 504.384 92.4768C503.052 90.1037 500.795 89.1435 500.921 85.8319C501.13 80.3456 506.111 76.7058 509.435 72.9264C514.04 67.6877 517.862 60.7579 515.292 53.6727C512.764 46.7056 504.967 41.8285 498.58 38.8795C494.394 36.9476 489.811 35.8686 485.773 33.627C482.734 31.9408 480.2 29.3014 476.963 27.9806C476.871 27.9432 476.777 27.9227 476.684 27.8882C477.283 27.2888 477.097 26.0565 476.076 26.1912C475.721 26.2383 475.364 26.2854 475.008 26.3316C475.084 26.0899 475.055 25.8472 474.96 25.635C475.215 25.007 474.9 24.1383 474.085 24.1983C473.094 24.271 472.392 24.9677 471.654 25.5809C470.724 26.3553 469.871 27.2052 469.072 28.1123C465.379 29.5499 461.946 32.3152 459.239 34.6392C453.077 39.929 451.635 47.1605 450.662 54.8913C449.532 63.8612 451.083 72.433 455.141 80.554C458.239 86.7507 464.189 89.1435 470.467 91.0008C470.783 98.4869 469.929 99.5747 466.602 104.02C466.303 104.419 466.546 104.906 466.821 105.196C466.855 105.563 467.058 105.92 467.493 106.082C474.348 108.64 481.483 110.254 488.804 110.65C492.403 110.845 496.014 110.767 499.598 110.399C502.737 110.077 504.711 108.994 507.709 107.902C507.894 107.835 508.026 107.726 508.133 107.603C508.352 108.115 508.561 108.63 508.795 109.137C509.338 110.311 511.379 109.292 510.839 108.124C509.123 104.414 506.182 100.062 505.326 96.0675Z" fill="#F5B17B"/>
<path d="M209.296 361.731C208.903 362.163 204.37 366.449 198.47 371.967C186.751 382.943 169.672 398.814 169.08 398.956C168.191 399.183 114.821 351.062 115.418 350.408C116.001 349.768 122.266 344.389 129.516 343.159C136.766 341.928 145.494 348.792 160.992 348.048C166.176 347.8 170.846 346.65 174.87 345.134C182.862 342.133 188.234 337.764 189.768 336.438C189.769 336.438 210.489 360.423 209.296 361.731Z" fill="#F5B17B"/>
<path d="M183.999 362.649C179.608 358.35 175.318 351.729 174.871 345.135C170.847 346.651 166.177 347.8 160.992 348.049C145.495 348.793 136.768 341.93 129.517 343.16C127.422 343.516 125.399 344.211 123.598 345.051C119.114 347.102 115.84 349.948 115.418 350.409C114.821 351.063 168.191 399.184 169.08 398.957C169.319 398.903 172.631 395.927 177.238 391.708C183.348 386.08 191.79 378.221 198.469 371.968C192.791 370.277 188.54 367.111 183.999 362.649Z" fill="#FFF6E4"/>
<path d="M150.257 369.036C145.33 364.877 140.483 360.6 135.881 356.084C131.909 352.192 128.108 348.264 123.598 345.051C119.114 347.102 115.84 349.948 115.418 350.409C114.821 351.063 168.191 399.185 169.08 398.957C169.319 398.904 172.631 395.927 177.238 391.709C168.451 383.894 159.233 376.613 150.257 369.036Z" fill="#471F1E"/>
<path d="M311.276 473.78C311.276 474.362 310.812 480.571 310.167 488.609C308.896 504.583 306.961 527.773 306.617 528.276C306.113 529.039 234.135 529.16 234.135 528.276C234.135 527.411 235.143 519.234 239.68 513.465C244.219 507.698 255.311 506.935 266.282 496.003C269.953 492.346 272.634 488.368 274.591 484.549C278.484 476.974 279.512 470.141 279.755 468.133C279.755 468.133 311.276 472.01 311.276 473.78Z" fill="#F5B17B"/>
<path d="M293.166 491.4C287.015 491.159 279.371 489.129 274.592 484.547C272.636 488.366 269.954 492.343 266.283 496.002C255.312 506.933 244.22 507.697 239.681 513.464C238.371 515.132 237.342 517.001 236.576 518.829C234.64 523.35 234.136 527.651 234.136 528.273C234.136 529.158 306.114 529.037 306.618 528.273C306.759 528.072 307.203 523.652 307.768 517.443C308.494 509.184 309.442 497.709 310.168 488.607C304.823 491.159 299.539 491.661 293.166 491.4Z" fill="#FFF6E4"/>
<path d="M272.495 518.727C266.041 518.948 259.567 519.029 253.114 518.768C247.547 518.547 242.082 518.185 236.576 518.827C234.64 523.349 234.136 527.649 234.136 528.272C234.136 529.156 306.114 529.036 306.618 528.272C306.759 528.071 307.203 523.651 307.768 517.441C295.989 517.542 284.251 518.326 272.495 518.727Z" fill="#471F1E"/>
<path d="M620.425 312.015C601.347 371.796 590.597 393.9 590.597 393.9C590.597 393.9 585.05 395.407 577.992 398.964C570.934 402.501 403.361 419.381 375.027 416.507C346.692 413.633 339.008 398.964 339.008 398.964L352.621 287.279L507.91 118.306C507.91 118.306 517.489 117.603 558.874 132.975C593.904 145.996 641.54 162.694 657.029 171.012C658.279 171.677 659.308 172.299 660.114 172.863C661.144 173.546 661.768 174.149 662.011 174.63C664.873 180.438 639.503 252.235 620.425 312.015Z" fill="#40957E"/>
<path d="M660.114 172.864C655.718 173.085 647.631 173.466 640.551 173.708C630.388 174.029 623.752 178.189 611.329 201.961C598.725 226.054 575.391 288.588 575.148 289.21L573.272 288.506C573.494 287.883 596.868 225.23 609.534 201.016C622.422 176.36 629.5 172.039 640.47 171.698C646.158 171.517 652.471 171.216 657.028 171.016C658.278 171.678 659.308 172.3 660.114 172.864Z" fill="#1D5043"/>
<path d="M642.654 119.963C642.029 113.052 638.701 104.471 637.753 96.8155C636.785 89.1399 631.602 77.3438 629.687 71.8181C628.658 68.9045 625.633 63.7405 623.031 58.5962C620.713 53.9943 618.696 49.4131 618.715 46.4395C618.756 40.1297 620.55 34.9853 620.651 28.8967C620.692 25.4003 620.248 23.431 620.027 21.3615C619.845 19.8344 619.784 18.267 620.147 16.0167C620.974 10.6513 621.437 5.54723 620.974 5.38705C620.712 5.28682 618.03 7.45657 615.569 9.44551C613.512 11.0935 611.597 12.6402 611.354 12.6609C611.031 12.54 608.713 10.4911 603.328 9.60668C602.541 9.48581 601.774 9.36592 601.069 9.28534C596.995 8.76256 594.03 8.7832 592.741 8.7429C591.408 8.70064 585.862 0 585.237 0C584.511 0 583.321 12.4181 583.321 13.3025C583.321 13.3625 583.28 13.4234 583.24 13.5237C582.372 14.81 575.475 19.6123 575.355 26.5648C575.294 30.0612 575.959 33.2962 576.666 35.9081C577.472 38.8021 578.32 40.9119 578.239 41.6352C578.219 41.8356 578.117 42.0774 577.916 42.3987C576.908 44.1066 573.479 47.9646 569.223 60.3022C569.203 60.3631 569.182 60.4024 569.163 60.4633C566.315 68.9586 563.508 77.4597 561.818 86.2744C560.017 95.6707 559.758 105.236 558.812 114.737C558.587 116.989 558.147 119.203 557.654 121.413C557.396 122.562 557.119 123.705 556.832 124.847C556.758 125.147 556.653 125.473 556.543 125.807C554.825 128.067 551.669 132.176 553.451 134.893C554.505 136.498 556.339 136.654 558.075 136.13C559.282 135.952 560.701 135.249 561.97 134.492C562.018 134.512 562.066 134.529 562.114 134.547C561.332 136.688 561.31 139.35 563.457 140.326C566.441 141.684 569.655 140.203 572.294 138.515C573.965 139.145 575.617 139.764 577.206 140.354C577.111 140.368 577.19 142.55 577.214 142.751C577.364 144.072 578.436 145.14 579.494 145.864C582.132 147.67 585.461 148.542 588.441 149.607C594.112 151.634 600.211 152.489 605.976 154.407C610.77 156.005 615.072 157.885 619.838 157.863C617.666 160.038 612.848 164.61 607.661 170.279C600.562 178.015 593.201 186.555 586.909 197.687C580.596 208.841 581.222 211.854 584.973 211.211C588.703 210.588 592.817 204.54 599.372 196.039C605.927 187.52 616.392 175.845 621.273 171.202C626.154 166.541 635.814 160.05 638.577 152.897C640.796 147.19 642.469 134.008 642.732 125.427C642.815 123.239 642.774 121.35 642.654 119.963Z" fill="#FADDB3"/>
<path d="M400.276 235.155L294.881 219.582C294.881 219.582 245.732 256.516 230.345 267.567C222.017 273.555 204.127 285.893 189.507 296.161C188.962 296.543 188.417 296.944 187.873 297.306C176.257 305.485 167.081 312.116 167.081 312.778C167.081 314.265 180.674 325.919 182.952 332.873C185.251 339.806 195.053 344.93 197.332 349.432C199.612 353.972 211.449 365.386 213.728 370.972C215.987 376.559 218.771 377.081 218.771 377.081C218.771 377.081 226.374 370.711 236.296 362.553C236.821 362.131 237.365 361.689 237.91 361.227C246.945 353.833 257.613 345.212 266.164 338.641C271.044 334.884 279.534 328.856 289.417 321.964C289.175 322.908 288.832 324.033 288.448 325.299C285.181 336.352 278.607 357.813 272.698 374.069C264.389 396.916 259.347 419.02 257.835 432.825C257.613 434.775 257.311 436.784 256.948 438.773C256.806 439.417 256.685 440.08 256.565 440.723C254.184 452.177 250.071 463.047 250.272 464.495C250.514 466.244 287.824 471.267 303.716 474.784C319.61 478.301 335.481 481.053 335.985 480.049C336.247 479.546 338.849 468.414 341.571 455.454C341.712 454.79 341.853 454.148 341.994 453.484C344.495 441.508 347.016 428.366 347.843 420.771C349.597 404.454 358.935 376.563 361.698 365.512C363.734 357.414 370.632 326.408 374.16 310.413C374.423 309.248 374.665 308.162 374.887 307.177C374.928 307.258 374.988 307.339 375.028 307.418C380.594 316.843 386.644 326.508 391.948 333.12C405.802 350.442 424.962 355.726 430.267 356.228C431.703 356.365 436.378 356.26 442.545 355.971C442.715 355.497 443.106 355.129 443.799 355.125C460.331 355.034 476.291 352.949 492.394 350.258C499.347 346.704 510.944 338.308 517.249 324.318C523.782 309.769 526.062 296.448 526.062 296.448L400.276 235.155Z" fill="#E87046"/>
<path d="M574.039 237.748C573.374 259.349 570.087 283.222 567.062 287.742C565.771 289.672 551.25 288.828 534.996 287.241C534.391 287.16 533.786 287.1 533.16 287.041C528.482 286.579 523.662 286.036 519.043 285.513C515.09 285.05 511.259 284.588 507.729 284.127C496.354 282.72 487.904 281.534 487.904 281.534L444.382 260.898L392.33 225.371L362.704 226.235L362.362 219.563L362.039 213.194L361.495 202.322L361.07 193.882L360.849 189.441C360.849 189.441 368.33 173.728 379.323 157.25C380.855 154.938 382.448 152.628 384.102 150.317C385.029 149.071 385.958 147.825 386.905 146.58C389.042 143.807 391.058 141.235 393.015 138.904C394.81 136.755 396.545 134.785 398.217 132.976C402.413 128.515 406.345 125.12 410.379 122.587C413.444 120.638 416.571 119.211 419.897 118.186C422.015 117.544 424.234 117.081 426.573 116.759C428.67 116.479 430.747 116.258 432.784 116.076C437.282 115.675 441.537 115.434 445.41 115.052C452.105 114.408 457.57 113.303 460.858 110.068C466.908 104.12 466.908 103.116 467.231 103.196C467.473 103.257 470.66 105.486 476.67 107.155C478.505 107.657 480.623 108.119 482.982 108.441C484.212 108.601 485.524 108.743 486.895 108.823C487.358 108.844 487.843 108.864 488.307 108.904C490.989 108.964 493.53 108.844 495.869 108.623C503.875 107.779 509.341 105.569 509.583 105.629C509.824 105.689 511.801 108.583 516.098 112.522C517.771 114.048 519.787 115.737 522.167 117.484C522.733 117.887 523.297 118.289 523.881 118.69C525.031 119.495 526.201 120.239 527.39 120.962C529.731 122.367 532.13 123.714 534.571 125.221C541.468 129.421 548.707 134.826 555.727 146.321C558.691 151.224 560.809 155.222 562.361 158.779C563.794 161.973 564.781 164.787 565.548 167.561C567.061 172.825 567.887 177.928 569.662 185.002C570.005 186.328 570.306 187.674 570.61 189.021C571.235 191.874 571.779 194.789 572.223 197.802C573.999 209.335 574.524 222.135 574.039 237.748Z" fill="#6E4645"/>
<path d="M552.204 342.168C552.012 342.193 532.658 344.719 503.756 348.195C474.861 351.669 435.772 355.356 435.381 355.391L435.569 357.393C435.961 357.355 475.078 353.668 503.996 350.189C532.911 346.712 552.275 344.184 552.466 344.162L552.204 342.168Z" fill="#1D5043"/>
<path d="M427.169 353.379C426.911 353.395 401.21 354.862 386.503 353.384C376.324 352.357 369.523 347.403 366.375 344.562C366.238 345.315 366.06 346.06 365.862 346.801C369.489 349.889 376.287 354.373 386.299 355.38C391.287 355.884 397.513 356.051 403.595 356.051C415.638 356.051 427.114 355.394 427.288 355.384L427.169 353.379Z" fill="#1D5043"/>
<path d="M488.308 108.905C487.722 110.613 487.319 112.402 486.875 114.251C486.129 117.344 484.213 119.857 482.397 122.389C480.583 124.881 479.03 127.572 476.69 129.643C474.593 131.512 472.273 129.06 472.737 126.77C472.979 125.624 473.685 124.66 474.33 123.695C476.166 121.003 477.739 118.169 479.251 115.295C480.38 113.164 481.369 110.372 482.983 108.443C480.623 108.121 478.505 107.658 476.669 107.156C475.359 108.523 473.987 109.849 472.696 111.257C469.913 114.269 467.271 117.425 464.791 120.701C462.573 123.633 460.475 126.689 459.224 130.125C458.539 132.013 458.115 134.023 458.075 136.032C458.075 136.534 458.094 137.057 458.337 137.5C459.022 138.765 460.757 138.605 461.967 138.705C463.903 138.886 465.819 139.188 467.675 139.73C469.913 140.394 472.193 141.177 474.572 141.077C481.045 140.796 483.707 136.032 488.265 132.155C492.743 128.337 493.993 121.926 494.376 116.321C494.538 113.828 494.88 111.659 495.627 109.288C495.687 109.087 495.789 108.865 495.87 108.624C493.53 108.846 490.99 108.965 488.308 108.905Z" fill="#471F1E"/>
<path d="M432.786 116.076C432.363 120.377 432.867 125.661 427.4 126.163C423.529 126.506 421.834 121.502 419.898 118.186C416.57 119.211 413.445 120.638 410.38 122.586C411.61 125.299 412.014 128.033 413.345 130.806C414.455 133.096 416.169 135.025 417.902 136.874C421.855 141.093 426.634 142.681 432.483 141.817C437.121 141.113 439.945 137.315 442.204 133.537C445.672 127.811 444.825 121.401 445.409 115.051C441.539 115.433 437.283 115.674 432.786 116.076Z" fill="#471F1E"/>
<path d="M405.621 142.723C404.51 140.633 402.635 138.765 401.164 136.936C400.196 135.73 399.248 134.303 398.218 132.977C396.544 134.786 394.81 136.754 393.016 138.905C396.848 141.096 396.242 147.687 393.117 149.896C390.091 152.047 387.208 151.644 384.101 150.318C382.447 152.629 380.854 154.939 379.322 157.25C386.703 162.998 399.207 159.421 404.854 152.971C407.313 150.158 407.334 145.938 405.621 142.723Z" fill="#471F1E"/>
<path d="M408.386 168.349C405.694 167.417 401.855 165.953 399.004 166.142C393.464 166.51 386.556 169.682 385.1 175.444C384.008 179.765 386.189 183.973 385.384 188.488C384.789 191.818 383.863 194.516 385.196 197.778C387.469 203.338 393.023 206.95 398.718 208.167C399.008 208.229 399.255 208.166 399.456 208.042C399.657 208.114 399.874 208.129 400.072 208.064C400.958 205.766 401.886 203.481 402.672 201.142C402.562 200.956 402.404 200.793 402.157 200.699C399.701 199.763 399.524 199.675 397.576 197.172C395.218 194.138 395.837 194.875 395.497 192.032C395.254 189.995 394.307 188.202 394.153 186.133C393.785 181.171 395.964 176.481 401.67 176.937C404.439 177.158 407.327 179.704 409.953 180.883C410.38 179.782 410.836 178.692 411.309 177.605C411.611 176.912 411.958 176.208 412.307 175.497C412.397 175.242 412.489 174.991 412.581 174.738C412.801 173.777 413.049 172.821 413.351 171.879C412.012 170.304 410.445 169.06 408.386 168.349Z" fill="#471F1E"/>
<path d="M382.508 202.321C382.166 200.513 381.016 199.628 379.645 198.544C377.245 196.675 374.381 194.364 371.598 193.118C368.371 191.653 364.519 192.516 361.07 193.882L361.495 202.322C365.407 200.574 370.529 199.408 371.356 204.572C372.163 209.577 366.839 212.169 362.946 212.971C362.624 213.033 362.321 213.113 362.038 213.192L362.362 219.563C367.665 218.156 373.958 216.366 377.89 213.092C380.391 211.022 383.134 205.637 382.508 202.321Z" fill="#471F1E"/>
<path d="M447.489 219.964C446.096 217.371 443.354 214.779 441.378 212.73C439.643 210.942 437.969 209.957 435.528 209.335C432.907 208.67 430.609 208.772 427.986 209.214C424.639 209.797 420.806 209.978 417.64 211.304C412.658 213.394 408.424 219.664 405.762 224.225C405.359 224.929 405.902 225.592 406.528 225.691C406.608 225.772 406.709 225.833 406.851 225.873C408 226.214 409.149 226.536 410.339 226.717C411.267 226.837 413.081 226.556 413.787 227.179C414.352 227.702 415.078 227.4 415.38 226.897C415.481 226.857 415.603 226.837 415.703 226.777C418.667 224.888 421.189 222.357 424.375 220.829C426.775 219.683 430.486 218.399 433.188 219.262C437.424 220.628 438.574 225.853 438.432 229.449C438.372 231.398 437.303 234.111 438.232 235.98C439.038 237.628 441.801 238.352 443.294 239.135C444.141 239.577 444.907 238.752 444.785 238.05C444.967 237.97 445.128 237.849 445.229 237.627C447.851 232.503 450.513 225.53 447.489 219.964Z" fill="#471F1E"/>
<path d="M473.847 166.172C471.488 164.423 469.007 163.739 466.244 162.856C461.262 161.229 457.149 158.536 452.449 156.305C448.859 154.597 445.007 153.513 441.297 153.954C434.722 153.512 430.185 158.053 426.494 163.077C421.956 169.225 423.186 173.084 427.2 179.093C430.649 184.297 433.874 191.249 439.945 193.863C446.944 196.876 455.373 195.087 462.049 192.215C467.878 189.703 475.783 185.745 478.426 179.554C480.643 174.37 478.183 169.386 473.847 166.172ZM459.085 182.85C456.141 185.402 452.571 186.828 448.658 187.009C443.676 187.23 441.398 185.341 438.938 181.303C435.186 175.174 430.124 168.966 436.578 163.017C441.982 160.686 450.17 165.71 454.446 168.202C456.019 169.126 457.875 169.769 459.387 170.713C466.506 175.093 462.976 179.454 459.085 182.85Z" fill="#471F1E"/>
<path d="M527.391 120.959C525.96 121.984 524.326 122.768 522.592 122.306C521.724 122.084 521.039 121.662 520.898 120.779C520.817 120.156 521.14 119.473 521.382 118.909C521.603 118.407 521.866 117.945 522.168 117.483C519.788 115.735 517.772 114.046 516.098 112.52C514.525 115.252 512.447 118.327 512.67 121.421C512.871 124.173 514.424 127.731 517.047 128.957C519.406 130.062 522.815 130.725 525.294 129.741C528.219 128.576 531.768 127.129 534.571 125.219C532.131 123.713 529.731 122.366 527.391 120.959Z" fill="#471F1E"/>
<path d="M539.21 142.343C537.435 141.077 535.297 141.117 533.219 141.117C528.703 141.137 524.286 141.419 519.748 141.096C512.407 140.573 504.361 139.629 497.826 143.809C493.388 146.663 490.162 151.787 491.936 157.071C491.996 157.293 492.118 157.433 492.259 157.533C492.965 160.387 494.316 163.321 494.841 166.134C495.929 172.123 495.405 177.367 502.746 178.311C509.805 179.236 516.42 172.705 521.503 168.566C525.072 165.653 528.5 163.462 532.494 161.191C534.974 159.785 536.991 157.795 538.746 155.564C541.63 151.907 544.01 145.697 539.21 142.343ZM527.714 154.68C526.544 156.669 524.77 157.895 522.733 158.88C518.9 160.769 515.835 163.2 512.286 165.592C509.14 167.721 505.49 167.542 503.069 164.265C501.415 162.014 500.83 158.98 501.415 156.267C502.968 153.815 505.872 152.791 509.14 152.067C511.459 151.565 513.778 151.123 516.037 150.399C518.357 149.636 523.218 147.124 525.677 148.39C528.238 149.697 529.065 152.39 527.714 154.68Z" fill="#471F1E"/>
<path d="M570.612 189.02C568.271 189.701 566.012 190.506 563.613 191.27C558.128 192.997 553.973 191.651 551.553 186.427C547.135 176.942 556.595 168.724 565.549 167.559C564.782 164.786 563.795 161.972 562.362 158.777C556.332 163.379 547.56 162.052 543.425 169.768C542.215 172.039 542.255 174.812 542.174 177.324C542.054 181.665 541.489 186.427 542.538 190.686C544.111 197.056 546.591 200.192 553.045 201.116C557.139 201.679 561.355 201.658 565.368 200.673C567.829 200.071 570.026 198.905 572.225 197.8C571.78 194.786 571.237 191.872 570.612 189.02Z" fill="#471F1E"/>
<path d="M543.203 207.729C537.939 203.81 530.679 204.916 524.448 204.756C523.277 204.715 523.177 206.323 524.125 206.684C523.944 208.634 523.782 210.583 523.601 212.552C523.561 213.095 524.106 213.517 524.609 213.556C528.541 213.737 537.173 214.118 539.775 217.997C544.918 225.713 531.265 227.1 526.767 226.034C526.304 225.934 525.941 226.115 525.738 226.417L525.598 225.934C525.598 225.874 525.557 225.854 525.536 225.813C525.717 225.211 525.436 224.467 524.629 224.548C517.187 225.252 507.264 229.411 507.507 238.232C507.789 247.817 518.215 251.273 526.08 252.317C526.646 252.398 527.049 251.795 527.089 251.313C527.33 248.741 528.44 245.044 525.899 243.536C524.164 242.511 521.321 243.476 519.669 242.31L516.401 236.302C517.389 235.439 518.357 234.555 519.324 233.689C521.322 232.504 523.863 232.102 526.101 231.761C526.223 232.403 526.283 233.066 526.384 233.71C526.202 233.75 526.001 233.791 525.818 233.831C524.568 234.173 525.093 236.102 526.363 235.78C532.333 234.213 539.25 235.6 544.796 232.465C548.81 230.194 552.621 224.829 552.319 220.067C552.036 215.445 546.652 210.302 543.203 207.729Z" fill="#471F1E"/>
<path d="M539.269 284.629C539.229 277.576 534.954 270.422 527.29 270.321C523.338 270.281 519.426 271.608 516.28 273.98C512.629 276.712 511.257 281.093 507.87 283.986C507.829 284.026 507.769 284.066 507.728 284.126C507.084 284.931 508.213 286.015 509.101 285.533C509.241 285.653 509.423 285.754 509.664 285.774C512.024 286.014 516.138 287.26 518.277 286.014C518.558 285.853 518.802 285.672 519.043 285.512C522.29 283.041 522.854 278.619 528.038 279.444C532.071 280.086 530.781 281.554 531.95 284.85C532.313 285.874 532.031 286.518 533.16 287.04C533.704 287.301 534.33 287.301 534.995 287.241C536.065 287.1 537.235 286.739 538.161 286.758C539.028 286.758 539.311 285.873 539.028 285.291C539.17 285.131 539.269 284.91 539.269 284.629Z" fill="#471F1E"/>
<path d="M506.256 256.235C506.155 256.216 506.035 256.174 505.913 256.195C504.421 256.255 503.17 255.09 501.659 255.41C499.984 255.773 498.572 257.38 497.222 258.325C494.419 260.293 491.534 261.338 488.166 259.389C484.698 257.401 485.524 253.683 486.109 250.347C486.25 249.583 485.604 249.101 485.02 249.121C484.939 248.941 484.817 248.78 484.596 248.679C483.487 248.136 482.196 247.152 480.905 247.473C480.804 247.493 480.745 247.554 480.664 247.595C480.099 247.414 479.333 247.715 479.231 248.479C478.707 252.598 477.153 259.752 478.95 263.67C480.342 266.705 485.221 268.753 488.005 269.919C492.038 271.607 493.813 270.803 497.321 268.271C501.9 264.975 505.127 262.524 507.789 257.5C508.333 256.476 506.962 255.552 506.256 256.235Z" fill="#471F1E"/>
<path d="M489.637 237.348C481.147 236.243 472.252 235.139 465.778 241.749C464.953 242.592 466.082 243.839 466.97 243.316C467.11 243.437 467.292 243.516 467.494 243.537C469.873 243.798 472.133 245.205 474.532 245.245C478.586 245.326 481.813 241.95 485.624 245.225C487.5 246.853 487.682 248.883 489.335 250.451C490.766 251.817 493.751 252.399 495.485 253.102C495.99 253.304 496.596 252.881 496.715 252.399C498.209 246.532 496.797 238.273 489.637 237.348Z" fill="#471F1E"/>
<path d="M509.544 194.969C505.752 193 499.924 194.607 495.345 195.973C494.761 196.074 494.155 196.155 493.551 196.214C490.041 196.536 486.491 196.536 483.023 197.32C477.638 198.505 471.529 202.543 468.301 207.045C466.929 208.954 466.346 211.807 466.668 214.158C467.132 217.555 469.774 218.56 471.588 221.232C473.061 223.383 473.564 225.975 475.622 227.682C477.72 229.431 480.482 229.672 483.084 229.692C489.376 229.733 493.955 225.995 498.17 221.634C502.829 216.811 508.677 211.447 511.642 205.337C513.335 201.842 513.517 197.039 509.544 194.969ZM496.717 209.738C495.164 211.045 493.531 212.251 491.997 213.556C490.828 214.541 489.739 215.585 488.811 216.791C488.004 217.796 487.44 219.103 486.25 219.724C484.918 220.429 483.366 219.986 481.974 219.885C480.199 219.765 479.514 218.8 478.989 217.172C478.626 215.986 478.243 214.701 478.626 213.495C478.929 212.551 479.655 211.807 480.4 211.124C483.769 208.11 487.741 205.759 492.037 204.293C493.61 203.75 495.264 203.329 496.938 203.329C497.2 203.329 497.483 203.349 497.725 203.469C498.027 203.61 498.229 203.872 498.41 204.133C498.834 204.715 499.277 205.317 499.419 206.021C499.722 207.609 497.746 208.854 496.717 209.738Z" fill="#471F1E"/>
<path d="M567.022 242.048C562.524 233.789 552.219 239.657 546.996 245.605C546.41 246.106 545.826 246.649 545.301 247.231C542.316 250.526 538.383 256.173 538.868 260.856C539.05 262.644 539.876 264.212 541.067 265.537C542.176 266.763 543.829 267.526 545.06 268.592C546.532 269.837 547.58 271.405 548.932 272.73C551.694 275.463 555.406 276.026 558.712 273.795C563.351 270.641 563.996 264.532 565.246 259.568C566.598 254.247 569.965 247.434 567.022 242.048ZM557.602 259.491C557.3 261.037 556.735 262.726 555.748 263.992C554.659 265.378 552.521 266.122 551.291 264.414C550.746 263.65 550.443 262.665 549.939 261.842C548.87 260.054 547.902 258.185 547.922 256.055C547.963 252.378 550.424 250.188 553.287 248.56C556.01 247.374 558.571 247.616 558.853 251.836C558.995 254.105 558.046 257.22 557.602 259.491Z" fill="#471F1E"/>
<path d="M368.754 222.347C369.762 221.846 381.023 220.84 388.25 220.84C395.476 220.84 411.106 223.854 421.862 227.119C432.618 230.385 454.719 239.261 454.719 239.261C454.719 239.261 449.676 260.025 448.164 262.117C446.651 264.21 410.602 244.538 396.906 239.261C383.208 233.986 368.754 230.05 368.754 230.05V222.347Z" fill="#F5B17B"/>
<path d="M413.344 262.265C413.344 262.265 392.693 255.051 371.437 247.817C370.771 247.596 370.105 247.375 369.42 247.154C355.463 242.432 341.527 237.81 333.299 235.319C312.123 228.969 237.503 204.172 236.657 203.329C235.81 202.485 235.144 187.936 234.136 155.625C233.128 123.292 230.828 100.023 232.623 100.023C234.297 100.023 363.873 137.198 364.721 137.861C365.568 138.544 369.42 229.972 369.42 229.972C369.42 229.972 370.145 230.213 371.437 230.616C379.927 233.368 412.578 243.978 413.344 244.823C414.252 245.806 413.344 262.265 413.344 262.265Z" fill="#471F1E"/>
<path d="M341.993 453.483C328.378 451.675 315.089 448.239 301.213 447.978C285.786 447.696 271.971 441.066 256.946 438.773C256.804 439.417 256.683 440.08 256.562 440.722C271.729 442.972 285.604 449.706 301.213 449.986C314.947 450.227 328.097 453.623 341.568 455.432C341.568 455.453 341.993 453.483 341.993 453.483Z" fill="#471F1E"/>
<path d="M237.908 361.23C237.363 361.691 236.818 362.133 236.294 362.555C235.366 360.505 234.539 358.395 233.611 356.306C231.857 352.408 229.577 349.434 226.614 346.36C224.133 343.748 222.801 341.115 220.947 338.04C218.749 334.363 215.441 332.052 212.577 328.978C207.213 323.251 203.906 316.037 198.985 309.969C195.416 305.569 191.2 301.811 187.873 297.309C188.417 296.948 188.962 296.545 189.505 296.164C193.136 301.107 197.856 305.166 201.606 310.069C206.608 316.64 210.218 324.075 216.289 329.802C218.75 332.113 220.967 334.101 222.682 337.015C224.94 340.873 227.259 343.887 230.265 347.162C233.955 351.222 235.709 356.326 237.908 361.23Z" fill="#471F1E"/>
<path d="M375.026 307.415C374.985 307.334 374.925 307.255 374.884 307.174C374.663 308.159 374.422 309.243 374.159 310.409C368.311 296.906 358.63 280.75 356.734 278.7C354.495 279.343 343.967 286.617 334.631 293.088C328.097 297.589 320.694 302.713 314.14 306.993C299.297 316.698 290.908 323.31 288.447 325.299C288.83 324.034 289.173 322.909 289.455 321.944C293.428 318.849 301.193 313.062 313.03 305.326C319.564 301.047 326.947 295.942 333.459 291.441C352.841 278.037 356.229 275.988 357.641 276.832C359.538 277.976 369.057 294.314 375.026 307.415Z" fill="#471F1E"/>
<path d="M592.981 22.3857C592.517 29.6998 583.321 35.2057 576.666 35.9093C575.96 33.2973 575.293 30.0615 575.355 26.5661C575.476 19.6135 582.373 14.8111 583.239 13.5248C585.055 13.5043 586.829 13.7057 588.422 14.4289C591.59 15.8744 593.183 18.9896 592.981 22.3857Z" fill="#DE9254"/>
<path d="M642.653 119.962C642.028 113.051 638.7 104.469 637.753 96.8132C636.784 89.1375 631.601 77.3413 629.686 71.8158C628.657 68.9021 625.632 63.7381 623.03 58.5938C618.755 61.6479 615.711 66.6114 614.136 71.856C612.1 78.5874 614.217 83.5509 613.975 90.2223C613.752 95.969 610.002 101.033 610.728 106.921C612.28 119.359 629.14 126.272 642.734 125.428C642.815 123.238 642.774 121.349 642.653 119.962Z" fill="#DE9254"/>
<path d="M435.139 288.848C435.139 288.848 417.661 353.879 401.863 426.219C386.065 498.559 369.93 545.111 370.94 547.12C371.947 549.129 383.713 552.143 385.057 550.804C386.401 549.464 406.57 486.502 421.358 440.955C436.148 395.408 464.046 294.601 464.046 294.601L435.139 288.848Z" fill="#471F1E"/>
<path d="M597.315 405.894C588.811 377.803 572.491 329.861 561.129 296.949H530.507C539.691 321.553 555.198 362.214 572.866 404.843C601.227 473.27 614.571 520.691 616.548 521.771C618.527 522.851 629.919 518.653 630.259 516.789C630.599 514.924 611.19 451.725 597.315 405.894Z" fill="#471F1E"/>
<path d="M416.316 279.864C415.024 280.276 410.097 289.744 411.273 291.585C412.45 293.428 421.694 294.433 458.834 297.28C495.976 300.126 520.513 301.13 543.035 301.967C565.555 302.805 575.639 303.14 578.664 302.805C581.689 302.47 589.757 288.739 587.74 287.902C585.723 287.065 550.429 284.553 515.808 282.71C481.188 280.87 420.517 278.525 416.316 279.864Z" fill="#FFF6E4"/>
<path d="M417.706 160.136C412.959 168.957 410.238 178.61 406.915 188.009C403.044 198.952 398.769 209.747 394.147 220.398C393.636 221.572 395.373 222.597 395.888 221.412C400.077 211.763 403.997 202.003 407.581 192.113C411.339 181.745 414.199 170.905 419.448 161.151C420.06 160.011 418.319 158.996 417.706 160.136Z" fill="#FFF6E4"/>
<path d="M526.201 223.461C525.203 210.978 524.324 198.49 526.693 186.099C526.934 184.835 524.99 184.294 524.748 185.565C522.466 197.5 523.08 209.523 524.032 221.565C525.01 233.94 525.349 246.238 525.496 258.64C520.043 257.004 514.425 257.13 508.84 256.107C502.468 254.941 496.549 252.149 490.531 249.878C478.515 245.343 466.138 241.895 453.606 239.109C452.342 238.829 451.8 240.765 453.069 241.048C465.601 243.831 477.98 247.279 489.995 251.815C495.73 253.981 501.366 256.621 507.405 257.86C510.549 258.504 513.754 258.735 516.937 259.089C518.623 259.277 520.309 259.49 521.974 259.823C523.24 260.075 524.759 260.819 526.027 260.83C528.661 260.852 527.477 255.256 527.452 253.541C527.401 250.232 527.335 246.922 527.241 243.613C527.048 236.889 526.738 230.168 526.201 223.461Z" fill="#FFF6E4"/>
<path d="M359.206 96.5092C357.176 102.746 356.096 109.237 354.833 115.659C354.585 116.922 356.529 117.463 356.778 116.194C358.041 109.772 359.121 103.281 361.151 97.0448C361.552 95.8106 359.605 95.2829 359.206 96.5092Z" fill="#C34A22"/>
<path d="M377.905 101.998C375.127 108.094 372.139 114.082 368.941 119.97C368.323 121.106 370.063 122.123 370.682 120.983C373.88 115.096 376.868 109.108 379.647 103.012C380.18 101.844 378.443 100.821 377.905 101.998Z" fill="#C34A22"/>
<path d="M390.45 118.647C386.191 123.862 381.683 128.851 376.928 133.619C376.012 134.537 377.438 135.959 378.355 135.04C383.11 130.272 387.617 125.282 391.877 120.068C392.688 119.073 391.27 117.642 390.45 118.647Z" fill="#C34A22"/>
<path d="M302.049 160.579C297.893 158.268 292.954 160.273 290.742 164.311C289.361 166.831 288.95 170.599 290.705 173.051C293.096 176.389 298.246 175.46 301.1 173.281C303.121 171.737 304.81 169.278 305.175 166.739C305.545 164.172 304.294 161.827 302.049 160.579Z" fill="#FFF6E4"/>
<path d="M461.463 55.506C460.833 55.4057 460.243 55.3577 459.829 55.3311C457.768 55.2014 454.438 54.94 453.472 57.2296C452.541 59.4348 456.226 59.8838 457.523 59.9969C459.456 60.1659 463.373 60.6445 464.476 58.5533C465.526 56.5604 463.325 55.8037 461.463 55.506Z" fill="#FFF6E4"/>
<path d="M371.437 230.617V247.817C370.77 247.596 370.105 247.375 369.42 247.154V229.973C369.42 229.974 370.145 230.215 371.437 230.617Z" fill="#FFF6E4"/>
<path d="M552.511 73.7069C550.813 71.4173 547.86 69.6789 546.112 67.5681C543.772 64.7419 543.298 61.1089 542.105 57.76C540.876 54.3098 538.149 52.1322 535.778 49.4692C533.142 46.5083 532.033 43.3716 531.63 39.4979C531.248 35.8129 531.152 31.8634 528.802 28.7857C525.72 24.7508 520.23 24.1023 516.752 20.6039C513.021 16.853 513.028 11.3765 507.342 9.60378C504.917 8.84712 502.39 9.02105 499.892 8.91296C496.373 8.76163 493.467 7.53819 490.096 6.97511C485.226 6.16145 481.614 8.85202 478.208 11.9346C478.128 11.8492 478.027 11.7716 477.89 11.7126C473.005 9.62932 467.51 10.0804 463.227 13.3635C461.195 14.9211 460.041 16.742 458.967 19.0218C457.24 22.6872 454.986 24.1867 452.306 26.9029C447.304 31.9735 448.4 39.6384 445.282 45.6131C441.846 52.1991 433.916 55.2699 431.246 62.4189C430.651 64.0138 429.911 66.6464 430.705 68.3356C432.008 71.1087 435.537 69.9206 436.645 73.5703C437.576 76.6363 435.818 79.94 437.161 83.0159C437.97 84.8712 439.55 86.0474 441.339 86.8945C445.012 88.6328 449.62 88.0166 452.81 90.8803C455.281 93.0981 456.411 96.057 459.446 97.814C463.105 99.9336 467.249 99.7519 470.284 97.1979C470.358 96.4904 470.425 95.7808 470.497 95.0851C470.631 93.788 470.755 92.4869 470.811 91.1839C470.822 90.9068 470.803 90.5707 470.801 90.2444C470.71 90.2081 470.631 90.156 470.517 90.1481C465.308 89.76 460.42 87.1303 457.654 82.608C455.289 78.7412 455.168 74.2454 454.913 69.8469C454.361 60.2953 454.053 50.7575 455.668 41.2912C457.189 40.3509 458.987 39.8506 460.423 38.7058C462.428 37.108 463.162 34.8262 465.249 33.3817C466.79 32.3145 468.678 31.7278 470.015 30.4041C471.645 28.7916 472.545 27.0926 474.018 25.702C473.063 29.8775 474.029 34.1216 479.255 34.6611C481.955 34.9401 483.926 36.5862 485.258 38.8689C485.86 39.8998 486.267 40.7655 487.207 41.5497C487.309 41.6352 487.424 41.6784 487.529 41.7561C487.649 41.9733 487.771 42.1688 487.898 42.3084C489.657 44.2531 491.799 44.1981 493.883 45.4313C496.449 46.9495 497.744 48.8952 497.697 51.8639C497.659 54.1978 497.259 57.2323 499.292 58.9088C500.807 60.1577 502.002 58.6788 502.867 57.4799C503.901 56.0461 505.118 54.6793 507.045 54.6527C511.993 54.585 510.711 61.4588 509.418 64.2014C508.785 65.5438 507.769 66.7633 506.404 67.3539C504.504 68.1774 502.614 68.0191 501.177 69.7291C499.708 71.4763 498.485 73.419 497.481 75.464C495.466 79.5726 494.323 84.0772 493.759 88.6023C493.2 93.1011 494.296 103.174 501.136 100.576C505.099 99.0718 508.938 97.3099 512.656 95.2817C516.081 93.4125 520.017 95.2738 523.6 94.2027C526.102 93.4549 527.611 91.4738 529.405 89.7492C531.252 87.9754 533.717 87.0831 536.201 86.6449C538.29 86.2764 540.474 86.1388 542.449 85.3183C544.379 84.5164 546.133 83.2615 548.21 82.836C550.642 82.3378 552.834 81.7747 553.581 79.0379C554.174 76.8712 553.6 75.175 552.511 73.7069Z" fill="#471F1E"/>
<path d="M485.229 56.7078C484.563 56.6016 483.938 56.5505 483.499 56.523C481.316 56.3864 477.79 56.1093 476.767 58.5336C475.782 60.8684 479.683 61.344 481.057 61.4639C483.104 61.6428 487.251 62.1498 488.417 59.9358C489.531 57.8241 487.202 57.0232 485.229 56.7078Z" fill="#FFF6E4"/>
<path d="M483.873 56.9667C483.388 56.3555 482.43 56.3053 481.762 56.6188C481.724 56.6365 481.701 56.665 481.664 56.6847C481.625 56.6994 481.581 56.6975 481.543 56.7162C480.744 57.0935 480.288 58.1361 480.045 58.8799C479.541 60.4316 480.894 62.1877 482.69 61.2109C483.883 60.5634 484.772 58.0987 483.873 56.9667Z" fill="#471F1E"/>
<path d="M460.183 55.7457C459.725 55.1679 458.821 55.1207 458.189 55.4175C458.154 55.4343 458.132 55.4618 458.098 55.4795C458.06 55.4932 458.019 55.4922 457.982 55.5089C457.228 55.8657 456.798 56.8502 456.568 57.5528C456.092 59.0181 457.369 60.6769 459.066 59.7551C460.192 59.1429 461.032 56.8149 460.183 55.7457Z" fill="#471F1E"/>
<path d="M489.759 52.4765C489.851 52.5178 489.907 52.5747 489.98 52.6249C490.774 52.959 491.218 53.8473 490.312 54.3328C488.94 55.0679 487.13 54.2797 485.612 54.039C483.506 53.7039 481.346 53.5643 479.226 53.3255C478.687 53.2646 478.131 52.8745 478.065 52.4234C477.469 48.2943 487.554 51.4968 489.759 52.4765Z" fill="#471F1E"/>
<path d="M452.933 49.0814C452.836 49.106 452.77 49.1532 452.688 49.1885C451.849 49.3812 451.257 50.1781 452.064 50.8129C453.287 51.774 455.208 51.3112 456.746 51.3367C458.878 51.3711 461.029 51.607 463.159 51.7386C463.7 51.772 464.314 51.4841 464.458 51.0508C465.764 47.0895 455.274 48.4987 452.933 49.0814Z" fill="#471F1E"/>
<path d="M491.301 54.0233C491.137 53.9114 490.942 53.8495 490.746 53.8062C490.603 53.7747 490.46 53.7482 490.313 53.7247C489.131 53.536 487.833 53.5792 486.656 53.5133C485.215 53.4338 483.773 53.3649 482.331 53.307C480.987 53.2529 479.642 53.2077 478.297 53.1734C477.642 53.1567 476.98 53.1655 476.33 53.1153C475.901 53.082 475.478 53.0977 475.196 53.48C475.12 53.5831 475.07 53.703 475.038 53.8258C474.918 54.2995 474.811 54.837 474.711 55.3982C472.079 54.5107 469.677 54.1521 467.001 54.7997C467.107 54.1109 467.195 53.4505 467.259 52.8569C467.294 52.5268 467.164 52.1475 466.879 51.95C466.715 51.8369 466.519 51.776 466.323 51.7328C466.181 51.7013 466.038 51.6747 465.89 51.6522C464.708 51.4635 463.409 51.5067 462.234 51.4409C460.792 51.3613 459.35 51.2934 457.909 51.2345C456.565 51.1805 455.219 51.1353 453.874 51.1009C453.22 51.0832 452.558 51.093 451.907 51.0429C451.478 51.0095 451.055 51.0252 450.774 51.4065C450.698 51.5096 450.648 51.6295 450.617 51.7524C449.304 56.9615 448.875 68.2339 456.513 68.7881C462.712 69.2381 465.443 62.5304 466.616 56.9153C466.715 56.9163 466.812 56.9213 466.923 56.8888C469.6 56.0968 471.846 56.5203 474.43 57.4176C473.865 63.004 474.777 70.4145 480.936 70.8616C488.765 71.4295 491.074 60.571 491.681 54.9294C491.716 54.5992 491.588 54.2199 491.301 54.0233ZM458.943 66.3039C451.689 69.6352 451.673 57.6976 452.478 53.0299C456.68 53.2471 460.895 53.1999 465.081 53.6441C464.529 58.1094 463.254 64.3238 458.943 66.3039ZM483.364 68.3764C476.111 71.7076 476.094 59.77 476.899 55.1034C481.102 55.3204 485.317 55.2734 489.503 55.7175C488.95 60.1818 487.675 66.3963 483.364 68.3764Z" fill="#E87046"/>
<path d="M472.527 72.5943C470.32 74.3357 467.358 74.2324 465.24 72.4135C464.261 71.5733 462.829 72.9884 463.814 73.8344C466.836 76.4307 470.839 76.4719 473.953 74.0153C474.97 73.2124 473.535 71.7993 472.527 72.5943Z" fill="#471F1E"/>
<path d="M471.709 65.9172C470.554 65.5605 469.265 65.534 468.96 64.3587C468.775 63.6423 469.807 61.6936 470.043 60.9547C470.817 58.5225 471.589 56.0914 472.363 53.6593C472.756 52.424 470.81 51.8944 470.418 53.1256C469.799 55.0713 469.182 57.0161 468.562 58.9618C467.979 60.7965 466.902 62.8905 466.706 64.7979C466.469 67.1229 469.436 67.3194 471.173 67.856C472.415 68.2392 472.947 66.2995 471.709 65.9172Z" fill="#471F1E"/>
<path d="M480.159 89.0747C476.75 90.3276 473.213 90.2676 469.635 90.134C468.336 90.0858 468.338 92.0954 469.635 92.1436C473.393 92.2841 477.119 92.3264 480.695 91.0126C481.903 90.5684 481.38 88.6256 480.159 89.0747Z" fill="#471F1E"/>
<path d="M495.472 31.1807C493.764 31.1325 492.263 27.8425 490.686 26.9955C489.139 26.1641 487.464 26.3872 485.877 25.8241C482.987 24.7991 484.226 19.306 480.585 19.873C479.308 20.0725 479.85 22.0093 481.122 21.8108C481.236 21.7931 482.479 25.7072 482.857 26.2044C483.72 27.3394 484.892 27.6676 486.239 27.9182C487.406 28.1354 488.586 28.1677 489.668 28.7309C490.969 29.407 491.343 30.6245 492.292 31.6141C493.242 32.6056 494.068 33.1499 495.471 33.1903C496.771 33.2266 496.769 31.2171 495.472 31.1807Z" fill="#6E4645"/>
<path d="M515.808 37.3111C515.18 34.1989 514.932 30.7616 513.009 28.1024C511.038 25.3784 508.663 25.7479 506.039 24.3545C503.409 22.9591 504.381 19.4912 501.986 17.8678C500.407 16.7967 498.582 16.9372 496.958 17.7754C495.804 18.3699 496.823 20.1054 497.975 19.5109C502.029 17.4187 501.803 21.54 502.323 23.1222C502.445 23.4985 502.555 23.9584 502.763 24.3024C503.359 25.2831 504.052 25.7332 505.091 26.1517C507.581 27.1541 509.683 27.0372 511.441 29.4703C513.128 31.8071 513.311 35.102 513.864 37.8446C514.12 39.1114 516.064 38.5758 515.808 37.3111Z" fill="#6E4645"/>
<path d="M511.208 47.3037C510.17 46.6827 508.668 46.1157 507.807 45.2598C506.878 44.3351 507.714 42.8473 507.525 41.7103C507.244 40.0349 505.701 39.0099 504.122 39.8688C502.981 40.4879 503.999 42.2243 505.139 41.6042C505.747 41.2741 505.353 43.9135 505.346 44.2005C505.335 44.8461 505.446 45.5104 505.804 46.0626C506.695 47.4325 508.836 48.2285 510.19 49.0392C511.305 49.7074 512.32 47.97 511.208 47.3037Z" fill="#6E4645"/>
<path d="M538.272 75.2986C534 72.7515 537.031 68.2065 535.2 64.9598C534.442 63.6135 533.369 63.5142 532.158 62.7467C530.49 62.4913 529.665 61.4309 529.683 59.5668C529.675 59.0391 529.67 58.5114 529.663 57.9837C529.562 57.0738 529.538 55.6842 529.115 54.8146C528.337 53.2177 527.542 52.7018 525.826 52.5111C524.539 52.3687 524.549 54.3792 525.826 54.5207C528.542 54.8215 527.074 60.7707 528.262 62.5935C529.115 63.9024 530.47 63.8779 531.621 64.6826C535.727 67.5531 532.405 74.1419 537.254 77.0329C538.372 77.6992 539.386 75.9618 538.272 75.2986Z" fill="#6E4645"/>
<path d="M520.698 81.3503C520.372 81.1921 519.594 77.3361 519.568 77.0323C519.49 76.1372 519.739 75.2351 519.621 74.3202C519.424 72.8148 518.62 71.6189 518.255 70.1596C517.494 67.124 519.001 64.3322 517.592 61.3606C517.037 60.1922 515.298 61.2113 515.85 62.3748C517.038 64.8787 515.38 67.5919 515.949 70.1478C516.41 72.2193 517.566 73.2353 517.668 75.6743C517.791 78.6272 516.386 81.478 519.678 83.0848C520.841 83.6528 521.864 81.9203 520.698 81.3503Z" fill="#6E4645"/>
<path d="M506.776 82.0684C506.735 79.9183 506.052 78.0807 506.473 75.8648C506.712 74.601 504.769 74.0596 504.528 75.3302C504.304 76.5094 504.159 77.6778 504.239 78.8836C504.343 80.4519 504.958 81.8473 504.499 83.4176C503.901 85.4607 502.993 86.8973 504.035 88.9541C504.62 90.1087 506.36 89.0926 505.777 87.9399C504.829 86.0689 506.812 83.9954 506.776 82.0684Z" fill="#6E4645"/>
<path d="M469.426 18.2142C466.501 19.8071 464.93 22.081 463.822 25.1509C462.791 28.0036 461.122 28.5559 458.968 30.2067C457.467 31.3575 456.439 32.8816 455.416 34.4421C454.705 35.528 456.45 36.5362 457.158 35.4563C458.446 33.4899 459.737 32.122 461.712 30.8593C462.82 30.1507 463.835 29.5445 464.579 28.434C465.376 27.245 465.643 25.8309 466.195 24.5289C467.078 22.4456 468.451 21.0325 470.444 19.9476C471.583 19.3285 470.567 17.5931 469.426 18.2142Z" fill="#6E4645"/>
<path d="M445.997 56.6288C444.513 60.4367 438.492 61.9098 439.438 66.6099C439.694 67.8767 441.638 67.3401 441.383 66.0754C440.929 63.825 443.882 62.3599 445.267 61.0579C446.457 59.9386 447.349 58.6846 447.942 57.1625C448.413 55.9567 446.463 55.4339 445.997 56.6288Z" fill="#6E4645"/>
<path d="M448.427 70.2082C447.053 73.0038 444.367 74.8081 444.065 78.1001C443.948 79.3874 445.965 79.3796 446.082 78.1001C446.33 75.3781 449.015 73.569 450.169 71.2223C450.738 70.0657 448.998 69.0457 448.427 70.2082Z" fill="#6E4645"/>
<path d="M451.638 79.8252C451.159 80.7205 450.748 81.6432 450.39 82.5925C449.932 83.804 451.881 84.3278 452.335 83.1271C452.633 82.3379 452.983 81.5832 453.379 80.8403C453.989 79.6984 452.248 78.6824 451.638 79.8252Z" fill="#6E4645"/>
<path d="M645.497 28.6885C643.756 28.5244 642.594 28.8605 640.872 29.2192C638.034 29.8108 636.97 29.4315 634.315 28.888C631.909 28.3957 630.398 28.2708 628.046 29.2712C626.689 29.8491 625.579 30.8741 624.258 31.502C620.789 33.1499 618.803 32.4306 615.33 32.0758C612.67 31.8036 610.6 31.7997 608.235 33.1126C607.1 33.7425 608.116 35.4778 609.252 34.8479C613.076 32.7264 616.525 34.9669 620.426 34.7271C622.811 34.5807 624.502 33.6177 626.537 32.4689C629.16 30.99 630.448 30.2382 633.78 30.8269C634.801 31.0077 635.742 31.4882 636.787 31.6248C639.833 32.0248 642.449 30.4112 645.498 30.6991C646.788 30.82 646.779 28.8094 645.497 28.6885Z" fill="#471F1E"/>
<path d="M640.254 39.4941C637.495 39.499 635.389 37.7057 632.712 37.3873C629.7 37.0286 627.363 38.6235 624.477 38.9054C621.827 39.165 619.228 38.5261 617.008 37.2653C616.348 36.89 615.697 36.4803 614.958 36.265C612.892 35.6626 610.797 36.2513 608.805 36.8203C607.56 37.1769 608.089 39.1158 609.342 38.7581C613.617 37.5347 615.403 39.3723 618.917 40.7205C620.343 41.2668 621.719 41.3484 623.214 41.1774C626.979 40.748 630.062 38.7306 633.876 39.9285C636.06 40.6154 637.945 41.5076 640.254 41.5037C641.552 41.5017 641.553 39.4921 640.254 39.4941Z" fill="#471F1E"/>
<path d="M636.378 49.2653C633.434 48.7789 631.691 47.1426 629.063 46.1147C627.028 45.3198 624.805 45.3611 622.66 45.3846C620.79 45.4053 619.03 45.6451 617.231 44.742C616.024 44.1366 615.117 42.8444 613.971 42.1359C612.207 41.0461 610.952 40.7395 608.844 40.8319C607.551 40.8889 607.544 42.8984 608.844 42.8415C612.07 42.7009 614.211 45.5684 616.851 46.7673C618.225 47.3913 619.451 47.4237 620.958 47.4305C624.523 47.4473 627.114 47.581 630.511 49.2643C632.404 50.2018 633.679 50.8454 635.841 51.2031C637.111 51.4124 637.656 49.4765 636.378 49.2653Z" fill="#471F1E"/>
<path d="M580.531 27.6637C578.363 26.8569 573.107 23.9717 571.987 22.6432C570.416 20.7819 569.445 18.8058 566.983 17.9607C566.323 17.7347 565.608 17.715 564.918 17.603C562.441 17.1991 560.314 16.7107 558.239 15.2377C556.061 13.692 554.923 12.555 552.07 12.4578C550.773 12.4134 550.774 14.423 552.07 14.4673C556.371 14.6137 556.826 17.8919 559.981 19.1605C560.84 19.5065 561.672 19.4229 562.536 19.5959C566.839 20.4538 567.77 20.5854 570.244 23.6573C572.787 26.8137 576.137 28.1659 579.995 29.6006C581.213 30.0545 581.738 28.1128 580.531 27.6637Z" fill="#471F1E"/>
<path d="M579.799 31.6756C576.719 30.2989 573.946 30.5681 571.104 28.3443C569.735 27.2722 568.796 26.2089 567.049 25.8041C565.558 25.4592 563.881 25.8119 562.369 25.7677C559.526 25.6843 558.289 24.3104 555.988 23.1273C553.703 21.953 552.161 21.5412 549.471 21.6336C548.177 21.6778 548.171 23.6874 549.471 23.6432C552.918 23.5253 554.926 25.6744 557.774 26.9539C559.774 27.852 561.691 27.6427 563.801 27.7449C567.027 27.9002 568.793 29.4558 571.227 31.0919C573.535 32.6426 576.289 32.2986 578.78 33.4111C579.956 33.9358 580.982 32.2043 579.799 31.6756Z" fill="#471F1E"/>
<path d="M577.619 35.5276C574.651 36.0788 573.109 34.2913 570.534 34.0083C568.568 33.7921 566.696 34.5439 564.789 34.8308C559.767 35.5875 556.012 31.1163 551.075 32.6326C549.839 33.0119 550.367 34.9526 551.611 34.5704C555.073 33.5072 557.615 36.1623 560.676 36.8079C562.263 37.142 563.752 37.0301 565.325 36.7687C568.269 36.2793 570.548 36.5652 573.513 37.2197C575.311 37.6168 576.28 37.8133 578.156 37.4653C579.43 37.2286 578.891 35.2917 577.619 35.5276Z" fill="#471F1E"/>
<path d="M585.384 23.6344C584.738 23.2561 584.098 23.4861 583.691 23.9647C583.629 24.0177 583.563 24.058 583.509 24.1307C582.927 24.9237 582.588 26.3093 583.514 26.9904C584.377 27.6251 585.429 27.0669 585.793 26.1708C586.118 25.3728 586.243 24.1367 585.384 23.6344Z" fill="#471F1E"/>
<path d="M601.77 26.4196C601.123 26.0413 600.484 26.2712 600.076 26.7498C600.014 26.8028 599.948 26.8432 599.895 26.9149C599.313 27.7079 598.974 29.0935 599.9 29.7744C600.762 30.4093 601.815 29.8511 602.179 28.9549C602.504 28.159 602.629 26.9227 601.77 26.4196Z" fill="#471F1E"/>
<path d="M592.023 30.6941C591.306 30.3787 590.456 30.4367 589.695 30.3384C589.073 30.2588 588.146 29.9247 587.559 30.247C587.248 30.418 587.029 30.8179 587.091 31.1727C587.209 31.8458 587.517 32.5534 587.835 33.1578C587.925 33.3306 588.035 33.5056 588.152 33.6746C587.978 34.6446 587.854 35.6193 587.808 36.6059C587.746 37.8981 589.763 37.8952 589.825 36.6059C589.86 35.8561 589.972 35.125 590.093 34.39C590.87 34.0952 591.649 33.367 592.085 32.9169C592.4 32.5916 592.718 32.1711 592.749 31.7033C592.778 31.2287 592.441 30.8779 592.023 30.6941Z" fill="#471F1E"/>
<path d="M90.3162 263.541C87.9552 263.821 89.3083 270.826 89.3083 275.974C89.3083 281.124 88.9986 282.127 93.0896 282.756C97.1806 283.385 133.677 280.244 158.13 280.244C182.583 280.244 205.65 279.868 206.784 277.984C207.918 276.099 209.179 263.415 208.548 261.532C207.918 259.648 111.492 261.029 90.3162 263.541Z" fill="#C34A22"/>
<path d="M249.278 28.2789C234.814 41.3927 220.565 59.7688 221.132 80.1811C221.152 80.8847 221.758 81.1923 222.301 81.1294C222.581 81.4242 223.003 81.5519 223.446 81.2493C231.281 75.9075 235.608 67.0053 240.01 58.8992C245.089 49.548 249.372 39.8422 250.963 29.2567C251.108 28.2907 250.074 27.5576 249.278 28.2789Z" fill="#2B7663"/>
<path d="M98.9837 385.149C97.4086 379.855 90.4703 378.52 86.1229 381.158C84.1465 382.358 82.7992 384.241 82.0289 386.39C81.3248 388.352 80.9944 390.525 81.2863 392.6C82.0072 397.72 87.5914 399.626 92.0365 398.013C96.9726 396.223 100.525 390.333 98.9837 385.149Z" fill="#EEA614"/>
<path d="M120.466 449.479C117.791 454.17 114.597 459.057 110.472 462.625C107.724 465.003 105.468 464.979 104.243 468.455C103.621 470.222 103.718 472.977 102.754 474.54C101.324 476.858 98.1322 477.671 96.136 479.338C93.1329 481.846 92.2472 485.908 91.5045 489.537C91.2462 490.801 93.1901 491.34 93.4495 490.072C94.0935 486.924 94.7158 483.763 97.1017 481.446C98.7782 479.816 100.755 479.808 102.488 478.468C105.269 476.315 104.783 472.681 105.961 469.706C107.172 466.651 111.341 464.713 113.66 462.237C116.996 458.675 119.794 454.726 122.207 450.493C122.849 449.366 121.108 448.353 120.466 449.479Z" fill="#471F1E"/>
<path d="M136.15 455.845C133.153 458.557 130.121 461.322 127.79 464.645C124.862 468.822 123.62 473.648 120.216 477.565C114.982 483.588 108.118 488.029 106.402 496.304C106.141 497.567 108.084 498.107 108.347 496.839C110.174 488.027 118.21 483.807 123.241 477.05C125.374 474.183 126.43 470.873 128.18 467.801C130.536 463.661 134.078 460.431 137.577 457.264C138.539 456.396 137.109 454.978 136.15 455.845Z" fill="#E87046"/>
<path d="M154.25 466.142C149.197 467.536 148.761 471.371 146.403 475.479C143.338 480.816 139.214 485.755 135.663 490.783C134.915 491.843 136.663 492.848 137.405 491.798C140.173 487.879 142.946 483.964 145.71 480.041C148.234 476.458 150.366 469.299 154.788 468.081C156.037 467.737 155.506 465.798 154.25 466.142Z" fill="#471F1E"/>
<path d="M182.457 484.51C176.2 487.957 174.149 494.573 169.894 499.886C168.596 501.508 167.853 503.444 166.649 505.115C165.44 506.793 163.85 507.912 162.342 509.277C159.957 511.436 158.47 513.314 158.491 516.603C158.499 517.896 160.516 517.899 160.508 516.603C160.478 511.874 164.896 510.4 167.394 507.463C169.435 505.063 170.634 502.186 172.714 499.772C176.716 495.13 177.676 489.44 183.475 486.245C184.611 485.618 183.595 483.882 182.457 484.51Z" fill="#E87046"/>
<path d="M449.187 517.765C448.535 515.739 447.786 513.783 446.773 511.903C445.106 508.808 442.638 506.867 442.747 502.991C442.792 501.403 443.421 500.148 443.15 498.494C442.621 495.257 439.811 492.719 441.381 489.156C441.898 487.984 440.161 486.959 439.64 488.143C438.85 489.933 438.674 491.253 439.099 493.218C439.424 494.717 440.373 496 440.77 497.464C441.656 500.725 440.626 501.192 440.541 503.89C440.478 505.866 441.073 506.965 442.174 508.574C444.341 511.738 446.045 514.584 447.241 518.299C447.637 519.527 449.585 519.002 449.187 517.765Z" fill="#471F1E"/>
<path d="M466.371 521.262C464.785 515.259 464.66 509.033 463.185 503.061C462.689 501.054 461.764 499.419 460.64 497.694C458.437 494.311 458.103 491.161 458.199 487.181C458.23 485.888 456.213 485.888 456.182 487.181C456.124 489.573 456.065 491.992 456.701 494.322C457.373 496.784 459.088 498.501 460.217 500.72C461.739 503.712 461.709 507.241 462.142 510.5C462.648 514.322 463.441 518.07 464.425 521.797C464.756 523.045 466.702 522.515 466.371 521.262Z" fill="#471F1E"/>
<path d="M488.442 516.232C487.227 510.73 486.113 505.196 484.79 499.719C483.439 494.125 479.152 490.2 479.797 484.19C479.934 482.906 477.917 482.916 477.78 484.19C477.54 486.422 477.333 488.683 478.17 490.82C479.295 493.7 481.508 495.573 482.449 498.673C484.228 504.54 485.176 510.779 486.498 516.766C486.776 518.03 488.72 517.495 488.442 516.232Z" fill="#471F1E"/>
<path d="M536.671 522.334C534.809 520.912 530.941 518.637 529.772 516.479C528.226 513.625 530.1 514.001 531.296 512.56C532.663 510.915 531.334 506.479 530.987 504.655C530.129 500.141 528.173 496.033 526.495 491.786C524.78 487.448 520.617 484.251 520.886 479.335C520.957 478.043 518.939 478.047 518.869 479.335C518.598 484.293 521.235 485.992 523.547 489.918C524.784 492.018 525.404 494.701 526.375 496.966C527.908 500.547 529.629 504.798 529.574 508.787C529.532 511.869 528.924 510.423 527.361 512.205C526.475 513.218 526.28 513.907 526.529 515.263C527.174 518.793 532.983 522.032 535.652 524.069C536.683 524.855 537.689 523.11 536.671 522.334Z" fill="#471F1E"/>
<path d="M598.911 35.4517C598.492 34.5731 597.47 34.7058 596.668 34.8532C595.855 35.0016 594.797 35.2492 594.586 36.1788C594.404 36.9807 594.878 37.8631 595.509 38.3377C595.967 38.6827 596.481 38.7799 596.969 38.7259C597.098 38.723 597.223 38.6965 597.351 38.668C597.829 38.5549 598.265 38.2985 598.567 37.8356C598.982 37.1998 599.251 36.167 598.911 35.4517Z" fill="#DE9254"/>
<path d="M621.727 115.524C618.135 112.763 613.395 109.795 608.621 110.42C604.109 111.012 602.653 115.443 604.284 119.287C605.839 122.955 609.763 125.763 613.59 127.07C613.704 127.125 613.804 127.193 613.922 127.245C617.583 128.888 622.932 129.529 625.606 125.856C628.58 121.772 624.907 117.968 621.727 115.524Z" fill="#C34A22"/>
<path d="M615.932 17.9052C615.871 18.1067 615.812 18.3268 615.731 18.5282C614.48 21.8035 611.677 23.5517 608.168 22.5071C602.359 20.7786 600.464 14.7508 601.069 9.28516C601.776 9.36574 602.542 9.48661 603.328 9.60649C608.712 10.4909 611.032 12.5408 611.355 12.6606C611.596 12.6401 613.512 11.0933 615.57 9.44533C616.698 12.2981 617.122 15.4534 615.932 17.9052Z" fill="#C34A22"/>
<path d="M582.619 63.0762C583.145 61.9058 581.407 60.8829 580.877 62.0621C579.127 65.9545 577.073 69.839 575.68 73.8788C574.348 77.7407 574.969 81.2872 575.031 85.2818C575.11 90.4595 572.98 95.4113 571.625 100.347C570.273 105.271 569.086 110.232 568.01 115.223C567.739 116.483 569.682 117.022 569.955 115.755C571.866 106.902 575.368 98.095 576.818 89.2027C577.466 85.2258 576.309 81.2646 576.932 77.3015C577.706 72.3822 580.586 67.5985 582.619 63.0762Z" fill="#DE9254"/>
<path d="M601.518 134.57C594.742 132.904 583.599 130.456 578.554 136.854C577.761 137.859 579.178 139.291 579.979 138.274C584.431 132.631 595.049 135.049 600.982 136.509C602.242 136.819 602.779 134.881 601.518 134.57Z" fill="#DE9254"/>
<path d="M409.673 518.508C409.122 518.917 398.743 563.543 399.069 563.856C399.394 564.167 471.844 591.479 472.398 591.231C472.951 590.981 483.489 544.402 483.164 544.089C482.837 543.776 409.673 518.508 409.673 518.508Z" fill="#FFF6E4"/>
<path d="M411.704 559.833C411.171 558.141 410.098 555.126 411.403 553.573C412.157 552.675 413.93 552.64 414.658 551.778C416.022 550.161 415.172 547.009 415.519 545.09C416.534 539.472 420.444 535.544 419.102 529.577C418.912 528.724 417.61 529.097 417.799 529.944C418.764 534.232 416.776 537.253 415.279 541.053C414.598 542.779 414.15 544.568 413.967 546.417C413.865 547.441 414.261 549.539 413.723 550.318C413.255 550.995 412.358 550.895 411.61 551.381C410.907 551.838 410.376 552.593 410.026 553.329C408.976 555.539 409.706 557.996 410.401 560.2C410.664 561.031 411.966 560.664 411.704 559.833Z" fill="#471F1E"/>
<path d="M425.205 563.296C425.683 561.462 426.154 559.621 426.122 557.713C426.078 555.101 425.705 552.936 426.512 550.372C427.808 546.248 429.962 542.415 431.335 538.291C431.61 537.467 430.291 537.151 430.017 537.973C428.645 542.097 426.486 545.922 425.194 550.052C424.684 551.684 424.437 553.322 424.511 555.032C424.634 557.871 424.623 560.162 423.889 562.976C423.669 563.818 424.986 564.139 425.205 563.296Z" fill="#D59512"/>
<path d="M440.106 561.001C440.881 557.595 442.28 554.597 443.438 551.332C444.457 548.456 443.108 545.814 445.312 543.198C445.87 542.535 444.897 541.593 444.336 542.259C443.57 543.168 442.935 544.066 442.629 545.239C442.215 546.825 442.837 548.379 442.506 549.953C442.185 551.475 441.193 552.984 440.636 554.447C439.861 556.485 439.272 558.556 438.789 560.682C438.596 561.529 439.913 561.852 440.106 561.001Z" fill="#D59512"/>
<path d="M465.873 572.274C465.421 567.418 469.363 562.858 469.079 557.965C469.028 557.096 467.674 557.118 467.724 557.989C468.009 562.879 464.064 567.403 464.519 572.299C464.6 573.162 465.954 573.142 465.873 572.274Z" fill="#471F1E"/>
</g>
<defs>
<clipPath id="clip0_868_1072">
<rect width="662" height="609" fill="white" transform="translate(0.351562)"/>
</clipPath>
</defs>
</svg>
