<svg width="127" height="6" viewBox="0 0 127 6" fill="none" xmlns="http://www.w3.org/2000/svg">
<path d="M124.662 3.50879C114.473 2.95372 104.318 2.92262 94.1025 2.92262C91.943 2.92262 89.7834 2.92262 87.6239 2.92262C84.5522 2.92262 81.7862 2.53224 78.7628 2.35817C74.7913 2.1295 70.6292 2.33646 66.6454 2.33646C59.9635 2.33646 53.1913 2.10601 46.5238 2.34731C42.2062 2.50357 37.8975 2.53185 33.5494 2.53185C31.3617 2.53185 29.1535 2.47166 26.9679 2.53185C26.0083 2.55827 25.2572 2.86187 24.3456 2.99861C23.1015 3.18522 21.7274 3.19323 20.455 3.26998C16.9596 3.48082 13.3473 3.3134 9.82861 3.3134C7.94267 3.3134 4.10554 2.82794 2.493 3.50879" stroke="#020A13" stroke-width="3" stroke-linecap="round"/>
</svg>
