<svg width="201" height="7" viewBox="0 0 201 7" fill="none" xmlns="http://www.w3.org/2000/svg">
<path d="M1.5 1.5C18.0124 2.92042 34.472 3 51.0278 3C54.5278 3 58.0278 3 61.5278 3C66.506 3 70.989 3.999 75.8889 4.44444C82.3256 5.0296 89.0712 4.5 95.5278 4.5C106.357 4.5 117.333 5.08971 128.139 4.47222C135.136 4.07236 142.12 4 149.167 4C152.712 4 156.291 4.15401 159.833 4C161.389 3.93238 162.606 3.15547 164.083 2.80556C166.1 2.328 168.327 2.30751 170.389 2.11111C176.054 1.57158 181.908 2 187.611 2C190.668 2 196.887 3.2423 199.5 1.5" stroke="#020A13" stroke-width="3" stroke-linecap="round"/>
</svg>
