<svg width="144" height="7" viewBox="0 0 144 7" fill="none" xmlns="http://www.w3.org/2000/svg">
<path d="M2 3.75C3.78525 4.87284 5.70465 4.25 7.51177 4.25C9.99809 4.25 12.4844 4.25 14.9707 4.25C20.4171 4.25 25.8634 4.25 31.3097 4.25C36.7469 4.25 42.2031 4.75 47.6488 4.75C56.7757 4.75 65.9362 5.75542 75.0349 3.36111C77.6947 2.66117 80.4595 2.8128 83.1219 2.75C85.8174 2.68643 88.5135 2.75 91.209 2.75C96.5899 2.75 101.971 2.75 107.352 2.75C113.363 2.75 119.375 2.75 125.387 2.75C130.435 2.75 135.484 2.75 140.532 2.75C141.059 2.75 141.897 3.29148 142.338 2.25" stroke="black" stroke-width="3" stroke-linecap="round"/>
</svg>
