<svg width="202" height="5" viewBox="0 0 202 5" fill="none" xmlns="http://www.w3.org/2000/svg">
<path d="M1.60449 2.71875C18.1169 2.29588 34.5765 2.27219 51.1323 2.27219C54.6323 2.27219 58.1323 2.27219 61.6323 2.27219C66.6105 2.27219 71.0935 1.97478 75.9934 1.84217C82.43 1.66797 89.1757 1.82563 95.6323 1.82563C106.462 1.82563 117.437 1.65007 128.243 1.8339C135.241 1.95294 142.224 1.97449 149.271 1.97449C152.817 1.97449 156.396 1.92864 159.938 1.97449C161.493 1.99462 162.71 2.22591 164.188 2.33008C166.204 2.47225 168.431 2.47835 170.493 2.53682C176.158 2.69744 182.013 2.5699 187.716 2.5699C190.772 2.5699 196.991 2.20006 199.604 2.71875" stroke="#020A13" stroke-width="3" stroke-linecap="round"/>
</svg>
