<svg width="228" height="306" viewBox="0 0 228 306" fill="none" xmlns="http://www.w3.org/2000/svg">
<g clip-path="url(#clip0)">
<path d="M126.189 218.913C126.071 218.917 126.042 218.91 126.031 218.921C125.318 219.599 124.474 220.105 123.664 220.699C123.612 220.709 123.591 220.635 123.519 220.574C123.321 220.612 123.211 220.89 122.947 220.852C122.886 220.843 122.809 220.968 122.768 221.079C122.755 221.135 122.729 221.188 122.694 221.233C122.658 221.279 122.613 221.317 122.562 221.344C122.511 221.372 122.455 221.388 122.397 221.392C122.34 221.397 122.282 221.389 122.227 221.369C122.143 221.254 122.377 221.243 122.307 221.126C122.007 221.073 122.081 221.394 121.964 221.501C121.817 221.608 121.794 221.389 121.685 221.42C121.615 221.512 121.718 221.558 121.736 221.626C121.157 222.299 121.193 222.149 120.427 222.462C120.265 222.691 120.498 222.841 120.556 223.072C120.172 222.836 120.24 223.443 119.89 223.331C119.842 223.17 119.949 222.977 119.88 222.761C119.742 222.901 119.534 222.937 119.524 223.172C119.527 223.234 119.516 223.296 119.494 223.353C119.471 223.41 119.437 223.463 119.393 223.506C119.35 223.55 119.297 223.584 119.24 223.607C119.183 223.63 119.121 223.64 119.059 223.638C118.974 223.649 118.897 223.747 118.824 223.8L118.915 224.048C118.871 224.046 118.822 224.059 118.802 224.041C118.713 223.954 118.647 223.815 118.543 223.779C118.439 223.743 118.209 223.65 118.207 223.897C118.205 224.073 117.899 223.918 117.98 224.151C117.988 224.176 117.868 224.094 117.802 224.061C117.641 224.062 117.772 224.363 117.557 224.311C117.517 224.297 117.473 224.297 117.433 224.312C117.393 224.326 117.359 224.354 117.338 224.391C117.091 224.866 116.672 224.885 116.219 224.829C116.205 224.828 116.189 224.859 116.17 224.867C116.134 224.882 116.096 224.892 116.034 224.912L116.204 224.505C116.444 224.364 116.589 224.649 116.82 224.601C116.927 224.456 116.992 224.284 117.006 224.105C116.792 223.917 116.723 224.22 116.554 224.246C116.463 224.245 116.372 224.262 116.287 224.297C116.203 224.332 116.126 224.384 116.062 224.449C115.906 224.613 115.734 224.762 115.549 224.892C115.475 224.782 115.368 224.698 115.244 224.653C115.119 224.608 114.983 224.605 114.856 224.643C114.665 224.806 114.835 224.981 114.836 225.152C114.622 225.191 114.514 224.832 114.628 224.433C114.162 224.23 114.215 224.775 113.968 224.891C113.783 224.944 113.787 224.665 113.617 224.691C113.378 224.841 113.559 225.047 113.552 225.19C113.38 225.259 113.283 225.437 113.112 225.438C113.022 225.563 113.303 225.717 113.061 225.815C112.874 225.81 112.888 225.682 112.906 225.55C112.667 225.433 112.433 225.68 112.2 225.547C112.17 225.622 112.161 225.704 112.172 225.784C112.184 225.863 112.216 225.939 112.265 226.003C111.905 226.073 112.01 226.737 111.461 226.576C111.436 226.456 111.718 226.35 111.444 226.205C111.221 226.243 111.294 226.54 111.105 226.655C110.927 226.743 110.741 226.814 110.549 226.864C110.507 226.765 110.628 226.588 110.409 226.579C110.368 226.587 110.332 226.608 110.306 226.64C110.281 226.672 110.268 226.713 110.269 226.753C110.268 226.816 110.241 226.876 110.196 226.92C110.151 226.964 110.09 226.988 110.027 226.987C109.685 226.933 109.41 227.132 109.099 227.188C108.838 227.235 108.585 227.451 108.313 227.212C108.296 227.197 108.228 227.216 108.203 227.24C108.045 227.393 107.818 227.344 107.648 227.43C107.463 227.524 107.275 227.422 107.112 227.494C106.902 227.589 106.634 227.413 106.515 227.522C106.323 227.697 106.166 227.322 106.031 227.551C105.857 227.412 105.645 227.433 105.436 227.408L105.057 227.726C104.952 227.724 104.852 227.685 104.774 227.615C104.696 227.546 104.646 227.45 104.632 227.347C104.433 227.309 104.372 227.525 104.207 227.577L103.992 227.453L103.679 227.716L103.441 227.59C103.248 227.668 103.366 228.032 103.044 228.004C102.982 227.977 103.068 227.909 103 227.837C102.875 227.964 102.609 227.888 102.529 228.163C102.333 228.065 102.274 227.734 101.92 227.866L101.486 228.23C101.056 228.053 100.572 228.081 100.167 227.846C100.109 227.943 100.208 227.991 100.228 228.089C100.1 228.194 99.9065 228.007 99.7959 228.152C99.665 228.323 99.5596 228.182 99.4327 228.156C99.27 228.147 99.112 228.098 98.9725 228.014L98.783 228.173C98.7519 228.18 98.7194 228.177 98.69 228.165C98.6605 228.153 98.6356 228.131 98.6187 228.104C98.5806 228.059 98.5403 228.016 98.4978 227.976C98.3213 227.986 98.2655 228.159 98.0529 228.224C97.9128 228.238 97.6928 228.009 97.4647 228.239C97.4234 228.28 97.2769 228.128 97.1401 228.124C96.7416 228.111 96.3525 227.996 95.9469 228.02C95.7421 228.027 95.5387 227.984 95.3544 227.894C95.1715 227.812 94.9605 227.935 94.755 227.939C94.5577 227.942 94.4056 227.708 94.1908 227.864C94.1151 227.919 94.0613 227.769 93.9882 227.768C93.8203 227.769 93.6964 227.644 93.4876 227.701C93.1742 227.785 92.8653 227.523 92.5243 227.543C92.236 227.562 91.9484 227.498 91.6951 227.36C91.4821 227.24 91.2173 227.485 91.0418 227.237C90.6409 227.261 90.2774 227.059 89.8833 227.047C89.7192 227.05 89.5579 227.004 89.4202 226.915C89.3302 226.853 89.0871 227.024 89.1446 226.736C88.9419 226.743 88.7344 226.84 88.5421 226.667C88.5024 226.631 88.4133 226.761 88.2804 226.687C88.0041 226.536 87.6606 226.551 87.3764 226.389C87.2949 226.338 87.205 226.301 87.1108 226.28C86.4164 226.287 85.8485 225.872 85.2006 225.736C85.1387 225.724 85.0672 225.74 85.0119 225.716C84.5981 225.537 84.2285 225.248 83.7779 225.166C83.3526 225.07 82.946 224.905 82.5743 224.677C82.3584 224.557 82.1047 224.591 81.9185 224.431C81.7046 224.278 81.4461 224.2 81.1832 224.21L81.159 223.939C80.8016 224.093 80.4949 223.905 80.2081 223.752C80.1041 223.698 79.997 223.65 79.8873 223.607C79.1891 223.343 78.5202 223.007 77.8915 222.604C77.819 222.572 77.7436 222.547 77.6664 222.529C77.3017 222.401 76.9846 222.165 76.7575 221.852C76.5804 221.595 75.7727 221.069 75.3984 220.908C74.6586 220.591 73.9121 220.288 73.1827 219.949C72.6692 219.71 72.1756 219.424 71.6782 219.151C71.1524 218.838 70.6017 218.569 70.0316 218.346C70.0681 217.992 69.7295 217.944 69.5271 217.773C69.2939 217.575 69.0125 217.885 68.7928 217.687C68.5775 217.609 68.7232 217.37 68.597 217.258C68.4346 217.188 68.3932 217.378 68.2656 217.399C68.1382 217.38 68.1125 217.292 68.1439 217.153C68.1567 217.117 68.1355 217.1 68.0723 217.109C67.8679 217.119 67.667 217.055 67.5059 216.929C67.3987 216.838 67.2691 216.777 67.1307 216.753C66.9004 216.738 66.8228 216.586 66.8455 216.369C66.5552 216.35 66.2823 216.351 66.068 216.063C65.9771 215.94 65.6565 216.046 65.5494 215.808C65.4752 215.817 65.4002 215.8 65.3374 215.759C65.2746 215.719 65.228 215.658 65.2055 215.587C65.0985 215.344 64.9379 215.656 64.7843 215.51C64.3664 215.115 63.8514 214.84 63.4026 214.474C63.1661 214.281 62.983 213.982 62.6385 213.913C62.5255 213.891 62.5875 213.739 62.5604 213.65L62.2223 213.621C62.1228 213.459 61.8961 213.365 61.9064 213.125C61.9109 213.012 61.8366 213.057 61.7915 213.043C61.3031 212.89 60.9684 212.503 60.5516 212.243C60.2439 212.051 60.0751 211.698 59.7886 211.549C59.3143 211.302 59.1697 210.719 58.6511 210.556C58.4385 210.207 58.0511 209.993 57.9479 209.545C57.9004 209.343 57.6489 209.195 57.519 209.003C57.0493 208.309 56.6186 207.587 56.4669 206.752C56.3963 206.363 56.3933 205.944 56.2289 205.597C56.0492 205.215 56.0309 204.799 55.8539 204.416C55.7111 204.107 55.7556 203.711 55.7209 203.353C55.6642 202.762 55.6287 202.168 55.3406 201.623C55.3021 201.533 55.2786 201.438 55.271 201.341C55.2299 200.965 55.0762 200.61 55.0253 200.251C54.9337 199.883 54.8843 199.505 54.8781 199.125C54.9198 198.648 54.7148 198.173 54.9395 197.686C55.0566 197.433 54.9885 197.101 55.0626 196.82C55.1541 196.569 55.2007 196.305 55.2003 196.038C55.2162 195.879 55.2568 195.723 55.3208 195.577C55.4455 195.102 55.3685 194.61 55.4503 194.131C55.4923 193.888 55.4913 193.641 55.547 193.394C55.5956 193.178 55.5375 192.919 55.5792 192.686C55.7891 191.512 55.8849 190.31 56.4078 189.209C56.4855 189.045 56.331 188.85 56.3924 188.751C56.4784 188.611 56.4612 188.475 56.5016 188.342C56.7092 187.656 56.9044 186.965 57.1458 186.291C57.1991 186.142 57.2305 185.92 57.4426 185.851C57.5933 185.801 57.5777 185.632 57.5996 185.539C57.7245 185.136 57.9547 184.774 58.2663 184.49C58.3892 184.335 58.5 184.172 58.5975 184.001L59.0524 183.645C59.4228 183.527 59.4928 183.145 59.5683 182.878C59.6761 182.49 59.8486 182.133 59.9793 181.759C60.122 181.351 60.2834 180.944 60.4549 180.549C60.6648 180.066 60.8947 179.585 61.1396 179.118C61.5653 178.277 62.0458 177.465 62.5779 176.687C62.8715 176.27 63.1268 175.825 63.3877 175.386C63.6559 174.858 63.9828 174.361 64.3621 173.906C64.3258 173.589 64.6951 173.57 64.7829 173.329C64.8728 173.132 64.9855 172.947 65.1187 172.776C65.4175 172.328 65.79 171.936 66.1001 171.497C66.16 171.412 66.1982 171.462 66.2429 171.456C66.2946 171.449 66.3437 171.429 66.3854 171.398C66.427 171.366 66.4598 171.325 66.4806 171.277C66.5363 171.131 66.436 170.894 66.7335 170.921C66.8195 170.764 66.9218 170.617 67.0388 170.482C67.4095 169.902 68.104 169.594 68.3419 168.909C68.3538 168.891 68.3704 168.878 68.3899 168.869C69.0737 168.414 69.4957 167.68 70.1625 167.203C70.266 167.129 70.4431 167.174 70.4578 167.078C70.4847 166.899 70.618 166.839 70.7237 166.75C70.7729 166.713 70.8138 166.666 70.8438 166.613C70.8738 166.559 70.8922 166.5 70.8977 166.439C70.9145 166.294 71.149 166.454 71.1663 166.295C71.1835 166.137 71.3069 166.094 71.3972 166.017C71.8321 165.645 72.2863 165.294 72.7038 164.904C72.8519 164.765 73.1069 164.794 73.1777 164.565C73.4333 164.598 73.5287 164.364 73.6925 164.248C73.8824 164.114 74.0312 163.881 74.2364 163.82C74.4918 163.741 74.7213 163.595 74.9006 163.397C75.0946 163.192 75.4084 163.226 75.5826 163.003C75.649 162.917 75.7678 162.929 75.8531 162.892C76.2387 162.732 76.6116 162.543 76.9685 162.327C77.5858 161.971 78.2383 161.681 78.9155 161.46C79.3545 161.29 79.8076 161.16 80.2695 161.069C81.1689 160.887 82.08 160.768 82.996 160.714C83.5358 160.694 84.0793 160.668 84.6208 160.614C85.1985 160.591 85.777 160.605 86.3527 160.657C86.8285 160.673 87.2988 160.803 87.7817 160.698C87.8655 160.682 87.952 160.687 88.0337 160.711C88.1154 160.736 88.1899 160.78 88.2505 160.841L88.2868 160.637C88.5127 160.714 88.7626 160.615 88.9918 160.785C89.1686 160.916 89.3797 160.716 89.5888 160.756C90.1583 160.863 90.7625 160.714 91.3106 160.99C91.443 160.944 91.5839 160.927 91.7234 160.941C91.8629 160.955 91.9977 160.999 92.1184 161.07C92.3721 160.864 92.4814 161.254 92.7069 161.167C92.8046 161.204 92.7113 161.108 92.8068 161.068C93.0147 161.188 93.3055 161.128 93.5606 161.207C93.8227 161.29 94.0986 161.25 94.3652 161.422C94.5859 161.564 94.9412 161.497 95.2684 161.526L95.5309 161.839L95.7975 161.661C96.1021 161.764 96.3246 162.025 96.6821 162.02C96.9809 162.016 97.2191 162.269 97.5418 162.279C97.7775 162.31 98.0042 162.389 98.2079 162.512C98.309 162.592 98.3946 162.69 98.4606 162.8C99.0703 162.796 99.6623 163.005 100.134 163.391C100.771 163.492 101.263 163.975 101.892 164.073C102.101 164.105 102.188 164.263 102.363 164.327C103.177 164.625 103.972 164.971 104.793 165.254C105.441 165.478 106.064 165.776 106.688 166.063C107.072 166.237 107.477 166.358 107.893 166.425C108.769 166.575 109.648 166.706 110.525 166.843C111.424 166.984 112.327 167.104 113.222 167.26C114.574 167.497 115.94 167.541 117.298 167.684C118.213 167.78 119.137 167.764 120.056 167.82C120.898 167.872 121.748 167.852 122.594 167.869C123.694 167.889 124.797 167.851 125.897 167.801C127.138 167.745 128.374 167.609 129.607 167.457C130.766 167.314 131.914 167.085 133.068 166.92C134.092 166.774 135.125 166.65 136.154 166.531C136.903 166.444 137.649 166.316 138.398 166.23C139.356 166.12 140.315 166.021 141.279 165.983C141.682 165.968 142.08 165.897 142.488 165.889C142.687 165.864 142.89 165.862 143.09 165.885C143.289 165.931 143.445 165.818 143.633 165.822C144.31 165.839 144.985 165.783 145.666 165.81C146.425 165.84 147.189 165.801 147.951 165.848C148.153 165.86 148.36 165.95 148.541 165.961C148.751 165.973 148.959 165.899 149.178 166.012C149.341 166.096 149.542 165.87 149.741 166.066C149.805 166.13 150.037 166.035 150.2 166.033C150.644 166.026 151.049 166.222 151.485 166.247C151.931 166.253 152.375 166.294 152.813 166.369C153.498 166.517 154.199 166.577 154.877 166.731C155.524 166.88 156.214 166.89 156.805 167.217C156.965 167.306 157.077 167.047 157.179 167.241C158.223 167.526 159.268 167.804 160.309 168.099C160.745 168.223 161.155 168.432 161.577 168.595C162.123 168.806 162.706 168.943 163.219 169.249C163.842 169.62 164.594 169.738 165.163 170.222C165.536 170.182 165.753 170.544 166.098 170.59C166.233 170.608 166.218 170.735 166.203 170.831C166.768 170.995 167.309 171.233 167.811 171.538C168.441 171.932 169.126 172.238 169.759 172.626C170.746 173.206 171.699 173.84 172.614 174.526C172.979 174.811 173.341 175.086 173.685 175.399C174.004 175.688 174.395 175.907 174.715 176.209C174.754 176.246 174.856 176.23 174.878 176.268C175.137 176.709 175.673 176.873 175.924 177.313C176.116 177.651 176.515 177.749 176.732 178.062C176.913 178.374 177.15 178.652 177.429 178.88C178.092 179.328 178.516 179.983 178.973 180.59C179.267 180.98 179.579 181.372 179.834 181.79C180.263 182.437 180.621 183.128 180.899 183.853C181.255 184.864 181.46 185.922 181.509 186.993C181.505 187.8 181.366 188.602 181.098 189.364C180.923 189.886 180.687 190.386 180.395 190.852C180.192 191.199 179.9 191.525 179.66 191.864C179.314 192.354 178.884 192.771 178.543 193.266C178.332 193.539 178.094 193.791 177.834 194.018C176.795 195.055 175.703 196.039 174.564 196.965C174.352 197.132 174.064 197.131 173.878 197.353C173.726 197.559 173.526 197.725 173.294 197.834C172.969 197.955 172.76 198.226 172.472 198.358C172.19 198.52 171.917 198.697 171.653 198.888C171.066 199.229 170.41 199.451 169.877 199.892C168.756 200.205 167.768 200.841 166.645 201.173C165.821 201.418 164.991 201.663 164.176 201.939C163.54 202.153 162.881 202.257 162.246 202.465C161.999 202.546 161.704 202.474 161.462 202.525C161.229 202.575 161.014 202.749 160.753 202.812C160.659 202.847 160.559 202.86 160.459 202.851C160.36 202.843 160.263 202.812 160.177 202.761C159.943 203.14 159.52 202.902 159.224 203.097C158.947 203.281 158.554 203.294 158.209 203.371C157.864 203.448 157.51 203.498 157.168 203.588C156.806 203.682 156.443 203.766 156.078 203.845C155.737 203.936 155.402 204.047 155.074 204.177C154.728 204.256 154.377 204.316 154.024 204.357C153.676 204.436 153.363 204.61 153.007 204.66C152.666 204.725 152.329 204.808 151.998 204.909C152.003 205.09 152.131 204.984 152.176 205.046C152.145 205.282 151.958 205.206 151.838 205.175C151.656 205.129 151.607 205.334 151.452 205.335C151.313 205.322 151.174 205.349 151.05 205.411C150.929 205.48 150.799 205.531 150.663 205.565C150.541 205.609 150.451 205.802 150.31 205.588C150.14 205.583 150.077 205.749 149.951 205.818C149.877 205.773 149.792 205.749 149.705 205.75C149.618 205.75 149.533 205.775 149.46 205.821C149.532 205.692 149.57 205.623 149.609 205.554C149.559 205.526 149.504 205.51 149.447 205.506C149.39 205.503 149.333 205.513 149.28 205.535C149.227 205.557 149.18 205.59 149.142 205.633C149.104 205.676 149.076 205.727 149.061 205.782C148.992 206.096 148.75 206.057 148.597 206.111C148.482 206.265 148.765 206.418 148.507 206.524C148.255 206.331 147.985 206.119 147.656 206.416C147.242 206.313 146.964 206.677 146.58 206.727C146.221 206.774 145.909 207.042 145.521 207.077C145.319 207.094 145.24 207.355 145.006 207.395C144.739 207.441 144.529 207.646 144.24 207.707C144.053 207.746 143.863 207.929 143.637 208C143.47 208.083 143.317 208.193 143.185 208.326L143.02 208.198C142.889 208.517 142.556 208.55 142.297 208.675C142.015 208.813 141.714 208.907 141.403 208.955C141.312 208.958 141.223 208.988 141.149 209.042C141.075 209.096 141.019 209.171 140.988 209.258C140.947 209.421 140.691 209.343 140.743 209.541C140.469 209.452 140.368 209.896 140.069 209.756C139.932 209.692 139.808 209.875 139.658 209.811C139.708 209.973 139.498 210.053 139.533 210.21C139.089 210.357 139.089 210.357 138.875 210.27C138.779 210.544 138.655 210.759 138.273 210.699C138.057 210.664 137.937 211.042 137.655 211.015C137.651 211.098 137.643 211.238 137.567 211.223C137.315 211.176 137.22 211.467 137.025 211.465C136.79 211.463 136.708 211.651 136.558 211.749C136.392 211.857 136.337 212.073 136.104 212.142C135.903 212.201 135.793 212.468 135.523 212.451C135.387 212.443 135.524 212.686 135.329 212.689C135.196 212.691 135.259 212.971 135.013 212.939C134.829 212.915 134.714 213.142 134.565 213.254C134.43 213.354 134.305 213.469 134.175 213.578C134.28 213.67 134.28 213.67 134.342 213.679C134.358 213.747 134.315 213.784 134.274 213.83C134.144 213.975 133.921 213.893 133.784 214.059C133.741 214.13 133.682 214.191 133.612 214.237C133.542 214.283 133.462 214.313 133.38 214.324C133.228 214.332 133.292 214.555 133.146 214.619C133.035 214.668 132.909 214.608 132.806 214.722C132.309 215.266 131.564 215.477 131.08 216.02C130.917 215.988 131.037 215.882 130.995 215.826C130.979 215.824 130.948 215.812 130.938 215.822C130.424 216.311 129.731 216.554 129.236 217.065C129.11 217.194 128.864 217.151 128.819 217.403C128.789 217.57 128.471 217.441 128.461 217.681C128.204 217.636 128.107 217.871 127.942 217.985C127.786 218.093 127.647 218.227 127.501 218.35C127.324 218.466 127.164 218.606 127.024 218.765C126.901 218.951 126.498 218.761 126.559 219.14C126.296 219.069 126.193 219.306 126.033 219.421C125.844 219.557 125.673 219.718 125.494 219.868C125.339 220.012 125.175 220.147 125.004 220.273C124.715 220.462 124.369 220.569 124.138 220.841C123.915 221.103 123.528 221.049 123.347 221.348L123.224 221.2C124.19 220.444 125.274 219.846 126.189 218.913ZM75.0953 163.859C74.9037 163.924 74.6056 163.794 74.5784 164.141C74.3593 164.053 74.4521 164.282 74.3769 164.345C74.2752 164.43 74.1435 164.343 74.0347 164.449C73.8781 164.6 73.5493 164.524 73.5246 164.877C73.5149 165.018 73.2062 164.845 73.1831 165.045C73.1601 165.245 73.0697 165.256 72.8976 165.272C72.7755 165.283 72.6831 165.468 72.5123 165.406C72.4159 165.85 71.9607 165.951 71.7055 166.243C71.5893 166.376 71.4016 166.451 71.3872 166.663C71.2728 166.649 71.1573 166.676 71.0613 166.74C70.9653 166.804 70.8952 166.9 70.8637 167.01C70.8417 167.333 70.5116 167.24 70.4067 167.471C70.3113 167.682 70.0626 167.849 69.9141 168.073C69.7886 168.216 69.644 168.342 69.4843 168.446C69.3337 168.595 69.1689 168.729 68.9923 168.846C68.8443 168.927 68.9023 169.226 68.6395 169.155C68.5645 169.343 68.4394 169.508 68.2778 169.631C68.121 169.74 67.9737 169.862 67.8376 169.995C67.6387 170.168 67.4596 170.362 67.3036 170.574C67.1235 170.829 66.9823 171.154 66.6684 171.307C66.5841 171.348 66.5904 171.446 66.5517 171.511C66.4488 171.726 66.3032 171.918 66.1239 172.075C65.9237 172.216 65.7743 172.417 65.6982 172.65C65.611 172.945 65.3323 173.018 65.2148 173.266C65.0636 173.586 64.868 173.884 64.6339 174.149C64.1504 174.687 63.981 175.438 63.3889 175.895C63.2914 175.971 63.4003 176.176 63.2873 176.302C62.8701 176.813 62.5161 177.373 62.233 177.969C62.4191 177.797 62.7443 177.743 62.702 177.385C62.6866 177.255 62.8 177.212 62.874 177.144C62.9815 177.045 63.1467 176.968 63.1912 176.848C63.4174 176.222 63.8715 175.742 64.1949 175.182C64.3251 174.957 64.5571 174.841 64.6517 174.627C64.884 174.148 65.1595 173.691 65.4746 173.262C65.7286 172.889 66.0076 172.516 66.2831 172.172C66.5695 171.815 66.8296 171.39 67.2532 171.145C67.3076 171.114 67.3892 171.069 67.3944 171.023C67.4264 170.728 67.6776 170.616 67.8691 170.478C68.0807 170.327 68.1227 170.068 68.3205 169.91C68.5733 169.704 68.8024 169.471 69.0037 169.215C69.3335 168.804 69.8169 168.523 70.133 168.076C70.4015 167.838 70.6767 167.607 70.9583 167.384C71.1263 167.299 71.1227 167.047 71.294 167.024C71.5407 166.991 71.5432 166.794 71.6298 166.646C71.6689 166.58 71.7405 166.601 71.8014 166.608C71.8536 166.61 71.9053 166.596 71.9493 166.568C71.9933 166.54 72.0272 166.498 72.0465 166.45C72.0485 166.239 72.2033 166.163 72.329 166.06C72.4822 165.936 72.608 165.755 72.8422 165.774C72.8446 165.487 73.1341 165.443 73.2702 165.268C73.4215 165.074 73.7309 165.069 73.8227 164.805C74.3938 164.687 74.6632 164.167 75.0953 163.859ZM147.542 166.264C147.198 166.325 146.853 166.431 146.519 166.343C145.734 166.137 144.93 166.5 144.153 166.235C143.78 166.474 143.359 166.33 142.965 166.36C142.406 166.404 141.848 166.493 141.29 166.513C140.786 166.53 140.294 166.608 139.796 166.662C139.298 166.716 138.799 166.773 138.301 166.792C137.678 166.815 137.084 167.003 136.463 167.034C136.035 167.056 135.585 167.041 135.181 167.255C135.134 167.28 135.056 167.238 134.994 167.244C134.476 167.293 133.953 167.31 133.444 167.404C132.489 167.579 131.535 167.746 130.572 167.865C130.45 167.88 130.229 167.821 130.136 168.082C130.276 168.094 130.418 168.142 130.54 168.111C131.273 167.925 132.027 167.886 132.769 167.765C133.334 167.673 133.898 167.579 134.461 167.481C135.247 167.344 136.054 167.346 136.843 167.22C137.357 167.138 137.888 167.135 138.388 167.037C139.291 166.862 140.206 166.854 141.11 166.71C141.818 166.597 142.55 166.602 143.27 166.549C143.986 166.475 144.707 166.468 145.424 166.528C145.585 166.55 145.748 166.533 145.901 166.48C146.069 166.419 146.214 166.707 146.396 166.521C146.806 166.615 147.221 166.473 147.632 166.54C147.69 166.55 147.716 166.546 147.714 166.485C147.682 166.395 147.621 166.317 147.542 166.264ZM81.7639 166.378C81.6445 166.374 81.5295 166.335 81.4834 166.375C81.2194 166.605 80.863 166.665 80.5962 166.909C80.0029 167.453 79.3692 167.953 78.7519 168.471C78.2808 168.866 77.8026 169.254 77.3407 169.659C76.8655 170.027 76.4271 170.441 76.0316 170.893C75.7215 171.293 75.2643 171.566 74.9383 171.981C74.6122 172.396 74.1137 172.651 73.7895 173.106C73.5192 173.434 73.1932 173.712 72.8264 173.927C72.4539 174.177 72.293 174.602 71.9358 174.865C71.3558 175.29 71.0103 175.913 70.6243 176.538C70.9904 176.482 70.9909 176.136 71.1909 175.971C71.4585 175.75 71.7024 175.502 71.9188 175.231C72.2352 174.835 72.6754 174.547 73.0098 174.142C73.3746 173.7 73.9055 173.421 74.2526 172.932C74.4843 172.606 74.8684 172.408 75.107 172.051C75.3172 171.784 75.5787 171.56 75.876 171.395C76.1681 171.207 76.2706 170.878 76.5264 170.667C77.9941 169.447 79.4561 168.221 80.9123 166.987C81.1603 166.772 81.5394 166.769 81.763 166.377L81.7639 166.378ZM101.905 225.552C101.865 225.656 101.906 225.782 101.763 225.83C101.555 225.776 101.311 225.848 101.108 225.716C101.047 225.676 100.99 225.645 100.95 225.696C100.801 225.878 100.577 225.745 100.435 225.816C100.236 225.915 100.067 225.842 99.8884 225.837C99.725 225.842 99.563 225.806 99.4166 225.733C99.3043 225.672 99.0875 225.803 98.9171 225.848C98.763 225.89 98.6713 225.714 98.5301 225.733C98.4194 225.765 98.3634 225.995 98.2215 225.837C98.0874 225.687 97.9971 225.851 97.8951 225.862C97.7385 225.88 97.6458 225.657 97.5103 225.762C97.2402 225.972 96.9233 225.849 96.6275 225.947C96.6352 225.801 96.6413 225.681 96.6473 225.561C96.4199 225.554 96.3939 225.758 96.3222 225.882C96.0726 225.853 95.9891 225.666 95.8798 225.456C95.8743 225.735 95.6622 225.796 95.5148 225.912C95.2787 225.897 95.0462 225.865 94.6703 225.856C95.4906 226.385 96.2508 226.037 96.9673 226.132C96.9537 226.231 96.9297 226.315 97.0506 226.413C97.3978 226.159 97.8009 226.381 98.1946 226.384L98.2294 226.158C98.5925 226.148 98.9529 226.255 99.328 226.167C99.494 226.128 99.7413 226.111 99.869 226.244C100.113 226.499 100.404 226.455 100.674 226.402C100.807 226.375 100.851 226.431 100.931 226.474C100.987 226.505 101.014 226.482 101.002 226.421C100.989 226.298 100.8 226.256 100.851 226.111C100.888 226.079 100.918 226.032 100.953 226.029C101.204 226.006 101.431 226.177 101.665 226.164C101.91 226.15 102.123 225.931 102.399 225.971C102.42 225.974 102.441 225.975 102.462 225.977C102.562 226.109 102.297 226.397 102.696 226.452L102.777 225.753C102.46 225.664 102.151 225.759 101.904 225.55L101.905 225.552ZM79.9333 165.282C79.2485 165.484 78.7637 165.974 78.2414 166.409C77.5089 167.02 76.7998 167.661 76.0438 168.241C75.0098 169.035 74.1505 170.017 73.1506 170.845C73.1155 170.869 73.0829 170.896 73.0534 170.927C72.9309 171.118 72.7865 171.296 72.6231 171.454C72.4059 171.656 72.176 171.844 71.9348 172.017C71.6871 172.167 71.6537 172.463 71.4317 172.624C71.1888 172.795 70.9612 172.986 70.7516 173.197C70.541 173.414 70.1772 173.494 70.1344 173.868C70.1263 173.888 70.1134 173.904 70.097 173.917C70.0805 173.93 70.061 173.939 70.0403 173.942C69.7145 173.873 69.7042 174.162 69.5839 174.331C69.4644 174.568 69.2906 174.773 69.0764 174.93C69.0554 174.942 69.061 175.004 69.0531 175.041C69.0717 175.075 69.1009 175.102 69.1362 175.118C69.1714 175.134 69.2109 175.138 69.2486 175.129C69.3971 175.105 69.286 174.893 69.4171 174.791C69.8761 174.406 70.3153 173.999 70.7333 173.57C71.3335 172.997 71.8359 172.315 72.5405 171.852C72.5756 171.828 72.6279 171.802 72.6347 171.77C72.7023 171.449 72.9754 171.301 73.2053 171.143C73.455 170.971 73.55 170.689 73.76 170.5C74.6127 169.729 75.5294 169.039 76.3336 168.204C77.0795 167.43 77.9728 166.798 78.801 166.103C78.8823 166.035 78.9577 165.918 79.0457 165.908C79.4623 165.858 79.6394 165.495 79.9333 165.282ZM67.6604 173.379C67.9815 173.391 67.9157 173.051 68.0942 172.92C68.9048 172.325 69.4858 171.478 70.3131 170.901C70.3995 170.84 70.5242 170.779 70.5485 170.695C70.6379 170.385 70.8931 170.232 71.1217 170.069C71.3649 169.895 71.4715 169.617 71.6808 169.432C72.2358 168.94 72.7914 168.445 73.3863 168.005C73.9951 167.555 74.4052 166.911 75.0074 166.457C75.4975 166.089 75.9539 165.674 76.4224 165.277C76.4887 165.239 76.5417 165.182 76.5743 165.114C76.6068 165.045 76.6172 164.968 76.6039 164.893C76.2679 165.412 75.7422 165.484 75.3765 165.819C75.0494 166.119 74.703 166.401 74.3551 166.678C73.9993 166.962 73.7758 167.363 73.4167 167.653C72.9206 168.055 72.3758 168.405 72.0064 168.963C71.8274 169.235 71.4822 169.39 71.2465 169.631C71.0049 169.876 70.6841 170.016 70.5109 170.372C70.3754 170.65 70.0164 170.819 69.7567 171.037C69.578 171.187 69.3233 171.303 69.2384 171.494C69.0997 171.807 68.7822 171.92 68.6246 172.171C68.4457 172.445 68.2179 172.684 67.9526 172.876C67.777 173.009 67.7622 173.213 67.6604 173.379ZM147.759 169.063L147.778 168.844C148.008 168.91 148.299 168.767 148.444 169.081C148.555 168.999 148.66 168.91 148.758 168.813C148.863 168.692 148.987 168.726 149.106 168.745C149.271 168.771 149.176 168.942 149.243 169.025C149.479 168.921 149.713 168.818 149.945 168.715C150.006 168.846 149.733 168.898 149.949 169.097C150.095 168.863 150.357 169.143 150.576 168.961C150.576 168.859 150.571 168.757 150.558 168.656C150.537 168.536 150.363 168.647 150.33 168.535C150.355 168.446 150.464 168.415 150.439 168.317C150.337 168.432 150.06 168.266 150.061 168.562C149.787 168.56 149.514 168.529 149.247 168.471C148.999 168.427 148.747 168.409 148.495 168.419C148.227 168.359 147.951 168.34 147.677 168.363C147.415 168.387 147.152 168.396 146.889 168.388C146.648 168.409 146.405 168.41 146.164 168.391C145.9 168.384 145.635 168.4 145.374 168.44C145.081 168.439 144.789 168.457 144.498 168.493C145.373 168.874 146.225 168.634 146.916 169.002C147.082 168.946 147.14 168.78 147.273 168.768L147.759 169.063ZM112.932 210.701C113.206 210.741 113.486 210.719 113.75 210.637C114.398 210.42 115.033 210.166 115.688 209.971C116.567 209.707 117.45 209.445 118.3 209.104C118.746 208.925 119.287 208.843 119.58 208.322C119.03 208.446 118.487 208.599 117.953 208.781C117.188 209.086 116.407 209.33 115.62 209.564C115.295 209.632 114.979 209.736 114.677 209.875C114.362 210.036 114.032 210.165 113.691 210.262C113.422 210.354 113.098 210.396 112.933 210.702L112.932 210.701ZM80.6783 189.387C80.4969 189.415 80.4023 189.375 80.2917 189.407C79.7706 189.585 79.261 189.795 78.7661 190.037C78.2712 190.241 77.7913 190.479 77.3301 190.751C76.8681 191.035 76.3425 191.151 75.8671 191.408C75.2492 191.701 74.6571 192.045 74.0971 192.437C73.7963 192.672 73.6815 193.055 73.35 193.246C73.314 193.269 73.2813 193.296 73.2528 193.328C73.2154 193.367 73.1581 193.411 73.2751 193.47C73.6235 193.208 73.9866 192.944 74.3575 192.695C74.9159 192.322 75.4661 191.948 76.0538 191.615C76.2945 191.474 76.5455 191.35 76.8047 191.247C77.0879 191.139 77.3167 190.947 77.5962 190.831C78.3059 190.538 79.0166 190.245 79.7118 189.914C80.0136 189.772 80.3662 189.739 80.6789 189.387L80.6783 189.387Z" fill="#020A13"/>
</g>
<g clip-path="url(#clip1)">
<path d="M133.623 155.229C127.386 154.452 121.272 153.552 115.097 152.325C109.658 151.262 104.096 151.65 98.5949 152.059C85.7119 153.02 72.9929 156.026 60.0489 155.535C59.4359 155.515 59.1289 155.944 59.0879 156.414C58.9449 156.578 58.8629 156.762 58.8429 157.028C58.7409 160.218 58.7199 163.387 58.8019 166.557C59.0269 179.092 60.3559 191.525 61.4809 204.039C61.7469 206.922 62.0539 209.99 63.7919 212.321C65.6529 214.816 68.7819 215.981 71.8079 216.738C76.2859 217.842 80.8869 218.313 85.5079 218.456C88.4119 218.538 91.3149 218.476 94.1989 218.374C101.908 218.067 109.617 217.842 117.347 217.679C121.069 217.577 125.67 217.802 128.041 214.325C129.329 212.403 129.432 210.153 129.697 207.945C129.963 205.859 130.229 203.774 130.474 201.688C130.556 201.054 130.638 200.4 130.719 199.766C131.966 187.845 133.52 175.923 134.768 163.981C135.075 161.159 135.361 158.317 135.606 155.474C135.709 154.267 133.991 154.206 133.623 155.229Z" fill="#C34A22"/>
<path d="M104.007 122.092C102.044 117.409 96.6458 112.42 91.3288 111.97C95.0708 106.981 97.5858 100.826 94.9688 94.6905C92.5558 89.0875 86.9738 87.3695 81.4318 87.6555C83.9268 83.4845 85.5008 78.6995 83.6808 73.9145C81.8198 68.9455 77.1988 68.0455 72.4958 68.1685C72.8228 63.9155 72.4748 59.6215 69.7558 56.1245C67.9768 53.8345 65.5838 52.6485 62.9668 52.3415C62.2098 52.2185 61.4328 52.1985 60.6558 52.2395C59.8988 52.2805 59.1428 52.3825 58.3858 52.5465C58.2218 52.5665 58.1198 52.5875 57.9768 52.6285C57.0768 52.8325 56.2588 53.1395 55.5228 53.5075C48.3458 57.1875 47.7318 68.3935 54.4188 73.0355C49.8388 75.2435 46.9348 79.9475 48.1618 85.2225C48.9588 88.5965 52.5988 93.4225 56.4848 94.9765C52.0878 99.1275 48.3458 105.569 50.6158 111.377C52.8648 117.184 58.3458 121.56 64.3978 122.787C59.5518 127.327 57.5888 132.602 59.4288 139.964C60.8598 145.792 65.1948 152.683 71.9228 151.661C74.0498 152.847 76.8508 153.358 79.7548 153.46H82.2498C83.8038 153.419 85.3788 153.296 86.8508 153.133C87.6078 153.031 88.3228 152.949 89.0178 152.847C89.9178 152.745 90.7358 152.622 91.5128 152.499C97.5048 151.599 100.694 145.812 103.169 140.741C105.888 135.138 106.44 127.94 104.007 122.092Z" fill="#40957E"/>
<path d="M82.2489 153.459H79.7539C77.9949 151.189 75.9909 149.185 74.5599 146.547C73.1899 143.991 72.0039 141.312 71.1859 138.531C69.2639 132.008 70.2449 125.669 71.7379 119.187C61.1659 112.357 57.9559 101.008 63.9469 89.9254C58.5489 86.8994 57.1779 78.3104 58.9369 72.8504C53.2319 68.1674 52.6389 59.8044 55.5219 53.5064C56.2579 53.1384 57.0759 52.8314 57.9759 52.6274C58.1189 52.5864 58.2209 52.5664 58.3649 52.5454C54.7249 58.3934 54.7859 67.1044 60.6759 71.6644C60.9619 71.8684 61.0439 72.1144 61.0439 72.3594C61.1049 72.5434 61.1259 72.7484 61.0439 72.9934C59.3059 77.7784 60.3489 85.9984 65.5019 88.4524C66.1359 88.5544 66.6879 89.2294 66.2589 89.9454C60.0219 100.455 62.9049 111.273 73.1299 117.673C73.3139 117.796 73.4369 117.959 73.4979 118.123C73.7839 118.348 73.9479 118.696 73.8459 119.125C72.2099 126.098 71.2699 132.682 73.6619 139.594C74.7249 142.641 76.2389 145.79 78.0579 148.469C79.3049 150.31 80.9409 151.741 82.2489 153.459Z" fill="#2B7663"/>
<path d="M89.018 152.845C88.323 152.947 87.607 153.029 86.851 153.131C88.405 146.853 89.366 140.31 89.018 133.807C88.67 127.059 85.112 121.722 81.289 116.405C81.146 116.241 81.125 116.057 81.105 115.894C80.941 115.689 80.839 115.403 80.901 115.076C81.719 109.882 81.678 104.995 79.367 100.169C77.936 97.1833 75.645 92.3993 72.639 90.7633C72.271 90.5593 72.148 90.2523 72.148 89.9453C72.005 89.7203 71.943 89.4753 72.005 89.1473C73.13 83.3403 70.901 73.4633 64.194 71.6433C63.478 71.4393 63.356 70.7433 63.58 70.2123C63.601 70.1303 63.601 70.0283 63.641 69.9263C64.991 66.5933 64.398 63.3013 63.457 59.9473C63.007 58.3523 62.128 54.5493 60.656 52.2383C61.433 52.1973 62.21 52.2183 62.967 52.3403C63.805 54.0173 64.317 55.8983 64.807 57.3913C66.177 61.4813 67.24 65.8773 65.748 70.0283C72.66 72.7483 75.134 82.5833 74.03 89.2503C77.67 91.4993 80.328 97.0003 81.841 100.742C83.784 105.507 83.681 110.271 82.925 115.26C82.966 115.301 83.007 115.322 83.048 115.383C86.749 120.495 90.246 125.669 90.962 132.11C91.697 138.94 90.654 146.159 89.018 152.845Z" fill="#2B7663"/>
<path d="M66.5099 44.4364C66.0539 44.3324 65.4639 44.4664 64.9699 44.7684C64.2329 45.2194 63.6699 45.8904 63.0329 46.4644C62.6439 46.8144 62.2409 47.1514 61.8449 47.4944C61.6099 47.6984 60.7209 48.2404 60.6539 48.5274C60.7319 48.1954 60.8059 47.8734 60.8739 47.5794C61.4449 45.1224 62.0209 42.0794 61.2829 39.6164C61.0179 38.7334 59.9069 38.6574 59.4139 39.3724C57.5389 42.0914 56.6469 45.4704 56.1929 48.8324C55.1959 47.2424 54.3279 45.5684 53.1429 44.1274C52.3139 43.1194 51.0039 41.9844 49.6079 41.9944C49.1529 41.9974 48.7489 42.3104 48.6219 42.7454C48.0969 44.5424 49.6939 47.1184 50.6979 48.5044C51.4669 49.5674 52.3849 50.4824 53.3819 51.3094C51.3819 51.1774 49.4099 50.8864 47.3719 50.9404C46.1989 50.9714 44.6559 51.3454 45.0679 52.8764C45.4859 54.4264 48.1299 54.9234 49.4389 55.1054C53.4109 55.6564 57.4019 54.4214 60.8249 52.4594C61.7699 51.9174 62.6599 51.2864 63.5349 50.6384C65.1809 49.4184 66.7769 47.8964 67.2009 45.8084C67.3689 44.9774 67.0259 44.5544 66.5099 44.4364Z" fill="#D59512"/>
<path d="M159.082 17.9974C158.489 17.5884 157.835 17.2004 157.119 16.8934C157.078 16.8734 157.058 16.8524 157.017 16.8324C156.444 16.5664 155.851 16.3414 155.258 16.1574C154.133 15.8094 152.968 15.5844 151.802 15.4824C143.357 14.7664 134.809 20.6154 135.975 29.8984C130.638 30.1644 125.485 31.3294 123.276 36.8304C121.579 41.1044 122.029 46.3794 124.687 50.1424C117.101 50.3064 109.76 53.8844 106.427 61.1024C102.726 69.1184 105.998 76.5004 111.682 82.2874C105.036 83.9234 99.1669 88.2584 97.4089 95.2114C95.5069 102.654 99.4329 108.093 104.75 112.531C96.4889 114.31 89.5569 120.628 88.2279 129.299C86.8779 138.153 91.7039 147.723 100.17 151.015C100.477 151.138 100.763 151.097 100.968 150.954C101.847 151.343 102.747 151.588 103.667 151.752C104.648 151.936 105.63 152.038 106.632 152.079C107.716 152.14 108.779 152.14 109.842 152.161C111.314 152.202 112.786 152.202 114.279 152.161C115.056 152.161 115.833 152.141 116.63 152.1C118.512 152.039 120.413 151.936 122.294 151.793C122.989 151.732 123.316 151.159 123.275 150.627C132.129 148.766 137.487 141.773 138.754 132.775C139.552 127.152 136.566 119.729 131.883 115.762C135.911 114.085 138.938 110.404 140.349 106.049C142.21 100.262 142.905 91.1834 138.57 86.2344C142.742 85.4774 146.034 82.2874 147.854 78.0754C149.244 74.8654 149.981 70.9794 150.124 67.4834C150.267 64.0684 148.999 62.6784 147.425 60.1834C151.883 60.1834 156.688 57.6684 158.263 53.4354C159.572 49.8974 160.144 41.9024 157.506 38.0174C164.746 33.6614 166.402 23.0484 159.082 17.9974Z" fill="#2B7663"/>
<path d="M106.652 152.078C106.632 152.037 106.591 151.996 106.55 151.955C100.784 146.066 101.172 137.437 102.522 129.871C103.79 122.775 107.839 117.622 112.46 112.306C112.93 111.774 112.685 111.079 112.235 110.752C109.515 106.703 108.513 100.466 109.72 95.6614C111.09 90.2424 115.957 87.0114 120.517 84.4354C121.089 84.1084 121.13 83.5154 120.865 83.0654C120.926 82.7794 120.885 82.4524 120.599 82.1654C111.356 73.4134 121.028 59.6724 131.028 57.2594C131.723 57.0754 131.866 56.4004 131.642 55.8894C131.703 55.5824 131.683 55.2554 131.458 54.9484C125.017 46.6254 133.523 35.5424 142.112 33.4974C142.582 33.4364 143.032 33.1294 143.073 32.5364C143.564 24.9094 148.185 18.7334 155.26 16.1574C154.135 15.8094 152.97 15.5844 151.804 15.4824C145.772 18.7334 141.886 24.6024 141.15 31.6574C131.294 34.2954 123.298 46.3194 129.453 55.5614C118.533 58.9564 109.516 73.6374 118.718 83.1264C113.933 85.9074 109.169 89.4654 107.757 95.1094C106.428 100.385 107.368 107.051 110.374 111.611C105.242 117.582 101.356 123.328 100.252 131.385C99.2709 138.603 99.2089 145.944 103.667 151.752L106.652 152.078Z" fill="#1D5043"/>
<path d="M159.082 17.9976C158.182 25.4616 154.767 32.2506 149.185 37.5056C149.021 46.0326 144.952 53.6396 138.02 58.6086C139.226 68.1986 135.893 80.6516 127.203 85.8456C129.759 95.5176 129.084 107.849 120.946 114.719C127.776 125.884 122.643 141.179 116.631 152.099C115.834 152.14 115.057 152.16 114.28 152.16C120.292 141.609 126.038 126.109 118.86 115.169C118.574 114.74 118.676 114.331 118.942 114.044C118.983 113.86 119.065 113.655 119.269 113.471C127.244 106.989 127.653 95.0666 125.097 85.9066C125.056 85.7426 125.056 85.5996 125.077 85.4566C124.995 85.0886 125.138 84.6996 125.568 84.4546C134.034 79.8536 137.326 67.2986 135.956 58.3416C135.854 57.7486 136.242 57.3196 136.672 57.1556C136.754 57.0536 136.835 56.9516 136.958 56.8486C143.379 52.2686 147.06 45.1316 147.141 37.2586C147.161 36.9726 147.264 36.7476 147.427 36.5836C147.468 36.4196 147.529 36.2356 147.713 36.0726C153.214 30.9196 156.485 24.2946 157.119 16.8916C157.834 17.2006 158.489 17.5886 159.082 17.9976Z" fill="#1D5043"/>
<path d="M167.777 11.6246C166.266 10.8836 164.607 11.6186 163.165 12.1786C162.2 12.5526 161.249 12.9406 160.296 13.3176C160.718 12.8956 161.116 12.4786 161.463 12.1016C163.176 10.2436 165.899 7.51556 165.373 4.72856C165.311 4.40356 164.98 4.08056 164.659 4.01456C162.811 3.63256 161.04 6.22556 159.964 7.39456C158.957 8.48656 158.003 9.62456 157.069 10.7786C157.489 9.56856 157.886 8.35056 158.209 7.10556C158.673 5.32056 159.549 2.69956 158.7 0.905557C158.515 0.515557 157.946 0.306557 157.546 0.435557C155.447 1.11056 154.466 4.49756 153.901 6.34856C153.271 8.40956 152.93 10.4726 152.872 12.5626C151.745 10.6846 150.623 8.78156 149.334 7.04756C148.492 5.91656 146.75 5.56156 146.457 7.32656C146.109 9.41956 147.518 11.9996 148.714 13.6016C150.009 15.3376 151.469 16.6076 153.52 17.3736C156.006 18.3006 158.573 18.1406 161.134 17.6696C163.555 17.2246 168.489 15.7076 168.286 12.5066C168.262 12.1616 168.108 11.7866 167.777 11.6246Z" fill="#D59512"/>
<path d="M137.827 149.66C136.295 148.574 133.8 148.842 132.076 148.93C124.166 149.333 116.205 148.912 108.289 148.827C103.313 148.753 98.337 148.738 93.36 148.655C83.144 148.485 72.935 148.634 62.722 148.634C61.928 148.656 61.135 148.692 60.343 148.751C58.832 148.863 56.909 149.08 55.884 150.349C55.149 151.26 55.366 152.376 55.387 153.462C55.412 154.691 55.224 155.992 56.025 157.034C57.633 159.128 62.678 158.584 64.821 158.729C75.368 159.445 85.963 159.287 96.528 159.308C101.834 159.319 107.139 159.293 112.445 159.285C117.632 159.278 122.818 159.262 128.001 159.546C129.775 159.643 131.565 159.765 133.321 159.494C135.597 159.142 137.715 158.136 138.619 155.927C138.635 155.887 138.651 155.847 138.667 155.807C139.31 154.208 139.59 151.94 138.578 150.429C138.371 150.118 138.116 149.865 137.827 149.66Z" fill="#9B2E08"/>
<path d="M110.435 174.715C105.834 178.273 102.419 181.627 96.4689 182.649C92.4819 183.344 89.2919 184.448 86.3879 186.902C85.8559 186.636 85.1609 186.759 85.0379 187.495C84.9769 187.761 84.9559 188.006 84.9149 188.272C84.8739 188.292 84.8539 188.333 84.8129 188.374C84.4239 188.763 84.4859 189.253 84.7309 189.621C84.0149 195.387 84.4859 201.133 84.9149 206.941C85.1809 210.397 84.9349 214.65 85.5079 218.454C88.4119 218.536 91.3149 218.474 94.1989 218.372C101.908 218.065 109.617 217.84 117.347 217.677C121.069 217.575 125.67 217.8 128.041 214.323C129.329 212.401 129.432 210.151 129.697 207.943C129.963 205.857 130.229 203.772 130.474 201.686C130.556 201.052 130.638 200.398 130.719 199.764C131.966 187.843 133.52 175.921 134.768 163.979C126.405 166.781 117.428 169.337 110.435 174.715Z" fill="#F5B17B"/>
<path d="M125.526 200.297C121.477 199.009 119.248 195.798 114.975 194.898C107.163 193.242 92.073 192.874 88.147 184.49C86.981 181.975 86.92 179.828 84.139 178.58C83.178 178.13 82.135 178.13 81.113 177.926C77.248 177.149 75.796 176.761 73.547 173.366C69.662 167.436 65.531 166.189 58.804 166.557C59.029 179.092 60.358 191.525 61.483 204.039C61.749 206.922 62.056 209.99 63.794 212.321C65.655 214.816 68.784 215.981 71.81 216.738C79.11 218.558 86.717 218.64 94.201 218.374C101.91 218.067 109.619 217.842 117.349 217.679C121.071 217.577 125.672 217.802 128.043 214.325C129.331 212.403 129.434 210.153 129.699 207.945C129.965 205.859 130.231 203.774 130.476 201.688C128.879 201.176 127.223 200.849 125.526 200.297Z" fill="#E87046"/>
</g>
<defs>
<clipPath id="clip0">
<rect width="186.471" height="139.967" fill="white" transform="translate(107.31 72.9307) rotate(50.0056)"/>
</clipPath>
<clipPath id="clip1">
<rect width="123.289" height="218.095" fill="white" transform="translate(45 0.397461)"/>
</clipPath>
</defs>
</svg>
