<svg width="203" height="675" viewBox="0 0 203 675" fill="none" xmlns="http://www.w3.org/2000/svg">
<g clip-path="url(#clip0)">
<path d="M295.208 259.455C295.552 259.358 295.641 259.359 295.666 259.32C297.277 256.819 299.393 254.731 301.348 252.409C301.495 252.342 301.609 252.544 301.864 252.672C302.418 252.419 302.543 251.525 303.344 251.448C303.531 251.432 303.667 251.009 303.708 250.654C303.708 250.479 303.745 250.306 303.817 250.147C303.888 249.987 303.993 249.844 304.123 249.727C304.253 249.61 304.406 249.522 304.573 249.469C304.74 249.415 304.915 249.397 305.089 249.416C305.419 249.692 304.739 249.892 305.029 250.187C305.947 250.128 305.502 249.239 305.768 248.841C306.124 248.422 306.348 249.048 306.645 248.878C306.786 248.558 306.451 248.498 306.349 248.311C307.568 245.922 307.572 246.388 309.595 244.923C309.907 244.134 309.117 243.861 308.782 243.222C310.077 243.641 309.446 241.908 310.553 241.986C310.809 242.424 310.631 243.069 310.989 243.652C311.294 243.144 311.88 242.888 311.74 242.191C311.689 242.012 311.676 241.824 311.701 241.639C311.726 241.454 311.79 241.276 311.886 241.117C311.983 240.957 312.112 240.82 312.265 240.712C312.417 240.605 312.59 240.53 312.773 240.493C313.016 240.4 313.172 240.057 313.349 239.849L312.904 239.185C313.036 239.159 313.171 239.086 313.24 239.126C313.566 239.317 313.859 239.679 314.19 239.71C314.521 239.742 315.261 239.85 315.092 239.123C314.972 238.604 315.981 238.842 315.578 238.215C315.534 238.147 315.944 238.303 316.164 238.353C316.636 238.234 316.035 237.444 316.703 237.443C316.831 237.456 316.96 237.425 317.067 237.354C317.175 237.283 317.254 237.177 317.291 237.053C317.678 235.481 318.895 235.126 320.263 234.967C320.306 234.962 320.331 234.858 320.379 234.822C320.474 234.751 320.58 234.695 320.747 234.593L320.54 235.909C319.936 236.493 319.307 235.759 318.662 236.067C318.449 236.568 318.383 237.119 318.47 237.656C319.231 238.054 319.219 237.114 319.695 236.919C319.965 236.857 320.219 236.741 320.443 236.578C320.666 236.415 320.855 236.208 320.996 235.97C321.338 235.378 321.737 234.82 322.187 234.304C322.482 234.576 322.856 234.745 323.254 234.788C323.652 234.831 324.053 234.744 324.399 234.541C324.844 233.927 324.218 233.533 324.094 233.034C324.694 232.764 325.268 233.742 325.218 234.995C326.73 235.259 326.188 233.696 326.831 233.18C327.336 232.893 327.521 233.714 328.002 233.516C328.598 232.904 327.919 232.43 327.837 232.004C328.295 231.678 328.451 231.088 328.953 230.963C329.13 230.53 328.193 230.28 328.834 229.817C329.386 229.699 329.437 230.086 329.479 230.486C330.263 230.658 330.774 229.767 331.554 229.991C331.587 229.749 331.557 229.503 331.466 229.277C331.376 229.05 331.228 228.852 331.037 228.7C332.045 228.235 331.263 226.359 332.99 226.442C333.148 226.776 332.397 227.288 333.304 227.519C333.932 227.25 333.505 226.43 333.979 225.956C334.437 225.57 334.934 225.231 335.46 224.945C335.655 225.205 335.427 225.813 336.078 225.682C336.191 225.631 336.282 225.542 336.334 225.429C336.386 225.317 336.396 225.19 336.362 225.071C336.322 224.885 336.356 224.69 336.458 224.529C336.56 224.369 336.721 224.254 336.907 224.211C337.95 224.127 338.614 223.345 339.489 222.96C340.221 222.636 340.812 221.821 341.78 222.329C341.84 222.36 342.026 222.255 342.082 222.168C342.438 221.606 343.14 221.587 343.577 221.212C344.052 220.805 344.677 220.972 345.104 220.642C345.653 220.215 346.566 220.54 346.84 220.135C347.279 219.485 348.006 220.473 348.238 219.704C348.848 219.989 349.457 219.774 350.089 219.7L350.975 218.496C351.283 218.427 351.605 218.47 351.884 218.619C352.162 218.768 352.378 219.011 352.491 219.306C353.104 219.276 353.128 218.597 353.576 218.326L354.296 218.537L355.028 217.542L355.818 217.74C356.329 217.374 355.722 216.39 356.685 216.241C356.888 216.277 356.684 216.539 356.935 216.701C357.213 216.238 358.048 216.273 358.086 215.406C358.732 215.555 359.142 216.485 360.086 215.846L361.101 214.467C362.49 214.68 363.89 214.252 365.248 214.655C365.351 214.326 365.024 214.257 364.896 213.983C365.196 213.583 365.899 213.995 366.12 213.49C366.382 212.895 366.793 213.234 367.183 213.218C367.668 213.129 368.166 213.16 368.636 213.307L369.079 212.706C369.165 212.663 369.263 212.648 369.358 212.663C369.453 212.678 369.541 212.722 369.61 212.789C369.754 212.894 369.904 212.992 370.057 213.082C370.568 212.925 370.609 212.377 371.187 212.035C371.588 211.893 372.398 212.41 372.904 211.572C372.995 211.421 373.534 211.763 373.939 211.678C375.118 211.429 376.343 211.491 377.517 211.132C378.113 210.965 378.741 210.946 379.346 211.077C379.942 211.189 380.474 210.675 381.075 210.519C381.652 210.37 382.265 210.947 382.785 210.335C382.968 210.119 383.233 210.523 383.448 210.473C383.941 210.351 384.393 210.628 384.966 210.312C385.827 209.843 386.92 210.39 387.908 210.089C388.741 209.827 389.631 209.809 390.473 210.035C391.184 210.234 391.787 209.327 392.479 209.93C393.639 209.573 394.851 209.907 396.017 209.661C396.496 209.534 397.003 209.553 397.471 209.717C397.78 209.836 398.371 209.159 398.408 210.046C398.998 209.88 399.538 209.449 400.227 209.82C400.369 209.896 400.538 209.453 400.981 209.573C401.9 209.822 402.898 209.531 403.848 209.804C404.124 209.897 404.415 209.941 404.706 209.935C406.74 209.419 408.704 210.233 410.703 210.168C410.894 210.161 411.092 210.061 411.272 210.092C412.615 210.324 413.907 210.908 415.288 210.828C416.606 210.806 417.918 211.001 419.171 211.405C419.891 211.602 420.612 211.323 421.273 211.659C422.01 211.956 422.825 212 423.59 211.784L423.854 212.563C424.794 211.853 425.828 212.187 426.78 212.431C427.124 212.517 427.473 212.582 427.825 212.628C430.064 212.906 432.268 213.415 434.402 214.149C434.638 214.191 434.877 214.212 435.117 214.211C436.279 214.326 437.379 214.793 438.269 215.549C438.973 216.178 441.72 217.147 442.933 217.351C445.332 217.755 447.74 218.111 450.125 218.587C451.803 218.922 453.456 219.408 455.111 219.855C456.879 220.399 458.688 220.797 460.521 221.044C460.667 222.109 461.695 222.009 462.412 222.369C463.238 222.784 463.843 221.671 464.63 222.097C465.317 222.17 465.06 222.977 465.511 223.216C466.038 223.306 466.023 222.718 466.383 222.564C466.771 222.531 466.91 222.771 466.916 223.2C466.904 223.315 466.979 223.352 467.158 223.279C467.751 223.105 468.387 223.15 468.95 223.404C469.33 223.595 469.753 223.68 470.177 223.652C470.864 223.532 471.201 223.924 471.288 224.576C472.155 224.426 472.955 224.227 473.79 224.92C474.145 225.218 475.011 224.676 475.495 225.3C475.707 225.22 475.939 225.217 476.152 225.291C476.365 225.365 476.546 225.511 476.663 225.704C477.151 226.341 477.399 225.31 477.954 225.627C479.463 226.489 481.172 226.93 482.751 227.685C483.583 228.083 484.334 228.83 485.395 228.786C485.743 228.771 485.669 229.262 485.812 229.502L486.826 229.348C487.233 229.751 487.967 229.867 488.107 230.578C488.175 230.913 488.361 230.728 488.504 230.738C490.047 230.838 491.306 231.737 492.715 232.202C493.756 232.546 494.504 233.463 495.451 233.695C497.02 234.081 497.861 235.692 499.5 235.799C500.374 236.673 501.664 237.026 502.287 238.267C502.57 238.826 503.414 239.081 503.933 239.552C505.808 241.256 507.587 243.066 508.629 245.412C509.113 246.502 509.421 247.731 510.152 248.633C510.952 249.625 511.302 250.834 512.096 251.833C512.736 252.638 512.888 253.834 513.245 254.86C513.834 256.556 514.362 258.275 515.596 259.668C515.773 259.904 515.911 260.168 516.002 260.449C516.391 261.522 517.095 262.454 517.501 263.473C518.033 264.489 518.448 265.563 518.737 266.673C518.955 268.104 519.896 269.353 519.583 270.942C519.42 271.769 519.857 272.697 519.84 273.575C519.75 274.376 519.802 275.187 519.994 275.969C520.061 276.447 520.052 276.933 519.969 277.409C519.942 278.892 520.519 280.284 520.62 281.746C520.671 282.493 520.85 283.217 520.863 283.982C520.874 284.651 521.229 285.368 521.273 286.083C521.495 289.681 522.071 293.279 521.321 296.884C521.21 297.421 521.803 297.884 521.694 298.22C521.541 298.691 521.688 299.078 521.665 299.499C521.545 301.661 521.465 303.83 521.237 305.981C521.186 306.454 521.253 307.131 520.679 307.485C520.272 307.737 520.439 308.224 520.441 308.512C520.361 309.785 519.944 311.013 519.232 312.07C518.981 312.61 518.772 313.169 518.608 313.741L517.526 315.11C516.523 315.723 516.589 316.892 516.558 317.732C516.519 318.948 516.267 320.12 516.15 321.311C516.022 322.612 515.839 323.922 515.617 325.203C515.345 326.77 515.013 328.348 514.627 329.893C513.977 332.667 513.146 335.395 512.139 338.061C511.574 339.495 511.142 340.982 510.689 342.457C510.278 344.2 509.673 345.891 508.884 347.499C509.216 348.403 508.146 348.723 508.06 349.494C507.936 350.136 507.738 350.761 507.468 351.356C506.911 352.886 506.097 354.304 505.5 355.815C505.384 356.106 505.236 355.987 505.109 356.037C504.962 356.093 504.832 356.187 504.732 356.309C504.632 356.431 504.566 356.576 504.539 356.731C504.479 357.2 504.943 357.825 504.05 357.957C503.909 358.478 503.714 358.983 503.467 359.463C502.792 361.431 500.973 362.833 500.763 365.013C500.741 365.073 500.702 365.126 500.651 365.165C498.968 366.99 498.252 369.447 496.634 371.323C496.383 371.615 495.831 371.607 495.856 371.9C495.905 372.445 495.556 372.715 495.309 373.053C495.191 373.196 495.104 373.362 495.055 373.541C495.005 373.72 494.993 373.907 495.02 374.091C495.075 374.528 494.272 374.226 494.334 374.704C494.397 375.181 494.065 375.395 493.855 375.686C492.843 377.089 491.76 378.443 490.812 379.888C490.476 380.4 489.707 380.497 489.663 381.221C488.888 381.306 488.775 382.061 488.377 382.518C487.915 383.048 487.644 383.837 487.085 384.165C486.392 384.578 485.822 385.171 485.437 385.88C485.013 386.619 484.067 386.744 483.715 387.524C483.582 387.824 483.224 387.873 483 388.043C481.982 388.787 481.022 389.608 480.128 390.498C478.569 391.983 476.86 393.302 475.029 394.434C473.861 395.245 472.624 395.952 471.331 396.546C468.821 397.724 466.23 398.724 463.579 399.536C462.008 399.98 460.43 400.444 458.879 400.989C457.199 401.469 455.49 401.839 453.762 402.097C452.353 402.39 450.88 402.346 449.536 402.997C449.302 403.104 449.045 403.153 448.787 403.138C448.529 403.124 448.279 403.047 448.058 402.914L448.097 403.537C447.379 403.473 446.715 403.941 445.921 403.605C445.308 403.347 444.831 404.085 444.189 404.118C442.44 404.209 440.772 405.078 438.965 404.658C438.609 404.888 438.208 405.037 437.788 405.097C437.369 405.156 436.941 405.123 436.536 405C435.938 405.785 435.339 404.718 434.739 405.135C434.425 405.096 434.768 405.312 434.516 405.497C433.821 405.295 433.009 405.678 432.203 405.626C431.375 405.571 430.593 405.884 429.687 405.571C428.938 405.31 427.942 405.76 426.961 405.91L425.967 405.179L425.311 405.891C424.343 405.805 423.503 405.198 422.457 405.468C421.583 405.693 420.702 405.119 419.747 405.319C419.033 405.397 418.311 405.326 417.625 405.112C417.271 404.949 416.95 404.723 416.677 404.444C414.89 404.894 413.003 404.703 411.343 403.904C409.399 404.062 407.609 402.995 405.694 403.155C405.056 403.211 404.687 402.811 404.127 402.748C401.526 402.452 398.945 402.003 396.331 401.758C394.269 401.564 392.226 401.134 390.189 400.734C388.938 400.499 387.662 400.431 386.393 400.532C383.713 400.716 381.039 400.96 378.364 401.182C375.624 401.409 372.887 401.703 370.147 401.882C366.008 402.151 361.965 402.997 357.876 403.547C355.119 403.917 352.419 404.625 349.678 405.115C347.17 405.563 344.688 406.228 342.192 406.783C338.947 407.508 335.735 408.408 332.54 409.339C328.935 410.389 325.402 411.671 321.89 412.997C318.588 414.243 315.383 415.736 312.111 417.043C309.208 418.202 306.264 419.305 303.328 420.389C301.19 421.179 299.091 422.085 296.952 422.875C294.218 423.881 291.471 424.856 288.666 425.655C287.495 425.987 286.376 426.478 285.186 426.792C284.617 427.01 284.024 427.159 283.421 427.236C282.803 427.243 282.425 427.687 281.869 427.807C279.87 428.242 277.927 428.886 275.91 429.294C273.659 429.748 271.443 430.407 269.173 430.814C268.569 430.922 267.899 430.806 267.358 430.903C266.732 431.016 266.176 431.383 265.452 431.208C264.912 431.078 264.484 431.885 263.758 431.449C263.526 431.308 262.911 431.751 262.435 431.876C261.138 432.213 259.808 431.925 258.508 432.165C257.196 432.463 255.863 432.66 254.521 432.752C252.404 432.808 250.305 433.132 248.203 433.161C246.198 433.187 244.163 433.649 242.194 433.11C241.662 432.964 241.517 433.806 241.079 433.307C237.811 433.215 234.543 433.145 231.276 433.021C229.906 432.968 228.553 432.648 227.198 432.471C225.443 432.241 223.634 432.255 221.908 431.722C219.814 431.076 217.522 431.266 215.508 430.251C214.439 430.634 213.543 429.727 212.497 429.837C212.088 429.88 212.043 429.497 212.017 429.206C210.241 429.128 208.483 428.815 206.79 428.275C204.659 427.569 202.43 427.16 200.293 426.471C196.983 425.473 193.732 424.291 190.554 422.928C189.28 422.353 188.021 421.803 186.786 421.13C185.644 420.509 184.34 420.145 183.185 419.487C183.044 419.406 182.756 419.526 182.663 419.429C181.588 418.32 179.897 418.221 178.846 417.106C178.042 416.253 176.8 416.25 175.94 415.484C175.183 414.697 174.291 414.052 173.307 413.579C171.041 412.736 169.33 411.118 167.554 409.659C166.413 408.723 165.215 407.796 164.169 406.75C162.447 405.158 160.904 403.382 159.569 401.453C157.804 398.738 156.446 395.778 155.539 392.668C154.972 390.294 154.808 387.841 155.054 385.411C155.193 383.753 155.529 382.118 156.056 380.54C156.402 379.376 157.027 378.212 157.491 377.044C158.157 375.359 159.122 373.826 159.771 372.13C160.196 371.177 160.713 370.267 161.315 369.415C163.628 365.628 166.131 361.962 168.815 358.429C169.32 357.786 170.164 357.584 170.553 356.798C170.852 356.085 171.323 355.456 171.923 354.969C172.792 354.383 173.212 353.437 173.965 352.846C174.677 352.168 175.353 351.453 175.99 350.704C177.473 349.283 179.24 348.164 180.491 346.489C183.559 344.77 186.005 342.195 189.068 340.419C191.313 339.113 193.573 337.799 195.772 336.409C197.485 335.326 199.347 334.551 201.062 333.488C201.731 333.073 202.648 333.074 203.322 332.75C203.97 332.439 204.478 331.774 205.2 331.403C205.45 331.233 205.735 331.122 206.034 331.077C206.333 331.031 206.638 331.053 206.927 331.14C207.344 329.86 208.756 330.259 209.485 329.473C210.169 328.735 211.312 328.417 212.271 327.945C213.23 327.474 214.233 327.074 215.174 326.566C216.169 326.03 217.175 325.526 218.191 325.033C219.127 324.522 220.031 323.957 220.901 323.34C221.862 322.862 222.849 322.435 223.856 322.063C224.823 321.582 225.617 320.85 226.627 320.447C227.581 320.015 228.511 319.53 229.414 318.997C229.268 318.469 228.968 318.87 228.793 318.722C228.715 318.007 229.319 318.097 229.692 318.102C230.261 318.107 230.259 317.469 230.714 317.357C231.129 317.294 231.519 317.117 231.839 316.845C232.146 316.557 232.49 316.313 232.864 316.119C233.192 315.9 233.319 315.27 233.883 315.797C234.388 315.69 234.455 315.159 234.776 314.866C235.025 314.946 235.292 314.955 235.546 314.891C235.801 314.828 236.032 314.694 236.214 314.506C236.095 314.939 236.032 315.167 235.967 315.399C236.134 315.445 236.308 315.453 236.478 315.422C236.648 315.391 236.809 315.322 236.948 315.219C237.087 315.117 237.202 314.985 237.283 314.832C237.363 314.679 237.409 314.51 237.415 314.338C237.392 313.366 238.131 313.308 238.541 313.039C238.769 312.506 237.829 312.258 238.511 311.764C239.39 312.149 240.333 312.58 241.087 311.472C242.376 311.48 242.935 310.212 244.025 309.791C245.047 309.397 245.77 308.388 246.886 308.009C247.466 307.815 247.512 306.993 248.172 306.706C248.921 306.382 249.393 305.63 250.199 305.244C250.72 304.994 251.146 304.323 251.761 303.954C252.191 303.589 252.56 303.157 252.853 302.674L253.431 302.932C253.587 301.901 254.54 301.567 255.212 301.014C255.942 300.408 256.76 299.916 257.638 299.556C257.905 299.482 258.143 299.329 258.322 299.117C258.501 298.905 258.612 298.644 258.641 298.369C258.645 297.859 259.451 297.906 259.158 297.362C260.027 297.427 260.007 296.051 260.983 296.249C261.432 296.34 261.667 295.715 262.151 295.795C261.89 295.356 262.448 294.971 262.235 294.536C263.434 293.787 263.434 293.787 264.124 293.889C264.21 293.016 264.421 292.295 265.584 292.2C266.243 292.147 266.327 290.953 267.173 290.831C267.127 290.584 267.049 290.168 267.285 290.157C268.058 290.114 268.129 289.192 268.704 289.06C269.395 288.899 269.5 288.288 269.873 287.892C270.281 287.456 270.288 286.784 270.924 286.416C271.472 286.097 271.606 285.233 272.411 285.092C272.815 285.018 272.24 284.402 272.809 284.254C273.199 284.153 272.813 283.376 273.559 283.296C274.117 283.235 274.292 282.485 274.649 282.052C274.975 281.66 275.259 281.233 275.563 280.82C275.191 280.624 275.191 280.625 275.001 280.644C274.905 280.454 275.005 280.316 275.093 280.151C275.372 279.632 276.085 279.714 276.369 279.131C276.446 278.89 276.575 278.669 276.748 278.484C276.921 278.299 277.132 278.155 277.367 278.061C277.808 277.932 277.46 277.322 277.843 277.028C278.134 276.805 278.547 276.893 278.768 276.484C279.839 274.533 281.876 273.382 282.91 271.441C283.41 271.419 283.134 271.815 283.298 271.951C283.347 271.944 283.445 271.957 283.468 271.922C284.629 270.12 286.49 268.91 287.581 267.056C287.857 266.587 288.61 266.538 288.564 265.767C288.533 265.255 289.558 265.405 289.414 264.694C290.203 264.643 290.32 263.882 290.723 263.432C291.105 263.003 291.416 262.51 291.757 262.046C292.194 261.578 292.565 261.053 292.861 260.485C293.091 259.853 294.408 260.124 293.961 259.051C294.782 259.073 294.915 258.305 295.304 257.852C295.763 257.319 296.15 256.723 296.568 256.156C296.921 255.621 297.305 255.107 297.718 254.617C298.431 253.855 299.37 253.294 299.856 252.329C300.324 251.4 301.5 251.284 301.816 250.277L302.284 250.622C299.985 253.532 297.229 256.061 295.208 259.455ZM484.535 384.661C485.051 384.335 486.019 384.503 485.852 383.466C486.557 383.566 486.122 382.96 486.298 382.724C486.536 382.401 486.985 382.562 487.229 382.172C487.581 381.618 488.601 381.607 488.421 380.552C488.349 380.131 489.379 380.419 489.304 379.815C489.229 379.211 489.487 379.116 489.98 378.944C490.331 378.824 490.47 378.216 491.016 378.276C490.982 376.902 492.248 376.283 492.788 375.241C493.034 374.768 493.532 374.413 493.423 373.783C493.769 373.742 494.089 373.579 494.325 373.323C494.562 373.067 494.699 372.736 494.713 372.388C494.547 371.425 495.583 371.462 495.726 370.709C495.855 370.023 496.467 369.354 496.743 368.591C497.009 368.08 497.344 367.608 497.739 367.188C498.075 366.643 498.463 366.132 498.898 365.662C499.275 365.32 498.891 364.483 499.714 364.504C499.799 363.896 500.049 363.324 500.436 362.847C500.819 362.416 501.164 361.953 501.469 361.463C501.93 360.815 502.317 360.117 502.624 359.384C502.971 358.506 503.153 357.45 503.966 356.776C504.184 356.597 504.096 356.314 504.163 356.096C504.312 355.391 504.603 354.723 505.017 354.134C505.505 353.577 505.799 352.879 505.857 352.141C505.902 351.212 506.669 350.8 506.837 349.986C507.052 348.938 507.414 347.926 507.912 346.979C508.948 345.055 508.91 342.729 510.322 340.963C510.555 340.673 510.088 340.146 510.33 339.697C511.191 337.898 511.831 336.002 512.237 334.05C511.813 334.685 510.896 335.076 511.276 336.097C511.414 336.468 511.112 336.677 510.943 336.928C510.698 337.296 510.268 337.64 510.223 338.025C510.005 340.024 509.014 341.758 508.464 343.632C508.243 344.387 507.644 344.894 507.519 345.589C507.178 347.161 506.695 348.698 506.076 350.183C505.597 351.461 505.044 352.755 504.48 353.962C503.894 355.214 503.433 356.648 502.364 357.669C502.227 357.8 502.019 357.99 502.036 358.128C502.153 359.018 501.496 359.528 501.031 360.067C500.518 360.664 500.579 361.453 500.112 362.059C499.516 362.843 499.01 363.691 498.601 364.587C497.926 366.028 496.707 367.198 496.098 368.737C495.479 369.629 494.836 370.503 494.168 371.359C493.736 371.729 493.926 372.466 493.439 372.655C492.738 372.927 492.872 373.509 492.723 374.005C492.655 374.227 492.43 374.215 492.246 374.24C492.091 374.27 491.949 374.347 491.84 374.462C491.731 374.577 491.661 374.722 491.639 374.879C491.784 375.498 491.383 375.833 491.087 376.223C490.727 376.699 490.486 377.319 489.785 377.43C489.983 378.276 489.164 378.612 488.889 379.222C488.583 379.899 487.678 380.135 487.597 380.977C486.004 381.73 485.584 383.449 484.535 384.661ZM270.077 429.301C271.043 428.873 271.98 428.317 273.023 428.336C275.475 428.382 277.578 426.742 280.049 426.966C280.973 425.999 282.312 426.121 283.447 425.751C285.059 425.223 286.632 424.563 288.256 424.108C289.727 423.697 291.114 423.116 292.538 422.603C293.962 422.09 295.387 421.564 296.834 421.154C298.648 420.641 300.258 419.666 302.061 419.13C303.3 418.762 304.635 418.486 305.668 417.569C305.788 417.462 306.048 417.529 306.226 417.468C307.71 416.955 309.233 416.529 310.663 415.89C313.341 414.695 316.024 413.523 318.767 412.488C319.114 412.357 319.806 412.371 319.891 411.539C319.471 411.603 319.021 411.563 318.686 411.741C316.665 412.81 314.477 413.463 312.385 414.348C310.794 415.022 309.203 415.701 307.619 416.39C305.411 417.352 303.04 417.922 300.811 418.857C299.36 419.466 297.804 419.853 296.405 420.496C293.88 421.655 291.195 422.331 288.645 423.399C286.645 424.237 284.492 424.745 282.417 425.414C280.367 426.141 278.255 426.676 276.107 427.012C275.62 427.062 275.151 427.228 274.741 427.495C274.291 427.794 273.66 427.05 273.258 427.727C271.986 427.745 270.869 428.455 269.615 428.552C269.437 428.566 269.363 428.596 269.412 428.773C269.572 429.015 269.805 429.2 270.077 429.301ZM463.155 382.025C463.508 381.95 463.874 381.983 463.981 381.832C464.592 380.969 465.596 380.539 466.205 379.63C467.559 377.609 469.063 375.689 470.506 373.727C471.607 372.231 472.735 370.753 473.802 369.232C474.935 367.812 475.927 366.285 476.766 364.673C477.391 363.28 478.539 362.151 479.2 360.7C479.861 359.248 481.143 358.143 481.771 356.577C482.33 355.42 483.089 354.371 484.013 353.477C484.929 352.478 485.098 351.115 485.959 350.089C487.359 348.425 487.929 346.35 488.616 344.24C487.581 344.664 487.827 345.68 487.357 346.308C486.729 347.148 486.19 348.05 485.748 349.001C485.101 350.39 484.014 351.551 483.321 352.979C482.565 354.535 481.206 355.735 480.535 357.418C480.087 358.54 479.1 359.395 478.654 360.613C478.228 361.549 477.62 362.391 476.865 363.09C476.141 363.848 476.075 364.89 475.475 365.693C472.035 370.321 468.617 374.966 465.221 379.627C464.646 380.436 463.535 380.714 463.159 382.027L463.155 382.025ZM361.782 222.631C361.824 222.296 361.615 221.956 361.999 221.711C362.65 221.721 363.315 221.338 364.005 221.58C364.213 221.654 364.402 221.703 364.483 221.525C364.792 220.883 365.543 221.116 365.909 220.807C366.423 220.373 366.973 220.465 367.5 220.354C367.977 220.224 368.478 220.213 368.959 220.321C369.333 220.421 369.876 219.881 370.344 219.628C370.767 219.396 371.162 219.846 371.563 219.689C371.865 219.516 371.866 218.802 372.395 219.164C372.896 219.509 373.044 218.964 373.336 218.858C373.783 218.695 374.214 219.283 374.537 218.877C375.18 218.068 376.199 218.203 376.997 217.703C377.079 218.139 377.147 218.496 377.215 218.852C377.887 218.71 377.818 218.092 377.94 217.677C378.694 217.582 379.072 218.072 379.543 218.611C379.361 217.79 379.939 217.457 380.29 217.012C380.994 216.887 381.699 216.816 382.81 216.575C380.024 215.607 378.039 217.17 375.868 217.403C375.837 217.102 375.847 216.837 375.422 216.638C374.584 217.629 373.242 217.267 372.084 217.54L372.143 218.226C371.084 218.517 369.949 218.458 368.91 218.986C368.451 219.219 367.737 219.445 367.267 219.146C366.367 218.572 365.546 218.906 364.791 219.256C364.418 219.43 364.25 219.296 363.985 219.227C363.797 219.176 363.733 219.262 363.813 219.433C363.94 219.784 364.523 219.775 364.479 220.237C364.391 220.356 364.336 220.516 364.238 220.55C363.515 220.798 362.728 220.456 362.05 220.662C361.339 220.878 360.87 221.672 360.032 221.752C359.968 221.758 359.905 221.771 359.842 221.78C359.454 221.464 360.028 220.429 358.816 220.55L359.076 222.662C360.071 222.697 360.91 222.197 361.785 222.634L361.782 222.631ZM469.313 383.936C471.18 382.855 472.253 381.07 473.476 379.419C475.192 377.102 476.816 374.713 478.622 372.47C481.093 369.402 482.915 365.905 485.26 362.76C485.347 362.665 485.423 362.561 485.488 362.451C485.711 361.8 486.008 361.177 486.375 360.594C486.868 359.846 487.409 359.13 487.994 358.451C488.615 357.833 488.501 356.94 489.039 356.309C489.63 355.634 490.162 354.909 490.627 354.142C491.09 353.354 492.101 352.858 491.96 351.729C491.97 351.667 491.996 351.608 492.035 351.558C492.074 351.508 492.125 351.469 492.184 351.445C493.19 351.415 493.014 350.561 493.247 349.977C493.428 349.196 493.792 348.469 494.309 347.855C494.363 347.807 494.302 347.627 494.298 347.513C494.219 347.427 494.115 347.369 494 347.347C493.885 347.326 493.766 347.342 493.661 347.394C493.243 347.572 493.72 348.115 493.408 348.509C492.335 349.965 491.336 351.475 490.414 353.032C489.061 355.143 488.072 357.504 486.334 359.368C486.247 359.461 486.112 359.576 486.115 359.676C486.146 360.665 485.449 361.294 484.887 361.923C484.277 362.607 484.199 363.502 483.717 364.209C481.763 367.079 479.564 369.762 477.798 372.787C476.16 375.592 473.988 378.084 472.051 380.716C471.861 380.974 471.724 381.372 471.473 381.465C470.285 381.908 470.023 383.1 469.313 383.936ZM499.574 351.401C498.622 351.594 499.059 352.547 498.628 353.059C496.672 355.383 495.57 358.284 493.553 360.571C493.342 360.81 493.02 361.079 493.009 361.343C492.967 362.318 492.328 362.95 491.772 363.591C491.182 364.274 491.068 365.168 490.585 365.861C489.306 367.7 488.028 369.551 486.595 371.268C485.128 373.024 484.384 375.208 482.939 376.969C481.763 378.402 480.718 379.944 479.626 381.446C479.458 381.603 479.343 381.808 479.297 382.033C479.25 382.258 479.275 382.492 479.367 382.703C479.983 380.937 481.476 380.351 482.31 379.107C483.057 377.993 483.873 376.918 484.697 375.855C485.539 374.769 485.909 373.43 486.757 372.322C487.927 370.789 489.277 369.372 489.963 367.47C490.295 366.544 491.198 365.84 491.718 364.966C492.253 364.073 493.095 363.434 493.35 362.266C493.549 361.352 494.482 360.598 495.09 359.773C495.507 359.205 496.172 358.683 496.285 358.061C496.47 357.045 497.321 356.485 497.605 355.637C497.935 354.704 498.433 353.839 499.075 353.087C499.496 352.57 499.394 351.962 499.574 351.401ZM267.441 421.235L267.541 421.892C266.82 421.862 266.066 422.488 265.416 421.671C265.149 421.99 264.905 422.328 264.686 422.682C264.465 423.111 264.076 423.102 263.712 423.13C263.209 423.171 263.367 422.6 263.11 422.404C262.492 422.878 261.879 423.349 261.271 423.817C260.998 423.476 261.761 423.127 260.987 422.698C260.724 423.49 259.756 422.853 259.243 423.545C259.314 423.845 259.403 424.139 259.511 424.427C259.659 424.764 260.092 424.316 260.267 424.621C260.258 424.899 259.96 425.067 260.104 425.339C260.32 424.927 261.252 425.217 261.04 424.35C261.845 424.16 262.668 424.055 263.495 424.036C264.255 423.988 265.007 423.859 265.739 423.651C266.569 423.635 267.392 423.494 268.181 423.233C268.932 422.974 269.699 422.761 270.476 422.595C271.17 422.363 271.882 422.187 272.604 422.069C273.386 421.903 274.15 421.666 274.889 421.362C275.75 421.157 276.596 420.896 277.423 420.581C274.584 420.088 272.251 421.399 269.961 420.811C269.514 421.095 269.461 421.626 269.078 421.756L267.441 421.235ZM339.998 274.108C339.165 274.188 338.36 274.452 337.642 274.883C335.893 275.98 334.211 277.178 332.426 278.222C330.034 279.622 327.627 281.021 325.375 282.629C324.193 283.473 322.664 284.102 322.173 285.84C323.7 285.084 325.186 284.246 326.623 283.33C328.653 281.891 330.773 280.616 332.916 279.368C333.821 278.936 334.675 278.404 335.462 277.782C336.273 277.084 337.151 276.467 338.082 275.941C338.808 275.478 339.728 275.125 339.996 274.107L339.998 274.108ZM449.923 313.682C450.436 313.47 450.742 313.52 451.044 313.347C452.447 312.453 453.793 311.471 455.074 310.409C456.382 309.457 457.621 308.415 458.782 307.288C459.936 306.124 461.397 305.409 462.609 304.314C464.215 303.014 465.708 301.581 467.073 300.03C467.788 299.125 467.852 297.919 468.689 297.12C468.778 297.028 468.855 296.924 468.916 296.811C468.998 296.668 469.135 296.499 468.749 296.41C467.913 297.428 467.035 298.463 466.123 299.456C464.75 300.952 463.401 302.443 461.913 303.838C461.307 304.426 460.658 304.967 459.971 305.457C459.216 305.976 458.682 306.703 457.943 307.242C456.068 308.61 454.19 309.977 452.385 311.445C451.6 312.076 450.588 312.425 449.921 313.682L449.923 313.682Z" fill="black"/>
</g>
<g clip-path="url(#clip1)">
<path d="M131.158 82.2939C135.769 80.6029 140.61 86.6319 143.071 89.6199C147.898 95.4789 151.333 102.363 156.493 107.964C161.954 113.892 168.508 118.635 172.817 125.574C177.025 132.35 179.282 140.173 180.738 147.955C182.359 156.616 182.955 165.429 184.459 174.108C186.125 183.725 189.78 191.999 193.625 200.882C197.292 209.355 197.72 217.694 198.212 226.788C198.787 237.406 203.102 246.792 204.548 257.184C207.235 276.485 198.893 296.118 205.492 315.036C205.611 315.377 205.542 315.658 205.383 315.871C205.583 316.136 205.789 316.401 205.987 316.666C206.782 317.728 204.994 318.757 204.207 317.707C198.831 310.523 192.822 303.493 188.378 295.674C184.407 288.687 183.598 282.177 183.98 274.269C184.44 264.746 181.129 255.596 181.144 246.033C181.159 236.349 181.144 227.069 178.516 217.644C175.906 208.282 171.205 200.292 166.101 192.13C161.537 184.831 158.645 177.655 156.958 169.206C155.011 159.455 152.784 150.532 147.967 141.73C143.796 134.11 138.767 126.992 134.662 119.335C130.922 112.359 127.822 104.851 126.986 96.9179C126.549 92.7709 125.965 84.1979 131.158 82.2939Z" fill="#2B7663"/>
<path d="M207.697 227.399C211.082 211.077 205.774 193.958 210.514 177.926C212.937 169.73 217.717 163.279 218.248 154.462C218.717 146.672 219.527 139.137 220.883 131.445C222.426 122.69 223.981 113.938 225.531 105.184C226.194 101.439 226.706 96.856 231.558 97.936C243.065 100.498 243.031 120.62 242.901 129.19C242.767 138.057 240.793 146.538 244.998 154.817C248.206 161.131 248.88 166.662 247.986 173.737C245.849 190.642 239.183 206.094 239.709 223.399C239.966 231.867 239.46 239.23 235.906 246.994C231.927 255.687 227.097 263.231 227.612 273.182C228.074 282.105 227.893 289.91 224.95 298.456C222.103 306.724 217.827 314.4 213.54 321.989C212.887 323.144 211.106 322.106 211.76 320.948C211.836 320.814 211.91 320.68 211.986 320.545C212.714 311.847 209.423 304.046 206.431 296.078C203.72 288.859 201.789 281.452 201.033 273.766C199.427 257.45 204.439 243.108 207.697 227.399Z" fill="#40957E"/>
<path d="M63.5849 114.937C65.3039 110.225 71.8959 113.207 74.9089 114.918C78.1839 116.777 80.9979 119.318 84.0569 121.49C88.0219 124.305 92.1249 125.53 96.7389 126.859C112.204 131.317 120.914 149.79 127.209 163.158C129.002 166.966 130.316 171.213 132.366 174.872C134.85 179.306 139.032 181.978 142.503 185.556C147.685 190.896 151.787 197.287 154.531 204.2C158.092 213.171 157.999 223.505 162.661 232.031C167.166 240.27 177.11 243.081 181.069 251.804C184.952 260.361 185.332 270.822 186.452 280.043C187.88 291.796 189.482 303.551 194.178 314.519C194.665 315.657 193.029 316.641 192.502 315.558C189.626 316.646 186.538 317.164 183.471 316.502C180.206 315.797 180.343 312.881 179.253 309.921C175.76 300.44 171.641 291.025 165.041 283.256C159.686 276.952 152.839 271.968 148.649 264.707C143.659 256.06 141.363 246.681 135.008 238.723C129.377 231.672 124.273 225.017 119.79 217.145C115.295 209.253 109.79 202.976 103.054 196.947C97.5639 192.033 91.8409 187.193 87.6819 181.039C82.8659 173.913 82.3209 165.628 79.5449 157.705C76.6409 149.418 71.5949 142.132 67.8819 134.221C65.5849 129.334 61.5499 120.517 63.5849 114.937Z" fill="#40957E"/>
<path d="M100.719 151.822C104.02 159.252 107.334 166.71 111.564 173.671C116.277 181.426 122.469 187.508 128.63 194.065C133.457 199.202 137.759 204.822 140.64 211.297C143.499 217.721 144.811 224.655 147.016 231.301C149.922 240.056 155.145 245.8 161.119 252.545C165.658 257.669 169.244 263.472 172.103 269.682C174.972 275.913 177.134 282.441 179.129 288.995C180.288 292.803 181.38 296.631 182.522 300.445C183.566 303.931 184.495 311.485 188.945 311.876C190.256 311.991 190.268 314.053 188.945 313.937C183.973 313.501 182.775 308.306 181.52 304.244C179.173 296.65 177.131 288.959 174.541 281.441C171.847 273.621 168.555 265.916 163.753 259.135C158.834 252.188 151.86 246.929 147.997 239.224C144.594 232.436 143.216 224.909 140.874 217.74C137.965 208.835 132.945 201.569 126.512 194.835C120.824 188.881 115.168 183.228 110.732 176.241C106.043 168.856 102.482 160.839 98.9379 152.863C98.4059 151.661 100.181 150.611 100.719 151.822Z" fill="#2B7663"/>
<path d="M162.829 315.956C162.829 315.502 162.829 315.028 162.85 314.575C162.871 313.668 162.582 312.349 162.871 311.359C163.448 309.463 166.107 309.916 167.612 309.937C172.27 309.957 176.928 310.122 181.586 310.37C187.543 310.659 193.5 311.091 199.436 311.462C211.123 312.163 222.727 310.308 234.434 311.091C234.681 311.091 234.846 311.194 235.011 311.318C235.299 311.38 235.547 311.586 235.629 311.998C237.299 321.892 240.184 331.435 244.348 340.566C245.77 343.699 247.502 346.461 246.512 349.986C245.749 352.686 243.503 355.159 241.771 357.303C241.029 358.231 240.266 359.117 239.462 359.983C238.576 360.972 237.669 361.921 236.7 362.827C233.134 366.29 229.136 369.278 224.828 371.752C222.025 373.36 219.077 374.761 216.027 375.895C214.069 376.637 211.925 377.008 210.008 377.812C205.37 379.729 205.082 382.511 205.494 386.592C205.659 386.592 205.824 386.572 205.989 386.572C207.308 386.469 207.308 388.53 205.989 388.633C198.054 389.21 188.655 389.066 181.379 385.356C174.804 381.996 171.176 375.359 169.095 368.537C168.147 365.363 167.302 362.168 166.601 358.953C165.735 355.057 165.055 351.141 164.519 347.184C163.694 341.289 163.2 335.353 162.953 329.396C162.829 326.098 162.767 322.801 162.767 319.482C162.767 319.152 162.767 318.843 162.788 318.513C162.788 317.667 162.808 316.801 162.829 315.956Z" fill="#9B2E08"/>
<path d="M162.829 315.956C165.941 317.79 169.054 319.707 172.187 321.521C181.153 326.715 190.614 331.002 200.445 334.28C208.112 336.836 216.233 338.423 222.644 343.658C228.766 348.667 232.929 355.551 239.463 359.982C239.978 360.353 240.494 360.683 241.05 361.013C242.41 361.075 242.452 363.012 241.215 363.054C241.009 363.157 240.741 363.157 240.473 363.054C239.236 363.013 237.959 362.951 236.701 362.827C233.918 362.6 231.136 362.126 228.601 360.972C224.932 359.302 222.356 356.252 219.223 353.841C211.597 347.925 201.229 346.318 192.799 341.701C181.669 335.621 172.847 326.098 162.789 318.513C162.788 317.667 162.808 316.801 162.829 315.956Z" fill="#C34A22"/>
<path d="M184.842 355.922C196.075 359.405 209.638 357.427 219.304 364.764C219.325 363.857 220.664 363.259 221.221 364.228C222.21 365.939 222.808 367.773 223.055 369.69C223.406 369.731 223.756 369.772 224.127 369.793C225.446 369.875 225.446 371.937 224.127 371.854C217.099 371.462 210.73 368.845 204.01 367.072C195.93 364.928 187.706 366.598 179.647 364.722C174.968 363.63 170.619 361.568 166.6 358.951C165.734 355.055 165.054 351.139 164.518 347.182C171.135 350.46 177.772 353.737 184.842 355.922Z" fill="#C34A22"/>
</g>
<defs>
<clipPath id="clip0">
<rect width="563.516" height="422.982" fill="white" transform="translate(454.825 674.667) rotate(-143.653)"/>
</clipPath>
<clipPath id="clip1">
<rect width="185.32" height="306.886" fill="white" transform="matrix(-1 0 0 1 248.349 82)"/>
</clipPath>
</defs>
</svg>
