<svg width="261" height="364" viewBox="0 0 261 364" fill="none" xmlns="http://www.w3.org/2000/svg">
<g clip-path="url(#clip0)">
<path d="M69.1882 0.433993C64.5772 -1.25701 59.7362 4.77199 57.2752 7.75999C52.4482 13.619 49.0132 20.503 43.8532 26.104C38.3922 32.032 31.8382 36.775 27.5292 43.714C23.3212 50.49 21.0642 58.313 19.6082 66.095C17.9872 74.756 17.3912 83.569 15.8872 92.248C14.2212 101.865 10.5662 110.139 6.72118 119.022C3.05418 127.495 2.62618 135.834 2.13418 144.928C1.55918 155.546 -2.75582 164.932 -4.20182 175.324C-6.88882 194.625 1.45318 214.258 -5.14582 233.176C-5.26482 233.517 -5.19582 233.798 -5.03682 234.011C-5.23682 234.276 -5.44282 234.541 -5.64082 234.806C-6.43582 235.868 -4.64782 236.897 -3.86082 235.847C1.51518 228.663 7.52418 221.633 11.9682 213.814C15.9392 206.827 16.7482 200.317 16.3662 192.409C15.9062 182.886 19.2172 173.736 19.2022 164.173C19.1872 154.489 19.2022 145.209 21.8302 135.784C24.4402 126.422 29.1412 118.432 34.2452 110.27C38.8092 102.971 41.7012 95.795 43.3882 87.346C45.3352 77.595 47.5622 68.672 52.3792 59.87C56.5502 52.25 61.5792 45.132 65.6842 37.475C69.4242 30.499 72.5242 22.991 73.3602 15.058C73.7972 10.911 74.3812 2.33799 69.1882 0.433993Z" fill="#2B7663"/>
<path d="M-7.35102 145.539C-10.736 129.217 -5.42802 112.098 -10.168 96.0662C-12.591 87.8702 -17.371 81.4192 -17.902 72.6022C-18.371 64.8122 -19.181 57.2772 -20.537 49.5852C-22.08 40.8302 -23.635 32.0782 -25.185 23.3242C-25.848 19.5792 -26.36 14.9962 -31.212 16.0762C-42.719 18.6382 -42.685 38.7602 -42.555 47.3302C-42.421 56.1972 -40.447 64.6782 -44.652 72.9572C-47.86 79.2712 -48.534 84.8022 -47.64 91.8772C-45.503 108.782 -38.837 124.234 -39.363 141.539C-39.62 150.007 -39.114 157.37 -35.56 165.134C-31.581 173.827 -26.751 181.371 -27.266 191.322C-27.728 200.245 -27.547 208.05 -24.604 216.596C-21.757 224.864 -17.481 232.54 -13.194 240.129C-12.541 241.284 -10.76 240.246 -11.414 239.088C-11.49 238.954 -11.564 238.82 -11.64 238.685C-12.368 229.987 -9.07702 222.186 -6.08502 214.218C-3.37402 206.999 -1.44302 199.592 -0.687016 191.906C0.918983 175.59 -4.09302 161.248 -7.35102 145.539Z" fill="#40957E"/>
<path d="M136.761 33.077C135.042 28.365 128.45 31.347 125.437 33.058C122.162 34.917 119.348 37.458 116.289 39.63C112.324 42.445 108.221 43.67 103.607 44.999C88.1421 49.457 79.4321 67.93 73.1371 81.298C71.3441 85.106 70.0301 89.353 67.9801 93.012C65.4961 97.446 61.3141 100.118 57.8431 103.696C52.6611 109.036 48.5591 115.427 45.8151 122.34C42.2541 131.311 42.3471 141.645 37.6851 150.171C33.1801 158.41 23.2361 161.221 19.2771 169.944C15.3941 178.501 15.0141 188.962 13.8941 198.183C12.4661 209.936 10.8641 221.691 6.16806 232.659C5.68106 233.797 7.31705 234.781 7.84405 233.698C10.7201 234.786 13.8081 235.304 16.8751 234.642C20.1401 233.937 20.0031 231.021 21.0931 228.061C24.5861 218.58 28.7051 209.165 35.3051 201.396C40.6601 195.092 47.5071 190.108 51.6971 182.847C56.687 174.2 58.9831 164.821 65.3381 156.863C70.9691 149.812 76.0731 143.157 80.5561 135.285C85.0511 127.393 90.5561 121.116 97.2921 115.087C102.782 110.173 108.505 105.333 112.664 99.179C117.48 92.053 118.025 83.768 120.801 75.845C123.705 67.558 128.751 60.272 132.464 52.361C134.761 47.474 138.796 38.657 136.761 33.077Z" fill="#40957E"/>
<path d="M99.6271 69.9621C96.3261 77.3921 93.0121 84.8501 88.7821 91.8111C84.0691 99.5661 77.8771 105.648 71.7161 112.205C66.8891 117.342 62.5871 122.962 59.7061 129.437C56.8471 135.861 55.5351 142.795 53.3301 149.441C50.4241 158.196 45.2011 163.94 39.2271 170.685C34.6881 175.809 31.1021 181.612 28.2431 187.822C25.3741 194.053 23.2121 200.581 21.2171 207.135C20.0581 210.943 18.9661 214.771 17.8241 218.585C16.7801 222.071 15.8511 229.625 11.4011 230.016C10.0901 230.131 10.0781 232.193 11.4011 232.077C16.3731 231.641 17.5711 226.446 18.8261 222.384C21.1731 214.79 23.2151 207.099 25.8051 199.581C28.4991 191.761 31.7911 184.056 36.5931 177.275C41.5121 170.328 48.4861 165.069 52.3491 157.364C55.7521 150.576 57.1301 143.049 59.4721 135.88C62.3811 126.975 67.4011 119.709 73.8341 112.975C79.5221 107.021 85.1781 101.368 89.6141 94.3811C94.3031 86.9961 97.8641 78.9791 101.408 71.0031C101.94 69.8011 100.165 68.7511 99.6271 69.9621Z" fill="#2B7663"/>
<path d="M37.517 234.096C37.517 233.642 37.517 233.168 37.496 232.715C37.475 231.808 37.764 230.489 37.475 229.499C36.898 227.603 34.239 228.056 32.734 228.077C28.076 228.097 23.418 228.262 18.76 228.51C12.803 228.799 6.84603 229.231 0.91003 229.602C-10.777 230.303 -22.381 228.448 -34.088 229.231C-34.335 229.231 -34.5 229.334 -34.665 229.458C-34.953 229.52 -35.201 229.726 -35.283 230.138C-36.953 240.032 -39.838 249.575 -44.002 258.706C-45.424 261.839 -47.156 264.601 -46.166 268.126C-45.403 270.826 -43.157 273.299 -41.425 275.443C-40.683 276.371 -39.92 277.257 -39.116 278.123C-38.23 279.112 -37.323 280.061 -36.354 280.967C-32.788 284.43 -28.79 287.418 -24.482 289.892C-21.679 291.5 -18.731 292.901 -15.681 294.035C-13.723 294.777 -11.579 295.148 -9.66197 295.952C-5.02397 297.869 -4.73597 300.651 -5.14797 304.732C-5.31297 304.732 -5.47797 304.712 -5.64297 304.712C-6.96197 304.609 -6.96197 306.67 -5.64297 306.773C2.29203 307.35 11.691 307.206 18.967 303.496C25.542 300.136 29.17 293.499 31.251 286.677C32.199 283.503 33.044 280.308 33.745 277.093C34.611 273.197 35.291 269.281 35.827 265.324C36.652 259.429 37.146 253.493 37.393 247.536C37.517 244.238 37.579 240.941 37.579 237.622C37.579 237.292 37.579 236.983 37.558 236.653C37.558 235.807 37.538 234.941 37.517 234.096Z" fill="#9B2E08"/>
<path d="M37.517 234.096C34.405 235.93 31.292 237.847 28.159 239.661C19.193 244.855 9.73196 249.142 -0.099041 252.42C-7.76604 254.976 -15.887 256.563 -22.298 261.798C-28.42 266.807 -32.583 273.691 -39.117 278.122C-39.632 278.493 -40.148 278.823 -40.704 279.153C-42.064 279.215 -42.106 281.152 -40.869 281.194C-40.663 281.297 -40.395 281.297 -40.127 281.194C-38.89 281.153 -37.613 281.091 -36.355 280.967C-33.572 280.74 -30.79 280.266 -28.255 279.112C-24.586 277.442 -22.01 274.392 -18.877 271.981C-11.251 266.065 -0.883041 264.458 7.54696 259.841C18.677 253.761 27.499 244.238 37.557 236.653C37.558 235.807 37.538 234.941 37.517 234.096Z" fill="#C34A22"/>
<path d="M15.504 274.062C4.27099 277.545 -9.29201 275.567 -18.958 282.904C-18.979 281.997 -20.318 281.399 -20.875 282.368C-21.864 284.079 -22.462 285.913 -22.709 287.83C-23.06 287.871 -23.41 287.912 -23.781 287.933C-25.1 288.015 -25.1 290.077 -23.781 289.994C-16.753 289.602 -10.384 286.985 -3.66401 285.212C4.41599 283.068 12.64 284.738 20.699 282.862C25.378 281.77 29.727 279.708 33.746 277.091C34.612 273.195 35.292 269.279 35.828 265.322C29.211 268.6 22.574 271.877 15.504 274.062Z" fill="#C34A22"/>
</g>
<g clip-path="url(#clip1)">
<path d="M188.365 319.991C188.384 318.262 188.365 316.534 188.345 314.805C188.345 314.098 188.326 313.371 188.306 312.664C188.287 310.837 188.267 309.01 188.228 307.183C188.208 306.495 187.639 306.202 187.109 306.24C186.912 305.965 186.56 305.789 186.128 305.907C171.31 309.953 158.907 319.323 144.62 324.626C137.888 327.121 130.195 327.298 124.209 331.56C119.989 334.585 115.083 339.183 114.515 344.623C114.338 344.82 114.24 345.115 114.318 345.448C115.378 349.966 116.104 360.377 121.168 362.735C123.523 363.835 127.35 362.44 129.567 361.752C133.747 360.495 137.849 358.903 141.892 357.235C157.161 350.909 171.487 342.62 186.384 335.49C186.736 336.335 188.248 336.197 188.267 335.078C188.306 333.034 188.327 331.012 188.346 328.968C188.366 328.261 188.366 327.534 188.366 326.827C188.385 325.275 188.385 323.704 188.385 322.152C188.385 321.425 188.385 320.718 188.365 319.991Z" fill="#FFF6E4"/>
<path d="M188.365 326.827C188.365 327.534 188.365 328.261 188.345 328.968C166.266 339.085 144.089 348.945 121.794 358.551C120.637 359.042 119.635 357.352 120.794 356.841C143.422 347.079 165.952 337.08 188.365 326.827Z" fill="#F0CB98"/>
<path d="M188.385 322.152C165.501 332.641 142.519 342.855 119.401 352.814C118.243 353.305 117.242 351.616 118.4 351.125C141.833 341.008 165.168 330.638 188.366 319.991C188.385 320.718 188.385 321.425 188.385 322.152Z" fill="#F0CB98"/>
<path d="M188.345 314.805C165.481 325.275 142.5 335.49 119.4 345.448C118.242 345.939 117.241 344.249 118.399 343.759C141.813 333.663 165.128 323.291 188.305 312.664C188.326 313.371 188.345 314.098 188.345 314.805Z" fill="#F0CB98"/>
<path d="M192.114 334.978C170.172 344.21 149.447 356.173 126.898 363.932C126.721 363.971 126.584 363.991 126.447 363.971C125.152 364.305 90.2572 354.798 63.7631 346.941C37.269 339.083 9.38 331.56 7.10339 328.456C4.9055 325.471 6.67178 307.497 8.35933 304.55C8.4186 304.413 8.4964 304.315 8.57513 304.236C8.92802 303.902 9.55598 303.548 10.3016 303.175C13.1274 301.781 17.9168 300.249 18.3874 300.052L122.482 326.158C122.482 326.158 132.942 322.858 126.662 333.17C145.129 326.492 162.459 317.2 180.298 309.088C180.083 308.735 180.063 308.263 180.435 307.968C181.083 307.457 181.79 306.77 182.575 306.456C182.673 306.377 182.771 306.338 182.87 306.279C183.184 305.886 183.497 305.533 183.851 305.199C183.478 304.629 183.734 303.647 184.616 303.647C186.206 303.647 187.776 304.355 189.268 304.826C189.503 304.904 189.66 305.061 189.798 305.277C190.367 305.611 190.445 306.79 189.582 307.143C167.797 316.316 147.19 328.162 124.817 335.92C114.886 349.592 126.367 362.026 126.367 362.026C148.917 354.286 169.661 342.304 191.583 333.072C192.761 332.582 193.252 334.488 192.114 334.978Z" fill="#2B7663"/>
<path d="M105.511 230.566C105.511 230.566 116.918 216.325 123.788 208.345C130.656 200.365 132.864 197.035 133.478 196.981C134.091 196.927 172.297 208.59 188.09 214.483C203.884 220.377 213.206 225.041 213.574 225.533C213.942 226.024 171.624 284.447 170.52 287.401C169.416 290.355 94.2258 283.603 94.2258 283.603L105.511 230.566Z" fill="#D59512"/>
<path d="M184.597 303.059C182.183 305.808 179.867 308.617 177.532 311.427C175.766 313.509 173.862 315.395 172.174 317.477C169.897 319.715 167.601 321.955 165.363 324.234C161.026 328.673 155.648 332.955 151.528 337.787L151.154 336.825L150.507 335.194L149.546 332.758L148.839 331.009L147.838 328.475L151.959 322.032L177.276 291.644L181.574 289.641C181.554 289.464 181.535 289.307 181.515 289.149C181.319 287.912 183.203 287.382 183.399 288.639C183.654 290.21 183.851 291.762 183.969 293.333C184.067 294.256 184.125 295.12 184.185 295.965C184.263 297.006 184.322 298.008 184.381 299.01C184.421 299.895 184.479 300.778 184.518 301.642C184.558 302.115 184.577 302.587 184.597 303.059Z" fill="#FFF6E4"/>
<path d="M184.185 295.967C178.866 301.762 173.548 307.557 168.248 313.351C162.498 319.657 156.944 327.731 149.937 332.601C149.8 332.7 149.662 332.738 149.545 332.759C148.72 332.896 148.132 331.658 148.838 331.01C148.877 330.972 148.917 330.932 148.955 330.912C153.038 328.064 156.257 323.605 159.592 319.931C162.418 316.828 165.264 313.724 168.09 310.641C173.369 304.846 178.649 299.09 183.967 293.335C184.067 294.258 184.125 295.122 184.185 295.967Z" fill="#F0CB98"/>
<path d="M185.744 300.386C174.727 312.552 164.025 325.009 152.31 336.519C152.325 333.775 152.062 329.35 151.959 326.591C151.94 325.747 151.92 325.059 151.94 324.627C151.94 324.332 151.959 324.155 151.998 324.116C152.371 323.744 185.853 287.384 185.97 286.912C186.108 286.42 50.6907 268.212 47.9824 268.349C46.7459 268.428 32.7723 284.338 23.45 293.787C16.3256 301.016 12.4985 304.511 10.811 306.849C10.3396 307.517 10.0265 308.106 9.86905 308.657C9.8496 308.696 9.82922 308.736 9.82922 308.775C9.2207 311.231 9.33833 319.206 9.82922 319.952C10.3201 320.679 33.2622 323.881 70.178 329.774C107.094 335.667 151.126 338.959 151.997 338.967C152.317 338.97 152.802 338.993 153.136 338.668C165.113 326.978 176 314.266 187.225 301.869C188.13 300.87 186.652 299.383 185.744 300.386Z" fill="#7882BE"/>
<path d="M260.058 243.264C259.626 243.638 249.028 247.448 237.802 252.536C226.576 257.643 199.276 267.818 197.805 268.309C197.569 268.388 197.275 268.368 196.902 268.25C194.86 267.7 190.877 264.851 187.874 263.889C185.852 263.261 181.868 264.341 178.728 265.343C176.354 266.129 174.47 266.875 174.254 266.835C173.763 266.776 169.603 263.398 169.779 263.122C169.779 263.122 173.293 261.727 176.727 260.314C178.748 259.469 180.77 258.624 181.987 258.035C185.304 256.464 187.207 247.879 188.07 247.133C189.405 246.229 251.657 224.17 252.462 224.17C252.756 224.368 260.489 242.911 260.058 243.264Z" fill="#FFF6E4"/>
<path d="M178.728 265.344C176.354 266.13 174.47 266.876 174.254 266.836C173.763 266.777 169.603 263.399 169.779 263.123C169.779 263.123 173.293 261.728 176.727 260.314C177.434 261.985 178.1 263.655 178.728 265.344Z" fill="#471F1E"/>
<path d="M258.978 239.867C258.781 239.317 258.546 238.689 258.271 238.041C256.093 232.442 252.658 224.31 252.462 224.172C251.657 224.172 189.405 246.232 188.09 247.135C190.601 252.321 192.859 257.644 194.939 263.026C195.174 263.635 195.409 264.244 195.626 264.853C196.058 265.973 196.489 267.112 196.902 268.252C197.274 268.369 197.568 268.389 197.805 268.311C199.276 267.82 226.576 257.645 237.802 252.538C249.028 247.45 259.626 243.639 260.058 243.266C260.175 243.166 259.724 241.811 258.978 239.867Z" fill="#C34A22"/>
<path d="M151.685 243.186C143.246 240.198 134.124 240.879 125.369 241.56C124.743 241.609 124.428 242.126 124.427 242.618C124.28 242.773 124.174 242.977 124.17 243.251C124.148 244.684 124.127 246.117 124.105 247.55C123.356 247.993 123.427 249.278 124.318 249.358C124.726 249.816 125.567 249.773 125.902 249.225C133.378 248.453 158.143 246.621 151.47 257.306C148.985 261.284 141.965 262.891 137.817 264.201C133.141 265.677 128.371 266.699 123.524 267.418C122.811 267.524 122.693 268.186 122.944 268.701C122.552 269.058 122.612 269.512 122.892 269.84C122.701 270.873 122.51 271.907 122.319 272.939C122.123 273.074 121.931 273.128 121.733 273.167C120.495 273.411 121.019 275.305 122.255 275.06C130.86 273.359 139.354 270.413 147.437 267.026C153.11 264.648 160.673 261.232 161.542 254.251C162.319 248.012 156.8 244.999 151.685 243.186Z" fill="#471F1E"/>
<path d="M125.857 228.689C125.837 228.572 125.798 228.473 125.72 228.316C125.583 228.08 125.327 227.903 124.955 227.903C105.349 228.119 85.7428 228.139 66.1369 227.982C66.0582 227.982 65.9998 228.002 65.9405 228.021C65.5478 228.002 65.1755 228.198 65.0967 228.728C64.4299 233.384 64.0372 238.157 63.8603 242.989C63.5268 252.476 64.0761 262.141 65.1755 271.294C65.96 277.816 66.7648 285.005 70.5919 290.564C75.5175 297.695 85.1148 298.185 92.9654 298.323C97.9307 298.402 102.896 298.088 107.802 297.342C110.373 296.949 113.062 296.222 115.397 294.945C116.634 294.317 117.772 293.492 118.733 292.51C118.969 292.274 119.185 292.019 119.401 291.764C121.932 288.719 123.326 284.889 124.229 281.097C124.465 280.095 124.681 279.094 124.857 278.072C125.25 275.833 125.545 273.555 125.819 271.296C127.486 257.487 127.859 242.498 125.857 228.689Z" fill="#FFF6E4"/>
<path d="M110.962 279.231C108.98 275.204 106.094 271.61 104.289 267.504C102.7 263.909 103.21 259.745 100.737 256.504C98.8728 254.049 95.5949 251.829 92.8867 250.435C91.3362 249.629 89.8061 249.217 88.0788 248.883C85.1149 248.313 83.369 247.43 80.896 245.602C75.9112 241.949 69.7686 242.165 63.8612 242.99C63.5278 252.477 64.077 262.142 65.1765 271.295C65.9609 277.817 66.7658 285.006 70.5929 290.565C75.5185 297.696 85.1158 298.186 92.9663 298.324C97.9317 298.403 102.897 298.089 107.803 297.343C110.374 296.95 113.063 296.223 115.398 294.946C115.063 289.524 113.435 284.26 110.962 279.231Z" fill="#EEA614"/>
<path d="M114.876 241.522C113.82 240.422 112.277 239.79 110.158 239.965C101.647 240.668 95.33 248.271 91.3343 255.172C88.1732 260.631 88.7372 270.052 97.3148 268.367C105.087 266.841 113.909 258.248 116.167 250.832C117.146 247.616 116.939 243.673 114.876 241.522Z" fill="#471F1E"/>
<path d="M151.959 326.591C127.153 323.231 102.365 319.774 77.5191 316.572C55.0678 313.685 32.0071 313.724 9.86987 308.656C10.0264 308.107 10.3404 307.517 10.8118 306.849C33.8725 312.073 58.0317 312.015 81.4054 315.119C104.917 318.222 128.428 321.444 151.94 324.626C151.92 325.059 151.94 325.746 151.959 326.591Z" fill="#471F1E"/>
<path d="M179.302 246.91C177.26 246.788 176.623 245.364 174.985 244.768C173.765 244.325 172.454 244.49 171.19 244.414C168.213 244.235 166.678 240.782 163.541 241.85C162.352 242.254 162.863 244.152 164.063 243.743C165.521 243.248 167.034 245.174 168.228 245.767C169.319 246.31 170.457 246.347 171.647 246.38C174.591 246.46 176.404 248.7 179.301 248.874C180.563 248.951 180.56 246.986 179.302 246.91Z" fill="#FFF6E4"/>
</g>
<defs>
<clipPath id="clip0">
<rect width="185.32" height="306.886" fill="white" transform="translate(-48.0029 0.140137)"/>
</clipPath>
<clipPath id="clip1">
<rect width="254" height="167" fill="white" transform="translate(6.07617 196.98)"/>
</clipPath>
</defs>
</svg>
