<?xml version="1.0" encoding="utf-8"?>
<!-- Generator: Adobe Illustrator 23.0.1, SVG Export Plug-In . SVG Version: 6.00 Build 0)  -->
<svg version="1.1" id="Layer_1" xmlns="http://www.w3.org/2000/svg" xmlns:xlink="http://www.w3.org/1999/xlink" x="0px" y="0px"
	 viewBox="0 0 27 27" style="enable-background:new 0 0 27 27;" xml:space="preserve">
<style type="text/css">
	.st0{fill:#019DFE;}
	.st1{fill:#01B1FC;}
	.st2{fill:#0189FD;}
	.st3{fill:#0174FD;}
	.st4{fill:#0364FD;}
	.st5{fill:#06A8FC;}
	.st6{fill:#06D0F7;}
</style>
<path class="st0" d="M16.99,17.24c-1.28,0-2.57,0-3.85,0c-0.02-0.37-0.5-0.49-0.46-0.92c0.1-1.1-0.37-2.13-0.41-3.21
	c-0.03-0.79-0.48-1.57-0.07-2.39c0.07-0.14-0.09-0.36-0.32-0.38c1.43-0.5,2.87-0.56,4.32-0.09c0.02,0.28-0.19,0.49-0.16,0.83
	c0.06,0.71,0.16,1.41,0.28,2.11C16.56,14.53,16.51,15.93,16.99,17.24z"/>
<path class="st1" d="M16.99,17.24c-0.49-1.31-0.43-2.71-0.67-4.06c-0.12-0.69-0.22-1.4-0.28-2.11c-0.03-0.33,0.18-0.54,0.16-0.83
	c0.77,0.05,1.43,0.42,2.04,0.83c1.97,1.33,3.1,3.19,3.38,5.57c0.06,0.49-0.02,0.66-0.56,0.64C19.7,17.23,18.35,17.25,16.99,17.24z"
	/>
<path class="st2" d="M11.88,10.34c0.23,0.03,0.39,0.24,0.32,0.38c-0.4,0.82,0.05,1.6,0.07,2.39c0.03,1.08,0.51,2.11,0.41,3.21
	c-0.04,0.43,0.44,0.55,0.46,0.92c-1.4,0-2.79,0-4.19,0c-0.1-0.16-0.25-0.3-0.28-0.47c-0.17-0.99-0.48-1.97-0.34-2.99
	c0.04-0.29,0-0.39-0.28-0.38c0.71-1.3,1.81-2.16,3.09-2.81C11.37,10.47,11.63,10.42,11.88,10.34z"/>
<path class="st3" d="M8.05,13.4c0.28-0.01,0.32,0.09,0.28,0.38c-0.14,1.02,0.17,2,0.34,2.99c0.03,0.17,0.18,0.31,0.28,0.47
	c-1.25,0-2.49,0-3.74,0c-0.04-0.33-0.44-0.49-0.44-0.83c-0.02-1.12-0.42-2.2-0.24-3.33c1.01-0.14,1.93,0.11,2.75,0.69
	C7.82,14.16,7.8,13.54,8.05,13.4z"/>
<path class="st4" d="M4.53,13.08c-0.18,1.13,0.22,2.22,0.24,3.33c0,0.34,0.4,0.5,0.44,0.83c-1.39,0.01-2.78,0.01-4.17,0.03
	c-0.22,0-0.34-0.03-0.34-0.31C0.7,15.11,2.71,13.07,4.53,13.08z"/>
<path class="st5" d="M25.04,17.25c-0.47,0.01-0.94,0-1.41,0.03c-0.41,0.03-0.42-0.15-0.33-0.47c0.21-0.71,0.72-1.06,1.41-1.2
	C25.08,16.1,25.04,16.68,25.04,17.25z"/>
<path class="st6" d="M25.04,17.25c0-0.57,0.05-1.15-0.33-1.64c0.86-0.1,1.65,0.42,1.87,1.22c0.08,0.29,0.06,0.47-0.31,0.45
	C25.86,17.25,25.45,17.25,25.04,17.25z"/>
</svg>
