<svg width="151" height="165" viewBox="0 0 151 165" fill="none" xmlns="http://www.w3.org/2000/svg">
<g clip-path="url(#clip0)">
<g filter="url(#filter0_d)">
<path d="M65.6816 34.3392C66.0153 34.3674 66.3399 34.4495 66.6684 34.5085C67.2791 34.6183 67.8887 34.734 68.4986 34.8485C68.5607 34.86 68.6294 34.8586 68.6764 34.9137C68.8137 34.8884 68.9397 34.958 69.0735 34.9609C69.0997 34.8857 69.0405 34.8385 69.0095 34.7868C68.6524 34.1889 68.2924 33.5929 67.9324 32.9969C67.2627 31.8878 66.5926 30.779 65.9227 29.6701C65.7861 29.7216 65.6797 29.8262 65.5402 29.8771C64.9345 30.0984 64.3639 29.9454 63.9584 29.4473C63.9184 29.3983 63.8936 29.3341 63.8311 29.3047C63.1554 29.8112 62.4797 30.3178 61.8038 30.8244C61.2873 31.2115 60.7706 31.5986 60.2539 31.9859C60.2121 32.3788 60.2376 32.7727 60.2444 33.1659C60.2461 33.2654 60.3208 33.3292 60.4231 33.3476C60.847 33.4238 61.2726 33.4915 61.6941 33.5799C61.839 33.6103 61.9943 33.6049 62.129 33.6803C62.9376 33.8246 63.7468 33.9664 64.5548 34.114C64.9061 34.1781 65.2549 34.2543 65.605 34.3251C65.6342 34.3111 65.6571 34.3286 65.6816 34.3392Z" fill="#FAC896"/>
<path d="M65.9238 29.6696C66.5937 30.7786 67.2638 31.8873 67.9335 32.9965C68.2935 33.5927 68.6535 34.1885 69.0106 34.7863C69.0414 34.8381 69.1006 34.8853 69.0745 34.9604C69.1791 34.9993 69.2898 34.9948 69.3979 35.001C69.4637 35.0047 69.5178 35.019 69.5654 35.0623C69.5763 35.0124 69.5956 34.9834 69.6562 34.9706C70.3321 34.829 70.7143 34.4063 70.8221 33.7302C70.8476 33.571 70.9033 33.4165 70.8983 33.2526C70.8083 33.287 70.764 33.3718 70.7002 33.4346C70.6275 33.506 70.5574 33.5646 70.4479 33.512C70.3294 33.455 70.3576 33.3586 70.3773 33.2636C70.327 33.2263 70.2659 33.3163 70.2181 33.2499C70.1736 33.2456 70.1317 33.2358 70.1046 33.195C70.0274 33.1959 70.009 33.1646 70.0527 33.0996C70.0297 33.0522 70.0371 33.0052 70.0552 32.9584C70.0084 32.9706 69.9637 33.018 69.9134 32.9663C69.7459 32.951 69.6879 32.8417 69.7736 32.7042C69.7958 32.6686 69.8163 32.632 69.8376 32.5959C69.8274 32.5815 69.8175 32.5668 69.8074 32.5523C69.7734 32.5781 69.7393 32.604 69.7053 32.6299C69.6246 32.6912 69.5471 32.6897 69.4757 32.6154C69.4012 32.5378 69.4161 32.4614 69.4817 32.3867C69.5457 32.314 69.6103 32.242 69.6724 32.1678C70.2038 31.5332 70.7308 30.8939 71.463 30.4712C71.4792 30.1892 71.5297 29.9139 71.6204 29.6462C71.6005 29.5694 71.6297 29.497 71.6433 29.4239C71.7475 28.8681 71.8491 28.3116 71.9603 27.7573C72.0342 27.3882 72.0808 27.0133 72.1874 26.651C72.1344 26.3875 72.1485 26.1221 72.1644 25.8567C72.1321 25.7884 72.1044 25.7174 72.0667 25.6522C71.9259 25.4087 71.7725 25.1769 71.4879 25.0781C71.5388 25.1597 71.5968 25.2375 71.6392 25.3232C71.8317 25.7122 71.7038 26.1515 71.3293 26.3792C70.0386 27.1644 68.7462 27.9467 67.4553 28.7315C66.944 29.0424 66.4343 29.3568 65.9238 29.6696Z" fill="#FFE7B9"/>
<path d="M58.4939 32.8911C57.9147 32.515 57.7112 31.9827 57.8549 31.3135C57.8878 31.1601 57.8928 31.0005 57.952 30.8527C57.9598 30.8102 57.9675 30.768 57.9756 30.7258C58.1412 29.8466 58.3111 28.968 58.4683 28.0872C58.4569 28.0725 58.4459 28.0576 58.4341 28.0429C58.4877 27.8769 58.5281 27.7086 58.554 27.5376C58.5465 27.5092 58.5351 27.4805 58.5179 27.4517C58.5285 27.4515 58.5403 27.4477 58.5494 27.4513C58.5546 27.4531 58.5595 27.455 58.5647 27.4569C58.5747 27.3776 58.5817 27.2977 58.5852 27.2169C58.6316 27.1523 58.6306 27.0745 58.644 27.0014C58.7477 26.4454 58.8539 25.89 58.9506 25.3327C59.015 24.9618 59.1069 24.5955 59.1386 24.219C59.2762 24.0035 59.3578 23.7644 59.4352 23.5234C59.5586 23.7168 59.7163 23.8793 59.8966 24.007C59.9256 24.1004 59.9724 24.191 60.0372 24.2755C60.9571 25.4739 61.8796 26.6702 62.8 27.8684C63.1647 28.3433 63.5264 28.8204 63.8893 29.2964C62.8639 30.0884 61.8386 30.8804 60.8135 31.6726C60.2626 32.0985 59.7114 32.5241 59.1626 32.9526C59.115 32.9896 59.0427 33.0124 59.04 33.0919C58.9287 33.0905 58.8268 33.0462 58.7239 33.0128C58.6612 32.9925 58.6057 32.9863 58.5457 33.0095C58.5535 32.959 58.5461 32.9251 58.4939 32.8911Z" fill="#FFE7B9"/>
<path d="M71.5166 25.0607H71.5149L71.5137 25.0586L71.5166 25.0607Z" fill="#FBDCA1"/>
<path d="M59.4757 23.3844C59.5459 23.3167 59.6283 23.2616 59.7051 23.201C59.7453 23.2198 59.7685 23.1925 59.7925 23.1676C59.9192 23.18 60.045 23.1511 60.1732 23.1718C61.1418 23.3279 62.1108 23.4815 63.0802 23.6326C63.2477 23.6587 63.4152 23.6837 63.5828 23.7088C63.5837 23.7065 63.5843 23.704 63.5851 23.7017C63.6543 23.7143 63.7232 23.7272 63.7923 23.7398C64.0532 23.7781 64.3142 23.816 64.5751 23.8545C64.9081 23.9081 65.241 23.9619 65.5739 24.0155C65.6012 24.0298 65.6294 24.0389 65.6581 24.0441C65.6592 24.0437 65.6602 24.0433 65.6614 24.0427C65.6639 24.0439 65.6666 24.0447 65.6691 24.046C65.6983 24.0499 65.7281 24.0497 65.7587 24.0443C65.7662 24.0532 65.7751 24.0551 65.7854 24.0495C65.8045 24.0592 65.8242 24.0661 65.844 24.0714C65.8654 24.0747 65.8867 24.0779 65.9082 24.0812C65.9283 24.0818 65.9486 24.0812 65.9695 24.0774C65.9776 24.0863 65.9871 24.088 65.9976 24.0824C66.0127 24.0903 66.0283 24.0967 66.0438 24.1019C66.0742 24.1064 66.1047 24.1112 66.1349 24.1157C66.1496 24.1153 66.1645 24.1137 66.1798 24.1106C66.2038 24.1145 66.2276 24.1182 66.2516 24.1222C66.2641 24.1292 66.2765 24.1346 66.2891 24.1393C66.3241 24.1447 66.3591 24.1499 66.3941 24.1553C66.4088 24.1549 66.4235 24.1534 66.4384 24.1511C66.4456 24.16 66.4543 24.1617 66.4642 24.1563C66.4746 24.1621 66.4849 24.1667 66.4955 24.1708C66.534 24.1766 66.5725 24.1826 66.611 24.1884C66.6236 24.1878 66.6363 24.1867 66.6489 24.1849C66.6566 24.1938 66.6654 24.1954 66.6758 24.1901C66.6859 24.1954 66.6965 24.1992 66.7069 24.2031C66.7423 24.2085 66.7779 24.2139 66.8133 24.2192C66.8168 24.2199 66.8203 24.2205 66.8238 24.2209C66.8356 24.2203 66.8474 24.2197 66.8592 24.2178C66.8673 24.2267 66.8766 24.2286 66.8874 24.2234C66.8979 24.229 66.9087 24.2329 66.9195 24.2368C66.9553 24.2428 66.9911 24.2488 67.0269 24.2546C67.041 24.2542 67.0553 24.253 67.0697 24.2507C67.0938 24.2546 67.1178 24.2586 67.1418 24.2625C67.154 24.27 67.1664 24.2756 67.1793 24.2799C67.1968 24.2828 67.2147 24.2859 67.2322 24.2888C67.248 24.289 67.2639 24.2878 67.2803 24.2834C67.4867 24.3101 67.6931 24.3368 67.8994 24.3637C67.9003 24.376 67.8997 24.3878 67.8984 24.3996C68.0197 24.4194 68.1412 24.4389 68.2628 24.4581C69.2049 24.6066 70.1474 24.7525 71.0903 24.8958C71.2151 24.9148 71.323 24.979 71.4439 25.0051C71.4588 25.0351 71.472 25.0674 71.5149 25.0618C71.5681 25.1409 71.6279 25.2162 71.6726 25.2998C71.8778 25.6822 71.7641 26.1254 71.3971 26.3653C70.1327 27.1919 68.8664 28.0158 67.6016 28.8422C67.1004 29.1697 66.6013 29.5003 66.1011 29.8295C65.9662 29.8856 65.8633 29.9932 65.7256 30.0487C65.561 30.1149 65.3983 30.1518 65.24 30.1617C64.7491 30.3575 64.2432 30.2692 63.8068 29.9067C63.6892 29.809 63.6224 29.6711 63.5079 29.5738C63.1216 29.0942 62.7368 28.6133 62.3489 28.1349C61.3699 26.9278 60.3889 25.7226 59.4103 24.5153C59.1265 24.1642 59.1547 23.6945 59.4757 23.3844Z" fill="#FBDCA1"/>
</g>
<g filter="url(#filter1_d)">
<path d="M67.1678 51.7706C66.5027 51.926 65.8721 52.1879 65.227 52.404C64.0274 52.806 62.8319 53.2194 61.6354 53.6308C61.5135 53.6728 61.3744 53.69 61.2959 53.8148C61.0115 53.8042 60.778 53.9821 60.5086 54.0274C60.4335 53.8837 60.5391 53.7709 60.5861 53.6573C61.1295 52.3456 61.6799 51.0369 62.2297 49.7278C63.2528 47.2923 64.2769 44.8572 65.3003 42.4221C65.5912 42.4859 65.8367 42.665 66.1331 42.7266C67.4205 42.9937 68.5264 42.5167 69.1971 41.392C69.2632 41.2811 69.2944 41.1442 69.4118 41.0664C70.9248 41.8887 72.4377 42.7107 73.9507 43.5327C75.1073 44.1612 76.2641 44.7893 77.4208 45.4176C77.6214 46.198 77.6864 47 77.7889 47.7953C77.8148 47.9967 77.6829 48.1477 77.4821 48.2149C76.6493 48.494 75.8105 48.7567 74.9866 49.0593C74.7032 49.1635 74.3885 49.1984 74.1389 49.3905C72.5503 49.9205 70.9598 50.4459 69.3735 50.9827C68.6839 51.216 68.0025 51.4731 67.3172 51.7192C67.2551 51.6996 67.2139 51.7422 67.1678 51.7706Z" fill="#FAC896"/>
<path d="M65.2996 42.4223C64.276 44.8576 63.2521 47.2927 62.229 49.7279C61.6792 51.0369 61.1288 52.3458 60.5854 53.6574C60.5384 53.7711 60.4328 53.8839 60.5079 54.0276C60.3088 54.1369 60.0838 54.1607 59.8675 54.2048C59.7358 54.2317 59.631 54.2766 59.5478 54.3778C59.5112 54.2805 59.4636 54.2275 59.3373 54.2199C57.9317 54.134 57.036 53.3945 56.6186 52.0624C56.5203 51.7488 56.3623 51.4536 56.3236 51.1213C56.5155 51.164 56.6298 51.3221 56.777 51.4298C56.9447 51.5525 57.1036 51.6498 57.3088 51.5113C57.5307 51.3615 57.4456 51.1752 57.3777 50.9893C57.4682 50.8994 57.6179 51.063 57.6947 50.9149C57.7831 50.8928 57.8648 50.8607 57.9075 50.7709C58.0633 50.7495 58.0913 50.681 57.9841 50.5628C58.0166 50.4601 57.9874 50.3678 57.9375 50.2786C58.0354 50.2894 58.1397 50.372 58.2259 50.2525C58.5589 50.172 58.6438 49.9345 58.4304 49.6826C58.3751 49.6174 58.3227 49.5495 58.2691 49.483C58.2851 49.4507 58.301 49.4185 58.3169 49.386C58.3933 49.4282 58.4695 49.4704 58.5459 49.5124C58.7268 49.6122 58.8825 49.5863 59.0046 49.4154C59.1322 49.2369 59.0796 49.087 58.9247 48.9556C58.7744 48.8279 58.6225 48.7018 58.4753 48.5705C57.2154 47.4473 55.9632 46.3137 54.3612 45.6773C54.2454 45.1134 54.0618 44.5729 53.7997 44.0598C53.8171 43.8989 53.737 43.7615 53.6878 43.6182C53.3135 42.5277 52.9435 41.4353 52.5556 40.3495C52.2975 39.6268 52.0925 38.8843 51.7704 38.1848C51.7994 37.6376 51.6928 37.1062 51.582 36.5755C51.627 36.4281 51.6621 36.2767 51.7189 36.1339C51.9306 35.6015 52.1718 35.0883 52.7167 34.8047C52.6382 34.9842 52.544 35.1585 52.4838 35.3437C52.2103 36.1852 52.5983 37.0336 53.4213 37.3826C56.2574 38.5849 59.0959 39.7812 61.9322 40.9827C63.0563 41.4587 64.1772 41.9422 65.2996 42.4223Z" fill="#FFE7B9"/>
<path d="M81.2422 46.7212C82.2994 45.7909 82.5528 44.6573 82.0648 43.3494C81.953 43.0494 81.8957 42.7292 81.733 42.4485C81.7046 42.3655 81.6765 42.2822 81.6479 42.1992C81.0536 40.4744 80.4514 38.7523 79.8738 37.0221C79.8927 36.989 79.9103 36.9556 79.9295 36.9227C79.7722 36.6037 79.6409 36.276 79.5381 35.9386C79.5449 35.879 79.5592 35.8179 79.5853 35.7548C79.5637 35.7573 79.5389 35.7537 79.5215 35.7633C79.5118 35.7686 79.502 35.7736 79.4923 35.779C79.4488 35.6217 79.4109 35.4627 79.3801 35.3012C79.2677 35.1849 79.2468 35.0271 79.1975 34.8839C78.8239 33.7929 78.4454 32.7036 78.0857 31.6081C77.8461 30.879 77.5522 30.1671 77.3773 29.4171C77.0359 29.023 76.8007 28.5646 76.5732 28.1016C76.3815 28.5282 76.1114 28.9027 75.7856 29.2134C75.7545 29.4103 75.6874 29.6074 75.5817 29.7968C74.0802 32.4865 72.5729 35.1729 71.0705 37.8619C70.4751 38.9276 69.8866 39.997 69.2949 41.065C71.5975 42.3597 73.9001 43.6541 76.2025 44.9494C77.44 45.6456 78.6775 46.3413 79.9115 47.0435C80.0185 47.1044 80.1709 47.1288 80.1997 47.2882C80.4241 47.2524 80.6164 47.1329 80.8141 47.0352C80.9346 46.9756 81.0449 46.9468 81.1728 46.9758C81.1422 46.8758 81.1469 46.805 81.2422 46.7212Z" fill="#FFE7B9"/>
<path d="M52.6523 34.7782C52.6536 34.7782 52.6544 34.778 52.6557 34.7778C52.6563 34.7763 52.6571 34.7749 52.6579 34.7734L52.6523 34.7782Z" fill="#FBDCA1"/>
<path d="M75.9258 27.5312C75.9272 27.5321 75.9287 27.5329 75.9303 27.5337C75.9314 27.5331 75.9324 27.5327 75.9334 27.5321C75.9332 27.5321 75.9258 27.5312 75.9258 27.5312Z" fill="#FBDCA1"/>
<path d="M76.4476 27.8358C76.2861 27.7199 76.1035 27.6332 75.9305 27.5336C75.8551 27.5835 75.8003 27.5352 75.7444 27.4922C75.4924 27.5545 75.2301 27.5334 74.9776 27.6129C73.0698 28.2144 71.1603 28.8106 69.2492 29.4019C68.9192 29.5039 68.5886 29.6043 68.2578 29.7041C68.2555 29.6995 68.2537 29.695 68.251 29.6906C68.1154 29.7366 67.9798 29.7828 67.8442 29.8287C67.3291 29.9832 66.8139 30.1366 66.2993 30.2916C65.6435 30.4984 64.9874 30.705 64.3316 30.9118C64.2807 30.9487 64.2267 30.9756 64.1702 30.9942C64.1679 30.9936 64.1656 30.9932 64.1631 30.9921C64.1586 30.9954 64.1534 30.9977 64.1488 31.0008C64.0911 31.0174 64.0308 31.0257 63.9677 31.024C63.9553 31.0443 63.9379 31.0503 63.9155 31.0422C63.8797 31.0677 63.8422 31.0871 63.8039 31.1039C63.7619 31.1167 63.7197 31.1296 63.6777 31.1424C63.6373 31.1497 63.5961 31.1542 63.553 31.1528C63.5392 31.1731 63.5208 31.1793 63.4976 31.171C63.4692 31.1913 63.4402 31.2089 63.4102 31.2242C63.3502 31.2424 63.2904 31.2608 63.2303 31.279C63.2003 31.2826 63.1699 31.2836 63.1382 31.2817C63.091 31.2966 63.0438 31.3113 62.9968 31.3262C62.974 31.344 62.9502 31.3587 62.926 31.372C62.8571 31.3931 62.7879 31.4142 62.719 31.4351C62.6892 31.4384 62.659 31.4401 62.6281 31.4399C62.6161 31.4598 62.5991 31.466 62.5774 31.4579C62.5584 31.4724 62.5387 31.4848 62.5188 31.4962C62.4429 31.5194 62.3669 31.5426 62.2909 31.5658C62.2654 31.5682 62.2396 31.5697 62.2133 31.5697C62.2006 31.5898 62.1831 31.596 62.1605 31.5879C62.1414 31.6016 62.1214 31.6123 62.1015 31.6235C62.0315 31.6448 61.9615 31.6662 61.8916 31.6877C61.8847 31.69 61.8779 31.692 61.8711 31.6943C61.8473 31.6966 61.8233 31.6987 61.7986 31.6985C61.7852 31.7187 61.7665 31.7254 61.7434 31.7181C61.7237 31.7324 61.7032 31.7436 61.6829 31.755C61.6123 31.7775 61.5419 31.8001 61.4713 31.8229C61.4428 31.8262 61.4136 31.828 61.3838 31.8276C61.3366 31.8427 61.2892 31.8576 61.242 31.8728C61.2196 31.8916 61.196 31.9065 61.1718 31.9191C61.137 31.9303 61.1022 31.9415 61.0673 31.9527C61.0356 31.9576 61.0031 31.9597 60.9689 31.956C60.5605 32.0711 60.1519 32.186 59.7434 32.3011C59.7455 32.3261 59.7503 32.3497 59.7561 32.3729C59.517 32.4489 59.2779 32.5242 59.0383 32.5987C57.1815 33.1767 55.3233 33.7497 53.4633 34.3176C53.217 34.3927 53.0185 34.5542 52.7823 34.6428C52.7611 34.708 52.7438 34.7769 52.656 34.7784C52.5721 34.9535 52.4736 35.1235 52.408 35.3052C52.1072 36.1374 52.4676 36.9979 53.2789 37.3735C56.0744 38.6673 58.8725 39.9551 61.6684 41.2479C62.7763 41.7602 63.8812 42.2798 64.9872 42.7961C65.276 42.8692 65.5153 43.0563 65.8097 43.1273C66.1612 43.2122 66.5003 43.2385 66.8226 43.2118C67.8707 43.4617 68.8654 43.1338 69.6384 42.2734C69.8466 42.0418 69.9406 41.7437 70.1428 41.5135C70.7802 40.4314 71.4143 39.3477 72.0556 38.268C73.6736 35.5435 75.2966 32.8219 76.9136 30.0968C77.3829 29.306 77.1872 28.3664 76.4476 27.8358Z" fill="#FBDCA1"/>
</g>
<path d="M35.1295 60.7004C40.2028 60.7004 44.3156 56.5876 44.3156 51.5143C44.3156 46.4409 40.2028 42.3281 35.1295 42.3281C30.0561 42.3281 25.9434 46.4409 25.9434 51.5143C25.9434 56.5876 30.0561 60.7004 35.1295 60.7004Z" fill="#030202"/>
<path d="M20.9937 139.914C20.7279 139.128 20.4621 138.342 20.1965 137.556C20.2545 137.376 20.2025 137.236 20.0462 137.132C20.0108 136.331 20.7037 136.459 21.132 136.338C25.8628 135.003 30.6011 133.695 35.3375 132.38C43.9678 129.985 52.5938 127.574 61.2348 125.218C62.1767 124.961 62.314 124.588 62.1043 123.709C60.8496 118.447 59.6458 113.172 58.4251 107.902C59.923 107.744 61.4613 107.242 62.9199 107.688C65.3477 108.431 67.7934 109.163 70.0939 110.276C70.5632 111.212 71.3434 111.912 71.968 112.73C74.6194 116.205 78.0458 117.424 82.2738 116.175C82.6541 116.063 82.8503 116.168 83.0623 116.415C83.1101 116.831 83.1578 117.246 83.2056 117.66C83.0551 117.884 83.0503 118.093 83.2669 118.28C83.2646 119.454 83.2623 120.629 83.26 121.803C83.0495 121.991 83.0468 122.2 83.1979 122.424C83.0553 124.021 82.7841 125.595 82.3854 127.147C81.5406 128.605 81.0688 130.227 80.3552 131.743C80.3058 131.77 80.2838 131.811 80.2896 131.867C79.9835 132.097 79.8031 132.403 79.7458 132.781C77.4964 136.333 74.5511 139.178 70.9536 141.336C70.0589 141.872 69.07 142.252 68.1246 142.703C67.8851 142.506 67.7485 142.69 67.6035 142.844C67.4384 142.901 67.2734 142.959 67.1082 143.017C66.4505 143.101 65.8135 143.251 65.2407 143.605C61.2346 144.773 57.2286 145.941 53.2225 147.109C50.9118 147.675 48.6223 148.313 46.3915 149.147C46.2594 149.18 46.1272 149.213 45.9951 149.245C44.919 149.44 43.8637 149.704 42.8717 150.18C42.7396 150.213 42.6076 150.245 42.4755 150.277C40.5501 150.734 38.6 151.126 36.9818 152.384C36.9282 152.383 36.8907 152.407 36.8692 152.456C36.6289 152.463 36.474 152.599 36.3583 152.795C35.0674 153.894 33.852 155.032 32.983 156.544C32.2218 157.868 31.7097 159.228 31.538 160.732C31.355 160.917 31.3623 161.125 31.4675 161.344C31.443 161.583 31.3623 161.833 31.4041 162.06C31.5714 162.973 31.1706 163.56 30.3968 163.961C29.9457 163.977 29.4969 164.354 29.0436 163.969C29.0278 163.852 29.0119 163.735 28.9962 163.618C28.9233 162.307 28.3644 161.147 27.8613 159.97C27.3156 158.363 26.7697 156.755 26.2241 155.148C25.9247 153.885 25.5035 152.664 24.971 151.481C24.3003 150.453 24.2061 149.233 23.8399 148.103C23.6824 147.617 23.494 147.142 23.3197 146.661C22.6784 144.366 21.8764 142.126 20.9937 139.914Z" fill="#124FF0"/>
<path d="M104.71 103.053C104.712 103.11 104.74 103.147 104.795 103.163C104.819 103.392 104.943 103.542 105.157 103.62C107.831 107.088 110.504 110.556 113.182 114.02C113.306 114.18 113.474 114.305 113.622 114.446C113.621 114.542 113.621 114.638 113.62 114.734C113.432 114.749 113.324 114.867 113.215 115.012C111.784 116.905 110.974 119.068 110.77 121.396C110.351 126.205 111.731 130.399 115.457 133.629C118.576 136.332 122.19 137.451 126.335 136.989C127.723 136.834 128.97 136.223 130.34 136.091C131.617 137.675 132.894 139.258 134.171 140.842C134.374 141.325 134.721 141.662 135.201 141.866C135.392 142.017 135.582 142.168 135.773 142.32C135.973 142.651 136.27 142.835 136.647 142.902C136.667 142.955 136.706 142.977 136.762 142.969C137.047 143.35 137.495 143.466 137.897 143.637C140.821 144.873 143.721 144.703 146.596 143.455C146.874 143.824 147.152 144.194 147.43 144.564C147.444 144.799 147.578 144.956 147.768 145.075C147.848 145.703 147.332 145.954 146.969 146.271C146.241 146.907 145.475 147.498 144.724 148.107C144.32 148.244 144.028 148.513 143.815 148.875C143.705 148.966 143.595 149.057 143.485 149.148C143.082 149.284 142.797 149.56 142.576 149.912C142.394 150.067 142.212 150.222 142.03 150.377C141.711 150.462 141.486 150.658 141.341 150.951C141.157 151.107 140.974 151.262 140.791 151.418C140.388 151.556 140.098 151.828 139.88 152.186C139.698 152.339 139.516 152.492 139.334 152.645C139.014 152.73 138.801 152.945 138.634 153.217C134.37 156.806 130.105 160.394 125.841 163.983C125.238 164.442 124.566 164.327 123.895 164.216C121.817 161.284 119.737 158.353 117.663 155.418C117.409 155.058 117.183 154.679 116.944 154.309C116.932 154.075 116.805 153.924 116.6 153.827C116.516 153.71 116.433 153.593 116.349 153.476C116.332 153.237 116.205 153.076 115.997 152.969C116.001 152.912 115.975 152.875 115.921 152.857C115.906 152.622 115.78 152.465 115.571 152.368C115.572 152.307 115.544 152.264 115.487 152.241C115.44 151.908 115.237 151.687 114.969 151.511C114.972 151.456 114.947 151.421 114.894 151.406C114.88 151.167 114.753 151.008 114.542 150.91C114.544 150.85 114.517 150.81 114.461 150.789C114.453 150.552 114.328 150.398 114.117 150.306C114.033 150.19 113.949 150.073 113.865 149.957C113.854 149.714 113.725 149.553 113.514 149.449C113.516 149.392 113.49 149.355 113.436 149.338C113.421 149.102 113.296 148.946 113.086 148.85C113.087 148.788 113.06 148.745 113.002 148.722C112.955 148.39 112.752 148.168 112.485 147.992C112.487 147.937 112.462 147.902 112.409 147.887C112.373 147.658 112.302 147.458 112.026 147.431C107.282 140.709 102.536 133.988 97.7947 127.264C97.5409 126.904 97.315 126.524 97.0762 126.154C97.0637 125.918 96.9439 125.76 96.729 125.669C96.7296 125.606 96.7008 125.562 96.6425 125.537C96.6342 125.305 96.5191 125.15 96.3063 125.063C96.222 124.944 96.138 124.824 96.0537 124.705C96.0415 124.465 95.9161 124.304 95.703 124.205C95.7047 124.145 95.6774 124.105 95.6213 124.085C95.6089 123.851 95.4919 123.693 95.277 123.604C95.2764 123.539 95.2464 123.494 95.187 123.468C95.1369 123.142 94.9524 122.911 94.6756 122.745C94.6773 122.688 94.6508 122.651 94.5966 122.634C94.5829 122.398 94.4589 122.24 94.2488 122.144C94.2509 122.082 94.2231 122.039 94.166 122.016C94.1544 121.784 94.0331 121.631 93.8232 121.542C93.7393 121.423 93.6553 121.304 93.5715 121.185C93.5584 120.946 93.4297 120.785 93.2245 120.678C93.2262 120.62 93.1997 120.582 93.1448 120.564C93.1088 120.339 93.0394 120.144 92.7641 120.129C91.0438 117.716 89.3238 115.303 87.6035 112.891C87.7014 112.439 88.0921 112.24 88.4061 111.986C91.4877 109.498 94.5647 107.004 97.6655 104.539C99.3332 103.214 100.909 101.77 102.7 100.602C102.888 100.798 103.075 100.994 103.262 101.19C103.263 101.247 103.291 101.284 103.346 101.3C103.414 101.623 103.613 101.843 103.894 101.999C103.983 102.111 104.071 102.223 104.159 102.335C104.226 102.664 104.434 102.885 104.71 103.053Z" fill="#0E3CB5"/>
<path d="M102.698 100.603C100.907 101.771 99.3314 103.215 97.6635 104.54C94.5627 107.005 91.4857 109.499 88.4041 111.988C88.0901 112.241 87.6995 112.441 87.6015 112.892C86.7534 113.165 86.256 113.937 85.512 114.359C85.1375 114.016 85.3273 113.572 85.3445 113.187C85.5426 108.746 85.7639 104.306 85.9838 99.8665C86.3926 91.6062 86.8046 83.346 87.2153 75.0856C88.1396 74.9623 89.0531 75.2274 89.9913 75.0918C94.0657 74.5025 96.8102 71.9169 97.5828 67.8905C97.659 67.4935 97.6043 67.0575 97.8666 66.7031C103.198 67.5065 108.529 68.3097 113.86 69.1123C117.935 69.7259 122.01 70.3389 126.086 70.952C127.51 73.0344 128.558 75.3251 129.71 77.5563C130.001 78.1217 129.774 78.7063 129.255 79.1188C127.102 80.8298 124.915 82.4987 122.813 84.2703C122.09 84.8795 121.202 85.3186 120.672 86.151C116.563 89.4081 112.444 92.653 108.349 95.9277C106.569 97.3511 104.838 98.8356 103.085 100.292C102.88 100.301 102.804 100.47 102.698 100.603Z" fill="#FAC896"/>
<path d="M87.2168 75.0852C86.8061 83.3456 86.3942 91.6057 85.9853 99.8661C85.7655 104.306 85.5442 108.746 85.3461 113.186C85.3289 113.571 85.1393 114.015 85.5135 114.358C85.044 114.893 84.4073 115.203 83.8183 115.564C83.4594 115.784 83.1989 116.028 83.0623 116.415C82.8503 116.168 82.6541 116.062 82.2738 116.175C78.0458 117.424 74.6194 116.204 71.968 112.73C71.3436 111.911 70.5632 111.212 70.0947 110.275C70.7048 110.196 71.2105 110.539 71.7585 110.699C72.3832 110.881 72.9548 110.997 73.4106 110.37C73.9037 109.692 73.4541 109.235 73.0558 108.761C73.2258 108.4 73.8414 108.721 73.9091 108.203C74.1459 108.043 74.3521 107.862 74.3813 107.552C74.8175 107.322 74.8264 107.091 74.3844 106.858C74.3705 106.521 74.1859 106.28 73.9435 106.071C74.243 105.999 74.6384 106.13 74.7645 105.687C75.6588 105.094 75.655 104.304 74.7574 103.791C74.525 103.658 74.2987 103.514 74.0695 103.376C74.0819 103.264 74.0944 103.151 74.1068 103.039C74.3765 103.082 74.6461 103.124 74.9158 103.167C75.5548 103.268 75.9856 103.025 76.1624 102.391C76.3469 101.729 76.032 101.345 75.4362 101.123C74.8572 100.908 74.2755 100.699 73.7021 100.47C68.7945 98.5104 63.898 96.5119 58.5031 96.3509C57.56 94.8148 56.4423 93.4206 55.123 92.1903C55.0023 91.6981 54.6196 91.3797 54.3215 91.0104C52.0545 88.2006 49.7995 85.3809 47.4978 82.5999C45.9657 80.7488 44.5698 78.7826 42.8744 77.0679C42.3753 75.4265 41.4934 73.9768 40.6008 72.5327C40.5757 72.0508 40.5169 71.5679 40.5316 71.0872C40.5861 69.2936 40.7471 67.526 42.0478 66.1094C42.0084 66.7213 41.918 67.3349 41.9387 67.9445C42.0327 70.7133 44.0808 72.7956 46.8759 72.9432C56.5067 73.4521 66.1385 73.94 75.7693 74.4453C79.5858 74.6463 83.401 74.8713 87.2168 75.0852Z" fill="#FFE7B9"/>
<path d="M73.9425 106.071C74.1849 106.28 74.3693 106.521 74.3828 106.858C74.3815 107.089 74.3809 107.32 74.3801 107.552C74.3509 107.862 74.1447 108.043 73.9081 108.202C71.6852 108.097 69.807 106.758 67.6208 106.49C69.3996 107.328 71.1486 108.228 73.0544 108.76C73.4527 109.235 73.9023 109.692 73.4092 110.37C72.9536 110.997 72.3818 110.881 71.7571 110.699C71.2091 110.539 70.7034 110.195 70.0933 110.275C67.7922 109.163 65.3463 108.43 62.9185 107.688C61.4599 107.242 59.9216 107.744 58.4237 107.902C54.4838 108.021 50.5616 108.387 46.6371 108.725C45.8521 108.793 45.0571 108.745 44.2674 108.75C44.1022 108.452 43.9091 108.166 43.7749 107.854C42.3037 104.431 39.5863 102.579 36.0097 102.19C32.5934 101.819 29.6512 102.984 27.549 105.862C27.4202 105.856 27.2912 105.851 27.1625 105.845C25.8817 104.46 24.5492 103.128 23.6429 101.43C22.5946 99.4671 21.9681 97.4102 21.7367 95.1923C21.3999 91.9648 22.2644 89.0492 23.7081 86.2171C26.1465 81.4339 28.4515 76.5812 30.9702 71.8414C31.7517 70.371 32.5669 68.8948 33.4548 67.4727C34.8618 67.96 36.1733 68.6282 37.4008 69.4774C38.6321 70.3292 39.5844 71.4609 40.5994 72.5328C41.492 73.977 42.3739 75.4267 42.873 77.068C43.7043 80.2796 43.7306 83.4604 42.5401 86.6042C42.4476 86.8485 42.4894 87.1437 42.4687 87.4155C42.1449 87.4536 42.0331 87.7093 41.8986 87.9535C40.4379 90.6068 38.9188 93.2298 37.5393 95.9245C37.0497 96.8809 36.4188 97.1552 35.4386 97.198C33.8972 97.2655 32.3611 97.4558 30.8224 97.5893C30.537 97.6141 30.2445 97.6216 30.2602 98.0186C30.2757 98.4109 30.5717 98.4217 30.8545 98.4124C31.508 98.3911 32.1643 98.3888 32.8139 98.3223C35.8157 98.0157 38.8104 97.6228 41.8174 97.3877C45.5151 97.0985 49.227 96.9877 52.9228 96.6789C53.8177 96.6041 54.79 96.7728 55.636 96.2746C56.5854 96.5228 57.5443 96.4197 58.5019 96.3505C63.8968 96.5116 68.7933 98.5103 73.7009 100.47C74.2745 100.699 74.856 100.908 75.435 101.123C76.0308 101.344 76.3457 101.729 76.1612 102.391C75.9844 103.024 75.5536 103.267 74.9146 103.167C74.6449 103.124 74.3753 103.082 74.106 103.04C72.5911 101.992 70.7634 101.868 69.0854 101.289C70.7319 102.032 72.2812 102.996 74.0683 103.375C74.2975 103.514 74.5238 103.658 74.7562 103.791C75.6538 104.304 75.6576 105.094 74.7633 105.686C73.421 105.768 72.3222 104.982 71.0954 104.651C70.2827 104.431 69.4884 104.143 68.686 103.886C69.1344 104.332 69.6352 104.623 70.1736 104.797C71.4356 105.206 72.5379 106.09 73.9425 106.071Z" fill="#FEB0B0"/>
<path d="M138.727 70.7118C140.844 66.8448 140.378 63.2376 137.545 59.9097C136.896 59.1467 136.385 58.265 135.606 57.6129C135.434 57.3984 135.262 57.1842 135.089 56.9703C131.498 52.5293 127.886 48.1047 124.337 43.6295C124.357 43.5121 124.373 43.3947 124.395 43.2774C123.591 42.5067 122.855 41.6821 122.192 40.7992C122.148 40.6164 122.124 40.4214 122.134 40.2076C122.074 40.238 121.997 40.2538 121.955 40.301C121.933 40.3273 121.909 40.3523 121.886 40.3784C121.591 39.9621 121.309 39.5344 121.046 39.092C120.59 38.8697 120.36 38.4281 120.063 38.0586C117.797 35.2474 115.52 32.4455 113.291 29.6063C111.807 27.7165 110.181 25.9356 108.865 23.915C107.439 23.1196 106.257 22.0223 105.093 20.9023C104.985 22.3628 104.59 23.7535 103.963 25.0159C104.082 25.6282 104.095 26.2799 103.986 26.9506C102.441 36.4702 100.875 45.9863 99.3265 55.5055C98.7129 59.2779 98.1238 63.0542 97.5234 66.8286C105.683 68.179 113.843 69.5283 122.002 70.8805C126.387 71.6073 130.773 72.3324 135.155 73.0806C135.534 73.1454 136.009 73.0543 136.264 73.4928C136.886 73.1475 137.324 72.5908 137.802 72.0917C138.093 71.7876 138.387 71.5849 138.794 71.5334C138.598 71.2738 138.536 71.0595 138.727 70.7118Z" fill="#FFE7B9"/>
<path d="M31.2289 65.2975C31.1852 65.5078 31.1413 65.7179 31.0976 65.928C31.0446 66.0605 30.9916 66.1932 30.9386 66.3259C30.235 68.66 28.9213 70.5231 26.8609 71.8858C25.9679 72.4766 24.9427 72.4855 24.004 72.8337C23.8222 72.8896 23.64 72.9459 23.4576 73.0022C22.5965 73.0043 21.7353 73.0064 20.8746 73.0084C20.5729 72.8271 20.2376 72.8035 19.8973 72.8029C18.8794 72.4979 17.9474 71.9968 16.9968 71.5378C16.9815 71.4676 16.9382 71.4374 16.867 71.4474C16.6925 71.1888 16.4638 71.0002 16.163 70.9052C15.8725 70.623 15.5821 70.3409 15.2917 70.0589C15.208 69.7561 15.0209 69.5375 14.7464 69.3901C14.71 69.335 14.6733 69.2802 14.6369 69.2253C14.2355 68.3619 13.7145 67.5576 13.4445 66.6279C12.6187 63.7848 13.1454 61.1552 14.6417 58.6663C14.6775 58.6129 14.7135 58.5597 14.7493 58.5065C15.0234 58.3568 15.1967 58.1247 15.2983 57.8341C15.586 57.5501 15.8738 57.2661 16.1615 56.9822C16.4656 56.8934 16.6981 56.71 16.8681 56.4446C16.9389 56.455 16.9819 56.4252 16.9968 56.3554C17.3496 56.266 17.6477 56.0844 17.8967 55.8203C18.0079 55.7696 18.1188 55.7191 18.2298 55.6683C18.7082 55.4853 19.1868 55.3023 19.6652 55.1193C19.8072 55.0906 19.9494 55.0616 20.0914 55.0328C20.3165 55.0943 20.5156 55.037 20.6972 54.8999C21.6759 54.9007 22.6549 54.9016 23.6336 54.9022C24.8885 55.2676 26.1308 55.6683 27.3662 56.2047C27.189 55.8764 27.0118 55.5481 26.8346 55.2197C26.7719 55.0574 26.709 54.8951 26.6462 54.7331C26.6918 54.5621 26.6293 54.4333 26.4906 54.3344C26.4568 54.1932 26.4229 54.052 26.3891 53.9108C26.4376 53.6879 26.3707 53.4912 26.2513 53.3065C26.2353 53.1621 26.2192 53.0176 26.2032 52.8733C26.1792 52.4663 26.155 52.0591 26.1308 51.6519C26.2419 51.5714 26.3436 51.4704 26.4657 51.4136C30.1967 49.6785 32.7796 46.8329 34.4742 43.1313C34.594 42.8697 34.7634 42.6699 34.9803 42.497C35.7235 42.5858 36.4664 42.6755 37.2098 42.7633C37.4833 42.7955 37.8023 42.8603 37.7218 42.4093C37.3036 40.064 38.6127 38.6632 40.3825 37.5097C40.5462 37.4569 40.7102 37.4041 40.8741 37.3516C42.6501 39.3043 42.0636 42.5943 39.6704 44.1059C38.6871 44.727 38.6811 44.8191 39.6039 45.5076C40.1597 45.9222 40.7756 46.1928 41.4565 46.3543C41.95 46.4712 42.4942 46.3404 42.9426 46.6611C43.2709 47.3202 43.5994 47.9793 43.9275 48.6378C43.816 49.0342 43.4887 49.2319 43.1842 49.4566C39.5137 52.1626 36.7875 55.6064 35.0946 59.8504C34.9406 60.2365 34.7714 60.5933 34.4199 60.8351C33.2358 60.832 32.173 60.3913 31.1138 59.9297C30.9123 59.8419 30.7215 59.5279 30.4954 59.726C30.2453 59.9452 30.4737 60.2098 30.5625 60.4648C30.8068 61.1664 31.0098 61.8822 31.2291 62.5922C31.2293 63.494 31.2291 64.3957 31.2289 65.2975Z" fill="#030202"/>
<path d="M34.4191 60.8325C34.7706 60.5908 34.94 60.2339 35.0938 59.8478C36.7869 55.6038 39.5129 52.16 43.1834 49.4539C43.4879 49.2293 43.8152 49.0316 43.9267 48.6352C45.2127 48.016 46.4769 47.3449 47.7896 46.7883C49.8587 45.9107 52.0391 45.4071 54.257 45.0657C54.6162 45.2183 54.9617 45.2379 55.2759 44.9595C56.5255 44.9587 57.775 44.9579 59.0243 44.957C59.3942 45.2864 59.8474 45.1309 60.2672 45.17C61.9993 45.3522 63.6765 45.7582 65.2961 46.4005C62.8855 48.3901 60.487 50.395 58.0613 52.3662C53.3362 56.206 48.6013 60.0335 43.856 63.8479C43.2277 64.353 42.8383 65.0531 42.2549 65.5855C42.1429 65.7518 41.9949 65.9035 42.0361 66.131C42.0361 66.131 42.0469 66.1107 42.0467 66.1107C40.746 67.5273 40.585 69.295 40.5305 71.0885C40.5158 71.5692 40.5746 72.0522 40.5997 72.5341C39.5849 71.4622 38.6324 70.3304 37.4011 69.4786C36.1736 68.6292 34.8621 67.9612 33.4551 67.4739C33.4716 65.4847 33.707 63.5287 34.3063 61.6231C34.385 61.3728 34.3835 61.0969 34.4191 60.8325Z" fill="#FC6A11"/>
<path d="M126.088 70.9538C125.959 70.1855 125.514 69.5713 125.129 68.9217C124.888 68.5143 124.602 68.1072 124.641 67.5867C124.681 67.074 125.012 66.7601 125.431 66.5925C125.886 66.4107 126.322 66.5442 126.601 66.982C127.109 67.7784 127.604 68.5837 128.181 69.3426C128.2 68.4657 127.572 67.8788 127.218 67.182C126.846 66.4504 126.8 65.8431 127.559 65.4214C128.305 65.0063 128.782 65.4874 129.17 66.0724C129.58 66.6897 129.984 67.311 130.461 67.8919C130.488 67.212 130.108 66.702 129.776 66.1815C129.528 65.7924 129.364 65.3986 129.394 64.9262C129.428 64.4097 129.756 64.1046 130.165 63.9123C130.621 63.6974 130.958 63.9963 131.226 64.3296C131.517 64.6921 131.776 65.0802 132.098 65.5253C132.318 65.0067 131.988 64.7875 131.844 64.5068C131.467 63.7732 131.616 63.1085 132.323 62.7427C132.974 62.4059 133.435 62.9033 133.734 63.4272C135.044 65.724 136.325 68.0366 137.621 70.3416C137.784 70.6319 137.841 71.0119 138.24 71.1146C138.319 71.3748 138.35 71.6648 138.487 71.8901C139.757 73.973 139.667 76.205 139.042 78.4062C137.968 82.1816 135.588 84.7177 131.653 85.5874C130.888 85.7563 130.208 86.2217 129.396 86.2076C129.258 86.0074 129.122 85.9979 128.989 86.2134C128.647 86.2353 128.306 86.2575 127.965 86.2788C127.789 86.2134 127.641 86.2401 127.536 86.4084C126.294 86.4074 125.052 86.4063 123.809 86.4051C123.68 86.2066 123.539 86.2047 123.39 86.3836C122.468 86.5092 121.589 86.1192 120.674 86.1534C121.204 85.321 122.092 84.8819 122.815 84.2727C124.917 82.5011 127.104 80.8321 129.257 79.1212C129.776 78.7086 130.003 78.124 129.712 77.5587C128.56 75.3267 127.512 73.0361 126.088 70.9538ZM130.949 68.6572C130.908 69.0132 130.98 69.2399 131.362 69.3585C131.402 69.0054 131.335 68.7756 130.949 68.6572ZM128.657 70.3832C128.714 70.4228 128.792 70.4766 128.87 70.5302C128.899 70.4729 128.963 70.4027 128.948 70.3607C128.919 70.2797 128.855 70.1663 128.789 70.1535C128.674 70.1311 128.637 70.2371 128.657 70.3832Z" fill="#FEB0B0"/>
<path d="M113.619 114.738C114.979 116.06 116.008 117.652 117.169 119.133C121.348 124.466 125.493 129.826 129.656 135.171C129.865 135.44 130.121 135.672 130.355 135.921C130.363 135.98 130.358 136.039 130.339 136.095C128.969 136.227 127.722 136.838 126.335 136.993C122.19 137.455 118.575 136.336 115.457 133.633C111.73 130.403 110.35 126.209 110.77 121.4C110.973 119.072 111.783 116.909 113.214 115.016C113.324 114.871 113.431 114.754 113.619 114.738Z" fill="#0E3CB5"/>
<path d="M41.2702 15.7603C38.4766 16.5331 35.9519 15.9183 33.4303 15.4156C31.3188 14.9946 29.2188 14.469 27.0531 14.4965C25.1065 14.5213 23.2062 14.8256 21.554 15.9909C21.4354 16.0745 21.2957 16.14 21.1562 16.1791C20.9591 16.2344 20.739 16.2482 20.6471 16.0135C20.566 15.8067 20.7469 15.7017 20.8864 15.6017C22.3082 14.5847 23.8873 14.0444 25.6332 13.8641C29.0143 13.5148 32.2079 14.5358 35.4652 15.0975C37.4804 15.445 39.4943 15.609 41.512 15.1295C43.8891 14.5646 45.5833 13.1733 46.5817 10.9376C46.8334 10.3741 46.5409 10.2677 46.0571 10.2126C44.2886 10.011 42.9306 9.18521 42.1175 7.55251C41.2501 5.81113 42.1285 3.60729 43.8239 3.28828C44.6952 3.12433 45.4489 3.4069 46.0793 3.9708C47.4114 5.16236 47.8844 6.71018 47.8105 8.45322C47.7989 8.72502 47.6917 9.01215 47.9759 9.19866C48.2796 9.39802 48.5081 9.12994 48.7139 8.99745C50.3615 7.93693 51.2183 6.3831 51.5274 4.47363C51.6106 3.95983 51.4287 3.80291 50.9728 3.76358C50.1261 3.69051 49.4621 3.29035 49.0524 2.54553C48.6278 1.77337 48.906 0.73128 49.5865 0.384536C50.3423 -0.000712171 51.3171 0.340857 51.7234 1.16766C51.9073 1.54173 52.1164 1.91994 52.1325 2.35508C52.1549 2.95914 52.4912 3.06554 52.98 2.87323C53.784 2.55691 54.5823 2.22569 55.3774 1.88744C56.7087 1.32105 58.057 1.02254 59.4729 1.57175C60.4167 1.93774 61.0839 2.53249 61.1923 3.6077C61.2191 3.87206 61.2433 4.13765 60.9168 4.19789C60.6436 4.2482 60.5471 4.03518 60.4703 3.80146C59.9735 2.28966 58.2046 1.44692 56.7486 2.03814C55.3561 2.60349 54.0664 3.42181 52.567 3.72549C52.254 3.78884 52.2424 4.05588 52.2157 4.30761C52.0215 6.14587 51.3577 7.75559 49.9289 8.99124C49.3625 9.48103 48.734 9.87559 48.0076 10.0625C47.6671 10.1501 47.5193 10.3244 47.422 10.6413C46.7107 12.9553 45.1409 14.4946 42.9559 15.4131C42.3738 15.6587 41.696 15.6777 41.2702 15.7603ZM47.1133 7.03084C46.9616 6.24668 46.5819 5.32776 46.0801 4.84853C44.7753 3.60232 43.6945 3.44892 42.7895 4.89925C42.5195 5.33169 42.5152 5.831 42.5605 6.33549C42.7462 8.4085 44.8074 9.53092 46.7485 9.51477C47.0593 9.51229 47.1435 9.3208 47.1524 9.09371C47.1793 8.40622 47.252 7.71563 47.1133 7.03084ZM51.5289 2.41263C51.5115 2.02717 51.3287 1.68146 51.1266 1.3902C50.8962 1.05794 50.5466 0.692776 50.0748 0.893991C49.6314 1.08299 49.5492 1.52952 49.6328 1.97148C49.7649 2.66973 50.3572 2.87737 50.9223 3.03801C51.4069 3.17567 51.7135 2.99578 51.5289 2.41263Z" fill="#091929"/>
<path d="M44.2572 108.881C42.1335 109.035 40.0118 109.266 37.8854 109.325C34.0356 109.433 30.5502 108.347 27.5508 105.864C29.6532 102.986 32.5952 101.821 36.0117 102.192C39.5881 102.581 42.3055 104.433 43.777 107.856C43.9109 108.167 44.104 108.454 44.2694 108.752C44.2705 108.795 44.2667 108.839 44.2572 108.881Z" fill="#FEB0B0"/>
<path d="M11.0082 140.431C10.3821 137.824 9.06576 135.655 6.7255 134.291C5.10957 133.348 3.4512 132.402 1.48377 132.322C1.18008 132.31 0.698573 132.309 0.754466 131.814C0.809324 131.329 1.23183 131.315 1.63344 131.333C3.70603 131.425 5.74841 131.208 7.76118 130.71C9.51871 130.275 11.0638 129.386 12.534 128.377C13.1511 127.954 13.5741 127.325 13.9067 126.609C14.6108 125.092 15.1622 123.574 14.9335 121.862C14.8921 121.553 14.7478 121.122 15.2204 120.982C15.6841 120.845 15.9027 121.219 16.1155 121.528C17.2613 123.19 18.5978 124.631 20.5098 125.43C22.0332 126.066 23.6071 126.31 25.2483 126.072C25.5534 126.028 25.8598 125.976 26.1668 125.967C26.4473 125.96 26.6089 126.147 26.6441 126.416C26.6833 126.716 26.4866 126.897 26.2318 126.909C23.2458 127.048 20.204 127.417 17.8509 124.892C17.4781 124.492 17.0218 124.17 16.6041 123.812C16.4016 123.572 16.3555 123.076 15.976 123.142C15.5897 123.21 15.7905 123.624 15.793 123.9C15.4525 126.72 13.9674 128.772 11.5576 130.201C9.66299 131.325 7.57797 131.81 5.41367 132.026C5.2994 132.053 5.09798 132.062 5.08639 132.113C5.03401 132.344 5.24102 132.34 5.39173 132.375C6.93789 133.266 8.49876 134.13 9.68742 135.518C12.6597 138.989 12.8212 143.915 9.66879 147.205C9.54996 147.329 9.44087 147.48 9.29472 147.556C9.00035 147.709 8.72213 147.73 8.48965 147.395C8.25304 147.054 8.49172 146.946 8.69521 146.744C9.88656 145.562 10.7815 144.208 11.0222 142.501C11.1769 142.383 11.1893 142.227 11.1367 142.055C11.1355 141.663 11.1344 141.272 11.1336 140.88C11.1907 140.702 11.1707 140.547 11.0082 140.431Z" fill="#020A13"/>
<path d="M109.669 154.436C108.232 154.114 106.844 154.239 105.605 155.063C104.75 155.632 103.882 156.221 103.367 157.171C103.288 157.318 103.17 157.555 102.94 157.408C102.714 157.264 102.81 157.052 102.916 156.858C103.462 155.859 103.849 154.799 104.09 153.686C104.301 152.715 104.236 151.737 104.094 150.769C104.035 150.362 103.827 150.001 103.554 149.664C102.977 148.95 102.361 148.311 101.462 148.01C101.299 147.956 101.052 147.923 101.097 147.656C101.142 147.394 101.379 147.377 101.583 147.346C102.679 147.183 103.713 146.873 104.569 146.123C105.252 145.526 105.752 144.809 106.032 143.942C106.084 143.781 106.132 143.617 106.203 143.464C106.267 143.323 106.398 143.289 106.539 143.337C106.697 143.39 106.739 143.531 106.683 143.659C106.029 145.165 105.475 146.754 103.662 147.304C103.374 147.391 103.105 147.538 102.827 147.658C102.66 147.7 102.404 147.602 102.345 147.805C102.285 148.012 102.538 148.014 102.674 148.079C103.983 148.929 104.635 150.157 104.758 151.691C104.854 152.897 104.589 154.043 104.171 155.162C104.157 155.225 104.113 155.326 104.135 155.344C104.237 155.426 104.284 155.323 104.338 155.257C105.152 154.71 105.955 154.15 106.927 153.899C109.357 153.273 111.825 154.384 112.685 156.734C112.718 156.823 112.766 156.914 112.768 157.004C112.772 157.186 112.715 157.328 112.494 157.362C112.269 157.396 112.273 157.252 112.223 157.103C111.928 156.23 111.477 155.461 110.693 154.93C110.672 154.825 110.598 154.781 110.501 154.765C110.307 154.671 110.114 154.577 109.921 154.482C109.847 154.412 109.765 154.384 109.669 154.436Z" fill="#020A13"/>
<path d="M42.9426 46.6599C42.4942 46.3392 41.9499 46.4703 41.4564 46.3531C40.7756 46.1916 40.1597 45.9211 39.6039 45.5064C38.6808 44.8179 38.6868 44.7258 39.6703 44.1048C42.0636 42.5934 42.6498 39.3031 40.8739 37.3506C40.9232 37.2922 40.9726 37.2336 41.0223 37.1752C42.6103 37.0782 44.1451 37.0527 45.4932 38.1904C48.0823 40.375 47.549 44.6457 44.4575 46.0449C43.9613 46.2691 43.4479 46.4558 42.9426 46.6599Z" fill="#FEB0B0"/>
<path d="M42.4688 87.4176C42.4895 87.146 42.4476 86.8508 42.5402 86.6065C43.7309 83.4628 43.7044 80.2819 42.873 77.0703C44.5687 78.7848 45.9643 80.751 47.4964 82.6021C49.7982 85.3831 52.0534 88.2028 54.3201 91.0125C54.618 91.3818 55.0008 91.7002 55.1213 92.1925C54.9873 92.2583 54.8538 92.3239 54.7203 92.3896C50.1979 91.813 46.0867 90.223 42.4688 87.4176Z" fill="#FC6A11"/>
<path d="M54.7207 92.3885C54.8542 92.3229 54.9878 92.2572 55.1217 92.1914C56.4414 93.4217 57.559 94.8159 58.5022 96.352C57.5443 96.4211 56.5857 96.5242 55.6359 96.2756C55.5812 94.9207 54.8689 93.721 54.7207 92.3885Z" fill="#124FF0"/>
<path d="M73.0547 108.763C71.149 108.23 69.3997 107.33 67.6211 106.492C69.8073 106.76 71.6856 108.1 73.9084 108.205C73.8403 108.723 73.2247 108.402 73.0547 108.763Z" fill="#9FB7F8"/>
<path d="M73.9439 106.072C72.5394 106.091 71.437 105.207 70.1751 104.798C69.6366 104.624 69.1359 104.333 68.6875 103.887C69.4901 104.144 70.2842 104.432 71.0969 104.652C72.3237 104.983 73.4223 105.77 74.7647 105.687C74.6389 106.131 74.2437 106 73.9439 106.072Z" fill="#9FB7F8"/>
<path d="M74.0689 103.379C72.2818 103 70.7325 102.036 69.0859 101.293C70.764 101.871 72.5917 101.996 74.1066 103.044C74.094 103.155 74.0813 103.267 74.0689 103.379Z" fill="#9FB7F8"/>
<path d="M74.3809 107.553C74.3815 107.322 74.3823 107.091 74.3836 106.859C74.8259 107.092 74.8168 107.324 74.3809 107.553Z" fill="#F9D0D3"/>
<path d="M26.2949 50.4964C26.4365 46.7855 29.9184 43.1258 33.6985 42.7148C32.1813 46.2133 29.8133 48.902 26.2949 50.4964Z" fill="#030202"/>
<path d="M41.834 66.1019C41.8377 66.1007 41.84 66.0988 41.8435 66.0974C41.8439 66.0922 41.8447 66.087 41.8452 66.082C41.8454 66.082 41.834 66.1019 41.834 66.1019Z" fill="#FBDCA1"/>
<path d="M102.582 19.9079C102.587 19.9088 102.593 19.9096 102.598 19.9104C102.6 19.9073 102.603 19.9054 102.605 19.9023C102.605 19.9023 102.582 19.9081 102.582 19.9079Z" fill="#FBDCA1"/>
<path d="M104.443 20.2474C103.844 20.0789 103.214 20.0186 102.598 19.9102C102.43 20.1377 102.217 20.0538 102.007 19.9872C101.332 20.4399 100.537 20.6577 99.8789 21.162C94.9067 24.9703 89.9241 28.7651 84.9316 32.547C84.0696 33.2001 83.2039 33.8484 82.3371 34.4953C82.3253 34.4846 82.315 34.4732 82.3028 34.4628C81.9529 34.7431 81.6033 35.0234 81.2534 35.3037C79.9031 36.3086 78.5505 37.3105 77.2012 38.3168C75.4919 39.6259 73.7826 40.9351 72.0733 42.2442C71.9628 42.4069 71.8326 42.5437 71.6862 42.659C71.6786 42.6595 71.6717 42.6611 71.6632 42.6605C71.6531 42.6754 71.6409 42.6872 71.6305 42.7015C71.4786 42.8118 71.3099 42.9004 71.1221 42.9636C71.1072 43.0364 71.0625 43.0731 70.988 43.0731C70.9099 43.1861 70.8205 43.2836 70.7255 43.3741C70.6153 43.4569 70.505 43.5399 70.3949 43.6227C70.2837 43.6873 70.1674 43.7448 70.039 43.7864C70.02 43.861 69.9719 43.8986 69.8949 43.8995C69.8333 43.9895 69.7664 44.0725 69.6946 44.1491C69.5376 44.2671 69.3809 44.3849 69.224 44.5029C69.1398 44.5451 69.0508 44.5811 68.9557 44.6093C68.8328 44.7033 68.7098 44.7973 68.587 44.8912C68.5388 44.9678 68.485 45.0368 68.4279 45.1014C68.2473 45.2372 68.0668 45.373 67.8861 45.5086C67.8023 45.5502 67.7149 45.5872 67.624 45.6195C67.6102 45.6911 67.5667 45.727 67.4938 45.727C67.4535 45.7901 67.4087 45.8476 67.3622 45.9025C67.1634 46.052 66.9647 46.2012 66.766 46.3507C66.6935 46.3852 66.6194 46.4171 66.542 46.4451C66.526 46.5177 66.4807 46.5546 66.4064 46.5552C66.365 46.6161 66.3176 46.6691 66.271 46.7229C66.088 46.8605 65.9048 46.9982 65.7216 47.1359C65.7038 47.1497 65.686 47.1636 65.668 47.1773C65.6001 47.2094 65.5322 47.2412 65.4591 47.2665C65.4409 47.3408 65.3937 47.3797 65.3173 47.3833C65.2751 47.4462 65.2266 47.5008 65.1786 47.5561C64.9952 47.6979 64.8118 47.8399 64.6284 47.9819C64.5476 48.0221 64.4642 48.0587 64.376 48.0892C64.2531 48.1838 64.1301 48.2786 64.0071 48.3732C63.9612 48.4523 63.9078 48.5214 63.85 48.5845C63.7595 48.6547 63.6689 48.7249 63.5784 48.7951C63.4906 48.8433 63.3975 48.8845 63.2923 48.9098C62.213 49.6846 61.1336 50.4594 60.0542 51.2345C60.0872 51.3057 60.1261 51.3705 60.1679 51.4324C59.5454 51.9112 58.9221 52.3884 58.2969 52.8637C53.45 56.5481 48.5933 60.2198 43.7264 63.8783C43.082 64.3627 42.6703 65.05 42.0697 65.563C42.077 65.7774 42.1 65.9985 41.8428 66.0967C41.7832 66.7018 41.675 67.3071 41.6758 67.9119C41.6799 70.6822 43.6594 72.8299 46.4482 73.0684C56.0573 73.8894 65.6682 74.6897 75.2777 75.5074C79.0858 75.8314 82.8917 76.1802 86.6987 76.5178C87.6265 76.4245 88.5309 76.7192 89.473 76.6141C90.5984 76.4884 91.6241 76.2034 92.5443 75.7802C95.8958 75.3956 98.4726 73.3679 99.8284 70.0104C100.194 69.1062 100.152 68.1285 100.501 67.235C101.221 63.3699 101.93 59.5027 102.663 55.6401C104.514 45.8936 106.382 36.1502 108.23 26.4031C108.766 23.5745 107.187 21.0185 104.443 20.2474Z" fill="#FBDCA1"/>
</g>
<defs>
<filter id="filter0_d" x="53.8105" y="23.1641" width="22.3768" height="19.8982" filterUnits="userSpaceOnUse" color-interpolation-filters="sRGB">
<feFlood flood-opacity="0" result="BackgroundImageFix"/>
<feColorMatrix in="SourceAlpha" type="matrix" values="0 0 0 0 0 0 0 0 0 0 0 0 0 0 0 0 0 0 127 0"/>
<feOffset dy="4"/>
<feGaussianBlur stdDeviation="2"/>
<feColorMatrix type="matrix" values="0 0 0 0 0 0 0 0 0 0 0 0 0 0 0 0 0 0 0.15 0"/>
<feBlend mode="normal" in2="BackgroundImageFix" result="effect1_dropShadow"/>
<feBlend mode="normal" in="SourceGraphic" in2="effect1_dropShadow" result="shape"/>
</filter>
<filter id="filter1_d" x="47.582" y="25.4922" width="38.7215" height="34.8856" filterUnits="userSpaceOnUse" color-interpolation-filters="sRGB">
<feFlood flood-opacity="0" result="BackgroundImageFix"/>
<feColorMatrix in="SourceAlpha" type="matrix" values="0 0 0 0 0 0 0 0 0 0 0 0 0 0 0 0 0 0 127 0"/>
<feOffset dy="2"/>
<feGaussianBlur stdDeviation="2"/>
<feColorMatrix type="matrix" values="0 0 0 0 0 0 0 0 0 0 0 0 0 0 0 0 0 0 0.25 0"/>
<feBlend mode="normal" in2="BackgroundImageFix" result="effect1_dropShadow"/>
<feBlend mode="normal" in="SourceGraphic" in2="effect1_dropShadow" result="shape"/>
</filter>
<clipPath id="clip0">
<rect width="150" height="164.091" fill="white" transform="translate(0.75 0.226562)"/>
</clipPath>
</defs>
</svg>
