<svg width="21" height="21" viewBox="0 0 21 21" fill="none" xmlns="http://www.w3.org/2000/svg">
<path d="M5.54101 19.6287L0.250011 20.8047L1.42601 15.5137C0.651543 14.0651 0.247538 12.4473 0.250011 10.8047C0.250011 5.28169 4.72701 0.804688 10.25 0.804688C15.773 0.804688 20.25 5.28169 20.25 10.8047C20.25 16.3277 15.773 20.8047 10.25 20.8047C8.60737 20.8072 6.98963 20.4032 5.54101 19.6287ZM5.25001 10.8047C5.25001 12.1308 5.7768 13.4025 6.71448 14.3402C7.65216 15.2779 8.92393 15.8047 10.25 15.8047C11.5761 15.8047 12.8479 15.2779 13.7855 14.3402C14.7232 13.4025 15.25 12.1308 15.25 10.8047H13.25C13.25 11.6003 12.9339 12.3634 12.3713 12.926C11.8087 13.4886 11.0457 13.8047 10.25 13.8047C9.45436 13.8047 8.6913 13.4886 8.12869 12.926C7.56608 12.3634 7.25001 11.6003 7.25001 10.8047H5.25001Z" fill="#020A13"/>
</svg>
