<svg width="51" height="31" viewBox="0 0 51 31" fill="none" xmlns="http://www.w3.org/2000/svg">
<g filter="url(#filter0_d)">
<rect x="0.25" y="0.898438" width="45" height="25" fill="#0060F9"/>
<rect x="0.75" y="1.39844" width="44" height="24" stroke="#0060F9"/>
</g>
<path d="M31.0824 16.9806C30.9461 16.9809 30.814 16.9334 30.7091 16.8464C30.65 16.7975 30.6012 16.7373 30.5654 16.6694C30.5296 16.6016 30.5076 16.5273 30.5005 16.4509C30.4935 16.3745 30.5016 16.2975 30.5243 16.2242C30.5471 16.1509 30.5841 16.0829 30.6332 16.0239L33.2466 12.8973L30.7266 9.76476C30.6781 9.7051 30.6419 9.63644 30.6201 9.56274C30.5983 9.48904 30.5912 9.41176 30.5993 9.33532C30.6075 9.25889 30.6306 9.18482 30.6675 9.11736C30.7043 9.04991 30.7541 8.9904 30.8141 8.94226C30.8744 8.88916 30.9451 8.8491 31.0217 8.82461C31.0982 8.80012 31.1791 8.79171 31.259 8.79993C31.339 8.80815 31.4164 8.8328 31.4864 8.87235C31.5564 8.91191 31.6174 8.9655 31.6657 9.02976L34.4832 12.5298C34.569 12.6341 34.6159 12.7651 34.6159 12.9002C34.6159 13.0353 34.569 13.1662 34.4832 13.2706L31.5666 16.7706C31.5081 16.8412 31.4337 16.897 31.3496 16.9335C31.2655 16.97 31.1739 16.9861 31.0824 16.9806Z" fill="white"/>
<path d="M14.4176 16.9806C14.5539 16.9809 14.686 16.9334 14.7909 16.8464C14.85 16.7975 14.8988 16.7373 14.9346 16.6694C14.9704 16.6016 14.9924 16.5273 14.9995 16.4509C15.0065 16.3745 14.9984 16.2975 14.9757 16.2242C14.9529 16.1509 14.9159 16.0829 14.8668 16.0239L12.2534 12.8973L14.7734 9.76476C14.8219 9.7051 14.8581 9.63644 14.8799 9.56274C14.9017 9.48904 14.9088 9.41176 14.9007 9.33532C14.8925 9.25889 14.8694 9.18482 14.8325 9.11736C14.7957 9.04991 14.7459 8.9904 14.6859 8.94226C14.6256 8.88916 14.5549 8.8491 14.4783 8.82461C14.4018 8.80012 14.3209 8.79171 14.241 8.79993C14.161 8.80815 14.0836 8.8328 14.0136 8.87235C13.9436 8.91191 13.8826 8.9655 13.8343 9.02976L11.0168 12.5298C10.931 12.6341 10.8841 12.7651 10.8841 12.9002C10.8841 13.0353 10.931 13.1662 11.0168 13.2706L13.9334 16.7706C13.9919 16.8412 14.0663 16.897 14.1504 16.9335C14.2345 16.97 14.3261 16.9861 14.4176 16.9806Z" fill="white"/>
<defs>
<filter id="filter0_d" x="0.25" y="0.898438" width="50" height="30" filterUnits="userSpaceOnUse" color-interpolation-filters="sRGB">
<feFlood flood-opacity="0" result="BackgroundImageFix"/>
<feColorMatrix in="SourceAlpha" type="matrix" values="0 0 0 0 0 0 0 0 0 0 0 0 0 0 0 0 0 0 127 0"/>
<feOffset dx="5" dy="5"/>
<feColorMatrix type="matrix" values="0 0 0 0 0.00784314 0 0 0 0 0.0392157 0 0 0 0 0.0745098 0 0 0 1 0"/>
<feBlend mode="normal" in2="BackgroundImageFix" result="effect1_dropShadow"/>
<feBlend mode="normal" in="SourceGraphic" in2="effect1_dropShadow" result="shape"/>
</filter>
</defs>
</svg>
