<svg width="24" height="24" viewBox="0 0 24 24" fill="none" xmlns="http://www.w3.org/2000/svg">
<g id="svgviewer-output - 2023-12-11T154706.924 1" clip-path="url(#clip0_1_543)">
<g id="Group">
<path id="Vector" d="M11.9965 0C18.648 0.0523675 23.977 5.20055 23.9999 12.1222C24.0209 18.467 18.8381 24.1366 11.6948 23.9974C5.17913 23.8704 -0.142809 18.5631 0.00292339 11.6333C0.13152 5.51268 5.12517 0.0632573 11.9965 0ZM9.4691 13.8148C9.89573 13.8148 10.3225 13.8157 10.7491 13.8143C10.9532 13.8136 11.081 13.8598 11.0334 14.1155C10.9288 14.6779 10.8431 15.2437 10.7512 15.8082C10.5781 16.8724 10.4055 17.9366 10.2335 19.0009C10.217 19.1023 10.164 19.2107 10.2947 19.2807C10.5171 19.3997 11.1253 19.2482 11.251 19.0382C12.8454 16.3776 14.439 13.7164 16.0319 11.0548C16.3627 10.5012 16.1891 10.2019 15.54 10.1971C14.7932 10.1917 14.0464 10.1917 13.2996 10.1971C13.0677 10.1984 12.9101 10.1678 12.966 9.8643C13.1326 8.96156 13.2847 8.05626 13.4373 7.15096C13.5567 6.44227 13.671 5.73272 13.7804 5.02231C13.7967 4.9163 13.8612 4.78514 13.6886 4.7222C13.3199 4.61512 12.9239 4.75261 12.7008 5.06507C11.4743 7.10767 10.2488 9.15086 9.02422 11.1946C8.6546 11.8112 8.27394 12.4213 7.92178 13.0478C7.65786 13.5171 7.83114 13.8077 8.34905 13.8133C8.72235 13.8173 9.09581 13.8141 9.46926 13.8149L9.4691 13.8148Z" fill="#020A13"/>
</g>
</g>
<defs>
<clipPath id="clip0_1_543">
<rect width="24" height="24" fill="white"/>
</clipPath>
</defs>
</svg>
