<svg width="502" height="474" viewBox="0 0 502 474" fill="none" xmlns="http://www.w3.org/2000/svg">
<path d="M87.9996 289.538C85.7158 286.493 83 278.039 81.6582 274.461" stroke="black" stroke-width="3" stroke-linecap="round"/>
<rect y="0.0722656" width="296" height="380" rx="50" fill="url(#paint0_linear_1566_393)" fill-opacity="0.5"/>
<rect x="18.3945" y="137.938" width="104.781" height="199" rx="50" transform="rotate(-31.9771 18.3945 137.938)" fill="url(#paint1_linear_1566_393)"/>
<path d="M132.563 100.066C269.444 104.302 342.27 107.547 450.719 114.432C455.013 114.705 458.42 118.135 458.566 122.385C459.52 150.253 457.181 174.775 455.326 194.213C454.893 198.754 454.486 203.019 454.154 206.983C453.754 211.751 449.721 215.381 445.017 215.13C402.45 212.86 234.039 204.036 128.208 200.734C123.464 200.586 119.772 196.59 119.987 191.842L123.771 108.175C123.98 103.542 127.912 99.9219 132.563 100.066Z" fill="#020A13" stroke="#020A13" stroke-width="3"/>
<path d="M126.563 92.0658C263.444 96.302 336.27 99.5466 444.719 106.432C449.013 106.705 452.42 110.135 452.566 114.385C453.52 142.253 451.181 166.775 449.326 186.213C448.893 190.754 448.486 195.019 448.154 198.983C447.754 203.751 443.721 207.381 439.017 207.13C396.45 204.86 228.039 196.036 122.208 192.734C117.464 192.586 113.772 188.59 113.987 183.842L117.771 100.175C117.98 95.5415 121.912 91.9219 126.563 92.0658Z" fill="white" stroke="#020A13" stroke-width="3"/>
<rect x="148.641" y="122.329" width="44.2682" height="44.2682" rx="8" transform="rotate(2.58933 148.641 122.329)" fill="#020A13"/>
<path d="M178.873 151.306C178.793 151.086 178.65 150.895 178.462 150.757C178.274 150.619 178.05 150.54 177.817 150.529L176.638 150.476L176.745 148.119C176.833 146.166 175.321 144.512 173.369 144.424L172.191 144.37C171.539 144.341 171.036 143.79 171.065 143.138L171.332 137.246C171.346 136.933 171.235 136.628 171.024 136.397C170.813 136.166 170.519 136.028 170.207 136.014C169.894 136 169.589 136.111 169.358 136.322C169.127 136.533 168.989 136.827 168.975 137.139L168.708 143.032C168.694 143.344 168.557 143.639 168.326 143.85C168.095 144.061 167.789 144.171 167.477 144.157L166.298 144.104C165.36 144.061 164.444 144.393 163.751 145.026C163.058 145.659 162.645 146.542 162.603 147.479L162.496 149.836L161.318 149.783C160.842 149.761 160.397 150.03 160.196 150.461C160.097 150.672 160.064 150.908 160.099 151.139C160.134 151.369 160.237 151.584 160.394 151.757L162.644 154.221C162.863 154.461 163.16 154.59 163.461 154.604C163.763 154.617 164.07 154.515 164.31 154.296L166.774 152.046C166.946 151.888 167.068 151.683 167.124 151.457C167.179 151.23 167.167 150.992 167.088 150.773C167.008 150.553 166.865 150.363 166.677 150.224C166.489 150.086 166.265 150.007 166.032 149.996L164.853 149.943L164.96 147.586C164.989 146.935 165.541 146.431 166.192 146.461L167.37 146.514C168.28 146.555 169.116 146.239 169.768 145.704C170.369 146.295 171.175 146.686 172.084 146.727L173.262 146.781C173.575 146.795 173.869 146.932 174.08 147.163C174.291 147.394 174.402 147.7 174.388 148.012L174.281 150.369L173.103 150.316C172.626 150.294 172.182 150.562 171.981 150.994C171.882 151.205 171.849 151.441 171.884 151.672C171.919 151.902 172.021 152.117 172.178 152.29L174.429 154.754C174.648 154.994 174.945 155.123 175.246 155.137C175.548 155.15 175.855 155.048 176.095 154.829L178.559 152.579C178.731 152.421 178.853 152.216 178.908 151.99C178.964 151.763 178.952 151.525 178.873 151.306V151.306Z" fill="white"/>
<path d="M218.03 145.145L218.607 132.378L216.485 132.282L215.908 145.049L218.03 145.145ZM223.528 135.61C223.57 134.693 224.221 134.236 225.11 134.51L225.631 132.552C223.445 131.876 221.517 133.069 221.415 135.334L221.355 136.647L220.168 136.593L220.087 138.391L221.274 138.445C221.163 141.287 220.995 145.009 220.983 145.279L223.105 145.375L223.414 138.542L225.05 138.616L225.131 136.818L223.495 136.744C223.5 136.239 223.518 135.826 223.528 135.61ZM225.321 145.475L227.425 145.57L233.001 133.029L230.879 132.933L225.321 145.475ZM236.107 143.855L236.257 140.528L241.508 140.766L241.617 138.734L236.35 138.478L236.494 135.295L242.337 135.578L242.433 133.456L236.589 133.192L234.467 133.096L233.89 145.863L234.033 145.869L241.855 146.223L241.968 144.138L236.107 143.855ZM248.041 146.503L248.128 144.579L247.248 144.521C246.762 144.499 246.422 144.447 246.453 143.764L246.91 133.658L244.771 133.562L244.299 143.991C244.236 145.375 244.769 146.337 246.082 146.396L248.041 146.503ZM256.491 140.218C256.23 138.819 254.903 137.876 253.177 137.798C251.415 137.718 249.975 138.878 249.903 140.46C249.848 141.683 250.559 142.688 251.802 143.087C251.945 143.129 252.584 143.339 253.42 143.575C254.043 143.747 254.247 144.008 254.232 144.35C254.207 144.907 253.744 145.175 252.971 145.14C252.072 145.099 251.498 144.641 251.414 144.096L249.404 144.33C249.607 145.817 251.055 146.873 252.889 146.956C254.759 147.041 256.157 146.005 256.229 144.404C256.286 143.164 255.807 142.187 254.279 141.721C253.851 141.612 253.194 141.402 252.554 141.211C252.02 141.061 251.821 140.691 251.892 140.316C252.001 139.889 252.448 139.567 253.095 139.596C253.887 139.632 254.392 140.015 254.529 140.58L256.491 140.218ZM266.385 143.026C266.385 143.026 266.435 141.929 266.133 141.032C265.559 139.385 264.077 138.291 262.261 138.208C259.869 138.1 257.816 140.062 257.703 142.579C257.589 145.096 259.456 147.235 261.848 147.343C263.628 147.424 265.18 146.557 265.86 145.074L264.058 144.29C263.702 144.976 262.927 145.392 261.938 145.347C260.895 145.3 260.045 144.559 259.768 143.519L266.349 143.817L266.385 143.026ZM259.803 141.953C260.139 140.887 261.092 140.138 262.171 140.186C262.872 140.218 263.454 140.515 263.829 140.982C264.104 141.265 264.35 141.817 264.388 142.161L259.803 141.953Z" fill="#020A13"/>
<path d="M217.221 163.021L217.372 159.694L222.622 159.932L222.732 157.901L217.464 157.645L217.608 154.462L223.452 154.744L223.548 152.622L217.704 152.358L215.582 152.262L215.004 165.029L215.148 165.035L222.97 165.389L223.083 163.304L217.221 163.021ZM235.6 157.059C234.305 157.001 233.39 157.698 232.876 158.72C232.386 157.599 231.411 156.834 229.991 156.77C229.035 156.78 228.28 157.161 227.748 157.767L227.785 156.94L225.699 156.846L225.308 165.495L227.394 165.589L227.623 160.518C227.739 159.154 228.683 158.602 229.636 158.645C230.535 158.686 231.259 159.404 231.204 160.626L230.936 165.749L233.004 165.843L233.229 160.88C233.287 159.585 234.256 158.872 235.263 158.918C236.126 158.957 237 159.555 236.939 160.904L236.654 166.008L238.74 166.102L238.966 161.121C239.066 158.91 237.812 157.141 235.6 157.059ZM245.127 157.472C243.652 157.405 242.21 157.827 241.144 159.472L242.687 160.425C243.306 159.48 244.092 159.245 245.025 159.323C245.78 159.376 246.415 159.675 246.505 160.471C246.524 160.851 246.283 160.984 245.96 160.969L244.593 160.907C243.567 160.879 242.791 160.916 242.199 161.25C241.33 161.751 240.803 162.646 240.794 163.637C240.736 165.31 242.053 166.468 244.013 166.557C244.912 166.598 245.702 166.273 246.283 165.777L246.249 166.532C246.932 166.563 247.705 166.598 248.335 166.626L248.592 160.944C248.689 158.786 247.07 157.542 245.127 157.472ZM244.058 164.775C243.357 164.726 242.722 164.427 242.718 163.724C242.697 162.984 243.334 162.454 244.539 162.509C245.15 162.536 245.869 162.569 246.428 162.576L246.405 163.08C246.256 164.388 245.261 164.866 244.058 164.775ZM252.259 156.497C252.978 156.53 253.638 155.875 253.671 155.156C253.705 154.4 253.105 153.725 252.386 153.692C251.612 153.657 250.936 154.275 250.902 155.03C250.869 155.75 251.486 156.462 252.259 156.497ZM251.055 158.01L250.665 166.642L252.787 166.738L253.177 158.106L251.055 158.01ZM259.307 167.032L259.394 165.108L258.514 165.051C258.028 165.029 257.688 164.977 257.719 164.294L258.176 154.188L256.036 154.091L255.565 164.521C255.502 165.905 256.035 166.866 257.348 166.926L259.307 167.032ZM268.144 159.81L268.191 158.785L266.087 158.69L265.714 167.322L267.8 167.417L267.999 163.029C268.18 161.416 269.381 160.353 271.017 160.823L271.104 158.917C269.615 158.76 268.644 159.112 268.144 159.81ZM276.208 158.878C274.734 158.811 273.291 159.232 272.226 160.878L273.768 161.83C274.388 160.885 275.173 160.651 276.107 160.729C276.861 160.781 277.496 161.08 277.586 161.877C277.605 162.256 277.365 162.39 277.041 162.375L275.675 162.313C274.649 162.285 273.872 162.322 273.281 162.655C272.411 163.156 271.884 164.052 271.875 165.042C271.818 166.715 273.135 167.874 275.095 167.963C275.994 168.003 276.783 167.679 277.364 167.182L277.33 167.938C278.014 167.969 278.787 168.003 279.416 168.032L279.673 162.35C279.771 160.192 278.151 158.948 276.208 158.878ZM275.139 166.181C274.439 166.131 273.804 165.832 273.799 165.129C273.779 164.39 274.415 163.86 275.62 163.914C276.232 163.942 276.951 163.974 277.509 163.982L277.486 164.485C277.337 165.794 276.342 166.271 275.139 166.181ZM286.373 161.373L286.452 159.611L284.744 159.534L284.868 156.801L282.728 156.704L282.604 159.437L281.112 159.37L281.032 161.132L282.525 161.199L282.32 165.731C282.257 167.115 282.79 168.076 284.103 168.136L286.062 168.242L286.149 166.318L285.269 166.261C284.783 166.239 284.443 166.187 284.474 165.504L284.664 161.296L286.373 161.373ZM289.662 158.189C290.381 158.221 291.041 157.566 291.074 156.847C291.108 156.092 290.508 155.416 289.789 155.384C289.016 155.349 288.339 155.967 288.305 156.722C288.272 157.441 288.889 158.154 289.662 158.189ZM288.458 159.702L288.068 168.333L290.19 168.429L290.58 159.798L288.458 159.702ZM297.994 159.845C296.988 159.799 295.979 160.186 295.254 161.072L295.302 160.011L293.27 159.92L292.862 168.55L294.93 168.643L295.138 164.04C295.308 162.282 296.583 161.565 297.801 161.728C298.877 161.849 299.706 162.643 299.627 164.387L299.425 168.847L301.493 168.94L301.7 164.373C301.853 160.974 299.936 159.951 297.994 159.845ZM310.59 160.703L310.551 161.566C309.92 160.781 309.021 160.344 308.014 160.298C305.425 160.163 303.675 161.814 303.532 164.582C303.424 167.352 305.147 169.105 307.61 169.217C308.671 169.265 309.57 168.909 310.252 168.183L310.213 169.028C310.183 169.694 310.015 170.227 309.726 170.646C309.321 171.24 308.64 171.552 307.757 171.548C307.036 171.551 306.327 171.303 305.845 170.795C305.587 170.531 305.386 170.197 305.26 169.795L303.414 170.36C303.616 171.09 303.967 171.683 304.396 172.153C305.222 173.019 306.354 173.484 307.739 173.547C309.141 173.611 310.337 173.07 311.171 172.153C311.873 171.374 312.3 170.312 312.353 169.125L312.73 160.8L310.59 160.703ZM307.928 167.375C306.507 167.311 305.512 166.203 305.581 164.675C305.65 163.164 306.742 162.114 308.163 162.179C309.35 162.232 310.46 163.183 310.386 164.82C310.313 166.438 309.24 167.435 307.928 167.375ZM320.743 159.594C321.463 159.627 322.123 158.972 322.156 158.253C322.19 157.498 321.59 156.822 320.87 156.789C320.097 156.754 319.421 157.372 319.386 158.128C319.354 158.847 319.97 159.559 320.743 159.594ZM319.54 161.108L319.15 169.739L321.271 169.835L321.662 161.203L319.54 161.108ZM330.376 163.58C330.115 162.18 328.788 161.237 327.062 161.159C325.3 161.08 323.86 162.24 323.788 163.822C323.733 165.045 324.444 166.05 325.688 166.449C325.83 166.491 326.469 166.7 327.305 166.936C327.928 167.109 328.133 167.37 328.117 167.712C328.092 168.269 327.629 168.537 326.856 168.502C325.957 168.461 325.383 168.003 325.3 167.458L323.289 167.692C323.492 169.178 324.94 170.235 326.774 170.318C328.644 170.402 330.042 169.366 330.115 167.766C330.171 166.525 329.692 165.549 328.164 165.083C327.736 164.974 327.079 164.764 326.439 164.573C325.905 164.422 325.706 164.053 325.777 163.678C325.886 163.25 326.333 162.928 326.981 162.958C327.772 162.993 328.277 163.377 328.414 163.941L330.376 163.58ZM344.643 166.585C344.643 166.585 344.693 165.488 344.391 164.592C343.817 162.944 342.335 161.85 340.518 161.768C338.127 161.66 336.074 163.621 335.96 166.138C335.846 168.656 337.714 170.794 340.105 170.903C341.885 170.983 343.438 170.116 344.118 168.634L342.315 167.849C341.96 168.536 341.185 168.951 340.196 168.907C339.153 168.859 338.303 168.118 338.026 167.079L344.607 167.376L344.643 166.585ZM338.061 165.513C338.397 164.447 339.35 163.697 340.429 163.746C341.13 163.778 341.711 164.074 342.087 164.542C342.362 164.824 342.607 165.376 342.646 165.72L338.061 165.513ZM354.673 175.381L355.246 162.704L353.017 162.603L352.976 163.503C352.363 162.718 351.482 162.282 350.493 162.237C347.795 162.115 346.051 164.036 345.885 166.894C345.756 169.753 347.336 171.878 350.051 172.001C351.04 172.046 351.957 171.691 352.638 170.965L352.443 175.28L354.673 175.381ZM350.229 170.063C348.843 170.018 347.852 168.838 347.916 167.022C348.017 165.188 349.112 164.085 350.496 164.147C351.736 164.221 352.773 165.205 352.827 166.793L352.789 167.638C352.591 169.233 351.469 170.119 350.229 170.063ZM364.168 163.126L363.988 167.118C363.889 169.293 362.792 170.055 361.605 170.001C360.418 169.947 359.557 169.062 359.636 167.317L359.835 162.93L357.749 162.835L357.545 167.331C357.391 170.747 359.056 171.778 361.268 171.878C362.437 171.931 363.268 171.482 363.824 170.732L363.778 171.757L365.864 171.851L366.254 163.22L364.168 163.126ZM372.298 163.223C370.823 163.156 369.381 163.578 368.315 165.223L369.858 166.176C370.477 165.231 371.263 164.996 372.196 165.074C372.95 165.127 373.585 165.426 373.676 166.222C373.694 166.602 373.454 166.735 373.131 166.72L371.764 166.659C370.738 166.63 369.962 166.667 369.37 167.001C368.5 167.502 367.974 168.397 367.965 169.388C367.907 171.061 369.224 172.219 371.184 172.308C372.083 172.349 372.873 172.024 373.454 171.528L373.42 172.283C374.103 172.314 374.876 172.349 375.505 172.377L375.762 166.695C375.86 164.537 374.241 163.293 372.298 163.223ZM371.229 170.526C370.528 170.477 369.893 170.178 369.889 169.475C369.868 168.735 370.505 168.205 371.71 168.26C372.321 168.287 373.04 168.32 373.598 168.327L373.576 168.831C373.426 170.139 372.432 170.617 371.229 170.526ZM381.684 172.567L381.771 170.643L380.89 170.585C380.405 170.563 380.065 170.511 380.096 169.828L380.553 159.723L378.413 159.626L377.941 170.055C377.879 171.44 378.412 172.401 379.725 172.46L381.684 172.567ZM392.699 166.182L392.779 164.42L391.071 164.342L391.195 161.609L389.055 161.512L388.931 164.246L387.439 164.178L387.359 165.94L388.851 166.008L388.647 170.539C388.584 171.924 389.117 172.885 390.43 172.944L392.389 173.051L392.476 171.127L391.596 171.069C391.11 171.047 390.77 170.996 390.801 170.312L390.991 166.105L392.699 166.182ZM402.699 169.211C402.814 166.675 400.983 164.52 398.538 164.41C396.074 164.298 394.038 166.296 393.924 168.814C393.813 171.277 395.697 173.435 398.125 173.544C400.57 173.655 402.584 171.746 402.699 169.211ZM400.594 169.134C400.529 170.572 399.635 171.631 398.214 171.566C396.811 171.503 395.948 170.275 396.009 168.926C396.073 167.506 397.008 166.359 398.447 166.424C399.849 166.487 400.659 167.695 400.594 169.134ZM411.127 160.871L411.109 161.267C411.074 162.04 410.742 162.205 410.311 162.185L408.638 162.11L408.542 164.25L410.304 164.329C410.538 164.34 410.773 164.314 410.974 164.251L410.539 173.872L412.715 173.97L413.303 160.969L411.127 160.871Z" fill="#007BFF"/>
<circle opacity="0.2" cx="425.883" cy="397.5" r="27.5" fill="#020A13"/>
<circle cx="425.883" cy="397.5" r="13.1978" fill="#020A13"/>
<path d="M430.082 396.899H426.483V393.3C426.483 393.141 426.42 392.988 426.307 392.876C426.195 392.763 426.042 392.7 425.883 392.7C425.724 392.7 425.571 392.763 425.459 392.876C425.346 392.988 425.283 393.141 425.283 393.3V396.899H421.684C421.525 396.899 421.372 396.963 421.26 397.075C421.147 397.188 421.084 397.34 421.084 397.499C421.084 397.658 421.147 397.811 421.26 397.924C421.372 398.036 421.525 398.099 421.684 398.099H425.283V401.699C425.283 401.858 425.346 402.01 425.459 402.123C425.571 402.235 425.724 402.299 425.883 402.299C426.042 402.299 426.195 402.235 426.307 402.123C426.42 402.01 426.483 401.858 426.483 401.699V398.099H430.082C430.242 398.099 430.394 398.036 430.507 397.924C430.619 397.811 430.682 397.658 430.682 397.499C430.682 397.34 430.619 397.188 430.507 397.075C430.394 396.963 430.242 396.899 430.082 396.899Z" fill="white"/>
<circle opacity="0.2" cx="128.285" cy="445.923" r="27.5" fill="#020A13"/>
<circle cx="128.286" cy="445.923" r="13.1978" fill="#020A13"/>
<path d="M132.485 445.322H128.885V441.723C128.885 441.564 128.822 441.411 128.71 441.299C128.597 441.186 128.445 441.123 128.286 441.123C128.126 441.123 127.974 441.186 127.861 441.299C127.749 441.411 127.686 441.564 127.686 441.723V445.322H124.086C123.927 445.322 123.775 445.386 123.662 445.498C123.55 445.611 123.486 445.763 123.486 445.922C123.486 446.081 123.55 446.234 123.662 446.346C123.775 446.459 123.927 446.522 124.086 446.522H127.686V450.122C127.686 450.281 127.749 450.433 127.861 450.546C127.974 450.658 128.126 450.721 128.286 450.721C128.445 450.721 128.597 450.658 128.71 450.546C128.822 450.433 128.885 450.281 128.885 450.122V446.522H132.485C132.644 446.522 132.796 446.459 132.909 446.346C133.021 446.234 133.085 446.081 133.085 445.922C133.085 445.763 133.021 445.611 132.909 445.498C132.796 445.386 132.644 445.322 132.485 445.322Z" fill="white"/>
<path d="M274 211V211C274 234.748 254.748 254 231 254H176C148.386 254 126 276.386 126 304V411" stroke="#020A13" stroke-width="2" stroke-dasharray="4 4"/>
<path d="M276 211V211C276 234.748 295.252 254 319 254H374C401.614 254 424 276.386 424 304V361" stroke="#020A13" stroke-width="2" stroke-dasharray="4 4"/>
<rect x="83.5117" y="295" width="84.9766" height="40" rx="20" fill="#02C39A"/>
<rect x="380.512" y="295" width="84.9766" height="40" rx="20" fill="#DB222A"/>
<g clip-path="url(#clip0_1566_393)">
<path d="M116.535 312.75H112.035V309.375C112.035 308.134 111.026 307.125 109.785 307.125H108.098C107.948 307.125 107.805 307.184 107.7 307.29C107.594 307.395 107.535 307.538 107.535 307.688V310.35L105.359 314.158C105.31 314.243 105.285 314.34 105.285 314.438V322.312C105.285 322.462 105.344 322.605 105.45 322.71C105.555 322.816 105.698 322.875 105.848 322.875H114.876C115.311 322.875 115.737 322.748 116.101 322.511C116.466 322.274 116.754 321.936 116.931 321.539L118.736 317.478C118.768 317.407 118.785 317.329 118.785 317.25V315C118.785 313.759 117.776 312.75 116.535 312.75ZM100.785 314.438V322.312C100.785 322.462 100.844 322.605 100.95 322.71C101.055 322.816 101.198 322.875 101.348 322.875H104.16V313.875H101.348C101.198 313.875 101.055 313.934 100.95 314.04C100.844 314.145 100.785 314.288 100.785 314.438V314.438Z" fill="white"/>
</g>
<path d="M133.467 310.56H132.165L129.519 315.264V315.292L126.887 310.56H125.585L128.973 316.384V320.5H130.093V316.328L133.467 310.56ZM139.983 317.168C139.983 317.168 139.983 316.286 139.703 315.6C139.227 314.354 138.037 313.556 136.665 313.556C134.831 313.556 133.305 315.166 133.305 317.126C133.305 319.086 134.831 320.682 136.665 320.682C138.023 320.682 139.171 319.926 139.633 318.806L138.653 318.428C138.345 319.156 137.603 319.618 136.665 319.618C135.545 319.618 134.621 318.764 134.411 317.616H139.969L139.983 317.168ZM134.397 316.72C134.565 315.516 135.517 314.606 136.665 314.606C137.519 314.606 138.233 315.04 138.569 315.726C138.765 316.02 138.891 316.454 138.919 316.72H134.397ZM146.056 315.25C145.79 314.228 144.796 313.556 143.494 313.556C142.192 313.556 141.156 314.494 141.156 315.642C141.156 316.58 141.744 317.28 142.724 317.504C143.032 317.574 143.452 317.686 143.984 317.784C144.656 317.924 144.922 318.232 144.922 318.708C144.922 319.324 144.418 319.716 143.606 319.716C142.696 319.716 142.122 319.324 141.996 318.75L140.96 318.96C141.198 320.052 142.206 320.696 143.606 320.696C144.992 320.696 145.986 319.87 145.986 318.694C145.986 317.728 145.468 317.014 144.32 316.762C143.956 316.692 143.536 316.594 143.032 316.482C142.472 316.356 142.206 316.034 142.22 315.558C142.248 314.914 142.822 314.536 143.522 314.536C144.222 314.522 144.852 314.872 145.006 315.488L146.056 315.25Z" fill="white"/>
<path d="M436.289 310.56V318.512L430.941 310.56H429.821V320.5H430.941V312.548L436.289 320.5H437.409V310.56H436.289ZM445.863 317.126C445.863 315.124 444.421 313.556 442.503 313.556C440.585 313.556 439.143 315.138 439.143 317.126C439.143 319.086 440.627 320.696 442.503 320.696C444.435 320.696 445.863 319.142 445.863 317.126ZM444.757 317.126C444.757 318.582 443.875 319.632 442.503 319.632C441.159 319.632 440.235 318.512 440.235 317.126C440.235 315.712 441.145 314.634 442.503 314.634C443.861 314.634 444.757 315.684 444.757 317.126Z" fill="white"/>
<g clip-path="url(#clip1_1566_393)">
<path d="M414.133 318.25H409.633V321.625C409.633 322.866 408.624 323.875 407.383 323.875H405.695C405.546 323.875 405.403 323.816 405.298 323.71C405.192 323.605 405.133 323.462 405.133 323.312V320.65L402.957 316.842C402.908 316.757 402.882 316.66 402.883 316.562V308.688C402.883 308.538 402.942 308.395 403.048 308.29C403.153 308.184 403.296 308.125 403.445 308.125H412.473C412.909 308.125 413.334 308.252 413.699 308.489C414.064 308.726 414.352 309.064 414.529 309.461L416.333 313.522C416.366 313.593 416.383 313.671 416.383 313.75V316C416.383 317.241 415.374 318.25 414.133 318.25ZM398.383 316.562V308.688C398.383 308.538 398.442 308.395 398.548 308.29C398.653 308.184 398.796 308.125 398.945 308.125H401.758V317.125H398.945C398.796 317.125 398.653 317.066 398.548 316.96C398.442 316.855 398.383 316.712 398.383 316.562V316.562Z" fill="white"/>
</g>
<path d="M82 294C74.6265 290.492 67.1707 287.399 61 282" stroke="black" stroke-width="3" stroke-linecap="round"/>
<path d="M95.7504 289.036C94.4924 288.25 95.7509 270.75 95.7509 269.205" stroke="black" stroke-width="3" stroke-linecap="round"/>
<g clip-path="url(#clip2_1566_393)">
<path d="M116.151 138.269C117.537 129.317 119.256 120.106 117.712 111.08C116.936 111.397 116.169 111.731 115.412 112.089C101.283 118.776 92.9672 132.94 89.1761 147.554C88.8543 148.794 88.5242 150.17 88.1875 151.651C96.8733 154.449 105.702 156.817 114.6 158.981C114.706 151.83 115.129 144.869 116.151 138.269Z" fill="#DF785E"/>
<path d="M114.599 158.982C105.702 156.817 96.8728 154.449 88.1869 151.651C83.6411 171.678 79.1804 213.183 78.3583 218.758C74.6263 215.638 59.1068 203.523 56.1621 200.865C57.1413 205.152 58.4881 207.941 59.5419 212.21C60.729 217.018 61.9917 221.808 63.3928 226.558C64.7871 231.285 66.3192 235.974 68.0514 240.59C69.7803 245.196 71.7109 249.729 73.8998 254.138C75.2605 256.879 76.7345 259.562 78.3024 262.191C83.7235 261.568 97.1415 257.372 101.558 254.218C114.47 244.997 113.813 236.338 115.02 221.193C116.595 201.432 114.296 179.418 114.599 158.982Z" fill="#587EDF"/>
<path d="M85.9624 164.366C94.5095 167.038 103.057 169.711 111.604 172.383C114.031 173.142 116.459 173.901 118.886 174.661C119.279 174.783 119.446 174.171 119.055 174.048C110.508 171.376 101.961 168.703 93.4148 166.03C90.9871 165.272 88.5599 164.512 86.1322 163.753C85.7396 163.631 85.5715 164.244 85.9624 164.366Z" fill="#2A2D3D"/>
<path d="M83.3831 227.709C81.1328 225.163 79.4919 222.127 78.5868 218.858C78.4779 218.465 77.8625 218.632 77.972 219.027C78.9069 222.404 80.6092 225.529 82.9325 228.159C83.2034 228.465 83.6534 228.014 83.3831 227.709Z" fill="#2A2D3D"/>
<path d="M116.454 118.781C114.964 117.725 113.024 118.829 111.713 119.652C109.557 121.006 100.778 126.731 100.074 127.797C98.61 130.015 99.6051 141.827 103.506 140.786C103.915 140.677 104.204 140.317 104.479 140.023C104.853 139.623 105.225 139.22 105.592 138.813C107.045 137.211 108.446 135.562 109.793 133.872C111.125 132.201 112.406 130.49 113.632 128.742C114.818 127.048 116.151 125.312 116.962 123.401C117.566 121.975 117.933 119.83 116.454 118.781Z" fill="#DF785E"/>
<path d="M102.012 126.394C103.415 125.341 104.819 124.288 106.222 123.235C106.361 123.131 106.429 122.962 106.336 122.8C106.259 122.664 106.037 122.583 105.9 122.686C104.497 123.739 103.093 124.792 101.69 125.845C101.551 125.949 101.483 126.118 101.576 126.28C101.653 126.416 101.875 126.497 102.012 126.394Z" fill="#2A2D3D"/>
<path d="M57.199 176.981L52.2202 179.033C52.1334 178.896 52.0472 178.765 51.9631 178.64L50.9386 179.561L46.1368 181.54C46.5183 181.943 46.9772 182.318 47.4881 182.664L43.0898 186.619C44.3316 188.777 46.4011 190.449 48.7774 191.213C49.8621 191.563 51.0658 191.722 52.1284 191.311C53.875 190.635 54.7298 188.633 54.9034 186.775C54.9581 186.187 54.8923 185.526 54.7452 184.834C55.2075 184.824 55.6658 184.787 56.0998 184.686C58.025 184.232 58.9671 182.89 59.1584 181.644C59.4094 180.016 58.7045 178.339 57.199 176.981Z" fill="#2A2D3D"/>
<path d="M61.3254 213.247C59.3002 204.66 55.195 198.252 48.5244 191.473C41.7842 184.624 32.3769 183.939 25.2872 188.165C5.16434 200.162 1.21121 243.77 0.836902 250.618C-0.438607 273.956 22.0816 285.043 44.6061 283.22C51.149 282.691 57.7333 279.488 61.0335 276.234C64.2419 273.071 57.7809 270.534 60.1583 266.86C65.079 259.256 61.3967 250.817 62.7292 242.184C64.2143 232.561 63.5652 222.742 61.3254 213.247Z" fill="#587EDF"/>
<path d="M29.3242 186.614C29.3242 186.614 30.3072 182.292 32.1406 181.767C33.2525 181.448 48.218 184.555 48.4021 187.553C48.584 190.521 48.2849 192.151 48.2849 192.151C48.2849 192.151 33.7224 193.018 29.3242 186.614Z" fill="#587EDF"/>
<path d="M34.7572 172.886L32.418 182.702C32.418 182.702 39.2301 189.349 47.4449 187.081L48.2841 182.08L34.7572 172.886Z" fill="#DF785E"/>
<path d="M28.2982 155.789C28.3751 155.134 28.5045 154.486 28.7035 153.855C31.0422 146.445 40.3219 144.782 46.8984 146.659C51.3094 147.917 54.4769 151.161 56.125 155.375C57.3099 158.403 57.4575 161.038 57.8163 163.233C58.5179 167.518 58.8248 169.628 59.1471 173.553C59.5159 178.046 58.3305 182.471 52.6208 183.181C46.8067 183.905 41.217 181.287 37.062 177.368C32.0617 172.651 28.8777 166.07 28.2894 159.235C28.1915 158.091 28.165 156.928 28.2982 155.789Z" fill="#DF785E"/>
<path d="M52.4815 176.417C52.2925 176.417 52.0984 176.4 51.9032 176.366C50.4884 176.114 49.4987 175.006 49.6972 173.897C49.8962 172.788 51.2132 172.092 52.6253 172.343C53.2954 172.463 53.8925 172.774 54.3072 173.222C54.7445 173.693 54.9308 174.258 54.8308 174.812C54.6588 175.768 53.6597 176.417 52.4815 176.417ZM52.0365 172.926C51.1657 172.926 50.4408 173.36 50.3247 174.009C50.1876 174.773 50.9462 175.55 52.0149 175.741C53.0853 175.931 54.0656 175.464 54.2032 174.7C54.2668 174.346 54.1374 173.975 53.8389 173.653C53.5182 173.306 53.0466 173.063 52.5131 172.968C52.3511 172.939 52.1918 172.926 52.0365 172.926Z" fill="#2A2D3D"/>
<path d="M41.2895 170.135C40.6221 168.9 39.8564 167.722 39.0204 166.595C39.3201 166.325 39.5855 166.016 39.8249 165.686C40.3457 164.968 40.8002 164.195 41.2419 163.427C41.6544 162.708 42.0348 161.973 42.3974 161.229C42.3775 161.218 42.356 161.208 42.3361 161.196C41.9844 160.983 41.6527 160.719 41.3674 160.418C39.3765 160.735 29.9498 162.64 29.6313 162.813C25.4869 165.053 21.7389 168.019 18.6267 171.548C17.1466 173.227 15.5946 175.119 15.2596 177.401C14.9688 179.381 15.7461 181.443 17.2196 182.795C17.5209 184.678 18.1539 186.499 19.7838 187.661C22.0684 189.29 24.7985 188.05 26.9481 186.792C27.4634 188.102 28.0362 189.399 28.9236 190.505C29.8077 191.607 31.0096 192.404 32.3659 192.809C35.0512 193.61 37.9738 192.762 39.743 190.583C40.3064 189.889 40.7322 189.103 41.0053 188.267C41.807 187.863 42.513 187.266 43.0709 186.543C44.2159 185.059 44.6294 183.19 44.6046 181.345C44.5775 179.348 44.1131 177.345 43.5237 175.445C42.9553 173.61 42.2039 171.827 41.2895 170.135Z" fill="#2A2D3D"/>
<path d="M40.9281 187.989C39.1533 186.079 38.1852 183.564 37.7435 181.029C37.289 178.419 37.3769 175.682 37.9972 173.106C38.3245 171.747 38.8072 170.424 39.5044 169.208C39.7079 168.852 39.1572 168.532 38.9537 168.887C37.629 171.199 37.0114 173.883 36.861 176.524C36.7046 179.28 37.0656 182.131 38.1255 184.693C38.6939 186.066 39.4618 187.345 40.4769 188.438C40.7567 188.738 41.2067 188.288 40.9281 187.989Z" fill="#8588AB"/>
<path d="M27.1789 186.927C26.7737 183.776 27.1723 180.557 28.3505 177.603C29.4961 174.732 31.4201 172.243 33.771 170.243C35.0631 169.143 36.4901 168.202 38.0232 167.47C38.3931 167.294 38.0702 166.746 37.7015 166.922C31.973 169.654 27.6688 175.112 26.6426 181.376C26.3419 183.213 26.3037 185.08 26.5414 186.927C26.5929 187.327 27.2314 187.332 27.1789 186.927Z" fill="#8588AB"/>
<path d="M17.7558 182.583C19.708 177.356 23.445 172.831 27.7498 169.331C28.9628 168.345 30.2411 167.441 31.5752 166.626C31.9246 166.412 31.6045 165.862 31.2534 166.077C26.3659 169.065 22.0766 173.263 19.1629 178.196C18.3684 179.542 17.6872 180.951 17.1404 182.415C16.9978 182.798 17.6137 182.964 17.7558 182.583Z" fill="#8588AB"/>
<path d="M49.3641 147.479C49.3596 147.478 49.3563 147.477 49.3525 147.476C47.7601 146.599 45.8372 145.976 44.0641 145.655C40.5455 145.019 36.9872 145.036 33.8164 146.871C30.9872 148.508 28.8946 151.273 28.0409 154.38C27.1436 157.647 27.4311 161.163 28.4567 164.392C28.4567 164.392 37.4942 166.438 38.925 166.096C41.7973 165.411 41.7177 163.833 41.7177 163.833C41.7177 163.833 46.1551 161.633 48.3976 159.581C50.3725 157.775 51.7747 155.59 52.4702 153.718C54.214 154.453 56.4852 156.815 57.0365 158.384C57.0365 158.384 57.9399 149.672 49.3641 147.479Z" fill="#2A2D3D"/>
<path d="M28.011 158.515C33.1125 157.19 37.6533 154.027 40.7318 149.774C41.617 148.551 42.3711 147.24 42.9848 145.863C43.1496 145.493 42.6006 145.169 42.4342 145.543C40.3426 150.239 36.5702 154.103 31.9514 156.38C30.6378 157.027 29.26 157.535 27.8418 157.903C27.4449 158.006 27.6129 158.619 28.011 158.515Z" fill="#8588AB"/>
<path d="M29.7905 165.022C33.3113 164.41 36.6291 162.828 39.5257 160.772C42.4859 158.67 45.0999 156.036 47.0704 152.988C48.0955 151.402 48.9364 149.693 49.4987 147.89C49.6203 147.498 49.005 147.331 48.8839 147.721C47.8798 150.943 45.9635 153.842 43.674 156.303C41.2419 158.916 38.3237 161.114 35.0888 162.646C33.3527 163.468 31.5166 164.08 29.6219 164.41C29.2172 164.48 29.3885 165.092 29.7905 165.022Z" fill="#8588AB"/>
<path d="M28.1648 164.044C29.777 165.479 31.4628 166.82 33.6268 167.287C35.9649 167.791 38.3717 167.36 40.6855 166.931C41.0885 166.857 40.9177 166.245 40.5158 166.319C38.3208 166.725 36.0158 167.153 33.796 166.675C31.737 166.23 30.1491 164.961 28.6154 163.596C28.3102 163.323 27.858 163.771 28.1648 164.044Z" fill="#8588AB"/>
<path d="M51.4385 161.309C51.1686 162.964 49.5194 162.004 47.6927 162.768C46.0135 163.471 44.795 163.479 44.6247 162.568C44.419 161.467 45.877 159.936 48.3959 159.58C50.7551 159.247 51.6358 160.102 51.4385 161.309Z" fill="#2A2D3D"/>
<path d="M52.9862 161.397C53.2616 163.052 54.9086 162.085 56.7376 162.841C57.1268 163.004 57.4889 163.123 57.8174 163.199C58.3946 162.198 58.3382 161.126 57.4242 159.998C57.0035 159.843 56.533 159.721 56.0194 159.652C53.6585 159.33 52.7795 160.191 52.9862 161.397Z" fill="#2A2D3D"/>
<path d="M55.3939 163.552C56.7053 163.332 56.8662 165.237 56.7634 166.033C56.6965 166.55 56.4797 167.184 55.8848 167.275C55.0168 167.407 54.7553 166.247 54.6773 165.615C54.59 164.911 54.5347 163.695 55.3939 163.552Z" fill="#2A2D3D"/>
<path d="M42.0458 172.342C44.4086 172.342 46.324 170.434 46.324 168.081C46.324 165.728 44.4086 163.82 42.0458 163.82C39.683 163.82 37.7676 165.728 37.7676 168.081C37.7676 170.434 39.683 172.342 42.0458 172.342Z" fill="#DF785E"/>
<path d="M41.0078 169.52C40.403 168.997 40.1155 168.154 40.3394 167.377C40.5578 166.619 41.2262 166.063 41.9947 165.92C42.3978 165.846 42.2269 165.234 41.825 165.308C40.8431 165.49 39.9999 166.251 39.7246 167.208C39.4426 168.188 39.787 169.303 40.5572 169.969C40.8657 170.236 41.3185 169.789 41.0078 169.52Z" fill="#2A2D3D"/>
<path d="M47.8539 182.997C45.4151 182.608 43.2041 181.319 41.6699 179.392C41.415 179.072 40.9666 179.524 41.2193 179.841C42.8116 181.841 45.1541 183.206 47.6847 183.609C48.0861 183.673 48.2586 183.061 47.8539 182.997Z" fill="#2A2D3D"/>
<path d="M48.5948 163.552C49.9062 163.332 50.0671 165.237 49.9643 166.033C49.8974 166.55 49.6807 167.184 49.0858 167.275C48.2177 167.407 47.9562 166.247 47.8783 165.615C47.7915 164.911 47.7356 163.695 48.5948 163.552Z" fill="#2A2D3D"/>
<path d="M199.225 224.884C197.404 224.051 195.153 225.227 193.488 225.92C190.051 227.349 186.851 229.464 183.648 231.354C184.712 230.432 194.656 221.279 195.846 219.763C196.786 218.568 197.925 216.846 197.393 215.246C196.849 213.607 194.829 213.3 193.409 213.677C191.568 214.166 190.149 215.088 188.437 216.411C186.84 217.645 178.739 223.941 176.359 225.944C178.423 223.881 186.915 214.983 188.609 212.442C189.352 211.327 190.017 209.694 189.53 208.331C189.227 207.485 188.463 206.71 187.596 206.494C185.445 205.961 183.328 207.263 181.627 208.388C179.126 210.042 176.665 211.755 174.229 213.503C171.598 215.391 168.701 217.554 166.112 219.499C166.439 217.733 166.809 215.994 167.055 214.374C167.338 212.504 167.892 210.029 167.104 208.226C166.533 206.92 164.766 206.128 163.329 206.728C162.575 207.044 161.967 207.608 160.905 209.443C160.369 210.367 149.952 230.79 149.952 230.79C145.636 233.934 145.42 234.399 141.188 237.229C145.914 247.55 152.11 255.573 158.271 260.724C167.14 254.289 192.422 235.957 194.564 234.417C196.406 233.092 198.685 231.627 200.017 229.766C201.046 228.326 201.276 225.822 199.225 224.884Z" fill="#DF785E"/>
<path d="M141.186 237.229C141.186 237.229 117.776 251.763 107.721 253.018C94.7196 254.642 87.7433 249.607 79.7337 240.775C70.8062 230.93 58.5863 203.977 58.5863 203.977L20.6406 233.894C20.6406 233.894 31.6939 255.63 46.5317 270.166C65.4604 288.711 73.3921 293.04 86.4291 294.734C101.201 296.653 123.527 290.596 142.835 276.658C146.463 274.039 146.615 270.337 146.615 270.337L158.269 260.724L141.186 237.229Z" fill="#587EDF"/>
<path d="M129.54 244.577C133.772 251.377 138.098 258.12 142.525 264.796C143.788 266.702 145.06 268.602 146.34 270.497C146.568 270.834 147.12 270.516 146.89 270.176C142.407 263.538 138.023 256.831 133.737 250.064C132.514 248.133 131.298 246.197 130.09 244.256C129.875 243.91 129.323 244.228 129.54 244.577Z" fill="#2A2D3D"/>
<path d="M26.984 235.676C29.4853 241.747 32.3028 247.695 35.5084 253.43C39.001 259.678 42.9585 265.706 47.6127 271.162C50.1527 274.139 52.91 276.939 55.9353 279.43C56.2494 279.689 56.7033 279.242 56.3865 278.981C50.9605 274.514 46.392 269.079 42.4023 263.325C38.4122 257.57 34.9693 251.444 31.9158 245.15C30.3782 241.981 28.9407 238.764 27.5988 235.508C27.4457 235.135 26.8281 235.298 26.984 235.676Z" fill="#2A2D3D"/>
<path d="M56.0352 201.261C58.5115 205.853 60.9763 210.451 63.4648 215.037C65.8616 219.453 68.2639 223.869 70.7618 228.229C73.2929 232.646 76.0131 236.986 79.3316 240.865C81.9412 243.917 84.9268 246.742 88.3198 248.917C91.9324 251.232 96.0122 252.696 100.247 253.374C100.847 253.47 101.45 253.551 102.054 253.621C102.461 253.668 102.458 253.032 102.054 252.986C97.6929 252.481 93.4434 251.214 89.6495 248.987C86.2985 247.021 83.3643 244.392 80.7624 241.528C77.35 237.774 74.5718 233.502 72.0219 229.135C69.5123 224.839 67.1399 220.459 64.7614 216.09C62.3535 211.666 59.9734 207.229 57.5849 202.795C57.2515 202.177 56.9187 201.559 56.5853 200.94C56.3912 200.58 55.8405 200.9 56.0352 201.261Z" fill="#2A2D3D"/>
<path d="M29.0152 186.698C29.2204 188.188 30.1757 189.458 31.2837 190.428C32.63 191.607 34.2417 192.456 35.9003 193.11C37.6596 193.803 39.5134 194.268 41.3932 194.481C42.9563 194.657 44.6216 194.679 46.1409 194.217C47.4297 193.825 48.6322 192.972 48.8312 191.558C48.8876 191.158 48.2728 190.985 48.2164 191.389C47.8349 194.106 43.868 194.069 41.8427 193.89C40.0929 193.736 38.3596 193.326 36.7081 192.737C35.1086 192.165 33.5362 191.402 32.1921 190.357C30.9581 189.397 29.8501 188.123 29.6306 186.528C29.5748 186.126 28.9599 186.297 29.0152 186.698Z" fill="#2A2D3D"/>
<path d="M52.5623 170.756C53.8505 170.989 54.7788 169.837 54.7877 168.639C54.7987 167.23 53.8201 165.975 53.1262 164.821C52.9156 164.471 52.3638 164.789 52.5755 165.141C52.873 165.637 53.1771 166.129 53.4668 166.629C53.7488 167.115 54.0103 167.622 54.1115 168.18C54.1988 168.66 54.1563 169.203 53.871 169.613C53.6233 169.969 53.1732 170.224 52.7315 170.144C52.3306 170.07 52.1587 170.682 52.5623 170.756Z" fill="#2A2D3D"/>
<path d="M172.441 229.753C174.513 228.102 176.573 226.428 178.477 224.584C178.772 224.298 178.32 223.849 178.026 224.134C176.122 225.978 174.063 227.652 171.99 229.304C171.67 229.559 172.124 230.006 172.441 229.753Z" fill="#2A2D3D"/>
<path d="M177.981 237.012C180.626 234.642 183.27 232.272 185.915 229.902C186.22 229.629 185.768 229.18 185.463 229.453C182.819 231.823 180.174 234.192 177.529 236.562C177.224 236.837 177.676 237.284 177.981 237.012Z" fill="#2A2D3D"/>
</g>
<g clip-path="url(#clip3_1566_393)">
<path d="M128.996 102.711C127.511 101.631 125.578 102.759 124.271 103.601C122.121 104.984 113.371 110.835 112.67 111.925C111.21 114.192 112.202 126.265 116.091 125.201C116.498 125.09 116.786 124.721 117.06 124.421C117.433 124.012 117.804 123.6 118.17 123.185C119.618 121.547 121.014 119.862 122.357 118.134C123.684 116.427 124.962 114.678 126.184 112.891C127.366 111.16 128.695 109.385 129.503 107.432C130.105 105.975 130.471 103.783 128.996 102.711Z" fill="#DF785E"/>
</g>
<path d="M48.2027 112.888C49.9709 106.594 56.5062 102.926 62.7998 104.694C69.0934 106.462 72.7619 112.997 70.9938 119.291" stroke="#FFD047" stroke-width="10"/>
<path d="M440 46V89" stroke="#020A13" stroke-width="4" stroke-linecap="round"/>
<path d="M488.049 42.8027L455.78 92.1961" stroke="#020A13" stroke-width="4" stroke-linecap="round"/>
<path d="M465 105L500 92.1963" stroke="#020A13" stroke-width="4" stroke-linecap="round"/>
<path d="M152 421C155.296 417.578 159.896 413.209 162 409" stroke="black" stroke-width="3" stroke-linecap="round"/>
<path d="M164 430C169.309 426.777 176.052 425.299 181 422" stroke="black" stroke-width="3" stroke-linecap="round"/>
<path d="M94 433H93" stroke="black" stroke-width="3" stroke-linecap="round"/>
<path d="M92 452C88.6596 453.943 78.8289 457.342 77 461" stroke="black" stroke-width="3" stroke-linecap="round"/>
<path d="M99 466C98.3005 467.865 97.6304 468.913 96 470" stroke="black" stroke-width="3" stroke-linecap="round"/>
<defs>
<linearGradient id="paint0_linear_1566_393" x1="184" y1="446" x2="130" y2="33" gradientUnits="userSpaceOnUse">
<stop stop-color="#00F5D4"/>
<stop offset="1" stop-color="#00F5D4" stop-opacity="0"/>
</linearGradient>
<linearGradient id="paint1_linear_1566_393" x1="70.7852" y1="137.938" x2="70.7852" y2="336.938" gradientUnits="userSpaceOnUse">
<stop stop-color="#16DB93"/>
<stop offset="1" stop-color="#FDFFB6" stop-opacity="0"/>
</linearGradient>
<clipPath id="clip0_1566_393">
<rect width="18" height="18" fill="white" transform="translate(100.785 306)"/>
</clipPath>
<clipPath id="clip1_1566_393">
<rect width="18" height="18" fill="white" transform="matrix(1 0 0 -1 398.383 325)"/>
</clipPath>
<clipPath id="clip2_1566_393">
<rect width="200" height="184" fill="white" transform="translate(0.785156 111.08)"/>
</clipPath>
<clipPath id="clip3_1566_393">
<rect width="18" height="23" fill="white" transform="translate(112.029 102.268)"/>
</clipPath>
</defs>
</svg>
