<svg width="548" height="423" viewBox="0 0 548 423" fill="none" xmlns="http://www.w3.org/2000/svg">
<rect x="72.0781" y="7.98828" width="198" height="63" rx="9" fill="#020A13" stroke="#020A13" stroke-width="2"/>
<rect x="292.078" y="7.98828" width="198" height="63" rx="9" fill="#020A13" stroke="#020A13" stroke-width="2"/>
<rect x="66.0781" y="1.98828" width="198" height="63" rx="9" fill="white" stroke="#020A13" stroke-width="2"/>
<rect x="286.078" y="1.98828" width="198" height="63" rx="9" fill="white" stroke="#020A13" stroke-width="2"/>
<path d="M228.703 36.0274C232.134 35.9968 235.068 36.5146 235.088 38.6913C235.107 40.867 232.201 41.4568 228.752 41.4876C225.321 41.5182 222.386 41.0004 222.367 38.8246C222.347 36.6479 225.253 36.0582 228.703 36.0274ZM234.177 34.6678C235.488 34.6317 236.9 34.7993 237.423 34.9225C238.528 35.1297 239.259 35.5663 239.565 36.2075C239.824 36.7339 239.83 37.3471 239.58 37.8771C239.129 38.88 237.648 39.2138 237.072 39.3018C236.953 39.3209 236.856 39.2182 236.868 39.0983C237.138 36.3282 234.783 35.037 234.174 34.7407C234.148 34.7275 234.142 34.7068 234.145 34.6942C234.147 34.6851 234.157 34.6706 234.177 34.6678ZM223.061 34.7651L223.308 34.7651C223.328 34.7677 223.338 34.782 223.339 34.7901C223.342 34.8036 223.337 34.8234 223.312 34.838C222.708 35.1452 220.376 36.4782 220.696 39.2421C220.709 39.3627 220.615 39.4662 220.496 39.4502C219.919 39.3725 218.432 39.0651 217.963 38.0705C217.703 37.5441 217.698 36.9317 217.948 36.4008C218.243 35.7542 218.964 35.3047 220.067 35.0769C220.587 34.9452 221.995 34.7525 223.308 34.7651L223.061 34.7651ZM228.609 25.4882C230.945 25.4674 232.835 27.3328 232.856 29.6833C232.877 32.0329 231.02 33.9336 228.684 33.9545C226.348 33.9753 224.458 32.1081 224.437 29.7585C224.416 27.408 226.273 25.5091 228.609 25.4882ZM234.329 26.1431C236.586 26.1229 238.377 28.2424 237.794 30.6262C237.401 32.231 235.936 33.3077 234.293 33.2792C234.128 33.2762 233.966 33.2623 233.809 33.2367C233.695 33.2179 233.636 33.0896 233.7 32.9936C234.318 32.0604 234.666 30.9414 234.655 29.7436C234.644 28.4936 234.243 27.3318 233.557 26.3823C233.535 26.3528 233.518 26.307 233.54 26.2726C233.557 26.2445 233.59 26.2298 233.622 26.2223C233.85 26.1735 234.084 26.1453 234.329 26.1431ZM223.002 26.2441C223.248 26.2419 223.482 26.2659 223.712 26.3107C223.742 26.3176 223.777 26.3326 223.795 26.3595C223.816 26.3935 223.801 26.4396 223.78 26.4695C223.11 27.4311 222.73 28.5999 222.742 29.8499C222.752 31.0476 223.119 32.1603 223.754 33.0823C223.82 33.1771 223.764 33.3064 223.65 33.3273C223.493 33.3566 223.332 33.3724 223.167 33.3784C221.524 33.4363 220.04 32.3859 219.619 30.7883C218.993 28.4153 220.746 26.2642 223.002 26.2441Z" fill="#020A13"/>
<path d="M91.7346 19.2941L85.6299 19.3486L85.6377 20.2286L88.2556 20.2052L88.3175 27.1349L89.1974 27.1271L89.1356 20.1973L91.7425 20.1741L91.7346 19.2941ZM96.7299 24.4087C96.7159 22.8358 95.572 21.6139 94.065 21.6274C92.5581 21.6408 91.4362 22.8939 91.4502 24.4558C91.4639 25.9958 92.6411 27.2503 94.1151 27.2372C95.633 27.2236 96.7441 25.9927 96.7299 24.4087ZM95.861 24.4165C95.8712 25.5604 95.1856 26.3916 94.1076 26.4012C93.0517 26.4106 92.3178 25.5371 92.3081 24.4482C92.2982 23.3372 93.0056 22.4839 94.0726 22.4744C95.1395 22.4648 95.8509 23.2835 95.861 24.4165ZM100.285 22.5179L100.278 21.7479L99.1557 21.758L99.1408 20.086L98.2608 20.0939L98.2757 21.7658L97.3188 21.7744L97.3256 22.5443L98.2826 22.5358L98.3115 25.7697C98.319 26.6166 98.6638 27.0426 99.3898 27.0361L100.325 27.0277L100.318 26.2138L99.6684 26.2086C99.3714 26.2112 99.1945 26.1028 99.1902 25.6298L99.1626 22.5279L100.285 22.5179ZM103.784 21.5516C102.816 21.5603 102.016 21.9304 101.518 22.8589L102.203 23.2158C102.561 22.5966 103.065 22.3501 103.769 22.3548C104.407 22.3601 104.926 22.6415 104.987 23.312C104.99 23.587 104.826 23.6984 104.584 23.7006L103.572 23.7096C102.868 23.7159 102.418 23.8189 102.079 24.075C101.62 24.4091 101.372 24.9283 101.399 25.4781C101.419 26.501 102.261 27.1645 103.383 27.1544C104.043 27.1486 104.634 26.8573 105.015 26.3698L105.02 27.0078C105.295 27.0054 105.647 27.0022 105.889 27.0001L105.858 23.4582C105.847 22.2483 104.939 21.5413 103.784 21.5516ZM103.365 26.3846C102.782 26.3788 102.229 26.0867 102.212 25.4708C102.174 24.8111 102.709 24.4433 103.589 24.4355C104.018 24.4317 104.612 24.4264 104.997 24.4009L105 24.6979C104.976 25.7652 104.344 26.3868 103.365 26.3846ZM109.362 26.9471L109.355 26.1331L108.717 26.1278C108.42 26.1304 108.243 26.022 108.238 25.549L108.17 19.1474L107.29 19.1552L107.349 25.689C107.356 26.536 107.701 26.9619 108.438 26.9553L109.362 26.9471ZM117.891 24.2528C117.891 24.2528 117.885 23.5599 117.66 23.0228C117.277 22.0472 116.336 21.4286 115.259 21.4382C113.818 21.4511 112.63 22.7267 112.644 24.2667C112.657 25.8066 113.868 27.0499 115.308 27.037C116.375 27.0275 117.272 26.4254 117.627 25.5422L116.855 25.2521C116.618 25.8263 116.038 26.1944 115.301 26.201C114.421 26.2089 113.689 25.5444 113.516 24.6439L117.883 24.6049L117.891 24.2528ZM113.499 23.94C113.622 22.9929 114.364 22.2712 115.266 22.2632C115.937 22.2572 116.501 22.5932 116.77 23.1298C116.926 23.3594 117.028 23.6995 117.052 23.9083L113.499 23.94ZM121.768 21.3801C121.031 21.3867 120.385 21.7335 119.972 22.3422L119.965 21.5722L119.118 21.5798L119.154 26.8597L120.012 26.852L119.988 24.0801C120.021 22.9028 120.763 22.1701 121.742 22.1944C122.545 22.2092 123.22 22.6652 123.232 23.9631L123.257 26.823L124.115 26.8154L124.089 23.9225C124.072 22.0086 122.956 21.3695 121.768 21.3801ZM126.513 22.2178L126.507 21.5138L125.649 21.5215L125.707 26.8012L126.565 26.7935L126.539 23.8566C126.563 22.8444 127.294 22.1778 128.307 22.3118L128.3 21.4978C127.442 21.4725 126.85 21.7418 126.513 22.2178ZM134.24 24.0739C134.226 22.501 133.082 21.2791 131.575 21.2926C130.068 21.306 128.946 22.5591 128.96 24.121C128.974 25.661 130.151 26.9155 131.625 26.9023C133.143 26.8888 134.254 25.6578 134.24 24.0739ZM133.371 24.0816C133.381 25.2256 132.696 26.0568 131.618 26.0664C130.562 26.0758 129.828 25.2023 129.818 24.1134C129.808 23.0024 130.516 22.1491 131.583 22.1395C132.65 22.13 133.361 22.9487 133.371 24.0816ZM137.516 26.6958L137.509 25.8818L136.871 25.8765C136.574 25.8791 136.397 25.7707 136.392 25.2977L136.324 18.8961L135.444 18.9039L135.503 25.4377C135.51 26.2846 135.855 26.7106 136.592 26.704L137.516 26.6958ZM140.824 26.6662L140.817 25.8523L140.179 25.847C139.882 25.8496 139.705 25.7412 139.701 25.2682L139.633 18.8666L138.753 18.8744L138.811 25.4081C138.819 26.2551 139.164 26.6811 139.901 26.6745L140.824 26.6662ZM146.936 23.9936C146.936 23.9936 146.93 23.3006 146.705 22.7636C146.323 21.788 145.382 21.1693 144.304 21.1789C142.863 21.1918 141.676 22.4675 141.689 24.0074C141.703 25.5473 142.913 26.7906 144.354 26.7777C145.421 26.7682 146.318 26.1662 146.673 25.283L145.9 24.9929C145.663 25.567 145.084 25.9352 144.347 25.9418C143.467 25.9496 142.735 25.2851 142.562 24.3846L146.929 24.3456L146.936 23.9936ZM142.544 23.6808C142.668 22.7336 143.41 22.012 144.312 22.0039C144.983 21.9979 145.547 22.3339 145.815 22.8705C145.971 23.1001 146.073 23.4402 146.097 23.649L142.544 23.6808ZM152.057 18.7556L152.085 21.9125C151.63 21.3776 150.956 21.0976 150.241 21.126C149.054 21.1586 147.862 22.0272 147.757 23.8212C147.685 25.5819 148.796 26.7821 150.248 26.7801C151.007 26.7733 151.686 26.4373 152.12 25.8394L152.127 26.5653L153.018 26.5574L152.948 18.7477L152.057 18.7556ZM150.362 25.9761C149.35 25.9851 148.583 25.1339 148.627 23.8795C148.692 22.5808 149.523 21.9464 150.347 21.917C151.282 21.8867 152.092 22.5945 152.082 23.9586C152.082 25.1797 151.341 25.9673 150.362 25.9761ZM161.714 22.6846C161.364 21.7197 160.412 21.0902 159.28 21.1003C157.806 21.1134 156.618 22.3781 156.631 23.907C156.645 25.436 157.855 26.6682 159.329 26.6551C160.407 26.6454 161.293 26.0655 161.648 25.1823L160.887 24.9031C160.682 25.4109 160.136 25.8448 159.322 25.8521C158.255 25.8616 157.51 24.9992 157.5 23.8993C157.491 22.8103 158.22 21.9128 159.287 21.9032C160.145 21.8956 160.699 22.3527 160.935 22.9666L161.714 22.6846ZM167.744 23.7748C167.73 22.2019 166.586 20.9801 165.079 20.9935C163.572 21.007 162.45 22.26 162.464 23.822C162.478 25.3619 163.655 26.6164 165.129 26.6033C166.647 26.5897 167.758 25.3588 167.744 23.7748ZM166.875 23.7826C166.885 24.9265 166.199 25.7577 165.121 25.7673C164.065 25.7767 163.332 24.9033 163.322 23.8143C163.312 22.7033 164.019 21.85 165.086 21.8405C166.153 21.8309 166.865 22.6496 166.875 23.7826ZM171.631 20.935C170.894 20.9416 170.248 21.2884 169.835 21.8971L169.828 21.1271L168.982 21.1347L169.018 26.4146L169.876 26.4069L169.851 23.635C169.884 22.4577 170.626 21.725 171.605 21.7493C172.408 21.7641 173.083 22.2201 173.095 23.5181L173.12 26.3779L173.978 26.3703L173.953 23.4774C173.936 21.5635 172.819 20.9244 171.631 20.935ZM177.625 21.8276L177.618 21.0576L176.496 21.0676L176.481 19.3957L175.601 19.4035L175.616 21.0755L174.659 21.084L174.666 21.854L175.623 21.8454L175.652 25.0793C175.66 25.9263 176.005 26.3522 176.73 26.3457L177.665 26.3374L177.658 25.5234L177.009 25.5182C176.712 25.5208 176.535 25.4124 176.531 24.9394L176.503 21.8376L177.625 21.8276ZM181.124 20.8613C180.156 20.8699 179.357 21.2401 178.859 22.1686L179.544 22.5255C179.902 21.9062 180.405 21.6597 181.109 21.6644C181.747 21.6698 182.267 21.9511 182.328 22.6216C182.33 22.8966 182.166 23.0081 181.924 23.0102L180.912 23.0193C180.209 23.0255 179.758 23.1286 179.42 23.3846C178.961 23.7187 178.712 24.2379 178.739 24.7877C178.759 25.8106 179.601 26.4741 180.723 26.4641C181.383 26.4582 181.975 26.1669 182.355 25.6795L182.361 26.3175C182.636 26.315 182.988 26.3119 183.23 26.3097L183.198 22.7678C183.188 21.5579 182.279 20.851 181.124 20.8613ZM180.705 25.6942C180.122 25.6884 179.57 25.3963 179.553 24.7805C179.514 24.1208 180.05 23.753 180.93 23.7451C181.359 23.7413 181.953 23.736 182.338 23.7106L182.34 24.0076C182.317 25.0748 181.684 25.6965 180.705 25.6942ZM189.342 22.438C188.992 21.4731 188.04 20.8435 186.907 20.8537C185.433 20.8668 184.246 22.1315 184.259 23.6604C184.273 25.1893 185.483 26.4216 186.957 26.4084C188.035 26.3988 188.921 25.8189 189.276 24.9357L188.514 24.6565C188.31 25.1643 187.764 25.5982 186.95 25.6055C185.883 25.615 185.138 24.7526 185.128 23.6527C185.119 22.5637 185.848 21.6662 186.914 21.6566C187.772 21.649 188.327 22.106 188.563 22.72L189.342 22.438ZM192.814 21.692L192.807 20.922L191.685 20.932L191.67 19.2601L190.79 19.2679L190.805 20.9399L189.848 20.9484L189.855 21.7184L190.812 21.7098L190.841 24.9437C190.849 25.7907 191.193 26.2166 191.919 26.2101L192.854 26.2018L192.847 25.3878L192.198 25.3826C191.901 25.3853 191.724 25.2768 191.72 24.8039L191.692 21.702L192.814 21.692ZM197.733 22.0331C197.517 21.232 196.731 20.711 195.709 20.7201C194.686 20.7292 193.878 21.4735 193.886 22.3754C193.893 23.1124 194.36 23.6583 195.131 23.8274C195.374 23.8802 195.704 23.9653 196.123 24.0385C196.652 24.1438 196.863 24.3839 196.867 24.7579C196.871 25.2419 196.478 25.5534 195.84 25.5591C195.125 25.5655 194.671 25.2615 194.568 24.8114L193.756 24.9837C193.95 25.84 194.747 26.3389 195.847 26.3291C196.936 26.3194 197.711 25.6634 197.702 24.7395C197.696 23.9805 197.284 23.4231 196.38 23.2332C196.094 23.1808 195.763 23.1067 195.366 23.0222C194.925 22.9272 194.714 22.6761 194.722 22.302C194.739 21.7958 195.187 21.4948 195.737 21.4899C196.287 21.474 196.785 21.7445 196.91 22.2274L197.733 22.0331Z" fill="#020A13"/>
<path d="M89.8785 37.6954L89.8809 37.9684C89.8859 38.5274 89.6528 38.6335 89.3799 38.6359L88.0929 38.6474L88.1082 40.3633L89.4732 40.3511C89.6292 40.3497 89.7719 40.3225 89.9016 40.2823L89.9626 47.12L91.6915 47.1046L91.6074 37.68L89.8785 37.6954ZM100.756 39.2624C100.045 38.2287 98.9085 37.6408 97.5044 37.6403C97.4914 37.6405 97.4914 37.6405 97.4784 37.6406L97.4524 37.6408C95.9446 37.6673 94.7678 38.3668 94.0764 39.556C93.6284 40.34 93.3901 41.3172 93.4003 42.4612C93.4094 43.4881 93.6256 44.3962 93.996 45.121C94.6839 46.4409 95.9258 47.2098 97.5378 47.2084C97.5508 47.2083 97.5508 47.2083 97.5638 47.2082L97.5898 47.208C99.0976 47.1815 100.275 46.495 100.953 45.3059C101.414 44.5347 101.652 43.5445 101.642 42.3876C101.631 41.1266 101.322 40.0634 100.756 39.2624ZM99.3198 44.3974C98.9227 45.064 98.3018 45.4075 97.5479 45.4273C96.7158 45.4217 96.0232 45.0119 95.626 44.2094C95.4009 43.7564 95.2656 43.1595 95.2592 42.4446C95.2513 41.5606 95.4403 40.8829 95.7479 40.3861C96.1584 39.7714 96.7666 39.454 97.4944 39.4345C98.2225 39.441 98.8494 39.7604 99.2579 40.3808C99.5743 40.872 99.7623 41.5333 99.77 42.4043C99.7776 43.2493 99.6145 43.9138 99.3198 44.3974ZM110.303 39.1772C109.591 38.1435 108.455 37.5556 107.051 37.5551C107.038 37.5552 107.038 37.5552 107.025 37.5554L106.999 37.5556C105.491 37.582 104.314 38.2816 103.623 39.4708C103.175 40.2548 102.937 41.232 102.947 42.3759C102.956 43.4029 103.172 44.311 103.543 45.0357C104.23 46.3556 105.472 47.1246 107.084 47.1232C107.097 47.1231 107.097 47.1231 107.11 47.123L107.136 47.1227C108.644 47.0963 109.821 46.4097 110.499 45.2206C110.961 44.4495 111.199 43.4593 111.188 42.3024C111.177 41.0414 110.869 39.9781 110.303 39.1772ZM108.866 44.3122C108.469 44.9788 107.848 45.3223 107.094 45.342C106.262 45.3365 105.57 44.9266 105.172 44.1242C104.947 43.6711 104.812 43.0743 104.806 42.3594C104.798 41.4754 104.987 40.7977 105.294 40.3009C105.705 39.6862 106.313 39.3688 107.041 39.3493C107.769 39.3558 108.396 39.6752 108.804 40.2956C109.121 40.7868 109.309 41.4481 109.317 42.3191C109.324 43.1641 109.161 43.8285 108.866 44.3122ZM119.849 39.0919C119.138 38.0583 118.001 37.4704 116.597 37.4699C116.584 37.47 116.584 37.47 116.571 37.4701L116.545 37.4704C115.038 37.4968 113.861 38.1964 113.169 39.3856C112.721 40.1696 112.483 41.1468 112.493 42.2907C112.502 43.3177 112.719 44.2258 113.089 44.9505C113.777 46.2704 115.019 47.0394 116.631 47.038C116.644 47.0379 116.644 47.0379 116.657 47.0378L116.683 47.0375C118.191 47.0111 119.368 46.3245 120.046 45.1354C120.507 44.3643 120.745 43.3741 120.735 42.2172C120.724 40.9562 120.415 39.8929 119.849 39.0919ZM118.413 44.227C118.016 44.8935 117.395 45.2371 116.641 45.2568C115.809 45.2513 115.116 44.8414 114.719 44.0389C114.494 43.5859 114.359 42.9891 114.352 42.2741C114.344 41.3902 114.533 40.7125 114.841 40.2157C115.251 39.601 115.86 39.2836 116.587 39.2641C117.316 39.2706 117.942 39.59 118.351 40.2104C118.667 40.7016 118.855 41.3629 118.863 42.2339C118.871 43.0788 118.707 43.7433 118.413 44.227Z" fill="#020A13"/>
<path d="M435.42 36.4127C439.46 36.428 442.868 37.0975 442.858 39.6308C442.848 42.1649 439.414 42.7852 435.395 42.7699C431.356 42.7546 427.947 42.085 427.957 39.5518C427.967 37.0177 431.401 36.3974 435.42 36.4127ZM435.466 24.1435C438.203 24.1539 440.388 26.3546 440.378 29.0899C440.367 31.8252 438.166 34.0102 435.429 33.9998C432.692 33.9894 430.507 31.7878 430.517 29.0525C430.527 26.3172 432.73 24.1331 435.466 24.1435Z" fill="#020A13"/>
<circle cx="440.459" cy="27.3642" r="2.44473" transform="rotate(0.217583 440.459 27.3642)" fill="#16DB93"/>
<path d="M316.437 37.6837C315.923 36.2127 314.783 35.1554 313.067 35.1489C311.364 35.1424 309.565 36.5006 309.505 38.6714C309.457 40.9072 311.246 42.162 312.91 42.1683C313.677 42.1712 314.419 41.914 314.941 41.357C314.823 41.6946 314.666 42.006 314.444 42.2781C313.673 43.2762 312.009 43.3609 311.116 42.3305L309.669 43.183C311.026 45.2942 314.302 45.3326 315.819 43.1804C316.838 41.6892 317.068 39.4931 316.437 37.6837ZM312.969 40.5435C312.085 40.5142 311.203 39.8998 311.195 38.7038C311.212 37.4168 312.229 36.8097 313.113 36.826C313.971 36.8423 314.826 37.4566 314.835 38.6786C314.817 39.9525 313.891 40.56 312.969 40.5435ZM318.266 42.0846C318.276 42.7737 318.559 43.4638 319.117 43.9729C319.648 44.4559 320.439 44.7839 321.466 44.7878C322.506 44.7918 323.288 44.4827 323.836 43.9908C324.383 43.4989 324.672 42.824 324.701 42.1481C324.73 41.3422 324.368 40.5738 323.617 40.038C323.487 39.9465 323.331 39.8549 323.176 39.7763C323.436 39.6343 323.658 39.4531 323.84 39.2588C324.232 38.8053 324.442 38.2471 324.444 37.6881C324.447 36.9471 324.099 36.2048 323.399 35.7341C322.932 35.4203 322.296 35.2229 321.503 35.2199C320.658 35.2167 319.994 35.4482 319.512 35.7973C318.886 36.263 318.571 36.9378 318.569 37.6268C318.553 38.1987 318.746 38.7714 319.148 39.241C319.329 39.4367 319.549 39.6195 319.809 39.7635C319.561 39.8796 319.339 40.0347 319.144 40.19C318.557 40.7077 318.268 41.3697 318.266 42.0846ZM320.037 37.8143C320.051 37.5544 320.182 37.2949 320.404 37.0877C320.651 36.8807 321.016 36.7391 321.497 36.7409C321.887 36.7424 322.199 36.8345 322.419 36.9784C322.743 37.1746 322.924 37.4873 322.949 37.7994C322.974 38.0985 322.869 38.4101 322.634 38.6432C322.386 38.8893 322.008 39.0568 321.488 39.0549C320.643 39.0517 320.008 38.5552 320.037 37.8143ZM319.827 41.8566C319.828 41.5316 319.933 41.259 320.181 41.0129C320.455 40.728 320.885 40.5346 321.483 40.5369C322.029 40.5389 322.431 40.7095 322.703 40.9575C322.975 41.1925 323.117 41.4661 323.142 41.7912C323.153 42.1552 323.009 42.5317 322.696 42.8035C322.422 43.0494 322.005 43.2169 321.472 43.2148C320.848 43.2125 320.394 42.9767 320.123 42.6637C319.928 42.429 319.825 42.1426 319.827 41.8566ZM333.463 36.9163C332.765 35.8737 331.636 35.2714 330.232 35.253C330.219 35.253 330.219 35.253 330.206 35.2529L330.18 35.2528C328.672 35.2601 327.487 35.9446 326.78 37.1249C326.322 37.9032 326.072 38.8773 326.067 40.0213C326.063 41.0483 326.268 41.959 326.629 42.6884C327.3 44.017 328.532 44.8017 330.144 44.8208C330.157 44.8208 330.157 44.8208 330.17 44.8209L330.196 44.821C331.704 44.8137 332.89 44.1422 333.583 42.9618C334.054 42.1966 334.305 41.2095 334.309 40.0526C334.314 38.7916 334.019 37.7244 333.463 36.9163ZM331.962 42.0327C331.556 42.6941 330.931 43.0298 330.177 43.0399C329.345 43.0237 328.658 42.6051 328.271 41.7976C328.051 41.3418 327.924 40.7433 327.926 40.0283C327.93 39.1443 328.127 38.4691 328.441 37.9763C328.859 37.3668 329.472 37.0572 330.2 37.0469C330.928 37.0627 331.55 37.3901 331.951 38.0156C332.261 38.5108 332.441 39.1745 332.437 40.0454C332.434 40.8904 332.263 41.5528 331.962 42.0327Z" fill="#020A13"/>
<path d="M315.801 28.111L316.881 28.1151L313.446 19.582L313.302 19.5815L312.282 19.5776L308.781 28.0844L309.861 28.0885L310.818 25.7041L314.85 25.7194L315.801 28.111ZM311.17 24.8534L312.854 20.6718L314.518 24.8661L311.17 24.8534ZM322.869 23.9978C322.501 22.9404 321.471 22.2405 320.235 22.2358C318.627 22.2297 317.314 23.5927 317.308 25.2607C317.301 26.9287 318.604 28.2897 320.212 28.2958C321.388 28.3002 322.363 27.6799 322.762 26.7214L321.936 26.4063C321.705 26.9574 321.104 27.4232 320.216 27.4198C319.052 27.4154 318.251 26.4643 318.256 25.2643C318.26 24.0763 319.068 23.1074 320.232 23.1118C321.168 23.1154 321.766 23.6216 322.016 24.2946L322.869 23.9978ZM326.667 23.2322L326.67 22.3923L325.446 22.3876L325.453 20.5636L324.493 20.56L324.486 22.384L323.442 22.38L323.439 23.22L324.483 23.224L324.469 26.7519C324.466 27.6759 324.836 28.1453 325.628 28.1483L326.648 28.1522L326.652 27.2642L325.944 27.2495C325.62 27.2483 325.428 27.1276 325.43 26.6116L325.443 23.2276L326.667 23.2322ZM328.656 21.1158C329.064 21.1173 329.413 20.7587 329.415 20.3507C329.416 19.9307 329.07 19.5693 328.662 19.5678C328.23 19.5662 327.88 19.9248 327.879 20.3448C327.877 20.7528 328.224 21.1141 328.656 21.1158ZM328.135 22.3978L328.113 28.1578L329.073 28.1614L329.095 22.4015L328.135 22.3978ZM334.917 22.4236L333.004 27.0603L331.174 22.4094L330.202 22.4057L332.544 28.1746L333.456 28.1781L335.889 22.4273L334.917 22.4236ZM342.004 25.3545C342.004 25.3545 342.007 24.5985 341.769 24.0096C341.365 22.9401 340.348 22.2522 339.172 22.2477C337.6 22.2418 336.287 23.6168 336.28 25.2968C336.274 26.9768 337.577 28.3497 339.149 28.3557C340.313 28.3601 341.299 27.7158 341.699 26.7574L340.86 26.4302C340.594 27.0532 339.956 27.4467 339.152 27.4437C338.192 27.44 337.403 26.705 337.227 25.7204L341.991 25.7385L342.004 25.3545ZM337.218 24.9523C337.366 23.9209 338.185 23.144 339.169 23.1477C339.901 23.1505 340.511 23.5248 340.797 24.1139C340.964 24.3665 341.071 24.739 341.094 24.967L337.218 24.9523ZM351.262 25.3897C351.262 25.3897 351.265 24.6337 351.027 24.0448C350.623 22.9752 349.606 22.2874 348.43 22.2829C346.858 22.2769 345.545 23.6519 345.538 25.3319C345.532 27.0119 346.835 28.3849 348.407 28.3908C349.571 28.3953 350.557 27.751 350.957 26.7925L350.118 26.4653C349.852 27.0883 349.214 27.4819 348.41 27.4788C347.45 27.4752 346.661 26.7402 346.485 25.7555L351.249 25.7736L351.262 25.3897ZM346.476 24.9875C346.623 23.956 347.442 23.1791 348.426 23.1829C349.158 23.1857 349.769 23.56 350.055 24.1491C350.222 24.4017 350.328 24.7741 350.352 25.0022L346.476 24.9875ZM355.531 22.3099C354.727 22.3068 354.017 22.6761 353.559 23.3344L353.562 22.4944L352.638 22.4909L352.604 28.2508L353.54 28.2543L353.552 25.2304C353.605 23.9465 354.424 23.1577 355.491 23.1977C356.367 23.225 357.097 23.7318 357.092 25.1478L357.08 28.2678L358.016 28.2713L358.028 25.1154C358.036 23.0274 356.827 22.3148 355.531 22.3099ZM360.696 23.2895L360.699 22.5215L359.763 22.5179L359.753 28.2779L360.689 28.2815L360.701 25.0775C360.741 23.9737 361.548 23.2567 362.651 23.4169L362.655 22.5289C361.719 22.4894 361.07 22.7749 360.696 23.2895ZM369.099 25.4214C369.105 23.7054 367.874 22.3567 366.23 22.3505C364.586 22.3442 363.345 23.6955 363.339 25.3995C363.332 27.0795 364.599 28.4643 366.207 28.4704C367.863 28.4767 369.092 27.1494 369.099 25.4214ZM368.151 25.4178C368.146 26.6658 367.387 27.5629 366.211 27.5584C365.059 27.5541 364.27 26.5911 364.275 25.4031C364.279 24.1911 365.063 23.2701 366.227 23.2745C367.391 23.2789 368.156 24.1818 368.151 25.4178ZM372.636 28.3269L372.639 27.4389L371.943 27.4242C371.619 27.423 371.428 27.3023 371.43 26.7863L371.444 19.8023L370.484 19.7986L370.457 26.9266C370.454 27.8506 370.824 28.32 371.628 28.323L372.636 28.3269ZM376.245 28.3406L376.249 27.4526L375.553 27.4379C375.229 27.4367 375.037 27.316 375.039 26.8L375.054 19.816L374.094 19.8123L374.066 26.9403C374.063 27.8643 374.433 28.3337 375.237 28.3367L376.245 28.3406ZM382.949 25.51C382.949 25.51 382.952 24.754 382.714 24.1651C382.31 23.0956 381.293 22.4077 380.117 22.4032C378.545 22.3972 377.232 23.7723 377.225 25.4523C377.219 27.1322 378.522 28.5052 380.094 28.5112C381.258 28.5156 382.244 27.8713 382.644 26.9128L381.805 26.5857C381.539 27.2087 380.901 27.6022 380.097 27.5992C379.137 27.5955 378.348 26.8605 378.172 25.8759L382.936 25.8939L382.949 25.51ZM378.163 25.1078C378.311 24.0764 379.13 23.2995 380.114 23.3032C380.846 23.306 381.456 23.6803 381.742 24.2694C381.909 24.522 382.016 24.8944 382.039 25.1225L378.163 25.1078ZM388.608 19.8674L388.595 23.3114C388.105 22.7216 387.374 22.4068 386.594 22.4278C385.298 22.4469 383.987 23.3779 383.847 25.3334C383.744 27.253 384.939 28.5776 386.523 28.5956C387.351 28.5987 388.096 28.2416 388.579 27.5954L388.576 28.3874L389.548 28.3911L389.58 19.8711L388.608 19.8674ZM386.658 27.7201C385.554 27.7159 384.73 26.7768 384.795 25.409C384.884 23.9933 385.799 23.3128 386.699 23.2922C387.719 23.2721 388.592 24.0554 388.562 25.5433C388.545 26.8753 387.726 27.7242 386.658 27.7201Z" fill="#020A13"/>
<path d="M21.4934 84.8777C26.4767 83.2291 30.2249 85.1248 31.8882 90.1032L36.4156 103.788C38.0637 108.77 36.1714 112.534 31.1882 114.182L17.5044 118.709C12.5212 120.358 8.75919 118.465 7.11109 113.483L2.58365 99.7979C0.935057 94.8147 2.82642 91.0532 7.80966 89.4046L21.4934 84.8777ZM17.3868 92.9499C16.8927 92.8371 16.3945 93.0019 16.0828 93.3813C15.7676 93.7603 15.7001 94.2882 15.8928 94.7284L20.8323 109.659C21.1155 110.264 21.7966 110.559 22.412 110.356C23.0435 110.147 23.4144 109.504 23.2646 108.854L18.3251 93.9237C18.2335 93.4501 17.8644 93.0667 17.3868 92.9499ZM12.1342 100.02C11.6562 99.9014 11.1565 100.067 10.8448 100.446C10.5301 100.827 10.4616 101.352 10.6563 101.793L14.0058 111.917C14.2714 112.529 14.954 112.823 15.584 112.615C16.2155 112.406 16.5864 111.763 16.4366 111.113L13.0871 100.989C12.9818 100.518 12.6107 100.138 12.1342 100.02ZM27.4603 100.85C26.9838 100.732 26.4856 100.896 26.1577 101.281C25.843 101.662 25.7697 102.172 25.9839 102.623L27.5738 107.429C27.8409 108.039 28.522 108.334 29.1535 108.125C29.7689 107.922 30.1398 107.279 30.0061 106.624L28.4162 101.818C28.303 101.334 27.9398 100.968 27.4603 100.85Z" fill="#007BFF"/>
<path fill-rule="evenodd" clip-rule="evenodd" d="M521.827 92.1883C521.932 92.2671 522.02 92.3658 522.087 92.4788C522.154 92.5918 522.198 92.7169 522.217 92.8469C522.235 92.9769 522.228 93.1093 522.195 93.2365C522.163 93.3637 522.105 93.4832 522.027 93.5883L516.027 101.588C515.873 101.793 515.647 101.931 515.395 101.974C515.143 102.017 514.884 101.962 514.672 101.82L509.459 98.3453L504.027 105.588C503.948 105.693 503.849 105.782 503.736 105.849C503.623 105.916 503.498 105.96 503.368 105.978C503.238 105.997 503.106 105.99 502.978 105.957C502.851 105.924 502.732 105.867 502.627 105.788C502.522 105.709 502.433 105.611 502.366 105.498C502.299 105.385 502.255 105.26 502.237 105.13C502.218 105 502.225 104.867 502.258 104.74C502.29 104.613 502.348 104.493 502.427 104.388L508.427 96.3883C508.58 96.1837 508.806 96.0457 509.058 96.0025C509.31 95.9594 509.569 96.0144 509.782 96.1563L514.995 99.6313L520.427 92.3883C520.586 92.1761 520.823 92.0358 521.085 91.9983C521.348 91.9608 521.614 92.0292 521.827 92.1883V92.1883Z" fill="#00C6FC"/>
<path d="M527.141 348.833C527.884 349.329 528.207 350.258 527.928 351.093C527.895 351.262 527.842 351.427 527.768 351.582C525.317 354.44 522.922 357.263 520.516 360.075C520.243 360.346 520.02 360.661 519.854 361.008C519.561 361.725 519.762 362.556 520.352 363.075L529.418 370.861L529.454 370.941L529.598 371.104C529.868 371.445 530.018 371.867 530.02 372.301C530.022 372.808 529.823 373.292 529.466 373.646C524.345 378.216 516.755 378.801 510.837 375.082C504.92 371.363 502.094 364.231 503.903 357.579C504.409 355.649 505.298 353.846 506.517 352.278C506.864 351.798 507.25 351.349 507.671 350.934C512.775 345.741 520.875 344.867 527.141 348.833ZM535.917 349.995C541.604 355.893 542.347 364.928 537.682 371.479C537.655 371.519 537.621 371.553 537.582 371.582L537.424 371.741C537.198 371.934 536.913 372.051 536.61 372.072C536.23 372.099 535.854 371.973 535.562 371.723L525.085 362.758L524.92 362.603C524.664 362.327 524.508 361.971 524.484 361.594C524.455 361.142 524.618 360.703 524.932 360.383L533.714 350.069L533.869 349.909C534.147 349.649 534.519 349.512 534.903 349.528C535.287 349.544 535.652 349.712 535.917 349.995Z" fill="#16DB93"/>
<rect x="66.0781" y="109" width="429.812" height="312.004" rx="19" fill="#020A13" stroke="#020A13" stroke-width="2"/>
<rect x="56.3906" y="99.9883" width="429.812" height="312.004" rx="19" fill="white" stroke="#020A13" stroke-width="2"/>
<path d="M132.027 280.405C139.447 289.851 160.118 308.921 183.446 309.64C212.606 310.539 235.853 247.961 271.019 247.153C306.185 246.345 322.408 297.829 361.862 297.885C397.027 297.935 450.346 197.661 481.226 195.132" stroke="#007BFF" stroke-width="2"/>
<circle cx="485.089" cy="193.851" r="7.29032" transform="rotate(0.0813137 485.089 193.851)" fill="#007BFF"/>
<circle cx="268.014" cy="248.418" r="7.29032" transform="rotate(0.0813137 268.014 248.418)" fill="#007BFF"/>
<circle cx="132.026" cy="281.123" r="7.29032" transform="rotate(0.0813137 132.026 281.123)" fill="#007BFF"/>
<path d="M131.972 319L274.347 319.202L324.593 269.099L369.558 314.191C400.764 283.645 470.208 222.562 498.341 222.602" stroke="#16DB93" stroke-width="2"/>
<circle cx="130.257" cy="318.578" r="7.29032" transform="rotate(0.0813137 130.257 318.578)" fill="#16DB93"/>
<circle cx="324.596" cy="267.244" r="7.29032" transform="rotate(0.0813137 324.596 267.244)" fill="#16DB93"/>
<circle cx="499.628" cy="222.748" r="7.29032" transform="rotate(0.0813137 499.628 222.748)" fill="#16DB93"/>
<path d="M127.628 359.306L340.334 359.608L354.506 345.476L368.638 359.648L468.129 359.789" stroke="#FE581E" stroke-width="2"/>
<circle cx="130.202" cy="358.666" r="7.29032" transform="rotate(0.0813137 130.202 358.666)" fill="#FE581E"/>
<circle cx="354.932" cy="345.264" r="7.29032" transform="rotate(0.0813137 354.932 345.264)" fill="#FE581E"/>
<circle cx="468.128" cy="360.004" r="7.29032" transform="rotate(0.0813137 468.128 360.004)" fill="#FE581E"/>
<path d="M93.5778 177.429C91.7797 235.749 89.208 355.65 93.3064 368.693" stroke="#576E87" stroke-opacity="0.5" stroke-dasharray="4 4"/>
<path d="M92.4453 369.549L409.788 369.999" stroke="#576E87" stroke-opacity="0.5" stroke-dasharray="4 4"/>
<path d="M91.6949 380.239L91.6905 383.311C91.6896 384.001 91.0894 384.108 90.9334 384.102C90.7894 384.108 90.2015 384.029 90.2025 383.321L90.2027 383.183L89.7227 383.182L89.7225 383.32C89.7215 384.058 90.1588 384.569 90.9327 384.576C91.6707 384.583 92.1635 384.068 92.1645 383.33L92.1689 380.24L91.6949 380.239ZM94.2188 381.533C93.6908 381.532 93.2525 381.729 92.9758 382.233L93.3475 382.431C93.546 382.096 93.8222 381.964 94.2062 381.971C94.5542 381.977 94.8359 382.134 94.8654 382.5C94.8652 382.65 94.7751 382.709 94.6431 382.709L94.0911 382.708C93.7071 382.708 93.461 382.762 93.2748 382.899C93.0226 383.079 92.8842 383.361 92.8958 383.661C92.901 384.219 93.3565 384.585 93.9685 384.586C94.3285 384.587 94.6527 384.431 94.8631 384.168L94.8626 384.516C95.0126 384.516 95.2046 384.516 95.3366 384.516L95.3393 382.584C95.3402 381.924 94.8488 381.534 94.2188 381.533ZM93.9631 384.166C93.6451 384.16 93.3453 383.997 93.3398 383.661C93.3223 383.301 93.6166 383.104 94.0966 383.104C94.3306 383.105 94.6546 383.105 94.8646 383.094L94.8643 383.256C94.8455 383.838 94.497 384.173 93.9631 384.166ZM97.5951 381.531C97.1931 381.531 96.8388 381.716 96.6104 382.046L96.611 381.626L96.149 381.625L96.1389 384.505L96.6069 384.506L96.609 382.994C96.6339 382.352 97.0425 381.957 97.5765 381.975C98.0145 381.988 98.3801 382.241 98.3791 382.949L98.3769 384.509L98.8449 384.509L98.8471 382.931C98.8486 381.887 98.2431 381.532 97.5951 381.531Z" fill="#22364C"/>
<path d="M171.259 380.72L171.259 380.24L169.165 380.238L168.685 380.237L168.679 384.497L169.159 384.498L169.162 382.662L170.926 382.664L170.933 382.196L169.163 382.194L169.165 380.712L171.259 380.72ZM174.32 383.077C174.32 383.077 174.32 382.699 174.201 382.405C173.998 381.87 173.488 381.528 172.9 381.527C172.114 381.526 171.459 382.215 171.458 383.055C171.457 383.895 172.11 384.58 172.896 384.581C173.478 384.582 173.97 384.258 174.169 383.779L173.749 383.616C173.617 383.928 173.298 384.125 172.896 384.125C172.416 384.124 172.021 383.758 171.932 383.265L174.314 383.269L174.32 383.077ZM171.926 382.881C171.999 382.366 172.407 381.976 172.899 381.977C173.265 381.977 173.571 382.164 173.715 382.458C173.799 382.584 173.852 382.77 173.864 382.884L171.926 382.881ZM176.511 381.532C176.097 381.525 175.724 381.705 175.484 382.034L175.486 380.246L175 380.246L174.994 384.506L175.48 384.506L175.481 384.128C175.738 384.441 176.116 384.597 176.482 384.604C177.124 384.605 177.785 384.138 177.852 383.154C177.902 382.194 177.303 381.539 176.511 381.532ZM176.429 384.166C175.949 384.171 175.481 383.798 175.494 383.054C175.501 382.388 175.91 381.963 176.444 381.964C176.996 381.965 177.409 382.433 177.378 383.117C177.335 383.825 176.879 384.166 176.429 384.166Z" fill="#22364C"/>
<path d="M242.923 380.242L241.393 383.924L239.869 380.238L239.389 380.237L239.382 384.497L239.862 384.498L239.867 381.45L241.152 384.499L241.632 384.5L242.921 381.454L242.916 384.502L243.402 384.503L243.409 380.249L242.923 380.242ZM245.523 381.536C244.995 381.535 244.557 381.732 244.28 382.236L244.652 382.434C244.851 382.099 245.127 381.967 245.511 381.974C245.859 381.98 246.141 382.136 246.17 382.502C246.17 382.652 246.08 382.712 245.948 382.712L245.396 382.711C245.012 382.711 244.766 382.764 244.58 382.902C244.327 383.082 244.189 383.364 244.2 383.664C244.206 384.222 244.661 384.588 245.273 384.589C245.633 384.59 245.957 384.434 246.168 384.17L246.167 384.518C246.317 384.519 246.509 384.519 246.641 384.519L246.644 382.587C246.645 381.927 246.153 381.536 245.523 381.536ZM245.268 384.169C244.95 384.163 244.65 384 244.644 383.664C244.627 383.304 244.921 383.107 245.401 383.107C245.635 383.108 245.959 383.108 246.169 383.096L246.169 383.258C246.15 383.84 245.802 384.176 245.268 384.169ZM247.915 382.013L247.916 381.629L247.448 381.628L247.45 384.508L247.918 384.509L247.92 382.907C247.939 382.355 248.341 381.996 248.893 382.074L248.894 381.63C248.426 381.612 248.101 381.755 247.915 382.013Z" fill="#22364C"/>
<path d="M309.086 380.239L309.081 383.311C309.08 384.001 308.48 384.108 308.324 384.102C308.18 384.108 307.592 384.029 307.593 383.321L307.593 383.183L307.113 383.182L307.113 383.32C307.112 384.058 307.549 384.569 308.323 384.576C309.061 384.583 309.554 384.068 309.555 383.33L309.56 380.24L309.086 380.239ZM312.611 381.63L312.609 383.016C312.608 383.754 312.326 384.15 311.732 384.149C311.276 384.148 310.904 383.878 310.905 383.17L310.907 381.622L310.433 381.621L310.431 383.187C310.43 384.237 310.993 384.586 311.695 384.587C312.127 384.587 312.421 384.42 312.608 384.144L312.607 384.504L313.075 384.505L313.079 381.631L312.611 381.63ZM315.419 381.532C315.017 381.531 314.663 381.717 314.435 382.047L314.435 381.627L313.973 381.626L313.963 384.506L314.431 384.507L314.433 382.995C314.458 382.353 314.867 381.957 315.401 381.976C315.839 381.989 316.204 382.241 316.203 382.949L316.201 384.509L316.669 384.51L316.671 382.932C316.673 381.888 316.067 381.533 315.419 381.532Z" fill="#22364C"/>
<path d="M378.273 380.239L378.269 383.311C378.268 384.001 377.668 384.108 377.512 384.102C377.368 384.108 376.78 384.029 376.781 383.321L376.781 383.183L376.301 383.182L376.301 383.32C376.3 384.058 376.737 384.569 377.511 384.576C378.249 384.583 378.742 384.068 378.743 383.33L378.747 380.24L378.273 380.239ZM381.799 381.63L381.797 383.016C381.796 383.754 381.513 384.15 380.919 384.149C380.463 384.148 380.092 383.878 380.093 383.17L380.095 381.622L379.621 381.621L379.619 383.187C379.617 384.237 380.181 384.586 380.883 384.587C381.315 384.587 381.609 384.42 381.795 384.144L381.795 384.504L382.263 384.505L382.267 381.631L381.799 381.63ZM384.243 384.508L384.243 384.064L383.895 384.057C383.733 384.057 383.637 383.997 383.638 383.739L383.637 380.247L383.157 380.246L383.152 383.81C383.151 384.272 383.337 384.506 383.739 384.507L384.243 384.508Z" fill="#22364C"/>
<path d="M57.3866 142.988L486.775 143.541" stroke="#020A13" stroke-width="2"/>
<circle cx="83.7852" cy="123.514" r="3.43074" transform="rotate(0.0813137 83.7852 123.514)" fill="#16DB93"/>
<circle cx="94.2931" cy="123.529" r="3.43074" transform="rotate(0.0813137 94.2931 123.529)" fill="#FEDB4D"/>
<circle cx="104.801" cy="123.545" r="3.43074" transform="rotate(0.0813137 104.801 123.545)" fill="#FE581E"/>
<path d="M147.402 163.725L144.072 163.721L144.071 164.201L145.499 164.203L145.494 167.983L145.974 167.983L145.979 164.203L147.401 164.205L147.402 163.725ZM150.098 166.543C150.099 165.685 149.482 165.012 148.66 165.011C147.838 165.01 147.219 165.687 147.218 166.539C147.216 167.379 147.851 168.07 148.655 168.071C149.483 168.072 150.096 167.407 150.098 166.543ZM149.624 166.542C149.623 167.166 149.244 167.616 148.656 167.615C148.08 167.614 147.685 167.134 147.686 166.54C147.686 165.934 148.077 165.472 148.659 165.473C149.241 165.474 149.625 165.924 149.624 166.542ZM152.047 165.532L152.048 165.112L151.436 165.111L151.437 164.199L150.957 164.198L150.956 165.11L150.434 165.11L150.433 165.53L150.955 165.53L150.953 167.294C150.952 167.756 151.138 167.991 151.534 167.991L152.044 167.992L152.044 167.548L151.69 167.541C151.528 167.541 151.432 167.481 151.433 167.223L151.435 165.531L152.047 165.532ZM153.961 165.025C153.433 165.024 152.995 165.221 152.718 165.725L153.09 165.923C153.288 165.588 153.564 165.456 153.948 165.463C154.296 165.469 154.578 165.626 154.608 165.992C154.607 166.142 154.517 166.201 154.385 166.201L153.833 166.2C153.449 166.2 153.203 166.254 153.017 166.391C152.765 166.571 152.626 166.853 152.638 167.153C152.643 167.711 153.099 168.077 153.711 168.078C154.071 168.079 154.395 167.923 154.605 167.66L154.605 168.008C154.755 168.008 154.947 168.008 155.079 168.008L155.081 166.076C155.082 165.416 154.591 165.026 153.961 165.025ZM153.705 167.658C153.387 167.652 153.087 167.489 153.082 167.153C153.064 166.793 153.359 166.596 153.839 166.596C154.073 166.597 154.397 166.597 154.607 166.586L154.607 166.748C154.588 167.33 154.239 167.665 153.705 167.658ZM156.973 167.999L156.974 167.555L156.626 167.548C156.464 167.548 156.368 167.488 156.368 167.23L156.367 163.738L155.887 163.737L155.882 167.301C155.881 167.763 156.067 167.998 156.469 167.998L156.973 167.999ZM161.64 166.578C161.64 166.578 161.641 166.2 161.521 165.905C161.318 165.371 160.808 165.028 160.22 165.028C159.434 165.026 158.779 165.715 158.778 166.555C158.777 167.395 159.43 168.08 160.216 168.082C160.798 168.082 161.29 167.759 161.489 167.279L161.069 167.117C160.937 167.429 160.619 167.626 160.217 167.626C159.737 167.625 159.341 167.258 159.252 166.766L161.634 166.77L161.64 166.578ZM159.246 166.382C159.319 165.866 159.728 165.477 160.22 165.478C160.586 165.478 160.891 165.664 161.035 165.959C161.119 166.085 161.173 166.271 161.184 166.385L159.246 166.382ZM163.771 165.033C163.369 165.032 163.015 165.217 162.786 165.547L162.787 165.127L162.325 165.127L162.315 168.006L162.783 168.007L162.785 166.495C162.81 165.853 163.218 165.458 163.752 165.477C164.19 165.489 164.556 165.742 164.555 166.45L164.553 168.01L165.021 168.01L165.023 166.432C165.024 165.388 164.419 165.033 163.771 165.033ZM166.355 165.516L166.355 165.132L165.887 165.132L165.889 168.012L166.357 168.012L166.359 166.41C166.378 165.858 166.781 165.499 167.332 165.578L167.333 165.134C166.865 165.115 166.541 165.258 166.355 165.516ZM170.559 166.572C170.56 165.714 169.943 165.041 169.121 165.04C168.299 165.039 167.68 165.716 167.679 166.568C167.677 167.408 168.312 168.099 169.116 168.1C169.944 168.101 170.557 167.436 170.559 166.572ZM170.085 166.572C170.084 167.196 169.705 167.645 169.117 167.644C168.541 167.643 168.146 167.163 168.147 166.569C168.147 165.963 168.538 165.501 169.12 165.502C169.702 165.503 170.085 165.954 170.085 166.572ZM172.33 168.021L172.331 167.577L171.983 167.57C171.821 167.57 171.725 167.51 171.726 167.252L171.725 163.76L171.245 163.759L171.239 167.323C171.239 167.785 171.424 168.019 171.826 168.02L172.33 168.021ZM174.135 168.023L174.136 167.579L173.788 167.573C173.626 167.573 173.53 167.512 173.53 167.254L173.529 163.762L173.049 163.762L173.044 167.326C173.043 167.788 173.229 168.022 173.631 168.023L174.135 168.023ZM177.484 166.6C177.484 166.6 177.484 166.222 177.365 165.928C177.162 165.394 176.652 165.051 176.064 165.05C175.278 165.049 174.623 165.738 174.622 166.578C174.621 167.418 175.274 168.103 176.06 168.104C176.642 168.105 177.134 167.782 177.333 167.302L176.913 167.139C176.781 167.451 176.462 167.649 176.06 167.648C175.58 167.647 175.185 167.281 175.096 166.789L177.478 166.792L177.484 166.6ZM175.09 166.405C175.163 165.889 175.571 165.499 176.063 165.5C176.429 165.501 176.735 165.687 176.879 165.981C176.963 166.107 177.016 166.293 177.028 166.407L175.09 166.405ZM180.306 163.772L180.304 165.494C180.058 165.2 179.693 165.043 179.303 165.055C178.655 165.066 178 165.533 177.933 166.511C177.883 167.471 178.482 168.131 179.274 168.139C179.688 168.139 180.06 167.96 180.301 167.636L180.3 168.032L180.786 168.033L180.792 163.773L180.306 163.772ZM179.341 167.701C178.789 167.7 178.376 167.231 178.406 166.547C178.449 165.839 178.906 165.498 179.356 165.487C179.866 165.475 180.303 165.866 180.29 166.61C180.283 167.276 179.875 167.701 179.341 167.701Z" fill="#22364C"/>
<path d="M208.015 168.071L208.555 168.072L206.827 163.81L206.755 163.81L206.245 163.809L204.505 168.066L205.045 168.067L205.52 166.874L207.536 166.877L208.015 168.071ZM205.695 166.448L206.532 164.355L207.369 166.451L205.695 166.448ZM211.543 166.006C211.358 165.478 210.843 165.129 210.225 165.129C209.421 165.127 208.766 165.811 208.764 166.645C208.763 167.479 209.416 168.157 210.22 168.159C210.808 168.159 211.295 167.848 211.493 167.368L211.08 167.212C210.965 167.488 210.665 167.721 210.221 167.721C209.639 167.72 209.238 167.245 209.238 166.645C209.239 166.051 209.642 165.566 210.224 165.567C210.692 165.567 210.992 165.82 211.117 166.156L211.543 166.006ZM213.442 165.619L213.442 165.199L212.83 165.198L212.831 164.286L212.351 164.286L212.35 165.198L211.828 165.197L211.828 165.617L212.35 165.618L212.347 167.382C212.346 167.844 212.532 168.078 212.928 168.078L213.438 168.079L213.439 167.635L213.085 167.629C212.923 167.628 212.827 167.568 212.827 167.31L212.83 165.618L213.442 165.619ZM214.434 164.559C214.638 164.559 214.812 164.379 214.812 164.175C214.812 163.965 214.639 163.785 214.435 163.785C214.219 163.784 214.044 163.964 214.044 164.174C214.044 164.378 214.218 164.558 214.434 164.559ZM214.175 165.2L214.171 168.08L214.651 168.081L214.655 165.201L214.175 165.2ZM217.566 165.205L216.615 167.526L215.694 165.202L215.208 165.202L216.386 168.083L216.842 168.084L218.052 165.206L217.566 165.205ZM221.113 166.662C221.113 166.662 221.113 166.284 220.994 165.99C220.791 165.456 220.281 165.113 219.693 165.112C218.907 165.111 218.252 165.8 218.251 166.64C218.25 167.48 218.903 168.165 219.689 168.166C220.271 168.167 220.763 167.844 220.962 167.364L220.542 167.201C220.41 167.513 220.091 167.711 219.689 167.71C219.209 167.709 218.814 167.343 218.725 166.851L221.107 166.854L221.113 166.662ZM218.719 166.467C218.792 165.951 219.2 165.561 219.692 165.562C220.058 165.563 220.364 165.749 220.508 166.043C220.591 166.169 220.645 166.355 220.657 166.469L218.719 166.467ZM225.742 166.669C225.742 166.669 225.742 166.291 225.623 165.996C225.419 165.462 224.91 165.119 224.322 165.119C223.536 165.117 222.881 165.807 222.88 166.647C222.879 167.487 223.532 168.171 224.318 168.173C224.9 168.173 225.392 167.85 225.591 167.37L225.171 167.208C225.038 167.52 224.72 167.717 224.318 167.717C223.838 167.716 223.443 167.349 223.353 166.857L225.735 166.861L225.742 166.669ZM223.348 166.473C223.421 165.957 223.829 165.568 224.321 165.569C224.687 165.569 224.993 165.756 225.137 166.05C225.22 166.176 225.274 166.362 225.286 166.476L223.348 166.473ZM227.872 165.124C227.47 165.123 227.116 165.309 226.888 165.638L226.888 165.218L226.426 165.218L226.416 168.098L226.884 168.098L226.886 166.586C226.911 165.944 227.32 165.549 227.854 165.568C228.292 165.58 228.657 165.833 228.656 166.541L228.654 168.101L229.122 168.101L229.124 166.523C229.126 165.479 228.52 165.125 227.872 165.124ZM230.456 165.607L230.457 165.223L229.989 165.223L229.991 168.103L230.459 168.103L230.461 166.501C230.48 165.949 230.882 165.59 231.434 165.669L231.435 165.225C230.967 165.206 230.642 165.35 230.456 165.607ZM234.66 166.663C234.661 165.805 234.044 165.132 233.222 165.131C232.4 165.13 231.781 165.807 231.78 166.659C231.779 167.499 232.414 168.19 233.218 168.191C234.046 168.192 234.659 167.527 234.66 166.663ZM234.186 166.663C234.185 167.287 233.807 167.736 233.219 167.735C232.643 167.734 232.247 167.254 232.248 166.66C232.249 166.054 232.64 165.592 233.222 165.593C233.804 165.594 234.187 166.045 234.186 166.663ZM236.432 168.112L236.433 167.668L236.085 167.661C235.923 167.661 235.827 167.601 235.827 167.343L235.826 163.851L235.346 163.85L235.341 167.414C235.34 167.876 235.526 168.111 235.928 168.111L236.432 168.112ZM238.237 168.114L238.237 167.67L237.889 167.664C237.727 167.664 237.631 167.603 237.632 167.345L237.631 163.853L237.151 163.853L237.146 167.417C237.145 167.879 237.331 168.113 237.733 168.114L238.237 168.114ZM241.585 166.691C241.585 166.691 241.586 166.313 241.466 166.019C241.263 165.485 240.754 165.142 240.166 165.141C239.38 165.14 238.725 165.829 238.723 166.669C238.722 167.509 239.375 168.194 240.161 168.195C240.743 168.196 241.236 167.873 241.434 167.393L241.015 167.23C240.882 167.542 240.564 167.74 240.162 167.739C239.682 167.738 239.286 167.372 239.197 166.88L241.579 166.883L241.585 166.691ZM239.192 166.496C239.264 165.98 239.673 165.59 240.165 165.591C240.531 165.592 240.837 165.778 240.98 166.072C241.064 166.198 241.118 166.384 241.13 166.498L239.192 166.496ZM244.408 163.863L244.406 165.585C244.16 165.291 243.794 165.134 243.404 165.146C242.756 165.157 242.101 165.624 242.034 166.602C241.985 167.562 242.584 168.223 243.376 168.23C243.79 168.23 244.162 168.051 244.403 167.727L244.402 168.123L244.888 168.124L244.894 163.864L244.408 163.863ZM243.442 167.792C242.89 167.791 242.477 167.322 242.508 166.638C242.551 165.93 243.008 165.589 243.458 165.578C243.968 165.566 244.405 165.957 244.392 166.701C244.385 167.367 243.976 167.793 243.442 167.792Z" fill="#22364C"/>
<path d="M283.732 165.076C283.529 164.53 282.924 163.821 281.874 163.825C280.71 163.824 279.754 164.818 279.753 166.036C279.751 167.266 280.703 168.258 281.867 168.259C282.713 168.26 283.422 167.799 283.741 167.116L283.267 166.893C283.033 167.385 282.504 167.75 281.868 167.749C280.968 167.748 280.267 166.997 280.269 166.037C280.27 165.083 280.973 164.322 281.873 164.323C282.545 164.324 283.054 164.727 283.252 165.255L283.732 165.076ZM287.096 166.737C287.097 165.879 286.48 165.206 285.658 165.205C284.836 165.203 284.217 165.881 284.216 166.733C284.214 167.573 284.85 168.263 285.654 168.265C286.481 168.266 287.094 167.601 287.096 166.737ZM286.622 166.736C286.621 167.36 286.242 167.809 285.654 167.809C285.078 167.808 284.683 167.327 284.684 166.733C284.685 166.127 285.075 165.666 285.657 165.667C286.239 165.667 286.623 166.118 286.622 166.736ZM290.93 165.218C290.51 165.218 290.191 165.457 290.017 165.805C289.837 165.439 289.49 165.216 289.028 165.215C288.704 165.221 288.434 165.371 288.253 165.598L288.254 165.304L287.78 165.304L287.776 168.184L288.25 168.184L288.252 166.366C288.289 165.922 288.619 165.653 288.985 165.653C289.387 165.654 289.687 165.924 289.686 166.398L289.678 168.186L290.146 168.187L290.148 166.423C290.155 165.967 290.497 165.655 290.887 165.656C291.283 165.657 291.607 165.909 291.606 166.401L291.598 168.189L292.066 168.19L292.068 166.426C292.069 165.718 291.608 165.213 290.93 165.218ZM294.442 165.217C294.034 165.211 293.674 165.384 293.428 165.696L293.428 165.312L292.93 165.311L292.924 169.547L293.422 169.548L293.425 167.826C293.664 168.12 294.006 168.294 294.408 168.289C295.146 168.29 295.717 167.757 295.784 166.839C295.833 165.879 295.234 165.224 294.442 165.217ZM294.33 167.863C293.898 167.862 293.473 167.526 293.426 166.908L293.426 166.71C293.457 166.068 293.842 165.648 294.376 165.649C294.928 165.65 295.341 166.118 295.31 166.802C295.267 167.528 294.81 167.858 294.33 167.863ZM297.557 168.198L297.558 167.754L297.21 167.747C297.048 167.747 296.952 167.687 296.952 167.429L296.951 163.937L296.471 163.936L296.466 167.5C296.465 167.962 296.651 168.196 297.053 168.197L297.557 168.198ZM300.906 166.774C300.906 166.774 300.906 166.396 300.787 166.102C300.583 165.568 300.074 165.225 299.486 165.224C298.7 165.223 298.045 165.912 298.044 166.752C298.043 167.592 298.696 168.277 299.482 168.278C300.064 168.279 300.556 167.956 300.755 167.476L300.335 167.313C300.203 167.625 299.884 167.823 299.482 167.822C299.002 167.822 298.607 167.455 298.517 166.963L300.899 166.966L300.906 166.774ZM298.512 166.579C298.585 166.063 298.993 165.674 299.485 165.674C299.851 165.675 300.157 165.861 300.301 166.155C300.384 166.282 300.438 166.468 300.45 166.582L298.512 166.579ZM302.733 165.745L302.733 165.325L302.121 165.324L302.122 164.412L301.642 164.411L301.641 165.323L301.119 165.323L301.119 165.743L301.641 165.743L301.638 167.507C301.637 167.969 301.823 168.204 302.219 168.204L302.729 168.205L302.73 167.761L302.376 167.754C302.214 167.754 302.118 167.694 302.118 167.436L302.121 165.744L302.733 165.745ZM305.962 166.781C305.962 166.781 305.963 166.403 305.843 166.109C305.64 165.575 305.131 165.232 304.543 165.231C303.757 165.23 303.102 165.919 303.1 166.759C303.099 167.599 303.752 168.284 304.538 168.285C305.12 168.286 305.613 167.963 305.811 167.483L305.392 167.321C305.259 167.632 304.941 167.83 304.539 167.829C304.059 167.829 303.663 167.462 303.574 166.97L305.956 166.973L305.962 166.781ZM303.569 166.586C303.641 166.07 304.05 165.681 304.542 165.681C304.908 165.682 305.214 165.868 305.357 166.163C305.441 166.289 305.495 166.475 305.507 166.589L303.569 166.586ZM308.785 163.953L308.783 165.675C308.537 165.381 308.171 165.225 307.781 165.236C307.133 165.247 306.478 165.714 306.411 166.692C306.362 167.652 306.961 168.313 307.753 168.32C308.167 168.321 308.539 168.141 308.779 167.817L308.779 168.213L309.265 168.214L309.271 163.954L308.785 163.953ZM307.819 167.882C307.267 167.881 306.854 167.413 306.885 166.729C306.928 166.021 307.385 165.679 307.835 165.668C308.345 165.657 308.782 166.047 308.769 166.791C308.762 167.457 308.353 167.883 307.819 167.882Z" fill="#22364C"/>
<path d="M349.295 164.944C349.152 164.35 348.546 163.929 347.748 163.928C346.974 163.927 346.356 164.46 346.355 165.162C346.354 165.768 346.701 166.153 347.307 166.285C347.601 166.346 347.883 166.394 348.117 166.455C348.531 166.557 348.74 166.845 348.746 167.127C348.751 167.517 348.385 167.865 347.791 167.864C347.233 167.863 346.729 167.575 346.664 167.149L346.172 167.22C346.249 167.916 346.968 168.343 347.778 168.344C348.588 168.345 349.243 167.89 349.244 167.128C349.245 166.498 348.849 166.072 348.148 165.939C347.92 165.896 347.71 165.86 347.44 165.806C346.984 165.709 346.804 165.385 346.847 165.079C346.907 164.713 347.256 164.407 347.76 164.408C348.276 164.409 348.701 164.655 348.809 165.076L349.295 164.944ZM351.754 168.278L352.294 168.279L351.091 166.633L352.293 165.399L351.699 165.398L350.473 166.656L350.476 164.016L349.996 164.015L349.99 168.275L350.47 168.276L350.472 167.268L350.79 166.944L351.754 168.278ZM353.084 164.758C353.288 164.758 353.462 164.578 353.462 164.374C353.463 164.164 353.289 163.984 353.085 163.984C352.869 163.983 352.695 164.163 352.694 164.373C352.694 164.577 352.868 164.757 353.084 164.758ZM352.825 165.399L352.821 168.279L353.301 168.28L353.305 165.4L352.825 165.399ZM355.766 165.307C355.358 165.301 354.998 165.474 354.752 165.786L354.752 165.402L354.254 165.401L354.248 169.637L354.746 169.638L354.749 167.916C354.988 168.21 355.33 168.385 355.732 168.379C356.47 168.38 357.041 167.847 357.108 166.929C357.157 165.969 356.558 165.315 355.766 165.307ZM355.655 167.953C355.223 167.953 354.797 167.616 354.75 166.998L354.75 166.8C354.781 166.158 355.166 165.739 355.7 165.739C356.252 165.74 356.665 166.209 356.634 166.893C356.591 167.619 356.135 167.948 355.655 167.953ZM359.305 165.312C358.898 165.306 358.537 165.479 358.291 165.791L358.291 165.407L357.793 165.406L357.787 169.642L358.285 169.643L358.288 167.921C358.527 168.215 358.869 168.39 359.271 168.384C360.009 168.385 360.58 167.852 360.647 166.934C360.697 165.974 360.097 165.32 359.305 165.312ZM359.194 167.958C358.762 167.958 358.336 167.621 358.289 167.003L358.289 166.805C358.32 166.163 358.705 165.744 359.239 165.744C359.791 165.745 360.204 166.214 360.173 166.898C360.13 167.624 359.674 167.953 359.194 167.958ZM363.964 166.867C363.964 166.867 363.965 166.489 363.845 166.195C363.642 165.661 363.133 165.318 362.545 165.317C361.759 165.316 361.104 166.005 361.102 166.845C361.101 167.685 361.754 168.37 362.54 168.371C363.122 168.372 363.615 168.049 363.813 167.569L363.394 167.406C363.261 167.718 362.943 167.916 362.541 167.915C362.061 167.914 361.665 167.548 361.576 167.056L363.958 167.059L363.964 166.867ZM361.571 166.672C361.643 166.156 362.052 165.766 362.544 165.767C362.91 165.768 363.216 165.954 363.359 166.248C363.443 166.374 363.497 166.56 363.509 166.674L361.571 166.672ZM366.787 164.039L366.784 165.761C366.539 165.467 366.173 165.31 365.783 165.322C365.135 165.333 364.48 165.8 364.413 166.778C364.364 167.738 364.963 168.398 365.755 168.406C366.169 168.406 366.541 168.227 366.781 167.903L366.781 168.299L367.267 168.3L367.273 164.04L366.787 164.039ZM365.821 167.968C365.269 167.967 364.856 167.498 364.887 166.814C364.93 166.106 365.386 165.765 365.836 165.754C366.346 165.742 366.784 166.133 366.771 166.877C366.764 167.543 366.355 167.968 365.821 167.968ZM372.032 166.237C371.846 165.708 371.331 165.36 370.713 165.359C369.909 165.358 369.254 166.041 369.253 166.875C369.252 167.709 369.905 168.388 370.709 168.389C371.297 168.389 371.783 168.078 371.982 167.598L371.568 167.442C371.454 167.718 371.153 167.951 370.709 167.951C370.127 167.95 369.726 167.475 369.727 166.875C369.728 166.281 370.13 165.796 370.712 165.797C371.18 165.797 371.48 166.05 371.605 166.386L372.032 166.237ZM375.314 166.865C375.316 166.007 374.699 165.334 373.877 165.333C373.055 165.332 372.436 166.009 372.434 166.861C372.433 167.701 373.068 168.392 373.872 168.393C374.7 168.394 375.313 167.729 375.314 166.865ZM374.84 166.865C374.84 167.489 374.461 167.938 373.873 167.937C373.297 167.936 372.902 167.456 372.902 166.862C372.903 166.256 373.294 165.794 373.876 165.795C374.458 165.796 374.841 166.247 374.84 166.865ZM377.451 165.338C377.049 165.338 376.694 165.523 376.466 165.853L376.466 165.433L376.004 165.432L375.994 168.312L376.462 168.313L376.464 166.801C376.489 166.159 376.898 165.763 377.432 165.782C377.87 165.795 378.236 166.047 378.235 166.755L378.232 168.315L378.7 168.316L378.703 166.738C378.704 165.694 378.099 165.339 377.451 165.338ZM380.715 165.859L380.716 165.439L380.104 165.438L380.105 164.526L379.625 164.525L379.624 165.437L379.102 165.437L379.101 165.857L379.623 165.857L379.62 167.621C379.62 168.083 379.805 168.318 380.201 168.318L380.711 168.319L380.712 167.875L380.358 167.868C380.196 167.868 380.1 167.808 380.101 167.55L380.103 165.858L380.715 165.859ZM382.629 165.352C382.101 165.351 381.663 165.548 381.386 166.052L381.758 166.25C381.956 165.915 382.232 165.783 382.616 165.79C382.964 165.796 383.246 165.952 383.276 166.318C383.275 166.468 383.185 166.528 383.053 166.528L382.501 166.527C382.117 166.527 381.871 166.58 381.685 166.718C381.433 166.898 381.294 167.18 381.306 167.48C381.311 168.038 381.767 168.404 382.379 168.405C382.739 168.406 383.063 168.25 383.273 167.986L383.273 168.334C383.423 168.335 383.615 168.335 383.747 168.335L383.749 166.403C383.75 165.743 383.259 165.352 382.629 165.352ZM382.373 167.985C382.055 167.979 381.755 167.816 381.75 167.48C381.732 167.12 382.027 166.923 382.507 166.923C382.741 166.924 383.065 166.924 383.275 166.912L383.274 167.074C383.256 167.656 382.907 167.992 382.373 167.985ZM387.102 166.258C386.917 165.73 386.401 165.381 385.783 165.38C384.979 165.379 384.324 166.062 384.323 166.896C384.322 167.73 384.975 168.409 385.779 168.41C386.367 168.411 386.853 168.1 387.052 167.62L386.638 167.463C386.524 167.739 386.224 167.973 385.78 167.972C385.198 167.971 384.796 167.497 384.797 166.897C384.798 166.303 385.201 165.817 385.783 165.818C386.251 165.819 386.55 166.071 386.676 166.407L387.102 166.258ZM389 165.871L389.001 165.451L388.389 165.45L388.39 164.538L387.91 164.537L387.909 165.449L387.387 165.448L387.386 165.868L387.908 165.869L387.906 167.633C387.905 168.095 388.091 168.329 388.487 168.33L388.997 168.331L388.997 167.887L388.643 167.88C388.481 167.88 388.385 167.82 388.386 167.562L388.388 165.87L389 165.871ZM391.681 166.084C391.568 165.646 391.142 165.358 390.584 165.357C390.026 165.356 389.582 165.757 389.581 166.249C389.581 166.651 389.832 166.952 390.252 167.048C390.384 167.079 390.564 167.127 390.792 167.169C391.08 167.23 391.194 167.362 391.193 167.566C391.193 167.83 390.977 167.997 390.629 167.997C390.239 167.996 389.993 167.828 389.939 167.582L389.495 167.671C389.596 168.139 390.028 168.416 390.628 168.417C391.222 168.418 391.649 168.064 391.649 167.56C391.65 167.146 391.428 166.84 390.936 166.731C390.78 166.701 390.601 166.659 390.385 166.611C390.145 166.556 390.031 166.418 390.037 166.214C390.05 165.938 390.296 165.776 390.596 165.777C390.896 165.771 391.166 165.922 391.231 166.186L391.681 166.084Z" fill="#22364C"/>
<rect x="129.836" y="161.961" width="8.57685" height="8.57685" transform="rotate(0.0813137 129.836 161.961)" fill="#046DFF"/>
<rect x="190.305" y="162.047" width="8.57685" height="8.57685" transform="rotate(0.0813137 190.305 162.047)" fill="#00C6FC"/>
<rect x="265.352" y="162.152" width="8.57685" height="8.57685" transform="rotate(0.0813137 265.352 162.152)" fill="#16DB93"/>
<rect x="331.82" y="162.246" width="8.57685" height="8.57685" transform="rotate(0.0813137 331.82 162.246)" fill="#FF595E"/>
</svg>
