<svg width="24" height="24" viewBox="0 0 24 24" fill="none" xmlns="http://www.w3.org/2000/svg">
<path d="M18 14C17.1152 14.0016 16.256 14.2971 15.5575 14.8401C14.859 15.3832 14.3607 16.1429 14.141 17H9.859C9.76309 16.6267 9.61281 16.2696 9.413 15.94L15.94 9.413C16.5597 9.79409 17.2725 9.99718 18 10C19.0609 10 20.0783 9.57857 20.8284 8.82843C21.5786 8.07828 22 7.06087 22 6C22 4.93913 21.5786 3.92172 20.8284 3.17157C20.0783 2.42143 19.0609 2 18 2C16.138 2 14.588 3.278 14.141 5H9.859C9.6393 4.14293 9.14103 3.38316 8.44249 2.84012C7.74396 2.29708 6.88478 2.00155 6 2C4.93913 2 3.92172 2.42143 3.17157 3.17157C2.42143 3.92172 2 4.93913 2 6C2 7.06087 2.42143 8.07828 3.17157 8.82843C3.92172 9.57857 4.93913 10 6 10C7.862 10 9.412 8.722 9.859 7H14.142C14.233 7.349 14.37 7.677 14.546 7.982L8.037 14.574C7.42245 14.2019 6.71843 14.0035 6 14C4.93913 14 3.92172 14.4214 3.17157 15.1716C2.42143 15.9217 2 16.9391 2 18C2 19.0609 2.42143 20.0783 3.17157 20.8284C3.92172 21.5786 4.93913 22 6 22C7.862 22 9.412 20.722 9.859 19H14.142C14.3617 19.8571 14.86 20.6168 15.5585 21.1599C16.257 21.7029 17.1162 21.9984 18.001 22C18.5263 21.9999 19.0464 21.8964 19.5317 21.6953C20.017 21.4942 20.4579 21.1996 20.8293 20.8281C21.2007 20.4566 21.4953 20.0156 21.6962 19.5303C21.8972 19.0449 22.0006 18.5248 22.0005 17.9995C22.0004 17.4742 21.8969 16.9541 21.6958 16.4688C21.4947 15.9835 21.2001 15.5426 20.8286 15.1712C20.4571 14.7998 20.0161 14.5052 19.5308 14.3043C19.0454 14.1033 18.5253 13.9999 18 14ZM6 8C4.897 8 4 7.103 4 6C4 4.897 4.897 4 6 4C7.103 4 8 4.897 8 6C8 7.103 7.103 8 6 8ZM18 4C19.103 4 20 4.897 20 6C20 7.103 19.103 8 18 8C16.897 8 16 7.103 16 6C16 4.897 16.897 4 18 4ZM6 20C4.897 20 4 19.103 4 18C4 16.897 4.897 16 6 16C7.103 16 8 16.897 8 18C8 19.103 7.103 20 6 20Z" fill="#020A13"/>
</svg>
