<svg width="565" height="380" viewBox="0 0 565 380" fill="none" xmlns="http://www.w3.org/2000/svg">
<rect width="296" height="380" rx="50" fill="url(#paint0_linear_1566_379)"/>
<rect x="37" y="87.5" width="250" height="89" rx="10" fill="#020A13"/>
<rect x="31.5" y="83.2861" width="248" height="87" rx="9" fill="white" stroke="#020A13" stroke-width="2"/>
<rect x="315" y="86.6123" width="250" height="89" rx="10" fill="#020A13"/>
<rect x="309.5" y="82.3984" width="248" height="87" rx="9" fill="white" stroke="#020A13" stroke-width="2"/>
<rect x="50" y="104" width="42" height="42" rx="8" fill="#020A13"/>
<path d="M81.6008 115.1C81.5008 114.8 81.2008 114.5 80.9008 114.4C76.7008 113.3 72.4008 114.6 69.5008 118L68.4008 119.3L65.7008 118.7C64.4008 118.2 63.0008 118.8 62.4008 120L60.2008 123.9C60.0008 124.2 60.0008 124.5 60.2008 124.8C60.3008 125.1 60.6008 125.3 60.9008 125.4L64.0008 126.1C63.7008 126.9 63.6008 127.7 63.4008 128.5C63.4008 128.8 63.5008 129.1 63.7008 129.3L66.8008 132.4C67.0008 132.6 67.2008 132.7 67.5008 132.7H67.6008C68.5008 132.6 69.3008 132.5 70.1008 132.2L70.7008 135.2C70.8008 135.5 71.0008 135.8 71.3008 135.9C71.4008 136 71.6008 136 71.7008 136C71.9008 136 72.0008 136 72.2008 135.9L76.1008 133.7C77.2008 133.1 77.8008 131.7 77.5008 130.4L76.8008 127.6L78.0008 126.5C81.3008 123.7 82.7008 119.2 81.6008 115.1ZM66.3008 121.8C65.7008 122.6 65.1008 123.4 64.7008 124.2L62.6008 123.7L64.1008 121C64.3008 120.6 64.7008 120.5 65.2008 120.6L66.9008 121L66.3008 121.8ZM75.0008 131.9L72.3008 133.4L71.9008 131.4C72.8008 131 73.6008 130.4 74.3008 129.8L75.0008 129.1L75.4008 130.8C75.6008 131.3 75.3008 131.8 75.0008 131.9ZM75.7008 121.8C74.9008 121.8 74.2008 121.1 74.2008 120.3C74.2008 119.5 74.9008 118.8 75.7008 118.8C76.5008 118.8 77.2008 119.5 77.2008 120.3C77.2008 121.1 76.6008 121.8 75.7008 121.8Z" fill="white"/>
<rect x="328.5" y="104.01" width="42" height="42" rx="8" fill="#020A13"/>
<path d="M360.101 115.11C360.001 114.81 359.701 114.51 359.401 114.41C355.201 113.31 350.901 114.61 348.001 118.01L346.901 119.31L344.201 118.71C342.901 118.21 341.501 118.81 340.901 120.01L338.701 123.91C338.501 124.21 338.501 124.51 338.701 124.81C338.801 125.11 339.101 125.31 339.401 125.41L342.501 126.11C342.201 126.91 342.101 127.71 341.901 128.51C341.901 128.81 342.001 129.11 342.201 129.31L345.301 132.41C345.501 132.61 345.701 132.71 346.001 132.71H346.101C347.001 132.61 347.801 132.51 348.601 132.21L349.201 135.21C349.301 135.51 349.501 135.81 349.801 135.91C349.901 136.01 350.101 136.01 350.201 136.01C350.401 136.01 350.501 136.01 350.701 135.91L354.601 133.71C355.701 133.11 356.301 131.71 356.001 130.41L355.301 127.61L356.501 126.51C359.801 123.71 361.201 119.21 360.101 115.11ZM344.801 121.81C344.201 122.61 343.601 123.41 343.201 124.21L341.101 123.71L342.601 121.01C342.801 120.61 343.201 120.51 343.701 120.61L345.401 121.01L344.801 121.81ZM353.501 131.91L350.801 133.41L350.401 131.41C351.301 131.01 352.101 130.41 352.801 129.81L353.501 129.11L353.901 130.81C354.101 131.31 353.801 131.81 353.501 131.91ZM354.201 121.81C353.401 121.81 352.701 121.11 352.701 120.31C352.701 119.51 353.401 118.81 354.201 118.81C355.001 118.81 355.701 119.51 355.701 120.31C355.701 121.11 355.101 121.81 354.201 121.81Z" fill="white"/>
<path d="M121.242 111.762C120.864 110.754 119.59 108.85 116.888 108.85C114.158 108.85 111.932 111.174 111.932 114.03C111.932 116.886 114.158 119.182 116.888 119.182C118.89 119.182 120.584 118.132 121.326 116.494L119.912 115.836C119.408 116.886 118.274 117.67 116.888 117.67C114.956 117.67 113.472 116.102 113.472 114.03C113.472 111.944 114.956 110.334 116.888 110.334C118.316 110.334 119.408 111.202 119.814 112.294L121.242 111.762ZM129.165 115.64C129.165 113.652 127.695 112.07 125.777 112.07C123.859 112.07 122.375 113.666 122.375 115.64C122.375 117.586 123.901 119.182 125.777 119.182C127.695 119.182 129.165 117.628 129.165 115.64ZM127.765 115.654C127.765 116.914 127.009 117.866 125.777 117.866C124.573 117.866 123.775 116.844 123.775 115.654C123.775 114.408 124.545 113.414 125.777 113.414C126.981 113.414 127.765 114.38 127.765 115.654ZM134.256 112.056C133.388 112.056 132.604 112.434 132.072 113.176V112.28H130.714L130.7 119H132.072V115.43C132.142 114.016 133.108 113.274 134.186 113.33C135.11 113.372 135.852 113.96 135.852 115.458V119H137.238V115.388C137.238 112.84 135.754 112.07 134.256 112.056ZM142.109 113.484V112.28H140.737V110.152H139.309V112.28H138.119V113.484H139.309V117.264C139.309 118.342 139.757 118.986 140.737 118.986L142.109 119V117.712L141.353 117.698C140.989 117.698 140.737 117.614 140.737 117.054V113.484H142.109ZM146.554 112.07C145.378 112.07 144.314 112.49 143.6 113.736L144.664 114.324C145.112 113.554 145.742 113.302 146.54 113.33C147.226 113.344 147.8 113.61 147.884 114.338C147.912 114.66 147.716 114.786 147.436 114.786H146.274C145.42 114.786 144.832 114.884 144.398 115.178C143.768 115.598 143.418 116.284 143.446 117.026C143.46 118.328 144.524 119.182 146.008 119.182C146.764 119.182 147.436 118.86 147.898 118.37V119.056C148.346 119.056 148.878 119.056 149.284 119.056V114.59C149.284 112.966 148.052 112.056 146.554 112.07ZM145.98 117.978C145.35 117.964 144.762 117.684 144.734 117.026C144.692 116.326 145.266 115.892 146.288 115.892C146.792 115.892 147.422 115.892 147.898 115.864V116.256C147.828 117.432 147.058 118.006 145.98 117.978ZM157.146 114.17C156.712 112.91 155.494 112.098 154.052 112.098C152.162 112.098 150.594 113.694 150.594 115.668C150.594 117.628 152.162 119.182 154.052 119.182C155.424 119.182 156.572 118.482 157.034 117.334L155.816 116.858C155.606 117.376 155.032 117.936 154.052 117.936C152.778 117.936 151.994 116.914 151.994 115.668C151.994 114.408 152.778 113.372 154.052 113.372C155.074 113.372 155.648 113.932 155.9 114.618L157.146 114.17ZM161.769 113.484V112.28H160.397V110.152H158.969V112.28H157.779V113.484H158.969V117.264C158.969 118.342 159.417 118.986 160.397 118.986L161.769 119V117.712L161.013 117.698C160.649 117.698 160.397 117.614 160.397 117.054V113.484H161.769ZM167.707 110.992C168.281 110.992 168.729 110.502 168.729 109.956C168.729 109.382 168.281 108.92 167.707 108.92C167.133 108.92 166.671 109.382 166.671 109.956C166.671 110.502 167.133 110.992 167.707 110.992ZM165.299 122.36C168.127 122.36 168.421 120.33 168.421 119.308L168.463 112.266H166.993L167.021 119.112C166.979 120.078 166.811 120.876 165.299 120.876V122.36ZM176.839 115.64C176.839 113.652 175.369 112.07 173.451 112.07C171.533 112.07 170.049 113.666 170.049 115.64C170.049 117.586 171.575 119.182 173.451 119.182C175.369 119.182 176.839 117.628 176.839 115.64ZM175.439 115.654C175.439 116.914 174.683 117.866 173.451 117.866C172.247 117.866 171.449 116.844 171.449 115.654C171.449 114.408 172.219 113.414 173.451 113.414C174.655 113.414 175.439 114.38 175.439 115.654ZM179.144 110.936C179.676 110.936 180.124 110.46 180.124 109.928C180.124 109.396 179.676 108.92 179.144 108.92C178.584 108.92 178.122 109.382 178.122 109.928C178.122 110.46 178.584 110.936 179.144 110.936ZM178.388 112.28V119H179.802V112.28H178.388ZM185.498 112.056C184.63 112.056 183.846 112.434 183.314 113.176V112.28H181.956L181.942 119H183.314V115.43C183.384 114.016 184.35 113.274 185.428 113.33C186.352 113.372 187.094 113.96 187.094 115.458V119H188.48V115.388C188.48 112.84 186.996 112.07 185.498 112.056ZM196.892 113.484V112.28H195.52V110.152H194.092V112.28H192.902V113.484H194.092V117.264C194.092 118.342 194.54 118.986 195.52 118.986L196.892 119V117.712L196.136 117.698C195.772 117.698 195.52 117.614 195.52 117.054V113.484H196.892ZM204.757 115.64C204.757 113.652 203.287 112.07 201.369 112.07C199.451 112.07 197.967 113.666 197.967 115.64C197.967 117.586 199.493 119.182 201.369 119.182C203.287 119.182 204.757 117.628 204.757 115.64ZM203.357 115.654C203.357 116.914 202.601 117.866 201.369 117.866C200.165 117.866 199.367 116.844 199.367 115.654C199.367 114.408 200.137 113.414 201.369 113.414C202.573 113.414 203.357 114.38 203.357 115.654ZM212.261 112.07C211.085 112.07 210.021 112.49 209.307 113.736L210.371 114.324C210.819 113.554 211.449 113.302 212.247 113.33C212.933 113.344 213.507 113.61 213.591 114.338C213.619 114.66 213.423 114.786 213.143 114.786H211.981C211.127 114.786 210.539 114.884 210.105 115.178C209.475 115.598 209.125 116.284 209.153 117.026C209.167 118.328 210.231 119.182 211.715 119.182C212.471 119.182 213.143 118.86 213.605 118.37V119.056C214.053 119.056 214.585 119.056 214.991 119.056V114.59C214.991 112.966 213.759 112.056 212.261 112.07ZM211.687 117.978C211.057 117.964 210.469 117.684 210.441 117.026C210.399 116.326 210.973 115.892 211.995 115.892C212.499 115.892 213.129 115.892 213.605 115.864V116.256C213.535 117.432 212.765 118.006 211.687 117.978ZM222.9 119V117.712L222.144 117.698C221.78 117.698 221.528 117.614 221.528 117.054L221.514 109.06H220.1V117.264C220.1 118.342 220.534 118.986 221.528 118.986L222.9 119ZM225.286 110.936C225.818 110.936 226.266 110.46 226.266 109.928C226.266 109.396 225.818 108.92 225.286 108.92C224.726 108.92 224.264 109.382 224.264 109.928C224.264 110.46 224.726 110.936 225.286 110.936ZM224.53 112.28V119H225.944V112.28H224.53ZM232.733 113.792C232.467 112.742 231.445 112.056 230.115 112.056C228.771 112.056 227.721 113.008 227.721 114.198C227.721 115.136 228.309 115.878 229.275 116.116C229.485 116.172 229.947 116.298 230.549 116.424C231.123 116.55 231.333 116.788 231.333 117.152C231.333 117.67 230.913 117.964 230.213 117.964C229.429 117.964 228.911 117.614 228.813 117.124L227.483 117.348C227.707 118.468 228.799 119.182 230.213 119.182C231.641 119.182 232.677 118.342 232.677 117.124C232.677 116.172 232.215 115.43 231.039 115.15C230.689 115.08 230.213 114.968 229.709 114.842C229.233 114.73 229.009 114.436 229.051 114.058C229.093 113.582 229.541 113.274 230.129 113.274C230.773 113.26 231.291 113.568 231.431 114.086L232.733 113.792ZM237.497 113.484V112.28H236.125V110.152H234.697V112.28H233.507V113.484H234.697V117.264C234.697 118.342 235.145 118.986 236.125 118.986L237.497 119V117.712L236.741 117.698C236.377 117.698 236.125 117.614 236.125 117.054V113.484H237.497Z" fill="#020A13"/>
<path d="M122.18 142V132.06H120.766L117.35 140.306L113.92 132.06H112.52V142H113.92V135.644L116.65 142H118.05L120.766 135.644V142H122.18ZM127.099 135.07C125.923 135.07 124.859 135.49 124.145 136.736L125.209 137.324C125.657 136.554 126.287 136.302 127.085 136.33C127.771 136.344 128.345 136.61 128.429 137.338C128.457 137.66 128.261 137.786 127.981 137.786H126.819C125.965 137.786 125.377 137.884 124.943 138.178C124.313 138.598 123.963 139.284 123.991 140.026C124.005 141.328 125.069 142.182 126.553 142.182C127.309 142.182 127.981 141.86 128.443 141.37V142.056C128.891 142.056 129.423 142.056 129.829 142.056V137.59C129.829 135.966 128.597 135.056 127.099 135.07ZM126.525 140.978C125.895 140.964 125.307 140.684 125.279 140.026C125.237 139.326 125.811 138.892 126.833 138.892C127.337 138.892 127.967 138.892 128.443 138.864V139.256C128.373 140.432 127.603 141.006 126.525 140.978ZM132.441 133.936C132.973 133.936 133.421 133.46 133.421 132.928C133.421 132.396 132.973 131.92 132.441 131.92C131.881 131.92 131.419 132.382 131.419 132.928C131.419 133.46 131.881 133.936 132.441 133.936ZM131.685 135.28V142H133.099V135.28H131.685ZM138.039 142V140.712L137.283 140.698C136.919 140.698 136.667 140.614 136.667 140.054L136.653 132.06H135.239V140.264C135.239 141.342 135.673 141.986 136.667 141.986L138.039 142ZM145.857 138.654C145.857 138.654 145.857 137.786 145.577 137.1C145.087 135.854 143.897 135.056 142.497 135.056C140.649 135.056 139.123 136.652 139.123 138.612C139.123 140.572 140.649 142.182 142.497 142.182C143.869 142.182 145.045 141.44 145.507 140.278L144.275 139.816C144.009 140.432 143.351 140.838 142.497 140.838C141.559 140.838 140.761 140.152 140.523 139.2H145.843L145.857 138.654ZM140.495 138.122C140.705 137.128 141.531 136.372 142.497 136.372C143.183 136.372 143.757 136.68 144.079 137.184C144.289 137.436 144.457 137.856 144.499 138.122H140.495ZM148.779 136.12V135.28H147.393L147.407 142H148.793V138.444C148.863 137.17 149.773 136.316 151.061 136.568V135.28C149.927 135.224 149.171 135.546 148.779 136.12ZM157.966 137.17C157.532 135.91 156.314 135.098 154.872 135.098C152.982 135.098 151.414 136.694 151.414 138.668C151.414 140.628 152.982 142.182 154.872 142.182C156.244 142.182 157.392 141.482 157.854 140.334L156.636 139.858C156.426 140.376 155.852 140.936 154.872 140.936C153.598 140.936 152.814 139.914 152.814 138.668C152.814 137.408 153.598 136.372 154.872 136.372C155.894 136.372 156.468 136.932 156.72 137.618L157.966 137.17ZM162.211 142V140.712L161.455 140.698C161.091 140.698 160.839 140.614 160.839 140.054L160.825 132.06H159.411V140.264C159.411 141.342 159.845 141.986 160.839 141.986L162.211 142ZM169.825 138.64C169.825 136.652 168.355 135.07 166.437 135.07C164.519 135.07 163.035 136.666 163.035 138.64C163.035 140.586 164.561 142.182 166.437 142.182C168.355 142.182 169.825 140.628 169.825 138.64ZM168.425 138.654C168.425 139.914 167.669 140.866 166.437 140.866C165.233 140.866 164.435 139.844 164.435 138.654C164.435 137.408 165.205 136.414 166.437 136.414C167.641 136.414 168.425 137.38 168.425 138.654ZM176.33 135.28V138.458C176.33 140.152 175.574 140.922 174.44 140.922C173.46 140.922 172.676 140.278 172.676 138.78V135.28H171.29V138.85C171.29 141.412 172.606 142.182 174.3 142.182C175.252 142.182 175.91 141.804 176.33 141.188V142H177.716V135.28H176.33ZM184.684 132.06V135.98C184.096 135.35 183.27 135.014 182.374 135.042C180.848 135.112 179.322 136.19 179.196 138.486H179.182C179.098 140.796 180.596 142.238 182.346 142.238C183.256 142.252 184.096 141.874 184.684 141.16V142H186.112V132.06H184.684ZM182.584 140.992C181.464 140.992 180.526 140.082 180.554 138.57H180.568C180.638 137.058 181.618 136.316 182.612 136.288C183.69 136.274 184.67 137.1 184.642 138.696C184.614 140.138 183.69 140.992 182.584 140.992Z" fill="#007BFF"/>
<path d="M399.218 118.054C399.218 121.064 397.146 123.192 394.318 123.192C391.56 123.192 389.432 120.994 389.432 118.054C389.432 115.086 391.504 112.874 394.304 112.874C397.132 112.874 399.218 115.072 399.218 118.054ZM397.664 118.054C397.664 115.856 396.32 114.358 394.304 114.358C392.344 114.358 390.986 115.87 390.986 118.054C390.986 120.196 392.372 121.694 394.318 121.694C396.334 121.694 397.664 120.266 397.664 118.054ZM404.611 116.052C403.729 116.052 402.903 116.402 402.329 117.074V116.29H400.845V126.174H402.329V122.254C402.889 122.898 403.687 123.248 404.569 123.248C406.207 123.22 407.635 122.016 407.761 119.818H407.775C407.859 117.494 406.361 116.08 404.611 116.052ZM404.317 122.002C403.351 122.016 402.399 121.288 402.329 119.93V119.566C402.371 118.152 403.267 117.298 404.373 117.298C405.493 117.298 406.431 118.222 406.403 119.72C406.319 121.274 405.325 121.988 404.317 122.002ZM415.523 119.664C415.523 119.664 415.523 118.796 415.243 118.11C414.753 116.864 413.563 116.066 412.163 116.066C410.315 116.066 408.789 117.662 408.789 119.622C408.789 121.582 410.315 123.192 412.163 123.192C413.535 123.192 414.711 122.45 415.173 121.288L413.941 120.826C413.675 121.442 413.017 121.848 412.163 121.848C411.225 121.848 410.427 121.162 410.189 120.21H415.509L415.523 119.664ZM410.161 119.132C410.371 118.138 411.197 117.382 412.163 117.382C412.849 117.382 413.423 117.69 413.745 118.194C413.955 118.446 414.123 118.866 414.165 119.132H410.161ZM420.615 116.066C419.747 116.066 418.963 116.444 418.431 117.186V116.29H417.073L417.059 123.01H418.431V119.44C418.501 118.026 419.467 117.284 420.545 117.34C421.469 117.382 422.211 117.97 422.211 119.468V123.01H423.597V119.398C423.597 116.85 422.113 116.08 420.615 116.066ZM431.765 119.664C431.765 119.664 431.765 118.796 431.485 118.11C430.995 116.864 429.805 116.066 428.405 116.066C426.557 116.066 425.031 117.662 425.031 119.622C425.031 121.582 426.557 123.192 428.405 123.192C429.777 123.192 430.953 122.45 431.415 121.288L430.183 120.826C429.917 121.442 429.259 121.848 428.405 121.848C427.467 121.848 426.669 121.162 426.431 120.21H431.751L431.765 119.664ZM426.403 119.132C426.613 118.138 427.439 117.382 428.405 117.382C429.091 117.382 429.665 117.69 429.987 118.194C430.197 118.446 430.365 118.866 430.407 119.132H426.403ZM438.272 113.07V116.99C437.684 116.36 436.858 116.024 435.962 116.052C434.436 116.122 432.91 117.2 432.784 119.496H432.77C432.686 121.806 434.184 123.248 435.934 123.248C436.844 123.262 437.684 122.884 438.272 122.17V123.01H439.7V113.07H438.272ZM436.172 122.002C435.052 122.002 434.114 121.092 434.142 119.58H434.156C434.226 118.068 435.206 117.326 436.2 117.298C437.278 117.284 438.258 118.11 438.23 119.706C438.202 121.148 437.278 122.002 436.172 122.002ZM451.193 119.664C451.193 119.664 451.193 118.796 450.913 118.11C450.423 116.864 449.233 116.066 447.833 116.066C445.985 116.066 444.459 117.662 444.459 119.622C444.459 121.582 445.985 123.192 447.833 123.192C449.205 123.192 450.381 122.45 450.843 121.288L449.611 120.826C449.345 121.442 448.687 121.848 447.833 121.848C446.895 121.848 446.097 121.162 445.859 120.21H451.179L451.193 119.664ZM445.831 119.132C446.041 118.138 446.867 117.382 447.833 117.382C448.519 117.382 449.093 117.69 449.415 118.194C449.625 118.446 449.793 118.866 449.835 119.132H445.831ZM460.275 116.08C459.267 116.094 458.567 116.654 458.175 117.466C457.755 116.612 456.971 116.066 455.879 116.066C455.123 116.108 454.521 116.444 454.115 116.948V116.276H452.729V123.01H454.115V118.922C454.185 117.886 454.927 117.34 455.711 117.34C456.509 117.34 457.153 117.914 457.153 118.936L457.139 123.01H458.511V119.034C458.525 117.998 459.281 117.354 460.121 117.354C460.905 117.354 461.619 117.858 461.619 118.95L461.591 123.01H462.977V119.02C462.977 117.34 461.927 116.08 460.275 116.08ZM467.64 116.08C466.464 116.08 465.4 116.5 464.686 117.746L465.75 118.334C466.198 117.564 466.828 117.312 467.626 117.34C468.312 117.354 468.886 117.62 468.97 118.348C468.998 118.67 468.802 118.796 468.522 118.796H467.36C466.506 118.796 465.918 118.894 465.484 119.188C464.854 119.608 464.504 120.294 464.532 121.036C464.546 122.338 465.61 123.192 467.094 123.192C467.85 123.192 468.522 122.87 468.984 122.38V123.066C469.432 123.066 469.964 123.066 470.37 123.066V118.6C470.37 116.976 469.138 116.066 467.64 116.08ZM467.066 121.988C466.436 121.974 465.848 121.694 465.82 121.036C465.778 120.336 466.352 119.902 467.374 119.902C467.878 119.902 468.508 119.902 468.984 119.874V120.266C468.914 121.442 468.144 122.016 467.066 121.988ZM472.982 114.946C473.514 114.946 473.962 114.47 473.962 113.938C473.962 113.406 473.514 112.93 472.982 112.93C472.422 112.93 471.96 113.392 471.96 113.938C471.96 114.47 472.422 114.946 472.982 114.946ZM472.226 116.29V123.01H473.64V116.29H472.226ZM478.58 123.01V121.722L477.824 121.708C477.46 121.708 477.208 121.624 477.208 121.064L477.194 113.07H475.78V121.274C475.78 122.352 476.214 122.996 477.208 122.996L478.58 123.01Z" fill="#020A13"/>
<path d="M398.742 132.772C398.364 131.764 397.09 129.86 394.388 129.86C391.658 129.86 389.432 132.184 389.432 135.04C389.432 137.896 391.658 140.192 394.388 140.192C396.39 140.192 398.084 139.142 398.826 137.504L397.412 136.846C396.908 137.896 395.774 138.68 394.388 138.68C392.456 138.68 390.972 137.112 390.972 135.04C390.972 132.954 392.456 131.344 394.388 131.344C395.816 131.344 396.908 132.212 397.314 133.304L398.742 132.772ZM401.793 134.13V133.29H400.407L400.421 140.01H401.807V136.454C401.877 135.18 402.787 134.326 404.075 134.578V133.29C402.941 133.234 402.185 133.556 401.793 134.13ZM411.162 136.664C411.162 136.664 411.162 135.796 410.882 135.11C410.392 133.864 409.202 133.066 407.802 133.066C405.954 133.066 404.428 134.662 404.428 136.622C404.428 138.582 405.954 140.192 407.802 140.192C409.174 140.192 410.35 139.45 410.812 138.288L409.58 137.826C409.314 138.442 408.656 138.848 407.802 138.848C406.864 138.848 406.066 138.162 405.828 137.21H411.148L411.162 136.664ZM405.8 136.132C406.01 135.138 406.836 134.382 407.802 134.382C408.488 134.382 409.062 134.69 409.384 135.194C409.594 135.446 409.762 135.866 409.804 136.132H405.8ZM415.4 133.08C414.224 133.08 413.16 133.5 412.446 134.746L413.51 135.334C413.958 134.564 414.588 134.312 415.386 134.34C416.072 134.354 416.646 134.62 416.73 135.348C416.758 135.67 416.562 135.796 416.282 135.796H415.12C414.266 135.796 413.678 135.894 413.244 136.188C412.614 136.608 412.264 137.294 412.292 138.036C412.306 139.338 413.37 140.192 414.854 140.192C415.61 140.192 416.282 139.87 416.744 139.38V140.066C417.192 140.066 417.724 140.066 418.13 140.066V135.6C418.13 133.976 416.898 133.066 415.4 133.08ZM414.826 138.988C414.196 138.974 413.608 138.694 413.58 138.036C413.538 137.336 414.112 136.902 415.134 136.902C415.638 136.902 416.268 136.902 416.744 136.874V137.266C416.674 138.442 415.904 139.016 414.826 138.988ZM423.15 134.494V133.29H421.778V131.162H420.35V133.29H419.16V134.494H420.35V138.274C420.35 139.352 420.798 139.996 421.778 139.996L423.15 140.01V138.722L422.394 138.708C422.03 138.708 421.778 138.624 421.778 138.064V134.494H423.15ZM430.685 136.664C430.685 136.664 430.685 135.796 430.405 135.11C429.915 133.864 428.725 133.066 427.325 133.066C425.477 133.066 423.951 134.662 423.951 136.622C423.951 138.582 425.477 140.192 427.325 140.192C428.697 140.192 429.873 139.45 430.335 138.288L429.103 137.826C428.837 138.442 428.179 138.848 427.325 138.848C426.387 138.848 425.589 138.162 425.351 137.21H430.671L430.685 136.664ZM425.323 136.132C425.533 135.138 426.359 134.382 427.325 134.382C428.011 134.382 428.585 134.69 428.907 135.194C429.117 135.446 429.285 135.866 429.327 136.132H425.323ZM433.246 139.072C433.246 138.554 432.812 138.12 432.294 138.12C431.776 138.12 431.342 138.554 431.342 139.072C431.342 139.52 431.664 139.898 432.112 139.996L431.902 141.004H432.406L433.12 139.52C433.204 139.394 433.246 139.24 433.246 139.072ZM443.049 134.802C442.783 133.752 441.761 133.066 440.431 133.066C439.087 133.066 438.037 134.018 438.037 135.208C438.037 136.146 438.625 136.888 439.591 137.126C439.801 137.182 440.263 137.308 440.865 137.434C441.439 137.56 441.649 137.798 441.649 138.162C441.649 138.68 441.229 138.974 440.529 138.974C439.745 138.974 439.227 138.624 439.129 138.134L437.799 138.358C438.023 139.478 439.115 140.192 440.529 140.192C441.957 140.192 442.993 139.352 442.993 138.134C442.993 137.182 442.531 136.44 441.355 136.16C441.005 136.09 440.529 135.978 440.025 135.852C439.549 135.74 439.325 135.446 439.367 135.068C439.409 134.592 439.857 134.284 440.445 134.284C441.089 134.27 441.607 134.578 441.747 135.096L443.049 134.802ZM450.838 136.664C450.838 136.664 450.838 135.796 450.558 135.11C450.068 133.864 448.878 133.066 447.478 133.066C445.63 133.066 444.104 134.662 444.104 136.622C444.104 138.582 445.63 140.192 447.478 140.192C448.85 140.192 450.026 139.45 450.488 138.288L449.256 137.826C448.99 138.442 448.332 138.848 447.478 138.848C446.54 138.848 445.742 138.162 445.504 137.21H450.824L450.838 136.664ZM445.476 136.132C445.686 135.138 446.512 134.382 447.478 134.382C448.164 134.382 448.738 134.69 449.06 135.194C449.27 135.446 449.438 135.866 449.48 136.132H445.476ZM455.93 133.066C455.062 133.066 454.278 133.444 453.746 134.186V133.29H452.388L452.374 140.01H453.746V136.44C453.816 135.026 454.782 134.284 455.86 134.34C456.784 134.382 457.526 134.97 457.526 136.468V140.01H458.912V136.398C458.912 133.85 457.428 133.08 455.93 133.066ZM465.848 130.07V133.99C465.26 133.36 464.434 133.024 463.538 133.052C462.012 133.122 460.486 134.2 460.36 136.496H460.346C460.262 138.806 461.76 140.248 463.51 140.248C464.42 140.262 465.26 139.884 465.848 139.17V140.01H467.276V130.07H465.848ZM463.748 139.002C462.628 139.002 461.69 138.092 461.718 136.58H461.732C461.802 135.068 462.782 134.326 463.776 134.298C464.854 134.284 465.834 135.11 465.806 136.706C465.778 138.148 464.854 139.002 463.748 139.002ZM475.269 133.08C474.093 133.08 473.029 133.5 472.315 134.746L473.379 135.334C473.827 134.564 474.457 134.312 475.255 134.34C475.941 134.354 476.515 134.62 476.599 135.348C476.627 135.67 476.431 135.796 476.151 135.796H474.989C474.135 135.796 473.547 135.894 473.113 136.188C472.483 136.608 472.133 137.294 472.161 138.036C472.175 139.338 473.239 140.192 474.723 140.192C475.479 140.192 476.151 139.87 476.613 139.38V140.066C477.061 140.066 477.593 140.066 477.999 140.066V135.6C477.999 133.976 476.767 133.066 475.269 133.08ZM474.695 138.988C474.065 138.974 473.477 138.694 473.449 138.036C473.407 137.336 473.981 136.902 475.003 136.902C475.507 136.902 476.137 136.902 476.613 136.874V137.266C476.543 138.442 475.773 139.016 474.695 138.988ZM483.397 133.066C482.529 133.066 481.745 133.444 481.213 134.186V133.29H479.855L479.841 140.01H481.213V136.44C481.283 135.026 482.249 134.284 483.327 134.34C484.251 134.382 484.993 134.97 484.993 136.468V140.01H486.379V136.398C486.379 133.85 484.895 133.08 483.397 133.066ZM493.315 130.07V133.99C492.727 133.36 491.901 133.024 491.005 133.052C489.479 133.122 487.953 134.2 487.827 136.496H487.813C487.729 138.806 489.227 140.248 490.977 140.248C491.887 140.262 492.727 139.884 493.315 139.17V140.01H494.743V130.07H493.315ZM491.215 139.002C490.095 139.002 489.157 138.092 489.185 136.58H489.199C489.269 135.068 490.249 134.326 491.243 134.298C492.321 134.284 493.301 135.11 493.273 136.706C493.245 138.148 492.321 139.002 491.215 139.002ZM503.212 134.494V133.29H501.84V131.162H500.412V133.29H499.222V134.494H500.412V138.274C500.412 139.352 500.86 139.996 501.84 139.996L503.212 140.01V138.722L502.456 138.708C502.092 138.708 501.84 138.624 501.84 138.064V134.494H503.212ZM506.205 134.13V133.29H504.819L504.833 140.01H506.219V136.454C506.289 135.18 507.199 134.326 508.487 134.578V133.29C507.353 133.234 506.597 133.556 506.205 134.13ZM512.361 133.08C511.185 133.08 510.121 133.5 509.407 134.746L510.471 135.334C510.919 134.564 511.549 134.312 512.347 134.34C513.033 134.354 513.607 134.62 513.691 135.348C513.719 135.67 513.523 135.796 513.243 135.796H512.081C511.227 135.796 510.639 135.894 510.205 136.188C509.575 136.608 509.225 137.294 509.253 138.036C509.267 139.338 510.331 140.192 511.815 140.192C512.571 140.192 513.243 139.87 513.705 139.38V140.066C514.153 140.066 514.685 140.066 515.091 140.066V135.6C515.091 133.976 513.859 133.066 512.361 133.08ZM511.787 138.988C511.157 138.974 510.569 138.694 510.541 138.036C510.499 137.336 511.073 136.902 512.095 136.902C512.599 136.902 513.229 136.902 513.705 136.874V137.266C513.635 138.442 512.865 139.016 511.787 138.988ZM522.952 135.18C522.518 133.92 521.3 133.108 519.858 133.108C517.968 133.108 516.4 134.704 516.4 136.678C516.4 138.638 517.968 140.192 519.858 140.192C521.23 140.192 522.378 139.492 522.84 138.344L521.622 137.868C521.412 138.386 520.838 138.946 519.858 138.946C518.584 138.946 517.8 137.924 517.8 136.678C517.8 135.418 518.584 134.382 519.858 134.382C520.88 134.382 521.454 134.942 521.706 135.628L522.952 135.18ZM528.513 140.01H530.081L527.281 136.188L530.081 133.29H528.345L525.811 135.894V130.07H524.397V140.01H525.811V137.7L526.385 137.098L528.513 140.01ZM532.031 140.206C532.549 140.206 532.983 139.772 532.983 139.268C532.983 138.736 532.549 138.316 532.031 138.316C531.499 138.316 531.079 138.736 531.079 139.268C531.079 139.772 531.499 140.206 532.031 140.206ZM535.695 140.206C536.213 140.206 536.647 139.772 536.647 139.268C536.647 138.736 536.213 138.316 535.695 138.316C535.163 138.316 534.743 138.736 534.743 139.268C534.743 139.772 535.163 140.206 535.695 140.206Z" fill="#007BFF"/>
<path d="M165 182V182C165 209.062 186.938 231 214 231H244C271.614 231 294 253.386 294 281V295" stroke="#020A13" stroke-width="2" stroke-dasharray="4 4"/>
<path d="M425 182V182C425 209.062 403.062 231 376 231H346C318.386 231 296 253.386 296 281V295" stroke="#020A13" stroke-width="2" stroke-dasharray="4 4"/>
<circle opacity="0.2" cx="293.5" cy="338.619" r="34.3809" fill="#020A13"/>
<circle cx="293.5" cy="338.619" r="16.5" fill="#020A13"/>
<path d="M298.75 337.869H294.25V333.369C294.25 333.17 294.171 332.979 294.03 332.839C293.89 332.698 293.699 332.619 293.5 332.619C293.301 332.619 293.11 332.698 292.97 332.839C292.829 332.979 292.75 333.17 292.75 333.369V337.869H288.25C288.051 337.869 287.86 337.948 287.72 338.089C287.579 338.229 287.5 338.42 287.5 338.619C287.5 338.818 287.579 339.009 287.72 339.149C287.86 339.29 288.051 339.369 288.25 339.369H292.75V343.869C292.75 344.068 292.829 344.259 292.97 344.399C293.11 344.54 293.301 344.619 293.5 344.619C293.699 344.619 293.89 344.54 294.03 344.399C294.171 344.259 294.25 344.068 294.25 343.869V339.369H298.75C298.949 339.369 299.14 339.29 299.28 339.149C299.421 339.009 299.5 338.818 299.5 338.619C299.5 338.42 299.421 338.229 299.28 338.089C299.14 337.948 298.949 337.869 298.75 337.869Z" fill="white"/>
<path d="M229.845 78.2914L213.054 21.9258C212.887 21.3677 213.648 21.0242 213.957 21.5177L235.612 56.1074C235.813 56.4287 236.284 56.418 236.471 56.088L242.393 45.6009C242.605 45.2265 243.159 45.2759 243.301 45.6818L262.874 101.698C263.07 102.259 262.298 102.632 261.98 102.13L238.961 65.7857C238.761 65.4691 238.296 65.4775 238.107 65.8013L230.756 78.4006C230.535 78.7787 229.97 78.7109 229.845 78.2914Z" fill="#FEBD00"/>
<path d="M261.723 66.4055L264.007 39.1522C264.055 38.5719 264.889 38.5291 264.996 39.1014L268.403 57.1828C268.473 57.5554 268.916 57.7174 269.21 57.4779L273.187 54.2387C273.52 53.9672 274.018 54.2152 274.002 54.6449L272.993 81.9304C272.971 82.5246 272.116 82.5908 272.002 82.0071L268.351 63.1649C268.279 62.7969 267.843 62.6353 267.549 62.8679L262.532 66.8393C262.188 67.111 261.686 66.8417 261.723 66.4055Z" fill="#FEBD00"/>
<path d="M237 364C237.458 362.627 238.844 362.578 240 362" stroke="#020A13" stroke-width="4" stroke-linecap="round"/>
<path d="M246 342C229.36 339.114 213.081 335.873 197 331" stroke="#020A13" stroke-width="4" stroke-linecap="round"/>
<path d="M252 325C256.551 324.716 246.112 321.224 245 319" stroke="#020A13" stroke-width="4" stroke-linecap="round"/>
<path d="M262 306C261.232 302.158 256.12 300.106 254.222 297C252.542 294.251 250.677 291.795 249 289" stroke="#020A13" stroke-width="4" stroke-linecap="round"/>
<path d="M327 307C329.492 306.751 330.918 304.249 333 303" stroke="#020A13" stroke-width="4" stroke-linecap="round"/>
<defs>
<linearGradient id="paint0_linear_1566_379" x1="107" y1="506" x2="159" y2="-96" gradientUnits="userSpaceOnUse">
<stop stop-color="#FDFFB6"/>
<stop offset="1" stop-color="#FDFFB6" stop-opacity="0"/>
</linearGradient>
</defs>
</svg>
