<svg width="559" height="430" viewBox="0 0 559 430" fill="none" xmlns="http://www.w3.org/2000/svg">
<rect x="206.796" y="42.2468" width="63.584" height="68" rx="5" transform="rotate(-4.74551 206.796 42.2468)" stroke="#020A13" stroke-width="2"/>
<rect x="227" y="43.375" width="294" height="380" rx="50" fill="url(#paint0_linear_1566_523)" fill-opacity="0.5"/>
<path d="M339.393 429.14C376.015 429.14 405.703 399.392 405.703 362.695C405.703 325.999 376.015 296.25 339.393 296.25C302.772 296.25 273.084 325.999 273.084 362.695C273.084 399.392 302.772 429.14 339.393 429.14Z" fill="#FFB6C8"/>
<path d="M368.788 297.958L309.925 296.581C307.838 296.532 305.856 297.513 304.627 299.206L269.965 346.898C266.87 351.158 260.244 350.035 258.751 345.001L242.053 288.615C241.462 286.616 239.921 285.039 237.936 284.398L181.953 266.332C176.954 264.718 175.994 258.07 180.329 255.079L228.873 221.607C230.594 220.418 231.624 218.465 231.627 216.376L231.692 157.519C231.697 152.262 237.732 149.276 241.903 152.464L288.602 188.162C290.259 189.428 292.434 189.795 294.422 189.148L350.442 170.837C355.447 169.201 360.134 174.003 358.375 178.964L338.692 234.499C337.996 236.468 338.31 238.651 339.534 240.338L374.094 287.879C377.181 292.124 374.046 298.082 368.788 297.958Z" fill="#FFC849"/>
<path d="M476.031 78.3614C495.111 84.3846 515.49 73.8143 521.549 54.7539L452.455 32.9435C446.397 52.004 456.952 72.3394 476.031 78.3614Z" fill="#5774CD"/>
<path d="M155.938 190.451L168.37 205.437L200.711 177.74L189.083 163.013L155.938 190.451Z" fill="#FFB476"/>
<path d="M196.695 174.97C196.49 174.97 196.289 174.875 196.16 174.695L188.549 164.048C188.337 163.751 188.406 163.342 188.7 163.129C188.993 162.919 189.404 162.981 189.617 163.28L197.227 173.927C197.44 174.223 197.373 174.633 197.077 174.846C196.964 174.929 196.829 174.97 196.695 174.97Z" fill="#000300"/>
<path d="M173.041 190.53C172.86 190.53 172.683 190.458 172.554 190.315L165.591 182.61C165.349 182.341 165.368 181.923 165.637 181.681C165.909 181.435 166.323 181.457 166.568 181.727L173.53 189.431C173.772 189.7 173.753 190.118 173.484 190.363C173.358 190.474 173.199 190.53 173.041 190.53Z" fill="#000300"/>
<path d="M191.406 165.958L189.083 163.013L155.938 190.451L159.183 194.361L191.406 165.958Z" fill="#000300"/>
<path d="M96.7566 381.94L62.1645 424.846C60.2282 427.25 56.7026 427.595 54.336 425.614L8.49198 387.233C6.67672 385.715 6.0824 383.177 7.03171 381.008C8.5377 377.564 12.7303 376.243 15.9332 378.202L44.1302 395.452C48.8633 398.346 55.011 397.198 58.3834 392.789L86.6073 355.9L96.7566 381.94Z" fill="#FFB476"/>
<path d="M96.7579 381.94L90.2284 365.178L82.5586 361.195L74.4531 371.791L88.9806 391.587L96.7579 381.94Z" fill="black"/>
<path d="M108.454 68.8304C108.454 68.8304 97.1562 65.9254 92.2994 82.2315C87.4425 98.5376 94.0474 103.895 99.7244 105.099C106.749 106.587 115.938 103.194 117.221 98.8853L127.588 79.437L108.454 68.8304Z" fill="#FFB476"/>
<path d="M144.281 200.632C144.235 200.632 144.19 200.627 144.141 200.616C143.945 200.573 143.781 200.444 143.692 200.263C143.601 200.077 134.36 181.322 125.946 161.919C108.775 122.333 111.66 118.676 112.612 117.474C113.405 116.469 114.051 115.52 114.678 114.604C116.17 112.413 117.579 110.346 120.701 107.846C120.984 107.619 121.395 107.662 121.627 107.951C121.852 108.234 121.807 108.649 121.524 108.875C118.555 111.252 117.2 113.243 115.764 115.348C115.127 116.286 114.465 117.253 113.642 118.293C109.643 123.351 129.772 169.001 144.504 198.94L196.383 156.567L184.83 146.766C184.553 146.532 184.518 146.117 184.752 145.839C184.989 145.559 185.403 145.529 185.677 145.761L197.835 156.074C197.983 156.201 198.069 156.387 198.069 156.583C198.066 156.78 197.978 156.963 197.827 157.087L144.695 200.484C144.577 200.581 144.432 200.632 144.281 200.632Z" fill="#000300"/>
<path d="M95.1895 82.4186C95.1895 82.4186 96.7277 78.3819 100.988 78.8319C105.247 79.2846 106.592 82.0548 106.592 82.0548C106.592 82.0548 105.021 85.938 100.122 85.5473C95.2217 85.1592 95.1895 82.4186 95.1895 82.4186Z" fill="white"/>
<path d="M92.3143 82.6704L88.3477 81.2422L91.2171 87.8067L92.3143 82.6704Z" fill="#FFB476"/>
<path d="M110.296 66.523C110.296 66.523 122.508 65.6714 129.231 75.0681C134.876 82.9585 131.552 86.335 133.945 94.7697C136.933 105.304 148.938 106.457 148.465 92.1288C148.465 92.1288 156.925 108.912 142.484 108.651C140.717 108.618 133.424 105.654 128.785 106.853C121.685 108.691 114.534 115.153 114.534 115.153L108.023 108.75L122.747 81.6245L110.296 66.523Z" fill="#5774CD"/>
<path d="M90.6116 92.3613L97.6064 93.1024C97.6064 93.1024 94.5864 96.8697 91.2382 97.1742C91.2382 97.1742 90.5955 95.3175 90.6116 92.3613Z" fill="#5774CD"/>
<path d="M106.768 77.5768C106.953 77.6334 107.163 77.5903 107.314 77.4502C107.542 77.2373 107.556 76.8789 107.343 76.6471C104.32 73.373 100.617 73.346 100.461 73.3487C100.149 73.3487 99.8965 73.6047 99.8965 73.9173C99.8965 74.2299 100.149 74.4832 100.464 74.4832C100.502 74.4832 103.842 74.5264 106.512 77.4179C106.585 77.496 106.673 77.5499 106.768 77.5768Z" fill="black"/>
<path d="M111.371 66.5343C103.968 66.5019 99.1137 65.6369 105.573 76.4915C108.459 81.3394 117.914 87.1601 117.914 87.1601L115.857 93.2907C115.857 93.2907 106.453 91.9649 101.833 100.607C98.7775 106.32 110.298 113.828 107.329 117.546C102.989 122.979 95.6875 115.469 96.2792 113.054C96.2792 113.054 92.1054 123.208 103.078 123.292C114.053 123.375 119.684 112.874 119.684 112.874L127.631 83.2635L119.679 70.9106C119.679 70.9106 113.716 66.545 111.371 66.5343Z" fill="#5774CD"/>
<path d="M116.053 88.2683C116.053 88.2683 119.52 85.1612 122.282 88.0715C125.044 90.9792 121.766 96.9374 118.428 96.6059C114.677 96.2367 113.746 93.2321 113.746 93.2321L116.053 88.2683Z" fill="#FFB476"/>
<path d="M115.814 91.9416C115.986 91.9928 116.183 91.9605 116.333 91.8392C117.974 90.508 121.056 90.5134 121.088 90.5134C121.4 90.5161 121.655 90.2628 121.658 89.9502C121.661 89.6376 121.408 89.3816 121.096 89.3789C120.953 89.3789 117.576 89.3735 115.623 90.9581C115.381 91.1548 115.344 91.5132 115.54 91.7557C115.61 91.8473 115.709 91.9093 115.814 91.9416Z" fill="black"/>
<path d="M118.279 93.9482C118.4 93.9833 118.534 93.9806 118.658 93.9267C118.946 93.8054 119.083 93.474 118.962 93.1829L117.916 90.6768C117.795 90.3884 117.464 90.251 117.176 90.3723C116.888 90.4935 116.751 90.825 116.872 91.116L117.918 93.6222C117.988 93.7866 118.123 93.9024 118.279 93.9482Z" fill="black"/>
<path d="M95.1895 82.4186C95.1895 82.4186 96.7277 78.3819 100.988 78.8319C101.168 78.8508 101.34 78.875 101.507 78.902C102.399 80.058 102.572 81.7719 101.813 83.2837C101.27 84.3697 100.356 85.1269 99.3444 85.4584C95.219 84.8574 95.1895 82.4186 95.1895 82.4186Z" fill="black"/>
<path d="M203.357 174.97L160.993 202.823L167.428 215.475L75.3555 368.671L101.097 387.521L209.131 245.331L224.325 235.813C235.87 228.582 238.011 212.616 228.781 202.589L203.357 174.97Z" fill="#FFC849"/>
<path d="M203.576 174.97L161.211 202.823L167.647 215.475L75.5742 368.671L101.316 387.521L209.349 245.331L224.544 235.813C236.089 228.582 238.229 212.616 229 202.589L203.576 174.97Z" fill="#FD521B"/>
<path d="M162.617 214.427C162.399 214.427 162.186 214.319 162.063 214.122C161.866 213.815 161.958 213.408 162.264 213.214L211.97 181.521C212.274 181.324 212.683 181.416 212.876 181.723C213.073 182.03 212.981 182.437 212.675 182.631L162.969 214.324C162.859 214.394 162.738 214.427 162.617 214.427Z" fill="#000300"/>
<path d="M182.745 218.553C182.711 218.553 182.678 218.55 182.641 218.545L167.54 216.13C167.183 216.073 166.938 215.737 166.997 215.375C167.054 215.02 167.387 214.78 167.75 214.831L182.85 217.246C183.208 217.302 183.453 217.639 183.394 218C183.345 218.318 183.066 218.553 182.745 218.553Z" fill="#000300"/>
<path d="M180.767 232.415C180.59 232.415 180.412 232.342 180.283 232.202L169.413 220.359C169.169 220.092 169.185 219.674 169.454 219.426C169.723 219.184 170.139 219.197 170.384 219.467L181.254 231.31C181.499 231.577 181.483 231.995 181.214 232.243C181.085 232.358 180.926 232.415 180.767 232.415Z" fill="#000300"/>
<path d="M116.741 385.452C116.615 385.452 116.486 385.417 116.373 385.339L77.8949 359.296C77.5937 359.094 77.5157 358.685 77.7174 358.383C77.9191 358.078 78.3278 358 78.629 358.205L117.107 384.247C117.408 384.449 117.486 384.859 117.285 385.161C117.161 385.349 116.954 385.452 116.741 385.452Z" fill="#000300"/>
<path d="M208.633 225.98L157.637 173.181L179.172 151.286L224.882 214.999L208.633 225.98Z" fill="#FFB476"/>
<path d="M182.55 155.776L179.172 151.286L157.637 173.181L164.102 179.872L182.55 155.776Z" fill="#000300"/>
<path d="M152.861 179.062C152.858 179.062 152.855 179.062 152.853 179.062C152.675 179.059 152.503 178.986 152.379 178.854C124.664 149.365 112.817 128.079 117.171 115.592C119.032 110.256 124.034 106.742 131.258 105.699C148.816 103.134 185.764 141.588 187.326 143.224C187.574 143.483 187.568 143.887 187.321 144.14L153.329 178.865C153.205 178.992 153.036 179.062 152.861 179.062ZM133.033 106.893C132.484 106.893 131.957 106.928 131.446 107.003C127.557 107.564 120.694 109.482 118.414 116.025C115.552 124.228 119.231 141.54 152.871 177.45L185.933 143.679C181.77 139.408 149.534 106.893 133.033 106.893Z" fill="#000300"/>
<path d="M198.726 241.36C198.726 241.36 191.99 248.587 191.116 255.294C190.462 260.307 190.962 267.61 191.255 270.981C191.344 272.007 192.221 272.784 193.248 272.746C194.808 272.692 196.115 271.552 196.387 270.011L197.365 256.871L213.808 234.208L212.06 223.237L198.726 241.36Z" fill="#FFB476"/>
<path d="M204.577 239.253C204.577 239.253 197.841 246.481 196.967 253.188C196.332 258.06 196.787 265.096 197.082 268.583C197.185 269.772 198.199 270.672 199.387 270.631C200.778 270.583 201.945 269.564 202.187 268.193L204.021 257.788L211.607 234.117L204.577 239.253Z" fill="#FFB476"/>
<path d="M199.429 233.036C196.374 236.362 191.313 243.064 188.487 250.833C186.494 256.309 186.744 263.272 187.067 266.91C187.191 268.295 188.374 269.343 189.761 269.295C190.974 269.252 191.991 268.368 192.201 267.171L194.088 256.462L212.058 223.238C212.056 223.236 203.738 228.35 199.429 233.036Z" fill="#FFB476"/>
<path d="M209.116 239.481C209.116 239.481 197.24 246.369 201.406 260.91C201.825 262.376 203.412 263.163 204.826 262.602C204.826 262.602 206.609 261.718 206.704 259.446C206.841 256.148 206.609 253.55 212.593 245.787C215.21 242.391 221.855 237.279 225.238 233.641C232.244 226.101 230.493 223.805 224.883 214.999C219.271 206.192 196.877 213.414 196.877 213.414L209.218 228.761L209.116 239.481Z" fill="#FFB476"/>
<path d="M201.971 257.689C201.232 257.809 200.799 258.927 201.003 260.186C201.208 261.445 201.972 262.368 202.711 262.247C203.45 262.127 203.883 261.009 203.679 259.75C203.474 258.491 202.71 257.568 201.971 257.689Z" fill="black"/>
<path d="M198.275 264.525C197.527 264.556 196.972 265.824 197.035 267.357C197.098 268.89 197.755 270.108 198.503 270.077C199.251 270.046 199.806 268.779 199.743 267.245C199.681 265.712 199.023 264.494 198.275 264.525Z" fill="black"/>
<path d="M192.433 266.267C191.709 266.297 191.177 267.675 191.246 269.345C191.314 271.015 191.957 272.344 192.681 272.315C193.405 272.285 193.937 270.907 193.868 269.237C193.8 267.567 193.157 266.237 192.433 266.267Z" fill="black"/>
<path d="M188.105 263.346C187.425 263.374 186.922 264.561 186.981 265.997C187.04 267.434 187.638 268.576 188.318 268.548C188.998 268.52 189.501 267.333 189.442 265.896C189.383 264.459 188.784 263.318 188.105 263.346Z" fill="black"/>
<path d="M202.676 263.794C202.668 263.794 202.657 263.794 202.647 263.794C201.877 263.759 200.826 263.292 200.207 261.258C198.68 256.246 200.794 245.205 206.734 240.81C207.025 240.597 207.439 240.656 207.654 240.95C207.869 241.241 207.807 241.656 207.514 241.872C201.617 246.237 200.224 256.806 201.463 260.875C201.643 261.463 202.041 262.449 202.706 262.479C203.069 262.495 203.348 262.802 203.335 263.166C203.319 263.519 203.028 263.794 202.676 263.794Z" fill="#000300"/>
<path d="M196.169 265.944C195.828 265.944 195.54 265.683 195.513 265.338C195.454 264.57 194.139 246.472 203.318 238.969C203.597 238.743 204.011 238.781 204.243 239.064C204.471 239.347 204.428 239.762 204.149 239.991C195.505 247.054 196.81 265.049 196.826 265.233C196.853 265.594 196.584 265.912 196.221 265.941C196.204 265.944 196.188 265.944 196.169 265.944Z" fill="#000300"/>
<path d="M190.343 269.215C190.001 269.215 189.713 268.953 189.687 268.608C189.627 267.832 188.294 249.502 196.517 238.588C196.735 238.297 197.149 238.238 197.437 238.459C197.728 238.677 197.784 239.09 197.566 239.381C189.646 249.893 190.983 268.32 190.999 268.506C191.026 268.867 190.757 269.185 190.394 269.215C190.375 269.215 190.359 269.215 190.343 269.215Z" fill="#000300"/>
<path d="M18.9841 49.3905H52.9684L70.5805 60.7274L68.0633 49.3905H66.8128C73.3182 49.3905 78.5918 44.6665 78.5918 38.835V21.3701C78.5918 15.5413 73.3182 10.8174 66.8128 10.8174H18.9841C12.4787 10.8174 7.20508 15.5413 7.20508 21.3701V38.8377C7.20508 44.6665 12.4787 49.3905 18.9841 49.3905Z" fill="white"/>
<path d="M76.5482 53.8153C76.3044 53.8822 76.0421 53.8815 75.7917 53.8021L56.1859 47.645L23.7935 56.5303C16.817 58.444 9.72515 54.8537 7.98865 48.5231L3.36865 31.6803C1.63357 25.3549 5.90041 18.6461 12.8769 16.7325L58.9992 4.08107C65.9756 2.16742 73.0682 5.76026 74.8033 12.0857L79.424 28.931C80.9238 34.3989 77.9424 40.1515 72.6004 42.8491L77.3804 51.8881C77.635 52.3688 77.5736 52.9584 77.2265 53.3806C77.0481 53.5944 76.8102 53.7435 76.5482 53.8153ZM13.5897 19.3313C8.03967 20.8537 4.61912 26.0728 5.96213 30.969L10.5828 47.8143C11.9258 52.7104 17.5313 55.4565 23.0813 53.9341L55.855 44.9442C56.104 44.876 56.3671 44.8793 56.6142 44.9568L73.4771 50.2539L70.0825 43.836L69.9191 43.8808C69.2033 44.0771 68.4627 43.6543 68.2659 42.9371C68.0692 42.2198 68.4905 41.4783 69.2063 41.282C74.7563 39.7596 78.1761 34.5378 76.8331 29.6417L72.2124 12.7964C70.8694 7.90028 65.2647 5.15676 59.7146 6.67914L13.5897 19.3313V19.3313Z" fill="black"/>
<path d="M39.0728 21.4356C39.0728 21.4356 35.3397 18.3687 31.2283 20.2761C27.1175 22.1861 26.3534 27.4115 27.7968 30.2235C29.1514 32.8642 30.5037 36.9502 42.4327 41.6754C43.9033 42.2584 45.581 41.787 46.5417 40.5315C49.1231 37.1633 53.7651 30.3991 53.435 25.7086C52.9787 19.2363 50.3117 17.1484 46.7309 16.3954C43.1508 15.6449 39.648 19.2324 39.0728 21.4356Z" fill="#FD521B"/>
<rect x="192.804" y="35.8125" width="279.406" height="94.7578" rx="7" transform="rotate(-4.15877 192.804 35.8125)" fill="#020A13" stroke="#020A13" stroke-width="2"/>
<rect x="184.804" y="28.8125" width="279.406" height="94.7578" rx="7" transform="rotate(-4.15877 184.804 28.8125)" fill="white" stroke="#020A13" stroke-width="2"/>
<rect x="209.59" y="39.416" width="63.25" height="70.4512" rx="10" fill="#CEE3F9"/>
<g clip-path="url(#clip0_1566_523)">
<path opacity="0.15" d="M241.215 79.0068C248.671 79.0068 254.715 78.3353 254.715 77.5068C254.715 76.6784 248.671 76.0068 241.215 76.0068C233.759 76.0068 227.715 76.6784 227.715 77.5068C227.715 78.3353 233.759 79.0068 241.215 79.0068Z" fill="#45413C"/>
<path d="M264.114 56.607C264.114 54.407 262.514 52.607 260.514 52.107C260.514 51.907 260.614 51.707 260.614 51.507C260.614 49.007 258.514 46.907 256.014 46.907C255.014 46.907 254.214 47.207 253.414 47.707L253.414 47.407C253.414 44.907 251.314 42.807 248.814 42.807C247.514 42.807 246.414 43.307 245.614 44.107C245.114 42.207 243.314 40.707 241.214 40.707C239.114 40.707 237.314 42.107 236.814 44.107C236.014 43.307 234.814 42.807 233.614 42.807C231.114 42.807 229.014 44.907 229.014 47.407L229.014 47.707C228.314 47.207 227.414 46.907 226.414 46.907C223.914 46.907 221.814 49.007 221.814 51.507C221.814 51.707 221.814 51.907 221.914 52.107C219.814 52.507 218.314 54.407 218.314 56.607C218.314 58.907 220.014 60.807 222.214 61.107C222.014 61.607 221.914 62.107 221.914 62.707C221.914 65.207 224.014 67.307 226.514 67.307C227.514 67.307 228.314 67.007 229.114 66.507L229.114 66.807C229.114 69.307 231.214 71.407 233.714 71.407C235.114 71.407 236.314 70.807 237.214 69.807C237.914 71.407 239.514 72.507 241.314 72.507C243.114 72.507 244.714 71.407 245.414 69.807C246.214 70.807 247.514 71.407 248.914 71.407C251.414 71.407 253.514 69.307 253.514 66.807L253.514 66.507C254.214 67.007 255.114 67.307 256.114 67.307C258.614 67.307 260.714 65.207 260.714 62.707C260.714 62.107 260.614 61.607 260.414 61.107C262.414 60.807 264.114 58.907 264.114 56.607V56.607Z" fill="white"/>
<path d="M261.514 54.8074C261.714 55.3074 261.814 55.9074 261.814 56.5074C261.814 59.2074 259.614 61.4074 256.914 61.4074C255.914 61.4074 254.914 61.1074 254.214 60.6074L254.214 60.9074C254.214 63.6074 252.014 65.8074 249.314 65.8074C247.814 65.8074 246.514 65.1074 245.614 64.0074C244.814 65.7074 243.114 66.8074 241.214 66.8074C239.314 66.8074 237.614 65.6074 236.814 64.0074C235.914 65.1074 234.614 65.8074 233.114 65.8074C230.414 65.8074 228.214 63.6074 228.214 60.9074L228.214 60.6074C227.414 61.1074 226.514 61.4074 225.514 61.4074C222.814 61.4074 220.614 59.2074 220.614 56.5074C220.614 55.9074 220.714 55.3074 220.914 54.8074C220.214 54.7074 219.614 54.4074 219.114 54.1074C218.614 54.8074 218.314 55.7074 218.314 56.6074C218.314 58.9074 220.014 60.8074 222.214 61.1074C222.014 61.6074 221.914 62.1074 221.914 62.7074C221.914 65.2074 224.014 67.3074 226.514 67.3074C227.514 67.3074 228.314 67.0074 229.114 66.5074L229.114 66.8074C229.114 69.3074 231.214 71.4074 233.714 71.4074C235.114 71.4074 236.314 70.8074 237.214 69.8074C237.914 71.4074 239.514 72.5074 241.314 72.5074C243.114 72.5074 244.714 71.4074 245.414 69.8074C246.214 70.8074 247.514 71.4074 248.914 71.4074C251.414 71.4074 253.514 69.3074 253.514 66.8074L253.514 66.5074C254.214 67.0074 255.114 67.3074 256.114 67.3074C258.614 67.3074 260.714 65.2074 260.714 62.7074C260.714 62.1074 260.614 61.6074 260.414 61.1074C262.614 60.8074 264.314 58.9074 264.314 56.6074C264.314 55.7074 264.014 54.8074 263.514 54.1074C262.814 54.4074 262.214 54.7074 261.514 54.8074V54.8074Z" fill="#F0F0F0"/>
<path d="M264.114 56.607C264.114 54.407 262.514 52.607 260.514 52.107C260.514 51.907 260.614 51.707 260.614 51.507C260.614 49.007 258.514 46.907 256.014 46.907C255.014 46.907 254.214 47.207 253.414 47.707L253.414 47.407C253.414 44.907 251.314 42.807 248.814 42.807C247.514 42.807 246.414 43.307 245.614 44.107C245.114 42.207 243.314 40.707 241.214 40.707C239.114 40.707 237.314 42.107 236.814 44.107C236.014 43.307 234.814 42.807 233.614 42.807C231.114 42.807 229.014 44.907 229.014 47.407L229.014 47.707C228.314 47.207 227.414 46.907 226.414 46.907C223.914 46.907 221.814 49.007 221.814 51.507C221.814 51.707 221.814 51.907 221.914 52.107C219.814 52.507 218.314 54.407 218.314 56.607C218.314 58.907 220.014 60.807 222.214 61.107C222.014 61.607 221.914 62.107 221.914 62.707C221.914 65.207 224.014 67.307 226.514 67.307C227.514 67.307 228.314 67.007 229.114 66.507L229.114 66.807C229.114 69.307 231.214 71.407 233.714 71.407C235.114 71.407 236.314 70.807 237.214 69.807C237.914 71.407 239.514 72.507 241.314 72.507C243.114 72.507 244.714 71.407 245.414 69.807C246.214 70.807 247.514 71.407 248.914 71.407C251.414 71.407 253.514 69.307 253.514 66.807L253.514 66.507C254.214 67.007 255.114 67.307 256.114 67.307C258.614 67.307 260.714 65.207 260.714 62.707C260.714 62.107 260.614 61.607 260.414 61.107C262.414 60.807 264.114 58.907 264.114 56.607V56.607Z" stroke="#45413C" stroke-miterlimit="10" stroke-linecap="round" stroke-linejoin="round"/>
<path d="M234.315 59.4066C234.978 59.4066 235.515 59.0485 235.515 58.6066C235.515 58.1648 234.978 57.8066 234.315 57.8066C233.652 57.8066 233.115 58.1648 233.115 58.6066C233.115 59.0485 233.652 59.4066 234.315 59.4066Z" fill="#FFB0CA"/>
<path d="M244.316 60.6064C244.816 60.6064 245.216 61.1064 245.116 61.6064C244.716 63.3064 243.116 64.6064 241.216 64.6064C239.316 64.6064 237.716 63.3064 237.316 61.6064C237.216 61.1064 237.616 60.6064 238.116 60.6064L244.316 60.6064V60.6064Z" fill="#FFB0CA" stroke="#45413C" stroke-miterlimit="10" stroke-linecap="round" stroke-linejoin="round"/>
<path d="M241.216 64.7061C242.516 64.7061 243.616 64.1061 244.416 63.1061C243.616 62.6061 242.516 62.2061 241.216 62.2061C239.916 62.2061 238.816 62.5061 238.016 63.1061C238.816 64.1061 239.916 64.7061 241.216 64.7061Z" fill="#FF87AF" stroke="#45413C" stroke-miterlimit="10" stroke-linecap="round" stroke-linejoin="round"/>
<path d="M233.916 57.0066C233.916 56.3066 234.416 55.8066 235.116 55.8066C235.816 55.8066 236.316 56.3066 236.316 57.0066" stroke="#45413C" stroke-miterlimit="10" stroke-linecap="round" stroke-linejoin="round"/>
<path d="M248.116 59.4066C248.779 59.4066 249.316 59.0485 249.316 58.6066C249.316 58.1648 248.779 57.8066 248.116 57.8066C247.453 57.8066 246.916 58.1648 246.916 58.6066C246.916 59.0485 247.453 59.4066 248.116 59.4066Z" fill="#FFB0CA"/>
<path d="M248.515 57.0066C248.515 56.3066 248.015 55.8066 247.315 55.8066C246.615 55.8066 246.115 56.3066 246.115 57.0066" stroke="#45413C" stroke-miterlimit="10" stroke-linecap="round" stroke-linejoin="round"/>
</g>
<path d="M297.402 55.2685C296.996 53.9364 295.496 52.9927 293.611 53.1298C291.81 53.2607 290.408 54.64 290.53 56.3156C290.636 57.7817 291.541 58.6424 292.974 58.847C293.653 58.924 294.403 59.0098 294.916 59.1129C295.714 59.2794 296.147 59.8235 296.187 60.368C296.26 61.1908 295.512 61.905 294.325 61.9913C293.236 62.0705 292.106 61.5911 291.901 60.6937L290.492 61.0067C290.755 62.7 292.571 63.5366 294.372 63.4056C296.229 63.2706 297.801 62.1036 297.666 60.2465C297.555 58.7245 296.516 57.7613 294.832 57.5749C294.338 57.5266 293.858 57.4913 293.275 57.3933C292.312 57.2809 291.914 56.622 291.979 55.9716C292.091 55.2054 292.778 54.6081 293.741 54.538C294.747 54.4649 295.719 54.8996 296.019 55.748L297.402 55.2685ZM305.48 59.0747C305.48 59.0747 305.417 58.209 305.088 57.5451C304.509 56.3379 303.264 55.6283 301.868 55.7298C300.024 55.8638 298.618 57.5663 298.76 59.5211C298.903 61.476 300.541 62.9711 302.384 62.8371C303.753 62.7376 304.872 61.9122 305.248 60.7198L303.986 60.3484C303.766 60.982 303.139 61.4347 302.287 61.4966C301.351 61.5646 300.506 60.9383 300.199 60.0061L305.505 59.6203L305.48 59.0747ZM300.093 58.9329C300.231 57.9263 301 57.1124 301.963 57.0424C302.647 56.9926 303.242 57.2582 303.6 57.7375C303.828 57.9736 304.026 58.3803 304.087 58.6426L300.093 58.9329ZM310.298 55.1169C309.432 55.1798 308.677 55.6137 308.201 56.3923L308.136 55.4987L306.781 55.5971L307.255 62.3005L308.623 62.201L308.364 58.6404C308.331 57.225 309.241 56.4149 310.32 56.3926C311.245 56.3675 312.028 56.9001 312.136 58.3942L312.393 61.9268L313.775 61.8263L313.513 58.2238C313.329 55.6825 311.793 55.0222 310.298 55.1169ZM319.972 51.4095L320.256 55.3192C319.624 54.7335 318.776 54.4583 317.885 54.5512C316.368 54.7317 314.924 55.9175 314.965 58.2166L314.951 58.2176C315.034 60.5276 316.633 61.8572 318.378 61.7303C319.287 61.6782 320.097 61.2403 320.632 60.4855L320.693 61.3233L322.117 61.2198L321.396 51.3059L319.972 51.4095ZM318.525 60.4703C317.408 60.5515 316.407 59.7119 316.325 58.2019L316.339 58.2009C316.299 56.6878 317.223 55.8766 318.212 55.7766C319.286 55.6845 320.324 56.4372 320.412 58.0311C320.488 59.4713 319.629 60.3901 318.525 60.4703ZM333.338 57.0491C333.338 57.0491 333.275 56.1834 332.946 55.5195C332.367 54.3123 331.122 53.6027 329.726 53.7042C327.883 53.8382 326.476 55.5407 326.618 57.4955C326.761 59.4504 328.399 60.9455 330.243 60.8114C331.611 60.712 332.73 59.8866 333.106 58.6942L331.844 58.3227C331.624 58.9564 330.997 59.4091 330.145 59.471C329.21 59.539 328.364 58.9127 328.057 57.9805L333.363 57.5946L333.338 57.0491ZM327.951 56.9073C328.089 55.9007 328.858 55.0868 329.821 55.0167C330.505 54.967 331.1 55.2326 331.458 55.7119C331.686 55.948 331.884 56.3547 331.945 56.617L327.951 56.9073ZM342.136 52.8159C341.132 52.9029 340.474 53.5122 340.142 54.3505C339.661 53.5292 338.84 53.0415 337.751 53.1207C337 53.2174 336.424 53.5962 336.055 54.1283L336.007 53.4581L334.624 53.5586L335.113 60.2748L336.495 60.1743L336.199 56.0971C336.193 55.0587 336.894 54.4604 337.676 54.4035C338.472 54.3456 339.155 54.8714 339.23 55.8907L339.511 59.955L340.879 59.8555L340.591 55.89C340.53 54.8557 341.237 54.1586 342.075 54.0977C342.857 54.0408 343.606 54.4917 343.685 55.5808L343.951 59.6322L345.334 59.5317L345.044 55.5522C344.923 53.8766 343.784 52.6961 342.136 52.8159ZM349.482 52.2817C348.309 52.367 347.278 52.8631 346.656 54.1576L347.76 54.6669C348.151 53.8664 348.761 53.5694 349.559 53.5394C350.244 53.5037 350.836 53.7273 350.973 54.4473C351.024 54.7664 350.838 54.9063 350.558 54.9266L349.4 55.0109C348.548 55.0728 347.968 55.2132 347.557 55.5379C346.959 56.0025 346.66 56.7121 346.741 57.4501C346.85 58.7476 347.973 59.5222 349.453 59.4146C350.207 59.3598 350.854 58.9899 351.279 58.4677L351.329 59.1519C351.776 59.1194 352.306 59.0808 352.711 59.0514L352.387 54.5971C352.27 52.9774 350.975 52.1591 349.482 52.2817ZM349.338 58.2158C348.708 58.2475 348.102 58.0109 348.026 57.3567C347.933 56.6616 348.474 56.1871 349.494 56.113C349.996 56.0764 350.625 56.0307 351.097 55.9683L351.126 56.3593C351.141 57.5372 350.415 58.1656 349.338 58.2158ZM354.727 50.7634C355.258 50.7248 355.67 50.2175 355.631 49.6869C355.593 49.1563 355.111 48.7141 354.581 48.7527C354.022 48.7933 353.595 49.2876 353.635 49.8321C353.673 50.3627 354.168 50.804 354.727 50.7634ZM354.07 52.1587L354.558 58.861L355.968 58.7584L355.481 52.0561L354.07 52.1587ZM360.895 58.4001L360.802 57.1155L360.047 57.1564C359.684 57.1828 359.427 57.1173 359.386 56.5588L358.792 48.5868L357.382 48.6894L357.977 56.8718C358.055 57.9469 358.535 58.5578 359.526 58.4857L360.895 58.4001Z" fill="#020A13"/>
<path d="M365.995 49.4107L366.117 48.3911L365.628 48.4267L365.01 49.9595C364.935 50.0913 364.904 50.2479 364.917 50.4155C364.954 50.9321 365.432 51.3325 365.935 51.296C366.466 51.2574 366.867 50.793 366.829 50.2764C366.797 49.8296 366.434 49.4769 365.995 49.4107ZM368.201 49.2503L368.337 48.2297L367.834 48.2662L367.216 49.7991C367.155 49.9299 367.111 50.0875 367.123 50.2551C367.16 50.7717 367.639 51.1721 368.141 51.1355C368.672 51.097 369.073 50.6326 369.036 50.116C369.003 49.6692 368.641 49.3165 368.201 49.2503ZM376.933 47.2678L377.24 51.4846L372.505 51.8149L372.2 47.6119L370.789 47.7145L371.51 57.6283L372.92 57.5258L372.605 53.1832L377.339 52.853L377.654 57.1816L379.05 57.0801L378.329 47.1662L376.933 47.2678ZM387.254 53.1147C387.11 51.1319 385.529 49.6607 383.616 49.7998C381.703 49.9388 380.339 51.6383 380.482 53.6071C380.623 55.5479 382.261 57.0291 384.132 56.893C386.045 56.7539 387.399 55.0974 387.254 53.1147ZM385.859 53.2301C385.95 54.4868 385.265 55.4911 384.037 55.5805C382.836 55.6678 381.966 54.7064 381.88 53.5195C381.789 52.2768 382.485 51.2296 383.714 51.1402C384.915 51.0529 385.767 51.9595 385.859 53.2301ZM396.324 49.0863L395.155 53.8597L393.378 49.3005L391.898 49.4082L390.743 54.1805L388.965 49.6214L387.485 49.729L390.221 56.2678L390.235 56.2668L391.533 56.1724L392.781 51.5197L394.633 55.947L394.647 55.946L395.946 55.8516L397.776 48.9807L396.324 49.0863ZM405.516 49.6251L405.429 48.4243L404.061 48.5238L403.906 46.4014L402.482 46.5049L402.636 48.6273L401.449 48.7136L401.537 49.9145L402.724 49.8282L402.998 53.5982C403.076 54.6734 403.569 55.2832 404.547 55.2121L405.916 55.1266L405.823 53.842L405.068 53.8828C404.705 53.9092 404.447 53.8437 404.407 53.2852L404.148 49.7246L405.516 49.6251ZM413.517 51.205C413.373 49.2223 411.792 47.751 409.879 47.8901C407.966 48.0292 406.602 49.7287 406.745 51.6975C406.886 53.6383 408.524 55.1195 410.395 54.9834C412.308 54.8443 413.661 53.1878 413.517 51.205ZM412.122 51.3205C412.213 52.5772 411.528 53.5815 410.299 53.6709C409.099 53.7582 408.229 52.7968 408.142 51.6099C408.052 50.3672 408.748 49.3199 409.977 49.2306C411.177 49.1433 412.029 50.0499 412.122 51.3205ZM297.094 75.3517L297.324 78.5213C297.447 80.2109 296.749 81.0337 295.618 81.1159C294.64 81.187 293.812 80.6015 293.703 79.1075L293.449 75.6167L292.067 75.7172L292.326 79.2778C292.512 81.8331 293.88 82.5056 295.569 82.3828C296.519 82.3137 297.148 81.889 297.522 81.2442L297.581 82.054L298.963 81.9535L298.476 75.2512L297.094 75.3517ZM304.207 74.5959C303.327 74.6598 302.529 75.0688 302.005 75.7807L301.948 74.9987L300.468 75.1063L301.185 84.9643L302.665 84.8567L302.381 80.947C302.986 81.5487 303.807 81.8399 304.687 81.776C306.319 81.6292 307.656 80.3248 307.622 78.1235L307.636 78.1225C307.551 75.7985 305.954 74.4969 304.207 74.5959ZM304.345 80.5515C303.383 80.6355 302.381 79.9785 302.212 78.6291L302.186 78.2661C302.125 76.8528 302.957 75.936 304.06 75.8558C305.177 75.7746 306.18 76.6282 306.26 78.1242C306.289 79.6802 305.35 80.4644 304.345 80.5515ZM313.836 74.1203L313.89 74.8603C313.314 74.2706 312.551 74.0032 311.726 74.0492C309.742 74.1794 308.527 75.6153 308.669 77.7666C308.842 79.9438 310.331 81.1269 312.229 80.9749C313.081 80.9129 313.783 80.525 314.254 79.8591L314.31 80.6271C314.352 81.2135 314.246 81.6845 314.034 82.0508C313.75 82.5908 313.198 82.9117 312.488 82.9914C311.917 83.047 311.331 82.9071 310.885 82.5606C310.618 82.3694 310.415 82.0894 310.294 81.7753L309.098 82.3115C309.318 82.8289 309.63 83.2554 310.018 83.5781C310.705 84.1457 311.608 84.4029 312.628 84.3288C313.717 84.2496 314.605 83.7218 315.149 82.9102C315.579 82.2613 315.801 81.4451 315.734 80.5235L315.261 74.0167L313.836 74.1203ZM312.278 79.708C311.077 79.7953 310.149 79.0065 310.052 77.6661C309.955 76.3396 310.757 75.397 311.958 75.3096C312.935 75.2386 313.937 75.8956 314.054 77.3049L314.055 77.3188L314.056 77.3328L314.057 77.3468C314.144 78.7301 313.339 79.6309 312.278 79.708ZM318.656 74.6261L318.595 73.7883L317.213 73.8888L317.714 80.5901L319.097 80.4896L318.839 76.9429C318.816 75.6672 319.662 74.7495 320.965 74.9074L320.871 73.6228C319.736 73.6492 319.006 74.0251 318.656 74.6261ZM324.72 73.1324C323.547 73.2177 322.516 73.7137 321.894 75.0082L322.998 75.5175C323.389 74.7171 323.999 74.42 324.797 74.3901C325.482 74.3543 326.074 74.578 326.211 75.298C326.262 75.6171 326.076 75.757 325.796 75.7773L324.637 75.8616C323.786 75.9235 323.206 76.0639 322.795 76.3886C322.197 76.8532 321.898 77.5627 321.979 78.3007C322.088 79.5983 323.211 80.3729 324.691 80.2653C325.445 80.2104 326.092 79.8406 326.517 79.3183L326.567 80.0025C327.014 79.9701 327.544 79.9315 327.949 79.902L327.625 75.4478C327.508 73.8281 326.213 73.0098 324.72 73.1324ZM324.576 79.0665C323.946 79.0982 323.34 78.8616 323.264 78.2073C323.171 77.5122 323.712 77.0377 324.732 76.9636C325.234 76.9271 325.863 76.8814 326.335 76.8189L326.364 77.2099C326.379 78.3879 325.653 79.0162 324.576 79.0665ZM334.018 69.4384L334.302 73.3481C333.67 72.7624 332.822 72.4871 331.93 72.58C330.413 72.7605 328.969 73.9464 329.01 76.2455L328.996 76.2465C329.08 78.5565 330.679 79.886 332.424 79.7591C333.333 79.7071 334.143 79.2692 334.678 78.5144L334.739 79.3522L336.163 79.2486L335.442 69.3348L334.018 69.4384ZM332.571 78.4992C331.454 78.5804 330.452 77.7408 330.371 76.2307L330.385 76.2297C330.345 74.7166 331.269 73.9055 332.258 73.8055C333.332 73.7134 334.369 74.4661 334.457 76.06C334.534 77.5002 333.674 78.4189 332.571 78.4992ZM344.124 75.3149C344.124 75.3149 344.061 74.4492 343.732 73.7853C343.153 72.5781 341.909 71.8685 340.512 71.9701C338.669 72.1041 337.263 73.8065 337.405 75.7614C337.547 77.7162 339.186 79.2113 341.029 79.0773C342.398 78.9778 343.517 78.1525 343.893 76.96L342.631 76.5886C342.41 77.2222 341.783 77.6749 340.932 77.7368C339.996 77.8049 339.15 77.1785 338.844 76.2463L344.15 75.8605L344.124 75.3149ZM338.738 75.1732C338.875 74.1666 339.644 73.3526 340.608 73.2826C341.292 73.2328 341.887 73.4984 342.245 73.9777C342.472 74.2138 342.67 74.6205 342.731 74.8828L338.738 75.1732ZM358.933 77.593L358.212 67.6792L356.801 67.7817L353.992 76.2538L349.973 68.2782L348.577 68.3797L349.298 78.2936L350.694 78.192L350.233 71.8528L353.417 77.9941L354.813 77.8925L357.061 71.3563L357.522 77.6956L358.933 77.593ZM363.337 70.3245C362.164 70.4098 361.133 70.9058 360.511 72.2003L361.615 72.7096C362.006 71.9092 362.616 71.6121 363.414 71.5822C364.099 71.5464 364.691 71.7701 364.828 72.4901C364.879 72.8092 364.692 72.9491 364.413 72.9694L363.254 73.0537C362.403 73.1156 361.823 73.256 361.412 73.5807C360.814 74.0453 360.514 74.7548 360.596 75.4928C360.705 76.7904 361.828 77.565 363.308 77.4574C364.062 77.4025 364.709 77.0327 365.134 76.5104L365.184 77.1946C365.63 77.1621 366.161 77.1236 366.566 77.0941L366.242 72.6399C366.124 71.0202 364.83 70.2019 363.337 70.3245ZM363.193 76.2586C362.563 76.2903 361.956 76.0537 361.881 75.3994C361.788 74.7043 362.329 74.2298 363.348 74.1557C363.851 74.1192 364.479 74.0735 364.952 74.011L364.981 74.402C364.996 75.58 364.27 76.2083 363.193 76.2586ZM368.582 68.8061C369.112 68.7675 369.525 68.2603 369.486 67.7297C369.447 67.1991 368.966 66.7568 368.435 66.7954C367.877 66.836 367.45 67.3303 367.489 67.8749C367.528 68.4055 368.023 68.8467 368.582 68.8061ZM367.925 70.2014L368.412 76.9037L369.823 76.8012L369.335 70.0989L367.925 70.2014ZM374.75 76.4429L374.657 75.1583L373.902 75.1991C373.539 75.2255 373.281 75.16 373.241 74.6015L372.647 66.6296L371.237 66.7321L371.832 74.9145C371.91 75.9897 372.389 76.6005 373.381 76.5284L374.75 76.4429ZM382.305 72.5387C382.305 72.5387 382.242 71.673 381.913 71.0091C381.334 69.802 380.089 69.0924 378.693 69.1939C376.85 69.3279 375.443 71.0304 375.586 72.9852C375.728 74.94 377.366 76.4351 379.21 76.3011C380.578 76.2016 381.697 75.3763 382.074 74.1838L380.811 73.8124C380.591 74.4461 379.964 74.8987 379.112 74.9607C378.177 75.0287 377.331 74.4024 377.025 73.4701L382.331 73.0843L382.305 72.5387ZM376.918 72.397C377.056 71.3904 377.825 70.5765 378.788 70.5064C379.472 70.4567 380.067 70.7222 380.425 71.2015C380.653 71.4377 380.851 71.8444 380.912 72.1066L376.918 72.397ZM385.036 69.7995L384.975 68.9617L383.592 69.0622L384.094 75.7635L385.476 75.663L385.218 72.1163C385.196 70.8406 386.041 69.9229 387.344 70.0808L387.251 68.7962C386.116 68.8226 385.385 69.1986 385.036 69.7995ZM394.274 70.1805C393.75 68.9553 392.476 68.2338 391.038 68.3383C389.153 68.4754 387.705 70.1809 387.848 72.1497C387.99 74.1045 389.667 75.5407 391.552 75.4037C392.92 75.3042 394.015 74.5228 394.392 73.3443L393.143 72.9579C392.971 73.4897 392.439 74.0899 391.462 74.161C390.191 74.2533 389.335 73.2909 389.245 72.0482C389.153 70.7915 389.86 69.7014 391.131 69.609C392.15 69.5349 392.763 70.0518 393.064 70.7177L394.274 70.1805ZM398.858 74.6899L398.765 73.4053L398.01 73.4462C397.647 73.4726 397.389 73.4071 397.349 72.8486L396.755 64.8766L395.345 64.9792L395.94 73.1616C396.018 74.2367 396.498 74.8476 397.489 74.7755L398.858 74.6899ZM406.209 70.7866C406.065 68.8038 404.484 67.3326 402.571 67.4717C400.658 67.6108 399.294 69.3102 399.437 71.279C399.578 73.2199 401.216 74.701 403.087 74.565C405 74.4259 406.353 72.7694 406.209 70.7866ZM404.814 70.9021C404.905 72.1588 404.22 73.1631 402.991 73.2524C401.79 73.3397 400.92 72.3783 400.834 71.1914C400.744 69.9487 401.44 68.9015 402.668 68.8122C403.869 68.7248 404.721 69.6314 404.814 70.9021ZM412.453 66.9637L412.684 70.1333C412.806 71.8229 412.108 72.6457 410.977 72.7279C410 72.799 409.171 72.2135 409.062 70.7195L408.809 67.2287L407.426 67.3292L407.685 70.8898C407.871 73.4451 409.239 74.1176 410.929 73.9947C411.878 73.9257 412.507 73.501 412.882 72.8561L412.94 73.666L414.323 73.5655L413.835 66.8632L412.453 66.9637ZM420.551 63.1464L420.835 67.0561C420.203 66.4704 419.355 66.1951 418.463 66.288C416.946 66.4685 415.503 67.6544 415.544 69.9534L415.53 69.9545C415.613 72.2645 417.212 73.594 418.957 73.4671C419.866 73.4151 420.676 72.9772 421.211 72.2224L421.272 73.0602L422.696 72.9566L421.975 63.0428L420.551 63.1464ZM419.104 72.2072C417.987 72.2884 416.986 71.4488 416.904 69.9387L416.918 69.9377C416.878 68.4246 417.802 67.6135 418.791 67.5135C419.865 67.4214 420.903 68.1741 420.99 69.7679C421.067 71.2082 420.207 72.1269 419.104 72.2072ZM424.709 63.4617C424.178 63.5003 423.776 63.9506 423.814 64.4812C423.846 64.9141 424.209 65.2807 424.648 65.333L424.527 66.3665L425.016 66.331L425.634 64.7981C425.694 64.6534 425.738 64.4957 425.727 64.3421C425.689 63.8115 425.211 63.4251 424.709 63.4617ZM427.933 64.1817C427.895 63.6511 427.432 63.2637 426.915 63.3013C426.384 63.3399 425.982 63.7902 426.021 64.3208C426.052 64.7537 426.416 65.1203 426.854 65.1726L426.733 66.2061L427.236 66.1696L427.84 64.6377C427.914 64.492 427.945 64.3353 427.933 64.1817Z" fill="#046DFF"/>
<path d="M445.366 24.9058C446.189 24.846 446.813 24.1238 446.753 23.3009C446.693 22.4781 445.971 21.8539 445.148 21.9137C444.326 21.9735 443.701 22.6957 443.761 23.5185C443.821 24.3413 444.543 24.9656 445.366 24.9058ZM445.475 26.4018C444.652 26.4617 444.028 27.1838 444.087 28.0067C444.147 28.8295 444.869 29.4538 445.692 29.3939C446.515 29.3341 447.139 28.6119 447.08 27.7891C447.02 26.9663 446.298 26.342 445.475 26.4018ZM445.801 30.89C444.978 30.9498 444.354 31.672 444.414 32.4948C444.474 33.3176 445.196 33.9419 446.019 33.8821C446.841 33.8223 447.466 33.1001 447.406 32.2773C447.346 31.4544 446.624 30.8302 445.801 30.89Z" fill="#020A13"/>
<path d="M219.23 85.374L257 85.25" stroke="#97A5B2" stroke-opacity="0.25" stroke-width="2" stroke-linecap="round"/>
<path d="M219.23 88.998L243.605 88.998" stroke="#97A5B2" stroke-opacity="0.25" stroke-width="2" stroke-linecap="round"/>
<path d="M219.23 93.248L234.539 93.248" stroke="#97A5B2" stroke-opacity="0.25" stroke-width="2" stroke-linecap="round"/>
<rect x="343.144" y="199.397" width="215.098" height="68.5" rx="7" transform="rotate(6.09143 343.144 199.397)" fill="#020A13" stroke="#020A13" stroke-width="2"/>
<rect x="339.144" y="193.397" width="215.098" height="68.5" rx="7" transform="rotate(6.09143 339.144 193.397)" fill="white" stroke="#020A13" stroke-width="2"/>
<rect x="356.717" y="208.598" width="42" height="42" rx="8" transform="rotate(6.09143 356.717 208.598)" fill="#020A13"/>
<path d="M425.947 231.845L422.99 238.72L421.448 231.365L419.91 231.201L416.85 238.065L415.424 230.722L413.886 230.558L415.97 240.063L417.276 240.202L420.45 233.494L422.123 240.72L423.442 240.86L427.485 232.01L425.947 231.845ZM430.126 235.102C429.041 234.986 428.017 235.269 427.235 236.349L428.159 236.997C428.649 236.33 429.255 236.16 429.989 236.264C430.621 236.345 431.125 236.647 431.131 237.327C431.125 237.628 430.932 237.725 430.673 237.697L429.6 237.582C428.812 237.498 428.259 237.531 427.83 237.76C427.206 238.085 426.816 238.684 426.768 239.372C426.653 240.576 427.551 241.469 428.922 241.615C429.62 241.69 430.272 241.459 430.747 241.052L430.679 241.685C431.093 241.729 431.584 241.782 431.959 241.822L432.399 237.698C432.559 236.199 431.511 235.237 430.126 235.102ZM429.014 240.501C428.434 240.426 427.919 240.109 427.958 239.499C427.988 238.849 428.561 238.504 429.504 238.605C429.97 238.655 430.551 238.717 430.994 238.738L430.955 239.1C430.774 240.179 430.007 240.633 429.014 240.501ZM435.17 234.582C435.661 234.634 436.122 234.239 436.174 233.747C436.227 233.256 435.86 232.773 435.369 232.72C434.852 232.665 434.38 233.046 434.326 233.55C434.273 234.041 434.653 234.526 435.17 234.582ZM434.34 235.748L433.677 241.953L434.983 242.092L435.645 235.887L434.34 235.748ZM440.437 237.523L440.556 236.411L439.289 236.276L439.499 234.311L438.18 234.171L437.971 236.136L436.872 236.018L436.753 237.13L437.852 237.247L437.479 240.737C437.373 241.733 437.723 242.371 438.628 242.468L439.894 242.616L440.021 241.427L439.324 241.34C438.988 241.304 438.763 241.201 438.819 240.684L439.17 237.388L440.437 237.523ZM446.633 236.092C446.711 235.356 447.201 235.055 447.881 235.297L448.282 234.111C446.81 233.575 445.504 234.299 445.338 235.85L445.225 236.91L444.307 236.812L444.187 237.936L445.105 238.034L444.563 243.114L445.881 243.255C445.902 243.061 446.19 240.242 446.41 238.174L447.626 238.303L447.746 237.179L446.53 237.049L446.633 236.092ZM454.506 241.038C454.701 239.202 453.5 237.597 451.729 237.408C449.958 237.219 448.431 238.546 448.236 240.369C448.044 242.166 449.296 243.79 451.028 243.974C452.799 244.163 454.31 242.873 454.506 241.038ZM453.212 240.913C453.087 242.076 452.296 242.881 451.158 242.759C450.046 242.641 449.41 241.618 449.527 240.52C449.65 239.369 450.459 238.527 451.597 238.649C452.708 238.767 453.337 239.736 453.212 240.913ZM457.451 238.999L457.534 238.223L456.254 238.087L455.605 244.293L456.884 244.429L457.235 241.146C457.425 239.977 458.349 239.278 459.514 239.637L459.641 238.448C458.599 238.285 457.869 238.507 457.451 238.999Z" fill="#020A13"/>
<path d="M463.433 235.846L463.288 237.203L467.839 237.689C464.233 240.481 463.917 244.788 463.876 245.175L465.22 245.319C465.27 244.854 465.592 240.364 469.519 237.868L469.664 236.511L463.433 235.846ZM478.417 237.445L478.03 241.064C477.55 240.425 476.82 240.033 475.99 239.971C474.574 239.885 473.059 240.73 472.716 242.837L472.703 242.836C472.398 244.961 473.639 246.44 475.255 246.612C476.094 246.715 476.907 246.448 477.52 245.847L477.437 246.623L478.756 246.763L479.735 237.586L478.417 237.445ZM475.598 245.485C474.563 245.375 473.787 244.442 473.962 243.049L473.975 243.05C474.188 241.661 475.166 241.072 476.087 241.145C477.084 241.238 477.907 242.097 477.724 243.568C477.556 244.897 476.619 245.594 475.598 245.485ZM483.802 240.83C482.716 240.715 481.693 240.998 480.91 242.078L481.835 242.725C482.324 242.059 482.931 241.888 483.665 241.992C484.297 242.073 484.801 242.375 484.807 243.056C484.801 243.356 484.607 243.453 484.349 243.425L483.276 243.311C482.487 243.226 481.935 243.259 481.505 243.488C480.882 243.813 480.491 244.412 480.444 245.1C480.329 246.304 481.227 247.197 482.597 247.343C483.295 247.418 483.947 247.187 484.422 246.78L484.355 247.413C484.768 247.457 485.26 247.51 485.634 247.55L486.075 243.426C486.235 241.927 485.187 240.965 483.802 240.83ZM482.69 246.229C482.11 246.154 481.594 245.837 481.633 245.227C481.664 244.577 482.236 244.233 483.18 244.333C483.645 244.383 484.227 244.445 484.669 244.466L484.631 244.828C484.45 245.907 483.683 246.361 482.69 246.229ZM492.348 241.939L490.008 246.343L488.444 241.522L487.061 241.374L489.208 247.84L487.718 250.648L489.089 250.795L493.718 242.085L492.348 241.939ZM498.949 244.055C498.807 243.059 497.931 242.325 496.703 242.194C495.462 242.062 494.399 242.837 494.281 243.936C494.189 244.802 494.659 245.545 495.527 245.86C495.716 245.932 496.13 246.094 496.673 246.27C497.191 246.443 497.361 246.683 497.325 247.019C497.274 247.498 496.858 247.728 496.211 247.659C495.487 247.582 495.044 247.207 495.001 246.745L493.751 246.821C493.848 247.877 494.786 248.644 496.091 248.783C497.41 248.924 498.449 248.251 498.569 247.126C498.663 246.247 498.309 245.516 497.251 245.142C496.935 245.043 496.507 244.893 496.054 244.727C495.625 244.576 495.447 244.283 495.523 243.938C495.609 243.502 496.053 243.262 496.596 243.32C497.192 243.371 497.64 243.706 497.718 244.198L498.949 244.055Z" fill="#046DFF"/>
<path d="M530.81 228.937C531.63 229.025 532.373 228.425 532.461 227.605C532.548 226.784 531.949 226.042 531.128 225.954C530.308 225.867 529.565 226.466 529.478 227.286C529.39 228.107 529.99 228.85 530.81 228.937ZM530.651 230.429C529.83 230.341 529.088 230.941 529 231.761C528.912 232.581 529.512 233.324 530.332 233.412C531.153 233.499 531.896 232.9 531.983 232.079C532.071 231.259 531.471 230.516 530.651 230.429ZM530.173 234.903C529.353 234.816 528.61 235.415 528.523 236.236C528.435 237.056 529.035 237.799 529.855 237.886C530.675 237.974 531.418 237.374 531.506 236.554C531.593 235.734 530.994 234.991 530.173 234.903Z" fill="#020A13"/>
<path d="M374.74 221.791L378.137 222.154C378.465 222.189 378.762 221.949 378.797 221.621L378.897 220.687C378.932 220.359 378.692 220.062 378.364 220.027L374.967 219.665C374.639 219.63 374.342 219.869 374.307 220.197L374.207 221.131C374.172 221.459 374.411 221.756 374.74 221.791ZM376.327 222.745C373.445 222.437 370.708 223.336 368.617 225.034L370.707 226.91C372.203 225.823 374.086 225.258 376.065 225.469C380.308 225.922 383.391 229.741 382.938 233.984C382.485 238.226 378.666 241.309 374.423 240.857C370.18 240.404 367.098 236.585 367.55 232.342C367.751 230.465 368.611 228.817 369.875 227.6L368.41 225.219C366.451 226.897 365.096 229.288 364.802 232.048C364.189 237.791 368.362 242.962 374.104 243.575C379.846 244.187 385.016 240.014 385.629 234.271C386.242 228.528 382.069 223.358 376.327 222.745Z" fill="white"/>
<path d="M375.111 234.881C374.584 234.825 374.147 234.522 373.885 234.105L373.882 234.109L370.638 228.84C369.726 229.81 369.106 231.068 368.954 232.491C368.584 235.959 371.104 239.081 374.572 239.451C378.041 239.822 381.163 237.301 381.533 233.833C381.903 230.366 379.383 227.242 375.915 226.872C374.405 226.711 372.961 227.099 371.78 227.873L376.285 231.918L376.282 231.922C376.729 232.26 376.996 232.813 376.932 233.411C376.836 234.32 376.021 234.978 375.111 234.881Z" fill="white"/>
<path d="M328 120V120C328 139.882 344.118 156 364 156H403C427.853 156 448 176.147 448 201V201" stroke="#020A13" stroke-width="2" stroke-dasharray="4 4"/>
<path d="M449 279V310.5" stroke="#020A13" stroke-width="2" stroke-dasharray="4 4"/>
<circle cx="449" cy="316.75" r="9" fill="#020A13"/>
<circle opacity="0.2" cx="449" cy="316.75" r="20.5" fill="#020A13"/>
<path d="M453.201 316.75C453.201 317.137 453.167 317.45 452.78 317.45H449.701V320.529C449.701 320.916 449.388 320.95 449.001 320.95C448.614 320.95 448.301 320.916 448.301 320.529V317.45H445.221C444.835 317.45 444.801 317.137 444.801 316.75C444.801 316.363 444.835 316.05 445.221 316.05H448.301V312.971C448.301 312.583 448.614 312.55 449.001 312.55C449.388 312.55 449.701 312.583 449.701 312.971V316.05H452.78C453.167 316.05 453.201 316.363 453.201 316.75Z" fill="white"/>
<g clip-path="url(#clip1_1566_523)">
<path d="M407.408 362.371L429.021 360.704L422.414 382.828L434.138 386.329L440.745 364.205L457.904 377.452L453.246 347.008L448.588 316.565L427.998 339.468L407.408 362.371Z" fill="white"/>
<path d="M458.38 378.331C458.21 378.423 458.017 378.464 457.824 378.448C457.631 378.432 457.447 378.361 457.294 378.243L441.288 365.885L435.097 386.615C435.015 386.865 434.84 387.073 434.608 387.198C434.377 387.323 434.107 387.355 433.853 387.287L422.13 383.785C422.004 383.748 421.887 383.686 421.785 383.603C421.683 383.52 421.598 383.418 421.536 383.303C421.473 383.187 421.434 383.06 421.421 382.93C421.408 382.799 421.42 382.667 421.458 382.541L427.649 361.812L407.487 363.368C407.288 363.383 407.089 363.337 406.916 363.238C406.743 363.139 406.603 362.991 406.515 362.812C406.427 362.633 406.394 362.432 406.421 362.234C406.447 362.036 406.533 361.851 406.665 361.702L447.845 315.896C447.972 315.755 448.135 315.653 448.318 315.602C448.5 315.551 448.693 315.553 448.874 315.607C449.055 315.661 449.217 315.765 449.342 315.908C449.466 316.05 449.547 316.225 449.576 316.412L458.892 377.299C458.923 377.496 458.893 377.698 458.807 377.879C458.722 378.06 458.584 378.21 458.412 378.312C458.401 378.32 458.391 378.325 458.38 378.331V378.331ZM440.271 363.325C440.441 363.233 440.635 363.192 440.827 363.208C441.02 363.224 441.205 363.295 441.358 363.413L456.538 375.133L447.92 318.804L409.824 361.182L428.945 359.706C429.107 359.694 429.269 359.721 429.418 359.786C429.567 359.85 429.698 359.95 429.8 360.076C429.902 360.202 429.971 360.351 430.003 360.511C430.034 360.67 430.026 360.834 429.98 360.99L423.659 382.156L433.466 385.085L439.787 363.919C439.825 363.793 439.887 363.676 439.97 363.574C440.053 363.472 440.155 363.387 440.271 363.325V363.325Z" fill="#020A13"/>
</g>
<defs>
<linearGradient id="paint0_linear_1566_523" x1="456" y1="415" x2="456" y2="8.00001" gradientUnits="userSpaceOnUse">
<stop stop-color="#FFE66D"/>
<stop offset="1" stop-color="#FFE66D" stop-opacity="0"/>
</linearGradient>
<clipPath id="clip0_1566_523">
<rect width="48" height="48" fill="white" transform="translate(217.215 35.9072)"/>
</clipPath>
<clipPath id="clip1_1566_523">
<rect width="64" height="64" fill="white" transform="translate(393.49 342.912) rotate(-28.3719)"/>
</clipPath>
</defs>
</svg>
