<svg width="47" height="51" viewBox="0 0 47 51" fill="none" xmlns="http://www.w3.org/2000/svg">
<path d="M43.1719 25.5C43.1719 22.0388 42.1455 18.6554 40.2226 15.7775C38.2997 12.8997 35.5666 10.6566 32.3688 9.33212C29.1711 8.00758 25.6525 7.66102 22.2578 8.33627C18.8631 9.01151 15.7449 10.6782 13.2975 13.1256C10.8501 15.5731 9.18338 18.6913 8.50814 22.0859C7.8329 25.4806 8.17946 28.9993 9.50399 32.197C10.8285 35.3947 13.0715 38.1278 15.9494 40.0507C18.8273 41.9736 22.2107 43 25.6719 43C30.3132 43 34.7644 41.1563 38.0462 37.8744C41.3281 34.5925 43.1719 30.1413 43.1719 25.5ZM22.4169 31.9575L17.4119 26.7075C17.3378 26.6316 17.2785 26.5426 17.2369 26.445C17.1626 26.3627 17.1033 26.2679 17.0619 26.165C16.9693 25.9555 16.9215 25.729 16.9215 25.5C16.9215 25.271 16.9693 25.0445 17.0619 24.835C17.1452 24.6202 17.2701 24.4239 17.4294 24.2575L22.6794 19.0075C23.0089 18.678 23.4559 18.4928 23.9219 18.4928C24.3879 18.4928 24.8349 18.678 25.1644 19.0075C25.4939 19.337 25.679 19.784 25.679 20.25C25.679 20.716 25.4939 21.163 25.1644 21.4925L22.8894 23.75H32.6719C33.136 23.75 33.5811 23.9344 33.9093 24.2626C34.2375 24.5908 34.4219 25.0359 34.4219 25.5C34.4219 25.9641 34.2375 26.4093 33.9093 26.7374C33.5811 27.0656 33.136 27.25 32.6719 27.25H22.7669L24.9544 29.5425C25.2746 29.879 25.4481 30.3289 25.4366 30.7933C25.4251 31.2577 25.2296 31.6985 24.8931 32.0188C24.5566 32.339 24.1067 32.5125 23.6423 32.501C23.1779 32.4895 22.7371 32.294 22.4169 31.9575Z" fill="white"/>
<path d="M25.6719 50C12.1409 50 1.17188 39.031 1.17188 25.5C1.17188 11.969 12.1409 1 25.6719 1" stroke="white" stroke-width="2"/>
</svg>
