<svg width="56" height="51" viewBox="0 0 56 51" fill="none" xmlns="http://www.w3.org/2000/svg">
<path d="M9.88011 30.1324L9.53651 30.6976L8.85671 30.718L8.92339 31.0689L8.1765 31.4893L7.66026 31.2751L7.64688 31.723L6.63087 31.6245L6.6956 31.3351L6.32873 31.112C6.44134 30.6005 6.26952 30.0565 6.68646 29.6535C6.37834 29.4276 6.45215 29.0653 6.52489 28.8511C6.69749 28.343 6.57305 27.7531 6.82111 27.3274C7.11022 26.8302 7.06691 26.2932 7.20486 25.7913C7.37042 25.1889 7.53472 24.5649 7.64795 23.9369C7.75851 23.3238 7.82553 22.6496 8.19021 22.0909C8.21555 20.8725 8.79206 19.7895 9.08494 18.6386C9.31314 17.7417 9.48837 16.8042 9.92411 15.9532C10.0756 15.6572 9.94635 15.2082 10.5592 15.1762C10.2963 14.7221 10.2328 14.3373 10.5039 13.9237C10.6891 13.6196 10.8203 13.2858 10.8919 12.937C11.0991 12.0414 11.4932 11.2165 11.8 10.3586C12.0814 9.57127 12.4697 8.82124 12.7347 8.04324C13.0924 6.99433 13.7877 6.17255 14.2845 5.22464C14.3719 5.05761 14.603 4.97204 14.7302 4.81787C14.8684 4.65123 14.9226 4.35732 15.0869 4.2843C15.2999 4.18972 15.2709 4.00628 15.3784 3.88892C15.5374 3.7154 15.7117 3.55605 15.9134 3.35718C16.1181 3.36308 16.3561 3.10899 16.6556 3.29215C16.7309 3.33794 16.9627 3.28202 17.0018 3.20856C17.2972 2.653 17.8149 2.79727 18.3288 2.79173C19.1087 3.14269 19.4026 3.80474 19.3028 4.67576C19.2935 4.7914 19.2685 4.90523 19.2285 5.01414C19.0585 5.42801 18.8012 5.82318 18.7218 6.25229C18.6343 6.72421 18.3957 7.09087 18.1717 7.48151C17.9566 7.8566 17.5867 8.22827 17.5736 8.61159C17.5595 9.03791 17.0346 9.26215 17.2523 9.70678C16.836 9.79651 17.0809 10.2838 16.8019 10.4561C16.8691 10.8624 16.544 11.1196 16.4319 11.4535C16.3281 11.7626 16.193 12.0644 16.1031 12.3674C15.7976 13.3567 15.4222 14.3231 14.9797 15.2593C15.0819 15.8431 14.4454 16.1765 14.4911 16.7649C14.5304 17.2701 14.1978 17.7127 14.0401 18.1755C13.8608 18.7008 13.6436 19.2341 13.4318 19.7578C13.234 20.2466 13.0908 20.7586 12.9021 21.2561C12.6239 21.9895 12.528 22.7908 12.1638 23.5035C12.3279 23.9962 11.7609 24.2706 11.8107 24.77C11.8524 25.1891 11.6307 25.6371 11.4748 26.0195C11.0941 26.9526 11.0516 27.956 10.7286 28.8926C10.652 29.1145 10.5787 29.3374 10.4919 29.5952C10.2777 29.5062 10.1165 29.4391 9.86256 29.3335L9.88011 30.1324Z" fill="black"/>
<path d="M27.145 22.2733C27.1278 22.2026 27.113 22.1419 27.0983 22.0815L27.8216 22.0601C27.7085 21.9214 27.6355 21.8323 27.5196 21.6898C27.6914 21.4724 27.8314 21.1216 28.0669 21.0372C28.4491 20.9002 28.2437 20.5337 28.4689 20.3502C28.6732 20.1838 28.7613 19.8149 28.9758 19.7338C29.3252 19.6017 29.3695 19.2811 29.5785 19.0767C29.8009 18.881 30.0345 18.6983 30.278 18.5296L30.4234 17.9395L31.1376 17.9794C30.9229 17.7363 30.8521 17.6562 30.7367 17.5256C31.6065 17.0475 31.9028 16.0203 32.7208 15.5099C32.8161 15.5422 32.8987 15.5701 33.1167 15.6438C32.966 15.4629 32.902 15.3862 32.8275 15.2968L33.345 14.7985C33.4785 14.8609 33.6133 14.9237 33.8104 15.0157L33.7878 14.7367L34.1537 14.5074L33.9115 14.1586C34.1464 14.0564 34.3819 13.9545 34.6604 13.8334C34.7403 13.8703 34.8749 13.9333 35.0496 14.0147L35.1093 13.2794C35.6874 13.2458 36.2251 12.7867 36.8823 12.9393L36.9699 13.2367C37.2165 13.1766 37.2167 13.0802 36.9706 12.7073C36.9958 12.6519 37.0249 12.5983 37.0577 12.547C37.0723 12.5266 37.111 12.5235 37.2046 12.4867C37.2888 12.6064 37.3827 12.7398 37.4864 12.8869L38.0917 12.9944L37.6235 13.3703C37.8441 13.4379 38.0082 13.4882 38.2856 13.5733L37.5913 14.0482L37.503 13.7986L37.0027 14.1077L37.5422 14.4357L37.4922 15.0938L36.3018 15.9627C36.2636 16.1814 35.7644 16.8057 35.4383 17.028L35.4965 17.3286L34.9242 17.7034L34.8447 17.452C34.7968 17.4716 34.7073 17.4833 34.6994 17.5154C34.6088 17.8787 34.6673 18.3083 34.1538 18.452C34.0588 18.4786 34.0334 18.7591 33.9786 18.9233C33.7279 19.6746 33.2656 20.2229 32.5137 20.4949C32.4721 20.6401 32.4572 20.8181 32.3725 20.9516C32.2727 21.1088 31.9738 21.2747 32.0012 21.3547C32.1428 21.7691 31.7167 21.6813 31.6059 21.8587C31.5045 22.0412 31.3637 22.1988 31.1937 22.3199C30.862 22.5455 30.6075 22.8962 30.3512 23.2187C29.4924 24.301 28.5387 25.3044 27.5013 26.2169C26.6958 26.9254 25.9281 27.6795 25.0516 28.2984C24.4611 28.7154 23.8585 29.1926 23.1869 29.3935C22.5801 29.5755 21.9698 29.8569 21.2625 29.8564C21.22 29.7702 21.1683 29.6659 21.1095 29.5456L20.8674 29.5866L20.6656 28.6478C20.8888 28.4478 21.1475 28.255 21.5876 28.3259C21.4038 28.1729 21.27 28.0614 21.1257 27.9412L21.2646 27.7128C21.3937 27.7363 21.5071 27.7571 21.6229 27.7783L21.615 27.3987L21.9378 27.2692L21.8145 26.6659C22.1725 26.6171 22.4696 26.612 22.7433 26.5291C23.0089 26.4487 23.0804 25.9864 23.538 26.1498C23.5685 26.2127 23.6191 26.3171 23.6978 26.4796L24.05 25.9621L23.5934 26.0454C23.7271 25.8489 23.7914 25.6575 23.9225 25.5809C24.2192 25.3951 24.4928 25.1747 24.7376 24.9244C24.9693 24.6956 25.1821 24.4483 25.3738 24.1851C25.5509 23.9533 25.7916 23.7704 25.9705 23.5399C26.1597 23.2963 26.2796 22.995 26.4846 22.7687C26.6663 22.5682 26.9237 22.4346 27.145 22.2733Z" fill="black"/>
<path d="M50.1664 29.4078L50.8402 29.8174C50.9624 30.2661 50.9102 30.667 50.5735 31.1151C50.4725 31.1145 50.2859 31.1132 50.0658 31.1117C50.0699 31.8394 49.2398 31.611 49.099 32.0956C48.3398 32.4521 47.5174 32.5624 46.7997 32.965C46.6837 33.0119 46.562 33.0431 46.4378 33.0578C45.5886 33.2708 44.7605 33.5601 43.9634 33.9222C43.4005 34.1522 42.8216 34.341 42.2313 34.487C41.591 34.6457 40.9745 34.8882 40.3977 35.2082C40.2819 35.2552 40.1603 35.2865 40.0363 35.3016C39.5543 35.4244 39.0481 35.492 38.5987 35.689C38.2366 35.8476 37.8548 35.8953 37.489 36.0085C36.8574 36.2043 36.1878 36.2792 35.5329 36.3983C34.8735 36.5183 34.2158 36.6547 33.5512 36.7339C33.2743 36.7671 32.9814 36.6707 32.6843 36.6317L32.4849 35.4938C32.4944 35.189 32.9897 35.3339 33.2505 35.1259L33.2152 34.8027L34.0661 33.8896C35.329 33.4438 36.7261 32.8813 38.1747 32.4424C38.8822 32.2288 39.5662 31.9439 40.2161 31.5919C40.6845 31.3366 41.2499 31.258 41.7676 31.0831C43.1392 30.6197 44.5345 30.1645 45.9573 29.9331C47.293 29.7156 48.5999 29.2502 50.1664 29.4078Z" fill="black"/>
</svg>
