<svg width="43" height="43" viewBox="0 0 43 43" fill="none" xmlns="http://www.w3.org/2000/svg">
<path d="M21.0469 4.16991C17.5857 4.16991 14.2023 5.19627 11.3244 7.1192C8.44654 9.04212 6.20352 11.7752 4.87899 14.973C3.55446 18.1707 3.2079 21.6893 3.88314 25.084C4.55838 28.4787 6.22509 31.5969 8.67251 34.0443C11.1199 36.4917 14.2381 38.1584 17.6328 38.8337C21.0275 39.5089 24.5461 39.1623 27.7438 37.8378C30.9416 36.5133 33.6747 34.2703 35.5976 31.3924C37.5205 28.5145 38.5469 25.1311 38.5469 21.6699C38.5469 17.0286 36.7031 12.5774 33.4212 9.29555C30.1394 6.01366 25.6882 4.16991 21.0469 4.16991V4.16991ZM27.5044 24.9249L22.2544 29.9299C22.1785 30.004 22.0895 30.0633 21.9919 30.1049C21.9095 30.1792 21.8148 30.2385 21.7119 30.2799C21.5024 30.3725 21.2759 30.4203 21.0469 30.4203C20.8179 30.4203 20.5914 30.3725 20.3819 30.2799C20.1671 30.1966 19.9708 30.0717 19.8044 29.9124L14.5544 24.6624C14.2249 24.3329 14.0397 23.8859 14.0397 23.4199C14.0397 22.9539 14.2249 22.5069 14.5544 22.1774C14.8839 21.8479 15.3309 21.6628 15.7969 21.6628C16.2629 21.6628 16.7099 21.8479 17.0394 22.1774L19.2969 24.4524L19.2969 14.6699C19.2969 14.2058 19.4813 13.7607 19.8094 13.4325C20.1376 13.1043 20.5828 12.9199 21.0469 12.9199C21.511 12.9199 21.9561 13.1043 22.2843 13.4325C22.6125 13.7607 22.7969 14.2058 22.7969 14.6699L22.7969 24.5749L25.0894 22.3874C25.4259 22.0672 25.8758 21.8937 26.3402 21.9052C26.8046 21.9167 27.2454 22.1122 27.5656 22.4487C27.8859 22.7852 28.0593 23.2351 28.0479 23.6995C28.0364 24.1639 27.8409 24.6047 27.5044 24.9249V24.9249Z" fill="white"/>
</svg>
