<svg width="472" height="452" viewBox="0 0 472 452" fill="none" xmlns="http://www.w3.org/2000/svg">
<path fill-rule="evenodd" clip-rule="evenodd" d="M211.363 15.4866C260.381 8.83112 288.077 72.1079 326.222 103.6C361.243 132.515 406.13 151.001 425.341 192.149C445.868 236.118 459.883 293.023 433.745 333.907C407.611 374.784 346.594 367.733 301.551 385.775C270.605 398.171 244.695 422.361 211.363 422.984C177.664 423.613 148.167 405.537 118.693 389.19C84.8161 370.402 45.7423 355.651 27.9357 321.252C8.80554 284.296 2.85911 237.333 20.5998 199.691C37.7742 163.25 88.1524 159.974 117.134 131.99C153.966 96.4239 160.624 22.3758 211.363 15.4866Z" fill="#EDEFA9"/>
<path d="M371.671 17.2172C371.205 17.5777 369.878 18.3612 368.297 18.6111C366.322 18.9235 364.908 18.9447 363.656 20.3069C362.403 21.6691 361.421 22.1788 360.158 22.8341C359.148 23.3583 357.952 23.5035 357.481 23.5105" stroke="#020A13" stroke-width="2" stroke-linecap="round"/>
<path d="M376.615 21.5979C375.558 21.8494 373.094 22.5698 371.693 23.4393C369.941 24.5261 367.774 26.1849 366.651 26.7674C365.529 27.3498 364.676 27.0797 363.133 27.8806C361.898 28.5214 358.914 29.4758 357.576 29.8729" stroke="#020A13" stroke-width="2" stroke-linecap="round"/>
<path d="M376.829 26.474C376.174 26.8138 374.472 27.6972 372.9 28.5127C370.935 29.532 369.953 30.0417 367.848 31.1338C365.743 32.2259 364.199 33.0269 362.79 33.4015" stroke="#020A13" stroke-width="2" stroke-linecap="round"/>
<path d="M378.442 11.7298C378.584 11.8218 378.735 11.9225 378.89 12.0316M378.89 12.0316C379.901 12.7416 381.122 13.8061 381.816 15.1442C382.617 16.6879 383.247 20.9919 384.048 22.5356C384.849 24.0793 384.543 27.2659 383.649 28.9763C382.756 30.6867 381.784 31.9034 381.025 33.1875C380.267 34.4717 380.506 36.3066 378.261 37.4715C376.016 38.6365 375.657 38.2883 374.753 39.2918C373.848 40.2953 369.924 42.6874 366.379 42.0333C362.833 41.3792 357.338 37.9965 355.441 38.8027C353.544 39.6089 349.094 39.9582 348.179 40.2548C347.265 40.5513 346.277 40.7075 346.901 39.8496C347.524 38.9917 350.766 33.5692 350.532 32.0877C350.298 30.6063 346.652 23.2361 348.996 19.1705C351.339 15.1049 351.458 13.6182 354.395 11.3822C357.331 9.14625 358.23 7.78929 360.273 7.26377C362.316 6.73825 364.135 5.43825 365.481 5.63025C366.827 5.82224 371.423 5.75354 374.142 7.90495C376.861 10.0564 377.986 11.7879 378.89 12.0316Z" stroke="#020A13" stroke-width="2"/>
<g clip-path="url(#clip0)">
<path d="M69.8285 340.272C69.2337 340.965 68.6191 341.678 68.0243 342.351C67.1916 343.282 66.2598 343.579 64.9314 343.361C60.6885 342.648 56.5845 341.421 52.5597 339.936C51.8459 339.678 51.7072 339.322 51.7865 338.629C52.5795 331.559 53.3329 324.469 54.1458 317.4C54.9389 310.39 55.7914 303.379 56.6439 296.389C57.437 289.874 58.23 283.359 59.0826 276.863C59.9351 270.289 60.867 263.734 61.779 257.179C62.7108 250.545 63.603 243.931 64.2375 237.258C65.1098 227.93 65.9425 218.603 66.8545 209.296C67.1321 206.444 67.5286 203.593 68.2226 200.82C68.6588 200.701 68.8967 200.999 69.1742 201.216C73.318 204.642 78.0961 206.543 83.4096 207.137C88.4852 207.712 93.422 206.999 98.2596 205.494C105.536 203.236 111.999 199.414 118.106 194.959C123.499 191.018 128.574 186.721 133.471 182.186C137.476 178.502 141.422 174.74 145.328 170.958C146.815 169.512 148.321 168.086 149.828 166.641C150.621 165.888 150.879 165.888 151.593 166.7C153.476 168.878 155.459 170.938 157.759 172.68C157.977 172.839 158.314 172.977 158.175 173.373C158.631 175.572 159.127 177.75 159.563 179.948C160.158 183.017 160.574 186.107 160.951 189.216C162.061 198.286 162.557 207.415 163.092 216.524C163.469 223.079 163.786 229.633 164.163 236.188C164.539 242.743 164.995 249.278 165.372 255.833C165.788 263.239 165.947 270.665 166.007 278.091C166.086 288.309 165.907 298.548 165.471 308.766C165.055 318.905 164.401 329.044 163.508 339.163C163.409 340.173 163.251 341.203 163.191 342.213C163.152 342.748 162.973 342.926 162.438 342.946C159.841 343.104 157.243 343.302 154.646 343.54C154.131 343.579 153.496 343.401 153.119 343.955C152.445 343.955 151.751 343.955 151.077 344.074C148.48 344.272 145.883 344.411 143.285 344.589C139.994 344.807 136.703 344.906 133.432 345.144C131.865 345.262 130.279 345.302 128.693 345.322C125.997 345.381 123.3 345.678 120.604 345.579C118.621 345.52 116.659 345.936 114.676 345.758C114.081 345.777 113.506 345.777 112.911 345.758C108.748 345.718 104.604 346.134 100.441 345.916C97.3674 345.758 94.3142 345.718 91.2411 345.738C89.5558 345.758 88.4654 344.926 87.712 343.48C86.4431 341.064 85.5905 338.51 84.7975 335.916C83.2708 330.925 82.0218 325.875 80.9313 320.766C80.9115 320.648 80.9115 320.489 80.7132 320.39C78.0961 325.895 75.4394 331.381 72.3663 336.648C71.6922 337.698 71.0181 338.747 70.3242 339.777C70.2449 340.015 70.2052 340.351 69.8285 340.272Z" fill="#00B1B1"/>
<path d="M270.413 111.173C270.492 120.599 270.571 130.045 270.631 139.471C270.71 152.462 270.79 165.472 270.889 178.463C270.889 179.413 270.631 179.671 269.699 179.75C263.969 180.205 258.259 180.74 252.529 181.255C246.978 181.75 241.407 182.225 235.855 182.72C230.264 183.216 224.673 183.73 219.082 184.225C213.551 184.721 208.039 185.196 202.507 185.671C201.357 185.77 200.207 185.849 199.058 186.008C198.205 186.127 197.848 186.028 197.868 184.998C197.908 177.73 197.888 170.482 197.888 163.215C197.888 162.819 197.868 162.423 197.848 162.026C197.273 161.215 197.67 160.304 197.531 159.432C197.511 150.917 197.531 142.382 197.511 133.867C197.511 133.728 197.511 133.609 197.491 133.471C197.491 132.599 197.59 131.728 197.531 130.857C197.511 117.47 197.531 104.083 197.511 90.6767C197.511 90.34 197.571 90.0232 197.551 89.6865C197.511 87.7458 197.531 85.8052 197.551 83.8645C197.551 82.5971 197.848 82.2604 199.097 82.1812C200.346 82.1218 201.595 81.9436 202.844 81.8842C203.142 81.8644 203.439 81.805 203.697 82.0228C205.779 82.0624 207.841 81.7456 209.903 81.5872C215.038 81.1911 220.153 80.7158 225.288 80.2802C231.137 79.7851 236.985 79.2702 242.834 78.7751C247.791 78.3593 252.767 77.9434 257.724 77.5276C261.273 77.2305 264.822 76.9137 268.371 76.6166C268.708 76.5968 269.025 76.5968 269.362 76.5374C270.036 76.4186 270.195 76.676 270.195 77.3295C270.175 80.5574 270.215 83.7853 270.215 87.0329C270.215 87.3894 270.234 87.7656 270.254 88.1221C270.373 88.5974 269.937 88.5974 269.719 88.7558C267.221 90.2608 264.762 91.7658 262.225 93.2312C260.044 94.4986 259.429 96.974 260.837 98.776C261.134 99.1523 261.471 99.4493 261.868 99.687C262.363 100.024 262.443 100.38 262.185 100.935C261.352 102.796 261.63 104.242 263.117 105.568C263.791 106.163 263.493 106.618 263.176 107.192C261.868 109.549 263.077 112.143 265.734 112.638C266.705 112.816 267.538 112.46 268.371 112.024C269.045 111.688 269.54 110.994 270.413 111.173Z" fill="#FEBD00"/>
<path d="M74.1709 81.0921C74.7459 80.5574 75.5984 80.597 76.1734 80.1019C76.4113 79.8049 76.7483 79.6663 77.0854 79.5672C80.0395 78.6365 83.0135 77.8246 86.0469 77.1909C86.3047 77.1315 86.5624 77.1117 86.8202 77.1711C88.9614 78.9335 91.2613 80.4782 93.6999 81.805C99.4298 84.9338 105.398 87.4686 111.702 89.231C115.37 90.2608 119.098 91.0331 122.884 91.2905C127.504 91.5876 132.064 91.3104 136.307 89.1122C139.301 87.5676 141.462 85.2507 142.83 82.201C143.187 81.8644 143.504 82.1614 143.821 82.2802C144.674 82.5971 145.506 82.9931 146.399 83.211C147.568 83.3496 148.203 84.0427 148.421 85.1715C148.58 86.2012 148.996 87.1517 149.254 88.1419C150.245 92.4391 151.335 96.7165 152.347 101.014C154.111 108.559 155.796 116.104 157.482 123.668C157.581 124.144 157.72 124.639 157.66 125.134C157.581 125.589 157.264 125.866 156.926 126.144C152.644 129.451 148.124 132.441 143.345 134.995C142.116 135.649 140.907 136.302 139.658 136.916C139.578 136.956 139.479 136.996 139.4 137.055C139.003 137.332 138.389 137.57 138.726 138.164C139.063 138.758 139.598 138.402 140.034 138.184C145.566 135.491 150.8 132.302 155.777 128.678C156.094 128.441 156.411 127.926 156.946 128.362C157.045 128.837 156.867 129.272 156.748 129.708C156.054 132.223 155.38 134.718 154.746 137.233C154.666 137.55 154.587 137.867 154.607 138.204C154.071 139.629 152.822 140.382 151.712 141.233C147.588 144.441 143.088 147.115 138.587 149.729C131.787 153.67 124.867 157.373 117.789 160.818C112.059 163.611 106.31 166.343 100.322 168.561C99.2712 168.957 98.2005 169.274 97.1101 169.552C96.1188 169.809 95.2464 169.631 94.374 169.076C92.2923 167.749 90.9441 165.829 89.9527 163.63C88.6244 160.68 88.1089 157.531 87.7917 154.323C87.5934 152.244 87.6132 150.184 87.6132 148.105C87.5934 143.154 88.1089 138.243 88.7037 133.332C89.5959 126.025 90.8251 118.777 91.7173 111.47C92.8276 102.341 90.2303 94.3006 84.3815 87.3102C81.9429 84.3991 78.9491 82.1812 75.0631 81.5277C74.726 81.4287 74.389 81.3891 74.1709 81.0921Z" fill="#FED1E0"/>
<path d="M74.1704 81.0921C79.127 81.6465 82.6561 84.5378 85.5508 88.2805C90.1505 94.2808 92.5297 101.093 92.1926 108.697C92.0142 112.678 91.3004 116.618 90.7453 120.559C89.3376 130.243 87.7713 139.926 87.8506 149.749C87.8903 154.184 88.2471 158.581 89.8729 162.759C90.8642 165.294 92.3314 167.472 94.7106 168.977C95.3648 169.393 96.0191 169.492 96.7725 169.314C100.54 168.403 104.069 166.858 107.578 165.254C121.793 158.818 135.632 151.729 148.658 143.095C150.641 141.788 152.584 140.421 154.17 138.6C154.289 138.461 154.388 138.283 154.487 138.124C154.507 137.986 154.507 137.847 154.567 137.748C156.569 134.362 157.303 130.5 158.611 126.876C158.651 126.757 158.453 126.876 158.591 126.876C158.968 126.896 157.699 127.866 156.866 128.203C153.258 130.777 149.61 133.312 145.704 135.451C143.88 136.441 142.056 137.411 140.212 138.382C139.598 138.718 138.904 139.154 138.448 138.243C138.031 137.411 138.765 137.095 139.36 136.798C144.871 134.045 150.165 130.896 155.102 127.193C155.915 126.579 156.688 125.926 157.481 125.292C158.175 124.678 158.651 124.837 159.107 125.827C159.761 123.926 160.792 122.262 162.021 120.698C162.339 120.302 162.576 119.906 162.497 119.351C161.982 115.272 161.645 111.153 160.97 107.093C160.039 101.37 157.362 96.5185 153.496 92.3005C152.326 91.0133 151.097 89.7657 149.689 88.6964C149.451 88.5181 149.194 88.3597 149.134 88.0231C148.579 87.1913 148.361 86.2606 148.321 85.2705C148.817 85.1318 149.134 85.4685 149.471 85.7061C154.467 89.1716 158.195 93.6867 160.871 99.1325C162.715 102.915 163.429 106.935 163.865 111.054C164.083 113.054 164.321 115.054 164.559 117.034C164.678 118.005 164.718 118.005 165.55 117.569C166.641 116.995 167.771 116.757 169 116.876C169.555 116.935 169.833 116.797 169.912 116.183C170.606 110.816 171.241 105.45 171.994 100.103C172.093 99.3701 171.677 99.2117 171.102 99.0731C167.176 98.1621 163.687 96.3601 160.574 93.8253C157.382 91.2113 154.923 88.0033 152.98 84.4189C150.066 79.0326 148.44 73.2699 147.845 67.1904C147.568 64.3388 147.409 61.4872 147.667 58.6158C147.687 58.4376 147.726 58.2197 147.568 57.9821C146.933 58.1801 146.299 58.4574 145.585 58.4178C143.444 58.3781 143.821 58.4772 143.484 60.1802C143.127 61.8833 142.849 63.6259 142.393 65.3092C141.58 68.2598 139.954 70.6163 137.258 72.1808C136.663 72.5174 136.524 72.9333 136.663 73.567C137.099 75.369 137.674 77.1117 138.329 78.8543C138.507 79.3098 138.785 79.7455 138.725 80.2603C138.289 80.8544 138.13 81.7455 137.119 81.7257C136.108 80.0821 135.612 78.2206 135.018 76.4186C134.78 75.7057 134.562 74.973 134.423 74.2205C134.304 73.5868 133.987 73.4679 133.372 73.5472C130.458 73.9432 127.682 73.5472 125.045 72.1015C121.615 70.2005 119.434 66.4181 119.751 62.6754C118.72 65.1705 117.432 67.7053 116.083 70.2005C115.588 71.0916 115.072 71.9827 114.656 72.9135C113.724 74.9136 112.059 75.9037 110.096 76.577C107.181 77.5671 104.148 78.082 101.095 78.4385C100.44 78.5177 99.7861 78.6761 99.1319 78.6563C97.2483 78.3989 95.464 77.7256 93.6399 77.2701C93.5805 76.5968 94.1356 76.7948 94.433 76.7354C96.4553 76.4384 98.5172 76.379 100.54 76.1413C103.196 75.8047 105.833 75.4086 108.43 74.7155C110.393 74.2006 111.94 73.2897 112.911 71.349C115.171 66.8736 117.63 62.4971 119.117 57.6652C119.474 56.5365 119.811 55.4473 119.137 54.2393C118.701 53.467 118.8 52.4967 119.137 51.6254C119.375 51.0313 119.355 50.4768 119.176 49.9025C118.919 49.051 118.661 48.1995 118.443 47.3281C118.145 46.1004 118.621 45.5063 119.87 45.4469C121.516 45.3677 121.516 45.3875 121.774 43.7042C121.893 43.0111 121.992 42.3378 122.091 41.6447C122.349 40.1199 123.36 39.1892 124.668 38.5357C125.045 38.8525 124.886 39.2684 124.827 39.6446C124.569 41.3081 124.252 42.9517 124.054 44.6349C123.994 45.0508 123.697 45.5855 124.292 45.8627C124.886 46.1202 125.323 45.9023 125.739 45.3677C126.829 43.9418 128.138 42.8527 129.982 42.4962C132.976 41.9022 135.89 43.3676 137.437 46.2786C138.15 47.6252 138.824 47.7044 139.756 46.5558C140.371 45.8033 141.124 45.2092 141.957 44.7538C143.86 43.724 145.823 43.6448 147.806 44.5161C148.539 44.8726 149.154 45.4073 149.868 45.9419C150.284 45.13 150.462 44.3181 150.74 43.526C151.355 42.0408 151.652 40.4367 152.703 39.1496C154.785 34.8127 157.223 30.8125 160.396 27.2876C164.757 22.4755 169.813 18.6932 176.158 17.0099C186.289 14.3365 194.953 17.0693 202.011 24.6736C207.226 30.3175 209.962 37.2089 211.112 44.6944C212.896 56.279 211.27 67.3885 206.016 77.9236C205.322 79.3296 204.489 80.6762 203.716 82.0624C202.13 82.3792 200.504 82.4387 198.898 82.5377C198.185 82.5773 197.887 82.7951 197.907 83.5872C197.967 85.5675 197.887 87.528 197.867 89.5083C197.491 90.6767 196.42 91.2113 195.587 91.9242C191.364 95.5482 186.606 98.1819 181.074 99.2513C180.063 99.4493 179.052 99.6474 178.021 99.5879C177.228 99.5483 176.911 99.9246 176.812 100.677C176.316 104.143 175.82 107.588 175.325 111.054C174.948 113.628 174.591 116.222 174.215 118.797C174.096 119.529 174.215 120.104 174.651 120.737C178.101 125.668 179.905 131.154 179.647 137.194C179.548 139.748 178.616 142.085 177.109 144.164C176.931 144.422 176.554 144.679 176.752 145.016C176.97 145.392 177.426 145.412 177.823 145.372C178.715 145.293 179.429 144.798 180.143 144.342C183.394 142.243 186.388 139.808 189.402 137.392C191.86 135.431 194.279 133.451 196.718 131.471C197.055 131.213 197.352 130.857 197.848 130.956C197.867 131.748 198.046 132.54 197.749 133.312C197.649 133.649 197.431 133.887 197.174 134.104C192.177 138.045 187.379 142.263 182.066 145.788C181.154 146.382 180.242 146.976 179.211 147.372C178.061 147.828 176.951 147.867 175.88 147.234C175.127 146.778 174.552 146.937 173.917 147.471C171.181 149.867 168.128 151.868 165.194 153.986C162.517 155.907 159.999 158.046 157.54 160.244C156.093 161.531 154.646 162.838 153.218 164.165C152.643 164.7 152.624 165.135 153.159 165.749C155.399 168.324 157.818 170.7 160.713 172.542C163.35 174.225 166.224 175.176 169.317 175.096C173.104 175.017 176.772 174.185 180.262 172.641C184.504 170.74 188.192 168.086 191.701 165.076C193.525 163.512 195.171 161.729 196.896 160.066C197.174 159.789 197.411 159.452 197.867 159.432C197.867 160.304 197.867 161.195 197.867 162.066C194.695 165.155 191.503 168.205 187.835 170.7C183.335 173.75 178.537 176.007 173.104 176.839C167.811 177.651 162.933 176.799 158.552 173.611C158.453 173.532 158.334 173.492 158.215 173.433C155.637 171.413 153.258 169.195 151.216 166.621C150.7 165.967 150.462 166.482 150.165 166.779C146.061 170.7 141.997 174.661 137.873 178.562C130.933 185.117 123.836 191.473 115.945 196.879C109.878 201.038 103.474 204.523 96.2967 206.385C90.4479 207.89 84.5793 208.147 78.6908 206.504C75.4789 205.613 72.5446 204.147 69.8879 202.127C69.3327 201.711 68.7974 201.276 68.2423 200.86C60.51 193.612 56.9809 184.245 54.7603 174.245C52.5199 164.165 52.0243 153.947 52.4604 143.649C52.738 136.916 53.1345 130.203 53.9474 123.53C55.2758 112.638 57.4567 101.964 62.0564 91.9044C62.9684 89.9043 63.9201 87.9042 65.2088 86.1022C67.4096 82.9931 70.2447 81.0723 74.1704 81.0921Z" fill="black"/>
<path d="M147.925 44.7142C145.903 43.8429 143.92 43.9419 141.957 44.8726C140.252 44.8528 138.785 44.1003 137.318 43.3676C135.216 42.318 133.452 40.7536 131.687 39.2288C130.537 38.2387 129.288 37.5258 127.682 37.605C126.929 37.6446 126.255 37.8228 125.62 38.199C125.343 38.3575 125.125 38.6545 124.748 38.5357C123.102 39.5853 122.21 41.0309 122.151 43.0111C122.151 43.2092 122.131 43.4072 122.091 43.6052C121.972 44.3181 122.071 45.2291 121.655 45.6845C121.199 46.1796 120.307 45.6251 119.593 45.6647C118.76 45.7043 118.423 46.041 118.582 46.8529C118.701 47.4866 118.939 48.1203 119.097 48.754C119.375 49.8629 119.891 50.9125 119.236 52.1601C118.86 52.873 119.018 53.8829 119.514 54.6156C119.97 55.2691 119.851 55.8632 119.672 56.5563C118.324 61.5665 115.747 66.0221 113.566 70.656C112.277 73.3888 110.275 74.6364 107.519 75.2502C103.256 76.2008 98.934 76.6166 94.592 76.9731C94.1955 77.0127 93.799 77.0523 93.4024 77.0919C92.887 77.389 92.312 77.3097 91.7767 77.2107C90.944 77.0523 90.1509 77.1117 89.338 77.2899C89.1398 77.3097 88.9415 77.2701 88.8027 77.1315C88.0691 76.4384 87.4347 76.577 86.8399 77.3295C83.5685 78.0028 80.3368 78.8148 77.1646 79.8643C76.8275 79.9831 76.4707 80.0425 76.1336 80.1415C76.55 78.0028 76.2724 75.9631 75.3604 73.9829C73.9924 71.0124 72.5054 68.0618 71.8511 64.8141C70.8796 59.9624 71.7916 55.4672 74.5475 51.368C76.4112 48.5758 79.2067 47.447 82.4186 47.0905C85.2538 46.7935 88.1484 46.8925 90.944 46.1004C94.5722 45.0706 97.2488 43.031 98.359 39.2882C98.5573 38.5951 98.8349 37.9218 99.053 37.2287C100.679 32.2582 104.347 29.7036 109.264 28.6937C111.504 28.2382 113.784 28.2382 116.064 28.3966C118.067 28.5352 120.089 28.4956 122.071 28.0996C122.706 27.9808 123.241 27.7431 123.777 27.3669C126.294 25.5846 129.169 24.9113 132.203 24.9311C138.369 24.9905 143.821 26.9906 148.48 31.0898C150.919 33.2285 152.406 35.8227 152.683 39.0902C152.069 40.5754 151.474 42.0606 150.859 43.5458C150.126 44.4964 149.115 44.833 147.925 44.7142Z" fill="#FEBD00"/>
<path d="M256.356 231.614C256.356 235.376 256.475 239.139 256.336 242.901C255.999 251.912 256.257 260.902 256.177 269.913C256.177 270.724 255.801 270.962 255.146 271.002C253.124 271.14 251.082 271.239 249.04 271.418C246.284 271.655 243.548 271.932 240.812 272.17C238.909 272.328 237.005 272.447 235.122 272.606C232.287 272.843 229.432 273.121 226.596 273.358C224.237 273.556 221.878 273.695 219.518 273.893C219.082 273.933 219.082 273.675 219.102 273.418C219.181 271.279 218.904 269.14 219.261 267.002C219.32 266.685 219.28 266.348 219.3 266.011C219.3 260.229 219.161 254.446 219.34 248.684C219.578 241.297 219.38 233.911 219.538 226.524C219.578 225.118 219.697 223.693 219.697 222.287C219.697 221.752 219.935 221.534 220.47 221.494C223.186 221.316 225.902 221.138 228.619 220.9C232.049 220.603 235.479 220.227 238.909 219.93C241.664 219.692 244.42 219.534 247.156 219.316C249.813 219.098 252.45 218.821 255.087 218.544C256.217 218.425 256.356 218.504 256.356 219.613C256.376 223.633 256.376 227.614 256.356 231.614C256.376 231.614 256.356 231.614 256.356 231.614Z" fill="#FED1E0"/>
<path d="M112.792 345.52C113.407 345.52 114.001 345.5 114.616 345.5C114.953 345.975 114.735 346.47 114.636 346.926C113.803 350.688 113.03 354.471 111.999 358.214C111.087 361.54 110.71 364.947 110.334 368.353C109.818 373.066 109.481 377.799 109.184 382.551C109.045 384.591 109.065 386.631 108.985 388.67C108.668 398.829 108.648 408.988 108.787 419.147C108.847 424.018 108.985 428.91 109.164 433.781C109.203 435.068 109.382 436.336 109.342 437.623C109.322 438.217 109.481 438.455 110.155 438.197C112.574 437.267 115.786 438.257 117.312 440.356C117.59 440.732 117.987 440.871 118.403 440.99C120.009 441.485 121.555 442.178 123.062 442.93C124.192 443.504 125.243 444.158 126.056 445.148C126.413 445.604 126.869 445.782 127.444 445.782C131.013 445.782 134.581 445.762 138.15 445.782C138.903 445.782 139.3 445.465 139.478 444.752C139.756 443.623 140.192 442.554 140.668 441.504C141.104 440.574 141.084 440.574 140.113 440.316C137.496 439.623 135.097 438.514 133.035 436.712C130.16 434.197 128.752 430.989 128.614 427.207C128.376 421.107 129.486 415.186 130.854 409.285C133.332 398.691 136.861 388.413 140.311 378.135C143.622 368.313 146.993 358.511 149.788 348.53C150.125 347.362 150.442 346.173 150.76 345.005C150.879 344.589 150.958 344.153 151.295 343.856C151.91 343.777 152.544 343.381 153.139 343.955C151.374 351.144 149.134 358.214 146.834 365.244C143.008 376.967 138.804 388.571 135.355 400.413C133.57 406.513 132.004 412.671 131.131 418.989C130.735 421.939 130.418 424.91 130.735 427.88C131.29 432.89 134.284 435.999 138.864 437.762C139.637 438.059 140.43 438.257 141.223 438.475C142.076 438.712 142.869 438.811 143.721 438.237C144.613 437.643 145.704 437.801 146.695 438.078C147.845 438.376 148.916 438.89 149.907 439.544C150.205 439.742 150.502 439.841 150.304 440.376C150.125 440.871 150.72 440.791 150.958 440.871C153.139 441.564 155.24 442.376 157.203 443.544C157.897 443.96 158.512 444.435 159.047 445.029C159.384 445.406 159.801 445.861 159.701 446.316C159.444 447.485 160.197 447.782 160.99 448.218C162.16 448.871 162.418 450.396 161.743 451.525C161.466 452 161.05 451.822 160.693 451.822C155.102 451.762 149.53 451.683 143.939 451.604C139.122 451.544 134.284 451.465 129.466 451.426C129.03 451.426 128.574 451.287 128.257 451.822C128.058 452.178 127.583 451.98 127.226 451.98C113.942 451.822 100.658 451.643 87.3746 451.485C82.7154 451.426 78.0562 451.346 73.3969 451.307C72.7427 451.307 72.5642 451.129 72.6039 450.475C72.6832 449.267 72.6832 448.039 72.6832 446.812C72.6832 446.277 72.8021 445.98 73.3969 446.099C74.1107 446.237 74.1107 445.821 74.0512 445.287C73.0797 436.791 72.8418 428.236 71.8703 419.761C71.1169 413.147 70.2842 406.533 69.5903 399.918C68.2421 386.908 67.1516 373.897 67.7464 360.808C68.024 354.451 68.817 348.134 69.5903 341.817C69.6497 341.322 69.6894 340.827 69.7291 340.332C70.5023 339.143 71.2755 337.955 72.0289 336.787C72.4254 337.341 72.1677 337.955 72.1082 338.51C71.3945 343.975 70.7402 349.441 70.2445 354.926C70.0066 357.679 69.7489 360.451 69.7885 363.224C69.8084 364.947 69.4911 366.65 69.5903 368.353C69.848 372.729 69.848 377.105 70.1256 381.482C70.4626 386.749 70.879 391.997 71.3945 397.245C71.8703 402.097 72.4651 406.948 73.0202 411.8C73.6745 417.563 74.4279 423.325 74.7848 429.128C75.102 434.316 75.5184 439.524 76.0735 444.693C76.1726 445.604 76.5295 445.881 77.382 445.841C78.1751 445.802 78.9682 445.841 79.7612 445.821C87.8901 445.683 96.0189 446.118 104.128 446.019C105.615 446 105.635 446.019 106.051 444.613C106.368 443.603 106.725 442.613 107.221 441.663C107.598 440.95 107.419 440.692 106.666 440.514C104.187 439.94 101.907 438.89 99.9445 437.267C96.9111 434.791 95.325 431.563 95.1664 427.642C94.8491 419.246 96.3758 411.087 98.1403 402.948C100.975 389.779 104.703 376.828 108.034 363.778C109.481 358.095 110.909 352.391 112.138 346.649C112.336 346.233 112.336 345.777 112.792 345.52Z" fill="black"/>
<path d="M0 164.205C11.8959 167.294 23.6529 170.344 35.41 173.393C35.41 173.473 35.4497 173.552 35.4298 173.591C31.9007 178.304 27.7967 182.364 22.384 184.839C14.6319 188.384 7.31595 185.79 3.39032 178.166C1.13011 173.849 0.27757 169.175 0 164.205Z" fill="#FE0E11"/>
<path d="M270.413 111.173C269.659 111.589 268.926 112.024 268.172 112.42C266.447 113.331 264.564 113.014 263.315 111.589C262.125 110.222 262.046 108.281 263.176 106.757C263.533 106.281 263.473 106.143 263.037 105.806C261.411 104.578 261.015 102.578 262.026 100.776C262.244 100.4 262.363 100.222 261.848 99.9048C259.151 98.281 259.131 94.8749 261.828 93.1916C264.623 91.449 267.478 89.8053 270.294 88.1023C271.087 87.6468 271.88 87.1716 272.693 86.7359C274.318 85.8844 276.103 86.1616 277.332 87.429C278.542 88.6766 278.779 90.4588 277.848 92.0629C277.61 92.4787 277.59 92.6372 278.066 92.9342C280.207 94.2016 280.703 96.6175 279.235 98.6176C278.938 99.0335 278.898 99.1523 279.335 99.5088C281.694 101.311 281.496 104.44 278.938 106.024C276.38 107.588 273.783 109.093 271.206 110.618C270.948 110.777 270.69 110.975 270.413 111.173Z" fill="black"/>
<path d="M106.865 316.39C106.706 318.707 105.913 320.747 104.961 322.747C103.415 325.994 101.531 329.044 98.9935 331.638C98.3392 332.292 97.6255 332.886 96.773 333.262C96.0394 333.579 95.3851 333.5 94.7705 332.925C93.4025 331.638 93.1844 330.113 93.7593 328.41C94.6119 325.836 96.3368 323.836 98.1806 321.935C99.1918 320.885 100.262 319.915 101.373 318.984C102.622 317.954 103.851 316.944 104.842 315.618C105.179 315.162 105.596 314.469 106.23 314.726C106.865 314.964 106.765 315.796 106.865 316.39Z" fill="#FED1E0"/>
<path d="M156.827 212.385C156.748 213.752 156.252 215.237 155.637 216.702C154.091 220.405 152.069 223.831 149.333 226.802C148.619 227.574 147.826 228.287 146.854 228.762C146.002 229.178 145.268 229.039 144.614 228.386C143.365 227.158 143.186 225.693 143.682 224.089C144.237 222.247 145.328 220.722 146.537 219.257C148.183 217.257 150.046 215.474 152.088 213.91C153.179 213.078 154.031 212.049 154.924 211.019C155.261 210.643 155.578 210.029 156.193 210.266C156.768 210.504 156.748 211.177 156.827 211.732C156.847 211.87 156.827 212.009 156.827 212.385Z" fill="#FED1E0"/>
<path d="M84.4408 263.199C84.3416 264.843 83.9253 266.289 83.3503 267.714C81.7245 271.695 79.5833 275.339 76.5895 278.448C76.1137 278.943 75.5783 279.398 74.9836 279.755C73.5957 280.606 72.7233 280.448 71.7518 279.141C70.82 277.873 70.8596 276.507 71.3553 275.101C72.0889 273.002 73.4371 271.299 74.8844 269.655C76.2524 268.13 77.7394 266.704 79.3454 265.457C80.4557 264.605 81.4271 263.655 82.2995 262.566C82.6762 262.09 83.0331 261.338 83.7468 261.595C84.4804 261.833 84.2822 262.684 84.4408 263.199Z" fill="#FED1E0"/>
<path d="M131.469 194.107C131.31 196.226 130.596 198.127 129.744 199.969C128.178 203.335 126.274 206.464 123.677 209.157C123.399 209.435 123.122 209.732 122.805 209.949C121.912 210.623 121.02 211.454 119.791 210.841C118.582 210.246 117.868 208.563 118.086 207.118C118.284 205.791 118.839 204.603 119.573 203.494C121.417 200.622 123.836 198.305 126.453 196.186C127.503 195.335 128.495 194.424 129.327 193.355C129.704 192.879 130.101 192.127 130.755 192.345C131.508 192.582 131.389 193.473 131.469 194.107Z" fill="#FED1E0"/>
<path d="M155.261 259.001C155.161 260.981 154.448 262.783 153.655 264.566C152.088 267.972 150.165 271.14 147.548 273.853C147.152 274.249 146.735 274.626 146.279 274.962C144.297 276.428 142.274 275.537 141.957 273.041C141.798 271.754 142.136 270.566 142.73 269.417C144.455 266.091 147.112 263.576 149.927 261.199C151.137 260.169 152.346 259.179 153.318 257.892C153.635 257.476 154.012 256.823 154.626 257.041C155.261 257.258 155.241 257.991 155.261 258.585C155.261 258.724 155.261 258.863 155.261 259.001Z" fill="#FED1E0"/>
<path d="M88.2275 234.109C88.2275 231.733 88.3663 229.356 89.0404 227.059C89.2387 226.386 89.3775 225.455 90.2102 225.396C91.0627 225.336 91.2808 226.287 91.5386 226.92C92.4109 229.138 93.085 231.416 93.541 233.733C93.9772 235.951 93.541 238.188 92.8273 240.347C92.748 240.585 92.6092 240.822 92.4704 241.06C92.0342 241.773 91.4394 242.327 90.5671 242.288C89.7145 242.248 89.3775 241.515 89.0999 240.842C88.287 238.644 88.2275 236.386 88.2275 234.109Z" fill="#FED1E0"/>
<path d="M126.532 242.149C126.473 239.733 126.632 237.337 127.326 235.02C127.524 234.386 127.663 233.495 128.475 233.475C129.229 233.436 129.487 234.267 129.705 234.861C131.093 238.842 132.679 242.783 131.469 247.139C131.231 247.971 131.033 248.803 130.478 249.476C129.407 250.803 128.198 250.664 127.464 249.139C126.79 247.714 126.632 246.169 126.513 244.624C126.473 243.793 126.532 242.961 126.532 242.149Z" fill="#FED1E0"/>
<path d="M69.2343 307.657C69.1748 305.241 69.3334 302.845 70.0472 300.528C70.2454 299.894 70.3842 299.003 71.2169 298.983C71.9704 298.963 72.2281 299.775 72.4264 300.389C73.8142 304.37 75.3805 308.31 74.1909 312.667C73.953 313.538 73.7349 314.39 73.1401 315.083C72.0893 316.291 70.9394 316.152 70.2454 314.746C69.5317 313.301 69.3731 311.716 69.2541 310.132C69.1748 309.32 69.2343 308.489 69.2343 307.657Z" fill="#FED1E0"/>
<path d="M110.414 284.883C110.414 282.507 110.553 280.131 111.246 277.853C111.445 277.2 111.584 276.329 112.377 276.269C113.189 276.21 113.467 277.081 113.665 277.715C114.597 280.784 116.104 283.735 115.787 287.062C115.688 288.072 115.549 289.082 115.37 290.092C115.291 290.547 115.132 290.983 114.934 291.399C114.498 292.329 113.903 293.201 112.753 293.141C111.702 293.082 111.405 292.072 111.128 291.24C110.473 289.181 110.394 287.042 110.414 284.883Z" fill="#FED1E0"/>
<path d="M146.478 322.628C146.478 320.291 146.597 317.954 147.29 315.697C147.489 315.023 147.608 314.093 148.44 314.033C149.313 313.954 149.57 314.885 149.769 315.538C150.661 318.548 152.148 321.42 151.87 324.687C151.751 325.994 151.652 327.321 151.236 328.569C151.097 328.965 150.919 329.381 150.701 329.717C150.264 330.371 149.709 330.905 148.857 330.846C147.984 330.787 147.647 330.094 147.39 329.42C146.537 327.242 146.478 324.945 146.478 322.628Z" fill="#FED1E0"/>
<path d="M197.888 159.412C194.775 162.601 191.623 165.749 187.995 168.383C183.395 171.71 178.458 174.166 172.768 175.057C166.899 175.987 161.903 174.324 157.501 170.482C155.757 168.957 154.171 167.294 152.644 165.551C152.208 165.036 152.208 164.759 152.723 164.284C157.878 159.412 163.291 154.818 169.179 150.838C171.003 149.59 172.768 148.263 174.394 146.758C174.731 146.461 174.988 146.402 175.325 146.679C177.09 148.006 178.775 147.511 180.461 146.521C183.514 144.739 186.27 142.521 189.026 140.342C191.94 138.025 194.835 135.669 197.749 133.332C197.967 133.55 197.908 133.827 197.908 134.085C197.908 142.342 197.908 150.6 197.908 158.858C197.928 159.016 197.908 159.214 197.888 159.412Z" fill="#FEFEFE"/>
<path d="M206.75 102.162C206.77 96.6769 211.35 92.2411 217 92.2411C222.671 92.2411 227.27 96.7363 227.251 102.242C227.231 107.687 222.631 112.163 217 112.143C211.31 112.163 206.73 107.687 206.75 102.162Z" fill="black"/>
<path d="M210.596 146.659C210.339 146.699 210.081 146.758 209.803 146.758C209.248 146.778 208.812 146.62 208.733 145.986C208.653 145.372 209.01 145.055 209.585 144.996C211.191 144.818 212.797 144.64 214.403 144.481C222.314 143.689 230.224 142.917 238.135 142.144C244.856 141.471 251.597 140.818 258.319 140.144C258.993 140.085 259.587 140.204 259.647 140.956C259.706 141.669 259.171 141.867 258.537 141.927C254.036 142.362 249.535 142.818 245.055 143.273C239.345 143.847 233.635 144.402 227.925 144.976C222.155 145.55 216.366 146.105 210.596 146.679C210.596 146.679 210.596 146.679 210.596 146.659Z" fill="black"/>
<path d="M208.951 135.946C208.515 135.946 208.059 135.768 207.999 135.154C207.92 134.5 208.317 134.203 208.951 134.144C212.817 133.768 216.703 133.372 220.569 132.976C226.319 132.401 232.069 131.847 237.798 131.273C243.449 130.718 249.1 130.164 254.73 129.609C255.682 129.51 256.634 129.451 257.585 129.332C258.239 129.253 258.834 129.332 258.914 130.124C258.993 130.877 258.398 131.055 257.823 131.114C254.909 131.411 251.974 131.688 249.06 131.985C243.29 132.56 237.501 133.134 231.732 133.689C226.061 134.243 220.371 134.798 214.701 135.352C212.817 135.55 210.953 135.748 208.951 135.946Z" fill="black"/>
<path d="M259.567 161.888C259.725 161.868 259.904 161.848 260.062 161.848C260.637 161.809 261.054 162.007 261.113 162.62C261.173 163.254 260.756 163.531 260.221 163.611C259.448 163.729 258.655 163.789 257.862 163.868C248.563 164.779 239.265 165.71 229.966 166.621C223.859 167.215 217.733 167.829 211.627 168.423C210.972 168.482 210.259 168.502 210.179 167.65C210.1 166.799 210.774 166.7 211.448 166.64C220.152 165.789 228.856 164.937 237.579 164.066C244.915 163.333 252.231 162.601 259.567 161.868V161.888Z" fill="black"/>
<path d="M256.752 118.539C257.248 118.519 257.763 118.401 258.08 118.916C258.457 119.549 258.021 120.203 257.089 120.302C254.393 120.579 251.696 120.836 249 121.094C243.191 121.668 237.362 122.242 231.553 122.817C225.862 123.371 220.192 123.926 214.502 124.48C212.539 124.678 210.556 124.876 208.594 125.074C207.959 125.134 207.305 125.074 207.245 124.302C207.186 123.549 207.781 123.351 208.435 123.292C218.943 122.262 229.471 121.213 239.979 120.163C245.57 119.609 251.161 119.074 256.752 118.539Z" fill="black"/>
<path d="M210.874 157.571C210.2 157.65 209.506 157.63 209.466 156.759C209.427 155.927 210.121 155.828 210.775 155.769C218.626 154.996 226.478 154.224 234.329 153.432C242.438 152.64 250.567 151.828 258.676 151.036C258.874 151.016 259.072 151.016 259.27 150.996C259.885 150.937 260.341 151.135 260.381 151.808C260.42 152.481 259.944 152.719 259.37 152.778C258.279 152.897 257.208 152.996 256.118 153.115C250.428 153.67 244.757 154.224 239.067 154.779C232.703 155.412 226.319 156.046 219.955 156.68C216.921 156.977 213.888 157.274 210.874 157.571Z" fill="black"/>
<path d="M233.001 98.3206C232.386 98.3602 231.831 98.2809 231.752 97.5482C231.672 96.8155 232.168 96.5977 232.802 96.5383C239.048 96.0234 245.313 95.5085 251.558 94.9739C252.906 94.8551 254.254 94.7362 255.603 94.6174C256.237 94.558 256.872 94.5976 256.951 95.4095C257.03 96.2215 256.455 96.3601 255.801 96.4195C249.556 96.9344 243.29 97.4492 237.045 97.9839C235.697 98.0631 234.349 98.2017 233.001 98.3206Z" fill="#010000"/>
<path d="M233.476 107.054C233.337 107.054 233.218 107.073 233.08 107.073C232.445 107.133 231.831 107.073 231.791 106.242C231.751 105.489 232.326 105.331 232.921 105.291C238.651 104.816 244.361 104.341 250.091 103.885C251.974 103.727 253.838 103.588 255.721 103.43C256.316 103.39 256.911 103.39 257.01 104.162C257.109 104.974 256.514 105.172 255.88 105.212C250.884 105.628 245.888 106.044 240.891 106.44C238.413 106.658 235.955 106.875 233.476 107.054C233.476 107.073 233.476 107.073 233.476 107.054Z" fill="#010000"/>
<path d="M149.114 88.0231C152.762 90.5776 155.538 93.9243 157.818 97.7265C160.316 101.885 161.327 106.479 161.803 111.232C162.081 113.925 162.418 116.599 162.755 119.272C162.814 119.826 162.755 120.262 162.378 120.718C160.99 122.361 159.939 124.203 159.127 126.302C158.849 125.371 158.433 124.837 157.461 125.312C157.283 123.272 156.688 121.332 156.252 119.351C154.15 109.965 152.029 100.578 149.729 91.2311C149.471 90.1618 148.916 89.1716 149.114 88.0231Z" fill="#FEFEFE"/>
<path d="M145.565 58.1801C145.883 60.5961 146.239 62.9922 146.517 65.4082C146.715 67.0716 146.814 68.7549 146.913 70.4183C147.211 74.7353 147.112 79.0325 146.319 83.2902C145.387 83.409 144.693 82.7951 143.9 82.5376C143.563 82.4188 143.246 82.2802 142.909 82.1416C142.492 82.1614 142.135 81.9238 141.759 81.8445C140.708 81.3297 139.637 80.8544 138.626 80.2801C137.714 78.0226 136.901 75.7453 136.326 73.3689C136.168 72.7154 136.247 72.3986 136.881 72.0619C140.014 70.4579 141.6 67.7251 142.334 64.418C142.73 62.6358 143.028 60.8337 143.365 59.0316C143.464 58.4376 143.622 57.9821 144.396 58.1405C144.772 58.1999 145.189 58.1603 145.565 58.1801Z" fill="#FEBD00"/>
<path d="M141.818 81.6267C142.294 81.5871 142.631 81.7852 142.929 82.1416C142.77 83.7853 141.679 84.9338 140.668 86.0824C137.714 89.4291 133.808 90.8945 129.506 91.3896C122.646 92.2015 116.044 90.8747 109.541 88.835C102.126 86.5181 95.0873 83.3694 88.6636 78.9336C87.9895 78.4781 87.2559 78.0622 86.8594 77.2899C87.2956 76.0027 87.6921 75.9631 89.1394 77.0523C89.6946 77.1117 90.1109 77.4285 90.5471 77.7256C99.3699 83.4882 109.006 87.2508 119.395 89.0528C124.212 89.8846 129.05 90.0034 133.769 88.3003C136.703 87.231 138.963 85.3497 140.589 82.6961C140.886 82.201 141.144 81.6664 141.818 81.6267Z" fill="black"/>
<path d="M156.827 128.203C157.481 127.668 158.115 127.134 158.77 126.599C157.422 130.52 156.906 134.698 154.448 138.144C154.21 137.035 154.765 136.065 155.023 135.055C155.578 132.758 156.212 130.48 156.827 128.203Z" fill="#FDFDFD"/>
<path d="M177.11 131.134C177.288 132.144 177.466 132.976 177.546 133.827C177.605 134.362 177.149 134.698 176.773 135.015C176.495 135.233 176.158 135.411 175.861 135.609C175.424 135.926 175.305 136.362 175.583 136.817C175.861 137.312 176.336 137.312 176.792 137.114C177.05 136.996 177.308 136.817 177.605 136.639C177.704 137.57 177.466 138.402 177.209 139.194C177.05 139.689 176.634 140.065 176.039 140.105C175.484 140.144 175.048 140.342 175.008 140.956C174.968 141.629 175.405 141.887 176.079 141.946C175.345 143.293 174.354 144.362 173.263 145.352C171.122 147.313 168.743 148.976 166.344 150.62C159.147 155.571 152.902 161.591 146.636 167.611C139.162 174.819 131.786 182.107 123.757 188.681C117.293 193.988 110.532 198.84 102.8 202.187C96.9712 204.721 90.9439 206.167 84.5202 205.672C77.3033 205.137 71.3752 202.048 66.6962 196.582C62.037 191.137 59.3604 184.681 57.5364 177.849C54.6021 166.918 53.8288 155.769 54.2452 144.501C54.4435 138.758 54.7805 133.035 55.3555 127.312C56.4459 116.559 58.27 105.964 62.2947 95.8848C63.5438 92.7362 64.8722 89.6073 66.8945 86.8349C69.9279 82.6367 74.1113 81.7456 78.5921 84.3595C81.8832 86.2606 84.2426 89.0924 86.1261 92.3203C89.0802 97.3502 90.706 102.756 90.3888 108.618C90.1707 112.539 89.5164 116.42 88.9415 120.302C87.4743 130.421 85.8287 140.521 86.0666 150.798C86.1658 155.333 86.6812 159.809 88.4656 164.046C89.4966 166.482 91.0034 168.561 93.1843 170.146C94.4334 171.057 95.7023 171.294 97.1694 170.938C101.511 169.849 105.596 168.106 109.64 166.264C123.439 159.967 136.783 152.858 149.591 144.699C154.587 141.511 157.878 137.332 159.266 131.57C159.9 128.956 160.773 126.381 162.18 124.045C163.092 122.539 164.103 121.133 165.511 120.044C167.494 118.52 169.476 118.52 171.36 120.143C173.858 122.302 175.186 125.213 176.217 128.263C176.435 128.896 176.178 129.49 175.662 129.946C175.226 130.342 174.77 130.718 174.314 131.114C173.878 131.51 173.64 131.985 174.096 132.481C174.532 132.976 175.028 132.857 175.484 132.461C175.999 132.065 176.475 131.669 177.11 131.134Z" fill="#FEFEFE"/>
<path d="M174.274 27.7629C181.154 23.8023 189.521 24.4954 195.548 30.9314C199.275 34.9316 201.436 39.7635 202.368 45.0508C204.569 57.487 201.952 68.9133 194.596 79.2108C192.732 81.8248 190.452 84.0823 187.796 85.924C181.986 89.9638 175.84 91.2708 169.159 88.2013C168.802 87.8845 168.941 87.4686 168.96 87.0924C169.238 84.1417 169.516 81.1911 169.397 78.2207C169.159 72.7947 168.703 67.3885 167.949 62.0021C167.791 60.9129 167.394 59.8238 167.751 58.695C171.538 58.1207 174.056 56.0216 175.047 52.2987C176.157 48.1401 174.234 43.8429 170.269 42.021C170.348 41.7041 170.626 41.6645 170.884 41.5853C171.062 41.5259 171.26 41.4467 171.459 41.4071C175.602 40.3378 176.594 37.8426 176.296 33.3671C176.177 31.6839 175.563 30.0997 174.591 28.6739C174.413 28.3966 174.254 28.1194 174.274 27.7629Z" fill="#EDEFA9"/>
<path d="M99.152 78.3791C102.523 77.9632 105.893 77.5671 109.164 76.5572C110.057 76.28 110.909 75.9631 111.742 75.5473C112.793 75.0126 113.606 74.2601 114.18 73.1907C116.163 69.4678 118.185 65.7448 119.89 61.8437C120.009 63.1705 119.95 64.4973 120.347 65.7844C121.655 69.9827 124.629 72.2402 128.753 73.1709C130.438 73.5472 132.163 73.4878 133.848 73.1511C134.284 73.0719 134.483 73.0521 134.582 73.5472C135.137 76.379 136.247 79.0128 137.239 81.6861C137.477 82.5773 136.783 82.9931 136.267 83.4684C134.562 85.013 132.48 85.7259 130.28 86.1022C127.881 86.4982 125.462 86.4982 123.083 86.122C118.047 85.3497 113.07 84.3001 108.272 82.5971C105.437 81.5871 102.721 80.2801 99.9451 79.1514C99.5486 79.0128 99.1322 78.8939 99.152 78.3791Z" fill="#FEFEFE"/>
<path d="M137.377 52.4373C137.655 53.6651 137.912 54.7542 138.17 55.8236C138.269 56.2394 138.19 56.4771 137.674 56.279C137.218 56.1008 136.742 55.9424 136.286 55.8236C135.751 55.685 135.256 55.8236 135.077 56.3781C134.899 56.9127 135.097 57.3484 135.652 57.5662C136.326 57.8237 137 58.1009 137.714 58.1603C139.459 58.3385 140.053 57.8039 140.073 55.9424C140.589 56.3583 141.045 56.7741 141.54 57.1108C141.858 57.3088 141.778 57.5662 141.739 57.8039C141.283 60.3386 140.926 62.8734 140.153 65.329C138.725 69.9232 134.284 72.3392 129.129 71.3886C124.549 70.5569 121.575 66.834 121.793 62.1605C121.873 60.4773 122.091 58.8138 122.21 57.1306C122.249 56.6157 122.388 56.2988 123.003 56.2592C123.379 56.2394 123.796 56.1008 124.014 55.7246C124.212 55.3879 124.212 55.0315 123.954 54.7146C123.637 54.3186 123.221 54.2988 122.785 54.477C122.17 54.7146 121.674 54.5562 121.298 54.0611C120.881 53.5264 120.782 52.8927 121.04 52.2987C121.318 51.665 121.853 51.3481 122.567 51.6056C123.142 51.8036 123.697 51.9026 123.994 51.2293C124.272 50.6154 123.855 50.3382 123.399 49.9817C122.705 49.447 123.241 48.6945 123.34 48.0806C123.419 47.6648 123.954 47.942 124.272 47.942C124.847 47.942 124.728 48.3579 124.688 48.7143C124.569 50.0807 124.708 51.4273 125.342 52.6551C126.512 54.9721 128.376 56.3979 131.013 56.5167C133.61 56.6355 135.553 55.4077 136.921 53.2294C137.06 53.0116 137.179 52.8135 137.377 52.4373Z" fill="#FEFEFE"/>
<path d="M99.1517 78.3791C100.262 79.2504 101.63 79.5474 102.879 80.1019C106.17 81.5277 109.442 82.9733 112.951 83.7655C116.619 84.617 120.267 85.6863 124.014 86.0032C127.801 86.32 131.608 86.2804 134.998 84.1021C135.93 83.508 136.881 82.8743 137.238 81.706C137.893 81.4089 138.091 80.6564 138.646 80.2801C139.855 80.399 140.767 81.1911 141.838 81.6267C141.461 81.7654 141.283 82.0624 141.104 82.3991C138.824 86.5973 135.097 88.637 130.557 89.4291C125.283 90.3598 120.088 89.6865 114.953 88.4191C106.051 86.2408 97.6845 82.7753 90.0315 77.686C89.7341 77.4879 89.4566 77.2503 89.1592 77.0325C90.5867 76.5572 92.0142 76.9335 93.4417 77.0127C94.9287 77.2503 96.3958 77.587 97.8233 78.1018C98.2397 78.2801 98.6759 78.3593 99.1517 78.3791Z" fill="#FED1E0"/>
<path d="M167.771 58.695C168.346 62.1011 168.742 65.5468 169.079 68.9727C169.495 73.0719 169.753 77.1909 169.654 81.3099C169.614 83.607 169.416 85.924 169.158 88.2013C169.099 88.8746 168.821 88.9142 168.266 88.5775C164.916 86.5378 162.457 83.6664 160.574 80.2603C159.781 78.8147 159.126 77.3097 158.571 75.7651C158.452 75.4284 158.373 75.1908 158.71 74.9136C161.823 72.4778 162.992 69.0321 163.726 65.3488C164.142 63.2299 164.539 61.0911 164.916 58.9524C164.995 58.5168 165.035 58.3187 165.57 58.4574C166.303 58.6356 167.057 58.6158 167.771 58.695Z" fill="#FEBD00"/>
<path d="M174.274 27.7629C176.554 30.8521 177.248 34.2186 176.098 37.9416C175.682 39.308 174.889 40.2387 173.64 40.8526C172.569 41.3873 171.439 41.7041 170.289 42.021C168.128 41.2091 165.987 41.2091 163.865 42.1794C163.072 42.12 162.22 42.2388 161.625 41.5061C164.44 35.9415 168.267 31.3076 173.66 28.0401C173.858 27.9411 174.076 27.8619 174.274 27.7629Z" fill="#FEBD00"/>
<path d="M126.473 49.5263C126.473 46.6746 128.673 44.2983 131.31 44.2983C133.947 44.3181 136.168 46.734 136.148 49.5461C136.128 52.3383 133.927 54.6948 131.33 54.7146C128.713 54.7542 126.492 52.3977 126.473 49.5263Z" fill="#FEFEFE"/>
<path d="M160.395 54.7542C161.268 55.9622 162.061 56.8137 163.092 57.4276C163.31 57.5662 163.369 57.7445 163.31 58.0217C162.656 61.6456 162.16 65.2894 160.97 68.7945C160.336 70.6559 159.245 72.1411 157.937 73.1907C156.787 70.9134 156.113 62.7744 156.727 58.398C160.276 59.0515 161.03 58.3782 160.395 54.7542Z" fill="#FEFEFE"/>
<path d="M124.728 38.5159C126.83 36.7534 129.546 36.9316 131.846 39.0308C134.344 41.3081 136.981 43.3478 140.272 44.3775C140.827 44.5558 141.402 44.734 141.957 44.8924C141.085 45.5459 140.232 46.1796 139.618 47.1103C139.459 47.348 139.38 47.843 138.924 47.6054C138.428 47.348 137.714 47.744 137.397 46.8727C136.545 44.635 134.919 43.1696 132.54 42.6943C129.923 42.1596 127.405 43.2686 125.878 45.5459C125.482 46.14 124.391 46.3974 123.776 46.0608C123.459 45.8826 123.658 45.6449 123.697 45.4667C124.034 43.13 124.391 40.813 124.728 38.5159Z" fill="#FEFEFE"/>
<path d="M167.236 56.6751C167.394 56.279 167.493 55.9622 167.612 55.6652C168.187 54.1007 167.949 52.6749 166.76 51.4867C166.343 51.0709 166.205 50.6748 166.284 50.1005C166.522 48.041 166.74 45.9815 166.918 43.9022C166.958 43.3081 167.196 43.2289 167.711 43.2487C170.329 43.3676 172.668 45.4667 173.402 48.3777C174.294 51.962 172.212 55.7048 168.782 56.6355C168.267 56.7741 167.791 56.8929 167.236 56.6751Z" fill="#FEFEFE"/>
<path d="M145.328 56.2791C146.022 54.675 146.041 53.2888 144.772 52.1006C144.515 51.863 144.515 51.5858 144.554 51.2887C144.713 49.7639 144.891 48.2193 145.01 46.6945C145.07 46.0608 145.427 45.942 145.922 46.0608C147.31 46.4172 148.421 47.1697 149.154 48.4371C149.352 48.7936 149.313 49.1104 149.233 49.4867C148.936 50.9323 148.52 52.3779 148.44 53.8433C148.361 55.2889 147.449 55.7246 146.378 56.1206C146.081 56.2395 145.744 56.2395 145.328 56.2791Z" fill="#FEFEFE"/>
<path d="M165.114 43.7042C164.737 47.7044 164.262 51.5858 163.687 55.4671C162.12 54.8334 160.812 52.2194 160.891 49.8827C160.99 47.0311 162.656 44.5359 165.114 43.7042Z" fill="#FDFDFD"/>
<path d="M142.175 55.1701C141.064 54.1403 140.688 53.4274 140.39 51.8432C140.906 52.2789 141.362 52.3185 141.719 51.8234C141.976 51.4669 141.976 51.0709 141.699 50.7342C141.282 50.2392 140.846 50.4372 140.351 50.9125C140.549 48.8332 141.421 47.447 143.245 46.437C142.869 49.4074 142.531 52.2195 142.175 55.1701Z" fill="#FCFCFC"/>
<path d="M161.625 41.5259C162.339 41.8625 163.172 41.7833 163.866 42.1992C161.209 43.6052 159.663 45.7835 159.207 48.7341C159.167 48.952 159.286 49.3282 158.83 49.249C158.275 49.15 158.612 48.7738 158.671 48.5757C159.464 46.14 160.376 43.7636 161.625 41.5259Z" fill="#F9F8F8"/>
<path d="M157.917 52.0412C158.235 53.4868 158.532 54.9523 158.849 56.3979C158.948 56.8731 158.711 56.9325 158.294 56.8731C157.025 56.6751 156.867 56.4969 157.085 55.2691C157.283 54.1799 157.501 53.1106 157.719 52.0412C157.779 52.061 157.858 52.0412 157.917 52.0412Z" fill="#F7F7F7"/>
<path d="M147.925 44.7142C148.995 44.5161 149.967 44.0607 150.899 43.5062C150.621 44.4171 150.363 45.3478 150.066 46.3578C149.352 45.7043 148.658 45.1894 147.925 44.7142Z" fill="#F9F9F8"/>
<path d="M165.828 53.368C166.344 54.1403 166.106 54.8532 165.61 55.7048C165.412 54.7938 165.769 54.1007 165.828 53.368Z" fill="#CCCCCC"/>
<path d="M121.278 49.2292C120.861 48.7936 120.881 48.3381 120.743 47.9618C120.643 47.7044 120.723 47.5064 121.08 47.5658C121.298 47.6054 121.555 47.5856 121.456 47.9618C121.377 48.3381 121.357 48.7342 121.278 49.2292Z" fill="#DDA500"/>
<path d="M138.587 49.6649C138.488 49.8629 138.547 50.1996 138.19 50.2392C137.913 50.259 137.913 50.0016 137.952 49.8233C137.992 49.6055 137.774 49.2292 138.25 49.2689C138.468 49.2689 138.607 49.4075 138.587 49.6649Z" fill="#F6F6F6"/>
<path d="M234.983 231.594C234.983 234.624 232.406 237.119 229.313 237.099C226.22 237.079 223.642 234.545 223.662 231.535C223.682 228.564 226.259 226.089 229.313 226.069C232.406 226.069 234.983 228.564 234.983 231.594Z" fill="black"/>
<path d="M225.189 265.675C224.713 265.714 224.495 265.734 224.257 265.734C223.761 265.714 223.444 265.457 223.384 264.962C223.345 264.467 223.563 264.11 224.059 264.031C224.911 263.892 225.764 263.813 226.616 263.734C233.972 263.001 241.327 262.288 248.703 261.576C249.04 261.536 249.357 261.536 249.694 261.516C250.289 261.477 250.785 261.655 250.804 262.328C250.844 263.001 250.368 263.239 249.773 263.298C248.366 263.437 246.938 263.576 245.531 263.714C239.741 264.289 233.972 264.843 228.182 265.417C227.112 265.497 226.021 265.596 225.189 265.675Z" fill="black"/>
<path d="M224.535 260.288C223.9 260.348 223.365 260.15 223.305 259.457C223.246 258.744 223.781 258.546 224.416 258.486C228.877 258.051 233.357 257.595 237.818 257.159C241.565 256.783 245.313 256.427 249.06 256.05C249.496 256.011 249.912 255.912 250.289 256.209C250.586 256.427 250.686 256.744 250.606 257.08C250.487 257.575 250.13 257.754 249.655 257.793C247.256 258.031 244.857 258.288 242.458 258.526C236.569 259.1 230.701 259.694 224.812 260.269C224.733 260.269 224.634 260.288 224.535 260.288Z" fill="#010101"/>
<path d="M224.692 254.605C224.038 254.684 223.423 254.625 223.384 253.813C223.324 253.021 223.959 252.882 224.593 252.823C232.504 252.011 240.415 251.219 248.325 250.407C248.682 250.367 249.039 250.308 249.396 250.268C250.011 250.189 250.487 250.427 250.566 251.04C250.645 251.674 250.229 251.971 249.614 252.05C247.493 252.288 245.351 252.545 243.23 252.763C237.322 253.377 231.413 253.971 225.505 254.565C225.228 254.585 224.97 254.585 224.692 254.605Z" fill="#010000"/>
<path d="M225.089 243.694C224.534 243.753 223.999 243.575 223.939 242.882C223.88 242.189 224.395 241.971 225.03 241.891C231.731 241.238 238.413 240.584 245.114 239.911C246.561 239.773 248.009 239.634 249.436 239.476C250.071 239.416 250.626 239.515 250.705 240.208C250.804 240.981 250.209 241.198 249.555 241.258C246.839 241.535 244.103 241.792 241.387 242.07C236.113 242.585 230.819 243.119 225.545 243.634C225.446 243.654 225.307 243.674 225.089 243.694Z" fill="#010000"/>
<path d="M224.613 249.119C223.999 249.139 223.503 249.001 223.443 248.308C223.404 247.555 223.959 247.377 224.534 247.317C226.933 247.1 229.332 246.882 231.731 246.664C237.322 246.149 242.893 245.654 248.484 245.139C248.682 245.119 248.881 245.1 249.079 245.08C249.713 245.001 250.249 245.199 250.308 245.892C250.368 246.605 249.852 246.803 249.218 246.862C242.715 247.436 236.212 248.03 229.709 248.624C227.984 248.803 226.279 248.961 224.613 249.119Z" fill="black"/>
<path d="M237.501 234.525C236.946 234.545 236.49 234.327 236.45 233.733C236.391 233.099 236.787 232.782 237.402 232.743C241.288 232.426 245.154 232.109 249.02 231.772C249.635 231.713 250.091 231.95 250.15 232.584C250.19 233.178 249.774 233.495 249.219 233.535C245.313 233.891 241.407 234.208 237.501 234.525Z" fill="#010101"/>
<path d="M237.818 230.03C237.779 230.03 237.68 230.03 237.581 230.03C236.926 230.089 236.411 229.871 236.411 229.158C236.391 228.525 236.867 228.287 237.481 228.227C239.781 228.049 242.081 227.851 244.381 227.653C245.868 227.534 247.335 227.416 248.822 227.277C249.476 227.218 250.071 227.336 250.131 228.109C250.19 228.822 249.675 229.02 249.02 229.079C245.293 229.396 241.585 229.713 237.818 230.03Z" fill="#010101"/>
<path d="M107.498 374.551C107.042 381.284 106.923 388.037 106.785 394.809C106.547 406.453 106.606 418.117 106.983 429.761C107.062 432.435 107.161 435.108 107.26 437.782C107.28 438.178 107.36 438.593 106.686 438.376C102.205 436.97 98.7748 434.415 97.6248 429.623C96.9706 426.87 97.2283 424.038 97.4662 421.246C98.4576 409.364 101.491 397.899 104.386 386.393C105.397 382.433 106.467 378.492 107.498 374.551Z" fill="#FEFEFE"/>
<path d="M123.439 447.267C120.762 446.911 117.868 446.831 114.953 446.772C114.398 446.752 114.358 446.614 114.576 446.138C115.052 445.089 115.488 444.039 115.925 442.97C116.063 442.594 116.222 442.435 116.638 442.574C118.998 443.406 121.357 444.217 123.478 445.584C123.736 445.742 123.974 445.921 124.172 446.138C124.41 446.356 124.668 446.594 124.569 446.97C124.509 447.227 124.252 447.307 123.439 447.267Z" fill="#FDFDFD"/>
<path d="M157.026 447.089C154.131 446.732 151.236 446.633 148.322 446.594C147.747 446.574 147.747 446.396 147.925 445.96C148.401 444.911 148.837 443.841 149.273 442.792C149.412 442.435 149.551 442.237 149.987 442.396C152.327 443.208 154.646 444.02 156.748 445.346C157.026 445.525 157.283 445.723 157.521 445.94C157.759 446.158 158.076 446.416 157.938 446.772C157.799 447.168 157.402 447.148 157.026 447.089Z" fill="#FDFDFD"/>
<path d="M279.176 102.657C279.157 103.45 278.78 104.044 278.106 104.44C274.537 106.559 270.988 108.697 267.419 110.777C266.309 111.43 265.08 111.133 264.485 110.123C263.89 109.113 264.188 107.905 265.298 107.252C268.827 105.133 272.356 103.014 275.905 100.954C277.471 100.043 279.196 100.974 279.176 102.657Z" fill="#FEFEFE"/>
<path d="M276.619 89.9044C276.619 90.9737 276.202 91.548 275.548 91.944C271.979 94.063 268.43 96.2017 264.862 98.3008C263.751 98.9543 262.522 98.6374 261.927 97.6275C261.332 96.6175 261.65 95.4294 262.78 94.7561C266.309 92.6372 269.838 90.538 273.387 88.4587C274.933 87.528 276.638 88.4785 276.619 89.9044Z" fill="#FEFEFE"/>
<path d="M263.295 102.737C263.295 101.944 263.652 101.35 264.326 100.954C267.914 98.8156 271.503 96.6769 275.111 94.558C276.222 93.9045 277.431 94.261 278.006 95.3105C278.561 96.3007 278.244 97.469 277.154 98.1027C273.545 100.261 269.917 102.4 266.289 104.499C264.901 105.291 263.295 104.301 263.295 102.737Z" fill="#FEFEFE"/>
<path d="M225.446 102.222C225.446 106.717 221.639 110.381 216.98 110.381C212.321 110.381 208.534 106.717 208.534 102.202C208.534 97.6869 212.321 94.0432 216.98 94.0432C221.659 94.0432 225.446 97.7067 225.446 102.222Z" fill="#FEBD00"/>
<path d="M170.488 130.243C168.307 130.243 166.78 129.094 166.284 127.371C166.126 126.837 166.265 126.46 166.74 126.223C167.256 125.946 167.692 126.183 167.89 126.639C168.307 127.55 168.783 128.362 169.893 128.441C171.201 128.52 172.252 127.926 173.164 127.074C173.382 126.876 173.541 126.619 173.739 126.401C174.136 125.985 174.592 125.866 175.048 126.262C175.504 126.658 175.405 127.154 175.068 127.589C173.818 129.213 172.173 130.124 170.488 130.243Z" fill="#010101"/>
<path d="M133.59 49.7441C134.066 49.8233 134.284 50.1005 134.264 50.5758C134.244 51.0709 133.987 51.4075 133.471 51.3877C132.995 51.3679 132.797 51.0115 132.817 50.5758C132.817 50.0609 133.075 49.7639 133.59 49.7441Z" fill="#050505"/>
<path d="M162.141 51.2887C161.506 51.2095 161.229 50.7739 161.268 50.1996C161.308 49.6451 161.605 49.1896 162.26 49.2094C162.914 49.2292 163.172 49.7045 163.132 50.2788C163.112 50.8531 162.795 51.2491 162.141 51.2887Z" fill="#070707"/>
<path d="M233.178 231.574C233.178 233.594 231.493 235.277 229.372 235.297C227.25 235.337 225.446 233.594 225.466 231.554C225.486 229.554 227.27 227.871 229.352 227.871C231.434 227.891 233.159 229.554 233.178 231.574Z" fill="#FED1E0"/>
<path d="M21.0489 92.1088C21.0238 92.3321 20.8504 92.7761 21.0647 92.9523C21.172 93.0404 21.2792 93.1285 21.3865 93.2167C21.6748 93.4536 22.205 93.2996 22.4966 93.1067C23.1203 92.6941 23.5575 92.0345 24.0307 91.4587C24.3717 91.0437 24.7127 90.6287 25.0537 90.2137C25.2962 89.9187 25.5637 89.6464 25.8063 89.3511C25.9782 89.142 26.1392 88.9096 26.3309 88.7187C26.5133 88.5372 26.692 88.3797 26.859 88.1766C26.9681 88.0438 27.0773 87.9109 27.1865 87.7781C27.4962 87.4012 27.9225 87.0133 28.1501 86.579C28.2321 86.4224 28.367 86.2975 28.4741 86.1581C28.58 86.0202 28.6108 85.8638 28.6509 85.7037C28.7254 85.4061 28.6472 85.1543 28.4087 84.9583C28.0759 84.6849 27.6944 84.187 27.2363 84.5266C27.0128 84.6923 26.856 84.8488 26.6683 85.0553C26.5041 85.2358 26.4477 85.1387 26.2848 85.0048C26.1428 84.8881 26.0008 84.7714 25.8587 84.6547C25.2819 84.1806 24.6986 83.5689 24.017 83.2528C23.819 83.161 23.6333 83.0645 23.431 82.9849C23.2886 82.9289 23.113 82.8799 22.9802 82.8038C22.6909 82.6382 22.3041 82.4844 21.9822 82.411C21.6517 82.3356 21.3351 82.293 20.993 82.3265C20.7045 82.3547 20.4509 82.3251 20.186 82.4694C19.6299 82.7722 19.0799 83.1771 18.6772 83.6672C18.4685 83.921 18.2458 84.1631 18.0873 84.4499C17.8528 84.8745 17.6755 85.3609 17.5506 85.8298C17.3789 86.4743 17.2231 87.3236 17.5822 87.9245C17.8335 88.3449 18.085 88.7574 18.367 89.1619C18.5756 89.4611 18.8451 89.724 19.0306 90.0326C19.2325 90.3685 19.5895 90.6718 19.8574 90.9646C19.9982 91.1184 20.2332 91.2475 20.3309 91.4314C20.3844 91.5321 20.4898 91.6387 20.5735 91.7182C20.7053 91.8432 20.869 92.0227 20.9418 92.1859C20.9832 92.2789 21.0644 92.3527 21.0918 92.4525C21.1093 92.5162 21.0794 92.5853 21.1 92.6316" stroke="black" stroke-width="2" stroke-linecap="round" stroke-linejoin="round"/>
<path d="M18.0843 84.1222C17.9705 84.0287 17.5594 83.7993 17.5319 83.6245C17.5086 83.4768 17.5808 83.3523 17.6741 83.2388C17.7729 83.1184 18.1402 83.2831 18.2583 83.3256C18.438 83.3901 18.5366 83.5473 18.7293 83.6034" stroke="black" stroke-width="2" stroke-linecap="round" stroke-linejoin="round"/>
<path d="M25.146 90.5806C25.3265 91.0342 25.6478 91.7498 26.2122 91.8064C26.5128 91.8365 26.8206 91.8265 27.0883 91.662C27.3276 91.515 27.3686 91.3246 27.3758 91.0582C27.3903 90.5174 26.9363 90.2162 26.5594 89.9065C26.3761 89.7559 25.6878 89.4427 25.4686 89.7094" stroke="black" stroke-width="2" stroke-linecap="round" stroke-linejoin="round"/>
<path d="M8.49508 79.6926L8.71614 79.9964L8.57813 80.3572L8.77669 80.399L8.83365 80.8825L8.60843 81.1062L8.84029 81.2112L8.56636 81.7222L8.42884 81.625L8.23166 81.7685C7.98817 81.5976 7.6654 81.5686 7.54535 81.2619C7.35957 81.374 7.18582 81.2561 7.08942 81.1711C6.86087 80.9694 6.52442 80.9056 6.35556 80.6825C6.15819 80.4221 5.86723 80.3274 5.63431 80.1453C5.35475 79.9267 5.06363 79.7041 4.75918 79.5073C4.46199 79.3152 4.12329 79.1326 3.91019 78.8192C3.27707 78.5394 2.83553 78.0003 2.29628 77.595C1.87612 77.2792 1.42302 76.9822 1.07226 76.5677C0.950238 76.4235 0.686613 76.393 0.803918 76.0648C0.508354 76.1033 0.29278 76.0524 0.135269 75.8198C0.0163802 75.6562 -0.129882 75.5144 -0.297063 75.4006C-0.721184 75.096 -1.06737 74.7089 -1.44996 74.3605C-1.80106 74.0407 -2.10928 73.6731 -2.45911 73.364C-2.93068 72.947 -3.20932 72.4028 -3.59752 71.935C-3.66595 71.8526 -3.66026 71.7128 -3.71324 71.6124C-3.77036 71.5035 -3.91257 71.4108 -3.91488 71.3087C-3.91788 71.1764 -4.02037 71.1514 -4.05837 71.0694C-4.11455 70.9481 -4.15993 70.8219 -4.22006 70.6726C-4.17218 70.5666 -4.25332 70.3863 -4.09179 70.2694C-4.05131 70.2399 -4.02991 70.1062 -4.05987 70.0696C-4.28646 69.7933 -4.09758 69.5534 -3.98806 69.2829C-3.63347 68.9508 -3.22214 68.9416 -2.7874 69.1844C-2.72884 69.2147 -2.67464 69.2527 -2.62629 69.2974C-2.44653 69.4771 -2.29568 69.6984 -2.08813 69.8339C-1.8599 69.983 -1.71989 70.1883 -1.56415 70.3912C-1.4146 70.586 -1.30069 70.8612 -1.10262 70.9519C-0.882247 71.0526 -0.879515 71.3767 -0.598829 71.3599C-0.642868 71.5977 -0.333835 71.576 -0.304598 71.7599C-0.0768989 71.8136 -0.0132374 72.0402 0.137281 72.1721C0.276612 72.2941 0.405263 72.4309 0.544379 72.5443C0.996141 72.9209 1.42059 73.3291 1.81452 73.7658C2.14289 73.84 2.17842 74.2466 2.49682 74.3513C2.77022 74.4412 2.92948 74.7124 3.13759 74.8963C3.37368 75.1052 3.60575 75.3357 3.83389 75.5613C4.04687 75.7719 4.28388 75.959 4.5034 76.1668C4.827 76.473 5.22599 76.6986 5.51993 77.0454C5.81408 77.0672 5.83389 77.4244 6.10657 77.5076C6.33537 77.5774 6.52169 77.7916 6.688 77.957C7.09388 78.3606 7.61051 78.6025 8.0308 78.9767C8.13035 79.0653 8.23114 79.1525 8.34734 79.2544C8.25378 79.3472 8.18335 79.4171 8.07245 79.5271L8.49508 79.6926Z" fill="black"/>
<path d="M8.15264 68.9224C8.11182 68.916 8.07676 68.9105 8.04187 68.905L8.1889 68.5211C8.09142 68.55 8.02878 68.5689 7.92869 68.5984C7.85234 68.4608 7.69907 68.3107 7.70634 68.1688C7.71818 67.9385 7.48113 67.966 7.43422 67.8078C7.39168 67.6642 7.2176 67.5374 7.222 67.4072C7.22918 67.1952 7.07081 67.1018 7.00938 66.9475C6.95547 66.7881 6.91082 66.6258 6.87566 66.4612L6.59811 66.2559L6.77531 65.8902C6.60091 65.9496 6.54342 65.9692 6.44973 66.0011C6.38936 65.4406 5.91579 65.0605 5.82717 64.5201C5.86494 64.4772 5.89764 64.44 5.98396 64.3419C5.85617 64.3813 5.80196 64.3981 5.73881 64.4176L5.59086 64.0373C5.65276 63.981 5.71516 63.9241 5.80647 63.8409L5.6553 63.7917L5.61517 63.5497L5.37935 63.6004C5.37713 63.4549 5.37528 63.3091 5.37269 63.1367C5.40952 63.1029 5.47202 63.0461 5.55288 62.9723L5.18054 62.7802C5.2894 62.4698 5.16633 62.0875 5.39012 61.7764L5.56516 61.7956C5.5876 61.6531 5.53714 61.6319 5.28783 61.6794C5.26428 61.654 5.24256 61.627 5.22283 61.5986C5.21534 61.5865 5.22221 61.5655 5.22338 61.5084C5.30453 61.4905 5.395 61.4705 5.4948 61.4483L5.68358 61.1545L5.77816 61.4822C5.86187 61.3813 5.92415 61.3063 6.02944 61.1795L6.12645 61.6473L5.97634 61.6391L6.02889 61.9689L6.31889 61.7578L6.6529 61.928L6.84793 62.7421C6.9542 62.81 7.17225 63.2082 7.21744 63.4278L7.38772 63.463L7.45898 63.845L7.30982 63.8317C7.30961 63.861 7.29618 63.9105 7.31124 63.9217C7.4819 64.0487 7.71984 64.112 7.68287 64.4126C7.67601 64.4682 7.81749 64.5429 7.89159 64.6076C8.23055 64.9033 8.41681 65.2656 8.39492 65.7192C8.46193 65.7728 8.55195 65.8195 8.60344 65.8931C8.66401 65.9798 8.68554 66.1728 8.73349 66.176C8.9817 66.1924 8.84246 66.3965 8.91116 66.4934C8.98467 66.5865 9.03646 66.6948 9.06276 66.8104C9.10844 67.0336 9.2366 67.2437 9.34958 67.4486C9.72903 68.1356 10.0463 68.855 10.2977 69.5984C10.4929 70.1756 10.7202 70.743 10.8529 71.3378C10.9423 71.7385 11.0606 72.1588 11.019 72.5548C10.9816 72.9127 10.9956 73.2942 10.8407 73.6648C10.7862 73.6682 10.7202 73.6725 10.6442 73.677L10.6128 73.8129L10.0766 73.7133C10.0205 73.5525 9.97607 73.3747 10.1095 73.1596C9.98908 73.2224 9.90139 73.2682 9.80682 73.3175L9.71747 73.1948C9.75805 73.1322 9.79374 73.0773 9.83018 73.0213L9.62948 72.9424L9.63223 72.7448L9.28899 72.6775C9.34172 72.4792 9.40406 72.3223 9.42047 72.1607C9.43642 72.0039 9.20978 71.8653 9.3955 71.6612C9.43514 71.6589 9.50095 71.6552 9.60336 71.6496L9.40915 71.3517L9.35292 71.6093C9.27915 71.4962 9.19291 71.4206 9.18143 71.3352C9.14896 71.139 9.09329 70.9474 9.01559 70.7643C8.94638 70.5928 8.86333 70.4271 8.76725 70.2691C8.6845 70.1255 8.64131 69.9594 8.55959 69.8151C8.4733 69.6627 8.3416 69.5339 8.26785 69.3769C8.20248 69.2378 8.18877 69.0737 8.15264 68.9224Z" fill="black"/>
<path d="M16.9291 58.4162L17.2912 58.1527C17.5531 58.1868 17.7519 58.3018 17.9131 58.5763C17.8907 58.6292 17.8492 58.7267 17.8002 58.8417C18.1826 58.9988 17.8813 59.3839 18.1045 59.5637C18.1252 60.0397 18.0032 60.4949 18.0572 60.9592C18.0564 61.0303 18.0461 61.1009 18.0266 61.1692C17.9526 61.6609 17.9231 62.1583 17.9385 62.6553C17.9359 63.0007 17.9082 63.3454 17.8556 63.6868C17.7987 64.0571 17.791 64.4333 17.8325 64.8057C17.8318 64.8767 17.8217 64.9473 17.8024 65.0156C17.7614 65.2951 17.686 65.5752 17.691 65.8539C17.6949 66.0784 17.6364 66.289 17.6157 66.5054C17.5801 66.8794 17.473 67.2467 17.3921 67.6161C17.3107 67.988 17.2383 68.3626 17.1345 68.7282C17.0913 68.8806 16.9767 69.0131 16.8913 69.1603L16.2512 69.0159C16.0935 68.9442 16.2778 68.7163 16.2258 68.5341L16.0487 68.4819L15.7562 67.8361C15.7988 67.0766 15.8096 66.2212 15.8964 65.3659C15.9393 64.9483 15.9395 64.5274 15.8972 64.1098C15.8658 63.8084 15.9483 63.4948 15.9699 63.1852C16.0271 62.3649 16.0937 61.5339 16.2837 60.7375C16.4619 59.9897 16.5038 59.2029 16.9291 58.4162Z" fill="black"/>
<circle cx="260" cy="176" r="12" fill="#FDFFB6"/>
<circle cx="251.5" cy="268.5" r="8.5" fill="#52E8E6"/>
<path d="M259.215 170.26H261.525L265.56 181H263.325L262.44 178.435H258.3L257.415 181H255.18L259.215 170.26ZM261.78 176.575L260.82 173.89L260.43 172.585H260.31L259.92 173.89L258.96 176.575H261.78Z" fill="black"/>
<path d="M249.648 265.556H252.168C252.444 265.556 252.702 265.601 252.942 265.691C253.182 265.775 253.389 265.895 253.563 266.051C253.743 266.201 253.884 266.378 253.986 266.582C254.088 266.786 254.139 267.005 254.139 267.239C254.139 267.581 254.055 267.869 253.887 268.103C253.725 268.331 253.521 268.505 253.275 268.625V268.697C253.605 268.817 253.869 269.006 254.067 269.264C254.271 269.516 254.373 269.831 254.373 270.209C254.373 270.485 254.316 270.734 254.202 270.956C254.094 271.172 253.944 271.358 253.752 271.514C253.56 271.67 253.335 271.79 253.077 271.874C252.825 271.958 252.552 272 252.258 272H249.648V265.556ZM252.078 268.184C252.36 268.184 252.576 268.109 252.726 267.959C252.882 267.803 252.96 267.62 252.96 267.41C252.96 267.2 252.885 267.02 252.735 266.87C252.585 266.72 252.378 266.645 252.114 266.645H250.863V268.184H252.078ZM252.213 270.884C252.519 270.884 252.753 270.809 252.915 270.659C253.077 270.503 253.158 270.305 253.158 270.065C253.158 269.825 253.074 269.627 252.906 269.471C252.744 269.309 252.501 269.228 252.177 269.228H250.863V270.884H252.213Z" fill="black"/>
</g>
<path opacity="0.25" d="M335.847 160.357C335.847 158.912 334.313 157.272 335.224 156.152C340.861 149.218 450.872 161.261 461.269 161.26C472.233 161.259 464.668 215.58 461.462 295.047C461.352 297.782 459.068 299.944 456.331 299.875L340.72 296.947C338.009 296.878 335.847 294.66 335.847 291.948V160.357Z" fill="#020A13"/>
<path d="M326.847 153.357C326.847 151.912 325.313 150.272 326.224 149.152C331.861 142.218 441.872 154.261 452.269 154.26C463.233 154.259 455.668 208.58 452.462 288.047C452.352 290.782 450.068 292.944 447.331 292.875L331.72 289.947C329.009 289.878 326.847 287.66 326.847 284.948V153.357Z" fill="#00BBF9"/>
<path d="M323.392 144.557C323.392 181.164 323.392 217.771 323.392 254.377C323.392 260.98 323.392 267.582 323.392 274.184C323.392 277.193 324.73 278.877 326.1 281.522C327.399 284.031 328.819 287.509 331.612 288.647C333.633 289.472 336.04 289.19 338.168 289.19C340.992 289.19 343.815 289.19 346.639 289.19C362.474 289.19 378.325 289.538 394.137 289.538C408.903 289.538 423.687 289.632 438.425 289.887C441.89 289.946 445.363 289.887 448.829 289.887C449.82 289.887 451.889 290.274 452.62 289.616C453.307 288.997 453.512 288.62 453.664 287.641C454.199 284.193 453.935 280.606 453.935 277.127C453.935 272.5 453.935 267.872 453.935 263.245C453.935 249.137 453.935 235.028 453.935 220.92C453.935 199.532 453.935 178.144 453.935 156.755C453.935 154.638 453.935 152.522 453.935 150.405C453.935 149.956 454.164 148.651 453.703 148.391C452.756 147.858 451.205 148.05 450.183 148.043C447.862 148.025 445.601 148.025 443.298 147.675C437.519 146.796 431.723 146.997 425.893 146.997C424.17 146.997 422.297 147.204 420.593 146.92C418.353 146.546 416.232 145.951 413.941 145.951C400.191 145.951 386.171 146.744 372.457 145.777C364.799 145.237 356.978 145.413 349.366 144.383C344.673 143.748 340.319 143.163 335.576 143.163C332.792 143.163 330.007 143.163 327.222 143.163C326.264 143.163 322.445 142.621 322 143.512" stroke="#020A13" stroke-width="3" stroke-linecap="round" stroke-linejoin="round"/>
<g filter="url(#filter0_d)">
<rect x="408" y="113" width="56" height="56" rx="28" fill="white"/>
</g>
<path d="M428.534 137.267H428.8C429.827 137.267 430.667 138.107 430.667 139.133V148.467C430.667 149.493 429.827 150.333 428.8 150.333H428.534C427.507 150.333 426.667 149.493 426.667 148.467V139.133C426.667 138.107 427.507 137.267 428.534 137.267ZM436 131.667C437.027 131.667 437.867 132.507 437.867 133.533V148.467C437.867 149.493 437.027 150.333 436 150.333C434.974 150.333 434.134 149.493 434.134 148.467V133.533C434.134 132.507 434.974 131.667 436 131.667ZM443.467 142.333C444.494 142.333 445.334 143.173 445.334 144.2V148.467C445.334 149.493 444.494 150.333 443.467 150.333C442.44 150.333 441.6 149.493 441.6 148.467V144.2C441.6 143.173 442.44 142.333 443.467 142.333Z" fill="#020A13"/>
<path d="M440.718 168.619C431.379 170.569 421.671 164.559 417.985 161.31C417.166 160.092 414.053 158.143 410.612 150.346C406.311 140.6 411.841 127.809 413.069 125.982C414.298 124.154 418.562 119.712 422.9 116.845C428.43 113.19 432.117 113.799 435.189 113.19C438.261 112.581 446.248 113.19 454.235 118.672C465.777 126.593 466.524 142.428 463.452 150.955C460.379 159.483 452.392 166.183 440.718 168.619Z" stroke="#020A13" stroke-width="2"/>
<path d="M417.008 207.509C418.112 207.509 419.014 208.405 418.944 209.507C418.678 213.69 417.58 217.784 415.707 221.547C413.536 225.908 410.383 229.706 406.495 232.643C402.608 235.579 398.093 237.574 393.304 238.471C388.516 239.367 383.585 239.141 378.898 237.809C374.212 236.478 369.899 234.078 366.297 230.797C362.695 227.517 359.903 223.446 358.141 218.904C356.379 214.362 355.694 209.473 356.14 204.622C356.526 200.436 357.744 196.376 359.717 192.679C360.237 191.704 361.476 191.416 362.415 191.997L387.024 207.21C387.34 207.405 387.705 207.509 388.076 207.509H417.008Z" fill="#78D7F7"/>
<path opacity="0.5" d="M379.873 236.003C379.587 237.07 378.488 237.709 377.441 237.356C373.471 236.017 369.8 233.897 366.65 231.113C362.999 227.887 360.147 223.858 358.316 219.344C356.486 214.829 355.728 209.951 356.101 205.094C356.475 200.236 357.97 195.532 360.469 191.35C362.968 187.168 366.403 183.623 370.503 180.993C374.604 178.363 379.259 176.72 384.102 176.193C388.946 175.666 393.845 176.27 398.415 177.957C402.359 179.412 405.965 181.64 409.026 184.503C409.832 185.257 409.79 186.528 408.986 187.285L387.922 207.119C387.652 207.373 387.457 207.698 387.361 208.057L379.873 236.003Z" fill="white"/>
<path opacity="0.5" d="M367.546 229.228C366.799 230.042 365.529 230.099 364.764 229.302C361.865 226.276 359.594 222.697 358.091 218.771C356.349 214.221 355.686 209.33 356.154 204.48C356.623 199.631 358.209 194.957 360.789 190.825C363.37 186.692 366.873 183.215 371.025 180.665C375.176 178.116 379.862 176.564 384.715 176.132C389.567 175.7 394.454 176.4 398.991 178.175C403.527 179.951 407.59 182.755 410.86 186.366C413.681 189.483 415.846 193.127 417.233 197.082C417.598 198.124 416.972 199.231 415.909 199.53L388.056 207.354C387.698 207.455 387.375 207.653 387.124 207.927L367.546 229.228Z" fill="white"/>
<path d="M347.184 168.136C347.184 168.984 346.901 169.693 346.336 170.264C345.765 170.84 345.067 171.128 344.24 171.128C343.408 171.128 342.709 170.84 342.144 170.264C341.579 169.693 341.296 168.984 341.296 168.136C341.296 167.288 341.579 166.579 342.144 166.008C342.709 165.432 343.408 165.144 344.24 165.144C345.072 165.144 345.771 165.435 346.336 166.016C346.901 166.587 347.184 167.293 347.184 168.136ZM342.048 168.136C342.048 168.797 342.256 169.344 342.672 169.776C343.093 170.208 343.616 170.424 344.24 170.424C344.864 170.424 345.384 170.208 345.8 169.776C346.221 169.349 346.432 168.803 346.432 168.136C346.432 167.469 346.221 166.923 345.8 166.496C345.384 166.064 344.864 165.848 344.24 165.848C343.616 165.848 343.093 166.064 342.672 166.496C342.256 166.928 342.048 167.475 342.048 168.136ZM349.845 170.456C350.197 170.456 350.493 170.323 350.733 170.056C350.973 169.795 351.093 169.456 351.093 169.04C351.093 168.629 350.973 168.291 350.733 168.024C350.493 167.757 350.197 167.624 349.845 167.624C349.487 167.624 349.189 167.757 348.949 168.024C348.714 168.291 348.597 168.629 348.597 169.04C348.597 169.456 348.714 169.797 348.949 170.064C349.189 170.325 349.487 170.456 349.845 170.456ZM349.965 171.128C349.677 171.128 349.413 171.067 349.173 170.944C348.938 170.821 348.757 170.659 348.629 170.456H348.597L348.629 171V172.728H347.893V167.08H348.597V167.624H348.629C348.757 167.421 348.938 167.259 349.173 167.136C349.413 167.013 349.677 166.952 349.965 166.952C350.482 166.952 350.919 167.155 351.277 167.56C351.645 167.971 351.829 168.464 351.829 169.04C351.829 169.621 351.645 170.115 351.277 170.52C350.919 170.925 350.482 171.128 349.965 171.128ZM354.263 171.128C353.687 171.128 353.212 170.931 352.839 170.536C352.465 170.141 352.279 169.643 352.279 169.04C352.279 168.443 352.46 167.947 352.823 167.552C353.185 167.152 353.649 166.952 354.215 166.952C354.796 166.952 355.257 167.141 355.599 167.52C355.945 167.893 356.119 168.419 356.119 169.096L356.111 169.176H353.031C353.041 169.56 353.169 169.869 353.415 170.104C353.66 170.339 353.953 170.456 354.295 170.456C354.764 170.456 355.132 170.221 355.399 169.752L356.055 170.072C355.879 170.403 355.633 170.661 355.319 170.848C355.009 171.035 354.657 171.128 354.263 171.128ZM353.087 168.568H355.335C355.313 168.296 355.201 168.072 354.999 167.896C354.801 167.715 354.535 167.624 354.199 167.624C353.921 167.624 353.681 167.709 353.479 167.88C353.281 168.051 353.151 168.28 353.087 168.568ZM356.792 167.08H357.496V167.624H357.528C357.64 167.432 357.81 167.272 358.04 167.144C358.274 167.016 358.517 166.952 358.768 166.952C359.248 166.952 359.616 167.091 359.872 167.368C360.133 167.64 360.264 168.029 360.264 168.536V171H359.528V168.584C359.512 167.944 359.189 167.624 358.56 167.624C358.266 167.624 358.021 167.744 357.824 167.984C357.626 168.219 357.528 168.501 357.528 168.832V171H356.792V167.08ZM364.089 169.912C364.089 170.253 363.939 170.541 363.641 170.776C363.342 171.011 362.966 171.128 362.513 171.128C362.118 171.128 361.771 171.027 361.473 170.824C361.174 170.616 360.961 170.344 360.833 170.008L361.489 169.728C361.585 169.963 361.723 170.147 361.905 170.28C362.091 170.408 362.294 170.472 362.513 170.472C362.747 170.472 362.942 170.421 363.097 170.32C363.257 170.219 363.337 170.099 363.337 169.96C363.337 169.709 363.145 169.525 362.761 169.408L362.089 169.24C361.326 169.048 360.945 168.68 360.945 168.136C360.945 167.779 361.089 167.493 361.377 167.28C361.67 167.061 362.043 166.952 362.497 166.952C362.843 166.952 363.155 167.035 363.433 167.2C363.715 167.365 363.913 167.587 364.025 167.864L363.369 168.136C363.294 167.971 363.171 167.843 363.001 167.752C362.835 167.656 362.649 167.608 362.441 167.608C362.249 167.608 362.075 167.656 361.921 167.752C361.771 167.848 361.697 167.965 361.697 168.104C361.697 168.328 361.907 168.488 362.329 168.584L362.921 168.736C363.699 168.928 364.089 169.32 364.089 169.912Z" fill="black"/>
<path d="M345.6 258C344.969 258.864 344.647 260.63 345.6 261.36C345.869 261.566 347.479 262.406 347.782 261.76C347.971 261.36 348.145 259.014 347.813 258.817" stroke="#020A13" stroke-width="2" stroke-linecap="round" stroke-linejoin="round"/>
<path d="M399.6 258C398.969 258.864 398.647 260.63 399.6 261.36C399.869 261.566 401.479 262.406 401.782 261.76C401.971 261.36 402.145 259.014 401.813 258.817" stroke="#020A13" stroke-width="2" stroke-linecap="round" stroke-linejoin="round"/>
<path d="M354 260C354.83 260 355.66 260 356.49 260C357.145 260 357.695 259.339 358.327 259.339C359.087 259.339 360.135 259.64 360.831 259.148C361.207 258.882 361.891 259.049 362.285 259.082C362.81 259.126 363.249 259.603 363.787 259.603C364.511 259.603 365.24 259.659 365.957 259.501C366.955 259.28 367.985 259.074 369 259.074" stroke="#020A13" stroke-width="2" stroke-linecap="round" stroke-linejoin="round"/>
<path d="M408 260C409.494 260 410.988 260 412.483 260C413.66 260 414.65 259.339 415.788 259.339C417.157 259.339 419.044 259.64 420.297 259.148C420.972 258.882 422.203 259.049 422.913 259.082C423.858 259.126 424.649 259.603 425.616 259.603C426.92 259.603 428.231 259.659 429.523 259.501C431.32 259.28 433.174 259.074 435 259.074" stroke="#020A13" stroke-width="2" stroke-linecap="round" stroke-linejoin="round"/>
<path d="M345.6 268C344.969 268.864 344.647 270.63 345.6 271.36C345.869 271.566 347.479 272.406 347.782 271.76C347.971 271.36 348.145 269.014 347.813 268.817" stroke="#020A13" stroke-width="2" stroke-linecap="round" stroke-linejoin="round"/>
<path d="M399.6 268C398.969 268.864 398.647 270.63 399.6 271.36C399.869 271.566 401.479 272.406 401.782 271.76C401.971 271.36 402.145 269.014 401.813 268.817" stroke="#020A13" stroke-width="2" stroke-linecap="round" stroke-linejoin="round"/>
<path d="M354 270C355.162 270 356.324 270 357.486 270C358.402 270 359.173 268.678 360.057 268.678C361.122 268.678 362.59 269.281 363.564 268.296C364.089 267.765 365.047 268.097 365.599 268.164C366.334 268.252 366.949 269.207 367.702 269.207C368.715 269.207 369.735 269.318 370.74 269.001C372.137 268.561 373.58 268.149 375 268.149" stroke="#020A13" stroke-width="2" stroke-linecap="round" stroke-linejoin="round"/>
<path d="M408 270C409.328 270 410.656 270 411.984 270C413.031 270 413.912 268.678 414.922 268.678C416.139 268.678 417.817 269.281 418.93 268.296C419.531 267.765 420.625 268.097 421.256 268.164C422.096 268.252 422.799 269.207 423.659 269.207C424.817 269.207 425.983 269.318 427.132 269.001C428.729 268.561 430.377 268.149 432 268.149" stroke="#020A13" stroke-width="2" stroke-linecap="round" stroke-linejoin="round"/>
<path d="M387.312 207.375C388.516 206.158 389.586 204.868 390.715 203.59C391.324 202.901 391.992 202.264 392.618 201.59C393.132 201.037 393.545 200.402 394.076 199.861C394.745 199.181 395.498 198.618 396.222 198C397.912 196.558 399.799 195.321 401.586 194.004C403.216 192.803 404.894 191.685 406.521 190.479C407.321 189.886 408.11 189.28 408.639 188.424C409.077 187.713 409.438 186.948 409.784 186.191C409.933 185.868 410.12 185.579 410.048 185.212C409.903 184.469 408.986 183.778 408.389 183.396C407.692 182.951 406.969 182.563 406.277 182.111C405.924 181.881 405.61 181.612 405.236 181.403C404.911 181.221 404.393 181.073 404.173 180.75C404.031 180.541 403.967 180.385 403.781 180.188C403.555 179.949 403.232 179.805 402.93 179.688C401.94 179.302 400.979 178.868 400 178.452C398.055 177.623 395.956 177.351 393.875 177.077C392.558 176.903 391.264 176.62 389.951 176.441C388.941 176.303 387.896 176.375 386.878 176.375C386.314 176.375 385.75 176.369 385.187 176.413C383.895 176.515 382.669 176.884 381.396 177.097C380.703 177.214 379.998 177.453 379.333 177.674C378.809 177.848 378.258 177.866 377.75 178.049C376.524 178.49 375.285 178.878 374.073 179.354C372.721 179.886 371.392 180.451 370.062 181.035C369.177 181.424 368.352 181.933 367.555 182.479C367.006 182.856 366.477 183.267 365.906 183.611C365.403 183.914 364.841 184.121 364.368 184.472C362.595 185.788 361.383 187.669 360.25 189.531C359.958 190.011 359.404 191.271 360.09 191.639C360.792 192.015 361.479 192.464 362.201 192.799C362.598 192.982 363.062 193.051 363.437 193.264C364.019 193.594 364.597 193.931 365.149 194.309C365.698 194.686 366.175 195.131 366.687 195.556C367.566 196.284 368.545 196.88 369.507 197.49C370.285 197.983 370.994 198.6 371.708 199.181C372.72 200.004 373.74 200.752 374.847 201.452C376.171 202.287 377.647 202.749 379.055 203.41C379.924 203.818 380.756 204.269 381.604 204.715C382.48 205.176 383.408 205.494 384.312 205.889C385.037 206.206 385.768 206.493 386.545 206.653C386.926 206.731 387.407 207.191 387.5 207.563" stroke="#020A13" stroke-width="2" stroke-linecap="round" stroke-linejoin="round"/>
<path d="M387.375 207.312C386.286 208.64 385.192 209.984 384.146 211.347C383.396 212.324 382.604 213.271 381.875 214.264C381.218 215.159 380.606 216.087 379.924 216.965C378.958 218.208 378.082 219.564 377.025 220.729C376.07 221.781 375.031 222.746 374.059 223.781C373.724 224.139 373.316 224.415 372.986 224.778C372.531 225.279 372.094 225.67 371.549 226.076C370.779 226.651 370.191 227.424 369.403 227.986C368.899 228.345 368.382 228.676 367.875 229.028C367.507 229.284 367.091 229.461 366.719 229.719C366.455 229.901 366.317 229.947 366 229.938C365.631 229.927 365.232 229.688 364.924 229.514C364.746 229.413 364.627 229.445 364.493 229.274C364.294 229.02 364.064 228.771 363.844 228.535C363.345 227.999 362.865 227.456 362.406 226.878C361.928 226.275 361.57 225.639 361.146 225C360.601 224.178 360.166 223.277 359.653 222.431C359.292 221.835 358.88 221.267 358.594 220.628C358.432 220.266 358.177 219.954 358 219.597C357.769 219.13 357.618 218.618 357.441 218.128C357.165 217.364 356.881 216.582 356.684 215.795C356.283 214.191 356.045 212.616 355.875 210.972C355.713 209.397 355.813 207.773 355.813 206.191C355.813 205.128 355.799 204.063 355.813 203C355.822 202.281 356.127 201.683 356.264 201C356.399 200.324 356.724 199.659 357 199.031C357.545 197.79 357.995 196.504 358.577 195.278C358.91 194.576 359.344 193.956 359.719 193.281C359.891 192.972 360.15 192.242 360.5 192.125" stroke="#020A13" stroke-width="2" stroke-linecap="round" stroke-linejoin="round"/>
<path d="M387.625 207.625C386.712 209.894 385.76 212.166 385.045 214.507C384.728 215.544 384.481 216.619 384.111 217.639C383.656 218.893 383.511 220.156 383.25 221.451C383.15 221.95 382.939 222.395 382.819 222.885C382.63 223.662 382.593 224.474 382.424 225.257C382.154 226.505 381.918 227.767 381.719 229.028C381.573 229.948 381.442 230.911 381.16 231.799C380.866 232.721 380.69 233.674 380.378 234.59C380.19 235.144 380.08 235.719 379.906 236.278C379.847 236.47 379.8 236.663 379.764 236.861C379.709 237.162 379.638 237.149 379.306 237.174C378.888 237.204 378.167 237.301 377.75 237.16C377.342 237.021 376.968 236.756 376.566 236.594C376.161 236.43 375.748 236.252 375.361 236.049C374.32 235.502 373.327 234.869 372.236 234.424C371.785 234.239 371.381 233.952 370.972 233.691C370.567 233.432 370.102 233.298 369.684 233.059C369.079 232.713 368.663 232.172 368.108 231.76C367.76 231.503 367.426 231.129 367.219 230.747C367.078 230.487 366.884 230.225 366.691 230C366.551 229.836 366.551 229.607 366.438 229.438" stroke="#020A13" stroke-width="2" stroke-linecap="round" stroke-linejoin="round"/>
<path d="M387.5 207.562C389.34 207.985 391.299 207.804 393.174 207.812C394.06 207.816 394.863 207.952 395.729 208.09C396.888 208.275 398.082 208.168 399.25 208.191C400.7 208.22 402.146 208.25 403.597 208.25C406.619 208.25 409.641 208.25 412.663 208.25C413.601 208.25 414.502 208.275 415.431 208.368C415.721 208.397 415.975 208.366 416.257 208.438C416.853 208.589 417.474 208.505 418 208.844C418.253 209.007 418.175 209.802 418.247 210.083C418.348 210.481 418.338 210.899 418.389 211.306C418.489 212.112 418.559 212.894 418.562 213.708C418.566 214.68 418.605 215.692 418.389 216.646C418.176 217.583 417.881 218.606 417.521 219.493C417.208 220.262 416.712 220.957 416.333 221.694C415.614 223.095 414.882 224.351 413.851 225.552C412.692 226.901 411.369 228.28 409.736 229.028C408.928 229.398 408.194 229.922 407.438 230.382C406.448 230.983 405.454 231.577 404.469 232.184C403.532 232.76 402.476 233.061 401.472 233.493C400.595 233.871 399.732 234.283 398.861 234.674C398.591 234.795 398.304 234.853 398.024 234.944C397.539 235.103 397.084 235.345 396.604 235.521C396.126 235.696 395.641 235.853 395.146 235.972C394.563 236.112 394.011 236.371 393.417 236.458C393.095 236.505 392.772 236.476 392.451 236.514C392.155 236.549 391.875 236.656 391.576 236.684C390.636 236.774 389.708 236.931 388.764 236.986C386.972 237.092 385.149 237 383.354 237C382.733 237 381.879 237.168 381.326 236.812C381.07 236.648 380.738 236.578 380.438 236.559C380.24 236.547 380.063 236.438 379.875 236.438" stroke="#020A13" stroke-width="2" stroke-linecap="round" stroke-linejoin="round"/>
<path d="M409.812 186.375C410.456 186.758 410.873 187.191 411.323 187.76C411.927 188.526 412.7 189.139 413.299 189.903C413.865 190.626 414.378 191.288 414.812 192.097C415.223 192.863 415.541 193.74 415.84 194.556C416.158 195.422 416.433 196.31 416.719 197.188C416.785 197.392 416.827 197.612 416.903 197.812C417.022 198.129 417.287 198.373 417.41 198.688C417.478 198.861 417.648 199.152 417.622 199.347C417.595 199.549 417.385 199.629 417.222 199.701C416.522 200.012 415.805 200.258 415.069 200.472C411.806 201.424 408.471 202.565 405.083 202.965C402.951 203.217 400.854 203.179 398.823 203.962C397.985 204.285 397.11 204.479 396.243 204.701C395.019 205.016 393.817 205.429 392.594 205.75C391.684 205.989 390.721 206.24 389.861 206.625C389.113 206.96 388.334 207.231 387.569 207.528C387.344 207.615 387.135 207.664 386.938 207.812" stroke="#020A13" stroke-width="2" stroke-linecap="round" stroke-linejoin="round"/>
<g clip-path="url(#clip1)">
<path d="M387.157 85.5C386.387 85.5 385.759 84.8634 385.759 84.0835V80.9957C385.759 80.2159 386.387 79.5792 387.157 79.5792C387.926 79.5792 388.555 80.2159 388.555 80.9957V84.0835C388.555 84.8634 387.942 85.5 387.157 85.5Z" fill="#020A13"/>
<path d="M387.157 70.9208C386.387 70.9208 385.759 70.2842 385.759 69.5043V66.4165C385.759 65.6366 386.387 65 387.157 65C387.926 65 388.555 65.6366 388.555 66.4165V69.5043C388.555 70.2842 387.942 70.9208 387.157 70.9208Z" fill="#020A13"/>
<path d="M391.979 73.6105C391.492 73.6105 391.021 73.3558 390.769 72.8943C390.377 72.2099 390.612 71.3504 391.288 70.9525L393.926 69.4086C394.602 69.0107 395.45 69.2495 395.843 69.9339C396.235 70.6183 396 71.4777 395.324 71.8756L392.686 73.4195C392.45 73.5468 392.214 73.6105 391.979 73.6105Z" fill="#020A13"/>
<path d="M379.508 80.9001C379.021 80.9001 378.55 80.6455 378.299 80.1839C377.906 79.4995 378.142 78.64 378.817 78.2421L381.456 76.6983C382.131 76.3004 382.979 76.5391 383.372 77.2235C383.765 77.9079 383.529 78.7674 382.854 79.1653L380.215 80.7091C379.995 80.8365 379.744 80.9001 379.508 80.9001Z" fill="#020A13"/>
<path d="M382.036 73.7856C381.801 73.7856 381.565 73.722 381.345 73.5946L378.706 72.0667C378.031 71.6688 377.811 70.8093 378.188 70.1249C378.581 69.4405 379.429 69.2177 380.104 69.5997L382.743 71.1435C383.419 71.5415 383.638 72.4009 383.261 73.0853C382.979 73.531 382.508 73.7856 382.036 73.7856Z" fill="#020A13"/>
<path d="M394.491 81.0753C394.256 81.0753 394.02 81.0116 393.8 80.8843L391.162 79.3404C390.486 78.9425 390.266 78.083 390.643 77.3986C391.036 76.7142 391.884 76.4914 392.559 76.8734L395.198 78.4173C395.874 78.8152 396.094 79.6746 395.717 80.359C395.45 80.8206 394.978 81.0753 394.491 81.0753Z" fill="#020A13"/>
</g>
<defs>
<filter id="filter0_d" x="400.5" y="109.25" width="71" height="71" filterUnits="userSpaceOnUse" color-interpolation-filters="sRGB">
<feFlood flood-opacity="0" result="BackgroundImageFix"/>
<feColorMatrix in="SourceAlpha" type="matrix" values="0 0 0 0 0 0 0 0 0 0 0 0 0 0 0 0 0 0 127 0"/>
<feOffset dy="3.75"/>
<feGaussianBlur stdDeviation="3.75"/>
<feColorMatrix type="matrix" values="0 0 0 0 0.00784314 0 0 0 0 0.0392157 0 0 0 0 0.0745098 0 0 0 0.25 0"/>
<feBlend mode="normal" in2="BackgroundImageFix" result="effect1_dropShadow"/>
<feBlend mode="normal" in="SourceGraphic" in2="effect1_dropShadow" result="shape"/>
</filter>
<clipPath id="clip0">
<rect width="281" height="436" fill="white" transform="translate(0 16)"/>
</clipPath>
<clipPath id="clip1">
<rect width="18" height="20.5" fill="white" transform="translate(378 65)"/>
</clipPath>
</defs>
</svg>
