<svg width="477" height="440" viewBox="0 0 477 440" fill="none" xmlns="http://www.w3.org/2000/svg">
<path fill-rule="evenodd" clip-rule="evenodd" d="M261.901 0.164631C308.265 2.05524 352.99 20.9406 387.383 52.0913C419.534 81.2109 432.533 123.784 444.442 165.496C455.917 205.691 469.17 248.245 454.564 287.412C440.212 325.898 400.111 345.225 367.91 370.724C333.99 397.585 305.151 438.795 261.901 439.976C218.455 441.162 189.139 398.535 151.602 376.629C108.213 351.308 46.3188 347.286 25.0673 301.764C3.64783 255.882 29.5851 202.451 48.3285 155.413C65.9615 111.161 90.2267 69.5532 128.757 41.5452C167.293 13.5328 214.299 -1.77644 261.901 0.164631Z" fill="#EDEFA9"/>
<path d="M450.589 27.0934C452 26.1512 451.163 24.2874 451.476 22.6233C451.635 21.9254 451.794 21.2275 451.953 20.5297C452.22 20.5247 452.423 20.5051 452.69 20.5002C452.978 21.5688 453.343 22.5885 453.442 23.6133C453.803 28.4393 453.898 33.2703 454.337 38.0475C454.519 40.1604 455.095 42.2976 455.685 44.3714C456.612 47.5918 459.947 48.6985 462.558 48.9027C463.014 48.9416 463.508 48.5218 464.1 48.2582C464.829 49.4291 465.974 49.3604 467.225 49.1161C468.196 48.9401 469.166 48.7642 470.127 48.9201C470.646 48.9736 471.021 49.6615 471.467 50.0323C471.065 50.3398 470.746 50.8669 470.324 50.9695C468.292 51.4337 466.225 51.7564 464.144 52.1425C456.98 53.5548 452.928 59.9632 452.701 66.7902C452.585 70.5037 452.595 74.2466 452.402 78.0089C452.383 78.6726 451.734 79.1901 451.337 79.766C451.074 79.1707 450.656 78.6731 450.597 78.0583C450.136 74.5449 450.033 70.9144 449.213 67.5183C447.861 61.7946 442.929 56.9114 436.469 55.8153C436.09 55.7276 435.668 55.8302 435.382 55.6302C434.746 55.2156 434.201 54.6887 433.643 54.2253C434.166 53.6786 434.592 52.9758 435.198 52.6487C437.559 51.3255 440.149 50.4562 442.3 48.8842C447.782 44.9446 450.404 39.2735 450.981 32.6612C451.028 31.8706 451.153 31.0313 451.137 30.2261C451.024 29.2648 450.771 28.3377 450.589 27.0934ZM460.513 51.1676C457.916 50.0313 455.149 49.0562 454.087 46.1383C453.219 43.5328 452.57 40.8442 451.926 38.424C451.062 41.6303 449.679 44.783 447.184 47.2774C444.703 49.7082 441.965 51.8122 439.649 53.8136C441.558 55.0574 443.937 56.2767 445.73 58.028C447.586 59.794 448.919 62.1066 450.528 64.0825C452.991 56.7718 453.359 56.3227 460.513 51.1676Z" fill="black"/>
<g clip-path="url(#clip0)">
<path d="M318.032 166.221C323.7 173.436 327.455 181.756 331.872 189.707C332.535 190.885 332.903 192.21 334.081 193.02C335.185 195.45 332.387 196.48 332.24 198.395C333.124 197.511 333.197 195.744 335.038 195.671C335.995 197.364 337.025 199.131 337.982 200.824C338.939 202.738 336.51 202.591 336.436 203.769C337.246 203.548 337.982 202.37 339.234 202.738C345.418 214.444 351.675 226.077 357.859 237.783C366.694 254.569 375.454 271.429 382.742 288.951C382.963 289.393 383.258 289.834 383.479 290.203C382.153 291.601 382.153 291.601 377.663 292.485C379.724 292.779 381.859 290.718 384.068 292.338C386.718 298.743 388.337 305.369 387.601 312.363C386.644 321.345 382.006 328.266 374.718 333.272C370.816 335.996 368.24 339.53 366.473 343.727C366.399 343.874 366.325 343.947 366.325 344.095C363.16 356.905 354.031 363.752 342.326 368.243C333.124 371.777 324.363 376.783 313.835 375.384C306.915 374.427 300.216 372.366 293.59 370.231C290.13 369.936 288.216 366.918 285.419 365.519C282.621 363.31 279.456 361.617 276.805 359.187C277.468 356.095 280.413 354.402 281.738 351.678C282.548 350.058 283.799 348.659 284.02 346.745C284.314 344.389 283.21 343.285 280.928 343.579C277.321 344.095 274.67 345.935 272.756 349.101C271.947 350.5 271.505 352.34 269.738 353.077C267.309 353.371 266.057 351.162 264.069 350.353C261.125 347.187 258.254 343.947 253.836 342.769C246.695 337.469 239.702 331.947 235.137 324.29C226.598 332.315 217.763 340.045 207.972 346.524C207.457 346.892 206.868 347.04 206.279 347.04C203.923 346.524 202.672 344.168 200.242 343.653C198.623 343.358 197.077 342.769 195.751 344.021C194.279 345.42 195.383 346.966 195.899 348.438C196.488 350.132 198.328 351.31 197.592 353.445C193.101 355.874 189.052 359.261 183.531 359.335C171.163 362.5 159.605 359.924 148.341 354.696C144.366 352.856 140.317 351.162 136.268 349.469C135.532 347.629 136.93 346.451 137.74 345.199C140.979 339.825 143.188 334.008 144.807 327.971C145.47 325.394 144.513 324.585 142.157 324.805C136.783 325.321 131.483 326.278 126.403 328.045C124.489 328.707 122.575 329.885 120.366 329.223C118.158 326.867 117.274 323.996 116.759 320.903C117.127 319.136 118.599 318.4 119.851 317.443C132.292 307.798 139.212 294.988 141.421 279.601C142.673 271.134 143.482 270.913 134.28 273.196C122.722 276.141 112.783 281.81 104.244 289.982C103.434 290.792 102.919 292.19 101.373 291.822C98.7223 285.712 96.3665 279.601 95.1886 272.975C95.8512 271.134 97.7653 271.576 99.0168 270.84C97.6181 271.061 96.0721 272.091 94.6733 270.692C93.4954 261.269 97.9861 253.98 103.655 247.207C107.63 242.421 111.753 237.783 115.728 233.071C115.507 231.893 116.391 231.157 116.906 230.347C119.556 226.887 121.912 223.132 124.415 219.524C125.225 218.346 125.961 217.021 127.507 216.579C129.421 216.8 129.642 218.641 130.673 219.451C130.084 217.978 128.317 216.727 128.464 214.665C128.832 212.898 129.789 211.426 131.114 210.174C133.47 210.248 133.838 212.53 135.163 213.708C134.206 211.794 132.66 210.248 131.114 208.775C136.783 202.297 140.979 194.787 146.28 188.014C147.752 186.173 149.445 184.701 151.433 183.523C152.243 183.007 153.126 183.302 153.936 183.302C156.439 182.639 158.942 181.903 161.445 181.24C164.611 180.357 167.85 179.842 171.016 179.179C178.819 177.559 184.341 172.406 190.009 167.399C191.114 166.442 191.923 165.117 193.617 165.191C194.721 165.78 195.015 166.81 195.31 167.841C196.782 174.393 200.758 179.326 205.69 183.67C206.647 184.553 207.972 185.142 208.046 186.688C207.678 188.161 207.015 189.486 206.132 190.738C201.715 191.327 197.371 190.222 192.954 190.517C175.948 191.621 161.004 203.916 156.439 220.481C154.525 227.549 154.746 234.47 156.292 241.538C157.691 247.869 159.678 254.054 160.341 260.532C159.016 263.33 155.629 263.404 153.863 265.392C157.985 262.299 162.697 260.606 167.997 260.901C170.206 260.974 172.93 261.342 173.74 263.477C175.138 267.232 176.905 265.686 178.893 264.434C180.512 264.287 181.617 265.318 182.795 266.201C197.592 277.834 212.61 289.245 227.481 300.804C228.733 301.761 229.91 302.792 231.015 304.044C232.929 306.473 231.898 309.492 232.708 312.142C233.959 316.191 235.432 319.946 238.671 322.818C235.579 319.873 233.665 316.191 232.929 311.995C232.708 310.743 231.53 309.197 232.929 308.24C234.254 307.357 235.137 309.271 236.315 309.639C235.137 308.24 233.591 307.136 232.634 305.516C231.677 303.823 231.383 301.909 232.782 300.363C234.328 298.816 235.653 300.215 236.904 301.172C238.303 302.129 239.775 303.013 241.321 303.676C239.26 302.645 237.346 301.54 235.653 299.994C233.886 298.448 233.591 296.902 234.769 294.841C237.125 290.718 237.861 290.571 241.689 293.884C239.775 291.749 237.346 289.687 240.364 286.89C244.561 282.987 246.327 288.73 249.125 289.025C248.241 288.215 246.769 287.552 245.518 286.595C242.941 284.681 242.941 283.65 245.37 281.441C249.346 277.981 252.07 278.276 257.885 283.282C256.487 281.736 255.235 281 253.91 280.263C252.879 279.674 251.333 279.38 251.554 277.834C251.702 276.214 253.247 275.92 254.573 275.625C256.487 275.404 258.327 275.478 260.241 275.552C262.229 275.699 263.554 277.024 265.689 279.012C263.26 275.92 264.585 275.257 266.793 274.815C279.456 272.091 291.603 274.079 303.529 278.349C305.811 279.159 307.578 279.233 309.786 278.276C315.087 276.141 320.461 275.552 326.056 278.57C324.878 277.834 323.848 277.466 323.406 276.361C323.259 270.177 324.805 264.214 325.467 258.177C326.498 248.458 328.854 238.814 328.78 229.022C328.78 208.186 312.731 190.002 292.192 187.057C280.634 185.437 270.327 188.161 260.83 194.493C259.8 195.155 258.916 196.039 257.591 195.965C255.603 194.419 257.37 193.094 257.959 191.916C260.683 186.541 262.082 180.946 261.934 175.056C261.566 174.762 261.566 174.835 261.566 175.277C261.419 181.24 261.272 181.314 255.898 178.443C255.014 178.001 254.131 177.633 253.321 177.117C253.248 177.338 253.468 177.412 253.689 177.559C261.64 181.535 262.229 183.228 258.254 191.253C256.855 194.051 255.088 196.48 253.1 198.836C250.671 201.708 249.198 201.708 246.327 199.131C244.045 197.069 242.131 194.713 240.512 192.063C242.278 194.934 244.192 197.658 246.843 199.793C249.125 201.634 248.315 203.106 246.401 204.432C243.824 206.272 240.953 207.671 237.64 209.07C241.027 207.892 243.677 206.272 246.401 204.579C247.432 203.916 248.683 202.297 250.008 204.358C249.714 206.788 248.168 208.628 247.211 210.69C244.192 216.948 242.426 223.574 242.573 230.568C242.72 236.09 241.763 241.538 241.689 247.059C241.469 248.532 241.248 250.078 239.334 250.372C237.42 249.415 237.42 247.575 237.493 245.955C237.788 239.844 237.051 233.734 236.61 227.623C235.947 217.537 231.383 209.144 224.536 201.928C223.432 200.751 222.033 199.867 221.371 198.395C221.297 197.29 222.181 196.333 221.96 195.082C221.371 195.744 221.592 196.701 220.929 197.217C220.708 197.364 220.414 197.511 220.266 197.437C215.702 195.229 210.917 193.462 206.647 190.664C206.941 189.044 207.604 187.646 209.297 187.057C214.524 188.014 219.604 189.707 225.125 189.56C234.401 189.265 240.88 185.142 245.444 177.338C248.389 172.258 249.567 166.663 250.671 160.994C250.965 160.626 251.333 160.258 251.775 160.037C257.885 156.135 257.885 156.135 260.83 162.687C262.597 166.663 266.057 168.945 269.664 168.504C275.259 167.841 279.456 164.381 280.192 159.816C280.486 158.196 279.603 155.767 281.517 155.251C283.284 154.736 283.946 157.313 285.051 158.491C288.952 162.687 293.811 164.16 299.333 163.424C301.688 163.129 303.603 163.35 305.517 164.822C308.609 167.326 312.069 167.988 315.75 166.074C316.633 166 317.296 165.78 318.032 166.221Z" fill="#FEDB4D"/>
<path d="M193.837 165.853C190.745 168.43 187.653 170.933 184.708 173.657C178.745 179.105 171.236 180.578 163.653 181.977C162.991 182.124 162.255 181.682 161.518 181.535C158.868 178.59 158.721 175.203 159.752 171.522C161.592 165.264 165.126 159.963 169.101 155.031C170.353 153.411 170.353 152.822 168.659 151.497C157.985 143.104 158.132 127.79 168.807 119.471C171.531 117.336 174.475 115.421 177.862 114.685C181.911 113.728 184.708 111.519 186.99 108.206C189.052 105.188 191.923 102.758 194.941 100.623C203.923 94.1442 213.125 94.5123 221.223 101.727C227.333 94.4387 234.474 88.4753 244.634 90.0213C253.983 91.4202 257.591 99.1506 260.241 107.544C266.351 103.789 273.05 101.507 279.971 100.108C289.394 98.1199 294.179 101.507 295.43 111.078C295.504 111.519 295.578 111.961 295.725 112.624C300.805 109.384 305.884 108.942 311.111 111.961C314.498 113.949 316.191 116.82 316.338 120.649C316.633 126.833 314.498 132.428 311.921 137.876C311.406 138.981 310.301 139.864 312.657 140.748C325.393 145.533 327.675 155.178 318.767 165.338C318.547 165.632 318.326 165.927 318.105 166.221C312.363 169.534 309.786 169.387 304.486 165.117C303.676 164.454 303.013 163.939 301.909 164.16C293.516 166.074 286.743 163.718 282.032 155.84C281.001 165.191 277.026 169.461 269.222 169.755C263.554 169.976 260.535 166.589 258.474 157.386C256.192 158.785 254.057 160.479 251.554 161.362C246.916 162.908 242.867 161.657 239.701 157.386C238.155 155.251 236.462 153.558 234.033 152.306C230.131 150.245 228.658 146.711 229.247 142.441C229.542 140.453 229.1 139.349 226.892 139.275C225.935 139.275 224.904 138.981 224.168 138.392C222.033 136.698 219.751 136.551 217.248 137.435C215.775 137.95 214.376 138.244 213.419 136.551C212.978 135.668 212.021 135.741 211.137 135.668C206.426 135.3 202.303 133.606 198.843 130.44C196.782 128.526 195.898 129.41 193.837 130.956C190.009 133.901 189.052 137.214 189.42 141.852C189.641 144.871 188.831 147.815 191.113 150.392C191.628 150.981 191.702 152.012 191.776 152.822C191.923 156.208 192.806 159.301 194.279 162.319C194.868 163.424 196.119 164.97 193.837 165.853Z" fill="black"/>
<path d="M269.738 352.856C270.916 350.868 272.02 348.806 273.272 346.892C274.302 345.346 275.775 344.168 277.468 343.506C279.75 342.622 282.327 341.591 284.314 343.579C286.376 345.641 284.903 348.07 283.725 349.984C281.811 353.077 279.603 355.948 277.468 358.966C277.689 360.218 276.658 360.881 276.216 361.911C279.75 361.764 282.842 363.237 285.713 365.004C288.29 366.771 290.94 368.464 293.517 370.231C300.878 378.624 305.958 389.373 307.799 400.343C306.621 400.932 305.369 400.637 304.191 400.637C261.124 400.637 218.131 400.637 175.065 400.711C171.236 400.711 171.31 399.68 172.267 396.661C175.285 386.943 180.071 378.256 186.475 370.378C190.156 365.372 195.899 364.856 201.273 363.531C202.156 363.31 203.187 363.752 204.217 362.869C202.156 359.408 198.254 357.2 197.371 352.929C196.414 351.089 195.31 349.322 194.573 347.408C193.322 344.021 195.015 341.96 198.696 342.328C201.935 342.622 204.291 344.61 206.5 346.671C209.297 349.027 211.138 353.15 211.653 358.157C212.463 353.886 213.641 349.616 216.585 345.935C218.647 343.285 221.297 341.739 224.683 341.444C228.364 341.15 230.499 343.726 229.321 347.26C228.585 349.395 228.143 351.825 225.64 352.856C224.757 352.782 224.389 352.193 224.242 351.383C224.168 349.984 225.051 348.88 225.42 347.555C226.008 345.788 225.125 345.273 223.579 345.493C221.518 345.862 219.972 347.04 218.941 348.733C216.806 352.193 215.481 356.022 214.892 360.071C214.45 362.942 216.291 360.292 216.806 360.954C217.395 361.102 217.763 361.396 218.058 361.911C218.72 363.237 219.972 363.237 221.223 363.457C226.524 364.341 231.898 365.077 237.051 366.476C238.744 366.918 240.438 367.139 242.131 366.623C247.137 365.077 252.217 363.678 257.37 362.648C259.137 362.28 259.358 361.543 258.253 360.144C256.339 357.715 254.425 355.433 252.658 352.856C251.26 350.794 250.082 348.659 249.861 346.156C249.64 343.064 251.333 341.739 254.646 342.254C259.063 343.138 262.082 345.788 264.216 349.69C267.824 352.929 267.456 357.273 267.75 360.66C267.75 358.451 267.235 355.285 269.738 352.856Z" fill="black"/>
<path d="M101.373 291.896C111.606 280.852 124.121 274.005 138.844 271.208C143.188 270.398 143.262 270.472 142.893 274.742C141.421 293.442 133.691 308.756 118.231 319.799C117.863 320.094 117.569 320.462 117.201 320.756C112.71 325.615 106.452 327.309 100.563 329.591C98.8697 330.253 97.1028 330.916 95.2623 331.063C91.8023 331.431 90.9189 333.346 90.9925 336.585C91.1397 343.653 91.0661 350.794 91.0661 357.862C91.0661 359.85 90.9925 361.764 90.3299 364.194C90.3299 364.12 91.2133 363.752 90.7716 363.752C90.698 363.752 90.6244 363.678 90.6244 363.457C91.8023 355.948 95.7041 349.69 100.121 343.874C104.538 338.058 110.133 333.493 116.538 330.033C117.716 329.37 118.894 328.707 120.366 329.002C126.918 326.572 133.544 324.364 140.611 323.922C142.525 323.775 144.513 323.48 146.501 324.069C145.028 333.346 141.2 341.591 136.194 349.395C127.213 360.807 115.876 368.317 101.52 371.041C98.5016 371.63 95.4832 372.071 92.3912 372.071C90.0354 372.071 89.5937 372.881 89.5937 375.016C89.6673 384.072 89.6673 393.128 89.5937 402.257C89.5937 403.288 90.3299 405.202 88.6367 405.202C87.3116 405.202 87.9005 403.435 87.8269 402.404C87.7533 397.839 87.6797 393.348 87.8269 388.784C87.9005 386.502 87.3116 385.692 84.8821 385.397C64.4898 382.452 49.3244 365.813 47.8521 345.199C47.6312 342.549 48.1465 341.739 50.944 342.254C67.8763 345.125 79.8761 354.107 86.3545 370.157C86.5754 370.673 86.8698 371.188 87.7533 371.703C87.7533 369.642 87.7533 367.507 87.7533 365.445C87.7533 355.064 87.7533 344.61 87.7533 334.229C87.7533 332.683 88.1214 331.211 85.6183 330.916C72.2198 329.296 62.134 322.449 55.0667 311.038C54.1096 310.375 53.5207 309.492 53.0054 308.535C50.2815 303.676 48.9563 298.448 48.0729 293.074C47.7784 291.38 47.3367 289.319 49.8398 288.656C51.1649 288.73 52.49 288.951 53.8152 289.098C60.4408 290.571 66.6248 293.074 72.1462 297.197C73.4713 298.08 74.2075 299.479 75.1645 300.657C81.3485 306.989 85.5447 314.498 88.0477 323.112C89.5937 311.48 93.9372 301.025 101.373 291.896Z" fill="black"/>
<path d="M314.498 40.1785C316.044 38.3379 317.001 36.8655 318.252 35.6875C323.626 30.3867 330.252 31.4174 335.332 39.0742C337.687 42.6081 339.822 43.9333 344.092 43.4916C352.411 42.6817 359.11 46.8782 365.294 51.8846C365.515 52.0318 365.515 52.4736 365.736 52.9889C363.822 52.9889 362.055 52.9889 360.288 52.9889C327.823 52.9889 295.357 52.9889 262.891 52.9153C261.492 52.9153 259.357 53.946 258.768 51.7373C258.179 49.6023 258.916 47.6881 260.903 46.2892C266.057 42.829 271.504 42.3136 276.805 45.2585C280.118 47.0255 280.412 45.7739 281.001 43.0498C282.032 37.9698 284.977 33.9942 288.805 30.4603C294.841 24.8649 310.228 25.3803 313.246 36.7182C313.467 37.5281 313.835 38.3379 314.498 40.1785Z" fill="#020A13"/>
<path d="M154.084 183.523C153.421 183.744 152.759 184.038 152.096 184.259C149.667 183.449 147.974 181.608 146.133 179.989C132.735 168.577 118.011 168.945 105.201 181.019C98.2811 187.498 93.2015 195.229 88.9316 203.548C87.5328 206.272 86.0605 207.008 83.1157 206.199C67.7295 202.076 52.7113 203.769 38.1348 209.732C27.0185 214.297 17.08 220.702 7.87765 228.433C7.50956 228.727 7.06785 229.022 6.99423 229.611C8.17213 230.421 9.57088 229.979 10.8224 229.979C44.3188 229.979 77.8152 229.979 111.238 230.052C113.226 230.052 115.434 229.39 117.127 231.23C116.612 231.893 116.17 232.556 115.655 233.145C106.674 233.071 97.7658 232.997 88.7843 232.997C60.3676 232.997 31.8773 232.997 3.46054 232.997C2.28265 232.997 1.10475 232.997 -0.073142 232.997C-0.146761 231.525 0.81028 231.01 1.47285 230.421C18.037 214.886 36.957 203.99 59.9259 201.266C67.435 200.382 74.8705 200.971 82.1587 203.033C85.1034 203.916 86.1341 202.959 87.312 200.53C91.1401 192.652 96.1462 185.51 102.477 179.473C117.569 165.191 133.765 164.97 149.225 178.737C150.992 180.357 152.464 181.977 154.084 183.523Z" fill="#0B0B0B"/>
<path d="M105.569 76.7692C104.096 76.9901 104.023 76.1802 104.244 75.1495C108.808 71.4684 113.372 68.0817 119.851 70.2168C121.544 70.7321 121.323 68.8916 121.618 68.0817C122.795 64.3269 124.121 60.6458 126.329 57.4064C130.378 51.2956 135.09 51.2956 139.286 57.4064C140.022 58.5107 140.685 59.6887 141.568 61.1611C142.746 57.9217 143.188 54.7559 144.586 51.9582C146.648 47.8354 149.298 44.4487 154.378 44.0806C159.457 43.7125 162.623 46.6574 165.052 50.633C168.586 56.2284 170.058 62.56 171.163 68.9652C171.457 70.5113 171.678 71.9837 171.973 73.8979C175.801 70.364 179.776 68.4498 184.488 71.3211C190.451 74.9286 191.113 80.524 190.156 86.782C185.666 86.8556 181.101 87.0028 176.611 87.0028C154.893 87.0028 133.249 87.0028 111.532 87.0028C110.28 87.0028 108.882 87.5918 107.63 86.1194C108.808 84.9414 110.133 85.3831 111.311 85.3831C135.531 85.3831 159.826 85.3831 184.046 85.3831C189.42 85.3831 189.715 84.9414 188.169 79.346C187.212 78.9043 186.917 77.8736 186.402 77.0637C182.794 71.8365 178.304 71.542 173.96 76.2539C172.93 77.3582 172.267 79.7878 170.721 79.346C168.881 78.8307 169.543 76.4011 169.322 74.7814C168.439 68.7443 167.408 62.7072 165.2 56.891C164.022 53.8724 162.549 51.0748 160.12 48.9397C156.365 45.6267 151.948 46.142 148.93 50.1913C147.016 52.7681 145.985 55.7866 145.249 58.9524C144.955 60.2777 144.807 61.6029 144.366 62.9281C143.998 64.1797 143.924 65.7994 142.157 65.9466C140.39 66.0939 140.022 64.5478 139.507 63.3698C138.476 61.2348 137.372 59.1733 135.752 57.5536C133.544 55.2713 132.071 55.3449 129.863 57.5536C127.433 59.9832 126.403 63.149 125.225 66.2411C124.562 67.9345 124.047 69.7014 123.458 71.4684C123.016 72.9408 121.986 74.0452 120.44 73.3826C115.286 71.2475 111.164 73.2353 107.262 76.4011C106.82 76.6956 106.231 76.9165 105.569 76.7692Z" fill="#070707"/>
<path d="M355.724 406.232C355.356 409.472 355.209 413.153 353.589 416.54C351.822 420.147 349.172 421.031 345.859 418.748C341.369 415.73 338.277 411.46 336.952 406.159C336.068 402.478 337.467 399.386 340.412 397.103C343.504 394.747 346.964 394.379 350.424 396.146C354.399 398.134 355.871 401.521 355.724 406.232Z" fill="#010101"/>
<path d="M75.2384 300.804C74.3549 299.994 73.3979 299.185 72.5145 298.448C69.6434 292.632 67.4348 286.521 64.3428 280.779C61.9134 276.361 59.2632 272.091 56.0976 268.189C54.6988 266.496 53.1528 264.214 50.3553 265.318C48.6621 265.981 47.5578 271.355 48.5885 273.416C50.429 277.024 52.2694 280.632 53.5209 284.46C54.1099 286.227 55.435 287.994 54.1835 290.055C53.0056 290.055 51.8277 290.203 50.7234 289.614C50.6498 285.564 48.5149 282.178 46.9689 278.128C46.2327 286.227 46.6008 293.81 48.7357 301.246C49.6928 304.559 50.6498 307.946 54.2571 309.492C54.6252 310.081 54.9197 310.67 55.2878 311.332C52.1222 312.878 50.429 310.743 48.883 308.682C46.2327 305.148 45.4229 300.804 44.7603 296.608C43.656 289.687 43.0671 282.693 44.3922 275.772C44.9812 272.754 43.8033 270.84 41.3739 269.367C39.3126 268.189 37.5457 268.852 36.0733 270.398C34.2329 272.386 34.1593 274.594 35.4844 277.098C37.3985 280.779 38.4291 284.902 38.7972 289.098C38.8709 289.908 39.3126 291.012 38.2083 291.38C36.8832 291.822 36.6623 290.423 36.2942 289.614C34.8218 286.521 33.2022 283.282 33.055 279.895C32.8341 272.901 28.1226 269.294 23.3374 265.686C21.276 264.14 18.9202 262.888 16.5645 261.416C18.2577 260.017 19.2147 261.195 20.1718 261.637C24.4416 263.698 27.9753 266.717 31.1409 270.177C31.8771 270.987 32.3188 272.386 33.7912 270.545C37.7666 265.76 39.8279 265.686 45.0548 269.809C45.8646 267.895 46.6008 266.054 47.5578 264.287C48.9566 261.637 51.0179 261.048 53.6682 262.52C56.1712 263.919 58.0853 266.054 59.7785 268.336C66.7722 278.128 72.22 288.877 75.2384 300.804Z" fill="#FEDD54"/>
<path d="M388.043 138.981C386.865 135.962 385.835 132.944 384.583 129.925C382.227 124.109 379.283 118.587 375.307 113.728C373.908 112.035 372.657 109.458 369.786 110.636C368.019 111.298 367.504 116.084 368.682 118.293C371.626 123.741 373.393 129.557 374.645 135.594C375.16 138.171 375.16 140.674 375.086 143.251C375.086 144.65 374.792 146.049 373.32 146.638C371.7 147.3 370.522 146.269 369.491 145.165C367.577 143.104 366.767 140.527 366.179 137.876C364.927 131.839 364.044 125.802 365.221 119.691C365.663 117.409 365.148 115.569 363.013 114.391C361.614 113.654 360.436 114.096 359.332 115.127C357.565 116.82 358.081 118.587 359.038 120.501C360.51 123.225 360.804 126.318 361.467 129.336C361.614 130.072 361.688 130.882 360.804 131.177C359.847 131.471 359.479 130.735 359.185 130.072C358.301 127.79 356.903 125.508 356.829 123.152C356.608 116.967 352.559 113.875 348.142 110.857C346.817 109.973 345.492 109.163 344.24 108.354C344.903 106.881 345.713 107.47 346.449 107.838C348.805 108.942 350.94 110.341 352.854 112.108C354.841 114.022 356.387 116.747 359.406 112.918C361.172 110.709 363.675 112.918 365.737 113.802C369.786 106.66 371.994 106.439 377.148 113.139C382.448 119.986 385.982 127.79 388.706 135.962C388.927 136.551 388.927 137.14 389 137.803C389 138.171 388.853 138.465 388.779 138.833C388.485 138.833 388.264 138.907 388.043 138.981Z" fill="#020A13"/>
<path d="M197.444 352.929C200.316 356.463 203.26 359.997 206.499 363.973C199.064 364.488 192.365 365.961 186.696 370.378C185.665 366.771 184.708 363.089 183.678 359.482C188.463 357.715 192.88 355.285 197.444 352.929Z" fill="#FEDB4D"/>
<path d="M370.89 395.189C375.013 395.189 377.81 397.766 377.884 401.594C377.957 406.895 375.822 410.576 372.73 410.429C369.27 410.282 363.823 404.318 363.896 400.784C363.97 397.619 367.062 395.115 370.89 395.189Z" fill="#010101"/>
<path d="M70.2322 395.263C70.1586 398.06 67.7292 400.416 65.0053 400.269C62.2814 400.122 59.7784 397.545 60.1465 394.895C60.5146 392.023 62.2078 390.256 65.2262 390.109C68.0237 390.109 70.3058 392.465 70.2322 395.263Z" fill="#060606"/>
<path d="M74.3546 162.098C73.9865 163.939 74.5018 166.737 71.5571 167.399C69.4221 167.841 65.9621 163.203 66.1829 160.479C66.4038 158.049 67.8762 156.724 70.2319 156.577C72.735 156.429 74.4282 158.638 74.3546 162.098Z" fill="#040404"/>
<path d="M299.922 94.4387C299.922 91.2729 301.173 89.2851 304.118 89.2851C306.621 89.2115 308.167 90.8312 308.241 93.408C308.314 95.9848 304.854 100.476 302.94 100.034C299.701 99.3715 300.511 96.3529 299.922 94.4387Z" fill="#060606"/>
<path d="M76.6366 181.903C76.0476 183.744 77.0047 186.909 73.5446 187.277C71.5569 187.498 68.0968 182.934 68.3177 180.504C68.5386 178.001 70.1582 176.381 72.6612 176.528C75.6059 176.749 76.7838 178.811 76.6366 181.903Z" fill="#030303"/>
<path d="M280.928 74.6342C283.504 74.855 285.05 76.1802 285.198 78.7571C285.345 81.2602 281.885 85.7512 279.897 85.4567C276.584 84.9414 277.173 81.9228 276.952 79.6405C276.658 76.7692 277.983 75.0023 280.928 74.6342Z" fill="#040404"/>
<path d="M44.0238 410.797C46.1587 411.165 47.6311 412.27 47.5575 414.626C47.4838 416.761 46.1587 418.012 44.0238 418.012C41.8888 418.086 40.5637 416.687 40.4901 414.626C40.3428 412.417 41.7416 411.165 44.0238 410.797Z" fill="#070707"/>
<path d="M117.495 406.306C115.654 406.159 114.477 405.128 114.477 403.361C114.477 401.521 115.581 400.416 117.421 400.416C119.262 400.416 120.366 401.447 120.44 403.288C120.44 405.128 119.262 406.012 117.495 406.306Z" fill="#090909"/>
<path d="M384.068 292.338C381.565 292.853 379.062 293.368 376.632 293.736C375.896 293.884 374.718 294.473 374.424 293.368C374.056 292.117 375.381 292.264 376.117 292.043C378.546 291.38 381.049 290.865 383.479 290.276C385.319 290.571 388.19 288.362 388.558 290.203C389 292.19 385.393 291.16 384.068 292.338Z" fill="#1B1A13"/>
<path d="M94.6735 270.84C96.5876 270.472 98.5017 270.177 100.416 269.809C101.078 269.662 101.667 269.662 101.888 270.398C102.109 271.208 101.446 271.429 100.857 271.576C99.017 272.091 97.1029 272.607 95.2625 273.048C93.1275 273.416 90.9926 273.785 88.8577 274.226C88.1951 274.374 87.6062 274.374 87.3853 273.637C87.1644 272.827 87.827 272.607 88.416 272.459C90.4037 271.87 92.5386 271.355 94.6735 270.84Z" fill="#1A1913"/>
<path d="M335.038 195.671C334.155 197.069 333.271 198.542 332.314 199.941C332.093 200.235 331.431 200.603 331.136 200.53C330.4 200.309 330.4 199.646 330.768 199.057C331.872 196.996 332.977 195.008 334.155 193.02C335.038 191.621 335.921 190.149 336.805 188.75C337.099 188.235 337.541 187.646 338.204 188.087C338.793 188.455 338.645 189.118 338.351 189.707C337.173 191.695 336.069 193.683 335.038 195.671Z" fill="#191812"/>
<path d="M339.161 202.738C337.32 203.548 334.965 206.64 334.376 205.683C333.124 203.401 336.731 202.886 337.836 201.192C337.909 201.119 337.909 200.971 337.909 200.824C339.161 199.941 340.412 198.984 341.664 198.1C342.326 197.658 343.063 196.554 343.799 197.437C344.682 198.542 343.357 199.057 342.694 199.646C341.517 200.677 340.339 201.708 339.161 202.738Z" fill="#191711"/>
<path d="M230.868 304.633C215.113 292.485 199.359 280.337 183.605 268.189C182.28 267.158 180.881 266.201 179.482 265.171C178.746 265.171 178.01 265.023 177.347 264.582C175.875 263.33 174.255 262.152 172.783 260.901C171.163 259.502 170.501 257.661 171.458 255.6C172.341 253.759 174.182 253.759 175.948 253.906C177.2 254.054 178.378 254.348 179.629 254.643C178.157 253.391 176.685 252.434 175.359 251.109C173.372 249.121 172.267 246.838 173.74 244.188C175.286 241.39 177.789 242.053 180.513 243.01C179.629 242.053 178.893 241.317 178.451 240.433C177.421 238.519 176.979 236.458 178.304 234.543C179.703 232.482 181.838 232.629 183.973 233.218C188.316 234.396 192.292 236.09 195.163 239.697C200.022 243.967 205.322 247.722 210.402 251.698C205.396 247.648 200.242 243.82 195.236 239.844C193.985 238.004 192.144 236.752 190.967 234.838C189.126 231.746 188.758 228.58 190.304 227.034C191.85 225.414 194.721 225.709 198.034 228.065C203.997 232.335 209.813 236.826 215.113 241.906C217.322 244.041 219.678 245.881 222.475 248.237C221.96 244.262 221.076 240.875 220.561 237.488C220.267 235.427 220.046 233.365 220.267 231.304C220.561 227.77 222.843 226.739 225.862 228.727C227.187 229.611 228.144 230.936 229.027 232.261C232.561 237.415 235.064 243.157 237.788 248.753C238.23 249.636 238.303 250.667 239.481 250.961C240.438 250.004 241.027 248.826 241.174 247.501C241.837 243.305 244.193 239.771 245.812 235.942C248.168 230.421 251.039 225.12 253.763 219.819C254.867 217.757 256.192 215.843 257.959 214.297C259.064 213.266 260.462 212.604 262.008 213.193C263.628 213.855 263.849 215.328 263.922 216.874C264.07 219.966 263.922 222.985 263.26 226.003C262.745 228.285 262.156 230.494 262.008 233.439C266.573 230.347 269.812 226.445 273.787 223.279C278.057 219.819 282.18 216.064 286.818 213.119C289.026 211.72 291.382 210.321 293.959 212.015C295.578 213.046 295.21 217.168 293.517 219.892C293.075 220.629 292.486 221.291 291.75 222.396C294.548 220.85 296.977 219.451 299.701 218.714C301.762 218.125 303.824 217.463 305.443 219.377C307.21 221.439 306.768 223.721 305.664 225.93C305.37 226.592 304.854 227.108 304.413 227.917C305.37 228.138 306.253 227.623 307.136 227.623C310.891 227.623 312.731 230.568 310.891 233.881C309.492 236.384 307.284 238.151 304.928 239.918C306.768 239.844 308.462 239.034 310.302 239.403C313.32 239.918 314.351 242.2 312.805 244.777C312.069 245.955 311.112 246.912 310.008 247.722C298.744 256.336 287.628 265.171 276.29 273.785C270.548 274.815 264.879 276.361 258.916 275.11C257.15 274.742 255.383 274.963 253.616 275.993C244.266 281.883 237.199 289.687 232.708 299.921C232.119 301.32 233.003 303.602 230.868 304.633Z" fill="#FEFDFA"/>
<path d="M276.217 272.901C284.536 265.686 293.443 259.207 302.13 252.434C305.149 250.078 308.167 247.796 311.038 245.366C312.216 244.409 313.615 243.084 312.584 241.317C311.627 239.623 309.86 239.918 308.241 240.139C306.474 240.36 304.707 240.875 302.351 241.39C303.824 238.961 306.179 238.004 307.652 236.31C309.345 234.396 311.995 232.777 310.302 229.832C308.609 226.887 306.032 228.654 303.75 229.316C303.382 229.39 303.087 229.464 302.498 229.611C302.572 227.697 304.265 226.96 304.928 225.635C305.885 223.795 306.474 221.88 305.149 220.113C303.824 218.199 301.983 219.009 300.143 219.451C296.462 220.408 293.37 222.69 289.689 224.752C289.91 222.764 291.088 221.807 291.824 220.629C292.265 219.892 292.928 219.304 293.296 218.567C294.253 216.653 294.842 214.224 293.37 212.677C291.824 211.058 289.689 212.309 287.996 213.414C280.928 217.905 274.818 223.574 268.56 229.095C266.204 231.157 263.849 233.292 261.051 235.795C260.536 231.304 262.082 227.697 262.671 224.015C263.113 221.439 263.186 218.862 263.039 216.359C262.892 213.635 261.346 212.972 259.137 214.665C256.855 216.359 255.309 218.788 254.057 221.365C249.714 230.126 245.37 238.961 241.101 247.722C241.542 232.482 240.806 217.021 250.229 203.622C250.892 201.487 254.057 197.879 256.929 196.186C257.886 196.407 258.548 195.67 259.211 195.155C286.891 175.277 323.259 189.633 329.737 223.058C331.21 230.789 329.59 238.446 328.486 246.029C327.013 256.336 325.541 266.643 324.069 276.877C323.774 277.098 323.553 277.466 323.112 277.392C317.885 276.361 312.879 277.392 308.093 279.454C306.989 279.895 305.958 279.674 304.928 279.306C296.535 275.993 287.848 274.3 278.867 274.079C277.91 273.785 276.879 273.932 276.217 272.901Z" fill="#FE0E11"/>
<path d="M195.384 239.918C191.703 237.488 188.096 235.059 183.679 234.028C181.985 233.66 180.218 233.145 178.967 234.912C177.789 236.605 178.231 238.519 179.261 240.065C180.218 241.538 181.47 242.863 182.721 244.409C181.175 244.851 180.218 243.82 179.188 243.525C177.274 242.937 175.433 242.495 174.329 244.556C173.298 246.397 173.74 248.385 175.433 249.857C177.495 251.698 179.556 253.538 182.501 256.189C179.85 255.673 178.157 255.232 176.538 255.011C174.918 254.79 172.857 254.127 171.973 256.115C171.09 258.103 172.415 259.649 173.887 260.827C175.36 261.931 176.906 262.888 177.936 264.508C177.2 266.128 176.022 265.612 175.286 264.729C171.973 260.606 167.482 261.269 163.139 261.71C162.108 261.784 161.004 262.299 160.047 261.416C158.059 251.624 154.378 242.127 154.231 232.04C153.937 205.168 178.672 185.142 205.028 190.738C205.396 190.811 205.764 190.811 206.132 190.811C206.574 190.517 206.942 190.591 207.236 191.032C212.095 192.652 216.66 194.934 221.003 197.585C221.592 197.658 222.034 197.879 222.107 198.615C232.34 207.156 237.714 217.905 238.303 231.378C238.598 237.93 238.303 244.63 239.481 251.109C238.083 253.759 237.862 251.33 237.494 250.593C235.432 246.397 233.518 242.2 231.383 238.004C229.837 234.985 228.144 231.967 225.494 229.684C224.61 228.874 223.506 228.065 222.181 228.801C221.003 229.463 221.15 230.641 221.077 231.746C220.929 237.562 222.696 243.084 223.58 248.753C223.653 249.194 223.727 249.636 223.874 251.035C220.856 248.385 218.279 246.397 215.923 244.188C210.181 238.814 204.144 233.807 197.813 229.243C195.826 227.77 193.249 225.488 190.967 227.697C188.758 229.905 190.525 232.629 191.997 234.985C193.249 236.458 195.016 237.783 195.384 239.918Z" fill="#FE0E11"/>
<path d="M193.837 165.853C195.015 164.822 194.205 163.939 193.616 162.982C192.144 160.552 191.187 157.828 191.039 155.031C190.892 152.306 190.671 149.656 188.168 147.815C187.579 147.447 187.432 146.932 187.8 146.269C188.021 145.828 188.095 145.312 188.242 144.871C189.862 141.337 186.77 136.698 188.463 134.563C190.598 131.913 194.5 130.661 195.162 126.465C196.414 126.538 196.855 127.496 197.518 128.084C201.935 132.06 206.794 134.858 212.978 134.784C213.493 134.784 214.229 134.416 214.597 135.152C215.554 136.772 215.481 136.625 217.469 136.183C219.677 135.668 221.959 135.226 223.873 137.067C225.272 138.465 227.113 138.907 228.953 138.686C230.867 138.465 230.867 139.275 230.573 140.821C229.395 147.447 230.499 149.656 236.462 152.38C237.714 152.969 238.303 153.926 238.892 154.957C241.836 159.522 245.738 162.246 251.48 161.436C251.112 168.209 249.051 174.393 245.37 179.989C238.155 191.179 225.346 193.094 212.757 188.971C211.579 188.603 210.475 188.087 209.37 187.646C208.708 187.719 208.119 187.572 207.972 186.836C200.536 181.608 195.751 174.688 193.837 165.853Z" fill="#FEFDFA"/>
<path d="M254.646 342.328C250.303 343.432 249.493 345.052 251.554 349.101C253.984 354.107 257.812 358.083 261.713 362.721C254.352 364.194 247.431 366.402 240.438 368.022C238.229 368.537 235.505 366.991 233.002 366.55C228.291 365.74 223.579 365.004 218.868 364.341C217.542 364.12 216.144 364.267 217.616 362.427C219.604 358.598 222.475 355.506 225.567 352.561C226.966 351.162 227.849 349.395 228.512 347.555C229.763 343.947 227.923 341.812 224.094 342.475C220.193 343.137 217.616 345.567 215.702 348.954C213.641 352.708 212.757 356.831 211.874 361.028C210.696 356.022 209.371 351.089 206.573 346.745C216.07 340.193 224.904 332.83 233.297 324.953C234.99 323.407 235.653 323.333 237.051 325.394C241.542 332.389 248.168 337.321 254.646 342.328Z" fill="#FEDB4D"/>
<path d="M276.216 272.901C286.008 272.827 295.431 274.521 304.559 277.981C305.958 278.496 307.136 278.865 308.682 278.128C313.614 275.846 318.768 275.331 324.068 276.582C325.835 277.687 328.191 277.981 329.295 280.043C328.485 280.779 327.97 280.705 327.381 280.337C321.271 276.509 314.94 277.318 308.756 280.043C307.283 280.705 306.105 280.558 304.707 280.043C291.897 274.963 278.793 273.196 265.174 276.582C265.174 278.349 267.971 278.644 267.382 281.073C264.658 280.263 263.407 277.171 260.683 276.582C258.548 275.846 256.413 275.846 254.278 276.656C253.321 276.95 252.438 277.318 251.922 278.57C254.499 279.674 257.002 280.926 258.916 282.987C259.431 283.576 260.536 284.165 259.505 285.049C258.695 285.785 258.253 284.754 257.738 284.313C256.339 283.282 255.088 282.104 253.615 281.294C250.082 279.38 247.063 280.337 244.855 283.65C243.898 285.049 245.002 285.343 245.738 285.859C247.947 287.405 250.155 288.951 252.29 290.497C252.364 290.571 252.29 290.939 252.29 291.528C249.198 291.086 247.137 288.877 244.855 287.331C242.867 285.932 241.984 286.669 240.659 288.141C239.186 289.834 239.26 290.865 240.953 292.338C242.131 293.368 243.898 294.105 244.045 296.534C241.984 296.166 241.027 294.694 239.922 293.589C238.597 292.338 237.861 291.896 236.683 293.81C234.033 298.007 234.107 298.301 238.229 301.246C240.291 302.718 243.014 302.866 245.223 305.516C240.143 305.369 237.125 302.35 233.665 300.289C231.162 304.559 234.254 306.62 236.536 309.124C237.272 309.86 239.481 310.302 238.229 311.7C237.272 312.805 236.242 310.964 235.284 310.375C234.696 310.007 234.254 309.418 233.591 308.829C233.444 312.069 234.327 315.087 235.653 317.811C236.978 320.535 239.554 322.302 241.248 324.879C239.702 325.836 239.113 324.805 238.45 324.216C233.738 320.093 231.972 314.572 231.162 308.608C231.015 307.283 230.867 305.958 230.646 304.633C233.518 290.644 242.72 281.662 254.131 274.374C255.309 273.637 256.781 273.343 258.033 273.785C264.364 275.772 270.253 273.49 276.216 272.901Z" fill="#060503"/>
<path d="M257.002 195.818C255.088 198.615 252.659 200.898 250.303 203.254C246.696 205.683 243.088 208.334 238.892 209.88C237.788 210.321 236.168 211.868 235.506 210.248C234.843 208.849 237.052 208.775 238.009 208.334C241.69 206.64 245.223 204.8 248.389 202.076C243.898 198.615 240.438 194.566 238.819 189.339C241.395 190.296 241.911 192.873 243.457 194.64C250.45 202.812 250.009 201.634 255.677 194.345C256.045 193.83 256.413 193.315 256.634 192.799C262.45 181.388 261.64 182.271 252.438 177.78C251.775 177.486 250.377 177.338 250.818 176.234C251.334 174.909 252.512 175.792 253.321 176.16C255.751 177.338 258.107 178.59 260.757 179.989C261.567 178.295 261.199 176.381 261.199 174.541C261.199 173.657 260.536 172.258 261.935 172.185C263.113 172.185 262.965 173.584 263.039 174.541C263.481 182.418 261.199 189.412 257.002 195.818Z" fill="#0D0B04"/>
<path d="M160.046 261.195C162.991 260.606 165.936 259.943 169.028 260.385C171.752 260.753 174.328 261.342 175.727 263.993C176.39 265.318 177.126 265.023 178.009 264.361C178.525 264.655 178.966 264.876 179.482 265.171C178.966 266.79 177.126 266.717 176.022 267.674C174.844 268.705 173.96 268.263 174.108 266.569C174.476 263.772 172.562 262.962 170.427 262.447C164.169 261.121 158.869 263.109 153.936 266.864C153.274 267.379 152.464 268.778 151.58 267.674C150.77 266.643 152.169 266.054 152.832 265.465C154.893 263.551 157.617 262.594 160.046 261.195Z" fill="#100E08"/>
<path d="M193.543 185.069C194.647 183.302 195.677 181.535 196.782 179.842C197.15 179.326 197.665 178.958 198.328 179.4C199.064 179.915 198.475 180.43 198.181 180.946C197.297 182.566 196.487 184.185 195.53 185.731C194.941 186.688 195.236 188.603 193.69 188.529C192.365 188.455 192.07 186.836 191.481 185.805C189.862 182.713 188.242 179.473 186.696 176.308C186.402 175.719 186.033 174.909 186.843 174.393C187.064 174.246 187.727 174.393 187.8 174.614C189.199 178.075 190.377 175.35 191.628 174.541C192.438 174.025 193.174 172.258 194.205 173.289C195.236 174.393 193.543 175.056 192.88 175.792C189.346 179.4 189.273 179.621 193.543 185.069Z" fill="#110F05"/>
<path d="M167.703 277.392C167.188 277.687 166.599 277.907 166.083 278.202C162.918 280.263 159.752 282.398 156.513 284.46C155.924 284.828 155.188 285.417 154.525 284.681C153.789 283.871 154.746 283.356 155.261 282.987C158.501 280.779 161.813 278.717 165.126 276.509C165.936 275.993 166.599 275.772 167.703 277.392Z" fill="#1D1909"/>
<path d="M269.738 352.856C269.149 355.727 268.486 358.525 267.75 362.059C266.498 357.568 265.909 353.518 264.143 349.764C266.572 349.837 267.676 352.12 269.738 352.856Z" fill="#C4DAEA"/>
<path d="M341.736 253.465C341.516 253.685 341.368 254.054 341.074 254.201C340.485 254.569 340.117 253.98 339.896 253.612C337.908 250.741 335.994 247.796 334.007 244.851C333.638 244.262 333.565 243.673 334.154 243.231C334.375 243.084 335.184 243.305 335.405 243.599C337.467 246.618 339.528 249.636 341.516 252.655C341.663 252.876 341.663 253.17 341.736 253.465Z" fill="#201B0A"/>
<path d="M329.369 351.604C329.148 351.972 329.075 352.414 328.854 352.561C328.412 352.856 327.897 352.708 327.602 352.267C325.541 349.248 323.48 346.156 321.492 343.138C321.198 342.696 321.271 342.107 321.713 341.812C321.934 341.665 322.523 341.739 322.67 341.886C324.879 345.125 327.087 348.365 329.369 351.604Z" fill="#1D1909"/>
<path d="M127.581 217.095C126.845 215.843 126.109 214.592 125.373 213.414C125.005 212.825 124.416 212.088 125.299 211.573C126.109 211.058 126.551 211.941 126.992 212.457C127.655 213.34 128.318 214.15 128.906 215.033C130.011 216.8 131.115 218.567 132.219 220.334C132.587 220.923 133.25 221.733 132.514 222.248C131.483 222.985 131.041 221.88 130.6 221.291C129.569 219.819 128.538 218.42 127.581 217.095Z" fill="#1D1B12"/>
<path d="M285.861 365.004C282.253 364.046 278.72 363.016 275.112 361.985C275.554 360.66 276.585 359.776 277.615 358.893C280.486 360.733 283.284 362.648 285.861 365.004Z" fill="#C2D6E2"/>
<path d="M332.534 346.671C331.872 346.598 327.675 340.634 327.749 339.898C327.823 339.088 328.559 338.72 329.001 339.309C330.546 341.297 332.019 343.432 333.418 345.567C333.933 346.23 333.27 346.598 332.534 346.671Z" fill="#1F1A09"/>
<path d="M131.63 210.69C131.336 210.027 131.189 209.291 131.63 208.628C134.428 209.806 135.164 212.825 136.931 214.886C137.225 215.254 137.299 215.843 136.784 216.138C136.121 216.506 135.606 216.138 135.238 215.622C134.06 214.076 132.882 212.383 131.63 210.69Z" fill="#1E1A0B"/>
<path d="M165.126 342.254C164.979 342.917 159.016 346.892 158.206 346.745C157.691 346.671 157.322 346.377 157.396 345.788C157.47 345.199 163.58 341.223 164.316 341.297C164.979 341.371 165.126 341.739 165.126 342.254Z" fill="#1F1B09"/>
<path d="M260.978 169.019C260.683 170.197 260.021 169.976 259.285 169.608C258.18 169.019 257.076 168.577 256.045 167.915C255.088 167.399 252.953 167.546 253.69 165.927C254.279 164.602 255.898 165.927 256.929 166.295C258.401 166.957 260.168 167.326 260.978 169.019Z" fill="#201B09"/>
<path d="M222.107 198.321C221.739 197.953 221.371 197.658 221.003 197.29C221.003 197.143 221.003 197.069 221.077 196.922C221.445 195.523 220.488 193.977 221.739 192.799C222.181 192.431 222.843 192.726 222.917 193.241C223.138 195.008 223.948 196.848 222.107 198.321Z" fill="#362F12"/>
<path d="M254.352 276.582C256.486 274.742 258.621 274.963 260.756 276.509C258.621 276.582 256.486 276.582 254.352 276.582Z" fill="#E287BE"/>
<path d="M207.972 186.762C208.414 187.057 208.93 187.351 209.371 187.572C208.635 188.603 207.972 189.707 207.236 190.738C206.868 190.664 206.5 190.59 206.132 190.517C205.911 188.897 207.015 187.866 207.972 186.762Z" fill="#292111"/>
<path d="M216.66 361.322C215.85 361.985 215.04 362.721 213.715 363.899C214.23 357.347 215.334 351.678 219.383 346.892C219.604 346.598 219.899 346.377 220.193 346.156C222.107 344.684 224.61 343.137 226.525 344.61C228.439 346.156 226.156 348.291 225.42 350.058C225.273 350.426 225.126 350.721 224.979 351.015C222.991 355.285 220.488 358.819 216.66 361.322Z" fill="#FEDB4D"/>
<path d="M265.468 360.292C265.394 361.102 265.91 361.985 264.879 362.279C264.216 362.5 263.701 362.132 263.259 361.691C259.431 357.42 255.529 353.224 253.026 347.997C252.585 347.113 251.775 345.935 252.658 344.978C253.615 343.947 254.94 344.315 256.118 344.684C258.474 345.346 260.167 346.819 261.492 348.806C263.775 352.267 264.805 356.316 265.468 360.292Z" fill="#FEDB4D"/>
<path d="M271.357 354.549C272.609 350.353 274.523 346.598 278.94 344.831C280.265 344.315 281.958 343.8 283.063 344.978C284.241 346.156 283.063 347.555 282.474 348.659C280.707 352.046 278.572 355.138 275.848 357.789C273.86 357.42 272.314 356.39 271.357 354.549Z" fill="#FAD84C"/>
<path d="M204.806 348.07C208.561 352.561 209.297 358.009 209.518 363.678C205.543 360.071 201.862 356.316 199.138 351.751C200.389 349.543 202.156 348.144 204.806 348.07Z" fill="#FEDB4D"/>
<path d="M204.806 348.07C202.892 349.322 200.978 350.5 199.138 351.751C198.622 351.089 197.96 350.5 197.665 349.764C196.929 348.144 194.794 346.23 196.635 344.684C198.254 343.285 200.61 344.463 202.377 345.567C203.407 346.156 204.438 346.819 204.806 348.07Z" fill="#F8D74D"/>
<path d="M271.357 354.549C273.051 355.359 274.523 356.463 275.848 357.789C274.228 359.555 273.124 363.237 270.4 361.911C268.633 361.028 270.695 357.789 270.989 355.653C271.063 355.212 271.21 354.844 271.357 354.549Z" fill="#FEDB4D"/>
<path d="M216.659 361.322C219.383 357.936 222.107 354.475 224.831 351.089C224.904 351.678 224.978 352.267 225.567 352.561C223.432 356.316 220.708 359.482 217.616 362.427C217.322 362.059 216.954 361.691 216.659 361.322Z" fill="#171A1D"/>
<path d="M102.108 294.178C111.605 282.546 124.047 276.214 138.476 273.122C140.611 272.68 141.273 273.269 141.053 275.478C139.433 293.884 131.629 308.682 116.17 319.063C113.372 316.118 112.047 312.069 109.102 309.271C108.808 307.43 110.28 306.694 111.237 305.737C119.114 297.565 126.623 289.025 134.427 280.852C135.163 280.116 135.826 279.233 136.415 278.202C128.39 287.331 119.998 295.871 112.047 304.78C111.09 305.884 110.28 307.578 108.219 307.062C105.863 302.939 103.36 298.89 102.108 294.178Z" fill="#FEDB4D"/>
<path d="M84.072 381.569C85.3235 383.483 84.2193 383.704 82.6733 383.409C76.8574 382.305 71.4096 380.023 66.6981 376.415C56.8332 368.832 51.8271 358.525 49.9867 346.451C49.3977 342.843 51.9744 344.389 53.1523 344.684C70.3054 348.218 81.2745 358.598 86.3542 375.311C87.0904 377.667 87.6793 380.023 87.6793 382.526C86.0597 382.747 85.6916 381.348 84.8818 380.612C79.8758 376.857 76.0476 371.924 71.8514 368.169C74.9433 371.262 78.477 374.795 82.0107 378.329C82.8941 379.213 83.9984 380.096 84.072 381.569Z" fill="#D0F4DE"/>
<path d="M54.1097 289.982C52.8582 284.313 50.5761 279.085 47.7786 274.079C46.4534 271.723 47.6313 265.539 49.619 263.993C50.9442 262.962 52.1221 263.625 53.2999 264.434C56.3183 266.496 58.3796 269.367 60.2201 272.386C65.447 280.558 70.1586 288.877 72.3671 298.448C66.9194 294.325 60.7354 291.822 54.1097 289.982Z" fill="#D0F4DE"/>
<path d="M102.109 294.178C104.391 298.375 106.673 302.498 108.955 306.694C108.366 310.081 105.422 311.774 103.508 314.13C100.563 317.664 97.1029 320.756 94.1581 324.364C93.2011 325.542 91.9496 327.456 90.4036 326.646C89.0048 325.91 89.741 323.848 90.1091 322.376C91.8023 312.658 94.6735 303.455 100.931 295.503C101.226 295.062 101.667 294.62 102.109 294.178Z" fill="#D0F4DE"/>
<path d="M109.765 308.829C112.783 311.7 114.697 315.234 116.17 319.063C109.25 324.143 101.299 326.867 93.0534 329.002C92.0228 329.444 90.9921 329.591 89.667 328.56C96.2927 322.597 101.593 315.529 108.072 309.492C108.587 309.124 109.102 308.829 109.765 308.829Z" fill="#D0F4DE"/>
<path d="M109.765 308.829C103.508 315.529 97.2503 322.155 90.9927 328.855C91.5817 328.928 92.3179 329.002 93.054 329.075C90.551 330.548 89.1523 329.959 89.3731 326.867C89.4467 325.394 88.7842 323.701 90.0357 322.376C90.0357 323.701 90.0357 325.026 90.0357 327.309C96.6614 320.093 102.772 313.394 108.882 306.694C117.201 297.712 125.52 288.73 133.839 279.822C134.428 279.159 134.943 278.496 135.606 277.981C136.489 277.318 137.004 275.257 138.329 276.509C139.36 277.466 137.667 278.349 137.004 279.085C131.557 285.049 126.035 290.939 120.587 296.902C116.98 300.878 113.373 304.853 109.765 308.829Z" fill="#0D0C07"/>
<path d="M54.183 309.418C51.68 310.596 50.9438 308.461 50.0604 307.062C47.4837 303.087 46.6739 298.448 46.1586 293.81C45.496 287.92 45.1279 281.957 46.2322 275.404C48.9561 279.674 50.5757 283.871 51.7536 288.288C51.9745 289.025 51.1647 289.245 50.6493 289.466C47.8518 289.172 48.9561 291.233 49.0297 292.338C49.7659 298.375 51.7536 303.97 54.183 309.418Z" fill="#D0F4DE"/>
<path d="M84.0728 381.569C78.8459 376.636 73.6926 371.556 69.6436 365.519C75.0913 370.157 80.3918 374.869 84.809 380.538C84.5881 380.906 84.3672 381.274 84.0728 381.569Z" fill="#111111"/>
<path d="M202.745 259.428C202.451 260.459 201.862 260.606 201.126 260.017C195.825 255.968 190.525 251.845 185.224 247.722C184.856 247.427 184.709 246.912 185.003 246.397C185.371 245.808 185.887 245.955 186.255 246.249C191.555 250.299 196.856 254.422 202.156 258.545C202.377 258.765 202.525 259.207 202.745 259.428Z" fill="#180C18"/>
<path d="M301.467 242.789C300.952 243.231 300.584 243.673 300.142 244.041C295.357 247.796 290.498 251.477 285.713 255.232C285.051 255.747 284.314 256.63 283.578 255.452C283.063 254.643 283.946 254.201 284.535 253.759C289.468 249.931 294.326 246.176 299.259 242.348C299.774 241.979 300.216 241.538 300.878 241.832C301.099 241.979 301.247 242.421 301.467 242.789Z" fill="#170C17"/>
<path d="M300.363 232.629C299.774 232.924 299.112 233.145 298.67 233.513C293.811 237.194 289.026 240.949 284.167 244.63C283.578 245.072 282.842 246.176 282.032 245.072C281.223 244.041 282.474 243.599 283.063 243.157C287.848 239.403 292.707 235.648 297.492 231.967C297.934 231.599 298.523 231.451 299.112 231.304C299.333 231.378 299.554 231.819 300.363 232.629Z" fill="#160B16"/>
<path d="M201.2 269.809C200.684 271.281 199.948 270.913 199.212 270.324C194.206 266.422 189.126 262.594 184.12 258.692C183.605 258.25 182.721 257.808 183.31 256.998C183.899 256.262 184.636 256.778 185.224 257.219C187.948 259.281 190.599 261.416 193.323 263.477C195.457 265.097 197.592 266.717 199.654 268.41C200.243 268.852 200.758 269.367 201.2 269.809Z" fill="#170C17"/>
<path d="M195.383 239.992C195.825 239.992 196.487 239.844 196.782 240.065C202.23 244.188 207.604 248.385 212.978 252.581C213.199 252.728 213.199 253.244 213.272 253.538C212.683 254.201 212.094 254.054 211.653 253.685C206.499 249.783 201.42 245.808 196.267 241.832C195.604 241.317 195.309 240.728 195.383 239.992C195.383 239.918 195.383 239.992 195.383 239.992Z" fill="#150B15"/>
<path d="M288.363 224.604C289.173 225.782 289.026 226.298 288.658 226.592C283.431 230.641 278.204 234.691 273.051 238.74C272.535 239.108 271.947 239.476 271.431 238.887C270.916 238.298 271.431 237.709 271.873 237.341C277.321 233.145 282.842 228.875 288.363 224.604Z" fill="#130A14"/>
<path d="M215.923 153.705C216.512 154.442 216.585 155.104 215.554 155.399C212.904 156.135 209.96 157.975 207.604 157.018C206.426 156.503 207.898 152.822 208.561 150.613C209.076 148.92 207.825 146.269 210.917 145.828C211.358 147.595 211.432 149.362 211.064 151.129C210.622 152.969 210.99 154 213.125 153.264C214.156 152.969 215.039 153.19 215.923 153.705Z" fill="#130814"/>
<path d="M212.758 162.835C216.144 161.73 218.942 160.773 221.666 159.816C223.727 159.153 223.948 160.037 223.432 161.804C222.917 163.718 222.034 165.264 220.046 165.706C217.322 166.221 215.114 165.117 212.758 162.835Z" fill="#0C060C"/>
<path d="M220.561 176.823C219.752 176.749 219.163 176.823 218.574 176.676C217.764 176.528 216.586 176.602 216.733 175.424C216.881 174.025 217.985 174.762 218.721 174.909C223.359 175.645 226.672 173.289 229.617 170.197C230.132 169.682 230.426 168.283 231.457 169.093C232.414 169.829 231.531 170.712 231.015 171.301C228.218 174.541 224.831 176.676 220.561 176.823Z" fill="#150B15"/>
<path d="M215.923 153.705C213.935 154.147 211.947 154.515 209.665 155.031C210.107 151.865 210.548 148.846 210.99 145.828C211.947 148.846 214.009 151.202 215.923 153.705Z" fill="#FEFDFA"/>
<path d="M224.684 152.233C223.212 152.159 222.255 151.349 222.034 150.098C221.813 148.552 222.844 147.521 224.242 147.3C225.641 147.079 226.598 148.11 226.819 149.362C227.187 150.981 226.009 151.718 224.684 152.233Z" fill="#FBD0B8"/>
<path d="M198.77 144.871C200.316 145.018 201.273 145.901 201.125 147.447C201.052 148.773 200.021 149.656 198.696 149.582C197.297 149.582 196.34 148.699 196.34 147.3C196.267 145.901 197.15 144.944 198.77 144.871Z" fill="#1A0D1A"/>
<path d="M201.936 155.031C201.568 156.429 200.758 157.386 199.212 157.386C197.739 157.386 196.93 156.577 196.93 155.104C196.93 153.558 197.96 152.969 199.359 152.969C200.684 153.043 201.788 153.411 201.936 155.031Z" fill="#FBD0B8"/>
<path d="M222.77 141.116C222.843 142.809 222.034 143.766 220.708 143.913C219.162 143.987 218.132 143.177 218.132 141.484C218.132 140.085 219.015 139.202 220.414 139.128C221.813 139.128 222.623 139.938 222.77 141.116Z" fill="#0F080F"/>
<path d="M198.549 138.465C199.138 138.465 199.874 138.392 200.022 139.202C200.169 140.011 199.506 140.306 198.991 140.38C197.224 140.748 195.899 141.778 194.868 143.177C194.427 143.766 193.985 144.576 193.175 143.766C192.586 143.251 193.028 142.588 193.322 142.147C194.574 140.159 196.267 138.907 198.549 138.465Z" fill="#261326"/>
<path d="M221.15 162.025C220.487 164.381 219.015 164.528 217.027 163.792C218.132 162.098 219.898 162.761 221.15 162.025Z" fill="#FEFDFA"/>
<g clip-path="url(#clip1)">
<path d="M49.6288 97.8163C49.0269 97.3186 47.4238 96.5247 46.9193 95.3266C46.4147 94.1285 46.6071 92.1278 47.3037 91.2251C48.1002 90.3221 49.8998 90.2152 51.2991 90.0099C51.699 90.0084 52.3025 90.9061 52.8044 91.4042C52.2055 91.7065 51.6067 92.0087 51.0074 92.211C50.4086 92.5133 49.6094 92.7164 49.1113 93.2183C49.0116 93.3186 49.5147 94.1167 49.7166 94.616C50.4154 94.3133 51.0139 93.911 51.6128 93.6087C52.2116 93.3064 52.8105 93.0042 53.3097 92.8023C53.512 93.4015 54.0147 94.0996 53.9169 94.7C53.6242 96.6011 52.4284 97.7056 49.6288 97.8163Z" fill="black"/>
<path d="M27.5956 115.2C26.8918 114.203 25.9895 113.607 26.0876 113.106C26.2849 112.405 27.0811 111.402 27.5815 111.5C28.2815 111.498 28.8853 112.496 29.4872 112.993C28.9895 113.595 28.3918 114.197 27.5956 115.2Z" fill="black"/>
</g>
</g>
<g clip-path="url(#clip2)">
<path d="M384.034 302.803C384.978 302.613 385.023 304.966 385.001 305.457C384.978 305.97 385.788 305.97 385.799 305.457C385.833 304.308 385.563 301.677 383.809 302.033C383.326 302.134 383.54 302.903 384.034 302.803Z" fill="#020A13"/>
<path d="M390.746 303.751C392.039 303.706 393.32 303.539 394.579 303.271C395.085 303.16 394.871 302.402 394.366 302.502C393.174 302.758 391.96 302.903 390.746 302.948C390.24 302.981 390.229 303.773 390.746 303.751Z" fill="#020A13"/>
<path d="M399.738 303.115C400.829 303.327 401.739 303.862 402.459 304.699C402.796 305.089 403.358 304.52 403.021 304.141C402.223 303.204 401.155 302.58 399.952 302.346C399.446 302.245 399.232 303.015 399.738 303.115Z" fill="#020A13"/>
<path d="M407.833 305.056C408.035 304.052 408.799 303.294 409.811 303.104C410.317 303.004 410.103 302.234 409.597 302.335C408.327 302.58 407.315 303.595 407.057 304.844C406.956 305.346 407.731 305.557 407.833 305.056Z" fill="#020A13"/>
<path d="M416.106 303.439C417.657 303.048 419.22 302.937 420.816 303.104C421.333 303.16 421.322 302.357 420.816 302.312C419.164 302.145 417.511 302.268 415.893 302.68C415.398 302.792 415.6 303.561 416.106 303.439Z" fill="#020A13"/>
<path d="M425.279 303.015C425.718 304.387 424.279 305.212 423.267 305.758C422.818 306.003 423.222 306.695 423.672 306.45C425.021 305.725 426.617 304.554 426.055 302.814C425.898 302.323 425.122 302.524 425.279 303.015Z" fill="#020A13"/>
<path d="M428.213 306.282C427.887 307.297 427.392 308.211 426.696 309.025C426.358 309.416 426.932 309.973 427.258 309.583C428.044 308.669 428.618 307.643 428.989 306.494C429.135 306.015 428.359 305.803 428.213 306.282Z" fill="#020A13"/>
<path d="M426.235 315.192C426.909 315.505 427.494 315.951 427.943 316.53C428.258 316.932 428.944 316.53 428.64 316.129C428.101 315.438 427.449 314.88 426.639 314.501C426.178 314.289 425.762 314.98 426.235 315.192Z" fill="#020A13"/>
<path d="M427.977 320.612C427.718 321.66 427.178 322.564 426.38 323.311C426.009 323.668 426.571 324.225 426.942 323.868C427.83 323.032 428.449 321.995 428.741 320.813C428.876 320.322 428.1 320.11 427.977 320.612Z" fill="#020A13"/>
<path d="M426.066 328.206C426.583 329.031 426.931 329.923 427.1 330.882C427.19 331.384 427.965 331.172 427.875 330.671C427.695 329.645 427.313 328.686 426.762 327.805C426.481 327.37 425.784 327.771 426.066 328.206Z" fill="#020A13"/>
<path d="M428.629 337.072C427.573 336.391 426.505 335.722 425.448 335.042C425.01 334.763 424.605 335.455 425.043 335.733C426.1 336.414 427.168 337.083 428.225 337.763C428.663 338.031 429.068 337.339 428.629 337.072Z" fill="#020A13"/>
<path d="M426.965 339.915C426.302 340.752 425.458 341.398 424.447 341.766C423.963 341.945 424.177 342.714 424.66 342.536C425.796 342.123 426.785 341.432 427.538 340.484C427.842 340.083 427.28 339.514 426.965 339.915Z" fill="#020A13"/>
<path d="M427.191 346.071C427.404 346.517 427.539 346.996 427.573 347.487C427.618 347.989 428.416 348 428.371 347.487C428.326 346.851 428.157 346.249 427.876 345.669C427.663 345.201 426.966 345.614 427.191 346.071Z" fill="#020A13"/>
<path d="M423.58 346.606C422.681 345.301 421.703 344.052 420.669 342.848C420.332 342.458 419.77 343.026 420.107 343.406C421.107 344.554 422.029 345.747 422.895 346.996C423.176 347.431 423.873 347.03 423.58 346.606Z" fill="#020A13"/>
<path d="M418.051 345.536C417.084 345.87 416.095 346.171 415.095 346.428C414.6 346.55 414.802 347.32 415.308 347.197C416.309 346.941 417.287 346.651 418.265 346.305C418.748 346.138 418.535 345.368 418.051 345.536Z" fill="#020A13"/>
<path d="M409.44 345.223C409.575 344.164 409.71 343.105 409.856 342.045C409.923 341.543 409.114 341.543 409.058 342.045C408.923 343.105 408.788 344.164 408.642 345.223C408.574 345.725 409.372 345.725 409.44 345.223Z" fill="#020A13"/>
<path d="M404.303 345.179C404.989 345.937 405.562 346.773 406.023 347.688C406.259 348.145 406.945 347.744 406.72 347.286C406.225 346.316 405.607 345.424 404.876 344.61C404.517 344.231 403.955 344.8 404.303 345.179Z" fill="#020A13"/>
<path d="M400.615 347.22C399.851 347.063 399.255 346.528 399.053 345.781C398.918 345.29 398.153 345.491 398.277 345.993C398.547 346.997 399.368 347.788 400.402 347.989C400.908 348.089 401.121 347.32 400.615 347.22Z" fill="#020A13"/>
<path d="M392.196 347.119C393.747 346.874 395.085 345.97 395.905 344.632C396.175 344.197 395.478 343.796 395.208 344.231C394.489 345.402 393.331 346.138 391.971 346.35C391.476 346.428 391.69 347.197 392.196 347.119Z" fill="#020A13"/>
<path d="M387.137 346.684C387.137 345.892 387.137 345.089 387.137 344.298C387.137 343.785 386.339 343.785 386.339 344.298C386.339 345.089 386.339 345.892 386.339 346.684C386.339 347.197 387.137 347.197 387.137 346.684Z" fill="#020A13"/>
<path d="M382.753 344.733C383.529 343.528 384.383 342.38 385.305 341.287C385.631 340.897 385.069 340.328 384.743 340.729C383.776 341.878 382.877 343.082 382.068 344.342C381.786 344.766 382.483 345.157 382.753 344.733Z" fill="#020A13"/>
<path d="M383.596 336.157C384.372 336.648 385.215 337.016 386.092 337.272C386.586 337.417 386.8 336.648 386.305 336.503C385.485 336.257 384.72 335.923 384.001 335.466C383.562 335.198 383.158 335.889 383.596 336.157Z" fill="#020A13"/>
<path d="M388.947 341.588C389.385 341.9 389.734 342.313 389.992 342.781C390.24 343.227 390.937 342.826 390.689 342.38C390.363 341.789 389.903 341.298 389.352 340.897C389.172 340.774 388.902 340.863 388.801 341.041C388.688 341.242 388.778 341.465 388.947 341.588Z" fill="#020A13"/>
<path d="M384.822 332.031C384.316 331.139 383.934 330.202 383.653 329.21C383.518 328.719 382.742 328.931 382.877 329.422C383.169 330.47 383.585 331.474 384.125 332.433C384.383 332.879 385.069 332.477 384.822 332.031Z" fill="#020A13"/>
<path d="M385.136 325.864C386.024 325.931 386.901 325.887 387.789 325.742C388.295 325.664 388.081 324.894 387.575 324.972C386.766 325.106 385.956 325.128 385.136 325.061C384.619 325.028 384.619 325.82 385.136 325.864Z" fill="#020A13"/>
<path d="M386.418 322.485C385.811 321.638 385.193 320.79 384.585 319.943C384.293 319.53 383.596 319.932 383.889 320.344C384.496 321.192 385.114 322.039 385.721 322.887C386.024 323.311 386.721 322.909 386.418 322.485Z" fill="#020A13"/>
<path d="M383.292 315.527C383.731 314.947 384.282 314.468 384.889 314.077C385.327 313.798 384.922 313.118 384.484 313.386C383.742 313.854 383.124 314.434 382.595 315.114C382.281 315.538 382.978 315.928 383.292 315.527Z" fill="#020A13"/>
<path d="M383.72 309.394C384.439 309.695 385.091 310.107 385.665 310.631C386.047 310.977 386.609 310.419 386.227 310.074C385.597 309.505 384.9 309.048 384.125 308.713C383.664 308.501 383.248 309.193 383.72 309.394Z" fill="#020A13"/>
<path d="M389.925 308.613C390.194 307.922 390.993 307.542 391.701 307.721C392.207 307.843 392.42 307.074 391.914 306.951C390.745 306.661 389.576 307.297 389.149 308.401C388.969 308.881 389.745 309.081 389.925 308.613Z" fill="#020A13"/>
<path d="M398.254 307.609C398.108 308.278 397.838 308.892 397.411 309.427C397.096 309.828 397.658 310.386 397.973 309.985C398.49 309.338 398.85 308.624 399.019 307.821C399.142 307.319 398.367 307.107 398.254 307.609Z" fill="#020A13"/>
<path d="M403.719 310.787C404.933 310.654 406.079 310.274 407.125 309.65C407.563 309.382 407.158 308.691 406.72 308.959C405.798 309.516 404.798 309.873 403.719 309.996C403.213 310.051 403.201 310.843 403.719 310.787Z" fill="#020A13"/>
<path d="M412.532 308C413.51 307.888 414.488 307.788 415.466 307.676C415.972 307.62 415.983 306.829 415.466 306.884C414.488 306.996 413.51 307.096 412.532 307.208C412.026 307.252 412.026 308.055 412.532 308Z" fill="#020A13"/>
<path d="M417.545 308.167C418.006 309.159 418.646 310.04 419.444 310.787C419.815 311.144 420.389 310.576 420.006 310.23C419.253 309.527 418.658 308.702 418.23 307.765C418.017 307.308 417.331 307.71 417.545 308.167Z" fill="#020A13"/>
<path d="M422.952 312.215C422.873 313.174 422.513 314.032 421.94 314.802C421.636 315.215 422.322 315.605 422.637 315.203C423.3 314.322 423.66 313.308 423.761 312.215C423.795 311.702 422.997 311.713 422.952 312.215Z" fill="#020A13"/>
<path d="M424.504 318.181C424.526 318.828 424.302 319.408 423.852 319.865C423.492 320.233 424.054 320.79 424.414 320.422C425.01 319.82 425.336 319.017 425.302 318.17C425.291 317.668 424.481 317.668 424.504 318.181Z" fill="#020A13"/>
<path d="M420.67 324.56C421.513 325.273 422.188 326.143 422.615 327.158C422.817 327.626 423.593 327.414 423.391 326.946C422.907 325.797 422.199 324.805 421.243 324.002C420.85 323.667 420.277 324.225 420.67 324.56Z" fill="#020A13"/>
<path d="M421.749 330.905C421.828 331.641 421.749 332.354 421.513 333.057C421.344 333.536 422.12 333.748 422.289 333.269C422.559 332.511 422.648 331.708 422.559 330.905C422.491 330.403 421.693 330.403 421.749 330.905Z" fill="#020A13"/>
<path d="M419.805 339.034C421.042 339.458 422.425 339.09 423.279 338.12C423.616 337.73 423.054 337.172 422.717 337.562C422.031 338.343 421.008 338.622 420.03 338.276C419.536 338.098 419.322 338.867 419.805 339.034Z" fill="#020A13"/>
<path d="M416.443 339.949C416.342 340.35 415.42 340.573 415.083 340.718C414.555 340.941 414.038 341.175 413.509 341.398C413.037 341.599 413.442 342.29 413.914 342.09C414.656 341.766 415.409 341.443 416.151 341.12C416.623 340.908 417.062 340.707 417.208 340.172C417.343 339.659 416.578 339.447 416.443 339.949Z" fill="#020A13"/>
<path d="M417.905 335.399C418.029 334.696 418.062 334.005 417.995 333.302C417.95 332.801 417.141 332.789 417.197 333.302C417.253 333.938 417.242 334.562 417.129 335.187C417.039 335.689 417.815 335.901 417.905 335.399Z" fill="#020A13"/>
<path d="M417.051 326.121C417.455 327.158 417.152 328.351 416.219 328.998C415.803 329.288 416.196 329.979 416.623 329.689C417.826 328.842 418.366 327.303 417.826 325.909C417.646 325.441 416.871 325.641 417.051 326.121Z" fill="#020A13"/>
<path d="M418.658 317.244C418.973 318.192 418.872 319.129 418.355 319.987C418.085 320.422 418.782 320.824 419.052 320.389C419.67 319.363 419.816 318.17 419.434 317.032C419.265 316.542 418.49 316.753 418.658 317.244Z" fill="#020A13"/>
<path d="M416.41 314.077C416.443 313.263 416.286 312.494 415.949 311.758C415.735 311.289 415.049 311.691 415.252 312.159C415.522 312.772 415.634 313.419 415.6 314.077C415.578 314.59 416.387 314.579 416.41 314.077Z" fill="#020A13"/>
<path d="M410.508 311.122C410.115 311.746 409.362 312.07 408.642 311.914C408.136 311.813 407.923 312.583 408.429 312.683C409.519 312.906 410.61 312.46 411.205 311.523C411.486 311.1 410.789 310.698 410.508 311.122Z" fill="#020A13"/>
<path d="M398.097 313.274C398.716 313.776 399.435 314.044 400.233 314.077C400.75 314.088 400.75 313.297 400.233 313.285C399.66 313.263 399.109 313.085 398.659 312.717C398.266 312.393 397.693 312.951 398.097 313.274Z" fill="#020A13"/>
<path d="M393.331 311.891C392.353 312.204 391.364 312.304 390.341 312.193C389.824 312.137 389.835 312.94 390.341 312.984C391.431 313.096 392.499 312.984 393.544 312.65C394.039 312.505 393.825 311.735 393.331 311.891Z" fill="#020A13"/>
<path d="M388.149 316.017C388.239 316.575 388.014 317.166 387.564 317.512C387.159 317.824 387.564 318.515 387.969 318.203C388.733 317.623 389.082 316.753 388.924 315.806C388.846 315.304 388.07 315.516 388.149 316.017Z" fill="#020A13"/>
<path d="M391.421 320.969C391.421 321.984 391.421 322.998 391.421 324.013C391.421 324.526 392.219 324.526 392.219 324.013C392.219 322.998 392.219 321.984 392.219 320.969C392.219 320.456 391.421 320.456 391.421 320.969Z" fill="#020A13"/>
<path d="M388.925 329.221C388.801 329.645 388.689 330.068 388.565 330.492C388.509 330.704 388.385 331.518 388.082 331.563C387.576 331.63 387.576 332.421 388.082 332.354C388.61 332.288 388.902 331.986 389.093 331.507C389.363 330.849 389.509 330.124 389.7 329.433C389.835 328.942 389.06 328.73 388.925 329.221Z" fill="#020A13"/>
<path d="M390.229 335.153C390.229 336.224 390.352 337.272 390.588 338.321C390.701 338.822 391.476 338.61 391.364 338.109C391.139 337.138 391.027 336.157 391.027 335.153C391.027 334.641 390.229 334.641 390.229 335.153Z" fill="#020A13"/>
<path d="M395.097 340.06C396.131 340.462 396.974 341.287 397.39 342.313C397.581 342.781 398.357 342.58 398.166 342.101C397.638 340.796 396.637 339.815 395.311 339.291C394.827 339.101 394.625 339.871 395.097 340.06Z" fill="#020A13"/>
<path d="M401.009 340.183C402.032 339.77 403.043 339.358 404.066 338.945C404.538 338.755 404.336 337.986 403.853 338.176C402.83 338.588 401.818 339.001 400.795 339.413C400.323 339.603 400.537 340.372 401.009 340.183Z" fill="#020A13"/>
<path d="M410.059 335.343C409.474 335.655 408.901 335.956 408.316 336.269C407.866 336.514 408.271 337.194 408.721 336.96C409.305 336.648 409.879 336.347 410.463 336.034C410.924 335.789 410.519 335.098 410.059 335.343Z" fill="#020A13"/>
<path d="M413.487 336.737C413.442 335.845 413.285 334.975 413.026 334.116C412.88 333.626 412.105 333.838 412.251 334.328C412.487 335.12 412.633 335.912 412.678 336.737C412.712 337.25 413.51 337.25 413.487 336.737Z" fill="#020A13"/>
<path d="M411.228 330.749C412.757 331.117 412.824 328.362 412.813 327.459C412.802 326.946 412.003 326.946 412.015 327.459C412.026 327.738 411.936 330.102 411.453 329.979C410.936 329.868 410.722 330.637 411.228 330.749Z" fill="#020A13"/>
<path d="M413.049 322.697C413.498 322.597 413.948 322.653 414.353 322.865C414.813 323.099 415.218 322.418 414.757 322.173C414.15 321.861 413.498 321.772 412.835 321.928C412.329 322.05 412.543 322.809 413.049 322.697Z" fill="#020A13"/>
<path d="M414.712 318.66C413.712 317.891 412.959 316.865 412.543 315.683C412.374 315.203 411.598 315.415 411.767 315.895C412.273 317.289 413.127 318.449 414.308 319.352C414.723 319.664 415.117 318.973 414.712 318.66Z" fill="#020A13"/>
<path d="M407.821 317.557C406.764 317.177 405.843 316.575 405.067 315.783C404.707 315.415 404.134 315.984 404.505 316.341C405.382 317.233 406.427 317.891 407.619 318.326C408.091 318.493 408.305 317.735 407.821 317.557Z" fill="#020A13"/>
<path d="M394.366 317.032C395.187 317.244 395.816 317.858 396.03 318.672C396.165 319.162 396.929 318.962 396.805 318.46C396.524 317.378 395.67 316.542 394.58 316.263C394.085 316.14 393.871 316.91 394.366 317.032Z" fill="#020A13"/>
<path d="M394.219 327.459C394.86 327.47 395.164 326.957 395.4 326.433C395.737 325.652 395.973 324.838 396.108 323.991C396.187 323.489 395.422 323.277 395.332 323.779C395.254 324.27 395.141 324.738 394.995 325.217C394.905 325.519 394.624 326.667 394.208 326.667C393.702 326.656 393.702 327.459 394.219 327.459Z" fill="#020A13"/>
<path d="M393.375 331.351C394.039 332.076 394.365 332.979 394.353 333.96C394.342 334.473 395.14 334.473 395.152 333.96C395.174 332.767 394.747 331.663 393.938 330.782C393.6 330.403 393.038 330.972 393.375 331.351Z" fill="#020A13"/>
<path d="M397.569 336.313C398.39 336.402 399.12 336.726 399.761 337.217C400.166 337.529 400.571 336.837 400.166 336.525C399.402 335.945 398.525 335.611 397.569 335.51C397.052 335.466 397.063 336.269 397.569 336.313Z" fill="#020A13"/>
<path d="M404.01 333.012C404.201 332.064 404.763 331.284 405.629 330.815C406.078 330.57 405.674 329.879 405.224 330.124C404.201 330.682 403.47 331.663 403.245 332.8C403.133 333.302 403.909 333.514 404.01 333.012Z" fill="#020A13"/>
<path d="M409.215 324.939C409.125 323.757 408.81 322.641 408.282 321.582C408.057 321.125 407.36 321.526 407.585 321.984C408.046 322.92 408.327 323.902 408.406 324.939C408.462 325.452 409.26 325.452 409.215 324.939Z" fill="#020A13"/>
<path d="M403.515 319.954C402.785 319.553 402.099 319.095 401.458 318.56C401.065 318.237 400.492 318.794 400.896 319.118C401.593 319.686 402.324 320.199 403.111 320.634C403.56 320.891 403.965 320.199 403.515 319.954Z" fill="#020A13"/>
<path d="M399.031 321.605C399.255 322.541 399.851 323.344 400.694 323.835C401.144 324.091 401.549 323.411 401.099 323.143C400.436 322.753 399.986 322.14 399.806 321.393C399.694 320.902 398.918 321.103 399.031 321.605Z" fill="#020A13"/>
<path d="M405.045 323.857C405.337 324.827 405.18 325.786 404.606 326.623C404.314 327.046 405.011 327.448 405.303 327.024C406 326.032 406.18 324.805 405.832 323.645C405.674 323.166 404.899 323.366 405.045 323.857Z" fill="#020A13"/>
<path d="M397.659 329.321C398.626 328.898 399.401 328.173 399.907 327.258C400.154 326.812 399.469 326.411 399.21 326.857C398.76 327.66 398.086 328.262 397.243 328.63C396.782 328.842 397.187 329.533 397.659 329.321Z" fill="#020A13"/>
<path d="M401.133 330.113C401.099 330.738 400.829 331.273 400.357 331.685C399.975 332.031 400.537 332.589 400.919 332.243C401.537 331.685 401.886 330.927 401.92 330.102C401.953 329.6 401.155 329.611 401.133 330.113Z" fill="#020A13"/>
</g>
<defs>
<clipPath id="clip0">
<rect width="389" height="393" fill="white" transform="translate(0 27)"/>
</clipPath>
<clipPath id="clip1">
<rect width="25.1" height="27.9" fill="white" transform="translate(53.8994 90) rotate(89.7817)"/>
</clipPath>
<clipPath id="clip2">
<rect width="47" height="46" fill="white" transform="translate(382 302)"/>
</clipPath>
</defs>
</svg>
