<svg width="464" height="346" viewBox="0 0 464 346" fill="none" xmlns="http://www.w3.org/2000/svg">
<g clip-path="url(#clip0)">
<path d="M17.6709 125.286C16.8615 126.139 17.7158 127.262 17.7608 128.429C17.7608 128.923 17.7608 129.416 17.7608 129.91C17.5809 129.955 17.446 130 17.2662 130.045C16.9065 129.371 16.5018 128.743 16.277 128.07C15.2878 124.882 14.4784 121.65 13.4442 118.507C12.9946 117.116 12.2752 115.769 11.5558 114.467C10.4317 112.447 8.0036 112.222 6.20504 112.492C5.89029 112.536 5.6205 112.896 5.26079 113.165C4.58633 112.492 3.82194 112.716 3.01259 113.075C2.38309 113.345 1.7536 113.614 1.07914 113.659C0.719425 113.704 0.359712 113.3 0 113.12C0.22482 112.851 0.359712 112.447 0.629496 112.312C1.93345 111.684 3.28237 111.145 4.6313 110.561C9.26259 108.496 11.0162 103.558 10.1169 98.9338C9.6223 96.4198 9.03777 93.9057 8.58813 91.3468C8.4982 90.8979 8.85791 90.4489 9.03777 90C9.30756 90.3591 9.66727 90.6285 9.80216 91.0325C10.6565 93.3221 11.286 95.7464 12.3651 97.9012C14.1637 101.538 18.2554 104.052 22.7968 103.782C23.0665 103.782 23.3363 103.648 23.5612 103.737C24.0558 103.917 24.5054 104.186 24.955 104.411C24.6853 104.86 24.5054 105.398 24.1457 105.713C22.7518 106.97 21.1331 107.957 19.9191 109.349C16.8165 112.851 15.9173 117.071 16.5468 121.605C16.6367 122.144 16.6817 122.727 16.8165 123.266C17.0414 123.895 17.3561 124.478 17.6709 125.286ZM7.23921 110.651C9.17266 111.01 11.196 111.235 12.3651 113.03C13.3543 114.646 14.2086 116.352 15.018 117.879C15.1079 115.589 15.5576 113.255 16.8615 111.19C18.1655 109.169 19.6942 107.329 20.9532 105.623C19.4694 105.084 17.6709 104.635 16.1871 103.737C14.6583 102.84 13.3993 101.493 12.0054 100.415C11.4658 105.713 11.286 106.072 7.23921 110.651Z" fill="black"/>
</g>
<g clip-path="url(#clip1)">
<path d="M417.864 91.912C419.457 93.784 420.181 96.304 422.715 97.384C421.412 98.896 421.267 100.48 421.991 102.352C428.724 121.432 419.674 145.408 403.818 154.984C396.506 159.448 390.931 165.856 385.935 172.624C380.65 179.68 378.767 188.032 378.333 196.6C377.826 207.04 379.491 217.12 383.473 226.84C384.632 229.792 385.935 232.528 388.903 234.184C390.351 238.504 391.727 242.824 393.175 247.072C390.424 251.032 391.51 259.312 395.275 262.984C395.057 264.784 394.913 266.584 394.695 268.312C393.175 272.992 392.668 277.96 392.089 282.784C390.786 293.08 387.528 302.8 382.025 311.368C376.885 319.432 370.151 326.272 361.391 331.096C348.286 338.296 334.385 341.752 319.47 341.68C311.072 341.68 303.614 338.368 296.229 334.768C283.704 328.648 274.364 318.784 264.952 309.064C263.069 307.12 261.115 305.464 258.798 304.168C255.684 300.352 253.078 296.104 249.386 292.72C250.254 291.064 250.544 289.408 249.313 287.68C245.765 282.568 242.58 277.24 238.742 272.344C236.932 270.112 235.05 267.952 232.009 267.304C230.561 264.712 229.041 262.12 227.593 259.456C227.448 257.8 228.968 257.584 229.982 257.224C235.919 254.92 241.421 251.608 247.141 248.8C252.426 246.208 256.046 241.672 259.377 237.28C264.879 230.008 272.192 229.288 280.011 230.08C285.948 230.656 291.813 229.936 297.605 229.288C304.338 228.568 308.031 222.736 307.234 215.968C306.293 207.976 306.004 199.984 307.017 191.992C307.307 189.616 308.248 187.672 309.913 185.944C312.23 183.496 314.764 181.12 317.66 179.536C322.221 177.016 324.249 173.2 325.262 168.376C326.204 163.768 326.059 159.232 324.538 154.912C323.163 150.88 320.267 148 315.705 147.28C314.257 147.064 312.737 146.56 312.52 144.832C312.302 143.032 313.75 142.456 315.054 141.736C324.538 136.696 326.638 130.576 322.077 120.712C320.773 117.976 320.629 115.528 322.366 112.936C323.814 110.776 324.176 108.328 324.321 105.736C324.611 100.552 322.946 95.8 321.28 91.048C320.267 88.096 317.877 86.512 315.271 85.144C314.113 84.496 313.026 83.488 313.388 81.976C313.606 80.896 314.257 79.96 315.705 80.464C319.905 81.544 323.814 79.312 327.869 79.24C328.81 79.24 329.751 78.952 330.692 78.808C336.629 81.256 342.639 80.032 348.431 78.808C357.626 76.936 366.893 75.64 376.233 74.992C381.663 74.632 386.804 75.856 391.944 76.864C402.08 78.88 410.551 84.496 417.864 91.912Z" fill="#8CFED1"/>
<path d="M166.703 32.008C169.164 34.024 172.495 34.744 174.739 37.12C177.201 40.936 180.893 43.456 184.586 45.976C185.962 46.984 187.482 46.912 189.002 47.056C191.898 49 193.781 51.88 196.243 54.256C198.27 58.288 197.401 62.68 197.908 66.856C198.415 70.528 198.125 74.272 197.546 77.944C197.039 81.256 197.473 84.64 197.908 87.952C198.704 94.216 197.401 96.16 191.536 98.104C187.844 99.328 185.455 101.776 183.79 105.16C178.287 116.464 171.698 126.976 162.503 135.76C159.607 138.496 157.146 141.592 154.539 144.616C152.222 147.352 151.354 150.592 150.919 154.192C149.761 163.552 151.209 172.84 151.86 182.128C152.222 186.952 153.96 191.704 154.25 196.672C154.612 204.088 156.277 211.432 155.263 218.848C154.974 220.936 155.48 223.456 153.091 224.824C152.874 224.32 152.802 223.456 152.005 223.744C146.285 225.832 140.059 225.544 134.194 226.912C130.14 222.952 125.217 224.464 120.511 225.04C111.171 226.336 101.831 226.552 92.5635 224.608C88.4367 223.744 84.7442 221.44 80.6173 220.648C77.4316 219.136 74.8252 216.544 71.2775 215.608C73.2323 213.52 72.0015 211.864 70.4811 210.28C60.6345 199.984 54.1907 187.672 50.2086 174.208C47.6022 165.568 44.8509 156.856 45.2129 147.496C45.3577 143.752 43.9821 140.008 43.9821 136.12C43.9097 127.696 44.3441 119.344 46.0817 111.064C46.5886 108.832 47.023 106.528 45.1405 104.656C46.0817 101.344 47.023 97.96 47.9642 94.648C52.0911 92.848 52.4531 88.816 53.3943 85.216C53.7563 83.776 52.3807 83.2 51.7291 82.264C53.3219 81.256 54.1907 79.816 54.5527 78.016C58.9692 74.632 61.5757 69.88 64.4717 65.344C74.0287 50.152 87.061 38.992 103.641 31.648C122.248 23.44 140.855 25.024 159.607 30.64C161.924 31.36 164.241 32.152 166.703 32.008Z" fill="#8CFED1"/>
<path d="M153.019 224.752C154.684 219.784 154.973 214.6 154.394 209.56C152.874 195.088 150.557 180.616 149.471 166.072C148.964 159.808 148.602 153.04 151.643 146.992C153.743 142.744 157.146 139.432 160.548 136.192C170.323 126.832 177.78 115.96 183.282 103.648C184.875 100.12 187.554 97.96 191.319 97.024C196.315 95.8 197.546 94.432 197.039 89.608C196.46 84.064 196.46 78.664 197.039 73.12C197.763 66.784 196.098 60.448 196.242 54.112C197.546 49.936 196.822 45.328 199.356 41.296C201.528 37.84 204.424 35.824 208.406 35.608C216.008 35.176 223.538 35.896 231.068 35.68C238.09 35.464 245.113 36.4 252.209 35.68C259.594 34.888 267.051 35.392 274.508 35.608C280.445 35.824 286.31 35.896 292.174 35.536C300.79 35.032 307.017 40.36 307.524 49C307.668 51.952 308.827 52.528 311.433 51.52C315.56 49.864 319.832 48.568 324.393 49C332.212 49.72 336.629 57.424 332.864 64.264C329.389 70.528 325.045 76.072 318.022 78.88C317.153 79.24 316.357 79.888 315.56 80.392C313.678 81.4 312.664 82.984 315.053 83.992C323.597 87.52 323.669 95.512 325.045 102.568C325.841 106.528 325.117 110.704 322.511 114.232C321.063 116.104 321.642 118.12 322.656 119.992C323.886 122.224 324.755 124.6 324.972 127.12C325.769 134.536 322.873 139.216 315.705 142.384C314.547 142.888 312.736 142.888 312.736 144.544C312.809 146.272 314.691 146.056 315.85 146.344C322.004 147.856 325.624 151.816 326.058 158.152C326.348 161.824 326.927 165.496 325.914 169.24C324.683 173.848 323.018 177.88 318.311 179.896C318.094 179.968 317.949 180.256 317.732 180.328C306.003 186.376 306.944 197.176 307.306 207.688C307.451 210.928 307.958 214.096 308.103 217.336C308.392 224.68 303.179 230.152 295.795 230.584C288.916 231.016 282.111 231.088 275.232 230.872C269.078 230.656 263.865 232.384 259.956 237.928C252.716 248.152 241.711 253.12 230.561 257.8C229.475 258.232 228.461 258.88 227.375 259.456C219.556 262.696 214.053 267.88 213.402 276.88C213.257 278.464 212.605 279.832 211.736 281.2C210.216 283.432 209.202 285.952 209.347 288.616C209.637 293.8 207.247 297.832 204.351 301.72C200.369 307.048 196.315 312.376 192.622 317.92C190.161 321.664 186.106 324.328 185.165 329.152C184.948 330.304 183.355 331.024 182.124 331.528C176.984 333.832 171.698 334.768 165.979 333.76C157.001 332.176 148.675 328.936 140.348 325.408C137.597 324.256 135.135 322.6 132.963 320.368C130.502 317.776 126.375 316.912 124.058 314.392C117.252 307.048 110.012 299.776 106.392 290.272C103.93 283.792 104.003 276.808 108.709 270.76C113.777 264.208 118.7 257.656 122.972 250.528C124.999 247.216 127.968 244.336 130.212 240.952C131.443 239.08 133.543 238.144 135.715 237.856C138.466 237.496 140.421 236.272 141.869 233.968C143.606 231.232 145.996 229.36 149.109 228.352C150.847 227.92 152.657 226.984 153.019 224.752Z" fill="#020A13"/>
<path d="M258.652 304.168C260.607 303.376 261.766 304.6 262.924 305.896C270.526 313.96 278.129 322.024 287.179 328.432C298.691 336.568 311.288 342.256 325.696 340.96C340.177 339.664 354.223 335.704 366.169 326.92C373.192 321.808 378.839 315.184 383.111 307.264C389.12 296.104 390.785 284.008 392.523 271.84C392.74 270.4 392.595 268.888 394.478 268.384C395.998 268.888 396.795 269.752 396.722 271.48C395.853 284.008 393.971 296.176 388.396 307.84C384.921 315.112 379.925 321.016 374.423 326.344C365.01 335.416 353.209 340.672 340.394 343.408C331.416 345.352 322.438 347.08 313.243 345.208C305.931 343.696 299.27 340.888 292.609 337.36C279.215 330.376 269.513 319.576 259.883 308.56C258.797 307.336 257.566 306.04 258.652 304.168Z" fill="#020A13"/>
<path d="M388.759 234.184C386.659 234.904 385.718 233.752 384.849 232.096C379.564 222.376 377.464 211.864 377.174 201.064C376.812 187.96 380.215 176.008 389.7 166.288C394.333 161.536 398.967 157 404.47 153.184C413.158 147.208 418.588 138.856 421.339 128.488C423.873 118.984 423.728 109.84 420.253 100.696C419.384 98.392 420.108 97.24 422.642 97.312C427.276 103.072 428.145 110.128 427.928 117.04C427.566 131.296 422.498 143.896 411.782 153.832C410.696 154.84 409.683 155.848 408.452 156.568C402.08 160.384 397.085 165.712 392.089 171.112C387.745 175.792 385.356 181.264 383.69 187.456C379.491 202.576 383.401 216.472 388.541 230.368C389.048 231.664 389.627 232.888 388.759 234.184Z" fill="#020A13"/>
<path d="M166.703 32.008C165.472 34.024 163.879 33.088 162.214 32.584C154.105 29.92 145.851 27.76 137.235 27.112C118.918 25.888 102.845 30.928 87.93 41.656C76.1285 50.152 68.1643 61.456 60.2726 73.048C58.8969 75.064 58.2453 78.592 54.4805 78.016C53.1772 76.504 53.9736 75.136 54.7701 73.768C60.9242 62.824 67.5127 52.024 77.0697 43.888C84.4547 37.552 92.4913 31.864 101.686 27.832C109.723 24.304 117.977 22.864 126.52 22.216C139.625 21.28 152.15 23.512 164.169 28.984C165.472 29.56 166.775 30.136 166.703 32.008Z" fill="#020A13"/>
<path d="M45.0683 104.656C47.3852 104.656 48.0368 105.88 47.6024 107.896C45.5027 117.544 44.3443 127.336 45.2855 137.128C46.0819 145.48 45.7923 153.904 48.1816 162.256C49.9192 168.304 50.9329 174.568 53.3221 180.472C57.8834 191.92 63.9651 202.36 72.5809 211.36C75.1874 214.024 74.753 215.032 71.2777 215.608C55.8562 202.36 48.4712 184.792 43.6203 165.568C41.6654 157.648 41.1586 149.728 40.5794 141.88C39.6382 130.216 39.8554 118.408 43.6927 107.032C43.9099 106.096 44.2719 105.232 45.0683 104.656Z" fill="#020A13"/>
<path d="M417.864 91.912C416.706 91.984 415.692 91.768 414.968 90.832C412 87.304 407.873 85.144 404.18 82.48C400.198 79.6 395.347 78.448 390.786 77.512C378.116 74.992 365.445 75.856 352.92 79.024C346.548 80.608 340.032 80.824 333.516 81.04C331.779 81.112 330.693 80.536 330.62 78.664C333.082 75.928 336.557 76.288 339.67 75.928C344.811 75.352 349.879 74.632 354.947 73.48C367.111 70.672 379.491 69.664 391.727 72.472C401.574 74.776 410.841 78.88 417.43 87.16C418.371 88.6 419.746 90.112 417.864 91.912Z" fill="#020A13"/>
<path d="M80.545 220.648C82.0654 219.568 83.5134 220.144 84.9615 220.792C96.2561 226.264 108.058 225.544 119.931 223.96C123.696 223.456 127.389 223.312 131.081 223.528C133.109 223.672 134.629 224.392 134.122 226.912C132.24 228.496 129.923 227.776 127.896 228.064C119.425 229.36 110.954 230.44 102.41 230.008C95.5321 229.72 88.7987 228.568 82.8618 224.608C81.3414 223.672 79.9658 222.736 80.545 220.648Z" fill="#020A13"/>
<path d="M231.864 267.232C233.457 266.08 234.76 266.656 235.919 267.952C241.783 274.288 246.344 281.56 250.761 288.904C251.775 290.632 251.485 292.144 249.24 292.72C247.286 292.288 246.344 290.632 245.331 289.192C241.204 283.432 237.149 277.672 233.095 271.84C232.081 270.472 231.14 269.104 231.864 267.232Z" fill="#023375"/>
<path d="M188.93 47.056C187.916 48.064 186.903 48.784 185.455 47.704C182.197 45.256 179.011 42.808 175.753 40.288C174.667 39.496 174.377 38.416 174.667 37.12C175.319 36.904 176.043 36.4 176.694 36.472C180.169 36.688 187.989 43.528 188.93 47.056Z" fill="#053676"/>
<path d="M395.13 262.984C393.175 263.488 392.089 262.624 391.799 260.752C391.22 257.224 390.785 253.696 390.351 250.168C390.061 248.152 390.713 246.856 393.03 247.072C395.926 252.112 397.084 257.368 395.13 262.984Z" fill="#033475"/>
<path d="M51.6565 82.192C53.9009 81.976 54.8422 82.912 54.3354 85.144C53.7561 87.952 52.6701 90.616 51.3669 93.208C50.6429 94.792 49.412 95.224 47.8192 94.576C46.6608 89.752 49.05 85.936 51.6565 82.192Z" fill="#063777"/>
<path d="M275.016 281.992C275.016 272.344 278.201 265.36 282.111 258.52C289.496 245.632 301.515 240.088 315.56 238C319.036 237.496 320.629 235.984 321.787 232.672C324.538 224.896 330.113 219.424 337.933 216.472C351.182 211.576 362.115 216.184 369.934 226.408C376.957 235.552 378.188 249.088 368.052 260.032C364.287 264.064 363.563 268.24 364.214 273.136C365.518 282.352 365.156 291.424 361.173 299.92C355.888 311.224 346.91 318.928 335.399 323.824C324.176 328.576 313.244 327.136 302.456 322.888C283.125 315.328 276.102 299.776 275.016 281.992Z" fill="#020A13"/>
<path d="M375.219 144.976C368.993 145.624 362.839 142.744 357.047 138.856C351.834 135.328 348.865 130.288 347.634 124.096C344.956 109.84 347.779 100.336 360.594 92.416C374.206 83.992 393.03 88.744 399.981 101.776C410.262 121.144 401.284 136.552 384.052 144.256C381.663 145.336 378.984 144.904 375.219 144.976Z" fill="#020A13"/>
<path d="M375.075 176.368C375.075 188.104 365.445 197.608 353.644 197.536C341.915 197.464 332.358 187.816 332.43 176.152C332.502 164.632 342.059 155.2 353.716 155.2C365.518 155.128 375.075 164.632 375.075 176.368Z" fill="#020A13"/>
<path d="M263.214 273.28C262.635 275.008 264.227 277.672 261.766 277.96C259.377 278.32 259.739 275.44 259.377 273.856C258.87 271.552 258.797 269.104 258.58 266.728C258.508 265.648 258.508 264.424 259.956 264.208C261.404 263.992 261.766 265.216 261.983 266.224C262.49 268.744 262.852 271.048 263.214 273.28Z" fill="#020A13"/>
<path d="M343.218 146.488C342.204 146.632 341.77 146.2 341.335 145.768C338.874 143.176 336.991 140.152 335.471 136.84C335.181 136.192 335.109 135.4 335.76 134.896C336.557 134.32 337.426 134.536 338.005 135.184C340.539 137.92 342.566 140.944 344.014 144.4C344.521 145.552 344.159 146.344 343.218 146.488Z" fill="#020A13"/>
<path d="M365.735 210.496C363.128 210.64 361.101 210.064 359.001 209.488C357.915 209.2 356.322 208.984 356.54 207.4C356.757 205.528 358.494 205.96 359.725 206.032C361.753 206.176 363.78 206.464 365.735 206.896C367.038 207.184 369.065 207.112 368.848 209.056C368.558 211.288 366.603 210.28 365.735 210.496Z" fill="#043776"/>
<path d="M274.074 247.216C272.337 247.216 270.599 247.216 271.033 245.632C271.685 243.184 274.219 243.112 276.319 242.824C277.405 242.68 278.925 242.824 278.636 244.264C278.274 247.072 275.45 246.424 274.074 247.216Z" fill="#073C79"/>
<path d="M362.621 317.776C362.549 319.648 359.58 323.104 358.205 323.032C357.119 322.96 356.829 322.312 356.829 321.304C356.829 319.504 359.58 315.76 360.956 315.832C362.042 315.976 362.621 316.624 362.621 317.776Z" fill="#093E7A"/>
<path d="M322.004 204.448C321.135 204.376 320.556 203.872 320.411 202.936C320.194 201.424 323.09 197.608 324.61 197.464C325.841 197.32 326.42 197.896 326.493 199.048C326.493 200.632 323.452 204.376 322.004 204.448Z" fill="#020A13"/>
<path d="M381.59 157.864C380.577 157.72 379.853 157.072 380.215 155.992C380.866 153.76 382.025 151.744 384.342 150.952C385.428 150.592 386.079 151.456 386.079 152.608C386.079 154.264 383.111 157.864 381.59 157.864Z" fill="#020A13"/>
<path d="M376.088 272.632C378.405 273.424 380.359 274.792 381.301 277.096C381.735 278.176 380.866 279.04 379.78 278.824C377.319 278.392 375.436 276.808 374.495 274.504C373.988 273.424 374.929 272.848 376.088 272.632Z" fill="#020A13"/>
<path d="M415.33 123.52C413.302 123.232 412.723 121.72 411.999 120.424C411.348 119.272 410.768 118.048 411.565 116.752C411.782 116.464 412.434 116.176 412.796 116.248C414.389 116.536 415.04 117.832 415.692 119.128C416.343 120.28 416.995 121.504 416.343 122.8C416.126 123.16 415.619 123.376 415.33 123.52Z" fill="#020A13"/>
<path d="M339.742 95.44C339.163 97.24 339.163 99.688 336.702 100.336C335.254 100.696 334.964 99.328 335.181 98.248C335.543 96.088 335.688 93.496 338.367 92.92C339.742 92.56 339.742 94.072 339.742 95.44Z" fill="#020A13"/>
<path d="M164.748 92.272C165.255 110.776 152.295 128.272 134.194 134.68C131.371 135.688 128.33 135.76 125.361 136.264C122.031 136.84 120.004 138.712 118.99 141.88C115.37 152.752 100.455 160.888 89.0883 159.016C74.6804 156.64 67.3678 144.616 66.2818 134.824C65.413 126.544 67.223 118.552 73.6667 112.432C76.78 109.48 76.9972 106.24 76.2008 101.992C74.3908 92.416 74.4632 83.056 78.8073 73.696C82.9341 64.696 89.7399 58.432 97.6317 53.392C106.465 47.704 116.673 45.688 127.099 47.992C139.407 50.728 150.123 56.488 157.291 67.288C162.286 74.848 164.748 83.2 164.748 92.272Z" fill="#020A13"/>
<path d="M114.067 165.208C124.782 164.92 135.063 175.864 135.498 188.104C135.932 200.416 125.506 212.008 113.415 211.936C98.3558 211.864 89.5228 204.088 88.8712 188.968C88.1472 174.784 96.039 165.496 114.067 165.208Z" fill="#020A13"/>
<path d="M186.468 81.256C186.541 82.192 186.396 82.912 185.672 83.272C184.658 83.776 184.079 83.056 183.645 82.336C181.762 79.024 180.242 75.496 179.59 71.752C179.446 70.96 179.373 70.024 180.314 69.592C181.256 69.16 181.98 69.736 182.414 70.528C184.296 73.912 185.6 77.584 186.468 81.256Z" fill="#043877"/>
<path d="M76.6353 172.048C76.2009 173.344 75.4769 173.992 74.1737 173.272C70.988 171.472 68.4539 168.952 66.2095 166.144C65.7751 165.568 65.5579 164.776 66.0647 164.128C66.6439 163.336 67.5851 163.408 68.3091 163.912C71.2776 165.784 73.8116 168.088 75.9837 170.824C76.2733 171.184 76.4181 171.616 76.6353 172.048Z" fill="#020A13"/>
<path d="M67.4402 98.104C67.4402 99.976 61.0688 106.744 59.476 106.672C57.666 106.528 57.5936 105.304 58.3176 104.152C60.0552 101.416 62.2273 98.968 64.9061 97.168C66.2094 96.232 67.223 96.664 67.4402 98.104Z" fill="#053A77"/>
<path d="M156.856 129.856C155.77 129.928 154.974 129.568 154.974 128.272C154.974 126.904 158.811 124.24 160.621 124.384C161.562 124.456 162.214 124.888 162.359 125.896C162.431 127.192 158.883 129.856 156.856 129.856Z" fill="#020A13"/>
<path d="M176.332 104.296C176.26 105.16 175.681 106.24 174.595 105.808C172.133 104.872 171.336 102.568 170.974 100.12C170.83 99.112 171.409 98.248 172.64 98.392C174.088 98.536 176.477 102.28 176.332 104.296Z" fill="#0A407B"/>
<path d="M159.68 53.752C160.404 51.952 160.259 49.216 163.01 48.856C164.603 48.64 164.748 50.44 164.386 51.592C163.735 53.536 163.807 56.2 160.911 56.344C159.608 56.416 159.39 55.048 159.68 53.752Z" fill="#09407A"/>
<path d="M78.3003 191.416C77.7211 193.288 77.7211 195.952 74.9698 196.528C73.8838 196.744 73.377 195.448 73.5218 194.512C73.9562 192.352 74.0286 189.76 76.6351 188.968C78.1555 188.608 78.3003 190.048 78.3003 191.416Z" fill="#063B78"/>
<path d="M55.0593 140.728C54.0457 140.656 53.5389 140.152 53.5389 139.144C53.4665 137.56 56.5073 134.032 58.0278 134.032C59.1862 133.96 59.7654 134.536 59.7654 135.76C59.693 137.416 56.5797 140.8 55.0593 140.728Z" fill="#020A13"/>
<path d="M135.787 156.928C135.57 158.296 134.846 158.728 133.688 158.656C131.371 158.512 127.968 156.136 128.258 154.696C128.475 153.472 129.488 153.256 130.43 153.472C132.746 153.976 134.846 154.696 135.787 156.928Z" fill="#020A13"/>
<path d="M127.316 35.536C127.099 36.976 126.013 37.768 124.855 38.344C123.552 38.992 122.248 40.144 120.583 39.28C120.366 39.208 120.149 38.992 120.149 38.776C119.425 36.76 121.162 36.112 122.393 35.32C123.841 34.456 125.434 33.16 127.172 34.816C127.244 35.032 127.244 35.32 127.316 35.536Z" fill="#020A13"/>
<path d="M83.8027 56.704C83.0787 56.704 82.5719 56.128 82.4995 55.192C82.3547 53.608 85.1784 49.936 86.6264 49.792C87.8572 49.72 88.364 50.296 88.4364 51.448C88.4364 53.032 85.468 56.632 83.8027 56.704Z" fill="#053A78"/>
<path d="M139.48 213.448C138.394 213.52 137.597 213.088 137.597 211.864C137.597 210.424 141.29 207.976 143.172 208.048C144.113 208.12 144.837 208.336 144.91 209.416C144.982 210.856 141.434 213.448 139.48 213.448Z" fill="#020A13"/>
<path d="M221.511 191.056C218.47 184.144 214.995 177.52 209.927 171.832C208.841 169.456 208.551 167.08 209.492 164.56C211.23 162.688 211.809 160.528 211.809 158.008C211.737 151.24 211.737 144.472 211.809 137.632C211.809 135.4 211.375 133.384 209.565 131.872C208.406 129.352 208.985 126.976 209.927 124.6C211.592 122.224 214.343 121.432 216.805 120.208C225.348 115.816 231.575 109.552 233.385 99.832C234.471 94 229.837 89.752 224.045 91.048C220.28 91.84 216.588 92.92 212.895 93.856C209.13 93.424 210.868 90.688 210.723 88.744C211.519 81.112 211.809 73.48 211.881 65.776C211.954 59.8 212.605 59.512 218.398 58.72C227.303 57.568 236.208 58.864 245.041 58.504C250.544 58.288 256.046 58.864 261.621 58.36C270.02 57.496 278.418 58.576 286.889 58.216C291.016 58.072 292.826 60.304 292.899 64.696C293.044 72.04 292.971 79.312 292.971 86.656C292.971 89.104 293.188 91.48 294.492 93.568C295.143 95.152 295.143 96.664 294.057 98.104C292.754 99.256 291.016 99.4 289.424 99.904C285.441 101.272 282.111 103.504 279.287 106.6C273.93 112.432 275.088 120.928 281.894 125.032C283.993 126.328 284.935 127.336 283.414 129.784C277.984 138.28 282.618 147.496 292.537 148.504C293.478 149.512 293.478 150.736 293.333 152.032C292.609 155.992 292.32 159.952 293.912 163.84C294.492 166.216 294.274 168.52 293.188 170.68C290.582 176.152 290.727 181.48 293.985 186.592C294.998 188.248 295.143 190.048 294.492 191.92C292.32 196.456 292.971 201.28 292.899 206.032C292.826 215.608 291.958 216.544 282.328 216.544C270.527 216.544 258.725 216.616 246.924 216.544C241.132 216.472 235.412 217.048 229.62 217.696C227.81 217.984 225.927 218.2 224.335 216.904C224.335 211.648 224.335 206.392 224.335 201.136C225.927 199.696 227.665 199.984 229.403 200.632C231.502 202.504 234.181 202.864 236.86 202.864C245.693 202.936 254.454 202.936 263.287 202.864C267.341 202.864 268.355 201.856 268.789 197.824C269.73 190.264 268.789 189.184 261.187 189.184C250.471 189.256 239.756 188.968 229.041 189.472C227.882 189.544 226.579 189.256 225.855 190.552C224.552 191.992 223.031 191.2 221.511 191.056Z" fill="#FEB3C6"/>
<path d="M209.492 99.904C214.705 98.608 219.846 97.168 225.058 96.016C227.81 95.368 229.041 96.88 228.534 99.76C227.52 105.16 224.19 109.192 220.135 112.432C213.619 117.616 206.017 120.136 197.546 119.056C196.098 118.84 194.071 118.12 193.636 120.28C193.202 122.44 195.229 122.584 196.749 123.016C201.818 124.456 203.193 126.832 201.094 131.8C197.401 140.368 192.188 147.856 184.731 153.544C183.21 154.696 181.473 155.488 179.735 156.424C178.432 157.144 176.767 157.648 177.563 159.52C178.359 161.464 179.88 160.672 181.255 160.024C183.138 159.16 184.876 158.152 186.758 157.36C187.989 156.856 189.364 155.848 190.74 157.288C192.043 158.728 191.609 160.168 190.957 161.608C190.016 163.696 188.568 165.496 186.83 167.008C185.744 167.944 184.731 168.952 185.817 170.32C186.758 171.472 188.061 171.112 189.075 170.32C193.926 166.216 197.908 168.16 202.18 171.688C212.171 179.968 217.963 190.768 219.411 203.152C220.859 215.68 219.701 228.352 211.737 239.224C210.94 240.232 210.506 241.456 211.664 242.392C213.04 243.472 214.126 242.608 214.922 241.456C215.429 240.808 216.153 240.232 216.515 239.512C221.366 229.792 230.271 230.296 239.104 230.944C241.856 231.16 244.607 231.52 247.358 231.016C248.299 230.8 249.313 230.8 250.254 230.872C252.209 231.016 254.309 231.232 255.105 233.32C255.902 235.336 254.671 236.992 253.223 238.432C240.987 250.384 226.144 256.216 209.058 256.432C208.116 256.432 207.103 256.432 206.162 256.504C205.076 256.576 204.279 257.08 204.279 258.232C204.279 259.312 204.931 260.032 206.017 260.176C206.524 260.248 206.958 260.32 207.465 260.32C209.275 260.464 211.447 260.248 212.316 262.048C213.329 264.136 211.375 265.576 210.216 267.016C208.913 268.6 207.465 270.04 206.162 271.552C201.311 277.168 194.867 278.608 187.916 275.656C185.31 274.576 184.296 272.92 185.889 270.328C186.975 268.6 188.061 266.872 189.147 265.144C189.799 264.136 190.812 263.056 189.364 262.048C188.061 261.184 187.482 262.48 186.83 263.272C185.31 265.144 184.079 267.16 182.124 268.672C180.097 270.256 177.997 270.616 175.825 269.032C173.509 267.376 174.739 265.504 175.753 263.632C176.26 262.624 177.563 261.544 176.187 260.464C174.522 259.24 173.943 261.04 173.147 261.904C171.409 263.92 169.237 264.424 167.065 262.984C164.531 261.328 161.924 259.816 160.331 257.152C159.245 255.208 157.435 253.984 155.698 252.616C151.643 249.376 149.544 242.824 152.295 238.648C160.331 226.192 160.621 212.728 158.739 198.832C157.218 187.744 155.553 176.584 154.757 165.424C154.105 156.568 154.974 147.856 162.648 141.232C171.264 133.816 178.142 124.888 183.5 114.808C184.658 112.648 185.962 109.84 189.075 113.008C189.509 113.44 190.233 113.368 190.74 112.936C191.392 112.432 191.247 111.784 190.957 110.992C187.989 102.712 189.075 101.344 197.98 101.56C200.08 101.632 201.962 102.136 203.917 102.856C209.058 104.656 214.343 104.728 219.628 103.648C220.714 103.432 222.018 103.216 221.8 101.776C221.583 100.264 220.208 100.696 219.194 100.768C215.791 101.272 212.678 101.56 209.492 99.904Z" fill="#FEFEFE"/>
<path d="M293.985 98.176C293.985 96.664 293.985 95.224 293.912 93.712C294.202 84.28 294.347 74.776 294.274 65.344C294.202 58.504 292.537 56.776 285.731 56.704C263.431 56.704 241.131 56.704 218.832 56.704C216.66 56.704 214.488 56.632 212.533 57.928C211.157 58.864 210.144 60.16 210.144 61.744C210.071 70.024 209.999 78.232 210.578 86.512C210.65 87.376 211.157 88.096 211.302 88.888C211.809 90.544 210.071 92.776 212.75 93.784C211.012 94.792 209.058 94.72 207.175 94.864C204.713 95.008 203.193 93.928 202.469 91.408C201.093 86.224 201.021 81.04 201.528 75.712C201.962 71.536 202.107 67.36 201.455 63.184C200.587 57.568 201.238 51.952 202.252 46.408C203.048 42.16 205.51 40.576 209.999 40.432C220.931 40.072 231.864 40.36 242.724 40.864C244.752 40.936 246.779 40.648 248.878 40.648C263.866 40.504 278.925 40.432 293.912 40.36C298.546 40.36 302.238 44.104 302.528 48.784C303.324 63.04 302.745 77.296 302.6 91.48C302.6 94.288 301.514 96.016 298.691 96.736C297.243 97.24 295.65 97.744 293.985 98.176Z" fill="#FE83A8"/>
<path d="M109.94 282.352C109.578 278.68 111.098 275.368 113.488 272.344C117.397 267.448 121.379 262.696 124.42 257.224C124.999 256.216 125.723 254.992 127.099 255.064C128.402 255.136 128.402 256.576 128.909 257.512C132.457 263.56 136.511 269.248 141.435 274.36C147.154 280.264 153.67 285.088 160.621 289.336C163.517 291.136 163.734 293.08 161.635 295.96C156.494 303.016 151.426 310.144 146.285 317.2C143.679 320.728 140.638 321.088 137.452 318.064C134.556 315.328 131.443 312.952 127.823 311.224C126.954 310.864 126.085 310.216 125.579 309.496C121.379 303.304 115.804 298.12 112.112 291.496C110.591 288.616 109.94 285.736 109.94 282.352Z" fill="#80B0FE"/>
<path d="M190.088 296.176C186.686 295.96 183.355 295.456 180.242 294.16C169.164 289.552 159.028 283.288 149.761 275.8C144.476 271.552 140.059 266.224 136.584 260.32C134.412 256.648 134.774 252.688 137.018 249.088C141.652 241.6 141.362 241.816 146.358 248.728C159.68 267.232 177.273 279.472 199.935 284.008C201.311 284.296 203.048 284.44 201.89 286.312C199.863 289.552 197.98 292.936 194.577 295.096C193.202 296.032 191.681 296.32 190.088 296.176Z" fill="#C2DEFE"/>
<path d="M170.395 329.368C164.748 328.936 159.318 327.496 153.96 325.768C150.123 324.544 149.616 322.456 151.281 318.712C152.439 316.048 154.539 313.96 156.277 311.728C159.318 307.696 162.069 303.52 165.182 299.56C168.295 295.6 170.54 295.24 175.246 297.328C180.966 299.92 186.758 302.152 193.201 302.08C196.387 302.08 197.473 303.808 195.374 306.04C191.609 310 189.219 314.896 185.599 318.928C184.151 320.512 182.92 322.24 181.69 324.04C178.938 327.784 175.173 329.656 170.395 329.368Z" fill="#80B0FE"/>
<path d="M224.479 216.904C226.144 216.904 227.809 216.904 229.475 216.904C234.47 218.992 239.683 217.696 244.824 217.84C258.653 218.272 272.481 217.984 286.31 217.984C292.392 217.984 294.346 216.04 294.346 210.064C294.346 203.944 294.636 197.896 293.984 191.776C293.984 190.12 293.984 188.392 294.057 186.736C295.939 188.248 297.749 189.688 300.139 190.408C302.383 191.056 303.469 192.784 303.107 195.088C301.949 201.568 302.311 208.048 303.252 214.384C304.193 221.08 301.369 225.472 293.695 225.904C285.224 226.408 276.825 225.616 268.427 226.12C260.39 226.624 252.354 225.76 244.245 226.408C239.249 226.768 234.253 225.76 229.185 225.76C225.927 225.832 224.189 221.944 224.479 216.904Z" fill="#FE83A8"/>
<path d="M289.93 122.512C285.659 122.728 281.821 122.152 280.229 117.184C279.36 114.304 279.722 111.856 281.749 109.552C286.6 103.864 293.406 102.208 300.067 100.192C303.252 99.184 306.583 98.536 309.696 97.168C311.578 96.376 312.158 95.296 310.275 93.784C308.755 92.488 307.307 90.976 308.538 88.888C309.768 86.8 311.94 87.664 313.751 88.096C315.778 88.528 317.443 89.536 318.095 91.48C319.398 95.296 320.991 99.112 321.208 103.216C321.642 110.128 318.384 115.024 310.492 117.472C305.931 118.912 301.515 120.784 296.809 121.936C294.564 122.512 292.392 122.872 289.93 122.512Z" fill="#FEFEFE"/>
<path d="M322.221 162.472C323.38 165.928 321.642 169.312 320.556 172.624C319.47 176.08 315.415 176.584 313.099 173.776C311.288 171.472 308.972 170.104 305.931 170.32C305.062 170.392 304.193 170.68 304.121 171.76C304.048 172.84 304.845 173.128 305.786 173.2C308.465 173.416 310.42 174.712 310.782 177.448C311.144 180.472 309.406 182.416 306.872 183.712C306.582 183.856 306.22 184.072 305.931 184.216C303.324 185.152 300.718 187.24 297.894 184.864C295.505 182.848 294.347 178.312 295.722 174.856C298.184 168.592 303.252 164.848 309.116 161.896C310.275 161.32 311.94 161.248 312.085 159.664C312.23 158.08 310.492 158.152 309.623 157.504C307.524 155.992 307.524 153.832 308.175 151.672C308.827 149.44 310.782 149.584 312.664 149.728C318.673 150.088 323.09 154.048 322.221 162.472Z" fill="#FEFEFE"/>
<path d="M294.347 144.472C289.713 144.544 287.179 143.176 285.586 140.008C283.993 136.768 284.717 134.032 287.034 131.512C288.7 129.712 290.292 127.84 292.682 127.264C299.56 125.68 306.004 122.584 313.027 121.288C317.298 120.496 320.339 122.656 320.918 126.976C321.425 131.08 321.208 134.968 317.009 137.272C309.551 141.232 301.659 143.824 294.347 144.472Z" fill="#FEFEFE"/>
<path d="M308.031 69.52C308.031 68.08 307.958 66.64 308.031 65.2C308.393 54.256 317.95 52.096 325.117 52.96C329.172 53.464 331.489 58 329.679 61.816C326.131 69.304 320.194 74.344 312.519 77.296C310.347 78.16 308.682 77.296 308.32 74.848C308.031 73.048 308.031 71.248 307.886 69.52C307.886 69.592 307.958 69.52 308.031 69.52Z" fill="#FEFEFE"/>
<path d="M221.511 191.056C222.669 189.832 224.045 190.624 225.276 190.84C229.62 189.76 234.109 189.76 238.453 190.12C245.186 190.624 251.919 190.552 258.653 190.624C260.608 190.696 262.49 190.768 264.3 191.632C266.472 192.712 266.834 194.656 266.689 196.816C266.545 198.832 265.531 200.344 263.431 200.56C252.137 201.64 240.842 202 229.547 201.208C227.81 201.208 226.144 201.208 224.407 201.208C223.466 197.752 222.452 194.44 221.511 191.056Z" fill="#FEFEFE"/>
<path d="M210.071 164.272C209.999 166.792 209.926 169.312 209.926 171.832C207.248 169.456 204.424 167.224 201.89 164.704C197.039 159.88 196.098 153.616 198.994 147.28C199.935 145.192 200.442 142.888 201.745 141.088C205.438 136.048 205.727 129.352 209.926 124.672C209.999 127.192 210.071 129.712 210.144 132.232C211.085 134.68 210.433 137.2 210.361 139.648C210.288 147.856 210.868 156.064 210.071 164.272Z" fill="#FD83A8"/>
<path d="M292.609 152.104C292.609 150.952 292.609 149.728 292.609 148.576C292.754 148.576 292.826 148.504 292.971 148.504C296.229 148.72 300.066 145.984 302.456 150.088C304.41 153.544 302.673 161.392 299.487 164.272C297.315 166.288 295.071 168.304 293.333 170.752C293.333 168.376 293.333 166 293.333 163.624C294.636 159.736 295.795 155.776 292.609 152.104Z" fill="#FB83A8"/>
<path d="M343.29 280.264C345.607 280.12 345.318 278.32 345.607 276.808C346.259 273.64 346.983 270.688 350.965 269.968C356.685 269.032 359.291 270.904 359.798 276.808C361.68 297.328 351.182 311.944 333.154 319.576C323.452 323.68 314.113 321.952 304.7 318.712C286.745 312.52 279.07 293.728 279.939 277.312C280.156 272.92 282.256 268.96 283.994 265.072C290.148 251.752 301.225 244.912 315.488 242.824C318.746 242.32 319.832 244.048 319.905 246.928C319.977 249.52 321.28 252.616 316.502 252.616C304.121 252.76 294.854 263.848 294.347 274.144C294.202 276.952 294.057 279.904 297.46 281.344C298.836 282.064 299.198 283.144 298.546 284.584C294.637 286.312 294.781 286.168 296.881 290.2C298.184 292.648 299.777 294.52 302.311 295.672C304.049 296.464 305.207 297.832 306.004 299.488C307.596 302.512 309.696 305.032 312.375 307.192C318.384 312.088 324.756 311.512 329.679 305.464C331.199 303.592 332.575 301.648 333.878 299.632C335.037 297.76 336.412 296.176 338.729 295.672C340.25 295.384 341.263 294.232 341.915 292.936C343.001 290.848 343.87 288.616 345.607 287.032C344.449 285.736 342.639 286.312 341.915 284.944C341.698 283.216 341.915 281.56 343.29 280.264Z" fill="#FEF475"/>
<path d="M347.851 265.216C335.109 265.288 324.176 253.408 324.538 243.4C324.972 229 335.109 219.856 347.707 219.424C359.074 218.992 370.585 230.872 370.368 242.464C370.079 254.128 360.015 265.432 347.851 265.216Z" fill="#FEF475"/>
<path d="M343.29 280.264C343 281.848 342.783 283.432 342.494 285.016C341.914 286.744 340.539 286.096 339.525 285.952C332.285 284.944 327.941 280.408 327.144 273.208C327.072 272.848 327.072 272.488 326.638 272.056C324.972 273.712 324.321 276.088 322.511 277.6C320.701 279.04 318.891 280.336 316.936 281.632C311.795 285.016 305.786 285.016 299.921 285.52C299.27 285.592 298.473 285.376 298.401 284.44C298.473 283.36 297.967 282.496 297.532 281.632C298.401 280.984 298.546 280.048 298.329 279.04C296.229 268.456 306.148 256.648 318.239 256.864C322.583 256.936 325.769 259.384 328.52 262.12C331.561 265.216 334.819 267.664 338.946 268.96C342.132 269.968 343.797 271.624 342.856 275.296C342.349 276.664 341.842 278.68 343.29 280.264Z" fill="#FEFEFE"/>
<path d="M375.219 140.08C369.789 140.8 364.649 137.992 359.798 134.824C354.513 131.368 352.775 125.968 351.906 120.064C349.517 103.072 361.536 93.856 374.133 93.136C384.632 92.488 394.189 96.376 397.664 108.976C401.429 122.44 397.447 131.728 384.994 138.424C381.88 140.224 381.663 140.224 375.219 140.08Z" fill="#FEF475"/>
<path d="M353.933 159.952C362.983 160.024 370.151 167.224 370.151 176.296C370.151 185.512 362.838 192.64 353.571 192.568C344.521 192.496 337.353 185.296 337.353 176.296C337.353 167.152 344.666 159.88 353.933 159.952Z" fill="#FEF475"/>
<path d="M135.063 117.832C135.425 119.056 136.222 119.488 137.453 119.56C143.172 119.848 149.327 115.744 149.906 110.2C150.413 104.872 153.019 100.192 153.743 94.936C154.467 89.752 152.874 85.36 149.471 81.688C147.227 79.24 145.562 76.504 144.403 73.552C142.376 68.224 138.249 66.352 133.036 66.496C129.778 66.568 127.027 65.848 124.276 63.976C120.366 61.312 115.515 61.312 111.388 62.68C104.655 64.912 99.0798 69.016 96.039 75.856C95.5322 76.936 94.8806 77.872 93.8669 78.592C86.844 83.92 84.0927 90.832 86.12 99.472C86.5544 101.2 87.3508 103.504 85.1788 104.224C82.9343 104.944 81.1243 103.072 80.7623 101.056C79.2418 93.208 79.0246 85.504 82.0655 77.8C85.6856 68.656 92.3465 62.104 100.455 57.208C108.492 52.384 117.542 50.584 126.882 52.888C137.815 55.624 147.589 60.664 153.453 70.6C160.621 82.84 162.576 95.512 155.698 109.12C151.137 118.192 144.476 124.384 135.57 128.776C132.023 130.504 128.402 130.72 124.782 131.224C122.828 131.512 121.524 130.216 120.873 128.56C120.004 126.328 119.425 124.024 118.918 121.648C118.483 119.704 119.859 118.624 121.524 118.48C123.914 118.336 125.868 117.256 127.968 116.32C130.43 116.608 132.747 117.184 135.063 117.832Z" fill="#FEF475"/>
<path d="M93.1429 108.904C104.944 108.832 116.022 119.92 116.022 131.728C116.022 146.128 103.569 154.336 93.2153 154.408C78.3729 154.624 70.9156 141.592 70.8432 131.8C70.7708 118.912 80.6174 108.976 93.1429 108.904Z" fill="#FEF475"/>
<path d="M135.063 117.832C132.457 118.48 130.14 117.976 128.04 116.392C132.819 112.864 135.281 107.896 137.018 102.424C138.177 98.68 138.611 98.68 141.217 101.416C141.724 101.92 142.159 102.568 143.028 102.136C143.896 101.704 144.114 100.984 143.824 100.048C142.883 97.096 140.783 95.584 137.959 94.792C129.633 92.488 129.633 92.488 128.764 83.848C128.692 82.912 128.475 82.12 127.461 81.976C126.375 81.76 126.013 82.624 125.724 83.416C125.289 84.784 124.782 86.152 124.276 87.448C123.117 90.76 120.8 92.272 117.253 92.56C112.981 92.848 108.709 93.712 104.365 94.288C102.627 94.576 101.107 95.296 99.8038 96.376C98.935 97.096 97.6317 97.816 98.2833 99.256C98.935 100.696 100.093 99.904 101.035 99.544C101.976 99.184 102.7 99.328 102.989 100.408C103.351 101.848 104.655 103.288 103.931 104.8C103.496 105.736 102.265 105.448 101.252 105.232C100.455 105.016 99.659 104.8 98.7901 104.584C90.1744 102.928 86.7715 96.304 90.6088 88.312C91.0432 87.448 91.2604 86.296 92.4912 86.44C93.6496 86.584 93.2876 87.736 93.36 88.528C93.4324 89.608 93.7944 90.472 95.0253 90.4C96.1113 90.328 96.2561 89.464 96.3285 88.6C96.4733 87.16 96.7629 85.792 96.9801 84.352C98.4281 76.576 102.989 70.96 109.795 67.576C115.153 64.912 120.8 65.56 125.506 69.808C126.665 70.816 127.534 71.392 129.271 71.032C137.959 69.088 144.258 75.064 143.028 83.92C142.955 84.64 142.738 85.36 142.593 86.008C142.448 86.944 142.086 88.024 143.317 88.528C144.548 89.032 144.982 88.024 145.417 87.088C146.575 84.28 147.589 85.864 148.458 87.232C150.919 90.976 150.34 98.464 147.154 102.496C145.996 104.008 144.62 105.448 143.534 106.96C142.593 108.184 142.738 109.408 144.476 109.48C147.516 109.624 146.141 111.136 145.417 112.216C143.824 114.736 141.435 115.888 138.539 116.32C137.235 116.608 135.787 116.32 135.063 117.832Z" fill="#FEFEFE"/>
<path d="M120.438 114.592C115.298 114.664 110.085 110.344 108.781 105.448C108.564 104.512 108.347 103.576 108.13 102.64C107.044 98.536 108.057 97.168 112.184 96.664C116.601 96.16 121.452 96.808 125.072 93.208C125.217 93.064 125.506 92.992 125.723 92.92C127.461 92.704 133.615 98.68 133.253 100.336C132.022 105.448 130.14 110.128 125.361 113.08C123.696 114.376 121.959 114.808 120.438 114.592Z" fill="#FEFEFE"/>
<path d="M113.487 170.104C122.32 169.888 130.285 178.456 130.429 188.392C130.647 198.256 122.465 207.04 112.981 207.256C102.555 207.544 93.7218 199.192 93.4322 188.896C93.215 177.016 100.166 170.464 113.487 170.104Z" fill="#FEF475"/>
<path d="M211.447 88.96C209.709 88.816 209.42 87.736 209.347 86.224C209.202 78.304 208.913 70.456 208.768 62.536C208.695 58.504 211.664 55.768 216.008 55.768C227.592 55.624 239.104 55.552 250.688 55.552C262.852 55.552 275.015 55.624 287.179 55.624C293.043 55.624 295.433 57.856 295.505 63.544C295.505 72.76 295.215 81.976 295.143 91.192C295.143 92.272 294.636 92.992 293.912 93.712C291.088 93.352 292.03 90.904 291.957 89.536C291.74 82.624 291.812 75.64 291.74 68.728C291.74 67.072 291.74 65.344 291.74 63.688C291.812 60.88 290.509 59.512 287.613 59.512C277.911 59.584 268.137 59.728 258.435 59.728C247.792 59.728 237.077 59.512 226.434 59.44C222.814 59.44 219.266 59.656 215.646 59.8C213.04 59.872 212.75 61.6 212.75 63.76C212.75 70.816 212.605 77.872 212.46 84.928C212.388 86.368 212.75 87.88 211.447 88.96Z" fill="#020A13"/>
<path d="M229.62 201.208C233.24 199.912 237.005 200.776 240.625 200.56C247.865 200.2 255.033 200.056 262.273 199.912C264.879 199.84 265.82 198.544 265.965 196.096C266.11 193.576 265.314 192.136 262.707 192.064C252.716 191.704 242.797 191.128 232.805 191.56C230.199 191.704 227.81 191.128 225.276 190.84C224.552 188.608 225.782 188.176 227.737 188.176C239.973 188.104 252.281 188.032 264.517 187.96C268.861 187.888 269.875 188.752 270.02 193.072C270.382 204.016 270.382 204.016 259.449 203.872C251.485 203.8 243.521 204.016 235.557 203.728C233.529 203.656 230.199 205.168 229.62 201.208Z" fill="#020A13"/>
<path d="M293.985 191.776C294.998 192.424 295.288 193.36 295.288 194.512C295.288 200.272 295.433 206.032 295.505 211.72C295.505 216.112 292.826 219.208 288.482 219.136C272.626 218.992 256.698 219.568 240.842 218.776C237.946 218.632 235.05 218.848 232.226 218.992C230.706 219.064 229.62 218.704 229.547 216.904C233.312 215.248 237.294 215.608 241.204 215.536C256.264 215.32 271.323 215.464 286.383 215.392C291.089 215.392 291.74 214.456 291.958 209.632C292.175 204.592 291.596 199.552 292.392 194.584C292.464 193.36 292.537 192.208 293.985 191.776Z" fill="#020A13"/>
<path d="M261.838 151.456C268.789 151.456 275.812 151.384 282.762 151.528C284.066 151.528 286.165 151.168 286.165 153.184C286.093 155.344 284.138 154.552 282.762 154.552C271.468 154.624 260.173 154.768 248.878 154.768C242.797 154.768 236.643 154.624 230.561 154.48C229.402 154.48 227.81 154.768 227.81 153.04C227.81 151.384 229.33 151.456 230.561 151.456C240.914 151.096 251.412 150.664 261.838 151.456Z" fill="#0A3677"/>
<path d="M259.811 72.256C248.227 72.832 236.715 73.048 225.131 72.472C223.828 72.4 222.452 72.328 221.149 72.184C219.99 72.112 218.832 71.752 218.977 70.384C219.121 69.232 220.28 69.232 221.294 69.232C228.316 69.232 235.267 69.016 242.29 68.872C252.861 68.656 263.504 69.088 274.074 69.304C275.377 69.304 277.405 68.656 277.405 70.816C277.405 72.688 275.45 72.256 274.219 72.256C269.441 72.256 264.59 72.256 259.811 72.256Z" fill="#020A13"/>
<path d="M248.734 80.32C257.422 80.32 266.038 80.32 274.726 80.32C275.957 80.32 277.405 80.176 277.405 81.904C277.405 83.416 275.957 83.344 274.943 83.344C268.355 83.56 261.694 83.632 255.105 83.776C244.028 84.064 232.95 83.848 221.873 83.2C220.714 83.128 219.049 83.488 218.977 81.904C218.904 80.032 220.642 80.176 221.945 80.176C230.851 80.176 239.756 80.176 248.661 80.176C248.734 80.248 248.734 80.32 248.734 80.32Z" fill="#033275"/>
<path d="M251.992 143.536C244.897 143.536 237.801 143.536 230.706 143.536C229.403 143.536 227.665 143.608 227.81 141.736C227.955 140.152 229.62 140.584 230.778 140.512C244.969 139.648 259.16 139.936 273.35 140.368C274.581 140.44 276.464 139.864 276.464 141.808C276.464 143.608 274.581 143.392 273.35 143.392C266.255 143.464 259.16 143.392 252.064 143.392C251.992 143.464 251.992 143.464 251.992 143.536Z" fill="#020A13"/>
<path d="M262.417 91.48C266.617 91.48 270.816 91.48 275.015 91.48C276.101 91.48 277.405 91.336 277.405 92.92C277.405 94.36 276.174 94.504 275.015 94.504C267.92 94.648 260.825 94.936 253.729 94.864C249.168 94.792 244.607 95.512 240.045 94.648C238.815 94.432 237.004 94.864 237.149 92.92C237.222 91.264 238.887 91.624 240.045 91.624C247.503 91.552 254.96 90.472 262.417 91.48Z" fill="#0B3677"/>
<path d="M267.63 162.4C272.843 162.4 277.984 162.328 283.197 162.472C284.283 162.472 286.31 162.256 286.165 164.2C286.02 166.072 284.21 165.568 282.98 165.64C272.409 166.216 261.766 165.928 251.195 165.928C250.109 165.928 249.023 165.856 247.937 165.784C246.706 165.712 245.186 165.712 245.258 164.056C245.331 162.256 246.996 162.832 248.082 162.688C254.598 162.112 261.114 162.04 267.63 162.4Z" fill="#020A13"/>
<path d="M210.071 164.272C209.275 162.976 209.347 161.536 209.275 160.096C209.13 152.104 208.913 144.04 209.347 136.048C209.42 134.752 209.492 133.456 210.071 132.232C212.171 131.8 212.606 133.096 212.606 134.752C212.895 143.752 213.112 152.752 212.533 161.68C212.533 163.264 212.171 164.56 210.071 164.272Z" fill="#073476"/>
<path d="M249.24 102.496C253.44 102.064 257.422 102.208 261.404 102.712C262.49 102.856 264.155 102.712 264.155 104.368C264.155 105.952 262.562 105.88 261.404 105.88C255.033 105.952 248.661 105.952 242.217 105.952C241.493 105.952 240.769 105.88 240.118 105.592C238.959 105.232 237.005 105.52 237.222 103.648C237.439 101.776 239.249 102.424 240.48 102.424C243.521 102.424 246.489 102.496 249.24 102.496Z" fill="#053475"/>
<path d="M286.527 196.096C286.455 198.976 284.066 201.208 281.097 201.136C278.346 201.064 276.101 198.832 276.029 196.096C275.957 193.288 278.346 190.912 281.314 190.912C284.21 190.912 286.6 193.216 286.527 196.096Z" fill="#020A13"/>
<path d="M292.609 152.104C293.333 152.104 294.057 151.816 294.636 152.392C296.446 154.336 295.505 161.896 293.261 163.624C290.726 159.952 291.523 156.064 292.609 152.104Z" fill="#073375"/>
<path d="M209.275 210.136C209.13 216.472 206.886 221.512 204.424 226.48C203.99 227.416 203.338 228.208 202.18 227.632C201.238 227.2 201.311 226.336 201.6 225.472C201.89 224.68 202.18 223.888 202.469 223.096C207.465 210.928 205.365 199.48 198.777 188.536C198.27 187.6 197.184 186.736 198.342 185.728C199.718 184.576 200.587 185.872 201.311 186.736C205.293 191.416 207.393 196.96 208.406 202.936C208.985 205.528 209.13 208.192 209.275 210.136Z" fill="#043476"/>
<path d="M198.487 208.84C198.487 214.024 196.967 217.768 195.301 221.512C194.939 222.376 194.36 223.384 193.202 223.024C191.826 222.592 192.043 221.512 192.405 220.36C195.157 212.656 195.301 204.952 192.043 197.32C191.681 196.384 191.464 195.376 192.623 194.872C193.853 194.368 194.288 195.376 194.867 196.168C197.98 200.272 197.763 205.168 198.487 208.84Z" fill="#053576"/>
<path d="M160.838 231.448C160.766 230.512 160.983 229.648 161.852 229.36C163.01 229 163.589 229.792 163.951 230.8C165.327 234.832 167.354 238.432 170.468 241.384C171.119 242.032 171.916 242.824 171.047 243.832C170.25 244.768 169.237 244.336 168.44 243.832C163.807 240.952 161.635 236.632 160.838 231.448Z" fill="#0A3879"/>
<path d="M252.499 50.224C250.109 50.152 247.72 50.008 245.331 49.864C244.39 49.792 243.304 49.648 243.231 48.424C243.086 47.128 244.1 46.912 245.114 46.768C250.109 46.12 255.105 46.12 260.101 46.768C261.042 46.912 262.128 47.056 262.128 48.352C262.056 49.576 261.042 49.864 260.101 49.864C257.567 49.936 255.105 49.864 252.571 49.864C252.499 50.008 252.499 50.08 252.499 50.224Z" fill="#093475"/>
<path d="M277.405 45.4C279.215 45.688 280.229 46.624 280.156 48.496C280.084 50.296 278.925 51.376 277.115 51.304C275.305 51.232 274.292 50.08 274.364 48.28C274.436 46.336 275.522 45.472 277.405 45.4Z" fill="#0C3576"/>
<path d="M150.123 296.464C149.761 297.112 149.399 297.976 148.892 298.84C146.647 302.512 144.113 306.04 141.29 309.28C140.638 310 139.986 310.936 138.9 310.288C137.67 309.568 138.176 308.416 138.683 307.48C141.072 303.16 143.896 299.2 147.227 295.528C147.806 294.88 148.53 294.448 149.471 294.808C150.123 295.024 150.267 295.6 150.123 296.464Z" fill="#023476"/>
<path d="M140.566 294.52C140.638 296.32 135.135 304.096 133.615 304.528C132.167 304.96 131.371 304.024 131.805 302.8C133.036 299.056 135.425 296.104 138.393 293.584C139.407 292.72 140.348 293.368 140.566 294.52Z" fill="#043578"/>
<path d="M173.364 302.584C176.043 302.872 177.78 305.32 177.418 308.344C176.984 311.944 173.291 315.256 170.033 314.896C167.427 314.608 165.689 312.304 165.906 309.496C166.268 305.608 169.961 302.224 173.364 302.584Z" fill="#013275"/>
<path d="M299.342 113.656C299.415 115.672 298.618 117.4 297.315 118.84C296.808 119.344 296.229 119.848 295.433 119.416C294.709 118.984 294.492 118.264 294.709 117.616C295.795 114.52 295.722 111.568 293.55 108.904C293.116 108.328 293.116 107.536 293.84 107.032C294.492 106.528 295.288 106.672 295.867 107.104C298.039 108.616 299.342 110.776 299.342 113.656Z" fill="#083778"/>
<path d="M317.081 106.456C316.936 107.464 316.791 108.256 316.574 109.048C316.357 110.056 315.777 110.92 314.691 110.776C313.75 110.704 313.388 109.84 313.243 108.976C313.099 107.32 312.881 105.664 312.809 104.008C312.737 102.928 312.809 101.704 314.185 101.488C315.56 101.272 315.995 102.496 316.357 103.432C316.719 104.44 316.863 105.52 317.081 106.456Z" fill="#15427F"/>
<path d="M304.121 136.12C304.193 137.776 303.397 139.504 302.021 140.872C301.442 141.448 300.863 142.168 299.849 141.592C298.908 141.088 298.908 140.224 299.27 139.432C300.718 136.552 300.429 133.96 298.619 131.368C298.112 130.648 297.967 129.712 298.836 129.136C299.632 128.56 300.429 128.992 301.153 129.496C303.107 131.152 304.193 133.24 304.121 136.12Z" fill="#0A3979"/>
<path d="M313.388 130.072C313.316 128.416 313.244 126.472 314.981 126.472C317.153 126.472 317.081 128.704 317.153 130.288C317.226 131.8 317.298 133.96 315.198 133.888C312.882 133.816 313.75 131.368 313.388 130.072Z" fill="#0D3B7B"/>
<path d="M298.329 284.224C307.306 284.656 315.488 282.928 322.149 276.304C323.669 274.792 324.393 272.992 325.407 271.264C325.914 270.4 326.276 269.464 327.507 269.896C328.448 270.256 328.375 271.048 328.375 271.984C328.158 280.408 333.95 285.664 342.566 284.872C343.435 284.944 344.231 285.16 345.1 285.088C346.186 285.016 347.127 285.16 347.345 286.312C347.562 287.248 347.055 287.824 346.114 288.184C344.231 288.832 344.086 290.776 343.507 292.288C342.566 294.808 341.19 296.824 338.222 296.896C336.557 296.968 335.905 298.048 335.326 299.272C333.95 302.152 331.851 304.456 329.823 306.76C324.466 312.736 317.95 312.952 311.723 307.768C308.899 305.392 306.582 302.728 305.062 299.344C304.845 298.84 304.555 298.048 304.121 297.832C299.487 296.032 296.808 292.288 294.419 288.256C293.985 287.536 292.609 287.32 292.899 286.168C293.188 285.016 294.347 285.016 295.215 284.8C296.229 284.656 297.315 284.44 298.329 284.224Z" fill="#020A13"/>
<path d="M360.522 246.568C357.843 246.28 356.25 244.768 356.323 242.176C356.395 239.728 358.06 238.144 360.45 238.144C363.056 238.144 364.794 239.656 364.794 242.32C364.866 244.984 363.201 246.352 360.522 246.568Z" fill="#020A13"/>
<path d="M347.417 246.568C344.883 246.352 343.29 245.056 343.218 242.536C343.145 239.8 344.81 238.216 347.417 238.144C349.879 238.144 351.544 239.656 351.616 242.176C351.689 244.84 350.168 246.352 347.417 246.568Z" fill="#020A13"/>
<path d="M338.439 242.464C338.15 244.912 336.846 246.424 334.24 246.424C331.489 246.424 329.968 244.84 330.041 242.176C330.041 239.584 331.778 238.144 334.167 238.144C336.774 238.144 338.294 239.728 338.439 242.464Z" fill="#020A13"/>
<path d="M306.655 280.264C305.642 280.336 304.556 280.192 304.266 279.112C303.976 277.96 304.845 277.456 305.859 277.168C309.551 276.088 312.882 274.144 315.778 271.624C316.502 270.976 317.443 270.472 318.312 271.264C319.181 272.128 318.601 272.992 318.095 273.784C315.343 277.816 311.289 279.616 306.655 280.264Z" fill="#083878"/>
<path d="M392.523 118.336C392.523 119.56 392.523 120.424 392.523 121.216C392.74 128.2 392.74 128.2 385.862 128.848C383.835 129.064 381.735 129.136 379.708 128.848C373.626 127.912 367.472 129.784 361.39 128.704C359.436 128.344 357.988 127.696 358.35 125.608C359.363 119.632 357.77 113.656 358.494 107.68C358.784 105.016 359.798 103.576 362.549 104.008C370.947 105.376 379.346 103.864 387.672 104.44C390.786 104.656 392.234 105.232 392.378 108.616C392.523 112 392.813 115.384 392.523 118.336Z" fill="#020A13"/>
<path d="M364.214 173.632C364.142 177.736 358.132 185.296 354.44 186.376C353.933 186.52 353.137 186.52 352.775 186.232C348.865 183.784 345.39 180.832 343.797 176.296C342.928 173.848 343.507 171.76 345.317 170.104C347.345 168.304 349.734 168.016 351.978 169.6C353.499 170.608 354.512 170.824 356.033 169.528C357.626 168.088 359.653 168.448 361.391 169.456C363.128 170.464 364.214 171.976 364.214 173.632Z" fill="#FE8180"/>
<path d="M97.7042 131.8C97.4146 134.464 96.0389 136.12 93.3601 136.12C90.8984 136.12 89.3056 134.608 89.1608 132.16C89.0884 129.496 90.5364 127.84 93.2153 127.768C96.0389 127.552 97.3422 129.28 97.7042 131.8Z" fill="#020A13"/>
<path d="M106.754 136.12C104.075 135.904 102.41 134.464 102.41 131.872C102.41 129.28 103.931 127.624 106.682 127.624C109.216 127.624 110.736 129.064 110.809 131.584C110.954 134.32 109.361 135.688 106.754 136.12Z" fill="#020A13"/>
<path d="M75.9111 132.016C76.1283 129.424 77.3592 127.768 79.9656 127.696C82.7169 127.624 84.3821 129.136 84.3821 131.8C84.4545 134.536 82.7169 136.048 80.038 136.048C77.504 136.048 76.2007 134.392 75.9111 132.016Z" fill="#020A13"/>
<path d="M110.519 88.168C110.302 88.168 109.505 88.096 108.637 87.952C107.913 87.808 107.333 87.376 107.261 86.512C107.189 85.648 107.768 85.216 108.564 85C111.75 84.28 114.936 83.848 117.904 82.408C118.628 82.048 119.352 82.336 119.714 83.056C120.293 83.992 119.642 84.712 119.062 85.216C116.89 87.376 114.212 88.24 110.519 88.168Z" fill="#093878"/>
<path d="M123.913 186.088C123.841 190.624 117.614 198.616 113.125 200.056C112.329 200.272 111.75 200.2 111.098 199.84C106.175 197.392 102.193 194.008 100.383 188.752C99.3692 185.8 99.6588 182.704 102.482 180.616C105.161 178.744 108.13 178.96 110.447 181.12C112.112 182.704 112.908 181.408 114.139 180.832C119.424 178.096 123.986 180.544 123.913 186.088Z" fill="#FE8180"/>
<path d="M333.154 291.28C333.009 298.48 328.737 302.656 324.249 306.4C322.004 308.344 318.601 308.128 316.067 306.472C310.492 302.728 307.162 297.544 306.945 290.56C306.872 288.688 307.886 287.752 309.334 287.536C314.185 286.672 318.312 284.512 322.076 281.344C323.959 279.76 325.769 280.048 327.217 282.28C328.013 283.432 329.099 284.512 330.258 285.304C332.719 286.96 334.312 288.832 333.154 291.28Z" fill="#FEFEFE"/>
<path d="M301.297 288.544C302.456 288.688 302.745 289.624 302.818 290.632C302.89 291.28 303.035 292.216 301.876 292.072C300.79 291.928 300.356 290.992 300.139 290.056C299.994 289.12 300.428 288.616 301.297 288.544Z" fill="#D4DCE7"/>
<path d="M338.439 293.152C338.15 292.792 337.86 292.576 337.933 292.432C338.295 291.064 337.498 289.192 339.381 288.4C339.598 288.328 340.177 288.616 340.177 288.832C340.394 290.56 339.815 292 338.439 293.152Z" fill="#C0CCDC"/>
<path d="M377.681 124.96C373.699 124.096 369.282 125.32 364.866 125.176C362.983 125.104 362.042 124.6 362.549 122.368C363.128 119.632 362.332 116.896 362.187 114.16C362.115 113.152 361.608 111.784 362.839 111.28C363.852 110.848 364.504 112 365.228 112.576C367.617 114.592 369.934 116.68 372.178 118.84C373.988 120.64 375.654 120.568 377.536 118.984C380.07 116.752 382.677 114.592 385.211 112.432C386.007 111.784 386.876 110.848 388.034 111.424C389.12 111.928 388.831 113.08 388.831 114.016C388.831 116.032 388.686 118.12 388.613 120.136C388.613 125.032 388.613 125.032 383.618 125.032C381.808 124.96 379.998 124.96 377.681 124.96Z" fill="#FDFDFD"/>
<path d="M367.834 108.184C372.323 108.184 376.305 108.184 380.288 108.184C380.939 108.184 381.88 108.04 382.242 108.832C382.749 109.84 381.736 110.272 381.156 110.848C375.654 116.608 372.396 116.104 367.834 108.184Z" fill="#F7F8FA"/>
</g>
<g clip-path="url(#clip2)">
<path d="M433 51.6C433 52.5 433.1 53.5 433 54.3C432.8 55.1 432.3 55.7 431.9 56.5C431.1 55.9 429.9 55.5 429.6 54.7C429.2 53.4 429.4 51.9 429.3 50.5C429.2 49.1 428.9 47.6 429.1 46.2C429.2 45.5 430 44.7 430.5 44C431.1 44.5 432.2 45 432.3 45.6C432.8 47.6 432.9 49.6 433 51.6C433.1 51.5 433.1 51.5 433 51.6Z" fill="black"/>
<path d="M434.1 66.9C434.1 67.4 434.4 68 434.2 68.4C433.9 69.1 433.4 70 432.9 70.1C432.4 70.2 431.3 69.4 431.2 68.9C430.8 66.8 430.6 64.6 430.6 62.5C430.6 61.9 431.7 61.4 432.3 60.8C432.7 61.4 433.4 61.9 433.6 62.6C433.8 64 433.9 65.5 434.1 66.9Z" fill="black"/>
<path d="M421.3 61.4C421.1 61.3 420.2 61 420 60.5C419.9 60 420.3 58.7 420.7 58.6C423.1 58.1 425.5 57.8 427.9 57.7C428.2 57.7 428.9 58.8 428.8 59.2C428.6 59.8 428 60.5 427.4 60.7C425.6 61 423.7 61.1 421.3 61.4Z" fill="black"/>
<path d="M440.8 56.1C442 56.7 444.3 57.4 444.3 58C444.2 60.2 442 59.7 440.6 59.9C439.2 60.1 437.7 59.8 436.3 59.6C435.9 59.5 435.4 58.7 435.4 58.3C435.4 57.9 436.1 57.4 436.6 57.3C437.9 57 439.2 56.9 440.5 56.7C440.6 56.4 440.7 56.3 440.8 56.1Z" fill="black"/>
</g>
<g clip-path="url(#clip3)">
<path d="M46.8 179.3C46.3 179.9 45.5 181.5 44.3 182C43.1 182.5 41.1 182.3 40.2 181.6C39.3 180.8 39.2 179 39 177.6C39 177.2 39.9 176.6 40.4 176.1C40.7 176.7 41 177.3 41.2 177.9C41.5 178.5 41.7 179.3 42.2 179.8C42.3 179.9 43.1 179.4 43.6 179.2C43.3 178.5 42.9 177.9 42.6 177.3C42.3 176.7 42 176.1 41.8 175.6C42.4 175.4 43.1 174.9 43.7 175C45.6 175.3 46.7 176.5 46.8 179.3Z" fill="black"/>
<path d="M64.1 201.4C63.1 202.1 62.5 203 62 202.9C61.3 202.7 60.3 201.9 60.4 201.4C60.4 200.7 61.4 200.1 61.9 199.5C62.5 200 63.1 200.6 64.1 201.4Z" fill="black"/>
</g>
<g clip-path="url(#clip4)">
<path d="M456.671 295.286C455.862 296.139 456.716 297.262 456.761 298.429C456.761 298.923 456.761 299.416 456.761 299.91C456.581 299.955 456.446 300 456.266 300.045C455.906 299.371 455.502 298.743 455.277 298.07C454.288 294.882 453.478 291.65 452.444 288.507C451.995 287.116 451.275 285.769 450.556 284.467C449.432 282.447 447.004 282.222 445.205 282.492C444.89 282.536 444.621 282.896 444.261 283.165C443.586 282.492 442.822 282.716 442.013 283.075C441.383 283.345 440.754 283.614 440.079 283.659C439.719 283.704 439.36 283.3 439 283.12C439.225 282.851 439.36 282.447 439.629 282.312C440.933 281.684 442.282 281.145 443.631 280.561C448.263 278.496 450.016 273.558 449.117 268.934C448.622 266.42 448.038 263.906 447.588 261.347C447.498 260.898 447.858 260.449 448.038 260C448.308 260.359 448.667 260.629 448.802 261.033C449.656 263.322 450.286 265.746 451.365 267.901C453.164 271.538 457.255 274.052 461.797 273.782C462.067 273.782 462.336 273.648 462.561 273.737C463.056 273.917 463.505 274.186 463.955 274.411C463.685 274.86 463.505 275.398 463.146 275.713C461.752 276.97 460.133 277.957 458.919 279.349C455.817 282.851 454.917 287.071 455.547 291.605C455.637 292.144 455.682 292.727 455.817 293.266C456.041 293.895 456.356 294.478 456.671 295.286ZM446.239 280.651C448.173 281.01 450.196 281.235 451.365 283.03C452.354 284.646 453.209 286.352 454.018 287.879C454.108 285.589 454.558 283.255 455.862 281.19C457.165 279.169 458.694 277.329 459.953 275.623C458.469 275.084 456.671 274.635 455.187 273.737C453.658 272.84 452.399 271.493 451.005 270.415C450.466 275.713 450.286 276.072 446.239 280.651Z" fill="black"/>
</g>
<path d="M308.481 21.2013C310.782 19.7881 312.197 17.4917 313.436 15.1952C315.913 10.9556 318.036 6.71599 321.221 2.82968C319.628 2.65303 318.036 2.47637 316.443 2.29972C316.267 8.65913 313.966 14.4886 312.551 20.4947C312.197 22.0846 314.674 22.2612 315.559 21.9079C321.398 19.9647 327.236 18.0216 333.075 16.4317C332.368 15.5485 331.66 14.4886 330.952 13.6053C326.706 16.785 323.167 20.3181 319.628 24.0277C318.567 25.2643 319.628 26.3242 320.867 26.5008C325.113 27.2074 329.36 27.0308 333.606 26.6775C333.252 25.6176 333.075 24.5577 332.721 23.4978C327.944 25.4409 323.698 28.2673 319.451 31.0937C316.62 33.0369 320.867 34.6267 322.813 33.3902C326.706 30.7404 330.598 28.2673 335.022 26.3241C337.322 25.4409 336.437 22.9678 334.137 23.1445C330.244 23.3211 326.529 23.6744 322.813 22.9678C323.167 23.8511 323.698 24.5576 324.052 25.4409C327.236 21.9079 330.598 18.7282 334.491 15.7251C336.614 14.1353 334.314 12.3688 332.368 12.8987C326.529 14.4886 320.69 16.4317 314.851 18.3749C315.913 18.9048 316.797 19.4348 317.859 19.7881C319.274 13.782 321.398 7.77587 321.751 1.59311C321.928 -0.879997 318.036 0.00327563 316.974 1.06318C314.851 3.53628 312.905 6.36267 311.135 9.18907C309.189 12.1921 308.304 16.7851 304.943 18.7282C302.112 20.6714 306.358 22.4378 308.481 21.2013Z" fill="black"/>
<defs>
<clipPath id="clip0">
<rect width="25" height="40" fill="white" transform="translate(0 90)"/>
</clipPath>
<clipPath id="clip1">
<rect width="388" height="324" fill="white" transform="translate(40 22)"/>
</clipPath>
<clipPath id="clip2">
<rect width="24.3" height="26.1" fill="white" transform="translate(420 44)"/>
</clipPath>
<clipPath id="clip3">
<rect width="25.1" height="27.9" fill="white" transform="translate(39 175)"/>
</clipPath>
<clipPath id="clip4">
<rect width="25" height="40" fill="white" transform="translate(439 260)"/>
</clipPath>
</defs>
</svg>
