<svg width="475" height="419" viewBox="0 0 475 419" fill="none" xmlns="http://www.w3.org/2000/svg">
<path fill-rule="evenodd" clip-rule="evenodd" d="M285.314 19.1114C325.748 21.7371 340.881 73.8387 368.727 103.206C390.124 125.772 413.497 144.332 429.381 171.049C449.653 205.145 483.575 240.381 473.006 278.597C462.462 316.725 416.197 331.355 380.369 348.284C350.431 362.429 318.203 363.337 285.314 367.28C246.843 371.893 206.097 391.757 172.073 373.258C137.259 354.33 114.169 313.146 113.022 273.605C111.947 236.582 151.421 213.088 166.44 179.216C179.117 150.626 174.969 116.956 193.621 91.8354C217.446 59.7475 245.374 16.5178 285.314 19.1114Z" fill="#EDEFA9"/>
<g clip-path="url(#clip0)">
<path d="M40.9549 234.077C40.9549 234.559 41.0084 235.096 40.9549 235.525C40.8479 235.954 40.5804 236.276 40.3665 236.705C39.9385 236.383 39.2965 236.169 39.136 235.739C38.922 235.042 39.029 234.238 38.9755 233.487C38.922 232.736 38.7615 231.931 38.8685 231.18C38.922 230.805 39.35 230.375 39.6175 230C39.9385 230.268 40.5269 230.536 40.5804 230.858C40.8479 231.931 40.9014 233.004 40.9549 234.077C41.0084 234.023 41.0084 234.023 40.9549 234.077Z" fill="black"/>
<path d="M41.5433 242.284C41.5433 242.552 41.7038 242.874 41.5968 243.088C41.4363 243.464 41.1688 243.946 40.9014 244C40.6339 244.054 40.0454 243.625 39.9919 243.356C39.7779 242.23 39.6709 241.05 39.6709 239.923C39.6709 239.602 40.2594 239.333 40.5804 239.011C40.7944 239.333 41.1688 239.602 41.2758 239.977C41.3828 240.728 41.4363 241.533 41.5433 242.284Z" fill="black"/>
<path d="M34.6955 239.333C34.5885 239.28 34.107 239.119 34 238.851C33.9465 238.582 34.1605 237.885 34.3745 237.831C35.6585 237.563 36.9424 237.402 38.2264 237.349C38.3868 237.349 38.7613 237.939 38.7078 238.153C38.6008 238.475 38.2798 238.851 37.9589 238.958C36.9959 239.119 35.9794 239.172 34.6955 239.333Z" fill="black"/>
<path d="M45.1277 236.49C45.7696 236.812 47.0001 237.188 47.0001 237.51C46.9466 238.69 45.7696 238.421 45.0207 238.529C44.2717 238.636 43.4692 238.475 42.7203 238.368C42.5063 238.314 42.2388 237.885 42.2388 237.67C42.2388 237.456 42.6133 237.188 42.8807 237.134C43.5762 236.973 44.2717 236.92 44.9672 236.812C45.0207 236.651 45.0742 236.598 45.1277 236.49Z" fill="black"/>
</g>
<g clip-path="url(#clip1)">
<path d="M86.1474 90.853C85.6892 91.3907 84.9562 92.8244 83.8566 93.2724C82.757 93.7204 80.9243 93.5412 80.0996 92.914C79.2749 92.1971 79.1833 90.5842 79 89.3297C79 88.9713 79.8247 88.4337 80.2829 87.9857C80.5578 88.5233 80.8327 89.0609 81.0159 89.5986C81.2908 90.1362 81.4741 90.853 81.9323 91.3011C82.0239 91.3907 82.757 90.9427 83.2151 90.7634C82.9402 90.1362 82.5737 89.5986 82.2988 89.0609C82.0239 88.5233 81.749 87.9857 81.5657 87.5376C82.1155 87.3584 82.757 86.9104 83.3068 87C85.0478 87.2688 86.0558 88.3441 86.1474 90.853Z" fill="black"/>
<path d="M102 110.656C101.084 111.283 100.534 112.09 100.076 112C99.4341 111.821 98.5178 111.104 98.6094 110.656C98.6094 110.029 99.5257 109.491 99.9839 108.953C100.534 109.401 101.084 109.939 102 110.656Z" fill="black"/>
</g>
<g clip-path="url(#clip2)">
<path d="M21.9119 58.1077C20.9083 59.174 21.9676 60.5769 22.0234 62.0359C22.0234 62.6532 22.0234 63.2705 22.0234 63.8878C21.8004 63.9439 21.6331 64 21.4101 64.0561C20.964 63.2144 20.4622 62.4287 20.1835 61.587C18.9568 57.6027 17.9532 53.5623 16.6709 49.6341C16.1133 47.8945 15.2212 46.211 14.3291 44.5836C12.9353 42.0584 9.92446 41.7778 7.69425 42.1145C7.30396 42.1706 6.96943 42.6195 6.52338 42.9562C5.68705 42.1145 4.73921 42.3951 3.73561 42.844C2.95504 43.1807 2.17446 43.5174 1.33813 43.5735C0.892086 43.6296 0.446043 43.1246 0 42.9001C0.278777 42.5634 0.446043 42.0584 0.780576 41.89C2.39748 41.1044 4.07014 40.431 5.74281 39.7015C11.4856 37.1201 13.6601 30.9473 12.545 25.1672C11.9317 22.0247 11.2068 18.8822 10.6493 15.6835C10.5378 15.1223 10.9838 14.5612 11.2068 14C11.5414 14.4489 11.9874 14.7856 12.1547 15.2907C13.214 18.1526 13.9946 21.1829 15.3327 23.8765C17.563 28.422 22.6367 31.5645 28.268 31.2278C28.6025 31.2278 28.9371 31.0595 29.2158 31.1717C29.8291 31.3962 30.3867 31.7329 30.9442 32.0135C30.6097 32.5746 30.3867 33.248 29.9407 33.6409C28.2122 35.2121 26.205 36.4467 24.6996 38.1863C20.8525 42.5634 19.7374 47.8384 20.518 53.5062C20.6295 54.1796 20.6853 54.9091 20.8525 55.5825C21.1313 56.3681 21.5216 57.0976 21.9119 58.1077ZM8.97662 39.8137C11.3741 40.2626 13.8831 40.5432 15.3327 42.7879C16.5594 44.8081 17.6187 46.9405 18.6223 48.8485C18.7338 45.9865 19.2914 43.0685 20.9083 40.4871C22.5252 37.9618 24.4209 35.6611 25.982 33.5286C24.1421 32.8552 21.9119 32.2941 20.0719 31.1717C18.1763 30.0494 16.6151 28.3659 14.8867 27.0191C14.2176 33.6409 13.9946 34.0898 8.97662 39.8137Z" fill="black"/>
</g>
<ellipse cx="289" cy="40.5" rx="36" ry="36.5" fill="#FDFDFD"/>
<path d="M323.5 36.5C323.5 55.8495 308.034 71.5 289 71.5C269.966 71.5 254.5 55.8495 254.5 36.5C254.5 17.1505 269.966 1.5 289 1.5C308.034 1.5 323.5 17.1505 323.5 36.5Z" stroke="black" stroke-width="3"/>
<path d="M288 15V39H300" stroke="black" stroke-width="3"/>
<g clip-path="url(#clip3)">
<path d="M337.584 291.741C337.481 291.741 337.328 291.741 337.225 291.843C334.104 293.53 331.239 292.866 328.476 290.821C327.299 289.951 325.917 289.389 324.638 288.724C323.871 288.724 323.359 288.213 322.745 287.906C316.144 284.225 309.544 280.441 302.892 276.76C302.227 276.402 301.562 276.147 300.845 276.044C297.11 275.482 293.426 274.766 289.691 274.153C289.128 274.05 288.514 273.948 287.951 273.897C273.419 271.392 258.837 268.937 244.305 266.432C243.64 266.33 243.026 266.228 242.361 266.228C241.798 266.074 241.184 265.972 240.723 265.563C239.7 265.358 238.677 265.103 237.449 264.847C238.063 264.387 238.523 263.978 238.984 263.62C254.129 252.065 270.298 242.095 286.979 232.892C296.598 227.626 306.269 222.513 316.042 217.502C316.503 217.246 316.963 216.991 317.372 216.684C319.112 214.997 321.261 214.332 323.615 214.69C326.634 215.099 329.704 214.946 332.723 215.048C337.277 215.201 341.83 215.304 346.384 215.406C353.292 215.559 360.2 215.61 367.107 215.61C369.205 215.61 371.252 215.355 373.298 215.252C374.68 215.201 374.833 215.252 375.396 216.531C377.443 220.365 379.439 224.2 380.615 228.392C385.016 244.038 381.946 258.098 371.763 270.676C371.508 271.034 371.252 271.392 370.945 271.75C369.717 273.488 368.182 274.92 366.596 276.249C358.46 283.202 349.045 287.957 338.965 291.434C338.556 291.69 338.095 291.894 337.584 291.741Z" fill="#FE0E11"/>
<path d="M288.566 163.152C288.412 162.999 288.31 162.743 288.156 162.743C286.468 162.692 286.928 161.925 287.491 161.005C289.691 157.477 291.994 154.103 294.654 150.933C299.004 145.717 304.376 141.883 310.516 139.071C313.279 137.844 316.145 136.719 319.266 136.719C319.982 136.719 320.596 136.923 321.313 137.026C321.722 137.537 321.927 138.15 322.131 138.764C323.052 141.985 323.359 145.308 323.769 148.581C324.28 152.722 324.587 156.915 324.946 161.056C325.048 162.181 324.946 163.306 325.201 164.431C325.304 165.095 325.611 165.453 326.327 165.402C329.602 165.249 332.877 165.249 336.151 164.993C336.816 164.942 337.43 164.891 338.096 164.942C340.194 165.044 342.24 164.686 344.287 164.686C345.157 164.686 345.617 164.175 345.975 163.51C346.896 161.976 347.562 160.289 348.278 158.653C351.45 151.342 354.265 143.877 357.079 136.463C357.232 136.054 357.335 135.594 357.437 135.185C357.744 134.623 357.897 134.009 358.358 133.549C359.381 131.913 359.688 131.81 361.735 132.271C364.498 132.935 367.108 134.06 369.666 135.236C375.704 138.048 381.588 141.116 387.063 144.899C390.389 147.2 393.05 150.166 395.352 153.489C395.659 153.949 395.864 154.512 396.375 154.767C396.785 154.767 396.836 155.074 396.887 155.33C397.706 158.448 398.627 161.567 399.599 164.635C399.65 164.891 399.701 165.095 399.65 165.351C399.497 165.811 399.036 165.964 398.627 166.067C397.808 165.862 397.245 166.425 396.631 166.782C395.557 166.629 394.533 166.987 393.51 167.243C387.779 168.572 382.049 169.799 376.318 171.18C376.215 171.18 376.164 171.128 376.113 171.128C375.755 170.924 375.704 170.106 375.192 170.361C374.629 170.617 374.936 171.333 375.039 171.793C375.499 174.503 375.806 177.264 376.113 179.974C376.164 180.332 376.164 180.689 376.062 181.047C375.96 181.303 375.806 181.507 375.55 181.661C374.834 181.559 374.118 181.405 373.401 181.559C364.242 183.399 354.981 184.78 345.822 186.723C340.705 187.796 335.691 189.023 330.728 190.66C328.937 191.273 328.63 191.12 327.913 189.279C324.536 180.996 321.108 172.764 317.68 164.482C316.963 162.794 316.963 162.743 315.224 162.846C311.079 163.05 306.986 163.459 302.841 163.715C298.748 163.97 294.654 164.431 290.561 164.584C290.203 164.584 289.538 164.737 289.64 164.124C289.947 163.203 289.128 163.357 288.566 163.152Z" fill="#007BFF"/>
<path d="M396.887 166.782C397.143 165.76 397.757 165.606 398.627 166.067C399.087 166.22 399.138 166.629 399.292 167.038C401.594 174.094 403.539 181.303 404.716 188.665C404.818 189.484 404.818 190.302 404.869 191.12C404.869 191.733 405.125 192.091 405.739 191.938C407.479 191.58 409.218 191.682 410.958 191.478C411.93 191.375 412.135 190.915 411.981 190.046C411.316 186.62 410.6 183.195 409.781 179.82C409.065 176.753 408.144 173.787 407.325 170.77C407.069 169.901 406.66 169.441 405.688 169.288C403.692 168.93 402.106 167.805 400.622 166.476C400.366 166.271 400.162 165.964 400.059 165.709C399.804 165.146 399.701 164.584 400.315 164.175C400.878 163.766 401.39 164.021 401.85 164.482C402.464 165.197 403.181 165.811 403.692 166.067C402.26 165.044 400.827 163.459 399.343 161.976C398.883 161.516 398.78 160.954 399.292 160.442C399.804 159.931 400.366 160.085 400.827 160.494C402.311 161.925 403.948 163.203 405.381 164.686C403.641 159.164 401.594 153.745 399.445 148.376C399.241 147.916 399.087 147.456 398.934 146.996C398.729 146.28 398.678 145.513 399.548 145.257C400.315 145.002 400.725 145.666 400.98 146.229C401.594 147.558 402.106 148.939 402.618 150.319C405.432 157.579 407.939 164.891 410.139 172.355C410.6 174.043 411.265 175.679 411.214 177.468C412.186 181.559 413.158 185.649 414.028 189.739C414.489 183.911 415.154 178.082 416.331 172.407C416.126 171.742 416.28 171.077 416.433 170.361C417.661 165.249 419.196 160.238 421.294 155.432C421.55 154.869 421.55 154.256 421.55 153.642C421.447 149.757 421.396 145.82 422.317 142.036C422.42 141.525 422.522 141.014 422.778 140.553C423.034 140.144 423.392 139.838 423.903 139.94C424.466 140.042 424.722 140.451 424.773 140.962C424.824 141.474 424.671 141.934 424.569 142.394C424.006 145.002 423.699 147.66 423.596 150.626C425.592 146.893 427.69 143.57 430.095 140.451C431.323 138.866 432.653 137.435 433.983 135.901C434.342 135.492 434.7 135.134 435.16 134.827C435.621 134.52 436.133 134.367 436.593 134.827C437.054 135.287 437.002 135.798 436.695 136.259C436.491 136.668 436.184 136.974 435.877 137.281C430.76 142.445 426.974 148.53 423.955 155.125C421.601 160.34 419.861 165.709 418.582 171.282C418.48 171.64 418.48 171.998 418.122 172.253C417.098 176.037 416.689 179.871 416.228 183.757C416.024 185.547 415.921 187.336 415.768 189.228C416.484 188.308 416.74 187.234 417.149 186.262C418.224 183.297 420.117 180.843 422.113 178.491C426.155 173.634 430.913 169.492 435.826 165.555C438.998 162.999 442.119 160.442 445.24 157.784C445.343 157.682 445.394 157.63 445.496 157.528C446.008 157.119 446.571 156.812 447.134 157.375C447.748 157.988 447.389 158.551 446.929 159.113C446.571 159.522 446.161 159.931 445.701 160.289C441.249 164.073 436.644 167.652 432.193 171.486C426.667 176.241 421.754 181.456 418.48 188.103C418.326 188.41 418.122 188.768 417.866 188.972C417.559 189.739 417.201 190.506 416.791 191.478C417.508 191.426 417.968 191.426 418.48 191.375C420.731 191.12 422.624 191.784 423.801 193.778C424.978 195.772 424.722 197.715 423.392 199.556C423.341 199.658 423.289 199.76 423.187 199.965C427.741 199.607 432.193 199.3 436.695 198.942C443.603 198.431 450.562 197.869 457.469 197.357C458.186 197.306 458.902 197.255 459.67 197.153C460.232 197.102 460.898 197.051 461 197.818C461.102 198.584 460.488 198.738 459.874 198.789C457.674 198.942 455.474 199.147 453.325 199.3C446.366 199.812 439.356 200.374 432.397 200.885C425.592 201.397 418.787 201.908 411.981 202.47C405.074 202.982 398.115 203.544 391.207 204.055C386.295 204.413 381.383 204.822 376.471 205.231C375.908 205.64 375.294 205.742 374.629 205.794C368.336 206.203 362.093 206.765 355.8 207.225C349.966 207.634 344.133 208.094 338.3 208.555C331.444 209.066 324.587 209.526 317.782 210.14C316.81 210.242 315.889 209.679 314.917 210.037C309.749 210.395 304.53 210.753 299.362 211.162C292.454 211.673 285.495 212.236 278.588 212.747C270.606 213.361 262.623 213.974 254.641 214.588C247.887 215.099 241.082 215.61 234.328 216.173C234.174 216.173 234.021 216.173 233.816 216.173C233.253 216.224 232.69 216.173 232.69 215.457C232.639 214.69 233.253 214.639 233.765 214.588C234.891 214.485 236.016 214.383 237.193 214.332C245.073 213.719 253.004 213.156 260.884 212.543C261.805 212.491 262.726 212.389 263.8 212.287C262.777 209.577 261.754 206.97 260.73 204.362C256.228 192.807 251.725 181.303 247.222 169.748C246.608 168.214 246.813 167.856 248.45 167.754C258.786 166.987 269.122 166.22 279.458 165.453C281.811 165.3 284.165 165.044 286.519 164.942C287.696 164.891 288.463 164.533 288.668 163.306C289.282 162.743 289.845 163.255 290.51 163.306C290.305 163.715 290.152 164.073 289.896 164.635C291.789 164.482 293.58 164.379 295.371 164.226C302.227 163.715 309.084 163.255 315.889 162.641C317.015 162.539 317.475 162.846 317.884 163.817C321.466 172.56 325.048 181.252 328.63 189.995C328.885 190.608 328.988 191.12 329.96 190.762C338.351 187.95 346.948 186.211 355.595 184.626C361.684 183.502 367.722 182.377 373.81 181.252C374.476 181.15 375.294 180.792 375.704 181.712C376.062 182.428 375.499 182.632 375.039 182.888C374.476 183.195 373.862 183.246 373.299 183.348C365.112 184.933 356.874 186.262 348.687 187.899C343.059 189.023 337.482 190.353 332.007 192.091C330.216 192.654 330.165 192.756 330.881 194.443C331.853 196.744 332.825 199.096 333.746 201.448C334.104 202.317 334.565 202.624 335.486 202.47C339.784 201.806 344.133 201.55 348.483 201.294C352.934 201.039 357.386 200.988 361.888 200.783C370.945 200.374 380.002 200.783 389.058 200.578C392.947 200.476 396.836 200.323 400.725 199.965C401.646 199.863 402.004 199.607 401.697 198.584C401.287 197.204 401.441 195.824 402.106 194.545C402.72 193.472 402.72 192.398 402.618 191.273C402.055 183.195 399.343 175.628 397.194 167.958C397.041 167.6 396.836 167.243 396.887 166.782Z" fill="black"/>
<path d="M288.156 273.641C288.719 273.59 289.282 273.744 289.794 273.897C290.203 274.306 290.152 274.868 290.152 275.38C290.049 281.004 290.408 286.577 290.715 292.15C291.022 297.569 291.38 302.989 291.789 308.409C292.199 313.982 292.659 319.555 293.12 325.179C293.682 331.979 294.296 338.779 294.962 345.579C295.32 349.312 295.678 352.993 296.036 356.725C296.19 358.259 296.292 358.259 297.827 358.361C302.432 358.668 307.088 358.566 311.745 358.617C312.103 358.617 312.461 358.668 312.819 358.668C314.354 358.822 314.405 358.822 314.763 357.237C317.271 346.039 319.42 334.791 320.852 323.441C321.876 315.413 321.773 307.284 321.62 299.206C321.569 296.342 321.364 293.428 321.006 290.565C320.75 288.622 321.313 287.855 323.001 287.651C323.615 287.855 324.178 288.213 324.741 288.622C322.899 289.593 322.95 289.593 323.104 291.639C324.178 304.114 324.025 316.538 322.132 328.962C320.648 338.728 318.754 348.442 316.657 358.106C316.554 358.566 316.043 359.231 317.168 359.231C317.578 359.231 317.424 359.691 317.373 359.895C316.708 364.804 316.094 369.712 315.429 374.62C314.866 375.132 314.098 375.183 313.382 375.387C310.67 376.256 308.009 377.279 305.349 378.25C303.916 378.762 303.865 378.711 303.558 377.177C303.302 375.745 302.944 374.314 302.227 373.035C301.204 371.195 299.771 370.428 297.673 370.786C295.883 371.092 294.45 372.013 293.324 373.444C292.915 373.956 292.659 374.671 291.84 374.774C292.301 369.712 292.71 364.65 293.171 359.589C293.222 359.179 293.017 358.566 293.836 358.617C294.399 358.617 294.143 358.157 294.092 357.85C293.682 353.402 293.222 348.954 292.813 344.506C292.199 337.654 291.533 330.752 290.971 323.85C290.305 315.874 289.691 307.897 289.128 299.921C288.77 294.553 288.514 289.236 288.259 283.867C288.259 283.509 288.259 283.151 288.259 282.844C287.849 282.64 287.645 282.896 287.389 282.998C283.398 285.043 279.355 287.088 275.364 289.082C274.75 289.389 274.597 289.747 274.648 290.411C276.03 305.085 275.569 319.708 272.96 334.229C271.527 342.154 270.043 350.079 268.303 358.004C268.201 358.464 267.689 359.18 268.866 359.18C269.327 359.18 269.02 359.742 268.968 359.998C268.457 364.241 267.894 368.434 267.382 372.677C267.28 373.342 267.229 373.956 267.126 374.62C266.512 375.08 265.745 375.132 265.08 375.336C262.419 376.205 259.758 377.126 257.149 378.148C255.767 378.711 255.409 378.506 255.204 377.023C255.051 375.95 254.795 374.978 254.386 373.956C253.055 370.581 250.088 369.61 246.966 371.553C246.045 372.166 245.278 372.933 244.613 373.853C244.357 374.211 244.152 374.723 243.538 374.723C243.896 370.326 244.255 365.928 244.613 361.48C244.664 360.816 244.715 360.202 244.766 359.537C244.817 359.077 244.715 358.566 245.483 358.515C246.045 358.464 245.738 357.901 245.687 357.646C245.329 353.76 244.971 349.874 244.613 345.988C243.999 339.137 243.334 332.337 242.771 325.486C242.106 317.663 241.492 309.84 240.929 302.069C240.212 291.639 239.547 281.259 239.854 270.778C239.905 268.937 240.059 267.148 240.571 265.358C241.133 265.358 241.696 265.358 242.157 265.665C242.361 266.074 242.259 266.432 242.208 266.841C241.799 270.165 241.492 273.488 241.645 276.811C241.901 281.873 241.901 286.935 242.259 291.996C242.566 296.394 242.822 300.842 243.078 305.239C243.282 308.716 243.589 312.192 243.845 315.669C244.203 320.219 244.562 324.719 244.971 329.269C245.431 334.229 245.841 339.239 246.301 344.199C246.659 348.085 247.018 351.97 247.376 355.856C247.427 356.214 247.478 356.572 247.478 356.93C247.58 357.85 248.041 358.106 248.911 358.157C252.186 358.464 255.511 358.361 258.786 358.361C260.628 358.361 262.419 358.515 264.261 358.617C265.694 358.668 265.847 358.515 266.154 357.134C267.894 349.261 269.48 341.387 270.759 333.462C271.476 328.86 272.192 324.208 272.601 319.555C272.755 318.123 272.857 316.692 272.908 315.311C273.011 311.579 273.42 307.846 273.164 304.114C272.908 299.461 272.857 294.757 272.346 290.156C272.192 288.622 272.346 288.162 273.778 287.446C277.769 285.452 281.76 283.458 285.803 281.464C287.542 280.595 287.542 280.595 287.389 278.703C287.286 277.323 287.338 275.942 287.389 274.562C287.747 274.357 287.747 273.897 288.156 273.641Z" fill="black"/>
<path d="M291.841 374.876C292.25 374.365 292.71 373.802 293.12 373.291C294.45 371.706 296.036 370.632 298.185 370.479C299.976 370.326 301.307 371.092 302.279 372.575C303.251 374.109 303.711 375.847 303.916 377.637C304.018 378.557 304.325 378.455 304.939 378.199C307.805 377.075 310.67 375.95 313.638 375.081C314.201 374.927 314.815 374.825 315.429 374.723C315.838 380.756 315.531 386.84 315.429 392.873C315.429 393.333 315.326 393.589 314.815 393.691C314.405 393.742 313.996 394.1 313.638 394.305C303.456 400.491 293.222 406.576 282.426 411.586C281.965 411.791 281.454 411.995 280.993 412.251C280.43 412.507 280.072 412.865 280.379 413.478C280.635 414.04 281.147 413.989 281.658 413.734C283.398 412.916 285.138 412.149 286.826 411.28C296.241 406.576 305.298 401.258 314.303 395.788C314.559 395.634 314.764 395.532 315.224 395.225C315.224 397.475 315.173 399.52 314.457 401.514C314.252 402.179 313.587 402.434 312.922 402.639C311.642 402.997 310.312 403.355 309.033 403.559C307.396 403.866 306.219 404.684 305.605 406.167C304.735 408.416 303.2 409.234 300.846 408.979C298.595 408.723 297.06 409.746 296.139 411.791C295.115 414.092 293.017 414.807 290.817 414.756C288.157 414.654 286.212 415.523 284.268 417.262C281.095 420.074 275.262 419.153 272.806 415.728C271.578 413.989 271.476 412.098 272.09 410.155C272.755 408.007 273.881 406.116 275.467 404.582C281.454 398.651 285.138 391.391 288.157 383.721C289.282 380.756 290.561 377.841 291.841 374.876Z" fill="#020A13"/>
<path d="M243.641 374.927C244.357 374.109 244.869 373.138 245.687 372.422C246.711 371.501 247.836 370.888 249.218 370.581C251.213 370.172 252.8 370.837 253.925 372.524C254.898 374.007 255.409 375.694 255.563 377.432C255.665 378.455 255.972 378.506 256.842 378.148C259.707 377.023 262.573 375.899 265.54 375.029C266.052 374.876 266.615 374.62 267.178 374.774C267.382 380.807 267.382 386.891 267.075 392.924C267.075 393.18 267.127 393.436 266.768 393.64C262.214 395.992 257.916 398.855 253.465 401.412C246.762 405.195 240.008 408.979 232.947 412.149C232.384 412.404 231.667 412.66 232.077 413.427C232.435 414.245 233.1 413.836 233.663 413.631C243.129 409.337 252.083 404.173 260.986 398.855C262.982 397.679 264.926 396.503 267.075 395.174C266.871 397.321 266.871 399.213 266.41 401.105C266.206 402.025 265.489 402.434 264.722 402.639C263.494 402.997 262.214 403.303 260.935 403.559C259.247 403.866 257.968 404.684 257.354 406.32C256.535 408.467 255.051 409.234 252.8 409.03C250.548 408.774 248.911 409.695 247.939 411.842C246.915 414.092 244.818 414.859 242.617 414.807C240.059 414.756 238.063 415.523 236.119 417.262C232.947 420.074 227.318 419.358 224.709 415.983C223.327 414.245 223.276 412.251 223.839 410.206C224.453 408.058 225.63 406.167 227.165 404.633C233.049 398.753 236.784 391.595 239.752 383.977C240.98 380.909 242.157 377.841 243.641 374.927Z" fill="#020A13"/>
<path d="M337.583 291.741C343.161 289.798 348.585 287.599 353.752 284.787C359.893 281.413 365.521 277.476 370.382 272.363C370.587 272.159 370.791 272.005 371.047 271.801C377.494 272.67 383.685 274.255 389.365 277.527C391.361 278.703 393.203 280.083 394.635 281.975C397.347 285.503 397.143 289.338 393.97 292.508C391.054 295.422 387.37 296.905 383.532 298.03C375.703 300.279 367.67 300.484 359.637 299.615C353.65 298.95 347.919 297.57 342.496 294.911C340.756 293.99 339.016 293.07 337.583 291.741Z" fill="black"/>
<path d="M361.889 377.33C357.693 377.279 351.962 376.41 346.641 373.905C345.004 373.138 343.469 372.115 342.189 370.786C339.58 368.076 339.682 365.008 342.599 362.554C345.055 360.458 348.023 359.537 351.093 358.822C354.06 358.157 357.13 357.901 360.149 357.952C360.866 357.952 361.121 357.85 361.173 357.083C361.684 349.976 362.247 342.818 362.81 335.711C363.424 327.735 364.038 319.759 364.652 311.783C364.857 309.176 365.061 306.619 365.215 304.012C365.266 303.551 365.266 303.142 365.317 302.682C365.368 302.12 365.573 301.609 366.289 301.66C366.955 301.711 367.006 302.222 366.955 302.785C366.852 304.012 366.801 305.239 366.699 306.415C365.931 316.436 365.112 326.508 364.345 336.529C363.833 343.381 363.322 350.232 362.759 357.083C362.708 357.85 362.861 358.106 363.68 358.157C368.694 358.617 373.555 359.64 377.956 362.196C379.439 363.065 380.821 364.088 381.793 365.519C383.328 367.718 383.175 370.019 381.435 371.962C379.593 374.007 377.086 375.08 374.527 375.847C370.946 376.921 367.262 377.33 361.889 377.33Z" fill="black"/>
<path d="M418.121 172.202C418.838 167.856 420.168 163.664 421.703 159.573C424.978 150.933 429.532 143.11 436.081 136.463C436.184 136.361 436.235 136.31 436.337 136.207C436.695 135.798 436.951 135.287 436.439 134.827C435.928 134.418 435.518 134.725 435.16 135.083C433.523 136.719 431.988 138.457 430.555 140.298C427.843 143.723 425.592 147.405 423.443 151.495C423.136 149.399 423.443 147.558 423.648 145.769C423.801 144.337 424.159 142.905 424.466 141.474C424.569 140.86 424.671 140.247 423.955 140.093C423.187 139.94 423.034 140.553 422.88 141.116C421.857 145.36 421.498 149.603 422.01 153.949C422.112 154.614 421.806 155.125 421.601 155.688C419.401 160.749 417.814 166.067 416.586 171.435C416.535 171.742 416.484 172.049 416.433 172.355C414.847 170.361 413.465 168.316 412.851 165.811C411.674 161.056 412.442 156.454 413.977 151.904C414.284 150.984 414.744 150.114 415 149.194C415.614 146.842 417.303 145.717 419.554 145.411C420.526 145.257 420.68 144.899 420.475 144.081C419.656 141.167 420.475 138.764 422.522 136.668C423.392 135.747 424.21 134.776 424.927 133.753C426.615 131.453 428.918 130.686 431.63 130.788C432.448 130.839 432.858 130.583 433.165 129.816C433.574 128.845 434.188 127.976 434.649 127.004C436.235 123.885 439.202 123.528 441.914 123.834C444.217 124.09 446.161 126.391 446.775 129.152C447.287 131.555 446.673 133.753 445.701 135.901C443.91 139.735 441.096 142.854 438.128 145.871C435.314 148.734 432.397 151.546 429.532 154.358C427.639 156.25 426.155 158.397 425.029 160.8C423.801 163.561 422.624 166.373 421.038 168.981C420.27 170.31 419.605 171.589 418.121 172.202Z" fill="#00B1B1"/>
<path d="M417.865 188.921C419.81 184.166 422.931 180.178 426.462 176.497C431.271 171.486 436.797 167.294 442.119 162.897C443.705 161.567 445.291 160.238 446.877 158.857C447.287 158.5 447.491 158.039 447.133 157.579C446.724 157.068 446.263 157.272 445.854 157.63C439.202 163.51 431.936 168.623 425.694 174.963C422.368 178.338 419.554 182.121 417.2 186.211C416.893 183.348 418.07 180.894 419.298 178.44C422.573 171.998 427.076 166.476 432.09 161.312C436.49 156.812 441.249 152.62 446.877 149.654C448.412 148.836 450.05 148.172 451.789 147.916C452.352 147.814 452.915 147.763 453.478 147.814C456.855 147.916 458.492 150.166 457.571 153.438C456.65 156.608 454.706 159.267 452.71 161.823C446.622 169.492 439.407 176.088 431.834 182.274C428.662 184.882 425.438 187.387 421.805 189.432C419.656 190.506 419.656 190.506 417.865 188.921Z" fill="#00B1B1"/>
<path d="M314.866 209.935C317.475 209.73 320.034 209.475 322.643 209.27C331.853 208.555 341.115 207.839 350.325 207.123C358.205 206.509 366.136 205.947 374.015 205.333C374.834 205.282 375.653 205.231 376.42 205.18C376.113 208.503 375.806 211.878 375.448 215.201C375.397 215.661 375.397 216.173 375.397 216.633C374.936 215.713 374.271 215.61 373.248 215.713C370.28 216.019 367.312 216.07 364.345 216.07C350.785 216.07 337.175 215.713 323.615 215.15C321.773 215.048 320.085 215.252 318.499 216.275C318.14 216.531 317.782 216.786 317.271 216.786C316.81 215.15 316.759 213.463 316.605 211.776C316.605 210.395 316.196 209.782 314.866 209.935Z" fill="#007BFF"/>
<path d="M411.214 177.417C408.451 166.936 404.87 156.71 400.827 146.689C400.725 146.382 400.623 146.075 400.418 145.82C400.213 145.513 399.906 145.308 399.497 145.513C399.139 145.717 398.934 146.024 399.036 146.382C399.139 146.842 399.343 147.302 399.548 147.763C401.851 153.591 404.051 159.42 405.791 165.504C404.358 164.175 402.976 162.846 401.544 161.516C401.237 161.261 400.981 160.954 400.674 160.698C400.264 160.34 399.804 160.136 399.395 160.647C398.934 161.158 399.241 161.567 399.599 161.925C401.083 163.357 402.618 164.788 404.153 166.169C404.307 166.322 404.511 166.476 404.665 166.731C403.539 166.322 402.516 165.709 401.748 164.737C401.39 164.277 400.981 163.919 400.418 164.379C399.906 164.84 400.111 165.351 400.52 165.76C402.158 167.498 404.051 168.776 406.456 169.032C407.07 169.083 407.274 169.339 407.428 169.85C408.349 173.071 409.321 176.292 410.089 179.565C409.628 180.485 408.861 180.383 408.093 180.025C406.967 179.565 406.149 178.644 405.484 177.724C402.874 174.247 401.185 170.259 399.702 166.22C399.65 166.015 399.65 165.811 399.702 165.606C398.832 162.436 397.655 159.369 396.939 156.148C396.836 155.739 396.683 155.33 396.58 154.869C396.171 152.006 395.506 149.143 395.506 146.178C395.506 144.439 395.506 142.701 396.069 141.014C396.836 138.611 398.013 138.15 400.316 139.224C401.339 139.735 402.106 140.451 402.823 141.32C403.897 142.701 404.767 144.235 405.484 145.82C406.149 147.251 405.637 148.734 405.484 150.166C405.432 150.779 405.484 151.137 406.046 151.444C407.581 152.211 408.451 153.438 408.912 155.176C410.344 160.545 411.572 165.964 411.777 171.589C411.777 173.48 411.675 175.474 411.214 177.417Z" fill="#00B1B1"/>
<path d="M302.893 274.562C302.432 274.562 302.176 274.357 302.023 274.05C301.869 273.795 301.921 273.488 302.176 273.283C302.381 273.079 302.637 272.925 302.893 272.823C310.005 268.937 317.117 265.001 324.23 261.115C324.383 261.013 324.537 260.961 324.639 260.91C325.151 260.603 325.765 260.348 326.123 261.064C326.481 261.728 325.918 262.086 325.406 262.342C318.192 266.279 311.028 270.216 303.865 274.153C303.507 274.306 303.149 274.408 302.893 274.562Z" fill="#010000"/>
<path d="M363.014 240.766C362.809 242.657 362.195 244.805 361.581 246.85C361.069 248.537 360.455 250.224 359.893 251.912C359.688 252.525 359.432 253.139 358.665 252.832C357.948 252.576 358.204 251.963 358.358 251.4C359.432 248.281 360.507 245.214 361.172 241.993C361.274 241.43 361.325 240.868 361.376 240.305C361.428 239.743 361.53 239.181 362.246 239.232C363.014 239.283 363.014 239.896 363.014 240.766Z" fill="#020000"/>
<path d="M376.42 171.231C376.932 175.219 377.495 179.156 377.802 183.195C377.853 183.859 377.904 184.575 377.904 185.24C377.955 185.802 377.699 186.262 377.137 186.262C376.523 186.314 376.318 185.853 376.267 185.291C376.216 183.911 376.216 182.53 375.909 181.201C375.704 178.031 375.243 174.861 374.783 171.742C374.681 171.077 374.118 170.157 375.192 169.85C376.267 169.543 376.062 170.719 376.42 171.231Z" fill="#020202"/>
<path d="M248.706 169.185C251.776 168.93 254.693 168.725 257.609 168.521C267.075 167.805 276.592 167.089 286.058 166.373C294.194 165.76 302.381 165.197 310.516 164.584C312.103 164.482 313.689 164.379 315.275 164.175C315.94 164.124 316.298 164.175 316.554 164.891C322.08 178.44 327.658 191.938 333.235 205.487C333.593 206.305 333.439 206.509 332.57 206.56C321.569 207.276 310.568 208.043 299.567 208.81C288.514 209.577 277.513 210.395 266.461 211.162C265.847 211.213 265.182 211.52 264.773 210.549C259.502 196.795 254.13 183.092 248.706 169.185Z" fill="#FEFEFE"/>
<path d="M385.886 202.828C380.104 203.288 374.322 203.697 368.54 204.157C360.558 204.771 352.576 205.385 344.594 205.998C341.882 206.203 339.17 206.407 336.458 206.612C335.64 206.663 334.667 205.742 334.77 204.924C334.821 204.362 335.384 204.515 335.742 204.464C337.891 204.157 340.091 203.902 342.291 203.697C356.311 202.572 370.382 202.624 384.453 202.675C384.914 202.675 385.425 202.726 385.886 202.726C385.886 202.726 385.886 202.777 385.886 202.828Z" fill="#007BFF"/>
<path d="M335.844 162.13C335.793 162.846 335.742 163.561 335.691 164.328C335.639 164.891 335.435 165.095 334.821 165.095C334.207 165.095 334.053 164.737 334.053 164.226C334.053 163.51 334.156 162.794 334.207 162.027C334.207 161.414 334.309 160.8 335.025 160.8C335.844 160.8 335.895 161.516 335.844 162.13Z" fill="#060606"/>
<path d="M325.099 201.908C325.099 202.266 324.945 202.572 324.638 202.675C324.28 202.828 323.922 202.777 323.666 202.419C323.461 202.112 323.359 201.754 323.206 201.448C319.317 191.784 315.377 182.07 311.539 172.355C311.232 171.64 310.925 171.384 310.158 171.486C298.594 172.355 287.081 173.225 275.517 174.094C269.531 174.554 263.493 174.963 257.507 175.372C257.302 175.372 257.097 175.372 256.892 175.423C256.33 175.474 255.869 175.27 255.869 174.656C255.869 174.094 256.227 173.889 256.739 173.838C258.172 173.736 259.553 173.583 260.986 173.48C269.275 172.867 277.513 172.304 285.802 171.691C294.091 171.077 302.432 170.464 310.721 169.799C311.693 169.697 312.307 169.901 312.716 170.873C316.758 180.945 320.801 191.017 324.843 201.09C324.945 201.345 325.048 201.601 325.099 201.908Z" fill="black"/>
<path d="M365.112 115.347C365.982 109.518 365.112 104.15 361.223 99.446C358.972 96.7362 357.539 93.464 355.902 90.2429C357.693 89.9361 359.125 89.1692 360.2 87.7887C361.888 85.6413 362.656 83.1871 362.451 80.5284C362.298 77.972 361.325 75.7735 358.869 74.5464C354.418 72.2967 348.329 74.5975 346.487 79.1991C346.231 79.8126 346.026 80.0171 345.361 79.966C343.724 79.8126 342.086 80.1705 340.603 80.8863C339.579 81.3465 338.556 81.4487 337.43 81.3976C333.439 81.2442 329.704 82.2157 326.378 84.4653C322.233 87.2263 321.824 90.9587 325.15 94.6399C325.508 95.049 325.611 95.4069 325.611 95.9181C325.508 98.9859 325.406 102.002 325.304 105.07C325.304 105.581 325.201 105.939 324.741 106.297C323.513 107.32 323.154 108.547 323.717 109.979C323.973 110.643 324.024 111.206 323.871 111.819C322.899 116.318 323.001 120.869 323.871 125.368C324.024 126.084 324.229 126.442 325.048 126.34C326.173 126.186 327.299 126.135 328.476 126.084C329.346 126.033 330.881 127.158 330.625 127.669C329.806 129.765 329.243 132.015 327.35 133.549C325.508 135.032 323.462 136.156 321.261 137.077C321.108 137.69 321.671 138.099 321.722 138.662C321.978 138.866 322.285 138.764 322.54 138.662C326.532 136.821 330.318 134.725 331.802 130.123C332.416 128.283 332.262 128.487 334.053 128.947C334.463 129.05 334.923 129.152 335.384 129.203C339.579 129.816 345.412 128.027 347.51 122.505C347.971 121.278 348.38 119.949 347.971 118.67C348.022 118.722 348.022 118.773 348.073 118.824C348.943 123.272 350.631 127.465 352.371 131.606C353.292 133.804 355.288 134.827 357.641 135.185C358.409 134.929 358.307 134.265 358.409 133.651C357.846 133.395 357.283 133.191 356.72 132.935C355.748 132.475 354.623 132.066 354.162 130.992C353.395 129.101 352.678 127.158 351.911 125.061C356.26 124.857 360.456 124.806 364.754 125.061C364.242 123.937 364.191 122.863 364.242 121.738C364.344 119.591 364.805 117.443 365.112 115.347ZM347.971 111.001C347.561 111.512 347.05 111.768 346.385 111.461C345.822 111.206 345.259 111.001 344.952 111.768C344.696 112.484 345.259 112.791 345.822 112.995C346.282 113.148 346.589 113.251 346.589 113.864C346.436 115.705 346.487 117.597 346.282 119.437C345.771 123.579 343.263 126.237 339.119 127.158C334.002 128.283 328.834 125.215 327.76 120.46C327.504 119.335 327.401 118.21 327.299 117.085C326.787 110.234 326.89 103.383 327.248 96.3783C330.881 98.7813 334.667 100.213 338.607 101.389C341.37 102.207 343.775 103.741 346.282 105.019C346.896 105.326 346.896 106.502 346.282 106.86C345.822 107.115 345.361 107.32 345.617 107.933C345.822 108.496 346.282 108.547 346.845 108.394C347.459 108.24 347.971 108.496 348.278 109.007C348.585 109.774 348.431 110.439 347.971 111.001Z" fill="black"/>
<path d="M332.723 111.052C332.518 111.052 332.314 111.154 332.109 111.154C331.29 111.308 331.034 110.95 331.29 110.234C331.597 109.314 332.109 108.496 332.672 107.678C332.979 107.218 333.183 106.706 332.569 106.297C332.007 105.939 331.648 106.297 331.341 106.706C330.625 107.78 329.96 108.854 329.653 110.183C329.295 111.768 330.113 112.842 331.751 112.791C332.109 112.739 332.518 112.739 332.928 112.637C333.388 112.535 333.746 112.228 333.644 111.666C333.644 111.154 333.235 110.95 332.723 111.052Z" fill="#020202"/>
<path d="M328.527 105.019C328.015 105.07 327.81 105.377 327.862 105.837C327.862 106.348 328.117 106.706 328.68 106.655C329.141 106.604 329.294 106.246 329.345 105.735C329.192 105.377 329.038 105.019 328.527 105.019Z" fill="#0C0C0C"/>
<path d="M336.1 105.275C335.64 105.275 335.435 105.633 335.435 106.093C335.435 106.553 335.691 106.809 336.203 106.911C336.612 106.86 336.919 106.604 336.919 106.144C336.868 105.633 336.612 105.275 336.1 105.275Z" fill="#0A0A0A"/>
</g>
<g clip-path="url(#clip4)">
<path d="M86.4139 82.9802C94.2816 81.0827 102.149 79.1853 110.008 77.3467C117.699 75.4229 125.356 73.5242 133.047 71.6005C135.704 70.9429 138.326 70.3105 141.329 69.554C137.069 66.0618 133.135 62.7987 129.143 59.5269C126.272 57.2042 123.334 54.9316 120.505 52.525C119.384 51.5759 118.778 51.606 117.777 52.6604C115.428 55.0785 112.904 57.26 110.505 59.6105C108.674 61.3837 107.163 59.6244 105.523 59.3202C103.179 58.7005 100.801 58.1058 98.4404 57.3934C97.4073 57.0591 96.826 57.123 96.2961 58.2475C92.797 66.1203 89.298 73.993 85.7739 81.832C85.4662 82.4781 84.9893 83.2495 86.4139 82.9802Z" fill="#020A13"/>
<path d="M124.829 38.7582C123.48 39.1289 122.13 39.4996 120.814 39.8453C120.068 39.4033 119.334 39.6851 118.583 39.8742C112.411 41.302 106.305 42.8901 100.192 44.3266C99.4749 44.4907 98.8832 44.8238 98.3416 45.2246C92.0589 46.7864 85.7674 48.407 79.4509 49.9938C79.0462 50.084 78.6665 50.208 77.6628 50.4798C87.315 53.3306 96.4213 56.0099 105.528 58.6891C108.555 60.3732 110.462 58.4911 112.462 56.5926C119.15 50.1272 125.913 43.7632 132.829 37.1813C129.983 37.2991 127.483 38.5214 124.829 38.7582Z" fill="#020A13"/>
<path d="M79.8395 64.041C80.5191 66.7294 81.1986 69.4178 81.8782 72.1063C82.6887 75.3257 83.4992 78.545 84.3347 81.7982C84.4775 81.8495 84.629 81.842 84.7718 81.8934C85.4475 80.3995 86.1143 78.9644 86.79 77.4705C89.6722 71.1004 92.4956 64.7216 95.4367 58.3602C96.027 57.0341 95.8196 56.6121 94.4333 56.2253C89.1149 54.7717 83.8054 53.2593 78.5386 51.663C77.1273 51.2423 76.9815 51.6117 77.2757 52.8589C78.1333 56.5667 78.9569 60.2994 79.8395 64.041Z" fill="#020A13"/>
<path d="M134.135 37.1047C129.507 41.4701 125.117 45.6601 120.726 49.8502C120.133 50.3937 119.651 50.8032 120.647 51.5833C127.469 57.0513 134.223 62.5694 140.977 68.0876C141.061 68.1301 141.246 68.0976 141.667 68.1001C139.148 57.8271 136.678 47.6218 134.135 37.1047Z" fill="#020A13"/>
</g>
<path d="M145.922 109.349C147.248 109.888 148.526 110.543 149.607 111.509C150.53 111.734 151.393 112.225 152.375 112.23C152.721 112.232 152.94 112.453 153.146 112.685C154.318 113.965 155.816 114.54 157.501 114.815C158.32 114.947 159.033 115.552 159.887 115.615C161.4 115.715 162.795 116.105 164.131 116.806C164.523 117.017 165.031 117.124 165.47 117.103C166.787 117.029 167.94 117.394 169.08 118.025C169.817 118.434 170.718 118.404 171.537 118.547C172.276 118.667 172.968 118.89 173.543 119.345C175.141 120.603 176.944 120.543 178.679 119.916C179.513 119.62 180.148 119.623 180.816 120.02C181.783 120.581 182.821 120.748 183.919 120.673C184.49 119.774 183.998 118.891 183.864 118C182.734 117.646 181.602 117.652 180.457 117.877C179.868 117.99 179.452 117.918 178.993 117.349C178.133 116.291 176.829 115.948 175.502 115.837C175.086 115.8 174.636 115.763 174.243 115.877C173.132 116.183 172.129 115.877 171.103 115.536C170.377 115.289 169.627 115.134 168.853 115.13C168.067 115.126 167.353 114.902 166.673 114.494C165.637 113.886 164.519 113.487 163.306 113.434C162.717 113.408 162.175 113.255 161.727 112.847C161.589 112.719 161.416 112.626 161.244 112.544C159.723 111.829 158.144 111.231 156.658 110.447C155.978 110.085 155.17 110.069 154.408 110.007C153.738 109.957 153.15 109.804 152.586 109.419C151.827 108.894 150.939 108.612 150.074 108.294C148.865 107.57 147.458 107.239 146.261 106.48C145.063 105.814 143.784 105.31 142.726 104.378C142.037 103.761 141.254 103.282 140.343 103.023C138.567 102.504 136.943 101.639 135.389 100.636C135.067 100.426 134.768 100.192 134.492 99.9248C133.883 99.3313 133.216 98.8301 132.467 98.4211C131.523 97.9068 130.66 97.2541 130.041 96.3481C129.583 95.686 128.706 95.5077 128.305 94.8691C127.927 94.2652 127.792 93.5238 127.345 92.9196C126.611 91.9204 125.633 91.2324 124.539 90.7636C123.905 90.494 123.537 90.1333 123.275 89.5417C123.046 89.0081 122.668 88.5547 122.173 88.228C121.172 87.563 120.599 86.5878 120.074 85.5434C119.377 84.1278 118.424 82.896 116.939 81.9853C116.9 82.9341 117.104 83.6875 117.411 84.4876C117.901 85.7402 118.751 86.7052 119.554 87.728C120.001 88.2974 120.437 88.9016 120.595 89.6315C120.707 90.1413 121.04 90.5482 121.443 90.8397C122.375 91.4927 122.901 92.4098 123.219 93.4531C123.65 94.8905 124.639 95.7869 125.964 96.3726C126.655 96.6772 127.312 97.0048 127.817 97.644C128.287 98.2367 129.106 98.4263 129.681 98.9733C131.335 100.579 133.095 102.058 135.156 103.146C135.467 103.309 135.732 103.531 135.961 103.798C136.397 104.298 136.915 104.694 137.503 104.987C137.814 105.139 138.101 105.337 138.319 105.628C139.191 106.824 140.423 107.375 141.808 107.718C141.958 107.753 142.119 107.777 142.246 107.859C143.351 108.594 144.619 108.994 145.922 109.349Z" fill="#020A13"/>
<path d="M230.885 71.953C231.588 72.2808 232.315 72.3772 233.124 72.289C234.002 72.1895 234.948 72.3797 235.626 72.9736C236.5 73.7421 237.514 74.2914 238.422 75.0022C239.158 75.5848 239.976 75.9711 240.817 76.3575C242.465 77.107 244.136 77.8219 245.086 79.5282C245.188 79.7255 245.384 79.8886 245.568 80.0168C246.328 80.5417 246.844 81.2157 247.128 82.0968C247.219 82.3866 247.379 82.6768 247.585 82.8978C248.516 83.8402 248.832 85.2075 249.786 86.1384C249.992 86.3478 250.118 86.661 250.209 86.9508C250.787 89.0139 251.781 90.9519 252.047 93.1175C252.235 94.623 251.985 96.1262 251.757 97.5832C251.602 98.6008 250.95 99.5579 250.437 100.516C249.713 101.889 249.024 103.297 248.796 104.882C248.652 105.853 248.278 106.754 247.581 107.444C247.059 107.962 246.605 108.527 246.129 109.091C245.594 109.737 244.979 110.22 244.158 110.435C242.897 110.764 241.9 111.465 240.937 112.339C239.927 113.259 238.791 114.098 237.586 114.74C236.243 115.462 234.83 116.079 233.475 116.801C233.104 116.996 232.688 117.132 232.249 117.095C231.683 117.046 231.197 117.24 230.711 117.492C229.275 118.248 227.691 118.564 226.141 118.995C224.938 119.325 223.701 119.503 222.599 120.273C221.684 120.904 220.573 121.176 219.409 120.8C218.867 120.623 218.301 120.632 217.712 120.663C216.187 120.736 214.671 121.214 213.125 120.94C212.975 120.916 212.802 120.915 212.663 120.972C211.343 121.543 209.843 121.258 208.512 121.818C207.979 122.035 207.332 122.078 206.698 121.901C206.052 121.723 205.37 121.824 204.78 122.11C204.05 122.465 203.299 122.565 202.537 122.526C201.393 122.474 200.263 122.225 199.107 122.427C198.76 122.495 198.426 122.308 198.115 122.167C197.838 122.05 197.585 121.875 197.261 121.966C197.143 122.405 197.373 122.742 197.486 123.09C197.759 123.901 197.951 124.736 197.739 125.579C197.515 126.434 197.637 127.268 197.76 128.102C198.005 129.689 198.517 131.231 198.404 132.862C198.379 133.29 198.55 133.754 198.813 134.161C199.203 134.764 199.615 135.392 199.727 136.144C199.905 137.361 200.141 138.565 200.261 139.793C200.316 140.383 200.429 140.928 200.772 141.416C201.3 142.148 201.654 142.948 201.66 143.874C201.659 144.163 201.75 144.395 201.957 144.605C202.99 145.663 203.387 147.135 204.34 148.263C204.718 148.716 204.923 149.366 204.919 149.991C204.916 150.534 205.122 150.952 205.478 151.336C206.052 151.941 206.383 152.683 206.46 153.505C206.492 153.922 206.629 154.247 206.916 154.526C207.456 155.038 207.776 155.7 208.166 156.315C208.819 157.349 209.634 158.29 210.055 159.473C210.089 159.578 210.204 159.648 210.284 159.729C211.79 161.08 212.762 162.844 213.897 164.47C214.883 165.864 215.985 167.108 217.168 168.318C217.869 169.04 218.918 169.381 219.457 170.24C220.086 171.25 220.96 172.03 221.706 172.902C222.716 174.088 223.622 175.343 224.899 176.287C225.256 176.555 225.589 176.858 225.969 177.115C227.074 177.85 228.318 178.365 229.236 179.435C229.856 180.168 230.615 180.866 231.7 181.034C232.369 181.142 232.875 181.619 233.264 182.153C234.055 183.257 235.103 183.864 236.43 184.057C237.008 184.141 237.572 184.34 237.998 184.748C238.894 185.597 239.966 186.054 241.13 186.385C241.799 186.573 242.363 187.005 242.927 187.401C243.134 187.553 243.375 187.774 243.235 188.074C243.095 188.386 242.76 188.28 242.518 188.255C241.825 188.182 241.157 187.959 240.546 187.631C239.694 187.176 238.818 186.835 237.837 186.726C237.052 186.641 236.349 186.359 235.774 185.789C234.775 184.777 233.577 184.134 232.205 183.791C231.478 183.613 230.844 183.286 230.444 182.589C230.169 182.113 229.743 181.845 229.26 181.565C228.396 181.074 227.439 180.722 226.704 180.023C225.635 178.999 224.88 177.653 223.498 176.951C223.371 176.881 223.256 176.741 223.188 176.614C222.776 175.859 222.097 175.451 221.336 175.134C220.61 174.841 219.977 174.363 219.635 173.644C219.406 173.179 219.073 172.935 218.623 172.77C217.92 172.5 217.322 172.046 216.979 171.384C216.464 170.375 215.718 169.56 214.995 168.735C213.112 166.561 211.195 164.409 209.509 162.074C209.326 161.83 209.166 161.54 209.098 161.25C208.985 160.729 208.698 160.369 208.342 159.996C207.194 158.787 206.405 157.324 205.662 155.85C205.399 155.317 205.182 154.818 204.711 154.468C204.066 153.99 203.619 153.363 203.439 152.598C203.314 152.077 203.051 151.693 202.648 151.367C201.901 150.761 201.431 149.983 201.251 149.045C201.173 148.663 201.071 148.292 200.876 147.967C200.51 147.351 200.317 146.702 200.344 145.985C200.37 145.464 200.21 145.024 199.843 144.628C199.28 144.023 198.938 143.281 198.977 142.425C198.991 141.939 198.89 141.452 198.603 141.115C197.765 140.115 197.622 138.795 196.935 137.715C196.522 137.076 196.307 136.311 196.415 135.502C196.571 134.392 196.6 133.281 196.051 132.236C195.948 132.039 195.927 131.784 195.916 131.564C195.877 130.256 195.503 128.981 195.533 127.674C195.547 127.107 195.389 126.55 195.172 125.994C194.853 125.159 194.731 124.279 195.175 123.413C195.303 123.147 195.339 122.824 195.364 122.523C195.427 121.644 195.415 121.644 194.469 121.5C194.23 120.827 194.521 120.273 194.871 119.731C194.888 118.69 195.124 117.672 195.222 116.643C195.32 115.683 195.256 114.71 195.469 113.774C195.622 113.138 195.591 112.56 195.409 111.957C195.046 110.751 195.156 109.606 195.797 108.51C196.147 107.91 196.404 107.31 196.42 106.569C196.434 105.933 196.588 105.285 196.799 104.65C197.245 103.31 197.772 101.97 198.011 100.594C198.261 99.149 198.903 97.81 199.015 96.3408C199.052 95.8433 199.286 95.3701 199.623 94.9784C200.123 94.3909 200.277 93.6857 200.362 92.9455C200.507 91.6385 200.964 90.4952 202.042 89.6561C202.622 89.2079 203.156 88.7131 203.564 88.0903C204.624 86.441 205.603 84.7797 206.329 82.9319C207.043 81.1419 208.39 79.6678 209.887 78.4953C210.849 77.7366 211.846 77.0476 212.683 76.1493C213.438 75.3432 214.319 74.804 215.463 74.6481C216.965 74.4478 218.366 73.9577 219.641 73.1081C220.464 72.5569 221.388 72.3883 222.371 72.3125C223.676 72.2038 224.971 72.0834 226.276 72.1251C226.749 72.1392 227.177 71.9563 227.617 71.8313C228.716 71.5479 229.802 71.4495 230.885 71.953ZM223.017 74.5265C222.311 74.7773 221.618 74.9125 220.878 74.9548C219.342 75.0276 218.068 75.5994 217.137 76.8907C216.474 77.813 215.604 78.5027 214.528 78.9136C213.671 79.2446 213.01 79.7966 212.567 80.6044C212.543 80.6389 212.52 80.6735 212.508 80.6966C212.089 81.3656 208.977 84.439 208.339 84.9332C206.565 86.301 205.158 87.96 204.811 90.2612C204.572 91.8454 204.045 93.2198 202.849 94.3244C202.42 94.7272 202.186 95.2699 202.09 95.848C201.959 96.669 201.539 97.3496 201.212 98.0885C200.511 99.6471 199.648 101.147 199.361 102.905C199.122 104.373 199.126 105.901 198.483 107.298C198.331 107.621 198.433 107.969 198.512 108.316C198.805 109.799 198.693 111.234 197.854 112.549C197.575 112.987 197.503 113.438 197.547 113.97C197.611 114.804 197.422 115.648 197.418 116.493C197.414 117.233 197.514 117.951 197.579 118.669C197.634 119.248 197.876 119.238 198.327 119.194C199.957 119.029 201.61 118.772 203.225 118.989C204.772 119.205 206.296 119.306 207.867 119.326C209.31 119.345 210.766 119.191 212.21 119.326C212.463 119.351 212.753 119.294 213.007 119.215C213.898 118.942 214.788 118.773 215.724 118.766C216.544 118.771 217.319 118.52 218.026 118.107C219.474 117.259 220.954 116.896 222.65 117.287C223.527 117.489 224.43 116.984 225.309 116.746C226.79 116.349 228.236 115.87 229.694 115.427C229.983 115.336 230.353 115.338 230.562 115.154C231.792 114.061 233.376 113.78 234.823 113.174C235.529 112.877 236.063 112.255 236.838 112.074C238.365 111.712 239.663 110.897 240.949 110.059C241.204 109.887 241.436 109.749 241.542 109.403C241.918 108.189 242.651 107.221 243.66 106.463C243.845 106.325 244.077 106.199 244.182 106.014C244.835 104.826 245.855 104.114 246.991 103.391C247.756 102.909 248.339 101.893 248.54 100.911C248.754 99.8586 248.91 98.7947 248.961 97.7418C248.974 95.4504 249.032 93.1477 248.975 90.8559C248.956 90.0688 248.695 89.2689 248.271 88.5722C248.008 88.1311 247.837 87.6672 247.724 87.1806C247.442 85.9639 246.905 84.8847 246.113 83.9083C245.838 83.5712 245.527 83.2918 245.171 83.0816C244.768 82.848 244.434 82.5337 244.136 82.1734C243.964 81.9641 243.815 81.7087 243.596 81.5803C242.007 80.6575 240.895 79.1933 239.55 77.9941C238.458 77.0162 237.098 76.4997 235.678 76.3879C234.119 76.2754 232.723 75.9439 231.632 74.7461C231.288 74.3623 230.872 74.3948 230.467 74.4968C229.415 74.7574 228.411 74.5784 227.419 74.2028C227.085 74.0737 226.762 73.991 226.416 74.0007C225.26 74.0524 224.105 74.1388 223.017 74.5265Z" fill="#020A13"/>
<rect x="110.937" y="185.595" width="82.3438" height="76.0899" rx="10" transform="rotate(-8.28572 110.937 185.595)" fill="#020A13"/>
<rect x="115.99" y="178.624" width="82.3438" height="76.0899" rx="10" transform="rotate(-8.28572 115.99 178.624)" fill="white"/>
<rect x="129.058" y="198.644" width="9.38094" height="8.33861" rx="2" transform="rotate(-7.15554 129.058 198.644)" fill="#007BFF"/>
<rect x="130.583" y="210.109" width="9.38094" height="8.33861" rx="2" transform="rotate(-7.15554 130.583 210.109)" fill="#007BFF"/>
<rect x="142.048" y="196.068" width="9.38094" height="8.33861" rx="2" transform="rotate(-7.15554 142.048 196.068)" fill="#007BFF"/>
<rect x="143.573" y="207.534" width="9.38094" height="8.33861" rx="2" transform="rotate(-7.15554 143.573 207.534)" fill="#007BFF"/>
<rect x="155.598" y="193.984" width="9.38094" height="8.33861" rx="2" transform="rotate(-7.15554 155.598 193.984)" fill="#007BFF"/>
<rect x="157.123" y="205.449" width="9.38094" height="8.33861" rx="2" transform="rotate(-7.15554 157.123 205.449)" fill="#007BFF"/>
<rect x="159.208" y="216.915" width="9.38094" height="8.33861" rx="2" transform="rotate(-7.15554 159.208 216.915)" fill="#FE0E11"/>
<rect x="169.148" y="191.899" width="9.38094" height="8.33861" rx="2" transform="rotate(-7.15554 169.148 191.899)" fill="#007BFF"/>
<rect x="170.673" y="203.365" width="9.38094" height="8.33861" rx="2" transform="rotate(-7.15554 170.673 203.365)" fill="#007BFF"/>
<rect x="172.758" y="214.83" width="9.38094" height="8.33861" rx="2" transform="rotate(-7.15554 172.758 214.83)" fill="#007BFF"/>
<rect x="181.656" y="189.814" width="9.38094" height="8.33861" rx="2" transform="rotate(-7.15554 181.656 189.814)" fill="#007BFF"/>
<rect x="183.181" y="201.28" width="9.38094" height="8.33861" rx="2" transform="rotate(-7.15554 183.181 201.28)" fill="#007BFF"/>
<rect x="185.266" y="212.745" width="9.38094" height="8.33861" rx="2" transform="rotate(-7.15554 185.266 212.745)" fill="#007BFF"/>
<path d="M129 190.928C130.35 190.914 132.178 191.275 133.459 190.501C134.025 190.158 134.618 190.092 135.225 189.946C135.915 189.78 137.019 190.065 137.647 189.691C140.125 188.215 142.691 188.251 145.325 187.691C146.357 187.471 147.465 187.894 148.487 187.582C149.124 187.387 149.68 187 150.353 187C151.569 187 152.784 187 154 187" stroke="black" stroke-width="3" stroke-linecap="round" stroke-linejoin="round"/>
<ellipse cx="203.5" cy="245" rx="18.5" ry="19" fill="#020A13"/>
<ellipse cx="205.5" cy="243" rx="18.5" ry="19" fill="#FE581D"/>
<path d="M211.66 239.389H207.578V235.827H206.242C206.656 235.275 206.878 234.603 206.875 233.913C206.875 232.887 206.39 231.924 205.608 231.398L205.277 231.175L204.946 231.398C204.164 231.924 203.679 232.887 203.679 233.913C203.676 234.603 203.898 235.275 204.312 235.827H202.828V239.389H199.34C198.769 239.39 198.222 239.617 197.819 240.02C197.415 240.424 197.188 240.971 197.188 241.542V248.219C197.188 248.534 197.313 248.835 197.536 249.058C197.758 249.281 198.06 249.406 198.375 249.406H212.625C212.94 249.406 213.242 249.281 213.464 249.058C213.687 248.835 213.812 248.534 213.812 248.219V241.542C213.812 240.971 213.585 240.424 213.181 240.02C212.778 239.617 212.231 239.39 211.66 239.389ZM205.277 232.69C205.536 233.012 205.688 233.45 205.688 233.913C205.688 234.377 205.536 234.814 205.277 235.136C205.018 234.814 204.866 234.377 204.866 233.913C204.866 233.449 205.018 233.012 205.277 232.69ZM204.016 237.014H206.391V239.389H204.016V237.014ZM198.375 241.542C198.375 241.286 198.477 241.04 198.658 240.86C198.839 240.679 199.084 240.577 199.34 240.577H211.66C211.916 240.577 212.161 240.679 212.342 240.86C212.523 241.04 212.625 241.286 212.625 241.542V242.713L211.823 243.067C211.667 243.136 211.497 243.172 211.326 243.172C211.155 243.172 210.985 243.136 210.829 243.067L209.434 242.452L208.038 243.067C207.882 243.136 207.712 243.172 207.541 243.172C207.37 243.172 207.2 243.136 207.043 243.067L205.648 242.451L204.253 243.067C204.096 243.136 203.927 243.172 203.756 243.172C203.584 243.172 203.415 243.136 203.258 243.067L201.863 242.452L200.468 243.067C200.311 243.136 200.142 243.172 199.971 243.172C199.799 243.172 199.63 243.136 199.473 243.067L198.375 242.582V241.542ZM212.625 248.219H198.375V243.88L198.994 244.153C199.302 244.289 199.634 244.359 199.971 244.359C200.307 244.359 200.64 244.289 200.947 244.153L201.863 243.749L202.779 244.153C203.087 244.289 203.42 244.359 203.756 244.359C204.092 244.359 204.425 244.289 204.733 244.153L205.648 243.749L206.564 244.153C206.872 244.289 207.205 244.359 207.541 244.359C207.877 244.359 208.21 244.289 208.518 244.153L209.434 243.749L210.349 244.153C210.657 244.289 210.99 244.359 211.326 244.359C211.662 244.359 211.995 244.289 212.303 244.153L212.625 244.011L212.626 248.219H212.625Z" fill="#FEFDFA"/>
<defs>
<clipPath id="clip0">
<rect width="13" height="14" fill="white" transform="translate(34 230)"/>
</clipPath>
<clipPath id="clip1">
<rect width="23" height="25" fill="white" transform="translate(79 87)"/>
</clipPath>
<clipPath id="clip2">
<rect width="31" height="50" fill="white" transform="translate(0 14)"/>
</clipPath>
<clipPath id="clip3">
<rect width="252" height="376" fill="white" transform="translate(209 43)"/>
</clipPath>
<clipPath id="clip4">
<rect width="66.6165" height="53.1587" fill="white" transform="matrix(-0.803888 0.59478 0.59478 0.803888 120.552 18.7468)"/>
</clipPath>
</defs>
</svg>
