<svg width="24" height="24" viewBox="0 0 24 24" fill="none" xmlns="http://www.w3.org/2000/svg">
<path d="M22.4535 10.1733H21.3335V17.8067L16.4268 12.9L15.4868 13.84L20.3068 18.6667H3.7735L8.44016 13.84L7.48016 12.9133L2.66683 17.8933V6.34667L10.9535 14.5933C11.2033 14.8417 11.5412 14.9811 11.8935 14.9811C12.2457 14.9811 12.5837 14.8417 12.8335 14.5933L17.2735 10.1733H15.3868L11.8935 13.6467L3.54016 5.33333H13.3735L14.1402 4H2.66683C2.31321 4 1.97407 4.14048 1.72402 4.39052C1.47397 4.64057 1.3335 4.97971 1.3335 5.33333V18.6667C1.3335 19.0203 1.47397 19.3594 1.72402 19.6095C1.97407 19.8595 2.31321 20 2.66683 20H21.3335C21.6871 20 22.0263 19.8595 22.2763 19.6095C22.5264 19.3594 22.6668 19.0203 22.6668 18.6667V10.16L22.4535 10.1733Z" fill="black"/>
<path d="M17.9 0.666655L14.0866 7.27332C14.0136 7.40245 13.9755 7.54838 13.9761 7.69672C13.9767 7.84507 14.0159 7.99069 14.0899 8.11924C14.164 8.24779 14.2702 8.35482 14.3983 8.42977C14.5263 8.50473 14.6716 8.54501 14.82 8.54665H22.4533C22.6016 8.54501 22.747 8.50473 22.875 8.42977C23.003 8.35482 23.1093 8.24779 23.1833 8.11924C23.2573 7.99069 23.2966 7.84507 23.2972 7.69672C23.2977 7.54838 23.2596 7.40245 23.1866 7.27332L19.3733 0.666655C19.2981 0.538025 19.1905 0.431329 19.0613 0.357181C18.932 0.283033 18.7856 0.244019 18.6366 0.244019C18.4876 0.244019 18.3412 0.283033 18.212 0.357181C18.0827 0.431329 17.9752 0.538025 17.9 0.666655Z" fill="black"/>
</svg>
