<svg width="583" height="580" viewBox="0 0 583 580" fill="none" xmlns="http://www.w3.org/2000/svg">
<g clip-path="url(#clip0)">
<g clip-path="url(#clip1)">
<path d="M295.771 509.1C297.056 508.84 297.118 512.063 297.087 512.735C297.056 513.437 298.159 513.437 298.174 512.735C298.22 511.162 297.852 507.557 295.464 508.046C294.806 508.183 295.097 509.237 295.771 509.1Z" fill="#020A13"/>
<path d="M304.91 510.398C306.67 510.337 308.415 510.108 310.13 509.741C310.819 509.589 310.528 508.55 309.839 508.687C308.216 509.039 306.563 509.237 304.91 509.298C304.221 509.344 304.206 510.429 304.91 510.398Z" fill="#020A13"/>
<path d="M317.155 509.527C318.64 509.818 319.88 510.551 320.86 511.696C321.319 512.231 322.084 511.452 321.625 510.932C320.538 509.65 319.084 508.794 317.446 508.474C316.757 508.336 316.466 509.39 317.155 509.527Z" fill="#020A13"/>
<path d="M328.176 512.185C328.452 510.81 329.492 509.772 330.87 509.512C331.559 509.375 331.268 508.321 330.579 508.458C328.85 508.794 327.472 510.184 327.12 511.895C326.982 512.582 328.038 512.872 328.176 512.185Z" fill="#020A13"/>
<path d="M339.442 509.97C341.555 509.436 343.683 509.283 345.856 509.512C346.56 509.588 346.545 508.489 345.856 508.428C343.606 508.199 341.356 508.367 339.152 508.932C338.478 509.084 338.754 510.138 339.442 509.97Z" fill="#020A13"/>
<path d="M351.934 509.39C352.531 511.268 350.571 512.399 349.194 513.147C348.581 513.483 349.132 514.43 349.745 514.094C351.582 513.101 353.755 511.498 352.99 509.115C352.776 508.443 351.719 508.718 351.934 509.39Z" fill="#020A13"/>
<path d="M355.929 513.865C355.485 515.254 354.812 516.507 353.863 517.622C353.403 518.156 354.184 518.92 354.628 518.385C355.699 517.133 356.48 515.728 356.985 514.155C357.184 513.498 356.128 513.208 355.929 513.865Z" fill="#020A13"/>
<path d="M353.235 526.068C354.153 526.495 354.949 527.106 355.561 527.9C355.99 528.45 356.924 527.9 356.51 527.351C355.776 526.404 354.888 525.64 353.786 525.121C353.158 524.831 352.592 525.778 353.235 526.068Z" fill="#020A13"/>
<path d="M355.607 533.49C355.255 534.926 354.52 536.163 353.433 537.186C352.928 537.675 353.693 538.439 354.198 537.95C355.408 536.805 356.25 535.384 356.648 533.765C356.831 533.093 355.775 532.803 355.607 533.49Z" fill="#020A13"/>
<path d="M353.004 543.891C353.708 545.021 354.183 546.243 354.413 547.556C354.535 548.244 355.591 547.953 355.469 547.266C355.224 545.861 354.703 544.548 353.953 543.341C353.571 542.745 352.622 543.295 353.004 543.891Z" fill="#020A13"/>
<path d="M356.496 556.033C355.057 555.101 353.603 554.185 352.164 553.253C351.567 552.871 351.016 553.818 351.613 554.2C353.051 555.132 354.506 556.048 355.945 556.98C356.542 557.346 357.093 556.399 356.496 556.033Z" fill="#020A13"/>
<path d="M354.229 559.927C353.326 561.073 352.178 561.959 350.8 562.463C350.142 562.707 350.433 563.761 351.091 563.517C352.637 562.951 353.984 562.005 355.01 560.706C355.423 560.157 354.658 559.378 354.229 559.927Z" fill="#020A13"/>
<path d="M354.537 568.358C354.827 568.969 355.011 569.625 355.057 570.297C355.118 570.985 356.205 571 356.144 570.297C356.083 569.427 355.853 568.602 355.47 567.808C355.18 567.167 354.23 567.732 354.537 568.358Z" fill="#020A13"/>
<path d="M349.621 569.091C348.396 567.304 347.064 565.593 345.656 563.944C345.197 563.409 344.431 564.188 344.891 564.708C346.253 566.281 347.508 567.915 348.687 569.625C349.07 570.221 350.019 569.671 349.621 569.091Z" fill="#020A13"/>
<path d="M342.092 567.625C340.775 568.083 339.428 568.495 338.066 568.847C337.392 569.015 337.668 570.068 338.357 569.9C339.719 569.549 341.051 569.152 342.382 568.679C343.041 568.45 342.75 567.396 342.092 567.625Z" fill="#020A13"/>
<path d="M330.365 567.197C330.548 565.746 330.732 564.295 330.931 562.844C331.023 562.157 329.921 562.157 329.844 562.844C329.661 564.295 329.477 565.746 329.278 567.197C329.186 567.884 330.273 567.884 330.365 567.197Z" fill="#020A13"/>
<path d="M323.37 567.136C324.304 568.175 325.084 569.32 325.712 570.573C326.033 571.199 326.967 570.649 326.661 570.023C325.988 568.694 325.146 567.472 324.151 566.357C323.661 565.838 322.895 566.617 323.37 567.136Z" fill="#020A13"/>
<path d="M318.349 569.931C317.308 569.717 316.497 568.984 316.221 567.961C316.037 567.289 314.996 567.564 315.165 568.251C315.532 569.626 316.65 570.71 318.058 570.985C318.747 571.122 319.038 570.069 318.349 569.931Z" fill="#020A13"/>
<path d="M306.883 569.793C308.996 569.457 310.817 568.22 311.935 566.388C312.302 565.792 311.353 565.242 310.985 565.838C310.006 567.441 308.429 568.449 306.577 568.74C305.903 568.847 306.194 569.9 306.883 569.793Z" fill="#020A13"/>
<path d="M299.995 569.198C299.995 568.114 299.995 567.014 299.995 565.929C299.995 565.227 298.908 565.227 298.908 565.929C298.908 567.014 298.908 568.114 298.908 569.198C298.908 569.9 299.995 569.9 299.995 569.198Z" fill="#020A13"/>
<path d="M294.026 566.525C295.082 564.876 296.246 563.303 297.501 561.806C297.945 561.271 297.179 560.493 296.735 561.042C295.419 562.615 294.194 564.265 293.092 565.991C292.71 566.571 293.659 567.106 294.026 566.525Z" fill="#020A13"/>
<path d="M295.174 554.78C296.23 555.452 297.378 555.956 298.572 556.308C299.246 556.506 299.537 555.452 298.863 555.254C297.746 554.918 296.705 554.46 295.725 553.833C295.128 553.467 294.577 554.414 295.174 554.78Z" fill="#020A13"/>
<path d="M302.46 562.218C303.057 562.646 303.532 563.211 303.884 563.852C304.221 564.463 305.17 563.913 304.833 563.303C304.389 562.493 303.761 561.821 303.011 561.271C302.766 561.103 302.399 561.225 302.261 561.47C302.108 561.745 302.231 562.05 302.46 562.218Z" fill="#020A13"/>
<path d="M296.842 549.13C296.154 547.908 295.633 546.625 295.25 545.266C295.067 544.594 294.011 544.884 294.194 545.556C294.592 546.991 295.159 548.366 295.893 549.679C296.245 550.29 297.179 549.741 296.842 549.13Z" fill="#020A13"/>
<path d="M297.271 540.684C298.481 540.775 299.675 540.714 300.884 540.516C301.573 540.409 301.282 539.355 300.593 539.462C299.491 539.645 298.389 539.676 297.271 539.584C296.567 539.538 296.567 540.623 297.271 540.684Z" fill="#020A13"/>
<path d="M299.016 536.056C298.19 534.895 297.348 533.735 296.521 532.574C296.123 532.009 295.174 532.559 295.572 533.124C296.399 534.284 297.241 535.445 298.067 536.606C298.48 537.186 299.43 536.636 299.016 536.056Z" fill="#020A13"/>
<path d="M294.76 526.526C295.357 525.732 296.107 525.075 296.933 524.541C297.53 524.159 296.979 523.227 296.382 523.594C295.372 524.235 294.53 525.029 293.811 525.961C293.382 526.541 294.331 527.076 294.76 526.526Z" fill="#020A13"/>
<path d="M295.342 518.126C296.322 518.538 297.21 519.103 297.99 519.821C298.511 520.295 299.276 519.531 298.756 519.058C297.898 518.279 296.949 517.652 295.893 517.194C295.266 516.904 294.699 517.851 295.342 518.126Z" fill="#020A13"/>
<path d="M303.792 517.057C304.159 516.11 305.246 515.591 306.211 515.835C306.899 516.003 307.19 514.949 306.501 514.781C304.909 514.384 303.317 515.255 302.736 516.767C302.491 517.423 303.547 517.698 303.792 517.057Z" fill="#020A13"/>
<path d="M315.134 515.682C314.935 516.599 314.567 517.439 313.986 518.172C313.557 518.722 314.322 519.485 314.751 518.935C315.455 518.05 315.945 517.072 316.175 515.972C316.343 515.285 315.287 514.995 315.134 515.682Z" fill="#020A13"/>
<path d="M322.574 520.035C324.227 519.852 325.789 519.332 327.212 518.477C327.809 518.111 327.258 517.164 326.661 517.53C325.406 518.294 324.044 518.783 322.574 518.951C321.885 519.027 321.87 520.111 322.574 520.035Z" fill="#020A13"/>
<path d="M334.575 516.217C335.907 516.064 337.239 515.927 338.57 515.774C339.259 515.698 339.275 514.613 338.57 514.69C337.239 514.842 335.907 514.98 334.575 515.133C333.886 515.194 333.886 516.293 334.575 516.217Z" fill="#020A13"/>
<path d="M341.401 516.446C342.029 517.805 342.901 519.012 343.988 520.035C344.493 520.524 345.274 519.745 344.753 519.271C343.728 518.309 342.917 517.179 342.335 515.896C342.044 515.27 341.11 515.82 341.401 516.446Z" fill="#020A13"/>
<path d="M348.764 521.99C348.657 523.303 348.167 524.479 347.386 525.533C346.973 526.098 347.907 526.633 348.335 526.083C349.239 524.876 349.728 523.487 349.866 521.99C349.912 521.287 348.825 521.303 348.764 521.99Z" fill="#020A13"/>
<path d="M350.877 530.161C350.908 531.047 350.602 531.841 349.989 532.467C349.5 532.971 350.265 533.735 350.755 533.231C351.566 532.406 352.01 531.306 351.964 530.146C351.949 529.458 350.847 529.458 350.877 530.161Z" fill="#020A13"/>
<path d="M345.657 538.897C346.805 539.874 347.724 541.066 348.306 542.455C348.581 543.097 349.637 542.807 349.362 542.165C348.704 540.592 347.739 539.233 346.438 538.133C345.902 537.675 345.122 538.439 345.657 538.897Z" fill="#020A13"/>
<path d="M347.126 547.587C347.234 548.595 347.126 549.572 346.805 550.534C346.575 551.191 347.632 551.481 347.861 550.825C348.229 549.786 348.351 548.686 348.228 547.587C348.137 546.9 347.05 546.9 347.126 547.587Z" fill="#020A13"/>
<path d="M344.48 558.721C346.164 559.301 348.047 558.797 349.21 557.468C349.669 556.934 348.904 556.17 348.445 556.705C347.511 557.774 346.118 558.156 344.786 557.682C344.113 557.438 343.822 558.492 344.48 558.721Z" fill="#020A13"/>
<path d="M339.902 559.973C339.764 560.523 338.509 560.828 338.05 561.027C337.33 561.332 336.626 561.653 335.907 561.959C335.264 562.234 335.815 563.18 336.458 562.906C337.468 562.463 338.494 562.02 339.504 561.577C340.147 561.287 340.744 561.012 340.943 560.279C341.127 559.576 340.086 559.286 339.902 559.973Z" fill="#020A13"/>
<path d="M341.892 553.742C342.061 552.78 342.107 551.833 342.015 550.871C341.953 550.183 340.851 550.168 340.928 550.871C341.004 551.741 340.989 552.597 340.836 553.452C340.714 554.139 341.77 554.429 341.892 553.742Z" fill="#020A13"/>
<path d="M340.729 541.035C341.28 542.455 340.867 544.089 339.596 544.975C339.03 545.372 339.566 546.319 340.147 545.922C341.785 544.761 342.52 542.654 341.785 540.745C341.54 540.103 340.484 540.378 340.729 541.035Z" fill="#020A13"/>
<path d="M342.918 528.878C343.347 530.176 343.209 531.459 342.505 532.635C342.138 533.231 343.087 533.78 343.454 533.185C344.296 531.78 344.495 530.145 343.974 528.588C343.745 527.916 342.689 528.206 342.918 528.878Z" fill="#020A13"/>
<path d="M339.856 524.54C339.902 523.426 339.688 522.372 339.229 521.364C338.938 520.722 338.004 521.272 338.28 521.914C338.647 522.754 338.8 523.639 338.754 524.54C338.724 525.243 339.826 525.228 339.856 524.54Z" fill="#020A13"/>
<path d="M331.819 520.493C331.283 521.348 330.258 521.791 329.278 521.577C328.589 521.44 328.299 522.494 328.987 522.631C330.472 522.937 331.957 522.326 332.768 521.043C333.151 520.462 332.202 519.913 331.819 520.493Z" fill="#020A13"/>
<path d="M314.921 523.441C315.763 524.128 316.742 524.495 317.829 524.541C318.533 524.556 318.533 523.471 317.829 523.456C317.049 523.426 316.299 523.181 315.686 522.677C315.15 522.234 314.37 522.998 314.921 523.441Z" fill="#020A13"/>
<path d="M308.43 521.547C307.098 521.975 305.751 522.112 304.358 521.959C303.654 521.883 303.669 522.983 304.358 523.044C305.843 523.196 307.297 523.044 308.721 522.586C309.394 522.387 309.104 521.333 308.43 521.547Z" fill="#020A13"/>
<path d="M301.374 527.198C301.496 527.961 301.19 528.771 300.578 529.244C300.027 529.672 300.578 530.619 301.129 530.191C302.17 529.397 302.644 528.206 302.43 526.908C302.323 526.22 301.267 526.51 301.374 527.198Z" fill="#020A13"/>
<path d="M305.828 533.979C305.828 535.369 305.828 536.759 305.828 538.149C305.828 538.851 306.915 538.851 306.915 538.149C306.915 536.759 306.915 535.369 306.915 533.979C306.915 533.277 305.828 533.277 305.828 533.979Z" fill="#020A13"/>
<path d="M302.429 545.281C302.261 545.861 302.108 546.441 301.939 547.022C301.863 547.312 301.695 548.427 301.281 548.488C300.592 548.58 300.592 549.664 301.281 549.572C302.001 549.481 302.399 549.068 302.659 548.412C303.026 547.511 303.225 546.518 303.486 545.571C303.669 544.899 302.613 544.609 302.429 545.281Z" fill="#020A13"/>
<path d="M304.205 553.406C304.205 554.872 304.373 556.308 304.695 557.743C304.848 558.431 305.904 558.14 305.751 557.453C305.445 556.124 305.292 554.78 305.292 553.406C305.292 552.703 304.205 552.703 304.205 553.406Z" fill="#020A13"/>
<path d="M310.834 560.126C312.242 560.676 313.39 561.806 313.956 563.211C314.217 563.852 315.273 563.578 315.013 562.921C314.293 561.134 312.931 559.79 311.125 559.072C310.466 558.812 310.191 559.866 310.834 560.126Z" fill="#020A13"/>
<path d="M318.885 560.294C320.278 559.729 321.656 559.164 323.048 558.599C323.691 558.339 323.416 557.285 322.758 557.545C321.365 558.11 319.987 558.675 318.594 559.24C317.951 559.5 318.242 560.554 318.885 560.294Z" fill="#020A13"/>
<path d="M331.208 553.665C330.412 554.093 329.631 554.505 328.835 554.933C328.223 555.269 328.774 556.201 329.386 555.88C330.182 555.452 330.963 555.04 331.759 554.612C332.387 554.276 331.835 553.329 331.208 553.665Z" fill="#020A13"/>
<path d="M335.877 555.575C335.815 554.353 335.601 553.161 335.249 551.985C335.05 551.313 333.994 551.604 334.193 552.276C334.514 553.36 334.713 554.444 334.774 555.575C334.82 556.277 335.907 556.277 335.877 555.575Z" fill="#020A13"/>
<path d="M332.799 547.373C334.881 547.877 334.973 544.105 334.957 542.868C334.942 542.165 333.855 542.165 333.87 542.868C333.886 543.25 333.763 546.487 333.105 546.319C332.401 546.167 332.11 547.221 332.799 547.373Z" fill="#020A13"/>
<path d="M335.279 536.346C335.891 536.209 336.504 536.285 337.055 536.575C337.682 536.896 338.233 535.965 337.606 535.629C336.779 535.201 335.891 535.079 334.988 535.293C334.299 535.461 334.59 536.499 335.279 536.346Z" fill="#020A13"/>
<path d="M337.545 530.817C336.183 529.764 335.157 528.359 334.591 526.74C334.361 526.083 333.305 526.373 333.534 527.03C334.223 528.939 335.387 530.527 336.994 531.764C337.56 532.192 338.096 531.245 337.545 530.817Z" fill="#020A13"/>
<path d="M328.161 529.306C326.722 528.786 325.467 527.962 324.41 526.877C323.921 526.373 323.14 527.152 323.645 527.641C324.839 528.863 326.263 529.764 327.885 530.359C328.528 530.589 328.819 529.55 328.161 529.306Z" fill="#020A13"/>
<path d="M309.839 528.588C310.956 528.878 311.813 529.718 312.104 530.833C312.288 531.505 313.329 531.23 313.16 530.543C312.778 529.061 311.614 527.916 310.129 527.534C309.456 527.366 309.165 528.42 309.839 528.588Z" fill="#020A13"/>
<path d="M309.639 542.868C310.512 542.883 310.925 542.18 311.247 541.463C311.706 540.394 312.027 539.279 312.211 538.118C312.318 537.431 311.277 537.14 311.155 537.828C311.048 538.5 310.895 539.141 310.696 539.798C310.573 540.21 310.19 541.783 309.624 541.783C308.935 541.768 308.935 542.868 309.639 542.868Z" fill="#020A13"/>
<path d="M308.49 548.198C309.393 549.191 309.837 550.428 309.822 551.772C309.807 552.474 310.893 552.474 310.909 551.772C310.939 550.138 310.358 548.626 309.256 547.419C308.796 546.9 308.031 547.679 308.49 548.198Z" fill="#020A13"/>
<path d="M314.201 554.994C315.319 555.116 316.314 555.559 317.186 556.231C317.737 556.659 318.288 555.712 317.737 555.284C316.696 554.49 315.502 554.032 314.201 553.895C313.497 553.833 313.512 554.933 314.201 554.994Z" fill="#020A13"/>
<path d="M322.971 550.473C323.231 549.175 323.997 548.106 325.175 547.465C325.788 547.129 325.237 546.182 324.624 546.518C323.231 547.281 322.236 548.625 321.93 550.183C321.777 550.871 322.833 551.161 322.971 550.473Z" fill="#020A13"/>
<path d="M330.059 539.416C329.936 537.797 329.508 536.27 328.788 534.819C328.482 534.193 327.533 534.743 327.839 535.369C328.467 536.652 328.85 537.996 328.957 539.416C329.033 540.119 330.12 540.119 330.059 539.416Z" fill="#020A13"/>
<path d="M322.298 532.589C321.303 532.039 320.369 531.413 319.497 530.68C318.961 530.237 318.18 531.001 318.731 531.444C319.68 532.223 320.675 532.925 321.747 533.521C322.359 533.872 322.91 532.925 322.298 532.589Z" fill="#020A13"/>
<path d="M316.191 534.85C316.497 536.133 317.308 537.232 318.456 537.904C319.069 538.256 319.62 537.324 319.007 536.957C318.104 536.423 317.492 535.583 317.247 534.56C317.094 533.888 316.038 534.162 316.191 534.85Z" fill="#020A13"/>
<path d="M324.38 537.935C324.778 539.263 324.564 540.577 323.783 541.722C323.385 542.303 324.334 542.852 324.732 542.272C325.681 540.913 325.926 539.233 325.452 537.644C325.237 536.988 324.181 537.263 324.38 537.935Z" fill="#020A13"/>
<path d="M314.323 545.418C315.64 544.838 316.696 543.845 317.385 542.593C317.721 541.982 316.788 541.432 316.435 542.043C315.823 543.143 314.905 543.967 313.757 544.471C313.129 544.762 313.68 545.708 314.323 545.418Z" fill="#020A13"/>
<path d="M319.054 546.503C319.008 547.358 318.641 548.091 317.998 548.656C317.478 549.13 318.243 549.893 318.763 549.42C319.605 548.656 320.08 547.618 320.126 546.487C320.172 545.8 319.085 545.815 319.054 546.503Z" fill="#020A13"/>
</g>
<path d="M303.802 515.294C314.285 519.358 321.024 526.738 324.34 537.433C325.196 540.321 325.41 541.497 321.666 541.283C289.467 539.893 257.162 539.358 225.07 537.219C198.755 535.508 172.439 534.866 146.124 533.476C126.227 532.406 115.423 516.791 122.483 498.182C125.799 489.412 131.041 481.818 137.887 475.294C141.524 471.872 145.161 468.449 148.691 465.027C149.868 463.316 150.724 461.39 152.649 460.214C154.147 459.251 155.645 458.182 156.821 456.898C157.998 455.936 158.961 454.439 160.672 454.332C179.179 437.754 197.792 421.07 216.298 404.492C235.981 386.738 255.664 368.984 275.454 351.23C276.524 351.123 277.593 351.551 278.449 352.086C292.997 360.642 309.043 362.674 325.624 362.995C342.954 363.316 359.962 361.39 376.971 358.396C381.571 357.647 384.566 355.615 385.101 350.802C385.956 346.631 385.422 342.246 385.742 338.075C385.956 336.043 385.636 333.155 388.524 333.262C390.984 333.369 390.877 336.043 390.984 337.968C391.198 342.567 391.198 347.166 390.984 351.765C390.877 353.476 391.305 354.332 393.338 354.011C403.393 352.513 413.555 353.69 423.611 353.369C425.643 353.262 427.997 353.048 429.387 355.294C413.769 396.685 398.151 438.075 382.212 480.321C390.984 478.289 399.221 477.647 407.565 478.396C422.113 479.679 435.378 485.668 449.284 489.626C452.279 490.481 454.098 490.909 455.809 487.273C458.698 481.283 463.084 480.535 468.753 483.85C471.748 485.562 475.065 484.599 478.167 484.599C491.752 484.706 491.752 484.599 494.961 497.433C497.422 506.952 497.422 506.952 487.259 507.166C486.511 507.166 485.869 507.273 484.799 507.273C485.227 510.909 487.152 512.727 490.682 513.476C504.268 516.471 514.644 523.316 518.709 537.54C519.565 540.428 520.207 541.925 515.928 541.711C459.126 539.358 402.323 537.326 345.414 536.578C339.102 536.471 333.005 535.508 327.443 532.3C319.954 528.021 317.173 520.856 315.783 512.941C313.643 510.909 314.82 508.556 315.248 506.417C320.489 477.54 326.266 448.77 331.935 419.893C332.256 417.968 333.112 416.15 332.577 413.583C298.453 435.615 264.757 457.754 230.204 480.214C239.19 482.888 247.32 486.096 255.771 488.342C257.482 488.77 258.98 488.342 259.943 486.845C264.222 480.749 269.036 478.931 276.417 482.353C280.589 484.385 285.937 482.781 290.751 482.888C297.811 482.995 298.453 483.423 300.165 490.374C301.234 494.332 302.197 498.289 303.16 502.246C304.122 506.096 302.946 508.128 298.774 508.128C297.704 508.128 296.634 508.128 295.565 508.235C294.709 508.342 293.639 508.235 293.318 509.198C292.997 510.481 294.174 511.016 295.137 511.444C298.025 512.834 301.448 512.727 303.802 515.294Z" fill="black"/>
<path d="M386.384 351.658C386.384 356.471 384.138 358.61 379.217 359.572C353.651 364.278 328.084 366.952 302.197 362.353C292.569 360.642 283.049 357.968 275.454 351.23C272.672 342.888 269.891 334.439 267.003 326.096C264.863 320 264.756 314.118 267.003 307.914C269.784 300.428 267.324 297.754 259.194 298.824C254.166 299.465 249.032 300.428 244.004 301.283C242.934 297.54 245.181 294.759 246.892 291.979C250.101 286.417 253.631 281.177 255.45 274.866C258.124 265.455 252.776 259.679 243.255 261.925C239.939 262.674 236.73 263.743 233.521 264.92C224.749 268.021 215.87 268.556 206.777 267.166C197.578 265.669 193.406 267.808 188.913 275.936C183.564 285.562 183.35 295.187 188.806 304.813C189.769 306.417 191.373 307.915 190.518 310.16C180.783 306.417 172.118 301.604 166.77 291.765C161.207 281.497 154.896 271.551 148.691 261.711C145.696 257.005 144.198 252.3 144.626 246.738C144.947 242.888 145.161 238.931 143.557 235.187C145.375 234.652 146.552 235.936 147.836 236.791C149.012 237.647 150.189 238.396 151.473 239.037C155.965 241.283 160.993 242.674 165.165 239.893C169.551 237.005 168.267 231.658 166.984 227.594C163.561 216.685 166.663 206.31 167.946 195.722C171.049 195.936 171.049 195.936 174.044 199.358C172.332 197.433 171.476 194.439 168.267 194.011C166.77 193.904 165.058 193.904 164.737 191.872C169.444 186.952 175.114 184.064 181.853 183.423C186.667 181.818 189.662 183.957 191.587 188.235C192.764 191.016 193.941 193.797 195.117 196.578C196.187 199.037 197.364 201.283 200.466 202.032C203.247 202.674 204.959 205.027 206.136 207.38C209.559 214.652 214.693 220.856 218.972 228.556C222.502 221.497 228.172 222.032 234.376 223.209C241.65 224.492 248.283 221.283 255.022 219.144C255.45 219.786 255.557 220.428 255.557 221.177C255.771 233.369 256.627 234.759 268.394 238.61C276.309 241.283 283.049 245.669 288.932 251.551C291.286 253.904 293.639 256.471 296.099 258.717C303.267 265.027 311.076 263.423 315.141 254.652C316.745 251.23 317.815 247.701 317.708 243.85C317.601 236.043 318.35 228.235 316.424 220.535C315.996 219.037 315.782 217.326 316.745 215.936C320.489 214.225 323.805 216.15 327.121 217.326C327.549 217.647 327.87 217.968 328.191 218.503C330.545 222.032 336.321 222.46 338.033 219.251C338.033 218.717 338.14 218.289 338.354 217.861C340.493 216.257 343.167 216.15 345.628 215.294C347.66 214.546 350.12 214.225 350.869 211.658C350.976 211.123 351.19 210.695 351.404 210.267C355.469 206.096 360.176 202.674 364.134 198.396C364.883 198.182 365.738 198.182 366.487 198.289C371.515 200.214 377.185 199.893 382.105 202.46C384.994 205.348 387.668 208.449 390.021 211.765C395.798 219.893 404.142 219.465 409.49 210.909C411.63 207.487 412.378 203.209 415.695 200.428C420.936 199.465 425.857 200.963 430.885 201.818C441.903 203.743 452.6 207.059 464.046 206.096C464.902 205.989 465.758 206.31 467.041 205.455C465.437 203.102 462.87 201.711 460.944 200C457.949 197.326 456.451 194.225 457.2 190.054C458.163 184.706 456.558 179.786 453.135 175.615C450.354 172.3 450.14 169.733 453.884 167.273C457.521 164.813 461.693 163.102 465.544 161.07C474.209 156.685 483.194 153.048 491.11 147.273C492.715 146.096 494.426 144.492 496.887 145.027C509.402 139.358 507.477 140.214 513.574 150.802C515.179 153.583 516.57 156.364 518.174 159.144C516.035 162.995 514.323 167.059 510.793 170.054C508.226 172.3 507.049 175.187 508.333 178.61C509.723 182.46 512.505 184.706 516.463 185.348C522.239 186.31 527.695 185.348 532.936 182.781C534.862 186.524 536.68 190.374 538.606 194.118C540.318 197.433 542.457 200.107 545.666 202.46C558.61 211.979 558.717 234.759 545.987 244.171C533.685 253.369 519.993 260.321 506.3 267.059C504.482 268.021 502.556 268.021 500.631 268.021C490.147 268.235 479.664 269.091 469.288 270.267C465.437 270.695 462.228 271.765 462.656 276.685C462.869 280.107 460.516 281.818 457.842 283.102C453.884 285.027 449.712 286.738 445.647 288.556C441.368 290.588 439.122 293.69 439.549 298.717C440.405 309.84 441.047 321.07 441.796 332.193C439.977 333.048 440.084 334.652 440.084 336.257C440.084 339.679 438.908 342.781 437.945 345.669C439.656 343.636 438.373 339.786 441.903 338.396C442.01 339.251 442.224 340.107 442.224 340.963C442.331 352.513 441.582 353.369 430.136 354.546C422.755 353.583 415.374 354.759 408.1 353.904C406.174 351.444 408.207 349.947 409.597 348.449C412.272 345.562 414.625 342.46 416.443 338.931C417.513 335.722 418.583 332.513 419.76 329.412C422.541 322.139 423.611 314.546 420.829 306.952C417.085 296.685 414.732 286.096 412.272 275.508C411.737 273.048 410.881 270.695 409.704 268.449C407.565 264.385 404.676 261.283 399.863 261.39C394.835 261.497 390.556 263.209 387.882 268.128C385.101 273.369 383.282 278.931 381.036 284.385C378.468 290.374 374.831 295.615 370.445 300.321C360.604 310.802 359.32 323.957 367.236 336.043C370.98 341.818 375.794 346.524 382.426 348.984C383.71 349.84 385.314 350.267 386.384 351.658Z" fill="#3D97E6"/>
<path d="M365.952 198.824C365.097 198.93 364.348 198.93 363.492 199.037C361.032 200.428 358.357 201.176 355.469 201.497C344.023 202.888 332.577 204.813 321.024 206.203C313.75 207.059 312.038 206.096 310.648 199.037C309.15 191.23 306.904 183.422 306.369 175.401C307.225 172.513 309.578 173.904 311.29 173.797C314.285 173.69 316.424 172.62 317.708 169.84C318.885 167.059 318.243 164.599 316.21 162.46C314.285 160.428 312.145 160.749 309.899 162.139C307.866 163.529 305.834 164.385 303.801 161.925C302.625 160.321 301.127 159.572 299.202 159.572C292.462 159.465 285.83 157.968 278.984 158.396C276.523 158.824 273.1 156.791 271.924 159.893C270.961 162.567 272.779 165.241 275.026 167.166C275.454 167.487 275.775 167.914 276.096 168.342C276.203 170.909 278.556 173.369 276.203 175.936C251.385 158.61 241.33 128.021 251.171 99.4652C260.799 71.5508 288.718 52.9412 318.564 55.615C343.916 57.861 362.529 71.016 373.548 94.1176C375.259 97.754 376.864 98.6096 380.715 97.647C390.556 95.1872 400.505 93.262 410.453 91.2299C416.016 94.3315 416.657 100.321 418.262 105.561C419.011 108.128 416.23 109.198 414.09 109.091C407.458 108.77 401.681 111.444 395.584 113.155C391.305 114.438 386.277 113.797 382.854 116.684C379.003 119.893 381.57 125.134 380.822 129.412C379.645 136.257 378.04 143.102 374.831 149.305C372.906 153.048 373.12 156.257 375.045 159.893C379.859 169.091 383.817 178.61 387.561 188.235C390.235 195.08 389.379 196.684 381.998 197.754C376.864 198.396 371.408 199.893 365.952 198.824Z" fill="black"/>
<path d="M181.639 183.422C175.862 186.096 169.872 188.556 164.63 192.192C157.998 197.112 151.259 201.711 142.594 201.925C133.287 179.251 123.446 156.898 116.065 133.476C113.498 125.348 114.032 118.075 120.451 111.979C120.986 111.551 121.627 111.23 122.269 110.909C123.66 112.727 123.874 112.834 124.088 111.872C124.944 108.235 127.511 105.348 128.474 101.711C131.362 97.9679 135.32 96.7914 139.92 97.2192C141.738 98.6096 139.706 100.107 139.92 101.818C141.096 97.9679 142.38 94.5454 145.482 92.0855C150.938 87.2727 156.714 88.0213 162.598 91.016C162.277 94.4385 158.64 95.9358 158.105 99.786C159.282 97.1123 160.458 94.9732 162.384 93.4759C164.309 91.8716 166.449 90.5882 169.23 91.1229C172.76 91.1229 176.397 91.016 179.927 91.016C181.104 90.3743 181.318 88.4492 183.03 88.6631C184.099 89.5187 184.741 90.8021 186.239 91.016C189.662 92.6203 192.764 94.6524 195.652 97.1123C197.685 99.4652 198.434 102.032 196.508 104.813C194.69 107.38 192.015 108.235 189.02 107.487C185.276 106.524 183.992 108.128 184.42 111.551C184.848 114.866 183.137 118.503 185.704 121.604C187.736 121.818 189.341 120.535 191.053 120C191.694 119.786 192.443 119.679 193.085 119.572C196.08 119.144 199.396 117.54 201.75 120.963C203.996 124.385 202.071 127.273 200.252 130.16C199.503 131.23 198.648 132.086 197.792 133.048C197.15 133.797 196.401 134.438 195.438 134.759C189.876 139.465 183.885 143.422 176.825 145.882C168.267 148.877 166.021 156.364 170.514 164.171C174.365 170.374 178.002 176.898 181.639 183.422Z" fill="#EC4546"/>
<path d="M396.226 111.872C401.789 109.733 407.244 107.594 413.449 107.914C416.872 108.128 418.904 106.952 416.551 102.888C414.305 99.1444 413.449 94.6524 410.668 91.2299C411.737 89.9465 411.096 88.5561 410.989 87.1658C410.775 82.5668 413.021 80.4278 417.514 81.0695C419.546 81.3904 420.83 81.4973 421.365 79.1444C421.472 78.8235 421.793 78.5027 421.9 78.1818C423.825 73.262 429.923 77.4331 431.955 73.9037C434.309 69.7326 437.411 68.4492 441.69 69.8396C443.829 70.5882 443.936 69.1978 444.792 68.1283C448.215 63.4224 451.424 63.1016 455.917 67.0588C459.982 70.5882 461.159 75.9358 464.154 80C468.326 84.385 470.358 89.9465 472.498 95.4011C472.07 97.5401 473.46 99.1444 474.316 100.749C481.697 115.508 489.185 130.16 496.673 144.92C483.837 154.866 468.433 160.214 454.419 168.128C452.066 167.38 451.424 165.241 450.461 163.315C447.359 156.684 443.401 150.481 440.192 143.957C434.629 132.406 424.788 126.631 413.128 123.209C408.314 121.818 403.287 121.497 398.58 119.893C393.445 118.182 393.017 116.364 396.226 111.872Z" fill="#EC4546"/>
<path d="M190.518 310.054C182.602 299.037 180.249 287.38 187.63 275.401C194.262 264.492 196.723 263.957 207.42 265.775C215.229 267.166 223.252 266.845 230.954 264.171C235.447 262.674 240.047 261.177 244.646 260C253.204 257.968 259.622 264.92 257.376 273.583C255.771 279.679 252.776 285.134 249.46 290.374C247.214 293.797 245.502 297.54 244.004 301.284C230.74 304.92 217.475 308.663 204.211 312.3C199.29 313.69 194.797 312.406 190.518 310.054Z" fill="#0E76CF"/>
<path d="M316.746 215.722C319.313 225.241 319.206 235.08 318.778 244.813C318.564 250.16 317.173 255.294 313.322 259.465C307.546 265.562 301.448 265.775 295.137 260.107C291.393 256.578 287.863 252.727 284.119 249.305C278.342 244.064 271.389 241.177 264.008 238.824C254.595 235.829 251.385 228.77 254.594 219.251C266.896 213.797 279.198 208.128 292.784 206.738C297.918 206.203 303.053 206.417 308.188 207.38C310.648 207.808 312.36 209.305 313.857 211.23C314.071 213.048 316.852 213.476 316.746 215.722Z" fill="#0E76CF"/>
<path d="M313.75 211.016C311.718 210.053 309.471 209.198 308.295 207.059C307.974 205.882 307.546 204.706 307.225 203.529C305.299 196.257 302.839 190.909 292.998 192.62C286.365 193.797 281.658 188.556 278.877 182.353C277.914 180.214 277.166 178.075 276.31 175.936C277.273 173.583 274.277 171.23 276.096 168.877C275.561 164.813 274.812 160.642 278.342 157.326C285.83 157.54 293.425 157.861 300.913 157.861C304.444 157.861 304.978 159.893 305.192 162.46C307.76 166.096 308.402 170.053 307.439 174.438C309.043 182.567 310.648 190.802 312.253 198.93C313.643 205.882 313.536 205.775 320.81 204.706C335.038 202.674 349.265 200.856 363.492 199.037C360.818 204.064 356.218 207.059 351.832 210.16C345.735 215.615 338.033 215.722 330.545 215.722C326.48 215.722 322.201 214.866 318.029 213.904C316.424 213.262 314.392 213.262 313.75 211.016Z" fill="#EC4546"/>
<path d="M37.4402 167.701C42.4679 167.914 46.6399 165.134 51.4536 164.278C61.9369 162.46 71.1366 165.561 79.9083 170.16C88.5731 174.759 88.3591 174.973 83.9733 183.957C79.8013 192.406 73.383 198.93 65.467 203.957C57.2301 209.198 48.3514 209.198 39.2588 207.594C31.3428 206.096 24.0687 202.888 16.9015 199.144C13.7993 197.54 12.3017 196.257 14.7621 192.299C19.4689 184.492 24.9245 177.433 32.4125 171.979C33.5892 171.123 36.5845 170.802 35.4078 167.914C36.0496 167.166 36.6914 167.059 37.4402 167.701Z" fill="#020A13"/>
<path d="M142.594 201.818C150.403 199.679 157.142 195.08 164.63 192.086C165.7 192.727 166.77 193.048 167.947 192.299C168.909 193.155 169.979 194.011 169.016 195.508C168.909 205.348 164.523 215.08 168.054 225.027C169.337 228.556 169.337 232.299 169.23 236.043C169.016 240.321 166.77 242.246 162.598 242.674C154.789 243.529 149.012 240 143.557 235.08C139.171 226.952 136.39 218.503 137.887 209.091C138.315 205.989 139.813 203.529 142.594 201.818Z" fill="#0E75CF"/>
<path d="M134.892 358.717C134.785 362.781 134.037 367.38 132.432 371.765C129.865 378.717 125.158 380 119.168 375.508C114.033 371.551 110.396 366.31 108.149 360.107C106.117 354.652 107.508 349.84 111.572 345.989C115.744 342.032 120.879 340.856 126.335 343.209C131.576 345.455 134.358 349.519 134.892 355.08C134.999 356.043 134.892 357.112 134.892 358.717Z" fill="#010101"/>
<path d="M505.017 363.636C507.584 366.096 508.975 370.161 513.575 369.84C514.43 370.374 515.179 371.016 515.714 371.872C514.43 375.187 515.286 377.326 519.137 377.433C519.779 378.289 519.886 379.251 519.137 380.107C510.258 389.84 494.747 393.262 485.013 385.989C479.45 381.925 475.278 376.685 471.641 371.016C470.572 369.305 471.213 368.021 471.962 366.524C472.604 365.882 473.246 365.882 473.888 366.417C476.241 365.241 479.022 364.813 480.52 362.246C481.162 361.39 481.59 360.214 482.873 360.107C485.869 363.957 488.543 361.711 491.431 359.893C492.608 359.465 493.464 358.396 494.64 357.968C495.71 362.46 499.668 362.46 503.091 363.209C503.733 362.781 504.375 362.888 505.017 363.636Z" fill="#D0E9FE"/>
<path d="M532.723 182.781C527.482 189.733 510.687 188.235 507.264 180.535C505.766 177.112 505.338 173.69 508.12 170.588C511.329 167.059 515.18 164.171 516.035 159.037C516.035 158.93 517.319 159.037 517.961 159.037C525.556 165.348 528.979 174.118 532.723 182.781Z" fill="#0E76CF"/>
<path d="M113.605 242.888C116.6 251.23 111.572 254.439 105.154 258.289C97.8796 262.567 92.531 262.353 85.2569 258.182C78.7315 254.439 76.2712 250.802 76.1642 243.102C76.0572 235.08 78.7316 231.23 85.5778 227.487C92.638 223.636 98.3075 222.46 104.619 227.701C104.726 227.808 104.833 227.808 104.94 227.808C112 230.588 116.707 234.546 113.605 242.888Z" fill="#080808"/>
<path d="M195.545 134.438C196.08 133.797 196.615 133.048 197.257 132.406C201.536 132.299 204.317 135.401 207.633 137.326C210.949 139.251 213.838 139.786 217.368 137.433C223.679 133.155 230.418 129.626 237.051 125.775C240.046 124.064 241.651 121.925 241.544 118.182C241.33 110.053 241.33 101.818 241.544 93.6898C241.651 90.4812 240.474 88.4492 237.693 86.8449C230.525 82.8877 223.465 78.7165 216.619 74.3315C213.624 72.4064 211.163 72.7272 208.382 74.4385C201.322 78.8235 194.155 83.1016 186.881 87.3796C185.49 88.2353 184.206 89.1978 182.602 89.4117C182.067 90.5882 181.853 92.4064 179.927 90.9091C179.606 88.2353 180.462 86.4171 183.137 84.9197C192.122 79.893 201.001 74.6524 209.773 69.1978C212.126 67.7005 213.838 68.0214 215.977 69.3048C224.642 74.5454 233.307 79.6791 242.078 84.7058C244.539 86.0962 245.502 87.8074 245.395 90.5882C245.181 100.856 245.181 111.23 245.395 121.497C245.395 124.278 244.646 125.989 242.078 127.38C233.307 132.299 224.535 137.54 215.977 142.781C213.838 144.064 212.019 144.492 209.773 142.995C205.066 140 200.252 137.326 195.545 134.438Z" fill="#090909"/>
<path d="M166.984 351.979C166.877 359.037 163.989 364.171 160.031 364.278C155.003 364.385 146.445 355.294 146.659 350.053C146.873 345.562 151.58 341.925 156.929 342.032C163.133 342.139 167.091 346.096 166.984 351.979Z" fill="#020202"/>
<path d="M582.786 302.995C582.144 305.775 584.069 309.198 581.716 310.909C577.865 313.797 573.372 317.54 569.2 317.54C565.028 317.54 560.108 314.118 556.791 310.909C553.903 308.128 556.043 303.209 555.829 299.251C555.722 297.754 554.866 295.722 556.791 294.652C560.963 292.3 565.242 288.235 569.414 288.235C573.586 288.235 578.186 291.979 581.93 294.973C584.176 296.685 582.144 300.428 582.786 302.995Z" fill="#0C0C0C"/>
<path d="M379.859 16.1497C378.576 18.6096 380.394 18.9305 382.106 19.2513C382.748 20.107 384.031 20.3209 384.138 21.6043C378.79 23.8503 374.297 28.1283 367.665 27.9144C358.251 27.5936 351.191 22.139 348.944 12.5134C349.479 11.6578 350.121 10.9091 351.191 10.6952C352.795 10.8021 354.186 10.4813 354.293 8.4492C355.363 7.80749 356.432 8.4492 357.502 8.55615C360.283 8.87701 361.995 8.23529 361.674 4.91979C361.567 3.1016 360.711 1.06952 362.958 0C363.707 0.855615 363.707 1.92513 363.814 2.99465C364.027 4.70588 364.669 2.8877 365.097 3.1016C366.809 5.24064 365.097 10.1604 370.339 9.51872C371.409 9.30481 372.478 9.30481 373.441 9.62567C373.762 12.2995 375.687 13.5829 377.72 14.9733C378.576 14.8663 379.432 15.0802 379.859 16.1497Z" fill="#CEE6FA"/>
<path d="M504.803 420.214C503.841 423.529 505.231 429.519 499.776 430.588C494.748 431.551 492.502 426.417 490.255 422.674C488.223 419.358 488.116 415.936 490.79 412.834C493.357 409.947 496.673 409.412 499.99 410.802C503.734 412.3 505.017 415.508 504.803 420.214Z" fill="#030303"/>
<path d="M472.497 95.4011C468.325 91.0161 466.614 85.3477 464.153 80.0001C477.739 75.9359 477.525 76.0428 480.413 88.3423C481.376 92.6204 480.306 94.4386 476.134 94.7594C474.851 94.8664 473.674 95.1872 472.497 95.4011Z" fill="#030303"/>
<path d="M523.737 425.027C522.774 427.807 524.165 432.513 519.03 432.834C515.928 433.048 510.9 425.668 511.649 422.246C512.291 418.93 514.538 416.791 518.068 417.112C522.453 417.54 523.951 420.642 523.737 425.027Z" fill="#050505"/>
<path d="M506.943 446.631C505.873 449.091 507.05 453.583 502.45 454.118C499.348 454.545 494.32 447.38 494.855 443.743C495.283 440.321 497.529 438.396 500.952 438.396C504.803 438.289 507.264 441.604 506.943 446.631Z" fill="#060606"/>
<path d="M523.738 446.417C522.989 449.198 523.844 453.369 519.352 454.118C516.677 454.546 511.329 447.808 511.65 444.278C511.97 440.642 514.003 438.396 517.854 438.289C521.598 438.289 523.951 441.497 523.738 446.417Z" fill="#040404"/>
<path d="M540.532 445.989C539.997 448.984 540.746 453.155 536.895 453.904C533.365 454.652 531.546 451.016 529.941 448.342C528.337 445.775 527.802 443.102 529.941 440.535C531.76 438.503 534.006 437.647 536.574 438.61C539.89 440 540.96 442.674 540.532 445.989Z" fill="#040404"/>
<path d="M507.157 466.952C506.408 469.947 507.371 474.225 502.878 475.294C500.204 475.936 494.962 469.412 495.069 465.668C495.176 461.925 497.208 459.572 500.952 459.572C505.338 459.679 507.05 462.46 507.157 466.952Z" fill="#040404"/>
<path d="M407.672 352.834C412.593 354.759 417.835 353.262 422.862 353.797C425.216 354.011 427.89 352.941 430.029 354.652C429.815 354.866 429.601 355.08 429.388 355.294C416.551 354.973 403.714 353.262 390.877 356.364C386.171 357.54 389.701 354.011 389.487 352.62C395.049 350.588 400.505 348.235 406.602 348.342C407.993 349.626 405.961 351.765 407.672 352.834Z" fill="#3890DB"/>
<path d="M441.796 338.503C440.726 341.711 439.763 344.813 438.694 347.914C438.373 348.984 437.624 349.947 436.447 349.305C435.485 348.877 435.912 347.808 436.126 346.952C437.624 342.246 439.015 337.647 438.801 332.513C438.694 328.556 440.619 331.23 441.796 332.193C441.796 334.332 441.796 336.471 441.796 338.503Z" fill="#0A1926"/>
<path d="M169.124 90.9091C163.026 93.0481 158.641 96.8984 157.892 104.171C155.645 98.8235 156.822 96.1497 162.492 90.9091C164.738 90.6952 166.984 87.5936 169.124 90.9091Z" fill="#150808"/>
<path d="M22.9986 177.647C22.7846 178.717 22.0358 179.358 21.0731 178.717C17.436 175.936 13.9059 172.941 10.2689 169.946C9.73399 169.519 9.52005 168.663 10.2689 168.128C10.5898 167.914 11.4456 167.701 11.6595 167.914C15.2966 170.802 18.8267 173.69 22.3567 176.684C22.7846 176.898 22.8916 177.326 22.9986 177.647Z" fill="#1F1F1F"/>
<path d="M74.3462 165.027C73.0625 164.599 72.8486 163.85 73.0625 162.888C74.3462 158.824 75.6299 154.759 76.9135 150.695C77.1275 149.947 77.5554 149.412 78.4111 149.519C79.3739 149.626 79.5878 150.374 79.3739 151.016C78.0902 155.401 76.8066 159.893 75.4159 164.278C75.3089 164.599 74.6671 164.813 74.3462 165.027Z" fill="#242424"/>
<path d="M54.6632 158.61C54.3423 159.786 55.626 161.818 53.7005 162.139C51.561 162.567 52.0959 160.214 51.8819 159.037C51.3471 155.722 51.1331 152.299 50.8122 148.984C50.7052 147.914 50.3843 146.631 51.775 146.417C53.2726 146.096 53.3795 147.487 53.4865 148.449C54.0214 151.872 54.3423 155.187 54.6632 158.61Z" fill="#1D1D1D"/>
<path d="M128.474 101.604C129.33 102.674 129.544 103.743 128.581 104.92C125.907 108.021 125.693 112.406 123.981 116.043C120.879 114.652 122.697 112.406 122.27 110.695C124.302 107.807 124.516 103.422 128.474 101.604Z" fill="#291213"/>
<path d="M37.4401 167.701C36.7982 167.808 36.0494 167.914 35.4076 167.914C32.9472 164.492 30.4869 161.07 28.0265 157.647C27.3847 156.791 25.994 155.722 27.5986 154.545C28.7753 153.69 29.5241 154.866 30.059 155.722C32.4124 159.786 36.4773 162.781 37.4401 167.701Z" fill="#222222"/>
<path d="M96.7028 159.786C93.9216 163.743 91.2472 167.808 88.359 171.765C88.252 171.979 87.0753 171.872 87.0753 171.658C86.8614 171.016 86.6474 170.16 86.9683 169.733C89.3217 165.989 91.6751 162.353 94.2425 158.717C94.5634 158.289 95.4192 158.182 96.061 158.182C96.275 158.182 96.3819 159.037 96.7028 159.786Z" fill="#1C1C1C"/>
<path d="M13.5857 191.444C8.77193 190.374 4.92092 187.166 0.642026 184.92C-0.106782 184.599 -0.213754 183.743 0.214136 183.102C0.642026 182.353 1.49781 182.567 2.13964 182.888C6.31157 185.134 10.3765 187.38 14.4415 189.626C14.2275 190.267 13.9066 190.802 13.5857 191.444Z" fill="#1A1A1A"/>
<path d="M145.376 91.9786C143.557 96.4706 140.776 100.642 140.348 106.845C136.818 102.567 139.385 99.7861 139.92 97.0054C141.631 95.2941 141.204 91.23 145.376 91.9786Z" fill="#1F0E0E"/>
<path d="M494.534 358.075C494.106 359.786 494.641 363.209 491.325 360C491.218 357.54 491.004 355.08 491.004 352.62C491.004 351.658 490.79 350.267 492.181 350.16C493.678 350.054 493.571 351.444 493.785 352.406C493.999 354.225 494.213 356.15 494.534 358.075Z" fill="#3B3B3B"/>
<path d="M482.767 360.214C482.767 361.818 482.339 362.888 480.413 362.353C479.45 359.679 478.488 357.112 477.525 354.439C477.204 353.369 476.883 352.3 478.274 351.872C479.344 351.551 479.771 352.62 480.092 353.369C481.055 355.615 481.911 357.968 482.767 360.214Z" fill="#2E2E2E"/>
<path d="M519.03 380.107C519.03 379.251 519.03 378.289 519.03 377.433C521.277 376.364 523.523 375.401 525.77 374.332C526.732 373.904 527.909 373.262 528.658 374.332C529.407 375.508 528.23 376.257 527.267 376.685C524.486 377.968 522.132 380 519.03 380.107Z" fill="#252525"/>
<path d="M473.781 366.524C473.139 366.524 472.497 366.524 471.856 366.631C470.465 364.171 468.967 361.818 467.577 359.358C467.149 358.61 466.614 357.754 467.577 357.005C468.432 356.364 469.288 356.791 469.716 357.647C471 360.642 473.888 362.888 473.781 366.524Z" fill="#222323"/>
<path d="M505.017 363.636C504.375 363.529 503.626 363.422 502.984 363.315C503.091 360.214 505.017 357.861 506.087 355.08C506.408 354.118 507.049 352.941 508.333 353.476C509.831 354.011 509.082 355.187 508.654 356.043C507.37 358.717 506.194 361.176 505.017 363.636Z" fill="#242424"/>
<path d="M515.607 371.979C514.11 372.085 513.468 371.337 513.468 369.946C515.5 368.128 517.533 366.203 519.672 364.385C520.314 363.85 521.063 363.102 521.919 363.957C522.667 364.706 522.239 365.668 521.598 366.31C519.672 368.128 517.64 370.053 515.607 371.979Z" fill="#1F1F1F"/>
<path d="M379.86 16.1498C378.897 16.0428 378.041 15.8289 377.613 14.8664C378.79 13.5829 379.967 12.2995 381.25 11.1231C382.213 10.2674 383.283 8.44926 384.673 10.0535C385.85 11.5509 383.818 12.2995 382.962 13.2621C381.892 14.3316 380.822 15.1872 379.86 16.1498Z" fill="#313131"/>
<path d="M357.502 8.44909C356.325 10.4812 355.363 9.19775 354.293 8.34214C354.4 5.9892 351.298 2.56674 353.544 1.81807C356.432 0.962458 355.897 5.45444 357.288 7.37957C357.395 7.70043 357.395 8.02128 357.502 8.44909Z" fill="#2C2C2C"/>
<path d="M351.191 10.5883C350.977 11.8717 350.442 12.7273 348.944 12.4064C348.837 12.2995 348.837 12.0856 348.73 11.9786C347.767 9.73265 344.344 6.31019 346.056 5.45457C349.265 3.95725 349.265 8.87703 351.191 10.5883Z" fill="#262627"/>
<path d="M373.334 9.51866C372.264 10.3743 371.194 10.6951 370.231 9.41171C370.338 9.09085 370.445 8.77 370.659 8.44914C372.05 6.41706 372.264 1.81813 374.617 2.78069C377.399 4.06412 373.334 7.05877 373.334 9.51866Z" fill="#212121"/>
<path d="M384.139 21.4973C382.32 21.7112 381.357 21.2834 382.106 19.1444C382.32 19.1444 382.427 19.0374 382.641 19.0374C384.887 18.6096 387.776 15.0802 388.952 17.4331C390.129 20 385.529 19.7861 384.139 21.4973Z" fill="#191919"/>
<path d="M365.097 3.1016C364.455 4.81283 365.952 6.84492 364.027 8.6631C361.994 5.88235 362.422 2.8877 362.957 0C365.097 0 364.669 1.81818 365.097 3.1016Z" fill="#0B0B0B"/>
<path d="M406.709 349.519C402.323 348.235 399.328 352.406 395.156 352.193C393.338 352.086 391.412 352.62 389.487 352.62C389.487 346.31 390.449 340 388.845 333.69C386.17 339.465 388.738 345.882 386.491 351.658C373.013 349.305 361.46 335.294 360.604 320.963C360.069 312.513 361.995 305.775 368.627 300.107C375.473 294.225 379.324 286.096 382.319 277.647C383.496 274.332 385.208 271.123 386.491 267.807C388.952 261.604 394.407 260.214 399.863 260C404.998 259.786 408.635 263.102 410.881 267.807C412.379 270.909 413.341 274.118 414.09 277.326C416.23 287.059 418.369 296.685 421.899 305.989C424.787 313.476 424.039 320.963 421.578 328.342C420.295 332.193 418.904 335.936 417.513 339.679C416.23 338.717 416.337 337.647 417.085 336.471C414.09 341.39 413.021 347.594 406.709 349.519Z" fill="#0E76CF"/>
<path d="M469.075 537.219C454.526 536.684 439.871 536.15 425.323 535.722C422.649 535.615 420.937 535.615 421.9 531.979C425.216 518.717 427.89 505.348 432.276 492.299C433.667 488.128 435.378 487.594 439.015 489.091C441.797 490.267 444.792 490.695 447.68 491.765C452.387 493.476 456.238 495.615 458.591 488.021C460.196 482.674 465.331 483.102 468.54 488.021C473.568 495.722 478.595 503.529 483.516 511.337C484.907 513.583 486.511 514.866 489.185 515.508C493.678 516.578 497.957 518.396 502.236 520.107C505.552 521.497 508.548 523.529 510.58 526.524C512.933 530.053 516.677 534.118 515.287 537.754C514.431 540.107 508.548 538.289 504.91 538.396C493.037 538.503 481.056 538.396 469.182 538.396C469.075 538.182 469.075 537.647 469.075 537.219Z" fill="#FEFEFE"/>
<path d="M321.666 538.824C298.56 537.861 275.989 536.898 253.418 535.936C245.823 535.615 238.121 535.294 230.526 535.08C228.065 534.973 227.21 534.332 227.958 531.551C231.702 517.861 235.233 504.064 238.656 490.267C239.19 487.914 240.26 487.487 242.4 488.235C247.427 489.947 252.669 491.23 257.697 492.941C260.264 493.797 261.976 494.545 262.404 490.695C262.617 489.091 263.794 487.38 265.078 486.203C267.966 483.422 270.854 482.888 273.315 486.845C278.235 494.652 283.37 502.353 288.291 510.16C290.109 513.048 292.035 514.973 295.565 515.615C298.881 516.15 301.983 517.647 305.193 518.824C314.178 522.353 318.992 529.198 321.666 538.824Z" fill="#FEFEFE"/>
<path d="M143.771 495.615C156.822 485.455 168.696 476.15 180.57 466.845C211.913 442.46 243.149 417.968 274.492 393.69C277.38 391.444 278.129 389.733 276.524 386.31C275.241 383.636 275.027 380.535 274.385 377.54C274.171 376.471 274.064 375.187 275.455 374.973C276.845 374.759 276.952 376.043 277.059 377.112C278.129 386.31 281.766 394.225 289.361 399.893C290.11 400.428 290.966 401.07 290.324 402.032C289.468 403.422 288.505 402.567 287.649 401.925C286.152 400.642 284.226 399.572 283.371 397.968C280.589 392.941 278.129 394.011 274.171 397.005C234.805 427.914 195.332 458.61 155.966 489.519C154.683 490.588 152.864 491.123 152.115 493.583C159.282 494.011 166.343 494.439 173.403 494.866C188.914 495.829 204.318 496.684 219.829 497.647C221.113 497.754 222.289 497.754 223.573 497.968C224.108 498.075 224.964 498.61 225.071 499.037C225.178 500.214 224.215 500.321 223.252 500.321C222.503 500.321 221.861 500.321 221.113 500.321C195.867 498.824 170.622 497.219 143.771 495.615Z" fill="#F5F5F5"/>
<path d="M299.523 503.957C292.142 505.668 286.152 505.134 282.836 497.219C281.552 494.011 279.199 491.23 276.952 487.808C282.729 486.738 288.184 487.487 293.426 487.273C295.03 487.166 295.458 488.342 295.779 489.626C296.956 494.332 298.24 499.144 299.523 503.957Z" fill="#FBFBFB"/>
<path d="M471 487.38C473.674 487.38 475.065 487.38 476.456 487.38C490.469 487.38 490.362 487.38 493.25 501.177C493.678 503.529 493.785 504.492 490.897 504.706C485.013 505.134 480.307 504.278 477.739 497.968C476.242 494.546 473.674 491.551 471 487.38Z" fill="#FCFCFC"/>
<path d="M153.184 461.176C152.97 456.684 155.217 453.262 157.57 449.305C159.175 452.299 157.035 454.759 157.463 457.326C156.393 458.93 155.003 460.321 153.184 461.176Z" fill="#F6F0D8"/>
<path d="M516.677 246.952C517.319 254.332 514.003 259.358 507.906 262.246C501.38 265.241 494.855 263.85 489.506 259.465C483.088 254.225 477.098 248.235 471.214 242.353C466.079 237.326 466.614 230.481 471.963 225.989C484.907 215.187 486.511 215.187 500.204 225.455C504.376 228.556 509.938 229.84 513.04 234.652C515.501 238.61 517.426 242.46 516.677 246.952Z" fill="#0E76CF"/>
<path d="M381.999 202.995C393.124 203.316 403.821 197.968 415.161 200.963C412.593 207.701 410.347 214.652 402.752 217.861C397.082 220.214 393.766 219.786 390.557 214.439C387.989 210.374 383.818 207.594 381.999 202.995Z" fill="#0E76CF"/>
<path d="M488.222 204.92C483.943 204.92 479.664 205.455 475.813 207.487C474.851 208.021 473.888 209.947 472.925 208.021C471.962 206.31 473.674 205.455 474.958 204.92C482.981 201.497 491.324 200.214 499.24 204.278C508.226 208.877 516.677 214.545 525.342 219.786C526.518 220.535 527.588 221.604 528.444 222.674C529.193 223.529 530.476 224.813 529.193 225.882C527.695 227.166 527.267 225.134 526.411 224.492C517.105 217.005 506.408 211.765 496.031 205.882C493.678 204.706 490.897 205.027 488.222 204.92Z" fill="#040A10"/>
<path d="M218.652 231.444C203.248 237.968 192.765 248.556 181.853 258.717C178.644 261.711 176.826 264.599 179.179 268.877C179.607 269.733 180.356 270.909 178.751 271.444C177.681 271.765 177.147 270.802 176.826 269.946C175.114 266.203 174.258 262.567 177.574 259.144C186.988 249.626 196.83 240.535 208.169 233.476C210.95 231.765 213.624 229.84 218.652 231.444Z" fill="#040B10"/>
<path d="M313.751 211.016C314.927 211.551 316.104 211.979 317.281 212.513C328.299 215.936 339.21 216.364 350.014 211.337C350.656 211.016 351.405 211.123 352.047 211.444C352.475 214.546 349.8 214.866 348.089 215.508C344.987 216.685 341.563 217.219 338.354 218.075C334.717 220 331.187 220 327.55 218.075C324.02 217.219 320.49 216.471 316.96 215.615C312.253 213.155 312.253 213.155 313.751 211.016Z" fill="#03080D"/>
<path d="M275.561 328.77C276.631 328.984 276.952 329.733 276.738 330.695C275.775 336.898 278.984 342.032 281.338 347.38C281.872 348.663 282.407 350.053 282.728 351.337C282.942 351.979 282.728 352.834 281.765 352.941C281.338 352.941 280.589 352.62 280.482 352.299C277.807 345.561 273.315 339.465 273.849 331.765C273.956 329.84 274.598 328.877 275.561 328.77Z" fill="#08131E"/>
<path d="M297.919 358.824C294.71 354.652 295.565 350.802 295.245 347.273C294.817 342.46 294.603 337.647 295.458 332.941C295.672 331.979 296.1 330.802 297.491 330.802C298.454 330.802 298.668 331.658 298.454 332.299C296.314 340.107 298.133 347.807 298.561 355.615C298.561 356.257 298.24 357.005 297.919 358.824Z" fill="#050C12"/>
<path d="M341.35 349.733C340.922 352.941 340.601 355.936 340.173 358.931C340.066 360 339.745 361.283 338.461 361.177C336.964 361.07 337.071 359.786 337.285 358.717C338.354 352.727 338.461 346.738 337.285 340.642C337.071 339.786 337.178 338.717 338.14 338.396C339.531 338.075 339.959 339.251 340.066 340.321C340.601 343.423 340.922 346.631 341.35 349.733Z" fill="#0A1A27"/>
<path d="M314.82 360.963C314.82 352.192 314.82 343.315 314.82 334.545C315.248 334.545 315.676 334.545 316.104 334.545C317.281 343.315 316.425 352.086 316.639 360.963C315.997 360.963 315.462 360.963 314.82 360.963Z" fill="#000102"/>
<path d="M463.19 171.765C463.404 170.802 463.511 169.733 463.832 168.77C464.474 167.166 465.33 164.813 467.362 165.882C469.288 166.845 466.934 168.128 466.614 169.305C465.544 172.941 467.041 175.936 468.753 178.823C469.288 179.679 470.144 180.856 468.86 181.604C467.683 182.246 466.934 181.176 466.4 180.321C464.688 177.754 463.618 174.973 463.19 171.765Z" fill="#091824"/>
<path d="M406.709 349.519C411.202 345.989 413.662 340.856 416.336 335.936C418.369 337.005 417.299 338.61 417.513 339.786C415.053 344.706 411.309 348.663 407.672 352.834C406.923 352.834 405.96 353.476 405.425 352.513C404.783 351.23 406.281 350.588 406.709 349.519Z" fill="#040C14"/>
<path d="M433.025 335.615C430.778 340.535 427.141 344.92 423.397 349.198C423.183 349.519 422.327 349.626 421.9 349.412C421.258 349.091 421.044 348.235 421.472 347.594C424.574 343.102 428.318 339.037 430.778 334.011C430.885 333.69 431.741 333.476 432.062 333.583C433.132 333.797 433.239 334.545 433.025 335.615Z" fill="#07111A"/>
<path d="M181.104 186.203C184.955 186.31 190.518 192.193 190.946 196.364C191.053 197.112 190.946 197.861 190.197 198.182C189.341 198.61 188.806 197.968 188.485 197.326C186.56 193.048 184.634 188.77 178.858 188.877C178.216 188.877 177.681 188.021 178.216 187.273C178.858 186.31 179.928 186.203 181.104 186.203Z" fill="#08141E"/>
<path d="M351.939 211.551C341.456 216.15 330.652 217.54 319.634 213.797C318.778 213.476 318.029 213.048 317.28 212.62C324.447 212.834 331.294 215.401 338.675 214.011C343.168 213.155 347.447 211.551 351.832 210.267C351.832 210.695 351.939 211.123 351.939 211.551Z" fill="#536897"/>
<path d="M366.916 345.668C366.274 349.412 365.204 352.941 363.6 356.257C363.279 357.005 362.851 358.075 361.674 357.754C360.284 357.326 360.605 356.257 361.033 355.187C362.423 351.872 363.6 348.556 363.921 345.027C364.028 343.957 364.349 342.567 365.525 342.674C367.237 342.781 366.916 344.492 366.916 345.668Z" fill="#0A1927"/>
<path d="M338.14 219.144C339.21 219.144 340.279 219.037 340.6 220.428C340.814 221.283 340.172 221.818 339.531 221.925C335.573 222.674 331.508 222.888 327.657 221.711C326.266 221.283 325.945 220 327.336 218.93C330.973 218.717 334.503 219.251 338.14 219.144Z" fill="#081520"/>
<path d="M501.487 146.417C504.803 148.235 508.333 149.519 510.366 152.941C510.58 153.262 510.473 154.011 510.152 154.332C509.617 155.08 508.761 154.759 508.333 154.225C506.194 152.086 503.519 150.588 500.952 149.091C500.417 148.77 499.775 148.128 500.203 147.38C500.524 147.059 501.059 146.845 501.487 146.417Z" fill="#091824"/>
<path d="M476.134 163.422C476.027 162.032 475.92 160.963 476.883 160.642C477.953 160.214 478.487 161.177 478.701 162.032C479.664 165.027 480.627 168.128 481.376 171.123C481.483 171.658 481.376 172.727 480.948 172.941C480.092 173.476 479.236 172.941 478.915 171.979C477.846 168.984 476.883 165.989 476.134 163.422Z" fill="#091621"/>
<path d="M168.91 195.508C168.589 194.438 168.161 193.369 167.84 192.299C172.975 193.048 174.044 197.754 176.505 201.07C176.933 201.604 176.612 202.567 175.863 202.674C175.328 202.781 174.472 202.353 174.151 201.925C172.44 199.893 170.728 197.647 168.91 195.508Z" fill="#071119"/>
<path d="M502.557 158.93C501.487 159.251 501.273 159.358 501.166 159.251C497.85 157.861 495.283 155.615 493.464 152.62C493.357 152.513 494.213 151.658 494.32 151.658C497.85 153.048 500.311 155.508 502.557 158.93Z" fill="#07121B"/>
<path d="M487.046 155.829C489.613 156.898 489.613 159.572 490.683 161.497C491.325 162.674 493.25 164.385 491.004 165.455C489.399 166.203 488.971 163.957 488.33 162.781C487.474 161.283 486.832 159.572 486.083 157.968C485.655 156.898 486.19 156.257 487.046 155.829Z" fill="#08141E"/>
<path d="M338.14 219.144C334.503 220.963 330.973 220.107 327.336 218.931C327.336 218.717 327.336 218.396 327.336 218.182C330.973 218.182 334.503 218.182 338.14 218.182C338.14 218.503 338.14 218.824 338.14 219.144Z" fill="#2A689E"/>
<path d="M288.933 132.406C291.179 123.636 294.923 115.401 298.025 106.952C302.304 95.2942 306.797 83.7434 311.076 71.9787C313.857 64.492 313.857 64.7059 321.773 65.7755C327.015 66.5241 331.722 68.1284 336.642 69.8396C340.279 71.123 341.991 73.1551 340.386 77.5402C334.503 92.9412 328.94 108.449 323.164 123.957C310.113 120.428 299.095 124.706 288.933 132.406Z" fill="#FDFFB6"/>
<path d="M330.652 124.813C332.685 123.316 333.113 121.07 333.862 118.931C338.461 105.134 343.168 91.4439 348.089 76.8984C357.502 84.7059 365.097 92.8343 366.916 104.92C355.577 99.1444 349.266 100.749 342.098 111.444C339.852 114.866 337.819 118.396 335.894 122.032C334.61 124.278 333.22 125.348 330.652 124.813Z" fill="#FEFDE0"/>
<path d="M307.439 174.438C305.62 170.695 306.155 166.417 305.192 162.46C306.369 163.315 307.011 162.674 307.867 161.818C310.434 159.358 313.429 158.503 316.424 160.749C319.634 163.102 320.489 166.417 319.206 170.16C318.029 173.797 315.355 175.615 311.504 175.294C310.113 175.294 308.829 174.759 307.439 174.438Z" fill="#D0090A"/>
<path d="M282.622 148.556C284.012 147.059 285.403 145.668 286.687 144.171C291.928 146.738 296.207 150.802 301.877 154.545C293.854 154.545 286.687 154.545 279.627 154.545C279.092 153.048 278.664 151.551 280.803 150.909C281.445 150.16 282.087 149.412 282.622 148.556Z" fill="#E74546"/>
<path d="M370.125 125.882C369.162 132.192 367.878 138.396 365.739 144.492C362.85 140.963 359.962 137.54 356.753 133.583C362.102 132.299 366.808 130.267 370.125 125.882Z" fill="#FDFFB6"/>
<path d="M278.343 157.326C277.594 161.176 276.845 165.027 276.096 168.877C271.283 167.487 270.641 163.422 270.106 159.358C269.785 157.54 270.748 156.791 272.566 156.898C274.492 157.112 276.417 157.219 278.343 157.326Z" fill="#F2EFEF"/>
<path d="M280.91 151.016C280.482 152.193 280.054 153.369 279.626 154.652C278.557 154.652 277.487 154.973 276.417 154.652C274.599 154.118 271.71 155.936 271.069 153.262C270.641 151.551 272.352 149.733 273.957 148.556C276.417 146.845 278.236 147.807 279.947 149.733C280.268 150.053 280.589 150.588 280.91 151.016Z" fill="#E7E6E6"/>
<path d="M185.811 122.781C184.1 124.278 182.923 124.278 182.816 121.604C182.709 116.791 182.816 112.086 182.816 107.273C182.816 105.134 183.672 104.385 185.704 105.027C186.667 105.348 187.844 105.348 188.807 105.775C191.481 106.738 193.62 106.203 195.439 104.064C197.578 101.497 196.295 99.4653 194.69 97.4332C195.011 94.1177 191.695 94.2246 190.09 92.7273C188.593 91.3369 186.346 91.123 184.849 89.6257C186.881 85.6685 191.16 85.0268 194.476 82.7808C198.969 79.6792 203.676 77.0054 208.49 74.4385C210.308 73.476 212.127 71.7647 214.159 74.0107C214.266 74.5455 214.266 75.0802 213.945 75.5081C210.843 79.1444 212.768 83.5294 212.127 87.5936C212.127 88.4492 211.913 89.1979 211.699 89.9466C209.773 93.2621 206.136 94.2246 203.141 96.0428C200.36 97.7541 198.969 99.6792 199.397 102.888C199.504 103.636 199.397 102.674 199.397 103.422C199.183 114.439 200.787 116.578 210.95 120.642C213.196 121.604 214.694 120.321 216.405 119.572C219.722 117.968 222.503 115.187 226.354 114.545C226.889 114.545 227.317 114.652 227.852 114.973C230.419 116.898 232.879 118.931 235.767 120.107C233.949 118.503 231.382 117.647 229.456 115.829C225.712 111.872 225.284 102.888 228.493 97.3262C232.237 94.6524 235.981 92.1926 239.832 89.6257C240.474 89.6257 240.902 89.9466 241.33 90.3744C242.507 100.749 241.651 111.23 241.865 121.711C241.865 122.781 241.544 123.85 240.474 124.385C232.023 128.449 224.428 134.118 215.978 138.182C215.443 138.396 214.908 138.396 214.373 138.289C211.913 136.15 213.624 133.262 212.982 131.123C212.768 133.155 213.624 135.615 212.341 137.968C207.955 138.503 201.322 134.759 199.076 130.374C199.397 129.626 199.718 128.77 200.146 128.021C201.322 125.989 202.606 123.85 201.215 121.604C199.718 119.144 197.257 120.214 195.011 120.642C193.62 120.963 192.23 120.749 190.839 120.856C190.09 118.289 192.872 118.503 193.62 117.112C190.732 118.717 187.844 120.214 185.811 122.781Z" fill="#FEBD00"/>
<path d="M198.968 130.16C203.033 133.262 206.991 136.471 212.126 137.647C212.661 137.112 213.196 137.112 213.731 137.54C221.54 134.438 227.851 128.663 235.553 125.455C240.367 123.422 241.222 120.535 240.902 115.829C240.474 108.77 240.795 101.604 240.795 94.5454C240.795 92.8342 241.222 90.9091 239.832 89.4117C236.409 89.5187 233.948 87.1658 231.381 85.5615C225.604 82.0321 219.079 79.4652 214.265 74.4385C213.41 73.5829 212.447 73.262 211.377 73.9037C202.712 79.1444 193.941 84.385 185.276 89.6257C185.918 90.3743 186.239 91.123 186.025 92.0855C183.992 92.1925 182.816 91.3369 182.602 89.1978C183.136 87.1658 185.062 86.738 186.56 85.8823C190.945 83.2085 195.866 81.1765 199.717 77.8609C208.703 70.1604 216.94 70.5882 225.818 77.9679C229.99 81.3904 235.125 83.8503 239.939 86.4171C242.078 87.5936 242.827 88.9839 242.827 91.4438C242.72 101.069 242.72 110.695 242.827 120.321C242.827 122.674 242.292 124.171 240.046 125.455C231.702 130.16 223.465 135.08 215.228 140.107C213.303 141.283 211.805 141.283 209.88 140.107C205.708 137.433 201.429 134.973 197.15 132.406C197.792 131.658 198.433 130.909 198.968 130.16Z" fill="#F4F7F9"/>
<path d="M180.035 124.92C172.761 127.701 170.3 127.059 168.482 121.604C165.808 113.69 168.482 106.738 175.221 105.027C176.719 104.599 178.43 104.813 179.928 104.706C181.533 111.551 181.319 118.182 180.035 124.92Z" fill="#FEFDFD"/>
<path d="M180.035 124.92C180.035 118.182 180.035 111.551 179.928 104.813C180.997 104.813 182.174 104.813 182.174 106.31C182.174 111.872 182.174 117.54 182.174 123.102C182.174 124.492 181.104 124.706 180.035 124.92Z" fill="#020101"/>
<path d="M185.812 122.781C186.132 120.642 193.621 114.225 195.76 114.439C196.188 114.439 196.937 114.973 196.937 115.187C196.83 115.829 196.723 116.685 196.188 117.005C194.476 118.289 192.551 119.465 190.732 120.749C189.235 121.818 187.737 122.888 185.812 122.781Z" fill="#17191B"/>
<path d="M186.025 92.1926C185.811 91.3369 185.49 90.5883 185.276 89.7327C190.197 89.3049 193.085 93.0482 196.508 95.4011C198.434 96.6845 196.295 97.4332 194.797 97.4332C191.909 95.615 189.341 93.2621 186.025 92.1926Z" fill="#1A191B"/>
<path d="M422.006 83.8502C423.825 84.0641 424.146 85.8823 424.681 87.2727C425.429 88.877 427.355 90.2673 426.178 92.4064C425.75 93.155 424.788 92.9411 424.467 92.2994C423.183 90.0534 421.899 87.7005 420.83 85.3475C420.509 84.7058 421.044 84.0641 422.006 83.8502Z" fill="#300E0E"/>
<path d="M449.819 78.5026C449.819 79.7861 449.284 80.7486 448.749 80.4278C446.075 78.8235 445.54 75.7219 444.256 73.0481C443.936 72.5133 444.684 71.3368 445.326 71.6577C448.321 73.155 448.214 76.6844 449.819 78.5026Z" fill="#170707"/>
<path d="M437.303 85.6685C437.196 86.6311 436.447 87.3797 436.019 87.0589C433.452 85.2407 432.81 82.2461 431.633 79.5723C431.42 78.9305 432.489 77.968 432.917 78.2888C435.377 80.107 435.912 83.3156 437.303 85.6685Z" fill="#1A0708"/>
<path d="M160.672 437.754C157.998 425.455 152.435 416.898 140.775 414.225C128.26 411.337 121.627 421.284 113.818 428.77C111.358 418.931 109.004 409.626 104.084 401.177C99.8049 393.904 94.1353 392.086 86.4333 395.615C78.8383 399.144 73.0617 405.027 67.7131 411.23C55.4113 425.455 45.5698 441.284 36.5841 457.754C22.9986 482.674 11.3386 508.449 4.06449 535.936C3.52963 537.754 2.45991 539.786 4.8133 542.353C7.9155 532.193 10.4828 522.567 14.0129 513.369C27.2775 479.038 43.5373 446.203 66.3225 417.112C71.7781 410.054 77.8755 403.423 85.6845 398.824C93.3865 394.332 98.6282 396.043 102.8 403.957C105.902 409.84 107.614 416.15 109.646 422.46C111.572 428.663 111.893 434.011 107.4 439.358C105.047 442.139 103.549 445.775 101.944 449.091C86.6472 480.214 77.0197 513.048 73.1687 547.487C72.3129 555.08 72.3129 562.781 74.0245 570.374C76.2709 580 82.7962 582.674 91.0331 577.326C94.0283 575.401 96.4887 572.727 98.5212 569.84C102.265 564.599 105.047 558.824 107.079 552.727C119.06 516.685 120.237 479.679 115.637 442.46C114.674 434.332 116.279 428.77 122.162 423.85C124.195 422.139 126.227 420.428 128.473 418.931C134.143 415.294 139.813 415.508 145.589 418.717C156.393 424.706 160.244 437.219 154.896 448.235C152.221 453.69 149.44 459.038 148.584 465.134C150.403 464.171 152.007 462.888 153.077 461.177C155.324 458.075 155.538 453.904 157.57 451.444C157.035 452.941 155.324 454.866 157.463 457.219C158.747 456.471 159.923 455.722 160.565 454.332C159.282 445.562 162.705 438.61 167.946 431.872C180.89 415.08 197.471 403.209 215.87 393.369C217.689 392.406 220.363 392.3 221.219 388.128C196.401 399.679 176.183 414.973 160.672 437.754ZM104.833 551.337C102.693 557.754 99.9118 563.957 95.6329 569.305C94.4562 570.802 93.1726 572.406 91.6749 573.583C88.7867 575.936 85.4705 578.396 81.5126 577.005C77.4476 575.508 76.9128 571.444 76.1639 567.701C74.0245 557.219 75.5221 546.738 77.2337 536.364C82.6893 502.567 92.6377 470.267 109.753 440.321C110.395 439.251 110.716 437.968 112.428 437.433C114.567 445.134 114.995 453.155 115.316 461.07C116.6 491.765 114.674 522.032 104.833 551.337Z" fill="#FEDC53"/>
<path d="M284.44 163.209C283.584 164.92 284.119 167.701 281.552 168.342C279.733 168.77 279.305 167.059 279.198 165.562C279.091 163.209 279.84 161.176 282.194 160.642C283.798 160.214 284.226 161.818 284.44 163.209Z" fill="#D80E0E"/>
<path d="M70.9232 186.203C70.8162 196.257 62.3654 204.278 52.31 204.064C42.2546 203.85 34.2316 195.401 34.4456 185.348C34.6595 175.294 43.0034 167.38 53.1658 167.487C63.1142 167.701 71.0302 175.936 70.9232 186.203Z" fill="#007BFF"/>
<path d="M164.737 205.241C164.417 205.882 164.31 206.524 163.989 206.738C163.347 207.166 162.598 206.952 162.277 206.31C160.993 204.064 159.71 201.711 158.533 199.465C158.212 198.824 158.426 197.968 159.175 197.754C159.603 197.647 160.352 197.861 160.566 198.075C161.956 200.428 163.347 202.888 164.737 205.241Z" fill="#020F1B"/>
<path d="M143.771 215.615C141.31 211.658 141.738 207.808 143.771 203.85C145.161 207.701 144.519 211.658 143.771 215.615Z" fill="#01070D"/>
<path d="M151.259 201.177C152.65 201.177 152.971 201.925 152.971 202.567C152.864 205.455 154.468 208.342 153.184 211.23C153.078 211.444 151.901 211.444 151.901 211.337C150.403 207.914 150.296 204.599 151.259 201.177Z" fill="#01080E"/>
<path d="M507.263 375.508C507.37 381.925 502.556 387.059 496.031 387.273C489.506 387.487 484.371 382.674 484.157 376.257C483.943 369.519 488.864 364.278 495.603 364.278C502.128 364.171 507.156 369.091 507.263 375.508Z" fill="#010101"/>
<path d="M78.7317 242.888C76.1643 235.722 80.4432 232.834 86.0058 229.519C92.852 225.348 97.9867 225.668 104.833 229.626C110.716 232.941 112.535 236.257 112.642 242.781C112.749 249.84 110.716 253.476 104.405 256.791C97.8797 260.214 93.066 260.856 86.4337 256.791C80.6572 253.262 76.0573 250.374 78.7317 242.888Z" fill="#FBFCFD"/>
<path d="M496.673 22.246C495.496 23.4225 486.404 22.8877 485.334 21.6043C481.59 17.2193 479.665 17.2193 476.348 22.0321C471.214 29.4118 467.898 37.6471 465.544 46.3102C465.223 47.4867 464.581 49.091 466.507 49.9466C468.005 48.4492 468.112 46.4172 468.646 44.7059C470.893 37.5401 473.781 30.6952 477.953 24.3851C478.809 22.9947 479.772 20.6418 481.911 21.7113C483.409 22.4599 483.729 24.7059 483.516 26.5241C483.409 27.5936 482.874 28.5562 482.446 29.5188C479.878 35.4011 478.06 41.6043 477.418 47.9145C477.097 51.3369 475.065 56.6845 479.772 57.6471C484.264 58.6097 484.799 53.0482 485.762 49.6257C487.687 42.7808 486.939 35.8289 486.832 28.877C486.832 26.845 487.474 24.8129 489.399 24.9198C491.752 25.0268 492.287 27.1658 491.645 29.4118C490.897 31.9787 490.148 34.5455 489.506 37.1123C489.078 38.7166 488.008 41.0696 490.469 41.6043C492.287 42.0321 492.822 39.4653 493.036 38.0749C493.999 29.9466 497.101 23.1016 504.482 18.8236C504.696 18.7166 504.589 17.861 504.803 16.8984C501.059 17.7541 498.92 20.107 496.673 22.246ZM480.52 54.5455C479.665 47.3797 480.948 40.5348 484.05 34.0107C485.013 41.1765 484.478 48.1284 480.52 54.5455Z" fill="#FEDC54"/>
<path d="M559.038 295.615C559.252 295.401 559.466 295.294 559.68 295.08C569.629 289.091 569.629 289.091 579.47 295.508C579.684 295.829 579.684 296.15 579.47 296.578C578.614 297.433 577.545 297.968 576.582 298.503C572.838 300.642 570.912 299.786 569.308 295.401C569.415 294.866 568.666 295.294 569.094 295.187C569.201 295.187 569.201 295.294 569.201 295.508C567.703 299.786 565.243 300.749 561.499 298.396C560.643 297.861 559.68 297.326 559.038 296.471C558.824 296.364 558.824 295.936 559.038 295.615Z" fill="#D1E4F4"/>
<path d="M579.363 296.471C579.363 296.15 579.47 295.936 579.47 295.615C580.967 295.936 580.967 297.112 580.967 298.289C580.967 301.39 580.86 304.492 580.967 307.594C581.074 309.305 580.219 310.16 578.721 310.588C578.507 310.267 578.293 309.947 578.293 309.626C578.507 308.128 577.116 307.808 576.261 307.166C572.944 304.706 572.944 301.283 576.261 298.931C577.33 298.075 578.4 297.433 579.363 296.471Z" fill="#CDDFEE"/>
<path d="M559.039 295.615C559.039 295.829 559.039 296.15 559.039 296.364C559.68 297.54 560.964 298.075 562.034 298.824C565.564 301.07 565.671 304.278 562.248 306.845C561.285 307.594 560.322 308.128 560.322 309.519C560.215 309.84 560.108 310.16 559.787 310.481C559.359 310.267 558.718 310.16 558.397 309.84C556.792 308.128 557.327 297.54 559.039 295.615Z" fill="#C9DAE9"/>
<path d="M578.614 309.626C578.614 309.947 578.614 310.267 578.614 310.481C575.191 312.193 572.623 315.615 568.237 315.294C568.023 314.973 567.916 314.545 568.023 314.118C568.451 313.262 568.879 312.513 568.879 311.551C568.879 308.77 569.842 306.524 572.73 306.096C575.405 305.882 577.544 307.166 578.614 309.626Z" fill="#D0E4F4"/>
<path d="M568.451 314.332C568.451 314.652 568.344 315.08 568.344 315.401C565.242 314.118 562.461 312.406 559.787 310.588C559.787 310.16 559.68 309.733 559.68 309.305C561.177 307.166 563.21 305.775 565.777 306.203C569.2 306.845 570.056 309.626 568.451 314.332Z" fill="#D1E5F7"/>
<path d="M373.976 18.5027C373.869 22.9946 370.018 26.631 365.632 26.4171C361.139 26.2032 357.609 22.3529 357.823 17.9679C358.037 13.6898 361.567 10.3743 365.953 10.3743C370.445 10.2674 374.083 14.0107 373.976 18.5027Z" fill="#020202"/>
<path d="M262.189 143.636C259.408 140.321 258.766 136.043 258.124 132.299C253.953 106.738 265.078 82.3529 289.36 70.6951C290.323 70.2673 291.5 68.877 292.677 70.1604C293.532 71.123 292.677 72.1925 292.249 73.155C282.514 96.3636 272.78 119.572 263.045 142.781C263.045 142.995 262.724 143.209 262.189 143.636Z" fill="#FDFFB6"/>
<path d="M308.295 166.417C310.006 164.278 312.146 162.888 313.537 163.85C315.248 165.134 315.355 167.914 315.141 171.444C313.002 168.556 312.039 165.455 308.295 166.417Z" fill="#360202"/>
<path d="M214.158 74.5454C223.037 78.9304 231.381 84.278 239.832 89.5187L239.618 89.7326C236.944 91.3369 234.269 92.9411 231.702 94.5454C230.632 95.1871 229.776 95.9358 230.097 97.4331C226.46 101.604 227.102 112.513 231.167 115.294C230.204 116.257 229.135 116.257 228.065 115.401C227.637 115.401 227.209 115.294 226.674 115.294C224.321 111.337 225.498 106.952 225.498 102.781C225.498 99.3583 224.321 97.1123 221.326 95.508C217.796 93.4759 214.265 91.4438 210.735 89.5187C210.842 88.6631 210.842 87.9144 210.949 87.0588C212.982 85.5615 212.233 83.3155 212.447 81.2834C212.661 79.0374 212.126 76.7914 213.731 74.7593L214.158 74.5454Z" fill="#FDFFB6"/>
<path d="M210.843 89.6257C217.154 89.4118 221.112 94.2246 226.033 97.0053C228.707 98.5027 226.996 102.139 227.103 104.813C227.21 108.342 226.889 111.765 226.782 115.294C225.819 115.722 224.856 116.15 223.894 116.684C211.806 123.743 211.806 123.743 200.36 116.043C198.648 114.866 197.792 113.797 198.113 111.765C198.113 111.551 198.113 111.444 198.113 111.23C195.011 99.7861 201.536 93.9037 210.843 89.6257Z" fill="#0B0C0D"/>
<path d="M213.838 74.9733C213.945 78.2888 213.945 81.6043 214.052 84.9198C214.159 87.0588 213.518 88.4492 211.057 87.1658C211.057 84.1711 211.057 81.1765 211.057 78.1818C211.057 76.2567 210.95 74.3316 213.838 74.9733Z" fill="#2E3439"/>
<path d="M230.097 97.4331C228.6 97.4331 226.46 96.7914 228.386 95.401C231.809 93.0481 234.697 89.1978 239.618 89.7326C237.906 94.1176 232.879 94.4385 230.097 97.4331Z" fill="#191C1F"/>
<path d="M228.065 115.401C229.135 115.401 230.098 115.294 231.168 115.294C233.628 117.005 236.088 118.61 238.549 120.321C239.405 120.963 240.474 121.604 239.618 122.781C238.977 123.743 237.907 123.209 237.265 122.674C234.27 120.214 229.777 119.572 228.065 115.401Z" fill="#1A1D20"/>
<path d="M213.731 137.647C213.196 137.647 212.661 137.647 212.126 137.754C211.164 134.332 211.805 130.802 211.698 127.273C211.698 126.31 211.484 124.92 213.089 125.134C214.159 125.241 214.052 126.417 214.052 127.166C213.945 130.588 213.838 134.118 213.731 137.647Z" fill="#070809"/>
<path d="M94.6709 257.861C90.6059 255.615 86.541 253.369 82.583 251.123C83.8667 248.128 86.327 247.166 89.2153 247.059C89.9641 247.273 90.6059 247.487 91.2478 247.914C93.9221 249.733 96.5964 249.84 99.3777 247.914C100.02 247.487 100.661 247.273 101.41 247.059C104.084 247.701 106.759 248.235 107.935 251.23C103.978 253.476 100.02 255.615 96.0615 257.861C95.0988 256.791 95.5267 255.615 95.4197 254.545C95.2058 255.615 95.5267 256.791 94.6709 257.861Z" fill="#CEE7FB"/>
<path d="M94.3496 228.235C94.9914 227.701 95.6333 227.487 96.3821 227.914C100.447 230.802 104.94 232.727 109.219 235.08C107.079 236.471 104.726 237.433 102.693 239.037C102.373 239.144 102.052 239.144 101.624 239.144C99.4843 238.289 97.3448 237.326 95.6333 235.722C94.5636 233.69 95.5263 231.23 94.5636 229.091C94.4566 228.877 94.4566 228.556 94.3496 228.235Z" fill="#CEE6FB"/>
<path d="M81.2988 234.973C85.6847 232.727 90.0706 230.481 94.3495 228.235L94.4565 228.449C95.8471 230.481 94.9913 232.834 95.0983 234.973C93.7076 237.647 91.0333 238.075 88.6799 239.037C88.359 239.037 87.9311 239.037 87.6102 238.931C85.5777 237.647 83.2243 236.578 81.2988 234.973Z" fill="#CEE6FA"/>
<path d="M109.219 236.471C109.219 240.856 109.326 245.348 109.326 249.733C102.586 248.984 100.768 246.524 102.159 239.893C104.191 238.182 106.117 236.15 109.219 236.471Z" fill="#CEE7FB"/>
<path d="M81.2994 249.198C81.2994 244.92 81.2994 240.749 81.1924 236.471C83.8667 235.829 85.4713 238.503 87.8247 238.717L87.7177 238.61C89.4293 241.07 88.7874 243.636 88.3595 246.203C86.2201 247.594 84.2946 249.733 81.2994 249.198Z" fill="#CFE7FC"/>
<path d="M102.694 239.572C101.303 245.348 104.726 247.914 109.326 249.626C109.754 251.123 108.898 251.23 107.828 251.23C105.582 250.054 103.977 247.808 101.196 247.594C100.875 244.599 100.233 241.497 101.945 238.717C102.159 238.61 102.373 238.503 102.587 238.396C102.907 238.824 102.907 239.144 102.694 239.572Z" fill="#24282B"/>
<path d="M81.2988 249.198C83.6522 248.663 85.1498 245.989 87.9311 246.845C88.7869 246.31 89.3217 246.31 89.3217 247.593C86.4335 247.593 84.7219 249.946 82.4755 251.123C81.1918 251.016 80.8709 250.374 81.2988 249.198Z" fill="#23272A"/>
<path d="M87.9311 238.824C85.0429 240.107 83.5453 237.005 81.2988 236.578C81.2988 236.043 81.2988 235.508 81.2988 234.973C83.9731 235.401 86.2196 236.684 87.9311 238.824Z" fill="#23272A"/>
<path d="M102.694 239.572C102.694 239.144 102.587 238.824 102.587 238.396C104.512 236.684 106.331 234.866 109.219 235.08C109.219 235.508 109.219 235.936 109.219 236.364C106.973 237.326 105.154 239.144 102.694 239.572Z" fill="#262B2F"/>
<path d="M94.6706 257.861C94.4567 255.615 94.1358 253.476 95.0985 250.695C96.7031 253.369 96.0613 255.615 95.9543 257.861C95.5264 257.861 95.0985 257.861 94.6706 257.861Z" fill="#0C0D0E"/>
<path d="M568.452 314.332C567.703 311.979 569.842 308.877 566.098 307.273C562.996 305.882 561.819 309.091 559.573 309.305C557.755 307.594 559.787 307.273 560.536 306.738C565.029 303.743 565.029 302.032 560.429 299.037C559.466 298.396 558.289 297.968 559.038 296.471C560.322 296.471 561.178 297.326 562.247 297.861C563.531 298.61 564.494 299.786 566.312 298.503C568.024 297.433 568.452 296.257 568.238 294.438C568.131 293.476 568.024 292.406 568.773 291.551C570.805 292.086 569.949 293.69 569.949 294.759C570.163 298.503 572.517 299.893 575.726 298.075C576.796 297.433 577.758 296.471 579.256 296.577C579.791 298.61 577.972 298.824 576.903 299.572C573.586 301.604 573.693 304.492 577.117 306.524C579.47 307.914 579.47 307.914 578.614 309.733C577.331 308.877 576.047 307.914 574.763 307.273C573.052 306.31 570.377 308.235 570.056 310.374C569.842 311.658 571.661 314.011 568.452 314.332Z" fill="#101213"/>
<path d="M224.749 106.096C224.107 108.556 226.033 111.765 223.465 113.583C220.042 116.043 216.405 119.679 212.447 119.358C208.81 119.037 205.066 116.15 201.964 113.583C199.397 111.444 200.894 107.914 200.894 105.027C200.894 102.674 199.611 99.7861 202.178 98.1819C205.601 95.9359 209.238 92.5134 212.768 92.6204C216.512 92.7273 220.363 96.0428 223.786 98.6097C226.033 100.321 224.107 103.636 224.749 106.096Z" fill="#020A13"/>
<path d="M89.3218 247.594C89.0009 247.059 88.573 246.738 87.9312 246.845C87.9312 244.171 87.8242 241.39 87.8242 238.717C89.9637 237.754 92.1031 236.685 94.2426 235.722C94.8844 235.294 95.6332 235.294 96.275 235.722C98.0936 236.685 100.019 237.754 101.838 238.717C101.624 241.711 102.586 244.706 101.089 247.594C97.2378 251.123 93.2798 251.123 89.3218 247.594Z" fill="#0A0C0D"/>
<path d="M96.2747 235.722C95.6328 235.722 94.884 235.722 94.2422 235.722C94.3492 233.262 94.3492 230.802 94.4561 228.449C95.9538 228.021 95.9538 228.984 96.0607 230.053C96.2747 231.872 95.5259 233.797 96.2747 235.722Z" fill="#0C0E0F"/>
<path d="M572.623 302.888C572.944 305.241 571.126 306.31 569.414 306.31C567.489 306.417 565.777 305.455 565.777 302.781C565.777 300.321 567.275 299.358 569.093 299.251C570.912 299.358 572.837 300.214 572.623 302.888Z" fill="#CCE4F9"/>
<path d="M100.982 242.995C100.982 245.561 97.666 248.877 95.0987 248.663C92.3174 248.449 89.5361 245.455 89.5361 242.674C89.5361 240.321 92.7453 237.219 95.2057 237.219C97.773 237.219 100.982 240.428 100.982 242.995Z" fill="#CDE5FA"/>
<g clip-path="url(#clip2)">
<path d="M63.735 42.6395C62.9727 43.4427 63.7773 44.4994 63.8197 45.5984C63.8197 46.0634 63.8197 46.5284 63.8197 46.9933C63.6503 47.0356 63.5232 47.0779 63.3538 47.1201C63.015 46.4861 62.6339 45.8943 62.4221 45.2603C61.4905 42.2591 60.7282 39.2157 59.7541 36.2568C59.3307 34.9465 58.6531 33.6784 57.9755 32.4525C56.9168 30.5504 54.6299 30.339 52.936 30.5927C52.6395 30.6349 52.3854 30.9731 52.0466 31.2267C51.4114 30.5927 50.6915 30.804 49.9292 31.1422C49.3363 31.3958 48.7434 31.6494 48.1082 31.6917C47.7694 31.734 47.4306 31.3535 47.0918 31.1844C47.3035 30.9308 47.4306 30.5504 47.6847 30.4236C48.9128 29.8318 50.1833 29.3246 51.4537 28.7751C55.8157 26.8307 57.4673 22.181 56.6203 17.8272C56.1545 15.4601 55.6039 13.093 55.1805 10.6836C55.0958 10.2609 55.4346 9.83822 55.6039 9.41553C55.858 9.75369 56.1968 10.0073 56.3239 10.3877C57.1285 12.5435 57.7214 14.8261 58.7378 16.855C60.4317 20.2789 64.2855 22.646 68.5627 22.3923C68.8168 22.3923 69.0709 22.2655 69.2827 22.3501C69.7485 22.5191 70.172 22.7728 70.5955 22.9841C70.3414 23.4068 70.172 23.914 69.8332 24.2099C68.5204 25.3935 66.9958 26.3234 65.8524 27.6338C62.9303 30.9308 62.0833 34.9042 62.6762 39.1734C62.7609 39.6807 62.8033 40.2302 62.9303 40.7374C63.1421 41.3292 63.4385 41.8787 63.735 42.6395ZM53.91 28.8596C55.731 29.1978 57.6367 29.4091 58.7378 31.0999C59.6695 32.6216 60.4741 34.2279 61.2364 35.665C61.3211 33.5093 61.7446 31.3113 62.9727 29.3668C64.2008 27.4647 65.6407 25.7316 66.8264 24.1254C65.4289 23.6182 63.735 23.1955 62.3374 22.3501C60.8976 21.5047 59.7118 20.2366 58.399 19.2221C57.8908 24.2099 57.7214 24.5481 53.91 28.8596Z" fill="black"/>
</g>
</g>
<defs>
<clipPath id="clip0">
<rect width="583" height="580" fill="white"/>
</clipPath>
<clipPath id="clip1">
<rect width="64" height="63" fill="white" transform="translate(293 508)"/>
</clipPath>
<clipPath id="clip2">
<rect width="23.546" height="37.6623" fill="white" transform="translate(47.0918 9.41553)"/>
</clipPath>
</defs>
</svg>
