<svg width="223" height="204" viewBox="0 0 223 204" fill="none" xmlns="http://www.w3.org/2000/svg">
<path fill-rule="evenodd" clip-rule="evenodd" d="M112.245 0.111146C133.875 1.96379 141.537 30.1214 158.972 43.0124C176.121 55.6928 202.953 55.6777 212.88 74.5199C223.099 93.9159 215.96 117.657 209.297 138.533C202.597 159.524 194.597 182.998 175.004 193.192C155.952 203.104 132.68 195.659 112.245 189.026C96.5465 183.93 87.7192 168.617 73.5053 160.246C56.9023 150.467 32.0542 152.862 22.497 136.168C12.8528 119.323 20.7417 97.859 27.3434 79.6145C33.7684 61.8583 45.4915 47.3998 59.2944 34.4746C75.0292 19.7403 90.7335 -1.73143 112.245 0.111146Z" fill="#89D8F5"/>
<path d="M212.684 26.6642C213.23 26.2996 212.906 25.5784 213.027 24.9345C213.089 24.6644 213.15 24.3944 213.212 24.1244C213.315 24.1224 213.394 24.1149 213.497 24.113C213.608 24.5264 213.75 24.921 213.788 25.3176C213.928 27.185 213.964 29.0543 214.134 30.9029C214.205 31.7205 214.428 32.5475 214.656 33.3499C215.014 34.596 216.305 35.0243 217.315 35.1033C217.492 35.1184 217.683 34.9559 217.912 34.8539C218.194 35.307 218.637 35.2804 219.121 35.1859C219.497 35.1178 219.872 35.0497 220.244 35.11C220.445 35.1307 220.59 35.3969 220.763 35.5404C220.607 35.6594 220.484 35.8633 220.32 35.903C219.534 36.0826 218.734 36.2075 217.929 36.3569C215.157 36.9034 213.589 39.3831 213.501 42.0248C213.456 43.4618 213.46 44.9101 213.385 46.3659C213.378 46.6227 213.127 46.8229 212.973 47.0458C212.872 46.8155 212.71 46.6229 212.687 46.385C212.508 45.0255 212.469 43.6207 212.151 42.3066C211.628 40.0918 209.72 38.2022 207.22 37.7781C207.074 37.7442 206.91 37.7839 206.8 37.7065C206.553 37.546 206.343 37.3422 206.127 37.1628C206.329 36.9513 206.494 36.6794 206.728 36.5528C207.642 36.0408 208.644 35.7044 209.477 35.0961C211.598 33.5717 212.612 31.3773 212.836 28.8186C212.854 28.5127 212.902 28.188 212.896 27.8764C212.852 27.5044 212.754 27.1457 212.684 26.6642ZM216.524 35.9797C215.519 35.54 214.448 35.1627 214.037 34.0336C213.702 33.0254 213.45 31.985 213.201 31.0486C212.867 32.2892 212.332 33.5092 211.366 34.4744C210.407 35.415 209.347 36.2291 208.451 37.0036C209.189 37.4848 210.11 37.9566 210.804 38.6343C211.522 39.3177 212.038 40.2125 212.66 40.9771C213.614 38.1482 213.756 37.9745 216.524 35.9797Z" fill="black"/>
<g clip-path="url(#clip0)">
<path d="M193.976 37.6769C193.953 36.3826 193.833 35.0642 193.308 33.8418C191.804 30.4142 189.035 29.024 185.502 29.024C163.278 29 141.029 29 118.781 29C117.826 29 116.895 29.0479 115.94 29.1918C112.049 29.815 109.233 32.907 109.233 36.814C109.233 49.326 109.233 61.814 109.233 74.326C110.927 74.8773 112.622 74.9012 114.341 74.302C114.747 73.6548 114.628 72.9118 114.628 72.1927C114.628 61.4545 114.628 50.7162 114.628 39.9779C114.628 38.3241 114.699 38.2522 116.275 38.2522C139.812 38.2522 163.349 38.2522 186.887 38.2522C188.462 38.2522 188.558 38.3241 188.558 39.9779C188.558 67.1592 188.558 94.3643 188.558 121.546C188.558 122.145 188.629 122.744 188.247 123.295C187.746 123.679 187.173 123.535 186.648 123.535C182.685 123.583 178.699 123.511 174.736 123.583C174.282 123.583 173.829 123.559 173.375 123.679C172.707 123.799 172.039 123.847 171.37 123.775C168.697 123.415 166.023 123.631 163.349 123.583C159.673 123.535 155.973 123.583 152.297 123.559C151.318 123.559 150.363 124.086 149.361 123.703C148.239 123.487 147.141 123.559 146.019 123.631C145.875 123.655 145.732 123.655 145.565 123.703C144.777 123.942 144.013 123.559 143.226 123.559C139.263 123.583 135.324 123.535 131.361 123.583C130.884 123.535 130.407 123.559 129.929 123.559C125.489 123.535 121.049 123.631 116.609 123.511C114.508 123.199 114.508 123.199 114.556 121.593C114.46 120.994 113.911 120.946 113.506 120.731C112.193 120.083 111.285 119.077 110.76 117.734C110.474 117.039 110.235 116.32 109.901 115.625C109.758 115.29 109.734 114.786 109.185 114.81C109.185 119.892 109.137 124.949 109.185 130.031C109.233 134.489 112.742 137.605 116.752 137.605C130.287 137.581 143.799 137.605 157.334 137.605C167.121 137.605 176.908 137.629 186.696 137.581C188.868 137.581 190.611 136.574 192.043 134.92C193.571 133.123 193.905 130.989 193.905 128.784C193.929 109.657 193.929 90.5292 193.929 71.4017C193.976 63.7076 194.024 39.8102 193.976 37.6769Z" fill="#020A13"/>
<path d="M45.0656 133.722C44.5643 126.531 43.9675 119.34 42.9649 112.197C42.2965 107.38 43.8243 103.353 47.8824 100.524C50.6038 98.6548 53.3967 96.905 56.4762 95.6347C56.8581 95.9463 56.8104 96.3777 56.8104 96.8092C56.8342 97.2885 56.9059 97.72 57.2878 98.0556C60.1763 99.6375 62.826 101.603 65.6428 103.329C68.5552 105.103 71.4436 106.948 74.3798 108.698C74.6185 108.842 74.8334 109.034 75.2631 109.034C73.9263 104.216 72.8282 99.3978 71.3481 94.6519C71.3243 94.4602 71.372 94.2924 71.5152 94.1486C77.0057 94.8676 80.9922 97.4084 83.1645 102.825C88.2969 115.649 93.6441 128.425 98.8959 141.2C98.2514 141.752 97.4636 141.608 96.7236 141.536C95.4584 141.416 94.1932 141.368 92.928 141.2C91.6151 141.033 91.4718 141.176 91.448 142.495C91.4241 147.265 91.448 152.058 91.448 156.828C91.448 157.428 91.4957 158.027 91.3525 158.602C91.3047 158.746 91.2331 158.866 91.1376 158.986C89.7053 159.465 88.2492 159.777 86.7453 159.872C84.8833 159.465 83.0213 159.992 81.1832 160.112C76.4805 160.424 71.7778 160.855 67.0751 161.215C64.7357 161.382 62.3963 161.502 60.0808 161.79C54.0174 162.509 48.4076 158.099 47.7631 151.963C47.5721 150.069 47.1663 148.223 47.0947 146.306C47.0947 146.258 46.9753 146.21 46.8798 146.21C46.4979 145.778 46.5695 145.251 46.5456 144.724C46.4979 141.895 46.0443 139.115 45.6385 136.335C45.5669 135.448 45.0417 134.657 45.0656 133.722Z" fill="#FFD500"/>
<path d="M173.47 123.919C173.112 124.182 172.707 124.086 172.325 124.062C169.365 124.014 166.404 123.966 163.444 123.895C162.609 123.367 162.537 122.408 162.179 121.593C161.702 120.275 161.224 118.957 160.675 117.687C159.744 115.553 158.36 114.954 156.259 115.913C154.946 116.512 153.681 116.608 152.32 116.296C147.092 115.17 141.793 115.721 136.517 115.577C135.777 115.553 134.99 115.673 134.345 115.146C133.915 114.57 134.273 114.019 134.44 113.492C134.679 112.701 134.894 111.91 135.276 111.167C136.398 109.225 135.706 107.332 135.061 105.462C134.942 105.127 134.751 104.815 134.536 104.407C135.228 105.918 135.992 107.308 135.658 108.986C134.536 110.208 133.104 110.999 131.791 111.982C127.9 114.834 124.033 117.686 120.118 120.515C119.306 121.114 118.423 121.546 117.444 121.785C116.441 121.977 115.415 122.289 114.508 121.474C112.264 120.683 110.832 119.125 110.139 116.848C109.924 116.128 109.542 115.481 109.232 114.786C107.943 110.975 106.296 107.308 104.864 103.569C104.219 101.867 103.527 100.165 102.882 98.4631C102.978 98.1275 103.24 97.9597 103.551 97.8399C107.06 96.3538 110.545 94.8437 114.078 93.4775C114.269 93.4056 114.46 93.3576 114.651 93.3816C114.89 93.4535 115.105 93.5734 115.2 93.7891C116.513 96.0662 118.112 98.1755 119.21 100.596C119.592 102.322 120.786 103.688 121.407 105.294C120.905 104.216 120.404 103.113 119.783 102.082C119.521 101.651 119.21 101.22 119.306 100.644C120.285 99.3979 121.717 98.7507 122.958 97.8399C125.56 95.9703 128.258 94.1966 130.86 92.327C132.889 90.3615 135.706 89.6664 137.973 88.0844C138.212 87.9166 138.475 87.8207 138.761 87.8207C140.528 88.6357 142.056 89.8581 143.655 90.9607C143.727 91.0566 143.798 91.1525 143.846 91.2483C144.896 93.7172 145.994 96.186 147.164 98.8945C148.62 96.21 149.885 93.6932 151.031 91.1045C151.891 89.954 152.034 88.5638 152.32 87.2215C153.227 86.79 154.039 87.2934 154.803 87.629C157.19 88.6357 159.338 90.0738 161.63 91.2483C163.11 92.0153 164.113 93.3576 164.805 94.8917C166.023 98.1036 166.834 101.411 167.885 104.671C168.625 107.356 169.556 109.968 170.463 112.581C170.534 113.899 171.107 115.122 171.465 116.368C172.062 118.477 172.802 120.539 173.375 122.648C173.542 123.08 173.781 123.511 173.47 123.919Z" fill="#2EC4B6"/>
<path d="M86.8165 159.609C88.2488 159.489 89.6094 158.842 91.0895 158.938C91.7101 159.753 91.5908 160.759 91.734 161.67C92.0205 163.396 92.1159 165.146 92.3785 166.896C92.4501 167.327 92.5695 167.758 92.3069 168.166C92.2114 170.395 92.7366 172.576 92.856 174.805C92.9992 177.059 93.2856 179.312 93.4766 181.565C93.8108 185.64 94.0973 189.714 94.4076 193.789C94.4315 194.149 94.4076 194.508 94.4076 194.868C93.5482 194.245 92.5695 194.268 91.5669 194.268C86.1481 194.268 80.7053 194.268 75.2865 194.268C74.3794 194.268 73.4484 194.292 72.6129 193.861C72.0877 193.477 72.1355 192.878 72.1355 192.327C72.1832 188.971 72.04 185.64 71.658 182.308C71.4193 180.127 72.1593 178.137 72.78 176.124C73.8065 172.768 74.7852 169.412 75.6207 166.009C74.8568 168.358 74.1646 170.731 73.4723 173.104C73.2813 173.703 73.1858 174.374 72.6129 174.781C72.0639 175.117 71.4671 175.093 70.8703 175.093C60.3668 175.093 49.8395 175.093 39.336 175.093C38.7631 175.093 38.1424 175.189 37.6411 174.71C39.2166 169.58 40.7922 164.451 42.3677 159.297C42.4393 159.082 42.5348 158.866 42.6303 158.65C43.9432 157.691 45.4232 158.099 46.8555 158.147C47.142 158.147 47.4523 158.315 47.7865 158.338C48.1685 158.578 48.1685 159.01 48.2878 159.393C49.553 163.636 53.6828 166.2 58.0513 165.314C65.356 163.851 72.589 162.174 79.8937 160.687C82.1854 160.256 84.4293 159.513 86.8165 159.609Z" fill="#10002B"/>
<path d="M37.6653 174.733C48.8371 174.733 60.009 174.733 71.1809 174.733C71.6822 174.733 72.2312 174.829 72.6848 174.494C73.019 174.853 72.828 175.261 72.7325 175.62C71.1093 181.109 69.3667 186.574 67.6002 192.015C67.4331 192.495 67.266 192.998 66.7169 193.214C66.144 193.382 65.5233 193.358 64.9504 193.358C54.7095 193.358 44.4686 193.358 34.2278 193.358C33.5355 193.358 32.7955 193.525 32.1748 192.974C32.891 190.409 33.5832 187.845 34.3471 185.304C35.4213 181.756 36.5672 178.257 37.6653 174.733Z" fill="#10002B"/>
<path d="M81.0635 76.2914C81.159 78.0891 81.3022 79.8628 80.7532 81.6126C79.6312 85.0881 76.5757 87.3173 72.7562 87.4371C72.3504 87.4371 71.9685 87.4851 71.5627 87.4371C70.9181 87.3892 70.8704 87.6768 70.942 88.2281C71.0852 89.6423 71.1807 91.0805 71.2762 92.5186C70.6078 92.6145 70.2497 92.1111 69.9155 91.7037C68.4832 89.9779 66.86 88.4678 65.3083 86.8619C64.3296 85.8312 63.8044 84.6087 63.8283 83.1946C63.876 80.1984 63.6373 77.2262 63.5896 74.254C63.5896 73.8945 63.5418 73.5349 63.4463 73.1994C63.1599 72.2406 62.5154 71.7372 61.6082 71.8331C60.6295 71.929 60.2476 72.6001 60.1998 73.463C60.1282 74.9012 60.0566 76.3393 60.7966 77.6576C61.0592 78.1131 61.0115 78.5685 60.7727 79.0239C59.6508 81.0853 58.5288 83.1466 57.383 85.208C57.2159 85.5196 57.0249 85.8551 56.5952 85.8312C55.4733 78.0172 54.3752 70.2032 53.2532 62.4132C52.6803 58.4822 55.6165 54.9827 59.5792 54.9587C65.0219 54.9347 70.4646 54.9108 75.9312 54.9587C80.6577 54.9827 83.6178 59.5368 81.8513 63.9472C81.541 64.7142 81.159 65.4573 80.8248 66.2243C79.679 66.7516 78.4377 66.7276 77.2202 66.7995C74.4034 66.9434 71.5865 66.9913 68.7697 67.3029C67.2419 67.4707 66.2154 68.4055 66.2154 69.9395C66.2154 72.0968 66.3587 74.254 66.5019 76.3873C66.5974 77.7296 67.2897 78.2569 68.6503 78.3288C70.011 78.4007 71.3956 78.2089 72.2072 77.0584C73.6395 75.045 75.5492 74.5177 77.8409 74.7574C77.9841 74.7334 78.1035 74.7334 78.2467 74.7574C79.4403 74.7094 80.7293 74.6375 81.0635 76.2914Z" fill="#2B2B2B"/>
<path d="M92.3073 168.166C91.7344 165.937 91.7344 163.636 91.3524 161.383C91.2092 160.568 91.1615 159.729 91.0898 158.914L91.1137 158.89C91.8776 158.386 92.7847 158.434 93.6441 158.386C95.697 158.243 97.75 157.979 99.803 157.907C102.548 157.787 104.649 156.613 106.296 154.479C106.559 154.144 106.75 153.712 107.251 153.641C110.474 158.41 113.72 163.156 116.943 167.926C117.11 168.19 117.277 168.454 117.444 168.741C117.468 169.316 117.062 169.604 116.704 169.892C112.741 173.199 108.874 176.627 104.888 179.911C104.577 180.175 104.339 180.654 103.789 180.438C99.9462 176.339 96.1267 172.265 92.3073 168.166Z" fill="#99C1DE"/>
<path d="M32.1508 192.95C43.7285 192.95 55.3301 192.95 66.9078 192.926C67.1942 193.214 67.051 193.525 66.9555 193.813C65.9529 196.953 64.8548 200.069 63.709 203.161C63.5896 203.473 63.4225 203.712 63.16 203.928C52.0119 203.928 40.8401 203.952 29.6921 203.976C29.0714 203.976 28.8327 203.856 29.0237 203.185C30.1218 199.781 31.1244 196.378 32.1508 192.95Z" fill="#10002B"/>
<path d="M96.6044 180.438C100.448 177.178 104.315 173.942 108.134 170.659C108.85 170.035 109.686 169.532 110.259 168.741C112.383 171.522 114.508 174.326 116.322 177.298C118.351 180.606 117.444 185.16 114.46 187.749C111.476 190.337 106.917 190.481 103.909 188.012C101.331 185.879 99.1825 183.29 96.7714 180.965C96.6521 180.822 96.5566 180.654 96.6044 180.438Z" fill="#FEBD00"/>
<path d="M107.251 153.64C105.532 156.541 103.073 158.123 99.612 158.243C96.7713 158.338 93.9544 158.674 91.1137 158.89C91.1137 153.185 91.1376 147.456 91.0898 141.752C91.0898 140.793 91.424 140.601 92.2834 140.697C94.4796 140.937 96.6996 141.224 98.9197 141.176C100.042 141.584 101.259 141.392 102.405 141.8C106.678 143.286 109.662 148.271 107.251 153.64Z" fill="#FEBD00"/>
<path d="M56.5713 85.7833C57.9081 83.3864 59.2688 81.0135 60.6056 78.6165C60.725 78.4008 60.7966 78.1851 60.6056 77.9693C59.4837 76.4593 59.8179 74.6856 59.8417 73.0077C59.8417 72.0489 60.5579 71.4497 61.5844 71.4018C62.6825 71.3298 63.518 71.8332 63.6612 72.9358C63.876 74.7095 63.9476 76.5072 64.0431 78.281C64.1386 80.2704 64.1147 82.2599 64.2102 84.2253C64.2341 84.8965 64.5206 85.5676 64.998 86.071C67.0509 88.2282 69.1278 90.3615 71.2046 92.4948C71.324 93.046 71.1807 93.6213 71.4672 94.1247C71.4672 94.2925 71.4672 94.4602 71.4672 94.652C71.7536 95.443 71.873 96.2819 71.9685 97.0969C72.422 100.285 69.7007 102.682 66.669 101.675C63.4225 100.596 60.0805 99.8054 57.001 98.2714C56.2849 98.1275 56.4281 97.5523 56.4042 97.0489C56.4042 96.5695 56.3804 96.1141 56.3804 95.6347C56.4997 92.3509 56.5475 89.0671 56.5713 85.7833Z" fill="#FEFAE0"/>
<path d="M72.5177 193.669C79.2972 194.22 86.0767 193.789 92.8562 193.885C93.6678 193.909 94.193 194.029 94.4078 194.868C94.5749 197.456 94.6943 200.021 94.9091 202.61C94.9808 203.569 94.8375 204.024 93.6917 204C86.4586 203.928 79.2256 203.928 71.9925 203.928C71.4912 203.209 71.6344 202.394 71.706 201.627C71.9447 199.374 71.9209 197.121 72.1596 194.868C72.1596 194.436 72.1357 193.981 72.5177 193.669Z" fill="#10002B"/>
<path d="M77.9606 75.0211C77.4115 75.0211 76.8386 75.0211 76.2896 74.9971C74.7618 74.9252 73.5682 75.5484 72.7805 76.8427C71.6585 78.6644 69.2475 78.8562 67.5765 78.4487C66.6455 78.2329 66.2158 77.4659 66.1442 76.5791C66.0009 74.278 65.8577 71.977 65.8338 69.6519C65.81 68.1658 67.0036 66.9434 68.4358 66.8715C72.5417 66.6078 76.6715 66.3921 80.7774 66.1764C80.8013 67.231 80.8013 68.2857 80.8252 69.3403C80.0613 70.2512 80.0851 71.0901 80.9923 71.9051C81.0161 73.3672 81.04 74.8533 81.04 76.3154C80.4432 75.1649 79.4167 74.9012 78.2232 75.045C78.0561 74.4458 78.6051 74.326 78.9154 74.0623C79.6316 73.487 79.6555 72.8878 79.1064 72.2167C78.6767 71.6893 78.1993 71.2099 77.7219 70.7306C77.9845 71.2579 78.3664 71.7133 78.7483 72.1447C79.3451 72.8159 79.4167 73.4151 78.629 73.9424C78.2709 74.2061 78.0799 74.5896 77.9606 75.0211Z" fill="#FEFAE0"/>
<path d="M72.5179 193.669C72.3269 197.097 72.136 200.525 71.9689 203.952C69.0565 203.952 66.1203 203.976 63.208 203.976C64.3538 200.62 65.5235 197.241 66.6694 193.885C66.7649 193.597 66.8365 193.286 66.932 192.974C68.9849 186.862 70.9663 180.726 72.7089 174.518C73.5205 171.809 74.3321 169.101 75.1438 166.416C75.2154 166.153 75.287 165.889 75.3586 165.601C75.4302 165.314 75.5973 165.05 75.9315 165.122C76.3612 165.218 76.2896 165.529 76.1941 165.889C75.6689 167.711 75.1676 169.556 74.6425 171.402C73.8786 173.99 73.0908 176.579 72.3031 179.168C72.0882 179.911 71.9689 180.63 72.0405 181.397C72.3747 185.448 72.5179 189.547 72.5179 193.669Z" fill="#2B2B2B"/>
<path d="M109.256 74.326C110.927 74.326 112.598 74.326 114.245 74.326C114.651 73.9425 115.176 73.9185 115.701 73.9185C117.969 73.9185 120.237 73.8945 122.481 73.9185C124.009 73.9425 124.391 74.326 124.414 75.86C124.462 80.3183 124.438 84.8006 124.414 89.2589C124.414 90.673 124.08 90.9847 122.6 90.9847C119.425 91.0086 116.25 91.0326 113.075 90.9607C109.328 91.0086 105.556 90.9847 101.808 90.9847C101.283 90.9847 100.782 90.9607 100.328 90.6251C98.466 90.6251 96.5802 90.5772 94.7182 90.6011C93.9782 90.6251 93.6678 90.4813 93.6917 89.6424C93.7394 84.8964 93.7394 80.1265 93.6917 75.3806C93.6917 74.4698 94.0259 74.3499 94.8137 74.3499C99.4209 74.3739 104.028 74.3739 108.659 74.3739C108.85 74.3739 109.065 74.3499 109.256 74.326Z" fill="#020A13"/>
<path d="M100.352 90.6251C104.625 90.6251 108.874 90.6251 113.147 90.6491C113.983 91.4161 114.651 92.255 114.675 93.4775C111.023 95.0115 107.394 96.5216 103.742 98.0556C103.455 98.1755 103.169 98.3432 102.882 98.4631C101.975 95.8744 100.925 93.3337 100.352 90.6251Z" fill="#FCF6BD"/>
<path d="M47.6673 158.386C47.6196 158.602 47.5718 158.962 47.2615 158.794C45.7337 157.979 44.2059 158.506 42.6543 158.674C43.275 156.205 43.2988 153.64 43.5853 151.148C43.9195 148.247 44.2537 145.323 44.4924 142.399C44.7311 139.522 45.1847 136.646 45.0653 133.722C46.7841 137.317 46.6647 141.224 46.9512 145.035C46.975 145.419 46.8557 145.85 47.166 146.186C47.4763 147.864 47.6435 149.542 47.7151 151.219C47.8106 153.113 48.1448 155.007 48.0254 156.924C48.0015 157.428 48.0731 157.979 47.6673 158.386Z" fill="#99C1DE"/>
<path d="M80.992 71.8811C80.3475 71.7133 79.9416 71.3298 79.8939 70.6587C79.8461 69.9875 80.2042 69.5321 80.8249 69.3164C80.8965 70.1553 80.9442 71.0182 80.992 71.8811Z" fill="#2F2D2D"/>
<path d="M134.321 115.05C134.942 115.242 135.538 115.313 136.183 115.289C139.406 115.266 142.604 115.289 145.827 115.289C148.31 115.289 150.769 115.649 153.18 116.128C154.063 116.296 154.874 116.32 155.686 115.769C156.784 115.002 158.049 115.266 159.267 115.313C159.887 115.337 160.126 116.033 160.389 116.464C161.367 118.094 161.964 119.916 162.489 121.737C161.582 122.073 160.723 121.569 159.816 121.593C156.665 121.689 153.514 121.545 150.363 121.713C149.718 121.593 149.527 121.042 149.288 120.539C148.811 119.484 148.525 118.382 148.214 117.519C148.381 118.741 149.265 120.035 148.835 121.569C148.095 121.689 147.355 121.641 146.615 121.45C146.328 121.306 146.257 121.066 146.281 120.754C146.209 121.426 145.851 122.001 145.541 122.576C145.278 123.103 145.326 123.535 145.779 123.918C144.968 124.374 144.156 123.894 143.344 123.918C139.382 123.942 135.419 123.894 131.456 123.871C131.146 123.559 131.289 123.199 131.409 122.864C132.173 120.563 132.793 118.214 133.629 115.937C133.772 115.601 133.867 115.194 134.321 115.05Z" fill="#21B1A4"/>
<path d="M134.322 115.05C133.2 117.95 132.412 120.946 131.481 123.895C126.778 123.895 122.075 123.918 117.349 123.918C117.015 123.918 116.633 124.014 116.37 123.679C116.418 122.744 116.919 122.097 117.611 121.546C120.357 120.467 122.457 118.43 124.797 116.752C128.187 114.355 131.505 111.838 134.871 109.393C135.062 109.249 135.3 109.177 135.491 109.057C136.016 109.753 135.754 110.472 135.539 111.167C135.133 112.461 134.727 113.755 134.322 115.05Z" fill="#020A13"/>
<path d="M180.37 116.296C183.115 118.238 185.645 120.395 187.77 123.032C187.961 123.271 188.223 123.487 188.438 123.703C188.176 124.062 187.794 123.918 187.436 123.918C183.163 123.918 178.89 123.918 174.64 123.918C173.542 122.696 173.351 121.042 172.707 119.628C172.444 119.077 172.086 118.501 172.444 117.83C173.686 116.967 175.166 117.183 176.526 116.967C177.815 116.728 179.104 116.608 180.37 116.296Z" fill="#020A13"/>
<path d="M151.58 133.746C149.695 133.722 148.095 132.14 148.167 130.318C148.215 128.473 149.79 127.011 151.7 127.034C153.61 127.058 154.994 128.569 154.946 130.558C154.899 132.284 153.347 133.77 151.58 133.746Z" fill="#B7CEF2"/>
<path d="M150.076 121.522C153.705 121.018 157.357 121.378 161.009 121.306C161.487 121.306 161.988 121.593 162.466 121.761C162.776 122.48 163.11 123.199 163.42 123.918C159.697 123.942 155.949 123.966 152.225 123.942C151.246 123.942 150.267 124.374 149.289 123.99C149.336 123.871 149.384 123.799 149.503 123.751C150.172 123.631 150.506 123.367 150.172 122.624C150.005 122.289 149.742 121.905 150.076 121.522Z" fill="#21B1A4"/>
<path d="M172.42 117.95C173.16 119.94 173.9 121.929 174.64 123.895C174.234 123.895 173.852 123.919 173.447 123.919C172.42 120.563 171.394 117.231 170.415 113.875C170.296 113.492 169.914 113.108 170.296 112.653C171.417 114.259 172.11 116.033 172.42 117.95Z" fill="#2F2F30"/>
<path d="M146.448 121.282C147.236 121.378 148.071 121.09 148.835 121.522C149.48 122.193 149.599 123.008 149.384 123.894C149.36 123.918 149.313 123.966 149.289 123.99C148.191 123.966 147.093 123.918 145.971 123.894C145.589 122.912 145.66 122.025 146.448 121.282Z" fill="#21B1A4"/>
<path d="M117.611 121.546C117.205 122.265 116.775 122.96 116.37 123.679C116.203 123.679 116.059 123.679 115.892 123.679C114.102 123.679 113.839 123.247 114.532 121.498C115.534 121.689 116.561 121.665 117.611 121.546Z" fill="#FBFBFC"/>
<path d="M146.448 121.282C146.185 122.145 145.994 123.008 145.97 123.895C145.899 123.919 145.851 123.943 145.78 123.943C144.92 123.99 144.681 123.679 145.111 122.864C145.541 122.025 145.899 121.138 146.448 119.964C146.448 120.635 146.448 120.946 146.448 121.282Z" fill="#2F3030"/>
<path d="M87.4851 130.678C87.0554 133.195 88.0342 135.52 88.3445 137.941C88.6548 140.361 88.7742 140.385 86.387 140.218C81.1114 139.834 75.812 139.403 70.5364 139.043C69.9396 138.995 69.8202 138.708 69.7486 138.228C69.486 136.263 69.1995 134.297 68.9131 132.332C68.9608 132.308 69.0086 132.284 69.0563 132.26C71.5151 131.996 73.9739 131.708 76.4565 131.469C79.9656 131.109 83.4508 130.438 87.0077 130.366C87.2464 130.366 87.4135 130.462 87.4851 130.678Z" fill="#99C1DE"/>
<path d="M47.6678 158.386C47.5007 154.312 47.3097 150.261 47.1426 146.186C47.1664 146.066 47.1903 145.898 47.2619 145.851C47.4529 145.755 47.3574 145.946 47.3813 146.018C47.6439 147.912 47.9065 149.805 48.1213 151.699C48.7897 157.931 53.946 162.03 60.1764 161.383C64.6404 160.927 69.1283 160.688 73.5922 160.328C77.2446 160.04 80.8731 159.729 84.5254 159.441C85.2893 159.393 86.077 159.106 86.8171 159.585C78.4143 161.383 69.9876 163.18 61.561 164.954C59.3648 165.409 57.1686 166.224 54.877 165.745C51.1053 164.93 48.7181 162.629 47.8587 158.818C47.811 158.674 47.7394 158.53 47.6678 158.386Z" fill="#2B2B2B"/>
<path d="M57.0728 98.2713C60.1522 99.2541 63.3032 100.069 66.2872 101.268C69.3427 102.49 72.3983 100.285 71.6582 96.6654C71.515 96.0182 71.5628 95.3231 71.515 94.652C72.2073 95.5388 72.2312 96.6414 72.5176 97.6481C73.6157 101.627 74.6661 105.63 75.8119 109.92C73.926 108.746 72.2789 107.691 70.584 106.709C66.1917 104.168 62.0858 101.148 57.6218 98.7028C57.4308 98.5829 57.2637 98.4152 57.0728 98.2713Z" fill="#FEFEFE"/>
<path d="M87.4852 130.678C87.342 130.582 87.1749 130.486 87.0316 130.366C86.0529 124.853 83.3077 120.083 80.6818 115.29C80.4192 114.81 79.6792 114.139 80.3237 113.755C81.016 113.348 81.207 114.379 81.4457 114.81C83.9522 119.244 86.3871 123.703 87.6045 128.712C87.7716 129.336 88.2968 130.079 87.4852 130.678Z" fill="#2C2C2D"/>
<path d="M69.0806 132.284C69.0329 132.308 68.9852 132.332 68.9374 132.356C68.2451 132.212 68.2929 131.613 68.2213 131.133C67.8155 127.945 67.4335 124.757 67.0277 121.569C67.0038 121.33 66.98 121.09 66.98 120.85C66.98 120.539 66.9322 120.155 67.3858 120.155C67.7916 120.155 67.8632 120.515 67.8871 120.85C68.0303 122.001 68.1497 123.127 68.2929 124.278C68.5555 126.435 68.8419 128.616 69.1045 130.774C69.1761 131.229 69.2716 131.756 69.0806 132.284Z" fill="#2C2C2D"/>
<path d="M157.93 65.6731C159.315 67.5187 160.317 69.6041 161.439 71.5935C162.991 74.35 164.948 76.7709 166.977 79.1439C169.532 82.116 170.797 85.6156 171.036 89.4746C171.131 91.2723 171.346 93.118 170.845 94.8917C169.293 94.1007 167.765 94.8198 166.214 94.9157C165.688 94.9396 165.139 95.2512 164.614 94.9157C163.349 92.5667 161.392 91.0566 158.885 90.2177C158.073 89.954 157.5 89.3308 156.784 88.8994C155.448 88.1084 154.015 87.605 152.487 87.2455C151.962 86.7661 152.105 86.1429 152.082 85.5676C152.105 83.9137 152.01 82.2599 152.129 80.606C152.702 79.1439 153.944 78.2091 154.851 77.0106C155.448 76.7949 155.877 76.4593 155.973 75.7642C156.044 75.2608 156.331 74.9253 156.856 74.7575C158.503 74.2541 158.503 74.2541 158.599 72.4804C158.742 71.8332 158.622 71.2579 158.121 70.8025C157.859 70.5628 157.668 70.2752 157.62 69.9157C157.668 68.5015 157.262 67.0393 157.93 65.6731Z" fill="#020A13"/>
<path d="M152.44 85.5676C152.464 86.1428 152.488 86.6941 152.512 87.2694C152.512 88.7076 152.297 90.0738 151.27 91.2004C150.315 93.6692 145.183 93.7411 143.703 91.3682C143.655 91.2723 143.607 91.1764 143.56 91.0805C142.08 89.954 142.032 88.348 142.127 86.6941C142.271 84.3691 142.748 82.0681 142.342 79.7191C143.011 79 143.775 79.2876 144.538 79.5033C144.849 79.5992 145.064 79.8389 145.398 79.9108C145.851 80.0067 146.281 80.0307 146.568 79.5752C146.782 79.2157 146.687 78.8801 146.4 78.5925C146.042 78.233 145.565 78.209 145.207 78.5206C144.228 79.4075 143.082 79.2397 141.936 79.1198C141.865 79.1198 141.793 79.0719 141.722 79.0479C141.053 78.5446 140.504 77.9693 140.647 77.0105C141.077 76.2675 141.125 75.4525 141.149 74.6136C141.196 72.8878 140.934 71.138 141.316 69.4123C141.531 69.0287 141.96 68.9808 142.342 68.861C145.493 67.8303 148.597 66.7277 151.509 65.1457C152.559 64.5705 152.87 64.7622 153.084 65.9846C153.443 67.8782 153.848 69.7478 154.397 71.5695C154.541 72.3845 154.517 73.2234 154.493 74.0383C154.445 75.117 154.612 76.1476 154.875 77.1783C154.326 78.4007 153.443 79.3595 152.488 80.2704C150.864 82.0201 148.811 82.2838 146.615 81.9242C146.496 81.9003 146.4 81.8523 146.281 81.8044C146.186 81.7804 146.09 81.7565 146.186 81.7325C148.191 82.883 150.554 83.8178 152.44 85.5676Z" fill="#FEFAE0"/>
<path d="M142.438 79.6471C142.963 80.0307 142.963 80.582 142.891 81.1572C142.652 83.0508 142.796 84.9683 142.414 86.8379C141.316 87.4851 140.122 87.8447 138.857 88.0124C136.35 89.7143 133.342 90.5772 131.003 92.6146C130.096 87.2215 132.364 82.883 135.61 78.8801C136.589 77.6817 137.425 76.3873 138.356 75.1409C138.451 75.0211 138.546 74.9971 138.666 75.093C139 75.5484 138.905 76.0757 138.928 76.5791C139 78.3288 139.668 79.0959 141.387 79.2876C141.769 79.2876 142.199 79.2397 142.438 79.6471Z" fill="#020A13"/>
<path d="M172.42 117.95C171.704 116.176 171.012 114.403 170.295 112.653C169.269 110.064 168.314 107.452 167.717 104.743C168.601 104.168 169.484 104.24 170.391 104.719C170.821 109.082 174.067 111.359 177.075 113.828C178.125 114.69 179.271 115.457 180.393 116.272C180.011 116.848 179.438 116.872 178.841 116.967C176.693 117.351 174.497 117.303 172.42 117.95Z" fill="#020A13"/>
<path d="M170.391 104.743C169.508 104.743 168.625 104.743 167.718 104.767C166.763 101.795 165.832 98.8227 164.877 95.8505C164.781 95.5389 164.71 95.2513 164.614 94.9397C166.357 94.5322 168.123 94.2446 169.914 94.2206C170.439 94.2206 170.869 94.2446 170.821 94.9397C170.725 98.1995 170.152 101.435 170.391 104.743Z" fill="#020A13"/>
<path d="M143.703 91.3442C146.687 93.6213 149.599 92.9262 151.27 91.1764C151.055 92.4707 150.267 93.4774 149.718 94.628C148.978 96.2339 148.143 97.8159 147.188 99.7095C145.994 96.7612 144.61 94.1726 143.703 91.3442Z" fill="#FEFEFE"/>
<path d="M138.856 87.9885C139.955 87.3413 141.196 87.0776 142.413 86.814C142.342 88.348 142.58 89.8101 143.559 91.0326C141.864 90.2176 140.36 89.115 138.856 87.9885Z" fill="#2C2C2C"/>
<path d="M135.539 111.167C135.515 110.472 135.515 109.753 135.491 109.058C135.61 107.116 134.679 105.438 134.011 103.688C134.703 104.024 134.966 104.623 135.228 105.223C135.968 106.876 136.279 108.626 136.016 110.448C135.992 110.783 135.897 111.047 135.539 111.167Z" fill="#303132"/>
<path d="M119.043 100.62C119.211 100.644 119.354 100.668 119.521 100.716C120.213 102.538 121.431 104.12 121.86 106.061C120.691 104.359 119.545 102.658 119.043 100.62Z" fill="#323333"/>
<path d="M160.15 105.846C158.431 107.5 158.861 109.537 159.195 111.718C157.644 110.136 158.288 106.469 160.15 105.846Z" fill="#2F3030"/>
<path d="M77.9607 75.0211C77.4833 74.3979 77.8652 74.0863 78.3665 73.8226C79.2259 73.3672 79.1782 72.8638 78.5336 72.2646C78.1755 71.929 77.8652 71.5695 77.5788 71.186C77.3639 70.8983 76.791 70.6347 77.2207 70.2272C77.6742 69.7718 77.8652 70.395 78.1517 70.6107C78.2472 70.6826 78.2949 70.8025 78.3904 70.8983C80.3479 73.1275 80.3479 73.1275 78.271 75.0211C78.1517 75.0211 78.0562 75.0211 77.9607 75.0211Z" fill="#322E2D"/>
<path d="M78.0557 78.3528C78.3899 78.4726 78.9151 78.0172 79.0822 78.5445C79.2254 78.976 78.8912 79.3835 78.557 79.6711C78.0319 80.1505 77.4112 80.3183 76.6951 80.1025C76.0983 79.9108 75.6925 79.4793 75.7163 78.9041C75.7402 78.3049 76.3847 78.5685 76.7667 78.4726C77.1964 78.3768 77.6261 78.4007 78.0557 78.3528Z" fill="#F8F8F8"/>
<path d="M73.4007 72.2167C72.4935 72.1927 72.0161 71.7373 72.0161 70.8744C72.0161 70.0115 72.5652 69.5321 73.3768 69.5321C74.1407 69.5321 74.6181 70.0355 74.642 70.8264C74.6897 71.7133 74.2123 72.1448 73.4007 72.2167Z" fill="#2D2C2C"/>
<path d="M109.017 75.7402C113.195 75.7402 117.372 75.7641 121.526 75.7162C122.29 75.7162 122.648 75.8121 122.624 76.7229C122.576 80.558 122.576 84.3931 122.624 88.2042C122.624 88.9712 122.433 89.2349 121.645 89.2349C113.147 89.2109 104.649 89.2109 96.1265 89.2349C95.2671 89.2349 95.0522 88.9712 95.0522 88.1563C95.1 84.3691 95.1 80.582 95.0522 76.7948C95.0522 75.9559 95.3148 75.7162 96.1265 75.7402C100.423 75.7641 104.72 75.7402 109.017 75.7402Z" fill="#FEFEFE"/>
<path d="M138.594 75.093C138.499 75.093 138.427 75.093 138.332 75.093C136.685 74.8293 136.565 74.6376 136.685 72.3126C136.804 72.1448 136.852 71.953 136.947 71.7852C137.377 71.0661 137.926 70.4909 138.857 70.7066C139.836 70.9223 139.525 71.8092 139.645 72.4564C139.764 72.1927 139.669 71.929 139.693 71.6654C139.74 70.9703 139.573 70.4909 138.762 70.5149C138.499 70.5149 138.212 70.4669 138.045 70.1793C138.045 67.5187 138.022 64.8341 138.045 62.1735C138.069 59.3931 140.027 57.3557 142.82 57.2838C146.186 57.2119 149.575 57.2119 152.941 57.2838C155.71 57.3317 157.668 59.3212 157.835 62.1256C157.907 63.3241 157.907 64.4986 157.93 65.697C157.93 67.2071 157.907 68.7411 157.907 70.2512C157.763 70.395 157.596 70.4669 157.405 70.5149C155.854 70.8025 155.854 70.8025 155.925 72.5043C156.068 71.8332 155.71 70.9223 156.761 70.7066C157.644 70.5149 158.217 70.9463 158.909 72.3126C158.933 72.6961 158.957 73.1035 158.957 73.4871C159.005 74.5177 158.503 75.069 157.477 75.0451C156.737 75.0211 156.307 75.1649 156.307 76.0518C156.307 76.9626 155.686 77.2502 154.827 77.1304C154.278 76.7229 154.087 76.1716 154.111 75.5005C154.135 74.1103 154.087 72.744 154.087 71.3538C153.968 70.8025 153.896 70.2512 153.872 69.6999C153.824 68.9089 154.111 68.2378 154.946 68.094C155.591 67.9981 155.686 67.6625 155.686 67.1352C155.686 65.7929 155.663 64.4266 155.686 63.0844C155.639 60.5436 154.994 59.6328 152.464 59.4171C149.337 59.1534 146.186 59.0815 143.082 59.465C140.838 59.7287 140.194 60.6395 140.146 62.9166C140.146 63.4439 140.122 63.9473 140.146 64.4746C140.146 65.0738 140.17 65.6491 140.146 66.2483C140.122 67.1112 140.122 67.8782 141.101 68.2857C141.507 68.4535 141.745 68.861 141.483 69.3643C141.483 71.4017 141.459 73.4151 141.483 75.4525C141.483 76.1716 141.34 76.7708 140.743 77.2023C140.098 77.6577 139.645 77.3461 139.239 76.8428C138.881 76.2915 139.239 75.5005 138.594 75.093Z" fill="#FCE445"/>
<path d="M138.069 70.1792C140.026 70.2511 140.026 70.2511 140.003 72.2406C140.003 72.3604 140.003 72.4803 140.003 72.6001C139.979 72.9357 140.098 73.463 139.644 73.463C139.191 73.463 139.358 72.9357 139.263 72.6001C139.095 72.0488 139.764 71.2338 138.833 70.9942C137.926 70.7545 137.448 71.3297 137.21 72.1447C137.138 72.3844 136.923 72.3844 136.708 72.3364C136.35 71.09 137.042 70.5148 138.069 70.1792Z" fill="#36322F"/>
<path d="M149.384 123.894C149.193 123.103 149.026 122.312 148.835 121.521C148.524 119.94 148.214 118.334 147.88 116.752C147.951 116.728 147.999 116.704 148.071 116.68C148.739 118.286 149.408 119.892 150.076 121.498C150.172 121.785 150.243 122.097 150.339 122.384C150.959 123.918 150.959 123.918 149.384 123.894Z" fill="#2D2D2D"/>
<path d="M152.44 85.5675C150.196 84.2972 147.976 83.0028 145.732 81.7324C148.191 82.092 150.411 81.6366 152.464 80.2463C152.44 82.0201 152.44 83.7938 152.44 85.5675Z" fill="#2C2B2B"/>
<path d="M158.909 72.3126C158.36 72.4803 158.336 72.001 158.24 71.7133C158.002 70.9703 157.405 70.9223 156.808 70.9703C155.997 71.0422 156.45 71.6894 156.331 72.0729C156.188 72.5523 156.665 73.4151 155.925 73.4151C155.328 73.4151 155.591 72.5523 155.591 72.0968C155.567 70.1314 155.567 70.1314 157.906 70.2272C158.622 70.7306 159.315 71.2579 158.909 72.3126Z" fill="#35312E"/>
<path d="M141.506 69.3403C141.435 68.8849 141.22 68.3816 140.766 68.3816C139.74 68.3576 139.811 67.7344 139.835 67.0393C139.859 66.1764 139.883 65.3135 139.907 64.4506C140.241 62.6529 141.458 61.5263 142.915 60.6634C146.471 58.5541 149.981 59.0815 153.442 60.9511C154.421 61.4784 155.399 62.0537 155.972 63.0604C155.972 64.6184 155.996 66.1764 155.996 67.7344C155.996 68.07 156.139 68.4774 155.495 68.3576C154.492 68.1898 154.158 68.837 154.134 69.6999C154.11 70.2512 154.11 70.8264 154.086 71.3777C153.37 69.6759 153.012 67.9022 152.797 66.1045C152.63 64.7862 152.177 65.0978 151.437 65.5292C148.524 67.1591 145.349 68.2138 142.198 69.2445C141.984 69.2924 141.721 69.2924 141.506 69.3403Z" fill="#020A13"/>
<path d="M138.594 75.0931C138.952 75.0451 139.31 74.9493 139.31 75.5245C139.31 75.908 139.334 76.2915 139.334 76.675C139.74 77.8016 140.528 78.4727 141.65 78.8083C142.318 78.8323 142.986 78.8323 143.655 78.8563C144.061 78.8802 144.395 78.8083 144.657 78.4248C145.159 77.7297 145.851 77.6578 146.519 78.1372C147.116 78.5686 147.212 79.2398 146.83 79.839C146.352 80.606 145.35 80.4622 144.944 80.1266C144.108 79.4076 143.273 79.6472 142.39 79.6472C141.697 79.5274 140.981 79.7192 140.313 79.4315C139.072 78.9042 138.57 77.9454 138.546 76.6511C138.594 76.1238 138.594 75.5964 138.594 75.0931Z" fill="#020A13"/>
<path d="M147.975 76.723C147.212 76.723 146.663 76.3634 146.591 75.7402C146.519 75.0451 147.235 75.2848 147.546 75.3567C148.047 75.4526 148.859 74.8773 148.978 75.7642C149.05 76.2915 148.572 76.7709 147.975 76.723Z" fill="#FCEFEE"/>
<path d="M146.949 73.0076C148.191 72.3125 148.358 71.6414 147.737 70.6826C147.474 70.2751 147.498 69.628 147.928 69.0767C148.095 70.0834 148.62 70.9702 148.787 71.8811C148.954 72.696 148.167 73.0795 146.949 73.0076Z" fill="#020A13"/>
<path d="M144.347 69.1246C144.872 69.1965 145.183 69.5081 145.183 69.9875C145.183 70.5149 144.825 70.8744 144.275 70.8504C143.798 70.8265 143.464 70.5149 143.464 70.0115C143.464 69.4362 143.846 69.1726 144.347 69.1246Z" fill="#020A13"/>
<path d="M141.674 78.8322C140.098 78.8562 139.478 78.257 139.358 76.699C139.74 77.0585 140.194 77.2742 140.743 77.2023C141.053 77.7297 141.364 78.2809 141.674 78.8322Z" fill="#020A13"/>
<path d="M152.44 69.9396C152.416 70.443 152.13 70.7306 151.628 70.7546C151.127 70.7546 150.793 70.4909 150.817 69.9636C150.817 69.5082 151.103 69.2445 151.557 69.2205C152.058 69.1726 152.344 69.4363 152.44 69.9396Z" fill="#020A13"/>
<path d="M101.235 87.4612C100.233 87.4612 99.254 87.4612 98.2514 87.4612C97.774 87.4612 97.4398 87.3893 97.3443 86.7901C96.9862 84.489 97.7024 82.7632 99.7315 81.5408C100.137 81.3011 100.066 81.1813 99.8986 80.8217C99.4927 79.9588 99.5166 79.072 100.328 78.4488C100.949 77.9694 101.665 77.9214 102.31 78.4248C103.121 79.048 103.312 79.8629 102.811 80.7498C102.501 81.3011 102.811 81.421 103.169 81.6367C104.983 82.6913 105.866 85.1122 105.222 87.0058C105.055 87.4852 104.697 87.4133 104.339 87.4133C103.288 87.4612 102.262 87.4612 101.235 87.4612Z" fill="#FFD500"/>
<path d="M114.15 80.7018C112.885 80.7018 111.62 80.7018 110.354 80.7018C109.853 80.7018 109.423 80.7018 109.423 79.9828C109.423 79.3116 109.805 79.3356 110.283 79.3356C112.909 79.3356 115.511 79.3356 118.136 79.3356C118.59 79.3356 118.996 79.2877 119.02 79.9588C119.02 80.6539 118.638 80.7018 118.113 80.7018C116.752 80.7018 115.439 80.7018 114.15 80.7018Z" fill="#020A13"/>
<path d="M114.15 84.3451C112.837 84.3451 111.524 84.3211 110.235 84.3451C109.734 84.3451 109.423 84.2492 109.423 83.626C109.423 82.9788 109.781 82.9309 110.283 82.9309C112.909 82.9309 115.511 82.9549 118.136 82.9309C118.733 82.9309 119.02 83.0747 118.996 83.7459C118.996 84.4649 118.495 84.3211 118.089 84.3451C116.752 84.3691 115.439 84.3451 114.15 84.3451Z" fill="#020A13"/>
<g clip-path="url(#clip1)">
<path d="M147.214 166.82C147.214 167.293 147.265 167.819 147.214 168.24C147.11 168.661 146.853 168.976 146.647 169.397C146.235 169.081 145.617 168.871 145.462 168.45C145.256 167.767 145.359 166.978 145.308 166.242C145.256 165.505 145.102 164.717 145.205 163.98C145.256 163.612 145.668 163.192 145.926 162.823C146.235 163.086 146.801 163.349 146.853 163.665C147.11 164.717 147.162 165.768 147.214 166.82C147.265 166.768 147.265 166.768 147.214 166.82Z" fill="black"/>
<path d="M147.78 174.866C147.78 175.129 147.935 175.445 147.832 175.655C147.677 176.023 147.42 176.496 147.162 176.549C146.905 176.602 146.338 176.181 146.287 175.918C146.081 174.814 145.978 173.657 145.978 172.552C145.978 172.237 146.544 171.974 146.853 171.658C147.059 171.974 147.42 172.237 147.523 172.605C147.626 173.341 147.677 174.13 147.78 174.866Z" fill="black"/>
<path d="M141.186 171.974C141.083 171.921 140.62 171.763 140.517 171.501C140.465 171.238 140.671 170.554 140.877 170.501C142.114 170.238 143.35 170.081 144.586 170.028C144.741 170.028 145.101 170.607 145.05 170.817C144.947 171.132 144.638 171.501 144.329 171.606C143.401 171.763 142.423 171.816 141.186 171.974Z" fill="black"/>
<path d="M151.231 169.187C151.849 169.502 153.034 169.87 153.034 170.186C152.983 171.343 151.849 171.08 151.128 171.185C150.407 171.29 149.634 171.132 148.913 171.027C148.707 170.975 148.45 170.554 148.45 170.344C148.45 170.133 148.81 169.87 149.068 169.818C149.737 169.66 150.407 169.607 151.077 169.502C151.128 169.344 151.18 169.292 151.231 169.187Z" fill="black"/>
</g>
</g>
<g clip-path="url(#clip2)">
<path d="M12.7675 118.023C14.6413 119.279 15.2876 121.566 14.24 123.156C13.581 124.148 11.1203 124.473 9.98041 123.683C8.46375 122.677 8.07185 120.582 9.17336 118.976C9.98984 117.71 11.6422 117.287 12.7675 118.023ZM12.3235 119.275C11.6581 118.848 10.3782 119.256 9.92543 120.046C9.4924 120.802 9.85745 121.833 10.7626 122.397C11.6678 122.961 12.8494 122.725 13.3757 121.886C13.902 121.046 13.4685 119.976 12.3235 119.275Z" fill="#020A13"/>
<path d="M16.9989 141.531C16.31 142.734 15.3734 143.019 14.2772 142.391C13.3181 141.841 13.0267 140.762 13.5924 139.854C14.1435 138.892 15.438 138.538 16.3483 139.014C17.3272 139.529 17.5698 140.535 16.9989 141.531Z" fill="#020A13"/>
</g>
<defs>
<clipPath id="clip0">
<rect width="165" height="175" fill="white" transform="translate(29 29)"/>
</clipPath>
<clipPath id="clip1">
<rect width="12.5172" height="13.7255" fill="white" transform="translate(140.517 162.823)"/>
</clipPath>
<clipPath id="clip2">
<rect width="20.394" height="18.0409" fill="white" transform="translate(26.0928 125.656) rotate(119.805)"/>
</clipPath>
</defs>
</svg>
