<svg width="194" height="194" viewBox="0 0 194 194" fill="none" xmlns="http://www.w3.org/2000/svg">
<path fill-rule="evenodd" clip-rule="evenodd" d="M87.941 0.189475C68.0158 -1.05641 47.07 3.76995 31.911 16.8045C17.2843 29.3814 14.0925 49.7939 8.67961 68.343C3.44527 86.2804 -2.45702 104.153 1.06606 122.506C4.92186 142.593 13.372 162.413 29.2097 175.293C45.5006 188.542 67.2758 196.736 87.941 193.16C107.478 189.779 116.724 167.681 133.592 157.23C152.689 145.398 185.058 149.514 192.615 128.309C200.116 107.266 175.173 88.9458 165.019 69.0547C156.878 53.1064 152.454 35.424 139.117 23.5079C124.774 10.6932 107.109 1.38802 87.941 0.189475Z" fill="#89D8F5"/>
<g clip-path="url(#clip0)">
<path d="M135.776 141.375C135.637 139.99 135.654 138.587 135.167 137.271C134.802 136.285 135.219 135.194 134.732 134.242C134.28 133.324 134.367 132.302 134.297 131.315C134.245 130.38 134.402 129.376 134.262 128.493C133.932 126.554 133.932 124.58 133.619 122.658C133.584 122.485 133.688 122.225 133.445 122.139C132.766 121.914 132.94 121.533 133.201 121.083C133.706 120.2 133.845 119.247 133.671 118.26C133.358 116.494 134.001 114.711 133.497 112.962C133.41 112.633 133.914 112.443 133.862 111.993C133.671 110.642 133.01 109.69 131.74 109.188C130.296 108.616 128.765 108.443 127.216 108.478C123.771 108.547 120.344 108.686 116.899 108.824C115.559 108.876 115.455 108.772 115.594 107.422C115.629 107.162 115.472 106.868 115.385 106.591C115.281 106.296 115.176 106.002 115.159 105.673C114.933 103.024 114.515 100.409 113.715 97.8643C112.497 94.0205 110.409 90.8693 106.617 89.0686C106.408 88.9647 106.182 88.9128 105.955 88.8609C104.024 88.3068 102.023 88.1163 100.023 88.1683C98.3002 88.2202 96.5081 88.2029 94.9597 89.2071C94.6987 89.3803 94.316 89.3456 94.2638 88.7916C94.2116 87.9086 94.055 87.0255 93.9332 86.1425C93.6896 84.6015 93.4983 83.0606 93.3939 81.5196C93.2895 80.1691 92.7849 78.8532 92.6979 77.5027C92.4892 74.3169 91.915 71.183 91.6366 68.0145C91.2713 63.9283 90.4884 59.8941 89.8968 55.8253C89.6358 53.9553 89.3401 52.0854 89.0095 50.2155C88.7311 48.6572 88.2614 47.0469 88.8181 45.3501C89.1487 44.3286 88.4354 43.5322 87.3219 43.4975C86.0344 43.4629 84.7469 43.6187 83.4595 43.6707C81.9284 43.7399 80.3974 43.8438 78.8663 43.8958C77.3353 43.9477 75.8216 43.9304 74.2906 44.017C71.3503 44.2074 68.3926 44.4844 65.4523 44.5883C62.5815 44.6922 59.7282 44.9 56.8749 45.1597C55.5178 45.2809 54.1956 45.8176 52.8211 45.5233C51.899 45.3328 50.9769 45.4021 50.0548 45.506C47.0275 45.8523 44.0002 46.1639 40.9555 46.3544C37.5454 46.5621 34.1528 46.995 30.7427 47.2374C28.8115 47.3759 26.8977 47.6183 24.9839 47.878C22.7221 48.1724 20.443 48.3455 18.1812 48.6399C15.4497 48.9861 12.7181 49.2805 9.9866 49.5748C7.22028 49.8692 4.45395 50.1462 1.70503 50.631C0.452355 50.8561 0 51.3928 0 52.7087C0 52.8818 0 53.055 0.0173983 53.2281C0.434957 56.639 0.29577 60.0673 0.539346 63.4782C0.643736 65.0364 0.80032 66.5774 0.80032 68.1357C0.80032 69.0707 1.35706 69.9191 1.20048 70.8021C1.06129 71.6332 1.0091 72.4643 1.07869 73.278C1.40926 77.7624 2.07039 82.2122 2.22698 86.7139C2.27917 88.4626 2.64454 90.194 2.78372 91.9428C2.9577 94.1244 3.0099 96.3233 3.21868 98.5049C3.75802 104.305 4.68013 110.071 4.78452 115.906C4.80192 116.442 4.88891 116.997 5.0281 117.533C5.27167 118.382 6.17638 118.866 6.92451 118.503C7.44646 118.26 7.9684 118.191 8.52515 118.157C13.7272 117.828 18.9119 117.187 24.1314 117.17C26.6541 117.17 29.1769 117.083 31.6996 117.17C35.4055 117.308 39.0939 117.395 42.7997 117.343C43.3739 117.343 43.9654 117.239 44.5395 117.308C46.1054 117.499 47.6712 117.499 49.2197 117.377C52.0382 117.152 54.8915 117.239 57.6926 116.737C57.9014 116.702 58.1798 116.633 58.232 116.979C58.3538 117.828 58.6321 118.693 58.5799 119.542C58.3886 122.953 58.4756 126.381 58.4408 129.792C58.3886 133.67 58.6843 137.549 58.5103 141.427C58.4756 142.016 58.0754 142.639 58.3538 143.193C58.6495 143.747 58.5973 144.301 58.6147 144.872C58.6321 146.569 58.6147 148.283 58.6147 149.98C58.5625 149.98 58.493 149.98 58.4408 149.98C58.4408 150.794 58.5103 151.608 58.4234 152.404C58.1276 155.659 58.5799 158.845 59.3977 161.996C59.5194 162.446 59.6934 162.793 60.0762 163.052C60.4242 163.277 60.6851 163.589 60.9635 163.901C61.4333 164.42 61.7986 165.13 62.5641 165.321C64.4432 165.788 66.2874 166.463 68.2882 166.29C69.2103 166.221 70.1324 166.411 70.9849 166.862C71.3155 167.035 71.6286 167.052 71.9766 166.931C72.5681 166.723 73.1771 166.792 73.7686 166.879C73.96 166.913 74.1514 167.087 74.3254 166.896C74.7777 166.411 75.3519 166.602 75.8738 166.654C76.9177 166.758 77.979 166.862 78.9881 166.619C80.0146 166.377 81.0585 166.533 82.0502 166.533C84.2946 166.533 86.4867 166.273 88.6963 166.03C90.1752 165.875 91.5322 165.078 93.0633 165.217C93.4983 165.251 93.968 165.321 94.3508 165.199C96.6299 164.386 99.0483 164.299 101.362 163.676C103.502 163.104 105.607 162.343 107.869 162.204C108.235 162.187 108.809 162.187 108.948 161.84C109.157 161.321 109.452 161.39 109.853 161.408C110.131 161.425 110.427 161.356 110.705 161.321C112.114 161.079 113.454 160.438 114.933 160.455C115.507 160.455 116.029 160.248 116.551 159.936C117.49 159.399 118.587 159.572 119.613 159.399C121.823 158.984 123.91 158.101 126.033 157.356C127.877 156.715 129.704 155.988 131.635 155.85C133.079 155.728 134.297 155.157 135.463 154.447C136.698 153.72 137.324 152.508 137.394 151.158C137.516 149.011 136.576 147.002 136.298 144.89C136.159 143.695 135.898 142.5 135.776 141.375ZM95.4991 96.2714C95.8296 96.0116 96.4386 96.0809 96.9083 95.977C97.726 95.8039 98.5264 95.5961 99.2919 95.2325C101.206 94.3148 104.372 95.423 105.607 97.0505C106.356 98.0374 106.878 99.1455 107.539 100.167C108.008 100.894 108.113 101.898 108.2 102.833C108.304 103.976 108.409 105.136 108.391 106.279C108.374 106.798 108.374 107.283 108.583 107.803C108.948 108.703 108.774 108.893 107.782 108.963C107.469 108.98 107.138 108.997 106.947 109.015C106.286 108.945 105.729 108.997 105.19 109.101C104.546 109.205 103.92 109.188 103.259 109.032C102.719 108.911 102.128 108.963 101.571 109.032C100.736 109.136 99.9182 109.43 99.0483 109.205C98.7873 109.136 98.3872 109.067 98.3002 109.551C98.2654 109.759 98.0392 109.759 98.0044 109.638C97.8304 108.997 97.0301 110.157 96.9257 109.222C96.4907 105.708 96.0036 102.193 95.5512 98.678C95.4991 98.3317 95.4991 97.9855 95.5512 97.6392C95.586 97.1544 95.0815 96.583 95.4991 96.2714ZM96.3168 115.144C97.4477 115.888 98.6133 115.785 99.8138 115.559C100.388 115.456 100.962 115.49 101.501 115.594C102.667 115.819 103.763 115.646 104.894 115.386C105.573 115.23 106.338 115.334 107.051 115.456C108.235 115.629 109.383 115.819 110.462 115.075C110.618 114.971 110.844 114.763 111.001 114.919C111.645 115.611 112.462 115.438 113.193 115.334C114.794 115.092 116.342 115.404 117.925 115.473C119.543 115.542 121.144 115.594 122.867 115.525C122.64 116.113 122.24 116.529 121.875 116.962C120.57 118.468 119.039 119.784 117.769 121.308C116.638 122.641 115.089 123.247 113.732 124.182C112.306 125.169 110.653 125.636 109.07 126.277C107.869 126.762 106.617 127.16 105.468 127.766C105.19 127.922 104.981 127.939 104.685 127.731C102.98 126.519 101.049 126.381 99.0309 126.571C95.673 126.883 92.4717 127.956 89.1835 128.614C88.0178 128.857 86.8521 129.082 85.669 129.186C83.9988 129.324 82.3286 129.03 80.7105 128.718C76.9003 127.974 73.8034 125.948 71.0719 123.23C70.5847 122.745 70.202 122.364 69.8366 121.758C69.2277 120.736 68.2708 119.94 67.7314 118.797C67.4705 118.243 66.7919 117.88 66.2526 117.395C67.4009 116.979 68.5491 117.135 69.6626 116.962C70.9675 116.754 72.2898 116.564 73.5946 116.391C74.5689 116.252 75.5954 116.148 76.6219 116.096C78.0138 116.027 79.3709 115.646 80.7627 115.663C81.0585 115.663 80.7105 115.386 80.9541 115.248C81.9284 114.642 83.2159 114.555 83.9988 114.867C84.8687 115.213 85.6168 114.763 86.2258 115.005C88.2788 115.819 90.2796 114.936 92.2978 115.092C92.7849 115.127 93.0981 114.815 93.5156 114.78C94.5074 114.624 95.499 114.607 96.3168 115.144ZM92.5935 96.8427C92.7675 96.86 92.7849 97.0505 92.8197 97.1717C92.9589 97.7257 93.0981 98.2971 93.2025 98.8512C93.3069 99.4052 93.5678 99.9593 93.3939 100.635C93.707 101.847 93.5331 103.197 94.0376 104.461C94.055 104.478 94.055 104.513 94.055 104.548C94.0724 106.019 94.6117 107.404 94.6465 108.876C94.6813 110.036 94.6117 110.071 93.4635 110.053C92.3152 110.036 91.1669 109.846 90.0186 110.002C89.1139 110.123 88.2266 109.759 87.3045 109.863C87.1479 109.88 86.5737 109.863 86.9565 109.378C87.3045 108.928 86.4867 109.17 86.6085 108.738C86.7999 108.045 86.7303 107.301 87.0783 106.625C87.3045 106.175 87.1479 105.673 87.0783 105.188C86.9739 104.478 86.6955 103.82 87.0087 103.007C87.1131 102.747 87.0435 102.141 87.1827 101.708C87.2001 101.621 87.2349 101.483 87.2697 101.483C88.7833 101.137 88.8703 99.3187 90.1578 98.73C90.4362 98.5915 90.6449 98.3491 90.9929 98.2625C91.5496 98.1067 92.002 97.7604 92.2456 97.189C92.3152 97.0332 92.35 96.8254 92.5935 96.8427ZM2.64454 59.7383C2.87071 58.786 2.73153 57.8164 2.59234 56.8988C2.45315 55.9638 2.31397 55.0288 2.27917 54.0765C2.26177 53.5917 2.29657 53.3666 2.88811 53.3666C5.18468 53.332 7.39426 52.6741 9.69083 52.5529C11.2741 52.4663 12.8225 52.172 14.3884 51.9988C16.2152 51.8084 18.0594 51.6006 19.9036 51.4621C20.0428 51.4448 20.1994 51.4448 20.3386 51.4274C21.5042 51.2197 22.6177 50.9773 23.853 51.0292C25.2797 51.0985 26.7585 50.7176 28.22 50.5617C30.3774 50.3367 32.5521 50.0943 34.7095 49.9731C36.5885 49.8692 38.4502 49.696 40.3118 49.4536C43.1477 49.09 46.0184 48.9342 48.8717 48.7437C51.986 48.536 55.1177 48.3109 58.232 48.1204C60.285 47.9992 62.3206 47.93 64.3736 47.8088C67.5052 47.6183 70.6369 47.3413 73.786 47.1681C77.1091 46.995 80.4322 46.9257 83.7552 46.8045C84.1032 46.7872 84.4512 46.7699 84.7991 46.7699C86.0344 46.7699 86.0344 46.7699 86.1388 48.0339C86.2432 49.2632 86.3302 50.5098 86.5215 51.7218C86.6259 52.4144 86.3476 52.5875 85.756 52.726C83.877 53.2108 81.9284 53.3666 80.0494 53.8341C77.4919 54.4574 74.9169 55.0115 72.3072 55.3405C69.2103 55.7387 66.1482 56.362 63.0513 56.5698C60.2502 56.7602 57.4839 57.0373 54.7001 57.3836C54.3522 57.4182 54.0042 57.4182 53.6562 57.4355C51.8294 57.5913 49.9504 57.3143 48.141 57.8164C48.054 57.8337 47.967 57.8683 47.8974 57.8337C46.4534 57.1931 44.9919 57.7298 43.5304 57.7471C42.069 57.7645 40.6075 57.574 39.1287 57.6606C35.736 57.851 32.3434 57.3143 28.9507 57.4009C26.4975 57.4701 24.0444 57.4874 21.6086 57.5913C19.6426 57.6779 17.694 57.903 15.7454 58.1627C14.11 58.3705 12.4746 58.6129 10.8391 58.8553C8.29897 59.2362 5.72403 59.5651 3.25347 60.3789C2.47055 60.6213 2.59234 59.9807 2.64454 59.7383ZM58.7887 113.586C58.6669 113.828 58.4756 113.915 58.232 113.949C56.8053 114.157 55.3787 114.538 53.9346 114.573C49.846 114.624 45.7574 114.971 41.6688 114.746C38.5545 114.573 35.4055 114.676 32.2738 114.659C27.6458 114.624 23.0179 114.573 18.3726 114.642C14.9973 114.694 11.6742 115.144 8.33377 115.49C7.56824 115.577 7.28987 115.456 7.22028 114.624C7.0463 112.443 6.9593 110.261 6.59394 108.097C6.54175 107.733 6.50695 107.404 6.33297 107.041C6.14159 106.66 5.985 106.123 6.45475 105.673C6.76792 105.361 6.73313 104.894 6.68093 104.444C6.28077 100.981 5.81102 97.518 5.53265 94.0378C5.18468 89.7612 4.74972 85.5019 4.48875 81.208C4.17558 76.031 3.77542 70.854 3.60144 65.6598C3.53185 63.5301 3.70583 63.1665 5.82842 62.6125C7.79442 62.093 9.83002 61.9545 11.8482 61.7814C14.0752 61.5909 16.2326 61.0195 18.4596 60.7598C22.235 60.3097 26.0278 60.4309 29.8206 60.3962C31.2647 60.3789 32.7087 60.3789 34.1528 60.327C36.2406 60.2577 38.311 60.5521 40.3814 60.5174C44.1394 60.4482 47.9148 60.6733 51.6728 60.2231C53.865 59.9634 56.0746 60.275 58.2668 59.9634C59.4673 59.7902 60.6851 59.7902 61.8334 59.3574C62.0944 59.2535 62.4076 59.1842 62.6859 59.2015C65.3131 59.4439 67.8358 58.7341 70.3934 58.3185C71.3503 58.1627 72.2898 57.9376 73.2815 57.9549C74.0644 57.9722 74.8473 57.6259 75.6302 57.4182C78.4836 56.691 81.3891 56.3101 84.2772 55.756C85.3385 55.5482 86.3824 55.2193 87.4785 54.9422C87.5828 57.574 88.1918 60.1019 88.4528 62.6817C88.8529 66.6294 89.3749 70.5597 89.9838 74.4727C90.1926 75.8059 90.123 77.1564 90.4014 78.455C90.7319 80.0652 91.1147 81.6754 91.2191 83.303C91.3235 85.121 91.6018 86.887 91.9498 88.6704C92.0716 89.3283 91.8802 89.64 91.2365 89.8997C87.635 91.3195 84.6599 93.5011 82.6765 96.8947C81.998 98.0547 81.3717 99.3013 81.4065 100.617C81.4587 103.128 80.5018 105.534 80.7279 108.028C80.7801 108.582 80.3974 108.53 80.0668 108.582C77.6658 108.859 75.2649 108.841 72.8639 108.893C69.9932 108.945 67.1225 109.032 64.3214 109.742C61.99 110.365 59.9196 111.3 58.7887 113.586ZM130.992 150.101C130.487 150.171 130.122 150.707 129.46 150.43C129.252 150.344 129.008 150.95 128.521 151.071C124.902 151.989 121.179 152.508 117.612 153.651C115.785 154.239 113.906 154.759 112.062 155.174C109.696 155.694 107.399 156.525 105.033 156.975C104.163 157.148 103.311 157.096 102.493 157.824C102.041 158.222 100.875 158.066 100.04 158.256C99.5354 158.378 99.0309 158.689 98.422 158.239C98.1958 158.066 97.5694 158.187 97.1867 158.43C96.4386 158.914 95.7252 159.157 94.7335 158.897C93.5852 158.585 92.3848 158.984 91.2191 159.261C90.8537 159.347 90.4883 159.434 90.123 159.555C88.5397 160.144 86.9043 160.299 85.2167 160.23C84.3468 160.196 83.4769 160.386 82.6069 160.473C82.5895 160.525 82.5895 160.576 82.5721 160.646C82.8157 160.698 83.0593 160.75 83.4421 160.819C82.1372 161.2 80.9193 161.286 79.7188 161.338C79.4405 161.356 79.1795 161.269 78.9011 161.027C78.1704 160.369 77.2483 160.802 76.4132 160.854C75.4911 160.905 74.5863 161.113 73.6816 161.286C73.0379 161.408 72.4116 161.234 71.7852 161.252C70.7239 161.286 69.68 161.044 68.6187 161.061C67.9228 161.079 67.2269 161.009 66.5483 160.905C65.5392 160.75 65.0173 160.196 64.9651 158.966C64.8607 156.733 64.4084 154.516 64.6867 152.266C64.7041 152.058 64.8259 151.798 64.4606 151.729C64.304 151.694 64.1822 151.469 64.2692 151.417C65.1391 150.915 64.4606 150.067 64.7911 149.391C64.9999 149.876 64.9999 150.361 64.9825 150.863C65.3827 150.69 65.4001 150.396 65.4349 150.119C65.4697 149.772 65.5044 149.426 65.5044 149.08C65.5044 144.111 65.7654 139.141 66.1656 134.207C66.3396 132.146 66.009 130.121 66.1308 128.078C66.1482 127.749 66.009 127.42 65.922 127.021C66.4614 127.073 66.8267 127.333 67.1747 127.61C67.8358 128.164 68.4796 128.753 69.1233 129.342C70.8457 130.917 72.5333 132.424 74.8125 133.307C77.5788 134.38 80.3278 135.332 83.3029 135.627C83.703 135.661 84.2076 135.869 84.5207 135.315C84.5729 135.211 84.9557 135.176 85.0949 135.246C86.0866 135.921 87.1131 135.367 88.1048 135.315C89.4793 135.263 90.8363 135.332 91.8628 136.302C93.8462 138.172 96.195 138.691 98.8047 138.639C100.318 138.605 101.815 138.518 103.259 138.051C105.346 137.358 106.912 136.094 107.678 133.982C107.834 133.566 108.061 133.428 108.478 133.376C114.098 132.614 118.969 130.259 123.11 126.398C124.833 124.788 126.503 123.126 127.877 121.187C128.069 120.927 128.312 120.754 128.591 120.823C128.921 120.892 128.817 121.221 128.852 121.481C128.973 122.693 128.956 123.922 128.991 125.134C129.199 130.588 129.774 135.99 130.626 141.375C130.713 141.894 131.339 142.171 131.165 142.777C130.696 144.405 131.322 145.894 131.774 147.4C131.896 147.816 131.983 148.231 132.035 148.664C132.14 149.409 131.896 149.963 130.992 150.101Z" fill="#020A13"/>
<path d="M153.661 88.4279C156.323 86.835 158.289 84.6707 159.925 82.1255C160.464 81.2771 161.003 80.4287 161.404 79.4764C161.96 78.1432 162.917 76.9658 163.056 75.4768C163.109 74.8708 163.631 74.5072 163.752 73.9705C163.961 73.1048 164.048 72.2044 164.066 71.3214C164.118 69.261 164.048 67.2179 163.613 65.1575C163.143 62.872 162.761 60.6039 161.804 58.4569C160.534 55.6174 158.55 53.2107 156.828 50.6655C155.662 48.9341 153.87 47.6182 152.235 46.3543C148.79 43.6879 144.841 41.766 140.526 40.7618C139.221 40.4501 138.02 39.9134 136.559 39.9999C131.479 40.3116 127.199 42.3547 123.371 45.5405C122.397 46.3543 121.631 47.4104 120.779 48.3627C119.839 49.4016 118.987 50.4577 118.378 51.7044C117.369 53.7648 116.342 55.8078 115.733 58.0587C114.846 61.3311 114.185 64.6208 114.289 67.8932C114.237 70.2133 114.428 72.4122 114.846 74.5592C115.977 80.5672 119.004 85.3633 124.189 88.6876C128.486 91.4406 133.271 92.8257 138.351 92.843C140.822 92.843 143.327 92.6352 145.78 91.8907C148.564 91.0423 151.156 89.9342 153.661 88.4279ZM142.353 90.09C138.769 90.8346 135.237 90.3151 131.844 89.259C125.929 87.4063 120.918 84.3071 118.691 78.1086C118.03 76.256 117.699 74.3168 117.49 72.3602C117.16 69.3476 117.09 66.3522 117.525 63.3222C118.465 56.6043 121.509 51.133 126.799 46.9083C129.808 44.5016 133.288 42.9433 137.203 43.2377C140.456 43.4801 143.605 44.467 146.511 46.0599C147.642 46.6832 148.912 47.22 149.869 47.9818C151.469 49.263 153.018 50.6482 154.444 52.1545C156.915 54.7517 158.568 57.8336 159.977 61.0021C161.021 63.3568 161.578 65.9193 161.682 68.378C161.543 69.6939 161.995 70.8366 161.665 72.014C161.282 73.3125 161.351 74.7323 160.638 75.9789C160.134 76.8793 159.768 77.8662 159.403 78.8358C158.655 80.8269 157.245 82.3852 155.958 84.0301C155.453 84.6707 154.671 84.5841 154.114 85.1382C152.061 87.1813 149.416 88.324 146.737 89.2936C145.415 89.7784 143.936 89.865 142.527 90.1247C142.474 90.09 142.405 90.0727 142.353 90.09Z" fill="#020A13"/>
<path d="M166.188 126.433C167.806 125.844 169.146 124.874 170.311 123.645C170.833 123.091 170.712 122.676 170.155 122.295C169.337 121.741 168.519 121.186 167.702 120.667C167.354 120.442 167.302 120.286 167.615 119.957C168.624 118.866 169.581 117.637 169.755 116.165C169.963 114.347 170.886 113.759 172.573 113.741C173.774 113.724 174.069 113.274 173.982 112.045C173.878 110.486 173.391 108.997 172.886 107.526C172.73 107.058 172.417 106.92 171.929 107.145C171.147 107.526 170.346 107.837 169.563 108.218C169.094 108.443 168.833 108.461 168.572 107.906C168.05 106.816 167.215 105.967 166.188 105.344C165.736 105.067 165.753 104.894 165.979 104.496C166.606 103.422 167.423 102.47 167.893 101.31C168.258 100.409 168.032 99.9419 167.145 99.6476C165.736 99.1974 164.326 98.7819 162.935 98.2971C162.43 98.1239 162.186 98.2624 161.978 98.6953C161.473 99.6995 160.916 100.686 160.429 101.691C160.238 102.106 160.046 102.245 159.577 102.106C158.881 101.916 158.133 101.933 157.419 102.02C156.932 102.072 156.689 101.95 156.584 101.431C156.393 100.496 156.132 99.5956 155.888 98.6607C155.627 97.6045 155.245 97.3967 154.201 97.6738C152.635 98.0893 151.139 98.6953 149.66 99.3532C148.912 99.6995 148.807 100.08 149.155 100.756C149.764 101.881 150.321 103.007 151.086 104.028C151.243 104.253 151.521 104.478 151.017 104.651C149.433 105.223 148.25 106.296 147.398 107.733C147.189 108.08 146.98 108.114 146.632 107.924C145.641 107.404 144.597 106.954 143.605 106.417C142.84 106.019 142.37 106.244 141.97 106.937C141.03 108.616 140.63 110.434 140.752 112.339C140.839 113.776 141.726 114.486 143.135 114.226C143.901 114.088 144.666 113.915 145.414 113.689C145.989 113.516 146.267 113.516 146.354 114.261C146.598 116.148 147.259 117.879 148.581 119.455C148.25 119.594 147.989 119.697 147.728 119.819C146.598 120.321 145.432 120.788 144.405 121.498C143.57 122.07 143.483 122.572 144.04 123.385C144.562 124.147 145.101 124.909 145.675 125.636C146.337 126.467 147.172 127.056 148.163 127.472C148.755 127.714 149.19 127.662 149.555 127.073C150.008 126.346 150.634 125.688 151.034 124.944C151.73 123.645 152.617 123.004 154.096 123.766C154.235 123.836 154.444 123.818 154.618 123.836C155.001 123.87 155.14 124.061 155.105 124.476C155.036 125.619 155.001 126.779 154.984 127.939C154.966 128.961 155.245 129.22 156.288 129.151C157.524 129.064 158.776 128.943 160.012 128.839C161.021 128.753 161.316 128.493 161.421 127.454C161.525 126.363 161.421 125.255 161.195 124.182C161.038 123.437 161.195 123.091 161.943 123.039C162.082 123.022 162.221 122.97 162.36 122.901C162.726 122.71 162.917 122.797 163.056 123.212C163.3 123.957 163.613 124.667 163.909 125.377C164.587 127.073 164.57 127.039 166.188 126.433ZM162.639 121.948C162.273 122.104 161.856 122.173 161.473 122.295C160.203 122.693 159.994 123.004 160.29 124.32C160.499 125.29 160.534 126.26 160.568 127.246C160.586 127.801 160.394 128.095 159.768 128.112C158.689 128.13 157.628 128.147 156.567 128.337C156.045 128.441 155.801 128.285 155.906 127.697C156.114 126.502 155.993 125.273 156.08 124.078C156.114 123.576 155.94 123.23 155.401 123.143C154.357 122.953 153.278 122.901 152.339 122.312C152.026 122.121 151.695 122.312 151.486 122.676C150.773 123.974 149.729 125.048 148.964 126.294C148.738 126.658 148.459 126.744 148.094 126.554C146.545 125.757 145.71 124.32 144.806 122.953C144.562 122.606 144.997 122.45 145.223 122.329C146.458 121.619 147.728 121.031 149.068 120.546C149.886 120.252 150.06 119.888 149.503 119.23C148.076 117.464 147.276 115.473 147.137 113.222C147.102 112.581 146.685 112.495 146.145 112.633C145.241 112.858 144.353 113.118 143.448 113.274C141.83 113.551 141.622 113.343 141.622 111.456C141.656 110.504 141.917 109.344 142.405 108.201C142.7 107.491 143.048 107.283 143.779 107.699C144.753 108.27 145.797 108.703 146.789 109.257C147.259 109.517 147.502 109.43 147.746 108.98C148.703 107.197 150.129 105.967 152.078 105.344C152.809 105.119 152.687 104.686 152.322 104.236C151.486 103.197 150.825 102.037 150.199 100.877C149.99 100.479 150.025 100.271 150.443 100.08C151.695 99.4917 153 99.0416 154.34 98.6434C154.792 98.5048 154.879 98.7819 154.984 99.1108C155.297 100.254 155.627 101.379 155.923 102.522C156.045 103.024 156.306 103.197 156.793 103.076C157.889 102.816 158.968 102.851 160.046 103.197C160.621 103.387 160.812 102.92 161.003 102.556C161.456 101.656 161.891 100.756 162.326 99.838C162.552 99.3359 162.848 99.1628 163.422 99.3879C164.448 99.7688 165.509 100.046 166.571 100.375C167.075 100.531 167.215 100.808 166.901 101.275C166.205 102.366 165.527 103.474 164.814 104.565C164.466 105.084 164.466 105.413 165.092 105.708C166.484 106.366 167.475 107.422 168.084 108.824C168.328 109.413 168.728 109.534 169.268 109.274C170.033 108.911 170.781 108.547 171.529 108.183C171.929 107.993 172.173 108.01 172.312 108.53C172.678 109.776 172.956 111.04 173.165 112.322C173.234 112.772 173.06 112.962 172.625 112.997C171.79 113.083 170.955 113.205 170.12 113.274C169.668 113.309 169.476 113.516 169.424 113.966C169.146 116.287 168.189 118.278 166.466 119.871C165.892 120.39 166.049 120.754 166.571 121.1C167.475 121.671 168.38 122.26 169.302 122.779C169.72 123.022 169.876 123.16 169.407 123.541C168.241 124.442 167.11 125.377 165.666 125.827C165.196 125.983 165.022 125.896 164.866 125.446C164.535 124.494 164.1 123.576 163.77 122.624C163.578 121.966 163.3 121.671 162.639 121.948Z" fill="#020A13"/>
<path d="M73.9077 101.31C74.3948 99.3359 74.9168 97.3621 75.4561 95.3883C76.326 92.1159 76.7088 88.7742 77.109 85.4499C77.1786 83.528 77.1786 83.528 75.2648 83.1817C75.0734 83.1471 74.8646 83.0952 74.6558 83.0952C73.9599 83.0952 73.7685 82.7489 73.7511 82.0736C73.7337 79.9959 73.6293 77.9182 73.5423 75.8578C73.5075 74.8536 73.3509 74.6804 72.3592 74.7324C71.0544 74.7843 69.7669 74.8882 68.462 74.9748C67.8183 75.0267 67.3659 74.9402 67.1398 74.1437C66.496 71.8236 65.7479 69.5208 65.052 67.218C64.6518 65.9368 64.53 65.8502 63.2947 66.3004C61.3113 67.0102 59.3279 67.7548 57.3445 68.4646C52.3512 70.2653 47.3579 72.066 42.3298 73.832C41.7035 74.0571 41.0772 74.4727 40.2768 74.2303C39.059 73.8494 38.0673 73.0702 36.919 72.5335C34.9878 71.6331 33.1436 70.7501 30.8818 70.8713C28.4808 70.9925 26.0799 70.8367 23.8007 71.789C22.5306 72.3257 21.2258 72.7586 20.1123 73.5897C19.8165 73.7974 19.9035 74.2822 19.4859 74.3342C18.4594 74.438 18.0071 75.2864 17.4851 75.979C16.3716 77.4507 15.4843 79.0783 14.771 80.7924C14.336 81.8139 14.0403 82.8355 13.9359 83.9089C13.5879 87.4584 13.7967 90.9039 15.4495 94.1936C16.4412 96.1847 17.4677 98.0547 19.2945 99.4571C20.6516 100.496 22.0609 101.466 23.6789 101.968C26.2886 102.781 28.9854 103.18 31.7343 102.903C32.7782 102.799 33.8221 102.695 34.8486 102.522C35.3705 102.435 35.8577 102.124 36.3796 102.089C38.8154 101.933 41.0076 100.998 43.165 99.9939C44.0523 99.5783 44.8004 98.9723 45.9487 99.1628C49.3413 99.7342 52.7514 100.254 56.1615 100.634C61.6593 101.24 67.1572 101.829 72.655 102.227C73.3857 102.227 73.7337 101.985 73.9077 101.31ZM67.5399 76.0136C68.984 75.979 70.428 75.8578 71.8547 75.7539C72.2896 75.7193 72.394 75.8578 72.4114 76.2734C72.481 78.1952 72.568 80.1344 72.6724 82.0563C72.6898 82.5238 72.568 82.645 72.0983 82.6277C70.1845 82.5411 70.1671 82.5584 70.0105 80.7058C69.8017 78.1952 70.1671 78.3684 67.3833 78.3164C65.7827 78.2991 64.1995 78.3164 62.1465 78.3164C58.5624 78.1779 54.5782 78.6627 50.5766 79.0436C49.2718 79.1648 47.9669 79.1129 46.6794 79.1475C45.8791 79.1648 45.4615 78.6627 45.044 78.1952C44.6786 77.7797 45.1658 77.7624 45.4267 77.7278C46.749 77.5719 48.0713 77.3988 49.3935 77.2776C52.734 77.0006 56.0745 76.7408 59.4323 76.4984C62.1117 76.2907 64.8084 76.0656 67.5399 76.0136ZM67.2963 79.5111C67.5225 79.5111 67.6791 79.4938 67.8183 79.5111C68.1141 79.5457 68.5664 79.338 68.6708 79.6496C68.81 80.0825 68.7926 80.6019 68.7404 81.0867C68.7056 81.3984 68.4272 81.2252 68.2706 81.1387C67.6443 80.8097 67.2963 80.2903 67.2963 79.5111ZM67.6443 82.0909C62.4596 82.2468 57.5011 81.0521 52.2469 80.1171C53.9345 79.7016 55.4133 79.7016 56.8748 79.5804C59.7629 79.338 62.651 79.2687 65.5391 79.3207C65.9741 79.3207 66.1655 79.4592 66.2177 79.8747C66.3394 80.8097 66.7744 81.5542 67.6443 82.0909ZM63.2252 74.4207C63.4861 74.4554 63.6775 74.5766 63.6601 74.8536C63.6427 75.1133 63.3991 75.0267 63.26 75.0267C58.6146 75.3211 53.9693 75.65 49.3413 76.0829C49.2022 76.1002 49.063 76.0656 48.715 76.0483C52.4208 74.7843 55.9179 73.5897 59.3975 72.395C59.7107 72.2911 59.9195 72.2911 60.1283 72.5681C60.8938 73.6243 61.9029 74.2649 63.2252 74.4207ZM60.8938 71.9621C62.477 71.2869 62.2161 70.9059 62.9816 73.1395C62.0073 73.0702 61.3983 72.6201 60.8938 71.9621ZM42.8692 74.9402C44.4524 74.3168 46.0531 73.7628 47.6537 73.1741C51.1334 71.9102 54.5956 70.6116 58.0927 69.4169C59.8499 68.8282 61.5723 68.1703 63.2774 67.495C63.6949 67.3392 63.9037 67.3738 64.0429 67.824C64.7214 70.0575 65.3999 72.2738 66.0959 74.5073C66.2872 75.096 65.9393 75.0614 65.5739 74.9921C65.2086 75.0267 64.9998 74.9575 64.8606 74.5592C64.4256 73.3126 63.9037 72.1006 63.4339 70.854C63.086 69.9363 62.9642 69.8671 62.0595 70.2134C57.0314 72.1872 51.8815 73.832 46.7142 75.4076C45.6877 75.7193 44.6612 75.979 43.6173 76.2387C42.8344 76.4292 42.469 76.1348 42.3124 75.5288C42.1559 74.9402 42.6778 75.0094 42.8692 74.9402ZM43.0084 96.1155C42.0863 96.8254 41.0076 97.1716 40.0507 97.7603C39.5461 98.072 39.0068 98.2278 38.4326 98.401C37.2843 98.7646 36.1535 99.1108 34.9704 99.3532C33.161 99.7341 31.3341 99.7515 29.4899 99.6822C28.446 99.6476 27.4195 99.4917 26.4452 99.1801C24.7576 98.626 23.0526 98.0374 21.8695 96.5656C21.5911 96.202 21.2258 95.8211 20.7038 95.7172C20.6342 95.6999 20.5124 95.6653 20.495 95.6134C19.8165 93.7954 18.2333 92.3929 17.9723 90.4191C17.7113 88.4453 17.5199 86.4714 17.9723 84.463C18.2854 83.0779 18.9118 81.9005 19.5207 80.6539C20.4602 78.7493 22.0087 77.468 23.6789 76.3772C25.6623 75.0787 27.9067 74.4034 30.3598 74.6631C30.8644 74.7151 31.3863 74.9228 31.8561 74.5073C31.9779 74.4034 32.1171 74.3515 32.2389 74.49C32.7086 75.044 33.4567 74.9055 34.0309 75.2345C35.4923 76.0656 37.18 76.3946 38.5892 77.3988C40.7292 78.9224 42.6082 80.6365 43.8609 82.974C44.0001 83.2337 44.2437 83.2337 44.4002 83.3722C45.2006 84.0301 45.2354 85.069 45.6355 85.9001C45.9661 86.5926 46.2793 87.3891 46.5228 88.1856C46.6794 88.7569 46.8882 89.2764 46.8186 89.865C47.1144 89.6919 47.184 89.8477 47.1666 90.1074C47.1318 90.4364 47.2536 90.8 46.9926 91.1117C46.0705 93.1201 44.7482 94.765 43.0084 96.1155ZM71.9939 100.998C68.6186 100.669 65.2608 100.392 61.8855 100.08C58.5798 99.7861 55.2742 99.3532 51.9859 98.9031C50.0721 98.6434 48.1583 98.349 46.0705 98.0374C46.7664 97.414 47.2883 97.1543 48.1235 97.2928C51.4813 97.8815 54.8566 98.4529 58.2319 98.8511C61.3288 99.2147 64.443 99.5437 67.5747 99.6303C68.6534 99.6649 69.7147 99.6995 70.7934 99.7861C71.3849 99.838 71.6807 99.6649 71.8547 99.0589C73.0552 95.1459 74.0991 91.2155 74.7254 87.1813C74.8298 86.5407 74.5688 86.3676 74.0121 86.2637C71.037 85.6923 68.0271 85.2594 65.0172 84.8439C60.424 84.2033 55.7787 84.2725 51.1682 83.9955C50.4722 83.9609 49.7763 83.8743 49.0978 83.7877C48.8194 83.7531 48.6106 83.6146 48.4366 83.3376C47.8973 82.4545 47.4797 81.5369 46.9752 80.5673C47.7581 80.4807 48.4888 80.6712 49.2022 80.7924C53.5343 81.5196 57.8491 82.3507 62.1987 82.9913C64.5474 83.3376 66.931 83.3722 69.2971 83.5107C71.3849 83.6492 73.4379 83.9609 75.4909 84.3418C76.1695 84.463 76.0477 84.8785 75.9955 85.2941C75.7171 87.7527 75.3691 90.194 74.8124 92.618C74.2209 95.1459 73.6467 97.6738 73.1248 100.202C72.9682 100.894 72.6376 101.05 71.9939 100.998ZM47.8103 96.0808C48.0191 95.7346 48.1931 95.319 48.4888 95.4056C48.7672 95.4922 48.8368 95.925 48.9238 96.3232C48.541 96.2367 48.2105 96.1674 47.8103 96.0808ZM55.5525 85.4153C57.4141 85.3287 59.3627 85.4845 61.3113 85.623C64.0777 85.8308 66.8266 86.229 69.5581 86.5926C70.0627 86.6619 70.2888 86.7312 70.2715 87.3545C70.2193 88.8781 71.0892 89.9343 72.5854 90.2286C73.0552 90.3152 73.177 90.5057 73.0726 90.9212C72.568 92.6526 72.2896 94.4533 71.7329 96.1847C71.5937 96.6003 71.4023 96.7042 71.0022 96.6868C69.8191 96.6868 68.723 96.9812 67.8183 97.8123C66.7918 98.7646 65.5217 98.4356 64.356 98.3317C61.7985 98.1066 59.241 97.8123 56.6834 97.5179C55.8831 97.4314 55.0828 97.2755 54.2825 97.1543C56.318 93.3798 57.6055 89.6053 55.5525 85.4153ZM71.2632 87.3891C71.3153 86.8004 71.6981 87.1294 71.9591 87.0948C72.0113 87.0948 72.0809 87.0948 72.1331 87.1121C73.6641 87.2852 73.8033 87.5276 73.2814 88.982C73.177 89.2764 73.0204 89.2244 72.829 89.2244C71.9417 89.1898 71.1936 88.3068 71.2632 87.3891ZM71.1762 97.7084C70.9848 98.8165 70.3758 98.9896 68.9144 98.4529C69.5929 98.02 70.341 97.795 71.1762 97.7084ZM54.0737 95.2151C54.0041 95.371 53.9171 95.5268 53.8127 95.6653C53.3951 96.254 52.995 96.9639 52.1251 96.7907C51.0464 96.5656 49.9677 96.3752 49.4979 95.042C49.0804 93.8819 49.8459 93.0682 50.0199 92.0986C50.1243 91.4406 50.2113 90.8173 50.0895 90.1421C49.8111 88.705 51.4639 86.2117 52.8732 85.9174C53.7779 85.7269 54.5434 86.1078 54.8914 86.9909C55.2394 87.8566 55.2568 88.7916 55.2915 89.7092C55.3263 91.6311 54.8218 93.4491 54.0737 95.2151ZM49.5675 87.5796C49.5327 86.6446 48.6628 85.8481 49.4631 85.1729C49.9851 84.74 50.7332 85.3287 51.4291 85.2594C50.6984 85.9001 50.2287 86.6965 49.5675 87.5796Z" fill="#020A13"/>
<path d="M13.4138 57.1585C14.075 57.1412 14.6143 56.8468 14.9971 56.3101C15.345 55.8253 15.6234 55.3578 15.78 54.7345C15.954 54.0419 15.2928 53.8168 15.2928 53.2455C15.2754 52.5529 14.4751 52.6741 13.9532 52.6048C12.5091 52.5183 11.0303 53.9034 11.0651 54.544C11.0999 55.808 12.3351 57.1931 13.4138 57.1585Z" fill="#FDFFB6"/>
<path d="M18.7031 56.1888C19.921 56.7948 21.6608 55.6694 21.8348 54.2323C21.9044 53.6955 21.4868 53.4185 21.4172 53.1588C21.4868 52.4662 21.4346 52.397 20.9822 52.1373C20.0427 51.6005 19.399 51.7044 18.3029 52.5528C17.1894 53.4531 17.4156 55.5482 18.7031 56.1888Z" fill="#06D6A0"/>
<path d="M9.01242 54.492C9.2212 53.7129 8.75145 53.5224 8.31649 53.2627C7.06382 52.5009 6.35049 53.609 5.61976 54.215C5.01082 54.7171 4.87163 55.5828 5.15001 56.3966C5.42838 57.2277 6.07211 57.6605 6.78544 57.7817C7.72495 57.7817 8.82104 56.8294 9.06462 56.0157C9.2386 55.4616 8.90803 54.8902 9.01242 54.492Z" fill="#FE0E11"/>
<path d="M93.2547 115.126C93.2373 115.126 93.2547 115.178 93.2373 115.3C93.5505 115.23 93.8811 115.386 94.1594 115.144C94.1942 115.109 94.1942 114.936 94.1768 114.919C93.8289 114.798 93.5505 114.988 93.2547 115.126Z" fill="#020A13"/>
<path d="M146.024 62.9413C145.206 62.924 144.928 63.4607 144.458 63.9109C143.31 65.019 142.283 66.231 141.187 67.3911C140.508 68.0836 139.795 68.707 138.943 69.5034C138.943 68.6896 138.995 68.049 138.925 67.4257C138.612 64.4303 138.977 61.435 138.925 58.4569C138.89 57.0025 139.064 55.5308 138.734 54.0764C138.595 53.4704 138.368 52.8644 137.638 52.7952C136.942 52.7259 136.629 53.2973 136.368 53.7994C135.898 54.6824 135.811 55.6693 135.846 56.6562C135.95 59.2361 136.141 61.8332 136.176 64.413C136.228 67.1314 136.455 69.8324 136.698 72.5507C136.768 73.3472 137.255 73.6069 138.003 73.2952C139.778 72.568 141.03 71.1309 142.492 69.9709C143.501 69.1744 144.145 68.0317 145.119 67.166C145.937 66.4561 146.772 65.6943 147.189 64.6208C147.642 63.5646 147.155 62.9759 146.024 62.9413Z" fill="#020A13"/>
<path d="M121.892 69.9709C122.118 68.7416 121.335 69.1225 120.761 69.1571C120.413 69.1745 120.135 69.5381 119.7 69.3649C119.23 69.1745 118.674 69.1745 118.378 69.6593C118.099 70.1094 117.769 70.6635 118.047 71.2002C118.343 71.7543 118.865 72.0833 119.422 71.9621C120.309 71.9621 120.901 71.4773 121.614 71.3907C121.788 71.3734 121.875 71.2002 121.944 71.0271C122.136 70.6289 121.84 70.196 121.892 69.9709Z" fill="#020A13"/>
<path d="M158.029 70.3692C159.212 70.3519 159.995 69.6939 159.942 68.7763C159.908 68.2049 158.846 67.3911 158.15 67.4258C157.28 67.4604 156.271 68.2049 156.254 68.8455C156.254 69.2957 157.489 70.3865 158.029 70.3692Z" fill="#020A13"/>
<path d="M141.726 87.7353C141.883 87.4064 141.761 87.0601 141.465 86.8004C141.17 86.5406 140.787 86.3675 140.474 86.2117C140.073 86.0212 139.412 86.8696 139.377 87.5276C139.36 87.7353 139.395 87.9258 139.412 88.1335C139.203 88.7395 139.447 89.207 139.882 89.6399C140.387 90.1593 140.891 90.1939 141.483 89.813C142.022 89.4494 142.3 89.0858 141.813 88.4625C141.691 88.2894 141.604 88.0297 141.726 87.7353Z" fill="#020A13"/>
<path d="M137.725 47.9646C138.02 47.4625 137.898 46.06 137.498 45.6618C136.976 45.1597 135.915 45.0385 135.637 45.4713C135.184 46.1812 134.993 46.943 135.411 47.7395C135.724 48.3282 136.35 48.2589 136.872 48.3628C137.272 48.4667 137.516 48.3109 137.725 47.9646Z" fill="#020A13"/>
<path d="M160.308 109.222C158.463 108.634 155.645 110.002 154.984 111.802C154.549 112.997 154.844 114.174 155.819 115.005C156.689 115.767 157.767 115.975 158.655 116.044C160.986 116.062 162.256 114.919 162.621 112.668C162.865 111.335 161.752 109.69 160.308 109.222ZM160.882 114.642C159.786 115.559 156.897 115.144 156.115 113.949C155.697 113.309 155.767 112.287 156.289 111.594C156.828 110.885 158.324 110.123 159.229 110.123C160.395 110.123 161.264 110.711 161.647 111.733C162.047 112.755 161.717 113.932 160.882 114.642Z" fill="#020A13"/>
<path d="M46.8186 89.8823C46.8882 89.2936 46.6969 88.7742 46.5229 88.2028C46.2967 87.4064 45.9835 86.6099 45.6356 85.9174C45.2354 85.0863 45.2006 84.0474 44.4003 83.3895C44.2437 83.251 44.0001 83.251 43.8609 82.9912C42.6257 80.6538 40.7293 78.9397 38.5893 77.4161C37.18 76.4291 35.4924 76.0829 34.0309 75.2518C33.4568 74.9228 32.7087 75.0613 32.2389 74.5073C32.1171 74.3688 31.9779 74.4207 31.8562 74.5246C31.4038 74.9401 30.8644 74.7324 30.3599 74.6804C27.9241 74.4207 25.6624 75.0786 23.679 76.3945C22.0087 77.4853 20.4777 78.7666 19.5208 80.6711C18.9119 81.9178 18.2855 83.0951 17.9723 84.4803C17.52 86.4887 17.7114 88.4625 17.9723 90.4364C18.2333 92.4102 19.8166 93.8126 20.4951 95.6306C20.5125 95.6826 20.6343 95.7172 20.7039 95.7345C21.2258 95.8384 21.5738 96.2366 21.8696 96.5829C23.0526 98.0719 24.7403 98.6433 26.4453 99.1974C27.4196 99.509 28.4287 99.6649 29.49 99.6995C31.3342 99.7687 33.161 99.7514 34.9704 99.3705C36.1361 99.1281 37.2844 98.7818 38.4327 98.4182C38.9894 98.2451 39.5462 98.072 40.0507 97.7776C41.0076 97.1889 42.1037 96.8426 43.0084 96.1328C44.7483 94.7822 46.0705 93.1201 46.9926 91.1463C46.5577 90.7653 46.5577 90.3498 46.8186 89.8823ZM36.0665 92.3756C35.2836 93.449 34.3963 94.2628 33.1436 94.7476C32.6391 94.9381 32.8305 95.6306 32.7609 96.0808C32.5695 97.2409 32.4303 97.466 31.4038 97.5698C30.5165 97.6564 29.9945 97.2928 29.751 96.3578C29.6466 95.925 29.1768 95.5441 29.5074 95.0766C27.872 94.8342 26.4627 94.2801 25.4362 92.9989C24.8968 92.3236 25.036 91.2675 25.6798 90.6441C26.2539 90.0901 27.4022 90.0901 28.0459 90.6441C29.4204 91.8042 30.7427 91.8734 32.4129 91.0597C32.7609 90.8865 32.6565 90.6788 32.7435 90.4883C32.8478 90.2286 32.6043 90.142 32.4303 90.0555C32.0649 89.865 31.6822 89.8131 31.2646 89.7611C28.6375 89.4841 26.5845 88.2721 25.4014 85.8827C25.0186 85.1209 24.6359 84.2032 24.8969 83.3375C25.297 82.0043 25.9929 80.7923 27.3848 80.221C27.785 80.0478 28.0285 79.9266 27.9241 79.3726C27.8198 78.8185 28.7941 77.8143 29.3682 77.7277C30.1685 77.6238 30.8471 77.797 31.2124 78.6281C31.3864 79.0263 31.5082 79.4765 32.2215 79.4418C32.7261 79.4245 32.9696 80.0825 33.0914 80.6192C33.422 81.987 32.6043 83.0259 31.2124 83.0259C30.6731 83.0259 30.1337 82.9047 29.6292 83.1817C29.4552 83.2683 29.1768 83.3895 29.3682 82.9739C29.2116 82.9739 29.055 82.87 28.9158 83.0259C28.3417 83.6319 28.4983 84.4283 29.2638 84.8439C29.9423 85.2248 30.6557 85.623 31.4038 85.6403C32.4303 85.675 33.161 86.2983 34.0135 86.6792C34.866 87.0601 35.3184 87.8392 35.9621 88.4452C37.0582 89.4841 36.9538 91.1463 36.0665 92.3756Z" fill="#FBFF12"/>
<path d="M56.6664 97.5179C59.224 97.8122 61.7815 98.1066 64.339 98.3317C65.5221 98.4355 66.7748 98.7645 67.8013 97.8122C68.706 96.9811 69.8021 96.6695 70.9852 96.6868C71.4027 96.6868 71.5767 96.6002 71.7159 96.1847C72.29 94.4533 72.551 92.6699 73.0556 90.9212C73.1774 90.5056 73.0382 90.3152 72.5684 90.2286C71.0548 89.9343 70.1849 88.8781 70.2544 87.3544C70.2718 86.7311 70.0457 86.6619 69.5411 86.5926C66.7922 86.229 64.0433 85.8481 61.2943 85.623C59.3457 85.4672 57.3971 85.3113 55.5355 85.4152C57.5885 89.6053 56.301 93.3798 54.248 97.1543C55.0658 97.2755 55.8661 97.4313 56.6664 97.5179ZM63.6953 90.4191C64.3738 90.4537 64.948 91.0943 64.9306 91.8215C64.9132 92.618 64.1825 93.3278 63.4169 93.2932C62.7036 93.2586 62.0599 92.4968 62.0947 91.7349C62.1469 91.077 62.9646 90.4017 63.6953 90.4191Z" fill="#00B1B1"/>
<path d="M73.1075 100.202C73.6295 97.6737 74.2036 95.1458 74.7952 92.618C75.3693 90.2113 75.7173 87.7527 75.9782 85.294C76.0304 84.8785 76.1522 84.463 75.4737 84.3418C73.4207 83.9609 71.3677 83.6492 69.2799 83.5107C66.9137 83.3549 64.5302 83.3202 62.1814 82.9913C57.8318 82.3506 53.5171 81.5195 49.1849 80.7923C48.4716 80.6711 47.7582 80.4807 46.9579 80.5673C47.4625 81.5369 47.88 82.4718 48.4194 83.3375C48.5934 83.6319 48.8021 83.7531 49.0805 83.7877C49.7765 83.8743 50.455 83.9609 51.1509 83.9955C55.7615 84.2725 60.4068 84.2033 64.9999 84.8439C68.0098 85.2594 71.0197 85.675 73.9948 86.2636C74.5342 86.3675 74.7952 86.5407 74.7082 87.1813C74.0818 91.2155 73.0379 95.1632 71.8375 99.0589C71.6635 99.6475 71.3503 99.8207 70.7762 99.7861C69.7149 99.6995 68.6362 99.6475 67.5575 99.6302C64.4258 99.5437 61.3115 99.2147 58.2146 98.8511C54.8219 98.4702 51.4641 97.8815 48.1062 97.2928C47.2711 97.137 46.7492 97.414 46.0532 98.0373C48.141 98.349 50.0548 98.6433 51.9686 98.903C55.2569 99.3532 58.5626 99.7861 61.8682 100.08C65.2435 100.375 68.6188 100.669 71.9766 100.998C72.6378 101.05 72.9683 100.894 73.1075 100.202Z" fill="#00B1B1"/>
<path d="M49.359 77.2776C48.0367 77.3815 46.7145 77.5546 45.3922 77.7278C45.1486 77.7624 44.6441 77.7624 45.0094 78.1953C45.427 78.6801 45.8446 79.1822 46.6449 79.1475C47.9498 79.1129 49.2546 79.1649 50.5421 79.0437C54.5437 78.6627 58.5453 78.1606 62.1119 78.3165C64.1649 78.3165 65.7482 78.2991 67.3488 78.3165C70.1325 78.3684 69.7672 78.1953 69.976 80.7058C70.1325 82.5584 70.1499 82.5411 72.0637 82.6277C72.5335 82.645 72.6553 82.5065 72.6379 82.0563C72.5335 80.1344 72.4465 78.2126 72.3769 76.2734C72.3595 75.8752 72.2551 75.7193 71.8202 75.754C70.3761 75.8578 68.9321 75.9964 67.5054 76.0137C64.7913 76.0656 62.0771 76.2907 59.363 76.4985C56.0399 76.7409 52.6995 77.0006 49.359 77.2776Z" fill="#00B1B1"/>
<path d="M43.6175 76.2387C44.6614 75.979 45.6878 75.7193 46.7143 75.4077C51.8816 73.8321 57.0315 72.2045 62.0596 70.2134C62.9643 69.8498 63.1035 69.9191 63.4341 70.854C63.9038 72.0833 64.4258 73.3126 64.8607 74.5593C64.9999 74.9575 65.2087 75.0267 65.5741 74.9921C65.9394 75.0614 66.27 75.096 66.096 74.5073C65.4001 72.2911 64.7042 70.0576 64.043 67.824C63.9038 67.3739 63.7125 67.3219 63.2775 67.4951C61.5551 68.1703 59.8326 68.8283 58.0928 69.4169C54.5958 70.6116 51.1335 71.9102 47.6539 73.1741C46.0532 73.7455 44.4526 74.3169 42.8693 74.9402C42.6779 75.0094 42.156 74.9402 42.3126 75.5289C42.4692 76.1522 42.8519 76.4465 43.6175 76.2387Z" fill="#00B1B1"/>
<path d="M54.874 86.9909C54.5087 86.1079 53.7605 85.727 52.8558 85.9174C51.4292 86.2291 49.7763 88.705 50.0721 90.1421C50.2113 90.8001 50.1243 91.4234 50.0025 92.0986C49.8459 93.0682 49.063 93.882 49.4806 95.0421C49.9677 96.3753 51.029 96.5657 52.1077 96.7908C52.9776 96.964 53.3778 96.2541 53.7953 95.6654C53.8997 95.5269 53.9867 95.371 54.0563 95.2152C54.8044 93.4492 55.309 91.6485 55.2742 89.7093C55.2394 88.7916 55.2394 87.8566 54.874 86.9909Z" fill="#00B1B1"/>
<path d="M66.2179 79.8747C66.1657 79.4592 65.9743 79.338 65.5393 79.3207C62.6512 79.2687 59.7457 79.338 56.875 79.5804C55.4136 79.7016 53.9347 79.6843 52.2471 80.1171C57.5013 81.0521 62.4598 82.2468 67.6445 82.0909C66.7746 81.5542 66.3397 80.8097 66.2179 79.8747Z" fill="#00B1B1"/>
<path d="M60.111 72.5855C59.9022 72.2911 59.6934 72.3085 59.3803 72.4123C55.9006 73.607 52.4036 74.8017 48.6978 76.0656C49.0457 76.083 49.1849 76.1176 49.3241 76.1003C53.952 75.6674 58.5974 75.3384 63.2427 75.0441C63.3993 75.0268 63.6254 75.1134 63.6428 74.871C63.6602 74.5939 63.4515 74.4727 63.2079 74.4381C61.903 74.265 60.8939 73.6243 60.111 72.5855Z" fill="#FDFFB6"/>
<path d="M73.2814 88.9819C73.8034 87.5448 73.6468 87.2851 72.1332 87.112C72.081 87.112 72.0114 87.112 71.9592 87.0946C71.6982 87.112 71.3154 86.783 71.2632 87.389C71.1763 88.2893 71.9244 89.1897 72.8291 89.207C73.0205 89.2243 73.1771 89.2763 73.2814 88.9819Z" fill="#FDFFB6"/>
<path d="M49.4634 85.1729C48.6631 85.8308 49.533 86.6446 49.5678 87.5795C50.2289 86.7138 50.6987 85.9174 51.4294 85.2594C50.7335 85.3287 49.9854 84.74 49.4634 85.1729Z" fill="#FDFFB6"/>
<path d="M60.894 71.9621C61.3986 72.6373 62.0249 73.0875 62.9818 73.1394C62.2163 70.9059 62.4773 71.2868 60.894 71.9621Z" fill="#FDFFB6"/>
<path d="M68.2707 81.1386C68.4273 81.2252 68.7056 81.3983 68.7404 81.0867C68.7926 80.6192 68.81 80.0998 68.6708 79.6496C68.5665 79.3379 68.1141 79.5457 67.8183 79.5111C67.6791 79.4938 67.54 79.5111 67.2964 79.5111C67.2964 80.2902 67.6443 80.8097 68.2707 81.1386Z" fill="#FDFFB6"/>
<path d="M71.1763 97.7084C70.3586 97.7949 69.6105 98.02 68.9146 98.4529C70.3586 98.9896 70.9849 98.7992 71.1763 97.7084Z" fill="#E4E8F2"/>
<path d="M48.4891 95.4055C48.1933 95.3189 48.0367 95.7345 47.8105 96.0808C48.2107 96.1673 48.5413 96.2366 48.924 96.3232C48.8196 95.9249 48.7675 95.4921 48.4891 95.4055Z" fill="#F0F2F7"/>
<path d="M46.9928 91.129C47.2364 90.8346 47.132 90.471 47.1668 90.1248C47.1842 89.8824 47.1146 89.7265 46.8188 89.8824C46.9232 90.2979 46.871 90.7134 46.9928 91.129Z" fill="#91994D"/>
<path d="M46.9927 91.1289C46.8709 90.7307 46.9231 90.2979 46.8187 89.8823C46.5578 90.3498 46.5578 90.7653 46.9927 91.1289Z" fill="#91994D"/>
<path d="M34.014 86.6966C33.1614 86.3156 32.4307 85.6923 31.4042 85.6577C30.6561 85.6231 29.9428 85.2422 29.2642 84.8612C28.4987 84.4284 28.3595 83.6492 28.9163 83.0432C29.0729 82.8874 29.212 82.9913 29.3686 82.9913C29.1946 83.4068 29.4556 83.2856 29.6296 83.1991C30.1341 82.922 30.6909 83.0432 31.2128 83.0432C32.6047 83.0606 33.4224 82.0217 33.0918 80.6366C32.9701 80.1171 32.7265 79.4419 32.2219 79.4592C31.5086 79.4938 31.4042 79.0263 31.2128 78.6454C30.8301 77.797 30.1689 77.6239 29.3686 77.7451C28.7945 77.8317 27.8376 78.8359 27.9246 79.3899C28.029 79.944 27.7854 80.0652 27.3852 80.2383C25.976 80.8097 25.2974 82.0217 24.8973 83.3549C24.6363 84.2033 25.0191 85.121 25.4018 85.9001C26.5849 88.2895 28.6379 89.5015 31.265 89.7785C31.6826 89.8131 32.0654 89.8824 32.4307 90.0728C32.6047 90.1594 32.8483 90.246 32.7439 90.5057C32.6569 90.6961 32.7613 90.9039 32.4133 91.0771C30.7431 91.8908 29.4208 91.8216 28.0464 90.6615C27.3852 90.1075 26.2369 90.1075 25.6802 90.6615C25.0365 91.2848 24.8973 92.341 25.4366 93.0163C26.4631 94.2802 27.8724 94.8516 29.5078 95.094C29.1772 95.5788 29.647 95.9424 29.7514 96.3752C29.995 97.3102 30.5169 97.6738 31.4042 97.5872C32.4307 97.4833 32.5525 97.2409 32.7613 96.0982C32.8309 95.648 32.6569 94.9554 33.144 94.765C34.3967 94.2802 35.284 93.4837 36.067 92.3929C36.9543 91.1809 37.076 89.5188 35.9626 88.4799C35.3188 87.8566 34.8665 87.0602 34.014 86.6966Z" fill="#020A13"/>
<path d="M63.4338 93.2933C64.1993 93.3279 64.9301 92.618 64.9475 91.8216C64.9649 91.1117 64.3733 90.4538 63.7122 90.4191C62.9815 90.3845 62.1637 91.0597 62.1289 91.735C62.0768 92.4968 62.7205 93.276 63.4338 93.2933Z" fill="#33509C"/>
</g>
<defs>
<clipPath id="clip0">
<rect width="174" height="127" fill="white" transform="translate(0 40)"/>
</clipPath>
</defs>
</svg>
