<svg width="226" height="184" viewBox="0 0 226 184" fill="none" xmlns="http://www.w3.org/2000/svg">
<path d="M178.354 29.5187C178.9 29.1541 178.576 28.4329 178.697 27.789C178.758 27.5189 178.82 27.2489 178.882 26.9789C178.985 26.9769 179.064 26.9694 179.167 26.9674C179.278 27.3809 179.42 27.7755 179.458 28.1721C179.598 30.0395 179.634 31.9088 179.804 33.7574C179.875 34.575 180.097 35.4019 180.326 36.2044C180.684 37.4505 181.975 37.8788 182.985 37.9578C183.162 37.9728 183.353 37.8104 183.582 37.7084C183.864 38.1615 184.307 38.1349 184.791 38.0403C185.167 37.9723 185.542 37.9042 185.914 37.9645C186.115 37.9852 186.26 38.2514 186.433 38.3949C186.277 38.5139 186.153 38.7178 185.99 38.7575C185.204 38.9371 184.404 39.062 183.599 39.2114C180.827 39.7579 179.259 42.2376 179.171 44.8793C179.126 46.3163 179.13 47.7646 179.055 49.2204C179.048 49.4772 178.797 49.6774 178.643 49.9003C178.542 49.67 178.38 49.4774 178.357 49.2395C178.178 47.88 178.139 46.4752 177.821 45.161C177.298 42.9463 175.39 41.0567 172.89 40.6326C172.744 40.5986 172.58 40.6383 172.469 40.561C172.223 40.4005 172.013 40.1967 171.797 40.0173C171.999 39.8058 172.164 39.5338 172.398 39.4073C173.312 38.8953 174.314 38.5589 175.147 37.9506C177.268 36.4262 178.282 34.2318 178.506 31.6731C178.524 31.3672 178.572 31.0424 178.566 30.7309C178.522 30.3589 178.424 30.0002 178.354 29.5187ZM182.194 38.8342C181.189 38.3945 180.118 38.0172 179.707 36.8881C179.372 35.8799 179.12 34.8395 178.871 33.903C178.537 35.1437 178.002 36.3637 177.036 37.3288C176.076 38.2695 175.017 39.0836 174.121 39.8581C174.859 40.3393 175.78 40.8111 176.474 41.4888C177.192 42.1721 177.708 43.067 178.33 43.8316C179.283 41.0027 179.426 40.829 182.194 38.8342Z" fill="black"/>
<path fill-rule="evenodd" clip-rule="evenodd" d="M114.351 4.6189C131.354 9.41542 139.915 27.3162 154.929 36.6158C171.867 47.1077 195.435 46.2432 207.331 62.212C221.025 80.5946 231.716 106.459 222.627 127.494C213.524 148.561 184.967 150.835 164.516 161.302C147.903 169.806 132.89 180.719 114.351 182.917C93.9057 185.34 72.7693 184.197 54.7148 174.317C35.0815 163.573 17.1493 147.403 10.4679 126.069C3.81764 104.835 11.9044 82.5238 19.4047 61.5741C26.6929 41.2168 34.246 18.9418 52.8077 7.80726C70.8572 -3.02008 94.0872 -1.09758 114.351 4.6189Z" fill="#89D8F5"/>
<g clip-path="url(#clip0)">
<path d="M152.132 41C152.132 41.0237 152.132 41.0474 152.144 41.0593C152.523 41.4032 153.199 41.5336 153.044 42.2569C152.926 42.7668 152.914 43.2885 152.736 43.7984C152.44 44.664 152.298 45.5889 152.108 46.502C151.823 47.8538 151.503 49.1818 151.124 50.5099C150.911 51.2688 150.84 52.0632 150.733 52.8458C150.662 53.3439 150.508 53.747 149.998 53.9486C149.476 54.1502 149.061 53.9723 148.694 53.6403C147.758 52.8221 146.738 52.1107 145.754 51.3518C145.505 51.1621 145.422 51.1858 145.209 51.4111C143.241 53.4269 141.428 55.585 139.555 57.6838C137.291 60.2095 134.932 62.6285 132.513 64.9881C130.984 66.4822 129.396 67.9051 127.819 69.3399C125.863 71.1186 123.872 72.8735 121.786 74.4743C119.676 76.087 117.613 77.7708 115.468 79.3241C114.993 79.668 114.507 79.9881 114.021 80.3083C112.575 81.2569 111.342 82.5138 109.849 83.3913C108.213 84.3518 106.696 85.4783 105.084 86.4743C103.993 87.1502 102.95 87.9091 101.812 88.4783C99.7375 89.498 97.9357 90.9565 95.8731 91.9881C92.6726 93.6008 89.5313 95.3439 86.3307 96.9565C82.4664 98.9012 78.4953 100.632 74.548 102.435C70.1858 104.415 65.7643 106.229 61.3783 108.138C57.8933 109.656 54.3727 111.055 50.8284 112.419C49.963 112.751 49.3111 112.455 48.9317 111.565C48.6828 110.984 49.0503 110.344 49.8208 109.988C53.0332 108.518 56.3404 107.308 59.5884 105.921C63.3342 104.308 67.1037 102.767 70.8022 101.071C73.7301 99.7312 76.7054 98.4387 79.5859 97.004C81.7196 95.9486 83.8059 94.7747 85.987 93.8142C87.9192 92.9605 89.6498 91.7747 91.5583 90.8854C94.095 89.6996 96.5251 88.3241 98.9551 86.9486C101.753 85.3597 104.526 83.7115 107.217 81.921C109.244 80.581 111.295 79.2767 113.239 77.83C115.065 76.4783 116.89 75.1265 118.609 73.6561C120.837 71.747 123.149 69.9328 125.377 68.0237C126.338 67.2055 127.25 66.3399 128.199 65.498C129.313 64.502 130.427 63.5178 131.541 62.5217C131.743 62.3439 131.909 62.1186 132.099 61.9051C132.312 61.6561 132.49 61.336 132.751 61.1462C134.114 60.1383 135.074 58.751 136.247 57.5534C136.532 57.2688 136.852 57.0435 137.172 56.8063C138.298 55.9526 139.021 54.7194 139.958 53.6996C141.084 52.4664 142.091 51.1383 143.277 49.9644C143.727 49.5138 143.704 49.4783 143.099 49.17C141.795 48.4941 140.384 48.0553 139.104 47.3083C138.618 47.0237 138.274 46.7154 138.286 46.1225C138.298 45.5296 138.606 45.1265 139.128 44.8775C139.65 44.6166 140.218 44.5336 140.764 44.3676C142.779 43.751 144.806 43.1937 146.797 42.5059C148.291 41.9842 149.868 41.5217 151.42 41C151.657 41 151.895 41 152.132 41Z" fill="black"/>
<path d="M33.0948 134.451H33.0474L33 134.439C33 133.217 33 131.984 33 130.763C33.0237 130.727 33.0593 130.727 33.0948 130.751C33.403 131.285 33.403 133.905 33.0948 134.451Z" fill="#92A2CB"/>
<path d="M151.053 146.534C151.017 143.925 151.053 141.316 150.922 138.719C150.816 136.561 150.875 134.415 150.828 132.269C150.816 131.759 150.721 131.249 150.709 130.739C150.626 128.593 150.602 126.447 150.46 124.312C150.365 122.818 150.235 121.312 150.282 119.818C150.33 118.277 150.069 116.771 150.069 115.241C150.069 113.771 150.081 112.289 149.962 110.83C149.82 109.028 149.891 107.225 149.701 105.411C149.535 103.834 149.607 102.221 149.524 100.621C149.429 98.7826 149.464 96.9446 149.37 95.1185C149.263 92.9723 149.097 90.8379 148.919 88.7035C148.812 87.3873 148.86 86.0593 148.777 84.7312C148.682 83.2371 148.623 81.7431 148.516 80.249C148.445 79.1818 148.54 78.0672 148.374 77.0237C148.16 75.6482 148.409 74.2727 148.054 72.9209C147.876 72.2332 147.912 71.5217 148.125 70.8221C148.338 70.1225 147.888 69.494 147.912 68.7944C147.959 67.7035 147.651 66.6126 147.722 65.5099C147.746 65.1304 147.627 64.7391 147.615 64.3478C147.568 62.9249 148.421 62.8774 149.417 62.83C149.559 62.8182 149.713 62.8774 149.879 62.8419C151.705 62.4861 153.554 62.3438 155.391 62.3083C157.003 62.2727 158.604 62.0948 160.216 62.166C160.963 62.2016 161.721 62.0711 162.492 62.1186C163.452 62.1778 163.689 62.498 163.665 63.4703C163.653 63.9921 163.796 64.5257 163.902 65.0355C164.092 65.8893 164.187 66.7668 164.305 67.6205C164.46 68.7707 164.732 69.9209 164.72 71.1067C164.72 71.7589 164.993 72.411 165.088 73.0751C165.36 75.162 165.846 77.2253 165.87 79.3478C165.87 79.6561 165.918 79.9881 166.001 80.2846C166.487 82.0395 166.415 83.8656 166.747 85.6561C167.174 87.9209 167.352 90.245 167.636 92.5454C167.862 94.3478 168.122 96.1383 168.288 97.9407C168.549 100.787 169.023 103.609 169.225 106.455C169.296 107.391 169.438 108.328 169.569 109.265C169.64 109.763 169.616 110.273 169.652 110.783C169.735 112.063 170.09 113.308 170.138 114.577C170.221 116.593 170.517 118.585 170.754 120.577C170.861 121.526 170.707 122.486 170.896 123.399C171.145 124.561 171.264 125.735 171.359 126.909C171.513 128.64 171.655 130.36 171.809 132.091C172.01 134.308 172.224 136.526 172.402 138.743C172.579 140.818 172.734 142.905 172.876 144.992C172.911 145.526 173.089 146.036 172.994 146.581C172.71 146.854 172.342 146.866 171.999 146.854C171.015 146.818 170.031 146.854 169.047 146.854C165.384 146.866 161.709 146.913 158.047 146.842C155.937 146.794 153.827 146.759 151.728 146.747C151.491 146.723 151.242 146.723 151.053 146.534Z" fill="#16DB93"/>
<path d="M113.856 146.261C113.642 145.775 113.618 145.277 113.63 144.755C113.69 142.763 113.713 140.771 113.749 138.779C113.784 136.751 113.867 134.723 113.844 132.696C113.82 130.704 113.891 128.711 113.808 126.719C113.761 125.498 113.583 124.265 113.666 123.055C113.784 121.265 113.536 119.498 113.571 117.719C113.618 115.668 113.476 113.605 113.429 111.553C113.358 109.016 113.275 106.466 113.227 103.929C113.204 102.636 113.061 101.332 112.967 100.04C112.907 99.1384 112.812 98.249 112.777 97.3478C112.706 95.498 112.646 93.6482 112.457 91.7984C112.386 91.1581 112.421 90.5059 112.315 89.8656C112.232 89.3083 112.86 88.4546 113.37 88.4783C114.353 88.5257 115.195 88.0514 116.132 87.921C116.404 87.8854 116.641 87.838 116.926 87.9565C117.21 88.0751 117.507 88.0158 117.827 87.8854C118.787 87.5059 119.818 87.4467 120.826 87.2451C121.75 87.0553 122.71 86.9961 123.659 86.9131C125.496 86.7589 127.298 86.415 129.159 86.415C130.522 86.415 131.897 86.2727 133.26 86.2016C133.723 86.1779 134.173 86.1897 134.588 86.4269C135.038 86.6878 135.24 87.0316 135.003 87.5534C134.813 87.9684 134.932 88.419 134.955 88.834C135.003 89.6878 135.074 90.5415 135.086 91.3834C135.086 92.1423 135.24 92.9012 135.086 93.6838C135.003 94.0751 135.133 94.502 135.181 94.917C135.347 96.4111 135.359 97.917 135.299 99.4111C135.228 101.024 135.24 102.636 135.264 104.237C135.299 105.791 135.228 107.356 135.359 108.909C135.43 109.775 135.382 110.64 135.394 111.506C135.406 113.83 135.382 116.154 135.406 118.478C135.43 120.245 135.418 122.012 135.37 123.779C135.323 125.154 135.477 126.518 135.406 127.881C135.335 129.079 135.43 130.277 135.359 131.474C135.335 131.949 135.37 132.411 135.382 132.885C135.418 134.19 135.536 135.494 135.489 136.798C135.382 140.036 135.465 143.273 135.406 146.51C135.264 146.723 135.038 146.723 134.825 146.7C132.288 146.51 129.74 146.652 127.191 146.617C126.089 146.605 124.986 146.569 123.884 146.711C123.113 146.806 122.343 146.688 121.584 146.557C119.605 146.213 117.613 146.391 115.622 146.439C115.029 146.439 114.413 146.676 113.856 146.261Z" fill="#FBFF12"/>
<path d="M113.855 146.261C114.958 146.415 116.048 146.154 117.151 146.19C119 146.261 120.837 146.308 122.687 146.451C124.903 146.629 127.132 146.451 129.36 146.427C130.866 146.415 132.359 146.415 133.865 146.391C134.374 146.38 134.872 146.605 135.394 146.498C137.136 146.332 138.879 146.569 140.621 146.557C141.819 146.546 143.016 146.474 144.213 146.64C144.45 146.676 144.687 146.664 144.924 146.652C146.75 146.569 148.587 146.498 150.413 146.605C150.626 146.617 150.839 146.569 151.053 146.546C151.231 146.546 151.408 146.557 151.586 146.557C157.584 146.593 163.594 146.664 169.592 146.652C170.718 146.652 171.868 146.783 172.994 146.581C174.085 146.735 175.187 146.652 176.29 146.664C177.001 146.664 177.712 146.652 178.423 146.7C179.372 146.759 179.846 147.162 180.012 147.98C179.905 148.799 179.538 148.953 178.767 148.941C177.38 148.917 175.982 149.012 174.595 148.965C172.615 148.893 170.635 149.142 168.656 148.953C168.016 148.893 167.364 148.953 166.712 148.953C163.156 148.917 159.599 148.941 156.055 148.988C152.191 149.036 148.315 149 144.45 148.905C142.957 148.87 141.451 148.763 139.958 148.834C136.129 149.012 132.3 148.692 128.471 148.822C125.283 148.929 122.094 148.799 118.905 148.739C115.373 148.68 111.84 148.644 108.308 148.561C103.566 148.455 98.8365 148.407 94.0949 148.229C90.764 148.111 87.4212 148.217 84.0903 148.087C81.7076 148.004 79.3131 147.945 76.9305 147.897C74.7257 147.85 72.5209 147.897 70.316 147.731C69.0003 147.636 67.6845 147.696 66.3687 147.542C64.6973 147.352 63.0259 147.506 61.3545 147.506C58.7467 147.506 56.1507 147.352 53.5547 147.21C52.7842 147.162 52.0137 147.162 51.2432 147.15C48.1611 147.103 45.091 147.067 42.009 147.008C40.2902 146.972 38.5951 146.688 36.9118 146.38C35.5605 146.131 34.6833 145.277 34.1736 144.02C33.486 142.289 33.4149 140.439 33.2253 138.625C33.083 137.249 33.1067 135.862 33.083 134.486C33.083 133.253 33.083 132.02 33.083 130.775C33.1304 126.802 33.3794 122.842 33.6164 118.882C33.7587 116.534 33.8535 114.186 33.9602 111.838C34.0669 109.419 34.1973 106.988 34.2921 104.569C34.4225 101.356 34.624 98.1424 34.7307 94.9289C34.8018 92.8538 34.8848 90.7906 35.0033 88.7155C35.3708 81.9684 35.679 75.2333 35.9635 68.4862C36.1413 64.2056 36.2717 59.925 36.5443 55.6562C36.8051 51.4586 37.0185 47.2609 37.2556 43.0514C37.303 42.2214 37.7771 41.8182 38.6188 41.8301C39.3893 41.8419 39.8042 42.2333 39.8042 43.0514C39.8042 45.8143 39.5789 48.5771 39.4485 51.3281C39.247 55.668 38.9862 60.008 38.7847 64.3479C38.5951 68.5929 38.4765 72.8261 38.1446 77.0594C37.9075 80.1068 37.8246 83.1661 37.7297 86.2254C37.6823 88.1226 37.5401 90.008 37.4334 91.9052C37.3504 93.4823 37.3504 95.0594 37.2556 96.6364C36.9 102.47 36.9 108.328 36.4258 114.15C36.3547 115.075 36.1769 116 36.2361 116.913C36.3191 118.004 36.2361 119.071 36.2006 120.162C36.082 123.933 35.7975 127.692 35.6672 131.463C35.5605 134.569 35.6316 137.7 35.845 140.806C35.8924 141.47 36.0583 142.134 36.2243 142.775C36.4495 143.652 37.3267 144.281 38.3817 144.316C39.7805 144.364 41.1911 144.34 42.5898 144.423C45.3873 144.577 48.1849 144.684 50.9942 144.672C51.1602 144.542 51.3617 144.553 51.5632 144.565C53.1042 144.601 54.6334 144.696 56.1744 144.755C58.5451 144.838 60.9041 144.933 63.2748 144.992C63.666 145.004 64.0691 145.028 64.4247 145.241C68.3483 145.206 72.2601 145.478 76.1837 145.478C76.3023 145.478 76.4208 145.466 76.5393 145.466C77.0728 145.265 77.6299 145.336 78.187 145.324C80.3207 145.277 82.4544 145.407 84.5763 145.478C87.1604 145.561 89.7446 145.668 92.3287 145.704C92.7199 145.704 93.1229 145.739 93.4785 145.941C95.9678 145.965 98.4572 145.917 100.935 146.048C103.045 146.166 105.155 146.012 107.253 146.214C107.727 146.261 108.201 146.249 108.675 146.202C110.121 146.036 111.556 146.178 112.99 146.285C113.263 146.249 113.559 146.249 113.855 146.261Z" fill="black"/>
<path d="M93.4546 145.881C92.044 145.846 90.6215 145.81 89.2109 145.763C88.713 145.751 88.227 145.727 87.741 145.704C84.576 145.609 81.3992 145.502 78.2342 145.431C77.6652 145.419 77.0962 145.478 76.5272 145.395C77.3096 144.459 77.1081 143.308 77.1555 142.241C77.2622 139.798 77.357 137.344 77.2503 134.913C77.1436 132.435 77.191 129.957 77.1199 127.478C77.0607 125.356 76.8947 123.245 76.7999 121.123C76.7169 119.107 76.3376 117.103 76.219 115.087C76.1479 113.889 75.816 112.727 75.982 111.482C76.2427 109.466 77.9141 108.731 79.5263 108.85C81.1384 108.968 82.7505 109.04 84.3626 109.075C85.8444 109.111 87.3143 108.968 88.796 109.158C90.1948 109.336 90.8349 110.19 91.0364 111.376C91.1786 112.217 91.3801 113.059 91.3209 113.937C91.2853 114.364 91.6172 114.743 91.5698 115.194C91.4513 116.368 92.044 117.435 92.0558 118.597C92.0795 120.553 92.5655 122.474 92.6367 124.443C92.6604 125.202 92.7789 125.961 92.8974 126.719C92.9449 127.063 92.9212 127.348 92.7908 127.68C92.6248 128.154 92.7552 128.688 92.8263 129.174C93.099 130.976 93.3242 132.791 93.3123 134.617C93.3005 135.648 93.4072 136.68 93.3597 137.723C93.3123 138.743 93.4427 139.775 93.4901 140.806C93.5613 142.502 93.6917 144.198 93.4546 145.881Z" fill="#D63989"/>
<path d="M64.4245 145.182C63.0968 145.134 61.7573 145.075 60.4297 145.028C60.2282 145.016 60.0385 145.004 59.837 145.004C57.1817 144.921 54.5383 144.838 51.883 144.743C51.5867 144.731 51.3022 144.672 51.0059 144.636C51.0177 142.964 51.2311 141.304 51.2074 139.632C51.1837 138.067 51.4326 136.538 51.5037 134.984C51.563 133.514 51.7882 132.055 51.9305 130.597C51.9897 129.992 52.049 129.387 52.049 128.771C52.0609 127.217 52.9736 125.972 54.728 125.996C55.4511 126.008 56.1623 125.937 56.9091 126.055C57.5848 126.15 58.3553 125.984 59.0902 126.008C60.6075 126.044 62.1248 126.067 63.6421 126.127C64.3533 126.15 64.8275 126.66 65.3016 127.111C65.4913 127.289 65.2779 127.466 65.2424 127.609C65.0883 128.261 65.1712 128.937 65.0764 129.589C64.9342 130.621 64.6852 131.64 64.626 132.696C64.5193 134.664 64.3296 136.632 64.2585 138.601C64.2229 139.609 64.2229 140.617 64.2229 141.625C64.2229 142.49 64.4956 143.356 64.2348 144.233C64.1518 144.506 64.4363 144.85 64.4245 145.182Z" fill="#16DB93"/>
</g>
<g clip-path="url(#clip1)">
<path d="M63.4663 23.3344C65.34 24.5903 65.9863 26.8773 64.9387 28.4678C64.2797 29.4594 61.819 29.784 60.6791 28.9942C59.1625 27.9885 58.7706 25.8929 59.8721 24.2876C60.6886 23.0211 62.341 22.5985 63.4663 23.3344ZM63.0222 24.5861C62.3568 24.1593 61.0769 24.567 60.6242 25.3573C60.1911 26.1133 60.5562 27.1439 61.4614 27.708C62.3666 28.2722 63.5481 28.0363 64.0744 27.1969C64.6008 26.3574 64.1672 25.2876 63.0222 24.5861Z" fill="#020A13"/>
<path d="M67.6977 46.8425C67.0088 48.0452 66.0721 48.3301 64.976 47.7022C64.0168 47.1528 63.7254 46.0731 64.2911 45.1649C64.8423 44.2028 66.1368 43.8491 67.0471 44.3249C68.0259 44.8399 68.2685 45.846 67.6977 46.8425Z" fill="#020A13"/>
</g>
<g clip-path="url(#clip2)">
<path d="M6.69643 111.997C6.69643 112.47 6.74794 112.996 6.69643 113.417C6.5934 113.837 6.33585 114.153 6.1298 114.574C5.71771 114.258 5.09958 114.048 4.94504 113.627C4.739 112.943 4.84202 112.154 4.79051 111.418C4.739 110.682 4.58446 109.893 4.68749 109.157C4.739 108.789 5.15109 108.368 5.40865 108C5.71771 108.263 6.28434 108.526 6.33585 108.841C6.5934 109.893 6.64492 110.945 6.69643 111.997C6.74794 111.944 6.74794 111.944 6.69643 111.997Z" fill="black"/>
<path d="M7.26334 120.043C7.26334 120.306 7.41788 120.621 7.31485 120.832C7.16032 121.2 6.90276 121.673 6.64521 121.726C6.38765 121.778 5.82103 121.357 5.76952 121.094C5.56347 119.99 5.46045 118.833 5.46045 117.729C5.46045 117.413 6.02707 117.15 6.33614 116.835C6.54219 117.15 6.90276 117.413 7.00579 117.781C7.10881 118.518 7.16032 119.306 7.26334 120.043Z" fill="black"/>
<path d="M0.669351 117.15C0.566329 117.098 0.102728 116.94 -0.000295027 116.677C-0.0518063 116.414 0.154239 115.73 0.360284 115.678C1.59655 115.415 2.83282 115.257 4.06909 115.205C4.22363 115.205 4.58421 115.783 4.5327 115.993C4.42967 116.309 4.12061 116.677 3.81154 116.782C2.88434 116.94 1.90562 116.993 0.669351 117.15Z" fill="black"/>
<path d="M10.7142 114.363C11.3324 114.679 12.5171 115.047 12.5171 115.362C12.4656 116.519 11.3324 116.256 10.6112 116.362C9.89005 116.467 9.11738 116.309 8.39622 116.204C8.19017 116.151 7.93262 115.73 7.93262 115.52C7.93262 115.31 8.2932 115.047 8.55075 114.994C9.2204 114.836 9.89005 114.784 10.5597 114.679C10.6112 114.521 10.6627 114.468 10.7142 114.363Z" fill="black"/>
</g>
<defs>
<clipPath id="clip0">
<rect width="147" height="108" fill="white" transform="translate(33 41)"/>
</clipPath>
<clipPath id="clip1">
<rect width="20.394" height="18.0409" fill="white" transform="translate(76.7915 30.9673) rotate(119.805)"/>
</clipPath>
<clipPath id="clip2">
<rect width="12.5172" height="13.7255" fill="white" transform="translate(0 108)"/>
</clipPath>
</defs>
</svg>
