<svg width="227" height="192" viewBox="0 0 227 192" fill="none" xmlns="http://www.w3.org/2000/svg">
<path fill-rule="evenodd" clip-rule="evenodd" d="M101.38 0.104278C121.115 -1.02122 139.728 7.10933 156.569 17.4739C174.646 28.5995 189.927 42.9187 200.697 61.2271C213.945 83.7484 233.342 109 224.972 133.758C216.598 158.529 186.198 167.66 161.676 176.652C142.314 183.752 121.973 178.031 101.38 179.08C79.1836 180.211 56.1011 193.44 36.4557 183.032C16.2737 172.339 5.88922 148.499 1.35981 126.088C-2.86836 105.168 3.29437 83.8697 12.5258 64.6313C20.81 47.3669 35.0932 34.7632 50.5772 23.5186C66.047 12.2843 82.3018 1.19233 101.38 0.104278Z" fill="#89D8F5"/>
<g clip-path="url(#clip0)">
<path d="M67.5002 142C47.5002 135.2 46.5002 113.833 48.5002 104C51.0001 105.167 56.9 107.6 60.5 108C65 108.5 74.5 106.5 78.5 108C82.5 109.5 83 112 84 114.5C85 117 88 119 90.5 121C93 123 102 125 110.5 126.5C119 128 121.5 127 123 127.5C124.5 128 127 133 125 134.5C123 136 92.5002 150.5 67.5002 142Z" fill="#FBFF12"/>
<path d="M52.0001 46C51.6001 45.2 52.5001 44 53.0001 43.5C53.3334 41.5 54 37.4 54 37C54 36.5 58 33 59.5 31.5C61 30 63 31.5 64 33C65 34.5 65 36.5 66 38C67 39.5 70 47.5 70 49.5C70 51.5 66 53 64.5 53.3125C63 53.625 64 54.5 64.5 55C65 55.5 66 61.5 66 62C66 62.5 66 64 65.5 64.5C65 65 65 64.5 63.5 62C62 59.5 58.5 60 57.5 59C56.5 58 55.5 49 55 48C54.5 47 52.5001 47 52.0001 46Z" fill="#FEFAE0"/>
<path d="M145.851 144.114C145.95 145.006 146.049 145.923 146.148 146.815C146.272 147.038 146.099 147.137 145.95 147.212C145.529 147.46 145.579 147.906 145.48 148.302C144.861 150.583 144.316 152.863 143.376 155.044C142.955 156.036 142.41 156.977 141.568 157.671C141.172 157.994 140.751 158.266 140.231 157.944C139.761 157.647 139.662 157.176 139.687 156.655C139.711 156.358 139.786 156.085 139.885 155.813C140.949 151.971 141.37 148.03 141.593 144.064C141.667 142.849 142.113 141.635 141.618 140.346C141.024 140.495 140.726 140.991 140.256 141.214C138.87 141.858 137.756 141.238 137.657 139.702C137.607 138.909 137.731 138.14 138.003 137.397C139.563 133.208 139.835 128.796 140.405 124.409C140.776 121.608 140.256 119.03 139.414 116.403C138.771 114.37 137.459 112.958 135.775 111.892C133.448 110.405 130.848 109.562 128.199 108.918C126.442 108.496 124.931 109.165 123.644 110.306C121.193 112.512 119.98 115.362 119.782 118.609C119.683 120.022 120.302 120.393 121.614 119.848C122.134 119.625 122.629 119.303 123.198 119.154C124.585 118.782 125.253 119.402 125.006 120.815C124.956 121.038 124.808 121.286 125.08 121.633C126.615 120.964 128.001 120.096 128.893 118.584C129.338 117.84 129.685 117.047 130.229 116.353C130.972 115.411 131.839 115.535 132.284 116.651C132.557 117.32 132.581 118.014 132.408 118.708C132.16 119.675 131.69 120.567 131.145 121.385C130.551 122.277 130.229 123.244 130.477 124.31C130.725 125.326 130.403 126.144 129.833 126.962C128.224 129.292 126.887 131.745 126.318 134.546C126.021 136.009 126.194 136.157 127.63 135.835C128.868 135.562 129.685 136.009 130.229 137.149C130.65 138.066 130.65 138.983 130.378 139.925C129.734 142.379 129.511 144.882 129.61 147.41C129.635 148.178 129.784 148.823 130.328 149.443C131.368 150.583 131.17 152.095 131.269 153.458C131.467 155.664 131.343 157.919 131.319 160.15C131.319 160.571 131.393 161.117 130.749 161.241C130.007 159.803 130.081 158.167 129.635 156.655C129.363 155.689 129.264 154.648 128.942 153.681C128.373 151.847 128.076 149.963 127.655 148.104C127.605 147.881 127.605 147.683 127.308 147.782C126.739 145.948 126.59 143.99 125.823 142.205C125.006 140.693 124.981 138.958 124.411 137.372C124.189 136.727 124.114 136.009 123.669 135.414C123.545 135.265 123.471 135.067 123.471 134.868C123.495 133.406 122.926 132.117 122.109 130.952C121.391 129.936 120.277 129.787 119.113 129.936C116.217 130.308 113.345 130.927 110.424 131.151C109.26 131.25 108.121 131.324 106.982 131.126C106.363 131.002 105.769 130.903 105.15 131.051C104.952 131.076 104.779 131.027 104.606 130.927C104.036 130.556 103.393 130.432 102.749 130.283C99.6542 129.539 96.6833 128.523 93.8362 127.061C93.3906 126.838 92.9449 126.664 92.425 126.64C92.227 126.615 92.0784 126.491 91.9547 126.342C91.5833 125.797 91.1377 125.301 90.593 124.904C86.7061 122.128 84.3294 118.287 82.8935 113.825C82.7697 113.553 82.5716 113.329 82.4479 113.032C81.3833 109.983 79.2542 108.67 76.011 108.942C74.575 109.066 73.1391 109.017 71.7527 109.463C71.2328 109.488 70.7377 109.091 70.193 109.388C68.9799 109.81 67.643 109.537 66.4299 110.008C66.3061 110.033 66.1576 110.058 66.0338 110.058C63.7561 109.859 61.4784 110.182 59.2008 109.835C58.7551 109.81 58.4333 109.463 57.9877 109.488C56.7993 109.364 55.6605 109.066 54.5959 108.521C54.2741 108.347 53.9522 108.174 53.5561 108.248C53.4323 108.248 53.3333 108.224 53.2095 108.174C52.5658 107.356 51.625 106.86 50.9566 106.092C50.6595 105.77 50.2139 105.522 50.3129 104.977C50.4614 104.803 50.6347 104.754 50.8328 104.729C53.0857 105.373 55.2891 106.216 57.6411 106.389C60.7357 106.637 63.8056 106.588 66.9003 106.414C70.3168 106.216 73.6838 105.547 77.0508 105.101C77.3231 105.125 77.5707 105.175 77.7935 105.373C78.7343 106.612 80.1454 107.43 80.9624 108.769C81.0367 108.918 80.9377 108.744 81.0367 108.868C81.5814 109.438 81.7794 110.355 82.4726 110.677C83.2648 111.024 83.6114 109.884 84.3542 109.76C84.4284 109.735 84.5275 109.76 84.6017 109.76C85.0474 109.983 85.0226 110.479 85.1959 110.851C85.5425 113.032 86.0872 115.139 87.4736 116.923C89.6275 119.724 92.5488 121.187 95.9158 121.881C100.991 122.922 104.68 120.691 107.725 116.874C110.052 113.949 111.637 110.677 112.528 107.059C112.751 106.166 112.924 105.274 113.419 104.506C113.667 104.109 113.989 103.737 114.509 103.812C115.053 103.886 115.152 104.382 115.276 104.828C115.524 105.72 115.524 106.612 115.499 107.53C115.499 108.224 115.499 108.942 115.722 109.612C115.87 110.033 115.969 110.529 116.514 110.628C117.034 110.727 117.38 110.355 117.628 109.983C118.693 108.397 119.609 106.761 120.227 104.927C120.45 104.258 120.475 103.242 121.441 103.341C122.431 103.44 122.555 104.456 122.629 105.274C122.753 106.687 122.233 107.926 121.54 109.141C123.396 107.728 125.055 106.117 127.06 104.977C129.685 103.514 131.467 103.812 133.374 106.117C134.092 106.984 134.785 107.505 136.072 107.43C137.632 107.356 138.696 108.496 139.414 109.835C140.108 111.099 140.677 112.437 141.519 113.627C142.435 114.965 143.499 116.155 144.737 117.221C145.455 117.865 146.148 118.113 146.99 117.246C147.782 116.452 148.55 116.626 149.169 117.741C150.184 119.551 151.521 121.112 152.957 122.624C153.774 123.492 154.863 124.087 155.383 125.227C155.358 125.45 155.21 125.549 155.011 125.623C154.071 125.648 153.278 125.152 152.461 124.756C149.218 123.244 146.099 121.484 143.054 119.6C142.534 119.278 142.014 118.956 141.296 118.708C141.593 120.567 142.039 122.252 142.41 123.963C143.772 130.11 144.762 136.331 145.901 142.527C145.975 143.147 146.025 143.618 145.851 144.114Z" fill="black"/>
<path d="M51.7739 44.722C52.6404 43.8049 52.071 43.1605 51.5015 42.3178C49.62 39.4922 49.0011 36.4187 50.0409 33.147C50.536 31.635 51.452 30.6684 53.185 30.4205C55.5122 30.0983 57.6414 29.0077 59.8447 28.2393C61.3549 27.7188 62.8651 27.1736 64.4991 27.0248C66.3807 26.8513 67.0986 27.5701 66.9501 29.4291C66.8758 30.4949 66.7768 31.5607 66.6282 32.6265C66.5045 33.5683 66.2074 34.4854 65.3409 35.0555C65.2171 35.2786 65.2914 35.6256 64.9943 35.7495C63.7812 36.1213 62.5928 36.1213 61.3302 35.9726C57.8642 35.5512 56.6758 36.617 56.6015 40.1366C56.5768 41.3015 56.6015 42.4417 56.7501 43.5818C56.9234 44.8211 56.3292 45.2673 55.2399 44.6476C54.1258 44.028 53.1603 44.0032 52.1452 44.7716C52.0214 44.8459 51.8977 44.8211 51.7739 44.722Z" fill="black"/>
<path d="M82.9927 174.154C83.0423 174.105 83.1165 174.08 83.1908 174.105C84.2306 173.535 85.3447 173.857 86.4092 173.782C87.1024 173.733 87.7956 173.782 88.4641 173.758C88.6126 173.758 88.7612 173.782 88.885 173.881C90.3704 174.476 91.8558 175.071 93.3413 175.641C94.0097 176.558 95.1733 176.484 96.0646 176.955C101.561 179.781 107.205 182.334 112.751 185.035C114.558 185.903 116.44 186.696 118.123 187.811C118.297 188.009 118.445 188.208 118.321 188.48C115.029 189.596 111.587 190.017 108.171 190.463C106.215 190.711 104.259 191.058 102.279 191.009C102.006 191.133 101.808 190.984 101.61 190.86C99.085 188.381 96.8321 185.655 94.4058 183.077C92.0539 180.549 89.801 177.922 87.3995 175.443C86.8796 174.898 86.2855 174.675 85.5427 174.675C84.701 174.675 83.8097 174.873 82.9927 174.476C82.9185 174.402 82.8937 174.352 82.9185 174.278C82.968 174.179 82.968 174.154 82.9927 174.154Z" fill="black"/>
<path d="M177.665 130.704C177.095 130.184 176.451 129.688 175.956 129.118C173.283 125.921 169.371 124.681 165.979 122.624C165.756 122.723 165.657 122.599 165.583 122.426C165.954 121.162 167.044 120.418 167.811 119.452C168.777 118.287 169.841 117.221 170.757 116.031C170.856 115.882 170.955 115.734 171.153 115.882C171.426 116.651 172.069 116.998 172.713 117.32C173.901 117.915 175.09 118.559 176.377 118.981C176.699 119.08 177.046 119.377 177.318 118.881C177.194 118.683 177.318 118.559 177.417 118.411C178.457 117.84 179.026 116.799 179.843 116.006C180.091 115.882 180.314 115.981 180.536 116.056C180.784 116.75 180.14 117.072 179.868 117.543C179.645 117.94 179.224 118.163 179.026 118.609C181.279 118.807 182.987 117.692 183.111 115.932C183.161 115.758 183.235 115.585 183.483 115.659C184.176 116.477 183.755 117.171 183.284 117.865C183.384 118.163 183.408 118.435 183.136 118.658C181.75 119.352 180.314 119.922 178.704 119.922C178.407 119.922 178.135 119.922 177.887 120.096C177.541 120.319 177.417 120.691 177.442 121.063C177.491 121.509 177.887 121.484 178.209 121.484C178.729 121.509 179.274 121.459 179.794 121.534C180.041 121.583 180.264 121.682 180.363 121.93C179.695 122.649 178.779 122.55 177.986 122.525C177.194 122.5 176.872 122.773 176.65 123.467C176.303 124.483 175.907 125.475 175.387 126.416C175.016 127.061 175.164 127.581 175.733 128.027C176.872 128.969 178.036 129.886 179.101 130.927C179.67 131.497 180.14 131.374 180.685 130.853C181.948 129.663 182.913 128.201 184.225 127.061C184.597 126.739 184.894 126.317 185.389 126.169C186.132 126.069 185.76 126.763 186.008 127.036C186.676 128.275 186.354 129.192 185.315 130.109C184.201 131.076 183.235 132.191 182.269 133.307C181.774 133.877 181.452 133.902 180.908 133.406C179.794 132.464 178.729 131.597 177.665 130.704Z" fill="black"/>
<path d="M83.488 145.378C82.1758 145.279 80.8637 145.179 79.5268 145.08C79.205 144.708 78.9821 144.361 79.7249 144.238C81.8787 144.857 84.0326 144.262 86.1865 144.188C86.7559 144.163 87.3253 144.064 87.8948 144.064C88.1918 144.064 88.4889 144.014 88.786 143.94C89.2812 143.866 89.8753 143.965 90.0734 143.271C90.1972 143.122 90.3457 143.073 90.5438 143.122C91.0884 143.469 91.6826 143.494 92.3263 143.395C95.4952 142.849 98.5899 141.982 101.66 140.842C100.57 140.693 99.4564 140.941 98.5404 140.197C98.5404 139.974 98.6889 139.85 98.887 139.751C100.199 139.379 101.487 140.024 102.799 139.85C103.071 139.85 103.343 139.776 103.616 139.801C104.433 139.875 105.151 139.578 105.893 139.355C108.839 138.487 111.81 137.62 114.93 137.644C115.45 137.644 116.019 137.595 116.465 137.991C116.687 138.264 116.787 138.562 116.762 138.933C116.118 139.974 114.979 139.9 113.989 140.197C109.83 141.635 105.67 142.973 101.338 143.841C98.2185 144.461 95.0744 144.758 91.955 145.229C91.4598 145.427 90.9399 145.502 90.4448 145.526C89.7268 145.576 89.2564 145.898 88.9593 146.543C88.9346 146.691 88.9098 146.815 88.8851 146.964C88.687 147.757 88.8355 148.575 88.8108 149.393C88.786 149.79 88.8851 150.236 88.4394 150.484C88.2166 150.558 88.0185 150.434 87.9443 150.26C87.2016 148.6 86.0132 147.261 84.6763 146.072C84.6516 145.849 84.7753 145.477 84.2802 145.601C84.0079 145.551 83.7108 145.601 83.488 145.378Z" fill="#010000"/>
<path d="M134.018 181.367C134.513 180.945 134.166 180.45 134.117 180.004C133.547 175.517 132.161 171.205 131.468 166.743C131.369 166.47 131.517 166.396 131.765 166.371C132.384 166.917 132.309 167.71 132.483 168.429C132.73 169.47 132.953 170.511 133.126 171.576C133.275 172.469 133.671 172.617 134.488 172.345C136.196 171.75 137.904 171.13 139.662 170.684C140.058 170.585 140.43 170.411 140.875 170.461C141.073 170.511 141.247 170.61 141.222 170.858C140.628 171.601 141.148 172.345 141.247 173.064C141.544 174.947 141.618 176.881 142.683 178.541C143.079 178.318 143.475 178.541 143.846 178.566C145.084 178.814 146.347 178.963 147.609 179.111C147.807 179.21 147.981 179.31 147.906 179.582C147.708 179.83 147.461 180.004 147.164 180.053C146.149 180.227 145.208 179.88 144.242 179.756C144.589 180.326 145.332 180.549 145.554 181.268C145.554 181.466 145.455 181.59 145.282 181.689C144.317 181.863 143.821 181.094 143.425 180.524C142.707 179.483 141.915 179.285 140.851 179.904C140.628 179.979 140.405 180.078 140.182 180.152C138.325 180.945 136.419 181.615 134.389 181.788C134.166 181.714 133.993 181.615 134.018 181.367Z" fill="black"/>
<path d="M53.9771 61.5021C54.0514 61.6012 54.1256 61.7251 54.1999 61.8243C54.2989 62.9644 54.9426 63.6832 55.8339 64.3772C56.9975 65.2695 58.1611 66.2114 59.2256 67.2276C59.8693 67.8473 60.1912 67.6242 60.3892 66.8558C60.6615 65.6661 61.1567 64.526 61.4785 63.3114C61.5776 62.8901 61.6023 62.3944 62.1717 62.2704C62.246 62.3696 62.3203 62.4687 62.3698 62.5679C62.6916 62.9149 62.4441 63.2619 62.3698 63.6089C61.9737 65.0713 61.5528 66.5336 61.0577 67.996C60.6368 69.2601 60.2407 69.384 59.2256 68.5165C57.7897 67.2772 56.3043 66.1123 54.8931 64.8482C54.1751 64.2037 53.581 64.179 52.8878 64.8482C51.7242 65.9883 50.8081 67.2772 50.0407 68.69C48.481 70.6481 47.5154 72.9284 46.7727 75.3078C46.3766 76.3736 46.03 77.4642 45.8814 78.6044C44.9407 82.9915 44.5446 87.4282 44.7179 91.8896C44.7674 93.4512 44.9159 95.0127 45.0892 96.5742C45.4606 99.9203 47.0946 102.448 49.9912 104.183C50.2635 104.382 50.5853 104.53 50.5606 104.952C50.4615 105.001 50.3873 105.076 50.2882 105.125C49.5703 105.15 49.5703 105.15 48.7533 104.729C48.5305 106.166 48.1591 107.604 48.0848 109.066C48.0848 109.314 47.9858 109.537 47.7382 109.686C47.3174 109.736 47.5154 109.314 47.3421 109.165C47.3916 107.629 47.7382 106.142 48.0353 104.654C48.1096 104.283 48.2829 103.911 47.862 103.539C44.9407 101.11 44.297 97.7143 44.0989 94.1204C43.8513 89.188 44.0742 84.3051 44.8664 79.4471C45.3368 77.8112 45.7329 76.1754 46.2776 74.5891C47.6887 70.4498 49.8921 66.7567 53.1106 63.7328C53.779 63.1132 53.4819 62.1713 53.9771 61.5021Z" fill="#27241B"/>
<path d="M142.856 190.017C142.113 189.67 141.568 189.819 141.197 190.587C140.776 191.455 140.083 191.628 139.167 191.504C137.459 191.281 135.75 191.108 134.017 191.009C133.349 190.959 133.176 190.736 133.25 190.091C133.374 188.654 133.473 187.216 133.572 185.779C133.943 185.779 133.993 186.076 134.067 186.349C134.215 187.886 134.29 187.96 135.825 188.133C137.706 188.356 139.588 188.555 141.445 188.877C142.088 189.001 142.732 189.125 143.202 189.695C143.202 189.943 143.178 190.116 142.856 190.017Z" fill="#020201"/>
<path d="M83.4878 145.378C84.0572 145.229 84.6266 144.981 85.2456 145.179C85.3694 145.626 84.7999 145.551 84.7257 145.849C84.4038 146.443 84.3791 147.113 84.3791 147.782C84.3791 155.788 84.3791 163.794 84.4038 171.775C84.4038 172.345 84.1563 173.163 84.9485 173.361C85.8645 173.584 86.8548 173.708 87.7213 173.212C88.2412 172.94 88.0431 172.246 88.0431 171.725C88.0431 165.504 88.0431 159.258 88.0679 153.037C88.0679 152.343 87.9194 151.624 88.464 151.029C88.9097 151.054 88.8354 151.401 88.8354 151.673C88.8354 159.01 88.8601 166.322 88.8354 173.658C88.8354 173.733 88.7859 173.807 88.7611 173.882C86.9291 174.402 85.097 174.03 83.2402 174.08C83.5126 173.882 83.5373 173.609 83.5373 173.311C83.5126 165.231 83.5126 157.151 83.4878 149.071C83.463 147.856 83.463 146.617 83.4878 145.378Z" fill="#2A2821"/>
<path d="M142.856 190.017C142.955 189.943 143.054 189.893 143.153 189.819C143.846 189.422 144.415 189.893 145.01 190.067C149.243 191.331 153.501 191.603 157.834 190.562C158.28 190.439 158.948 190.488 159.047 189.893C159.146 189.274 158.601 188.951 158.181 188.654C157.71 188.307 157.19 188.059 156.646 187.886C154.591 187.241 152.635 186.349 150.729 185.357C150.011 184.986 149.367 184.886 148.624 185.283C147.857 185.704 147.04 185.729 146.223 185.457C143.549 184.589 141.618 182.78 140.232 180.375C140.157 180.227 140.132 180.053 140.157 179.904C140.355 179.83 140.553 179.731 140.751 179.657C142.064 181.516 143.499 183.226 145.678 184.143C146.545 184.515 147.386 184.639 148.426 184.316C147.758 183.523 146.916 183.201 146.198 182.705C145.777 182.408 145.208 182.284 145.109 181.64C145.208 181.54 145.307 181.441 145.406 181.367C146.297 181.193 146.891 181.986 147.708 182.061C148.228 182.11 148.872 182.433 149.095 181.763C149.342 181.069 148.674 180.822 148.154 180.549C147.782 180.351 147.188 180.524 147.089 179.904C147.362 179.805 147.609 179.731 147.882 179.632C148.055 179.706 148.253 179.805 148.426 179.88C149.293 180.202 150.035 180.698 149.936 181.714C149.837 182.829 148.897 182.904 147.733 182.879C150.134 184.44 152.462 185.63 154.913 186.547C155.804 186.869 156.695 187.192 157.562 187.514C158.304 187.786 158.973 188.183 159.468 188.852C160.433 190.116 160.26 190.711 158.75 191.133C153.328 192.669 148.03 192.124 142.856 190.017Z" fill="#282314"/>
<path d="M185.934 127.036C185.339 127.061 185.859 126.392 185.488 126.292C185.513 125.549 186.206 125.45 186.652 125.177C190.687 122.575 193.831 119.154 195.762 114.717C195.96 114.271 196.381 113.8 196.01 113.354C195.589 112.858 194.945 113.032 194.401 113.181C193.633 113.379 192.965 113.8 192.296 114.222C190.86 115.089 189.424 116.006 187.889 116.7C187.271 116.973 186.949 117.345 186.973 118.113C187.023 119.352 186.255 120.22 185.265 120.815C183.928 121.633 182.418 122.079 180.834 122.277C180.636 122.302 180.413 122.277 180.289 122.079C180.116 122.004 179.942 121.93 179.769 121.856C179.843 121.261 180.363 121.385 180.71 121.286C181.923 121.038 183.111 120.716 184.225 120.17C184.671 119.947 185.117 119.724 185.414 119.328C185.736 118.931 186.082 118.435 185.736 117.989C185.414 117.568 184.993 118.063 184.646 118.163C184.201 118.311 183.78 118.658 183.26 118.361C183.235 118.212 182.888 118.039 183.285 117.89C185.166 117.369 186.874 116.452 188.558 115.535C189.895 114.742 191.256 113.974 192.618 113.181C193.658 112.561 194.747 112.115 196.01 112.412C196.926 112.611 197.223 112.933 196.852 113.924C195.292 118.187 192.593 121.608 189.028 124.359C188.211 124.979 187.37 125.574 186.503 126.119C186.132 126.317 185.835 126.54 185.934 127.036Z" fill="#26210F"/>
<path d="M82.9928 174.154C82.9928 174.253 82.9928 174.352 82.9928 174.452C82.8938 175.071 82.3244 175.096 81.9035 175.27C80.5666 175.815 79.1554 176.236 77.8185 176.806C69.3268 180.004 60.8598 183.176 52.2938 186.398C53.0613 187.216 54.2001 187.043 54.8438 187.811C54.819 188.034 54.6952 188.158 54.4477 188.059C53.6307 187.935 52.8632 187.613 52.1205 187.291C51.6996 187.092 51.1797 186.894 51.2045 186.398C51.2045 185.853 51.7986 185.804 52.2195 185.63C58.7307 183.201 65.2171 180.747 71.7283 178.318C75.4418 176.93 79.2297 175.542 82.9928 174.154Z" fill="#22221F"/>
<path d="M95.8419 176.955C94.7773 177.203 94.0099 176.459 93.1434 176.063C92.8958 175.963 93.3167 175.815 93.3662 175.641C99.5555 177.971 105.745 180.276 111.934 182.606C114.657 183.622 117.381 184.688 120.104 185.729C120.599 185.927 121.218 186.101 121.243 186.721C121.268 187.34 120.698 187.588 120.228 187.811C119.634 188.084 119.064 188.406 118.396 188.456C118.321 188.307 118.222 188.158 118.148 188.009C118.445 187.613 118.965 187.638 119.337 187.415C119.634 187.241 120.154 187.216 120.104 186.745C120.079 186.374 119.658 186.324 119.337 186.2C116.465 185.085 113.568 184.019 110.671 182.904C105.844 181.02 100.917 179.359 96.1885 177.228C96.0647 177.178 95.9162 177.128 95.8419 176.955Z" fill="#221E11"/>
<path d="M94.4551 191.504C93.4895 191.802 92.4993 191.678 91.509 191.703C82.2002 191.901 72.9162 191.331 63.7065 189.943C63.7065 189.521 64.0284 189.521 64.3007 189.422C66.0832 189.249 67.7667 189.992 69.5245 189.893C75.1692 190.538 80.8386 190.909 86.5328 190.835C88.7609 190.81 90.9891 190.711 93.2172 190.934C93.6381 191.083 94.1332 191.108 94.4551 191.504Z" fill="#332E1C"/>
<path d="M141.172 170.858C141.098 170.783 140.999 170.709 140.925 170.635C140.999 170.015 141.544 170.04 141.94 169.916C143.698 169.346 145.455 168.726 147.213 168.156C148.674 167.66 148.723 167.635 148.501 166.123C147.832 161.662 147.164 157.225 146.446 152.789C146.198 151.326 145.975 149.864 145.752 148.377C145.678 147.955 145.505 147.484 145.926 147.088C146 146.989 146.074 146.914 146.173 146.815C146.941 150.013 147.287 153.309 147.832 156.556C148.426 160.125 148.921 163.719 149.491 167.313C149.59 167.883 149.59 168.23 148.946 168.429C146.322 169.222 143.747 170.04 141.172 170.858Z" fill="#312C1A"/>
<path d="M88.7116 173.906C88.7116 166.768 88.6869 159.63 88.6869 152.516C88.6869 152.045 88.8354 151.525 88.4888 151.078C88.1917 150.905 87.9937 150.682 88.266 150.335C88.8849 149.889 88.6126 149.22 88.6869 148.649C88.7612 148.055 88.5136 147.435 88.8849 146.865C88.9097 154.102 88.9097 161.34 88.9345 168.577C88.9345 170.337 88.9345 172.122 88.9097 173.882C88.8602 173.882 88.7859 173.882 88.7116 173.906Z" fill="#201E1B"/>
<path d="M131.715 166.446C131.616 166.545 131.542 166.644 131.443 166.743C130.799 163.917 130.007 161.117 129.586 158.266C129.363 156.779 128.917 155.342 128.818 153.854C128.843 153.607 128.942 153.458 129.239 153.557C129.734 155.713 130.254 157.845 130.725 160.001C130.799 160.398 130.749 160.819 130.774 161.216C131.467 162.901 132.037 164.587 131.715 166.446Z" fill="#3F3D34"/>
<path d="M64.2511 189.695C64.0778 189.769 63.8798 189.868 63.7065 189.943C60.5871 189.497 57.4677 189.05 54.4473 188.059C54.5463 187.985 54.6701 187.886 54.7691 187.811C55.19 187.514 55.6356 187.687 56.0812 187.786C58.4827 188.257 60.8346 188.778 63.2609 189.15C63.6322 189.199 64.1026 189.174 64.2511 189.695Z" fill="#4B4B4A"/>
<path d="M129.264 153.557C129.116 153.656 128.992 153.755 128.843 153.854C128.249 153.607 128.447 153.012 128.348 152.59C127.952 151.029 127.655 149.418 127.333 147.856C127.432 147.683 127.531 147.509 127.704 147.237C128.249 149.393 128.744 151.475 129.264 153.557Z" fill="#353534"/>
<path d="M143.673 178.814C143.327 178.74 142.98 178.64 142.633 178.566C143.871 178.219 145.06 177.723 146.223 177.129C146.991 176.732 147.907 176.385 148.501 177.352C149.021 178.194 148.674 178.987 147.882 179.558C147.783 179.458 147.684 179.384 147.61 179.285C147.535 178.74 148.377 178.219 147.783 177.723C147.164 177.203 146.545 177.748 145.976 177.996C145.208 178.343 144.515 178.814 143.673 178.814Z" fill="#282314"/>
<path d="M88.959 146.443C88.7114 145.526 89.058 145.105 90.0235 145.13C90.6672 145.155 91.3109 145.13 91.9546 145.13C90.9643 145.576 89.974 145.997 88.959 146.443Z" fill="#00B1B1"/>
<path d="M133.794 186.299C133.72 186.126 133.621 185.952 133.547 185.779C133.646 184.292 133.497 182.804 134.017 181.367C134.092 181.441 134.191 181.516 134.265 181.59C134.488 183.201 134.76 184.812 133.794 186.299Z" fill="#423B23"/>
<path d="M94.4553 191.504C94.1087 191.43 93.7621 191.331 93.4155 191.256C93.4898 191.157 93.5641 191.033 93.6879 191.033C95.3714 190.86 97.0548 190.513 98.7631 190.81C98.9859 190.984 99.0107 191.182 98.8621 191.405C97.3767 191.455 95.916 191.479 94.4553 191.504Z" fill="#080704"/>
<path d="M98.8374 191.43C98.8374 191.306 98.8374 191.157 98.8374 191.033C99.7782 190.438 100.744 190.339 101.784 190.736C101.982 190.835 102.155 190.909 102.353 191.009C101.214 191.38 99.9762 191.108 98.8374 191.43Z" fill="#030303"/>
<path d="M124.139 88.3947C124.04 88.3204 123.941 88.2708 123.842 88.1965C124.09 87.6264 124.684 87.5768 125.154 87.3785C129.313 85.817 133.473 84.2307 137.483 82.3222C138.82 81.6777 138.894 81.5786 138.523 80.1658C138.028 78.3316 137.954 78.3564 136.023 78.0342C134.76 77.8111 133.621 77.9846 132.408 78.3564C129.338 79.3479 126.194 79.9923 123.05 80.5624C121.663 80.8102 120.252 81.0085 118.866 81.2068C118.049 81.3803 117.207 81.182 116.415 81.4547C115.845 81.5786 115.301 81.5786 114.731 81.4547C114.36 81.306 113.89 81.306 113.617 80.9094C116.885 80.5624 120.178 80.3393 123.421 79.7197C127.11 79.0257 130.724 78.1334 134.314 76.9932C135.131 76.7453 135.379 76.324 135.255 75.4565C135.131 74.5146 135.503 73.5975 135.577 72.6557C135.824 70.0284 138.226 68.9378 139.365 66.9797C139.711 66.3848 140.132 66.3105 140.801 66.5335C142.336 67.0045 143.871 67.5498 145.455 67.748C149.391 68.2685 153.328 67.8968 157.215 67.178C158.898 66.8558 160.582 66.5087 162.414 66.1617C162.29 67.0293 161.696 67.5002 161.473 68.1446C161.943 68.4916 162.463 68.1198 162.983 68.442C162.241 69.0617 163.057 70.0036 162.463 70.6976C162.364 70.8215 162.661 70.8959 162.76 70.995C163.949 72.5317 163.974 72.9779 162.983 74.6881C162.736 75.1095 162.389 75.506 162.241 75.977C161.473 78.3564 159.79 78.9017 157.561 78.4804C157.363 78.6539 157.165 78.8522 156.918 78.9265C155.407 79.1992 153.922 79.794 152.338 79.5462C152.981 79.9675 153.674 79.794 154.343 79.7197C154.665 79.6949 155.11 79.6205 155.209 79.9923C155.333 80.4385 154.863 80.5872 154.541 80.7111C153.798 81.0333 153.031 81.0333 152.239 80.8846C151.347 80.7111 150.877 80.1906 150.704 79.3479C150.629 79.0009 150.357 78.8769 150.035 78.9761C147.51 79.794 145.059 78.9265 142.583 78.6539C141.717 78.5547 140.85 78.5795 139.984 78.5051C139.34 78.4556 139.216 78.7034 139.34 79.3231C139.662 80.9094 139.687 80.9342 141.296 80.8598C141.94 80.835 142.633 80.6615 143.177 81.2068C143.103 81.6282 142.831 81.5538 142.558 81.4547C141.098 81.3555 139.835 82 138.573 82.57C134.067 84.6521 129.487 86.5606 124.807 88.1965C124.609 88.2708 124.362 88.3204 124.139 88.3947Z" fill="#1F1E1B"/>
<path d="M133.498 91.5673C133.597 91.493 133.671 91.4186 133.77 91.3195C141.049 96.1279 148.327 100.961 155.606 105.77C157.884 107.282 160.161 108.744 162.439 110.231C162.563 110.553 162.835 110.702 163.058 110.925C163.256 111.123 163.429 111.371 163.033 111.57C160.681 111.123 158.626 109.958 156.572 108.893C155.408 108.298 154.244 107.876 152.957 107.777C149.838 107.554 147.337 106.29 145.753 103.489C145.208 102.547 144.465 101.754 143.574 101.135C142.707 100.54 142.163 100.738 141.767 101.73C141.593 102.2 141.569 102.696 141.47 103.192C141.272 104.159 140.628 104.456 139.712 104.059C139.167 103.812 138.796 103.39 138.449 102.919C137.31 101.407 136.543 99.7219 136.097 97.9125C135.602 95.9296 134.785 94.0955 133.721 92.3605C133.547 92.1126 133.324 91.8647 133.498 91.5673Z" fill="black"/>
<path d="M142.583 81.4547C142.782 81.3804 142.955 81.2812 143.153 81.2068C143.821 80.6863 144.515 81.0829 145.158 81.2068C147.411 81.6778 149.615 82.3966 151.892 82.6692C152.585 82.7436 153.279 82.6692 153.972 82.7684C154.195 82.8427 154.318 82.9914 154.393 83.2145C153.18 83.6855 151.967 83.5367 150.753 83.2641C148.005 82.694 145.307 82.0744 142.583 81.4547Z" fill="#392E0A"/>
<path d="M177.59 118.584C177.491 118.683 177.392 118.782 177.293 118.857C176.749 117.518 177.046 116.18 177.491 114.916C177.863 113.825 179.101 113.726 179.868 114.618C180.14 114.941 180.289 115.312 180.339 115.808C181.403 115.114 182.418 114.519 183.483 115.659C183.408 115.734 183.359 115.783 183.285 115.858C182.369 115.684 181.477 115.858 180.611 116.155C180.363 116.155 180.091 116.155 179.843 116.155C179.769 116.105 179.72 116.056 179.67 116.006C179.373 115.61 179.299 114.841 178.605 115.015C177.937 115.188 177.962 115.882 177.912 116.452C177.838 117.146 178.011 117.915 177.59 118.584Z" fill="#362C0A"/>
<path d="M163.206 111.471C163.231 110.876 162.043 111.049 162.439 110.206C165.335 112.09 168.232 113.974 171.153 115.833C171.079 115.907 170.98 115.982 170.906 116.031C170.559 116.279 170.287 116.006 170.015 115.858C167.836 114.494 165.781 112.908 163.429 111.842C163.256 111.818 163.206 111.669 163.206 111.471Z" fill="#312709"/>
<path d="M154.392 83.2146C154.269 83.1154 154.17 83.0411 154.046 82.9419C154.368 82.3966 154.962 82.2975 155.457 82.0001C156.72 81.2069 157.24 80.1163 157.017 78.7035C157.141 78.4805 157.363 78.4805 157.586 78.4805C158.354 80.5129 157.017 82.4958 154.392 83.2146Z" fill="#221C06"/>
<path d="M113.642 80.8846C113.989 81.0086 114.385 80.8351 114.682 81.1325C114.484 81.4299 114.137 81.5291 113.815 81.5291C112.404 81.6034 111.018 81.6034 109.607 81.5291C109.285 81.5043 108.963 81.4299 108.74 81.1325C109.037 80.8599 109.458 81.0086 109.78 80.8846C111.067 80.8846 112.355 80.8846 113.642 80.8846Z" fill="#050401"/>
<path d="M47.3668 109.19C47.4411 109.364 47.5154 109.537 47.6144 109.711C48.0848 110.281 47.9115 110.975 47.9362 111.619C47.9858 114.147 48.2086 116.651 48.9513 119.08C49.3722 120.443 50.0159 121.583 51.6003 121.856C52.244 121.955 52.6896 122.426 52.9867 122.996C53.5314 123.987 53.9027 125.028 54.1008 126.119C54.2246 126.937 54.5464 127.705 54.7445 128.498C55.2892 130.63 55.9576 132.687 57.2697 134.497C58.2105 135.785 59.3741 136.455 61.0081 136.009C62.9639 135.488 64.078 136.727 65.2168 137.942C65.4396 138.041 65.6872 138.091 65.8605 138.289C67.0489 141.04 69.6236 141.957 72.1489 142.825C73.8571 143.395 75.6149 143.841 77.4222 144.138C77.8678 144.213 78.3382 144.262 78.5858 144.733C78.4867 145.105 78.2144 145.031 77.9668 144.956C71.4804 144.634 65.2168 143.444 59.7455 139.627C52.6649 134.695 48.976 127.68 47.6144 119.328C47.045 115.957 46.9459 112.561 47.3668 109.19Z" fill="black"/>
<path d="M54.4723 128.523C54.2495 127.78 54.002 127.011 53.7791 126.268C53.9524 123.145 54.6704 120.121 55.4626 117.097C55.6359 116.403 55.4626 115.808 55.2151 115.188C54.4971 113.404 53.8287 111.594 53.3335 109.711C53.2097 109.215 52.9126 108.694 53.3088 108.199C53.4078 108.199 53.4821 108.199 53.5811 108.199C54.1753 108.298 54.101 108.868 54.2495 109.265C54.8685 111.024 55.3636 112.834 56.2549 114.544C56.7995 112.735 57.9879 111.198 57.9631 109.24C58.4335 109.091 58.7058 109.364 58.9287 109.711C59.2257 110.281 58.8544 110.752 58.6811 111.223C58.1364 112.611 57.5918 113.974 57.1461 115.411C56.9728 115.932 56.8986 116.452 57.1461 116.973C59.102 121.038 61.4291 124.855 64.4248 128.275C64.499 128.374 64.5981 128.449 64.8209 128.424C65.118 127.879 65.118 127.21 65.2665 126.59C65.9597 123.616 66.8015 120.691 67.8165 117.816C68.1631 116.849 68.1384 115.982 67.6927 115.089C67.0986 113.899 66.7024 112.635 66.2568 111.396C66.1083 110.95 65.7864 110.479 66.1825 110.008C66.2568 110.008 66.3558 110.008 66.4301 110.008C67.0738 110.107 67.049 110.702 67.1976 111.123C67.6432 112.388 68.1631 113.627 68.7325 115.04C69.401 113.329 69.9456 111.793 70.4903 110.256C70.6388 109.859 70.4903 109.537 70.317 109.215C70.8369 108.794 71.1835 108.967 71.4806 109.488C71.8272 109.983 71.4806 110.429 71.332 110.876C70.8121 112.388 70.2427 113.899 69.6981 115.411C69.5 116.006 69.3762 116.601 69.6981 117.221C71.6539 121.038 73.9563 124.632 76.9767 127.904C78.3384 123.417 79.9476 119.154 81.6311 114.891C81.8786 114.271 81.8786 113.478 82.6709 113.181C82.8194 113.379 82.9927 113.577 83.1413 113.8C81.4083 118.336 79.601 122.847 78.1898 127.507C77.8927 128.523 78.0908 129.217 78.8583 129.911C81.5568 132.34 84.4286 134.546 87.7214 136.132C88.4888 136.504 88.8107 136.405 88.9345 135.538C89.3801 132.712 90.4199 130.06 91.3359 127.358C91.4597 126.962 91.4597 126.416 92.1034 126.392C92.1777 126.466 92.2519 126.565 92.3015 126.639C92.6233 127.234 92.2767 127.755 92.1034 128.275C91.2864 130.729 90.4942 133.208 89.9495 135.736C89.7267 136.752 90.0238 137.248 90.9893 137.595C93.1927 138.388 95.4704 138.933 97.7728 139.404C98.1937 139.479 98.7136 139.404 98.8621 139.999C98.7631 140.073 98.6641 140.148 98.565 140.247C98.1937 140.668 97.7233 140.47 97.3024 140.396C95.099 140.049 92.9699 139.454 90.8903 138.661C89.801 138.239 89.5782 138.438 89.6772 139.603C89.7515 140.619 89.801 141.66 90.3209 142.602C90.4447 142.8 90.5685 143.048 90.3456 143.271C90.2961 143.345 90.2218 143.444 90.1723 143.519C89.0583 143.221 89.1325 142.155 88.7859 141.387C88.6869 141.164 88.6126 140.891 88.6621 140.668C89.1325 138.314 87.8451 137.223 85.9141 136.281C83.0175 134.868 80.4922 132.861 78.1898 130.58C78.0413 130.432 77.9175 130.258 77.5709 130.333C77.15 131.745 76.8282 133.233 76.6796 134.72C76.2587 139.379 76.1845 138.363 80.2447 140.569C82.6709 141.883 85.3447 142.676 87.9689 143.543C88.3651 143.667 88.9345 143.618 88.984 144.237C88.7117 144.361 88.4641 144.535 88.1422 144.461C85.1219 144.014 82.3985 142.75 79.7 141.437C78.784 140.991 77.8432 140.544 76.8034 139.95C77.249 141.288 77.7937 142.428 78.7345 143.37C79.0563 143.692 79.6257 143.89 79.5762 144.51C79.3039 144.733 79.6505 144.981 79.5762 145.204C79.0316 145.278 78.5117 145.278 78.0165 145.055C78.2146 144.981 78.3879 144.882 78.5859 144.808C78.4869 144.312 78.0908 144.064 77.7689 143.767C76.9024 142.949 76.2835 141.957 76.0607 140.817C75.8131 139.702 75.2189 139.032 74.3029 138.438C71.3568 136.529 68.6335 134.348 66.1578 131.845C65.6379 131.324 65.4398 131.547 65.118 131.944C64.7466 131.82 64.7219 131.498 64.6723 131.175C64.6971 130.432 64.3257 129.862 63.8553 129.316C61.1073 126.169 58.9534 122.624 56.9481 118.981C56.7005 118.51 56.552 118.014 56.4282 117.246C56.4282 117.295 56.1558 117.469 56.3291 117.444C56.3787 117.444 56.3787 117.469 56.4034 117.493C56.6015 117.766 56.4529 118.039 56.3787 118.311C55.5864 121.385 54.8685 124.458 54.918 127.656C54.8437 127.879 54.8437 128.275 54.4723 128.523Z" fill="#221C06"/>
<path d="M155.259 125.326C156.844 125.995 158.453 126.64 160.087 127.16C160.78 127.383 161.226 127.259 161.696 126.714C162.983 125.227 164.345 123.789 165.657 122.327C165.756 122.426 165.855 122.525 165.954 122.599C164.593 124.087 163.231 125.574 161.919 127.086C161.424 127.656 161.003 127.879 160.235 127.631C158.453 127.036 156.646 126.516 154.987 125.549C155.111 125.475 155.185 125.4 155.259 125.326Z" fill="#292108"/>
<path d="M103.046 140.173C102.278 136.777 103.516 133.753 104.754 130.704C104.828 130.803 104.903 130.878 104.977 130.977C104.482 132.712 103.789 134.397 103.442 136.182C103.194 137.446 103.145 138.71 103.492 139.974C103.318 140.024 103.194 140.098 103.046 140.173Z" fill="#3B300B"/>
<path d="M116.44 138.14C116.861 138.586 117.257 138.239 117.629 138.041C119.634 137.05 121.614 136.009 123.62 134.992C123.694 135.067 123.793 135.141 123.867 135.216C121.59 136.703 119.188 137.917 116.663 138.909C116.514 138.661 116.366 138.438 116.44 138.14Z" fill="#241D07"/>
<path d="M81.8045 104.753C80.4924 105.224 79.1307 105.447 77.7691 105.671C77.5958 105.596 77.4472 105.522 77.2739 105.447C78.6108 105.15 79.9477 104.828 81.2846 104.53C81.4579 104.605 81.6312 104.679 81.8045 104.753Z" fill="#4E4E4D"/>
<path d="M123.124 80.2154C120.45 82 117.38 82.3718 114.311 82.5949C112.454 82.7188 110.646 82.7684 108.913 83.6606C107.973 84.1564 106.908 84.0077 105.893 83.6854C104.408 83.2145 102.947 82.6444 101.437 82.1983C99.9513 81.7521 99.5552 82.1239 99.8523 83.6854C99.9265 84.0572 100.026 84.4042 100.1 84.776C100.174 85.0982 100.372 85.4452 100.026 85.6931C99.7037 85.9162 99.3819 85.6435 99.1095 85.5196C96.7824 84.3299 94.7523 82.7188 92.945 80.8103C92.029 79.8684 91.212 78.8026 89.9741 78.2325C89.578 78.059 89.1571 77.712 88.7362 78.1334C88.3649 78.4804 88.5877 78.9265 88.6867 79.2983C89.4294 81.5786 90.5435 83.6854 91.4843 85.8914C89.8256 84.4786 88.2906 82.9171 86.3843 81.8017C86.1367 81.653 86.0129 81.3803 85.9139 81.1077C84.6018 77.5137 83.0173 74.0685 80.8882 70.8463C82.9926 72.2095 85.0722 73.5976 87.226 74.8121C93.6382 78.4308 100.521 80.4633 107.824 81.1325C108.096 81.1573 108.394 81.1325 108.691 81.1325C110.671 81.2564 112.652 81.2564 114.632 81.1325C115.202 81.1325 115.746 81.1573 116.316 81.1573C117.158 81.1325 118.024 81.2316 118.841 80.9094C120.302 80.6615 121.713 80.4385 123.124 80.2154Z" fill="black"/>
<path d="M123.421 88.8161C123.793 88.593 123.966 88.4939 124.139 88.37C124.065 88.1469 123.941 88.023 123.694 87.9734C121.787 88.3204 119.98 89.0144 118.123 89.5349C111.81 91.3443 105.423 92.6332 98.7879 92.4844C97.8471 92.4597 97.1539 92.187 96.5845 91.4186C95.099 89.3862 93.4403 87.5025 91.6825 85.7179C90.3209 84.5282 89.083 83.1649 87.5481 82.1735C86.7063 81.6282 86.1864 80.9094 85.8398 79.9923C84.701 77.018 83.3146 74.1924 81.6806 71.5651C87.5481 75.9026 94.183 78.9265 101.437 80.4633C103.838 80.9838 106.265 81.4547 108.765 81.3556C109.112 81.2316 109.533 81.2316 109.78 80.8598C106.883 80.5376 103.962 80.3145 101.115 79.6453C93.9107 78.0095 87.35 74.9856 81.4825 70.4993C80.3437 69.8797 79.4277 69.0122 78.5859 68.0455C76.8777 66.1122 74.8971 64.5259 72.5947 63.361C72.3966 63.4105 72.2728 63.5097 72.2976 63.7328C72.4709 64.1045 72.8175 64.2533 73.1393 64.4268C75.8626 66.0131 78.0165 68.1694 79.8733 70.6976C82.0272 73.6223 83.6117 76.8197 84.8495 80.1906C85.2704 81.3556 85.815 82.2974 86.9291 82.9914C88.1175 83.7102 89.1573 84.6769 90.1723 85.6683C93.4155 88.7666 96.0893 92.3109 98.6146 96.004C100.323 98.5074 99.9515 98.0117 97.8223 99.4245C97.1786 99.8459 96.634 99.8459 96.015 99.3749C95.2228 98.7553 94.3316 98.3339 93.3908 98.0117C92.6728 97.7638 92.2272 97.2929 91.9053 96.6237C91.4845 95.7314 91.0636 94.8391 90.5684 93.9716C88.4146 90.1794 85.9141 86.6597 82.349 84.0572C81.3092 83.3136 80.5417 82.4214 79.9476 81.306C77.0262 75.8283 73.3126 70.9702 68.7078 66.8062C68.0146 66.1866 67.3956 65.443 66.4053 65.2199C66.232 65.2943 66.1083 65.4182 66.0835 65.6165C66.3558 66.3105 66.9995 66.6575 67.5194 67.1284C69.2772 68.6404 70.8864 70.2762 72.4214 72.0113C75.2932 75.3078 77.4966 79.0257 79.6257 82.8179C79.9476 83.3632 80.2942 83.8589 80.8141 84.2059C82.7947 85.5196 84.5277 87.0811 85.9884 88.9401C87.9937 91.4682 89.7267 94.1699 91.0388 97.169C90.3951 97.3177 89.8752 97.0946 89.3553 97.0698C87.5481 97.0203 85.7408 97.0203 84.1563 98.0861C84.2058 98.3835 84.4286 98.4579 84.6515 98.557C85.1466 98.7057 85.3694 99.0527 85.4932 99.5236C85.6417 100.168 85.815 100.788 85.9636 101.432C86.3102 102.895 86.3102 102.87 84.8743 103.291C83.6364 103.663 82.2748 103.663 81.1854 104.456C81.1607 104.778 81.4083 104.877 81.6558 104.952C82.3738 105.076 83.0422 104.828 83.7107 104.63C85.2456 104.159 86.8301 103.812 88.3898 103.415C89.3553 103.167 90.2218 103.291 91.1131 103.886C90.7913 104.332 90.4199 104.58 90.0733 104.853C88.3898 106.117 86.7558 107.43 85.1466 108.818C84.8248 109.116 84.3544 109.314 84.4534 109.884C84.8743 110.082 84.5772 110.653 84.9238 110.9C85.518 109.859 86.3102 108.992 87.3252 108.347C88.6621 107.207 90.0733 106.166 91.4597 105.1C92.0539 104.654 92.4748 104.679 92.7718 105.398C93.465 106.662 93.985 108.025 94.6286 109.314C94.901 109.884 95.2971 110.306 95.9903 110.033C96.6587 109.76 96.6835 109.165 96.6092 108.571C96.5597 108.224 96.3369 107.901 96.3617 107.505C97.2034 110.504 97.9709 111.347 100.224 111.768C102.501 112.189 103.64 110.9 102.922 108.694C102.848 108.471 102.749 108.224 102.65 108C101.759 105.695 100.298 103.737 98.7879 101.829C97.7481 100.713 97.7481 100.664 99.0107 99.8459C102.947 97.2681 107.057 95.0126 111.365 93.1289C115.227 91.4186 119.213 89.9315 123.496 89.5597C124.956 89.3118 126.417 89.3614 127.902 89.5349C129.908 89.7828 131.666 90.6007 133.349 91.6169C133.572 91.6169 133.72 91.4682 133.795 91.2699C130.824 88.7665 127.259 88.5435 123.421 88.8161ZM102.328 109.413C102.501 109.884 102.873 110.553 102.18 110.826C100.422 111.52 100.323 111.446 99.9515 110.107C99.5553 108.62 99.1592 107.133 98.1194 105.918C98.5155 107.009 98.9116 108.124 99.3078 109.215C99.4068 109.488 99.5058 109.76 99.5306 110.058C99.5801 110.405 99.7039 110.826 99.2087 111C98.7136 111.173 98.5403 110.776 98.4165 110.454C97.7728 108.843 96.8816 107.356 96.015 105.869C95.8665 105.596 95.7922 105.249 95.3218 105.1C95.2476 106.637 95.9408 108.05 95.9408 109.636C95.2971 109.463 95.2723 109.017 95.099 108.67C94.5296 107.53 94.0345 106.34 93.4155 105.224C92.2272 103.093 90.4942 102.275 88.1422 102.82C87.1767 103.043 86.9539 102.771 86.8053 101.928C86.632 100.912 86.3845 99.9202 86.0626 98.9288C85.8646 98.2596 86.0874 98.0861 86.7063 97.9869C89.9 97.4912 92.9451 98.1108 95.5199 99.945C98.8374 102.25 100.967 105.596 102.328 109.413Z" fill="#232119"/>
<path d="M77.7441 98.9784C79.898 98.6561 82.0767 98.3587 84.2305 98.0365C84.3296 98.2844 84.5771 98.21 84.7752 98.2844C82.7946 98.8049 80.7893 99.0031 78.7592 99.2014C78.4621 99.0031 78.0165 99.3006 77.7441 98.9784Z" fill="#4F4E4E"/>
<path d="M180.289 122.005C181.898 121.806 183.408 121.335 184.869 120.617C186.132 119.997 186.874 119.03 186.577 117.543C186.478 117.023 186.726 116.899 187.072 116.725C189.127 115.758 191.034 114.544 192.989 113.379C193.386 113.156 193.806 112.982 194.227 112.809C194.995 112.512 195.886 112.462 196.455 113.007C196.901 113.453 196.307 114.147 196.084 114.693C194.128 119.402 190.761 122.872 186.528 125.574C186.181 125.797 185.835 126.02 185.488 126.243C183.681 127.755 182.245 129.589 180.611 131.275C180.017 131.894 179.695 131.919 179.076 131.324C177.863 130.159 176.575 129.069 175.263 128.003C174.743 127.581 174.62 127.234 174.941 126.565C175.536 125.301 176.031 124.012 176.526 122.699C176.674 122.277 176.773 121.955 177.343 122.079C178.333 122.352 179.299 122.153 180.289 122.005Z" fill="#020A13"/>
<path d="M183.26 118.311C183.928 118.014 184.646 117.791 185.265 117.444C186.132 116.948 186.231 117.394 186.231 118.113C186.231 119.228 185.562 119.823 184.671 120.269C183.136 121.063 181.403 121.335 179.769 121.806C179.2 121.806 178.606 121.905 178.061 121.806C177.69 121.757 176.848 122.228 177.046 121.311C177.17 120.691 176.848 119.526 178.086 119.6C179.967 119.749 181.601 119.005 183.26 118.311Z" fill="#FCFCFC"/>
<path d="M85.9883 145.179C86.7062 145.179 87.4242 145.179 88.1422 145.179C87.4242 145.427 86.7062 145.378 85.9883 145.179Z" fill="#2A2821"/>
<path d="M133.795 186.299C133.944 184.713 134.117 183.151 134.265 181.565C136.271 181.169 138.227 180.574 140.133 179.83C141.519 182.086 143.277 183.92 145.802 184.936C146.768 185.333 147.758 185.481 148.649 184.862C149.343 184.366 149.862 184.465 150.506 184.862C152.586 186.076 154.814 186.869 157.067 187.662C158.008 187.985 158.874 188.456 159.394 189.373C159.765 190.017 159.642 190.364 158.899 190.612C155.779 191.603 152.586 191.703 149.367 191.331C147.238 191.083 145.183 190.463 143.153 189.794C140.95 188.728 138.524 188.927 136.221 188.48C136.073 188.456 135.899 188.456 135.726 188.456C133.721 188.257 133.721 188.257 133.795 186.299Z" fill="#020A13"/>
<path d="M145.084 181.59C146.371 182.433 147.683 183.251 149.02 184.118C148.401 184.812 147.584 185.035 146.817 184.812C144.019 184.019 141.865 182.408 140.727 179.607C141.915 178.938 142.88 178.938 143.574 180.375C143.846 180.921 144.465 181.342 145.084 181.59Z" fill="#FEFDFA"/>
<path d="M70.2672 61.1054C69.8959 60.4114 69.4007 59.7918 69.0294 59.1226C68.6085 58.3294 68.0638 57.8089 67.1478 57.7593C65.4396 57.7098 64.9444 56.5944 64.6721 55.1568C64.474 54.2149 64.6721 53.8679 65.6376 53.6697C69.1036 52.9261 70.7129 50.4971 70.2425 46.9527C69.9454 44.5484 69.0294 42.3425 68.0638 40.1613C67.2716 38.4015 66.0585 36.8648 65.3653 35.0554C65.1425 35.2041 65.1425 35.4272 65.1177 35.6751C64.8701 36.5674 65.6129 37.1127 65.91 37.7819C66.1575 38.3272 66.2318 38.699 65.5386 38.922C65.192 39.0212 64.6968 39.1451 64.8701 39.616C65.0434 40.1118 65.5634 39.963 65.9347 39.8887C66.5041 39.7895 67.024 39.7895 67.2964 40.3844C68.4104 42.863 69.5493 45.3664 69.4998 48.1672C69.475 50.7201 68.0143 52.4056 65.5386 53.0004C63.7561 53.4466 62.1221 53.2235 60.5871 52.1825C60.2653 51.9594 59.8692 51.5629 59.4978 51.9099C59.0522 52.3312 59.4731 52.7526 59.7206 53.0996C60.5376 54.2893 61.6517 55.1072 62.9391 55.7269C63.6323 56.0491 64.2265 56.4457 64.4493 57.2388C64.8454 58.6268 65.3158 59.9901 65.6624 61.4029C65.8357 62.0969 65.7614 62.7661 65.3653 63.3362C65.0434 63.2618 64.9197 63.0635 64.8454 62.89C63.8056 60.5106 61.924 59.5687 59.3988 59.3952C57.641 59.2713 57.6163 59.1226 57.3192 57.3875C56.824 54.3884 56.2051 51.3893 55.4871 48.415C55.2643 47.4732 54.8187 46.8535 53.7541 46.8287C52.9124 46.804 52.3677 46.3578 52.2934 45.4655C52.2687 45.1681 52.2192 44.8954 51.9468 44.6971C51.8726 44.6971 51.7735 44.6971 51.6993 44.6971C51.2289 46.2339 52.0211 47.6219 53.5808 47.6219C54.4226 47.6219 54.5711 47.9441 54.7444 48.6133C55.5367 51.5381 56.007 54.5372 56.626 57.5115C56.7498 58.1559 56.6012 58.5773 55.8833 58.5525C54.8187 58.5029 54.3483 59.0234 54.2245 60.0396C54.175 60.5354 54.0265 61.0063 53.9027 61.4772C53.7789 61.7251 53.9027 61.8242 54.1255 61.8738C54.4968 61.6755 54.6206 61.3037 54.6701 60.9567C54.8682 59.9157 55.4376 59.6926 56.4279 59.8909C57.8143 60.1884 59.2255 60.5106 60.6367 60.7089C61.6022 60.8328 61.9983 61.3037 61.8993 62.2456C61.9735 62.4191 62.0726 62.5678 62.2706 62.6174C62.7905 61.9729 63.1867 62.0721 63.5828 62.7909C63.9541 63.4601 64.3255 64.1541 64.8206 64.749C65.1425 65.1208 65.4148 65.666 66.0833 65.5421C66.1575 65.4678 66.2318 65.4182 66.3308 65.3438C66.3556 65.0464 66.2318 64.7738 66.2566 64.5011C66.3556 63.0387 66.925 62.6422 68.2867 63.0883C68.9799 63.3114 69.6731 63.584 70.3415 63.8567C71.0347 64.1293 71.7032 64.1293 72.2726 63.5592C72.3468 63.4849 72.4211 63.4353 72.5201 63.361C71.5051 62.9396 70.8119 62.1217 70.2672 61.1054ZM67.5934 58.9243C67.2716 59.7422 66.925 60.5601 66.5289 61.5764C66.1328 60.2379 65.7862 59.0978 65.4396 57.9328C66.1328 57.7593 66.6774 58.1311 67.2716 58.2055C67.742 58.2551 67.742 58.5773 67.5934 58.9243Z" fill="#16140D"/>
<path d="M46.5995 75.0847C46.5252 76.2744 46.2529 77.4146 45.6587 78.4804C45.7825 77.2907 46.0796 76.1505 46.5995 75.0847Z" fill="#00B1B1"/>
<path d="M151.174 68.2686C150.679 69.0369 150.332 69.6566 149.912 70.2019C148.302 72.2839 147.535 74.5394 148.03 77.2163C148.278 78.5052 147.931 78.7034 146.619 78.4804C146.198 78.406 146.049 78.2325 146.074 77.8607C146.074 77.7368 146.099 77.6129 146.049 77.4889C144.96 73.771 147.238 71.2677 149.218 68.6404C149.713 68.0207 150.357 68.3677 151.174 68.2686Z" fill="#00B1B1"/>
<path d="M147.139 69.4583C146.371 69.8549 145.926 70.0532 145.505 70.3011C145.158 70.5241 144.762 70.8711 144.96 71.2925C145.48 72.4574 144.688 72.2344 144.093 72.16C142.014 71.8626 139.959 71.5404 137.632 71.1934C138.573 70.078 139.39 69.0866 140.207 68.0951C140.429 67.8225 140.677 67.8968 140.974 67.9712C142.88 68.566 144.811 69.0866 147.139 69.4583Z" fill="#FCFCFC"/>
<path d="M150.209 72.2839C151.348 71.6395 152.462 71.3173 151.818 69.8797C151.694 69.607 152.19 69.3344 152.61 69.2848C154.962 68.913 157.314 68.5164 159.765 68.1199C158.948 69.6814 158.379 71.1933 156.25 71.3668C154.343 71.5155 152.462 72.0608 150.209 72.2839Z" fill="#FBFBFB"/>
<path d="M162.266 68.8883C161.176 70.2515 160.161 71.5404 159.146 72.8292C158.998 73.0275 158.849 73.201 158.552 73.2506C155.557 73.6719 152.536 74.0189 149.293 74.2172C149.763 73.4984 150.358 73.6224 150.828 73.5728C153.205 73.3249 155.532 72.8044 157.884 72.3583C158.701 72.2096 159.221 71.8378 159.592 71.119C159.889 70.5737 160.285 70.078 160.558 69.5327C160.904 68.8883 161.375 68.6404 162.266 68.8883Z" fill="#00B1B1"/>
<path d="M152.635 68.4668C155.606 67.9215 158.552 67.3762 161.795 66.7566C160.73 68.4668 159.765 70.0036 158.799 71.5403C158.626 71.8377 158.279 71.7881 158.032 71.8625C155.507 72.4574 152.957 72.9035 150.382 73.2009C150.233 73.2257 150.085 73.1762 149.812 73.1266C150.407 72.4821 151.125 72.6556 151.719 72.5813C153.6 72.3086 155.457 71.9121 157.314 71.5899C158.18 71.4411 158.725 71.0693 159.121 70.301C159.592 69.4335 160.136 68.6155 160.805 67.525C157.933 67.8472 155.383 68.6155 152.759 68.8138C152.66 68.6899 152.635 68.566 152.635 68.4668Z" fill="#00B1B1"/>
<path d="M163.305 73.3001C162.389 74.8617 161.523 76.3736 160.632 77.8607C160.434 78.183 160.062 78.1334 159.74 78.1334C156.646 78.1334 153.576 78.1334 150.481 78.1334C150.159 78.1334 149.615 78.3317 149.639 77.7616C149.664 77.2907 150.159 77.489 150.456 77.489C153.081 77.5137 155.73 77.5385 158.354 77.6625C159.419 77.712 160.137 77.4642 160.656 76.4975C161.152 75.5557 161.82 74.7129 162.439 73.8206C162.588 73.5728 162.687 73.1762 163.305 73.3001Z" fill="#00B1B1"/>
<path d="M144.787 73.0771C141.692 72.9532 138.969 72.3583 136.022 71.7635C137.384 70.1276 138.622 68.6404 139.86 67.1533C140.132 66.831 140.355 66.8558 140.726 66.9798C142.93 67.6986 145.207 68.2438 147.51 68.6156C147.262 69.2105 146.891 68.9626 146.544 68.9131C144.762 68.6156 143.004 68.1695 141.271 67.6242C140.627 67.4011 140.157 67.4259 139.687 68.0456C139.018 68.9874 138.251 69.8549 137.483 70.6977C136.889 71.3421 137.161 71.5652 137.854 71.6891C139.637 71.9617 141.42 72.2344 143.227 72.507C143.672 72.5814 144.168 72.507 144.787 73.0771Z" fill="#00B1B1"/>
<path d="M162.934 72.3087C161.919 73.7958 160.904 75.283 159.914 76.7949C159.715 77.0923 159.468 77.2163 159.097 77.2163C156.051 77.1667 153.006 77.1171 149.961 77.0428C149.738 77.0428 149.565 76.9684 149.491 76.6214C149.738 76.324 150.134 76.4727 150.456 76.4727C153.18 76.4975 155.903 76.4975 158.601 76.5718C159.295 76.5966 159.715 76.3735 160.087 75.7787C160.879 74.5146 161.746 73.3001 162.563 72.0608C162.711 72.1104 162.81 72.2095 162.934 72.3087Z" fill="#00B1B1"/>
<path d="M162.315 71.5651C161.399 72.9531 160.458 74.3659 159.567 75.7539C159.344 76.0761 159.072 76.1505 158.725 76.1505C155.73 76.0761 152.709 76.0266 149.714 75.9522C149.615 75.9522 149.54 75.8531 149.342 75.7539C149.738 75.3574 150.159 75.4813 150.531 75.4813C153.13 75.3821 155.705 75.2582 158.304 75.1839C159.097 75.1591 159.592 74.8864 160.013 74.2172C160.632 73.201 161.325 72.2591 161.993 71.2925C162.092 71.3916 162.216 71.4908 162.315 71.5651Z" fill="#00B1B1"/>
<path d="M162.018 70.425C161.126 71.7386 160.235 73.0523 159.344 74.3907C159.195 74.6138 158.997 74.7129 158.725 74.7129C155.655 74.7873 152.56 75.1343 149.367 74.9856C149.713 74.4403 150.184 74.5642 150.58 74.5394C153.179 74.4155 155.729 74.0189 158.304 73.7215C158.898 73.6471 159.27 73.3745 159.616 72.9284C160.309 72.0113 161.052 71.119 161.77 70.2267C161.869 70.301 161.943 70.3506 162.018 70.425Z" fill="#00B1B1"/>
<path d="M148.674 68.5908C146.124 71.3668 144.638 74.4651 145.728 78.3813C143.698 76.5471 145.48 70.7472 148.674 68.5908Z" fill="#E9E9E9"/>
<path d="M152.09 68.4916C151.496 69.4583 150.952 70.4497 150.283 71.3668C149.119 73.0027 148.624 74.7377 149.045 76.7206C149.144 77.1667 149.119 77.6129 149.144 78.0838C149.144 78.2573 149.119 78.406 148.897 78.4308C148.674 78.4556 148.624 78.2821 148.6 78.1334C148.451 76.0513 147.882 73.9693 149.293 72.036C150.184 70.8215 150.952 69.5326 151.768 68.2686C151.868 68.3181 151.991 68.3925 152.09 68.4916Z" fill="#EEEEEE"/>
<path d="M144.341 73.5975C143.202 74.1676 142.113 73.8206 140.999 73.7214C139.563 73.5975 138.152 73.3992 136.741 73.2009C136.518 73.1761 136.047 73.3248 136.122 72.8539C136.171 72.5069 136.468 72.3086 136.864 72.383C138.028 72.5813 139.192 72.8043 140.38 72.9778C141.692 73.2257 143.029 73.3992 144.341 73.5975Z" fill="#00B1B1"/>
<path d="M135.602 77.2411C136.419 76.6463 143.45 77.1172 144.539 77.8112C141.593 77.9351 138.697 77.5386 135.602 77.2411Z" fill="#00B1B1"/>
<path d="M135.85 76.1752C136.122 75.5308 136.592 75.7043 136.964 75.7291C139.217 75.9026 141.47 76.0761 143.698 76.2744C143.97 76.2992 144.341 76.2496 144.416 76.6214C144.465 76.9684 144.143 76.9684 143.896 76.9436C141.247 76.671 138.548 76.5966 135.85 76.1752Z" fill="#00B1B1"/>
<path d="M144.341 74.8368C141.544 74.8368 138.746 74.6386 135.85 74.2172C136.543 73.6471 142.559 74.0685 144.341 74.8368Z" fill="#00B1B1"/>
<path d="M144.341 75.8532C141.544 75.754 138.746 75.5062 135.949 75.1591C135.949 75.0352 135.973 74.8865 135.973 74.7626C138.771 74.9856 141.569 75.2087 144.366 75.4318C144.341 75.5805 144.341 75.7292 144.341 75.8532Z" fill="#00B1B1"/>
<path d="M154.938 78.4805C153.923 79.1249 153.106 79.001 152.14 78.4805C153.106 78.4805 153.898 78.4805 154.938 78.4805Z" fill="#00B1B1"/>
<path d="M118.891 80.8846C118.074 81.2812 117.257 81.6034 116.366 81.1325C117.183 80.8599 118.024 80.9342 118.891 80.8846Z" fill="#020A13"/>
<path d="M65.1427 131.721C65.1179 133.902 65.0436 136.083 65.6378 138.19C65.4645 138.264 65.316 138.314 65.1427 138.388C64.7465 136.38 64.5237 134.373 64.6723 132.34C64.697 131.869 64.6475 131.349 64.8951 130.903C64.9694 131.2 64.8456 131.522 65.1427 131.721Z" fill="#50410F"/>
<path d="M74.8226 99.4741C71.9012 99.6228 69.0046 99.5485 66.108 98.8545C61.5031 97.7391 60.092 94.0708 60.3148 90.3033C60.4633 87.8743 61.3051 85.6435 62.4192 83.512C63.1866 82.0248 63.9541 80.5129 64.7463 79.0257C65.5386 77.5138 66.7022 77.0676 67.841 77.7864C69.1531 78.6043 69.5245 80.2898 68.6828 81.5787C68.1381 82.4214 67.2716 82.7932 66.4298 83.2393C64.8701 84.0325 64.6226 84.5034 65.0682 86.1888C65.3158 87.1059 65.1425 87.8743 64.5483 88.5931C64.0036 89.2623 63.459 89.9563 63.0133 90.6751C62.3449 91.7905 62.4192 92.881 63.3104 93.8477C64.0284 94.5913 64.6226 95.434 65.2415 96.2519C66.826 98.3835 69.0541 99.1271 71.6041 99.1767C72.6687 99.2015 73.7332 99.2015 74.8226 99.2262C74.8721 99.2758 74.8968 99.3254 74.8968 99.3997C74.8473 99.4493 74.8473 99.4741 74.8226 99.4741Z" fill="#010101"/>
<path d="M74.8228 99.4741C74.8228 99.3998 74.8228 99.3006 74.8228 99.2263C75.7883 98.9784 76.7786 99.0528 77.7689 98.9784C78.0907 99.1271 78.4868 98.9288 78.7839 99.2263C77.447 99.2758 76.1349 99.5981 74.8228 99.4741Z" fill="#090908"/>
<path d="M135.824 124.186C135.478 127.11 134.289 129.738 132.903 132.266C132.656 132.712 132.21 133.01 131.665 132.886C131.145 132.762 130.799 132.39 130.65 131.894C130.378 131.051 130.576 130.258 131.022 129.54C132.16 127.681 133.175 125.747 134.141 123.789C134.389 123.293 134.587 122.525 135.28 122.699C135.948 122.872 135.725 123.665 135.824 124.186Z" fill="#010100"/>
<path d="M89.0335 130.035C86.4093 129.961 82.25 126.788 81.5321 124.285C81.3835 123.739 81.235 123.095 81.8539 122.723C82.4233 122.376 82.9927 122.649 83.4384 123.021C83.7355 123.268 83.983 123.615 84.2306 123.963C85.518 125.673 86.9787 127.234 88.8602 128.325C89.083 128.449 89.2811 128.597 89.4544 128.746C89.7515 129.019 90.1724 129.217 90.0981 129.713C90.0733 129.985 89.801 130.035 89.0335 130.035Z" fill="#FEFEFD"/>
<path d="M95.9906 132.737C94.8022 132.588 93.5891 132.39 92.5988 131.547C92.2522 131.274 91.9551 130.927 92.2522 130.506C92.4998 130.159 92.9207 129.936 93.3415 130.134C94.5546 130.655 95.7182 131.225 96.9066 131.795C97.1294 131.894 97.377 132.117 97.2532 132.39C97.0056 132.91 96.461 132.687 95.9906 132.737Z" fill="#FEFDFA"/>
<path d="M63.979 48.4646C65.5387 48.3158 67.0242 48.0432 68.262 47.027C67.5688 48.3654 65.8853 48.9603 63.979 48.4646Z" fill="#3C300B"/>
<path d="M64.6973 40.9545C65.341 42.0946 66.059 43.21 66.6532 44.3997C66.9255 44.9202 66.6779 45.1185 65.6134 45.4407C66.6532 44.8707 66.1828 44.2758 65.7867 43.6314C65.2915 42.8134 64.8459 41.9707 64.3755 41.1528C64.4745 41.0784 64.5735 41.004 64.6973 40.9545Z" fill="#241E07"/>
<path d="M62.7163 40.4835C62.0974 41.351 61.2061 41.4502 60.2158 41.2519C61.0576 41.004 61.8746 40.7314 62.7163 40.4835Z" fill="#382D0A"/>
<path d="M54.4969 45.4408C54.0265 45.2177 53.5809 45.1682 52.8877 45.5152C53.779 44.5733 53.8037 44.5733 54.4969 45.4408Z" fill="#41350C"/>
<path d="M142.361 71.0199C141.668 70.8464 140.851 70.8216 140.801 70.0037C140.752 69.4088 141.371 69.2601 141.89 69.2849C142.559 69.3097 143.302 69.4336 143.376 70.2516C143.425 70.896 142.757 70.8712 142.361 71.0199Z" fill="#34332F"/>
<path d="M154.888 71.1438C154.442 71.0942 153.897 71.0694 153.947 70.5489C154.046 69.6814 154.838 69.607 155.507 69.5079C155.952 69.4583 156.571 69.5327 156.472 70.1275C156.348 70.9703 155.531 70.995 154.888 71.1438Z" fill="#34322C"/>
<path d="M142.955 70.2762C142.237 70.6232 141.742 70.4993 141.271 70.0284C142.138 69.7062 142.138 69.7062 142.955 70.2762Z" fill="#00B1B1"/>
<path d="M154.417 70.524C154.913 70.0035 155.383 69.954 156.002 70.1027C155.581 70.5984 155.16 70.7967 154.417 70.524Z" fill="#00B1B1"/>
<path d="M139.875 30.0475C140.429 29.6958 140.123 28.9672 140.259 28.3263C140.327 28.0578 140.394 27.7893 140.462 27.5208C140.566 27.5213 140.645 27.5155 140.748 27.5161C140.85 27.932 140.982 28.3299 141.01 28.7272C141.106 30.5974 141.099 32.4671 141.225 34.3191C141.277 35.1381 141.48 35.9701 141.69 36.7777C142.019 38.0319 143.299 38.4903 144.307 38.593C144.483 38.6122 144.678 38.4543 144.909 38.3577C145.181 38.8173 145.624 38.8011 146.111 38.7179C146.488 38.6587 146.865 38.5994 147.235 38.6685C147.435 38.6939 147.574 38.9634 147.743 39.1109C147.585 39.2262 147.457 39.4272 147.292 39.4631C146.502 39.6242 145.7 39.7302 144.891 39.8607C142.107 40.342 140.481 42.7842 140.331 45.4231C140.253 46.8586 140.223 48.3066 140.114 49.7603C140.101 50.0168 139.845 50.2111 139.686 50.4303C139.59 50.1976 139.432 50.0013 139.415 49.7629C139.269 48.3997 139.262 46.9943 138.976 45.6731C138.504 43.4466 136.641 41.5128 134.152 41.0301C134.006 40.9927 133.842 41.0286 133.733 40.9486C133.491 40.7824 133.285 40.5737 133.073 40.3893C133.28 40.1826 133.452 39.9146 133.689 39.7935C134.614 39.3031 135.624 38.9904 136.471 38.4018C138.627 36.9276 139.693 34.7576 139.976 32.2049C140.002 31.8995 140.058 31.576 140.059 31.2644C140.024 30.8915 139.934 30.5305 139.875 30.0475ZM143.496 39.4506C142.501 38.9874 141.44 38.5851 141.055 37.4467C140.743 36.4308 140.517 35.3849 140.289 34.4428C139.926 35.6753 139.362 36.8823 138.375 37.8246C137.393 38.7424 136.315 39.5315 135.4 40.2846C136.127 40.7831 137.037 41.2764 137.714 41.9702C138.416 42.6702 138.911 43.5769 139.515 44.3559C140.535 41.5502 140.681 41.3798 143.496 39.4506Z" fill="black"/>
<g clip-path="url(#clip1)">
<path d="M180.696 61.9967C180.696 62.47 180.748 62.9959 180.696 63.4166C180.593 63.8373 180.336 64.1528 180.13 64.5735C179.718 64.258 179.1 64.0476 178.945 63.6269C178.739 62.9433 178.842 62.1545 178.791 61.4182C178.739 60.682 178.584 59.8932 178.687 59.1569C178.739 58.7888 179.151 58.3681 179.409 58C179.718 58.2629 180.284 58.5259 180.336 58.8414C180.593 59.8932 180.645 60.9449 180.696 61.9967C180.748 61.9441 180.748 61.9441 180.696 61.9967Z" fill="black"/>
<path d="M181.263 70.0427C181.263 70.3057 181.418 70.6212 181.315 70.8315C181.16 71.1997 180.903 71.6729 180.645 71.7255C180.388 71.7781 179.821 71.3574 179.77 71.0945C179.563 69.9901 179.46 68.8332 179.46 67.7288C179.46 67.4133 180.027 67.1504 180.336 66.8348C180.542 67.1504 180.903 67.4133 181.006 67.7814C181.109 68.5177 181.16 69.3065 181.263 70.0427Z" fill="black"/>
<path d="M174.669 67.1503C174.566 67.0978 174.103 66.94 174 66.6771C173.948 66.4141 174.154 65.7305 174.36 65.6779C175.597 65.4149 176.833 65.2572 178.069 65.2046C178.224 65.2046 178.584 65.7831 178.533 65.9934C178.43 66.3089 178.121 66.6771 177.812 66.7822C176.884 66.94 175.906 66.9926 174.669 67.1503Z" fill="black"/>
<path d="M184.714 64.3632C185.332 64.6787 186.517 65.0468 186.517 65.3623C186.466 66.5193 185.332 66.2563 184.611 66.3615C183.89 66.4667 183.117 66.3089 182.396 66.2037C182.19 66.1512 181.933 65.7304 181.933 65.5201C181.933 65.3097 182.293 65.0468 182.551 64.9942C183.22 64.8365 183.89 64.7839 184.56 64.6787C184.611 64.5209 184.663 64.4683 184.714 64.3632Z" fill="black"/>
</g>
</g>
<g clip-path="url(#clip2)">
<path d="M18.0003 139.356C18.1587 137.106 19.8219 135.409 21.7227 135.527C22.9107 135.606 24.4155 137.58 24.2967 138.962C24.1779 140.778 22.5543 142.159 20.6139 142.001C19.1091 141.922 17.9211 140.699 18.0003 139.356ZM19.3071 139.12C19.2675 139.909 20.2575 140.817 21.1683 140.817C22.0395 140.817 22.7523 139.988 22.7919 138.922C22.8315 137.856 22.0395 136.948 21.0495 136.909C20.0595 136.869 19.3467 137.777 19.3071 139.12Z" fill="#020A13"/>
<path d="M36.2953 124C37.6813 124 38.3941 124.671 38.3941 125.934C38.3941 127.04 37.6021 127.829 36.5329 127.79C35.4241 127.79 34.4737 126.842 34.4341 125.816C34.3945 124.711 35.1469 124 36.2953 124Z" fill="#020A13"/>
</g>
<defs>
<clipPath id="clip0">
<rect width="153" height="165" fill="white" transform="translate(44 27)"/>
</clipPath>
<clipPath id="clip1">
<rect width="12.5172" height="13.7255" fill="white" transform="translate(174 58)"/>
</clipPath>
<clipPath id="clip2">
<rect width="20.394" height="18.0409" fill="white" transform="translate(18 124)"/>
</clipPath>
</defs>
</svg>
