<svg width="133" height="112" viewBox="0 0 133 112" fill="none" xmlns="http://www.w3.org/2000/svg">
<path fill-rule="evenodd" clip-rule="evenodd" d="M25.2144 33.2426L10.2178 33.5619C8.00924 33.609 6.25688 35.4376 6.30391 37.6462L7.70906 103.631C7.7561 105.84 9.58471 107.592 11.7933 107.545L63.7815 106.438C65.9901 106.391 67.7425 104.562 67.6955 102.354L67.2909 83.3581L30.2993 84.1459C28.0907 84.1929 26.2621 82.4405 26.2151 80.2319L25.2144 33.2426Z" fill="#020A13" fill-opacity="0.65"/>
<g clip-path="url(#clip0)">
<path d="M3.2559 0.488804C3.83854 0.37341 3.86628 1.80565 3.85241 2.10432C3.83854 2.41656 4.33794 2.41656 4.34488 2.10432C4.36568 1.40517 4.19922 -0.196772 3.11718 0.0204399C2.81893 0.0815308 2.95071 0.549895 3.2559 0.488804Z" fill="#020A13"/>
<path d="M7.39686 1.06572C8.19452 1.03857 8.98524 0.936753 9.76208 0.773844C10.0742 0.705965 9.94242 0.24439 9.6303 0.305481C8.89507 0.461602 8.14596 0.549844 7.39686 0.576996C7.08473 0.597359 7.0778 1.0793 7.39686 1.06572Z" fill="#020A13"/>
<path d="M12.9459 0.678924C13.6187 0.807894 14.1806 1.13371 14.6245 1.6428C14.8326 1.88038 15.1794 1.5342 14.9713 1.30341C14.4788 0.733227 13.8199 0.353106 13.0777 0.21056C12.7656 0.149469 12.6338 0.617833 12.9459 0.678924Z" fill="#020A13"/>
<path d="M17.9393 1.85997C18.0641 1.24906 18.5358 0.787482 19.16 0.672088C19.4722 0.610997 19.3404 0.142633 19.0282 0.203724C18.2445 0.353058 17.6202 0.970755 17.4607 1.731C17.3983 2.03645 17.8768 2.16542 17.9393 1.85997Z" fill="#020A13"/>
<path d="M23.0454 0.87575C24.0026 0.638174 24.9667 0.570295 25.9517 0.672113C26.2707 0.706053 26.2638 0.217326 25.9517 0.190174C24.932 0.0883559 23.9124 0.163023 22.9136 0.414174C22.6084 0.482053 22.7333 0.950416 23.0454 0.87575Z" fill="#020A13"/>
<path d="M28.7043 0.617825C28.9748 1.45273 28.087 1.95504 27.4627 2.28764C27.1853 2.43698 27.435 2.85783 27.7124 2.70849C28.5448 2.26728 29.5297 1.55455 29.1829 0.495643C29.0858 0.196976 28.6072 0.319158 28.7043 0.617825Z" fill="#020A13"/>
<path d="M30.5154 2.60656C30.3143 3.22425 30.0091 3.78086 29.579 4.27638C29.3709 4.51395 29.7247 4.85334 29.9258 4.61577C30.4114 4.05916 30.7651 3.43468 30.994 2.73553C31.0842 2.44365 30.6056 2.31468 30.5154 2.60656Z" fill="#020A13"/>
<path d="M29.2945 8.03008C29.7106 8.22014 30.0713 8.49166 30.3488 8.84463C30.543 9.08899 30.9661 8.84463 30.7788 8.60026C30.4459 8.17941 30.0436 7.84002 29.5442 7.60923C29.2598 7.48026 29.0031 7.90111 29.2945 8.03008Z" fill="#020A13"/>
<path d="M30.3705 11.329C30.211 11.9671 29.878 12.5169 29.3856 12.9717C29.1567 13.1889 29.5035 13.5283 29.7324 13.3111C30.2803 12.802 30.6618 12.1707 30.8422 11.4512C30.9254 11.1525 30.4468 11.0236 30.3705 11.329Z" fill="#020A13"/>
<path d="M29.1908 15.9515C29.5099 16.4538 29.7249 16.9969 29.8289 17.5806C29.8844 17.8861 30.363 17.7571 30.3075 17.4516C30.1965 16.8272 29.9607 16.2434 29.6208 15.7072C29.4474 15.4424 29.0174 15.6868 29.1908 15.9515Z" fill="#020A13"/>
<path d="M30.7725 21.3479C30.1205 20.9339 29.4616 20.5266 28.8096 20.1126C28.5391 19.9429 28.2894 20.3637 28.5599 20.5334C29.2119 20.9475 29.8708 21.3547 30.5228 21.7688C30.7933 21.9317 31.043 21.5109 30.7725 21.3479Z" fill="#020A13"/>
<path d="M29.7455 23.0788C29.3363 23.5879 28.8161 23.9816 28.1918 24.2056C27.8936 24.3142 28.0254 24.7826 28.3236 24.674C29.0242 24.4228 29.6345 24.002 30.0993 23.425C30.2865 23.1806 29.9397 22.8345 29.7455 23.0788Z" fill="#020A13"/>
<path d="M29.8846 26.8258C30.0164 27.0973 30.0997 27.3892 30.1205 27.6878C30.1482 27.9933 30.6407 28.0001 30.6129 27.6878C30.5852 27.3009 30.4811 26.9344 30.3077 26.5814C30.176 26.2963 29.7459 26.5475 29.8846 26.8258Z" fill="#020A13"/>
<path d="M27.6567 27.1516C27.1018 26.3574 26.4983 25.5971 25.8602 24.864C25.6521 24.6265 25.3053 24.9726 25.5134 25.2034C26.1307 25.9026 26.6995 26.6289 27.2335 27.3891C27.4069 27.6539 27.837 27.4095 27.6567 27.1516Z" fill="#020A13"/>
<path d="M24.2456 26.5C23.6491 26.7036 23.0388 26.8869 22.4214 27.043C22.1162 27.1177 22.2411 27.586 22.5532 27.5114C23.1705 27.3553 23.774 27.1788 24.3774 26.9683C24.6757 26.8665 24.5439 26.3982 24.2456 26.5Z" fill="#020A13"/>
<path d="M18.9325 26.3099C19.0157 25.665 19.0989 25.0202 19.1891 24.3753C19.2307 24.0699 18.7313 24.0699 18.6966 24.3753C18.6134 25.0202 18.5302 25.665 18.44 26.3099C18.3984 26.6153 18.8908 26.6153 18.9325 26.3099Z" fill="#020A13"/>
<path d="M15.763 26.2828C16.1861 26.7443 16.5398 27.2534 16.8242 27.81C16.9698 28.0883 17.393 27.844 17.2542 27.5657C16.949 26.9751 16.5676 26.4321 16.1167 25.9366C15.8947 25.7058 15.5479 26.052 15.763 26.2828Z" fill="#020A13"/>
<path d="M13.4862 27.525C13.0145 27.43 12.6469 27.1042 12.5221 26.6494C12.4388 26.3507 11.9672 26.4729 12.0435 26.7784C12.2099 27.3893 12.7163 27.8712 13.3544 27.9934C13.6665 28.0545 13.7983 27.5861 13.4862 27.525Z" fill="#020A13"/>
<path d="M8.29212 27.4638C9.24931 27.3144 10.0747 26.7646 10.581 25.9501C10.7475 25.6853 10.3175 25.441 10.151 25.7057C9.70709 26.4184 8.99267 26.8664 8.1534 26.9954C7.84821 27.0429 7.97999 27.5113 8.29212 27.4638Z" fill="#020A13"/>
<path d="M5.1702 27.1991C5.1702 26.7172 5.1702 26.2285 5.1702 25.7465C5.1702 25.4343 4.67773 25.4343 4.67773 25.7465C4.67773 26.2285 4.67773 26.7172 4.67773 27.1991C4.67773 27.5114 5.1702 27.5114 5.1702 27.1991Z" fill="#020A13"/>
<path d="M2.46551 26.0113C2.9441 25.2782 3.47125 24.579 4.04001 23.9138C4.24116 23.6762 3.89435 23.33 3.6932 23.5744C3.0967 24.2736 2.54181 25.0067 2.0424 25.7737C1.869 26.0316 2.29904 26.2692 2.46551 26.0113Z" fill="#020A13"/>
<path d="M2.98565 20.7913C3.46424 21.09 3.98445 21.3139 4.52547 21.4701C4.83066 21.5583 4.96245 21.09 4.65726 21.0017C4.15092 20.8524 3.67926 20.6487 3.23535 20.3704C2.96484 20.2075 2.71514 20.6284 2.98565 20.7913Z" fill="#020A13"/>
<path d="M6.28697 24.0971C6.55748 24.2871 6.7725 24.5383 6.93204 24.8234C7.08463 25.0949 7.51467 24.8505 7.36208 24.579C7.16093 24.2193 6.87655 23.9206 6.53668 23.6762C6.4257 23.6016 6.25923 23.6559 6.1968 23.7645C6.12744 23.8867 6.18293 24.0224 6.28697 24.0971Z" fill="#020A13"/>
<path d="M3.74088 18.2799C3.42876 17.7369 3.19293 17.1667 3.01952 16.5626C2.93629 16.2639 2.4577 16.3929 2.54093 16.6916C2.72127 17.3296 2.97791 17.9405 3.31084 18.5243C3.47037 18.7958 3.89348 18.5514 3.74088 18.2799Z" fill="#020A13"/>
<path d="M3.93656 14.5261C4.48452 14.5669 5.02554 14.5397 5.57349 14.4515C5.88562 14.404 5.75383 13.9356 5.4417 13.9831C4.9423 14.0646 4.4429 14.0781 3.93656 14.0374C3.6175 14.0171 3.6175 14.499 3.93656 14.5261Z" fill="#020A13"/>
<path d="M4.72697 12.4694C4.35241 11.9535 3.97093 11.4376 3.59638 10.9217C3.41604 10.6706 2.98599 10.9149 3.16633 11.1661C3.54089 11.682 3.92237 12.1979 4.29692 12.7137C4.4842 12.9717 4.91424 12.7273 4.72697 12.4694Z" fill="#020A13"/>
<path d="M2.79762 8.23383C3.06813 7.88086 3.408 7.58899 3.78256 7.35141C4.05307 7.18171 3.80336 6.76765 3.53286 6.93056C3.07507 7.21565 2.69358 7.56862 2.36758 7.98268C2.17337 8.24062 2.60341 8.4782 2.79762 8.23383Z" fill="#020A13"/>
<path d="M3.06205 4.50048C3.50596 4.68375 3.90826 4.93491 4.262 5.25394C4.49783 5.46436 4.84463 5.12497 4.60881 4.91454C4.22038 4.56836 3.79034 4.29006 3.31175 4.08642C3.02737 3.95745 2.77073 4.3783 3.06205 4.50048Z" fill="#020A13"/>
<path d="M6.89165 4.02531C7.05812 3.60446 7.55059 3.37367 7.98756 3.48228C8.29969 3.55694 8.43148 3.08858 8.11935 3.01391C7.39799 2.83743 6.67663 3.22434 6.41306 3.89634C6.30208 4.18822 6.78067 4.3104 6.89165 4.02531Z" fill="#020A13"/>
<path d="M12.0305 3.4144C11.9404 3.82167 11.7739 4.195 11.5103 4.52082C11.3161 4.76519 11.6629 5.10458 11.8571 4.86022C12.1762 4.46652 12.3982 4.0321 12.5022 3.54337C12.5785 3.23791 12.0999 3.10895 12.0305 3.4144Z" fill="#020A13"/>
<path d="M15.4008 5.34889C16.1499 5.26743 16.8574 5.03664 17.5024 4.65652C17.7729 4.49361 17.5232 4.07276 17.2527 4.23567C16.684 4.57507 16.0666 4.79228 15.4008 4.86695C15.0886 4.90089 15.0817 5.38283 15.4008 5.34889Z" fill="#020A13"/>
<path d="M20.8396 3.65206C21.443 3.58418 22.0465 3.52309 22.6499 3.45521C22.962 3.42127 22.969 2.93933 22.6499 2.97327C22.0465 3.04115 21.443 3.10224 20.8396 3.17012C20.5274 3.19727 20.5274 3.686 20.8396 3.65206Z" fill="#020A13"/>
<path d="M23.9333 3.75378C24.2177 4.3579 24.6131 4.89415 25.1055 5.34893C25.3344 5.56615 25.6882 5.21996 25.4523 5.00954C24.9876 4.5819 24.62 4.0796 24.3564 3.50942C24.2246 3.23112 23.8015 3.47548 23.9333 3.75378Z" fill="#020A13"/>
<path d="M27.2686 6.21773C27.2201 6.80149 26.9981 7.32415 26.6444 7.79252C26.4571 8.04367 26.8802 8.28124 27.0744 8.03688C27.4837 7.50064 27.7056 6.88294 27.7681 6.21773C27.7889 5.90548 27.2964 5.91227 27.2686 6.21773Z" fill="#020A13"/>
<path d="M28.2256 9.84942C28.2395 10.2431 28.1007 10.5961 27.8233 10.8744C27.6013 11.0984 27.9481 11.4378 28.1701 11.2138C28.5377 10.8472 28.7389 10.3585 28.7181 9.84263C28.7111 9.53717 28.2117 9.53718 28.2256 9.84942Z" fill="#020A13"/>
<path d="M25.8608 13.732C26.381 14.1664 26.7972 14.6959 27.0608 15.3136C27.1856 15.5987 27.6642 15.4697 27.5394 15.1846C27.2411 14.4855 26.8041 13.8814 26.2145 13.3926C25.9718 13.189 25.618 13.5284 25.8608 13.732Z" fill="#020A13"/>
<path d="M26.5276 17.5942C26.5761 18.0422 26.5276 18.4766 26.3819 18.9043C26.2778 19.1961 26.7564 19.3251 26.8605 19.0332C27.027 18.5717 27.0824 18.0829 27.027 17.5942C26.9853 17.2887 26.4929 17.2887 26.5276 17.5942Z" fill="#020A13"/>
<path d="M25.3281 22.5427C26.0911 22.8006 26.9442 22.5766 27.4714 21.9861C27.6795 21.7485 27.3327 21.4091 27.1246 21.6467C26.7015 22.1218 26.0703 22.2915 25.4668 22.0811C25.1616 21.9725 25.0299 22.4408 25.3281 22.5427Z" fill="#020A13"/>
<path d="M23.2527 23.0993C23.1903 23.3436 22.6215 23.4794 22.4134 23.5676C22.0874 23.7034 21.7684 23.8459 21.4424 23.9817C21.151 24.1039 21.4007 24.5247 21.6921 24.4026C22.1498 24.2057 22.6146 24.0089 23.0723 23.812C23.3637 23.683 23.6342 23.5609 23.7243 23.235C23.8076 22.9228 23.3359 22.7938 23.2527 23.0993Z" fill="#020A13"/>
<path d="M24.1549 20.3298C24.2312 19.9021 24.252 19.4813 24.2104 19.0537C24.1827 18.7482 23.6833 18.7414 23.718 19.0537C23.7526 19.4406 23.7457 19.8207 23.6763 20.2008C23.6209 20.5063 24.0994 20.6352 24.1549 20.3298Z" fill="#020A13"/>
<path d="M23.6282 14.6823C23.8779 15.3136 23.6906 16.0399 23.1149 16.4336C22.8583 16.61 23.101 17.0309 23.3646 16.8544C24.1068 16.3385 24.4397 15.4018 24.1068 14.5533C23.9958 14.2682 23.5172 14.3904 23.6282 14.6823Z" fill="#020A13"/>
<path d="M24.6194 9.27909C24.8136 9.85606 24.7512 10.4262 24.4322 10.9489C24.2657 11.2136 24.6957 11.458 24.8622 11.1933C25.2437 10.5688 25.3339 9.84249 25.098 9.15012C24.994 8.85146 24.5154 8.98043 24.6194 9.27909Z" fill="#020A13"/>
<path d="M23.2333 7.35134C23.2541 6.85582 23.157 6.38746 22.9489 5.93946C22.8171 5.65437 22.394 5.89873 22.5189 6.18382C22.6853 6.55716 22.7547 6.95085 22.7339 7.35134C22.72 7.66358 23.2194 7.65679 23.2333 7.35134Z" fill="#020A13"/>
<path d="M19.5904 5.55247C19.3477 5.93259 18.8829 6.12944 18.439 6.03441C18.1269 5.97332 17.9951 6.44168 18.3072 6.50277C18.9801 6.63853 19.6529 6.36701 20.0205 5.79683C20.1939 5.53889 19.7638 5.29453 19.5904 5.55247Z" fill="#020A13"/>
<path d="M11.933 6.86262C12.3145 7.16808 12.7584 7.33099 13.2509 7.35135C13.57 7.35814 13.57 6.8762 13.2509 6.86941C12.8972 6.85583 12.5573 6.74723 12.2799 6.52323C12.0371 6.32638 11.6833 6.66577 11.933 6.86262Z" fill="#020A13"/>
<path d="M8.99187 6.02096C8.38843 6.21102 7.77805 6.27211 7.14686 6.20423C6.8278 6.17029 6.83473 6.65902 7.14686 6.68617C7.81967 6.75405 8.4786 6.68617 9.12366 6.48254C9.42885 6.39429 9.29706 5.92593 8.99187 6.02096Z" fill="#020A13"/>
<path d="M5.79419 8.53238C5.84968 8.87178 5.71095 9.23153 5.43351 9.44196C5.18381 9.63202 5.43351 10.0529 5.68321 9.86281C6.15487 9.50984 6.36989 8.98038 6.27278 8.40341C6.22423 8.09796 5.74563 8.22693 5.79419 8.53238Z" fill="#020A13"/>
<path d="M7.81445 11.5463C7.81445 12.164 7.81445 12.7817 7.81445 13.3994C7.81445 13.7116 8.30692 13.7116 8.30692 13.3994C8.30692 12.7817 8.30692 12.164 8.30692 11.5463C8.30692 11.2341 7.81445 11.2341 7.81445 11.5463Z" fill="#020A13"/>
<path d="M6.27384 16.5693C6.19754 16.8273 6.12818 17.0852 6.05188 17.3431C6.0172 17.4721 5.9409 17.9676 5.75363 17.9948C5.4415 18.0355 5.4415 18.5174 5.75363 18.4767C6.07962 18.436 6.25996 18.2527 6.37788 17.9608C6.54435 17.5603 6.63452 17.1191 6.75243 16.6983C6.83566 16.3996 6.35707 16.2706 6.27384 16.5693Z" fill="#020A13"/>
<path d="M7.07812 20.1805C7.07812 20.8321 7.15442 21.4702 7.30008 22.1082C7.36944 22.4137 7.84804 22.2847 7.77868 21.9793C7.63995 21.3887 7.57059 20.7914 7.57059 20.1805C7.57059 19.8682 7.07812 19.8682 7.07812 20.1805Z" fill="#020A13"/>
<path d="M10.0814 23.1672C10.7195 23.4115 11.2397 23.9138 11.4964 24.5383C11.6143 24.8234 12.0929 24.7012 11.975 24.4094C11.649 23.6152 11.0316 23.0178 10.2132 22.6988C9.91492 22.5834 9.79007 23.0518 10.0814 23.1672Z" fill="#020A13"/>
<path d="M13.7308 23.2418C14.3619 22.9906 14.9862 22.7395 15.6174 22.4883C15.9087 22.3729 15.7838 21.9046 15.4856 22.02C14.8544 22.2711 14.2302 22.5223 13.599 22.7734C13.3076 22.8888 13.4394 23.3572 13.7308 23.2418Z" fill="#020A13"/>
<path d="M19.3132 20.2958C18.9525 20.4859 18.5988 20.6692 18.2381 20.8592C17.9607 21.0086 18.2104 21.4226 18.4878 21.2801C18.8485 21.09 19.2022 20.9068 19.5629 20.7167C19.8473 20.5674 19.5976 20.1465 19.3132 20.2958Z" fill="#020A13"/>
<path d="M21.4285 21.1443C21.4008 20.6013 21.3037 20.0718 21.1441 19.5492C21.054 19.2505 20.5754 19.3795 20.6656 19.6781C20.8112 20.1601 20.9014 20.642 20.9291 21.1443C20.9499 21.4566 21.4424 21.4566 21.4285 21.1443Z" fill="#020A13"/>
<path d="M20.0353 17.4993C20.9786 17.7233 21.0203 16.0467 21.0133 15.4969C21.0064 15.1846 20.5139 15.1846 20.5209 15.4969C20.5278 15.6666 20.4723 17.1056 20.174 17.0309C19.855 16.9631 19.7232 17.4314 20.0353 17.4993Z" fill="#020A13"/>
<path d="M21.1578 12.5984C21.4352 12.5373 21.7127 12.5712 21.9624 12.7002C22.2468 12.8428 22.4965 12.4287 22.2121 12.2794C21.8375 12.0893 21.4352 12.035 21.026 12.13C20.7139 12.2047 20.8457 12.6663 21.1578 12.5984Z" fill="#020A13"/>
<path d="M22.1855 10.1412C21.5682 9.67285 21.1035 9.04836 20.8468 8.32885C20.7428 8.03697 20.2642 8.16594 20.3682 8.45782C20.6803 9.3063 21.2075 10.0122 21.9358 10.5621C22.1924 10.7521 22.4352 10.3313 22.1855 10.1412Z" fill="#020A13"/>
<path d="M17.9328 9.46924C17.2808 9.23845 16.7121 8.8719 16.2335 8.38996C16.0115 8.16596 15.6578 8.51215 15.8867 8.72936C16.4277 9.27239 17.0727 9.67287 17.808 9.9376C18.0993 10.0394 18.2311 9.57784 17.9328 9.46924Z" fill="#020A13"/>
<path d="M9.63039 9.1501C10.1367 9.27907 10.5252 9.65241 10.6569 10.1479C10.7402 10.4466 11.2118 10.3244 11.1355 10.019C10.9621 9.36053 10.435 8.85144 9.76218 8.68174C9.45699 8.60707 9.3252 9.07544 9.63039 9.1501Z" fill="#020A13"/>
<path d="M9.54095 15.4968C9.93631 15.5036 10.1236 15.1914 10.2692 14.8723C10.4773 14.3972 10.623 13.9017 10.7062 13.3858C10.7548 13.0803 10.2831 12.9514 10.2276 13.2568C10.1791 13.5555 10.1097 13.8406 10.0195 14.1324C9.96406 14.3157 9.79065 15.0149 9.53402 15.0149C9.22189 15.0081 9.22189 15.4968 9.54095 15.4968Z" fill="#020A13"/>
<path d="M9.01924 17.8658C9.42847 18.307 9.62962 18.8568 9.62269 19.4541C9.61575 19.7664 10.1082 19.7664 10.1152 19.4541C10.129 18.7278 9.86545 18.0558 9.36605 17.5196C9.15796 17.2888 8.81116 17.635 9.01924 17.8658Z" fill="#020A13"/>
<path d="M11.6078 20.8864C12.1141 20.9407 12.565 21.1376 12.9603 21.4362C13.21 21.6263 13.4597 21.2055 13.21 21.0154C12.7384 20.6624 12.1974 20.4588 11.6078 20.3977C11.2887 20.3705 11.2957 20.8593 11.6078 20.8864Z" fill="#020A13"/>
<path d="M15.582 18.8771C15.6999 18.3002 16.0467 17.825 16.5808 17.5399C16.8583 17.3906 16.6086 16.9698 16.3311 17.1191C15.6999 17.4585 15.2491 18.0558 15.1104 18.7482C15.041 19.0536 15.5196 19.1826 15.582 18.8771Z" fill="#020A13"/>
<path d="M18.7927 13.9627C18.7372 13.2432 18.543 12.5644 18.217 11.9196C18.0783 11.6413 17.6482 11.8856 17.787 12.1639C18.0713 12.7341 18.2448 13.3315 18.2933 13.9627C18.328 14.275 18.8204 14.275 18.7927 13.9627Z" fill="#020A13"/>
<path d="M15.2757 10.9286C14.8249 10.6842 14.4018 10.4059 14.0064 10.0801C13.7636 9.88326 13.4099 10.2227 13.6596 10.4195C14.0896 10.7657 14.5405 11.0779 15.026 11.3427C15.3035 11.4988 15.5532 11.0779 15.2757 10.9286Z" fill="#020A13"/>
<path d="M12.5088 11.9333C12.6475 12.5034 13.0151 12.9922 13.5354 13.2908C13.8128 13.447 14.0625 13.0329 13.7851 12.87C13.3758 12.6324 13.0984 12.2591 12.9874 11.8043C12.918 11.5056 12.4394 11.6278 12.5088 11.9333Z" fill="#020A13"/>
<path d="M16.22 13.3044C16.4004 13.8949 16.3033 14.4787 15.9495 14.9877C15.7692 15.2457 16.1992 15.4901 16.3796 15.2321C16.8096 14.628 16.9206 13.8813 16.7056 13.1754C16.6085 12.8835 16.1299 13.0057 16.22 13.3044Z" fill="#020A13"/>
<path d="M11.6631 16.6304C12.2596 16.3725 12.7382 15.9313 13.0503 15.3747C13.2029 15.1032 12.7798 14.8588 12.6202 15.1303C12.3428 15.619 11.9266 15.9856 11.4064 16.2096C11.122 16.3386 11.3717 16.7594 11.6631 16.6304Z" fill="#020A13"/>
<path d="M13.8054 17.1124C13.7846 17.4925 13.6181 17.8183 13.3268 18.0695C13.091 18.2799 13.4378 18.6193 13.6736 18.4089C14.0551 18.0695 14.2701 17.6079 14.2909 17.1056C14.3117 16.8002 13.8192 16.8069 13.8054 17.1124Z" fill="#020A13"/>
</g>
<g clip-path="url(#clip1)">
<path d="M124.538 85.1896C124.033 85.5465 124.348 86.2196 124.245 86.8302C124.192 87.0865 124.139 87.3428 124.086 87.5992C123.989 87.6034 123.915 87.6124 123.818 87.6166C123.707 87.2289 123.568 86.8597 123.526 86.4864C123.364 84.727 123.299 82.9635 123.109 81.2227C123.029 80.4526 122.806 79.6773 122.579 78.9252C122.222 77.7574 121.006 77.3832 120.058 77.3322C119.892 77.3221 119.715 77.4798 119.502 77.5815C119.23 77.1604 118.815 77.1958 118.363 77.2963C118.012 77.3693 117.662 77.4423 117.312 77.394C117.124 77.3792 116.983 77.1313 116.819 76.9999C116.963 76.884 117.075 76.6886 117.228 76.6473C117.962 76.4595 118.709 76.323 119.461 76.1632C122.051 75.5829 123.479 73.2059 123.518 70.7104C123.536 69.3531 123.508 67.9862 123.554 66.6104C123.557 66.3678 123.789 66.173 123.929 65.9591C124.028 66.1741 124.183 66.3521 124.209 66.5761C124.398 67.8551 124.459 69.1801 124.778 70.4131C125.305 72.4913 127.125 74.2304 129.475 74.5725C129.613 74.6011 129.765 74.5598 129.871 74.6303C130.104 74.776 130.305 74.9635 130.51 75.1277C130.324 75.3321 130.174 75.5926 129.957 75.7176C129.109 76.2221 128.175 76.5629 127.405 77.1564C125.442 78.6446 124.527 80.7395 124.36 83.1597C124.348 83.4488 124.308 83.7565 124.319 84.0504C124.366 84.4005 124.464 84.7368 124.538 85.1896ZM120.784 76.4866C121.734 76.8782 122.744 77.2094 123.148 78.2655C123.479 79.2093 123.732 80.1854 123.981 81.0635C124.273 79.8847 124.755 78.7208 125.644 77.7873C126.528 76.8771 127.507 76.084 128.335 75.3322C127.635 74.8951 126.764 74.4713 126.102 73.8478C125.418 73.2195 124.919 72.3869 124.323 71.6798C123.477 74.372 123.346 74.5393 120.784 76.4866Z" fill="black"/>
</g>
<path d="M23.1589 30C17.9526 30.156 12.7602 30.201 7.55397 30.201C6.16464 30.201 4.75879 30.2568 3.38857 30.0949C3.13671 30.0652 2.90639 30 2.64892 30C2.26792 30 2.43759 30.8252 2.43759 31.0442C2.43759 34.3518 2.43759 37.6593 2.43759 40.9669C2.43759 43.154 2.5264 45.3642 2.32636 47.5448C2.18526 49.083 2.03718 50.5695 2.03718 52.1181C2.03718 54.5825 2.03718 57.0469 2.03718 59.5113C2.03718 65.0766 1.79818 70.6915 2.53213 76.2185C2.85391 78.6417 3.17034 80.9654 3.24954 83.4107C3.32275 85.6713 3.74964 87.9151 4.08929 90.1449C4.33439 91.7541 4.67532 93.3618 4.87899 94.9751C4.95101 95.5455 4.88387 96.1337 5.04583 96.6893C5.18135 97.1543 5.2208 97.5592 5.24604 98.0407C5.27406 98.5753 5.52135 99.0892 5.63533 99.6042C5.81092 100.398 7.57007 99.7775 8.07673 99.6321C15.0251 97.6388 22.2808 96.9406 29.4877 96.9406C30.7535 96.9406 31.9393 97.1417 33.1915 97.1417C37.0028 97.1417 40.8142 97.1417 44.6255 97.1417C47.4543 97.1417 50.2832 97.1417 53.112 97.1417C55.0537 97.1417 56.9409 97.3086 58.8735 97.4655C60.0526 97.5613 61.24 97.9712 62.4327 97.9457C63.1668 97.9301 62.8999 95.9672 62.8999 95.5111C62.8999 91.593 63 87.6865 63 83.7736" stroke="#020A13" stroke-width="4" stroke-linecap="round" stroke-linejoin="round"/>
<path d="M28 9C28 17.4063 28.1004 25.8073 28.1004 34.2125C28.1004 37.3664 28.0475 40.5251 28.1059 43.6783C28.1672 46.9835 28.1351 50.3031 28.3569 53.6007C28.544 56.3831 28.8306 59.115 29.3382 61.8527C29.5217 62.8418 29.2976 63.8617 29.5278 64.8483C29.6835 65.5156 29.6708 66.1102 29.7118 66.7861C29.8537 69.1229 29.907 71.5028 29.907 73.8409C29.907 74.7576 30.0074 75.6707 30.0074 76.5748C30.0074 77.0871 30.0074 77.5994 30.0074 78.1116C30.0074 78.6886 29.7514 79.1485 29.6282 79.6818C29.5446 80.0435 32.428 79.5135 32.6392 79.4814C34.887 79.1398 37.141 79.1584 39.4085 79.1584C41.0964 79.1584 42.8466 79.0206 44.5273 79.2253C46.3158 79.4431 48.0219 79.6596 49.83 79.6596C51.2705 79.6596 52.711 79.6596 54.1514 79.6596C56.8392 79.6596 59.4956 80.0923 62.1586 80.4168C65.3675 80.8079 68.5324 80.9625 71.7605 80.9625C73.8793 80.9625 75.9982 80.9625 78.1171 80.9625C79.8736 80.9625 81.6871 81.0969 83.431 80.8567C84.2455 80.7445 85.055 80.6015 85.8677 80.4837C87.6933 80.219 89.6149 80.3612 91.4549 80.3612C92.9962 80.3612 94.5278 80.2609 96.0663 80.2609C96.9268 80.2609 97.7874 80.2609 98.6479 80.2609C98.9676 80.2609 99.2873 80.2609 99.607 80.2609C100.168 80.2609 99.9639 78.9322 99.9639 78.6128C99.9639 77.4304 99.8848 76.2703 99.7631 75.0937C99.5513 73.0447 99.4895 71.0447 99.4565 68.9855C99.4269 67.1391 99.2057 65.2913 99.0606 63.4507C98.8983 61.3931 98.8598 59.3174 98.8598 57.2534C98.8598 53.9603 98.3751 50.6943 98.358 47.409C98.346 45.1109 98.5419 42.7285 98.3078 40.4377C98.1404 38.799 98.2576 37.1071 98.2576 35.4598C98.2576 33.7882 98.358 32.1089 98.358 30.4484" stroke="#020A13" stroke-width="4" stroke-linecap="round" stroke-linejoin="round"/>
<path d="M28 9C29.6045 8.6123 31.2306 8.29589 32.8667 8.10319C34.007 7.96889 35.1573 7.71715 36.3056 7.71715C38.1895 7.71715 40.0748 7.75966 41.9556 7.634C42.9219 7.56944 43.8472 7.36617 44.8056 7.24796C46.2147 7.07413 47.6669 7.07572 49.0833 7.07572C51.4537 7.07572 53.8241 7.07572 56.1944 7.07572C59.3963 7.07572 62.5981 7.07572 65.8 7.07572C66.763 7.07572 68.0606 6.84789 69 7.18262" stroke="#020A13" stroke-width="4" stroke-linecap="round" stroke-linejoin="round"/>
<path d="M69 8C69.7806 9.22444 70.8239 10.5817 71.9483 11.5112C72.8099 12.2235 73.696 12.962 74.6986 13.4708C75.4377 13.8459 76.1201 14.4015 76.8218 14.8399C78.0928 15.6338 79.466 16.2595 80.7767 16.9874C83.2797 18.3774 86.0393 19.6366 88.2629 21.4542C89.4132 22.3945 90.4937 23.4163 91.6898 24.3051C92.2118 24.693 92.7698 25.0275 93.2024 25.5131C93.6176 25.9791 94.1607 26.3333 94.6931 26.6566C95.2857 27.0165 95.7787 27.5767 96.2717 28.0579C97.2149 28.9785 97.8376 30.3193 99 31" stroke="#020A13" stroke-width="4" stroke-linecap="round" stroke-linejoin="round"/>
<path d="M68 8C68.4763 11.8533 69.0085 15.7016 69.5894 19.5402C69.9158 21.697 70.3831 23.9087 70.5717 26.077C70.6464 26.9348 70.914 27.721 71.0022 28.5759C71.0786 29.3163 71.195 30.0796 71.3002 30.8155C71.3707 31.3086 71.5502 31.784 71.6258 32.2829C71.7168 32.8832 71.6963 33.5325 71.9183 34.1032C72.0195 34.3634 71.8755 34.9337 72.2605 34.9859C72.7415 35.0511 73.2928 34.8758 73.7506 34.7652C74.8977 34.4881 76.0464 34.2065 77.1887 33.9102C79.3958 33.3376 81.5463 33.028 83.8168 32.8235C85.9032 32.6355 87.9706 32.2036 90.053 31.9519C92.2246 31.6894 94.3969 31.4651 96.5486 31.1465C97.0143 31.0775 97.529 31.1355 98 31.1355" stroke="#020A13" stroke-width="4" stroke-linecap="round" stroke-linejoin="round"/>
<path d="M42 27C44.6321 27.2566 47.3916 27.1523 49.9891 27.699C51.6012 28.0383 53.2206 27.9986 54.8579 27.9986C56.5719 27.9986 58.286 27.9986 60 27.9986" stroke="#020A13" stroke-width="4" stroke-linecap="round" stroke-linejoin="round"/>
<path d="M42 37C46.6479 36.9181 51.2851 36.25 55.9342 36.25C57.5707 36.25 59.2071 36.25 60.8435 36.25C61.8299 36.25 62.8163 36.25 63.8027 36.25C64.4735 36.25 65.1444 36.25 65.8152 36.25C66.1814 36.25 66.7063 36.4797 67 36" stroke="#020A13" stroke-width="4" stroke-linecap="round" stroke-linejoin="round"/>
<path d="M45 47C48.2734 47 51.566 47 54.8405 47C55.2336 47 55.6067 47 56 47" stroke="#020A13" stroke-width="4" stroke-linecap="round" stroke-linejoin="round"/>
<path d="M45 55C58.3333 55 71.6667 55 85 55" stroke="#020A13" stroke-width="4" stroke-linecap="round" stroke-linejoin="round"/>
<path d="M48 62C49.8987 62 52.049 62 54 62" stroke="#020A13" stroke-width="4" stroke-linecap="round" stroke-linejoin="round"/>
<path d="M26.2653 88.2508C33.258 80.656 40.3173 73.0612 47.7096 65C49.9073 74.7933 51.9718 83.9204 54.0363 93.0475C54.4359 94.8463 53.5036 94.713 52.1716 94.5798C46.8439 94.1134 46.8438 94.18 45.7117 99.4431C44.9791 103.107 44.18 106.771 43.514 110.502C43.2476 111.835 42.848 112.034 41.5827 111.701C37.72 110.635 33.8574 109.703 29.9948 108.837C28.1967 108.437 28.3299 107.571 28.796 106.238C30.128 102.574 31.2601 98.9102 32.5921 95.246C33.1248 93.7803 32.8585 92.8476 31.4599 91.9815C29.1956 90.5825 27.1311 88.917 25 87.3847C25.4662 87.7844 25.8658 88.0509 26.2653 88.2508Z" fill="#090907"/>
<path d="M47.1098 69.9299C48.6415 76.7253 50.1066 83.5872 51.7716 90.316C52.3043 92.4478 51.9713 93.3805 49.707 92.6477C46.1108 91.5151 44.9121 92.9142 44.4459 96.5117C44.0463 100.176 43.5801 103.973 42.115 107.504C38.9849 108.37 36.321 106.905 33.5239 105.972C32.1254 105.506 32.2586 104.173 32.6582 102.841C33.3908 100.509 33.9901 98.1773 34.9891 95.9122C36.1212 93.3139 35.2555 91.8483 33.1244 90.4492C28.9953 87.7844 29.0619 87.3846 32.4584 83.7871C37.1202 78.9238 42.2482 74.5268 47.1098 69.9299Z" fill="#FEDB4D"/>
<defs>
<clipPath id="clip0">
<rect width="29" height="28" fill="white" transform="translate(2)"/>
</clipPath>
<clipPath id="clip1">
<rect width="13.0485" height="21.2039" fill="white" transform="translate(119.311 65) rotate(11.7308)"/>
</clipPath>
</defs>
</svg>
