<svg width="176" height="127" viewBox="0 0 176 127" fill="none" xmlns="http://www.w3.org/2000/svg">
<circle opacity="0.85" cx="71" cy="78" r="49" fill="#020A13"/>
<g clip-path="url(#clip0)">
<path d="M1.60222 39.6285C2.34559 39.4801 2.38098 41.3216 2.36329 41.7056C2.34559 42.107 2.98275 42.107 2.9916 41.7056C3.01815 40.8067 2.80576 38.747 1.42523 39.0263C1.0447 39.1048 1.21284 39.707 1.60222 39.6285Z" fill="#020A13"/>
<path d="M6.88598 40.3703C7.90368 40.3354 8.91253 40.2045 9.90368 39.9951C10.3019 39.9078 10.1338 39.3143 9.73554 39.3929C8.79749 39.5936 7.84174 39.7071 6.88598 39.742C6.48775 39.7682 6.4789 40.3878 6.88598 40.3703Z" fill="#020A13"/>
<path d="M13.9658 39.8728C14.8242 40.0386 15.541 40.4575 16.1074 41.1121C16.3729 41.4175 16.8154 40.9724 16.5499 40.6757C15.9216 39.9426 15.0809 39.4539 14.134 39.2706C13.7357 39.1921 13.5676 39.7942 13.9658 39.8728Z" fill="#020A13"/>
<path d="M20.3365 41.3914C20.4958 40.6059 21.0976 40.0125 21.894 39.8641C22.2923 39.7856 22.1241 39.1834 21.7259 39.2619C20.7259 39.4539 19.9294 40.2481 19.7259 41.2256C19.6463 41.6183 20.2569 41.7841 20.3365 41.3914Z" fill="#020A13"/>
<path d="M26.8508 40.126C28.0721 39.8205 29.3022 39.7332 30.5588 39.8641C30.9659 39.9078 30.957 39.2794 30.5588 39.2445C29.2579 39.1136 27.957 39.2096 26.6827 39.5325C26.2933 39.6198 26.4526 40.222 26.8508 40.126Z" fill="#020A13"/>
<path d="M34.0704 39.7943C34.4155 40.8677 33.2828 41.5136 32.4863 41.9412C32.1323 42.1332 32.4509 42.6743 32.8049 42.4823C33.8669 41.915 35.1235 40.9987 34.681 39.6372C34.5571 39.2532 33.9465 39.4103 34.0704 39.7943Z" fill="#020A13"/>
<path d="M36.3811 42.3513C36.1244 43.1455 35.735 43.8611 35.1864 44.4982C34.9209 44.8036 35.3722 45.24 35.6288 44.9345C36.2483 44.2189 36.6996 43.416 36.9917 42.5171C37.1067 42.1418 36.4961 41.976 36.3811 42.3513Z" fill="#020A13"/>
<path d="M34.824 49.3245C35.355 49.5689 35.8152 49.9179 36.1692 50.3718C36.417 50.686 36.9568 50.3718 36.7179 50.0576C36.2931 49.5165 35.7798 49.0801 35.1426 48.7834C34.7798 48.6176 34.4524 49.1587 34.824 49.3245Z" fill="#020A13"/>
<path d="M36.1941 53.566C35.9906 54.3864 35.5658 55.0933 34.9375 55.678C34.6455 55.9573 35.0879 56.3937 35.38 56.1144C36.0791 55.4598 36.5658 54.6482 36.7959 53.7231C36.9021 53.3391 36.2915 53.1733 36.1941 53.566Z" fill="#020A13"/>
<path d="M34.6902 59.5092C35.0973 60.1551 35.3717 60.8532 35.5044 61.6038C35.5752 61.9965 36.1858 61.8307 36.115 61.438C35.9734 60.6351 35.6725 59.8845 35.2389 59.1951C35.0177 58.8547 34.469 59.1689 34.6902 59.5092Z" fill="#020A13"/>
<path d="M36.708 66.4473C35.8761 65.915 35.0354 65.3913 34.2036 64.859C33.8584 64.6408 33.5398 65.1819 33.885 65.4001C34.7168 65.9324 35.5575 66.4561 36.3894 66.9884C36.7345 67.1979 37.0531 66.6568 36.708 66.4473Z" fill="#020A13"/>
<path d="M35.3983 68.6729C34.8762 69.3274 34.2125 69.8336 33.416 70.1216C33.0355 70.2612 33.2036 70.8634 33.5841 70.7238C34.478 70.4009 35.2567 69.8598 35.8496 69.118C36.0886 68.8038 35.6461 68.3587 35.3983 68.6729Z" fill="#020A13"/>
<path d="M35.5757 73.4902C35.7439 73.8393 35.8501 74.2146 35.8766 74.5986C35.912 74.9913 36.5403 75 36.5049 74.5986C36.4696 74.1011 36.3368 73.6298 36.1156 73.176C35.9474 72.8095 35.3988 73.1324 35.5757 73.4902Z" fill="#020A13"/>
<path d="M32.7343 73.9091C32.0264 72.888 31.2565 71.9106 30.4423 70.968C30.1768 70.6626 29.7343 71.1077 29.9998 71.4044C30.7874 72.3033 31.5131 73.2371 32.1945 74.2146C32.4158 74.5549 32.9644 74.2408 32.7343 73.9091Z" fill="#020A13"/>
<path d="M28.3812 73.0714C27.6202 73.3332 26.8414 73.5688 26.0538 73.7695C25.6644 73.8655 25.8237 74.4677 26.2219 74.3717C27.0095 74.171 27.7795 73.9441 28.5494 73.6735C28.9299 73.5426 28.7618 72.9404 28.3812 73.0714Z" fill="#020A13"/>
<path d="M21.6022 72.827C21.7084 71.9979 21.8146 71.1688 21.9296 70.3397C21.9827 69.947 21.3456 69.947 21.3013 70.3397C21.1951 71.1688 21.0889 71.9979 20.9739 72.827C20.9208 73.2197 21.5491 73.2197 21.6022 72.827Z" fill="#020A13"/>
<path d="M17.557 72.7922C18.0968 73.3857 18.5482 74.0402 18.911 74.7558C19.0968 75.1137 19.6367 74.7995 19.4597 74.4417C19.0703 73.6824 18.5836 72.9842 18.0083 72.3471C17.7252 72.0504 17.2827 72.4955 17.557 72.7922Z" fill="#020A13"/>
<path d="M14.656 74.3893C14.0542 74.2671 13.5852 73.8482 13.4259 73.2635C13.3197 72.8795 12.718 73.0366 12.8153 73.4293C13.0277 74.2147 13.6737 74.8344 14.4879 74.9915C14.8861 75.07 15.0542 74.4678 14.656 74.3893Z" fill="#020A13"/>
<path d="M8.02653 74.3106C9.24777 74.1186 10.3009 73.4117 10.9469 72.3645C11.1593 72.0241 10.6106 71.7099 10.3982 72.0503C9.83184 72.9666 8.92034 73.5426 7.84954 73.7085C7.46016 73.7696 7.6283 74.3717 8.02653 74.3106Z" fill="#020A13"/>
<path d="M4.04433 73.9702C4.04433 73.3506 4.04433 72.7222 4.04433 72.1026C4.04433 71.7012 3.41602 71.7012 3.41602 72.1026C3.41602 72.7222 3.41602 73.3506 3.41602 73.9702C3.41602 74.3717 4.04433 74.3717 4.04433 73.9702Z" fill="#020A13"/>
<path d="M0.593385 72.443C1.204 71.5005 1.87657 70.6016 2.60223 69.7463C2.85887 69.4409 2.41639 68.9958 2.15976 69.31C1.39869 70.2089 0.690731 71.1514 0.0535624 72.1376C-0.167676 72.4692 0.380996 72.7747 0.593385 72.443Z" fill="#020A13"/>
<path d="M1.25802 65.7317C1.86864 66.1157 2.53236 66.4037 3.22262 66.6045C3.61201 66.7179 3.78015 66.1157 3.39077 66.0023C2.74475 65.8103 2.14298 65.5485 1.57661 65.1907C1.23147 64.9812 0.91289 65.5223 1.25802 65.7317Z" fill="#020A13"/>
<path d="M5.46878 69.9819C5.81391 70.2263 6.08825 70.5492 6.29179 70.9158C6.48648 71.2649 7.03515 70.9507 6.84046 70.6016C6.58382 70.139 6.22099 69.755 5.78736 69.4409C5.64577 69.3449 5.43338 69.4147 5.35373 69.5543C5.26524 69.7114 5.33604 69.8859 5.46878 69.9819Z" fill="#020A13"/>
<path d="M2.22106 62.5027C1.82283 61.8045 1.52194 61.0714 1.3007 60.2947C1.19451 59.9107 0.583889 60.0765 0.690084 60.4605C0.920173 61.2808 1.24761 62.0663 1.67239 62.8168C1.87592 63.1659 2.41575 62.8518 2.22106 62.5027Z" fill="#020A13"/>
<path d="M2.46937 57.6765C3.16849 57.7289 3.85875 57.694 4.55787 57.5805C4.9561 57.5194 4.78796 56.9173 4.38973 56.9783C3.75256 57.0831 3.11539 57.1005 2.46937 57.0482C2.06229 57.022 2.06229 57.6416 2.46937 57.6765Z" fill="#020A13"/>
<path d="M3.47802 55.0321C3.00014 54.3689 2.51342 53.7056 2.03554 53.0423C1.80545 52.7194 1.25678 53.0336 1.48687 53.3565C1.96475 54.0198 2.45147 54.683 2.92935 55.3463C3.16828 55.678 3.71696 55.3638 3.47802 55.0321Z" fill="#020A13"/>
<path d="M1.01773 49.5863C1.36286 49.1325 1.79649 48.7572 2.27436 48.4518C2.6195 48.2336 2.30091 47.7012 1.95578 47.9107C1.37171 48.2772 0.884983 48.7311 0.469053 49.2634C0.221266 49.5951 0.769938 49.9005 1.01773 49.5863Z" fill="#020A13"/>
<path d="M1.35334 44.7864C1.91971 45.022 2.43299 45.3449 2.88431 45.7551C3.1852 46.0256 3.62768 45.5893 3.32679 45.3187C2.83122 44.8736 2.28254 44.5158 1.67192 44.254C1.30909 44.0882 0.98166 44.6293 1.35334 44.7864Z" fill="#020A13"/>
<path d="M6.23919 44.1754C6.45158 43.6344 7.0799 43.3376 7.63742 43.4773C8.03565 43.5733 8.20379 42.9711 7.80556 42.8751C6.88521 42.6482 5.96485 43.1456 5.62857 44.0096C5.48698 44.3849 6.0976 44.542 6.23919 44.1754Z" fill="#020A13"/>
<path d="M12.7973 43.3899C12.6822 43.9136 12.4698 44.3936 12.1335 44.8125C11.8858 45.1267 12.3282 45.563 12.576 45.2488C12.9831 44.7427 13.2663 44.1841 13.399 43.5557C13.4964 43.163 12.8858 42.9972 12.7973 43.3899Z" fill="#020A13"/>
<path d="M17.0969 45.8772C18.0527 45.7724 18.9553 45.4757 19.7783 44.987C20.1235 44.7775 19.8049 44.2364 19.4598 44.4459C18.7341 44.8823 17.9465 45.1615 17.0969 45.2575C16.6987 45.3012 16.6898 45.9208 17.0969 45.8772Z" fill="#020A13"/>
<path d="M24.035 43.6954C24.8049 43.6081 25.5748 43.5295 26.3447 43.4423C26.743 43.3986 26.7518 42.779 26.3447 42.8226C25.5748 42.9099 24.8049 42.9885 24.035 43.0757C23.6368 43.1106 23.6368 43.739 24.035 43.6954Z" fill="#020A13"/>
<path d="M27.9832 43.8262C28.3461 44.6029 28.8505 45.2924 29.4788 45.8771C29.7708 46.1564 30.2222 45.7113 29.9213 45.4407C29.3284 44.8909 28.8593 44.2451 28.5231 43.512C28.3549 43.1542 27.8151 43.4684 27.9832 43.8262Z" fill="#020A13"/>
<path d="M32.2389 46.9942C32.177 47.7448 31.8938 48.4168 31.4424 49.019C31.2035 49.3419 31.7433 49.6473 31.9911 49.3331C32.5132 48.6437 32.7964 47.8495 32.8761 46.9942C32.9026 46.5928 32.2743 46.6015 32.2389 46.9942Z" fill="#020A13"/>
<path d="M33.4598 51.6634C33.4775 52.1696 33.3005 52.6234 32.9465 52.9812C32.6633 53.2692 33.1058 53.7056 33.389 53.4176C33.858 52.9463 34.1146 52.3179 34.0881 51.6547C34.0792 51.2619 33.4421 51.2619 33.4598 51.6634Z" fill="#020A13"/>
<path d="M30.4438 56.6554C31.1076 57.2139 31.6385 57.8947 31.9748 58.6889C32.1341 59.0554 32.7447 58.8896 32.5854 58.523C32.2049 57.6241 31.6474 56.8474 30.8952 56.219C30.5854 55.9572 30.1341 56.3936 30.4438 56.6554Z" fill="#020A13"/>
<path d="M31.2925 61.6212C31.3544 62.1972 31.2925 62.7557 31.1067 63.3056C30.9739 63.6808 31.5845 63.8467 31.7173 63.4714C31.9297 62.8779 32.0005 62.2496 31.9297 61.6212C31.8766 61.2285 31.2482 61.2285 31.2925 61.6212Z" fill="#020A13"/>
<path d="M29.7612 67.9835C30.7346 68.3151 31.8231 68.0271 32.4957 67.2678C32.7612 66.9624 32.3187 66.526 32.0532 66.8315C31.5134 67.4424 30.7081 67.6606 29.9382 67.39C29.5488 67.2504 29.3806 67.8526 29.7612 67.9835Z" fill="#020A13"/>
<path d="M27.116 68.6989C27.0364 69.0131 26.3107 69.1877 26.0452 69.3011C25.6293 69.4757 25.2222 69.6589 24.8063 69.8335C24.4346 69.9906 24.7532 70.5317 25.1249 70.3746C25.709 70.1215 26.3019 69.8684 26.8859 69.6153C27.2576 69.4495 27.6028 69.2924 27.7178 68.8735C27.824 68.472 27.2222 68.3062 27.116 68.6989Z" fill="#020A13"/>
<path d="M28.2648 65.1383C28.3621 64.5884 28.3887 64.0474 28.3356 63.4975C28.3002 63.1048 27.663 63.0961 27.7072 63.4975C27.7515 63.995 27.7426 64.4837 27.6541 64.9724C27.5833 65.3652 28.194 65.531 28.2648 65.1383Z" fill="#020A13"/>
<path d="M27.5928 57.8772C27.9114 58.6888 27.6725 59.6227 26.938 60.1288C26.6105 60.3557 26.9203 60.8968 27.2566 60.6699C28.2035 60.0067 28.6282 58.8023 28.2035 57.7114C28.0619 57.3448 27.4512 57.5019 27.5928 57.8772Z" fill="#020A13"/>
<path d="M28.8592 50.9302C29.107 51.672 29.0273 52.4051 28.6203 53.0771C28.4079 53.4175 28.9566 53.7317 29.1689 53.3913C29.6557 52.5884 29.7707 51.6546 29.4698 50.7644C29.3371 50.3804 28.7265 50.5462 28.8592 50.9302Z" fill="#020A13"/>
<path d="M27.089 48.4517C27.1156 47.8146 26.9917 47.2124 26.7262 46.6364C26.558 46.2699 26.0182 46.584 26.1775 46.9506C26.3899 47.4306 26.4784 47.9368 26.4518 48.4517C26.4341 48.8531 27.0713 48.8444 27.089 48.4517Z" fill="#020A13"/>
<path d="M22.4428 46.1389C22.1331 46.6276 21.5402 46.8807 20.9738 46.7585C20.5756 46.68 20.4074 47.2821 20.8057 47.3607C21.6641 47.5352 22.5225 47.1861 22.9915 46.4531C23.2127 46.1214 22.6641 45.8072 22.4428 46.1389Z" fill="#020A13"/>
<path d="M12.6734 47.8234C13.1601 48.2161 13.7265 48.4255 14.3548 48.4517C14.7619 48.4604 14.7619 47.8408 14.3548 47.8321C13.9035 47.8146 13.4699 47.675 13.1159 47.387C12.8061 47.1339 12.3548 47.5703 12.6734 47.8234Z" fill="#020A13"/>
<path d="M8.92161 46.7413C8.1517 46.9856 7.37294 47.0642 6.56763 46.9769C6.16055 46.9333 6.1694 47.5616 6.56763 47.5965C7.42603 47.6838 8.26674 47.5965 9.08975 47.3347C9.47913 47.2213 9.31099 46.6191 8.92161 46.7413Z" fill="#020A13"/>
<path d="M4.84214 49.9703C4.91294 50.4067 4.73594 50.8692 4.38196 51.1397C4.06338 51.3841 4.38196 51.9252 4.70055 51.6808C5.30232 51.227 5.57665 50.5463 5.45276 49.8045C5.39081 49.4117 4.78019 49.5776 4.84214 49.9703Z" fill="#020A13"/>
<path d="M7.41602 53.8453C7.41602 54.6395 7.41602 55.4336 7.41602 56.2278C7.41602 56.6293 8.04433 56.6293 8.04433 56.2278C8.04433 55.4336 8.04433 54.6395 8.04433 53.8453C8.04433 53.4438 7.41602 53.4438 7.41602 53.8453Z" fill="#020A13"/>
<path d="M5.45262 60.3033C5.35528 60.635 5.26678 60.9666 5.16944 61.2982C5.12519 61.4641 5.02785 62.1011 4.78891 62.1361C4.39068 62.1884 4.39068 62.8081 4.78891 62.7557C5.20484 62.7033 5.43492 62.4677 5.58537 62.0924C5.79776 61.5775 5.9128 61.0102 6.06324 60.4691C6.16944 60.0851 5.55882 59.9193 5.45262 60.3033Z" fill="#020A13"/>
<path d="M6.47852 64.9462C6.47852 65.7841 6.57586 66.6044 6.7617 67.4248C6.8502 67.8175 7.46082 67.6517 7.37232 67.259C7.19533 66.4997 7.10683 65.7317 7.10683 64.9462C7.10683 64.5448 6.47852 64.5448 6.47852 64.9462Z" fill="#020A13"/>
<path d="M10.3106 68.7863C11.1248 69.1005 11.7885 69.7463 12.1159 70.5492C12.2664 70.9157 12.877 70.7586 12.7265 70.3834C12.3106 69.3623 11.523 68.5943 10.4787 68.1841C10.0982 68.0357 9.93892 68.6379 10.3106 68.7863Z" fill="#020A13"/>
<path d="M14.9645 68.8823C15.7698 68.5594 16.5663 68.2365 17.3716 67.9136C17.7433 67.7652 17.584 67.163 17.2035 67.3114C16.3982 67.6343 15.6017 67.9572 14.7964 68.2801C14.4247 68.4285 14.5929 69.0307 14.9645 68.8823Z" fill="#020A13"/>
<path d="M22.0885 65.0947C21.6283 65.339 21.177 65.5747 20.7168 65.819C20.3628 66.011 20.6814 66.5434 21.0354 66.3601C21.4956 66.1157 21.9469 65.8801 22.4071 65.6358C22.7699 65.4438 22.4513 64.9027 22.0885 65.0947Z" fill="#020A13"/>
<path d="M24.7886 66.1855C24.7532 65.4874 24.6293 64.8066 24.4258 64.1346C24.3107 63.7506 23.7001 63.9164 23.8151 64.3004C24.001 64.9201 24.116 65.5397 24.1514 66.1855C24.178 66.587 24.8063 66.587 24.7886 66.1855Z" fill="#020A13"/>
<path d="M23.0102 61.499C24.2137 61.787 24.2668 59.6314 24.258 58.9245C24.2491 58.523 23.6208 58.523 23.6297 58.9245C23.6385 59.1427 23.5677 60.9929 23.1872 60.8969C22.7801 60.8096 22.612 61.4118 23.0102 61.499Z" fill="#020A13"/>
<path d="M24.4426 55.1979C24.7965 55.1194 25.1505 55.163 25.4691 55.3288C25.8319 55.5121 26.1505 54.9798 25.7877 54.7878C25.3098 54.5434 24.7965 54.4736 24.2744 54.5958C23.8762 54.6918 24.0443 55.2852 24.4426 55.1979Z" fill="#020A13"/>
<path d="M25.7534 52.0386C24.9658 51.4364 24.3728 50.6335 24.0454 49.7084C23.9127 49.3332 23.302 49.499 23.4348 49.8743C23.833 50.9652 24.5056 51.8728 25.4348 52.5797C25.7622 52.8241 26.0719 52.283 25.7534 52.0386Z" fill="#020A13"/>
<path d="M20.3283 51.1748C19.4964 50.8781 18.7708 50.4068 18.1602 49.7872C17.877 49.4992 17.4256 49.9443 17.7177 50.2235C18.4079 50.9217 19.2309 51.4366 20.169 51.777C20.5407 51.9079 20.7088 51.3144 20.3283 51.1748Z" fill="#020A13"/>
<path d="M9.73485 50.7645C10.3809 50.9303 10.8764 51.4103 11.0446 52.0474C11.1508 52.4314 11.7526 52.2743 11.6552 51.8816C11.434 51.035 10.7614 50.3805 9.903 50.1623C9.51362 50.0663 9.34547 50.6685 9.73485 50.7645Z" fill="#020A13"/>
<path d="M9.61892 58.9245C10.1233 58.9332 10.3623 58.5317 10.5481 58.1216C10.8136 57.5106 10.9995 56.8736 11.1057 56.2103C11.1676 55.8176 10.5658 55.6517 10.495 56.0445C10.4331 56.4285 10.3446 56.795 10.2295 57.1703C10.1587 57.4059 9.93751 58.3048 9.61008 58.3048C9.21185 58.2961 9.21185 58.9245 9.61892 58.9245Z" fill="#020A13"/>
<path d="M8.95686 61.9703C9.47899 62.5376 9.73562 63.2445 9.72677 64.0125C9.71793 64.414 10.3462 64.414 10.3551 64.0125C10.3728 63.0787 10.0365 62.2147 9.39934 61.5252C9.13385 61.2285 8.69138 61.6736 8.95686 61.9703Z" fill="#020A13"/>
<path d="M12.2571 65.8539C12.9031 65.9237 13.4783 66.1768 13.9827 66.5608C14.3013 66.8052 14.6199 66.2641 14.3013 66.0197C13.6996 65.5659 13.0093 65.3041 12.2571 65.2255C11.85 65.1906 11.8588 65.819 12.2571 65.8539Z" fill="#020A13"/>
<path d="M17.3273 63.2706C17.4778 62.5287 17.9202 61.9178 18.6016 61.5513C18.9556 61.3593 18.637 60.8182 18.2831 61.0102C17.4778 61.4466 16.9025 62.2146 16.7255 63.1047C16.637 63.4975 17.2477 63.6633 17.3273 63.2706Z" fill="#020A13"/>
<path d="M21.4253 56.952C21.3545 56.0269 21.1067 55.1542 20.6908 54.3251C20.5138 53.9673 19.9651 54.2815 20.1421 54.6393C20.505 55.3724 20.7262 56.1404 20.7881 56.952C20.8324 57.3535 21.4607 57.3535 21.4253 56.952Z" fill="#020A13"/>
<path d="M16.9385 53.051C16.3632 52.7368 15.8234 52.379 15.319 51.9601C15.0093 51.707 14.5579 52.1434 14.8765 52.3965C15.4252 52.8416 16.0004 53.243 16.6199 53.5834C16.9739 53.7841 17.2925 53.243 16.9385 53.051Z" fill="#020A13"/>
<path d="M13.4072 54.3427C13.5842 55.0758 14.0532 55.7042 14.7169 56.0882C15.0709 56.2889 15.3895 55.7566 15.0355 55.5471C14.5134 55.2417 14.1594 54.7617 14.0178 54.1769C13.9293 53.7929 13.3187 53.95 13.4072 54.3427Z" fill="#020A13"/>
<path d="M18.1425 56.1055C18.3726 56.8648 18.2487 57.6153 17.7974 58.2699C17.5673 58.6015 18.116 58.9157 18.3461 58.5841C18.8948 57.8073 19.0364 56.8473 18.762 55.9397C18.6381 55.5644 18.0275 55.7215 18.1425 56.1055Z" fill="#020A13"/>
<path d="M12.327 60.3819C13.088 60.0503 13.6987 59.483 14.0969 58.7674C14.2916 58.4183 13.7518 58.1041 13.5482 58.4532C13.1942 59.0815 12.6633 59.5528 11.9995 59.8408C11.6367 60.0066 11.9553 60.5477 12.327 60.3819Z" fill="#020A13"/>
<path d="M15.0626 61.0016C15.0361 61.4903 14.8237 61.9092 14.452 62.2321C14.1511 62.5027 14.5936 62.939 14.8945 62.6685C15.3812 62.2321 15.6556 61.6387 15.6821 60.9929C15.7086 60.6001 15.0803 60.6089 15.0626 61.0016Z" fill="#020A13"/>
</g>
<g clip-path="url(#clip1)">
<path d="M161.545 37.1345C160.615 37.7908 161.195 39.029 161.006 40.152C160.908 40.6234 160.81 41.0949 160.713 41.5663C160.535 41.574 160.399 41.5906 160.221 41.5983C160.016 40.8853 159.761 40.2063 159.683 39.5196C159.385 36.2836 159.265 33.04 158.916 29.8381C158.769 28.4218 158.36 26.9957 157.941 25.6124C157.285 23.4645 155.048 22.7763 153.304 22.6824C152.999 22.6638 152.674 22.954 152.283 23.1409C151.782 22.3664 151.019 22.4315 150.187 22.6164C149.542 22.7507 148.897 22.885 148.254 22.7962C147.907 22.7688 147.649 22.3129 147.347 22.0713C147.611 21.858 147.818 21.4986 148.098 21.4227C149.449 21.0772 150.823 20.8262 152.207 20.5324C156.97 19.4649 159.597 15.0929 159.668 10.5031C159.702 8.00662 159.65 5.49254 159.735 2.96194C159.74 2.51582 160.167 2.15746 160.425 1.764C160.607 2.15951 160.892 2.48686 160.939 2.8989C161.288 5.25134 161.399 7.68848 161.986 9.95623C162.956 13.7787 166.303 16.9773 170.625 17.6065C170.879 17.6592 171.159 17.5833 171.353 17.7129C171.782 17.9808 172.151 18.3257 172.53 18.6278C172.187 19.0037 171.911 19.4829 171.511 19.7127C169.951 20.6406 168.234 21.2675 166.817 22.3591C163.207 25.0964 161.525 28.9494 161.218 33.4008C161.195 33.9327 161.122 34.4986 161.142 35.0392C161.229 35.6831 161.409 36.3016 161.545 37.1345ZM154.641 21.1271C156.387 21.8473 158.244 22.4565 158.987 24.399C159.596 26.1349 160.061 27.9302 160.519 29.5453C161.058 27.3772 161.943 25.2364 163.578 23.5195C165.204 21.8454 167.006 20.3867 168.528 19.0038C167.24 18.2 165.638 17.4203 164.422 16.2736C163.163 15.1181 162.246 13.5866 161.15 12.286C159.592 17.2378 159.352 17.5456 154.641 21.1271Z" fill="black"/>
</g>
<path d="M118.514 72.7952L118.5 72.8972V73.0001C118.5 99.2336 97.2337 120.5 71.0001 120.5C44.5607 120.5 21 101.542 21 75.5C21 49.2821 42.2411 28.0253 68.4531 28C83.4997 28.9534 96.8957 34.1718 106.073 42.1429C115.235 50.1014 120.172 60.7667 118.514 72.7952Z" fill="#020A13" stroke="#020A13" stroke-width="3"/>
<path d="M73.924 5C71.8697 12.6123 72.9062 9.31094 72.9062 17.086C72.9062 19.2335 72.9062 21.381 72.9062 23.5285C72.9062 27.2932 72.9062 31.0578 72.9062 34.8225C72.9062 41.7215 72.3828 48.6101 72.3828 55.5248C72.3828 60.226 71.2935 65.719 72.7899 70.3935C73.4767 72.5388 72.794 74.5752 73.924 76.7378C74.6439 78.1153 73.835 79.8197 75 81" stroke="#020A13" stroke-width="4" stroke-linecap="round" stroke-linejoin="round"/>
<path d="M61 93.5C65.4844 93.3866 70.1307 93.5629 74.5833 92.8889C76.3502 92.6214 78.0301 92.2626 79.8194 92.125C81.2165 92.0175 82.6 92 84 92" stroke="#16DB93" stroke-width="6" stroke-linecap="round" stroke-linejoin="round"/>
<path d="M52 69.5859C53.8941 70.6216 55.7779 71.6717 57.7336 72.5969C58.6541 73.0324 59.5747 73.4197 60.4444 73.946C61.0933 74.3388 61.7901 74.6328 62.4356 75.0288C63.769 75.8468 64.9639 76.875 66.31 77.6692C68.0973 78.7237 70.1641 79.5058 71.7677 80.796C72.1812 81.1287 72.6372 81.5365 73.1111 81.7861C73.4634 81.9717 73.6101 82.1641 73.9388 81.7688C74.4193 81.1908 74.7148 80.4799 75.0423 79.8174C75.4094 79.0749 75.8115 78.3355 76.2958 77.6576C76.8464 76.8868 77.4276 76.013 78.101 75.3415C79.3334 74.1126 80.4709 72.8321 81.6035 71.5199C82.1102 70.9329 82.6903 70.4147 83.1989 69.8175C83.4513 69.5211 83.7447 69.3716 84.0685 69.1632C84.5517 68.8522 84.8112 68.4842 85.196 68.0805C85.7272 67.523 86.4897 67.3543 87.1272 66.9282C87.4192 66.733 87.9884 66.4908 88.1648 66.1928C88.4326 65.7403 89.5133 65.1566 90 65" stroke="#8CFED1" stroke-width="6" stroke-linecap="round" stroke-linejoin="round"/>
<circle cx="121.5" cy="80.5" r="21.5" fill="#8CFED1" stroke="#020A13" stroke-width="2"/>
<path fill-rule="evenodd" clip-rule="evenodd" d="M113 72.5C113 71.7044 113.316 70.9413 113.879 70.3787C114.441 69.8161 115.204 69.5 116 69.5H116.75V71H118.25V72.5H116.75V74H118.25V75.5H116.75V77H118.25V78.5H120.5V77H119V75.5H120.5V74H119V72.5H120.5V71H119V69.5H123.94C124.337 69.5001 124.719 69.6582 125 69.9395L130.56 75.5C130.842 75.7812 131 76.1627 131 76.5605V87.5C131 88.2956 130.684 89.0587 130.121 89.6213C129.559 90.1839 128.796 90.5 128 90.5H116C115.204 90.5 114.441 90.1839 113.879 89.6213C113.316 89.0587 113 88.2956 113 87.5V72.5ZM123.5 75.5V71L129.5 77H125C124.602 77 124.221 76.842 123.939 76.5607C123.658 76.2794 123.5 75.8978 123.5 75.5ZM118.25 79.25C117.852 79.25 117.471 79.408 117.189 79.6893C116.908 79.9706 116.75 80.3522 116.75 80.75V82.157L116.15 84.5555C116.075 84.8556 116.095 85.1715 116.207 85.4599C116.318 85.7482 116.517 85.9951 116.774 86.1665L118.169 87.0965C118.415 87.2606 118.705 87.3482 119.001 87.3482C119.297 87.3482 119.586 87.2606 119.832 87.0965L121.227 86.1665C121.485 85.9949 121.682 85.748 121.794 85.4596C121.905 85.1712 121.925 84.8554 121.85 84.5555L121.25 82.157V80.75C121.25 80.3522 121.092 79.9706 120.811 79.6893C120.529 79.408 120.148 79.25 119.75 79.25H118.25ZM118.25 82.157V80.75H119.75V82.157C119.75 82.2799 119.765 82.4023 119.795 82.5215L120.395 84.9185L119 85.8485L117.605 84.9185L118.205 82.5215C118.235 82.4023 118.25 82.2799 118.25 82.157Z" fill="black"/>
<path d="M71.924 5C69.8697 12.7125 70.9062 9.36767 70.9062 17.2451C70.9062 19.4208 70.9062 21.5966 70.9062 23.7723C70.9062 27.5865 70.9062 31.4007 70.9062 35.2149C70.9062 42.2047 70.3828 49.184 70.3828 56.1896C70.3828 60.9527 69.2935 66.5179 70.7899 71.2539C71.4767 73.4275 70.794 75.4907 71.924 77.6817C72.6439 79.0774 71.835 80.8042 73 82" stroke="#8CFED1" stroke-width="6" stroke-linecap="round" stroke-linejoin="round"/>
<defs>
<clipPath id="clip0">
<rect width="37" height="36" fill="white" transform="translate(0 39)"/>
</clipPath>
<clipPath id="clip1">
<rect width="24" height="39" fill="white" transform="translate(151.93) rotate(11.7308)"/>
</clipPath>
</defs>
</svg>
