<svg width="123" height="115" viewBox="0 0 123 115" fill="none" xmlns="http://www.w3.org/2000/svg">
<path d="M117.143 111.625L114.657 11.3119C114.616 9.62718 113.192 8.32257 111.506 8.42471L24.7726 13.681C23.3165 13.7692 22.1235 14.8893 21.9441 16.3365L11.1973 103.052C10.9891 104.732 12.2099 106.237 13.8949 106.377L113.861 114.719C115.652 114.869 117.188 113.421 117.143 111.625Z" fill="#020A13"/>
<g clip-path="url(#clip0)">
<path d="M1.12554 87.4539C1.64791 87.3468 1.67278 88.6767 1.66034 88.954C1.64791 89.244 2.09565 89.244 2.10187 88.954C2.12052 88.3048 1.97127 86.8173 1.00117 87.019C0.733771 87.0757 0.851925 87.5106 1.12554 87.4539Z" fill="#020A13"/>
<path d="M4.83819 87.9897C5.55333 87.9644 6.26225 87.8699 6.95874 87.7186C7.23858 87.6556 7.12042 87.227 6.84059 87.2837C6.18141 87.4287 5.5098 87.5106 4.83819 87.5358C4.55836 87.5548 4.55214 88.0023 4.83819 87.9897Z" fill="#020A13"/>
<path d="M9.81321 87.6303C10.4164 87.7501 10.9201 88.0526 11.3181 88.5253C11.5047 88.7459 11.8156 88.4245 11.629 88.2102C11.1875 87.6807 10.5968 87.3278 9.93137 87.1954C9.65153 87.1387 9.53338 87.5736 9.81321 87.6303Z" fill="#020A13"/>
<path d="M14.2896 88.7271C14.4015 88.1598 14.8244 87.7312 15.3841 87.6241C15.6639 87.5674 15.5457 87.1324 15.2659 87.1892C14.5632 87.3278 14.0035 87.9014 13.8605 88.6074C13.8045 88.891 14.2336 89.0107 14.2896 88.7271Z" fill="#020A13"/>
<path d="M18.8672 87.8131C19.7253 87.5925 20.5897 87.5295 21.4728 87.624C21.7588 87.6556 21.7526 87.2017 21.4728 87.1765C20.5586 87.082 19.6445 87.1513 18.749 87.3845C18.4754 87.4476 18.5873 87.8825 18.8672 87.8131Z" fill="#020A13"/>
<path d="M23.9413 87.5736C24.1838 88.3489 23.3878 88.8153 22.8281 89.1242C22.5794 89.2628 22.8033 89.6536 23.052 89.5149C23.7982 89.1053 24.6813 88.4434 24.3704 87.4602C24.2833 87.1828 23.8542 87.2963 23.9413 87.5736Z" fill="#020A13"/>
<path d="M25.5643 89.4203C25.384 89.9939 25.1104 90.5108 24.7248 90.9709C24.5383 91.1915 24.8554 91.5067 25.0357 91.286C25.471 90.7692 25.7882 90.1893 25.9934 89.5401C26.0743 89.2691 25.6452 89.1493 25.5643 89.4203Z" fill="#020A13"/>
<path d="M24.4697 94.4565C24.8428 94.633 25.1661 94.8851 25.4149 95.2129C25.589 95.4398 25.9684 95.2129 25.8004 94.986C25.502 94.5952 25.1413 94.2801 24.6935 94.0658C24.4386 93.946 24.2085 94.3368 24.4697 94.4565Z" fill="#020A13"/>
<path d="M25.4337 97.5199C25.2907 98.1124 24.9922 98.6229 24.5507 99.0452C24.3454 99.2469 24.6564 99.5621 24.8616 99.3604C25.3529 98.8876 25.6949 98.3015 25.8566 97.6333C25.9312 97.356 25.5021 97.2363 25.4337 97.5199Z" fill="#020A13"/>
<path d="M24.3771 101.812C24.6631 102.279 24.8559 102.783 24.9492 103.325C24.9989 103.609 25.428 103.489 25.3782 103.205C25.2788 102.625 25.0673 102.083 24.7626 101.585C24.6071 101.339 24.2216 101.566 24.3771 101.812Z" fill="#020A13"/>
<path d="M25.7952 106.823C25.2107 106.439 24.6199 106.06 24.0354 105.676C23.7928 105.518 23.569 105.909 23.8115 106.067C24.396 106.451 24.9868 106.829 25.5714 107.214C25.8139 107.365 26.0378 106.974 25.7952 106.823Z" fill="#020A13"/>
<path d="M24.874 108.43C24.5071 108.903 24.0407 109.269 23.481 109.477C23.2136 109.578 23.3318 110.012 23.5992 109.912C24.2273 109.678 24.7745 109.288 25.1912 108.752C25.3591 108.525 25.0481 108.204 24.874 108.43Z" fill="#020A13"/>
<path d="M24.999 111.91C25.1172 112.162 25.1918 112.433 25.2104 112.71C25.2353 112.994 25.6768 113 25.652 112.71C25.6271 112.351 25.5338 112.01 25.3783 111.683C25.2602 111.418 24.8746 111.651 24.999 111.91Z" fill="#020A13"/>
<path d="M23.0025 112.212C22.505 111.475 21.964 110.769 21.3919 110.088C21.2053 109.867 20.8944 110.189 21.081 110.403C21.6344 111.052 22.1443 111.727 22.6232 112.433C22.7786 112.679 23.1642 112.452 23.0025 112.212Z" fill="#020A13"/>
<path d="M19.9431 111.607C19.4083 111.796 18.8611 111.966 18.3076 112.111C18.034 112.181 18.1459 112.616 18.4258 112.546C18.9792 112.401 19.5202 112.237 20.0612 112.042C20.3286 111.947 20.2105 111.513 19.9431 111.607Z" fill="#020A13"/>
<path d="M15.1791 111.431C15.2537 110.832 15.3283 110.233 15.4092 109.634C15.4465 109.351 14.9988 109.351 14.9677 109.634C14.8931 110.233 14.8184 110.832 14.7376 111.431C14.7003 111.714 15.1418 111.714 15.1791 111.431Z" fill="#020A13"/>
<path d="M12.337 111.405C12.7164 111.834 13.0335 112.307 13.2885 112.824C13.4191 113.082 13.7984 112.855 13.674 112.597C13.4004 112.048 13.0584 111.544 12.6542 111.084C12.4552 110.87 12.1442 111.191 12.337 111.405Z" fill="#020A13"/>
<path d="M10.298 112.559C9.87513 112.471 9.54554 112.168 9.43361 111.746C9.35899 111.468 8.93612 111.582 9.00453 111.866C9.15377 112.433 9.60773 112.88 10.1798 112.994C10.4597 113.05 10.5778 112.616 10.298 112.559Z" fill="#020A13"/>
<path d="M5.63976 112.502C6.49793 112.363 7.23795 111.853 7.6919 111.096C7.84115 110.851 7.4556 110.624 7.30635 110.87C6.90836 111.531 6.26784 111.947 5.51539 112.067C5.24177 112.111 5.35993 112.546 5.63976 112.502Z" fill="#020A13"/>
<path d="M2.84191 112.256C2.84191 111.809 2.84191 111.355 2.84191 110.907C2.84191 110.617 2.40039 110.617 2.40039 110.907C2.40039 111.355 2.40039 111.809 2.40039 112.256C2.40039 112.546 2.84191 112.546 2.84191 112.256Z" fill="#020A13"/>
<path d="M0.416578 111.153C0.845662 110.473 1.31828 109.823 1.8282 109.206C2.00854 108.985 1.69761 108.664 1.51727 108.891C0.982471 109.54 0.484982 110.221 0.0372426 110.933C-0.118223 111.172 0.267331 111.393 0.416578 111.153Z" fill="#020A13"/>
<path d="M0.882776 106.306C1.31186 106.584 1.77826 106.792 2.26331 106.937C2.53693 107.018 2.65508 106.584 2.38146 106.502C1.9275 106.363 1.50464 106.174 1.10665 105.915C0.86412 105.764 0.64025 106.155 0.882776 106.306Z" fill="#020A13"/>
<path d="M3.84282 109.376C4.08535 109.552 4.27812 109.786 4.42115 110.05C4.55796 110.302 4.94351 110.075 4.80671 109.823C4.62637 109.489 4.3714 109.212 4.06669 108.985C3.96719 108.916 3.81795 108.966 3.76198 109.067C3.69979 109.18 3.74954 109.307 3.84282 109.376Z" fill="#020A13"/>
<path d="M1.56008 103.974C1.28025 103.47 1.06881 102.94 0.913348 102.379C0.838725 102.102 0.409641 102.222 0.484264 102.499C0.645948 103.092 0.876036 103.659 1.17453 104.201C1.31756 104.453 1.69689 104.226 1.56008 103.974Z" fill="#020A13"/>
<path d="M1.73505 100.489C2.22632 100.526 2.71137 100.501 3.20264 100.419C3.48248 100.375 3.36432 99.9402 3.08449 99.9843C2.63675 100.06 2.18901 100.073 1.73505 100.035C1.44899 100.016 1.44899 100.463 1.73505 100.489Z" fill="#020A13"/>
<path d="M2.44386 98.5787C2.10805 98.0997 1.76603 97.6207 1.43022 97.1416C1.26854 96.9084 0.882985 97.1353 1.04467 97.3685C1.38047 97.8476 1.7225 98.3266 2.0583 98.8056C2.2262 99.0451 2.61176 98.8182 2.44386 98.5787Z" fill="#020A13"/>
<path d="M0.714842 94.6457C0.957368 94.3179 1.26208 94.0469 1.59788 93.8263C1.84041 93.6687 1.61654 93.2842 1.37401 93.4355C0.963586 93.7002 0.621563 94.028 0.329288 94.4124C0.155167 94.652 0.540721 94.8726 0.714842 94.6457Z" fill="#020A13"/>
<path d="M0.951102 91.179C1.34909 91.3492 1.70977 91.5824 2.02692 91.8786C2.23835 92.074 2.54928 91.7589 2.33785 91.5635C1.98961 91.242 1.60406 90.9836 1.17497 90.7945C0.920009 90.6748 0.68992 91.0656 0.951102 91.179Z" fill="#020A13"/>
<path d="M4.38437 90.7377C4.53362 90.347 4.97514 90.1327 5.36691 90.2335C5.64675 90.3028 5.76491 89.8679 5.48507 89.7986C4.83833 89.6347 4.1916 89.994 3.95529 90.618C3.85579 90.889 4.28488 91.0025 4.38437 90.7377Z" fill="#020A13"/>
<path d="M8.9923 90.1705C8.91146 90.5487 8.76221 90.8953 8.5259 91.1979C8.35178 91.4248 8.66271 91.7399 8.83683 91.513C9.12289 91.1475 9.32188 90.7441 9.41516 90.2902C9.48357 90.0066 9.05448 89.8869 8.9923 90.1705Z" fill="#020A13"/>
<path d="M12.014 91.9668C12.6856 91.8912 13.3199 91.6769 13.8982 91.3239C14.1407 91.1726 13.9169 90.7818 13.6743 90.9331C13.1644 91.2483 12.611 91.45 12.014 91.5193C11.7341 91.5508 11.7279 91.9983 12.014 91.9668Z" fill="#020A13"/>
<path d="M16.8896 90.3912C17.4306 90.3281 17.9716 90.2714 18.5126 90.2084C18.7925 90.1769 18.7987 89.7294 18.5126 89.7609C17.9716 89.8239 17.4306 89.8806 16.8896 89.9437C16.6097 89.9689 16.6097 90.4227 16.8896 90.3912Z" fill="#020A13"/>
<path d="M19.6632 90.4856C19.9181 91.0466 20.2726 91.5445 20.7141 91.9668C20.9193 92.1685 21.2365 91.8471 21.025 91.6517C20.6084 91.2546 20.2788 90.7882 20.0425 90.2587C19.9243 90.0003 19.545 90.2272 19.6632 90.4856Z" fill="#020A13"/>
<path d="M22.6543 92.7736C22.6108 93.3156 22.4118 93.801 22.0946 94.2359C21.9267 94.4691 22.3061 94.6897 22.4802 94.4628C22.8471 93.9648 23.0461 93.3913 23.1021 92.7736C23.1207 92.4836 22.6792 92.4899 22.6543 92.7736Z" fill="#020A13"/>
<path d="M23.5125 96.1459C23.525 96.5114 23.4006 96.8392 23.1519 97.0976C22.9529 97.3056 23.2638 97.6208 23.4628 97.4128C23.7924 97.0724 23.9727 96.6186 23.9541 96.1396C23.9478 95.8559 23.5001 95.8559 23.5125 96.1459Z" fill="#020A13"/>
<path d="M21.3924 99.7511C21.8588 100.155 22.2319 100.646 22.4682 101.22C22.5802 101.484 23.0093 101.365 22.8973 101.1C22.6299 100.451 22.2381 99.8898 21.7096 99.436C21.4919 99.2469 21.1748 99.5621 21.3924 99.7511Z" fill="#020A13"/>
<path d="M21.9885 103.337C22.032 103.753 21.9885 104.157 21.8579 104.554C21.7646 104.825 22.1937 104.945 22.287 104.674C22.4362 104.245 22.486 103.791 22.4362 103.337C22.3989 103.054 21.9574 103.054 21.9885 103.337Z" fill="#020A13"/>
<path d="M20.9133 107.932C21.5973 108.172 22.3622 107.964 22.8348 107.416C23.0214 107.195 22.7105 106.88 22.5239 107.1C22.1446 107.542 21.5787 107.699 21.0377 107.504C20.764 107.403 20.6459 107.838 20.9133 107.932Z" fill="#020A13"/>
<path d="M19.0539 108.449C18.998 108.676 18.488 108.802 18.3015 108.884C18.0092 109.01 17.7232 109.143 17.4309 109.269C17.1697 109.382 17.3936 109.773 17.6547 109.659C18.0652 109.477 18.4818 109.294 18.8922 109.111C19.1534 108.991 19.396 108.878 19.4768 108.575C19.5514 108.285 19.1286 108.166 19.0539 108.449Z" fill="#020A13"/>
<path d="M19.8618 105.878C19.9302 105.481 19.9489 105.09 19.9115 104.693C19.8867 104.409 19.4389 104.403 19.47 104.693C19.5011 105.052 19.4949 105.405 19.4327 105.758C19.383 106.041 19.8121 106.161 19.8618 105.878Z" fill="#020A13"/>
<path d="M19.389 100.633C19.6129 101.22 19.445 101.894 18.9288 102.26C18.6987 102.424 18.9164 102.814 19.1527 102.65C19.8181 102.171 20.1166 101.302 19.8181 100.514C19.7186 100.249 19.2895 100.362 19.389 100.633Z" fill="#020A13"/>
<path d="M20.2788 95.6163C20.4529 96.152 20.3969 96.6815 20.1109 97.1668C19.9616 97.4126 20.3472 97.6396 20.4964 97.3937C20.8385 96.8139 20.9193 96.1394 20.7079 95.4965C20.6146 95.2192 20.1855 95.3389 20.2788 95.6163Z" fill="#020A13"/>
<path d="M19.035 93.8263C19.0536 93.3661 18.9666 92.9312 18.78 92.5152C18.6618 92.2505 18.2825 92.4774 18.3944 92.7421C18.5437 93.0888 18.6059 93.4544 18.5872 93.8263C18.5748 94.1162 19.0225 94.1099 19.035 93.8263Z" fill="#020A13"/>
<path d="M15.7703 92.1558C15.5526 92.5088 15.136 92.6916 14.738 92.6034C14.4582 92.5466 14.34 92.9815 14.6199 93.0383C15.2231 93.1643 15.8263 92.9122 16.1558 92.3827C16.3113 92.1432 15.9258 91.9163 15.7703 92.1558Z" fill="#020A13"/>
<path d="M8.90468 93.3725C9.2467 93.6561 9.64469 93.8074 10.0862 93.8263C10.3723 93.8326 10.3723 93.3851 10.0862 93.3788C9.76907 93.3662 9.46435 93.2653 9.21561 93.0573C8.99796 92.8745 8.68081 93.1897 8.90468 93.3725Z" fill="#020A13"/>
<path d="M6.26773 92.5909C5.72672 92.7673 5.17948 92.8241 4.61358 92.761C4.32753 92.7295 4.33375 93.1833 4.61358 93.2086C5.21679 93.2716 5.80756 93.2086 6.38589 93.0195C6.65951 92.9375 6.54135 92.5026 6.26773 92.5909Z" fill="#020A13"/>
<path d="M3.40145 94.9229C3.4512 95.2381 3.32683 95.5721 3.07808 95.7675C2.85421 95.944 3.07808 96.3348 3.30195 96.1583C3.72482 95.8306 3.91759 95.3389 3.83053 94.8032C3.787 94.5195 3.35792 94.6393 3.40145 94.9229Z" fill="#020A13"/>
<path d="M5.21094 97.7216C5.21094 98.2952 5.21094 98.8688 5.21094 99.4423C5.21094 99.7323 5.65246 99.7323 5.65246 99.4423C5.65246 98.8688 5.65246 98.2952 5.65246 97.7216C5.65246 97.4317 5.21094 97.4317 5.21094 97.7216Z" fill="#020A13"/>
<path d="M3.83057 102.386C3.76217 102.625 3.69998 102.865 3.63158 103.104C3.60048 103.224 3.53208 103.684 3.36417 103.709C3.08434 103.747 3.08434 104.195 3.36417 104.157C3.65645 104.119 3.81813 103.949 3.92385 103.678C4.0731 103.306 4.15394 102.896 4.25965 102.506C4.33428 102.228 3.90519 102.108 3.83057 102.386Z" fill="#020A13"/>
<path d="M4.55176 105.739C4.55176 106.344 4.62016 106.937 4.75075 107.529C4.81294 107.813 5.24202 107.693 5.17984 107.409C5.05546 106.861 4.99328 106.306 4.99328 105.739C4.99328 105.449 4.55176 105.449 4.55176 105.739Z" fill="#020A13"/>
<path d="M7.24495 108.512C7.81706 108.739 8.28345 109.206 8.51354 109.786C8.61926 110.05 9.04834 109.937 8.94263 109.666C8.65035 108.928 8.0969 108.374 7.3631 108.077C7.0957 107.97 6.98377 108.405 7.24495 108.512Z" fill="#020A13"/>
<path d="M10.5156 108.582C11.0815 108.348 11.6412 108.115 12.2071 107.882C12.4683 107.775 12.3563 107.34 12.0889 107.447C11.5231 107.68 10.9634 107.914 10.3975 108.147C10.1363 108.254 10.2545 108.689 10.5156 108.582Z" fill="#020A13"/>
<path d="M15.5215 105.846C15.1982 106.023 14.881 106.193 14.5576 106.369C14.3089 106.508 14.5328 106.892 14.7815 106.76C15.1049 106.584 15.422 106.413 15.7454 106.237C16.0004 106.098 15.7765 105.707 15.5215 105.846Z" fill="#020A13"/>
<path d="M17.4178 106.634C17.3929 106.13 17.3058 105.638 17.1628 105.153C17.082 104.875 16.6529 104.995 16.7337 105.273C16.8643 105.72 16.9452 106.168 16.97 106.634C16.9887 106.924 17.4302 106.924 17.4178 106.634Z" fill="#020A13"/>
<path d="M16.1683 103.249C17.014 103.457 17.0513 101.9 17.0451 101.39C17.0389 101.1 16.5974 101.1 16.6036 101.39C16.6098 101.548 16.5601 102.884 16.2927 102.814C16.0066 102.751 15.8885 103.186 16.1683 103.249Z" fill="#020A13"/>
<path d="M17.1755 98.6985C17.4243 98.6418 17.673 98.6733 17.8969 98.7931C18.1518 98.9254 18.3757 98.5409 18.1207 98.4023C17.7849 98.2258 17.4243 98.1754 17.0574 98.2636C16.7775 98.3329 16.8957 98.7615 17.1755 98.6985Z" fill="#020A13"/>
<path d="M18.0966 96.4169C17.5431 95.9819 17.1265 95.4021 16.8964 94.7339C16.8031 94.4629 16.374 94.5827 16.4673 94.8537C16.7471 95.6416 17.2197 96.2971 17.8727 96.8076C18.1028 96.9841 18.3204 96.5933 18.0966 96.4169Z" fill="#020A13"/>
<path d="M14.2838 95.7928C13.6992 95.5785 13.1893 95.2382 12.7602 94.7907C12.5612 94.5827 12.2441 94.9041 12.4493 95.1058C12.9344 95.6101 13.5127 95.9819 14.1719 96.2278C14.433 96.3223 14.5512 95.8937 14.2838 95.7928Z" fill="#020A13"/>
<path d="M6.84 95.4966C7.29395 95.6163 7.6422 95.963 7.76035 96.4231C7.83497 96.7004 8.25784 96.587 8.18943 96.3034C8.03397 95.692 7.56136 95.2192 6.95815 95.0617C6.68453 94.9923 6.56638 95.4272 6.84 95.4966Z" fill="#020A13"/>
<path d="M6.75927 101.39C7.11373 101.396 7.28163 101.106 7.41223 100.81C7.59878 100.369 7.72937 99.9087 7.804 99.4296C7.84753 99.146 7.42466 99.0263 7.37491 99.3099C7.33138 99.5872 7.2692 99.852 7.18836 100.123C7.13861 100.293 6.98314 100.942 6.75305 100.942C6.47322 100.936 6.47321 101.39 6.75927 101.39Z" fill="#020A13"/>
<path d="M6.29288 103.59C6.65977 103.999 6.84011 104.51 6.8339 105.065C6.82768 105.354 7.2692 105.354 7.27542 105.065C7.28785 104.39 7.05155 103.766 6.60381 103.268C6.41725 103.054 6.10632 103.375 6.29288 103.59Z" fill="#020A13"/>
<path d="M8.61261 106.395C9.06656 106.445 9.47077 106.628 9.82523 106.905C10.0491 107.082 10.273 106.691 10.0491 106.514C9.62624 106.187 9.14119 105.997 8.61261 105.941C8.32655 105.915 8.33277 106.369 8.61261 106.395Z" fill="#020A13"/>
<path d="M12.1761 104.529C12.2818 103.993 12.5927 103.552 13.0716 103.287C13.3203 103.148 13.0964 102.758 12.8477 102.896C12.2818 103.211 11.8776 103.766 11.7532 104.409C11.691 104.693 12.1201 104.812 12.1761 104.529Z" fill="#020A13"/>
<path d="M15.055 99.9654C15.0052 99.2972 14.8311 98.6669 14.5388 98.0682C14.4145 97.8097 14.0289 98.0366 14.1533 98.2951C14.4083 98.8245 14.5637 99.3792 14.6073 99.9654C14.6383 100.255 15.0799 100.255 15.055 99.9654Z" fill="#020A13"/>
<path d="M11.9024 97.1479C11.4982 96.921 11.1189 96.6626 10.7644 96.3601C10.5468 96.1773 10.2296 96.4924 10.4535 96.6752C10.8391 96.9967 11.2433 97.2866 11.6786 97.5324C11.9273 97.6774 12.1512 97.2866 11.9024 97.1479Z" fill="#020A13"/>
<path d="M9.42118 98.0809C9.54555 98.6103 9.87514 99.0641 10.3415 99.3415C10.5903 99.4864 10.8142 99.1019 10.5654 98.9507C10.1985 98.7301 9.94976 98.3834 9.85027 97.9611C9.78808 97.6838 9.35899 97.7972 9.42118 98.0809Z" fill="#020A13"/>
<path d="M12.7481 99.354C12.9098 99.9024 12.8228 100.444 12.5056 100.917C12.3439 101.157 12.7295 101.384 12.8912 101.144C13.2767 100.583 13.3762 99.8898 13.1834 99.2343C13.0964 98.9632 12.6673 99.0767 12.7481 99.354Z" fill="#020A13"/>
<path d="M8.66262 102.443C9.19742 102.203 9.62651 101.793 9.90634 101.276C10.0432 101.024 9.66382 100.797 9.52079 101.05C9.27205 101.503 8.89893 101.844 8.43253 102.052C8.17757 102.172 8.40144 102.562 8.66262 102.443Z" fill="#020A13"/>
<path d="M10.5837 102.89C10.565 103.243 10.4158 103.546 10.1546 103.779C9.94314 103.974 10.2541 104.289 10.4655 104.094C10.8075 103.779 11.0003 103.35 11.019 102.884C11.0376 102.6 10.5961 102.606 10.5837 102.89Z" fill="#020A13"/>
</g>
<path d="M118.666 105.573C115.268 70.6284 113.38 48.2918 110.747 5.14313C110.642 3.43754 109.137 2.14879 107.437 2.32701L20.7801 11.415C19.421 11.5575 18.3281 12.6099 18.1274 13.9616C13.1581 47.4366 11.8211 67.5569 12.0185 101.884C12.0277 103.486 13.2963 104.801 14.8963 104.864L115.56 108.863C117.379 108.936 118.842 107.384 118.666 105.573Z" fill="#8CFED1" stroke="#020A13" stroke-width="4"/>
<path d="M110.63 10.0754L110.126 5.90814C109.93 4.29093 108.479 3.12543 106.858 3.28257L20.6696 11.6355C19.2745 11.7707 18.159 12.8539 17.9828 14.2444L17.4708 18.2844C17.2293 20.1902 18.8162 21.8287 20.7288 21.6483L107.933 13.4226C109.614 13.2641 110.833 11.751 110.63 10.0754Z" fill="#020A13"/>
<ellipse cx="23.5" cy="19" rx="1.5" ry="1" fill="#00B1B1"/>
<circle cx="27" cy="19" r="1" fill="#FEBD00"/>
<ellipse cx="30.5" cy="18" rx="0.5" ry="1" fill="#FE0E11"/>
<path d="M17 28L112 21" stroke="black" stroke-width="3"/>
<path d="M26 48.1722C27.4891 48.1722 29.6174 47.8844 31.0796 48.2867C31.8178 48.4897 32.3406 48.8283 33.15 48.9352C34.5371 49.1183 35.3251 48.8929 36.5685 48.5156C38.1351 48.0402 40.1901 48.3874 41.8648 48.3439C43.2055 48.3091 44.3774 47.9343 45.7648 48.0101C46.2452 48.0363 46.6161 48.1835 47.113 48.1722C48.7278 48.1357 50.348 48.0006 52 48.0006" stroke="#020A13" stroke-width="2" stroke-linecap="round" stroke-linejoin="round"/>
<path d="M25 54.8068C26.5292 54.6617 28.0478 54.4553 29.5119 54.8871C30.174 55.0823 30.9514 55.0041 31.5952 54.8068C33.5683 54.2023 35.7276 54.9661 37.7143 54.185C38.5946 53.8388 40.0949 54.0847 41.0595 54.0847C42.7128 54.0847 44.3368 54.2652 46 54.2652" stroke="#020A13" stroke-width="2" stroke-linecap="round" stroke-linejoin="round"/>
<path d="M25 61.1807C31.643 61.5965 38.2492 61.8887 44.8996 61.8887C48.3481 61.8887 51.9741 62.2575 55.3938 61.6527C56.6257 61.4348 57.8214 61.0701 59.0425 60.8398C60.7099 60.5252 62.4878 60.7087 64.1737 60.7087C67.7225 60.7087 71.2126 60.0387 74.7375 60.0007C76.1882 59.9851 77.5669 60.2367 79 60.2367" stroke="#020A13" stroke-width="2" stroke-linecap="round" stroke-linejoin="round"/>
<path d="M25 68C30.7442 68 36.4139 67.8 42.1582 67.8C43.8317 67.8 45.0077 67 46.6599 67C48.8014 67 50.8551 67.6 53 67.6" stroke="#020A13" stroke-width="2" stroke-linecap="round" stroke-linejoin="round"/>
<path d="M24 75.2728C26.8466 75.2728 29.9935 74.6458 32.8415 75.293C33.7485 75.4991 34.3969 76 35.4252 76C36.9501 76 38.4751 76 40 76" stroke="#020A13" stroke-width="2" stroke-linecap="round" stroke-linejoin="round"/>
<g clip-path="url(#clip1)">
<path d="M68 52.6666C48 52.6666 45.3333 71.3333 44 79.3333H46.664C47.552 74.8893 49.7747 72.4453 53.3333 72C58.6667 71.3333 62.6667 66.6666 64 62.6666L62 61.3333L63.3333 60C64.6667 58.6666 66.0053 56.6666 68 52.6666Z" fill="#7BCDEB"/>
<path d="M65.4736 52.6666C45.4736 52.6666 42.807 71.3333 41.4736 79.3333H44.1376C45.0256 74.8893 47.2483 72.4453 50.807 72C56.1403 71.3333 60.1403 66.6666 61.4736 62.6666L59.4736 61.3333L60.807 60C62.1403 58.6666 63.479 56.6666 65.4736 52.6666Z" fill="black"/>
</g>
<path d="M28.3186 42.184V42.688L25.9786 41.578V41.17L28.3186 40.06V40.564L26.5546 41.362V41.386L28.3186 42.184ZM29.6617 43H29.1097V38.704H29.6617V40.546H31.8097V38.704H32.3617V43H31.8097V41.062H29.6617V43ZM34.687 39.232V43H34.135V39.232H32.935V38.704H35.887V39.232H34.687ZM37.0153 43H36.4633V38.704H37.0153L38.5093 41.32H38.5333L40.0273 38.704H40.5793V43H40.0273V40.45L40.0513 39.73H40.0273L38.6833 42.088H38.3593L37.0153 39.73H36.9913L37.0153 40.45V43ZM43.8557 43H41.4437V38.704H41.9957V42.472H43.8557V43ZM43.6648 64.17V64.578L41.3248 65.688V65.184L43.0888 64.386V64.362L41.3248 63.564V63.06L43.6648 64.17Z" fill="black"/>
<defs>
<clipPath id="clip0">
<rect width="26" height="26" fill="white" transform="translate(0 87)"/>
</clipPath>
<clipPath id="clip1">
<rect width="32" height="32" fill="white" transform="translate(40 50)"/>
</clipPath>
</defs>
</svg>
