<svg width="24" height="24" viewBox="0 0 24 24" fill="none" xmlns="http://www.w3.org/2000/svg">
<path d="M13.3333 13.3333H20V16H13.3333V13.3333ZM13.3333 8H20V10.6667H13.3333V8ZM5.21333 5.88L11.3333 12L5.21333 18.1333L3.33333 16.24L7.57333 12L3.33333 7.76L5.21333 5.88ZM2.66667 0C1.95942 0 1.28115 0.280951 0.781048 0.781048C0.280951 1.28115 0 1.95942 0 2.66667V21.3333C0 22.0406 0.280951 22.7189 0.781048 23.219C1.28115 23.719 1.95942 24 2.66667 24H21.3333C22.0406 24 22.7189 23.719 23.219 23.219C23.719 22.7189 24 22.0406 24 21.3333V2.66667C24 1.95942 23.719 1.28115 23.219 0.781048C22.7189 0.280951 22.0406 0 21.3333 0H2.66667Z" fill="black"/>
</svg>
