<svg width="24" height="24" viewBox="0 0 24 24" fill="none" xmlns="http://www.w3.org/2000/svg">
<path d="M24 16.5C24 17.8594 23.6641 19.1133 22.9922 20.2617C22.3203 21.4102 21.4102 22.3203 20.2617 22.9922C19.1133 23.6641 17.8594 24 16.5 24C15.2969 24 14.1719 23.7305 13.125 23.1914C12.0781 22.6523 11.2031 21.9219 10.5 21C9.07812 21 7.71875 20.7227 6.42188 20.168C5.125 19.6133 4.00781 18.8672 3.07031 17.9297C2.13281 16.9922 1.38672 15.875 0.832031 14.5781C0.277344 13.2812 0 11.9219 0 10.5C0 9.07812 0.277344 7.71875 0.832031 6.42188C1.38672 5.125 2.13281 4.00781 3.07031 3.07031C4.00781 2.13281 5.125 1.38672 6.42188 0.832031C7.71875 0.277344 9.07812 0 10.5 0C11.9219 0 13.2812 0.277344 14.5781 0.832031C15.875 1.38672 16.9922 2.13281 17.9297 3.07031C18.8672 4.00781 19.6133 5.125 20.168 6.42188C20.7227 7.71875 21 9.07812 21 10.5C21.9219 11.2031 22.6523 12.0781 23.1914 13.125C23.7305 14.1719 24 15.2969 24 16.5ZM12 10.5C11.7656 10.3906 11.582 10.1445 11.4492 9.76172C11.3164 9.37891 11.1328 9.13281 10.8984 9.02344C10.8672 8.92969 10.8359 8.85938 10.8047 8.8125C10.8047 8.73438 10.7539 8.51562 10.6523 8.15625C10.5508 7.79688 10.5 7.57812 10.5 7.5C10.6719 7.45312 10.9219 7.45312 11.25 7.5C11.5781 7.54688 11.8281 7.54688 12 7.5C11.9062 7.3125 11.8438 7.05078 11.8125 6.71484C11.7812 6.37891 11.7188 6.10938 11.625 5.90625C11.6562 5.85938 11.7031 5.78516 11.7656 5.68359C11.8281 5.58203 11.875 5.50781 11.9062 5.46094C12.2031 5.42969 12.4727 5.39453 12.7148 5.35547C12.957 5.31641 13.2188 5.28125 13.5 5.25V4.5H15C14 3.75 12.8828 3.28125 11.6484 3.09375C11.6953 3.25 11.7539 3.48047 11.8242 3.78516C11.8945 4.08984 11.9453 4.3125 11.9766 4.45312C11.8516 4.5 11.7109 4.55469 11.5547 4.61719C11.5703 4.61719 11.5938 4.62891 11.625 4.65234C11.6562 4.67578 11.6797 4.6875 11.6953 4.6875C11.6172 4.70312 11.418 4.67188 11.0977 4.59375C10.7773 4.51562 10.5781 4.48438 10.5 4.5C10.5312 4.375 10.5391 4.12109 10.5234 3.73828C10.5078 3.35547 10.5391 3.10938 10.6172 3H10.5C8.76562 3 7.21875 3.53906 5.85938 4.61719C6.35938 5.44531 6.65625 5.90625 6.75 6C6.625 5.9375 6.5 6.02344 6.375 6.25781C6.25 6.49219 6.15625 6.73828 6.09375 6.99609C6.03125 7.25391 6 7.42188 6 7.5C5.71875 7.625 5.36719 7.66797 4.94531 7.62891C4.52344 7.58984 4.17188 7.625 3.89062 7.73438C3.84375 8.04688 3.69531 8.50781 3.44531 9.11719C3.19531 9.72656 3.04688 10.1875 3 10.5C3.09375 10.5781 3.22656 10.6172 3.39844 10.6172C3.57031 10.6172 3.74219 10.5938 3.91406 10.5469C4.08594 10.5 4.23047 10.5312 4.34766 10.6406C4.46484 10.75 4.51562 10.9531 4.5 11.25C4.46875 11.2812 4.4375 11.418 4.40625 11.6602C4.375 11.9023 4.34375 12.0312 4.3125 12.0469H3.16406C3.47656 13.5312 4.17578 14.8047 5.26172 15.8672C6.34766 16.9297 7.64062 17.6016 9.14062 17.8828C9.04688 17.3984 9 16.9375 9 16.5C9 14.6406 9.60156 13.0117 10.8047 11.6133C12.0078 10.2148 13.5156 9.375 15.3281 9.09375C14.6719 8.14062 14.3125 7.60938 14.25 7.5C14.1562 7.53125 14.0312 7.53125 13.875 7.5C13.7188 7.46875 13.5938 7.46875 13.5 7.5C13.4531 7.53125 13.4062 7.64844 13.3594 7.85156C13.3125 8.05469 13.2734 8.17188 13.2422 8.20312C13.3359 8.8125 13.4062 9.24219 13.4531 9.49219C13.4062 9.55469 13.1641 9.72266 12.7266 9.99609C12.2891 10.2695 12.0469 10.4375 12 10.5ZM17.4609 7.73438C17.3984 7.64062 17.3281 7.5625 17.25 7.5H15.75C15.75 7.54688 15.7539 7.67188 15.7617 7.875C15.7695 8.07812 15.7656 8.20312 15.75 8.25C15.9062 8.35938 16.1562 8.48438 16.5 8.625C16.8438 8.76562 17.0938 8.89062 17.25 9L17.2266 9.01172L17.2031 9.02344C17.4062 9.05469 17.625 9.09375 17.8594 9.14062C17.7812 8.64062 17.6484 8.17188 17.4609 7.73438ZM16.5117 12C15.2695 12 14.207 12.4375 13.3242 13.3125C12.4414 14.1875 12 15.25 12 16.5C12 17.75 12.4414 18.8125 13.3242 19.6875C14.207 20.5625 15.2695 21 16.5117 21C17.7539 21 18.8125 20.5625 19.6875 19.6875C20.5625 18.8125 21 17.75 21 16.5C21 15.25 20.5625 14.1875 19.6875 13.3125C18.8125 12.4375 17.7539 12 16.5117 12Z" fill="black"/>
</svg>
