<svg width="24" height="24" viewBox="0 0 24 24" fill="none" xmlns="http://www.w3.org/2000/svg">
<mask id="path-1-inside-1" fill="white">
<path fill-rule="evenodd" clip-rule="evenodd" d="M5.98644 22.385C-1.99548 17.7834 -1.99548 6.21671 5.98644 1.61499C13.9684 -2.98669 24 2.79666 24 12C24 13.2506 23.8148 14.438 23.4747 15.5448C23.8177 16.3097 24 17.1455 24 18C24 19.5913 23.3679 21.1175 22.2427 22.2427C21.1174 23.3679 19.5913 24 18 24C17.1301 24 16.2797 23.8111 15.5037 23.4561C12.4937 24.3928 9.08557 24.1717 5.98644 22.385ZM16.3985 12.2177C16.0352 11.3501 16.1655 10.2519 16.7449 9.58486C18.3372 8.20227 19.0808 8.44766 20.6412 8.96254C21.224 9.15484 21.9206 9.38473 22.818 9.58144C22.7344 9.20522 22.6311 8.83365 22.5086 8.46826C21.7447 8.2974 21.1096 7.94813 20.5164 7.28241C20.3531 7.28281 20.1984 7.28028 20.0519 7.27789C19.2031 7.26401 18.6276 7.25461 18.2249 7.84496C17.7381 8.52502 17.2798 8.98327 16.8671 7.86483C16.7749 7.35831 17.0026 7.32785 17.2744 7.29148C17.5504 7.25455 17.872 7.21153 17.9505 6.65799C18.0169 5.99832 18.5552 6.01468 19.0385 6.02936C19.105 6.03138 19.1704 6.03337 19.2335 6.03357C19.6436 5.74411 19.8156 5.30883 19.1436 5.05317C18.5636 4.76471 19.1801 4.17436 20.1322 4.46405C18.4716 2.66897 16.2254 1.42364 13.6971 1.03153C15.5234 2.46919 14.7234 2.84756 12.9776 3.17766C11.3042 5.151 10.7208 4.221 10.1196 3.09085C9.79082 2.30189 9.56259 1.21978 12.3075 0.904548C9.51309 0.791626 5.72141 2.06663 4.59079 4.16053L5.85848 4.58738C6.49582 4.70961 6.63583 4.25091 6.76824 3.8171C6.89916 3.38818 7.02265 2.98359 7.61207 3.18891C9.08577 3.84694 9.60304 4.45889 9.94115 5.28858C10.0491 5.61591 9.87042 6.03371 9.5301 6.03371H7.68149L6.44521 7.28246C6.51281 9.25983 6.44748 9.19202 5.42169 8.12717C5.35492 8.05785 5.28407 7.98431 5.20893 7.90683C3.76869 8.41979 3.63351 9.44485 4.4969 10.0977L7.24752 11.4723C7.35004 11.3185 8.29209 11.0693 8.81301 11.3745L11.8071 13.3907C12.5078 13.8625 12.8041 14.5525 12.6833 15.2193C12.9626 14.6852 13.3233 14.1915 13.7574 13.7574C14.4965 13.0183 15.4086 12.4919 16.3985 12.2177ZM12.3536 15.9707C12.1218 16.6157 12 17.3016 12 18C12 19.5913 12.6322 21.1175 13.7574 22.2427C13.9718 22.4571 14.2008 22.6536 14.442 22.8312C6.70699 24.6694 -1.54018 17.4568 1.56819 8.14894V8.1489C2.56896 9.36652 2.89132 9.89248 3.34744 10.2457C3.90042 10.6739 4.65001 10.8482 7.04343 11.6933L6.37649 13.0407C6.06736 14.0412 6.50725 14.3635 7.01135 14.7328C7.50072 15.0913 8.0506 15.4942 8.03441 16.605L7.19563 20.4175C7.12298 20.7478 7.3401 21.0189 7.68149 21.0189C8.86996 18.9849 8.90295 18.9574 10.3051 17.791C10.7198 17.4461 11.2542 17.0015 11.9737 16.3759C12.1233 16.2492 12.2498 16.1131 12.3536 15.9707ZM16.9758 15.1758C17.0883 15.0633 17.2409 15 17.4 15C17.5592 15 17.7118 15.0633 17.8243 15.1758C17.9368 15.2883 18 15.4409 18 15.6V18H19.8C19.9592 18 20.1118 18.0633 20.2243 18.1758C20.3368 18.2883 20.4 18.4409 20.4 18.6C20.4 18.7592 20.3368 18.9118 20.2243 19.0243C20.1118 19.1368 19.9592 19.2 19.8 19.2H17.4C17.2409 19.2 17.0883 19.1368 16.9758 19.0243C16.8632 18.9118 16.8 18.7592 16.8 18.6V15.6C16.8 15.4409 16.8632 15.2883 16.9758 15.1758Z"/>
</mask>
<path fill-rule="evenodd" clip-rule="evenodd" d="M5.98644 22.385C-1.99548 17.7834 -1.99548 6.21671 5.98644 1.61499C13.9684 -2.98669 24 2.79666 24 12C24 13.2506 23.8148 14.438 23.4747 15.5448C23.8177 16.3097 24 17.1455 24 18C24 19.5913 23.3679 21.1175 22.2427 22.2427C21.1174 23.3679 19.5913 24 18 24C17.1301 24 16.2797 23.8111 15.5037 23.4561C12.4937 24.3928 9.08557 24.1717 5.98644 22.385ZM16.3985 12.2177C16.0352 11.3501 16.1655 10.2519 16.7449 9.58486C18.3372 8.20227 19.0808 8.44766 20.6412 8.96254C21.224 9.15484 21.9206 9.38473 22.818 9.58144C22.7344 9.20522 22.6311 8.83365 22.5086 8.46826C21.7447 8.2974 21.1096 7.94813 20.5164 7.28241C20.3531 7.28281 20.1984 7.28028 20.0519 7.27789C19.2031 7.26401 18.6276 7.25461 18.2249 7.84496C17.7381 8.52502 17.2798 8.98327 16.8671 7.86483C16.7749 7.35831 17.0026 7.32785 17.2744 7.29148C17.5504 7.25455 17.872 7.21153 17.9505 6.65799C18.0169 5.99832 18.5552 6.01468 19.0385 6.02936C19.105 6.03138 19.1704 6.03337 19.2335 6.03357C19.6436 5.74411 19.8156 5.30883 19.1436 5.05317C18.5636 4.76471 19.1801 4.17436 20.1322 4.46405C18.4716 2.66897 16.2254 1.42364 13.6971 1.03153C15.5234 2.46919 14.7234 2.84756 12.9776 3.17766C11.3042 5.151 10.7208 4.221 10.1196 3.09085C9.79082 2.30189 9.56259 1.21978 12.3075 0.904548C9.51309 0.791626 5.72141 2.06663 4.59079 4.16053L5.85848 4.58738C6.49582 4.70961 6.63583 4.25091 6.76824 3.8171C6.89916 3.38818 7.02265 2.98359 7.61207 3.18891C9.08577 3.84694 9.60304 4.45889 9.94115 5.28858C10.0491 5.61591 9.87042 6.03371 9.5301 6.03371H7.68149L6.44521 7.28246C6.51281 9.25983 6.44748 9.19202 5.42169 8.12717C5.35492 8.05785 5.28407 7.98431 5.20893 7.90683C3.76869 8.41979 3.63351 9.44485 4.4969 10.0977L7.24752 11.4723C7.35004 11.3185 8.29209 11.0693 8.81301 11.3745L11.8071 13.3907C12.5078 13.8625 12.8041 14.5525 12.6833 15.2193C12.9626 14.6852 13.3233 14.1915 13.7574 13.7574C14.4965 13.0183 15.4086 12.4919 16.3985 12.2177ZM12.3536 15.9707C12.1218 16.6157 12 17.3016 12 18C12 19.5913 12.6322 21.1175 13.7574 22.2427C13.9718 22.4571 14.2008 22.6536 14.442 22.8312C6.70699 24.6694 -1.54018 17.4568 1.56819 8.14894V8.1489C2.56896 9.36652 2.89132 9.89248 3.34744 10.2457C3.90042 10.6739 4.65001 10.8482 7.04343 11.6933L6.37649 13.0407C6.06736 14.0412 6.50725 14.3635 7.01135 14.7328C7.50072 15.0913 8.0506 15.4942 8.03441 16.605L7.19563 20.4175C7.12298 20.7478 7.3401 21.0189 7.68149 21.0189C8.86996 18.9849 8.90295 18.9574 10.3051 17.791C10.7198 17.4461 11.2542 17.0015 11.9737 16.3759C12.1233 16.2492 12.2498 16.1131 12.3536 15.9707ZM16.9758 15.1758C17.0883 15.0633 17.2409 15 17.4 15C17.5592 15 17.7118 15.0633 17.8243 15.1758C17.9368 15.2883 18 15.4409 18 15.6V18H19.8C19.9592 18 20.1118 18.0633 20.2243 18.1758C20.3368 18.2883 20.4 18.4409 20.4 18.6C20.4 18.7592 20.3368 18.9118 20.2243 19.0243C20.1118 19.1368 19.9592 19.2 19.8 19.2H17.4C17.2409 19.2 17.0883 19.1368 16.9758 19.0243C16.8632 18.9118 16.8 18.7592 16.8 18.6V15.6C16.8 15.4409 16.8632 15.2883 16.9758 15.1758Z" fill="black"/>
<path d="M5.98644 1.61499L5.48699 0.748646L5.48699 0.748648L5.98644 1.61499ZM5.98644 22.385L5.48699 23.2514L5.98644 22.385ZM23.4747 15.5448L22.5188 15.251L22.4082 15.6107L22.5622 15.954L23.4747 15.5448ZM22.2427 22.2427L21.5356 21.5356L21.5356 21.5356L22.2427 22.2427ZM15.5037 23.4561L15.9197 22.5467L15.5718 22.3875L15.2065 22.5012L15.5037 23.4561ZM16.7449 9.58486L16.0892 8.82978L16.0361 8.87595L15.9899 8.92911L16.7449 9.58486ZM16.3985 12.2177L16.6655 13.1814L17.7594 12.8784L17.3209 11.8314L16.3985 12.2177ZM20.6412 8.96254L20.3278 9.91218L20.3278 9.91218L20.6412 8.96254ZM22.818 9.58144L22.6039 10.5582L24.134 10.8937L23.7942 9.36453L22.818 9.58144ZM22.5086 8.46826L23.4567 8.15029L23.2773 7.61549L22.7269 7.49237L22.5086 8.46826ZM20.5164 7.28241L21.263 6.61714L20.9637 6.28131L20.5139 6.28241L20.5164 7.28241ZM20.0519 7.27789L20.0356 8.27775H20.0356L20.0519 7.27789ZM18.2249 7.84496L19.038 8.42702L19.0446 8.41786L19.0509 8.40856L18.2249 7.84496ZM16.8671 7.86483L15.8832 8.04379L15.8988 8.1294L15.9289 8.21104L16.8671 7.86483ZM17.2744 7.29148L17.1418 6.30031L17.2744 7.29148ZM17.9505 6.65799L18.9406 6.79856L18.9435 6.77839L18.9455 6.75811L17.9505 6.65799ZM19.0385 6.02936L19.0081 7.0289H19.0081L19.0385 6.02936ZM19.2335 6.03357L19.2304 7.03356L19.5494 7.03454L19.8101 6.8506L19.2335 6.03357ZM19.1436 5.05317L18.6982 5.94854L18.7421 5.97038L18.788 5.98782L19.1436 5.05317ZM20.1322 4.46405L19.841 5.42074L23.3739 6.49573L20.8662 3.78498L20.1322 4.46405ZM13.6971 1.03153L13.8503 0.0433462L10.0827 -0.54097L13.0785 1.81729L13.6971 1.03153ZM12.9776 3.17766L12.7918 2.19507L12.4439 2.26085L12.2149 2.53089L12.9776 3.17766ZM10.1196 3.09085L9.19661 3.47556L9.2147 3.51896L9.23679 3.56047L10.1196 3.09085ZM12.3075 0.904548L12.4216 1.89802L12.3479 -0.0946362L12.3075 0.904548ZM4.59079 4.16053L3.71087 3.68541L3.14706 4.72958L4.27168 5.10825L4.59079 4.16053ZM5.85848 4.58738L5.53937 5.5351L5.60358 5.55672L5.67012 5.56948L5.85848 4.58738ZM6.76824 3.8171L5.8118 3.52517L6.76824 3.8171ZM7.61207 3.18891L8.01979 2.2758L7.98106 2.25851L7.94102 2.24456L7.61207 3.18891ZM9.94115 5.28858L10.8908 4.97525L10.8801 4.94282L10.8672 4.9112L9.94115 5.28858ZM7.68149 6.03371V5.03371H7.26434L6.97085 5.33016L7.68149 6.03371ZM6.44521 7.28246L5.73456 6.57891L5.43106 6.88548L5.44579 7.31662L6.44521 7.28246ZM5.42169 8.12717L4.7015 8.82094L4.7015 8.82095L5.42169 8.12717ZM5.20893 7.90683L5.92677 7.21062L5.47912 6.74907L4.87341 6.9648L5.20893 7.90683ZM4.4969 10.0977L3.89375 10.8954L3.96734 10.951L4.04988 10.9922L4.4969 10.0977ZM7.24752 11.4723L6.8005 12.3668L7.59006 12.7614L8.07961 12.0269L7.24752 11.4723ZM8.81301 11.3745L9.37157 10.545L9.34557 10.5275L9.31853 10.5116L8.81301 11.3745ZM11.8071 13.3907L12.3657 12.5612L12.3657 12.5612L11.8071 13.3907ZM12.6833 15.2193L11.6993 15.041L13.5694 15.6827L12.6833 15.2193ZM13.7574 13.7574L14.4645 14.4645L14.4645 14.4645L13.7574 13.7574ZM12.3536 15.9707L13.2947 16.309L11.5455 15.3817L12.3536 15.9707ZM13.7574 22.2427L14.4645 21.5356V21.5356L13.7574 22.2427ZM14.442 22.8312L14.6732 23.8041L16.772 23.3054L15.035 22.0261L14.442 22.8312ZM1.56819 8.14894L2.5167 8.4657L2.56819 8.31151V8.14894H1.56819ZM1.56819 8.1489L2.34074 7.51394L0.568192 5.35729V8.1489H1.56819ZM3.34744 10.2457L2.73517 11.0363H2.73517L3.34744 10.2457ZM7.04343 11.6933L7.93964 12.137L8.44008 11.126L7.37638 10.7504L7.04343 11.6933ZM6.37649 13.0407L5.48028 12.597L5.44472 12.6689L5.42106 12.7455L6.37649 13.0407ZM7.01135 14.7328L7.60234 13.9261L7.01135 14.7328ZM8.03441 16.605L9.01106 16.8198L9.03283 16.7209L9.03431 16.6195L8.03441 16.605ZM7.19563 20.4175L6.21899 20.2026L6.21898 20.2027L7.19563 20.4175ZM7.68149 21.0189V22.0189H8.25539L8.54491 21.5234L7.68149 21.0189ZM10.3051 17.791L10.9446 18.5598L10.9446 18.5598L10.3051 17.791ZM11.9737 16.3759L11.3272 15.6129L11.3176 15.6213L11.9737 16.3759ZM17.8243 15.1758L18.5314 14.4687L18.5314 14.4687L17.8243 15.1758ZM18 18H17V19H18V18ZM20.2243 19.0243L19.5172 18.3172L19.5172 18.3172L20.2243 19.0243ZM16.9758 19.0243L17.6829 18.3172L17.6829 18.3172L16.9758 19.0243ZM5.48699 0.748648C-3.16233 5.73513 -3.16233 18.2649 5.48699 23.2514L6.4859 21.5187C-0.82863 17.3018 -0.828638 6.69829 6.4859 2.48132L5.48699 0.748648ZM25 12C25 2.02462 14.1334 -4.23611 5.48699 0.748646L6.4859 2.48133C13.8033 -1.73726 23 3.5687 23 12H25ZM24.4305 15.8385C24.7999 14.6365 25 13.3501 25 12H23C23 13.151 22.8296 14.2394 22.5188 15.251L24.4305 15.8385ZM22.5622 15.954C22.8481 16.5915 23 17.2879 23 18H25C25 17.0031 24.7873 16.028 24.3871 15.1356L22.5622 15.954ZM23 18C23 19.3261 22.4732 20.5979 21.5356 21.5356L22.9498 22.9498C24.2625 21.637 25 19.8566 25 18H23ZM21.5356 21.5356C20.5979 22.4733 19.3261 23 18 23V25C19.8565 25 21.637 24.2625 22.9498 22.9498L21.5356 21.5356ZM18 23C17.2751 23 16.5665 22.8427 15.9197 22.5467L15.0876 24.3654C15.993 24.7796 16.9852 25 18 25V23ZM5.48699 23.2514C8.84138 25.1852 12.54 25.4257 15.8008 24.4109L15.2065 22.5012C12.4473 23.3599 9.32976 23.1582 6.4859 21.5187L5.48699 23.2514ZM15.9899 8.92911C15.1287 9.9206 14.9859 11.4333 15.4762 12.604L17.3209 11.8314C17.0845 11.2668 17.2022 10.5833 17.4998 10.2406L15.9899 8.92911ZM20.9546 8.01291C20.2318 7.77441 19.4469 7.49858 18.624 7.56543C17.7372 7.63748 16.9558 8.07733 16.0892 8.82978L17.4005 10.3399C18.1262 9.70981 18.5129 9.58105 18.786 9.55887C19.1231 9.53148 19.4903 9.63579 20.3278 9.91218L20.9546 8.01291ZM23.0321 8.60464C22.1893 8.41987 21.5349 8.20442 20.9546 8.01291L20.3278 9.91218C20.913 10.1053 21.652 10.3496 22.6039 10.5582L23.0321 8.60464ZM21.5605 8.78622C21.6719 9.11845 21.7658 9.45629 21.8418 9.79835L23.7942 9.36453C23.703 8.95416 23.5903 8.54885 23.4567 8.15029L21.5605 8.78622ZM19.7698 7.94768C20.5048 8.7725 21.3259 9.22842 22.2903 9.44414L22.7269 7.49237C22.1635 7.36637 21.7144 7.12376 21.263 6.61714L19.7698 7.94768ZM20.0356 8.27775C20.181 8.28013 20.3447 8.28283 20.5188 8.28241L20.5139 6.28241C20.3614 6.28279 20.2158 6.28043 20.0683 6.27802L20.0356 8.27775ZM19.0509 8.40856C19.0861 8.357 19.1075 8.34278 19.1126 8.33942C19.119 8.33516 19.1399 8.32226 19.1972 8.30894C19.2604 8.29428 19.3539 8.28221 19.5006 8.27699C19.6492 8.2717 19.8169 8.27418 20.0356 8.27775L20.0683 6.27802C19.6837 6.27173 19.1904 6.25736 18.745 6.36073C18.2227 6.48198 17.754 6.76073 17.3988 7.28136L19.0509 8.40856ZM15.9289 8.21104C16.0503 8.54004 16.221 8.89149 16.4943 9.15248C16.8263 9.46942 17.2875 9.62414 17.7728 9.49638C18.1546 9.39587 18.4272 9.1488 18.582 8.98966C18.7545 8.81247 18.91 8.6059 19.038 8.42702L17.4117 7.2629C17.2964 7.42404 17.212 7.52979 17.1487 7.59483C17.1189 7.62549 17.1087 7.63135 17.1178 7.625C17.1259 7.61937 17.1755 7.58549 17.2636 7.56229C17.3611 7.53662 17.4884 7.52914 17.6233 7.56752C17.7535 7.60456 17.8366 7.66879 17.8754 7.70592C17.9109 7.73976 17.9134 7.75415 17.8933 7.71871C17.8741 7.68504 17.8435 7.62227 17.8052 7.51863L15.9289 8.21104ZM17.1418 6.30031C17.0901 6.30724 16.9546 6.32364 16.8196 6.36055C16.6762 6.39972 16.4502 6.48219 16.2452 6.67716C15.7821 7.11752 15.8222 7.7083 15.8832 8.04379L17.8509 7.68588C17.8392 7.62134 17.8536 7.651 17.8396 7.73354C17.8221 7.83718 17.7641 7.99267 17.6233 8.12654C17.4977 8.24603 17.3739 8.2824 17.3467 8.28981C17.328 8.29495 17.3229 8.29391 17.407 8.28265L17.1418 6.30031ZM16.9605 6.51742C16.9536 6.56591 16.9487 6.54982 16.9751 6.50209C17.0054 6.4471 17.0567 6.38731 17.1253 6.34081C17.1871 6.29886 17.2355 6.28649 17.2386 6.2857C17.2403 6.28528 17.2349 6.28672 17.2179 6.28951C17.1993 6.29254 17.1786 6.29539 17.1418 6.30031L17.407 8.28265C17.5047 8.26958 17.8964 8.23436 18.2478 7.99612C18.6667 7.71202 18.8733 7.27247 18.9406 6.79856L16.9605 6.51742ZM19.0689 5.02983C18.8847 5.02423 18.4113 4.99471 17.9858 5.15493C17.7384 5.24807 17.4787 5.41165 17.2768 5.68453C17.0784 5.95256 16.9857 6.2586 16.9556 6.55786L18.9455 6.75811C18.9486 6.72754 18.9481 6.78825 18.8844 6.87428C18.8538 6.91564 18.8171 6.95085 18.7788 6.97832C18.7416 7.00498 18.7096 7.01948 18.6905 7.02666C18.6593 7.03842 18.6616 7.0309 18.73 7.02705C18.7988 7.02319 18.8791 7.02498 19.0081 7.0289L19.0689 5.02983ZM19.2365 5.03357C19.1896 5.03343 19.1381 5.03193 19.0689 5.02983L19.0081 7.0289C19.0719 7.03084 19.1513 7.03332 19.2304 7.03356L19.2365 5.03357ZM18.788 5.98782C18.8664 6.01767 18.8218 6.01736 18.7501 5.93644C18.6591 5.83366 18.5848 5.66599 18.596 5.47285C18.6055 5.30904 18.6711 5.21554 18.6832 5.19924C18.6979 5.17938 18.695 5.18966 18.6569 5.21653L19.8101 6.8506C20.0858 6.65601 20.5552 6.23547 20.5926 5.58854C20.641 4.75455 19.9883 4.30464 19.4991 4.11853L18.788 5.98782ZM20.4233 3.50736C19.744 3.30067 18.9989 3.34824 18.4712 3.73597C18.2106 3.92747 17.8685 4.32333 17.9242 4.89544C17.9801 5.47096 18.3971 5.79876 18.6982 5.94854L19.5889 4.15781C19.6 4.16335 19.8766 4.30919 19.9148 4.70193C19.9526 5.09128 19.7155 5.30357 19.6555 5.34764C19.5291 5.4405 19.5683 5.33774 19.841 5.42074L20.4233 3.50736ZM13.5438 2.01972C15.842 2.37615 17.8857 3.50826 19.3981 5.14312L20.8662 3.78498C19.0574 1.82968 16.6087 0.471137 13.8503 0.0433462L13.5438 2.01972ZM13.1634 4.16025C13.6073 4.07631 14.0497 3.97923 14.4199 3.8469C14.7428 3.7315 15.247 3.51196 15.5337 3.03561C15.9019 2.42373 15.7065 1.802 15.4442 1.38998C15.1967 1.00106 14.7955 0.623511 14.3156 0.245773L13.0785 1.81729C13.2862 1.98076 13.4425 2.11825 13.5572 2.23227C13.6741 2.34844 13.7321 2.42478 13.757 2.46393C13.7834 2.50529 13.7508 2.47063 13.7393 2.37281C13.7331 2.32067 13.7338 2.25667 13.7487 2.1865C13.7637 2.11615 13.7899 2.05449 13.8201 2.00425C13.8775 1.9088 13.9351 1.87755 13.9176 1.88863C13.9017 1.89875 13.8514 1.92618 13.7468 1.96358C13.5331 2.03996 13.2208 2.11396 12.7918 2.19507L13.1634 4.16025ZM9.23679 3.56047C9.38404 3.83731 9.56856 4.1777 9.79148 4.46789C10.0117 4.75459 10.354 5.10664 10.8632 5.25708C11.4117 5.41915 11.9451 5.28944 12.4092 5.02181C12.8522 4.76635 13.2895 4.35603 13.7403 3.82443L12.2149 2.53089C11.829 2.98596 11.5659 3.1994 11.4101 3.28924C11.2754 3.36693 11.3116 3.30409 11.4299 3.33905C11.5089 3.36239 11.488 3.39337 11.3775 3.24951C11.2697 3.10912 11.1558 2.90946 11.0025 2.62122L9.23679 3.56047ZM12.1934 -0.0889217C10.7821 0.0731614 9.70915 0.462077 9.20326 1.30583C8.67927 2.17979 9.03596 3.0901 9.19661 3.47556L11.0427 2.70613C10.8745 2.30264 10.9527 2.27742 10.9186 2.33427C10.9053 2.35648 10.9342 2.28463 11.164 2.18357C11.3992 2.08011 11.7921 1.97031 12.4216 1.89802L12.1934 -0.0889217ZM5.47071 4.63566C5.87115 3.89403 6.84049 3.1674 8.19156 2.63546C9.5122 2.11551 11.0205 1.85336 12.2671 1.90373L12.3479 -0.0946362C10.8 -0.157184 9.01534 0.161703 7.45888 0.7745C5.93287 1.37531 4.44105 2.33313 3.71087 3.68541L5.47071 4.63566ZM6.17758 3.63966L4.90989 3.21282L4.27168 5.10825L5.53937 5.5351L6.17758 3.63966ZM5.8118 3.52517C5.77608 3.64218 5.75545 3.70728 5.73411 3.75951C5.71341 3.81018 5.71192 3.79687 5.74234 3.76126C5.75977 3.74086 5.78729 3.71353 5.82633 3.68678C5.86619 3.65948 5.90992 3.63839 5.95398 3.62469C6.04322 3.59694 6.08755 3.61309 6.04683 3.60528L5.67012 5.56948C5.94807 5.62279 6.24891 5.62743 6.5478 5.5345C6.8559 5.4387 7.09159 5.26101 7.26308 5.06025C7.55649 4.71675 7.67586 4.26898 7.72468 4.10903L5.8118 3.52517ZM7.94102 2.24456C7.69496 2.15885 7.40161 2.10212 7.08881 2.1532C6.75303 2.20803 6.48417 2.37251 6.28836 2.58157C6.11018 2.7718 6.00843 2.98125 5.94797 3.12784C5.88731 3.27493 5.84141 3.42816 5.8118 3.52517L7.72468 4.10903C7.76053 3.99158 7.77916 3.9334 7.79689 3.8904C7.81483 3.84691 7.80534 3.88763 7.74807 3.94877C7.71573 3.9833 7.66855 4.02399 7.60505 4.05916C7.54052 4.0949 7.47364 4.11685 7.41113 4.12706C7.29135 4.14662 7.23447 4.11631 7.28312 4.13326L7.94102 2.24456ZM10.8672 4.9112C10.6583 4.39849 10.3735 3.90879 9.89222 3.45034C9.4249 3.00514 8.81654 2.63156 8.01979 2.2758L7.20435 4.10202C7.88131 4.40429 8.26843 4.6657 8.51269 4.89841C8.74305 5.11786 8.88592 5.34899 9.01509 5.66596L10.8672 4.9112ZM9.5301 7.03371C10.1697 7.03371 10.5979 6.62593 10.7956 6.2362C10.9862 5.86038 11.0306 5.3989 10.8908 4.97525L8.9915 5.60191C8.95973 5.50559 8.96873 5.41668 9.01188 5.33158C9.03687 5.28231 9.08642 5.20967 9.17757 5.14552C9.27549 5.07661 9.4 5.03371 9.5301 5.03371V7.03371ZM7.68149 7.03371H9.5301V5.03371H7.68149V7.03371ZM7.15586 7.98601L8.39214 6.73726L6.97085 5.33016L5.73456 6.57891L7.15586 7.98601ZM4.7015 8.82095C4.93969 9.0682 5.18091 9.32068 5.38136 9.48875C5.47642 9.56847 5.63746 9.69512 5.84096 9.77698C6.06511 9.86714 6.50544 9.95853 6.92429 9.65968C7.25857 9.42117 7.35814 9.07552 7.39139 8.94315C7.43385 8.7742 7.4494 8.59769 7.45683 8.44791C7.47193 8.14326 7.4612 7.73319 7.44463 7.24829L5.44579 7.31662C5.46302 7.82041 5.46947 8.14338 5.45928 8.34887C5.45406 8.45416 5.44635 8.47701 5.45169 8.45577C5.45495 8.44279 5.4687 8.39043 5.50589 8.32068C5.54358 8.24998 5.62072 8.13289 5.76265 8.03161C5.91588 7.92229 6.09264 7.86881 6.26204 7.86478C6.41604 7.86111 6.53054 7.89862 6.58734 7.92147C6.68538 7.96091 6.72065 8.00171 6.6664 7.95621C6.62593 7.92228 6.56414 7.86475 6.47033 7.77087C6.37832 7.67879 6.27204 7.5685 6.14188 7.43339L4.7015 8.82095ZM4.49109 8.60304C4.56488 8.67913 4.6346 8.75149 4.7015 8.82094L6.14189 7.4334C6.07524 7.36421 6.00326 7.2895 5.92677 7.21062L4.49109 8.60304ZM5.10004 9.30009C4.9916 9.21809 4.96107 9.15931 4.95664 9.14924C4.95599 9.14778 4.96414 9.17388 4.95606 9.20456C4.94208 9.25764 4.97434 9.05191 5.54444 8.84887L4.87341 6.9648C4.00328 7.2747 3.24783 7.83799 3.02205 8.69506C2.78149 9.60819 3.24954 10.4082 3.89375 10.8954L5.10004 9.30009ZM7.69454 10.5778L4.94392 9.2032L4.04988 10.9922L6.8005 12.3668L7.69454 10.5778ZM9.31853 10.5116C8.76771 10.1889 8.12758 10.2065 7.73626 10.2607C7.51796 10.2909 7.30514 10.3424 7.12108 10.4092C7.03018 10.4421 6.92698 10.4858 6.82617 10.5435C6.7553 10.584 6.56113 10.6991 6.41543 10.9176L8.07961 12.0269C8.01057 12.1305 7.93819 12.1934 7.90369 12.2212C7.86474 12.2526 7.83376 12.2712 7.81954 12.2793C7.79191 12.2952 7.7832 12.2965 7.80317 12.2892C7.84086 12.2756 7.91533 12.255 8.01046 12.2418C8.10496 12.2287 8.1919 12.2269 8.25852 12.2339C8.32959 12.2414 8.33667 12.2544 8.30749 12.2373L9.31853 10.5116ZM12.3657 12.5612L9.37157 10.545L8.25445 12.2039L11.2485 14.2202L12.3657 12.5612ZM13.6673 15.3976C13.8689 14.285 13.3463 13.2216 12.3657 12.5612L11.2485 14.2201C11.6692 14.5034 11.7394 14.82 11.6993 15.041L13.6673 15.3976ZM13.5694 15.6827C13.8022 15.2377 14.1027 14.8263 14.4645 14.4645L13.0503 13.0503C12.5439 13.5567 12.1231 14.1327 11.7972 14.7559L13.5694 15.6827ZM14.4645 14.4645C15.0804 13.8486 15.8405 13.4099 16.6655 13.1814L16.1316 11.254C14.9768 11.5739 13.9126 12.188 13.0503 13.0503L14.4645 14.4645ZM13 18C13 17.418 13.1015 16.8464 13.2947 16.309L11.4125 15.6325C11.1421 16.3849 11 17.1852 11 18H13ZM14.4645 21.5356C13.5268 20.5979 13 19.3261 13 18H11C11 19.8566 11.7375 21.637 13.0503 22.9498L14.4645 21.5356ZM15.035 22.0261C14.834 21.878 14.6432 21.7143 14.4645 21.5356L13.0503 22.9498C13.3004 23.1999 13.5675 23.4292 13.8489 23.6364L15.035 22.0261ZM14.2108 21.8583C7.16739 23.5321 -0.32045 16.9613 2.5167 8.4657L0.619686 7.83218C-2.75992 17.9522 6.24659 25.8067 14.6732 23.8041L14.2108 21.8583ZM2.56819 8.14894V8.1489H0.568192V8.14894H2.56819ZM0.795645 8.78385C1.29545 9.39196 1.59537 9.78945 1.88168 10.1468C2.15062 10.4824 2.40711 10.7823 2.73517 11.0363L3.95971 9.45505C3.83164 9.35588 3.6989 9.2162 3.44243 8.89614C3.20335 8.59776 2.8417 8.12345 2.34074 7.51394L0.795645 8.78385ZM2.73517 11.0363C3.14057 11.3503 3.58935 11.5435 4.16252 11.7526C4.71179 11.953 5.55939 12.2299 6.71048 12.6363L7.37638 10.7504C6.13404 10.3117 5.41014 10.0789 4.84802 9.87376C4.30979 9.67739 4.10729 9.56933 3.95971 9.45505L2.73517 11.0363ZM6.14722 11.2497L5.48028 12.597L7.2727 13.4843L7.93964 12.137L6.14722 11.2497ZM5.42106 12.7455C5.21677 13.4067 5.20704 14.0326 5.50668 14.5942C5.76766 15.0833 6.20985 15.3852 6.42035 15.5395L7.60234 13.9261C7.46741 13.8273 7.39032 13.7695 7.32958 13.7142C7.27553 13.6649 7.26789 13.6464 7.27124 13.6527C7.27858 13.6665 7.27478 13.6716 7.27388 13.6433C7.27267 13.6054 7.27788 13.5108 7.33193 13.3359L5.42106 12.7455ZM6.42035 15.5395C6.68011 15.7298 6.80279 15.8295 6.88992 15.9555C6.95473 16.0492 7.03994 16.2182 7.03452 16.5904L9.03431 16.6195C9.04507 15.8809 8.86344 15.2931 8.53501 14.8181C8.2289 14.3753 7.83196 14.0943 7.60234 13.9261L6.42035 15.5395ZM7.05777 16.3901L6.21899 20.2026L8.17228 20.6324L9.01106 16.8198L7.05777 16.3901ZM6.21898 20.2027C6.12358 20.6364 6.20933 21.103 6.50461 21.4695C6.79998 21.8361 7.23757 22.0189 7.68149 22.0189V20.0189C7.78402 20.0189 7.94235 20.0662 8.06198 20.2147C8.18152 20.363 8.19503 20.5289 8.17229 20.6323L6.21898 20.2027ZM8.54491 21.5234C9.1544 20.4803 9.41649 20.0445 9.68792 19.7119C9.94659 19.3949 10.2223 19.1607 10.9446 18.5598L9.66559 17.0222C8.98581 17.5877 8.54389 17.9505 8.13841 18.4474C7.74569 18.9286 7.39704 19.5235 6.81807 20.5144L8.54491 21.5234ZM10.9446 18.5598C11.3605 18.2139 11.9018 17.7636 12.6298 17.1306L11.3176 15.6213C10.6067 16.2394 10.0791 16.6783 9.66559 17.0222L10.9446 18.5598ZM12.6202 17.1388C12.8268 16.9638 13.0085 16.77 13.1618 16.5597L11.5455 15.3817C11.4911 15.4563 11.4197 15.5346 11.3272 15.613L12.6202 17.1388ZM17.4 14C16.9757 14 16.5687 14.1686 16.2687 14.4687L17.6829 15.8829C17.6079 15.9579 17.5061 16 17.4 16V14ZM18.5314 14.4687C18.2313 14.1686 17.8244 14 17.4 14V16C17.2939 16 17.1922 15.9579 17.1172 15.8829L18.5314 14.4687ZM19 15.6C19 15.1757 18.8314 14.7687 18.5314 14.4687L17.1172 15.8829C17.0422 15.8079 17 15.7061 17 15.6H19ZM19 18V15.6H17V18H19ZM19.8 17H18V19H19.8V17ZM20.9314 17.4687C20.6313 17.1686 20.2244 17 19.8 17V19C19.6939 19 19.5922 18.9579 19.5172 18.8829L20.9314 17.4687ZM21.4 18.6C21.4 18.1757 21.2314 17.7687 20.9314 17.4687L19.5172 18.8829C19.4422 18.8079 19.4 18.7061 19.4 18.6H21.4ZM20.9314 19.7314C21.2314 19.4314 21.4 19.0244 21.4 18.6H19.4C19.4 18.494 19.4422 18.3922 19.5172 18.3172L20.9314 19.7314ZM19.8 20.2C20.2244 20.2 20.6313 20.0315 20.9314 19.7314L19.5172 18.3172C19.5922 18.2422 19.6939 18.2 19.8 18.2V20.2ZM17.4 20.2H19.8V18.2H17.4V20.2ZM16.2687 19.7314C16.5687 20.0315 16.9757 20.2 17.4 20.2V18.2C17.5061 18.2 17.6079 18.2422 17.6829 18.3172L16.2687 19.7314ZM15.8 18.6C15.8 19.0244 15.9686 19.4314 16.2687 19.7314L17.6829 18.3172C17.7579 18.3922 17.8 18.494 17.8 18.6H15.8ZM15.8 15.6V18.6H17.8V15.6H15.8ZM16.2687 14.4687C15.9686 14.7687 15.8 15.1757 15.8 15.6H17.8C17.8 15.7061 17.7579 15.8079 17.6829 15.8829L16.2687 14.4687Z" fill="black" mask="url(#path-1-inside-1)"/>
</svg>
