<svg width="525" height="433" viewBox="0 0 525 433" fill="none" xmlns="http://www.w3.org/2000/svg">
<path fill-rule="evenodd" clip-rule="evenodd" d="M464.338 239.354C479.109 289.253 472.852 351.205 437.374 389.252C402.358 426.805 342.227 417.445 291.431 424.784C250.361 430.717 210.598 436.611 170.03 427.877C125.331 418.254 78.7805 406.472 48.2313 372.426C16.008 336.513 -3.10164 287.458 0.873403 239.354C4.70769 192.953 41.3348 158.816 68.9773 121.368C96.3545 84.2798 118.931 41.7045 160.867 22.6065C205.563 2.25153 262.02 -10.7568 304.332 14.1856C346.025 38.7632 336.305 103.092 364.349 142.557C391.898 181.326 450.835 193.74 464.338 239.354Z" fill="#86F2C8"/>
<g clip-path="url(#clip0)">
<path d="M36.5446 160.134C35.6148 160.791 36.1953 162.029 36.0062 163.152C35.9083 163.623 35.8104 164.095 35.7125 164.566C35.5346 164.574 35.3989 164.591 35.2209 164.598C35.0163 163.885 34.7605 163.206 34.6827 162.52C34.3847 159.284 34.2647 156.04 33.9156 152.838C33.7688 151.422 33.3596 149.996 32.9414 148.612C32.2853 146.464 30.0475 145.776 28.3036 145.682C27.9988 145.664 27.6741 145.954 27.2826 146.141C26.7821 145.366 26.0191 145.432 25.1872 145.616C24.5421 145.751 23.897 145.885 23.2541 145.796C22.9071 145.769 22.6491 145.313 22.3466 145.071C22.6113 144.858 22.8182 144.499 23.0985 144.423C24.4487 144.077 25.8234 143.826 27.207 143.532C31.9696 142.465 34.5968 138.093 34.6681 133.503C34.7016 131.007 34.6505 128.493 34.7351 125.962C34.7396 125.516 35.1667 125.157 35.4247 124.764C35.6071 125.16 35.8918 125.487 35.9385 125.899C36.2877 128.251 36.3988 130.688 36.986 132.956C37.9557 136.779 41.3034 139.977 45.6254 140.607C45.879 140.659 46.1593 140.583 46.3528 140.713C46.7821 140.981 47.1514 141.326 47.5295 141.628C47.1869 142.004 46.9111 142.483 46.5107 142.713C44.9513 143.641 43.234 144.268 41.817 145.359C38.2067 148.096 36.5249 151.949 36.2177 156.401C36.1955 156.933 36.1221 157.499 36.1421 158.039C36.2288 158.683 36.4089 159.302 36.5446 160.134ZM29.6405 144.127C31.3867 144.847 33.2441 145.457 33.987 147.399C34.5964 149.135 35.0612 150.93 35.5194 152.545C36.0578 150.377 36.9432 148.236 38.5782 146.519C40.2043 144.845 42.0062 143.387 43.5277 142.004C42.2398 141.2 40.6383 140.42 39.4215 139.274C38.1625 138.118 37.2461 136.587 36.1495 135.286C34.5923 140.238 34.352 140.546 29.6405 144.127Z" fill="black"/>
</g>
<path d="M496.71 309.339L495.485 309.673L493.872 303.767C493.86 303.73 493.847 303.694 493.83 303.658C493.767 303.421 493.62 303.214 493.415 303.077L480.522 294.537L480.513 294.532C480.437 294.484 480.355 294.447 480.269 294.42L480.193 294.398C480.121 294.38 480.048 294.37 479.974 294.369L479.915 294.365C479.834 294.367 479.755 294.378 479.677 294.399L455.525 300.999C454.421 301.3 453.771 302.442 454.072 303.544L458.507 319.776L457.283 320.11C455.705 320.541 454.776 322.169 455.207 323.747L459.267 338.603C459.697 340.179 461.327 341.11 462.904 340.679L464.128 340.344L466.906 350.513C467.207 351.615 468.348 352.267 469.451 351.966L502.431 342.954C503.533 342.653 504.185 341.51 503.884 340.409L501.105 330.24L502.33 329.906C503.906 329.475 504.837 327.847 504.405 326.269L500.346 311.413C499.915 309.837 498.288 308.908 496.71 309.339ZM456.071 302.997L479.223 296.671L482.018 306.898C482.169 307.45 482.738 307.774 483.291 307.623L492.12 305.21L493.488 310.217L460.506 319.229L456.071 302.997ZM478.508 326.298C475.844 326.094 473.876 325.189 473.296 323.067C472.616 320.577 474.203 318.12 477.624 317.185C479.292 316.729 480.571 316.729 481.55 316.902L481.535 319.745C480.465 319.543 479.363 319.59 478.314 319.882C476.884 320.272 476.374 321.132 476.575 321.868C476.83 322.8 477.742 322.991 479.844 323.185C482.683 323.434 484.239 324.451 484.802 326.509C485.471 328.957 484.177 331.544 480.17 332.639C478.502 333.095 476.733 333.089 475.785 332.859L475.717 329.969C477.009 330.238 478.346 330.207 479.624 329.879C481.141 329.465 481.77 328.616 481.51 327.664C481.262 326.754 480.428 326.425 478.508 326.298ZM461.036 330.001C459.68 325.041 462.48 321.321 466.897 320.114C468.609 319.647 470.001 319.637 470.663 319.76L470.686 322.57C469.708 322.441 468.715 322.514 467.766 322.785C465.168 323.495 463.565 325.631 464.453 328.879C465.245 331.781 467.48 333.149 470.403 332.35C471.422 332.072 472.452 331.583 473.045 331.117L474.233 333.584C473.725 334.024 472.433 334.751 470.68 335.23C465.634 336.611 462.172 334.159 461.036 330.001ZM501.738 340.417L468.758 349.429L466.127 339.8L499.107 330.788L501.738 340.417ZM495.534 328.208L491.679 329.261L483.015 315.943L486.631 314.955L490.093 320.643C491.068 322.26 491.973 323.783 492.817 325.506L492.882 325.488C492.777 323.653 492.747 321.813 492.794 319.975L492.953 313.229L496.459 312.271L495.534 328.208Z" fill="#020A13"/>
<rect x="115" y="111" width="326" height="285" rx="10" fill="#020A13"/>
<rect x="105" y="102" width="326" height="285" rx="10" fill="#FEFDFA"/>
<path d="M82 46C82 40.4772 86.4772 36 92 36H396C401.523 36 406 40.4772 406 46V90H82V46Z" fill="#094068"/>
<path d="M84 90H406" stroke="#020A13" stroke-width="3"/>
<circle cx="112" cy="64" r="5" fill="#F6E63E"/>
<circle cx="125" cy="64" r="5" fill="#16DB93"/>
<circle cx="138" cy="64" r="5" fill="#FE0E11"/>
<path d="M132.282 135.965C131.964 136.349 131.589 136.643 131.157 136.847C130.725 137.045 130.242 137.144 129.708 137.144C129.228 137.144 128.781 137.057 128.367 136.883C127.959 136.709 127.605 136.472 127.305 136.172C127.005 135.872 126.768 135.518 126.594 135.11C126.42 134.696 126.333 134.252 126.333 133.778C126.333 133.304 126.42 132.863 126.594 132.455C126.768 132.041 127.005 131.684 127.305 131.384C127.605 131.084 127.959 130.847 128.367 130.673C128.781 130.499 129.228 130.412 129.708 130.412C130.224 130.412 130.677 130.502 131.067 130.682C131.463 130.862 131.814 131.123 132.12 131.465L131.265 132.293C131.073 132.071 130.851 131.894 130.599 131.762C130.353 131.63 130.059 131.564 129.717 131.564C129.417 131.564 129.135 131.618 128.871 131.726C128.607 131.828 128.376 131.975 128.178 132.167C127.986 132.359 127.833 132.593 127.719 132.869C127.605 133.139 127.548 133.442 127.548 133.778C127.548 134.114 127.605 134.42 127.719 134.696C127.833 134.966 127.986 135.197 128.178 135.389C128.376 135.581 128.607 135.731 128.871 135.839C129.135 135.941 129.417 135.992 129.717 135.992C130.077 135.992 130.395 135.92 130.671 135.776C130.953 135.626 131.202 135.416 131.418 135.146L132.282 135.965ZM135.656 136.532H135.584C135.446 136.7 135.278 136.844 135.08 136.964C134.888 137.084 134.639 137.144 134.333 137.144C134.105 137.144 133.889 137.105 133.685 137.027C133.487 136.955 133.313 136.853 133.163 136.721C133.013 136.589 132.896 136.43 132.812 136.244C132.728 136.058 132.686 135.854 132.686 135.632C132.686 135.404 132.731 135.2 132.821 135.02C132.911 134.834 133.037 134.675 133.199 134.543C133.361 134.411 133.55 134.312 133.766 134.246C133.988 134.174 134.228 134.138 134.486 134.138C134.774 134.138 135.011 134.162 135.197 134.21C135.383 134.252 135.536 134.297 135.656 134.345V134.21C135.656 133.976 135.563 133.784 135.377 133.634C135.191 133.478 134.96 133.4 134.684 133.4C134.276 133.4 133.931 133.571 133.649 133.913L132.794 133.328C133.262 132.74 133.901 132.446 134.711 132.446C135.395 132.446 135.917 132.608 136.277 132.932C136.637 133.25 136.817 133.724 136.817 134.354V137H135.656V136.532ZM135.656 135.209C135.518 135.143 135.374 135.092 135.224 135.056C135.08 135.014 134.921 134.993 134.747 134.993C134.465 134.993 134.246 135.056 134.09 135.182C133.94 135.302 133.865 135.452 133.865 135.632C133.865 135.812 133.937 135.956 134.081 136.064C134.231 136.172 134.402 136.226 134.594 136.226C134.75 136.226 134.894 136.199 135.026 136.145C135.158 136.085 135.269 136.01 135.359 135.92C135.455 135.824 135.527 135.716 135.575 135.596C135.629 135.47 135.656 135.341 135.656 135.209ZM137.754 132.59H138.861V133.166H138.933C139.071 132.95 139.257 132.776 139.491 132.644C139.731 132.512 139.995 132.446 140.283 132.446C140.619 132.446 140.901 132.524 141.129 132.68C141.357 132.836 141.519 133.028 141.615 133.256C141.753 133.034 141.948 132.845 142.2 132.689C142.452 132.527 142.758 132.446 143.118 132.446C143.388 132.446 143.622 132.491 143.82 132.581C144.018 132.665 144.18 132.785 144.306 132.941C144.438 133.097 144.537 133.286 144.603 133.508C144.669 133.724 144.702 133.961 144.702 134.219V137H143.523V134.435C143.523 133.835 143.277 133.535 142.785 133.535C142.629 133.535 142.491 133.571 142.371 133.643C142.251 133.709 142.149 133.802 142.065 133.922C141.987 134.036 141.924 134.174 141.876 134.336C141.834 134.498 141.813 134.672 141.813 134.858V137H140.634V134.435C140.634 133.835 140.376 133.535 139.86 133.535C139.71 133.535 139.578 133.571 139.464 133.643C139.35 133.709 139.254 133.802 139.176 133.922C139.098 134.036 139.038 134.174 138.996 134.336C138.954 134.498 138.933 134.672 138.933 134.858V137H137.754V132.59ZM145.637 132.59H146.744V133.121H146.816C146.924 132.935 147.092 132.776 147.32 132.644C147.548 132.512 147.83 132.446 148.166 132.446C148.448 132.446 148.715 132.506 148.967 132.626C149.225 132.74 149.45 132.902 149.642 133.112C149.84 133.316 149.996 133.562 150.11 133.85C150.224 134.138 150.281 134.453 150.281 134.795C150.281 135.137 150.224 135.452 150.11 135.74C149.996 136.028 149.84 136.277 149.642 136.487C149.45 136.691 149.225 136.853 148.967 136.973C148.715 137.087 148.448 137.144 148.166 137.144C147.83 137.144 147.548 137.078 147.32 136.946C147.092 136.814 146.924 136.655 146.816 136.469H146.744L146.816 137.099V138.944H145.637V132.59ZM147.923 136.055C148.079 136.055 148.226 136.025 148.364 135.965C148.508 135.905 148.634 135.821 148.742 135.713C148.85 135.605 148.937 135.473 149.003 135.317C149.069 135.161 149.102 134.987 149.102 134.795C149.102 134.603 149.069 134.429 149.003 134.273C148.937 134.117 148.85 133.985 148.742 133.877C148.634 133.769 148.508 133.685 148.364 133.625C148.226 133.565 148.079 133.535 147.923 133.535C147.767 133.535 147.617 133.565 147.473 133.625C147.335 133.679 147.212 133.76 147.104 133.868C146.996 133.976 146.909 134.108 146.843 134.264C146.777 134.42 146.744 134.597 146.744 134.795C146.744 134.993 146.777 135.17 146.843 135.326C146.909 135.482 146.996 135.614 147.104 135.722C147.212 135.83 147.335 135.914 147.473 135.974C147.617 136.028 147.767 136.055 147.923 136.055ZM153.752 136.532H153.68C153.542 136.7 153.374 136.844 153.176 136.964C152.984 137.084 152.735 137.144 152.429 137.144C152.201 137.144 151.985 137.105 151.781 137.027C151.583 136.955 151.409 136.853 151.259 136.721C151.109 136.589 150.992 136.43 150.908 136.244C150.824 136.058 150.782 135.854 150.782 135.632C150.782 135.404 150.827 135.2 150.917 135.02C151.007 134.834 151.133 134.675 151.295 134.543C151.457 134.411 151.646 134.312 151.862 134.246C152.084 134.174 152.324 134.138 152.582 134.138C152.87 134.138 153.107 134.162 153.293 134.21C153.479 134.252 153.632 134.297 153.752 134.345V134.21C153.752 133.976 153.659 133.784 153.473 133.634C153.287 133.478 153.056 133.4 152.78 133.4C152.372 133.4 152.027 133.571 151.745 133.913L150.89 133.328C151.358 132.74 151.997 132.446 152.807 132.446C153.491 132.446 154.013 132.608 154.373 132.932C154.733 133.25 154.913 133.724 154.913 134.354V137H153.752V136.532ZM153.752 135.209C153.614 135.143 153.47 135.092 153.32 135.056C153.176 135.014 153.017 134.993 152.843 134.993C152.561 134.993 152.342 135.056 152.186 135.182C152.036 135.302 151.961 135.452 151.961 135.632C151.961 135.812 152.033 135.956 152.177 136.064C152.327 136.172 152.498 136.226 152.69 136.226C152.846 136.226 152.99 136.199 153.122 136.145C153.254 136.085 153.365 136.01 153.455 135.92C153.551 135.824 153.623 135.716 153.671 135.596C153.725 135.47 153.752 135.341 153.752 135.209ZM156.508 131.951C156.406 131.951 156.307 131.933 156.211 131.897C156.121 131.855 156.04 131.801 155.968 131.735C155.902 131.663 155.848 131.582 155.806 131.492C155.77 131.402 155.752 131.303 155.752 131.195C155.752 131.087 155.77 130.988 155.806 130.898C155.848 130.808 155.902 130.73 155.968 130.664C156.04 130.592 156.121 130.538 156.211 130.502C156.307 130.46 156.406 130.439 156.508 130.439C156.718 130.439 156.898 130.514 157.048 130.664C157.198 130.808 157.273 130.985 157.273 131.195C157.273 131.405 157.198 131.585 157.048 131.735C156.898 131.879 156.718 131.951 156.508 131.951ZM155.923 137V132.59H157.102V137H155.923ZM160.17 139.088C159.858 139.088 159.579 139.046 159.333 138.962C159.093 138.884 158.883 138.779 158.703 138.647C158.523 138.521 158.373 138.38 158.253 138.224C158.133 138.068 158.046 137.912 157.992 137.756L159.117 137.306C159.201 137.54 159.339 137.72 159.531 137.846C159.723 137.978 159.936 138.044 160.17 138.044C160.542 138.044 160.836 137.927 161.052 137.693C161.268 137.465 161.376 137.144 161.376 136.73V136.424H161.304C161.166 136.616 160.983 136.769 160.755 136.883C160.533 136.991 160.269 137.045 159.963 137.045C159.699 137.045 159.441 136.991 159.189 136.883C158.943 136.775 158.724 136.622 158.532 136.424C158.34 136.22 158.184 135.977 158.064 135.695C157.944 135.413 157.884 135.098 157.884 134.75C157.884 134.402 157.944 134.087 158.064 133.805C158.184 133.517 158.34 133.274 158.532 133.076C158.724 132.872 158.943 132.716 159.189 132.608C159.441 132.5 159.699 132.446 159.963 132.446C160.269 132.446 160.533 132.503 160.755 132.617C160.983 132.725 161.166 132.875 161.304 133.067H161.376V132.59H162.501V136.685C162.501 137.057 162.444 137.39 162.33 137.684C162.216 137.984 162.057 138.236 161.853 138.44C161.649 138.65 161.403 138.809 161.115 138.917C160.833 139.031 160.518 139.088 160.17 139.088ZM160.215 135.983C160.359 135.983 160.5 135.956 160.638 135.902C160.782 135.848 160.908 135.77 161.016 135.668C161.124 135.56 161.211 135.431 161.277 135.281C161.343 135.125 161.376 134.948 161.376 134.75C161.376 134.552 161.343 134.375 161.277 134.219C161.211 134.063 161.124 133.934 161.016 133.832C160.908 133.724 160.782 133.643 160.638 133.589C160.5 133.535 160.359 133.508 160.215 133.508C160.071 133.508 159.93 133.535 159.792 133.589C159.654 133.643 159.531 133.724 159.423 133.832C159.315 133.94 159.228 134.072 159.162 134.228C159.096 134.378 159.063 134.552 159.063 134.75C159.063 134.948 159.096 135.125 159.162 135.281C159.228 135.431 159.315 135.56 159.423 135.668C159.531 135.77 159.654 135.848 159.792 135.902C159.93 135.956 160.071 135.983 160.215 135.983ZM164.613 133.166H164.685C164.823 132.944 165.009 132.77 165.243 132.644C165.477 132.512 165.744 132.446 166.044 132.446C166.32 132.446 166.563 132.491 166.773 132.581C166.983 132.671 167.154 132.8 167.286 132.968C167.424 133.13 167.526 133.328 167.592 133.562C167.664 133.79 167.7 134.045 167.7 134.327V137H166.521V134.471C166.521 134.153 166.449 133.919 166.305 133.769C166.167 133.613 165.963 133.535 165.693 133.535C165.531 133.535 165.387 133.571 165.261 133.643C165.141 133.709 165.036 133.802 164.946 133.922C164.862 134.036 164.796 134.174 164.748 134.336C164.706 134.492 164.685 134.66 164.685 134.84V137H163.506V132.59H164.613V133.166ZM171.758 133.166H171.83C171.968 132.944 172.154 132.77 172.388 132.644C172.622 132.512 172.889 132.446 173.189 132.446C173.465 132.446 173.708 132.491 173.918 132.581C174.128 132.671 174.299 132.8 174.431 132.968C174.569 133.13 174.671 133.328 174.737 133.562C174.809 133.79 174.845 134.045 174.845 134.327V137H173.666V134.471C173.666 134.153 173.594 133.919 173.45 133.769C173.312 133.613 173.108 133.535 172.838 133.535C172.676 133.535 172.532 133.571 172.406 133.643C172.286 133.709 172.181 133.802 172.091 133.922C172.007 134.036 171.941 134.174 171.893 134.336C171.851 134.492 171.83 134.66 171.83 134.84V137H170.651V132.59H171.758V133.166ZM178.493 136.532H178.421C178.283 136.7 178.115 136.844 177.917 136.964C177.725 137.084 177.476 137.144 177.17 137.144C176.942 137.144 176.726 137.105 176.522 137.027C176.324 136.955 176.15 136.853 176 136.721C175.85 136.589 175.733 136.43 175.649 136.244C175.565 136.058 175.523 135.854 175.523 135.632C175.523 135.404 175.568 135.2 175.658 135.02C175.748 134.834 175.874 134.675 176.036 134.543C176.198 134.411 176.387 134.312 176.603 134.246C176.825 134.174 177.065 134.138 177.323 134.138C177.611 134.138 177.848 134.162 178.034 134.21C178.22 134.252 178.373 134.297 178.493 134.345V134.21C178.493 133.976 178.4 133.784 178.214 133.634C178.028 133.478 177.797 133.4 177.521 133.4C177.113 133.4 176.768 133.571 176.486 133.913L175.631 133.328C176.099 132.74 176.738 132.446 177.548 132.446C178.232 132.446 178.754 132.608 179.114 132.932C179.474 133.25 179.654 133.724 179.654 134.354V137H178.493V136.532ZM178.493 135.209C178.355 135.143 178.211 135.092 178.061 135.056C177.917 135.014 177.758 134.993 177.584 134.993C177.302 134.993 177.083 135.056 176.927 135.182C176.777 135.302 176.702 135.452 176.702 135.632C176.702 135.812 176.774 135.956 176.918 136.064C177.068 136.172 177.239 136.226 177.431 136.226C177.587 136.226 177.731 136.199 177.863 136.145C177.995 136.085 178.106 136.01 178.196 135.92C178.292 135.824 178.364 135.716 178.412 135.596C178.466 135.47 178.493 135.341 178.493 135.209ZM180.592 132.59H181.699V133.166H181.771C181.909 132.95 182.095 132.776 182.329 132.644C182.569 132.512 182.833 132.446 183.121 132.446C183.457 132.446 183.739 132.524 183.967 132.68C184.195 132.836 184.357 133.028 184.453 133.256C184.591 133.034 184.786 132.845 185.038 132.689C185.29 132.527 185.596 132.446 185.956 132.446C186.226 132.446 186.46 132.491 186.658 132.581C186.856 132.665 187.018 132.785 187.144 132.941C187.276 133.097 187.375 133.286 187.441 133.508C187.507 133.724 187.54 133.961 187.54 134.219V137H186.361V134.435C186.361 133.835 186.115 133.535 185.623 133.535C185.467 133.535 185.329 133.571 185.209 133.643C185.089 133.709 184.987 133.802 184.903 133.922C184.825 134.036 184.762 134.174 184.714 134.336C184.672 134.498 184.651 134.672 184.651 134.858V137H183.472V134.435C183.472 133.835 183.214 133.535 182.698 133.535C182.548 133.535 182.416 133.571 182.302 133.643C182.188 133.709 182.092 133.802 182.014 133.922C181.936 134.036 181.876 134.174 181.834 134.336C181.792 134.498 181.771 134.672 181.771 134.858V137H180.592V132.59ZM192.687 135.938C192.483 136.298 192.207 136.589 191.859 136.811C191.517 137.033 191.097 137.144 190.599 137.144C190.263 137.144 189.951 137.087 189.663 136.973C189.381 136.853 189.135 136.688 188.925 136.478C188.715 136.268 188.55 136.022 188.43 135.74C188.316 135.452 188.259 135.137 188.259 134.795C188.259 134.477 188.316 134.177 188.43 133.895C188.544 133.607 188.703 133.358 188.907 133.148C189.111 132.932 189.351 132.761 189.627 132.635C189.909 132.509 190.218 132.446 190.554 132.446C190.908 132.446 191.223 132.506 191.499 132.626C191.775 132.74 192.006 132.902 192.192 133.112C192.378 133.316 192.519 133.559 192.615 133.841C192.711 134.123 192.759 134.429 192.759 134.759C192.759 134.801 192.759 134.837 192.759 134.867C192.753 134.903 192.75 134.936 192.75 134.966C192.744 134.996 192.741 135.029 192.741 135.065H189.42C189.444 135.245 189.492 135.401 189.564 135.533C189.642 135.659 189.735 135.767 189.843 135.857C189.957 135.941 190.08 136.004 190.212 136.046C190.344 136.082 190.479 136.1 190.617 136.1C190.887 136.1 191.109 136.04 191.283 135.92C191.463 135.794 191.604 135.638 191.706 135.452L192.687 135.938ZM191.616 134.228C191.61 134.15 191.583 134.063 191.535 133.967C191.493 133.871 191.427 133.781 191.337 133.697C191.253 133.613 191.145 133.544 191.013 133.49C190.887 133.436 190.734 133.409 190.554 133.409C190.302 133.409 190.08 133.481 189.888 133.625C189.696 133.769 189.561 133.97 189.483 134.228H191.616Z" fill="#22364C"/>
<path d="M221.648 130.556H223.826C224.336 130.556 224.795 130.634 225.203 130.79C225.611 130.946 225.959 131.168 226.247 131.456C226.535 131.738 226.754 132.077 226.904 132.473C227.06 132.869 227.138 133.304 227.138 133.778C227.138 134.258 227.06 134.696 226.904 135.092C226.754 135.488 226.535 135.827 226.247 136.109C225.959 136.391 225.611 136.61 225.203 136.766C224.795 136.922 224.336 137 223.826 137H221.648V130.556ZM223.772 135.848C224.126 135.848 224.438 135.8 224.708 135.704C224.978 135.602 225.203 135.461 225.383 135.281C225.563 135.101 225.698 134.885 225.788 134.633C225.878 134.375 225.923 134.09 225.923 133.778C225.923 133.466 225.878 133.184 225.788 132.932C225.698 132.674 225.563 132.455 225.383 132.275C225.203 132.095 224.978 131.957 224.708 131.861C224.438 131.759 224.126 131.708 223.772 131.708H222.863V135.848H223.772ZM230.691 136.532H230.619C230.481 136.7 230.313 136.844 230.115 136.964C229.923 137.084 229.674 137.144 229.368 137.144C229.14 137.144 228.924 137.105 228.72 137.027C228.522 136.955 228.348 136.853 228.198 136.721C228.048 136.589 227.931 136.43 227.847 136.244C227.763 136.058 227.721 135.854 227.721 135.632C227.721 135.404 227.766 135.2 227.856 135.02C227.946 134.834 228.072 134.675 228.234 134.543C228.396 134.411 228.585 134.312 228.801 134.246C229.023 134.174 229.263 134.138 229.521 134.138C229.809 134.138 230.046 134.162 230.232 134.21C230.418 134.252 230.571 134.297 230.691 134.345V134.21C230.691 133.976 230.598 133.784 230.412 133.634C230.226 133.478 229.995 133.4 229.719 133.4C229.311 133.4 228.966 133.571 228.684 133.913L227.829 133.328C228.297 132.74 228.936 132.446 229.746 132.446C230.43 132.446 230.952 132.608 231.312 132.932C231.672 133.25 231.852 133.724 231.852 134.354V137H230.691V136.532ZM230.691 135.209C230.553 135.143 230.409 135.092 230.259 135.056C230.115 135.014 229.956 134.993 229.782 134.993C229.5 134.993 229.281 135.056 229.125 135.182C228.975 135.302 228.9 135.452 228.9 135.632C228.9 135.812 228.972 135.956 229.116 136.064C229.266 136.172 229.437 136.226 229.629 136.226C229.785 136.226 229.929 136.199 230.061 136.145C230.193 136.085 230.304 136.01 230.394 135.92C230.49 135.824 230.562 135.716 230.61 135.596C230.664 135.47 230.691 135.341 230.691 135.209ZM233.187 133.598H232.413V132.59H233.187V131.24H234.366V132.59H235.446V133.598H234.366V135.308C234.366 135.41 234.375 135.506 234.393 135.596C234.417 135.68 234.459 135.752 234.519 135.812C234.603 135.908 234.723 135.956 234.879 135.956C234.981 135.956 235.062 135.947 235.122 135.929C235.182 135.905 235.239 135.875 235.293 135.839L235.626 136.874C235.488 136.94 235.338 136.988 235.176 137.018C235.02 137.054 234.846 137.072 234.654 137.072C234.432 137.072 234.231 137.039 234.051 136.973C233.877 136.901 233.73 136.805 233.61 136.685C233.328 136.415 233.187 136.031 233.187 135.533V133.598ZM240.446 135.938C240.242 136.298 239.966 136.589 239.618 136.811C239.276 137.033 238.856 137.144 238.358 137.144C238.022 137.144 237.71 137.087 237.422 136.973C237.14 136.853 236.894 136.688 236.684 136.478C236.474 136.268 236.309 136.022 236.189 135.74C236.075 135.452 236.018 135.137 236.018 134.795C236.018 134.477 236.075 134.177 236.189 133.895C236.303 133.607 236.462 133.358 236.666 133.148C236.87 132.932 237.11 132.761 237.386 132.635C237.668 132.509 237.977 132.446 238.313 132.446C238.667 132.446 238.982 132.506 239.258 132.626C239.534 132.74 239.765 132.902 239.951 133.112C240.137 133.316 240.278 133.559 240.374 133.841C240.47 134.123 240.518 134.429 240.518 134.759C240.518 134.801 240.518 134.837 240.518 134.867C240.512 134.903 240.509 134.936 240.509 134.966C240.503 134.996 240.5 135.029 240.5 135.065H237.179C237.203 135.245 237.251 135.401 237.323 135.533C237.401 135.659 237.494 135.767 237.602 135.857C237.716 135.941 237.839 136.004 237.971 136.046C238.103 136.082 238.238 136.1 238.376 136.1C238.646 136.1 238.868 136.04 239.042 135.92C239.222 135.794 239.363 135.638 239.465 135.452L240.446 135.938ZM239.375 134.228C239.369 134.15 239.342 134.063 239.294 133.967C239.252 133.871 239.186 133.781 239.096 133.697C239.012 133.613 238.904 133.544 238.772 133.49C238.646 133.436 238.493 133.409 238.313 133.409C238.061 133.409 237.839 133.481 237.647 133.625C237.455 133.769 237.32 133.97 237.242 134.228H239.375Z" fill="#22364C"/>
<line x1="270" y1="133.5" x2="322" y2="133.5" stroke="#97A5B2" stroke-width="5"/>
<line x1="126" y1="175" x2="178" y2="175" stroke="#97A5B2" stroke-width="6"/>
<line x1="336" y1="133.5" x2="366" y2="133.5" stroke="#97A5B2" stroke-width="5"/>
<line x1="221" y1="175" x2="251" y2="175" stroke="#97A5B2" stroke-width="6"/>
<line x1="270" y1="175" x2="312" y2="175" stroke="#97A5B2" stroke-width="6"/>
<line x1="336" y1="175" x2="378" y2="175" stroke="#97A5B2" stroke-width="6"/>
<line x1="105" y1="155.5" x2="431" y2="155.5" stroke="#C9D7EA"/>
<line x1="126" y1="215" x2="178" y2="215" stroke="#97A5B2" stroke-opacity="0.85" stroke-width="6"/>
<line x1="221" y1="215" x2="251" y2="215" stroke="#97A5B2" stroke-opacity="0.85" stroke-width="6"/>
<line x1="270" y1="215" x2="301" y2="215" stroke="#97A5B2" stroke-opacity="0.85" stroke-width="6"/>
<line x1="336" y1="215" x2="387" y2="215" stroke="#97A5B2" stroke-opacity="0.85" stroke-width="6"/>
<line x1="105" y1="195.5" x2="431" y2="195.5" stroke="#C9D7EA"/>
<line x1="126" y1="255" x2="178" y2="255" stroke="#97A5B2" stroke-opacity="0.5" stroke-width="6"/>
<line x1="221" y1="255" x2="251" y2="255" stroke="#97A5B2" stroke-opacity="0.5" stroke-width="6"/>
<line x1="270" y1="255" x2="312" y2="255" stroke="#97A5B2" stroke-opacity="0.5" stroke-width="6"/>
<line x1="105" y1="235.5" x2="431" y2="235.5" stroke="#C9D7EA"/>
<rect x="82" y="38" width="324" height="303" rx="8" stroke="#020A13" stroke-width="4"/>
<path d="M332.411 303.817C333.783 303.771 335.159 303.845 336.484 304.269C337.38 304.105 338.329 304.197 339.191 303.817C339.495 303.684 339.773 303.792 340.045 303.915C341.571 304.577 343.109 304.495 344.693 304.077C345.462 303.872 346.323 304.124 347.096 303.844C348.46 303.341 349.835 303.136 351.28 303.228C351.705 303.259 352.192 303.154 352.568 302.964C353.693 302.384 354.846 302.253 356.092 302.36C356.897 302.43 357.675 302.051 358.449 301.856C359.143 301.672 359.836 301.597 360.518 301.771C362.41 302.248 363.966 301.49 365.241 300.262C365.855 299.676 366.413 299.431 367.153 299.517C368.22 299.63 369.195 299.371 370.127 298.876C370.275 297.864 369.499 297.284 369.033 296.555C367.905 296.687 366.916 297.135 366.001 297.78C365.529 298.109 365.137 298.209 364.512 297.89C363.344 297.3 362.068 297.509 360.862 297.931C360.483 298.061 360.074 298.205 359.774 298.458C358.921 299.161 357.923 299.285 356.89 299.388C356.157 299.456 355.44 299.614 354.761 299.913C354.071 300.216 353.357 300.3 352.602 300.208C351.457 300.081 350.321 300.169 349.238 300.597C348.712 300.804 348.177 300.882 347.625 300.7C347.454 300.642 347.266 300.627 347.083 300.623C345.471 300.592 343.854 300.686 342.246 300.581C341.509 300.529 340.794 300.831 340.103 301.075C339.496 301.293 338.921 301.389 338.276 301.272C337.406 301.109 336.518 301.209 335.636 301.27C334.294 301.108 332.931 301.368 331.586 301.172C330.276 301.057 328.958 301.115 327.667 300.713C326.822 300.442 325.949 300.329 325.049 300.458C323.29 300.698 321.529 300.576 319.776 300.304C319.411 300.246 319.058 300.159 318.712 300.033C317.946 299.751 317.165 299.573 316.35 299.507C315.321 299.426 314.31 299.192 313.414 298.64C312.753 298.24 311.915 298.426 311.314 298.024C310.747 297.642 310.339 297.046 309.711 296.691C308.677 296.103 307.551 295.883 306.409 295.9C305.748 295.912 305.285 295.74 304.823 295.324C304.415 294.946 303.906 294.697 303.344 294.605C302.207 294.414 301.324 293.783 300.455 293.074C299.291 292.106 297.975 291.4 296.318 291.183C296.654 292.029 297.128 292.61 297.71 293.19C298.629 294.096 299.751 294.609 300.854 295.191C301.469 295.515 302.087 295.874 302.511 296.451C302.809 296.854 303.26 297.08 303.726 297.178C304.798 297.385 305.618 297.983 306.305 298.773C307.245 299.863 308.461 300.262 309.851 300.257C310.576 300.253 311.279 300.283 311.972 300.646C312.616 300.981 313.407 300.827 314.125 301.081C316.202 301.841 318.322 302.448 320.553 302.594C320.89 302.616 321.208 302.707 321.514 302.851C322.091 303.118 322.7 303.263 323.329 303.29C323.661 303.301 323.991 303.362 324.295 303.532C325.527 304.239 326.822 304.239 328.169 303.998C328.314 303.971 328.465 303.928 328.608 303.95C329.863 304.162 331.131 304.017 332.411 303.817Z" fill="#020A13"/>
<path d="M392.214 237.824C392.958 237.837 393.632 237.637 394.307 237.243C395.037 236.812 395.94 236.609 396.767 236.864C397.833 237.195 398.936 237.28 400.01 237.547C400.882 237.77 401.75 237.788 402.638 237.798C404.374 237.81 406.118 237.782 407.617 238.906C407.784 239.038 408.019 239.105 408.231 239.145C409.102 239.308 409.817 239.696 410.411 240.357C410.604 240.576 410.858 240.767 411.125 240.88C412.309 241.341 413.121 242.416 414.32 242.858C414.583 242.961 414.816 243.186 415.009 243.404C416.322 244.986 417.951 246.294 419.031 248.088C419.785 249.333 420.153 250.748 420.524 252.113C420.786 253.065 420.589 254.159 420.514 255.199C420.417 256.685 420.365 258.188 420.785 259.665C421.039 260.572 421.063 261.508 420.723 262.385C420.468 263.043 420.291 263.715 420.095 264.396C419.879 265.171 419.529 265.834 418.894 266.344C417.918 267.125 417.319 268.129 416.817 269.272C416.292 270.473 415.625 271.652 414.821 272.686C413.926 273.844 412.93 274.937 412.025 276.1C411.777 276.415 411.465 276.698 411.066 276.837C410.552 277.015 410.202 277.375 409.874 277.786C408.912 279.01 407.647 279.906 406.458 280.891C405.533 281.65 404.52 282.29 403.856 283.395C403.301 284.306 402.434 284.979 401.267 285.104C400.723 285.162 400.231 285.391 399.727 285.649C398.419 286.309 397.279 287.321 395.817 287.685C395.676 287.723 395.524 287.79 395.424 287.894C394.492 288.911 393.066 289.247 392.119 290.259C391.737 290.657 391.187 290.948 390.562 291.041C389.927 291.138 389.369 291.493 388.964 291.975C388.463 292.571 387.844 292.953 387.162 293.217C386.14 293.618 385.052 293.842 384.118 294.471C383.841 294.666 383.475 294.633 383.148 294.632C382.859 294.637 382.569 294.583 382.321 294.789C382.389 295.22 382.722 295.425 382.958 295.686C383.514 296.29 384.009 296.946 384.153 297.768C384.291 298.605 384.724 299.287 385.158 299.97C385.994 301.264 387.045 302.415 387.584 303.888C387.73 304.273 388.061 304.612 388.45 304.865C389.028 305.242 389.634 305.63 390.027 306.246C390.658 307.241 391.337 308.205 391.922 309.233C392.201 309.729 392.513 310.162 393.005 310.455C393.753 310.889 394.376 311.452 394.744 312.261C394.856 312.515 395.026 312.682 395.29 312.785C396.609 313.308 397.532 314.442 398.808 315.058C399.317 315.307 399.75 315.795 399.992 316.344C400.202 316.822 400.545 317.107 401.007 317.304C401.747 317.61 402.327 318.131 402.716 318.821C402.907 319.173 403.154 319.404 403.515 319.537C404.189 319.774 404.728 320.228 405.309 320.615C406.286 321.265 407.368 321.771 408.199 322.643C408.27 322.721 408.398 322.737 408.501 322.777C410.348 323.371 411.89 324.536 413.52 325.517C414.929 326.353 416.381 327.012 417.891 327.609C418.787 327.967 419.84 327.855 420.647 328.397C421.594 329.036 422.665 329.378 423.659 329.85C425.008 330.493 426.292 331.238 427.78 331.566C428.198 331.661 428.608 331.796 429.041 331.872C430.296 332.084 431.589 332.049 432.811 332.627C433.641 333.026 434.579 333.341 435.595 333.064C436.223 332.897 436.853 333.117 437.403 333.433C438.528 334.09 439.683 334.212 440.921 333.862C441.46 333.71 442.033 333.664 442.564 333.854C443.682 334.248 444.8 334.229 445.949 334.063C446.609 333.966 447.272 334.124 447.921 334.251C448.161 334.302 448.459 334.402 448.454 334.719C448.453 335.047 448.118 335.085 447.897 335.159C447.261 335.366 446.588 335.431 445.925 335.383C445 335.317 444.1 335.362 443.197 335.65C442.476 335.882 441.75 335.911 441.024 335.636C439.753 335.14 438.452 335.045 437.115 335.282C436.409 335.411 435.726 335.372 435.103 334.918C434.676 334.609 434.198 334.54 433.665 334.484C432.716 334.391 431.74 334.457 430.823 334.133C429.486 333.654 428.298 332.77 426.812 332.696C426.674 332.684 426.519 332.606 426.409 332.521C425.753 332.021 424.998 331.929 424.208 331.949C423.457 331.976 422.716 331.805 422.135 331.309C421.753 330.992 421.365 330.908 420.907 330.94C420.185 330.978 419.483 330.814 418.924 330.369C418.079 329.686 417.106 329.264 416.15 328.824C413.65 327.656 411.129 326.521 408.739 325.135C408.483 324.993 408.229 324.801 408.056 324.574C407.754 324.161 407.362 323.958 406.904 323.771C405.425 323.16 404.161 322.188 402.934 321.187C402.495 320.823 402.11 320.47 401.56 320.348C400.809 320.182 400.172 319.807 399.714 319.208C399.401 318.8 399.021 318.567 398.54 318.439C397.649 318.2 396.933 317.702 396.409 316.951C396.19 316.647 395.956 316.362 395.658 316.153C395.096 315.757 394.673 315.264 394.416 314.625C394.235 314.159 393.924 313.835 393.447 313.632C392.717 313.323 392.127 312.806 391.826 312.041C391.649 311.609 391.37 311.223 390.986 311.04C389.861 310.492 389.22 309.391 388.195 308.714C387.584 308.316 387.096 307.73 386.874 306.978C386.577 305.944 386.168 304.96 385.278 304.26C385.111 304.127 384.992 303.912 384.897 303.724C384.351 302.593 383.525 301.623 383.04 300.465C382.831 299.963 382.474 299.538 382.066 299.135C381.46 298.528 381.009 297.805 381.059 296.873C381.068 296.59 380.973 296.292 380.877 296.019C380.588 295.224 380.577 295.229 379.692 295.473C379.22 294.977 379.259 294.378 379.353 293.766C378.96 292.847 378.77 291.864 378.453 290.924C378.163 290.044 377.726 289.218 377.546 288.314C377.432 287.697 377.178 287.202 376.783 286.745C375.994 285.831 375.642 284.785 375.775 283.574C375.847 282.912 375.837 282.285 375.561 281.63C375.325 281.067 375.207 280.44 375.143 279.801C375.01 278.452 374.947 277.072 374.618 275.774C374.272 274.41 374.311 272.985 373.834 271.655C373.672 271.204 373.692 270.698 373.834 270.223C374.042 269.513 373.901 268.835 373.686 268.154C373.302 266.952 373.255 265.772 373.871 264.615C374.204 263.995 374.478 263.353 374.592 262.648C374.875 260.788 375.083 258.95 374.996 257.047C374.922 255.2 375.526 253.381 376.378 251.769C376.924 250.728 377.528 249.734 377.91 248.62C378.256 247.619 378.816 246.802 379.758 246.218C380.996 245.454 382.031 244.477 382.815 243.234C383.321 242.43 384.065 241.92 384.896 241.47C385.997 240.864 387.084 240.252 388.243 239.778C388.663 239.605 388.967 239.277 389.303 238.996C390.155 238.318 391.068 237.807 392.214 237.824ZM386.328 243.156C385.808 243.652 385.253 244.042 384.622 244.368C383.304 245.033 382.412 246.032 382.102 247.527C381.881 248.595 381.389 249.539 380.607 250.32C379.986 250.945 379.623 251.687 379.55 252.568C379.543 252.608 379.537 252.647 379.535 252.672C379.43 253.422 377.906 257.332 377.54 258.014C376.521 259.906 375.938 261.91 376.534 264.062C376.943 265.543 377.019 266.953 376.404 268.389C376.185 268.91 376.193 269.476 376.335 270.02C376.541 270.791 376.44 271.551 376.442 272.326C376.437 273.966 376.268 275.618 376.705 277.269C377.07 278.649 377.671 279.986 377.654 281.461C377.647 281.804 377.873 282.069 378.078 282.342C378.914 283.527 379.377 284.827 379.157 286.307C379.084 286.801 379.197 287.224 379.443 287.673C379.826 288.378 379.991 289.191 380.317 289.933C380.603 290.584 380.972 291.174 381.31 291.777C381.584 292.263 381.793 292.159 382.17 291.944C383.533 291.162 384.881 290.29 386.381 289.848C387.821 289.433 389.195 288.925 390.579 288.328C391.851 287.78 393.067 287.076 394.384 286.63C394.616 286.552 394.847 286.389 395.039 286.22C395.712 285.632 396.426 285.136 397.243 284.765C397.963 284.448 398.544 283.925 399.002 283.287C399.939 281.977 401.094 281.08 402.732 280.76C403.579 280.593 404.173 279.798 404.85 279.245C405.992 278.318 407.072 277.333 408.175 276.375C408.393 276.182 408.718 276.039 408.829 275.796C409.479 274.357 410.756 273.492 411.787 272.395C412.289 271.859 412.515 271.105 413.122 270.643C414.318 269.729 415.136 268.507 415.936 267.27C416.092 267.019 416.241 266.808 416.198 266.463C416.053 265.253 416.316 264.118 416.903 263.059C417.012 262.866 417.166 262.665 417.185 262.462C417.293 261.165 417.908 260.142 418.62 259.065C419.102 258.343 419.215 257.226 419.007 256.286C418.783 255.281 418.503 254.288 418.137 253.346C417.251 251.333 416.402 249.293 415.455 247.308C415.131 246.626 414.589 246.027 413.945 245.583C413.542 245.299 413.211 244.96 412.922 244.577C412.199 243.622 411.306 242.887 410.231 242.341C409.858 242.153 409.476 242.03 409.081 241.986C408.637 241.938 408.222 241.794 407.82 241.595C407.587 241.479 407.357 241.313 407.115 241.286C405.362 241.099 403.815 240.252 402.168 239.727C400.828 239.298 399.435 239.377 398.147 239.835C396.738 240.346 395.385 240.601 393.961 239.979C393.509 239.777 393.158 239.969 392.843 240.216C392.023 240.856 391.073 241.092 390.058 241.151C389.715 241.168 389.399 241.222 389.1 241.366C388.108 241.863 387.129 242.391 386.328 243.156Z" fill="#020A13"/>
<g clip-path="url(#clip1)">
<path d="M401.083 115.336C401.267 113.784 401.114 112.216 401.481 110.664C401.741 109.63 401.909 108.595 402.521 107.697C402.689 107.438 402.887 107.18 402.949 106.906C403.514 104.593 404.936 102.736 406.206 100.789C406.848 99.7995 407.582 98.917 408.576 98.2474C409.294 97.7605 409.952 97.2127 410.395 96.4366C410.762 95.8128 411.313 95.3106 411.939 94.991C413.377 94.2606 414.707 93.3324 416.297 92.8607C418.82 92.1151 421.297 91.2173 423.82 90.4412C425.303 89.9847 426.832 89.8782 428.331 90.213C429.279 90.4108 430.196 90.6695 431.175 90.6391C431.894 90.6238 432.597 90.7912 433.254 91.0347C434.401 91.4608 435.548 91.8564 436.771 91.9629C437.123 91.9933 437.475 92.1151 437.796 92.252C439.004 92.7846 440.181 93.3476 441.389 93.8802C442.352 94.3063 442.887 95.2345 443.667 95.8736C443.881 96.4823 443.453 96.8779 443.086 97.1518C440.303 99.1757 439.569 102.082 439.417 105.262C439.019 107.697 439.218 110.162 439.906 112.429C440.41 114.103 441.832 115.473 442.933 116.918C445.349 120.068 448.713 121.544 452.505 122.275C452.811 122.336 453.117 122.381 453.254 122.701C452.031 124.603 451.313 126.748 450.349 128.787C449.661 130.264 448.698 131.42 447.521 132.485C447.001 132.957 446.756 133.718 446.221 134.144C444.738 135.346 443.392 136.715 441.924 137.918C441.588 138.207 441.144 138.389 440.716 138.541C439.936 138.815 439.294 139.211 438.759 139.881C437.995 140.809 436.863 141.25 435.67 141.387C433.3 141.676 430.961 142.117 428.667 142.802C428.01 143 427.322 143.061 426.71 142.893C425.242 142.483 423.698 142.391 422.276 141.798C421.389 141.433 420.487 141.128 419.493 141.083C418.897 141.052 418.3 140.824 417.75 140.58C415.9 139.759 414.065 138.907 412.23 138.039C410.426 137.187 409.279 135.452 408.117 133.855C407.857 133.489 407.704 133.079 407.245 132.835C405.288 131.816 404.585 129.837 403.713 128.042C402.719 126.003 402.459 123.675 401.282 121.696C400.976 121.179 400.884 120.555 400.869 119.931C401.557 119.201 402.398 119.505 403.147 119.703C404.554 120.068 405.946 120.16 407.352 119.734C408.163 119.49 408.958 119.581 409.738 119.886C411.527 120.555 413.3 120.601 415.074 119.825C415.747 119.536 416.435 119.444 417.154 119.551C419.111 119.81 420.747 119.231 422.123 117.801C423.102 116.781 424.08 115.792 425.043 114.423C422.245 115.792 419.187 115.245 416.649 116.736C415.976 117.131 415.135 116.812 414.417 116.614C412.918 116.218 411.481 116.355 410.105 117.01C409.172 117.451 408.254 117.481 407.306 117.116C406.343 116.736 405.334 116.69 404.325 116.614C403.132 116.538 401.878 116.462 401.083 115.336Z" fill="#238969"/>
<path d="M439.109 105.293C439.232 104.106 439.308 102.904 439.476 101.717C439.706 100.089 440.638 98.8562 441.846 97.8214C442.534 97.228 443.131 96.5584 443.681 95.8585C444.767 95.2041 445.883 94.5955 447.137 94.3216C447.382 94.2759 447.626 94.1694 447.825 94.0325C449.828 92.5869 451.801 92.9064 453.758 94.1238C453.987 94.2607 454.201 94.352 454.446 94.3672C455.898 94.4585 457.015 95.2194 458.024 96.178C458.788 96.9084 459.599 97.6084 460.302 98.4149C461.785 100.119 462.244 102.128 461.846 104.334C461.77 104.775 461.571 105.232 461.617 105.673C461.755 106.906 461.372 107.956 460.73 108.96C460.47 109.341 460.256 109.736 460.256 110.223C460.271 111.836 459.247 112.886 458.024 113.616C456.632 114.438 455.164 115.169 453.513 115.382C453.437 115.442 453.36 115.519 453.268 115.549C450.852 116.705 445.99 116.021 444.048 114.24C441.434 111.806 439.446 109.006 439.109 105.293Z" fill="#4848FF"/>
<path d="M401.082 115.336C402.397 115.899 403.728 116.34 405.196 116.188C406.128 116.097 406.985 116.523 407.841 116.858C408.453 117.101 409.018 117.116 409.599 116.782C411.404 115.762 413.3 115.792 415.211 116.401C415.853 116.599 416.358 116.614 416.923 116.234C418.284 115.321 419.829 115.032 421.434 115.047C422.214 115.047 422.933 114.91 423.605 114.484C424.156 114.134 424.752 113.799 425.517 114.256C425.196 115.26 424.446 115.99 423.804 116.721C422.474 118.242 421.082 119.871 418.835 119.947C416.908 120.023 415.058 120.205 413.208 120.799C412.199 121.118 410.991 120.966 409.951 120.388C409.003 119.871 407.994 119.84 407 120.236C405.899 120.662 404.798 120.616 403.712 120.281C402.78 120.007 401.832 119.855 400.853 119.931C398.957 119.429 397.382 118.41 395.792 117.253C394.186 116.097 392.856 114.621 391.205 113.54C390.15 112.856 389.431 111.806 389.034 110.664C388.208 108.199 387.459 105.689 387.046 103.086C386.893 102.097 387.122 101.184 387.183 100.226C387.199 99.8453 387.138 99.3583 387.688 99.2366C388.269 99.1149 388.712 99.404 388.927 99.9061C389.278 100.697 389.584 101.504 389.63 102.371C389.645 102.828 389.737 103.284 389.737 103.726C389.752 105.125 390.501 106.191 391.144 107.317C391.312 107.606 391.526 107.773 391.786 107.925C393.131 108.701 394.049 109.873 394.997 111.09C396.174 112.612 397.336 114.271 399.293 115.001C399.905 115.229 400.471 115.366 401.082 115.336Z" fill="#FED046"/>
<path d="M439.11 105.293C439.736 106.784 440.134 108.351 440.944 109.782C441.954 111.577 443.284 113.099 444.859 114.392C445.837 115.199 447.03 115.701 448.391 115.534C448.59 115.503 448.804 115.458 448.987 115.503C450.516 115.777 452.015 115.686 453.528 115.366C453.513 115.868 453.544 116.371 453.483 116.873C453.391 117.71 453.345 118.486 453.651 119.353C454.033 120.449 453.88 121.636 453.253 122.686C451.235 122.823 449.492 121.97 447.779 121.118C446.74 120.601 445.501 120.327 444.721 119.475C443.437 118.075 441.969 116.781 441.128 115.016C440.914 114.545 440.669 114.103 440.21 113.845C439.385 113.373 439.217 112.49 439.262 111.745C439.308 110.999 439.186 110.36 438.957 109.706C438.895 109.523 438.85 109.31 438.85 109.112C438.926 108.017 438.941 106.921 438.865 105.81C438.85 105.658 439.018 105.475 439.11 105.293Z" fill="#222532"/>
</g>
<circle cx="84" cy="341" r="66" fill="#020A13"/>
<path d="M145.314 381.548C143.661 380.446 143.267 381.941 142.637 382.807C134.843 394.214 125.003 403.183 112.014 408.296C105.637 410.814 99.1029 412.938 92.0178 412.466C90.1284 412.309 89.4199 411.837 89.4199 409.791C89.4199 403.733 89.971 397.676 90.3646 391.618C91.0731 380.682 91.7816 369.826 93.1199 358.969C93.5136 355.979 94.537 352.833 93.1199 349.764L91.7816 348.82C91.0731 348.742 90.4433 348.663 89.8135 348.978C89.3412 349.214 88.8689 349.528 88.3178 349.686C86.5859 350.236 84.9327 350.866 83.2795 351.495C82.8071 351.574 82.4135 351.652 81.9412 351.81C76.0369 354.485 69.8965 356.294 63.9135 358.733C58.5603 360.857 53.1283 363.139 47.6177 364.791C47.1453 364.948 46.7517 365.105 46.2794 365.263C40.6113 367.702 34.9432 370.14 29.1963 372.265C27.6219 373.13 28.1729 374.31 28.8027 375.411C31.1644 379.424 33.4474 383.436 36.3602 387.212C42.3432 395.079 48.7198 402.16 58.0092 406.33C65.5667 409.712 72.888 413.489 81.1539 414.511C81.3114 414.511 81.3901 414.511 81.4688 414.59H81.5476C81.7837 414.59 82.0199 414.59 82.3348 414.669C83.988 414.511 85.7199 414.669 87.3731 414.983C89.2625 415.377 91.3093 415.377 93.2774 415.456C94.6157 415.298 95.8753 415.219 97.2136 415.141C97.6072 415.062 98.0008 414.983 98.4732 414.983C101.465 414.039 104.535 413.253 107.605 412.623C110.833 411.915 113.903 411.286 116.816 409.555C118.233 408.69 119.571 407.824 121.067 407.195C121.854 406.88 123.271 406.487 123.98 405.858C124.531 405.385 125.082 405.071 125.712 404.756C128.467 402.553 131.143 400.35 133.741 397.99C138.15 393.978 142.322 389.808 145.156 384.459C145.55 383.593 146.416 382.649 145.314 381.548Z" fill="#161121"/>
<path d="M145.313 381.548C144.132 380.997 143.817 381.941 143.423 382.649C140.353 388.235 136.023 392.562 131.3 396.81C127.521 400.193 123.664 403.576 119.098 405.779C115.555 407.51 111.934 409.083 108.155 410.342C104.219 411.679 100.361 412.702 96.2678 413.095C95.7167 413.174 95.2444 413.174 94.6146 413.095C92.5678 412.859 89.8125 413.961 88.789 412.466C87.8444 411.129 88.6316 408.532 88.7103 406.487C89.7337 390.91 90.2848 375.254 92.4103 359.756C92.8827 356.451 92.8827 353.147 93.1188 349.764C95.4018 351.81 98.0784 353.226 100.676 354.642C108.076 358.733 115.634 362.509 123.034 366.6C130.198 370.612 137.125 374.939 144.289 379.03C145.47 379.817 144.919 380.761 145.313 381.548Z" fill="#D6FDFB"/>
<path d="M69.0293 287.063C75.3271 285.804 81.7038 284.86 88.2378 285.017C91.9378 285.096 95.7166 284.702 99.4166 285.647C101.621 288.007 101.778 290.603 100.204 293.356C99.1804 294.458 98.2357 295.638 97.8421 297.211C95.4804 299.886 94.8506 303.426 93.2761 306.573C92.3315 308.461 91.4655 310.428 91.1506 312.552C90.757 314.991 88.7102 316.25 86.6634 317.194C83.8293 318.453 81.1527 320.341 78.0037 320.97C81.1527 320.341 83.7506 318.374 86.6634 317.273C87.5293 316.958 88.2378 315.778 89.1825 316.722C90.1272 317.587 89.0251 318.453 88.6314 319.24C85.2463 322.308 82.0187 325.455 78.791 328.68C78.0037 329.467 77.0591 329.86 76.0357 328.995C74.8548 327.893 73.9101 326.635 73.1229 325.219C72.3356 323.881 72.6505 323.094 74.1463 322.622C72.7293 323.094 71.391 322.937 70.2888 321.836C65.7229 317.43 60.2909 314.519 54.3079 312.631C51.8675 311.844 51.8675 311.372 52.9696 309.012C56.1186 302.482 60.0548 296.503 64.6994 290.996C64.8569 290.839 64.9356 290.682 65.0931 290.524C66.4314 289.423 67.6122 288.164 69.0293 287.063Z" fill="#8CFEE0"/>
<path d="M176.567 342.684C176.252 348.584 174.047 353.934 172.158 359.441C172.001 359.913 171.607 359.992 171.213 359.913C170.741 359.048 169.875 358.576 169.009 358.182C155.154 350.63 140.826 344.021 126.813 336.783C123.271 334.974 119.649 333.243 115.949 331.906C115.083 331.591 114.296 331.276 113.588 330.804C112.564 330.096 112.328 329.31 113.43 328.523C117.839 325.533 121.932 322.072 126.577 319.476C128.073 319.24 128.703 320.262 129.411 321.206C131.222 323.724 132.954 326.32 135.001 328.68C137.756 331.827 141.062 334.03 145.077 335.131C149.249 336.233 153.973 334.345 155.154 330.175C157.043 326.241 157.201 326.241 160.35 329.31C164.522 333.322 169.009 336.862 173.654 340.245C174.599 340.953 175.701 341.582 176.488 342.448C176.488 342.448 176.567 342.605 176.567 342.684Z" fill="#9B57FE"/>
<path d="M46.5937 365.735C41.6341 368.331 36.2809 369.904 31.2426 372.265C30.5341 372.579 29.9043 372.658 29.1958 372.343C26.5192 367.544 25.1021 362.43 24.5511 357.002C24.1574 353.226 24 349.528 24 345.752C24 342.369 24.0787 338.908 25.4957 335.761C26.9915 332.299 26.9915 328.523 28.0936 324.983C28.2511 324.511 28.1724 323.802 28.8021 323.488C32.3447 328.208 36.9107 331.906 41.8703 334.895C44.3107 336.39 45.4916 338.042 44.8618 340.638C44.232 343.471 44.6256 346.303 44.6256 349.135C44.7043 353.147 44.7043 357.238 45.9639 361.093C46.2001 361.88 46.6724 362.903 45.7277 363.532C44.7043 364.319 43.9958 363.296 43.2873 362.745C42.2639 361.958 41.1618 361.329 40.2958 360.464C37.5405 358.812 35.4149 356.373 33.6043 355.035C35.2575 356.451 37.383 358.812 40.2171 360.306C41.6341 361.644 43.2873 362.745 44.8618 363.847C45.649 364.319 46.4362 364.712 46.5937 365.735Z" fill="#8CFEE0"/>
<path d="M160.585 290.918C162.868 291.547 164.127 293.356 165.308 295.087C169.638 301.302 173.81 307.596 175.7 315.07C177.589 322.386 177.668 329.86 177.274 337.334C177.195 339.144 177.432 340.953 176.644 342.763L176.487 342.605C173.889 339.38 170.268 337.413 167.276 334.659C164.442 332.142 161.451 329.624 158.774 326.949C157.672 325.848 157.357 324.589 157.593 323.016C159.168 314.519 159.168 305.944 158.774 297.29C158.774 296.818 158.853 296.267 158.617 295.874C157.515 293.514 158.774 292.098 160.585 290.918Z" fill="#9B57FE"/>
<path d="M160.586 290.918C160.586 291.154 160.664 291.547 160.507 291.626C158.224 292.806 159.011 294.694 159.169 296.503C159.877 303.505 159.562 310.507 158.932 317.509C158.775 319.318 158.775 321.128 158.224 322.937C157.673 324.589 158.224 325.691 159.562 326.949C164.758 331.748 170.111 336.39 175.937 340.481C176.881 341.11 176.645 341.74 176.488 342.526C174.598 342.133 173.418 340.717 172.001 339.616C167.513 336.154 162.947 332.692 159.011 328.602C158.539 328.129 157.909 327.736 157.2 327.185C156.571 328.287 156.098 329.231 155.547 330.175C155.311 330.254 155.154 330.254 154.918 330.096C154.603 329.782 154.445 329.388 154.603 328.995C155.862 326.477 154.603 324.825 152.871 323.173C148.383 318.767 145.786 313.182 143.581 307.281C138.464 310.664 134.134 314.834 129.332 318.374C128.624 319.24 127.443 319.082 126.656 319.633C122.09 322.858 117.524 326.084 112.8 329.388C115.556 331.512 118.862 332.22 121.775 333.558C130.671 337.649 139.094 342.684 147.99 346.617C155.705 350.079 162.79 354.563 170.426 358.104C171.292 358.497 171.843 358.89 171.135 359.834C169.088 361.486 167.356 359.598 165.466 359.362C163.42 358.969 161.688 357.71 159.956 356.687C157.594 355.35 155.154 354.091 152.32 354.406C151.926 354.485 151.532 354.327 151.139 354.249C150.43 354.091 149.171 354.327 149.328 353.305C149.407 352.36 150.588 352.675 151.375 352.675C151.69 352.754 151.454 352.36 151.454 352.675C151.454 352.754 151.375 352.675 151.217 352.675C150.824 352.597 150.509 352.36 150.194 352.124C149.328 351.102 148.305 350.315 147.045 350C143.739 349.292 141.062 347.089 138.149 345.673C137.362 345.123 136.417 344.729 135.63 344.179C134.922 343.785 134.213 343.628 133.583 343.077C132.717 342.212 131.694 341.818 130.434 342.212C129.726 342.448 128.86 342.369 128.151 342.133C127.994 342.054 127.837 341.897 127.679 341.74C127.443 341.189 128.466 341.189 128.23 340.56C124.294 338.199 120.2 336.311 115.792 334.974C114.69 334.502 113.981 333.401 112.722 333.322C107.919 332.692 103.117 332.771 98.3939 331.827C97.2131 331.591 95.796 331.591 95.1662 330.254C95.0875 330.018 95.1662 329.782 95.4024 329.624C97.1343 328.916 98.8662 329.624 100.519 329.86C103.039 330.254 105.558 330.411 108.077 330.726C109.573 330.883 110.36 330.49 110.911 329.152C111.226 328.365 111.856 327.736 112.407 326.871C108.628 326.871 105.007 327.421 101.464 327.815C100.598 327.893 99.7322 328.208 99.0237 327.343C98.945 326.949 99.1024 326.635 99.3386 326.399C99.496 326.241 99.7322 326.084 99.9684 326.005C100.519 325.769 101.149 325.612 101.7 325.455C105.873 325.297 110.045 324.196 114.296 324.432C115.162 324.511 115.792 323.96 116.422 323.488C118.468 321.678 120.83 320.341 122.877 318.61C123.507 318.059 124.451 317.823 124.215 316.643C127.049 316.171 128.624 313.811 131.3 312.08C127.364 312.238 124.058 311.53 120.673 311.53C119.413 311.53 118.39 311.294 119.807 309.799C123.428 309.091 127.128 309.484 130.749 309.563C133.505 309.642 135.709 308.855 137.52 306.573C136.654 305.787 135.551 305.787 134.528 305.629C132.796 305.393 131.143 304.764 129.49 304.213C128.781 303.977 127.837 303.662 128.23 302.561C128.545 301.617 129.411 301.617 130.277 301.774C132.166 302.325 134.056 302.954 135.945 303.505C138.937 304.449 141.613 304.37 143.66 301.066C140.117 301.145 136.732 300.673 133.347 300.594C132.481 300.594 131.379 300.988 131.143 299.571C131.458 299.257 131.773 298.942 132.166 298.627C133.82 297.683 135.551 297.919 137.283 298.155C139.251 298.47 141.298 298.313 143.266 298.549C146.494 298.942 148.935 297.605 151.139 295.402C152.635 293.828 154.288 292.412 156.256 291.547C157.437 290.682 158.932 290.21 160.586 290.918Z" fill="#181225"/>
<path d="M99.2592 326.163C99.1018 326.399 98.9443 326.556 98.7869 326.792C98.3933 327.657 97.9996 328.68 96.7401 328.129C96.189 327.028 96.8975 326.163 97.3699 325.219C99.7316 320.498 101.149 315.463 101.857 309.563C98.7082 312.002 95.1656 312.867 92.4103 315.227C91.7017 315.778 91.1507 316.407 90.9932 317.351C89.8911 323.252 89.0251 329.152 88.9464 335.131C88.9464 335.603 89.0251 336.075 89.2613 336.705C91.072 334.974 92.1741 332.85 94.0635 331.355C94.9294 331.119 95.4805 331.512 95.7954 332.299C95.323 335.367 92.489 336.705 90.9932 338.986C90.4422 339.773 89.4188 340.324 89.4975 341.504C89.34 344.021 90.4422 346.303 90.1273 348.742C89.9698 348.978 89.8911 349.214 89.7337 349.45C89.5762 349.843 89.2613 350.158 88.789 350.158C87.2932 348.82 87.6868 346.932 87.2145 345.28C86.9783 344.336 86.8996 343.392 86.6634 342.448C85.9549 342.605 85.5613 343.313 84.9315 343.549C83.357 344.179 83.1996 345.28 83.5145 346.853C83.8294 348.584 84.6953 350.394 83.5145 352.124C83.0421 352.203 82.5698 352.282 82.1762 352.36C81.7038 351.023 81.4677 349.607 81.389 348.191C81.3102 346.696 80.7592 345.988 79.106 346.539C73.9102 348.348 68.7144 347.64 63.5187 346.539C58.0867 345.437 52.9697 343.471 48.2463 340.56C46.1995 339.301 45.8846 339.537 45.8059 341.976C45.5697 349.45 45.9633 356.845 47.8527 364.083C47.9314 364.476 47.9314 364.869 47.7739 365.263C47.5378 365.813 47.1442 365.813 46.6718 365.813C44.7037 363.925 41.9484 362.903 40.2952 360.464L40.3739 360.385C41.7122 361.329 43.1292 362.273 44.4676 363.139C44.7824 363.375 45.2548 363.768 45.7271 363.296C46.042 362.981 45.8846 362.588 45.7271 362.195C44.2314 358.025 44.3101 353.619 43.9952 349.292C43.6803 345.988 43.9165 342.605 44.3888 339.301C44.625 337.57 43.8378 336.783 42.8144 336.233C39.8229 334.581 37.225 332.614 34.7845 330.175C33.8399 329.231 32.5803 328.366 31.4781 327.5C30.1398 326.556 28.8015 325.455 28.8803 323.488L28.959 323.409C30.2186 322.78 30.7696 323.803 31.3207 324.432C34.5484 328.287 38.7207 330.962 42.5782 334.03C43.8378 334.974 44.2314 334.581 44.625 333.243C45.491 330.018 45.2548 326.556 46.6718 323.409C46.9867 322.701 46.5144 322.15 45.8846 321.836C41.2399 319.476 38.5633 315.542 36.5952 310.979C36.5952 309.956 37.5399 309.484 37.9335 308.697C41.4761 308.697 45.0186 309.327 48.4825 309.956C50.4505 310.271 51.3952 309.956 52.1825 308.225C54.2293 303.662 57.1421 299.572 59.7399 295.323C60.6059 293.986 61.6293 292.806 62.7314 291.626C63.3612 290.918 64.0697 290.131 65.1719 290.839C65.2506 291.39 64.9357 291.704 64.6208 292.098C59.8187 297.447 56.4335 303.741 52.891 310.035C52.1037 311.372 53.1272 311.844 53.9144 312.08C57.3782 312.946 60.5272 314.441 63.5974 316.171C66.0378 317.587 68.3208 319.161 70.2102 321.206C71.391 322.465 72.4145 322.701 73.9889 322.15C74.4613 321.993 75.4059 321.049 75.7208 322.15C75.957 323.094 74.8549 323.094 74.2251 323.33C73.9102 323.488 73.4379 323.488 72.9655 323.645C73.5166 325.691 75.2485 327.028 76.1932 328.759C78.5549 330.568 79.2634 333.401 80.3655 335.918C80.3655 338.121 81.94 339.694 82.1762 341.976C83.8294 341.189 85.7188 341.032 86.0336 338.829C86.1124 335.446 86.0336 331.984 86.1911 328.602C86.3485 325.376 86.6634 322.15 88.0805 319.161C88.0805 318.374 89.1039 317.902 88.7102 316.722C86.1124 317.981 83.5145 319.318 80.9953 320.577C79.8145 321.128 78.5549 321.6 77.374 322.15C76.9804 322.308 76.4294 322.701 76.1932 322.072C75.957 321.521 76.4294 321.364 76.9017 321.128C79.4209 320.026 82.0187 318.846 84.5379 317.745C85.089 317.509 85.7188 317.273 86.2698 316.958C88.789 315.621 90.0485 313.654 90.9145 310.822C92.3315 306.259 94.5358 302.01 96.5039 297.683C96.7401 297.133 97.2124 297.133 97.6847 297.133C97.7635 297.211 97.8422 297.29 97.9209 297.369C98.472 298.549 97.7635 299.572 97.2124 300.516C95.0869 304.292 93.8273 308.383 92.0166 312.867C95.4805 310.743 98.3933 308.855 101.306 306.809C101.936 306.416 102.329 305.708 102.329 305C102.566 301.46 102.093 297.998 101.227 294.615C100.991 293.828 100.519 293.907 99.889 293.986C99.8103 293.907 99.7316 293.907 99.5741 293.828C99.5741 293.671 99.4954 293.435 99.5741 293.356C101.306 290.76 99.889 288.321 99.1805 285.804C99.6528 285.961 100.046 286.119 100.519 286.276C101.385 286.669 101.385 287.613 101.7 288.164C102.172 286.827 103.117 286.591 104.376 287.22C104.534 287.535 104.534 287.928 104.298 288.085C102.723 289.737 102.881 291.704 103.589 293.671C104.77 296.818 104.376 300.28 104.927 303.505C105.557 303.584 105.951 302.954 106.423 302.876C109.257 301.381 111.698 299.257 114.374 297.369C115.634 296.503 116.027 295.087 116.421 293.75C116.736 293.199 117.051 292.727 117.759 292.884C118.704 293.435 119.727 293.986 120.672 294.536C121.223 296.189 119.727 296.582 118.861 297.133C117.759 297.841 117.287 298.706 116.815 299.886C114.453 306.18 112.249 312.631 109.1 318.61C108.549 319.397 107.998 320.262 106.738 319.869C105.951 318.531 106.895 317.351 107.368 316.329C109.493 311.923 111.619 307.439 112.957 302.718C113.193 301.932 113.508 301.224 114.295 300.594C111.855 302.718 109.257 304.292 106.895 306.023C105.4 307.124 104.612 308.383 104.455 310.114C103.983 314.441 102.959 318.689 101.385 322.78C101.149 324.039 100.598 325.376 99.2592 326.163Z" fill="#03A3C3"/>
<path d="M36.5964 310.979C37.7772 311.215 38.0134 312.238 38.407 313.182C40.0602 317.037 42.7368 319.79 46.4368 321.6C47.2241 321.993 47.539 322.465 47.3028 323.016C45.4134 327.107 46.0432 331.748 44.2326 335.997C39.4304 332.535 34.4708 329.388 30.6134 324.825C30.141 324.275 29.8261 323.409 28.8027 323.488C29.8261 321.442 30.6134 319.082 31.873 317.43C33.5262 315.306 34.5496 312.71 36.5964 310.979Z" fill="#8CFEE0"/>
<path d="M65.2507 290.839C62.889 291.232 62.1018 293.278 60.9209 294.851C57.9294 299.021 55.0166 303.348 52.8911 308.068C51.789 310.428 50.6081 310.979 48.0102 310.271C45.2549 309.563 42.3421 309.406 39.4293 309.327C38.6421 309.327 38.3272 308.933 37.9336 308.619C40.6889 304.213 44.3102 300.673 48.5613 297.526C53.4422 293.986 58.5592 290.918 64.1486 288.479C65.172 288.007 66.0379 287.299 67.2975 287.535C67.0613 288.951 65.8018 289.659 65.2507 290.839Z" fill="#8EFEE1"/>
<path d="M150.115 351.731C151.139 352.361 152.477 351.81 153.973 352.99C152.241 353.069 150.903 353.147 149.643 353.226C156.02 352.597 160.664 356.215 165.545 359.362C162.632 359.52 159.798 359.205 156.964 358.812C150.902 357.946 144.683 358.654 138.7 357.002C136.811 356.53 135.079 355.979 133.347 355.035C128.781 352.439 124.136 350 119.807 347.011C120.751 346.145 121.853 346.617 122.798 346.853C130.119 348.899 137.598 349.922 145.077 350.944C146.809 351.18 148.62 350.472 150.115 351.731Z" fill="#675974"/>
<path d="M108.863 318.295C111.855 311.687 114.689 305.079 116.893 298.155C117.208 297.211 118.153 297.29 118.625 296.739C119.255 295.874 120.672 295.717 120.908 294.379C123.899 296.267 126.891 298.234 129.804 300.122C129.41 302.01 127.6 302.64 126.497 303.977C124.451 306.495 121.774 308.383 119.097 310.114C117.995 311.844 116.421 313.024 114.846 314.205C113.508 314.991 112.563 316.171 111.382 317.115C110.674 317.666 109.965 318.453 108.863 318.295Z" fill="#35D8CE"/>
<path d="M118.861 309.956C122.483 306.652 126.104 303.348 129.725 300.043C130.119 299.807 130.434 299.571 130.827 299.335C132.402 300.673 134.134 299.493 135.866 299.729C138.857 300.28 141.927 300.201 145.076 300.358C141.219 305.079 138.7 305.629 132.559 303.112C131.615 302.718 130.591 302.404 129.646 302.089C129.017 301.853 128.466 301.853 128.308 302.561C128.151 303.19 128.859 303.19 129.253 303.348C132.323 304.449 135.551 304.921 139.172 305.865C136.653 307.753 135.078 310.35 131.457 310.035C127.521 309.72 123.506 309.956 119.491 309.956C119.255 310.192 119.097 310.192 118.861 309.956Z" fill="#675A75"/>
<path d="M106.896 303.269C106.581 303.426 106.188 303.584 105.873 303.82C105.479 304.056 105.243 304.685 104.771 304.528C104.141 304.292 104.456 303.584 104.456 303.112C104.141 299.965 104.456 296.661 103.196 293.592C102.094 290.996 102.645 288.951 104.534 287.063C109.258 288.479 113.745 290.288 117.996 292.727C117.681 293.042 117.366 293.435 117.051 293.75C115.162 297.211 111.777 299.178 108.864 301.538C108.234 302.089 107.447 302.561 106.896 303.269Z" fill="#8CFEE0"/>
<path d="M155.941 291.39C153.186 293.828 150.509 296.267 147.675 298.706C147.124 299.178 146.337 299.021 145.628 299.021C141.062 299.257 136.496 298.47 131.852 298.47C134.528 295.638 137.913 293.671 140.747 291.075C140.905 290.918 141.22 290.839 141.377 290.918C146.258 291.862 151.139 291.075 155.941 291.39Z" fill="#6A5C77"/>
<path d="M88.789 341.268C88.5529 340.324 89.1827 339.93 89.8124 339.301C91.8593 337.177 93.8274 335.053 95.4806 332.614C97.1337 331.984 97.8423 333.558 99.1018 334.03C100.361 334.817 101.7 335.367 103.038 336.154C103.668 336.469 104.612 336.547 104.455 337.649C101.306 340.088 98.1572 342.605 95.0869 345.044C93.7486 346.067 92.5678 347.247 91.8593 348.82C91.3869 349.607 90.521 349.214 89.8912 349.45C89.8912 349.214 89.8912 348.978 89.8912 348.742C89.9699 348.663 90.1273 348.506 90.2061 348.348C92.8827 344.887 92.8827 344.887 89.655 342.133C89.2614 341.897 89.0252 341.582 88.789 341.268Z" fill="#30CFCB"/>
<path d="M133.819 342.605C134.449 342.92 135.079 343.313 135.709 343.628C135.63 344.651 134.843 344.651 134.134 344.729C128.466 345.359 122.719 345.909 116.972 345.595C112.958 342.999 108.943 340.481 104.928 337.885C105.636 337.098 106.502 337.177 107.368 337.413C113.666 338.908 119.964 340.402 126.498 341.11C126.892 341.189 127.207 341.425 127.521 341.661C129.647 342.29 131.851 341.346 133.819 342.605Z" fill="#685A75"/>
<path d="M117.051 345.516C118.547 344.651 120.2 344.887 121.774 344.887C126.419 344.808 131.142 344.651 135.708 343.628C136.496 344.1 137.283 344.572 138.07 345.044C135.236 346.303 132.166 345.909 129.253 346.46C128.072 346.696 126.734 346.617 125.553 346.696C131.851 348.112 138.227 348.978 144.683 349.686C145.47 349.764 146.415 350.236 147.123 349.45C148.304 350 149.8 350.158 150.115 351.731C143.974 351.652 137.834 350.787 131.851 349.528C127.836 348.742 123.821 347.798 119.806 346.932C118.861 346.539 117.995 345.988 117.051 345.516Z" fill="#342B43"/>
<path d="M127.6 341.661C120.751 341.425 114.217 339.616 107.604 338.121C106.738 337.963 105.951 337.727 105.006 337.885C104.77 337.806 104.613 337.806 104.376 337.727C102.487 336.626 100.676 335.525 98.7871 334.502C99.0233 333.243 100.047 333.479 100.834 333.479C104.298 333.4 107.762 332.692 111.304 333.164C111.934 333.243 112.564 333.243 113.115 332.692C114.217 332.928 114.768 333.873 115.555 334.581C113.351 335.918 110.753 335.367 108.391 335.682C107.447 335.839 106.502 335.761 105.557 335.603C113.194 337.963 121.066 339.144 128.938 340.402C129.174 340.481 129.568 340.56 129.647 340.717C129.804 341.032 129.489 341.189 129.174 341.268C128.623 341.268 127.994 341.032 127.6 341.661Z" fill="#312840"/>
<path d="M65.2521 290.839C65.0159 289.187 66.3542 288.557 67.2202 287.535C67.85 287.377 68.4011 287.22 69.0308 287.063C68.1649 288.715 66.9053 290.052 65.2521 290.839Z" fill="#03A3C3"/>
<path d="M104.533 287.063C102.959 286.433 102.565 288.007 101.542 288.715C101.227 287.849 100.991 286.984 100.676 286.119C102.014 286.276 103.352 286.197 104.533 287.063Z" fill="#7FEDDF"/>
<path d="M86.1914 399.721C85.9552 403.497 85.5616 407.274 85.5616 411.05C85.5616 412.623 84.7744 412.623 83.9084 412.545C78.7914 412.073 73.753 410.971 69.1084 408.768C67.2977 407.116 66.8254 404.756 65.9594 402.632C64.3062 398.777 63.3615 394.922 64.07 390.595C65.2509 383.829 64.5424 376.906 64.6211 370.062C64.6211 368.095 64.7785 366.049 64.6211 364.083C64.5424 363.453 64.6211 362.824 65.2509 362.352C69.2658 360.306 73.5169 358.89 77.768 357.632C78.4765 358.261 78.4765 359.205 78.6339 360.07C80.1297 368.41 81.468 376.828 83.4361 385.167C84.4595 389.887 85.4042 394.765 86.1914 399.721Z" fill="#008BC1"/>
<path d="M38.8798 372.265C44.6266 369.904 50.2947 367.466 56.199 365.735C57.8522 368.41 57.4586 371.635 58.0096 374.546C59.033 380.132 60.2926 385.639 61.9458 391.067C63.2054 395.158 63.2841 399.17 62.0245 403.183C61.7884 403.891 61.6309 404.599 60.9224 404.992C53.3649 402.081 46.9883 397.597 42.3436 390.831C40.8479 385.875 39.667 380.84 38.8798 375.805C38.6436 374.546 37.9351 373.366 38.8798 372.265Z" fill="#008AC0"/>
<path d="M47.6955 365.184C45.4913 358.34 44.7827 351.338 45.0976 344.179C45.0976 343.943 45.0976 343.707 45.0976 343.471C45.3338 341.897 44.3104 339.694 45.7274 338.986C47.0657 338.357 48.6402 340.009 50.0572 340.796C57.4572 345.044 65.4083 347.168 73.9892 346.932C75.8786 346.853 77.8467 346.46 79.4999 345.595C80.9169 344.808 81.468 345.28 81.7041 346.46C82.0978 348.427 82.4914 350.315 82.0978 352.282C77.3743 354.721 72.2573 356.137 67.3764 358.025C61.3147 360.385 55.253 362.667 49.27 364.948C48.7976 365.184 48.2466 365.499 47.6955 365.184Z" fill="#8CFEE0"/>
<path d="M60.9207 404.835C62.1803 400.193 62.8101 395.709 61.2356 390.752C58.559 382.649 57.0632 374.153 56.1973 365.656C56.5909 365.42 56.9845 365.105 57.3781 364.869C58.8739 365.263 58.7164 366.6 58.8739 367.623C59.8973 374.546 60.9207 381.469 62.8101 387.842C63.2824 380.682 62.9675 373.13 63.0462 365.499C63.0462 364.555 63.0462 363.532 63.5973 362.745C64.0696 362.588 64.542 362.431 65.093 362.273C65.093 369.747 65.1718 377.221 65.1718 384.616C65.1718 386.976 65.093 389.415 64.6207 391.697C63.676 396.102 65.7228 399.721 67.0611 403.576C67.6122 405.307 68.3994 406.959 69.1079 408.611C68.1633 408.847 67.5335 408.139 66.825 407.667C65.2505 405.936 65.093 403.576 63.9909 401.609C63.2037 402.868 64.0696 404.835 62.1015 405.386C61.7079 405.307 61.3143 405.071 60.9207 404.835Z" fill="#C2F0F5"/>
<path d="M63.6762 362.745C63.9124 372.107 63.9911 381.391 63.1251 390.753C61.7868 387.763 61.3145 384.459 60.5273 381.312C59.3464 376.198 58.6379 371.006 58.0081 365.813C57.9294 365.499 57.6145 365.184 57.457 364.791C59.5038 364.161 61.6294 363.453 63.6762 362.745Z" fill="#018BC0"/>
<path d="M86.1916 399.721C84.6959 396.417 84.5384 392.798 83.6725 389.336C81.3107 379.817 79.6575 370.219 78.0043 360.542C77.8469 359.52 77.7682 358.497 77.6895 357.474C78.6341 357.081 79.5001 356.687 80.4448 356.373C81.3107 356.609 81.6256 357.395 81.9405 358.104C83.7512 362.037 85.4044 365.971 87.2937 369.904C87.7661 370.927 87.9235 372.028 88.081 373.13C87.9235 374.153 87.8448 375.175 87.6874 376.198C86.7427 376.041 86.3491 375.333 86.0342 374.625C84.381 370.927 82.3341 367.387 80.9171 363.611C80.681 363.06 80.4448 362.43 80.681 362.194C80.681 365.027 81.7831 367.938 82.2554 370.927C83.2001 377.614 85.0895 384.144 86.1916 390.831C86.3491 391.775 86.3491 392.719 86.5065 393.663C86.2703 395.63 86.2703 397.676 86.1916 399.721Z" fill="#C2F0F5"/>
<path d="M88.0028 373.13C85.4836 367.544 82.9645 361.958 80.4453 356.373C83.8304 354.957 87.2155 353.619 90.9156 352.124C89.3411 359.284 89.0262 366.207 88.0028 373.13Z" fill="#0089C0"/>
<path d="M86.3485 393.585C84.774 390.674 84.8527 387.291 84.1442 384.144C82.5698 377.221 81.4676 370.14 80.1293 363.139C79.9719 362.273 79.9719 361.723 80.4442 360.936C82.7272 366.128 85.0102 371.242 87.6868 376.12C87.5293 382.02 86.9783 387.763 86.3485 393.585Z" fill="#018CC0"/>
<path d="M40.7682 388.786C37.1469 385.167 34.5491 380.84 32.1086 376.355C31.715 375.647 31.4001 375.097 32.5022 374.703C34.4703 373.995 36.3597 373.209 38.2491 372.501C39.3512 376.985 39.8235 381.627 41.0831 386.189C41.2406 386.819 42.264 388.078 40.7682 388.786Z" fill="#0189BF"/>
<path d="M83.5151 352.046C83.5151 349.922 83.2789 347.798 82.7278 345.752C82.413 344.651 82.8066 343.864 83.5938 343.549C85.0108 343.077 85.8768 341.976 87.0576 340.874C87.6874 344.1 88.2385 347.089 88.7896 350.158C87.0576 350.787 85.247 351.416 83.5151 352.046Z" fill="#8AFDE0"/>
<path d="M40.7677 388.786C39.9017 384.144 39.1145 379.424 38.1698 374.782C38.0124 373.995 38.0911 373.209 38.2485 372.501C38.4847 372.422 38.7209 372.343 38.957 372.265C39.9017 377.929 41.0039 383.593 42.4996 389.179C42.6571 389.73 42.8145 390.202 42.4209 390.752C41.8698 389.966 40.8464 389.73 40.7677 388.786Z" fill="#ABE4EE"/>
<path d="M88.2394 319.082C86.9011 325.769 86.7437 332.535 86.8224 339.301C83.7522 339.773 81.8628 337.964 80.1309 335.918C78.8713 333.558 77.6117 331.119 76.2734 328.759C77.3756 329.546 78.0054 328.68 78.6351 328.051C81.7841 324.983 84.7756 321.757 88.2394 319.082Z" fill="#38D9CF"/>
<path d="M97.7645 297.054C97.2134 295.245 98.2368 294.3 99.7326 293.671L99.8113 293.75C100.205 295.402 99.7326 296.661 97.9219 297.133L97.7645 297.054Z" fill="#03A3C3"/>
<path d="M154.839 330.096C155.075 330.175 155.312 330.175 155.548 330.254C155.154 333.086 151.769 335.839 148.463 335.997C143.109 336.233 139.095 333.479 135.473 330.018C132.954 327.579 131.144 324.668 129.175 321.836C128.546 320.97 128.309 319.476 126.656 319.79C127.05 318.768 128.231 318.846 128.861 318.217C130.356 319.476 130.986 321.364 132.088 322.858C134.765 326.713 137.992 329.939 141.929 332.378C145.392 334.502 148.935 334.659 152.478 332.456C153.501 332.299 153.973 331.512 154.367 330.647C154.524 330.411 154.682 330.254 154.839 330.096Z" fill="#341F5F"/>
<path d="M40.2164 360.385C36.2802 359.284 34.3121 355.901 31.793 353.147C34.5483 355.665 37.6185 357.71 40.2951 360.306L40.2164 360.385Z" fill="#2FC8D1"/>
<path d="M152.949 332.456C149.406 335.682 144.762 334.738 141.14 332.535C135.945 329.388 132.481 324.747 129.41 319.712C129.096 319.24 129.096 318.689 128.859 318.138C132.874 314.834 136.889 311.53 141.062 308.383C141.928 307.675 142.557 306.101 143.738 306.416C144.762 306.731 144.447 308.383 144.84 309.327C147.123 314.834 149.957 320.026 154.445 324.117C155.783 325.297 155.862 326.556 155.389 328.051C155.153 328.68 154.602 329.31 154.681 330.096H154.759C154.445 331.04 153.894 331.906 152.949 332.456Z" fill="#9B57FE"/>
<path d="M156.099 323.567C151.375 318.531 147.36 313.024 145.707 306.101C145.314 304.292 146.652 303.426 147.675 302.561C150.273 300.201 153.028 298.155 155.626 295.795C157.043 294.536 157.201 295.166 157.516 296.582C158.224 299.886 157.988 303.269 157.988 306.573C157.988 311.766 157.831 317.037 156.886 322.15C156.728 322.622 156.807 323.094 156.099 323.567Z" fill="#9A56FE"/>
<path d="M94.1422 331.591C92.7252 333.558 91.3082 335.525 89.8124 337.413C89.5763 337.727 89.3401 338.121 88.8677 337.885C88.4741 337.649 88.5528 337.255 88.4741 336.862C88.0805 332.22 88.7103 327.657 89.4975 323.173C89.7337 321.836 89.8124 320.498 89.9699 319.161C90.206 316.171 91.7805 314.204 94.2997 313.182C97.1337 312.002 99.6529 310.271 102.723 308.383C102.251 312.002 101.621 315.07 100.834 318.217C99.9678 321.678 97.9997 324.747 96.8976 328.129C96.8976 329.152 96.1103 329.31 95.4018 329.624C95.2444 329.703 95.1656 329.703 95.0869 329.782C94.772 330.411 94.6933 331.119 94.1422 331.591Z" fill="#38D8CF"/>
<path d="M99.2598 326.163C102.173 320.97 103.511 315.385 104.141 309.563C104.298 307.832 105.007 306.573 106.581 305.551C109.415 303.741 112.092 301.696 115.005 299.572C113.036 306.259 110.202 312.316 107.447 318.374C107.29 318.768 107.211 319.24 107.132 319.712C107.211 320.577 106.502 321.049 106.03 321.678C105.794 321.914 105.558 322.15 105.321 322.308C104.77 322.78 104.141 323.094 103.59 323.645C103.353 323.881 103.117 324.039 102.881 324.275C102.015 325.14 100.834 325.612 99.7321 326.241H99.4959L99.2598 326.163Z" fill="#39D8CF"/>
<path d="M105.006 321.836C105.163 321.678 105.321 321.6 105.478 321.442C107.21 321.6 107.289 321.678 107.761 324.196C109.257 323.409 110.753 322.858 112.485 323.567C113.036 323.803 114.138 323.409 113.823 322.78C112.485 320.105 115.319 319.318 116.185 319.161C118.704 318.61 118.625 317.194 118.31 315.385C118.389 315.07 118.94 314.991 118.782 314.755C118.468 314.362 118.153 314.913 117.838 314.991C116.736 314.755 115.082 315.778 114.689 313.654C116.106 312.395 117.523 311.136 118.94 309.878C119.097 309.878 119.334 309.878 119.491 309.956C119.097 310.743 119.334 310.9 120.121 310.9C124.057 310.9 128.072 310.9 132.087 311.372C129.174 313.103 127.914 317.194 123.742 316.643C123.663 316.643 123.585 316.643 123.427 316.565C123.112 316.643 122.561 315.542 122.482 316.801C122.246 317.587 122.955 317.981 123.27 318.531C121.144 320.813 118.231 322.072 116.027 324.196C115.634 324.589 115.004 324.983 114.531 324.904C110.044 324.432 105.714 325.848 101.227 325.769C101.148 325.376 101.306 324.983 101.621 325.061C103.116 325.455 102.251 324.117 102.644 323.724C102.802 323.567 102.959 323.488 103.116 323.33C103.904 323.094 104.848 323.016 105.006 321.836Z" fill="#675974"/>
<path d="M129.017 340.245C126.576 341.032 124.215 340.166 121.932 339.773C116.027 338.829 110.281 337.334 104.455 335.997C104.061 335.918 103.747 335.682 103.432 335.131C107.525 334.895 111.619 334.659 115.713 334.423C120.2 335.289 124.136 337.491 127.993 339.852C128.23 340.009 128.623 340.088 129.017 340.245Z" fill="#685975"/>
<path d="M147.202 349.45C146.887 350.315 146.572 350.63 144.604 350.394C137.991 349.45 131.221 348.899 124.766 347.011C124.53 346.932 124.215 346.775 123.979 346.303C128.702 345.909 133.425 345.516 138.149 345.123C141.219 346.381 143.896 348.584 147.202 349.45Z" fill="#675974"/>
<path d="M95.4023 329.546C95.8747 329.074 96.347 328.523 96.8981 328.051C97.5279 327.657 98.1577 327.185 98.8662 326.792C100.992 327.343 103.039 326.635 105.085 326.477C107.841 326.32 110.517 326.005 113.509 325.691C112.8 327.815 110.124 328.837 110.911 331.434C105.715 331.119 100.519 330.49 95.4023 329.546Z" fill="#675974"/>
<path d="M94.1429 331.591C93.9854 330.726 94.3003 330.175 95.0876 329.782C96.8195 331.434 99.1025 331.119 101.149 331.434C105.164 332.063 109.179 332.22 113.273 332.614C112.958 334.109 111.777 333.479 110.911 333.479C106.896 333.637 102.881 333.637 98.8663 334.423C97.7642 333.794 96.5833 333.243 95.4812 332.614C95.245 332.063 94.7727 331.67 94.1429 331.591Z" fill="#665873"/>
<path d="M123.271 318.61C122.484 318.217 120.437 318.374 122.327 316.722C122.799 316.329 123.271 316.407 123.744 316.722C125.082 317.745 123.98 318.138 123.271 318.61Z" fill="#695B76"/>
<path d="M133.819 342.605C131.693 342.448 129.568 342.369 127.6 341.661C129.646 342.054 132.008 340.324 133.819 342.605Z" fill="#312840"/>
<path d="M102.646 323.802C103.433 325.376 101.859 325.297 101.229 325.848C100.756 326.084 100.284 326.477 99.6543 326.241C100.678 325.455 101.622 324.589 102.646 323.802Z" fill="#695B76"/>
<path d="M72.2584 345.595C65.252 345.752 58.8754 343.707 52.6562 340.717C50.6881 339.773 48.9562 338.593 47.0668 337.57C45.886 336.941 45.4923 336.154 45.8072 334.895C46.5945 331.276 47.4604 327.579 48.0902 323.96C48.2477 322.937 48.4838 322.858 49.4285 323.173C56.0413 325.455 62.7328 325.927 69.5818 324.432C70.6052 324.196 71.4712 324.511 72.3371 325.612C76.1159 330.647 78.8712 336.075 80.7605 342.054C81.1542 343.392 80.8393 343.864 79.6584 344.336C77.1393 345.123 74.7775 345.595 72.2584 345.595Z" fill="#8CFEE0"/>
<path d="M70.053 323.016C63.2828 324.432 56.7487 324.275 50.3721 322.229C49.1913 321.836 48.6402 321.128 49.1913 319.869C49.9785 317.902 50.687 315.857 51.4742 313.89C51.7891 313.103 52.1828 312.946 53.1274 313.182C59.5041 314.991 65.1722 318.138 70.053 323.016Z" fill="#8CFEE0"/>
<path d="M97.9215 297.133C99.0237 296.267 99.4173 295.009 99.8109 293.75C100.283 293.278 100.834 292.806 101.464 292.176C102.802 296.661 103.275 301.066 103.039 305.551C103.039 305.865 102.724 306.337 102.487 306.573C98.8662 309.012 95.3237 311.372 91.5449 313.654C92.8832 309.012 94.5364 304.607 96.662 300.358C97.1343 299.335 97.9215 298.391 97.9215 297.133Z" fill="#8CFEE0"/>
<path d="M118.547 315.227C118.547 316.329 119.964 317.273 119.019 318.531C118.704 318.925 118.389 319.633 118.074 319.476C116.342 318.453 115.949 320.97 114.532 320.734C114.138 320.656 113.666 321.285 114.138 321.836C114.689 322.386 115.398 322.78 114.453 323.724C113.587 324.589 112.485 324.747 111.619 324.196C110.517 323.488 109.808 323.724 108.942 324.511C108.234 325.14 107.132 325.219 106.502 324.668C105.636 324.039 107.053 323.724 107.053 323.252C106.974 322.386 106.502 321.6 105.479 321.521C106.03 320.97 106.502 320.341 107.053 319.79C107.84 319.554 108.47 319.004 108.864 318.295C110.753 316.801 112.721 315.306 114.61 313.811C115.398 315.306 117.051 314.047 117.996 314.834C118.468 314.677 118.547 314.834 118.547 315.227Z" fill="#695B76"/>
<path d="M42.5001 311.058C43.9959 311.294 46.6725 311.608 49.2704 312.08C50.2938 312.238 50.7661 312.552 50.2151 313.811C49.3491 315.778 48.247 317.823 48.3257 320.026C48.3257 321.285 47.8533 320.97 47.2236 320.656C43.2874 318.767 40.6895 315.699 39.0363 311.766C38.6427 310.822 38.7214 310.743 42.5001 311.058Z" fill="#8BFDE0"/>
<path d="M80.1298 335.918C82.2553 337.177 84.2234 338.908 86.8213 339.301C86.0341 341.661 83.6724 341.661 81.783 343.235C81.783 340.402 79.8936 338.436 80.1298 335.918Z" fill="#8CFEE0"/>
<path d="M88.7895 341.268C89.4193 341.661 90.0491 341.976 90.6002 342.369C93.6704 344.572 93.3555 347.011 89.7342 348.82C89.4981 346.303 88.5534 343.864 88.7895 341.268Z" fill="#8AFCE0"/>
<path d="M106.896 303.269C108.471 300.516 111.305 299.257 113.509 297.211C114.69 296.11 115.556 294.536 117.052 293.75C116.894 295.559 116.028 296.975 114.454 297.998C111.935 299.729 109.652 301.774 106.896 303.269Z" fill="#3BD9CF"/>
<path d="M152.949 332.456C153.264 331.355 153.973 330.647 154.917 330.096C154.839 331.355 154.681 332.535 152.949 332.456Z" fill="#181225"/>
<path d="M105.007 321.836C105.321 323.488 104.692 324.117 103.117 323.409C103.747 322.937 104.377 322.386 105.007 321.836Z" fill="#695B76"/>
<path d="M118.548 315.227C118.39 315.07 118.233 314.913 118.075 314.834C118.075 314.519 117.524 313.89 118.233 314.047C119.02 314.205 119.886 314.519 120.437 315.306C119.65 315.935 119.099 315.07 118.548 315.227Z" fill="#181225"/>
<path d="M123.821 316.722C123.349 316.722 122.876 316.722 122.404 316.722C122.247 316.329 121.381 316.25 121.617 315.778C121.932 315.07 122.561 315.385 122.955 315.778C123.27 316.014 123.506 316.407 123.821 316.722Z" fill="#181225"/>
<rect x="167" y="52" width="212" height="25" rx="5" fill="#1A4D72"/>
<defs>
<clipPath id="clip0">
<rect width="24" height="39" fill="white" transform="translate(26.9297 123) rotate(11.7308)"/>
</clipPath>
<clipPath id="clip1">
<rect width="75" height="53" fill="white" transform="translate(387 90)"/>
</clipPath>
</defs>
</svg>
