<svg width="18" height="19" viewBox="0 0 18 19" fill="none" xmlns="http://www.w3.org/2000/svg">
<g clip-path="url(#clip0)">
<path d="M14.905 8.47604H14.5V7.19104C13.6723 7.07939 12.9055 6.69462 12.3213 6.09772C11.7371 5.50082 11.3688 4.72597 11.275 3.89604H10.5C10.4695 3.29326 10.2279 2.72043 9.81739 2.27796C9.40691 1.83548 8.8538 1.55159 8.255 1.47604C7.91296 1.44082 7.56734 1.47654 7.23973 1.58097C6.91213 1.68539 6.60958 1.85627 6.35102 2.08293C6.09245 2.30959 5.88342 2.58714 5.73699 2.89825C5.59056 3.20936 5.50988 3.54733 5.5 3.89104H2C1.73478 3.89104 1.48043 3.99639 1.29289 4.18393C1.10536 4.37147 1 4.62582 1 4.89104V8.97604H2.405C2.78973 8.96486 3.16509 9.09585 3.45933 9.34397C3.75357 9.59209 3.94606 9.93994 4 10.321C4.01946 10.5301 3.99481 10.741 3.92763 10.9399C3.86044 11.1389 3.75223 11.3215 3.61 11.476C3.47021 11.6323 3.2992 11.7576 3.10801 11.8437C2.91681 11.9298 2.70969 11.9749 2.5 11.976H1V16.391C1 16.6563 1.10536 16.9106 1.29289 17.0981C1.48043 17.2857 1.73478 17.391 2 17.391H13.5C13.7652 17.391 14.0196 17.2857 14.2071 17.0981C14.3946 16.9106 14.5 16.6563 14.5 16.391V13.476H15C15.3509 13.4779 15.6983 13.4058 16.0195 13.2645C16.3407 13.1233 16.6286 12.9159 16.8644 12.6561C17.1002 12.3962 17.2787 12.0896 17.3882 11.7562C17.4977 11.4228 17.5358 11.0701 17.5 10.721C17.419 10.0933 17.1096 9.51743 16.6309 9.10332C16.1523 8.68922 15.5378 8.46591 14.905 8.47604Z" fill="#020A13"/>
<path d="M15 5.97607C16.3807 5.97607 17.5 4.85679 17.5 3.47607C17.5 2.09536 16.3807 0.976074 15 0.976074C13.6193 0.976074 12.5 2.09536 12.5 3.47607C12.5 4.85679 13.6193 5.97607 15 5.97607Z" fill="#020A13"/>
</g>
<defs>
<clipPath id="clip0">
<rect width="18" height="18" fill="white" transform="translate(0 0.476074)"/>
</clipPath>
</defs>
</svg>
