<svg width="581" height="677" viewBox="0 0 581 677" fill="none" xmlns="http://www.w3.org/2000/svg">
<g clip-path="url(#clip0)">
<path d="M573.671 195.286C572.862 196.139 573.716 197.262 573.761 198.429C573.761 198.923 573.761 199.416 573.761 199.91C573.581 199.955 573.446 200 573.266 200.045C572.906 199.371 572.502 198.743 572.277 198.07C571.288 194.882 570.478 191.65 569.444 188.507C568.995 187.116 568.275 185.769 567.556 184.467C566.432 182.447 564.004 182.222 562.205 182.492C561.89 182.536 561.621 182.896 561.261 183.165C560.586 182.492 559.822 182.716 559.013 183.075C558.383 183.345 557.754 183.614 557.079 183.659C556.719 183.704 556.36 183.3 556 183.12C556.225 182.851 556.36 182.447 556.629 182.312C557.933 181.684 559.282 181.145 560.631 180.561C565.263 178.496 567.016 173.558 566.117 168.934C565.622 166.42 565.038 163.906 564.588 161.347C564.498 160.898 564.858 160.449 565.038 160C565.308 160.359 565.667 160.629 565.802 161.033C566.656 163.322 567.286 165.746 568.365 167.901C570.164 171.538 574.255 174.052 578.797 173.782C579.067 173.782 579.336 173.648 579.561 173.737C580.056 173.917 580.505 174.186 580.955 174.411C580.685 174.86 580.505 175.398 580.146 175.713C578.752 176.97 577.133 177.957 575.919 179.349C572.817 182.851 571.917 187.071 572.547 191.605C572.637 192.144 572.682 192.727 572.817 193.266C573.041 193.895 573.356 194.478 573.671 195.286ZM563.239 180.651C565.173 181.01 567.196 181.235 568.365 183.03C569.354 184.646 570.209 186.352 571.018 187.879C571.108 185.589 571.558 183.255 572.862 181.19C574.165 179.169 575.694 177.329 576.953 175.623C575.469 175.084 573.671 174.635 572.187 173.737C570.658 172.84 569.399 171.493 568.005 170.415C567.466 175.713 567.286 176.072 563.239 180.651Z" fill="black"/>
</g>
<path d="M450.5 18C433.667 11 407.083 -4.66308 377 5.50003C340 18.0001 319 86 291 96.5" stroke="#060606" stroke-width="4"/>
<g clip-path="url(#clip1)">
<path d="M234.771 615.1C236.056 614.84 236.118 618.063 236.087 618.735C236.056 619.437 237.159 619.437 237.174 618.735C237.22 617.162 236.852 613.557 234.464 614.046C233.806 614.183 234.097 615.237 234.771 615.1Z" fill="#020A13"/>
<path d="M243.91 616.398C245.67 616.337 247.415 616.108 249.13 615.741C249.819 615.589 249.528 614.55 248.839 614.687C247.216 615.039 245.563 615.237 243.91 615.298C243.221 615.344 243.206 616.429 243.91 616.398Z" fill="#020A13"/>
<path d="M256.155 615.527C257.64 615.818 258.88 616.551 259.86 617.696C260.319 618.231 261.084 617.452 260.625 616.932C259.538 615.65 258.084 614.794 256.446 614.474C255.757 614.336 255.466 615.39 256.155 615.527Z" fill="#020A13"/>
<path d="M267.176 618.185C267.452 616.81 268.492 615.772 269.87 615.512C270.559 615.375 270.268 614.321 269.579 614.458C267.85 614.794 266.472 616.184 266.12 617.895C265.982 618.582 267.038 618.872 267.176 618.185Z" fill="#020A13"/>
<path d="M278.442 615.97C280.555 615.436 282.683 615.283 284.856 615.512C285.56 615.588 285.545 614.489 284.856 614.428C282.606 614.199 280.356 614.367 278.152 614.932C277.478 615.084 277.754 616.138 278.442 615.97Z" fill="#020A13"/>
<path d="M290.934 615.39C291.531 617.268 289.571 618.399 288.194 619.147C287.581 619.483 288.132 620.43 288.745 620.094C290.582 619.101 292.755 617.498 291.99 615.115C291.776 614.443 290.719 614.718 290.934 615.39Z" fill="#020A13"/>
<path d="M294.929 619.865C294.485 621.254 293.812 622.507 292.863 623.622C292.403 624.156 293.184 624.92 293.628 624.385C294.699 623.133 295.48 621.728 295.985 620.155C296.184 619.498 295.128 619.208 294.929 619.865Z" fill="#020A13"/>
<path d="M292.235 632.068C293.153 632.495 293.949 633.106 294.561 633.9C294.99 634.45 295.924 633.9 295.51 633.351C294.776 632.404 293.888 631.64 292.786 631.121C292.158 630.831 291.592 631.778 292.235 632.068Z" fill="#020A13"/>
<path d="M294.607 639.49C294.255 640.926 293.52 642.163 292.433 643.186C291.928 643.675 292.693 644.439 293.198 643.95C294.408 642.805 295.25 641.384 295.648 639.765C295.831 639.093 294.775 638.803 294.607 639.49Z" fill="#020A13"/>
<path d="M292.004 649.891C292.708 651.021 293.183 652.243 293.413 653.556C293.535 654.244 294.591 653.953 294.469 653.266C294.224 651.861 293.703 650.548 292.953 649.341C292.571 648.745 291.622 649.295 292.004 649.891Z" fill="#020A13"/>
<path d="M295.496 662.033C294.057 661.101 292.603 660.185 291.164 659.253C290.567 658.871 290.016 659.818 290.613 660.2C292.051 661.132 293.506 662.048 294.945 662.98C295.542 663.346 296.093 662.399 295.496 662.033Z" fill="#020A13"/>
<path d="M293.229 665.927C292.326 667.073 291.178 667.959 289.8 668.463C289.142 668.707 289.433 669.761 290.091 669.517C291.637 668.951 292.984 668.005 294.01 666.706C294.423 666.157 293.658 665.378 293.229 665.927Z" fill="#020A13"/>
<path d="M293.537 674.358C293.827 674.969 294.011 675.625 294.057 676.297C294.118 676.985 295.205 677 295.144 676.297C295.083 675.427 294.853 674.602 294.47 673.808C294.18 673.167 293.23 673.732 293.537 674.358Z" fill="#020A13"/>
<path d="M288.621 675.091C287.396 673.304 286.064 671.593 284.656 669.944C284.197 669.409 283.431 670.188 283.891 670.708C285.253 672.281 286.508 673.915 287.687 675.625C288.07 676.221 289.019 675.671 288.621 675.091Z" fill="#020A13"/>
<path d="M281.092 673.625C279.775 674.083 278.428 674.495 277.066 674.847C276.392 675.015 276.668 676.068 277.357 675.9C278.719 675.549 280.051 675.152 281.382 674.679C282.041 674.45 281.75 673.396 281.092 673.625Z" fill="#020A13"/>
<path d="M269.365 673.197C269.548 671.746 269.732 670.295 269.931 668.844C270.023 668.157 268.921 668.157 268.844 668.844C268.661 670.295 268.477 671.746 268.278 673.197C268.186 673.884 269.273 673.884 269.365 673.197Z" fill="#020A13"/>
<path d="M262.37 673.136C263.304 674.175 264.084 675.32 264.712 676.573C265.033 677.199 265.967 676.649 265.661 676.023C264.988 674.694 264.146 673.472 263.151 672.357C262.661 671.838 261.895 672.617 262.37 673.136Z" fill="#020A13"/>
<path d="M257.349 675.931C256.308 675.717 255.497 674.984 255.221 673.961C255.037 673.289 253.996 673.564 254.165 674.251C254.532 675.626 255.65 676.71 257.058 676.985C257.747 677.122 258.038 676.069 257.349 675.931Z" fill="#020A13"/>
<path d="M245.883 675.793C247.996 675.457 249.817 674.22 250.935 672.388C251.302 671.792 250.353 671.242 249.985 671.838C249.006 673.441 247.429 674.449 245.577 674.74C244.903 674.847 245.194 675.9 245.883 675.793Z" fill="#020A13"/>
<path d="M238.995 675.198C238.995 674.114 238.995 673.014 238.995 671.929C238.995 671.227 237.908 671.227 237.908 671.929C237.908 673.014 237.908 674.114 237.908 675.198C237.908 675.9 238.995 675.9 238.995 675.198Z" fill="#020A13"/>
<path d="M233.026 672.525C234.082 670.876 235.246 669.303 236.501 667.806C236.945 667.271 236.179 666.493 235.735 667.042C234.419 668.615 233.194 670.265 232.092 671.991C231.71 672.571 232.659 673.106 233.026 672.525Z" fill="#020A13"/>
<path d="M234.174 660.78C235.23 661.452 236.378 661.956 237.572 662.308C238.246 662.506 238.537 661.452 237.863 661.254C236.746 660.918 235.705 660.46 234.725 659.833C234.128 659.467 233.577 660.414 234.174 660.78Z" fill="#020A13"/>
<path d="M241.46 668.218C242.057 668.646 242.532 669.211 242.884 669.852C243.221 670.463 244.17 669.913 243.833 669.303C243.389 668.493 242.761 667.821 242.011 667.271C241.766 667.103 241.399 667.225 241.261 667.47C241.108 667.745 241.231 668.05 241.46 668.218Z" fill="#020A13"/>
<path d="M235.842 655.13C235.154 653.908 234.633 652.625 234.25 651.266C234.067 650.594 233.011 650.884 233.194 651.556C233.592 652.991 234.159 654.366 234.893 655.679C235.245 656.29 236.179 655.741 235.842 655.13Z" fill="#020A13"/>
<path d="M236.271 646.684C237.481 646.775 238.675 646.714 239.884 646.516C240.573 646.409 240.282 645.355 239.593 645.462C238.491 645.645 237.389 645.676 236.271 645.584C235.567 645.538 235.567 646.623 236.271 646.684Z" fill="#020A13"/>
<path d="M238.016 642.056C237.19 640.895 236.348 639.735 235.521 638.574C235.123 638.009 234.174 638.559 234.572 639.124C235.399 640.284 236.241 641.445 237.067 642.606C237.48 643.186 238.43 642.636 238.016 642.056Z" fill="#020A13"/>
<path d="M233.76 632.526C234.357 631.732 235.107 631.075 235.933 630.541C236.53 630.159 235.979 629.227 235.382 629.594C234.372 630.235 233.53 631.029 232.811 631.961C232.382 632.541 233.331 633.076 233.76 632.526Z" fill="#020A13"/>
<path d="M234.342 624.126C235.322 624.538 236.21 625.103 236.99 625.821C237.511 626.295 238.276 625.531 237.756 625.058C236.898 624.279 235.949 623.652 234.893 623.194C234.266 622.904 233.699 623.851 234.342 624.126Z" fill="#020A13"/>
<path d="M242.792 623.057C243.159 622.11 244.246 621.591 245.211 621.835C245.899 622.003 246.19 620.949 245.501 620.781C243.909 620.384 242.317 621.255 241.736 622.767C241.491 623.423 242.547 623.698 242.792 623.057Z" fill="#020A13"/>
<path d="M254.134 621.682C253.935 622.599 253.567 623.439 252.986 624.172C252.557 624.722 253.322 625.485 253.751 624.935C254.455 624.05 254.945 623.072 255.175 621.972C255.343 621.285 254.287 620.995 254.134 621.682Z" fill="#020A13"/>
<path d="M261.574 626.035C263.227 625.852 264.789 625.332 266.212 624.477C266.809 624.111 266.258 623.164 265.661 623.53C264.406 624.294 263.044 624.783 261.574 624.951C260.885 625.027 260.87 626.111 261.574 626.035Z" fill="#020A13"/>
<path d="M273.575 622.217C274.907 622.064 276.239 621.927 277.57 621.774C278.259 621.698 278.275 620.613 277.57 620.69C276.239 620.842 274.907 620.98 273.575 621.133C272.886 621.194 272.886 622.293 273.575 622.217Z" fill="#020A13"/>
<path d="M280.401 622.446C281.029 623.805 281.901 625.012 282.988 626.035C283.493 626.524 284.274 625.745 283.753 625.271C282.728 624.309 281.917 623.179 281.335 621.896C281.044 621.27 280.11 621.82 280.401 622.446Z" fill="#020A13"/>
<path d="M287.764 627.99C287.657 629.303 287.167 630.479 286.386 631.533C285.973 632.098 286.907 632.633 287.335 632.083C288.239 630.876 288.728 629.487 288.866 627.99C288.912 627.287 287.825 627.303 287.764 627.99Z" fill="#020A13"/>
<path d="M289.877 636.161C289.908 637.047 289.602 637.841 288.989 638.467C288.5 638.971 289.265 639.735 289.755 639.231C290.566 638.406 291.01 637.306 290.964 636.146C290.949 635.458 289.847 635.458 289.877 636.161Z" fill="#020A13"/>
<path d="M284.657 644.897C285.805 645.874 286.724 647.066 287.306 648.455C287.581 649.097 288.637 648.807 288.362 648.165C287.704 646.592 286.739 645.233 285.438 644.133C284.902 643.675 284.122 644.439 284.657 644.897Z" fill="#020A13"/>
<path d="M286.126 653.587C286.234 654.595 286.126 655.572 285.805 656.534C285.575 657.191 286.632 657.481 286.861 656.825C287.229 655.786 287.351 654.686 287.228 653.587C287.137 652.9 286.05 652.9 286.126 653.587Z" fill="#020A13"/>
<path d="M283.48 664.721C285.164 665.301 287.047 664.797 288.21 663.468C288.669 662.934 287.904 662.17 287.445 662.705C286.511 663.774 285.118 664.156 283.786 663.682C283.113 663.438 282.822 664.492 283.48 664.721Z" fill="#020A13"/>
<path d="M278.902 665.973C278.764 666.523 277.509 666.828 277.05 667.027C276.33 667.332 275.626 667.653 274.907 667.959C274.264 668.234 274.815 669.18 275.458 668.906C276.468 668.463 277.494 668.02 278.504 667.577C279.147 667.287 279.744 667.012 279.943 666.279C280.127 665.576 279.086 665.286 278.902 665.973Z" fill="#020A13"/>
<path d="M280.892 659.742C281.061 658.78 281.107 657.833 281.015 656.871C280.953 656.183 279.851 656.168 279.928 656.871C280.004 657.741 279.989 658.597 279.836 659.452C279.714 660.139 280.77 660.429 280.892 659.742Z" fill="#020A13"/>
<path d="M279.729 647.035C280.28 648.455 279.867 650.089 278.596 650.975C278.03 651.372 278.566 652.319 279.147 651.922C280.785 650.761 281.52 648.654 280.785 646.745C280.54 646.103 279.484 646.378 279.729 647.035Z" fill="#020A13"/>
<path d="M281.918 634.878C282.347 636.176 282.209 637.459 281.505 638.635C281.138 639.231 282.087 639.78 282.454 639.185C283.296 637.78 283.495 636.145 282.974 634.588C282.745 633.916 281.689 634.206 281.918 634.878Z" fill="#020A13"/>
<path d="M278.856 630.54C278.902 629.426 278.688 628.372 278.229 627.364C277.938 626.722 277.004 627.272 277.28 627.914C277.647 628.754 277.8 629.639 277.754 630.54C277.724 631.243 278.826 631.228 278.856 630.54Z" fill="#020A13"/>
<path d="M270.819 626.493C270.283 627.348 269.258 627.791 268.278 627.577C267.589 627.44 267.299 628.494 267.987 628.631C269.472 628.937 270.957 628.326 271.768 627.043C272.151 626.462 271.202 625.913 270.819 626.493Z" fill="#020A13"/>
<path d="M253.921 629.441C254.763 630.128 255.742 630.495 256.829 630.541C257.533 630.556 257.533 629.471 256.829 629.456C256.049 629.426 255.299 629.181 254.686 628.677C254.15 628.234 253.37 628.998 253.921 629.441Z" fill="#020A13"/>
<path d="M247.43 627.547C246.098 627.975 244.751 628.112 243.358 627.959C242.654 627.883 242.669 628.983 243.358 629.044C244.843 629.196 246.297 629.044 247.721 628.586C248.394 628.387 248.104 627.333 247.43 627.547Z" fill="#020A13"/>
<path d="M240.374 633.198C240.496 633.961 240.19 634.771 239.578 635.244C239.027 635.672 239.578 636.619 240.129 636.191C241.17 635.397 241.644 634.206 241.43 632.908C241.323 632.22 240.267 632.51 240.374 633.198Z" fill="#020A13"/>
<path d="M244.828 639.979C244.828 641.369 244.828 642.759 244.828 644.149C244.828 644.851 245.915 644.851 245.915 644.149C245.915 642.759 245.915 641.369 245.915 639.979C245.915 639.277 244.828 639.277 244.828 639.979Z" fill="#020A13"/>
<path d="M241.429 651.281C241.261 651.861 241.108 652.441 240.939 653.022C240.863 653.312 240.695 654.427 240.281 654.488C239.592 654.58 239.592 655.664 240.281 655.572C241.001 655.481 241.399 655.068 241.659 654.412C242.026 653.511 242.225 652.518 242.486 651.571C242.669 650.899 241.613 650.609 241.429 651.281Z" fill="#020A13"/>
<path d="M243.205 659.406C243.205 660.872 243.373 662.308 243.695 663.743C243.848 664.431 244.904 664.14 244.751 663.453C244.445 662.124 244.292 660.78 244.292 659.406C244.292 658.703 243.205 658.703 243.205 659.406Z" fill="#020A13"/>
<path d="M249.834 666.126C251.242 666.676 252.39 667.806 252.956 669.211C253.217 669.852 254.273 669.578 254.013 668.921C253.293 667.134 251.931 665.79 250.125 665.072C249.466 664.812 249.191 665.866 249.834 666.126Z" fill="#020A13"/>
<path d="M257.885 666.294C259.278 665.729 260.656 665.164 262.048 664.599C262.691 664.339 262.416 663.285 261.758 663.545C260.365 664.11 258.987 664.675 257.594 665.24C256.951 665.5 257.242 666.554 257.885 666.294Z" fill="#020A13"/>
<path d="M270.208 659.665C269.412 660.093 268.631 660.505 267.835 660.933C267.223 661.269 267.774 662.201 268.386 661.88C269.182 661.452 269.963 661.04 270.759 660.612C271.387 660.276 270.835 659.329 270.208 659.665Z" fill="#020A13"/>
<path d="M274.877 661.575C274.815 660.353 274.601 659.161 274.249 657.985C274.05 657.313 272.994 657.604 273.193 658.276C273.514 659.36 273.713 660.444 273.774 661.575C273.82 662.277 274.907 662.277 274.877 661.575Z" fill="#020A13"/>
<path d="M271.799 653.373C273.881 653.877 273.973 650.105 273.957 648.868C273.942 648.165 272.855 648.165 272.87 648.868C272.886 649.25 272.763 652.487 272.105 652.319C271.401 652.167 271.11 653.221 271.799 653.373Z" fill="#020A13"/>
<path d="M274.279 642.346C274.891 642.209 275.504 642.285 276.055 642.575C276.682 642.896 277.233 641.965 276.606 641.629C275.779 641.201 274.891 641.079 273.988 641.293C273.299 641.461 273.59 642.499 274.279 642.346Z" fill="#020A13"/>
<path d="M276.545 636.817C275.183 635.764 274.157 634.359 273.591 632.74C273.361 632.083 272.305 632.373 272.534 633.03C273.223 634.939 274.387 636.527 275.994 637.764C276.56 638.192 277.096 637.245 276.545 636.817Z" fill="#020A13"/>
<path d="M267.161 635.306C265.722 634.786 264.467 633.962 263.41 632.877C262.921 632.373 262.14 633.152 262.645 633.641C263.839 634.863 265.263 635.764 266.885 636.359C267.528 636.589 267.819 635.55 267.161 635.306Z" fill="#020A13"/>
<path d="M248.839 634.588C249.956 634.878 250.813 635.718 251.104 636.833C251.288 637.505 252.329 637.23 252.16 636.543C251.778 635.061 250.614 633.916 249.129 633.534C248.456 633.366 248.165 634.42 248.839 634.588Z" fill="#020A13"/>
<path d="M248.639 648.868C249.512 648.883 249.925 648.18 250.247 647.463C250.706 646.394 251.027 645.279 251.211 644.118C251.318 643.431 250.277 643.14 250.155 643.828C250.048 644.5 249.895 645.141 249.696 645.798C249.573 646.21 249.19 647.783 248.624 647.783C247.935 647.768 247.935 648.868 248.639 648.868Z" fill="#020A13"/>
<path d="M247.49 654.198C248.393 655.191 248.837 656.428 248.822 657.772C248.807 658.474 249.893 658.474 249.909 657.772C249.939 656.138 249.358 654.626 248.256 653.419C247.796 652.9 247.031 653.679 247.49 654.198Z" fill="#020A13"/>
<path d="M253.201 660.994C254.319 661.116 255.314 661.559 256.186 662.231C256.737 662.659 257.288 661.712 256.737 661.284C255.696 660.49 254.502 660.032 253.201 659.895C252.497 659.833 252.512 660.933 253.201 660.994Z" fill="#020A13"/>
<path d="M261.971 656.473C262.231 655.175 262.997 654.106 264.175 653.465C264.788 653.129 264.237 652.182 263.624 652.518C262.231 653.281 261.236 654.625 260.93 656.183C260.777 656.871 261.833 657.161 261.971 656.473Z" fill="#020A13"/>
<path d="M269.059 645.416C268.936 643.797 268.508 642.27 267.788 640.819C267.482 640.193 266.533 640.743 266.839 641.369C267.467 642.652 267.85 643.996 267.957 645.416C268.033 646.119 269.12 646.119 269.059 645.416Z" fill="#020A13"/>
<path d="M261.298 638.589C260.303 638.039 259.369 637.413 258.497 636.68C257.961 636.237 257.18 637.001 257.731 637.444C258.68 638.223 259.675 638.925 260.747 639.521C261.359 639.872 261.91 638.925 261.298 638.589Z" fill="#020A13"/>
<path d="M255.191 640.85C255.497 642.133 256.308 643.232 257.456 643.904C258.069 644.256 258.62 643.324 258.007 642.957C257.104 642.423 256.492 641.583 256.247 640.56C256.094 639.888 255.038 640.162 255.191 640.85Z" fill="#020A13"/>
<path d="M263.38 643.935C263.778 645.263 263.564 646.577 262.783 647.722C262.385 648.303 263.334 648.852 263.732 648.272C264.681 646.913 264.926 645.233 264.452 643.644C264.237 642.988 263.181 643.263 263.38 643.935Z" fill="#020A13"/>
<path d="M253.323 651.418C254.64 650.838 255.696 649.845 256.385 648.593C256.721 647.982 255.788 647.432 255.435 648.043C254.823 649.143 253.905 649.967 252.757 650.471C252.129 650.762 252.68 651.708 253.323 651.418Z" fill="#020A13"/>
<path d="M258.054 652.503C258.008 653.358 257.641 654.091 256.998 654.656C256.478 655.13 257.243 655.893 257.763 655.42C258.605 654.656 259.08 653.618 259.126 652.487C259.172 651.8 258.085 651.815 258.054 652.503Z" fill="#020A13"/>
</g>
<g clip-path="url(#clip2)">
<path d="M504.2 410.2C512.9 433.6 520.8 457.2 528.4 480.9C532.3 493.1 535.7 505.4 539.8 517.5C541.9 523.6 540.5 528.8 538 534.3C536.7 537.2 534.5 539.6 533.8 542.7C529.6 540.3 527.6 536.5 526.7 531.9C527.4 530.5 528.8 529.8 529.9 528.8C533.5 525.5 534.5 521.9 532.8 518.2C531.1 514.4 528.2 512.3 523.9 512.4C519.9 512.5 516.3 515.1 514.8 518.9C514.3 520.3 514.3 521.8 513.7 523.2C510.4 527.3 508.7 532.1 507.4 537.2C506.4 541.2 505.2 541.5 502.1 538.8C495.5 533.1 491.4 533.8 487 541.3C484.4 545.7 483.6 545.7 480.5 541.6C474.8 533.9 467.9 527.5 459.6 522.8C469.3 528.6 477.3 536 483 545.8C484.1 547.7 485.2 549.6 485.2 551.8C485.3 559.7 487.5 567.2 490 574.6C490.6 576.3 491.5 578 490.2 579.8C476.4 586.4 462.3 592.4 447.4 596.2C424.8 602 402 604.5 378.8 600.1C374.6 599.3 371.8 597.7 370 593.4C362.9 576.5 355.5 559.8 348.2 543C347.7 541.8 347.1 540.7 345.9 538.3C343.8 546.7 341.9 554 340 561.2C336 576.6 330.9 591.8 326.5 607.1C321.7 623.8 309.5 628.1 294.7 630.2C268.2 634.1 250.8 620.1 236 601C217.7 577.4 204.7 550.8 191.2 524.4C187.8 517.8 182.8 511.9 182.5 504C182.5 503 182.4 502 182.4 501C196.1 484.8 212.3 472.6 233.7 468.6C235.8 468.9 237.4 470.1 238.6 471.8C242.8 478 247.7 483.7 253.1 488.9C254.1 489.9 255.2 491 255.1 491.9C252.4 467.5 258.1 443.9 267.8 420.9C268.2 418.8 266.6 419.6 265.6 419.4C263.8 419.1 261.6 420 260.3 417.8C269.8 419.1 274.3 413.4 277.6 405.7C278.9 402.6 281.8 400.1 282.2 396.5C284.5 398.5 286.5 398 288.8 396.2C294.6 391.7 300.7 387.6 306.7 383.5C310.1 381.2 311 377.7 312 374.2C313.9 367.9 314.6 367.5 320.3 370C323.2 371.3 325.3 370.7 327.7 369.1C348.8 354.5 370 340.1 391.1 325.6C400.8 319 410.6 312.4 420.6 305.3C414 305.7 408.1 304.7 402.3 303.3C400.5 302.8 398.2 302.8 397.5 300.3C405 294.5 408.2 286 411.8 277.7C414.4 272.1 417 266.6 419.1 260.7C421.9 252.9 421.6 252.1 414.8 247.6C399.3 237.2 383.1 228 367 218.6C355.8 212 344.8 205.2 333.9 198.1C331.7 196.6 329.6 195 327.4 193.5C320.5 188.6 315.8 182.6 316.5 173.5C316.6 172.2 316.1 170.9 315.8 169.6C314.8 160 316 150.7 319.1 141.6C324 127.3 335.3 118.8 350.5 117.9C359.3 117.5 366.7 121.5 374.3 125.1C375.2 125.6 376 126 376.9 126.5C378.3 127.5 379.9 127.9 381.3 128.8C392.8 135.8 402.9 144.9 415.2 150.7C421.2 153.5 427.6 155.4 433.7 158C434.8 158.5 435.7 159.2 436.5 160.2C449.8 164.1 460 172.9 469.8 182.2C480.8 192.5 492.4 202.3 502.6 213.5C511.9 223.7 515.8 235.9 517.7 249.1C519.1 258.9 518.5 268.7 518.6 278.4C520.1 285.1 518.3 291.6 517.4 298.1C514.4 320.3 508.8 342.1 504.2 364C502.5 372 501.1 380 500.3 388.1C499.7 393.8 500.2 399.4 502.6 404.7C503.7 406.3 504.9 408 504.2 410.2Z" fill="#FE0E11"/>
<path d="M398.1 300.4C406.1 303.5 414.5 304.3 423 304.4C423.3 306.1 421.8 306.3 421 306.9C389.9 328.2 358.7 349.5 327.7 370.9C324 373.4 321.5 371.8 318.7 370.3C316 368.9 314.4 369 314.1 372.5C313.5 379.8 309.1 384.2 303.1 387.9C296.6 391.9 290.5 396.5 284.2 401C282.5 399.8 283.7 397.7 282.5 396.5C281.4 389.7 280.3 382.9 281.5 376.1C281.8 374.6 281.7 372.9 282.4 371.7C288.1 363 284.4 354 283.3 345.1C280.3 338 284.9 327.3 292.9 322.5C294.6 321.8 296.5 322 298.3 321.8C304.1 321.1 309.3 316.3 310.3 310.8C311.3 305.3 308.6 299.6 303.5 297.1C297.9 294.2 292.4 295.3 287.7 300.1C286.1 301.7 285.2 304.1 282.6 304.7C281.2 304.7 279.9 304.4 278.8 303.7C272.5 300 265.9 299.3 258.8 300.6C253.4 301.6 248 301.4 242.6 302.1C240.6 303 236.7 301.6 236.6 303.8C236.5 307 240.5 305.3 242.5 306.1C243.1 306.3 243.7 306.5 244.3 306.9C245.2 312 240.5 309.4 238.9 310.9C238.6 313.8 241.1 314.3 242.9 315.4C244.2 316.3 247.1 315.7 246.1 318.8C240.9 319.8 237.3 317.3 235.1 313C233.7 310.3 232 309.7 229.2 309.8C214.4 310.3 199.6 310.6 184.8 311.2C181.3 311.3 179.8 310.9 180.1 306.8C181.3 286.2 182.2 265.7 183.2 245.1C184 244.5 184.8 244.5 185.6 245.2C187.4 248.8 186.7 252.7 186.4 256.5C185.3 272.3 184.9 288.1 184.3 303.8C184.2 306.1 185.1 307.6 187.4 307.3C200 305.5 212.7 307.5 225.3 306C229.6 305.5 230.8 303.7 230.9 299.6C231 291.7 233.2 284.7 241.7 281.7C243.4 281.1 244 279.8 243.8 278.2C241.8 256.7 261.2 240.1 280.9 234.6C283.1 234 285.4 233.5 287.7 232.8C289.7 232.1 290.7 230.8 290.5 228.7C290.3 226.3 288.6 225.8 286.7 225.6C285 225.5 283.4 225.5 281.7 225.5C254.2 225.5 226.8 225.5 199.3 225.5C197 225.5 194.6 225.7 192.4 225C186.8 219.8 184.9 212.6 182.8 205.7C181.7 202 185.4 201.6 188.1 201.9C196 202.7 204 203.2 211.9 204.1C218.3 204.9 224.8 205.1 231.2 206.4C233.5 207.1 235.9 207.4 237.5 207.5C236.5 207.7 234.8 206.9 233 206.8C220.4 203.8 207.9 200.1 195.4 196.6C186.3 194 186 193.4 191 185.2C194 180.3 195.7 174.5 201 171.1C202.9 170.5 205 170.6 206.9 170.6C233.6 170.6 260.2 170.6 286.9 170.6C295.1 170.6 295.8 171.3 295.8 179.4C295.8 194.9 295.8 210.4 295.8 225.9C295.8 232 296.3 232.4 302.3 232.6C315.3 233.2 325.8 238.2 332.7 249.7C336.6 256.3 342.4 260.1 349.9 261.3C351.9 261.6 353.8 262 355.8 262.3C364.8 263.5 371.2 268.2 374.7 276.7C378.4 287.6 384.9 295.6 396.4 298.8C397 299.1 397.7 299.6 398.1 300.4Z" fill="black"/>
<path d="M233.1 469.2C216.5 473.3 203 482.6 190.3 493.7C187.6 496.1 186.2 499.8 182.4 501C175.2 496.8 166.9 496.2 159.1 494.3C153.3 492.9 147.4 491.7 142.2 488.6C137.4 485.7 133.3 482.2 132.8 476C132.6 472.8 129.6 471.6 127.3 470.1C126.4 470 125.2 470.2 125.3 468.7C119.5 456.3 114.3 443.6 111.7 430.2C109.8 420.6 110.3 410.9 116.6 402.6C117.2 401.8 117.8 401 118.5 400.3C120.7 398.3 122.8 395.4 126.1 396.7C129.4 398 128.9 401.6 128.9 404.6C128.9 420.4 136.8 429.5 151.9 431.1C152.9 431 152.9 428.6 154.6 429.8C154.9 430.4 155 431.3 155.5 431.5C160 433.5 172.2 430.2 175.5 426.3C177.5 424 176.3 422.3 174.8 420.7C171.2 416.8 166.5 414.7 161.9 412.3C158.9 410.7 156.2 408.9 154.6 405.8C151.6 399.9 154 395.1 160.6 394.3C165.7 393.7 170.5 395.1 175.3 396.7C183.1 399.3 190.4 402.9 197.6 406.7C201.3 408.7 203.8 411.8 205.7 415.3C207.1 417.8 208.9 418.6 211.8 418.6C222.3 418.4 232.8 418.5 243.2 418.5C242.9 421.6 240.4 420.5 238.9 420.5C231.7 420.7 224.5 420.5 217.2 420.6C215.5 420.6 213.6 420 212 421.4C212.8 425.8 215.8 429.1 217.8 432.8C223.5 443.1 228.4 453.8 232.4 464.9C233.2 466.3 234 467.7 233.1 469.2Z" fill="#FFE3B5"/>
<path d="M154.3 224.3C107.3 224.3 60.2998 224.3 13.3998 224.1C9.49983 224.1 9.59983 226 9.49983 228.7C8.39983 260.3 7.29983 292 6.19983 323.6C4.99983 356.6 3.89983 389.5 2.39983 422.5C2.19983 426.7 3.49983 427.3 7.29983 427.2C35.2998 426.1 63.1998 425.1 91.1998 424.2C93.0998 424.1 95.1998 423.6 97.0998 424.6C97.1998 426.9 95.3998 426.3 94.2998 426.3C64.1998 427.4 33.9998 428.4 3.89983 429.6C-0.700167 429.8 0.0998327 427.3 0.199833 424.7C1.69983 379 3.39983 333.4 4.99983 287.8C6.29983 250.7 7.79983 213.6 8.89983 176.4C8.99983 172.6 10.4998 172.3 13.6998 172.3C36.6998 172.4 59.6998 172.4 82.6998 172.4C84.4998 172.4 86.3998 172.3 88.1998 172.2C89.1998 171.3 90.3998 171 91.6998 170.9C108.4 170.6 125.1 170.5 141.8 171C143.3 171.2 144.7 171.9 145.6 173.1C150.1 179.1 154.3 185.3 158 191.8C159.8 194.9 157.9 196.9 155.2 198.1C143.7 203.2 132.6 209 122.4 213.3C131.9 210.7 143.2 209.6 154.3 208C155.8 207.8 157.3 207.9 158 209.7C159 212.3 156.7 221.8 154.3 224.3Z" fill="black"/>
<path d="M351.2 119C332 121 320.2 133.2 318 152.6C317.4 158.4 317.3 164.2 317 169.9C315.9 171.5 314.1 171.4 312.5 171.3C300.8 170.3 289.7 167.2 278.8 163.1C268.1 159.1 262.3 150.8 257.3 141.4C255.3 137.6 253.4 133.7 251.5 129.8C251.1 128.9 250.7 128 250.3 127C249.5 124 248.9 120.9 247.8 118C252.3 113.7 258 111.4 263.9 109.8C268.5 115.1 272.3 121.1 276.1 127C276.7 127.8 277.8 127.6 278.4 127.9C277.9 127.2 276.2 127.9 276 126.3C276.4 125.7 276.9 125.3 277.5 125.1C284 123.2 286 120.4 285.3 113.4C284.9 109.5 284.5 105.5 283 101.7C282.6 100.2 282.1 98.8 281.5 97.4C276 88 268 83.5 257 84.8C253.5 85.2 249.7 86 247.6 82.2C245.6 78.5 248.1 75.6 250.1 72.7C250.8 71.6 251.9 70.7 252.9 69.9C254.6 68.5 256.6 67.8 258.7 67.3C271.5 62.1 284.3 63.4 297.2 67.2C301.4 68.5 305.5 70.2 310.1 70.2C315 70.2 318 74.7 322.4 76.3C324.5 76.9 325.9 78.6 327.4 80.1C340.2 82.4 345.2 92 349 102.9C349.6 103.8 350.5 104.6 350.8 105.7C351.8 110.2 353.8 114.6 351.2 119Z" fill="#FFE3B5"/>
<path d="M504.2 410.2C497.3 399.9 498.6 388.6 500.6 377.4C505.3 350.5 512.7 324 516.6 296.9C517.5 290.7 518.2 284.4 519 278.2C522.8 278.2 526.7 278.3 530.5 278.1C534 277.9 535.1 279.5 535.1 282.9C535 323.7 535 364.5 535.1 405.2C535.1 407.8 534.5 409.2 531.5 409.2C522.4 409.1 513.3 408.8 504.2 410.2Z" fill="#D0E9FE"/>
<path d="M154.3 224.3C155.9 220.2 156.1 215.9 157.1 211.7C157.8 208.9 156.5 208.7 154.2 209.1C142.2 211 130.2 212.9 118.1 214.8C118.9 212.9 120.7 212.8 122 212.2C132.8 207.1 143.6 201.9 154.6 197.1C158.5 195.4 158.6 193.9 156.2 190.7C151.7 184.7 147.7 178.4 143.5 172.2C137.2 166.1 133.4 158.3 128.6 151.2C128 150.3 127.4 149 128.7 148.1C129.9 147.3 131 148.1 131.8 148.9C135.7 152.7 139.9 156.3 144 159.9C148.5 163.8 152.8 168 157.5 171.7C159.6 173.3 161.2 175.3 163.2 177.1C163.3 177.8 164.2 176.7 163.7 177.1C162.5 175.3 163.2 173.3 162.9 171.5C164.1 164.6 163.7 157.6 163.9 150.7C164 148.4 164.1 145.1 166.4 144.7C169.1 144.2 169.5 147.6 170.3 149.6C173.2 156.8 175.4 164.3 178.6 171.4C179.4 174.1 180.1 176.8 181.2 179.6C184.7 177.4 187.8 174.6 190.9 171.8C194.3 169.7 197.5 167.3 200.6 164.8C201.9 163.8 203.3 162.1 204.9 163.5C206.3 164.8 204.8 166.6 204.1 168C203.2 169.8 202 171.4 200.2 172.5C196.6 178.5 193.1 184.5 189.3 190.3C187.6 193 188.2 193.8 191.1 194.6C202.2 197.5 213.2 200.6 224.2 203.7C227.2 204.5 230.1 205.6 233.1 206.5C233.3 207.4 233.1 208 232 207.5C217.2 207.2 202.6 204.7 187.9 203.7C182.3 203.3 182.3 203.2 184.5 208.3C186.9 213.8 189.4 219.2 191.9 224.6C196.3 230.2 197.8 237.1 200.7 243.3C201.2 244.3 201.3 245.8 199.9 246.3C198.8 246.7 198.1 245.7 197.5 244.9C193.3 239.6 189.7 233.8 185.7 228.3C185.2 227.5 184.6 226.7 184.3 225.8C182.3 222.4 179.4 219.7 177.4 216.2C176.2 214.1 175 214.6 173.7 216.2C171.6 218.9 170.5 222.4 167.2 224.1C162.1 231 157 237.9 152 244.8C151.8 244.7 151.5 244.6 151.3 244.6C152.2 237.7 153.2 231 154.3 224.3Z" fill="#FEDB4D"/>
<path d="M242.5 300.9C250.8 300 259.2 298.9 267.5 298.5C273.3 298.2 277.8 302.5 283.1 304.2C283.9 311.9 287.5 318 293.1 323.1C285.5 328.5 283.1 336.3 283.1 345.1C267.2 344.3 255.7 336.6 248.1 322.7C247.4 321.4 246.7 320.1 246 318.8C246.2 316.1 243.6 317.4 242.6 316.4C243.7 313.3 242.8 311.4 239.2 311.2C238.2 311.1 236.9 311.1 236.5 309.7C238.3 309.5 240.1 309.3 241.8 309.2C243.2 309.1 244 308.7 243.6 307.1C242.6 305.2 242.7 303 242.5 300.9Z" fill="#FFE3B5"/>
<path d="M527.1 532.2C529.3 535.7 531.6 539.3 533.8 542.8C550 577 556.8 595.6 555.1 603.2C549.3 583.1 542.6 563.3 531.9 545.2C527.8 541.8 526.2 536.5 522.5 532.8C519.9 530.8 518.7 526.6 514.2 527.6C510 534.5 507.1 541.3 511.3 549.4C513.5 553.5 516.1 557.8 515.6 562.9C519.7 576.4 523.2 590.1 524.5 604.2C525 609 525.3 613.8 524 618.6C522.5 624.2 518.7 625.3 514.5 621.2C510.7 617.5 509.1 612.5 507.6 607.6C504.2 596 503.5 584.1 502.7 572.1C500.3 566.8 501.6 561.4 501.9 556C502 553.5 502.4 551 502.7 548.6C503.2 544 501 541 497.4 538.7C495.1 537.2 492.8 537.9 491.1 539.7C488.1 542.8 486.8 546.6 488.3 550.7C490.4 556.3 492.1 562 493.4 567.8C494.1 570.9 494.8 574 493.9 577.1C493.9 577.6 493.9 578.1 493.8 578.6C493.5 580.1 495.2 582.3 493.1 582.9C490.9 583.6 491.4 580.5 490.1 579.7C487.1 570.2 483.7 560.9 483.6 550.7C483.6 549.2 482.6 547.6 481.7 546.2C476.1 536.7 468.3 529.4 458.9 523.7C457.9 523.1 455.8 522.7 456.9 521C457.9 519.4 459.3 521.1 460.2 521.7C468.3 526.5 475.3 532.6 480.8 540.2C481.7 541.5 482.7 542.8 483.7 544.2C490.4 531.4 494 530.6 505.2 539.7C507.4 533.9 507.4 527.1 513 523C518.5 521.2 524.9 525.3 527.1 532.2Z" fill="#050405"/>
<path d="M258.9 67.4C257.4 68.3 255.9 69.3 254.4 70.2C251.3 71.9 248 71.8 244.7 71.8C197.1 71.8 149.5 71.8 101.9 71.8C92.6996 71.8 92.6996 71.8 92.6996 81.2C92.6996 108.8 92.6996 136.4 92.6996 164.1C92.6996 166.9 93.1996 169.8 90.9996 172.2C89.9996 172.2 89.0996 172.2 88.0996 172.2C88.0996 138.9 88.0996 105.6 88.0996 72.3C88.0996 69 88.3996 67.2 92.5996 67.2C147.2 67.3 201.8 67.3 256.5 67.3C257.3 67.3 258.1 67.4 258.9 67.4Z" fill="#FEE168"/>
<path d="M125.4 468.6C126.3 468.8 127.1 469 127.4 470C119.3 475.5 111.1 480.9 103 486.5C92.1001 494.1 82.0001 502.4 76.1001 514.7C66.5001 534.8 70.7001 558.9 86.9001 576.8C99.8001 591 116.1 600.3 133.2 608.3C139.5 611.3 145.9 614.2 152.2 617.2C153.4 617.8 155.5 618.6 154.3 620.2C153.2 621.7 152.1 619.7 151 619.2C139.8 613.7 128.2 609.1 117.3 603C105.6 596.4 94.7001 589 85.6001 579C60.5001 551.6 63.3001 515 92.1001 491.6C102.6 483.2 114.4 476.5 125.4 468.6Z" fill="#080808"/>
<path d="M494.1 577.2C492.2 567.9 490.5 558.6 486.7 549.9C485 545.9 488.4 539.1 492.3 537C494.6 535.7 496.9 535.8 498.8 537.5C501.5 540 505 542.2 504.4 546.8C503.3 555.2 503.1 563.7 503 572.2C500 573.8 497 575.5 494.1 577.2Z" fill="#FE0E11"/>
<path d="M515.7 562.9C513.3 557.2 511.2 551.3 508.3 545.7C506.3 541.8 510 529.7 514 525.9C517.5 527.3 519.6 530.8 523.3 532C526.9 535.9 529.7 540.3 531.9 545.1C526.5 551.1 521.1 557 515.7 562.9Z" fill="#FE0E11"/>
<path d="M154.7 429.8C154 430.6 153.5 432 152 431.1C154.2 411.7 148.1 395.4 133.6 382.3C127.9 377.2 122.1 372.2 116.7 366.8C95.4999 345.6 89.1999 320.8 99.7999 292.3C105.1 278.1 111.9 264.6 121.9 253C123 252.7 124.1 252.6 124 254.3C110.5 271 100.6 289.7 97.6999 311C95.3999 327.9 100.6 343.5 111.2 357.1C117.3 364.9 124.9 371.1 132.2 377.7C140 384.8 147.1 392.4 151 402.5C154.5 411.2 155.5 420.4 154.7 429.8Z" fill="#090909"/>
<path d="M114.5 298C118.6 298.8 121 301.3 123.5 303.7C124.3 304.5 124.9 305.9 125.9 306.2C128.4 307 128.9 303.3 131.5 303.5C133.2 303.7 135.3 306.8 136.7 302.5C138.1 298.3 140.8 297.9 143.8 301.3C151.5 310.2 155.2 321.1 158.2 332.2C158.4 332.9 158.6 334.1 157.6 334.3C155.9 334.7 155.9 333 155.6 332C153.5 324.1 150.5 316.5 146.6 309.4C146.2 308.7 145.8 307.9 145.3 307.3C143.7 305.3 142.2 301.1 140 302.4C137.4 303.9 137.1 307.8 138.7 311.3C142.2 318.7 144.1 326.7 144.8 334.8C145.1 337.8 146.1 342.2 142.4 343.1C138.3 344.1 137.3 339.6 136.4 336.5C134.1 328.6 133.7 320.4 134.5 312.3C134.7 309.9 134.7 308 132.5 306.7C131.5 306.1 130.6 306.4 129.8 307.2C128.2 309 128.5 311 129.2 313.2C130.2 316.5 130.9 320 131.6 323.4C131.8 324.2 131.9 325.1 130.9 325.5C129.6 326 129.1 325.2 128.7 324.2C127.9 321.7 126.5 319.2 126.4 316.6C126.1 309.6 122 305.4 116.9 301.7C116 300.7 114.6 300.3 114.5 298Z" fill="#0A0A0A"/>
<path d="M381 129.5C379.3 129.1 377.7 128.6 376.5 127.2C377 126.8 377.7 126.7 378.4 126.7C397.4 126.9 416.3 126.6 435.3 126.8C437.5 127.2 437 128.9 437 130.3C437 140.2 436.9 150.2 436.9 160.1C436 159.8 435.2 159.4 434.3 159.1C432.5 157.3 432.5 154.9 432.5 152.6C432.5 147.3 432.5 142 432.5 136.6C432.4 131.4 432 130.9 426.8 130.8C414.7 130.7 402.5 130.7 390.4 130.8C387.1 130.8 384 130.6 381 129.5Z" fill="#141414"/>
<path d="M82.5 381C82.5 376.4 85.3 373.1 89.5 373C93.4 372.9 96.4 375.9 96.5 379.8C96.6 384.1 91.3 391.1 87.8 391.3C84.7 391.6 82.5 387.3 82.5 381Z" fill="#020202"/>
<path d="M43.4999 380.7C43.5999 376.1 46.5999 372.9 50.7999 373.1C54.5999 373.2 57.5999 376.3 57.4999 380.2C57.3999 384.6 51.8999 391.5 48.4999 391.4C45.4999 391.3 43.2999 386.6 43.4999 380.7Z" fill="#020202"/>
<path d="M500.9 171.1C500 174.2 501.1 179.7 496.3 180.5C492 181.2 489.9 176.6 488 173.1C486.3 170 486.6 167 489.1 164.5C491.2 162.5 493.6 161.8 496.4 163C499.8 164.4 501 167.1 500.9 171.1Z" fill="#040404"/>
<path d="M471.9 151.3C471.4 153.7 472.3 158.8 467.8 159.8C463.3 160.8 461.3 156.1 459.3 152.7C457.5 149.7 457.5 146.7 460 144C462.2 141.7 465 141.2 467.8 142.4C471.1 143.8 472.4 146.6 471.9 151.3Z" fill="#030303"/>
<path d="M63.2997 383.2C62.6997 378 63.7997 375 67.2997 373.6C70.0997 372.4 72.7997 373 74.9997 375.3C77.5997 378.2 77.3997 381.4 75.4997 384.4C73.5997 387.6 71.5997 392 67.2997 391.2C62.5997 390.3 63.7997 385.2 63.2997 383.2Z" fill="#030303"/>
<path d="M520 172C519.6 174.3 520.5 179.4 516 180.3C511.5 181.3 509.5 176.6 507.6 173.2C505.9 170.2 505.9 167.1 508.4 164.5C510.3 162.4 512.8 161.6 515.6 162.7C519.2 164.2 520.4 167 520 172Z" fill="#030303"/>
<path d="M511.7 197.8C511.6 198.4 511.6 198.7 511.5 199.1C510.8 202.3 511.4 206.1 507.8 207.9C505.5 209 503.7 207 502.3 205.5C499.4 202.4 496.8 198.9 498.3 194.4C499.5 190.8 502.6 189.4 506.3 190.2C510.5 191.1 511.7 194.3 511.7 197.8Z" fill="#020202"/>
<path d="M435.3 126.8C417.9 126.9 400.5 126.9 383 127C380.8 127 378.7 127.1 376.5 127.2C376 126.9 375.5 126.6 375 126.2C372.4 122.1 373.7 117.5 373.6 113.1C373.3 107 373.2 107 367.1 106.6C361.4 106.3 355.5 107.9 350 105.3C349.8 104.5 349.5 103.7 349.3 102.9C357.3 102.9 365.3 103.1 373.2 102.8C376.8 102.7 378.4 103.6 378.1 107.5C377.8 111.6 378.3 115.8 377.9 120C377.4 124.9 378.7 126.6 384.1 126.5C399.5 126.1 415 126.3 430.5 126.4C432 126.4 433.7 125.9 435.3 126.8Z" fill="#FDDE60"/>
<path d="M167.1 224.1C169.3 219.8 172.4 216.1 175.5 211.9C179.2 216.2 182.2 220.7 184.9 225.3C186 231.4 185.2 237.6 185.6 243.7C185.6 244.3 185.4 244.8 184.9 245.2C184.3 245.2 183.7 245.2 183 245.2C183.1 239.4 183.1 233.6 183.5 227.8C183.7 224.9 182.8 224.1 179.9 224.2C175.7 224.3 171.4 224.1 167.1 224.1Z" fill="#070604"/>
<path d="M210.3 421.3C207.9 418.9 210.2 419.1 211.6 419.1C218.9 419.1 226.2 419.1 233.6 419C236.9 419 240.2 419.4 243.5 418.3C249.2 418.1 254.9 417.9 260.6 417.7C263.2 417.7 265.9 417.7 268.5 417.7C271.2 417.7 271 418.7 269.4 420.1C268.2 421 266.8 421.4 265.2 421.5C248.7 422.4 232.1 422.9 215.6 422.6C213.6 422.7 211.9 422.2 210.3 421.3Z" fill="#0A0A0A"/>
<path d="M130.2 246.2C129.6 241.9 129 237.7 128.4 233.4C131.8 239.3 136.4 236 140.5 234.7C141.6 238.5 132.8 243.4 142.3 246.1C138.2 246.1 134.1 246.1 130.2 246.2Z" fill="#FEE063"/>
<path d="M124 254.2C123.6 253.3 122.8 253.1 121.9 252.9C120.1 251.7 118.4 250.5 116 248.9C121 247.4 125.4 246.2 130.1 246.2L130 246.1C130.1 249.9 131.6 253.5 131 257.6C128.2 257.3 126.5 254.8 124 254.2Z" fill="#FEDC52"/>
<path d="M200.2 172.2C201.7 169.5 203.2 166.7 205.1 163.1C199.5 165.8 196.2 170.3 191.3 172.4C187.7 173.5 186.5 171.3 187 168.5C187.9 163.1 187.2 157.6 187.9 152.2C188.7 149.9 188.5 147.2 190.3 145.2C195.7 141.5 201.8 139.2 207.6 136.2C211.2 134.1 215.3 133.1 218.7 130.6C229.7 126 241 127.3 252.2 129.2C256 136.4 259.8 143.5 264.1 150.4C266.2 153.8 268.7 156.4 272.2 158.3C286.2 165.8 301.1 169.9 317 170C318 171.1 318 172.5 317.9 173.8C317.5 182.1 321.6 187.7 328.2 192.4C346.4 205.3 365.9 216.2 385 227.7C396 234.3 407 240.8 417.7 247.9C422.2 250.9 423.3 254 421.4 259.1C418.8 265.6 416.3 272.1 413.1 278.3C411.6 279.6 409.8 279.8 408 279.8C398.4 279.9 388.8 279.9 379.2 279.8C377.3 279.8 375.6 279.5 374 278.3C370.1 267.9 361.8 264.2 351.5 263.3C343.3 262.5 336.3 259 332.1 251.7C324.9 239 313.5 234 299.7 234C294.9 234 294.1 232.4 294.2 228.1C294.4 211.4 294.2 194.8 294.4 178.1C294.5 173.8 293.6 172.2 288.8 172.3C259.2 172.4 229.7 172.3 200.2 172.2Z" fill="#FEFEFE"/>
<path d="M381 129.5C397.7 129.4 414.3 129.5 431 129.2C434.1 129.2 434.5 130.5 434.4 133.1C434.3 141.8 434.3 150.4 434.3 159.1C414 153.8 397.6 141.4 381 129.5Z" fill="#FEFEFE"/>
<path d="M373.9 278.3C386.9 278.3 400 278.3 413 278.2C410.9 284.3 407.6 289.8 404.7 295.6C403.4 298.3 400.2 298.8 398 300.4C385.7 297.7 377.6 290.4 373.9 278.3Z" fill="#D0E9FE"/>
<path d="M384.1 149.7C384.1 156 379.4 161 373.4 161.2C367.6 161.4 362.4 156.2 362.2 150.1C362 144.5 367.5 139.2 373.6 139.3C379.2 139.2 384 144 384.1 149.7Z" fill="#FEBD00"/>
<path d="M384 522.9C384.1 528.5 379.1 533.9 373.4 534.1C367.4 534.4 362.1 529.3 362 523.3C361.9 517.3 366.6 512.2 372.4 512.2C378.6 512.1 383.9 517 384 522.9Z" fill="#FEBD00"/>
<path d="M487.1 238.8C487 232.9 491.8 228.2 497.9 228.1C503.9 228 508.9 232.6 509.1 238.4C509.3 243.8 503.5 250 498.2 250C492.3 250.1 487.1 244.9 487.1 238.8Z" fill="#FEBD00"/>
<path d="M384.4 447.1C390.3 447.2 395.3 452.3 395 457.9C394.8 463.2 389.1 469 384 469C377.9 469 372.8 463.5 373 457.2C373.3 451.5 378.3 447 384.4 447.1Z" fill="#FEBD00"/>
<path d="M413.5 224.2C407.6 224.1 403.1 219.3 403.1 213.2C403.1 207.2 407.9 202.3 413.6 202.2C419.3 202.2 425.1 208.2 424.9 213.9C424.6 219.5 419.4 224.2 413.5 224.2Z" fill="#FEBD00"/>
<path d="M228.5 476.1C234.5 476.2 239.2 481 239.1 486.9C239 493.1 233.6 498.2 227.4 497.9C222.4 497.7 216.9 491.4 217.1 486.3C217.4 480.5 222.4 476 228.5 476.1Z" fill="#FEBD00"/>
<path d="M454.1 465.4C454 471.3 449.1 476.3 443.4 476.1C438 476 432.5 470.6 432.5 465.2C432.4 459 437.6 453.9 444 454.1C449.7 454.3 454.2 459.3 454.1 465.4Z" fill="#FEBD00"/>
<path d="M454.3 272.2C460.4 272.3 465.1 277 465 282.9C464.9 289 460 294 453.9 293.9C448.4 293.8 442.8 288 443 282.5C443.3 276.6 448.3 272.1 454.3 272.2Z" fill="#FEBD00"/>
<path d="M491.1 397.4C491.1 404.1 487.3 408.1 480.9 408.2C474.2 408.3 470.1 404.5 470.1 398C470 391.7 474.4 386.7 480.1 386.5C486.3 386.3 491.1 391 491.1 397.4Z" fill="#FEBD00"/>
<path d="M313.9 605.1C307.9 605 303.3 600.2 303.4 594.1C303.5 588.7 309.1 583.2 314.5 583.2C320.2 583.2 325.1 588.3 325.1 594.2C325 600.7 320.4 605.2 313.9 605.1Z" fill="#FEBD00"/>
<path d="M293.1 489.3C293.2 482.9 297.3 479.1 304 479.1C310.1 479.1 314.2 483.6 314.1 490C314 496 309.1 501 303.4 500.9C297.5 500.8 293 495.7 293.1 489.3Z" fill="#FEBD00"/>
<path d="M446.1 557.6C446.1 564 441.6 569.1 435.7 569.1C429.8 569.2 425.1 564.1 425.1 557.8C425.1 551.9 429.9 547.1 435.8 547.2C441.4 547.2 446.1 551.9 446.1 557.6Z" fill="#FEBD00"/>
<path d="M295.1 435.9C295.1 442.2 290.2 447.2 284.4 447.1C278.6 447 274 442 274.1 436C274.1 429.9 278.8 425.2 284.7 425.2C290.5 425.2 295.2 429.9 295.1 435.9Z" fill="#FEBD00"/>
<path d="M217.2 543.2C211 543.2 205.9 538.2 206.1 532.4C206.3 526.6 211.3 522.1 217.3 522.2C223.3 522.3 228.1 527 228 532.9C228 538.6 223.2 543.2 217.2 543.2Z" fill="#FEBD00"/>
<path d="M411.3 338.1C417.2 338.2 422.2 343.2 422 349C421.8 354.8 416.8 359.3 410.7 359.2C404.6 359.1 399.9 354.3 400.1 348.3C400.2 342.5 405.2 338 411.3 338.1Z" fill="#FEBD00"/>
<path d="M369.1 405.3C369.1 411.4 364.4 416.2 358.5 416.2C352.6 416.2 348 411.3 348.1 405.2C348.1 399.2 353 394.2 358.7 394.3C364.4 394.3 369.2 399.3 369.1 405.3Z" fill="#FEBD00"/>
<path d="M265.2 563.2C273.8 567.4 276.2 575.1 270.9 581C267.5 584.7 263.7 586.3 258.9 584.2C255 582.5 252.5 579.7 252.1 575.2C251.6 569.8 254.2 566.3 258.7 564C259.7 563.5 260.9 563.4 262 563.1C265.2 564.8 264.1 568.3 265.1 570.6C265.5 568.4 263 565.7 265.2 563.2Z" fill="#FEBD00"/>
<path d="M527.1 532.2C523 528.4 520.1 522.4 513.1 523.1C513.2 516.5 517 511.6 522.5 511.1C528.7 510.5 533.4 513.8 534.7 519.6C535.9 524.6 533.4 528.7 527.1 532.2Z" fill="#FEBD00"/>
<path d="M265.2 563.2C265.7 566.3 266.2 569.3 266.6 572.4C266.8 573.4 266.8 574.6 265.6 574.7C264.3 574.8 264.3 573.5 264.2 572.6C263.7 569.4 263.5 566.1 262.1 563.1C261.4 554.9 254.8 548.9 254.6 540.3C254.1 525.1 255.2 510.1 257 495.1C257.1 494.3 257.1 493.4 258.3 492.9C260.4 494.5 259.2 496.8 259 498.6C257.8 510.5 256.9 522.4 257.1 534.4C257.2 540.9 257.6 547.2 261.5 553C263.2 556 263.9 559.8 265.2 563.2Z" fill="#0E070E"/>
<path d="M487.9 221.2C475.2 222.1 463.1 223.9 451.5 227.2C442.7 229.7 436.9 237.3 432.3 245.3C431.7 246.4 431.6 249 429.7 247.9C428.1 247 429.6 245.1 430.3 243.9C437 233.2 444.9 224.2 458.8 222.9C467.4 222.1 475.8 219.5 484.4 219C485.2 218.9 486.1 218.8 486.9 219C488.9 219.3 492.2 218.2 492 221C491.9 223.4 489 220.5 487.9 221.2Z" fill="#0C060C"/>
<path d="M433.4 252.1C433.9 249.3 436.2 249.2 437.9 248.7C445 246.9 451.9 246.7 458.3 251.4C462.9 254.7 468.2 256.9 472.5 260.6C473.5 261.5 475.5 262.8 474.2 264.1C472.6 265.8 472 263 470.9 262.4C462 257.3 454.7 248.9 442.9 250.1C439.8 250.5 436.9 252.6 433.4 252.1Z" fill="#120912"/>
<path d="M252.9 511.5C253 513.4 251.2 514 250.4 515.1C246.4 520.6 243.2 526.1 244.9 533.5C246.4 539.6 245.9 546.1 248.6 552C249 552.8 248.7 553.3 248.2 553.7C247.5 554.1 247 553.6 246.5 553.1C246.4 553 246.3 552.8 246.2 552.7C239.5 544.1 241.6 519.8 249.6 512.4C250.4 511.7 251.1 510.6 252.9 511.5Z" fill="#120A13"/>
<path d="M185 245.2C185 244.9 185 244.5 185 244.2C184.4 238.5 184.3 232.8 186.3 227.3C190.7 233.3 195.1 239.4 199.5 245.4C199.7 245.3 199.9 245.2 200.1 245.1C197.4 238.2 194.7 231.2 191.9 224.3C224 224.2 256.2 224.2 288.3 224.1C290.3 224.1 292.4 224.2 291.7 226.8C291 229.3 294.3 233.4 288.9 234.3C279.8 235.8 271.2 238.9 263.5 244.2C250.4 253.4 243.1 265.4 245.9 282.4C241.8 282.5 238 283.8 235.6 287.5C232.5 292.3 231.3 297.6 232.1 303.2C232.6 306.7 231.5 307.3 228.3 307.4C214.7 307.7 201 308 187.4 308.7C183.4 308.9 182.4 308 182.7 303.9C183.5 284.4 184.2 264.8 185 245.2Z" fill="#FEFEFE"/>
<path d="M293.1 323.1C285.4 319.1 281.7 313 283.1 304.2C287.6 296.1 293.7 292.7 300.6 294.5C307.4 296.2 312.4 303 311.7 309.6C311 317.1 305 322.8 297.6 323.1C296.1 323.2 294.6 323.1 293.1 323.1Z" fill="#FFE3B5"/>
<path d="M244.2 298C243.1 298.2 241.9 298.4 240.8 298.4C238.7 298.5 235.8 300.1 234.7 298.3C233.5 296.3 235.1 293.5 236.1 291.3C238.8 285.5 242.2 284 247.4 286.2C248.3 290.8 246.8 294.6 244.2 298Z" fill="#F7F8F8"/>
<path d="M244.2 298C245.3 294.1 246.3 290.2 247.4 286.3C253.4 288.1 257.4 293.6 263.7 295C263.6 295.4 263.6 295.9 263.5 296.3C257 296.9 250.6 297.5 244.2 298Z" fill="#FFE3B5"/>
<path d="M242.5 300.9C245 302.6 243.5 305.1 243.7 307.2C241.6 307.2 239.4 307.1 237.3 307.3C234.7 307.6 234.5 305.9 234.2 304C233.8 301.6 235.3 301.3 237.1 301.2C238.9 301.2 240.7 301 242.5 300.9Z" fill="#F1F4F6"/>
<path d="M236.6 309.7C238.4 309.7 240.2 309.8 242.1 309.8C244.9 309.8 244.4 312.2 245 313.8C245.9 316 244.3 316.3 242.7 316.5C239.2 315.4 236.7 313.6 236.6 309.7Z" fill="#ECEDED"/>
<path d="M232 207.3C232.4 207 232.7 206.6 233.1 206.3C235.3 205.9 237.1 207.4 239.1 207.7C236.7 208.3 234.3 208.4 232 207.3Z" fill="#C5A93B"/>
<path d="M83.0996 199C83.0996 191.8 88.1996 186.2 94.8996 186.1C101.7 186 107.2 191.9 107.1 199.2C107 206.2 101.4 212.1 94.9996 212C88.4996 211.8 83.0996 206 83.0996 199Z" fill="#FDFDFD"/>
<path d="M75.8002 199C75.8002 206 70.3002 211.9 63.8002 211.9C57.1002 211.9 51.7002 205.9 51.8002 198.6C51.9002 191.5 57.3002 186 64.0002 186.1C70.6002 186.1 75.9002 191.9 75.8002 199Z" fill="#FDFDFD"/>
<path d="M44.4004 199.1C44.3004 206.2 38.9004 211.9 32.4004 211.9C25.9004 211.8 20.5004 205.9 20.4004 198.9C20.4004 191.7 26.0004 185.9 32.8004 186C39.5004 186.2 44.5004 191.9 44.4004 199.1Z" fill="#FDFDFD"/>
<path d="M177.8 172.4C185.9 172.3 185.9 172.3 186.3 164C186.8 153.2 187.6 142.4 187.7 131.6C187.8 127.4 189.4 126.9 192.9 126.9C202.2 127.1 211.6 126.9 220.9 127C224 127 226.7 126.3 229.4 124.9C247.1 115.6 264.9 106.4 282.7 97.2C283.1 98.5 283.6 99.8 284 101C278 105.9 271.3 109.3 263.7 110.6C258.6 113 253.6 115.5 248.5 117.9C245.3 122.4 239.4 122.3 235.6 125.7C240.6 126.7 246.1 124.7 251.3 126.9C251.6 127.7 251.9 128.4 252.3 129.2C246 129.2 239.7 129.5 233.4 129.2C228 129 222.9 129.5 218.1 132.2C217.2 132.7 216.8 132 216.4 131.5C208.9 129.6 201.2 130.5 193.7 131C190.2 131.2 192 135.4 191 137.7C190.4 142.2 189.9 146.8 189.3 151.3C189 157.1 188.9 162.9 188.5 168.7C188.4 171 188.4 172.7 191.4 172.4C190.1 173.6 188.9 175 187.4 176.1C179.8 182.1 179.8 182.1 177.8 172.4Z" fill="#060606"/>
<path d="M276.1 127.2C278.2 127.2 280.4 127.2 282.5 127.2C280.2 129.9 278.1 129.7 276.1 127.2Z" fill="#0B1218"/>
<path d="M157 172.4C159.3 172.4 161.7 172.3 164 172.3C164 174.2 164 176.2 164 178.7C161.1 176.9 158.8 174.9 157 172.4Z" fill="#171610"/>
<path d="M186.3 227.3C185.9 232.9 185.5 238.5 185 244.2C183.5 237.9 183.8 231.6 184.9 225.3C185.3 225.9 185.8 226.6 186.3 227.3Z" fill="black"/>
<path d="M256.2 311.5C256 314.3 254.8 316 252.2 316C249.4 316 248.1 314.1 248.1 311.4C248.1 308.9 249.5 307.2 252 307.2C254.9 307.2 256 309.2 256.2 311.5Z" fill="#020A13"/>
<path d="M513.8 565.7C508.9 566 506.4 568.8 505.9 574.7C504.8 566.4 506.2 558.3 506.9 549.9C510.2 554.7 512.1 560.1 513.8 565.7Z" fill="#FE0E11"/>
<path d="M523.3 532.1C518.7 532.4 516.3 529.3 514 526C519.1 525 520.8 529.1 523.3 532.1Z" fill="#CC32CF"/>
<path d="M490.1 570.2C487.9 566.4 487.5 563.1 487.3 559.8C489.1 562.7 490 565.9 490.1 570.2Z" fill="#864587"/>
<path d="M141.4 340C136.4 332.4 136.7 323.8 137.2 315.2C140.6 323.1 143 331.2 141.4 340Z" fill="#F4F4F4"/>
<path d="M208.2 137.3C202.6 140.3 197.1 143.2 191.1 145.2C191 145 191 144.7 190.9 144.5C195.1 139.6 201.1 137.9 206.8 135.8C207.5 136 208 136.5 208.2 137.3Z" fill="#7E7E7E"/>
<path d="M208.2 137.3C207.8 137 207.5 136.6 207.1 136.3C209.7 133.1 212.8 131 217.1 131.4C217.4 131.7 217.7 132 218.1 132.3C215.1 134.5 211.5 135.6 208.2 137.3Z" fill="#4C4C4C"/>
<path d="M189.3 151.3C189.1 146.5 188.7 141.8 190 137.1C192.7 139.5 190.7 142.6 191.2 145.3V145.2C189.5 146.9 190.3 149.4 189.3 151.3Z" fill="#7E7E7E"/>
<path d="M299.4 301.9C295.6 303.5 296.6 306 297.6 308.5C298 309.6 298.4 311.1 297 311.5C295.4 311.9 295.4 310.3 295.2 309.2C294.5 305.1 292.7 304.1 289.3 306.9C288.6 307.5 287.7 308.6 286.8 307.5C285.7 306.1 287.1 305.4 288 304.8C291.2 302.7 294.6 300.6 299.4 301.9Z" fill="#010D16"/>
<path d="M191.1 145.3C188.9 142.8 191 139.8 189.9 137.1C190.2 129.3 190.2 129.3 197.9 129.3C204.2 129.3 210.5 129.3 216.8 129.3C217.4 129.3 218.6 128.8 218.5 130.1C218.5 130.6 217.6 131 217.1 131.4C213.8 133 210.4 134.7 207.1 136.3C201.7 139 195.8 141.1 191.1 145.3Z" fill="#FBFBFB"/>
<g clip-path="url(#clip3)">
<path d="M16.3 553C17 551.5 17.4 550.1 18.2 548.9C18.5 548.4 19.5 548.3 20.2 548C20.4 548.7 20.6 549.3 20.7 550C20.7 550.3 20.6 550.7 20.5 551C19.5 553.2 19.3 554.9 22.4 555.5C22.9 555.6 23.3 556.8 23.7 557.4C22.9 557.6 21.9 558.3 21.3 558C19.2 557 17.9 557.1 17.6 559.8C17.5 560.4 17.3 561 16.9 561.4C16.4 561.8 15.7 562.2 15.1 562.2C14.8 562.2 14.3 561.2 14.4 560.6C14.4 559.6 15 558.6 15 557.7C14.8 556.7 14.2 555.9 13.7 555.1C13.2 554.4 12.6 553.7 12 553C12.9 552.9 13.8 552.7 14.7 552.6C15.2 552.7 15.7 552.9 16.3 553Z" fill="#020A13"/>
</g>
</g>
<defs>
<clipPath id="clip0">
<rect width="25" height="40" fill="white" transform="translate(556 160)"/>
</clipPath>
<clipPath id="clip1">
<rect width="64" height="63" fill="white" transform="translate(232 614)"/>
</clipPath>
<clipPath id="clip2">
<rect width="555.4" height="566.9" fill="white" transform="translate(0 64)"/>
</clipPath>
<clipPath id="clip3">
<rect width="11.7" height="14.1" fill="white" transform="translate(12 548)"/>
</clipPath>
</defs>
</svg>
