<svg width="24" height="24" viewBox="0 0 24 24" fill="none" xmlns="http://www.w3.org/2000/svg">
<path d="M15.5205 0H16.55C17.5306 0.002094 18.5011 0.197295 19.4061 0.574459C20.3112 0.951622 21.1332 1.50336 21.825 2.19817C22.5168 2.89299 23.0651 3.71727 23.4384 4.62395C23.8116 5.53063 24.0027 6.50196 24.0006 7.48248C24.0006 7.94739 23.9587 8.40033 23.8769 8.8433C23.0262 8.25782 22.012 7.95677 20.9797 7.98331C21.0494 7.38312 20.9968 6.77503 20.8252 6.19569C20.6536 5.61635 20.3664 5.07776 19.981 4.61239C19.5957 4.14702 19.12 3.76451 18.5828 3.48791C18.0456 3.21131 17.458 3.04635 16.8553 3.00297L16.55 2.99299H15.5205C15.1413 2.99288 14.7763 2.84884 14.4993 2.58999C14.2222 2.33114 14.0537 1.97678 14.0279 1.5985C14.0021 1.22022 14.1208 0.846235 14.36 0.55211C14.5993 0.257985 14.9413 0.0656491 15.3169 0.0139672L15.5205 0Z" fill="black"/>
<path d="M7.54251 0H8.53619C8.91535 0.000116213 9.28033 0.144152 9.55738 0.403002C9.83443 0.661852 10.0029 1.01622 10.0287 1.3945C10.0546 1.77277 9.93588 2.14676 9.69661 2.44088C9.45733 2.73501 9.11533 2.92734 8.73971 2.97903L8.53619 2.99299H7.54251C6.36998 2.98176 5.23951 3.4293 4.39241 4.24009C3.54532 5.05088 3.04871 6.16068 3.0086 7.33258C2.9685 8.50448 3.38807 9.64563 4.17776 10.5124C4.96744 11.3792 6.06468 11.903 7.23523 11.972L7.54251 11.9819H8.53619C8.91535 11.9821 9.28033 12.1261 9.55738 12.385C9.83443 12.6438 10.0029 12.9982 10.0287 13.3764C10.0546 13.7547 9.93588 14.1287 9.69661 14.4228C9.45733 14.717 9.11533 14.9093 8.73971 14.961L8.53619 14.9749H7.54251C5.58172 14.9896 3.69343 14.2344 2.28353 12.8717C0.873621 11.5089 0.0546464 9.64741 0.00263688 7.68725C-0.0493727 5.72709 0.669734 3.82477 2.00539 2.38917C3.34105 0.953569 5.18663 0.0992997 7.14544 0.00997687L7.54451 0H7.54251Z" fill="black"/>
<path d="M7.53901 5.98596H16.518C16.8971 5.98608 17.2621 6.13011 17.5392 6.38896C17.8162 6.64781 17.9847 7.00218 18.0105 7.38046C18.0364 7.75873 17.9177 8.13272 17.6784 8.42685C17.4391 8.72097 17.0971 8.91331 16.7215 8.96499L16.518 8.97895H7.53901C7.15985 8.97884 6.79487 8.8348 6.51782 8.57595C6.24076 8.3171 6.07229 7.96274 6.04645 7.58446C6.02061 7.20618 6.13932 6.8322 6.37859 6.53807C6.61787 6.24395 6.95986 6.05161 7.33548 5.99993L7.53901 5.98596Z" fill="black"/>
<path d="M19.0473 10.8266C19.5962 10.3053 20.327 10.0189 21.084 10.0287C21.841 10.0384 22.5642 10.3435 23.0995 10.8788C23.6348 11.4141 23.9399 12.1373 23.9496 12.8943C23.9594 13.6513 23.673 14.3821 23.1517 14.931L15.6592 22.4275C15.2222 22.8648 14.6746 23.1751 14.0749 23.3254L11.7503 23.906C11.5191 23.9638 11.2768 23.9606 11.0471 23.897C10.8174 23.8333 10.6081 23.7113 10.4396 23.5427C10.271 23.3742 10.149 23.1649 10.0853 22.9352C10.0217 22.7055 10.0185 22.4632 10.0763 22.2319L10.6589 19.9074C10.8086 19.3088 11.1178 18.7601 11.5548 18.3231L19.0493 10.8286L19.0473 10.8266ZM20.458 12.2373L12.9655 19.7338C12.7844 19.9156 12.6561 20.1432 12.5944 20.3923L12.2612 21.7211L13.592 21.3899C13.8406 21.3272 14.0675 21.1983 14.2485 21.0168L21.743 13.5223C21.9025 13.3501 21.9892 13.1228 21.9847 12.888C21.9802 12.6532 21.885 12.4294 21.719 12.2633C21.5529 12.0973 21.329 12.0021 21.0943 11.9976C20.8595 11.9931 20.6322 12.0798 20.46 12.2393L20.458 12.2373Z" fill="black"/>
</svg>
