<svg width="526" height="512" viewBox="0 0 526 512" fill="none" xmlns="http://www.w3.org/2000/svg">
<path fill-rule="evenodd" clip-rule="evenodd" d="M80.1104 178.856C103.339 149.554 147.455 151.831 178.55 131.065C211.726 108.908 226.67 54.8615 266.558 54.3392C305.895 53.8241 331.805 96.5585 354.402 128.763C372.759 154.925 368.008 189.33 381.582 218.266C400.76 259.15 453.495 286.618 449.552 331.608C445.607 376.622 403.357 411.393 362.892 431.5C324.215 450.719 279.47 442.943 236.641 437.403C196.045 432.152 155.889 424.382 122.695 400.43C87.387 374.954 53.4239 342.034 45.2056 299.273C37.1206 257.205 53.498 212.427 80.1104 178.856Z" fill="#C3F5B8"/>
<g clip-path="url(#clip0)">
<path d="M37.4006 250.467C38.5458 250.236 38.6004 253.101 38.5731 253.698C38.5458 254.323 39.5274 254.323 39.541 253.698C39.5819 252.3 39.2547 249.096 37.128 249.53C36.5418 249.652 36.8008 250.589 37.4006 250.467Z" fill="#020A13"/>
<path d="M45.5404 251.621C47.1082 251.567 48.6624 251.363 50.1893 251.037C50.8028 250.901 50.5438 249.978 49.9303 250.101C48.4852 250.413 47.0128 250.589 45.5404 250.644C44.9269 250.684 44.9133 251.648 45.5404 251.621Z" fill="#020A13"/>
<path d="M56.4462 250.847C57.7687 251.105 58.8729 251.757 59.7455 252.775C60.1544 253.25 60.8361 252.558 60.4271 252.096C59.4592 250.956 58.164 250.195 56.7053 249.91C56.0918 249.788 55.8328 250.725 56.4462 250.847Z" fill="#020A13"/>
<path d="M66.2622 253.209C66.5076 251.988 67.4347 251.064 68.6617 250.834C69.2752 250.711 69.0161 249.775 68.4026 249.897C66.8621 250.196 65.6351 251.431 65.3216 252.951C65.1989 253.562 66.1395 253.82 66.2622 253.209Z" fill="#020A13"/>
<path d="M76.2961 251.241C78.1774 250.766 80.0724 250.63 82.0083 250.834C82.6354 250.902 82.6218 249.924 82.0083 249.87C80.0043 249.666 78.0002 249.815 76.037 250.318C75.4372 250.454 75.6826 251.39 76.2961 251.241Z" fill="#020A13"/>
<path d="M87.4212 250.725C87.9529 252.395 86.2078 253.399 84.9809 254.065C84.4355 254.363 84.9263 255.205 85.4716 254.906C87.1076 254.024 89.0435 252.598 88.3619 250.481C88.171 249.883 87.2303 250.128 87.4212 250.725Z" fill="#020A13"/>
<path d="M90.9788 254.703C90.5834 255.938 89.9835 257.051 89.1383 258.042C88.7293 258.517 89.4246 259.196 89.8199 258.721C90.7743 257.608 91.4695 256.359 91.9194 254.961C92.0967 254.377 91.156 254.119 90.9788 254.703Z" fill="#020A13"/>
<path d="M88.5796 265.55C89.3976 265.93 90.1065 266.473 90.6519 267.179C91.0336 267.667 91.8652 267.179 91.4971 266.69C90.8427 265.848 90.052 265.17 89.0704 264.708C88.5115 264.45 88.007 265.292 88.5796 265.55Z" fill="#020A13"/>
<path d="M90.6927 272.148C90.3792 273.424 89.7248 274.523 88.7568 275.433C88.3069 275.867 88.9886 276.546 89.4385 276.112C90.5155 275.094 91.2653 273.831 91.6198 272.392C91.7834 271.795 90.8427 271.537 90.6927 272.148Z" fill="#020A13"/>
<path d="M88.3744 281.393C89.0015 282.397 89.4241 283.483 89.6286 284.651C89.7377 285.262 90.6783 285.004 90.5693 284.393C90.3512 283.144 89.8876 281.976 89.2196 280.904C88.8788 280.374 88.0335 280.863 88.3744 281.393Z" fill="#020A13"/>
<path d="M91.4842 292.185C90.2027 291.357 88.9076 290.543 87.626 289.715C87.0944 289.375 86.6036 290.217 87.1352 290.556C88.4168 291.384 89.7119 292.199 90.9934 293.027C91.5251 293.353 92.0159 292.511 91.4842 292.185Z" fill="#020A13"/>
<path d="M89.4649 295.647C88.6605 296.665 87.638 297.453 86.411 297.901C85.8248 298.118 86.0838 299.055 86.6701 298.837C88.047 298.335 89.2467 297.493 90.1602 296.34C90.5283 295.851 89.8466 295.158 89.4649 295.647Z" fill="#020A13"/>
<path d="M89.739 303.141C89.9981 303.684 90.1617 304.268 90.2026 304.865C90.2571 305.476 91.2251 305.49 91.1705 304.865C91.116 304.091 90.9115 303.358 90.5707 302.652C90.3116 302.082 89.4664 302.584 89.739 303.141Z" fill="#020A13"/>
<path d="M85.3612 303.792C84.2706 302.204 83.0845 300.684 81.8302 299.217C81.4212 298.742 80.7396 299.435 81.1486 299.896C82.3619 301.295 83.4798 302.747 84.5296 304.268C84.8704 304.797 85.7157 304.308 85.3612 303.792Z" fill="#020A13"/>
<path d="M78.6548 302.489C77.4823 302.897 76.2826 303.263 75.0693 303.575C74.4694 303.725 74.7148 304.661 75.3283 304.512C76.5416 304.2 77.7277 303.847 78.9138 303.426C79.5 303.222 79.241 302.286 78.6548 302.489Z" fill="#020A13"/>
<path d="M68.2111 302.109C68.3747 300.819 68.5383 299.53 68.7155 298.24C68.7973 297.629 67.8158 297.629 67.7476 298.24C67.584 299.53 67.4204 300.819 67.2432 302.109C67.1614 302.72 68.1293 302.72 68.2111 302.109Z" fill="#020A13"/>
<path d="M61.9816 302.055C62.8132 302.978 63.5085 303.996 64.0675 305.11C64.3538 305.666 65.1854 305.177 64.9127 304.621C64.3129 303.44 63.563 302.354 62.6769 301.363C62.2406 300.901 61.559 301.593 61.9816 302.055Z" fill="#020A13"/>
<path d="M57.5093 304.539C56.5822 304.349 55.8597 303.698 55.6143 302.788C55.4507 302.191 54.5236 302.435 54.6736 303.046C55.0008 304.268 55.996 305.232 57.2502 305.476C57.8637 305.598 58.1227 304.662 57.5093 304.539Z" fill="#020A13"/>
<path d="M47.2981 304.417C49.1795 304.118 50.8018 303.019 51.797 301.39C52.1242 300.86 51.279 300.371 50.9518 300.901C50.0793 302.326 48.675 303.222 47.0254 303.48C46.4256 303.575 46.6846 304.512 47.2981 304.417Z" fill="#020A13"/>
<path d="M41.1633 303.888C41.1633 302.924 41.1633 301.946 41.1633 300.982C41.1633 300.358 40.1953 300.358 40.1953 300.982C40.1953 301.946 40.1953 302.924 40.1953 303.888C40.1953 304.512 41.1633 304.512 41.1633 303.888Z" fill="#020A13"/>
<path d="M35.8467 301.512C36.7874 300.046 37.8235 298.648 38.9414 297.317C39.3367 296.842 38.6551 296.15 38.2597 296.638C37.0873 298.037 35.9966 299.503 35.0151 301.037C34.6742 301.553 35.5195 302.028 35.8467 301.512Z" fill="#020A13"/>
<path d="M36.8686 291.072C37.8093 291.669 38.8318 292.117 39.8952 292.43C40.4951 292.606 40.7541 291.669 40.1542 291.493C39.159 291.194 38.232 290.787 37.3594 290.23C36.8277 289.905 36.337 290.746 36.8686 291.072Z" fill="#020A13"/>
<path d="M43.3588 297.683C43.8905 298.064 44.3132 298.566 44.6267 299.136C44.9266 299.679 45.7719 299.19 45.472 298.647C45.0766 297.928 44.5177 297.331 43.8496 296.842C43.6315 296.692 43.3043 296.801 43.1816 297.018C43.0453 297.263 43.1543 297.534 43.3588 297.683Z" fill="#020A13"/>
<path d="M38.3551 286.049C37.7416 284.963 37.2781 283.823 36.9372 282.614C36.7737 282.017 35.833 282.275 35.9966 282.872C36.351 284.149 36.8554 285.37 37.5098 286.538C37.8234 287.081 38.655 286.592 38.3551 286.049Z" fill="#020A13"/>
<path d="M38.7369 278.542C39.814 278.623 40.8773 278.569 41.9544 278.392C42.5678 278.297 42.3088 277.361 41.6953 277.456C40.7137 277.619 39.7322 277.646 38.7369 277.564C38.1098 277.524 38.1098 278.487 38.7369 278.542Z" fill="#020A13"/>
<path d="M40.2912 274.428C39.555 273.396 38.8052 272.365 38.069 271.333C37.7145 270.831 36.8693 271.319 37.2238 271.822C37.9599 272.853 38.7098 273.885 39.4459 274.917C39.814 275.433 40.6593 274.944 40.2912 274.428Z" fill="#020A13"/>
<path d="M36.5006 265.957C37.0323 265.251 37.7003 264.667 38.4365 264.192C38.9682 263.853 38.4774 263.025 37.9457 263.351C37.0459 263.921 36.2961 264.627 35.6553 265.455C35.2736 265.971 36.1189 266.446 36.5006 265.957Z" fill="#020A13"/>
<path d="M37.0191 258.49C37.8916 258.857 38.6823 259.359 39.3776 259.997C39.8411 260.418 40.5228 259.739 40.0593 259.318C39.2958 258.626 38.4506 258.069 37.5099 257.662C36.9509 257.404 36.4465 258.246 37.0191 258.49Z" fill="#020A13"/>
<path d="M44.5446 257.54C44.8717 256.698 45.8397 256.237 46.6986 256.454C47.3121 256.603 47.5711 255.667 46.9576 255.517C45.5398 255.164 44.1219 255.938 43.6039 257.282C43.3857 257.866 44.3264 258.11 44.5446 257.54Z" fill="#020A13"/>
<path d="M54.6457 256.318C54.4684 257.133 54.1412 257.879 53.6232 258.531C53.2415 259.02 53.9231 259.699 54.3048 259.21C54.932 258.422 55.3682 257.554 55.5727 256.576C55.7227 255.965 54.782 255.707 54.6457 256.318Z" fill="#020A13"/>
<path d="M61.2729 260.187C62.7452 260.024 64.1358 259.563 65.4037 258.803C65.9354 258.477 65.4446 257.635 64.9129 257.961C63.795 258.64 62.5816 259.074 61.2729 259.223C60.6594 259.291 60.6457 260.255 61.2729 260.187Z" fill="#020A13"/>
<path d="M71.9611 256.793C73.1472 256.658 74.3333 256.535 75.5193 256.4C76.1328 256.332 76.1465 255.368 75.5193 255.436C74.3333 255.572 73.1472 255.694 71.9611 255.83C71.3476 255.884 71.3476 256.861 71.9611 256.793Z" fill="#020A13"/>
<path d="M78.0406 256.997C78.5996 258.205 79.3766 259.278 80.3446 260.187C80.7945 260.622 81.4898 259.929 81.0262 259.508C80.1128 258.653 79.3903 257.649 78.8722 256.508C78.6132 255.952 77.7816 256.44 78.0406 256.997Z" fill="#020A13"/>
<path d="M84.5981 261.925C84.5027 263.092 84.0664 264.138 83.3712 265.074C83.0031 265.577 83.8347 266.052 84.2164 265.563C85.0208 264.491 85.457 263.255 85.5797 261.925C85.6206 261.3 84.6527 261.314 84.5981 261.925Z" fill="#020A13"/>
<path d="M86.4798 269.188C86.507 269.976 86.2344 270.681 85.6891 271.238C85.2528 271.686 85.9345 272.365 86.3707 271.917C87.0933 271.184 87.4886 270.206 87.4477 269.175C87.4341 268.564 86.4525 268.564 86.4798 269.188Z" fill="#020A13"/>
<path d="M81.8311 276.953C82.8536 277.822 83.6716 278.881 84.1896 280.116C84.435 280.687 85.3757 280.429 85.1303 279.859C84.5441 278.46 83.6852 277.252 82.5264 276.275C82.0492 275.867 81.3539 276.546 81.8311 276.953Z" fill="#020A13"/>
<path d="M83.1394 284.678C83.2348 285.574 83.1394 286.443 82.8531 287.298C82.6486 287.882 83.5893 288.14 83.7938 287.556C84.121 286.633 84.2301 285.655 84.121 284.678C84.0392 284.067 83.0712 284.067 83.1394 284.678Z" fill="#020A13"/>
<path d="M80.7823 294.575C82.2819 295.091 83.9588 294.643 84.9949 293.462C85.4039 292.986 84.7222 292.308 84.3132 292.783C83.4816 293.733 82.241 294.072 81.0549 293.652C80.4551 293.434 80.1961 294.371 80.7823 294.575Z" fill="#020A13"/>
<path d="M76.7051 295.688C76.5824 296.177 75.4645 296.448 75.0555 296.625C74.4147 296.896 73.7876 297.181 73.1468 297.453C72.5742 297.697 73.065 298.539 73.6376 298.294C74.5374 297.901 75.4508 297.507 76.3506 297.113C76.9232 296.855 77.4549 296.611 77.6321 295.959C77.7957 295.335 76.8687 295.077 76.7051 295.688Z" fill="#020A13"/>
<path d="M78.4778 290.149C78.6278 289.294 78.6687 288.452 78.5869 287.597C78.5323 286.986 77.5507 286.972 77.6189 287.597C77.6871 288.371 77.6734 289.131 77.5371 289.891C77.428 290.502 78.3687 290.76 78.4778 290.149Z" fill="#020A13"/>
<path d="M77.441 278.854C77.9318 280.116 77.5637 281.569 76.4321 282.356C75.9277 282.709 76.4049 283.551 76.9229 283.198C78.3817 282.166 79.0361 280.293 78.3817 278.596C78.1635 278.026 77.2229 278.27 77.441 278.854Z" fill="#020A13"/>
<path d="M79.3913 268.048C79.773 269.201 79.6503 270.342 79.0232 271.387C78.696 271.917 79.5412 272.405 79.8684 271.876C80.6183 270.627 80.7955 269.174 80.332 267.79C80.1275 267.192 79.1868 267.45 79.3913 268.048Z" fill="#020A13"/>
<path d="M76.6638 264.192C76.7047 263.201 76.5139 262.264 76.1049 261.368C75.8458 260.798 75.0142 261.287 75.2596 261.857C75.5868 262.604 75.7231 263.391 75.6822 264.192C75.655 264.817 76.6366 264.803 76.6638 264.192Z" fill="#020A13"/>
<path d="M69.5064 260.594C69.0293 261.355 68.1159 261.748 67.2434 261.558C66.6299 261.436 66.3708 262.373 66.9843 262.495C68.3067 262.767 69.6291 262.223 70.3517 261.083C70.6925 260.567 69.8473 260.079 69.5064 260.594Z" fill="#020A13"/>
<path d="M54.4559 263.215C55.2057 263.826 56.0783 264.151 57.0462 264.192C57.6733 264.206 57.6733 263.242 57.0462 263.228C56.3509 263.201 55.6829 262.984 55.1376 262.536C54.6604 262.142 53.9651 262.821 54.4559 263.215Z" fill="#020A13"/>
<path d="M48.6747 261.531C47.4886 261.911 46.2889 262.034 45.0483 261.898C44.4211 261.83 44.4348 262.807 45.0483 262.862C46.3707 262.997 47.6658 262.862 48.9337 262.454C49.5335 262.278 49.2745 261.341 48.6747 261.531Z" fill="#020A13"/>
<path d="M42.3907 266.554C42.4998 267.233 42.2271 267.953 41.6818 268.373C41.191 268.754 41.6818 269.595 42.1726 269.215C43.0997 268.509 43.5223 267.45 43.3314 266.296C43.236 265.685 42.2953 265.943 42.3907 266.554Z" fill="#020A13"/>
<path d="M46.3584 272.582C46.3584 273.817 46.3584 275.053 46.3584 276.288C46.3584 276.913 47.3263 276.913 47.3263 276.288C47.3263 275.053 47.3263 273.817 47.3263 272.582C47.3263 271.958 46.3584 271.958 46.3584 272.582Z" fill="#020A13"/>
<path d="M43.3312 282.628C43.1813 283.144 43.0449 283.66 42.895 284.176C42.8268 284.434 42.6768 285.425 42.3087 285.479C41.6953 285.56 41.6953 286.524 42.3087 286.443C42.9495 286.361 43.304 285.995 43.5357 285.411C43.8629 284.61 44.0402 283.728 44.2719 282.886C44.4355 282.289 43.4948 282.031 43.3312 282.628Z" fill="#020A13"/>
<path d="M44.9131 289.85C44.9131 291.154 45.0631 292.43 45.3493 293.706C45.4857 294.317 46.4264 294.059 46.29 293.448C46.0174 292.267 45.881 291.072 45.881 289.85C45.881 289.226 44.9131 289.226 44.9131 289.85Z" fill="#020A13"/>
<path d="M50.8163 295.824C52.0705 296.312 53.093 297.317 53.5974 298.566C53.8292 299.136 54.7699 298.892 54.5381 298.308C53.8973 296.72 52.684 295.525 51.0753 294.887C50.4891 294.656 50.2437 295.593 50.8163 295.824Z" fill="#020A13"/>
<path d="M57.9865 295.973C59.2271 295.471 60.4541 294.968 61.6947 294.466C62.2673 294.235 62.0219 293.299 61.4357 293.529C60.195 294.032 58.9681 294.534 57.7275 295.036C57.1549 295.267 57.4139 296.204 57.9865 295.973Z" fill="#020A13"/>
<path d="M68.9622 290.081C68.2532 290.461 67.5579 290.828 66.849 291.208C66.3037 291.506 66.7945 292.335 67.3398 292.049C68.0487 291.669 68.744 291.303 69.4529 290.923C70.0119 290.624 69.5211 289.782 68.9622 290.081Z" fill="#020A13"/>
<path d="M73.1194 291.778C73.0649 290.692 72.874 289.633 72.5605 288.588C72.3832 287.99 71.4425 288.248 71.6198 288.846C71.9061 289.81 72.0833 290.773 72.1378 291.778C72.1787 292.403 73.1467 292.403 73.1194 291.778Z" fill="#020A13"/>
<path d="M70.379 284.488C72.2331 284.936 72.3149 281.583 72.3012 280.483C72.2876 279.859 71.3197 279.859 71.3333 280.483C71.3469 280.823 71.2379 283.701 70.6516 283.551C70.0245 283.415 69.7655 284.352 70.379 284.488Z" fill="#020A13"/>
<path d="M72.5881 274.686C73.1334 274.564 73.6787 274.632 74.1695 274.89C74.7285 275.175 75.2193 274.347 74.6603 274.048C73.9241 273.668 73.1334 273.559 72.3291 273.749C71.7156 273.899 71.9746 274.822 72.5881 274.686Z" fill="#020A13"/>
<path d="M74.6057 269.772C73.3923 268.835 72.4789 267.586 71.9745 266.147C71.77 265.563 70.8293 265.821 71.0338 266.405C71.6473 268.102 72.6834 269.514 74.1149 270.613C74.6193 270.994 75.0965 270.152 74.6057 269.772Z" fill="#020A13"/>
<path d="M66.2476 268.428C64.9661 267.966 63.8482 267.233 62.9075 266.269C62.4713 265.821 61.776 266.514 62.2259 266.948C63.2892 268.034 64.5571 268.835 66.0022 269.365C66.5748 269.568 66.8338 268.645 66.2476 268.428Z" fill="#020A13"/>
<path d="M49.9296 267.79C50.9248 268.048 51.6883 268.794 51.9473 269.785C52.1109 270.383 53.038 270.138 52.888 269.527C52.5472 268.211 51.511 267.192 50.1886 266.853C49.5888 266.704 49.3298 267.64 49.9296 267.79Z" fill="#020A13"/>
<path d="M49.7523 280.483C50.5294 280.497 50.8975 279.872 51.1838 279.234C51.5928 278.284 51.8791 277.293 52.0427 276.261C52.1381 275.65 51.2111 275.392 51.102 276.003C51.0066 276.6 50.8702 277.171 50.693 277.754C50.584 278.121 50.2431 279.519 49.7387 279.519C49.1252 279.506 49.1252 280.483 49.7523 280.483Z" fill="#020A13"/>
<path d="M48.7296 285.221C49.534 286.103 49.9293 287.203 49.9157 288.398C49.9021 289.022 50.87 289.022 50.8837 288.398C50.9109 286.945 50.3929 285.601 49.4113 284.529C49.0023 284.067 48.3206 284.759 48.7296 285.221Z" fill="#020A13"/>
<path d="M53.8149 291.262C54.8101 291.371 55.6962 291.764 56.4733 292.362C56.9641 292.742 57.4549 291.9 56.9641 291.52C56.037 290.814 54.9737 290.407 53.8149 290.285C53.1877 290.23 53.2014 291.208 53.8149 291.262Z" fill="#020A13"/>
<path d="M61.6261 287.244C61.8578 286.09 62.5395 285.139 63.5892 284.569C64.1346 284.271 63.6438 283.429 63.0984 283.728C61.8578 284.406 60.9717 285.601 60.699 286.986C60.5627 287.597 61.5034 287.855 61.6261 287.244Z" fill="#020A13"/>
<path d="M67.9385 277.415C67.8294 275.976 67.4477 274.618 66.8069 273.329C66.5343 272.772 65.689 273.261 65.9617 273.817C66.5206 274.958 66.8615 276.152 66.9569 277.415C67.025 278.039 67.993 278.039 67.9385 277.415Z" fill="#020A13"/>
<path d="M61.027 271.347C60.1408 270.858 59.3092 270.301 58.5321 269.65C58.0549 269.256 57.3597 269.935 57.8504 270.328C58.6957 271.021 59.5819 271.645 60.5362 272.175C61.0815 272.487 61.5723 271.645 61.027 271.347Z" fill="#020A13"/>
<path d="M55.5877 273.356C55.8603 274.496 56.5829 275.474 57.6054 276.071C58.1507 276.383 58.6415 275.555 58.0962 275.229C57.2918 274.754 56.7465 274.008 56.5284 273.098C56.392 272.501 55.4514 272.745 55.5877 273.356Z" fill="#020A13"/>
<path d="M62.8804 276.098C63.2349 277.279 63.044 278.447 62.3488 279.465C61.9943 279.981 62.8395 280.469 63.194 279.954C64.0393 278.745 64.2574 277.252 63.8348 275.84C63.6439 275.256 62.7032 275.501 62.8804 276.098Z" fill="#020A13"/>
<path d="M53.9243 282.75C55.0967 282.234 56.0374 281.352 56.6509 280.239C56.9508 279.696 56.1192 279.207 55.8056 279.75C55.2603 280.727 54.4423 281.46 53.4199 281.908C52.8609 282.166 53.3517 283.008 53.9243 282.75Z" fill="#020A13"/>
<path d="M58.1374 283.714C58.0965 284.474 57.7693 285.126 57.1967 285.628C56.7332 286.049 57.4149 286.728 57.8784 286.307C58.6282 285.628 59.0508 284.705 59.0917 283.701C59.1326 283.09 58.1647 283.103 58.1374 283.714Z" fill="#020A13"/>
</g>
<g clip-path="url(#clip1)">
<path d="M80.694 273.461C77.1861 271.951 73.2655 272.294 69.6201 271.333C57.9271 268.174 53.9377 261.72 56.7578 249.911C57.2393 247.782 57.7895 245.723 58.3398 243.663C58.8213 242.633 58.8213 241.466 59.1652 240.436C62.9482 232.54 67.4878 225.125 71.8899 217.572C72.5777 216.405 73.1279 215.1 74.7787 214.963C76.0856 215.1 76.9797 216.062 78.0115 216.748C85.7839 221.623 95.2758 217.847 97.4768 208.99C97.752 207.822 98.4398 206.243 96.8578 205.694C95.207 205.145 94.3816 206.449 94.1065 207.891C93.4875 210.775 91.6991 212.766 89.2917 214.208C85.1648 216.68 80.6252 215.238 77.2549 210.569C76.9797 209.196 77.8051 208.166 78.4242 207.136C81.6569 201.643 85.5775 196.562 89.4981 191.55C94.3816 185.233 101.053 181.663 108.482 179.329C112.54 178.024 116.392 175.69 120.863 175.964C123.064 178.779 124.99 181.938 129.461 181.594C134.069 181.182 136.339 178.642 135.651 173.973C135.513 173.149 135.376 172.394 136.064 171.776C138.609 170.884 141.085 169.716 143.836 170.334C144.386 170.609 144.524 171.158 144.661 171.776C146.106 182.212 159.587 185.439 165.64 178.985C165.984 178.642 166.328 178.436 166.74 178.23C168.391 178.161 168.666 179.603 169.285 180.633C171.693 184.478 173.825 188.529 176.507 192.237C179.671 196.631 182.423 197.249 187.375 195.052C192.396 192.855 196.179 189.422 199.068 184.959C201.2 181.594 203.333 178.23 206.703 175.827C210.623 173.905 214.269 174.866 217.777 176.994C222.248 179.741 226.306 183.105 229.951 186.95C231.327 188.392 231.533 189.765 230.364 191.55C222.935 203.016 214.406 213.59 205.121 223.614C201.2 227.802 196.386 229.862 190.952 230.549C185.036 231.304 179.121 232.197 173.206 230.961C172.243 230.755 171.005 230.343 170.386 231.373C169.904 232.197 170.799 233.089 171.142 233.913C172.587 236.797 174.444 239.406 176.026 242.221C178.984 247.508 178.64 249.362 174.306 253.619C172.724 255.129 171.005 256.434 169.285 257.738C165.915 259.386 162.682 261.308 159.106 262.613C158.624 262.682 158.005 262.75 157.799 262.476C155.323 258.768 150.921 258.699 147.413 256.983C143.561 249.98 134.413 246.959 126.297 253.687C125.678 253.962 124.99 254.031 124.302 254.099C115.085 254.992 110.752 260.553 112.059 269.822C112.127 270.166 111.99 270.509 111.784 270.784C107.45 273.118 102.567 272.637 98.0271 273.667C93.5562 273.393 89.1542 274.628 84.6833 274.011C83.3765 273.805 82.0696 273.255 80.694 273.461Z" fill="#3D97E6"/>
<g opacity="0.5" clip-path="url(#clip2)">
<path d="M263.441 357.84C263.498 358.014 263.556 358.189 263.437 358.421C263.494 358.596 263.318 358.653 263.199 358.885C263.08 359.118 262.904 359.175 262.727 359.233C262.551 359.29 262.375 359.348 262.142 359.231C261.966 359.289 261.909 359.114 261.676 358.997C261.442 358.881 261.328 358.532 261.271 358.357C261.214 358.183 261.157 358.008 261.333 357.95C261.452 357.718 261.571 357.486 261.747 357.428C261.923 357.371 262.042 357.139 262.275 357.256C262.451 357.198 262.627 357.14 262.685 357.315C262.918 357.432 263.151 357.549 263.208 357.723C263.327 357.491 263.384 357.665 263.441 357.84Z" fill="black"/>
<path d="M253.485 344.097C253.604 343.865 253.604 343.865 253.723 343.633C253.842 343.401 254.194 343.285 254.547 343.17C255.013 343.404 255.303 343.695 255.77 343.929C255.827 344.103 255.884 344.278 255.765 344.51L255.646 344.742C255.408 345.206 254.88 345.379 254.471 345.32C253.709 345.376 253.305 344.736 253.485 344.097Z" fill="black"/>
<path d="M248.765 348.733C248.584 349.372 247.937 349.777 247.47 349.543C246.828 349.367 246.423 348.727 246.661 348.263C246.842 347.624 247.489 347.219 247.956 347.452C248.541 347.454 248.945 348.094 248.765 348.733Z" fill="black"/>
<path d="M259.63 351.552C259.449 352.191 258.802 352.596 258.335 352.363C257.693 352.186 257.288 351.546 257.526 351.082C257.707 350.443 258.354 350.038 258.821 350.272C259.463 350.448 259.811 350.914 259.63 351.552Z" fill="black"/>
<path d="M241.831 351.968C241.888 352.143 241.945 352.317 241.826 352.55C241.883 352.724 241.707 352.782 241.588 353.014C241.293 353.304 240.765 353.477 240.356 353.417C239.946 353.358 239.599 352.892 239.485 352.543C239.427 352.369 239.37 352.194 239.546 352.137C239.665 351.904 239.784 351.672 239.96 351.615C240.256 351.325 240.608 351.21 241.074 351.443C241.426 351.328 241.717 351.619 241.831 351.968Z" fill="black"/>
<path d="M252.695 354.788C252.752 354.963 252.809 355.137 252.69 355.37C252.748 355.544 252.571 355.602 252.452 355.834C252.157 356.124 251.629 356.297 251.22 356.237C250.811 356.178 250.463 355.712 250.349 355.363C250.292 355.189 250.235 355.014 250.411 354.956C250.53 354.724 250.649 354.492 250.825 354.435C251.12 354.145 251.472 354.03 251.938 354.263C252.405 354.497 252.581 354.439 252.695 354.788Z" fill="black"/>
<path d="M234.033 338.872C233.852 339.51 233.205 339.915 232.739 339.682C232.096 339.506 231.692 338.865 231.93 338.401L232.049 338.169C232.286 337.704 232.815 337.532 233.4 337.533C233.633 337.65 233.867 337.767 233.981 338.116C234.214 338.233 234.152 338.639 234.033 338.872Z" fill="black"/>
<path d="M227.151 342.863C226.971 343.502 226.323 343.907 225.857 343.673C225.214 343.497 224.81 342.856 225.048 342.392C225.229 341.753 225.876 341.348 226.342 341.582C226.928 341.584 227.332 342.224 227.151 342.863Z" fill="black"/>
<path d="M238.019 345.682C237.838 346.321 237.19 346.726 236.724 346.492C236.082 346.316 235.677 345.675 235.915 345.211C236.096 344.572 236.743 344.167 237.209 344.401C237.852 344.577 238.199 345.043 238.019 345.682Z" fill="black"/>
<path d="M220.218 346.098C220.275 346.273 220.332 346.447 220.213 346.679C220.27 346.854 220.094 346.912 219.975 347.144C219.856 347.376 219.68 347.434 219.504 347.491C219.328 347.549 219.152 347.606 218.918 347.49C218.742 347.547 218.685 347.373 218.452 347.256C218.219 347.139 218.105 346.79 218.047 346.615C217.99 346.441 217.933 346.266 218.109 346.209C218.228 345.977 218.347 345.744 218.523 345.687C218.699 345.629 218.818 345.397 219.052 345.514C219.228 345.456 219.404 345.399 219.461 345.573C219.694 345.69 219.927 345.807 219.984 345.981C220.103 345.749 220.161 345.924 220.218 346.098Z" fill="black"/>
<path d="M231.084 348.917C231.141 349.092 231.198 349.266 231.079 349.498C231.136 349.673 230.96 349.731 230.841 349.963C230.546 350.253 230.018 350.425 229.608 350.366C229.199 350.307 228.852 349.841 228.738 349.492C228.68 349.318 228.623 349.143 228.799 349.085C228.918 348.853 229.037 348.621 229.213 348.563C229.509 348.274 229.861 348.158 230.327 348.392C230.679 348.277 230.97 348.568 231.084 348.917Z" fill="black"/>
<path d="M242.795 341.22C242.976 340.581 243.623 340.176 244.089 340.41C244.732 340.586 245.136 341.227 244.898 341.691C244.718 342.33 244.07 342.735 243.604 342.501C242.961 342.325 242.614 341.859 242.795 341.22Z" fill="black"/>
<path d="M260.539 369.223C260.477 369.63 260.182 369.919 259.83 370.035C259.654 370.092 259.478 370.15 259.245 370.033C259.068 370.091 259.011 369.916 258.778 369.799C258.488 369.508 258.316 368.984 258.378 368.578C258.44 368.171 258.911 367.824 259.264 367.708C259.44 367.651 259.616 367.593 259.673 367.768C259.906 367.884 260.139 368.001 260.196 368.176C260.487 368.467 260.601 368.816 260.539 369.223Z" fill="black"/>
<path d="M269.068 371.454C269.187 371.222 269.306 370.99 269.482 370.932C269.601 370.7 269.953 370.585 270.187 370.702C270.239 371.457 270.467 372.155 270.52 372.911L270.344 372.969C270.168 373.026 270.168 373.026 269.934 372.909C269.934 372.909 269.758 372.967 269.701 372.793C269.235 372.559 268.887 372.093 269.068 371.454Z" fill="black"/>
<path d="M264.347 376.091C264.166 376.73 263.519 377.135 263.052 376.901C262.41 376.725 262.005 376.084 262.243 375.62C262.424 374.981 263.071 374.576 263.538 374.81C264.123 374.812 264.528 375.452 264.347 376.091Z" fill="black"/>
<path d="M267.422 365.231C267.241 365.87 266.594 366.275 266.127 366.041C265.485 365.865 265.08 365.225 265.318 364.76C265.499 364.122 266.146 363.717 266.613 363.95C267.255 364.126 267.603 364.592 267.422 365.231Z" fill="black"/>
<path d="M257.413 379.326C257.47 379.501 257.527 379.675 257.408 379.907C257.346 380.314 257.051 380.604 256.699 380.719C256.523 380.777 256.347 380.834 256.114 380.717C255.938 380.775 255.88 380.601 255.647 380.484C255.357 380.192 255.186 379.669 255.247 379.262C255.366 379.03 255.485 378.798 255.661 378.74C255.838 378.683 255.957 378.45 256.19 378.567C256.366 378.51 256.542 378.452 256.599 378.627C256.832 378.743 257.065 378.86 257.123 379.035C257.299 378.977 257.356 379.152 257.413 379.326Z" fill="black"/>
<path d="M268.278 382.145C268.335 382.32 268.392 382.494 268.273 382.727C268.093 383.365 267.445 383.77 266.979 383.537C266.336 383.361 265.932 382.72 266.17 382.256C266.289 382.024 266.408 381.792 266.584 381.734C266.879 381.444 267.231 381.329 267.698 381.563C267.874 381.505 268.164 381.796 268.278 382.145Z" fill="black"/>
<path d="M238.928 363.352C238.747 363.991 238.1 364.396 237.633 364.162C236.991 363.986 236.586 363.346 236.824 362.881C237.005 362.242 237.652 361.837 238.119 362.071C238.704 362.073 239.109 362.713 238.928 363.352Z" fill="black"/>
<path d="M249.617 366.229C249.436 366.867 248.789 367.272 248.323 367.039C247.68 366.863 247.276 366.222 247.514 365.758C247.694 365.119 248.342 364.714 248.808 364.948C249.451 365.124 249.798 365.59 249.617 366.229Z" fill="black"/>
<path d="M242.735 370.22C242.555 370.859 241.907 371.264 241.441 371.03C240.798 370.854 240.394 370.214 240.632 369.749C240.813 369.111 241.46 368.706 241.926 368.939C242.512 368.941 242.916 369.581 242.735 370.22Z" fill="black"/>
<path d="M245.808 359.361C245.627 360 244.98 360.405 244.513 360.171C243.871 359.995 243.466 359.355 243.704 358.89C243.885 358.252 244.532 357.847 244.998 358.08C245.641 358.256 245.988 358.722 245.808 359.361Z" fill="black"/>
<path d="M253.6 373.039C253.419 373.678 252.771 374.083 252.305 373.849C251.663 373.673 251.258 373.033 251.496 372.569C251.677 371.93 252.324 371.525 252.79 371.759C253.433 371.935 253.78 372.401 253.6 373.039Z" fill="black"/>
<path d="M256.555 362.412C256.374 363.051 255.727 363.456 255.26 363.222C254.618 363.046 254.213 362.406 254.451 361.942C254.632 361.303 255.279 360.898 255.746 361.131C256.331 361.133 256.736 361.773 256.555 362.412Z" fill="black"/>
<path d="M235.8 373.456C235.857 373.63 235.914 373.805 235.795 374.037C235.614 374.675 234.967 375.081 234.5 374.847C233.858 374.671 233.453 374.03 233.691 373.566C233.81 373.334 233.929 373.102 234.105 373.044C234.4 372.754 234.753 372.639 235.219 372.873C235.395 372.815 235.685 373.107 235.8 373.456Z" fill="black"/>
<path d="M246.665 376.275C246.722 376.45 246.779 376.624 246.66 376.856C246.479 377.495 245.832 377.9 245.366 377.666C244.723 377.49 244.319 376.85 244.557 376.386C244.675 376.154 244.794 375.921 244.971 375.864C245.266 375.574 245.618 375.459 246.084 375.692C246.26 375.635 246.551 375.926 246.665 376.275Z" fill="black"/>
<path d="M217.258 357.307C217.196 357.713 216.901 358.003 216.549 358.119C216.373 358.176 216.196 358.234 215.963 358.117C215.787 358.175 215.73 358 215.497 357.883C215.207 357.592 215.035 357.068 215.097 356.662C215.159 356.255 215.63 355.908 215.982 355.792C216.158 355.735 216.334 355.677 216.392 355.852C216.625 355.968 216.858 356.085 216.915 356.26C217.263 356.726 217.377 357.075 217.258 357.307Z" fill="black"/>
<path d="M228.005 360.358C227.824 360.997 227.177 361.402 226.71 361.168C226.244 360.935 225.663 360.352 225.901 359.888C226.082 359.249 226.729 358.844 227.196 359.077C227.781 359.079 228.185 359.719 228.005 360.358Z" fill="black"/>
<path d="M221.064 364.175C220.884 364.814 220.236 365.219 219.77 364.985C219.127 364.809 218.723 364.169 218.961 363.704C219.142 363.066 219.789 362.66 220.255 362.894C220.898 363.07 221.302 363.711 221.064 364.175Z" fill="black"/>
<path d="M224.196 353.49C224.015 354.129 223.368 354.534 222.902 354.3C222.259 354.124 221.855 353.484 222.093 353.019C222.273 352.381 222.921 351.976 223.387 352.209C223.973 352.211 224.377 352.851 224.196 353.49Z" fill="black"/>
<path d="M231.988 367.169C231.807 367.807 231.16 368.212 230.694 367.979C230.051 367.803 229.647 367.162 229.885 366.698C230.065 366.059 230.713 365.654 231.179 365.888C231.765 365.889 232.169 366.53 231.988 367.169Z" fill="black"/>
<path d="M234.943 356.541C234.763 357.18 234.115 357.585 233.649 357.351C233.006 357.175 232.602 356.535 232.84 356.071C233.021 355.432 233.668 355.027 234.134 355.261C234.72 355.262 235.124 355.903 234.943 356.541Z" fill="black"/>
<path d="M214.131 367.411C214.188 367.585 214.245 367.76 214.126 367.992C214.064 368.399 213.769 368.688 213.417 368.804C213.241 368.861 213.065 368.919 212.831 368.802C212.655 368.86 212.598 368.685 212.365 368.568C212.075 368.277 211.903 367.753 211.965 367.347C212.084 367.115 212.203 366.883 212.379 366.825C212.555 366.767 212.674 366.535 212.908 366.652C213.084 366.594 213.26 366.537 213.317 366.711C213.55 366.828 213.783 366.945 213.84 367.119C214.074 367.236 214.131 367.411 214.131 367.411Z" fill="black"/>
<path d="M225.054 370.404C225.111 370.579 225.168 370.753 225.049 370.985C224.868 371.624 224.221 372.029 223.754 371.796C223.112 371.619 222.707 370.979 222.945 370.515C223.064 370.283 223.183 370.051 223.359 369.993C223.654 369.703 224.007 369.588 224.473 369.822C224.649 369.764 224.939 370.055 225.054 370.404Z" fill="black"/>
<path d="M206.392 354.487C206.388 355.068 205.683 355.299 205.098 355.297C204.455 355.121 204.051 354.481 204.289 354.017C204.47 353.378 205.117 352.973 205.583 353.207C206.169 353.208 206.573 353.849 206.392 354.487Z" fill="black"/>
<path d="M199.453 358.304C199.334 358.536 199.391 358.711 199.215 358.769C198.92 359.058 198.568 359.174 198.158 359.114C198.515 358.418 198.929 357.896 199.286 357.2C199.577 357.491 199.748 358.015 199.453 358.304Z" fill="black"/>
<path d="M210.375 361.298C210.194 361.937 209.547 362.342 209.08 362.108C208.438 361.932 208.033 361.292 208.271 360.828C208.452 360.189 209.099 359.784 209.566 360.018C210.151 360.019 210.556 360.66 210.375 361.298Z" fill="black"/>
<path d="M213.274 350.496C213.094 351.135 212.446 351.54 211.98 351.306C211.337 351.13 210.933 350.489 211.171 350.025C211.352 349.386 211.999 348.981 212.465 349.215C213.108 349.391 213.512 350.031 213.274 350.496Z" fill="black"/>
<path d="M203.441 364.534C203.498 364.708 203.555 364.883 203.436 365.115C203.255 365.754 202.608 366.159 201.965 365.983C201.323 365.807 200.918 365.166 201.156 364.702C201.275 364.47 201.394 364.238 201.57 364.18C201.865 363.89 202.217 363.775 202.684 364.009C203.036 363.893 203.326 364.185 203.441 364.534Z" fill="black"/>
<path d="M275.945 396.638C275.764 397.277 275.117 397.682 274.651 397.448C274.008 397.272 273.604 396.632 273.842 396.167C274.023 395.528 274.67 395.123 275.136 395.357C275.898 395.301 276.126 395.999 275.945 396.638Z" fill="black"/>
<path d="M279.93 403.448C279.749 404.087 279.102 404.492 278.635 404.258C277.993 404.082 277.588 403.441 277.826 402.977C278.007 402.338 278.654 401.933 279.121 402.167C279.706 402.169 280.111 402.809 279.93 403.448Z" fill="black"/>
<path d="M290.619 406.325C290.438 406.963 289.791 407.368 289.325 407.135C288.682 406.959 288.278 406.318 288.516 405.854C288.577 405.447 289.049 405.1 289.401 404.985C289.577 404.927 289.753 404.869 289.81 405.044C290.453 405.22 290.8 405.686 290.619 406.325Z" fill="black"/>
<path d="M272.933 407.09C272.933 407.09 272.991 407.265 272.814 407.322C272.872 407.497 272.695 407.555 272.576 407.787C272.281 408.077 271.753 408.249 271.344 408.19C270.935 408.131 270.587 407.665 270.473 407.316C270.416 407.142 270.359 406.967 270.535 406.909C270.535 406.909 270.478 406.735 270.654 406.677C270.892 406.213 271.42 406.04 272.005 406.042C272.767 405.986 273.114 406.452 272.933 407.09Z" fill="black"/>
<path d="M283.856 410.084C283.856 410.084 283.913 410.259 283.737 410.316C283.794 410.491 283.618 410.548 283.499 410.78C283.204 411.07 282.676 411.243 282.267 411.184C281.857 411.125 281.51 410.659 281.396 410.31C281.339 410.135 281.281 409.961 281.458 409.903C281.458 409.903 281.4 409.729 281.577 409.671C281.815 409.207 282.343 409.034 282.928 409.035C283.514 409.037 283.861 409.503 283.856 410.084Z" fill="black"/>
<path d="M254.51 390.709C254.448 391.116 254.153 391.406 253.801 391.521C253.625 391.579 253.448 391.636 253.215 391.52C253.039 391.577 252.982 391.403 252.749 391.286C252.458 390.994 252.287 390.471 252.349 390.064C252.411 389.658 252.882 389.31 253.234 389.195C253.41 389.137 253.586 389.08 253.644 389.254C253.877 389.371 254.11 389.488 254.167 389.662C254.457 389.954 254.572 390.303 254.51 390.709Z" fill="black"/>
<path d="M265.198 393.586C265.017 394.225 264.37 394.63 263.904 394.396C263.261 394.22 262.857 393.58 263.095 393.116C263.275 392.477 263.923 392.072 264.389 392.305C265.032 392.482 265.379 392.947 265.198 393.586Z" fill="black"/>
<path d="M258.316 397.578C258.136 398.216 257.488 398.621 257.022 398.388C256.379 398.212 255.975 397.571 256.213 397.107C256.394 396.468 257.041 396.063 257.507 396.297C258.093 396.298 258.497 396.939 258.316 397.578Z" fill="black"/>
<path d="M261.392 386.718C261.211 387.357 260.564 387.762 260.097 387.528C259.455 387.352 259.05 386.712 259.288 386.247C259.469 385.608 260.116 385.203 260.582 385.437C261.225 385.613 261.396 386.137 261.392 386.718Z" fill="black"/>
<path d="M269.006 400.454C268.825 401.093 268.178 401.498 267.711 401.265C267.069 401.088 266.664 400.448 266.902 399.984C267.083 399.345 267.73 398.94 268.197 399.174C269.015 399.292 269.187 399.816 269.006 400.454Z" fill="black"/>
<path d="M272.139 389.769C271.958 390.408 271.311 390.813 270.844 390.579C270.202 390.403 269.797 389.763 270.035 389.299C270.216 388.66 270.863 388.255 271.33 388.489C271.915 388.49 272.319 389.131 272.139 389.769Z" fill="black"/>
<path d="M251.498 401.162C251.498 401.162 251.555 401.336 251.379 401.394C251.436 401.569 251.26 401.626 251.141 401.858C251.022 402.091 250.846 402.148 250.67 402.206C250.494 402.263 250.318 402.321 250.084 402.204C249.908 402.262 249.851 402.087 249.618 401.97C249.385 401.854 249.271 401.505 249.213 401.33C249.156 401.156 249.099 400.981 249.275 400.923C249.275 400.923 249.218 400.749 249.394 400.691C249.513 400.459 249.808 400.169 250.161 400.054C250.337 399.996 250.513 399.939 250.57 400.113C250.803 400.23 251.036 400.347 251.093 400.522C251.327 400.638 251.384 400.813 251.498 401.162Z" fill="black"/>
<path d="M262.243 404.214C262.243 404.214 262.3 404.388 262.124 404.446C262.181 404.621 262.005 404.678 261.886 404.91C261.591 405.2 261.063 405.373 260.653 405.314C260.244 405.255 259.897 404.789 259.782 404.44C259.725 404.265 259.668 404.091 259.844 404.033C259.844 404.033 259.787 403.859 259.963 403.801C260.201 403.337 260.73 403.164 261.315 403.165C261.9 403.167 262.248 403.633 262.243 404.214Z" fill="black"/>
<path d="M232.841 384.664C232.66 385.303 232.013 385.708 231.546 385.474C230.904 385.298 230.499 384.658 230.737 384.193C230.918 383.555 231.565 383.149 232.032 383.383C232.674 383.559 232.903 384.257 232.841 384.664Z" fill="black"/>
<path d="M243.587 387.715C243.406 388.354 242.759 388.759 242.292 388.526C241.65 388.349 241.245 387.709 241.483 387.245C241.664 386.606 242.311 386.201 242.778 386.435C243.363 386.436 243.768 387.077 243.587 387.715Z" fill="black"/>
<path d="M236.648 391.532C236.468 392.171 235.82 392.576 235.354 392.342C234.711 392.166 234.307 391.526 234.545 391.061C234.726 390.423 235.373 390.018 235.839 390.251C236.482 390.427 236.886 391.068 236.648 391.532Z" fill="black"/>
<path d="M239.78 380.847C239.599 381.486 238.951 381.891 238.485 381.657C237.666 381.539 237.438 380.841 237.619 380.202C237.8 379.563 238.447 379.158 238.913 379.392C239.556 379.568 239.784 380.266 239.78 380.847Z" fill="black"/>
<path d="M247.57 394.526C247.389 395.165 246.742 395.57 246.276 395.336C245.633 395.16 245.229 394.52 245.467 394.056C245.648 393.417 246.295 393.012 246.761 393.245C247.347 393.247 247.575 393.945 247.57 394.526Z" fill="black"/>
<path d="M250.526 383.898C250.346 384.537 249.698 384.942 249.232 384.709C248.589 384.532 248.185 383.892 248.423 383.428C248.604 382.789 249.251 382.384 249.717 382.618C250.303 382.619 250.707 383.26 250.526 383.898Z" fill="black"/>
<path d="M229.885 395.292C229.885 395.292 229.942 395.466 229.766 395.524C229.823 395.698 229.647 395.756 229.528 395.988C229.233 396.278 228.704 396.451 228.295 396.392C227.886 396.332 227.538 395.866 227.424 395.517C227.367 395.343 227.31 395.168 227.486 395.111C227.486 395.111 227.429 394.936 227.605 394.879C227.843 394.414 228.371 394.241 228.957 394.243C229.542 394.245 229.889 394.711 229.885 395.292Z" fill="black"/>
<path d="M240.574 398.168C240.574 398.168 240.631 398.343 240.455 398.4C240.512 398.575 240.336 398.632 240.217 398.865C239.922 399.154 239.394 399.327 238.984 399.268C238.575 399.209 238.228 398.743 238.113 398.394C238.056 398.219 237.999 398.045 238.175 397.987C238.175 397.987 238.118 397.813 238.294 397.755C238.532 397.291 239.061 397.118 239.646 397.119C240.288 397.296 240.636 397.761 240.574 398.168Z" fill="black"/>
<path d="M211.228 378.793C211.167 379.2 210.872 379.49 210.519 379.605C210.343 379.663 210.167 379.72 209.934 379.603C209.758 379.661 209.701 379.487 209.468 379.37C209.177 379.078 209.006 378.555 209.068 378.148C209.13 377.742 209.601 377.394 209.953 377.279C210.129 377.221 210.305 377.164 210.362 377.338C210.595 377.455 210.829 377.572 210.886 377.746C211.176 378.038 211.347 378.561 211.228 378.793Z" fill="black"/>
<path d="M221.974 381.845C221.793 382.484 221.146 382.889 220.679 382.655C220.037 382.479 219.632 381.839 219.87 381.375C220.051 380.736 220.698 380.331 221.164 380.564C221.75 380.566 222.154 381.206 221.974 381.845Z" fill="black"/>
<path d="M215.036 385.661C214.855 386.3 214.208 386.705 213.742 386.471C213.099 386.295 212.695 385.655 212.932 385.191C213.113 384.552 213.761 384.147 214.227 384.381C214.87 384.557 215.274 385.197 215.036 385.661Z" fill="black"/>
<path d="M218.167 374.976C217.986 375.615 217.339 376.02 216.872 375.786C216.23 375.61 215.825 374.97 216.063 374.506C216.244 373.867 216.891 373.462 217.358 373.696C217.943 373.697 218.348 374.338 218.167 374.976Z" fill="black"/>
<path d="M225.958 388.655C225.777 389.294 225.13 389.699 224.663 389.465C224.021 389.289 223.616 388.649 223.854 388.185C224.035 387.546 224.682 387.141 225.149 387.375C225.734 387.376 225.963 388.074 225.958 388.655Z" fill="black"/>
<path d="M228.856 377.854C228.676 378.492 228.028 378.897 227.562 378.664C226.919 378.488 226.515 377.847 226.753 377.383C226.934 376.744 227.581 376.339 228.047 376.573C228.69 376.749 229.094 377.389 228.856 377.854Z" fill="black"/>
<path d="M208.273 389.42C208.273 389.42 208.33 389.595 208.154 389.653C208.211 389.827 208.035 389.885 207.916 390.117C207.797 390.349 207.621 390.407 207.445 390.464C207.269 390.522 207.093 390.58 206.86 390.463C206.684 390.52 206.627 390.346 206.393 390.229C206.16 390.112 206.046 389.763 205.989 389.589C205.932 389.414 205.875 389.24 206.051 389.182C206.051 389.182 205.994 389.007 206.17 388.95C206.289 388.718 206.584 388.428 206.936 388.313C207.112 388.255 207.288 388.197 207.345 388.372C207.578 388.489 207.812 388.606 207.869 388.78C208.102 388.897 208.159 389.071 208.273 389.42Z" fill="black"/>
<path d="M218.963 392.298C218.963 392.298 219.02 392.472 218.844 392.53C218.901 392.704 218.725 392.762 218.606 392.994C218.311 393.284 217.782 393.457 217.373 393.398C216.964 393.338 216.616 392.872 216.502 392.523C216.445 392.349 216.388 392.174 216.564 392.117C216.564 392.117 216.507 391.942 216.683 391.885C216.921 391.42 217.449 391.247 218.035 391.249C218.677 391.425 219.025 391.891 218.963 392.298Z" fill="black"/>
<path d="M200.362 375.974C200.181 376.613 199.534 377.018 199.068 376.784C198.425 376.608 198.021 375.968 198.259 375.503C198.44 374.865 199.087 374.46 199.553 374.693C200.139 374.695 200.543 375.335 200.362 375.974Z" fill="black"/>
<path d="M193.424 379.791C193.481 379.965 193.305 380.023 193.186 380.255C193.067 380.487 192.714 380.603 192.362 380.718C192.31 379.962 192.258 379.207 192.205 378.451C192.205 378.451 192.381 378.393 192.438 378.568C192.672 378.685 192.905 378.801 192.962 378.976C193.547 378.978 193.485 379.384 193.424 379.791Z" fill="black"/>
<path d="M196.555 369.106C196.374 369.745 195.727 370.15 195.26 369.916C194.851 369.857 194.794 369.682 194.561 369.565C194.27 369.274 194.156 368.925 194.394 368.461C194.456 368.054 194.751 367.764 195.279 367.591C195.455 367.534 195.631 367.476 195.865 367.593C196.331 367.827 196.736 368.467 196.555 369.106Z" fill="black"/>
<path d="M204.347 382.785C204.166 383.423 203.519 383.828 203.052 383.595C202.41 383.419 202.005 382.778 202.243 382.314C202.191 381.558 202.895 381.328 203.48 381.329C204.123 381.505 204.528 382.146 204.347 382.785Z" fill="black"/>
<path d="M207.245 371.983C207.064 372.622 206.417 373.027 205.951 372.793C205.308 372.617 204.904 371.976 205.141 371.512C205.322 370.873 205.97 370.468 206.436 370.702C207.079 370.878 207.483 371.519 207.245 371.983Z" fill="black"/>
<path d="M197.349 386.427C197.349 386.427 197.407 386.602 197.23 386.659C197.288 386.834 197.111 386.892 196.993 387.124C196.697 387.413 196.169 387.586 195.76 387.527C195.351 387.468 195.003 387.002 194.889 386.653C194.832 386.478 194.775 386.304 194.951 386.246C194.951 386.246 194.894 386.072 195.07 386.014C195.308 385.55 195.836 385.377 196.421 385.379C197.007 385.38 197.411 386.021 197.349 386.427Z" fill="black"/>
<path d="M291.529 423.995C291.467 424.401 291.172 424.691 290.82 424.806C290.644 424.864 290.468 424.922 290.235 424.805C290.059 424.862 290.002 424.688 289.768 424.571C289.478 424.28 289.307 423.756 289.369 423.35C289.43 422.943 289.902 422.595 290.254 422.48C290.43 422.423 290.606 422.365 290.663 422.539C290.896 422.656 291.129 422.773 291.187 422.948C291.653 423.181 291.591 423.588 291.529 423.995Z" fill="black"/>
<path d="M269.978 417.718C270.035 417.892 270.035 417.892 269.859 417.95C269.74 418.182 269.798 418.356 269.621 418.414L269.445 418.472C269.274 417.948 269.16 417.599 268.988 417.076C268.931 416.901 268.817 416.552 268.76 416.378C268.936 416.32 268.936 416.32 269.169 416.437C269.402 416.554 269.636 416.67 269.693 416.845C269.807 417.194 270.097 417.485 269.978 417.718Z" fill="black"/>
<path d="M280.782 420.943C280.601 421.582 279.954 421.987 279.488 421.754C278.845 421.577 278.441 420.937 278.679 420.473C278.859 419.834 279.507 419.429 279.973 419.663C280.616 419.839 280.963 420.305 280.782 420.943Z" fill="black"/>
<path d="M273.9 424.935C273.838 425.342 273.367 425.689 273.015 425.804L272.838 425.862C272.838 425.862 272.662 425.919 272.605 425.745C271.963 425.569 271.558 424.928 271.796 424.464C271.739 424.29 271.915 424.232 272.034 424L272.21 423.942C272.505 423.653 272.857 423.537 273.324 423.771C273.676 423.656 274.081 424.296 273.9 424.935Z" fill="black"/>
<path d="M276.798 414.133C276.617 414.772 275.97 415.177 275.503 414.943C274.861 414.767 274.456 414.126 274.694 413.662C274.875 413.023 275.522 412.618 275.989 412.852C276.631 413.028 276.979 413.494 276.798 414.133Z" fill="black"/>
<path d="M284.589 427.812C284.408 428.451 283.761 428.856 283.294 428.622C282.652 428.446 282.247 427.806 282.485 427.341C282.666 426.703 283.313 426.298 283.78 426.531C284.422 426.707 284.77 427.173 284.589 427.812Z" fill="black"/>
<path d="M287.722 417.127C287.541 417.765 286.894 418.17 286.427 417.937C285.785 417.761 285.38 417.12 285.618 416.656C285.799 416.017 286.446 415.612 286.913 415.846C287.498 415.847 287.903 416.488 287.722 417.127Z" fill="black"/>
<path d="M277.655 431.047C277.712 431.222 277.769 431.396 277.65 431.629C277.707 431.803 277.588 432.035 277.469 432.267L277.293 432.325C276.826 432.091 276.303 431.683 275.955 431.217C275.898 431.043 275.722 431.1 275.665 430.926C275.665 430.926 275.784 430.694 275.96 430.636C276.136 430.578 276.136 430.578 276.312 430.521C276.489 430.463 276.841 430.348 277.074 430.465C277.25 430.407 277.54 430.698 277.655 431.047Z" fill="black"/>
<path d="M266.114 410.675C266.171 410.849 266.171 410.849 266.052 411.081C265.933 411.314 265.933 411.314 265.814 411.546C265.467 411.08 264.943 410.672 264.363 410.089C264.363 410.089 264.306 409.914 264.13 409.972C264.425 409.682 264.601 409.624 265.01 409.684C265.01 409.684 265.01 409.684 265.186 409.626C265.71 410.034 266 410.326 266.114 410.675Z" fill="black"/>
<path d="M226.811 406.151C226.63 406.79 225.982 407.195 225.516 406.961C224.874 406.785 224.469 406.145 224.707 405.68C224.888 405.042 225.535 404.637 226.001 404.87C226.644 405.046 226.872 405.744 226.811 406.151Z" fill="black"/>
<path d="M233.75 402.334C233.569 402.973 232.922 403.378 232.455 403.144C231.813 402.968 231.408 402.328 231.646 401.863C231.827 401.224 232.474 400.819 232.941 401.053C233.526 401.055 233.755 401.753 233.75 402.334Z" fill="black"/>
<path d="M244.44 405.211C244.497 405.385 244.321 405.443 244.321 405.443C244.083 405.907 243.611 406.254 242.969 406.078C242.736 405.961 242.736 405.961 242.503 405.845C242.445 405.67 242.269 405.728 242.212 405.553C242.098 405.204 242.041 405.03 242.103 404.623C242.284 403.984 242.931 403.579 243.397 403.813C244.273 404.106 244.62 404.572 244.44 405.211Z" fill="black"/>
<path d="M205.199 400.28C205.138 400.687 204.842 400.976 204.49 401.092C204.314 401.149 204.138 401.207 203.905 401.09C203.729 401.148 203.672 400.973 203.438 400.856C202.972 400.623 202.858 400.274 203.096 399.809C203.158 399.403 203.629 399.055 203.981 398.94C204.157 398.882 204.333 398.825 204.39 398.999C204.624 399.116 204.857 399.233 204.914 399.407C205.147 399.524 205.318 400.048 205.199 400.28Z" fill="black"/>
<path d="M215.945 403.331C215.764 403.97 215.117 404.375 214.651 404.141C214.008 403.965 213.604 403.325 213.842 402.861C214.023 402.222 214.67 401.817 215.136 402.05C215.722 402.052 216.126 402.692 215.945 403.331Z" fill="black"/>
<path d="M208.198 405.867C208.607 405.927 208.664 406.101 208.897 406.218C208.664 406.101 208.431 405.984 208.198 405.867Z" fill="black"/>
<path d="M212.137 396.463C211.956 397.102 211.309 397.507 210.842 397.274C210.2 397.097 209.795 396.457 210.033 395.993C210.214 395.354 210.861 394.949 211.328 395.183C211.913 395.184 212.141 395.882 212.137 396.463Z" fill="black"/>
<path d="M219.871 409.968C219.228 409.792 218.643 409.79 217.824 409.672C217.824 409.672 217.648 409.729 217.591 409.555C217.71 409.323 217.829 409.091 218.124 408.801C218.476 408.686 218.652 408.628 218.885 408.745C219.295 408.804 219.528 408.921 219.585 409.095C219.818 409.212 219.932 409.561 219.871 409.968Z" fill="black"/>
<path d="M222.826 399.341C222.645 399.979 221.998 400.384 221.532 400.151C220.889 399.975 220.485 399.334 220.723 398.87C220.903 398.231 221.551 397.826 222.017 398.06C222.66 398.236 223.064 398.876 222.826 399.341Z" fill="black"/>
<path d="M201.215 393.47C201.034 394.108 200.387 394.513 199.92 394.28C199.278 394.104 198.873 393.463 199.111 392.999C199.292 392.36 199.939 391.955 200.406 392.189C201.048 392.365 201.396 392.831 201.215 393.47Z" fill="black"/>
</g>
<path d="M262.554 259.317C261.041 252.177 259.528 245.105 258.015 237.964C257.327 234.874 257.465 232.059 259.872 229.725C262.142 227.665 265.031 228.214 267.713 227.734C271.909 227.047 276.173 227.253 280.369 227.528C281.882 227.597 283.327 228.008 284.427 229.176C286.766 231.647 287.385 234.874 287.797 238.033C285.665 238.513 283.808 239.406 283.739 241.878C283.671 244.281 285.115 245.585 287.247 246.409C288.004 246.684 288.76 247.027 289.311 247.645C291.305 251.971 291.718 256.914 294.951 260.691C298.94 263.506 302.379 267.076 306.575 269.616C312.284 273.049 318.199 275.933 324.252 278.542C324.802 278.817 325.353 279.16 325.972 279.435C326.591 279.709 327.141 279.984 327.76 280.259C332.85 283.417 338.215 285.957 344.13 287.399C344.887 287.605 345.574 288.017 346.056 288.704C346.537 292.274 344.611 295.295 343.992 298.591C343.717 300.033 342.823 301.268 343.373 303.191C350.596 300.307 357.13 296.256 364.077 293.029C367.172 292.823 369.786 294.54 372.675 295.158C378.04 296.256 383.405 297.492 388.907 298.179C394.616 298.934 400.05 300.719 405.552 302.298C406.653 302.642 407.754 302.985 408.51 303.946C409.06 304.976 408.51 305.937 408.235 306.899C407.547 309.988 408.579 312.185 411.124 313.009C413.875 313.902 416.145 312.803 417.452 309.92C417.727 309.302 417.933 308.615 418.415 308.066C419.378 307.379 420.341 307.791 421.304 307.997C421.991 308.203 422.404 308.752 422.817 309.302C424.055 309.851 425.293 310.538 426.531 310.95C434.51 313.559 437.674 319.326 438.705 327.291C440.563 341.846 441.044 356.54 443.933 370.958C444.277 372.537 443.658 373.361 442.282 373.773C440.425 374.391 438.568 374.803 436.711 375.352C435.748 376.176 434.647 376.863 433.34 376.863C428.251 376.932 423.092 377.481 418.071 376.245C415.663 376.108 414.425 374.597 413.875 372.4C412.981 369.036 412.499 365.671 412.981 362.238C413.875 356.196 413.394 350.154 413.462 344.112C413.531 340.473 411.812 338.139 408.441 336.697C402.595 334.225 396.611 332.44 390.283 331.753C385.468 331.204 384.024 332.509 383.886 337.384C383.749 342.945 383.886 348.575 383.817 354.137C383.817 355.647 383.886 357.089 383.611 358.599C382.992 362.719 381.96 363.337 377.833 362.376C374.05 360.041 369.442 359.355 366.072 356.196C365.728 355.166 366.072 354.137 366.003 353.107C365.934 350.704 364.627 349.193 362.495 348.575C360.431 347.957 358.643 348.712 357.405 350.498C356.511 351.871 355.823 353.381 353.897 353.381C346.881 352.489 339.797 353.175 332.781 352.145C328.448 351.527 324.252 350.635 320.4 348.506C319.781 348.163 319.368 347.682 318.818 347.271C315.242 344.593 313.728 341.434 316.136 337.04C317.03 335.461 317.374 333.676 317.855 331.891C320.4 326.192 318.818 322.21 313.591 318.571C304.855 312.529 296.258 306.143 287.454 300.239C279.544 294.883 272.321 288.772 267.369 280.396C267.163 279.915 267.025 279.435 266.888 278.885C265.306 274.285 264.274 269.479 262.967 264.741C262.554 263.094 262.83 261.171 262.554 259.317Z" fill="#EF7CF1"/>
<path d="M320.469 347.888C328.104 351.39 336.289 351.802 344.474 351.871C347.844 351.939 351.283 352.42 354.653 352.695C358.849 352.763 362.907 353.244 366.278 356.059C369.854 358.119 373.981 359.011 377.42 361.414C378.865 365.877 378.727 370.409 377.076 374.734C373.569 383.866 368.272 391.968 362.976 400.07C362.563 400.482 362.22 400.825 361.532 400.619C360.156 399.04 358.78 397.461 357.336 395.813C356.167 395.126 354.86 395.47 353.622 395.47C336.357 395.47 319.162 395.47 301.898 395.47C300.453 395.47 298.94 395.676 297.496 395.058C293.437 393.204 289.723 390.664 285.803 388.535C283.464 387.231 283.051 385.377 283.945 383.042C286.559 376.314 290.205 370.34 295.982 365.809C299.697 362.925 303.48 360.11 307.538 357.775C312.352 355.166 316.961 352.214 320.469 347.888Z" fill="black"/>
<path d="M262.554 259.317C264.343 265.909 266.131 272.5 267.919 279.16C266.269 280.739 264.205 280.19 262.348 280.121C245.015 279.709 230.777 291.725 227.338 308.066C226.994 309.645 226.994 311.224 226.994 312.803C226.994 328.595 226.994 344.387 226.994 360.11C226.994 361.758 227.475 363.612 225.962 364.916C224.999 363.749 225.412 362.307 225.412 360.934C225.343 352.283 225.343 343.563 225.412 334.912C225.412 332.715 224.793 331.685 222.523 332.028C222.386 332.028 222.317 332.028 222.179 332.028C213.788 331.891 213.788 331.891 213.788 323.308C213.788 309.164 213.788 294.952 213.788 280.808C213.788 276.482 213.788 276.482 209.248 276.482C180.085 276.482 150.852 276.482 121.688 276.414C121.895 274.834 123.202 274.903 124.233 274.766C125.678 274.56 127.191 274.628 128.704 274.628C157.318 274.491 185.931 274.834 214.544 274.766C225.206 274.697 233.597 269.891 240.338 261.858C241.163 260.897 241.713 259.729 243.226 259.661C243.914 260.691 244.946 260.553 245.978 260.553C250.655 260.553 255.332 260.553 260.009 260.553C260.972 260.691 262.279 260.965 262.554 259.317Z" fill="#D0E9FE"/>
<path d="M284.427 229.176C276.173 227.665 267.988 228.558 259.872 229.725C259.528 226.292 259.872 222.79 257.602 219.563C256.227 217.572 256.639 214.894 257.534 212.629C261.11 204.046 263.38 195.12 265.856 186.195C265.994 185.783 266.062 185.302 266.269 184.89C266.888 183.792 266.75 181.732 268.539 181.938C269.983 182.144 269.639 183.929 269.914 185.096C269.983 185.439 270.121 185.714 270.189 186.126C271.703 184.547 270.946 181.457 273.629 181.114C275.073 180.908 275.073 182.968 275.898 183.86C277.068 182.83 277.343 180.633 279.131 180.633C280.782 180.702 280.919 182.624 281.401 184.066C282.708 183.174 282.845 180.839 284.702 181.457C286.422 182.006 286.422 183.929 286.697 185.508C287.591 190.452 287.041 195.258 286.216 200.133C286.009 201.368 285.872 202.604 285.597 204.321C288.004 203.085 289.93 201.986 291.925 201.094C292.681 200.751 293.644 200.27 294.538 201.025C295.432 201.78 295.364 202.81 295.089 203.84C294.607 205.694 293.575 207.205 292.475 208.578C287.66 214.62 284.29 221.211 284.427 229.176Z" fill="#3D97E6"/>
<path d="M229.677 187.431C225.825 184.135 222.248 180.496 217.777 177.887C214.338 175.827 210.83 174.454 206.91 176.445C206.497 172.806 207.666 169.098 206.497 165.528C206.497 164.841 206.359 164.086 206.703 163.468C206.291 160.791 205.809 158.113 205.534 155.366C205.397 153.856 205.465 152.139 207.116 151.521C208.698 150.904 209.523 152.483 210.418 153.444C211.587 154.817 212.619 156.259 213.994 158.044C215.507 153.787 215.92 149.668 217.777 146.029C218.809 143.969 219.703 141.909 220.872 139.918C221.629 138.682 222.523 137.172 224.243 137.378C225.825 137.584 225.343 139.437 226.169 140.467C227.544 140.399 228.095 137.858 229.814 138.957C231.19 139.849 230.64 141.703 231.121 143.076C232.497 142.87 233.253 140.399 234.56 141.497C236.692 143.214 235.042 145.754 235.179 148.226C235.523 147.814 235.729 147.539 235.936 147.333C236.83 146.303 237.036 143.832 238.687 144.381C240.682 145.067 239.719 147.402 239.581 148.912C238.825 155.572 237.793 162.301 237.036 168.961C236.899 170.403 236.486 171.913 237.449 173.287C237.449 174.042 237.587 174.866 237.587 175.621C237.38 181.114 234.285 184.753 229.677 187.431Z" fill="#EC4546"/>
<path d="M215.714 275.727C203.127 275.796 190.54 275.864 177.952 275.864C160.344 275.864 142.736 275.864 125.059 275.933C123.89 275.933 122.583 275.315 121.551 276.414C113.572 286.026 105.525 295.638 97.5461 305.251C96.3081 306.693 95.07 308.203 93.2817 309.508C94.0383 303.74 94.8636 298.041 95.6202 292.274C96.2393 287.674 96.7895 283.005 97.6149 278.405C98.0276 276.208 97.5461 275.521 95.3451 275.796C93.9695 275.933 92.5938 275.727 91.2182 275.658C91.0806 274.972 91.5621 274.697 92.0436 274.491C94.1758 274.011 96.4456 274.354 98.3028 272.843C101.467 271.264 104.975 271.882 108.276 270.99C109.445 270.646 110.684 270.44 111.922 270.166C113.435 268.861 115.154 269.479 116.805 269.754C126.022 271.333 135.376 271.539 144.731 271.951C151.54 272.294 156.492 268.449 158.762 261.926C162.133 260.279 165.503 258.631 168.873 256.914C170.455 257.12 170.593 258.562 171.074 259.592C172.863 263.231 174.238 267.076 175.958 270.715C176.508 271.951 177.058 273.187 178.434 273.736C184.418 274.354 190.471 273.873 196.455 274.011C202.026 274.079 207.598 273.942 213.169 274.079C214.269 274.354 215.508 274.217 215.714 275.727Z" fill="black"/>
<path d="M418.071 375.421C424.261 376.176 430.451 376.451 436.642 375.421C437.055 380.296 436.16 384.965 434.785 389.565C434.097 391.899 432.928 393.891 431.071 395.538C426.187 399.727 423.092 405.494 419.034 410.369C418.208 411.33 417.452 412.36 416.557 413.184C415.526 414.145 414.219 414.969 412.843 414.282C411.192 413.459 411.949 411.948 412.224 410.644C412.293 410.232 412.362 409.751 412.431 409.27C411.124 409.202 410.711 410.3 410.023 410.849C409.129 411.536 408.304 412.566 407.066 412.017C405.69 411.399 406.24 410.094 406.24 408.996C406.24 408.24 406.515 407.485 406.722 406.593C405.002 407.622 403.558 409.682 401.494 408.652C399.637 407.828 401.15 405.7 400.531 404.121C397.574 405.357 397.298 403.572 397.436 401.237C397.642 398.559 399.087 396.294 399.981 393.822C399.637 393.204 399.912 392.586 400.05 392.037C397.986 389.016 399.775 386.956 401.838 384.965C404.452 382.493 407.685 380.914 411.055 379.815C413.737 379.06 416.214 377.824 418.071 375.421Z" fill="#3D97E6"/>
<path d="M297.908 182.693C300.109 180.29 302.448 179.054 304.649 177.612C306.368 176.445 306.85 175.278 305.818 173.355C304.855 171.57 304.236 169.579 303.342 167.519C305.543 166.97 307.263 168 308.982 168.48C311.252 169.167 312.765 169.167 313.453 166.352C314.072 163.949 315.241 161.683 316.479 158.593C317.717 161.752 318.818 164.155 319.643 166.695C320.331 168.755 321.225 169.304 323.358 168.137C327.003 166.146 330.855 164.498 334.982 163.125C332.643 166.558 330.373 170.128 327.828 173.424C326.315 175.346 326.315 176.308 328.654 177.406C331.611 178.779 334.363 180.496 337.045 182.693C334.294 183.036 331.474 183.448 328.723 183.723C324.183 184.135 324.045 184.341 324.389 188.941C324.527 190.932 325.284 192.923 324.527 195.395C322.257 193.335 320.056 191.481 318.061 189.49C316.823 188.254 316.067 188.186 314.76 189.49C311.733 192.443 308.569 195.189 304.718 198.691C305.956 194.297 306.644 190.864 307.882 187.568C308.982 184.684 307.813 183.998 305.268 183.723C303.067 183.586 300.866 183.174 297.908 182.693Z" fill="#FEDB4D"/>
<path d="M363.801 293.647C357.336 297.698 350.251 300.651 343.51 304.152C343.029 304.427 342.272 304.633 341.928 304.427C341.241 304.015 341.653 303.191 341.791 302.573C343.029 297.973 344.336 293.373 345.574 288.772C345.574 286.713 344.198 285.957 342.754 284.721C338.145 280.739 332.437 282.044 327.278 280.739C326.796 280.602 326.246 280.396 325.765 280.259C328.585 277.787 331.886 279.16 334.981 279.16C336.151 279.16 337.32 279.915 338.558 279.16C338.558 274.628 340.071 270.578 342.685 266.939C342.96 266.458 343.51 266.183 343.579 265.634C344.198 264.947 344.817 264.261 345.436 263.574C349.013 266.183 353.002 267.282 357.473 267.488C361.806 267.762 362.769 270.44 360.224 273.805C358.367 275.796 356.648 277.787 358.092 280.739C359.193 282.387 361.6 282.181 362.632 284.035C362.976 284.927 362.907 285.889 362.426 286.644C360.775 289.528 361.187 291.793 363.801 293.647Z" fill="#3D97E6"/>
<path d="M324.389 279.297C313.522 274.766 302.723 270.097 294.882 260.691C307.263 260.691 319.575 260.759 331.955 260.622C335.051 260.553 336.289 261.514 336.082 264.673C335.876 269.479 336.014 274.285 336.014 279.091C332.162 279.915 328.31 279.572 324.389 279.297Z" fill="#D0E9FE"/>
<path d="M135.857 172.394C137.852 176.445 136.889 179.535 132.9 181.732C129.323 183.723 123.958 182.35 121.757 178.779C121.275 178.024 121.069 177.132 120.725 176.239C119.418 173.424 117.974 170.609 117.768 167.382C119.074 165.871 121.551 166.558 122.72 164.773C124.164 162.232 122.582 160.379 121.207 158.593C120.313 157.083 118.387 155.847 119.418 153.787C120.381 151.865 122.376 151.315 124.371 151.315C128.566 151.384 132.074 149.668 135.445 147.471C139.778 151.865 141.979 157.152 142.46 163.262C142.942 163.88 142.667 164.498 142.46 165.047C141.497 166.833 139.984 168 138.058 168.549C136.201 169.236 135.582 170.472 135.857 172.394Z" fill="#EC4546"/>
<path d="M362.219 283.623C360.225 283.623 358.505 283.074 357.336 281.22C357.129 280.053 358.092 280.053 358.78 279.778C361.807 278.267 361.944 277.238 359.537 274.628C359.331 274.354 359.193 274.079 359.262 273.736C359.743 272.5 361.944 271.813 360.981 270.028C360.087 268.518 358.368 268.312 356.717 268.312C353.759 268.243 350.802 268.037 348.119 266.527C346.95 265.84 345.712 265.222 345.437 263.643C351.421 258.631 359.95 259.592 364.696 266.115C366.002 267.9 366.621 268.037 368.203 266.595C370.542 264.467 373.087 262.407 376.113 261.308C379.828 260.004 382.923 261.858 383.955 266.115C384.711 268.998 382.992 270.99 379.14 271.745C375.288 272.431 371.367 271.951 367.378 271.333C367.034 273.873 367.378 276.482 366.209 279.366C374.256 279.366 382.029 279.366 389.732 279.366C389.113 281.357 387.394 280.808 386.087 280.877C380.859 280.945 375.632 280.877 370.404 280.945C369.166 280.945 367.928 280.739 366.69 281.288C365.039 281.838 364.489 284.241 362.219 283.623Z" fill="#010101"/>
<path d="M225.893 364.985C225.824 348.987 226.237 332.989 225.618 316.992C224.792 295.295 242.401 277.855 263.792 279.091C265.167 279.16 266.543 279.091 267.919 279.091C267.988 279.503 267.988 279.915 268.056 280.396C266.543 282.112 264.411 281.563 262.554 281.494C250.586 281.082 241.3 285.957 234.216 295.364C229.882 301.131 227.819 307.791 227.75 314.932C227.544 330.106 227.612 345.279 227.612 360.453C227.612 361.483 227.75 362.513 228.025 363.474C229.401 378.03 240.268 389.565 253.268 392.723C255.4 393.273 257.533 393.547 259.734 393.547C267.85 393.547 275.966 393.547 284.151 393.547C288.347 393.547 292.612 393.41 296.807 393.822C298.32 395.058 300.04 395.195 301.897 395.195C319.093 395.126 336.288 395.126 353.484 395.195C354.791 395.195 356.235 394.646 357.404 395.882C325.214 395.882 293.024 395.95 260.834 395.882C245.702 395.95 229.126 385.102 225.893 364.985Z" fill="#28292A"/>
<path d="M126.091 406.661C125.403 405.975 125.472 405.219 125.678 404.601C127.81 396.706 130.699 389.222 135.308 382.424C135.789 381.738 136.271 381.12 136.821 380.571C139.435 377.893 141.36 378.167 142.667 381.6C143.286 383.18 143.493 383.935 145.35 382.768C147.138 381.669 147.895 382.218 150.715 385.102C153.329 382.218 155.736 379.06 159.794 377.893C160.207 379.403 159.244 379.678 158.625 380.021C153.81 383.042 150.577 386.956 150.233 392.929C150.165 394.714 149.339 396.431 148.651 398.147C148.445 398.765 148.239 399.864 147.069 399.452C146.175 399.109 146.588 398.353 146.657 397.667C146.932 394.92 147.551 392.243 148.445 389.634C148.651 389.016 149.064 388.329 149.064 387.711C149.064 385.995 148.651 384.21 146.657 384.21C144.868 384.21 143.974 385.651 144.043 387.574C144.112 391.007 144.318 394.44 144.249 397.873C144.249 401.649 143.699 405.425 142.461 408.996C142.048 410.163 141.429 411.261 140.741 412.291C140.191 413.184 139.297 413.871 138.128 413.596C136.958 413.321 136.614 412.36 136.408 411.261C135.652 408.24 136.408 405.288 136.89 402.404C137.784 397.324 139.091 392.38 141.36 387.711C141.567 387.299 141.842 386.887 141.911 386.475C142.048 384.347 141.842 381.806 140.191 380.914C138.472 380.021 137.44 382.424 136.546 383.729C132.35 389.84 129.805 396.637 127.742 403.709C127.466 404.601 127.26 405.494 126.985 406.318C126.847 406.387 126.503 406.455 126.091 406.661Z" fill="#080808"/>
<path d="M135.582 147.539C134.138 150.629 131.111 151.178 128.222 151.865C127.328 152.071 126.434 152.071 125.471 152.139C123.408 152.277 121 151.933 119.9 153.993C118.937 155.916 121.688 156.602 122.032 158.25C118.868 160.791 118.937 161.614 122.376 163.743C122.926 164.086 123.683 164.224 123.545 165.116C122.307 167.176 120.244 167.382 118.18 167.519C116.186 167.657 115.773 165.94 114.879 164.704C114.26 163.812 115.36 162.713 114.535 161.82C112.609 155.778 114.604 149.874 119.693 146.509C124.715 143.282 131.18 143.694 135.582 147.539Z" fill="#010101"/>
<path d="M300.935 410.3C301.622 408.927 302.516 409.957 303.273 410.163C312.834 413.596 322.395 417.166 331.955 420.668C332.162 421.835 331.199 422.178 330.511 422.659C325.627 424.238 320.537 424.856 315.448 425.543C313.522 425.817 312.008 424.925 310.702 423.346C307.744 419.775 304.786 416.136 301.897 412.497C301.485 411.811 300.591 411.33 300.935 410.3Z" fill="#010101"/>
<path d="M271.496 123.783C271.015 124.813 270.946 125.156 270.739 125.431C267.507 130.649 267.507 130.58 272.321 133.807C272.459 134.288 272.046 134.357 271.771 134.425C266.337 135.592 266.337 135.592 266.269 140.673C261.729 137.858 261.729 137.858 256.226 142.046C255.745 141.978 255.882 141.634 255.951 141.36C256.433 139.506 257.602 137.446 257.189 135.798C256.777 134.082 253.888 135.318 252.443 133.739C254.988 132.022 258.152 130.374 254.576 126.049C259.115 127.903 260.972 125.98 261.385 122.272C263.93 123.096 262.348 126.941 265.306 126.461C267.232 126.117 269.02 124.881 271.496 123.783Z" fill="#FEDB4E"/>
<path d="M155.048 284.721C156.217 285.683 155.735 286.987 155.735 288.154C155.735 305.869 155.804 323.583 155.667 341.366C155.667 344.181 156.492 344.73 159.106 344.661C167.841 344.524 176.508 344.661 185.243 344.593C187.306 344.593 188.063 345.142 187.994 347.271C187.857 351.596 188.132 355.99 187.857 360.316C187.719 362.994 188.682 363.543 191.158 363.474C199.412 363.337 207.666 363.406 215.92 363.474C217.089 363.474 218.465 362.994 219.496 364.092C218.74 364.985 217.777 364.641 216.883 364.641C207.735 364.641 198.518 364.573 189.37 364.71C187.1 364.71 186.481 364.024 186.55 361.826C186.687 357.501 186.481 353.107 186.687 348.781C186.825 346.447 185.931 345.966 183.799 345.966C174.994 346.103 166.122 345.966 157.317 346.035C155.254 346.035 154.291 345.829 154.291 343.357C154.429 324.613 154.36 305.869 154.36 287.056C154.429 286.232 154.085 285.408 155.048 284.721Z" fill="#303030"/>
<path d="M215.714 275.727C214.957 275.452 214.269 275.246 213.513 274.972C213.513 274.766 213.513 274.628 213.513 274.422C213.719 274.148 213.994 273.942 214.338 273.805C222.11 273.461 228.851 270.578 234.835 265.703C236.967 263.986 238.549 261.789 240.2 259.592C244.396 253.344 246.528 246.547 246.459 238.994C246.322 226.017 246.391 212.972 246.459 199.995C246.528 192.099 244.327 184.89 239.444 178.642C238.481 177.406 237.999 175.827 236.83 174.728C237.036 174.179 236.486 173.287 237.518 173.081C245.015 180.153 248.729 188.872 248.798 199.034C248.935 212.766 248.867 226.498 248.798 240.161C248.798 247.165 246.597 253.619 243.089 259.661C237.105 267.968 229.333 273.53 219.084 275.384C217.915 275.727 216.814 276.002 215.714 275.727Z" fill="#343536"/>
<path d="M114.603 161.82C115.704 162.507 115.223 163.537 115.291 164.498C113.916 165.94 112.127 165.459 110.408 165.528C103.117 165.803 95.7572 164.91 88.4663 166.146C72.0961 168.892 60.5407 182.418 60.5407 198.965C60.5407 210.706 60.5407 222.516 60.5407 234.257C60.5407 236.591 60.3344 238.788 59.509 240.985C59.3714 242.015 59.3027 243.045 58.2709 243.663C58.2709 243.114 58.2709 242.633 58.2021 242.084C58.7524 237.758 58.4773 233.433 58.4085 229.107C58.3397 218.396 58.7524 207.617 58.2021 196.906C58.2709 181.182 72.0274 166.077 88.1912 163.88C96.1699 162.782 104.08 163.537 111.99 163.262C112.953 163.194 114.672 164.086 114.603 161.82Z" fill="#313131"/>
<path d="M211.655 297.767C211.655 301.337 208.904 304.289 205.602 304.358C202.301 304.427 199.549 301.474 199.481 297.835C199.412 294.128 202.301 290.97 205.671 291.107C209.041 291.244 211.655 294.197 211.655 297.767Z" fill="#010101"/>
<path d="M189.782 291.107C193.221 291.244 195.904 294.402 195.698 298.11C195.491 301.68 192.534 304.564 189.301 304.358C186.068 304.152 183.386 300.994 183.454 297.492C183.592 293.991 186.55 291.038 189.782 291.107Z" fill="#020202"/>
<path d="M179.81 297.629C179.878 301.131 177.127 304.221 173.894 304.358C170.662 304.495 167.704 301.543 167.566 298.041C167.429 294.402 170.249 291.175 173.688 291.107C176.921 291.107 179.741 294.128 179.81 297.629Z" fill="#020202"/>
<path d="M400.737 392.38C400.462 392.929 400.187 393.479 399.912 394.028C395.097 395.47 390.145 396.431 385.055 396.019C382.166 395.744 381.96 396.98 382.303 399.383C383.885 409.82 385.261 420.325 386.086 431.241C377.901 421.08 369.716 410.987 361.531 400.825C361.806 400.551 362.013 400.276 362.288 400.001C364.214 400.345 364.97 401.992 366.002 403.297C371.986 410.438 377.901 417.647 383.817 424.993C382.372 416.136 381.203 407.348 379.965 398.559C379.415 394.783 380.378 393.753 384.161 393.753C388.975 393.753 393.79 393.822 398.398 392.105C399.224 391.762 400.049 391.762 400.737 392.38Z" fill="#2D2D2D"/>
<path d="M183.455 131.198C183.111 133.739 183.593 137.103 180.635 137.927C177.471 138.819 176.027 135.661 174.582 133.464C173.207 131.335 172.725 129.001 174.582 126.873C176.027 125.225 177.884 124.469 180.085 125.293C182.836 126.186 183.73 128.383 183.455 131.198Z" fill="#020202"/>
<path d="M142.254 164.567C142.391 164.155 142.529 163.743 142.667 163.331C164.058 163.331 185.38 163.4 206.772 163.4C206.909 163.812 207.047 164.155 207.253 164.567C205.946 165.803 204.295 165.665 202.713 165.665C184.073 165.665 165.433 165.665 146.862 165.665C145.212 165.665 143.561 165.871 142.254 164.567Z" fill="#242424"/>
<path d="M330.58 421.972C331.062 421.56 331.474 421.08 331.956 420.668C333.607 420.668 333.538 421.56 333.125 422.728C331.474 427.191 329.755 431.722 328.173 436.254C327.623 437.833 326.866 437.696 325.628 437.215C316.067 433.713 306.506 430.212 296.946 426.847C295.639 426.367 295.02 425.817 295.57 424.375C297.358 419.707 299.216 415.038 301.004 410.369C301.485 410.849 301.967 411.261 302.448 411.742C301.417 415.244 300.041 418.608 298.734 421.972C297.978 423.964 298.321 425.199 300.454 425.886C307.951 428.358 315.242 431.31 322.67 433.919C326.041 435.086 326.385 434.88 327.623 431.447C328.654 428.289 330.168 425.337 330.58 421.972Z" fill="#303030"/>
<path d="M365.108 280.808C365.865 279.229 367.241 279.847 368.41 279.847C374.394 279.778 380.378 279.847 386.431 279.778C387.531 279.778 388.701 280.121 389.732 279.297C405.552 279.297 421.51 293.785 422.817 309.302C422.335 309.096 421.922 308.89 421.441 308.684C420.547 307.722 420.272 306.487 419.859 305.251C415.801 293.304 407.753 285.614 395.51 282.25C393.378 281.7 391.246 281.426 389.045 281.426C382.51 281.426 375.976 281.426 369.442 281.426C367.928 281.494 366.415 281.769 365.108 280.808Z" fill="#313131"/>
<path d="M289.31 247.645C283.533 247.371 281.744 242.976 283.189 240.23C284.152 238.445 285.115 236.385 287.797 238.033C288.279 241.26 289.448 244.35 289.31 247.645Z" fill="#DC36DF"/>
<path d="M164.471 108.952C164.058 110.326 164.608 112.66 162.063 112.935C160.55 113.141 157.936 109.57 158.005 107.648C158.074 105.588 159.381 104.421 161.238 104.49C163.852 104.558 164.677 106.343 164.471 108.952Z" fill="#060606"/>
<path d="M58.3403 196.906C58.8905 197.592 58.753 198.416 58.753 199.171C58.753 212.697 58.753 226.292 58.753 239.818C58.753 240.573 58.8905 241.397 58.2715 242.084C58.3403 227.047 58.3403 211.942 58.3403 196.906Z" fill="#010101"/>
<path d="M165.502 119.663C165.296 120.625 165.365 122.684 163.783 122.547C161.719 122.41 160.619 120.556 160.55 118.427C160.481 116.986 161.582 116.093 162.957 116.162C164.814 116.23 165.64 117.466 165.502 119.663Z" fill="#0C0C0C"/>
<path d="M179.465 119.595C179.19 120.625 179.534 122.616 177.746 122.478C175.82 122.341 174.719 120.556 174.513 118.702C174.307 117.054 175.476 116.093 176.989 116.093C178.984 116.162 179.603 117.535 179.465 119.595Z" fill="#0F0F0F"/>
<path d="M172.45 110.875C172.243 111.905 172.45 113.827 170.593 113.69C168.529 113.553 167.635 111.699 167.497 109.776C167.429 108.266 168.46 107.442 169.836 107.442C171.968 107.373 172.587 108.746 172.45 110.875Z" fill="#090909"/>
<path d="M165.502 128.04C165.296 129.276 165.502 131.335 163.645 131.267C161.857 131.198 160.894 129.344 160.619 127.628C160.412 126.049 161.375 124.95 162.957 124.95C164.745 124.95 165.571 126.117 165.502 128.04Z" fill="#0E0E0E"/>
<path d="M172.45 119.732C172.313 120.556 172.45 122.616 170.593 122.478C168.736 122.341 167.635 120.487 167.498 118.565C167.36 116.848 168.598 116.024 170.043 116.093C171.831 116.23 172.656 117.398 172.45 119.732Z" fill="#0B0B0B"/>
<path d="M92.0434 274.972C91.7683 275.178 91.4931 275.452 91.218 275.658C87.5038 275.864 84.1334 274.56 80.6943 273.461C81.7948 272.5 83.0329 273.118 84.2022 273.049C85.9906 273.393 87.7789 273.599 89.636 273.667C90.599 273.805 91.7683 273.599 92.0434 274.972Z" fill="#303030"/>
<path d="M324.39 279.297C328.31 279.229 332.162 279.16 336.083 279.091C336.908 279.16 337.733 279.16 338.559 279.229C337.458 281.014 335.67 279.984 334.294 280.121C331.474 280.327 328.654 280.259 325.834 280.327C325.284 279.984 324.596 279.984 324.39 279.297Z" fill="#030305"/>
<path d="M343.58 265.703C343.993 266.183 345.093 266.389 344.749 267.076C344.268 268.037 343.442 266.733 342.754 267.007C342.273 266.733 341.448 266.595 341.791 265.909C342.135 265.153 342.961 265.703 343.58 265.703Z" fill="#455767"/>
<path d="M236.692 174.797C243.501 180.29 246.871 187.842 247.078 196.219C247.559 211.805 247.422 227.459 247.147 243.114C247.009 249.636 244.602 255.541 240.475 260.691C238.962 261.652 237.311 261.789 235.591 261.789C229.882 261.789 224.242 261.858 218.533 261.789C215.782 261.72 214.681 262.75 214.681 265.565C214.681 268.586 215.507 271.745 213.718 274.56H213.787C208.285 275.178 202.851 274.834 197.348 274.834C190.608 274.834 183.867 275.178 177.126 274.628C174.238 270.234 172.862 265.153 170.592 260.485C170.042 259.386 169.56 258.219 169.01 257.12C171.074 255.335 173.068 253.481 175.269 251.765C177.539 249.98 177.608 247.851 176.645 245.379C175.269 241.809 172.793 238.857 171.074 235.561C170.179 233.845 169.423 232.128 168.322 229.862C170.798 230 172.656 230.137 174.581 230.274C181.322 230.892 188.063 230.48 194.666 228.901C198.449 228.008 201.613 226.223 204.295 223.34C213.787 213.041 222.454 202.192 230.089 190.52C230.983 189.147 230.295 188.46 229.745 187.568C230.501 186.744 230.639 185.508 231.739 184.89C235.591 182.556 236.829 179.054 236.692 174.797Z" fill="#FDFFB6"/>
<path d="M59.5777 240.985C59.5777 226.292 59.165 211.53 59.6465 196.837C60.128 179.466 75.1913 165.116 92.7307 164.704C100.297 164.498 107.794 164.567 115.36 164.498C116.323 165.528 117.286 166.489 118.249 167.519C119.074 170.403 121.138 173.012 120.794 176.239C115.498 177.75 110.339 179.535 105.18 181.388C98.5084 183.792 93.2122 187.911 89.0165 193.541C84.9583 199.034 80.8314 204.527 77.4611 210.5C77.3235 212.56 76.2918 214.139 74.5722 215.306C69.4823 222.653 65.4242 230.549 61.0909 238.376C60.6782 239.269 60.128 240.093 59.5777 240.985Z" fill="#FDFFB6"/>
<path d="M142.254 164.567C163.921 164.567 185.518 164.567 207.185 164.567C208.148 168.549 208.492 172.463 206.91 176.376C204.021 179.054 201.751 182.144 199.687 185.439C196.73 190.246 192.672 193.747 187.375 195.944C182.079 198.141 178.915 197.386 175.682 192.511C172.587 187.843 169.767 183.036 166.878 178.299C165.296 177.612 164.677 175.896 163.302 174.934C157.937 171.09 151.815 171.09 145.625 171.158C145.074 171.158 144.593 171.09 144.18 170.678C141.429 171.227 138.609 171.776 135.858 172.325C133.588 170.472 134.138 169.236 136.752 168.343C138.884 167.588 141.016 166.695 142.254 164.567Z" fill="#FDFFB6"/>
<path d="M158.831 261.995C159.931 263.368 159.243 264.261 158.624 265.771C157.249 269.204 153.534 269.41 151.609 272.019C150.646 273.324 148.72 273.187 147.069 273.049C136.339 272.5 125.609 272.569 115.016 270.509C113.985 270.303 112.953 270.303 111.921 270.234C110.064 268.518 110.27 266.321 110.821 264.192C112.403 257.464 117.149 253.55 123.958 253.207C124.715 253.138 125.54 253.069 126.297 253.001C132.006 251.559 137.646 251.353 142.873 254.511C144.386 255.404 146.244 255.404 147.619 256.434C148.926 256.708 150.302 256.914 151.609 257.326C153.534 257.944 156.011 257.875 156.492 260.759C156.63 261.72 158.005 261.652 158.831 261.995Z" fill="#EC4546"/>
<path d="M141.154 224.987C139.984 224.987 138.884 225.056 137.783 224.575C136.752 224.095 134.895 224.164 135.651 222.31C136.27 220.937 136.27 218.945 139.021 219.426C144.111 220.319 146.656 219.083 148.582 215.581C150.577 211.873 150.302 209.127 146.794 205.419C144.868 203.36 146.45 202.192 147.413 201.094C148.857 199.446 150.095 201.163 151.127 202.055C154.635 205.282 155.942 211.667 154.085 216.199C151.746 221.966 147.275 224.987 141.154 224.987Z" fill="#0F76D0"/>
<path d="M203.539 213.933C195.423 213.315 190.471 208.303 189.92 200.27C189.852 199.24 189.508 196.837 191.778 196.974C193.635 197.043 195.148 197.592 195.148 200.201C195.217 204.321 197.693 207.205 201.338 208.234C204.984 209.264 207.941 208.166 210.555 204.321C212.068 202.124 213.857 203.154 215.37 203.84C217.158 204.733 215.576 206.037 215.095 206.93C212.55 211.118 208.698 213.521 203.539 213.933Z" fill="#0F76D0"/>
<path d="M95.3442 258.287C95.0691 259.317 96.032 261.171 93.831 261.308C91.9051 261.377 90.7358 260.759 90.4607 258.493C89.9104 254.511 86.884 251.696 83.3761 251.147C79.7995 250.598 76.5667 252.108 74.8471 255.953C73.6778 258.562 72.0271 257.738 70.3763 257.189C68.3816 256.502 69.4821 254.923 69.8948 253.756C71.5456 249.156 78.7677 244.899 83.4449 245.654C90.3919 246.753 95.3442 251.971 95.3442 258.287Z" fill="#0F76D0"/>
<path d="M74.5723 215.306C75.1913 213.521 76.223 212.011 77.4611 210.5C80.4187 213.041 83.2388 215.993 87.7097 214.071C90.7361 212.766 93.0747 210.775 93.2122 207.342C93.3498 204.389 95.482 204.321 97.2704 204.458C99.8153 204.664 98.9211 206.93 98.646 208.234C96.445 218.327 85.5774 223.683 76.4982 216.68C75.8791 216.268 75.2601 215.787 74.5723 215.306Z" fill="#0F76D0"/>
<path d="M164.196 174.797C165.434 175.69 166.191 176.994 166.81 178.367C163.852 182.556 158.762 184.204 153.603 182.693C148.032 181.045 143.836 176.376 143.768 171.707C143.768 171.364 144.043 171.089 144.18 170.746C144.593 170.678 145.006 170.678 145.418 170.609C147.757 169.991 149.476 170.472 150.783 172.875C152.984 176.857 156.974 177.818 161.101 175.758C162.064 175.278 162.958 174.385 164.196 174.797Z" fill="#1077D0"/>
<path d="M112.128 201.368C111.578 208.509 109.652 214.757 108.139 221.005C106.694 226.979 105.112 232.952 103.324 238.788C102.636 241.122 103.186 241.74 105.387 242.152C109.308 242.908 113.16 244.075 117.011 245.105C118.112 245.448 119.488 245.517 120.588 247.508C110.821 244.212 101.398 242.564 92.1123 240.367C94.5885 239.406 96.8583 240.367 99.1281 240.848C100.985 241.191 101.604 240.573 102.017 239.063C105.112 227.734 108.207 216.405 110.477 204.87C110.752 203.909 110.477 202.742 112.128 201.368Z" fill="#0A1927"/>
<path d="M147.619 256.434C145.35 256.571 143.355 256.365 141.36 254.648C139.434 252.932 136.614 253.207 134.138 253.138C131.524 253.069 128.911 253.069 126.297 253.001C132.625 246.203 144.593 248.194 147.619 256.434Z" fill="#1276CE"/>
<path d="M158.556 195.601C162.407 205.694 162.476 216.748 167.291 226.567C161.169 217.229 161.101 206.106 158.556 195.601Z" fill="#0C1F2F"/>
<path d="M92.0433 274.972C89.4984 273.942 86.5407 274.628 84.2021 273.118C88.9481 273.461 93.6253 271.882 98.3713 272.912C98.4401 274.217 98.0274 275.04 96.4454 274.972C95.0009 274.834 93.5565 274.972 92.0433 274.972Z" fill="#E4E6E8"/>
<path d="M296.807 393.891C296.394 395.195 295.294 394.646 294.469 394.646C282.913 394.646 271.358 394.852 259.802 394.577C242.951 394.234 228.369 380.296 227.268 363.818C226.787 353.793 227.2 343.769 227.062 333.745C227.062 332.165 227.75 331.479 229.194 331.204C230.57 330.929 231.946 330.998 233.321 330.998C259.871 330.998 286.352 330.998 312.902 330.998C314.897 330.998 317.098 330.586 318.817 332.165C318.13 334.5 317.717 337.04 316.616 339.169C315.172 341.846 315.929 343.563 317.992 345.279C318.955 346.103 319.712 347.065 320.606 347.957C319.849 350.978 317.579 352.695 315.172 354.274C309.394 358.119 303.341 361.62 297.77 365.809C291.511 370.478 287.659 376.794 284.77 383.866C284.014 385.789 284.22 386.887 286.283 387.917C289.791 389.634 293.299 391.831 296.807 393.891Z" fill="#FEFAE0"/>
<path d="M318.749 332.097C289.379 332.097 259.94 332.097 230.571 332.028C227.888 332.028 227.338 332.989 227.338 335.392C227.407 344.867 227.269 354.343 227.269 363.818C226.512 362.444 226.856 360.934 226.856 359.423C226.856 344.867 226.856 330.38 226.856 315.824C226.925 295.432 241.782 280.533 262.142 280.396C264.067 280.396 266.062 280.396 267.988 280.396C275.073 291.175 285.459 298.247 295.982 305.182C302.585 309.508 308.982 314.039 315.104 319.12C321.294 324.201 321.294 324.407 318.749 332.097Z" fill="#D1E9FE"/>
<path d="M400.737 392.38C395.166 394.302 389.388 395.126 383.542 394.646C380.928 394.44 380.515 395.47 380.859 397.804C382.235 406.593 383.404 415.45 384.642 424.238C384.78 424.993 384.78 425.749 384.917 427.534C377.007 417.853 369.648 408.927 362.288 399.933C366.277 393.479 370.06 386.887 373.844 380.365C377.283 374.391 377.558 368.074 377.42 361.552C382.304 362.582 382.648 362.376 382.716 357.02C382.854 350.498 382.716 343.975 382.785 337.521C382.854 331.547 383.954 330.312 389.87 330.861C397.298 331.547 404.383 333.745 411.055 337.109C413.324 338.276 414.287 340.336 414.356 342.739C414.425 348.987 414.769 355.304 413.943 361.552C413.462 365.328 413.806 369.036 414.769 372.743C415.182 374.528 416.076 375.627 418.002 375.627C417.795 378.03 416.282 379.129 414.15 379.815C409.541 381.394 404.658 382.768 401.494 386.887C400.806 387.78 396.542 389.496 401.425 390.87C402.044 390.87 400.944 391.762 400.737 392.38Z" fill="#FEFAE0"/>
<path d="M365.108 280.808C376.251 280.602 387.6 278.748 398.399 282.318C411.055 286.507 418.896 295.432 421.372 308.752C420.409 308.546 419.515 308.34 418.552 308.134C414.769 307.997 411.33 306.899 408.304 304.633C402.044 301.818 395.51 300.17 388.769 299.14C380.309 297.904 372.055 296.119 363.87 293.647C359.606 291.931 359.606 291.999 361.325 287.468C361.807 286.232 362.701 285.133 362.288 283.623C363.733 283.211 364.489 282.112 365.108 280.808Z" fill="#FEFAE0"/>
<path d="M325.077 292.068C325.009 289.116 328.035 286.095 330.924 286.095C333.744 286.095 336.633 289.047 336.633 291.931C336.633 294.952 333.675 297.767 330.58 297.767C327.347 297.767 325.077 295.432 325.077 292.068Z" fill="#DB35DE"/>
<path d="M434.166 367.045C431.277 367.113 428.319 364.161 428.25 361.071C428.181 358.462 431.002 355.51 433.546 355.372C436.71 355.235 439.943 358.187 439.874 361.208C439.874 364.024 436.917 366.976 434.166 367.045Z" fill="#DB35DE"/>
<path d="M333.675 323.789C337.045 323.789 339.384 325.917 339.453 329.144C339.522 332.44 337.114 334.774 333.537 334.774C330.098 334.774 327.829 332.646 327.76 329.419C327.76 326.123 330.098 323.789 333.675 323.789Z" fill="#DB35DE"/>
<path d="M377.283 321.798C373.844 321.66 371.711 319.326 371.849 315.756C371.918 313.009 374.944 310.126 377.696 310.194C380.447 310.263 383.473 313.696 383.336 316.511C383.129 319.326 380.24 321.866 377.283 321.798Z" fill="#DB34DE"/>
<path d="M282.432 277.718C283.12 280.808 279.681 283.692 276.93 283.76C274.179 283.898 271.496 280.945 271.427 277.993C271.359 274.697 273.56 272.363 276.792 272.294C280.025 272.294 282.364 274.491 282.432 277.718Z" fill="#DB34DE"/>
<path d="M408.304 304.633C411.88 305.388 415.251 306.761 418.552 308.134C418.415 310.95 417.521 313.353 414.563 314.039C412.156 314.657 409.748 314.314 408.097 312.185C406.103 309.645 406.791 307.105 408.304 304.633Z" fill="#DB35DE"/>
<path d="M327.347 280.739C330.511 280.671 333.675 280.671 336.839 280.533C337.939 280.465 338.765 280.808 339.452 281.632C340.622 283.074 342.272 283.966 344.061 284.378C346.881 285.133 347.018 286.575 345.643 288.704C339.108 287.125 332.78 284.927 327.347 280.739Z" fill="#E9EFF8"/>
<path d="M366.346 356.128C362.494 355.029 358.573 353.862 354.722 352.763C355.272 352.557 355.685 352.351 355.96 351.733C357.817 347.957 360.362 346.653 363.388 347.888C366.827 349.262 367.721 351.871 366.346 356.128Z" fill="#D934DC"/>
<path d="M273.628 213.796C276.035 209.47 279.612 206.724 284.289 205.282C280.575 207.96 276.792 210.5 273.628 213.796Z" fill="#0A1A28"/>
<path d="M275.141 187.087C275.347 190.932 274.453 194.503 273.146 198.004C272.871 194.159 273.972 190.589 275.141 187.087Z" fill="#0E2436"/>
<path d="M280.782 188.048C280.85 191.481 280.3 194.777 278.718 197.867C278.58 194.502 279.406 191.207 280.782 188.048Z" fill="#0F263A"/>
<path d="M269.777 190.795C270.258 193.747 269.57 195.807 268.882 198.21C267.92 196.082 268.126 194.228 269.777 190.795Z" fill="#112B42"/>
<path d="M214.957 159.211C218.671 162.507 221.079 166.558 221.56 171.57C219.909 167.107 217.296 163.262 214.957 159.211Z" fill="#361010"/>
<path d="M227.957 156.74C228.37 153.169 228.851 149.668 230.227 146.029C230.915 148.638 229.814 154.062 227.957 156.74Z" fill="#381010"/>
<path d="M225.068 144.793C225.137 148.226 224.518 151.521 223.005 154.68C222.936 151.247 223.624 147.951 225.068 144.793Z" fill="#3C1111"/>
<path d="M232.221 159.28C232.015 156.328 232.634 154.337 234.078 151.59C234.491 154.748 233.803 156.808 232.221 159.28Z" fill="#3B1111"/>
<path d="M177.058 274.491C189.301 274.491 201.475 274.491 213.718 274.422C213.65 274.628 213.581 274.766 213.512 274.972C202.438 274.972 191.433 274.903 180.359 274.903C179.259 274.903 178.089 275.315 177.058 274.491Z" fill="#D1E9FE"/>
<path d="M410.711 383.248C408.373 385.583 405.622 387.437 403.008 389.428C404.659 386.269 407.479 384.484 410.711 383.248Z" fill="#0F2538"/>
<path d="M402.182 402.61C402.732 399.315 404.52 396.98 406.928 395.126C407.134 395.332 407.409 395.47 407.615 395.676C405.758 398.01 403.97 400.345 402.182 402.61Z" fill="#10283D"/>
<path d="M407.822 404.739C409.267 402.061 410.849 399.452 413.875 397.804C412.156 400.276 410.436 402.816 408.716 405.288C408.373 405.082 408.097 404.945 407.822 404.739Z" fill="#0E2334"/>
<path d="M418.07 401.306C416.763 403.228 415.456 405.151 414.15 407.142C414.081 404.327 415.663 402.542 417.314 400.757C417.589 400.894 417.864 401.1 418.07 401.306Z" fill="#0C1F2F"/>
<path d="M359.262 273.736C360.5 274.697 362.838 274.697 362.357 277.306C361.875 280.19 359.537 280.602 357.336 281.288C355.685 278.13 357.198 275.864 359.262 273.736Z" fill="#0F6FC1"/>
<path d="M345.574 278.885C345.23 280.19 344.474 280.465 343.717 280.465C342.204 280.533 341.585 279.366 341.241 278.199C341.034 277.512 341.447 277.032 342.135 277.306C343.304 277.787 344.474 278.405 345.574 278.885Z" fill="#173A58"/>
<path d="M345.23 271.745C345.436 273.461 342.892 274.56 345.299 276.07C345.505 276.208 344.886 276.551 344.611 276.414C343.786 276.07 342.892 275.796 342.135 275.315C341.722 275.04 342.066 274.56 342.41 274.217C343.373 273.393 344.336 272.569 345.23 271.745Z" fill="#0A2842"/>
<path d="M123.546 165.185C122.858 164.361 121.758 164.91 121.001 164.43C119.419 163.468 118.387 162.232 118.594 160.241C118.869 158.113 120.588 158.456 122.033 158.387C123.752 160.31 125.334 162.37 123.546 165.185Z" fill="#B7090A"/>
<path d="M135.307 155.916C137.095 156.396 138.815 157.358 138.815 158.937C138.815 160.104 136.889 160.035 134.963 160.928C136.339 158.799 136.407 157.358 135.307 155.916Z" fill="#700F10"/>
<path d="M139.847 161.889C139.434 163.194 138.747 164.155 137.508 164.292C136.752 164.361 135.514 164.018 135.72 163.194C136.064 161.889 137.646 161.82 138.678 161.271C139.366 160.928 139.641 161.408 139.847 161.889Z" fill="#481515"/>
<path d="M364.489 128.108C366.896 132.091 368.134 135.867 369.304 139.575C372.674 150.08 375.219 160.653 375.219 171.776C375.219 173.836 375.7 176.857 373.293 177.406C370.748 178.024 369.647 175.072 368.685 173.081C364.97 165.047 364.282 156.328 363.732 147.677C363.32 141.428 363.457 135.112 364.489 128.108Z" fill="#CAFFBF"/>
<path d="M353.072 143.488C351.558 140.811 351.146 137.789 350.802 134.768C352.521 137.378 353.003 140.399 353.072 143.488Z" fill="#747474"/>
<path d="M142.323 390.458C142.942 396.912 142.735 403.228 140.534 409.339C140.19 410.232 139.847 411.673 138.677 411.536C137.37 411.33 137.921 409.82 137.921 408.927C137.989 402.473 139.64 396.362 142.323 390.458Z" fill="#F5F5F5"/>
<path d="M330.58 421.972C332.162 422.178 331.543 423.14 331.268 423.964C330.03 427.396 328.654 430.761 327.554 434.194C327.072 435.773 326.316 436.116 324.802 435.567C316.067 432.34 307.263 429.182 298.459 425.955C297.771 425.68 296.464 425.543 296.877 424.581C298.803 420.325 299.147 415.381 302.311 411.673C305.543 415.656 308.776 419.569 311.871 423.552C312.903 424.856 313.935 425.062 315.379 424.787C320.538 423.826 325.559 422.934 330.58 421.972Z" fill="#FDFDFD"/>
<path d="M213.719 274.491C213.719 270.852 213.788 267.213 213.65 263.574C213.582 261.308 214.407 260.622 216.608 260.622C224.587 260.759 232.566 260.691 240.544 260.691C233.804 269.616 224.931 274.354 213.719 274.491Z" fill="#D1E9FE"/>
<path d="M233.872 221.554C236.142 219.014 236.692 215.993 239.65 214.826C240.544 217.847 242.745 216.336 245.221 215.169C243.845 217.641 241.163 219.907 246.046 221.142C244.052 221.898 241.782 221.211 241.92 223.958C241.988 224.507 241.507 224.987 241.094 224.575C239.168 222.584 238.137 224.575 236.623 225.605C236.073 223.889 237.655 220.799 233.872 221.554Z" fill="#FEDC51"/>
<path d="M164.195 174.797C158.418 178.711 154.222 178.779 150.852 175.003C150.508 174.591 149.958 174.111 149.889 173.63C149.545 170.884 147.55 170.609 145.418 170.609C152.09 170.06 158.693 170.06 164.195 174.797Z" fill="#3F99E6"/>
<path d="M141.636 259.249C146.244 258.493 150.646 259.111 154.842 260.965C150.371 260.965 146.107 259.729 141.636 259.249Z" fill="#371010"/>
<path d="M142.667 263.643C146.931 262.682 150.99 263.368 154.91 265.153C150.783 265.359 146.794 263.849 142.667 263.643Z" fill="#401313"/>
<path d="M151.127 269.548C147.482 268.998 143.836 268.518 140.122 267.968C142.461 266.458 147.619 267.007 151.127 269.548Z" fill="#3A1111"/>
<path d="M133.932 255.541C137.164 254.923 139.503 254.854 142.392 256.434C139.297 256.708 136.958 256.708 133.932 255.541Z" fill="#3C1112"/>
<path d="M357.817 277.512C358.299 276.345 358.987 275.452 360.294 275.933C360.5 276.002 360.775 276.757 360.637 277.1C360.018 278.473 358.712 276.826 357.817 277.512Z" fill="#052A4B"/>
</g>
<path d="M271.933 41.4895C280.049 45.3345 285.895 51.1019 290.71 58.5171C291.879 55.2215 293.324 52.2004 296.763 51.1019C300.684 49.866 302.816 52.8184 305.154 55.3588C306.186 52.3377 306.943 49.5227 308.112 46.845C309.694 43.1373 312.308 42.5194 315.472 44.9225C318.361 47.1196 320.424 50.0033 322.35 53.0243C330.535 66.3443 336.45 80.6942 340.165 95.9367C340.371 96.7606 341.127 98.0652 340.096 98.3398C338.651 98.7518 338.789 97.1726 338.583 96.28C335.075 81.8615 329.503 68.2668 321.937 55.4961C319.943 52.1318 317.81 48.9048 314.646 46.433C312.445 44.7165 310.657 44.8538 309.556 47.6689C307.631 52.681 306.186 57.2126 309.006 62.9114C314.921 74.9955 317.81 88.1095 318.773 101.567C318.98 104.313 319.048 107.06 318.223 109.737C317.191 113.033 314.853 113.651 312.239 111.454C310.244 109.806 309.213 107.472 308.25 105.137C305.773 98.6831 304.81 91.8858 304.329 85.0198C303.779 77.0553 303.572 69.0221 304.742 61.0575C305.292 57.1439 302.953 55.1528 300.408 53.2303C298.689 51.9258 296.901 52.7497 295.387 53.9856C293.118 55.8394 291.673 60.0963 292.774 62.7054C295.594 68.9534 296.763 75.5448 297.657 82.2734C297.795 83.166 298.62 84.5392 297.107 84.8825C295.731 85.2258 295.662 83.6466 295.319 82.8227C292.911 76.9866 291.123 70.9446 290.71 64.6279C290.573 62.2248 289.747 60.2336 288.509 58.3111C284.864 52.6124 279.98 48.2182 274.271 44.5792C273.377 43.8239 271.933 43.7553 271.933 41.4895Z" fill="#060606"/>
<path d="M429.933 173.99C430.485 173.99 430.934 174.437 430.917 174.989C430.723 181.295 428.697 187.416 425.077 192.599C421.265 198.057 415.87 202.212 409.62 204.503C403.37 206.795 396.567 207.112 390.132 205.411C383.696 203.711 377.937 200.076 373.634 194.997C369.332 189.918 366.693 183.64 366.073 177.012C365.454 170.384 366.885 163.726 370.173 157.938C373.461 152.15 378.446 147.511 384.456 144.648C390.164 141.929 396.535 140.937 402.787 141.782C403.334 141.856 403.702 142.373 403.611 142.918L398.627 172.825C398.525 173.435 398.995 173.99 399.613 173.99H429.933Z" fill="#020A13"/>
<path d="M408.037 166.794C409.261 159.785 411.407 147.486 412.253 142.565C412.361 141.942 413.014 141.579 413.595 141.828C426.379 147.31 431.206 158.526 432.217 164.416C432.311 164.961 431.913 165.451 431.364 165.512L409.132 167.957C408.47 168.03 407.922 167.451 408.037 166.794Z" fill="#020A13" fill-opacity="0.8"/>
<defs>
<clipPath id="clip0">
<rect width="57" height="56" fill="white" transform="translate(34.9326 249.49)"/>
</clipPath>
<clipPath id="clip1">
<rect width="388" height="333" fill="white" transform="translate(55.9326 104.49)"/>
</clipPath>
<clipPath id="clip2">
<rect width="87.0843" height="103.926" fill="white" transform="matrix(0.950389 -0.311064 -0.311064 -0.950389 208.261 450.349)"/>
</clipPath>
</defs>
</svg>
