<svg width="24" height="24" viewBox="0 0 24 24" fill="none" xmlns="http://www.w3.org/2000/svg">
<g clip-path="url(#clip0)">
<mask id="path-1-inside-1" fill="white">
<path fill-rule="evenodd" clip-rule="evenodd" d="M12 13.0001L4 8.00014L12 3.00014L20 8.00014L12 13.0001ZM22 18.0001V8.00014C22 7.27014 21.61 6.64014 21.03 6.29014L12 0.640137L2.97 6.29014C2.39 6.64014 2 7.27014 2 8.00014V18.0001C2 18.5306 2.21071 19.0393 2.58579 19.4144C2.96086 19.7894 3.46957 20.0001 4 20.0001H7.2042C7.56708 21.3042 8.41361 22.4931 9.74379 23.2599C12.9456 25.1058 16.8669 23.3059 17.7959 20.0001H20C20.5304 20.0001 21.0391 19.7894 21.4142 19.4144C21.7893 19.0393 22 18.5306 22 18.0001ZM16.2002 20.0001H17.7959C17.9284 19.5287 18 19.0266 18 18.5001C18 14.2819 13.4022 11.6312 9.74379 13.7403C7.41559 15.0826 6.56906 17.7177 7.2042 20.0001H7.61991C8.69263 23.5704 13.6385 25.2047 16.6162 21.4795C16.5203 21.4342 16.4373 21.0584 16.3247 20.5491C16.287 20.3786 16.2461 20.1932 16.2002 20.0001ZM12.8083 20.0001C12.8757 19.687 12.7413 19.3596 12.4116 19.1375L11.0393 18.2134C10.8005 18.0735 10.3688 18.1878 10.3218 18.2583L9.06108 17.6282C8.66536 17.329 8.72732 16.8592 9.38743 16.6241C9.42187 16.6596 9.45434 16.6933 9.48494 16.7251C9.9551 17.2131 9.98504 17.2442 9.95405 16.3379L10.5207 15.7656H11.368C11.5239 15.7656 11.6059 15.5741 11.5564 15.4241C11.4014 15.0438 11.1643 14.7633 10.4889 14.4617C10.2187 14.3676 10.1621 14.553 10.1021 14.7496C10.0414 14.9485 9.97725 15.1587 9.68513 15.1027L9.10411 14.907C9.62231 13.9473 11.3602 13.363 12.6409 13.4147C11.3829 13.5592 11.4875 14.0552 11.6382 14.4168C11.9137 14.9347 12.1811 15.361 12.9481 14.4565C13.7482 14.3053 14.1149 14.1318 13.2778 13.4729C14.4366 13.6526 15.4661 14.2234 16.2272 15.0461C15.7909 14.9134 15.5083 15.1839 15.7741 15.3162C16.0821 15.4333 16.0033 15.6328 15.8153 15.7655C15.7864 15.7654 15.7564 15.7645 15.726 15.7636C15.5045 15.7568 15.2578 15.7494 15.2273 16.0517C15.1913 16.3054 15.0439 16.3251 14.9175 16.3421C14.7929 16.3587 14.6885 16.3727 14.7307 16.6048C14.9199 17.1175 15.1299 16.9074 15.3531 16.5957C15.5377 16.3251 15.8014 16.3295 16.1905 16.3358C16.2576 16.3369 16.3285 16.3381 16.4033 16.3379C16.6752 16.643 16.9663 16.8031 17.3164 16.8814C17.3726 17.0489 17.4199 17.2192 17.4583 17.3916C17.047 17.3015 16.7276 17.1961 16.4605 17.108C15.7454 16.872 15.4045 16.7595 14.6747 17.3932C14.1445 18.0036 14.4348 19.4015 15.7082 19.174C15.866 19.174 16.0232 19.2986 16.0585 19.4489C16.1108 19.6352 16.1576 19.821 16.2002 20.0001H12.8083ZM12.8083 20.0001C12.7694 20.1812 12.663 20.3574 12.4879 20.5058C12.1582 20.7925 11.9132 20.9962 11.7232 21.1543C11.0805 21.689 11.0654 21.7015 10.5207 22.6338C10.3642 22.6338 10.2647 22.5095 10.298 22.3581L10.6824 20.6107C10.6867 20.3206 10.6066 20.1358 10.4955 20.0001H12.8083ZM10.4955 20.0001H7.61991C7.32886 19.0315 7.32293 17.9203 7.71875 16.7351V16.735C8.17744 17.2931 8.32519 17.5342 8.53424 17.6961C8.78769 17.8923 9.13125 17.9722 10.2282 18.3596L9.92256 18.9771C9.78087 19.4357 9.98249 19.5834 10.2135 19.7527C10.31 19.8233 10.4116 19.8978 10.4955 20.0001Z"/>
</mask>
<path fill-rule="evenodd" clip-rule="evenodd" d="M12 13.0001L4 8.00014L12 3.00014L20 8.00014L12 13.0001ZM22 18.0001V8.00014C22 7.27014 21.61 6.64014 21.03 6.29014L12 0.640137L2.97 6.29014C2.39 6.64014 2 7.27014 2 8.00014V18.0001C2 18.5306 2.21071 19.0393 2.58579 19.4144C2.96086 19.7894 3.46957 20.0001 4 20.0001H7.2042C7.56708 21.3042 8.41361 22.4931 9.74379 23.2599C12.9456 25.1058 16.8669 23.3059 17.7959 20.0001H20C20.5304 20.0001 21.0391 19.7894 21.4142 19.4144C21.7893 19.0393 22 18.5306 22 18.0001ZM16.2002 20.0001H17.7959C17.9284 19.5287 18 19.0266 18 18.5001C18 14.2819 13.4022 11.6312 9.74379 13.7403C7.41559 15.0826 6.56906 17.7177 7.2042 20.0001H7.61991C8.69263 23.5704 13.6385 25.2047 16.6162 21.4795C16.5203 21.4342 16.4373 21.0584 16.3247 20.5491C16.287 20.3786 16.2461 20.1932 16.2002 20.0001ZM12.8083 20.0001C12.8757 19.687 12.7413 19.3596 12.4116 19.1375L11.0393 18.2134C10.8005 18.0735 10.3688 18.1878 10.3218 18.2583L9.06108 17.6282C8.66536 17.329 8.72732 16.8592 9.38743 16.6241C9.42187 16.6596 9.45434 16.6933 9.48494 16.7251C9.9551 17.2131 9.98504 17.2442 9.95405 16.3379L10.5207 15.7656H11.368C11.5239 15.7656 11.6059 15.5741 11.5564 15.4241C11.4014 15.0438 11.1643 14.7633 10.4889 14.4617C10.2187 14.3676 10.1621 14.553 10.1021 14.7496C10.0414 14.9485 9.97725 15.1587 9.68513 15.1027L9.10411 14.907C9.62231 13.9473 11.3602 13.363 12.6409 13.4147C11.3829 13.5592 11.4875 14.0552 11.6382 14.4168C11.9137 14.9347 12.1811 15.361 12.9481 14.4565C13.7482 14.3053 14.1149 14.1318 13.2778 13.4729C14.4366 13.6526 15.4661 14.2234 16.2272 15.0461C15.7909 14.9134 15.5083 15.1839 15.7741 15.3162C16.0821 15.4333 16.0033 15.6328 15.8153 15.7655C15.7864 15.7654 15.7564 15.7645 15.726 15.7636C15.5045 15.7568 15.2578 15.7494 15.2273 16.0517C15.1913 16.3054 15.0439 16.3251 14.9175 16.3421C14.7929 16.3587 14.6885 16.3727 14.7307 16.6048C14.9199 17.1175 15.1299 16.9074 15.3531 16.5957C15.5377 16.3251 15.8014 16.3295 16.1905 16.3358C16.2576 16.3369 16.3285 16.3381 16.4033 16.3379C16.6752 16.643 16.9663 16.8031 17.3164 16.8814C17.3726 17.0489 17.4199 17.2192 17.4583 17.3916C17.047 17.3015 16.7276 17.1961 16.4605 17.108C15.7454 16.872 15.4045 16.7595 14.6747 17.3932C14.1445 18.0036 14.4348 19.4015 15.7082 19.174C15.866 19.174 16.0232 19.2986 16.0585 19.4489C16.1108 19.6352 16.1576 19.821 16.2002 20.0001H12.8083ZM12.8083 20.0001C12.7694 20.1812 12.663 20.3574 12.4879 20.5058C12.1582 20.7925 11.9132 20.9962 11.7232 21.1543C11.0805 21.689 11.0654 21.7015 10.5207 22.6338C10.3642 22.6338 10.2647 22.5095 10.298 22.3581L10.6824 20.6107C10.6867 20.3206 10.6066 20.1358 10.4955 20.0001H12.8083ZM10.4955 20.0001H7.61991C7.32886 19.0315 7.32293 17.9203 7.71875 16.7351V16.735C8.17744 17.2931 8.32519 17.5342 8.53424 17.6961C8.78769 17.8923 9.13125 17.9722 10.2282 18.3596L9.92256 18.9771C9.78087 19.4357 9.98249 19.5834 10.2135 19.7527C10.31 19.8233 10.4116 19.8978 10.4955 20.0001Z" fill="black"/>
<path d="M4 8.00014L3.47 7.15214L2.1132 8.00014L3.47 8.84813L4 8.00014ZM12 13.0001L11.47 13.8481L12 14.1794L12.53 13.8481L12 13.0001ZM12 3.00014L12.53 2.15214L12 1.82089L11.47 2.15214L12 3.00014ZM20 8.00014L20.53 8.84813L21.8868 8.00014L20.53 7.15214L20 8.00014ZM21.03 6.29014L20.4996 7.13787L20.5064 7.14215L20.5133 7.14632L21.03 6.29014ZM12 0.640137L12.5304 -0.207598L12 -0.539478L11.4696 -0.207598L12 0.640137ZM2.97 6.29014L3.48666 7.14632L3.49358 7.14215L3.50042 7.13787L2.97 6.29014ZM2.58579 19.4144L3.29289 18.7072H3.29289L2.58579 19.4144ZM9.74379 23.2599L10.2432 22.3936L9.74379 23.2599ZM9.74379 13.7403L9.24433 12.874L9.24433 12.874L9.74379 13.7403ZM16.6162 21.4795L17.3973 22.1039L18.1867 21.1163L17.0439 20.5756L16.6162 21.4795ZM16.3247 20.5491L15.3483 20.7649L15.3483 20.7649L16.3247 20.5491ZM12.4116 19.1375L12.9702 18.3081L12.9702 18.3081L12.4116 19.1375ZM11.0393 18.2134L11.5979 17.384L11.5719 17.3664L11.5448 17.3506L11.0393 18.2134ZM10.3218 18.2583L9.87476 19.1528L10.6643 19.5473L11.1539 18.8129L10.3218 18.2583ZM9.06108 17.6282L8.45793 18.4259L8.53152 18.4815L8.61406 18.5228L9.06108 17.6282ZM9.38743 16.6241L10.1053 15.9279L9.65762 15.4663L9.05191 15.6821L9.38743 16.6241ZM9.48494 16.7251L10.2051 16.0313L10.2051 16.0313L9.48494 16.7251ZM9.95405 16.3379L9.24341 15.6344L8.9399 15.9409L8.95464 16.3721L9.95405 16.3379ZM10.5207 15.7656V14.7656H10.1035L9.81004 15.062L10.5207 15.7656ZM11.5564 15.4241L12.506 15.1107L12.4953 15.0783L12.4824 15.0467L11.5564 15.4241ZM10.4889 14.4617L10.8966 13.5486L10.8579 13.5313L10.8178 13.5174L10.4889 14.4617ZM10.1021 14.7496L9.14567 14.4577L9.14567 14.4577L10.1021 14.7496ZM9.68513 15.1027L9.36603 16.0504L9.43024 16.072L9.49678 16.0848L9.68513 15.1027ZM9.10411 14.907L8.22419 14.4319L7.66038 15.4761L8.785 15.8548L9.10411 14.907ZM12.6409 13.4147L12.755 14.4082L12.6813 12.4155L12.6409 13.4147ZM11.6382 14.4168L10.7151 14.8015L10.7332 14.8449L10.7553 14.8864L11.6382 14.4168ZM12.9481 14.4565L12.7623 13.474L12.4144 13.5397L12.1854 13.8098L12.9481 14.4565ZM13.2778 13.4729L13.4311 12.4847L9.66344 11.9004L12.6593 14.2587L13.2778 13.4729ZM16.2272 15.0461L15.9361 16.0028L19.469 17.0778L16.9613 14.3671L16.2272 15.0461ZM15.7741 15.3162L15.3288 16.2115L15.3727 16.2334L15.4186 16.2508L15.7741 15.3162ZM15.8153 15.7655L15.8123 16.7655L16.1313 16.7665L16.3919 16.5825L15.8153 15.7655ZM15.726 15.7636L15.6956 16.7631L15.726 15.7636ZM15.2273 16.0517L16.2174 16.1923L16.2203 16.1721L16.2223 16.1518L15.2273 16.0517ZM14.9175 16.3421L15.0501 17.3332L15.0501 17.3332L14.9175 16.3421ZM14.7307 16.6048L13.7469 16.7838L13.7625 16.8694L13.7926 16.951L14.7307 16.6048ZM15.3531 16.5957L16.1662 17.1778L16.1728 17.1686L16.1791 17.1593L15.3531 16.5957ZM16.1905 16.3358L16.2068 15.336H16.2068L16.1905 16.3358ZM16.4033 16.3379L17.1499 15.6726L16.8507 15.3368L16.4009 15.3379L16.4033 16.3379ZM17.3164 16.8814L18.2645 16.5634L18.0852 16.0286L17.5347 15.9055L17.3164 16.8814ZM17.4583 17.3916L17.2441 18.3684L18.7742 18.7038L18.4344 17.1747L17.4583 17.3916ZM16.4605 17.108L16.7739 16.1583L16.7739 16.1583L16.4605 17.108ZM14.6747 17.3932L14.0191 16.6381L13.9659 16.6843L13.9198 16.7374L14.6747 17.3932ZM15.7082 19.174V18.174H15.6196L15.5323 18.1896L15.7082 19.174ZM16.0585 19.4489L15.0849 19.6774L15.0899 19.6984L15.0957 19.7191L16.0585 19.4489ZM12.4879 20.5058L11.8414 19.7428L11.8318 19.7511L12.4879 20.5058ZM11.7232 21.1543L11.0837 20.3856L11.0837 20.3856L11.7232 21.1543ZM10.5207 22.6338V23.6338H11.0946L11.3841 23.1383L10.5207 22.6338ZM10.298 22.3581L9.32136 22.1433L9.32134 22.1433L10.298 22.3581ZM10.6824 20.6107L11.6591 20.8256L11.6809 20.7266L11.6823 20.6253L10.6824 20.6107ZM7.71875 16.7351L8.66726 17.0518L8.71875 16.8976V16.7351H7.71875ZM7.71875 16.735L8.4913 16.1001L6.71875 13.9434V16.735H7.71875ZM8.53424 17.6961L9.14651 16.9054L9.14651 16.9054L8.53424 17.6961ZM10.2282 18.3596L11.1244 18.8032L11.6249 17.7922L10.5612 17.4166L10.2282 18.3596ZM9.92256 18.9771L9.02635 18.5335L8.99079 18.6053L8.96712 18.6819L9.92256 18.9771ZM10.2135 19.7527L10.8045 18.946L10.8045 18.946L10.2135 19.7527ZM3.47 8.84813L11.47 13.8481L12.53 12.1521L4.53 7.15214L3.47 8.84813ZM11.47 2.15214L3.47 7.15214L4.53 8.84813L12.53 3.84814L11.47 2.15214ZM20.53 7.15214L12.53 2.15214L11.47 3.84814L19.47 8.84813L20.53 7.15214ZM12.53 13.8481L20.53 8.84813L19.47 7.15214L11.47 12.1521L12.53 13.8481ZM21 8.00014V18.0001H23V8.00014H21ZM20.5133 7.14632C20.81 7.32535 21 7.63951 21 8.00014H23C23 6.90077 22.41 5.95493 21.5467 5.43395L20.5133 7.14632ZM11.4696 1.48787L20.4996 7.13787L21.5604 5.4424L12.5304 -0.207598L11.4696 1.48787ZM3.50042 7.13787L12.5304 1.48787L11.4696 -0.207598L2.43958 5.4424L3.50042 7.13787ZM3 8.00014C3 7.63951 3.19 7.32535 3.48666 7.14632L2.45334 5.43395C1.59 5.95493 1 6.90077 1 8.00014H3ZM3 18.0001V8.00014H1V18.0001H3ZM3.29289 18.7072C3.10536 18.5197 3 18.2654 3 18.0001H1C1 18.7958 1.31607 19.5588 1.87868 20.1215L3.29289 18.7072ZM4 19.0001C3.73478 19.0001 3.48043 18.8948 3.29289 18.7072L1.87868 20.1215C2.44129 20.6841 3.20435 21.0001 4 21.0001V19.0001ZM7.2042 19.0001H4V21.0001H7.2042V19.0001ZM6.2408 20.2682C6.67043 21.8121 7.67595 23.2221 9.24433 24.1263L10.2432 22.3936C9.15126 21.764 8.46372 20.7962 8.16759 19.732L6.2408 20.2682ZM9.24433 24.1263C13.0353 26.3118 17.6607 24.1772 18.7586 20.2707L16.8332 19.7296C16.073 22.4345 12.8558 23.8998 10.2432 22.3936L9.24433 24.1263ZM20 19.0001H17.7959V21.0001H20V19.0001ZM20.7071 18.7072C20.5196 18.8948 20.2652 19.0001 20 19.0001V21.0001C20.7957 21.0001 21.5587 20.6841 22.1213 20.1215L20.7071 18.7072ZM21 18.0001C21 18.2654 20.8946 18.5197 20.7071 18.7072L22.1213 20.1215C22.6839 19.5588 23 18.7958 23 18.0001H21ZM17.7959 19.0001H16.2002V21.0001H17.7959V19.0001ZM18.7586 20.2707C18.9159 19.711 19 19.1179 19 18.5001H17C17 18.9353 16.9409 19.3463 16.8332 19.7296L18.7586 20.2707ZM19 18.5001C19 13.5099 13.5672 10.3818 9.24433 12.874L10.2432 14.6067C13.2371 12.8806 17 15.054 17 18.5001H19ZM9.24433 12.874C6.48552 14.4645 5.49454 17.5865 6.2408 20.2682L8.16759 19.732C7.64357 17.8489 8.34565 15.7007 10.2432 14.6067L9.24433 12.874ZM7.61991 19.0001H7.2042V21.0001H7.61991V19.0001ZM15.835 20.8551C14.5863 22.4174 12.994 22.8061 11.6217 22.4996C10.2093 22.1842 9.00347 21.1297 8.57761 19.7124L6.6622 20.2879C7.30907 22.4408 9.11259 23.9886 11.1857 24.4516C13.299 24.9235 15.6684 24.2668 17.3973 22.1039L15.835 20.8551ZM15.3483 20.7649C15.4019 21.0073 15.4581 21.264 15.5155 21.4639C15.5435 21.5619 15.5833 21.6877 15.6391 21.8079C15.6672 21.8683 15.7121 21.9555 15.7797 22.046C15.8412 22.1283 15.9706 22.2803 16.1885 22.3834L17.0439 20.5756C17.145 20.6235 17.2201 20.6809 17.2713 20.7275C17.3225 20.774 17.3586 20.8177 17.3818 20.8489C17.4261 20.9081 17.4479 20.9545 17.453 20.9654C17.4628 20.9865 17.4567 20.978 17.438 20.9127C17.4213 20.8546 17.4018 20.7771 17.3781 20.6756C17.3546 20.575 17.3296 20.4621 17.3012 20.3333L15.3483 20.7649ZM15.2273 20.2314C15.2711 20.4156 15.3104 20.5936 15.3483 20.7649L17.3012 20.3333C17.2637 20.1637 17.2211 19.9708 17.1731 19.7689L15.2273 20.2314ZM13.786 20.2105C13.9514 19.4416 13.5887 18.7246 12.9702 18.3081L11.853 19.967C11.8804 19.9854 11.864 19.9833 11.8457 19.9422C11.8264 19.899 11.8193 19.8429 11.8307 19.7898L13.786 20.2105ZM12.9702 18.3081L11.5979 17.384L10.4807 19.0429L11.853 19.967L12.9702 18.3081ZM11.5448 17.3506C11.1351 17.1105 10.6931 17.1357 10.4715 17.1664C10.3381 17.1849 10.2031 17.2168 10.0791 17.2618C10.0182 17.2839 9.94061 17.3161 9.85963 17.3624C9.80857 17.3916 9.62845 17.4954 9.48969 17.7036L11.1539 18.8129C11.0813 18.9217 11.0037 18.99 10.9624 19.0233C10.9166 19.0602 10.8771 19.0845 10.853 19.0983C10.8055 19.1254 10.7712 19.1382 10.7612 19.1419C10.7388 19.15 10.7355 19.1489 10.7457 19.1475C10.7553 19.1462 10.7503 19.1483 10.7285 19.146C10.7112 19.1442 10.6335 19.1347 10.5338 19.0762L11.5448 17.3506ZM10.7688 17.3637L9.5081 16.7337L8.61406 18.5228L9.87476 19.1528L10.7688 17.3637ZM9.66423 16.8306C9.6727 16.837 9.72528 16.8793 9.76756 16.9753C9.81363 17.08 9.83209 17.2173 9.79532 17.3569C9.72398 17.6277 9.5429 17.6302 9.72294 17.5661L9.05191 15.6821C8.57184 15.853 8.02973 16.208 7.86131 16.8474C7.67812 17.5427 8.04756 18.1156 8.45793 18.4259L9.66423 16.8306ZM8.66958 17.3203C8.70268 17.3544 8.73403 17.387 8.76476 17.4189L10.2051 16.0313C10.1747 15.9997 10.1411 15.9648 10.1053 15.9279L8.66958 17.3203ZM8.76475 17.4189C8.86403 17.5219 8.99886 17.6639 9.11843 17.7642C9.17305 17.81 9.30002 17.9134 9.47496 17.9838C9.67055 18.0624 10.0878 18.1541 10.4882 17.8684C10.8041 17.643 10.8899 17.3234 10.9131 17.2311C10.9455 17.1021 10.9547 16.9796 10.9587 16.8989C10.967 16.7324 10.9609 16.5209 10.9535 16.3037L8.95464 16.3721C8.96271 16.6081 8.96451 16.7325 8.96117 16.7999C8.95937 16.8361 8.95796 16.8049 8.97335 16.7437C8.97955 16.719 9.04194 16.4435 9.3266 16.2403C9.69583 15.9769 10.0741 16.069 10.2213 16.1283C10.2937 16.1574 10.3432 16.1887 10.3651 16.2034C10.3889 16.2194 10.4025 16.2308 10.4035 16.2317C10.4052 16.2331 10.4015 16.2301 10.391 16.2202C10.3807 16.2105 10.367 16.1972 10.3487 16.1789C10.3108 16.1409 10.2658 16.0943 10.2051 16.0313L8.76475 17.4189ZM10.6647 17.0415L11.2313 16.4691L9.81004 15.062L9.24341 15.6344L10.6647 17.0415ZM10.5207 16.7656H11.368V14.7656H10.5207V16.7656ZM11.368 16.7656C11.9154 16.7656 12.2734 16.4144 12.4311 16.1034C12.5817 15.8063 12.6165 15.4457 12.506 15.1107L10.6067 15.7374C10.5457 15.5524 10.5643 15.3626 10.6474 15.1988C10.7375 15.021 10.9765 14.7656 11.368 14.7656V16.7656ZM12.4824 15.0467C12.3651 14.7587 12.1961 14.4642 11.9076 14.1893C11.633 13.9277 11.2942 13.7261 10.8966 13.5486L10.0811 15.3748C10.359 15.4989 10.4765 15.5883 10.528 15.6374C10.5657 15.6733 10.5927 15.7092 10.6303 15.8014L12.4824 15.0467ZM10.8178 13.5174C10.6516 13.4595 10.4223 13.4099 10.1617 13.4524C9.87824 13.4987 9.64989 13.639 9.48683 13.8131C9.3414 13.9683 9.26463 14.1321 9.22541 14.2272C9.18598 14.3228 9.15755 14.4188 9.14567 14.4577L11.0585 15.0416C11.0767 14.9822 11.0778 14.9813 11.0743 14.9898C11.071 14.9977 11.0366 15.0842 10.9465 15.1803C10.8389 15.2952 10.6791 15.3944 10.4841 15.4263C10.312 15.4544 10.1911 15.4169 10.1599 15.4061L10.8178 13.5174ZM9.14567 14.4577C9.12788 14.516 9.12544 14.5215 9.12669 14.5184C9.12858 14.5138 9.15409 14.4494 9.22004 14.3722C9.29584 14.2835 9.41284 14.1925 9.56808 14.1442C9.7141 14.0988 9.8279 14.1118 9.87349 14.1206L9.49678 16.0848C9.68843 16.1215 9.91979 16.1293 10.1619 16.054C10.4132 15.9759 10.6048 15.8304 10.7408 15.6712C10.9631 15.4109 11.0456 15.084 11.0585 15.0416L9.14567 14.4577ZM10.0042 14.155L9.42322 13.9593L8.785 15.8548L9.36603 16.0504L10.0042 14.155ZM9.98403 15.3822C10.0783 15.2076 10.381 14.9372 10.9529 14.7121C11.4943 14.4989 12.1108 14.3941 12.6006 14.4139L12.6813 12.4155C11.8903 12.3836 10.9975 12.5451 10.2202 12.8511C9.47342 13.1451 8.64816 13.6467 8.22419 14.4319L9.98403 15.3822ZM12.5268 12.4212C11.8589 12.4979 11.1268 12.6976 10.7536 13.3201C10.3623 13.9727 10.6435 14.6297 10.7151 14.8015L12.5612 14.032C12.5342 13.9671 12.5431 13.9724 12.5479 14.0148C12.5547 14.0744 12.553 14.2082 12.4689 14.3485C12.3893 14.4814 12.2999 14.5122 12.3349 14.4968C12.3754 14.4789 12.4972 14.4378 12.755 14.4082L12.5268 12.4212ZM10.7553 14.8864C10.8212 15.0102 10.9249 15.2043 11.0582 15.3779C11.1889 15.548 11.4328 15.8131 11.8255 15.9291C12.2575 16.0567 12.6562 15.9451 12.9581 15.771C13.239 15.6091 13.4866 15.3677 13.7108 15.1033L12.1854 13.8098C12.1103 13.8983 12.0521 13.9577 12.0101 13.9959C11.9672 14.0349 11.9504 14.0434 11.959 14.0385C11.9683 14.0331 12.0161 14.007 12.0978 13.9928C12.1856 13.9775 12.2884 13.9804 12.3922 14.0111C12.4917 14.0405 12.5608 14.0861 12.5994 14.1172C12.6356 14.1464 12.6497 14.1666 12.6443 14.1595C12.6393 14.1531 12.6259 14.1343 12.6028 14.0951C12.5797 14.0561 12.5541 14.0093 12.521 13.9471L10.7553 14.8864ZM13.1339 15.4391C13.3414 15.3999 13.5794 15.3492 13.7914 15.2733C13.9561 15.2145 14.3484 15.0617 14.5837 14.6708C14.9005 14.1444 14.7141 13.6268 14.5356 13.3463C14.3717 13.0889 14.1289 12.8702 13.8964 12.6871L12.6593 14.2587C12.8453 14.4051 12.8705 14.4551 12.8484 14.4203C12.8328 14.3959 12.7771 14.3023 12.7592 14.1513C12.7389 13.9789 12.7759 13.7959 12.8701 13.6394C12.9533 13.5012 13.0516 13.4319 13.0884 13.4086C13.1266 13.3843 13.1439 13.3809 13.1183 13.39C13.0628 13.4099 12.9549 13.4375 12.7623 13.474L13.1339 15.4391ZM13.1246 14.4611C14.0533 14.6051 14.8803 15.0627 15.4932 15.7252L16.9613 14.3671C16.052 13.3841 14.8199 12.7001 13.4311 12.4847L13.1246 14.4611ZM16.5183 14.0895C16.0969 13.9612 15.5642 13.9681 15.1452 14.2759C14.939 14.4275 14.6253 14.7737 14.6761 15.2963C14.7272 15.8223 15.1062 16.1008 15.3288 16.2115L16.2195 14.4208C16.3092 14.4654 16.6237 14.6605 16.6667 15.1028C16.7094 15.5416 16.4438 15.8036 16.3295 15.8876C16.2007 15.9823 16.0881 16.0032 16.0391 16.0083C15.9802 16.0145 15.9454 16.0056 15.9361 16.0028L16.5183 14.0895ZM15.4186 16.2508C15.406 16.246 15.2989 16.205 15.1883 16.0801C15.0583 15.9333 14.9684 15.7182 14.9824 15.4772C14.9947 15.2654 15.0814 15.1234 15.1278 15.0608C15.1768 14.9946 15.2213 14.9608 15.2387 14.9485L16.3919 16.5825C16.5566 16.4663 16.9471 16.1439 16.9791 15.5929C17.0218 14.8547 16.4369 14.4984 16.1297 14.3815L15.4186 16.2508ZM15.8184 14.7655C15.8056 14.7655 15.7895 14.7651 15.7563 14.764L15.6956 16.7631C15.7234 16.764 15.7673 16.7654 15.8123 16.7655L15.8184 14.7655ZM15.7563 14.764C15.7031 14.7624 15.3681 14.7371 15.0526 14.8559C14.8603 14.9283 14.6486 15.0597 14.4831 15.2833C14.3212 15.502 14.2535 15.7416 14.2324 15.9516L16.2223 16.1518C16.2164 16.2106 16.1909 16.3377 16.0907 16.4731C15.987 16.6132 15.8565 16.6903 15.7574 16.7276C15.7116 16.7448 15.6746 16.753 15.6524 16.7569C15.6302 16.7608 15.6164 16.7616 15.615 16.7617C15.6134 16.7618 15.6182 16.7614 15.633 16.7616C15.6486 16.7617 15.6662 16.7622 15.6956 16.7631L15.7563 14.764ZM14.2373 15.9111C14.241 15.8847 14.255 15.8109 14.306 15.7185C14.361 15.6189 14.4427 15.5274 14.5451 15.458C14.6407 15.3932 14.7262 15.3666 14.7674 15.3562C14.8009 15.3476 14.8256 15.3454 14.7848 15.3509L15.0501 17.3332C15.073 17.3302 15.3838 17.3058 15.6676 17.1133C16.019 16.875 16.1714 16.5163 16.2174 16.1923L14.2373 15.9111ZM14.7848 15.3509C14.7699 15.3529 14.6697 15.3646 14.5662 15.3929C14.4543 15.4234 14.256 15.4934 14.0725 15.6679C13.6523 16.0674 13.7108 16.5855 13.7469 16.7838L15.7146 16.4259C15.7153 16.4299 15.7314 16.5121 15.7106 16.6351C15.6862 16.7791 15.6129 16.963 15.4506 17.1173C15.3034 17.2573 15.152 17.3061 15.0934 17.3221C15.0431 17.3359 15.0027 17.3396 15.0501 17.3332L14.7848 15.3509ZM13.7926 16.951C13.8581 17.1286 13.9713 17.382 14.1859 17.5868C14.459 17.8476 14.86 17.988 15.2838 17.8764C15.6041 17.7921 15.8139 17.5917 15.905 17.4982C16.0136 17.3866 16.1041 17.2646 16.1662 17.1778L14.5399 16.0137C14.4905 16.0827 14.4711 16.1039 14.4716 16.1033C14.4737 16.1012 14.4952 16.079 14.5356 16.0507C14.575 16.0232 14.6557 15.9736 14.7746 15.9424C14.9028 15.9086 15.0606 15.9006 15.2256 15.9476C15.3858 15.9932 15.4987 16.075 15.567 16.1402C15.6819 16.25 15.698 16.3374 15.6689 16.2586L13.7926 16.951ZM16.1791 17.1593C16.1597 17.1877 16.1207 17.2331 16.0587 17.2741C15.9981 17.3143 15.9452 17.3305 15.9212 17.336C15.903 17.3403 15.9076 17.3368 15.957 17.3351C16.0084 17.3332 16.0704 17.334 16.1741 17.3357L16.2068 15.336C16.0521 15.3334 15.7517 15.3222 15.469 15.3878C15.1093 15.4713 14.7731 15.6714 14.527 16.0321L16.1791 17.1593ZM16.1741 17.3357C16.2402 17.3368 16.3202 17.3381 16.4058 17.3379L16.4009 15.3379C16.3368 15.3381 16.275 15.3371 16.2068 15.336L16.1741 17.3357ZM15.6567 17.0032C16.0704 17.4674 16.5475 17.7341 17.0982 17.8573L17.5347 15.9055C17.3852 15.8721 17.2801 15.8186 17.1499 15.6726L15.6567 17.0032ZM16.3683 17.1994C16.4134 17.3337 16.4513 17.4702 16.4821 17.6085L18.4344 17.1747C18.3885 16.9681 18.3318 16.7641 18.2645 16.5634L16.3683 17.1994ZM17.6724 16.4148C17.3156 16.3366 17.0386 16.2457 16.7739 16.1583L16.1472 18.0576C16.4167 18.1465 16.7783 18.2663 17.2441 18.3684L17.6724 16.4148ZM16.7739 16.1583C16.4737 16.0593 16.0009 15.8864 15.4922 15.9277C14.9195 15.9742 14.4544 16.2601 14.0191 16.6381L15.3304 18.1483C15.6248 17.8926 15.6951 17.9178 15.6541 17.9212C15.6492 17.9216 15.6715 17.918 15.7536 17.9373C15.8462 17.9591 15.9568 17.9948 16.1472 18.0576L16.7739 16.1583ZM13.9198 16.7374C13.3733 17.3666 13.3005 18.2824 13.592 18.9823C13.7489 19.359 14.0291 19.7213 14.4541 19.9543C14.8836 20.19 15.3789 20.2487 15.8841 20.1584L15.5323 18.1896C15.4637 18.2018 15.4257 18.1989 15.4122 18.1971C15.3998 18.1954 15.4037 18.1941 15.4158 18.2008C15.4448 18.2167 15.4469 18.234 15.4383 18.2134C15.4274 18.1872 15.4187 18.1401 15.4253 18.0886C15.4322 18.0352 15.4481 18.0278 15.4297 18.0489L13.9198 16.7374ZM15.7082 20.174C15.5291 20.174 15.3952 20.1073 15.3107 20.0408C15.2269 19.9748 15.1274 19.8582 15.0849 19.6774L17.032 19.2204C16.8894 18.6129 16.3249 18.174 15.7082 18.174V20.174ZM15.0957 19.7191C15.1433 19.8889 15.1868 20.061 15.2273 20.2314L17.1731 19.7689C17.1284 19.5809 17.0782 19.3816 17.0213 19.1787L15.0957 19.7191ZM16.2002 19.0001H12.8083V21.0001H16.2002V19.0001ZM13.1344 21.2687C13.4564 20.9958 13.695 20.6331 13.786 20.2105L11.8307 19.7898C11.8367 19.7617 11.8462 19.7432 11.8515 19.7347C11.8567 19.7264 11.8561 19.7304 11.8415 19.7428L13.1344 21.2687ZM12.3627 21.9231C12.5539 21.764 12.8057 21.5546 13.1441 21.2604L11.8318 19.7511C11.5106 20.0304 11.2725 20.2284 11.0837 20.3856L12.3627 21.9231ZM11.3841 23.1383C11.6717 22.646 11.7684 22.4894 11.86 22.3772C11.9388 22.2807 12.0201 22.2081 12.3627 21.9231L11.0837 20.3856C10.7836 20.6352 10.536 20.8362 10.3104 21.1127C10.0976 21.3735 9.91436 21.6893 9.65727 22.1293L11.3841 23.1383ZM9.32134 22.1433C9.24563 22.4876 9.31181 22.8727 9.55949 23.1801C9.80727 23.4877 10.1692 23.6338 10.5207 23.6338V21.6338C10.7157 21.6338 10.9496 21.7178 11.1169 21.9253C11.284 22.1328 11.3171 22.3801 11.2747 22.573L9.32134 22.1433ZM9.7058 20.3959L9.32136 22.1433L11.2746 22.573L11.6591 20.8256L9.7058 20.3959ZM9.72192 20.6339C9.71617 20.6269 9.70856 20.6164 9.70099 20.6029C9.69335 20.5894 9.68782 20.5765 9.68422 20.5658C9.67657 20.543 9.68326 20.5472 9.68255 20.5962L11.6823 20.6253C11.6897 20.1164 11.5404 19.6977 11.269 19.3664L9.72192 20.6339ZM12.8083 19.0001H10.4955V21.0001H12.8083V19.0001ZM10.4955 19.0001H7.61991V21.0001H10.4955V19.0001ZM8.57761 19.7124C8.34834 18.9493 8.33411 18.0494 8.66726 17.0518L6.77025 16.4183C6.31174 17.7913 6.30938 19.1136 6.6622 20.2879L8.57761 19.7124ZM8.71875 16.7351V16.735H6.71875V16.7351H8.71875ZM6.94621 17.37C7.17497 17.6483 7.29572 17.8097 7.43973 17.9894C7.56638 18.1475 7.71745 18.3283 7.92198 18.4867L9.14651 16.9054C9.14198 16.9019 9.11465 16.8813 9.00049 16.7388C8.90369 16.618 8.72122 16.3798 8.4913 16.1001L6.94621 17.37ZM7.92197 18.4867C8.17761 18.6847 8.45 18.7963 8.72216 18.8956C8.97044 18.9862 9.39242 19.125 9.89529 19.3025L10.5612 17.4166C9.96707 17.2069 9.66878 17.112 9.40767 17.0167C9.29214 16.9746 9.2276 16.9475 9.18731 16.928C9.1689 16.9191 9.15865 16.9132 9.15367 16.9102C9.14912 16.9074 9.14731 16.906 9.14651 16.9054L7.92197 18.4867ZM9.33203 17.9159L9.02635 18.5335L10.8188 19.4207L11.1244 18.8032L9.33203 17.9159ZM8.96712 18.6819C8.84656 19.0721 8.81912 19.5189 9.04599 19.9441C9.23421 20.2969 9.54856 20.5051 9.62254 20.5593L10.8045 18.946C10.7737 18.9234 10.7558 18.9102 10.7404 18.8983C10.7259 18.8871 10.7223 18.8836 10.7242 18.8854C10.7283 18.8891 10.7708 18.9282 10.8106 19.0026C10.8543 19.0846 10.8731 19.1686 10.8752 19.236C10.8771 19.2938 10.8658 19.3117 10.878 19.2723L8.96712 18.6819ZM9.62254 20.5593C9.67466 20.5975 9.69769 20.6148 9.71632 20.6305C9.73169 20.6434 9.73005 20.6438 9.72192 20.6339L11.269 19.3664C11.0928 19.1513 10.8883 19.0074 10.8045 18.946L9.62254 20.5593Z" fill="black" mask="url(#path-1-inside-1)"/>
</g>
<defs>
<clipPath id="clip0">
<rect width="24" height="24" fill="white"/>
</clipPath>
</defs>
</svg>
