<svg width="65" height="39" viewBox="0 0 65 39" fill="none" xmlns="http://www.w3.org/2000/svg">
<g clip-path="url(#clip0)">
<path d="M39.2002 32.6999C40.4002 29.8999 41.5002 27.1999 42.6002 24.4999C44.6002 19.6999 46.5002 14.9999 48.5002 10.1999C49.0002 8.99994 49.7002 7.69994 51.2002 8.49994C51.7002 8.79994 51.8002 10.5999 51.5002 11.4999C48.4002 18.7999 45.2002 25.9999 42.0002 33.1999C41.7002 33.7999 40.9002 34.0999 40.3002 34.5999C39.9002 33.8999 39.6002 33.2999 39.2002 32.6999Z" fill="black"/>
<path d="M4.3 5C5 3.5 5.4 2.1 6.2 0.9C6.5 0.4 7.5 0.3 8.2 0C8.4 0.7 8.6 1.3 8.7 2C8.7 2.3 8.6 2.7 8.5 3C7.5 5.2 7.3 6.9 10.4 7.5C10.9 7.6 11.3 8.8 11.7 9.4C10.9 9.6 9.9 10.3 9.3 10C7.2 9 5.9 9.1 5.6 11.8C5.5 12.4 5.3 13 4.9 13.4C4.4 13.8 3.7 14.2 3.1 14.2C2.8 14.2 2.3 13.2 2.4 12.6C2.4 11.6 3 10.6 3 9.7C2.8 8.7 2.2 7.9 1.7 7.1C1.2 6.4 0.6 5.7 0 5C0.9 4.9 1.8 4.7 2.7 4.6C3.2 4.7 3.7 4.9 4.3 5Z" fill="black"/>
<path d="M64.9999 25.9C64.6999 26.5 64.4999 27.2999 64.0999 27.7999C61.4999 31.1999 58.9999 34.4999 56.2999 37.7999C55.7999 38.2999 54.6999 38.3 53.8999 38.5C53.9999 37.6 53.6999 36.3 54.1999 35.7C56.5999 32.7 59.0999 29.9 61.6999 27.1C62.3999 26.3 63.4999 25.8 64.3999 25.2C64.5999 25.4 64.7999 25.7 64.9999 25.9Z" fill="black"/>
</g>
<defs>
<clipPath id="clip0">
<rect width="65" height="38.5" fill="white"/>
</clipPath>
</defs>
</svg>
