<svg width="245" height="166" viewBox="0 0 245 166" fill="none" xmlns="http://www.w3.org/2000/svg">
<g clip-path="url(#clip0)">
<path fill-rule="evenodd" clip-rule="evenodd" d="M103.426 175.926C122.497 176.896 142.009 168.248 154.913 154.13C166.812 141.111 161.519 120.429 168.834 104.364C177.732 84.8234 209.258 71.1258 201.896 50.9531C194.422 30.4743 161.649 38.9178 141.747 30.1403C127.839 24.0067 118.307 10.5917 103.426 7.52477C86.0462 3.9429 65.4363 0.361389 51.657 11.5734C37.9131 22.7567 41.4425 44.2244 37.1564 61.4476C33.2603 77.1035 24.4088 91.9276 27.7315 107.716C31.244 124.406 42.9481 137.677 55.5984 149.077C69.53 161.631 84.7223 174.974 103.426 175.926Z" fill="#83C0F8"/>
<path d="M130.969 137.381C130.844 137.547 130.689 137.692 130.595 137.869C129.993 138.998 129.111 139.848 128.042 140.532C122.106 144.357 115.951 147.778 109.537 150.732C105.147 152.764 100.663 154.567 96.0965 156.163C95.7436 156.288 95.37 156.381 95.0067 156.485C94.685 156.298 94.5604 155.966 94.4463 155.645C93.2216 152.256 91.9865 148.877 90.7515 145.487C90.6684 145.259 90.6062 145.031 90.5958 144.782C90.575 144.181 91.0317 143.994 91.4572 143.756C94.7784 141.89 98.11 140.056 101.421 138.169C101.659 138.034 101.909 137.91 102.095 137.703C103.964 136.811 105.697 135.661 107.513 134.676C108.883 133.93 108.873 133.899 108.074 132.593C104.908 127.41 101.753 122.217 98.5978 117.024C96.0654 112.847 93.4395 108.721 91.0732 104.399C91.9139 106.182 93.2423 107.685 93.4811 109.696C93.5226 110.059 94.1142 110.141 94.0726 110.608C94.0104 111.562 94.0104 111.562 93.3876 111.624C94.0934 111.955 94.685 112.391 94.4878 113.334C94.3736 113.863 93.9689 113.593 93.6679 113.593C93.5745 114.122 94.2076 114.36 94.1245 114.941C94.4774 114.371 94.301 113.355 95.4011 113.655C96.3352 114.878 96.9579 116.236 97.3835 117.708C96.8126 118.195 96.8749 119.097 96.1899 119.512C95.3492 119.356 95.1313 118.952 95.4634 118.123C95.6295 117.698 96.1691 117.325 95.837 116.692C95.9927 117.356 95.6398 117.833 95.2662 118.154C94.5916 118.724 95.0482 119.004 95.453 119.315C95.6917 119.501 96.1899 119.418 96.0757 119.947C95.5153 120.268 95.4011 120.559 96.0654 120.745C95.9408 120.569 95.7748 120.32 95.9927 120.02C96.0654 119.957 96.1484 119.916 96.2418 119.885C96.5428 119.823 96.8438 120.071 97.1551 119.854C97.2485 119.346 96.4701 118.796 97.0825 118.372C97.5703 118.029 97.7052 118.714 98.0166 118.921C98.6185 120.279 99.646 121.471 99.5734 123.077C99.646 123.969 99.3243 124.394 98.6081 124.363C98.4006 124.352 98.193 124.332 98.0581 124.145C97.7675 123.751 97.9958 123.471 98.276 123.202C97.8297 122.994 97.5391 122.715 98.0892 122.331C98.577 121.989 98.0892 121.761 97.9854 121.201C97.9231 121.999 97.7675 122.487 97.0929 122.466C96.8126 122.715 96.522 122.652 96.2314 122.507C96.1691 122.466 96.1276 122.435 96.0965 122.414C96.1276 122.424 96.1691 122.455 96.2314 122.518C96.5532 122.829 96.8438 122.694 97.1136 122.445C97.8816 122.559 97.9543 123.119 97.7986 123.689C97.7052 124.01 97.6118 124.238 98.0062 124.28C98.9195 124.363 98.9299 124.912 98.7534 125.586C98.7016 125.783 98.7016 126 99.0959 126.145C98.5251 125.337 99.3243 124.891 99.4488 124.269C99.48 124.135 99.7809 124.021 99.9989 124.083C100.258 124.155 100.227 124.394 100.248 124.591C100.269 124.757 100.31 124.933 100.3 125.099C100.258 125.793 100.684 125.15 100.829 125.285C101.047 125.337 101.141 125.503 101.192 125.7C101.255 126.011 101.182 126.301 101.099 126.591C100.902 127.286 101.203 127.514 101.857 127.431C101.909 127.514 101.94 127.607 101.94 127.711C101.763 128.239 101.338 128.322 100.86 128.312C100.725 128.25 100.622 128.125 100.466 128.105C100.559 128.136 100.653 128.198 100.736 128.239C100.923 128.322 101.047 128.561 101.327 128.343C101.743 128.011 102.127 128.198 102.459 128.54C102.697 128.747 102.863 129.006 102.946 129.297C103.424 130.872 104.192 132.323 104.877 133.805C104.597 134.707 104.566 134.718 103.673 134.147C103.829 134.51 103.766 134.842 103.746 135.184C103.766 135.174 103.704 135.308 103.777 135.205C103.808 135.163 103.829 135.111 103.86 135.06C104.119 134.78 104.431 134.666 104.742 134.915C105.095 135.194 105.167 135.568 104.96 135.982C104.182 136.739 103.247 137.091 102.158 137.091C95.8266 137.081 89.506 137.091 83.175 137.081C82.7287 137.081 82.272 137.122 81.8673 136.874C81.4314 136.49 81.3899 135.972 81.3691 135.454C81.1719 130.354 80.8086 125.254 80.5596 120.165C80.4039 116.993 80.2274 113.821 80.0614 110.66C79.8953 107.426 79.7812 104.181 79.5009 100.947C79.2311 96.1484 79.0131 91.3389 78.7122 86.5398C78.6084 84.9331 78.4631 83.3265 78.5461 81.7095C78.9716 80.8803 79.7604 81.1498 80.3831 81.2016C82.9674 81.4193 85.531 81.8235 88.0322 82.5491C94.2698 84.363 99.6668 87.5555 104.296 92.1163C108.395 96.1484 112.132 100.481 115.671 105C118.317 108.618 120.87 112.297 123.154 116.153C126.112 121.139 128.769 126.28 130.969 131.639C131.675 133.36 131.81 135.101 131.249 136.884C130.99 136.967 131.218 137.34 130.969 137.381Z" fill="#F6E63E"/>
<path d="M59.6885 87.1513C59.263 86.3739 58.796 86.9026 58.412 87.1513C56.2739 88.5714 54.2708 90.1573 52.5687 92.0956C51.8422 92.9248 51.1157 93.754 50.3581 94.5625C49.1334 96.0655 48.3238 97.8379 47.2237 99.4238C47.068 99.6519 47.0161 99.9628 47.151 100.222C47.3898 100.699 47.1718 101.093 46.9746 101.487C46.1132 103.218 45.2933 104.969 44.4422 106.7C44.3384 106.908 44.2346 107.115 44.1308 107.322C44.3695 106.814 44.5979 106.296 44.8055 105.778C44.7432 105.529 44.5667 105.363 44.4111 105.187C42.3146 102.73 40.1246 100.367 37.9659 97.9623C36.9384 96.8221 36.0666 95.5161 34.7485 94.6454C34.3022 94.5418 34.0323 94.8216 33.7625 95.0808C30.763 98.0142 27.8881 101.072 25.034 104.15C23.9442 105.332 22.8337 106.514 21.6713 107.633C21.2769 107.913 20.924 108.255 20.6127 108.607C17.032 112.66 13.4202 116.682 9.99522 120.88C9.92257 120.973 9.83954 121.067 9.76689 121.17C9.3206 121.854 8.8847 122.538 8.44879 123.233C7.30713 125.493 6.97501 127.959 7.55622 130.654C8.1063 133.225 9.59045 135.215 11.5313 136.915C11.8011 137.153 12.1332 137.299 12.4238 137.495C13.2645 137.91 13.9703 138.656 15.0289 138.553C15.3299 138.729 15.8384 138.584 15.9111 139.123C15.9319 139.237 16.0979 139.299 16.129 139.195C16.2951 138.656 16.6376 139.019 16.8763 139.061C18.8898 139.434 20.8617 139.361 22.8026 138.677C24.0688 138.231 25.3246 137.734 26.6116 137.319C27.857 136.905 29.009 136.241 30.2856 135.93C30.7423 135.63 31.282 135.495 31.7698 135.257C35.7448 133.318 38.9 130.354 41.8579 127.182C42.9996 125.959 44.1412 124.705 44.8885 123.16C45.0545 122.238 44.9404 121.305 45.5216 120.403C46.0405 119.605 46.2273 118.6 47.3275 118.33C47.4935 118.289 47.7115 118.123 47.5662 117.988C46.9227 117.335 47.6388 117.055 47.8879 116.651C48.3446 116.122 48.4588 115.345 49.123 114.951C49.8703 115.127 49.9118 114.599 50.1297 114.07C50.6798 112.785 51.4893 111.624 52.0809 110.504C50.9497 113.438 49.9014 116.692 48.6767 119.875C48.2927 120.859 47.7634 121.813 47.7841 122.932C47.8257 123.243 47.7115 123.544 47.6596 123.844C46.8501 128.073 46.0509 132.302 45.231 136.532C45.2206 136.728 45.2621 136.905 45.4697 136.998C48.2823 137.267 51.1053 137.091 53.918 137.091C54.3227 137.091 54.6341 136.863 54.8105 136.49C55.1634 134.148 55.3295 131.774 55.5682 129.421C55.8069 127.058 56.0352 124.705 56.2739 122.341C56.523 119.885 56.7825 117.418 57.0212 114.951C57.2599 112.588 57.4675 110.224 57.7166 107.872C58.0383 104.762 58.3289 101.652 58.6714 98.5428C58.9516 95.9826 59.2111 93.412 59.4394 90.8517C59.5848 89.6286 59.9376 88.4055 59.6885 87.1513ZM31.8217 128.996C33.5653 126.197 35.2778 123.378 36.9384 120.528C36.8346 120.704 36.7412 120.87 36.6374 121.046C35.0598 123.73 33.4408 126.394 31.8217 128.996ZM37.2601 119.968C38.4952 117.833 39.7095 115.687 40.8823 113.51C41.3078 112.722 41.7437 111.935 42.1796 111.147C40.6021 114.111 38.9519 117.045 37.2601 119.968Z" fill="#F6E63E"/>
<path d="M30.2641 131.484C30.2537 131.494 30.2537 131.504 30.2433 131.515C30.2224 131.525 30.2328 131.504 30.2641 131.484Z" fill="#F6E63E"/>
<path d="M161.191 35.3975C160.434 33.5939 159.541 31.8422 158.877 29.9972C158.005 27.5613 157.32 25.0944 157.206 22.4823C157.05 18.6679 158.97 16.1699 162.219 14.6773C164.824 13.4853 167.657 12.967 170.522 12.6975C171.85 14.812 175.877 14.4596 177.341 13.4853C177.486 13.392 177.663 13.2676 177.683 13.1121C177.829 11.9305 178.649 12.1067 179.448 12.2207C180.133 12.314 180.818 12.3866 181.492 12.4902C182.572 12.6561 183.516 13.1536 184.419 13.7444C186.038 14.812 187.46 16.1181 188.892 17.4137C191.975 20.2227 195.047 23.0524 198.441 25.4883C199.032 25.9132 199.634 26.3071 200.226 26.7114C200.651 27.5821 200.62 28.546 200.776 29.4685C200.33 30.3081 199.416 30.4532 198.679 30.8575C198.586 30.9093 198.472 30.9508 198.378 30.9404C197.911 30.8782 197.642 31.6245 197.206 31.3239C196.666 30.9611 196.292 30.4118 195.908 29.8728C194.154 27.3955 192.535 24.8249 190.688 22.4098C192.764 25.198 194.601 28.1521 196.687 30.93C197.05 31.4068 197.019 31.78 196.417 32.0702C192.452 34.0085 188.602 36.1852 184.596 38.0303C183.734 38.4241 182.893 38.8491 182.084 39.3156C181.824 39.4607 181.544 39.5643 181.357 39.243C180.724 38.1443 179.915 37.1492 179.551 35.9054C179.686 35.6359 179.718 35.2938 179.977 35.1176C180.413 34.817 180.112 34.5683 179.998 34.2677C179.801 33.7598 179.583 34.1951 179.385 34.2366C179.219 34.2677 179.053 34.2573 178.887 34.2158C178.545 34.0915 178.275 33.9049 178.316 33.4799C178.472 33.3037 178.711 33.1897 178.742 32.8684C178.597 33.0757 178.565 33.3244 178.337 33.4177C177.517 32.6818 177.195 31.6349 176.739 30.702C176.365 29.935 175.95 29.2094 175.452 28.5253C176.5 29.9868 177.102 31.6971 178.026 33.2208C179.136 35.0451 179.977 37.0145 181.036 38.8698C181.399 39.5021 181.669 39.5332 182.312 39.2119C186.547 37.1077 190.729 34.9207 194.953 32.7958C196.458 32.0391 197.922 31.1788 199.458 30.4636C200.101 30.163 200.475 30.2045 200.786 30.8471C202.073 33.4799 203.443 36.0712 204.72 38.7144C205.093 39.4918 204.782 39.8753 204.211 40.2381C201.72 41.7929 199.229 43.358 196.687 44.8299C192.172 47.4523 187.564 49.8985 182.696 51.8264C181.316 52.3758 179.925 52.8941 178.503 53.3398C175.286 54.3348 172.681 53.5678 170.74 50.8417C167.958 46.934 165.27 42.9434 162.956 38.7351C162.707 38.279 162.416 37.854 162.084 37.4498C161.607 36.859 161.399 36.1334 161.191 35.3975Z" fill="#F6E63E"/>
<path d="M205.01 38.818C206.535 38.0095 208.04 37.1596 209.587 36.3925C213.292 34.5786 217.205 35.8432 219.104 39.5021C221.024 43.2129 222.737 47.017 224.48 50.8106C227.864 58.17 231.226 65.5501 234.371 73.0235C234.558 73.4692 234.724 73.9252 234.89 74.3709C234.309 75.3246 233.25 75.6666 232.42 76.3093C231.247 76.7757 230.323 77.636 229.296 78.3305C227.916 79.253 226.525 80.1444 225.176 81.1187C224.21 81.8132 223.982 81.7096 223.515 80.6419C221.585 76.2263 219.779 71.7485 217.817 67.3433C217.371 66.3378 217.35 65.4672 217.973 64.5239C218.699 63.4252 219.249 62.2332 219.706 60.9997C221.221 56.9158 218.419 52.1685 214.112 51.4844C210.988 50.9869 208.435 52.0648 206.795 54.6665C205.581 56.5945 203.972 58.0456 202.301 59.476C200.329 61.1552 198.253 62.6996 196.188 64.2544C195.773 64.5654 195.223 64.6587 194.922 65.1251C195.295 64.555 195.793 64.7312 196.281 64.8556C196.52 64.9385 196.738 65.0422 196.79 65.3324C196.717 65.6434 196.748 65.9336 196.935 66.2135C196.914 66.3171 196.862 66.4 196.79 66.4726C195.015 67.0116 193.261 67.6646 191.372 67.6957C190.843 67.4884 190.293 67.478 189.743 67.4884C186.888 67.5402 184.024 67.3847 181.17 67.3847C180.931 67.3847 180.692 67.3329 180.464 67.25C180.308 67.1982 180.173 67.1152 180.059 67.0012C179.904 66.3897 179.291 66.2964 178.876 65.9751C178.544 65.7989 178.326 65.4983 178.025 65.2702C176.852 64.5861 176.385 63.3423 175.69 62.285C175.503 62.0052 175.295 61.7149 175.41 61.3418C176.115 60.326 177.174 59.7041 178.118 58.9681C183.329 54.8842 188.466 50.7174 193.687 46.6542C195.513 45.2341 197.63 44.2805 199.571 43.0367C201.138 42.0416 202.716 41.0569 204.325 40.1344C204.885 39.8338 204.937 39.3466 205.01 38.818Z" fill="#F15634"/>
<path d="M78.8055 81.5125C78.9716 83.4612 78.9093 85.4306 79.148 87.3793C79.1791 87.6487 79.1688 87.9286 79.1791 88.2085C79.2622 90.2712 79.3037 92.3442 79.449 94.3965C79.6047 96.594 79.7292 98.7914 79.8019 100.989C79.3037 102.036 78.2866 102.585 77.477 103.3C74.3115 106.068 71.1149 108.794 67.9701 111.582C66.9842 112.453 66.652 112.422 65.884 111.427C63.6526 108.535 61.39 105.653 59.1586 102.761C58.7331 102.202 58.3387 101.642 58.4425 100.885C58.5359 98.9054 58.8265 96.9464 59.0133 94.977C59.169 93.3807 59.3247 91.7845 59.4803 90.1882C59.5945 88.9651 59.7087 87.742 59.7813 86.5086C61.224 85.4824 61.2862 83.9483 61.2759 82.3936C61.2759 82.0515 61.2655 81.7094 61.4212 81.3881C62.1165 81.0253 61.9712 81.6784 62.0024 81.9375C62.1062 82.8393 61.9505 83.741 61.8156 84.6428C61.9297 82.6112 62.6043 80.6729 62.8223 78.6621C63.0299 76.703 63.5488 74.8062 63.7668 72.8471C63.9847 70.8363 64.2961 68.8254 64.8046 67.2499C64.3895 69.5406 63.3205 71.9246 61.5042 73.9562C60.5493 74.744 59.6256 75.5628 58.2868 75.6976C56.4705 75.8738 55.0383 75.1793 54.1976 73.552C53.5126 72.2356 53.2324 70.8259 53.1805 69.3644C53.1389 68.0688 53.004 66.7524 53.4918 65.6744C53.4814 66.5451 52.5577 67.1566 52.1115 68.2346C53.1493 67.706 53.2116 68.1931 53.1805 68.898C53.1182 70.2558 53.3777 71.5826 53.8551 72.8471C54.6335 74.8787 55.9308 75.7598 58.1104 75.7183C58.8161 75.708 59.0237 76.1329 59.0963 76.6719C59.2624 77.9054 59.0444 79.0767 58.4736 80.1858C56.346 84.3422 54.0419 88.3847 51.6755 92.4064C50.3678 94.6349 48.9978 96.8324 47.5863 98.9987C46.974 99.9523 46.8183 99.9834 46.0607 99.1957C43.6217 96.6562 41.2657 94.0338 38.7956 91.5254C38.287 91.0175 38.37 90.5925 38.8786 90.126C41.2242 87.9908 43.4452 85.7104 45.8012 83.5752C47.1089 82.3936 48.2921 81.0772 49.5998 79.9059C50.4405 79.1596 50.5443 78.2164 50.0876 77.1695C49.3196 75.3659 48.5516 73.5623 48.2506 71.5826C47.9703 69.7894 48.4062 68.3486 49.6932 67.0737C51.0424 65.7366 52.4021 64.4098 54.073 63.4666C54.291 62.9587 54.5193 62.4508 54.7373 61.9429C55.0798 61.7563 55.4119 61.891 55.7336 62.0051C58.5255 62.9898 61.3174 63.9848 64.1196 64.9177C64.4829 65.0421 64.8358 65.1768 65.0745 65.4878C65.6557 66.3274 65.9567 67.3535 66.7973 68.0169C67.4408 68.7632 67.7937 69.6961 68.3853 70.4631C70.4299 73.7696 72.6509 76.9518 74.8824 80.1236C75.4324 80.9113 76.0655 81.2741 77.0308 81.2119C77.6223 81.2119 78.2762 81.0357 78.8055 81.5125Z" fill="#FBD1C6"/>
<path d="M209.483 80.1133C208.663 81.2327 208.093 82.4973 207.418 83.6996C205.187 87.711 202.976 91.7431 200.755 95.7648C200.547 96.1483 200.392 96.6562 199.779 96.3038C198.783 96.1276 197.963 95.5575 197.122 95.06C194.787 93.6503 192.327 92.4583 189.878 91.2456C189.504 91.059 189.131 90.8828 188.778 90.6651C188.311 90.3853 188.217 90.0121 188.466 89.5249C190.854 85.0057 193.116 80.4242 195.524 75.9153C196.79 73.5417 197.984 71.1266 199.219 68.7322C201.16 64.9488 203.121 61.1862 205.062 57.4029C205.809 55.9518 206.536 54.4592 207.781 53.2879C209.784 51.4014 212.981 50.7277 215.482 51.7538C218.378 52.9562 220.059 55.4853 220.163 58.4602C220.246 60.7924 219.094 62.627 218.046 64.5135C216.053 68.1414 214.019 71.7381 212.036 75.3763C211.175 76.9518 210.241 78.4859 209.483 80.1133Z" fill="#F15634"/>
<path d="M180.278 67.0012C181.638 67.0323 183.008 67.0634 184.367 67.0841C186.557 67.1049 188.757 67.1152 190.947 67.1256C191.279 67.1256 191.466 67.25 191.508 67.5817C191.736 67.8615 191.809 68.2036 191.809 68.556C191.788 73.3862 191.923 78.2164 191.736 83.0363C191.103 85.0679 189.858 86.8196 188.965 88.7268C188.82 89.0482 188.581 89.1104 188.384 88.7372C188.093 86.5294 188.311 84.3112 188.249 82.1034C188.28 81.7303 188.28 81.3468 188.28 80.9736C188.29 80.5175 188.052 80.3621 187.637 80.3932C180.434 80.3828 173.241 80.3932 166.049 80.3932C164.461 80.3932 164.419 80.4243 164.419 82.0101C164.419 95.6198 164.419 109.24 164.419 122.849C164.419 123.368 164.409 123.886 164.388 124.404C164.461 128.198 164.409 131.992 164.409 135.775C164.409 136.158 164.388 136.532 164.15 136.863C163.143 137.35 162.136 137.309 161.119 136.894C160.87 136.573 160.839 136.2 160.839 135.816C160.839 132.085 160.797 128.343 160.859 124.611C160.808 123.99 160.828 123.368 160.828 122.746C160.828 108.172 160.828 93.5985 160.828 79.0249C160.828 78.1957 160.828 77.3665 160.859 76.5373C160.808 71.676 160.839 66.825 160.839 61.9637C160.839 55.7238 160.818 49.4942 160.839 43.2543C160.984 42.28 160.621 41.2746 161.077 40.321C161.109 38.6833 161.14 37.0352 161.171 35.3975C161.627 36.009 161.897 36.7346 162.261 37.3876C162.894 38.6833 163.755 39.8649 164.316 41.2124C164.367 41.6166 164.388 42.0209 164.367 42.4251C164.388 43.3684 164.409 44.3116 164.378 45.2652C164.43 51.7539 164.388 58.2322 164.399 64.7105C164.399 65.0525 164.419 65.405 164.399 65.747C164.357 66.5348 164.72 66.8561 165.509 66.8457C168.093 66.8043 170.688 66.9079 173.272 66.7732C173.781 66.8043 174.29 66.9701 174.808 66.8043C174.975 66.7732 175.141 66.7732 175.307 66.8043C175.836 66.939 176.376 66.8768 176.915 66.8872C177.455 66.9494 177.984 66.8043 178.524 66.7732C179.136 66.8354 179.697 66.9805 180.278 67.0012Z" fill="#3846C8"/>
<path d="M91.9023 35.0449C92.2656 31.272 94.2479 28.5459 97.538 26.8149C102.707 24.0992 109.027 26.1515 111.746 31.3238C111.892 31.5933 112.047 31.8628 112.193 32.1427C112.795 32.7128 112.836 33.5005 113.033 34.2261C113.635 37.7296 112.732 40.8288 110.387 43.4823C109.391 44.6121 108.249 45.6072 106.682 45.9389C105.841 45.5553 105.229 45.0267 105.54 43.8243C104.803 44.2286 103.994 44.7987 103.558 44.3426C102.976 43.7414 102.966 42.7671 103.568 41.9482C103.059 42.1659 103.07 42.5909 102.925 42.964C102.748 43.4408 102.509 43.9695 101.97 43.2335C101.928 43.1713 101.876 43.1091 101.814 43.0677C101.845 43.1195 101.918 43.1713 101.928 43.2232C102.042 43.928 101.534 44.2493 101.015 44.239C100.465 44.2286 100.319 43.814 100.465 43.1921C100.652 42.3836 100.558 41.5336 101.513 41.0983C101.824 40.9532 101.762 40.4764 101.98 40.1965C101.71 40.6526 101.606 41.2538 100.828 41.1086C100.527 41.0568 100.361 41.3574 100.413 41.6891C100.486 42.2177 100.361 42.6842 99.8006 42.85C99.2816 42.9951 99.0948 42.5287 98.8561 42.2074C98.5032 41.7513 98.3994 41.2848 98.825 40.808C99.0325 40.5696 99.2712 40.3727 99.6345 40.0825C98.9703 40.2691 98.7004 40.0203 98.5551 39.5124C98.1919 38.2375 96.936 37.7088 96.2718 36.5479C95.9916 36.9936 96.1991 37.3046 96.0954 37.5844C95.9916 37.8332 95.9812 38.1649 95.6698 38.2375C95.3585 38.31 95.2547 38.0612 95.182 37.8228C95.0471 37.3875 94.8084 37.5326 94.5593 37.6985C94.3206 37.8643 94.0507 38.0198 93.8017 37.7917C93.5629 37.5741 93.8432 37.3564 93.8951 37.1387C93.947 36.89 93.9158 36.6619 93.8224 36.3406C93.5007 36.5583 93.1789 36.7656 92.8053 36.6308C92.3694 36.4754 92.4732 36.1229 92.4524 35.7809C92.4317 35.4596 92.0788 35.2937 91.9023 35.0449Z" fill="#3846C8"/>
<path d="M200.838 4.92351C202.841 3.93881 204.99 3.66931 207.179 3.83516C209.753 4.02173 212.161 4.83023 214.351 6.17771C216.593 7.54593 218.461 9.29766 219.541 11.7646C219.437 12.3347 218.98 12.6042 218.565 12.9048C216.821 13.7029 215.119 14.6151 213.324 15.3095C211.673 15.7656 210.262 16.7503 208.684 17.3515C208.363 17.4759 208.072 17.6624 207.75 17.8076C206.816 18.2118 206.453 18.0874 206.038 17.1545C205.218 15.3303 204.439 13.4852 203.62 11.6506C203.298 10.9354 203.09 10.1373 202.426 9.62935C201.834 8.52027 201.409 7.33862 200.869 6.21917C200.745 5.77347 200.745 5.34849 200.838 4.92351Z" fill="#F6E63E"/>
<path d="M7.87745 136.728C5.40731 136.728 2.9268 136.728 0.456664 136.728C0.311362 136.977 0.155681 137.216 0 137.464C1.81628 137.464 3.64293 137.464 5.45921 137.464C6.3414 137.464 7.23397 137.485 8.11616 137.589C8.50017 137.63 8.93608 138.335 9.26819 137.527C9.88054 137.786 10.4825 137.267 11.0948 137.506C11.3128 137.589 11.5308 137.599 11.7383 137.496L11.8317 137.485L11.9251 137.506C12.2157 137.661 12.4752 137.682 12.6413 137.34C12.3611 137.164 12.0704 136.998 11.7902 136.822C10.4929 136.407 9.18516 136.718 7.87745 136.728Z" fill="#4B4645"/>
<path d="M61.3184 73.78C60.7372 74.205 60.2183 74.7129 59.5748 75.0653C57.551 76.164 55.579 75.6354 54.427 73.6556C53.9184 72.785 53.6589 71.821 53.4721 70.8259C53.1192 68.9913 53.3372 67.1877 53.7108 65.3841C53.7523 65.1976 53.9807 64.9281 53.4617 64.7622C53.4825 65.9542 52.7352 66.7316 52.1021 67.592C51.8842 67.8822 51.5313 68.2761 51.8946 68.587C52.2267 68.8773 52.4654 68.3797 52.756 68.2346C52.8079 68.2035 52.8805 68.2346 53.0258 68.2346C53.0258 68.8151 52.9947 69.3955 53.0362 69.976C53.1296 71.2924 53.4098 72.5777 54.0845 73.7282C54.9355 75.2104 56.1498 76.1122 57.9661 75.9671C58.7134 75.9049 58.7549 75.9671 58.8483 76.7238C59.004 78.1127 58.6615 79.3773 58.0076 80.6004C55.1639 85.8867 52.1955 91.1108 49.1234 96.2727C48.4384 97.4232 47.7638 98.5738 46.9543 99.6414C46.5703 99.4445 46.3523 99.1231 46.0929 98.8536C43.768 96.3971 41.4432 93.9301 39.1184 91.4632C38.506 90.8102 38.3503 90.9449 39.1287 90.1986C41.0073 88.4054 42.8755 86.6226 44.754 84.8294C46.4042 83.2539 48.0544 81.6784 49.7046 80.1132C50.5868 79.284 50.8256 78.3304 50.2962 77.2109C50.0575 76.7134 49.8499 76.2055 49.6424 75.6872C49.0404 74.2465 48.5734 72.7746 48.3866 71.2198C48.262 70.1729 48.2516 69.1053 48.9781 68.2553C50.3377 66.6902 51.7285 65.1458 53.524 64.047C53.7523 63.9019 54.0326 63.8086 54.0948 63.4873C53.441 63.5495 52.9636 63.9641 52.4654 64.3373C51.2199 65.2805 50.1613 66.4207 49.0923 67.5505C48.3243 68.359 47.9818 69.2815 48.0129 70.3595C48.0233 70.9814 48.0752 71.593 48.1894 72.2149C48.5111 73.8526 49.1338 75.3866 49.7773 76.9103C50.4727 78.5377 50.3793 78.973 49.1131 80.1858C44.8474 84.2697 40.5818 88.3536 36.3161 92.4375C36.15 92.593 36.0359 92.8521 35.6934 92.8107C35.7141 92.593 35.7349 92.3753 35.7556 92.1577C35.3924 92.6034 35.0291 93.0387 34.6659 93.4844C34.4687 93.8887 34.1885 94.2515 33.8356 94.6039C33.5554 94.8837 33.2751 95.1532 32.9949 95.4331C31.7287 96.8842 30.421 98.3043 29.0718 99.7036C27.4734 101.352 25.8336 102.969 24.1938 104.586C23.6022 105.249 23.0002 105.902 22.3671 106.524C22.0557 106.835 21.5368 107.136 21.9312 107.726C22.2633 107.643 22.419 107.364 22.6266 107.136C26.3214 103.114 30.0785 99.1646 33.929 95.2984C34.1677 95.06 34.3649 94.749 34.7385 94.6764C35.8283 93.982 36.6067 92.9558 37.5097 92.0644C38.0701 91.5047 38.4645 91.515 38.9419 92.0955C39.7826 93.1424 40.7789 94.0649 41.6819 95.0599C43.2076 96.7495 44.8578 98.325 46.3523 100.035C46.7986 100.543 46.8401 100.979 46.591 101.621C46.0306 103.031 45.138 104.285 44.7229 105.757C44.6191 106.006 44.5257 106.275 44.4011 106.514C42.5433 110.173 40.5921 113.79 38.5683 117.366C35.8802 122.113 33.0572 126.788 30.1304 131.39C29.9747 131.639 29.6841 131.867 29.819 132.427C30.1096 132.002 30.3068 131.732 30.4833 131.463C32.6835 128.032 34.8008 124.549 36.8558 121.035C40.6129 114.588 44.1209 108.017 47.4006 101.31C47.577 100.947 47.8572 100.585 47.3902 100.211C47.1411 100.004 47.3175 99.7762 47.4421 99.5688C48.4488 97.9622 49.4452 96.3452 50.4519 94.7386C50.9501 94.2618 51.3237 93.671 51.6558 93.0905C54.126 88.903 56.5338 84.6739 58.7757 80.3516C59.2738 79.3876 59.5333 78.3408 59.5125 77.2628C59.471 75.6769 59.5229 75.5525 61.0278 75.0031C61.1628 75.3245 61.0486 75.6976 61.1939 76.0086C61.3392 76.3195 61.5053 76.4957 61.7543 76.0811C61.827 75.283 62.1591 74.4227 61.3184 73.78Z" fill="#4B4645"/>
<path d="M80.6323 49.0071C78.5047 48.0016 77.1243 46.4365 76.6261 44.0835C75.8685 40.5075 78.4632 36.776 82.0957 36.2889C85.6556 35.8121 88.6447 37.8126 89.5892 41.2953C89.6203 41.43 89.6826 41.5544 89.7345 41.6788C90.4091 42.5806 90.0147 43.5238 89.859 44.4671C88.8834 47.6596 86.5274 49.5668 83.4553 49.6497C82.4693 49.5771 81.4107 49.8985 80.6323 49.0071Z" fill="#3846C7"/>
<path d="M73.3783 160.309C71.2403 164.756 66.2585 166.321 62.3977 165.948C60.1559 165.73 58.0801 165.036 56.3054 163.626C54.3749 162.103 53.1295 160.164 53.0568 157.656C52.9634 154.588 54.4787 152.349 56.9281 150.67C56.98 150.628 57.0422 150.597 57.1045 150.556C57.6338 150.867 57.5093 151.395 57.5197 151.851C57.5508 153.645 57.5197 155.438 57.5404 157.231C57.5508 158.371 57.6546 158.475 58.7962 158.475C61.941 158.485 65.0857 158.485 68.2305 158.475C68.7079 158.475 69.2061 158.506 69.5901 158.122C69.8184 157.894 70.0779 157.842 70.2855 158.112C71.0327 159.045 72.081 159.532 73.1396 159.988C73.2434 160.061 73.3264 160.175 73.3783 160.309Z" fill="#3846C8"/>
<path d="M59.8862 86.4775C60.0626 86.6952 59.9692 86.9336 59.9484 87.172C59.4814 91.8986 59.0143 96.6355 58.5473 101.362C58.9521 103.404 58.4435 105.405 58.2567 107.415C57.6132 114.142 56.9178 120.869 56.2536 127.597C56.0149 130.001 55.7969 132.406 55.5167 134.8C55.3299 136.397 55.4233 136.511 57.0631 136.511C64.7642 136.511 72.4755 136.511 80.1766 136.521C80.7474 136.521 81.3597 136.407 81.8579 136.842C82.2004 136.853 82.5429 136.884 82.8958 136.884C89.3306 136.884 95.7654 136.884 102.2 136.894C103.269 136.894 104.224 136.677 104.94 135.827C105.272 135.619 105.262 135.319 105.075 135.049C104.836 134.697 104.857 134.293 104.774 133.909C104.172 133.069 103.653 132.168 103.549 131.162C103.498 130.654 102.532 130.965 102.937 130.178C103.114 129.835 102.688 129.286 102.439 128.871C102.408 128.82 102.335 128.789 102.283 128.737C102.076 128.415 101.92 128.073 101.868 127.69C101.868 127.628 101.847 127.576 101.806 127.534C101.173 127.14 101.266 126.405 101.017 125.834C100.955 125.689 100.882 125.555 100.82 125.409C100.176 124.953 100.28 124.083 99.782 123.533C99.647 123.378 99.5329 123.243 99.3357 123.181C99.4706 122.279 99.0762 121.533 98.7026 120.766C98.4223 120.196 98.1525 119.605 97.8826 119.035C97.5194 118.693 97.4571 118.206 97.2807 117.781C96.6683 116.464 96.0456 115.148 95.4333 113.831C94.603 112.961 94.3228 111.831 93.9491 110.732C94.3643 110.027 92.4753 110.401 93.3575 109.478C93.2745 108.846 92.7971 108.4 92.6103 107.82C92.4131 107.198 92.1432 106.607 91.8422 106.026C91.5205 105.415 91.178 104.824 90.8459 104.223C90.8355 104.202 90.8459 104.161 90.8666 104.036C91.2299 104.171 91.3233 104.503 91.4686 104.762C96.4193 112.899 101.37 121.035 106.321 129.172C107.161 130.561 108.012 131.94 108.853 133.329C109.278 134.033 109.278 134.054 108.614 134.417C106.497 135.567 104.442 136.842 102.273 137.9C101.795 137.568 101.266 137.578 100.716 137.578C80.6747 137.578 60.6334 137.578 40.5921 137.578C40.1873 137.578 39.7618 137.672 39.3674 137.485C39.0768 137.247 39.1702 137.06 39.4712 136.977C39.6995 136.915 39.9486 136.946 40.1873 136.946C41.6092 136.946 43.0207 136.925 44.4426 136.956C44.9927 136.967 45.1795 136.718 45.2314 136.241C45.4182 136.22 45.522 136.262 45.4286 136.469C45.4286 136.583 45.4182 136.708 45.4182 136.822C45.5739 137.019 45.7919 136.956 45.989 136.967C48.5941 136.967 51.2095 136.967 53.8146 136.977C54.2505 136.977 54.6553 136.998 54.7176 136.417C54.894 134.5 55.0497 132.572 55.2365 130.654C55.4752 128.218 55.7347 125.793 55.9838 123.357C56.3159 120.134 56.6376 116.91 56.9594 113.697C57.2603 110.68 57.5509 107.664 57.8519 104.648C58.1737 101.455 58.5265 98.2732 58.8068 95.0807C59.0559 92.3339 59.4502 89.6078 59.554 86.8507C59.471 86.519 59.5852 86.3946 59.8862 86.4775Z" fill="#32312F"/>
<path d="M203.485 104.472C203.454 104.648 203.309 104.7 203.184 104.648C202.894 104.534 202.624 104.378 202.354 104.233C199.064 102.554 195.774 100.865 192.494 99.1854C191.685 99.2268 191.82 99.8488 191.82 100.336C191.84 102.575 191.768 104.814 191.602 107.053C191.591 107.187 191.591 107.333 191.519 107.457C191.508 107.84 191.477 108.214 191.477 108.597C191.477 118.061 191.477 127.524 191.477 136.977C190.522 137.63 189.526 137.464 188.53 137.091C188.166 136.563 188.26 135.961 188.26 135.391C188.26 130.022 188.229 124.643 188.281 119.273C188.218 116.672 188.291 114.07 188.291 111.468C188.27 107.281 188.26 103.083 188.301 98.8952C188.312 97.7964 187.99 97.0916 186.952 96.6355C186.298 96.3453 185.509 96.0965 185.25 95.2673C185.707 94.7698 186.153 95.1222 186.547 95.3295C188.499 96.3453 190.471 97.3507 192.411 98.3769C195.463 99.9731 198.504 101.58 201.576 103.145C202.261 103.497 203.039 103.756 203.485 104.472Z" fill="#3846C8"/>
<path d="M69.9109 158.019C69.8071 158.817 69.8071 158.838 69.1117 158.838C65.3857 158.838 61.6494 158.848 57.9234 158.838C57.1658 158.838 57.145 158.817 57.145 158.019C57.1346 155.915 57.145 153.81 57.145 151.706C57.145 151.323 57.1139 150.95 57.1035 150.566C57.145 150.4 57.1865 150.234 57.2177 150.069C57.8923 150.297 58.214 151.022 58.8887 151.24C61.9711 152.629 65.0432 152.66 68.1154 151.209C68.8419 150.981 69.1429 150.203 69.8175 149.913C69.8486 150.131 69.8797 150.348 69.9109 150.566C70.0977 151.209 70.326 151.768 71.1252 151.893C71.4366 151.945 71.7479 152.173 71.9347 152.484C71.997 152.567 72.0593 152.65 72.1216 152.732C72.0904 153.064 71.8621 153.137 71.5819 153.137C71.011 153.085 70.2119 152.287 70.0666 153.603C70.16 154.609 69.942 155.614 70.1185 156.63C70.1807 157.096 70.2326 157.594 69.9109 158.019Z" fill="#F6E63E"/>
<path d="M232.348 76.1226C233.199 75.5422 234.05 74.9617 234.901 74.3812C236.936 75.0861 238.97 74.7751 241.004 74.3502C242.011 74.1428 242.997 73.8423 243.983 73.552C244.336 73.4484 244.585 73.4276 244.699 73.8319C244.709 74.2983 244.325 74.4642 244.024 74.6715C238.513 78.4237 233.023 82.1863 227.512 85.9489C227.314 86.0837 227.107 86.2184 226.899 86.3428C226.432 86.6226 226.1 86.5916 225.83 86.0318C225.27 84.8502 224.834 83.6064 224.274 82.4247C224.014 81.8754 224.388 81.6162 224.782 81.3467C227.19 79.6779 229.639 78.0713 232.026 76.3818C232.141 76.3092 232.244 76.2159 232.348 76.1226Z" fill="#3846C8"/>
<path d="M197.342 94.9563C198.151 95.402 198.961 95.8581 199.77 96.3038C199.708 97.4128 200.175 98.3768 200.684 99.3097C201.452 100.74 202.469 101.994 203.6 103.145C203.922 103.466 204.036 103.736 203.683 104.088C202.884 104.171 202.344 103.58 201.722 103.259C196.511 100.564 191.301 97.8689 186.112 95.1221C185.936 95.0288 185.738 94.9355 185.603 94.7697C185.52 94.6039 185.489 94.4173 185.572 94.2722C186.309 92.9143 186.859 91.4528 187.939 90.3023C188.292 90.1675 188.53 90.4267 188.79 90.5614C191.644 92.054 194.508 93.4637 197.342 94.9563Z" fill="#3846C8"/>
<path d="M91.9036 35.045C92.3188 34.8066 92.4433 35.6047 92.9 35.3248C92.9622 35.2834 93.0349 35.5114 92.9311 35.6462C92.7443 35.8742 92.3499 36.1333 92.765 36.3821C93.066 36.5583 93.5019 36.4857 93.668 36.0089C93.7095 35.8846 93.7822 35.7498 93.9586 35.7602C94.1766 37.004 94.1766 37.2631 93.9275 37.7399C94.4464 37.5948 94.6851 37.0973 95.1833 36.9625C95.5673 37.232 95.2248 37.771 95.64 38.1546C95.7541 37.6259 96.1797 37.2631 95.6815 36.7967C95.5465 36.662 95.5777 36.4754 95.7022 36.3303C95.8475 36.1437 95.9928 36.237 96.1485 36.3199C96.4703 36.4961 96.8439 36.579 96.9996 37.004C97.176 37.4704 97.56 37.7607 97.9855 38.0198C98.4941 38.3411 98.7536 38.963 98.8262 39.4502C98.9196 40.1343 99.0753 40.0514 99.4905 39.7612C99.698 39.6161 99.9575 39.502 100.092 39.8026C100.227 40.1032 99.9575 40.238 99.7396 40.3313C99.3971 40.466 99.2102 40.7459 98.9611 40.9843C98.6705 41.2641 98.6913 41.5233 98.8885 41.8031C98.9819 41.9482 99.1272 42.0519 99.2206 42.197C99.3659 42.4043 99.3867 42.8086 99.7707 42.6531C100.113 42.5183 100.3 42.2074 100.196 41.8239C100.103 41.5129 99.833 41.2227 100.31 40.9532C100.591 40.7873 100.777 40.6319 101.13 40.8495C101.473 41.0568 101.504 40.6422 101.566 40.4556C101.701 40.0721 101.888 39.8441 102.313 39.9685C102.448 40.0099 102.583 40.2172 102.459 40.238C101.971 40.3105 102.096 40.7355 101.929 40.9946C101.805 41.202 101.649 41.3885 101.379 41.4196C101.317 41.43 101.244 41.4093 101.172 41.3989C101.265 41.9482 100.663 42.3421 100.726 42.7567C100.777 43.1195 101.151 43.3683 100.58 43.6171C100.559 43.6274 100.975 44.1146 101.11 44.0524C101.359 43.9384 101.483 43.6378 101.826 43.5238C102.064 43.4409 101.743 43.2232 101.597 43.0988C101.525 43.0366 101.442 42.9641 101.39 42.8811C101.296 42.736 101.213 42.5494 101.411 42.4354C101.556 42.3421 101.68 42.4665 101.743 42.5909C101.898 42.8915 102.116 43.1506 102.459 43.5238C102.749 42.736 102.76 41.8757 103.497 41.316C103.766 41.6788 104.067 41.9897 103.611 42.4665C103.092 43.0055 103.663 43.5756 103.621 44.1353C103.621 44.1768 103.683 44.2286 103.715 44.2701C103.964 43.928 104.337 44.1561 104.638 44.0731C104.784 44.0317 105.002 44.0006 105.012 43.7725C105.033 43.503 105.157 43.389 105.406 43.4927C105.666 43.5963 105.936 43.7104 105.884 44.0731C105.873 44.1768 105.811 44.2701 105.78 44.3634C105.604 44.8091 105.593 45.1615 106.205 45.2548C106.465 45.2962 106.569 45.545 106.579 45.8145C106.652 46.1358 106.403 46.2498 106.185 46.3224C103.279 47.3693 100.425 47.4211 97.6638 45.8352C97.3006 45.5761 97.4562 44.9024 96.8439 44.8402C96.8231 44.4567 96.3561 44.1975 96.5637 43.7622C96.2731 44.239 96.8231 44.467 96.8543 44.8505C96.792 45.0889 96.6052 45.1408 96.3976 45.1408C95.0795 44.4463 94.1558 43.3372 93.3047 42.1556C92.9519 41.4404 92.3499 40.8288 92.4018 39.9477C92.0904 38.8076 91.7479 37.6778 91.831 36.4754C91.9659 36.2784 92.0801 36.0815 91.831 35.8846C91.7894 35.6151 91.7791 35.3248 91.9036 35.045Z" fill="#353F9A"/>
<path d="M197.34 94.9563C196.925 94.9978 196.624 94.7387 196.292 94.5728C193.531 93.1735 190.77 91.7742 188.009 90.3645C187.854 89.753 188.165 89.328 188.611 88.9652C189.628 87.1202 190.687 85.2959 191.507 83.3472C191.808 82.093 192.462 80.9943 193.053 79.8748C195.399 75.4281 197.703 70.9607 199.966 66.4622C200.163 66.0579 200.412 65.6848 200.63 65.3013C201.419 63.6221 202.498 62.0673 202.758 60.1704C202.799 59.8388 203.048 59.6004 203.328 59.4656C203.723 59.2687 203.775 58.8748 203.899 58.6675C203.775 58.8955 203.567 59.1857 203.193 59.3516C202.467 59.6729 201.875 60.1705 201.709 60.9686C201.564 61.6527 201.004 61.2277 200.723 61.4454C199.872 62.0984 198.897 62.5648 198.129 63.3319C197.931 63.5288 197.745 63.7257 197.641 63.9952C197.475 64.4202 197.464 64.9799 196.686 64.5031C196.271 64.244 196.51 64.9799 196.229 65.1043C196.001 65.0525 195.762 64.9488 195.534 64.9696C195.254 64.9903 194.942 65.0836 195.243 65.4878C195.306 65.5604 195.347 65.6951 195.202 65.7366C195.119 65.7573 194.984 65.7366 194.932 65.6744C194.548 65.2909 194.589 65.0421 195.067 64.7104C198.523 62.3057 201.813 59.6936 204.896 56.8328C205.383 56.3768 205.757 55.8689 206.068 55.2884C207.49 52.6349 209.763 51.1527 212.752 51.1216C216.105 51.0801 219.208 53.2257 220.132 56.8017C220.671 58.8852 220.246 60.8338 219.301 62.6996C218.928 63.4355 218.564 64.1922 218.097 64.8659C217.537 65.6848 217.62 66.4207 218.004 67.281C219 69.5199 219.924 71.7796 220.879 74.0392C221.834 76.2885 222.799 78.5481 223.754 80.7974C223.847 81.015 223.889 81.2638 224.179 81.44C224.574 81.326 224.906 81.015 225.269 80.7766C227.324 79.3773 229.379 77.978 231.424 76.5787C231.704 76.3921 231.953 76.1122 232.337 76.1537C232.275 76.7342 231.735 76.8689 231.361 77.128C229.441 78.4755 227.49 79.7712 225.549 81.098C225.352 81.2327 225.144 81.3674 224.947 81.5022C224.241 81.9997 224.242 81.9997 224.605 82.8186C225.144 84.0106 225.57 85.2441 226.213 86.4464C227.272 85.9282 228.154 85.2233 229.088 84.591C233.001 81.9375 236.893 79.2737 240.775 76.5891C242.083 75.6873 243.442 74.8684 244.667 73.8733C245.103 74.5471 245.113 74.5471 244.418 75.0239C240.09 77.9987 235.772 80.9632 231.444 83.938C229.742 85.1093 228.04 86.2806 226.224 87.5348C223.204 80.59 220.266 73.6246 217.298 66.6487C216.883 66.7524 216.841 67.1463 216.686 67.4261C214.485 71.3753 212.316 75.3349 210.116 79.284C209.94 79.595 209.888 80.02 209.452 80.1547C209.161 79.823 209.462 79.5639 209.597 79.3255C211.123 76.5372 212.669 73.7593 214.205 70.9814C215.814 68.0792 217.433 65.1872 219.021 62.285C221.429 57.9005 219.052 52.5934 214.07 51.588C211.071 50.9868 207.719 52.6867 206.234 55.589C201.491 64.8348 196.717 74.0703 191.943 83.3058C190.853 85.4203 189.774 87.5452 188.653 89.6597C188.425 90.095 188.456 90.3127 188.912 90.5304C190.189 91.1523 191.445 91.8053 192.711 92.4479C194.091 93.1528 195.472 93.868 196.862 94.5832C197.091 94.635 197.278 94.7387 197.34 94.9563Z" fill="#473633"/>
<path d="M179.436 12.2103C179.001 12.314 178.544 12.1067 178.118 12.3243C178.108 13.4438 178.015 13.5889 176.987 14.0035C175.109 14.7498 173.23 14.7083 171.362 13.9309C170.791 13.6925 170.417 13.3609 170.521 12.6871C171.611 10.6348 172.41 8.45808 173.469 6.38502C173.666 5.99114 173.635 5.5869 173.676 5.19302C174.808 5.32776 175.679 4.61256 176.645 4.22905C177.465 3.90772 178.222 3.41019 179.042 3.0785C179.426 2.92302 179.852 2.6017 180.246 3.08886C180.827 4.34306 180.879 5.59726 180.236 6.86183C179.592 8.14712 177.817 8.89342 176.053 7.86726C176.645 8.43735 177.548 8.0953 178.212 8.55137C177.392 8.87269 177.392 8.87269 177.568 9.74337C177.579 9.80557 177.579 9.87812 177.599 9.95068C177.714 10.5208 177.766 11.1012 177.942 11.6402C178.181 12.3969 179.021 11.7853 179.436 12.2103Z" fill="#FBD1C6"/>
<path d="M74.8404 55.1018C72.9307 56.7188 69.3915 56.4285 68.0008 53.5055C67.1705 51.7538 67.6271 49.6393 69.1113 48.3125C70.5228 47.0583 72.6712 46.8614 74.3214 47.8461C75.982 48.8308 76.8123 50.7898 76.3453 52.6556C76.2519 53.0183 76.0962 53.3708 75.982 53.7336C75.9509 54.4799 75.6499 54.9981 74.8404 55.1018Z" fill="#3846C8"/>
<path d="M161.099 40.3209C161.182 41.2434 161.182 42.166 161.099 43.0885C160.56 43.1714 160.186 42.8293 159.781 42.5806C155.204 39.7405 150.347 37.4809 145.199 35.9261C142.137 35.0036 139.024 34.1743 135.806 33.8426C135.36 33.8012 134.924 33.6664 134.509 33.5109C134.104 33.1274 134.384 32.9305 134.717 32.7543C135.049 32.5781 135.433 32.4641 135.485 32.008C135.422 31.9458 135.391 31.8732 135.381 31.7903C135.464 31.5415 135.464 31.2202 135.879 31.3135C137.913 31.469 139.885 31.9562 141.878 32.3811C142.252 32.9616 142.739 33.1067 143.362 32.7854C147.908 33.9048 152.226 35.6151 156.398 37.7193C157.996 38.5277 159.532 39.4503 161.099 40.3209Z" fill="#F15734"/>
<path d="M65.0742 65.519C62.7286 64.8452 60.4556 63.9434 58.1308 63.1764C56.9891 62.7929 55.8578 62.3783 54.7266 61.974C55.3181 60.554 56.1796 59.3205 57.2901 58.2633C57.8713 57.7035 58.5148 57.2578 59.2517 56.9469C60.9642 56.2317 62.6248 56.6878 63.7457 58.1907C64.5241 59.2376 64.8873 60.4503 65.0845 61.7253C65.2817 62.9898 65.3129 64.2544 65.0742 65.519Z" fill="#3846C8"/>
<path d="M74.841 55.1019C75.3392 54.7391 75.7128 54.283 75.9827 53.7233C76.2525 53.7025 76.3978 53.4952 76.5431 53.319C77.8301 51.8057 79.2416 50.4167 80.6219 48.9967C81.5457 49.3388 82.5213 49.3699 83.4865 49.4735C83.528 50.0021 83.1025 50.2613 82.7911 50.5619C77.0102 55.9207 72.5058 62.2124 69.0704 69.2816C68.8525 69.7273 68.7383 70.2766 68.1986 70.5047C67.5759 69.7687 66.9947 69.0121 66.7871 68.0377C68.1363 65.436 69.5167 62.8551 71.1462 60.4192C72.1633 58.8956 73.2323 57.4133 74.3428 55.9622C74.5504 55.7134 74.8721 55.5061 74.841 55.1019Z" fill="#F15634"/>
<path d="M164.098 40.9947C163.61 40.1033 163.112 39.2222 162.624 38.3204C162.468 38.0302 162.219 37.7607 162.281 37.3876C162.676 37.5016 162.738 37.8851 162.904 38.165C165.343 42.5806 168.197 46.737 171.062 50.8832C172.691 53.2361 175.379 54.0653 178.223 53.1635C181.254 52.2099 184.201 51.0075 187.076 49.6601C192.494 47.1102 197.631 44.0628 202.696 40.891C203.256 40.5386 203.807 40.1758 204.377 39.8752C204.813 39.6368 204.865 39.3881 204.637 38.9631C204.004 37.7814 203.391 36.5791 202.779 35.3767C202.073 33.9981 201.368 32.6092 200.651 31.2306C200.132 30.2252 200.309 30.2459 199.229 30.8056C195.576 32.6817 191.923 34.5578 188.27 36.434C186.215 37.4912 184.149 38.5381 182.084 39.585C181.42 39.9271 181.399 39.9271 181.056 39.2948C179.095 35.6462 177.144 31.9976 175.192 28.3387C175.099 28.1728 174.923 28.007 175.099 27.7893C175.722 28.3801 176.573 29.738 176.78 30.4947C176.791 30.5257 176.801 30.5672 176.822 30.5879C177.538 31.4068 177.694 32.5573 178.42 33.3762L178.399 33.3555C178.472 33.6975 178.555 34.0292 179.012 34.0085C179.116 34.6822 179.686 35.1901 179.718 35.895C179.634 36.2888 179.956 36.5272 180.133 36.7967C180.423 37.2632 180.714 37.7193 180.911 38.2375C181.004 38.4863 181.067 38.7972 181.44 38.7558C181.544 38.7454 181.658 38.6936 181.648 38.8491C181.648 38.9113 181.472 38.9424 181.43 39.0149C181.316 39.243 181.482 39.3362 181.669 39.3155C181.793 39.3051 181.897 39.1497 182.022 39.1186C182.416 39.0149 182.053 38.6729 182.198 38.5692C182.437 38.393 182.572 38.818 182.831 38.7661C183.122 38.704 183.039 38.4863 183.091 38.2997C183.236 37.7193 183.329 37.6571 183.796 37.9784C184.17 38.2375 184.388 37.9991 184.637 37.8747C187.221 36.5687 189.806 35.242 192.38 33.9152C193.853 33.1585 195.317 32.4019 196.842 31.6141C194.538 28.2972 192.276 25.0425 190.003 21.7774C190.065 21.736 190.117 21.6842 190.179 21.6427C190.771 21.9122 191.03 22.5237 191.394 23.0109C191.695 23.4255 191.892 23.9127 192.39 24.1511C192.774 24.3377 192.629 24.7834 192.847 25.0943C193.884 26.618 194.933 28.1417 196.022 29.6343C196.23 29.9142 196.406 30.2044 196.583 30.4947C196.718 30.7227 197.195 30.5672 197.154 31.0647C197.143 31.2306 197.559 31.0647 197.766 31.0233C197.704 30.8782 197.631 30.7331 197.486 30.4014C198.264 31.0544 198.835 30.619 199.406 30.3081C199.8 30.1008 200.174 29.852 200.548 29.624C200.838 29.5514 200.88 29.7587 200.932 29.966C200.838 30.5154 201.067 30.9818 201.336 31.4275C202.353 33.1585 203.236 34.9517 204.097 36.7553C204.419 37.4394 204.792 37.626 205.446 37.2632C205.623 37.2735 205.716 37.3772 205.747 37.5327C205.55 37.854 205.187 37.9991 204.917 38.2375C204.668 38.4552 204.782 38.6418 204.979 38.818C205.249 39.7301 205.26 39.7301 204.492 40.1966C201.575 41.969 198.69 43.814 195.721 45.4932C194.123 46.395 192.784 47.6699 191.352 48.7997C186.36 52.7178 181.399 56.6774 176.427 60.6265C176.106 60.8857 175.784 61.1448 175.462 61.4039C174.85 61.4039 174.694 60.8649 174.456 60.4814C173.023 58.2425 171.747 55.9103 170.48 53.5781C169.505 51.7953 168.529 50.0021 167.647 48.1675C166.765 46.5505 166.194 44.778 165.198 43.2232C164.772 42.5184 164.305 41.8239 164.098 40.9947Z" fill="#524C31"/>
<path d="M200.818 30.0283C200.797 29.8625 200.735 29.7277 200.59 29.6344C200.237 28.6912 200.278 27.6961 200.227 26.7218C200.247 26.3072 200.278 25.9029 200.278 25.4883C200.31 18.9893 200.341 12.4799 200.382 5.98084C200.382 5.74244 200.382 5.49367 200.403 5.25527C200.424 4.98578 200.652 4.97541 200.849 4.92358C201.15 5.28637 200.922 5.74244 201.057 6.13632C201.275 6.7997 201.347 7.47344 201.337 8.16792C201.327 11.1013 201.462 14.0347 201.296 16.9577C201.14 19.5801 201.181 22.1921 201.119 24.8042C201.098 25.5298 201.202 25.706 201.96 25.3328C203.735 24.4518 205.468 25.281 206.464 27.3852C206.807 27.3955 206.879 27.0742 207.035 26.8773C210.429 22.6171 213.792 18.3259 217.175 14.045C217.59 13.5268 218.088 13.1122 218.555 12.6664C218.95 12.428 219.064 11.8787 219.562 11.7439C219.759 11.9305 219.853 12.1171 219.656 12.3659C219.438 12.6354 219.23 12.9049 219.012 13.1743C216.49 16.3669 213.978 19.549 211.456 22.7415C211.176 23.0939 210.917 23.4567 210.657 23.8091C210.74 24.0164 210.657 24.203 210.553 24.3792C208.924 26.2657 207.429 28.2662 205.904 30.2356C205.115 31.1374 204.077 31.4069 202.935 31.4276C202.064 31.2099 201.181 31.0026 200.818 30.0283Z" fill="#3A48C8"/>
<path d="M90.6897 144.616C92.1323 148.576 93.575 152.536 95.0176 156.505C93.6684 157.034 92.2776 157.449 90.8765 157.863C89.9528 156.391 89.5791 154.692 88.9668 153.095C88.2403 151.23 87.6176 149.333 86.8911 147.467C86.6108 146.752 86.7146 146.316 87.4515 145.985C88.3337 145.591 89.1329 145.041 89.9943 144.606C90.2434 144.471 90.4613 144.254 90.6897 144.616Z" fill="#3846C8"/>
<path d="M188.593 136.967C189.558 137.06 190.513 137.06 191.478 136.967C196.522 136.967 201.566 136.977 206.62 136.977C206.901 136.977 207.17 136.967 207.451 136.988C207.617 136.998 207.814 137.019 207.814 137.257C207.824 137.516 207.658 137.61 207.42 137.62C207.316 137.62 207.212 137.62 207.108 137.62C206.932 137.62 206.766 137.62 206.589 137.62C181.805 137.62 157.02 137.62 132.236 137.61C131.811 137.61 131.323 137.806 130.97 137.381C130.928 137.226 130.835 137.071 131.053 136.967C131.52 136.677 132.039 136.708 132.558 136.708C141.764 136.697 150.97 136.718 160.176 136.697C160.518 136.697 160.871 136.666 161.182 136.853C162.116 136.842 163.051 136.842 163.985 136.832C164.286 136.78 164.587 136.697 164.898 136.697C169.537 136.718 174.176 136.656 178.816 136.728C181.711 136.666 184.597 136.708 187.492 136.708C187.876 136.718 188.26 136.739 188.593 136.967Z" fill="#3E3E3E"/>
<path d="M112.837 34.3194C112.619 33.5939 112.411 32.8683 112.193 32.1324C113.532 31.78 114.892 31.5934 116.251 31.3861C118.016 31.1062 119.791 30.8782 121.565 30.7642C122.022 30.7331 122.593 30.4117 122.966 31.0233C123.091 31.2306 123.143 31.044 123.236 30.9715C123.485 30.7849 123.766 30.6709 124.087 30.6501C127.543 30.4947 130.979 30.619 134.404 31.1062C134.528 31.355 134.663 31.355 134.829 31.1477C134.954 31.1477 135.078 31.158 135.203 31.158C135.525 31.355 135.182 31.7385 135.431 31.9458L135.421 31.9354C135.421 32.5884 134.757 32.4848 134.425 32.7647C134.165 32.9927 133.75 33.0549 133.48 33.3244C132.982 33.5213 132.442 33.5421 131.954 33.4177C130.294 32.9927 128.633 33.0963 126.952 33.1896C126.817 33.2 126.682 33.1585 126.547 33.1171C124.876 33.2415 123.195 33.2104 121.524 33.2622C118.95 33.3451 116.438 33.8841 113.916 34.3816C113.574 34.4542 113.2 34.5371 112.837 34.3194Z" fill="#F15837"/>
<path d="M90.6898 144.616C90.5238 144.554 90.3681 144.565 90.202 144.658C89.2783 145.187 88.3546 145.726 87.3998 146.213C86.9223 146.451 86.8808 146.7 87.0676 147.187C88.2404 150.307 89.3717 153.437 90.5134 156.568C90.6691 156.982 90.8455 157.397 90.8766 157.853C90.4926 157.666 90.1501 157.739 89.7557 157.884C86.393 159.169 82.9473 160.164 79.3563 160.569C77.3532 160.797 75.3605 160.755 73.3781 160.309C71.9978 159.885 70.7212 159.294 69.9116 158.019C69.7559 157.324 70.0154 156.588 69.6729 155.915C70.1088 155.106 69.4031 154.194 69.8909 153.385C70.2956 152.764 70.8872 152.826 71.4996 152.95C71.7279 152.971 71.9562 152.95 72.1223 152.753C73.6791 152.888 75.1321 152.494 76.5125 151.81C76.7304 151.696 76.9692 151.582 76.9692 151.302C76.9692 150.95 76.6786 150.877 76.4191 150.763C76.0662 150.618 75.7133 150.473 75.3708 150.317C74.6443 149.996 73.949 149.613 73.2951 149.156C72.963 148.928 72.5167 148.69 72.662 148.203C72.7969 147.768 73.264 147.799 73.6376 147.778C75.7548 147.633 77.8513 147.902 79.9167 148.327C81.2867 148.607 82.584 148.566 83.871 148.006C84.5041 147.726 85.1476 147.488 85.7911 147.239C86.1647 147.094 86.5591 147.042 86.528 146.451C86.5072 146.13 86.9639 146.057 87.2233 145.912C90.3888 144.15 93.5647 142.388 96.7302 140.626C98.1521 139.838 99.574 139.05 100.986 138.263C101.245 138.117 101.494 137.962 101.691 137.63C101.359 137.63 101.037 137.63 100.705 137.63C84.4937 137.62 68.2718 137.599 52.0602 137.589C48.189 137.589 44.3177 137.589 40.4465 137.578C40.0728 137.578 39.6888 137.692 39.3359 137.464C39.6784 137.454 40.0313 137.433 40.3738 137.433C60.6434 137.433 80.9027 137.433 101.172 137.444C101.38 137.444 101.587 137.475 101.795 137.433C102.179 137.371 102.086 137.744 102.252 137.879C100.373 139.102 98.3701 140.087 96.4292 141.196C94.8205 142.118 93.1807 143.01 91.5616 143.922C91.2295 144.098 90.8559 144.233 90.6898 144.616Z" fill="#4C494B"/>
<path d="M30.3262 135.941C30.4196 135.744 30.5649 135.63 30.7725 135.547C33.5021 134.51 35.6608 132.624 37.8404 130.779C40.4766 128.55 42.7703 126 44.7422 123.171C45.0951 122.01 46.0084 121.149 46.4651 120.051C46.4755 120.02 46.4962 119.989 46.517 119.968C46.8283 119.532 46.8802 119.087 46.8595 118.537C46.8491 118.123 47.8766 118.465 47.8662 117.729C48.0842 117.418 48.1983 117.065 48.3644 116.734C48.1983 115.905 49.2673 115.521 49.1013 114.692C49.2362 114.526 49.3296 114.65 49.4334 114.744C49.7759 115.044 49.9419 114.702 49.8485 114.526C49.6306 114.142 49.7344 113.987 50.0872 113.842C50.326 113.738 50.3363 113.635 50.1391 113.396C49.8589 113.044 50.5128 112.919 50.4609 112.536C50.4297 112.339 50.8241 112.702 50.9383 112.432C51.0213 112.246 50.7619 112.08 50.9279 111.862C51.8205 110.701 52.4951 109.416 52.9518 108.006C52.9725 107.954 53.0556 107.934 53.149 107.871C53.2839 108.245 53.0556 108.545 52.9518 108.835C51.5091 112.919 50.0872 117.014 48.5512 121.066C48.3436 121.616 48.2087 122.186 48.0426 122.746C47.8766 122.891 47.6275 122.849 47.4511 122.963C44.2337 127.182 40.3001 130.582 35.775 133.318C34.3324 134.199 32.8378 134.977 31.2914 135.65C30.98 135.785 30.6998 136.024 30.3262 135.941Z" fill="#2F2F2E"/>
<path d="M69.8173 149.924C69.4748 150.504 69.0804 151.033 68.4473 151.333C68.3227 151.281 68.1774 151.281 68.0529 151.198C64.9704 149.042 61.9087 149.105 58.847 151.24C58.7639 151.302 58.6602 151.323 58.5564 151.344C57.9544 151.084 57.5808 150.577 57.2071 150.079C56.9062 148.732 57.6015 147.892 58.6913 147.311C60.5802 146.296 62.6145 146.078 64.7213 146.275C65.6139 146.358 66.4961 146.534 67.3368 146.855C67.8246 147.042 68.2812 147.27 68.7068 147.571C69.5267 148.13 70.0352 148.856 69.8173 149.924Z" fill="#F15634"/>
<path d="M180.122 3.10954C179.738 2.84004 179.478 3.18209 179.198 3.30648C177.631 4.02168 176.074 4.73688 174.538 5.51428C174.04 5.76305 173.874 5.54538 173.677 5.19296C173.479 4.20826 173.303 3.24428 173.625 2.23885C174.248 0.321276 176.085 -0.518312 177.901 0.331641C179.032 0.86027 179.862 1.69986 180.319 2.89187C180.412 3.09917 180.309 3.14063 180.122 3.10954Z" fill="#2E2E2E"/>
<path d="M202.863 31.2825C202.987 31.241 203.122 31.1581 203.247 31.1685C204.326 31.2618 205.084 30.6502 205.831 30.0076C206.257 30.0387 206.391 30.4015 206.506 30.702C207.056 32.0703 207.813 33.3348 208.353 34.7134C208.395 34.9207 208.415 35.128 208.343 35.325C207.575 36.1645 206.724 36.9005 205.779 37.5431C205.717 37.4809 205.655 37.4084 205.603 37.3462C204.845 36.5999 204.575 35.5841 204.098 34.6823C203.662 33.8738 203.371 32.9824 202.946 32.1635C202.811 31.8837 202.655 31.5935 202.863 31.2825Z" fill="#2E2E2E"/>
<path d="M208.344 35.3249C208.271 35.159 208.188 34.9828 208.115 34.817C209.039 33.8426 210.015 32.9097 210.824 31.8318C211.187 31.355 211.53 30.9403 210.824 30.4739C210.648 30.3495 210.43 30.1111 210.658 29.8624C210.855 29.655 211.125 29.7794 211.322 29.9038C212.163 30.4428 212.972 31.0336 213.772 31.6348C214.052 31.8421 214.301 32.0805 214.633 32.1945C215.1 32.35 215.536 32.3293 215.847 31.9043C216.169 31.4586 216.138 31.0025 215.775 30.5879C215.588 30.3806 215.37 30.2148 215.152 30.0489C214.135 29.2819 213.107 28.5252 212.09 27.7478C211.499 27.3021 210.907 26.8979 210.108 27.2399C209.921 27.3229 209.662 27.3643 209.558 27.1259C209.444 26.8668 209.651 26.6698 209.848 26.5351C210.575 26.0272 211.291 26.1827 211.966 26.6491C213.19 27.4887 214.374 28.3801 215.578 29.2508C215.92 29.4996 216.325 30.1526 216.781 29.6447C217.238 29.1264 216.761 28.5978 216.335 28.2454C214.851 27.0015 213.242 25.9339 211.686 24.7937C211.281 24.4931 210.731 24.6486 210.336 24.3273C210.44 24.1718 210.544 24.006 210.637 23.8505C212.059 24.348 213.419 23.8401 214.789 23.5914C215.059 23.5395 215.328 23.467 215.598 23.4462C216.449 23.4048 217.134 23.9334 217.352 24.7523C217.549 25.4778 217.155 26.2345 216.387 26.6077C216.169 26.7113 215.941 26.7735 215.661 26.8668C215.941 27.2918 216.387 27.4887 216.74 27.7789C217.778 28.6392 217.882 29.4996 216.968 30.505C216.761 30.733 216.73 30.93 216.719 31.2202C216.678 32.7439 215.308 33.4695 214.031 32.6299C213.377 32.1945 212.755 31.697 212.101 31.2098C210.907 32.6506 209.807 34.1536 208.344 35.3249Z" fill="#534E4C"/>
<path d="M110.855 20.202C117.052 18.7301 123.341 18.2222 129.693 18.5228C137.871 18.9063 145.033 20.4196 146.506 21.3318C142.625 20.4715 138.722 19.7044 134.768 19.2795C130.772 18.8441 126.766 18.8027 122.76 18.927C118.764 19.0514 114.81 19.6215 110.855 20.202Z" fill="#F8EB67"/>
<path d="M92.4226 39.9685C92.7755 40.663 93.1284 41.3471 93.4916 42.0416C92.3603 43.1299 91.1668 44.125 89.5996 44.5292C89.776 43.586 89.7968 42.6324 89.7242 41.6788C90.6271 41.1087 91.53 40.5386 92.4226 39.9685Z" fill="#F05736"/>
<path d="M151.364 17.9113C149.34 17.4034 147.389 16.6778 145.375 16.1492C143.31 15.5998 141.234 15.1023 139.127 14.7706C137.052 14.4492 134.955 14.273 132.859 14.0865C130.783 13.8999 128.697 13.9932 126.393 13.8273C127.7 13.2261 135.349 13.6615 139.262 14.4389C145.303 15.6309 150.347 17.0509 151.364 17.9113Z" fill="#F8EB64"/>
<path d="M185.644 94.718C187.419 95.6198 189.204 96.5216 190.979 97.4337C193.21 98.5946 195.431 99.7659 197.652 100.937C199.666 101.994 201.679 103.041 203.693 104.088C203.703 104.254 203.579 104.358 203.485 104.472C197.787 101.497 192.089 98.5221 186.381 95.5472C186.08 95.3918 185.758 95.257 185.447 95.1119C185.343 94.8942 185.395 94.7491 185.644 94.718Z" fill="#2F303E"/>
<path d="M11.9243 137.495C12.163 137.433 12.4328 137.495 12.6404 137.33C13.398 137.837 14.2283 138.2 15.069 138.563C14.6123 139.289 13.8962 139.392 13.1386 139.33C12.8791 139.309 12.7753 139.164 12.9206 138.905C13.0036 138.77 13.2008 138.677 13.0555 138.397C12.8687 138.698 12.4017 138.553 12.3498 139.102C12.3187 139.403 11.5299 139.372 11.1251 138.905C10.8034 138.542 10.6269 138.584 10.4401 138.905C10.2325 139.258 9.97306 139.34 9.60981 139.216C9.58905 138.594 10.3259 138.387 10.3156 137.817C10.6684 137.775 10.6892 138.273 10.8864 138.19C11.26 138.045 11.7478 137.972 11.9243 137.495Z" fill="#BCBBB9"/>
<path d="M191.508 107.446C191.508 104.565 191.508 101.683 191.508 98.7708C191.933 98.7708 192.203 98.9884 192.483 99.1854C192.359 100.626 192.265 102.057 192.12 103.497C191.975 104.814 191.892 106.151 191.508 107.446Z" fill="#EF5939"/>
<path d="M47.4397 122.953C47.5227 122.58 47.7614 122.611 48.0313 122.735C47.8029 124.684 47.3359 126.581 46.9934 128.509C46.5367 131.038 46.0386 133.567 45.5508 136.096C45.53 136.221 45.447 136.345 45.3847 136.459C45.3224 136.386 45.2498 136.303 45.1875 136.231C45.613 133.909 46.0282 131.577 46.4641 129.255C46.817 127.369 47.201 125.482 47.5538 123.596C47.5954 123.378 47.751 123.119 47.4397 122.953Z" fill="#625F3F"/>
<path d="M180.121 3.10964C180.184 3.03708 180.246 2.96452 180.308 2.89197C180.962 3.98032 181.024 5.1516 180.651 6.33324C180.277 7.52525 179.416 8.27155 178.191 8.56178C177.153 8.62397 176.209 8.35447 175.399 7.69109C175.295 7.60817 175.192 7.50452 175.119 7.3905C175.098 7.34904 175.14 7.26612 175.171 7.14173C175.524 7.21429 175.731 7.50452 176.011 7.67036C178.087 8.94529 180.329 7.78438 180.474 5.34854C180.516 4.56078 180.319 3.83521 180.121 3.10964Z" fill="#5B5553"/>
<path d="M155.837 24.5036C154.031 23.8505 152.236 23.1975 150.232 22.472C151.156 22.3061 154.778 23.5499 155.899 24.3066C155.889 24.3688 155.858 24.431 155.837 24.5036Z" fill="#F7EA61"/>
<path d="M71.9239 152.494C71.5606 152.307 71.187 152.142 70.7822 152.069C69.8378 151.903 69.8378 151.893 69.8585 150.981C69.8585 150.846 69.8897 150.711 69.9 150.576C70.6888 151.105 71.5606 151.53 71.9239 152.494Z" fill="#505AB7"/>
<path d="M8.9466 138.563C8.54183 138.802 8.00214 138.802 7.69078 139.258C7.57661 139.423 7.18222 139.361 7.03692 139.185C6.86048 138.967 7.03692 138.75 7.25487 138.594C7.96062 138.066 8.40691 137.983 8.88433 138.325C8.91547 138.366 8.91547 138.449 8.9466 138.563Z" fill="#ABABAB"/>
<path d="M143.34 32.7854C143.267 32.8476 143.194 32.9201 143.111 32.9823C142.177 33.6353 142.063 33.5835 141.855 32.3812C142.426 32.2568 142.821 32.7647 143.34 32.7854Z" fill="#F6A995"/>
<path d="M135.452 31.9458C134.704 31.8836 135.286 31.4172 135.223 31.1581C135.462 31.1062 135.701 31.0959 135.867 31.3239C135.628 31.4587 135.566 31.7282 135.452 31.9458Z" fill="#F4957B"/>
<path d="M134.84 31.1477C134.84 31.2202 134.85 31.2824 134.85 31.355C134.85 31.6452 134.84 31.9976 134.445 31.9043C134.04 31.811 134.404 31.5208 134.404 31.3135C134.404 31.2409 134.414 31.1788 134.424 31.1062C134.559 31.1166 134.694 31.1269 134.84 31.1477Z" fill="#F4957B"/>
<path d="M91.8515 35.9053C91.9449 35.8742 92.0486 35.8017 92.1213 35.8224C92.2977 35.8949 92.1836 36.0193 92.1317 36.123C92.059 36.2681 92.0071 36.4236 91.8515 36.4961C91.7892 36.2992 91.7788 36.1023 91.8515 35.9053Z" fill="#3846C8"/>
<path d="M11.0938 137.506C11.3117 137.506 11.5297 137.495 11.7372 137.495C11.5297 137.744 11.3117 137.775 11.0938 137.506Z" fill="#BCBBB9"/>
<path d="M89.6001 44.5293C90.8975 43.7 92.1948 42.8708 93.4922 42.0416C94.281 43.1818 95.3085 44.0939 96.3359 45.0061C97.27 45.7316 97.6021 46.8615 98.1937 47.8151C99.0033 49.1315 99.709 50.4997 100.581 51.785C99.6883 50.0021 98.5881 48.3437 97.6644 46.5712C97.5191 46.3017 96.969 45.9182 97.6644 45.6073C99.3043 46.5194 101.079 46.8822 102.937 46.7474C104.203 46.6542 105.469 46.4883 106.6 45.8146C110.171 44.2494 112.153 41.4819 112.838 37.6986C113.046 36.5687 112.9 35.4389 112.838 34.3091C113.824 34.1329 114.81 33.9463 115.796 33.7805C116.139 33.7183 116.481 33.6665 116.657 33.314C116.948 33.5835 117.259 33.5421 117.623 33.4695C118.183 33.3555 118.785 33.4384 119.231 32.9616C119.294 32.8994 119.449 32.858 119.522 32.8891C120.477 33.2829 121.401 32.9409 122.355 32.8787C123.092 32.8269 123.86 32.972 124.618 32.9409C124.95 32.9305 125.313 33.0342 125.562 32.6921C125.843 32.9409 125.998 32.8372 126.279 32.6092C126.569 32.3812 126.413 32.8476 126.538 32.9616C127.026 33.625 126.725 34.6823 127.638 35.1487C127.773 35.2109 127.742 35.4804 127.617 35.6048C127.337 35.8846 127.047 35.584 126.766 35.5944C126.154 36.2267 126.237 37.6778 126.912 38.0821C127.244 38.279 127.763 38.393 127.607 38.9113C127.482 39.3155 127.036 39.1393 126.714 39.1393C126.434 39.1808 126.434 39.3985 126.434 39.6058C126.413 41.3782 126.424 43.1611 126.424 44.9335C126.424 45.1408 126.476 45.3378 126.621 45.5036C126.725 45.6798 126.725 45.9079 126.818 46.0841C127.14 46.6852 127.773 47.2242 126.881 47.898C126.704 48.0327 126.746 48.5406 127.078 48.6961C128.157 49.204 127.597 49.5357 126.974 49.8778C125.645 50.0332 125.635 50.0332 125.635 51.5155C125.635 64.3788 125.635 77.2317 125.635 90.095C125.635 90.717 125.677 91.3389 125.552 91.9504C125.417 92.4894 124.919 92.6449 124.504 92.8833C122.957 93.7436 122.2 95.1015 122.314 96.8221C122.438 98.5946 123.445 99.8177 125.127 100.46C127.41 101.331 129.932 99.8695 130.42 97.4648C130.555 96.791 130.565 96.0965 130.762 95.4332C131.956 94.3137 133.45 93.6503 134.841 92.8418C142.054 88.6439 149.299 84.4978 156.543 80.362C157.269 79.9474 157.249 79.4706 157.155 78.8383C158.276 77.7293 159.605 76.983 161.12 76.5684C161.141 76.9104 161.172 77.2525 161.172 77.6049C161.172 92.9351 161.172 108.276 161.172 123.606C161.172 123.948 161.141 124.29 161.12 124.643C159.688 125.047 158.214 125.244 156.74 125.036C155.059 124.808 153.357 124.943 151.675 124.715C150.866 124.601 150.025 124.622 149.205 124.446C148.811 124.363 148.427 124.218 148.074 124.643C147.835 124.933 147.503 124.746 147.244 124.539C145.915 123.409 144.151 123.451 142.635 122.808C142.397 122.704 142.168 122.849 141.95 122.974C141.753 123.088 141.525 123.108 141.4 122.891C140.726 121.616 139.356 121.491 138.224 121.004C137.726 120.787 137.207 120.683 136.792 120.258C136.284 119.74 135.505 119.833 134.914 119.595C134.447 119.398 134.249 118.475 133.554 118.33C132.817 118.175 132.412 117.594 131.842 117.221C126.694 113.78 121.836 109.934 116.824 106.317C116.346 105.975 115.91 105.581 115.485 105.177C113.139 102.419 110.939 99.5378 108.469 96.8739C105.054 93.1943 101.608 89.5768 97.2493 86.9544C92.9317 84.363 88.3236 82.6217 83.3314 81.9065C81.8265 81.6888 80.3216 81.4815 78.8063 81.5333C77.9137 81.523 77.0211 81.5126 76.1286 81.5126C75.7653 81.5126 75.4955 81.44 75.2568 81.1083C72.8074 77.7604 70.4618 74.3502 68.2719 70.8364C68.22 70.7534 68.22 70.6394 68.1992 70.5358C69.7768 67.2292 71.4997 64.016 73.565 60.9893C76.2324 57.0713 79.2941 53.4745 82.7502 50.2198C82.9993 49.9814 83.2484 49.743 83.4871 49.5046C85.3034 49.3077 86.8705 48.6132 88.1056 47.245C88.8114 46.4365 89.2369 45.4932 89.6001 44.5293Z" fill="#8CFED1"/>
<path d="M81.8568 136.842C79.781 136.863 77.7053 136.894 75.6399 136.894C69.2051 136.905 62.7807 136.894 56.3459 136.894C56.1383 136.894 55.9308 136.884 55.7232 136.894C55.2354 136.925 55.0382 136.718 55.0901 136.221C55.2043 135.049 55.2769 133.888 55.3911 132.717C55.6402 130.178 55.8996 127.638 56.1591 125.109C56.4082 122.673 56.6677 120.237 56.9167 117.812C57.1555 115.48 57.363 113.147 57.6017 110.815C57.8508 108.317 58.0999 105.809 58.3801 103.311C58.4528 102.658 58.3801 102.005 58.5566 101.362C58.6604 101.777 58.951 102.088 59.2001 102.409C61.5353 105.436 63.8809 108.452 66.2264 111.479C66.3095 111.593 66.4029 111.686 66.4859 111.8C66.7039 112.132 66.9218 112.142 67.2332 111.872C68.0531 111.137 68.9042 110.432 69.7345 109.706C73.0141 106.856 76.2834 104.005 79.5631 101.165C79.6357 101.103 79.7395 101.051 79.8226 100.999C80.0509 103.746 80.1651 106.493 80.2896 109.24C80.4141 111.748 80.5802 114.256 80.7048 116.765C80.8293 119.304 80.9954 121.844 81.1199 124.394C81.2444 126.871 81.3586 129.348 81.5454 131.815C81.6596 133.484 81.5454 135.184 81.8568 136.842Z" fill="#F15634"/>
<path d="M115.484 105.145C116.149 105.301 116.616 105.788 117.135 106.172C120.954 108.97 124.742 111.79 128.562 114.588C129.755 115.459 131.011 116.267 132.236 117.107C132.454 117.262 132.744 117.345 132.765 117.687C132.765 117.781 132.796 117.936 132.91 117.895C133.523 117.656 133.855 118.185 134.291 118.413C134.903 118.745 134.893 118.776 134.913 119.564C135.401 119.035 135.879 119.211 136.273 119.564C136.657 119.906 137.394 119.854 137.456 120.579C137.456 120.61 137.591 120.662 137.633 120.641C138.297 120.279 138.702 120.911 139.231 121.056C139.822 121.222 140.31 121.637 140.912 121.802C141.649 121.999 141.628 122.041 141.504 122.88C141.929 122.932 141.815 122.217 142.241 122.352C142.573 122.455 142.895 122.58 143.216 122.683C144.306 123.005 145.385 123.357 146.486 123.627C146.994 123.751 147.233 124.072 147.461 124.456C147.544 124.601 147.679 124.622 147.814 124.57C148.053 124.466 147.814 124.394 147.793 124.3C147.752 124.145 147.835 124.031 147.991 124.01C148.157 124 148.343 124 148.509 124.031C151.229 124.57 154 124.58 156.75 124.746C158.203 124.829 159.646 124.663 161.099 124.632C161.12 125.524 161.151 126.415 161.151 127.306C161.172 130.499 161.172 133.681 161.192 136.874C160.902 137.008 160.59 137.008 160.279 137.008C150.647 137.008 141.006 137.008 131.374 136.998C131.27 136.998 131.167 136.988 131.063 136.977C131.675 134.811 131.239 132.79 130.347 130.768C127.534 124.383 124.286 118.237 120.466 112.391C118.982 110.11 117.415 107.882 115.785 105.695C115.65 105.519 115.516 105.363 115.484 105.145Z" fill="#F15634"/>
<path d="M99.3237 123.171C99.552 123.036 99.8011 122.943 99.9153 123.264C100.164 124 100.663 124.622 100.818 125.399C100.538 125.503 100.455 125.803 100.102 126.063C100.299 125.389 99.7492 124.912 99.9983 124.29C99.9568 124.611 99.002 124.342 99.5728 125.068C99.7492 125.296 99.085 125.296 99.002 125.638C99.085 126 99.469 125.917 99.7596 126.011C99.5001 126.56 99.0539 126.498 98.6699 126.488C98.4311 126.477 98.317 126.249 98.4415 126.021C98.6595 125.617 98.5038 125.161 98.6491 124.705C98.3066 124.653 97.9745 124.549 97.6424 124.56C97.3621 124.56 97.2687 124.404 97.1961 124.218C97.0819 123.948 97.3206 123.875 97.4867 123.772C97.6009 123.699 97.6839 123.596 97.8188 123.461C97.4867 123.191 97.5593 122.642 97.0508 122.549L97.0612 122.559C97.7773 122.238 97.7046 121.574 97.7773 120.901C98.0679 121.015 98.5246 120.901 98.2651 121.481C98.1509 121.74 98.3689 121.605 98.4623 121.637C98.9293 121.771 99.002 121.916 98.701 122.196C98.4727 122.414 98.1924 122.59 97.933 122.777C98.0264 123.026 98.2547 123.057 98.4415 123.067C98.6802 123.077 98.8774 123.108 98.8567 123.378C98.8463 123.606 98.6699 123.71 98.4415 123.751C98.3481 123.761 98.1509 123.347 98.1509 123.803C98.1509 123.927 98.1094 124.104 98.2858 124.155C98.6283 124.238 98.9501 124.238 99.2511 123.99C99.5728 123.71 99.5209 123.461 99.3237 123.171Z" fill="#9F9637"/>
<path d="M93.9285 110.722C94.572 111.686 94.9664 112.764 95.4126 113.821C94.9975 113.821 94.6757 113.8 94.6135 114.422C94.572 114.775 94.3748 115.376 93.6483 115.21C93.669 114.992 94.1776 114.702 93.669 114.453C93.5756 114.412 93.5756 114.205 93.5133 114.091C93.368 113.811 93.0774 113.603 93.4822 113.251C94.0219 112.785 93.887 113.697 94.2606 113.541C94.4993 113.168 94.2606 112.785 94.2295 112.391C93.7002 112.536 93.7209 111.634 93.1708 111.841C93.0048 111.904 92.8387 111.966 92.7453 111.738C92.6934 111.603 92.7038 111.468 92.8076 111.354C92.9529 111.188 93.1086 111.261 93.2746 111.333C93.4303 111.406 93.586 111.458 93.7209 111.51C94.1257 111.313 93.5133 110.888 93.9285 110.722Z" fill="#B0A538"/>
<path d="M96.0118 120.061C96.0015 119.885 95.9599 119.667 95.7524 119.677C94.9532 119.75 94.8286 119.045 94.4758 118.61C94.3512 118.454 94.3927 118.309 94.6107 118.226C95.4099 117.895 95.6693 117.49 95.5863 116.754C95.5448 116.35 95.9392 116.412 96.1364 116.257C96.3751 117.086 95.9599 117.822 95.6486 118.496C95.441 118.952 95.4514 119.076 95.8562 119.242C95.9807 119.294 96.0949 119.377 96.209 119.449C96.3855 119.657 96.3751 119.854 96.209 120.061C96.1364 120.061 96.0637 120.051 96.0015 120.051C96.0015 120.04 96.0118 120.061 96.0118 120.061Z" fill="#A79D38"/>
<path d="M96.2109 120.051C96.2109 119.843 96.2109 119.647 96.2109 119.439C96.2525 118.993 96.6987 118.693 96.6468 118.185C96.6157 117.853 97.1139 118.019 97.2488 117.77C97.6224 118.102 97.6536 118.61 97.8508 119.025C97.4252 119.097 97.5083 118.579 97.1762 118.455C96.9997 118.765 96.9997 118.983 97.2592 119.263C97.4771 119.501 97.7574 119.885 97.5913 120.165C97.3733 120.538 96.9063 120.237 96.5534 120.258C96.4496 120.268 96.3355 120.123 96.2109 120.051Z" fill="#989037"/>
<path d="M104.763 133.909C105.001 134.344 105.25 134.78 105.458 135.226C105.676 135.692 105.645 135.713 104.929 135.827C104.638 134.883 104.638 134.883 103.673 135.381L103.683 135.391C103.694 135.205 103.102 135.236 103.517 134.894C103.694 134.749 103.569 134.593 103.476 134.448C103.268 134.137 103.444 133.878 103.59 133.619C104.036 133.754 103.787 134.521 104.389 134.448C104.711 134.427 104.69 134.127 104.763 133.909Z" fill="#B2A839"/>
<path d="M101.006 125.824C101.359 126.342 101.608 126.923 101.795 127.524C101.525 127.462 101.514 128.136 101.078 127.742C100.757 127.452 100.559 127.244 100.746 126.778C100.86 126.488 101.068 126.187 101.006 125.824Z" fill="#C1B53A"/>
<path d="M96.0021 120.04C96.0436 120.403 96.2304 120.683 96.5002 120.911C96.6352 121.025 96.5937 121.16 96.5106 121.274C96.4172 121.409 96.3238 121.409 96.1785 121.295C95.8879 121.046 95.7115 120.621 95.1925 120.714C95.068 120.735 95.0576 120.538 95.1095 120.382C95.2859 119.926 95.5973 119.854 96.0124 120.051C96.0124 120.061 96.0021 120.04 96.0021 120.04Z" fill="#958D36"/>
<path d="M101.857 127.69C102.168 127.97 102.147 128.384 102.272 128.737C101.639 128.312 101.556 128.333 101.058 129.037C100.736 128.892 100.995 128.519 100.788 128.343L100.777 128.353C101.099 128.063 101.67 128.187 101.857 127.69Z" fill="#C1B53A"/>
<path d="M97.0419 122.528C97.0315 123.15 96.4918 123.046 96.1804 123.026C95.9521 123.005 96.1804 122.704 96.2116 122.538C96.4918 122.3 96.772 122.549 97.0419 122.528C97.0523 122.538 97.0419 122.528 97.0419 122.528Z" fill="#9F9637"/>
<path d="M100.788 128.333C100.487 128.291 100.072 128.519 99.9786 128.001C99.9475 127.845 99.9267 127.659 100.134 127.565C100.29 127.493 100.394 127.597 100.466 127.711C100.57 127.928 100.674 128.136 100.788 128.333C100.778 128.343 100.788 128.333 100.788 128.333Z" fill="#C1B53A"/>
<path d="M96.844 126.208C96.7195 126.166 96.6676 126.145 96.6676 126.145C96.6987 125.845 96.2628 125.617 96.5223 125.295C96.5638 125.233 96.761 125.213 96.8025 125.254C97.0827 125.524 97.0205 125.834 96.844 126.208Z" fill="#757034"/>
<path d="M96.2204 122.538C95.8883 122.58 95.6081 122.518 95.4316 122.082C95.8364 122.051 96.0647 122.217 96.2204 122.538Z" fill="#9F9637"/>
<path d="M103.683 135.381C103.652 135.516 103.746 135.723 103.486 135.733C103.445 135.733 103.362 135.661 103.362 135.63C103.351 135.391 103.538 135.412 103.694 135.391L103.683 135.381Z" fill="#B2A839"/>
<path d="M97.7885 124.86C97.8404 124.881 97.8923 124.902 97.9545 124.933C97.9234 124.985 97.9027 125.047 97.8611 125.088C97.7989 125.14 97.7262 125.109 97.7262 125.026C97.7159 124.964 97.7574 124.912 97.7885 124.86Z" fill="#9F9637"/>
<path d="M34.7168 94.6765C34.8206 94.2826 35.1527 94.0649 35.4122 93.7954C36.284 92.8625 37.1662 91.94 37.9757 91.0797C38.4531 91.2248 38.6088 91.4632 38.7956 91.6602C41.4733 94.5002 44.1303 97.3611 46.808 100.201C47.1297 100.543 47.2543 100.813 47.0156 101.279C46.3306 102.596 45.6975 103.943 45.0436 105.27C44.9502 105.456 44.8776 105.653 44.6907 105.767C42.0546 102.844 39.4184 99.9213 36.7822 96.9983C36.0868 96.2312 35.4122 95.4539 34.7168 94.6765Z" fill="#3846C8"/>
<path d="M48.1149 117.812C47.9593 118.382 47.6168 118.62 46.9318 118.361C47.7413 118.755 47.2431 119.336 47.0771 119.584C46.2779 120.766 45.7797 122.134 44.7522 123.16C44.7003 122.787 44.5239 122.383 44.6277 122.062C44.7418 121.72 45.0117 121.523 44.6173 121.139C44.4097 120.942 44.7522 120.528 45.1466 120.59C45.5203 120.652 45.4891 120.559 45.3438 120.32C45.2712 120.185 45.2608 120.051 45.3438 119.937C45.7174 119.398 46.1015 118.859 46.4647 118.32C46.7138 117.947 47.1082 118.247 47.4092 118.092C47.1082 117.895 46.527 117.708 47.0978 117.283C47.4092 117.055 47.3262 116.506 47.8243 116.516C47.897 116.444 47.98 116.433 48.0734 116.475C48.1772 116.589 48.198 116.723 48.1668 116.869C48.1357 116.962 48.0838 117.034 48.0319 117.107C47.9177 117.262 47.7102 117.408 47.9696 117.605C48.0423 117.667 48.0838 117.729 48.1149 117.812Z" fill="#968E36"/>
<path d="M54.6743 136.397C54.7781 136.915 54.5186 137.07 54.0516 137.07C53.2628 137.06 52.4637 137.07 51.6749 137.07C49.8794 137.07 48.0942 137.081 46.2987 137.06C45.9873 137.06 45.593 137.226 45.375 136.811C46.828 136.956 48.2707 136.853 49.7237 136.874C51.0729 136.894 52.4221 136.863 53.7714 136.884C54.1865 136.884 54.5186 136.822 54.6743 136.397Z" fill="#625F3F"/>
<path d="M48.0733 116.537C47.9903 116.537 47.9072 116.527 47.8242 116.527C48.1771 115.863 48.3639 115.075 49.1008 114.671C49.5886 115.677 49.5886 115.677 48.5715 116.07C49.08 116.298 49.08 116.298 48.5196 116.744C48.4781 116.744 48.4366 116.744 48.3847 116.744C48.2601 116.713 48.1667 116.63 48.0733 116.537Z" fill="#756F34"/>
<path d="M179.728 35.9157C179.365 35.5633 179.157 35.1072 178.929 34.6719C178.794 34.4127 178.898 34.2365 179.012 34.0292C179.583 34.3091 179.531 33.4695 180.071 33.5524C180.143 34.0189 180.185 34.6097 180.901 34.8481C180.237 34.9725 180.123 35.5944 179.728 35.9157Z" fill="#AEA438"/>
<path d="M178.42 33.397C178.503 33.0756 178.389 32.775 178.223 32.4434C178.576 32.4745 178.97 32.4226 178.918 32.8372C178.897 32.9824 179.063 33.6872 178.399 33.3762C178.409 33.3762 178.42 33.397 178.42 33.397Z" fill="#524C31"/>
<path d="M167.856 48.095C169.122 50.4582 170.378 52.8215 171.675 55.1641C172.557 56.7603 173.471 58.3359 174.395 59.901C174.706 60.4296 174.996 60.979 175.484 61.3936C175.713 62.057 176.221 62.5545 176.543 63.1661C176.771 63.6014 176.834 64.1611 177.467 64.3477C177.736 64.4306 177.903 64.8556 178.12 65.1147C178.276 65.6952 177.882 65.5812 177.581 65.5294C177.083 65.4464 176.605 65.2288 176.117 65.3635C176.149 65.3946 176.263 65.3739 176.356 65.3739C176.699 65.3531 177.124 65.3221 177.228 65.6952C177.332 66.0994 176.906 66.2757 176.595 66.3793C176.117 66.5244 175.837 67.0945 175.246 66.9909C175.152 66.9909 175.059 66.9909 174.965 66.9909C174.509 67.1256 174.052 67.1463 173.595 66.9805C173.263 67.0738 172.921 67.1152 172.578 67.1152C170.015 67.1049 167.461 67.1152 164.898 67.1049C164.068 67.1049 164.047 67.0945 164.047 66.3378C164.047 59.3931 164.047 52.4484 164.047 45.5036C164.047 45.4 164.078 45.2963 164.088 45.1927C164.389 45.0476 164.618 45.2445 164.825 45.4C165.905 46.2292 167.067 46.9548 167.856 48.095Z" fill="#F6E63E"/>
<path d="M200.796 65.3117C200.817 65.5708 200.651 65.7678 200.547 65.9751C197.662 71.562 194.776 77.1592 191.891 82.7461C191.787 82.9534 191.642 83.1503 191.507 83.3473C191.497 82.176 191.466 81.0151 191.466 79.8438C191.455 76.133 191.466 72.4223 191.466 68.7115C191.466 68.3384 191.497 67.9548 191.507 67.5817C193.313 67.1567 195.129 66.7732 196.904 66.2238C198.129 65.6019 199.374 65.0525 200.796 65.3117Z" fill="#8CFED1"/>
<path d="M200.798 65.3117C199.501 65.6123 198.204 65.9129 196.906 66.2135C196.886 66.172 196.875 66.1409 196.865 66.0994C196.678 65.9336 196.668 65.7056 196.668 65.4775C196.668 65.1977 196.481 65.1044 196.232 65.0836C195.931 64.441 195.931 64.441 196.938 63.9227C197.27 64.0471 196.772 64.3995 197.104 64.5239C197.156 64.5032 197.259 64.4721 197.259 64.4514C197.187 63.8605 197.508 63.4978 197.913 63.1453C198.629 62.5338 199.428 62.0466 200.197 61.4973C200.363 61.3729 200.601 61.3003 200.695 61.1345C201.079 60.44 201.079 61.1967 201.338 61.321C201.411 60.5022 201.805 59.8803 202.449 59.476C203.113 59.0614 203.871 58.7712 204.151 57.8901C204.244 58.7401 203.974 59.2169 203.404 59.6522C203.144 59.8492 202.719 60.0668 203.009 60.5644C203.258 60.9894 202.77 61.2381 202.656 61.5594C202.168 62.8758 201.65 64.1819 200.798 65.3117Z" fill="#BB4B32"/>
<path d="M175.245 66.9908C175.743 66.4207 176.48 66.2134 177.124 65.7884C176.563 65.436 175.961 65.4982 175.193 65.3842C175.868 65.0317 176.449 65.0421 176.958 65.1458C177.248 65.2079 177.622 65.1147 177.902 65.3842C177.964 65.4463 178.13 65.2909 178.12 65.125C178.535 65.1768 178.598 65.7055 179.002 65.778C178.649 66.7005 177.778 66.8457 176.989 67.1048C176.397 67.1048 175.806 67.2706 175.245 66.9908Z" fill="#ACA33D"/>
<path d="M176.988 67.0945C177.642 66.628 178.421 66.3482 179.002 65.7677C179.272 65.9335 179.448 66.203 179.853 66.1927C180.237 66.1823 180.216 66.5036 180.092 66.7835C179.552 66.7628 179.023 66.7524 178.514 66.9805C178.016 67.167 177.507 67.2189 176.988 67.0945Z" fill="#423E3C"/>
<path d="M178.514 66.9908C178.586 66.9182 178.659 66.8457 178.742 66.7938C179.406 66.3067 179.406 66.3067 180.091 66.7938C180.153 66.8664 180.216 66.9286 180.278 67.0011C179.686 67.3535 179.095 67.1462 178.514 66.9908Z" fill="#B6B1BF"/>
<path d="M196.667 65.4878C196.958 65.6225 196.875 65.8713 196.864 66.1097C196.688 66.1408 196.501 66.1304 196.418 65.9646C196.283 65.7158 196.574 65.6433 196.667 65.4878Z" fill="#473633"/>
<path d="M61.5863 81.2535C61.5655 79.6261 61.5344 77.9988 61.5136 76.3714C61.5551 75.5007 61.7316 74.6197 61.3164 73.7801C63.2365 71.6241 64.264 69.0224 64.9905 66.2653C64.9282 67.2292 64.7518 68.1621 64.565 69.095C64.3885 70.0071 64.1498 70.9504 64.129 71.8729C64.1083 72.8265 63.5271 73.6557 63.6931 74.5989C63.8696 74.7648 64.046 74.3709 64.2847 74.6819C63.7865 74.827 63.662 75.169 63.5997 75.6769C63.5167 76.2989 63.2157 76.8897 63.2157 77.5634C63.2157 78.0195 63.4544 78.5274 62.9874 78.9109C63.3403 79.9163 62.5203 80.6834 62.4581 81.6266C62.3958 82.6009 62.1467 83.5649 61.9703 84.5393C61.9288 84.7777 61.8872 85.0161 61.6174 85.2337C61.6589 83.8551 61.8976 82.5491 61.5863 81.2535Z" fill="#313030"/>
<path d="M54.9353 78.3511C55.0806 76.9932 54.4268 75.9774 53.7106 74.9927C52.9426 73.9251 52.05 72.9611 51.1056 72.049C50.431 71.396 50.4102 71.1472 50.8461 70.3076C51.0745 70.7326 50.7839 71.2405 51.1471 71.5722C51.4792 71.8728 51.7906 72.2045 52.1019 72.5154C53.1917 73.5934 54.1362 74.7751 54.8523 76.1225C55.1221 76.6408 55.3712 77.1798 55.3297 77.7913C55.3193 77.9987 55.3401 78.2267 54.9353 78.3511Z" fill="#59504E"/>
<path d="M161.089 76.558C159.791 77.3043 158.504 78.0506 157.207 78.7969C156.48 78.1128 155.847 78.403 155.079 78.8487C146.984 83.5442 138.868 88.2085 130.772 92.8936C130.388 93.1217 130.004 93.3601 129.537 93.3912C128.728 92.9973 127.752 92.8107 127.482 91.7327C127.399 91.0797 127.43 90.4163 127.43 89.7633C127.43 77.0866 127.43 64.4099 127.43 51.7228C127.43 50.9661 127.503 50.1991 127.202 49.4735C127.306 49.3491 127.513 49.3077 127.513 49.09C127.461 49.0589 127.41 48.976 127.368 48.9863C126.507 49.204 126.507 49.204 126.486 48.3644C126.486 48.2297 126.486 48.0846 126.486 47.9498C126.517 47.2968 126.517 47.2968 127.244 47.0895C127.119 46.7267 126.517 47.0273 126.507 46.5609C126.496 46.2499 126.476 45.9389 126.465 45.628C126.175 44.5811 126.507 43.5135 126.424 42.4562C126.361 41.6063 126.434 40.7356 126.455 39.8753C126.465 39.5021 126.413 39.1082 126.766 38.8284C126.984 38.8906 127.192 39.0668 127.493 38.818C127.337 38.5174 126.87 38.5174 126.787 38.1546C126.403 37.1906 125.998 36.2163 126.735 35.2316C127.046 35.1694 127.192 35.5115 127.482 35.5426C127.482 35.4389 127.513 35.2627 127.493 35.2627C126.226 34.8688 126.642 33.7908 126.527 32.9305C127.295 32.9409 128.063 32.6092 128.831 32.9202C128.863 32.9305 128.915 32.9409 128.935 32.9202C129.797 32.236 130.596 33.0238 131.426 33.0653C132.142 33.0964 132.858 33.1482 133.585 33.1896C133.886 33.2 134.177 33.3244 134.478 33.3451C135.65 33.6561 136.885 33.5006 138.069 33.8841C139.428 34.3298 140.892 34.4853 142.282 34.8274C149.018 36.5065 155.276 39.3052 161.109 43.0678C161.13 43.3787 161.151 43.6897 161.151 44.0006C161.151 54.5318 161.151 65.0732 161.151 75.6044C161.14 75.9464 161.109 76.2574 161.089 76.558Z" fill="#F6E63E"/>
<path d="M185.644 94.7179C185.489 94.8009 185.458 94.9564 185.447 95.1118C185.157 95.4435 185.489 95.5161 185.676 95.6094C186.464 96.0343 187.263 96.449 188.063 96.8532C188.405 97.0294 188.571 97.2367 188.571 97.6513C188.54 102.212 188.53 106.762 188.519 111.323C188.478 111.458 188.467 111.593 188.467 111.727C188.395 113.666 187.679 115.075 185.862 116.164C179.988 119.667 173.979 122.798 167.181 124.124C166.433 124.269 165.686 124.404 164.928 124.487C164.638 124.518 164.306 124.663 164.067 124.352C164.046 123.969 164.015 123.596 164.015 123.212C164.015 109.229 164.015 95.2569 164.015 81.2742C164.015 79.8334 163.88 80.02 165.302 80.02C172.526 80.0096 179.749 80.02 186.973 80.02C187.315 80.02 187.658 80.0407 188.011 80.0511C188.623 80.5175 188.322 81.2534 188.54 81.8443C188.55 83.8448 188.561 85.8349 188.571 87.8354C188.571 88.2086 188.592 88.5921 188.602 88.9652C188.405 89.4317 188.198 89.8981 188 90.3645C187.201 91.8053 186.35 93.2253 185.644 94.7179Z" fill="#8CFED1"/>
<path d="M164.077 124.363C172.567 123.326 179.977 119.646 187.024 115.065C187.44 114.795 187.647 114.474 187.772 114.008C188 113.106 188.28 112.215 188.529 111.323C188.602 113.956 188.602 116.589 188.529 119.211C188.322 120.776 187.606 122.165 186.973 123.565C184.938 128.032 182.499 132.261 179.541 136.179C179.313 136.48 179.157 136.842 178.753 136.956C174.061 136.967 169.381 136.977 164.69 136.988C164.451 136.988 164.202 136.988 163.994 136.842C164.005 133.505 164.015 130.167 164.036 126.83C164.036 126.011 164.067 125.182 164.077 124.363Z" fill="#F15634"/>
<path d="M172.869 70.0796C173.201 70.007 173.544 69.9448 173.886 69.9448C177.166 69.9552 180.446 69.9448 183.725 69.9552C183.964 69.9552 184.203 70.007 184.441 70.0277C184.763 70.1521 184.908 70.432 185.033 70.7119C185.801 72.5569 186.59 74.3915 187.171 76.2987C187.244 76.5579 187.358 76.8274 187.15 77.0865C186.808 77.0969 186.465 77.128 186.112 77.128C179.138 77.128 172.163 77.128 165.189 77.128C163.943 77.128 164.037 77.2731 164.037 75.9463C164.037 75.5732 164.068 75.1897 164.078 74.8165C164.618 73.9977 165.552 73.7385 166.32 73.2721C167.659 72.4636 168.977 71.6136 170.42 70.9814C171.375 71.0435 171.945 70.1003 172.869 70.0796Z" fill="#8CFED1"/>
<path d="M170.584 71.0955C168.415 72.3394 166.246 73.5832 164.077 74.827C163.963 73.4485 164.035 72.0802 164.025 70.7017C164.025 69.9864 164.046 69.9657 164.803 69.9657C167.076 69.9554 169.36 69.9657 171.633 69.9761C171.643 70.6809 170.906 70.6913 170.584 71.0955Z" fill="#F2E341"/>
<path d="M187.138 77.0969C186.432 74.6715 185.457 72.3497 184.439 70.0382C185.28 69.8931 186.121 69.9242 186.961 70.0278C187.937 71.0955 188.238 72.443 188.539 73.7904C188.549 74.6508 188.58 75.5007 188.58 76.361C188.58 77.128 188.56 77.1384 187.761 77.1384C187.553 77.1384 187.345 77.1073 187.138 77.0969Z" fill="#F05635"/>
<path d="M167.856 48.0949C166.579 47.1516 165.438 46.0425 164.078 45.203C163.995 44.2597 164.005 43.3061 164.078 42.3629C164.815 42.1348 164.96 42.9537 165.448 43.1506C166.444 44.7054 167.077 46.4364 167.856 48.0949Z" fill="#F05735"/>
<path d="M188.539 73.7904C188.009 72.5362 187.49 71.282 186.961 70.0278C188.59 69.8205 188.59 69.8205 188.58 71.4479C188.58 72.2253 188.549 73.0027 188.539 73.7904Z" fill="#F4F1F7"/>
<path d="M170.584 71.0955C170.501 70.826 170.647 70.6705 170.864 70.5462C171.145 70.3907 171.456 70.2559 171.632 69.9657C172.058 69.9035 172.483 69.7999 172.878 70.0797C172.297 70.4321 171.715 70.7846 171.145 71.137C170.927 71.2717 170.761 71.2406 170.584 71.0955Z" fill="#424245"/>
<path d="M165.447 43.1506C164.887 43.0677 164.565 42.5702 164.077 42.3629C163.984 41.9068 163.984 41.4507 164.098 40.9946C164.544 41.7202 165.001 42.4354 165.447 43.1506Z" fill="#F4EFEE"/>
<path d="M188.541 81.8546C188.25 81.2949 188.23 80.6523 188.012 80.0614C188.302 80.0096 188.583 79.9889 188.583 80.4139C188.583 80.8907 188.562 81.3675 188.541 81.8546Z" fill="#DC5E51"/>
<path d="M173.584 66.9805C174.041 66.9805 174.497 66.9908 174.954 66.9908C174.497 67.2396 174.041 67.2604 173.584 66.9805Z" fill="#ACA33D"/>
<path d="M104.337 43.586C103.994 43.6793 103.88 43.5652 103.911 43.3061C103.932 43.1714 103.973 43.0262 104.15 43.0884C104.357 43.1506 104.679 43.1092 104.69 43.4201C104.721 43.7933 104.409 43.5341 104.337 43.586Z" fill="#353F9A"/>
<path d="M106.257 44.2286C106.454 44.5189 106.568 44.6847 106.371 44.8713C106.215 45.0267 106.091 44.8713 106.153 44.5914C106.174 44.5085 106.205 44.4152 106.257 44.2286Z" fill="#353F9A"/>
<path d="M105.915 42.705C105.883 42.7568 105.873 42.8294 105.831 42.8501C105.8 42.8708 105.728 42.819 105.676 42.8086C105.707 42.7568 105.728 42.6946 105.769 42.6532C105.831 42.6014 105.883 42.6324 105.915 42.705Z" fill="#353F9A"/>
<path d="M105.241 42.8086C105.189 42.7775 105.126 42.7672 105.085 42.7257C105.033 42.6635 105.054 42.591 105.137 42.5806C105.189 42.5702 105.272 42.6117 105.293 42.6531C105.303 42.6842 105.261 42.7464 105.241 42.8086Z" fill="#353F9A"/>
<path d="M106.342 43.1299C106.31 43.1817 106.3 43.2646 106.248 43.2854C106.207 43.3061 106.144 43.2543 106.082 43.2335C106.113 43.1817 106.134 43.1195 106.186 43.078C106.258 43.0158 106.31 43.0366 106.342 43.1299Z" fill="#353F9A"/>
<path d="M218.545 12.6767C217.476 14.2419 216.23 15.6826 215.058 17.1752C212.401 20.5751 209.713 23.9541 207.035 27.3332C206.827 27.5924 206.672 27.924 206.329 28.0692C205.53 25.2187 203.724 24.5761 200.984 26.1619C200.808 26.0376 200.891 25.851 200.891 25.6955C200.922 19.4141 200.953 13.1328 200.984 6.85142C200.984 6.61302 201.015 6.37462 201.036 6.12585C201.7 7.20384 202.115 8.39585 202.613 9.55676C203.714 12.2828 205.021 14.9156 206.121 17.6313C206.35 18.191 206.63 18.5331 207.284 18.1599C209.245 17.0612 211.394 16.3357 213.304 15.1437C215.037 14.3041 216.76 13.4126 218.545 12.6767Z" fill="#8CFED1"/>
<path d="M213.314 15.154C213.366 15.4443 213.21 15.5998 212.972 15.7138C210.948 16.6777 208.924 17.6417 206.91 18.6264C206.464 18.8441 206.309 18.6471 206.153 18.274C205.291 16.2839 204.409 14.2937 203.527 12.3036C203.226 11.6091 202.915 10.9146 202.603 10.2202C202.5 9.99213 202.427 9.7641 202.624 9.54643C202.977 9.51533 203.07 9.74337 203.195 10.0129C204.191 12.2829 205.208 14.5425 206.215 16.8125C206.288 16.968 206.329 17.1338 206.412 17.2893C206.713 17.9112 206.786 17.9423 207.44 17.6313C209.09 16.854 210.74 16.0558 212.39 15.2784C212.671 15.1748 212.94 14.8224 213.314 15.154Z" fill="#F15C37"/>
<path d="M29.0502 99.6933C28.5831 100.18 28.1057 100.657 27.6387 101.134C27.6594 101.134 27.6698 101.134 27.6906 101.134C30.0881 98.6982 32.4855 96.2624 34.883 93.8369C35.0906 93.6193 35.1633 93.3809 35.184 93.101C35.1944 92.9973 35.2048 92.8833 35.2151 92.7797C33.2639 95.1637 31.209 97.4648 29.0502 99.6933Z" fill="#FAF6ED"/>
<path d="M52.9626 67.053C53.0456 67.6127 52.6512 67.82 52.1738 68.245C52.3295 67.6127 52.6305 67.3121 52.9626 67.053Z" fill="#B3B2B2"/>
<path d="M58.5566 151.333C59.086 150.431 59.9889 150.048 60.9022 149.768C62.7289 149.198 64.5659 149.208 66.3718 149.872C67.1917 150.172 67.9494 150.566 68.4371 151.333C66.5897 152.453 64.5555 152.66 62.4694 152.494C61.0994 152.38 59.7502 152.121 58.5566 151.333Z" fill="#3946C7"/>
<path d="M71.4876 152.94C70.9375 153.023 70.3978 153.188 69.8789 153.375C69.91 152.598 69.9827 152.535 70.6469 152.598C70.9687 152.629 71.2489 152.732 71.4876 152.94Z" fill="#505AB7"/>
<path d="M97.6638 45.6176C97.3628 45.9079 97.6742 46.1152 97.7987 46.3121C98.8055 48.0846 99.833 49.8363 100.84 51.6088C100.964 51.8368 101.379 52.1167 100.933 52.3758C100.487 52.6349 100.435 52.1374 100.31 51.9094C98.9819 49.6083 97.6638 47.2968 96.3457 44.9957C96.5429 44.9957 96.7297 44.975 96.8543 44.7884L96.8439 44.7988C97.4459 44.7262 97.4459 44.7262 97.6638 45.6176Z" fill="#36363C"/>
<path d="M96.843 44.7988C96.6146 44.6019 96.4174 44.3531 96.0957 44.2702C96.158 43.9281 96.4486 43.783 96.6562 43.586C96.7496 43.5031 96.9156 43.3995 97.0194 43.5342C97.227 43.8037 96.9052 43.7519 96.8015 43.8245C96.6043 43.9696 96.6977 44.1354 96.8222 44.2494C97.009 44.4464 96.8949 44.6226 96.8222 44.8092C96.8326 44.7988 96.843 44.7988 96.843 44.7988Z" fill="#36363C"/>
<path d="M93.576 37.3461C93.5137 37.4913 93.4825 37.6882 93.2646 37.6675C93.1919 37.6675 93.057 37.5638 93.057 37.5016C93.0466 37.284 93.2646 37.2736 93.3995 37.201C93.4929 37.1596 93.5863 37.201 93.576 37.3461Z" fill="#3846C8"/>
<path d="M98.0797 41.6477C98.1627 41.6062 98.2354 41.627 98.2561 41.7099C98.2976 41.8861 98.2457 42.0416 98.0797 42.1452C98.007 42.1867 97.9344 42.1659 97.924 42.083C97.8825 41.8965 97.9344 41.741 98.0797 41.6477Z" fill="#3846C8"/>
<path d="M134.467 33.3659C134.155 33.3866 133.771 33.8323 133.574 33.2104C133.605 32.9305 133.481 32.661 134.031 32.6403C134.519 32.6196 135.027 32.2879 135.453 31.9354C135.712 31.9873 135.941 31.6659 136.325 31.9458C135.66 32.236 135.411 32.9823 134.633 33.0445C134.467 33.0653 134.456 33.2311 134.467 33.3659Z" fill="#F4957B"/>
<path d="M139.448 32.4641C139.635 33.1482 140.081 33.4074 140.517 33.6976C140.34 33.8116 140.112 34.0707 139.998 33.936C139.614 33.4488 139.126 33.4695 138.545 33.6043C138.659 33.0549 139.043 32.8787 139.448 32.4641Z" fill="#F6A894"/>
<path d="M136.916 32.5366C137.227 32.433 137.425 32.5781 137.622 32.6506C137.798 32.7128 137.881 32.8683 137.746 33.0445C137.611 33.2207 137.393 33.3036 137.227 33.1274C137.092 32.9823 137.03 32.7543 136.916 32.5366Z" fill="#F8C4B4"/>
<path d="M168.209 47.3798C169.008 48.551 169.787 49.7327 170.606 50.8832C172.018 52.8734 173.928 53.9513 176.408 53.9099C177.145 53.8995 177.84 53.6818 178.525 53.4538C182.77 52.0649 186.839 50.2509 190.793 48.1986C191.25 47.9602 191.706 47.7322 192.246 47.4523C191.758 48.1675 177.446 59.6004 175.464 60.8857C172.713 56.5738 170.326 52.0545 168.209 47.3798Z" fill="#F6E63E"/>
<path d="M202.862 31.2825C203.62 32.9202 204.388 34.5683 205.135 36.206C205.301 36.5792 205.447 36.9627 205.602 37.3358C204.564 38.0925 204.564 38.0925 203.983 36.9627C202.945 34.9415 201.897 32.9306 200.88 30.899C200.745 30.6399 200.351 30.3393 200.818 30.0179C201.399 30.5984 202.084 31.0026 202.862 31.2825Z" fill="#F9CFC5"/>
<path d="M210.346 24.3066C211.083 24.1511 211.685 24.3791 212.266 24.8352C213.657 25.9132 215.1 26.9394 216.501 28.007C217.269 28.5875 217.445 29.2405 217.072 29.8728C216.812 30.3081 216.625 30.3392 216.189 30.0179C214.778 28.971 213.366 27.9033 211.944 26.8772C211.031 26.2138 210.367 26.2864 209.589 27.0638C209.64 27.157 209.744 27.2192 209.827 27.157C210.606 26.587 211.291 26.8046 211.986 27.3436C213.128 28.235 214.311 29.0746 215.484 29.9453C215.65 30.0697 215.826 30.1837 215.971 30.3392C216.48 30.8575 216.521 31.5934 216.106 32.122C215.722 32.6092 215.017 32.7543 214.425 32.3915C213.896 32.0702 213.418 31.666 212.91 31.3032C212.349 30.8886 211.799 30.4739 211.249 30.0697C211.093 29.9557 210.938 29.7898 210.678 29.9142C210.886 30.4532 211.519 30.5258 211.758 31.0233C210.844 32.3086 209.796 33.4902 208.675 34.6201C208.519 34.7755 208.364 34.8999 208.135 34.8066C207.419 33.1793 206.682 31.5623 205.842 29.9971C206.994 28.2558 208.395 26.701 209.661 25.0425C209.848 24.7834 210.107 24.5554 210.346 24.3066Z" fill="#FBD1C6"/>
<path d="M131.675 31.5519C132.236 31.6348 132.734 31.8006 133.17 32.1531C133.326 32.2775 133.367 32.4226 133.222 32.5884C133.097 32.7335 132.921 32.8372 132.776 32.6921C132.454 32.3293 132.122 31.9976 131.665 31.8006C131.655 31.7903 131.675 31.6763 131.675 31.5519Z" fill="#F7B5A3"/>
<path d="M90.3577 157.262C87.0885 158.599 83.8607 159.553 80.498 160.061C78.2977 160.403 76.0974 160.486 73.8971 160.05C72.8696 159.843 71.9148 159.46 71.0949 158.786C70.742 158.506 70.4307 158.174 70.3061 157.729C70.2542 157.563 70.2335 157.376 70.3684 157.241C70.5241 157.086 70.6901 157.19 70.8354 157.273C71.3855 157.625 71.9771 157.915 72.5998 158.133C74.1151 158.651 75.6511 158.921 77.2806 158.599C77.2183 158.299 77.0315 158.361 76.8966 158.361C76.7201 158.361 76.5541 158.371 76.3776 158.382C74.4576 158.444 72.6828 157.988 71.043 156.993C70.7524 156.816 70.4514 156.63 70.2438 156.34C70.0259 156.039 69.9221 155.707 70.14 155.386C70.358 155.075 70.659 155.148 70.9703 155.251C72.6413 155.77 74.3642 155.863 76.0974 155.728C76.3361 155.707 76.5748 155.676 76.8135 155.624C76.907 155.604 77.0315 155.593 77.0419 155.376C76.7305 155.199 76.3776 155.324 76.0455 155.365C74.4057 155.604 72.8074 155.365 71.2298 154.951C71.0637 154.909 70.8873 154.868 70.7316 154.795C70.3788 154.629 70.0051 154.422 70.0466 153.976C70.0882 153.551 70.5137 153.52 70.8458 153.468C71.8006 153.313 72.7555 153.189 73.7103 153.054C74.7793 152.909 75.7964 152.587 76.7513 152.079C77.0626 151.914 77.3429 151.706 77.3117 151.292C77.291 150.898 77.0523 150.67 76.7098 150.535C75.7549 150.141 74.8001 149.727 73.9179 149.188C73.5754 148.98 73.1914 148.804 73.0046 148.389C73.3574 148.027 73.783 148.11 74.1877 148.099C76.2739 148.089 78.3185 148.379 80.3527 148.783C81.4321 149.001 82.4803 148.939 83.5078 148.524C84.4004 148.161 85.3137 147.83 86.2063 147.467C86.5591 147.322 86.7563 147.374 86.9016 147.778C88.0329 150.898 89.1849 154.039 90.3577 157.262Z" fill="#FBD1C6"/>
<path d="M48.5206 116.744C48.4687 117.138 48.4065 117.522 48.1055 117.812C48.064 117.781 48.0224 117.739 47.9809 117.708C47.5969 117.408 47.8771 117.179 48.064 116.931L48.0536 116.941C48.1574 116.827 48.2093 116.651 48.4168 116.713C48.4583 116.723 48.4895 116.734 48.5206 116.744Z" fill="#968E36"/>
<path d="M212.318 24.431C213.502 24.1926 214.404 23.9853 215.307 23.8402C216.138 23.7054 216.698 23.9957 216.937 24.5865C217.155 25.1047 216.989 25.7059 216.542 26.0791C216.013 26.5144 215.193 26.5662 214.654 26.1724C213.948 25.6541 213.232 25.1151 212.318 24.431Z" fill="#F9D0C5"/>
<path d="M127.202 49.4943C127.44 49.5358 127.7 49.5358 127.7 49.8882C127.7 50.1991 127.7 50.5101 127.7 50.8211C127.7 64.5965 127.7 78.3824 127.7 92.1578C126.88 92.4895 126.06 92.417 125.23 92.2097C125.23 82.2071 125.219 72.215 125.219 62.2125C125.219 58.3877 125.219 54.5629 125.219 50.7278C125.219 50.4894 125.23 50.2406 125.219 50.0022C125.209 49.6602 125.365 49.5358 125.707 49.4943C126.216 49.4632 126.714 49.6809 127.202 49.4943Z" fill="#3947C7"/>
<path d="M129.6 93.3083C133.274 91.173 136.948 89.0378 140.622 86.9129C145.562 84.0624 150.502 81.2223 155.443 78.3719C155.775 78.1853 156.107 78.0091 156.429 77.8329C156.844 78.0609 156.875 78.5481 157.207 78.8072C157.726 79.937 157.726 79.937 156.574 80.59C150.482 84.1039 144.4 87.6177 138.307 91.1212C135.816 92.5619 133.315 93.9924 130.814 95.4228C130.139 94.8734 129.797 94.1271 129.6 93.3083Z" fill="#3846C8"/>
<path d="M129.599 93.3082C130.107 93.9509 130.512 94.6557 130.813 95.4227C130.979 96.4489 130.865 97.4543 130.471 98.3976C129.744 100.108 127.897 101.124 126.008 100.958C124.254 100.802 122.666 99.4859 122.178 97.7757C121.576 95.6819 122.52 93.5362 124.482 92.5515C124.731 92.4272 124.991 92.3235 125.24 92.2198C126.06 92.0125 126.89 92.1162 127.71 92.168C128.353 92.5204 129.017 92.8418 129.599 93.3082Z" fill="#F15634"/>
<path d="M82.2913 70.94C82.2082 71.0851 82.1356 71.2717 81.928 71.1991C81.7619 71.1473 81.6166 71.0436 81.4713 70.9607C78.8974 69.4785 76.3235 68.0066 73.76 66.514C73.5316 66.3793 73.0438 66.3067 73.2618 65.8921C73.4901 65.4567 73.8015 65.8299 74.0402 65.9543C76.6452 67.4469 79.2399 68.9498 81.8346 70.4528C82.0318 70.5668 82.312 70.6187 82.2913 70.94Z" fill="#363636"/>
<path d="M126.765 38.849C126.724 39.9789 126.807 41.0983 126.682 42.2281C126.63 42.736 126.776 43.2958 126.765 43.8451C126.765 44.0524 126.796 44.2908 126.713 44.4463C126.558 44.7158 126.381 44.9024 126.724 45.1926C126.859 45.3066 126.713 45.5761 126.475 45.6487C126.246 45.5968 126.122 45.4725 126.122 45.2237C126.122 43.1506 126.111 41.0879 126.122 39.0149C126.122 38.2893 126.495 38.7247 126.765 38.849Z" fill="#4A4A45"/>
<path d="M126.724 35.2524C126.734 35.4804 126.827 35.7188 126.578 35.8846C126.506 35.9365 126.34 35.9779 126.433 36.0608C127.066 36.6828 126.641 37.4705 126.786 38.1754C126.443 38.476 126.153 38.4863 126.122 37.9577C126.08 37.1492 126.101 36.3407 126.122 35.5322C126.132 35.1072 126.475 35.242 126.724 35.2524Z" fill="#51504C"/>
<path d="M141.482 128.467C141.264 128.136 140.787 127.97 140.943 127.451C141.13 126.819 141.659 126.456 142.323 126.581C142.479 126.612 142.551 126.736 142.572 126.871C142.593 127.058 142.448 127.089 142.313 127.089C142.074 127.078 141.835 127.047 141.597 127.027C141.41 127.493 141.576 127.97 141.482 128.467Z" fill="#F7B9A7"/>
<path d="M138.483 126.809C138.681 127.13 138.95 127.441 138.743 127.959C138.38 127.358 137.964 126.871 137.871 126.218C137.985 125.959 138.245 126.114 138.4 126.021C138.878 125.741 138.909 125.99 139.023 126.405C139.22 127.089 138.743 126.747 138.483 126.809Z" fill="#F4967E"/>
<path d="M149.193 129.245C149.266 128.861 150.003 129.037 149.65 128.488C149.64 128.467 149.754 128.312 149.826 128.281C149.972 128.208 150.107 128.312 150.159 128.426C150.304 128.726 150.491 129.037 150.314 129.39C150.252 129.514 150.127 129.597 149.972 129.545C149.733 129.462 149.484 129.359 149.193 129.245Z" fill="#F6AE9B"/>
<path d="M143.694 124.228C143.123 123.855 143.123 123.855 142.137 123.896C142.251 123.409 142.905 123.523 143.071 123.046C143.143 122.849 143.444 122.974 143.507 123.212C143.59 123.492 143.621 123.793 143.694 124.228Z" fill="#F6A995"/>
<path d="M141.317 123.409C141.67 123.844 141.971 124.207 142.168 124.632C142.251 124.808 142.241 124.974 142.023 125.026C141.836 125.068 141.494 125.109 141.546 124.881C141.639 124.373 141.213 124 141.317 123.409Z" fill="#F5A18B"/>
<path d="M133.148 120.217C133.75 120.02 133.854 120.714 134.28 120.756C134.301 120.756 134.332 120.901 134.311 120.921C134.249 120.984 134.145 121.087 134.072 121.067C133.605 120.973 133.335 120.673 133.148 120.217Z" fill="#F8C8B8"/>
<path d="M144.107 126.954C144.222 127.348 144.17 127.68 143.817 128.022C143.713 127.576 143.36 127.151 144.107 126.954Z" fill="#F8CCBE"/>
<path d="M147.7 127.711C147.503 127.586 147.399 127.42 147.565 127.213C147.69 127.058 147.887 126.944 148.094 126.964C148.261 126.985 148.261 127.12 148.209 127.275C148.115 127.534 147.835 127.545 147.679 127.731L147.7 127.711Z" fill="#F6B6A3"/>
<path d="M147.689 127.731C147.897 127.731 148.105 127.711 148.302 127.742C148.53 127.773 148.551 127.97 148.489 128.136C148.406 128.364 148.229 128.333 148.094 128.198C147.949 128.053 147.835 127.887 147.7 127.731C147.7 127.711 147.689 127.731 147.689 127.731Z" fill="#F6B6A3"/>
<path d="M142.334 125.938C142.231 125.917 142.116 125.845 142.137 125.752C142.148 125.679 142.262 125.586 142.345 125.565C142.469 125.534 142.521 125.648 142.511 125.752C142.511 125.845 142.459 125.938 142.334 125.938Z" fill="#F5A18B"/>
<path d="M141.752 125.845C141.814 126.011 141.721 126.052 141.628 126.063C141.534 126.083 141.43 126.042 141.41 125.938C141.378 125.834 141.451 125.741 141.555 125.741C141.617 125.741 141.7 125.814 141.752 125.845Z" fill="#F5A18B"/>
<path d="M48.0637 116.931C48.0325 117.19 48.0118 117.449 47.9806 117.708C47.7834 117.75 47.5759 117.781 47.3164 117.667C47.524 117.345 47.5862 116.952 48.0637 116.931Z" fill="#F6E63E"/>
<path d="M48.4179 116.713C48.2934 116.786 48.1689 116.869 48.0547 116.941C48.0651 116.806 48.0651 116.661 48.0754 116.526C48.2104 116.558 48.3972 116.485 48.4179 116.713Z" fill="#F6E63E"/>
<path d="M202.105 61.4453C202.146 61.4868 202.219 61.5282 202.219 61.5697C202.209 61.6837 202.126 61.7355 202.011 61.6941C201.928 61.6733 201.897 61.5904 201.949 61.5282C201.98 61.4971 202.053 61.4764 202.105 61.4453Z" fill="#473633"/>
<path d="M152.131 52.469C151.902 52.4172 151.736 52.3136 151.778 52.127C151.819 51.93 151.954 51.7538 152.058 51.5776C153.521 49.0381 154.974 46.4986 156.459 43.9695C156.604 43.7207 156.666 43.161 157.154 43.4409C157.642 43.7207 157.175 44.0421 157.029 44.2908C155.597 46.8096 154.144 49.318 152.691 51.816C152.535 52.0648 152.463 52.3965 152.131 52.469Z" fill="#36352F"/>
<path d="M143.06 39.4917C142.272 40.0721 141.919 40.1032 141.462 39.6783C141.161 39.3984 141.182 38.8905 141.535 38.2997C141.856 38.6106 141.524 38.9423 141.545 39.2637C142.002 39.5228 142.51 39.2947 143.06 39.4917Z" fill="#F9F2B7"/>
<path d="M137.581 39.0668C137.02 39.2948 136.906 38.7144 136.47 38.8699C136.211 38.9632 136.19 38.5693 136.128 38.362C136.086 38.2169 136.2 38.1028 136.325 38.0303C136.564 37.8955 136.761 38.0199 136.823 38.2169C136.937 38.59 137.332 38.7248 137.581 39.0668Z" fill="#F9F2B8"/>
<path d="M78.8785 154.329C79.2625 155.127 79.138 155.998 79.3352 156.816C79.522 157.594 79.9268 158.33 79.8645 159.159C79.0446 157.656 78.6502 156.049 78.8785 154.329Z" fill="#615754"/>
</g>
<defs>
<clipPath id="clip0">
<rect width="245" height="166" fill="white"/>
</clipPath>
</defs>
</svg>
