<svg width="200" height="186" viewBox="0 0 200 186" fill="none" xmlns="http://www.w3.org/2000/svg">
<path fill-rule="evenodd" clip-rule="evenodd" d="M190.689 94.3709C198.148 113.55 197.717 138.169 184.984 154.328C172.418 170.276 148.414 168.562 128.638 173.121C112.648 176.808 97.171 180.436 80.8973 178.326C62.9664 176.001 44.235 172.887 31.0784 160.472C17.2009 147.378 8.05961 128.674 8.04685 109.586C8.03454 91.1748 21.3478 76.5197 31.0118 60.8547C40.583 45.34 48.0822 27.8207 63.9814 18.9178C80.9269 9.42892 102.749 2.4491 120.242 10.8893C137.479 19.2061 135.76 44.8759 148.108 59.5077C160.237 73.8812 183.871 76.8386 190.689 94.3709Z" fill="#83C0F8"/>
<g clip-path="url(#clip0)">
<path d="M110.123 40.6624C105.835 40.6624 101.547 40.6196 97.2593 40.7052C96.0587 40.7052 95.6299 40.3629 95.6728 39.1651C95.7586 36.47 95.7586 33.7749 95.6728 31.0371C95.6299 29.7537 96.1874 29.497 97.3022 29.497C100.604 29.5398 103.863 29.4542 107.164 29.5398C108.794 29.5826 109.48 29.2403 109.351 27.4436C109.18 25.4758 109.351 23.4651 109.308 21.4545C109.308 20.4278 109.608 20 110.766 20C119.385 20.0428 128.046 20.0428 136.665 20C137.78 20 138.166 20.385 138.123 21.4545C138.037 24.1496 138.037 26.8875 138.123 29.5826C138.166 30.9943 137.608 31.2082 136.365 31.2082C132.935 31.1226 129.504 31.251 126.074 31.1654C124.873 31.1226 124.445 31.5076 124.488 32.7482C124.573 34.8872 124.445 37.0262 124.53 39.1651C124.573 40.4057 124.187 40.748 122.944 40.7052C118.699 40.6196 114.411 40.6624 110.123 40.6624Z" fill="#025DE6"/>
<path d="M110.982 111.847C125.26 115.74 132.807 125.964 136.923 139.354C137.395 140.937 137.995 141.579 139.625 141.45C141.383 141.322 143.184 141.408 144.942 141.45C144.299 141.921 143.57 141.707 142.884 141.707C120.115 141.707 97.3032 141.664 74.5345 141.707C72.562 141.707 71.6616 141.279 71.8331 139.098C72.0475 136.83 71.9188 134.563 71.9617 132.253C73.3338 128.916 74.5773 125.494 76.807 122.542C81.8239 115.911 88.5559 112.36 96.66 111.163C97.5176 110.992 97.9035 111.676 98.3323 112.189C100.348 114.414 102.277 116.724 104.378 118.906C106.222 121.344 108.58 123.355 110.596 125.75C110.639 122.884 111.025 120.061 110.296 117.237C110.424 115.441 109.652 113.516 110.982 111.847Z" fill="#6D41BE"/>
<path d="M146.355 66.6294C146.355 65.3888 146.055 64.7471 144.812 64.2766C135.421 60.6403 126.888 55.5068 119.17 49.0471C118.055 48.106 116.898 47.8065 115.483 47.8065C104.42 47.8493 93.357 47.8065 82.2513 47.8921C80.4504 47.8921 79.9788 47.336 80.0216 45.6248C80.1503 40.1918 80.0216 34.8016 80.1074 29.3686C80.1503 27.8286 79.8072 27.2725 78.135 27.2725C67.9726 27.358 57.8532 27.358 47.6909 27.2725C46.1901 27.2725 45.7613 27.7003 45.7613 29.1975C45.8471 37.3256 45.8471 45.4537 45.7613 53.5817C45.7613 55.1218 46.233 55.464 47.6909 55.464C54.4657 55.3785 61.2835 55.5068 68.0584 55.3785C69.8164 55.3357 70.1595 55.9346 70.1595 57.5602C70.1595 70.394 70.1595 83.2706 70.1595 96.1899C70.1595 108.382 70.1595 120.574 70.1595 132.766C70.1595 137.515 70.1595 137.472 65.2713 137.258C64.1993 137.215 63.7276 136.916 63.7705 135.761C63.8562 133.622 63.7276 131.483 63.8134 129.344C63.8562 128.018 63.4275 127.675 62.0982 127.675C53.6082 127.718 45.0752 127.718 36.5852 127.675C35.4275 127.675 34.9129 127.932 34.9558 129.216C35.0415 131.911 35.0415 134.648 34.9558 137.344C34.9129 138.627 35.3846 138.926 36.5852 138.884C40.0155 138.841 43.4458 138.926 46.8762 138.841C48.1625 138.798 48.72 139.14 48.5913 140.509C48.5056 141.835 48.4627 143.247 48.5913 144.573C48.7628 146.284 48.2483 146.926 46.4045 146.841C43.1457 146.669 39.844 146.841 36.5423 146.755C35.4275 146.755 34.9987 147.054 35.0415 148.295C35.1273 150.862 35.1702 153.429 35.0415 155.995C34.9558 157.707 35.5561 158.006 37.0997 157.963C40.7445 157.878 44.3892 158.006 48.0339 157.92C49.406 157.878 49.9634 158.22 49.8777 159.674C49.749 161.728 49.9206 163.824 49.8348 165.877C49.7919 167.075 50.135 167.503 51.3785 167.46C54.4657 167.375 57.5102 167.503 60.5974 167.417C61.7981 167.375 62.2268 167.76 62.184 169C62.0982 171.139 62.2268 173.278 62.1411 175.417C62.0982 176.615 62.4841 177.043 63.7276 177.043C72.3034 177 80.8792 177 89.455 177.043C90.527 177.043 90.9987 176.786 90.9987 175.631C90.9558 172.85 90.9558 170.07 90.9987 167.289C90.9987 166.22 90.6985 165.749 89.5408 165.792C87.9114 165.877 86.2391 165.877 84.6097 165.792C82.723 165.706 80.1931 166.647 79.0354 165.407C77.8348 164.123 78.821 161.599 78.6495 159.632C78.5209 158.305 78.9925 157.92 80.3218 157.963C83.3233 158.049 86.3248 157.92 89.3264 158.006C90.6985 158.049 91.0415 157.535 90.9987 156.295C90.9129 153.642 90.9129 151.033 90.9987 148.381C91.0415 147.183 90.6556 146.798 89.4121 146.798C85.9818 146.883 82.5515 146.755 79.1212 146.841C77.8348 146.883 77.4918 146.498 77.406 145.172C77.2774 143.204 78.3922 143.375 79.6357 143.375C101.333 143.375 123.072 143.375 144.769 143.418C146.227 143.418 147.042 143.375 147.042 141.45C146.698 116.51 146.527 91.5697 146.355 66.6294ZM68.4014 138.798C69.8164 138.755 70.2452 139.226 70.2023 140.595C70.1166 143.632 69.6878 143.247 73.0752 143.418C73.9757 143.461 75.4765 142.52 75.7337 144.488C75.9481 146.156 75.4765 146.883 73.5898 146.798C70.1166 146.627 66.6005 146.755 63.0844 146.755C59.4397 146.755 55.795 146.712 52.1503 146.798C50.821 146.841 50.1778 146.584 50.3065 145.044C50.478 143.076 49.7062 140.466 50.6924 139.226C51.7644 137.9 54.4229 138.841 56.3953 138.798C60.4259 138.798 64.4137 138.884 68.4014 138.798ZM38.429 137.215C37.1426 137.258 36.6281 136.873 36.7138 135.547C36.8853 133.579 35.8991 131.055 37.0997 129.772C38.2146 128.531 40.7445 129.429 42.6311 129.387C48.5056 129.344 54.3371 129.429 60.2115 129.344C61.7123 129.344 62.2697 129.729 62.0982 131.226C61.8838 133.108 62.87 135.59 61.7123 136.787C60.5117 137.985 58.0676 137.13 56.138 137.172C53.9083 137.258 51.7215 137.172 49.4918 137.172C45.8471 137.172 42.1166 137.13 38.429 137.215ZM49.3631 156.252C45.7184 156.252 42.0737 156.209 38.429 156.295C37.1426 156.338 36.6281 155.953 36.7138 154.626C36.8853 152.659 35.8991 150.135 37.0997 148.851C38.2146 147.653 40.7445 148.509 42.6311 148.466C48.5484 148.423 54.5086 148.466 60.4259 148.423C61.7123 148.423 62.2268 148.766 62.0982 150.092C61.9267 152.06 62.9129 154.584 61.7123 155.867C60.5974 157.108 58.0676 156.209 56.1809 156.252C53.9083 156.338 51.6357 156.295 49.3631 156.252ZM53.0079 165.749C51.8072 165.749 51.3356 165.407 51.4213 164.166C51.55 162.198 50.821 159.632 51.8072 158.391C52.8792 157.022 55.5377 157.963 57.5102 157.963C63.3417 157.878 69.2161 157.963 75.0477 157.92C76.5056 157.92 77.1059 158.305 76.9343 159.803C76.72 161.685 77.7062 164.166 76.5484 165.364C75.3907 166.562 72.9037 165.663 70.9742 165.749C68.7016 165.835 66.3861 165.749 64.1135 165.749C60.4259 165.749 56.7383 165.706 53.0079 165.749ZM87.4397 167.417C88.9405 167.375 89.455 167.845 89.3264 169.342C89.1549 171.225 90.0982 173.663 88.9833 174.947C87.8256 176.273 85.3386 175.289 83.452 175.374C81.1794 175.46 78.9068 175.417 76.5913 175.417C72.9466 175.417 69.3019 175.374 65.6572 175.46C64.3708 175.503 63.6419 175.246 63.7705 173.706C63.942 171.738 62.9987 169.214 64.1564 167.931C65.357 166.605 67.9298 167.546 69.9022 167.503C75.7337 167.375 81.6082 167.503 87.4397 167.417ZM87.2682 148.423C88.8118 148.381 89.5408 148.723 89.3264 150.391C89.1977 151.675 89.1977 152.958 89.3264 154.241C89.5408 156.038 88.7261 156.38 87.1396 156.338C83.5806 156.252 80.0216 156.295 76.4198 156.295C72.8608 156.295 69.3019 156.252 65.7 156.338C64.2422 156.38 63.599 156.038 63.7705 154.455C63.9849 152.573 62.9987 150.092 64.1564 148.894C65.3141 147.653 67.8011 148.509 69.6878 148.509C75.5622 148.423 81.4366 148.509 87.2682 148.423ZM144.983 141.45C142.968 141.579 140.996 141.408 138.98 141.536C137.437 141.664 136.793 140.937 136.45 139.611C135.421 135.889 133.921 132.381 131.991 129.002C127.574 121.259 121.357 115.74 112.781 112.917C111.966 112.66 111.109 112.446 110.594 111.676C109.951 108.681 110.294 105.601 110.337 102.607C110.337 101.495 111.152 100.896 112.052 100.382C116.169 98.0294 117.326 95.2488 116.254 90.6286C115.826 88.7035 115.182 86.8212 114.453 84.9817C114.196 83.8695 115.097 83.2706 115.611 82.415C115.097 82.2439 114.711 82.6716 114.239 82.6289C111.881 82.03 111.109 79.8482 109.823 78.2226C109.694 78.0943 109.565 77.9231 109.437 77.7948C107.807 76.8109 106.306 75.6131 105.063 74.1586C103.991 72.4902 102.276 72.7041 100.646 72.5757C99.3601 72.6185 98.0737 72.4474 96.8302 72.7896C86.7965 74.5864 80.9221 85.6662 86.5821 96.2327C87.0109 97.0455 87.6541 97.73 87.9114 98.6283C87.9543 98.8422 87.9543 99.0561 87.9114 99.2272C87.6112 100.126 87.0538 101.067 87.9971 101.922C88.9405 102.778 89.798 102.051 90.6985 101.708C90.9129 101.623 91.1273 101.623 91.2988 101.623C93.1855 102.692 95.501 103.077 97.0446 104.789C97.4305 106.842 97.4305 108.853 97.0446 110.906C96.5729 111.933 95.5438 111.847 94.6434 112.018C90.0124 112.959 85.8532 114.799 82.1227 117.708C78.0492 120.916 75.2621 125.066 73.4611 129.857C73.1181 130.713 73.1181 131.868 71.8746 132.167C71.8746 120.189 71.8746 108.211 71.8746 96.1899C71.9604 96.1043 72.089 95.976 72.2177 95.9332C73.2468 95.5482 74.576 95.5054 74.5331 93.9654C74.4902 92.5109 73.1181 92.682 72.2177 92.2542C72.089 92.2114 72.0033 92.0831 71.9175 91.9548C71.9175 78.3509 71.9175 64.7471 71.8746 51.1433C71.8746 49.9455 72.1748 49.5177 73.4183 49.5177C87.5683 49.5605 101.676 49.5605 115.826 49.5177C116.898 49.5177 117.541 49.9883 118.227 50.6727C122.772 55.464 124.744 61.1537 123.93 67.6989C123.715 69.4528 124.273 69.4101 125.559 69.1962C131.262 68.2122 136.965 67.3139 142.625 66.2872C144.083 66.0305 144.426 66.4155 144.426 67.8272C144.597 91.8264 144.855 115.826 145.069 139.825C145.112 140.466 145.026 140.937 144.983 141.45Z" fill="#005CE6"/>
<path d="M63.1724 30.3527C64.5016 32.62 64.6302 35.0156 64.8446 37.2401C65.0162 39.1224 65.7022 40.0636 67.546 40.363C68.1034 40.4486 68.618 40.7052 69.1325 40.9191C69.6042 41.133 70.1188 41.3469 70.0759 41.9458C70.033 42.5448 69.4756 42.8442 69.0468 42.8442C64.716 42.9726 64.5874 46.2238 64.0728 49.2611C63.9442 50.2022 63.9871 51.7423 62.958 51.7851C61.8002 51.8279 62.1004 50.245 61.8002 49.3894C61.6287 48.9189 61.543 48.4055 61.543 47.9349C61.543 45.1543 60.6425 43.1864 57.4694 42.9726C56.8691 42.9298 56.0973 42.7159 56.0116 41.9458C55.9258 41.0047 56.8263 40.748 57.4694 40.7052C60.7283 40.4486 61.2428 38.224 61.543 35.5717C61.6716 33.9033 61.886 32.1066 63.1724 30.3527Z" fill="#FBE035"/>
<path d="M72.0058 92.0831C73.4208 91.912 74.8358 91.8692 75.2646 93.6232C75.5647 94.6926 75.1359 95.6766 74.064 96.0616C73.4208 96.3182 72.6918 96.2327 71.9629 96.3182C72.0058 94.9065 72.0058 93.4948 72.0058 92.0831Z" fill="#6C44C0"/>
<path d="M110.425 31.2081C114.07 31.2081 117.715 31.2509 121.317 31.1654C122.517 31.1226 122.989 31.4648 122.903 32.7054C122.732 34.6733 123.675 37.1972 122.517 38.4806C121.317 39.8496 118.744 38.9084 116.814 38.9084C110.983 38.994 105.108 38.8656 99.2767 38.9512C97.776 38.9512 97.2614 38.5234 97.3901 37.0261C97.5187 35.6144 97.5187 34.1599 97.3901 32.7482C97.3043 31.422 97.776 31.037 99.0623 31.0798C102.879 31.2509 106.652 31.2081 110.425 31.2081Z" fill="#FEFEFE"/>
<path d="M123.631 29.5398C119.943 29.5398 116.212 29.497 112.525 29.5398C111.41 29.5398 110.938 29.2404 111.024 28.0853C111.196 26.0319 110.209 23.4652 111.367 22.0962C112.482 20.8128 115.141 21.7112 117.113 21.7112C122.945 21.6684 128.819 21.7112 134.65 21.6684C136.023 21.6684 136.58 21.9679 136.451 23.4224C136.323 24.9624 136.366 26.5453 136.451 28.1281C136.494 29.2831 136.023 29.5826 134.951 29.5398C131.177 29.497 127.404 29.5398 123.631 29.5398Z" fill="#FEFEFE"/>
<path d="M103.777 119.034C101.419 116.424 99.0176 113.815 96.6593 111.205C96.6593 108.981 96.6593 106.756 96.6593 104.532C96.0161 103.676 96.059 102.65 96.1447 101.666C96.2734 99.9545 95.7588 99.0561 93.8293 98.9706C91.8997 98.885 90.0559 98.2861 88.3836 97.2594C87.2688 96.5749 86.2397 95.6338 86.5827 94.1793C86.8829 92.7248 88.2979 92.297 89.4556 92.4681C93.2718 92.9814 94.987 90.7569 96.3162 87.8052C96.6593 87.1207 97.0023 86.3934 97.4311 85.7518C98.3744 84.6395 99.0176 83.3561 99.7894 82.1155C100.647 80.661 101.676 79.3349 102.448 77.7948C103.52 76.6398 103.649 74.7575 105.407 74.1586C106.864 75.1853 108.322 76.2548 109.78 77.2815C109.566 78.137 108.837 77.7948 108.322 77.8804C108.923 77.9231 109.566 77.8804 110.209 77.6665C111.453 79.2493 112.353 81.2171 114.283 82.2011C113.854 83.4845 112.567 83.185 111.71 83.6128C110.895 83.9978 109.952 84.1689 109.094 84.5112C110.766 86.8212 111.367 86.864 113.296 84.9389C113.682 84.5539 114.025 84.0406 114.711 84.2973C116.126 86.6501 116.812 89.2597 117.198 91.9547C117.799 96.0616 116.083 99.2272 112.224 100.853C111.024 101.366 110.681 102.008 110.724 103.206C110.852 106.029 110.895 108.895 110.981 111.719C110.938 113.729 110.938 115.697 110.895 117.708C108.708 119.205 106.264 119.162 103.777 119.034Z" fill="#E94639"/>
<path d="M98.0746 85.8373C96.9169 87.8052 95.7591 89.7302 94.6872 91.7409C94.1297 92.7676 93.4437 93.1098 92.2859 93.0243C91.1711 92.9387 90.0133 92.9815 88.8556 93.1526C88.1267 93.2382 87.1833 93.3237 86.9261 94.2221C86.6688 95.206 87.3548 95.8477 87.998 96.4038C89.6703 97.8155 91.7285 98.2006 93.7438 98.5C96.6596 98.9706 96.7025 98.9278 96.7025 101.837C96.7025 102.778 96.6596 103.676 96.6167 104.617C94.5156 104.19 92.8005 102.949 90.9567 101.965C89.3702 101.537 88.3839 100.468 87.6979 99.0134C84.3533 94.5215 83.0241 89.5591 84.2676 83.9978C85.5968 78.0087 90.6565 73.303 96.7453 72.4046C97.1741 72.2763 97.56 72.3191 97.8173 72.7041C98.5891 77.0248 98.2461 81.4311 98.0746 85.8373Z" fill="black"/>
<path d="M97.5609 72.4902C97.3036 72.4474 97.0463 72.4047 96.7891 72.3191C98.2041 71.7202 99.6191 71.9769 101.077 72.0624C102.363 72.148 102.878 72.8324 102.921 74.073C102.921 75.3992 102.964 76.7254 102.835 78.0515C102.149 79.5916 101.248 81.0033 100.219 82.3294C99.1903 81.8589 99.1903 80.8749 99.1474 79.9766C99.0616 78.4793 99.0616 76.982 99.1474 75.4848C99.1474 74.2014 98.7186 73.1747 97.5609 72.4902Z" fill="#042A71"/>
<path d="M114.713 84.4257C114.413 84.6396 114.112 84.8107 113.898 85.0674C111.454 87.9763 110.596 87.9336 108.066 84.4684C110.167 83.7412 112.226 83.0567 114.284 82.3295C115.099 82.03 115.913 81.6878 117.2 81.1744C116.128 82.5862 115.442 83.4845 114.713 84.4257Z" fill="#C93316"/>
<path d="M123.759 82.201C125.131 82.3722 125.946 83.0566 125.903 84.4256C125.86 85.7945 125.088 86.5645 123.716 86.5218C122.344 86.479 121.615 85.6662 121.615 84.34C121.615 83.0139 122.473 82.3294 123.759 82.201Z" fill="#7AEF1B"/>
<path d="M137.652 93.666C138.981 93.666 139.796 94.3933 139.881 95.7194C139.924 97.1311 139.067 97.9867 137.652 97.9867C136.365 97.9867 135.508 97.1311 135.508 95.8478C135.508 94.6072 136.237 93.7516 137.652 93.666Z" fill="#7248C1"/>
<path d="M122.431 109.323C121.059 109.238 120.244 108.553 120.287 107.184C120.287 105.815 121.101 105.045 122.431 105.045C123.76 105.045 124.575 105.858 124.575 107.184C124.575 108.51 123.76 109.195 122.431 109.323Z" fill="#E55834"/>
<path d="M77.837 78.351C76.5077 78.2227 75.6501 77.6238 75.6073 76.2548C75.5644 74.8859 76.2933 74.1159 77.6655 74.0731C79.0376 74.0303 79.8523 74.8004 79.8952 76.1265C79.938 77.4527 79.1233 78.1799 77.837 78.351Z" fill="#7AEF1B"/>
<path d="M83.0669 57.5174C82.8953 58.9292 82.2093 59.6992 80.8371 59.6992C79.465 59.6992 78.6932 58.8864 78.7361 57.5602C78.779 56.2341 79.5937 55.4213 80.9229 55.4213C82.2522 55.4213 82.9382 56.2768 83.0669 57.5174Z" fill="#E55632"/>
<path d="M76.5927 110.093C77.922 110.307 78.7367 111.034 78.6509 112.361C78.6081 113.687 77.7934 114.457 76.3783 114.414C75.0062 114.371 74.2773 113.558 74.3201 112.189C74.4059 110.821 75.3064 110.222 76.5927 110.093Z" fill="#78EE19"/>
<path d="M138.681 78.2653C137.352 78.0942 136.537 77.4098 136.537 76.0408C136.537 74.6719 137.438 73.9019 138.724 73.9019C140.01 73.9446 140.868 74.7147 140.868 76.0836C140.825 77.4525 139.967 78.0942 138.681 78.2653Z" fill="#E55632"/>
<path d="M140.911 136.873C139.667 136.659 138.724 136.103 138.681 134.691C138.638 133.322 139.496 132.51 140.782 132.467C142.026 132.424 142.969 133.151 143.012 134.563C143.055 136.017 142.197 136.616 140.911 136.873Z" fill="#7147C0"/>
<path d="M117.284 68.7683C115.955 68.64 115.14 67.9555 115.183 66.5866C115.226 65.2177 116.041 64.4476 117.37 64.4476C118.656 64.4904 119.471 65.3032 119.471 66.6722C119.428 67.9983 118.614 68.64 117.284 68.7683Z" fill="#E55632"/>
<path d="M92.7578 63.4638C92.8864 62.2232 93.6583 61.4104 94.9875 61.4959C96.2739 61.5387 97.1315 62.3943 97.0886 63.7204C97.0457 65.0466 96.1881 65.8594 94.8589 65.8166C93.5725 65.7311 92.7578 64.961 92.7578 63.4638Z" fill="#7146C0"/>
<path d="M136.622 112.917C137.909 113.045 138.68 113.772 138.68 115.141C138.68 116.51 137.78 117.28 136.494 117.237C135.164 117.237 134.393 116.382 134.393 115.013C134.393 113.687 135.207 113.002 136.622 112.917Z" fill="#79EF19"/>
<path d="M107.638 53.1539C108.967 53.2395 109.825 54.0095 109.868 55.2929C109.911 56.5763 109.139 57.4319 107.767 57.5174C106.352 57.5602 105.623 56.7902 105.58 55.464C105.537 54.0951 106.309 53.3678 107.638 53.1539Z" fill="#78EE17"/>
<path d="M102.834 78.0943C101.805 76.9392 102.363 75.5275 102.363 74.2441C102.363 73.1746 102.02 72.533 101.076 72.1052C102.363 71.9768 103.52 72.4902 104.721 72.7896C105.664 73.0035 105.836 73.4741 105.407 74.2441C104.549 75.5275 103.692 76.8109 102.834 78.0943Z" fill="#0644AC"/>
<path d="M87.7852 98.9706C88.8572 99.9545 89.9291 100.938 91.044 101.922C90.0578 103.077 88.8572 103.634 87.5708 102.478C86.2844 101.323 86.6703 100.083 87.7852 98.9706Z" fill="#E05633"/>
<path d="M103.777 119.034C106.093 118.307 108.537 118.221 110.895 117.793C111.453 120.788 111.153 123.825 110.852 127.077C108.494 124.424 106.136 121.729 103.777 119.034Z" fill="#FBF9FC"/>
<path d="M97.5614 72.4902C99.1908 72.1479 99.7483 72.7468 99.7912 74.458C99.7912 77.1103 99.2337 79.7626 100.22 82.3722C99.6625 83.6128 99.0193 84.8106 98.076 85.8373C97.3042 84.5111 97.6043 83.0567 97.6043 81.6449C97.5614 78.6076 97.5614 75.5275 97.5614 72.4902Z" fill="#010F34"/>
<path d="M114.756 87.8908C114.713 87.9763 114.584 88.2758 114.37 88.3613C112.998 89.0458 112.011 90.1153 111.325 91.4842C111.154 91.8265 110.854 91.9976 110.468 91.7837C110.082 91.5698 110.039 91.2703 110.253 90.8853C111.068 89.2597 112.226 87.9763 113.941 87.2491C114.37 87.0352 114.713 87.0352 114.756 87.8908Z" fill="#190706"/>
<path d="M100.734 85.2384C100.348 85.1529 100.005 84.8962 100.176 84.5112C100.691 83.3561 101.291 82.2011 101.891 81.0888C102.02 80.7894 102.32 80.7038 102.62 80.8749C102.878 81.0033 103.178 81.1744 103.006 81.5166C102.406 82.7144 101.763 83.9123 101.12 85.1101C101.034 85.1529 100.862 85.1529 100.734 85.2384Z" fill="#170705"/>
<path d="M105.837 85.4951C105.752 86.1368 105.451 86.5646 104.765 86.5218C104.079 86.4791 103.693 86.0513 103.693 85.4524C103.693 84.8107 104.122 84.4257 104.808 84.4257C105.537 84.4257 105.794 84.8534 105.837 85.4951Z" fill="#1E0907"/>
<path d="M110.038 80.6183C110.81 80.6611 111.239 80.9605 111.282 81.645C111.324 82.3295 110.939 82.7145 110.295 82.7573C109.609 82.8 109.223 82.4578 109.18 81.7733C109.138 81.0889 109.609 80.7894 110.038 80.6183Z" fill="#140604"/>
<path d="M110.21 77.7949C109.266 79.1638 107.937 78.3082 106.779 78.4365C106.479 78.4793 106.265 78.1371 106.394 77.8376C106.479 77.6237 106.822 77.4526 107.08 77.4526C107.98 77.3671 108.881 77.3671 109.824 77.3671C109.91 77.4954 110.038 77.6665 110.21 77.7949Z" fill="#0A0302"/>
</g>
<defs>
<clipPath id="clip0">
<rect width="112" height="157" fill="white" transform="translate(35 20)"/>
</clipPath>
</defs>
</svg>
