<svg width="209" height="161" viewBox="0 0 209 161" fill="none" xmlns="http://www.w3.org/2000/svg">
<path fill-rule="evenodd" clip-rule="evenodd" d="M102.831 14.9466C124.036 14.5857 144.389 -6.80466 163.574 2.21885C182.603 11.1686 184.549 37.1166 191.846 56.8127C199.5 77.4758 214.362 98.7095 207.016 119.484C199.691 140.204 176.579 151.134 155.869 158.569C138.806 164.694 120.956 157.374 102.831 156.886C85.4068 156.417 66.9898 164.359 51.8312 155.768C36.1302 146.87 30.9451 127.759 22.9331 111.606C13.3446 92.2747 -3.44807 73.7184 0.625525 52.5338C4.79171 30.8675 22.8383 11.8875 43.5742 4.26163C62.8813 -2.83875 82.2586 15.2968 102.831 14.9466Z" fill="#83C0F8"/>
<g clip-path="url(#clip0)">
<path d="M150.1 29.4787C149.303 23.1279 148.505 16.7772 147.678 10.456C147.56 9.51076 147.915 9.30399 148.741 9.21538C153.968 8.59507 159.195 7.94523 164.422 7.29538C164.865 7.23631 165.308 7.32492 165.692 7C165.899 7 166.076 7 166.283 7C166.873 9.33353 166.962 11.7261 167.287 14.0892C167.877 18.5495 168.35 23.0393 168.97 27.4996C169.118 28.6221 168.793 28.947 167.73 29.0651C164.068 29.4787 160.436 29.9513 156.803 30.4239C155.563 31.0737 154.175 31.1624 152.817 31.2805C151.488 31.3987 151.104 30.867 151.488 29.5968C151.665 29.0356 151.842 28.4744 152.374 28.1199C154.766 27.3815 157.276 27.3815 159.727 26.9975C161.853 26.6725 163.979 26.4658 166.105 26.1704C167.021 26.0522 167.346 25.8159 167.198 24.7821C167.021 23.5415 166.755 22.2713 166.755 21.0012C166.637 19.8787 166.371 18.7858 166.43 17.8996C163.625 18.8153 160.672 18.7267 157.748 19.0221C157.601 18.9926 157.453 18.9335 157.335 18.8153C156.921 17.2793 157.01 17.1021 158.428 16.8658C159.107 16.7772 159.756 16.5113 160.495 16.659C160.642 16.659 160.288 16.3637 160.406 16.5409C160.436 16.5704 160.377 16.6295 160.288 16.6295C159.313 16.6 158.368 17.043 157.364 16.8953C157.099 16.8658 156.892 16.1569 156.597 16.9544C156.478 17.3089 155.858 17.3975 155.415 17.3975C154.5 17.4566 153.555 17.6043 152.64 17.6929C151.34 17.8406 151.015 17.4861 150.809 16.1273C150.779 15.9206 150.484 16.2455 150.661 16.1273C150.838 16.7772 151.074 17.427 151.252 18.0769C151.429 18.7267 151.281 19.4356 151.547 20.115C151.606 21.7987 152.108 23.4529 151.901 25.1661C151.695 26.2885 151.37 27.3519 150.956 28.4153C150.779 28.8288 150.72 29.3605 150.1 29.4787Z" fill="#005CE6"/>
<path d="M52 58.1013C53.2698 58.0127 54.5692 57.8945 55.839 57.8059C56.2819 58.2785 56.1933 58.8988 56.3115 59.4601C56.8135 62.4434 55.7208 63.4477 52.6497 62.7979C52.2658 61.6459 52.5315 60.3757 52 59.2828C52 58.8693 52 58.4853 52 58.1013Z" fill="#6E43BE"/>
<path d="M123.995 46.0792C124.32 44.8681 124.674 43.6275 125.087 42.1506C125.265 42.6823 125.383 42.9776 125.442 43.3026C125.826 45.4293 125.826 45.4293 127.922 45.3998C133.238 45.3407 138.347 46.4041 143.337 48.1764C144.223 48.5013 144.548 48.5013 144.843 47.4675C145.641 44.5432 146.615 41.6484 147.501 38.7241C149.834 39.2853 151.753 40.5555 153.555 42.062C153.761 45.0453 153.643 47.9992 153.23 50.953C151.281 52.6367 149.155 54.1431 147.353 56.0631C146.408 57.0674 145.788 58.3376 144.666 59.1647C143.071 59.1647 141.506 58.7511 139.912 58.8988C138.317 59.1056 136.811 58.692 135.305 58.3671C134.271 58.1308 133.828 58.3671 133.887 59.46C133.976 60.937 133.474 62.3843 133.592 63.8612C133.622 64.8951 133.681 65.8994 133.504 66.9332C133.061 68.8532 133.504 70.8323 133.061 72.7523C132.942 73.284 132.972 73.8157 132.618 74.2883C132.234 74.7314 131.673 74.9086 131.141 75.0267C130.846 75.0858 130.58 75.1744 130.285 75.2631C129.399 75.5289 128.542 75.8834 127.656 76.0901C127.243 76.1787 126.83 76.1787 126.446 76.356C125.56 76.7104 124.674 76.9763 123.788 77.3012C123.493 77.4193 123.227 77.6557 122.873 77.6852C122.016 77.7147 121.16 77.7147 120.392 77.2421C120.038 77.0649 119.654 77.0058 119.27 76.8877C118.325 76.415 117.38 76.0015 116.405 75.5584C116.14 75.3221 115.667 75.4698 115.46 75.1154C114.663 72.6637 113.836 70.1825 112.921 67.4058C111.06 71.0095 109.495 74.4951 106.69 77.1535C103.796 76.6218 100.902 76.3855 97.9488 76.5037C97.4467 76.5332 96.9743 76.4446 96.5608 76.1492C93.8735 73.0181 92.899 69.1486 92.1608 65.2495C92.0427 64.5702 91.9541 63.8908 91.8359 63.2114C92.5742 61.4982 93.3125 59.8145 94.8776 58.6625C97.9192 61.764 99.9864 65.5154 101.994 69.828C102.378 66.9923 102.821 64.6588 103.648 62.4139C104.888 58.9283 106.808 55.8859 109.761 53.6114C110.411 53.1093 110.499 52.7253 110.145 52.0459C109.584 50.9235 109.141 49.7419 108.462 48.1469C110.352 49.4465 111.858 50.4508 113.334 51.4847C114.22 51.4256 114.663 52.2231 115.342 52.5481C117.173 53.8773 118.975 55.2065 121.042 56.5062C121.662 53.9659 122.341 51.5733 122.813 49.1216C123.168 48.1173 123.256 46.9653 123.995 46.0792Z" fill="#007BFF"/>
<path d="M132.381 74.2292C132.765 72.3683 132.883 70.5074 132.942 68.6169C132.972 68.0557 132.824 67.4354 133.149 66.9037C133.917 69.0305 134.419 71.2163 135.334 73.284C137.224 77.508 139.498 81.4366 143.249 84.3018C144.341 85.1584 145.552 85.8082 146.851 86.3104C148.416 86.9012 149.952 86.8421 151.399 86.015C153.289 84.9516 155.238 84.0359 157.482 82.9135C146.822 79.5461 138.849 73.0772 133.267 63.684C133.326 61.8527 133.415 59.9917 133.474 58.1604C133.504 57.7468 133.592 57.5401 134.094 57.6582C136.043 58.1013 137.992 58.4853 139.912 58.8988C146.645 64.836 154.618 67.7899 163.477 68.4692C166.489 68.7056 166.046 68.2329 165.987 71.1572C165.84 77.6852 163.064 82.559 156.921 85.247C156.567 85.3947 156.242 85.631 155.917 85.8082C155.504 86.4285 154.884 86.6058 154.204 86.7239C151.665 87.9645 149.863 89.8255 149.539 92.7202C149.243 95.3196 147.796 97.0328 145.729 98.362C143.337 99.898 140.561 100.43 137.904 101.286C137.667 100.548 138.317 100.4 138.73 100.134C139.557 99.6026 140.502 99.3368 141.565 98.9823C139.882 97.6236 137.874 96.7374 136.693 94.8765C136.073 92.2476 135.866 89.5301 135.157 86.9307C134.803 85.6606 134.508 84.3609 134.094 83.0907C133.976 82.7067 133.858 82.3227 133.71 81.9683C133.179 79.9892 132.116 78.1283 132.145 76.0015C132.204 75.3812 132.175 74.7905 132.381 74.2292Z" fill="#6D41BE"/>
<path d="M119.122 154.367C118.945 151.236 119.801 148.223 120.303 145.18C120.717 142.611 121.337 140.07 121.898 137.53C122.105 136.585 121.868 135.994 121.16 135.344C115.519 130.293 109.82 125.331 103.943 120.516C105.627 119.246 108.225 119.039 109.909 120.043C111.208 120.811 112.507 121.609 113.807 122.377C114.604 122.849 115.017 122.731 115.165 121.727C115.608 118.921 116.021 116.115 116.523 113.338C116.612 112.895 116.464 112.304 117.084 112.127C118.65 114.283 119.949 116.587 121.071 118.98C123.552 124.297 126.711 129.141 130.757 133.395C130.639 135.019 129.724 136.348 129.074 137.766C126.741 142.906 124.378 148.046 121.278 152.801C120.835 153.54 120.421 154.633 119.122 154.367Z" fill="#020A13"/>
<path d="M148.919 157.055C148.092 154.721 147.974 152.24 147.708 149.818C147.324 146.007 147.088 142.197 146.792 138.357C146.763 137.884 146.674 137.53 146.32 137.175C143.101 133.867 139.882 130.529 136.693 127.221C136.486 127.014 136.22 126.896 135.984 126.719C135.453 126.187 134.803 125.774 134.419 125.065C133.474 123.411 131.702 122.495 130.58 120.959C131.496 119.452 133.149 119.098 134.596 118.507C135.157 118.271 135.659 118.921 136.073 119.334C138.288 121.55 140.532 123.765 142.894 126.158C142.629 123.322 143.278 120.693 143.16 118.035C143.101 116.824 143.19 115.583 143.839 114.49C145.641 117.828 146.97 121.343 148.594 124.769C150.011 127.782 151.576 130.736 153.2 133.66C153.378 135.846 152.964 137.973 152.698 140.1C152.108 144.914 151.606 149.759 150.484 154.485C150.218 155.46 150.306 156.73 148.919 157.055Z" fill="#020A13"/>
<path d="M108.344 85.3061C110.499 81.9092 112.832 78.6009 115.431 75.4994C116.583 76.2378 116.376 77.4785 116.464 78.5418C116.76 82.6772 115.549 86.4877 114.161 90.2981C112.921 93.7245 111.356 97.0033 110.204 100.459C109.377 102.941 108.816 105.481 108.609 108.08C108.373 110.916 109.082 113.633 110.293 116.203C110.676 117.03 111.356 117.769 111.238 118.773C110.47 119.541 109.938 118.773 109.525 118.389C108.344 117.326 107.192 116.883 105.715 117.769C105.243 118.064 104.593 118.182 104.091 117.621C102.349 113.84 102.408 109.912 103.235 105.953C104.121 101.611 105.627 97.4464 106.808 93.1929C107.487 90.623 107.635 87.9055 108.344 85.3061Z" fill="#E4522D"/>
<path d="M123.464 77.0059C124.438 76.7105 125.413 76.3856 126.417 76.0902C127.716 75.7062 127.775 76.7105 127.923 77.4785C128.632 80.7573 128.189 84.0065 127.48 87.2557C127.066 89.0871 126.564 90.8594 126.18 92.6907C125.472 95.999 126.387 98.8643 128.484 101.316C131.319 104.624 133.475 108.346 135.335 112.275C136.487 114.726 138.022 116.971 138.967 119.512C139.115 119.925 139.351 120.309 139.292 120.782C138.524 121.609 138.17 120.693 137.845 120.339C136.989 119.334 136.044 118.419 135.187 117.414C134.508 116.646 133.977 116.705 133.238 117.296C132.618 117.769 132.116 118.537 131.142 118.36C129.074 115.258 127.48 111.891 125.797 108.582C124.261 106.692 123.611 104.417 123.08 102.113C122.312 97.7713 122.578 93.4587 122.932 89.1166C123.198 85.956 123.789 82.7954 123.139 79.6053C122.932 78.6896 123.05 77.833 123.464 77.0059Z" fill="#E4522D"/>
<path d="M116.377 75.1744C117.381 75.6766 118.356 76.1787 119.36 76.6809C120.6 78.4237 120.128 80.4027 119.862 82.2046C119.36 85.9264 118.503 89.5891 118.031 93.3405C117.913 94.1676 117.972 94.9947 117.972 95.8217C117.972 96.4125 117.942 97.0033 117.558 97.5054C115.55 100.371 113.365 103.088 111.062 105.688C110.382 106.456 110.501 106.81 111.298 107.371C112.331 108.08 113.276 108.966 114.28 109.764C114.753 110.177 114.694 110.709 114.635 111.27C114.369 113.899 113.985 116.499 113.808 119.157C113.749 119.748 113.66 120.398 113.099 120.693C112.656 120.929 112.302 120.486 112.007 120.161C109.762 115.908 107.813 111.595 108.552 106.574C109.083 102.94 110.235 99.514 111.623 96.1762C113.099 92.6316 114.605 89.1165 115.58 85.3947C116.348 82.4704 116.495 79.5166 115.993 76.5037C115.905 76.0606 115.491 75.3812 116.377 75.1744Z" fill="#E4522D"/>
<path d="M127.599 75.8244C128.455 75.529 129.341 75.2632 130.197 74.9678C131.585 76.4447 131.349 78.2465 131.083 79.9598C130.404 84.1837 129.695 88.3782 129.754 92.6908C129.813 96.3535 130.906 99.4551 134.243 101.434C134.745 101.73 135.188 102.143 135.66 102.498C136.812 103.295 137.373 104.358 137.166 105.776C137.462 106.426 138.259 106.692 138.436 107.46C139.765 109.262 139.765 111.507 140.356 113.545C140.828 115.229 141.124 116.971 141.507 118.714C141.803 119.837 141.98 120.989 141.891 122.17C141.862 122.672 141.921 123.352 141.271 123.499C140.651 123.647 140.356 123.086 140.001 122.702C139.795 122.436 139.588 122.17 139.47 121.845C139.263 120.221 138.554 118.744 137.816 117.326C136.487 114.697 134.952 112.186 133.77 109.469C132.619 106.781 130.936 104.418 128.986 102.261C125.709 98.628 125.236 94.5812 126.624 90.0619C127.658 86.7536 128.219 83.3862 128.071 79.9007C128.012 78.4828 127.421 77.1831 127.599 75.8244Z" fill="#E4522D"/>
<path d="M61.716 56.9788C66.9429 56.3585 72.1698 55.7087 77.3967 55.0884C78.194 55.5315 79.4639 54.8816 79.9068 56.1518C80.2317 58.633 80.527 61.0847 80.8813 63.5363C80.9995 64.452 80.7927 64.8065 79.7887 64.8951C77.2195 65.1019 74.6504 65.4563 72.0812 65.7517C71.7269 65.9585 71.3134 65.8403 70.9295 65.8699C70.3685 65.8994 69.7778 65.929 69.6893 65.1905C69.6007 64.3634 70.3094 64.452 70.8409 64.3634C69.8664 64.5997 69.5121 64.1862 69.2758 63.241C68.8919 61.8231 69.2758 60.4053 68.951 58.9284C69.1872 59.8145 68.6557 60.0804 68.006 60.228C66.4704 60.5825 64.9348 60.7893 63.3992 61.0256C62.6905 61.1437 62.0704 60.8188 61.9818 60.0804C61.8341 59.0761 60.8006 58.1013 61.716 56.9788Z" fill="#6D41BE"/>
<path d="M132.381 74.2292C132.44 76.9172 133.415 79.428 134.094 81.9683C134.389 83.0612 134.183 84.1837 134.242 85.2766C134.419 90.2095 134.567 95.1719 137.579 99.455C137.815 100.164 137.785 100.843 137.372 101.493C137.313 102.261 137.283 103.059 137.224 103.827C135.334 102.438 133.385 101.139 131.732 99.5141C130.019 97.8008 129.783 95.5264 129.665 93.2519C129.458 89.1756 130.019 85.1289 130.698 81.1412C131.023 79.2803 131.141 77.4489 130.669 75.6175C130.58 75.2631 130.58 74.9382 130.875 74.6723C131.407 74.5246 131.879 74.3769 132.381 74.2292Z" fill="#E4522D"/>
<path d="M79.9344 56.1814C79.6391 55.6497 79.1666 55.7383 78.6941 55.7383C78.1626 55.7383 77.6015 55.7974 77.4243 55.118C77.6901 54.5863 78.9304 54.1137 77.4538 53.4639C77.0109 53.2866 77.4243 52.8731 77.6606 52.6368C79.7277 50.3328 83.1532 49.6534 85.8405 51.1008C89.3546 53.0208 92.4258 55.5315 94.9359 58.7217C93.9319 60.2281 92.8983 61.7346 91.8943 63.2706C91.7761 63.0047 91.6285 62.7389 91.5694 62.4731C91.0084 60.2872 89.5023 59.4011 87.3466 59.3125C85.8405 59.2534 84.3049 59.1352 82.7989 59.0466C82.2968 59.0171 81.7948 59.0171 81.3814 58.7217C81.0566 58.4854 80.7022 58.2195 80.8203 57.7765C80.9089 57.3038 81.3519 57.2743 81.7653 57.2743C82.8579 57.2743 83.921 57.2152 84.9841 56.9789C86.4606 56.6245 86.6378 56.1223 85.7224 55.0294C83.6848 52.6072 81.2928 53.0503 80.023 56.0928C79.9344 56.0928 79.9344 56.1223 79.9344 56.1814Z" fill="#EA54B2"/>
<path d="M103.323 118.094C102.437 117.06 101.581 116.026 100.695 114.992C99.9864 112.836 100.223 110.62 100.4 108.435C100.636 105.422 100.99 102.409 100.902 99.3959C100.872 98.4211 100.961 97.4464 101.256 96.5011C102.349 94.6402 103.471 92.7498 104.564 90.8889C104.593 90.2685 104.918 89.7959 105.45 89.5005C106.247 88.3781 107.015 87.2556 107.812 86.1332C108.255 86.6058 108.078 87.1375 108.019 87.6692C107.517 92.2476 105.952 96.5307 104.652 100.932C103.796 103.915 102.998 106.899 102.821 110C102.703 112.038 102.91 114.017 103.56 115.967C103.796 116.646 104.239 117.296 104.032 118.094C103.796 118.241 103.56 118.271 103.323 118.094Z" fill="#E4542E"/>
<path d="M123.374 102.32C124.171 104.388 124.969 106.456 125.766 108.523C124.939 109.144 124.024 109.675 123.344 110.414C122.281 111.536 121.868 111.034 121.336 109.941C119.417 105.983 118.265 101.789 117.763 97.4464C117.704 97.2101 117.704 97.0033 117.763 96.767C118.236 95.7627 118.944 94.9652 119.594 94.1086C120.362 93.0747 120.923 93.1633 121.277 94.3744C121.809 96.1172 122.222 97.8895 122.754 99.6027C122.842 100.548 123.226 101.405 123.374 102.32Z" fill="#6D41BE"/>
<path d="M153.524 42.062C151.516 40.9396 149.479 39.8171 147.471 38.7242C148.357 35.6522 149.213 32.5802 150.099 29.4787C150.571 28.0904 151.044 26.7021 151.546 25.3138C151.753 24.9889 151.871 24.6049 152.343 24.5458C153.997 25.1365 153.052 26.2885 152.963 27.2928C152.875 27.6768 152.668 28.0018 152.432 28.2971C151.31 31.0147 151.31 31.0147 154.204 30.6897C155.06 30.6011 155.946 30.5421 156.802 30.4534C156.773 30.5125 156.773 30.5421 156.743 30.6011C154.204 33.998 152.698 37.6903 153.524 42.062Z" fill="#EA54B2"/>
<path d="M103.326 118.094C103.532 118.035 103.739 118.005 103.946 117.946C104.093 117.887 104.152 117.68 104.359 117.68C106.987 116.233 109.143 117.178 111.092 119.039C111.653 119.039 111.86 119.571 112.214 119.837C112.687 120.457 113.159 120.87 113.277 119.659C113.632 116.351 113.927 113.043 114.252 109.734C114.4 109.409 114.222 108.966 114.665 108.612C115.64 109.675 116.378 110.886 117.087 112.097C116.555 115.553 115.965 119.039 115.492 122.524C115.374 123.411 115.197 123.676 114.34 123.115C112.953 122.229 111.387 121.52 110.059 120.575C108.818 119.689 107.637 119.512 106.249 120.014C105.511 120.28 104.714 120.339 103.975 120.516C103.237 119.984 102.499 119.453 101.672 118.862C102.322 118.566 102.824 118.33 103.326 118.094Z" fill="#6D41BE"/>
<path d="M139.707 121.668C140.12 122.259 140.504 122.849 141.242 123.381C141.597 121.786 141.331 120.28 141.154 118.803C140.947 117.976 140.977 117.119 140.858 116.292C140.681 114.726 140.711 113.161 140.711 111.595C140.711 111.064 140.711 110.502 141.124 110.059C141.154 109.882 141.154 109.616 141.272 109.498C141.538 109.291 141.567 109.675 141.626 109.764C142.394 111.359 143.132 112.954 143.871 114.52C143.634 118.566 143.398 122.613 143.132 126.896C142.128 125.892 141.213 125.035 140.327 124.179C139.53 123.381 138.762 122.584 137.935 121.786C136.872 120.782 135.986 118.95 134.746 118.95C133.387 118.921 131.999 120.25 130.611 120.988C129.342 119.984 129.342 119.984 131.143 118.33C131.261 118.271 131.409 118.212 131.527 118.123C132.472 117.444 133.417 116.203 134.332 116.233C135.366 116.292 136.015 117.798 136.872 118.655C137.64 119.393 138.201 120.339 139.087 120.959C139.441 121.048 139.53 121.402 139.707 121.668Z" fill="#6D42BE"/>
<path d="M100.107 114.195C96.8584 110.65 95.943 106.692 98.0987 102.232C98.896 100.577 99.6638 98.8642 100.727 97.3578C101.465 97.5646 101.111 98.1553 101.111 98.5984C101.229 102.468 100.756 106.337 100.432 110.177C100.343 111.507 100.815 112.895 100.107 114.195Z" fill="#E4532E"/>
<path d="M144.666 59.1647C146.733 55.6201 149.627 52.9321 153.23 50.953C153.2 52.3708 152.905 53.7591 152.403 55.0884C151.281 58.1604 148.83 59.4305 144.666 59.1647Z" fill="#6D42BF"/>
<path d="M61.7149 56.9789C61.5377 58.1899 62.1874 59.2533 62.3941 60.3758C62.4827 60.8779 63.0438 60.7598 63.3981 60.7007C64.6089 60.5235 65.8196 60.3462 67.0009 60.1099C68.064 59.8736 69.4519 59.9032 68.6546 57.8355C69.8949 59.5782 69.2747 61.2619 69.57 62.8275C69.8063 64.0976 70.2492 64.5111 71.4895 64.2748C71.4009 64.4225 71.4009 64.5407 71.3419 64.5407C70.8694 64.7474 69.9244 64.2453 69.9539 65.1314C69.9834 66.0767 70.9284 65.6631 71.4895 65.7517C71.6962 65.7813 71.8734 65.7813 72.0801 65.7813C71.2237 66.1357 70.3083 66.0471 69.4224 66.0767C68.9203 65.3382 68.2411 65.1314 67.3848 65.3973C66.7351 65.6041 66.0264 65.5154 65.3472 65.6041C64.6089 65.6927 64.4317 66.0471 64.727 66.697C64.3431 66.9628 63.9297 66.8742 63.4867 66.8742C63.0733 66.1653 62.5713 65.8994 61.6854 66.0471C60.6223 66.2244 59.5592 66.2834 58.4961 66.4311C57.7283 66.5197 57.4625 66.8447 57.6102 67.5831C57.2263 67.849 56.8128 67.7899 56.3994 67.7604C55.9269 66.9924 55.3068 66.6084 54.3618 66.8447C53.9484 66.9628 53.5054 67.0219 53.151 66.6674C52.9443 66.313 52.8557 65.929 52.9148 65.5154C53.3578 65.3973 53.7712 65.6927 54.1846 65.6927C54.8638 65.6631 55.6316 65.7813 55.8974 64.9542C56.0746 64.393 55.986 63.6841 55.543 63.3296C54.9524 62.8865 54.2437 63.2705 53.6235 63.5364C53.2396 63.6841 53.1806 64.1567 52.8262 64.3634C52.5014 63.8908 52.59 63.3591 52.6195 62.8275C53.3282 62.6798 54.037 62.3844 54.7457 62.3844C56.2813 62.3844 56.2222 61.4096 56.045 60.4053C55.8679 59.5487 55.7793 58.6921 55.8088 57.8059C55.9269 57.8059 56.0155 57.8059 56.1336 57.8059C57.1081 58.3967 56.7538 59.3715 56.7833 60.1985C56.8128 61.1733 57.1672 61.5573 58.1417 61.2915C58.4665 61.2028 58.8209 61.1438 59.1457 61.0847C61.7149 60.6121 61.833 60.4053 60.8585 57.9832C60.7404 57.7173 60.5632 57.481 60.5041 57.1856C60.888 56.9198 61.3015 56.9789 61.7149 56.9789Z" fill="#6C79BF"/>
<path d="M96.5918 76.1787C99.3381 76.031 102.055 75.9424 104.772 76.4446C105.451 76.5627 106.278 76.415 106.721 77.183C106.485 77.4193 106.248 77.6852 105.983 77.8919C102.291 81.0821 99.0428 80.4913 96.5918 76.1787Z" fill="#6D42BF"/>
<path d="M112.214 119.896C111.712 119.777 111.387 119.452 111.092 119.098C110.442 117.089 109.261 115.317 108.729 113.249C107.725 109.35 108.286 105.54 109.379 101.789C110.796 96.8852 113.218 92.3363 114.753 87.4624C115.876 83.8588 116.614 80.2255 115.787 76.4742C115.728 76.1493 115.58 75.8243 115.462 75.4994C115.492 75.3813 115.492 75.2631 115.521 75.1745C115.817 75.145 116.141 74.7609 116.437 75.204C116.112 75.3517 116.112 75.6766 116.171 75.972C117.293 81.8502 115.669 87.2557 113.454 92.5726C111.712 96.767 109.822 100.932 109.025 105.481C108.198 110.207 109.202 114.549 111.594 118.625C111.771 119.009 111.978 119.452 112.214 119.896Z" fill="#8AA790"/>
<path d="M119.123 154.367C120.541 153.865 121.131 152.565 121.84 151.413C124.97 146.185 127.421 140.631 129.931 135.108C130.197 134.547 130.492 133.985 130.788 133.424C131.349 133.69 131.378 134.103 131.112 134.635C128.13 141.075 125.088 147.484 121.308 153.51C121.013 154.012 120.629 154.455 120.186 154.869C119.536 155.489 119.182 155.194 119.123 154.367Z" fill="#704AC0"/>
<path d="M148.92 157.055C150.219 155.666 150.278 153.865 150.603 152.151C151.755 146.273 152.257 140.277 152.966 134.34C152.995 134.103 153.113 133.897 153.172 133.66C153.586 134.163 153.645 134.724 153.586 135.315C152.877 142.197 151.991 149.02 150.574 155.814C150.485 156.287 150.308 156.759 150.131 157.202C149.983 157.527 149.953 158.089 149.451 158C149.009 157.911 148.92 157.468 148.92 157.055Z" fill="#704BC0"/>
<path d="M104.357 117.71C104.209 117.798 104.091 117.887 103.943 117.976C101.64 112.57 102.585 107.224 104.12 101.848C105.39 97.476 106.955 93.1929 107.635 88.644C107.753 87.8169 107.782 86.9898 107.812 86.1628C107.989 85.8674 108.166 85.6015 108.373 85.3062C108.491 89.2052 107.369 92.868 106.276 96.5307C105.449 99.3073 104.593 102.054 103.884 104.861C102.762 109.203 102.673 113.486 104.357 117.71Z" fill="#90A28A"/>
<path d="M130.905 74.6724C131.791 78.9259 130.432 83.0317 130.078 87.2262C129.842 90.1209 129.753 93.0157 130.226 95.9104C130.521 97.7713 131.466 99.1892 132.913 100.341C134.389 101.493 135.925 102.527 137.224 103.886C137.283 104.536 137.372 105.156 137.165 105.776C137.195 104.772 136.781 103.974 136.014 103.354C135.748 103.118 135.512 102.852 135.216 102.704C129.428 99.5732 128.956 94.3449 129.458 88.6145C129.724 85.572 130.226 82.5886 130.728 79.6053C130.964 78.0397 130.816 76.4742 130.196 74.9973C130.432 74.8791 130.668 74.761 130.905 74.6724Z" fill="#87AA94"/>
<path d="M137.372 101.523C137.343 100.814 137.284 100.105 137.254 99.3958C137.136 99.0709 137.048 98.746 136.989 98.4211C136.723 97.2691 136.25 96.1171 137.077 94.9946C138.642 96.442 140.414 97.6531 142.334 98.9232C140.857 99.8685 138.997 99.8094 137.963 101.257C137.756 101.375 137.55 101.464 137.372 101.523Z" fill="#60349E"/>
<path d="M63.1623 94.079C63.2213 94.6993 62.7488 94.7289 62.424 94.9061C62.0696 95.1129 61.6562 95.1719 61.42 94.6698C60.7703 93.2519 60.0911 91.8341 59.4414 90.4163C59.2052 89.8846 59.6481 89.7369 60.0025 89.5892C60.3569 89.412 60.8294 89.1757 61.0361 89.6483C61.8039 91.1252 62.4831 92.6316 63.1623 94.079Z" fill="#60D0C1"/>
<path d="M52.8555 64.3339C53.0031 63.3296 54.8635 62.1776 55.779 62.6502C56.4582 63.0047 56.1629 63.8613 56.3696 64.4816C56.5173 64.8656 56.6649 65.545 56.0448 65.7518C55.0112 66.1062 53.9186 66.5788 52.9736 65.545C52.9145 65.1019 52.885 64.7179 52.8555 64.3339Z" fill="#6D41BE"/>
<path d="M57.6405 67.5831C57.0795 67.4945 56.9613 67.081 57.0499 66.6084C57.1385 66.0471 57.552 66.1062 57.9359 66.0767C59.2943 65.929 60.6822 65.8994 62.0111 65.6041C63.2513 65.3087 63.6648 65.6927 63.5171 66.8742C61.5386 67.1105 59.5896 67.3468 57.6405 67.5831Z" fill="#6D42BF"/>
<path d="M117.911 96.7965C117.852 97.0033 117.793 97.2101 117.734 97.4464C117.675 97.4759 117.616 97.5054 117.527 97.5054C117.261 92.9861 118.236 88.6439 119.092 84.2723C119.594 81.732 119.83 79.2212 119.328 76.6809C119.712 76.74 120.185 76.5628 120.48 76.9763C121.012 81.9387 119.299 86.6058 118.708 91.4205C118.501 93.2224 118.561 95.0833 117.911 96.7965Z" fill="#8AA690"/>
<path d="M160.967 55.1474C161.794 55.0884 162.325 55.945 161.971 56.5948C161.41 57.6287 160.79 58.6034 160.229 59.6373C159.933 60.169 159.638 60.1394 159.195 59.844C158.841 59.6077 158.339 59.4305 158.663 58.8693C159.313 57.7173 159.963 56.5948 160.642 55.4724C160.731 55.2951 160.908 55.2065 160.967 55.1474Z" fill="#7146C0"/>
<path d="M85.2812 83.7111C84.8973 83.3271 83.8047 83.4157 84.4248 82.3228C85.0154 81.3185 85.6061 80.3142 86.1671 79.2803C86.492 78.6896 86.8463 78.6896 87.3484 79.044C87.7322 79.3099 88.1457 79.4576 87.7913 80.0483C87.1416 81.1413 86.5215 82.2342 85.8718 83.3271C85.7537 83.5043 85.6651 83.7702 85.2812 83.7111Z" fill="#7146C0"/>
<path d="M91.1868 131.15C90.7734 131.593 90.8324 132.686 89.7694 132.065C88.7358 131.504 87.7317 130.913 86.7277 130.323C86.3733 130.116 86.019 129.879 86.3733 129.407C86.6096 129.082 86.7277 128.403 87.2888 128.668C88.5586 129.289 89.7694 130.027 90.9801 130.766C91.0687 130.854 91.1278 131.031 91.1868 131.15Z" fill="#7046C0"/>
<path d="M61.1834 128.727C60.7109 128.491 59.7659 128.58 60.2679 127.457C60.7404 126.424 61.0948 125.36 61.4787 124.297C61.6854 123.736 61.9512 123.529 62.5713 123.824C63.1324 124.06 63.3391 124.297 63.1029 124.917C62.6599 126.01 62.2465 127.103 61.833 128.196C61.7149 128.462 61.6263 128.787 61.1834 128.727Z" fill="#0A62E5"/>
<path d="M87.4656 148.252C87.2884 148.489 87.1407 148.695 86.9931 148.873C86.3139 149.7 85.6052 150.527 84.926 151.383C84.5421 151.856 84.2763 152.151 83.6266 151.62C83.0655 151.147 83.1246 150.822 83.538 150.32C84.2763 149.463 84.985 148.577 85.7233 147.721C85.93 147.455 86.1662 147.13 86.5797 147.425C86.9045 147.691 87.1703 147.957 87.4656 148.252Z" fill="#0861E5"/>
<path d="M100.104 114.195C100.075 109.085 101.02 104.033 100.961 98.9234C100.961 98.3917 101.108 97.8304 100.754 97.3578C100.931 97.092 101.079 96.7966 101.256 96.5308C101.581 100.253 101.315 103.974 100.931 107.667C100.665 110.118 100.813 112.57 100.695 114.992C100.488 114.726 100.311 114.461 100.104 114.195Z" fill="#95A188"/>
<path d="M134.419 125.094C135.098 125.478 135.807 125.862 135.984 126.748C134.714 126.837 133.445 126.896 132.175 127.014C131.614 127.073 131.259 126.955 131.2 126.276C131.171 125.596 131.348 125.271 132.086 125.271C132.854 125.212 133.651 125.124 134.419 125.094Z" fill="#744EC2"/>
<path d="M64.7269 66.6969C64.284 66.5788 63.841 66.4606 63.8705 65.8994C63.9001 65.3677 64.4316 65.3677 64.7565 65.3086C65.9967 65.1019 67.237 65.0132 68.4773 64.8656C69.4518 64.7474 69.4518 65.3972 69.4223 66.0766C67.8867 66.4606 66.3216 66.6379 64.7269 66.6969Z" fill="#6E44BF"/>
<path d="M141.124 110.03C141.153 112.156 141.183 114.283 141.183 116.38C140.769 116.38 140.769 116.056 140.681 115.79C140.119 113.427 139.588 111.064 138.968 108.7C138.909 108.435 138.85 108.11 139.056 107.873C139.765 108.582 140.444 109.291 141.124 110.03Z" fill="#E05534"/>
<path d="M61.2718 150.32C61.8329 150.409 61.9215 150.911 62.0396 151.295C62.394 152.476 63.5161 153.392 63.2504 154.721C63.1913 155.046 62.394 155.46 62.0101 154.662C61.4785 153.569 60.947 152.476 60.445 151.354C60.0611 150.497 60.8879 150.586 61.2718 150.32Z" fill="#62D1C1"/>
<path d="M138.317 155.223C137.962 155.223 137.844 154.987 137.726 154.78C137.224 153.717 136.752 152.654 136.25 151.59C136.043 151.147 136.131 150.852 136.604 150.645C137.047 150.468 137.372 150.527 137.578 150.97C138.08 152.033 138.612 153.097 139.084 154.16C139.38 154.898 138.819 155.105 138.317 155.223Z" fill="#63D1C2"/>
<path d="M80.8516 105.51C80.2609 106.515 79.6408 107.578 78.9911 108.612C78.7549 108.996 78.4891 108.671 78.2233 108.582C77.8394 108.405 77.7213 108.169 77.9576 107.785C78.4891 106.899 78.9911 106.012 79.4932 105.097C79.6999 104.742 79.9656 104.595 80.3495 104.801C80.6153 104.949 80.9106 105.067 80.8516 105.51Z" fill="#E55A36"/>
<path d="M108.521 149.079C107.99 148.814 107.458 148.607 107.901 147.898C108.403 147.041 108.876 146.214 109.378 145.358C109.555 145.033 109.791 144.796 110.175 145.062C110.441 145.239 110.884 145.358 110.648 145.83C110.087 146.864 109.496 147.868 108.876 148.873C108.817 148.961 108.64 148.991 108.521 149.079Z" fill="#E55936"/>
<path d="M53.1815 66.6674C53.8016 66.5788 54.4217 66.4902 55.0714 66.372C56.1936 66.1948 56.6365 66.6379 56.4593 67.7603C55.8687 67.8489 55.3077 67.908 54.7466 68.0557C53.4472 68.3511 52.9452 67.9376 53.1815 66.6674Z" fill="#7045C0"/>
<path d="M139.085 107.873C139.735 110.709 140.296 113.604 141.182 116.381C141.182 117.178 141.153 117.976 141.153 118.773C140.355 115.524 139.587 112.245 138.79 108.996C138.672 108.464 138.524 107.962 138.406 107.43C138.731 107.43 138.938 107.578 139.085 107.873Z" fill="#89A892"/>
<path d="M165.131 32.1371C166.106 33.2005 166.992 34.1457 167.877 35.1205C167.907 35.1795 167.759 35.4454 167.641 35.5635C167.494 35.7408 167.287 35.9475 167.051 35.7112C166.194 34.8546 165.279 34.0275 164.511 33.1119C164.157 32.6983 164.806 32.5506 165.131 32.1371Z" fill="#0A62E5"/>
<path d="M105.421 89.5006C105.214 90.0323 104.949 90.5049 104.535 90.8889C104.181 90.3277 103.826 89.7665 103.443 89.1757C103.118 88.7031 103.059 88.3486 103.679 88.0237C104.24 87.7283 104.447 87.9646 104.683 88.4077C104.919 88.8212 105.185 89.1462 105.421 89.5006Z" fill="#1466E3"/>
<path d="M120.481 41.1168C120.983 42.7414 121.456 44.366 121.958 45.9907C121.131 47.4971 120.127 48.9149 119.271 50.4214C118.946 50.9826 118.355 51.4552 117.676 51.1599C116.76 50.7759 116.081 50.0669 116.052 48.9445C115.756 47.9402 115.284 47.7334 114.25 48.1765C112.774 48.7968 111.77 48.3242 111.002 46.8473C110.057 44.9863 109.585 43.0368 109.555 40.9396C109.673 40.851 109.821 40.8214 109.909 40.7328C109.791 40.7919 109.673 40.851 109.555 40.9691C109.083 40.6737 109.555 39.8762 108.846 39.699C108.581 39.1378 109.112 39.2559 109.319 39.1968C110.352 38.8424 109.023 38.8719 109.23 38.6356C109.23 37.8676 109.23 37.1292 109.26 36.3612C109.466 35.9476 109.85 36.0953 110.175 36.1248C111.888 36.243 113.512 36.0362 115.048 35.2387C115.904 34.7956 116.288 35.1205 116.524 35.9772C116.79 36.9815 116.938 38.0744 117.794 39.0196C118.148 38.1039 118.326 37.2768 118.68 36.5384C118.946 35.9772 119.271 35.4455 119.979 35.5341C120.688 35.6522 120.777 36.3021 120.865 36.8928C121.072 38.3402 120.57 39.699 120.481 41.1168Z" fill="#EA54B2"/>
<path d="M120.482 41.1168C119.773 40.9986 120.157 40.5556 120.216 40.2306C120.334 39.3149 120.541 38.3993 120.6 37.4836C120.659 36.8337 120.836 35.859 120.039 35.6817C119.182 35.475 119.123 36.5088 118.887 37.0996C118.562 37.9266 118.326 38.8128 118.001 39.7876C116.554 38.5765 116.318 36.9519 116.023 35.2091C113.896 36.4793 111.682 37.011 109.29 36.4202C107.606 35.8294 106.248 34.8547 105.214 33.4073C104.269 32.0781 104.328 31.9304 105.864 31.5464C109.201 30.7193 112.479 30.9261 115.698 32.2257C116.436 32.5211 117.145 32.7279 117.942 32.787C119.714 32.9051 121.043 34.0571 121.309 35.7703C121.604 37.5722 121.515 39.4331 120.482 41.1168Z" fill="#010101"/>
<path d="M60.5053 57.156C61.9523 57.8945 61.5093 59.4305 61.9523 60.612C62.0704 60.9369 61.6274 60.996 61.3321 61.0551C59.9442 61.3209 58.5858 61.6163 57.1979 61.8821C56.4891 62.0003 56.4596 61.4981 56.4301 60.9664C56.371 59.9031 56.6368 58.8101 56.1348 57.7763C57.5522 57.3037 59.0583 57.2742 60.5053 57.156Z" fill="#6E43BD"/>
<path d="M116.052 48.9444C117.942 51.6915 118.296 51.662 119.832 48.7672C120.393 47.7334 120.954 46.6995 121.958 45.9906C122.46 45.9611 122.962 45.8724 123.434 46.0792C123.493 46.4927 123.228 46.6995 122.962 46.9358C121.781 47.9106 121.102 49.1807 120.836 50.6872C120.688 51.2484 120.57 51.8392 120.363 52.3709C119.655 54.0841 118.414 54.4386 116.908 53.3752C116.642 53.1684 116.377 52.9321 116.14 52.6958C115.402 51.8687 114.989 50.953 115.373 49.8306C115.432 49.358 115.668 49.0921 116.052 48.9444Z" fill="#6F42BE"/>
<path d="M70.2212 30.0694C69.8669 29.8331 69.483 29.5968 69.1581 29.3309C68.7742 29.006 69.1286 28.7106 69.3058 28.4743C70.1326 27.3223 70.989 26.1999 71.7863 25.0183C72.1407 24.5162 72.4655 24.5162 72.879 24.8706C73.2038 25.166 73.8535 25.3728 73.381 25.9931C72.4655 27.2632 71.5501 28.5334 70.6051 29.774C70.5461 29.8922 70.3984 29.9512 70.2212 30.0694Z" fill="#61D0C1"/>
<path d="M60.2685 13.2916C60.1209 13.7642 59.737 14.0006 59.4122 14.2664C59.0873 14.5322 58.8806 14.2369 58.6739 14.0301C57.8175 13.1144 56.9611 12.1692 56.1047 11.2239C55.6323 10.7218 56.0752 10.456 56.4 10.1606C56.6658 9.92426 56.9316 9.51072 57.345 9.98334C58.2309 10.9581 59.1169 11.9329 60.0028 12.9076C60.1209 13.0258 60.18 13.1735 60.2685 13.2916Z" fill="#7146C0"/>
<path d="M58.9993 46.6109C58.1134 46.5222 57.0798 46.345 56.0758 46.3155C55.308 46.2859 55.2194 45.9019 55.2489 45.2816C55.308 44.5727 55.7214 44.5432 56.2529 44.6022C57.2865 44.7204 58.2905 44.8385 59.3241 44.9567C59.9443 45.0158 60.4167 45.1339 60.2986 46.0201C60.21 46.8767 59.6489 46.6109 58.9993 46.6109Z" fill="#0962E5"/>
<path d="M102.586 17.1317C102.084 18.3723 101.612 19.7015 101.05 21.0012C100.814 21.5034 100.371 21.1489 100.046 21.0603C99.633 20.9126 99.3968 20.6763 99.6035 20.1741C100.076 18.9926 100.548 17.8111 100.991 16.6295C101.198 16.1274 101.493 16.1274 101.907 16.3342C102.202 16.4818 102.704 16.4818 102.586 17.1317Z" fill="#0861E5"/>
<path d="M120.541 50.3327C120.866 48.4718 121.988 47.1426 123.435 46.0792C123.612 46.0792 123.789 46.0792 123.967 46.0792C123.819 47.1131 123.553 48.1469 123.169 49.0921C122.52 49.9487 121.693 50.51 120.541 50.3327Z" fill="#E658B4"/>
<path d="M125.973 15.4775C126.387 15.8025 126.564 15.9502 126.741 16.0978C127.45 16.7772 128.1 17.5157 128.838 18.1655C129.281 18.5495 129.251 18.8449 128.838 19.2584C128.424 19.7015 128.129 19.6129 127.775 19.1994C127.095 18.4904 126.387 17.8111 125.708 17.1021C125.53 16.8954 125.206 16.7477 125.412 16.3932C125.56 16.1274 125.767 15.832 125.973 15.4775Z" fill="#62D1C1"/>
<path d="M95.2904 39.9352C95.8219 39.8171 95.881 40.142 96.0582 40.3783C96.2354 40.6441 96.3535 40.91 95.9696 41.1168C94.9951 41.678 94.0206 42.2392 93.0461 42.83C92.6917 43.0368 92.5145 42.8891 92.3373 42.5937C92.1897 42.3278 91.9534 42.0029 92.2487 41.7961C93.2823 41.1168 94.3454 40.526 95.2904 39.9352Z" fill="#E55936"/>
<path d="M138.112 39.5217C137.787 39.1968 137.049 39.0195 137.698 38.3401C138.407 37.6017 139.145 36.8928 139.854 36.1838C140.12 35.918 140.415 35.7998 140.711 36.1543C140.888 36.3611 141.242 36.5974 140.976 36.8928C140.149 37.7789 139.264 38.606 138.407 39.4626C138.378 39.4921 138.23 39.4921 138.112 39.5217Z" fill="#E55632"/>
<path d="M115.371 49.801C115.489 50.7758 115.755 51.6619 116.316 52.489C116.08 52.9025 115.726 53.0207 115.283 52.9321C114.633 52.489 114.013 52.0164 113.363 51.5733C114.042 50.953 114.692 50.3623 115.371 49.801Z" fill="#E658B4"/>
<path d="M109.26 38.6356C109.496 38.6356 109.732 38.6356 109.998 38.6356C110.323 38.6356 110.736 38.547 110.795 39.0196C110.884 39.6399 110.352 39.5218 109.998 39.5808C109.614 39.6399 109.23 39.6695 108.876 39.7285C108.551 39.7581 108.138 39.7876 108.108 39.3445C108.079 38.4879 108.994 39.0492 109.26 38.6356Z" fill="#381E2E"/>
<path d="M152.109 24.723C151.932 24.9298 151.725 25.107 151.548 25.3138C151.43 23.5415 151.312 21.7987 151.194 20.0264C150.987 19.6719 151.105 19.4061 151.459 19.1993C151.784 19.0812 152.109 19.0812 152.404 19.1993C152.611 19.3175 152.788 19.4652 152.729 19.731C152.168 20.1741 151.814 20.6763 152.05 21.4738C152.227 22.1236 152.493 22.5076 153.261 22.3599C153.792 22.2418 154.324 22.2713 154.855 22.2122C156.716 21.9464 156.716 21.9464 156.745 20.0559C156.745 19.731 156.686 19.3766 156.686 19.0516C156.716 18.904 156.775 18.7858 156.863 18.6972C157.07 18.6086 157.247 18.6381 157.424 18.7858C157.513 18.7858 157.602 18.8153 157.69 18.8153C157.808 18.9335 157.838 19.0812 157.867 19.2584C157.867 19.4947 157.838 19.731 157.838 19.9969C157.808 21.5329 157.986 21.6806 159.521 21.5033C161.854 21.2375 164.157 20.8239 166.49 20.6172C166.727 20.6172 166.963 20.7058 167.14 20.883C167.317 22.3304 167.494 23.7778 167.701 25.2252C167.79 25.8159 167.908 26.3772 166.963 26.4953C162.12 27.0565 157.277 27.6768 152.434 28.2676C152.434 27.9427 152.375 27.6178 152.641 27.3519C153.763 27.2633 154.885 27.1747 156.007 26.9975C156.834 26.8793 157.129 26.4362 156.982 25.6978C156.479 22.8916 157.159 23.1575 154.235 23.4233C153.29 23.5119 152.463 23.7482 152.109 24.723Z" fill="#4281EC"/>
<path d="M157.424 18.7858C157.218 18.7858 157.011 18.7858 156.804 18.7858C156.361 17.9883 155.8 17.4271 154.826 17.8111C153.674 18.2246 151.902 17.3384 151.518 19.3766C151.253 19.4947 151.223 19.7606 151.164 19.9969C150.81 18.5495 150.544 17.0726 150.632 15.3298C151.253 17.5157 151.282 17.5157 153.438 17.1021C153.881 17.0135 154.324 17.0431 154.767 17.0135C155.564 16.9544 156.45 17.0726 156.804 16.0683C156.834 16.0092 156.922 15.6548 157.011 15.9501C157.484 17.5157 158.517 16.3637 159.285 16.4523C159.816 16.5114 160.348 16.4523 160.909 16.6295C160.23 16.7772 159.521 17.0726 158.842 17.0135C157.365 16.8658 157.277 17.6929 157.424 18.7858Z" fill="#2A72EA"/>
<path d="M157.689 19.0812C157.689 18.9926 157.689 18.904 157.689 18.8154C159.077 18.2837 160.583 18.5495 162.001 18.2541C163.123 18.0178 164.334 17.9587 165.486 17.9587C166.401 17.9587 166.106 17.1612 166.46 16.6295C166.696 18.136 166.903 19.5243 167.11 20.9126C166.933 20.9126 166.726 20.9126 166.549 20.9126C165.545 18.7858 165.545 18.7267 163.005 19.0221C161.735 19.1698 160.465 19.2289 159.196 19.4061C158.664 19.4652 158.132 19.5538 157.689 19.0812Z" fill="#2A72EA"/>
<path d="M133.269 63.7136C133.8 63.7432 133.977 64.1567 134.214 64.5407C138.466 71.3641 144.195 76.5628 151.371 80.196C153.556 81.2889 155.889 81.9683 158.429 82.884C156.125 84.036 154.058 84.9812 152.08 86.1037C150.958 86.724 149.865 87.108 148.595 87.0784C146.469 86.9898 144.727 85.956 143.132 84.7154C137.757 80.5505 135.129 74.6723 133.21 68.4102C133.062 67.9671 133.151 67.4355 133.121 66.9333C133.21 65.8404 133.239 64.777 133.269 63.7136Z" fill="#5F339E"/>
<path d="M117.913 96.7966C117.883 92.868 118.651 89.028 119.419 85.188C119.891 82.7363 120.482 80.3142 119.98 77.7739C119.891 77.3603 119.921 76.9763 120.512 76.9763C121.22 77.5671 122.136 77.2422 122.904 77.5671C123.76 79.9892 123.494 82.5 123.406 84.9812C123.228 89.5301 122.402 94.0495 122.845 98.6279C122.874 99.0119 122.874 99.4255 122.549 99.7208C121.604 97.8009 121.368 95.6446 120.63 93.4883C119.478 94.5221 119.035 95.9695 117.913 96.7966Z" fill="#E4522D"/>
<path d="M115.283 52.9026C115.638 52.7549 115.962 52.6072 116.317 52.4595C116.671 52.7254 116.996 53.0208 117.35 53.2275C118.62 53.966 119.417 53.6706 119.949 52.2823C120.185 51.662 120.333 50.9826 120.54 50.3328C121.426 49.9192 122.282 49.5057 123.168 49.0922C122.843 51.6325 121.987 54.0546 121.455 56.5358C121.278 57.3629 120.864 56.9494 120.51 56.7131C118.768 55.4429 117.026 54.1728 115.283 52.9026Z" fill="#FCFDFD"/>
<path d="M139.705 121.668C139.41 121.52 139.174 121.284 139.056 120.959C138.672 119.571 138.111 118.271 137.372 117.06C134.862 112.806 133.297 108.021 130.167 104.093C129.694 103.531 129.281 102.911 128.779 102.379C125.501 98.8347 124.881 94.7584 126.269 90.2095C127.273 86.9308 128.011 83.5634 127.805 80.0779C127.745 78.9849 127.568 77.9511 127.332 76.8877C127.214 76.3265 126.978 76.0016 126.358 76.0606C126.682 75.6471 127.125 75.8243 127.539 75.7948C128.72 80.0779 128.277 84.3314 127.184 88.5849C126.771 90.2095 126.358 91.8046 126.092 93.4587C125.59 96.6489 126.8 99.3664 128.809 101.729C133.533 107.194 136.103 113.87 139.262 120.25C139.528 120.693 139.587 121.195 139.705 121.668Z" fill="#88A892"/>
<path d="M122.549 99.7504C122.283 94.8766 122.815 90.0618 123.11 85.2175C123.258 82.6772 123.258 80.1074 122.874 77.5966C123.051 77.4194 123.258 77.2126 123.435 77.0354C123.258 78.6009 123.7 80.1369 123.73 81.732C123.76 85.4243 123.376 89.0575 123.051 92.7203C122.815 95.5855 123.08 98.3916 123.287 101.227C123.317 101.611 123.346 101.995 123.376 102.379C122.992 101.493 122.637 100.666 122.549 99.7504Z" fill="#8EA08C"/>
<path d="M137.046 94.9948C137.106 96.1763 137.165 97.3578 137.194 98.5394C136.338 98.3917 136.249 97.5941 135.983 97.0034C134.861 94.4631 134.359 91.7751 134.241 88.9985C134.123 86.9603 133.769 84.9222 134.448 82.9136C135.659 86.0742 136.19 89.3529 136.692 92.6612C136.84 93.4588 136.928 94.2268 137.046 94.9948Z" fill="#E3522F"/>
<path d="M134.448 82.9431C134.271 87.3444 134.271 91.7456 135.836 95.9696C136.161 96.8852 136.485 97.8305 137.224 98.5098C137.224 98.8052 137.253 99.1006 137.253 99.3665C135.422 97.4169 134.861 94.9357 134.418 92.425C133.828 88.969 133.65 85.4539 134.093 81.9388C134.418 82.2342 134.389 82.6182 134.448 82.9431Z" fill="#86A894"/>
<path d="M152.107 24.723C151.871 23.7778 151.96 23.1575 153.23 23.2165C154.234 23.2461 155.267 22.9802 156.242 22.7735C156.803 22.6553 157.098 22.803 157.098 23.3938C157.098 23.7482 157.098 24.0732 157.128 24.4276C157.246 25.3728 157.836 26.9384 157.098 27.1451C155.71 27.5291 154.115 28.2085 152.609 27.3814C152.698 26.8498 152.816 26.3476 152.875 25.8159C152.964 25.2251 152.846 24.723 152.107 24.723Z" fill="#005CE6"/>
<path d="M64.7869 64.8656C63.842 65.1314 63.4581 64.5407 63.2513 63.6841C63.1332 63.1524 63.0446 62.6207 62.8379 62.1185C62.5721 61.4096 62.8379 61.1438 63.5171 61.0256C64.9641 60.7893 66.3816 60.4939 67.7991 60.1985C68.5964 60.0213 69.1279 60.1394 69.1279 61.1438C69.0984 62.1481 69.5414 63.3296 69.1575 64.1271C68.685 65.0724 67.3561 64.3339 66.4406 64.6293C65.9386 64.8361 65.4071 64.8951 64.7869 64.8656Z" fill="#6D41BE"/>
<path d="M56.7545 64.009C56.4887 62.798 56.9021 62.1481 58.1719 62.0891C59.1464 62.03 60.1505 61.9118 61.0364 61.5869C62.1585 61.1734 62.4243 61.7346 62.6015 62.5912C62.7787 63.3592 63.2216 64.2158 63.0149 64.8361C62.7492 65.6041 61.7156 64.9838 61.0364 65.2792C59.9733 65.7223 58.8216 65.486 57.729 65.7223C56.2229 65.9881 56.9612 64.6293 56.7545 64.009Z" fill="#6D41BE"/>
<path d="M111.238 44.2479C111.238 42.771 111.238 41.3827 111.238 39.7876C113.394 42.9777 113.158 42.9187 111.238 44.2479Z" fill="#B33B73"/>
<path d="M114.842 43.3026C114.488 44.2774 113.897 44.9272 113.011 45.3408C112.923 45.3999 112.687 45.3408 112.657 45.2817C112.598 45.134 112.509 44.8386 112.598 44.7795C113.189 44.2774 113.72 43.7457 114.134 43.0663C114.193 42.9777 114.488 42.9777 114.665 43.0368C114.724 43.0368 114.783 43.214 114.842 43.3026Z" fill="#180812"/>
<path d="M113.188 39.0492C112.834 39.1378 112.568 38.931 112.627 38.7242C112.923 37.8086 113.897 37.8676 114.576 37.4836C114.872 37.3064 115.285 37.6018 115.167 37.8381C114.783 38.6947 113.779 38.6061 113.188 39.0492Z" fill="#210C19"/>
<path d="M109.584 40.9691C109.643 40.5555 109.643 40.0238 110.293 40.142C110.558 40.2011 110.706 40.4669 110.618 40.7032C110.411 41.3531 109.968 41.1168 109.584 40.9691C109.584 40.9395 109.584 40.9691 109.584 40.9691Z" fill="#461936"/>
<path d="M157.689 19.0812C160.022 18.8744 162.355 18.7267 164.659 18.4609C166.371 18.2541 166.489 18.3132 166.548 19.9969C166.548 20.2922 166.548 20.5876 166.548 20.883C164.629 21.1784 162.71 21.4738 160.76 21.7692C160.436 21.8282 160.081 21.7987 159.727 21.8578C157.276 22.3008 156.803 21.651 157.689 19.0812Z" fill="#005CE6"/>
<path d="M158.782 27.0565C158.398 27.027 157.778 27.2633 157.719 26.3771C157.66 25.6091 157.926 25.1661 158.723 25.0479C161.233 24.6639 163.743 24.2799 166.224 23.8959C166.726 23.8073 167.169 23.8959 167.11 24.5162C167.05 25.107 167.582 26.0227 166.46 26.1408C163.95 26.4658 161.44 26.7611 158.782 27.0565Z" fill="#015CE6"/>
<path d="M165.751 21.5033C166.43 21.4147 166.873 21.5329 166.873 22.3895C166.873 23.1575 166.696 23.4824 165.84 23.571C163.536 23.8664 161.233 24.3095 158.93 24.6639C158.428 24.7525 157.778 24.9593 157.719 24.0731C157.66 23.3938 157.571 22.5962 158.516 22.4485C160.908 22.0941 163.33 21.8282 165.751 21.5033Z" fill="#015CE6"/>
<path d="M157.1 19.7015C157.1 22.4485 157.1 22.4486 154.354 22.6258C154.118 22.6258 153.852 22.6553 153.615 22.6553C153.054 22.6553 152.316 23.3052 151.991 22.6849C151.607 22.0055 151.46 21.1193 151.548 20.2627C151.607 19.4947 152.257 19.7606 152.7 19.6719C154.472 18.7267 156.007 18.7267 157.1 19.7015Z" fill="#015CE6"/>
<path d="M151.518 19.3765C151.016 18.2245 151.37 17.5747 152.64 17.6338C153.526 17.6633 154.383 17.4565 155.239 17.3088C156.391 17.1316 157.04 17.5156 156.804 18.7858C155.357 19.2879 153.851 19.2584 152.374 19.347C152.109 19.3765 151.813 19.3765 151.518 19.3765Z" fill="#015CE6"/>
<path d="M152.375 19.3765C153.822 18.963 155.328 18.8448 156.805 18.8153C156.893 19.1107 156.982 19.4061 157.1 19.7015C155.623 18.9335 154.147 19.6719 152.67 19.6719C152.582 19.5833 152.493 19.4947 152.375 19.3765Z" fill="#2A72EA"/>
</g>
<defs>
<clipPath id="clip0">
<rect width="117" height="151" fill="white" transform="translate(52 7)"/>
</clipPath>
</defs>
</svg>
