<svg width="24" height="24" viewBox="0 0 24 24" fill="none" xmlns="http://www.w3.org/2000/svg">
<path d="M2.39983 8.40003C2.40013 6.81488 2.92354 5.27414 3.88885 4.01682C4.85416 2.7595 6.20741 1.85587 7.73868 1.44612C9.26995 1.03638 10.8936 1.14341 12.3579 1.75061C13.8221 2.35782 15.045 3.43126 15.8369 4.80442C16.6289 6.17758 16.9455 7.77369 16.7377 9.34516C16.5299 10.9166 15.8094 12.3756 14.6878 13.4958C13.5662 14.6159 12.1064 15.3347 10.5346 15.5405C8.96291 15.7463 7.36719 15.4277 5.99503 14.634L3.18943 15.57C3.08578 15.6046 2.97464 15.6103 2.86801 15.5863C2.76139 15.5624 2.66332 15.5098 2.5844 15.4342C2.50548 15.3586 2.4487 15.2629 2.42019 15.1574C2.39168 15.052 2.39253 14.9407 2.42263 14.8356L3.27703 11.8464C2.69985 10.7895 2.39817 9.60426 2.39983 8.40003ZM7.79983 6.60003C7.6407 6.60003 7.48809 6.66324 7.37557 6.77576C7.26304 6.88829 7.19983 7.0409 7.19983 7.20003C7.19983 7.35916 7.26304 7.51177 7.37557 7.62429C7.48809 7.73681 7.6407 7.80003 7.79983 7.80003H11.3998C11.559 7.80003 11.7116 7.73681 11.8241 7.62429C11.9366 7.51177 11.9998 7.35916 11.9998 7.20003C11.9998 7.0409 11.9366 6.88829 11.8241 6.77576C11.7116 6.66324 11.559 6.60003 11.3998 6.60003H7.79983ZM10.1998 9.00003H7.79983C7.6407 9.00003 7.48809 9.06324 7.37557 9.17576C7.26304 9.28829 7.19983 9.4409 7.19983 9.60003C7.19983 9.75916 7.26304 9.91177 7.37557 10.0243C7.48809 10.1368 7.6407 10.2 7.79983 10.2H10.1998C10.359 10.2 10.5116 10.1368 10.6241 10.0243C10.7366 9.91177 10.7998 9.75916 10.7998 9.60003C10.7998 9.4409 10.7366 9.28829 10.6241 9.17576C10.5116 9.06324 10.359 9.00003 10.1998 9.00003ZM14.731 17.9364L11.8486 16.4964C12.3766 16.3488 12.8842 16.152 13.3642 15.9108L14.9998 16.7292L20.3998 14.0292V13.2C20.3998 12.8818 20.2734 12.5765 20.0484 12.3515C19.8233 12.1265 19.5181 12 19.1998 12H17.191C17.3746 11.616 17.5282 11.214 17.6518 10.8H19.1998C19.8363 10.8 20.4468 11.0529 20.8969 11.503C21.347 11.9531 21.5998 12.5635 21.5998 13.2V19.2C21.5998 19.8365 21.347 20.447 20.8969 20.8971C20.4468 21.3472 19.8363 21.6 19.1998 21.6H10.7998C10.1633 21.6 9.55286 21.3472 9.10277 20.8971C8.65269 20.447 8.39983 19.8365 8.39983 19.2V16.716C8.79223 16.7712 9.19183 16.8 9.59983 16.8V19.2C9.59983 19.5183 9.72626 19.8235 9.9513 20.0486C10.1763 20.2736 10.4816 20.4 10.7998 20.4H19.1998C19.5181 20.4 19.8233 20.2736 20.0484 20.0486C20.2734 19.8235 20.3998 19.5183 20.3998 19.2V15.3708L15.2686 17.9364C15.1852 17.9782 15.0932 18 14.9998 18C14.9065 18 14.8145 17.9782 14.731 17.9364Z" fill="black"/>
</svg>
