<svg width="531" height="655" viewBox="0 0 531 655" fill="none" xmlns="http://www.w3.org/2000/svg">
<path fill-rule="evenodd" clip-rule="evenodd" d="M257.591 102.837C298.64 114.417 319.309 157.635 355.556 180.086C396.451 205.417 453.351 203.33 482.071 241.883C515.131 286.264 540.942 348.708 518.999 399.493C497.023 450.355 428.076 455.843 378.703 481.115C338.594 501.645 302.349 527.993 257.591 533.298C208.23 539.149 157.2 536.388 113.612 512.536C66.2116 486.597 22.9182 447.557 6.78733 396.053C-9.26831 344.788 10.2554 290.921 28.3632 240.343C45.9591 191.195 64.1943 137.416 109.007 110.534C152.584 84.3942 208.668 89.0357 257.591 102.837Z" fill="#A7F0DC"/>
<g clip-path="url(#clip0)">
<path d="M334 38.7501C331.6 34.7501 339.834 13.7501 344.25 3.7501C346.433 -1.36441 404 17.0001 407 18.7501C410 20.5001 397.75 56.5001 395.5 57.7501C393.25 59.0001 384 55.2501 376.75 53.7501C369.5 52.2501 347.75 65.2501 343 64.2501C338.25 63.2501 347.75 51.7501 347.75 46.5001C347.75 41.2501 337 43.7501 334 38.7501Z" fill="#FDFFB6"/>
<path d="M75.25 76.5C56.85 78.3 47.5833 83.25 45.25 85.5L71.25 183.75C73.8333 183.25 81.65 181.6 92.25 179C105.5 175.75 137.5 167.75 137.5 165C137.5 162.8 123.333 102.917 116.25 73.25C110.25 73.5833 93.65 74.7 75.25 76.5Z" fill="white"/>
<path d="M249.001 433.312C248.823 433.312 248.556 433.312 248.377 433.49C242.94 436.429 237.948 435.271 233.135 431.709C231.085 430.194 228.678 429.215 226.45 428.057C225.113 428.057 224.221 427.166 223.152 426.632C211.653 420.219 200.154 413.628 188.566 407.215C187.408 406.592 186.249 406.146 185.001 405.968C178.494 404.988 172.076 403.741 165.569 402.673C164.588 402.495 163.519 402.316 162.538 402.227C137.223 397.863 111.819 393.588 86.5044 389.223C85.3456 389.045 84.276 388.867 83.1172 388.867C82.1367 388.6 81.0671 388.422 80.2648 387.709C78.4821 387.353 76.6993 386.908 74.5601 386.462C75.6297 385.661 76.4319 384.948 77.2342 384.325C103.619 364.196 131.786 346.828 160.845 330.795C177.602 321.621 194.449 312.715 211.475 303.986C212.277 303.541 213.079 303.096 213.792 302.561C216.823 299.622 220.567 298.464 224.667 299.087C229.926 299.8 235.274 299.533 240.533 299.711C248.466 299.978 256.4 300.156 264.333 300.334C276.366 300.602 288.4 300.691 300.433 300.691C304.088 300.691 307.653 300.245 311.219 300.067C313.626 299.978 313.893 300.067 314.874 302.294C318.439 308.974 321.915 315.654 323.966 322.958C331.631 350.212 326.283 374.706 308.545 396.616C308.099 397.24 307.653 397.863 307.119 398.486C304.979 401.515 302.305 404.009 299.542 406.324C285.369 418.438 268.968 426.721 251.408 432.777C250.695 433.223 249.893 433.579 249.001 433.312Z" fill="#FE0E11"/>
<path d="M163.608 209.308C163.341 209.041 163.162 208.595 162.895 208.595C159.954 208.506 160.756 207.17 161.736 205.567C165.569 199.421 169.58 193.543 174.215 188.021C181.792 178.936 191.151 172.256 201.848 167.357C206.661 165.22 211.653 163.26 217.09 163.26C218.338 163.26 219.408 163.616 220.656 163.794C221.369 164.685 221.725 165.754 222.082 166.823C223.687 172.434 224.221 178.223 224.934 183.924C225.826 191.138 226.361 198.442 226.985 205.656C227.163 207.616 226.985 209.575 227.43 211.535C227.609 212.692 228.143 213.316 229.391 213.227C235.096 212.96 240.801 212.96 246.506 212.514C247.664 212.425 248.734 212.336 249.893 212.425C253.547 212.603 257.113 211.98 260.678 211.98C262.194 211.98 262.996 211.089 263.62 209.931C265.224 207.259 266.383 204.32 267.631 201.47C273.158 188.733 278.06 175.73 282.963 162.815C283.23 162.102 283.408 161.301 283.587 160.588C284.121 159.608 284.389 158.54 285.191 157.738C286.974 154.888 287.509 154.71 291.074 155.511C295.888 156.669 300.434 158.629 304.89 160.677C315.409 165.576 325.659 170.92 335.197 177.511C340.991 181.519 345.626 186.685 349.637 192.474C350.172 193.276 350.529 194.255 351.42 194.701C352.133 194.701 352.222 195.235 352.311 195.681C353.737 201.114 355.342 206.547 357.036 211.891C357.125 212.336 357.214 212.692 357.125 213.138C356.857 213.939 356.055 214.207 355.342 214.385C353.916 214.028 352.935 215.008 351.866 215.632C349.994 215.364 348.211 215.988 346.428 216.433C336.445 218.749 326.462 220.887 316.478 223.291C316.3 223.291 316.211 223.202 316.122 223.202C315.498 222.846 315.409 221.421 314.517 221.866C313.537 222.312 314.071 223.559 314.25 224.36C315.052 229.081 315.587 233.89 316.122 238.611C316.211 239.234 316.211 239.858 316.033 240.481C315.854 240.927 315.587 241.283 315.141 241.55C313.893 241.372 312.645 241.105 311.397 241.372C295.442 244.578 279.308 246.983 263.352 250.368C254.439 252.238 245.703 254.376 237.057 257.226C233.937 258.295 233.402 258.028 232.155 254.821C226.271 240.392 220.299 226.052 214.327 211.624C213.079 208.684 213.079 208.595 210.049 208.773C202.828 209.13 195.697 209.842 188.477 210.288C181.346 210.733 174.215 211.535 167.084 211.802C166.461 211.802 165.302 212.069 165.48 211C166.015 209.397 164.589 209.664 163.608 209.308Z" fill="#007BFF"/>
<path d="M352.311 215.632C352.757 213.85 353.826 213.583 355.342 214.385C356.144 214.652 356.233 215.364 356.501 216.077C360.512 228.368 363.899 240.927 365.949 253.752C366.127 255.177 366.127 256.603 366.217 258.028C366.217 259.096 366.662 259.72 367.732 259.453C370.763 258.829 373.793 259.007 376.824 258.651C378.517 258.473 378.874 257.671 378.607 256.157C377.448 250.19 376.2 244.222 374.774 238.344C373.526 233 371.921 227.834 370.495 222.579C370.049 221.065 369.336 220.263 367.643 219.996C364.166 219.372 361.403 217.413 358.818 215.097C358.372 214.741 358.016 214.207 357.838 213.761C357.392 212.781 357.214 211.802 358.283 211.089C359.264 210.377 360.155 210.822 360.957 211.624C362.027 212.871 363.275 213.939 364.166 214.385C361.671 212.603 359.175 209.842 356.59 207.259C355.788 206.458 355.609 205.478 356.501 204.587C357.392 203.697 358.372 203.964 359.175 204.676C361.76 207.17 364.612 209.397 367.108 211.98C364.077 202.361 360.512 192.92 356.768 183.567C356.411 182.766 356.144 181.964 355.877 181.163C355.52 179.916 355.431 178.58 356.946 178.134C358.283 177.689 358.996 178.847 359.442 179.827C360.512 182.142 361.403 184.547 362.294 186.952C367.197 199.6 371.565 212.336 375.398 225.34C376.2 228.279 377.359 231.129 377.27 234.247C378.963 241.372 380.657 248.497 382.172 255.623C382.974 245.469 384.133 235.315 386.183 225.429C385.827 224.271 386.094 223.113 386.362 221.866C388.501 212.96 391.175 204.231 394.83 195.859C395.275 194.879 395.275 193.81 395.275 192.741C395.097 185.972 395.008 179.114 396.612 172.523C396.791 171.632 396.969 170.742 397.414 169.94C397.86 169.228 398.484 168.693 399.376 168.871C400.356 169.05 400.802 169.762 400.891 170.653C400.98 171.543 400.713 172.345 400.534 173.147C399.554 177.689 399.019 182.321 398.841 187.486C402.317 180.985 405.972 175.195 410.161 169.762C412.3 167.001 414.618 164.507 416.936 161.835C417.559 161.123 418.183 160.499 418.986 159.965C419.788 159.43 420.679 159.163 421.482 159.965C422.284 160.766 422.195 161.657 421.66 162.459C421.303 163.171 420.768 163.705 420.234 164.24C411.32 173.236 404.724 183.835 399.465 195.324C395.364 204.409 392.334 213.761 390.105 223.47C389.927 224.093 389.927 224.716 389.303 225.162C387.52 231.753 386.807 238.433 386.005 245.202C385.648 248.319 385.47 251.437 385.203 254.732C386.451 253.129 386.896 251.259 387.609 249.566C389.481 244.4 392.779 240.125 396.256 236.028C403.298 227.567 411.587 220.352 420.144 213.494C425.671 209.041 431.108 204.587 436.546 199.956C436.724 199.778 436.813 199.689 436.991 199.51C437.883 198.798 438.863 198.264 439.844 199.243C440.913 200.312 440.289 201.292 439.487 202.272C438.863 202.984 438.15 203.697 437.348 204.32C429.593 210.911 421.571 217.146 413.816 223.826C404.189 232.109 395.632 241.194 389.927 252.773C389.66 253.307 389.303 253.931 388.857 254.287C388.323 255.623 387.699 256.959 386.985 258.651C388.233 258.562 389.036 258.562 389.927 258.473C393.849 258.028 397.147 259.185 399.197 262.659C401.247 266.133 400.802 269.517 398.484 272.724C398.395 272.902 398.306 273.08 398.128 273.436C406.061 272.813 413.816 272.278 421.66 271.655C433.693 270.764 445.816 269.784 457.849 268.894C459.097 268.805 460.345 268.716 461.682 268.538C462.663 268.448 463.822 268.359 464 269.695C464.178 271.031 463.108 271.299 462.039 271.388C458.206 271.655 454.373 272.011 450.629 272.278C438.507 273.169 426.295 274.149 414.172 275.039C402.317 275.93 390.462 276.821 378.607 277.801C366.573 278.691 354.45 279.671 342.417 280.562C333.86 281.185 325.303 281.898 316.745 282.61C315.765 283.323 314.695 283.501 313.537 283.59C302.573 284.302 291.698 285.282 280.734 286.084C270.572 286.796 260.411 287.598 250.249 288.4C238.305 289.29 226.361 290.092 214.505 291.161C212.812 291.339 211.207 290.359 209.514 290.982C200.511 291.606 191.419 292.229 182.416 292.942C170.382 293.833 158.26 294.812 146.226 295.703C132.321 296.772 118.416 297.841 104.51 298.909C92.7441 299.8 80.8888 300.691 69.1227 301.671C68.8553 301.671 68.5879 301.671 68.2314 301.671C67.2509 301.76 66.2704 301.671 66.2704 300.424C66.1812 299.088 67.2509 298.999 68.1422 298.909C70.1033 298.731 72.0643 298.553 74.1144 298.464C87.8415 297.395 101.658 296.416 115.385 295.347C116.989 295.258 118.594 295.08 120.466 294.901C118.683 290.181 116.9 285.638 115.117 281.096C107.273 260.967 99.4293 240.927 91.5853 220.798C90.5156 218.126 90.8722 217.502 93.7246 217.324C111.73 215.988 129.736 214.652 147.742 213.316C151.842 213.049 155.942 212.603 160.043 212.425C162.093 212.336 163.43 211.713 163.786 209.575C164.856 208.595 165.836 209.486 166.995 209.575C166.639 210.288 166.371 210.911 165.926 211.891C169.224 211.624 172.343 211.445 175.463 211.178C187.408 210.288 199.352 209.486 211.207 208.417C213.168 208.239 213.97 208.773 214.684 210.466C220.923 225.696 227.163 240.838 233.402 256.068C233.848 257.137 234.026 258.028 235.72 257.404C250.338 252.505 265.313 249.477 280.378 246.716C290.985 244.757 301.503 242.797 312.11 240.838C313.269 240.66 314.695 240.036 315.408 241.639C316.032 242.886 315.052 243.242 314.25 243.688C313.269 244.222 312.199 244.311 311.219 244.489C296.957 247.25 282.606 249.566 268.344 252.416C258.539 254.376 248.823 256.692 239.285 259.72C236.166 260.7 236.076 260.878 237.324 263.817C239.018 267.825 240.712 271.922 242.316 276.019C242.94 277.533 243.742 278.068 245.347 277.801C252.834 276.643 260.411 276.197 267.988 275.752C275.742 275.307 283.497 275.218 291.341 274.861C307.119 274.149 322.896 274.861 338.673 274.505C345.448 274.327 352.222 274.06 358.996 273.436C360.601 273.258 361.225 272.813 360.69 271.031C359.977 268.627 360.244 266.222 361.403 263.995C362.473 262.125 362.473 260.254 362.294 258.295C361.314 244.222 356.59 231.04 352.846 217.68C352.579 217.057 352.222 216.433 352.311 215.632Z" fill="black"/>
<path d="M162.895 401.782C163.875 401.693 164.856 401.96 165.747 402.227C166.46 402.94 166.371 403.92 166.371 404.81C166.193 414.608 166.817 424.316 167.352 434.024C167.887 443.465 168.511 452.907 169.224 462.348C169.937 472.056 170.739 481.764 171.541 491.562C172.522 503.408 173.591 515.254 174.75 527.1C175.374 533.601 175.998 540.014 176.622 546.516C176.889 549.188 177.068 549.188 179.742 549.366C187.764 549.901 195.876 549.723 203.987 549.812C204.611 549.812 205.235 549.901 205.859 549.901C208.533 550.168 208.622 550.168 209.246 547.407C213.614 527.901 217.358 508.306 219.854 488.533C221.636 474.55 221.458 460.388 221.191 446.316C221.101 441.328 220.745 436.251 220.121 431.263C219.675 427.879 220.656 426.543 223.597 426.186C224.667 426.543 225.647 427.166 226.628 427.879C223.419 429.571 223.508 429.571 223.776 433.134C225.647 454.866 225.38 476.509 222.082 498.153C219.497 515.165 216.199 532.087 212.544 548.921C212.366 549.723 211.475 550.88 213.436 550.88C214.149 550.88 213.881 551.682 213.792 552.038C212.633 560.589 211.564 569.139 210.405 577.69C209.424 578.58 208.087 578.669 206.84 579.026C202.115 580.54 197.48 582.321 192.845 584.013C190.349 584.904 190.26 584.815 189.725 582.143C189.28 579.649 188.656 577.155 187.408 574.929C185.625 571.722 183.129 570.386 179.474 571.01C176.355 571.544 173.859 573.147 171.898 575.641C171.185 576.532 170.739 577.779 169.313 577.957C170.115 569.139 170.828 560.322 171.63 551.504C171.72 550.791 171.363 549.723 172.789 549.812C173.77 549.812 173.324 549.01 173.235 548.476C172.522 540.727 171.72 532.978 171.006 525.229C169.937 513.294 168.778 501.27 167.797 489.246C166.639 475.352 165.569 461.457 164.589 447.563C163.965 438.211 163.519 428.948 163.073 419.595C163.073 418.972 163.073 418.349 163.073 417.814C162.36 417.458 162.004 417.903 161.558 418.081C154.605 421.644 147.563 425.207 140.611 428.68C139.541 429.215 139.274 429.838 139.363 430.996C141.769 456.558 140.967 482.032 136.421 507.327C133.925 521.132 131.34 534.937 128.31 548.743C128.131 549.544 127.24 550.791 129.29 550.791C130.092 550.791 129.558 551.771 129.469 552.216C128.577 559.609 127.597 566.913 126.705 574.305C126.527 575.463 126.438 576.532 126.26 577.69C125.19 578.491 123.853 578.58 122.694 578.937C118.059 580.451 113.424 582.054 108.878 583.835C106.471 584.815 105.847 584.459 105.491 581.876C105.223 580.005 104.778 578.313 104.064 576.532C101.747 570.653 96.577 568.961 91.1396 572.346C89.5351 573.414 88.1981 574.75 87.0393 576.354C86.5936 576.977 86.2371 577.868 85.1674 577.868C85.7914 570.208 86.4153 562.548 87.0393 554.799C87.1284 553.642 87.2176 552.573 87.3067 551.415C87.3958 550.613 87.2176 549.723 88.5546 549.634C89.5351 549.544 89.0003 548.565 88.9112 548.119C88.2872 541.35 87.6632 534.581 87.0393 527.812C85.9696 515.877 84.8109 504.031 83.8304 492.096C82.6716 478.469 81.6019 464.842 80.6214 451.303C79.3735 433.134 78.2147 415.053 78.7495 396.794C78.8387 393.588 79.1061 390.471 79.9975 387.353C80.978 387.353 81.9585 387.353 82.7607 387.888C83.1173 388.6 82.939 389.224 82.8499 389.936C82.1368 395.725 81.6019 401.515 81.8693 407.304C82.315 416.122 82.315 424.94 82.939 433.757C83.4738 441.417 83.9195 449.166 84.3652 456.826C84.7217 462.882 85.2565 468.939 85.7022 474.995C86.3262 482.922 86.9502 490.76 87.6633 498.687C88.4655 507.327 89.1786 516.055 89.9808 524.695C90.6048 531.464 91.2287 538.233 91.8527 545.002C91.9418 545.626 92.031 546.249 92.031 546.872C92.2092 548.476 93.0115 548.921 94.5268 549.01C100.232 549.544 106.025 549.366 111.73 549.366C114.939 549.366 118.059 549.634 121.268 549.812C123.764 549.901 124.031 549.634 124.566 547.229C127.597 533.512 130.36 519.796 132.588 505.991C133.836 497.975 135.084 489.869 135.797 481.764C136.065 479.271 136.243 476.777 136.332 474.372C136.51 467.87 137.223 461.368 136.778 454.866C136.332 446.761 136.243 438.567 135.352 430.551C135.084 427.879 135.352 427.077 137.847 425.83C144.8 422.357 151.753 418.883 158.795 415.409C161.825 413.895 161.825 413.895 161.558 410.6C161.38 408.195 161.469 405.79 161.558 403.385C162.182 403.029 162.182 402.227 162.895 401.782Z" fill="black"/>
<path d="M169.313 578.135C170.026 577.244 170.828 576.265 171.541 575.374C173.859 572.613 176.622 570.742 180.366 570.475C183.486 570.208 185.803 571.544 187.497 574.127C189.19 576.799 189.993 579.827 190.349 582.945C190.527 584.548 191.062 584.37 192.132 583.924C197.124 581.965 202.115 580.005 207.285 578.491C208.266 578.224 209.335 578.046 210.405 577.868C211.118 588.378 210.583 598.977 210.405 609.487C210.405 610.288 210.227 610.734 209.335 610.912C208.622 611.001 207.909 611.624 207.285 611.981C189.547 622.758 171.72 633.357 152.912 642.085C152.109 642.442 151.218 642.798 150.416 643.243C149.435 643.688 148.811 644.312 149.346 645.381C149.792 646.36 150.683 646.271 151.575 645.826C154.605 644.401 157.636 643.065 160.577 641.551C176.979 633.357 192.756 624.094 208.444 614.563C208.89 614.296 209.246 614.118 210.048 613.584C210.048 617.503 209.959 621.065 208.711 624.539C208.355 625.697 207.196 626.142 206.037 626.499C203.809 627.122 201.491 627.745 199.263 628.102C196.411 628.636 194.36 630.061 193.291 632.644C191.775 636.563 189.101 637.988 185.001 637.543C181.079 637.097 178.405 638.879 176.8 642.441C175.018 646.45 171.363 647.696 167.53 647.607C162.895 647.429 159.508 648.943 156.121 651.972C150.594 656.87 140.432 655.267 136.154 649.3C134.015 646.271 133.836 642.976 134.906 639.591C136.065 635.851 138.026 632.555 140.789 629.883C151.218 619.551 157.636 606.904 162.895 593.544C164.856 588.378 167.084 583.301 169.313 578.135Z" fill="#020A13"/>
<path d="M85.3457 578.224C86.5936 576.799 87.485 575.107 88.9112 573.86C90.6939 572.257 92.655 571.188 95.0617 570.653C98.538 569.941 101.301 571.099 103.262 574.038C104.956 576.621 105.847 579.56 106.115 582.588C106.293 584.37 106.828 584.459 108.343 583.835C113.335 581.876 118.326 579.916 123.496 578.402C124.388 578.135 125.368 577.69 126.349 577.957C126.705 588.467 126.705 599.066 126.17 609.576C126.17 610.021 126.26 610.466 125.636 610.823C117.702 614.92 110.215 619.908 102.46 624.361C90.7831 630.952 79.017 637.543 66.7161 643.065C65.7356 643.51 64.4877 643.956 65.2007 645.292C65.8247 646.717 66.9835 646.004 67.964 645.648C84.4544 638.166 100.053 629.171 115.563 619.908C119.04 617.859 122.427 615.81 126.17 613.495C125.814 617.236 125.814 620.531 125.012 623.827C124.655 625.43 123.407 626.142 122.07 626.499C119.931 627.122 117.702 627.656 115.474 628.102C112.533 628.636 110.304 630.061 109.234 632.911C107.808 636.652 105.223 637.988 101.301 637.632C97.3792 637.187 94.5268 638.79 92.8332 642.531C91.0505 646.45 87.3959 647.786 83.563 647.697C79.1061 647.607 75.6298 648.943 72.2426 651.972C66.7161 656.87 56.911 655.624 52.365 649.745C49.9583 646.717 49.8692 643.243 50.8497 639.68C51.9193 635.94 53.9695 632.644 56.6436 629.972C66.8944 619.729 73.4014 607.26 78.5713 593.989C80.7106 588.645 82.7607 583.301 85.3457 578.224Z" fill="#020A13"/>
<path d="M249.001 433.312C258.717 429.927 268.166 426.097 277.169 421.199C287.865 415.32 297.67 408.462 306.138 399.555C306.495 399.199 306.851 398.932 307.297 398.576C318.528 400.09 329.314 402.851 339.208 408.551C342.685 410.6 345.893 413.004 348.389 416.3C353.114 422.446 352.757 429.126 347.231 434.648C342.15 439.725 335.732 442.308 329.047 444.267C315.409 448.186 301.414 448.542 287.42 447.028C276.991 445.87 267.007 443.465 257.559 438.834C254.528 437.231 251.497 435.628 249.001 433.312Z" fill="black"/>
<path d="M291.342 582.41C284.032 582.321 274.049 580.807 264.779 576.443C261.926 575.107 259.252 573.325 257.024 571.01C252.478 566.289 252.656 560.945 257.737 556.67C262.016 553.018 267.186 551.415 272.534 550.168C277.704 549.01 283.052 548.565 288.311 548.654C289.559 548.654 290.005 548.476 290.094 547.14C290.985 534.759 291.966 522.29 292.946 509.91C294.016 496.015 295.085 482.121 296.155 468.226C296.512 463.684 296.868 459.23 297.136 454.688C297.225 453.886 297.225 453.174 297.314 452.372C297.403 451.392 297.76 450.502 299.007 450.591C300.166 450.68 300.255 451.571 300.166 452.55C299.988 454.688 299.899 456.826 299.721 458.874C298.384 476.331 296.957 493.878 295.62 511.335C294.729 523.27 293.838 535.205 292.857 547.14C292.768 548.476 293.035 548.921 294.461 549.01C303.197 549.812 311.665 551.593 319.331 556.046C321.916 557.561 324.322 559.342 326.016 561.836C328.69 565.666 328.423 569.674 325.392 573.058C322.183 576.621 317.815 578.491 313.359 579.827C307.119 581.698 300.701 582.41 291.342 582.41Z" fill="black"/>
<path d="M389.303 225.073C390.551 217.502 392.869 210.198 395.543 203.073C401.248 188.021 409.181 174.393 420.59 162.815C420.769 162.637 420.858 162.548 421.036 162.369C421.66 161.657 422.106 160.766 421.214 159.965C420.323 159.252 419.61 159.786 418.986 160.41C416.133 163.26 413.459 166.288 410.964 169.495C406.239 175.462 402.317 181.875 398.573 189C398.039 185.349 398.573 182.142 398.93 179.025C399.197 176.531 399.821 174.037 400.356 171.543C400.535 170.475 400.713 169.406 399.465 169.138C398.128 168.871 397.86 169.94 397.593 170.92C395.81 178.312 395.186 185.705 396.078 193.276C396.256 194.434 395.721 195.324 395.365 196.304C391.532 205.122 388.768 214.385 386.629 223.737C386.54 224.271 386.451 224.805 386.362 225.34C383.598 221.866 381.192 218.304 380.122 213.939C378.072 205.656 379.409 197.64 382.083 189.713C382.618 188.11 383.42 186.596 383.866 184.992C384.936 180.895 387.877 178.936 391.799 178.401C393.493 178.134 393.76 177.511 393.404 176.086C391.977 171.009 393.404 166.823 396.969 163.171C398.484 161.568 399.911 159.876 401.158 158.094C404.1 154.086 408.111 152.75 412.835 152.928C414.262 153.017 414.975 152.572 415.51 151.236C416.223 149.544 417.292 148.03 418.094 146.337C420.858 140.904 426.028 140.281 430.752 140.815C434.763 141.26 438.15 145.268 439.22 150.078C440.111 154.264 439.042 158.094 437.348 161.835C434.228 168.515 429.326 173.948 424.156 179.203C419.253 184.191 414.172 189.09 409.181 193.988C405.883 197.284 403.298 201.025 401.337 205.211C399.197 210.02 397.147 214.919 394.384 219.461C393.047 221.777 391.888 224.004 389.303 225.073Z" fill="#00B1B1"/>
<path d="M388.858 254.198C392.245 245.914 397.682 238.967 403.833 232.554C412.211 223.826 421.838 216.522 431.109 208.862C433.872 206.547 436.635 204.231 439.398 201.826C440.111 201.203 440.468 200.401 439.844 199.6C439.131 198.709 438.329 199.065 437.616 199.689C426.028 209.931 413.37 218.838 402.496 229.882C396.702 235.761 391.799 242.352 387.699 249.477C387.164 244.489 389.214 240.214 391.353 235.939C397.058 224.716 404.902 215.097 413.638 206.101C421.303 198.263 429.593 190.96 439.398 185.794C442.072 184.369 444.925 183.211 447.955 182.766C448.936 182.588 449.916 182.499 450.897 182.588C456.78 182.766 459.632 186.685 458.028 192.385C456.423 197.907 453.036 202.539 449.56 206.992C438.953 220.352 426.384 231.842 413.192 242.619C407.665 247.161 402.05 251.526 395.721 255.088C391.977 256.959 391.977 256.959 388.858 254.198Z" fill="#00B1B1"/>
<path d="M209.425 290.804C213.971 290.448 218.428 290.003 222.974 289.646C239.018 288.4 255.152 287.153 271.197 285.906C284.924 284.837 298.74 283.857 312.467 282.788C313.893 282.699 315.32 282.61 316.657 282.521C316.122 288.31 315.587 294.189 314.963 299.978C314.874 300.78 314.874 301.671 314.874 302.472C314.072 300.869 312.913 300.691 311.13 300.869C305.96 301.403 300.79 301.492 295.62 301.492C271.999 301.492 248.289 300.869 224.667 299.889C221.458 299.711 218.517 300.067 215.754 301.849C215.13 302.294 214.506 302.739 213.614 302.739C212.812 299.889 212.723 296.95 212.455 294.011C212.455 291.606 211.742 290.537 209.425 290.804Z" fill="#007BFF"/>
<path d="M377.27 234.158C372.456 215.899 366.217 198.085 359.175 180.628C358.997 180.094 358.818 179.559 358.462 179.114C358.105 178.58 357.571 178.223 356.857 178.58C356.234 178.936 355.877 179.47 356.055 180.094C356.234 180.895 356.59 181.697 356.947 182.499C360.958 192.652 364.791 202.806 367.821 213.405C365.326 211.089 362.919 208.773 360.423 206.458C359.888 206.012 359.442 205.478 358.908 205.033C358.195 204.409 357.392 204.053 356.679 204.944C355.877 205.834 356.412 206.547 357.036 207.17C359.621 209.664 362.295 212.158 364.969 214.563C365.236 214.83 365.593 215.097 365.86 215.543C363.899 214.83 362.117 213.761 360.78 212.069C360.156 211.267 359.442 210.644 358.462 211.445C357.571 212.247 357.927 213.138 358.64 213.85C361.493 216.879 364.791 219.105 368.98 219.551C370.05 219.64 370.406 220.085 370.674 220.976C372.278 226.587 373.972 232.198 375.309 237.898C374.507 239.502 373.17 239.323 371.833 238.7C369.871 237.898 368.445 236.295 367.287 234.692C362.741 228.635 359.799 221.688 357.214 214.652C357.125 214.296 357.125 213.939 357.214 213.583C355.699 208.061 353.649 202.717 352.401 197.106C352.222 196.393 351.955 195.681 351.777 194.879C351.064 189.891 349.905 184.903 349.905 179.738C349.905 176.709 349.905 173.681 350.885 170.742C352.222 166.556 354.272 165.754 358.284 167.624C360.066 168.515 361.403 169.762 362.651 171.276C364.523 173.681 366.039 176.353 367.287 179.114C368.445 181.608 367.554 184.191 367.287 186.685C367.197 187.754 367.287 188.377 368.267 188.911C370.941 190.247 372.456 192.385 373.259 195.413C375.755 204.765 377.894 214.207 378.25 224.004C378.25 227.299 378.072 230.773 377.27 234.158Z" fill="#00B1B1"/>
<path d="M188.567 403.385C187.764 403.385 187.319 403.029 187.051 402.495C186.784 402.049 186.873 401.515 187.319 401.159C187.675 400.802 188.121 400.535 188.567 400.357C200.957 393.588 213.347 386.73 225.737 379.961C226.004 379.782 226.272 379.693 226.45 379.604C227.341 379.07 228.411 378.625 229.035 379.871C229.659 381.029 228.678 381.653 227.787 382.098C215.219 388.956 202.739 395.815 190.26 402.673C189.636 402.94 189.012 403.118 188.567 403.385Z" fill="#010000"/>
<path d="M293.302 344.512C292.946 347.807 291.876 351.548 290.807 355.111C289.915 358.05 288.846 360.989 287.865 363.928C287.509 364.997 287.063 366.066 285.726 365.532C284.478 365.086 284.924 364.017 285.191 363.038C287.063 357.605 288.935 352.261 290.094 346.649C290.272 345.67 290.361 344.69 290.45 343.71C290.539 342.73 290.717 341.751 291.965 341.84C293.302 341.929 293.302 342.998 293.302 344.512Z" fill="#020000"/>
<path d="M316.656 223.38C317.548 230.328 318.528 237.186 319.063 244.222C319.152 245.38 319.241 246.627 319.241 247.785C319.331 248.765 318.885 249.566 317.904 249.566C316.835 249.655 316.478 248.854 316.389 247.874C316.3 245.469 316.3 243.064 315.765 240.749C315.409 235.226 314.606 229.704 313.804 224.271C313.626 223.113 312.645 221.51 314.517 220.976C316.389 220.441 316.033 222.49 316.656 223.38Z" fill="#020202"/>
<path d="M94.1704 219.818C99.5186 219.373 104.599 219.016 109.68 218.66C126.171 217.413 142.75 216.166 159.24 214.919C173.413 213.85 187.675 212.871 201.848 211.802C204.611 211.624 207.374 211.446 210.138 211.089C211.296 211 211.92 211.089 212.366 212.336C221.993 235.939 231.709 259.453 241.425 283.056C242.049 284.481 241.781 284.837 240.266 284.926C221.102 286.173 201.937 287.509 182.773 288.845C163.519 290.181 144.355 291.606 125.101 292.942C124.031 293.031 122.873 293.565 122.159 291.873C112.978 267.914 103.619 244.044 94.1704 219.818Z" fill="#FEFEFE"/>
<path d="M333.147 278.424C323.074 279.226 313.002 279.938 302.929 280.74C289.024 281.809 275.119 282.877 261.213 283.946C256.489 284.302 251.765 284.659 247.04 285.015C245.614 285.104 243.921 283.501 244.099 282.076C244.188 281.096 245.169 281.363 245.793 281.274C249.536 280.74 253.369 280.294 257.202 279.938C281.626 277.979 306.138 278.068 330.651 278.157C331.453 278.157 332.345 278.246 333.147 278.246C333.147 278.246 333.147 278.335 333.147 278.424Z" fill="#FFB703"/>
<path d="M245.971 207.526C245.882 208.773 245.793 210.02 245.703 211.356C245.614 212.336 245.258 212.692 244.188 212.692C243.118 212.692 242.851 212.069 242.851 211.178C242.851 209.931 243.029 208.684 243.118 207.348C243.118 206.28 243.297 205.211 244.545 205.211C245.971 205.211 246.06 206.458 245.971 207.526Z" fill="#060606"/>
<path d="M227.252 276.821C227.252 277.444 226.984 277.979 226.45 278.157C225.826 278.424 225.202 278.335 224.756 277.711C224.399 277.177 224.221 276.554 223.954 276.019C217.179 259.185 210.316 242.263 203.631 225.34C203.096 224.093 202.561 223.648 201.224 223.826C181.079 225.34 161.023 226.854 140.878 228.368C130.449 229.17 119.931 229.882 109.502 230.595C109.145 230.595 108.789 230.595 108.432 230.684C107.452 230.773 106.649 230.417 106.649 229.348C106.649 228.368 107.273 228.012 108.165 227.923C110.661 227.745 113.067 227.478 115.563 227.299C130.003 226.231 144.354 225.251 158.795 224.182C173.235 223.113 187.764 222.044 202.204 220.887C203.898 220.708 204.968 221.065 205.681 222.757C212.722 240.303 219.764 257.849 226.806 275.396C226.984 275.841 227.163 276.286 227.252 276.821Z" fill="black"/>
<path d="M296.957 126.03C298.472 115.876 296.957 106.524 290.183 98.3302C286.261 93.6097 283.765 87.9094 280.912 82.2981C284.032 81.7637 286.528 80.4277 288.4 78.0229C291.341 74.2821 292.678 70.0069 292.322 65.3754C292.054 60.922 290.361 57.0921 286.082 54.9545C278.327 51.0356 267.72 55.0436 264.511 63.0596C264.065 64.1284 263.709 64.4847 262.55 64.3956C259.698 64.1284 256.845 64.7519 254.26 65.9989C252.478 66.8005 250.695 66.9786 248.734 66.8895C241.781 66.6223 235.274 68.3146 229.48 72.2336C222.26 77.0432 221.547 83.5451 227.341 89.9579C227.965 90.6705 228.143 91.2939 228.143 92.1846C227.965 97.5286 227.787 102.784 227.608 108.128C227.608 109.018 227.43 109.642 226.628 110.265C224.489 112.047 223.865 114.184 224.845 116.678C225.291 117.836 225.38 118.816 225.113 119.885C223.419 127.722 223.597 135.649 225.113 143.487C225.38 144.734 225.737 145.358 227.163 145.18C229.124 144.912 231.085 144.823 233.135 144.734C234.65 144.645 237.324 146.605 236.879 147.495C235.452 151.147 234.472 155.066 231.174 157.738C227.965 160.321 224.399 162.28 220.567 163.884C220.299 164.952 221.28 165.665 221.369 166.645C221.814 167.001 222.349 166.823 222.795 166.645C229.748 163.438 236.344 159.787 238.929 151.771C239.998 148.564 239.731 148.92 242.851 149.722C243.564 149.9 244.366 150.078 245.168 150.167C252.478 151.236 262.639 148.119 266.294 138.5C267.096 136.362 267.809 134.046 267.096 131.82C267.185 131.909 267.185 131.998 267.274 132.087C268.79 139.836 271.731 147.139 274.762 154.354C276.366 158.183 279.843 159.965 283.943 160.588C285.28 160.143 285.102 158.985 285.28 157.916C284.3 157.471 283.319 157.115 282.339 156.669C280.645 155.868 278.684 155.155 277.882 153.285C276.545 149.989 275.297 146.605 273.96 142.953C281.536 142.597 288.846 142.508 296.333 142.953C295.442 140.993 295.353 139.123 295.442 137.164C295.62 133.423 296.422 129.682 296.957 126.03ZM267.096 118.459C266.383 119.35 265.492 119.795 264.333 119.261C263.352 118.816 262.372 118.459 261.837 119.795C261.391 121.042 262.372 121.577 263.352 121.933C264.155 122.2 264.689 122.378 264.689 123.447C264.422 126.654 264.511 129.949 264.155 133.156C263.263 140.37 258.896 145.001 251.675 146.605C242.762 148.564 233.759 143.22 231.887 134.937C231.441 132.977 231.263 131.018 231.085 129.058C230.193 117.123 230.372 105.188 230.996 92.9862C237.324 97.1724 243.92 99.6662 250.784 101.715C255.597 103.14 259.787 105.812 264.155 108.039C265.224 108.573 265.224 110.622 264.155 111.245C263.352 111.69 262.55 112.047 262.996 113.115C263.352 114.095 264.155 114.184 265.135 113.917C266.205 113.65 267.096 114.095 267.631 114.986C268.166 116.322 267.898 117.48 267.096 118.459Z" fill="black"/>
<path d="M240.533 118.548C240.177 118.548 239.82 118.727 239.464 118.727C238.038 118.994 237.592 118.37 238.038 117.123C238.572 115.52 239.464 114.095 240.444 112.67C240.979 111.868 241.336 110.978 240.266 110.265C239.286 109.642 238.662 110.265 238.127 110.978C236.879 112.848 235.72 114.719 235.185 117.034C234.561 119.795 235.987 121.666 238.84 121.577C239.464 121.488 240.177 121.488 240.89 121.31C241.692 121.131 242.316 120.597 242.138 119.617C242.138 118.727 241.425 118.37 240.533 118.548Z" fill="#020202"/>
<path d="M233.224 108.038C232.333 108.128 231.976 108.662 232.066 109.464C232.066 110.354 232.511 110.978 233.492 110.889C234.294 110.8 234.561 110.176 234.65 109.285C234.383 108.662 234.116 108.038 233.224 108.038Z" fill="#0C0C0C"/>
<path d="M246.417 108.484C245.614 108.484 245.258 109.107 245.258 109.909C245.258 110.71 245.703 111.156 246.595 111.334C247.308 111.245 247.843 110.8 247.843 109.998C247.754 109.107 247.308 108.484 246.417 108.484Z" fill="#0A0A0A"/>
<path d="M343.22 1.06872C340.991 8.37223 338.317 15.4976 335.999 22.712C334.395 27.6107 330.919 34.8252 332.345 39.9911C333.504 43.91 342.774 44.6226 345.983 45.3351C350.083 46.1367 343.665 59.8531 343.309 62.9704C343.309 63.1485 343.398 63.1485 343.576 63.1485C346.25 62.8813 348.479 62.0797 350.796 60.8328C355.164 58.6061 359.799 57.092 364.612 56.1122C369.248 55.2216 373.259 52.7277 378.161 53.7074C381.014 54.3309 383.777 55.3997 386.451 56.4685C389.125 57.4482 393.76 60.0312 396.613 58.2498C397.593 57.6264 397.861 57.0029 398.039 55.9341C398.752 52.4605 399.732 49.165 400.891 45.8695C403.209 39.0113 405.437 32.0641 407.398 25.0278C407.844 23.4246 410.429 19.7728 408.022 18.3478C405.348 16.6555 401.961 16.2101 398.841 15.4085C380.835 10.9552 363.097 5.34395 345.27 0.0889819C344.646 -0.0891524 343.13 1.24686 343.576 1.42499C354.718 4.72048 365.86 8.10503 377.002 11.3114C382.529 12.9147 388.145 14.4288 393.76 15.8539C396.256 16.4773 398.841 17.1008 401.337 17.7243C404.189 18.5259 408.29 19.0603 406.329 23.1574C404.189 27.6998 403.654 32.9548 401.872 37.5863C400.356 41.5943 399.019 45.6914 397.771 49.7885C397.147 51.7479 396.702 53.7965 396.256 55.845C395.81 58.0717 394.83 57.2701 392.869 56.7357C389.303 55.756 385.827 54.2418 382.351 53.084C379.142 52.0151 375.933 51.3917 372.635 52.5495C367.287 54.509 361.76 55.3997 356.412 57.3592C354.54 58.0717 352.668 58.8733 350.885 59.764C349.192 60.8328 347.409 61.1 345.359 60.7437C345.537 58.9624 346.339 57.2701 346.874 55.5778C347.944 52.3714 350.172 48.4525 349.281 44.9788C348.835 43.1975 342.417 42.6631 340.991 42.3068C338.674 41.7724 336.267 41.238 334.573 39.3676C333.058 37.7644 334.217 34.2908 334.662 32.5094C337.336 21.376 341.793 10.8661 345.091 -0.0891524C345.27 -0.267287 343.398 0.445251 343.22 1.06872Z" fill="#020A13"/>
<path d="M392.69 20.0401C392.067 22.2668 391.353 24.4935 390.551 26.6311C390.106 27.9671 390.373 28.6796 391.71 29.3031C393.225 29.9266 394.919 30.1938 396.523 30.55C397.95 30.8172 399.287 31.7079 400.802 31.1735C402.05 30.7282 402.317 29.7484 402.585 28.5905C403.03 26.8983 403.565 25.206 404.011 23.5137C404.367 22.1777 403.03 21.3761 401.961 21.0198C399.732 20.2182 397.236 19.6838 395.008 18.9713C394.295 18.7932 392.423 19.6838 393.582 20.0401C395.186 20.4854 396.702 21.0198 398.306 21.4652C399.554 21.8214 401.337 21.9105 401.782 23.3356C402.05 24.1372 400.98 25.7404 400.802 26.542C400.535 27.6108 400.445 28.6796 400.089 29.6594C399.911 30.1938 398.039 29.3922 397.415 29.3031C396.256 29.0359 395.186 28.8577 394.028 28.5015C392.067 27.878 392.601 26.6311 393.136 25.1169C393.76 23.4247 394.206 21.6433 394.741 19.862C395.097 19.1494 392.958 19.2385 392.69 20.0401Z" fill="#020A13"/>
<path d="M346.25 7.03624C348.389 8.55038 351.063 9.08478 353.559 9.70825C357.214 10.688 360.779 12.2912 364.345 13.36C364.88 13.5381 366.128 12.2021 366.217 12.2912C362.919 11.2224 359.621 9.88639 356.322 8.90665C353.559 8.10504 350.618 7.74878 348.211 6.0565C347.765 5.70023 346.339 7.03624 346.25 7.03624Z" fill="#020A13"/>
<path d="M347.23 10.0645C352.935 12.1131 358.729 13.4491 364.345 15.6758C364.612 15.7648 363.364 14.5179 362.919 14.3397C357.303 12.1131 351.42 10.7771 345.804 8.72852C345.537 8.72852 346.785 9.97546 347.23 10.0645Z" fill="#020A13"/>
<path d="M345.091 12.7366C349.013 13.8945 352.935 14.8742 356.768 16.0321C357.303 16.2102 355.966 14.6961 355.52 14.607C351.598 13.4491 347.676 12.4694 343.843 11.3115C343.308 11.1334 344.645 12.5585 345.091 12.7366Z" fill="#020A13"/>
<path d="M354.094 24.4044C359.442 25.206 364.612 26.3639 369.961 27.3436C375.576 28.3233 381.37 31.3516 386.629 33.4002C387.966 33.9346 388.055 31.797 386.986 31.4407C381.905 29.4812 376.646 26.9873 371.298 25.6513C365.682 24.2263 359.71 23.1574 353.916 22.3558C352.668 22.0886 353.025 24.2263 354.094 24.4044Z" fill="#020A13"/>
<path d="M353.47 27.3436C355.788 29.3031 358.997 29.8375 361.938 30.2828C364.256 30.6391 366.484 30.9954 368.802 31.7079C371.832 32.6876 375.13 32.7767 377.983 33.8455C379.231 34.2908 378.428 32.3314 377.626 32.0642C375.576 31.2626 373.704 31.2626 371.476 30.8172C369.069 30.3719 366.841 29.3031 364.434 28.8577C361.047 28.3233 356.679 28.3233 353.916 26.0076C352.935 25.0279 352.579 26.6311 353.47 27.3436Z" fill="#020A13"/>
<path d="M352.133 30.7282C358.105 32.4205 364.077 33.7565 370.05 35.4488C370.674 35.6269 372.367 34.2018 371.387 33.9346C365.415 32.2424 359.442 30.9064 353.47 29.2141C352.757 29.036 351.153 30.461 352.133 30.7282Z" fill="#020A13"/>
<path d="M407.665 28.4123C419.253 32.2422 431.287 34.8252 442.964 38.2988C444.835 38.8332 446.796 39.2785 448.668 39.8129C449.827 40.0801 453.482 40.8817 452.858 42.9303C452.412 44.2663 451.877 45.6023 451.432 46.9383C449.56 52.5495 447.599 58.1608 445.994 63.9501C444.657 68.6707 443.855 73.3913 443.409 78.2009C443.053 81.4073 440.022 79.715 438.239 79.0025C435.565 77.9337 432.713 77.1321 429.86 76.2414C426.295 75.1726 424.869 74.9054 423.799 78.5572C422.284 83.634 420.055 88.3545 419.431 93.6986C419.788 93.6095 420.055 93.5204 420.412 93.4314C418.54 92.3626 417.47 89.3343 416.401 87.5529C414.796 84.8809 413.37 82.1198 411.587 79.5369C409.894 77.043 408.022 74.7273 406.239 72.2334C405.348 70.8974 404.813 69.7395 403.476 68.7598C401.961 67.691 399.643 67.3347 397.86 66.8894C394.919 65.9987 391.888 65.108 388.947 64.2173C386.807 63.5048 384.668 62.9704 382.44 62.436C379.052 61.6344 380.657 59.3186 381.637 57.092C381.994 56.2904 380.389 54.7762 379.944 55.6669C378.785 58.0717 377.18 61.0109 379.676 63.0595C381.013 64.1283 383.063 64.3955 384.668 64.7517C388.233 65.5533 391.71 66.8894 395.275 67.9582C398.752 69.027 402.763 69.3832 404.813 72.7678C406.863 76.2414 409.626 79.1806 411.855 82.4761C414.261 86.2169 416.133 92.8079 420.234 95.1237C420.59 95.3018 421.125 95.3909 421.214 94.8565C421.927 88.978 424.512 83.9012 426.028 78.2009C426.741 75.4398 440.111 82.298 442.518 82.298C445.281 82.298 445.192 79.715 445.37 77.3993C445.905 70.0958 448.401 63.0595 450.629 56.2013C451.61 53.173 452.68 50.1447 453.66 47.1165C454.106 45.6023 455.175 43.9991 454.819 42.3959C454.284 39.4567 449.471 38.566 447.242 38.0316C440.913 36.5175 434.674 34.4689 428.434 32.5985C421.482 30.55 414.261 29.214 407.398 26.8982C406.061 26.1857 406.863 28.1451 407.665 28.4123Z" fill="#020A13"/>
<path d="M402.852 39.1896C406.418 43.8211 411.677 47.1166 414.975 51.9262C417.114 54.9545 417.916 55.7561 421.66 54.7763C432.802 51.8371 443.053 46.0478 454.017 42.6632C455.265 42.3069 454.106 40.4365 453.125 40.7928C444.212 43.5539 435.387 47.4728 426.652 50.9465C424.334 51.8371 421.838 52.6387 419.432 53.2622C417.292 53.7966 416.134 50.6793 414.975 49.3433C411.677 45.5134 407.398 42.5741 404.278 38.4771C403.565 37.4973 401.961 38.0317 402.852 39.1896Z" fill="#020A13"/>
<path d="M419.432 54.0637C423.799 57.8045 427.097 62.9704 430.574 67.5128C434.139 72.1443 437.794 77.1321 441.805 81.4073C442.251 81.9417 444.301 81.3182 443.944 80.8729C439.933 76.5977 436.368 71.6099 432.713 66.9784C429.148 62.436 426.028 57.2701 421.571 53.5293C421.036 53.0839 419.075 53.7074 419.432 54.0637Z" fill="#020A13"/>
<path d="M413.548 49.2542C410.696 50.323 407.576 50.6793 404.635 51.659C401.782 52.6388 399.108 54.242 396.345 55.3999C395.097 55.9343 396.434 57.6265 397.504 57.1812C398.841 56.6468 400.267 56.3796 401.604 55.7561C403.03 55.1327 404.278 54.0639 405.793 53.4404C408.646 52.2825 411.766 52.1044 414.707 51.0356C415.955 50.5902 414.707 48.8089 413.548 49.2542Z" fill="#020A13"/>
<path d="M48.7994 80.873C56.3761 115.164 61.9026 149.811 71.262 183.657C71.4403 184.28 72.2425 184.814 72.8664 184.636C86.7718 181.786 100.499 178.402 114.226 175.195C119.753 173.859 125.19 172.523 130.806 171.632C133.301 171.276 136.243 170.92 137.58 168.515C139.274 165.487 137.402 160.054 136.778 157.025C135.352 149.9 133.48 142.864 131.875 135.827C128.755 122.022 125.725 108.217 122.694 94.4112C121.535 89.3344 120.822 84.3466 119.931 79.1807C119.485 76.2415 118.683 73.1242 116.009 71.5209C110.393 68.2255 100.766 71.4319 94.9724 72.5897C80.9779 75.3508 66.0029 72.5007 52.3649 77.0431C50.6713 77.5775 48.9777 78.4682 47.9081 79.9823C47.3732 80.6949 49.3343 81.8527 49.7799 81.1402C52.8997 76.5087 62.8831 76.6868 67.6965 76.3306C74.1144 75.7962 80.6214 75.9743 87.1284 75.618C94.4376 75.2618 101.569 72.7679 108.878 72.1444C110.571 71.9663 112.265 71.9663 113.959 72.2335C117.168 72.7679 117.613 76.1524 118.059 78.7354C119.039 83.8122 119.663 88.889 120.822 93.9659C123.675 106.702 126.438 119.439 129.29 132.087C130.627 138.054 132.053 144.022 133.391 149.989C134.549 154.799 137.58 162.459 135.797 167.357C134.817 170.029 130.003 170.029 127.686 170.386C121.624 171.365 115.652 172.968 109.68 174.394C97.0226 177.422 84.3651 180.539 71.6185 183.122C72.1533 183.478 72.6882 183.835 73.223 184.102C63.7745 150.256 58.3371 115.52 50.7605 81.3183C50.5822 80.5167 48.532 79.7151 48.7994 80.873Z" fill="#020A13"/>
<path d="M63.4181 95.5691C64.2203 99.5771 64.666 103.585 65.1117 107.593C65.29 109.107 64.3095 111.334 65.5574 112.581C67.5184 114.629 72.421 112.67 74.5602 112.046C80.7107 110.265 86.8612 109.196 93.1008 108.038C97.2902 107.237 101.48 106.346 105.758 105.634C107.987 105.188 111.374 104.921 113.335 103.763C116.098 102.071 112.354 93.5205 111.73 91.561C110.75 88.7109 110.304 81.7636 106.293 81.1402C104.778 80.873 103.352 81.1402 101.836 81.5855C98.1816 82.4762 94.527 83.3669 90.8723 84.1685C82.0478 86.0389 73.3123 87.8202 64.4878 89.7797C63.1507 90.0469 64.3986 91.7392 65.4683 91.472C77.2344 88.889 89.1787 86.9295 100.767 83.8122C102.995 83.1887 106.204 81.4964 107.541 84.881C108.521 87.4639 109.145 90.4032 109.948 93.0752C110.839 95.6581 111.552 98.152 111.73 100.824C111.909 102.962 109.324 102.784 107.719 103.229C97.2902 105.99 86.2372 106.435 75.8973 109.553C73.758 110.176 66.8945 113.382 67.0727 109.642C67.251 104.832 66.4488 100.022 65.4683 95.3019C65.29 94.4112 63.1507 94.2331 63.4181 95.5691Z" fill="#020A13"/>
<path d="M68.9446 118.905C76.8778 118.37 84.5436 116.5 92.2985 114.808C93.279 114.629 91.5854 113.204 90.8723 113.383C83.2957 115.075 75.719 116.945 67.9641 117.48C66.7162 117.48 68.2315 118.905 68.9446 118.905Z" fill="#020A13"/>
<path d="M68.5879 122.2C74.2035 120.953 79.73 119.706 85.3457 118.459C86.3262 118.281 87.1284 117.034 85.6131 117.391C79.9974 118.638 74.4709 119.884 68.8553 121.131C67.9639 121.399 67.1617 122.556 68.5879 122.2Z" fill="#020A13"/>
<path d="M69.7469 125.852C74.2038 124.872 78.6606 123.892 83.0283 122.913C84.4545 122.556 83.0283 121.399 82.137 121.666C77.6801 122.645 73.2232 123.625 68.8555 124.605C67.4293 124.872 68.8555 126.03 69.7469 125.852Z" fill="#020A13"/>
<path d="M69.7468 131.018C72.1535 130.483 74.4711 129.86 76.8778 129.237C79.2845 128.613 85.1675 126.386 86.2372 129.593C87.4851 133.245 78.8388 133.868 76.2538 134.313C72.7775 134.937 71.173 134.491 70.9947 130.84C70.9947 130.573 70.0142 130.929 70.0142 131.285C70.1033 134.67 71.4404 135.738 74.6493 135.204C78.304 134.491 82.8499 134.313 86.148 132.265C87.7525 131.196 87.8416 128.257 85.7915 127.544C84.0087 127.01 81.3346 127.9 79.641 128.257C76.5212 128.88 73.4014 129.771 70.2816 130.483C70.0142 130.483 69.212 131.196 69.7468 131.018Z" fill="#020A13"/>
<path d="M72.1533 143.22C72.0641 147.228 73.4903 150.88 74.3817 154.799C74.8274 156.758 75.3622 158.451 77.2341 159.341C79.2842 160.321 82.3149 158.896 84.0976 158.005C86.3261 156.936 88.5545 156.224 90.9612 155.511C92.2091 155.155 94.6158 154.799 95.5072 153.73C96.9334 152.038 95.5963 149.188 95.1506 147.317C94.7049 145.358 94.8832 141.35 93.457 139.746C91.8526 137.965 88.7328 138.767 86.5935 139.034C81.3344 139.746 76.2536 140.726 71.1728 141.973C70.7271 142.062 71.1728 143.042 71.5293 142.953C76.6993 141.706 81.7801 140.815 86.95 140.014C89.8915 139.568 92.9222 138.856 93.5462 142.507C93.9918 145.09 94.5267 147.584 95.0615 150.167C95.9529 154.353 89.9807 154.71 87.4848 155.333C85.613 155.868 83.9194 156.847 82.1366 157.738C74.8274 161.301 72.7772 148.386 72.8664 143.754C72.9555 143.309 72.2424 142.597 72.1533 143.22Z" fill="#020A13"/>
<path d="M98.0923 137.52C97.7357 142.418 98.1814 148.92 102.014 152.483C103.975 154.264 107.095 153.374 109.234 152.75C113.067 151.681 118.237 151.86 121.268 149.009C124.209 146.337 121.001 137.252 119.307 134.67C118.059 132.799 115.652 132.443 113.602 132.621C108.076 133.244 102.371 135.115 96.9335 136.273C96.4878 136.362 96.9335 137.342 97.2901 137.253C102.46 136.095 107.63 135.026 112.8 133.779C116.722 132.888 119.485 136.095 120.377 139.746C121.001 142.507 122.427 146.248 120.02 148.564C118.326 150.078 115.385 150.256 113.246 150.702C110.928 151.147 108.61 151.86 106.293 152.305C98.8054 153.908 98.4488 142.686 98.8054 137.965C98.8945 137.609 98.0923 136.807 98.0923 137.52Z" fill="#020A13"/>
<path d="M77.5907 163.26C81.4236 162.369 85.1674 161.39 89.0003 160.499C89.7134 160.321 89.5351 159.608 88.822 159.787C84.9891 160.677 81.2453 161.657 77.4125 162.548C76.6994 162.726 76.8776 163.438 77.5907 163.26Z" fill="#020A13"/>
<path d="M77.7693 166.11C81.2456 165.309 84.722 164.24 88.3766 163.973C88.9114 163.973 88.2875 163.082 87.8418 163.082C84.1872 163.349 80.7999 164.418 77.2345 165.22C76.6996 165.309 77.3236 166.199 77.7693 166.11Z" fill="#020A13"/>
<path d="M78.3933 168.248C79.9086 167.892 81.5131 167.535 83.0284 167.179C82.9393 167.179 82.5827 166.288 82.3153 166.377C80.8 166.734 79.1955 167.09 77.6802 167.446C77.6802 167.446 78.1259 168.337 78.3933 168.248Z" fill="#020A13"/>
<path d="M104.421 156.936C107.184 156.313 109.948 155.689 112.711 155.066C113.246 154.977 113.424 154.264 112.711 154.442C109.948 155.066 107.184 155.689 104.421 156.313C103.886 156.402 103.708 157.025 104.421 156.936Z" fill="#020A13"/>
<path d="M104.867 158.896C110.483 157.649 116.098 156.402 121.625 154.977C122.249 154.799 121.625 153.908 121.179 153.997C115.653 155.422 110.037 156.669 104.421 157.916C103.797 158.094 104.421 159.074 104.867 158.896Z" fill="#020A13"/>
<path d="M104.688 161.033C106.025 160.766 107.362 160.41 108.789 160.143C109.323 160.054 109.591 159.074 108.878 159.252C107.541 159.519 106.204 159.876 104.777 160.143C104.154 160.232 103.975 161.212 104.688 161.033Z" fill="#020A13"/>
<path d="M42.2037 55.845C42.4711 55.4887 42.2928 55.2215 42.3819 54.8653C42.3819 54.6871 42.5602 54.4199 42.6493 54.4199C43.3624 54.8653 44.2538 54.1527 44.8778 54.9543C47.2845 58.0717 50.4934 60.3874 53.1675 63.2376C53.3458 63.4157 53.5241 63.5938 53.7023 63.861C54.772 65.0189 54.772 65.0189 53.4349 65.8205C52.0979 66.6221 51.9196 66.6221 50.6717 65.5533C47.9976 63.4157 45.3235 61.2781 42.7385 58.9623C41.9363 58.2498 41.2232 57.4482 41.0449 56.2903C40.9557 56.0231 40.9557 55.6669 41.0449 55.3997C41.0449 55.1325 41.134 54.7762 41.4906 54.7762C41.8471 54.7762 41.758 55.1325 41.8471 55.3106C41.8471 55.5778 41.8471 55.7559 42.2037 55.845Z" fill="black"/>
<path d="M31.7746 68.2255C33.1116 68.3145 34.2704 68.938 35.4292 69.6505C37.8359 71.1647 40.0643 72.946 42.5602 74.3711C43.0058 74.6383 43.0058 74.9055 42.5602 75.2618C41.3122 76.4196 40.0643 75.8852 38.8164 75.2618C36.4097 73.9258 34.003 72.4116 31.5963 71.0756C30.9723 70.7193 30.3484 70.3631 29.6353 70.0959C29.2787 69.9177 29.1896 69.5615 29.2787 69.2052C29.2787 68.8489 29.5461 68.7599 29.9027 68.6708C30.5267 68.4927 31.0615 68.2255 31.7746 68.2255Z" fill="black"/>
<path d="M30.3481 87.7312C28.9219 87.7312 27.4957 87.7312 26.0695 87.7312C25.6238 87.7312 25.1781 87.7312 24.9999 87.1077C24.9107 86.5733 25.3564 86.5733 25.6238 86.3061C26.1587 85.8608 26.7826 85.6826 27.4066 85.5936C30.259 85.1482 33.1113 84.9701 35.9637 85.5045C36.2311 85.5936 36.5877 85.5936 36.766 85.8608C36.9442 86.217 36.4986 86.3952 36.4094 86.5733C35.6963 87.7312 34.5375 87.7312 33.3788 87.6421C32.3091 87.7312 31.3286 87.7312 30.3481 87.7312Z" fill="black"/>
<path d="M41.0449 229.437C40.5992 229.615 40.3318 229.081 39.9752 228.992C39.7078 228.903 39.3513 228.814 39.2621 228.457C39.173 228.101 38.8164 228.19 38.7273 227.923C38.6382 227.745 38.549 227.567 38.2816 227.567C38.1925 227.567 38.1033 227.478 38.1033 227.388C38.1033 227.21 38.1033 226.943 37.7468 227.032C37.6577 226.587 37.212 226.32 36.9446 225.963C36.6772 225.518 36.4097 225.073 36.0532 224.627V224.004C35.7858 224.004 35.6966 223.915 35.6075 223.648C35.3401 222.757 34.8944 221.955 34.8053 221.065C34.7161 220.352 34.5379 219.729 34.5379 219.016C34.627 218.304 34.4487 217.502 34.4487 216.79C34.4487 215.721 34.627 214.652 34.7161 213.583C34.9836 213.227 34.8944 212.781 34.9836 212.425C35.0727 211.98 35.0727 211.624 35.251 211.178C35.3401 210.822 35.5184 210.377 35.5184 209.931C35.5184 209.753 35.6966 209.753 35.8749 209.753C35.9641 209.397 35.7858 209.13 35.9641 208.773C36.1423 208.506 36.0532 208.061 36.2315 207.705C36.4989 206.636 36.8554 205.567 37.212 204.498C37.3903 204.142 37.5685 203.786 37.6577 203.34C37.7468 202.895 38.0142 202.628 38.1033 202.272C38.1925 201.826 38.3708 201.47 38.549 201.114C39.0839 199.956 39.5295 198.798 40.0644 197.729C40.5992 196.571 41.134 195.324 41.758 194.166C41.9362 193.721 42.1145 193.365 42.3819 192.92C42.6493 192.474 43.0059 191.94 43.1842 191.494C43.4516 191.049 43.6298 190.515 43.9864 190.069C44.0755 189.98 43.9864 189.802 44.1647 189.713C44.3429 189.624 44.0755 189.357 44.4321 189.446C44.6104 189.446 44.4321 189.179 44.5212 189.09C44.6104 188.911 44.7886 188.822 44.8778 188.644C45.4126 187.754 45.8583 186.863 46.4822 186.061C46.8388 185.616 47.1953 185.171 47.4627 184.547C47.5519 184.191 47.9976 184.013 48.1758 183.657C48.7107 183.3 48.7998 182.677 49.3346 182.321C49.5129 182.231 49.4238 181.964 49.6912 181.964C49.7803 181.964 49.7803 181.608 49.9586 181.519C50.1369 181.43 50.226 181.252 50.4043 181.074C50.5825 180.895 50.6717 180.806 50.8499 180.628C51.2065 180.272 51.6522 180.005 52.187 179.916C52.7218 179.827 53.1675 179.738 53.6132 179.916C53.7915 179.916 53.8806 180.094 53.9697 180.183C53.8806 180.539 53.5241 180.45 53.3458 180.539C53.1675 180.628 52.9892 180.539 52.811 180.806C52.7218 180.985 52.4544 180.895 52.4544 181.252C52.4544 181.519 52.0087 181.341 51.9196 181.608L52.0087 181.786V181.875C51.6522 182.231 51.3848 182.677 51.0282 183.033C50.9391 183.122 50.8499 183.033 50.7608 183.122L50.8499 183.389C50.7608 183.567 50.6717 183.657 50.4043 183.657C50.4043 183.657 50.3151 183.746 50.4043 183.746C50.4934 184.013 50.226 184.191 50.1369 184.369C49.5129 185.438 48.7107 186.329 48.265 187.486C47.7302 187.932 47.641 188.644 47.2845 189.179C47.1062 189.535 46.8388 189.891 46.6605 190.248C46.4822 190.604 46.4822 191.138 46.0365 191.316C45.8583 192.029 45.4126 192.563 45.1452 193.187C44.9669 193.632 44.6995 194.077 44.5212 194.523C44.3429 194.968 44.0755 195.413 43.8973 195.859C43.6298 196.482 43.2733 197.195 43.0059 197.907C42.9168 198.264 42.7385 198.709 42.5602 199.065C41.758 200.757 41.134 202.539 40.5992 204.32C40.4209 204.855 40.3318 205.389 39.9752 205.923C39.797 206.191 39.8861 206.458 39.7078 206.725C39.6187 206.903 39.7078 207.259 39.5295 207.437C39.4404 207.705 39.3513 207.972 39.2621 208.239C39.173 208.684 39.0839 209.13 38.7273 209.397C38.7273 209.575 38.8164 209.486 38.9056 209.486C38.9056 210.109 38.9056 210.199 38.3708 210.377C38.3708 210.466 38.3708 210.555 38.3708 210.644H38.549C38.6382 211.267 38.4599 211.802 37.9251 212.158C38.0142 212.336 38.1925 212.158 38.2816 212.336C38.1925 212.96 38.0142 213.583 37.9251 214.296C37.9251 214.83 37.8359 215.275 37.8359 215.81C37.8359 216.344 37.8359 216.879 37.8359 217.413C37.8359 217.947 37.7468 218.482 37.8359 219.016C37.9251 219.907 38.0142 220.887 38.2816 221.777C38.4599 222.49 38.7273 223.202 38.9947 223.915C39.173 224.36 39.4404 224.806 39.797 225.251C39.9752 225.429 40.0644 225.696 40.1535 225.874C40.1535 225.963 40.3318 226.052 40.4209 226.052C40.5992 225.963 40.5992 225.785 40.51 225.607C40.2426 224.895 40.2426 224.182 40.2426 223.47C40.2426 222.757 40.2426 222.044 40.2426 221.332C40.3318 220.174 40.51 219.016 40.8666 217.947C41.0449 217.235 41.2231 216.522 41.4906 215.81C41.8471 214.741 42.3819 213.672 42.9168 212.692C43.0059 212.514 42.9167 212.336 43.095 212.336C43.2733 212.247 43.1842 211.802 43.3624 211.891C43.719 211.891 43.4516 211.624 43.6298 211.535C43.8081 211.445 43.8973 211.267 43.8973 211.089C43.8973 210.911 44.0755 211 44.2538 211C44.1647 210.644 44.4321 210.466 44.6104 210.288C45.1452 209.664 45.68 209.13 46.304 208.684C46.7496 208.328 47.1953 207.972 47.7302 207.705C48.265 207.437 48.7998 207.259 49.2455 206.992C49.602 206.814 49.9586 206.814 50.3151 206.725C50.6717 206.636 51.0282 206.636 51.2956 206.458C51.7413 206.28 52.187 206.458 52.6327 206.458C53.0784 206.369 53.4349 206.547 53.8806 206.725C54.3263 206.903 54.8611 207.081 55.3068 207.259C55.7525 207.527 56.1982 207.705 56.5547 207.972C57.0895 208.328 57.6244 208.684 58.07 209.13C58.2483 209.308 58.6049 209.397 58.7831 209.664C59.0506 210.02 59.318 210.199 59.4962 210.644C59.6745 211 60.0311 211.267 60.2093 211.624C61.0116 212.96 61.1898 213.138 61.6355 214.741C61.7247 215.008 61.5464 215.275 61.8138 215.453C61.7247 216.7 61.9029 218.036 61.5464 219.283C61.1898 220.798 60.5659 222.223 59.7637 223.559C59.5854 223.915 59.4071 224.36 59.1397 224.716C59.9419 224.36 60.0311 223.38 60.655 222.668C60.3876 223.47 60.0311 223.915 59.7637 224.449C59.318 225.073 58.8723 225.696 58.3375 226.32C58.0701 226.587 57.8918 226.943 57.6244 227.21C57.357 227.478 57.0004 227.478 56.8221 227.745C56.6439 228.012 56.3764 228.19 56.109 228.368C55.2177 228.903 54.4154 229.437 53.5241 229.882C52.5436 230.417 51.563 230.684 50.4934 231.04C49.8694 231.218 49.1563 231.397 48.4432 231.307C48.1758 231.307 47.9084 231.486 47.5519 231.307C47.5519 231.307 47.4627 231.397 47.3736 231.397C47.1953 231.307 47.1062 231.575 47.0171 231.575C47.4627 232.376 47.9084 233.089 48.3541 233.801C48.7107 234.336 49.1563 234.781 49.4238 235.315C49.7803 235.85 50.226 236.295 50.7608 236.651C51.4739 237.186 52.187 237.809 52.9892 238.255C53.7915 238.7 54.6828 238.967 55.4851 239.324C55.7525 239.413 56.0199 239.234 56.2873 239.502C57.0895 239.413 57.8918 239.769 58.694 239.591C59.2288 239.502 59.7637 239.591 60.2985 239.502C61.1007 239.413 61.9029 239.234 62.616 239.056C63.24 238.967 63.864 238.789 64.4879 238.611C65.3793 238.433 66.2707 237.987 67.162 237.631C67.6077 237.453 68.1425 237.275 68.5882 237.008C69.2122 236.651 70.0144 236.295 70.5492 235.761C70.7275 235.494 70.8166 235.226 71.0841 234.959C71.2623 234.87 71.4406 234.87 71.6189 234.87C71.5297 235.315 71.2623 235.672 71.2623 236.206C71.4406 235.939 71.7972 236.206 71.8863 235.672C71.8863 235.405 72.332 235.315 72.2428 234.959L72.6885 235.048C72.6885 235.226 72.6885 235.405 72.5994 235.494C72.5103 235.672 72.4211 235.761 72.6885 235.939C72.7777 235.583 73.0451 235.405 73.2234 235.226C73.4016 235.494 73.7582 235.583 73.7582 235.939C73.8473 235.939 73.9364 235.761 74.0256 235.85C74.0256 236.028 74.1147 236.206 74.0256 236.473C73.9364 236.651 73.9364 236.83 73.8473 237.008C74.0256 237.008 74.1147 236.741 74.293 236.83C74.2039 237.097 74.1147 237.364 73.8473 237.542C73.3125 238.077 72.6885 238.611 72.2428 239.145C71.9754 239.413 71.6189 239.591 71.2623 239.769C70.6384 240.214 69.9253 240.659 69.123 240.927C68.4991 241.194 67.8751 241.55 67.2512 241.639C65.9141 242.352 64.3096 242.352 62.8834 242.797C62.5269 242.886 62.0812 242.886 61.7247 242.886C60.2985 242.886 58.9614 243.064 57.5352 242.975C55.5742 242.797 53.7023 242.352 51.9196 241.639C51.2065 241.283 50.4934 240.927 49.7803 240.481C49.2455 240.214 48.7998 239.769 48.265 239.591L48.1758 239.502C47.4627 238.967 44.9669 236.562 44.6104 235.939C44.1647 235.315 43.719 234.692 43.2733 234.069C42.9167 233.445 42.5602 232.822 42.2037 232.109L42.1145 232.02C42.1145 230.595 41.6688 230.061 41.0449 229.437ZM45.1452 224.627C45.2343 224.984 45.1452 225.251 45.2343 225.607C45.3235 226.409 45.68 227.121 45.8583 227.923C45.9474 228.279 46.2148 228.457 46.5714 228.368C47.641 228.101 48.7107 227.923 49.6912 227.478C50.1369 227.21 50.5825 227.032 51.1174 226.854C51.6522 226.587 52.0087 226.32 52.5436 226.052C52.9892 225.785 53.3458 225.34 53.7915 225.073C54.4154 224.716 54.6828 223.915 55.3068 223.47C55.3068 223.113 55.6633 223.024 55.7525 222.757C56.0199 222.134 56.3764 221.599 56.733 221.065C57.2678 220.085 57.6244 219.016 57.8918 217.947C58.0701 217.146 58.1592 216.255 58.1592 215.364C58.07 214.741 58.0701 214.117 57.8918 213.494C57.6244 212.514 57.1787 211.535 56.3764 210.822C56.2873 210.733 56.109 210.644 56.0199 210.466C55.3068 209.575 54.5046 209.664 53.5241 209.753C52.9892 209.842 52.6327 210.109 52.0979 210.109C52.0087 210.199 52.187 210.466 51.9196 210.466C51.7413 210.466 51.6522 210.555 51.563 210.644C51.3848 210.822 51.2956 210.466 51.2065 210.555C51.2065 211 50.9391 211 50.6717 210.911V210.644C50.226 211 49.8694 211.356 49.4238 211.624C48.7998 211.98 48.4432 212.692 47.9976 213.316C47.5519 213.85 47.1062 214.474 46.9279 215.097H46.7496C46.8388 215.721 46.5714 216.255 46.3931 216.79C46.0365 217.769 45.7691 218.749 45.68 219.729C45.68 219.907 45.5017 219.907 45.5017 220.085C45.5017 220.352 45.2343 220.441 45.2343 220.708L45.4126 220.887C45.5017 221.065 45.3235 221.154 45.3235 221.332C45.3235 221.51 45.5017 221.599 45.4126 221.777C45.2343 222.134 45.3235 222.579 45.3235 222.935C45.3235 223.291 45.056 223.737 45.4126 224.093C45.5017 224.182 45.3235 224.449 45.3235 224.627H45.1452ZM48.265 208.417C47.8193 208.684 47.2845 208.773 47.0171 209.219C46.9279 209.308 46.8388 209.308 46.7496 209.308C46.6605 209.308 45.9474 210.02 45.8583 210.109C45.5909 210.288 45.5909 210.822 45.2343 210.911C44.7886 211 44.6995 211.356 44.4321 211.624C43.8973 212.336 43.4516 213.138 43.1842 214.117C43.3624 213.85 43.5407 213.761 43.8081 213.761C43.8081 213.672 43.6298 213.583 43.719 213.405C44.3429 213.049 44.5212 212.336 44.9669 211.891C45.4126 211.445 45.68 210.911 46.2148 210.466C46.8388 209.842 47.5519 209.13 48.265 208.417Z" fill="black"/>
<path d="M119.663 86.1279C126.752 86.1279 132.499 80.3857 132.499 73.3022C132.499 66.2188 126.752 60.4766 119.663 60.4766C112.574 60.4766 106.828 66.2188 106.828 73.3022C106.828 80.3857 112.574 86.1279 119.663 86.1279Z" fill="black"/>
<path d="M222.171 23.8701C211.296 23.8701 200.6 22.6232 190.26 18.9714C178.048 14.6962 165.569 12.2023 152.644 12.2914C150.416 12.2914 150.416 12.2914 150.327 14.518C150.059 24.8498 149.792 35.1816 149.524 45.5134C149.524 46.6713 149.97 47.0276 151.129 47.1166C162.895 47.2057 174.75 47.3838 186.516 48.0964C198.282 48.8089 210.048 48.987 221.725 49.1652C223.508 49.1652 223.597 49.0761 223.686 47.2948C223.865 40.2585 224.043 33.2222 224.31 26.1858C224.4 23.9592 224.4 23.8701 222.171 23.8701ZM222.528 27.1656C222.26 33.4894 222.171 39.7241 221.993 46.0478C221.993 47.0276 221.725 47.2948 220.745 47.2948C209.425 47.2057 198.104 46.8494 182.149 46.0478C175.552 45.6916 164.321 45.3353 153.09 45.3353C151.842 45.3353 151.485 45.1572 151.485 43.7321C151.842 34.38 152.02 24.9389 152.199 15.5869C152.199 14.518 152.466 14.2508 153.625 14.2508C165.569 14.2508 177.068 16.3885 188.299 20.3965C198.906 24.1373 209.959 25.8296 221.191 25.9186C222.26 25.7405 222.528 26.0077 222.528 27.1656Z" fill="black"/>
<path d="M170.65 40.4364C167.174 40.3473 163.608 40.1692 160.132 39.9911C158.884 39.902 158.706 39.4567 158.706 38.3879C158.795 35.8049 158.795 33.222 158.973 30.639C159.151 27.5217 159.062 24.4043 159.062 21.376C159.062 19.6838 159.33 19.5947 161.112 19.7728C164.589 20.04 167.708 21.1088 170.65 22.8011C171.452 24.4043 171.096 26.0966 171.007 27.7889C170.828 31.975 170.383 36.1612 170.65 40.4364Z" fill="#06D6A0"/>
<path d="M202.472 41.8615C197.48 41.9506 192.578 41.4162 187.586 41.3271C186.962 40.7036 187.051 39.902 187.14 39.1895C187.408 37.1409 187.318 35.0924 187.408 33.0438C187.408 32.4204 187.229 31.7078 188.032 31.3516C188.032 32.2422 188.299 32.5094 189.369 32.4204C193.023 31.975 196.5 30.639 200.243 30.55C200.511 30.55 200.867 30.4609 201.046 30.55C202.293 31.1734 202.739 30.55 203.007 29.3921C203.631 29.9265 203.541 30.639 203.452 31.3516C203.096 34.2908 203.274 37.23 202.917 40.1692C202.917 40.7927 203.007 41.4162 202.472 41.8615Z" fill="#06D6A0"/>
<path d="M185.625 41.3272C180.811 41.06 175.998 40.7928 171.185 40.4365C171.809 36.4285 171.719 32.3314 171.898 28.3234C171.987 27.0764 171.809 25.8295 172.611 24.6716C173.859 26.0076 175.017 27.2546 176.265 28.5906C178.494 30.9954 181.079 32.4205 184.466 32.5986C185.446 32.6877 185.892 32.3314 186.16 31.4407C186.694 31.8861 186.694 32.5095 186.605 33.133C186.249 35.1816 186.427 37.2301 186.338 39.2786C186.249 39.9912 186.249 40.7928 185.625 41.3272Z" fill="#06D6A0"/>
<path d="M205.057 29.6594C204.7 31.5298 205.859 32.3314 207.196 33.2221C210.761 35.5379 213.614 38.6552 216.555 41.6835C216.823 41.9507 217.001 42.2179 216.912 42.6632C212.722 42.4851 208.444 42.307 204.254 42.1288C203.72 40.3475 203.987 38.5661 204.076 36.8739C204.165 35.0035 204.254 33.2221 204.344 31.3517C204.344 30.8173 204.254 30.0157 205.057 29.6594Z" fill="#06D6A0"/>
<path d="M172.611 24.6717C172.344 29.3032 172.165 33.9347 171.898 38.4771C171.898 39.1897 171.898 39.9913 171.096 40.4366C170.918 40.4366 170.739 40.4366 170.561 40.4366C169.937 39.9913 169.937 39.3678 169.937 38.7443C170.115 33.8456 170.383 28.9469 170.561 23.9592C170.561 23.5138 170.561 23.1576 170.561 22.7122C170.561 22.356 170.561 21.9997 170.561 21.6434C170.561 20.8418 171.185 20.6637 171.631 20.6637C172.255 20.5746 172.522 21.02 172.522 21.6434C172.611 22.6232 172.611 23.6029 172.611 24.6717Z" fill="#020101"/>
<path d="M185.625 41.3273C185.803 38.0318 185.982 34.7363 186.071 31.4408C186.16 28.9469 186.338 26.364 186.427 23.8701C186.427 23.1576 186.516 22.356 187.497 22.356C188.477 22.356 188.388 23.2466 188.388 23.9592C188.299 26.453 188.21 28.9469 188.121 31.3517C187.943 34.6472 187.764 37.9427 187.675 41.2382C186.784 42.4851 186.249 42.3961 185.625 41.3273Z" fill="#020202"/>
<path d="M205.057 29.6593C204.879 32.6876 204.7 35.6268 204.522 38.6551C204.433 39.813 204.344 40.9708 204.344 42.1287C203.631 43.0194 203.007 42.8413 202.561 41.8615C202.739 37.7644 202.918 33.5783 203.096 29.4812C203.096 28.8577 203.096 28.2342 203.185 27.6998C203.274 27.0764 203.542 26.631 204.255 26.7201C204.879 26.8092 205.057 27.2545 205.057 27.7889C205.057 28.4124 205.057 29.0358 205.057 29.6593Z" fill="#030203"/>
<path d="M454.462 48.5417C457.761 48.5417 460.435 45.87 460.435 42.5742C460.435 39.2784 457.761 36.6067 454.462 36.6067C451.164 36.6067 448.49 39.2784 448.49 42.5742C448.49 45.87 451.164 48.5417 454.462 48.5417Z" fill="#020A13"/>
<path d="M453.482 46.5822C456.78 46.5822 459.454 43.9105 459.454 40.6147C459.454 37.319 456.78 34.6472 453.482 34.6472C450.184 34.6472 447.51 37.319 447.51 40.6147C447.51 43.9105 450.184 46.5822 453.482 46.5822Z" fill="#FBFF12"/>
<path d="M117.257 83.9905C124.346 83.9905 130.092 78.2482 130.092 71.1648C130.092 64.0814 124.346 58.3391 117.257 58.3391C110.168 58.3391 104.421 64.0814 104.421 71.1648C104.421 78.2482 110.168 83.9905 117.257 83.9905Z" fill="#FFD500"/>
<path d="M117.346 76.3305C116.277 75.7961 115.207 75.3508 114.226 74.7273C111.374 72.8569 115.118 68.3144 116.99 70.5411C117.257 70.8083 118.505 71.4318 118.148 70.5411C117.792 69.7395 118.416 68.9379 118.951 68.4035C119.218 68.1363 119.486 67.9582 119.842 67.78C121.803 66.7112 121.357 70.0067 121.268 70.5411C120.912 72.6787 119.129 74.6382 117.881 76.4196C117.524 76.954 118.862 78.0228 119.218 77.5774C121.268 74.6382 124.834 70.1849 121.268 67.0675C119.218 65.2862 115.742 67.691 116.811 70.1849C117.168 70.1849 117.524 70.1849 117.97 70.1849C115.831 67.6019 112.087 68.4926 111.82 72.0553C111.641 74.9945 115.653 76.5086 117.614 77.4884C118.594 78.0228 117.97 76.5977 117.346 76.3305Z" fill="white"/>
</g>
<path d="M472.646 403.678C476.638 395.221 476.287 386.106 475.843 376.416C479.526 378.152 482.823 379.429 486.362 377.888C490.412 376.179 489.009 371.871 490.543 368.88C493.099 370.519 495.361 372.275 497.801 373.62C503.025 376.412 506.142 374.835 506.856 369.006C507.288 365.636 507.003 362.347 506.437 359.033C503.197 340.586 497.12 322.959 488.473 306.317C487.866 305.13 487.649 302.698 485.785 303.744C484.138 304.738 485.989 306.317 486.661 307.581C494.161 322.704 499.832 338.451 503.306 355.003C504.262 359.556 504.925 364.226 504.384 368.864C504.162 370.619 503.727 373.208 501.187 372.208C496.107 370.21 490.423 367.805 488.77 362.269C485.372 350.621 480.556 339.774 474.565 329.393C470.368 322.077 466.413 314.427 459.563 309.082C457.905 307.733 456.146 306.73 454.141 307.764C451.994 308.786 451.877 310.976 451.989 312.973C452.137 317.031 453.589 320.776 455.335 324.403C462.629 339.438 473.636 351.741 484.885 363.709C487.485 366.487 488.602 372.474 486.294 374.547C482.992 377.457 479.937 375.845 476.866 373.594C475.131 372.309 474.113 370.944 473.438 368.899C470.956 361.446 467.069 354.653 462.506 348.299C461.874 347.393 461.061 346.117 459.785 346.929C458.879 347.561 459.551 348.826 459.901 349.707C461.811 355.549 463.915 361.621 467.766 366.353C475.018 375.28 474.463 385.027 472.733 395.24C472.285 397.969 471.491 400.598 470.979 403.25C471.454 403.504 472.018 403.553 472.646 403.678ZM455.498 318.385C455.446 318.167 455.381 318.091 455.329 317.874C454.971 315.43 452.766 312.188 455.601 310.587C458.283 309.114 459.836 312.512 461.317 314.272C472.456 327.509 479.714 342.966 484.826 359.445C472.744 347.264 461.85 334.474 455.498 318.385Z" fill="#020A13"/>
<defs>
<clipPath id="clip0">
<rect width="439" height="655" fill="white" transform="translate(25)"/>
</clipPath>
</defs>
</svg>
