<svg width="418" height="211" viewBox="0 0 418 211" fill="none" xmlns="http://www.w3.org/2000/svg">
<g opacity="0.05" clip-path="url(#clip0)">
<path d="M196.133 210.09C196.233 206.347 197.741 202.908 200.456 200.278C203.17 197.648 206.688 196.333 210.408 196.434C214.128 196.535 217.546 198.053 220.159 200.784C222.773 203.515 224.08 207.055 223.979 210.798C223.979 210.899 223.979 211 223.979 211.101L218.45 211.101C218.45 210.899 218.45 210.798 218.45 210.595C218.551 208.37 217.646 206.246 216.138 204.627C214.63 203.009 212.519 202.099 210.307 201.997C208.096 201.997 205.985 202.807 204.376 204.324C202.768 205.841 201.863 207.965 201.763 210.191C201.763 210.494 201.763 210.798 201.763 211L196.233 211C196.233 210.798 196.233 210.595 196.233 210.393C196.133 210.292 196.133 210.191 196.133 210.09Z" fill="#AFB15E"/>
<path d="M179.746 208.572C179.746 207.46 179.846 206.347 180.048 205.133C180.249 203.919 180.55 202.604 180.952 201.289C181.857 198.356 183.465 195.524 185.476 192.793C186.582 191.276 187.688 190.062 188.894 189.05L189.196 188.848C193.016 186.42 197.238 185.813 201.259 185.206C201.661 185.105 202.063 185.105 202.465 185.004C204.376 184.701 206.185 183.588 208.095 182.475C208.598 182.172 209.1 181.869 209.603 181.565C215.233 178.429 222.973 181.464 228.201 186.016C230.413 187.938 231.619 190.466 232.624 192.692C233.227 193.905 233.73 195.018 234.333 195.928C236.243 197.243 237.751 199.165 238.656 201.593C239.561 203.919 239.963 206.448 239.762 209.078L239.762 209.28L239.661 209.483C239.561 210.09 239.36 210.595 239.159 211.101L232.825 211.101C233.428 210.292 233.931 209.381 234.132 208.37C234.233 206.752 233.931 205.133 233.328 203.717C232.725 202.2 231.82 201.087 230.714 200.379L230.211 200.076L229.91 199.671C228.804 198.154 228.1 196.535 227.296 195.018C226.391 193.096 225.587 191.377 224.28 190.264C220.661 187.128 215.132 184.701 212.016 186.42C211.513 186.724 211.111 186.926 210.608 187.229C208.397 188.544 205.984 190.062 202.968 190.466C202.566 190.567 202.164 190.567 201.762 190.669C198.143 191.174 194.825 191.68 192.01 193.4C191.206 194.108 190.402 195.018 189.598 196.131C187.889 198.356 186.682 200.683 185.878 203.009C185.577 204.02 185.275 205.133 185.074 206.145C184.772 207.561 184.772 208.876 184.973 209.988L184.973 210.292C184.973 210.494 185.074 210.696 185.174 211L179.444 211C179.444 210.899 179.444 210.798 179.444 210.798C179.846 210.09 179.746 209.28 179.746 208.572Z" fill="#AFB15E"/>
<path d="M163.863 202.503C164.265 200.48 164.667 198.457 165.271 196.434C166.678 192.085 169.091 187.634 172.408 183.285C174.117 180.958 175.927 179.138 177.636 177.62L177.837 177.519L178.038 177.418C183.466 174.282 189.599 173.777 195.429 173.271C196.736 173.17 197.942 173.069 199.149 172.967C202.768 172.563 205.784 170.135 209.001 167.606C209.403 167.303 209.805 166.898 210.308 166.595C217.948 160.627 230.011 165.482 238.054 172.462C241.17 175.193 242.678 178.733 243.985 182.172C244.89 184.397 245.694 186.522 247.001 188.14C250.218 189.657 252.731 192.388 254.339 195.929C255.847 199.267 256.551 203.211 256.249 207.055L256.249 207.359L256.149 207.662C255.747 208.876 255.345 209.988 254.741 211L247.905 211C249.112 209.584 250.117 208.168 250.72 206.347C250.921 203.515 250.419 200.683 249.313 198.356C248.106 195.726 246.397 193.906 244.085 192.995L243.482 192.692L243.08 192.186C241.069 189.758 239.964 186.926 238.858 184.195C237.651 181.262 236.546 178.531 234.435 176.609C228.905 171.855 218.953 166.898 213.826 170.944C213.424 171.248 213.022 171.551 212.62 171.956C209.101 174.788 205.181 177.924 199.953 178.531C198.646 178.632 197.339 178.733 196.133 178.834C190.704 179.239 185.577 179.744 181.255 182.071C179.847 183.285 178.54 184.701 177.032 186.623C174.117 190.466 172.006 194.31 170.8 198.154C170.297 199.772 169.895 201.593 169.593 203.515C169.091 206.044 169.091 208.168 169.493 210.191L169.593 210.595C169.593 210.697 169.593 210.899 169.694 211L164.064 211C163.863 209.786 163.763 208.572 163.763 207.359C163.36 205.74 163.562 204.223 163.863 202.503Z" fill="#AFB15E"/>
<path d="M147.577 199.873L147.677 199.57C148.18 196.94 148.683 194.31 149.487 191.68C151.397 185.814 154.614 179.846 159.138 173.878C161.55 170.641 163.863 168.213 166.275 166.291L166.476 166.089L166.677 165.988C173.815 162.043 181.857 161.639 189.598 161.234C191.609 161.133 193.619 161.032 195.529 160.829C200.958 160.324 205.18 156.48 209.704 152.434C210.106 152.029 210.508 151.726 210.91 151.321C221.164 142.116 238.455 150.714 247.503 158.806C251.524 162.347 253.333 167.101 255.042 171.652C256.249 174.889 257.455 178.025 259.365 180.453C263.789 182.273 267.307 185.712 269.619 190.466C271.831 194.917 272.736 200.076 272.233 205.234L272.233 205.538L272.132 205.841C271.529 207.763 270.725 209.483 269.72 211L262.582 211C264.392 209.078 265.9 207.055 266.804 204.425C267.106 200.48 266.402 196.333 264.693 192.995C262.884 189.253 260.169 186.724 256.751 185.51L256.048 185.308L255.545 184.701C252.73 181.363 251.222 177.418 249.815 173.675C248.307 169.629 246.9 165.786 243.884 163.055C236.043 156.075 221.767 149.197 214.63 155.57C214.228 155.873 213.826 156.278 213.423 156.682C208.699 161.032 203.27 165.887 196.032 166.494C194.021 166.696 191.91 166.797 189.9 166.898C182.863 167.303 175.524 167.708 169.492 170.843C167.482 172.563 165.572 174.586 163.461 177.317C159.339 182.779 156.424 188.14 154.715 193.501C154.011 195.726 153.508 198.154 153.106 200.581L153.006 200.885C152.302 204.526 152.302 207.561 153.006 210.393L153.006 210.595L153.006 210.798L153.006 210.899L147.376 210.899C147.074 209.382 146.873 207.763 146.873 206.044C146.974 204.122 147.175 202.099 147.577 199.873Z" fill="#AFB15E"/>
<path d="M131.291 197.345L131.392 196.738C131.995 193.501 132.598 190.264 133.704 187.027C136.116 179.643 140.238 172.057 145.868 164.673C148.884 160.627 151.799 157.593 154.815 155.165L155.016 154.963L155.217 154.861C164.164 150.107 174.116 149.804 183.868 149.399C186.683 149.298 189.296 149.197 191.91 148.995C199.148 148.489 204.878 142.926 210.508 137.464L211.714 136.351C224.079 124.415 245.693 135.238 257.153 145.454C262.079 149.905 264.191 155.772 266.201 161.436C267.709 165.786 269.217 169.832 271.831 173.069C277.46 175.092 282.085 179.34 285 185.207C287.714 190.669 288.921 197.142 288.318 203.515L288.318 203.818L288.318 204.021C287.413 206.651 286.206 208.876 284.698 211L277.36 211C279.773 208.572 281.783 205.942 282.889 202.605C283.392 197.345 282.386 192.085 280.175 187.634C277.661 182.779 274.143 179.542 269.418 178.025L268.714 177.823L268.212 177.216C264.593 173.069 262.783 168.011 261.074 163.156C259.164 157.896 257.455 152.94 253.534 149.5C243.28 140.397 224.683 131.496 215.635 140.296L214.529 141.408C208.598 147.174 201.762 153.749 192.513 154.457C189.799 154.659 186.984 154.76 184.169 154.861C175.222 155.165 165.873 155.57 158.132 159.514C155.519 161.639 153.005 164.37 150.291 167.91C144.963 174.889 141.243 181.869 138.931 188.646C138.027 191.478 137.423 194.411 136.82 197.648L136.72 198.255C135.815 203.009 135.815 206.954 136.72 210.697L136.72 210.899L131.09 210.899C130.688 208.977 130.487 206.954 130.487 204.83C130.487 202.605 130.788 200.076 131.291 197.345Z" fill="#AFB15E"/>
<path d="M115.005 194.816L115.206 193.906C115.91 190.062 116.614 186.117 117.921 182.374C120.836 173.473 125.762 164.37 132.598 155.367C136.318 150.512 139.736 146.871 143.455 143.836L143.656 143.634L143.857 143.533C154.513 137.969 166.577 137.666 178.138 137.362C181.656 137.261 185.074 137.16 188.392 136.958C197.54 136.351 204.577 129.169 211.312 122.291L212.418 121.178C218.953 114.604 228.603 113.086 240.365 116.728C249.212 119.459 259.064 125.123 266.704 131.9C272.535 137.16 275.048 144.14 277.36 150.917C279.27 156.278 280.979 161.436 284.397 165.482C291.334 167.809 296.863 172.664 300.482 179.744C303.799 186.218 305.307 194.007 304.503 201.593L304.503 201.896L304.402 202.2C303.296 205.538 301.587 208.471 299.577 211L292.138 211C295.154 208.067 297.566 204.83 299.074 200.683C299.677 194.31 298.371 187.634 295.656 182.273C292.54 176.204 288.016 172.259 282.085 170.54L281.381 170.337L280.878 169.731C276.455 164.774 274.344 158.604 272.233 152.737C270.021 146.365 267.91 140.296 263.185 136.047C250.418 124.719 227.497 113.895 216.439 125.022L215.333 126.135C208.196 133.418 200.053 141.611 188.794 142.42C185.376 142.622 181.757 142.723 178.339 142.825C167.482 143.128 156.122 143.431 146.672 148.186C143.455 150.815 140.339 154.153 137.021 158.503C130.587 167.101 125.863 175.597 123.148 183.892C122.042 187.331 121.339 190.972 120.635 194.715L120.434 195.625C119.429 201.593 119.429 206.448 120.534 211L114.804 211C114.302 208.674 114.101 206.347 114.101 203.818C114.101 200.986 114.402 197.952 115.005 194.816Z" fill="#AFB15E"/>
<path d="M98.8201 192.186L99.0211 190.972C99.8253 186.522 100.73 181.97 102.137 177.519C105.555 167.101 111.386 156.48 119.429 145.859C123.751 140.093 127.772 135.845 132.095 132.406L132.296 132.204L132.497 132.103C144.963 125.73 158.936 125.528 172.508 125.224C176.831 125.123 180.852 125.123 184.873 124.82C195.931 124.112 204.175 115.413 212.217 107.017L213.323 105.803C229.809 88.6078 260.772 104.286 276.354 118.144C283.09 124.213 285.905 132.406 288.619 140.296C290.831 146.769 292.841 152.94 296.963 157.694C305.106 160.222 311.64 165.887 315.963 174.08C319.884 181.666 321.593 190.669 320.688 199.57L320.688 199.873L320.587 200.177C319.18 204.223 317.069 207.763 314.556 210.798L307.016 210.798C310.635 207.359 313.55 203.515 315.259 198.66C315.963 191.073 314.455 183.082 311.138 176.71C307.418 169.528 301.889 164.875 294.751 162.852L293.947 162.65L293.444 162.043C288.217 156.278 285.804 149.096 283.391 142.116C280.878 134.53 278.466 127.45 272.735 122.291C257.656 108.838 230.413 95.9918 217.344 109.647L216.238 110.76C207.894 119.459 198.344 129.371 185.175 130.282C181.053 130.585 176.73 130.585 172.608 130.686C159.741 130.889 146.471 131.192 135.312 136.755C131.492 139.891 127.772 143.735 123.852 148.995C116.212 159.11 110.682 169.225 107.466 179.036C106.159 183.082 105.354 187.331 104.55 191.781L104.349 192.995C103.042 199.772 103.042 205.437 104.349 210.798L98.619 210.798C98.0158 208.067 97.8148 205.336 97.8148 202.402C97.7142 199.368 98.1163 195.929 98.8201 192.186Z" fill="#AFB15E"/>
<path d="M82.535 189.657L82.8366 188.14C83.7413 183.082 84.7466 177.823 86.3551 172.866C90.2757 160.93 96.9106 148.792 106.159 136.553C111.085 129.978 115.71 125.123 120.636 121.178L120.837 120.976L121.138 120.875C135.313 113.693 151.297 113.491 166.879 113.289C171.905 113.187 176.63 113.187 181.355 112.884C194.223 112.075 203.874 101.859 213.122 91.9458L214.228 90.732C232.826 70.9065 268.212 88.8102 286.106 104.792C293.847 111.67 296.863 120.976 299.879 130.08C302.392 137.666 304.805 144.848 309.63 150.411C318.979 153.142 326.519 159.514 331.546 168.921C335.969 177.519 337.879 187.735 336.874 197.85L336.874 198.154L336.773 198.457C334.964 203.414 332.45 207.46 329.434 211L321.794 211C325.916 207.055 329.334 202.605 331.445 196.94C332.249 188.14 330.54 178.935 326.62 171.45C322.196 163.156 315.763 157.694 307.419 155.468L306.614 155.266L306.112 154.659C300.08 148.084 297.366 139.79 294.651 131.698C291.736 122.999 289.022 114.705 282.387 108.838C264.895 93.1597 233.329 78.3917 218.249 94.4746L217.143 95.6884C207.593 105.905 196.736 117.537 181.657 118.447C176.831 118.751 171.805 118.751 166.979 118.852C152.202 119.054 136.921 119.256 123.953 125.73C119.53 129.372 115.207 133.822 110.683 139.891C101.635 151.625 95.3022 163.257 91.5826 174.586C90.0746 179.239 89.1699 184.094 88.2651 189.151L87.9635 190.669C86.5562 198.457 86.5562 204.931 87.9635 211L82.2334 211C81.6302 207.965 81.2281 204.83 81.2281 201.492C81.3286 197.749 81.7307 193.906 82.535 189.657Z" fill="#AFB15E"/>
<path d="M66.2486 187.027L66.5502 185.207C67.5555 179.542 68.6613 173.675 70.5714 168.011C74.9947 154.659 82.4338 140.903 92.8889 127.146C98.5185 119.762 103.645 114.199 109.275 109.849L109.476 109.647L109.778 109.546C125.661 101.555 143.757 101.353 161.148 101.252C166.878 101.252 172.307 101.151 177.735 100.847C192.513 100.038 203.471 88.1021 213.926 76.6721L215.032 75.4583C235.841 52.9017 275.55 73.1319 295.656 91.1366C304.302 98.8241 307.72 109.344 311.037 119.56C313.852 128.259 316.566 136.351 322.196 142.825C332.852 145.859 341.397 152.94 346.926 163.459C352.053 173.069 354.265 184.6 353.058 196.03L353.058 196.333L352.958 196.637C350.947 202.2 347.931 206.853 344.413 211L336.571 211C341.296 206.549 345.217 201.492 347.529 195.119C348.534 185.105 346.524 174.586 342 166.19C336.974 156.682 329.534 150.613 319.884 148.084L319.079 147.882L318.577 147.275C311.741 139.891 308.725 130.484 305.709 121.381C302.492 111.468 299.376 102.162 291.937 95.385C271.931 77.4813 236.143 60.6903 219.053 79.302L217.947 80.5158C207.19 92.2493 195.026 105.5 177.936 106.41C172.407 106.714 166.677 106.815 161.148 106.815C144.46 106.916 127.169 107.118 112.391 114.401C107.265 118.447 102.439 123.606 97.2116 130.484C87.1587 143.735 79.9206 156.986 75.6984 169.731C73.9894 174.99 72.9841 180.453 71.8783 186.117L71.5767 187.938C69.9682 196.738 69.9682 204.021 71.5767 210.899L65.8465 210.899C65.1428 207.46 64.7407 203.919 64.7407 200.177C64.9418 196.131 65.3439 191.781 66.2486 187.027Z" fill="#AFB15E"/>
<path d="M49.9631 184.499L50.3652 182.476C51.5715 176.204 52.7779 169.629 54.7885 163.459C59.7144 148.59 68.0583 133.215 79.6191 117.942C85.852 109.748 91.6826 103.578 97.8149 98.7229L98.016 98.5206L98.3176 98.4195C116.011 89.6194 136.016 89.5182 155.418 89.4171C161.852 89.4171 167.984 89.3159 174.016 89.0125C190.704 88.1021 202.868 74.6491 214.73 61.7018L215.836 60.488C238.757 35.3015 282.789 57.7569 305.206 77.8859C314.757 86.3825 318.476 98.116 322.196 109.344C325.312 119.054 328.328 128.259 334.662 135.441C346.524 138.677 356.074 146.567 362.307 158.199C367.937 168.719 370.45 181.869 369.143 194.31L369.143 194.614L368.942 194.816C366.73 201.188 363.212 206.448 359.09 211L351.349 211C356.677 206.044 361 200.379 363.614 193.299C364.72 182.071 362.508 170.236 357.381 160.829C351.651 150.209 343.307 143.33 332.45 140.599L331.646 140.397L331.042 139.79C323.503 131.597 320.085 121.178 316.767 110.962C313.148 99.8356 309.831 89.4171 301.386 81.9319C278.968 61.9041 238.857 43.0901 219.757 64.1294L218.651 65.3432C206.688 78.4928 193.117 93.4631 174.217 94.4746C167.984 94.7781 161.55 94.8792 155.318 94.8792C136.619 94.9803 117.418 95.0815 100.931 103.174C95.2012 107.725 89.7726 113.491 83.9419 121.279C72.6827 136.149 64.6403 150.917 59.9154 165.179C58.0054 171.046 56.8996 177.115 55.6932 183.487L55.2911 185.51C53.4816 195.221 53.4816 203.414 55.2911 211L49.5609 211C48.7567 207.156 48.3546 203.313 48.3546 199.165C48.4551 194.614 48.9578 189.758 49.9631 184.499Z" fill="#AFB15E"/>
<path d="M33.6775 181.869L34.0796 179.542C35.3865 172.563 36.6933 165.482 38.905 158.604C44.3335 142.015 53.2806 125.629 66.3494 108.433C73.1854 99.3298 79.6193 92.6539 86.3547 87.2929L86.5558 87.0906L86.8574 86.9894C106.259 77.3801 128.376 77.279 149.688 77.279C156.926 77.279 163.662 77.279 170.397 76.8744C188.995 75.8629 202.466 60.8926 215.535 46.3269L216.64 45.1131C227.799 32.7727 244.889 29.6371 266.302 36.1107C282.588 41.0671 300.683 51.5867 314.857 64.2306C325.312 73.5364 329.434 86.3825 333.355 98.8241C336.873 109.647 340.09 119.863 347.228 127.854C360.297 131.395 370.852 139.891 377.789 152.737C384.021 164.268 386.736 178.733 385.228 192.388L385.228 192.692L385.127 192.995C382.614 200.076 378.693 205.942 373.968 211L366.127 211C372.058 205.538 376.884 199.267 379.799 191.377C381.106 178.935 378.593 165.786 372.963 155.367C366.63 143.533 357.281 136.047 345.217 133.013L344.413 132.811L343.81 132.204C335.466 123.201 331.746 111.67 328.127 100.442C324.207 88.2032 320.487 76.5709 311.238 68.2766C286.408 46.0235 241.974 25.2876 220.863 48.7545L219.757 49.9684C205.984 65.3432 191.709 81.2239 170.799 82.3365C163.963 82.7411 156.725 82.7411 149.789 82.7411C129.18 82.7411 107.868 82.8423 89.6722 91.7435C83.3388 96.801 77.4076 103.174 70.8732 111.771C58.4076 128.158 49.4605 144.544 44.3335 160.324C42.2224 166.797 41.0161 173.473 39.7092 180.554L39.3071 182.88C37.2965 193.602 37.2965 202.605 39.2066 210.899L33.4764 210.899C32.5716 206.752 32.1695 202.402 32.1695 197.85C32.069 192.995 32.6722 187.634 33.6775 181.869Z" fill="#AFB15E"/>
<path d="M17.4923 179.34L17.9949 176.71C19.4023 169.124 20.8097 161.335 23.2224 153.951C29.1537 135.845 38.905 117.942 53.1801 99.1275C60.7198 89.2147 67.6563 81.8308 75.0955 75.964L75.2965 75.7617L75.5981 75.6606C96.8097 65.1409 120.836 65.2421 144.159 65.2421C152.101 65.2421 159.54 65.2421 166.979 64.8375C187.487 63.7248 202.265 47.1361 216.54 31.1543L217.646 29.9405C229.709 16.3864 248.307 12.9472 271.63 20.0278C289.423 25.3888 309.228 36.9199 324.609 50.6764C335.968 60.7915 340.392 74.8514 344.714 88.4056C348.535 100.341 352.154 111.569 359.995 120.369C374.27 124.112 385.831 133.418 393.371 147.376C400.207 159.919 403.122 175.698 401.513 190.568L401.513 190.871L401.413 191.174C398.397 199.064 394.074 205.437 388.847 211L380.905 211C387.339 205.032 392.667 198.154 395.884 189.556C397.291 175.901 394.577 161.537 388.344 150.006C381.307 137.059 371.053 128.765 357.683 125.528L356.879 125.325L356.275 124.719C347.127 115.008 343.106 102.263 339.185 90.024C334.863 76.5709 330.841 63.9271 320.688 54.8236C305.81 41.4717 286.81 30.4463 269.82 25.2876C255.143 20.837 234.836 18.7128 221.566 33.582L220.461 34.7958C205.381 51.6879 189.9 69.1869 167.08 70.4008C159.54 70.8054 151.598 70.8053 143.958 70.8053C121.439 70.8053 98.1166 70.8054 78.1113 80.5158C71.1748 86.0791 64.6404 93.0585 57.5029 102.465C43.6299 120.673 34.1801 138.07 28.45 155.671C26.1378 162.751 24.8309 170.034 23.323 177.721L22.8203 180.351C20.6087 191.984 20.6087 201.795 22.7198 211L16.9896 211C15.9843 206.448 15.5822 201.795 15.5822 196.839C15.6828 191.377 16.286 185.611 17.4923 179.34Z" fill="#AFB15E"/>
<path d="M7.43915 149.298L7.43915 149.197C14.8783 128.36 25.836 108.433 39.91 89.8217C48.0529 79.0997 55.5926 71.1088 63.6349 64.7363L63.836 64.534L64.1376 64.4329C87.5609 52.9017 114.201 53.0028 140.037 53.104C148.079 53.104 155.82 53.2052 163.36 52.9017C184.672 51.5867 200.153 34.6946 215.032 18.4094C216.138 17.1956 217.243 15.9818 218.349 14.768C230.915 -0.101168 250.921 -3.7426 276.153 4.04599C294.651 9.81157 316.365 22.1519 334.058 37.1222L334.159 37.2234C345.82 48.3499 350.646 63.2191 355.37 77.6836C359.593 90.732 363.614 103.174 372.46 112.884C387.942 116.829 400.508 126.843 408.651 141.914C416.09 155.468 419.307 172.563 417.497 188.646L417.497 188.949L417.397 189.253C414.28 197.85 409.656 204.83 404.026 211L396.286 211C403.021 204.425 408.55 197.041 412.069 187.634C413.577 172.765 410.561 157.087 403.825 144.544C396.185 130.383 384.825 121.482 370.349 117.942L369.545 117.739L368.942 117.132C358.889 106.41 354.466 92.6539 350.143 79.302C345.519 64.9386 341.095 51.4856 330.439 41.2694C313.249 26.8049 292.339 14.8691 274.545 9.30583C251.222 2.02299 233.831 5.05751 222.571 18.3082L222.471 18.4094C221.365 19.6232 220.259 20.837 219.053 22.0508C203.37 39.1452 187.085 56.8466 163.561 58.3638L163.46 58.3638C155.72 58.6673 147.677 58.6673 139.836 58.5661C114.804 58.465 88.8677 58.3638 66.6508 69.1869C59.1111 75.1548 51.9735 82.8423 44.1323 93.0585C30.4603 111.164 19.8042 130.585 12.4656 150.815C9.85187 159.514 7.84128 168.517 6.43387 177.519L6.43387 177.721C3.92062 189.253 3.92062 200.379 6.33334 210.899L0.603149 210.899C0.20105 209.28 -0.100525 207.561 -0.301605 205.841L-0.301605 183.588C3.54625e-07 181.262 0.402131 178.935 0.904755 176.71C2.61377 167.505 4.72488 158.301 7.43915 149.298Z" fill="#AFB15E"/>
</g>
<defs>
<clipPath id="clip0">
<rect width="211" height="418" fill="white" transform="matrix(1.19249e-08 -1 -1 -1.19249e-08 418 211)"/>
</clipPath>
</defs>
</svg>
