<svg width="471" height="367" viewBox="0 0 471 367" fill="none" xmlns="http://www.w3.org/2000/svg">
<path fill-rule="evenodd" clip-rule="evenodd" d="M180.778 0.643599C220.211 2.80205 257.292 19.1704 287.828 44.2163C317.061 68.1932 336.772 101.141 347.508 137.396C358.021 172.898 359.611 210.764 347.512 245.757C335.565 280.311 311.306 309.084 281.052 329.608C251.514 349.646 216.44 360.33 180.778 358.867C146.109 357.445 116.014 339.551 86.3085 321.617C53.6679 301.911 7.43179 287.634 0.642127 250.112C-6.25634 211.989 44.4622 187.999 55.4051 150.835C66.9094 111.764 38.7618 63.2778 64.8613 32.0117C91.1578 0.50954 139.807 -1.59904 180.778 0.643599Z" fill="#77EDDB"/>
<g opacity="0.5" clip-path="url(#clip0)">
<path d="M92.9544 152.208C93.0304 152.34 93.1064 152.471 93.0495 152.68C93.1255 152.811 92.9927 152.888 92.9359 153.096C92.879 153.305 92.7462 153.381 92.6134 153.458C92.4806 153.535 92.3477 153.611 92.1389 153.557C92.0061 153.633 91.9301 153.502 91.7212 153.447C91.5124 153.392 91.3604 153.128 91.2844 152.997C91.2084 152.865 91.1324 152.734 91.2652 152.657C91.3221 152.449 91.3789 152.24 91.5117 152.163C91.6446 152.087 91.7014 151.878 91.9102 151.933C92.0431 151.857 92.1759 151.78 92.2519 151.912C92.4607 151.967 92.6696 152.022 92.7456 152.153C92.8024 151.945 92.8784 152.077 92.9544 152.208Z" fill="black"/>
<path d="M82.5482 142.771C82.605 142.563 82.605 142.563 82.6618 142.355C82.7187 142.146 82.9843 141.993 83.25 141.84C83.6676 141.949 83.9525 142.136 84.3701 142.246C84.4461 142.378 84.5221 142.509 84.4653 142.718L84.4085 142.926C84.2948 143.343 83.8963 143.573 83.5546 143.594C82.9473 143.769 82.5105 143.32 82.5482 142.771Z" fill="black"/>
<path d="M79.5138 147.331C79.4761 147.88 79.0208 148.318 78.6031 148.208C78.0526 148.175 77.6158 147.725 77.7295 147.309C77.7671 146.76 78.2225 146.322 78.6401 146.432C79.1146 146.333 79.5514 146.783 79.5138 147.331Z" fill="black"/>
<path d="M88.796 147.764C88.7583 148.312 88.303 148.751 87.8853 148.641C87.3349 148.608 86.898 148.158 87.0117 147.741C87.0494 147.193 87.5047 146.755 87.9223 146.865C88.4728 146.898 88.8337 147.216 88.796 147.764Z" fill="black"/>
<path d="M74.448 151.133C74.524 151.265 74.6 151.397 74.5432 151.605C74.6192 151.737 74.4863 151.813 74.4295 152.022C74.2398 152.307 73.8414 152.537 73.4997 152.559C73.158 152.58 72.7972 152.262 72.6452 151.999C72.5692 151.867 72.4932 151.736 72.626 151.659C72.6829 151.451 72.7397 151.242 72.8725 151.166C73.0622 150.881 73.3279 150.727 73.7455 150.837C74.0112 150.684 74.296 150.87 74.448 151.133Z" fill="black"/>
<path d="M83.7292 151.567C83.8052 151.698 83.8812 151.83 83.8244 152.038C83.9004 152.17 83.7676 152.247 83.7108 152.455C83.5211 152.74 83.1226 152.97 82.7809 152.992C82.4393 153.014 82.0785 152.695 81.9265 152.432C81.8505 152.301 81.7745 152.169 81.9073 152.092C81.9641 151.884 82.021 151.676 82.1538 151.599C82.3434 151.314 82.6091 151.16 83.0268 151.27C83.4444 151.38 83.5773 151.304 83.7292 151.567Z" fill="black"/>
<path d="M65.9005 141.852C65.8628 142.401 65.4075 142.839 64.9898 142.729C64.4393 142.696 64.0025 142.246 64.1162 141.829L64.173 141.621C64.2867 141.204 64.6852 140.974 65.1597 140.876C65.3685 140.931 65.5773 140.986 65.7293 141.249C65.9381 141.304 65.9573 141.644 65.9005 141.852Z" fill="black"/>
<path d="M61.0059 146.258C60.9683 146.806 60.513 147.245 60.0953 147.135C59.5448 147.102 59.108 146.652 59.2217 146.235C59.2593 145.687 59.7146 145.249 60.1323 145.358C60.6068 145.26 61.0436 145.71 61.0059 146.258Z" fill="black"/>
<path d="M70.2882 146.69C70.2505 147.239 69.7952 147.677 69.3775 147.567C68.827 147.534 68.3902 147.084 68.5039 146.667C68.5416 146.119 68.9969 145.681 69.4145 145.791C69.965 145.824 70.3258 146.142 70.2882 146.69Z" fill="black"/>
<path d="M55.9397 150.06C56.0157 150.192 56.0917 150.323 56.0349 150.532C56.1109 150.663 55.9781 150.74 55.9212 150.948C55.8644 151.157 55.7316 151.233 55.5987 151.31C55.4659 151.387 55.3331 151.463 55.1243 151.408C54.9914 151.485 54.9154 151.354 54.7066 151.299C54.4978 151.244 54.3458 150.98 54.2698 150.849C54.1938 150.717 54.1178 150.585 54.2506 150.509C54.3074 150.3 54.3643 150.092 54.4971 150.015C54.6299 149.939 54.6868 149.73 54.8956 149.785C55.0284 149.709 55.1613 149.632 55.2373 149.764C55.4461 149.819 55.6549 149.874 55.7309 150.005C55.7877 149.797 55.8637 149.928 55.9397 150.06Z" fill="black"/>
<path d="M65.2224 150.493C65.2984 150.624 65.3744 150.756 65.3176 150.964C65.3936 151.096 65.2608 151.173 65.2039 151.381C65.0143 151.666 64.6158 151.896 64.2741 151.918C63.9325 151.939 63.5716 151.621 63.4196 151.358C63.3436 151.226 63.2676 151.095 63.4005 151.018C63.4573 150.81 63.5141 150.601 63.647 150.525C63.8366 150.24 64.1023 150.086 64.5199 150.196C64.7856 150.043 65.0704 150.229 65.2224 150.493Z" fill="black"/>
<path d="M73.3984 142.262C73.4361 141.714 73.8914 141.276 74.3091 141.386C74.8595 141.419 75.2964 141.869 75.1827 142.285C75.145 142.834 74.6897 143.272 74.2721 143.162C73.7216 143.129 73.3608 142.811 73.3984 142.262Z" fill="black"/>
<path d="M92.5427 161.924C92.5619 162.263 92.3722 162.548 92.1065 162.702C91.9737 162.779 91.8409 162.855 91.6321 162.8C91.4992 162.877 91.4232 162.745 91.2144 162.69C90.9296 162.504 90.7016 162.109 90.6824 161.769C90.6633 161.429 90.9857 161.067 91.2514 160.914C91.3842 160.837 91.5171 160.761 91.5931 160.892C91.8019 160.947 92.0107 161.002 92.0867 161.134C92.3715 161.32 92.5235 161.584 92.5427 161.924Z" fill="black"/>
<path d="M99.8321 162.278C99.8889 162.07 99.9458 161.861 100.079 161.785C100.135 161.576 100.401 161.423 100.61 161.478C100.781 162.081 101.085 162.608 101.256 163.211L101.123 163.288C100.991 163.364 100.991 163.364 100.782 163.309C100.782 163.309 100.649 163.386 100.573 163.254C100.155 163.145 99.7944 162.826 99.8321 162.278Z" fill="black"/>
<path d="M96.797 166.838C96.7593 167.387 96.304 167.825 95.8863 167.715C95.3358 167.682 94.899 167.232 95.0127 166.816C95.0503 166.267 95.5057 165.829 95.9233 165.939C96.3978 165.84 96.8346 166.29 96.797 166.838Z" fill="black"/>
<path d="M97.4376 157.517C97.3999 158.066 96.9446 158.504 96.5269 158.394C95.9765 158.361 95.5396 157.911 95.6533 157.495C95.691 156.946 96.1463 156.508 96.564 156.618C97.1144 156.651 97.4753 156.969 97.4376 157.517Z" fill="black"/>
<path d="M91.7317 170.641C91.8077 170.772 91.8837 170.904 91.8269 171.112C91.846 171.452 91.6564 171.737 91.3907 171.891C91.2579 171.967 91.1251 172.044 90.9162 171.989C90.7834 172.066 90.7074 171.934 90.4986 171.879C90.2138 171.693 89.9858 171.298 89.9666 170.958C90.0234 170.749 90.0803 170.541 90.2131 170.464C90.3459 170.388 90.4028 170.179 90.6116 170.234C90.7444 170.158 90.8772 170.081 90.9532 170.213C91.1621 170.268 91.3709 170.322 91.4469 170.454C91.5797 170.377 91.6557 170.509 91.7317 170.641Z" fill="black"/>
<path d="M101.013 171.073C101.089 171.205 101.165 171.337 101.108 171.545C101.071 172.093 100.616 172.532 100.198 172.422C99.6474 172.389 99.2105 171.939 99.3242 171.522C99.381 171.314 99.4379 171.105 99.5707 171.029C99.7604 170.744 100.026 170.59 100.444 170.7C100.577 170.624 100.861 170.81 101.013 171.073Z" fill="black"/>
<path d="M74.0352 160.85C73.9976 161.398 73.5422 161.836 73.1246 161.726C72.5741 161.693 72.1373 161.243 72.251 160.827C72.2886 160.278 72.7439 159.84 73.1616 159.95C73.6361 159.851 74.0729 160.301 74.0352 160.85Z" fill="black"/>
<path d="M83.1847 161.359C83.147 161.907 82.6917 162.345 82.274 162.236C81.7235 162.202 81.2867 161.753 81.4004 161.336C81.438 160.788 81.8934 160.349 82.311 160.459C82.8615 160.492 83.2223 160.811 83.1847 161.359Z" fill="black"/>
<path d="M78.2901 165.765C78.2525 166.313 77.7971 166.751 77.3795 166.641C76.829 166.608 76.3922 166.158 76.5058 165.742C76.5435 165.193 76.9988 164.755 77.4165 164.865C77.891 164.766 78.3278 165.216 78.2901 165.765Z" fill="black"/>
<path d="M78.9298 156.444C78.8921 156.993 78.4368 157.431 78.0191 157.321C77.4686 157.288 77.0318 156.838 77.1455 156.422C77.1832 155.873 77.6385 155.435 78.0561 155.545C78.6066 155.578 78.9674 155.896 78.9298 156.444Z" fill="black"/>
<path d="M87.5714 166.197C87.5337 166.746 87.0784 167.184 86.6607 167.074C86.1102 167.041 85.6734 166.591 85.7871 166.175C85.8248 165.626 86.2801 165.188 86.6977 165.298C87.2482 165.331 87.609 165.649 87.5714 166.197Z" fill="black"/>
<path d="M88.1544 157.085C88.1167 157.634 87.6614 158.072 87.2437 157.962C86.6933 157.929 86.2564 157.479 86.3701 157.062C86.4078 156.514 86.8631 156.076 87.2808 156.186C87.7552 156.087 88.1921 156.537 88.1544 157.085Z" fill="black"/>
<path d="M73.2233 169.567C73.2993 169.699 73.3753 169.83 73.3184 170.039C73.2808 170.587 72.8255 171.025 72.4078 170.915C71.8573 170.882 71.4205 170.432 71.5342 170.016C71.591 169.807 71.6478 169.599 71.7807 169.522C71.9703 169.237 72.236 169.084 72.6536 169.194C72.7865 169.117 73.0713 169.304 73.2233 169.567Z" fill="black"/>
<path d="M82.5055 170C82.5815 170.132 82.6575 170.263 82.6007 170.472C82.563 171.02 82.1077 171.458 81.69 171.348C81.1395 171.315 80.7027 170.865 80.8164 170.449C80.8732 170.24 80.9301 170.032 81.0629 169.955C81.2525 169.67 81.5182 169.517 81.9359 169.627C82.0687 169.55 82.3535 169.737 82.5055 170Z" fill="black"/>
<path d="M55.4509 159.644C55.4701 159.984 55.2804 160.269 55.0148 160.423C54.8819 160.499 54.7491 160.576 54.5403 160.521C54.4074 160.598 54.3314 160.466 54.1226 160.411C53.8378 160.225 53.6098 159.83 53.5906 159.49C53.5715 159.15 53.894 158.788 54.1596 158.635C54.2924 158.558 54.4253 158.481 54.5013 158.613C54.7101 158.668 54.9189 158.723 54.9949 158.854C55.3558 159.173 55.5077 159.436 55.4509 159.644Z" fill="black"/>
<path d="M64.677 160.285C64.6393 160.834 64.184 161.272 63.7663 161.162C63.3487 161.052 62.779 160.679 62.8927 160.263C62.9304 159.714 63.3857 159.276 63.8033 159.386C64.2778 159.287 64.7147 159.737 64.677 160.285Z" fill="black"/>
<path d="M59.7052 164.559C59.6675 165.108 59.2122 165.546 58.7945 165.436C58.244 165.403 57.8072 164.953 57.9209 164.537C57.9585 163.988 58.4139 163.55 58.8315 163.66C59.382 163.693 59.8188 164.143 59.7052 164.559Z" fill="black"/>
<path d="M60.422 155.37C60.3843 155.919 59.929 156.357 59.5113 156.247C58.9608 156.214 58.524 155.764 58.6377 155.347C58.6753 154.799 59.1307 154.361 59.5483 154.471C60.0228 154.372 60.4596 154.822 60.422 155.37Z" fill="black"/>
<path d="M69.0645 165.123C69.0269 165.672 68.5715 166.11 68.1539 166C67.6034 165.967 67.1666 165.517 67.2803 165.101C67.3179 164.552 67.7732 164.114 68.1909 164.224C68.6654 164.125 69.1022 164.575 69.0645 165.123Z" fill="black"/>
<path d="M69.6476 156.011C69.6099 156.56 69.1546 156.998 68.7369 156.888C68.1864 156.855 67.7496 156.405 67.8633 155.988C67.9009 155.44 68.3563 155.002 68.7739 155.112C69.2484 155.013 69.6852 155.463 69.6476 156.011Z" fill="black"/>
<path d="M54.6399 168.362C54.7159 168.494 54.7919 168.625 54.7351 168.834C54.7542 169.174 54.5646 169.459 54.2989 169.612C54.1661 169.689 54.0333 169.765 53.8244 169.71C53.6916 169.787 53.6156 169.655 53.4068 169.6C53.122 169.414 52.894 169.019 52.8748 168.679C52.9316 168.471 52.9885 168.262 53.1213 168.186C53.2541 168.109 53.311 167.901 53.5198 167.956C53.6526 167.879 53.7854 167.802 53.8614 167.934C54.0703 167.989 54.2791 168.044 54.3551 168.175C54.5639 168.23 54.6399 168.362 54.6399 168.362Z" fill="black"/>
<path d="M63.9977 168.926C64.0737 169.058 64.1497 169.189 64.0929 169.398C64.0552 169.946 63.5999 170.384 63.1822 170.275C62.6317 170.241 62.1949 169.791 62.3086 169.375C62.3654 169.167 62.4222 168.958 62.5551 168.881C62.7447 168.596 63.0104 168.443 63.428 168.553C63.5609 168.476 63.8457 168.663 63.9977 168.926Z" fill="black"/>
<path d="M46.1694 159.211C46.2646 159.683 45.7333 159.99 45.2588 160.088C44.7083 160.055 44.2715 159.605 44.3852 159.189C44.4228 158.64 44.8782 158.202 45.2958 158.312C45.7703 158.213 46.2071 158.663 46.1694 159.211Z" fill="black"/>
<path d="M41.1984 163.486C41.1415 163.694 41.2175 163.826 41.0847 163.902C40.895 164.187 40.6294 164.341 40.2877 164.362C40.4582 163.737 40.7047 163.244 40.8752 162.619C41.16 162.806 41.388 163.201 41.1984 163.486Z" fill="black"/>
<path d="M50.5557 164.05C50.5181 164.598 50.0628 165.037 49.6451 164.927C49.0946 164.894 48.6578 164.444 48.7715 164.027C48.8091 163.479 49.2644 163.041 49.6821 163.151C50.1566 163.052 50.5934 163.502 50.5557 164.05Z" fill="black"/>
<path d="M51.0645 154.805C51.0269 155.354 50.5716 155.792 50.1539 155.682C49.6034 155.649 49.1666 155.199 49.2803 154.782C49.3179 154.234 49.7732 153.796 50.1909 153.906C50.7414 153.939 51.1782 154.389 51.0645 154.805Z" fill="black"/>
<path d="M45.4899 167.853C45.5659 167.984 45.6419 168.116 45.5851 168.324C45.5474 168.872 45.0921 169.311 44.5416 169.278C43.9911 169.244 43.5543 168.795 43.6679 168.378C43.7248 168.17 43.7816 167.961 43.9144 167.885C44.1041 167.6 44.3698 167.446 44.7874 167.556C45.0531 167.403 45.3379 167.589 45.4899 167.853Z" fill="black"/>
<path d="M127.237 191.035C127.446 191.09 127.598 191.353 127.617 191.693C127.617 191.693 127.693 191.825 127.56 191.901L127.503 192.11C127.503 192.11 127.371 192.186 127.447 192.318C127.39 192.526 127.257 192.603 127.124 192.68C126.991 192.756 126.858 192.833 126.65 192.778C126.517 192.855 126.441 192.723 126.232 192.668C126.023 192.613 125.871 192.35 125.795 192.218C125.719 192.087 125.643 191.955 125.776 191.878C125.776 191.878 125.7 191.747 125.833 191.67C125.89 191.462 126.079 191.177 126.345 191.023C126.478 190.947 126.611 190.87 126.687 191.002C126.687 191.002 126.687 191.002 126.819 190.925C126.952 190.848 127.161 190.903 127.237 191.035Z" fill="black"/>
<path d="M109.693 181.507C109.656 182.055 109.2 182.494 108.783 182.384C108.232 182.351 107.795 181.901 107.909 181.484C107.947 180.936 108.402 180.498 108.82 180.607C109.427 180.432 109.731 180.959 109.693 181.507Z" fill="black"/>
<path d="M114.081 186.345C114.043 186.893 113.588 187.332 113.17 187.222C112.62 187.188 112.183 186.739 112.297 186.322C112.335 185.774 112.79 185.335 113.207 185.445C113.682 185.347 114.119 185.797 114.081 186.345Z" fill="black"/>
<path d="M123.231 186.854C123.193 187.402 122.738 187.841 122.32 187.731C121.769 187.698 121.333 187.248 121.446 186.831C121.427 186.491 121.75 186.13 122.015 185.976C122.148 185.9 122.281 185.823 122.357 185.954C122.907 185.988 123.268 186.306 123.231 186.854Z" fill="black"/>
<path d="M109.034 190.487C109.034 190.487 109.11 190.619 108.977 190.696C109.053 190.827 108.92 190.904 108.863 191.112C108.673 191.397 108.275 191.627 107.933 191.649C107.592 191.671 107.231 191.353 107.079 191.09C107.003 190.958 106.927 190.826 107.06 190.75C107.06 190.75 106.984 190.618 107.116 190.541C107.23 190.125 107.629 189.895 108.103 189.796C108.71 189.621 109.071 189.939 109.034 190.487Z" fill="black"/>
<path d="M118.393 191.052C118.393 191.052 118.469 191.183 118.336 191.26C118.412 191.392 118.279 191.468 118.222 191.677C118.033 191.962 117.634 192.192 117.293 192.213C116.951 192.235 116.59 191.917 116.438 191.654C116.362 191.522 116.286 191.39 116.419 191.314C116.419 191.314 116.343 191.182 116.476 191.105C116.59 190.689 116.988 190.459 117.463 190.36C117.937 190.262 118.298 190.58 118.393 191.052Z" fill="black"/>
<path d="M91.3191 180.357C91.3382 180.696 91.1486 180.981 90.8829 181.135C90.7501 181.212 90.6172 181.288 90.4084 181.233C90.2756 181.31 90.1996 181.178 89.9908 181.123C89.7059 180.937 89.4779 180.542 89.4588 180.202C89.4396 179.862 89.7621 179.5 90.0278 179.347C90.1606 179.27 90.2934 179.194 90.3694 179.325C90.5783 179.38 90.7871 179.435 90.8631 179.567C91.1479 179.753 91.2999 180.017 91.3191 180.357Z" fill="black"/>
<path d="M100.468 180.866C100.43 181.414 99.9749 181.853 99.5572 181.743C99.0067 181.709 98.5699 181.26 98.6836 180.843C98.7212 180.295 99.1766 179.856 99.5942 179.966C100.145 179.999 100.506 180.318 100.468 180.866Z" fill="black"/>
<path d="M95.5733 185.272C95.5357 185.82 95.0803 186.258 94.6627 186.148C94.1122 186.115 93.6754 185.665 93.789 185.249C93.8267 184.7 94.282 184.262 94.6997 184.372C95.1742 184.273 95.611 184.723 95.5733 185.272Z" fill="black"/>
<path d="M96.214 175.951C96.1763 176.499 95.721 176.937 95.3033 176.827C94.7528 176.794 94.316 176.344 94.4297 175.928C94.4673 175.38 94.9227 174.941 95.3403 175.051C95.8908 175.084 96.1188 175.479 96.214 175.951Z" fill="black"/>
<path d="M104.723 185.781C104.685 186.329 104.23 186.768 103.812 186.658C103.262 186.625 102.825 186.175 102.938 185.758C102.976 185.21 103.431 184.771 103.849 184.881C104.532 184.838 104.76 185.233 104.723 185.781Z" fill="black"/>
<path d="M105.44 176.592C105.402 177.14 104.947 177.578 104.529 177.468C103.978 177.435 103.542 176.985 103.655 176.569C103.693 176.021 104.148 175.582 104.566 175.692C105.04 175.594 105.477 176.043 105.44 176.592Z" fill="black"/>
<path d="M90.6601 189.337C90.6601 189.337 90.7361 189.469 90.6032 189.545C90.6792 189.677 90.5464 189.754 90.4896 189.962C90.4327 190.17 90.2999 190.247 90.1671 190.324C90.0343 190.4 89.9014 190.477 89.6926 190.422C89.5598 190.499 89.4838 190.367 89.275 190.312C89.0661 190.257 88.9141 189.994 88.8381 189.862C88.7621 189.731 88.6861 189.599 88.819 189.522C88.819 189.522 88.743 189.391 88.8758 189.314C88.9326 189.106 89.1223 188.821 89.3879 188.667C89.5208 188.591 89.6536 188.514 89.7296 188.646C89.9384 188.701 90.1472 188.756 90.2232 188.887C90.4321 188.942 90.5081 189.074 90.6601 189.337Z" fill="black"/>
<path d="M99.8842 189.979C99.8842 189.979 99.9602 190.11 99.8273 190.187C99.9033 190.319 99.7705 190.395 99.7137 190.604C99.524 190.889 99.1255 191.119 98.7839 191.14C98.4422 191.162 98.0814 190.844 97.9294 190.581C97.8534 190.449 97.7774 190.317 97.9102 190.241C97.9102 190.241 97.8342 190.109 97.9671 190.032C98.0807 189.616 98.4792 189.386 98.9537 189.287C99.4282 189.189 99.789 189.507 99.8842 189.979Z" fill="black"/>
<path d="M72.7354 179.151C72.6978 179.699 72.2424 180.138 71.8248 180.028C71.2743 179.994 70.8375 179.545 70.9512 179.128C70.9888 178.58 71.4441 178.141 71.8618 178.251C72.4123 178.284 72.7163 178.811 72.7354 179.151Z" fill="black"/>
<path d="M81.961 179.792C81.9234 180.34 81.468 180.779 81.0504 180.669C80.4999 180.636 80.0631 180.186 80.1767 179.769C80.2144 179.221 80.6697 178.782 81.0874 178.892C81.5619 178.794 81.9987 179.244 81.961 179.792Z" fill="black"/>
<path d="M76.9903 184.066C76.9527 184.614 76.4973 185.053 76.0797 184.943C75.5292 184.91 75.0924 184.46 75.206 184.043C75.2437 183.495 75.699 183.056 76.1167 183.166C76.6672 183.199 77.104 183.649 76.9903 184.066Z" fill="black"/>
<path d="M77.7063 174.877C77.6686 175.425 77.2133 175.863 76.7957 175.754C76.1123 175.797 75.8083 175.271 75.846 174.722C75.8837 174.174 76.339 173.736 76.7567 173.845C77.3071 173.879 77.6111 174.405 77.7063 174.877Z" fill="black"/>
<path d="M86.3477 184.631C86.3101 185.179 85.8548 185.617 85.4371 185.507C84.8866 185.474 84.4498 185.024 84.5635 184.608C84.6011 184.059 85.0564 183.621 85.4741 183.731C85.9486 183.632 86.2526 184.159 86.3477 184.631Z" fill="black"/>
<path d="M86.9317 175.518C86.8941 176.066 86.4387 176.504 86.0211 176.394C85.4706 176.361 85.0338 175.911 85.1474 175.495C85.1851 174.946 85.6404 174.508 86.0581 174.618C86.5326 174.52 86.9694 174.969 86.9317 175.518Z" fill="black"/>
<path d="M72.1518 188.264C72.1518 188.264 72.2278 188.395 72.0949 188.472C72.1709 188.604 72.0381 188.68 71.9813 188.889C71.7916 189.174 71.3931 189.404 71.0515 189.425C70.7098 189.447 70.349 189.129 70.197 188.866C70.121 188.734 70.045 188.602 70.1778 188.526C70.1778 188.526 70.1018 188.394 70.2346 188.317C70.3483 187.901 70.7468 187.671 71.2213 187.572C71.6958 187.474 72.0566 187.792 72.1518 188.264Z" fill="black"/>
<path d="M81.3012 188.772C81.3012 188.772 81.3772 188.904 81.2443 188.981C81.3203 189.112 81.1875 189.189 81.1307 189.397C80.941 189.682 80.5425 189.913 80.2009 189.934C79.8592 189.956 79.4984 189.638 79.3464 189.375C79.2704 189.243 79.1944 189.111 79.3272 189.035C79.3272 189.035 79.2512 188.903 79.3841 188.826C79.4977 188.41 79.8962 188.18 80.3707 188.081C80.9212 188.114 81.282 188.433 81.3012 188.772Z" fill="black"/>
<path d="M54.2273 178.077C54.2464 178.417 54.0568 178.702 53.7911 178.856C53.6583 178.932 53.5255 179.009 53.3166 178.954C53.1838 179.031 53.1078 178.899 52.899 178.844C52.6141 178.658 52.3862 178.263 52.367 177.923C52.3478 177.583 52.6703 177.221 52.936 177.068C53.0688 176.991 53.2016 176.914 53.2776 177.046C53.4865 177.101 53.6953 177.156 53.7713 177.287C54.0561 177.474 54.2841 177.869 54.2273 178.077Z" fill="black"/>
<path d="M63.4522 178.719C63.4146 179.267 62.9592 179.705 62.5416 179.596C61.9911 179.562 61.5543 179.113 61.6679 178.696C61.7056 178.148 62.1609 177.709 62.5786 177.819C63.0531 177.721 63.4899 178.17 63.4522 178.719Z" fill="black"/>
<path d="M58.4825 182.992C58.4448 183.54 57.9895 183.979 57.5719 183.869C57.0214 183.836 56.5846 183.386 56.6982 182.969C56.7359 182.421 57.1912 181.982 57.6089 182.092C58.1594 182.125 58.5962 182.575 58.4825 182.992Z" fill="black"/>
<path d="M59.1983 173.803C59.1607 174.351 58.7053 174.79 58.2877 174.68C57.7372 174.647 57.3004 174.197 57.414 173.78C57.4517 173.232 57.907 172.793 58.3247 172.903C58.7992 172.805 59.236 173.255 59.1983 173.803Z" fill="black"/>
<path d="M67.8399 183.557C67.8023 184.105 67.3469 184.543 66.9293 184.433C66.3788 184.4 65.942 183.95 66.0556 183.534C66.0933 182.985 66.5486 182.547 66.9663 182.657C67.4408 182.558 67.7448 183.085 67.8399 183.557Z" fill="black"/>
<path d="M68.3477 174.313C68.3101 174.861 67.8548 175.299 67.4371 175.19C66.8866 175.156 66.4498 174.707 66.5635 174.29C66.6011 173.742 67.0564 173.303 67.4741 173.413C68.0246 173.446 68.4614 173.896 68.3477 174.313Z" fill="black"/>
<path d="M53.6445 187.189C53.6445 187.189 53.7205 187.321 53.5876 187.398C53.6636 187.529 53.5308 187.606 53.474 187.814C53.4171 188.023 53.2843 188.099 53.1515 188.176C53.0186 188.253 52.8858 188.329 52.677 188.275C52.5442 188.351 52.4682 188.22 52.2593 188.165C52.0505 188.11 51.8985 187.846 51.8225 187.715C51.7465 187.583 51.6705 187.452 51.8033 187.375C51.8033 187.375 51.7273 187.243 51.8602 187.167C51.917 186.958 52.1067 186.673 52.3723 186.52C52.5051 186.443 52.638 186.366 52.714 186.498C52.9228 186.553 53.1316 186.608 53.2076 186.74C53.4165 186.795 53.4925 186.926 53.6445 187.189Z" fill="black"/>
<path d="M62.7934 187.699C62.7934 187.699 62.8694 187.831 62.7365 187.907C62.8125 188.039 62.6797 188.116 62.6229 188.324C62.4332 188.609 62.0347 188.839 61.6931 188.861C61.3514 188.883 60.9906 188.564 60.8386 188.301C60.7626 188.169 60.6866 188.038 60.8194 187.961C60.8194 187.961 60.7434 187.829 60.8762 187.753C60.9899 187.336 61.3884 187.106 61.8629 187.008C62.4134 187.041 62.7742 187.359 62.7934 187.699Z" fill="black"/>
<path d="M44.9454 177.644C44.9077 178.193 44.4524 178.631 44.0348 178.521C43.4843 178.488 43.0474 178.038 43.1611 177.622C43.1988 177.073 43.6541 176.635 44.0718 176.745C44.5462 176.646 44.9831 177.096 44.9454 177.644Z" fill="black"/>
<path d="M39.9743 181.918C40.0503 182.05 39.9174 182.127 39.8606 182.335C39.8038 182.543 39.5381 182.697 39.2725 182.85C39.1013 182.247 38.9301 181.644 38.759 181.041C38.759 181.041 38.8918 180.964 38.9678 181.096C39.1766 181.15 39.3855 181.205 39.4615 181.337C39.9359 181.239 39.9551 181.579 39.9743 181.918Z" fill="black"/>
<path d="M40.6913 172.729C40.6537 173.278 40.1983 173.716 39.7807 173.606C39.439 173.628 39.363 173.496 39.1542 173.441C38.8694 173.255 38.7174 172.991 38.831 172.575C38.8119 172.235 39.0015 171.95 39.4 171.72C39.5329 171.643 39.6657 171.566 39.8745 171.621C40.2922 171.731 40.729 172.181 40.6913 172.729Z" fill="black"/>
<path d="M49.3331 182.483C49.2954 183.031 48.8401 183.469 48.4225 183.359C47.872 183.326 47.4351 182.876 47.5488 182.46C47.3776 181.856 47.909 181.55 48.3835 181.451C48.9339 181.484 49.3708 181.934 49.3331 182.483Z" fill="black"/>
<path d="M49.8409 173.239C49.8032 173.787 49.3479 174.225 48.9303 174.116C48.3798 174.082 47.943 173.633 48.0566 173.216C48.0943 172.668 48.5496 172.229 48.9673 172.339C49.5177 172.372 49.9546 172.822 49.8409 173.239Z" fill="black"/>
<path d="M44.2855 186.626C44.2855 186.626 44.3615 186.757 44.2287 186.834C44.3047 186.965 44.1719 187.042 44.115 187.25C43.9254 187.535 43.5269 187.766 43.1852 187.787C42.8436 187.809 42.4828 187.491 42.3308 187.228C42.2548 187.096 42.1788 186.964 42.3116 186.888C42.3116 186.888 42.2356 186.756 42.3684 186.679C42.4821 186.263 42.8806 186.033 43.3551 185.934C43.8296 185.836 44.2664 186.286 44.2855 186.626Z" fill="black"/>
<path d="M126.978 201.013C126.997 201.353 126.808 201.638 126.542 201.791C126.409 201.868 126.276 201.945 126.068 201.89C125.935 201.967 125.859 201.835 125.65 201.78C125.365 201.593 125.137 201.199 125.118 200.859C125.099 200.519 125.421 200.157 125.687 200.004C125.82 199.927 125.953 199.85 126.029 199.982C126.237 200.037 126.446 200.092 126.522 200.223C126.94 200.333 126.959 200.673 126.978 201.013Z" fill="black"/>
<path d="M108.451 199.6C108.527 199.731 108.527 199.731 108.394 199.808C108.337 200.016 108.413 200.148 108.28 200.225L108.147 200.301C107.919 199.906 107.767 199.643 107.539 199.248C107.463 199.117 107.311 198.853 107.235 198.722C107.368 198.645 107.368 198.645 107.577 198.7C107.786 198.755 107.995 198.81 108.071 198.941C108.223 199.205 108.508 199.391 108.451 199.6Z" fill="black"/>
<path d="M117.752 200.372C117.714 200.921 117.259 201.359 116.841 201.249C116.291 201.216 115.854 200.766 115.968 200.35C116.005 199.801 116.461 199.363 116.878 199.473C117.429 199.506 117.79 199.824 117.752 200.372Z" fill="black"/>
<path d="M112.857 204.778C112.876 205.118 112.553 205.48 112.288 205.633L112.155 205.71C112.155 205.71 112.022 205.787 111.946 205.655C111.396 205.622 110.959 205.172 111.072 204.755C110.996 204.624 111.129 204.547 111.186 204.339L111.319 204.262C111.509 203.977 111.774 203.824 112.192 203.934C112.458 203.78 112.894 204.23 112.857 204.778Z" fill="black"/>
<path d="M113.364 195.534C113.327 196.082 112.871 196.521 112.454 196.411C111.903 196.378 111.466 195.928 111.58 195.511C111.618 194.963 112.073 194.525 112.491 194.634C113.041 194.668 113.402 194.986 113.364 195.534Z" fill="black"/>
<path d="M122.007 205.288C121.969 205.836 121.514 206.274 121.096 206.165C120.546 206.131 120.109 205.681 120.223 205.265C120.26 204.717 120.716 204.278 121.133 204.388C121.684 204.421 122.045 204.739 122.007 205.288Z" fill="black"/>
<path d="M122.724 196.098C122.686 196.646 122.231 197.085 121.813 196.975C121.263 196.942 120.826 196.492 120.939 196.075C120.977 195.527 121.432 195.089 121.85 195.198C122.325 195.1 122.761 195.55 122.724 196.098Z" fill="black"/>
<path d="M116.941 209.09C117.017 209.222 117.093 209.353 117.036 209.562C117.112 209.693 117.055 209.902 116.998 210.11L116.865 210.187C116.448 210.077 115.954 209.835 115.593 209.517C115.517 209.385 115.384 209.462 115.308 209.33C115.308 209.33 115.365 209.122 115.498 209.045C115.631 208.969 115.631 208.969 115.764 208.892C115.897 208.815 116.162 208.662 116.371 208.717C116.504 208.64 116.789 208.827 116.941 209.09Z" fill="black"/>
<path d="M104.121 194.553C104.197 194.685 104.197 194.685 104.14 194.893C104.083 195.101 104.083 195.101 104.026 195.31C103.666 194.991 103.172 194.75 102.602 194.377C102.602 194.377 102.526 194.245 102.394 194.322C102.583 194.037 102.716 193.96 103.058 193.938C103.058 193.938 103.058 193.938 103.19 193.862C103.684 194.103 103.969 194.29 104.121 194.553Z" fill="black"/>
<path d="M71.5118 197.584C71.4741 198.132 71.0188 198.571 70.6012 198.461C70.0507 198.428 69.6139 197.978 69.7275 197.561C69.7652 197.013 70.2205 196.575 70.6382 196.684C71.1887 196.718 71.4926 197.244 71.5118 197.584Z" fill="black"/>
<path d="M76.4825 193.31C76.4448 193.858 75.9895 194.296 75.5719 194.186C75.0214 194.153 74.5846 193.703 74.6982 193.287C74.7359 192.739 75.1912 192.3 75.6089 192.41C76.0834 192.312 76.3873 192.838 76.4825 193.31Z" fill="black"/>
<path d="M85.6326 193.819C85.7086 193.95 85.5757 194.027 85.5757 194.027C85.4621 194.444 85.1396 194.805 84.5891 194.772C84.3803 194.717 84.3803 194.717 84.1714 194.662C84.0954 194.531 83.9626 194.607 83.8866 194.476C83.7346 194.213 83.6586 194.081 83.6394 193.741C83.6771 193.193 84.1324 192.754 84.5501 192.864C85.3094 192.952 85.6702 193.271 85.6326 193.819Z" fill="black"/>
<path d="M53.0046 196.51C53.0238 196.85 52.8341 197.135 52.5685 197.288C52.4356 197.365 52.3028 197.442 52.094 197.387C51.9612 197.464 51.8852 197.332 51.6763 197.277C51.2587 197.167 51.1067 196.904 51.2203 196.487C51.2012 196.147 51.5237 195.785 51.7893 195.632C51.9222 195.555 52.055 195.479 52.131 195.61C52.3398 195.665 52.5486 195.72 52.6246 195.852C52.8335 195.907 53.0615 196.302 53.0046 196.51Z" fill="black"/>
<path d="M62.2296 197.151C62.1919 197.699 61.7366 198.138 61.3189 198.028C60.7684 197.994 60.3316 197.545 60.4453 197.128C60.483 196.58 60.9383 196.141 61.3559 196.251C61.8304 196.153 62.2672 196.603 62.2296 197.151Z" fill="black"/>
<path d="M56.3853 200.526C56.7269 200.504 56.8029 200.635 57.0118 200.69C56.8029 200.635 56.5941 200.58 56.3853 200.526Z" fill="black"/>
<path d="M57.9747 192.236C57.937 192.785 57.4817 193.223 57.0641 193.113C56.5136 193.08 56.0767 192.63 56.1904 192.214C56.2281 191.665 56.6834 191.227 57.1011 191.337C57.5755 191.238 57.8795 191.765 57.9747 192.236Z" fill="black"/>
<path d="M66.5402 201.858C65.9897 201.825 65.5153 201.924 64.8319 201.967C64.8319 201.967 64.6991 202.044 64.6231 201.912C64.6799 201.704 64.7368 201.496 64.9264 201.211C65.1921 201.057 65.3249 200.981 65.5338 201.035C65.8754 201.014 66.0842 201.069 66.1602 201.2C66.3691 201.255 66.5211 201.518 66.5402 201.858Z" fill="black"/>
<path d="M67.1241 192.746C67.0864 193.294 66.6311 193.733 66.2135 193.623C65.663 193.59 65.2262 193.14 65.3398 192.723C65.3775 192.175 65.8328 191.736 66.2505 191.846C66.8009 191.88 67.2378 192.329 67.1241 192.746Z" fill="black"/>
<path d="M48.6163 191.672C48.5786 192.22 48.1233 192.659 47.7057 192.549C47.1552 192.515 46.7183 192.066 46.832 191.649C46.8697 191.101 47.325 190.662 47.7426 190.772C48.2931 190.805 48.654 191.124 48.6163 191.672Z" fill="black"/>
</g>
<g clip-path="url(#clip1)">
<path d="M128.113 336.669C151.631 358.74 180.854 365.265 211.678 366.931C223.019 367.555 233.804 364.501 243.267 358.116C250.364 353.327 258.644 351.175 265.95 347.01C277.43 340.417 287.658 332.435 295.173 321.399C296.077 320.08 297.121 319.455 298.652 319.733C308.323 321.538 314.377 316.679 319.108 308.975C320.917 306.059 323.144 303.353 326.414 301.756C327.249 301.34 327.945 300.368 328.501 299.535C331.841 294.468 334.416 289.124 335.946 283.224C334.207 282.6 333.094 283.849 331.841 284.543C323.631 289.54 314.933 293.705 306.027 298.078C306.653 289.887 306.236 281.975 304.775 274.201C303.592 267.538 301.505 261.152 298.234 255.253C297.051 253.17 297.26 251.643 299 250.116C307.628 242.62 315.351 234.083 323.909 226.448C324.814 225.685 325.718 224.921 325.788 223.672C322.1 216.939 315.699 216.315 311.106 220.41C310.759 220.687 310.411 221.034 309.993 221.243C309.019 221.867 307.975 221.937 307.21 220.965C306.514 219.993 307.21 219.23 307.767 218.536C311.385 213.955 319.804 213.261 324.814 217.009C326.205 218.05 327.179 219.577 328.849 220.271C331.702 219.716 333.163 217.633 334.346 215.274C333.581 211.04 331.076 207.708 328.571 204.376C318.343 190.772 307.558 177.585 297.678 163.773C293.016 157.248 287.519 151.834 280.631 147.809C278.543 146.559 276.526 145.171 274.577 143.714C272.977 142.811 273.812 140.729 272.768 139.549C270.89 140.66 269.081 141.631 267.202 139.549C258.017 134.552 248.763 129.901 238.535 127.542C236.309 127.056 234.569 125.806 233.039 124.141C229.212 120.115 224.898 116.644 220.375 113.452C219.262 112.758 218.149 112.064 217.105 111.3C215.226 110.259 213.626 108.801 211.817 107.691C209.312 106.719 206.738 106.441 204.094 106.58C203.676 106.789 203.259 107.205 203.398 107.691C204.302 110.398 203.05 112.064 200.754 113.313C200.267 113.591 199.919 114.146 200.267 114.77C201.171 115.395 202.006 115.256 202.911 114.77C198.318 117.13 193.17 117.616 188.438 119.282C188.299 119.56 188.299 119.907 188.369 120.184C188.577 120.531 189.412 120.878 189.204 121.017C187.047 122.336 178.836 121.017 176.679 119.074C176.54 118.588 176.401 118.171 176.123 117.755C174.105 116.228 171.67 115.395 169.652 113.938C168.33 112.966 167.217 111.855 166.869 110.19C165.895 108.385 164.781 106.719 163.529 105.123C159.563 103.665 155.736 101.652 151.352 102.346C149.543 104.637 146.76 105.331 144.395 106.719C125.747 117.686 110.927 132.123 102.508 152.32C98.9592 160.788 98.8201 169.881 98.0547 178.834C97.011 191.814 96.5239 204.862 93.9495 217.703C92.9058 222.908 91.3751 227.975 88.731 232.695C85.8087 238.039 84.6259 243.939 84.278 249.978C82.956 271.633 87.8961 291.692 100.768 309.461C104.178 313.209 108.77 314.666 113.362 316.054C114.823 316.471 115.519 315.013 116.006 313.833C117.119 311.196 118.302 308.558 119.207 305.782C121.364 300.299 126.165 297.036 131.801 297.383C137.437 297.731 142.238 301.687 143.49 307.101C143.768 308.281 144.395 309.808 142.794 310.432C141.055 311.057 140.428 309.669 140.011 308.211C139.037 304.394 136.741 301.895 132.705 301.27C128.461 300.576 125.26 302.311 123.034 305.851C122.268 307.031 121.433 308.072 120.25 308.836C119.624 315.36 121.99 316.957 130.061 315.152C130.479 316.401 129.644 317.304 129.296 318.275C127.348 322.926 127.487 323.203 131.661 326.118C132.705 326.813 133.888 327.298 134.584 328.617C133.262 329.519 131.731 329.381 130.339 329.658C128.739 329.936 126.791 330.005 126.304 331.741C125.817 333.476 126.095 335.489 128.113 336.669Z" fill="#3D97E6"/>
<path d="M217.244 111.925C218.149 112.549 219.053 113.174 219.958 113.799C225.663 115.534 231.647 115.326 237.422 115.465C248.068 115.673 258.644 117.061 269.289 116.992C271.794 116.992 272.42 118.38 272.351 120.531C272.281 125.043 271.238 129.485 271.725 133.997C272.003 135.94 271.238 138.022 272.56 139.827C273.255 141.215 271.655 143.367 274.021 144.2C275.691 142.326 275.343 140.174 274.856 138.022C274.438 136.287 274.369 134.691 274.717 132.955C274.856 127.542 274.856 122.128 275.064 116.645C275.134 114.84 274.647 114.285 272.768 114.285C269.429 114.285 265.741 114.77 262.818 113.521C260.035 112.341 260.383 107.899 257.739 105.331C262.888 105.331 267.967 105.262 273.116 105.4C275.273 105.47 276.108 105.053 276.178 102.624C276.804 79.997 277.5 57.3005 278.404 34.6734C278.543 31.6888 277.639 31.4112 274.995 31.55C259.409 32.4523 243.754 33.1464 228.098 33.9099C226.707 33.9793 225.454 34.1875 224.272 32.8688C219.61 27.8714 213.487 26.275 207.016 25.7891C204.998 25.6503 203.189 25.1645 201.38 24.3316C193.726 21.0694 185.864 19.82 177.653 22.0411C170.417 23.9845 165.547 28.4266 162.763 35.3675C159.772 43.0718 158.937 43.3494 150.587 42.5859C144.186 41.9612 138.48 43.9741 133.54 48.1386C131.105 50.2208 129.852 52.8583 129.852 56.0511C129.852 57.9945 129.922 60.0074 129.992 61.9508C130.2 68.1976 128.6 70.3492 122.407 71.3903C113.919 72.7785 106.265 76.1101 99.3072 81.1769C98.4026 81.871 97.4981 82.6345 96.1761 83.6756C103.621 86.8684 110.718 89.8529 117.815 92.9069C118.998 93.3927 119.555 92.6292 120.111 91.9352C121.503 90.2694 122.895 88.6036 124.634 86.5907C125.33 87.9095 125.678 88.3259 125.678 88.7424C125.956 94.6421 129.365 97.0714 135.001 97.9737C140.429 98.8066 145.786 100.681 151.144 102.138C155.179 103.249 159.145 104.359 163.181 105.4C167.773 108.385 169.652 108.038 172.644 103.665C177.793 96.2385 180.437 88.2565 177.932 79.1641C177.514 77.5677 177.445 75.9713 177.514 74.3749C177.653 67.1564 181.272 62.7837 188.438 62.7837C196.649 62.7837 203.189 59.7298 209.103 54.3853C211.191 52.5113 213.069 52.9277 214.391 55.357C214.809 56.0511 215.087 56.8146 215.157 57.6475C215.365 61.5344 215.296 65.4212 216.2 69.3081C214.322 69.7939 211.886 68.1976 211.33 70.3492C210.773 72.4315 213.348 72.4315 214.67 73.1255C219.192 75.7631 220.375 79.7887 218.009 84.5085C214.878 90.6164 210.773 95.6832 204.581 99.0842C201.032 100.958 200.893 103.735 203.815 106.858C206.459 107.344 209.173 107.76 211.817 108.246C217.383 110.884 223.437 110.745 229.351 111.578C231.369 111.855 233.386 112.133 235.056 112.064C235.891 112.202 235.404 112.896 235.474 112.48C235.474 112.411 235.474 112.341 235.404 112.341C230.255 111.369 224.967 111.508 219.749 110.814C218.914 110.675 217.87 110.814 217.244 111.925Z" fill="black"/>
<path d="M274.717 133.025C273.813 136.704 274.439 140.521 274.021 144.2C287.102 150.863 295.939 161.829 304.219 173.49C311.664 184.04 319.874 194.035 327.737 204.307C330.241 207.639 332.259 211.248 334.138 214.996C335.808 215.274 336.573 213.885 337.547 212.983C344.366 207.222 350.489 200.767 356.821 194.451C358.351 192.924 360.021 191.814 362.248 191.675C365.727 191.467 367.536 193.41 366.979 196.742C366.701 198.338 366.005 199.796 365.309 201.253C361.482 209.513 356.194 216.801 350.211 223.603C347.845 226.31 347.845 226.865 351.115 228.114C353.62 229.086 355.29 230.543 355.36 233.389C355.429 235.402 356.612 236.374 358.421 237.068C363.57 239.081 364.266 240.33 363.709 245.952C363.5 247.757 364.474 248.728 365.727 249.631C366.771 250.394 367.953 251.158 368.927 249.561C369.971 247.895 371.711 248.034 373.311 247.965C379.086 247.687 379.504 247.34 379.573 241.441C379.573 228.739 379.573 215.968 379.573 203.266C379.573 202.225 379.573 201.184 379.573 200.143C379.643 198.477 380.269 197.644 382.148 197.713C392.584 198.338 402.952 198.546 413.389 199.171C419.86 199.587 426.33 199.518 432.801 200.004C435.445 200.212 436.698 200.976 436.489 203.682C435.932 212.081 435.932 220.549 435.376 228.947C435.306 230.474 435.028 231.932 435.097 233.459C435.515 242.968 434.123 252.407 434.332 261.847C434.402 265.386 433.845 265.872 430.296 265.872C410.814 265.942 391.332 265.872 371.85 265.942C368.927 265.942 367.745 264.97 368.301 262.055C368.44 261.152 368.301 260.181 367.953 259.348C366.005 257.821 365.449 258.931 365.24 260.736C365.309 269.065 365.309 269.065 373.52 269.065C393.35 269.065 413.11 268.996 432.94 269.134C436.211 269.134 436.906 268.163 436.976 265.039C437.254 249.978 437.881 234.847 438.507 219.785C438.785 213.053 438.159 206.181 439.411 199.449C439.69 197.991 439.063 197.575 437.811 197.505C434.262 197.297 430.714 196.95 427.096 196.811C414.293 196.464 401.491 195.423 388.688 195.284C386.114 195.284 383.47 194.521 380.756 194.729C378.877 194.868 378.321 193.965 378.39 192.23C378.46 189.107 378.39 185.983 378.39 182.86C376.094 181.125 373.45 181.958 371.015 181.888C366.214 181.749 366.005 181.819 366.214 176.891C366.701 165.369 366.701 153.847 367.397 142.326C367.605 138.786 368.58 134.968 366.492 131.567C366.283 131.845 366.075 132.123 366.005 132.47C365.588 133.858 366.631 135.871 365.24 136.704C363.431 137.745 361.204 137.051 359.117 137.051C357.377 137.051 357.516 135.662 357.586 134.552C357.864 128.444 356.96 122.336 358.212 116.228C358.421 115.118 358.212 113.938 358.282 112.758C358.351 111.3 357.725 110.745 356.194 110.884C348.054 111.647 339.843 111.855 331.703 112.202C317.3 112.896 302.897 114.007 288.494 114.215C286.267 114.285 285.154 115.256 285.224 117.616C285.293 119.004 285.85 120.67 284.458 121.85C285.015 123.308 285.78 124.002 287.172 122.683C287.45 122.128 287.659 121.573 287.589 121.017C287.52 118.172 289.12 117.477 291.694 117.061C297.191 116.228 302.758 116.436 308.324 116.159C319.735 115.603 331.146 114.701 342.627 114.562C345.618 114.562 348.61 114.007 351.602 113.868C354.037 113.729 355.22 114.701 355.22 117.269C355.151 122.336 355.22 127.403 354.664 132.47C354.385 135.107 353.272 136.009 350.698 136.009C343.531 135.94 336.364 136.009 329.198 136.009C327.597 136.009 325.927 135.871 324.397 136.356C322.309 137.398 323.423 138.855 323.979 140.174C326.693 146.421 329.337 152.667 331.076 160.094C329.059 152.182 326.345 145.38 323.144 138.716C322.588 137.467 322.101 136.079 320.361 136.009C316.882 136.426 313.334 135.454 309.924 136.773C308.811 138.022 309.715 139.202 310.133 140.313C312.777 147.601 314.516 155.097 315.491 162.801C315.769 164.883 315.908 166.966 315.282 168.978C315.004 169.881 315.212 171.199 313.751 171.408C312.36 171.616 311.594 170.783 310.898 169.811C308.672 166.549 307.767 162.87 307.28 159.053C306.445 153.153 305.749 147.184 306.445 141.215C306.584 139.757 306.724 138.161 305.68 136.912C303.314 135.732 300.74 136.148 298.235 136.218C296.774 137.398 297.678 138.786 298.026 139.966C299 143.228 299.696 146.559 299.835 149.96C298.374 146.351 296.982 142.742 296.704 138.855C296.635 137.606 296.982 135.94 295.034 135.593C287.589 137.398 286.893 136.842 287.102 129.277C287.102 128.236 287.172 127.195 287.241 126.223C286.963 124.904 286.337 124.071 284.806 124.557C284.737 127.889 284.597 131.22 284.11 134.482C283.762 136.565 282.927 137.259 280.979 137.189C280.492 137.189 280.075 137.12 279.588 137.189C275.97 137.953 274.3 136.634 274.717 133.025Z" fill="#D0E9FE"/>
<path d="M365.24 260.875C365.936 260.181 366.632 259.487 367.327 258.793C370.945 256.433 371.154 253.865 367.954 250.602C365.449 248.937 363.709 247.34 365.031 243.731C366.005 241.163 363.153 237.97 359.465 236.721C357.238 235.957 356.195 235.124 356.055 232.487C355.916 228.461 352.298 227.698 348.61 226.657C352.437 222.77 355.429 218.675 358.491 214.58C361.831 210.068 364.475 205.279 366.771 200.212C368.649 195.978 368.371 193.202 366.144 191.675C363.64 189.94 359.534 190.773 356.682 193.549C349.237 200.837 341.931 208.194 334.068 215.065C332.607 216.939 330.937 218.605 328.989 219.924C327.319 220.549 326.136 221.729 325.441 223.394C316.326 232.209 307.211 241.163 297.957 249.839C296.009 251.713 295.869 252.962 297.122 255.322C304.288 268.579 306.237 282.808 304.776 297.592C304.706 298.008 304.776 298.494 304.776 299.396C315.769 294.746 325.788 288.916 335.808 283.155C346.245 276.422 356.055 269.134 365.24 260.875Z" fill="#EF7CF1"/>
<path d="M359.047 94.9891C360.439 91.8658 359.117 88.4648 360.091 84.7167C363.57 89.1588 367.258 92.9069 371.224 96.3079C379.016 103.04 387.714 107.899 398.359 108.94C411.44 110.259 423.478 106.719 435.306 101.999C440.872 99.7783 446.23 97.002 451.518 94.0868C453.675 92.9069 453.814 91.727 452.77 89.6447C444.56 73.9584 433.219 61.1873 417.424 52.7195C409.353 48.4162 400.447 46.4728 391.402 46.681C382.008 46.8892 372.893 49.1797 364.405 53.3442C363.5 53.7606 362.457 54.0383 360.995 54.5241C360.995 51.1231 360.995 47.9998 360.995 44.9458C359.186 45.5705 359.465 47.0975 359.465 48.4162C359.743 58.6886 358.56 68.8916 358.63 79.1641C358.699 83.0509 357.586 86.9378 357.864 90.8246C358.003 92.2822 357.795 93.8786 359.047 94.9891Z" fill="#D0E9FE"/>
<path d="M359.047 94.9892C359.395 78.2618 360.021 61.6038 360.926 44.9458C360.995 41.6837 360.926 38.4909 361.065 35.2287C361.135 33.4241 360.856 32.5912 358.699 32.5912C336.295 32.6606 313.96 32.6606 291.555 32.5912C289.12 32.5912 289.12 33.7017 289.05 35.5063C288.355 57.717 287.659 79.8582 286.824 102.069C286.754 103.943 287.38 104.151 288.911 104.151C311.385 104.151 333.859 104.082 356.403 104.151C358.143 104.151 358.56 103.526 358.63 101.93C358.769 99.6395 358.908 97.349 359.047 94.9892Z" fill="#010101"/>
<path d="M128.114 336.669C128.044 336.46 127.905 336.252 127.835 336.044C126.096 330.977 126.096 330.977 131.453 330.283C133.263 330.075 135.072 329.658 137.229 329.311C135.28 326.951 132.845 325.702 130.618 324.245C128.809 323.065 128.322 321.954 129.366 320.011C130.41 318.067 131.106 316.054 132.08 313.833C129.784 313.486 127.835 314.458 126.026 315.083C123.661 315.916 122.339 315.569 121.782 313C121.434 311.543 120.877 310.155 120.39 308.767C120.39 307.309 120.669 305.643 118.442 305.504C117.329 308.281 116.146 311.057 115.102 313.833C114.546 315.43 113.85 315.707 112.319 314.944C108.492 313 104.665 311.126 100.769 309.252C99.5861 310.432 100.978 311.126 101.465 311.82C103.413 314.805 105.5 317.79 107.588 320.635C108.562 321.954 108.492 322.787 106.892 323.55C103.622 325.216 100.491 327.021 96.5942 329.103C101.117 329.728 104.874 330.352 108.562 330.769C110.232 330.977 110.58 331.671 110.649 333.198C110.719 336.044 109.536 338.82 110.44 342.291C112.11 340.694 113.502 339.375 114.894 338.057C119.347 334.1 117.885 334.17 122.13 337.918C124.426 340 126.792 342.082 129.088 344.165C129.227 344.303 129.505 344.303 130.131 344.581C129.366 341.874 128.74 339.306 128.114 336.669Z" fill="#FEDB4D"/>
<path d="M366.561 131.845C366.144 144.755 365.796 157.665 365.378 170.575C365.309 173.837 365.309 177.03 365.1 180.222C364.961 182.305 365.517 183.068 367.744 182.999C371.293 182.86 374.911 183.068 378.459 183.138C395.715 183.068 412.971 182.999 430.226 182.929C436.767 182.929 436.767 182.929 437.045 176.266C437.81 155.583 438.576 134.968 439.48 114.285C439.55 111.925 438.924 111.37 436.697 111.439C414.432 111.508 392.236 111.508 369.971 111.439C367.744 111.439 367.327 112.133 367.257 114.146C367.118 120.115 366.77 125.945 366.561 131.845Z" fill="#070708"/>
<path d="M320.778 136.634C325.579 144.824 328.362 153.778 331.493 162.662C330.867 153.639 326.831 145.588 323.492 137.398C321.961 131.637 318.691 126.986 314.098 123.308C311.246 121.087 308.671 121.92 307.349 125.459C306.445 127.889 305.54 129.138 302.687 127.819C300.809 126.917 298.791 127.75 297.399 129.416C296.077 131.012 295.173 130.665 293.851 129.277C291.763 127.056 290.024 124.279 286.684 123.655C285.849 123.377 285.084 123.03 284.527 122.267C283.692 122.405 282.857 120.878 282.161 122.128C281.605 123.1 282.857 123.308 283.414 123.794C283.831 124.141 284.249 124.488 284.736 124.835C285.571 125.112 286.336 125.529 286.823 126.362C289.815 129.416 292.181 133.025 295.173 136.079C296.077 140.868 296.564 145.796 298.582 150.308C299 151.279 298.93 153.084 300.461 152.737C302.131 152.39 301.087 150.863 301.017 149.822C300.67 145.31 299.278 141.076 297.886 136.842C298.095 135.94 298.165 135.038 298.513 134.135C299 132.678 299.626 131.081 301.435 131.151C303.383 131.22 304.427 132.747 304.914 134.482C305.192 135.454 304.775 136.565 305.54 137.467C305.192 145.657 305.192 153.847 306.932 161.968C307.488 164.467 308.115 166.896 309.297 169.187C310.341 171.13 311.524 173.421 314.168 172.865C316.742 172.31 316.603 169.672 316.673 167.729C316.882 162.107 315.699 156.693 314.446 151.279C313.403 146.56 311.733 141.979 309.993 137.467C309.297 134.413 308.393 131.359 309.924 128.236C311.246 125.529 312.011 125.251 314.029 127.472C315.838 129.416 317.299 131.637 318.621 133.858C319.108 134.76 319.595 136.009 320.778 136.634Z" fill="#060607"/>
<path d="M429.809 349.232C432.94 348.19 435.932 347.635 438.576 346.108C439.55 345.483 440.663 344.859 440.594 343.54C440.524 342.152 439.341 341.666 438.367 341.18C435.793 339.931 433.149 340.278 430.574 340.903C424.451 342.36 418.954 345.345 413.597 348.607C412.414 349.37 412.205 349.926 413.388 350.897C417.841 354.437 422.364 357.769 427.93 359.365C428.904 359.643 430.018 359.712 430.992 359.712C434.888 359.643 436.001 357.561 433.914 354.298C432.731 352.494 431.27 351.036 429.809 349.232Z" fill="black"/>
<path d="M342.556 349.301C345.548 348.121 348.679 347.635 351.323 345.969C352.228 345.414 353.271 344.928 353.271 343.748C353.271 342.429 352.158 341.735 351.184 341.25C348.401 339.792 345.548 340.278 342.695 341.041C336.92 342.568 331.702 345.206 326.623 348.329C325.022 349.301 324.814 349.995 326.414 351.314C330.032 354.229 333.859 356.797 338.173 358.602C339.912 359.296 341.652 359.782 343.6 359.712C347.566 359.573 348.679 357.769 346.522 354.368C345.479 352.494 344.017 351.036 342.556 349.301Z" fill="#FEDB4D"/>
<path d="M345.479 314.944C346.593 315.013 347.08 314.111 347.706 313.486C350.698 310.571 353.759 307.725 356.473 304.602C358.351 302.45 359.326 302.867 360.856 304.949C362.944 307.864 365.379 310.502 367.675 313.209C368.44 314.111 369.275 315.707 370.737 314.597C372.406 313.278 370.737 312.168 369.971 311.126C367.745 308.35 365.518 305.435 363.013 302.936C360.926 300.854 361.274 299.535 363.361 297.731C365.796 295.648 367.953 293.219 370.249 290.929C371.015 290.165 371.919 289.402 371.015 288.291C369.902 287.042 368.927 287.944 368.093 288.777C365.796 291.067 363.431 293.288 361.274 295.648C359.604 297.453 358.56 297.939 356.89 295.579C354.316 292.039 351.393 288.708 348.471 285.445C347.497 284.335 346.662 281.628 344.644 283.294C342.905 284.751 345.201 286.07 346.105 287.25C348.749 290.582 351.324 294.052 354.316 297.106C356.751 299.535 356.264 301.062 353.898 303.075C350.767 305.782 347.984 308.905 344.992 311.82C344.436 312.376 343.809 313 344.157 313.903C344.366 314.597 344.783 314.944 345.479 314.944Z" fill="#020202"/>
<path d="M364.682 325.147C370.945 328.131 376.859 330.075 383.26 330.214C384.721 330.283 386.739 330.352 387.087 328.756C387.365 327.368 385.487 326.743 384.373 325.98C383.886 325.702 383.469 325.355 382.634 324.8C385.417 324.245 387.783 323.759 390.148 323.203C391.192 322.926 393.001 322.926 392.932 321.676C392.862 320.149 390.983 320.427 389.87 320.149C387.226 319.594 384.582 320.08 381.938 320.496C376.233 321.329 370.736 322.926 364.682 325.147Z" fill="#030303"/>
<path d="M396.829 354.645C399.125 354.021 400.656 353.604 402.186 353.118C403.16 352.841 403.926 352.285 403.648 351.175C403.369 349.995 402.465 349.926 401.491 350.203C401.282 350.273 401.003 350.273 400.795 350.342C393.698 353.812 386.879 352.147 380.13 349.231C379.712 349.023 379.225 349.023 378.808 348.884C377.764 348.537 376.929 348.746 376.581 349.787C376.233 350.967 377.068 351.453 377.973 351.8C380.199 352.563 382.495 353.327 385.557 354.368C382.635 355.201 380.547 355.825 378.46 356.381C377.416 356.658 376.233 357.005 376.581 358.393C376.859 359.712 378.042 359.643 379.156 359.434C379.851 359.296 380.478 359.087 381.173 358.81C387.644 356.242 394.115 355.825 400.516 359.018C401.56 359.573 403.16 360.267 403.717 358.463C404.274 356.728 402.534 356.519 401.421 356.103C400.099 355.686 398.916 355.339 396.829 354.645Z" fill="#040404"/>
<path d="M417.493 308.628C419.303 307.378 420.764 306.407 422.155 305.435C423.06 304.81 423.477 304.047 422.921 303.075C422.294 302.103 421.181 302.173 420.555 302.867C416.171 307.517 412.484 305.504 408.866 301.826C408.031 300.923 406.778 299.327 405.456 300.993C404.134 302.659 406.082 303.353 406.987 304.186C408.518 305.504 410.188 306.754 412.136 308.281C409.909 309.738 407.961 311.057 406.013 312.376C405.178 312.931 404.552 313.625 405.248 314.666C405.943 315.638 406.848 315.36 407.683 314.874C408.1 314.666 408.518 314.458 408.866 314.18C412.693 310.502 416.38 310.016 420.068 314.458C420.764 315.36 422.016 316.054 422.99 314.666C423.756 313.486 422.782 312.792 421.947 312.098C420.555 311.057 419.233 310.016 417.493 308.628Z" fill="#040404"/>
<path d="M440.385 66.1847C440.524 66.4624 440.663 66.8094 440.872 66.9482C441.498 67.2259 441.916 66.8094 442.403 66.393C445.186 64.1025 447.9 61.8814 450.683 59.591C452.561 58.064 454.44 56.537 456.249 54.9406C456.667 54.5936 457.154 54.1077 456.667 53.5524C456.319 53.136 455.832 53.136 455.414 53.483C450.474 57.5087 445.603 61.5344 440.733 65.5601C440.594 65.6295 440.524 65.9071 440.385 66.1847Z" fill="#191919"/>
<path d="M469.957 73.7503C469.539 73.9585 469.122 74.0973 468.704 74.3055C463.834 77.0124 459.033 79.65 454.162 82.3569C453.397 82.7733 452.075 83.1204 452.771 84.2309C453.327 85.1332 454.232 84.3003 454.858 83.9533C459.798 81.2463 464.738 78.5394 469.678 75.7631C470.235 75.4161 471.07 75.2772 470.931 74.3749C470.931 73.8197 470.513 73.6808 469.957 73.7503Z" fill="#191919"/>
<path d="M396.411 40.1567C396.898 41.3367 394.949 43.4883 397.106 43.766C398.498 43.9048 397.941 41.4755 398.15 40.2261C398.776 35.2982 399.263 30.4396 399.75 25.5116C399.82 24.7481 400.307 23.6376 399.194 23.4293C397.802 23.1517 398.08 24.5399 398.011 25.3034C397.454 30.2314 396.898 35.0899 396.411 40.1567Z" fill="#131313"/>
<path d="M432.453 34.5347C431.479 34.5347 431.201 35.2287 430.853 35.784C427.583 40.365 424.313 44.9459 421.042 49.5963C420.625 50.1515 419.581 50.915 420.695 51.6091C421.599 52.1644 422.086 51.1232 422.504 50.4986C425.774 45.9176 429.044 41.3367 432.314 36.6863C432.732 35.9922 433.706 35.2288 432.453 34.5347Z" fill="#161616"/>
<path d="M367.814 47.6527C368.858 47.5139 368.928 46.8198 368.719 46.1258C366.979 40.2955 365.17 34.4652 363.361 28.6349C363.153 28.0796 362.874 27.5244 362.178 27.6632C361.622 27.802 361.552 28.3573 361.691 28.7737C363.5 34.8122 365.309 40.8507 367.188 46.8893C367.258 47.2363 367.606 47.4445 367.814 47.6527Z" fill="#1A1A1A"/>
<path d="M203.955 106.927C201.937 101.722 201.937 101.652 206.669 99.0842C213.905 95.128 217.662 88.3954 220.724 81.1769C221.767 78.6088 217.801 73.3338 214.392 72.015C213.418 71.668 211.957 72.0844 211.47 70.4186C213.557 69.3775 215.227 70.8351 217.523 71.2515C216.549 66.74 216.827 62.2979 216.41 57.9252C216.201 56.1899 215.575 54.5241 214.253 53.3442C212.513 51.8172 210.843 51.1926 208.895 53.2748C203.259 59.3133 196.301 62.2285 187.813 62.0896C179.881 61.9508 174.384 70.0022 176.958 78.47C179.741 87.7707 177.167 95.6832 172.157 103.318C170.418 106.025 168.609 107.483 165.408 105.886C164.782 105.609 164.086 105.609 163.39 105.47C163.738 107.552 165.547 108.663 166.521 110.328C168.748 114.076 172.505 115.742 176.332 116.992C183.986 119.49 191.639 118.588 199.084 116.02C199.711 115.812 200.337 115.465 200.546 114.632C200.824 114.285 201.033 113.729 201.381 113.66C204.651 112.48 205.694 110.259 203.955 106.927Z" fill="#EF7BF1"/>
<path d="M222.602 161.968C212.861 163.495 203.468 165.022 194.005 166.549C192.614 166.757 192.127 167.313 192.405 168.909C193.379 174.392 194.562 179.737 196.928 184.803C200.476 192.3 207.295 194.659 214.67 196.533C218.915 197.644 221.211 196.186 222.811 192.577C222.881 192.508 222.95 192.369 223.02 192.3C227.264 186.955 229.282 181.194 226.847 174.323C225.733 171.061 225.386 167.59 224.62 164.259C224.411 163.009 224.203 161.621 222.602 161.968Z" fill="#0E76CF"/>
<path d="M272.629 133.927C272.838 128.722 273.047 123.585 273.325 118.38C273.395 117.061 273.534 115.95 271.516 115.881C254.33 115.256 237.144 114.493 219.888 113.799C224.898 117.963 230.186 121.92 234.708 126.709C235.335 127.403 236.17 127.819 237.074 128.028C247.859 130.249 257.461 135.177 267.063 140.243C269.637 138.716 273.047 137.953 272.629 133.927Z" fill="#FEFEFE"/>
<path d="M185.099 195.7C184.264 200.559 183.429 205.487 182.664 210.346C182.107 214.024 182.177 217.703 183.081 221.381C183.638 223.672 184.473 225.962 186.56 227.212C190.596 229.78 192.892 233.528 194.91 237.623C197.484 242.69 200.058 247.687 203.329 252.338C204.303 253.656 205.138 255.114 206.668 255.808C216.479 260.25 226.22 265.109 237.005 266.497C251.617 268.371 265.533 264.623 279.24 259.972C282.649 258.792 285.919 257.404 289.259 255.947C290.372 255.461 291.764 255.322 292.251 253.656C290.72 252.685 289.607 254.003 288.563 254.489C276.039 259.834 263.167 263.859 249.46 264.97C240.414 265.733 231.647 264.762 223.298 260.875C221.211 259.903 219.054 258.931 216.827 258.445C208.408 256.502 203.398 250.811 199.78 243.453C197.971 239.844 196.092 236.304 194.075 232.764C192.753 230.405 191.083 228.322 188.787 226.865C185.725 224.921 184.612 222.076 184.333 218.675C183.777 211.803 184.751 205.071 186.56 198.477C188.508 196.533 188.439 193.965 188.439 191.467C191.361 174.462 185.725 159.331 177.793 144.824C173.688 137.328 168.33 130.873 161.372 125.806C156.989 122.614 152.188 120.462 146.83 119.49C145.3 119.213 143.699 118.796 142.238 119.49C142.238 120.67 143.003 120.67 143.63 120.74C153.162 121.642 160.816 126.153 167.008 133.025C179.95 147.462 186.838 164.467 187.604 183.901C187.673 186.191 187.534 188.482 186.421 190.634C185.099 192.161 184.751 193.826 185.099 195.7Z" fill="#020508"/>
<path d="M274.16 178.279C271.516 170.02 268.594 161.899 263.724 154.611C258.644 147.045 252.8 140.243 245.285 135.038C244.589 134.552 243.615 133.094 242.78 134.483C242.154 135.524 243.685 135.871 244.311 136.357C254.122 143.506 261.636 152.529 266.646 163.634C268.942 170.089 270.194 176.891 273.395 183.068C277.361 194.868 282.44 206.251 288.146 217.356C289.12 219.23 289.468 221.243 289.468 223.394C289.398 230.335 289.398 237.276 289.398 244.148C289.398 245.327 288.981 246.577 289.885 247.618C290.929 247.41 290.929 246.785 290.929 246.23C291.277 238.248 291.486 230.335 291.068 222.353C290.929 219.161 289.607 216.315 288.215 213.538C283.484 204.168 278.892 194.729 276.039 184.595C276.178 182.305 275.691 180.153 274.16 178.279Z" fill="#03070B"/>
<path d="M119.694 141.354C119.694 141.215 119.903 140.452 119.903 139.619C120.042 137.467 118.024 137.051 116.772 136.495C115.171 135.732 115.171 137.606 114.823 138.508C112.736 144.269 115.241 151.487 120.32 154.611C125.887 158.081 132.775 157.248 137.437 152.598C138.202 151.835 140.081 150.932 138.411 149.613C137.158 148.642 135.697 146.559 133.679 148.711C132.357 150.099 130.966 151.071 128.948 151.21C122.895 151.626 119.485 148.295 119.694 141.354Z" fill="#0F76D0"/>
<path d="M105.708 244.078C105.639 249.7 108.7 253.865 113.988 256.224C119.207 258.584 124.147 257.266 128.53 253.795C129.644 252.893 131.522 251.713 129.783 249.908C128.391 248.52 126.93 247.965 124.982 249.7C121.712 252.476 117.606 252.685 114.754 250.672C111.692 248.59 110.231 244.98 111.553 240.955C112.527 237.901 109.814 238.039 108.631 237.207C107.03 236.096 107.03 238.178 106.474 239.011C105.43 240.399 105.848 242.135 105.708 244.078Z" fill="#0F76D0"/>
<path d="M242.015 250.464C247.929 250.672 252.243 247.965 254.748 242.69C257.114 237.692 255.931 231.515 252.243 227.628C249.947 225.268 248.695 225.338 247.303 227.906C246.746 228.947 246.677 229.71 247.581 230.613C250.573 233.597 251.826 237.207 249.599 240.955C247.581 244.425 244.311 246.299 239.928 245.119C237.701 244.564 236.727 246.299 236.24 247.965C235.753 249.908 237.701 250.047 238.884 250.394C239.858 250.672 240.971 250.464 242.015 250.464Z" fill="#0F76D0"/>
<path d="M225.385 340C225.663 336.252 223.993 333.129 221.558 330.352C220.723 329.381 219.471 327.715 218.218 329.034C217.035 330.214 215.505 331.81 217.592 334.101C221.627 338.473 221.001 343.471 216.618 347.01C214.391 348.746 211.747 348.676 209.312 348.121C206.32 347.427 206.32 350.134 205.763 351.314C204.998 352.91 207.085 352.841 208.199 353.188C217.174 356.172 226.22 348.052 225.385 340Z" fill="#0F76D0"/>
<path d="M118.302 305.574C118.928 306.684 119.624 307.725 120.25 308.836C121.642 308.836 122.616 308.766 123.312 306.962C124.634 303.144 128.6 301.34 132.914 301.964C135.975 302.381 138.689 305.227 139.106 308.905C139.385 311.335 140.915 311.543 142.725 311.612C144.881 311.751 144.742 310.224 144.742 308.836C144.603 302.936 138.967 297.036 132.775 296.342C126.095 295.648 119.903 299.605 118.302 305.574Z" fill="#0F76D0"/>
<path d="M190.596 279.615C189.552 288.916 200.685 295.857 207.643 292.803C208.756 292.317 210.495 292.247 209.799 290.443C209.243 288.985 208.825 287.042 206.251 287.736C202.842 288.638 199.989 287.666 197.623 284.89C194.84 281.628 194.84 277.741 198.041 273.993C198.806 273.091 199.919 272.466 199.223 270.8C197.901 267.677 197.066 267.399 194.631 269.828C191.848 272.605 190.248 275.798 190.596 279.615Z" fill="#0F76D0"/>
<path d="M260.87 318.97C260.731 320.288 261.01 321.26 262.54 321.468C264.419 321.746 265.741 321.26 266.298 319.386C267.481 315.43 270.055 313.556 274.16 313.625C278.265 313.695 281.188 315.36 282.231 319.317C283.066 322.509 285.223 321.468 286.824 321.191C288.911 320.844 287.519 319.108 287.241 318.137C285.919 312.376 280.701 308.281 274.717 308.142C268.315 308.003 262.61 311.959 261.01 317.651C260.94 317.998 260.94 318.484 260.87 318.97Z" fill="#0F76D0"/>
<path d="M224.62 141.562C228.308 141.979 231.439 140.521 233.944 137.745C234.709 136.912 235.683 135.94 234.292 134.829C233.178 133.997 232.135 132.678 230.395 134.066C227.612 136.426 224.481 137.606 220.863 135.801C216.827 133.788 214.949 130.11 216.479 125.876C217.523 122.822 215.366 121.92 213.696 121.364C211.678 120.74 211.539 123.03 211.261 124.279C208.895 133.372 215.088 142.326 224.62 141.562Z" fill="#0F76CF"/>
<path d="M325.51 223.464C326.693 222.284 327.876 221.104 329.059 219.993C323.423 211.317 312.151 212.289 307.28 217.911C306.376 218.952 304.636 220.202 306.237 221.659C307.559 222.909 309.159 223.88 311.246 221.729C315.491 217.356 319.387 217.634 323.771 221.937C324.258 222.423 324.953 222.909 325.51 223.464Z" fill="#0F76CF"/>
<path d="M185.099 195.701C185.934 194.174 186.351 192.508 186.49 190.842C178.349 185.914 168.608 191.467 167.008 198.06C166.73 199.102 165.756 200.49 167.425 200.976C168.817 201.392 170.626 202.017 171.809 200.281C176.192 193.618 177.584 193.202 185.099 195.701Z" fill="#0F76CF"/>
<path d="M273.395 183.207C271.655 176.544 270.263 169.742 266.645 163.773C264.836 162.87 264.488 164.259 263.932 165.369C260.94 172.31 265.254 180.431 273.395 183.207Z" fill="#1076CE"/>
<path d="M200.476 114.771C192.961 117.408 185.447 118.519 177.515 116.506C173.27 115.395 170 112.688 166.451 110.398C165.686 112.411 167.426 113.035 168.469 113.938C170.626 115.881 173.201 117.13 175.984 118.102C179.95 120.809 184.194 120.948 188.647 119.421C194.84 118.657 200.893 117.408 206.877 113.244C203.746 112.688 202.354 114.562 200.476 114.771Z" fill="#040A0F"/>
<path d="M274.161 178.279C274.369 180.5 275.135 182.652 276.039 184.665C277.083 183.554 278.474 183.485 279.796 183.138C282.162 182.582 284.528 181.888 286.059 179.875C286.824 178.834 289.12 178.001 287.241 176.405C285.85 175.225 284.18 173.559 282.093 176.127C280.144 178.695 277.083 178.418 274.161 178.279Z" fill="#0F76CF"/>
<path d="M188.508 191.467C187.464 193.688 187.116 196.047 186.629 198.477C187.673 199.032 188.021 200.004 187.882 201.114C187.464 204.168 189.482 204.168 191.569 204.029C194.561 203.821 193.518 201.531 193.379 200.143C192.822 196.672 190.595 194.104 188.508 191.467Z" fill="#0F76CF"/>
<path d="M217.244 111.925C223.715 111.925 230.116 111.925 236.796 111.925C228.446 110.745 220.236 109.495 211.956 108.316C213.417 109.981 215.226 111.022 217.244 111.925Z" fill="#E9EAEB"/>
<path d="M296.287 262.679C294.686 263.304 293.016 263.998 291.277 264.762C288.076 266.08 284.876 267.469 281.745 268.787C281.118 269.065 280.214 269.273 280.492 270.106C280.771 271.078 281.605 270.731 282.162 270.453C286.963 268.44 291.694 266.428 296.495 264.415C296.982 264.206 297.609 263.929 297.47 263.235C297.4 262.749 296.913 262.61 296.287 262.679Z" fill="#07111A"/>
<path d="M298.791 283.918C295.382 284.127 292.251 284.265 289.12 284.543C288.145 284.612 286.336 284.057 286.476 285.723C286.545 287.042 288.145 286.417 289.12 286.417C292.251 286.278 295.312 286.07 298.443 285.792C299.626 285.654 301.713 286.209 301.644 284.751C301.574 282.947 299.556 284.196 298.791 283.918Z" fill="#07121B"/>
<path d="M292.529 276.839C294.269 276.839 296.008 276.839 297.748 276.839C298.443 276.839 299.209 276.7 299.139 275.798C299.07 275.103 298.443 274.895 297.817 274.895C294.129 274.895 290.442 274.895 286.754 274.895C286.128 274.895 285.502 275.173 285.502 275.798C285.502 276.7 286.267 276.769 286.963 276.839C288.841 276.839 290.65 276.839 292.529 276.839Z" fill="#0D2132"/>
<path d="M302.966 293.08C297.817 295.024 293.294 298.078 289.12 301.687C294.199 299.605 298.93 296.898 302.966 293.08Z" fill="#061018"/>
<path d="M175.984 119.213C175.427 119.976 175.706 120.531 176.541 120.809C181.481 122.336 186.491 122.752 191.57 121.434C191.779 121.364 191.918 120.948 192.266 120.531C191.013 119.56 189.761 120.254 188.578 120.115C184.334 120.462 180.159 119.143 175.984 119.213Z" fill="#061119"/>
<path d="M303.036 300.576C302.618 300.923 302.201 301.27 301.853 301.687C299.487 304.463 297.122 307.309 294.756 310.155C294.269 310.71 293.364 311.404 294.338 312.167C295.034 312.723 295.591 311.959 296.008 311.404C298.513 308.419 301.018 305.435 303.523 302.381C303.871 301.965 304.288 301.409 303.732 300.854C303.593 300.715 303.314 300.715 303.036 300.576Z" fill="#071019"/>
<path d="M272.629 133.927C271.933 135.732 271.794 137.884 268.802 137.536C267.41 137.398 268.245 139.619 267.063 140.174C268.454 141.076 269.915 141.909 271.307 142.812C272.768 142.048 271.655 140.59 272.49 139.827C272.559 137.884 272.629 135.871 272.629 133.927Z" fill="#C5DDF2"/>
<path d="M175.984 119.213C180.159 119.768 184.264 121.642 188.578 120.115C188.578 119.907 188.647 119.629 188.647 119.421C184.403 119.282 180.159 119.282 175.984 118.102C175.984 118.449 175.984 118.866 175.984 119.213Z" fill="#2C6DA6"/>
<path d="M174.801 72.7092C174.523 69.2387 172.713 65.6295 168.608 63.5473C165.129 61.8121 161.789 63.339 160.607 66.9483C159.076 71.5986 161.859 78.123 166.382 80.2052C170.974 82.2875 174.87 79.2335 174.801 72.7092Z" fill="#DA33DD"/>
<path d="M286.615 123.585C289.816 126.362 293.086 129.069 295.452 132.955C296.983 131.151 297.818 128.999 300.114 128.305C302.688 127.542 304.219 129.138 305.889 130.665C307.141 129.693 307.002 128.166 307.42 126.986C309.298 122.128 311.803 121.573 315.491 125.39C317.996 127.958 319.805 131.081 321.544 134.205C322.17 135.315 322.866 136.356 323.492 137.398C332.607 137.398 341.792 137.259 350.907 137.467C354.316 137.536 355.499 136.842 355.708 133.025C356.055 127.472 355.986 121.989 356.264 116.506C356.403 113.66 355.36 112.896 352.716 113.105C341.374 113.868 329.963 114.701 318.622 115.118C312.429 115.326 306.167 115.95 299.975 115.881C296.148 115.812 292.39 116.714 288.633 116.645C287.102 116.645 286.685 117.477 286.685 118.796C286.685 120.323 286.615 121.989 286.615 123.585Z" fill="#FEFEFE"/>
<path d="M320.778 136.634C319.039 132.608 316.743 128.86 313.542 125.806C311.872 124.141 310.411 124.141 309.437 126.709C308.045 130.387 306.932 133.927 309.785 137.398C313.472 136.981 317.23 138.161 320.778 136.634Z" fill="#FCFCFC"/>
<path d="M295.034 135.94C293.225 131.845 290.442 128.652 286.685 126.223C285.084 129.485 286.198 132.886 286.058 136.218C286.058 136.495 286.337 136.842 286.546 137.051C287.728 138.022 293.851 137.189 295.034 135.94Z" fill="#FBFCFC"/>
<path d="M305.262 137.328C305.471 135.871 306.306 134.344 305.332 132.955C304.149 131.359 303.105 129.207 300.461 129.902C298.165 130.526 296.912 133.65 297.678 136.704C300.183 137.883 302.757 137.189 305.262 137.328Z" fill="#F9FAFA"/>
<path d="M372.754 77.4983C372.754 91.6576 383.957 102.832 398.081 102.832C412.415 102.832 423.687 91.5882 423.687 77.3595C423.687 63.2696 412.345 52.0255 398.29 52.0255C383.957 52.0255 372.685 63.2696 372.754 77.4983Z" fill="black"/>
<path d="M358.42 56.884C359.394 50.0126 358.838 43.0718 359.464 36.131C359.603 34.3264 358.56 34.3264 357.307 34.3264C353.341 34.3264 349.445 34.3264 345.479 34.3264C328.223 34.3264 310.967 34.3264 293.712 34.257C291.624 34.257 290.789 34.604 290.72 37.0333C290.372 52.5113 289.885 67.9894 289.189 83.4674C289.05 86.5213 290.024 87.0072 292.807 86.9378C312.846 86.799 332.885 86.8684 352.924 86.8684C357.655 86.8684 357.655 86.8684 357.655 82.1486C357.655 81.5934 357.585 80.9687 357.585 80.4134C355.846 75.416 352.784 71.0433 351.184 65.9071C350.349 63.2002 350.767 61.5344 353.272 60.285C355.15 59.4521 356.89 58.3416 358.42 56.884Z" fill="#FEFEFE"/>
<path d="M358.421 56.884C355.29 57.5781 352.994 59.7992 350.35 61.2568C349.236 61.8814 349.306 62.7837 349.654 63.8943C351.532 69.794 353.759 75.4854 357.586 80.4828C358.351 72.6397 358.49 64.7272 358.421 56.884Z" fill="#CFE8FD"/>
<path d="M378.459 181.055C396.619 181.125 414.849 181.125 433.009 181.264C434.958 181.264 435.236 180.431 435.305 178.834C436.071 157.804 436.767 136.773 437.671 115.812C437.741 113.591 437.045 113.174 434.958 113.174C413.875 113.243 392.792 113.243 371.71 113.174C369.692 113.174 368.857 113.591 368.857 115.812C368.927 120.878 368.718 125.945 368.648 131.081C368.37 131.637 368.44 132.192 368.44 132.747C368.301 138.161 368.301 138.3 373.797 138.439C376.372 138.508 377.694 139.41 377.485 142.117C377.415 143.228 377.485 144.408 377.763 145.518C378.042 146.559 378.807 147.115 379.851 146.768C382.425 146.004 384.791 144.824 386.878 143.228C388.339 142.117 387.644 140.729 386.948 139.549C385.139 136.634 383.121 133.858 381.103 131.012C381.729 130.179 382.425 130.943 382.982 130.873C386.669 131.567 389.383 134.552 393.21 134.968C395.854 133.025 395.715 129.693 397.454 127.125C398.568 128.236 398.498 130.526 400.655 130.596C401.559 130.318 401.559 129.069 402.534 128.86C403.369 130.318 403.577 132.123 404.621 133.441C405.386 134.274 406.36 134.621 407.404 134.413C409.004 134.066 409.283 135.315 409.839 136.218C411.301 136.981 412.692 136.079 414.432 135.94C413.318 139.827 409.144 144.061 415.475 147.115C416.589 147.878 417.702 148.642 418.885 149.891C417.006 150.585 415.267 150.516 413.597 150.863C409.631 151.696 409.283 152.112 410.257 156.207C410.953 159.053 412.135 161.829 412.692 164.744C411.788 163.495 410.883 162.315 409.213 162.176C408.517 161.552 409.491 164.467 407.752 162.662C405.665 160.51 403.647 158.012 400.516 157.109C397.593 158.012 396.271 160.858 393.975 162.454C393.836 162.87 393.488 162.176 393.836 162.454C395.089 160.996 394.532 159.469 394.114 157.942C391.679 156.485 391.192 158.984 389.87 159.886C388.966 157.248 391.262 154.472 389.731 151.765C388.409 150.446 386.669 150.446 384.93 150.307C383.538 150.169 382.008 150.307 380.964 148.989C379.712 148.295 378.668 148.364 377.833 149.613C376.928 152.182 377.346 154.819 377.276 157.457C377.207 163.634 377.207 169.881 377.276 176.058C377.415 177.863 377.207 179.598 378.459 181.055Z" fill="#FEFEFE"/>
<path d="M378.46 181.055C378.46 170.436 378.46 159.816 378.46 149.197C378.042 148.295 378.46 147.462 378.529 146.629C378.529 144.338 378.39 142.048 378.46 139.757C378.529 138.022 377.834 137.189 376.024 137.328C375.816 137.328 375.537 137.328 375.329 137.328C369.067 137.189 369.067 137.189 368.579 130.943C367.605 139.757 368.023 148.642 367.536 157.457C367.118 164.467 367.118 171.477 366.77 178.487C366.631 180.639 367.327 181.333 369.414 181.194C372.476 181.055 375.468 181.125 378.46 181.055Z" fill="#D0E9FE"/>
<path d="M307.419 137.467C306.445 147.184 306.514 156.832 309.645 166.202C310.341 168.215 311.037 171.338 313.403 170.922C315.56 170.505 314.725 167.313 314.586 165.369C314.168 155.583 311.594 146.282 307.419 137.467Z" fill="#CEE7FB"/>
<path d="M197.554 85.4108C195.884 86.4519 196.371 87.146 197.971 87.5625C200.267 88.1872 202.563 88.7424 205.347 89.5059C204.581 85.8273 203.886 82.4957 203.259 79.0947C203.051 77.9841 202.424 77.8453 201.52 78.47C201.381 79.3723 201.241 80.2746 201.241 81.1769C201.172 85.272 201.241 85.272 197.554 85.4108Z" fill="#1C0B1C"/>
<path d="M193.657 90.894C194.074 93.601 194.77 95.8914 197.345 96.5161C200.267 97.2102 202.354 95.6832 204.372 93.1845C200.615 92.3516 197.275 91.6575 193.657 90.894Z" fill="#120912"/>
<path d="M197.553 85.4108C199.223 85.9661 201.032 87.3542 202.563 86.3131C203.119 85.8966 202.284 83.398 202.006 81.871C201.867 80.7604 201.658 79.6499 201.519 78.47C200.197 80.8299 198.875 83.1203 197.553 85.4108Z" fill="#D334D5"/>
<path d="M210.843 85.8968C210.843 87.2849 211.609 87.979 213 88.0484C214.462 88.1178 215.575 87.7014 215.644 86.0356C215.714 84.6474 214.879 83.9533 213.557 83.8839C212.096 83.8839 210.983 84.3004 210.843 85.8968Z" fill="#DD39DF"/>
<path d="M212.583 76.3877C211.121 76.6653 210.217 77.4288 210.286 78.8864C210.356 80.2051 211.261 81.038 212.583 80.9686C214.044 80.9686 214.948 79.9969 214.809 78.5394C214.74 77.29 213.835 76.5959 212.583 76.3877Z" fill="#180C18"/>
<path d="M186.559 84.5779C186.977 85.8273 187.812 86.7296 189.273 86.6602C190.734 86.5908 191.36 85.7579 191.221 84.3697C191.082 82.7039 189.83 82.4263 188.438 82.5651C187.325 82.6345 186.559 83.2592 186.559 84.5779Z" fill="#DC39DF"/>
<path d="M195.466 74.2361C194.144 74.4443 193.378 75.2078 193.309 76.5266C193.309 77.9147 194.074 78.7476 195.396 78.7476C196.927 78.7476 197.762 77.8453 197.692 76.3183C197.692 74.9996 196.788 74.3055 195.466 74.2361Z" fill="#0E070E"/>
<path d="M195.048 65.8378C194.492 65.9766 193.657 65.9766 192.891 66.2542C191.569 66.7401 189.134 67.0871 189.621 68.5447C190.317 70.5575 191.709 68.0588 192.891 68.0588C193.657 68.0588 194.492 67.8506 195.257 67.7812C196.023 67.7118 197.136 67.8506 197.066 66.8095C197.136 65.7684 196.023 65.9766 195.048 65.8378Z" fill="#261427"/>
<path d="M194.631 102.069C191.987 101.097 189.134 100.75 187.116 98.5984C187.047 98.529 186.42 98.7372 186.281 98.876C186.003 99.4313 186.281 99.9865 186.699 100.403C188.995 102.485 191.5 103.457 194.631 102.069Z" fill="#1A0D1A"/>
<path d="M165.408 65.8378C165.895 67.5036 166.312 68.8917 165.338 70.2105C164.851 70.8352 164.503 71.9457 165.338 72.3621C166.73 73.0562 166.591 71.4598 167.008 70.8352C167.356 70.3493 167.634 69.8634 167.913 69.3776C169.374 70.0023 170 71.2516 170.835 72.3621C171.183 72.848 171.6 73.4033 172.227 73.1256C172.783 72.848 172.783 72.1539 172.435 71.5987C170.696 69.1694 169.026 66.6707 165.408 65.8378Z" fill="#1A061B"/>
<path d="M382.496 225.268C382.704 229.086 384.374 232.417 386.322 235.541C390.219 241.857 395.229 247.271 400.656 252.407C401.63 253.379 402.465 253.865 403.926 252.962C410.606 248.59 417.146 243.939 422.364 237.901C423.826 236.235 425.078 234.43 425.774 232.348C427.513 227.351 424.661 223.811 419.303 224.435C414.293 224.991 409.701 227.004 405.457 229.572C403.091 231.029 401.908 231.237 401.004 228.114C400.099 225.06 398.36 222.214 396.133 219.785C393.28 216.592 390.497 215.69 387.575 217.009C384.235 218.397 382.356 221.52 382.496 225.268Z" fill="black"/>
<path d="M316.743 77.4982C320.43 78.1229 324.048 79.3723 328.014 78.47C336.921 76.3877 342.696 68.3364 341.652 59.1745C340.678 50.3596 332.676 43.9741 323.005 44.3211C314.516 44.5987 307.28 52.0254 306.932 60.8403C306.793 64.2413 307.836 67.434 309.367 70.4186C310.62 71.2515 310.967 73.4032 313.124 73.0561C313.89 72.9173 313.681 73.4032 313.611 73.889C312.985 76.4571 315.003 76.8736 316.743 77.4982Z" fill="#FEDB4D"/>
<path d="M316.743 77.4982C315.491 76.0407 312.29 75.3466 315.63 71.8762C312.777 72.5703 311.246 72.4314 310.62 70.0716C310.272 68.6834 309.785 70.0021 309.368 70.4186C309.02 71.7374 308.463 72.9173 306.793 71.8068C306.167 71.4597 305.471 71.0433 304.915 71.6679C304.288 72.362 305.054 72.9173 305.402 73.4726C307.628 76.4571 303.523 75.763 303.175 77.5676C304.219 77.7759 305.402 77.8453 306.445 78.3311C308.115 79.0946 306.445 80.6216 307.35 82.0792C309.994 78.2617 311.873 81.3851 314.656 83.6756C313.055 79.9969 312.638 77.5676 316.743 77.4982Z" fill="#050504"/>
<path d="M337.617 40.4343C337.895 40.8507 338.034 41.2672 338.312 41.6836C341.513 46.4728 344.644 51.3313 347.845 56.1205C348.262 56.7452 348.541 57.8557 349.584 57.0922C350.35 56.537 349.723 55.8429 349.306 55.2876C346.036 50.3596 342.835 45.5011 339.565 40.5731C339.287 40.0872 338.939 39.5319 338.243 39.7402C338.034 39.8096 337.895 40.1566 337.617 40.4343Z" fill="#181818"/>
<path d="M378.529 146.629C378.042 147.323 376.65 147.254 376.789 148.364C376.859 148.711 377.903 148.919 378.459 149.266C379.433 149.197 380.477 149.128 381.381 149.613C382.843 150.308 384.373 150.655 386.043 150.585C387.365 150.516 388.618 150.655 389.453 151.834C389.801 154.958 388.479 157.942 389.105 161.274C391.262 160.858 391.888 158.289 393.975 157.873C394.115 158.706 394.671 158.289 394.88 158.012C396.689 155.235 398.707 155.93 400.794 157.526C403.021 159.469 405.247 161.274 407.404 163.287C409.074 164.814 409.074 163.773 409.004 162.385C409.7 160.441 408.448 158.775 408.03 157.11C406.082 150.099 406.708 151.418 412.205 150.377C413.736 150.099 415.545 150.308 416.38 148.433C415.545 146.074 413.11 145.31 411.37 144.061C408.935 142.464 408.309 140.868 409.7 138.369C410.048 137.675 410.396 136.912 410.048 136.079C410.953 133.997 410.953 132.608 408.03 133.58C407.126 133.858 406.291 134.205 405.456 133.441C402.673 134.691 401.699 132.608 400.585 130.804C399.124 129.277 398.985 127.056 397.524 124.974C395.993 128.375 394.671 131.567 393.28 134.691C389.522 134.274 386.739 131.498 383.26 130.526C382.147 130.04 381.103 129.207 379.085 129.346C381.521 132.955 383.678 136.356 386.113 139.549C387.644 141.493 387.574 142.603 385.208 143.575C382.773 144.408 380.686 145.588 378.529 146.629Z" fill="#FEDB4D"/>
<path d="M416.032 147.809C413.945 150.169 410.953 149.336 408.448 149.752C405.874 150.169 405.108 150.863 406.082 153.431C407.196 156.277 407.474 159.469 408.935 162.246C410.536 163.564 412.066 164.883 414.154 166.549C412.901 162.107 411.927 158.289 410.744 154.472C410.188 152.667 410.675 152.043 412.553 151.834C415.267 151.557 417.981 151.002 421.042 150.516C419.65 148.572 417.633 147.739 416.032 146.421C415.615 146.907 415.615 147.392 416.032 147.809Z" fill="#040403"/>
<path d="M416.032 147.809C416.032 147.392 416.032 146.906 416.032 146.49C408.657 142.811 416.032 138.855 415.406 134.829C413.806 135.177 411.857 135.593 409.84 136.009C406.778 141.77 406.709 141.77 412.205 145.518C413.458 146.282 414.78 147.045 416.032 147.809Z" fill="#090807"/>
<path d="M400.725 157.457C397.176 153.5 397.106 153.5 393.906 157.804C393.906 159.539 393.906 161.343 393.906 163.703C396.48 161.413 398.637 159.469 400.725 157.457Z" fill="#0C0C0A"/>
<path d="M400.447 130.734C400.447 132.331 400.725 134.135 402.117 134.899C402.882 135.315 404.9 135.246 405.317 133.372C404.413 131.29 403.578 129.138 402.673 126.986C401.073 127.889 401.282 129.554 400.447 130.734Z" fill="#0E0D0A"/>
<path d="M389.453 151.765C389.871 150.516 389.175 150.03 388.131 150.03C385.905 149.961 383.678 149.197 381.382 149.613C380.477 150.585 381.382 150.724 382.008 150.793C384.513 151.14 386.948 151.488 389.453 151.765Z" fill="#474332"/>
<path d="M383.121 130.387C385.835 132.47 389.105 133.511 392.166 135.107C392.653 135.385 393.001 135.107 393.21 134.621C389.801 133.233 386.878 130.734 383.121 130.387Z" fill="#928553"/>
<path d="M200.823 93.948C199.014 93.601 197.762 93.3927 196.231 93.1151C197.831 95.3362 197.831 95.3362 200.823 93.948Z" fill="#A756A8"/>
</g>
<path d="M29.5894 26.0934C30.9999 25.1512 30.1626 23.2874 30.4755 21.6233C30.6346 20.9254 30.7937 20.2275 30.9528 19.5297C31.2196 19.5247 31.4234 19.5051 31.6902 19.5002C31.9781 20.5688 32.3435 21.5885 32.442 22.6133C32.8034 27.4393 32.8979 32.2703 33.3368 37.0475C33.5194 39.1604 34.0951 41.2976 34.6853 43.3714C35.6119 46.5918 38.9469 47.6985 41.5576 47.9027C42.0137 47.9416 42.508 47.5218 43.0995 47.2582C43.8291 48.4291 44.974 48.3604 46.2255 48.1161C47.1956 47.9401 48.1658 47.7642 49.1267 47.9201C49.6459 47.9736 50.0206 48.6615 50.4675 49.0323C50.0652 49.3398 49.7458 49.8669 49.3238 49.9695C47.2915 50.4337 45.225 50.7564 43.1441 51.1425C35.9798 52.5548 31.9282 58.9632 31.7005 65.7902C31.5847 69.5037 31.5951 73.2466 31.4018 77.0089C31.3833 77.6726 30.7339 78.1901 30.3369 78.766C30.074 78.1707 29.656 77.6731 29.5969 77.0583C29.1356 73.5449 29.0332 69.9144 28.213 66.5183C26.8606 60.7946 21.9286 55.9114 15.4689 54.8153C15.0904 54.7276 14.6684 54.8302 14.3818 54.6302C13.7456 54.2156 13.2014 53.6887 12.6427 53.2253C13.1659 52.6786 13.5919 51.9758 14.1979 51.6487C16.5588 50.3255 19.1485 49.4562 21.3005 47.8842C26.7822 43.9446 29.4036 38.2735 29.9809 31.6612C30.0283 30.8706 30.1532 30.0313 30.1374 29.2261C30.0244 28.2648 29.7707 27.3377 29.5894 26.0934ZM39.5134 50.1676C36.9159 49.0313 34.1488 48.0562 33.0867 45.1383C32.2192 42.5328 31.5699 39.8442 30.9259 37.424C30.0621 40.6303 28.6791 43.783 26.184 46.2774C23.7034 48.7082 20.9652 50.8122 18.6489 52.8136C20.5576 54.0574 22.9368 55.2767 24.7298 57.028C26.5859 58.794 27.9188 61.1066 29.5277 63.0825C31.9914 55.7718 32.3595 55.3227 39.5134 50.1676Z" fill="black"/>
<defs>
<clipPath id="clip0">
<rect width="72.0879" height="86.0294" fill="white" transform="matrix(0.866025 -0.5 -0.5 -0.866025 64.0146 236.548)"/>
</clipPath>
<clipPath id="clip1">
<rect width="387" height="346" fill="white" transform="matrix(-1 0 0 1 471 21)"/>
</clipPath>
</defs>
</svg>
