<svg width="24" height="24" viewBox="0 0 24 24" fill="none" xmlns="http://www.w3.org/2000/svg">
<path d="M20 4H22.6133C23.3733 4 24 4.62667 24 5.38667V22.6133C24 23.3733 23.3733 24 22.6133 24H5.38667C4.62667 24 4 23.3733 4 22.6133V20H1.38667C0.626667 20 0 19.3733 0 18.6133V1.38667C0 0.626667 0.626667 0 1.38667 0H18.6133C19.3733 0 20 0.626667 20 1.38667V4ZM2.66667 17.3333H17.3333V2.66667H2.66667V17.3333ZM9.33333 6C9.33333 4.89333 8.44 4 7.33333 4C6.22667 4 5.33333 4.89333 5.33333 6C5.33333 7.10667 6.22667 8 7.33333 8C8.44 8 9.33333 7.10667 9.33333 6ZM12 12C12 12 13.3333 5.33333 16 5.33333V16H4V8C6.66667 8 6.66667 12 6.66667 12C6.66667 12 7.10667 9.33333 9.33333 9.33333C11.56 9.33333 12 12 12 12ZM21.3333 21.3333V6.66667H20V18.6133C20 19.3733 19.3733 20 18.6133 20H6.66667V21.3333H21.3333Z" fill="black"/>
</svg>
