<svg width="24" height="24" viewBox="0 0 24 24" fill="none" xmlns="http://www.w3.org/2000/svg">
<path d="M12 22.5L5.67301 15.0382C5.58509 14.9262 5.49809 14.8135 5.41201 14.7C4.33124 13.2763 3.74739 11.5374 3.75001 9.75C3.75001 7.56196 4.6192 5.46354 6.16638 3.91637C7.71355 2.36919 9.81197 1.5 12 1.5C14.188 1.5 16.2865 2.36919 17.8336 3.91637C19.3808 5.46354 20.25 7.56196 20.25 9.75C20.2526 11.5366 19.669 13.2747 18.5888 14.6978L18.588 14.7C18.588 14.7 18.363 14.9955 18.3293 15.0353L12 22.5ZM6.60901 13.7963C6.61051 13.7963 6.78451 14.0272 6.82426 14.0767L12 20.181L17.1825 14.0685C17.2155 14.0272 17.391 13.7948 17.3918 13.794C18.2746 12.6308 18.7517 11.2103 18.75 9.75C18.75 7.95979 18.0389 6.2429 16.773 4.97703C15.5071 3.71116 13.7902 3 12 3C10.2098 3 8.49291 3.71116 7.22704 4.97703C5.96117 6.2429 5.25001 7.95979 5.25001 9.75C5.24844 11.2112 5.72609 12.6326 6.60976 13.7963H6.60901Z" fill="black"/>
<circle cx="12" cy="10" r="4.5" stroke="#020A13"/>
<line x1="12.25" y1="7" x2="12.25" y2="10" stroke="black" stroke-width="0.5"/>
<line x1="12" y1="10.25" x2="10" y2="10.25" stroke="black" stroke-width="0.5"/>
<circle cx="12" cy="10" r="1" fill="#020A13"/>
</svg>
