<svg width="24" height="24" viewBox="0 0 24 24" fill="none" xmlns="http://www.w3.org/2000/svg">
<path d="M3 14L3.5 14.07L8.07 9.5C7.97831 9.1642 7.97818 8.80998 8.06962 8.47411C8.16106 8.13824 8.34074 7.83298 8.59 7.59C9.37 6.8 10.63 6.8 11.41 7.59C11.94 8.11 12.11 8.85 11.93 9.5L14.5 12.07L15 12C15.18 12 15.35 12 15.5 12.07L19.07 8.5C19 8.35 19 8.18 19 8C19 7.46957 19.2107 6.96086 19.5858 6.58579C19.9609 6.21071 20.4696 6 21 6C21.5304 6 22.0391 6.21071 22.4142 6.58579C22.7893 6.96086 23 7.46957 23 8C23 8.53043 22.7893 9.03914 22.4142 9.41421C22.0391 9.78929 21.5304 10 21 10C20.82 10 20.65 10 20.5 9.93L16.93 13.5C17 13.65 17 13.82 17 14C17 14.5304 16.7893 15.0391 16.4142 15.4142C16.0391 15.7893 15.5304 16 15 16C14.4696 16 13.9609 15.7893 13.5858 15.4142C13.2107 15.0391 13 14.5304 13 14L13.07 13.5L10.5 10.93C10.18 11 9.82 11 9.5 10.93L4.93 15.5L5 16C5 16.5304 4.78929 17.0391 4.41421 17.4142C4.03914 17.7893 3.53043 18 3 18C2.46957 18 1.96086 17.7893 1.58579 17.4142C1.21071 17.0391 1 16.5304 1 16C1 15.4696 1.21071 14.9609 1.58579 14.5858C1.96086 14.2107 2.46957 14 3 14Z" fill="black"/>
<path d="M5.73388 1.29517L9.5 0.458252L13.2661 1.29517C13.3679 1.31779 13.4589 1.37444 13.5242 1.45577C13.5894 1.5371 13.625 1.63824 13.625 1.7425V6.31988C13.625 6.77259 13.5132 7.21829 13.2995 7.61742C13.0859 8.01656 12.777 8.35677 12.4003 8.60788L9.5 10.5416L6.59967 8.60788C6.22304 8.35682 5.91421 8.01667 5.70058 7.61763C5.48694 7.21858 5.37511 6.77297 5.375 6.32033V1.7425C5.37502 1.63824 5.41058 1.5371 5.47583 1.45577C5.54107 1.37444 5.6321 1.31779 5.73388 1.29517ZM9.5 5.04158C9.80389 5.04158 10.0953 4.92086 10.3102 4.70598C10.5251 4.49109 10.6458 4.19965 10.6458 3.89575C10.6458 3.59186 10.5251 3.30041 10.3102 3.08553C10.0953 2.87064 9.80389 2.74992 9.5 2.74992C9.19611 2.74992 8.90466 2.87064 8.68977 3.08553C8.47489 3.30041 8.35417 3.59186 8.35417 3.89575C8.35417 4.19965 8.47489 4.49109 8.68977 4.70598C8.90466 4.92086 9.19611 5.04158 9.5 5.04158ZM7.44988 7.33325H11.5501C11.4946 6.82835 11.2546 6.36171 10.8763 6.02275C10.498 5.68379 10.0079 5.49635 9.5 5.49635C8.99205 5.49635 8.50197 5.68379 8.12366 6.02275C7.74535 6.36171 7.50543 6.82835 7.44988 7.33325Z" fill="#ECFE7C"/>
<path d="M6.57625 1.17758L10 0.416748L13.4237 1.17758C13.5163 1.19815 13.599 1.24965 13.6583 1.32358C13.7177 1.39752 13.75 1.48946 13.75 1.58425V5.7455C13.75 6.15705 13.6483 6.56224 13.4541 6.92509C13.2599 7.28793 12.9791 7.59722 12.6367 7.8255L10 9.58341L7.36333 7.8255C7.02095 7.59726 6.74019 7.28804 6.54598 6.92527C6.35176 6.5625 6.2501 6.1574 6.25 5.74591V1.58425C6.25002 1.48946 6.28235 1.39752 6.34166 1.32358C6.40098 1.24965 6.48372 1.19815 6.57625 1.17758ZM10 4.58341C10.2763 4.58341 10.5412 4.47367 10.7366 4.27832C10.9319 4.08297 11.0417 3.81801 11.0417 3.54175C11.0417 3.26548 10.9319 3.00053 10.7366 2.80518C10.5412 2.60983 10.2763 2.50008 10 2.50008C9.72373 2.50008 9.45878 2.60983 9.26343 2.80518C9.06808 3.00053 8.95833 3.26548 8.95833 3.54175C8.95833 3.81801 9.06808 4.08297 9.26343 4.27832C9.45878 4.47367 9.72373 4.58341 10 4.58341ZM8.13625 6.66675H11.8637C11.8132 6.20775 11.5951 5.78353 11.2512 5.47538C10.9073 5.16724 10.4618 4.99684 10 4.99684C9.53823 4.99684 9.0927 5.16724 8.74878 5.47538C8.40487 5.78353 8.18676 6.20775 8.13625 6.66675Z" fill="black"/>
</svg>
